<?xml version="1.0" encoding="utf-8"?>
<svg baseProfile="full" height="0" version="1.1" width="0" xmlns="http://www.w3.org/2000/svg" xmlns:ev="http://www.w3.org/2001/xml-events" xmlns:xlink="http://www.w3.org/1999/xlink"><defs><clipPath id="piece-mask-100-0" shape-rendering="crispEdges"><path d="M191 665 l1 -135 -13 -16 -13 -16 -30 5 -31 6 -27 6 -27 7 -25 -25 -26 -26 0 -38 0 -39 16 -22 15 -22 16 0 17 0 33 12 33 12 17 -16 16 -17 13 -133 13 -133 0 -1 1 -2 113 -7 112 -7 29 11 28 11 -6 33 -7 32 -6 33 -5 34 12 23 12 23 25 11 24 11 34 0 33 0 31 -26 31 -25 11 -41 11 -41 -11 -42 -11 -42 -5 -15 -6 -15 16 -17 16 -16 38 0 37 0 55 16 54 16 36 20 37 20 -24 47 -23 46 -21 79 -21 79 -10 19 -10 18 -29 0 -30 0 0 -12 0 -13 -10 15 -10 15 0 53 0 54 29 29 29 29 29 0 29 0 11 -11 11 -11 23 4 24 3 3 134 3 134 -13 9 -13 8 -358 0 -357 0 1 -135z" transform="translate(0.000000,80.000000) scale(0.100000,-0.100000)"/></clipPath><clipPath id="piece-mask-100-1" shape-rendering="crispEdges"><path d="M446 917 l-19 -14 11 -33 12 -33 0 -39 0 -39 -12 -22 -11 -22 -16 -12 -16 -12 -48 -1 -48 0 -30 16 -31 16 5 36 6 37 6 30 7 30 -22 20 -22 20 -103 3 -103 4 -7 -67 -8 -67 6 -50 6 -51 17 -24 16 -25 26 6 27 7 46 6 46 5 12 -32 11 -33 0 -32 0 -32 -25 -28 -26 -27 -32 5 -32 6 -27 6 -26 7 -12 -22 -11 -21 -2 -132 -2 -132 117 0 117 0 11 -11 11 -11 -17 -35 -17 -36 7 -26 6 -26 30 -15 29 -15 58 0 58 0 32 20 32 19 7 27 7 27 -13 35 -12 34 11 11 12 12 57 0 57 0 55 -5 55 -5 -2 20 -2 20 -10 94 -10 95 -15 15 -15 15 -26 -12 -26 -12 -24 0 -23 0 -26 31 -26 31 0 53 0 54 22 21 22 20 24 0 25 0 39 -12 39 -11 15 15 15 15 11 69 11 69 -7 66 -7 66 -67 12 -67 13 -65 5 -65 5 -19 -15z" transform="translate(0.000000,93.000000) scale(0.100000,-0.100000)"/></clipPath><clipPath id="piece-mask-100-2" shape-rendering="crispEdges"><path d="M551 938 l-33 -9 6 -32 6 -32 6 -40 6 -40 -11 -27 -11 -28 -32 -20 -33 -20 -31 0 -31 0 -28 26 -27 25 6 57 7 57 2 30 2 30 -39 13 -39 13 -111 -3 -111 -3 -3 -120 -3 -120 15 -20 14 -20 34 13 34 12 28 0 28 0 28 -17 28 -16 11 -24 11 -24 0 -34 0 -33 -25 -30 -25 -29 -30 -13 -30 -12 -53 6 -52 6 -25 2 -24 3 -10 -27 -9 -27 22 -83 22 -83 1 -20 0 -20 125 0 125 0 19 -24 19 -23 -6 -27 -7 -26 -8 -10 -9 -9 0 -22 0 -22 26 -17 26 -17 53 -1 52 -1 26 17 26 17 6 34 7 34 -13 57 -13 57 15 9 14 9 47 0 46 0 78 -15 78 -15 2 3 3 3 -9 64 -10 65 0 81 0 81 19 17 19 17 38 -16 39 -16 31 6 32 6 26 20 26 20 0 29 0 28 -15 12 -16 13 -37 -12 -38 -13 -28 4 -29 3 -21 28 -21 28 -5 132 -5 132 -95 1 -95 1 -34 -9z" transform="translate(0.000000,95.000000) scale(0.100000,-0.100000)"/></clipPath><clipPath id="piece-mask-100-3" shape-rendering="crispEdges"><path d="M501 969 l-23 -9 8 -28 9 -27 0 -71 0 -71 -25 -36 -25 -36 -23 -10 -23 -11 -40 0 -40 0 -24 16 -25 16 0 43 0 42 14 45 13 46 -7 12 -8 13 -43 6 -44 6 -98 -3 -97 -4 0 -361 0 -362 88 0 87 0 33 -14 33 -14 9 -18 10 -18 0 -25 0 -26 -12 -21 -13 -20 19 -15 20 -14 73 0 73 0 21 21 21 21 -5 52 -5 51 -7 22 -7 22 38 10 37 10 104 -11 104 -11 8 9 9 9 21 58 21 57 5 53 6 52 -9 14 -10 13 -48 -12 -49 -12 -41 11 -41 11 -25 20 -25 19 -13 31 -13 31 12 38 11 39 26 17 26 17 42 -5 41 -5 22 -7 22 -7 11 43 12 42 -7 94 -7 94 -22 14 -21 13 -45 15 -45 14 -35 6 -35 6 -24 -10z" transform="translate(0.000000,98.000000) scale(0.100000,-0.100000)"/></clipPath><clipPath id="piece-mask-100-4" shape-rendering="crispEdges"><path d="M733 960 l-23 -9 0 -7 0 -8 11 -31 12 -32 -7 -27 -7 -27 -32 -19 -32 -20 -58 0 -58 0 -29 15 -30 15 -6 26 -7 26 17 36 18 36 -19 14 -18 14 -59 -6 -59 -6 -53 0 -54 0 0 -114 0 -115 -10 -25 -9 -25 -26 -17 -26 -17 -65 18 -66 18 -14 -15 -14 -14 -2 -37 -1 -37 23 -25 24 -26 53 -15 53 -16 51 17 50 17 14 -12 15 -12 0 -58 0 -58 -19 -59 -19 -58 -6 -16 -7 -17 99 -4 99 -4 27 -18 28 -18 -6 -26 -7 -27 -5 -45 -6 -45 21 -19 21 -19 55 -5 55 -4 30 12 31 13 19 25 20 25 0 33 0 33 -10 6 -10 6 0 9 0 9 19 11 20 10 110 14 111 15 9 6 9 5 16 48 16 47 15 75 15 75 11 28 11 27 17 0 17 0 11 -11 11 -11 21 12 22 11 9 25 10 25 0 34 0 34 -10 25 -10 26 -17 0 -17 0 -43 -16 -42 -16 -26 6 -26 7 -9 25 -10 25 0 108 0 108 -37 6 -38 6 -70 6 -70 5 -22 -10z" transform="translate(0.000000,97.000000) scale(0.100000,-0.100000)"/></clipPath><clipPath id="piece-mask-100-5" shape-rendering="crispEdges"><path d="M11 823 l6 -118 7 -18 8 -17 25 -6 24 -7 12 12 11 11 31 0 32 0 18 -20 18 -20 4 -47 5 -48 -11 -28 -11 -27 -27 -11 -28 -11 -48 15 -47 15 -15 -15 -15 -14 0 -130 0 -129 95 0 96 0 32 -13 32 -14 14 -17 15 -18 -15 -41 -15 -42 4 -18 4 -17 28 -15 29 -15 41 0 41 0 30 15 30 16 19 32 20 32 0 35 0 36 -12 12 -12 12 17 18 18 17 47 0 47 0 70 -8 70 -8 2 38 1 38 7 83 7 82 18 22 18 22 26 -12 27 -12 29 0 29 0 20 26 21 27 0 58 0 57 -6 16 -6 16 -28 0 -27 0 -32 -11 -31 -11 -26 6 -25 7 -16 37 -16 37 0 103 1 102 -371 0 -372 0 6 -117z" transform="translate(0.000000,94.000000) scale(0.100000,-0.100000)"/></clipPath><clipPath id="piece-mask-100-6" shape-rendering="crispEdges"><path d="M495 907 l-15 -23 16 -63 16 -63 -16 -16 -17 -17 -145 -5 -146 -5 1 -135 1 -135 -9 -13 -8 -14 -47 16 -47 16 -24 -6 -24 -6 -15 -24 -16 -23 0 -25 0 -25 9 -25 10 -25 38 -25 38 -26 32 0 32 0 6 10 6 10 20 0 19 0 10 -26 10 -26 -10 -64 -10 -63 -11 -27 -10 -27 6 -15 5 -14 119 4 119 3 27 25 27 25 -6 35 -5 35 -3 24 -3 24 30 9 30 9 60 -6 61 -6 13 -8 13 -8 -11 -7 -11 -7 0 -24 0 -25 23 -14 22 -14 85 -22 85 -22 24 -5 24 -6 -8 19 -8 19 -23 73 -24 73 0 32 0 32 9 14 9 15 40 -13 40 -14 49 7 48 7 43 21 43 20 16 24 16 25 -18 19 -17 19 -44 17 -43 16 -66 -4 -66 -4 3 145 3 146 -120 5 -120 5 -22 13 -23 13 0 17 1 17 14 18 13 19 -10 29 -10 29 -28 20 -28 20 -41 0 -41 0 -15 -23z" transform="translate(0.000000,93.000000) scale(0.100000,-0.100000)"/></clipPath><clipPath id="piece-mask-100-7" shape-rendering="crispEdges"><path d="M200 832 l0 -138 -14 -19 -14 -19 -39 12 -40 12 -27 0 -26 0 -20 -20 -20 -20 0 -37 0 -38 21 -34 20 -33 27 5 27 5 21 7 21 7 16 -16 15 -16 6 -37 5 -38 6 -91 7 -90 76 9 77 9 52 -7 52 -6 11 -13 11 -14 -12 -70 -12 -70 6 -24 7 -25 25 -11 26 -12 30 0 31 0 35 17 36 17 20 45 20 45 -10 40 -10 41 -4 14 -4 14 27 16 26 15 103 -11 104 -12 4 4 4 4 8 113 8 113 0 21 1 22 18 23 19 22 44 -17 44 -18 22 27 23 26 0 24 0 24 -10 25 -9 25 -27 17 -26 18 -43 -16 -43 -16 -19 20 -18 20 1 119 1 118 -54 7 -55 7 -65 -6 -65 -5 -15 -15 -16 -15 12 -33 11 -32 0 -44 0 -45 -29 -29 -29 -29 -44 0 -44 0 -21 15 -22 16 -6 33 -7 34 17 63 16 64 -18 12 -17 13 -133 0 -133 0 0 -138z" transform="translate(0.000000,97.000000) scale(0.100000,-0.100000)"/></clipPath><clipPath id="piece-mask-100-8" shape-rendering="crispEdges"><path d="M40 663 l0 -108 18 -34 17 -35 17 -10 17 -10 36 17 35 17 20 -20 19 -19 7 -27 7 -27 -9 -25 -9 -25 -28 -21 -28 -20 -42 0 -42 1 -29 8 -28 8 -9 -14 -9 -14 0 -42 0 -42 16 -73 16 -73 0 -16 -1 -16 117 -7 117 -6 29 8 29 8 11 17 10 16 -12 34 -12 33 0 25 0 24 20 32 19 32 26 7 25 6 24 -15 23 -16 17 -34 16 -35 0 -37 0 -36 -11 -21 -11 -20 6 -23 6 -24 35 -7 35 -6 98 17 97 17 18 0 18 -1 -6 18 -6 18 11 27 10 27 10 63 10 64 -10 26 -10 26 -19 0 -20 0 -6 -10 -6 -10 -32 0 -32 0 -38 26 -38 25 -10 25 -9 25 0 25 0 25 16 23 15 24 24 6 24 6 47 -16 47 -16 8 14 9 13 -2 130 -3 130 -15 -2 -15 -1 -100 -22 -100 -22 -20 -19 -19 -19 12 -12 12 -12 0 -27 0 -27 -26 -17 -27 -17 -57 -5 -57 -6 -38 13 -37 12 7 37 7 36 5 26 5 25 -26 31 -26 31 -51 11 -50 11 -54 0 -55 0 0 -107z" transform="translate(0.000000,77.000000) scale(0.100000,-0.100000)"/></clipPath><clipPath id="piece-mask-100-9" shape-rendering="crispEdges"><path d="M219 953 l0 -8 1 -81 1 -81 -12 -47 -12 -47 -19 -10 -20 -11 -44 17 -45 17 -23 -15 -23 -15 -13 -31 -12 -31 6 -25 6 -25 32 -16 31 -16 61 5 61 6 25 6 25 5 15 -9 15 -10 -2 -63 -2 -63 -25 -79 -25 -80 5 -8 5 -8 110 0 109 0 19 -19 20 -20 -11 -33 -10 -33 -5 -30 -5 -31 19 -23 19 -23 44 -8 45 -8 26 14 27 14 20 27 20 28 6 30 6 30 -15 29 -16 30 16 15 16 16 124 -2 124 -3 4 8 4 7 -12 128 -12 128 -16 16 -17 17 -33 -12 -33 -12 -17 0 -16 0 -15 22 -16 22 0 39 0 38 26 26 25 25 27 -7 27 -6 31 -6 30 -5 11 14 11 13 2 45 3 45 -2 93 -1 92 -365 0 -365 0 -1 -7z" transform="translate(0.000000,96.000000) scale(0.100000,-0.100000)"/></clipPath><clipPath id="piece-mask-100-10" shape-rendering="crispEdges"><path d="M79 733 l-66 -4 -6 -58 -6 -58 9 -58 9 -58 15 -23 15 -22 20 -7 20 -6 30 15 30 16 15 -6 15 -6 15 -23 16 -24 0 -36 0 -36 -12 -22 -11 -22 -16 -12 -16 -12 -22 -1 -22 0 -6 10 -6 10 -19 0 -19 0 -10 -18 -10 -18 -11 -110 -12 -109 0 -5 0 -5 1 -14 1 -13 116 4 115 3 19 25 20 25 0 17 0 17 -15 45 -15 44 6 15 6 16 30 10 31 11 36 0 36 0 34 -21 33 -20 -17 -19 -18 -19 16 -24 16 -24 80 -22 81 -22 36 -15 36 -15 5 5 5 5 -15 48 -16 48 -12 59 -13 58 -17 22 -18 21 -12 -12 -13 -13 -18 0 -17 0 -10 19 -10 18 -7 42 -7 41 13 30 12 30 19 0 18 0 6 -10 6 -10 29 0 30 0 30 28 31 27 9 65 10 65 -6 53 -6 52 -2 0 -2 0 -40 -19 -39 -18 -92 -23 -92 -22 -13 -15 -12 -15 13 -20 12 -20 -5 -5 -5 -5 -45 -5 -46 -6 -24 17 -25 16 -11 39 -10 40 14 40 14 41 -87 -2 -86 -2 -66 -3z" transform="translate(0.000000,74.000000) scale(0.100000,-0.100000)"/></clipPath><clipPath id="piece-mask-100-11" shape-rendering="crispEdges"><path d="M224 588 l1 -153 -30 3 -30 4 -53 1 -53 0 -27 -20 -27 -20 -3 -25 -3 -24 21 -19 20 -18 41 13 41 14 18 -25 19 -24 11 -70 11 -70 21 -71 20 -72 119 -7 118 -7 10 7 10 6 -9 25 -10 25 0 39 0 39 23 27 24 27 55 5 55 4 22 -28 23 -29 -6 -25 -5 -25 -6 -27 -7 -27 18 -18 18 -18 140 3 140 3 5 5 5 5 -11 7 -12 7 -12 107 -12 106 13 31 12 31 18 0 17 0 30 -11 31 -10 35 15 35 14 17 26 17 26 -6 35 -7 34 -27 21 -27 22 -70 -4 -70 -3 3 127 2 127 -32 -19 -33 -19 -79 -20 -79 -20 -16 -16 -16 -15 14 -21 13 -21 -10 -10 -9 -9 -76 -2 -75 -2 -22 20 -22 20 7 30 6 30 5 27 6 26 -30 16 -31 16 -119 0 -120 0 2 -152z" transform="translate(0.000000,74.000000) scale(0.100000,-0.100000)"/></clipPath><clipPath id="piece-mask-100-12" shape-rendering="crispEdges"><path d="M68 733 l-68 -4 0 -91 0 -91 12 -39 12 -40 20 -13 21 -14 58 16 58 17 20 -21 20 -20 1 -50 0 -51 -11 -21 -12 -21 -26 -6 -26 -7 -18 12 -19 11 -15 0 -14 0 -11 -20 -11 -20 -19 -102 -20 -103 -6 -27 -6 -28 135 0 136 0 6 10 6 10 -16 45 -17 44 6 35 7 35 30 25 31 26 27 0 28 0 25 -20 25 -19 13 -32 13 -31 -11 -19 -12 -19 0 -17 0 -18 21 -13 21 -13 111 -9 112 -10 21 0 21 0 0 13 0 12 12 109 12 110 10 18 10 18 19 0 19 0 6 -10 6 -10 22 0 22 1 16 12 16 12 11 22 12 22 0 36 0 36 -16 24 -15 23 -15 6 -15 6 -31 -16 -31 -16 -24 11 -24 11 -16 38 -16 37 0 98 1 98 -17 -6 -16 -7 -92 -13 -91 -13 -21 -11 -21 -12 0 -14 0 -14 10 -6 10 -6 0 -24 0 -24 -22 -15 -22 -16 -92 0 -91 0 -16 18 -17 19 0 22 0 22 14 33 14 33 -7 12 -7 11 -35 10 -34 10 -25 -2 -25 -2 -67 -3z" transform="translate(0.000000,74.000000) scale(0.100000,-0.100000)"/></clipPath><clipPath id="piece-mask-100-13" shape-rendering="crispEdges"><path d="M303 1092 l-12 -8 16 -44 15 -45 -10 -27 -11 -27 -33 -17 -33 -18 -117 -4 -118 -4 0 -87 0 -86 19 -42 19 -41 20 -11 21 -11 38 0 39 0 12 12 12 12 6 -7 7 -7 5 -49 4 -49 -11 -35 -12 -35 -20 -18 -19 -18 -12 12 -12 12 -17 0 -17 0 -11 -13 -11 -14 -19 -95 -19 -96 -11 -20 -11 -20 16 -6 16 -6 117 0 117 0 23 -16 23 -16 -5 -32 -6 -31 -6 -28 -7 -27 12 -15 12 -15 55 0 54 0 28 15 29 14 6 17 6 17 -17 19 -18 20 24 19 23 19 12 0 11 0 96 15 96 14 14 3 14 3 5 127 5 127 18 18 17 18 20 -13 20 -12 29 0 30 0 22 31 22 31 -1 65 -1 65 -7 20 -6 19 -16 -7 -17 -7 -31 -4 -32 -5 -31 29 -32 28 -9 59 -10 60 7 40 6 39 -24 -7 -24 -7 -74 -19 -74 -20 -47 0 -48 0 -13 16 -13 15 12 33 12 32 0 33 0 32 -11 22 -11 22 -21 23 -20 22 -41 0 -41 0 -12 -8z" transform="translate(0.000000,110.000000) scale(0.100000,-0.100000)"/></clipPath><clipPath id="piece-mask-100-14" shape-rendering="crispEdges"><path d="M520 950 l-19 -19 -7 -27 -7 -26 7 -59 6 -60 6 -26 7 -26 -94 7 -94 7 -66 6 -66 6 -5 -98 -5 -97 -20 -26 -20 -27 -26 -13 -27 -13 -35 10 -36 10 -10 -25 -9 -25 0 -40 0 -40 14 -34 15 -34 25 -7 26 -6 51 12 52 13 15 -19 14 -19 -6 -70 -6 -70 -6 -58 -7 -59 125 4 126 3 21 19 21 19 0 47 0 46 -12 12 -11 11 29 12 29 11 68 -5 68 -4 19 -18 19 -17 -15 -23 -15 -24 10 -20 11 -19 27 -6 28 -6 71 -10 72 -10 27 -10 27 -10 -6 32 -6 33 -9 92 -10 92 -16 25 -17 26 -12 0 -12 0 -22 -16 -22 -15 -35 17 -35 16 -12 39 -11 39 12 40 12 41 34 16 33 16 39 -10 38 -11 15 -6 15 -6 15 10 15 9 0 115 0 114 -7 8 -8 7 -88 -21 -88 -22 -49 0 -50 1 -19 14 -20 15 12 33 12 33 0 53 0 52 -20 38 -19 39 -16 6 -17 6 -9 0 -9 0 -20 -20z" transform="translate(0.000000,97.000000) scale(0.100000,-0.100000)"/></clipPath><clipPath id="piece-mask-100-15" shape-rendering="crispEdges"><path d="M45 675 l-7 -55 4 -69 4 -70 7 -7 6 -7 45 13 44 12 30 -7 30 -6 26 -23 26 -22 9 -31 9 -32 -5 -20 -5 -21 -34 -21 -34 -20 -55 -6 -56 -6 -24 13 -24 13 -14 -6 -14 -5 -6 -29 -5 -28 15 -85 16 -85 0 -33 1 -34 127 4 128 3 28 21 28 21 3 31 3 31 -12 22 -12 22 19 14 18 13 47 0 48 0 26 -10 27 -10 -7 -23 -7 -22 -5 -26 -5 -25 15 -12 14 -12 114 -15 114 -15 17 -6 18 -5 0 130 0 130 15 14 15 15 47 -15 48 -15 28 11 27 11 11 27 11 28 -5 48 -4 47 -18 20 -18 20 -32 0 -31 0 -11 -11 -12 -12 -24 7 -25 6 -8 17 -8 18 -5 115 -6 115 -362 3 -362 2 -6 -55z" transform="translate(0.000000,73.000000) scale(0.100000,-0.100000)"/></clipPath><clipPath id="piece-mask-100-16" shape-rendering="crispEdges"><path d="M290 897 l-25 -13 2 -29 1 -30 7 -42 7 -41 -23 -13 -24 -13 -111 1 -111 2 -6 -78 -6 -78 6 -37 6 -36 14 -12 14 -12 67 18 67 17 27 -10 27 -10 9 -18 9 -18 7 -45 6 -45 -8 -11 -7 -11 -35 -22 -35 -21 -37 0 -37 0 -6 10 -6 10 -9 0 -10 0 -14 -22 -14 -23 -12 -110 -11 -110 -5 -17 -5 -18 364 -2 365 -3 6 44 6 44 0 52 0 52 -11 31 -10 30 -15 6 -15 6 -35 -15 -35 -14 -24 11 -24 11 -16 32 -15 33 0 29 0 29 15 21 16 22 33 10 34 9 47 -9 46 -9 11 -6 11 -7 -7 119 -7 119 -6 32 -5 32 -41 16 -40 16 -95 20 -95 19 -14 11 -13 11 0 22 0 22 10 10 11 11 -16 13 -17 14 -56 3 -57 4 -25 -14z" transform="translate(0.000000,91.000000) scale(0.100000,-0.100000)"/></clipPath><clipPath id="piece-mask-100-17" shape-rendering="crispEdges"><path d="M310 921 l-25 -7 3 -25 3 -24 5 -35 6 -35 -27 -25 -27 -25 -121 -5 -122 -5 -3 -75 -3 -75 6 -43 6 -43 20 -20 19 -19 41 16 40 17 39 -12 39 -11 20 -27 21 -26 0 -39 0 -40 -29 -29 -29 -29 -22 0 -21 0 -34 15 -35 14 -15 -22 -14 -22 -15 -100 -15 -101 -10 -27 -11 -28 0 -2 0 -2 120 5 120 6 27 21 28 20 3 57 3 58 -12 15 -13 15 15 9 14 9 38 0 38 0 22 -12 22 -11 12 -16 12 -16 1 -22 0 -23 -12 -46 -13 -46 20 -15 20 -15 129 6 130 6 7 7 8 8 -19 65 -19 65 -11 70 -11 70 -19 24 -18 25 -41 -14 -41 -13 -20 18 -21 19 3 24 3 25 27 20 27 20 53 0 53 -1 30 -4 30 -3 0 125 0 125 -8 36 -7 37 -23 5 -22 5 -85 22 -85 22 -22 14 -23 14 0 25 0 24 11 7 12 7 -15 8 -15 8 -64 5 -64 5 -25 -8z" transform="translate(0.000000,93.000000) scale(0.100000,-0.100000)"/></clipPath><clipPath id="piece-mask-100-18" shape-rendering="crispEdges"><path d="M521 897 l-24 -12 -11 -17 -11 -18 13 -20 12 -20 0 -28 0 -29 -21 -19 -21 -19 -129 -3 -129 -4 0 -91 0 -92 -20 -42 -19 -42 -24 -6 -25 -7 -26 17 -25 17 -27 -25 -26 -25 -5 -44 -5 -45 30 -34 30 -34 69 0 68 0 22 8 23 8 11 -28 11 -28 -20 -85 -20 -85 -7 -22 -7 -23 370 0 371 0 5 18 5 17 11 110 12 110 14 23 14 22 10 0 9 0 6 -10 6 -10 37 0 37 0 35 21 35 22 7 11 8 11 -6 45 -7 45 -9 18 -9 18 -27 10 -27 10 -67 -17 -68 -18 -18 17 -17 18 2 110 3 110 -129 -7 -128 -7 -36 12 -37 13 0 28 0 29 10 6 10 6 0 27 0 28 -17 24 -17 25 -10 7 -11 8 -20 0 -20 0 -24 -13z" transform="translate(0.000000,91.000000) scale(0.100000,-0.100000)"/></clipPath><clipPath id="piece-mask-100-19" shape-rendering="crispEdges"><path d="M534 919 l-31 -9 -12 -14 -11 -13 15 -36 15 -36 0 -20 0 -21 -25 -16 -24 -16 -125 1 -124 1 -3 -118 -4 -118 -18 -27 -18 -28 -24 -9 -24 -9 -48 14 -47 14 -13 -11 -13 -10 0 -43 0 -44 26 -20 25 -20 35 16 35 17 20 -20 20 -21 20 -129 20 -129 0 -19 0 -18 113 4 113 4 34 20 33 20 9 37 9 36 -15 30 -15 31 38 11 38 12 27 -7 27 -7 23 -24 24 -23 7 -28 7 -27 -12 -18 -11 -19 0 -20 0 -19 19 -11 20 -10 54 0 54 0 75 6 75 7 12 31 13 31 19 54 19 54 0 46 0 46 -10 15 -9 14 -46 -12 -45 -12 -41 0 -40 0 -39 20 -39 20 -11 19 -10 20 0 30 0 31 33 21 32 20 60 -5 60 -6 29 -6 29 -7 -8 139 -7 139 -10 12 -10 13 -109 -3 -108 -2 -21 21 -21 21 15 38 16 38 -6 19 -5 18 -27 14 -27 13 -35 5 -35 5 -31 -8z" transform="translate(0.000000,93.000000) scale(0.100000,-0.100000)"/></clipPath><clipPath id="piece-mask-100-20" shape-rendering="crispEdges"><path d="M351 1167 l-24 -12 -20 -27 -20 -27 1 -65 1 -66 10 -19 11 -19 -16 -6 -16 -6 -130 7 -130 6 4 -126 3 -126 21 -28 21 -28 29 -3 28 -4 38 13 37 12 16 -13 15 -12 0 -28 0 -29 -26 -20 -26 -20 -32 -6 -31 -6 -39 16 -38 16 -20 -18 -21 -18 7 -125 6 -125 6 -25 6 -26 56 7 57 7 62 1 62 1 26 -10 27 -10 -8 -18 -7 -17 -4 -31 -5 -32 18 -37 17 -37 34 -14 33 -14 47 10 48 11 18 20 19 21 -12 26 -12 27 21 16 20 16 63 12 63 12 48 16 48 15 -6 102 -7 101 -9 37 -9 37 -20 6 -19 6 -20 -10 -20 -11 -20 0 -21 0 -20 33 -20 32 0 38 0 37 20 20 20 20 26 0 27 0 40 -12 39 -12 14 19 14 19 0 133 0 133 -12 0 -13 0 -78 -15 -79 -15 -44 0 -45 0 -24 16 -23 15 15 45 15 44 -13 52 -12 53 -28 27 -27 28 -14 0 -13 0 -24 -13z" transform="translate(0.000000,118.000000) scale(0.100000,-0.100000)"/></clipPath><clipPath id="piece-mask-100-21" shape-rendering="crispEdges"><path d="M300 877 l-25 -13 1 -20 1 -19 14 -47 13 -48 -12 -12 -13 -13 -120 3 -119 2 -10 -25 -10 -26 0 -87 0 -88 16 -22 15 -22 23 0 24 0 34 15 35 14 18 -13 19 -13 4 -60 4 -60 -31 -36 -32 -36 -30 -6 -31 -7 -11 11 -11 11 -23 0 -22 0 -11 -19 -10 -20 0 -47 0 -47 11 -64 11 -63 373 0 372 0 16 49 16 49 11 58 12 59 -11 28 -11 28 -23 -8 -22 -8 -68 0 -69 0 -30 34 -30 34 5 45 5 44 26 25 27 25 25 -17 26 -17 25 7 24 6 19 42 20 42 0 93 0 93 -33 14 -33 14 -90 16 -89 17 -22 14 -23 14 0 23 0 23 12 12 11 11 -27 11 -27 10 -57 0 -57 0 -25 -13z" transform="translate(0.000000,89.000000) scale(0.100000,-0.100000)"/></clipPath><clipPath id="piece-mask-100-22" shape-rendering="crispEdges"><path d="M483 770 l-23 -9 0 -15 0 -15 11 -7 12 -7 -6 -57 -5 -57 -16 -30 -16 -31 -15 -16 -16 -16 -35 0 -35 0 -29 15 -30 15 -15 30 -15 29 0 19 0 20 15 36 15 36 -20 20 -20 20 -109 0 -109 0 -6 -52 -5 -53 -7 -69 -7 -68 21 11 21 11 31 0 31 0 30 -15 30 -16 19 -32 20 -32 0 -37 0 -37 -26 -20 -27 -21 -33 0 -33 0 -25 11 -25 12 -17 -14 -17 -14 6 -115 7 -116 11 -32 11 -32 109 0 110 0 29 15 30 16 0 25 0 25 -15 29 -15 29 10 25 9 25 27 17 27 18 32 0 32 0 25 -16 25 -17 18 -37 17 -37 -12 -53 -13 -53 13 -16 12 -15 61 0 60 0 64 11 63 11 0 363 0 362 -57 11 -58 11 -65 6 -65 5 -22 -10z" transform="translate(0.000000,78.000000) scale(0.100000,-0.100000)"/></clipPath><clipPath id="piece-mask-100-23" shape-rendering="crispEdges"><path d="M513 960 l-22 -9 -17 -26 -17 -26 16 -50 16 -49 -9 -24 -9 -24 -32 -11 -32 -11 -111 0 -111 0 3 -117 3 -117 -5 -22 -6 -22 -15 -6 -16 -6 -36 15 -35 15 -23 0 -23 0 -17 -26 -17 -27 4 -63 4 -63 18 -20 19 -21 28 0 28 0 27 12 26 12 14 -19 14 -19 0 -101 0 -101 13 -18 13 -18 132 4 132 3 22 22 22 23 -12 33 -12 33 0 27 0 26 19 11 20 10 45 0 45 0 25 -11 24 -11 -5 -32 -5 -32 14 -11 13 -11 90 -22 90 -23 28 -2 27 -3 0 2 0 3 -21 59 -20 59 -2 53 -2 53 14 8 13 9 27 -14 26 -14 30 6 30 6 41 24 41 23 13 31 13 31 -12 39 -12 40 -19 10 -20 11 -30 -16 -31 -16 -20 6 -21 7 -14 34 -14 33 0 108 0 108 -97 -7 -98 -6 -40 5 -41 5 -18 14 -19 14 11 38 12 39 0 37 0 38 -29 29 -29 29 -24 -1 -23 0 -22 -9z" transform="translate(0.000000,97.000000) scale(0.100000,-0.100000)"/></clipPath><clipPath id="piece-mask-100-24" shape-rendering="crispEdges"><path d="M7 916 l-6 -65 9 -55 9 -55 11 -20 11 -21 24 -6 25 -6 31 11 32 11 27 0 28 0 6 -16 6 -16 0 -57 0 -58 -21 -27 -20 -26 -29 0 -29 0 -27 12 -26 12 -18 -22 -18 -22 -7 -87 -7 -88 -1 -30 -2 -30 140 0 140 0 -3 -20 -3 -20 -6 -61 -5 -61 16 -35 17 -36 29 -12 29 -12 20 7 21 6 14 27 14 27 6 40 7 40 -15 55 -15 55 15 15 14 14 56 -1 56 -2 71 -11 72 -12 16 -9 17 -9 10 28 11 27 16 55 16 55 5 70 6 70 -15 20 -15 20 -44 -16 -44 -17 -50 9 -49 8 -33 11 -32 12 -10 19 -10 19 6 27 7 28 15 18 15 17 25 0 26 0 58 -12 58 -12 18 17 17 18 0 122 0 122 -366 3 -366 2 -6 -64z" transform="translate(0.000000,98.000000) scale(0.100000,-0.100000)"/></clipPath><clipPath id="piece-mask-100-25" shape-rendering="crispEdges"><path d="M143 927 l-123 -10 0 -131 0 -132 11 -11 12 -12 30 15 29 16 35 -7 35 -6 24 -24 24 -24 0 -39 0 -39 -20 -26 -20 -25 -44 -17 -45 -17 -33 16 -33 17 -12 -18 -13 -17 1 -60 1 -61 11 -55 12 -55 140 -5 140 -5 -3 -15 -4 -15 -11 -57 -10 -57 17 -25 16 -26 70 0 69 0 21 23 21 22 -5 30 -5 30 -6 27 -7 26 22 12 22 12 120 5 119 6 -7 16 -6 16 -15 88 -16 88 10 32 9 32 44 -2 45 -2 47 -3 47 -3 23 22 22 23 4 67 3 68 -9 14 -10 13 -36 -12 -37 -12 -33 6 -33 6 -15 18 -15 17 -13 24 -12 23 0 95 -1 95 -132 -4 -132 -3 -16 -13 -16 -13 17 -44 16 -43 -12 -41 -13 -40 -30 -22 -30 -21 -34 6 -35 7 -27 35 -26 35 -5 53 -4 52 10 37 10 37 -11 -2 -12 -1 -122 -10z" transform="translate(0.000000,94.000000) scale(0.100000,-0.100000)"/></clipPath><clipPath id="piece-mask-100-26" shape-rendering="crispEdges"><path d="M178 732 l13 -9 -3 -134 -3 -134 -24 -3 -23 -4 -11 11 -11 11 -29 0 -29 0 -29 -29 -29 -29 0 -54 0 -53 10 -15 10 -15 0 13 0 13 32 -3 33 -3 16 -50 17 -50 17 -60 17 -60 20 -32 20 -33 114 0 115 0 28 15 29 14 6 24 6 24 -16 48 -16 47 16 16 17 17 57 -1 57 -1 24 -12 23 -13 -11 -11 -11 -11 0 -26 0 -27 25 -11 25 -12 83 -20 82 -21 33 -20 33 -19 4 0 5 0 -6 123 -6 122 15 20 16 20 20 -12 21 -13 42 0 43 0 32 20 32 19 17 26 17 25 -6 35 -6 35 -16 16 -16 16 -27 -5 -27 -6 -27 -7 -28 -6 -25 6 -26 7 -19 42 -20 42 0 103 0 102 -377 0 -378 0 13 -8z" transform="translate(0.000000,74.000000) scale(0.100000,-0.100000)"/></clipPath><clipPath id="piece-mask-100-27" shape-rendering="crispEdges"><path d="M512 1131 l-13 -8 16 -50 16 -49 -10 -26 -10 -27 -27 -18 -27 -17 -121 -4 -121 -4 0 -112 0 -111 -16 -30 -15 -30 -24 2 -25 2 -45 6 -45 7 -22 -22 -23 -21 0 -54 0 -53 26 -31 26 -31 23 0 24 0 26 12 26 12 15 -15 14 -15 11 -90 10 -89 2 -27 2 -28 25 0 25 0 119 10 120 9 7 -5 7 -4 -10 -34 -11 -34 7 -46 7 -46 25 -30 26 -30 33 0 33 0 28 15 28 14 13 23 12 23 1 38 0 38 -11 21 -12 21 19 15 19 14 123 -5 122 -6 0 3 0 2 -19 40 -19 39 -21 88 -21 88 -10 20 -11 19 -24 0 -24 0 -27 -12 -26 -12 -14 19 -14 19 0 52 0 53 24 28 25 28 20 -12 21 -13 35 0 36 0 24 16 24 15 10 31 11 31 0 92 0 92 -57 25 -58 25 -70 18 -70 19 -22 14 -23 14 0 24 0 23 12 7 11 7 -18 14 -19 13 -60 0 -61 0 -13 -9z" transform="translate(0.000000,114.000000) scale(0.100000,-0.100000)"/></clipPath><clipPath id="piece-mask-100-28" shape-rendering="crispEdges"><path d="M313 910 l-22 -9 -17 -26 -17 -25 5 -48 5 -47 4 -15 4 -15 -127 3 -128 4 0 -120 0 -120 15 -12 15 -12 41 16 41 17 20 -7 20 -6 14 -34 14 -33 0 -28 0 -29 -16 -22 -15 -22 -29 -15 -29 -15 -21 0 -20 0 -21 13 -20 12 -16 -20 -15 -20 8 -100 8 -100 0 -35 0 -35 116 1 115 0 28 18 27 18 0 13 0 13 -15 36 -15 36 10 20 10 19 22 15 22 16 41 0 41 0 22 -16 22 -15 0 -31 0 -32 -12 -33 -12 -34 10 -17 11 -17 39 -7 39 -7 112 6 112 6 -10 19 -10 19 -19 101 -20 100 -11 14 -11 14 -25 0 -24 0 -21 -11 -22 -12 -18 23 -18 22 0 78 0 79 15 15 15 15 41 -15 42 -14 32 0 33 0 16 25 16 24 0 111 0 111 -143 -3 -143 -3 -18 18 -18 18 7 27 6 27 5 25 6 25 -22 28 -21 27 -42 -1 -42 0 -22 -9z" transform="translate(0.000000,92.000000) scale(0.100000,-0.100000)"/></clipPath><clipPath id="piece-mask-100-29" shape-rendering="crispEdges"><path d="M320 921 l-25 -7 3 -20 3 -19 6 -37 6 -38 -17 -26 -18 -26 -35 -14 -36 -15 -93 3 -94 3 -5 -15 -4 -15 -7 -139 -7 -139 24 7 24 6 56 6 57 7 36 -7 36 -7 16 -24 16 -25 -6 -25 -7 -26 -32 -19 -32 -20 -37 0 -37 0 -6 10 -6 10 -19 0 -20 0 -15 -23 -15 -24 -8 -126 -7 -127 372 -2 372 -3 3 127 3 127 16 17 17 16 25 -17 26 -17 36 12 35 12 26 34 27 34 -9 33 -9 32 -39 19 -38 19 -34 -17 -35 -16 -14 0 -14 0 -13 23 -12 22 2 118 2 119 -5 7 -4 8 -83 -14 -83 -14 -43 4 -44 5 -11 11 -11 11 13 65 13 65 -6 26 -7 25 -34 15 -34 14 -38 -1 -38 -1 -25 -7z" transform="translate(0.000000,93.000000) scale(0.100000,-0.100000)"/></clipPath><clipPath id="piece-mask-100-30" shape-rendering="crispEdges"><path d="M338 1014 l-28 -15 -14 -27 -14 -27 -6 -32 -7 -32 9 -33 10 -33 8 -19 7 -19 -145 7 -146 7 -7 -80 -7 -80 7 -43 7 -43 15 -17 15 -16 43 16 43 16 26 -18 27 -17 9 -25 10 -25 0 -24 0 -24 -23 -26 -22 -27 -44 18 -44 17 -18 -21 -17 -22 -6 -87 -6 -88 -5 -55 -5 -55 114 5 114 5 21 19 21 19 0 53 0 53 -11 7 -12 7 16 8 15 9 59 6 58 5 35 -18 35 -18 19 -39 19 -38 -13 -53 -13 -53 6 -16 6 -15 25 -7 24 -6 55 12 54 11 54 27 54 27 2 132 2 132 11 21 12 22 26 -7 27 -6 32 -6 32 -5 26 27 25 28 0 32 0 32 -11 33 -12 32 -46 -5 -46 -6 -27 -7 -26 -6 -19 28 -18 28 0 109 0 109 -130 -7 -130 -7 -27 11 -28 11 0 24 0 25 11 25 12 24 -7 36 -7 35 -25 31 -26 30 -16 0 -17 -1 -27 -15z" transform="translate(0.000000,103.000000) scale(0.100000,-0.100000)"/></clipPath><clipPath id="piece-mask-100-31" shape-rendering="crispEdges"><path d="M373 1173 l-22 -4 -11 -14 -12 -14 16 -49 17 -49 -10 -25 -9 -25 -19 -9 -18 -8 -125 -6 -125 -5 -3 -104 -3 -103 16 -24 15 -23 35 15 35 14 41 -9 41 -9 29 -28 29 -28 6 -32 6 -33 -22 -32 -23 -31 -31 -13 -31 -13 -45 -7 -45 -7 -42 15 -43 15 -11 -14 -12 -14 5 -63 5 -62 24 -60 24 -60 142 -5 142 -5 11 -11 10 -10 -16 -63 -16 -63 7 -34 6 -33 22 -16 21 -15 44 0 44 0 29 29 29 29 0 45 0 44 -11 32 -12 33 17 16 17 17 120 0 120 0 4 20 4 20 4 86 5 86 12 22 12 23 21 -7 22 -7 30 -5 30 -5 27 25 26 25 7 45 7 45 -7 31 -7 31 -25 20 -26 20 -48 0 -48 0 -26 -10 -27 -10 4 132 3 132 -32 22 -33 22 -72 17 -73 18 -37 14 -38 15 0 27 0 27 11 11 11 11 -18 10 -19 10 -45 5 -45 5 -22 -5z" transform="translate(0.000000,118.000000) scale(0.100000,-0.100000)"/></clipPath><clipPath id="piece-mask-100-32" shape-rendering="crispEdges"><path d="M451 967 l-13 -16 13 -36 13 -35 -11 -55 -12 -56 -21 -29 -21 -30 -49 0 -49 0 -15 16 -16 15 0 6 0 6 16 52 17 52 -7 27 -6 26 -33 17 -32 17 -113 4 -112 4 0 -366 0 -367 134 3 134 3 7 -6 6 -7 -16 -56 -17 -56 7 -30 7 -30 25 -20 26 -20 56 0 56 0 25 13 25 13 14 29 14 30 -15 57 -15 58 15 13 15 12 113 -2 113 -2 15 42 16 42 15 79 14 78 12 14 11 14 17 0 17 0 12 -12 12 -12 19 18 20 18 12 35 11 35 -4 49 -5 49 -7 7 -6 7 -12 -12 -12 -12 -39 0 -38 0 -21 11 -20 11 -19 41 -19 42 0 91 0 92 -62 11 -63 12 -70 6 -70 6 -14 -16z" transform="translate(0.000000,98.000000) scale(0.100000,-0.100000)"/></clipPath><clipPath id="piece-mask-100-33" shape-rendering="crispEdges"><path d="M545 1086 l-10 -4 -29 -7 -29 -6 12 -12 11 -11 0 -51 0 -52 -21 -19 -21 -19 -111 -5 -112 -5 4 -124 4 -124 -24 6 -24 6 -36 6 -36 7 -42 -12 -42 -11 -19 -32 -20 -32 0 -43 0 -43 26 -26 26 -25 41 5 42 6 26 7 27 6 10 -34 11 -33 6 -90 6 -90 5 -25 4 -25 93 7 92 6 63 1 63 1 -11 -19 -10 -20 0 -31 0 -31 17 -32 16 -32 16 -12 16 -12 28 -1 28 0 30 31 31 32 -6 36 -6 36 -6 27 -6 28 28 11 29 11 114 -17 113 -16 14 12 14 11 20 65 20 65 0 58 0 58 -15 12 -14 12 -50 -17 -51 -17 -53 16 -53 15 -24 26 -23 25 1 37 2 37 14 14 14 15 66 -18 65 -18 26 17 26 17 9 25 10 25 0 115 0 116 -7 -4 -8 -4 -47 -22 -47 -22 -56 -12 -56 -11 -24 11 -25 12 0 20 0 20 11 42 12 43 -16 37 -15 36 -27 18 -26 17 -47 3 -47 3 -10 -3z" transform="translate(0.000000,109.000000) scale(0.100000,-0.100000)"/></clipPath><clipPath id="piece-mask-100-34" shape-rendering="crispEdges"><path d="M347 940 l-26 -21 -10 -36 -10 -37 14 -30 15 -29 0 -10 0 -10 -157 4 -158 4 -3 -111 -3 -110 21 -19 20 -19 56 18 56 18 24 -6 25 -7 9 -25 10 -25 0 -59 0 -58 -19 -23 -19 -24 -34 13 -34 12 -17 0 -16 0 -12 -22 -12 -23 -24 -110 -23 -110 -2 -15 -3 -15 115 1 115 0 33 18 33 17 11 27 10 27 -15 45 -16 44 12 8 12 8 41 0 41 0 20 -22 21 -23 11 -22 11 -22 0 -32 0 -33 -12 -32 -12 -33 15 -17 14 -17 70 6 70 6 65 20 66 21 12 97 12 98 0 31 0 30 -13 18 -14 19 -52 -13 -51 -12 -26 6 -25 7 -15 34 -14 34 0 40 0 40 9 25 10 25 36 -10 35 -10 27 13 26 13 20 27 20 26 5 95 5 94 -63 6 -63 7 -67 0 -67 0 -32 11 -31 11 0 22 0 23 11 32 12 33 -14 13 -14 14 -25 6 -26 6 -27 -21z" transform="translate(0.000000,96.000000) scale(0.100000,-0.100000)"/></clipPath><clipPath id="piece-mask-100-35" shape-rendering="crispEdges"><path d="M514 1000 l-12 -12 15 -46 14 -47 -5 -39 -4 -39 -32 -28 -31 -29 -33 0 -33 0 -27 21 -26 20 0 19 0 19 9 5 9 6 5 27 5 27 -11 23 -10 23 -39 10 -38 11 -102 -3 -103 -3 -3 -60 -3 -60 6 -41 6 -41 21 -22 21 -23 36 5 36 5 46 7 46 7 17 -23 16 -23 0 -59 0 -59 -28 -28 -29 -28 -46 -7 -46 -7 -71 13 -72 12 -9 -14 -10 -14 6 -53 5 -54 27 -80 26 -80 111 7 111 6 22 6 22 5 -11 -38 -10 -38 4 -52 5 -53 26 -35 27 -35 35 -7 34 -6 30 21 30 22 13 40 12 41 -16 43 -17 44 16 13 16 13 131 5 131 5 -3 45 -2 45 -6 70 -6 70 -14 22 -14 23 -34 -17 -35 -16 -31 13 -32 13 -19 31 -19 31 0 37 0 37 10 26 10 25 27 11 28 11 75 -10 75 -10 3 3 3 3 -7 130 -7 130 -61 18 -61 17 -70 4 -70 5 -11 -12z" transform="translate(0.000000,101.000000) scale(0.100000,-0.100000)"/></clipPath><clipPath id="piece-mask-100-36" shape-rendering="crispEdges"><path d="M27 714 l-7 -59 -6 -77 -7 -78 5 0 5 0 54 10 53 10 33 -11 33 -11 10 -18 10 -19 0 -48 -1 -48 -12 -15 -12 -16 -25 -17 -24 -17 -28 0 -28 0 -19 12 -18 11 -15 -6 -15 -5 -7 -36 -7 -35 12 -89 11 -90 7 -10 7 -11 109 -7 110 -6 29 11 28 11 -6 33 -6 32 -6 36 -6 36 27 21 28 22 36 0 37 0 28 -29 28 -29 5 -45 5 -44 -11 -7 -11 -7 0 -23 0 -24 15 -12 15 -13 78 6 78 5 60 17 60 17 22 83 22 83 0 50 0 50 -6 16 -6 16 -28 0 -29 0 -7 -11 -7 -11 -49 4 -49 5 -26 20 -26 19 -10 15 -10 16 7 26 6 27 31 16 32 16 28 -6 29 -6 29 -6 29 -6 12 23 13 23 -6 124 -5 123 -4 4 -4 5 -113 -15 -112 -15 -20 -10 -19 -11 0 -9 0 -9 10 -6 10 -6 0 -33 0 -33 -20 -25 -19 -25 -31 -13 -30 -12 -55 4 -55 5 -21 19 -21 19 6 45 5 45 7 27 6 26 -28 18 -27 18 -97 4 -97 4 -6 -58z" transform="translate(0.000000,78.000000) scale(0.100000,-0.100000)"/></clipPath><clipPath id="piece-mask-100-37" shape-rendering="crispEdges"><path d="M230 635 l0 -106 -14 -34 -15 -34 -27 -7 -28 -7 -25 10 -26 11 -17 7 -18 7 -30 -30 -30 -30 0 -47 0 -46 26 -26 26 -25 46 7 47 7 36 5 37 5 8 -14 9 -13 0 -130 0 -130 80 -5 80 -5 53 6 52 5 17 17 17 17 -11 37 -10 38 -7 17 -8 17 27 17 27 17 48 -1 49 -1 30 -15 30 -16 5 -18 6 -19 -16 -38 -15 -38 20 -21 21 -21 118 2 117 2 8 0 8 1 -5 8 -5 8 25 80 25 79 2 63 2 63 -15 10 -15 9 -25 -5 -25 -6 -61 -6 -61 -5 -31 16 -32 16 -6 25 -6 25 12 31 13 31 23 15 23 15 45 -17 44 -17 20 11 19 10 12 47 12 47 -2 88 -2 89 -368 0 -369 0 0 -105z" transform="translate(0.000000,74.000000) scale(0.100000,-0.100000)"/></clipPath><clipPath id="piece-mask-100-38" shape-rendering="crispEdges"><path d="M486 922 l-5 -8 10 -14 9 -15 0 -37 0 -36 -6 -16 -6 -16 -36 -22 -35 -22 -110 -4 -110 -5 5 -96 6 -96 -5 -33 -5 -33 -19 -10 -19 -10 -31 16 -30 16 -32 -11 -32 -11 -19 -25 -18 -26 4 -59 4 -60 22 -21 22 -22 12 12 12 12 22 0 22 0 11 -14 12 -14 14 -75 14 -75 13 -40 12 -39 86 -6 85 -6 41 8 41 8 12 8 13 8 -7 41 -7 41 -1 30 -2 29 25 13 25 14 57 -4 56 -3 17 -14 16 -13 -11 -11 -10 -10 0 -22 0 -22 13 -11 14 -11 96 -20 96 -19 36 -15 36 -15 10 27 11 27 16 85 15 85 15 23 14 22 19 0 18 0 6 -10 6 -10 19 0 19 0 19 25 20 26 7 38 6 38 -16 41 -17 41 -25 16 -25 17 -27 -5 -26 -6 -26 -6 -26 -7 -16 17 -17 16 0 114 0 113 -47 11 -48 10 -75 11 -74 11 -20 21 -19 20 16 28 17 27 -18 16 -17 16 -28 10 -28 11 -44 0 -44 0 -5 -8z" transform="translate(0.000000,93.000000) scale(0.100000,-0.100000)"/></clipPath><clipPath id="piece-mask-100-39" shape-rendering="crispEdges"><path d="M317 1098 l-27 -10 -7 -26 -6 -25 13 -64 12 -64 -7 -7 -7 -7 -138 1 -138 1 -7 -93 -7 -93 9 -38 9 -38 33 -3 34 -3 10 10 11 11 38 0 38 0 19 -19 20 -20 9 -35 10 -35 -8 -36 -8 -36 -12 -14 -12 -15 -19 0 -19 0 -20 12 -20 13 -17 -11 -17 -11 -28 -109 -27 -109 -7 -23 -6 -22 106 0 107 0 34 -14 35 -15 0 -4 0 -4 -15 -43 -15 -42 12 -21 11 -22 11 -7 11 -8 54 0 54 0 34 26 33 25 0 20 0 19 -12 20 -12 20 11 11 11 11 38 9 39 9 93 0 93 0 -5 18 -6 17 -10 54 -10 54 0 51 0 52 13 17 12 18 33 -17 33 -16 45 17 44 17 20 25 20 26 0 39 0 39 -24 24 -24 24 -35 6 -35 7 -29 -16 -30 -15 -12 12 -11 11 0 129 0 130 -37 -7 -38 -7 -59 -10 -59 -10 -29 6 -28 7 -10 19 -11 19 16 30 15 30 -6 27 -7 28 -20 29 -20 28 -33 14 -33 14 -18 -1 -18 -1 -28 -10z" transform="translate(0.000000,111.000000) scale(0.100000,-0.100000)"/></clipPath><clipPath id="piece-mask-100-40" shape-rendering="crispEdges"><path d="M503 919 l-22 -12 -6 -15 -6 -15 11 -7 11 -7 1 -46 1 -47 -14 -16 -14 -17 -32 -14 -32 -13 -105 0 -104 0 -4 -104 -3 -105 -21 -28 -22 -28 -23 2 -24 2 -31 6 -30 7 -14 -16 -13 -17 -1 -73 -1 -73 14 -26 14 -27 24 0 24 0 21 11 20 11 15 -15 15 -14 14 -99 14 -99 0 -12 0 -13 374 0 373 0 7 77 6 76 0 36 0 37 -15 21 -15 22 -42 -15 -42 -15 -28 6 -28 7 -20 25 -20 26 0 54 0 54 25 24 24 25 43 0 43 0 32 -9 32 -9 5 13 4 13 -5 116 -6 116 -8 0 -8 0 -58 -15 -57 -15 -52 0 -52 0 -16 6 -16 6 0 20 0 21 12 38 11 39 -11 38 -12 38 -24 23 -25 23 -43 4 -43 4 -22 -11z" transform="translate(0.000000,93.000000) scale(0.100000,-0.100000)"/></clipPath><clipPath id="piece-mask-100-41" shape-rendering="crispEdges"><path d="M0 602 l0 -108 14 -19 14 -20 46 13 46 12 20 0 19 0 9 -17 9 -18 6 -45 6 -45 -8 -43 -9 -43 -22 -21 -23 -21 -43 16 -44 16 -14 -22 -14 -22 -6 -108 -7 -107 362 0 361 0 -6 27 -6 28 -6 81 -7 80 12 22 12 22 22 0 23 0 11 -11 11 -11 31 7 30 6 32 36 31 36 -4 60 -4 60 -19 13 -18 13 -35 -14 -34 -15 -24 0 -24 0 -16 25 -17 25 5 108 4 108 -60 -12 -61 -12 -57 -7 -57 -6 -23 -19 -23 -18 18 -20 17 -19 -6 -17 -6 -17 -29 -14 -28 -15 -54 0 -55 0 -12 15 -12 15 7 27 6 28 6 31 5 32 -23 16 -23 16 -128 0 -128 0 0 -108z" transform="translate(0.000000,71.000000) scale(0.100000,-0.100000)"/></clipPath><clipPath id="piece-mask-100-42" shape-rendering="crispEdges"><path d="M10 858 l0 -103 20 -42 19 -42 26 -7 25 -6 28 6 27 7 27 6 27 5 16 -16 16 -16 6 -35 6 -35 -17 -25 -17 -26 -32 -19 -32 -20 -43 0 -42 0 -21 13 -20 12 -15 -19 -14 -20 0 -61 0 -62 6 -61 7 -60 123 -4 124 -3 26 -26 26 -26 -17 -39 -16 -38 6 -28 7 -28 25 -20 26 -20 39 0 39 0 26 17 26 17 13 33 14 32 0 48 0 48 -11 38 -10 38 13 16 12 15 48 -5 47 -6 62 -25 62 -25 10 6 9 5 -6 22 -5 21 -15 85 -14 85 5 28 6 29 14 5 14 6 24 -13 24 -13 56 6 55 6 34 20 34 21 5 21 5 20 -9 32 -9 31 -26 22 -26 23 -30 6 -30 7 -44 -12 -45 -13 -7 8 -7 7 0 124 0 124 -367 0 -368 0 0 -102z" transform="translate(0.000000,96.000000) scale(0.100000,-0.100000)"/></clipPath><clipPath id="piece-mask-100-43" shape-rendering="crispEdges"><path d="M514 741 l-22 -10 -7 -11 -7 -12 11 -11 11 -11 0 -33 0 -34 -15 -30 -16 -30 -32 -19 -32 -20 -43 0 -43 0 -29 15 -28 15 -4 17 -4 18 15 42 15 41 -15 18 -14 17 -32 14 -32 13 -96 0 -95 0 0 -97 0 -98 10 -37 11 -37 22 -16 21 -15 28 0 27 0 6 10 6 10 29 0 29 0 11 -19 10 -20 0 -50 0 -50 -21 -12 -21 -11 -11 11 -11 11 -18 0 -17 0 -10 -18 -10 -18 -21 -90 -22 -89 -24 -44 -24 -44 0 -4 0 -5 119 4 118 4 27 18 27 17 10 27 10 26 -16 49 -16 50 13 8 13 9 61 0 60 0 19 -13 18 -14 -11 -7 -12 -7 0 -23 0 -24 23 -14 22 -14 70 -19 70 -18 43 -19 44 -18 9 0 9 0 0 104 0 104 19 23 19 24 34 -13 34 -12 18 0 17 0 24 24 23 23 7 46 7 46 -12 35 -12 36 -21 15 -21 15 -31 0 -30 -1 -38 -13 -37 -14 -10 18 -10 18 5 29 4 28 5 86 6 87 -33 5 -32 6 -65 5 -65 6 -21 -9z" transform="translate(0.000000,75.000000) scale(0.100000,-0.100000)"/></clipPath><clipPath id="piece-mask-100-44" shape-rendering="crispEdges"><path d="M529 919 l-27 -10 15 -30 15 -30 -9 -36 -9 -37 -33 -20 -34 -20 -115 -4 -115 -5 7 -129 7 -128 -43 7 -43 8 -52 0 -52 0 -17 -17 -17 -17 -5 -49 -4 -49 16 -32 17 -32 34 -16 35 -17 35 17 35 17 14 -23 14 -22 6 -65 6 -65 2 -52 1 -51 96 -6 96 -6 34 8 34 7 11 18 11 17 -13 20 -12 20 0 29 0 29 30 31 31 30 36 7 37 7 25 -15 26 -14 -2 -20 -2 -19 -7 -42 -7 -43 26 -9 26 -10 131 -17 131 -16 4 3 4 4 -19 55 -19 55 -6 50 -6 50 14 19 14 19 33 -11 33 -12 44 0 44 0 29 15 28 15 21 26 21 27 0 33 0 33 -11 24 -11 24 -28 16 -28 17 -28 0 -28 0 -34 -12 -34 -13 -14 20 -14 19 0 118 0 118 -123 -6 -123 -7 -22 12 -22 12 0 24 0 24 10 6 10 6 0 20 0 20 -15 29 -15 30 -30 15 -29 15 -23 -1 -23 -1 -26 -9z" transform="translate(0.000000,93.000000) scale(0.100000,-0.100000)"/></clipPath><clipPath id="piece-mask-100-45" shape-rendering="crispEdges"><path d="M313 1140 l-32 -19 -16 -25 -17 -25 -1 -38 0 -38 8 -22 7 -22 -131 6 -131 6 0 -364 0 -364 92 3 93 4 38 -12 37 -11 16 -24 16 -25 -16 -47 -16 -47 0 -13 0 -14 26 -24 27 -25 54 0 54 0 28 14 27 14 19 36 19 35 -17 35 -17 36 23 15 23 15 79 10 80 11 28 11 28 11 -3 6 -3 6 -27 55 -27 55 -23 75 -23 75 -28 3 -28 3 -13 -11 -14 -11 -6 17 -6 16 0 73 0 74 10 26 10 27 18 -8 17 -8 51 -4 51 -4 22 28 21 27 0 102 0 102 -52 16 -53 17 -74 18 -74 17 -11 17 -10 17 13 24 13 25 -6 11 -7 10 -37 11 -37 10 -30 0 -30 0 -32 -20z" transform="translate(0.000000,116.000000) scale(0.100000,-0.100000)"/></clipPath><clipPath id="piece-mask-100-46" shape-rendering="crispEdges"><path d="M559 1076 l-24 -11 -9 -28 -10 -27 12 -46 12 -45 -6 -11 -7 -11 -146 6 -147 6 -15 6 -14 5 8 -97 9 -98 -12 -43 -11 -44 -22 7 -22 7 -41 5 -42 5 -26 -17 -26 -17 -11 -39 -12 -38 13 -31 13 -31 25 -19 25 -20 41 -11 41 -11 49 12 48 12 10 -13 9 -14 -6 -53 -5 -52 -24 -64 -24 -63 108 -5 108 -6 39 -18 38 -19 14 -30 14 -29 -17 -30 -17 -30 17 -13 18 -13 57 0 57 0 16 6 17 6 10 19 10 19 -16 30 -15 29 23 15 22 15 101 15 101 16 14 5 14 5 -4 118 -3 117 -10 18 -10 19 -21 -7 -22 -7 -35 -5 -35 -5 -20 22 -19 21 -4 63 -4 63 17 27 17 26 23 0 23 0 35 -15 36 -15 5 0 5 0 15 16 16 15 0 126 0 125 -17 -7 -18 -8 -46 -18 -47 -18 -48 -6 -49 -6 -20 14 -19 15 12 50 13 50 -14 33 -14 34 -20 18 -20 18 -31 8 -30 9 -23 -12z" transform="translate(0.000000,109.000000) scale(0.100000,-0.100000)"/></clipPath><clipPath id="piece-mask-100-47" shape-rendering="crispEdges"><path d="M463 924 l-25 -25 6 -37 7 -37 6 -37 6 -38 -29 -11 -29 -11 -110 4 -110 3 3 -81 3 -81 -10 -41 -11 -41 -21 -6 -20 -7 -50 18 -49 18 -13 -13 -12 -12 0 -87 0 -88 18 -28 19 -28 31 5 32 6 26 6 25 7 12 -27 12 -26 0 -109 0 -110 113 0 112 0 35 18 35 17 -2 40 -1 40 -7 32 -7 32 25 25 26 26 39 0 39 0 22 -24 22 -23 10 -36 10 -36 -16 -30 -15 -30 0 -10 0 -10 16 -15 15 -16 133 0 134 0 11 75 11 76 0 57 0 57 -9 14 -9 14 -28 -7 -29 -7 -27 -6 -28 -5 -35 6 -34 7 -31 25 -30 26 0 58 0 58 19 23 19 24 74 0 73 0 33 -7 34 -8 -7 123 -7 122 -15 12 -16 12 -76 17 -76 16 -38 9 -38 10 -6 15 -6 15 14 41 13 40 -19 14 -19 14 -73 0 -74 0 -26 -26z" transform="translate(0.000000,95.000000) scale(0.100000,-0.100000)"/></clipPath><clipPath id="piece-mask-100-48" shape-rendering="crispEdges"><path d="M200 913 l-35 -3 -82 -6 -83 -6 0 -108 0 -109 10 -25 9 -25 26 -7 26 -6 42 16 43 16 17 0 17 0 10 -26 10 -25 0 -34 0 -34 -10 -25 -9 -25 -22 -11 -21 -12 -11 11 -11 11 -16 0 -17 0 -10 -23 -11 -23 -17 -84 -17 -83 -14 -40 -14 -40 0 -3 0 -4 103 0 103 0 19 -14 19 -14 -12 -39 -12 -40 0 -12 0 -12 26 -24 27 -25 64 0 64 0 20 11 21 11 -7 38 -6 38 10 6 11 7 107 20 108 21 32 13 33 14 0 144 0 143 -14 19 -14 19 -57 -14 -57 -14 -16 11 -17 10 -6 24 -6 24 13 27 14 26 45 18 46 17 25 -12 25 -11 16 0 16 0 -7 142 -8 143 -3 3 -3 4 -119 5 -118 5 -19 -14 -19 -15 12 -21 11 -21 0 -38 -1 -38 -12 -23 -13 -23 -28 -14 -28 -15 -33 0 -33 0 -26 30 -25 30 -7 46 -7 46 11 34 10 33 -6 5 -5 6 -21 -2 -21 -1 -35 -4z" transform="translate(0.000000,92.000000) scale(0.100000,-0.100000)"/></clipPath><clipPath id="piece-mask-100-49" shape-rendering="crispEdges"><path d="M700 921 l-25 -7 2 -25 2 -24 7 -37 6 -37 -30 -31 -30 -30 -64 0 -63 0 -25 13 -25 13 1 20 2 19 13 33 13 32 -22 22 -22 22 -105 4 -105 4 0 -94 0 -95 -11 -31 -10 -31 -24 -15 -24 -16 -36 0 -35 0 -21 13 -20 12 -25 -28 -24 -28 0 -53 0 -52 14 -19 14 -19 26 12 27 12 24 0 24 0 11 -19 10 -20 21 -87 21 -88 20 -43 20 -43 89 0 90 0 34 -14 35 -15 0 -28 0 -29 -11 -11 -11 -11 6 -19 6 -20 26 -11 25 -12 38 -6 39 -6 36 12 36 12 0 14 0 15 -11 21 -11 20 14 14 14 14 113 20 114 19 32 11 32 11 13 90 12 90 -6 34 -7 33 -15 12 -15 13 -38 -12 -38 -11 -32 0 -31 0 -37 33 -36 34 -1 47 -1 48 28 24 28 24 23 0 23 0 42 -15 41 -14 15 6 16 5 9 19 10 18 0 94 0 94 -6 30 -6 30 -106 11 -107 12 -10 -1 -10 -1 -25 -7z" transform="translate(0.000000,93.000000) scale(0.100000,-0.100000)"/></clipPath><clipPath id="piece-mask-100-50" shape-rendering="crispEdges"><path d="M622 727 l-13 -16 9 -18 9 -18 7 -37 7 -36 -10 -42 -9 -42 -23 -24 -22 -24 -19 0 -19 0 -24 24 -24 24 -11 43 -12 43 13 41 13 40 1 9 0 10 -30 8 -30 9 -123 -7 -124 -7 6 -31 5 -31 7 -119 7 -119 -11 7 -11 6 -46 9 -47 9 -34 -9 -33 -10 -16 -22 -15 -21 0 -29 0 -29 15 -33 16 -32 24 -11 24 -11 35 14 35 15 15 -6 15 -6 12 -36 12 -36 -6 -88 -6 -88 360 0 359 0 0 13 0 12 -14 99 -14 99 -15 14 -15 15 -20 -11 -21 -11 -24 0 -24 0 -14 27 -14 26 1 73 1 73 13 17 14 16 30 -7 31 -6 24 -2 23 -2 22 28 21 28 3 104 4 103 -54 12 -53 12 -90 5 -90 5 -13 -15z" transform="translate(0.000000,74.000000) scale(0.100000,-0.100000)"/></clipPath><clipPath id="piece-mask-100-51" shape-rendering="crispEdges"><path d="M7 953 l-7 -6 0 -353 0 -352 113 -4 112 -4 32 -17 33 -17 6 -26 7 -27 -17 -52 -16 -52 0 -6 0 -6 16 -15 15 -16 49 0 49 0 21 30 21 29 12 56 11 55 -13 35 -13 36 12 14 12 15 42 0 41 0 85 -15 85 -15 6 0 6 0 11 25 12 25 16 93 17 92 14 28 14 27 16 0 17 0 34 -12 34 -13 19 24 19 23 0 58 0 59 -10 25 -9 25 -25 7 -24 6 -56 -18 -56 -18 -20 19 -20 18 0 109 0 110 -27 -6 -28 -6 -75 -10 -74 -11 -23 -14 -23 -15 17 -36 17 -35 -19 -35 -19 -36 -27 -14 -28 -14 -54 0 -54 0 -27 25 -26 24 0 14 0 13 16 47 15 46 -11 21 -12 22 -33 14 -34 14 -94 0 -94 0 -6 -7z" transform="translate(0.000000,96.000000) scale(0.100000,-0.100000)"/></clipPath><clipPath id="piece-mask-100-52" shape-rendering="crispEdges"><path d="M713 974 l-22 -5 -10 -13 -11 -13 15 -29 15 -29 -6 -30 -6 -30 -20 -28 -20 -27 -27 -14 -26 -14 -45 8 -44 8 -19 23 -19 23 5 31 5 30 10 33 11 33 -20 20 -19 19 -121 0 -120 0 5 -17 5 -18 7 -134 7 -134 -29 7 -29 6 -60 6 -60 5 -33 -20 -32 -21 0 -31 0 -30 10 -20 11 -19 39 -20 39 -20 40 0 41 0 45 12 46 12 9 -14 10 -15 0 -45 0 -45 -14 -46 -14 -47 -16 -30 -16 -31 0 -6 0 -5 113 -1 112 0 35 -12 35 -12 -2 -30 -2 -30 -7 -57 -6 -57 27 -25 28 -26 31 0 31 0 33 20 32 20 11 28 11 27 -6 40 -6 40 -6 32 -6 31 36 11 37 10 89 -6 90 -6 0 11 0 11 -11 28 -10 28 -20 95 -19 95 -6 17 -5 16 -16 6 -16 7 -11 -11 -10 -10 -17 0 -17 0 -6 16 -6 16 0 58 0 59 10 26 10 27 33 -5 32 -6 31 -6 32 -7 16 23 16 23 0 103 0 103 -33 0 -34 0 -74 4 -74 5 -22 -5z" transform="translate(0.000000,98.000000) scale(0.100000,-0.100000)"/></clipPath><clipPath id="piece-mask-100-53" shape-rendering="crispEdges"><path d="M501 931 l-15 -9 13 -15 12 -15 -3 -58 -3 -57 -28 -21 -28 -21 -115 -4 -115 -3 3 -123 3 -123 -6 -6 -6 -6 -62 16 -62 15 -29 -6 -30 -7 -15 -21 -15 -21 0 -49 0 -48 11 -20 10 -20 22 -8 22 -8 39 13 39 14 8 0 8 0 15 -28 14 -28 11 -115 11 -114 0 -15 0 -15 140 0 139 0 17 17 18 17 -12 26 -12 26 0 38 0 38 23 34 23 34 40 3 41 3 22 -18 22 -18 -17 -34 -17 -34 26 -23 26 -22 58 -12 58 -12 68 -25 69 -25 5 5 4 5 -10 77 -11 76 0 48 0 47 14 20 15 19 20 -12 21 -13 20 0 21 0 29 15 29 15 15 22 16 22 0 29 0 28 -14 33 -14 34 -20 6 -20 7 -41 -17 -41 -16 -15 12 -15 12 0 119 0 119 -137 -6 -138 -6 -20 15 -20 15 13 46 12 46 0 23 -1 22 -12 16 -12 16 -22 11 -22 12 -38 0 -38 0 -14 -9z" transform="translate(0.000000,94.000000) scale(0.100000,-0.100000)"/></clipPath><clipPath id="piece-mask-100-54" shape-rendering="crispEdges"><path d="M363 1114 l-32 -16 -6 -19 -6 -18 16 -31 16 -31 -6 -19 -6 -18 -25 -17 -26 -17 -114 1 -114 1 0 -106 0 -105 14 -33 14 -34 21 -7 20 -6 31 16 30 16 20 -11 19 -10 12 -40 12 -39 -13 -31 -13 -31 -41 -23 -41 -24 -30 -6 -30 -6 -26 14 -27 14 -13 -9 -14 -8 2 -53 2 -53 20 -58 20 -58 -6 -14 -5 -15 118 0 119 0 36 -10 36 -10 10 -23 11 -23 -5 -27 -5 -27 -9 -6 -9 -5 0 -19 0 -19 26 -20 27 -21 33 0 33 0 31 29 32 28 4 39 5 39 -14 47 -15 46 11 11 11 11 51 0 52 0 78 -20 77 -20 9 6 9 5 -6 11 -7 11 -18 125 -18 125 -20 21 -20 20 -35 -17 -35 -16 -25 20 -26 20 0 44 0 43 13 10 13 11 47 -14 48 -14 24 9 24 9 18 28 18 27 4 118 3 117 -124 -2 -125 -2 -17 14 -18 15 7 30 6 31 5 35 6 35 -20 18 -20 18 -53 5 -54 5 -32 -17z" transform="translate(0.000000,113.000000) scale(0.100000,-0.100000)"/></clipPath><clipPath id="piece-mask-100-55" shape-rendering="crispEdges"><path d="M207 777 l6 -133 -12 -23 -13 -23 -31 6 -32 7 -26 5 -26 6 -32 -16 -31 -16 -6 -27 -7 -26 10 -16 10 -15 26 -19 26 -20 49 -5 49 -4 7 11 7 11 29 0 28 0 6 -16 6 -16 0 -52 0 -51 -20 -73 -20 -72 0 -11 0 -12 88 6 89 7 33 -10 34 -10 7 -11 7 -12 -14 -33 -14 -33 0 -24 0 -24 18 -16 19 -17 89 0 90 0 22 16 22 15 0 24 0 24 -10 6 -10 6 0 14 0 14 21 12 21 11 95 13 95 13 5 5 5 6 -16 63 -15 63 -12 68 -11 68 -15 15 -16 15 -16 -7 -16 -7 -30 -4 -30 -5 -19 20 -18 20 -5 41 -6 41 13 30 13 31 30 16 31 16 84 -6 83 -6 -5 17 -5 17 -7 108 -6 108 -17 -6 -16 -7 -119 -24 -118 -24 -10 -6 -9 -6 6 -38 7 -38 -21 -11 -20 -11 -64 0 -64 0 -27 25 -26 24 0 12 0 12 12 40 12 39 -19 14 -19 14 -107 0 -108 0 6 -133z" transform="translate(0.000000,91.000000) scale(0.100000,-0.100000)"/></clipPath><clipPath id="piece-mask-100-56" shape-rendering="crispEdges"><path d="M8 640 l-2 -85 2 -49 3 -49 10 -18 10 -19 14 0 14 0 35 16 34 17 38 -19 39 -19 9 -32 9 -33 -27 -34 -26 -34 -35 -12 -36 -12 -26 17 -25 17 -17 -16 -16 -17 -3 -129 -4 -130 366 0 366 0 0 361 0 362 -113 -5 -112 -5 -17 -8 -18 -7 0 -20 0 -19 11 -21 11 -20 -6 -22 -5 -22 -36 -17 -36 -17 -59 0 -58 0 -16 6 -16 6 0 14 0 14 9 0 9 0 4 30 4 29 -12 29 -12 29 -18 8 -19 8 -113 6 -112 6 -2 -85z" transform="translate(0.000000,73.000000) scale(0.100000,-0.100000)"/></clipPath><clipPath id="piece-mask-100-57" shape-rendering="crispEdges"><path d="M502 894 l-22 -15 -10 -19 -10 -18 18 -47 17 -46 -24 -19 -25 -18 -40 -5 -41 -6 -78 6 -79 6 7 -115 8 -116 -7 -35 -7 -35 -13 -5 -14 -6 -48 15 -47 14 -24 0 -23 0 -20 -20 -20 -20 0 -29 0 -29 25 -31 26 -30 35 -11 36 -12 11 11 11 11 28 0 28 0 11 -27 11 -28 -6 -107 -6 -108 360 0 360 0 0 104 0 105 -10 26 -10 27 -23 -7 -22 -7 -36 -5 -37 -5 -16 23 -16 23 0 66 0 66 15 20 15 19 7 -12 8 -11 15 -3 15 -3 27 7 28 7 21 43 22 42 5 92 5 93 -140 -3 -140 -2 -17 14 -18 15 7 30 6 31 6 41 5 42 -23 16 -23 16 -41 0 -41 0 -22 -16z" transform="translate(0.000000,91.000000) scale(0.100000,-0.100000)"/></clipPath><clipPath id="piece-mask-100-58" shape-rendering="crispEdges"><path d="M328 939 l-18 -10 0 -26 0 -27 12 -33 12 -33 -22 -23 -23 -22 -137 0 -137 0 -7 -20 -6 -20 -1 -67 -1 -67 11 -51 11 -50 21 -15 21 -15 33 0 32 0 26 12 26 12 10 -15 9 -14 0 -45 0 -45 -6 -36 -6 -36 -41 1 -41 1 -23 -75 -23 -75 -22 -47 -21 -48 6 -7 7 -6 134 -1 134 -1 7 7 7 7 -12 64 -13 64 6 26 7 25 36 12 37 12 38 -11 38 -12 24 -32 24 -32 7 -28 6 -27 -15 -30 -16 -30 11 -19 10 -19 28 -7 29 -6 59 10 59 10 38 7 37 7 0 8 0 9 -25 73 -24 74 -6 54 -6 54 10 14 9 14 72 -12 71 -13 46 7 46 7 29 28 28 28 0 59 0 59 -16 23 -17 23 -46 -7 -46 -7 -36 -5 -36 -5 -21 23 -21 22 -7 42 -6 43 4 61 3 61 -12 0 -13 0 0 8 0 9 -112 28 -113 27 -13 11 -14 11 5 32 5 32 -24 11 -25 11 -47 0 -47 -1 -17 -10z" transform="translate(0.000000,95.000000) scale(0.100000,-0.100000)"/></clipPath><clipPath id="piece-mask-100-59" shape-rendering="crispEdges"><path d="M330 1113 l-35 -18 -13 -27 -13 -27 16 -30 15 -30 0 -25 0 -25 -30 -16 -29 -15 -114 0 -114 0 -6 -82 -7 -83 0 -63 0 -62 28 7 27 8 60 0 61 -1 34 -20 35 -20 3 -33 3 -34 -31 -28 -31 -29 -19 0 -19 0 -6 10 -6 10 -18 0 -19 0 -11 -27 -11 -28 -14 -70 -15 -70 -15 -44 -16 -44 0 -8 0 -9 94 0 93 0 33 -11 32 -12 12 -29 12 -29 -4 -29 -4 -30 -9 0 -9 0 0 -14 0 -14 16 -6 16 -6 58 0 59 0 36 17 36 17 5 22 6 22 -11 20 -11 21 0 19 0 20 18 7 17 8 113 5 112 5 0 359 0 360 -27 -6 -28 -6 -95 -6 -95 -7 -14 17 -14 17 13 53 12 53 -17 37 -18 37 -21 14 -21 14 -25 6 -25 5 -35 -17z" transform="translate(0.000000,113.000000) scale(0.100000,-0.100000)"/></clipPath><clipPath id="piece-mask-100-60" shape-rendering="crispEdges"><path d="M220 645 l0 -96 -14 -33 -14 -34 -22 -7 -22 -7 -43 17 -44 16 -20 -11 -20 -10 -12 -42 -11 -43 5 -40 6 -40 21 -17 22 -18 40 0 39 0 46 12 46 11 13 -18 14 -19 0 -55 -1 -56 -14 -65 -13 -64 4 -8 5 -8 98 0 98 0 32 11 32 11 9 24 9 24 -16 49 -16 50 17 26 17 26 25 9 25 10 20 0 21 0 30 -30 30 -31 -5 -52 -6 -52 -6 -25 -6 -25 23 -15 23 -14 119 2 120 2 17 5 18 6 10 52 10 52 6 53 7 52 16 20 17 20 31 -11 30 -12 28 7 27 7 19 42 20 42 0 27 0 26 -30 26 -30 25 -46 7 -45 6 -50 -6 -51 -7 6 38 5 38 7 108 6 107 -366 0 -366 0 0 -95z" transform="translate(0.000000,74.000000) scale(0.100000,-0.100000)"/></clipPath><clipPath id="piece-mask-100-61" shape-rendering="crispEdges"><path d="M471 939 l-23 -9 5 -28 6 -27 7 -27 6 -28 -6 -25 -7 -26 -36 -15 -36 -15 -88 3 -89 3 -6 -18 -6 -18 7 -37 6 -37 -10 -70 -10 -70 -31 -27 -30 -28 -30 0 -29 0 -6 10 -6 10 -18 0 -19 0 -12 -30 -13 -30 7 -41 7 -42 10 -18 10 -19 17 0 18 0 13 13 12 12 18 -21 17 -22 13 -58 12 -59 21 -62 22 -63 30 -5 31 -6 130 -2 130 -2 -2 25 -3 25 -6 52 -7 52 12 30 13 29 28 12 28 12 30 -16 30 -16 17 -44 17 -45 -16 -40 -16 -40 6 -16 6 -15 26 -7 25 -6 125 6 125 7 4 3 4 4 -11 28 -10 27 -7 117 -6 116 17 14 17 14 25 -12 25 -11 33 0 33 0 27 21 26 20 0 37 0 37 -20 32 -19 32 -30 16 -30 15 -31 0 -31 0 -20 -10 -19 -11 0 18 0 18 10 92 10 92 -5 13 -5 13 -98 3 -97 3 -34 7 -34 7 -11 17 -10 17 12 35 13 34 -13 27 -12 26 -27 15 -28 14 -53 -1 -53 0 -24 -10z" transform="translate(0.000000,95.000000) scale(0.100000,-0.100000)"/></clipPath><clipPath id="piece-mask-100-62" shape-rendering="crispEdges"><path d="M224 583 l6 -128 -9 -15 -10 -14 -34 12 -33 12 -23 0 -22 0 -34 -14 -35 -15 -16 -35 -17 -35 17 -26 18 -27 35 -15 36 -15 26 7 26 6 32 6 31 5 8 -24 8 -23 -2 -75 -1 -75 -7 -48 -6 -47 364 2 363 3 7 124 8 124 15 23 15 24 20 0 19 0 6 -10 6 -10 37 0 37 0 32 20 32 19 7 26 6 25 -16 25 -16 24 -36 7 -36 7 -57 -7 -56 -6 -24 -6 -23 -7 7 152 7 151 -115 0 -116 0 -25 -10 -26 -10 0 -15 0 -15 12 -19 12 -19 -12 -40 -12 -39 -21 -27 -20 -26 -48 0 -48 0 -16 18 -17 19 0 26 0 27 12 46 13 46 -24 19 -23 19 -126 0 -125 0 7 -127z" transform="translate(0.000000,71.000000) scale(0.100000,-0.100000)"/></clipPath><clipPath id="piece-mask-100-63" shape-rendering="crispEdges"><path d="M227 733 l-47 -4 6 -114 7 -114 -13 -15 -12 -15 -29 14 -28 15 -21 0 -21 0 -21 -11 -20 -11 -14 -33 -14 -34 0 -40 0 -39 18 -31 17 -31 34 -16 33 -16 24 6 24 6 26 6 26 7 9 -14 9 -14 0 -45 0 -45 -19 -67 -18 -67 14 -5 15 -6 98 0 99 0 27 10 27 10 -7 43 -7 42 -6 41 -5 42 21 21 21 21 54 0 55 0 25 -33 26 -34 0 -27 0 -26 -12 -19 -11 -18 6 -16 6 -16 38 -9 38 -10 107 -6 106 -7 22 58 22 58 5 57 6 58 -12 13 -11 14 -58 -13 -57 -14 -31 6 -31 6 -27 21 -27 22 -9 40 -9 40 6 35 6 35 8 17 9 16 27 6 28 6 57 -14 58 -13 8 11 9 11 6 39 6 39 -6 79 -6 79 -16 -7 -16 -7 -95 -24 -95 -24 -15 -15 -15 -14 13 -20 12 -20 0 -13 0 -13 -30 -17 -30 -18 -60 -2 -60 -1 -27 20 -28 20 -17 35 -18 34 0 33 0 33 10 20 11 19 -83 -2 -83 -2 -48 -3z" transform="translate(0.000000,74.000000) scale(0.100000,-0.100000)"/></clipPath><clipPath id="piece-mask-100-64" shape-rendering="crispEdges"><path d="M674 736 l-22 -16 14 -37 13 -38 0 -20 1 -20 -19 -41 -18 -41 -36 -16 -35 -17 -31 0 -30 0 -26 12 -25 11 -7 25 -6 24 12 71 12 71 -16 15 -16 16 -113 -1 -114 -1 -11 -7 -11 -7 0 -132 0 -132 -8 -12 -8 -12 -14 9 -15 10 -40 0 -40 0 -21 -18 -21 -17 -10 -18 -10 -19 5 -25 5 -25 31 -19 31 -19 33 0 33 0 46 12 46 11 14 -19 14 -19 -6 -40 -6 -40 -20 -65 -21 -64 -14 -28 -14 -27 0 -6 0 -5 144 0 144 0 22 18 23 18 -16 64 -17 64 15 23 15 23 41 0 41 0 28 -20 28 -20 10 -29 10 -29 -13 -19 -14 -18 -1 -17 0 -17 30 -16 29 -15 111 0 111 0 -4 18 -5 17 -7 95 -6 95 -11 33 -10 34 -27 -6 -26 -7 -42 -6 -41 -5 -26 25 -26 26 0 43 0 43 20 32 19 32 42 11 42 12 36 -7 36 -6 23 -6 22 -5 0 73 0 74 -6 52 -7 51 -30 6 -30 6 -81 6 -81 6 -21 -16z" transform="translate(0.000000,75.000000) scale(0.100000,-0.100000)"/></clipPath><clipPath id="piece-mask-100-65" shape-rendering="crispEdges"><path d="M26 778 l-4 -13 -7 -103 -6 -103 -6 -15 -5 -14 27 10 26 10 50 0 51 0 29 -29 29 -29 0 -74 0 -74 -13 -18 -14 -19 -21 12 -21 11 -19 0 -20 0 -10 -27 -11 -28 -16 -80 -15 -79 -16 -24 -16 -24 5 -4 4 -4 126 -3 126 -2 17 17 16 16 -16 48 -16 48 0 18 0 19 14 28 15 27 26 12 26 12 28 0 28 0 23 -25 23 -25 5 -56 5 -56 -13 -55 -12 -55 12 -12 11 -11 62 1 63 1 71 22 72 21 4 8 4 7 -9 125 -9 125 -14 22 -15 22 -35 -14 -34 -15 -16 0 -17 0 -29 29 -29 29 0 44 0 43 20 32 19 32 22 11 21 12 42 -5 41 -5 21 -7 21 -7 4 24 4 23 -3 99 -4 99 -118 -6 -118 -5 -22 -12 -22 -12 7 -26 6 -27 5 -30 5 -30 -21 -22 -21 -23 -69 0 -70 0 -16 26 -17 25 10 57 11 57 4 15 3 15 -138 3 -137 3 -4 -13z" transform="translate(0.000000,79.000000) scale(0.100000,-0.100000)"/></clipPath><clipPath id="piece-mask-100-66" shape-rendering="crispEdges"><path d="M195 882 l7 -88 -12 -43 -11 -43 -32 6 -32 5 -30 6 -31 7 -24 -20 -25 -20 0 -86 0 -85 17 -18 18 -17 0 12 0 12 23 0 24 0 15 -17 16 -18 12 -58 12 -59 21 -61 22 -62 112 3 112 3 21 -21 20 -20 -15 -36 -15 -36 0 -20 0 -19 15 -29 15 -30 30 -15 29 -15 35 0 35 0 16 16 15 16 16 30 16 30 5 54 6 54 -13 15 -12 15 5 14 6 15 34 6 33 7 75 -11 74 -10 30 -6 30 -7 -3 358 -3 358 -2 2 -2 3 -115 -14 -114 -14 -13 -14 -13 -13 16 -40 15 -39 -10 -28 -11 -27 -32 -20 -33 -20 -38 0 -39 0 -29 29 -29 29 0 25 0 25 16 37 15 37 -17 19 -17 19 -36 10 -36 10 -99 0 -98 0 7 -88z" transform="translate(0.000000,97.000000) scale(0.100000,-0.100000)"/></clipPath><clipPath id="piece-mask-100-67" shape-rendering="crispEdges"><path d="M355 984 l-30 -15 -17 -22 -18 -22 0 -28 0 -27 12 -20 13 -20 -11 -17 -11 -18 -34 -7 -34 -8 -91 6 -91 6 -5 -49 -6 -48 7 -57 7 -58 20 -27 20 -27 29 -9 29 -10 45 12 44 12 9 -13 9 -13 -3 -68 -4 -67 -22 -22 -22 -22 -37 0 -38 1 -52 8 -52 8 -12 -29 -11 -29 11 -82 12 -82 10 -30 11 -31 118 0 119 0 24 9 24 9 7 18 7 18 -17 47 -17 47 13 32 13 32 33 14 33 14 17 0 16 0 34 -34 34 -34 0 -64 0 -63 -10 -34 -9 -34 10 -18 10 -19 53 0 52 0 55 16 54 16 35 19 35 20 -6 133 -6 132 -13 23 -12 23 -31 -7 -32 -6 -40 -5 -40 -6 -28 22 -27 21 0 48 0 48 22 28 21 27 51 -6 51 -6 25 -6 25 -5 20 15 20 14 3 104 2 103 -13 17 -13 16 -128 17 -128 16 -24 9 -24 10 0 23 0 24 12 33 11 33 -23 19 -22 18 -27 0 -26 0 -30 -16z" transform="translate(0.000000,100.000000) scale(0.100000,-0.100000)"/></clipPath><clipPath id="piece-mask-100-68" shape-rendering="crispEdges"><path d="M110 743 l-105 -4 6 -94 6 -94 17 -25 16 -26 26 -6 25 -7 12 12 11 11 32 0 32 0 30 -28 30 -29 7 -36 7 -37 -6 -24 -6 -25 -35 -27 -35 -26 -46 -6 -45 -5 -24 13 -24 13 -16 -13 -15 -12 0 -128 0 -127 61 -7 62 -6 48 0 48 0 27 10 27 10 -6 38 -6 37 -7 37 -6 37 25 25 26 26 74 0 73 0 19 -14 20 -14 -13 -34 -12 -34 0 -17 0 -16 18 -10 17 -9 85 -17 85 -17 32 -13 32 -13 3 10 4 11 -13 51 -14 51 -6 57 -6 56 7 27 7 27 32 -7 32 -7 42 -1 42 -1 28 20 28 21 9 25 9 25 -7 27 -7 27 -19 19 -20 20 -35 -17 -36 -17 -17 10 -17 10 -17 35 -18 34 0 104 0 103 -22 -6 -23 -7 -75 -15 -75 -15 -34 -7 -34 -7 -11 -18 -11 -17 13 -20 12 -20 0 -20 0 -20 -27 -30 -28 -31 -41 -6 -40 -5 -30 25 -29 25 0 74 0 73 7 33 8 32 -48 -2 -47 -2 -105 -3z" transform="translate(0.000000,75.000000) scale(0.100000,-0.100000)"/></clipPath><clipPath id="piece-mask-100-69" shape-rendering="crispEdges"><path d="M220 649 l0 -82 -12 -39 -12 -39 -25 -20 -26 -21 -50 5 -50 5 -20 3 -20 4 -3 -58 -3 -59 16 -24 15 -24 21 0 20 0 21 11 20 11 24 -6 23 -6 10 -38 9 -37 18 -119 18 -118 111 4 111 4 37 23 37 23 6 24 6 24 -4 33 -5 32 -4 15 -4 15 34 3 35 4 32 -6 32 -7 26 -20 26 -21 -16 -28 -17 -28 19 -21 20 -20 99 -16 100 -15 23 -6 22 -6 0 105 0 106 -12 26 -12 27 -25 -7 -26 -6 -32 -6 -31 -5 -19 28 -18 28 0 88 0 87 12 12 13 13 49 -18 50 -18 20 7 20 6 11 37 10 37 0 30 0 30 -7 53 -6 53 -16 -6 -16 -7 -115 -24 -115 -25 -15 -15 -15 -14 13 -20 12 -20 0 -14 0 -15 -22 -15 -22 -16 -48 0 -47 0 -25 10 -26 10 0 15 0 15 10 0 10 0 0 40 0 41 -24 24 -23 23 -39 11 -39 11 -77 0 -78 0 0 -81z" transform="translate(0.000000,73.000000) scale(0.100000,-0.100000)"/></clipPath><clipPath id="piece-mask-100-70" shape-rendering="crispEdges"><path d="M561 1167 l-24 -12 -11 -17 -11 -18 13 -20 12 -20 0 -27 0 -28 -18 -21 -17 -22 -25 -13 -25 -13 -115 -6 -115 -5 3 -120 4 -120 -15 -19 -14 -19 -46 11 -46 12 -39 0 -39 0 -16 -18 -17 -19 0 -60 0 -60 11 -31 11 -31 18 -6 18 -6 25 12 26 12 14 -6 14 -5 23 -84 22 -83 16 -35 16 -35 3 -4 3 -4 67 1 68 2 87 6 86 6 -9 -38 -9 -39 0 -56 0 -56 26 -28 25 -27 42 5 42 6 18 22 18 22 -7 16 -7 16 -4 22 -5 23 27 10 27 10 91 20 90 20 41 20 41 19 -5 135 -5 135 -17 17 -17 17 -39 -17 -39 -18 -31 16 -31 16 -11 19 -10 20 0 29 0 30 19 23 19 23 13 -10 14 -11 28 -7 27 -6 25 6 26 6 14 29 15 28 0 113 0 113 -8 11 -7 11 -110 8 -110 7 -34 14 -33 14 6 25 6 25 6 26 7 25 -14 26 -13 25 -28 14 -27 14 -13 0 -13 0 -24 -13z" transform="translate(0.000000,118.000000) scale(0.100000,-0.100000)"/></clipPath><clipPath id="piece-mask-100-71" shape-rendering="crispEdges"><path d="M196 605 l7 -145 -16 0 -16 0 -25 11 -25 12 -46 -17 -45 -18 -14 -26 -13 -27 6 -24 6 -24 17 -10 16 -11 57 14 57 14 15 -20 14 -19 -3 -150 -3 -150 111 6 110 5 34 20 33 19 10 28 9 28 -16 50 -17 51 12 14 11 13 35 7 35 7 24 -12 25 -11 16 -37 15 -38 -13 -68 -12 -68 12 -12 12 -12 62 0 62 0 77 8 78 9 15 51 16 52 6 52 6 51 -7 27 -7 27 -27 -5 -27 -6 -26 -6 -27 -7 -33 16 -34 16 -17 31 -18 31 0 39 0 40 14 34 14 33 20 11 21 11 23 0 23 -1 25 -14 25 -13 12 10 13 10 0 62 0 61 -7 53 -6 53 -26 -6 -26 -7 -109 -19 -110 -19 -14 -14 -14 -14 11 -20 11 -21 0 -15 0 -14 -36 -12 -36 -12 -39 6 -38 6 -25 12 -26 11 -6 20 -6 19 11 11 11 11 0 29 0 28 -35 15 -34 14 -92 0 -91 0 8 -145z" transform="translate(0.000000,75.000000) scale(0.100000,-0.100000)"/></clipPath><clipPath id="piece-mask-100-72" shape-rendering="crispEdges"><path d="M29 798 l-2 -3 -12 -140 -12 -140 1 -2 1 -2 71 11 70 11 30 -14 29 -14 3 -59 3 -58 -16 -24 -15 -24 -15 0 -15 0 0 10 0 10 -19 0 -19 0 -11 -27 -11 -28 -15 -74 -15 -74 -19 -43 -19 -42 101 -7 102 -7 55 4 55 3 -2 20 -2 20 -7 45 -6 45 19 24 20 24 33 -1 34 -1 25 -19 26 -18 18 -37 19 -37 -13 -51 -13 -51 19 -14 19 -14 21 0 21 0 57 15 58 15 44 24 45 23 -5 4 -4 4 14 65 14 65 1 56 0 55 -14 19 -13 18 -46 -11 -46 -12 -39 0 -40 0 -22 18 -21 17 -6 40 -5 40 11 43 12 42 20 10 20 11 44 -16 43 -17 22 7 22 7 14 34 14 33 0 96 0 95 -365 0 -365 0 -1 -2z" transform="translate(0.000000,80.000000) scale(0.100000,-0.100000)"/></clipPath><clipPath id="piece-mask-100-73" shape-rendering="crispEdges"><path d="M200 638 l0 -105 -21 -27 -22 -28 -51 4 -51 4 -17 8 -18 8 -10 -27 -10 -26 0 -74 0 -73 6 -16 6 -17 14 11 13 11 28 -3 28 -3 23 -75 22 -75 31 -61 30 -61 76 -7 76 -6 79 0 78 0 0 8 0 9 -15 29 -14 30 10 37 10 36 26 21 27 21 26 -6 25 -6 14 -14 14 -13 -12 -33 -11 -32 0 -23 0 -22 33 -10 32 -10 126 -6 127 -5 20 47 20 47 12 59 12 60 11 23 10 23 18 5 18 6 30 -15 30 -16 26 23 26 22 9 39 9 40 -15 34 -14 34 -27 -7 -28 -7 -41 -5 -40 -5 -31 26 -30 25 -14 48 -14 48 0 82 0 83 -127 0 -127 0 -26 -10 -27 -10 6 -28 7 -27 6 -28 5 -28 -17 -19 -18 -20 -46 0 -46 0 -14 9 -14 9 13 31 12 31 -6 26 -7 25 -46 21 -46 20 -104 6 -103 5 0 -105z" transform="translate(0.000000,74.000000) scale(0.100000,-0.100000)"/></clipPath><clipPath id="piece-mask-100-74" shape-rendering="crispEdges"><path d="M517 932 l-16 -17 -9 -25 -9 -25 15 -42 16 -42 -13 -25 -14 -25 -30 -11 -30 -10 -122 0 -122 0 -5 -92 -5 -93 -22 -42 -21 -43 -28 -7 -27 -7 -15 3 -15 3 -8 11 -7 12 -15 -19 -15 -20 0 -66 0 -66 16 -23 16 -23 37 5 36 5 22 7 23 7 10 -27 10 -26 0 -105 0 -104 380 0 380 0 0 8 0 8 15 119 15 119 14 15 15 14 41 -13 40 -13 20 18 20 18 0 57 0 58 -19 23 -19 23 -43 1 -44 0 -38 -8 -39 -8 7 134 8 134 -17 6 -16 6 -117 17 -118 16 -17 9 -18 10 0 22 0 23 11 11 12 12 -7 24 -6 25 -26 31 -26 31 -22 0 -23 0 -16 -18z" transform="translate(0.000000,95.000000) scale(0.100000,-0.100000)"/></clipPath><clipPath id="piece-mask-100-75" shape-rendering="crispEdges"><path d="M245 605 l0 -124 -17 -18 -18 -17 -58 12 -58 12 -26 0 -25 0 -15 -17 -15 -18 -7 -28 -6 -27 10 -19 10 -19 32 -12 33 -11 49 -8 50 -9 44 17 44 16 14 -19 14 -20 0 -40 0 -41 -14 -65 -14 -65 -15 -43 -15 -42 92 0 91 0 39 11 38 11 24 25 24 26 0 29 0 28 -12 20 -13 20 11 18 11 17 27 13 27 14 26 -7 25 -6 25 -27 25 -27 -5 -30 -6 -30 -6 -28 -7 -27 33 -14 34 -14 118 -7 117 -8 -19 44 -19 44 -17 85 -17 85 -14 23 -14 22 -25 0 -24 0 -6 -10 -6 -10 -13 0 -13 0 -28 27 -27 28 5 48 4 48 16 16 16 16 53 -12 53 -13 24 3 24 4 21 28 21 28 3 110 4 109 -369 0 -368 0 0 -125z" transform="translate(0.000000,73.000000) scale(0.100000,-0.100000)"/></clipPath><clipPath id="piece-mask-100-76" shape-rendering="crispEdges"><path d="M526 1097 l-19 -14 12 -22 12 -22 -3 -31 -3 -31 -28 -21 -28 -21 -125 -3 -124 -4 0 -117 0 -117 -15 -21 -15 -22 -37 15 -36 16 -33 -7 -33 -6 -25 -30 -26 -31 0 -29 0 -30 24 -24 24 -24 34 -6 34 -6 62 14 63 15 15 -24 15 -23 -6 -48 -7 -48 -19 -77 -19 -76 0 -9 0 -8 109 0 109 0 22 -20 22 -20 -7 -30 -6 -30 -6 -37 -5 -36 31 -16 30 -16 48 0 48 1 16 12 16 12 11 22 12 22 0 39 0 39 -12 33 -11 33 19 14 19 15 75 -6 75 -7 62 -13 61 -13 25 46 25 46 22 89 21 90 10 18 10 18 17 0 18 0 11 -11 11 -11 21 11 21 12 0 50 0 50 -10 20 -11 19 -29 0 -29 0 -6 -10 -6 -10 -27 0 -28 0 -21 15 -22 16 -11 37 -10 37 0 91 0 92 -13 10 -12 11 -119 15 -119 16 -14 12 -15 12 5 25 5 26 7 22 7 23 -27 10 -26 10 -48 0 -47 0 -18 -13z" transform="translate(0.000000,111.000000) scale(0.100000,-0.100000)"/></clipPath><clipPath id="piece-mask-100-77" shape-rendering="crispEdges"><path d="M325 1098 l-27 -21 6 -36 6 -36 6 -32 6 -33 -28 -11 -29 -11 -110 6 -110 6 -13 -8 -12 -8 -3 -125 -2 -124 70 3 70 4 27 -22 27 -21 7 -34 6 -35 -17 -26 -17 -26 -35 -14 -35 -15 -31 10 -30 11 -17 0 -18 0 -12 -31 -13 -31 12 -106 12 -107 12 -7 12 -8 105 0 105 0 37 -10 38 -11 10 -19 10 -18 -15 -36 -15 -35 0 -20 0 -20 26 -20 27 -21 29 0 30 0 28 28 29 29 7 38 7 37 -15 54 -15 54 15 12 15 13 48 -2 49 -2 86 -29 86 -29 10 26 10 26 19 103 18 102 11 20 11 20 14 0 15 0 19 -11 18 -12 26 7 26 6 12 21 11 21 0 51 -1 50 -20 20 -20 21 -58 -17 -58 -16 -21 14 -20 13 -12 40 -12 39 0 93 0 92 -17 -7 -18 -7 -65 -14 -65 -14 -56 0 -55 0 -12 12 -12 12 0 22 0 23 11 7 11 7 -5 44 -5 45 -28 29 -28 29 -37 0 -36 0 -28 -22z" transform="translate(0.000000,112.000000) scale(0.100000,-0.100000)"/></clipPath><clipPath id="piece-mask-100-78" shape-rendering="crispEdges"><path d="M511 934 l-30 -25 -7 -35 -6 -35 17 -44 16 -45 -6 -10 -7 -11 -141 2 -142 1 0 -130 0 -130 -7 -8 -8 -7 -39 11 -38 12 -36 0 -36 0 -15 -16 -16 -15 -6 -25 -6 -25 5 -47 5 -46 22 -18 23 -18 25 -7 25 -6 65 13 65 13 14 -19 14 -19 -7 -50 -6 -50 -24 -65 -23 -64 4 -5 5 -4 150 -1 151 -1 8 13 8 13 -14 52 -13 52 5 26 6 27 19 17 19 18 57 -5 57 -5 14 -19 14 -19 -5 -30 -6 -30 -6 -37 -7 -38 24 -8 24 -9 120 -7 120 -6 -3 107 -3 108 15 20 15 20 20 -12 21 -13 26 0 26 0 40 22 40 23 14 27 14 27 0 44 0 44 -25 27 -24 26 -24 0 -23 0 -11 -11 -11 -11 -37 -1 -38 -1 -19 24 -19 24 3 118 3 118 -20 0 -20 0 -112 10 -111 9 -21 13 -21 13 0 18 0 17 12 19 11 19 -13 31 -13 32 -25 19 -25 20 -28 0 -27 0 -31 -26z" transform="translate(0.000000,96.000000) scale(0.100000,-0.100000)"/></clipPath><clipPath id="piece-mask-100-79" shape-rendering="crispEdges"><path d="M291 900 l-24 -11 11 -11 12 -12 0 -46 0 -47 -21 -19 -21 -19 -118 -3 -118 -4 -6 -37 -6 -37 10 -60 9 -59 32 -28 31 -29 32 5 31 4 17 7 16 7 6 -19 7 -20 1 -65 1 -65 -22 -31 -22 -31 -30 0 -29 0 -20 12 -20 13 -17 -18 -18 -18 -3 -123 -4 -123 96 -6 96 -6 31 6 31 6 5 15 6 14 -17 55 -18 55 16 16 16 16 68 4 67 4 29 -12 29 -11 -11 -11 -12 -12 0 -22 0 -22 16 -12 15 -13 112 -24 112 -24 15 -2 14 -2 7 30 7 30 1 97 1 97 -15 15 -15 15 -46 -16 -46 -15 -24 11 -24 11 -10 26 -10 25 0 24 0 24 29 31 28 32 41 9 41 9 26 -10 26 -10 6 0 5 0 -6 98 -7 97 -5 42 -6 41 -47 11 -46 10 -50 6 -50 6 -23 6 -23 5 -10 20 -10 19 15 24 15 23 -19 17 -20 18 -72 3 -73 4 -24 -10z" transform="translate(0.000000,91.000000) scale(0.100000,-0.100000)"/></clipPath><clipPath id="piece-mask-100-80" shape-rendering="crispEdges"><path d="M218 775 l-8 -8 7 -132 6 -132 -11 -7 -10 -6 -59 15 -58 15 -27 -6 -28 -6 -15 -21 -15 -21 0 -36 0 -36 16 -23 17 -23 41 -19 41 -19 37 0 37 0 6 10 6 10 23 0 24 0 12 -29 12 -30 -7 -43 -6 -43 -21 -63 -20 -63 5 -6 6 -5 103 -2 103 -1 27 8 27 7 5 18 6 18 -16 32 -16 32 19 38 18 37 40 14 41 14 37 -18 38 -18 16 -30 15 -30 -7 -46 -7 -46 -1 -30 -2 -29 28 -10 27 -10 70 12 69 12 38 15 39 15 13 33 14 32 32 95 32 95 40 -1 41 -1 6 36 6 36 0 45 0 45 -9 14 -10 15 -26 -12 -26 -12 -32 0 -33 0 -21 15 -22 15 -11 57 -12 57 4 79 5 78 -15 -6 -15 -5 -101 -16 -101 -15 -22 -15 -23 -15 15 -29 16 -30 -10 -19 -10 -19 -17 -6 -16 -6 -57 0 -57 0 -18 13 -17 13 17 30 17 30 -14 29 -14 30 -38 18 -38 19 -97 5 -97 5 -7 -7z" transform="translate(0.000000,78.000000) scale(0.100000,-0.100000)"/></clipPath><clipPath id="piece-mask-100-81" shape-rendering="crispEdges"><path d="M499 929 l-21 -21 5 -42 6 -41 7 -42 7 -43 -27 -10 -27 -10 -106 0 -106 0 7 -120 7 -119 -10 -20 -11 -20 -34 14 -35 15 -33 -7 -33 -6 -36 -18 -36 -18 -13 -31 -13 -31 20 -27 20 -27 39 -22 39 -22 43 -7 44 -7 25 12 25 12 19 -6 19 -6 0 -58 0 -58 -19 -54 -19 -54 -7 -17 -7 -18 86 0 87 0 34 14 34 15 7 26 6 25 -6 28 -7 27 -6 27 -5 28 27 10 26 10 50 0 50 0 28 -15 28 -14 12 -30 13 -29 -11 -20 -11 -21 0 -19 0 -20 15 -12 15 -12 117 -8 118 -7 7 6 8 7 -19 49 -19 50 -12 60 -12 60 -16 18 -15 17 -24 0 -23 0 0 -12 0 -12 -17 17 -18 18 0 85 0 86 25 20 24 20 31 -7 30 -6 32 -5 32 -6 11 43 12 44 -7 83 -7 83 -11 5 -12 4 -121 9 -121 8 -21 12 -22 12 0 19 0 19 10 6 10 6 0 31 0 31 -26 34 -25 33 -55 0 -54 0 -21 -21z" transform="translate(0.000000,95.000000) scale(0.100000,-0.100000)"/></clipPath><clipPath id="piece-mask-100-82" shape-rendering="crispEdges"><path d="M483 933 l-22 -4 -9 -12 -10 -12 14 -55 15 -55 -7 -40 -6 -40 -14 -27 -14 -27 -21 -6 -20 -7 -29 12 -29 12 -17 36 -16 35 5 61 6 61 3 20 3 20 -145 -3 -144 -3 -3 -3 -4 -3 -8 -114 -8 -114 8 -16 9 -17 37 14 38 13 30 1 31 0 21 -15 21 -15 12 -36 12 -35 -7 -46 -7 -46 -23 -23 -24 -24 -17 0 -18 0 -33 12 -33 12 -18 -17 -17 -18 -5 -113 -5 -114 112 -4 113 -3 22 -23 22 -22 -13 -32 -13 -33 -2 -19 -1 -20 25 -13 25 -13 63 0 64 0 30 30 30 31 -6 37 -7 37 -2 24 -2 24 30 9 30 9 98 -11 99 -11 5 5 6 5 -16 33 -15 33 -22 83 -23 84 -14 5 -14 6 -26 -12 -25 -12 -18 6 -18 6 -11 31 -11 31 0 62 0 62 18 16 19 17 37 0 37 0 46 -12 46 -11 14 19 15 19 -5 119 -5 119 -13 7 -12 8 -81 11 -81 12 -30 3 -30 3 -22 -4z" transform="translate(0.000000,94.000000) scale(0.100000,-0.100000)"/></clipPath><clipPath id="piece-mask-100-83" shape-rendering="crispEdges"><path d="M495 958 l-20 -12 -13 -15 -12 -16 4 -40 5 -40 6 -32 7 -33 -28 -11 -29 -10 -118 7 -117 7 0 -104 0 -105 -16 -23 -16 -23 -32 7 -31 6 -32 6 -33 5 -10 -27 -10 -26 0 -59 0 -58 6 -16 6 -16 18 0 19 0 6 10 6 10 9 0 9 0 14 -14 14 -15 18 -93 18 -93 19 -51 18 -51 129 -6 129 -7 16 6 16 6 -9 16 -9 17 -2 45 -3 45 2 27 1 28 28 29 27 30 27 7 27 6 29 -29 29 -28 12 -53 13 -52 -15 -44 -15 -45 23 -15 24 -16 43 0 42 0 93 17 94 16 -7 16 -7 16 -23 65 -23 65 -1 51 0 50 11 11 10 10 42 -14 42 -15 45 7 45 7 31 13 31 13 23 31 22 32 -6 33 -6 32 -29 28 -29 28 -41 9 -41 9 -35 -14 -35 -15 -15 22 -15 21 0 108 0 107 -32 -18 -33 -19 -54 -16 -55 -16 -37 0 -38 0 -16 16 -16 17 6 15 5 15 11 42 11 42 -11 41 -11 41 -31 25 -31 26 -36 0 -37 -1 -20 -11z" transform="translate(0.000000,97.000000) scale(0.100000,-0.100000)"/></clipPath><clipPath id="piece-mask-100-84" shape-rendering="crispEdges"><path d="M491 796 l-12 -15 10 -38 11 -38 0 -48 0 -48 -14 -32 -13 -33 -26 -17 -26 -17 -39 0 -39 0 -26 20 -25 20 -7 28 -6 28 16 38 17 39 -26 26 -26 26 -125 4 -125 3 0 -38 0 -39 -7 -98 -6 -98 27 11 27 10 48 0 48 0 26 -20 25 -20 7 -31 7 -31 -7 -45 -7 -45 -26 -25 -27 -25 -30 5 -30 5 -22 7 -21 7 -12 -23 -12 -22 -7 -106 -7 -106 1 -2 1 -2 143 -7 144 -7 -8 19 -7 19 -10 36 -10 36 12 43 11 42 24 24 23 23 27 7 26 6 25 -23 24 -23 12 -38 11 -38 -12 -38 -13 -39 3 -18 4 -18 28 -10 29 -9 122 7 123 7 21 91 21 92 6 43 7 43 -16 23 -15 24 -63 -15 -62 -14 -34 6 -34 6 -24 24 -24 24 0 30 0 29 26 31 25 30 33 6 33 7 36 -16 37 -15 15 22 15 21 0 118 0 118 -37 19 -38 19 -54 16 -55 16 -27 0 -27 0 -11 -14z" transform="translate(0.000000,81.000000) scale(0.100000,-0.100000)"/></clipPath><clipPath id="piece-mask-100-85" shape-rendering="crispEdges"><path d="M2 608 l3 -363 95 -1 95 -2 37 -1 37 -1 14 -15 15 -15 -14 -46 -14 -47 0 -42 0 -43 25 -16 24 -16 40 0 40 0 23 11 23 10 25 35 24 36 4 58 4 58 -12 37 -12 37 11 11 12 12 42 -2 43 -1 59 -22 60 -22 21 -5 21 -5 17 42 17 42 15 72 14 71 11 28 11 27 19 0 19 0 0 -10 0 -10 15 0 15 0 15 24 16 24 -3 58 -3 59 -29 14 -30 14 -70 -11 -71 -11 -1 2 -1 2 11 143 12 142 -373 0 -373 0 2 -362z" transform="translate(0.000000,97.000000) scale(0.100000,-0.100000)"/></clipPath><clipPath id="piece-mask-100-86" shape-rendering="crispEdges"><path d="M562 1095 l-33 -14 -15 -36 -15 -36 16 -31 15 -32 -6 -18 -5 -18 -27 -7 -27 -8 -117 2 -118 2 3 -109 2 -109 -16 -16 -15 -16 -39 17 -39 16 -36 -11 -36 -11 -23 -24 -23 -25 -5 -45 -6 -46 16 -24 16 -24 34 -21 35 -21 48 -9 49 -10 26 13 27 13 13 -8 14 -8 -2 -58 -2 -58 -14 -45 -15 -45 -6 -16 -7 -16 109 -5 108 -5 47 -21 46 -21 7 -25 6 -26 -12 -31 -13 -31 14 -9 14 -9 46 0 46 0 18 20 17 19 -5 28 -6 28 -7 27 -6 28 27 10 26 10 134 0 133 0 17 45 17 44 22 92 21 92 17 11 18 11 20 -13 20 -12 19 0 19 0 12 15 12 14 8 36 8 36 -10 35 -9 35 -20 20 -19 19 -38 0 -38 0 -11 -11 -10 -10 -34 3 -33 3 -8 30 -9 30 6 104 7 104 -19 -8 -18 -8 -65 -18 -65 -18 -41 0 -40 -1 -19 14 -20 14 13 46 12 46 0 26 0 25 -15 28 -14 28 -35 17 -34 16 -14 0 -13 -1 -33 -14z" transform="translate(0.000000,111.000000) scale(0.100000,-0.100000)"/></clipPath><clipPath id="piece-mask-100-87" shape-rendering="crispEdges"><path d="M380 982 l-35 -17 3 -25 4 -25 5 -57 5 -56 -28 -19 -28 -18 -110 -3 -111 -4 -7 -7 -8 -7 -1 -107 -1 -108 16 -24 16 -25 31 0 30 0 35 15 36 15 21 -11 22 -11 17 -22 18 -21 -1 -25 0 -25 -12 -16 -13 -17 -36 -15 -37 -16 -44 -6 -43 -7 -38 16 -38 16 -18 -10 -18 -9 -5 -28 -5 -28 9 -50 9 -50 22 -67 22 -68 108 0 109 0 32 13 32 14 14 17 14 16 -1 47 -1 46 -11 7 -11 7 6 15 6 16 30 12 29 13 37 -6 36 -6 24 -23 23 -22 12 -38 11 -38 -11 -39 -12 -38 0 -21 0 -20 16 -6 16 -6 50 0 50 0 69 17 69 16 0 16 0 16 -11 114 -11 115 -14 28 -15 28 -8 0 -8 0 -39 -14 -39 -13 -22 8 -22 8 -10 20 -11 20 0 48 0 49 15 21 15 21 30 7 29 6 62 -15 62 -16 6 6 6 6 -3 116 -3 117 -19 16 -19 17 -114 17 -113 17 -23 18 -24 17 16 48 17 47 -10 18 -10 18 -31 11 -32 11 -21 0 -21 0 -35 -18z" transform="translate(0.000000,100.000000) scale(0.100000,-0.100000)"/></clipPath><clipPath id="piece-mask-100-88" shape-rendering="crispEdges"><path d="M533 911 l-32 -20 -7 -27 -7 -26 13 -38 13 -39 -6 -15 -6 -16 -141 0 -140 0 0 -114 0 -115 -24 -28 -24 -28 -50 18 -50 17 -20 0 -20 0 -16 -25 -16 -24 0 -53 0 -53 18 -34 17 -35 17 -10 18 -11 20 13 20 12 15 0 14 0 10 -19 10 -18 16 -77 16 -78 11 -23 11 -24 15 -6 15 -6 122 -6 122 -6 6 9 5 9 -15 59 -15 59 7 33 6 34 19 10 19 10 56 0 57 0 30 -30 30 -31 -6 -37 -7 -37 -2 -25 -2 -24 25 -13 25 -13 118 0 117 0 0 361 0 361 -61 -7 -60 -7 -60 -1 -60 0 -16 15 -15 16 15 47 16 46 -9 24 -9 24 -26 17 -25 16 -43 5 -42 4 -32 -20z" transform="translate(0.000000,93.000000) scale(0.100000,-0.100000)"/></clipPath><clipPath id="piece-mask-100-89" shape-rendering="crispEdges"><path d="M118 953 l-48 -4 0 -92 0 -92 18 -35 17 -35 28 -15 27 -15 31 17 30 18 25 -25 24 -24 0 -45 0 -45 -37 -26 -38 -25 -56 0 -56 0 -33 11 -32 12 -9 -14 -9 -14 0 -35 0 -35 14 -50 13 -50 23 -52 22 -53 54 0 53 0 50 -11 51 -11 26 -31 26 -31 -7 -35 -7 -36 -5 -26 -5 -27 37 -12 38 -13 57 6 57 5 27 17 26 17 0 27 0 27 -12 12 -12 12 18 19 17 19 62 11 62 12 57 16 58 16 -6 8 -5 8 15 29 14 28 21 64 20 65 6 40 6 40 -14 19 -14 19 -46 -11 -46 -12 -33 0 -33 0 -31 19 -31 19 -5 25 -5 25 10 19 10 18 21 17 21 18 40 0 40 0 15 -10 14 -9 8 12 8 12 0 133 0 132 -4 0 -3 0 -39 -14 -39 -13 -68 -13 -68 -12 -20 -17 -21 -16 12 -27 12 -26 -19 -21 -18 -20 -48 -11 -47 -10 -33 14 -34 14 -17 37 -18 37 5 32 4 31 7 17 8 18 -27 10 -26 10 -67 -2 -67 -2 -47 -3z" transform="translate(0.000000,96.000000) scale(0.100000,-0.100000)"/></clipPath><clipPath id="piece-mask-100-90" shape-rendering="crispEdges"><path d="M9 757 l-12 -28 6 -69 6 -68 12 -42 13 -41 30 -25 30 -26 40 5 41 5 28 7 27 7 14 -34 15 -34 -9 -40 -9 -39 -26 -22 -26 -23 -30 16 -30 15 -18 -6 -19 -6 -11 -27 -10 -27 -16 -68 -15 -68 -16 -30 -15 -31 3 -3 3 -3 153 -13 152 -12 5 5 5 5 -10 53 -10 53 0 39 0 39 15 29 15 29 18 6 19 5 17 -6 17 -6 19 -39 20 -38 0 -52 0 -53 -12 -33 -12 -33 20 -15 19 -14 49 -1 48 0 93 22 92 22 20 45 20 46 12 65 12 65 11 28 10 27 20 0 19 0 21 -11 21 -12 14 19 13 18 0 74 0 74 -29 29 -29 29 -51 0 -50 0 -26 -10 -27 -10 6 15 6 16 6 109 7 110 -89 0 -89 0 -39 -9 -38 -9 -11 -11 -11 -11 12 -20 12 -20 0 -19 0 -20 -33 -25 -34 -26 -54 0 -54 0 -11 8 -11 7 -11 22 -12 21 15 42 15 43 0 3 0 3 -22 13 -23 13 -122 5 -123 5 -11 -28z" transform="translate(0.000000,79.000000) scale(0.100000,-0.100000)"/></clipPath><clipPath id="piece-mask-100-91" shape-rendering="crispEdges"><path d="M16 633 l-7 -108 -5 -38 -6 -38 51 7 50 6 45 -6 46 -7 30 -25 30 -26 0 -26 0 -27 -20 -42 -19 -42 -27 -7 -28 -7 -30 12 -31 11 -17 -20 -17 -21 -6 -57 -7 -57 -12 -52 -13 -53 66 -1 66 -2 49 3 50 2 23 15 22 15 6 18 6 19 -16 31 -16 31 6 19 6 18 36 17 36 17 50 -5 50 -6 18 -17 19 -17 0 -25 0 -26 -12 -33 -12 -34 10 -17 11 -17 34 -7 34 -8 100 6 100 6 0 132 0 131 -9 13 -8 14 -37 -5 -36 -5 -47 -7 -46 -7 -26 25 -26 26 0 46 0 47 30 30 30 30 18 -7 17 -7 26 -11 25 -10 28 7 27 7 15 34 14 34 0 106 0 105 -369 0 -369 0 -6 -107z" transform="translate(0.000000,74.000000) scale(0.100000,-0.100000)"/></clipPath><clipPath id="piece-mask-100-92" shape-rendering="crispEdges"><path d="M78 723 l-78 -4 0 -354 0 -355 368 -2 367 -3 2 0 2 1 7 109 6 110 14 22 14 22 44 -16 43 -16 23 21 22 21 9 43 8 43 -6 45 -6 45 -9 18 -9 17 -19 0 -20 0 -46 -12 -46 -13 -14 20 -15 20 3 110 3 110 -121 0 -121 0 -15 -12 -15 -13 15 -58 15 -57 -14 -30 -14 -29 -25 -13 -25 -13 -56 0 -56 0 -26 20 -25 20 -7 30 -7 30 17 56 16 56 -6 6 -5 6 -58 1 -57 2 -77 -4z" transform="translate(0.000000,73.000000) scale(0.100000,-0.100000)"/></clipPath><clipPath id="piece-mask-100-93" shape-rendering="crispEdges"><path d="M671 777 l-25 -12 2 -10 2 -10 11 -52 12 -53 -12 -39 -11 -40 -27 -20 -26 -21 -27 0 -27 0 -27 21 -26 20 0 20 0 20 15 35 15 36 -10 18 -10 19 -38 11 -37 10 -107 0 -108 0 0 -115 0 -116 -16 -24 -16 -25 -33 0 -32 0 -42 14 -41 15 -15 -15 -15 -15 0 -79 0 -78 18 -22 18 -23 22 12 21 11 24 0 25 0 11 -14 11 -14 20 -100 19 -101 11 -21 11 -20 118 0 118 0 30 10 30 11 14 25 13 25 -16 42 -15 42 9 25 9 25 16 17 16 18 23 0 22 0 26 -31 26 -31 6 -25 7 -24 -12 -12 -11 -11 0 -23 0 -22 18 -10 17 -9 120 -17 119 -16 7 -5 7 -4 22 57 22 58 10 54 10 54 -12 25 -11 25 -37 -7 -37 -7 -41 -6 -41 -5 -32 16 -32 17 -9 25 -10 25 0 39 0 39 12 26 11 25 24 6 24 6 37 -6 37 -6 27 -6 27 -6 7 36 6 37 -7 104 -7 105 -76 24 -77 23 -40 6 -40 6 -24 -12z" transform="translate(0.000000,79.000000) scale(0.100000,-0.100000)"/></clipPath><clipPath id="piece-mask-100-94" shape-rendering="crispEdges"><path d="M531 939 l-23 -9 6 -28 6 -27 6 -36 6 -36 -31 -32 -30 -31 -28 0 -28 1 -16 12 -16 12 -16 32 -17 32 0 31 0 31 11 21 11 21 -148 -8 -149 -7 -1 -2 -2 -1 -7 -146 -7 -145 66 4 67 4 43 -16 44 -17 17 -19 18 -19 -16 -25 -16 -24 -43 -20 -43 -21 -48 -7 -49 -7 -40 14 -40 13 -9 -15 -9 -14 0 -34 0 -33 30 -90 30 -89 0 -12 0 -12 124 3 125 3 31 -16 32 -17 -6 -29 -6 -29 -6 -28 -6 -27 22 -20 22 -20 75 2 76 2 9 9 10 10 -13 21 -14 21 16 15 16 16 79 20 79 21 40 21 40 22 2 0 2 0 -15 95 -15 95 6 43 6 43 16 6 16 6 18 -11 19 -12 28 0 28 0 24 17 25 17 12 16 12 15 1 48 0 48 -10 19 -10 18 -33 11 -33 11 -54 -10 -53 -10 -5 5 -5 4 12 127 12 126 -3 3 -3 3 -112 16 -112 16 -13 -1 -13 0 -24 -10z" transform="translate(0.000000,95.000000) scale(0.100000,-0.100000)"/></clipPath><clipPath id="piece-mask-100-95" shape-rendering="crispEdges"><path d="M691 991 l-15 -9 13 -57 13 -57 -7 -34 -6 -34 -26 -17 -26 -17 -52 1 -53 1 -26 17 -26 17 0 22 0 22 9 10 8 9 7 26 6 27 -19 23 -19 24 -119 3 -118 4 0 -117 0 -117 -20 -14 -20 -15 -25 5 -25 6 -51 6 -51 6 -21 -27 -22 -28 0 -48 0 -48 27 -21 28 -22 40 6 40 5 32 6 31 7 13 -23 12 -23 6 -131 6 -130 147 2 147 2 -7 -32 -7 -32 0 -73 0 -74 29 -25 30 -25 40 5 41 6 28 31 27 30 0 20 0 20 -12 20 -13 20 11 18 11 17 69 13 69 12 63 16 62 16 0 8 0 7 -22 49 -21 49 -13 50 -14 50 0 35 0 35 9 14 9 14 32 -12 33 -11 56 0 56 0 38 25 37 26 0 45 0 45 -24 24 -25 25 -29 -17 -30 -17 -25 11 -26 12 -18 28 -18 27 -5 101 -5 100 -50 13 -50 13 -80 5 -80 5 -14 -10z" transform="translate(0.000000,100.000000) scale(0.100000,-0.100000)"/></clipPath><clipPath id="piece-mask-100-96" shape-rendering="crispEdges"><path d="M238 821 l-3 -110 -21 -28 -21 -28 -24 -4 -24 -3 -53 13 -53 12 -16 -16 -16 -16 -4 -48 -5 -48 27 -28 28 -27 13 0 13 0 6 10 6 10 24 0 25 0 14 -22 14 -23 17 -85 17 -85 17 -40 18 -40 -4 -11 -4 -11 65 9 65 9 93 -3 93 -3 -4 -15 -3 -15 -5 -67 -6 -67 14 -14 14 -14 27 -6 27 -7 31 27 31 28 6 38 6 38 -13 24 -13 24 13 16 12 15 97 -1 96 0 48 -8 48 -8 -6 14 -5 15 0 354 0 354 -359 0 -359 0 -4 -109z" transform="translate(0.000000,93.000000) scale(0.100000,-0.100000)"/></clipPath><clipPath id="piece-mask-100-97" shape-rendering="crispEdges"><path d="M328 904 l-16 -19 -6 -25 -7 -25 14 -52 14 -52 -8 -13 -8 -13 -149 1 -149 1 -7 -129 -7 -130 4 -4 4 -5 49 11 49 11 32 -6 32 -6 16 -22 15 -21 0 -57 0 -56 -20 -18 -20 -18 -40 13 -41 13 -15 -14 -14 -15 -15 -119 -15 -119 0 -8 0 -8 364 0 364 0 6 48 7 47 1 75 2 75 -8 23 -8 24 -31 -5 -32 -6 -26 -6 -26 -7 -36 15 -35 15 -18 27 -17 26 17 35 16 35 37 15 37 16 30 -5 31 -6 26 -6 26 -7 7 18 7 18 -7 122 -7 121 -60 7 -60 6 -53 0 -53 0 -27 10 -27 10 7 38 6 37 6 30 5 30 -14 19 -14 20 -59 4 -59 4 -17 -18z" transform="translate(0.000000,92.000000) scale(0.100000,-0.100000)"/></clipPath><clipPath id="piece-mask-100-98" shape-rendering="crispEdges"><path d="M533 968 l-22 -10 -12 -30 -12 -29 7 -52 6 -52 3 -25 2 -25 -150 3 -150 3 3 -80 4 -81 -12 -54 -11 -54 -19 -17 -19 -17 -38 5 -38 5 -27 7 -27 7 -12 -26 -13 -27 10 -27 9 -27 40 -22 40 -23 37 0 37 0 6 10 6 10 25 0 24 0 11 -27 11 -28 -7 -62 -6 -62 -15 -53 -14 -53 0 -12 0 -13 90 0 91 0 34 14 33 14 18 26 17 26 -6 38 -6 37 -3 20 -3 20 46 9 46 9 37 -7 37 -7 21 -21 20 -20 -5 -42 -6 -41 -7 -42 -7 -43 29 -11 29 -11 100 12 100 12 12 1 13 0 20 55 21 55 15 71 14 71 11 28 11 27 19 0 18 0 6 -10 6 -10 19 0 19 0 31 29 31 28 -3 34 -3 33 -35 20 -34 20 -61 1 -60 0 -29 -8 -29 -8 7 145 7 146 -124 -7 -124 -6 -25 6 -26 7 -6 15 -6 16 16 40 16 40 -17 45 -17 44 -28 15 -29 15 -8 -1 -8 0 -22 -11z" transform="translate(0.000000,98.000000) scale(0.100000,-0.100000)"/></clipPath><clipPath id="piece-mask-100-99" shape-rendering="crispEdges"><path d="M288 1159 l-26 -10 -6 -16 -6 -15 15 -44 15 -45 0 -17 0 -17 -20 -25 -19 -25 -120 -4 -121 -3 0 -113 0 -113 19 -23 18 -23 38 1 37 1 11 11 11 11 23 0 24 0 24 -26 25 -27 0 -44 0 -44 -14 -27 -14 -27 -40 -23 -40 -22 -26 0 -26 0 -21 13 -20 12 -15 -20 -15 -20 3 -105 3 -105 127 -5 127 -5 18 -17 17 -18 -12 -45 -12 -45 0 -29 0 -28 18 -16 19 -17 46 0 46 0 20 26 21 27 12 39 12 40 -12 19 -12 19 0 15 0 15 27 11 27 10 118 -3 119 -3 15 50 15 50 11 80 10 80 -11 28 -11 27 -24 0 -25 0 -6 -10 -6 -10 -37 0 -37 0 -40 23 -40 22 -9 27 -10 27 13 27 12 26 27 -7 27 -7 38 -5 38 -5 19 17 19 17 11 51 11 52 -2 88 -2 87 -13 0 -14 0 0 8 0 7 -62 22 -63 22 -63 17 -64 17 -15 24 -16 24 18 19 17 19 -33 20 -34 21 -40 -1 -40 -1 -27 -9z" transform="translate(0.000000,117.000000) scale(0.100000,-0.100000)"/></clipPath><clipPath id="piece-mask-100-100" shape-rendering="crispEdges"><path d="M528 923 l-15 -18 -12 -22 -11 -22 0 -35 0 -35 12 -26 12 -26 -18 -17 -17 -17 -137 0 -137 0 -1 -120 0 -120 -2 -12 -2 -12 -32 10 -33 9 -43 0 -43 0 -24 -25 -25 -24 0 -54 0 -54 20 -26 20 -25 28 -7 28 -6 42 15 42 15 16 -25 17 -24 -8 -110 -7 -110 370 0 369 0 7 53 6 52 0 57 0 57 -10 25 -10 26 -28 0 -28 0 -11 -11 -11 -11 -36 12 -35 11 -26 30 -25 31 0 29 0 29 20 20 20 20 23 0 24 0 47 -14 48 -15 14 6 13 5 7 35 7 36 -7 103 -7 104 -5 15 -6 14 -56 21 -57 22 -68 15 -69 16 -26 22 -25 22 17 34 17 34 -22 18 -21 17 -38 0 -37 0 -15 -17z" transform="translate(0.000000,94.000000) scale(0.100000,-0.100000)"/></clipPath><clipPath id="piece-mask-100-101" shape-rendering="crispEdges"><path d="M335 941 l-100 -6 4 -117 3 -117 -7 -20 -6 -21 -19 -10 -18 -10 -42 15 -43 15 -23 0 -23 0 -28 -24 -28 -24 1 -48 1 -47 36 -34 37 -33 31 0 32 0 39 12 39 11 17 -17 17 -17 0 -57 0 -57 -8 -62 -9 -62 122 6 122 6 -11 -21 -11 -21 0 -33 0 -33 18 -34 17 -35 28 -20 27 -20 60 1 60 2 30 18 30 17 0 13 0 13 -12 19 -12 19 13 16 12 15 72 16 72 16 48 16 47 17 0 8 0 8 -8 0 -9 0 -11 24 -11 24 -16 78 -16 77 -10 18 -10 19 -14 0 -15 0 -20 -12 -20 -13 -18 11 -17 10 -17 35 -18 34 0 53 0 53 16 24 16 25 20 0 20 0 50 -17 50 -18 24 28 24 28 0 114 0 114 -37 -15 -36 -16 -88 -19 -87 -19 -27 -10 -27 -10 5 -23 4 -22 7 -16 7 -16 -18 -22 -18 -22 -42 -6 -42 -5 -25 27 -26 28 0 56 0 56 9 38 9 37 -47 -2 -46 -2 -100 -5z" transform="translate(0.000000,95.000000) scale(0.100000,-0.100000)"/></clipPath><clipPath id="piece-mask-100-102" shape-rendering="crispEdges"><path d="M534 1146 l-31 -14 -13 -32 -13 -32 17 -47 17 -47 -7 -18 -7 -18 -24 -9 -24 -9 -120 0 -120 0 2 -115 3 -115 -7 -6 -7 -7 -25 11 -26 12 -37 0 -38 0 -22 -16 -22 -15 -15 -29 -15 -29 0 -41 0 -42 29 -29 29 -29 17 0 16 0 34 15 35 14 14 -22 15 -22 6 -100 6 -100 4 -30 5 -30 79 3 78 3 43 -11 42 -11 24 -24 24 -24 0 -41 0 -40 -10 0 -10 0 0 -15 0 -15 26 -10 25 -10 47 0 48 0 22 16 22 15 0 15 0 14 -12 20 -13 20 15 15 15 14 99 21 100 20 38 12 38 11 0 132 0 133 15 12 16 13 24 -13 24 -13 45 5 46 6 35 26 35 27 6 25 6 24 -7 37 -7 36 -30 29 -30 28 -29 0 -29 0 -20 -12 -20 -13 -28 15 -27 16 -12 34 -12 35 0 74 -1 73 -17 -8 -18 -7 -65 -23 -65 -23 -57 -1 -57 0 -10 19 -10 18 9 34 10 34 0 63 0 64 -34 34 -34 34 -18 0 -19 -1 -31 -13z" transform="translate(0.000000,116.000000) scale(0.100000,-0.100000)"/></clipPath><clipPath id="piece-mask-100-103" shape-rendering="crispEdges"><path d="M574 945 l-21 -14 -13 -30 -12 -31 6 -32 7 -33 5 -26 6 -25 -18 -15 -17 -14 -140 3 -140 3 7 -126 8 -125 -34 8 -33 7 -73 0 -74 0 -19 -24 -19 -23 0 -58 0 -58 30 -26 31 -25 34 -7 35 -6 28 6 27 5 32 7 32 6 7 -27 7 -27 -6 -82 -7 -81 -6 -39 -7 -38 119 3 120 4 27 18 27 17 0 50 0 49 -11 25 -12 25 13 16 12 15 39 12 39 11 40 -12 40 -12 10 -18 10 -19 -17 -47 -16 -48 23 -17 24 -18 110 -17 110 -17 18 -9 18 -10 11 28 10 27 15 101 15 100 14 22 15 22 35 -14 34 -15 21 0 22 0 29 29 29 29 0 40 0 39 -21 26 -20 27 -39 11 -39 12 -40 -17 -41 -16 -20 20 -20 20 -1 8 -2 7 -6 110 -6 110 -13 -3 -13 -2 -95 -16 -94 -16 -35 6 -35 7 -6 24 -6 23 11 20 11 21 0 36 0 37 -16 34 -17 35 -21 14 -20 15 -16 0 -16 0 -20 -15z" transform="translate(0.000000,96.000000) scale(0.100000,-0.100000)"/></clipPath><clipPath id="piece-mask-100-104" shape-rendering="crispEdges"><path d="M471 929 l-33 -10 7 -22 7 -22 5 -51 5 -52 -21 -21 -21 -21 -73 0 -73 0 -20 14 -19 15 13 20 12 21 0 30 0 30 -20 20 -19 19 -28 8 -28 8 -80 0 -80 0 -3 -366 -2 -366 42 7 43 8 95 7 95 6 0 -81 0 -82 30 -24 30 -24 33 0 33 0 18 18 18 17 12 22 11 22 0 50 0 50 -10 27 -10 26 12 15 12 15 57 -6 57 -5 68 -26 69 -26 15 -5 16 -5 21 68 21 68 7 43 7 43 -12 30 -12 29 -24 0 -23 0 -6 -10 -6 -10 -37 0 -37 0 -41 19 -41 19 -17 23 -16 23 0 36 0 36 15 21 15 21 28 6 27 6 58 -15 59 -15 9 6 9 5 -1 82 -1 82 -6 55 -7 55 -55 6 -55 7 -60 5 -60 5 -34 -9z" transform="translate(0.000000,94.000000) scale(0.100000,-0.100000)"/></clipPath><clipPath id="piece-mask-100-105" shape-rendering="crispEdges"><path d="M540 1127 l-25 -13 2 -20 1 -19 12 -40 11 -40 -10 -27 -10 -27 -33 -17 -33 -18 -110 -5 -110 -6 3 -100 2 -100 5 -22 5 -22 -83 6 -83 6 -31 -16 -30 -16 -13 -31 -13 -30 6 -41 5 -41 18 -20 19 -20 30 5 30 4 16 7 16 7 15 -15 15 -15 17 -93 17 -93 11 -38 12 -39 162 7 163 8 -15 -42 -14 -42 10 -40 11 -39 25 -16 24 -17 46 6 45 5 5 5 5 5 -12 20 -13 20 12 15 13 15 92 22 92 23 45 20 45 21 12 16 12 15 21 59 20 60 0 57 0 58 -19 6 -19 6 -25 -12 -25 -12 -44 7 -43 7 -39 22 -39 22 -20 27 -20 27 13 31 13 31 36 18 36 18 33 6 33 7 35 -15 34 -14 10 20 11 19 -7 125 -7 125 -16 -4 -16 -5 -102 -11 -103 -11 -36 7 -36 7 -5 14 -6 14 13 58 12 59 -12 36 -12 36 -21 15 -21 15 -26 0 -25 0 -25 -13z" transform="translate(0.000000,114.000000) scale(0.100000,-0.100000)"/></clipPath><clipPath id="piece-mask-100-106" shape-rendering="crispEdges"><path d="M498 1159 l-17 -10 -6 -33 -7 -33 15 -59 15 -59 -5 -9 -6 -8 -131 3 -131 4 0 -116 0 -116 -13 -15 -12 -15 -58 13 -57 14 -28 -6 -27 -6 -9 -16 -8 -17 -6 -35 -6 -35 9 -40 9 -40 27 -22 27 -21 31 -6 31 -6 57 14 57 13 10 -10 11 -11 0 -42 0 -42 -19 -59 -19 -58 -7 -17 -7 -18 103 0 104 0 36 -10 36 -10 17 -19 17 -19 -15 -37 -16 -37 0 -25 0 -25 29 -29 29 -29 39 0 38 0 33 20 32 20 11 27 10 28 -15 39 -16 40 13 13 13 13 119 15 119 15 3 0 3 0 0 365 0 365 -117 0 -118 0 -25 13 -25 13 2 24 2 25 7 37 6 37 -30 31 -30 30 -59 0 -58 -1 -17 -10z" transform="translate(0.000000,117.000000) scale(0.100000,-0.100000)"/></clipPath><clipPath id="piece-mask-100-107" shape-rendering="crispEdges"><path d="M303 1164 l-25 -25 7 -32 7 -32 1 -40 2 -40 -35 -17 -35 -18 -112 0 -113 0 0 -109 0 -110 17 -16 16 -17 26 7 26 6 26 6 27 5 25 -17 25 -16 17 -41 16 -41 -6 -38 -7 -38 -20 -26 -19 -25 -19 0 -19 0 -6 10 -6 10 -18 0 -19 0 -15 -23 -14 -22 -13 -75 -13 -75 -13 -37 -13 -38 149 3 149 2 11 -11 10 -10 -15 -38 -16 -39 6 -37 6 -37 19 -31 19 -31 27 -7 26 -7 25 25 24 25 10 42 10 43 -7 36 -7 37 -9 18 -9 18 12 15 11 14 67 0 66 -1 70 -13 70 -14 4 3 3 4 -21 63 -21 63 -9 50 -9 50 5 28 5 28 18 9 18 10 38 -16 38 -16 43 7 44 6 37 16 36 15 13 17 12 16 0 25 1 25 -18 21 -17 22 -22 11 -21 11 -36 -15 -35 -15 -30 0 -31 0 -16 25 -16 24 1 116 1 115 -134 0 -135 0 -15 16 -16 15 0 10 0 10 15 30 16 30 -10 36 -10 36 -22 23 -22 24 -39 0 -39 0 -26 -26z" transform="translate(0.000000,119.000000) scale(0.100000,-0.100000)"/></clipPath><clipPath id="piece-mask-100-108" shape-rendering="crispEdges"><path d="M243 753 l-43 -4 0 -120 0 -120 -15 -28 -14 -29 -26 -6 -25 -6 -28 6 -27 7 -14 11 -13 10 -19 -23 -19 -23 0 -32 0 -32 15 -20 14 -21 30 -12 29 -13 32 17 32 16 14 -5 14 -5 10 -25 9 -25 2 -125 1 -126 134 0 135 0 6 16 6 15 -13 39 -13 38 7 26 7 27 32 20 32 20 42 -4 43 -5 25 -16 26 -17 9 -24 9 -24 -16 -46 -15 -47 15 -16 16 -15 60 0 60 1 58 7 58 6 -3 362 -3 361 -4 4 -4 5 -133 5 -133 5 -14 -17 -14 -17 13 -24 13 -24 -6 -38 -6 -38 -31 -28 -31 -27 -27 7 -27 6 -14 14 -14 14 6 67 5 67 3 15 4 15 -110 1 -110 1 -42 -4z" transform="translate(0.000000,76.000000) scale(0.100000,-0.100000)"/></clipPath><clipPath id="piece-mask-100-109" shape-rendering="crispEdges"><path d="M452 797 l-12 -15 10 -26 10 -27 0 -50 0 -50 -11 -22 -12 -22 -18 -17 -18 -18 -33 0 -33 0 -30 24 -30 24 0 82 0 81 -95 -6 -95 -7 -40 -7 -40 -7 -3 -360 -2 -361 127 -6 127 -6 5 4 4 4 -12 29 -12 30 10 40 11 41 31 25 31 26 24 6 24 6 44 -6 43 -7 19 -13 18 -14 -14 -27 -14 -26 10 -17 11 -17 74 -17 74 -18 45 -14 44 -15 8 12 8 12 16 54 17 55 1 53 1 54 -14 8 -13 8 -27 -13 -26 -13 -49 10 -48 9 -35 21 -34 21 -16 24 -16 24 6 46 5 45 23 25 23 24 36 11 36 11 39 -16 39 -17 15 16 16 16 -2 106 -2 106 -9 9 -10 10 -67 24 -67 25 -57 5 -57 6 -12 -15z" transform="translate(0.000000,81.000000) scale(0.100000,-0.100000)"/></clipPath><clipPath id="piece-mask-100-110" shape-rendering="crispEdges"><path d="M504 951 l-32 -19 -12 -36 -11 -35 16 -31 16 -31 -5 -17 -6 -17 -22 -15 -23 -14 -120 -6 -120 -5 1 -25 1 -25 8 -107 7 -108 -6 0 -5 0 -26 10 -26 10 -41 -9 -41 -9 -28 -32 -29 -31 0 -24 0 -24 10 -25 10 -26 24 -11 24 -11 46 15 46 16 16 -17 16 -16 -4 -115 -5 -116 -8 -18 -8 -19 136 4 135 3 21 19 21 19 0 33 0 33 -10 6 -10 6 0 18 0 18 18 16 17 15 27 7 27 7 18 -6 19 -6 17 -29 17 -29 0 -25 0 -26 -10 -6 -10 -6 0 -29 0 -28 31 -11 32 -11 52 0 52 0 77 7 78 6 -6 21 -5 21 -21 94 -20 94 -11 14 -11 13 -22 0 -22 0 -12 -12 -12 -12 -22 22 -22 21 -4 60 -4 59 18 26 19 25 32 11 32 11 30 -16 31 -16 19 10 19 10 5 33 5 33 -6 98 -5 99 -11 4 -11 4 -119 9 -119 9 -20 21 -21 20 12 26 12 26 0 25 0 26 -34 34 -34 34 -23 0 -24 0 -31 -19z" transform="translate(0.000000,97.000000) scale(0.100000,-0.100000)"/></clipPath><clipPath id="piece-mask-100-111" shape-rendering="crispEdges"><path d="M531 966 l-24 -13 -13 -24 -13 -24 -1 -21 0 -20 16 -48 16 -48 -16 -16 -17 -17 -127 2 -128 3 0 -125 1 -126 -15 -9 -15 -10 -15 6 -15 6 -38 11 -39 10 -33 -16 -34 -16 -12 -41 -12 -40 11 -39 12 -39 35 -16 35 -17 22 15 22 16 12 0 12 0 17 -26 16 -25 10 -92 9 -92 6 -34 7 -33 116 4 116 4 23 14 22 15 6 17 5 17 -16 31 -16 31 11 35 12 36 32 19 31 19 24 0 23 0 34 -34 34 -34 0 -26 0 -25 -12 -26 -12 -26 21 -20 20 -21 123 -10 122 -9 5 4 4 5 -17 108 -16 109 -10 37 -9 38 -23 6 -24 6 -20 -11 -21 -11 -20 0 -21 0 -15 24 -16 24 3 59 3 58 20 -4 20 -3 50 -5 50 -5 26 21 25 20 12 39 12 39 0 75 0 75 -5 5 -5 5 -72 -25 -73 -24 -67 -2 -67 -1 -11 11 -12 12 12 55 13 55 -5 56 -5 56 -23 25 -23 25 -31 0 -31 -1 -24 -13z" transform="translate(0.000000,98.000000) scale(0.100000,-0.100000)"/></clipPath></defs></svg>