<svg baseProfile="full" height="900" preserveAspectRatio="none" shape-rendering="geometricPrecision" version="1.1" viewBox="0,0,1200,900" width="1200" xmlns="http://www.w3.org/2000/svg" xmlns:ev="http://www.w3.org/2001/xml-events" xmlns:xlink="http://www.w3.org/1999/xlink"><title>Jigsaw puzzle piece clips</title><desc>Created with the piecemaker. Piece count: 12</desc><defs /><g><g><rect fill="white" height="900" width="1200" x="0" y="0" /></g></g><g><g><path d="M 0 0  L 300.000000 0  c 0.0,39.94663070140569 -15.0,128.8116440993828 61.78087660420986,107.81164409938279&#10;c 16.29455318680927,-18.0 29.803570309511706,0 29.803570309511706,42.18835590061721&#10;c 0,25.003028720508922 -16.593317668074445,43.00302872050892 -43.458546716091504,25.003028720508922&#10;c -39.0,-18.0 -24.0,63.0 -48.12590019763006,124.99697127949108 c 0.0,52.81818680194666 -15.0,139.1665712786829 43.89503977307206,118.1665712786829&#10;c 46.73125932910228,-18.0 48.847232863721715,0 48.847232863721715,31.833428721317105&#10;c 0,34.90245827999493 -13.482232553705341,52.90245827999493 -41.70924814183699,34.90245827999493&#10;c -39.0,-18.0 -24.0,63.0 -51.033024494956784,115.09754172000507 c -0.0,33.46657827475627 15.0,132.26724137803794 -52.652091596715,111.26724137803794&#10;c -29.126551629668104,-18.0 -29.558938958803502,0 -29.558938958803502,38.73275862196206&#10;c 0,31.82516194409476 23.076550855067605,49.82516194409476 51.63567705249465,31.82516194409476&#10;c 39.0,-18.0 24.0,63.0 30.575353503023855,118.17483805590524 L 0 900 " fill="none" stroke="black" stroke-width="0.1" style="vector-effect:non-scaling-stroke;" /></g><g><path d="M 0 0  L 600.000000 0  c -0.0,37.461596463858875 15.0,135.88931930121973 -36.93646621450048,114.88931930121973&#10;c -55.5907602202015,-18.0 -64.09899736044204,0 -64.09899736044204,35.11068069878027&#10;c 0,31.041804087069636 18.65394080056583,49.041804087069636 71.31468668610871,31.041804087069636&#10;c 39.0,-18.0 24.0,63.0 29.72077688883381,118.95819591293036 c 0.0,75.90770068443587 -15.0,139.73725079624313 27.57111065196826,118.73725079624313&#10;c 68.66228243209717,-18.0 70.37826953092258,0 70.37826953092258,31.26274920375687&#10;c 0,28.66252819513474 -69.79975352280341,46.66252819513474 -82.04593279179868,28.66252819513474&#10;c -39.0,-18.0 -24.0,63.0 -15.903447391092172,121.33747180486526 c -0.0,80.39316227762701 15.0,143.3998527069593 -30.366858271707326,122.39985270695931&#10;c -26.73306525881698,-18.0 -46.29813523550409,0 -46.29813523550409,27.600147293040692&#10;c 0,42.02735849628738 7.434045714720222,60.02735849628738 17.834547977315545,42.02735849628738&#10;c 39.0,-18.0 24.0,63.0 58.830445529895876,107.97264150371262 L 0 900 " fill="none" stroke="black" stroke-width="0.1" style="vector-effect:non-scaling-stroke;" /></g><g><path d="M 0 0  L 900.000000 0  c 0.0,39.77683287537756 -15.0,126.9206757228809 44.89901838322195,105.9206757228809&#10;c 13.217732661933361,-18.0 51.479904461277194,0 51.479904461277194,44.0793242771191&#10;c 0,45.766533850783304 -90.1418592739354,63.766533850783304 -89.87501804593234,45.766533850783304&#10;c -39.0,-18.0 -24.0,63.0 -6.503904798566808,104.2334661492167 c 0.0,15.696694431753944 -15.0,143.0638036377413 28.354035962372613,122.06380363774129&#10;c 16.1525489455217,-18.0 72.39763119133417,0 72.39763119133417,27.936196362258713&#10;c 0,29.447491381135904 -15.657359475065327,47.447491381135904 -38.00298369849443,29.447491381135904&#10;c -39.0,-18.0 -24.0,63.0 -62.74868345521236,120.5525086188641 c -0.0,25.576921529409002 15.0,133.61850183190336 -41.22216471266857,112.61850183190334&#10;c -8.98802423172029,-18.0 -32.26661153009613,0 -32.26661153009613,37.381498168096655&#10;c 0,40.592500105802515 21.164443409655,58.592500105802515 28.652011097886543,40.592500105802515&#10;c 39.0,-18.0 24.0,63.0 44.83676514487816,109.40749989419749 L 0 900 " fill="none" stroke="black" stroke-width="0.1" style="vector-effect:non-scaling-stroke;" /></g></g><g><g><path d="M 0 0  L 0 300.000000  c 32.37036888169278,0.0 127.99211734395752,-15.0 106.99211734395752,53.0668089594062&#10;c -18.0,33.157841839096946 0,33.477086251721275 43.00788265604248,33.477086251721275&#10;c 25.54250309021245,0 43.54250309021245,-38.505396100375506 25.54250309021245,-82.2124299243718&#10;c -18.0,-39.0 63.0,-24.0 124.45749690978755,-4.331465286755673 c 38.17253095185079,0.0 128.47834947475155,-15.0 107.47834947475154,55.73154589584351&#10;c -18.0,15.128682761520718 0,30.87851790203902 42.52165052524846,30.87851790203902&#10;c 28.082004606139208,0 46.08200460613921,-30.049223092181997 28.082004606139208,-35.275059625078555&#10;c -18.0,-39.0 63.0,-24.0 121.91799539386079,-51.33500417280398 c 73.82124262300258,-0.0 139.33607460491186,15.0 118.33607460491186,-46.47947668094753&#10;c -18.0,-42.24572443591879 0,-54.84683743756591 31.663925395088143,-54.84683743756591&#10;c 34.362285555040415,0 52.362285555040415,34.99106928032726 34.362285555040415,106.2503415559097&#10;c -18.0,39.0 63.0,24.0 115.63771444495958,-4.924027437396262 c 75.61379871137525,0.0 125.48264762177826,-15.0 104.48264762177826,37.510989805209284&#10;c -18.0,10.272020546075826 0,48.148375718192135 45.517352378221744,48.148375718192135&#10;c 28.242580943971063,0 46.24258094397106,-15.211578061247101 28.242580943971063,-51.8432215667148&#10;c -18.0,-39.0 63.0,-24.0 121.75741905602894,-33.816143956686616 L 1200 0 " fill="none" stroke="black" stroke-width="0.1" style="vector-effect:non-scaling-stroke;" /></g><g><path d="M 0 0  L 0 600.000000  c 37.30705885064653,0.0 149.8165491935528,-15.0 128.8165491935528,21.70260215142959&#10;c -18.0,21.632017436241227 0,78.76767271913823 21.183450806447212,78.76767271913823&#10;c 26.587782058570866,0 44.587782058570866,-94.40579453817324 26.587782058570866,-100.13207287847096&#10;c -18.0,-39.0 63.0,-24.0 123.41221794142913,-0.338201992096856 c 27.85838927962187,-0.0 135.46122824739862,15.0 114.46122824739861,-47.47260475428808&#10;c -18.0,-18.715324788285553 0,-41.157579289731565 35.53877175260139,-41.157579289731565&#10;c 25.80654977011946,0 43.80654977011946,32.952605298549884 25.80654977011946,63.98597768063122&#10;c -18.0,39.0 63.0,24.0 124.19345022988054,24.64420636338842 c 85.43687459639152,-0.0 129.42372185250883,15.0 108.42372185250883,-49.207316012865824&#10;c -18.0,-12.688731062186712 0,-31.595033313080883 41.576278147491166,-31.595033313080883&#10;c 44.17850798644716,0 62.17850798644716,40.813084698729895 44.17850798644716,68.32773587284511&#10;c -18.0,39.0 63.0,24.0 105.82149201355284,12.474613453101597 c 23.583659394815207,0.0 144.01567618016625,-15.0 123.01567618016624,31.561186227420116&#10;c -18.0,62.667689660381406 0,66.7757876711508 26.98432381983376,66.7757876711508&#10;c 35.410594809098484,0 53.410594809098484,-29.384207157526056 35.410594809098484,-67.07929364254116&#10;c -18.0,-39.0 63.0,-24.0 114.58940519090152,-31.257680256029744 L 1200 0 " fill="none" stroke="black" stroke-width="0.1" style="vector-effect:non-scaling-stroke;" /></g></g></svg>