<?xml version="1.0" standalone="no"?>
<!DOCTYPE svg PUBLIC "-//W3C//DTD SVG 20010904//EN"
 "http://www.w3.org/TR/2001/REC-SVG-20010904/DTD/svg10.dtd">
<svg version="1.0" xmlns="http://www.w3.org/2000/svg"
 width="95.000000pt" height="99.000000pt" viewBox="0 0 95.000000 99.000000"
 preserveAspectRatio="xMidYMid meet">
<metadata>
Created by potrace 1.16, written by Peter Selinger 2001-2019
</metadata>
<g transform="translate(0.000000,99.000000) scale(0.100000,-0.100000)"
fill="#000000" stroke="none">
<path d="M2 618 l3 -373 119 -2 119 -2 25 -6 24 -6 -6 -27 -7 -27 -6 -69 -6
-69 24 -18 24 -19 52 0 52 0 23 11 23 10 25 36 25 36 3 68 4 68 -11 31 -10 31
22 8 22 8 50 -12 50 -12 39 -16 38 -17 23 0 23 0 16 41 17 41 15 72 14 71 11
28 11 27 9 0 9 0 0 -10 0 -10 24 0 25 0 15 22 16 22 0 67 0 67 -17 13 -16 14
-85 -2 -84 -1 6 111 7 112 5 28 6 27 -386 0 -386 0 2 -372z"/>
</g>
</svg>
