<?xml version="1.0" standalone="no"?>
<!DOCTYPE svg PUBLIC "-//W3C//DTD SVG 20010904//EN"
 "http://www.w3.org/TR/2001/REC-SVG-20010904/DTD/svg10.dtd">
<svg version="1.0" xmlns="http://www.w3.org/2000/svg"
 width="93.000000pt" height="97.000000pt" viewBox="0 0 93.000000 97.000000"
 preserveAspectRatio="xMidYMid meet">
<metadata>
Created by potrace 1.16, written by Peter Selinger 2001-2019
</metadata>
<g transform="translate(0.000000,97.000000) scale(0.100000,-0.100000)"
fill="#000000" stroke="none">
<path d="M2 608 l3 -363 95 -1 95 -2 37 -1 37 -1 14 -15 15 -15 -14 -46 -14
-47 0 -42 0 -43 25 -16 24 -16 40 0 40 0 23 11 23 10 25 35 24 36 4 58 4 58
-12 37 -12 37 11 11 12 12 42 -2 43 -1 59 -22 60 -22 21 -5 21 -5 17 42 17 42
15 72 14 71 11 28 11 27 19 0 19 0 0 -10 0 -10 15 0 15 0 15 24 16 24 -3 58
-3 59 -29 14 -30 14 -70 -11 -71 -11 -1 2 -1 2 11 143 12 142 -373 0 -373 0 2
-362z"/>
</g>
</svg>
