<?xml version="1.0" standalone="no"?>
<!DOCTYPE svg PUBLIC "-//W3C//DTD SVG 20010904//EN"
 "http://www.w3.org/TR/2001/REC-SVG-20010904/DTD/svg10.dtd">
<svg version="1.0" xmlns="http://www.w3.org/2000/svg"
 width="120.000000pt" height="76.000000pt" viewBox="0 0 120.000000 76.000000"
 preserveAspectRatio="xMidYMid meet">
<metadata>
Created by potrace 1.16, written by Peter Selinger 2001-2019
</metadata>
<g transform="translate(0.000000,76.000000) scale(0.100000,-0.100000)"
fill="#000000" stroke="none">
<path d="M220 666 l0 -93 -11 -32 -11 -31 -18 -10 -18 -10 -45 17 -46 17 -25
-12 -25 -11 -12 -43 -11 -43 5 -49 4 -50 23 -18 22 -18 52 0 51 0 35 10 35 10
13 -17 12 -17 0 -42 0 -43 -15 -72 -16 -73 5 -13 5 -13 111 0 111 0 33 14 34
14 6 30 7 29 -15 44 -15 44 15 23 15 23 27 10 26 10 23 -10 22 -10 17 -25 16
-26 -5 -32 -5 -33 -7 -40 -7 -41 28 -14 27 -15 126 3 125 2 18 6 17 5 10 52
10 52 6 50 7 50 9 18 10 17 39 -6 39 -6 26 6 26 7 19 42 20 42 0 37 0 36 -30
26 -30 25 -46 7 -45 6 -50 -4 -49 -5 4 16 5 16 7 128 6 127 -376 0 -376 0 0
-94z"/>
</g>
</svg>
