<?xml version="1.0" standalone="no"?>
<!DOCTYPE svg PUBLIC "-//W3C//DTD SVG 20010904//EN"
 "http://www.w3.org/TR/2001/REC-SVG-20010904/DTD/svg10.dtd">
<svg version="1.0" xmlns="http://www.w3.org/2000/svg"
 width="118.000000pt" height="74.000000pt" viewBox="0 0 118.000000 74.000000"
 preserveAspectRatio="xMidYMid meet">
<metadata>
Created by potrace 1.16, written by Peter Selinger 2001-2019
</metadata>
<g transform="translate(0.000000,74.000000) scale(0.100000,-0.100000)"
fill="#000000" stroke="none">
<path d="M220 645 l0 -96 -14 -33 -14 -34 -22 -7 -22 -7 -43 17 -44 16 -20
-11 -20 -10 -12 -42 -11 -43 5 -40 6 -40 21 -17 22 -18 40 0 39 0 46 12 46 11
13 -18 14 -19 0 -55 -1 -56 -14 -65 -13 -64 4 -8 5 -8 98 0 98 0 32 11 32 11
9 24 9 24 -16 49 -16 50 17 26 17 26 25 9 25 10 20 0 21 0 30 -30 30 -31 -5
-52 -6 -52 -6 -25 -6 -25 23 -15 23 -14 119 2 120 2 17 5 18 6 10 52 10 52 6
53 7 52 16 20 17 20 31 -11 30 -12 28 7 27 7 19 42 20 42 0 27 0 26 -30 26
-30 25 -46 7 -45 6 -50 -6 -51 -7 6 38 5 38 7 108 6 107 -366 0 -366 0 0 -95z"/>
</g>
</svg>
