<?xml version="1.0" standalone="no"?>
<!DOCTYPE svg PUBLIC "-//W3C//DTD SVG 20010904//EN"
 "http://www.w3.org/TR/2001/REC-SVG-20010904/DTD/svg10.dtd">
<svg version="1.0" xmlns="http://www.w3.org/2000/svg"
 width="97.000000pt" height="111.000000pt" viewBox="0 0 97.000000 111.000000"
 preserveAspectRatio="xMidYMid meet">
<metadata>
Created by potrace 1.16, written by Peter Selinger 2001-2019
</metadata>
<g transform="translate(0.000000,111.000000) scale(0.100000,-0.100000)"
fill="#000000" stroke="none">
<path d="M563 1100 l-22 -9 -11 -22 -12 -22 5 -46 4 -46 4 -15 4 -15 -73 -3
-74 -3 -91 10 -91 10 -2 -2 -2 -2 10 -95 10 -96 -11 -42 -12 -42 -19 10 -19
10 -46 0 -46 0 -24 -16 -24 -15 -10 -31 -11 -31 0 -26 0 -26 20 -32 19 -32 30
-16 31 -15 44 -6 44 -7 33 12 33 11 8 -12 9 -13 -7 -45 -6 -45 -24 -64 -24
-63 0 -8 0 -7 109 -5 109 -6 39 -18 38 -19 12 -25 12 -25 -14 -22 -15 -22 0
-15 0 -15 19 -11 20 -10 70 0 71 0 21 21 21 21 -5 21 -4 22 -7 17 -8 16 20 11
20 11 100 15 99 15 15 5 15 6 -5 127 -4 127 -10 19 -10 18 -29 -6 -29 -6 -28
-6 -27 -6 -20 22 -19 21 -3 57 -4 57 20 25 19 24 49 -17 48 -17 12 0 12 0 15
16 16 15 0 135 0 134 -12 0 -11 0 -61 -24 -61 -24 -40 -6 -40 -7 -19 14 -19
14 13 37 12 37 -6 34 -7 34 -25 30 -25 30 -37 11 -37 10 -5 -1 -5 0 -22 -9z"/>
</g>
</svg>
