<?xml version="1.0" standalone="no"?>
<!DOCTYPE svg PUBLIC "-//W3C//DTD SVG 20010904//EN"
 "http://www.w3.org/TR/2001/REC-SVG-20010904/DTD/svg10.dtd">
<svg version="1.0" xmlns="http://www.w3.org/2000/svg"
 width="93.000000pt" height="76.000000pt" viewBox="0 0 93.000000 76.000000"
 preserveAspectRatio="xMidYMid meet">
<metadata>
Created by potrace 1.16, written by Peter Selinger 2001-2019
</metadata>
<g transform="translate(0.000000,76.000000) scale(0.100000,-0.100000)"
fill="#000000" stroke="none">
<path d="M243 753 l-43 -4 0 -120 0 -120 -15 -28 -14 -29 -26 -6 -25 -6 -28 6
-27 7 -14 11 -13 10 -19 -23 -19 -23 0 -32 0 -32 15 -20 14 -21 30 -12 29 -13
32 17 32 16 14 -5 14 -5 10 -25 9 -25 2 -125 1 -126 134 0 135 0 6 16 6 15
-13 39 -13 38 7 26 7 27 32 20 32 20 42 -4 43 -5 25 -16 26 -17 9 -24 9 -24
-16 -46 -15 -47 15 -16 16 -15 60 0 60 1 58 7 58 6 -3 362 -3 361 -4 4 -4 5
-133 5 -133 5 -14 -17 -14 -17 13 -24 13 -24 -6 -38 -6 -38 -31 -28 -31 -27
-27 7 -27 6 -14 14 -14 14 6 67 5 67 3 15 4 15 -110 1 -110 1 -42 -4z"/>
</g>
</svg>
