<?xml version="1.0" standalone="no"?>
<!DOCTYPE svg PUBLIC "-//W3C//DTD SVG 20010904//EN"
 "http://www.w3.org/TR/2001/REC-SVG-20010904/DTD/svg10.dtd">
<svg version="1.0" xmlns="http://www.w3.org/2000/svg"
 width="117.000000pt" height="111.000000pt" viewBox="0 0 117.000000 111.000000"
 preserveAspectRatio="xMidYMid meet">
<metadata>
Created by potrace 1.16, written by Peter Selinger 2001-2019
</metadata>
<g transform="translate(0.000000,111.000000) scale(0.100000,-0.100000)"
fill="#000000" stroke="none">
<path d="M526 1097 l-19 -14 12 -22 12 -22 -3 -31 -3 -31 -28 -21 -28 -21
-125 -3 -124 -4 0 -117 0 -117 -15 -21 -15 -22 -37 15 -36 16 -33 -7 -33 -6
-25 -30 -26 -31 0 -29 0 -30 24 -24 24 -24 34 -6 34 -6 62 14 63 15 15 -24 15
-23 -6 -48 -7 -48 -19 -77 -19 -76 0 -9 0 -8 109 0 109 0 22 -20 22 -20 -7
-30 -6 -30 -6 -37 -5 -36 31 -16 30 -16 48 0 48 1 16 12 16 12 11 22 12 22 0
39 0 39 -12 33 -11 33 19 14 19 15 75 -6 75 -7 62 -13 61 -13 25 46 25 46 22
89 21 90 10 18 10 18 17 0 18 0 11 -11 11 -11 21 11 21 12 0 50 0 50 -10 20
-11 19 -29 0 -29 0 -6 -10 -6 -10 -27 0 -28 0 -21 15 -22 16 -11 37 -10 37 0
91 0 92 -13 10 -12 11 -119 15 -119 16 -14 12 -15 12 5 25 5 26 7 22 7 23 -27
10 -26 10 -48 0 -47 0 -18 -13z"/>
</g>
</svg>
