<?xml version="1.0" standalone="no"?>
<!DOCTYPE svg PUBLIC "-//W3C//DTD SVG 20010904//EN"
 "http://www.w3.org/TR/2001/REC-SVG-20010904/DTD/svg10.dtd">
<svg version="1.0" xmlns="http://www.w3.org/2000/svg"
 width="81.000000pt" height="100.000000pt" viewBox="0 0 81.000000 100.000000"
 preserveAspectRatio="xMidYMid meet">
<metadata>
Created by potrace 1.16, written by Peter Selinger 2001-2019
</metadata>
<g transform="translate(0.000000,100.000000) scale(0.100000,-0.100000)"
fill="#000000" stroke="none">
<path d="M501 990 l-24 -10 9 -38 8 -37 0 -61 1 -61 -25 -36 -25 -36 -23 -10
-23 -11 -30 0 -30 0 -24 16 -25 16 0 33 0 32 15 49 15 49 -6 17 -5 18 -22 5
-22 5 -45 2 -45 2 -87 -2 -88 -2 0 -372 0 -373 93 0 92 -1 32 -17 33 -17 6
-27 7 -26 -12 -18 -11 -19 0 -20 0 -19 19 -11 20 -10 80 0 81 0 20 20 20 20 0
49 0 50 -10 25 -9 25 34 10 33 9 84 -9 83 -9 33 -5 32 -6 0 18 0 18 19 51 20
52 7 50 6 51 -6 27 -7 26 -42 -7 -42 -8 -37 1 -38 0 -32 19 -32 19 -19 32 -19
32 12 34 11 34 26 17 25 17 32 -6 31 -5 32 -7 32 -6 11 43 12 44 -7 103 -7
103 -21 14 -22 13 -45 15 -45 15 -45 6 -45 6 -24 -10z"/>
</g>
</svg>
