<?xml version="1.0" standalone="no"?>
<!DOCTYPE svg PUBLIC "-//W3C//DTD SVG 20010904//EN"
 "http://www.w3.org/TR/2001/REC-SVG-20010904/DTD/svg10.dtd">
<svg version="1.0" xmlns="http://www.w3.org/2000/svg"
 width="98.000000pt" height="105.000000pt" viewBox="0 0 98.000000 105.000000"
 preserveAspectRatio="xMidYMid meet">
<metadata>
Created by potrace 1.16, written by Peter Selinger 2001-2019
</metadata>
<g transform="translate(0.000000,105.000000) scale(0.100000,-0.100000)"
fill="#000000" stroke="none">
<path d="M334 1031 l-31 -19 -14 -33 -14 -34 0 -45 0 -45 8 -29 8 -28 -140 7
-139 7 -7 -85 -7 -85 7 -50 7 -50 19 -18 19 -17 42 17 43 16 25 -18 25 -19 9
-31 9 -31 -18 -27 -17 -26 -26 7 -27 6 -27 6 -26 5 -16 -23 -15 -24 -11 -149
-10 -149 2 -2 3 -1 121 5 122 6 21 19 21 19 0 68 0 67 50 7 50 7 37 -19 38
-18 18 -38 19 -37 -11 -32 -11 -31 0 -34 0 -33 26 -12 25 -12 65 11 64 11 57
27 58 28 1 131 1 132 12 23 13 23 16 -8 17 -7 42 -5 42 -4 26 27 25 28 0 42 0
42 -11 33 -12 32 -56 -5 -56 -4 -17 -7 -17 -8 -18 28 -18 28 1 109 1 110 -131
-7 -131 -7 -29 11 -28 10 6 25 6 25 6 25 6 25 -6 35 -7 34 -25 31 -26 30 -26
0 -27 0 -31 -19z"/>
</g>
</svg>
