<?xml version="1.0" standalone="no"?>
<!DOCTYPE svg PUBLIC "-//W3C//DTD SVG 20010904//EN"
 "http://www.w3.org/TR/2001/REC-SVG-20010904/DTD/svg10.dtd">
<svg version="1.0" xmlns="http://www.w3.org/2000/svg"
 width="81.000000pt" height="83.000000pt" viewBox="0 0 81.000000 83.000000"
 preserveAspectRatio="xMidYMid meet">
<metadata>
Created by potrace 1.16, written by Peter Selinger 2001-2019
</metadata>
<g transform="translate(0.000000,83.000000) scale(0.100000,-0.100000)"
fill="#000000" stroke="none">
<path d="M490 815 l-13 -16 11 -50 12 -51 0 -34 0 -35 -14 -32 -13 -33 -26
-17 -26 -17 -28 0 -29 0 -22 16 -23 16 -9 23 -8 22 16 47 17 46 -28 27 -27 28
-134 3 -134 4 -7 -142 -7 -141 5 -6 6 -5 32 11 32 11 37 0 37 0 26 -20 26 -21
6 -33 7 -33 -11 -40 -11 -41 -27 -17 -26 -18 -32 12 -31 11 -17 0 -16 0 -12
-21 -11 -21 -8 -117 -8 -116 2 -2 2 -2 152 -7 152 -7 0 14 0 14 -15 43 -15 43
6 27 7 27 14 27 13 28 31 16 31 16 24 -23 23 -22 12 -34 11 -34 -12 -28 -11
-29 3 -33 3 -34 36 -9 35 -9 125 8 126 7 21 91 22 92 6 55 6 55 -18 23 -19 23
-72 -17 -72 -16 -38 18 -38 19 -9 28 -10 27 20 28 21 27 27 13 28 14 46 -17
45 -18 19 23 18 22 0 129 0 129 -37 19 -38 19 -54 16 -55 16 -37 0 -37 0 -12
-15z"/>
</g>
</svg>
