<?xml version="1.0" standalone="no"?>
<!DOCTYPE svg PUBLIC "-//W3C//DTD SVG 20010904//EN"
 "http://www.w3.org/TR/2001/REC-SVG-20010904/DTD/svg10.dtd">
<svg version="1.0" xmlns="http://www.w3.org/2000/svg"
 width="79.000000pt" height="81.000000pt" viewBox="0 0 79.000000 81.000000"
 preserveAspectRatio="xMidYMid meet">
<metadata>
Created by potrace 1.16, written by Peter Selinger 2001-2019
</metadata>
<g transform="translate(0.000000,81.000000) scale(0.100000,-0.100000)"
fill="#000000" stroke="none">
<path d="M491 796 l-12 -15 10 -38 11 -38 0 -48 0 -48 -14 -32 -13 -33 -26
-17 -26 -17 -39 0 -39 0 -26 20 -25 20 -7 28 -6 28 16 38 17 39 -26 26 -26 26
-125 4 -125 3 0 -38 0 -39 -7 -98 -6 -98 27 11 27 10 48 0 48 0 26 -20 25 -20
7 -31 7 -31 -7 -45 -7 -45 -26 -25 -27 -25 -30 5 -30 5 -22 7 -21 7 -12 -23
-12 -22 -7 -106 -7 -106 1 -2 1 -2 143 -7 144 -7 -8 19 -7 19 -10 36 -10 36
12 43 11 42 24 24 23 23 27 7 26 6 25 -23 24 -23 12 -38 11 -38 -12 -38 -13
-39 3 -18 4 -18 28 -10 29 -9 122 7 123 7 21 91 21 92 6 43 7 43 -16 23 -15
24 -63 -15 -62 -14 -34 6 -34 6 -24 24 -24 24 0 30 0 29 26 31 25 30 33 6 33
7 36 -16 37 -15 15 22 15 21 0 118 0 118 -37 19 -38 19 -54 16 -55 16 -27 0
-27 0 -11 -14z"/>
</g>
</svg>
