<?xml version="1.0" standalone="no"?>
<!DOCTYPE svg PUBLIC "-//W3C//DTD SVG 20010904//EN"
 "http://www.w3.org/TR/2001/REC-SVG-20010904/DTD/svg10.dtd">
<svg version="1.0" xmlns="http://www.w3.org/2000/svg"
 width="78.000000pt" height="96.000000pt" viewBox="0 0 78.000000 96.000000"
 preserveAspectRatio="xMidYMid meet">
<metadata>
Created by potrace 1.16, written by Peter Selinger 2001-2019
</metadata>
<g transform="translate(0.000000,96.000000) scale(0.100000,-0.100000)"
fill="#000000" stroke="none">
<path d="M483 953 l-22 -4 -11 -14 -12 -14 16 -63 15 -63 -8 -35 -9 -35 -7
-18 -7 -18 -19 -9 -18 -10 -25 11 -25 12 -17 35 -16 35 7 56 7 56 1 25 2 25
-25 4 -25 3 -132 -7 -132 -7 -5 -61 -5 -62 -6 -65 -5 -66 13 -18 13 -18 53 18
53 17 27 -9 26 -9 18 -38 19 -37 -7 -42 -7 -41 -25 -25 -24 -24 -22 7 -22 7
-32 5 -31 5 -15 -24 -15 -23 -4 -116 -3 -117 112 -4 113 -3 21 -21 21 -21 -17
-32 -16 -32 3 -22 3 -21 25 -13 25 -13 73 0 74 0 29 29 29 29 0 37 0 36 -11
21 -11 20 10 10 10 10 44 2 43 1 83 -9 82 -8 0 21 0 21 -11 18 -10 17 -27 95
-27 95 -27 3 -27 3 -19 -10 -18 -10 -11 7 -12 7 -10 28 -11 28 0 53 0 53 18
16 19 17 23 0 24 0 59 -12 59 -12 15 19 15 20 -5 129 -5 128 -12 8 -12 8 -72
10 -71 11 -50 4 -50 5 -22 -5z"/>
</g>
</svg>
