<?xml version="1.0" standalone="no"?>
<!DOCTYPE svg PUBLIC "-//W3C//DTD SVG 20010904//EN"
 "http://www.w3.org/TR/2001/REC-SVG-20010904/DTD/svg10.dtd">
<svg version="1.0" xmlns="http://www.w3.org/2000/svg"
 width="76.000000pt" height="94.000000pt" viewBox="0 0 76.000000 94.000000"
 preserveAspectRatio="xMidYMid meet">
<metadata>
Created by potrace 1.16, written by Peter Selinger 2001-2019
</metadata>
<g transform="translate(0.000000,94.000000) scale(0.100000,-0.100000)"
fill="#000000" stroke="none">
<path d="M483 933 l-22 -4 -9 -12 -10 -12 14 -55 15 -55 -7 -40 -6 -40 -14
-27 -14 -27 -21 -6 -20 -7 -29 12 -29 12 -17 36 -16 35 5 61 6 61 3 20 3 20
-145 -3 -144 -3 -3 -3 -4 -3 -8 -114 -8 -114 8 -16 9 -17 37 14 38 13 30 1 31
0 21 -15 21 -15 12 -36 12 -35 -7 -46 -7 -46 -23 -23 -24 -24 -17 0 -18 0 -33
12 -33 12 -18 -17 -17 -18 -5 -113 -5 -114 112 -4 113 -3 22 -23 22 -22 -13
-32 -13 -33 -2 -19 -1 -20 25 -13 25 -13 63 0 64 0 30 30 30 31 -6 37 -7 37
-2 24 -2 24 30 9 30 9 98 -11 99 -11 5 5 6 5 -16 33 -15 33 -22 83 -23 84 -14
5 -14 6 -26 -12 -25 -12 -18 6 -18 6 -11 31 -11 31 0 62 0 62 18 16 19 17 37
0 37 0 46 -12 46 -11 14 19 15 19 -5 119 -5 119 -13 7 -12 8 -81 11 -81 12
-30 3 -30 3 -22 -4z"/>
</g>
</svg>
