<?xml version="1.0" standalone="no"?>
<!DOCTYPE svg PUBLIC "-//W3C//DTD SVG 20010904//EN"
 "http://www.w3.org/TR/2001/REC-SVG-20010904/DTD/svg10.dtd">
<svg version="1.0" xmlns="http://www.w3.org/2000/svg"
 width="95.000000pt" height="77.000000pt" viewBox="0 0 95.000000 77.000000"
 preserveAspectRatio="xMidYMid meet">
<metadata>
Created by potrace 1.16, written by Peter Selinger 2001-2019
</metadata>
<g transform="translate(0.000000,77.000000) scale(0.100000,-0.100000)"
fill="#000000" stroke="none">
<path d="M512 760 l-22 -10 -7 -16 -6 -17 11 -18 12 -19 0 -20 0 -21 -15 -30
-16 -30 -32 -19 -32 -20 -33 0 -33 0 -31 16 -30 16 7 31 6 32 2 34 2 34 -28
21 -28 21 -120 3 -119 4 0 -109 0 -108 10 -37 11 -37 22 -16 21 -15 38 0 37 0
6 10 6 10 19 0 19 0 11 -20 11 -21 -3 -42 -3 -42 -47 3 -46 4 -11 -19 -10 -19
-21 -90 -22 -89 -24 -44 -24 -44 0 -14 0 -15 130 4 129 4 28 20 28 21 9 31 9
31 -15 45 -15 45 14 6 15 5 43 0 43 0 14 -5 13 -5 -3 -38 -4 -39 24 -14 23
-15 70 -19 70 -18 43 -19 44 -18 19 0 19 0 0 104 0 104 18 22 18 23 22 -12 21
-11 31 0 31 0 24 24 23 23 7 47 7 46 -7 36 -6 36 -24 24 -24 24 -38 0 -38 0
-34 -10 -35 -10 -5 5 -5 5 2 53 2 52 6 71 6 71 -33 6 -34 6 -75 6 -75 5 -23
-10z"/>
</g>
</svg>
