<?xml version="1.0" standalone="no"?>
<!DOCTYPE svg PUBLIC "-//W3C//DTD SVG 20010904//EN"
 "http://www.w3.org/TR/2001/REC-SVG-20010904/DTD/svg10.dtd">
<svg version="1.0" xmlns="http://www.w3.org/2000/svg"
 width="95.000000pt" height="98.000000pt" viewBox="0 0 95.000000 98.000000"
 preserveAspectRatio="xMidYMid meet">
<metadata>
Created by potrace 1.16, written by Peter Selinger 2001-2019
</metadata>
<g transform="translate(0.000000,98.000000) scale(0.100000,-0.100000)"
fill="#000000" stroke="none">
<path d="M713 974 l-22 -5 -10 -13 -11 -13 15 -29 15 -29 -6 -30 -6 -30 -20
-28 -20 -27 -27 -14 -26 -14 -45 8 -44 8 -19 23 -19 23 5 31 5 30 10 33 11 33
-20 20 -19 19 -121 0 -120 0 5 -17 5 -18 7 -134 7 -134 -29 7 -29 6 -60 6 -60
5 -33 -20 -32 -21 0 -31 0 -30 10 -20 11 -19 39 -20 39 -20 40 0 41 0 45 12
46 12 9 -14 10 -15 0 -45 0 -45 -14 -46 -14 -47 -16 -30 -16 -31 0 -6 0 -5
113 -1 112 0 35 -12 35 -12 -2 -30 -2 -30 -7 -57 -6 -57 27 -25 28 -26 31 0
31 0 33 20 32 20 11 28 11 27 -6 40 -6 40 -6 32 -6 31 36 11 37 10 89 -6 90
-6 0 11 0 11 -11 28 -10 28 -20 95 -19 95 -6 17 -5 16 -16 6 -16 7 -11 -11
-10 -10 -17 0 -17 0 -6 16 -6 16 0 58 0 59 10 26 10 27 33 -5 32 -6 31 -6 32
-7 16 23 16 23 0 103 0 103 -33 0 -34 0 -74 4 -74 5 -22 -5z"/>
</g>
</svg>
