<?xml version="1.0" standalone="no"?>
<!DOCTYPE svg PUBLIC "-//W3C//DTD SVG 20010904//EN"
 "http://www.w3.org/TR/2001/REC-SVG-20010904/DTD/svg10.dtd">
<svg version="1.0" xmlns="http://www.w3.org/2000/svg"
 width="79.000000pt" height="80.000000pt" viewBox="0 0 79.000000 80.000000"
 preserveAspectRatio="xMidYMid meet">
<metadata>
Created by potrace 1.16, written by Peter Selinger 2001-2019
</metadata>
<g transform="translate(0.000000,80.000000) scale(0.100000,-0.100000)"
fill="#000000" stroke="none">
<path d="M29 798 l-2 -3 -12 -140 -12 -140 1 -2 1 -2 71 11 70 11 30 -14 29
-14 3 -59 3 -58 -16 -24 -15 -24 -15 0 -15 0 0 10 0 10 -19 0 -19 0 -11 -27
-11 -28 -15 -74 -15 -74 -19 -43 -19 -42 101 -7 102 -7 55 4 55 3 -2 20 -2 20
-7 45 -6 45 19 24 20 24 33 -1 34 -1 25 -19 26 -18 18 -37 19 -37 -13 -51 -13
-51 19 -14 19 -14 21 0 21 0 57 15 58 15 44 24 45 23 -5 4 -4 4 14 65 14 65 1
56 0 55 -14 19 -13 18 -46 -11 -46 -12 -39 0 -40 0 -22 18 -21 17 -6 40 -5 40
11 43 12 42 20 10 20 11 44 -16 43 -17 22 7 22 7 14 34 14 33 0 96 0 95 -365
0 -365 0 -1 -2z"/>
</g>
</svg>
