<?xml version="1.0" standalone="no"?>
<!DOCTYPE svg PUBLIC "-//W3C//DTD SVG 20010904//EN"
 "http://www.w3.org/TR/2001/REC-SVG-20010904/DTD/svg10.dtd">
<svg version="1.0" xmlns="http://www.w3.org/2000/svg"
 width="96.000000pt" height="93.000000pt" viewBox="0 0 96.000000 93.000000"
 preserveAspectRatio="xMidYMid meet">
<metadata>
Created by potrace 1.16, written by Peter Selinger 2001-2019
</metadata>
<g transform="translate(0.000000,93.000000) scale(0.100000,-0.100000)"
fill="#000000" stroke="none">
<path d="M489 901 l-29 -29 0 -17 0 -16 15 -36 16 -37 -23 -18 -23 -18 -30 -2
-30 -2 -89 3 -88 3 7 -120 7 -120 -7 -32 -7 -32 -32 6 -31 6 -51 6 -51 7 -22
-22 -21 -21 0 -39 0 -39 26 -31 25 -31 41 -12 40 -12 19 12 19 12 15 0 15 0
11 -27 11 -28 -7 -108 -6 -107 370 0 371 0 0 114 0 115 -10 26 -10 27 -28 -6
-27 -5 -31 -7 -32 -6 -16 23 -16 23 0 52 0 52 6 16 6 15 25 -10 26 -10 34 12
33 11 22 41 21 42 5 103 5 102 -141 -2 -141 -3 -17 17 -18 17 12 26 12 26 0
44 0 44 -22 15 -22 16 -54 0 -54 0 -29 -29z"/>
</g>
</svg>
