<?xml version="1.0" standalone="no"?>
<!DOCTYPE svg PUBLIC "-//W3C//DTD SVG 20010904//EN"
 "http://www.w3.org/TR/2001/REC-SVG-20010904/DTD/svg10.dtd">
<svg version="1.0" xmlns="http://www.w3.org/2000/svg"
 width="94.000000pt" height="91.000000pt" viewBox="0 0 94.000000 91.000000"
 preserveAspectRatio="xMidYMid meet">
<metadata>
Created by potrace 1.16, written by Peter Selinger 2001-2019
</metadata>
<g transform="translate(0.000000,91.000000) scale(0.100000,-0.100000)"
fill="#000000" stroke="none">
<path d="M502 894 l-22 -15 -10 -19 -10 -18 18 -47 17 -46 -24 -19 -25 -18
-40 -5 -41 -6 -78 6 -79 6 7 -115 8 -116 -7 -35 -7 -35 -13 -5 -14 -6 -48 15
-47 14 -24 0 -23 0 -20 -20 -20 -20 0 -29 0 -29 25 -31 26 -30 35 -11 36 -12
11 11 11 11 28 0 28 0 11 -27 11 -28 -6 -107 -6 -108 360 0 360 0 0 104 0 105
-10 26 -10 27 -23 -7 -22 -7 -36 -5 -37 -5 -16 23 -16 23 0 66 0 66 15 20 15
19 7 -12 8 -11 15 -3 15 -3 27 7 28 7 21 43 22 42 5 92 5 93 -140 -3 -140 -2
-17 14 -18 15 7 30 6 31 6 41 5 42 -23 16 -23 16 -41 0 -41 0 -22 -16z"/>
</g>
</svg>
