<?xml version="1.0" standalone="no"?>
<!DOCTYPE svg PUBLIC "-//W3C//DTD SVG 20010904//EN"
 "http://www.w3.org/TR/2001/REC-SVG-20010904/DTD/svg10.dtd">
<svg version="1.0" xmlns="http://www.w3.org/2000/svg"
 width="82.000000pt" height="89.000000pt" viewBox="0 0 82.000000 89.000000"
 preserveAspectRatio="xMidYMid meet">
<metadata>
Created by potrace 1.16, written by Peter Selinger 2001-2019
</metadata>
<g transform="translate(0.000000,89.000000) scale(0.100000,-0.100000)"
fill="#000000" stroke="none">
<path d="M300 877 l-25 -13 1 -20 1 -19 14 -47 13 -48 -12 -12 -13 -13 -120 3
-119 2 -10 -25 -10 -26 0 -87 0 -88 16 -22 15 -22 23 0 24 0 34 15 35 14 18
-13 19 -13 4 -60 4 -60 -31 -36 -32 -36 -30 -6 -31 -7 -11 11 -11 11 -23 0
-22 0 -11 -19 -10 -20 0 -47 0 -47 11 -64 11 -63 373 0 372 0 16 49 16 49 11
58 12 59 -11 28 -11 28 -23 -8 -22 -8 -68 0 -69 0 -30 34 -30 34 5 45 5 44 26
25 27 25 25 -17 26 -17 25 7 24 6 19 42 20 42 0 93 0 93 -33 14 -33 14 -90 16
-89 17 -22 14 -23 14 0 23 0 23 12 12 11 11 -27 11 -27 10 -57 0 -57 0 -25
-13z"/>
</g>
</svg>
