<?xml version="1.0" standalone="no"?>
<!DOCTYPE svg PUBLIC "-//W3C//DTD SVG 20010904//EN"
 "http://www.w3.org/TR/2001/REC-SVG-20010904/DTD/svg10.dtd">
<svg version="1.0" xmlns="http://www.w3.org/2000/svg"
 width="92.000000pt" height="74.000000pt" viewBox="0 0 92.000000 74.000000"
 preserveAspectRatio="xMidYMid meet">
<metadata>
Created by potrace 1.16, written by Peter Selinger 2001-2019
</metadata>
<g transform="translate(0.000000,74.000000) scale(0.100000,-0.100000)"
fill="#000000" stroke="none">
<path d="M622 727 l-13 -16 9 -18 9 -18 7 -37 7 -36 -10 -42 -9 -42 -23 -24
-22 -24 -19 0 -19 0 -24 24 -24 24 -11 43 -12 43 13 41 13 40 1 9 0 10 -30 8
-30 9 -123 -7 -124 -7 6 -31 5 -31 7 -119 7 -119 -11 7 -11 6 -46 9 -47 9 -34
-9 -33 -10 -16 -22 -15 -21 0 -29 0 -29 15 -33 16 -32 24 -11 24 -11 35 14 35
15 15 -6 15 -6 12 -36 12 -36 -6 -88 -6 -88 360 0 359 0 0 13 0 12 -14 99 -14
99 -15 14 -15 15 -20 -11 -21 -11 -24 0 -24 0 -14 27 -14 26 1 73 1 73 13 17
14 16 30 -7 31 -6 24 -2 23 -2 22 28 21 28 3 104 4 103 -54 12 -53 12 -90 5
-90 5 -13 -15z"/>
</g>
</svg>
