<?xml version="1.0" standalone="no"?>
<!DOCTYPE svg PUBLIC "-//W3C//DTD SVG 20010904//EN"
 "http://www.w3.org/TR/2001/REC-SVG-20010904/DTD/svg10.dtd">
<svg version="1.0" xmlns="http://www.w3.org/2000/svg"
 width="95.000000pt" height="75.000000pt" viewBox="0 0 95.000000 75.000000"
 preserveAspectRatio="xMidYMid meet">
<metadata>
Created by potrace 1.16, written by Peter Selinger 2001-2019
</metadata>
<g transform="translate(0.000000,75.000000) scale(0.100000,-0.100000)"
fill="#000000" stroke="none">
<path d="M78 743 l-78 -4 0 -364 0 -364 378 -3 377 -3 2 1 2 0 7 112 7 112 12
17 13 17 26 -12 27 -12 20 0 20 0 21 19 20 20 9 47 9 48 -6 51 -7 50 -9 18 -9
17 -33 0 -33 0 -33 -12 -33 -11 -14 19 -15 19 4 110 3 111 -132 -1 -132 0 -16
-16 -16 -16 16 -56 16 -57 -13 -27 -13 -27 -25 -13 -25 -13 -45 0 -46 0 -22
16 -23 16 -10 25 -9 24 17 64 17 64 -8 8 -7 7 -67 2 -67 1 -77 -4z"/>
</g>
</svg>
