<?xml version="1.0" standalone="no"?>
<!DOCTYPE svg PUBLIC "-//W3C//DTD SVG 20010904//EN"
 "http://www.w3.org/TR/2001/REC-SVG-20010904/DTD/svg10.dtd">
<svg version="1.0" xmlns="http://www.w3.org/2000/svg"
 width="93.000000pt" height="73.000000pt" viewBox="0 0 93.000000 73.000000"
 preserveAspectRatio="xMidYMid meet">
<metadata>
Created by potrace 1.16, written by Peter Selinger 2001-2019
</metadata>
<g transform="translate(0.000000,73.000000) scale(0.100000,-0.100000)"
fill="#000000" stroke="none">
<path d="M78 723 l-78 -4 0 -354 0 -355 368 -2 367 -3 2 0 2 1 7 109 6 110 14
22 14 22 44 -16 43 -16 23 21 22 21 9 43 8 43 -6 45 -6 45 -9 18 -9 17 -19 0
-20 0 -46 -12 -46 -13 -14 20 -15 20 3 110 3 110 -121 0 -121 0 -15 -12 -15
-13 15 -58 15 -57 -14 -30 -14 -29 -25 -13 -25 -13 -56 0 -56 0 -26 20 -25 20
-7 30 -7 30 17 56 16 56 -6 6 -5 6 -58 1 -57 2 -77 -4z"/>
</g>
</svg>
