<?xml version="1.0" standalone="no"?>
<!DOCTYPE svg PUBLIC "-//W3C//DTD SVG 20010904//EN"
 "http://www.w3.org/TR/2001/REC-SVG-20010904/DTD/svg10.dtd">
<svg version="1.0" xmlns="http://www.w3.org/2000/svg"
 width="94.000000pt" height="93.000000pt" viewBox="0 0 94.000000 93.000000"
 preserveAspectRatio="xMidYMid meet">
<metadata>
Created by potrace 1.16, written by Peter Selinger 2001-2019
</metadata>
<g transform="translate(0.000000,93.000000) scale(0.100000,-0.100000)"
fill="#000000" stroke="none">
<path d="M503 919 l-22 -12 -6 -15 -6 -15 11 -7 11 -7 1 -46 1 -47 -14 -16
-14 -17 -32 -14 -32 -13 -105 0 -104 0 -4 -104 -3 -105 -21 -28 -22 -28 -23 2
-24 2 -31 6 -30 7 -14 -16 -13 -17 -1 -73 -1 -73 14 -26 14 -27 24 0 24 0 21
11 20 11 15 -15 15 -14 14 -99 14 -99 0 -12 0 -13 374 0 373 0 7 77 6 76 0 36
0 37 -15 21 -15 22 -42 -15 -42 -15 -28 6 -28 7 -20 25 -20 26 0 54 0 54 25
24 24 25 43 0 43 0 32 -9 32 -9 5 13 4 13 -5 116 -6 116 -8 0 -8 0 -58 -15
-57 -15 -52 0 -52 0 -16 6 -16 6 0 20 0 21 12 38 11 39 -11 38 -12 38 -24 23
-25 23 -43 4 -43 4 -22 -11z"/>
</g>
</svg>
