<?xml version="1.0" standalone="no"?>
<!DOCTYPE svg PUBLIC "-//W3C//DTD SVG 20010904//EN"
 "http://www.w3.org/TR/2001/REC-SVG-20010904/DTD/svg10.dtd">
<svg version="1.0" xmlns="http://www.w3.org/2000/svg"
 width="97.000000pt" height="93.000000pt" viewBox="0 0 97.000000 93.000000"
 preserveAspectRatio="xMidYMid meet">
<metadata>
Created by potrace 1.16, written by Peter Selinger 2001-2019
</metadata>
<g transform="translate(0.000000,93.000000) scale(0.100000,-0.100000)"
fill="#000000" stroke="none">
<path d="M320 921 l-25 -7 3 -20 3 -19 6 -37 6 -38 -17 -26 -18 -26 -35 -14
-36 -15 -93 3 -94 3 -5 -15 -4 -15 -7 -139 -7 -139 24 7 24 6 56 6 57 7 36 -7
36 -7 16 -24 16 -25 -6 -25 -7 -26 -32 -19 -32 -20 -37 0 -37 0 -6 10 -6 10
-19 0 -20 0 -15 -23 -15 -24 -8 -126 -7 -127 372 -2 372 -3 3 127 3 127 16 17
17 16 25 -17 26 -17 36 12 35 12 26 34 27 34 -9 33 -9 32 -39 19 -38 19 -34
-17 -35 -16 -14 0 -14 0 -13 23 -12 22 2 118 2 119 -5 7 -4 8 -83 -14 -83 -14
-43 4 -44 5 -11 11 -11 11 13 65 13 65 -6 26 -7 25 -34 15 -34 14 -38 -1 -38
-1 -25 -7z"/>
</g>
</svg>
