<?xml version="1.0" standalone="no"?>
<!DOCTYPE svg PUBLIC "-//W3C//DTD SVG 20010904//EN"
 "http://www.w3.org/TR/2001/REC-SVG-20010904/DTD/svg10.dtd">
<svg version="1.0" xmlns="http://www.w3.org/2000/svg"
 width="122.000000pt" height="93.000000pt" viewBox="0 0 122.000000 93.000000"
 preserveAspectRatio="xMidYMid meet">
<metadata>
Created by potrace 1.16, written by Peter Selinger 2001-2019
</metadata>
<g transform="translate(0.000000,93.000000) scale(0.100000,-0.100000)"
fill="#000000" stroke="none">
<path d="M530 923 l-15 -6 -17 -15 -18 -15 0 -28 0 -28 10 -6 10 -6 0 -23 0
-23 -21 -19 -21 -19 -129 -3 -129 -4 0 -89 0 -89 -16 -40 -16 -41 -19 -10 -19
-10 -22 16 -22 15 -14 0 -13 0 -26 -24 -26 -25 -5 -54 -4 -54 30 -34 30 -34
96 0 95 0 5 -20 5 -21 -20 -80 -20 -79 -6 -27 -5 -28 380 0 381 0 5 18 5 17
12 110 11 110 9 16 8 16 54 -5 54 -4 30 16 31 16 17 16 17 17 -7 56 -7 56 -14
22 -14 22 -34 6 -34 7 -58 -17 -57 -16 -16 16 -16 16 3 110 2 111 -129 -7
-129 -7 -36 12 -36 12 0 18 0 19 10 6 10 6 0 37 0 38 -17 24 -17 25 -10 7 -11
8 -30 -1 -30 -1 -15 -5z"/>
</g>
</svg>
