<?xml version="1.0" standalone="no"?>
<!DOCTYPE svg PUBLIC "-//W3C//DTD SVG 20010904//EN"
 "http://www.w3.org/TR/2001/REC-SVG-20010904/DTD/svg10.dtd">
<svg version="1.0" xmlns="http://www.w3.org/2000/svg"
 width="120.000000pt" height="91.000000pt" viewBox="0 0 120.000000 91.000000"
 preserveAspectRatio="xMidYMid meet">
<metadata>
Created by potrace 1.16, written by Peter Selinger 2001-2019
</metadata>
<g transform="translate(0.000000,91.000000) scale(0.100000,-0.100000)"
fill="#000000" stroke="none">
<path d="M521 897 l-24 -12 -11 -17 -11 -18 13 -20 12 -20 0 -28 0 -29 -21
-19 -21 -19 -129 -3 -129 -4 0 -91 0 -92 -20 -42 -19 -42 -24 -6 -25 -7 -26
17 -25 17 -27 -25 -26 -25 -5 -44 -5 -45 30 -34 30 -34 69 0 68 0 22 8 23 8
11 -28 11 -28 -20 -85 -20 -85 -7 -22 -7 -23 370 0 371 0 5 18 5 17 11 110 12
110 14 23 14 22 10 0 9 0 6 -10 6 -10 37 0 37 0 35 21 35 22 7 11 8 11 -6 45
-7 45 -9 18 -9 18 -27 10 -27 10 -67 -17 -68 -18 -18 17 -17 18 2 110 3 110
-129 -7 -128 -7 -36 12 -37 13 0 28 0 29 10 6 10 6 0 27 0 28 -17 24 -17 25
-10 7 -11 8 -20 0 -20 0 -24 -13z"/>
</g>
</svg>
