<?xml version="1.0" standalone="no"?>
<!DOCTYPE svg PUBLIC "-//W3C//DTD SVG 20010904//EN"
 "http://www.w3.org/TR/2001/REC-SVG-20010904/DTD/svg10.dtd">
<svg version="1.0" xmlns="http://www.w3.org/2000/svg"
 width="101.000000pt" height="120.000000pt" viewBox="0 0 101.000000 120.000000"
 preserveAspectRatio="xMidYMid meet">
<metadata>
Created by potrace 1.16, written by Peter Selinger 2001-2019
</metadata>
<g transform="translate(0.000000,120.000000) scale(0.100000,-0.100000)"
fill="#000000" stroke="none">
<path d="M371 1192 l-24 -7 -11 -17 -10 -17 15 -48 16 -49 -8 -21 -7 -20 -19
-9 -18 -8 -125 -6 -125 -5 -3 -116 -3 -116 19 -23 19 -23 39 15 39 15 34 -8
34 -7 28 -29 28 -28 6 -26 6 -26 -33 -35 -33 -36 -56 -11 -56 -12 -47 16 -47
16 -16 -13 -15 -12 4 -76 5 -75 24 -60 24 -60 140 -5 140 -5 11 -7 11 -7 -14
-53 -14 -53 4 -45 5 -44 22 -18 22 -18 55 0 55 0 29 29 29 29 0 56 0 55 -9 25
-10 24 16 14 16 13 119 -1 118 -1 5 21 4 21 4 86 5 86 11 22 12 21 19 -10 19
-10 34 0 34 0 26 24 25 24 7 46 7 47 -5 37 -6 37 -27 24 -27 23 -74 -4 -73 -3
3 124 2 125 -32 22 -33 22 -72 17 -73 18 -37 14 -38 15 0 18 0 19 10 6 10 6 0
14 0 14 -19 10 -19 11 -53 4 -54 5 -24 -7z"/>
</g>
</svg>
