<?xml version="1.0" standalone="no"?>
<!DOCTYPE svg PUBLIC "-//W3C//DTD SVG 20010904//EN"
 "http://www.w3.org/TR/2001/REC-SVG-20010904/DTD/svg10.dtd">
<svg version="1.0" xmlns="http://www.w3.org/2000/svg"
 width="99.000000pt" height="118.000000pt" viewBox="0 0 99.000000 118.000000"
 preserveAspectRatio="xMidYMid meet">
<metadata>
Created by potrace 1.16, written by Peter Selinger 2001-2019
</metadata>
<g transform="translate(0.000000,118.000000) scale(0.100000,-0.100000)"
fill="#000000" stroke="none">
<path d="M373 1173 l-22 -4 -11 -14 -12 -14 16 -49 17 -49 -10 -25 -9 -25 -19
-9 -18 -8 -125 -6 -125 -5 -3 -104 -3 -103 16 -24 15 -23 35 15 35 14 41 -9
41 -9 29 -28 29 -28 6 -32 6 -33 -22 -32 -23 -31 -31 -13 -31 -13 -45 -7 -45
-7 -42 15 -43 15 -11 -14 -12 -14 5 -63 5 -62 24 -60 24 -60 142 -5 142 -5 11
-11 10 -10 -16 -63 -16 -63 7 -34 6 -33 22 -16 21 -15 44 0 44 0 29 29 29 29
0 45 0 44 -11 32 -12 33 17 16 17 17 120 0 120 0 4 20 4 20 4 86 5 86 12 22
12 23 21 -7 22 -7 30 -5 30 -5 27 25 26 25 7 45 7 45 -7 31 -7 31 -25 20 -26
20 -48 0 -48 0 -26 -10 -27 -10 4 132 3 132 -32 22 -33 22 -72 17 -73 18 -37
14 -38 15 0 27 0 27 11 11 11 11 -18 10 -19 10 -45 5 -45 5 -22 -5z"/>
</g>
</svg>
