<?xml version="1.0" standalone="no"?>
<!DOCTYPE svg PUBLIC "-//W3C//DTD SVG 20010904//EN"
 "http://www.w3.org/TR/2001/REC-SVG-20010904/DTD/svg10.dtd">
<svg version="1.0" xmlns="http://www.w3.org/2000/svg"
 width="80.000000pt" height="98.000000pt" viewBox="0 0 80.000000 98.000000"
 preserveAspectRatio="xMidYMid meet">
<metadata>
Created by potrace 1.16, written by Peter Selinger 2001-2019
</metadata>
<g transform="translate(0.000000,98.000000) scale(0.100000,-0.100000)"
fill="#000000" stroke="none">
<path d="M7 916 l-6 -65 9 -55 9 -55 11 -20 11 -21 24 -6 25 -6 31 11 32 11
27 0 28 0 6 -16 6 -16 0 -57 0 -58 -21 -27 -20 -26 -29 0 -29 0 -27 12 -26 12
-18 -22 -18 -22 -7 -87 -7 -88 -1 -30 -2 -30 140 0 140 0 -3 -20 -3 -20 -6
-61 -5 -61 16 -35 17 -36 29 -12 29 -12 20 7 21 6 14 27 14 27 6 40 7 40 -15
55 -15 55 15 15 14 14 56 -1 56 -2 71 -11 72 -12 16 -9 17 -9 10 28 11 27 16
55 16 55 5 70 6 70 -15 20 -15 20 -44 -16 -44 -17 -50 9 -49 8 -33 11 -32 12
-10 19 -10 19 6 27 7 28 15 18 15 17 25 0 26 0 58 -12 58 -12 18 17 17 18 0
122 0 122 -366 3 -366 2 -6 -64z"/>
</g>
</svg>
