<?xml version="1.0" standalone="no"?>
<!DOCTYPE svg PUBLIC "-//W3C//DTD SVG 20010904//EN"
 "http://www.w3.org/TR/2001/REC-SVG-20010904/DTD/svg10.dtd">
<svg version="1.0" xmlns="http://www.w3.org/2000/svg"
 width="93.000000pt" height="73.000000pt" viewBox="0 0 93.000000 73.000000"
 preserveAspectRatio="xMidYMid meet">
<metadata>
Created by potrace 1.16, written by Peter Selinger 2001-2019
</metadata>
<g transform="translate(0.000000,73.000000) scale(0.100000,-0.100000)"
fill="#000000" stroke="none">
<path d="M0 614 l0 -115 10 -20 11 -19 26 0 26 0 39 12 39 11 11 -11 11 -11 7
-46 7 -46 -7 -40 -8 -40 -20 -19 -20 -19 -42 16 -43 17 -18 -23 -19 -23 0 -43
0 -42 -6 -76 -7 -77 373 0 373 0 -7 43 -6 42 -6 70 -6 70 15 20 15 19 25 -13
25 -14 35 7 35 7 31 35 31 35 0 54 0 54 -9 24 -9 24 -18 7 -18 7 -49 -18 -49
-18 -20 25 -21 25 6 113 5 114 -21 -6 -22 -6 -105 -16 -105 -16 -22 -14 -23
-14 0 -20 0 -19 10 -6 10 -6 0 -14 0 -14 -30 -16 -29 -15 -44 0 -45 0 -12 15
-13 16 12 25 11 25 0 34 0 34 -22 15 -22 16 -138 0 -138 0 0 -116z"/>
</g>
</svg>
