<?xml version="1.0" standalone="no"?>
<!DOCTYPE svg PUBLIC "-//W3C//DTD SVG 20010904//EN"
 "http://www.w3.org/TR/2001/REC-SVG-20010904/DTD/svg10.dtd">
<svg version="1.0" xmlns="http://www.w3.org/2000/svg"
 width="119.000000pt" height="71.000000pt" viewBox="0 0 119.000000 71.000000"
 preserveAspectRatio="xMidYMid meet">
<metadata>
Created by potrace 1.16, written by Peter Selinger 2001-2019
</metadata>
<g transform="translate(0.000000,71.000000) scale(0.100000,-0.100000)"
fill="#000000" stroke="none">
<path d="M224 583 l6 -128 -9 -15 -10 -14 -34 12 -33 12 -23 0 -22 0 -34 -14
-35 -15 -16 -35 -17 -35 17 -26 18 -27 35 -15 36 -15 26 7 26 6 32 6 31 5 8
-24 8 -23 -2 -75 -1 -75 -7 -48 -6 -47 364 2 363 3 7 124 8 124 15 23 15 24
20 0 19 0 6 -10 6 -10 37 0 37 0 32 20 32 19 7 26 6 25 -16 25 -16 24 -36 7
-36 7 -57 -7 -56 -6 -24 -6 -23 -7 7 152 7 151 -115 0 -116 0 -25 -10 -26 -10
0 -15 0 -15 12 -19 12 -19 -12 -40 -12 -39 -21 -27 -20 -26 -48 0 -48 0 -16
18 -17 19 0 26 0 27 12 46 13 46 -24 19 -23 19 -126 0 -125 0 7 -127z"/>
</g>
</svg>
