<?xml version="1.0" standalone="no"?>
<!DOCTYPE svg PUBLIC "-//W3C//DTD SVG 20010904//EN"
 "http://www.w3.org/TR/2001/REC-SVG-20010904/DTD/svg10.dtd">
<svg version="1.0" xmlns="http://www.w3.org/2000/svg"
 width="121.000000pt" height="73.000000pt" viewBox="0 0 121.000000 73.000000"
 preserveAspectRatio="xMidYMid meet">
<metadata>
Created by potrace 1.16, written by Peter Selinger 2001-2019
</metadata>
<g transform="translate(0.000000,73.000000) scale(0.100000,-0.100000)"
fill="#000000" stroke="none">
<path d="M223 603 l7 -128 -9 -14 -8 -13 -21 11 -21 11 -36 0 -36 0 -34 -14
-35 -15 -17 -36 -17 -35 10 -27 9 -26 28 -21 28 -21 47 1 47 1 27 8 26 7 8
-24 7 -23 -1 -55 -1 -55 -7 -68 -6 -67 373 2 374 3 2 45 3 45 6 83 6 82 18 23
19 22 12 -12 13 -13 46 0 45 0 32 20 32 19 7 27 7 27 -9 26 -9 26 -25 12 -25
13 -60 0 -60 0 -38 -9 -38 -9 7 149 7 149 -126 0 -126 0 -25 -10 -26 -10 0
-28 0 -28 11 -11 11 -11 -11 -35 -12 -36 -20 -25 -20 -26 -38 0 -38 0 -18 20
-17 19 6 33 6 33 6 41 6 41 -23 17 -23 16 -135 0 -134 0 6 -127z"/>
</g>
</svg>
