<?xml version="1.0" standalone="no"?>
<!DOCTYPE svg PUBLIC "-//W3C//DTD SVG 20010904//EN"
 "http://www.w3.org/TR/2001/REC-SVG-20010904/DTD/svg10.dtd">
<svg version="1.0" xmlns="http://www.w3.org/2000/svg"
 width="82.000000pt" height="115.000000pt" viewBox="0 0 82.000000 115.000000"
 preserveAspectRatio="xMidYMid meet">
<metadata>
Created by potrace 1.16, written by Peter Selinger 2001-2019
</metadata>
<g transform="translate(0.000000,115.000000) scale(0.100000,-0.100000)"
fill="#000000" stroke="none">
<path d="M362 1134 l-32 -17 -6 -24 -7 -25 17 -34 16 -35 -26 -24 -27 -25
-118 0 -119 0 0 -115 0 -116 14 -34 15 -34 26 -7 26 -7 25 12 25 11 15 0 15 0
15 -36 15 -37 -12 -28 -11 -29 -34 -21 -33 -20 -30 -9 -29 -8 -28 14 -27 14
-18 -5 -17 -6 -6 -25 -7 -26 7 -47 7 -46 13 -39 14 -39 0 -28 0 -29 118 0 117
0 34 -10 35 -10 8 -12 8 -13 0 -27 0 -27 -10 -6 -10 -6 0 -29 0 -29 26 -20 27
-21 43 0 43 0 33 30 33 31 -2 67 -2 67 -3 25 -3 25 43 3 42 3 86 -21 85 -22
16 6 15 6 -7 23 -6 22 -19 123 -19 124 -17 19 -17 19 -18 0 -18 0 -25 -12 -26
-11 -20 18 -21 19 3 35 3 36 30 -2 30 -3 41 -2 42 -3 21 19 21 19 10 36 10 36
0 107 0 108 -125 -3 -124 -2 -17 17 -18 17 12 26 12 26 0 38 0 38 -20 18 -19
17 -63 5 -63 4 -33 -17z"/>
</g>
</svg>
