<?xml version="1.0" standalone="no"?>
<!DOCTYPE svg PUBLIC "-//W3C//DTD SVG 20010904//EN"
 "http://www.w3.org/TR/2001/REC-SVG-20010904/DTD/svg10.dtd">
<svg version="1.0" xmlns="http://www.w3.org/2000/svg"
 width="100.000000pt" height="75.000000pt" viewBox="0 0 100.000000 75.000000"
 preserveAspectRatio="xMidYMid meet">
<metadata>
Created by potrace 1.16, written by Peter Selinger 2001-2019
</metadata>
<g transform="translate(0.000000,75.000000) scale(0.100000,-0.100000)"
fill="#000000" stroke="none">
<path d="M245 625 l0 -124 -17 -17 -16 -17 -46 12 -45 11 -39 0 -39 0 -16 -17
-15 -18 -7 -36 -7 -37 11 -20 11 -20 47 -15 48 -15 43 -6 42 -6 37 15 38 16
13 -18 14 -18 -6 -60 -6 -60 -21 -70 -21 -70 -5 -17 -5 -18 103 0 104 0 39 11
38 11 24 25 24 26 0 41 0 42 -12 12 -11 11 14 17 13 16 24 9 23 9 27 -14 28
-14 13 -26 14 -26 -11 -25 -12 -26 0 -25 0 -25 33 -14 34 -14 126 -7 127 -7 0
10 0 10 -19 44 -19 44 -17 85 -17 85 -14 23 -14 22 -33 0 -33 0 -10 -10 -11
-11 -27 28 -28 28 5 39 5 39 15 14 14 15 39 -12 39 -12 39 4 39 3 21 28 21 28
3 120 4 119 -379 0 -378 0 0 -125z"/>
</g>
</svg>
