<?xml version="1.0" standalone="no"?>
<!DOCTYPE svg PUBLIC "-//W3C//DTD SVG 20010904//EN"
 "http://www.w3.org/TR/2001/REC-SVG-20010904/DTD/svg10.dtd">
<svg version="1.0" xmlns="http://www.w3.org/2000/svg"
 width="103.000000pt" height="95.000000pt" viewBox="0 0 103.000000 95.000000"
 preserveAspectRatio="xMidYMid meet">
<metadata>
Created by potrace 1.16, written by Peter Selinger 2001-2019
</metadata>
<g transform="translate(0.000000,95.000000) scale(0.100000,-0.100000)"
fill="#000000" stroke="none">
<path d="M534 939 l-31 -9 -13 -16 -13 -15 18 -51 18 -51 -23 -19 -22 -18
-128 0 -128 0 -3 -119 -4 -120 -21 -28 -21 -28 -23 -3 -23 -4 -43 12 -44 13
-15 -13 -16 -13 3 -55 3 -55 27 -20 28 -21 34 16 34 17 17 -19 16 -18 20 -133
19 -134 0 -14 0 -13 123 4 123 4 34 20 34 19 8 30 9 30 -6 42 -6 41 30 7 30 6
30 -16 31 -15 16 -32 16 -32 -11 -18 -11 -18 0 -30 0 -29 19 -11 20 -10 64 0
64 0 75 6 75 7 12 31 13 31 19 54 19 54 0 56 0 56 -9 14 -9 13 -38 -6 -39 -6
-46 -6 -45 -6 -42 21 -41 21 -11 19 -10 20 0 20 0 21 33 21 32 20 45 -5 45 -5
44 -7 44 -7 -8 149 -7 149 -10 13 -11 12 -108 -2 -108 -3 -17 17 -17 17 12 39
13 39 -7 22 -6 21 -27 14 -27 13 -45 6 -45 5 -31 -9z"/>
</g>
</svg>
