<?xml version="1.0" standalone="no"?>
<!DOCTYPE svg PUBLIC "-//W3C//DTD SVG 20010904//EN"
 "http://www.w3.org/TR/2001/REC-SVG-20010904/DTD/svg10.dtd">
<svg version="1.0" xmlns="http://www.w3.org/2000/svg"
 width="101.000000pt" height="93.000000pt" viewBox="0 0 101.000000 93.000000"
 preserveAspectRatio="xMidYMid meet">
<metadata>
Created by potrace 1.16, written by Peter Selinger 2001-2019
</metadata>
<g transform="translate(0.000000,93.000000) scale(0.100000,-0.100000)"
fill="#000000" stroke="none">
<path d="M534 919 l-31 -9 -12 -14 -11 -13 15 -36 15 -36 0 -20 0 -21 -25 -16
-24 -16 -125 1 -124 1 -3 -118 -4 -118 -18 -27 -18 -28 -24 -9 -24 -9 -48 14
-47 14 -13 -11 -13 -10 0 -43 0 -44 26 -20 25 -20 35 16 35 17 20 -20 20 -21
20 -129 20 -129 0 -19 0 -18 113 4 113 4 34 20 33 20 9 37 9 36 -15 30 -15 31
38 11 38 12 27 -7 27 -7 23 -24 24 -23 7 -28 7 -27 -12 -18 -11 -19 0 -20 0
-19 19 -11 20 -10 54 0 54 0 75 6 75 7 12 31 13 31 19 54 19 54 0 46 0 46 -10
15 -9 14 -46 -12 -45 -12 -41 0 -40 0 -39 20 -39 20 -11 19 -10 20 0 30 0 31
33 21 32 20 60 -5 60 -6 29 -6 29 -7 -8 139 -7 139 -10 12 -10 13 -109 -3
-108 -2 -21 21 -21 21 15 38 16 38 -6 19 -5 18 -27 14 -27 13 -35 5 -35 5 -31
-8z"/>
</g>
</svg>
