<?xml version="1.0" standalone="no"?>
<!DOCTYPE svg PUBLIC "-//W3C//DTD SVG 20010904//EN"
 "http://www.w3.org/TR/2001/REC-SVG-20010904/DTD/svg10.dtd">
<svg version="1.0" xmlns="http://www.w3.org/2000/svg"
 width="99.000000pt" height="95.000000pt" viewBox="0 0 99.000000 95.000000"
 preserveAspectRatio="xMidYMid meet">
<metadata>
Created by potrace 1.16, written by Peter Selinger 2001-2019
</metadata>
<g transform="translate(0.000000,95.000000) scale(0.100000,-0.100000)"
fill="#000000" stroke="none">
<path d="M238 841 l-3 -110 -21 -28 -22 -28 -43 3 -44 3 -40 2 -39 2 -13 -25
-13 -25 0 -46 0 -46 26 -27 27 -26 18 0 19 0 21 13 20 12 18 -22 18 -21 17
-89 18 -88 14 -34 14 -33 0 -20 0 -20 23 6 22 7 131 6 132 6 -5 -86 -6 -86 15
-15 15 -15 35 -6 36 -7 32 29 33 29 5 52 5 52 -12 14 -11 13 15 13 16 13 117
-6 117 -6 24 -7 24 -7 -6 33 -7 33 0 348 0 349 -369 0 -369 0 -4 -109z"/>
</g>
</svg>
