<?xml version="1.0" standalone="no"?>
<!DOCTYPE svg PUBLIC "-//W3C//DTD SVG 20010904//EN"
 "http://www.w3.org/TR/2001/REC-SVG-20010904/DTD/svg10.dtd">
<svg version="1.0" xmlns="http://www.w3.org/2000/svg"
 width="97.000000pt" height="93.000000pt" viewBox="0 0 97.000000 93.000000"
 preserveAspectRatio="xMidYMid meet">
<metadata>
Created by potrace 1.16, written by Peter Selinger 2001-2019
</metadata>
<g transform="translate(0.000000,93.000000) scale(0.100000,-0.100000)"
fill="#000000" stroke="none">
<path d="M238 821 l-3 -110 -21 -28 -21 -28 -24 -4 -24 -3 -53 13 -53 12 -16
-16 -16 -16 -4 -48 -5 -48 27 -28 28 -27 13 0 13 0 6 10 6 10 24 0 25 0 14
-22 14 -23 17 -85 17 -85 17 -40 18 -40 -4 -11 -4 -11 65 9 65 9 93 -3 93 -3
-4 -15 -3 -15 -5 -67 -6 -67 14 -14 14 -14 27 -6 27 -7 31 27 31 28 6 38 6 38
-13 24 -13 24 13 16 12 15 97 -1 96 0 48 -8 48 -8 -6 14 -5 15 0 354 0 354
-359 0 -359 0 -4 -109z"/>
</g>
</svg>
