<?xml version="1.0" standalone="no"?>
<!DOCTYPE svg PUBLIC "-//W3C//DTD SVG 20010904//EN"
 "http://www.w3.org/TR/2001/REC-SVG-20010904/DTD/svg10.dtd">
<svg version="1.0" xmlns="http://www.w3.org/2000/svg"
 width="114.000000pt" height="99.000000pt" viewBox="0 0 114.000000 99.000000"
 preserveAspectRatio="xMidYMid meet">
<metadata>
Created by potrace 1.16, written by Peter Selinger 2001-2019
</metadata>
<g transform="translate(0.000000,99.000000) scale(0.100000,-0.100000)"
fill="#000000" stroke="none">
<path d="M513 980 l-22 -9 -17 -25 -16 -26 6 -32 7 -33 6 -38 5 -37 -36 -15
-35 -15 -113 0 -113 0 4 -115 3 -115 -6 -26 -7 -26 -32 7 -32 6 -41 6 -41 5
-17 -27 -18 -27 4 -73 3 -73 19 -21 19 -21 39 0 39 0 19 10 19 10 11 -19 10
-20 0 -98 0 -99 13 -18 13 -18 141 4 141 3 22 20 22 20 -5 30 -6 30 -7 29 -7
29 18 14 19 13 39 0 38 0 20 -10 19 -11 0 -33 0 -34 13 -10 12 -10 105 -26
106 -26 22 0 22 0 0 13 0 14 -20 59 -21 59 -1 42 -2 42 5 6 6 6 29 -11 29 -11
35 6 35 7 38 21 39 22 14 27 14 27 0 26 0 26 -14 34 -15 34 -24 6 -25 7 -30
-16 -29 -15 -16 12 -16 12 -11 28 -10 28 0 110 0 111 -27 -6 -28 -6 -105 -2
-105 -2 -23 15 -22 14 6 15 7 15 5 62 4 62 -30 31 -30 30 -34 -1 -33 0 -22 -9z"/>
</g>
</svg>
