<?xml version="1.0" standalone="no"?>
<!DOCTYPE svg PUBLIC "-//W3C//DTD SVG 20010904//EN"
 "http://www.w3.org/TR/2001/REC-SVG-20010904/DTD/svg10.dtd">
<svg version="1.0" xmlns="http://www.w3.org/2000/svg"
 width="98.000000pt" height="118.000000pt" viewBox="0 0 98.000000 118.000000"
 preserveAspectRatio="xMidYMid meet">
<metadata>
Created by potrace 1.16, written by Peter Selinger 2001-2019
</metadata>
<g transform="translate(0.000000,118.000000) scale(0.100000,-0.100000)"
fill="#000000" stroke="none">
<path d="M561 1167 l-24 -12 -11 -17 -11 -18 13 -20 12 -20 0 -27 0 -28 -18
-21 -17 -22 -25 -13 -25 -13 -115 -6 -115 -5 3 -120 4 -120 -15 -19 -14 -19
-46 11 -46 12 -39 0 -39 0 -16 -18 -17 -19 0 -60 0 -60 11 -31 11 -31 18 -6
18 -6 25 12 26 12 14 -6 14 -5 23 -84 22 -83 16 -35 16 -35 3 -4 3 -4 67 1 68
2 87 6 86 6 -9 -38 -9 -39 0 -56 0 -56 26 -28 25 -27 42 5 42 6 18 22 18 22
-7 16 -7 16 -4 22 -5 23 27 10 27 10 91 20 90 20 41 20 41 19 -5 135 -5 135
-17 17 -17 17 -39 -17 -39 -18 -31 16 -31 16 -11 19 -10 20 0 29 0 30 19 23
19 23 13 -10 14 -11 28 -7 27 -6 25 6 26 6 14 29 15 28 0 113 0 113 -8 11 -7
11 -110 8 -110 7 -34 14 -33 14 6 25 6 25 6 26 7 25 -14 26 -13 25 -28 14 -27
14 -13 0 -13 0 -24 -13z"/>
</g>
</svg>
