<?xml version="1.0" standalone="no"?>
<!DOCTYPE svg PUBLIC "-//W3C//DTD SVG 20010904//EN"
 "http://www.w3.org/TR/2001/REC-SVG-20010904/DTD/svg10.dtd">
<svg version="1.0" xmlns="http://www.w3.org/2000/svg"
 width="119.000000pt" height="99.000000pt" viewBox="0 0 119.000000 99.000000"
 preserveAspectRatio="xMidYMid meet">
<metadata>
Created by potrace 1.16, written by Peter Selinger 2001-2019
</metadata>
<g transform="translate(0.000000,99.000000) scale(0.100000,-0.100000)"
fill="#000000" stroke="none">
<path d="M495 978 l-20 -12 -13 -15 -12 -16 3 -50 4 -50 8 -22 7 -23 -27 -10
-27 -10 -119 6 -119 7 0 -105 0 -106 -19 -23 -19 -23 -26 12 -27 12 -35 0 -34
0 -10 -26 -10 -25 0 -72 0 -72 9 -14 9 -14 40 7 41 6 5 -17 6 -18 19 -96 20
-96 16 -40 16 -40 138 -7 138 -7 17 7 18 7 -8 21 -7 21 -4 66 -5 66 26 30 26
31 20 5 20 5 25 -20 25 -19 15 -52 15 -51 -16 -50 -17 -49 24 -18 24 -19 54 0
55 0 94 17 94 17 -6 20 -5 21 -25 70 -25 70 -1 42 0 42 8 4 7 5 50 -10 50 -11
60 13 60 12 34 36 33 36 -5 45 -5 45 -34 32 -35 31 -45 7 -45 7 -29 -11 -28
-11 -13 17 -13 18 0 108 0 108 -12 0 -13 -1 -20 -15 -20 -15 -63 -19 -64 -20
-27 0 -26 0 -14 9 -14 9 13 63 12 64 -11 42 -11 42 -31 25 -31 26 -46 0 -47
-1 -20 -11z"/>
</g>
</svg>
