<?xml version="1.0" standalone="no"?>
<!DOCTYPE svg PUBLIC "-//W3C//DTD SVG 20010904//EN"
 "http://www.w3.org/TR/2001/REC-SVG-20010904/DTD/svg10.dtd">
<svg version="1.0" xmlns="http://www.w3.org/2000/svg"
 width="117.000000pt" height="97.000000pt" viewBox="0 0 117.000000 97.000000"
 preserveAspectRatio="xMidYMid meet">
<metadata>
Created by potrace 1.16, written by Peter Selinger 2001-2019
</metadata>
<g transform="translate(0.000000,97.000000) scale(0.100000,-0.100000)"
fill="#000000" stroke="none">
<path d="M495 958 l-20 -12 -13 -15 -12 -16 4 -40 5 -40 6 -32 7 -33 -28 -11
-29 -10 -118 7 -117 7 0 -104 0 -105 -16 -23 -16 -23 -32 7 -31 6 -32 6 -33 5
-10 -27 -10 -26 0 -59 0 -58 6 -16 6 -16 18 0 19 0 6 10 6 10 9 0 9 0 14 -14
14 -15 18 -93 18 -93 19 -51 18 -51 129 -6 129 -7 16 6 16 6 -9 16 -9 17 -2
45 -3 45 2 27 1 28 28 29 27 30 27 7 27 6 29 -29 29 -28 12 -53 13 -52 -15
-44 -15 -45 23 -15 24 -16 43 0 42 0 93 17 94 16 -7 16 -7 16 -23 65 -23 65
-1 51 0 50 11 11 10 10 42 -14 42 -15 45 7 45 7 31 13 31 13 23 31 22 32 -6
33 -6 32 -29 28 -29 28 -41 9 -41 9 -35 -14 -35 -15 -15 22 -15 21 0 108 0
107 -32 -18 -33 -19 -54 -16 -55 -16 -37 0 -38 0 -16 16 -16 17 6 15 5 15 11
42 11 42 -11 41 -11 41 -31 25 -31 26 -36 0 -37 -1 -20 -11z"/>
</g>
</svg>
