<?xml version="1.0" standalone="no"?>
<!DOCTYPE svg PUBLIC "-//W3C//DTD SVG 20010904//EN"
 "http://www.w3.org/TR/2001/REC-SVG-20010904/DTD/svg10.dtd">
<svg version="1.0" xmlns="http://www.w3.org/2000/svg"
 width="98.000000pt" height="116.000000pt" viewBox="0 0 98.000000 116.000000"
 preserveAspectRatio="xMidYMid meet">
<metadata>
Created by potrace 1.16, written by Peter Selinger 2001-2019
</metadata>
<g transform="translate(0.000000,116.000000) scale(0.100000,-0.100000)"
fill="#000000" stroke="none">
<path d="M511 1151 l-14 -9 6 -23 5 -24 10 -30 9 -30 -8 -22 -8 -22 -27 -18
-27 -17 -122 -4 -121 -4 0 -112 1 -111 -16 -30 -15 -30 -19 3 -20 3 -50 5 -50
6 -22 -22 -23 -21 0 -64 0 -63 26 -31 26 -31 35 0 34 0 19 10 18 10 12 -15 12
-15 11 -116 11 -116 120 7 121 6 28 5 28 6 -7 -41 -6 -40 6 -45 7 -46 25 -30
26 -30 42 0 43 0 30 15 31 15 12 31 13 30 -6 59 -5 60 25 6 25 7 109 -7 109
-7 0 14 0 13 -19 40 -19 39 -21 88 -21 88 -10 20 -11 19 -35 0 -35 0 -19 -10
-19 -10 -11 19 -10 20 0 39 0 39 21 27 22 27 10 -10 11 -11 48 0 49 0 24 16
24 15 10 31 11 31 0 102 0 102 -57 25 -58 25 -72 19 -72 18 -23 17 -22 17 14
27 14 27 -19 14 -19 14 -70 0 -71 0 -14 -9z"/>
</g>
</svg>
