<?xml version="1.0" standalone="no"?>
<!DOCTYPE svg PUBLIC "-//W3C//DTD SVG 20010904//EN"
 "http://www.w3.org/TR/2001/REC-SVG-20010904/DTD/svg10.dtd">
<svg version="1.0" xmlns="http://www.w3.org/2000/svg"
 width="101.000000pt" height="95.000000pt" viewBox="0 0 101.000000 95.000000"
 preserveAspectRatio="xMidYMid meet">
<metadata>
Created by potrace 1.16, written by Peter Selinger 2001-2019
</metadata>
<g transform="translate(0.000000,95.000000) scale(0.100000,-0.100000)"
fill="#000000" stroke="none">
<path d="M700 941 l-25 -7 2 -35 1 -34 7 -27 7 -27 -31 -32 -32 -31 -63 4 -64
4 -16 13 -15 13 14 29 15 28 0 24 0 24 -21 19 -21 19 -114 4 -114 3 0 -94 0
-95 -11 -31 -10 -31 -24 -15 -24 -16 -30 0 -30 0 -6 10 -6 10 -24 0 -24 0 -20
-26 -21 -27 0 -59 0 -59 10 -20 11 -19 16 0 17 0 34 12 34 13 13 -19 14 -18
21 -91 21 -90 21 -43 20 -44 89 0 90 0 34 -14 35 -15 0 -16 0 -15 -11 -19 -12
-18 6 -25 7 -25 27 -12 27 -12 47 -6 46 -5 38 12 37 12 -6 44 -5 43 9 6 10 6
111 19 112 19 32 11 33 11 12 98 13 98 -7 35 -7 36 -14 12 -15 12 -32 -6 -33
-6 -36 -6 -36 -6 -35 31 -36 31 -5 27 -5 27 9 22 8 23 26 17 26 17 53 -16 53
-17 11 0 12 0 20 20 20 20 0 109 0 109 -6 29 -6 30 -106 11 -107 12 -20 -1
-20 -1 -25 -7z"/>
</g>
</svg>
