<?xml version="1.0" standalone="no"?>
<!DOCTYPE svg PUBLIC "-//W3C//DTD SVG 20010904//EN"
 "http://www.w3.org/TR/2001/REC-SVG-20010904/DTD/svg10.dtd">
<svg version="1.0" xmlns="http://www.w3.org/2000/svg"
 width="99.000000pt" height="93.000000pt" viewBox="0 0 99.000000 93.000000"
 preserveAspectRatio="xMidYMid meet">
<metadata>
Created by potrace 1.16, written by Peter Selinger 2001-2019
</metadata>
<g transform="translate(0.000000,93.000000) scale(0.100000,-0.100000)"
fill="#000000" stroke="none">
<path d="M700 921 l-25 -7 2 -25 2 -24 7 -37 6 -37 -30 -31 -30 -30 -64 0 -63
0 -25 13 -25 13 1 20 2 19 13 33 13 32 -22 22 -22 22 -105 4 -105 4 0 -94 0
-95 -11 -31 -10 -31 -24 -15 -24 -16 -36 0 -35 0 -21 13 -20 12 -25 -28 -24
-28 0 -53 0 -52 14 -19 14 -19 26 12 27 12 24 0 24 0 11 -19 10 -20 21 -87 21
-88 20 -43 20 -43 89 0 90 0 34 -14 35 -15 0 -28 0 -29 -11 -11 -11 -11 6 -19
6 -20 26 -11 25 -12 38 -6 39 -6 36 12 36 12 0 14 0 15 -11 21 -11 20 14 14
14 14 113 20 114 19 32 11 32 11 13 90 12 90 -6 34 -7 33 -15 12 -15 13 -38
-12 -38 -11 -32 0 -31 0 -37 33 -36 34 -1 47 -1 48 28 24 28 24 23 0 23 0 42
-15 41 -14 15 6 16 5 9 19 10 18 0 94 0 94 -6 30 -6 30 -106 11 -107 12 -10
-1 -10 -1 -25 -7z"/>
</g>
</svg>
