<?xml version="1.0" standalone="no"?>
<!DOCTYPE svg PUBLIC "-//W3C//DTD SVG 20010904//EN"
 "http://www.w3.org/TR/2001/REC-SVG-20010904/DTD/svg10.dtd">
<svg version="1.0" xmlns="http://www.w3.org/2000/svg"
 width="119.000000pt" height="93.000000pt" viewBox="0 0 119.000000 93.000000"
 preserveAspectRatio="xMidYMid meet">
<metadata>
Created by potrace 1.16, written by Peter Selinger 2001-2019
</metadata>
<g transform="translate(0.000000,93.000000) scale(0.100000,-0.100000)"
fill="#000000" stroke="none">
<path d="M529 919 l-27 -10 15 -30 15 -30 -9 -36 -9 -37 -33 -20 -34 -20 -115
-4 -115 -5 7 -129 7 -128 -43 7 -43 8 -52 0 -52 0 -17 -17 -17 -17 -5 -49 -4
-49 16 -32 17 -32 34 -16 35 -17 35 17 35 17 14 -23 14 -22 6 -65 6 -65 2 -52
1 -51 96 -6 96 -6 34 8 34 7 11 18 11 17 -13 20 -12 20 0 29 0 29 30 31 31 30
36 7 37 7 25 -15 26 -14 -2 -20 -2 -19 -7 -42 -7 -43 26 -9 26 -10 131 -17
131 -16 4 3 4 4 -19 55 -19 55 -6 50 -6 50 14 19 14 19 33 -11 33 -12 44 0 44
0 29 15 28 15 21 26 21 27 0 33 0 33 -11 24 -11 24 -28 16 -28 17 -28 0 -28 0
-34 -12 -34 -13 -14 20 -14 19 0 118 0 118 -123 -6 -123 -7 -22 12 -22 12 0
24 0 24 10 6 10 6 0 20 0 20 -15 29 -15 30 -30 15 -29 15 -23 -1 -23 -1 -26
-9z"/>
</g>
</svg>
