<?xml version="1.0" standalone="no"?>
<!DOCTYPE svg PUBLIC "-//W3C//DTD SVG 20010904//EN"
 "http://www.w3.org/TR/2001/REC-SVG-20010904/DTD/svg10.dtd">
<svg version="1.0" xmlns="http://www.w3.org/2000/svg"
 width="101.000000pt" height="97.000000pt" viewBox="0 0 101.000000 97.000000"
 preserveAspectRatio="xMidYMid meet">
<metadata>
Created by potrace 1.16, written by Peter Selinger 2001-2019
</metadata>
<g transform="translate(0.000000,97.000000) scale(0.100000,-0.100000)"
fill="#000000" stroke="none">
<path d="M553 958 l-33 -9 0 -24 0 -25 12 -43 11 -43 -10 -29 -10 -30 -33 -22
-33 -23 -22 0 -22 0 -28 26 -27 25 7 47 7 47 2 40 1 40 -39 13 -39 13 -121 -3
-121 -3 -3 -128 -3 -127 12 -21 11 -21 31 5 32 6 29 7 29 7 32 -17 33 -18 11
-24 11 -25 0 -24 0 -23 -25 -30 -25 -29 -30 -13 -30 -13 -48 8 -47 7 -30 1
-29 2 -10 -28 -10 -28 18 -82 18 -82 5 -30 5 -30 111 3 112 3 25 -13 25 -13 3
-29 4 -28 -11 -11 -11 -11 0 -32 0 -32 26 -17 27 -17 61 -2 62 -1 26 17 27 18
7 37 7 38 -11 54 -12 55 13 8 12 8 35 0 35 0 88 -16 88 -16 5 5 5 5 -10 77
-11 76 0 68 0 69 15 12 16 13 38 -13 39 -13 35 7 35 7 26 20 26 20 0 39 0 38
-15 12 -15 12 -32 -7 -33 -6 -34 -2 -34 -2 -21 28 -21 28 -3 132 -4 132 -106
1 -107 1 -32 -9z"/>
</g>
</svg>
