<?xml version="1.0" standalone="no"?>
<!DOCTYPE svg PUBLIC "-//W3C//DTD SVG 20010904//EN"
 "http://www.w3.org/TR/2001/REC-SVG-20010904/DTD/svg10.dtd">
<svg version="1.0" xmlns="http://www.w3.org/2000/svg"
 width="99.000000pt" height="95.000000pt" viewBox="0 0 99.000000 95.000000"
 preserveAspectRatio="xMidYMid meet">
<metadata>
Created by potrace 1.16, written by Peter Selinger 2001-2019
</metadata>
<g transform="translate(0.000000,95.000000) scale(0.100000,-0.100000)"
fill="#000000" stroke="none">
<path d="M551 938 l-33 -9 6 -32 6 -32 6 -40 6 -40 -11 -27 -11 -28 -32 -20
-33 -20 -31 0 -31 0 -28 26 -27 25 6 57 7 57 2 30 2 30 -39 13 -39 13 -111 -3
-111 -3 -3 -120 -3 -120 15 -20 14 -20 34 13 34 12 28 0 28 0 28 -17 28 -16
11 -24 11 -24 0 -34 0 -33 -25 -30 -25 -29 -30 -13 -30 -12 -53 6 -52 6 -25 2
-24 3 -10 -27 -9 -27 22 -83 22 -83 1 -20 0 -20 125 0 125 0 19 -24 19 -23 -6
-27 -7 -26 -8 -10 -9 -9 0 -22 0 -22 26 -17 26 -17 53 -1 52 -1 26 17 26 17 6
34 7 34 -13 57 -13 57 15 9 14 9 47 0 46 0 78 -15 78 -15 2 3 3 3 -9 64 -10
65 0 81 0 81 19 17 19 17 38 -16 39 -16 31 6 32 6 26 20 26 20 0 29 0 28 -15
12 -16 13 -37 -12 -38 -13 -28 4 -29 3 -21 28 -21 28 -5 132 -5 132 -95 1 -95
1 -34 -9z"/>
</g>
</svg>
