<?xml version="1.0" standalone="no"?>
<!DOCTYPE svg PUBLIC "-//W3C//DTD SVG 20010904//EN"
 "http://www.w3.org/TR/2001/REC-SVG-20010904/DTD/svg10.dtd">
<svg version="1.0" xmlns="http://www.w3.org/2000/svg"
 width="96.000000pt" height="93.000000pt" viewBox="0 0 96.000000 93.000000"
 preserveAspectRatio="xMidYMid meet">
<metadata>
Created by potrace 1.16, written by Peter Selinger 2001-2019
</metadata>
<g transform="translate(0.000000,93.000000) scale(0.100000,-0.100000)"
fill="#000000" stroke="none">
<path d="M533 911 l-32 -20 -7 -27 -7 -26 13 -38 13 -39 -6 -15 -6 -16 -141 0
-140 0 0 -114 0 -115 -24 -28 -24 -28 -50 18 -50 17 -20 0 -20 0 -16 -25 -16
-24 0 -53 0 -53 18 -34 17 -35 17 -10 18 -11 20 13 20 12 15 0 14 0 10 -19 10
-18 16 -77 16 -78 11 -23 11 -24 15 -6 15 -6 122 -6 122 -6 6 9 5 9 -15 59
-15 59 7 33 6 34 19 10 19 10 56 0 57 0 30 -30 30 -31 -6 -37 -7 -37 -2 -25
-2 -24 25 -13 25 -13 118 0 117 0 0 361 0 361 -61 -7 -60 -7 -60 -1 -60 0 -16
15 -15 16 15 47 16 46 -9 24 -9 24 -26 17 -25 16 -43 5 -42 4 -32 -20z"/>
</g>
</svg>
