<?xml version="1.0" standalone="no"?>
<!DOCTYPE svg PUBLIC "-//W3C//DTD SVG 20010904//EN"
 "http://www.w3.org/TR/2001/REC-SVG-20010904/DTD/svg10.dtd">
<svg version="1.0" xmlns="http://www.w3.org/2000/svg"
 width="99.000000pt" height="97.000000pt" viewBox="0 0 99.000000 97.000000"
 preserveAspectRatio="xMidYMid meet">
<metadata>
Created by potrace 1.16, written by Peter Selinger 2001-2019
</metadata>
<g transform="translate(0.000000,97.000000) scale(0.100000,-0.100000)"
fill="#000000" stroke="none">
<path d="M335 961 l-100 -6 3 -125 4 -125 -15 -20 -15 -20 -46 13 -46 12 -30
0 -29 0 -28 -24 -28 -24 1 -57 0 -58 37 -33 37 -34 44 0 45 0 27 10 27 11 16
-16 16 -16 0 -47 0 -47 -9 -73 -9 -73 114 7 114 7 -3 -54 -3 -54 18 -34 18
-35 28 -20 28 -21 69 2 69 1 31 18 30 18 0 28 0 27 -10 6 -11 7 11 13 11 14
72 16 72 16 48 16 47 17 0 18 0 18 -8 0 -9 0 -11 24 -11 24 -16 78 -16 77 -10
18 -10 19 -27 0 -28 0 -12 -12 -11 -11 -17 14 -17 14 -14 32 -13 32 0 43 0 43
19 25 19 24 49 -17 48 -17 22 0 22 0 20 26 21 27 0 123 0 124 -9 0 -9 0 -37
-16 -38 -16 -88 -19 -87 -19 -27 -10 -28 -10 7 -49 6 -48 -13 -12 -14 -11 -31
-6 -31 -6 -27 28 -26 29 5 70 6 70 7 23 6 22 -58 -2 -59 -2 -100 -5z"/>
</g>
</svg>
