<?xml version="1.0" standalone="no"?>
<!DOCTYPE svg PUBLIC "-//W3C//DTD SVG 20010904//EN"
 "http://www.w3.org/TR/2001/REC-SVG-20010904/DTD/svg10.dtd">
<svg version="1.0" xmlns="http://www.w3.org/2000/svg"
 width="97.000000pt" height="95.000000pt" viewBox="0 0 97.000000 95.000000"
 preserveAspectRatio="xMidYMid meet">
<metadata>
Created by potrace 1.16, written by Peter Selinger 2001-2019
</metadata>
<g transform="translate(0.000000,95.000000) scale(0.100000,-0.100000)"
fill="#000000" stroke="none">
<path d="M335 941 l-100 -6 4 -117 3 -117 -7 -20 -6 -21 -19 -10 -18 -10 -42
15 -43 15 -23 0 -23 0 -28 -24 -28 -24 1 -48 1 -47 36 -34 37 -33 31 0 32 0
39 12 39 11 17 -17 17 -17 0 -57 0 -57 -8 -62 -9 -62 122 6 122 6 -11 -21 -11
-21 0 -33 0 -33 18 -34 17 -35 28 -20 27 -20 60 1 60 2 30 18 30 17 0 13 0 13
-12 19 -12 19 13 16 12 15 72 16 72 16 48 16 47 17 0 8 0 8 -8 0 -9 0 -11 24
-11 24 -16 78 -16 77 -10 18 -10 19 -14 0 -15 0 -20 -12 -20 -13 -18 11 -17
10 -17 35 -18 34 0 53 0 53 16 24 16 25 20 0 20 0 50 -17 50 -18 24 28 24 28
0 114 0 114 -37 -15 -36 -16 -88 -19 -87 -19 -27 -10 -27 -10 5 -23 4 -22 7
-16 7 -16 -18 -22 -18 -22 -42 -6 -42 -5 -25 27 -26 28 0 56 0 56 9 38 9 37
-47 -2 -46 -2 -100 -5z"/>
</g>
</svg>
