<?xml version="1.0" standalone="no"?>
<!DOCTYPE svg PUBLIC "-//W3C//DTD SVG 20010904//EN"
 "http://www.w3.org/TR/2001/REC-SVG-20010904/DTD/svg10.dtd">
<svg version="1.0" xmlns="http://www.w3.org/2000/svg"
 width="100.000000pt" height="95.000000pt" viewBox="0 0 100.000000 95.000000"
 preserveAspectRatio="xMidYMid meet">
<metadata>
Created by potrace 1.16, written by Peter Selinger 2001-2019
</metadata>
<g transform="translate(0.000000,95.000000) scale(0.100000,-0.100000)"
fill="#000000" stroke="none">
<path d="M328 939 l-18 -10 0 -26 0 -27 12 -33 12 -33 -22 -23 -23 -22 -137 0
-137 0 -7 -20 -6 -20 -1 -67 -1 -67 11 -51 11 -50 21 -15 21 -15 33 0 32 0 26
12 26 12 10 -15 9 -14 0 -45 0 -45 -6 -36 -6 -36 -41 1 -41 1 -23 -75 -23 -75
-22 -47 -21 -48 6 -7 7 -6 134 -1 134 -1 7 7 7 7 -12 64 -13 64 6 26 7 25 36
12 37 12 38 -11 38 -12 24 -32 24 -32 7 -28 6 -27 -15 -30 -16 -30 11 -19 10
-19 28 -7 29 -6 59 10 59 10 38 7 37 7 0 8 0 9 -25 73 -24 74 -6 54 -6 54 10
14 9 14 72 -12 71 -13 46 7 46 7 29 28 28 28 0 59 0 59 -16 23 -17 23 -46 -7
-46 -7 -36 -5 -36 -5 -21 23 -21 22 -7 42 -6 43 4 61 3 61 -12 0 -13 0 0 8 0
9 -112 28 -113 27 -13 11 -14 11 5 32 5 32 -24 11 -25 11 -47 0 -47 -1 -17
-10z"/>
</g>
</svg>
