<?xml version="1.0" standalone="no"?>
<!DOCTYPE svg PUBLIC "-//W3C//DTD SVG 20010904//EN"
 "http://www.w3.org/TR/2001/REC-SVG-20010904/DTD/svg10.dtd">
<svg version="1.0" xmlns="http://www.w3.org/2000/svg"
 width="80.000000pt" height="101.000000pt" viewBox="0 0 80.000000 101.000000"
 preserveAspectRatio="xMidYMid meet">
<metadata>
Created by potrace 1.16, written by Peter Selinger 2001-2019
</metadata>
<g transform="translate(0.000000,101.000000) scale(0.100000,-0.100000)"
fill="#000000" stroke="none">
<path d="M514 1000 l-12 -12 15 -46 14 -47 -5 -39 -4 -39 -32 -28 -31 -29 -33
0 -33 0 -27 21 -26 20 0 19 0 19 9 5 9 6 5 27 5 27 -11 23 -10 23 -39 10 -38
11 -102 -3 -103 -3 -3 -60 -3 -60 6 -41 6 -41 21 -22 21 -23 36 5 36 5 46 7
46 7 17 -23 16 -23 0 -59 0 -59 -28 -28 -29 -28 -46 -7 -46 -7 -71 13 -72 12
-9 -14 -10 -14 6 -53 5 -54 27 -80 26 -80 111 7 111 6 22 6 22 5 -11 -38 -10
-38 4 -52 5 -53 26 -35 27 -35 35 -7 34 -6 30 21 30 22 13 40 12 41 -16 43
-17 44 16 13 16 13 131 5 131 5 -3 45 -2 45 -6 70 -6 70 -14 22 -14 23 -34
-17 -35 -16 -31 13 -32 13 -19 31 -19 31 0 37 0 37 10 26 10 25 27 11 28 11
75 -10 75 -10 3 3 3 3 -7 130 -7 130 -61 18 -61 17 -70 4 -70 5 -11 -12z"/>
</g>
</svg>
