<?xml version="1.0" standalone="no"?>
<!DOCTYPE svg PUBLIC "-//W3C//DTD SVG 20010904//EN"
 "http://www.w3.org/TR/2001/REC-SVG-20010904/DTD/svg10.dtd">
<svg version="1.0" xmlns="http://www.w3.org/2000/svg"
 width="76.000000pt" height="95.000000pt" viewBox="0 0 76.000000 95.000000"
 preserveAspectRatio="xMidYMid meet">
<metadata>
Created by potrace 1.16, written by Peter Selinger 2001-2019
</metadata>
<g transform="translate(0.000000,95.000000) scale(0.100000,-0.100000)"
fill="#000000" stroke="none">
<path d="M445 937 l-20 -15 13 -46 12 -46 0 -26 0 -25 -12 -22 -11 -22 -16
-12 -16 -12 -38 -1 -38 0 -31 16 -30 16 7 31 6 32 5 35 6 35 -22 20 -22 20
-113 4 -113 3 -7 -67 -8 -67 6 -59 5 -60 17 -25 17 -26 31 5 32 5 41 7 41 7
12 -32 11 -33 0 -22 0 -22 -26 -28 -25 -27 -27 7 -27 6 -32 6 -31 5 -12 -22
-12 -22 -1 -142 -2 -141 117 0 116 0 8 -7 7 -8 -11 -25 -12 -26 0 -24 0 -23 6
-17 6 -16 29 -14 28 -15 66 0 66 0 29 15 29 15 11 19 10 20 0 31 0 31 -10 20
-11 19 28 11 28 11 89 -12 89 -11 8 8 9 9 -11 89 -11 90 -7 34 -6 34 -17 10
-16 11 -42 -14 -43 -14 -28 32 -29 32 0 45 0 44 23 21 22 22 35 -7 35 -8 35
-1 35 -1 12 25 12 26 7 66 7 66 -7 64 -7 65 -67 12 -67 13 -75 5 -75 5 -20
-15z"/>
</g>
</svg>
