<?xml version="1.0" standalone="no"?>
<!DOCTYPE svg PUBLIC "-//W3C//DTD SVG 20010904//EN"
 "http://www.w3.org/TR/2001/REC-SVG-20010904/DTD/svg10.dtd">
<svg version="1.0" xmlns="http://www.w3.org/2000/svg"
 width="82.000000pt" height="96.000000pt" viewBox="0 0 82.000000 96.000000"
 preserveAspectRatio="xMidYMid meet">
<metadata>
Created by potrace 1.16, written by Peter Selinger 2001-2019
</metadata>
<g transform="translate(0.000000,96.000000) scale(0.100000,-0.100000)"
fill="#000000" stroke="none">
<path d="M471 949 l-33 -10 6 -32 6 -32 6 -41 6 -42 -21 -21 -21 -21 -63 0
-63 0 -19 13 -18 14 11 7 12 7 0 45 0 44 -20 20 -19 19 -28 8 -28 8 -90 0 -90
0 -3 -379 -2 -378 25 6 26 7 97 9 97 9 15 1 15 0 0 -81 0 -81 30 -24 30 -24
43 0 43 0 18 17 18 18 13 24 12 24 -3 86 -4 86 51 -2 50 -2 70 -26 69 -27 25
-5 26 -5 21 69 22 68 7 52 7 53 -13 30 -12 30 -29 0 -29 0 -19 -11 -18 -12
-35 7 -36 6 -33 23 -34 23 -9 27 -10 27 10 27 9 28 26 12 26 13 62 -16 62 -16
15 6 15 6 -3 149 -3 149 -80 6 -80 7 -50 4 -50 4 -34 -10z"/>
</g>
</svg>
