<?xml version="1.0" standalone="no"?>
<!DOCTYPE svg PUBLIC "-//W3C//DTD SVG 20010904//EN"
 "http://www.w3.org/TR/2001/REC-SVG-20010904/DTD/svg10.dtd">
<svg version="1.0" xmlns="http://www.w3.org/2000/svg"
 width="80.000000pt" height="94.000000pt" viewBox="0 0 80.000000 94.000000"
 preserveAspectRatio="xMidYMid meet">
<metadata>
Created by potrace 1.16, written by Peter Selinger 2001-2019
</metadata>
<g transform="translate(0.000000,94.000000) scale(0.100000,-0.100000)"
fill="#000000" stroke="none">
<path d="M471 929 l-33 -10 7 -22 7 -22 5 -51 5 -52 -21 -21 -21 -21 -73 0
-73 0 -20 14 -19 15 13 20 12 21 0 30 0 30 -20 20 -19 19 -28 8 -28 8 -80 0
-80 0 -3 -366 -2 -366 42 7 43 8 95 7 95 6 0 -81 0 -82 30 -24 30 -24 33 0 33
0 18 18 18 17 12 22 11 22 0 50 0 50 -10 27 -10 26 12 15 12 15 57 -6 57 -5
68 -26 69 -26 15 -5 16 -5 21 68 21 68 7 43 7 43 -12 30 -12 29 -24 0 -23 0
-6 -10 -6 -10 -37 0 -37 0 -41 19 -41 19 -17 23 -16 23 0 36 0 36 15 21 15 21
28 6 27 6 58 -15 59 -15 9 6 9 5 -1 82 -1 82 -6 55 -7 55 -55 6 -55 7 -60 5
-60 5 -34 -9z"/>
</g>
</svg>
