<?xml version="1.0" standalone="no"?>
<!DOCTYPE svg PUBLIC "-//W3C//DTD SVG 20010904//EN"
 "http://www.w3.org/TR/2001/REC-SVG-20010904/DTD/svg10.dtd">
<svg version="1.0" xmlns="http://www.w3.org/2000/svg"
 width="105.000000pt" height="76.000000pt" viewBox="0 0 105.000000 76.000000"
 preserveAspectRatio="xMidYMid meet">
<metadata>
Created by potrace 1.16, written by Peter Selinger 2001-2019
</metadata>
<g transform="translate(0.000000,76.000000) scale(0.100000,-0.100000)"
fill="#000000" stroke="none">
<path d="M230 655 l0 -106 -14 -34 -15 -34 -24 -6 -25 -7 -30 16 -31 16 -16 0
-17 0 -29 -29 -29 -29 0 -57 0 -56 26 -26 25 -25 57 6 57 7 29 2 29 2 9 -30 9
-30 -7 -106 -6 -106 10 -7 11 -7 125 -1 125 -1 26 17 25 16 0 29 0 28 -12 33
-11 33 18 14 19 13 43 0 44 0 29 -15 28 -15 4 -12 4 -12 -15 -43 -16 -43 23
-22 22 -23 123 0 122 -1 13 4 12 4 0 22 0 21 21 65 21 65 1 73 2 73 -15 10
-15 10 -35 -6 -35 -5 -51 -6 -51 -6 -31 16 -31 16 -6 19 -6 20 15 30 16 30 16
9 16 9 43 -16 43 -15 25 11 24 11 12 46 11 45 0 100 0 101 -380 0 -380 0 0
-105z"/>
</g>
</svg>
