<?xml version="1.0" standalone="no"?>
<!DOCTYPE svg PUBLIC "-//W3C//DTD SVG 20010904//EN"
 "http://www.w3.org/TR/2001/REC-SVG-20010904/DTD/svg10.dtd">
<svg version="1.0" xmlns="http://www.w3.org/2000/svg"
 width="103.000000pt" height="74.000000pt" viewBox="0 0 103.000000 74.000000"
 preserveAspectRatio="xMidYMid meet">
<metadata>
Created by potrace 1.16, written by Peter Selinger 2001-2019
</metadata>
<g transform="translate(0.000000,74.000000) scale(0.100000,-0.100000)"
fill="#000000" stroke="none">
<path d="M230 635 l0 -106 -14 -34 -15 -34 -27 -7 -28 -7 -25 10 -26 11 -17 7
-18 7 -30 -30 -30 -30 0 -47 0 -46 26 -26 26 -25 46 7 47 7 36 5 37 5 8 -14 9
-13 0 -130 0 -130 80 -5 80 -5 53 6 52 5 17 17 17 17 -11 37 -10 38 -7 17 -8
17 27 17 27 17 48 -1 49 -1 30 -15 30 -16 5 -18 6 -19 -16 -38 -15 -38 20 -21
21 -21 118 2 117 2 8 0 8 1 -5 8 -5 8 25 80 25 79 2 63 2 63 -15 10 -15 9 -25
-5 -25 -6 -61 -6 -61 -5 -31 16 -32 16 -6 25 -6 25 12 31 13 31 23 15 23 15
45 -17 44 -17 20 11 19 10 12 47 12 47 -2 88 -2 89 -368 0 -369 0 0 -105z"/>
</g>
</svg>
