<?xml version="1.0" standalone="no"?>
<!DOCTYPE svg PUBLIC "-//W3C//DTD SVG 20010904//EN"
 "http://www.w3.org/TR/2001/REC-SVG-20010904/DTD/svg10.dtd">
<svg version="1.0" xmlns="http://www.w3.org/2000/svg"
 width="115.000000pt" height="80.000000pt" viewBox="0 0 115.000000 80.000000"
 preserveAspectRatio="xMidYMid meet">
<metadata>
Created by potrace 1.16, written by Peter Selinger 2001-2019
</metadata>
<g transform="translate(0.000000,80.000000) scale(0.100000,-0.100000)"
fill="#000000" stroke="none">
<path d="M215 790 l-6 -10 7 -119 7 -119 -6 -15 -5 -14 -57 14 -58 15 -33 -7
-33 -6 -16 -22 -15 -21 0 -46 0 -46 16 -23 17 -23 41 -19 41 -19 47 0 47 0 6
10 6 10 13 0 14 0 11 -28 11 -27 -9 -50 -10 -50 -15 -44 -16 -44 0 -17 0 -18
84 -7 84 -7 51 7 52 7 14 15 15 14 0 24 0 24 -10 6 -10 6 0 25 0 25 11 21 11
20 34 14 35 15 35 -17 36 -17 16 -34 16 -34 -12 -44 -12 -45 0 -25 0 -24 19
-11 20 -10 43 0 43 0 61 15 61 14 25 11 24 11 13 32 14 32 32 95 32 95 40 -3
40 -2 7 37 6 38 0 55 0 55 -9 14 -9 14 -28 -7 -29 -7 -28 -6 -27 -5 -24 16
-24 15 -12 58 -13 58 7 79 6 78 -28 -6 -27 -5 -100 -16 -100 -16 -22 -15 -23
-14 0 -7 0 -7 12 -34 13 -34 -20 -14 -19 -14 -50 0 -51 0 -13 9 -13 8 12 26
12 27 -9 31 -9 32 -25 18 -25 19 -54 10 -54 10 -73 0 -73 0 -6 -10z"/>
</g>
</svg>
