<?xml version="1.0" standalone="no"?>
<!DOCTYPE svg PUBLIC "-//W3C//DTD SVG 20010904//EN"
 "http://www.w3.org/TR/2001/REC-SVG-20010904/DTD/svg10.dtd">
<svg version="1.0" xmlns="http://www.w3.org/2000/svg"
 width="113.000000pt" height="78.000000pt" viewBox="0 0 113.000000 78.000000"
 preserveAspectRatio="xMidYMid meet">
<metadata>
Created by potrace 1.16, written by Peter Selinger 2001-2019
</metadata>
<g transform="translate(0.000000,78.000000) scale(0.100000,-0.100000)"
fill="#000000" stroke="none">
<path d="M218 775 l-8 -8 7 -132 6 -132 -11 -7 -10 -6 -59 15 -58 15 -27 -6
-28 -6 -15 -21 -15 -21 0 -36 0 -36 16 -23 17 -23 41 -19 41 -19 37 0 37 0 6
10 6 10 23 0 24 0 12 -29 12 -30 -7 -43 -6 -43 -21 -63 -20 -63 5 -6 6 -5 103
-2 103 -1 27 8 27 7 5 18 6 18 -16 32 -16 32 19 38 18 37 40 14 41 14 37 -18
38 -18 16 -30 15 -30 -7 -46 -7 -46 -1 -30 -2 -29 28 -10 27 -10 70 12 69 12
38 15 39 15 13 33 14 32 32 95 32 95 40 -1 41 -1 6 36 6 36 0 45 0 45 -9 14
-10 15 -26 -12 -26 -12 -32 0 -33 0 -21 15 -22 15 -11 57 -12 57 4 79 5 78
-15 -6 -15 -5 -101 -16 -101 -15 -22 -15 -23 -15 15 -29 16 -30 -10 -19 -10
-19 -17 -6 -16 -6 -57 0 -57 0 -18 13 -17 13 17 30 17 30 -14 29 -14 30 -38
18 -38 19 -97 5 -97 5 -7 -7z"/>
</g>
</svg>
