<?xml version="1.0" standalone="no"?>
<!DOCTYPE svg PUBLIC "-//W3C//DTD SVG 20010904//EN"
 "http://www.w3.org/TR/2001/REC-SVG-20010904/DTD/svg10.dtd">
<svg version="1.0" xmlns="http://www.w3.org/2000/svg"
 width="80.000000pt" height="83.000000pt" viewBox="0 0 80.000000 83.000000"
 preserveAspectRatio="xMidYMid meet">
<metadata>
Created by potrace 1.16, written by Peter Selinger 2001-2019
</metadata>
<g transform="translate(0.000000,83.000000) scale(0.100000,-0.100000)"
fill="#000000" stroke="none">
<path d="M451 816 l-14 -17 12 -38 11 -38 0 -37 0 -37 -11 -22 -12 -22 -18
-17 -18 -18 -23 0 -23 0 -30 24 -30 24 1 82 1 82 -106 -7 -106 -7 -40 -7 -40
-6 -3 -373 -2 -372 63 0 64 0 78 -7 78 -6 -7 34 -7 34 0 29 0 29 16 24 16 24
32 20 32 20 43 -5 43 -6 20 -11 21 -11 -11 -11 -11 -11 0 -27 0 -27 14 -11 13
-11 93 -21 93 -20 18 -9 18 -10 14 0 15 0 15 38 16 39 11 63 12 64 -7 32 -6
33 -20 6 -21 7 -11 -11 -11 -11 -40 0 -40 0 -43 21 -43 21 -21 26 -21 27 5 38
5 39 19 20 18 21 32 13 31 14 46 -17 46 -17 17 17 18 18 -2 116 -2 116 -9 9
-10 10 -68 25 -69 25 -65 5 -65 6 -14 -17z"/>
</g>
</svg>
