<?xml version="1.0" standalone="no"?>
<!DOCTYPE svg PUBLIC "-//W3C//DTD SVG 20010904//EN"
 "http://www.w3.org/TR/2001/REC-SVG-20010904/DTD/svg10.dtd">
<svg version="1.0" xmlns="http://www.w3.org/2000/svg"
 width="113.000000pt" height="99.000000pt" viewBox="0 0 113.000000 99.000000"
 preserveAspectRatio="xMidYMid meet">
<metadata>
Created by potrace 1.16, written by Peter Selinger 2001-2019
</metadata>
<g transform="translate(0.000000,99.000000) scale(0.100000,-0.100000)"
fill="#000000" stroke="none">
<path d="M200 852 l0 -138 -13 -18 -13 -17 -27 10 -28 11 -40 0 -39 0 -20 -20
-20 -20 0 -47 0 -48 20 -32 20 -33 31 0 30 0 19 10 19 10 14 -15 15 -15 6 -37
5 -38 7 -93 6 -93 37 8 36 7 87 0 87 1 14 -15 14 -15 -10 -71 -10 -70 6 -25 7
-26 25 -11 26 -12 40 0 41 0 35 17 36 17 19 44 20 45 -5 41 -6 42 -7 17 -6 17
26 11 26 12 101 -12 101 -12 5 5 5 5 10 133 9 133 14 21 14 22 46 -17 47 -16
25 29 25 30 -5 50 -4 50 -27 23 -27 23 -24 0 -24 0 -26 -12 -26 -12 -17 18
-17 17 2 119 2 119 -56 7 -55 7 -75 -5 -74 -5 -17 -16 -16 -17 12 -45 12 -45
0 -31 0 -31 -29 -29 -29 -29 -32 0 -31 0 -20 11 -20 10 -10 27 -10 27 17 74
18 74 -19 13 -19 14 -143 0 -143 0 0 -138z"/>
</g>
</svg>
