<?xml version="1.0" standalone="no"?>
<!DOCTYPE svg PUBLIC "-//W3C//DTD SVG 20010904//EN"
 "http://www.w3.org/TR/2001/REC-SVG-20010904/DTD/svg10.dtd">
<svg version="1.0" xmlns="http://www.w3.org/2000/svg"
 width="119.000000pt" height="102.000000pt" viewBox="0 0 119.000000 102.000000"
 preserveAspectRatio="xMidYMid meet">
<metadata>
Created by potrace 1.16, written by Peter Selinger 2001-2019
</metadata>
<g transform="translate(0.000000,102.000000) scale(0.100000,-0.100000)"
fill="#000000" stroke="none">
<path d="M693 1014 l-13 -6 0 -23 0 -23 11 -50 12 -49 -14 -29 -14 -29 -33
-10 -32 -11 -33 4 -33 4 -24 18 -25 19 12 19 12 20 6 34 6 34 -19 24 -20 25
-129 3 -128 3 0 -116 0 -117 -20 -14 -19 -14 -16 6 -15 6 -61 5 -61 5 -21 -27
-22 -28 0 -58 0 -58 27 -21 28 -22 50 5 50 4 22 8 21 7 13 -23 12 -23 6 -131
6 -130 140 1 141 1 -1 -104 0 -105 29 -25 30 -25 50 5 50 4 28 32 28 31 0 33
0 33 -12 12 -11 11 12 15 12 14 72 12 72 12 58 15 57 16 0 17 0 18 -24 53 -23
54 -13 56 -13 57 7 26 6 25 26 -9 25 -10 67 0 67 0 38 25 37 26 0 55 0 55 -25
24 -24 25 -11 0 -11 0 -24 -16 -25 -16 -25 16 -24 16 -13 22 -12 23 -6 100 -5
100 -50 13 -50 13 -90 4 -90 5 -12 -6z"/>
</g>
</svg>
