<?xml version="1.0" standalone="no"?>
<!DOCTYPE svg PUBLIC "-//W3C//DTD SVG 20010904//EN"
 "http://www.w3.org/TR/2001/REC-SVG-20010904/DTD/svg10.dtd">
<svg version="1.0" xmlns="http://www.w3.org/2000/svg"
 width="117.000000pt" height="100.000000pt" viewBox="0 0 117.000000 100.000000"
 preserveAspectRatio="xMidYMid meet">
<metadata>
Created by potrace 1.16, written by Peter Selinger 2001-2019
</metadata>
<g transform="translate(0.000000,100.000000) scale(0.100000,-0.100000)"
fill="#000000" stroke="none">
<path d="M691 991 l-15 -9 13 -57 13 -57 -7 -34 -6 -34 -26 -17 -26 -17 -52 1
-53 1 -26 17 -26 17 0 22 0 22 9 10 8 9 7 26 6 27 -19 23 -19 24 -119 3 -118
4 0 -117 0 -117 -20 -14 -20 -15 -25 5 -25 6 -51 6 -51 6 -21 -27 -22 -28 0
-48 0 -48 27 -21 28 -22 40 6 40 5 32 6 31 7 13 -23 12 -23 6 -131 6 -130 147
2 147 2 -7 -32 -7 -32 0 -73 0 -74 29 -25 30 -25 40 5 41 6 28 31 27 30 0 20
0 20 -12 20 -13 20 11 18 11 17 69 13 69 12 63 16 62 16 0 8 0 7 -22 49 -21
49 -13 50 -14 50 0 35 0 35 9 14 9 14 32 -12 33 -11 56 0 56 0 38 25 37 26 0
45 0 45 -24 24 -25 25 -29 -17 -30 -17 -25 11 -26 12 -18 28 -18 27 -5 101 -5
100 -50 13 -50 13 -80 5 -80 5 -14 -10z"/>
</g>
</svg>
