<?xml version="1.0" standalone="no"?>
<!DOCTYPE svg PUBLIC "-//W3C//DTD SVG 20010904//EN"
 "http://www.w3.org/TR/2001/REC-SVG-20010904/DTD/svg10.dtd">
<svg version="1.0" xmlns="http://www.w3.org/2000/svg"
 width="123.000000pt" height="113.000000pt" viewBox="0 0 123.000000 113.000000"
 preserveAspectRatio="xMidYMid meet">
<metadata>
Created by potrace 1.16, written by Peter Selinger 2001-2019
</metadata>
<g transform="translate(0.000000,113.000000) scale(0.100000,-0.100000)"
fill="#000000" stroke="none">
<path d="M560 1112 l-35 -17 -14 -41 -14 -41 15 -30 15 -31 -7 -12 -7 -11 -39
-10 -39 -9 -103 6 -102 7 2 -111 3 -111 -11 -11 -12 -12 -41 13 -41 12 -38
-11 -38 -12 -24 -25 -23 -25 -5 -55 -4 -55 15 -24 16 -24 34 -21 35 -21 55
-10 54 -11 28 11 28 11 6 -7 6 -6 -2 -48 -2 -48 -21 -61 -20 -60 0 -9 0 -9
108 -5 108 -5 46 -21 46 -20 7 -21 6 -20 -10 -20 -11 -20 0 -19 0 -20 16 -6
16 -6 52 0 53 0 18 20 17 19 -4 38 -5 38 -7 17 -8 18 27 10 26 10 134 0 134 0
19 52 20 53 17 82 18 83 14 12 14 11 11 -11 12 -12 33 0 33 0 14 23 14 22 6
34 6 34 -11 39 -10 39 -20 20 -19 19 -48 0 -48 0 -11 -11 -11 -11 -23 4 -23 3
-8 30 -9 30 7 104 7 104 -24 -6 -24 -6 -70 -20 -70 -20 -31 0 -30 -1 -19 13
-18 14 11 33 12 33 0 39 0 39 -15 28 -14 28 -35 17 -34 16 -24 0 -23 0 -35
-18z"/>
</g>
</svg>
