<?xml version="1.0" standalone="no"?>
<!DOCTYPE svg PUBLIC "-//W3C//DTD SVG 20010904//EN"
 "http://www.w3.org/TR/2001/REC-SVG-20010904/DTD/svg10.dtd">
<svg version="1.0" xmlns="http://www.w3.org/2000/svg"
 width="98.000000pt" height="96.000000pt" viewBox="0 0 98.000000 96.000000"
 preserveAspectRatio="xMidYMid meet">
<metadata>
Created by potrace 1.16, written by Peter Selinger 2001-2019
</metadata>
<g transform="translate(0.000000,96.000000) scale(0.100000,-0.100000)"
fill="#000000" stroke="none">
<path d="M143 947 l-123 -10 0 -142 0 -143 15 -12 15 -13 39 17 38 18 36 -15
35 -15 11 -20 11 -21 0 -25 0 -25 -22 -25 -23 -26 -36 -14 -36 -15 -27 15 -28
14 -14 0 -13 0 -11 -19 -10 -20 1 -68 1 -68 11 -55 12 -55 139 -3 138 -3 -6
-22 -6 -22 -6 -52 -7 -52 17 -26 16 -25 80 0 79 0 21 23 21 22 -4 40 -4 40 -7
17 -8 16 22 12 22 12 120 6 120 5 -6 26 -6 26 -16 85 -15 85 11 29 10 28 43
-8 42 -8 47 -1 48 0 22 23 23 22 3 78 3 77 -10 15 -10 14 -50 -13 -50 -13 -27
14 -28 13 -19 32 -19 33 1 96 0 96 -144 -4 -144 -3 -17 -17 -17 -17 17 -45 18
-46 -12 -35 -11 -35 -29 -20 -29 -21 -26 7 -26 6 -27 36 -27 35 0 56 0 56 8
33 9 32 -24 -2 -23 -1 -122 -10z"/>
</g>
</svg>
