<?xml version="1.0" standalone="no"?>
<!DOCTYPE svg PUBLIC "-//W3C//DTD SVG 20010904//EN"
 "http://www.w3.org/TR/2001/REC-SVG-20010904/DTD/svg10.dtd">
<svg version="1.0" xmlns="http://www.w3.org/2000/svg"
 width="94.000000pt" height="111.000000pt" viewBox="0 0 94.000000 111.000000"
 preserveAspectRatio="xMidYMid meet">
<metadata>
Created by potrace 1.16, written by Peter Selinger 2001-2019
</metadata>
<g transform="translate(0.000000,111.000000) scale(0.100000,-0.100000)"
fill="#000000" stroke="none">
<path d="M317 1098 l-27 -10 -7 -26 -6 -25 13 -64 12 -64 -7 -7 -7 -7 -138 1
-138 1 -7 -93 -7 -93 9 -38 9 -38 33 -3 34 -3 10 10 11 11 38 0 38 0 19 -19
20 -20 9 -35 10 -35 -8 -36 -8 -36 -12 -14 -12 -15 -19 0 -19 0 -20 12 -20 13
-17 -11 -17 -11 -28 -109 -27 -109 -7 -23 -6 -22 106 0 107 0 34 -14 35 -15 0
-4 0 -4 -15 -43 -15 -42 12 -21 11 -22 11 -7 11 -8 54 0 54 0 34 26 33 25 0
20 0 19 -12 20 -12 20 11 11 11 11 38 9 39 9 93 0 93 0 -5 18 -6 17 -10 54
-10 54 0 51 0 52 13 17 12 18 33 -17 33 -16 45 17 44 17 20 25 20 26 0 39 0
39 -24 24 -24 24 -35 6 -35 7 -29 -16 -30 -15 -12 12 -11 11 0 129 0 130 -37
-7 -38 -7 -59 -10 -59 -10 -29 6 -28 7 -10 19 -11 19 16 30 15 30 -6 27 -7 28
-20 29 -20 28 -33 14 -33 14 -18 -1 -18 -1 -28 -10z"/>
</g>
</svg>
