<?xml version="1.0" standalone="no"?>
<!DOCTYPE svg PUBLIC "-//W3C//DTD SVG 20010904//EN"
 "http://www.w3.org/TR/2001/REC-SVG-20010904/DTD/svg10.dtd">
<svg version="1.0" xmlns="http://www.w3.org/2000/svg"
 width="81.000000pt" height="102.000000pt" viewBox="0 0 81.000000 102.000000"
 preserveAspectRatio="xMidYMid meet">
<metadata>
Created by potrace 1.16, written by Peter Selinger 2001-2019
</metadata>
<g transform="translate(0.000000,102.000000) scale(0.100000,-0.100000)"
fill="#000000" stroke="none">
<path d="M355 1004 l-30 -15 -17 -22 -18 -22 0 -41 0 -40 12 -12 12 -12 -17
-18 -18 -17 -118 2 -118 2 -6 -52 -6 -52 8 -63 7 -62 21 -28 20 -27 37 -9 37
-10 40 11 39 10 6 -24 6 -24 -5 -46 -5 -45 -20 -21 -20 -20 -29 1 -28 0 -62 7
-62 8 -12 -29 -11 -29 10 -90 11 -90 12 -33 11 -32 128 0 129 0 25 10 25 9 7
26 6 26 -16 44 -17 44 15 29 15 30 32 11 31 11 18 -10 18 -10 21 -26 21 -27 0
-49 0 -49 -11 -44 -11 -43 12 -22 12 -22 81 4 82 5 55 22 55 21 16 13 15 12
-7 141 -7 141 -12 22 -12 23 -36 -6 -37 -5 -35 -6 -35 -7 -28 22 -27 21 0 39
0 39 24 28 24 27 65 -13 65 -13 22 7 21 7 10 25 9 24 0 97 -1 97 -12 17 -13
16 -128 17 -128 16 -24 9 -24 10 0 10 0 10 12 46 13 46 -24 19 -23 19 -37 0
-36 0 -30 -16z"/>
</g>
</svg>
