<?xml version="1.0" standalone="no"?>
<!DOCTYPE svg PUBLIC "-//W3C//DTD SVG 20010904//EN"
 "http://www.w3.org/TR/2001/REC-SVG-20010904/DTD/svg10.dtd">
<svg version="1.0" xmlns="http://www.w3.org/2000/svg"
 width="79.000000pt" height="100.000000pt" viewBox="0 0 79.000000 100.000000"
 preserveAspectRatio="xMidYMid meet">
<metadata>
Created by potrace 1.16, written by Peter Selinger 2001-2019
</metadata>
<g transform="translate(0.000000,100.000000) scale(0.100000,-0.100000)"
fill="#000000" stroke="none">
<path d="M355 984 l-30 -15 -17 -22 -18 -22 0 -28 0 -27 12 -20 13 -20 -11
-17 -11 -18 -34 -7 -34 -8 -91 6 -91 6 -5 -49 -6 -48 7 -57 7 -58 20 -27 20
-27 29 -9 29 -10 45 12 44 12 9 -13 9 -13 -3 -68 -4 -67 -22 -22 -22 -22 -37
0 -38 1 -52 8 -52 8 -12 -29 -11 -29 11 -82 12 -82 10 -30 11 -31 118 0 119 0
24 9 24 9 7 18 7 18 -17 47 -17 47 13 32 13 32 33 14 33 14 17 0 16 0 34 -34
34 -34 0 -64 0 -63 -10 -34 -9 -34 10 -18 10 -19 53 0 52 0 55 16 54 16 35 19
35 20 -6 133 -6 132 -13 23 -12 23 -31 -7 -32 -6 -40 -5 -40 -6 -28 22 -27 21
0 48 0 48 22 28 21 27 51 -6 51 -6 25 -6 25 -5 20 15 20 14 3 104 2 103 -13
17 -13 16 -128 17 -128 16 -24 9 -24 10 0 23 0 24 12 33 11 33 -23 19 -22 18
-27 0 -26 0 -30 -16z"/>
</g>
</svg>
