<?xml version="1.0" standalone="no"?>
<!DOCTYPE svg PUBLIC "-//W3C//DTD SVG 20010904//EN"
 "http://www.w3.org/TR/2001/REC-SVG-20010904/DTD/svg10.dtd">
<svg version="1.0" xmlns="http://www.w3.org/2000/svg"
 width="105.000000pt" height="111.000000pt" viewBox="0 0 105.000000 111.000000"
 preserveAspectRatio="xMidYMid meet">
<metadata>
Created by potrace 1.16, written by Peter Selinger 2001-2019
</metadata>
<g transform="translate(0.000000,111.000000) scale(0.100000,-0.100000)"
fill="#000000" stroke="none">
<path d="M522 1100 l-33 -8 -7 -6 -6 -7 12 -19 12 -20 0 -38 0 -39 -21 -19
-21 -19 -111 -5 -112 -5 4 -121 3 -120 -58 9 -59 10 -43 -12 -43 -12 -19 -32
-20 -32 0 -53 0 -53 26 -26 25 -25 52 5 52 4 16 7 17 7 10 -33 11 -33 6 -90 6
-90 6 -28 5 -28 26 5 27 5 120 6 120 7 -3 -50 -4 -50 18 -33 17 -34 16 -12 16
-12 38 -1 38 0 30 31 31 32 -5 46 -5 46 -7 17 -7 18 26 10 27 10 114 -17 115
-16 15 13 15 13 21 67 20 67 -3 68 -3 68 -17 11 -17 10 -51 -16 -51 -17 -46
14 -45 14 -24 22 -24 22 0 33 0 32 13 10 12 10 63 -16 63 -17 27 15 27 16 12
24 13 25 0 128 0 127 -12 0 -13 0 -48 -24 -48 -25 -54 -11 -54 -11 -22 11 -21
12 6 26 7 27 5 40 5 40 -18 35 -18 35 -35 17 -35 18 -45 -1 -45 -1 -33 -8z"/>
</g>
</svg>
