<?xml version="1.0" standalone="no"?>
<!DOCTYPE svg PUBLIC "-//W3C//DTD SVG 20010904//EN"
 "http://www.w3.org/TR/2001/REC-SVG-20010904/DTD/svg10.dtd">
<svg version="1.0" xmlns="http://www.w3.org/2000/svg"
 width="103.000000pt" height="109.000000pt" viewBox="0 0 103.000000 109.000000"
 preserveAspectRatio="xMidYMid meet">
<metadata>
Created by potrace 1.16, written by Peter Selinger 2001-2019
</metadata>
<g transform="translate(0.000000,109.000000) scale(0.100000,-0.100000)"
fill="#000000" stroke="none">
<path d="M545 1086 l-10 -4 -29 -7 -29 -6 12 -12 11 -11 0 -51 0 -52 -21 -19
-21 -19 -111 -5 -112 -5 4 -124 4 -124 -24 6 -24 6 -36 6 -36 7 -42 -12 -42
-11 -19 -32 -20 -32 0 -43 0 -43 26 -26 26 -25 41 5 42 6 26 7 27 6 10 -34 11
-33 6 -90 6 -90 5 -25 4 -25 93 7 92 6 63 1 63 1 -11 -19 -10 -20 0 -31 0 -31
17 -32 16 -32 16 -12 16 -12 28 -1 28 0 30 31 31 32 -6 36 -6 36 -6 27 -6 28
28 11 29 11 114 -17 113 -16 14 12 14 11 20 65 20 65 0 58 0 58 -15 12 -14 12
-50 -17 -51 -17 -53 16 -53 15 -24 26 -23 25 1 37 2 37 14 14 14 15 66 -18 65
-18 26 17 26 17 9 25 10 25 0 115 0 116 -7 -4 -8 -4 -47 -22 -47 -22 -56 -12
-56 -11 -24 11 -25 12 0 20 0 20 11 42 12 43 -16 37 -15 36 -27 18 -26 17 -47
3 -47 3 -10 -3z"/>
</g>
</svg>
