<?xml version="1.0" standalone="no"?>
<!DOCTYPE svg PUBLIC "-//W3C//DTD SVG 20010904//EN"
 "http://www.w3.org/TR/2001/REC-SVG-20010904/DTD/svg10.dtd">
<svg version="1.0" xmlns="http://www.w3.org/2000/svg"
 width="93.000000pt" height="80.000000pt" viewBox="0 0 93.000000 80.000000"
 preserveAspectRatio="xMidYMid meet">
<metadata>
Created by potrace 1.16, written by Peter Selinger 2001-2019
</metadata>
<g transform="translate(0.000000,80.000000) scale(0.100000,-0.100000)"
fill="#000000" stroke="none">
<path d="M191 665 l1 -135 -13 -16 -13 -16 -30 5 -31 6 -27 6 -27 7 -25 -25
-26 -26 0 -38 0 -39 16 -22 15 -22 16 0 17 0 33 12 33 12 17 -16 16 -17 13
-133 13 -133 0 -1 1 -2 113 -7 112 -7 29 11 28 11 -6 33 -7 32 -6 33 -5 34 12
23 12 23 25 11 24 11 34 0 33 0 31 -26 31 -25 11 -41 11 -41 -11 -42 -11 -42
-5 -15 -6 -15 16 -17 16 -16 38 0 37 0 55 16 54 16 36 20 37 20 -24 47 -23 46
-21 79 -21 79 -10 19 -10 18 -29 0 -30 0 0 -12 0 -13 -10 15 -10 15 0 53 0 54
29 29 29 29 29 0 29 0 11 -11 11 -11 23 4 24 3 3 134 3 134 -13 9 -13 8 -358
0 -357 0 1 -135z"/>
</g>
</svg>
