<?xml version="1.0" standalone="no"?>
<!DOCTYPE svg PUBLIC "-//W3C//DTD SVG 20010904//EN"
 "http://www.w3.org/TR/2001/REC-SVG-20010904/DTD/svg10.dtd">
<svg version="1.0" xmlns="http://www.w3.org/2000/svg"
 width="101.000000pt" height="97.000000pt" viewBox="0 0 101.000000 97.000000"
 preserveAspectRatio="xMidYMid meet">
<metadata>
Created by potrace 1.16, written by Peter Selinger 2001-2019
</metadata>
<g transform="translate(0.000000,97.000000) scale(0.100000,-0.100000)"
fill="#000000" stroke="none">
<path d="M531 960 l-24 -10 7 -38 6 -37 6 -26 6 -26 -31 -32 -30 -31 -18 0
-18 1 -16 12 -16 12 -17 34 -18 34 5 26 5 26 8 24 7 24 -159 -8 -159 -7 -1 -1
-2 -2 -7 -157 -7 -157 73 5 74 6 45 -24 45 -23 3 -17 3 -17 -38 -25 -39 -26
-57 -11 -58 -12 -25 12 -25 11 -23 0 -24 0 -6 -16 -6 -16 0 -40 0 -40 30 -90
30 -89 0 -12 0 -12 124 3 123 4 33 -17 32 -17 -7 -21 -7 -22 -5 -33 -5 -32 13
-16 13 -16 26 -10 25 -10 73 7 73 7 6 15 6 16 -11 18 -12 19 23 14 22 13 70
17 70 17 40 22 40 22 3 1 3 2 -15 105 -16 105 6 31 7 31 9 6 10 6 11 -11 11
-11 41 0 41 0 24 17 25 17 12 16 12 15 1 63 0 62 -19 19 -20 20 -33 6 -33 6
-49 -10 -48 -9 6 57 6 56 6 76 6 75 -78 12 -79 12 -60 5 -60 5 -24 -10z"/>
</g>
</svg>
