<?xml version="1.0" standalone="no"?>
<!DOCTYPE svg PUBLIC "-//W3C//DTD SVG 20010904//EN"
 "http://www.w3.org/TR/2001/REC-SVG-20010904/DTD/svg10.dtd">
<svg version="1.0" xmlns="http://www.w3.org/2000/svg"
 width="99.000000pt" height="95.000000pt" viewBox="0 0 99.000000 95.000000"
 preserveAspectRatio="xMidYMid meet">
<metadata>
Created by potrace 1.16, written by Peter Selinger 2001-2019
</metadata>
<g transform="translate(0.000000,95.000000) scale(0.100000,-0.100000)"
fill="#000000" stroke="none">
<path d="M531 939 l-23 -9 6 -28 6 -27 6 -36 6 -36 -31 -32 -30 -31 -28 0 -28
1 -16 12 -16 12 -16 32 -17 32 0 31 0 31 11 21 11 21 -148 -8 -149 -7 -1 -2
-2 -1 -7 -146 -7 -145 66 4 67 4 43 -16 44 -17 17 -19 18 -19 -16 -25 -16 -24
-43 -20 -43 -21 -48 -7 -49 -7 -40 14 -40 13 -9 -15 -9 -14 0 -34 0 -33 30
-90 30 -89 0 -12 0 -12 124 3 125 3 31 -16 32 -17 -6 -29 -6 -29 -6 -28 -6
-27 22 -20 22 -20 75 2 76 2 9 9 10 10 -13 21 -14 21 16 15 16 16 79 20 79 21
40 21 40 22 2 0 2 0 -15 95 -15 95 6 43 6 43 16 6 16 6 18 -11 19 -12 28 0 28
0 24 17 25 17 12 16 12 15 1 48 0 48 -10 19 -10 18 -33 11 -33 11 -54 -10 -53
-10 -5 5 -5 4 12 127 12 126 -3 3 -3 3 -112 16 -112 16 -13 -1 -13 0 -24 -10z"/>
</g>
</svg>
