<?xml version="1.0" standalone="no"?>
<!DOCTYPE svg PUBLIC "-//W3C//DTD SVG 20010904//EN"
 "http://www.w3.org/TR/2001/REC-SVG-20010904/DTD/svg10.dtd">
<svg version="1.0" xmlns="http://www.w3.org/2000/svg"
 width="95.000000pt" height="91.000000pt" viewBox="0 0 95.000000 91.000000"
 preserveAspectRatio="xMidYMid meet">
<metadata>
Created by potrace 1.16, written by Peter Selinger 2001-2019
</metadata>
<g transform="translate(0.000000,91.000000) scale(0.100000,-0.100000)"
fill="#000000" stroke="none">
<path d="M207 777 l6 -133 -12 -23 -13 -23 -31 6 -32 7 -26 5 -26 6 -32 -16
-31 -16 -6 -27 -7 -26 10 -16 10 -15 26 -19 26 -20 49 -5 49 -4 7 11 7 11 29
0 28 0 6 -16 6 -16 0 -52 0 -51 -20 -73 -20 -72 0 -11 0 -12 88 6 89 7 33 -10
34 -10 7 -11 7 -12 -14 -33 -14 -33 0 -24 0 -24 18 -16 19 -17 89 0 90 0 22
16 22 15 0 24 0 24 -10 6 -10 6 0 14 0 14 21 12 21 11 95 13 95 13 5 5 5 6
-16 63 -15 63 -12 68 -11 68 -15 15 -16 15 -16 -7 -16 -7 -30 -4 -30 -5 -19
20 -18 20 -5 41 -6 41 13 30 13 31 30 16 31 16 84 -6 83 -6 -5 17 -5 17 -7
108 -6 108 -17 -6 -16 -7 -119 -24 -118 -24 -10 -6 -9 -6 6 -38 7 -38 -21 -11
-20 -11 -64 0 -64 0 -27 25 -26 24 0 12 0 12 12 40 12 39 -19 14 -19 14 -107
0 -108 0 6 -133z"/>
</g>
</svg>
