<?xml version="1.0" standalone="no"?>
<!DOCTYPE svg PUBLIC "-//W3C//DTD SVG 20010904//EN"
 "http://www.w3.org/TR/2001/REC-SVG-20010904/DTD/svg10.dtd">
<svg version="1.0" xmlns="http://www.w3.org/2000/svg"
 width="96.000000pt" height="81.000000pt" viewBox="0 0 96.000000 81.000000"
 preserveAspectRatio="xMidYMid meet">
<metadata>
Created by potrace 1.16, written by Peter Selinger 2001-2019
</metadata>
<g transform="translate(0.000000,81.000000) scale(0.100000,-0.100000)"
fill="#000000" stroke="none">
<path d="M9 777 l-12 -28 5 -77 6 -77 13 -43 13 -43 29 -25 29 -24 44 0 45 0
21 11 21 12 14 -19 13 -18 0 -37 0 -38 -24 -27 -23 -28 -31 13 -32 13 -24 -6
-24 -6 -7 -17 -7 -18 -23 -85 -22 -85 -14 -32 -13 -32 4 -5 5 -4 162 -13 163
-13 6 6 5 6 -12 79 -12 80 7 27 7 27 19 19 20 20 15 -6 16 -6 20 -41 21 -40
-5 -51 -5 -51 -7 -33 -7 -33 18 -14 19 -14 59 -1 58 0 93 22 92 22 20 45 20
46 12 65 12 65 11 27 10 28 6 0 6 0 34 -12 34 -13 14 20 14 19 0 84 0 84 -30
30 -30 30 -70 -4 -70 -3 7 119 6 119 -124 -5 -124 -4 -22 -12 -23 -13 0 -19 0
-20 13 -21 12 -21 -35 -29 -34 -29 -47 0 -48 0 -16 17 -17 16 6 31 6 31 6 28
6 27 -33 14 -34 14 -122 3 -123 4 -11 -28z"/>
</g>
</svg>
