<?xml version="1.0" standalone="no"?>
<!DOCTYPE svg PUBLIC "-//W3C//DTD SVG 20010904//EN"
 "http://www.w3.org/TR/2001/REC-SVG-20010904/DTD/svg10.dtd">
<svg version="1.0" xmlns="http://www.w3.org/2000/svg"
 width="92.000000pt" height="97.000000pt" viewBox="0 0 92.000000 97.000000"
 preserveAspectRatio="xMidYMid meet">
<metadata>
Created by potrace 1.16, written by Peter Selinger 2001-2019
</metadata>
<g transform="translate(0.000000,97.000000) scale(0.100000,-0.100000)"
fill="#000000" stroke="none">
<path d="M195 882 l7 -88 -12 -43 -11 -43 -32 6 -32 5 -30 6 -31 7 -24 -20
-25 -20 0 -86 0 -85 17 -18 18 -17 0 12 0 12 23 0 24 0 15 -17 16 -18 12 -58
12 -59 21 -61 22 -62 112 3 112 3 21 -21 20 -20 -15 -36 -15 -36 0 -20 0 -19
15 -29 15 -30 30 -15 29 -15 35 0 35 0 16 16 15 16 16 30 16 30 5 54 6 54 -13
15 -12 15 5 14 6 15 34 6 33 7 75 -11 74 -10 30 -6 30 -7 -3 358 -3 358 -2 2
-2 3 -115 -14 -114 -14 -13 -14 -13 -13 16 -40 15 -39 -10 -28 -11 -27 -32
-20 -33 -20 -38 0 -39 0 -29 29 -29 29 0 25 0 25 16 37 15 37 -17 19 -17 19
-36 10 -36 10 -99 0 -98 0 7 -88z"/>
</g>
</svg>
