<?xml version="1.0" standalone="no"?>
<!DOCTYPE svg PUBLIC "-//W3C//DTD SVG 20010904//EN"
 "http://www.w3.org/TR/2001/REC-SVG-20010904/DTD/svg10.dtd">
<svg version="1.0" xmlns="http://www.w3.org/2000/svg"
 width="83.000000pt" height="80.000000pt" viewBox="0 0 83.000000 80.000000"
 preserveAspectRatio="xMidYMid meet">
<metadata>
Created by potrace 1.16, written by Peter Selinger 2001-2019
</metadata>
<g transform="translate(0.000000,80.000000) scale(0.100000,-0.100000)"
fill="#000000" stroke="none">
<path d="M24 757 l1 -42 -9 -107 -8 -108 18 0 19 1 44 8 44 9 29 -10 28 -10
10 -18 10 -19 0 -39 0 -39 -27 -27 -26 -26 -24 -6 -25 -7 -22 13 -23 12 -24
-4 -23 -3 -9 -38 -9 -38 12 -98 12 -98 7 -11 7 -12 120 -6 119 -6 28 11 27 11
0 26 0 27 -12 40 -12 40 28 23 27 24 28 0 27 0 28 -28 27 -29 5 -35 6 -35 -11
-7 -11 -7 0 -33 0 -34 15 -12 15 -13 88 5 87 5 61 18 60 17 22 83 22 83 0 60
0 60 -6 16 -6 16 -34 0 -34 0 -19 -11 -18 -12 -37 7 -37 7 -31 28 -31 27 8 23
7 22 34 16 33 16 26 -11 26 -12 29 0 29 0 12 22 12 22 -5 133 -5 134 -6 5 -5
6 -122 -16 -121 -16 -20 -10 -19 -11 0 -14 0 -15 12 -20 12 -19 -10 -28 -9
-27 -35 -24 -35 -24 -52 4 -53 5 -21 19 -21 19 7 40 7 40 5 32 5 31 -26 17
-25 17 -63 4 -63 4 -51 4 -51 4 1 -41z"/>
</g>
</svg>
