<?xml version="1.0" standalone="no"?>
<!DOCTYPE svg PUBLIC "-//W3C//DTD SVG 20010904//EN"
 "http://www.w3.org/TR/2001/REC-SVG-20010904/DTD/svg10.dtd">
<svg version="1.0" xmlns="http://www.w3.org/2000/svg"
 width="120.000000pt" height="76.000000pt" viewBox="0 0 120.000000 76.000000"
 preserveAspectRatio="xMidYMid meet">
<metadata>
Created by potrace 1.16, written by Peter Selinger 2001-2019
</metadata>
<g transform="translate(0.000000,76.000000) scale(0.100000,-0.100000)"
fill="#000000" stroke="none">
<path d="M200 658 l0 -105 -21 -28 -22 -27 -41 5 -41 5 -27 7 -28 7 -10 -27
-10 -26 0 -87 0 -87 10 -15 9 -14 25 13 25 14 15 -6 15 -6 21 -73 20 -73 25
-53 25 -52 0 -13 0 -12 170 -3 170 -4 0 26 0 25 -10 6 -10 6 0 35 0 36 29 29
29 29 19 -7 18 -6 12 -9 12 -10 -10 -24 -9 -25 0 -34 0 -33 33 -10 32 -10 136
-6 136 -6 21 47 20 48 12 60 12 60 11 20 10 20 10 7 11 7 29 -16 30 -15 23 11
23 10 14 23 15 23 6 37 7 37 -16 37 -15 36 -37 -6 -38 -7 -31 -5 -30 -6 -31
26 -30 25 -14 48 -14 48 0 83 0 82 -137 0 -137 0 -25 -10 -26 -10 0 -22 0 -22
12 -32 12 -33 -19 -21 -18 -20 -36 0 -36 0 -12 8 -12 8 9 14 10 15 0 28 0 28
-10 18 -9 19 -43 17 -43 17 -112 6 -113 5 0 -105z"/>
</g>
</svg>
