<?xml version="1.0" standalone="no"?>
<!DOCTYPE svg PUBLIC "-//W3C//DTD SVG 20010904//EN"
 "http://www.w3.org/TR/2001/REC-SVG-20010904/DTD/svg10.dtd">
<svg version="1.0" xmlns="http://www.w3.org/2000/svg"
 width="98.000000pt" height="98.000000pt" viewBox="0 0 98.000000 98.000000"
 preserveAspectRatio="xMidYMid meet">
<metadata>
Created by potrace 1.16, written by Peter Selinger 2001-2019
</metadata>
<g transform="translate(0.000000,98.000000) scale(0.100000,-0.100000)"
fill="#000000" stroke="none">
<path d="M219 973 l-2 -8 3 -80 2 -81 -12 -44 -11 -45 -16 -12 -15 -12 -39 16
-39 15 -25 -6 -26 -7 -19 -32 -20 -32 0 -32 0 -33 20 -20 19 -19 26 -7 26 -6
62 4 62 5 15 6 15 7 14 -9 15 -9 -2 -55 -1 -54 -26 -82 -26 -83 5 -14 5 -14
109 0 108 0 19 -13 18 -14 -7 -29 -8 -29 -5 -42 -5 -42 24 -24 24 -24 48 -6
47 -7 29 15 28 15 23 31 23 32 -1 46 -1 46 -3 19 -4 20 25 7 25 7 106 -5 106
-6 6 10 6 9 -13 137 -13 136 -13 15 -12 16 -24 0 -23 0 -27 -12 -26 -12 -19
23 -19 23 0 30 0 29 25 25 26 26 17 -8 17 -7 41 -5 40 -4 11 14 11 13 3 55 3
55 -2 93 -2 92 -375 0 -375 0 -1 -7z"/>
</g>
</svg>
