<?xml version="1.0" standalone="no"?>
<!DOCTYPE svg PUBLIC "-//W3C//DTD SVG 20010904//EN"
 "http://www.w3.org/TR/2001/REC-SVG-20010904/DTD/svg10.dtd">
<svg version="1.0" xmlns="http://www.w3.org/2000/svg"
 width="96.000000pt" height="96.000000pt" viewBox="0 0 96.000000 96.000000"
 preserveAspectRatio="xMidYMid meet">
<metadata>
Created by potrace 1.16, written by Peter Selinger 2001-2019
</metadata>
<g transform="translate(0.000000,96.000000) scale(0.100000,-0.100000)"
fill="#000000" stroke="none">
<path d="M219 953 l0 -8 1 -81 1 -81 -12 -47 -12 -47 -19 -10 -20 -11 -44 17
-45 17 -23 -15 -23 -15 -13 -31 -12 -31 6 -25 6 -25 32 -16 31 -16 61 5 61 6
25 6 25 5 15 -9 15 -10 -2 -63 -2 -63 -25 -79 -25 -80 5 -8 5 -8 110 0 109 0
19 -19 20 -20 -11 -33 -10 -33 -5 -30 -5 -31 19 -23 19 -23 44 -8 45 -8 26 14
27 14 20 27 20 28 6 30 6 30 -15 29 -16 30 16 15 16 16 124 -2 124 -3 4 8 4 7
-12 128 -12 128 -16 16 -17 17 -33 -12 -33 -12 -17 0 -16 0 -15 22 -16 22 0
39 0 38 26 26 25 25 27 -7 27 -6 31 -6 30 -5 11 14 11 13 2 45 3 45 -2 93 -1
92 -365 0 -365 0 -1 -7z"/>
</g>
</svg>
