<?xml version="1.0" standalone="no"?>
<!DOCTYPE svg PUBLIC "-//W3C//DTD SVG 20010904//EN"
 "http://www.w3.org/TR/2001/REC-SVG-20010904/DTD/svg10.dtd">
<svg version="1.0" xmlns="http://www.w3.org/2000/svg"
 width="95.000000pt" height="77.000000pt" viewBox="0 0 95.000000 77.000000"
 preserveAspectRatio="xMidYMid meet">
<metadata>
Created by potrace 1.16, written by Peter Selinger 2001-2019
</metadata>
<g transform="translate(0.000000,77.000000) scale(0.100000,-0.100000)"
fill="#000000" stroke="none">
<path d="M672 753 l-24 -19 17 -51 17 -51 -20 -44 -19 -44 -36 -17 -35 -17
-21 0 -20 0 -25 12 -26 11 -6 19 -5 18 12 76 12 75 -15 15 -15 15 -69 5 -69 5
-65 -8 -65 -8 -5 -139 -5 -140 -57 3 -57 2 -24 -15 -24 -16 -11 -25 -12 -25 7
-31 6 -31 31 -19 31 -19 45 0 45 0 35 10 35 10 12 -17 13 -16 -6 -26 -5 -26
-11 -45 -11 -45 -24 -54 -23 -53 0 -14 0 -14 153 0 153 0 23 16 23 17 -7 41
-7 41 -5 33 -5 32 12 15 12 15 33 0 33 0 31 -29 31 -29 0 -20 0 -21 -10 -6
-10 -6 0 -29 0 -29 30 -16 29 -15 121 0 122 0 -6 37 -5 38 -6 85 -6 85 -11 34
-10 33 -37 -6 -36 -6 -32 -6 -32 -6 -25 25 -26 26 0 33 0 33 20 32 19 32 40
11 40 10 43 -10 43 -10 18 0 17 0 0 83 0 82 -6 52 -7 51 -31 6 -31 7 -90 6
-90 6 -23 -20z"/>
</g>
</svg>
