<?xml version="1.0" standalone="no"?>
<!DOCTYPE svg PUBLIC "-//W3C//DTD SVG 20010904//EN"
 "http://www.w3.org/TR/2001/REC-SVG-20010904/DTD/svg10.dtd">
<svg version="1.0" xmlns="http://www.w3.org/2000/svg"
 width="93.000000pt" height="75.000000pt" viewBox="0 0 93.000000 75.000000"
 preserveAspectRatio="xMidYMid meet">
<metadata>
Created by potrace 1.16, written by Peter Selinger 2001-2019
</metadata>
<g transform="translate(0.000000,75.000000) scale(0.100000,-0.100000)"
fill="#000000" stroke="none">
<path d="M674 736 l-22 -16 14 -37 13 -38 0 -20 1 -20 -19 -41 -18 -41 -36
-16 -35 -17 -31 0 -30 0 -26 12 -25 11 -7 25 -6 24 12 71 12 71 -16 15 -16 16
-113 -1 -114 -1 -11 -7 -11 -7 0 -132 0 -132 -8 -12 -8 -12 -14 9 -15 10 -40
0 -40 0 -21 -18 -21 -17 -10 -18 -10 -19 5 -25 5 -25 31 -19 31 -19 33 0 33 0
46 12 46 11 14 -19 14 -19 -6 -40 -6 -40 -20 -65 -21 -64 -14 -28 -14 -27 0
-6 0 -5 144 0 144 0 22 18 23 18 -16 64 -17 64 15 23 15 23 41 0 41 0 28 -20
28 -20 10 -29 10 -29 -13 -19 -14 -18 -1 -17 0 -17 30 -16 29 -15 111 0 111 0
-4 18 -5 17 -7 95 -6 95 -11 33 -10 34 -27 -6 -26 -7 -42 -6 -41 -5 -26 25
-26 26 0 43 0 43 20 32 19 32 42 11 42 12 36 -7 36 -6 23 -6 22 -5 0 73 0 74
-6 52 -7 51 -30 6 -30 6 -81 6 -81 6 -21 -16z"/>
</g>
</svg>
