<?xml version="1.0" standalone="no"?>
<!DOCTYPE svg PUBLIC "-//W3C//DTD SVG 20010904//EN"
 "http://www.w3.org/TR/2001/REC-SVG-20010904/DTD/svg10.dtd">
<svg version="1.0" xmlns="http://www.w3.org/2000/svg"
 width="103.000000pt" height="114.000000pt" viewBox="0 0 103.000000 114.000000"
 preserveAspectRatio="xMidYMid meet">
<metadata>
Created by potrace 1.16, written by Peter Selinger 2001-2019
</metadata>
<g transform="translate(0.000000,114.000000) scale(0.100000,-0.100000)"
fill="#000000" stroke="none">
<path d="M540 1127 l-25 -13 2 -20 1 -19 12 -40 11 -40 -10 -27 -10 -27 -33
-17 -33 -18 -110 -5 -110 -6 3 -100 2 -100 5 -22 5 -22 -83 6 -83 6 -31 -16
-30 -16 -13 -31 -13 -30 6 -41 5 -41 18 -20 19 -20 30 5 30 4 16 7 16 7 15
-15 15 -15 17 -93 17 -93 11 -38 12 -39 162 7 163 8 -15 -42 -14 -42 10 -40
11 -39 25 -16 24 -17 46 6 45 5 5 5 5 5 -12 20 -13 20 12 15 13 15 92 22 92
23 45 20 45 21 12 16 12 15 21 59 20 60 0 57 0 58 -19 6 -19 6 -25 -12 -25
-12 -44 7 -43 7 -39 22 -39 22 -20 27 -20 27 13 31 13 31 36 18 36 18 33 6 33
7 35 -15 34 -14 10 20 11 19 -7 125 -7 125 -16 -4 -16 -5 -102 -11 -103 -11
-36 7 -36 7 -5 14 -6 14 13 58 12 59 -12 36 -12 36 -21 15 -21 15 -26 0 -25 0
-25 -13z"/>
</g>
</svg>
