<?xml version="1.0" standalone="no"?>
<!DOCTYPE svg PUBLIC "-//W3C//DTD SVG 20010904//EN"
 "http://www.w3.org/TR/2001/REC-SVG-20010904/DTD/svg10.dtd">
<svg version="1.0" xmlns="http://www.w3.org/2000/svg"
 width="118.000000pt" height="97.000000pt" viewBox="0 0 118.000000 97.000000"
 preserveAspectRatio="xMidYMid meet">
<metadata>
Created by potrace 1.16, written by Peter Selinger 2001-2019
</metadata>
<g transform="translate(0.000000,97.000000) scale(0.100000,-0.100000)"
fill="#000000" stroke="none">
<path d="M733 960 l-23 -9 0 -7 0 -8 11 -31 12 -32 -7 -27 -7 -27 -32 -19 -32
-20 -58 0 -58 0 -29 15 -30 15 -6 26 -7 26 17 36 18 36 -19 14 -18 14 -59 -6
-59 -6 -53 0 -54 0 0 -114 0 -115 -10 -25 -9 -25 -26 -17 -26 -17 -65 18 -66
18 -14 -15 -14 -14 -2 -37 -1 -37 23 -25 24 -26 53 -15 53 -16 51 17 50 17 14
-12 15 -12 0 -58 0 -58 -19 -59 -19 -58 -6 -16 -7 -17 99 -4 99 -4 27 -18 28
-18 -6 -26 -7 -27 -5 -45 -6 -45 21 -19 21 -19 55 -5 55 -4 30 12 31 13 19 25
20 25 0 33 0 33 -10 6 -10 6 0 9 0 9 19 11 20 10 110 14 111 15 9 6 9 5 16 48
16 47 15 75 15 75 11 28 11 27 17 0 17 0 11 -11 11 -11 21 12 22 11 9 25 10
25 0 34 0 34 -10 25 -10 26 -17 0 -17 0 -43 -16 -42 -16 -26 6 -26 7 -9 25
-10 25 0 108 0 108 -37 6 -38 6 -70 6 -70 5 -22 -10z"/>
</g>
</svg>
