<?xml version="1.0" standalone="no"?>
<!DOCTYPE svg PUBLIC "-//W3C//DTD SVG 20010904//EN"
 "http://www.w3.org/TR/2001/REC-SVG-20010904/DTD/svg10.dtd">
<svg version="1.0" xmlns="http://www.w3.org/2000/svg"
 width="100.000000pt" height="97.000000pt" viewBox="0 0 100.000000 97.000000"
 preserveAspectRatio="xMidYMid meet">
<metadata>
Created by potrace 1.16, written by Peter Selinger 2001-2019
</metadata>
<g transform="translate(0.000000,97.000000) scale(0.100000,-0.100000)"
fill="#000000" stroke="none">
<path d="M499 949 l-22 -22 7 -56 6 -56 6 -27 6 -28 -27 -10 -26 -10 -106 0
-106 0 6 -122 7 -123 -8 -13 -9 -13 -28 11 -29 11 -41 -7 -40 -6 -36 -18 -35
-18 -12 -27 -12 -26 0 -18 0 -18 21 -27 21 -27 40 -20 41 -21 52 -5 52 -5 19
9 19 10 13 -4 12 -5 0 -48 0 -49 -25 -69 -25 -69 0 -12 0 -11 95 0 96 0 34 14
34 15 7 25 6 26 -5 33 -5 32 -7 22 -7 23 27 10 26 10 39 0 39 0 26 -12 26 -12
14 -26 14 -26 -10 -15 -9 -14 0 -31 0 -32 15 -12 14 -12 128 -8 128 -9 9 10
10 9 -22 62 -22 63 -11 55 -11 55 -16 18 -15 17 -38 0 -38 0 -7 36 -6 35 5 47
5 46 23 19 23 18 20 -7 21 -6 42 -5 42 -5 12 44 11 43 -6 90 -7 90 -7 7 -7 7
-126 9 -126 9 -21 12 -22 12 0 9 0 9 10 6 10 6 0 41 0 41 -26 34 -25 33 -65 0
-64 0 -21 -21z"/>
</g>
</svg>
