<?xml version="1.0" standalone="no"?>
<!DOCTYPE svg PUBLIC "-//W3C//DTD SVG 20010904//EN"
 "http://www.w3.org/TR/2001/REC-SVG-20010904/DTD/svg10.dtd">
<svg version="1.0" xmlns="http://www.w3.org/2000/svg"
 width="98.000000pt" height="95.000000pt" viewBox="0 0 98.000000 95.000000"
 preserveAspectRatio="xMidYMid meet">
<metadata>
Created by potrace 1.16, written by Peter Selinger 2001-2019
</metadata>
<g transform="translate(0.000000,95.000000) scale(0.100000,-0.100000)"
fill="#000000" stroke="none">
<path d="M499 929 l-21 -21 5 -42 6 -41 7 -42 7 -43 -27 -10 -27 -10 -106 0
-106 0 7 -120 7 -119 -10 -20 -11 -20 -34 14 -35 15 -33 -7 -33 -6 -36 -18
-36 -18 -13 -31 -13 -31 20 -27 20 -27 39 -22 39 -22 43 -7 44 -7 25 12 25 12
19 -6 19 -6 0 -58 0 -58 -19 -54 -19 -54 -7 -17 -7 -18 86 0 87 0 34 14 34 15
7 26 6 25 -6 28 -7 27 -6 27 -5 28 27 10 26 10 50 0 50 0 28 -15 28 -14 12
-30 13 -29 -11 -20 -11 -21 0 -19 0 -20 15 -12 15 -12 117 -8 118 -7 7 6 8 7
-19 49 -19 50 -12 60 -12 60 -16 18 -15 17 -24 0 -23 0 0 -12 0 -12 -17 17
-18 18 0 85 0 86 25 20 24 20 31 -7 30 -6 32 -5 32 -6 11 43 12 44 -7 83 -7
83 -11 5 -12 4 -121 9 -121 8 -21 12 -22 12 0 19 0 19 10 6 10 6 0 31 0 31
-26 34 -25 33 -55 0 -54 0 -21 -21z"/>
</g>
</svg>
