<?xml version="1.0" standalone="no"?>
<!DOCTYPE svg PUBLIC "-//W3C//DTD SVG 20010904//EN"
 "http://www.w3.org/TR/2001/REC-SVG-20010904/DTD/svg10.dtd">
<svg version="1.0" xmlns="http://www.w3.org/2000/svg"
 width="77.000000pt" height="94.000000pt" viewBox="0 0 77.000000 94.000000"
 preserveAspectRatio="xMidYMid meet">
<metadata>
Created by potrace 1.16, written by Peter Selinger 2001-2019
</metadata>
<g transform="translate(0.000000,94.000000) scale(0.100000,-0.100000)"
fill="#000000" stroke="none">
<path d="M200 933 l-35 -3 -83 -6 -84 -6 4 -135 3 -135 19 -14 20 -14 28 0 28
0 40 16 41 17 11 -11 10 -10 5 -44 4 -43 -14 -25 -13 -25 -45 3 -45 3 -11 -24
-11 -23 -17 -84 -17 -83 -14 -40 -14 -40 0 -13 0 -14 103 0 103 0 18 -13 17
-13 -10 -27 -11 -28 0 -25 0 -25 26 -24 27 -25 77 0 76 0 19 14 18 13 -6 36
-6 37 9 5 10 6 107 20 108 21 32 13 33 14 0 154 0 153 -13 19 -14 18 -44 -7
-44 -8 -24 -1 -23 -2 -11 16 -10 16 7 27 7 27 44 20 45 20 19 -11 20 -10 27 0
27 0 -7 152 -7 153 -4 3 -4 4 -128 5 -128 5 -20 -15 -20 -15 13 -34 12 -34 0
-25 -1 -24 -12 -23 -13 -23 -28 -14 -28 -15 -23 0 -23 0 -25 30 -25 29 -7 40
-7 41 12 35 11 35 -6 10 -6 10 -32 -2 -32 -1 -35 -4z"/>
</g>
</svg>
