<?xml version="1.0" standalone="no"?>
<!DOCTYPE svg PUBLIC "-//W3C//DTD SVG 20010904//EN"
 "http://www.w3.org/TR/2001/REC-SVG-20010904/DTD/svg10.dtd">
<svg version="1.0" xmlns="http://www.w3.org/2000/svg"
 width="117.000000pt" height="93.000000pt" viewBox="0 0 117.000000 93.000000"
 preserveAspectRatio="xMidYMid meet">
<metadata>
Created by potrace 1.16, written by Peter Selinger 2001-2019
</metadata>
<g transform="translate(0.000000,93.000000) scale(0.100000,-0.100000)"
fill="#000000" stroke="none">
<path d="M495 907 l-15 -23 16 -63 16 -63 -16 -16 -17 -17 -145 -5 -146 -5 1
-135 1 -135 -9 -13 -8 -14 -47 16 -47 16 -24 -6 -24 -6 -15 -24 -16 -23 0 -25
0 -25 9 -25 10 -25 38 -25 38 -26 32 0 32 0 6 10 6 10 20 0 19 0 10 -26 10
-26 -10 -64 -10 -63 -11 -27 -10 -27 6 -15 5 -14 119 4 119 3 27 25 27 25 -6
35 -5 35 -3 24 -3 24 30 9 30 9 60 -6 61 -6 13 -8 13 -8 -11 -7 -11 -7 0 -24
0 -25 23 -14 22 -14 85 -22 85 -22 24 -5 24 -6 -8 19 -8 19 -23 73 -24 73 0
32 0 32 9 14 9 15 40 -13 40 -14 49 7 48 7 43 21 43 20 16 24 16 25 -18 19
-17 19 -44 17 -43 16 -66 -4 -66 -4 3 145 3 146 -120 5 -120 5 -22 13 -23 13
0 17 1 17 14 18 13 19 -10 29 -10 29 -28 20 -28 20 -41 0 -41 0 -15 -23z"/>
</g>
</svg>
