<?xml version="1.0" standalone="no"?>
<!DOCTYPE svg PUBLIC "-//W3C//DTD SVG 20010904//EN"
 "http://www.w3.org/TR/2001/REC-SVG-20010904/DTD/svg10.dtd">
<svg version="1.0" xmlns="http://www.w3.org/2000/svg"
 width="97.000000pt" height="74.000000pt" viewBox="0 0 97.000000 74.000000"
 preserveAspectRatio="xMidYMid meet">
<metadata>
Created by potrace 1.16, written by Peter Selinger 2001-2019
</metadata>
<g transform="translate(0.000000,74.000000) scale(0.100000,-0.100000)"
fill="#000000" stroke="none">
<path d="M227 733 l-47 -4 6 -114 7 -114 -13 -15 -12 -15 -29 14 -28 15 -21 0
-21 0 -21 -11 -20 -11 -14 -33 -14 -34 0 -40 0 -39 18 -31 17 -31 34 -16 33
-16 24 6 24 6 26 6 26 7 9 -14 9 -14 0 -45 0 -45 -19 -67 -18 -67 14 -5 15 -6
98 0 99 0 27 10 27 10 -7 43 -7 42 -6 41 -5 42 21 21 21 21 54 0 55 0 25 -33
26 -34 0 -27 0 -26 -12 -19 -11 -18 6 -16 6 -16 38 -9 38 -10 107 -6 106 -7
22 58 22 58 5 57 6 58 -12 13 -11 14 -58 -13 -57 -14 -31 6 -31 6 -27 21 -27
22 -9 40 -9 40 6 35 6 35 8 17 9 16 27 6 28 6 57 -14 58 -13 8 11 9 11 6 39 6
39 -6 79 -6 79 -16 -7 -16 -7 -95 -24 -95 -24 -15 -15 -15 -14 13 -20 12 -20
0 -13 0 -13 -30 -17 -30 -18 -60 -2 -60 -1 -27 20 -28 20 -17 35 -18 34 0 33
0 33 10 20 11 19 -83 -2 -83 -2 -48 -3z"/>
</g>
</svg>
