<?xml version="1.0" standalone="no"?>
<!DOCTYPE svg PUBLIC "-//W3C//DTD SVG 20010904//EN"
 "http://www.w3.org/TR/2001/REC-SVG-20010904/DTD/svg10.dtd">
<svg version="1.0" xmlns="http://www.w3.org/2000/svg"
 width="97.000000pt" height="77.000000pt" viewBox="0 0 97.000000 77.000000"
 preserveAspectRatio="xMidYMid meet">
<metadata>
Created by potrace 1.16, written by Peter Selinger 2001-2019
</metadata>
<g transform="translate(0.000000,77.000000) scale(0.100000,-0.100000)"
fill="#000000" stroke="none">
<path d="M195 624 l7 -147 -18 8 -19 8 -23 5 -23 4 -45 -17 -44 -17 -15 -29
-15 -29 6 -27 7 -28 10 -12 9 -13 33 0 32 0 33 12 33 11 14 -19 15 -19 -4
-151 -3 -150 85 3 85 4 40 5 41 5 31 19 32 19 7 36 6 35 -14 45 -15 45 11 9
11 9 27 7 26 7 22 -12 22 -12 14 -35 15 -35 -12 -51 -11 -52 3 -24 4 -25 35
-9 35 -9 120 12 120 12 4 3 3 4 19 68 19 68 0 51 0 52 -6 16 -6 16 -29 0 -28
0 -24 -11 -25 -11 -33 16 -34 16 -17 31 -18 31 0 29 0 30 14 34 15 35 25 12
26 11 40 -18 40 -18 15 13 15 12 0 72 0 71 -7 54 -6 53 -31 -5 -31 -6 -114
-20 -113 -20 -15 -13 -15 -12 5 -20 4 -21 8 -17 7 -17 -39 -11 -39 -12 -41 11
-42 12 -16 16 -16 16 10 10 11 11 0 39 0 38 -35 15 -34 14 -102 0 -101 0 7
-146z"/>
</g>
</svg>
