<?xml version="1.0" standalone="no"?>
<!DOCTYPE svg PUBLIC "-//W3C//DTD SVG 20010904//EN"
 "http://www.w3.org/TR/2001/REC-SVG-20010904/DTD/svg10.dtd">
<svg version="1.0" xmlns="http://www.w3.org/2000/svg"
 width="122.000000pt" height="118.000000pt" viewBox="0 0 122.000000 118.000000"
 preserveAspectRatio="xMidYMid meet">
<metadata>
Created by potrace 1.16, written by Peter Selinger 2001-2019
</metadata>
<g transform="translate(0.000000,118.000000) scale(0.100000,-0.100000)"
fill="#000000" stroke="none">
<path d="M535 1166 l-30 -13 -13 -27 -12 -27 0 -23 0 -24 15 -34 14 -35 -14
-19 -13 -19 -137 -3 -136 -4 1 -96 1 -97 0 -23 -1 -23 -19 11 -20 10 -48 0
-49 0 -22 -16 -22 -15 -15 -29 -15 -29 0 -51 0 -52 30 -30 31 -31 37 6 37 5
17 7 16 7 10 -19 10 -19 7 -99 6 -100 5 -31 4 -31 78 5 77 4 44 -12 43 -11 24
-24 24 -24 0 -31 0 -30 -10 0 -10 0 0 -25 0 -25 26 -10 25 -10 57 0 58 0 22
16 22 15 0 28 0 27 -10 10 -11 11 14 11 14 12 98 20 99 20 38 12 38 11 0 132
0 133 14 11 14 12 7 -11 6 -10 51 0 50 0 34 16 35 17 19 25 20 25 0 39 0 39
-14 32 -13 33 -26 17 -26 17 -39 0 -38 0 -11 -11 -12 -12 -25 16 -25 17 -10
37 -11 38 0 69 0 68 -22 -5 -23 -6 -73 -26 -74 -26 -46 3 -47 3 4 112 3 113
-35 35 -35 35 -28 0 -29 -1 -30 -13z"/>
</g>
</svg>
