<?xml version="1.0" standalone="no"?>
<!DOCTYPE svg PUBLIC "-//W3C//DTD SVG 20010904//EN"
 "http://www.w3.org/TR/2001/REC-SVG-20010904/DTD/svg10.dtd">
<svg version="1.0" xmlns="http://www.w3.org/2000/svg"
 width="118.000000pt" height="76.000000pt" viewBox="0 0 118.000000 76.000000"
 preserveAspectRatio="xMidYMid meet">
<metadata>
Created by potrace 1.16, written by Peter Selinger 2001-2019
</metadata>
<g transform="translate(0.000000,76.000000) scale(0.100000,-0.100000)"
fill="#000000" stroke="none">
<path d="M170 745 l0 -15 10 0 10 0 0 -125 0 -126 -16 -6 -15 -6 -12 12 -11
11 -39 0 -39 0 -29 -29 -29 -29 0 -60 0 -60 6 -16 6 -16 14 0 14 0 0 10 0 10
20 0 19 0 10 -18 10 -19 21 -79 21 -79 20 -41 19 -40 0 -10 0 -9 132 4 133 3
27 14 27 14 6 33 6 32 -15 42 -15 42 15 12 14 12 38 0 37 1 25 -7 25 -6 -3
-44 -4 -43 26 -12 26 -12 83 -20 82 -21 33 -20 33 -19 15 0 15 0 -7 118 -7
118 13 23 12 23 11 -11 11 -11 56 0 55 0 32 20 32 19 17 26 17 25 -5 45 -5 44
-16 15 -16 16 -30 0 -30 0 -25 -11 -25 -12 -26 7 -26 7 -19 42 -20 42 0 103 0
102 -385 0 -385 0 0 -15z"/>
</g>
</svg>
