<?xml version="1.0" standalone="no"?>
<!DOCTYPE svg PUBLIC "-//W3C//DTD SVG 20010904//EN"
 "http://www.w3.org/TR/2001/REC-SVG-20010904/DTD/svg10.dtd">
<svg version="1.0" xmlns="http://www.w3.org/2000/svg"
 width="96.000000pt" height="98.000000pt" viewBox="0 0 96.000000 98.000000"
 preserveAspectRatio="xMidYMid meet">
<metadata>
Created by potrace 1.16, written by Peter Selinger 2001-2019
</metadata>
<g transform="translate(0.000000,98.000000) scale(0.100000,-0.100000)"
fill="#000000" stroke="none">
<path d="M531 966 l-24 -13 -13 -24 -13 -24 -1 -21 0 -20 16 -48 16 -48 -16
-16 -17 -17 -127 2 -128 3 0 -125 1 -126 -15 -9 -15 -10 -15 6 -15 6 -38 11
-39 10 -33 -16 -34 -16 -12 -41 -12 -40 11 -39 12 -39 35 -16 35 -17 22 15 22
16 12 0 12 0 17 -26 16 -25 10 -92 9 -92 6 -34 7 -33 116 4 116 4 23 14 22 15
6 17 5 17 -16 31 -16 31 11 35 12 36 32 19 31 19 24 0 23 0 34 -34 34 -34 0
-26 0 -25 -12 -26 -12 -26 21 -20 20 -21 123 -10 122 -9 5 4 4 5 -17 108 -16
109 -10 37 -9 38 -23 6 -24 6 -20 -11 -21 -11 -20 0 -21 0 -15 24 -16 24 3 59
3 58 20 -4 20 -3 50 -5 50 -5 26 21 25 20 12 39 12 39 0 75 0 75 -5 5 -5 5
-72 -25 -73 -24 -67 -2 -67 -1 -11 11 -12 12 12 55 13 55 -5 56 -5 56 -23 25
-23 25 -31 0 -31 -1 -24 -13z"/>
</g>
</svg>
