<?xml version="1.0" standalone="no"?>
<!DOCTYPE svg PUBLIC "-//W3C//DTD SVG 20010904//EN"
 "http://www.w3.org/TR/2001/REC-SVG-20010904/DTD/svg10.dtd">
<svg version="1.0" xmlns="http://www.w3.org/2000/svg"
 width="75.000000pt" height="78.000000pt" viewBox="0 0 75.000000 78.000000"
 preserveAspectRatio="xMidYMid meet">
<metadata>
Created by potrace 1.16, written by Peter Selinger 2001-2019
</metadata>
<g transform="translate(0.000000,78.000000) scale(0.100000,-0.100000)"
fill="#000000" stroke="none">
<path d="M483 770 l-23 -9 0 -15 0 -15 11 -7 12 -7 -6 -57 -5 -57 -16 -30 -16
-31 -15 -16 -16 -16 -35 0 -35 0 -29 15 -30 15 -15 30 -15 29 0 19 0 20 15 36
15 36 -20 20 -20 20 -109 0 -109 0 -6 -52 -5 -53 -7 -69 -7 -68 21 11 21 11
31 0 31 0 30 -15 30 -16 19 -32 20 -32 0 -37 0 -37 -26 -20 -27 -21 -33 0 -33
0 -25 11 -25 12 -17 -14 -17 -14 6 -115 7 -116 11 -32 11 -32 109 0 110 0 29
15 30 16 0 25 0 25 -15 29 -15 29 10 25 9 25 27 17 27 18 32 0 32 0 25 -16 25
-17 18 -37 17 -37 -12 -53 -13 -53 13 -16 12 -15 61 0 60 0 64 11 63 11 0 363
0 362 -57 11 -58 11 -65 6 -65 5 -22 -10z"/>
</g>
</svg>
