<?xml version="1.0" standalone="no"?>
<!DOCTYPE svg PUBLIC "-//W3C//DTD SVG 20010904//EN"
 "http://www.w3.org/TR/2001/REC-SVG-20010904/DTD/svg10.dtd">
<svg version="1.0" xmlns="http://www.w3.org/2000/svg"
 width="125.000000pt" height="98.000000pt" viewBox="0 0 125.000000 98.000000"
 preserveAspectRatio="xMidYMid meet">
<metadata>
Created by potrace 1.16, written by Peter Selinger 2001-2019
</metadata>
<g transform="translate(0.000000,98.000000) scale(0.100000,-0.100000)"
fill="#000000" stroke="none">
<path d="M577 969 l-17 -10 -15 -29 -15 -29 0 -35 0 -35 12 -26 12 -26 -18
-17 -17 -17 -141 3 -141 3 6 -119 7 -119 -106 1 -106 1 -19 -24 -19 -23 0 -67
0 -68 23 -21 22 -21 28 -10 28 -11 44 0 44 0 26 12 26 12 10 -15 10 -14 -5
-85 -6 -85 -6 -49 -7 -48 130 3 129 4 28 18 28 18 -4 67 -4 67 -4 15 -5 15 38
19 39 19 39 -12 38 -12 7 -10 7 -11 -14 -56 -13 -55 24 -16 23 -16 116 -21
116 -22 22 -7 23 -7 10 28 11 28 15 100 15 99 10 19 11 20 16 -7 17 -7 42 -5
42 -5 31 30 30 30 0 52 0 52 -28 28 -29 29 -37 7 -38 7 -38 -13 -38 -12 -11 6
-10 7 -11 37 -10 37 0 87 0 87 -9 5 -9 6 -69 -16 -68 -16 -63 -1 -63 -2 -9 15
-10 15 7 15 6 15 5 38 4 37 -6 35 -7 34 -28 30 -29 31 -29 0 -28 -1 -18 -10z"/>
</g>
</svg>
