<?xml version="1.0" standalone="no"?>
<!DOCTYPE svg PUBLIC "-//W3C//DTD SVG 20010904//EN"
 "http://www.w3.org/TR/2001/REC-SVG-20010904/DTD/svg10.dtd">
<svg version="1.0" xmlns="http://www.w3.org/2000/svg"
 width="123.000000pt" height="96.000000pt" viewBox="0 0 123.000000 96.000000"
 preserveAspectRatio="xMidYMid meet">
<metadata>
Created by potrace 1.16, written by Peter Selinger 2001-2019
</metadata>
<g transform="translate(0.000000,96.000000) scale(0.100000,-0.100000)"
fill="#000000" stroke="none">
<path d="M574 945 l-21 -14 -13 -30 -12 -31 6 -32 7 -33 5 -26 6 -25 -18 -15
-17 -14 -140 3 -140 3 7 -126 8 -125 -34 8 -33 7 -73 0 -74 0 -19 -24 -19 -23
0 -58 0 -58 30 -26 31 -25 34 -7 35 -6 28 6 27 5 32 7 32 6 7 -27 7 -27 -6
-82 -7 -81 -6 -39 -7 -38 119 3 120 4 27 18 27 17 0 50 0 49 -11 25 -12 25 13
16 12 15 39 12 39 11 40 -12 40 -12 10 -18 10 -19 -17 -47 -16 -48 23 -17 24
-18 110 -17 110 -17 18 -9 18 -10 11 28 10 27 15 101 15 100 14 22 15 22 35
-14 34 -15 21 0 22 0 29 29 29 29 0 40 0 39 -21 26 -20 27 -39 11 -39 12 -40
-17 -41 -16 -20 20 -20 20 -1 8 -2 7 -6 110 -6 110 -13 -3 -13 -2 -95 -16 -94
-16 -35 6 -35 7 -6 24 -6 23 11 20 11 21 0 36 0 37 -16 34 -17 35 -21 14 -20
15 -16 0 -16 0 -20 -15z"/>
</g>
</svg>
