<?xml version="1.0" standalone="no"?>
<!DOCTYPE svg PUBLIC "-//W3C//DTD SVG 20010904//EN"
 "http://www.w3.org/TR/2001/REC-SVG-20010904/DTD/svg10.dtd">
<svg version="1.0" xmlns="http://www.w3.org/2000/svg"
 width="94.000000pt" height="74.000000pt" viewBox="0 0 94.000000 74.000000"
 preserveAspectRatio="xMidYMid meet">
<metadata>
Created by potrace 1.16, written by Peter Selinger 2001-2019
</metadata>
<g transform="translate(0.000000,74.000000) scale(0.100000,-0.100000)"
fill="#000000" stroke="none">
<path d="M68 733 l-68 -4 0 -91 0 -91 12 -39 12 -40 20 -13 21 -14 58 16 58
17 20 -21 20 -20 1 -50 0 -51 -11 -21 -12 -21 -26 -6 -26 -7 -18 12 -19 11
-15 0 -14 0 -11 -20 -11 -20 -19 -102 -20 -103 -6 -27 -6 -28 135 0 136 0 6
10 6 10 -16 45 -17 44 6 35 7 35 30 25 31 26 27 0 28 0 25 -20 25 -19 13 -32
13 -31 -11 -19 -12 -19 0 -17 0 -18 21 -13 21 -13 111 -9 112 -10 21 0 21 0 0
13 0 12 12 109 12 110 10 18 10 18 19 0 19 0 6 -10 6 -10 22 0 22 1 16 12 16
12 11 22 12 22 0 36 0 36 -16 24 -15 23 -15 6 -15 6 -31 -16 -31 -16 -24 11
-24 11 -16 38 -16 37 0 98 1 98 -17 -6 -16 -7 -92 -13 -91 -13 -21 -11 -21
-12 0 -14 0 -14 10 -6 10 -6 0 -24 0 -24 -22 -15 -22 -16 -92 0 -91 0 -16 18
-17 19 0 22 0 22 14 33 14 33 -7 12 -7 11 -35 10 -34 10 -25 -2 -25 -2 -67 -3z"/>
</g>
</svg>
