<?xml version="1.0" standalone="no"?>
<!DOCTYPE svg PUBLIC "-//W3C//DTD SVG 20010904//EN"
 "http://www.w3.org/TR/2001/REC-SVG-20010904/DTD/svg10.dtd">
<svg version="1.0" xmlns="http://www.w3.org/2000/svg"
 width="96.000000pt" height="97.000000pt" viewBox="0 0 96.000000 97.000000"
 preserveAspectRatio="xMidYMid meet">
<metadata>
Created by potrace 1.16, written by Peter Selinger 2001-2019
</metadata>
<g transform="translate(0.000000,97.000000) scale(0.100000,-0.100000)"
fill="#000000" stroke="none">
<path d="M465 945 l-25 -24 0 -26 0 -26 11 -45 12 -45 -12 -12 -12 -12 -127 0
-127 0 3 -83 2 -83 -10 -39 -10 -38 -15 -6 -16 -6 -39 16 -39 16 -22 -4 -23
-3 -9 -35 -9 -35 4 -72 5 -72 17 -26 18 -27 41 4 42 5 16 7 15 7 12 -26 12
-26 0 -109 0 -110 123 0 122 0 35 18 35 17 -1 50 -1 50 -8 22 -7 22 26 25 25
26 29 0 29 0 22 -24 22 -23 8 -29 8 -29 -15 -31 -15 -32 7 -26 6 -26 23 -5 22
-4 137 -3 136 -3 0 30 -1 30 8 101 8 101 -7 27 -6 26 -27 0 -27 0 -31 -11 -32
-12 -36 7 -36 7 -31 25 -30 26 0 48 0 48 19 23 19 24 59 0 58 0 49 -8 48 -9
-7 134 -7 133 -15 12 -16 12 -76 16 -76 16 -40 12 -40 12 2 20 2 20 7 34 7 34
-19 14 -18 13 -83 0 -84 0 -24 -25z"/>
</g>
</svg>
