<?xml version="1.0" standalone="no"?>
<!DOCTYPE svg PUBLIC "-//W3C//DTD SVG 20010904//EN"
 "http://www.w3.org/TR/2001/REC-SVG-20010904/DTD/svg10.dtd">
<svg version="1.0" xmlns="http://www.w3.org/2000/svg"
 width="94.000000pt" height="95.000000pt" viewBox="0 0 94.000000 95.000000"
 preserveAspectRatio="xMidYMid meet">
<metadata>
Created by potrace 1.16, written by Peter Selinger 2001-2019
</metadata>
<g transform="translate(0.000000,95.000000) scale(0.100000,-0.100000)"
fill="#000000" stroke="none">
<path d="M463 924 l-25 -25 6 -37 7 -37 6 -37 6 -38 -29 -11 -29 -11 -110 4
-110 3 3 -81 3 -81 -10 -41 -11 -41 -21 -6 -20 -7 -50 18 -49 18 -13 -13 -12
-12 0 -87 0 -88 18 -28 19 -28 31 5 32 6 26 6 25 7 12 -27 12 -26 0 -109 0
-110 113 0 112 0 35 18 35 17 -2 40 -1 40 -7 32 -7 32 25 25 26 26 39 0 39 0
22 -24 22 -23 10 -36 10 -36 -16 -30 -15 -30 0 -10 0 -10 16 -15 15 -16 133 0
134 0 11 75 11 76 0 57 0 57 -9 14 -9 14 -28 -7 -29 -7 -27 -6 -28 -5 -35 6
-34 7 -31 25 -30 26 0 58 0 58 19 23 19 24 74 0 73 0 33 -7 34 -8 -7 123 -7
122 -15 12 -16 12 -76 17 -76 16 -38 9 -38 10 -6 15 -6 15 14 41 13 40 -19 14
-19 14 -73 0 -74 0 -26 -26z"/>
</g>
</svg>
