<?xml version="1.0" standalone="no"?>
<!DOCTYPE svg PUBLIC "-//W3C//DTD SVG 20010904//EN"
 "http://www.w3.org/TR/2001/REC-SVG-20010904/DTD/svg10.dtd">
<svg version="1.0" xmlns="http://www.w3.org/2000/svg"
 width="115.000000pt" height="97.000000pt" viewBox="0 0 115.000000 97.000000"
 preserveAspectRatio="xMidYMid meet">
<metadata>
Created by potrace 1.16, written by Peter Selinger 2001-2019
</metadata>
<g transform="translate(0.000000,97.000000) scale(0.100000,-0.100000)"
fill="#000000" stroke="none">
<path d="M473 960 l-23 -9 0 -30 0 -30 11 -25 12 -25 -7 -26 -7 -26 -37 -16
-37 -15 -88 4 -88 4 -5 -23 -6 -24 5 -37 6 -37 -9 -65 -9 -65 -31 -27 -30 -28
-20 0 -19 0 -6 10 -6 10 -28 0 -29 0 -12 -30 -13 -31 6 -49 6 -49 11 -22 12
-21 39 5 39 5 9 -16 8 -17 12 -55 12 -55 22 -62 21 -63 30 -5 31 -6 140 -2
140 -2 -1 30 -1 30 -8 47 -8 47 12 29 12 29 23 11 22 10 26 -14 26 -13 15 -40
16 -40 -15 -37 -15 -37 5 -23 6 -24 27 -6 26 -7 135 6 135 6 5 6 5 5 -11 38
-12 38 -6 102 -7 101 13 15 12 16 18 -10 19 -10 44 0 44 0 27 21 26 20 0 47 0
47 -20 32 -19 32 -32 16 -31 17 -49 -4 -49 -3 4 40 5 40 6 57 6 58 -6 19 -6
19 -87 1 -87 1 -42 6 -42 6 -12 14 -11 13 13 34 12 35 -13 31 -13 32 -28 14
-28 15 -63 -1 -63 0 -22 -9z"/>
</g>
</svg>
