<?xml version="1.0" standalone="no"?>
<!DOCTYPE svg PUBLIC "-//W3C//DTD SVG 20010904//EN"
 "http://www.w3.org/TR/2001/REC-SVG-20010904/DTD/svg10.dtd">
<svg version="1.0" xmlns="http://www.w3.org/2000/svg"
 width="77.000000pt" height="95.000000pt" viewBox="0 0 77.000000 95.000000"
 preserveAspectRatio="xMidYMid meet">
<metadata>
Created by potrace 1.16, written by Peter Selinger 2001-2019
</metadata>
<g transform="translate(0.000000,95.000000) scale(0.100000,-0.100000)"
fill="#000000" stroke="none">
<path d="M310 941 l-25 -7 2 -30 2 -29 6 -30 7 -30 -27 -25 -27 -25 -121 -5
-122 -5 -3 -98 -3 -97 11 -40 11 -40 20 -11 21 -11 43 17 43 16 35 -14 34 -15
17 -23 16 -23 0 -27 0 -26 -20 -26 -21 -26 -18 -6 -19 -6 -42 17 -43 17 -18
-22 -18 -22 -6 -47 -6 -47 -15 -75 -16 -75 -5 -21 -5 -20 94 3 93 4 42 5 42 5
26 21 26 20 -2 77 -2 76 27 3 28 4 28 -12 27 -11 13 -25 13 -24 -11 -39 -12
-38 0 -26 0 -26 22 -12 22 -12 135 6 134 6 10 10 10 10 -21 73 -21 73 -11 69
-11 68 -16 24 -15 24 -25 0 -24 0 -21 -11 -20 -11 -21 20 -20 20 6 16 6 15 26
17 25 17 43 -1 42 -1 40 -3 40 -3 0 135 0 135 -8 35 -7 36 -88 23 -87 23 -32
10 -31 9 -13 15 -12 15 13 24 13 25 -6 6 -6 7 -43 8 -43 8 -40 0 -40 -1 -25
-7z"/>
</g>
</svg>
