<?xml version="1.0" standalone="no"?>
<!DOCTYPE svg PUBLIC "-//W3C//DTD SVG 20010904//EN"
 "http://www.w3.org/TR/2001/REC-SVG-20010904/DTD/svg10.dtd">
<svg version="1.0" xmlns="http://www.w3.org/2000/svg"
 width="100.000000pt" height="112.000000pt" viewBox="0 0 100.000000 112.000000"
 preserveAspectRatio="xMidYMid meet">
<metadata>
Created by potrace 1.16, written by Peter Selinger 2001-2019
</metadata>
<g transform="translate(0.000000,112.000000) scale(0.100000,-0.100000)"
fill="#000000" stroke="none">
<path d="M325 1098 l-27 -21 6 -36 6 -36 6 -32 6 -33 -28 -11 -29 -11 -110 6
-110 6 -13 -8 -12 -8 -3 -125 -2 -124 70 3 70 4 27 -22 27 -21 7 -34 6 -35
-17 -26 -17 -26 -35 -14 -35 -15 -31 10 -30 11 -17 0 -18 0 -12 -31 -13 -31
12 -106 12 -107 12 -7 12 -8 105 0 105 0 37 -10 38 -11 10 -19 10 -18 -15 -36
-15 -35 0 -20 0 -20 26 -20 27 -21 29 0 30 0 28 28 29 29 7 38 7 37 -15 54
-15 54 15 12 15 13 48 -2 49 -2 86 -29 86 -29 10 26 10 26 19 103 18 102 11
20 11 20 14 0 15 0 19 -11 18 -12 26 7 26 6 12 21 11 21 0 51 -1 50 -20 20
-20 21 -58 -17 -58 -16 -21 14 -20 13 -12 40 -12 39 0 93 0 92 -17 -7 -18 -7
-65 -14 -65 -14 -56 0 -55 0 -12 12 -12 12 0 22 0 23 11 7 11 7 -5 44 -5 45
-28 29 -28 29 -37 0 -36 0 -28 -22z"/>
</g>
</svg>
