<?xml version="1.0" standalone="no"?>
<!DOCTYPE svg PUBLIC "-//W3C//DTD SVG 20010904//EN"
 "http://www.w3.org/TR/2001/REC-SVG-20010904/DTD/svg10.dtd">
<svg version="1.0" xmlns="http://www.w3.org/2000/svg"
 width="76.000000pt" height="76.000000pt" viewBox="0 0 76.000000 76.000000"
 preserveAspectRatio="xMidYMid meet">
<metadata>
Created by potrace 1.16, written by Peter Selinger 2001-2019
</metadata>
<g transform="translate(0.000000,76.000000) scale(0.100000,-0.100000)"
fill="#000000" stroke="none">
<path d="M79 753 l-67 -4 -6 -67 -6 -67 10 -59 9 -59 15 -23 15 -22 22 -7 22
-7 39 13 40 13 19 -25 19 -24 0 -27 0 -27 -11 -24 -11 -25 -24 -13 -24 -13
-12 12 -12 12 -28 0 -27 0 -10 -18 -10 -18 -11 -104 -11 -105 -5 -20 -4 -20 9
-14 9 -13 121 3 122 4 19 25 20 25 -1 30 0 30 -13 37 -13 36 6 11 6 10 28 10
28 11 25 0 25 0 29 -15 30 -15 -13 -20 -12 -20 15 -27 15 -26 45 -14 45 -14
76 -24 76 -25 13 0 12 0 -5 28 -5 27 -25 98 -25 97 -12 15 -12 15 -17 0 -17 0
-13 -12 -12 -13 -14 18 -13 18 -7 36 -6 36 12 28 11 29 9 0 8 0 6 -10 6 -10
39 0 40 0 30 28 31 27 10 70 10 70 -6 58 -7 57 -12 0 -12 0 -40 -19 -39 -18
-92 -23 -92 -22 -12 -14 -11 -14 4 -24 5 -25 -14 -5 -15 -6 -23 0 -23 0 -21
18 -21 17 -9 31 -9 31 14 39 14 39 0 8 0 7 -97 -2 -98 -2 -66 -3z"/>
</g>
</svg>
