<?xml version="1.0" standalone="no"?>
<!DOCTYPE svg PUBLIC "-//W3C//DTD SVG 20010904//EN"
 "http://www.w3.org/TR/2001/REC-SVG-20010904/DTD/svg10.dtd">
<svg version="1.0" xmlns="http://www.w3.org/2000/svg"
 width="97.000000pt" height="98.000000pt" viewBox="0 0 97.000000 98.000000"
 preserveAspectRatio="xMidYMid meet">
<metadata>
Created by potrace 1.16, written by Peter Selinger 2001-2019
</metadata>
<g transform="translate(0.000000,98.000000) scale(0.100000,-0.100000)"
fill="#000000" stroke="none">
<path d="M7 973 l-7 -6 0 -363 0 -362 113 -4 112 -4 32 -17 33 -17 5 -23 6
-22 -16 -44 -15 -44 0 -18 0 -18 16 -15 15 -16 59 0 59 0 19 28 20 27 11 40
11 40 0 40 0 40 -10 15 -9 14 11 13 10 13 32 0 31 0 80 -14 80 -14 26 -7 26
-6 23 123 23 123 14 28 15 29 21 -7 22 -7 32 -5 31 -5 17 26 17 26 -4 81 -3
81 -20 14 -19 14 -27 0 -26 0 -43 -15 -43 -15 -19 16 -18 17 0 109 0 108 -8 0
-8 0 -105 -16 -104 -15 -22 -15 -23 -14 0 -11 0 -10 16 -30 15 -30 -20 -33
-21 -33 -25 -11 -26 -12 -43 0 -43 0 -27 25 -28 26 5 13 6 14 12 41 12 41 -11
26 -12 25 -35 15 -34 14 -104 0 -104 0 -6 -7z"/>
</g>
</svg>
