<?xml version="1.0" standalone="no"?>
<!DOCTYPE svg PUBLIC "-//W3C//DTD SVG 20010904//EN"
 "http://www.w3.org/TR/2001/REC-SVG-20010904/DTD/svg10.dtd">
<svg version="1.0" xmlns="http://www.w3.org/2000/svg"
 width="78.000000pt" height="117.000000pt" viewBox="0 0 78.000000 117.000000"
 preserveAspectRatio="xMidYMid meet">
<metadata>
Created by potrace 1.16, written by Peter Selinger 2001-2019
</metadata>
<g transform="translate(0.000000,117.000000) scale(0.100000,-0.100000)"
fill="#000000" stroke="none">
<path d="M288 1159 l-26 -10 -6 -16 -6 -15 15 -44 15 -45 0 -17 0 -17 -20 -25
-19 -25 -120 -4 -121 -3 0 -113 0 -113 19 -23 18 -23 38 1 37 1 11 11 11 11
23 0 24 0 24 -26 25 -27 0 -44 0 -44 -14 -27 -14 -27 -40 -23 -40 -22 -26 0
-26 0 -21 13 -20 12 -15 -20 -15 -20 3 -105 3 -105 127 -5 127 -5 18 -17 17
-18 -12 -45 -12 -45 0 -29 0 -28 18 -16 19 -17 46 0 46 0 20 26 21 27 12 39
12 40 -12 19 -12 19 0 15 0 15 27 11 27 10 118 -3 119 -3 15 50 15 50 11 80
10 80 -11 28 -11 27 -24 0 -25 0 -6 -10 -6 -10 -37 0 -37 0 -40 23 -40 22 -9
27 -10 27 13 27 12 26 27 -7 27 -7 38 -5 38 -5 19 17 19 17 11 51 11 52 -2 88
-2 87 -13 0 -14 0 0 8 0 7 -62 22 -63 22 -63 17 -64 17 -15 24 -16 24 18 19
17 19 -33 20 -34 21 -40 -1 -40 -1 -27 -9z"/>
</g>
</svg>
