<?xml version="1.0" standalone="no"?>
<!DOCTYPE svg PUBLIC "-//W3C//DTD SVG 20010904//EN"
 "http://www.w3.org/TR/2001/REC-SVG-20010904/DTD/svg10.dtd">
<svg version="1.0" xmlns="http://www.w3.org/2000/svg"
 width="97.000000pt" height="75.000000pt" viewBox="0 0 97.000000 75.000000"
 preserveAspectRatio="xMidYMid meet">
<metadata>
Created by potrace 1.16, written by Peter Selinger 2001-2019
</metadata>
<g transform="translate(0.000000,75.000000) scale(0.100000,-0.100000)"
fill="#000000" stroke="none">
<path d="M220 669 l0 -82 -12 -39 -12 -39 -25 -20 -26 -21 -45 6 -45 6 -25 3
-25 2 -3 -69 -3 -68 16 -24 15 -24 31 0 30 0 19 10 19 10 15 -6 16 -6 9 -37 9
-36 18 -119 18 -118 121 4 121 4 37 23 37 23 6 24 6 25 -4 50 -5 49 34 0 34 0
33 -14 34 -14 7 -12 7 -12 -11 -11 -11 -11 0 -18 0 -19 18 -19 18 -19 94 -15
95 -15 38 -7 37 -7 0 116 0 116 -12 26 -12 27 -30 -5 -31 -6 -27 -6 -26 -7
-19 28 -18 28 0 78 0 77 11 11 10 10 37 -15 36 -15 25 0 25 0 15 15 15 15 7
45 6 45 -7 76 -7 76 -21 -5 -22 -5 -119 -27 -120 -26 -13 -11 -13 -10 0 -22 0
-22 13 -13 12 -12 -24 -20 -23 -19 -38 0 -39 0 -28 11 -28 11 13 5 12 5 0 49
0 50 -24 24 -23 23 -39 11 -39 11 -87 0 -88 0 0 -81z"/>
</g>
</svg>
