<?xml version="1.0" standalone="no"?>
<!DOCTYPE svg PUBLIC "-//W3C//DTD SVG 20010904//EN"
 "http://www.w3.org/TR/2001/REC-SVG-20010904/DTD/svg10.dtd">
<svg version="1.0" xmlns="http://www.w3.org/2000/svg"
 width="95.000000pt" height="73.000000pt" viewBox="0 0 95.000000 73.000000"
 preserveAspectRatio="xMidYMid meet">
<metadata>
Created by potrace 1.16, written by Peter Selinger 2001-2019
</metadata>
<g transform="translate(0.000000,73.000000) scale(0.100000,-0.100000)"
fill="#000000" stroke="none">
<path d="M220 649 l0 -82 -12 -39 -12 -39 -25 -20 -26 -21 -50 5 -50 5 -20 3
-20 4 -3 -58 -3 -59 16 -24 15 -24 21 0 20 0 21 11 20 11 24 -6 23 -6 10 -38
9 -37 18 -119 18 -118 111 4 111 4 37 23 37 23 6 24 6 24 -4 33 -5 32 -4 15
-4 15 34 3 35 4 32 -6 32 -7 26 -20 26 -21 -16 -28 -17 -28 19 -21 20 -20 99
-16 100 -15 23 -6 22 -6 0 105 0 106 -12 26 -12 27 -25 -7 -26 -6 -32 -6 -31
-5 -19 28 -18 28 0 88 0 87 12 12 13 13 49 -18 50 -18 20 7 20 6 11 37 10 37
0 30 0 30 -7 53 -6 53 -16 -6 -16 -7 -115 -24 -115 -25 -15 -15 -15 -14 13
-20 12 -20 0 -14 0 -15 -22 -15 -22 -16 -48 0 -47 0 -25 10 -26 10 0 15 0 15
10 0 10 0 0 40 0 41 -24 24 -23 23 -39 11 -39 11 -77 0 -78 0 0 -81z"/>
</g>
</svg>
