<?xml version="1.0" standalone="no"?>
<!DOCTYPE svg PUBLIC "-//W3C//DTD SVG 20010904//EN"
 "http://www.w3.org/TR/2001/REC-SVG-20010904/DTD/svg10.dtd">
<svg version="1.0" xmlns="http://www.w3.org/2000/svg"
 width="118.000000pt" height="98.000000pt" viewBox="0 0 118.000000 98.000000"
 preserveAspectRatio="xMidYMid meet">
<metadata>
Created by potrace 1.16, written by Peter Selinger 2001-2019
</metadata>
<g transform="translate(0.000000,98.000000) scale(0.100000,-0.100000)"
fill="#000000" stroke="none">
<path d="M533 968 l-22 -10 -12 -30 -12 -29 7 -52 6 -52 3 -25 2 -25 -150 3
-150 3 3 -80 4 -81 -12 -54 -11 -54 -19 -17 -19 -17 -38 5 -38 5 -27 7 -27 7
-12 -26 -13 -27 10 -27 9 -27 40 -22 40 -23 37 0 37 0 6 10 6 10 25 0 24 0 11
-27 11 -28 -7 -62 -6 -62 -15 -53 -14 -53 0 -12 0 -13 90 0 91 0 34 14 33 14
18 26 17 26 -6 38 -6 37 -3 20 -3 20 46 9 46 9 37 -7 37 -7 21 -21 20 -20 -5
-42 -6 -41 -7 -42 -7 -43 29 -11 29 -11 100 12 100 12 12 1 13 0 20 55 21 55
15 71 14 71 11 28 11 27 19 0 18 0 6 -10 6 -10 19 0 19 0 31 29 31 28 -3 34
-3 33 -35 20 -34 20 -61 1 -60 0 -29 -8 -29 -8 7 145 7 146 -124 -7 -124 -6
-25 6 -26 7 -6 15 -6 16 16 40 16 40 -17 45 -17 44 -28 15 -29 15 -8 -1 -8 0
-22 -11z"/>
</g>
</svg>
