<?xml version="1.0" standalone="no"?>
<!DOCTYPE svg PUBLIC "-//W3C//DTD SVG 20010904//EN"
 "http://www.w3.org/TR/2001/REC-SVG-20010904/DTD/svg10.dtd">
<svg version="1.0" xmlns="http://www.w3.org/2000/svg"
 width="114.000000pt" height="74.000000pt" viewBox="0 0 114.000000 74.000000"
 preserveAspectRatio="xMidYMid meet">
<metadata>
Created by potrace 1.16, written by Peter Selinger 2001-2019
</metadata>
<g transform="translate(0.000000,74.000000) scale(0.100000,-0.100000)"
fill="#000000" stroke="none">
<path d="M224 588 l1 -153 -30 3 -30 4 -53 1 -53 0 -27 -20 -27 -20 -3 -25 -3
-24 21 -19 20 -18 41 13 41 14 18 -25 19 -24 11 -70 11 -70 21 -71 20 -72 119
-7 118 -7 10 7 10 6 -9 25 -10 25 0 39 0 39 23 27 24 27 55 5 55 4 22 -28 23
-29 -6 -25 -5 -25 -6 -27 -7 -27 18 -18 18 -18 140 3 140 3 5 5 5 5 -11 7 -12
7 -12 107 -12 106 13 31 12 31 18 0 17 0 30 -11 31 -10 35 15 35 14 17 26 17
26 -6 35 -7 34 -27 21 -27 22 -70 -4 -70 -3 3 127 2 127 -32 -19 -33 -19 -79
-20 -79 -20 -16 -16 -16 -15 14 -21 13 -21 -10 -10 -9 -9 -76 -2 -75 -2 -22
20 -22 20 7 30 6 30 5 27 6 26 -30 16 -31 16 -119 0 -120 0 2 -152z"/>
</g>
</svg>
