<?xml version="1.0" standalone="no"?>
<!DOCTYPE svg PUBLIC "-//W3C//DTD SVG 20010904//EN"
 "http://www.w3.org/TR/2001/REC-SVG-20010904/DTD/svg10.dtd">
<svg version="1.0" xmlns="http://www.w3.org/2000/svg"
 width="96.000000pt" height="99.000000pt" viewBox="0 0 96.000000 99.000000"
 preserveAspectRatio="xMidYMid meet">
<metadata>
Created by potrace 1.16, written by Peter Selinger 2001-2019
</metadata>
<g transform="translate(0.000000,99.000000) scale(0.100000,-0.100000)"
fill="#000000" stroke="none">
<path d="M503 970 l-32 -19 -12 -41 -12 -41 15 -33 16 -33 -6 -9 -7 -9 -19
-15 -19 -15 -121 -5 -121 -5 0 -30 1 -30 7 -98 8 -99 -29 7 -29 6 -43 -10 -43
-9 -28 -32 -29 -31 0 -34 0 -34 10 -25 10 -26 25 -12 26 -12 51 13 50 13 10
-13 9 -14 -5 -105 -5 -105 -7 -28 -7 -29 146 4 145 3 21 19 21 19 0 42 0 41
-12 12 -11 11 14 17 13 16 24 9 25 10 17 -6 17 -5 19 -35 19 -35 -13 -20 -12
-20 0 -34 0 -34 31 -11 32 -11 62 0 62 0 77 7 78 6 -6 31 -5 31 -21 94 -20 94
-12 14 -12 14 -45 -3 -45 -3 -13 25 -13 25 0 40 1 40 18 22 19 23 24 9 23 8
32 -15 32 -15 24 10 24 11 6 36 6 37 -6 105 -6 106 -11 4 -11 4 -118 9 -118 9
-19 17 -19 18 9 18 10 18 0 36 0 37 -34 34 -34 34 -33 0 -34 0 -32 -20z"/>
</g>
</svg>
