<?xml version="1.0" standalone="no"?>
<!DOCTYPE svg PUBLIC "-//W3C//DTD SVG 20010904//EN"
 "http://www.w3.org/TR/2001/REC-SVG-20010904/DTD/svg10.dtd">
<svg version="1.0" xmlns="http://www.w3.org/2000/svg"
 width="100.000000pt" height="121.000000pt" viewBox="0 0 100.000000 121.000000"
 preserveAspectRatio="xMidYMid meet">
<metadata>
Created by potrace 1.16, written by Peter Selinger 2001-2019
</metadata>
<g transform="translate(0.000000,121.000000) scale(0.100000,-0.100000)"
fill="#000000" stroke="none">
<path d="M304 1184 l-26 -25 6 -42 7 -42 2 -30 2 -30 -35 -17 -35 -18 -112 0
-113 0 0 -119 0 -120 16 -15 15 -16 24 0 24 0 26 12 25 11 27 -14 26 -14 19
-42 19 -43 -11 -38 -10 -39 -20 -18 -20 -19 -12 12 -12 12 -27 0 -27 0 -15
-23 -14 -22 -13 -75 -13 -75 -13 -39 -14 -39 0 -10 0 -10 123 7 124 6 32 -6
33 -7 -7 -21 -6 -21 -5 -30 -6 -31 12 -43 11 -43 24 -24 24 -24 30 0 29 0 25
30 25 29 7 48 6 48 -11 48 -10 48 5 10 6 9 54 0 53 0 79 -15 78 -15 8 0 7 0 0
18 0 17 -26 79 -25 79 -1 44 -1 44 11 11 11 11 45 -13 45 -12 46 6 46 7 37 16
36 15 13 17 12 16 1 33 0 33 -15 23 -16 24 -29 12 -30 12 -40 -16 -40 -16 -20
0 -19 0 -15 22 -16 22 0 118 0 118 -134 0 -135 0 -15 16 -16 15 16 31 15 30
-6 39 -7 40 -25 29 -25 30 -49 0 -50 0 -25 -26z"/>
</g>
</svg>
