<?xml version="1.0" standalone="no"?>
<!DOCTYPE svg PUBLIC "-//W3C//DTD SVG 20010904//EN"
 "http://www.w3.org/TR/2001/REC-SVG-20010904/DTD/svg10.dtd">
<svg version="1.0" xmlns="http://www.w3.org/2000/svg"
 width="98.000000pt" height="119.000000pt" viewBox="0 0 98.000000 119.000000"
 preserveAspectRatio="xMidYMid meet">
<metadata>
Created by potrace 1.16, written by Peter Selinger 2001-2019
</metadata>
<g transform="translate(0.000000,119.000000) scale(0.100000,-0.100000)"
fill="#000000" stroke="none">
<path d="M303 1164 l-25 -25 7 -32 7 -32 1 -40 2 -40 -35 -17 -35 -18 -112 0
-113 0 0 -109 0 -110 17 -16 16 -17 26 7 26 6 26 6 27 5 25 -17 25 -16 17 -41
16 -41 -6 -38 -7 -38 -20 -26 -19 -25 -19 0 -19 0 -6 10 -6 10 -18 0 -19 0
-15 -23 -14 -22 -13 -75 -13 -75 -13 -37 -13 -38 149 3 149 2 11 -11 10 -10
-15 -38 -16 -39 6 -37 6 -37 19 -31 19 -31 27 -7 26 -7 25 25 24 25 10 42 10
43 -7 36 -7 37 -9 18 -9 18 12 15 11 14 67 0 66 -1 70 -13 70 -14 4 3 3 4 -21
63 -21 63 -9 50 -9 50 5 28 5 28 18 9 18 10 38 -16 38 -16 43 7 44 6 37 16 36
15 13 17 12 16 0 25 1 25 -18 21 -17 22 -22 11 -21 11 -36 -15 -35 -15 -30 0
-31 0 -16 25 -16 24 1 116 1 115 -134 0 -135 0 -15 16 -16 15 0 10 0 10 15 30
16 30 -10 36 -10 36 -22 23 -22 24 -39 0 -39 0 -26 -26z"/>
</g>
</svg>
