<?xml version="1.0" standalone="no"?>
<!DOCTYPE svg PUBLIC "-//W3C//DTD SVG 20010904//EN"
 "http://www.w3.org/TR/2001/REC-SVG-20010904/DTD/svg10.dtd">
<svg version="1.0" xmlns="http://www.w3.org/2000/svg"
 width="76.000000pt" height="115.000000pt" viewBox="0 0 76.000000 115.000000"
 preserveAspectRatio="xMidYMid meet">
<metadata>
Created by potrace 1.16, written by Peter Selinger 2001-2019
</metadata>
<g transform="translate(0.000000,115.000000) scale(0.100000,-0.100000)"
fill="#000000" stroke="none">
<path d="M330 1132 l-35 -17 -14 -29 -14 -30 13 -30 12 -31 5 -22 5 -21 -30
-16 -31 -16 -114 0 -114 0 -6 -82 -7 -83 0 -74 0 -73 38 8 37 9 51 -1 51 0 34
-20 34 -20 3 -23 4 -24 -32 -28 -31 -29 -9 0 -9 0 -6 10 -6 10 -28 0 -29 0
-11 -27 -11 -28 -14 -70 -15 -70 -15 -44 -16 -44 0 -18 0 -19 94 0 93 0 32
-11 31 -11 10 -18 10 -19 0 -30 0 -31 -10 0 -10 0 0 -24 0 -24 16 -6 16 -6 68
0 69 0 36 17 36 17 6 25 6 24 -12 34 -13 34 5 6 5 5 39 9 38 9 88 0 87 0 0
371 0 372 -42 -7 -43 -7 -80 -6 -80 -6 -14 16 -13 16 12 37 12 36 -5 33 -5 33
-18 28 -18 27 -33 13 -32 14 -18 0 -18 0 -35 -18z"/>
</g>
</svg>
