<?xml version="1.0" standalone="no"?>
<!DOCTYPE svg PUBLIC "-//W3C//DTD SVG 20010904//EN"
 "http://www.w3.org/TR/2001/REC-SVG-20010904/DTD/svg10.dtd">
<svg version="1.0" xmlns="http://www.w3.org/2000/svg"
 width="74.000000pt" height="113.000000pt" viewBox="0 0 74.000000 113.000000"
 preserveAspectRatio="xMidYMid meet">
<metadata>
Created by potrace 1.16, written by Peter Selinger 2001-2019
</metadata>
<g transform="translate(0.000000,113.000000) scale(0.100000,-0.100000)"
fill="#000000" stroke="none">
<path d="M330 1113 l-35 -18 -13 -27 -13 -27 16 -30 15 -30 0 -25 0 -25 -30
-16 -29 -15 -114 0 -114 0 -6 -82 -7 -83 0 -63 0 -62 28 7 27 8 60 0 61 -1 34
-20 35 -20 3 -33 3 -34 -31 -28 -31 -29 -19 0 -19 0 -6 10 -6 10 -18 0 -19 0
-11 -27 -11 -28 -14 -70 -15 -70 -15 -44 -16 -44 0 -8 0 -9 94 0 93 0 33 -11
32 -12 12 -29 12 -29 -4 -29 -4 -30 -9 0 -9 0 0 -14 0 -14 16 -6 16 -6 58 0
59 0 36 17 36 17 5 22 6 22 -11 20 -11 21 0 19 0 20 18 7 17 8 113 5 112 5 0
359 0 360 -27 -6 -28 -6 -95 -6 -95 -7 -14 17 -14 17 13 53 12 53 -17 37 -18
37 -21 14 -21 14 -25 6 -25 5 -35 -17z"/>
</g>
</svg>
