<?xml version="1.0" standalone="no"?>
<!DOCTYPE svg PUBLIC "-//W3C//DTD SVG 20010904//EN"
 "http://www.w3.org/TR/2001/REC-SVG-20010904/DTD/svg10.dtd">
<svg version="1.0" xmlns="http://www.w3.org/2000/svg"
 width="95.000000pt" height="100.000000pt" viewBox="0 0 95.000000 100.000000"
 preserveAspectRatio="xMidYMid meet">
<metadata>
Created by potrace 1.16, written by Peter Selinger 2001-2019
</metadata>
<g transform="translate(0.000000,100.000000) scale(0.100000,-0.100000)"
fill="#000000" stroke="none">
<path d="M453 989 l-13 -13 0 -18 0 -17 12 -26 11 -25 -11 -51 -12 -51 -21
-29 -20 -29 -39 0 -39 0 -15 15 -15 15 15 41 14 42 0 33 0 34 -19 19 -20 20
-38 10 -38 11 -102 0 -103 0 0 -377 0 -376 119 6 118 6 20 -5 20 -6 -15 -53
-15 -53 7 -35 7 -36 27 -21 27 -22 77 4 78 3 22 23 23 22 0 48 0 47 -8 32 -9
33 29 11 28 10 96 -7 96 -6 17 43 16 44 15 80 15 79 14 14 13 14 22 -14 21
-13 18 11 17 10 17 35 18 34 0 50 0 50 -6 23 -6 22 -19 0 -18 0 -6 -10 -6 -10
-30 0 -30 0 -21 11 -20 11 -19 41 -19 42 0 91 0 92 -62 12 -63 11 -80 6 -80 5
-12 -13z"/>
</g>
</svg>
