<?xml version="1.0" standalone="no"?>
<!DOCTYPE svg PUBLIC "-//W3C//DTD SVG 20010904//EN"
 "http://www.w3.org/TR/2001/REC-SVG-20010904/DTD/svg10.dtd">
<svg version="1.0" xmlns="http://www.w3.org/2000/svg"
 width="111.000000pt" height="95.000000pt" viewBox="0 0 111.000000 95.000000"
 preserveAspectRatio="xMidYMid meet">
<metadata>
Created by potrace 1.16, written by Peter Selinger 2001-2019
</metadata>
<g transform="translate(0.000000,95.000000) scale(0.100000,-0.100000)"
fill="#000000" stroke="none">
<path d="M517 932 l-16 -17 -9 -25 -9 -25 15 -42 16 -42 -13 -25 -14 -25 -30
-11 -30 -10 -122 0 -122 0 -5 -92 -5 -93 -22 -42 -21 -43 -28 -7 -27 -7 -15 3
-15 3 -8 11 -7 12 -15 -19 -15 -20 0 -66 0 -66 16 -23 16 -23 37 5 36 5 22 7
23 7 10 -27 10 -26 0 -105 0 -104 380 0 380 0 0 8 0 8 15 119 15 119 14 15 15
14 41 -13 40 -13 20 18 20 18 0 57 0 58 -19 23 -19 23 -43 1 -44 0 -38 -8 -39
-8 7 134 8 134 -17 6 -16 6 -117 17 -118 16 -17 9 -18 10 0 22 0 23 11 11 12
12 -7 24 -6 25 -26 31 -26 31 -22 0 -23 0 -16 -18z"/>
</g>
</svg>
