<?xml version="1.0" standalone="no"?>
<!DOCTYPE svg PUBLIC "-//W3C//DTD SVG 20010904//EN"
 "http://www.w3.org/TR/2001/REC-SVG-20010904/DTD/svg10.dtd">
<svg version="1.0" xmlns="http://www.w3.org/2000/svg"
 width="96.000000pt" height="112.000000pt" viewBox="0 0 96.000000 112.000000"
 preserveAspectRatio="xMidYMid meet">
<metadata>
Created by potrace 1.16, written by Peter Selinger 2001-2019
</metadata>
<g transform="translate(0.000000,112.000000) scale(0.100000,-0.100000)"
fill="#000000" stroke="none">
<path d="M300 1110 l-15 -9 17 -46 17 -46 -9 -24 -9 -24 -33 -17 -33 -18 -117
-4 -118 -4 0 -97 0 -96 19 -42 19 -41 22 -12 22 -12 54 4 54 3 5 -13 5 -14 0
-31 0 -32 -18 -35 -17 -35 -41 3 -40 3 -12 -14 -13 -15 -14 -78 -15 -79 -16
-44 -17 -43 14 -9 14 -9 121 0 122 0 23 -19 24 -19 -13 -34 -12 -34 0 -25 0
-25 12 -12 12 -12 63 0 64 0 29 15 30 15 6 25 6 25 -13 16 -13 16 17 13 18 13
47 6 47 7 77 11 76 11 4 127 3 127 14 17 14 17 11 -11 10 -10 42 0 43 0 20 29
20 28 3 39 2 39 -2 45 -2 45 -9 14 -9 15 -42 -14 -41 -13 -27 20 -27 20 -14
28 -13 28 0 79 0 80 -26 -5 -27 -5 -79 -21 -79 -21 -37 0 -38 0 -11 14 -12 15
10 20 11 20 0 46 0 46 -11 22 -11 22 -21 23 -20 22 -51 0 -51 0 -15 -10z"/>
</g>
</svg>
