<?xml version="1.0" standalone="no"?>
<!DOCTYPE svg PUBLIC "-//W3C//DTD SVG 20010904//EN"
 "http://www.w3.org/TR/2001/REC-SVG-20010904/DTD/svg10.dtd">
<svg version="1.0" xmlns="http://www.w3.org/2000/svg"
 width="94.000000pt" height="110.000000pt" viewBox="0 0 94.000000 110.000000"
 preserveAspectRatio="xMidYMid meet">
<metadata>
Created by potrace 1.16, written by Peter Selinger 2001-2019
</metadata>
<g transform="translate(0.000000,110.000000) scale(0.100000,-0.100000)"
fill="#000000" stroke="none">
<path d="M303 1092 l-12 -8 16 -44 15 -45 -10 -27 -11 -27 -33 -17 -33 -18
-117 -4 -118 -4 0 -87 0 -86 19 -42 19 -41 20 -11 21 -11 38 0 39 0 12 12 12
12 6 -7 7 -7 5 -49 4 -49 -11 -35 -12 -35 -20 -18 -19 -18 -12 12 -12 12 -17
0 -17 0 -11 -13 -11 -14 -19 -95 -19 -96 -11 -20 -11 -20 16 -6 16 -6 117 0
117 0 23 -16 23 -16 -5 -32 -6 -31 -6 -28 -7 -27 12 -15 12 -15 55 0 54 0 28
15 29 14 6 17 6 17 -17 19 -18 20 24 19 23 19 12 0 11 0 96 15 96 14 14 3 14
3 5 127 5 127 18 18 17 18 20 -13 20 -12 29 0 30 0 22 31 22 31 -1 65 -1 65
-7 20 -6 19 -16 -7 -17 -7 -31 -4 -32 -5 -31 29 -32 28 -9 59 -10 60 7 40 6
39 -24 -7 -24 -7 -74 -19 -74 -20 -47 0 -48 0 -13 16 -13 15 12 33 12 32 0 33
0 32 -11 22 -11 22 -21 23 -20 22 -41 0 -41 0 -12 -8z"/>
</g>
</svg>
