<?xml version="1.0" standalone="no"?>
<!DOCTYPE svg PUBLIC "-//W3C//DTD SVG 20010904//EN"
 "http://www.w3.org/TR/2001/REC-SVG-20010904/DTD/svg10.dtd">
<svg version="1.0" xmlns="http://www.w3.org/2000/svg"
 width="97.000000pt" height="96.000000pt" viewBox="0 0 97.000000 96.000000"
 preserveAspectRatio="xMidYMid meet">
<metadata>
Created by potrace 1.16, written by Peter Selinger 2001-2019
</metadata>
<g transform="translate(0.000000,96.000000) scale(0.100000,-0.100000)"
fill="#000000" stroke="none">
<path d="M528 943 l-15 -18 -12 -22 -11 -22 0 -46 0 -46 10 -19 10 -18 -17
-13 -16 -14 -136 0 -136 0 0 -125 0 -125 -77 4 -77 3 -25 -26 -26 -25 0 -64 0
-64 20 -26 21 -26 34 -7 34 -6 37 12 37 13 14 -19 14 -19 -7 -112 -6 -113 379
0 380 0 7 53 6 52 0 67 0 67 -10 25 -10 26 -38 0 -38 0 -10 -10 -10 -10 -34
18 -34 17 -19 27 -20 26 7 26 7 27 23 10 24 11 56 -16 57 -17 19 6 19 6 7 36
7 36 -7 113 -6 112 -6 16 -6 15 -56 21 -56 21 -65 15 -66 15 -22 15 -23 14 0
20 0 19 10 6 10 6 0 19 0 19 -22 15 -22 16 -47 0 -46 0 -15 -17z"/>
</g>
</svg>
