<?xml version="1.0" standalone="no"?>
<!DOCTYPE svg PUBLIC "-//W3C//DTD SVG 20010904//EN"
 "http://www.w3.org/TR/2001/REC-SVG-20010904/DTD/svg10.dtd">
<svg version="1.0" xmlns="http://www.w3.org/2000/svg"
 width="114.000000pt" height="93.000000pt" viewBox="0 0 114.000000 93.000000"
 preserveAspectRatio="xMidYMid meet">
<metadata>
Created by potrace 1.16, written by Peter Selinger 2001-2019
</metadata>
<g transform="translate(0.000000,93.000000) scale(0.100000,-0.100000)"
fill="#000000" stroke="none">
<path d="M486 922 l-5 -8 10 -14 9 -15 0 -37 0 -36 -6 -16 -6 -16 -36 -22 -35
-22 -110 -4 -110 -5 5 -96 6 -96 -5 -33 -5 -33 -19 -10 -19 -10 -31 16 -30 16
-32 -11 -32 -11 -19 -25 -18 -26 4 -59 4 -60 22 -21 22 -22 12 12 12 12 22 0
22 0 11 -14 12 -14 14 -75 14 -75 13 -40 12 -39 86 -6 85 -6 41 8 41 8 12 8
13 8 -7 41 -7 41 -1 30 -2 29 25 13 25 14 57 -4 56 -3 17 -14 16 -13 -11 -11
-10 -10 0 -22 0 -22 13 -11 14 -11 96 -20 96 -19 36 -15 36 -15 10 27 11 27
16 85 15 85 15 23 14 22 19 0 18 0 6 -10 6 -10 19 0 19 0 19 25 20 26 7 38 6
38 -16 41 -17 41 -25 16 -25 17 -27 -5 -26 -6 -26 -6 -26 -7 -16 17 -17 16 0
114 0 113 -47 11 -48 10 -75 11 -74 11 -20 21 -19 20 16 28 17 27 -18 16 -17
16 -28 10 -28 11 -44 0 -44 0 -5 -8z"/>
</g>
</svg>
