<?xml version="1.0" standalone="no"?>
<!DOCTYPE svg PUBLIC "-//W3C//DTD SVG 20010904//EN"
 "http://www.w3.org/TR/2001/REC-SVG-20010904/DTD/svg10.dtd">
<svg version="1.0" xmlns="http://www.w3.org/2000/svg"
 width="76.000000pt" height="92.000000pt" viewBox="0 0 76.000000 92.000000"
 preserveAspectRatio="xMidYMid meet">
<metadata>
Created by potrace 1.16, written by Peter Selinger 2001-2019
</metadata>
<g transform="translate(0.000000,92.000000) scale(0.100000,-0.100000)"
fill="#000000" stroke="none">
<path d="M313 910 l-22 -9 -17 -26 -17 -25 5 -48 5 -47 4 -15 4 -15 -127 3
-128 4 0 -120 0 -120 15 -12 15 -12 41 16 41 17 20 -7 20 -6 14 -34 14 -33 0
-28 0 -29 -16 -22 -15 -22 -29 -15 -29 -15 -21 0 -20 0 -21 13 -20 12 -16 -20
-15 -20 8 -100 8 -100 0 -35 0 -35 116 1 115 0 28 18 27 18 0 13 0 13 -15 36
-15 36 10 20 10 19 22 15 22 16 41 0 41 0 22 -16 22 -15 0 -31 0 -32 -12 -33
-12 -34 10 -17 11 -17 39 -7 39 -7 112 6 112 6 -10 19 -10 19 -19 101 -20 100
-11 14 -11 14 -25 0 -24 0 -21 -11 -22 -12 -18 23 -18 22 0 78 0 79 15 15 15
15 41 -15 42 -14 32 0 33 0 16 25 16 24 0 111 0 111 -143 -3 -143 -3 -18 18
-18 18 7 27 6 27 5 25 6 25 -22 28 -21 27 -42 -1 -42 0 -22 -9z"/>
</g>
</svg>
