<?xml version="1.0" standalone="no"?>
<!DOCTYPE svg PUBLIC "-//W3C//DTD SVG 20010904//EN"
 "http://www.w3.org/TR/2001/REC-SVG-20010904/DTD/svg10.dtd">
<svg version="1.0" xmlns="http://www.w3.org/2000/svg"
 width="75.000000pt" height="91.000000pt" viewBox="0 0 75.000000 91.000000"
 preserveAspectRatio="xMidYMid meet">
<metadata>
Created by potrace 1.16, written by Peter Selinger 2001-2019
</metadata>
<g transform="translate(0.000000,91.000000) scale(0.100000,-0.100000)"
fill="#000000" stroke="none">
<path d="M291 900 l-24 -11 11 -11 12 -12 0 -46 0 -47 -21 -19 -21 -19 -118
-3 -118 -4 -6 -37 -6 -37 10 -60 9 -59 32 -28 31 -29 32 5 31 4 17 7 16 7 6
-19 7 -20 1 -65 1 -65 -22 -31 -22 -31 -30 0 -29 0 -20 12 -20 13 -17 -18 -18
-18 -3 -123 -4 -123 96 -6 96 -6 31 6 31 6 5 15 6 14 -17 55 -18 55 16 16 16
16 68 4 67 4 29 -12 29 -11 -11 -11 -12 -12 0 -22 0 -22 16 -12 15 -13 112
-24 112 -24 15 -2 14 -2 7 30 7 30 1 97 1 97 -15 15 -15 15 -46 -16 -46 -15
-24 11 -24 11 -10 26 -10 25 0 24 0 24 29 31 28 32 41 9 41 9 26 -10 26 -10 6
0 5 0 -6 98 -7 97 -5 42 -6 41 -47 11 -46 10 -50 6 -50 6 -23 6 -23 5 -10 20
-10 19 15 24 15 23 -19 17 -20 18 -72 3 -73 4 -24 -10z"/>
</g>
</svg>
