<?xml version="1.0" standalone="no"?>
<!DOCTYPE svg PUBLIC "-//W3C//DTD SVG 20010904//EN"
 "http://www.w3.org/TR/2001/REC-SVG-20010904/DTD/svg10.dtd">
<svg version="1.0" xmlns="http://www.w3.org/2000/svg"
 width="101.000000pt" height="81.000000pt" viewBox="0 0 101.000000 81.000000"
 preserveAspectRatio="xMidYMid meet">
<metadata>
Created by potrace 1.16, written by Peter Selinger 2001-2019
</metadata>
<g transform="translate(0.000000,81.000000) scale(0.100000,-0.100000)"
fill="#000000" stroke="none">
<path d="M674 800 l-22 -9 -6 -10 -7 -10 17 -57 16 -57 -11 -38 -11 -38 -27
-20 -26 -21 -18 0 -18 0 -27 24 -28 23 18 48 18 47 -10 23 -11 24 -38 10 -38
11 -117 0 -118 0 0 -115 0 -116 -16 -24 -16 -25 -23 0 -22 0 -43 15 -43 15 -8
0 -8 0 -15 -16 -16 -15 0 -89 0 -88 19 -23 18 -23 42 14 42 13 14 -14 15 -15
20 -102 19 -101 11 -21 11 -20 128 0 128 0 30 10 30 11 13 24 13 23 -7 31 -6
31 -6 28 -6 27 22 28 21 27 13 0 13 0 20 -22 21 -23 12 -24 12 -23 -11 -11
-11 -11 0 -33 0 -32 18 -10 17 -9 115 -16 115 -16 21 -6 22 -6 22 59 22 58 10
63 11 62 -11 25 -12 25 -24 0 -24 0 -51 -12 -51 -12 -35 17 -35 17 -10 26 -10
25 0 29 0 29 12 26 11 25 26 7 25 6 43 -11 43 -12 19 0 19 0 6 23 6 22 0 51 0
51 -6 77 -7 76 -76 24 -76 24 -50 6 -50 5 -21 -9z"/>
</g>
</svg>
