<?xml version="1.0" standalone="no"?>
<!DOCTYPE svg PUBLIC "-//W3C//DTD SVG 20010904//EN"
 "http://www.w3.org/TR/2001/REC-SVG-20010904/DTD/svg10.dtd">
<svg version="1.0" xmlns="http://www.w3.org/2000/svg"
 width="99.000000pt" height="79.000000pt" viewBox="0 0 99.000000 79.000000"
 preserveAspectRatio="xMidYMid meet">
<metadata>
Created by potrace 1.16, written by Peter Selinger 2001-2019
</metadata>
<g transform="translate(0.000000,79.000000) scale(0.100000,-0.100000)"
fill="#000000" stroke="none">
<path d="M671 777 l-25 -12 2 -10 2 -10 11 -52 12 -53 -12 -39 -11 -40 -27
-20 -26 -21 -27 0 -27 0 -27 21 -26 20 0 20 0 20 15 35 15 36 -10 18 -10 19
-38 11 -37 10 -107 0 -108 0 0 -115 0 -116 -16 -24 -16 -25 -33 0 -32 0 -42
14 -41 15 -15 -15 -15 -15 0 -79 0 -78 18 -22 18 -23 22 12 21 11 24 0 25 0
11 -14 11 -14 20 -100 19 -101 11 -21 11 -20 118 0 118 0 30 10 30 11 14 25
13 25 -16 42 -15 42 9 25 9 25 16 17 16 18 23 0 22 0 26 -31 26 -31 6 -25 7
-24 -12 -12 -11 -11 0 -23 0 -22 18 -10 17 -9 120 -17 119 -16 7 -5 7 -4 22
57 22 58 10 54 10 54 -12 25 -11 25 -37 -7 -37 -7 -41 -6 -41 -5 -32 16 -32
17 -9 25 -10 25 0 39 0 39 12 26 11 25 24 6 24 6 37 -6 37 -6 27 -6 27 -6 7
36 6 37 -7 104 -7 105 -76 24 -77 23 -40 6 -40 6 -24 -12z"/>
</g>
</svg>
