<?xml version="1.0" standalone="no"?>
<!DOCTYPE svg PUBLIC "-//W3C//DTD SVG 20010904//EN"
 "http://www.w3.org/TR/2001/REC-SVG-20010904/DTD/svg10.dtd">
<svg version="1.0" xmlns="http://www.w3.org/2000/svg"
 width="159.000000pt" height="203.000000pt" viewBox="0 0 159.000000 203.000000"
 preserveAspectRatio="xMidYMid meet">
<metadata>
Created by potrace 1.16, written by Peter Selinger 2001-2019
</metadata>
<g transform="translate(0.000000,203.000000) scale(0.100000,-0.100000)"
fill="#000000" stroke="none">
<path d="M0 1240 l0 -789 218 6 217 6 58 -12 57 -12 30 -26 30 -25 0 -26 0
-27 -25 -40 -24 -40 -1 -48 0 -48 17 -32 16 -32 30 -32 31 -32 38 -16 38 -15
61 0 60 0 32 14 32 13 28 32 28 32 9 25 10 25 0 27 0 27 -25 40 -24 40 -1 23
0 23 10 18 9 19 39 15 39 16 104 10 104 11 118 10 118 11 50 10 50 11 -5 11
-5 12 -27 65 -27 65 -23 120 -23 120 -16 64 -15 65 -26 33 -25 33 -27 0 -27 0
-52 -27 -52 -28 -26 25 -26 24 -15 54 -16 55 0 96 -1 96 13 43 14 43 29 25 29
24 24 0 25 0 62 -26 61 -26 46 5 45 5 28 34 28 33 17 55 17 55 0 195 0 195 -7
18 -7 17 -786 0 -785 0 0 -790z"/>
</g>
</svg>
