<?xml version="1.0" standalone="no"?>
<!DOCTYPE svg PUBLIC "-//W3C//DTD SVG 20010904//EN"
 "http://www.w3.org/TR/2001/REC-SVG-20010904/DTD/svg10.dtd">
<svg version="1.0" xmlns="http://www.w3.org/2000/svg"
 width="214.000000pt" height="162.000000pt" viewBox="0 0 214.000000 162.000000"
 preserveAspectRatio="xMidYMid meet">
<metadata>
Created by potrace 1.16, written by Peter Selinger 2001-2019
</metadata>
<g transform="translate(0.000000,162.000000) scale(0.100000,-0.100000)"
fill="#000000" stroke="none">
<path d="M2 1341 l-3 -278 14 -36 15 -35 20 -6 21 -7 35 15 36 15 104 17 103
17 45 -7 44 -7 36 -29 36 -30 11 -51 11 -50 0 -37 0 -37 -21 -45 -20 -45 -17
-18 -17 -19 -47 -24 -47 -24 -45 0 -44 0 -54 25 -53 25 -18 0 -19 0 -27 -27
-27 -28 -12 -60 -11 -60 -12 -195 -12 -195 -1 -40 -1 -40 105 -8 105 -8 180 3
180 3 33 23 32 23 0 32 0 32 -23 50 -24 50 -6 26 -7 26 23 44 22 44 45 25 45
25 80 0 80 0 58 -28 57 -29 15 -28 15 -29 0 -31 0 -31 -25 -59 -25 -59 0 -21
0 -21 10 -20 11 -19 32 -17 32 -18 165 0 165 0 107 8 106 9 5 21 6 22 21 70
20 70 30 175 29 175 15 37 16 37 21 14 21 15 64 -24 64 -24 56 0 56 0 28 16
27 17 19 31 18 31 4 81 4 81 -11 36 -12 36 -35 31 -35 30 -72 0 -72 0 -41 -19
-41 -19 -30 -6 -30 -7 -41 17 -42 16 -30 62 -29 61 -12 90 -11 90 7 140 6 140
5 28 6 27 -809 0 -808 0 -3 -279z"/>
</g>
</svg>
