<?xml version="1.0" standalone="no"?>
<!DOCTYPE svg PUBLIC "-//W3C//DTD SVG 20010904//EN"
 "http://www.w3.org/TR/2001/REC-SVG-20010904/DTD/svg10.dtd">
<svg version="1.0" xmlns="http://www.w3.org/2000/svg"
 width="161.000000pt" height="202.000000pt" viewBox="0 0 161.000000 202.000000"
 preserveAspectRatio="xMidYMid meet">
<metadata>
Created by potrace 1.16, written by Peter Selinger 2001-2019
</metadata>
<g transform="translate(0.000000,202.000000) scale(0.100000,-0.100000)"
fill="#000000" stroke="none">
<path d="M660 2008 l-35 -10 -23 -21 -22 -21 -10 -37 -10 -37 11 -78 11 -79
14 -40 14 -40 0 -18 0 -17 -27 -12 -28 -11 -125 -1 -125 -1 -153 9 -152 8 2
-783 3 -784 65 -3 65 -2 192 -15 192 -15 51 0 50 0 0 12 0 12 -22 45 -22 46
-4 86 -4 87 12 38 12 39 27 39 26 39 50 24 50 23 41 0 41 0 44 -15 43 -16 23
-21 22 -21 17 -44 17 -43 -6 -53 -5 -52 -21 -45 -21 -45 0 -21 0 -21 20 -26
20 -25 52 -13 52 -12 235 6 234 7 4 3 3 4 -39 84 -39 84 -42 170 -41 170 -19
42 -18 41 -22 12 -21 11 -30 -6 -29 -7 0 -14 0 -15 -14 -5 -14 -6 -20 11 -19
10 -24 48 -24 48 0 135 0 136 18 27 18 28 32 20 32 20 125 -5 125 -5 58 -14
57 -14 0 16 0 16 -15 126 -14 127 -7 136 -7 136 -12 0 -12 0 -139 -16 -139
-16 -91 4 -91 4 -27 17 -27 18 -12 26 -11 26 27 48 27 49 0 32 0 32 -21 43
-21 43 -45 40 -46 40 -50 15 -51 15 -65 -1 -66 -1 -35 -10z"/>
</g>
</svg>
