<?xml version="1.0" standalone="no"?>
<!DOCTYPE svg PUBLIC "-//W3C//DTD SVG 20010904//EN"
 "http://www.w3.org/TR/2001/REC-SVG-20010904/DTD/svg10.dtd">
<svg version="1.0" xmlns="http://www.w3.org/2000/svg"
 width="210.000000pt" height="164.000000pt" viewBox="0 0 210.000000 164.000000"
 preserveAspectRatio="xMidYMid meet">
<metadata>
Created by potrace 1.16, written by Peter Selinger 2001-2019
</metadata>
<g transform="translate(0.000000,164.000000) scale(0.100000,-0.100000)"
fill="#000000" stroke="none">
<path d="M68 1633 l-68 -4 0 -787 0 -787 8 -11 7 -11 213 -13 214 -13 68 7 69
6 26 10 27 10 -5 38 -5 37 -16 60 -16 60 -2 62 -2 62 20 28 21 28 28 14 29 14
66 5 66 4 56 -16 55 -16 46 -40 45 -40 21 -43 21 -43 0 -25 -1 -24 -24 -40
-25 -40 0 -28 0 -29 28 -28 29 -28 48 -8 49 -7 120 6 121 6 87 12 87 12 5 13
5 13 -19 133 -20 133 0 98 0 99 17 35 16 35 22 10 21 9 54 -21 55 -22 72 -5
72 -6 48 13 47 14 47 45 47 46 16 54 16 55 0 43 0 44 -16 31 -16 32 -22 18
-21 18 -47 25 -48 25 -67 16 -68 16 -85 -5 -85 -4 -37 -16 -38 -16 0 47 0 47
15 140 14 140 7 123 7 122 -9 0 -9 0 -80 -14 -80 -14 -95 -6 -95 -7 -95 -10
-94 -11 -38 -15 -39 -15 -9 -19 -10 -18 0 -31 0 -31 26 -45 26 -44 -6 -34 -6
-33 -33 -38 -32 -38 -32 -14 -32 -13 -50 0 -51 0 -38 15 -38 16 -31 32 -30 32
-16 32 -17 32 0 38 1 38 24 40 25 40 0 37 0 36 -30 25 -29 25 -51 11 -51 11
-167 -2 -167 -2 -67 -3z"/>
</g>
</svg>
