<?xml version="1.0" standalone="no"?>
<!DOCTYPE svg PUBLIC "-//W3C//DTD SVG 20010904//EN"
 "http://www.w3.org/TR/2001/REC-SVG-20010904/DTD/svg10.dtd">
<svg version="1.0" xmlns="http://www.w3.org/2000/svg"
 width="208.000000pt" height="162.000000pt" viewBox="0 0 208.000000 162.000000"
 preserveAspectRatio="xMidYMid meet">
<metadata>
Created by potrace 1.16, written by Peter Selinger 2001-2019
</metadata>
<g transform="translate(0.000000,162.000000) scale(0.100000,-0.100000)"
fill="#000000" stroke="none">
<path d="M68 1613 l-68 -4 0 -777 0 -777 8 -11 7 -11 212 -13 213 -13 61 7 61
7 25 10 25 9 -5 28 -6 27 -15 60 -16 60 -3 72 -2 71 21 29 21 28 29 14 29 15
76 4 76 4 55 -16 55 -16 46 -40 45 -40 21 -43 21 -43 0 -32 0 -32 -27 -49 -27
-48 11 -26 12 -26 28 -18 27 -18 136 0 135 0 102 14 102 13 4 12 4 11 -18 120
-18 120 0 113 -1 114 17 35 16 35 25 11 24 11 64 -23 64 -23 60 -5 60 -6 47
13 47 14 47 45 47 46 16 54 16 55 0 33 0 34 -16 31 -16 32 -22 18 -21 18 -47
25 -48 25 -62 15 -63 15 -55 0 -56 0 -49 -14 -50 -14 -22 -7 -23 -7 0 58 0 59
14 140 14 140 8 114 7 113 -19 -6 -19 -5 -65 -10 -65 -10 -90 -6 -90 -6 -95
-10 -94 -11 -38 -15 -39 -15 -9 -19 -10 -18 0 -23 1 -23 24 -40 25 -40 0 -27
0 -27 -10 -25 -9 -25 -28 -32 -28 -32 -32 -13 -32 -14 -60 0 -61 0 -38 15 -38
16 -31 32 -30 32 -16 32 -17 32 0 48 1 48 24 40 25 40 0 27 0 26 -30 25 -29
25 -51 11 -51 11 -157 -2 -157 -2 -67 -3z"/>
</g>
</svg>
