<?xml version="1.0" standalone="no"?>
<!DOCTYPE svg PUBLIC "-//W3C//DTD SVG 20010904//EN"
 "http://www.w3.org/TR/2001/REC-SVG-20010904/DTD/svg10.dtd">
<svg version="1.0" xmlns="http://www.w3.org/2000/svg"
 width="249.000000pt" height="181.000000pt" viewBox="0 0 249.000000 181.000000"
 preserveAspectRatio="xMidYMid meet">
<metadata>
Created by potrace 1.16, written by Peter Selinger 2001-2019
</metadata>
<g transform="translate(0.000000,181.000000) scale(0.100000,-0.100000)"
fill="#000000" stroke="none">
<path d="M1440 1801 l-35 -7 -22 -13 -23 -12 0 -37 0 -37 15 -47 14 -47 10
-74 10 -74 -10 -64 -10 -64 -32 -53 -32 -53 -33 -21 -33 -20 -48 0 -48 0 -29
15 -29 15 -17 19 -17 19 -17 39 -17 40 0 80 1 80 26 78 26 77 0 21 0 20 -37
16 -38 16 -305 -8 -305 -7 -1 -1 -2 -2 10 -115 9 -114 -11 -94 -10 -94 -21
-49 -22 -49 -33 -30 -34 -30 -26 -6 -25 -6 -37 6 -36 5 -28 21 -27 20 -29 0
-29 0 -16 -18 -16 -17 -10 -45 -11 -45 0 -104 0 -105 21 -43 21 -43 51 -45 52
-45 48 -16 49 -16 57 -1 57 0 31 23 31 23 25 -7 24 -6 14 -32 14 -33 -1 -70
-1 -70 -18 -84 -17 -85 -24 -75 -25 -74 5 -12 4 -12 164 -9 163 -9 135 0 135
0 3 23 4 23 -15 23 -15 23 -16 53 -16 54 0 41 0 41 16 55 16 54 52 51 51 52
40 11 40 11 32 0 33 0 37 -16 38 -15 38 -47 37 -47 20 -64 20 -63 0 -52 0 -51
-25 -70 -25 -70 0 -18 0 -18 16 -24 15 -24 31 -10 31 -11 81 0 81 0 95 20 95
19 90 28 90 27 7 10 7 10 10 66 11 65 15 185 14 185 16 51 15 51 20 18 21 19
32 -13 32 -13 35 -14 35 -13 45 -1 45 0 35 18 35 17 21 38 21 39 6 51 6 52 -9
64 -9 64 -28 35 -29 36 -35 12 -34 12 -72 1 -71 1 -76 -14 -75 -15 -22 -11
-22 -12 -9 13 -9 14 6 110 7 110 8 175 7 175 -11 8 -11 7 -95 30 -95 30 -95
20 -95 19 -70 5 -70 5 -35 -8z"/>
</g>
</svg>
