<?xml version="1.0" standalone="no"?>
<!DOCTYPE svg PUBLIC "-//W3C//DTD SVG 20010904//EN"
 "http://www.w3.org/TR/2001/REC-SVG-20010904/DTD/svg10.dtd">
<svg version="1.0" xmlns="http://www.w3.org/2000/svg"
 width="202.000000pt" height="213.000000pt" viewBox="0 0 202.000000 213.000000"
 preserveAspectRatio="xMidYMid meet">
<metadata>
Created by potrace 1.16, written by Peter Selinger 2001-2019
</metadata>
<g transform="translate(0.000000,213.000000) scale(0.100000,-0.100000)"
fill="#000000" stroke="none">
<path d="M124 2123 l-71 -4 -7 -106 -6 -106 0 -92 0 -92 10 -52 10 -52 16 -35
17 -35 30 -15 30 -16 37 6 37 6 44 20 44 20 53 0 53 0 38 -20 39 -19 30 -36
29 -36 13 -42 12 -42 0 -51 0 -52 -17 -33 -17 -34 -32 -29 -31 -29 -44 -20
-44 -19 -56 -5 -56 -4 -75 21 -75 21 -22 6 -23 5 -25 -6 -25 -6 -17 -33 -18
-32 1 -120 0 -120 18 -130 18 -130 9 -23 9 -24 283 7 282 7 39 -16 38 -16 -7
-17 -7 -18 -20 -60 -20 -60 -1 -100 -1 -100 17 -40 18 -39 17 -19 17 -19 30
-16 30 -16 65 0 66 0 34 21 35 22 32 53 32 53 11 73 12 73 -11 84 -12 84 -14
48 -15 48 0 17 0 17 33 17 32 17 70 0 70 -1 103 -21 102 -21 107 -35 106 -35
4 3 3 4 -30 153 -30 152 -12 119 -12 119 12 58 12 57 21 18 21 17 18 0 18 0
32 -26 31 -27 62 5 62 5 51 22 51 22 34 35 34 35 -1 93 -1 92 -12 22 -12 22
-27 0 -28 0 -20 -15 -19 -15 -37 -10 -38 -11 -39 11 -39 10 -31 35 -30 35 -22
67 -22 68 -5 208 -4 207 -8 0 -8 0 -74 -29 -73 -29 -80 -20 -80 -20 -85 -17
-85 -17 -55 -15 -54 -16 -29 -29 -29 -29 7 -37 7 -37 19 -31 19 -31 0 -34 -1
-34 -22 -27 -22 -27 -45 -20 -45 -21 -41 0 -40 0 -51 15 -51 15 -34 39 -35 38
-7 36 -7 35 31 93 31 93 -6 36 -6 35 -15 22 -14 23 -39 19 -39 20 -63 11 -64
10 -120 -2 -120 -2 -71 -3z"/>
</g>
</svg>
