<?xml version="1.0" standalone="no"?>
<!DOCTYPE svg PUBLIC "-//W3C//DTD SVG 20010904//EN"
 "http://www.w3.org/TR/2001/REC-SVG-20010904/DTD/svg10.dtd">
<svg version="1.0" xmlns="http://www.w3.org/2000/svg"
 width="172.000000pt" height="207.000000pt" viewBox="0 0 172.000000 207.000000"
 preserveAspectRatio="xMidYMid meet">
<metadata>
Created by potrace 1.16, written by Peter Selinger 2001-2019
</metadata>
<g transform="translate(0.000000,207.000000) scale(0.100000,-0.100000)"
fill="#000000" stroke="none">
<path d="M1086 2059 l-40 -10 -18 -16 -18 -16 0 -16 0 -16 25 -78 25 -78 0
-52 0 -53 -22 -44 -23 -45 -45 -23 -45 -24 -120 5 -120 5 -32 12 -33 12 0 13
0 13 21 13 20 14 11 65 11 65 -7 39 -8 40 -32 32 -32 32 -54 16 -54 16 -192 0
-193 0 -6 -42 -6 -43 -2 -245 -2 -246 18 -28 19 -28 26 7 27 6 20 20 21 19 30
6 30 6 43 -12 43 -11 43 -40 44 -41 17 -44 17 -44 -6 -41 -5 -40 -24 -35 -23
-35 -45 -28 -45 -29 -40 -11 -40 -11 -36 0 -36 0 -47 25 -47 25 -24 0 -24 0
-20 -26 -20 -25 -6 -52 -6 -52 16 -107 16 -107 34 -127 35 -126 0 -12 0 -12
73 7 72 7 171 7 170 8 37 -12 37 -13 0 -18 0 -18 -25 -54 -25 -53 0 -44 0 -45
20 -42 21 -42 42 -28 42 -29 30 -12 30 -11 70 -1 70 -1 35 24 36 24 29 53 29
54 1 55 0 55 -23 33 -23 32 3 32 3 33 40 20 40 20 140 -2 140 -1 139 -16 139
-15 9 5 8 5 -29 57 -29 57 -17 50 -17 50 -34 153 -34 153 -19 45 -20 44 -27
10 -27 11 -29 -6 -28 -7 -11 -21 -12 -21 -17 22 -18 21 -12 67 -13 66 6 74 5
73 23 40 22 40 39 16 38 15 56 0 55 0 77 -16 77 -16 13 -10 12 -11 7 6 6 6
-16 163 -17 163 -6 135 -7 136 -51 13 -51 12 -135 28 -135 29 -90 5 -90 6 -39
-10z"/>
</g>
</svg>
