<?xml version="1.0" standalone="no"?>
<!DOCTYPE svg PUBLIC "-//W3C//DTD SVG 20010904//EN"
 "http://www.w3.org/TR/2001/REC-SVG-20010904/DTD/svg10.dtd">
<svg version="1.0" xmlns="http://www.w3.org/2000/svg"
 width="160.000000pt" height="210.000000pt" viewBox="0 0 160.000000 210.000000"
 preserveAspectRatio="xMidYMid meet">
<metadata>
Created by potrace 1.16, written by Peter Selinger 2001-2019
</metadata>
<g transform="translate(0.000000,210.000000) scale(0.100000,-0.100000)"
fill="#000000" stroke="none">
<path d="M104 2093 l-92 -4 -7 -192 -7 -192 3 -91 4 -92 19 -21 19 -21 28 0
28 0 51 20 51 20 45 10 44 10 34 -14 35 -14 17 -34 17 -33 5 -91 5 -92 -13
-50 -12 -51 -28 -44 -28 -45 -33 -16 -32 -16 -27 0 -27 0 -27 21 -27 22 -38 1
-38 1 -17 -14 -16 -13 -15 -51 -15 -51 0 -227 0 -227 208 -4 207 -3 48 -24 49
-24 19 -31 19 -31 0 -18 0 -17 -25 -72 -25 -71 0 -57 0 -56 16 -22 15 -22 42
-22 42 -22 126 -4 126 -4 44 19 45 20 37 32 36 32 27 55 27 55 1 67 1 67 -25
48 -24 48 10 17 11 17 29 15 29 15 196 -1 195 -1 43 -7 44 -7 -7 32 -6 31 0
771 0 770 -42 -7 -41 -7 -208 -9 -207 -10 -51 -11 -50 -10 -26 -20 -25 -20 0
-42 0 -41 23 -24 22 -24 -2 -51 -2 -51 -27 -55 -28 -55 -33 -33 -33 -33 -27
-11 -28 -10 -45 6 -45 6 -47 15 -48 16 -34 40 -35 41 -6 42 -7 42 31 89 31 88
0 41 0 42 -22 20 -23 21 -40 11 -40 11 -140 -2 -140 -2 -91 -3z"/>
</g>
</svg>
