<?xml version="1.0" standalone="no"?>
<!DOCTYPE svg PUBLIC "-//W3C//DTD SVG 20010904//EN"
 "http://www.w3.org/TR/2001/REC-SVG-20010904/DTD/svg10.dtd">
<svg version="1.0" xmlns="http://www.w3.org/2000/svg"
 width="158.000000pt" height="208.000000pt" viewBox="0 0 158.000000 208.000000"
 preserveAspectRatio="xMidYMid meet">
<metadata>
Created by potrace 1.16, written by Peter Selinger 2001-2019
</metadata>
<g transform="translate(0.000000,208.000000) scale(0.100000,-0.100000)"
fill="#000000" stroke="none">
<path d="M104 2073 l-91 -4 -6 -142 -7 -142 0 -120 0 -120 13 -24 12 -24 17
-11 18 -11 77 27 78 27 36 6 36 7 36 -15 36 -15 17 -34 17 -33 5 -98 5 -99
-12 -53 -12 -52 -28 -45 -29 -46 -33 -16 -32 -16 -37 0 -37 0 -27 21 -26 20
-30 1 -29 1 -16 -13 -15 -12 -15 -51 -15 -51 0 -217 0 -217 208 -4 207 -3 48
-24 49 -24 19 -31 19 -31 0 -28 0 -27 -25 -72 -25 -71 0 -47 0 -46 16 -22 15
-22 42 -22 42 -22 116 -4 116 -4 44 19 45 20 37 32 36 32 27 54 26 54 1 58 2
58 -23 43 -22 43 0 23 0 23 18 15 17 15 34 12 34 11 131 -1 131 -1 93 -6 92
-7 -5 13 -5 14 0 775 0 775 -24 -6 -25 -6 -214 -10 -215 -10 -51 -11 -50 -10
-26 -20 -25 -20 0 -32 0 -31 23 -24 22 -24 -2 -60 -2 -60 -27 -56 -28 -57 -38
-37 -39 -37 -34 -7 -35 -6 -61 11 -61 10 -36 18 -36 18 -28 36 -29 35 -5 50
-6 50 31 89 31 89 0 31 0 32 -22 20 -23 21 -40 11 -40 11 -130 -2 -130 -2 -91
-3z"/>
</g>
</svg>
