<?xml version="1.0" standalone="no"?>
<!DOCTYPE svg PUBLIC "-//W3C//DTD SVG 20010904//EN"
 "http://www.w3.org/TR/2001/REC-SVG-20010904/DTD/svg10.dtd">
<svg version="1.0" xmlns="http://www.w3.org/2000/svg"
 width="215.000000pt" height="259.000000pt" viewBox="0 0 215.000000 259.000000"
 preserveAspectRatio="xMidYMid meet">
<metadata>
Created by potrace 1.16, written by Peter Selinger 2001-2019
</metadata>
<g transform="translate(0.000000,259.000000) scale(0.100000,-0.100000)"
fill="#000000" stroke="none">
<path d="M1192 2575 l-32 -14 -10 -26 -10 -26 0 -37 0 -37 26 -94 26 -94 -7
-33 -6 -32 -34 -31 -35 -30 -52 -17 -53 -17 -233 -5 -232 -4 6 -236 6 -237
-11 -60 -11 -60 -19 -18 -18 -19 -89 23 -89 22 -90 1 -90 0 -37 -16 -37 -16
-27 -41 -27 -41 -5 -49 -4 -48 18 -38 17 -37 41 -30 41 -31 43 -19 42 -19 49
-6 50 -6 24 27 24 26 22 0 22 0 18 -10 19 -9 15 -40 16 -39 10 -83 11 -84 15
-142 16 -141 14 -49 15 -49 77 9 78 9 95 -6 96 -6 50 -15 51 -15 34 -22 34
-23 23 -45 23 -45 -4 -67 -4 -66 -22 -27 -21 -28 0 -27 0 -27 20 -26 20 -25
46 -23 46 -22 94 -5 95 -5 40 18 40 19 27 45 27 46 0 110 -1 110 -22 86 -23
86 7 17 6 17 28 14 27 14 51 7 50 6 99 -11 99 -12 139 -28 140 -28 6 9 6 9
-13 57 -13 57 -15 151 -15 152 -12 46 -11 46 -24 25 -23 25 -28 0 -28 -1 -50
-24 -50 -25 -21 0 -21 0 -34 23 -34 22 -22 33 -21 33 -11 50 -11 50 0 64 0 64
11 51 11 51 24 29 25 29 37 12 37 12 72 -1 72 -1 66 -16 65 -15 24 -15 23 -15
13 15 14 16 -12 152 -12 152 -7 128 -6 127 -5 0 -5 0 -76 15 -76 15 -150 15
-150 15 -36 10 -37 10 -26 21 -26 20 0 38 0 38 26 28 26 28 -7 35 -7 36 -18
37 -19 37 -47 41 -47 41 -36 10 -36 10 -70 0 -70 -1 -33 -14z"/>
</g>
</svg>
