<?xml version="1.0" standalone="no"?>
<!DOCTYPE svg PUBLIC "-//W3C//DTD SVG 20010904//EN"
 "http://www.w3.org/TR/2001/REC-SVG-20010904/DTD/svg10.dtd">
<svg version="1.0" xmlns="http://www.w3.org/2000/svg"
 width="242.000000pt" height="244.000000pt" viewBox="0 0 242.000000 244.000000"
 preserveAspectRatio="xMidYMid meet">
<metadata>
Created by potrace 1.16, written by Peter Selinger 2001-2019
</metadata>
<g transform="translate(0.000000,244.000000) scale(0.100000,-0.100000)"
fill="#000000" stroke="none">
<path d="M1175 2426 l-30 -14 -27 -28 -27 -29 -10 -28 -11 -28 0 -37 0 -37 25
-50 24 -50 1 -22 0 -21 -6 -17 -6 -16 -38 -19 -37 -19 -85 -11 -84 -10 -219 9
-220 9 -1 -1 -2 -2 14 -192 13 -192 11 -82 10 -82 -3 -3 -3 -3 -79 14 -80 14
-100 1 -100 0 -32 -20 -32 -19 -18 -28 -18 -27 0 -146 1 -145 17 -38 17 -37
20 -20 20 -20 26 0 26 0 5 19 5 19 21 6 20 5 20 -10 19 -11 18 -41 19 -42 41
-170 41 -170 45 -93 45 -93 27 5 27 5 193 11 194 11 44 -7 45 -6 21 -17 21
-17 -27 -66 -26 -66 0 -68 0 -67 20 -32 20 -33 53 -23 52 -22 87 -5 87 -4 36
22 36 22 24 39 25 38 16 59 17 60 -7 36 -7 36 -20 19 -21 19 4 23 3 22 27 20
27 20 108 5 108 4 170 -16 170 -15 23 -7 22 -6 0 25 0 25 -35 126 -34 127 -16
106 -16 106 7 44 6 43 20 25 19 25 14 0 14 0 47 -25 47 -25 46 0 46 0 40 11
40 11 45 29 45 28 24 36 24 36 5 49 5 50 -17 44 -17 44 -44 41 -43 40 -43 11
-44 12 -38 -5 -39 -5 -21 -20 -22 -19 -17 -6 -18 -6 -17 27 -18 26 2 221 2
220 6 68 6 67 -16 0 -16 0 -22 -14 -22 -14 -105 -35 -105 -35 -84 -16 -83 -16
-62 0 -61 0 -32 20 -33 20 0 22 0 23 21 65 21 65 2 85 1 85 -28 58 -28 57 -44
25 -43 26 -48 5 -49 4 -30 -14z"/>
</g>
</svg>
