<?xml version="1.0" standalone="no"?>
<!DOCTYPE svg PUBLIC "-//W3C//DTD SVG 20010904//EN"
 "http://www.w3.org/TR/2001/REC-SVG-20010904/DTD/svg10.dtd">
<svg version="1.0" xmlns="http://www.w3.org/2000/svg"
 width="240.000000pt" height="242.000000pt" viewBox="0 0 240.000000 242.000000"
 preserveAspectRatio="xMidYMid meet">
<metadata>
Created by potrace 1.16, written by Peter Selinger 2001-2019
</metadata>
<g transform="translate(0.000000,242.000000) scale(0.100000,-0.100000)"
fill="#000000" stroke="none">
<path d="M1175 2406 l-30 -14 -27 -28 -27 -29 -10 -28 -11 -28 0 -27 0 -27 25
-50 24 -50 1 -32 0 -31 -6 -17 -6 -16 -38 -19 -37 -19 -84 -11 -84 -10 -160 5
-160 5 -60 5 -60 5 7 -127 8 -128 15 -145 15 -145 0 -11 0 -11 -57 14 -58 14
-125 5 -125 5 -32 -20 -32 -20 -18 -28 -18 -27 0 -136 0 -135 24 -48 24 -48
19 -10 20 -11 14 6 14 5 0 15 0 14 29 7 30 6 21 -11 22 -12 18 -41 19 -42 41
-170 41 -170 44 -90 43 -91 94 8 93 8 165 2 166 3 27 -18 27 -17 0 -18 0 -17
-25 -60 -25 -60 0 -59 0 -59 20 -32 20 -33 53 -22 52 -23 77 -5 77 -4 36 22
36 22 24 38 24 38 16 56 17 56 -7 31 -7 30 -20 18 -19 19 3 32 3 33 26 20 27
19 93 6 93 5 175 -12 176 -13 33 -8 32 -8 0 13 0 13 -35 126 -34 127 -16 107
-16 107 6 52 6 52 20 25 20 26 24 0 24 0 47 -25 47 -25 36 0 36 0 40 11 40 11
45 29 45 28 23 35 24 35 5 40 6 41 -17 44 -17 44 -44 41 -43 40 -43 11 -43 12
-30 -6 -30 -6 -21 -19 -20 -20 -27 -6 -26 -7 -18 27 -18 28 -4 86 -3 86 9 200
9 200 -3 3 -2 4 -24 -15 -23 -15 -105 -35 -105 -35 -84 -16 -83 -16 -72 0 -71
0 -32 20 -33 20 0 32 0 33 21 65 21 65 1 75 2 75 -28 58 -28 57 -42 24 -42 25
-40 6 -40 5 -30 -14z"/>
</g>
</svg>
