<?xml version="1.0" standalone="no"?>
<!DOCTYPE svg PUBLIC "-//W3C//DTD SVG 20010904//EN"
 "http://www.w3.org/TR/2001/REC-SVG-20010904/DTD/svg10.dtd">
<svg version="1.0" xmlns="http://www.w3.org/2000/svg"
 width="252.000000pt" height="212.000000pt" viewBox="0 0 252.000000 212.000000"
 preserveAspectRatio="xMidYMid meet">
<metadata>
Created by potrace 1.16, written by Peter Selinger 2001-2019
</metadata>
<g transform="translate(0.000000,212.000000) scale(0.100000,-0.100000)"
fill="#000000" stroke="none">
<path d="M1138 2106 l-47 -13 -15 -13 -16 -12 0 -24 0 -23 19 -13 19 -14 7
-45 7 -45 -11 -41 -11 -40 -21 -27 -21 -27 -38 -24 -37 -23 -54 -18 -54 -17
-180 -3 -180 -4 -6 0 -6 0 4 -92 4 -93 20 -219 19 -220 -3 -2 -3 -3 -94 16
-95 15 -120 1 -120 1 -32 -17 -33 -17 -15 -24 -16 -23 -6 -51 -6 -50 7 -37 7
-36 35 -39 35 -39 51 -17 51 -17 56 6 56 5 47 23 47 23 25 -12 25 -11 16 -53
17 -53 8 -269 9 -269 13 -8 13 -9 45 0 45 0 225 -20 225 -20 54 0 54 0 -6 32
-6 33 -16 75 -17 75 5 70 5 70 21 56 21 55 32 31 33 31 22 11 22 11 26 0 26 0
38 -20 39 -19 31 -38 32 -38 14 -49 15 -50 0 -46 0 -47 -21 -79 -22 -79 -4
-37 -5 -36 20 -20 21 -21 38 -10 38 -11 55 0 55 0 99 15 100 15 115 31 116 30
0 292 0 292 22 48 22 47 13 1 13 1 15 -2 15 -2 26 -19 27 -19 61 0 62 0 38 19
38 20 31 36 32 36 0 68 0 67 -16 54 -16 54 -33 33 -33 33 -46 0 -47 0 -47 -25
-47 -25 -23 0 -24 0 -33 33 -33 33 -14 45 -13 44 2 216 2 216 -82 41 -82 40
-50 16 -50 15 -145 36 -145 36 -33 21 -32 20 -10 19 -10 19 6 24 6 25 19 17
19 17 0 23 0 23 -32 18 -33 17 -130 3 -130 3 -47 -14z"/>
</g>
</svg>
