<?xml version="1.0" standalone="no"?>
<!DOCTYPE svg PUBLIC "-//W3C//DTD SVG 20010904//EN"
 "http://www.w3.org/TR/2001/REC-SVG-20010904/DTD/svg10.dtd">
<svg version="1.0" xmlns="http://www.w3.org/2000/svg"
 width="255.000000pt" height="165.000000pt" viewBox="0 0 255.000000 165.000000"
 preserveAspectRatio="xMidYMid meet">
<metadata>
Created by potrace 1.16, written by Peter Selinger 2001-2019
</metadata>
<g transform="translate(0.000000,165.000000) scale(0.100000,-0.100000)"
fill="#000000" stroke="none">
<path d="M438 1603 l7 -48 0 -160 0 -160 -13 -52 -14 -53 -29 -39 -28 -40 -37
-7 -36 -7 -64 27 -64 26 -34 0 -34 0 -30 -25 -29 -24 -14 -48 -13 -48 1 -95 0
-96 13 -52 12 -53 25 -30 25 -29 21 0 22 0 44 25 43 25 19 0 18 0 24 -33 25
-32 11 -35 11 -35 20 -115 21 -115 15 -55 16 -55 25 -56 24 -56 172 -7 172 -7
73 11 73 10 29 15 28 15 21 26 20 25 7 44 6 45 -10 60 -11 61 -21 28 -20 29 6
17 6 16 37 18 36 19 53 11 53 11 47 0 47 0 37 -10 37 -11 31 -26 31 -25 16
-31 16 -31 -1 -51 0 -51 -22 -63 -21 -63 3 -47 3 -46 40 -20 40 -20 130 2 130
1 150 21 150 21 7 0 7 0 -1 33 -1 32 12 195 12 195 11 58 11 58 19 24 19 25
20 0 20 0 39 -20 39 -20 66 0 66 0 47 24 47 24 17 19 17 18 20 45 21 45 -1 65
-1 65 -11 44 -12 44 -38 31 -39 31 -106 -1 -107 -1 -70 -17 -70 -18 -24 -1
-25 -2 -15 38 -14 38 9 257 9 257 -10 7 -10 8 -792 0 -793 0 8 -47z"/>
</g>
</svg>
