<?xml version="1.0" standalone="no"?>
<!DOCTYPE svg PUBLIC "-//W3C//DTD SVG 20010904//EN"
 "http://www.w3.org/TR/2001/REC-SVG-20010904/DTD/svg10.dtd">
<svg version="1.0" xmlns="http://www.w3.org/2000/svg"
 width="253.000000pt" height="163.000000pt" viewBox="0 0 253.000000 163.000000"
 preserveAspectRatio="xMidYMid meet">
<metadata>
Created by potrace 1.16, written by Peter Selinger 2001-2019
</metadata>
<g transform="translate(0.000000,163.000000) scale(0.100000,-0.100000)"
fill="#000000" stroke="none">
<path d="M443 1563 l9 -68 -5 -150 -5 -150 -16 -50 -15 -50 -28 -33 -28 -34
-45 -5 -46 -5 -61 26 -62 26 -25 0 -24 0 -29 -24 -29 -25 -14 -43 -13 -43 1
-96 0 -96 16 -55 15 -54 26 -24 26 -25 52 28 52 27 27 0 27 0 24 -33 25 -32
11 -35 11 -35 20 -115 21 -115 15 -55 16 -55 24 -56 25 -56 162 -7 162 -7 73
11 73 10 29 15 28 15 20 25 20 26 7 38 6 39 -10 57 -11 56 -21 30 -21 30 6 24
6 25 38 19 37 19 53 11 53 11 57 0 57 0 37 -10 37 -11 31 -26 31 -25 16 -32
16 -31 0 -60 -1 -60 -21 -64 -22 -64 3 -36 3 -36 40 -20 40 -20 120 2 120 1
150 21 150 21 5 0 5 0 1 33 0 32 12 195 12 195 11 55 11 55 9 18 10 17 24 16
24 16 57 -26 56 -26 55 0 54 0 47 24 47 24 17 19 17 18 20 45 21 45 -1 55 -1
55 -11 44 -12 44 -36 29 -36 29 -55 6 -56 6 -101 -17 -102 -17 -34 -15 -35
-14 -19 19 -20 20 -7 37 -7 37 9 249 9 248 -13 5 -14 5 -777 0 -778 0 10 -67z"/>
</g>
</svg>
