<?xml version="1.0" standalone="no"?>
<!DOCTYPE svg PUBLIC "-//W3C//DTD SVG 20010904//EN"
 "http://www.w3.org/TR/2001/REC-SVG-20010904/DTD/svg10.dtd">
<svg version="1.0" xmlns="http://www.w3.org/2000/svg"
 width="218.000000pt" height="168.000000pt" viewBox="0 0 218.000000 168.000000"
 preserveAspectRatio="xMidYMid meet">
<metadata>
Created by potrace 1.16, written by Peter Selinger 2001-2019
</metadata>
<g transform="translate(0.000000,168.000000) scale(0.100000,-0.100000)"
fill="#000000" stroke="none">
<path d="M85 1583 l0 -98 -9 -210 -9 -210 12 -44 12 -43 22 6 22 5 75 21 75
21 73 -4 72 -4 57 -29 56 -29 19 -37 20 -37 -7 -30 -6 -30 -21 -26 -20 -26
-41 -22 -42 -21 -95 0 -95 0 -65 19 -65 18 -40 4 -40 5 -20 -22 -20 -22 -4
-101 -3 -102 12 -75 11 -75 35 -141 34 -142 0 -14 0 -15 198 2 197 1 55 13 55
13 42 24 42 24 20 26 21 27 0 66 0 66 -20 30 -20 30 0 21 0 20 28 27 28 27 68
17 69 17 56 -12 56 -12 39 -27 39 -28 30 -53 30 -53 -1 -54 0 -53 -21 -47 -21
-48 0 -43 0 -43 26 -20 25 -20 57 -7 57 -7 96 10 95 11 127 28 127 29 0 25 0
25 -15 165 -15 165 6 55 6 55 13 32 13 31 19 10 19 10 49 -24 50 -25 70 3 70
3 45 23 45 24 33 31 34 32 21 40 22 40 0 90 0 90 -21 40 -21 40 -34 20 -34 20
-60 -1 -60 -1 -62 -26 -62 -27 -25 0 -24 0 -31 25 -30 26 -13 37 -13 37 2 258
3 257 -803 0 -802 0 0 -97z"/>
</g>
</svg>
