<?xml version="1.0" standalone="no"?>
<!DOCTYPE svg PUBLIC "-//W3C//DTD SVG 20010904//EN"
 "http://www.w3.org/TR/2001/REC-SVG-20010904/DTD/svg10.dtd">
<svg version="1.0" xmlns="http://www.w3.org/2000/svg"
 width="216.000000pt" height="166.000000pt" viewBox="0 0 216.000000 166.000000"
 preserveAspectRatio="xMidYMid meet">
<metadata>
Created by potrace 1.16, written by Peter Selinger 2001-2019
</metadata>
<g transform="translate(0.000000,166.000000) scale(0.100000,-0.100000)"
fill="#000000" stroke="none">
<path d="M85 1563 l0 -98 -9 -200 -9 -200 12 -43 12 -44 17 8 17 7 70 19 70
19 82 -4 82 -3 57 -30 57 -29 19 -35 19 -35 -5 -39 -5 -39 -19 -26 -19 -26
-44 -25 -44 -25 -105 0 -105 1 -65 18 -65 19 -30 4 -30 5 -20 -22 -20 -22 -4
-91 -3 -91 12 -75 11 -76 35 -141 34 -142 0 -14 0 -13 188 0 187 1 55 13 55
13 42 24 42 24 20 26 21 27 0 56 0 56 -20 30 -20 30 0 31 0 30 28 27 27 26 60
15 59 16 37 0 36 0 47 -14 47 -14 32 -25 33 -25 29 -53 29 -53 -1 -61 0 -61
-22 -48 -21 -49 0 -33 0 -33 26 -20 25 -20 56 -7 57 -7 94 12 94 11 106 26
107 26 13 1 12 0 0 12 0 11 -16 174 -15 175 7 60 6 60 14 32 13 33 24 11 24
11 57 -27 58 -27 57 4 57 4 45 23 44 23 33 31 34 32 21 40 22 40 0 80 0 80
-21 40 -21 40 -34 20 -33 19 -51 -1 -50 0 -62 -27 -62 -26 -35 0 -34 0 -31 25
-30 26 -13 37 -13 37 2 258 2 257 -792 0 -792 0 0 -97z"/>
</g>
</svg>
