<?xml version="1.0" standalone="no"?>
<!DOCTYPE svg PUBLIC "-//W3C//DTD SVG 20010904//EN"
 "http://www.w3.org/TR/2001/REC-SVG-20010904/DTD/svg10.dtd">
<svg version="1.0" xmlns="http://www.w3.org/2000/svg"
 width="210.000000pt" height="159.000000pt" viewBox="0 0 210.000000 159.000000"
 preserveAspectRatio="xMidYMid meet">
<metadata>
Created by potrace 1.16, written by Peter Selinger 2001-2019
</metadata>
<g transform="translate(0.000000,159.000000) scale(0.100000,-0.100000)"
fill="#000000" stroke="none">
<path d="M119 1583 l-86 -4 -6 -77 -6 -77 -7 -135 -6 -135 10 -76 10 -77 13
-28 14 -29 27 -3 26 -3 49 22 48 23 50 -1 51 0 29 -16 30 -15 27 -29 27 -28
15 -37 16 -37 0 -26 0 -26 -15 -30 -16 -29 -40 -30 -40 -29 -53 -12 -53 -11
-60 26 -60 27 -33 -3 -33 -3 -21 -28 -21 -28 -4 -117 -3 -116 11 -141 11 -140
6 -52 6 -53 796 0 795 0 -7 188 -7 187 11 74 10 75 18 30 18 31 22 3 23 3 67
-22 67 -23 66 0 67 0 28 19 29 18 17 21 17 21 16 44 15 45 0 73 0 73 -16 39
-16 39 -41 18 -42 17 -110 -1 -110 -1 -90 -15 -90 -15 -10 10 -9 9 22 273 23
272 -1 33 0 32 -10 0 -9 0 -53 -21 -53 -21 -45 -14 -45 -14 -175 -36 -175 -35
-41 -20 -41 -19 -12 -26 -11 -25 7 -27 6 -26 20 -34 19 -33 1 -25 0 -26 -14
-25 -13 -25 -41 -23 -40 -23 -32 -7 -32 -6 -57 10 -58 11 -28 27 -28 27 0 17
0 17 25 54 25 53 0 60 0 60 -20 42 -19 43 -48 30 -48 31 -51 15 -51 15 -104 9
-104 9 -25 -1 -25 -2 -86 -3z"/>
</g>
</svg>
