<?xml version="1.0" standalone="no"?>
<!DOCTYPE svg PUBLIC "-//W3C//DTD SVG 20010904//EN"
 "http://www.w3.org/TR/2001/REC-SVG-20010904/DTD/svg10.dtd">
<svg version="1.0" xmlns="http://www.w3.org/2000/svg"
 width="158.000000pt" height="157.000000pt" viewBox="0 0 158.000000 157.000000"
 preserveAspectRatio="xMidYMid meet">
<metadata>
Created by potrace 1.16, written by Peter Selinger 2001-2019
</metadata>
<g transform="translate(0.000000,157.000000) scale(0.100000,-0.100000)"
fill="#000000" stroke="none">
<path d="M84 1563 l-71 -4 -7 -67 -6 -67 0 -95 0 -95 11 -65 10 -65 21 -43 20
-43 29 -14 28 -15 21 0 21 0 49 25 49 25 26 0 25 0 19 -19 20 -20 18 -33 18
-33 0 -177 0 -177 -17 -17 -17 -17 -31 27 -32 26 -19 0 -20 0 -20 -10 -19 -11
-15 -30 -16 -30 -35 -152 -34 -152 -17 -50 -16 -50 -29 -57 -28 -58 775 0 775
0 0 4 0 3 -9 50 -10 49 -11 130 -11 129 -10 94 -11 94 -10 26 -9 26 -21 23
-21 22 -23 0 -22 0 -30 -25 -30 -25 -33 0 -32 0 -43 45 -43 44 -7 37 -7 36 5
66 5 67 18 35 18 35 16 12 16 12 28 1 27 0 49 -25 49 -26 41 -2 41 -1 27 20
28 21 17 49 17 49 1 227 0 226 -6 15 -5 15 -38 -9 -38 -8 -198 -16 -198 -15
-26 -6 -26 -5 -36 -16 -37 -15 -11 -24 -11 -24 9 -24 9 -23 16 -6 16 -6 0 -53
0 -53 -19 -41 -18 -40 -34 -39 -34 -38 -32 -13 -32 -14 -45 0 -45 0 -28 11
-28 10 -42 45 -41 44 -12 36 -13 37 6 52 5 52 21 39 21 39 0 26 0 26 -25 25
-24 24 -38 13 -38 13 -175 3 -175 2 -71 -4z"/>
</g>
</svg>
