<?xml version="1.0" standalone="no"?>
<!DOCTYPE svg PUBLIC "-//W3C//DTD SVG 20010904//EN"
 "http://www.w3.org/TR/2001/REC-SVG-20010904/DTD/svg10.dtd">
<svg version="1.0" xmlns="http://www.w3.org/2000/svg"
 width="160.000000pt" height="158.000000pt" viewBox="0 0 160.000000 158.000000"
 preserveAspectRatio="xMidYMid meet">
<metadata>
Created by potrace 1.16, written by Peter Selinger 2001-2019
</metadata>
<g transform="translate(0.000000,158.000000) scale(0.100000,-0.100000)"
fill="#000000" stroke="none">
<path d="M149 1573 l-116 -4 -7 -142 -6 -142 -11 -137 -11 -137 6 -26 6 -25
25 16 24 15 53 15 53 14 61 0 62 0 67 -21 66 -20 49 -47 48 -47 11 -40 11 -40
0 -23 0 -23 -14 -34 -15 -34 -33 -37 -33 -37 -40 -18 -40 -19 -32 0 -31 0 -16
6 -16 6 0 13 0 13 -26 6 -26 7 -24 -16 -24 -15 -13 -28 -14 -27 -6 -25 -6 -25
-26 -174 -26 -174 -23 -73 -24 -74 784 0 784 0 0 781 0 781 -22 -14 -23 -15
-46 -26 -46 -27 -59 -21 -59 -20 -128 -34 -127 -35 -30 -15 -30 -15 -16 -25
-16 -24 8 -23 7 -23 18 -13 19 -13 0 -12 0 -12 -38 -18 -37 -17 -54 -10 -54
-10 -82 0 -82 0 -54 10 -54 10 -17 21 -18 21 0 27 0 28 26 63 25 63 6 46 5 46
-24 35 -24 35 -39 13 -40 14 -115 2 -115 3 -116 -4z"/>
</g>
</svg>
