<?xml version="1.0" standalone="no"?>
<!DOCTYPE svg PUBLIC "-//W3C//DTD SVG 20010904//EN"
 "http://www.w3.org/TR/2001/REC-SVG-20010904/DTD/svg10.dtd">
<svg version="1.0" xmlns="http://www.w3.org/2000/svg"
 width="199.000000pt" height="197.000000pt" viewBox="0 0 199.000000 197.000000"
 preserveAspectRatio="xMidYMid meet">
<metadata>
Created by potrace 1.16, written by Peter Selinger 2001-2019
</metadata>
<g transform="translate(0.000000,197.000000) scale(0.100000,-0.100000)"
fill="#000000" stroke="none">
<path d="M1130 1961 l-25 -8 -32 -16 -32 -17 -29 -43 -29 -42 -11 -34 -12 -34
0 -32 0 -32 25 -47 25 -47 0 -20 0 -19 -27 -11 -28 -11 -205 6 -205 6 -75 6
-76 7 4 -220 4 -220 -16 -57 -17 -57 -19 -19 -20 -20 -22 0 -23 0 -60 25 -60
25 -28 0 -28 0 -29 -15 -30 -15 -22 -43 -22 -42 -4 -108 -4 -107 6 -44 7 -43
14 -19 13 -19 25 23 25 24 39 5 38 5 26 -29 26 -29 12 -35 12 -34 30 -143 30
-144 29 -76 28 -77 12 -30 12 -30 790 3 789 2 -6 188 -5 187 -5 90 -5 90 -11
40 -11 40 -21 23 -20 22 -28 0 -27 0 -49 -21 -48 -21 -51 -5 -51 -6 -39 13
-39 12 -33 31 -32 31 -11 38 -10 37 10 76 9 75 19 31 18 32 37 19 36 19 86 0
86 0 90 -17 90 -16 6 -9 5 -9 21 0 21 0 -7 138 -6 137 -6 142 -7 142 -11 4
-11 4 -130 -13 -130 -13 -110 0 -110 -1 -36 10 -35 10 -22 20 -22 21 0 27 0
27 25 40 24 40 1 32 0 32 -11 28 -10 28 -32 33 -32 34 -35 18 -35 18 -45 6
-45 5 -25 -8z"/>
</g>
</svg>
