<?xml version="1.0" standalone="no"?>
<!DOCTYPE svg PUBLIC "-//W3C//DTD SVG 20010904//EN"
 "http://www.w3.org/TR/2001/REC-SVG-20010904/DTD/svg10.dtd">
<svg version="1.0" xmlns="http://www.w3.org/2000/svg"
 width="210.000000pt" height="164.000000pt" viewBox="0 0 210.000000 164.000000"
 preserveAspectRatio="xMidYMid meet">
<metadata>
Created by potrace 1.16, written by Peter Selinger 2001-2019
</metadata>
<g transform="translate(0.000000,164.000000) scale(0.100000,-0.100000)"
fill="#000000" stroke="none">
<path d="M1548 1631 l-36 -8 -26 -17 -26 -16 0 -34 0 -33 19 -44 19 -44 7 -43
7 -43 -12 -64 -12 -65 -32 -52 -31 -52 -43 -33 -44 -33 -44 0 -44 0 -35 23
-35 22 -25 49 -25 50 0 21 0 22 26 49 26 49 -4 64 -4 64 -41 37 -42 37 -52 17
-53 17 -96 10 -95 10 -153 -7 -154 -6 7 -177 7 -176 -11 -83 -12 -82 -15 -42
-15 -42 -40 -38 -41 -38 -36 0 -37 0 -78 25 -78 25 -39 0 -39 0 -28 -24 -27
-24 -4 -71 -4 -71 6 -35 7 -34 48 -54 49 -53 55 -27 55 -28 53 -14 54 -15 56
0 56 0 24 19 24 18 22 7 22 7 19 -10 19 -10 11 -28 10 -28 6 -32 5 -32 -14
-93 -14 -94 -31 -89 -32 -90 -5 -23 -5 -22 794 0 794 0 3 220 3 220 -12 56
-12 57 -26 24 -27 25 -40 -5 -40 -4 -51 -23 -51 -23 -28 7 -28 7 -33 33 -32
32 -16 54 -16 54 0 46 0 46 28 55 27 54 49 33 48 32 30 0 30 0 30 -25 30 -25
54 0 53 0 18 33 18 32 -3 275 -2 274 -8 8 -7 7 -140 25 -140 24 -105 6 -105 5
-37 -8z"/>
</g>
</svg>
