<?xml version="1.0" standalone="no"?>
<!DOCTYPE svg PUBLIC "-//W3C//DTD SVG 20010904//EN"
 "http://www.w3.org/TR/2001/REC-SVG-20010904/DTD/svg10.dtd">
<svg version="1.0" xmlns="http://www.w3.org/2000/svg"
 width="208.000000pt" height="162.000000pt" viewBox="0 0 208.000000 162.000000"
 preserveAspectRatio="xMidYMid meet">
<metadata>
Created by potrace 1.16, written by Peter Selinger 2001-2019
</metadata>
<g transform="translate(0.000000,162.000000) scale(0.100000,-0.100000)"
fill="#000000" stroke="none">
<path d="M1548 1611 l-36 -8 -26 -17 -26 -16 0 -24 0 -23 22 -49 22 -49 0 -80
0 -80 -12 -42 -12 -41 -33 -48 -32 -48 -41 -29 -40 -28 -51 -1 -50 0 -37 24
-36 23 -25 49 -25 50 0 31 0 32 26 49 26 49 -4 54 -5 55 -41 36 -41 37 -52 17
-53 17 -96 10 -95 10 -143 -7 -143 -7 7 -171 7 -171 -12 -87 -12 -87 -15 -43
-15 -42 -40 -38 -41 -38 -46 0 -47 0 -78 25 -78 25 -29 0 -29 0 -27 -23 -28
-24 -4 -61 -4 -61 6 -35 7 -35 48 -54 49 -53 55 -27 55 -28 53 -14 54 -15 46
0 46 0 25 19 25 20 26 6 26 7 20 -7 21 -6 14 -27 13 -27 7 -45 6 -45 -14 -95
-15 -96 -29 -84 -29 -85 -8 -18 -7 -17 783 0 784 0 4 208 3 209 -12 58 -12 58
-25 23 -26 24 -22 0 -23 0 -54 -25 -53 -25 -31 0 -31 0 -34 23 -34 22 -24 49
-24 49 -5 76 -4 76 29 55 28 55 49 33 48 32 40 0 40 0 30 -25 30 -25 44 0 43
0 18 33 18 32 -3 265 -3 265 -7 7 -7 7 -140 25 -140 24 -95 5 -95 6 -37 -8z"/>
</g>
</svg>
