<?xml version="1.0" standalone="no"?>
<!DOCTYPE svg PUBLIC "-//W3C//DTD SVG 20010904//EN"
 "http://www.w3.org/TR/2001/REC-SVG-20010904/DTD/svg10.dtd">
<svg version="1.0" xmlns="http://www.w3.org/2000/svg"
 width="251.000000pt" height="163.000000pt" viewBox="0 0 251.000000 163.000000"
 preserveAspectRatio="xMidYMid meet">
<metadata>
Created by potrace 1.16, written by Peter Selinger 2001-2019
</metadata>
<g transform="translate(0.000000,163.000000) scale(0.100000,-0.100000)"
fill="#000000" stroke="none">
<path d="M1446 1619 l-40 -10 -18 -16 -18 -16 0 -38 0 -38 15 -15 15 -14 11
-29 11 -28 -7 -55 -7 -55 -21 -55 -20 -55 -25 -40 -25 -40 -30 -27 -30 -28
-34 -6 -33 -6 -25 6 -25 7 -39 37 -39 38 -11 39 -11 40 26 50 26 50 5 57 6 56
-23 47 -23 47 -51 24 -51 23 -90 11 -90 10 -183 -7 -183 -6 3 -271 3 -271 -18
-32 -18 -33 -33 0 -34 0 -30 25 -30 25 -50 0 -50 0 -48 -32 -49 -33 -28 -55
-29 -55 4 -86 4 -85 24 -50 25 -49 34 -22 34 -23 40 0 39 0 60 27 59 26 26
-14 26 -14 16 -35 16 -35 0 -240 0 -240 801 -3 801 -2 22 72 21 73 25 170 26
170 10 39 11 39 27 28 28 28 22 -6 21 -5 0 -13 0 -13 16 -6 16 -6 41 0 42 0
40 19 40 18 33 37 33 37 15 34 14 34 0 33 0 33 -11 40 -11 40 -49 47 -48 47
-71 22 -71 21 -87 -4 -87 -5 -48 -17 -49 -17 -5 5 -6 5 12 138 11 138 6 146 7
146 -11 7 -10 6 -129 20 -128 21 -120 4 -120 4 -39 -10z"/>
</g>
</svg>
