<?xml version="1.0" standalone="no"?>
<!DOCTYPE svg PUBLIC "-//W3C//DTD SVG 20010904//EN"
 "http://www.w3.org/TR/2001/REC-SVG-20010904/DTD/svg10.dtd">
<svg version="1.0" xmlns="http://www.w3.org/2000/svg"
 width="172.000000pt" height="161.000000pt" viewBox="0 0 172.000000 161.000000"
 preserveAspectRatio="xMidYMid meet">
<metadata>
Created by potrace 1.16, written by Peter Selinger 2001-2019
</metadata>
<g transform="translate(0.000000,161.000000) scale(0.100000,-0.100000)"
fill="#000000" stroke="none">
<path d="M1073 1600 l-32 -7 -26 -17 -25 -16 0 -35 0 -35 26 -49 25 -49 -10
-39 -11 -38 -24 -36 -25 -37 -47 -27 -46 -27 -58 -5 -57 -6 -51 17 -51 17 -31
36 -31 35 26 28 27 28 5 64 4 63 -20 32 -20 32 -39 20 -38 20 -85 11 -84 12
-181 -7 -181 -8 -7 -116 -6 -116 10 -103 10 -104 11 -41 11 -42 24 -47 24 -47
36 -28 37 -28 75 -4 74 -3 29 21 28 21 10 0 10 0 11 -20 10 -19 6 -58 6 -58
-12 -60 -12 -60 -44 -42 -44 -43 -45 0 -45 0 -63 26 -64 26 -29 -13 -29 -14
-15 -30 -14 -30 -4 -109 -4 -109 7 -163 7 -164 793 0 793 0 26 72 27 72 24 91
23 90 12 84 13 83 -6 55 -6 55 -16 24 -15 24 -38 0 -37 0 -65 -21 -65 -21 -80
0 -80 0 -50 17 -50 17 -33 25 -34 25 -19 32 -19 31 0 80 0 80 11 38 10 37 25
17 26 16 51 -1 52 -2 70 -20 70 -20 41 0 40 0 22 20 22 21 14 27 14 27 12 60
12 59 -1 185 -1 185 -7 7 -8 8 -154 16 -154 15 -86 -1 -86 -1 -32 -8z"/>
</g>
</svg>
