<?xml version="1.0" standalone="no"?>
<!DOCTYPE svg PUBLIC "-//W3C//DTD SVG 20010904//EN"
 "http://www.w3.org/TR/2001/REC-SVG-20010904/DTD/svg10.dtd">
<svg version="1.0" xmlns="http://www.w3.org/2000/svg"
 width="170.000000pt" height="159.000000pt" viewBox="0 0 170.000000 159.000000"
 preserveAspectRatio="xMidYMid meet">
<metadata>
Created by potrace 1.16, written by Peter Selinger 2001-2019
</metadata>
<g transform="translate(0.000000,159.000000) scale(0.100000,-0.100000)"
fill="#000000" stroke="none">
<path d="M1073 1580 l-32 -7 -26 -17 -25 -16 0 -25 0 -25 26 -50 26 -50 -7
-39 -6 -39 -28 -45 -28 -44 -48 -28 -49 -28 -66 -5 -67 -4 -51 16 -51 17 -31
35 -30 35 0 11 0 12 26 27 25 26 5 54 5 54 -20 32 -20 32 -39 20 -38 20 -84
11 -83 11 -172 -7 -172 -7 -6 -111 -6 -111 9 -98 10 -98 11 -42 11 -42 24 -47
24 -47 36 -27 36 -28 64 -4 65 -4 40 27 40 28 15 -15 15 -15 9 -39 10 -39 0
-47 0 -47 -11 -53 -11 -53 -44 -42 -44 -43 -58 0 -57 1 -54 23 -54 23 -18 -4
-18 -5 -14 -16 -15 -17 -11 -40 -11 -40 0 -121 0 -121 7 -121 6 -122 782 0
783 0 26 72 27 72 24 91 23 90 12 83 13 83 -7 47 -6 46 -15 23 -15 23 -28 0
-27 0 -65 -21 -65 -21 -90 0 -90 -1 -50 18 -50 17 -33 25 -34 25 -19 32 -19
31 0 90 0 90 11 38 10 37 26 17 27 18 60 -2 61 -2 70 -21 70 -20 31 0 30 0 22
20 22 21 14 27 14 27 11 55 12 55 0 179 -1 180 -7 7 -8 8 -154 16 -154 15 -76
-1 -76 -1 -32 -8z"/>
</g>
</svg>
