<?xml version="1.0" standalone="no"?>
<!DOCTYPE svg PUBLIC "-//W3C//DTD SVG 20010904//EN"
 "http://www.w3.org/TR/2001/REC-SVG-20010904/DTD/svg10.dtd">
<svg version="1.0" xmlns="http://www.w3.org/2000/svg"
 width="173.000000pt" height="238.000000pt" viewBox="0 0 173.000000 238.000000"
 preserveAspectRatio="xMidYMid meet">
<metadata>
Created by potrace 1.16, written by Peter Selinger 2001-2019
</metadata>
<g transform="translate(0.000000,238.000000) scale(0.100000,-0.100000)"
fill="#000000" stroke="none">
<path d="M713 2371 l-31 -8 -34 -19 -33 -19 -23 -45 -23 -45 5 -40 5 -40 27
-59 27 -59 -10 -15 -9 -15 -35 -19 -34 -20 -270 4 -270 3 0 -225 0 -225 22
-47 21 -47 33 -16 33 -17 45 5 46 6 45 20 45 21 35 0 36 0 21 -15 22 -16 16
-51 15 -52 0 -122 0 -123 -11 -51 -11 -50 -18 -10 -19 -10 -19 20 -19 21 -35
5 -35 6 -22 -11 -21 -12 -19 -38 -20 -38 -30 -119 -30 -119 -21 -59 -20 -60
-35 -63 -35 -64 0 -14 0 -15 188 0 188 0 54 -16 54 -16 32 -32 32 -32 7 -38 7
-37 -11 -57 -11 -57 -20 -14 -20 -13 0 -23 0 -23 32 -12 33 -12 130 -5 130 -5
45 24 45 23 23 45 22 44 0 63 0 62 -26 81 -25 82 16 18 17 19 52 11 52 11 95
-11 94 -11 135 -31 135 -31 43 -4 42 -5 0 17 0 18 35 88 35 88 21 78 20 78 1
83 1 84 -20 26 -20 27 -33 3 -33 3 -31 -23 -31 -23 -70 1 -70 1 -60 18 -60 17
-60 33 -60 33 -31 34 -32 33 -11 22 -11 22 0 36 0 36 20 39 20 39 33 25 33 25
59 28 60 27 77 1 76 0 31 -22 30 -23 24 0 25 0 13 33 14 32 0 160 0 160 -9
118 -8 118 -117 -8 -116 -8 -135 0 -135 0 -32 18 -32 17 -11 20 -10 20 25 59
25 60 0 51 0 51 -15 29 -15 28 -55 27 -55 27 -82 4 -83 3 -32 -8z"/>
</g>
</svg>
