<?xml version="1.0" standalone="no"?>
<!DOCTYPE svg PUBLIC "-//W3C//DTD SVG 20010904//EN"
 "http://www.w3.org/TR/2001/REC-SVG-20010904/DTD/svg10.dtd">
<svg version="1.0" xmlns="http://www.w3.org/2000/svg"
 width="171.000000pt" height="236.000000pt" viewBox="0 0 171.000000 236.000000"
 preserveAspectRatio="xMidYMid meet">
<metadata>
Created by potrace 1.16, written by Peter Selinger 2001-2019
</metadata>
<g transform="translate(0.000000,236.000000) scale(0.100000,-0.100000)"
fill="#000000" stroke="none">
<path d="M713 2351 l-31 -8 -34 -19 -33 -19 -23 -45 -23 -45 6 -32 6 -33 24
-52 25 -53 0 -22 0 -22 -32 -23 -33 -23 -280 0 -280 0 0 -215 0 -215 22 -47
21 -47 33 -16 32 -17 37 6 37 6 44 20 44 20 45 0 46 0 21 -15 22 -16 16 -51
15 -52 0 -132 0 -133 -11 -51 -11 -50 -19 -11 -20 -10 -18 6 -19 6 -5 13 -6
14 -30 7 -30 6 -20 -11 -21 -11 -19 -38 -20 -38 -30 -119 -30 -119 -21 -59
-20 -60 -35 -63 -35 -64 0 -4 0 -5 188 0 188 0 54 -16 54 -16 32 -32 32 -32 8
-40 7 -39 -11 -65 -11 -65 -20 -14 -21 -13 0 -13 0 -13 33 -12 32 -12 120 -5
120 -5 45 24 45 23 23 45 22 44 0 53 0 52 -25 78 -25 78 0 16 0 16 18 16 18
16 52 12 52 11 103 -11 102 -11 135 -31 135 -31 30 -5 31 -5 1 19 1 18 36 87
36 86 20 79 21 78 0 74 1 74 -20 26 -19 26 -23 3 -23 4 -31 -24 -31 -23 -80 1
-80 1 -60 17 -60 18 -60 33 -60 33 -31 34 -32 33 -11 22 -11 22 0 46 0 46 20
39 20 39 33 25 33 25 59 28 60 27 87 1 86 0 31 -22 30 -23 14 0 15 0 13 33 14
32 0 150 0 150 -9 118 -8 118 -107 -8 -106 -8 -145 0 -145 0 -33 18 -33 18
-11 25 -11 24 26 65 27 65 0 41 0 40 -15 29 -15 28 -54 27 -54 26 -74 4 -73 4
-32 -8z"/>
</g>
</svg>
