<?xml version="1.0" standalone="no"?>
<!DOCTYPE svg PUBLIC "-//W3C//DTD SVG 20010904//EN"
 "http://www.w3.org/TR/2001/REC-SVG-20010904/DTD/svg10.dtd">
<svg version="1.0" xmlns="http://www.w3.org/2000/svg"
 width="204.000000pt" height="241.000000pt" viewBox="0 0 204.000000 241.000000"
 preserveAspectRatio="xMidYMid meet">
<metadata>
Created by potrace 1.16, written by Peter Selinger 2001-2019
</metadata>
<g transform="translate(0.000000,241.000000) scale(0.100000,-0.100000)"
fill="#000000" stroke="none">
<path d="M737 2396 l-38 -14 -21 -19 -20 -18 -14 -27 -14 -27 0 -32 0 -31 25
-30 25 -30 0 -38 0 -39 -34 -26 -33 -25 -59 -11 -59 -11 -236 6 -236 7 -11
-178 -12 -178 0 -92 0 -92 10 -25 10 -26 29 0 30 0 6 9 5 9 70 16 69 16 29 0
28 0 52 -15 51 -15 31 -27 31 -26 21 -41 21 -41 5 -65 4 -65 -15 -38 -16 -37
-26 -35 -27 -34 -43 -26 -44 -25 -38 0 -39 0 -17 20 -17 20 -40 0 -39 0 -20
-22 -20 -21 -15 -71 -15 -71 -11 -135 -11 -135 -14 -70 -15 -70 0 -2 0 -3 53
0 52 0 180 15 180 15 45 0 45 0 12 -8 13 -8 -15 -78 -15 -78 0 -91 0 -92 18
-35 17 -35 45 -23 45 -23 105 3 106 3 48 35 49 35 33 63 34 64 0 84 0 85 -21
40 -20 41 3 21 3 22 35 17 35 18 58 0 59 0 101 -21 102 -20 87 -29 88 -30 15
6 16 6 -2 17 -3 16 7 50 7 50 10 135 10 135 11 52 10 52 20 25 20 26 22 0 22
0 30 -20 30 -20 48 0 48 0 29 15 28 15 29 57 28 58 0 140 0 140 -26 49 -26 50
-34 18 -34 18 -60 0 -60 -1 -69 -23 -70 -24 -12 5 -12 4 -14 32 -13 32 3 242
3 242 -38 10 -38 9 -35 6 -35 5 -163 16 -163 15 -37 15 -36 16 -18 16 -18 16
0 28 0 29 20 12 20 13 0 31 0 31 -27 28 -28 28 -52 24 -52 24 -68 5 -68 4 -38
-14z"/>
</g>
</svg>
