<?xml version="1.0" standalone="no"?>
<!DOCTYPE svg PUBLIC "-//W3C//DTD SVG 20010904//EN"
 "http://www.w3.org/TR/2001/REC-SVG-20010904/DTD/svg10.dtd">
<svg version="1.0" xmlns="http://www.w3.org/2000/svg"
 width="255.000000pt" height="257.000000pt" viewBox="0 0 255.000000 257.000000"
 preserveAspectRatio="xMidYMid meet">
<metadata>
Created by potrace 1.16, written by Peter Selinger 2001-2019
</metadata>
<g transform="translate(0.000000,257.000000) scale(0.100000,-0.100000)"
fill="#000000" stroke="none">
<path d="M1110 2548 l-45 -23 -22 -34 -23 -34 0 -39 0 -39 25 -59 25 -59 0
-33 -1 -33 -12 -22 -12 -21 -25 -20 -25 -20 -55 -18 -55 -18 -225 0 -225 -1 0
-230 0 -230 -25 -50 -25 -50 -30 1 -30 2 -55 21 -55 20 -38 1 -38 0 -33 -14
-33 -14 -21 -30 -22 -30 -16 -63 -17 -64 6 -87 6 -86 16 -31 16 -31 13 0 13 0
27 25 27 25 28 0 28 0 20 -22 20 -23 7 -12 7 -13 49 -197 50 -197 48 -95 47
-95 95 2 95 3 158 9 157 9 13 -3 12 -4 28 -6 27 -6 0 -14 0 -14 -26 -56 -26
-57 -1 -72 -2 -72 18 -50 17 -51 30 -36 30 -36 52 -26 52 -26 53 0 54 0 36 15
36 15 34 33 34 32 25 48 25 49 6 49 6 49 -27 35 -27 35 3 27 3 26 26 19 26 19
39 10 39 9 185 10 185 11 52 10 52 10 -8 22 -9 22 -18 130 -18 130 0 110 0
110 17 32 17 33 24 6 23 5 64 -22 64 -23 90 0 90 -1 45 21 45 21 31 29 32 29
17 34 17 34 1 56 1 56 -13 46 -13 47 -30 36 -30 37 -40 20 -39 20 -59 0 -58 1
-45 -20 -45 -20 -30 -7 -31 -6 -29 15 -29 15 -17 35 -17 35 -10 58 -11 58 6
177 6 176 -27 20 -28 20 -64 26 -64 26 -71 19 -71 20 -120 26 -120 27 -42 18
-41 18 -11 20 -11 21 0 30 0 29 25 30 25 30 0 19 0 20 -25 27 -25 27 -35 15
-34 14 -59 0 -58 0 -44 -22z"/>
</g>
</svg>
