<?xml version="1.0" standalone="no"?>
<!DOCTYPE svg PUBLIC "-//W3C//DTD SVG 20010904//EN"
 "http://www.w3.org/TR/2001/REC-SVG-20010904/DTD/svg10.dtd">
<svg version="1.0" xmlns="http://www.w3.org/2000/svg"
 width="162.000000pt" height="203.000000pt" viewBox="0 0 162.000000 203.000000"
 preserveAspectRatio="xMidYMid meet">
<metadata>
Created by potrace 1.16, written by Peter Selinger 2001-2019
</metadata>
<g transform="translate(0.000000,203.000000) scale(0.100000,-0.100000)"
fill="#000000" stroke="none">
<path d="M1026 2020 l-28 -9 -19 -17 -19 -17 0 -32 0 -31 25 -34 25 -34 0 -32
0 -31 -14 -41 -14 -40 -26 -39 -26 -38 -45 -29 -46 -29 -49 6 -49 6 -41 26
-41 26 -19 32 -20 32 0 24 0 25 22 23 22 23 4 58 4 58 -24 28 -23 28 -60 14
-60 14 -145 -1 -145 -1 -100 -7 -100 -6 -8 -165 -8 -165 10 -102 9 -101 20
-45 20 -44 38 -29 38 -29 107 0 107 0 31 23 30 22 20 0 20 0 20 -26 21 -27 11
-41 11 -41 -5 -52 -5 -52 -18 -36 -17 -37 -31 -19 -31 -19 -26 0 -26 0 -61 25
-62 25 -26 0 -26 0 -29 -31 -29 -31 -10 -38 -10 -38 -25 -181 -26 -181 -19
-63 -20 -62 0 -14 0 -14 285 8 285 7 14 -12 15 -11 -27 -52 -27 -52 0 -89 0
-88 40 -34 39 -35 55 -16 55 -15 95 4 96 5 53 21 53 21 35 36 34 36 0 24 0 24
-26 25 -27 24 7 27 7 26 44 20 45 20 153 19 152 19 73 12 72 13 0 8 0 9 -50
102 -50 102 -49 198 -50 197 -7 13 -7 12 -20 23 -20 22 -38 0 -38 0 -27 -25
-27 -25 -3 0 -3 0 -16 30 -16 30 -6 78 -6 77 17 64 17 65 24 32 25 32 36 12
36 12 40 -6 41 -7 47 -20 48 -21 28 4 29 3 25 50 25 50 -1 233 -2 234 -11 11
-11 11 -157 22 -158 23 -110 0 -110 -1 -29 -8z"/>
</g>
</svg>
