<?xml version="1.0" standalone="no"?>
<!DOCTYPE svg PUBLIC "-//W3C//DTD SVG 20010904//EN"
 "http://www.w3.org/TR/2001/REC-SVG-20010904/DTD/svg10.dtd">
<svg version="1.0" xmlns="http://www.w3.org/2000/svg"
 width="160.000000pt" height="201.000000pt" viewBox="0 0 160.000000 201.000000"
 preserveAspectRatio="xMidYMid meet">
<metadata>
Created by potrace 1.16, written by Peter Selinger 2001-2019
</metadata>
<g transform="translate(0.000000,201.000000) scale(0.100000,-0.100000)"
fill="#000000" stroke="none">
<path d="M1026 2000 l-28 -9 -19 -17 -19 -17 0 -22 0 -21 25 -34 25 -34 0 -42
0 -41 -14 -41 -14 -40 -26 -39 -26 -38 -45 -29 -46 -29 -58 6 -58 5 -42 26
-42 27 -19 32 -20 32 0 34 0 35 21 23 22 22 5 49 4 48 -24 28 -23 28 -60 14
-60 14 -135 -1 -135 -1 -100 -7 -100 -6 -8 -160 -8 -160 10 -97 9 -97 20 -44
20 -44 38 -29 38 -29 97 0 97 0 32 24 33 24 25 0 26 0 23 -27 22 -26 12 -43
11 -42 -5 -61 -4 -61 -18 -37 -18 -38 -31 -19 -31 -19 -36 0 -36 0 -61 25 -62
25 -16 0 -16 0 -29 -31 -29 -31 -10 -38 -10 -38 -25 -178 -25 -179 -15 -52
-15 -52 -7 -17 -6 -17 244 8 244 8 45 -2 45 -2 14 -14 15 -14 -29 -58 -29 -58
-1 -79 0 -78 40 -34 39 -35 55 -16 55 -16 85 6 86 5 53 20 53 21 35 36 34 36
0 15 0 14 -25 22 -25 22 0 28 0 28 20 20 19 19 53 15 53 14 142 17 142 16 53
14 53 13 9 -5 9 -6 -5 9 -4 9 -47 97 -48 97 -49 196 -49 195 -7 13 -7 12 -20
23 -20 22 -28 0 -28 0 -27 -25 -27 -25 -13 0 -13 0 -16 31 -16 31 -6 86 -6 87
17 64 16 63 22 30 21 30 33 14 33 14 38 0 38 -1 55 -20 55 -21 30 -2 30 -1 25
50 25 50 -1 223 -2 224 -11 11 -11 11 -157 22 -158 23 -100 0 -100 -1 -29 -8z"/>
</g>
</svg>
