<?xml version="1.0" standalone="no"?>
<!DOCTYPE svg PUBLIC "-//W3C//DTD SVG 20010904//EN"
 "http://www.w3.org/TR/2001/REC-SVG-20010904/DTD/svg10.dtd">
<svg version="1.0" xmlns="http://www.w3.org/2000/svg"
 width="250.000000pt" height="246.000000pt" viewBox="0 0 250.000000 246.000000"
 preserveAspectRatio="xMidYMid meet">
<metadata>
Created by potrace 1.16, written by Peter Selinger 2001-2019
</metadata>
<g transform="translate(0.000000,246.000000) scale(0.100000,-0.100000)"
fill="#000000" stroke="none">
<path d="M1229 2450 l-46 -8 -41 -21 -41 -21 -15 -22 -16 -22 0 -22 0 -21 19
-17 19 -18 12 -50 12 -49 -4 -56 -5 -56 -31 -28 -31 -28 -43 -13 -43 -12 -239
2 -238 3 8 -138 9 -138 0 -130 0 -130 -14 -32 -13 -33 -5 0 -4 0 -30 23 -31
22 -96 0 -97 0 -60 -28 -59 -28 -33 -25 -33 -25 -20 -39 -20 -39 0 -56 0 -56
14 -27 14 -27 34 -31 33 -31 47 -28 48 -27 62 -19 63 -20 85 -5 85 -5 25 15
25 15 24 13 23 12 25 -29 26 -29 -6 -91 -5 -90 -22 -70 -22 -70 -35 -83 -35
-82 6 -17 6 -16 128 7 127 6 152 7 151 6 16 -6 15 -6 -19 -43 -20 -43 0 -66 0
-66 12 -34 11 -34 25 -33 25 -33 45 -26 44 -26 72 -1 71 0 35 18 35 19 38 36
37 36 20 42 20 43 0 64 0 63 -20 26 -20 25 0 20 0 21 25 19 25 20 52 6 53 7
110 -16 110 -15 103 -26 104 -26 2 4 3 3 25 55 25 55 22 65 21 65 25 120 25
120 17 58 16 58 23 24 23 25 14 0 14 0 27 -25 27 -25 18 0 18 0 16 18 16 18
12 53 11 54 -4 87 -4 86 -20 40 -21 39 -33 23 -33 22 -50 0 -50 0 -55 -26 -56
-26 -15 9 -16 10 -17 30 -18 29 -11 75 -11 74 10 190 9 190 -3 4 -3 4 -133
-14 -133 -13 -125 -1 -125 0 -40 20 -40 20 -3 28 -3 28 21 65 22 65 -4 79 -3
79 -21 28 -21 28 -44 22 -44 21 -65 5 -65 5 -46 -8z"/>
</g>
</svg>
