<?xml version="1.0" standalone="no"?>
<!DOCTYPE svg PUBLIC "-//W3C//DTD SVG 20010904//EN"
 "http://www.w3.org/TR/2001/REC-SVG-20010904/DTD/svg10.dtd">
<svg version="1.0" xmlns="http://www.w3.org/2000/svg"
 width="207.000000pt" height="255.000000pt" viewBox="0 0 207.000000 255.000000"
 preserveAspectRatio="xMidYMid meet">
<metadata>
Created by potrace 1.16, written by Peter Selinger 2001-2019
</metadata>
<g transform="translate(0.000000,255.000000) scale(0.100000,-0.100000)"
fill="#000000" stroke="none">
<path d="M760 2534 l-55 -15 -27 -26 -28 -27 0 -40 0 -41 20 -30 20 -30 0 -46
0 -46 -21 -27 -20 -26 -42 -24 -42 -24 -55 -13 -55 -13 -180 -1 -180 -2 -13
-1 -14 -2 4 -217 5 -218 22 -68 22 -67 30 -35 31 -35 41 -11 42 -11 44 6 44 6
35 22 35 21 12 -17 13 -17 6 -62 7 -63 -9 -24 -10 -25 -28 -27 -29 -27 -47
-21 -46 -20 -46 -6 -45 -7 -31 27 -32 26 -37 0 -37 0 -21 -15 -20 -14 -12 -45
-11 -45 0 -68 0 -69 10 -84 11 -85 25 -136 26 -135 6 -10 7 -10 248 9 249 9
34 -7 35 -6 6 -15 6 -15 -32 -61 -31 -61 0 -52 0 -51 15 -50 15 -50 37 -54 38
-54 54 -28 53 -28 57 0 56 0 39 23 39 22 30 54 31 55 4 86 4 86 -26 74 -25 74
14 23 15 22 37 10 38 11 113 0 114 0 121 -10 122 -10 42 -5 42 -4 3 242 3 242
20 40 20 40 28 3 27 3 26 -20 27 -21 47 0 47 0 32 16 33 16 29 46 28 45 12 52
12 53 -5 108 -5 109 -17 33 -17 34 -37 15 -36 15 -49 -6 -48 -7 -70 -26 -71
-26 -21 22 -22 22 0 268 0 269 -6 6 -5 5 -116 -28 -117 -29 -92 -12 -91 -12
-54 7 -53 6 -25 20 -26 20 0 23 0 23 22 49 21 49 1 70 0 70 -29 54 -29 53 -33
25 -32 25 -47 14 -47 14 -51 -1 -51 0 -55 -15z"/>
</g>
</svg>
