<?xml version="1.0" standalone="no"?>
<!DOCTYPE svg PUBLIC "-//W3C//DTD SVG 20010904//EN"
 "http://www.w3.org/TR/2001/REC-SVG-20010904/DTD/svg10.dtd">
<svg version="1.0" xmlns="http://www.w3.org/2000/svg"
 width="202.000000pt" height="163.000000pt" viewBox="0 0 202.000000 163.000000"
 preserveAspectRatio="xMidYMid meet">
<metadata>
Created by potrace 1.16, written by Peter Selinger 2001-2019
</metadata>
<g transform="translate(0.000000,163.000000) scale(0.100000,-0.100000)"
fill="#000000" stroke="none">
<path d="M17 1623 l-5 -8 -7 -165 -7 -165 11 -95 11 -95 30 -62 31 -62 44 -17
45 -17 43 6 43 6 44 20 45 21 52 0 52 0 35 -30 35 -31 12 -36 12 -36 -6 -62
-5 -63 -17 -29 -18 -30 -27 -17 -28 -16 -34 0 -33 0 -78 27 -77 28 -28 -15
-27 -16 -18 -37 -17 -38 -30 -177 -30 -177 -21 -70 -21 -70 -5 -31 -5 -31 189
-7 188 -6 78 10 77 10 28 14 27 14 20 22 20 22 3 74 4 75 -12 47 -11 47 -20
21 -19 21 19 25 20 25 52 23 52 22 75 0 75 -1 45 -23 45 -23 20 -27 21 -28 4
-58 4 -58 -26 -83 -26 -83 8 -31 8 -32 39 -20 40 -20 145 0 145 0 130 14 130
14 37 76 38 76 20 60 21 60 35 139 35 139 16 31 15 31 16 18 15 17 19 0 18 0
22 -25 22 -25 18 0 19 0 16 38 16 37 4 85 5 85 -36 41 -35 41 -53 23 -53 24
-101 4 -101 4 -32 -17 -33 -16 -6 5 -5 6 16 248 17 247 5 67 4 66 -15 6 -16 6
-778 0 -779 0 -4 -7z"/>
</g>
</svg>
