<?xml version="1.0" standalone="no"?>
<!DOCTYPE svg PUBLIC "-//W3C//DTD SVG 20010904//EN"
 "http://www.w3.org/TR/2001/REC-SVG-20010904/DTD/svg10.dtd">
<svg version="1.0" xmlns="http://www.w3.org/2000/svg"
 width="208.000000pt" height="259.000000pt" viewBox="0 0 208.000000 259.000000"
 preserveAspectRatio="xMidYMid meet">
<metadata>
Created by potrace 1.16, written by Peter Selinger 2001-2019
</metadata>
<g transform="translate(0.000000,259.000000) scale(0.100000,-0.100000)"
fill="#000000" stroke="none">
<path d="M1165 2575 l-40 -14 -47 -49 -46 -49 -16 -53 -16 -54 0 -61 0 -61 16
-54 16 -53 15 -24 15 -23 -17 -6 -17 -7 -142 7 -141 7 -132 6 -132 6 -7 -17
-7 -17 17 -217 17 -217 0 -83 1 -83 -4 -4 -3 -3 -70 16 -70 15 -110 1 -110 1
-49 -25 -49 -25 -18 -35 -19 -35 0 -65 0 -65 21 -35 21 -35 34 -32 33 -33 9 0
10 0 11 -14 12 -14 69 -22 70 -23 80 5 80 5 18 16 18 17 23 2 23 3 20 -26 20
-27 5 -43 5 -44 -16 -92 -16 -93 -36 -102 -35 -103 -6 -23 -5 -22 48 0 49 0
223 21 222 22 6 -6 6 -5 -16 -122 -16 -122 0 -61 0 -62 11 -45 10 -45 22 -24
22 -24 32 -13 32 -14 118 0 118 0 50 24 50 23 23 27 23 27 9 25 10 25 0 19 0
18 -26 31 -25 31 3 21 3 22 25 19 25 18 100 24 100 24 89 21 89 21 83 32 84
33 4 12 5 12 -14 68 -13 68 -12 145 -11 145 -10 47 -10 47 -24 25 -24 26 -44
0 -43 0 -33 -24 -33 -25 -26 10 -27 10 -31 20 -31 19 -26 40 -27 39 -16 60
-17 61 12 42 13 41 28 29 28 28 23 0 22 0 34 -21 34 -21 74 4 75 3 38 42 39
41 16 54 17 53 10 60 10 60 0 188 0 187 -27 0 -28 0 -77 -25 -77 -24 -99 -21
-100 -20 -60 0 -59 0 -31 11 -31 10 -15 24 -15 23 24 68 25 69 0 71 0 72 -20
63 -20 64 -37 47 -38 47 -38 15 -37 16 -58 0 -57 -1 -40 -14z"/>
</g>
</svg>
