<?xml version="1.0" standalone="no"?>
<!DOCTYPE svg PUBLIC "-//W3C//DTD SVG 20010904//EN"
 "http://www.w3.org/TR/2001/REC-SVG-20010904/DTD/svg10.dtd">
<svg version="1.0" xmlns="http://www.w3.org/2000/svg"
 width="206.000000pt" height="257.000000pt" viewBox="0 0 206.000000 257.000000"
 preserveAspectRatio="xMidYMid meet">
<metadata>
Created by potrace 1.16, written by Peter Selinger 2001-2019
</metadata>
<g transform="translate(0.000000,257.000000) scale(0.100000,-0.100000)"
fill="#000000" stroke="none">
<path d="M1165 2555 l-40 -14 -47 -49 -46 -49 -16 -53 -16 -54 0 -51 0 -51 16
-54 16 -53 15 -24 15 -23 -6 -16 -7 -17 -162 7 -162 6 -122 6 -123 7 -6 -16
-6 -16 16 -203 15 -203 2 -70 2 -70 -2 -37 -1 -36 -45 13 -45 14 -98 12 -98
12 -58 -11 -58 -12 -33 -20 -33 -20 -16 -34 -16 -34 0 -54 0 -53 21 -35 21
-35 34 -32 33 -33 9 0 10 0 11 -14 12 -14 69 -22 70 -23 70 5 71 5 19 18 19
17 31 1 32 2 22 -28 21 -29 -2 -96 -1 -97 -26 -98 -26 -98 -25 -61 -25 -61 5
-6 6 -5 137 12 137 12 132 12 133 12 4 -5 4 -4 -14 -80 -13 -80 -7 -95 -6 -95
11 -56 12 -56 27 -26 27 -26 28 -10 28 -11 107 0 107 0 50 24 50 23 23 27 23
27 10 26 10 26 -6 17 -6 17 -19 18 -20 18 0 32 0 32 18 16 18 16 43 15 42 15
122 26 122 25 60 20 61 19 44 19 45 19 10 3 10 2 6 9 5 10 -12 62 -12 62 -12
145 -11 145 -10 47 -10 47 -24 25 -24 26 -32 0 -33 0 -38 -26 -38 -27 -46 18
-46 17 -32 33 -32 32 -18 37 -17 36 -11 54 -12 54 12 40 12 39 20 26 20 25 30
10 29 11 48 -26 48 -25 62 4 63 4 38 41 39 41 16 54 17 53 10 60 10 60 0 178
0 177 -17 0 -18 0 -77 -25 -77 -24 -99 -21 -100 -20 -71 0 -72 0 -32 13 -32
14 -14 25 -13 26 26 75 26 75 0 60 0 60 -20 63 -20 64 -37 47 -38 47 -38 15
-37 16 -48 0 -47 -1 -40 -14z"/>
</g>
</svg>
