<?xml version="1.0" standalone="no"?>
<!DOCTYPE svg PUBLIC "-//W3C//DTD SVG 20010904//EN"
 "http://www.w3.org/TR/2001/REC-SVG-20010904/DTD/svg10.dtd">
<svg version="1.0" xmlns="http://www.w3.org/2000/svg"
 width="200.000000pt" height="179.000000pt" viewBox="0 0 200.000000 179.000000"
 preserveAspectRatio="xMidYMid meet">
<metadata>
Created by potrace 1.16, written by Peter Selinger 2001-2019
</metadata>
<g transform="translate(0.000000,179.000000) scale(0.100000,-0.100000)"
fill="#000000" stroke="none">
<path d="M1458 1780 l-38 -7 -20 -18 -20 -18 0 -29 0 -30 20 -25 20 -26 0 -53
0 -54 -20 -43 -20 -42 -37 -36 -38 -36 -35 -18 -35 -18 -62 0 -62 0 -44 26
-44 26 -25 33 -25 33 -11 34 -12 34 0 57 0 57 25 48 24 49 -12 9 -12 8 -175
-5 -175 -6 -119 -6 -119 -7 7 -136 6 -136 17 -163 16 -163 -6 -6 -7 -6 -12 11
-13 10 -77 16 -77 16 -55 0 -56 0 -38 -15 -39 -16 -22 -40 -23 -40 -5 -73 -6
-74 13 -66 12 -67 18 -21 17 -22 12 21 11 21 28 7 29 6 27 -11 27 -10 20 -45
20 -45 30 -137 30 -138 15 -50 14 -50 36 -76 36 -76 141 -6 142 -7 124 -15
124 -16 8 8 7 8 -19 90 -19 90 0 46 0 45 15 52 16 52 33 34 34 33 48 17 48 16
58 0 59 0 32 -13 32 -14 39 -43 38 -43 29 -61 28 -61 10 -61 9 -61 -7 -36 -8
-35 -17 -23 -16 -23 0 -33 0 -33 19 -19 20 -20 37 -7 36 -7 68 7 67 6 86 25
86 25 80 37 81 38 -5 15 -6 15 -9 265 -8 265 -17 52 -16 53 -19 10 -19 10 -21
0 -21 0 -40 -21 -40 -20 -48 -6 -48 -5 -51 16 -51 17 -35 39 -35 39 -7 36 -6
36 6 42 7 42 15 22 14 23 28 13 27 14 52 7 52 7 109 -11 108 -11 62 -13 62
-13 0 16 0 16 -20 215 -20 215 0 70 0 70 -6 22 -6 22 -88 21 -89 20 -103 15
-103 15 -35 -1 -35 -1 -37 -8z"/>
</g>
</svg>
