<?xml version="1.0" standalone="no"?>
<!DOCTYPE svg PUBLIC "-//W3C//DTD SVG 20010904//EN"
 "http://www.w3.org/TR/2001/REC-SVG-20010904/DTD/svg10.dtd">
<svg version="1.0" xmlns="http://www.w3.org/2000/svg"
 width="207.000000pt" height="249.000000pt" viewBox="0 0 207.000000 249.000000"
 preserveAspectRatio="xMidYMid meet">
<metadata>
Created by potrace 1.16, written by Peter Selinger 2001-2019
</metadata>
<g transform="translate(0.000000,249.000000) scale(0.100000,-0.100000)"
fill="#000000" stroke="none">
<path d="M1105 2475 l-40 -15 -3 0 -3 0 -15 -36 -15 -35 7 -37 7 -37 13 -26
13 -27 10 -43 10 -43 -6 -29 -6 -29 -34 -33 -33 -33 -63 -18 -62 -18 -213 1
-212 2 2 -232 2 -232 -20 -49 -19 -49 -28 -21 -29 -21 -56 1 -57 1 -56 27 -56
26 -32 0 -32 0 -20 -10 -19 -11 -17 -32 -17 -32 -3 -110 -4 -110 18 -35 18
-35 45 -23 45 -23 105 4 105 5 65 21 64 20 18 -16 17 -15 12 -36 12 -35 -5
-111 -5 -111 -29 -172 -28 -172 4 -4 5 -3 215 9 215 9 71 -10 71 -10 35 -16
35 -17 13 -25 14 -25 -24 -52 -24 -52 -4 -72 -4 -72 36 -36 36 -35 26 -10 25
-10 54 0 54 0 31 30 31 31 27 57 26 57 4 88 5 89 -21 27 -20 28 -2 14 -2 14 1
12 1 12 33 18 32 18 105 -1 105 -1 160 -28 160 -29 35 0 35 -1 -3 245 -3 245
-10 54 -11 55 -28 28 -28 28 -27 0 -26 0 -59 -25 -59 -25 -25 0 -24 0 -30 25
-29 24 -13 46 -13 45 5 103 5 102 12 29 12 29 13 -19 14 -18 98 -4 99 -4 35
24 35 23 22 34 23 34 11 36 12 36 4 216 5 216 -34 6 -33 6 -60 6 -60 5 -175
10 -175 10 -40 11 -40 11 -22 21 -23 20 0 25 0 24 26 31 26 31 -6 43 -6 43
-21 43 -21 42 -27 28 -26 29 -27 14 -27 14 -78 0 -78 -1 -40 -14z"/>
</g>
</svg>
