<?xml version="1.0" standalone="no"?>
<!DOCTYPE svg PUBLIC "-//W3C//DTD SVG 20010904//EN"
 "http://www.w3.org/TR/2001/REC-SVG-20010904/DTD/svg10.dtd">
<svg version="1.0" xmlns="http://www.w3.org/2000/svg"
 width="205.000000pt" height="247.000000pt" viewBox="0 0 205.000000 247.000000"
 preserveAspectRatio="xMidYMid meet">
<metadata>
Created by potrace 1.16, written by Peter Selinger 2001-2019
</metadata>
<g transform="translate(0.000000,247.000000) scale(0.100000,-0.100000)"
fill="#000000" stroke="none">
<path d="M1105 2455 l-40 -15 -3 0 -3 0 -14 -33 -14 -33 8 -35 8 -34 11 -21
11 -21 11 -48 11 -47 -7 -35 -7 -34 -33 -33 -34 -34 -63 -18 -62 -18 -212 1
-213 2 2 -232 2 -232 -19 -49 -20 -49 -28 -21 -29 -21 -66 1 -67 1 -56 26 -56
27 -22 0 -22 0 -20 -10 -19 -11 -17 -32 -16 -32 -4 -100 -4 -100 18 -35 18
-35 45 -23 45 -23 90 4 90 4 78 23 77 23 20 -18 19 -17 12 -36 12 -36 -6 -130
-6 -131 -26 -145 -25 -145 0 -10 0 -10 172 8 173 8 95 -4 96 -5 42 -13 43 -12
24 -25 25 -25 0 -26 0 -26 -25 -53 -25 -54 0 -54 0 -55 35 -35 35 -34 26 -10
25 -10 44 0 44 0 31 30 31 31 27 57 26 57 4 78 5 78 -20 27 -20 27 -7 21 -6
21 6 17 6 17 29 14 28 15 59 6 59 6 104 -11 104 -12 134 -25 134 -25 10 10 10
10 -10 258 -9 258 -19 40 -20 40 -27 14 -26 15 -66 -27 -66 -27 -34 0 -34 0
-29 24 -29 25 -12 39 -12 39 0 91 0 91 10 48 11 48 9 15 10 15 19 -24 19 -25
88 -4 89 -4 35 24 35 23 22 34 23 34 11 36 12 36 4 206 5 206 -14 1 -13 2 -65
9 -65 10 -190 10 -190 11 -40 11 -40 11 -22 21 -23 20 0 35 0 34 26 31 26 30
-7 36 -7 35 -20 41 -20 40 -27 28 -26 29 -27 14 -27 14 -68 0 -68 -1 -40 -14z"/>
</g>
</svg>
