<?xml version="1.0" standalone="no"?>
<!DOCTYPE svg PUBLIC "-//W3C//DTD SVG 20010904//EN"
 "http://www.w3.org/TR/2001/REC-SVG-20010904/DTD/svg10.dtd">
<svg version="1.0" xmlns="http://www.w3.org/2000/svg"
 width="210.000000pt" height="163.000000pt" viewBox="0 0 210.000000 163.000000"
 preserveAspectRatio="xMidYMid meet">
<metadata>
Created by potrace 1.16, written by Peter Selinger 2001-2019
</metadata>
<g transform="translate(0.000000,163.000000) scale(0.100000,-0.100000)"
fill="#000000" stroke="none">
<path d="M825 1620 l-120 -7 -124 -2 -124 -1 6 -139 7 -140 11 -141 12 -141
-11 -11 -11 -11 -14 11 -13 11 -69 16 -68 16 -81 2 -81 1 -37 -13 -37 -12 -25
-29 -24 -29 -11 -51 -11 -51 0 -74 0 -74 11 -50 11 -50 21 -33 22 -33 34 -22
34 -23 31 0 31 0 50 25 50 24 18 1 18 0 23 -25 24 -25 11 -46 12 -46 14 -137
13 -136 13 -81 13 -81 153 -7 152 -7 73 6 73 7 57 15 58 15 34 34 35 34 6 42
6 43 -11 49 -11 48 -14 29 -15 28 0 36 0 35 19 19 20 20 38 10 38 11 53 0 53
0 27 -14 27 -14 26 -29 27 -28 19 -40 20 -40 7 -27 6 -26 -25 -30 -25 -30 0
-44 0 -45 23 -20 22 -21 40 -11 40 -11 170 -10 170 -9 75 -7 75 -6 18 -10 18
-9 20 6 21 7 -6 21 -5 20 14 102 14 101 7 109 7 110 -12 56 -12 56 -20 22 -20
21 -43 0 -43 0 -23 -20 -24 -21 -22 -5 -23 -6 -52 11 -52 11 -51 26 -51 25
-39 37 -38 37 -14 32 -14 32 0 39 0 38 26 52 26 52 29 24 29 24 55 21 56 21
72 0 73 0 54 -15 55 -15 33 -6 32 -7 0 84 -1 84 -14 140 -15 140 0 62 0 62
-18 6 -19 5 -59 -15 -59 -15 -160 -19 -161 -19 -42 -17 -43 -17 -9 -19 -10
-18 0 -35 0 -35 18 -13 18 -13 7 -12 7 -11 -34 -37 -35 -36 -53 -21 -53 -20
-75 -5 -76 -6 -55 16 -55 16 -39 35 -40 34 0 68 1 69 27 53 27 54 0 18 0 18
-12 9 -13 10 -50 5 -50 4 -120 -6z"/>
</g>
</svg>
