<?xml version="1.0" standalone="no"?>
<!DOCTYPE svg PUBLIC "-//W3C//DTD SVG 20010904//EN"
 "http://www.w3.org/TR/2001/REC-SVG-20010904/DTD/svg10.dtd">
<svg version="1.0" xmlns="http://www.w3.org/2000/svg"
 width="208.000000pt" height="161.000000pt" viewBox="0 0 208.000000 161.000000"
 preserveAspectRatio="xMidYMid meet">
<metadata>
Created by potrace 1.16, written by Peter Selinger 2001-2019
</metadata>
<g transform="translate(0.000000,161.000000) scale(0.100000,-0.100000)"
fill="#000000" stroke="none">
<path d="M825 1599 l-120 -6 -124 -2 -124 -1 6 -127 7 -128 12 -152 12 -152
-14 -16 -13 -15 -23 15 -24 15 -65 15 -66 16 -72 1 -72 1 -37 -12 -37 -12 -25
-29 -24 -29 -11 -51 -11 -51 0 -64 0 -64 11 -50 11 -50 21 -33 22 -33 34 -22
34 -23 21 0 21 0 50 25 50 24 28 1 28 0 23 -25 24 -25 11 -46 12 -46 14 -147
15 -146 12 -55 11 -55 -1 -16 -1 -16 148 -7 148 -7 69 7 69 6 57 15 58 15 34
34 33 33 7 34 7 35 -11 47 -11 48 -11 21 -11 21 -8 33 -7 34 10 29 10 30 32
16 31 16 72 5 72 5 25 -7 26 -6 35 -32 36 -31 24 -47 23 -46 7 -35 7 -36 -26
-30 -26 -31 0 -34 0 -35 23 -20 22 -21 40 -11 40 -11 170 -10 170 -10 76 -6
76 -6 13 -8 13 -8 13 5 13 5 -5 13 -5 12 15 109 15 109 7 100 6 100 -11 56
-12 56 -20 22 -20 21 -33 0 -33 0 -23 -20 -24 -21 -24 -6 -25 -6 -58 11 -58
11 -53 26 -53 26 -39 37 -38 37 -14 32 -14 32 0 49 0 48 26 52 26 52 29 24 29
24 55 21 56 21 82 0 83 0 54 -15 55 -15 23 -6 22 -6 0 73 -1 74 -14 140 -15
140 0 61 0 62 -13 5 -13 5 -53 -14 -52 -13 -142 -16 -142 -17 -53 -14 -53 -15
-19 -19 -20 -20 0 -28 0 -28 25 -22 25 -22 0 -14 0 -15 -34 -36 -35 -36 -53
-21 -53 -20 -86 -5 -85 -6 -55 16 -55 16 -39 35 -40 34 0 78 1 79 29 58 29 58
-15 13 -14 14 -40 3 -40 4 -120 -6z"/>
</g>
</svg>
