<?xml version="1.0" standalone="no"?>
<!DOCTYPE svg PUBLIC "-//W3C//DTD SVG 20010904//EN"
 "http://www.w3.org/TR/2001/REC-SVG-20010904/DTD/svg10.dtd">
<svg version="1.0" xmlns="http://www.w3.org/2000/svg"
 width="205.000000pt" height="247.000000pt" viewBox="0 0 205.000000 247.000000"
 preserveAspectRatio="xMidYMid meet">
<metadata>
Created by potrace 1.16, written by Peter Selinger 2001-2019
</metadata>
<g transform="translate(0.000000,247.000000) scale(0.100000,-0.100000)"
fill="#000000" stroke="none">
<path d="M1125 2461 l-30 -8 -23 -12 -24 -13 -14 -33 -14 -34 0 -80 0 -79 16
-83 15 -84 10 -9 9 -10 0 -17 0 -18 -42 -6 -43 -6 -200 15 -200 16 -57 0 -58
0 0 -27 0 -28 20 -215 20 -215 0 -64 0 -63 -17 8 -18 7 -74 15 -74 16 -78 -12
-78 -11 -43 -22 -43 -21 -28 -27 -29 -26 -14 -27 -14 -27 0 -58 0 -58 10 -37
11 -38 28 -30 28 -31 35 -6 36 -5 57 26 57 26 17 0 17 0 21 -15 22 -16 16 -52
16 -52 24 -164 25 -163 22 -81 23 -80 140 7 140 7 131 8 132 8 51 -7 51 -6 5
-6 6 -6 -21 -61 -20 -60 0 -83 0 -83 19 -40 18 -41 32 -27 33 -27 24 -6 25 -6
63 4 64 4 39 26 40 26 16 35 17 35 0 60 0 61 -26 81 -25 81 15 24 16 24 42 12
43 11 120 -6 120 -6 128 -20 128 -20 10 5 9 6 0 779 0 779 -52 15 -53 15 -55
10 -55 11 -165 20 -166 20 -47 14 -48 14 -26 28 -25 27 6 31 6 31 20 27 20 27
0 39 0 39 -27 36 -28 36 -38 16 -37 15 -63 -1 -62 -1 -30 -7z"/>
</g>
</svg>
