<?xml version="1.0" standalone="no"?>
<!DOCTYPE svg PUBLIC "-//W3C//DTD SVG 20010904//EN"
 "http://www.w3.org/TR/2001/REC-SVG-20010904/DTD/svg10.dtd">
<svg version="1.0" xmlns="http://www.w3.org/2000/svg"
 width="218.000000pt" height="212.000000pt" viewBox="0 0 218.000000 212.000000"
 preserveAspectRatio="xMidYMid meet">
<metadata>
Created by potrace 1.16, written by Peter Selinger 2001-2019
</metadata>
<g transform="translate(0.000000,212.000000) scale(0.100000,-0.100000)"
fill="#000000" stroke="none">
<path d="M900 2113 l-45 -4 -175 -7 -175 -7 3 -80 4 -80 14 -145 14 -145 0
-57 0 -57 -42 16 -43 16 -115 4 -115 5 -58 -22 -57 -22 -29 -24 -29 -24 -26
-52 -26 -52 0 -58 0 -59 14 -32 14 -32 38 -37 39 -37 50 -25 51 -25 44 -10 45
-11 38 0 38 0 22 12 22 11 13 14 13 13 24 0 24 0 20 -21 20 -22 12 -56 11 -56
-6 -85 -7 -85 -15 -117 -16 -117 4 -18 3 -18 165 -1 165 -2 53 -15 52 -15 44
-26 43 -25 18 -27 18 -28 4 -40 4 -41 -25 -74 -26 -75 0 -31 0 -32 24 -28 24
-27 88 -10 89 -9 75 6 75 6 39 12 39 11 33 32 34 31 0 47 0 47 -21 40 -20 41
3 26 3 26 33 19 33 20 170 33 170 33 72 26 72 26 18 6 17 5 0 21 0 20 20 66
19 66 15 72 15 71 7 79 6 78 -11 42 -12 42 -15 16 -15 15 -38 0 -38 0 -26 -20
-25 -20 -44 0 -44 0 -45 15 -45 15 -51 45 -51 45 -22 46 -23 45 5 107 4 107
15 29 14 29 16 10 16 10 31 -23 31 -23 55 -5 55 -4 25 6 26 6 34 30 33 30 22
49 21 49 10 93 11 94 -7 124 -7 123 -66 -6 -66 -6 -170 -10 -170 -10 -39 -9
-39 -10 -26 -19 -26 -19 -3 -36 -3 -37 27 -35 27 -35 -7 -41 -7 -41 -24 -46
-24 -47 -34 -32 -34 -33 -36 -15 -36 -15 -44 0 -43 0 -52 26 -52 26 -30 36
-30 36 -17 51 -17 50 1 63 2 62 25 56 26 56 0 23 0 23 -17 7 -18 6 -60 3 -60
4 -45 -5z"/>
</g>
</svg>
