<?xml version="1.0" standalone="no"?>
<!DOCTYPE svg PUBLIC "-//W3C//DTD SVG 20010904//EN"
 "http://www.w3.org/TR/2001/REC-SVG-20010904/DTD/svg10.dtd">
<svg version="1.0" xmlns="http://www.w3.org/2000/svg"
 width="203.000000pt" height="164.000000pt" viewBox="0 0 203.000000 164.000000"
 preserveAspectRatio="xMidYMid meet">
<metadata>
Created by potrace 1.16, written by Peter Selinger 2001-2019
</metadata>
<g transform="translate(0.000000,164.000000) scale(0.100000,-0.100000)"
fill="#000000" stroke="none">
<path d="M1525 1628 l-30 -11 -17 -15 -18 -15 0 -33 0 -33 22 -42 21 -42 -1
-48 -1 -49 -19 -43 -19 -43 -32 -37 -32 -36 -55 -27 -54 -27 -108 5 -107 5
-42 21 -42 22 -15 22 -16 22 0 36 0 37 25 71 25 72 0 37 0 38 -19 31 -19 31
-49 24 -48 24 -217 3 -217 4 2 -229 2 -228 -18 -60 -19 -60 -19 -26 -19 -27
-36 -17 -37 -17 -67 4 -67 5 -22 22 -21 21 -21 0 -20 0 -19 -10 -18 -10 -18
-47 -18 -48 0 -70 0 -70 29 -53 29 -54 31 -25 30 -26 55 -26 55 -25 50 0 50
-1 31 23 31 24 23 -4 23 -3 21 -28 21 -28 3 -98 4 -97 -23 -130 -22 -129 -1
-25 -1 -24 260 -19 260 -19 43 7 42 6 0 28 0 27 -9 9 -10 10 -15 84 -16 83 0
69 0 70 14 34 14 34 32 16 32 16 69 6 69 6 42 -17 43 -17 28 -36 27 -36 0 -29
0 -29 -21 -28 -20 -28 -6 -40 -5 -40 25 -27 26 -28 46 -14 47 -14 197 -25 196
-24 83 -22 84 -21 1 4 2 3 -3 796 -2 796 -113 6 -112 7 -120 -1 -120 -1 -30
-10z"/>
</g>
</svg>
