<?xml version="1.0" standalone="no"?>
<!DOCTYPE svg PUBLIC "-//W3C//DTD SVG 20010904//EN"
 "http://www.w3.org/TR/2001/REC-SVG-20010904/DTD/svg10.dtd">
<svg version="1.0" xmlns="http://www.w3.org/2000/svg"
 width="201.000000pt" height="162.000000pt" viewBox="0 0 201.000000 162.000000"
 preserveAspectRatio="xMidYMid meet">
<metadata>
Created by potrace 1.16, written by Peter Selinger 2001-2019
</metadata>
<g transform="translate(0.000000,162.000000) scale(0.100000,-0.100000)"
fill="#000000" stroke="none">
<path d="M1525 1608 l-30 -11 -17 -15 -18 -15 0 -23 0 -23 22 -43 23 -43 -2
-56 -1 -57 -20 -44 -19 -44 -32 -37 -32 -36 -55 -27 -54 -26 -118 4 -117 4
-42 22 -42 22 -15 22 -16 22 0 46 0 47 25 71 25 72 0 27 0 28 -19 31 -19 31
-49 24 -48 24 -207 3 -207 4 2 -229 2 -228 -18 -60 -19 -60 -19 -26 -19 -27
-36 -17 -37 -17 -77 4 -76 4 -22 22 -22 22 -11 0 -10 0 -19 -10 -18 -10 -18
-46 -18 -47 0 -61 0 -61 29 -54 29 -53 31 -25 30 -26 54 -25 55 -25 40 -1 41
-1 31 23 31 23 33 -3 33 -3 21 -28 21 -28 3 -108 4 -108 -22 -129 -23 -129 -1
-15 -1 -14 250 -18 250 -19 43 6 42 6 0 18 0 17 -9 9 -10 10 -15 84 -16 83 0
79 0 80 14 34 14 34 33 16 32 17 78 5 79 6 42 -17 43 -17 28 -36 27 -36 0 -39
0 -39 -20 -27 -20 -27 -6 -32 -6 -32 30 -29 31 -30 73 -16 73 -15 140 -16 140
-16 85 -19 85 -18 15 -6 15 -6 -3 788 -2 789 -113 6 -112 7 -110 -1 -110 -1
-30 -10z"/>
</g>
</svg>
