<?xml version="1.0" standalone="no"?>
<!DOCTYPE svg PUBLIC "-//W3C//DTD SVG 20010904//EN"
 "http://www.w3.org/TR/2001/REC-SVG-20010904/DTD/svg10.dtd">
<svg version="1.0" xmlns="http://www.w3.org/2000/svg"
 width="204.000000pt" height="253.000000pt" viewBox="0 0 204.000000 253.000000"
 preserveAspectRatio="xMidYMid meet">
<metadata>
Created by potrace 1.16, written by Peter Selinger 2001-2019
</metadata>
<g transform="translate(0.000000,253.000000) scale(0.100000,-0.100000)"
fill="#000000" stroke="none">
<path d="M1175 2511 l-31 -18 -26 -31 -26 -31 -19 -53 -18 -53 1 -105 0 -105
18 -64 17 -63 -6 -6 -6 -6 -292 23 -292 22 -23 3 -23 3 6 -236 6 -236 -13 -49
-13 -49 -17 -11 -17 -10 -48 17 -48 17 -55 10 -55 11 -47 -12 -47 -11 -27 -26
-27 -27 -19 -43 -20 -43 1 -94 0 -94 11 -41 11 -41 28 -31 28 -31 55 -5 56 -4
82 27 82 27 27 -19 26 -20 12 -39 11 -39 1 -227 1 -226 5 -14 5 -14 103 9 102
8 165 -3 165 -3 35 -21 35 -20 -1 -25 -1 -24 -17 -60 -17 -60 -6 -61 -6 -61
12 -36 12 -36 37 -23 37 -23 115 1 115 0 44 13 43 12 24 26 24 26 0 31 0 31
-18 30 -19 30 -6 26 -7 27 21 26 20 26 52 15 52 14 154 26 155 26 78 26 78 26
0 6 0 7 -23 50 -24 49 -16 60 -16 60 -21 115 -21 115 -11 35 -10 35 -25 32
-24 33 -35 0 -35 0 -24 -26 -25 -27 -24 16 -24 16 -20 43 -21 43 -11 71 -11
70 11 70 11 69 18 30 17 30 28 13 28 14 50 -26 50 -26 53 0 53 0 36 34 35 35
18 58 18 58 0 202 -1 202 -5 5 -5 5 -109 -30 -110 -29 -110 -16 -110 -16 -56
5 -56 5 -31 16 -32 16 -6 24 -6 24 22 68 22 69 5 75 6 76 -16 54 -16 55 -32
38 -31 38 -39 19 -38 20 -38 0 -38 0 -30 -19z"/>
</g>
</svg>
