<?xml version="1.0" standalone="no"?>
<!DOCTYPE svg PUBLIC "-//W3C//DTD SVG 20010904//EN"
 "http://www.w3.org/TR/2001/REC-SVG-20010904/DTD/svg10.dtd">
<svg version="1.0" xmlns="http://www.w3.org/2000/svg"
 width="174.000000pt" height="162.000000pt" viewBox="0 0 174.000000 162.000000"
 preserveAspectRatio="xMidYMid meet">
<metadata>
Created by potrace 1.16, written by Peter Selinger 2001-2019
</metadata>
<g transform="translate(0.000000,162.000000) scale(0.100000,-0.100000)"
fill="#000000" stroke="none">
<path d="M28 1538 l4 -83 -16 -195 -16 -196 0 -62 0 -62 15 0 16 0 41 21 42
21 80 -4 81 -5 53 -23 53 -23 34 -40 35 -41 0 -37 0 -38 -10 -48 -11 -48 -9
-15 -9 -15 -21 23 -21 22 -38 0 -38 0 -15 -17 -16 -18 -15 -31 -16 -31 -36
-142 -35 -141 -30 -81 -29 -80 -31 -51 -31 -50 5 -13 5 -13 138 -8 138 -9 116
0 116 0 26 14 27 14 0 31 0 31 -25 60 -25 60 0 38 0 38 15 35 15 35 22 20 23
20 45 22 45 22 100 0 100 0 58 -28 57 -29 25 -36 25 -37 0 -45 0 -45 -20 -44
-20 -43 0 -37 0 -37 15 -21 15 -21 52 -12 52 -13 170 6 171 7 55 6 56 6 37
117 38 116 15 75 16 75 -4 98 -3 99 -29 25 -30 25 -37 -5 -37 -5 -30 -22 -31
-23 -68 5 -68 6 -56 21 -56 21 -47 31 -46 31 -22 31 -23 32 -3 90 -3 90 13 39
13 39 28 21 27 20 53 -1 52 -2 75 -22 75 -21 60 -2 60 -1 17 35 18 35 0 135 0
135 -7 128 -6 127 -802 0 -801 0 4 -82z"/>
</g>
</svg>
