<?xml version="1.0" standalone="no"?>
<!DOCTYPE svg PUBLIC "-//W3C//DTD SVG 20010904//EN"
 "http://www.w3.org/TR/2001/REC-SVG-20010904/DTD/svg10.dtd">
<svg version="1.0" xmlns="http://www.w3.org/2000/svg"
 width="172.000000pt" height="160.000000pt" viewBox="0 0 172.000000 160.000000"
 preserveAspectRatio="xMidYMid meet">
<metadata>
Created by potrace 1.16, written by Peter Selinger 2001-2019
</metadata>
<g transform="translate(0.000000,160.000000) scale(0.100000,-0.100000)"
fill="#000000" stroke="none">
<path d="M25 1594 l10 -4 -3 -83 -3 -82 -14 -190 -15 -191 0 -52 0 -52 5 0 6
0 41 21 42 21 90 -4 91 -4 53 -24 53 -23 34 -40 35 -41 0 -47 0 -48 -11 -49
-10 -50 -14 -18 -14 -19 -26 28 -26 27 -28 0 -28 0 -15 -17 -16 -18 -15 -31
-16 -31 -36 -142 -35 -141 -30 -81 -29 -80 -30 -49 -30 -49 7 -4 7 -5 203 -12
204 -13 44 7 44 6 20 12 20 13 0 20 0 20 -25 60 -25 60 0 48 0 48 15 35 15 35
22 20 23 20 45 22 45 22 110 0 110 0 58 -28 58 -29 26 -39 25 -38 0 -49 0 -49
-21 -48 -21 -48 0 -26 0 -27 15 -21 15 -21 52 -12 52 -13 160 6 161 7 55 6 56
6 37 117 38 116 15 75 16 75 -4 88 -3 89 -29 25 -29 25 -29 -6 -28 -6 -29 -21
-30 -22 -78 5 -78 5 -56 22 -56 21 -47 31 -46 31 -22 31 -23 32 -3 100 -3 100
13 39 13 39 28 21 28 21 62 -2 62 -2 75 -21 75 -22 50 -2 50 -1 17 35 18 35 0
125 0 125 -7 128 -6 127 -796 -1 -796 -1 10 -4z"/>
</g>
</svg>
