<?xml version="1.0" standalone="no"?>
<!DOCTYPE svg PUBLIC "-//W3C//DTD SVG 20010904//EN"
 "http://www.w3.org/TR/2001/REC-SVG-20010904/DTD/svg10.dtd">
<svg version="1.0" xmlns="http://www.w3.org/2000/svg"
 width="207.000000pt" height="207.000000pt" viewBox="0 0 207.000000 207.000000"
 preserveAspectRatio="xMidYMid meet">
<metadata>
Created by potrace 1.16, written by Peter Selinger 2001-2019
</metadata>
<g transform="translate(0.000000,207.000000) scale(0.100000,-0.100000)"
fill="#000000" stroke="none">
<path d="M695 2047 l-50 -24 -26 -39 -27 -39 -12 -39 -12 -38 4 -97 4 -96 21
-45 22 -44 -4 -5 -5 -5 -253 17 -252 17 -52 5 -53 4 0 -802 0 -802 173 -5 172
-5 106 1 107 0 26 17 26 17 0 42 0 41 -26 71 -26 71 -2 62 -1 61 21 29 20 28
50 25 49 25 80 0 80 0 36 -18 36 -18 32 -31 33 -32 19 -38 19 -37 0 -19 0 -19
-20 -26 -20 -25 -6 -31 -6 -30 6 -26 6 -25 38 -18 37 -19 26 -7 27 -6 173 -15
174 -15 62 -12 63 -11 7 6 6 7 -36 117 -36 118 -16 77 -15 77 0 71 0 71 15 28
14 29 14 5 14 5 69 -20 69 -21 127 -1 126 -1 44 30 43 31 18 49 17 50 -3 95
-3 95 -23 43 -23 43 -42 22 -41 22 -115 -1 -115 0 -69 -16 -69 -15 7 91 7 91
9 115 10 115 0 75 0 75 -8 11 -7 11 -110 -8 -110 -8 -145 0 -145 1 -39 11 -39
12 -20 27 -21 28 24 57 24 58 4 58 4 58 -16 43 -17 43 -22 21 -23 21 -43 16
-44 15 -51 0 -51 0 -50 -23z"/>
</g>
</svg>
