<?xml version="1.0" standalone="no"?>
<!DOCTYPE svg PUBLIC "-//W3C//DTD SVG 20010904//EN"
 "http://www.w3.org/TR/2001/REC-SVG-20010904/DTD/svg10.dtd">
<svg version="1.0" xmlns="http://www.w3.org/2000/svg"
 width="205.000000pt" height="205.000000pt" viewBox="0 0 205.000000 205.000000"
 preserveAspectRatio="xMidYMid meet">
<metadata>
Created by potrace 1.16, written by Peter Selinger 2001-2019
</metadata>
<g transform="translate(0.000000,205.000000) scale(0.100000,-0.100000)"
fill="#000000" stroke="none">
<path d="M695 2027 l-50 -24 -26 -39 -27 -39 -12 -39 -12 -38 4 -87 4 -86 22
-46 22 -45 0 -12 0 -12 -50 0 -51 0 -192 15 -192 14 -68 3 -67 3 0 -790 0
-790 63 0 62 -1 205 -4 206 -5 27 18 27 17 0 32 0 31 -26 71 -27 71 -1 72 -1
71 21 29 20 28 50 25 49 25 90 0 90 0 36 -18 36 -18 32 -31 33 -32 19 -38 19
-37 0 -29 0 -29 -19 -25 -20 -25 -6 -26 -7 -26 7 -20 6 -21 37 -19 37 -18 26
-7 27 -6 173 -15 174 -15 53 -11 54 -11 3 4 4 4 -30 94 -31 95 -19 90 -19 90
0 83 0 83 15 29 15 29 19 6 19 6 78 -23 79 -22 112 -1 111 0 44 30 43 31 18
49 17 50 -3 85 -4 85 -23 43 -22 43 -42 22 -41 22 -95 0 -95 0 -73 -13 -72
-14 -17 -16 -16 -16 6 89 5 90 13 190 12 190 -6 25 -6 25 -98 -6 -98 -7 -153
-1 -153 -1 -45 11 -45 12 -19 25 -20 25 0 21 0 21 21 45 21 45 5 52 6 53 -17
43 -17 44 -22 21 -23 21 -43 16 -44 15 -41 0 -41 0 -50 -23z"/>
</g>
</svg>
