<?xml version="1.0" standalone="no"?>
<!DOCTYPE svg PUBLIC "-//W3C//DTD SVG 20010904//EN"
 "http://www.w3.org/TR/2001/REC-SVG-20010904/DTD/svg10.dtd">
<svg version="1.0" xmlns="http://www.w3.org/2000/svg"
 width="207.000000pt" height="199.000000pt" viewBox="0 0 207.000000 199.000000"
 preserveAspectRatio="xMidYMid meet">
<metadata>
Created by potrace 1.16, written by Peter Selinger 2001-2019
</metadata>
<g transform="translate(0.000000,199.000000) scale(0.100000,-0.100000)"
fill="#000000" stroke="none">
<path d="M438 1983 l-36 -4 -5 -207 -4 -207 -12 -36 -11 -36 -23 -34 -22 -34
-35 -23 -35 -24 -89 4 -88 4 -19 25 -19 24 -10 -15 -9 -15 -11 -48 -10 -48 0
-91 0 -91 12 -39 12 -39 29 -25 29 -24 34 0 34 0 66 27 66 27 26 -15 27 -14
19 -39 19 -39 9 -211 9 -211 -3 -62 -4 -62 21 5 20 5 215 2 215 2 37 -13 38
-14 15 -21 15 -21 0 -24 0 -23 -25 -59 -25 -59 0 -43 0 -43 18 -21 17 -22 32
-16 32 -16 78 -11 78 -11 63 6 63 7 30 6 31 6 5 14 6 15 -27 24 -26 25 0 20 0
20 11 21 11 20 42 19 42 18 145 35 144 34 75 27 75 27 50 28 50 29 33 88 32
88 21 80 21 80 1 97 2 96 -21 29 -22 28 -32 -2 -31 -1 -19 -17 -19 -18 -71 -5
-70 -5 -70 23 -69 22 -12 14 -11 14 -10 0 -9 0 -33 33 -34 32 -21 35 -21 35 0
53 0 54 16 34 16 34 33 20 33 20 58 12 58 11 98 -12 98 -12 45 -14 45 -13 1
36 2 37 -2 75 -2 75 -15 185 -14 185 0 23 0 24 -17 -7 -18 -8 -69 -24 -69 -25
-156 -30 -156 -29 -43 -19 -42 -19 -10 -27 -10 -26 25 -55 25 -55 0 -36 0 -35
-34 -31 -33 -32 -39 -11 -39 -12 -65 -6 -65 -6 -89 9 -88 10 -24 27 -24 28 0
22 0 21 25 74 25 74 0 40 0 41 -19 35 -18 35 -45 28 -45 28 -54 15 -54 14
-130 4 -130 4 -37 -5z"/>
</g>
</svg>
