<?xml version="1.0" standalone="no"?>
<!DOCTYPE svg PUBLIC "-//W3C//DTD SVG 20010904//EN"
 "http://www.w3.org/TR/2001/REC-SVG-20010904/DTD/svg10.dtd">
<svg version="1.0" xmlns="http://www.w3.org/2000/svg"
 width="162.000000pt" height="210.000000pt" viewBox="0 0 162.000000 210.000000"
 preserveAspectRatio="xMidYMid meet">
<metadata>
Created by potrace 1.16, written by Peter Selinger 2001-2019
</metadata>
<g transform="translate(0.000000,210.000000) scale(0.100000,-0.100000)"
fill="#000000" stroke="none">
<path d="M672 2083 l-43 -15 -34 -34 -34 -34 -16 -52 -15 -52 0 -50 0 -51 16
-88 16 -88 -3 -4 -4 -3 -110 14 -110 14 -161 6 -161 7 -6 -78 -7 -78 0 -139 0
-139 11 -72 11 -72 20 -43 21 -43 28 -14 28 -15 34 0 35 0 66 25 66 25 18 0
19 0 23 -25 24 -26 4 -68 4 -69 -38 -41 -37 -42 -28 -15 -28 -14 -9 0 -9 0
-27 25 -27 25 -44 0 -44 0 -20 -26 -21 -26 -10 -37 -10 -36 -10 -135 -10 -135
-11 -118 -10 -118 -11 -30 -10 -30 5 -5 5 -5 213 -14 214 -15 92 0 92 0 51 11
50 11 6 23 6 24 -23 33 -24 33 -3 71 -4 71 12 56 11 56 30 59 29 59 20 18 19
17 26 -6 26 -7 30 -47 30 -47 19 -64 20 -63 0 -57 0 -56 -25 -47 -25 -47 0
-35 0 -35 22 -21 23 -21 25 -7 25 -7 125 0 125 0 180 25 180 24 -2 235 -3 236
-11 52 -10 53 -26 20 -26 20 -17 0 -16 0 -75 -26 -74 -25 -49 4 -50 4 -27 31
-28 31 -10 38 -11 38 0 90 0 90 19 40 18 40 27 26 26 27 43 10 43 11 66 -14
67 -14 21 -11 21 -11 32 3 32 3 13 28 14 29 5 77 6 77 -8 187 -7 187 -15 0
-15 0 -73 -35 -74 -35 -88 -25 -87 -26 -71 -6 -70 -5 -37 15 -37 16 -7 27 -7
27 21 41 21 41 6 28 5 27 -10 68 -11 67 -28 61 -29 61 -38 43 -39 43 -32 14
-32 13 -73 -1 -73 -1 -43 -15z"/>
</g>
</svg>
