<?xml version="1.0" standalone="no"?>
<!DOCTYPE svg PUBLIC "-//W3C//DTD SVG 20010904//EN"
 "http://www.w3.org/TR/2001/REC-SVG-20010904/DTD/svg10.dtd">
<svg version="1.0" xmlns="http://www.w3.org/2000/svg"
 width="160.000000pt" height="208.000000pt" viewBox="0 0 160.000000 208.000000"
 preserveAspectRatio="xMidYMid meet">
<metadata>
Created by potrace 1.16, written by Peter Selinger 2001-2019
</metadata>
<g transform="translate(0.000000,208.000000) scale(0.100000,-0.100000)"
fill="#000000" stroke="none">
<path d="M672 2063 l-43 -15 -34 -34 -34 -34 -16 -52 -15 -52 0 -45 0 -46 19
-90 19 -90 -7 -8 -8 -8 -124 16 -124 15 -146 7 -146 6 -6 -78 -7 -78 0 -129 0
-129 11 -72 11 -72 20 -43 21 -43 28 -14 28 -15 24 0 25 0 66 25 66 25 28 0
29 0 24 -26 24 -26 3 -78 4 -78 -38 -42 -37 -41 -28 -15 -28 -14 -19 0 -19 0
-27 25 -27 25 -34 0 -34 0 -20 -26 -21 -26 -10 -37 -10 -36 -10 -135 -10 -135
-11 -119 -10 -119 -9 -23 -9 -23 62 -5 62 -6 160 -10 160 -10 77 0 77 0 50 11
49 10 6 16 6 15 -21 29 -21 30 -7 54 -8 55 9 66 9 66 20 53 20 53 29 41 30 41
26 0 25 0 19 -10 19 -10 27 -46 26 -45 19 -60 19 -61 0 -66 0 -67 -25 -47 -25
-47 0 -25 0 -25 22 -21 23 -21 25 -7 25 -7 115 0 115 0 180 25 180 24 -3 237
-3 238 -12 42 -12 42 -27 20 -26 19 -82 -27 -82 -27 -56 4 -55 5 -28 31 -28
31 -11 41 -11 41 0 94 -1 94 20 43 19 43 27 27 27 26 47 11 47 12 55 -11 55
-10 48 -17 48 -17 17 10 17 11 13 49 13 49 -6 225 -6 224 -4 4 -3 4 -76 -36
-75 -36 -87 -25 -87 -25 -67 -6 -68 -7 -36 7 -37 7 -20 20 -19 19 0 33 0 33
16 23 17 23 8 35 7 36 -9 61 -10 61 -28 61 -29 61 -38 43 -39 43 -32 14 -32
13 -63 -1 -63 -1 -43 -15z"/>
</g>
</svg>
