<?xml version="1.0" standalone="no"?>
<!DOCTYPE svg PUBLIC "-//W3C//DTD SVG 20010904//EN"
 "http://www.w3.org/TR/2001/REC-SVG-20010904/DTD/svg10.dtd">
<svg version="1.0" xmlns="http://www.w3.org/2000/svg"
 width="256.000000pt" height="212.000000pt" viewBox="0 0 256.000000 212.000000"
 preserveAspectRatio="xMidYMid meet">
<metadata>
Created by potrace 1.16, written by Peter Selinger 2001-2019
</metadata>
<g transform="translate(0.000000,212.000000) scale(0.100000,-0.100000)"
fill="#000000" stroke="none">
<path d="M1260 2079 l-29 -41 -20 -52 -20 -53 -9 -72 -10 -71 8 -60 8 -59 16
-23 16 -22 0 -12 0 -12 -50 -11 -51 -11 -68 0 -67 0 -229 15 -228 15 -2 -2 -2
-3 8 -130 7 -130 -9 -84 -10 -85 -22 -40 -22 -40 -34 -23 -34 -23 -53 0 -53 0
-77 25 -77 25 -44 0 -44 0 -24 -24 -23 -23 -7 -46 -7 -46 4 -128 4 -128 18
-35 18 -35 29 -27 28 -26 38 -14 38 -13 95 1 95 1 78 21 78 22 19 -10 18 -10
12 -35 12 -35 -1 -89 -1 -88 -25 -148 -25 -149 0 -15 0 -16 228 1 227 1 50 16
51 16 32 32 32 31 0 58 0 57 -19 54 -18 54 -7 38 -7 37 17 36 18 37 43 19 44
19 67 5 67 6 45 -24 45 -23 18 -35 18 -35 -5 -60 -5 -60 -21 -59 -20 -59 0
-33 0 -33 17 -17 17 -17 36 -15 35 -15 285 -11 285 -12 13 13 14 13 -46 113
-45 112 -21 87 -21 88 0 66 -1 67 20 26 20 26 18 -2 19 -2 75 -21 75 -21 85 4
85 3 41 22 41 21 31 35 31 35 10 38 11 38 0 45 0 45 -10 36 -10 36 -23 34 -22
34 -34 22 -34 23 -59 0 -59 0 -27 -20 -27 -19 -27 -6 -27 -7 -25 25 -25 25
-12 43 -13 44 2 205 2 205 6 28 6 27 -39 0 -39 0 -144 -21 -145 -21 -130 -2
-130 -1 -33 20 -33 20 -5 21 -6 22 26 48 26 49 0 77 0 76 -19 61 -19 60 -26
45 -27 46 -19 10 -19 10 -35 0 -36 0 -30 -41z"/>
</g>
</svg>
