<?xml version="1.0" standalone="no"?>
<!DOCTYPE svg PUBLIC "-//W3C//DTD SVG 20010904//EN"
 "http://www.w3.org/TR/2001/REC-SVG-20010904/DTD/svg10.dtd">
<svg version="1.0" xmlns="http://www.w3.org/2000/svg"
 width="254.000000pt" height="210.000000pt" viewBox="0 0 254.000000 210.000000"
 preserveAspectRatio="xMidYMid meet">
<metadata>
Created by potrace 1.16, written by Peter Selinger 2001-2019
</metadata>
<g transform="translate(0.000000,210.000000) scale(0.100000,-0.100000)"
fill="#000000" stroke="none">
<path d="M1260 2059 l-29 -41 -20 -53 -20 -53 -9 -66 -9 -66 8 -55 7 -54 21
-30 21 -29 -6 -15 -6 -16 -49 -10 -50 -11 -77 0 -77 0 -160 10 -160 10 -60 5
-60 6 7 -128 7 -128 -10 -89 -10 -90 -22 -40 -22 -40 -34 -23 -34 -23 -63 0
-63 0 -77 25 -77 25 -34 0 -34 0 -24 -24 -23 -23 -7 -46 -7 -46 4 -118 4 -118
18 -35 18 -35 29 -27 28 -26 38 -14 38 -13 85 1 85 1 80 22 79 22 24 -6 23 -6
16 -37 15 -37 0 -100 -1 -100 -26 -149 -25 -150 0 -5 0 -6 213 0 212 0 55 17
55 17 33 32 32 31 0 48 0 47 -19 56 -20 56 -6 45 -7 44 18 37 18 38 44 19 45
20 76 5 76 5 45 -24 45 -23 18 -35 18 -35 -4 -65 -4 -65 -23 -71 -23 -71 6
-26 7 -25 46 -23 47 -22 277 -11 277 -11 10 10 10 10 -40 94 -39 94 -24 96
-25 96 -1 78 -1 78 20 27 20 27 29 -2 29 -1 75 -22 75 -21 75 4 75 4 41 21 41
21 31 35 31 35 10 38 11 38 0 35 0 35 -10 36 -10 36 -23 34 -22 34 -34 22 -34
23 -49 0 -50 0 -25 -20 -25 -19 -33 -7 -33 -6 -21 11 -21 12 -15 29 -15 29
-10 73 -10 73 8 188 7 187 -25 0 -26 0 -144 -21 -145 -21 -130 -2 -130 -1 -25
7 -25 7 -23 21 -22 21 0 25 0 25 25 47 25 47 0 67 0 66 -19 61 -19 60 -26 45
-27 46 -19 10 -19 10 -25 0 -26 0 -30 -41z"/>
</g>
</svg>
