<?xml version="1.0" standalone="no"?>
<!DOCTYPE svg PUBLIC "-//W3C//DTD SVG 20010904//EN"
 "http://www.w3.org/TR/2001/REC-SVG-20010904/DTD/svg10.dtd">
<svg version="1.0" xmlns="http://www.w3.org/2000/svg"
 width="204.000000pt" height="250.000000pt" viewBox="0 0 204.000000 250.000000"
 preserveAspectRatio="xMidYMid meet">
<metadata>
Created by potrace 1.16, written by Peter Selinger 2001-2019
</metadata>
<g transform="translate(0.000000,250.000000) scale(0.100000,-0.100000)"
fill="#000000" stroke="none">
<path d="M1128 2491 l-36 -8 -27 -17 -26 -17 -10 -27 -10 -27 6 -45 7 -44 26
-64 26 -64 -15 -26 -14 -26 -45 -14 -45 -14 -271 7 -271 6 1 -208 1 -208 -18
-58 -18 -58 -35 -35 -36 -34 -43 0 -43 0 -50 26 -50 26 -31 -7 -31 -7 -20 -25
-20 -26 -12 -41 -11 -41 -1 -90 0 -90 17 -56 17 -57 29 -31 29 -31 17 0 18 0
23 25 23 25 25 0 25 0 24 -32 25 -33 10 -35 11 -35 26 -135 25 -135 14 -45 14
-45 22 -47 22 -48 247 7 246 6 42 -12 42 -12 15 -14 14 -15 -20 -52 -20 -53
-5 -86 -6 -86 18 -52 17 -52 39 -39 39 -38 36 -12 37 -12 77 4 78 5 57 34 58
34 31 55 30 55 4 95 4 95 -25 76 -24 77 9 17 10 17 34 14 33 14 58 0 58 0 65
-11 65 -10 98 -25 98 -24 15 14 14 15 -24 73 -24 73 -22 135 -21 135 -10 40
-11 40 -24 33 -25 32 -48 0 -48 0 -26 -20 -25 -20 -15 0 -16 0 -20 26 -20 25
-11 56 -12 56 4 101 3 101 21 35 20 35 34 22 33 23 46 0 46 0 50 -14 51 -13
23 -12 22 -12 29 6 29 6 10 50 11 50 0 52 0 52 -12 192 -11 192 -6 10 -6 9
-252 11 -252 11 -52 11 -52 11 -24 26 -25 27 6 29 6 29 20 14 20 14 0 25 0 25
-14 32 -13 32 -36 32 -36 32 -38 10 -38 11 -30 -1 -30 -1 -37 -7z"/>
</g>
</svg>
