<?xml version="1.0" standalone="no"?>
<!DOCTYPE svg PUBLIC "-//W3C//DTD SVG 20010904//EN"
 "http://www.w3.org/TR/2001/REC-SVG-20010904/DTD/svg10.dtd">
<svg version="1.0" xmlns="http://www.w3.org/2000/svg"
 width="163.000000pt" height="255.000000pt" viewBox="0 0 163.000000 255.000000"
 preserveAspectRatio="xMidYMid meet">
<metadata>
Created by potrace 1.16, written by Peter Selinger 2001-2019
</metadata>
<g transform="translate(0.000000,255.000000) scale(0.100000,-0.100000)"
fill="#000000" stroke="none">
<path d="M652 2532 l-53 -19 -24 -23 -24 -23 -12 -35 -12 -35 6 -61 6 -62 25
-70 26 -71 0 -21 0 -22 -27 -17 -27 -18 -196 4 -195 5 -70 0 -70 1 -3 -803 -2
-804 27 6 28 6 145 10 145 10 119 7 119 6 -24 -32 -24 -33 0 -101 0 -102 23
-50 23 -50 26 -38 27 -38 45 -27 46 -27 75 0 75 0 52 33 51 33 25 38 25 38 18
49 17 49 0 95 0 95 -22 57 -22 58 5 18 6 19 26 11 25 12 58 0 58 0 77 -20 78
-20 86 -36 87 -36 33 -5 32 -5 0 15 0 15 -25 55 -24 56 -20 78 -19 78 -17 85
-16 85 -16 56 -15 56 -24 27 -25 26 -45 0 -45 0 -40 -21 -41 -20 -27 -1 -27
-1 -23 12 -23 13 -20 46 -21 46 -1 66 -1 65 24 48 24 49 26 25 26 25 63 30 63
30 62 5 62 5 57 -11 57 -12 24 -20 25 -19 16 0 16 0 6 26 6 25 -5 82 -5 82
-13 187 -13 186 -55 11 -56 11 -174 15 -173 15 -27 6 -26 7 -37 18 -37 19 -5
18 -6 19 6 19 7 19 19 24 18 24 0 39 0 39 -19 37 -19 38 -33 32 -32 31 -36 18
-36 17 -85 3 -85 3 -53 -18z"/>
</g>
</svg>
