<?xml version="1.0" standalone="no"?>
<!DOCTYPE svg PUBLIC "-//W3C//DTD SVG 20010904//EN"
 "http://www.w3.org/TR/2001/REC-SVG-20010904/DTD/svg10.dtd">
<svg version="1.0" xmlns="http://www.w3.org/2000/svg"
 width="205.000000pt" height="215.000000pt" viewBox="0 0 205.000000 215.000000"
 preserveAspectRatio="xMidYMid meet">
<metadata>
Created by potrace 1.16, written by Peter Selinger 2001-2019
</metadata>
<g transform="translate(0.000000,215.000000) scale(0.100000,-0.100000)"
fill="#000000" stroke="none">
<path d="M1405 2141 l-30 -8 -22 -12 -23 -12 -6 -23 -6 -24 23 -89 23 -88 1
-100 0 -100 -25 -44 -25 -43 -37 -19 -37 -19 -60 0 -60 0 -50 11 -50 10 -40
30 -41 29 -6 26 -7 26 23 31 24 31 3 75 4 76 -23 45 -23 45 -34 23 -35 23 -55
17 -56 17 -167 -1 -167 0 -7 -7 -7 -7 12 -228 13 -228 -12 -58 -12 -58 -26 5
-27 5 -55 16 -55 16 -66 0 -66 0 -33 -23 -34 -22 -20 -35 -21 -35 -3 -121 -4
-121 12 -57 11 -56 26 -31 26 -31 29 6 30 6 25 20 26 20 28 0 28 0 25 -32 24
-33 11 -40 10 -40 22 -135 21 -135 18 -58 18 -57 -5 -20 -5 -20 8 0 9 -1 240
-2 240 -2 41 -22 41 -22 18 -37 18 -37 -6 -63 -6 -62 -26 -61 -25 -60 0 -29 0
-29 19 -17 20 -18 78 -10 78 -10 77 6 77 5 35 15 35 15 36 36 36 36 15 34 14
34 0 68 0 68 -24 67 -24 67 14 20 14 19 38 13 37 13 85 0 85 -1 153 -18 153
-18 4 4 4 5 27 154 27 155 1 157 1 156 -21 29 -21 28 -34 -1 -34 0 -79 -22
-80 -22 -61 0 -61 0 -44 23 -45 22 -18 35 -18 35 4 92 4 91 20 34 19 33 26 9
25 9 57 -27 57 -27 67 -5 67 -5 35 18 35 18 19 38 18 38 9 67 9 67 -7 193 -6
192 -36 10 -36 9 -139 26 -140 25 -100 5 -101 4 -30 -8z"/>
</g>
</svg>
