<?xml version="1.0" standalone="no"?>
<!DOCTYPE svg PUBLIC "-//W3C//DTD SVG 20010904//EN"
 "http://www.w3.org/TR/2001/REC-SVG-20010904/DTD/svg10.dtd">
<svg version="1.0" xmlns="http://www.w3.org/2000/svg"
 width="203.000000pt" height="213.000000pt" viewBox="0 0 203.000000 213.000000"
 preserveAspectRatio="xMidYMid meet">
<metadata>
Created by potrace 1.16, written by Peter Selinger 2001-2019
</metadata>
<g transform="translate(0.000000,213.000000) scale(0.100000,-0.100000)"
fill="#000000" stroke="none">
<path d="M1415 2124 l-20 -5 -28 -11 -28 -11 -10 -19 -10 -19 23 -87 22 -87 1
-110 0 -110 -27 -46 -27 -45 -40 -19 -40 -18 -95 5 -94 5 -46 22 -46 23 -20
25 -20 26 0 27 0 27 21 28 22 27 4 66 4 67 -23 45 -23 45 -34 23 -35 23 -55
17 -56 17 -157 -1 -157 0 -7 -7 -7 -6 13 -228 13 -228 -12 -56 -12 -57 -21 -5
-21 -6 -21 11 -20 11 -51 13 -50 14 -56 0 -56 0 -33 -23 -34 -22 -20 -35 -21
-35 -3 -111 -4 -111 12 -57 11 -56 26 -30 25 -31 22 7 21 7 24 18 24 19 38 0
38 0 24 -32 24 -33 7 -19 6 -19 30 -172 29 -172 19 -51 20 -50 -11 -11 -11
-11 14 0 15 0 235 -2 235 -3 41 -22 41 -22 18 -37 18 -38 -6 -71 -5 -71 -26
-62 -26 -61 0 -19 0 -19 19 -17 20 -18 78 -10 78 -10 68 6 68 6 34 14 34 15
36 36 36 36 15 34 14 34 0 56 0 57 -26 74 -26 75 16 24 15 23 38 13 38 14 100
-1 100 -1 138 -17 139 -17 3 3 4 4 26 154 27 155 5 126 6 125 -12 36 -12 36
-19 17 -20 18 -77 -23 -78 -23 -90 -4 -90 -4 -45 23 -45 23 -18 35 -18 35 4
100 4 100 16 32 17 32 19 11 20 10 22 0 22 0 53 -25 53 -25 58 -6 58 -5 35 18
35 18 19 38 18 38 9 67 9 67 -7 183 -6 182 -36 10 -36 9 -137 25 -137 25 -93
5 -93 5 -20 -5z"/>
</g>
</svg>
