<?xml version="1.0" standalone="no"?>
<!DOCTYPE svg PUBLIC "-//W3C//DTD SVG 20010904//EN"
 "http://www.w3.org/TR/2001/REC-SVG-20010904/DTD/svg10.dtd">
<svg version="1.0" xmlns="http://www.w3.org/2000/svg"
 width="201.000000pt" height="211.000000pt" viewBox="0 0 201.000000 211.000000"
 preserveAspectRatio="xMidYMid meet">
<metadata>
Created by potrace 1.16, written by Peter Selinger 2001-2019
</metadata>
<g transform="translate(0.000000,211.000000) scale(0.100000,-0.100000)"
fill="#000000" stroke="none">
<path d="M1031 2100 l-44 -9 -23 -16 -24 -15 0 -41 0 -41 22 -31 22 -30 0 -46
0 -46 -29 -54 -29 -53 -36 -24 -35 -24 -60 1 -60 1 -30 11 -30 12 -42 29 -42
28 -21 42 -20 42 0 35 0 34 25 53 25 54 0 28 0 28 -37 13 -37 12 -180 -7 -181
-8 -72 -7 -72 -7 -6 -6 -6 -6 -2 -248 -2 -249 13 -38 14 -38 21 -19 21 -20 20
0 20 0 104 26 104 26 73 -4 73 -3 22 -20 22 -20 15 -29 15 -28 1 -87 1 -86
-23 -42 -24 -41 -23 -13 -23 -12 -30 1 -30 1 -47 20 -47 21 -48 0 -49 0 -24
-37 -25 -38 -10 -45 -10 -45 -27 -150 -26 -150 -29 -88 -29 -88 0 -17 0 -17
238 0 237 0 51 -23 50 -23 28 -42 28 -42 -5 -84 -4 -85 -21 -14 -22 -14 0 -35
0 -34 17 -18 18 -18 35 -19 35 -19 130 0 130 0 57 27 56 26 19 28 18 28 0 56
0 55 -23 48 -23 48 6 21 7 20 45 20 44 19 152 19 152 19 59 12 58 12 13 31 13
31 11 120 11 120 10 135 10 135 10 36 10 37 21 26 20 26 24 0 24 0 27 -25 27
-25 29 0 29 0 28 14 28 15 37 41 38 42 -4 88 -3 88 -24 26 -24 26 -36 0 -36 0
-77 -27 -77 -27 -34 16 -34 16 -21 44 -20 44 -13 85 -12 84 6 192 6 192 -42 5
-42 6 -96 10 -96 10 -129 5 -129 4 -44 -9z"/>
</g>
</svg>
