<?xml version="1.0" standalone="no"?>
<!DOCTYPE svg PUBLIC "-//W3C//DTD SVG 20010904//EN"
 "http://www.w3.org/TR/2001/REC-SVG-20010904/DTD/svg10.dtd">
<svg version="1.0" xmlns="http://www.w3.org/2000/svg"
 width="199.000000pt" height="209.000000pt" viewBox="0 0 199.000000 209.000000"
 preserveAspectRatio="xMidYMid meet">
<metadata>
Created by potrace 1.16, written by Peter Selinger 2001-2019
</metadata>
<g transform="translate(0.000000,209.000000) scale(0.100000,-0.100000)"
fill="#000000" stroke="none">
<path d="M1031 2080 l-44 -9 -23 -16 -24 -15 0 -31 0 -31 22 -31 23 -32 0 -55
-1 -55 -29 -54 -29 -53 -36 -24 -35 -24 -70 1 -70 1 -30 11 -30 12 -42 29 -42
28 -21 42 -20 42 0 45 0 44 25 53 25 54 0 18 0 18 -37 13 -37 12 -156 -7 -155
-6 -82 -7 -81 -6 -12 -7 -11 -7 -2 -239 -2 -239 18 -46 17 -46 24 -12 23 -13
107 27 108 27 83 -4 83 -3 22 -20 22 -20 15 -29 15 -29 1 -96 1 -96 -23 -41
-24 -42 -24 -13 -25 -14 -37 1 -37 1 -48 22 -49 21 -38 0 -39 0 -24 -37 -25
-38 -10 -45 -10 -45 -27 -150 -26 -150 -29 -88 -29 -88 0 -7 0 -7 238 0 237 0
51 -23 50 -23 28 -42 28 -42 -4 -94 -4 -94 -22 -15 -22 -14 0 -25 0 -24 17
-18 18 -18 35 -19 35 -19 120 0 120 0 57 27 56 26 19 28 18 28 0 46 -1 45 -22
47 -22 47 0 20 0 21 20 20 19 19 53 15 53 15 135 16 135 15 54 12 54 12 12 31
13 30 11 120 11 120 10 135 10 135 10 36 10 37 21 26 20 26 34 0 34 0 27 -25
27 -25 19 0 19 0 28 14 28 15 37 41 38 42 -4 78 -3 78 -24 26 -24 26 -29 0
-28 0 -66 -25 -66 -25 -25 0 -24 0 -28 15 -28 14 -21 44 -20 43 -13 84 -12 84
6 193 5 192 -41 5 -42 6 -95 10 -95 9 -120 5 -120 5 -44 -9z"/>
</g>
</svg>
