<?xml version="1.0" standalone="no"?>
<!DOCTYPE svg PUBLIC "-//W3C//DTD SVG 20010904//EN"
 "http://www.w3.org/TR/2001/REC-SVG-20010904/DTD/svg10.dtd">
<svg version="1.0" xmlns="http://www.w3.org/2000/svg"
 width="209.000000pt" height="217.000000pt" viewBox="0 0 209.000000 217.000000"
 preserveAspectRatio="xMidYMid meet">
<metadata>
Created by potrace 1.16, written by Peter Selinger 2001-2019
</metadata>
<g transform="translate(0.000000,217.000000) scale(0.100000,-0.100000)"
fill="#000000" stroke="none">
<path d="M875 2159 l-60 -7 -172 -13 -173 -12 0 -181 0 -181 -10 -60 -10 -60
-17 -53 -16 -54 -38 -40 -38 -41 -51 -5 -51 -5 -54 28 -54 27 -34 -11 -35 -12
-15 -17 -16 -18 -16 -37 -15 -36 0 -39 0 -38 16 -54 16 -54 29 -42 29 -42 52
-26 52 -26 21 0 21 0 34 25 34 25 23 0 24 0 24 -26 24 -25 10 -47 10 -47 12
-148 11 -148 12 -57 11 -57 297 0 297 0 17 -17 17 -17 -21 -48 -20 -48 -12
-63 -13 -62 5 -73 5 -74 22 -39 22 -39 33 -23 33 -23 34 -9 34 -10 40 0 40 0
34 10 35 10 27 30 28 30 7 36 7 36 -6 47 -6 48 -21 62 -21 63 6 19 6 19 29 15
29 15 48 10 48 10 176 20 177 19 71 16 71 17 0 26 0 27 -20 62 -19 62 -25 168
-25 168 -16 52 -16 52 -22 16 -21 15 -27 0 -27 0 -56 -26 -57 -26 -27 7 -27 6
-27 30 -27 29 -11 38 -10 37 0 48 0 48 14 27 14 27 29 26 28 27 42 21 43 21
72 11 73 12 75 -17 75 -17 23 -5 22 -6 0 68 0 69 -21 245 -22 245 -2 3 -2 3
-64 -10 -64 -10 -195 -16 -195 -15 -40 -10 -40 -11 -25 -19 -25 -19 1 -40 1
-40 22 -27 21 -27 0 -34 0 -34 -14 -27 -14 -27 -31 -29 -30 -29 -46 -11 -46
-12 -70 7 -70 8 -44 25 -43 26 -22 45 -22 46 0 77 1 78 16 72 17 72 9 0 9 0 0
15 0 15 -52 -1 -53 -2 -60 -8z"/>
</g>
</svg>
