<?xml version="1.0" standalone="no"?>
<!DOCTYPE svg PUBLIC "-//W3C//DTD SVG 20010904//EN"
 "http://www.w3.org/TR/2001/REC-SVG-20010904/DTD/svg10.dtd">
<svg version="1.0" xmlns="http://www.w3.org/2000/svg"
 width="207.000000pt" height="215.000000pt" viewBox="0 0 207.000000 215.000000"
 preserveAspectRatio="xMidYMid meet">
<metadata>
Created by potrace 1.16, written by Peter Selinger 2001-2019
</metadata>
<g transform="translate(0.000000,215.000000) scale(0.100000,-0.100000)"
fill="#000000" stroke="none">
<path d="M875 2139 l-60 -7 -172 -13 -173 -12 0 -181 0 -181 -10 -60 -10 -60
-17 -53 -16 -54 -39 -41 -38 -41 -63 -4 -62 -4 -48 25 -48 26 -29 -11 -30 -10
-20 -25 -20 -26 -12 -39 -12 -40 12 -54 11 -54 17 -36 18 -37 32 -32 32 -33
46 -17 46 -18 38 27 38 26 33 0 32 0 24 -26 24 -25 10 -47 10 -47 12 -148 11
-148 12 -57 11 -57 285 3 285 3 25 -13 25 -14 -1 -29 -2 -30 -23 -60 -23 -60
0 -100 -1 -100 23 -41 24 -41 40 -26 41 -26 43 -7 42 -6 43 7 42 7 33 33 33
33 7 37 6 36 -6 40 -6 40 -21 64 -21 64 6 25 6 26 30 15 29 15 48 10 48 10
176 20 177 19 71 16 71 17 0 16 0 17 -20 62 -19 62 -25 168 -25 168 -16 52
-16 52 -22 16 -21 15 -17 0 -17 0 -57 -26 -57 -26 -36 5 -35 6 -28 31 -28 30
-11 38 -10 37 0 58 0 58 14 27 14 27 29 26 28 27 43 21 43 22 78 11 78 12 74
-16 74 -15 18 -7 17 -8 0 58 0 59 -21 245 -22 245 -1 1 -1 2 -55 -9 -55 -8
-195 -16 -195 -15 -40 -10 -40 -11 -24 -18 -24 -18 1 -32 1 -31 20 -26 21 -27
0 -44 0 -44 -14 -27 -14 -27 -31 -29 -30 -29 -49 -12 -49 -13 -78 9 -77 8 -43
25 -43 26 -23 46 -22 47 1 86 0 86 17 70 16 69 12 8 12 8 -45 -1 -45 -2 -60
-8z"/>
</g>
</svg>
