<?xml version="1.0" standalone="no"?>
<!DOCTYPE svg PUBLIC "-//W3C//DTD SVG 20010904//EN"
 "http://www.w3.org/TR/2001/REC-SVG-20010904/DTD/svg10.dtd">
<svg version="1.0" xmlns="http://www.w3.org/2000/svg"
 width="168.000000pt" height="197.000000pt" viewBox="0 0 168.000000 197.000000"
 preserveAspectRatio="xMidYMid meet">
<metadata>
Created by potrace 1.16, written by Peter Selinger 2001-2019
</metadata>
<g transform="translate(0.000000,197.000000) scale(0.100000,-0.100000)"
fill="#000000" stroke="none">
<path d="M85 1754 l-8 -217 6 -64 5 -65 16 -16 16 -16 67 25 68 24 80 0 80 0
45 -27 45 -26 22 -24 22 -23 16 -37 15 -37 0 -53 0 -53 -19 -31 -18 -30 -51
-32 -50 -33 -73 -15 -74 -15 -55 6 -55 7 -44 19 -44 19 -29 0 -29 0 -21 -47
-21 -47 6 -91 6 -90 21 -100 20 -100 19 -70 20 -70 -2 -20 -2 -19 35 1 35 2
236 12 236 12 46 -7 45 -7 12 -14 11 -14 -17 -33 -17 -33 -10 -7 -10 -6 -5
-55 -4 -55 12 -36 11 -36 32 -36 32 -36 37 -19 37 -19 66 0 66 0 72 11 72 11
28 14 27 15 0 9 0 10 -25 22 -25 22 0 22 0 22 6 17 6 16 39 19 38 20 148 35
148 35 72 34 71 34 10 19 10 18 -24 60 -25 60 -19 75 -19 75 -26 145 -26 145
-20 42 -20 41 -14 12 -14 12 -38 0 -37 0 -16 -19 -15 -19 -16 -6 -16 -6 -40
18 -41 18 -27 47 -28 46 5 72 5 72 17 42 18 42 30 10 31 11 56 -27 56 -26 77
-5 77 -4 34 21 35 21 17 36 17 36 9 66 10 67 -7 193 -7 192 -787 0 -788 0 -7
-216z"/>
</g>
</svg>
