<?xml version="1.0" standalone="no"?>
<!DOCTYPE svg PUBLIC "-//W3C//DTD SVG 20010904//EN"
 "http://www.w3.org/TR/2001/REC-SVG-20010904/DTD/svg10.dtd">
<svg version="1.0" xmlns="http://www.w3.org/2000/svg"
 width="179.000000pt" height="171.000000pt" viewBox="0 0 179.000000 171.000000"
 preserveAspectRatio="xMidYMid meet">
<metadata>
Created by potrace 1.16, written by Peter Selinger 2001-2019
</metadata>
<g transform="translate(0.000000,171.000000) scale(0.100000,-0.100000)"
fill="#000000" stroke="none">
<path d="M1165 1703 l-20 -4 -28 -11 -29 -11 -9 -24 -9 -24 7 -27 6 -27 20
-27 19 -26 -4 -65 -4 -65 -30 -58 -29 -58 -43 -33 -44 -33 -29 0 -30 0 -28 15
-29 14 -26 31 -25 31 -12 42 -11 42 4 46 5 46 22 46 22 46 -3 28 -3 28 -40 14
-40 13 -240 -8 -240 -9 -62 1 -62 0 -6 -14 -5 -14 -11 -166 -10 -167 6 -60 6
-60 11 -43 11 -44 24 -15 23 -16 35 6 35 6 27 20 26 21 34 0 34 0 41 -21 40
-21 24 -26 25 -27 20 -39 21 -39 5 -52 6 -52 -13 -37 -12 -37 -25 -30 -26 -30
-41 -22 -41 -22 -85 1 -85 1 -59 22 -59 21 -30 0 -30 0 -23 -25 -23 -25 -7
-36 -7 -37 6 -78 6 -78 21 -80 20 -80 36 -100 36 -101 12 0 11 0 255 -20 255
-20 78 0 78 0 6 16 6 15 -22 72 -21 72 0 41 0 40 15 51 15 50 22 33 23 34 32
19 33 19 30 -7 31 -7 35 -34 34 -35 20 -40 21 -40 6 -49 6 -48 -22 -18 -21
-18 -6 -33 -6 -33 6 -25 6 -25 32 -16 31 -16 68 -9 67 -8 133 9 134 10 106 6
106 7 24 141 24 141 0 150 0 151 -18 27 -17 27 -48 0 -47 0 -54 -21 -54 -20
-48 -1 -48 0 -28 17 -29 17 -21 31 -22 32 -12 47 -11 48 6 35 7 35 31 36 31
35 41 21 40 21 63 5 62 5 54 -27 54 -26 16 0 16 0 7 23 8 22 -1 110 -1 110
-12 185 -11 185 -4 20 -4 20 -143 28 -143 27 -75 10 -75 9 -55 0 -55 -1 -20
-5z"/>
</g>
</svg>
