<?xml version="1.0" standalone="no"?>
<!DOCTYPE svg PUBLIC "-//W3C//DTD SVG 20010904//EN"
 "http://www.w3.org/TR/2001/REC-SVG-20010904/DTD/svg10.dtd">
<svg version="1.0" xmlns="http://www.w3.org/2000/svg"
 width="177.000000pt" height="169.000000pt" viewBox="0 0 177.000000 169.000000"
 preserveAspectRatio="xMidYMid meet">
<metadata>
Created by potrace 1.16, written by Peter Selinger 2001-2019
</metadata>
<g transform="translate(0.000000,169.000000) scale(0.100000,-0.100000)"
fill="#000000" stroke="none">
<path d="M1155 1681 l-30 -8 -22 -12 -23 -12 -1 -17 -1 -17 2 -19 2 -19 20
-28 20 -27 -3 -74 -4 -75 -30 -59 -30 -58 -43 -33 -44 -33 -39 0 -40 0 -28 15
-29 14 -26 31 -25 31 -12 42 -11 42 4 55 4 55 23 47 23 48 -4 17 -3 18 -35 13
-35 12 -235 -7 -235 -7 -60 -1 -60 0 -7 -11 -8 -12 -10 -163 -11 -164 6 -55 6
-55 11 -43 11 -44 23 -15 24 -15 27 7 26 6 25 20 25 19 44 0 44 0 41 -21 40
-21 24 -26 25 -27 21 -40 21 -39 5 -62 5 -61 -13 -37 -12 -37 -25 -30 -26 -30
-41 -22 -41 -22 -95 1 -95 1 -59 21 -59 22 -20 0 -20 0 -23 -25 -23 -25 -7
-36 -7 -36 7 -71 6 -70 20 -78 20 -78 36 -100 36 -101 12 0 11 0 255 -20 255
-20 67 0 67 0 6 10 6 10 -21 66 -20 66 0 52 0 52 15 51 15 50 23 34 23 34 35
19 35 19 37 -7 37 -7 35 -35 35 -35 21 -41 21 -42 5 -56 5 -57 -20 -19 -20
-19 -7 -27 -7 -27 7 -21 7 -22 46 -21 47 -20 126 1 125 1 100 10 99 11 56 2
56 2 24 141 24 140 0 140 0 141 -18 27 -17 27 -38 0 -37 0 -55 -21 -55 -21
-56 -1 -56 0 -29 17 -30 18 -22 32 -22 33 -12 54 -11 54 7 38 7 37 31 36 31
35 41 21 41 21 72 5 72 5 57 -28 56 -28 9 14 9 14 2 40 1 40 -1 70 -2 70 -11
185 -10 185 -4 20 -4 20 -143 28 -143 27 -75 10 -75 9 -45 0 -45 -1 -30 -7z"/>
</g>
</svg>
