<?xml version="1.0" standalone="no"?>
<!DOCTYPE svg PUBLIC "-//W3C//DTD SVG 20010904//EN"
 "http://www.w3.org/TR/2001/REC-SVG-20010904/DTD/svg10.dtd">
<svg version="1.0" xmlns="http://www.w3.org/2000/svg"
 width="248.000000pt" height="258.000000pt" viewBox="0 0 248.000000 258.000000"
 preserveAspectRatio="xMidYMid meet">
<metadata>
Created by potrace 1.16, written by Peter Selinger 2001-2019
</metadata>
<g transform="translate(0.000000,258.000000) scale(0.100000,-0.100000)"
fill="#000000" stroke="none">
<path d="M1193 2567 l-22 -12 -26 -35 -25 -34 -21 -55 -21 -56 -5 -81 -6 -81
13 -39 13 -39 21 -28 21 -29 -20 -15 -20 -15 -205 8 -205 8 -120 1 -120 0 -5
-205 -5 -205 -21 -45 -21 -45 -27 -25 -28 -25 -51 0 -52 0 -52 23 -52 22 -39
0 -39 0 -15 -17 -16 -18 -11 -40 -11 -40 0 -103 0 -103 16 -32 17 -32 21 -20
21 -21 27 -17 28 -17 44 -6 45 -7 45 27 45 26 20 0 21 0 19 -19 20 -20 11 -38
11 -38 9 -264 10 -264 2 -1 3 -2 221 9 221 9 55 -11 55 -12 23 -24 23 -24 -6
-40 -5 -40 -26 -55 -26 -55 0 -38 0 -38 19 -40 18 -40 24 -22 24 -21 42 -22
43 -22 60 -5 61 -6 43 45 42 45 23 71 23 71 -6 36 -7 35 -20 11 -20 10 3 37 3
36 31 18 31 18 49 9 49 9 160 12 160 11 80 10 80 10 21 5 21 6 -8 36 -9 37
-15 153 -15 152 0 50 0 49 11 50 11 51 26 20 26 21 23 -6 24 -6 20 -20 21 -21
72 4 71 5 52 26 52 27 35 36 36 37 11 38 12 37 -7 34 -6 33 -19 31 -19 31 -49
24 -48 24 -80 -1 -80 -1 -55 -22 -55 -21 -13 0 -13 0 -15 37 -16 36 -5 106 -6
106 12 183 12 184 -5 5 -5 6 -23 -15 -23 -15 -90 -36 -90 -36 -80 -20 -80 -20
-67 -7 -68 -7 -45 13 -46 13 -9 18 -10 18 0 29 0 29 22 28 21 27 5 50 5 50
-13 72 -12 71 -24 63 -23 62 -31 45 -31 45 -29 15 -29 15 -13 0 -13 -1 -22
-12z"/>
</g>
</svg>
