<?xml version="1.0" standalone="no"?>
<!DOCTYPE svg PUBLIC "-//W3C//DTD SVG 20010904//EN"
 "http://www.w3.org/TR/2001/REC-SVG-20010904/DTD/svg10.dtd">
<svg version="1.0" xmlns="http://www.w3.org/2000/svg"
 width="249.000000pt" height="203.000000pt" viewBox="0 0 249.000000 203.000000"
 preserveAspectRatio="xMidYMid meet">
<metadata>
Created by potrace 1.16, written by Peter Selinger 2001-2019
</metadata>
<g transform="translate(0.000000,203.000000) scale(0.100000,-0.100000)"
fill="#000000" stroke="none">
<path d="M675 2014 l-160 -14 -54 -6 -54 -6 7 -131 8 -132 7 -137 7 -137 -6
-51 -6 -50 -7 -6 -6 -6 -56 27 -56 28 -72 -5 -72 -5 -41 -21 -41 -21 -31 -35
-31 -36 -7 -37 -7 -38 11 -54 12 -54 22 -33 22 -32 30 -18 29 -17 56 0 56 1
55 21 55 21 37 0 38 0 17 -27 18 -27 -1 -151 0 -150 -22 -117 -22 -117 0 -10
0 -10 233 2 232 2 42 -13 42 -13 31 -25 30 -26 0 -39 0 -40 -26 -61 -26 -62 6
-34 5 -34 13 -16 13 -15 44 -20 44 -19 81 0 81 0 26 10 26 10 31 29 31 28 15
37 16 37 0 59 0 59 -21 79 -21 79 -5 27 -5 27 33 20 34 21 80 0 80 0 93 -20
94 -20 105 -35 105 -35 8 0 7 0 -7 43 -8 42 -12 149 -12 149 7 56 7 56 15 33
15 32 24 6 23 6 57 -22 58 -21 62 -6 63 -6 48 13 47 14 41 41 41 41 15 49 14
50 -1 75 0 75 -23 50 -22 50 -36 33 -36 34 -24 9 -24 9 -40 0 -40 0 -56 -26
-56 -27 -43 -5 -43 -4 -29 29 -30 29 -7 53 -7 54 7 197 7 197 -8 6 -9 5 -255
-7 -255 -8 -47 -21 -47 -21 -6 -23 -6 -24 25 -76 26 -77 0 -48 0 -48 -19 -35
-18 -35 -42 -30 -43 -30 -82 0 -82 0 -42 28 -42 27 -25 38 -24 37 -17 65 -16
65 5 75 5 75 19 58 20 57 -81 -1 -81 -2 -160 -13z"/>
</g>
</svg>
