<?xml version="1.0" standalone="no"?>
<!DOCTYPE svg PUBLIC "-//W3C//DTD SVG 20010904//EN"
 "http://www.w3.org/TR/2001/REC-SVG-20010904/DTD/svg10.dtd">
<svg version="1.0" xmlns="http://www.w3.org/2000/svg"
 width="200.000000pt" height="254.000000pt" viewBox="0 0 200.000000 254.000000"
 preserveAspectRatio="xMidYMid meet">
<metadata>
Created by potrace 1.16, written by Peter Selinger 2001-2019
</metadata>
<g transform="translate(0.000000,254.000000) scale(0.100000,-0.100000)"
fill="#000000" stroke="none">
<path d="M645 2520 l-60 -19 -17 -22 -18 -21 0 -30 0 -30 21 -30 22 -30 4 -67
4 -66 -18 -35 -18 -35 -50 -25 -50 -25 -205 -3 -205 -2 -22 -5 -23 -5 0 -198
0 -197 11 -45 10 -44 16 -33 15 -33 33 -20 32 -20 46 -6 45 -6 66 11 66 12 35
20 34 21 20 -7 19 -6 18 -37 18 -37 4 -86 4 -87 -11 -35 -12 -36 -55 -50 -54
-50 -55 -20 -56 -21 -39 0 -39 0 -11 20 -11 20 -49 0 -49 0 -20 -21 -20 -22
-12 -56 -12 -56 8 -219 7 -219 5 -14 6 -14 26 6 26 5 200 2 200 2 50 -20 50
-19 23 -35 24 -35 -7 -40 -6 -40 -21 -40 -21 -40 -1 -51 -1 -51 14 -26 14 -26
37 -25 37 -24 39 -11 39 -11 63 0 63 0 38 20 39 19 22 47 23 46 -6 68 -6 68
-22 52 -22 51 11 23 10 24 49 16 48 17 270 15 269 15 8 12 8 12 -5 33 -6 32
-19 133 -20 132 0 98 0 98 13 32 14 32 17 14 17 14 77 -24 77 -24 72 0 72 0
29 28 30 29 12 43 12 44 -3 74 -4 74 -29 38 -29 37 -51 24 -51 24 -75 -1 -75
0 -35 -13 -35 -13 -17 -8 -18 -7 0 68 1 69 9 95 9 95 7 151 7 151 -19 7 -18 7
-221 10 -220 9 -53 10 -53 10 -30 17 -29 17 -6 18 -5 18 7 22 7 23 20 27 20
26 -5 55 -4 54 -29 46 -29 46 -42 20 -41 21 -79 -1 -79 0 -60 -19z"/>
</g>
</svg>
