<?xml version="1.0" standalone="no"?>
<!DOCTYPE svg PUBLIC "-//W3C//DTD SVG 20010904//EN"
 "http://www.w3.org/TR/2001/REC-SVG-20010904/DTD/svg10.dtd">
<svg version="1.0" xmlns="http://www.w3.org/2000/svg"
 width="198.000000pt" height="252.000000pt" viewBox="0 0 198.000000 252.000000"
 preserveAspectRatio="xMidYMid meet">
<metadata>
Created by potrace 1.16, written by Peter Selinger 2001-2019
</metadata>
<g transform="translate(0.000000,252.000000) scale(0.100000,-0.100000)"
fill="#000000" stroke="none">
<path d="M645 2500 l-60 -19 -17 -22 -18 -21 0 -20 0 -20 22 -30 21 -31 4 -76
4 -76 -18 -35 -18 -35 -50 -25 -50 -25 -205 -3 -205 -2 -23 -6 -24 -5 5 -212
4 -212 14 -39 13 -39 29 -28 28 -29 42 -11 42 -11 70 10 70 11 40 22 41 22 26
-6 26 -7 18 -37 18 -38 4 -96 4 -97 -12 -36 -11 -35 -55 -50 -54 -50 -56 -21
-57 -21 -45 -1 -46 -1 -14 22 -14 21 -39 0 -38 0 -20 -21 -20 -22 -12 -56 -12
-56 8 -209 7 -209 4 -11 4 -11 172 8 172 7 71 -9 70 -9 37 -15 38 -16 20 -33
21 -33 -5 -49 -5 -49 -22 -41 -22 -41 -1 -41 -1 -41 14 -26 14 -26 37 -25 37
-24 39 -11 39 -11 53 0 53 0 38 20 39 19 22 47 23 46 -7 60 -6 60 -20 45 -20
46 0 21 0 22 13 17 12 16 45 16 45 16 270 15 269 15 8 12 8 12 -5 15 -4 15
-22 148 -21 147 4 114 3 115 21 28 21 28 22 3 22 3 67 -22 67 -23 67 -1 67 0
29 28 30 29 12 43 12 44 -4 64 -4 65 -28 37 -29 37 -55 25 -54 25 -78 -4 -77
-5 -38 -21 -37 -22 -9 5 -9 6 0 77 1 77 9 95 9 95 7 141 7 141 -19 7 -18 7
-221 10 -220 9 -53 10 -53 10 -30 17 -30 18 -5 22 -6 23 6 26 7 26 21 28 21
29 -5 45 -5 45 -29 45 -28 45 -42 20 -41 21 -69 -1 -69 0 -60 -19z"/>
</g>
</svg>
