<?xml version="1.0" standalone="no"?>
<!DOCTYPE svg PUBLIC "-//W3C//DTD SVG 20010904//EN"
 "http://www.w3.org/TR/2001/REC-SVG-20010904/DTD/svg10.dtd">
<svg version="1.0" xmlns="http://www.w3.org/2000/svg"
 width="205.000000pt" height="210.000000pt" viewBox="0 0 205.000000 210.000000"
 preserveAspectRatio="xMidYMid meet">
<metadata>
Created by potrace 1.16, written by Peter Selinger 2001-2019
</metadata>
<g transform="translate(0.000000,210.000000) scale(0.100000,-0.100000)"
fill="#000000" stroke="none">
<path d="M488 2093 l-46 -4 1 -222 2 -222 -18 -59 -18 -59 -16 -24 -16 -24
-28 -15 -28 -14 -43 0 -43 0 -53 25 -54 25 -28 0 -27 0 -26 -25 -25 -25 -11
-45 -11 -44 0 -51 0 -51 19 -37 19 -37 24 -22 23 -22 60 -27 60 -28 85 0 85
-1 62 24 63 23 24 -6 23 -6 11 -27 10 -28 6 -27 6 -27 -10 -73 -10 -73 -20
-78 -21 -79 -34 -86 -35 -86 0 -18 0 -17 218 2 217 2 62 -19 63 -19 25 -22 24
-23 7 -26 6 -25 -26 -78 -26 -78 0 -56 0 -56 23 -34 22 -34 35 -18 35 -18 110
3 110 3 32 19 31 19 11 24 11 24 0 26 0 26 -26 44 -26 45 6 22 5 22 40 22 40
23 148 34 148 34 35 11 35 10 93 37 92 38 5 16 6 17 -15 38 -16 39 -14 58 -15
57 -21 148 -21 147 -11 40 -10 40 -24 33 -25 32 -45 0 -45 0 -22 -24 -23 -24
-17 9 -17 10 -25 43 -25 43 -9 50 -10 50 10 68 9 68 21 37 22 38 22 12 22 12
59 -28 59 -28 56 -4 56 -4 26 17 26 17 10 31 11 32 2 85 3 85 -2 173 -3 172
-11 0 -10 0 -92 -45 -92 -45 -177 -44 -176 -44 -24 -12 -23 -13 -17 -15 -18
-15 0 -34 0 -34 26 -45 26 -45 -12 -30 -13 -30 -41 -28 -41 -29 -40 -11 -40
-11 -45 0 -45 0 -36 10 -36 10 -19 21 -19 21 2 42 1 41 21 52 20 51 7 50 6 50
-12 38 -12 39 -25 27 -25 27 -48 20 -48 21 -69 10 -68 10 -140 -2 -140 -2 -47
-3z"/>
</g>
</svg>
