<?xml version="1.0" standalone="no"?>
<!DOCTYPE svg PUBLIC "-//W3C//DTD SVG 20010904//EN"
 "http://www.w3.org/TR/2001/REC-SVG-20010904/DTD/svg10.dtd">
<svg version="1.0" xmlns="http://www.w3.org/2000/svg"
 width="203.000000pt" height="208.000000pt" viewBox="0 0 203.000000 208.000000"
 preserveAspectRatio="xMidYMid meet">
<metadata>
Created by potrace 1.16, written by Peter Selinger 2001-2019
</metadata>
<g transform="translate(0.000000,208.000000) scale(0.100000,-0.100000)"
fill="#000000" stroke="none">
<path d="M489 2073 l-46 -4 1 -222 1 -222 -18 -59 -18 -59 -16 -24 -16 -24
-28 -15 -28 -14 -53 0 -53 0 -53 25 -54 25 -18 0 -17 0 -26 -25 -25 -25 -11
-45 -11 -44 0 -41 0 -41 19 -37 19 -37 24 -22 23 -22 54 -25 54 -25 61 -6 61
-6 50 15 50 15 41 12 40 12 26 -6 25 -7 11 -27 11 -28 6 -32 6 -31 -11 -81
-11 -81 -20 -76 -20 -77 -35 -85 -34 -86 0 -7 0 -8 218 2 217 2 45 -13 45 -14
33 -15 33 -16 14 -28 15 -28 0 -24 0 -23 -25 -74 -25 -74 0 -46 0 -47 23 -34
22 -34 35 -17 35 -18 80 0 80 0 36 10 35 10 22 20 22 21 7 27 6 27 -26 47 -27
48 0 24 0 25 16 16 16 15 30 16 29 15 150 34 149 35 60 20 60 20 52 23 53 24
8 -1 8 -1 9 14 8 15 -14 35 -14 36 -14 58 -15 57 -21 148 -21 147 -11 40 -10
40 -24 33 -25 32 -35 0 -35 0 -25 -27 -24 -26 -24 11 -25 11 -25 44 -26 44
-10 54 -10 54 10 73 10 73 15 29 15 29 22 21 22 20 19 0 18 0 57 -27 56 -26
47 -5 46 -4 26 17 26 17 12 36 13 37 -3 240 -2 239 -2 2 -2 2 -90 -44 -90 -44
-177 -44 -176 -44 -24 -12 -23 -13 -17 -15 -18 -15 0 -24 0 -23 27 -48 26 -47
-7 -29 -7 -29 -29 -27 -29 -27 -38 -19 -38 -19 -97 0 -97 0 -28 21 -28 21 -8
30 -9 30 17 59 16 59 16 55 16 55 -12 45 -12 45 -26 27 -25 27 -48 20 -48 21
-69 10 -68 10 -130 -2 -130 -2 -46 -3z"/>
</g>
</svg>
