<?xml version="1.0" standalone="no"?>
<!DOCTYPE svg PUBLIC "-//W3C//DTD SVG 20010904//EN"
 "http://www.w3.org/TR/2001/REC-SVG-20010904/DTD/svg10.dtd">
<svg version="1.0" xmlns="http://www.w3.org/2000/svg"
 width="185.000000pt" height="244.000000pt" viewBox="0 0 185.000000 244.000000"
 preserveAspectRatio="xMidYMid meet">
<metadata>
Created by potrace 1.16, written by Peter Selinger 2001-2019
</metadata>
<g transform="translate(0.000000,244.000000) scale(0.100000,-0.100000)"
fill="#000000" stroke="none">
<path d="M845 2427 l-30 -14 -32 -36 -32 -37 -12 -42 -11 -43 6 -42 6 -43 23
-56 24 -57 -4 -18 -5 -18 -27 -18 -26 -18 -290 2 -290 1 -7 -11 -8 -12 0 -169
0 -169 11 -64 11 -63 22 -32 21 -31 26 -19 26 -19 41 -6 41 -5 55 7 56 6 30
25 29 25 19 -10 19 -10 14 -33 14 -33 0 -102 0 -101 -24 -26 -25 -26 -40 -24
-41 -23 -55 -18 -55 -18 -75 -1 -75 -1 -36 23 -36 22 -31 0 -31 0 -17 -32 -17
-33 1 -75 1 -76 20 -93 21 -94 38 -113 39 -113 -11 -5 -11 -4 12 -9 11 -8 169
8 168 8 105 -5 105 -6 39 -11 39 -11 29 -28 28 -28 0 -37 0 -36 -25 -55 -25
-55 0 -42 0 -43 16 -23 17 -23 33 -14 33 -14 54 0 54 0 41 30 42 30 25 38 25
38 22 60 21 59 4 75 4 75 -15 25 -15 25 -11 24 -11 24 6 18 6 19 32 16 31 17
81 -6 80 -6 90 -26 90 -26 98 -46 97 -46 4 4 3 4 41 105 40 105 16 65 16 65
10 78 11 78 -6 32 -6 32 -11 28 -11 27 -25 7 -26 6 -40 -12 -41 -12 -50 -15
-50 -15 -61 6 -61 6 -54 25 -54 25 -23 22 -24 22 -19 37 -19 37 0 41 0 41 11
44 11 45 25 25 26 25 17 0 18 0 54 -25 53 -25 53 0 53 0 28 14 28 15 16 24 16
24 18 59 18 59 -1 219 -1 218 -14 9 -14 9 -70 15 -70 15 -175 20 -175 20 -48
16 -48 16 -16 24 -16 24 6 35 6 35 20 27 21 26 0 27 0 27 -22 33 -23 33 -40
21 -40 20 -60 3 -60 3 -30 -13z"/>
</g>
</svg>
