<?xml version="1.0" standalone="no"?>
<!DOCTYPE svg PUBLIC "-//W3C//DTD SVG 20010904//EN"
 "http://www.w3.org/TR/2001/REC-SVG-20010904/DTD/svg10.dtd">
<svg version="1.0" xmlns="http://www.w3.org/2000/svg"
 width="212.000000pt" height="202.000000pt" viewBox="0 0 212.000000 202.000000"
 preserveAspectRatio="xMidYMid meet">
<metadata>
Created by potrace 1.16, written by Peter Selinger 2001-2019
</metadata>
<g transform="translate(0.000000,202.000000) scale(0.100000,-0.100000)"
fill="#000000" stroke="none">
<path d="M645 2005 l-40 -14 -22 -26 -23 -26 0 -50 0 -51 32 -94 32 -94 -18
-19 -18 -20 -35 -12 -35 -11 -239 7 -239 8 0 -9 0 -9 -20 -220 -20 -220 0 -77
0 -78 19 0 19 0 43 20 44 20 31 0 30 0 51 -15 50 -15 45 -35 46 -34 21 -44 21
-43 0 -86 0 -85 -10 -53 -10 -53 -6 -6 -5 -5 -8 12 -7 12 -34 10 -33 10 -25
-7 -25 -6 -19 -16 -19 -16 -24 -80 -24 -80 -21 -95 -22 -95 -40 -83 -39 -84 5
-13 5 -13 68 -8 67 -7 106 6 105 7 59 15 59 15 40 28 40 27 21 28 21 28 0 99
0 99 -19 14 -20 14 25 14 24 13 134 4 134 4 52 -11 52 -12 22 -20 21 -20 0
-25 0 -25 -20 -39 -20 -39 0 -45 0 -45 28 -19 27 -20 40 -11 40 -11 160 -16
160 -15 63 -15 63 -14 11 0 11 0 -8 219 -7 218 11 55 12 55 20 22 20 21 28 0
29 0 14 -22 15 -22 54 1 54 1 57 22 57 21 52 47 52 46 13 33 14 32 0 91 0 91
-11 44 -11 43 -19 21 -20 21 -32 0 -32 0 -32 -20 -32 -19 -64 -11 -64 -12 -41
11 -41 11 -28 29 -29 28 -13 39 -14 39 -4 219 -5 218 -21 -5 -22 -5 -135 -31
-135 -30 -90 -11 -90 -11 -57 6 -58 7 -25 20 -25 19 0 20 0 19 26 77 26 78 -5
62 -5 63 -23 47 -24 48 -34 22 -34 23 -106 0 -106 -1 -40 -14z"/>
</g>
</svg>
