<?xml version="1.0" standalone="no"?>
<!DOCTYPE svg PUBLIC "-//W3C//DTD SVG 20010904//EN"
 "http://www.w3.org/TR/2001/REC-SVG-20010904/DTD/svg10.dtd">
<svg version="1.0" xmlns="http://www.w3.org/2000/svg"
 width="210.000000pt" height="200.000000pt" viewBox="0 0 210.000000 200.000000"
 preserveAspectRatio="xMidYMid meet">
<metadata>
Created by potrace 1.16, written by Peter Selinger 2001-2019
</metadata>
<g transform="translate(0.000000,200.000000) scale(0.100000,-0.100000)"
fill="#000000" stroke="none">
<path d="M645 1985 l-40 -14 -22 -26 -23 -26 0 -41 0 -41 31 -89 30 -89 -3
-21 -3 -21 -28 -21 -29 -21 -259 3 -259 3 0 -8 0 -8 -20 -220 -20 -220 0 -67
0 -68 9 0 9 0 43 20 44 20 41 0 40 0 51 -15 50 -15 45 -35 46 -34 21 -44 21
-43 0 -96 0 -95 -10 -54 -10 -53 -10 -10 -10 -10 -20 22 -21 22 -22 1 -22 1
-18 -2 -19 -2 -19 -16 -20 -17 -24 -80 -24 -80 -22 -98 -22 -98 -38 -77 -38
-77 10 -10 10 -10 152 0 152 1 64 17 63 17 41 28 40 27 21 28 21 28 0 89 0 88
-24 19 -25 20 29 19 29 19 176 0 175 0 36 -18 36 -18 11 -24 11 -24 -8 -28 -9
-29 -16 -32 -16 -31 0 -35 0 -35 28 -19 27 -20 40 -11 40 -11 155 -15 155 -15
55 -11 54 -11 14 -6 14 -5 -7 219 -7 219 11 56 12 56 20 22 20 21 38 0 39 0
14 -21 14 -22 46 1 45 1 57 21 56 21 54 50 55 50 11 35 12 36 -4 97 -4 96 -18
38 -18 37 -26 7 -26 6 -41 -22 -40 -22 -70 -11 -70 -10 -42 11 -42 11 -28 29
-29 28 -13 39 -14 39 -4 218 -5 218 -16 -6 -17 -7 -130 -28 -130 -29 -94 -12
-95 -11 -62 7 -63 7 -26 19 -25 20 0 30 0 29 26 77 26 78 -5 53 -6 54 -23 46
-23 47 -34 22 -34 23 -96 0 -96 -1 -40 -14z"/>
</g>
</svg>
