<?xml version="1.0" standalone="no"?>
<!DOCTYPE svg PUBLIC "-//W3C//DTD SVG 20010904//EN"
 "http://www.w3.org/TR/2001/REC-SVG-20010904/DTD/svg10.dtd">
<svg version="1.0" xmlns="http://www.w3.org/2000/svg"
 width="161.000000pt" height="198.000000pt" viewBox="0 0 161.000000 198.000000"
 preserveAspectRatio="xMidYMid meet">
<metadata>
Created by potrace 1.16, written by Peter Selinger 2001-2019
</metadata>
<g transform="translate(0.000000,198.000000) scale(0.100000,-0.100000)"
fill="#000000" stroke="none">
<path d="M670 1971 l-36 -7 -12 -8 -12 -7 0 -16 0 -16 20 -33 21 -33 6 -49 5
-49 -19 -45 -20 -45 -46 -26 -45 -27 -64 -15 -63 -15 -182 0 -181 0 -9 -107
-8 -108 0 -185 0 -185 17 -37 17 -38 13 0 13 0 55 21 55 22 80 1 80 1 48 -24
49 -24 19 -31 19 -31 6 -33 7 -34 -12 -37 -11 -38 -36 -37 -35 -36 -52 -27
-52 -26 -71 -5 -72 -4 -21 21 -20 20 -24 6 -23 6 -26 -21 -27 -20 -12 -58 -12
-57 7 -100 6 -100 15 -124 14 -124 11 -11 10 -10 222 0 223 -1 41 12 41 13 40
29 41 29 11 49 12 48 -11 54 -10 55 -21 22 -21 23 6 24 6 24 25 26 26 26 46
15 47 16 28 0 29 0 32 -14 32 -13 33 -37 32 -37 0 -20 0 -21 -25 -30 -25 -30
0 -29 0 -29 21 -21 21 -21 33 -14 34 -14 178 -30 178 -30 73 -21 72 -20 34
-14 34 -14 6 15 6 16 0 763 0 764 -17 10 -18 9 -249 7 -249 8 -51 11 -51 12
-23 19 -22 19 0 34 0 33 26 51 26 51 -6 31 -6 31 -30 32 -30 32 -38 10 -37 11
-65 -1 -65 -1 -35 -7z"/>
</g>
</svg>
