<?xml version="1.0" standalone="no"?>
<!DOCTYPE svg PUBLIC "-//W3C//DTD SVG 20010904//EN"
 "http://www.w3.org/TR/2001/REC-SVG-20010904/DTD/svg10.dtd">
<svg version="1.0" xmlns="http://www.w3.org/2000/svg"
 width="195.000000pt" height="219.000000pt" viewBox="0 0 195.000000 219.000000"
 preserveAspectRatio="xMidYMid meet">
<metadata>
Created by potrace 1.16, written by Peter Selinger 2001-2019
</metadata>
<g transform="translate(0.000000,219.000000) scale(0.100000,-0.100000)"
fill="#000000" stroke="none">
<path d="M1032 2178 l-22 -11 -7 -25 -6 -25 24 -66 23 -66 -1 -80 0 -80 -18
-49 -17 -49 -25 -38 -25 -38 -51 -33 -52 -33 -65 0 -65 0 -46 27 -45 27 -27
38 -26 38 -23 50 -23 50 0 92 0 91 23 31 22 30 0 12 0 12 -122 -6 -123 -6
-155 -11 -155 -11 -13 -4 -12 -4 2 -778 3 -778 206 4 206 4 51 -12 50 -13 17
-18 17 -19 -5 -28 -6 -28 -21 -75 -21 -75 4 -58 5 -58 16 -24 16 -24 47 -28
48 -28 101 -3 102 -4 45 27 46 26 27 55 27 55 -6 53 -5 53 -21 39 -21 39 0 21
0 21 23 20 22 21 40 11 40 12 235 10 235 10 30 3 30 3 1 14 0 14 36 75 36 75
22 95 21 95 24 80 24 80 20 17 19 16 19 2 18 2 22 -1 22 -1 21 -22 20 -22 10
10 10 10 10 53 10 54 0 95 0 96 -21 43 -21 44 -46 34 -45 35 -50 15 -51 15
-40 0 -41 0 -44 -20 -43 -20 -9 0 -9 0 0 68 0 67 20 220 20 220 0 12 0 12 -57
26 -58 27 -105 35 -105 36 -95 3 -95 4 -23 -12z"/>
</g>
</svg>
