<?xml version="1.0" standalone="no"?>
<!DOCTYPE svg PUBLIC "-//W3C//DTD SVG 20010904//EN"
 "http://www.w3.org/TR/2001/REC-SVG-20010904/DTD/svg10.dtd">
<svg version="1.0" xmlns="http://www.w3.org/2000/svg"
 width="254.000000pt" height="159.000000pt" viewBox="0 0 254.000000 159.000000"
 preserveAspectRatio="xMidYMid meet">
<metadata>
Created by potrace 1.16, written by Peter Selinger 2001-2019
</metadata>
<g transform="translate(0.000000,159.000000) scale(0.100000,-0.100000)"
fill="#000000" stroke="none">
<path d="M486 1338 l6 -253 -19 -35 -18 -35 -50 1 -50 2 -75 22 -75 21 -62 2
-62 2 -28 -21 -28 -21 -13 -39 -13 -39 3 -100 3 -100 23 -32 22 -31 46 -31 47
-31 56 -21 56 -22 78 -5 78 -5 30 22 29 21 28 6 29 6 29 -25 29 -25 4 -86 3
-85 -17 -83 -16 -83 -36 -108 -36 -108 5 -4 4 -5 230 -6 229 -6 59 11 59 11
33 25 34 26 0 49 0 48 -25 30 -25 30 0 24 0 25 23 33 22 34 35 20 35 21 70 0
70 -1 55 -26 55 -25 28 -28 27 -28 0 -21 0 -21 -20 -13 -20 -12 0 -39 0 -38
18 -16 18 -16 37 -16 36 -15 168 -16 168 -15 62 -13 62 -12 5 13 6 14 -20 72
-20 72 -20 100 -21 100 -6 90 -6 91 21 47 21 47 29 0 29 0 44 -19 44 -19 55
-7 55 -6 74 15 73 15 50 33 51 32 18 30 19 31 0 53 0 53 -15 37 -16 37 -22 23
-22 24 -45 26 -45 27 -80 0 -80 0 -68 -24 -67 -25 -18 18 -17 17 2 279 2 280
-784 0 -785 0 6 -252z"/>
</g>
</svg>
