<?xml version="1.0" standalone="no"?>
<!DOCTYPE svg PUBLIC "-//W3C//DTD SVG 20010904//EN"
 "http://www.w3.org/TR/2001/REC-SVG-20010904/DTD/svg10.dtd">
<svg version="1.0" xmlns="http://www.w3.org/2000/svg"
 width="255.000000pt" height="178.000000pt" viewBox="0 0 255.000000 178.000000"
 preserveAspectRatio="xMidYMid meet">
<metadata>
Created by potrace 1.16, written by Peter Selinger 2001-2019
</metadata>
<g transform="translate(0.000000,178.000000) scale(0.100000,-0.100000)"
fill="#000000" stroke="none">
<path d="M1590 1767 l-44 -12 -15 -26 -15 -26 24 -79 23 -79 4 -65 4 -65 -19
-35 -19 -35 -44 -24 -43 -25 -82 -4 -81 -4 -38 12 -37 12 -35 31 -36 32 -18
40 -19 40 0 55 0 55 20 44 20 43 0 19 0 19 -26 10 -25 10 -97 0 -97 0 -184
-12 -184 -12 6 -118 6 -117 12 -144 12 -144 -6 -15 -6 -16 -43 21 -43 22 -115
0 -115 0 -65 -31 -65 -32 -26 -25 -26 -25 -24 -49 -24 -48 1 -85 0 -85 22 -48
21 -48 37 -15 37 -16 36 7 35 7 38 19 37 19 25 0 25 0 24 -26 24 -26 11 -37
11 -36 31 -150 31 -150 26 -70 25 -70 7 -30 7 -30 164 -8 165 -7 107 2 107 3
28 21 28 21 3 31 3 31 -30 89 -31 89 0 32 0 33 28 28 29 28 39 11 39 11 81 0
81 0 34 -23 34 -22 22 -44 22 -44 7 -44 6 -44 -26 -83 -27 -83 3 -38 3 -38 28
-21 28 -21 127 1 127 1 155 33 155 33 31 5 31 4 32 53 32 53 18 48 19 49 26
120 27 120 15 46 15 46 20 21 20 22 24 0 25 0 12 -20 13 -20 31 0 31 0 16 18
15 17 16 56 17 56 1 94 1 94 -16 35 -16 35 -23 21 -23 21 -22 11 -22 12 -46 0
-46 0 -47 -25 -47 -25 -16 0 -15 0 -23 21 -23 22 -14 33 -14 32 -9 85 -10 85
5 128 5 129 3 52 4 52 -56 22 -57 21 -102 23 -103 23 -87 6 -88 6 -45 -13z"/>
</g>
</svg>
