<?xml version="1.0" standalone="no"?>
<!DOCTYPE svg PUBLIC "-//W3C//DTD SVG 20010904//EN"
 "http://www.w3.org/TR/2001/REC-SVG-20010904/DTD/svg10.dtd">
<svg version="1.0" xmlns="http://www.w3.org/2000/svg"
 width="253.000000pt" height="176.000000pt" viewBox="0 0 253.000000 176.000000"
 preserveAspectRatio="xMidYMid meet">
<metadata>
Created by potrace 1.16, written by Peter Selinger 2001-2019
</metadata>
<g transform="translate(0.000000,176.000000) scale(0.100000,-0.100000)"
fill="#000000" stroke="none">
<path d="M1592 1749 l-42 -10 -16 -24 -15 -23 21 -69 22 -68 5 -80 4 -80 -19
-35 -19 -35 -44 -25 -44 -24 -91 -4 -92 -4 -37 12 -37 12 -36 32 -35 31 -20
44 -19 43 0 58 0 57 22 52 23 52 -12 12 -12 12 -77 4 -77 4 -209 -13 -209 -13
7 -130 7 -129 10 -86 9 -87 0 -55 0 -55 -9 -14 -9 -14 -27 21 -26 21 -57 12
-56 11 -72 -4 -71 -5 -64 -30 -64 -31 -26 -25 -26 -25 -24 -49 -24 -48 1 -75
1 -75 21 -48 21 -48 36 -15 35 -14 28 6 27 7 37 18 37 19 35 0 35 0 25 -26 24
-27 15 -56 16 -56 16 -85 17 -85 19 -78 20 -78 24 -55 25 -55 -3 -12 -2 -12
165 -8 165 -8 97 3 97 3 28 21 28 21 3 21 3 21 -30 89 -31 89 0 42 0 43 28 28
29 28 39 11 39 11 91 0 91 0 34 -23 34 -22 23 -47 23 -46 6 -54 5 -53 -26 -78
-26 -77 0 -29 0 -30 25 -20 26 -19 63 -7 62 -7 95 11 94 12 135 30 135 31 15
1 15 2 33 50 32 49 19 51 19 50 26 120 27 120 15 46 15 46 20 21 20 22 34 0
35 0 12 -20 13 -20 21 0 21 0 16 18 15 17 16 55 16 56 1 84 1 85 -16 35 -15
35 -23 21 -23 21 -22 11 -22 12 -36 0 -36 0 -47 -25 -47 -25 -26 0 -25 0 -23
21 -23 22 -14 33 -14 33 -10 93 -9 93 7 173 7 172 -55 21 -55 21 -105 23 -105
24 -75 5 -75 5 -43 -10z"/>
</g>
</svg>
