<?xml version="1.0" standalone="no"?>
<!DOCTYPE svg PUBLIC "-//W3C//DTD SVG 20010904//EN"
 "http://www.w3.org/TR/2001/REC-SVG-20010904/DTD/svg10.dtd">
<svg version="1.0" xmlns="http://www.w3.org/2000/svg"
 width="208.000000pt" height="210.000000pt" viewBox="0 0 208.000000 210.000000"
 preserveAspectRatio="xMidYMid meet">
<metadata>
Created by potrace 1.16, written by Peter Selinger 2001-2019
</metadata>
<g transform="translate(0.000000,210.000000) scale(0.100000,-0.100000)"
fill="#000000" stroke="none">
<path d="M144 2093 l-102 -4 -6 -22 -6 -22 0 -80 -1 -80 -14 -180 -15 -180 0
-30 0 -30 10 -15 9 -14 23 12 23 11 83 17 84 16 69 -4 69 -4 31 -30 31 -31 5
-61 6 -60 -7 -36 -7 -36 -32 -37 -32 -36 -32 -13 -32 -14 -36 0 -36 0 -47 25
-47 25 -26 0 -26 0 -20 -22 -21 -23 -12 -45 -12 -45 7 -280 7 -280 2 -2 2 -2
60 9 59 10 190 15 190 15 41 0 40 0 -18 -73 -19 -72 4 -90 5 -90 18 -49 17
-50 43 -42 42 -43 44 -11 43 -12 68 5 69 4 40 29 41 29 18 35 19 35 0 58 0 58
-25 75 -25 75 10 18 9 19 43 17 43 18 245 7 245 7 18 -5 17 -4 0 21 0 22 21
41 21 42 18 52 18 53 37 163 37 163 19 37 19 37 21 12 21 11 24 -6 23 -6 11
-20 11 -20 27 0 27 1 23 19 23 19 21 48 22 48 0 85 0 85 -14 40 -13 40 -20 29
-20 28 -33 14 -33 14 -56 0 -56 0 -80 -26 -80 -27 -19 20 -19 21 -9 38 -10 39
-7 56 -6 56 11 172 11 173 -5 6 -6 5 -82 -40 -83 -41 -65 -21 -65 -21 -129
-30 -129 -30 -43 -19 -42 -19 -11 -20 -11 -21 0 -30 0 -30 26 -24 26 -25 -10
-6 -10 -6 -75 -11 -75 -11 -81 11 -81 11 -33 16 -32 16 -17 22 -18 21 0 33 0
33 25 59 25 59 0 31 0 31 -11 21 -11 20 -36 15 -37 16 -140 2 -140 2 -101 -4z"/>
</g>
</svg>
