<?xml version="1.0" standalone="no"?>
<!DOCTYPE svg PUBLIC "-//W3C//DTD SVG 20010904//EN"
 "http://www.w3.org/TR/2001/REC-SVG-20010904/DTD/svg10.dtd">
<svg version="1.0" xmlns="http://www.w3.org/2000/svg"
 width="206.000000pt" height="208.000000pt" viewBox="0 0 206.000000 208.000000"
 preserveAspectRatio="xMidYMid meet">
<metadata>
Created by potrace 1.16, written by Peter Selinger 2001-2019
</metadata>
<g transform="translate(0.000000,208.000000) scale(0.100000,-0.100000)"
fill="#000000" stroke="none">
<path d="M144 2073 l-102 -4 -6 -22 -6 -22 0 -75 0 -75 -15 -195 -16 -195 6
-23 6 -24 12 10 12 9 89 18 88 17 79 -4 79 -3 31 -32 32 -31 5 -70 5 -70 -7
-36 -7 -36 -32 -37 -32 -36 -32 -13 -32 -14 -46 0 -46 0 -47 25 -47 25 -16 0
-16 0 -20 -22 -21 -23 -12 -45 -13 -45 8 -255 8 -255 -1 -16 0 -15 51 8 52 8
190 15 190 15 56 0 56 0 -20 -57 -19 -58 -5 -75 -5 -75 16 -65 17 -65 24 -37
25 -38 42 -27 42 -28 82 0 82 0 43 30 42 30 18 35 19 35 0 48 0 48 -26 77 -25
76 6 24 6 23 47 21 47 21 253 7 253 8 3 3 4 4 27 55 28 55 18 52 17 52 37 163
37 163 19 37 19 37 19 11 20 10 26 0 26 0 23 -25 23 -25 14 0 14 1 23 19 23
19 21 48 21 48 0 75 0 75 -13 40 -13 40 -20 29 -20 28 -33 14 -33 14 -46 0
-46 0 -75 -25 -74 -25 -18 0 -18 0 -16 20 -17 19 -12 43 -13 43 0 130 0 130 8
99 7 98 -53 -30 -53 -30 -75 -27 -75 -27 -144 -34 -145 -35 -42 -18 -42 -19
-11 -20 -11 -21 0 -20 0 -20 26 -25 27 -24 -6 -15 -5 -14 -31 -6 -30 -6 -63
-7 -63 -6 -78 11 -78 11 -32 16 -32 16 -17 22 -18 21 0 43 0 43 25 59 25 59 0
21 0 21 -11 21 -11 20 -36 15 -37 16 -130 2 -130 2 -101 -4z"/>
</g>
</svg>
