<?xml version="1.0" standalone="no"?>
<!DOCTYPE svg PUBLIC "-//W3C//DTD SVG 20010904//EN"
 "http://www.w3.org/TR/2001/REC-SVG-20010904/DTD/svg10.dtd">
<svg version="1.0" xmlns="http://www.w3.org/2000/svg"
 width="210.000000pt" height="220.000000pt" viewBox="0 0 210.000000 220.000000"
 preserveAspectRatio="xMidYMid meet">
<metadata>
Created by potrace 1.16, written by Peter Selinger 2001-2019
</metadata>
<g transform="translate(0.000000,220.000000) scale(0.100000,-0.100000)"
fill="#000000" stroke="none">
<path d="M1083 2185 l-33 -14 -12 -25 -11 -26 28 -91 28 -91 -5 -73 -5 -73
-30 -53 -30 -54 -56 -33 -56 -34 -59 -5 -59 -6 -37 13 -36 12 -39 38 -39 39
-17 52 -18 52 6 66 5 66 22 58 22 58 -6 23 -6 23 -27 12 -28 13 -85 7 -85 7
-195 -9 -195 -8 -9 -9 -9 -9 -1 -248 -1 -248 18 -60 19 -59 36 -34 36 -34 68
4 67 4 21 22 21 22 10 0 11 0 28 -28 28 -29 11 -41 12 -41 -7 -28 -7 -28 -18
-31 -19 -31 -25 -11 -26 -12 -25 0 -24 0 -51 26 -50 26 -37 -5 -37 -6 -17 -23
-17 -23 -10 -50 -10 -50 -3 -283 -3 -282 175 6 175 6 79 -11 78 -11 47 -21 46
-20 26 -25 27 -26 11 -41 12 -42 -16 -55 -17 -55 -15 -58 -16 -59 9 -35 9 -36
27 -20 27 -20 80 -5 80 -5 46 12 46 12 40 26 40 27 15 27 14 28 0 27 0 26 -27
49 -28 49 11 17 11 18 31 18 30 18 179 44 178 45 87 42 88 43 29 55 29 55 25
75 25 76 37 164 37 165 19 37 19 37 19 11 20 10 16 -6 16 -6 10 -19 10 -19 39
0 38 0 32 26 31 26 15 31 16 30 1 58 0 58 -26 40 -26 39 -55 27 -56 27 -97 -4
-98 -5 -48 -24 -49 -24 -13 19 -14 19 -7 45 -7 45 10 261 10 261 -6 7 -6 7
-100 25 -100 25 -65 10 -65 11 -80 0 -80 -1 -32 -14z"/>
</g>
</svg>
