<?xml version="1.0" standalone="no"?>
<!DOCTYPE svg PUBLIC "-//W3C//DTD SVG 20010904//EN"
 "http://www.w3.org/TR/2001/REC-SVG-20010904/DTD/svg10.dtd">
<svg version="1.0" xmlns="http://www.w3.org/2000/svg"
 width="250.000000pt" height="174.000000pt" viewBox="0 0 250.000000 174.000000"
 preserveAspectRatio="xMidYMid meet">
<metadata>
Created by potrace 1.16, written by Peter Selinger 2001-2019
</metadata>
<g transform="translate(0.000000,174.000000) scale(0.100000,-0.100000)"
fill="#000000" stroke="none">
<path d="M662 1733 l-142 -4 4 -22 5 -22 6 -190 7 -191 -12 -84 -11 -84 -19
-37 -19 -37 -16 -6 -17 -6 -31 0 -32 0 -55 22 -55 21 -75 1 -75 1 -40 -20 -40
-20 -24 -49 -25 -49 12 -55 12 -56 28 -36 29 -35 43 -24 44 -25 78 -4 77 -5
87 28 87 27 22 -10 22 -10 18 -39 19 -38 -1 -110 -1 -110 -21 -138 -21 -139 0
-13 0 -12 153 -6 152 -7 170 -6 170 -6 20 15 20 15 -21 29 -21 28 -13 39 -13
39 6 81 5 81 20 54 21 54 26 37 26 38 30 13 30 12 34 -16 33 -16 32 -45 31
-46 23 -62 24 -63 12 -71 13 -72 -5 -50 -5 -50 -21 -27 -22 -28 0 -29 0 -29
10 -18 9 -18 46 -13 45 -13 68 7 67 7 79 20 78 20 62 23 61 23 48 23 47 22 0
11 0 11 -34 81 -35 80 -22 85 -22 85 -1 87 -1 86 21 29 21 28 21 3 21 3 81
-25 81 -26 35 0 35 0 44 11 44 11 41 35 41 35 21 42 22 41 4 116 4 116 -12 56
-11 55 -16 7 -17 6 -27 -20 -28 -21 -43 -10 -43 -10 -50 0 -50 0 -38 25 -37
26 -14 28 -15 28 -11 69 -12 69 7 163 7 162 -13 0 -14 -1 -60 -14 -60 -15
-185 -21 -185 -20 -44 -10 -43 -10 -29 -14 -29 -15 -6 -26 -6 -25 21 -64 21
-64 6 -40 6 -40 -6 -36 -7 -37 -34 -33 -33 -33 -45 -7 -45 -7 -40 7 -40 6 -40
26 -40 26 -24 41 -23 41 1 100 0 100 23 60 23 60 2 30 1 29 -25 13 -25 13
-145 -2 -145 -2 -143 -3z"/>
</g>
</svg>
