<?xml version="1.0" standalone="no"?>
<!DOCTYPE svg PUBLIC "-//W3C//DTD SVG 20010904//EN"
 "http://www.w3.org/TR/2001/REC-SVG-20010904/DTD/svg10.dtd">
<svg version="1.0" xmlns="http://www.w3.org/2000/svg"
 width="166.000000pt" height="161.000000pt" viewBox="0 0 166.000000 161.000000"
 preserveAspectRatio="xMidYMid meet">
<metadata>
Created by potrace 1.16, written by Peter Selinger 2001-2019
</metadata>
<g transform="translate(0.000000,161.000000) scale(0.100000,-0.100000)"
fill="#000000" stroke="none">
<path d="M16 1588 l-5 -23 -5 -171 -6 -170 10 -88 10 -88 14 -32 14 -33 23
-22 23 -21 35 0 36 0 47 25 47 25 26 0 26 0 22 -12 22 -11 23 -21 23 -21 14
-34 15 -33 0 -77 0 -77 -16 -55 -16 -54 -16 -17 -15 -18 -11 0 -11 0 -13 20
-12 20 -45 0 -44 0 -20 -22 -20 -21 -15 -46 -15 -46 -27 -120 -26 -120 -19
-50 -19 -51 -30 -47 -30 -48 0 -12 0 -12 212 3 213 3 51 14 51 15 26 20 26 20
11 36 12 37 -4 77 -5 77 -23 33 -23 33 14 26 14 26 65 22 65 22 59 1 59 0 41
-21 42 -20 27 -44 28 -44 6 -36 6 -36 -22 -30 -22 -30 -6 -34 -5 -34 6 -25 6
-24 43 -21 42 -20 115 -11 115 -10 95 0 95 -1 74 -9 74 -10 4 3 3 4 25 149 26
149 1 110 1 110 -16 37 -16 37 -27 7 -27 7 -91 -24 -91 -23 -70 0 -70 -1 -38
14 -38 13 -28 26 -29 27 -18 35 -18 35 -4 108 -4 107 7 46 7 47 23 23 24 24
24 0 24 0 77 -25 77 -25 73 0 73 0 34 23 34 23 22 40 22 40 10 87 10 87 -6
135 -6 135 -10 0 -9 0 -57 -14 -56 -15 -140 -16 -140 -16 -53 -15 -53 -15 -19
-19 -20 -20 0 -31 0 -30 22 -47 22 -47 0 -36 1 -36 -19 -27 -18 -28 -56 -26
-57 -27 -110 0 -110 0 -35 19 -35 19 -17 18 -18 18 0 14 0 15 22 14 22 15 4
104 3 104 -27 42 -28 42 -50 23 -51 22 -242 4 -242 4 -5 -24z"/>
</g>
</svg>
