<?xml version="1.0" standalone="no"?>
<!DOCTYPE svg PUBLIC "-//W3C//DTD SVG 20010904//EN"
 "http://www.w3.org/TR/2001/REC-SVG-20010904/DTD/svg10.dtd">
<svg version="1.0" xmlns="http://www.w3.org/2000/svg"
 width="164.000000pt" height="159.000000pt" viewBox="0 0 164.000000 159.000000"
 preserveAspectRatio="xMidYMid meet">
<metadata>
Created by potrace 1.16, written by Peter Selinger 2001-2019
</metadata>
<g transform="translate(0.000000,159.000000) scale(0.100000,-0.100000)"
fill="#000000" stroke="none">
<path d="M16 1568 l-5 -23 -5 -163 -5 -164 10 -85 9 -85 14 -32 14 -33 23 -22
23 -21 25 0 26 0 47 25 47 25 36 0 36 0 22 -12 22 -11 23 -21 23 -21 15 -35
16 -35 -1 -85 -1 -84 -16 -56 -16 -55 -15 -17 -16 -18 -21 0 -21 0 -13 20 -12
20 -35 0 -34 0 -20 -22 -20 -21 -15 -46 -15 -46 -27 -120 -26 -120 -19 -50
-19 -51 -30 -47 -30 -48 0 -2 0 -2 222 5 223 5 50 25 50 25 18 35 18 35 -4 76
-4 76 -21 31 -22 30 0 19 0 19 15 21 16 22 65 21 66 20 65 0 66 0 41 -21 42
-20 28 -45 29 -45 5 -45 5 -45 -21 -29 -21 -28 -7 -26 -6 -26 6 -24 6 -24 43
-21 42 -20 115 -11 115 -10 100 -1 100 -1 60 -7 60 -8 3 2 2 2 25 149 26 149
1 100 0 100 -15 37 -16 37 -23 6 -24 6 -79 -22 -80 -22 -85 -1 -85 -1 -38 13
-38 14 -28 26 -29 27 -18 35 -18 35 -4 118 -4 118 7 46 7 46 23 23 24 24 34 0
34 0 77 -25 77 -25 63 0 63 0 34 23 34 23 22 40 22 40 10 85 9 84 -5 128 -6
127 -16 -4 -16 -5 -40 -10 -40 -10 -140 -16 -140 -16 -53 -15 -53 -15 -19 -19
-20 -20 0 -21 0 -20 22 -47 22 -47 1 -45 0 -46 -18 -28 -19 -28 -56 -26 -57
-27 -120 0 -120 0 -35 19 -35 19 -17 18 -18 18 0 24 0 25 22 14 22 15 4 94 4
94 -28 42 -28 42 -50 23 -51 22 -232 4 -232 4 -5 -24z"/>
</g>
</svg>
