<?xml version="1.0" standalone="no"?>
<!DOCTYPE svg PUBLIC "-//W3C//DTD SVG 20010904//EN"
 "http://www.w3.org/TR/2001/REC-SVG-20010904/DTD/svg10.dtd">
<svg version="1.0" xmlns="http://www.w3.org/2000/svg"
 width="171.000000pt" height="164.000000pt" viewBox="0 0 171.000000 164.000000"
 preserveAspectRatio="xMidYMid meet">
<metadata>
Created by potrace 1.16, written by Peter Selinger 2001-2019
</metadata>
<g transform="translate(0.000000,164.000000) scale(0.100000,-0.100000)"
fill="#000000" stroke="none">
<path d="M1143 1630 l-33 -11 -16 -24 -15 -24 25 -81 26 -81 0 -61 0 -60 -17
-35 -16 -35 -40 -26 -39 -26 -64 -4 -63 -4 -25 6 -24 6 -33 27 -32 27 -18 41
-19 40 0 83 0 83 20 60 21 61 -6 6 -5 6 -51 6 -51 7 -132 -8 -131 -8 -140 -7
-140 -7 -3 -166 -3 -165 11 -69 10 -69 15 -29 15 -28 37 -26 38 -25 50 0 50 0
43 10 43 10 28 21 27 20 17 -6 16 -7 11 -55 12 -56 -4 -116 -4 -116 -22 -41
-21 -42 -41 -35 -41 -35 -44 -11 -44 -11 -35 0 -35 0 -81 26 -81 25 -21 -3
-21 -3 -21 -28 -21 -29 1 -86 1 -87 22 -85 22 -85 37 -87 37 -88 190 0 190 0
63 15 64 15 45 27 46 26 20 45 19 45 -5 49 -6 49 -21 33 -20 33 0 16 0 16 21
11 20 11 87 6 87 5 42 -11 43 -12 30 -32 30 -32 6 -31 6 -31 -26 -51 -26 -51
0 -33 0 -34 22 -19 23 -19 51 -12 51 -11 249 -8 249 -7 15 -8 15 -8 -3 791 -2
791 -3 2 -3 3 -129 21 -130 21 -130 4 -130 5 -32 -10z"/>
</g>
</svg>
