<?xml version="1.0" standalone="no"?>
<!DOCTYPE svg PUBLIC "-//W3C//DTD SVG 20010904//EN"
 "http://www.w3.org/TR/2001/REC-SVG-20010904/DTD/svg10.dtd">
<svg version="1.0" xmlns="http://www.w3.org/2000/svg"
 width="199.000000pt" height="210.000000pt" viewBox="0 0 199.000000 210.000000"
 preserveAspectRatio="xMidYMid meet">
<metadata>
Created by potrace 1.16, written by Peter Selinger 2001-2019
</metadata>
<g transform="translate(0.000000,210.000000) scale(0.100000,-0.100000)"
fill="#000000" stroke="none">
<path d="M1093 2090 l-42 -9 -20 -11 -21 -10 -10 -21 -11 -20 25 -73 26 -74 0
-57 0 -56 -14 -34 -15 -34 -36 -36 -36 -36 -34 -15 -34 -14 -68 -6 -68 -6 -78
10 -78 10 -20 18 -19 17 0 19 0 19 26 61 26 62 5 71 6 71 -18 38 -18 37 -41
22 -41 22 -231 3 -231 4 -6 -34 -6 -33 -6 -260 -5 -260 12 -35 13 -35 22 -3
21 -3 44 22 43 23 87 4 88 4 55 -27 56 -27 25 -38 26 -39 0 -50 -1 -50 -15
-29 -15 -30 -31 -26 -32 -26 -28 0 -29 0 -11 20 -11 20 -23 6 -24 6 -21 -11
-21 -12 -19 -37 -19 -37 -37 -165 -37 -164 -25 -76 -26 -75 -23 -47 -24 -47 0
-6 0 -6 167 7 168 7 74 -13 74 -12 35 -32 35 -33 5 -57 5 -56 -13 -63 -12 -62
-21 -23 -21 -22 10 -27 9 -28 40 -22 39 -22 61 -10 62 -11 47 0 47 0 37 15 37
16 37 40 38 41 16 55 16 55 -7 36 -7 37 -19 32 -20 32 3 33 3 33 37 18 36 18
90 10 90 10 185 -3 185 -3 0 15 0 15 37 88 37 89 34 156 34 157 16 54 16 55
30 29 29 29 32 -6 32 -6 16 -22 16 -21 17 6 17 7 16 37 17 38 0 75 0 75 -22
41 -21 42 -46 22 -47 23 -47 -6 -46 -6 -45 -16 -45 -17 -32 -5 -31 -5 -17 26
-17 25 -5 80 -6 79 13 212 12 211 -3 4 -4 3 -130 16 -130 15 -90 5 -90 5 -42
-9z"/>
</g>
</svg>
