<?xml version="1.0" standalone="no"?>
<!DOCTYPE svg PUBLIC "-//W3C//DTD SVG 20010904//EN"
 "http://www.w3.org/TR/2001/REC-SVG-20010904/DTD/svg10.dtd">
<svg version="1.0" xmlns="http://www.w3.org/2000/svg"
 width="168.000000pt" height="206.000000pt" viewBox="0 0 168.000000 206.000000"
 preserveAspectRatio="xMidYMid meet">
<metadata>
Created by potrace 1.16, written by Peter Selinger 2001-2019
</metadata>
<g transform="translate(0.000000,206.000000) scale(0.100000,-0.100000)"
fill="#000000" stroke="none">
<path d="M295 2039 l-170 -18 -52 0 -51 -1 -8 -97 -8 -98 0 -145 0 -145 12
-43 13 -43 17 -19 16 -20 28 0 28 0 74 25 75 25 36 0 36 0 33 -14 33 -14 20
-28 20 -29 13 -40 13 -39 0 -66 0 -65 -22 -50 -22 -50 -25 -18 -25 -19 -24 26
-24 26 -36 0 -36 0 -20 -10 -19 -11 -19 -37 -19 -37 -37 -163 -37 -163 -17
-52 -18 -52 -27 -52 -26 -52 0 -15 0 -14 213 1 212 2 48 -14 48 -14 28 -27 29
-26 11 -39 10 -38 -11 -51 -11 -51 -18 -24 -19 -24 0 -32 0 -33 45 -22 45 -22
93 -5 94 -6 34 7 35 6 41 38 41 37 11 22 11 22 0 35 0 35 -18 13 -18 13 -7 18
-7 19 28 28 28 28 55 11 54 11 165 20 165 21 63 14 63 15 23 0 22 0 24 167 23
168 1 111 0 110 -21 40 -20 39 -26 9 -26 9 -91 -28 -92 -28 -66 5 -67 5 -42
21 -41 21 -30 37 -31 37 -11 49 -12 48 23 48 24 47 40 20 40 20 65 -1 65 -1
55 -22 55 -21 42 0 41 0 17 6 16 6 19 37 19 37 11 84 12 84 -8 213 -7 212 -15
6 -14 5 -52 -24 -51 -24 -65 -21 -65 -21 -122 -25 -122 -26 -42 -15 -43 -15
-18 -16 -18 -16 0 -40 0 -39 25 -29 24 -30 -9 -24 -9 -24 -23 -27 -23 -27 -50
-23 -50 -24 -98 0 -98 0 -32 14 -32 13 -23 26 -23 25 -12 65 -11 65 18 139 17
138 6 28 5 27 -68 -1 -69 -1 -170 -19z"/>
</g>
</svg>
