<?xml version="1.0" standalone="no"?>
<!DOCTYPE svg PUBLIC "-//W3C//DTD SVG 20010904//EN"
 "http://www.w3.org/TR/2001/REC-SVG-20010904/DTD/svg10.dtd">
<svg version="1.0" xmlns="http://www.w3.org/2000/svg"
 width="211.000000pt" height="162.000000pt" viewBox="0 0 211.000000 162.000000"
 preserveAspectRatio="xMidYMid meet">
<metadata>
Created by potrace 1.16, written by Peter Selinger 2001-2019
</metadata>
<g transform="translate(0.000000,162.000000) scale(0.100000,-0.100000)"
fill="#000000" stroke="none">
<path d="M218 1613 l-67 -4 -5 -17 -6 -17 -2 -230 -3 -230 13 -44 13 -43 25
-25 26 -25 45 5 45 5 29 21 28 21 36 0 36 0 27 -14 27 -14 21 -24 22 -23 16
-32 16 -33 6 -42 6 -43 -11 -43 -12 -42 -31 -36 -31 -35 -41 -21 -41 -21 -65
-4 -65 -4 -75 21 -75 22 -39 1 -39 2 -20 -28 -21 -27 1 -88 2 -87 24 -95 25
-96 35 -86 36 -85 -5 -21 -6 -20 215 -7 215 -7 103 4 104 4 27 17 26 18 6 24
6 25 -24 57 -24 58 -7 36 -7 36 12 42 11 41 32 37 32 36 32 13 32 14 32 0 32
0 40 -12 40 -12 33 -31 33 -31 7 -28 7 -28 -23 -30 -23 -31 -5 -43 -5 -44 16
-24 16 -24 48 -16 48 -16 175 -20 175 -20 73 -16 73 -16 14 6 14 5 3 293 3
293 19 38 19 39 25 9 25 10 48 -26 49 -25 44 0 45 0 26 12 25 11 20 32 20 32
6 44 6 44 -12 44 -12 44 -28 29 -28 28 -31 0 -30 0 -20 -21 -20 -22 -49 -5
-48 -4 -36 34 -36 34 -19 59 -18 60 1 243 2 242 -9 0 -9 0 -72 -24 -73 -25
-155 -26 -155 -26 -52 -14 -52 -15 -21 -27 -21 -27 6 -34 6 -33 20 -32 19 -32
0 -21 0 -21 -24 -26 -24 -26 -43 -12 -44 -13 -105 0 -106 0 -37 23 -37 22 -12
40 -12 41 13 74 12 75 15 44 16 44 -4 22 -3 23 -35 20 -35 21 -205 1 -205 1
-67 -4z"/>
</g>
</svg>
