<?xml version="1.0" standalone="no"?>
<!DOCTYPE svg PUBLIC "-//W3C//DTD SVG 20010904//EN"
 "http://www.w3.org/TR/2001/REC-SVG-20010904/DTD/svg10.dtd">
<svg version="1.0" xmlns="http://www.w3.org/2000/svg"
 width="209.000000pt" height="160.000000pt" viewBox="0 0 209.000000 160.000000"
 preserveAspectRatio="xMidYMid meet">
<metadata>
Created by potrace 1.16, written by Peter Selinger 2001-2019
</metadata>
<g transform="translate(0.000000,160.000000) scale(0.100000,-0.100000)"
fill="#000000" stroke="none">
<path d="M218 1593 l-67 -4 -5 -17 -5 -17 -3 -220 -2 -220 13 -44 12 -43 25
-25 25 -25 37 6 36 5 28 21 27 20 49 0 49 0 34 -23 34 -22 22 -34 23 -34 10
-36 10 -36 0 -35 0 -35 -11 -38 -10 -38 -31 -35 -31 -35 -41 -21 -41 -21 -75
-4 -75 -4 -75 21 -75 22 -29 1 -29 2 -20 -27 -20 -27 1 -78 1 -78 25 -96 24
-96 40 -96 40 -95 -10 -10 -10 -10 216 -7 215 -7 93 4 93 4 26 17 27 18 5 18
4 18 -24 57 -23 56 -6 43 -6 42 12 43 11 43 35 39 35 39 36 12 35 11 53 -4 52
-4 39 -21 39 -20 23 -33 22 -33 0 -27 0 -27 -21 -26 -20 -27 -6 -35 -6 -35 16
-24 16 -24 46 -16 47 -15 181 -21 182 -21 64 -15 64 -15 8 8 8 8 3 290 3 290
21 40 21 40 31 9 31 9 50 -27 51 -26 34 0 35 0 26 12 25 11 19 31 19 31 7 36
7 36 -12 43 -12 43 -28 29 -28 28 -21 0 -20 0 -21 -22 -20 -22 -58 -4 -58 -4
-36 34 -36 34 -19 59 -18 60 1 243 1 243 -16 -7 -16 -6 -58 -19 -58 -19 -152
-25 -152 -26 -52 -14 -52 -15 -20 -26 -21 -26 7 -27 6 -26 19 -30 18 -30 0
-31 0 -31 -24 -26 -24 -26 -43 -12 -44 -13 -115 0 -115 -1 -37 23 -37 23 -12
36 -12 36 6 61 6 61 17 60 17 60 1 24 1 25 -35 20 -35 21 -195 1 -195 1 -67
-4z"/>
</g>
</svg>
