<?xml version="1.0" standalone="no"?>
<!DOCTYPE svg PUBLIC "-//W3C//DTD SVG 20010904//EN"
 "http://www.w3.org/TR/2001/REC-SVG-20010904/DTD/svg10.dtd">
<svg version="1.0" xmlns="http://www.w3.org/2000/svg"
 width="217.000000pt" height="201.000000pt" viewBox="0 0 217.000000 201.000000"
 preserveAspectRatio="xMidYMid meet">
<metadata>
Created by potrace 1.16, written by Peter Selinger 2001-2019
</metadata>
<g transform="translate(0.000000,201.000000) scale(0.100000,-0.100000)"
fill="#000000" stroke="none">
<path d="M484 1813 l6 -198 -9 -62 -9 -61 -17 -36 -17 -36 -35 -21 -35 -22
-66 5 -67 5 -59 28 -58 28 -38 -12 -38 -11 -17 -43 -18 -42 -5 -82 -4 -82 27
-47 27 -46 44 -20 45 -19 22 7 22 7 13 18 13 19 34 0 35 0 26 -39 26 -40 24
-128 25 -128 20 -95 21 -95 24 -59 24 -59 0 -25 0 -24 23 6 22 5 201 7 200 7
69 -13 70 -13 29 -29 29 -29 -6 -40 -5 -41 -21 -22 -21 -22 0 -45 0 -44 20
-32 19 -32 43 -27 42 -27 68 -5 67 -5 46 29 45 29 26 38 26 39 14 40 14 41 0
50 0 51 -26 38 -26 37 5 15 6 15 27 18 28 18 100 3 101 3 160 -25 160 -25 25
-6 25 -6 32 148 32 148 12 65 12 65 1 115 1 115 -23 38 -24 37 -40 0 -39 0
-45 -26 -45 -27 -64 6 -63 6 -62 21 -62 21 -39 25 -40 25 -10 27 -11 27 10
103 9 103 11 11 11 11 50 -22 50 -21 76 0 77 0 35 17 35 16 33 34 33 34 23 72
24 72 0 170 0 170 -799 3 -799 2 7 -197z"/>
</g>
</svg>
