<?xml version="1.0" standalone="no"?>
<!DOCTYPE svg PUBLIC "-//W3C//DTD SVG 20010904//EN"
 "http://www.w3.org/TR/2001/REC-SVG-20010904/DTD/svg10.dtd">
<svg version="1.0" xmlns="http://www.w3.org/2000/svg"
 width="215.000000pt" height="199.000000pt" viewBox="0 0 215.000000 199.000000"
 preserveAspectRatio="xMidYMid meet">
<metadata>
Created by potrace 1.16, written by Peter Selinger 2001-2019
</metadata>
<g transform="translate(0.000000,199.000000) scale(0.100000,-0.100000)"
fill="#000000" stroke="none">
<path d="M484 1798 l7 -193 -10 -67 -9 -66 -17 -36 -17 -36 -35 -21 -34 -21
-77 4 -77 5 -56 26 -56 27 -31 -11 -30 -10 -18 -42 -17 -42 -5 -72 -5 -72 28
-46 27 -47 41 -18 40 -18 16 6 16 6 15 19 16 19 37 0 38 0 14 -12 14 -12 20
-41 20 -42 26 -145 26 -145 20 -77 19 -76 21 -49 21 -48 0 -20 0 -20 102 6
101 7 135 1 135 1 60 -14 60 -14 23 -28 24 -28 -4 -48 -5 -49 -22 -22 -21 -23
0 -35 0 -34 20 -32 19 -32 42 -27 42 -26 58 -5 58 -6 46 29 45 29 26 38 26 39
14 40 14 41 0 40 0 41 -26 37 -26 37 4 23 3 22 28 21 28 21 112 3 112 3 160
-24 160 -24 15 -7 15 -6 32 147 32 148 12 65 12 65 1 105 1 105 -23 38 -24 37
-30 0 -29 0 -45 -26 -45 -27 -72 6 -72 5 -63 21 -64 22 -39 25 -40 25 -10 27
-11 27 9 113 10 113 14 15 15 15 55 -26 54 -25 68 0 69 0 35 17 35 16 33 34
33 34 23 72 24 72 0 160 0 160 -789 3 -789 2 7 -192z"/>
</g>
</svg>
