<?xml version="1.0" standalone="no"?>
<!DOCTYPE svg PUBLIC "-//W3C//DTD SVG 20010904//EN"
 "http://www.w3.org/TR/2001/REC-SVG-20010904/DTD/svg10.dtd">
<svg version="1.0" xmlns="http://www.w3.org/2000/svg"
 width="240.000000pt" height="159.000000pt" viewBox="0 0 240.000000 159.000000"
 preserveAspectRatio="xMidYMid meet">
<metadata>
Created by potrace 1.16, written by Peter Selinger 2001-2019
</metadata>
<g transform="translate(0.000000,159.000000) scale(0.100000,-0.100000)"
fill="#000000" stroke="none">
<path d="M477 1583 l-68 -4 2 -242 3 -242 -13 -37 -12 -36 -26 -17 -26 -17
-46 4 -47 5 -56 26 -57 27 -18 0 -19 0 -22 -20 -22 -21 -15 -29 -15 -29 -10
-73 -10 -73 10 -54 10 -54 26 -44 25 -44 25 -11 24 -11 24 26 25 27 35 0 35 0
25 -32 24 -33 10 -40 11 -40 21 -145 20 -145 17 -64 16 -65 13 -32 13 -32 137
-7 137 -8 83 7 84 7 49 14 48 15 27 21 26 21 17 31 16 32 -1 73 -1 73 -26 45
-26 45 6 20 7 21 36 15 37 15 60 9 60 8 87 -9 86 -9 30 -15 30 -15 6 -17 6
-17 -25 -43 -25 -43 0 -26 0 -26 10 -20 11 -19 32 -17 32 -16 172 -43 173 -42
66 -31 67 -31 5 4 4 5 -31 85 -30 86 -20 78 -21 79 -6 70 -7 71 7 36 7 36 23
25 23 25 20 0 20 0 59 -22 59 -21 95 -1 95 -1 41 22 41 22 26 30 25 30 12 37
13 37 -5 61 -5 62 -21 39 -21 40 -25 27 -24 26 -40 21 -41 21 -44 0 -44 0 -25
-19 -25 -20 -26 -6 -27 -7 -24 15 -23 15 -14 49 -13 48 0 115 0 115 8 108 7
107 -188 0 -188 0 -84 -10 -83 -9 -37 -18 -36 -18 -3 -33 -3 -33 20 -32 19
-32 7 -37 7 -36 -16 -55 -16 -55 -38 -41 -37 -40 -37 -16 -37 -15 -47 0 -47 0
-62 11 -61 10 -39 22 -40 22 -9 28 -10 27 21 22 21 23 12 62 13 63 -5 56 -5
57 -35 32 -35 32 -65 12 -65 11 -109 -2 -109 -2 -68 -3z"/>
</g>
</svg>
