<?xml version="1.0" standalone="no"?>
<!DOCTYPE svg PUBLIC "-//W3C//DTD SVG 20010904//EN"
 "http://www.w3.org/TR/2001/REC-SVG-20010904/DTD/svg10.dtd">
<svg version="1.0" xmlns="http://www.w3.org/2000/svg"
 width="164.000000pt" height="223.000000pt" viewBox="0 0 164.000000 223.000000"
 preserveAspectRatio="xMidYMid meet">
<metadata>
Created by potrace 1.16, written by Peter Selinger 2001-2019
</metadata>
<g transform="translate(0.000000,223.000000) scale(0.100000,-0.100000)"
fill="#000000" stroke="none">
<path d="M1038 2215 l-28 -16 -6 -24 -6 -24 7 -23 7 -23 17 -19 16 -18 -1 -77
0 -76 -22 -59 -22 -60 -25 -38 -25 -38 -42 -30 -41 -30 -44 0 -44 0 -33 14
-33 14 -17 23 -16 23 0 33 0 32 25 55 25 55 0 46 0 47 -28 28 -29 28 -44 14
-44 13 -269 -2 -269 -2 -9 -13 -9 -13 3 -250 3 -250 20 -39 20 -40 27 -20 28
-20 48 1 49 1 76 26 75 26 26 0 26 0 20 -20 21 -21 9 -25 10 -25 0 -76 0 -76
-12 -38 -11 -39 -34 -40 -35 -40 -43 -26 -44 -25 -56 -6 -56 -6 -29 22 -30 21
-29 6 -29 6 -21 -11 -21 -11 -10 -19 -10 -19 -9 -69 -10 -68 10 -120 9 -120 7
-88 6 -89 21 7 21 7 182 5 182 5 66 -11 66 -12 44 -21 43 -21 17 -38 18 -38
-5 -54 -4 -53 -22 -22 -22 -22 0 -44 0 -43 23 -33 22 -34 45 -24 45 -24 85 5
85 5 36 16 37 15 32 28 33 27 13 33 14 32 0 32 0 32 -26 54 -25 54 6 20 7 21
45 20 44 20 162 19 162 19 74 12 73 12 -6 46 -5 45 -11 130 -11 130 -9 102
-10 103 -14 35 -15 36 -35 14 -35 15 -31 -6 -31 -7 -10 -18 -10 -19 -21 0 -21
0 -42 43 -43 43 -18 59 -17 60 12 86 11 86 11 33 12 33 14 -19 14 -19 97 0 97
0 33 25 33 24 24 51 24 50 12 89 11 89 -7 132 -7 133 -96 45 -97 46 -90 26
-90 27 -95 4 -95 5 -27 -16z"/>
</g>
</svg>
