<?xml version="1.0" standalone="no"?>
<!DOCTYPE svg PUBLIC "-//W3C//DTD SVG 20010904//EN"
 "http://www.w3.org/TR/2001/REC-SVG-20010904/DTD/svg10.dtd">
<svg version="1.0" xmlns="http://www.w3.org/2000/svg"
 width="162.000000pt" height="221.000000pt" viewBox="0 0 162.000000 221.000000"
 preserveAspectRatio="xMidYMid meet">
<metadata>
Created by potrace 1.16, written by Peter Selinger 2001-2019
</metadata>
<g transform="translate(0.000000,221.000000) scale(0.100000,-0.100000)"
fill="#000000" stroke="none">
<path d="M1038 2195 l-27 -15 -6 -19 -6 -18 11 -24 11 -24 15 -25 15 -25 -4
-75 -4 -75 -21 -59 -22 -60 -25 -38 -25 -38 -42 -30 -41 -30 -54 0 -54 0 -33
14 -33 14 -17 23 -16 23 0 43 0 42 25 55 25 55 0 36 0 37 -28 28 -29 28 -44
14 -44 13 -259 -2 -259 -2 -9 -13 -9 -13 3 -240 3 -240 20 -39 20 -40 26 -19
27 -19 41 0 41 1 74 25 74 26 36 0 36 0 20 -20 21 -21 9 -25 10 -25 0 -86 0
-86 -12 -38 -11 -39 -34 -40 -35 -40 -44 -26 -45 -26 -65 -6 -65 -5 -27 20
-27 20 -23 7 -23 8 -24 -16 -24 -16 -12 -42 -12 -43 1 -98 0 -99 12 -111 11
-112 4 -20 4 -21 200 4 200 4 66 -11 66 -12 44 -21 43 -21 17 -38 18 -38 -1
-47 -1 -46 -7 -20 -6 -20 -19 -19 -19 -19 0 -34 0 -33 23 -33 22 -34 45 -24
45 -24 75 5 75 5 36 16 37 15 32 28 33 27 13 33 14 32 0 23 0 23 -25 50 -24
50 -1 23 0 22 20 20 19 19 53 15 53 15 155 17 155 16 50 13 50 13 9 -5 9 -6
-6 34 -6 34 -11 135 -11 135 -9 102 -10 103 -14 35 -15 36 -31 13 -32 13 -24
-5 -25 -4 -10 -19 -10 -19 -31 0 -31 0 -42 43 -43 42 -16 54 -16 55 0 35 0 36
10 65 11 65 10 33 11 32 13 0 14 0 10 -17 10 -18 88 0 88 0 33 25 33 24 24 51
24 50 11 85 12 85 -7 126 -7 127 -97 45 -96 46 -90 26 -90 26 -85 5 -85 5 -27
-16z"/>
</g>
</svg>
