<?xml version="1.0" standalone="no"?>
<!DOCTYPE svg PUBLIC "-//W3C//DTD SVG 20010904//EN"
 "http://www.w3.org/TR/2001/REC-SVG-20010904/DTD/svg10.dtd">
<svg version="1.0" xmlns="http://www.w3.org/2000/svg"
 width="162.000000pt" height="198.000000pt" viewBox="0 0 162.000000 198.000000"
 preserveAspectRatio="xMidYMid meet">
<metadata>
Created by potrace 1.16, written by Peter Selinger 2001-2019
</metadata>
<g transform="translate(0.000000,198.000000) scale(0.100000,-0.100000)"
fill="#000000" stroke="none">
<path d="M89 1973 l-57 -4 -7 -213 -7 -213 7 -53 7 -54 30 -29 29 -29 52 4 52
4 57 27 57 27 30 0 30 0 24 -9 24 -9 36 -34 36 -33 22 -50 22 -50 1 -65 1 -65
-14 -50 -15 -49 -41 -41 -41 -41 -47 -13 -47 -14 -55 7 -55 6 -53 20 -52 20
-27 0 -27 0 -16 -17 -17 -16 -9 -23 -8 -24 -7 -62 -6 -63 12 -150 12 -150 7
-40 7 -40 99 0 100 0 155 8 155 8 13 -9 13 -9 -26 -44 -25 -44 0 -40 0 -40 11
-39 11 -38 39 -43 40 -43 47 -22 46 -22 78 -5 77 -6 63 12 63 13 43 24 42 25
16 24 16 25 -6 25 -6 25 -15 0 -15 0 -6 26 -6 25 21 23 22 23 39 12 39 11 143
20 143 20 58 15 59 15 20 0 20 0 -7 29 -6 30 -9 253 -9 253 -11 38 -11 38 -20
20 -19 19 -31 0 -30 0 -45 -26 -44 -26 -37 7 -36 6 -26 17 -26 16 -21 21 -21
20 -17 32 -16 32 0 93 0 93 11 40 11 40 16 18 15 17 29 0 29 0 52 -22 52 -23
62 0 61 0 28 25 27 25 21 45 21 45 3 209 4 208 -9 9 -9 9 -85 -19 -84 -20
-165 -21 -165 -20 -54 -11 -55 -11 -29 -30 -29 -29 5 -35 6 -35 22 -18 22 -18
-7 -29 -7 -28 -45 -43 -45 -42 -36 -7 -36 -7 -75 7 -76 6 -43 21 -43 21 0 13
0 12 19 25 20 25 12 64 11 64 -12 44 -12 45 -28 26 -28 26 -38 13 -39 13 -170
3 -170 2 -56 -4z"/>
</g>
</svg>
