<?xml version="1.0" standalone="no"?>
<!DOCTYPE svg PUBLIC "-//W3C//DTD SVG 20010904//EN"
 "http://www.w3.org/TR/2001/REC-SVG-20010904/DTD/svg10.dtd">
<svg version="1.0" xmlns="http://www.w3.org/2000/svg"
 width="222.000000pt" height="207.000000pt" viewBox="0 0 222.000000 207.000000"
 preserveAspectRatio="xMidYMid meet">
<metadata>
Created by potrace 1.16, written by Peter Selinger 2001-2019
</metadata>
<g transform="translate(0.000000,207.000000) scale(0.100000,-0.100000)"
fill="#000000" stroke="none">
<path d="M1471 2049 l-33 -20 5 -27 5 -27 21 -79 21 -79 0 -59 0 -59 -16 -37
-15 -37 -31 -28 -31 -29 -26 -10 -26 -10 -81 0 -81 0 -44 19 -44 20 -13 15
-13 16 -5 34 -6 34 26 62 26 61 0 40 0 39 -30 26 -31 25 -42 13 -42 13 -229
-2 -228 -2 -6 -5 -5 -6 13 -177 14 -178 0 -138 1 -138 -15 -9 -15 -10 -15 6
-15 6 -75 15 -75 14 -95 1 -95 1 -43 -22 -44 -22 -19 -42 -19 -42 0 -30 0 -30
11 -40 11 -40 24 -32 24 -31 45 -17 45 -18 55 7 55 6 50 20 51 20 27 0 27 0
13 -9 13 -8 15 -29 15 -29 10 -80 10 -80 -7 -181 -7 -182 7 -25 6 -26 48 4 47
5 180 15 180 15 48 5 47 6 0 -4 0 -4 -17 -34 -18 -34 1 -75 0 -75 26 -51 26
-50 40 -36 39 -35 47 -18 46 -18 98 6 97 5 40 14 40 13 3 18 4 18 -26 24 -26
24 0 24 0 24 23 21 23 21 42 15 43 15 122 26 122 26 50 15 50 16 68 31 67 30
0 10 0 10 36 90 35 90 24 90 25 91 10 78 11 79 -7 44 -6 44 -24 26 -23 25 -23
0 -23 -1 -50 -24 -50 -25 -60 0 -60 0 -51 14 -52 14 -52 28 -51 28 -20 27 -19
27 0 54 0 53 11 38 10 38 30 34 31 35 37 10 38 10 59 -11 59 -11 47 -20 48
-20 24 16 25 16 8 37 8 38 0 130 -1 130 -8 117 -8 116 -109 36 -109 37 -92 19
-93 20 -80 0 -80 0 -34 -21z"/>
</g>
</svg>
