<?xml version="1.0" standalone="no"?>
<!DOCTYPE svg PUBLIC "-//W3C//DTD SVG 20010904//EN"
 "http://www.w3.org/TR/2001/REC-SVG-20010904/DTD/svg10.dtd">
<svg version="1.0" xmlns="http://www.w3.org/2000/svg"
 width="238.000000pt" height="209.000000pt" viewBox="0 0 238.000000 209.000000"
 preserveAspectRatio="xMidYMid meet">
<metadata>
Created by potrace 1.16, written by Peter Selinger 2001-2019
</metadata>
<g transform="translate(0.000000,209.000000) scale(0.100000,-0.100000)"
fill="#000000" stroke="none">
<path d="M1105 2080 l-50 -7 -37 -16 -37 -16 -7 -27 -7 -28 27 -47 27 -48 0
-64 1 -65 -16 -30 -16 -30 -26 -21 -27 -21 -56 -18 -56 -17 -218 2 -217 1 0
-166 0 -167 -14 -59 -14 -58 -19 -26 -19 -26 -25 -18 -24 -18 -52 -6 -51 -7
-50 13 -50 12 -5 19 -5 19 -16 0 -16 0 -9 -22 -8 -23 -7 -130 -7 -130 11 -55
10 -55 24 -35 23 -35 43 -30 42 -29 59 -1 58 0 21 23 22 23 20 -3 21 -3 19
-26 20 -26 8 -65 8 -65 -13 -204 -12 -204 11 -8 11 -8 210 4 210 4 63 20 63
21 34 27 35 26 14 27 13 27 7 35 6 35 -8 52 -9 51 -16 17 -17 16 0 14 0 14 25
19 25 20 51 12 51 13 53 -6 52 -5 39 -20 39 -20 32 -34 32 -33 15 -37 16 -37
0 -28 0 -28 -25 -50 -24 -50 -1 -31 0 -31 20 -26 20 -26 58 -12 57 -12 110 6
110 6 115 12 115 12 0 246 0 246 14 48 14 48 24 18 23 19 19 -5 20 -5 17 -19
17 -19 51 1 51 0 30 18 30 17 28 42 28 42 8 52 9 52 -8 98 -8 98 -19 37 -20
38 -24 13 -24 13 -47 -5 -47 -5 -41 -21 -41 -21 -32 3 -31 3 -23 33 -22 33 -7
56 -7 56 7 183 7 182 -83 42 -83 41 -177 43 -177 43 -33 20 -33 19 -10 28 -9
27 28 50 28 50 -6 24 -6 25 -31 16 -31 15 -86 10 -87 9 -20 -1 -20 -1 -50 -8z"/>
</g>
</svg>
