<?xml version="1.0" standalone="no"?>
<!DOCTYPE svg PUBLIC "-//W3C//DTD SVG 20010904//EN"
 "http://www.w3.org/TR/2001/REC-SVG-20010904/DTD/svg10.dtd">
<svg version="1.0" xmlns="http://www.w3.org/2000/svg"
 width="205.000000pt" height="176.000000pt" viewBox="0 0 205.000000 176.000000"
 preserveAspectRatio="xMidYMid meet">
<metadata>
Created by potrace 1.16, written by Peter Selinger 2001-2019
</metadata>
<g transform="translate(0.000000,176.000000) scale(0.100000,-0.100000)"
fill="#000000" stroke="none">
<path d="M660 1749 l-85 -7 -77 -1 -78 -1 0 -22 0 -23 11 -192 12 -191 -11
-69 -11 -68 -21 -17 -21 -17 -42 19 -42 19 -66 11 -66 12 -41 -11 -40 -11 -31
-35 -30 -34 -10 -38 -11 -38 0 -63 0 -64 19 -27 20 -27 51 -28 52 -28 52 -14
51 -14 69 0 69 0 54 26 54 25 19 -6 18 -6 18 -27 18 -27 -1 -80 -2 -80 -29
-115 -30 -115 -36 -91 -36 -91 0 -22 0 -21 210 0 209 0 53 11 53 12 43 19 42
20 23 32 22 31 0 70 -1 70 -22 42 -22 42 0 14 0 15 33 13 32 14 85 0 85 -1 38
-13 39 -13 33 -30 34 -29 12 -37 12 -36 -1 -61 -1 -60 -16 -55 -16 -55 -6 -56
-5 -56 28 -22 29 -23 115 5 115 4 75 25 75 24 87 40 87 39 1 27 0 27 -14 68
-15 69 -15 155 -16 154 -11 64 -10 64 -16 31 -16 31 -16 12 -16 12 -33 1 -33
0 -59 -25 -59 -25 -32 0 -31 0 -33 33 -33 33 -7 37 -7 37 6 36 7 35 36 40 37
40 36 19 37 19 64 12 64 11 55 -11 55 -11 29 -15 28 -15 24 0 23 0 6 34 7 34
-16 206 -16 206 0 76 0 76 -32 -5 -33 -4 -60 -16 -60 -17 -145 -20 -145 -20
-35 -11 -35 -11 -22 -21 -23 -20 0 -33 0 -32 6 -16 6 -16 15 0 14 0 -3 -22 -3
-23 -47 -31 -46 -31 -67 -13 -67 -13 -59 6 -58 7 -45 21 -45 21 -40 43 -39 43
-11 38 -11 39 0 19 0 18 33 60 32 59 -19 15 -20 14 -105 -2 -106 -1 -85 -8z"/>
</g>
</svg>
