<?xml version="1.0" standalone="no"?>
<!DOCTYPE svg PUBLIC "-//W3C//DTD SVG 20010904//EN"
 "http://www.w3.org/TR/2001/REC-SVG-20010904/DTD/svg10.dtd">
<svg version="1.0" xmlns="http://www.w3.org/2000/svg"
 width="161.000000pt" height="246.000000pt" viewBox="0 0 161.000000 246.000000"
 preserveAspectRatio="xMidYMid meet">
<metadata>
Created by potrace 1.16, written by Peter Selinger 2001-2019
</metadata>
<g transform="translate(0.000000,246.000000) scale(0.100000,-0.100000)"
fill="#000000" stroke="none">
<path d="M740 2453 l-15 -5 -40 -19 -40 -19 -18 -29 -17 -29 0 -23 0 -23 20
-21 20 -21 9 -50 10 -49 -11 -43 -11 -44 -40 -29 -40 -29 -41 -13 -41 -12
-237 1 -236 2 -7 -85 -8 -85 6 -132 5 -131 16 -50 16 -50 24 -30 24 -30 69 0
68 0 23 23 23 23 22 -6 22 -7 25 -17 25 -18 29 -56 29 -56 5 -71 5 -72 -12
-69 -13 -69 -17 -22 -18 -22 -28 22 -28 22 -38 0 -37 0 -16 -6 -16 -6 -20 -33
-20 -33 -35 -149 -34 -149 -16 -49 -17 -50 -29 -53 -30 -54 4 -11 3 -11 220 0
219 -1 45 -25 44 -25 14 -25 13 -25 -5 -46 -5 -46 -21 -36 -21 -36 3 -42 3
-42 25 -19 25 -18 60 -10 60 -10 80 0 80 0 38 11 37 10 51 50 50 50 21 46 20
46 5 58 6 59 -28 40 -28 40 11 24 10 23 47 13 46 13 86 -7 86 -6 111 -27 111
-26 38 -4 37 -5 0 795 0 795 -57 20 -58 21 -55 16 -55 15 -178 30 -178 30 -34
14 -33 14 -21 21 -21 21 0 19 0 19 25 30 25 30 0 31 0 30 -32 37 -33 37 -32
13 -32 14 -43 -1 -43 -1 -15 -5z"/>
</g>
</svg>
