<?xml version="1.0" standalone="no"?>
<!DOCTYPE svg PUBLIC "-//W3C//DTD SVG 20010904//EN"
 "http://www.w3.org/TR/2001/REC-SVG-20010904/DTD/svg10.dtd">
<svg version="1.0" xmlns="http://www.w3.org/2000/svg"
 width="159.000000pt" height="244.000000pt" viewBox="0 0 159.000000 244.000000"
 preserveAspectRatio="xMidYMid meet">
<metadata>
Created by potrace 1.16, written by Peter Selinger 2001-2019
</metadata>
<g transform="translate(0.000000,244.000000) scale(0.100000,-0.100000)"
fill="#000000" stroke="none">
<path d="M713 2424 l-41 -15 -26 -26 -26 -26 -6 -24 -6 -24 21 -23 21 -22 10
-55 11 -54 -12 -48 -11 -49 -41 -29 -40 -29 -41 -13 -41 -12 -237 1 -236 1 -8
-85 -7 -85 6 -121 5 -121 16 -50 16 -50 24 -30 24 -30 59 0 58 0 24 24 23 23
32 -6 31 -6 25 -19 25 -18 29 -57 29 -56 5 -81 5 -82 -13 -69 -12 -69 -23 -27
-22 -26 -32 27 -33 27 -28 0 -28 0 -16 -6 -16 -6 -20 -33 -20 -33 -35 -149
-34 -149 -16 -49 -17 -50 -29 -53 -29 -52 7 -1 8 0 215 -2 215 -2 45 -25 44
-25 14 -25 13 -25 -4 -55 -5 -55 -22 -37 -21 -37 3 -32 3 -32 25 -19 25 -18
60 -10 60 -10 70 0 70 0 38 11 37 10 51 50 50 50 20 45 21 46 5 51 5 52 -26
34 -26 35 0 19 0 18 10 18 9 18 46 13 46 13 94 -6 93 -6 114 -27 113 -26 28
-5 27 -5 0 785 0 785 -57 20 -58 21 -55 16 -55 15 -178 30 -178 30 -34 14 -33
14 -21 21 -21 21 0 29 0 29 25 30 25 30 0 21 0 20 -32 37 -33 37 -32 13 -32
14 -33 -1 -33 -1 -42 -14z"/>
</g>
</svg>
