<?xml version="1.0" standalone="no"?>
<!DOCTYPE svg PUBLIC "-//W3C//DTD SVG 20010904//EN"
 "http://www.w3.org/TR/2001/REC-SVG-20010904/DTD/svg10.dtd">
<svg version="1.0" xmlns="http://www.w3.org/2000/svg"
 width="164.000000pt" height="248.000000pt" viewBox="0 0 164.000000 248.000000"
 preserveAspectRatio="xMidYMid meet">
<metadata>
Created by potrace 1.16, written by Peter Selinger 2001-2019
</metadata>
<g transform="translate(0.000000,248.000000) scale(0.100000,-0.100000)"
fill="#000000" stroke="none">
<path d="M729 2458 l-34 -23 -29 -59 -30 -59 -4 -81 -4 -81 20 -62 20 -62 -6
-6 -5 -5 -56 0 -55 0 -264 20 -264 21 -4 -4 -4 -3 -6 -190 -7 -189 7 -57 7
-57 22 -32 22 -32 28 -10 28 -9 45 16 44 16 44 16 44 16 28 -14 27 -13 21 -40
21 -40 0 -125 0 -125 -30 -44 -30 -45 -30 -17 -30 -18 -29 0 -30 -1 -21 20
-22 21 -35 5 -35 6 -25 -23 -26 -24 -12 -35 -13 -35 -5 -258 -4 -259 9 -9 10
-10 184 11 184 10 93 7 92 6 -21 -48 -21 -48 4 -91 4 -91 21 -45 20 -45 34
-38 34 -39 35 -18 35 -17 38 -7 38 -7 56 11 56 12 48 48 48 48 11 43 12 44 -5
65 -4 65 -24 48 -24 49 27 23 27 23 58 13 58 12 190 -17 190 -16 40 0 40 0 0
268 0 267 -9 25 -8 25 -14 31 -14 32 -16 6 -16 6 -33 0 -34 0 -50 -20 -49 -19
-50 -7 -49 -6 -45 20 -45 19 -22 31 -22 31 -11 53 -11 53 21 47 20 47 44 22
43 22 85 -1 85 -1 80 -16 80 -17 20 -4 20 -4 15 9 15 10 0 143 0 143 -14 182
-14 182 -13 5 -13 5 -153 -15 -153 -15 -115 -1 -115 0 -43 17 -43 17 -10 20
-10 19 7 22 6 22 19 18 19 18 0 47 0 47 -10 37 -11 37 -32 47 -33 47 -34 18
-35 19 -36 0 -36 0 -34 -22z"/>
</g>
</svg>
