<?xml version="1.0" standalone="no"?>
<!DOCTYPE svg PUBLIC "-//W3C//DTD SVG 20010904//EN"
 "http://www.w3.org/TR/2001/REC-SVG-20010904/DTD/svg10.dtd">
<svg version="1.0" xmlns="http://www.w3.org/2000/svg"
 width="162.000000pt" height="246.000000pt" viewBox="0 0 162.000000 246.000000"
 preserveAspectRatio="xMidYMid meet">
<metadata>
Created by potrace 1.16, written by Peter Selinger 2001-2019
</metadata>
<g transform="translate(0.000000,246.000000) scale(0.100000,-0.100000)"
fill="#000000" stroke="none">
<path d="M729 2438 l-34 -23 -29 -58 -29 -57 -5 -69 -5 -69 22 -71 22 -72 -6
-9 -6 -10 -67 0 -67 0 -254 20 -255 19 -4 -4 -5 -4 -1 -228 -1 -228 21 -35 20
-35 26 -13 27 -12 43 16 43 16 40 15 39 14 33 -6 32 -6 20 -27 19 -27 11 -42
11 -41 1 -101 1 -100 -22 -43 -22 -43 -16 -18 -15 -17 -30 -15 -30 -15 -35 0
-36 0 -20 19 -21 20 -26 6 -26 6 -26 -23 -25 -23 -12 -35 -13 -35 -5 -248 -4
-249 9 -9 9 -9 169 10 170 10 118 7 119 6 -26 -37 -25 -38 -7 -35 -7 -35 5
-67 5 -66 20 -45 20 -45 34 -38 34 -39 35 -18 35 -17 33 -6 33 -7 51 11 51 11
48 48 48 48 11 43 12 44 -5 56 -5 55 -21 42 -21 41 0 20 0 20 26 20 25 20 57
12 57 12 150 -12 150 -12 80 -6 80 -5 0 258 0 259 -8 25 -9 25 -14 31 -14 32
-16 6 -16 6 -23 0 -24 0 -51 -20 -50 -20 -55 -6 -55 -7 -45 18 -45 17 -24 31
-24 32 -11 40 -11 40 0 30 0 30 19 42 19 42 44 22 43 22 95 -1 95 -1 75 -14
75 -15 15 -6 15 -6 15 10 15 9 -1 138 0 138 -14 177 -13 177 -11 4 -11 4 -140
-14 -140 -13 -130 -2 -130 -1 -47 21 -47 21 -7 25 -6 25 7 23 7 23 19 18 19
18 0 37 0 37 -10 37 -11 37 -32 47 -33 47 -34 18 -35 19 -26 0 -26 0 -34 -22z"/>
</g>
</svg>
