<?xml version="1.0" standalone="no"?>
<!DOCTYPE svg PUBLIC "-//W3C//DTD SVG 20010904//EN"
 "http://www.w3.org/TR/2001/REC-SVG-20010904/DTD/svg10.dtd">
<svg version="1.0" xmlns="http://www.w3.org/2000/svg"
 width="207.000000pt" height="246.000000pt" viewBox="0 0 207.000000 246.000000"
 preserveAspectRatio="xMidYMid meet">
<metadata>
Created by potrace 1.16, written by Peter Selinger 2001-2019
</metadata>
<g transform="translate(0.000000,246.000000) scale(0.100000,-0.100000)"
fill="#000000" stroke="none">
<path d="M730 2442 l-35 -17 -21 -32 -22 -32 -6 -43 -6 -43 9 -55 9 -55 17
-48 16 -49 -18 -14 -18 -13 -34 -7 -35 -7 -225 6 -226 7 -61 6 -62 7 -7 -129
-8 -128 7 -91 6 -91 16 -60 15 -59 24 -37 25 -37 31 -17 32 -16 73 4 72 3 19
18 20 17 12 0 11 0 12 -27 11 -28 1 -95 1 -95 -20 -34 -20 -34 -21 -13 -21
-14 -47 25 -47 25 -50 0 -49 0 -20 -32 -19 -32 -10 -47 -11 -48 -10 -183 -11
-183 -9 -55 -10 -55 -6 -29 -7 -28 114 6 114 7 206 14 205 14 23 -6 22 -6 -7
-16 -7 -16 -14 -60 -14 -60 6 -73 6 -74 20 -55 21 -54 34 -35 35 -34 60 0 60
0 38 19 37 20 37 41 36 41 7 45 6 44 -18 26 -19 27 -9 13 -10 12 11 25 11 25
49 16 48 16 120 15 120 15 75 11 75 11 63 15 63 16 -5 41 -6 41 -10 95 -11 95
-1 95 0 95 11 42 12 42 20 15 21 14 17 -6 16 -6 27 -19 27 -20 74 5 75 5 45
26 45 27 35 40 34 40 11 39 12 38 0 96 0 96 -10 25 -9 25 -21 21 -20 20 -47 0
-48 0 -70 -25 -70 -25 -38 0 -39 0 -33 33 -32 32 -12 55 -12 55 2 219 2 220
-49 28 -49 28 -85 31 -85 31 -165 39 -165 40 -37 24 -36 24 -7 21 -7 21 16 24
16 25 11 0 10 0 -3 23 -3 22 -50 17 -50 17 -55 1 -55 0 -35 -18z"/>
</g>
</svg>
