<?xml version="1.0" standalone="no"?>
<!DOCTYPE svg PUBLIC "-//W3C//DTD SVG 20010904//EN"
 "http://www.w3.org/TR/2001/REC-SVG-20010904/DTD/svg10.dtd">
<svg version="1.0" xmlns="http://www.w3.org/2000/svg"
 width="205.000000pt" height="244.000000pt" viewBox="0 0 205.000000 244.000000"
 preserveAspectRatio="xMidYMid meet">
<metadata>
Created by potrace 1.16, written by Peter Selinger 2001-2019
</metadata>
<g transform="translate(0.000000,244.000000) scale(0.100000,-0.100000)"
fill="#000000" stroke="none">
<path d="M731 2422 l-35 -17 -18 -26 -19 -26 -9 -40 -9 -40 8 -54 9 -54 16
-45 16 -45 0 -16 0 -17 -37 -17 -37 -18 -256 6 -255 7 -46 6 -47 6 -7 -127 -8
-127 7 -84 7 -84 15 -57 15 -58 24 -37 25 -37 32 -17 31 -16 61 4 61 4 33 24
32 24 16 -16 16 -16 11 -73 10 -74 -7 -56 -7 -55 -19 -32 -20 -32 -25 -12 -25
-11 -51 26 -51 27 -39 0 -39 0 -20 -32 -19 -32 -10 -47 -11 -48 -10 -183 -11
-183 -9 -55 -8 -55 -8 -18 -7 -19 99 7 99 6 217 14 216 15 32 -6 31 -7 -7 -16
-7 -16 -15 -40 -15 -40 0 -90 0 -90 23 -58 22 -58 34 -35 35 -34 50 0 50 0 37
19 37 19 33 37 34 36 9 32 9 32 0 12 0 11 -25 30 -25 30 0 24 0 24 13 17 12
16 44 16 44 15 121 15 121 15 75 11 75 11 62 15 62 15 -4 27 -4 26 -11 103
-11 103 -1 102 -1 102 12 43 12 42 24 16 24 16 23 -8 23 -7 27 -20 27 -20 65
5 65 6 45 26 44 26 35 40 34 40 11 39 12 38 0 86 0 86 -10 25 -9 25 -21 21
-20 20 -36 0 -36 0 -74 -26 -74 -25 -41 -1 -41 0 -27 19 -26 19 -20 40 -20 39
-2 250 -3 250 -47 27 -48 28 -85 31 -85 31 -164 39 -164 39 -34 21 -33 21 -10
18 -10 19 0 21 0 21 25 25 25 25 -5 9 -6 9 -51 16 -52 15 -40 0 -41 0 -34 -18z"/>
</g>
</svg>
