<?xml version="1.0" standalone="no"?>
<!DOCTYPE svg PUBLIC "-//W3C//DTD SVG 20010904//EN"
 "http://www.w3.org/TR/2001/REC-SVG-20010904/DTD/svg10.dtd">
<svg version="1.0" xmlns="http://www.w3.org/2000/svg"
 width="162.000000pt" height="238.000000pt" viewBox="0 0 162.000000 238.000000"
 preserveAspectRatio="xMidYMid meet">
<metadata>
Created by potrace 1.16, written by Peter Selinger 2001-2019
</metadata>
<g transform="translate(0.000000,238.000000) scale(0.100000,-0.100000)"
fill="#000000" stroke="none">
<path d="M613 2371 l-33 -8 -15 -13 -15 -12 0 -14 0 -13 23 -16 22 -15 0 -79
0 -80 -21 -28 -21 -28 -40 -27 -40 -28 -59 -16 -59 -17 -170 -1 -170 -1 -6
-105 -7 -105 -1 -150 -1 -150 11 -39 11 -39 25 -25 25 -25 60 6 60 5 50 26 50
26 17 0 18 0 17 -19 17 -19 15 -48 14 -47 0 -77 0 -77 -14 -48 -15 -48 -27
-28 -28 -29 -20 0 -21 0 -25 20 -25 20 -47 0 -47 0 -17 -17 -17 -17 -13 -32
-14 -33 -10 -123 -11 -123 -9 -101 -9 -102 -12 -26 -12 -26 7 -7 7 -8 242 0
242 0 30 -13 30 -13 23 -21 22 -22 10 -35 10 -36 -11 -62 -11 -62 -24 -32 -24
-33 0 -18 0 -18 26 -10 25 -10 147 0 147 0 48 28 47 28 25 34 25 34 10 36 10
35 0 44 0 43 -26 58 -26 58 11 20 11 20 37 13 37 12 100 -6 101 -7 110 -25
110 -26 49 -6 49 -6 -6 24 -7 24 -10 95 -9 95 -10 137 -10 137 -14 34 -14 33
-17 17 -17 17 -46 0 -46 0 -33 -21 -34 -20 -30 -1 -31 -1 -27 20 -27 20 -21
31 -22 31 -12 64 -12 64 11 56 10 57 16 30 15 30 25 6 24 6 38 -23 38 -24 83
0 83 0 39 41 38 41 16 71 16 71 0 208 0 208 -8 10 -7 11 -75 12 -75 12 -148
15 -148 15 -42 11 -42 11 -27 20 -28 19 0 25 0 25 19 37 18 37 7 29 7 29 -11
28 -12 28 -36 18 -37 18 -165 2 -165 2 -32 -8z"/>
</g>
</svg>
