<?xml version="1.0" standalone="no"?>
<!DOCTYPE svg PUBLIC "-//W3C//DTD SVG 20010904//EN"
 "http://www.w3.org/TR/2001/REC-SVG-20010904/DTD/svg10.dtd">
<svg version="1.0" xmlns="http://www.w3.org/2000/svg"
 width="160.000000pt" height="236.000000pt" viewBox="0 0 160.000000 236.000000"
 preserveAspectRatio="xMidYMid meet">
<metadata>
Created by potrace 1.16, written by Peter Selinger 2001-2019
</metadata>
<g transform="translate(0.000000,236.000000) scale(0.100000,-0.100000)"
fill="#000000" stroke="none">
<path d="M613 2351 l-33 -8 -16 -14 -16 -13 23 -19 24 -19 0 -88 0 -89 -21
-28 -21 -28 -40 -27 -40 -28 -59 -16 -59 -17 -170 -1 -170 -2 -6 -105 -7 -104
-1 -140 -1 -140 11 -39 11 -39 25 -25 25 -25 51 7 52 6 48 25 49 25 27 0 28 0
17 -19 17 -19 15 -48 14 -47 0 -87 0 -86 -15 -51 -15 -51 -36 -31 -36 -32 -21
7 -22 7 -27 18 -26 19 -35 0 -36 0 -17 -17 -17 -17 -13 -32 -14 -33 -10 -123
-11 -123 -9 -103 -10 -103 -10 -19 -11 -20 13 -1 13 -1 235 -1 235 -2 30 -13
30 -13 23 -22 22 -21 11 -39 11 -40 -12 -66 -11 -66 -26 -38 -26 -38 12 -12
12 -12 149 -3 150 -3 53 30 52 30 23 34 23 34 9 34 10 34 0 34 0 33 -26 59
-26 58 6 26 7 26 37 16 37 16 115 -6 115 -6 110 -26 110 -26 37 -5 36 -6 -9
39 -8 40 -11 159 -10 159 -6 50 -6 50 -13 30 -12 31 -17 17 -17 17 -36 0 -36
0 -34 -21 -35 -22 -38 -1 -39 -1 -28 21 -28 21 -21 31 -22 31 -12 65 -12 65 7
53 7 53 15 38 15 38 19 9 18 10 22 0 22 0 36 -22 36 -23 73 0 73 0 39 41 38
41 16 71 16 71 0 198 0 198 -8 10 -7 10 -10 0 -10 0 -60 12 -60 12 -155 16
-155 15 -40 11 -40 11 -27 20 -28 19 0 35 0 35 16 31 16 32 9 29 8 28 -11 24
-11 24 -36 18 -36 18 -155 2 -155 2 -32 -8z"/>
</g>
</svg>
