<?xml version="1.0" standalone="no"?>
<!DOCTYPE svg PUBLIC "-//W3C//DTD SVG 20010904//EN"
 "http://www.w3.org/TR/2001/REC-SVG-20010904/DTD/svg10.dtd">
<svg version="1.0" xmlns="http://www.w3.org/2000/svg"
 width="197.000000pt" height="164.000000pt" viewBox="0 0 197.000000 164.000000"
 preserveAspectRatio="xMidYMid meet">
<metadata>
Created by potrace 1.16, written by Peter Selinger 2001-2019
</metadata>
<g transform="translate(0.000000,164.000000) scale(0.100000,-0.100000)"
fill="#000000" stroke="none">
<path d="M0 834 l0 -801 103 -6 102 -6 190 -12 190 -12 45 9 45 10 3 22 4 23
-10 12 -10 12 -16 84 -16 83 0 49 0 50 14 34 14 34 33 16 33 17 82 -4 83 -4
47 -30 47 -29 28 -35 27 -35 6 -21 6 -21 -25 -27 -25 -27 0 -44 0 -45 39 -25
39 -26 93 -9 94 -10 140 -10 140 -10 21 -6 21 -6 11 59 11 58 11 150 10 150 6
45 6 45 13 30 12 31 17 17 17 17 26 0 25 0 28 -20 28 -20 30 -6 29 -6 36 32
37 32 15 51 15 51 0 96 0 97 -14 47 -15 48 -17 19 -17 19 -38 0 -37 0 -49 -25
-48 -25 -42 -6 -42 -6 -25 25 -25 25 -12 43 -11 44 7 244 7 243 -39 -6 -38 -7
-230 -9 -230 -9 -40 -12 -40 -11 -22 -21 -23 -20 0 -31 0 -31 20 -38 21 -38 6
-44 6 -44 -27 -55 -27 -55 -46 -26 -45 -27 -92 4 -92 4 -47 27 -47 28 -15 23
-16 23 -5 49 -5 49 21 75 21 75 6 38 5 38 -17 19 -17 18 -49 12 -48 12 -221
-4 -220 -3 0 -801z"/>
</g>
</svg>
