<?xml version="1.0" standalone="no"?>
<!DOCTYPE svg PUBLIC "-//W3C//DTD SVG 20010904//EN"
 "http://www.w3.org/TR/2001/REC-SVG-20010904/DTD/svg10.dtd">
<svg version="1.0" xmlns="http://www.w3.org/2000/svg"
 width="216.000000pt" height="207.000000pt" viewBox="0 0 216.000000 207.000000"
 preserveAspectRatio="xMidYMid meet">
<metadata>
Created by potrace 1.16, written by Peter Selinger 2001-2019
</metadata>
<g transform="translate(0.000000,207.000000) scale(0.100000,-0.100000)"
fill="#000000" stroke="none">
<path d="M1133 2055 l-32 -14 -7 -26 -6 -25 5 -23 5 -22 22 -51 23 -51 -7 -46
-7 -45 -28 -42 -28 -42 -49 -29 -49 -29 -125 0 -125 0 -22 6 -23 6 0 10 0 10
19 24 19 25 12 69 12 70 -7 40 -7 41 -24 29 -25 29 -37 13 -37 13 -237 0 -236
0 -6 -6 -6 -6 -2 -244 -2 -244 18 -60 18 -60 19 -27 19 -26 45 -18 45 -17 67
6 66 7 38 26 38 26 23 -7 23 -8 31 -31 31 -32 12 -37 12 -36 -11 -20 -10 -20
-43 -30 -43 -29 -64 -22 -65 -21 -87 -6 -87 -6 -54 27 -54 28 -28 -4 -28 -3
-21 -28 -21 -29 1 -101 1 -102 22 -100 21 -100 25 -81 25 -82 0 -31 0 -31 26
-6 26 -7 162 7 161 7 79 -11 80 -12 38 -19 39 -20 20 -32 20 -32 -6 -45 -5
-44 -25 -26 -25 -26 0 -22 0 -21 30 -35 31 -35 51 -17 50 -16 78 4 77 5 49 30
49 30 27 44 28 44 6 47 6 46 -27 55 -28 55 6 15 6 16 32 16 31 17 72 5 71 6
179 -18 178 -17 11 11 11 11 -13 33 -13 32 -34 87 -34 88 -21 87 -21 88 4 67
4 67 18 20 19 21 13 0 13 0 21 -22 20 -22 59 -4 60 -4 73 16 73 16 72 40 71
40 21 26 21 26 10 36 10 37 -7 55 -6 55 -18 36 -18 36 -38 19 -38 19 -95 -1
-95 -1 -68 -17 -68 -16 -10 0 -9 0 0 93 0 92 9 115 9 115 4 99 3 99 -95 23
-95 23 -89 16 -90 15 -90 0 -91 -1 -32 -14z"/>
</g>
</svg>
