<?xml version="1.0" standalone="no"?>
<!DOCTYPE svg PUBLIC "-//W3C//DTD SVG 20010904//EN"
 "http://www.w3.org/TR/2001/REC-SVG-20010904/DTD/svg10.dtd">
<svg version="1.0" xmlns="http://www.w3.org/2000/svg"
 width="214.000000pt" height="205.000000pt" viewBox="0 0 214.000000 205.000000"
 preserveAspectRatio="xMidYMid meet">
<metadata>
Created by potrace 1.16, written by Peter Selinger 2001-2019
</metadata>
<g transform="translate(0.000000,205.000000) scale(0.100000,-0.100000)"
fill="#000000" stroke="none">
<path d="M1133 2035 l-32 -14 -7 -26 -6 -26 26 -58 26 -59 0 -33 0 -34 -10
-34 -9 -34 -23 -34 -23 -34 -52 -30 -53 -30 -150 3 -149 3 -12 12 -12 12 26
38 26 38 11 66 12 66 -11 41 -11 41 -30 25 -31 25 -37 8 -37 8 -217 0 -216 0
-6 -6 -6 -6 -2 -234 -2 -234 18 -60 18 -60 19 -27 19 -26 45 -18 45 -17 58 7
57 7 37 26 38 26 31 -7 32 -6 33 -34 32 -33 13 -42 12 -41 -11 -24 -11 -24
-43 -30 -44 -30 -64 -22 -65 -21 -97 -6 -97 -6 -54 28 -54 27 -18 -4 -18 -3
-21 -28 -21 -28 1 -92 2 -92 21 -99 21 -98 29 -99 30 -100 -5 -13 -5 -14 22
-7 23 -8 161 8 160 7 85 -12 84 -11 38 -20 39 -20 20 -32 20 -32 -5 -54 -5
-54 -25 -26 -26 -27 0 -12 0 -11 30 -35 31 -35 51 -17 51 -16 67 4 66 5 49 28
48 28 28 44 28 45 6 39 7 39 -27 51 -26 51 3 26 3 26 33 19 33 20 87 4 87 5
164 -16 164 -17 9 9 8 8 -35 79 -34 80 -27 90 -27 90 -1 106 -1 107 19 21 19
21 23 0 23 0 20 -21 20 -22 50 -5 49 -4 74 16 73 16 70 39 70 39 18 20 19 21
13 38 13 38 -5 50 -6 50 -18 36 -18 36 -38 19 -38 19 -90 -2 -90 -2 -75 -19
-75 -20 -7 5 -8 4 0 102 0 102 10 115 9 115 3 89 2 89 -94 23 -95 23 -89 16
-90 15 -80 0 -81 -1 -32 -14z"/>
</g>
</svg>
