<?xml version="1.0" standalone="no"?>
<!DOCTYPE svg PUBLIC "-//W3C//DTD SVG 20010904//EN"
 "http://www.w3.org/TR/2001/REC-SVG-20010904/DTD/svg10.dtd">
<svg version="1.0" xmlns="http://www.w3.org/2000/svg"
 width="239.000000pt" height="200.000000pt" viewBox="0 0 239.000000 200.000000"
 preserveAspectRatio="xMidYMid meet">
<metadata>
Created by potrace 1.16, written by Peter Selinger 2001-2019
</metadata>
<g transform="translate(0.000000,200.000000) scale(0.100000,-0.100000)"
fill="#000000" stroke="none">
<path d="M568 1993 l-118 -4 0 -205 0 -205 -16 -71 -16 -71 -38 -41 -39 -41
-73 0 -73 0 -36 23 -36 22 -22 0 -22 0 -18 -10 -19 -9 -15 -38 -15 -38 -7 -53
-7 -53 12 -65 12 -65 22 -31 21 -31 28 -21 28 -21 39 1 38 1 35 22 34 21 36 0
36 0 17 -17 17 -17 14 -33 14 -34 10 -137 10 -137 10 -100 11 -100 1 -13 0
-13 27 6 27 6 174 0 174 1 60 -17 60 -16 22 -15 23 -14 6 -26 7 -26 -28 -83
-27 -84 6 -34 6 -34 26 -22 27 -23 31 -9 31 -9 100 -2 101 -1 39 19 39 18 36
36 36 36 14 47 13 47 -6 45 -7 45 -20 40 -20 39 0 25 0 25 15 15 16 15 42 12
42 11 95 -5 95 -6 134 -26 134 -26 9 9 9 9 9 59 9 59 11 183 10 183 11 48 10
47 19 32 20 32 39 0 39 0 51 -27 51 -26 25 11 25 12 20 32 19 32 7 55 7 56
-10 74 -11 73 -16 16 -16 16 -32 -24 -33 -24 -61 -4 -61 -4 -31 16 -32 17 -25
37 -24 37 -18 65 -18 65 1 202 1 201 -11 -4 -11 -4 -265 -14 -265 -15 -45 -16
-45 -16 -12 -16 -13 -17 0 -22 0 -21 20 -46 20 -45 6 -60 7 -60 -23 -46 -22
-47 -39 -19 -38 -20 -53 0 -53 0 -39 11 -39 11 -37 24 -37 25 -14 26 -14 26 1
41 1 41 22 41 22 41 5 49 6 49 -24 35 -23 35 -48 17 -47 18 -107 3 -108 4
-117 -4z"/>
</g>
</svg>
