<?xml version="1.0" standalone="no"?>
<!DOCTYPE svg PUBLIC "-//W3C//DTD SVG 20010904//EN"
 "http://www.w3.org/TR/2001/REC-SVG-20010904/DTD/svg10.dtd">
<svg version="1.0" xmlns="http://www.w3.org/2000/svg"
 width="208.000000pt" height="208.000000pt" viewBox="0 0 208.000000 208.000000"
 preserveAspectRatio="xMidYMid meet">
<metadata>
Created by potrace 1.16, written by Peter Selinger 2001-2019
</metadata>
<g transform="translate(0.000000,208.000000) scale(0.100000,-0.100000)"
fill="#000000" stroke="none">
<path d="M1552 2067 l-33 -12 -9 -15 -10 -15 0 -21 0 -20 26 -35 26 -34 -5
-52 -5 -51 -21 -46 -20 -45 -50 -50 -51 -50 -37 -10 -38 -11 -70 0 -70 0 -60
10 -60 10 -25 18 -25 19 -3 32 -3 32 21 37 22 37 5 55 4 55 -13 25 -14 25 -44
25 -45 25 -180 3 -180 3 -40 -8 -40 -9 2 -125 1 -124 11 -135 12 -135 5 -53 6
-53 -38 23 -39 23 -100 0 -100 0 -74 -24 -74 -24 -41 -32 -41 -31 -19 -35 -19
-35 7 -34 6 -35 28 -32 27 -32 45 -20 45 -21 67 0 68 0 67 25 68 26 23 -11 23
-10 17 -38 17 -37 -2 -295 -3 -295 188 8 187 8 75 -11 74 -11 23 -14 23 -15
16 -32 16 -31 -6 -43 -6 -43 -25 -62 -25 -62 0 -28 0 -27 18 -21 17 -21 54
-10 54 -10 82 0 82 0 54 10 54 10 37 17 38 18 0 12 0 12 -19 13 -18 13 -7 23
-8 23 16 24 16 25 30 15 30 15 127 35 128 34 60 21 60 21 68 40 68 41 -5 15
-6 15 0 777 0 778 -109 26 -109 27 -68 10 -69 10 -65 -1 -65 -1 -33 -11z"/>
</g>
</svg>
