<?xml version="1.0" standalone="no"?>
<!DOCTYPE svg PUBLIC "-//W3C//DTD SVG 20010904//EN"
 "http://www.w3.org/TR/2001/REC-SVG-20010904/DTD/svg10.dtd">
<svg version="1.0" xmlns="http://www.w3.org/2000/svg"
 width="200.000000pt" height="214.000000pt" viewBox="0 0 200.000000 214.000000"
 preserveAspectRatio="xMidYMid meet">
<metadata>
Created by potrace 1.16, written by Peter Selinger 2001-2019
</metadata>
<g transform="translate(0.000000,214.000000) scale(0.100000,-0.100000)"
fill="#000000" stroke="none">
<path d="M481 2133 l-94 -4 7 -128 7 -129 -11 -84 -11 -83 -24 -50 -24 -51
-33 -24 -33 -25 -78 0 -78 0 -10 18 -10 17 -24 0 -23 0 -11 -32 -10 -33 -11
-65 -10 -65 0 -46 0 -45 16 -55 16 -54 43 -42 42 -43 41 0 41 0 11 20 11 20
30 0 30 0 23 -23 24 -24 11 -52 11 -52 10 -167 11 -167 10 -65 10 -64 2 -2 2
-2 165 9 165 9 83 -10 82 -9 44 -20 44 -19 11 -21 12 -21 -23 -47 -22 -48 -4
-81 -4 -81 22 -52 23 -52 40 -34 41 -35 35 -10 36 -10 50 0 50 0 42 19 42 19
25 39 26 39 6 44 6 45 -15 60 -16 60 -13 44 -13 43 23 19 24 19 36 10 37 11
205 19 205 20 49 9 49 9 6 11 7 11 11 212 11 213 -8 64 -8 64 -20 26 -19 26
-41 3 -40 3 -22 -23 -21 -23 -40 1 -39 1 -42 29 -41 29 -23 35 -24 35 -10 53
-10 52 7 113 6 112 8 20 8 20 0 -17 1 -16 51 -12 51 -13 70 5 70 5 26 20 26
19 19 26 19 26 14 58 14 59 0 167 0 167 -10 6 -10 6 -62 -30 -63 -29 -63 -21
-62 -21 -149 -35 -150 -34 -29 -15 -30 -16 -16 -15 -16 -16 0 -35 0 -35 26
-45 26 -45 -11 -27 -12 -28 -32 -19 -32 -19 -90 -4 -90 -3 -35 18 -35 18 -22
34 -23 34 0 37 0 36 25 74 25 74 0 32 0 33 -12 25 -11 26 -22 14 -22 14 -54
17 -54 16 -145 3 -145 3 -94 -4z"/>
</g>
</svg>
