<?xml version="1.0" standalone="no"?>
<!DOCTYPE svg PUBLIC "-//W3C//DTD SVG 20010904//EN"
 "http://www.w3.org/TR/2001/REC-SVG-20010904/DTD/svg10.dtd">
<svg version="1.0" xmlns="http://www.w3.org/2000/svg"
 width="246.000000pt" height="205.000000pt" viewBox="0 0 246.000000 205.000000"
 preserveAspectRatio="xMidYMid meet">
<metadata>
Created by potrace 1.16, written by Peter Selinger 2001-2019
</metadata>
<g transform="translate(0.000000,205.000000) scale(0.100000,-0.100000)"
fill="#000000" stroke="none">
<path d="M603 2043 l-123 -4 0 -82 0 -82 16 -195 15 -195 -6 -32 -6 -33 -13 0
-13 0 -31 16 -31 15 -61 11 -60 11 -66 -12 -67 -12 -36 -19 -36 -18 -32 -34
-32 -33 -10 -28 -11 -28 0 -40 0 -40 14 -33 14 -33 27 -21 28 -22 39 0 39 0
59 25 59 25 23 0 23 -1 16 -12 16 -12 15 -30 15 -30 7 -28 7 -29 19 -181 19
-182 18 -96 17 -96 41 9 40 10 170 -5 170 -5 36 -11 36 -11 33 -23 33 -22 21
-28 21 -28 -1 -64 0 -63 -28 -62 -28 -61 6 -24 6 -23 27 -18 28 -18 111 -4
111 -4 40 21 41 20 31 38 30 37 12 54 12 53 -23 52 -23 52 -4 30 -5 30 19 16
18 16 35 13 35 12 254 9 254 8 10 -6 10 -6 -5 14 -5 14 28 50 27 50 17 50 16
49 34 149 35 149 20 33 20 33 16 6 16 6 28 0 28 0 33 -27 32 -27 22 26 23 27
12 69 13 69 -5 82 -5 81 -29 56 -29 57 -25 18 -25 19 -31 6 -32 6 -23 -23 -24
-24 -58 0 -59 0 -24 30 -24 30 -18 55 -17 55 0 200 0 200 -80 -11 -80 -12
-170 -12 -170 -11 -49 -10 -49 -9 -31 -18 -31 -18 -3 -36 -3 -37 20 -10 20
-11 7 -35 6 -36 -23 -71 -23 -71 -42 -45 -43 -45 -61 6 -60 5 -43 22 -42 22
-24 21 -24 22 -18 40 -19 40 0 38 0 38 26 55 26 55 5 40 6 40 -23 24 -22 24
-50 10 -49 11 -97 -2 -97 -2 -122 -3z"/>
</g>
</svg>
