<?xml version="1.0" standalone="no"?>
<!DOCTYPE svg PUBLIC "-//W3C//DTD SVG 20010904//EN"
 "http://www.w3.org/TR/2001/REC-SVG-20010904/DTD/svg10.dtd">
<svg version="1.0" xmlns="http://www.w3.org/2000/svg"
 width="170.000000pt" height="205.000000pt" viewBox="0 0 170.000000 205.000000"
 preserveAspectRatio="xMidYMid meet">
<metadata>
Created by potrace 1.16, written by Peter Selinger 2001-2019
</metadata>
<g transform="translate(0.000000,205.000000) scale(0.100000,-0.100000)"
fill="#000000" stroke="none">
<path d="M742 2036 l-44 -14 -19 -18 -19 -17 0 -32 0 -32 20 -23 20 -23 1 -36
1 -36 -2 -25 -2 -25 -14 -28 -15 -27 -39 -29 -40 -29 -67 -18 -68 -19 -203 0
-204 0 4 -265 3 -265 24 -53 24 -53 30 -21 30 -21 48 -5 49 -5 87 28 87 27 34
0 33 0 21 -18 21 -19 13 -32 14 -32 0 -33 -1 -33 -13 -24 -13 -23 -43 -29 -44
-30 -55 -16 -56 -17 -55 0 -55 -1 -43 23 -43 22 -44 0 -44 0 -20 -21 -20 -21
-7 -42 -7 -41 1 -100 1 -100 22 -191 23 -191 246 2 245 1 38 13 39 12 29 28
29 28 0 61 0 61 -13 13 -14 13 -11 21 -11 20 19 41 18 42 41 29 41 30 51 12
51 13 58 -6 58 -7 41 -16 41 -16 20 -26 20 -25 0 -33 0 -34 -25 -66 -25 -66 0
-17 0 -17 12 -26 12 -25 40 -17 40 -17 65 -5 66 -4 198 -4 197 -5 0 32 0 32
15 110 15 110 0 109 0 110 -21 43 -20 42 -36 7 -35 7 -64 -27 -64 -26 -33 0
-32 0 -36 24 -36 25 -23 48 -23 48 -5 80 -4 81 22 52 23 53 29 15 29 15 44
-25 44 -26 52 0 52 0 33 25 32 25 19 52 18 53 0 242 -1 242 -7 7 -7 7 -185
-18 -185 -18 -61 7 -61 6 -26 12 -26 13 -14 25 -15 26 27 55 26 56 0 47 0 47
-16 37 -15 37 -32 33 -32 34 -40 21 -40 21 -85 3 -85 3 -43 -14z"/>
</g>
</svg>
