<?xml version="1.0" standalone="no"?>
<!DOCTYPE svg PUBLIC "-//W3C//DTD SVG 20010904//EN"
 "http://www.w3.org/TR/2001/REC-SVG-20010904/DTD/svg10.dtd">
<svg version="1.0" xmlns="http://www.w3.org/2000/svg"
 width="168.000000pt" height="203.000000pt" viewBox="0 0 168.000000 203.000000"
 preserveAspectRatio="xMidYMid meet">
<metadata>
Created by potrace 1.16, written by Peter Selinger 2001-2019
</metadata>
<g transform="translate(0.000000,203.000000) scale(0.100000,-0.100000)"
fill="#000000" stroke="none">
<path d="M742 2016 l-44 -14 -19 -18 -19 -17 0 -22 0 -22 20 -23 20 -23 2 -36
2 -36 -3 -34 -2 -35 -15 -28 -15 -28 -39 -29 -40 -29 -67 -18 -68 -19 -203 0
-204 0 4 -255 3 -255 24 -53 24 -53 29 -20 29 -21 39 -5 39 -6 88 28 88 28 42
0 43 0 21 -19 22 -19 13 -32 14 -32 0 -43 -1 -43 -13 -24 -13 -23 -43 -29 -44
-30 -55 -16 -56 -17 -65 -1 -65 0 -43 23 -43 22 -34 0 -34 0 -20 -21 -19 -21
-7 -36 -7 -37 0 -95 1 -95 22 -190 23 -190 235 0 236 1 38 13 39 12 29 28 29
28 0 50 0 50 -20 23 -19 22 -6 19 -6 18 20 45 19 45 41 29 41 30 52 12 51 13
66 -6 67 -5 42 -17 42 -17 20 -26 20 -25 0 -43 0 -43 -26 -70 -26 -70 13 -29
12 -29 41 -17 40 -18 71 -4 70 -4 180 -4 180 -5 2 27 2 27 15 118 16 118 0 96
0 97 -21 42 -20 43 -29 6 -28 6 -61 -25 -60 -26 -43 0 -43 0 -36 24 -36 25
-23 48 -23 48 -5 92 -4 91 24 54 25 54 33 14 34 14 48 -27 48 -27 42 0 41 0
33 25 32 24 17 48 17 48 5 116 6 116 -8 127 -7 128 -52 -5 -51 -6 -148 -12
-147 -13 -68 11 -67 12 -22 26 -23 26 0 22 1 22 24 50 25 50 0 38 0 38 -16 37
-15 37 -32 33 -32 34 -40 21 -40 20 -75 4 -75 3 -43 -14z"/>
</g>
</svg>
