<?xml version="1.0" standalone="no"?>
<!DOCTYPE svg PUBLIC "-//W3C//DTD SVG 20010904//EN"
 "http://www.w3.org/TR/2001/REC-SVG-20010904/DTD/svg10.dtd">
<svg version="1.0" xmlns="http://www.w3.org/2000/svg"
 width="208.000000pt" height="200.000000pt" viewBox="0 0 208.000000 200.000000"
 preserveAspectRatio="xMidYMid meet">
<metadata>
Created by potrace 1.16, written by Peter Selinger 2001-2019
</metadata>
<g transform="translate(0.000000,200.000000) scale(0.100000,-0.100000)"
fill="#000000" stroke="none">
<path d="M664 1982 l-31 -20 -12 -33 -11 -32 0 -57 0 -58 16 -83 16 -84 10
-12 10 -13 -5 -14 -6 -14 -54 -7 -54 -7 -159 11 -159 12 -112 6 -113 6 0 -781
0 -781 11 -7 12 -7 136 -5 136 -4 86 15 87 15 45 26 45 27 16 33 16 34 0 29 0
29 -25 74 -25 74 0 39 0 39 28 28 29 28 44 12 44 12 130 -4 130 -4 42 -22 42
-22 11 -19 10 -20 -7 -18 -6 -18 -19 -24 -18 -24 0 -36 0 -37 31 -27 31 -27
52 -14 51 -15 110 -31 110 -30 75 -38 74 -37 18 -1 18 -1 -4 16 -5 16 -25 85
-26 85 -21 100 -21 100 -2 92 -1 92 21 28 21 28 18 3 18 4 54 -27 54 -28 97 6
97 6 65 21 64 22 44 30 43 30 11 24 11 24 -12 41 -13 42 -32 33 -33 34 -32 6
-31 7 -38 -26 -37 -26 -57 -7 -58 -7 -45 17 -45 18 -19 26 -19 27 -18 60 -18
60 2 241 2 241 -12 1 -13 0 -145 11 -145 11 -94 10 -93 9 -39 26 -39 25 0 35
0 34 26 28 26 28 -6 30 -6 30 -29 35 -28 35 -48 30 -47 29 -97 4 -96 3 -31
-19z"/>
</g>
</svg>
