<?xml version="1.0" standalone="no"?>
<!DOCTYPE svg PUBLIC "-//W3C//DTD SVG 20010904//EN"
 "http://www.w3.org/TR/2001/REC-SVG-20010904/DTD/svg10.dtd">
<svg version="1.0" xmlns="http://www.w3.org/2000/svg"
 width="178.000000pt" height="254.000000pt" viewBox="0 0 178.000000 254.000000"
 preserveAspectRatio="xMidYMid meet">
<metadata>
Created by potrace 1.16, written by Peter Selinger 2001-2019
</metadata>
<g transform="translate(0.000000,254.000000) scale(0.100000,-0.100000)"
fill="#000000" stroke="none">
<path d="M830 2534 l-25 -5 -27 -11 -28 -10 0 -35 0 -34 22 -42 22 -42 0 -50
1 -50 -22 -31 -23 -32 -42 -20 -43 -19 -53 -12 -53 -11 -208 0 -207 0 -12
-197 -12 -198 0 -92 0 -92 16 -15 15 -16 14 0 13 0 64 30 63 30 46 0 45 0 51
-15 50 -15 43 -29 43 -28 28 -43 29 -42 6 -35 7 -35 -12 -38 -11 -38 -44 -40
-44 -41 -49 -24 -49 -25 -59 -17 -59 -18 -61 0 -62 -1 -36 23 -36 22 -48 -3
-48 -3 -18 -35 -18 -35 5 -95 4 -95 26 -87 26 -87 37 -82 38 -82 155 7 155 6
89 -10 89 -9 54 -17 54 -17 40 -36 41 -36 5 -45 5 -45 -26 -49 -26 -49 0 -42
0 -41 25 -50 25 -49 37 -24 38 -24 59 0 58 1 42 29 41 29 32 48 33 48 12 41
12 42 0 90 0 90 -23 52 -23 53 5 14 6 15 33 18 33 17 95 -1 95 0 167 -29 167
-28 5 5 5 5 -9 64 -9 65 -10 206 -11 206 -11 54 -12 53 -27 28 -28 28 -25 0
-25 0 -66 -25 -66 -25 -43 0 -42 0 -32 20 -32 19 -11 22 -12 22 -9 30 -8 29
15 37 15 36 27 29 27 29 50 22 50 23 59 12 60 12 45 -6 45 -6 33 -20 34 -20
24 0 25 0 7 28 7 27 -13 170 -12 170 -6 118 -6 117 -24 0 -24 0 -60 -30 -60
-31 -92 -31 -92 -31 -95 -5 -95 -4 -28 22 -29 23 5 31 4 31 18 65 18 65 0 75
1 75 -12 36 -12 36 -28 26 -27 26 -39 16 -40 17 -90 3 -91 4 -25 -5z"/>
</g>
</svg>
