<?xml version="1.0" standalone="no"?>
<!DOCTYPE svg PUBLIC "-//W3C//DTD SVG 20010904//EN"
 "http://www.w3.org/TR/2001/REC-SVG-20010904/DTD/svg10.dtd">
<svg version="1.0" xmlns="http://www.w3.org/2000/svg"
 width="176.000000pt" height="252.000000pt" viewBox="0 0 176.000000 252.000000"
 preserveAspectRatio="xMidYMid meet">
<metadata>
Created by potrace 1.16, written by Peter Selinger 2001-2019
</metadata>
<g transform="translate(0.000000,252.000000) scale(0.100000,-0.100000)"
fill="#000000" stroke="none">
<path d="M830 2514 l-25 -5 -27 -11 -28 -10 0 -25 0 -24 22 -42 22 -42 0 -60
1 -60 -22 -31 -23 -32 -42 -20 -43 -19 -53 -12 -53 -11 -208 0 -207 0 -12
-197 -12 -198 0 -82 0 -82 16 -15 15 -16 4 0 3 0 67 31 66 32 73 -5 72 -5 55
-25 54 -25 34 -34 34 -34 18 -40 19 -40 0 -38 0 -38 -13 -32 -14 -32 -41 -37
-41 -37 -49 -25 -48 -24 -59 -18 -60 -17 -70 -1 -70 -1 -37 23 -37 23 -38 -3
-38 -3 -18 -35 -18 -35 5 -85 5 -85 25 -87 26 -87 37 -81 38 -82 150 6 150 7
95 -10 96 -10 53 -17 52 -17 41 -37 41 -36 5 -55 4 -54 -26 -49 -26 -49 0 -32
0 -31 25 -50 25 -49 36 -23 37 -24 50 0 51 1 40 28 41 29 32 48 33 48 12 41
12 42 0 80 0 80 -23 52 -23 51 4 23 3 23 35 20 35 21 110 -1 110 -2 148 -26
148 -26 8 0 8 0 -8 57 -8 58 -10 206 -11 206 -11 54 -12 53 -27 28 -28 28 -15
0 -15 0 -66 -25 -66 -25 -53 0 -52 0 -32 20 -32 19 -14 28 -15 28 -6 31 -7 32
16 38 16 39 27 29 27 29 51 22 51 23 62 13 62 12 50 -6 51 -6 35 -21 34 -20
14 0 15 0 6 27 7 28 -17 225 -16 225 0 53 0 52 -15 0 -16 0 -60 -30 -60 -31
-92 -31 -92 -31 -105 -5 -105 -4 -29 23 -28 22 5 46 6 46 16 55 16 55 1 70 2
70 -12 36 -12 36 -28 26 -27 26 -39 16 -38 16 -82 4 -81 4 -25 -5z"/>
</g>
</svg>
