<?xml version="1.0" standalone="no"?>
<!DOCTYPE svg PUBLIC "-//W3C//DTD SVG 20010904//EN"
 "http://www.w3.org/TR/2001/REC-SVG-20010904/DTD/svg10.dtd">
<svg version="1.0" xmlns="http://www.w3.org/2000/svg"
 width="213.000000pt" height="178.000000pt" viewBox="0 0 213.000000 178.000000"
 preserveAspectRatio="xMidYMid meet">
<metadata>
Created by potrace 1.16, written by Peter Selinger 2001-2019
</metadata>
<g transform="translate(0.000000,178.000000) scale(0.100000,-0.100000)"
fill="#000000" stroke="none">
<path d="M530 1774 l-25 -3 -190 -16 -190 -16 -51 -5 -51 -5 -7 -152 -6 -152
-7 -171 -6 -171 7 -28 7 -27 32 5 32 5 65 18 65 17 105 1 105 1 41 -19 41 -19
21 -32 22 -31 0 -33 0 -32 -19 -37 -19 -37 -24 -22 -23 -22 -50 -22 -50 -23
-55 0 -55 0 -49 22 -49 22 -38 0 -39 0 -19 -19 -20 -20 -12 -43 -12 -43 7
-259 6 -260 3 -2 2 -2 203 -12 203 -12 62 7 62 7 21 8 21 8 16 17 17 16 0 27
0 27 -21 45 -21 45 -8 33 -8 34 14 47 13 47 33 31 33 32 45 20 45 21 58 0 58
0 39 -20 39 -20 24 -32 25 -33 16 -48 16 -48 0 -53 0 -53 -21 -79 -22 -79 -4
-35 -5 -35 27 -25 27 -25 111 1 112 0 97 27 97 27 78 33 78 33 3 21 3 22 -35
75 -36 75 -25 88 -26 88 -5 75 -5 75 18 35 18 35 28 3 27 3 38 -23 37 -23 80
1 80 1 60 17 59 18 48 24 49 25 41 37 41 37 14 32 13 32 0 48 0 48 -19 40 -18
40 -34 34 -34 34 -55 26 -55 25 -81 4 -82 4 -57 -26 -57 -26 -13 0 -13 0 -6
16 -6 16 0 66 0 67 12 197 12 198 -8 7 -7 7 -32 -13 -32 -13 -75 -28 -75 -27
-127 -27 -126 -26 -43 -15 -43 -16 -23 -21 -23 -21 0 -34 0 -34 27 -25 28 -26
-18 -13 -18 -13 -63 -11 -63 -11 -59 0 -59 0 -45 21 -45 20 -33 32 -34 32 -26
50 -25 50 -1 65 -1 65 18 34 17 34 0 14 0 13 -27 -1 -28 -2 -25 -3z"/>
</g>
</svg>
