<?xml version="1.0" standalone="no"?>
<!DOCTYPE svg PUBLIC "-//W3C//DTD SVG 20010904//EN"
 "http://www.w3.org/TR/2001/REC-SVG-20010904/DTD/svg10.dtd">
<svg version="1.0" xmlns="http://www.w3.org/2000/svg"
 width="211.000000pt" height="176.000000pt" viewBox="0 0 211.000000 176.000000"
 preserveAspectRatio="xMidYMid meet">
<metadata>
Created by potrace 1.16, written by Peter Selinger 2001-2019
</metadata>
<g transform="translate(0.000000,176.000000) scale(0.100000,-0.100000)"
fill="#000000" stroke="none">
<path d="M530 1754 l-25 -3 -190 -16 -190 -16 -51 -5 -51 -5 -7 -152 -6 -152
-6 -175 -5 -175 9 -14 10 -14 54 16 53 17 75 11 75 11 70 -4 70 -5 41 -18 41
-18 21 -32 22 -31 0 -43 0 -42 -19 -37 -19 -37 -24 -22 -23 -22 -48 -21 -47
-21 -48 -6 -47 -5 -60 22 -60 22 -37 5 -36 5 -21 -21 -20 -20 -12 -43 -12 -43
7 -249 7 -250 2 -2 2 -2 198 -12 197 -11 58 6 57 7 33 15 32 15 6 23 6 24 -25
58 -25 58 -7 28 -6 29 15 52 15 51 33 32 33 32 47 21 48 21 63 0 64 1 41 -21
41 -21 24 -32 25 -33 16 -48 16 -48 0 -63 0 -63 -21 -79 -21 -79 -5 -25 -5
-25 27 -25 27 -25 101 1 102 1 85 23 85 23 88 35 89 35 5 13 5 13 -36 75 -36
75 -26 88 -25 88 -5 85 -5 85 18 35 18 35 38 3 38 3 37 -23 37 -23 70 1 70 1
60 17 59 18 48 24 49 25 41 37 41 37 14 32 13 32 0 38 0 38 -19 40 -18 40 -34
34 -34 34 -54 25 -55 25 -72 5 -73 5 -66 -32 -67 -31 -3 0 -4 0 -15 16 -16 15
0 87 0 87 12 183 11 182 -5 6 -6 5 -39 -19 -38 -19 -65 -21 -65 -21 -122 -26
-122 -26 -43 -15 -42 -15 -23 -21 -23 -21 0 -24 0 -24 26 -24 26 -24 -4 -18
-3 -18 -40 -13 -40 -14 -97 -5 -98 -6 -46 18 -47 18 -39 35 -40 36 -26 50 -26
51 0 75 -1 75 18 34 17 34 0 4 0 3 -17 -1 -18 -2 -25 -3z"/>
</g>
</svg>
