<?xml version="1.0" standalone="no"?>
<!DOCTYPE svg PUBLIC "-//W3C//DTD SVG 20010904//EN"
 "http://www.w3.org/TR/2001/REC-SVG-20010904/DTD/svg10.dtd">
<svg version="1.0" xmlns="http://www.w3.org/2000/svg"
 width="211.000000pt" height="204.000000pt" viewBox="0 0 211.000000 204.000000"
 preserveAspectRatio="xMidYMid meet">
<metadata>
Created by potrace 1.16, written by Peter Selinger 2001-2019
</metadata>
<g transform="translate(0.000000,204.000000) scale(0.100000,-0.100000)"
fill="#000000" stroke="none">
<path d="M1135 2030 l-51 -7 -34 -18 -35 -17 -33 -31 -33 -32 -15 -53 -16 -53
7 -40 7 -41 24 -53 24 -53 -6 -15 -6 -15 -35 -17 -36 -17 -96 -2 -96 -1 -155
8 -155 9 3 -236 4 -235 -16 -55 -16 -55 -26 -20 -27 -21 -36 0 -36 0 -47 25
-47 25 -38 0 -38 -1 -16 -12 -16 -12 -18 -35 -18 -35 -5 -77 -4 -77 6 -36 7
-36 43 -44 43 -45 42 0 43 0 30 25 30 25 12 0 13 0 21 -22 21 -23 9 -26 10
-26 11 -94 10 -94 11 -129 11 -130 10 -49 9 -50 0 -3 0 -4 809 0 808 0 21 50
21 50 20 73 20 72 11 83 11 83 -7 47 -7 47 -13 27 -14 28 -26 6 -25 6 -30 -6
-31 -6 -25 -20 -26 -20 -36 0 -36 0 -54 15 -53 14 -55 28 -55 27 -49 53 -48
54 -7 35 -6 35 4 51 5 52 27 23 27 23 19 0 19 0 78 -25 78 -25 57 0 56 0 41
38 40 38 15 41 15 42 10 76 11 76 0 88 0 88 -7 106 -6 107 -17 0 -16 0 -10
-10 -9 -9 -74 -31 -75 -30 -95 -27 -96 -26 -92 -1 -92 -1 -27 26 -26 26 22 69
22 69 5 92 6 92 -18 53 -17 53 -24 33 -25 32 -37 19 -37 18 -40 5 -40 5 -50
-7z"/>
</g>
</svg>
