<?xml version="1.0" standalone="no"?>
<!DOCTYPE svg PUBLIC "-//W3C//DTD SVG 20010904//EN"
 "http://www.w3.org/TR/2001/REC-SVG-20010904/DTD/svg10.dtd">
<svg version="1.0" xmlns="http://www.w3.org/2000/svg"
 width="172.000000pt" height="164.000000pt" viewBox="0 0 172.000000 164.000000"
 preserveAspectRatio="xMidYMid meet">
<metadata>
Created by potrace 1.16, written by Peter Selinger 2001-2019
</metadata>
<g transform="translate(0.000000,164.000000) scale(0.100000,-0.100000)"
fill="#000000" stroke="none">
<path d="M390 1624 l-205 -14 -71 -6 -71 -5 -7 -107 -8 -107 -14 -125 -14
-125 0 -36 0 -36 52 14 53 15 91 5 92 6 48 -8 48 -7 42 -42 42 -43 11 -52 11
-52 0 -66 0 -67 -21 -43 -21 -44 -29 -14 -28 -15 -23 0 -23 0 -47 25 -47 25
-23 0 -23 0 -11 -8 -11 -7 -13 -24 -12 -24 -9 -31 -9 -31 -30 -205 -30 -205
-19 -66 -19 -66 77 -7 76 -6 205 -6 205 -6 28 11 27 11 0 19 0 20 -25 47 -25
47 0 32 0 32 12 34 11 34 29 43 29 42 42 22 42 22 55 0 55 -1 40 -21 40 -20
32 -34 32 -33 10 -28 11 -28 0 -32 -1 -32 -24 -40 -25 -40 0 -27 0 -27 22 -21
22 -20 35 -10 36 -10 110 1 110 0 130 13 130 13 11 -4 10 -4 42 168 41 168 12
83 12 84 -6 65 -5 65 -19 27 -20 26 -30 3 -30 3 -48 -25 -48 -26 -40 0 -39 0
-61 16 -61 16 -37 18 -37 19 -31 31 -31 32 0 53 0 54 11 28 10 28 21 22 21 22
27 6 27 6 97 -32 96 -31 35 6 34 7 20 27 19 27 13 45 13 45 -2 240 -3 240 -7
7 -7 7 -55 -14 -55 -14 -75 -10 -75 -11 -121 -15 -121 -15 -44 -15 -44 -16
-12 -16 -13 -17 0 -24 0 -24 25 -30 25 -30 0 -11 0 -12 -9 -32 -9 -32 -34 -36
-33 -37 -37 -19 -37 -19 -50 0 -50 0 -35 34 -34 35 -20 53 -19 53 -7 57 -7 56
11 63 12 63 15 29 14 29 -4 5 -5 4 -53 4 -54 4 -205 -15z"/>
</g>
</svg>
