<?xml version="1.0" standalone="no"?>
<!DOCTYPE svg PUBLIC "-//W3C//DTD SVG 20010904//EN"
 "http://www.w3.org/TR/2001/REC-SVG-20010904/DTD/svg10.dtd">
<svg version="1.0" xmlns="http://www.w3.org/2000/svg"
 width="210.000000pt" height="203.000000pt" viewBox="0 0 210.000000 203.000000"
 preserveAspectRatio="xMidYMid meet">
<metadata>
Created by potrace 1.16, written by Peter Selinger 2001-2019
</metadata>
<g transform="translate(0.000000,203.000000) scale(0.100000,-0.100000)"
fill="#000000" stroke="none">
<path d="M1070 2020 l-34 -8 -13 -18 -13 -18 0 -18 0 -19 25 -59 25 -59 0 -46
0 -46 -14 -27 -14 -27 -24 -22 -23 -22 -45 -20 -45 -20 -84 -11 -85 -11 -115
3 -116 3 -6 -215 -6 -215 -11 -32 -10 -32 -18 -30 -17 -29 -24 -13 -25 -13
-91 24 -92 24 -60 0 -61 1 -26 -17 -27 -18 -10 -37 -11 -38 0 -100 0 -100 19
-31 19 -32 34 -25 33 -25 50 -17 50 -18 95 0 95 -1 79 24 78 24 17 -11 16 -10
13 -39 14 -39 -7 -65 -6 -65 -19 -88 -20 -89 -35 -103 -35 -103 0 -11 0 -11
796 0 796 0 -5 23 -5 22 -35 90 -35 90 -31 145 -30 145 -12 34 -12 35 -26 29
-26 29 -48 -5 -47 -4 -21 -19 -20 -18 -9 14 -9 15 -7 43 -6 42 4 98 4 97 22
43 23 43 35 17 36 16 61 -23 62 -23 42 -5 41 -5 21 21 20 20 15 52 16 53 0
181 0 182 -6 47 -7 46 -15 0 -16 0 -83 -36 -83 -35 -97 -25 -98 -25 -65 -2
-65 -2 -26 7 -27 8 -16 25 -17 26 27 77 26 77 -4 81 -4 82 -32 65 -32 65 -33
24 -32 24 -28 12 -28 12 -117 -1 -117 -1 -35 -8z"/>
</g>
</svg>
