<?xml version="1.0" standalone="no"?>
<!DOCTYPE svg PUBLIC "-//W3C//DTD SVG 20010904//EN"
 "http://www.w3.org/TR/2001/REC-SVG-20010904/DTD/svg10.dtd">
<svg version="1.0" xmlns="http://www.w3.org/2000/svg"
 width="249.000000pt" height="212.000000pt" viewBox="0 0 249.000000 212.000000"
 preserveAspectRatio="xMidYMid meet">
<metadata>
Created by potrace 1.16, written by Peter Selinger 2001-2019
</metadata>
<g transform="translate(0.000000,212.000000) scale(0.100000,-0.100000)"
fill="#000000" stroke="none">
<path d="M1427 2106 l-47 -13 -20 -18 -20 -18 0 -29 0 -29 21 -40 20 -40 6
-47 5 -47 -12 -44 -11 -43 -48 -48 -48 -48 -47 -10 -47 -10 -32 8 -32 7 -30
15 -30 16 -34 39 -34 38 -20 44 -19 44 -5 57 -6 58 7 35 7 35 24 36 25 37 0 9
0 10 -62 0 -63 0 -145 -10 -145 -10 -96 -6 -96 -6 1 -236 1 -237 -18 -53 -19
-52 -32 -25 -33 -25 -34 0 -34 1 -40 24 -40 25 -23 0 -23 0 -28 -15 -28 -14
-23 -52 -22 -53 4 -100 4 -101 24 -48 23 -48 36 -25 36 -24 53 0 53 0 58 24
58 25 21 -6 21 -5 21 -42 20 -42 0 -86 0 -86 -16 -124 -16 -123 -2 -30 -1 -30
240 0 240 0 43 -14 43 -14 24 -25 25 -25 0 -16 0 -16 -21 -40 -22 -40 -5 -61
-5 -61 13 -37 12 -36 41 -44 42 -45 28 -10 28 -11 55 0 55 0 32 14 32 13 34
38 34 39 18 40 19 41 0 62 0 62 -20 11 -20 11 0 22 0 22 8 11 7 11 31 16 31
16 84 10 84 11 145 10 145 11 35 7 35 8 0 279 0 280 18 32 17 33 25 6 25 6 53
-23 52 -23 75 0 75 -1 50 23 50 23 23 22 24 22 19 37 19 37 0 52 0 53 -22 31
-21 32 -41 18 -41 18 -77 5 -77 4 -83 -12 -83 -12 -40 -13 -39 -14 -8 12 -8
12 0 97 0 98 10 147 9 148 4 86 3 85 -200 17 -201 17 -50 0 -50 -1 -48 -13z"/>
</g>
</svg>
