<?xml version="1.0" standalone="no"?>
<!DOCTYPE svg PUBLIC "-//W3C//DTD SVG 20010904//EN"
 "http://www.w3.org/TR/2001/REC-SVG-20010904/DTD/svg10.dtd">
<svg version="1.0" xmlns="http://www.w3.org/2000/svg"
 width="247.000000pt" height="210.000000pt" viewBox="0 0 247.000000 210.000000"
 preserveAspectRatio="xMidYMid meet">
<metadata>
Created by potrace 1.16, written by Peter Selinger 2001-2019
</metadata>
<g transform="translate(0.000000,210.000000) scale(0.100000,-0.100000)"
fill="#000000" stroke="none">
<path d="M1427 2086 l-47 -13 -20 -18 -20 -18 0 -19 0 -19 21 -41 21 -42 5
-55 5 -56 -12 -44 -11 -43 -48 -48 -48 -48 -51 -11 -51 -11 -33 7 -33 6 -35
17 -35 18 -34 39 -34 38 -20 45 -20 45 -5 66 -5 67 7 35 7 35 24 36 24 36 -52
0 -52 0 -145 -10 -145 -10 -96 -6 -95 -6 0 -236 1 -237 -18 -53 -19 -52 -32
-25 -33 -25 -41 0 -42 0 -48 27 -48 27 -34 -14 -33 -14 -25 -54 -24 -54 4 -91
5 -92 23 -48 23 -48 36 -25 36 -24 43 0 43 0 60 26 61 25 28 -6 29 -6 20 -43
21 -42 0 -97 0 -96 -15 -118 -15 -118 -3 -25 -2 -25 240 0 240 0 43 -14 43
-14 24 -25 25 -25 0 -26 0 -26 -21 -39 -21 -39 -5 -52 -6 -52 13 -37 12 -36
41 -44 42 -45 28 -10 28 -11 45 0 45 0 32 14 32 13 34 38 34 39 18 40 19 41 0
53 0 53 -16 6 -16 6 -9 23 -9 24 11 24 11 23 33 16 34 16 83 10 83 11 145 10
145 11 35 7 35 8 -4 254 -3 255 11 43 12 43 20 20 21 21 36 -5 37 -5 60 -22
60 -22 47 5 48 6 47 21 48 21 23 22 24 22 19 37 19 37 0 42 0 43 -22 31 -21
32 -41 18 -41 18 -70 5 -70 4 -75 -11 -75 -11 -53 -17 -54 -16 -10 14 -9 14 6
195 7 195 6 136 7 135 -200 17 -200 17 -40 0 -40 -1 -48 -13z"/>
</g>
</svg>
