<?xml version="1.0" standalone="no"?>
<!DOCTYPE svg PUBLIC "-//W3C//DTD SVG 20010904//EN"
 "http://www.w3.org/TR/2001/REC-SVG-20010904/DTD/svg10.dtd">
<svg version="1.0" xmlns="http://www.w3.org/2000/svg"
 width="203.000000pt" height="201.000000pt" viewBox="0 0 203.000000 201.000000"
 preserveAspectRatio="xMidYMid meet">
<metadata>
Created by potrace 1.16, written by Peter Selinger 2001-2019
</metadata>
<g transform="translate(0.000000,201.000000) scale(0.100000,-0.100000)"
fill="#000000" stroke="none">
<path d="M750 1995 l-45 -14 -37 -31 -36 -30 -17 -45 -17 -44 6 -24 5 -23 21
-24 20 -23 0 -40 0 -40 -29 -28 -29 -28 -39 -13 -38 -12 -232 -1 -231 0 -4 -5
-5 -5 -22 -270 -22 -270 1 -45 0 -45 8 -12 8 -13 70 15 69 14 95 9 95 10 50
-8 50 -8 27 -12 27 -13 15 -39 16 -38 0 -53 0 -53 -15 -45 -16 -44 -17 -21
-17 -21 -28 -17 -27 -18 -48 -1 -47 -1 -67 23 -67 22 -42 -3 -43 -3 -18 -31
-18 -30 -11 -80 -11 -79 7 -193 7 -192 804 0 804 0 28 58 29 57 16 50 17 50
34 152 35 152 16 31 16 31 24 11 24 11 27 -19 27 -19 13 -10 14 -10 17 11 17
11 9 33 9 34 -4 161 -3 160 -18 33 -18 33 -20 20 -19 19 -35 0 -35 0 -55 -27
-55 -27 -33 16 -34 16 -21 44 -21 43 -12 75 -12 75 7 153 6 152 -12 1 -13 1
-235 7 -235 8 -40 18 -41 18 -11 24 -12 24 25 65 24 64 0 54 0 53 -20 25 -20
26 -42 17 -43 17 -90 4 -90 4 -45 -15z"/>
</g>
</svg>
