<?xml version="1.0" standalone="no"?>
<!DOCTYPE svg PUBLIC "-//W3C//DTD SVG 20010904//EN"
 "http://www.w3.org/TR/2001/REC-SVG-20010904/DTD/svg10.dtd">
<svg version="1.0" xmlns="http://www.w3.org/2000/svg"
 width="220.000000pt" height="213.000000pt" viewBox="0 0 220.000000 213.000000"
 preserveAspectRatio="xMidYMid meet">
<metadata>
Created by potrace 1.16, written by Peter Selinger 2001-2019
</metadata>
<g transform="translate(0.000000,213.000000) scale(0.100000,-0.100000)"
fill="#000000" stroke="none">
<path d="M230 2121 l-115 -6 -12 -7 -11 -8 -7 -112 -7 -113 12 -104 11 -104
19 -49 19 -49 26 -35 26 -34 32 -17 32 -17 80 -1 80 0 38 23 38 22 14 0 15 0
16 -25 16 -25 8 -62 8 -63 -10 -42 -10 -42 -34 -40 -35 -40 -64 -32 -64 -31
-63 -5 -64 -5 -52 26 -51 26 -31 0 -30 0 -19 -19 -20 -20 -12 -43 -11 -43 6
-95 6 -95 20 -90 20 -90 21 -71 21 -72 67 5 66 4 44 3 44 4 100 -9 100 -8 51
-15 51 -15 48 -31 48 -30 19 -43 20 -42 0 -40 0 -40 -25 -53 -25 -54 0 -37 0
-37 28 -27 28 -27 60 -11 59 -11 48 6 48 5 39 22 40 23 14 21 15 22 6 37 7 36
-27 56 -27 55 6 24 6 23 42 21 43 20 175 35 175 35 60 20 60 20 38 16 37 15 0
38 0 37 -20 150 -20 150 0 106 0 107 6 30 6 31 20 20 19 21 24 0 24 0 43 -22
43 -23 75 0 75 1 56 17 55 16 44 30 43 29 13 23 13 24 1 53 0 53 -14 32 -13
32 -22 20 -22 19 -52 0 -52 -1 -85 -27 -85 -28 -33 6 -32 5 -29 20 -28 20 -24
53 -24 53 -3 253 -4 252 -8 0 -7 0 -54 -10 -54 -10 -170 -15 -170 -15 -61 -11
-62 -11 -31 -19 -31 -19 0 -38 0 -38 21 -59 21 -60 1 -51 1 -51 -28 -43 -27
-42 -42 -19 -42 -19 -30 0 -30 0 -36 10 -35 10 -41 35 -40 34 -23 52 -22 53 4
60 4 61 22 47 22 47 0 26 0 26 -24 24 -24 24 -52 15 -52 16 -117 4 -116 4
-115 -7z"/>
</g>
</svg>
