<?xml version="1.0" standalone="no"?>
<!DOCTYPE svg PUBLIC "-//W3C//DTD SVG 20010904//EN"
 "http://www.w3.org/TR/2001/REC-SVG-20010904/DTD/svg10.dtd">
<svg version="1.0" xmlns="http://www.w3.org/2000/svg"
 width="218.000000pt" height="211.000000pt" viewBox="0 0 218.000000 211.000000"
 preserveAspectRatio="xMidYMid meet">
<metadata>
Created by potrace 1.16, written by Peter Selinger 2001-2019
</metadata>
<g transform="translate(0.000000,211.000000) scale(0.100000,-0.100000)"
fill="#000000" stroke="none">
<path d="M230 2101 l-115 -6 -11 -7 -12 -8 -7 -102 -7 -103 12 -104 11 -104
19 -49 19 -49 26 -35 26 -34 32 -17 32 -17 70 0 71 0 37 22 38 22 24 0 25 0
16 -25 16 -24 9 -72 9 -71 -11 -44 -11 -43 -34 -40 -35 -40 -64 -32 -65 -32
-71 -5 -71 -5 -58 28 -58 28 -26 -7 -26 -6 -17 -33 -18 -32 1 -105 1 -105 22
-95 21 -95 21 -70 20 -70 107 6 107 7 105 -9 105 -9 50 -14 50 -15 48 -31 48
-30 19 -43 20 -42 0 -50 0 -50 -25 -53 -25 -54 0 -27 0 -27 28 -27 28 -27 59
-11 59 -11 41 7 40 6 40 24 41 23 11 24 12 23 6 23 7 23 -25 52 -25 52 -3 15
-3 15 8 22 7 22 42 20 42 20 175 35 175 35 60 20 60 20 38 16 37 15 0 25 0 24
-20 157 -20 157 -1 106 -1 106 7 37 7 36 19 21 20 21 34 0 34 0 43 -22 43 -23
65 0 65 1 56 17 55 16 44 30 43 29 13 23 13 24 1 43 0 43 -14 32 -13 32 -22
19 -21 19 -43 0 -42 0 -88 -28 -88 -28 -39 6 -39 5 -29 21 -29 20 -24 53 -24
53 -3 253 -4 253 -16 -5 -17 -5 -75 -10 -75 -10 -135 -11 -135 -11 -57 -11
-57 -10 -30 -19 -31 -19 0 -28 0 -28 21 -59 22 -60 1 -61 1 -60 -28 -43 -28
-43 -42 -19 -42 -19 -40 0 -40 0 -36 10 -35 10 -41 35 -40 34 -23 52 -22 52 4
71 4 71 22 47 22 47 0 16 0 16 -24 24 -24 24 -51 15 -51 15 -108 4 -107 5
-115 -7z"/>
</g>
</svg>
