<?xml version="1.0" standalone="no"?>
<!DOCTYPE svg PUBLIC "-//W3C//DTD SVG 20010904//EN"
 "http://www.w3.org/TR/2001/REC-SVG-20010904/DTD/svg10.dtd">
<svg version="1.0" xmlns="http://www.w3.org/2000/svg"
 width="250.000000pt" height="206.000000pt" viewBox="0 0 250.000000 206.000000"
 preserveAspectRatio="xMidYMid meet">
<metadata>
Created by potrace 1.16, written by Peter Selinger 2001-2019
</metadata>
<g transform="translate(0.000000,206.000000) scale(0.100000,-0.100000)"
fill="#000000" stroke="none">
<path d="M472 2053 l-33 -4 3 -247 2 -247 -13 -45 -13 -45 -19 -27 -19 -26
-28 -7 -28 -6 -94 32 -95 31 -34 -6 -33 -5 -21 -18 -20 -18 -13 -32 -14 -32 0
-65 0 -64 31 -32 31 -31 37 -19 37 -18 61 -16 61 -16 49 0 50 0 47 25 47 25
19 0 19 0 20 -26 20 -25 7 -47 7 -47 -11 -95 -12 -95 -42 -167 -42 -168 8 -7
7 -7 237 17 237 18 58 -1 57 0 0 -8 0 -7 -15 -70 -15 -70 0 -102 0 -103 16
-40 16 -40 35 -21 35 -22 74 -5 74 -5 43 17 43 16 30 32 31 33 11 22 12 22 0
30 0 31 -25 22 -25 22 0 17 0 18 27 20 26 21 51 15 51 14 135 21 135 21 60 15
60 15 48 17 49 17 -5 25 -5 25 -30 117 -31 116 -12 88 -11 87 6 44 6 43 15 29
15 30 19 6 20 6 52 -27 53 -26 82 4 82 4 66 33 65 32 35 40 34 41 12 47 11 47
-10 77 -9 78 -16 24 -16 25 -35 0 -34 0 -37 -22 -37 -22 -61 0 -61 1 -33 17
-32 17 -30 40 -29 40 -15 47 -16 47 -10 94 -11 95 7 113 7 113 -11 0 -10 0
-59 -15 -58 -14 -150 -16 -150 -16 -53 -15 -53 -15 -19 -19 -20 -20 0 -31 0
-30 26 -56 27 -55 -12 -38 -11 -38 -35 -31 -36 -31 -37 -16 -37 -15 -65 -6
-65 -5 -45 24 -45 24 -22 34 -23 33 0 23 0 24 21 21 20 20 9 53 9 53 -8 34 -8
34 -13 26 -12 27 -47 21 -46 21 -54 10 -54 10 -186 -2 -186 -1 -33 -4z"/>
</g>
</svg>
