<?xml version="1.0" standalone="no"?>
<!DOCTYPE svg PUBLIC "-//W3C//DTD SVG 20010904//EN"
 "http://www.w3.org/TR/2001/REC-SVG-20010904/DTD/svg10.dtd">
<svg version="1.0" xmlns="http://www.w3.org/2000/svg"
 width="248.000000pt" height="204.000000pt" viewBox="0 0 248.000000 204.000000"
 preserveAspectRatio="xMidYMid meet">
<metadata>
Created by potrace 1.16, written by Peter Selinger 2001-2019
</metadata>
<g transform="translate(0.000000,204.000000) scale(0.100000,-0.100000)"
fill="#000000" stroke="none">
<path d="M472 2033 l-33 -4 3 -247 2 -247 -13 -45 -13 -45 -19 -27 -20 -27
-34 -7 -35 -6 -96 31 -97 32 -27 -6 -27 -6 -21 -22 -21 -22 -10 -28 -11 -28 0
-54 0 -53 31 -32 31 -31 37 -19 37 -18 61 -16 61 -16 39 0 40 0 48 26 48 25
30 -3 30 -3 19 -26 20 -26 5 -62 6 -61 -13 -93 -12 -92 -39 -154 -39 -154 5
-5 5 -5 222 17 223 16 78 0 78 0 -6 -19 -5 -18 -15 -69 -15 -69 0 -92 0 -93
16 -40 16 -40 35 -21 34 -21 65 -6 64 -5 43 17 43 16 30 32 31 33 11 22 12 22
0 20 0 21 -25 22 -25 22 0 27 0 28 27 20 26 21 51 15 51 14 135 21 135 21 60
15 60 15 48 17 48 16 -6 21 -6 20 -29 112 -29 111 -12 88 -11 88 5 52 5 52 16
31 16 31 26 6 26 7 58 -28 58 -28 71 5 71 5 65 32 64 32 35 40 34 40 11 43 11
44 -9 71 -9 72 -16 24 -16 25 -25 0 -24 0 -38 -22 -37 -22 -71 0 -70 0 -33 17
-32 18 -30 40 -29 40 -15 47 -16 47 -10 95 -11 95 7 114 7 114 -18 -7 -18 -7
-41 -9 -41 -9 -150 -16 -150 -16 -53 -15 -53 -15 -19 -19 -20 -20 0 -22 1 -23
24 -50 25 -50 0 -23 0 -23 -14 -32 -13 -33 -33 -27 -32 -28 -37 -15 -36 -16
-75 -5 -75 -5 -45 24 -45 24 -22 34 -23 33 0 33 0 34 19 19 19 19 6 20 7 20 1
46 1 47 -18 38 -17 38 -46 22 -47 21 -54 10 -54 10 -176 -2 -176 -1 -33 -4z"/>
</g>
</svg>
