<?xml version="1.0" standalone="no"?>
<!DOCTYPE svg PUBLIC "-//W3C//DTD SVG 20010904//EN"
 "http://www.w3.org/TR/2001/REC-SVG-20010904/DTD/svg10.dtd">
<svg version="1.0" xmlns="http://www.w3.org/2000/svg"
 width="201.000000pt" height="208.000000pt" viewBox="0 0 201.000000 208.000000"
 preserveAspectRatio="xMidYMid meet">
<metadata>
Created by potrace 1.16, written by Peter Selinger 2001-2019
</metadata>
<g transform="translate(0.000000,208.000000) scale(0.100000,-0.100000)"
fill="#000000" stroke="none">
<path d="M625 2066 l-40 -15 -22 -26 -23 -26 0 -48 0 -47 25 -74 25 -74 0 -19
0 -19 -16 -34 -16 -33 -45 -27 -45 -26 -87 -15 -86 -15 -125 5 -125 6 -22 7
-23 6 0 -796 0 -796 800 0 801 0 -7 237 -7 238 13 45 12 45 15 17 16 18 17 0
18 0 43 -20 44 -20 67 0 68 0 44 43 44 42 12 60 12 60 -5 78 -5 78 -16 24 -16
25 -17 0 -17 0 -38 -26 -38 -27 -54 5 -55 5 -35 27 -36 27 -26 51 -26 50 -15
72 -16 71 1 179 1 179 -12 11 -12 11 -85 42 -85 43 -110 30 -110 31 -51 15
-52 14 -31 27 -31 27 0 27 0 26 19 25 20 25 6 25 7 26 -11 21 -12 21 -42 22
-42 22 -150 3 -150 3 -40 -14z"/>
</g>
</svg>
