<?xml version="1.0" standalone="no"?>
<!DOCTYPE svg PUBLIC "-//W3C//DTD SVG 20010904//EN"
 "http://www.w3.org/TR/2001/REC-SVG-20010904/DTD/svg10.dtd">
<svg version="1.0" xmlns="http://www.w3.org/2000/svg"
 width="199.000000pt" height="206.000000pt" viewBox="0 0 199.000000 206.000000"
 preserveAspectRatio="xMidYMid meet">
<metadata>
Created by potrace 1.16, written by Peter Selinger 2001-2019
</metadata>
<g transform="translate(0.000000,206.000000) scale(0.100000,-0.100000)"
fill="#000000" stroke="none">
<path d="M625 2046 l-40 -15 -22 -26 -23 -26 0 -38 0 -37 25 -74 25 -74 0 -29
0 -29 -16 -34 -16 -33 -45 -27 -45 -26 -76 -14 -77 -13 -110 0 -110 0 -47 8
-48 8 0 -784 0 -783 790 0 790 0 -7 233 -6 233 12 51 13 51 16 15 17 14 15 5
16 6 54 -24 55 -23 57 -1 58 0 44 43 44 42 11 53 11 53 0 47 0 47 -10 39 -9
39 -15 15 -15 15 -40 -28 -40 -27 -65 4 -64 4 -36 28 -36 27 -26 51 -26 50
-15 72 -16 71 1 179 0 179 -11 11 -12 11 -85 42 -85 43 -110 30 -110 31 -51
15 -52 14 -31 27 -31 27 0 37 0 36 18 24 19 24 6 18 7 18 -10 20 -11 19 -42
22 -42 22 -140 3 -140 3 -40 -14z"/>
</g>
</svg>
