<?xml version="1.0" encoding="utf-8"?>
<svg baseProfile="full" height="0" version="1.1" width="0" xmlns="http://www.w3.org/2000/svg" xmlns:ev="http://www.w3.org/2001/xml-events" xmlns:xlink="http://www.w3.org/1999/xlink"><defs><clipPath id="piece-mask-100-0" shape-rendering="crispEdges"><path d="M61 12503 l-2 -198 -9 -220 -10 -220 -17 -355 -17 -355 0 -545 -1 -545 18 -195 18 -195 20 -140 20 -140 30 -145 31 -145 54 -162 53 -162 50 -103 49 -103 52 -80 53 -80 69 -82 69 -81 67 -55 67 -54 46 -31 45 -30 81 -41 81 -41 89 -29 88 -29 100 -18 100 -19 225 0 225 0 110 18 110 18 158 35 159 35 21 8 22 9 50 47 50 48 54 40 53 39 82 38 81 38 72 16 72 16 109 0 109 0 99 -25 98 -25 90 -44 91 -44 65 -48 65 -47 30 -26 29 -26 63 -63 63 -63 61 -82 61 -82 40 -69 41 -70 38 -82 39 -82 40 -118 39 -119 25 -125 25 -125 12 -135 11 -135 -6 -235 -7 -235 -10 -125 -10 -125 -20 -140 -20 -140 -26 -110 -26 -110 -34 -99 -34 -99 -36 -71 -35 -71 -44 -65 -43 -65 -58 -55 -58 -56 -55 -36 -55 -37 -48 -20 -48 -21 -62 -17 -62 -17 -170 0 -170 0 -105 22 -105 23 -145 48 -145 49 -172 76 -171 75 -73 25 -74 24 -80 17 -80 17 -100 -1 -100 0 -59 -16 -59 -16 -70 -36 -70 -37 -56 -50 -56 -51 -9 -14 -8 -13 -18 -18 -19 -19 -52 -86 -52 -87 -47 -112 -47 -111 -32 -100 -32 -99 -39 -156 -39 -155 -40 -200 -40 -200 -61 -350 -61 -350 -40 -215 -40 -215 -45 -205 -46 -205 -39 -154 -40 -154 -45 -146 -46 -146 -50 -140 -51 -140 -59 -134 -58 -134 -77 -144 -77 -143 -8 0 -8 0 0 -10 0 -10 115 0 115 0 222 -15 223 -16 295 -25 295 -24 865 -80 865 -79 240 -21 240 -20 270 -20 270 -20 291 -12 291 -12 115 11 114 10 22 14 22 14 0 11 0 11 -21 19 -21 19 -46 25 -47 25 -66 199 -67 199 -46 186 -46 186 -24 140 -24 140 -17 165 -17 165 5 235 5 235 17 110 16 110 29 120 29 120 36 103 36 103 40 87 40 87 46 80 47 80 55 75 54 75 30 35 29 35 77 79 76 78 85 66 85 66 5 7 5 7 50 30 50 31 100 54 100 55 97 41 98 40 107 35 108 34 115 26 115 25 100 15 100 15 120 10 120 11 125 0 125 0 65 -15 65 -16 85 -41 84 -42 86 -71 85 -71 66 -75 65 -74 48 -62 47 -63 65 -102 66 -103 93 -190 93 -190 51 -137 51 -137 36 -113 35 -113 35 -139 35 -140 25 -145 24 -144 12 -149 11 -149 -11 -127 -12 -127 -20 -73 -21 -74 -25 -49 -25 -50 -37 -41 -37 -41 -50 -23 -50 -24 -26 0 -27 0 -35 -82 -35 -83 -18 -60 -19 -60 0 -120 0 -120 32 -67 31 -66 59 -60 58 -59 71 -41 70 -42 84 -31 84 -30 95 -24 96 -24 140 -20 140 -20 170 -12 170 -12 345 6 345 6 215 15 215 16 305 31 305 30 310 39 310 39 313 46 314 45 344 55 345 54 467 78 467 77 44 230 43 231 64 345 63 345 50 300 50 300 35 250 35 250 20 185 20 185 11 115 10 115 10 179 10 178 0 172 0 171 -10 135 -10 135 -16 110 -16 110 -28 110 -29 110 -31 75 -31 74 -44 72 -45 72 -63 58 -62 59 -65 31 -65 32 -55 13 -55 14 -100 -1 -100 -1 -85 -18 -85 -17 -175 -63 -175 -63 -100 -30 -100 -31 -95 -25 -95 -25 -175 -35 -175 -35 -140 -18 -140 -18 -315 0 -315 1 -145 22 -145 23 -120 29 -120 28 -107 36 -108 36 -90 40 -91 40 -77 42 -77 41 -80 55 -80 55 -70 57 -70 57 -67 71 -67 71 -65 87 -66 86 -55 110 -56 109 -39 117 -38 117 -18 100 -18 100 0 195 0 195 18 115 17 115 20 82 19 82 35 110 35 109 75 149 75 148 71 100 72 100 137 135 137 135 64 47 64 46 80 48 80 47 105 50 105 50 130 42 130 43 105 21 105 20 75 10 75 10 115 6 115 7 137 -11 138 -11 87 -15 88 -15 125 -31 125 -31 108 -40 109 -40 146 -67 147 -68 118 -42 118 -41 102 -21 102 -22 115 0 115 0 60 17 60 18 63 35 63 35 52 53 52 53 33 55 34 56 29 72 29 72 24 96 24 96 16 100 15 100 12 155 12 155 -6 440 -5 440 -31 530 -31 530 -15 300 -16 300 -6 393 -6 392 -6842 0 -6841 0 -3 -197z" transform="translate(0.000000,1270.000000) scale(0.100000,-0.100000)"/></clipPath><clipPath id="piece-mask-100-1" shape-rendering="crispEdges"><path d="M0 9378 l0 -6081 293 6 292 6 480 25 480 25 330 16 330 15 285 10 285 10 510 0 510 0 195 -10 195 -10 130 -10 130 -10 165 -21 165 -20 171 -34 172 -34 97 -32 98 -31 78 -33 79 -33 86 -57 85 -57 45 -57 44 -56 20 -64 20 -63 0 -47 0 -47 -15 -59 -15 -60 -55 -110 -55 -110 -84 -255 -84 -255 -41 -160 -40 -160 -20 -110 -19 -110 -12 -119 -13 -120 6 -135 5 -136 17 -80 17 -80 30 -72 30 -72 39 -61 40 -61 48 -49 49 -49 77 -50 76 -50 80 -31 80 -31 102 -24 102 -25 105 -15 105 -15 248 -12 248 -12 172 12 172 12 90 15 90 15 80 21 80 20 60 20 60 21 94 44 94 44 84 56 83 56 78 77 77 76 57 81 56 80 30 60 30 59 31 88 31 88 21 97 21 97 5 200 5 201 -16 134 -17 135 -30 139 -29 139 -40 137 -39 136 -44 125 -45 124 -22 55 -22 55 -49 111 -49 111 -20 78 -20 78 0 73 0 72 20 65 20 65 44 59 44 58 59 44 58 43 58 30 59 29 101 34 102 34 100 20 100 20 115 15 115 15 195 12 195 12 280 -6 280 -7 225 -15 225 -15 165 -15 165 -15 185 -21 185 -20 240 -30 240 -29 185 -26 185 -25 365 -55 365 -55 470 -75 470 -76 43 -8 42 -7 4 21 5 21 5 200 6 200 30 405 29 405 20 280 20 280 11 176 10 176 6 284 6 284 -11 217 -11 218 -16 122 -15 123 -20 100 -20 100 -30 100 -31 100 -39 83 -39 84 -44 61 -44 62 -44 40 -43 40 -42 29 -42 28 -68 26 -68 25 -120 4 -120 5 -103 -21 -103 -22 -81 -29 -82 -30 -5 -8 -6 -8 -72 -47 -72 -48 -83 -39 -83 -38 -90 -26 -90 -25 -87 -15 -87 -15 -118 -7 -118 -7 -138 12 -139 13 -138 28 -139 29 -153 50 -153 51 -160 80 -161 79 -116 78 -117 78 -100 84 -101 83 -71 77 -72 76 -58 71 -58 71 -61 94 -61 94 -59 120 -59 120 -40 121 -40 120 -20 100 -20 99 -11 90 -12 90 0 165 0 165 16 110 16 110 31 115 31 115 44 109 45 110 36 65 37 66 50 80 51 80 12 15 11 15 75 90 76 90 83 82 83 82 66 53 66 53 28 20 28 20 26 21 26 21 110 68 110 68 160 78 160 77 127 46 127 46 133 35 133 35 115 19 115 20 148 11 149 11 137 -11 138 -11 105 -24 106 -23 78 -32 78 -31 59 -36 59 -35 45 -40 45 -39 59 -29 58 -30 87 -25 86 -25 77 0 77 0 55 16 54 16 52 34 51 34 50 55 49 56 51 97 50 97 32 100 31 99 25 114 24 113 20 157 19 157 11 147 10 147 0 379 0 379 -10 204 -10 204 -15 225 -16 225 -30 355 -30 355 -14 180 -15 180 0 56 0 57 -6 16 -6 16 -6839 0 -6839 0 0 -6082z" transform="translate(0.000000,1546.000000) scale(0.100000,-0.100000)"/></clipPath><clipPath id="piece-mask-100-2" shape-rendering="crispEdges"><path d="M4266 12178 l4 -53 10 -150 11 -150 29 -340 29 -340 20 -285 21 -285 10 -210 10 -209 0 -379 0 -378 -10 -147 -11 -147 -19 -157 -20 -157 -24 -113 -25 -114 -31 -99 -32 -100 -50 -97 -51 -97 -49 -56 -50 -55 -51 -34 -52 -34 -54 -16 -55 -16 -77 0 -77 0 -86 25 -87 25 -58 30 -59 29 -45 39 -45 40 -59 35 -59 36 -78 31 -78 32 -106 23 -105 24 -138 11 -137 11 -149 -11 -148 -11 -115 -20 -115 -19 -133 -35 -133 -35 -127 -46 -127 -46 -160 -77 -160 -78 -110 -68 -110 -68 -26 -21 -26 -21 -28 -20 -28 -20 -66 -53 -66 -53 -83 -82 -83 -82 -76 -90 -75 -90 -11 -15 -12 -15 -51 -80 -50 -80 -37 -66 -36 -65 -45 -110 -44 -109 -31 -115 -31 -115 -16 -110 -16 -110 0 -165 0 -165 12 -90 11 -90 20 -99 20 -100 40 -120 40 -121 59 -120 59 -120 61 -94 61 -94 58 -71 58 -71 72 -76 71 -77 101 -83 100 -84 117 -78 116 -78 161 -79 160 -80 153 -51 153 -50 139 -29 138 -28 139 -13 138 -12 118 7 118 7 87 15 87 15 90 25 90 26 83 38 83 39 72 48 72 47 6 8 5 8 82 30 81 29 103 22 103 21 120 -5 120 -4 68 -25 68 -26 42 -28 42 -29 43 -40 44 -40 43 -60 43 -60 32 -65 32 -64 38 -116 38 -115 21 -110 21 -110 15 -115 15 -115 12 -264 12 -265 -12 -340 -12 -341 -20 -280 -19 -280 -30 -405 -30 -405 -11 -200 -10 -200 -2 -98 -3 -97 170 0 170 0 380 -15 380 -15 285 -10 285 -11 485 0 485 0 210 11 210 11 165 14 165 15 150 21 150 20 135 25 135 25 120 30 120 31 108 34 107 35 98 40 97 41 85 45 85 46 90 63 90 63 60 58 60 58 40 47 40 47 48 79 48 79 33 94 34 94 17 104 18 105 -6 150 -6 151 -25 120 -25 120 -37 116 -37 117 -41 12 -41 12 -60 31 -60 32 -43 43 -43 43 -15 34 -14 34 0 58 0 58 24 50 23 50 49 60 48 60 8 3 7 3 72 59 72 58 116 60 116 60 88 36 88 36 132 40 132 40 145 30 145 29 120 16 120 15 145 10 145 10 180 0 180 0 190 -10 190 -10 170 -16 170 -15 110 -15 110 -15 135 -25 135 -25 117 -30 117 -29 73 -26 73 -26 56 -30 57 -30 27 -28 27 -28 -7 -22 -7 -22 -41 -18 -42 -18 -55 -10 -55 -11 -59 -6 -58 -7 -34 -72 -33 -72 -20 -73 -20 -73 -7 -72 -6 -71 16 -73 15 -72 33 -63 33 -62 60 -60 60 -60 59 -39 59 -39 91 -48 91 -48 115 -44 115 -45 155 -46 155 -47 240 -59 240 -59 470 -106 470 -107 250 -63 250 -64 180 -51 180 -51 252 -84 252 -84 190 -75 190 -76 180 -84 180 -83 133 -73 133 -73 100 -60 100 -60 122 -83 122 -84 14 6 14 5 76 143 77 143 58 134 59 134 51 140 50 140 46 146 45 146 40 154 39 154 46 205 45 205 40 215 40 215 61 350 61 350 40 200 40 200 39 155 39 156 32 99 32 100 47 111 47 112 52 87 52 86 19 19 18 18 8 13 9 14 56 51 56 50 70 37 70 36 59 16 59 16 100 0 100 1 80 -17 80 -17 74 -24 73 -25 171 -75 172 -76 145 -49 145 -48 105 -23 105 -22 170 0 170 0 62 17 62 17 48 21 48 20 55 37 55 36 58 56 58 55 43 65 44 65 35 71 36 71 34 99 34 99 26 110 26 110 20 140 20 140 10 125 10 125 7 235 6 235 -11 135 -12 135 -25 125 -25 125 -39 119 -40 118 -39 82 -38 82 -41 70 -40 69 -61 82 -61 82 -63 63 -63 63 -29 26 -30 26 -65 47 -65 48 -91 44 -90 44 -98 25 -99 25 -109 0 -109 0 -72 -16 -72 -16 -81 -38 -82 -38 -53 -39 -54 -40 -50 -48 -50 -47 -22 -9 -21 -8 -159 -35 -158 -35 -110 -18 -110 -18 -225 0 -225 0 -100 19 -100 18 -88 29 -89 29 -81 41 -81 41 -45 30 -46 31 -67 54 -67 55 -69 81 -69 82 -53 80 -52 80 -49 103 -50 103 -53 162 -54 162 -31 145 -30 145 -20 140 -20 140 -18 195 -18 195 1 545 0 545 17 355 17 355 10 220 9 220 3 195 2 195 -6840 3 -6841 2 3 -52z" transform="translate(0.000000,1223.000000) scale(0.100000,-0.100000)"/></clipPath><clipPath id="piece-mask-100-3" shape-rendering="crispEdges"><path d="M6790 15680 l-85 -18 -68 -26 -68 -25 -82 -43 -82 -43 -95 -72 -95 -71 -68 -69 -67 -68 -51 -64 -51 -65 -48 -72 -49 -72 -50 -93 -49 -94 -46 -115 -46 -116 -29 -119 -30 -120 -16 -118 -15 -118 0 -119 0 -119 15 -113 15 -113 25 -95 26 -95 26 -70 26 -70 40 -80 39 -80 99 -152 99 -151 30 -70 30 -70 12 -71 12 -71 -12 -57 -12 -56 -32 -55 -33 -55 -60 -45 -60 -45 -61 -28 -60 -27 -80 -26 -79 -25 -70 -15 -70 -15 -90 -16 -90 -15 -157 -15 -157 -15 -298 -11 -298 -11 -300 7 -300 6 -285 10 -285 9 -665 30 -665 30 -375 15 -375 16 -486 6 -486 6 -6 -369 -7 -369 -10 -210 -11 -210 -29 -505 -30 -505 -20 -340 -19 -340 -12 -300 -12 -300 6 -365 6 -365 15 -140 16 -140 15 -90 16 -90 24 -93 25 -93 31 -75 31 -75 40 -60 40 -59 53 -42 54 -42 48 -20 48 -20 90 0 90 0 65 17 64 18 106 49 105 50 160 39 160 40 155 35 155 35 130 25 130 26 155 25 155 25 130 15 130 16 200 6 200 6 120 -13 120 -12 95 -24 95 -24 82 -39 82 -40 53 -39 53 -39 38 -47 39 -47 33 -56 34 -55 27 -81 27 -80 19 -106 19 -106 6 -296 6 -296 -12 -119 -12 -119 -25 -123 -24 -123 -45 -137 -45 -137 -70 -140 -69 -140 -83 -122 -83 -121 -75 -84 -75 -83 -85 -78 -85 -78 -90 -64 -90 -64 -100 -50 -100 -50 -80 -27 -79 -26 -92 -5 -92 -6 -54 17 -53 18 -33 24 -32 25 -20 39 -20 40 -13 62 -12 62 -99 33 -99 33 -86 16 -86 16 -110 -5 -110 -5 -67 -21 -67 -22 -73 -48 -73 -49 -33 -36 -32 -35 0 -10 0 -9 -14 -5 -15 -6 -60 -102 -61 -103 -40 -102 -40 -103 -34 -119 -35 -119 -35 -179 -35 -179 -30 -210 -31 -210 -45 -395 -45 -395 -26 -210 -26 -210 -34 -222 -34 -221 -35 -179 -35 -178 -40 -153 -40 -152 -40 -123 -40 -123 -40 -99 -40 -98 0 -4 0 -3 6848 0 6849 0 60 78 60 77 78 115 78 115 84 143 83 143 74 147 74 147 64 150 65 150 66 175 65 175 55 175 56 175 51 180 52 180 134 530 135 530 45 159 46 160 49 141 48 141 47 105 46 104 38 65 38 65 45 61 45 61 63 62 63 61 75 39 76 39 63 17 63 16 97 0 98 0 80 -16 79 -16 89 -30 89 -30 83 -55 83 -55 98 -50 98 -50 95 -29 95 -29 69 -12 69 -12 131 6 131 5 60 17 60 17 72 33 72 33 58 39 58 38 91 90 91 91 63 94 62 95 43 90 43 90 40 117 41 116 25 114 25 113 15 101 16 101 11 169 11 169 -6 140 -7 140 -10 95 -10 95 -25 123 -24 122 -36 108 -36 107 -55 108 -55 107 -45 63 -45 62 -23 25 -23 25 -53 54 -54 54 -70 52 -70 53 -75 40 -75 41 -75 31 -75 31 -110 29 -110 29 -110 18 -110 17 -245 1 -245 0 -120 -13 -120 -13 -170 -29 -170 -29 -150 -35 -150 -35 -150 -41 -150 -41 -235 -79 -235 -79 -110 -23 -110 -23 -145 1 -145 0 -65 18 -65 18 -78 40 -77 40 -58 57 -58 56 -43 64 -43 64 -33 71 -33 71 -31 97 -31 98 -24 132 -25 133 -16 165 -15 165 -6 280 -7 280 12 315 11 315 30 610 29 610 10 280 10 280 2 255 1 255 -1 13 -1 12 -16 0 -16 0 -26 19 -27 18 -105 63 -105 62 -240 118 -240 118 -180 72 -180 72 -235 79 -235 78 -140 40 -140 40 -195 50 -195 49 -252 57 -253 56 -492 100 -493 100 -160 35 -160 35 -150 39 -150 39 -95 29 -95 30 -100 37 -100 38 -77 38 -77 38 -58 38 -59 38 -18 15 -19 15 -58 58 -57 58 -38 77 -39 77 -3 112 -4 112 26 90 25 89 31 68 31 69 60 19 60 19 62 37 62 37 34 48 35 47 4 53 4 53 -16 48 -16 49 -50 67 -51 67 -47 39 -47 39 -78 52 -77 52 -133 64 -132 64 -120 40 -120 40 -121 31 -121 30 -144 24 -144 25 -164 15 -165 16 -185 -1 -186 0 -85 -19z" transform="translate(0.000000,1570.000000) scale(0.100000,-0.100000)"/></clipPath><clipPath id="piece-mask-100-4" shape-rendering="crispEdges"><path d="M6460 12394 l-75 -3 -270 -11 -270 -11 -275 -15 -275 -14 -476 -30 -477 -30 -248 -16 -249 -15 -200 -7 -200 -7 -3 -175 -3 -175 11 -295 11 -295 25 -500 26 -500 5 -480 5 -480 -11 -186 -11 -187 -15 -123 -16 -124 -29 -145 -29 -145 -31 -95 -32 -95 -48 -102 -48 -102 -33 -48 -33 -48 -21 -25 -20 -25 -40 -40 -41 -40 -40 -33 -41 -33 -34 -20 -34 -19 -53 -25 -53 -25 -71 -20 -72 -20 -109 -11 -110 -12 -126 12 -126 11 -115 24 -115 23 -130 39 -129 38 -76 75 -75 76 -60 39 -59 40 -86 30 -85 29 -100 1 -100 0 -65 -17 -65 -17 -100 -49 -100 -48 -60 -48 -60 -48 -53 -51 -54 -51 -63 -80 -63 -81 -50 -80 -50 -80 -30 -59 -30 -60 -47 -119 -47 -120 -38 -150 -38 -151 -16 -115 -16 -115 -10 -150 -10 -150 6 -85 5 -85 15 -85 15 -85 20 -69 21 -69 37 -86 38 -87 42 -73 43 -72 76 -102 76 -102 96 -96 96 -95 103 -83 103 -82 87 -58 86 -58 109 -63 109 -63 121 -57 121 -57 145 -56 145 -56 120 -35 120 -36 110 -24 110 -25 110 -17 110 -18 200 -1 200 0 80 18 80 19 62 29 61 29 45 50 45 50 9 37 9 38 37 17 37 18 86 25 86 25 61 10 62 10 94 0 93 0 62 -16 61 -16 60 -31 60 -32 62 -63 62 -63 6 -20 6 -19 8 0 8 0 41 -87 40 -88 20 -70 21 -70 15 -80 15 -80 12 -129 12 -130 -6 -220 -6 -221 -15 -137 -15 -137 -26 -168 -27 -168 -39 -195 -40 -195 -64 -250 -63 -250 -66 -215 -65 -215 -64 -185 -65 -185 -45 -121 -46 -122 -74 -178 -75 -179 -36 -79 -36 -78 0 -8 0 -7 308 -6 307 -7 470 -20 470 -20 415 -11 415 -12 415 7 415 6 175 10 175 10 175 16 175 15 183 25 182 24 153 30 152 31 95 24 95 25 125 41 125 41 121 57 120 58 90 58 89 59 85 87 85 86 14 18 14 17 33 55 33 55 25 77 25 76 11 65 10 65 0 65 0 65 -15 95 -14 95 -20 69 -21 70 -27 70 -27 71 -25 20 -26 19 -68 66 -69 65 -49 73 -48 73 -21 67 -21 67 0 68 0 67 15 53 16 52 30 52 29 51 58 63 58 62 70 52 70 51 58 33 58 32 107 44 107 43 90 26 90 26 100 20 100 21 125 14 125 15 285 0 285 0 170 -10 170 -10 125 -10 125 -11 155 -20 155 -19 135 -25 135 -25 129 -35 130 -35 90 -43 91 -43 28 -33 27 -33 0 -20 0 -20 -30 -28 -31 -29 -57 -21 -57 -22 -70 -18 -70 -17 -38 -76 -38 -77 -20 -77 -21 -78 0 -95 -1 -95 20 -61 20 -61 38 -57 37 -56 65 -59 64 -58 77 -46 77 -45 91 -40 91 -40 134 -45 134 -45 225 -57 225 -56 670 -134 670 -134 165 -36 165 -36 220 -54 220 -54 190 -55 190 -55 193 -66 194 -65 179 -71 179 -71 218 -107 217 -108 105 -63 105 -63 23 -15 22 -14 0 6076 0 6076 -52 -21 -53 -21 -125 -46 -125 -45 -175 -54 -175 -55 -230 -58 -231 -59 -274 -55 -275 -56 -240 -39 -240 -40 -170 -25 -170 -25 -500 -66 -500 -65 -180 -26 -180 -25 -180 -30 -180 -30 -125 -25 -125 -25 -140 -36 -140 -36 -100 -34 -100 -35 -91 -43 -91 -43 -64 -43 -64 -43 -55 -58 -56 -57 -31 -63 -32 -64 -11 -67 -12 -68 11 -79 12 -79 23 -68 24 -68 24 -50 23 -51 74 -89 74 -90 54 -81 53 -82 21 -48 21 -49 14 -50 14 -50 0 -71 0 -70 -17 -49 -16 -49 -72 -71 -71 -70 -77 -38 -78 -38 -88 -29 -88 -28 -124 -26 -124 -25 -125 -15 -125 -15 -150 -13 -150 -12 -350 0 -350 -1 -100 18 -100 18 -100 26 -100 26 -86 32 -85 33 -81 40 -80 41 -104 69 -104 70 -93 88 -93 87 -65 83 -64 82 -54 92 -55 92 -36 86 -36 86 -24 85 -24 86 -16 89 -15 89 -6 111 -6 111 11 115 12 115 20 99 20 100 40 120 40 121 74 150 74 150 51 70 52 70 24 50 24 50 0 43 0 43 -14 32 -14 32 -32 33 -33 33 -61 34 -61 34 -92 30 -92 30 -128 25 -128 25 -135 15 -135 16 -125 11 -125 11 -625 2 -625 3 -75 -3z" transform="translate(0.000000,1240.000000) scale(0.100000,-0.100000)"/></clipPath><clipPath id="piece-mask-100-5" shape-rendering="crispEdges"><path d="M2605 12274 l-80 -3 -260 -11 -260 -11 -740 -45 -740 -45 -262 -6 -263 -6 0 -6074 0 -6073 6839 0 6839 0 50 127 50 128 32 100 32 100 39 150 39 150 35 178 35 179 34 221 34 222 26 210 26 210 45 395 45 395 31 210 30 210 35 179 35 179 35 119 34 119 40 103 40 102 61 103 60 102 15 6 14 5 0 9 0 10 32 35 33 36 73 49 73 48 67 22 67 21 110 5 110 5 86 -16 86 -16 99 -33 99 -33 12 -62 13 -62 20 -40 20 -39 32 -25 33 -24 53 -18 54 -17 92 6 92 5 79 26 80 27 100 50 100 50 90 64 90 64 85 78 85 78 75 83 75 84 83 121 83 122 69 140 70 140 45 137 45 137 24 123 25 123 12 119 12 119 -6 296 -6 296 -19 106 -19 106 -27 80 -27 81 -34 55 -33 56 -39 47 -38 47 -53 39 -53 39 -82 40 -82 39 -95 24 -95 24 -120 12 -120 13 -200 -6 -200 -6 -130 -16 -130 -15 -155 -25 -155 -25 -130 -26 -130 -25 -155 -35 -155 -35 -160 -40 -160 -39 -105 -50 -106 -49 -64 -18 -65 -17 -90 0 -90 0 -48 20 -48 20 -54 42 -53 42 -40 59 -40 60 -31 75 -31 75 -25 93 -24 93 -16 90 -15 90 -16 140 -15 140 -6 365 -6 365 12 300 12 300 19 340 20 340 30 505 29 505 11 210 10 210 7 367 6 366 -44 6 -44 5 -315 5 -315 5 -385 20 -385 20 -305 15 -305 16 -325 11 -325 12 -365 -6 -365 -6 -130 -11 -130 -10 -130 -16 -130 -16 -120 -23 -120 -24 -87 -25 -86 -25 -89 -39 -88 -38 -59 -39 -59 -40 -22 -14 -21 -14 -39 -51 -38 -51 -23 -51 -24 -51 -11 -59 -11 -59 6 -60 6 -61 21 -74 20 -74 33 -71 33 -71 59 -30 59 -29 55 -55 55 -55 27 -57 28 -56 15 -58 15 -58 0 -92 0 -92 -14 -74 -14 -73 -22 -65 -22 -65 -38 -82 -38 -82 -75 -113 -75 -113 -48 -55 -49 -54 -75 -76 -75 -75 -75 -61 -75 -61 -90 -61 -90 -60 -110 -61 -110 -60 -106 -45 -106 -44 -124 -40 -124 -40 -115 -26 -115 -25 -100 -15 -100 -15 -129 -11 -129 -10 -356 0 -356 0 -265 10 -265 10 -165 16 -165 15 -130 24 -130 24 -90 26 -90 26 -100 48 -100 48 -60 47 -60 46 -48 58 -48 57 -39 80 -39 80 -21 85 -21 85 -6 145 -5 145 16 140 16 140 30 146 30 146 41 149 41 149 69 211 69 211 50 83 50 84 20 64 20 64 0 54 0 53 -21 57 -21 56 -57 57 -57 57 -95 46 -94 47 -83 25 -84 26 -121 25 -122 24 -130 16 -130 15 -125 11 -125 10 -455 3 -455 3 -80 -3z" transform="translate(0.000000,1228.000000) scale(0.100000,-0.100000)"/></clipPath><clipPath id="piece-mask-100-6" shape-rendering="crispEdges"><path d="M4413 14918 l6 -393 16 -300 15 -300 31 -530 31 -530 5 -440 6 -440 -12 -155 -12 -155 -15 -100 -16 -100 -24 -96 -24 -96 -29 -72 -29 -72 -34 -56 -33 -55 -52 -53 -52 -53 -63 -35 -63 -35 -60 -18 -60 -17 -115 0 -115 0 -102 22 -102 21 -118 41 -118 42 -147 68 -146 67 -109 40 -108 40 -125 31 -125 31 -88 15 -87 15 -138 11 -137 11 -115 -7 -115 -6 -75 -10 -75 -10 -105 -20 -105 -21 -130 -43 -130 -42 -105 -50 -105 -50 -80 -47 -80 -48 -64 -46 -64 -47 -137 -135 -137 -135 -72 -100 -71 -100 -75 -148 -75 -149 -35 -109 -35 -110 -19 -82 -20 -82 -17 -115 -18 -115 0 -195 0 -195 18 -100 18 -100 38 -117 39 -117 56 -109 55 -110 66 -86 65 -87 67 -71 67 -71 70 -57 70 -57 80 -55 80 -55 77 -41 77 -42 91 -40 90 -40 108 -36 107 -36 120 -28 120 -29 145 -23 145 -22 315 -1 315 0 140 18 140 18 175 35 175 35 95 25 95 25 100 31 100 30 175 63 175 63 85 17 85 18 100 1 100 1 55 -14 55 -13 65 -32 65 -31 62 -59 63 -58 45 -72 44 -72 31 -74 31 -75 29 -110 28 -110 16 -110 16 -110 10 -135 10 -135 0 -171 0 -172 -10 -178 -10 -179 -10 -115 -11 -115 -20 -185 -20 -185 -35 -250 -35 -250 -45 -270 -45 -270 -45 -250 -45 -250 -64 -342 -65 -342 0 -13 0 -13 202 7 203 7 250 15 250 16 470 30 470 29 285 15 285 15 255 13 255 13 685 0 685 0 155 -13 155 -13 130 -15 130 -15 128 -25 128 -25 92 -30 92 -30 61 -34 61 -34 33 -33 32 -33 14 -32 14 -32 0 -43 0 -43 -24 -50 -24 -50 -52 -70 -51 -70 -74 -150 -74 -150 -40 -121 -40 -120 -20 -100 -20 -99 -12 -115 -11 -115 6 -111 6 -111 15 -89 16 -89 24 -86 24 -85 36 -86 36 -86 55 -92 54 -92 64 -82 65 -83 93 -87 93 -88 104 -70 104 -69 80 -41 81 -40 85 -33 86 -32 100 -26 100 -26 100 -18 100 -18 350 1 350 0 150 12 150 13 125 15 125 15 124 25 124 26 88 28 88 29 78 38 77 38 71 70 72 71 16 49 17 49 0 70 0 71 -14 50 -14 50 -21 49 -21 48 -53 82 -54 81 -74 90 -74 89 -23 51 -24 50 -24 68 -23 68 -12 79 -11 79 12 68 11 67 32 64 31 63 56 57 55 58 64 43 64 43 91 43 91 43 100 35 100 34 140 36 140 36 125 25 125 25 180 30 180 30 180 25 180 26 500 65 500 66 170 25 170 25 240 40 240 39 275 56 274 55 231 59 230 58 175 55 175 54 140 51 140 51 38 16 37 15 0 6085 0 6085 -6832 0 -6831 0 6 -392z" transform="translate(0.000000,1531.000000) scale(0.100000,-0.100000)"/></clipPath><clipPath id="piece-mask-100-7" shape-rendering="crispEdges"><path d="M9120 15759 l-135 -9 -120 -15 -120 -16 -100 -20 -100 -20 -102 -34 -101 -34 -59 -29 -58 -30 -60 -45 -60 -45 -43 -57 -42 -57 -20 -65 -20 -65 0 -72 0 -73 20 -78 20 -78 49 -111 49 -111 22 -55 22 -55 45 -124 44 -125 39 -136 40 -137 29 -139 30 -139 17 -135 16 -134 -5 -201 -5 -200 -21 -97 -21 -97 -31 -88 -31 -88 -30 -59 -30 -60 -56 -80 -57 -81 -77 -76 -78 -77 -83 -56 -84 -56 -94 -44 -94 -44 -60 -21 -60 -20 -80 -20 -80 -21 -90 -15 -90 -15 -172 -12 -172 -12 -248 12 -248 12 -105 15 -105 15 -102 25 -102 24 -80 31 -80 31 -76 50 -77 50 -49 49 -48 49 -40 61 -39 61 -30 72 -30 72 -17 80 -17 80 -5 136 -6 135 13 120 12 119 19 110 20 110 40 160 41 160 84 255 84 255 55 110 55 110 15 60 15 59 0 47 0 47 -20 63 -20 64 -44 56 -45 57 -85 57 -86 57 -79 33 -78 33 -98 31 -97 32 -172 34 -171 34 -165 20 -165 21 -130 10 -130 10 -195 10 -195 10 -510 0 -510 0 -285 -10 -285 -10 -330 -15 -330 -16 -480 -25 -480 -25 -292 -6 -293 -6 0 -6080 0 -6080 263 6 262 6 740 45 740 45 255 13 255 12 520 0 520 1 150 -13 150 -13 125 -15 125 -15 122 -24 121 -25 84 -26 83 -25 94 -47 95 -46 57 -57 57 -57 21 -56 21 -57 0 -53 0 -54 -20 -64 -20 -64 -50 -84 -50 -83 -69 -211 -69 -211 -41 -149 -41 -149 -30 -146 -30 -146 -16 -140 -16 -140 5 -145 6 -145 21 -85 21 -85 39 -80 39 -80 48 -57 48 -58 60 -46 60 -47 100 -48 100 -48 90 -26 90 -26 130 -24 130 -24 165 -15 165 -16 265 -10 265 -10 356 0 356 0 129 10 129 11 100 15 100 15 115 25 115 26 124 40 124 40 106 44 106 45 110 60 110 61 90 60 90 61 75 61 75 61 75 75 75 76 49 54 48 55 75 113 75 113 38 82 38 82 22 65 22 65 14 73 14 74 0 92 0 92 -15 58 -15 58 -28 56 -27 57 -55 55 -55 55 -59 29 -59 30 -33 71 -33 71 -20 74 -21 74 -6 61 -6 60 11 59 11 59 24 51 23 51 38 51 39 51 21 14 22 14 59 40 59 39 88 38 89 39 86 25 87 25 120 24 120 23 130 16 130 16 130 10 130 11 365 6 365 6 330 -12 330 -12 295 -14 295 -15 400 -21 400 -20 345 -8 345 -7 3 2 3 1 -84 124 -84 124 -92 152 -91 152 -89 173 -90 173 -65 148 -66 148 -41 102 -41 102 -65 175 -64 175 -68 220 -69 220 -55 200 -56 200 -150 600 -151 600 -54 180 -55 180 -45 118 -45 119 -56 110 -55 110 -54 77 -54 77 -58 58 -59 57 -55 34 -55 34 -76 25 -77 26 -83 6 -84 6 -95 -16 -94 -17 -107 -35 -107 -36 -17 -66 -16 -66 -20 -47 -20 -46 -35 -34 -35 -34 -37 0 -38 0 -32 24 -32 23 -41 60 -41 60 -25 56 -25 57 -30 85 -29 85 -24 97 -25 98 -20 115 -20 114 -15 146 -15 146 -6 192 -7 192 12 180 12 180 20 135 21 135 33 130 34 130 36 90 36 90 32 55 31 55 25 35 25 35 17 20 17 20 48 48 49 48 55 34 55 33 48 16 49 16 70 10 70 10 87 -10 86 -11 87 -29 87 -29 63 -32 63 -32 73 -44 74 -44 46 -33 47 -34 110 -30 110 -31 75 -15 76 -15 99 -12 99 -12 135 6 136 5 100 26 100 26 82 39 82 40 63 42 63 43 81 80 80 81 62 95 62 94 49 101 49 100 42 120 41 120 29 115 29 115 25 136 25 135 20 180 20 179 12 180 12 180 -1 425 0 425 -16 350 -17 350 -14 270 -15 270 -5 240 -6 240 -5 51 -5 51 -42 6 -42 6 -465 75 -465 75 -365 55 -365 55 -185 25 -185 26 -240 29 -240 30 -185 20 -185 21 -165 15 -165 15 -220 15 -220 15 -340 5 -340 4 -135 -10z" transform="translate(0.000000,1577.000000) scale(0.100000,-0.100000)"/></clipPath><clipPath id="piece-mask-100-8" shape-rendering="crispEdges"><path d="M9940 15419 l-115 -8 -127 -16 -128 -16 -138 -29 -139 -28 -124 -37 -124 -36 -100 -41 -100 -40 -116 -60 -116 -60 -72 -58 -72 -59 -7 -3 -8 -3 -48 -60 -49 -60 -23 -50 -24 -50 0 -58 0 -58 14 -34 15 -34 43 -43 43 -43 60 -32 60 -31 41 -12 41 -12 37 -117 37 -116 25 -120 25 -120 6 -151 6 -150 -18 -105 -17 -104 -34 -94 -33 -94 -48 -79 -48 -79 -40 -47 -40 -47 -60 -58 -60 -58 -90 -63 -90 -63 -85 -46 -85 -45 -97 -41 -98 -40 -107 -35 -108 -34 -120 -31 -120 -30 -135 -25 -135 -25 -150 -20 -150 -21 -165 -15 -165 -14 -210 -11 -210 -11 -485 0 -485 0 -285 11 -285 10 -380 15 -380 15 -177 0 -178 0 5 -57 4 -58 6 -225 5 -225 15 -275 14 -275 17 -350 16 -350 0 -425 1 -425 -12 -180 -12 -180 -20 -179 -20 -180 -25 -135 -25 -136 -29 -115 -29 -115 -41 -120 -42 -120 -49 -100 -49 -101 -62 -94 -62 -95 -80 -81 -81 -80 -63 -43 -63 -42 -82 -40 -82 -39 -100 -26 -100 -26 -136 -5 -135 -6 -99 12 -99 12 -76 15 -75 15 -110 31 -110 30 -47 34 -46 33 -74 44 -73 44 -63 32 -63 32 -87 29 -87 29 -86 11 -87 10 -70 -10 -70 -10 -49 -16 -48 -16 -55 -33 -55 -34 -49 -48 -48 -48 -17 -20 -17 -20 -25 -35 -25 -35 -31 -55 -32 -55 -36 -90 -36 -90 -34 -130 -33 -130 -21 -135 -20 -135 -12 -180 -12 -180 7 -192 6 -192 15 -146 15 -146 20 -114 20 -115 25 -98 24 -97 29 -85 30 -85 25 -57 25 -56 41 -60 41 -60 32 -23 32 -24 38 0 37 0 35 34 35 34 20 46 20 47 16 66 17 66 107 36 107 35 94 17 95 16 84 -6 83 -6 77 -26 76 -25 55 -34 55 -34 59 -57 58 -58 54 -77 54 -77 55 -110 56 -110 45 -119 45 -118 55 -180 54 -180 151 -600 150 -600 56 -200 55 -200 69 -220 68 -220 64 -175 65 -175 41 -102 41 -102 66 -148 65 -148 90 -173 89 -173 91 -152 92 -152 81 -120 81 -120 8 -6 8 -6 482 -6 482 -6 375 -16 375 -15 665 -30 665 -30 285 -9 285 -10 300 -6 300 -7 298 11 298 11 157 15 157 15 90 15 90 16 70 15 70 15 79 25 80 26 60 27 61 28 60 45 60 45 33 55 32 55 12 56 12 57 -12 71 -12 71 -30 70 -30 70 -99 151 -99 152 -39 80 -40 80 -26 70 -26 70 -26 95 -25 95 -15 113 -15 113 0 119 0 119 15 118 16 118 30 120 29 119 46 116 46 115 49 94 50 93 49 72 48 72 51 65 51 64 67 68 68 69 95 72 95 71 90 47 90 46 72 25 71 26 82 15 82 16 177 0 177 0 165 -16 164 -15 144 -25 144 -24 121 -30 121 -31 120 -40 120 -40 132 -64 133 -64 77 -52 78 -52 47 -39 47 -39 51 -67 50 -67 16 -49 16 -48 -4 -53 -4 -53 -35 -47 -34 -48 -62 -37 -62 -37 -60 -19 -60 -19 -31 -69 -31 -68 -25 -89 -26 -90 4 -112 3 -112 39 -77 38 -77 57 -58 58 -58 19 -15 18 -15 59 -38 58 -38 77 -38 77 -38 100 -38 100 -37 95 -30 95 -29 150 -39 150 -39 160 -35 160 -35 493 -100 492 -100 253 -56 252 -57 195 -49 195 -50 140 -40 140 -40 235 -78 235 -79 180 -72 180 -72 240 -118 240 -118 105 -62 105 -63 28 -19 28 -20 6 6 6 6 -36 77 -36 78 -35 87 -34 86 -52 159 -52 158 -43 170 -43 170 -36 179 -36 180 -35 210 -34 211 -76 555 -75 555 -35 205 -36 205 -35 155 -36 155 -48 145 -47 145 -46 92 -45 91 -43 64 -42 63 -67 66 -67 67 -74 36 -74 36 -65 16 -65 16 -120 -5 -120 -5 -80 -22 -80 -21 -85 -34 -85 -34 -125 -56 -125 -57 -145 -48 -145 -49 -100 -21 -100 -21 -140 -6 -140 -5 -89 16 -90 17 -58 24 -58 24 -62 37 -62 38 -61 60 -60 61 -31 40 -30 40 -37 61 -36 60 -30 66 -30 67 -35 110 -36 111 -30 147 -29 148 -15 125 -15 125 -11 150 -11 149 0 291 -1 290 12 125 11 125 20 124 19 123 31 122 31 121 35 95 36 95 45 90 45 90 45 70 45 70 72 85 73 86 39 29 38 29 10 12 10 12 65 44 65 45 75 41 75 40 95 35 95 35 115 26 115 25 114 12 114 12 211 -6 211 -6 110 -15 110 -16 110 -20 110 -21 110 -25 110 -25 124 -35 125 -35 110 -36 111 -35 130 -64 130 -63 110 -37 110 -38 110 0 110 -1 50 25 50 24 40 42 40 41 32 65 32 65 20 79 19 79 12 75 12 75 6 185 7 185 -7 260 -7 260 -20 330 -21 330 -25 400 -24 400 -11 215 -10 215 -10 270 -10 270 0 241 0 241 -6 62 -7 62 -91 63 -91 64 -95 59 -95 60 -159 88 -158 88 -188 88 -188 88 -191 76 -192 76 -252 84 -252 84 -180 51 -180 51 -250 64 -250 63 -470 107 -470 106 -240 59 -240 59 -155 47 -155 46 -115 45 -115 44 -91 48 -91 48 -59 39 -59 39 -60 60 -60 60 -33 62 -33 63 -15 72 -16 73 6 71 7 72 20 73 20 73 33 72 34 72 58 7 59 6 55 11 55 10 42 18 41 18 7 22 7 22 -27 28 -27 28 -57 30 -56 30 -73 26 -73 26 -117 29 -117 30 -135 25 -135 25 -110 15 -110 15 -170 15 -170 16 -190 10 -190 10 -205 -1 -205 -2 -115 -8z" transform="translate(0.000000,1543.000000) scale(0.100000,-0.100000)"/></clipPath><clipPath id="piece-mask-100-9" shape-rendering="crispEdges"><path d="M6710 15095 l-105 -13 -110 -22 -110 -22 -95 -29 -95 -28 -98 -41 -98 -41 -57 -31 -57 -32 -70 -51 -70 -52 -58 -62 -58 -63 -29 -51 -30 -52 -16 -52 -15 -53 0 -67 0 -68 21 -67 21 -67 48 -73 49 -73 69 -65 68 -66 26 -19 25 -20 27 -71 27 -70 21 -70 20 -69 14 -95 15 -95 0 -65 0 -65 -10 -65 -11 -65 -25 -76 -25 -77 -33 -55 -33 -55 -14 -17 -14 -18 -85 -86 -85 -87 -89 -59 -90 -58 -120 -58 -121 -57 -125 -41 -125 -41 -95 -25 -95 -24 -152 -31 -153 -30 -182 -24 -183 -25 -175 -15 -175 -16 -175 -10 -175 -10 -415 -6 -415 -7 -415 12 -415 11 -470 20 -470 20 -307 7 -306 6 -6 -54 -5 -54 -5 -305 -6 -305 -15 -280 -16 -280 -34 -480 -35 -480 -29 -410 -30 -410 -10 -205 -10 -205 -6 -200 -7 -200 11 -205 12 -205 15 -95 15 -95 19 -73 20 -73 26 -52 26 -51 21 -28 21 -28 40 -27 41 -28 75 0 75 1 66 31 67 31 58 39 59 39 104 38 104 37 168 49 167 48 138 31 139 30 140 21 140 21 190 6 190 5 135 -15 135 -16 115 -29 116 -30 99 -41 100 -42 52 -34 53 -35 5 0 6 0 57 -42 57 -41 91 -92 91 -92 55 -84 56 -84 39 -80 40 -80 27 -71 27 -71 29 -115 29 -116 15 -108 15 -109 6 -135 7 -135 -12 -120 -12 -120 -28 -112 -28 -111 -42 -104 -41 -103 -46 -80 -46 -80 -61 -85 -60 -85 -121 -120 -120 -121 -45 -36 -45 -35 -65 -45 -65 -45 -100 -55 -100 -56 -91 -36 -90 -35 -95 -25 -94 -25 -90 -12 -90 -12 -86 7 -87 7 -56 14 -56 15 -61 30 -61 31 -43 40 -44 41 -33 51 -32 52 -11 8 -10 7 -95 31 -95 31 -73 14 -74 14 -87 0 -87 0 -59 -15 -60 -15 -61 -30 -61 -30 -60 -52 -60 -53 -53 -78 -52 -78 -39 -87 -38 -87 -35 -120 -34 -121 -26 -154 -26 -154 -15 -151 -14 -150 -12 -240 -12 -240 9 -650 9 -650 0 -645 0 -645 -8 -173 -8 -172 6835 0 6836 0 0 6078 0 6077 -138 82 -137 82 -225 110 -225 109 -167 66 -166 66 -194 66 -193 65 -190 55 -190 55 -220 54 -220 54 -165 36 -165 36 -670 134 -670 134 -225 56 -225 57 -134 45 -134 45 -91 40 -91 40 -77 45 -77 46 -64 58 -65 59 -37 56 -38 57 -20 61 -20 61 1 95 0 95 21 78 20 77 38 77 38 76 70 17 70 18 57 22 57 21 31 29 30 28 0 20 0 20 -27 33 -28 33 -91 43 -90 43 -130 35 -129 35 -135 25 -135 25 -155 19 -155 20 -125 11 -125 10 -170 10 -170 10 -300 -1 -300 -1 -105 -13z" transform="translate(0.000000,1511.000000) scale(0.100000,-0.100000)"/></clipPath><clipPath id="piece-mask-100-10" shape-rendering="crispEdges"><path d="M10500 16919 l-95 -9 -105 -15 -105 -16 -115 -25 -115 -26 -108 -34 -107 -35 -98 -40 -97 -41 -100 -55 -100 -54 -50 -31 -50 -30 -5 -7 -5 -7 -85 -66 -85 -66 -76 -78 -77 -79 -29 -35 -30 -35 -54 -75 -55 -75 -47 -80 -46 -80 -40 -87 -40 -87 -36 -103 -36 -103 -29 -120 -29 -120 -16 -110 -17 -110 -5 -235 -5 -235 17 -165 17 -165 24 -140 24 -140 46 -186 46 -186 67 -199 66 -199 47 -25 46 -25 21 -19 21 -19 0 -11 0 -11 -22 -14 -22 -14 -114 -10 -115 -11 -291 12 -291 12 -270 20 -270 20 -240 20 -240 21 -865 79 -865 79 -235 21 -235 20 -210 16 -210 16 -190 6 -191 7 3 -255 3 -255 10 -325 10 -325 10 -200 11 -200 25 -410 25 -410 20 -325 20 -325 7 -260 7 -260 -7 -185 -6 -185 -12 -75 -12 -75 -19 -79 -20 -79 -32 -65 -32 -65 -40 -41 -40 -42 -50 -24 -50 -25 -110 1 -110 0 -110 38 -110 37 -130 63 -130 64 -111 35 -110 36 -125 35 -124 35 -110 25 -110 25 -110 21 -110 20 -110 16 -110 15 -211 6 -211 6 -114 -12 -114 -12 -115 -25 -115 -26 -95 -35 -95 -35 -75 -40 -75 -41 -65 -45 -65 -44 -10 -12 -10 -12 -38 -29 -39 -29 -73 -86 -72 -85 -45 -70 -45 -70 -45 -90 -45 -90 -36 -95 -35 -95 -31 -121 -31 -122 -19 -123 -20 -124 -11 -125 -12 -125 1 -290 0 -291 11 -149 11 -150 15 -125 15 -125 29 -148 30 -147 36 -111 35 -110 30 -67 30 -66 36 -60 37 -61 30 -40 31 -40 60 -61 61 -60 62 -38 62 -37 58 -24 58 -24 90 -17 89 -16 140 5 140 6 100 21 100 21 145 49 145 48 125 57 125 56 85 34 85 34 80 21 80 22 120 5 120 5 65 -16 65 -16 74 -36 74 -36 67 -67 67 -66 42 -63 43 -64 45 -91 46 -92 47 -145 48 -145 36 -155 35 -155 36 -205 35 -205 75 -555 76 -555 34 -211 35 -210 36 -180 36 -179 43 -170 43 -170 52 -158 52 -159 34 -86 35 -87 37 -80 37 -80 10 -11 10 -11 320 -6 320 -7 480 -20 480 -21 600 -6 600 -6 280 12 280 12 185 15 185 14 165 20 165 20 150 26 150 25 130 30 129 30 104 30 105 30 111 44 111 43 55 26 55 25 64 36 63 35 77 53 76 52 80 80 80 80 48 72 48 72 26 63 26 63 19 70 20 70 5 130 5 130 -20 121 -21 120 -39 120 -39 119 -82 125 -82 125 -54 110 -54 110 -28 80 -27 80 -1 115 0 115 27 56 28 56 42 42 43 42 90 45 90 44 95 25 95 24 105 15 105 16 145 10 145 11 305 2 305 2 80 -18 80 -19 73 -24 73 -24 77 -37 77 -36 85 -55 85 -56 31 -25 31 -26 31 -25 32 -25 79 -80 79 -80 39 -46 39 -45 12 -15 13 -14 69 -96 69 -95 66 -110 66 -109 64 -130 63 -130 51 -127 51 -127 44 -143 44 -143 25 -115 26 -115 16 -105 16 -105 6 -167 6 -166 -13 -98 -12 -99 -25 -85 -24 -84 -31 -59 -31 -58 -39 -44 -39 -45 -59 -36 -58 -36 -35 -81 -35 -82 -17 -64 -16 -65 -6 -65 -5 -66 11 -57 10 -58 27 -55 27 -55 69 -64 68 -63 57 -31 58 -30 77 -26 78 -26 92 -19 93 -19 100 -11 100 -10 125 -6 125 -7 205 11 205 11 180 20 180 21 215 35 215 35 210 44 210 43 166 41 166 41 200 55 200 54 224 70 224 70 200 69 200 70 95 35 95 35 200 80 200 80 170 74 170 75 106 49 105 49 33 75 34 75 69 165 70 165 55 145 55 145 65 185 64 185 65 215 66 215 63 250 64 250 40 195 39 195 27 168 26 168 15 137 15 137 6 221 6 220 -12 130 -12 129 -15 80 -15 80 -21 70 -20 70 -40 88 -41 87 -8 0 -8 0 -6 19 -6 20 -62 63 -62 63 -60 32 -60 31 -61 16 -62 16 -93 0 -94 0 -62 -10 -61 -10 -86 -25 -86 -25 -37 -18 -37 -17 -9 -38 -9 -37 -45 -50 -45 -50 -61 -29 -62 -29 -80 -19 -80 -18 -200 0 -200 1 -110 18 -110 17 -110 25 -110 24 -120 36 -120 35 -145 56 -145 56 -121 57 -121 57 -109 63 -109 63 -86 58 -87 58 -103 82 -103 83 -96 95 -96 96 -76 102 -76 102 -43 72 -42 73 -38 87 -37 86 -21 69 -20 69 -15 85 -15 85 -5 85 -6 85 10 150 10 150 16 115 16 115 38 151 38 150 47 120 47 119 30 60 30 59 50 80 50 80 63 81 63 80 54 51 53 51 60 48 60 48 100 48 100 49 65 17 65 17 100 0 100 -1 85 -29 86 -30 59 -40 60 -39 75 -76 76 -75 129 -38 130 -39 115 -23 115 -24 126 -11 126 -12 110 12 109 11 72 20 71 20 53 25 53 25 34 19 34 20 41 33 40 33 41 40 40 40 20 25 21 25 33 48 33 48 48 102 48 102 32 95 31 95 29 145 29 145 16 124 15 123 11 187 11 186 -5 480 -5 480 -26 505 -25 505 -11 254 -10 253 0 209 0 209 -14 0 -13 0 -544 -90 -544 -89 -295 -46 -295 -46 -275 -40 -275 -39 -310 -40 -310 -39 -305 -30 -305 -31 -215 -16 -215 -15 -345 -6 -345 -6 -170 12 -170 12 -140 20 -140 20 -96 24 -95 24 -84 30 -84 31 -70 42 -71 41 -58 59 -59 60 -31 66 -32 67 0 120 0 120 19 60 18 60 35 83 35 82 27 0 26 0 50 24 50 23 37 41 37 41 25 50 25 49 21 74 20 73 12 127 11 127 -11 149 -12 149 -24 144 -25 145 -35 140 -35 139 -35 113 -36 113 -51 137 -51 137 -93 190 -93 190 -66 103 -65 102 -47 63 -48 62 -65 74 -66 75 -85 71 -86 71 -84 42 -85 41 -65 16 -65 15 -145 -2 -145 -1 -95 -8z" transform="translate(0.000000,1693.000000) scale(0.100000,-0.100000)"/></clipPath><clipPath id="piece-mask-100-11" shape-rendering="crispEdges"><path d="M6500 15220 l-206 -8 -99 -12 -100 -11 -87 -15 -88 -15 -87 -25 -87 -25 -76 -40 -76 -39 -42 -42 -42 -41 -28 -56 -27 -56 0 -115 1 -115 27 -80 28 -80 54 -110 54 -110 82 -125 82 -125 39 -119 39 -120 21 -120 20 -121 -5 -130 -5 -130 -20 -70 -19 -70 -26 -63 -26 -63 -48 -72 -48 -72 -80 -80 -80 -80 -76 -52 -77 -53 -63 -35 -64 -36 -55 -25 -55 -26 -111 -43 -111 -44 -105 -30 -104 -30 -129 -30 -130 -30 -150 -25 -150 -26 -165 -20 -165 -20 -185 -14 -185 -15 -280 -12 -280 -12 -600 6 -600 6 -480 21 -480 20 -316 7 -316 6 -6 -39 -7 -39 0 -230 0 -230 -10 -270 -11 -270 -29 -610 -30 -610 -11 -315 -12 -315 7 -280 6 -280 15 -165 16 -165 25 -133 24 -132 31 -98 31 -97 33 -71 33 -71 43 -64 43 -64 58 -56 58 -57 77 -40 78 -40 65 -18 65 -18 145 0 145 -1 110 23 110 23 235 79 235 79 150 41 150 41 150 35 150 35 170 29 170 29 120 13 120 13 245 0 245 -1 110 -17 110 -18 110 -29 110 -29 75 -31 75 -31 75 -41 75 -40 70 -53 70 -52 54 -54 53 -54 23 -25 23 -25 45 -62 45 -63 55 -107 55 -108 36 -107 36 -108 24 -122 25 -123 10 -95 10 -95 7 -140 6 -140 -11 -169 -11 -169 -16 -101 -15 -101 -25 -113 -25 -114 -41 -116 -40 -117 -43 -90 -43 -90 -62 -95 -63 -94 -91 -91 -91 -90 -58 -38 -58 -39 -72 -33 -72 -33 -60 -17 -60 -17 -131 -5 -131 -6 -69 12 -69 12 -95 29 -95 29 -98 50 -98 50 -83 55 -83 55 -89 30 -89 30 -79 16 -80 16 -98 0 -97 0 -63 -16 -63 -17 -76 -39 -75 -39 -63 -61 -63 -62 -45 -61 -45 -61 -38 -65 -38 -65 -46 -104 -47 -105 -48 -141 -49 -141 -46 -160 -45 -159 -135 -530 -134 -530 -52 -180 -51 -180 -56 -175 -55 -175 -65 -175 -66 -175 -65 -150 -64 -150 -74 -147 -74 -147 -83 -143 -84 -143 -78 -115 -78 -115 -59 -75 -58 -75 6833 -5 6832 -5 2 0 1 0 13 253 12 253 -7 702 -6 702 -6 500 -7 500 12 250 12 250 14 150 15 151 26 154 26 154 34 121 35 120 38 87 39 87 52 78 53 78 60 53 60 52 61 30 61 30 60 15 59 15 87 0 87 0 74 -14 73 -14 95 -31 95 -31 10 -7 11 -8 32 -52 33 -51 44 -41 43 -40 61 -31 61 -30 56 -15 56 -14 87 -7 86 -7 90 12 90 12 94 25 95 25 90 35 91 36 100 56 100 55 65 45 65 45 45 35 45 36 120 121 121 120 60 85 61 85 46 80 46 80 41 103 42 104 28 111 28 112 12 120 12 120 -7 135 -6 135 -15 109 -15 108 -29 116 -29 115 -27 71 -27 71 -40 80 -39 80 -56 84 -55 84 -91 92 -91 92 -57 41 -57 42 -6 0 -5 0 -53 35 -52 34 -100 42 -99 41 -116 30 -115 29 -135 16 -135 15 -190 -5 -190 -6 -140 -21 -140 -21 -139 -30 -138 -31 -167 -48 -168 -49 -104 -37 -104 -38 -59 -39 -58 -39 -67 -31 -66 -31 -75 -1 -75 0 -41 28 -40 27 -21 28 -21 28 -26 51 -26 52 -20 73 -19 73 -15 95 -15 95 -12 205 -11 205 7 200 6 200 10 205 10 205 30 410 29 410 35 480 34 480 16 295 16 295 8 340 7 340 -2 4 -3 4 -153 -71 -153 -71 -120 -51 -120 -52 -200 -80 -200 -80 -95 -35 -95 -35 -200 -70 -200 -69 -224 -70 -224 -70 -200 -54 -200 -55 -166 -41 -166 -41 -210 -43 -210 -44 -215 -35 -215 -35 -180 -21 -180 -20 -205 -11 -205 -11 -125 7 -125 6 -100 10 -100 11 -93 19 -92 19 -78 26 -77 26 -58 30 -57 31 -68 63 -69 64 -27 55 -27 55 -10 58 -11 57 5 66 6 65 16 65 17 64 35 82 35 81 58 36 59 36 39 45 39 44 31 58 31 59 24 84 25 85 12 99 13 98 -6 166 -6 167 -16 105 -16 105 -26 115 -25 115 -44 143 -44 143 -51 127 -51 127 -63 130 -64 130 -66 109 -66 110 -69 95 -69 96 -13 14 -12 15 -39 45 -39 46 -79 80 -79 80 -32 25 -31 25 -31 26 -31 25 -85 56 -85 55 -77 36 -77 37 -73 24 -73 24 -80 17 -80 17 -185 3 -185 3 -205 -8z" transform="translate(0.000000,1523.000000) scale(0.100000,-0.100000)"/></clipPath></defs></svg>