<svg baseProfile="full" height="3648" preserveAspectRatio="none" shape-rendering="geometricPrecision" version="1.1" viewBox="0,0,5472,3648" width="5472" xmlns="http://www.w3.org/2000/svg" xmlns:ev="http://www.w3.org/2001/xml-events" xmlns:xlink="http://www.w3.org/1999/xlink"><title>Jigsaw puzzle piece clips</title><desc>Created with the piecemaker. Piece count: 117</desc><defs/><g><g><rect fill="white" height="3648" width="5472" x="0" y="0"/></g></g><g><g><path d="M 0 0  L 420.923077 0  c 0.0,105.47584520060015 -21.046153846153846,186.74924924656594 92.47781470683374,158.3759159132326
c 4.973183248417645,-24.319999999999997 9.773324563400962,0 9.773324563400962,44.290750753434054
c 0,60.37745718481537 -16.898314709064756,84.69745718481536 -39.259170722972165,60.37745718481537
c -54.72,-24.319999999999997 -33.673846153846156,85.11999999999999 -62.99196854726254,142.2892094818513 c 0.0,61.54164900672842 -21.046153846153846,198.36800554271167 21.795154129124064,169.99467220937834
c 50.91147145144574,-24.319999999999997 89.5256551362508,0 89.5256551362508,32.67199445728832
c 0,49.534812893825176 -101.95439847948408,73.85481289382517 -106.35457602993368,49.534812893825176
c -54.72,-24.319999999999997 -33.673846153846156,85.11999999999999 -4.96623323544118,153.13185377284148 c -0.0,115.78519672339796 21.046153846153846,172.00736492027085 -85.56219446805736,143.6340315869375
c -16.39214264437707,-24.319999999999997 -20.529208190522482,0 -20.529208190522482,59.03263507972915
c 0,46.595484807567885 9.970682530727116,70.91548480756788 42.55746388373717,46.595484807567885
c 54.72,-24.319999999999997 33.673846153846156,85.11999999999999 63.53393877484267,156.07118185909877 c 0.0,61.06336763316335 -21.046153846153846,196.43235069228695 28.786378797689743,168.0590173589536
c 85.20978597263188,-24.319999999999997 114.15564036222631,0 114.15564036222631,34.60764930771305
c 0,30.51161984332569 -52.97664441081646,54.83161984332568 -133.69275196498978,30.51161984332569
c -54.72,-24.319999999999997 -33.673846153846156,85.11999999999999 -9.249267194926261,172.15504682334097 c 0.0,49.797168067672374 -21.046153846153846,167.8133142734545 79.35969799872373,139.43998094012116
c 30.894468569323774,-24.319999999999997 50.64162353094031,0 50.64162353094031,63.2266857265455
c 0,54.85894378728281 -85.01519011523169,79.1789437872828 -128.7827835809151,54.85894378728281
c -54.72,-24.319999999999997 -33.673846153846156,85.11999999999999 -1.2185379487489456,147.80772287938385 c 0.0,22.897259528175827 -21.046153846153846,167.71027090252983 -4.651611455084942,139.3369375691965
c 75.31346507805974,-24.319999999999997 110.34884549049232,0 110.34884549049232,63.329729097470164
c 0,41.322015676580435 -25.67148646341062,65.64201567658043 -53.27529696377878,41.322015676580435
c -54.72,-24.319999999999997 -33.673846153846156,85.11999999999999 -52.4219370716286,161.34465099008622 c -0.0,109.95142466469487 21.046153846153846,189.71160306127783 -89.50254137138131,161.3382697279445
c -35.085147935304114,-24.319999999999997 -43.898822988982175,0 -43.898822988982175,41.328396938722165
c 0,31.2571711698063 90.43673455519748,55.57717116980629 91.04715514318917,31.2571711698063
c 54.72,-24.319999999999997 33.673846153846156,85.11999999999999 42.354209217174315,171.40949549686036 c 0.0,106.0983827554108 -21.046153846153846,195.55337069372771 1.7891764953895974,167.18003736039438
c 84.71835786080577,-24.319999999999997 101.11301662600043,0 101.11301662600043,35.48662930627228
c 0,52.83329218611084 -36.53367715340042,77.15329218611083 -103.74520068198342,52.83329218611084
c -54.72,-24.319999999999997 -33.673846153846156,85.11999999999999 0.8430075605933922,149.83337448055582 c -0.0,42.70464380552223 21.046153846153846,183.11322604588062 -34.751585554362705,154.7398927125473
c -107.57399225597331,-24.319999999999997 -107.5690701754181,0 -107.5690701754181,47.92677395411937
c 0,45.91729123888513 62.45161097059654,70.23729123888512 104.27918616167196,45.91729123888513
c 54.72,-24.319999999999997 33.673846153846156,85.11999999999999 38.04146956810885,156.74937542778153 L 0 3648 " fill="none" stroke="black" stroke-width="0.1" style="vector-effect:non-scaling-stroke;"/></g><g><path d="M 0 0  L 841.846154 0  c -0.0,94.05541848271194 21.046153846153846,170.4279311769171 -74.5821849472847,142.05459784358376
c -35.47089514129086,-24.319999999999997 -45.03227113604139,0 -45.03227113604139,60.61206882308289
c 0,34.158081295247854 51.9028195609338,58.47808129524785 115.36928923068885,34.158081295247854
c 54.72,-24.319999999999997 33.673846153846156,85.11999999999999 4.24516685263724,168.5085853714188 c -0.0,64.33841131915418 21.046153846153846,191.74506892226532 -92.09085168054915,163.37173558893198
c -3.3134463766401536,-24.319999999999997 -10.038576429070446,0 -10.038576429070446,39.294931077734674
c 0,60.07435096912738 71.3129536823199,84.39435096912737 100.15079374222256,60.07435096912738
c 54.72,-24.319999999999997 33.673846153846156,85.11999999999999 1.978634367397035,142.59231569753928 c 0.0,114.33815148365754 -21.046153846153846,189.58092640361923 30.179953968220648,161.2075930702859
c 27.18185261150142,-24.319999999999997 91.62364627997636,0 91.62364627997636,41.45907359638076
c 0,60.672099294019375 -52.54554519924181,84.99209929401937 -63.34091707967819,60.672099294019375
c -54.72,-24.319999999999997 -33.673846153846156,85.11999999999999 -58.46268316851881,141.99456737264728 c 0.0,113.35062240449493 -21.046153846153846,187.2477923091017 63.16171121831926,158.87445897576836
c 34.771998620952544,-24.319999999999997 40.5166387886325,0 40.5166387886325,43.792207690898294
c 0,41.90533688570932 -47.751740505124005,66.22533688570931 -57.25849994158997,41.90533688570932
c -54.72,-24.319999999999997 -33.673846153846156,85.11999999999999 -46.41985006536179,160.76132978095734 c -0.0,45.55258724937763 21.046153846153846,201.06915030594575 -48.47346570218608,172.69581697261242
c -48.08432771869129,-24.319999999999997 -55.979827150233184,0 -55.979827150233184,29.970849694054237
c 0,29.360176149183218 97.61498583681092,53.68017614918321 112.63271466779588,29.360176149183218
c 54.72,-24.319999999999997 33.673846153846156,85.11999999999999 -8.179421815376614,173.30649051748344 c 0.0,65.50983441940676 -21.046153846153846,172.11757692526086 2.2245772111607383,143.74424359192753
c 126.2509594036306,-24.319999999999997 128.89862484968472,0 128.89862484968472,58.92242307473913
c 0,61.1948216562927 -44.4838367072388,85.5148216562927 -139.09915467450637,61.1948216562927
c -54.72,-24.319999999999997 -33.673846153846156,85.11999999999999 7.975952613660894,141.47184501037395 c 0.0,67.95202881412887 -21.046153846153846,189.5476723362613 90.92083493709971,161.17433900292795
c 6.359068210482164,-24.319999999999997 21.861411016767022,0 21.861411016767022,41.492327663738706
c 0,58.93301103600149 -84.74444434585492,83.25301103600148 -104.1352591546525,58.93301103600149
c -54.72,-24.319999999999997 -33.673846153846156,85.11999999999999 -8.646986799214233,143.73365563066517 c 0.0,70.29968283375693 -21.046153846153846,201.7876480988822 82.9785648687099,173.41431476554885
c 28.62447501190074,-24.319999999999997 36.77535542133812,0 36.77535542133812,29.252351901117805
c 0,52.992564505924946 -38.697301098161525,77.31256450592494 -54.783558227764445,52.992564505924946
c -54.72,-24.319999999999997 -33.673846153846156,85.11999999999999 -64.97036206228357,149.6741021607417 c 0.0,58.522630878373185 -21.046153846153846,180.11938210010027 17.21141913378137,151.74604876676693
c 89.8612079167732,-24.319999999999997 89.88119692030651,0 89.88119692030651,50.920617899899725
c 0,62.07467265185065 -81.58896740441365,86.39467265185064 -81.61870137158031,62.07467265185065
c -54.72,-24.319999999999997 -33.673846153846156,85.11999999999999 -25.473914682507555,140.591994014816 L 0 3648 " fill="none" stroke="black" stroke-width="0.1" style="vector-effect:non-scaling-stroke;"/></g><g><path d="M 0 0  L 1262.769231 0  c 0.0,27.69205443798107 -21.046153846153846,195.4245618428583 2.6194811400716524,167.05122850952498
c 90.82040168679904,-24.319999999999997 124.12499388008564,0 124.12499388008564,35.61543815714168
c 0,49.38290471583514 -87.76293872001487,73.70290471583513 -112.318504776425,49.38290471583514
c -54.72,-24.319999999999997 -33.673846153846156,85.11999999999999 -14.425970243732294,153.28376195083152 c 0.0,56.03274593007879 -21.046153846153846,180.1858786985169 6.710662912270659,151.81254536518355
c 78.25012466123928,-24.319999999999997 100.71406054965534,0 100.71406054965534,50.854121301483104
c 0,50.537882351834725 -9.215894056139176,74.85788235183472 -21.874599608008836,50.537882351834725
c -54.72,-24.319999999999997 -33.673846153846156,85.11999999999999 -85.55012385391717,152.12878431483193 c 0.0,59.62869817227683 -21.046153846153846,196.35559225545796 28.426702993050693,167.98225892212463
c 91.97124564402932,-24.319999999999997 106.32823086202939,0 106.32823086202939,34.68440774454203
c 0,31.71559379429891 -25.172333953324824,56.035593794298904 -43.086261829601966,31.71559379429891
c -54.72,-24.319999999999997 -33.673846153846156,85.11999999999999 -91.66867202547812,170.95107287236775 c 0.0,92.61807394967796 -21.046153846153846,185.89015709923942 31.28841042072696,157.51682376590608
c 40.224402909237085,-24.319999999999997 101.11951938119273,0 101.11951938119273,45.149842900760575
c 0,29.696088541485494 -29.14698778638809,54.01608854148549 -127.31345768541478,29.696088541485494
c -54.72,-24.319999999999997 -33.673846153846156,85.11999999999999 -5.094472116504917,172.97057812518116 c 0.0,90.09948799910205 -21.046153846153846,170.32657947221756 43.91605013304414,141.95324613888423
c 24.92022504011273,-24.319999999999997 67.18566651829869,0 67.18566651829869,60.71342052778243
c 0,44.73872539442246 -76.93648637856327,69.05872539442245 -94.30906715445104,44.73872539442246
c -54.72,-24.319999999999997 -33.673846153846156,85.11999999999999 -16.792649496891784,157.9279412722442 c -0.0,115.18104167377724 21.046153846153846,200.6386593544 -84.97642810691124,172.26532602106667
c -30.758154109033995,-24.319999999999997 -45.48462552283331,0 -45.48462552283331,30.401340645599987
c 0,47.6484828249782 23.82264482884582,71.9684828249782 112.45039376930404,47.6484828249782
c 54.72,-24.319999999999997 33.673846153846156,85.11999999999999 18.010659860440512,155.01818384168845 c 0.0,45.13150958407408 -21.046153846153846,171.01031747584435 -7.107668459174546,142.636984142511
c 82.72984152663041,-24.319999999999997 118.88149573523181,0 118.88149573523181,60.029682524155646
c 0,42.01296120959336 -10.815062689824458,66.33296120959335 -29.791767158426765,42.01296120959336
c -54.72,-24.319999999999997 -33.673846153846156,85.11999999999999 -81.9820601176305,160.6537054570733 c -0.0,110.36167763007714 21.046153846153846,190.49726545883775 -10.29736564963907,162.1239321255044
c -63.62071549557868,-24.319999999999997 -95.31979363200364,0 -95.31979363200364,40.54273454116225
c 0,31.67203553461789 10.190533311033004,55.992035534617884 31.424320176109262,31.67203553461789
c 54.72,-24.319999999999997 33.673846153846156,85.11999999999999 74.19283910553345,170.99463113204877 c -0.0,80.53528848091729 21.046153846153846,167.93849041379204 -24.307707733043895,139.5651570804587
c -90.41407193515252,-24.319999999999997 -103.4831601582249,0 -103.4831601582249,63.10150958620795
c 0,44.74275793999419 36.06842294196611,69.06275793999419 37.09836733584943,44.74275793999419
c 54.72,-24.319999999999997 33.673846153846156,85.11999999999999 90.69250055541937,157.92390872667247 L 0 3648 " fill="none" stroke="black" stroke-width="0.1" style="vector-effect:non-scaling-stroke;"/></g><g><path d="M 0 0  L 1683.692308 0  c -0.0,24.503064722325107 21.046153846153846,185.6808428026069 -2.3409249609928695,157.30750946927355
c -49.676911588481914,-24.319999999999997 -117.01489537353243,0 -117.01489537353243,45.3591571973931
c 0,35.352386446691526 69.43690389176614,59.67238644669152 95.18756272561089,35.352386446691526
c 54.72,-24.319999999999997 33.673846153846156,85.11999999999999 24.168257608914402,167.31428021997513 c 0.0,93.36560515652292 -21.046153846153846,190.59886063542987 4.890183935757524,162.22552730209654
c 59.00934890788943,-24.319999999999997 105.3978435427642,0 105.3978435427642,40.44113936457012
c 0,31.907957389723293 -40.91285927746359,56.22795738972329 -91.37857378495109,31.907957389723293
c -54.72,-24.319999999999997 -33.673846153846156,85.11999999999999 -18.90945369357064,170.75870927694336 c 0.0,86.33977058474117 -21.046153846153846,187.25441031627548 7.325118487399005,158.88107698294215
c 90.79702215724167,-24.319999999999997 100.97432179799313,0 100.97432179799313,43.78558968372451
c 0,55.075366358528896 -79.27843065625038,79.39536635852889 -79.41212416585165,55.075366358528896
c -54.72,-24.319999999999997 -33.673846153846156,85.11999999999999 -28.887316119540486,147.59130030813776 c -0.0,77.65748008637586 21.046153846153846,196.7175582425832 -75.26615906690657,168.34422490924987
c -20.91563551063697,-24.319999999999997 -52.00806553609698,0 -52.00806553609698,34.32244175741678
c 0,33.662065345594385 80.15183835344382,57.98206534559438 86.8756133562234,33.662065345594385
c 54.72,-24.319999999999997 33.673846153846156,85.11999999999999 40.39861124678015,169.00460132107227 c 0.0,30.311572318689773 -21.046153846153846,183.5906662690657 60.183891943357274,155.21733293573237
c 24.4928768478628,-24.319999999999997 51.62975182277665,0 51.62975182277665,47.449333730934285
c 0,48.49478738990888 -81.03673566768074,72.81478738990887 -83.43970785500204,48.49478738990888
c -54.72,-24.319999999999997 -33.673846153846156,85.11999999999999 -28.37393591113188,154.17187927675778 c 0.0,57.526731530982 -21.046153846153846,183.26806269946394 77.89744638249603,154.8947293661306
c 25.307463813158463,-24.319999999999997 47.99861565732296,0 47.99861565732296,47.77193730053605
c 0,59.66401846947579 -44.40428417755332,83.98401846947579 -79.31300365555568,59.66401846947579
c -54.72,-24.319999999999997 -33.673846153846156,85.11999999999999 -46.58305838426331,143.00264819719087 c -0.0,47.73692325592824 21.046153846153846,196.5138598493016 -14.747861415464579,168.14052651596828
c -86.92615568362349,-24.319999999999997 -90.59794705326807,0 -90.59794705326807,34.52614015069838
c 0,64.63700120282849 34.17895923306005,88.95700120282848 41.809238117058264,64.63700120282849
c 54.72,-24.319999999999997 33.673846153846156,85.11999999999999 63.53657035167439,138.02966546383817 c 0.0,69.92517173871987 -21.046153846153846,178.0036855706305 70.71050821561438,149.63035223729716
c 36.05019654009208,-24.319999999999997 55.56238346466124,0 55.56238346466124,53.0363144293695
c 0,49.852173430137526 -50.783078541915394,74.17217343013752 -50.59930061346526,49.852173430137526
c -54.72,-24.319999999999997 -33.673846153846156,85.11999999999999 -75.67359106681036,152.81449323652913 c 0.0,71.06149098250481 -21.046153846153846,168.02866093156672 64.2553073889072,139.65532759823338
c 24.942568897180664,-24.319999999999997 42.74135259689204,0 42.74135259689204,63.01133906843327
c 0,32.37693808178878 -29.782685338861672,56.69693808178877 -82.91858061722226,32.37693808178878
c -54.72,-24.319999999999997 -33.673846153846156,85.11999999999999 -24.07807936857698,170.28972858487788 L 0 3648 " fill="none" stroke="black" stroke-width="0.1" style="vector-effect:non-scaling-stroke;"/></g><g><path d="M 0 0  L 2104.615385 0  c 0.0,42.927443926391774 -21.046153846153846,168.2560913947562 2.1830278437517543,139.88275806142286
c 93.3555600825157,-24.319999999999997 126.14011228932851,0 126.14011228932851,62.783908605243795
c 0,47.48264208475476 -30.961500517523305,71.80264208475475 -58.87114661447467,47.48264208475476
c -54.72,-24.319999999999997 -33.673846153846156,85.11999999999999 -69.4519935186056,155.1840245819119 c -0.0,42.63839486123282 21.046153846153846,198.1361654516371 -66.77099795241698,169.76283211830378
c -20.768000016346512,-24.319999999999997 -40.506221171196074,0 -40.506221171196074,32.90383454836288
c 0,30.91938938421427 31.44817000649369,55.23938938421426 75.58058072191722,30.91938938421427
c 54.72,-24.319999999999997 33.673846153846156,85.11999999999999 31.696638401695836,171.7472772824524 c -0.0,105.80653741757527 21.046153846153846,170.52346098951065 -79.77860865477125,142.15012765617732
c -23.838123929165736,-24.319999999999997 -50.78461437867186,0 -50.78461437867186,60.51653901048934
c 0,57.641590648532 63.84009634005174,81.961590648532 115.75929034816386,57.641590648532
c 54.72,-24.319999999999997 33.673846153846156,85.11999999999999 14.80393268527925,145.02507601813465 c 0.0,25.59808639727864 -21.046153846153846,171.52320039628572 68.43405505093791,143.14986706295238
c 40.03343255762005,-24.319999999999997 69.16547080441943,0 69.16547080441943,59.516799603714276
c 0,61.71522121022301 -116.1918265744187,86.035221210223 -121.79808727384304,61.71522121022301
c -54.72,-24.319999999999997 -33.673846153846156,85.11999999999999 -15.801438581514304,140.95144545644365 c 0.0,31.065796781849215 -21.046153846153846,185.77281890074045 24.526772680099786,157.3994855674071
c 48.018487477016606,-24.319999999999997 92.99432616924204,0 92.99432616924204,45.267181099259545
c 0,46.81557488622519 -66.80996024645012,71.13557488622519 -110.78215620679984,46.81557488622519
c -54.72,-24.319999999999997 -33.673846153846156,85.11999999999999 -6.738942642541986,155.85109178044146 c 0.0,54.516187168185034 -21.046153846153846,176.9417216463086 43.461071363599636,148.56838831297526
c 45.98175150020172,-24.319999999999997 84.12080511845372,0 84.12080511845372,54.0982783536914
c 0,58.880449528336015 -48.592941799877394,83.20044952833601 -78.61384116094283,58.880449528336015
c -54.72,-24.319999999999997 -33.673846153846156,85.11999999999999 -48.968035321110534,143.78621713833064 c 0.0,31.026322945272454 -21.046153846153846,199.53975887232522 60.596786165823914,171.1664255389919
c 10.694694720399001,-24.319999999999997 48.83474272604879,0 48.83474272604879,31.50024112767477
c 0,35.439899647585804 -52.3743261696799,59.7598996475858 -105.73307558507315,35.439899647585804
c -54.72,-24.319999999999997 -33.673846153846156,85.11999999999999 -3.69845330679955,167.22676701908085 c 0.0,92.13646681836016 -21.046153846153846,169.6498081820514 70.6019881782134,141.27647484871807
c 42.66095829798531,-24.319999999999997 51.08266378205917,0 51.08266378205917,61.39019181794859
c 0,61.0005035432699 -56.20294205783534,85.3205035432699 -110.87677968448862,61.0005035432699
c -54.72,-24.319999999999997 -33.673846153846156,85.11999999999999 -10.80787227578395,141.66616312339676 c -0.0,88.04395469250942 21.046153846153846,187.5935872015682 0.7827337229890472,159.22025386823486
c -50.936745171835454,-24.319999999999997 -131.58238971838466,0 -131.58238971838466,43.446412798431794
c 0,34.01939434270264 90.38011197603457,58.33939434270263 100.09946953532598,34.01939434270264
c 54.72,-24.319999999999997 33.673846153846156,85.11999999999999 30.700186460069645,168.64727232396402 L 0 3648 " fill="none" stroke="black" stroke-width="0.1" style="vector-effect:non-scaling-stroke;"/></g><g><path d="M 0 0  L 2525.538462 0  c 0.0,115.15855266802757 -21.046153846153846,182.45541513042562 67.1244975969329,154.0820817970923
c 53.839827865709154,-24.319999999999997 70.72439976522092,0 70.72439976522092,48.58458486957437
c 0,36.221612154010415 -48.24566322403375,60.54161215401041 -87.08060557735156,36.221612154010415
c -54.72,-24.319999999999997 -33.673846153846156,85.11999999999999 -50.76829178480226,166.44505451265624 c -0.0,67.27907586357 21.046153846153846,193.67808890515022 -40.05934919922618,165.30475557181688
c -71.27394906850174,-24.319999999999997 -83.90995018212453,0 -83.90995018212453,37.36191109484977
c 0,62.1498485524796 120.40457134250254,86.46984855247959 126.0343756093535,62.1498485524796
c 54.72,-24.319999999999997 33.673846153846156,85.11999999999999 -2.065076228002795,140.51681811418706 c 0.0,43.407426734368 -21.046153846153846,199.39075298491693 88.59733962338767,171.0174196515836
c 2.9273813268945843,-24.319999999999997 13.45730274311201,0 13.45730274311201,31.649247015083063
c 0,39.12931503716163 -4.531351678008038,63.449315037161625 -13.208918840910485,39.12931503716163
c -54.72,-24.319999999999997 -33.673846153846156,85.11999999999999 -88.8457235255892,163.53735162950503 c 0.0,79.50567215078846 -21.046153846153846,175.64585841021278 68.57065897388705,147.27252507687945
c 20.10833441164626,-24.319999999999997 65.27146693289026,0 65.27146693289026,55.39414158978721
c 0,49.80990643111605 -24.598363484795023,74.12990643111604 -74.69587677366022,49.80990643111605
c -54.72,-24.319999999999997 -33.673846153846156,85.11999999999999 -59.146249133117095,152.8567602355506 c 0.0,78.2033073336925 -21.046153846153846,184.0172317329744 37.70004667116105,155.64389839964107
c 44.39632198362568,-24.319999999999997 84.09038957263219,0 84.09038957263219,47.02276826702558
c 0,33.36081018004006 -50.62128809248522,57.680810180040055 -82.12000190470718,33.36081018004006
c -54.72,-24.319999999999997 -33.673846153846156,85.11999999999999 -39.67043433908606,169.3058564866266 c -0.0,86.28136615378362 21.046153846153846,202.05270936339042 -48.25389056717371,173.67937603005709
c -56.91751086531209,-24.319999999999997 -73.58824593657562,0 -73.58824593657562,28.987290636609572
c 0,49.990183843766914 39.22637119170054,74.31018384376691 90.0118098501705,49.990183843766914
c 54.72,-24.319999999999997 33.673846153846156,85.11999999999999 31.830326653578837,152.67648282289974 c -0.0,20.37280197796988 21.046153846153846,194.64223976093334 -88.36131607634623,166.2689064276
c -10.845477046342591,-24.319999999999997 -33.136043691927554,0 -33.136043691927554,36.397760239066656
c 0,28.59676341503598 8.117403337009868,52.91676341503597 33.227357183340814,28.59676341503598
c 54.72,-24.319999999999997 33.673846153846156,85.11999999999999 88.27000258493297,174.06990325163068 c 0.0,30.51562045617412 -21.046153846153846,191.13054374185242 44.61748316765432,162.7572104085191
c 27.74293261629393,-24.319999999999997 91.3075994076716,0 91.3075994076716,39.90945625814757
c 0,60.69759308635426 -90.1475882755541,85.01759308635425 -102.99986757605448,60.69759308635426
c -54.72,-24.319999999999997 -33.673846153846156,85.11999999999999 -32.92521499927143,141.9690735803124 c 0.0,24.02983001222426 -21.046153846153846,166.8360671403307 73.6701698675107,138.46273380699736
c 19.17600973867587,-24.319999999999997 61.71664988826568,0 61.71664988826568,64.2039328596693
c 0,53.923512982617154 -93.78825753999453,78.24351298261715 -108.92493799548876,53.923512982617154
c -54.72,-24.319999999999997 -33.673846153846156,85.11999999999999 -26.46188176028761,148.7431536840495 L 0 3648 " fill="none" stroke="black" stroke-width="0.1" style="vector-effect:non-scaling-stroke;"/></g><g><path d="M 0 0  L 2946.461538 0  c 0.0,91.52278310450966 -21.046153846153846,173.1630786107928 9.639605602542952,144.78974527745947
c 25.301030371515086,-24.319999999999997 107.26175941871051,0 107.26175941871051,57.87692138920718
c 0,49.4388279470686 -55.12855218525712,73.7588279470686 -80.16346780393908,49.4388279470686
c -54.72,-24.319999999999997 -33.673846153846156,85.11999999999999 -36.737897217314384,153.22783871959805 c -0.0,85.51668943313786 21.046153846153846,189.35542471239725 -23.679354655860458,160.98209137906392
c -72.60610792088846,-24.319999999999997 -88.19407384057325,0 -88.19407384057325,41.68457528760274
c 0,36.83572855062312 40.17856175576919,61.15572855062311 73.33773220613979,36.83572855062312
c 54.72,-24.319999999999997 33.673846153846156,85.11999999999999 38.53569629029393,165.83093811604354 c 0.0,105.35903801198482 -21.046153846153846,185.4659873077923 84.46699933571658,157.09265397445895
c 4.773065104478308,-24.319999999999997 17.77170366622677,0 17.77170366622677,45.5740126922077
c 0,42.28241069898925 -50.82534401591481,66.60241069898925 -72.80440620965112,42.28241069898925
c -54.72,-24.319999999999997 -33.673846153846156,85.11999999999999 -29.43429679229223,160.3842559676774 c -0.0,93.77066905231622 21.046153846153846,166.51283689268178 -53.85596810236657,138.13950355934844
c -39.42075369653118,-24.319999999999997 -50.98717463021459,0 -50.98717463021459,64.52716310731822
c 0,47.7027924022257 23.38776750642106,72.02279240222569 89.77177245443814,47.7027924022257
c 54.72,-24.319999999999997 33.673846153846156,85.11999999999999 15.071370278143021,154.96387426444096 c 0.0,34.96729052998437 -21.046153846153846,184.59217240964583 49.71872200944284,156.2188390763125
c 48.67120099406968,-24.319999999999997 55.66305538072508,0 55.66305538072508,46.447827590354166
c 0,41.36153056967959 -29.579092363969473,65.68153056967958 -30.064265187660183,41.36153056967959
c -54.72,-24.319999999999997 -33.673846153846156,85.11999999999999 -75.31751220250774,161.30513609698707 c -0.0,42.723189803321596 21.046153846153846,193.05751843255362 -49.424119457511445,164.6841850992203
c -25.416181173664086,-24.319999999999997 -77.94481860595309,0 -77.94481860595309,37.98248156744637
c 0,45.319303317545916 44.63888732988136,69.63930331754591 93.69082440606189,45.319303317545916
c 54.72,-24.319999999999997 33.673846153846156,85.11999999999999 33.67811365740263,157.34736334912074 c -0.0,95.56650859257785 21.046153846153846,172.51269847261074 2.0550396157882145,144.1393651392774
c -52.5562893951328,-24.319999999999997 -142.13435774008352,0 -142.13435774008352,58.527301527389255
c 0,58.25734683417252 47.83747905975896,82.57734683417252 88.51679368589129,58.25734683417252
c 54.72,-24.319999999999997 33.673846153846156,85.11999999999999 51.56252443840401,144.40931983249413 c -0.0,103.11846111154954 21.046153846153846,194.9666112727961 -51.53319249695599,166.59327793946275
c -64.5996167729354,-24.319999999999997 -86.50766657539239,0 -86.50766657539239,36.073388727203906
c 0,42.05053117572646 35.20306148185079,66.37053117572646 78.12459954846418,42.05053117572646
c 54.72,-24.319999999999997 33.673846153846156,85.11999999999999 59.91625952388421,160.6161354909402 c -0.0,70.35172876868833 21.046153846153846,190.81190302791717 -62.01270691688292,162.43856969458383
c -62.81418949103976,-24.319999999999997 -69.71102903566263,0 -69.71102903566263,40.228096972082824
c 0,55.22489762850623 43.625927650022554,79.54489762850622 56.182844336305635,55.22489762850623
c 54.72,-24.319999999999997 33.673846153846156,85.11999999999999 75.54089161623992,147.44176903816043 L 0 3648 " fill="none" stroke="black" stroke-width="0.1" style="vector-effect:non-scaling-stroke;"/></g><g><path d="M 0 0  L 3367.384615 0  c 0.0,67.76595550370928 -21.046153846153846,200.7957780876477 45.52346619732011,172.42244475431437
c 28.460709041890453,-24.319999999999997 78.71063405882032,0 78.71063405882032,30.244221912352288
c 0,28.63918848426883 -34.91848954727393,52.95918848426882 -61.46737329989123,28.63918848426883
c -54.72,-24.319999999999997 -33.673846153846156,85.11999999999999 -62.76672695624921,174.02747818239783 c 0.0,116.9373780276491 -21.046153846153846,166.40742538583874 3.9141704596766185,138.0340920525054
c 90.49781788929116,-24.319999999999997 138.33003137408468,0 138.33003137408468,64.63257461416126
c 0,39.8730691780803 -123.69657594263339,64.1930691780803 -126.68000604416748,39.8730691780803
c -54.72,-24.319999999999997 -33.673846153846156,85.11999999999999 -15.564195789593825,162.79359748858636 c 0.0,20.779326144175723 -21.046153846153846,174.53671701838672 57.56073163947986,146.1633836850534
c 27.179774262086916,-24.319999999999997 71.59103887615248,0 71.59103887615248,56.50328298161327
c 0,28.5501433834865 -18.08077011366836,52.87014338348649 -74.61810292373181,28.5501433834865
c -54.72,-24.319999999999997 -33.673846153846156,85.11999999999999 -54.533667591900524,174.11652328318016 c -0.0,28.249170655375103 21.046153846153846,168.7428398983854 -14.483387381657744,140.36950656505206
c -29.215342280745094,-24.319999999999997 -89.67483536053902,0 -89.67483536053902,62.297160101614594
c 0,41.60475313667834 37.10799740491411,65.92475313667833 50.69733872286939,41.60475313667834
c 54.72,-24.319999999999997 33.673846153846156,85.11999999999999 53.46088401932738,161.06191352998832 c -0.0,48.23685445552849 21.046153846153846,192.9603581405934 -15.341011194748027,164.58702480726006
c -57.006730890462194,-24.319999999999997 -116.42239733941724,0 -116.42239733941724,38.07964185940659
c 0,32.69655262112258 33.08053396280432,57.01655262112257 89.7922944345627,32.69655262112258
c 54.72,-24.319999999999997 33.673846153846156,85.11999999999999 41.97111409960257,169.97011404554408 c 0.0,69.58489785224397 -21.046153846153846,167.22844725721131 30.064199133919722,138.85511392387798
c 42.622889620701066,-24.319999999999997 104.4416178324015,0 104.4416178324015,63.81155274278868
c 0,62.37223724985765 -62.70389522076744,86.69223724985764 -92.37038127367471,62.37223724985765
c -54.72,-24.319999999999997 -33.673846153846156,85.11999999999999 -42.13543569264651,140.294429416809 c -0.0,101.01929556036298 21.046153846153846,172.7905923458879 4.930459163602222,144.41725901255455
c -69.08804748374014,-24.319999999999997 -123.81314707616383,0 -123.81314707616383,58.249407654112105
c 0,42.56103647259661 18.206622301771493,66.8810364725966 31.499766560948487,42.56103647259661
c 54.72,-24.319999999999997 33.673846153846156,85.11999999999999 87.38292135161312,160.10563019407005 c 0.0,56.23814202291746 -21.046153846153846,202.51220436749801 68.12727721450948,174.13887103416468
c 12.398392714460384,-24.319999999999997 42.816530276431635,0 42.816530276431635,28.527795632501977
c 0,53.15242431628786 -11.603500999505542,77.47242431628786 -20.315676381484735,53.15242431628786
c -54.72,-24.319999999999997 -33.673846153846156,85.11999999999999 -90.62813110945638,149.5142423503788 c -0.0,58.753488965329936 21.046153846153846,199.36827970922954 -8.906310225121922,170.9949463758962
c -83.0188422140794,-24.319999999999997 -129.6234028234145,0 -129.6234028234145,31.671720290770452
c 0,57.727219443721395 83.96722949890359,82.04721944372139 95.85278313833325,57.727219443721395
c 54.72,-24.319999999999997 33.673846153846156,85.11999999999999 42.67692991020317,144.93944722294526 L 0 3648 " fill="none" stroke="black" stroke-width="0.1" style="vector-effect:non-scaling-stroke;"/></g><g><path d="M 0 0  L 3788.307692 0  c 0.0,80.36786489830637 -21.046153846153846,191.74576317016155 -6.335954322404417,163.37242983682822
c 72.98483328837438,-24.319999999999997 144.73004600979027,0 144.73004600979027,39.29423682983844
c 0,40.62364744893458 -78.54538166683545,64.94364744893457 -136.170486773759,40.62364744893458
c -54.72,-24.319999999999997 -33.673846153846156,85.11999999999999 -2.223604913626872,162.04301921773208 c -0.0,114.51119666585721 21.046153846153846,192.15318299854368 -7.7901947821508735,163.77984966521035
c -75.85299070268543,-24.319999999999997 -100.23754765760665,0 -100.23754765760665,38.88681700145631
c 0,47.721068940472634 28.796098665121825,72.04106894047263 49.34178319670158,47.721068940472634
c 54.72,-24.319999999999997 33.673846153846156,85.11999999999999 58.685959243055954,154.94559772619402 c 0.0,76.3857584134186 -21.046153846153846,181.97539560697226 33.81575100592989,153.60206227363892
c 36.31890286343515,-24.319999999999997 97.19354962605388,0 97.19354962605388,49.064604393027736
c 0,44.78941944945748 -46.15959473909094,69.10941944945748 -53.76189812158913,44.78941944945748
c -54.72,-24.319999999999997 -33.673846153846156,85.11999999999999 -77.24740251039464,157.87724721720917 c 0.0,117.14463183304136 -21.046153846153846,198.55389344743642 -0.6710706427470206,170.1805601141031
c 36.24130494298993,-24.319999999999997 137.56430714970642,0 137.56430714970642,32.48610655256357
c 0,39.16929910957148 -50.605805905681116,63.489299109571476 -120.86178897746521,39.16929910957148
c -54.72,-24.319999999999997 -33.673846153846156,85.11999999999999 -16.031447529494187,163.49736755709517 c -0.0,84.96579028848433 21.046153846153846,177.87324419877368 -55.417059193334794,149.49991086544034
c -21.23679212327745,-24.319999999999997 -59.97105693949615,0 -59.97105693949615,53.166755801226316
c 0,62.43763808157618 50.604306195151146,86.75763808157618 80.9179467170033,62.43763808157618
c 54.72,-24.319999999999997 33.673846153846156,85.11999999999999 34.47016941582764,140.22902858509048 c -0.0,84.73011469198174 21.046153846153846,200.625713615292 -62.03691126122879,172.25238028195866
c -37.500143283775905,-24.319999999999997 -51.79421804592054,0 -51.79421804592054,30.414286384707992
c 0,52.83752589394001 81.90378453520958,77.15752589394 114.33303385802334,52.83752589394001
c 54.72,-24.319999999999997 33.673846153846156,85.11999999999999 -0.5019045508740163,149.82914077272665 c -0.0,44.8380344751805 21.046153846153846,177.41447892694484 -5.806882945741107,149.0411455936115
c -84.76621293506793,-24.319999999999997 -104.60370733771538,0 -104.60370733771538,53.625521073055154
c 0,42.66698447840761 55.666269617792764,66.9869844784076 81.76947203331387,42.66698447840761
c 54.72,-24.319999999999997 33.673846153846156,85.11999999999999 28.64111825014261,159.99968218825904 c 0.0,74.89997948599186 -21.046153846153846,182.39819279528734 53.93305265133895,154.024859461954
c 49.809321502184794,-24.319999999999997 50.02647883073616,0 50.02647883073616,48.64180720471265
c 0,62.06597823645538 -61.55381731824734,86.38597823645537 -79.51136507635671,62.06597823645538
c -54.72,-24.319999999999997 -33.673846153846156,85.11999999999999 -24.448166405718396,140.60068843021128 c -0.0,34.70558812905891 21.046153846153846,202.44708705738807 -54.70411673287141,174.07375372405474
c -23.774846980291475,-24.319999999999997 -64.65748691019881,0 -64.65748691019881,28.592912942611918
c 0,30.95157308329601 32.37510281093915,55.271573083296005 127.43880476145117,30.95157308329601
c 54.72,-24.319999999999997 33.673846153846156,85.11999999999999 -8.077201118380941,171.71509358337065 L 0 3648 " fill="none" stroke="black" stroke-width="0.1" style="vector-effect:non-scaling-stroke;"/></g><g><path d="M 0 0  L 4209.230769 0  c -0.0,115.71255290689938 21.046153846153846,198.13901980857705 -88.69719416617114,169.7656864752437
c -10.346564148777247,-24.319999999999997 -17.327819447135326,0 -17.327819447135326,32.900980191422946
c 0,56.434763466885926 23.709710315625802,80.75476346688592 35.99259587661892,56.434763466885926
c 54.72,-24.319999999999997 33.673846153846156,85.11999999999999 70.03241773668755,146.23190319978073 c 0.0,96.90542224480608 -21.046153846153846,175.29596631522796 70.86784605142097,146.92263298189462
c 29.66907333641586,-24.319999999999997 57.08266708289766,0 57.08266708289766,55.744033684772035
c 0,49.08668885739357 -32.06634838678768,73.40668885739356 -67.78946039442121,49.08668885739357
c -54.72,-24.319999999999997 -33.673846153846156,85.11999999999999 -60.161052739897414,153.5799778092731 c 0.0,78.99301887405625 -21.046153846153846,187.91358003529675 1.1764497168268588,159.5402467019634
c 49.309582394655216,-24.319999999999997 102.35136304273497,0 102.35136304273497,43.126419964703246
c 0,31.221542728573297 -25.578395874220547,55.54154272857329 -58.26539628272417,31.221542728573297
c -54.72,-24.319999999999997 -33.673846153846156,85.11999999999999 -45.26241647683766,171.44512393809336 c -0.0,34.76958674230187 21.046153846153846,199.9770210868341 -34.5949455648348,171.60368775350076
c -38.10468021599157,-24.319999999999997 -74.23279204954302,0 -74.23279204954302,31.062978913165892
c 0,34.97155454624985 59.34085124793585,59.29155454624984 82.65217663597787,34.97155454624985
c 54.72,-24.319999999999997 33.673846153846156,85.11999999999999 26.175560978399957,167.6951121204168 c 0.0,82.57400561498662 -21.046153846153846,192.38952317969938 66.06796533172962,164.01618984636605
c 38.82176091049805,-24.319999999999997 64.97732649290842,0 64.97732649290842,38.65047682030061
c 0,61.28239731150754 -63.42399533635787,85.60239731150753 -72.49272140224282,61.28239731150754
c -54.72,-24.319999999999997 -33.673846153846156,85.11999999999999 -58.55257042239522,141.38426935515912 c -0.0,22.53987149558119 21.046153846153846,180.9646595288729 -1.6322469890525442,152.59132619553955
c -61.613572589803475,-24.319999999999997 -104.92544749638708,0 -104.92544749638708,50.075340471127106
c 0,43.57342465622369 26.3430233761094,67.89342465622369 41.28892975147335,43.57342465622369
c 54.72,-24.319999999999997 33.673846153846156,85.11999999999999 65.26876473396628,159.09324201044296 c -0.0,35.37112053638067 21.046153846153846,180.34974585283842 -33.77593097326516,151.9764125195051
c -56.90646415202856,-24.319999999999997 -105.40180931571831,0 -105.40180931571831,50.69025414716157
c 0,56.260441075723435 99.22191353126514,80.58044107572343 129.3445272354306,56.260441075723435
c 54.72,-24.319999999999997 33.673846153846156,85.11999999999999 9.833213053552868,146.40622559094322 c -0.0,90.5185700529836 21.046153846153846,170.53934176513926 -43.027438259575774,142.16600843180592
c -92.64825707655244,-24.319999999999997 -98.866242572228,0 -98.866242572228,60.50065823486074
c 0,28.418725634187922 44.66883506103262,52.738725634187915 100.51777857111195,28.418725634187922
c 54.72,-24.319999999999997 33.673846153846156,85.11999999999999 41.37590226069183,174.24794103247874 c -0.0,65.79193416567426 21.046153846153846,193.76493974025888 -47.16394314941019,165.39160640692555
c -43.782755789601936,-24.319999999999997 -70.68285339808148,0 -70.68285339808148,37.27506025974111
c 0,61.44351906538381 16.504190692603878,85.7635190653838 70.36960441308963,61.44351906538381
c 54.72,-24.319999999999997 33.673846153846156,85.11999999999999 47.47719213440203,141.22314760128285 L 0 3648 " fill="none" stroke="black" stroke-width="0.1" style="vector-effect:non-scaling-stroke;"/></g><g><path d="M 0 0  L 4630.153846 0  c 0.0,60.08180776365673 -21.046153846153846,190.52028681592992 23.134842497728894,162.1469534825966
c 29.8698331901778,-24.319999999999997 86.67371373069314,0 86.67371373069314,40.51971318407007
c 0,49.64880692012051 -61.858685230295876,73.9688069201205 -97.48859525602819,49.64880692012051
c -54.72,-24.319999999999997 -33.673846153846156,85.11999999999999 -12.319960972393844,153.01785974654615 c -0.0,103.2748380119457 21.046153846153846,172.9105303395122 -75.55467502047482,144.53719700617887
c -14.242319946334264,-24.319999999999997 -63.24150751913679,0 -63.24150751913679,58.129469660487786
c 0,47.723594658900595 71.98753417001812,72.04359465890059 101.69165349752569,47.723594658900595
c 54.72,-24.319999999999997 33.673846153846156,85.11999999999999 37.104529042085915,154.94307200776606 c 0.0,76.21417363354372 -21.046153846153846,186.0210722498214 82.5495042124429,157.64773891648807
c 42.77156243018425,-24.319999999999997 47.86904296488338,0 47.86904296488338,45.01892775017859
c 0,56.38477011286457 -52.41588878941132,80.70477011286457 -118.28749773249463,56.38477011286457
c -54.72,-24.319999999999997 -33.673846153846156,85.11999999999999 -12.131049444831646,146.28189655380208 c 0.0,23.42519408185485 -21.046153846153846,172.31375120741137 17.28163059666953,143.94041787407804
c 90.7447252271054,-24.319999999999997 114.10952642667301,0 114.10952642667301,58.72624879258862
c 0,51.61454322485827 -40.39203491511815,75.93454322485826 -120.50405722841244,51.61454322485827
c -54.72,-24.319999999999997 -33.673846153846156,85.11999999999999 -10.887099794930108,151.0521234418084 c 0.0,31.15547973598843 -21.046153846153846,175.63934633063522 87.57539979064411,147.26601299730189
c 4.246392664697487,-24.319999999999997 18.34033776405184,0 18.34033776405184,55.40065366936477
c 0,35.15042521206999 -12.735505586952351,59.47042521206998 -16.665766371265647,35.15042521206999
c -54.72,-24.319999999999997 -33.673846153846156,85.11999999999999 -89.2499711834303,167.51624145459667 c 0.0,87.89364107396467 -21.046153846153846,184.60480087695754 10.587704089734506,156.2314675436242
c 52.34389403056399,-24.319999999999997 123.04027092256868,0 123.04027092256868,46.43519912304245
c 0,55.31381291364366 -73.21371424160532,79.63381291364365 -84.28157629092206,55.31381291364366
c -54.72,-24.319999999999997 -33.673846153846156,85.11999999999999 -49.34639872138112,147.352853753023 c -0.0,89.17376534014197 21.046153846153846,191.30284909188816 -28.681061457622576,162.92951575855483
c -56.174617553043596,-24.319999999999997 -113.49387510716261,0 -113.49387510716261,39.73715090811183
c 0,61.99735978843731 67.65269887538881,86.3173597884373 75.29956110773972,61.99735978843731
c 54.72,-24.319999999999997 33.673846153846156,85.11999999999999 66.87537545704546,140.66930687822935 c 0.0,79.26559765742121 -21.046153846153846,179.04780547029466 70.81642995668872,150.67447213696133
c 55.19067949817399,-24.319999999999997 68.76059963159739,0 68.76059963159739,51.99219452970533
c 0,32.78372015879765 -82.91782909892497,57.10372015879764 -110.24665760648483,32.78372015879765
c -54.72,-24.319999999999997 -33.673846153846156,85.11999999999999 -29.330371981801278,169.882946507869 c -0.0,105.94353568666459 21.046153846153846,195.84771081923472 -66.1757021728256,167.47437748590139
c -16.569835470314697,-24.319999999999997 -58.415612950584446,0 -58.415612950584446,35.19228918076527
c 0,43.99933324203806 48.37560399822118,68.31933324203806 62.330428345532134,43.99933324203806
c 54.72,-24.319999999999997 33.673846153846156,85.11999999999999 62.26088677787791,158.6673334246286 L 0 3648 " fill="none" stroke="black" stroke-width="0.1" style="vector-effect:non-scaling-stroke;"/></g><g><path d="M 0 0  L 5051.076923 0  c -0.0,36.75297378605674 21.046153846153846,193.9907471296638 -81.20886344092074,165.61741379633045
c -41.89023137661592,-24.319999999999997 -49.01983752153001,0 -49.01983752153001,37.049252870336204
c 0,52.95540716538656 24.103591914353455,77.27540716538655 57.05162780723525,52.95540716538656
c 54.72,-24.319999999999997 33.673846153846156,85.11999999999999 73.1770731552155,149.7112595012801 c 0.0,102.97385886258917 -21.046153846153846,183.94636248175544 64.63570968341088,155.5730291484221
c 12.046597901201757,-24.319999999999997 54.26170887668417,0 54.26170887668417,47.09363751824455
c 0,62.0377283257271 -26.31846433019117,86.3577283257271 -42.58543413697346,62.0377283257271
c -54.72,-24.319999999999997 -33.673846153846156,85.11999999999999 -76.31198442312159,140.62893834093956 c -0.0,38.85843306195642 21.046153846153846,169.84879944468227 -38.161109923592754,141.47546611134894
c -54.78249426789758,-24.319999999999997 -71.06275648134846,0 -71.06275648134846,61.19120055531772
c 0,62.868240890689634 12.093405707551733,87.18824089068963 51.339806519584585,62.868240890689634
c 54.72,-24.319999999999997 33.673846153846156,85.11999999999999 57.884059885356635,139.79842577597702 c -0.0,78.59964159336124 21.046153846153846,189.67891901766578 -85.95248452955047,161.30558568433244
c -47.51082552482873,-24.319999999999997 -54.394443886706426,0 -54.394443886706426,41.361080982334215
c 0,43.55344548869016 70.84831661049292,67.87344548869015 85.3430351004071,43.55344548869016
c 54.72,-24.319999999999997 33.673846153846156,85.11999999999999 55.003893315849794,159.1132211779765 c -0.0,74.47177690112983 21.046153846153846,175.5166066261595 2.5103234776053145,147.14327329282617
c -83.25639854404987,-24.319999999999997 -132.0897188169122,0 -132.0897188169122,55.52339337384049
c 0,42.92211846573585 114.01330072023207,67.24211846573584 129.1099500622838,42.92211846573585
c 54.72,-24.319999999999997 33.673846153846156,85.11999999999999 0.46944527702311234,159.7445482009308 c -0.0,113.65317271135352 21.046153846153846,195.61476616120396 5.0542551231258175,167.24143282787063
c -47.380172767766,-24.319999999999997 -124.38484163311036,0 -124.38484163311036,35.42523383879603
c 0,37.08661534836446 22.411343893707073,61.406615348364454 30.685166146654353,37.08661534836446
c 54.72,-24.319999999999997 33.673846153846156,85.11999999999999 88.64542036333019,165.5800513183022 c 0.0,62.17428635196839 -21.046153846153846,201.82594327951816 45.34210815783882,173.45260994618482
c 55.16487018607691,-24.319999999999997 70.06824511139673,0 70.06824511139673,29.214056720481835
c 0,57.63538799426496 -26.316854745014624,81.95538799426495 -31.07801916642049,57.63538799426496
c -54.72,-24.319999999999997 -33.673846153846156,85.11999999999999 -84.33233410281507,145.0312786724017 c 0.0,89.81857597059924 -21.046153846153846,166.5688874238091 42.7330641513585,138.19555409047575
c 29.112556275750794,-24.319999999999997 60.130157885864215,0 60.130157885864215,64.4711125761909
c 0,52.26700250549155 -16.034937768157835,76.58700250549154 -40.359053200110225,52.26700250549155
c -54.72,-24.319999999999997 -33.673846153846156,85.11999999999999 -62.50416883711249,150.3996641611751 c -0.0,106.24749313862159 21.046153846153846,166.99941196751496 -81.33549499928586,138.62607863418162
c -20.360522686124696,-24.319999999999997 -40.72825164277367,0 -40.72825164277367,64.04058803248503
c 0,62.551804270415886 71.22251137887416,86.87180427041588 118.89011190640191,62.551804270415886
c 54.72,-24.319999999999997 33.673846153846156,85.11999999999999 3.1736347356576147,140.11486239625077 L 0 3648 " fill="none" stroke="black" stroke-width="0.1" style="vector-effect:non-scaling-stroke;"/></g></g><g><g><path d="M 0 0  L 0 405.333333  c 93.85526965158829,-0.0 182.24289277457643,20.266666666666666 152.77827738996106,-55.70514823157727
c -25.255384615384614,-30.731047017454387 0,-54.32225544195221 57.68326107157739,-54.32225544195221
c 35.47031444124406,0 60.72569905662867,74.4829253933373 35.47031444124406,95.64767211847172
c -25.255384615384614,52.693333333333335 88.39384615384614,32.42666666666666 174.9912240202944,14.37973155505776 c 85.60379331730527,-0.0 176.38430647337873,20.266666666666666 146.91969108876336,-70.71618624656688
c -25.255384615384614,-18.992589688298565 0,-49.530758774580875 63.541847372775095,-49.530758774580875
c 40.82399267994808,0 66.07937729533269,39.02501037246026 40.82399267994808,50.06531382904076
c -25.255384615384614,52.693333333333335 88.39384615384614,32.42666666666666 169.63754578159038,70.18163119210699 c 100.24131158351345,-0.0 174.3150161882965,20.266666666666666 144.8504008036811,-68.66047807760236
c -25.255384615384614,-10.239567288415882 0,-42.548708827918716 65.61113765785734,-42.548708827918716
c 38.77592387889362,0 64.03130849427824,18.203529747850038 38.77592387889362,52.076190991822045
c -25.255384615384614,52.693333333333335 88.39384615384614,32.42666666666666 171.68561458264483,59.132995913699034 c 69.47760385372976,0.0 183.5756534805103,-20.266666666666666 154.11103809589494,50.96696262968187
c -25.255384615384614,19.379020909602563 0,57.50602751920155 56.35050036564351,57.50602751920155
c 56.3227580408946,0 81.57814265627921,-94.86756442688795 56.3227580408946,-100.0124113505102
c -25.255384615384614,-52.693333333333335 88.39384615384614,-32.42666666666666 154.13878042064385,-8.46057879837322 c 85.05683236093678,-0.0 192.90449171650704,20.266666666666666 163.43987633189167,-2.2859039524030225
c -25.255384615384614,-29.26456734137988 0,-123.79638677672793 47.021662129646785,-123.79638677672793
c 56.01804842236464,0 81.27343303774926,45.66393286904218 56.01804842236464,109.92962837577016
c -25.255384615384614,52.693333333333335 88.39384615384614,32.42666666666666 154.4434900391738,16.152662353360782 c 61.63329782475315,-0.0 173.6250389961413,20.266666666666666 144.16042361152594,-64.7994983932852
c -25.255384615384614,-66.97885352551023 0,-68.35605794529053 66.30111485001251,-68.35605794529053
c 53.885043604261114,0 79.14042821964573,47.58781452521864 53.885043604261114,135.84649628030877
c -25.255384615384614,52.693333333333335 88.39384615384614,32.42666666666666 156.57649485727734,-2.690939941733035 c 83.90171549780358,-0.0 188.47198582885954,20.266666666666666 159.00737044424415,-4.316416284995151
c -25.255384615384614,-101.02085899371026 0,-103.1647486549024 51.45416801729431,-103.1647486549024
c 46.53286211160969,0 71.7882467269943,41.61955374233287 46.53286211160969,106.60621589766107
c -25.255384615384614,52.693333333333335 88.39384615384614,32.42666666666666 163.92867634992876,0.8749490422364801 c 77.23957364961686,0.0 184.2258793561718,-20.266666666666666 154.7612639715564,35.3911246066232
c -25.255384615384614,44.53312002678901 0,90.97517642076798 55.700274489982064,90.97517642076798
c 31.295985827774558,0 56.55137044315917,-33.41205484938483 31.295985827774558,-69.86274240492524
c -25.255384615384614,-52.693333333333335 88.39384615384614,-32.42666666666666 179.1655526337639,-56.503558622465945 c 35.28874415087534,0.0 208.50459042446738,-20.266666666666666 179.03997503985198,79.53500130004838
c -25.255384615384614,37.066771145543846 0,39.15796967974438 31.42156342168647,39.15796967974438
c 35.9619374915834,0 61.21732210696801,-21.24658830563852 35.9619374915834,-45.51160957549058
c -25.255384615384614,-52.693333333333335 88.39384615384614,-32.42666666666666 174.49960096995505,-73.18136140430218 c 40.880216707784,-0.0 198.9229104476018,20.266666666666666 169.4582950629864,-54.78943450985229
c -25.255384615384614,-33.37316341590129 0,-82.69279541766815 41.00324339855206,-82.69279541766815
c 49.164011059923666,0 74.41939567530828,31.779464523494692 49.164011059923666,51.15520410771494
c -25.255384615384614,52.693333333333335 88.39384615384614,32.42666666666666 161.2975274016148,86.32702581980551 c 59.41167887943919,-0.0 190.17535066021009,20.266666666666666 160.71073527559471,-1.6354886770021435
c -25.255384615384614,-68.47691866223711 0,-130.52775971305402 49.75080318594374,-130.52775971305402
c 66.98022256325424,0 92.23560717863886,20.690700368787404 66.98022256325424,65.40851612888822
c -25.255384615384614,52.693333333333335 88.39384615384614,32.42666666666666 143.4813158982842,66.75473226116794 c 55.4914518641189,0.0 180.56194459896386,-20.266666666666666 151.09732921434846,21.93343187547694
c -25.255384615384614,55.33969534254212 0,113.44029066664217 59.36420924718999,113.44029066664217
c 67.20249721300655,0 92.45788182839117,-80.69950664523206 67.20249721300655,-112.17008186785378
c -25.255384615384614,-52.693333333333335 88.39384615384614,-32.42666666666666 143.2590412485319,-23.20364067426533 c 96.98394663115054,0.0 182.8702950204002,-20.266666666666666 153.40567963578482,19.65129331780331
c -25.255384615384614,68.54159311662096 0,116.91162089436567 57.05585882575363,116.91162089436567
c 55.596543227064615,0 80.85192784244923,-130.66886822460378 55.596543227064615,-143.1963018619515
c -25.255384615384614,-52.693333333333335 88.39384615384614,-32.42666666666666 154.86499523447384,6.63338764978252 L 5472 0 " fill="none" stroke="black" stroke-width="0.1" style="vector-effect:non-scaling-stroke;"/></g><g><path d="M 0 0  L 0 810.666667  c 51.852977795968954,-0.0 172.71869625640983,20.266666666666666 143.25408087179446,-56.320006853925996
c -25.255384615384614,-45.69517329298036 0,-48.08618731269592 67.207457589744,-48.08618731269592
c 32.72157108064624,0 57.976955696030856,44.52631926037515 32.72157108064624,84.76915893648493
c -25.255384615384614,52.693333333333335 88.39384615384614,32.42666666666666 177.7399673808922,19.637035230136988 c 29.818576028208685,0.0 186.57346035290436,-20.266666666666666 157.108844968289,37.87478565209072
c -25.255384615384614,18.55463856507 0,70.75327588774105 53.35269349324946,70.75327588774105
c 38.267581181909094,0 63.52296579729371,-33.32570371682071 38.267581181909094,-112.49458861276734
c -25.255384615384614,-52.693333333333335 88.39384615384614,-32.42666666666666 172.19395727962936,3.8665270729355683 c 49.474677856158706,0.0 199.41818194878027,-20.266666666666666 169.9535665641649,51.40786995117845
c -25.255384615384614,42.751928020462664 0,59.672679169767484 40.50797189737355,59.672679169767484
c 48.0065754070593,0 73.26196002244392,-32.295146304258346 48.0065754070593,-97.37503517186141
c -25.255384615384614,-52.693333333333335 88.39384615384614,-32.42666666666666 162.45496305447915,-13.70551394908452 c 50.28156749215957,0.0 187.29037871822334,-20.266666666666666 157.82576333360797,71.74087151220523
c -25.255384615384614,37.686503040358865 0,58.82421602882694 52.635775127930486,58.82421602882694
c 48.080465464357474,0 73.33585007974209,-24.079482398516117 48.080465464357474,-105.46179786191904
c -25.255384615384614,-52.693333333333335 88.39384615384614,-32.42666666666666 162.38107299718098,-25.103289679113132 c 84.37329291403853,-0.0 201.62027759851526,20.266666666666666 172.15566221389986,-15.199018885067277
c -25.255384615384614,-71.88868796906104 0,-98.9895205361749 38.305876247638594,-98.9895205361749
c 51.47768647727236,0 76.73307109265697,51.313271437167835 51.47768647727236,117.08934149416044
c -25.255384615384614,52.693333333333335 88.39384615384614,32.42666666666666 158.9838519842661,-2.9008020729182675 c 61.559624898562674,0.0 209.29995933631295,-20.266666666666666 179.83534395169758,83.02295735270252
c -25.255384615384614,37.7562405798275 0,47.090479214939364 30.62619450984087,47.090479214939364
c 52.82246465570637,0 78.07784927109098,-17.704772660950447 52.82246465570637,-63.72339334293663
c -25.255384615384614,-52.693333333333335 88.39384615384614,-32.42666666666666 157.63907380583208,-66.39004322470525 c 43.77521165532584,-0.0 199.3757683810124,20.266666666666666 169.91115299639702,-16.58818420728987
c -25.255384615384614,-69.90019225572188 0,-82.20762115519798 40.55038546514143,-82.20762115519798
c 41.87795895892418,0 67.1333435743088,43.45864694999673 41.87795895892418,46.336977402575485
c -25.255384615384614,52.693333333333335 88.39384615384614,32.42666666666666 168.58357950261427,52.45882795991237 c 38.35624627092379,-0.0 178.64619734396666,20.266666666666666 149.1815819593513,4.434277592916063
c -25.255384615384614,-44.05244570293544 0,-111.55119366430806 61.27995650218716,-111.55119366430806
c 48.52878591660402,0 73.78417053198864,6.004930425632385 48.52878591660402,27.372092619836636
c -25.255384615384614,52.693333333333335 88.39384615384614,32.42666666666666 161.93275254493443,79.74482345155536 c 73.8403671531706,-0.0 208.73666382792396,20.266666666666666 179.2720484433086,-70.12645882330892
c -25.255384615384614,-59.58875528726194 0,-61.53819820188173 31.18949001822986,-61.53819820188173
c 49.307002929702094,0 74.56238754508671,29.298835490520187 49.307002929702094,53.903402851495315
c -25.255384615384614,52.693333333333335 88.39384615384614,32.42666666666666 161.15453553183636,77.76125417369533 c 72.74969430945934,0.0 208.79925670271757,-20.266666666666666 179.33464131810217,54.93040334903104
c -25.255384615384614,19.896973449296596 0,42.893961430936514 31.12689714343628,42.893961430936514
c 31.67949787091979,0 56.9348824863044,-49.528483050676165 31.67949787091979,-53.96281428223404
c -25.255384615384614,-52.693333333333335 88.39384615384614,-32.42666666666666 178.78204059061866,-43.86155049773351 c 96.94815780194867,0.0 174.49436799315322,-20.266666666666666 145.02975260853785,52.07045287103619
c -25.255384615384614,49.10923149104529 0,50.16364721847753 65.4317858530006,50.16364721847753
c 52.66094007768038,0 77.916324693065,-4.57295074086552 52.66094007768038,-18.215323699869955
c -25.255384615384614,-52.693333333333335 88.39384615384614,-32.42666666666666 157.80059838385807,-84.01877638964376 c 22.366218147801074,-0.0 176.4608208327361,20.266666666666666 146.9962054481207,3.064470829507366
c -25.255384615384614,-65.90171214575602 0,-107.0243036313721 63.46533301341776,-107.0243036313721
c 44.9543031305692,0 70.20968774595381,83.42052325074734 44.9543031305692,110.54465329842155
c -25.255384615384614,52.693333333333335 88.39384615384614,32.42666666666666 165.50723533096925,-6.584820496556816 c 87.80212625465546,-0.0 206.47931012093937,20.266666666666666 177.01469473632397,-21.638704103674527
c -25.255384615384614,-61.09898145910904 0,-80.11743791776729 33.44684372521448,-80.11743791776729
c 50.99251826944993,0 76.24790288483455,8.919318166948417 50.99251826944993,12.930840920928063
c -25.255384615384614,52.693333333333335 88.39384615384614,32.42666666666666 159.46902019208852,88.82530110051376 L 5472 0 " fill="none" stroke="black" stroke-width="0.1" style="vector-effect:non-scaling-stroke;"/></g><g><path d="M 0 0  L 0 1216.000000  c 46.12516959826009,0.0 201.77330246210624,-20.266666666666666 172.30868707749084,82.46538159096632
c -25.255384615384614,11.414471459048299 0,15.735237691935112 38.15285138404761,15.735237691935112
c 30.96026220891372,0 56.21564682429833,-21.532152536246826 30.96026220891372,-47.784441006588025
c -25.255384615384614,-52.693333333333335 88.39384615384614,-32.42666666666666 179.50127625262473,-50.4161782763134 c 26.619308509396618,-0.0 207.23796994065748,20.266666666666666 177.7733545560421,-47.07113296115618
c -25.255384615384614,-57.63704742227639 0,-72.53740157052317 32.688183905496345,-72.53740157052317
c 49.429812984444254,0 74.68519759982887,33.06083654340262 49.429812984444254,59.83201483315321
c -25.255384615384614,52.693333333333335 88.39384615384614,32.42666666666666 161.0317254770942,59.776519698526144 c 59.83955282621688,-0.0 174.09855818114477,20.266666666666666 144.6339427965294,-84.72562322542737
c -25.255384615384614,-10.083984658102755 0,-13.323156559484303 65.82759566500906,-13.323156559484303
c 32.48664730210032,0 57.74203191748494,31.416051681069064 32.48664730210032,39.66957585090241
c -25.255384615384614,52.693333333333335 88.39384615384614,32.42666666666666 177.97489115943813,58.37920393400926 c 49.779685004136915,0.0 205.3236876784777,-20.266666666666666 175.85907229386234,24.433280250097862
c -25.255384615384614,69.93482163194479 0,84.92057267550636 34.60246616767611,84.92057267550636
c 29.641006481346807,0 54.89639109673142,-39.87046119277041 29.641006481346807,-68.69042201669387
c -25.255384615384614,-52.693333333333335 88.39384615384614,-32.42666666666666 180.82053198019165,-40.66343090891036 c 93.6296162065308,-0.0 194.7311291848779,20.266666666666666 165.26651380026252,-15.487296812643375
c -25.255384615384614,-88.39816097396353 0,-112.38587673106127 45.19502466127594,-112.38587673106127
c 44.7048334942227,0 69.96021810960731,33.50540821478295 44.7048334942227,61.2388310993196
c -25.255384615384614,52.693333333333335 88.39384615384614,32.42666666666666 165.75670496731576,66.63434244438506 c 121.67624942224388,0.0 187.87477660610529,-20.266666666666666 158.4101612214899,1.8313515612822586
c -25.255384615384614,32.47584829469064 0,104.15727939240492 52.051377240048566,104.15727939240492
c 57.97151933060661,0 83.22690394599122,-8.330752592649805 57.97151933060661,-35.92777944989648
c -25.255384615384614,-52.693333333333335 88.39384615384614,-32.42666666666666 152.49001913093184,-70.0608515037907 c 114.9068104350216,-0.0 204.02019326454422,20.266666666666666 174.55557787992882,-45.99135318456703
c -25.255384615384614,-55.169339936843926 0,-62.19476393143145 35.905960581609634,-62.19476393143145
c 52.522214463959244,0 77.77759907934386,63.64337372729208 52.522214463959244,80.5103721501851
c -25.255384615384614,52.693333333333335 88.39384615384614,32.42666666666666 157.9393239975792,27.67574496581338 c 104.20371628016979,0.0 179.19075386754258,-20.266666666666666 149.7261384829272,34.90818755426217
c -25.255384615384614,59.00068868129483 0,79.75196890879566 60.73539997861124,79.75196890879566
c 39.661896310782026,0 64.91728092616664,-13.120609726132543 39.661896310782026,-44.1520144236118
c -25.255384615384614,-52.693333333333335 88.39384615384614,-32.42666666666666 170.79964215075643,-70.50814203944603 c 52.0861417590199,0.0 203.61828153399995,-20.266666666666666 174.15366614938458,67.7523859532732
c -25.255384615384614,40.77491935154506 0,59.73478325043449 36.307872312153876,59.73478325043449
c 32.614067983549575,0 57.86945259893419,-53.25592682947499 32.614067983549575,-61.05164142074119
c -25.255384615384614,-52.693333333333335 88.39384615384614,-32.42666666666666 177.84747047798888,-66.4355277829665 c 75.9477903341161,0.0 207.6718086341972,-20.266666666666666 178.2071932495818,13.641777210764726
c -25.255384615384614,66.0981422889172 0,96.11943485851644 32.25434521195666,96.11943485851644
c 52.846058244093626,0 78.10144285947824,-23.602849482736165 52.846058244093626,-28.850067870627925
c -25.255384615384614,-52.693333333333335 88.39384615384614,-32.42666666666666 157.61548021744483,-80.91114419865325 c 94.09335356315037,-0.0 205.46564082649252,20.266666666666666 176.00102544187715,-17.11877205796287
c -25.255384615384614,-101.84171827157354 0,-105.05831128334776 34.460513019661306,-105.05831128334776
c 38.89949410447622,0 64.15487871986083,36.88882084055321 38.89949410447622,66.11537085060436
c -25.255384615384614,52.693333333333335 88.39384615384614,32.42666666666666 171.56204435706223,56.06171249070627 c 86.45780199789817,-0.0 183.95448844473367,20.266666666666666 154.4898730601183,-12.315210978084746
c -25.255384615384614,-104.62536185226372 0,-104.76586650702777 55.971665401420154,-104.76586650702777
c 61.45136120604997,0 86.70674582143458,113.00825136396857 61.45136120604997,114.83781347820981
c -25.255384615384614,52.693333333333335 88.39384615384614,32.42666666666666 149.0101772554885,2.243264006902706 c 60.39658271510597,-0.0 185.89770828810197,20.266666666666666 156.4330929034866,-54.49658433347884
c -25.255384615384614,-23.304915636390497 0,-69.52508133788322 54.02844555805186,-69.52508133788322
c 35.803384937152714,0 61.05876955253733,128.74505045556256 35.803384937152714,128.01163032370562
c -25.255384615384614,52.693333333333335 88.39384615384614,32.42666666666666 174.65815352438574,-3.9899646523435592 L 5472 0 " fill="none" stroke="black" stroke-width="0.1" style="vector-effect:non-scaling-stroke;"/></g><g><path d="M 0 0  L 0 1621.333333  c 108.35846477905504,-0.0 173.7288265202323,20.266666666666666 144.26421113561693,-73.04827416771477
c -25.255384615384614,-33.18093477788492 0,-60.197932027965464 66.19732732592152,-60.197932027965464
c 51.35665908001357,0 76.61204369539819,44.396723404793015 51.35665908001357,55.273982064618295
c -25.255384615384614,52.693333333333335 88.39384615384614,32.42666666666666 159.10487938152488,77.97222413106194 c 121.32824023183838,0.0 175.92472787810908,-20.266666666666666 146.46011249349368,73.07562425236061
c -25.255384615384614,24.646888882215176 0,37.46161389327034 64.00142596804477,37.46161389327034
c 64.69687356639434,0 89.95225818177896,-70.15071733143698 64.69687356639434,-90.14117646813469
c -25.255384615384614,-52.693333333333335 88.39384615384614,-32.42666666666666 145.7646648951441,-20.396061677496263 c 22.95091394790131,0.0 183.13373733522826,-20.266666666666666 153.6691219506129,85.16803959011415
c -25.255384615384614,12.56791488843036 0,15.831179381046752 56.79241651092556,15.831179381046752
c 50.41058729786806,0 75.66597191325268,-48.53657007140172 50.41058729786806,-97.33644160549487
c -25.255384615384614,-52.693333333333335 88.39384615384614,-32.42666666666666 160.0509511636704,-3.662777365666031 c 65.67990008404044,-0.0 186.43275731267977,20.266666666666666 156.96814192806437,-5.149562467731899
c -25.255384615384614,-112.01736729872228 0,-123.56715165537577 53.49339653347408,-123.56715165537577
c 38.97700914964091,0 64.23239376502552,132.33229095361182 38.97700914964091,131.03123884260134
c -25.255384615384614,52.693333333333335 88.39384615384614,32.42666666666666 171.48452931189755,-2.3145247194936758 c 68.1593082913767,-0.0 179.86567663426143,20.266666666666666 150.40106124964606,4.68530080754266
c -25.255384615384614,-110.10340213198708 0,-118.10361751664927 60.06047721189239,-118.10361751664927
c 36.636935595547186,0 61.8923202109318,57.665345299616966 36.636935595547186,61.368637313580464
c -25.255384615384614,52.693333333333335 88.39384615384614,32.42666666666666 173.82460286599127,52.04967939552614 c 37.7525969060229,-0.0 195.65281917473294,20.266666666666666 166.18820379011754,-82.01867388520954
c -25.255384615384614,-39.83832225029837 0,-51.55893686332702 44.27333467142091,-51.55893686332702
c 58.96782050463736,0 84.22320512002197,101.16017439582733 58.96782050463736,124.79331640670415
c -25.255384615384614,52.693333333333335 88.39384615384614,32.42666666666666 151.4937179569011,8.784294341832407 c 31.542884957869404,0.0 196.76370051131522,-20.266666666666666 167.29908512669982,56.48548792203083
c -25.255384615384614,34.33456693007196 0,74.36713887334186 43.16245333483863,74.36713887334186
c 66.95948075355551,0 92.21486536894012,-121.00403478260324 66.95948075355551,-132.89592268202813
c -25.255384615384614,-52.693333333333335 88.39384615384614,-32.42666666666666 143.50205770798294,2.043295886655443 c 64.82931859580188,-0.0 210.01206951088324,20.266666666666666 180.54745412626784,-77.90432653464194
c -25.255384615384614,-18.397868054595193 0,-43.930591983669046 29.914084335270616,-43.930591983669046
c 31.988017864403304,0 57.24340247978792,68.15950619205995 31.988017864403304,123.46945380644034
c -25.255384615384614,52.693333333333335 88.39384615384614,32.42666666666666 178.47352059713515,-1.6345352881293564 c 99.86113238849003,-0.0 199.95196576427287,20.266666666666666 170.4873503796575,-85.45266439597093
c -25.255384615384614,-11.975790921834301 0,-49.36509397893137 39.97418808188095,-49.36509397893137
c 43.57746302114364,0 68.83284763652826,59.75359555061726 43.57746302114364,78.6583963812906
c -25.255384615384614,52.693333333333335 88.39384615384614,32.42666666666666 166.8840754403948,56.1593619936117 c 108.02661924974906,0.0 182.19515253525913,-20.266666666666666 152.73053715064376,79.91334782207089
c -25.255384615384614,19.98294605776074 0,49.487277658009944 57.7310013108947,49.487277658009944
c 43.84553799798047,0 69.10092261336509,-28.18633807966261 43.84553799798047,-41.29743033641107
c -25.255384615384614,-52.693333333333335 88.39384615384614,-32.42666666666666 166.61600046355798,-88.10319514366977 c 83.70223687688787,-0.0 206.1508568333844,20.266666666666666 176.68624144876904,-8.959466969207181
c -25.255384615384614,-62.334367047642196 0,-120.99695683883873 33.775297012769414,-120.99695683883873
c 45.48645415427771,0 70.74183876966232,66.15149115955872 45.48645415427771,116.86063723456508
c -25.255384615384614,52.693333333333335 88.39384615384614,32.42666666666666 164.97508430726074,13.095786573480837 c 74.88419006650837,-0.0 188.65207195958192,20.266666666666666 159.18745657496655,-58.11895110385502
c -25.255384615384614,-24.154606415892612 0,-64.34095586800638 51.274081886571906,-64.34095586800638
c 50.840570364396626,0 76.09595497978124,55.56552393426919 50.840570364396626,94.90117548362892
c -25.255384615384614,52.693333333333335 88.39384615384614,32.42666666666666 159.62096809714183,27.558731488232468 c 39.247420524157924,0.0 183.1951141033237,-20.266666666666666 153.73049871870833,8.234003852922239
c -25.255384615384614,49.10208250813932 0,119.48659795521947 56.73103974283012,119.48659795521947
c 45.517773615569894,0 70.77315823095451,-11.862021502953583 45.517773615569894,-45.54304148073527
c -25.255384615384614,-52.693333333333335 88.39384615384614,-32.42666666666666 164.94376484596856,-82.17756032740644 L 5472 0 " fill="none" stroke="black" stroke-width="0.1" style="vector-effect:non-scaling-stroke;"/></g><g><path d="M 0 0  L 0 2026.666667  c 40.877630141438175,0.0 175.95796179864186,-20.266666666666666 146.49334641402646,31.117329836100133
c -25.255384615384614,31.959956801857725 0,71.34090780502359 63.96819204751199,71.34090780502359
c 37.35767064408802,0 62.61305525947263,-16.584098260810414 37.35767064408802,-47.41165762016443
c -25.255384615384614,-52.693333333333335 88.39384615384614,-32.42666666666666 173.10386781745044,-55.0465800209593 c 29.85114768657074,0.0 180.49892124859366,-20.266666666666666 151.0343058639783,-0.33881991072126666
c -25.255384615384614,101.0748744563554 0,111.10180672224458 59.42723259756016,111.10180672224458
c 39.508239634398365,0 64.76362424978298,-45.50662393117738 39.508239634398365,-66.12163267431382
c -25.255384615384614,-52.693333333333335 88.39384615384614,-32.42666666666666 170.9532988271401,-44.64135413720949 c 66.20083513028705,-0.0 174.89699762979092,20.266666666666666 145.43238224517552,-66.73860674982036
c -25.255384615384614,-31.278393893676924 0,-55.38201310831312 65.02915621636294,-55.38201310831312
c 44.4015676556138,0 69.65695227099842,78.53043461093546 44.4015676556138,78.61733808278527
c -25.255384615384614,52.693333333333335 88.39384615384614,32.42666666666666 166.05997080592465,43.50328177534821 c 102.77546189526639,-0.0 178.88054130261884,20.266666666666666 149.41592591800347,-77.00093238610059
c -25.255384615384614,-37.706847023056646 0,-41.22784939753424 61.045612543534986,-41.22784939753424
c 44.17679204188548,0 69.43217665727009,10.501954393274133 44.17679204188548,30.54362984050384
c -25.255384615384614,52.693333333333335 88.39384615384614,32.42666666666666 166.28474641965298,87.68515194313099 c 41.700089823309156,-0.0 182.5510836607474,20.266666666666666 153.08646827613202,-27.659690475845302
c -25.255384615384614,-68.484279083357 0,-90.22138097737022 57.37507018540643,-90.22138097737022
c 31.247291396490937,0 56.50267601187555,68.53789800056119 31.247291396490937,68.18095241508696
c -25.255384615384614,52.693333333333335 88.39384615384614,32.42666666666666 179.21424706504752,49.70011903812856 c 67.63243432933186,-0.0 192.24153841414198,20.266666666666666 162.7769230295266,-66.47937534410202
c -25.255384615384614,-30.79729442722673 0,-56.23781288065241 47.68461543201184,-56.23781288065241
c 49.37018901307778,0 74.62557362846239,35.03499416960737 49.37018901307778,93.07812949349793
c -25.255384615384614,52.693333333333335 88.39384615384614,32.42666666666666 161.09134944846068,29.63905873125651 c 113.74088552548878,-0.0 184.99217389277896,20.266666666666666 155.52755850816357,-26.692389860584836
c -25.255384615384614,-48.52377717833528 0,-79.41424732046941 54.93397995337489,-79.41424732046941
c 56.61101534402684,0 81.86639995941145,21.10090238556046 56.61101534402684,92.84711274342784
c -25.255384615384614,52.693333333333335 88.39384615384614,32.42666666666666 153.8505231175116,13.25952443762641 c 119.94262646063946,-0.0 205.3953341888278,20.266666666666666 175.93071880421243,-68.91162316957681
c -25.255384615384614,-31.43743939274859 0,-60.45078526401085 34.53081965732602,-60.45078526401085
c 62.24768250207194,0 87.50306711745655,42.59920879402325 62.24768250207194,65.98818754105564
c -25.255384615384614,52.693333333333335 88.39384615384614,32.42666666666666 148.2138559594665,63.37422089253202 c 117.0137655054004,0.0 208.1714378360503,-20.266666666666666 178.70682245143493,82.86089724590741
c -25.255384615384614,10.408383075472424 0,21.038300192251683 31.75471601010352,21.038300192251683
c 38.01918560478484,0 63.27457022016945,-47.77790921451863 38.01918560478484,-109.13480753361091
c -25.255384615384614,-52.693333333333335 88.39384615384614,-32.42666666666666 172.44235285675362,5.235610095451818 c 37.59960466089135,-0.0 178.47101356801937,20.266666666666666 149.00639818340397,-60.85487195472631
c -25.255384615384614,-38.013822471196704 0,-45.71493805387629 61.45514027813448,-45.71493805387629
c 61.89296223986702,0 87.14834685525163,35.83018416054597 61.89296223986702,66.96167115168886
c -25.255384615384614,52.693333333333335 88.39384615384614,32.42666666666666 148.56857622167144,39.60813885691374 c 86.02433168399884,-0.0 192.59003956273227,20.266666666666666 163.12542417811687,-74.78289851110678
c -25.255384615384614,-31.80142156106049 0,-41.29131604459097 47.33611428342158,-41.29131604459097
c 51.47402972089685,0 76.72941433628147,51.611965986339946 51.47402972089685,85.60897420111218
c -25.255384615384614,52.693333333333335 88.39384615384614,32.42666666666666 158.9875087406416,30.465240354585575 c 82.48771431638795,-0.0 173.55227240610236,20.266666666666666 144.087657021487,-73.99777986703815
c -25.255384615384614,-37.11092688775981 0,-43.98019416124822 66.37388144005146,-43.98019416124822
c 46.527151865561166,0 71.78253648094578,23.82994266776478 46.527151865561166,88.3700051311214
c -25.255384615384614,52.693333333333335 88.39384615384614,32.42666666666666 163.9343865959773,29.607968897164966 c 30.752436741926736,-0.0 188.64042188701694,20.266666666666666 159.17580650240157,4.412082705632504
c -25.255384615384614,-99.50907654775585 0,-137.58173113035554 51.28573195913688,-137.58173113035554
c 50.40240940805404,0 75.65779402343865,64.86287232825086 50.40240940805404,102.37179053958513
c -25.255384615384614,52.693333333333335 88.39384615384614,32.42666666666666 160.0591290534844,30.797857885137887 L 5472 0 " fill="none" stroke="black" stroke-width="0.1" style="vector-effect:non-scaling-stroke;"/></g><g><path d="M 0 0  L 0 2432.000000  c 75.10986314332285,0.0 209.0460556488149,-20.266666666666666 179.5814402641995,64.7296026091538
c -25.255384615384614,18.436393540297704 0,69.83410500877395 30.880098197338953,69.83410500877395
c 42.67149304915614,0 67.92687766454075,-51.38161582904199 42.67149304915614,-140.47190009506463
c -25.255384615384614,-52.693333333333335 88.39384615384614,-32.42666666666666 167.7900454123823,5.908192477136879 c 61.021943439677976,0.0 175.85075084148082,-20.266666666666666 146.38613545686542,66.6755238368212
c -25.255384615384614,39.51946243773675 0,47.177610445222044 64.07540300467303,47.177610445222044
c 47.573738509055204,0 72.82912312443982,-35.94068280394673 47.573738509055204,-50.72797120874089
c -25.255384615384614,-52.693333333333335 88.39384615384614,-32.42666666666666 162.88779995248325,-63.12516307330235 c 42.90827318596959,-0.0 173.56251184747737,20.266666666666666 144.097896462862,-1.2294034052200136
c -25.255384615384614,-36.63595915109626 0,-128.98934155119883 66.36364199867646,-128.98934155119883
c 38.73157181594431,0 63.98695643132892,86.80958149339777 38.73157181594431,94.42037620833588
c -25.255384615384614,52.693333333333335 88.39384615384614,32.42666666666666 171.72996664559415,35.798368748082964 c 87.53600890491983,0.0 199.30132478207537,-20.266666666666666 169.83670939745997,11.482867052078367
c -25.255384615384614,99.02479951120777 0,120.96092323837759 40.62482906407848,120.96092323837759
c 66.05134671619146,0 91.30673133157607,-50.74159296235896 66.05134671619146,-111.58633721126203
c -25.255384615384614,-52.693333333333335 88.39384615384614,-32.42666666666666 144.410191745347,-20.857453079193917 c 21.654184464968033,0.0 200.02841680636004,-20.266666666666666 170.56380142174467,81.21418545729098
c -25.255384615384614,23.783509844219473 0,56.283507561291785 39.89773703979378,56.283507561291785
c 42.36263056266523,0 67.61801517804984,-90.02611612222842 42.36263056266523,-118.55592998623086
c -25.255384615384614,-52.693333333333335 88.39384615384614,-32.42666666666666 168.09890789887322,-18.9417630323519 c 116.11902025235344,0.0 184.4316469409789,-20.266666666666666 154.9670315563635,66.03505371398323
c -25.255384615384614,36.98315341547902 0,54.81513023514702 55.494506905174944,54.81513023514702
c 44.386578978538495,0 69.64196359392311,-74.4432574062641 44.386578978538495,-117.28265087885715
c -25.255384615384614,-52.693333333333335 88.39384615384614,-32.42666666666666 166.07495948299996,-3.5675330702731003 c 55.03429451442314,-0.0 181.2178746395257,20.266666666666666 151.75325925491032,-11.201976812494186
c -25.255384615384614,-84.17863711607133 0,-116.47604971757897 58.708279206628134,-116.47604971757897
c 35.07107191823161,0 60.32645653361622,94.61937463627457 35.07107191823161,108.97165506323987
c -25.255384615384614,52.693333333333335 88.39384615384614,32.42666666666666 175.39046654330684,18.70637146683329 c 77.23627351321822,0.0 197.83322357474628,-20.266666666666666 168.36860819013089,28.63563872354544
c -25.255384615384614,75.99412102577739 0,92.99427472448185 42.09293027140757,92.99427472448185
c 34.846055819885464,0 60.10144043527008,-18.630091088257956 34.846055819885464,-33.76120560594052
c -25.255384615384614,-52.693333333333335 88.39384615384614,-32.42666666666666 175.615482641653,-87.86870784208678 c 74.33129893981128,0.0 209.80200066866354,-20.266666666666666 180.33738528404814,20.998992994598726
c -25.255384615384614,41.78186236609613 0,109.0215061789367 30.124153177490314,109.0215061789367
c 40.74825577154593,0 66.00364038693054,-58.84537618182812 40.74825577154593,-91.72886848872696
c -25.255384615384614,-52.693333333333335 88.39384615384614,-32.42666666666666 169.71328268999252,-38.29163068480847 c 100.76247846297714,-0.0 202.50966904533976,20.266666666666666 173.0450536607244,-60.285620272948876
c -25.255384615384614,-30.462868059758662 0,-57.40321400496207 37.41648480081406,-57.40321400496207
c 44.8739363566215,0 70.12932097200611,100.5419814492893 44.8739363566215,109.69469840092567
c -25.255384615384614,52.693333333333335 88.39384615384614,32.42666666666666 165.58760210491695,7.994135876985268 c 75.17400718134222,-0.0 181.12969496485368,20.266666666666666 151.6650795802383,-3.0335928276311432
c -25.255384615384614,-41.1668073634515 0,-100.89616994358293 58.79645888130014,-100.89616994358293
c 38.644642854440406,0 63.90002746982502,38.87246718487194 38.644642854440406,40.45872319516271
c -25.255384615384614,52.693333333333335 88.39384615384614,32.42666666666666 171.81689560709805,63.47103957605136 c 22.347043541275486,-0.0 179.60143437900075,20.266666666666666 150.13681899438535,-24.24537455402948
c -25.255384615384614,-24.188364369624324 0,-105.72801904933955 60.3247194671531,-105.72801904933955
c 61.684819813904824,0 86.94020442928944,52.10260076818136 61.684819813904824,82.00814166771886
c -25.255384615384614,52.693333333333335 88.39384615384614,32.42666666666666 148.77671864763363,47.96525193565017 c 29.320745920833204,-0.0 204.24339547015188,20.266666666666666 174.7787800855365,-22.177939013007958
c -25.255384615384614,-63.414738287709994 0,-101.10488843933378 35.68275837600194,-101.10488843933378
c 57.56322168022007,0 82.81860629560468,41.510104124528304 57.56322168022007,78.06453865616523
c -25.255384615384614,52.693333333333335 88.39384615384614,32.42666666666666 152.89831678131839,45.21828879617651 L 5472 0 " fill="none" stroke="black" stroke-width="0.1" style="vector-effect:non-scaling-stroke;"/></g><g><path d="M 0 0  L 0 2837.333333  c 59.092794430192924,0.0 204.2142748598098,-20.266666666666666 174.7496594751944,50.29486358740493
c -25.255384615384614,29.89939305357172 0,66.72277511868721 35.71187898634406,66.72277511868721
c 33.30896711896915,0 58.564351734353764,-10.802561827379854 33.30896711896915,-50.19089922789078
c -25.255384615384614,-52.693333333333335 88.39384615384614,-32.42666666666666 177.1525713425693,-66.82673947820136 c 26.688772620563384,0.0 205.8087726884745,-20.266666666666666 176.3441573038591,49.472932179807586
c -25.255384615384614,73.56581313455341 0,80.19355440650715 34.11738115767935,80.19355440650715
c 46.83799437926194,0 72.09337899464656,-23.993735946206332 46.83799437926194,-99.71081288083579
c -25.255384615384614,-52.693333333333335 88.39384615384614,-32.42666666666666 163.6235440822765,-29.955673705478944 c 102.21172374646015,0.0 188.2133193483864,-20.266666666666666 158.74870396377102,18.303653442469702
c -25.255384615384614,89.27688757634573 0,101.74955335174789 51.71283449776743,101.74955335174789
c 35.409094390211095,0 60.66447900559571,-54.06236238655226 35.409094390211095,-60.94840505834817
c -25.255384615384614,-52.693333333333335 88.39384615384614,-32.42666666666666 175.05244407132736,-59.10480173586943 c 105.07339680689891,0.0 193.48931086178573,-20.266666666666666 164.02469547717035,76.97764245517939
c -25.255384615384614,44.160885389929206 0,43.803091894709226 46.4368429843681,43.803091894709226
c 59.21870510775341,0 84.47408972313802,-29.975591186339653 59.21870510775341,-40.89470118330998
c -25.255384615384614,-52.693333333333335 88.39384615384614,-32.42666666666666 151.24283335378504,-79.88603316657864 c 46.04359847616781,-0.0 194.23738576981788,20.266666666666666 164.77277038520248,-32.421051443898904
c -25.255384615384614,-64.26208351395333 0,-86.37304590201832 45.688768076335975,-86.37304590201832
c 63.04321612607714,0 88.29860074146175,43.597600953701985 63.04321612607714,53.79067257637939
c -25.255384615384614,52.693333333333335 88.39384615384614,32.42666666666666 147.4183223354613,65.00342476953783 c 42.900451050676594,-0.0 206.75904562663396,20.266666666666666 177.29443024201856,-48.80946928459714
c -25.255384615384614,-28.562749216341025 0,-84.62597678922607 33.16710821951989,-84.62597678922607
c 41.01070905805034,0 66.26609367343495,62.51400847550407 41.01070905805034,88.1191063616739
c -25.255384615384614,52.693333333333335 88.39384615384614,32.42666666666666 169.45082940348811,45.316339712149315 c 58.43263554265358,-0.0 193.3666007997424,20.266666666666666 163.901985415127,-4.033504809256116
c -25.255384615384614,-112.06568510588404 0,-118.74645740038089 46.55955304641145,-118.74645740038089
c 61.82186113909739,0 87.077245754482,38.141558542518275 61.82186113909739,108.50679063483291
c -25.255384615384614,52.693333333333335 88.39384615384614,32.42666666666666 148.63967732244106,14.273171574804095 c 113.53532121972349,-0.0 183.51876517335955,20.266666666666666 154.05414978874416,-83.6331856350608
c -25.255384615384614,-9.508401954941963 0,-40.259557806217245 56.4073886727943,-40.259557806217245
c 37.52064541775894,0 62.776030033143556,57.12532137811799 37.52064541775894,94.9583997920102
c -25.255384615384614,52.693333333333335 88.39384615384614,32.42666666666666 172.9408930437795,28.934343649267845 c 112.60250851842653,0.0 205.6427582119041,-20.266666666666666 176.1781428272887,2.313349233689362
c -25.255384615384614,115.57277005453075 0,123.61541751580329 34.28339563424976,123.61541751580329
c 56.52135177496797,0 81.77673639035258,-41.990102572607874 56.52135177496797,-57.82457051263647
c -25.255384615384614,-52.693333333333335 88.39384615384614,-32.42666666666666 153.94018668657048,-68.10419623685618 c 43.00320380331895,-0.0 210.40365461825047,20.266666666666666 180.9390392336351,-89.0699469017844
c -25.255384615384614,-18.84973090175834 0,-24.182515843610787 29.522499227903353,-24.182515843610787
c 47.64937130877297,0 72.90475592415758,55.53532336508029 47.64937130877297,62.9274367403299
c -25.255384615384614,52.693333333333335 88.39384615384614,32.42666666666666 162.81216715276548,50.32502600506529 c 59.97847931568468,0.0 200.20074157201395,-20.266666666666666 170.73612618739858,47.47540757281269
c -25.255384615384614,39.43638178454014 0,89.31970411888673 39.72541227413987,89.31970411888673
c 45.442602238447506,0 70.69798685383212,-19.04344997416818 45.442602238447506,-59.57269947166145
c -25.255384615384614,-52.693333333333335 88.39384615384614,-32.42666666666666 165.01893622309095,-77.22241222003797 c 40.8336470265458,0.0 195.2814032153541,-20.266666666666666 165.81678783073872,-0.8055401195090469
c -25.255384615384614,31.327085471838338 0,100.01655212089831 44.644750630799734,100.01655212089831
c 48.99659125355544,0 74.25197586894005,-96.1544258535946 48.99659125355544,-102.6949399791397
c -25.255384615384614,-52.693333333333335 88.39384615384614,-32.42666666666666 161.46494720798302,3.48392797775044 c 59.61681628092898,0.0 197.83839586009975,-20.266666666666666 168.37378047548438,35.55275748273277
c -25.255384615384614,26.174153468171507 0,91.41879295719416 42.08775798605407,91.41879295719416
c 44.65797080884619,0 69.9133554242308,-23.880579002340873 44.65797080884619,-104.0496412798702
c -25.255384615384614,-52.693333333333335 88.39384615384614,-32.42666666666666 165.80356765269227,-22.921909160056728 L 5472 0 " fill="none" stroke="black" stroke-width="0.1" style="vector-effect:non-scaling-stroke;"/></g><g><path d="M 0 0  L 0 3242.666667  c 40.1067247855597,0.0 183.22329118437693,-20.266666666666666 153.75867579976153,59.0691279320826
c -25.255384615384614,32.07303748241363 0,49.06544163530749 56.70286266177692,49.06544163530749
c 29.915292262346384,0 55.170676877731,-6.884793073315726 29.915292262346384,-21.13720616300303
c -25.255384615384614,-52.693333333333335 88.39384615384614,-32.42666666666666 180.54624619919207,-86.99736340438706 c 71.00505614935611,-0.0 174.25203407909288,20.266666666666666 144.78741869447748,-47.472190451914365
c -25.255384615384614,-79.54110914576204 0,-81.62720663052531 65.67411976706097,-81.62720663052531
c 61.34117656594543,0 86.59656118133005,81.66797950230341 61.34117656594543,105.98057987176793
c -25.255384615384614,52.693333333333335 88.39384615384614,32.42666666666666 149.12036189559302,23.11881721067175 c 48.93551787553351,0.0 190.32212721345905,-20.266666666666666 160.85751182884366,88.49520810143602
c -25.255384615384614,13.095351002381031 0,28.29388965844845 49.6040266326948,28.29388965844845
c 60.336521411495255,0 85.59190602687987,-50.72048179483649 60.336521411495255,-81.49417282575072
c -25.255384615384614,-52.693333333333335 88.39384615384614,-32.42666666666666 150.1250170500432,-35.294924934133746 c 77.7542457875437,-0.0 204.65729238072646,20.266666666666666 175.19267699611106,-86.67314853537272
c -25.255384615384614,-5.864649868310659 0,-11.829952545198509 35.26886146542739,-11.829952545198509
c 65.87642710508408,0 91.13181172046869,22.331429220835275 65.87642710508408,41.09606592831652
c -25.255384615384614,52.693333333333335 88.39384615384614,32.42666666666666 144.58511135645438,57.40703515225471 c 26.64562379745989,0.0 189.15063995474628,-20.266666666666666 159.68602457013088,21.318174329915752
c -25.255384615384614,36.38219801543395 0,113.656316444414 50.77551389140757,113.656316444414
c 31.92247433226032,0 57.177858947644935,-37.620098204556626 31.92247433226032,-112.86040170210293
c -25.255384615384614,-52.693333333333335 88.39384615384614,-32.42666666666666 178.53906412927813,-22.114089072226818 c 102.09030752625418,-0.0 189.41415499144085,20.266666666666666 159.94953960682545,-77.42165798784849
c -25.255384615384614,-51.044716832024456 0,-52.49237784329081 50.511998854713,-52.49237784329081
c 42.91819792089197,0 68.17358253627658,46.05550635226381 42.91819792089197,107.90154471149614
c -25.255384615384614,52.693333333333335 88.39384615384614,32.42666666666666 167.54334054064648,22.01249111964316 c 85.19710177561723,-0.0 205.1526427476408,20.266666666666666 175.68802736302544,-36.54294066497428
c -25.255384615384614,-56.84957416148479 0,-97.8890650498673 34.77351109851301,-97.8890650498673
c 57.86659162025717,0 83.12197623564178,90.2916529604901 57.86659162025717,140.93461349460495
c -25.255384615384614,52.693333333333335 88.39384615384614,32.42666666666666 152.59494684128128,-6.502607779763366 c 27.242922487051253,0.0 182.107347666669,-20.266666666666666 152.64273228205363,2.5211247961346444
c -25.255384615384614,76.9816682410116 0,97.76322519631759 57.818806179484824,97.76322519631759
c 55.857030764952015,0 81.11241538033663,-43.41586173621701 55.857030764952015,-46.05951516987824
c -25.255384615384614,-52.693333333333335 88.39384615384614,-32.42666666666666 154.60450769658644,-54.224834822573996 c 93.43919141838757,0.0 184.63585642938227,-20.266666666666666 155.17124104476687,21.579335815073964
c -25.255384615384614,80.34740675233665 0,112.07495934669728 55.29029741677158,112.07495934669728
c 53.036661482611464,0 78.29204609799608,-88.33607777290042 53.036661482611464,-91.97637700252824
c -25.255384615384614,-52.693333333333335 88.39384615384614,-32.42666666666666 157.424876978927,-41.677918159243006 c 78.07403941939505,0.0 199.53047015572292,-20.266666666666666 170.06585477110752,81.52099766226182
c -25.255384615384614,13.094679205676266 0,27.276918905509234 40.39568369043093,27.276918905509234
c 37.91390657374055,0 63.16929118912516,-68.97117939834871 37.91390657374055,-106.70262265491374
c -25.255384615384614,-52.693333333333335 88.39384615384614,-32.42666666666666 172.5476318877979,-2.095293912857315 c 91.66765582034688,-0.0 173.15802345855695,20.266666666666666 143.69340807394155,-87.62544575743662
c -25.255384615384614,-6.660636342948278 0,-21.796925581332616 66.7681303875969,-21.796925581332616
c 34.00365211930492,0 59.25903673468953,16.659671767432002 34.00365211930492,64.27980579496158
c -25.255384615384614,52.693333333333335 88.39384615384614,32.42666666666666 176.45788634223354,45.14256554380766 c 43.17140024017851,0.0 207.65427671441415,-20.266666666666666 178.18966132979878,71.5211831534008
c -25.255384615384614,49.37458357748213 0,63.320039605633056 32.27187713173967,63.320039605633056
c 38.39535196050923,0 63.650736575893845,-138.0594910472757 38.39535196050923,-137.28301166905123
c -25.255384615384614,-52.693333333333335 88.39384615384614,-32.42666666666666 172.06618650102922,2.4417889100173795 c 68.06212656265022,-0.0 175.4036907754292,20.266666666666666 145.9390753908138,-9.515983278901892
c -25.255384615384614,-28.157561784860796 0,-117.93528279497912 64.52246307072465,-117.93528279497912
c 61.33036025613745,0 86.58574487152207,32.24077614811779 61.33036025613745,96.43503586437132
c -25.255384615384614,52.693333333333335 88.39384615384614,32.42666666666666 149.131178205401,31.0162302095097 L 5472 0 " fill="none" stroke="black" stroke-width="0.1" style="vector-effect:non-scaling-stroke;"/></g></g></svg>