<svg baseProfile="full" height="784" preserveAspectRatio="none" shape-rendering="geometricPrecision" version="1.1" viewBox="0,0,1180,784" width="1180" xmlns="http://www.w3.org/2000/svg" xmlns:ev="http://www.w3.org/2001/xml-events" xmlns:xlink="http://www.w3.org/1999/xlink"><title>Jigsaw puzzle piece clips</title><desc>Created with the piecemaker. Piece count: 12</desc><defs /><g><g><rect fill="white" height="784" width="1180" x="0" y="0" /></g></g><g><g><path d="M 0 0  L 295.000000 0  c 0.0,57.86586437793302 -14.75,116.56356748994027 6.03361780411415,98.27023415660693&#10;c 42.997162224946386,-15.679999999999998 91.75399891996447,0 91.75399891996447,32.396432510059725&#10;c 0,41.44487598960649 -29.986372599099706,57.12487598960649 -35.428136165876666,41.44487598960649&#10;c -38.35,-15.679999999999998 -23.6,54.879999999999995 -62.35948055820195,89.22179067706017 c -0.0,65.49697722129528 14.75,126.58165354742084 -31.42406270396742,108.2883202140875&#10;c -15.646024523458415,-15.679999999999998 -50.28744069567773,0 -50.28744069567773,22.37834645257915&#10;c 0,19.908880967522634 52.88561625566414,35.588880967522634 59.05580640235385,19.908880967522634&#10;c 38.35,-15.679999999999998 23.6,54.879999999999995 22.6556969972913,110.75778569914402 c -0.0,65.34315121054098 14.75,127.58996635338636 -44.557581060782816,109.29663302005302&#10;c -23.498494495983937,-15.679999999999998 -29.595732223428335,0 -29.595732223428335,21.370033646613635&#10;c 0,30.223799039781795 20.657861052721447,45.903799039781795 36.84781156101158,30.223799039781795&#10;c 38.35,-15.679999999999998 23.6,54.879999999999995 37.30550172319957,100.44286762688486 L 0 784 " fill="none" stroke="black" stroke-width="0.1" style="vector-effect:non-scaling-stroke;" /></g><g><path d="M 0 0  L 590.000000 0  c 0.0,72.94663741355924 -14.75,107.36944781992219 -1.2678752577815178,89.07611448658885&#10;c 45.136318154082794,-15.679999999999998 81.11807768201098,0 81.11807768201098,41.59055218007781&#10;c 0,36.968477006361354 -20.300709444221333,52.648477006361354 -32.08124453890057,36.968477006361354&#10;c -38.35,-15.679999999999998 -23.6,54.879999999999995 -47.768957885328895,93.6981896603053 c 0.0,23.314738713007884 -14.75,123.87824543689126 35.29543749308011,105.58491210355793&#10;c 18.25180712183653,-15.679999999999998 59.52225696660053,0 59.52225696660053,25.08175456310873&#10;c 0,20.117516875937383 -46.28092680700966,35.79751687593738 -60.85530677468307,20.117516875937383&#10;c -38.35,-15.679999999999998 -23.6,54.879999999999995 -33.962387684997566,110.54914979072927 c 0.0,38.7794993013724 -14.75,126.1834995986446 11.832589977039314,107.89016626531127&#10;c 26.527423347814587,-15.679999999999998 84.9820906162792,0 84.9820906162792,22.776500401355392&#10;c 0,18.85279436810012 -67.49971002546711,34.53279436810012 -95.96904558755294,18.85279436810012&#10;c -38.35,-15.679999999999998 -23.6,54.879999999999995 -0.8456350057655726,111.81387229856654 L 0 784 " fill="none" stroke="black" stroke-width="0.1" style="vector-effect:non-scaling-stroke;" /></g><g><path d="M 0 0  L 885.000000 0  c -0.0,44.0336401067625 14.75,108.31180471764623 -14.55426656965761,90.01847138431289&#10;c -41.17633248863808,-15.679999999999998 -60.70131071757213,0 -60.70131071757213,40.64819528235377&#10;c 0,18.698314710478314 7.113969763159951,34.378314710478314 20.46573926639882,18.698314710478314&#10;c 38.35,-15.679999999999998 23.6,54.879999999999995 54.78983802083092,111.96835195618834 c 0.0,52.24757187360142 -14.75,123.83472764969358 9.020435767829072,105.54139431636024&#10;c 53.939772378669474,-15.679999999999998 71.8235013928628,0 71.8235013928628,25.125272350306417&#10;c 0,41.28357738781918 -16.846320701101764,56.96357738781918 -48.8857310238384,41.28357738781918&#10;c -38.35,-15.679999999999998 -23.6,54.879999999999995 -31.958206136853462,89.38308927884748 c 0.0,32.587892187432026 -14.75,123.07734579008148 -1.6273116369236296,104.78401245674814&#10;c 29.97302113442358,-15.679999999999998 82.32378563473515,0 82.32378563473515,25.882654209918513&#10;c 0,23.959415435341754 -61.494609639675765,39.63941543534175 -78.12876810067695,23.959415435341754&#10;c -38.35,-15.679999999999998 -23.6,54.879999999999995 -2.5677058971345588,106.7072512313249 L 0 784 " fill="none" stroke="black" stroke-width="0.1" style="vector-effect:non-scaling-stroke;" /></g></g><g><g><path d="M 0 0  L 0 261.333333  c 54.828188262666764,-0.0 125.02447985160536,13.066666666666666 104.37447985160536,-17.83635569572245&#10;c -17.7,-44.04172610119954 0,-69.9165356568219 43.12552014839464,-69.9165356568219&#10;c 43.65776848118827,0 61.35776848118827,30.397508225377383 43.65776848118827,58.594415645024156&#10;c -17.7,33.97333333333333 61.949999999999996,20.906666666666666 103.84223151881173,29.158475707520196 c 41.390591914001746,0.0 125.18837336436721,-13.066666666666666 104.5383733643672,48.63317103634219&#10;c -17.7,6.880857065124004 0,25.576340656860694 42.9616266356328,25.576340656860694&#10;c 39.35405291712195,0 57.05405291712195,-35.75347019733037 39.35405291712195,-70.5918431216196&#10;c -17.7,-33.97333333333333 61.949999999999996,-20.906666666666666 108.14594708287805,-3.6176685715832804 c 76.24938843094182,-0.0 134.42239010230776,13.066666666666666 113.77239010230777,-32.53037604305142&#10;c -17.7,-29.131777898152997 0,-54.275987286210295 33.72760989769223,-54.275987286210295&#10;c 23.59679588296092,0 41.29679588296092,90.22351235820477 23.59679588296092,92.01826191217259&#10;c -17.7,33.97333333333333 61.949999999999996,20.906666666666666 123.90320411703908,-5.211898582910877 c 42.92328140051887,-0.0 121.5811607050868,13.066666666666666 100.9311607050868,5.1266755206127&#10;c -17.7,-82.85256683141752 0,-87.84407798503386 46.568839294913204,-87.84407798503386&#10;c 34.56430103241772,0 52.26430103241772,29.5465979086736 34.56430103241772,45.608559844097556&#10;c -17.7,33.97333333333333 61.949999999999996,20.906666666666666 112.93569896758228,37.1088426203236 L 1180 0 " fill="none" stroke="black" stroke-width="0.1" style="vector-effect:non-scaling-stroke;" /></g><g><path d="M 0 0  L 0 522.666667  c 75.60418717496859,-0.0 130.16186342770743,13.066666666666666 109.51186342770744,-22.286270001209974&#10;c -17.7,-28.69167813522288 0,-49.53108283657504 37.98813657229256,-49.53108283657504&#10;c 30.311462449803116,0 48.01146244980312,21.033806449533582 30.311462449803116,21.134258946594883&#10;c -17.7,33.97333333333333 61.949999999999996,20.906666666666666 117.18853755019688,50.683093891190126 c 84.46652792983046,-0.0 122.29773174759976,13.066666666666666 101.64773174759975,-8.017220735225784&#10;c -17.7,-35.58090769418537 0,-60.165472597989584 45.85226825240025,-60.165472597989584&#10;c 37.0994650708337,0 54.799465070833705,20.10922414791813 37.0994650708337,28.27015122799579&#10;c -17.7,33.97333333333333 61.949999999999996,20.906666666666666 110.4005349291663,39.91254210521958 c 57.87630817607746,-0.0 137.4111431620443,13.066666666666666 116.7611431620443,-16.747357063649535&#10;c -17.7,-39.77454502600847 0,-61.410716015838034 30.738856837955694,-61.410716015838034&#10;c 41.38151335447722,0 59.081513354477224,24.371409464052856 41.38151335447722,26.249315708914615&#10;c -17.7,33.97333333333333 61.949999999999996,20.906666666666666 106.11848664552278,51.90875737057295 c 21.712326208010143,-0.0 133.23938152608403,13.066666666666666 112.58938152608403,-40.954739819007784&#10;c -17.7,-17.580627873361216 0,-47.4900608787723 34.910618473915974,-47.4900608787723&#10;c 42.57514401033606,0 60.275144010336064,35.2452711932429 42.57514401033606,52.81607452940948&#10;c -17.7,33.97333333333333 61.949999999999996,20.906666666666666 104.92485598966394,35.628726168370605 L 1180 0 " fill="none" stroke="black" stroke-width="0.1" style="vector-effect:non-scaling-stroke;" /></g></g></svg>