<?xml version="1.0" standalone="no"?>
<!DOCTYPE svg PUBLIC "-//W3C//DTD SVG 20010904//EN"
 "http://www.w3.org/TR/2001/REC-SVG-20010904/DTD/svg10.dtd">
<svg version="1.0" xmlns="http://www.w3.org/2000/svg"
 width="215.000000pt" height="244.000000pt" viewBox="0 0 215.000000 244.000000"
 preserveAspectRatio="xMidYMid meet">
<metadata>
Created by potrace 1.16, written by Peter Selinger 2001-2019
</metadata>
<g transform="translate(0.000000,244.000000) scale(0.100000,-0.100000)"
fill="#000000" stroke="none">
<path d="M0 1467 l0 -973 52 7 53 8 142 0 142 1 77 -11 77 -10 59 -19 60 -18
38 -27 39 -27 22 -45 22 -45 -6 -54 -6 -55 -26 -21 -26 -20 3 -31 3 -31 40
-28 40 -28 65 -16 65 -16 85 -1 85 0 55 16 55 16 46 31 46 30 26 38 27 37 6
32 6 32 -6 26 -7 26 -20 20 -21 21 -8 27 -7 26 8 23 8 22 32 19 31 19 62 11
61 10 285 5 285 4 0 1 0 1 1 23 0 22 27 115 26 115 12 95 11 95 -6 68 -6 69
-11 21 -11 22 -21 23 -20 22 -34 0 -33 0 -74 -25 -75 -25 -58 -6 -58 -6 -43
11 -42 12 -34 29 -33 30 -23 52 -23 53 -5 105 -4 106 22 51 21 51 23 19 22 19
44 18 44 17 33 -6 33 -6 63 -29 62 -30 41 0 41 0 26 20 25 20 19 48 18 47 -2
329 -3 330 -12 8 -13 8 -1022 0 -1023 0 0 -973z"/>
</g>
</svg>
