<?xml version="1.0" standalone="no"?>
<!DOCTYPE svg PUBLIC "-//W3C//DTD SVG 20010904//EN"
 "http://www.w3.org/TR/2001/REC-SVG-20010904/DTD/svg10.dtd">
<svg version="1.0" xmlns="http://www.w3.org/2000/svg"
 width="323.000000pt" height="212.000000pt" viewBox="0 0 323.000000 212.000000"
 preserveAspectRatio="xMidYMid meet">
<metadata>
Created by potrace 1.16, written by Peter Selinger 2001-2019
</metadata>
<g transform="translate(0.000000,212.000000) scale(0.100000,-0.100000)"
fill="#000000" stroke="none">
<path d="M650 1892 l0 -228 -11 -59 -11 -59 -24 -47 -23 -47 -38 -31 -37 -30
-51 -12 -52 -11 -69 15 -69 15 -55 21 -55 20 -36 1 -36 0 -26 -20 -26 -20 -13
-38 -13 -37 0 -131 0 -130 28 -43 28 -43 47 -20 46 -21 90 6 91 5 74 26 75 26
18 0 18 0 29 -28 29 -27 16 -55 17 -55 9 -225 9 -225 6 -115 7 -115 336 -3
337 -4 65 12 65 11 42 25 43 25 10 19 10 19 0 32 0 32 -30 94 -30 95 -6 57 -6
57 16 33 17 33 34 14 34 14 64 0 63 0 48 -16 48 -16 52 -52 52 -51 41 -82 41
-82 17 -76 17 -76 -6 -33 -6 -33 -25 -21 -24 -21 -7 -37 -7 -38 14 -25 14 -26
35 -17 35 -18 100 0 100 0 90 20 90 19 75 25 75 26 72 32 72 33 4 10 4 10 -10
125 -10 125 -1 205 -1 205 20 40 20 40 24 12 24 11 25 -9 24 -9 18 -23 18 -22
63 2 63 3 55 26 54 27 40 36 40 36 18 40 19 40 0 70 0 70 -18 35 -17 35 -45
23 -44 22 -106 0 -105 0 -90 -19 -90 -19 -15 -3 -15 -4 -3 55 -3 55 20 270 20
270 4 82 5 82 -15 5 -15 6 -1024 0 -1024 0 0 -228z"/>
</g>
</svg>
