<?xml version="1.0" standalone="no"?>
<!DOCTYPE svg PUBLIC "-//W3C//DTD SVG 20010904//EN"
 "http://www.w3.org/TR/2001/REC-SVG-20010904/DTD/svg10.dtd">
<svg version="1.0" xmlns="http://www.w3.org/2000/svg"
 width="261.000000pt" height="256.000000pt" viewBox="0 0 261.000000 256.000000"
 preserveAspectRatio="xMidYMid meet">
<metadata>
Created by potrace 1.16, written by Peter Selinger 2001-2019
</metadata>
<g transform="translate(0.000000,256.000000) scale(0.100000,-0.100000)"
fill="#000000" stroke="none">
<path d="M510 2546 l0 -14 10 -4 10 -3 3 -320 2 -320 -18 -47 -19 -48 -25 -20
-26 -20 -31 0 -31 0 -63 30 -64 30 -39 6 -39 7 -48 -18 -47 -18 -26 -27 -26
-27 -18 -46 -18 -47 5 -112 5 -113 23 -53 23 -52 33 -30 34 -29 42 -12 43 -11
66 5 66 6 77 25 76 26 23 0 24 0 20 -22 21 -23 13 -25 14 -25 -1 -110 -1 -110
-12 -65 -12 -65 -25 -108 -26 -108 6 -16 7 -16 152 7 152 6 203 16 204 16 5
-5 5 -5 -15 -24 -15 -23 -17 -59 -17 -60 4 -96 5 -97 30 -65 31 -65 37 -41 37
-41 56 -28 57 -28 110 0 110 0 57 28 58 28 34 42 34 42 17 53 18 53 -5 67 -5
68 -27 61 -28 60 4 29 3 29 50 25 50 25 185 0 185 0 145 -5 145 -5 -2 110 -3
110 -9 235 -10 235 -17 55 -16 55 -29 27 -29 28 -38 0 -38 0 -75 -26 -74 -25
-71 -6 -70 -6 -46 21 -47 20 -28 43 -28 43 1 115 0 116 16 37 16 36 26 17 26
17 47 -11 46 -12 29 -15 29 -15 78 -11 79 -12 54 12 54 13 37 30 38 31 23 47
24 47 11 59 11 59 0 238 0 238 -1050 0 -1050 0 0 -14z"/>
</g>
</svg>
