<?xml version="1.0" standalone="no"?>
<!DOCTYPE svg PUBLIC "-//W3C//DTD SVG 20010904//EN"
 "http://www.w3.org/TR/2001/REC-SVG-20010904/DTD/svg10.dtd">
<svg version="1.0" xmlns="http://www.w3.org/2000/svg"
 width="273.000000pt" height="257.000000pt" viewBox="0 0 273.000000 257.000000"
 preserveAspectRatio="xMidYMid meet">
<metadata>
Created by potrace 1.16, written by Peter Selinger 2001-2019
</metadata>
<g transform="translate(0.000000,257.000000) scale(0.100000,-0.100000)"
fill="#000000" stroke="none">
<path d="M1635 2564 l-20 -5 -30 -11 -30 -11 -33 -24 -32 -24 -22 -42 -22 -42
0 -60 -1 -60 33 -66 32 -66 0 -42 0 -42 -15 -29 -15 -28 -52 -26 -53 -26 -60
-11 -60 -12 -308 6 -308 6 6 -47 5 -47 22 -270 22 -271 -6 -15 -6 -16 -104 20
-103 20 -145 1 -145 1 -52 -24 -52 -23 -25 -32 -24 -32 -16 -54 -16 -54 0 -96
0 -96 26 -53 26 -52 52 -39 52 -40 65 -28 64 -29 53 -13 52 -12 84 0 84 -1 45
27 46 26 23 0 24 0 22 -20 22 -21 7 -27 8 -27 -1 -90 -1 -90 -22 -105 -23
-105 -34 -104 -34 -104 0 -3 0 -4 1045 0 1045 0 0 980 0 980 -18 0 -18 0 -80
20 -79 20 -235 30 -235 29 -46 16 -46 16 -28 29 -27 29 6 35 7 36 19 10 18 10
12 35 11 35 -15 53 -16 54 -40 46 -41 46 -54 26 -54 27 -58 3 -58 4 -20 -5z"/>
</g>
</svg>
