<?xml version="1.0" standalone="no"?>
<!DOCTYPE svg PUBLIC "-//W3C//DTD SVG 20010904//EN"
 "http://www.w3.org/TR/2001/REC-SVG-20010904/DTD/svg10.dtd">
<svg version="1.0" xmlns="http://www.w3.org/2000/svg"
 width="224.000000pt" height="251.000000pt" viewBox="0 0 224.000000 251.000000"
 preserveAspectRatio="xMidYMid meet">
<metadata>
Created by potrace 1.16, written by Peter Selinger 2001-2019
</metadata>
<g transform="translate(0.000000,251.000000) scale(0.100000,-0.100000)"
fill="#000000" stroke="none">
<path d="M945 2503 l-20 -4 -33 -11 -34 -10 -33 -30 -34 -29 -12 -54 -12 -54
12 -78 13 -78 24 -73 24 -72 0 -25 0 -25 -42 -27 -42 -28 -190 0 -191 0 -156
8 -156 8 -7 -228 -7 -228 11 -69 11 -69 15 -29 15 -29 32 -19 32 -20 47 0 48
0 92 31 93 31 50 5 51 5 32 -27 32 -27 15 -51 15 -51 0 -123 0 -124 -24 -47
-24 -48 -41 -37 -40 -36 -41 -21 -40 -20 -61 -16 -60 -16 -39 7 -38 6 -33 25
-33 24 -46 0 -46 0 -21 -24 -21 -23 -10 -34 -10 -34 -6 -60 -6 -60 10 -105 10
-105 21 -137 21 -138 1034 0 1033 0 31 97 30 98 21 95 22 95 1 110 1 110 -13
31 -13 31 -25 14 -26 13 -24 -2 -25 -2 -45 -26 -44 -26 -79 0 -78 1 -49 12
-49 12 -64 29 -65 28 -52 40 -52 39 -26 52 -26 53 0 86 0 86 16 54 16 54 24
32 25 32 52 23 52 23 125 0 125 0 105 -18 105 -18 13 -11 14 -11 9 15 9 14 0
50 0 50 -20 215 -19 215 -3 68 -3 67 -3 0 -3 0 -97 20 -97 20 -175 20 -175 20
-50 11 -50 12 -37 18 -37 19 -11 19 -10 20 0 28 0 28 30 63 30 64 0 40 0 40
-16 28 -17 27 -40 26 -39 26 -69 15 -68 16 -113 -1 -113 -1 -20 -5z"/>
</g>
</svg>
