<?xml version="1.0" standalone="no"?>
<!DOCTYPE svg PUBLIC "-//W3C//DTD SVG 20010904//EN"
 "http://www.w3.org/TR/2001/REC-SVG-20010904/DTD/svg10.dtd">
<svg version="1.0" xmlns="http://www.w3.org/2000/svg"
 width="266.000000pt" height="199.000000pt" viewBox="0 0 266.000000 199.000000"
 preserveAspectRatio="xMidYMid meet">
<metadata>
Created by potrace 1.16, written by Peter Selinger 2001-2019
</metadata>
<g transform="translate(0.000000,199.000000) scale(0.100000,-0.100000)"
fill="#000000" stroke="none">
<path d="M1427 1979 l-38 -9 -29 -15 -30 -15 -6 -26 -6 -25 5 -35 6 -35 22
-18 23 -18 4 -60 4 -60 -16 -55 -15 -54 -26 -47 -25 -48 -12 -16 -13 -16 -38
-38 -39 -38 -36 -18 -37 -18 -97 -3 -96 -4 -35 17 -35 17 -17 35 -18 36 6 56
6 56 31 105 30 105 0 40 0 40 -19 31 -19 31 -34 21 -35 21 -64 15 -64 15 -78
6 -78 7 -255 -7 -255 -7 3 -277 4 -276 17 -44 17 -43 39 -38 40 -39 38 -10 38
-11 56 0 55 0 60 10 59 10 52 28 53 27 17 -11 18 -11 18 -30 17 -30 11 -84 12
-84 -6 -90 -5 -90 -22 -57 -21 -58 -41 -35 -41 -35 -34 -6 -34 -6 -48 6 -49 6
-71 25 -71 25 -34 0 -34 0 -30 -25 -29 -24 -18 -63 -18 -63 -6 -270 -7 -270 1
0 0 0 1039 3 1039 2 -6 48 -6 47 -22 140 -21 140 -1 110 0 110 12 39 13 39 21
23 21 24 36 0 36 0 33 -25 34 -24 42 -7 43 -6 53 11 54 11 51 24 52 24 42 38
42 38 24 48 24 47 0 134 0 133 -15 51 -15 51 -32 27 -32 27 -61 -5 -60 -5 -93
-31 -92 -31 -38 0 -37 0 -32 20 -32 19 -15 29 -15 29 -11 68 -11 68 7 227 7
227 -54 7 -54 6 -140 15 -140 15 -115 -1 -115 -1 -38 -9z"/>
</g>
</svg>
