<?xml version="1.0" standalone="no"?>
<!DOCTYPE svg PUBLIC "-//W3C//DTD SVG 20010904//EN"
 "http://www.w3.org/TR/2001/REC-SVG-20010904/DTD/svg10.dtd">
<svg version="1.0" xmlns="http://www.w3.org/2000/svg"
 width="264.000000pt" height="197.000000pt" viewBox="0 0 264.000000 197.000000"
 preserveAspectRatio="xMidYMid meet">
<metadata>
Created by potrace 1.16, written by Peter Selinger 2001-2019
</metadata>
<g transform="translate(0.000000,197.000000) scale(0.100000,-0.100000)"
fill="#000000" stroke="none">
<path d="M1427 1959 l-38 -9 -29 -15 -30 -15 -6 -25 -6 -25 6 -26 7 -27 22
-17 21 -18 4 -70 4 -70 -16 -54 -15 -54 -26 -47 -25 -48 -12 -16 -13 -16 -38
-38 -39 -38 -36 -18 -37 -18 -107 -3 -106 -4 -35 17 -35 17 -18 36 -17 36 6
65 6 66 30 105 31 105 0 30 0 30 -19 31 -19 31 -34 21 -35 21 -64 15 -64 14
-74 7 -74 7 -249 -7 -249 -7 3 -267 4 -266 17 -44 17 -43 39 -38 40 -39 38
-10 38 -11 44 0 44 0 66 11 66 12 41 23 41 24 26 0 26 0 20 -26 21 -26 10 -37
11 -36 6 -120 5 -120 -11 -60 -11 -60 -23 -44 -22 -45 -38 -30 -39 -31 -81 0
-82 0 -78 28 -77 27 -24 0 -24 0 -30 -25 -29 -24 -17 -58 -18 -58 -5 -262 -6
-263 1028 0 1028 0 -7 38 -6 37 -21 140 -21 140 -1 120 -1 120 13 39 13 39 21
23 21 24 46 0 46 0 33 -24 33 -25 38 -6 39 -7 60 16 61 16 40 20 41 21 40 36
41 37 24 48 24 47 0 124 0 123 -15 51 -15 51 -32 27 -32 27 -51 -5 -50 -5 -93
-31 -92 -31 -48 0 -47 0 -32 20 -32 19 -15 29 -15 29 -11 69 -11 69 7 226 7
226 -54 7 -54 6 -140 15 -140 15 -105 -1 -105 -1 -38 -9z"/>
</g>
</svg>
