<?xml version="1.0" standalone="no"?>
<!DOCTYPE svg PUBLIC "-//W3C//DTD SVG 20010904//EN"
 "http://www.w3.org/TR/2001/REC-SVG-20010904/DTD/svg10.dtd">
<svg version="1.0" xmlns="http://www.w3.org/2000/svg"
 width="266.000000pt" height="195.000000pt" viewBox="0 0 266.000000 195.000000"
 preserveAspectRatio="xMidYMid meet">
<metadata>
Created by potrace 1.16, written by Peter Selinger 2001-2019
</metadata>
<g transform="translate(0.000000,195.000000) scale(0.100000,-0.100000)"
fill="#000000" stroke="none">
<path d="M132 1943 l-132 -4 0 -969 0 -970 1040 0 1040 0 0 45 0 45 -16 167
-15 168 -1 120 0 120 18 55 19 55 27 14 26 15 95 -32 95 -32 64 0 63 0 39 11
39 11 37 24 37 25 27 52 26 52 0 47 0 47 -31 36 -31 35 -62 29 -61 29 -72 16
-72 16 -89 0 -88 0 -55 -16 -54 -16 -4 3 -5 4 3 45 2 45 15 175 15 174 9 176
8 175 -2 2 -2 3 -120 -25 -119 -25 -240 -26 -240 -25 -45 -10 -45 -10 -41 -19
-42 -18 -12 -23 -12 -22 5 -38 5 -39 25 -29 25 -30 6 -35 7 -36 -11 -40 -11
-41 -29 -46 -30 -46 -42 -29 -43 -28 -50 0 -50 0 -40 19 -40 18 -33 34 -33 34
-15 54 -16 53 11 59 12 59 25 57 26 58 2 47 1 46 -21 29 -20 28 -35 17 -34 17
-65 10 -65 11 -185 -2 -185 -2 -133 -3z"/>
</g>
</svg>
