<?xml version="1.0" standalone="no"?>
<!DOCTYPE svg PUBLIC "-//W3C//DTD SVG 20010904//EN"
 "http://www.w3.org/TR/2001/REC-SVG-20010904/DTD/svg10.dtd">
<svg version="1.0" xmlns="http://www.w3.org/2000/svg"
 width="264.000000pt" height="193.000000pt" viewBox="0 0 264.000000 193.000000"
 preserveAspectRatio="xMidYMid meet">
<metadata>
Created by potrace 1.16, written by Peter Selinger 2001-2019
</metadata>
<g transform="translate(0.000000,193.000000) scale(0.100000,-0.100000)"
fill="#000000" stroke="none">
<path d="M132 1923 l-132 -4 0 -959 0 -960 1030 0 1030 0 0 35 0 35 -16 167
-15 168 -1 125 -2 125 17 57 17 57 22 16 22 15 26 0 25 0 85 -30 85 -30 55 0
55 0 39 11 39 11 37 24 37 25 27 52 26 52 0 37 0 37 -31 36 -31 35 -62 29 -61
29 -72 16 -72 16 -79 0 -78 0 -51 -15 -51 -15 -13 -16 -13 -16 -7 19 -7 18 4
40 4 40 20 255 19 255 3 100 4 101 -111 -23 -110 -23 -240 -26 -240 -25 -45
-10 -45 -10 -41 -19 -42 -18 -12 -22 -12 -22 6 -30 6 -30 24 -29 25 -29 6 -43
7 -43 -12 -43 -11 -42 -29 -46 -30 -46 -42 -29 -43 -28 -60 0 -60 0 -40 19
-40 18 -33 34 -33 34 -16 55 -16 55 11 65 11 66 26 58 26 59 2 38 1 39 -20 27
-20 28 -35 17 -34 17 -65 10 -65 11 -175 -2 -175 -2 -133 -3z"/>
</g>
</svg>
