<?xml version="1.0" standalone="no"?>
<!DOCTYPE svg PUBLIC "-//W3C//DTD SVG 20010904//EN"
 "http://www.w3.org/TR/2001/REC-SVG-20010904/DTD/svg10.dtd">
<svg version="1.0" xmlns="http://www.w3.org/2000/svg"
 width="272.000000pt" height="193.000000pt" viewBox="0 0 272.000000 193.000000"
 preserveAspectRatio="xMidYMid meet">
<metadata>
Created by potrace 1.16, written by Peter Selinger 2001-2019
</metadata>
<g transform="translate(0.000000,193.000000) scale(0.100000,-0.100000)"
fill="#000000" stroke="none">
<path d="M154 1923 l-92 -4 -6 -22 -6 -22 0 -88 0 -88 -20 -242 -20 -242 -4
-45 -4 -45 7 -18 7 -19 13 16 13 16 51 15 51 15 78 0 79 0 72 -16 72 -16 61
-29 62 -29 31 -35 31 -36 0 -37 0 -37 -26 -52 -27 -52 -37 -25 -37 -24 -39
-11 -39 -11 -55 0 -55 0 -85 30 -85 30 -25 0 -26 0 -22 -15 -22 -16 -16 -57
-17 -57 0 -105 0 -105 18 -222 19 -223 1027 0 1026 0 6 263 5 262 18 58 17 58
29 24 30 25 24 0 24 0 77 -27 78 -28 82 0 81 0 39 31 38 30 22 45 23 44 11 60
11 60 -5 120 -6 120 -11 36 -10 37 -21 26 -20 26 -26 0 -26 0 -41 -24 -41 -23
-66 -12 -66 -11 -44 0 -44 0 -38 11 -38 10 -40 39 -39 38 -17 43 -17 44 -4
261 -3 261 -77 -38 -77 -38 -86 -25 -85 -24 -150 -32 -149 -32 -55 -19 -55
-19 -22 -25 -23 -26 0 -32 0 -32 8 -11 7 -12 20 -3 20 -4 3 -32 3 -32 -17 -28
-18 -28 -30 -29 -31 -29 -55 -26 -55 -26 -165 0 -165 0 -52 14 -51 13 -18 19
-17 19 0 29 0 30 29 63 29 63 0 80 0 80 -27 46 -28 47 -47 31 -47 31 -64 20
-65 20 -111 10 -111 10 -10 -2 -10 -2 -91 -3z"/>
</g>
</svg>
