<?xml version="1.0" standalone="no"?>
<!DOCTYPE svg PUBLIC "-//W3C//DTD SVG 20010904//EN"
 "http://www.w3.org/TR/2001/REC-SVG-20010904/DTD/svg10.dtd">
<svg version="1.0" xmlns="http://www.w3.org/2000/svg"
 width="221.000000pt" height="197.000000pt" viewBox="0 0 221.000000 197.000000"
 preserveAspectRatio="xMidYMid meet">
<metadata>
Created by potrace 1.16, written by Peter Selinger 2001-2019
</metadata>
<g transform="translate(0.000000,197.000000) scale(0.100000,-0.100000)"
fill="#000000" stroke="none">
<path d="M38 1893 l4 -78 -21 -259 -21 -259 0 -81 0 -81 9 -14 9 -14 40 16 39
16 83 15 82 16 82 0 82 0 44 -22 45 -23 17 -35 18 -35 0 -50 0 -50 -19 -40
-19 -40 -33 -32 -34 -32 -59 -30 -58 -31 -47 0 -47 0 -22 24 -21 25 -35 6 -34
7 -29 -14 -28 -13 -20 -40 -20 -40 0 -195 0 -195 9 -155 9 -155 289 -3 289 -3
93 10 93 11 42 15 42 14 35 34 35 33 10 42 9 43 -9 58 -9 58 -25 59 -25 59 -7
33 -7 33 17 25 16 25 27 10 27 11 90 0 90 -1 65 -20 66 -21 42 -36 42 -36 0
-13 0 -14 -21 -6 -20 -7 -10 -25 -9 -24 0 -35 0 -35 10 -20 11 -19 47 -24 47
-23 46 -11 47 -12 146 -30 146 -30 85 -30 86 -29 56 -31 55 -31 12 4 13 5 16
79 17 78 20 115 21 115 6 120 6 120 -12 57 -12 56 -24 26 -24 26 -47 0 -47 0
-72 -25 -72 -24 -55 -7 -55 -6 -55 16 -54 15 -42 31 -41 30 -21 40 -20 40 -6
43 -6 42 11 41 11 41 41 47 41 47 42 21 41 22 62 0 61 1 29 -21 28 -21 34 -11
34 -12 44 0 44 0 24 24 23 23 11 39 11 39 0 110 0 110 -7 233 -6 232 -1047 0
-1047 0 5 -77z"/>
</g>
</svg>
