<?xml version="1.0" standalone="no"?>
<!DOCTYPE svg PUBLIC "-//W3C//DTD SVG 20010904//EN"
 "http://www.w3.org/TR/2001/REC-SVG-20010904/DTD/svg10.dtd">
<svg version="1.0" xmlns="http://www.w3.org/2000/svg"
 width="219.000000pt" height="195.000000pt" viewBox="0 0 219.000000 195.000000"
 preserveAspectRatio="xMidYMid meet">
<metadata>
Created by potrace 1.16, written by Peter Selinger 2001-2019
</metadata>
<g transform="translate(0.000000,195.000000) scale(0.100000,-0.100000)"
fill="#000000" stroke="none">
<path d="M35 1944 l10 -4 -3 -78 -3 -77 -19 -254 -20 -254 0 -68 0 -67 6 -15
6 -15 31 13 32 13 84 16 83 16 92 0 92 0 44 -22 45 -23 17 -35 18 -35 0 -60 0
-60 -19 -40 -18 -40 -40 -36 -40 -36 -54 -26 -54 -27 -54 -2 -53 -2 -18 22
-19 23 -30 10 -30 11 -28 -14 -28 -13 -20 -40 -20 -40 -4 -135 -3 -135 11
-150 11 -150 2 -55 1 -55 278 -3 278 -3 94 10 94 11 42 15 42 14 35 34 35 33
9 38 9 39 -9 52 -8 52 -26 62 -26 61 -6 43 -6 43 23 28 24 27 64 9 64 9 76 -9
76 -9 46 -16 47 -16 41 -35 41 -36 0 -22 0 -23 -24 -11 -25 -11 -7 -37 -7 -37
9 -26 9 -26 40 -22 40 -23 35 -10 35 -10 168 -36 168 -35 85 -29 85 -29 54
-30 54 -31 4 8 5 7 16 75 16 75 20 115 21 115 6 110 6 110 -12 57 -12 56 -24
26 -24 26 -37 0 -37 0 -74 -25 -74 -26 -62 -6 -63 -6 -55 16 -55 16 -42 31
-41 30 -22 41 -21 42 -5 51 -5 51 11 41 11 41 41 47 41 47 41 21 41 20 55 5
56 5 35 -16 35 -17 30 -16 30 -16 47 -5 47 -4 24 25 25 24 11 39 11 39 0 100
0 100 -7 233 -6 232 -1041 -1 -1041 -1 10 -4z"/>
</g>
</svg>
