<?xml version="1.0" standalone="no"?>
<!DOCTYPE svg PUBLIC "-//W3C//DTD SVG 20010904//EN"
 "http://www.w3.org/TR/2001/REC-SVG-20010904/DTD/svg10.dtd">
<svg version="1.0" xmlns="http://www.w3.org/2000/svg"
 width="262.000000pt" height="197.000000pt" viewBox="0 0 262.000000 197.000000"
 preserveAspectRatio="xMidYMid meet">
<metadata>
Created by potrace 1.16, written by Peter Selinger 2001-2019
</metadata>
<g transform="translate(0.000000,197.000000) scale(0.100000,-0.100000)"
fill="#000000" stroke="none">
<path d="M585 1643 l7 -328 -12 -44 -11 -43 -25 -25 -25 -25 -47 4 -47 5 -30
16 -30 16 -35 17 -35 16 -56 -5 -55 -5 -41 -20 -41 -21 -41 -47 -41 -47 -11
-41 -11 -41 5 -51 5 -51 21 -42 22 -41 41 -30 42 -31 55 -16 55 -16 63 6 62 6
74 26 74 25 37 0 37 0 24 -26 24 -26 12 -56 12 -57 -6 -110 -6 -110 -32 -170
-32 -170 -4 -26 -5 -26 234 -14 233 -13 175 -1 175 0 38 19 37 18 0 16 0 15
-27 56 -28 56 -4 77 -3 77 15 45 16 46 27 35 27 36 41 21 40 21 91 -6 90 -5
69 -24 70 -23 4 -12 4 -13 -25 -9 -24 -9 -6 -24 -7 -23 0 -27 0 -27 37 -30 37
-31 61 -20 60 -19 120 -27 120 -26 90 -30 90 -29 83 -44 82 -44 0 965 0 964
-1021 0 -1021 0 7 -327z"/>
</g>
</svg>
