<?xml version="1.0" standalone="no"?>
<!DOCTYPE svg PUBLIC "-//W3C//DTD SVG 20010904//EN"
 "http://www.w3.org/TR/2001/REC-SVG-20010904/DTD/svg10.dtd">
<svg version="1.0" xmlns="http://www.w3.org/2000/svg"
 width="277.000000pt" height="254.000000pt" viewBox="0 0 277.000000 254.000000"
 preserveAspectRatio="xMidYMid meet">
<metadata>
Created by potrace 1.16, written by Peter Selinger 2001-2019
</metadata>
<g transform="translate(0.000000,254.000000) scale(0.100000,-0.100000)"
fill="#000000" stroke="none">
<path d="M1580 2530 l-55 -8 -24 -28 -23 -28 5 -50 5 -51 30 -75 30 -75 2 -35
2 -35 -1 -28 -1 -29 -38 -39 -39 -39 -43 -15 -43 -15 -94 -11 -94 -10 -277 3
-277 3 -6 -200 -6 -200 -17 -59 -17 -60 -27 -50 -27 -50 -42 -32 -42 -32 -51
-11 -51 -11 -47 10 -47 10 -48 21 -48 20 -56 -3 -56 -3 -20 -26 -19 -27 -9
-43 -8 -44 -1 -119 0 -120 20 -40 20 -41 37 -24 37 -24 66 -5 65 -4 98 32 99
33 26 -9 26 -9 18 -32 19 -31 14 -68 14 -69 16 -185 16 -185 16 -105 16 -105
-1 -21 -2 -22 148 -8 147 -9 216 0 215 0 42 28 42 27 0 38 0 37 -19 51 -20 51
-16 89 -17 89 11 51 12 51 27 26 27 26 40 17 40 17 117 5 116 4 75 -16 74 -17
40 -26 40 -26 17 -27 16 -28 0 -30 0 -30 -30 -64 -30 -63 0 -38 0 -38 10 -20
11 -19 37 -18 37 -19 45 -11 45 -11 185 -21 185 -21 63 -15 63 -14 35 0 34 0
0 16 0 15 -31 45 -31 45 -29 65 -30 65 -40 145 -39 144 -17 43 -17 42 -30 33
-29 32 -58 0 -57 0 -31 -26 -31 -26 -17 4 -17 3 -22 32 -21 31 -14 64 -14 63
0 135 0 135 22 47 21 47 44 23 43 22 110 0 110 0 105 -18 105 -17 21 -11 21
-10 19 4 19 3 3 105 4 105 -23 261 -23 262 -65 35 -66 35 -79 26 -78 26 -145
30 -145 30 -47 12 -46 11 -47 23 -47 24 -12 21 -11 21 7 35 6 34 25 11 24 11
0 33 0 32 -42 37 -43 36 -65 19 -65 19 -75 4 -75 5 -55 -8z"/>
</g>
</svg>
