<?xml version="1.0" standalone="no"?>
<!DOCTYPE svg PUBLIC "-//W3C//DTD SVG 20010904//EN"
 "http://www.w3.org/TR/2001/REC-SVG-20010904/DTD/svg10.dtd">
<svg version="1.0" xmlns="http://www.w3.org/2000/svg"
 width="268.000000pt" height="247.000000pt" viewBox="0 0 268.000000 247.000000"
 preserveAspectRatio="xMidYMid meet">
<metadata>
Created by potrace 1.16, written by Peter Selinger 2001-2019
</metadata>
<g transform="translate(0.000000,247.000000) scale(0.100000,-0.100000)"
fill="#000000" stroke="none">
<path d="M1559 2451 l-36 -20 -27 -36 -27 -35 -16 -45 -15 -45 4 -88 3 -87 28
-56 27 -56 0 -5 0 -6 -32 -15 -33 -16 -85 -6 -85 -7 -195 11 -195 11 -132 6
-133 7 0 -44 0 -44 20 -210 20 -209 0 -101 0 -102 -7 -6 -6 -7 -11 9 -11 8
-115 19 -115 19 -125 0 -125 -1 -43 -22 -44 -23 -21 -47 -21 -47 -4 -111 -4
-111 11 -79 11 -79 11 -39 11 -39 28 -29 28 -28 20 0 19 0 38 30 38 30 37 0
37 0 29 -33 30 -32 17 -42 17 -43 39 -144 40 -145 29 -64 30 -65 26 -38 26
-39 0 -17 0 -18 15 0 15 0 0 -7 0 -8 318 -3 317 -3 55 11 55 10 53 26 52 26
15 28 15 29 0 62 0 62 -32 65 -31 65 0 41 0 41 21 42 22 42 32 24 33 24 35 14
34 13 51 0 50 0 46 -21 46 -21 41 -37 41 -36 20 -43 21 -42 0 -33 0 -32 -26
-24 -27 -25 -5 -51 -5 -50 28 -29 28 -29 46 -16 46 -16 239 -30 239 -30 94
-25 94 -24 10 5 9 6 0 973 0 972 -88 47 -88 46 -90 29 -89 30 -120 26 -120 27
-61 20 -62 20 -37 32 -38 33 7 37 7 38 25 9 25 10 -3 23 -3 22 -70 24 -70 23
-105 4 -105 5 -36 -20z"/>
</g>
</svg>
