<?xml version="1.0" standalone="no"?>
<!DOCTYPE svg PUBLIC "-//W3C//DTD SVG 20010904//EN"
 "http://www.w3.org/TR/2001/REC-SVG-20010904/DTD/svg10.dtd">
<svg version="1.0" xmlns="http://www.w3.org/2000/svg"
 width="258.000000pt" height="260.000000pt" viewBox="0 0 258.000000 260.000000"
 preserveAspectRatio="xMidYMid meet">
<metadata>
Created by potrace 1.16, written by Peter Selinger 2001-2019
</metadata>
<g transform="translate(0.000000,260.000000) scale(0.100000,-0.100000)"
fill="#000000" stroke="none">
<path d="M50 2591 l-45 -6 -3 -972 -2 -973 342 3 343 2 57 -18 56 -17 26 -31
26 -31 0 -33 0 -34 -24 -54 -24 -55 -11 -51 -11 -52 0 -33 0 -32 15 -50 14
-50 33 -33 33 -34 40 -18 40 -19 70 0 70 0 43 28 42 29 31 47 30 48 11 47 11
48 -7 46 -7 47 -23 27 -23 28 -7 22 -7 22 11 22 12 21 42 19 43 19 49 10 49
10 230 25 230 24 111 22 111 22 13 46 12 46 20 70 19 70 30 195 30 195 11 45
11 45 14 28 14 28 20 20 19 19 39 0 38 0 38 -30 38 -30 24 0 25 0 28 28 28 29
16 53 16 54 0 86 0 86 -15 51 -15 50 -23 34 -23 34 -43 24 -43 24 -69 5 -68 5
-95 -22 -94 -22 -12 -15 -12 -14 -14 0 -14 0 0 68 0 67 15 180 15 180 0 111 0
111 -277 -4 -278 -3 -66 -11 -66 -10 -32 -20 -31 -19 -10 -26 -10 -26 10 -39
11 -39 10 0 9 0 17 -35 16 -34 -11 -40 -12 -39 -41 -42 -41 -42 -52 -24 -52
-24 -65 -9 -64 -8 -72 8 -72 9 -42 15 -43 15 -33 26 -33 25 0 19 0 19 26 20
26 21 5 64 6 64 -22 45 -22 45 -39 27 -38 27 -60 18 -59 19 -77 10 -77 11
-157 -2 -157 -1 -45 -6z"/>
</g>
</svg>
