<?xml version="1.0" standalone="no"?>
<!DOCTYPE svg PUBLIC "-//W3C//DTD SVG 20010904//EN"
 "http://www.w3.org/TR/2001/REC-SVG-20010904/DTD/svg10.dtd">
<svg version="1.0" xmlns="http://www.w3.org/2000/svg"
 width="256.000000pt" height="258.000000pt" viewBox="0 0 256.000000 258.000000"
 preserveAspectRatio="xMidYMid meet">
<metadata>
Created by potrace 1.16, written by Peter Selinger 2001-2019
</metadata>
<g transform="translate(0.000000,258.000000) scale(0.100000,-0.100000)"
fill="#000000" stroke="none">
<path d="M50 2571 l-45 -6 -3 -963 -2 -964 297 7 298 8 75 -12 75 -12 34 -17
35 -17 20 -28 20 -27 -1 -39 -2 -38 -26 -59 -26 -58 -11 -66 -11 -65 16 -55
16 -55 33 -34 33 -34 40 -18 40 -19 60 0 60 0 43 28 42 29 30 46 29 46 11 42
12 43 -7 43 -6 43 -25 29 -24 29 -6 30 -6 30 12 22 12 22 42 19 43 19 49 10
49 10 230 25 230 24 112 22 112 22 -1 6 -2 6 26 85 26 85 11 50 11 50 25 170
26 170 11 45 11 45 14 28 14 28 20 20 19 19 49 0 48 0 38 -30 38 -30 14 0 15
0 28 28 28 29 16 53 16 54 0 76 0 76 -15 51 -15 50 -23 34 -23 34 -42 23 -43
24 -59 5 -59 6 -95 -22 -94 -22 -12 -15 -12 -14 -24 0 -24 0 0 78 0 77 15 180
15 180 0 101 0 101 -267 -4 -268 -3 -66 -11 -66 -10 -32 -20 -32 -19 -8 -22
-8 -23 7 -26 8 -27 21 -21 20 -20 7 -26 6 -26 -6 -32 -6 -32 -27 -37 -26 -38
-46 -30 -46 -31 -55 -16 -55 -16 -85 0 -85 1 -65 16 -65 16 -40 28 -40 28 -3
31 -3 31 26 20 26 21 6 55 6 54 -22 45 -22 45 -39 27 -38 27 -60 18 -59 19
-77 10 -77 11 -147 -2 -147 -1 -45 -6z"/>
</g>
</svg>
