<?xml version="1.0" standalone="no"?>
<!DOCTYPE svg PUBLIC "-//W3C//DTD SVG 20010904//EN"
 "http://www.w3.org/TR/2001/REC-SVG-20010904/DTD/svg10.dtd">
<svg version="1.0" xmlns="http://www.w3.org/2000/svg"
 width="95.000000pt" height="91.000000pt" viewBox="0 0 95.000000 91.000000"
 preserveAspectRatio="xMidYMid meet">
<metadata>
Created by potrace 1.16, written by Peter Selinger 2001-2019
</metadata>
<g transform="translate(0.000000,91.000000) scale(0.100000,-0.100000)"
fill="#000000" stroke="none">
<path d="M0 458 l0 -453 127 3 128 2 32 6 31 5 17 26 17 26 -6 39 -6 39 -12
19 -12 20 12 12 12 12 100 4 100 4 0 -35 0 -35 24 -15 24 -16 103 -26 104 -27
48 -20 49 -21 9 14 9 14 0 13 0 13 -15 29 -15 28 -29 105 -29 105 -14 21 -13
21 -46 0 -46 0 -7 40 -6 39 15 39 16 38 28 17 29 17 29 0 28 -1 25 -14 25 -14
22 -1 22 0 7 12 7 12 -1 115 -1 116 -7 53 -6 52 -464 0 -464 0 0 -452z"/>
</g>
</svg>
