<?xml version="1.0" standalone="no"?>
<!DOCTYPE svg PUBLIC "-//W3C//DTD SVG 20010904//EN"
 "http://www.w3.org/TR/2001/REC-SVG-20010904/DTD/svg10.dtd">
<svg version="1.0" xmlns="http://www.w3.org/2000/svg"
 width="93.000000pt" height="89.000000pt" viewBox="0 0 93.000000 89.000000"
 preserveAspectRatio="xMidYMid meet">
<metadata>
Created by potrace 1.16, written by Peter Selinger 2001-2019
</metadata>
<g transform="translate(0.000000,89.000000) scale(0.100000,-0.100000)"
fill="#000000" stroke="none">
<path d="M0 448 l0 -443 146 5 145 5 20 25 19 25 -6 35 -6 35 -10 12 -10 12 4
23 3 22 25 7 25 7 105 1 104 1 -12 -12 -12 -12 0 -22 0 -22 24 -15 24 -16 103
-26 104 -26 42 -19 42 -18 5 15 6 14 -15 29 -15 28 -29 105 -29 105 -14 21
-13 21 -32 0 -33 0 0 -11 0 -11 -14 11 -14 12 -7 48 -6 47 16 40 16 40 28 17
29 17 36 0 35 0 36 -17 35 -17 11 11 11 11 -1 109 -1 108 -6 53 -6 52 -454 0
-454 0 0 -442z"/>
</g>
</svg>
