<?xml version="1.0" standalone="no"?>
<!DOCTYPE svg PUBLIC "-//W3C//DTD SVG 20010904//EN"
 "http://www.w3.org/TR/2001/REC-SVG-20010904/DTD/svg10.dtd">
<svg version="1.0" xmlns="http://www.w3.org/2000/svg"
 width="125.000000pt" height="117.000000pt" viewBox="0 0 125.000000 117.000000"
 preserveAspectRatio="xMidYMid meet">
<metadata>
Created by potrace 1.16, written by Peter Selinger 2001-2019
</metadata>
<g transform="translate(0.000000,117.000000) scale(0.100000,-0.100000)"
fill="#000000" stroke="none">
<path d="M307 1163 l-7 -6 0 -134 0 -133 -20 -20 -20 -20 -28 0 -29 0 -49 15
-49 15 -36 0 -37 0 -12 -15 -13 -16 -5 -73 -4 -72 16 -32 16 -32 23 -14 22
-15 36 -6 37 -7 62 16 62 16 20 -22 20 -23 -5 -146 -5 -145 6 -11 7 -10 118 9
118 10 26 -7 25 -6 -6 -22 -7 -22 -6 -66 -6 -65 17 -36 18 -36 33 -16 33 -16
71 0 71 0 20 20 20 20 0 25 0 26 -15 29 -15 29 22 15 23 14 100 21 100 21 66
20 66 20 12 14 12 14 -20 69 -20 68 -12 84 -12 84 -18 18 -19 19 -32 0 -32 0
-34 -12 -34 -13 -29 33 -29 32 0 40 0 40 26 17 26 17 52 4 52 4 64 -16 64 -16
10 10 11 11 -1 67 -1 67 -7 128 -8 127 -457 0 -458 0 -6 -7z"/>
</g>
</svg>
