<?xml version="1.0" standalone="no"?>
<!DOCTYPE svg PUBLIC "-//W3C//DTD SVG 20010904//EN"
 "http://www.w3.org/TR/2001/REC-SVG-20010904/DTD/svg10.dtd">
<svg version="1.0" xmlns="http://www.w3.org/2000/svg"
 width="123.000000pt" height="115.000000pt" viewBox="0 0 123.000000 115.000000"
 preserveAspectRatio="xMidYMid meet">
<metadata>
Created by potrace 1.16, written by Peter Selinger 2001-2019
</metadata>
<g transform="translate(0.000000,115.000000) scale(0.100000,-0.100000)"
fill="#000000" stroke="none">
<path d="M307 1143 l-7 -6 0 -134 0 -133 -20 -20 -20 -20 -38 0 -39 0 -49 15
-49 15 -26 0 -27 0 -12 -15 -13 -15 -4 -68 -5 -67 24 -35 24 -35 39 -13 40
-13 73 17 72 17 21 -24 21 -24 -4 -145 -5 -145 4 -10 3 -10 116 8 115 9 33 -6
33 -6 -13 -58 -14 -57 0 -33 0 -34 16 -33 16 -33 33 -16 33 -16 61 0 61 0 20
20 20 20 0 15 0 14 -17 37 -18 36 22 17 21 18 84 17 83 17 75 20 75 20 22 15
22 14 -15 42 -14 41 -17 105 -16 105 -19 19 -20 20 -34 -6 -34 -6 -33 -6 -34
-6 -26 32 -27 32 0 49 0 49 27 17 26 18 66 3 66 3 53 -14 53 -14 7 11 7 11 -1
55 -1 55 -8 128 -7 127 -447 0 -448 0 -6 -7z"/>
</g>
</svg>
