<?xml version="1.0" standalone="no"?>
<!DOCTYPE svg PUBLIC "-//W3C//DTD SVG 20010904//EN"
 "http://www.w3.org/TR/2001/REC-SVG-20010904/DTD/svg10.dtd">
<svg version="1.0" xmlns="http://www.w3.org/2000/svg"
 width="305.000000pt" height="287.000000pt" viewBox="0 0 305.000000 287.000000"
 preserveAspectRatio="xMidYMid meet">
<metadata>
Created by potrace 1.16, written by Peter Selinger 2001-2019
</metadata>
<g transform="translate(0.000000,287.000000) scale(0.100000,-0.100000)"
fill="#000000" stroke="none">
<path d="M61 2733 l-2 -138 -9 -130 -10 -130 -20 -162 -20 -162 0 -38 1 -38
24 28 24 27 103 25 103 25 110 0 110 0 66 -18 66 -19 47 -27 47 -28 6 -14 5
-14 12 0 11 -1 34 -44 33 -45 27 -62 26 -63 0 -155 -1 -155 -21 -64 -22 -64
-32 -47 -32 -46 -31 -22 -32 -22 -38 0 -39 0 -33 21 -34 21 0 7 0 8 -39 11
-38 12 -26 0 -26 0 -36 -17 -36 -17 -30 -64 -31 -63 -23 -117 -24 -117 -26
-139 -26 -138 -26 -82 -25 -81 -30 -59 -29 -58 3 -3 3 -2 375 -10 375 -10 110
7 111 7 59 18 59 17 38 38 38 38 0 68 0 69 -26 60 -26 60 -25 60 -26 60 0 65
-1 65 23 50 22 50 37 38 37 39 47 24 48 24 62 15 63 15 38 0 38 0 28 -14 28
-15 32 -36 31 -36 32 -62 31 -62 29 -85 28 -85 22 -110 21 -110 0 -105 1 -105
-16 -37 -16 -36 -20 -6 -20 -7 -11 -31 -11 -31 0 -24 0 -24 11 -22 12 -21 21
-17 21 -18 42 -10 42 -11 114 0 115 0 119 20 118 20 120 31 120 30 160 55 160
55 47 17 48 17 0 11 0 11 -39 84 -38 84 -31 95 -32 95 -29 125 -29 125 -27
135 -27 135 -24 75 -23 75 -25 34 -26 34 -27 19 -28 18 -47 0 -47 0 -27 -10
-27 -11 -34 -29 -34 -30 -23 0 -23 0 -21 23 -21 23 -17 44 -17 45 0 120 0 120
16 62 17 63 24 48 25 49 35 31 36 32 33 17 32 17 85 4 85 4 68 -16 68 -16 79
-31 78 -31 28 9 28 9 20 39 20 39 4 119 5 119 -17 246 -17 247 -2 55 -2 55
-1476 3 -1476 2 -2 -137z"/>
</g>
</svg>
