<?xml version="1.0" standalone="no"?>
<!DOCTYPE svg PUBLIC "-//W3C//DTD SVG 20010904//EN"
 "http://www.w3.org/TR/2001/REC-SVG-20010904/DTD/svg10.dtd">
<svg version="1.0" xmlns="http://www.w3.org/2000/svg"
 width="124.000000pt" height="136.000000pt" viewBox="0 0 124.000000 136.000000"
 preserveAspectRatio="xMidYMid meet">
<metadata>
Created by potrace 1.16, written by Peter Selinger 2001-2019
</metadata>
<g transform="translate(0.000000,136.000000) scale(0.100000,-0.100000)"
fill="#000000" stroke="none">
<path d="M682 1345 l-34 -15 -19 -22 -19 -23 -11 -39 -10 -39 14 -45 15 -45
-165 7 -166 8 6 -69 7 -68 -11 -63 -11 -62 -29 -31 -29 -31 -28 5 -27 6 -42
12 -42 13 -26 -12 -26 -12 -15 -35 -14 -34 0 -56 0 -55 28 -31 28 -31 47 -5
46 -6 44 12 44 11 17 6 16 6 15 -36 15 -35 0 -68 -1 -68 -9 -70 -9 -70 12 -8
12 -8 75 5 75 5 101 7 102 6 -11 -46 -10 -46 12 -54 12 -55 29 -31 28 -30 56
0 57 0 34 14 33 14 12 22 12 22 -5 42 -5 41 -7 26 -7 25 26 12 25 11 146 7
145 7 0 7 0 8 -15 35 -15 36 -19 121 -20 122 -17 19 -17 19 -29 0 -29 0 -29
-15 -28 -15 -22 18 -21 17 -8 38 -9 37 11 36 11 36 24 11 23 11 20 -12 19 -12
45 0 46 0 24 16 24 16 12 36 12 37 1 135 1 135 -175 1 -175 0 -27 12 -28 12 0
24 0 25 10 6 10 6 0 42 -1 42 -12 16 -12 16 -22 11 -22 12 -33 0 -33 -1 -33
-14z"/>
</g>
</svg>
