<?xml version="1.0" standalone="no"?>
<!DOCTYPE svg PUBLIC "-//W3C//DTD SVG 20010904//EN"
 "http://www.w3.org/TR/2001/REC-SVG-20010904/DTD/svg10.dtd">
<svg version="1.0" xmlns="http://www.w3.org/2000/svg"
 width="122.000000pt" height="134.000000pt" viewBox="0 0 122.000000 134.000000"
 preserveAspectRatio="xMidYMid meet">
<metadata>
Created by potrace 1.16, written by Peter Selinger 2001-2019
</metadata>
<g transform="translate(0.000000,134.000000) scale(0.100000,-0.100000)"
fill="#000000" stroke="none">
<path d="M682 1325 l-34 -15 -19 -22 -19 -23 -9 -34 -10 -33 14 -42 15 -41 0
-9 0 -9 -166 7 -166 7 6 -64 7 -63 -11 -67 -12 -67 -28 -30 -28 -30 -28 0 -28
0 -43 16 -44 17 -25 -12 -25 -11 -15 -35 -14 -34 0 -46 0 -45 28 -30 27 -31
41 -6 41 -5 56 16 55 16 12 0 11 0 15 -35 14 -34 -1 -83 -1 -83 -7 -57 -7 -57
13 -5 13 -5 165 10 164 11 17 -6 16 -6 -10 -13 -10 -12 -7 -33 -7 -33 12 -49
12 -50 28 -30 28 -30 46 0 47 0 34 14 33 14 11 20 11 21 0 24 0 25 -15 35 -15
36 0 5 0 5 29 15 28 15 146 7 145 7 -14 33 -14 33 -19 121 -20 122 -17 19 -17
19 -19 0 -19 0 -30 -16 -30 -15 -20 6 -20 7 -13 21 -14 22 -6 34 -6 34 12 39
12 39 29 15 29 15 23 -15 24 -16 36 0 36 0 24 16 24 16 12 36 12 37 1 125 1
125 -160 0 -160 0 -37 8 -38 8 -10 20 -11 20 15 31 16 31 0 26 -1 26 -12 16
-12 16 -22 11 -22 12 -23 0 -23 -1 -33 -14z"/>
</g>
</svg>
