<?xml version="1.0" standalone="no"?>
<!DOCTYPE svg PUBLIC "-//W3C//DTD SVG 20010904//EN"
 "http://www.w3.org/TR/2001/REC-SVG-20010904/DTD/svg10.dtd">
<svg version="1.0" xmlns="http://www.w3.org/2000/svg"
 width="97.000000pt" height="145.000000pt" viewBox="0 0 97.000000 145.000000"
 preserveAspectRatio="xMidYMid meet">
<metadata>
Created by potrace 1.16, written by Peter Selinger 2001-2019
</metadata>
<g transform="translate(0.000000,145.000000) scale(0.100000,-0.100000)"
fill="#000000" stroke="none">
<path d="M440 1440 l-26 -10 -17 -29 -17 -29 0 -24 0 -24 15 -20 14 -19 1 -26
0 -26 -24 -22 -24 -22 -47 -15 -48 -14 -127 0 -127 0 -7 -92 -6 -91 0 -54 0
-54 10 -20 11 -19 22 0 22 0 40 15 40 14 32 1 32 0 27 -23 28 -24 3 -59 4 -59
-20 -32 -20 -32 -29 16 -28 16 -27 -7 -26 -6 -10 -19 -10 -19 -22 -98 -21 -99
-25 -63 -25 -63 7 -7 7 -7 112 -6 112 -5 35 -20 34 -20 18 -36 18 -36 -16 -37
-15 -37 0 -25 0 -24 35 -15 34 -14 84 0 84 0 27 21 26 20 0 28 0 27 -15 20
-14 19 -1 8 0 7 33 15 32 15 109 25 109 25 46 22 47 21 3 149 2 148 -6 21 -7
20 -26 10 -25 10 -47 -17 -47 -17 -36 7 -36 7 -31 26 -31 25 -15 30 -15 29 7
22 6 22 15 17 15 17 42 6 42 7 98 -17 98 -17 5 6 6 6 -13 184 -13 184 -34 16
-34 16 -127 25 -126 26 -24 15 -24 15 7 17 7 17 11 26 10 25 -7 27 -6 27 -29
15 -29 14 -38 5 -39 5 -25 -9z"/>
</g>
</svg>
