<?xml version="1.0" standalone="no"?>
<!DOCTYPE svg PUBLIC "-//W3C//DTD SVG 20010904//EN"
 "http://www.w3.org/TR/2001/REC-SVG-20010904/DTD/svg10.dtd">
<svg version="1.0" xmlns="http://www.w3.org/2000/svg"
 width="95.000000pt" height="143.000000pt" viewBox="0 0 95.000000 143.000000"
 preserveAspectRatio="xMidYMid meet">
<metadata>
Created by potrace 1.16, written by Peter Selinger 2001-2019
</metadata>
<g transform="translate(0.000000,143.000000) scale(0.100000,-0.100000)"
fill="#000000" stroke="none">
<path d="M439 1419 l-26 -10 -19 -35 -19 -35 18 -30 17 -31 0 -32 0 -33 -24
-22 -24 -22 -47 -15 -48 -14 -127 0 -127 0 -7 -92 -6 -91 0 -47 0 -46 14 -19
14 -19 52 17 52 17 39 0 38 0 27 -24 28 -23 4 -65 4 -65 -16 -32 -17 -32 -14
-5 -13 -6 -26 17 -25 17 -21 -7 -20 -6 -9 -17 -9 -18 -26 -111 -25 -112 -20
-46 -20 -45 22 -5 22 -4 95 -3 96 -4 34 -20 35 -20 19 -39 19 -39 -16 -47 -17
-47 0 -11 0 -12 35 -15 34 -14 74 0 74 0 27 21 26 20 0 18 0 17 -15 20 -14 19
-1 17 0 17 28 14 27 14 115 27 115 26 45 23 45 22 4 136 3 136 -7 22 -7 22
-21 8 -22 9 -38 -15 -38 -16 -46 6 -45 5 -27 19 -26 20 -23 34 -24 34 6 34 5
35 19 18 19 19 54 5 54 5 85 -15 84 -15 4 4 4 4 -13 174 -13 175 -33 16 -34
16 -127 25 -126 26 -23 15 -23 14 0 16 0 15 16 31 16 30 -6 24 -6 24 -28 14
-27 14 -30 5 -30 6 -26 -10z"/>
</g>
</svg>
