<?xml version="1.0" standalone="no"?>
<!DOCTYPE svg PUBLIC "-//W3C//DTD SVG 20010904//EN"
 "http://www.w3.org/TR/2001/REC-SVG-20010904/DTD/svg10.dtd">
<svg version="1.0" xmlns="http://www.w3.org/2000/svg"
 width="95.000000pt" height="135.000000pt" viewBox="0 0 95.000000 135.000000"
 preserveAspectRatio="xMidYMid meet">
<metadata>
Created by potrace 1.16, written by Peter Selinger 2001-2019
</metadata>
<g transform="translate(0.000000,135.000000) scale(0.100000,-0.100000)"
fill="#000000" stroke="none">
<path d="M444 1340 l-22 -9 -16 -22 -16 -23 -6 -32 -6 -33 18 -29 17 -30 -18
-19 -19 -18 -182 -3 -182 -3 -7 -109 -7 -108 7 -44 7 -43 14 -22 14 -23 44 0
44 0 37 16 37 15 24 -16 24 -15 16 -32 16 -31 -6 -35 -5 -35 -27 -28 -26 -27
-24 -6 -24 -6 -30 15 -29 15 -21 0 -21 0 -21 -20 -21 -19 -9 -167 -9 -166 3
-3 3 -3 80 8 80 8 97 7 97 6 -6 -54 -6 -55 7 -38 7 -37 36 -35 36 -35 65 6 65
7 26 17 26 16 12 16 12 16 1 40 0 41 -12 12 -12 12 17 17 16 16 103 8 103 8
39 0 38 1 -4 158 -4 157 -12 23 -13 22 -22 0 -22 0 -44 -16 -44 -15 -29 6 -28
7 -30 24 -29 25 -7 36 -7 35 12 39 12 39 29 15 29 15 39 0 38 0 54 -16 53 -16
16 17 16 16 -3 157 -3 157 -7 7 -7 7 -110 6 -110 6 -52 5 -51 5 -22 19 -21 18
15 31 16 30 0 21 0 21 -10 19 -10 18 -31 11 -32 11 -21 -1 -21 0 -21 -9z"/>
</g>
</svg>
