<?xml version="1.0" standalone="no"?>
<!DOCTYPE svg PUBLIC "-//W3C//DTD SVG 20010904//EN"
 "http://www.w3.org/TR/2001/REC-SVG-20010904/DTD/svg10.dtd">
<svg version="1.0" xmlns="http://www.w3.org/2000/svg"
 width="93.000000pt" height="133.000000pt" viewBox="0 0 93.000000 133.000000"
 preserveAspectRatio="xMidYMid meet">
<metadata>
Created by potrace 1.16, written by Peter Selinger 2001-2019
</metadata>
<g transform="translate(0.000000,133.000000) scale(0.100000,-0.100000)"
fill="#000000" stroke="none">
<path d="M440 1317 l-25 -12 -19 -39 -19 -40 16 -29 17 -29 0 -15 0 -14 -17
-17 -17 -17 -182 -3 -182 -3 -7 -103 -7 -102 7 -40 7 -39 14 -22 14 -23 31 0
31 0 48 17 48 17 26 -17 26 -17 16 -32 16 -31 -5 -45 -5 -44 -31 -31 -30 -31
-38 0 -38 0 -31 14 -30 13 -22 -18 -21 -19 -5 -40 -5 -41 -6 -121 -5 -120 67
7 68 7 122 7 123 7 -15 -28 -15 -29 0 -42 0 -42 10 -28 11 -28 32 -29 32 -28
55 6 55 7 25 16 25 16 12 16 12 16 1 28 0 27 -12 20 -13 20 11 17 11 18 29 7
29 7 118 7 117 6 0 121 0 122 -9 39 -9 38 -11 11 -10 10 -56 -18 -56 -17 -35
6 -35 7 -30 27 -31 28 -5 46 -5 46 12 36 12 36 28 15 29 15 49 0 49 0 46 -14
46 -14 13 16 13 15 -3 146 -3 146 -7 7 -7 7 -110 6 -110 6 -52 5 -51 5 -21 18
-21 18 0 12 0 12 16 31 16 30 -7 25 -6 24 -34 15 -34 14 -13 0 -13 0 -25 -13z"/>
</g>
</svg>
