<?xml version="1.0" standalone="no"?>
<!DOCTYPE svg PUBLIC "-//W3C//DTD SVG 20010904//EN"
 "http://www.w3.org/TR/2001/REC-SVG-20010904/DTD/svg10.dtd">
<svg version="1.0" xmlns="http://www.w3.org/2000/svg"
 width="148.000000pt" height="117.000000pt" viewBox="0 0 148.000000 117.000000"
 preserveAspectRatio="xMidYMid meet">
<metadata>
Created by potrace 1.16, written by Peter Selinger 2001-2019
</metadata>
<g transform="translate(0.000000,117.000000) scale(0.100000,-0.100000)"
fill="#000000" stroke="none">
<path d="M687 1160 l-28 -9 -15 -12 -14 -11 0 -30 0 -30 17 -49 17 -48 -9 -28
-10 -28 -35 -17 -35 -18 -142 0 -143 0 1 -119 0 -119 -15 -35 -14 -35 -20 -11
-21 -11 -30 0 -30 0 -35 16 -34 17 -26 -7 -26 -6 -17 -27 -18 -27 0 -60 0 -61
15 -29 15 -29 17 -11 18 -11 30 18 30 18 19 -10 19 -11 16 -47 15 -48 11 -45
12 -45 26 -62 27 -62 20 -5 20 -5 170 -6 170 -6 13 9 14 9 -16 47 -16 48 -2
59 -2 58 19 21 18 20 35 6 34 7 53 -12 52 -12 23 -24 22 -24 -16 -23 -16 -22
0 -23 0 -22 23 -13 22 -13 115 -28 115 -28 29 -6 29 -6 -6 19 -6 19 -25 67
-25 67 -10 61 -10 60 11 30 10 30 13 0 13 0 38 -16 38 -16 51 6 50 7 35 11 35
11 32 21 33 21 0 41 0 41 -21 27 -20 26 -29 0 -28 0 -28 -15 -29 -15 -20 0
-21 0 -22 16 -22 15 -12 22 -13 22 -5 135 -5 135 -30 -1 -30 -1 -111 -8 -111
-8 -36 7 -37 7 -6 26 -7 26 18 29 17 29 -7 37 -7 36 -19 37 -18 37 -27 21 -27
21 -26 -1 -26 -1 -28 -8z"/>
</g>
</svg>
