<?xml version="1.0" standalone="no"?>
<!DOCTYPE svg PUBLIC "-//W3C//DTD SVG 20010904//EN"
 "http://www.w3.org/TR/2001/REC-SVG-20010904/DTD/svg10.dtd">
<svg version="1.0" xmlns="http://www.w3.org/2000/svg"
 width="103.000000pt" height="140.000000pt" viewBox="0 0 103.000000 140.000000"
 preserveAspectRatio="xMidYMid meet">
<metadata>
Created by potrace 1.16, written by Peter Selinger 2001-2019
</metadata>
<g transform="translate(0.000000,140.000000) scale(0.100000,-0.100000)"
fill="#000000" stroke="none">
<path d="M464 1386 l-31 -14 -17 -23 -16 -23 0 -27 0 -27 14 -33 14 -34 -8
-21 -8 -20 -29 -19 -28 -20 -130 -5 -130 -5 -8 -70 -8 -70 3 -89 4 -88 25 -19
24 -20 45 6 44 5 10 10 10 10 17 0 17 0 31 -35 31 -36 0 -24 0 -24 -32 -25
-33 -25 -63 -17 -63 -17 -35 16 -35 17 -23 0 -24 0 -16 -25 -16 -24 0 -44 0
-43 15 -56 15 -57 27 -71 27 -70 141 6 140 7 43 -12 44 -12 -7 -22 -8 -22 -4
-55 -5 -56 19 -22 18 -23 44 -10 43 -10 57 11 56 10 25 18 25 19 15 41 14 42
-11 28 -11 27 -7 17 -7 18 28 11 29 11 95 -6 95 -6 23 -6 22 -6 0 20 0 20 -24
49 -23 48 -23 84 -24 84 -22 26 -23 26 -31 -18 -32 -17 -10 6 -10 6 -14 34
-14 33 0 52 0 51 16 33 15 33 27 -14 27 -14 47 0 47 0 25 10 25 9 17 32 16 32
4 81 4 81 4 56 4 56 -67 16 -66 17 -75 11 -75 11 -32 15 -33 15 0 12 0 12 16
48 16 48 -11 24 -11 24 -26 10 -25 10 -72 0 -72 -1 -31 -13z"/>
</g>
</svg>
