<?xml version="1.0" standalone="no"?>
<!DOCTYPE svg PUBLIC "-//W3C//DTD SVG 20010904//EN"
 "http://www.w3.org/TR/2001/REC-SVG-20010904/DTD/svg10.dtd">
<svg version="1.0" xmlns="http://www.w3.org/2000/svg"
 width="101.000000pt" height="138.000000pt" viewBox="0 0 101.000000 138.000000"
 preserveAspectRatio="xMidYMid meet">
<metadata>
Created by potrace 1.16, written by Peter Selinger 2001-2019
</metadata>
<g transform="translate(0.000000,138.000000) scale(0.100000,-0.100000)"
fill="#000000" stroke="none">
<path d="M460 1362 l-35 -17 -14 -27 -15 -27 17 -49 18 -49 -10 -25 -9 -25
-29 -19 -28 -19 -130 -5 -130 -5 -8 -70 -8 -70 4 -79 4 -79 24 -18 24 -19 34
6 34 5 21 14 21 13 21 -8 21 -8 26 -32 27 -32 0 -33 0 -34 -32 -25 -33 -24
-58 -17 -59 -17 -26 5 -27 5 -33 13 -33 14 -19 -25 -20 -25 0 -35 0 -36 15
-56 15 -57 27 -70 27 -70 140 6 141 5 44 -11 43 -12 -7 -32 -6 -32 -6 -45 -5
-46 19 -22 18 -23 39 -9 40 -9 50 10 50 9 24 16 24 16 15 36 15 37 -12 30 -12
30 -5 22 -5 23 27 10 26 10 67 -1 67 0 53 -8 52 -7 0 7 0 8 -20 38 -19 38 -29
98 -29 98 -18 19 -18 20 -27 -17 -28 -16 -16 6 -17 7 -14 35 -15 34 0 62 0 61
16 34 16 34 8 0 8 0 28 -15 29 -15 37 0 37 0 25 10 25 9 17 33 17 33 6 126 6
126 -65 17 -65 16 -75 11 -75 11 -32 15 -33 15 0 23 0 22 15 43 15 42 -11 19
-10 20 -25 9 -25 10 -62 0 -62 0 -35 -18z"/>
</g>
</svg>
