<?xml version="1.0" standalone="no"?>
<!DOCTYPE svg PUBLIC "-//W3C//DTD SVG 20010904//EN"
 "http://www.w3.org/TR/2001/REC-SVG-20010904/DTD/svg10.dtd">
<svg version="1.0" xmlns="http://www.w3.org/2000/svg"
 width="145.000000pt" height="92.000000pt" viewBox="0 0 145.000000 92.000000"
 preserveAspectRatio="xMidYMid meet">
<metadata>
Created by potrace 1.16, written by Peter Selinger 2001-2019
</metadata>
<g transform="translate(0.000000,92.000000) scale(0.100000,-0.100000)"
fill="#000000" stroke="none">
<path d="M370 913 l-55 -3 -22 -5 -23 -5 2 -123 1 -122 -12 -37 -12 -36 -24
-16 -24 -16 -25 0 -24 0 -30 17 -30 17 -34 -16 -34 -16 -13 -41 -12 -42 7 -46
7 -47 23 -23 23 -23 20 0 20 0 36 17 36 17 20 -20 20 -21 20 -122 19 -122 14
-33 14 -33 115 -8 114 -7 59 7 59 7 23 14 22 14 0 24 0 23 -15 30 -15 29 10
34 10 33 27 29 27 28 38 0 39 0 34 -14 34 -15 -15 -36 -15 -36 6 -19 6 -18 12
-11 13 -10 116 -30 116 -30 31 -15 30 -16 11 0 12 0 -7 137 -7 138 11 28 11
27 25 0 25 0 0 -11 0 -11 54 4 55 5 34 23 35 24 16 27 16 27 0 34 0 34 -16 22
-15 22 -22 0 -21 0 -42 -16 -42 -16 -28 14 -28 13 -17 30 -18 30 -11 70 -12
70 7 78 6 77 -8 0 -8 0 -50 -19 -50 -19 -125 -27 -125 -27 -22 -14 -23 -14 0
-21 0 -20 15 -29 15 -29 -6 -16 -6 -16 -19 -9 -18 -10 -46 0 -47 0 -33 16 -33
16 -18 36 -17 37 11 65 12 65 6 21 6 21 -24 6 -23 7 -65 -2 -65 -2 -55 -3z"/>
</g>
</svg>
