<?xml version="1.0" standalone="no"?>
<!DOCTYPE svg PUBLIC "-//W3C//DTD SVG 20010904//EN"
 "http://www.w3.org/TR/2001/REC-SVG-20010904/DTD/svg10.dtd">
<svg version="1.0" xmlns="http://www.w3.org/2000/svg"
 width="121.000000pt" height="91.000000pt" viewBox="0 0 121.000000 91.000000"
 preserveAspectRatio="xMidYMid meet">
<metadata>
Created by potrace 1.16, written by Peter Selinger 2001-2019
</metadata>
<g transform="translate(0.000000,91.000000) scale(0.100000,-0.100000)"
fill="#000000" stroke="none">
<path d="M195 903 l-50 -3 -73 -6 -72 -6 2 -176 3 -177 35 1 35 1 32 13 31 14
41 -12 40 -13 31 -25 30 -26 0 -42 0 -43 -25 -27 -24 -26 -15 0 -15 0 -6 10
-6 10 -35 0 -35 0 -14 -34 -14 -34 -21 -93 -20 -94 -25 -51 -25 -51 0 -6 0 -7
168 0 167 0 25 13 25 13 4 24 3 25 -17 77 -18 77 17 25 16 26 71 0 70 0 31
-16 30 -16 -5 -21 -6 -22 -13 -43 -12 -42 20 -21 20 -20 85 -15 84 -15 79 -25
79 -25 8 13 8 13 6 55 6 55 9 74 9 74 15 15 15 15 39 -11 39 -12 31 0 31 0 26
23 25 22 11 60 11 59 -11 38 -11 37 -34 20 -33 21 -47 0 -46 0 -19 -12 -18
-11 -17 6 -17 7 -14 35 -15 34 0 126 0 126 -15 5 -15 6 -166 -9 -165 -10 -21
-21 -21 -21 18 -40 17 -40 -6 -25 -6 -24 -34 -21 -33 -21 -28 0 -27 0 -38 38
-38 37 -13 43 -13 43 12 33 12 32 0 12 0 12 -52 -2 -53 -2 -50 -3z"/>
</g>
</svg>
