<?xml version="1.0" standalone="no"?>
<!DOCTYPE svg PUBLIC "-//W3C//DTD SVG 20010904//EN"
 "http://www.w3.org/TR/2001/REC-SVG-20010904/DTD/svg10.dtd">
<svg version="1.0" xmlns="http://www.w3.org/2000/svg"
 width="119.000000pt" height="89.000000pt" viewBox="0 0 119.000000 89.000000"
 preserveAspectRatio="xMidYMid meet">
<metadata>
Created by potrace 1.16, written by Peter Selinger 2001-2019
</metadata>
<g transform="translate(0.000000,89.000000) scale(0.100000,-0.100000)"
fill="#000000" stroke="none">
<path d="M195 883 l-50 -3 -72 -6 -73 -6 0 -164 0 -165 16 -6 16 -6 34 17 35
16 32 0 32 0 40 -19 40 -18 19 -21 19 -21 -1 -45 -1 -46 -17 -25 -16 -25 -26
-7 -25 -6 -18 12 -19 11 -20 0 -21 0 -14 -34 -14 -34 -21 -93 -20 -94 -24 -48
-23 -47 156 0 156 0 25 13 25 13 -1 34 0 35 -14 63 -14 63 15 27 15 27 82 3
81 3 31 -16 30 -16 0 -21 0 -22 -17 -44 -16 -43 20 -20 19 -20 85 -15 84 -15
72 -23 72 -22 6 15 6 14 9 101 10 101 6 26 5 27 18 16 18 16 43 -15 43 -15 23
0 23 0 25 22 26 23 10 54 10 55 -11 33 -10 32 -33 21 -33 20 -40 0 -39 0 -11
-11 -11 -11 -28 4 -29 3 -17 35 -18 35 0 128 0 128 -14 5 -14 5 -156 -9 -156
-9 -20 -18 -19 -17 14 -29 15 -28 0 -29 0 -28 -12 -16 -13 -15 -25 -17 -24
-16 -38 0 -37 0 -35 30 -35 31 -17 44 -16 44 4 33 5 33 8 18 7 17 -43 -2 -44
-2 -50 -3z"/>
</g>
</svg>
