<?xml version="1.0" standalone="no"?>
<!DOCTYPE svg PUBLIC "-//W3C//DTD SVG 20010904//EN"
 "http://www.w3.org/TR/2001/REC-SVG-20010904/DTD/svg10.dtd">
<svg version="1.0" xmlns="http://www.w3.org/2000/svg"
 width="117.000000pt" height="90.000000pt" viewBox="0 0 117.000000 90.000000"
 preserveAspectRatio="xMidYMid meet">
<metadata>
Created by potrace 1.16, written by Peter Selinger 2001-2019
</metadata>
<g transform="translate(0.000000,90.000000) scale(0.100000,-0.100000)"
fill="#000000" stroke="none">
<path d="M18 894 l-18 -5 0 -132 0 -132 18 -35 17 -35 29 -3 28 -4 11 11 11
11 39 0 40 0 33 -20 33 -21 10 -32 11 -33 -10 -55 -10 -54 -26 -22 -25 -23
-23 0 -23 0 -43 15 -43 15 -18 -16 -18 -16 -5 -27 -6 -26 -10 -101 -9 -101 -7
-16 -6 -17 138 0 139 0 35 18 35 17 10 28 9 28 -17 48 -17 49 0 31 0 31 23 15
23 15 45 6 44 6 28 -22 28 -22 18 -37 19 -37 7 -36 7 -37 -17 -29 -18 -29 6
-26 7 -25 22 -6 23 -6 65 0 66 0 84 11 85 10 2 3 3 3 9 152 8 152 23 21 23 21
31 -13 31 -14 38 0 38 0 30 31 31 31 5 44 5 45 -16 31 -16 32 -26 17 -26 17
-48 -17 -48 -17 -31 0 -31 0 -17 27 -18 27 2 138 2 138 -4 0 -4 0 -27 -11 -28
-10 -130 -20 -130 -20 -26 -12 -25 -13 2 -24 2 -25 7 -34 7 -34 -24 -18 -24
-19 -50 0 -50 0 -38 11 -38 10 -11 24 -11 24 17 35 17 35 -15 34 -14 34 -43
17 -44 18 -90 3 -90 4 -17 -5z"/>
</g>
</svg>
