<?xml version="1.0" standalone="no"?>
<!DOCTYPE svg PUBLIC "-//W3C//DTD SVG 20010904//EN"
 "http://www.w3.org/TR/2001/REC-SVG-20010904/DTD/svg10.dtd">
<svg version="1.0" xmlns="http://www.w3.org/2000/svg"
 width="382.000000pt" height="338.000000pt" viewBox="0 0 382.000000 338.000000"
 preserveAspectRatio="xMidYMid meet">
<metadata>
Created by potrace 1.16, written by Peter Selinger 2001-2019
</metadata>
<g transform="translate(0.000000,338.000000) scale(0.100000,-0.100000)"
fill="#000000" stroke="none">
<path d="M50 3262 l0 -119 -20 -254 -21 -254 0 -115 -1 -115 11 -27 11 -28 26
0 26 0 27 20 28 19 84 23 84 23 160 0 160 0 75 -23 75 -24 60 -33 60 -33 42
-45 42 -45 23 -44 23 -43 3 -85 4 -85 -16 -69 -17 -70 -30 -60 -30 -61 -48
-48 -48 -48 -38 -14 -39 -13 -29 10 -29 11 -10 23 -11 23 -48 10 -48 11 -33
-7 -33 -6 -34 -25 -34 -25 -32 -71 -33 -71 -48 -160 -47 -160 -38 -88 -37 -88
-34 -56 -33 -55 -47 -51 -48 -51 0 -11 0 -11 343 1 342 0 87 -22 88 -23 47
-24 48 -24 32 -34 32 -33 20 -45 21 -45 0 -50 0 -50 -15 -55 -14 -55 -13 -4
-12 -4 -24 -24 -24 -25 5 -41 6 -42 33 -29 33 -28 50 -23 50 -22 75 -18 75
-17 130 -5 130 -5 68 16 67 16 48 24 47 24 46 43 45 44 26 45 26 45 17 59 17
59 -4 106 -5 106 -28 70 -27 70 -16 41 -16 42 12 26 11 25 40 20 39 21 71 11
71 10 112 -10 113 -11 85 -16 85 -15 138 -36 139 -35 86 -29 86 -29 11 0 12 0
36 77 36 78 25 90 26 90 35 195 36 195 10 40 11 40 29 61 28 61 42 18 41 19
45 -13 46 -12 11 -13 11 -13 25 -17 24 -16 50 0 50 0 32 22 31 22 32 46 32 47
22 64 21 64 1 165 0 165 -26 63 -27 62 -33 45 -34 44 -11 1 -12 0 -5 14 -6 14
-47 28 -47 27 -66 19 -66 18 -120 0 -120 0 -104 -25 -104 -25 -14 -18 -14 -17
6 60 6 60 20 174 20 175 8 210 8 211 -5 13 -4 12 -1484 0 -1484 0 0 -118z"/>
</g>
</svg>
