<?xml version="1.0" standalone="no"?>
<!DOCTYPE svg PUBLIC "-//W3C//DTD SVG 20010904//EN"
 "http://www.w3.org/TR/2001/REC-SVG-20010904/DTD/svg10.dtd">
<svg version="1.0" xmlns="http://www.w3.org/2000/svg"
 width="103.000000pt" height="114.000000pt" viewBox="0 0 103.000000 114.000000"
 preserveAspectRatio="xMidYMid meet">
<metadata>
Created by potrace 1.16, written by Peter Selinger 2001-2019
</metadata>
<g transform="translate(0.000000,114.000000) scale(0.100000,-0.100000)"
fill="#000000" stroke="none">
<path d="M67 1133 l-5 -8 -6 -150 -7 -150 9 -13 9 -14 96 16 96 17 28 -7 27
-7 18 -17 19 -17 6 -51 6 -51 -38 -36 -38 -35 -54 -16 -55 -16 -41 6 -42 5
-36 6 -35 7 -13 -16 -14 -16 6 -78 5 -77 27 -85 27 -85 101 0 102 0 48 -18 47
-19 10 -18 10 -19 0 -25 0 -25 -10 -6 -10 -6 0 -25 0 -25 10 -19 10 -19 38
-11 37 -10 60 0 60 0 24 19 23 18 -5 39 -5 39 -4 20 -3 19 26 13 26 12 104 16
104 15 66 16 65 17 12 76 12 76 6 61 7 61 -13 37 -12 36 -25 6 -26 7 -32 -17
-32 -18 -43 13 -43 13 -33 31 -33 31 -6 27 -7 27 6 24 6 25 16 15 15 16 27 0
27 0 49 -15 49 -15 12 0 11 0 21 19 20 19 8 48 7 48 -7 123 -7 123 -459 0
-458 0 -4 -7z"/>
</g>
</svg>
