<?xml version="1.0" standalone="no"?>
<!DOCTYPE svg PUBLIC "-//W3C//DTD SVG 20010904//EN"
 "http://www.w3.org/TR/2001/REC-SVG-20010904/DTD/svg10.dtd">
<svg version="1.0" xmlns="http://www.w3.org/2000/svg"
 width="297.000000pt" height="332.000000pt" viewBox="0 0 297.000000 332.000000"
 preserveAspectRatio="xMidYMid meet">
<metadata>
Created by potrace 1.16, written by Peter Selinger 2001-2019
</metadata>
<g transform="translate(0.000000,332.000000) scale(0.100000,-0.100000)"
fill="#000000" stroke="none">
<path d="M1380 3310 l-65 -8 -45 -12 -45 -12 -40 -20 -40 -20 -33 -32 -34 -31
-21 -40 -21 -40 0 -66 0 -67 52 -107 52 -107 0 -44 0 -44 -21 -21 -21 -21 -36
-15 -36 -15 -102 -7 -102 -7 -224 7 -223 7 -187 8 -188 7 0 -1302 0 -1301
1476 0 1476 0 -6 23 -6 22 -20 115 -19 115 -16 190 -15 190 -11 78 -10 79 -19
62 -20 62 -34 40 -34 39 -69 0 -68 0 -53 -34 -53 -34 -43 -4 -42 -5 -41 20
-40 21 -28 33 -28 33 -23 51 -23 52 -10 78 -11 79 10 77 9 78 21 40 20 40 31
16 31 16 34 -7 34 -6 55 -29 56 -29 74 -16 74 -15 25 0 25 0 53 11 53 12 46
46 46 46 22 58 21 58 11 92 12 92 -8 355 -7 355 -52 23 -51 24 -85 33 -85 33
-120 31 -120 30 -220 41 -220 41 -70 21 -70 20 -42 24 -42 24 -16 22 -15 22 0
37 0 36 11 32 11 31 21 0 22 0 14 9 14 9 -7 26 -6 26 -43 31 -42 31 -40 18
-40 17 -50 11 -50 11 -60 5 -60 4 -65 -8z"/>
</g>
</svg>
