<?xml version="1.0" standalone="no"?>
<!DOCTYPE svg PUBLIC "-//W3C//DTD SVG 20010904//EN"
 "http://www.w3.org/TR/2001/REC-SVG-20010904/DTD/svg10.dtd">
<svg version="1.0" xmlns="http://www.w3.org/2000/svg"
 width="126.000000pt" height="114.000000pt" viewBox="0 0 126.000000 114.000000"
 preserveAspectRatio="xMidYMid meet">
<metadata>
Created by potrace 1.16, written by Peter Selinger 2001-2019
</metadata>
<g transform="translate(0.000000,114.000000) scale(0.100000,-0.100000)"
fill="#000000" stroke="none">
<path d="M515 1131 l-30 -8 -22 -12 -23 -12 0 -18 0 -19 15 -12 15 -12 0 -50
0 -49 -24 -23 -23 -24 -59 -12 -58 -12 -86 5 -85 6 -28 7 -29 7 4 -139 4 -139
19 -32 20 -32 23 -10 23 -11 55 0 55 0 21 11 21 12 13 -18 13 -18 7 -43 6 -43
-9 -28 -10 -28 -33 -23 -33 -22 -46 0 -46 1 -45 10 -45 9 -31 6 -31 6 -17 -18
-18 -18 4 -85 5 -86 32 -77 33 -78 479 0 479 0 11 28 11 27 25 120 25 120 14
23 15 22 29 -15 29 -15 16 0 15 0 20 20 20 20 0 86 0 85 -10 20 -11 19 -29 0
-29 0 -6 -10 -6 -10 -33 0 -33 0 -26 21 -27 20 -15 51 -15 52 0 96 0 97 -77
26 -78 27 -98 20 -97 20 -25 16 -25 16 0 12 0 12 16 22 16 23 -6 24 -6 24 -18
5 -17 5 -30 4 -30 5 -30 -7z"/>
</g>
</svg>
