<?xml version="1.0" standalone="no"?>
<!DOCTYPE svg PUBLIC "-//W3C//DTD SVG 20010904//EN"
 "http://www.w3.org/TR/2001/REC-SVG-20010904/DTD/svg10.dtd">
<svg version="1.0" xmlns="http://www.w3.org/2000/svg"
 width="124.000000pt" height="112.000000pt" viewBox="0 0 124.000000 112.000000"
 preserveAspectRatio="xMidYMid meet">
<metadata>
Created by potrace 1.16, written by Peter Selinger 2001-2019
</metadata>
<g transform="translate(0.000000,112.000000) scale(0.100000,-0.100000)"
fill="#000000" stroke="none">
<path d="M515 1110 l-30 -7 -22 -12 -23 -12 0 -8 0 -9 15 -12 15 -12 0 -60 0
-59 -24 -23 -23 -24 -58 -12 -59 -12 -95 4 -96 5 -19 8 -18 8 4 -129 4 -129
19 -32 20 -32 23 -10 23 -11 45 0 45 0 29 15 29 15 16 -24 16 -24 6 -54 5 -53
-11 -27 -11 -28 -32 -20 -33 -20 -55 0 -55 1 -40 8 -40 8 -26 7 -26 7 -18 -17
-17 -18 4 -75 5 -76 32 -77 33 -78 469 0 469 0 11 28 11 27 27 128 28 128 16
17 17 16 35 -17 36 -17 18 10 19 9 6 17 6 16 0 69 0 70 -10 20 -11 19 -19 0
-19 0 -6 -10 -6 -10 -43 0 -43 0 -26 21 -27 20 -15 51 -15 52 0 96 0 97 -77
26 -78 27 -98 20 -97 20 -25 16 -25 16 0 22 0 22 15 21 15 21 -6 16 -6 16 -27
6 -26 6 -10 2 -10 3 -30 -7z"/>
</g>
</svg>
