<?xml version="1.0" standalone="no"?>
<!DOCTYPE svg PUBLIC "-//W3C//DTD SVG 20010904//EN"
 "http://www.w3.org/TR/2001/REC-SVG-20010904/DTD/svg10.dtd">
<svg version="1.0" xmlns="http://www.w3.org/2000/svg"
 width="150.000000pt" height="110.000000pt" viewBox="0 0 150.000000 110.000000"
 preserveAspectRatio="xMidYMid meet">
<metadata>
Created by potrace 1.16, written by Peter Selinger 2001-2019
</metadata>
<g transform="translate(0.000000,110.000000) scale(0.100000,-0.100000)"
fill="#000000" stroke="none">
<path d="M702 1089 l-23 -9 15 -22 16 -22 0 -42 0 -41 -22 -28 -21 -27 -36
-16 -36 -16 -145 -1 -144 -2 -1 -121 0 -121 -21 -28 -21 -28 -27 -9 -26 -10
-53 13 -52 12 -38 6 -38 5 -14 -18 -14 -19 -1 -79 0 -78 38 -38 37 -38 40 -11
40 -11 33 0 33 0 25 16 25 17 18 -17 19 -17 6 -42 6 -42 -8 -97 -7 -98 447 -1
448 -2 13 -1 12 -1 27 55 28 55 30 114 29 115 19 18 18 19 17 -7 17 -6 0 -9 0
-9 24 0 25 0 20 26 21 27 0 37 0 37 -11 32 -11 31 -20 11 -19 10 -24 -15 -24
-16 -40 0 -39 0 -31 26 -31 26 -15 51 -15 51 0 88 0 88 -7 0 -8 0 -78 -15 -79
-15 -64 0 -65 0 -21 20 -21 19 17 43 16 44 0 24 0 25 -19 31 -19 31 -35 16
-35 17 -39 -1 -38 0 -23 -10z"/>
</g>
</svg>
