<?xml version="1.0" standalone="no"?>
<!DOCTYPE svg PUBLIC "-//W3C//DTD SVG 20010904//EN"
 "http://www.w3.org/TR/2001/REC-SVG-20010904/DTD/svg10.dtd">
<svg version="1.0" xmlns="http://www.w3.org/2000/svg"
 width="152.000000pt" height="112.000000pt" viewBox="0 0 152.000000 112.000000"
 preserveAspectRatio="xMidYMid meet">
<metadata>
Created by potrace 1.16, written by Peter Selinger 2001-2019
</metadata>
<g transform="translate(0.000000,112.000000) scale(0.100000,-0.100000)"
fill="#000000" stroke="none">
<path d="M703 1110 l-23 -9 0 -13 1 -13 14 -19 15 -20 0 -32 0 -31 -22 -28
-21 -27 -36 -16 -36 -16 -145 -1 -145 0 0 -121 0 -120 -18 -27 -18 -28 -25
-11 -24 -11 -48 12 -47 13 -48 5 -48 5 -14 -18 -14 -19 -1 -89 0 -88 38 -38
37 -38 40 -11 40 -11 43 0 42 0 20 12 20 13 17 -18 18 -18 -2 -107 -3 -107 -6
-28 -6 -27 451 -2 451 -2 23 0 22 -1 27 55 28 55 29 113 30 114 12 14 11 14
14 0 14 0 0 -10 0 -10 34 0 35 0 20 26 21 27 0 49 0 49 -14 34 -15 34 -25 7
-26 6 -25 -16 -24 -16 -30 0 -29 0 -31 26 -31 26 -15 51 -15 51 0 88 0 88 -17
0 -18 0 -78 -15 -79 -15 -54 0 -54 0 -19 17 -20 16 15 35 14 34 0 37 0 36 -19
31 -19 31 -35 16 -35 17 -49 -1 -48 0 -22 -9z"/>
</g>
</svg>
