<?xml version="1.0" standalone="no"?>
<!DOCTYPE svg PUBLIC "-//W3C//DTD SVG 20010904//EN"
 "http://www.w3.org/TR/2001/REC-SVG-20010904/DTD/svg10.dtd">
<svg version="1.0" xmlns="http://www.w3.org/2000/svg"
 width="120.000000pt" height="109.000000pt" viewBox="0 0 120.000000 109.000000"
 preserveAspectRatio="xMidYMid meet">
<metadata>
Created by potrace 1.16, written by Peter Selinger 2001-2019
</metadata>
<g transform="translate(0.000000,109.000000) scale(0.100000,-0.100000)"
fill="#000000" stroke="none">
<path d="M325 1065 l-27 -26 7 -47 7 -47 14 -34 14 -34 -12 -14 -12 -15 -156
3 -155 4 6 -110 6 -110 15 -36 16 -36 27 -21 28 -22 39 0 39 0 24 16 24 15 19
-10 20 -11 11 -31 11 -32 0 -37 0 -37 -21 -27 -20 -26 -25 0 -24 0 0 9 0 9
-17 6 -17 7 -18 -19 -19 -18 -29 -114 -30 -114 -25 -53 -24 -53 449 0 449 0 5
33 5 32 5 113 6 112 11 23 12 22 10 7 10 6 40 -14 40 -14 39 0 40 0 29 29 29
29 0 42 0 41 -15 29 -15 30 -26 6 -26 7 -34 -17 -35 -16 -35 0 -35 0 -19 10
-18 10 -11 31 -11 32 0 133 0 134 -4 0 -4 0 -63 -30 -64 -29 -73 -13 -73 -12
-27 15 -27 15 2 25 1 24 13 42 13 41 -13 42 -12 42 -34 36 -33 37 -86 4 -85 3
-26 -27z"/>
</g>
</svg>
