<?xml version="1.0" standalone="no"?>
<!DOCTYPE svg PUBLIC "-//W3C//DTD SVG 20010904//EN"
 "http://www.w3.org/TR/2001/REC-SVG-20010904/DTD/svg10.dtd">
<svg version="1.0" xmlns="http://www.w3.org/2000/svg"
 width="122.000000pt" height="111.000000pt" viewBox="0 0 122.000000 111.000000"
 preserveAspectRatio="xMidYMid meet">
<metadata>
Created by potrace 1.16, written by Peter Selinger 2001-2019
</metadata>
<g transform="translate(0.000000,111.000000) scale(0.100000,-0.100000)"
fill="#000000" stroke="none">
<path d="M325 1086 l-25 -25 0 -28 0 -29 15 -59 16 -58 -10 -10 -10 -10 -153
5 -154 5 4 -101 3 -101 15 -52 14 -51 31 -26 31 -26 53 0 54 0 6 10 6 10 20 0
20 0 15 -35 14 -34 0 -29 0 -29 -21 -27 -20 -26 -10 0 -10 0 -15 15 -15 15
-18 0 -18 0 -17 -19 -17 -19 -30 -113 -29 -113 -25 -54 -25 -54 0 -9 0 -9 460
0 459 0 5 33 5 32 5 111 5 112 13 27 12 27 25 -7 26 -6 62 -6 62 -5 31 30 30
30 0 52 0 51 -15 28 -14 29 -16 6 -17 6 -26 0 -27 -1 -25 -14 -25 -14 -28 -1
-28 0 -19 10 -18 10 -11 31 -11 32 0 133 0 134 -15 0 -16 0 -49 -25 -50 -25
-62 -15 -63 -15 -21 0 -22 0 -21 18 -22 17 15 37 16 37 0 38 0 38 -19 40 -18
40 -27 25 -28 25 -93 3 -94 4 -26 -26z"/>
</g>
</svg>
