<?xml version="1.0" standalone="no"?>
<!DOCTYPE svg PUBLIC "-//W3C//DTD SVG 20010904//EN"
 "http://www.w3.org/TR/2001/REC-SVG-20010904/DTD/svg10.dtd">
<svg version="1.0" xmlns="http://www.w3.org/2000/svg"
 width="144.000000pt" height="110.000000pt" viewBox="0 0 144.000000 110.000000"
 preserveAspectRatio="xMidYMid meet">
<metadata>
Created by potrace 1.16, written by Peter Selinger 2001-2019
</metadata>
<g transform="translate(0.000000,110.000000) scale(0.100000,-0.100000)"
fill="#000000" stroke="none">
<path d="M633 1090 l-23 -9 0 -13 1 -13 14 -19 15 -20 0 -17 0 -18 -11 -24
-11 -24 -37 -21 -37 -21 -75 -12 -74 -11 -77 5 -76 6 0 -122 0 -122 -16 -40
-17 -39 -16 -18 -16 -18 -33 -6 -34 -6 -25 16 -24 16 -21 0 -20 0 -11 -27 -11
-28 5 -48 4 -48 20 -27 19 -26 28 -20 27 -21 87 0 87 0 17 9 18 8 10 -27 10
-27 -15 -63 -14 -64 -26 -52 -25 -53 0 -13 0 -13 465 0 465 0 0 8 0 7 -24 76
-24 77 -12 68 -12 69 11 29 11 28 23 -7 22 -7 45 -9 45 -9 45 6 45 7 20 10 20
10 22 21 23 21 0 35 0 35 -19 31 -19 31 -35 16 -35 17 -34 0 -33 0 -29 -15
-28 -15 -9 5 -8 6 -11 40 -11 40 7 120 7 119 -24 0 -24 -1 -65 -14 -65 -14
-61 -1 -60 0 -18 13 -18 13 17 56 18 55 -7 28 -7 27 -23 23 -23 23 -39 11 -39
11 -45 -1 -45 0 -22 -9z"/>
</g>
</svg>
