<?xml version="1.0" standalone="no"?>
<!DOCTYPE svg PUBLIC "-//W3C//DTD SVG 20010904//EN"
 "http://www.w3.org/TR/2001/REC-SVG-20010904/DTD/svg10.dtd">
<svg version="1.0" xmlns="http://www.w3.org/2000/svg"
 width="122.000000pt" height="110.000000pt" viewBox="0 0 122.000000 110.000000"
 preserveAspectRatio="xMidYMid meet">
<metadata>
Created by potrace 1.16, written by Peter Selinger 2001-2019
</metadata>
<g transform="translate(0.000000,110.000000) scale(0.100000,-0.100000)"
fill="#000000" stroke="none">
<path d="M393 1080 l-32 -19 -12 -40 -12 -40 16 -48 16 -48 -8 -8 -8 -8 -158
10 -158 9 -12 -5 -12 -4 -8 -157 -7 -157 11 -27 11 -28 17 0 18 0 73 15 72 15
25 -6 26 -6 9 -18 10 -19 0 -35 0 -34 -25 -30 -25 -29 -30 -13 -31 -13 -12 12
-11 11 -38 0 -38 0 -16 -26 -17 -26 -5 -155 -5 -156 24 6 24 7 433 0 432 0 0
13 0 12 -31 75 -32 75 -5 66 -4 65 16 17 17 16 27 -10 27 -11 95 -5 95 -4 33
20 32 21 10 26 10 25 0 42 0 42 -10 36 -10 37 -16 13 -15 12 -35 -16 -35 -17
-34 0 -34 0 -23 11 -23 10 -20 32 -19 32 -4 121 -4 122 -51 6 -52 5 -105 7
-105 6 -33 15 -32 15 -6 9 -5 8 16 30 15 30 0 25 0 25 -22 15 -22 16 -56 0
-55 0 -32 -20z"/>
</g>
</svg>
