<?xml version="1.0" standalone="no"?>
<!DOCTYPE svg PUBLIC "-//W3C//DTD SVG 20010904//EN"
 "http://www.w3.org/TR/2001/REC-SVG-20010904/DTD/svg10.dtd">
<svg version="1.0" xmlns="http://www.w3.org/2000/svg"
 width="92.000000pt" height="112.000000pt" viewBox="0 0 92.000000 112.000000"
 preserveAspectRatio="xMidYMid meet">
<metadata>
Created by potrace 1.16, written by Peter Selinger 2001-2019
</metadata>
<g transform="translate(0.000000,112.000000) scale(0.100000,-0.100000)"
fill="#000000" stroke="none">
<path d="M405 1106 l-30 -13 -22 -24 -22 -24 -10 -28 -11 -28 0 -22 0 -22 14
-27 14 -27 -20 -7 -21 -6 -116 6 -116 7 -32 6 -33 5 0 -98 0 -99 10 -37 11
-37 30 -25 31 -26 38 0 39 0 27 10 27 11 8 -13 8 -13 7 -52 6 -53 -6 -35 -7
-35 -25 -27 -25 -28 -6 13 -5 12 -34 0 -35 0 -14 -32 -13 -33 -16 -87 -17 -87
-16 -52 -17 -51 19 -14 19 -14 122 0 123 0 28 11 28 10 7 12 8 12 0 33 0 33
-15 36 -15 35 0 19 0 18 30 16 29 15 41 0 41 0 29 -15 30 -15 21 -41 20 -41
-16 -18 -16 -18 3 -39 3 -38 40 -13 40 -14 133 4 133 5 10 10 11 11 -20 64
-21 63 -16 85 -17 85 -14 28 -15 27 -34 0 -34 0 -6 -10 -6 -10 -25 0 -25 0
-15 35 -14 34 0 25 0 24 27 32 26 32 41 -6 41 -7 41 -5 41 -6 16 16 16 17 11
37 10 37 0 133 0 132 -22 0 -23 0 -60 -15 -60 -15 -86 -6 -85 -7 -23 13 -23
12 5 21 5 22 12 31 13 30 -7 38 -7 37 -27 30 -27 30 -35 4 -35 5 -30 -14z"/>
</g>
</svg>
