<?xml version="1.0" standalone="no"?>
<!DOCTYPE svg PUBLIC "-//W3C//DTD SVG 20010904//EN"
 "http://www.w3.org/TR/2001/REC-SVG-20010904/DTD/svg10.dtd">
<svg version="1.0" xmlns="http://www.w3.org/2000/svg"
 width="101.000000pt" height="120.000000pt" viewBox="0 0 101.000000 120.000000"
 preserveAspectRatio="xMidYMid meet">
<metadata>
Created by potrace 1.16, written by Peter Selinger 2001-2019
</metadata>
<g transform="translate(0.000000,120.000000) scale(0.100000,-0.100000)"
fill="#000000" stroke="none">
<path d="M643 1189 l-33 -10 0 -13 0 -14 15 -60 16 -60 -10 -41 -9 -41 -17
-26 -16 -25 -23 -8 -22 -9 -27 5 -26 5 -26 24 -25 23 0 26 0 26 16 24 15 24
-3 32 -3 32 -28 21 -28 21 -158 3 -158 4 -6 -63 -7 -62 0 -96 0 -96 8 -11 7
-12 70 15 70 15 49 -5 50 -4 23 -29 23 -29 0 -37 0 -38 -19 -19 -20 -20 -43
-13 -43 -12 -85 1 -85 1 -35 3 -34 4 -10 -28 -10 -28 16 -77 16 -78 30 -74 30
-75 143 3 144 3 27 -10 27 -10 -14 -35 -15 -35 0 -28 0 -28 11 -40 11 -40 35
-32 34 -33 48 0 47 0 33 28 34 28 4 55 4 54 -15 50 -16 50 23 19 22 19 110 -7
110 -6 46 -6 46 -6 12 135 12 135 -6 36 -7 35 -14 12 -14 12 -45 -13 -44 -12
-67 4 -67 4 -23 28 -24 27 0 50 0 49 34 37 33 37 64 4 64 4 45 -16 44 -15 6 5
5 6 -3 151 -4 152 -1 2 -2 2 -100 19 -100 20 -55 5 -55 6 -32 -10z"/>
</g>
</svg>
