<?xml version="1.0" standalone="no"?>
<!DOCTYPE svg PUBLIC "-//W3C//DTD SVG 20010904//EN"
 "http://www.w3.org/TR/2001/REC-SVG-20010904/DTD/svg10.dtd">
<svg version="1.0" xmlns="http://www.w3.org/2000/svg"
 width="118.000000pt" height="93.000000pt" viewBox="0 0 118.000000 93.000000"
 preserveAspectRatio="xMidYMid meet">
<metadata>
Created by potrace 1.16, written by Peter Selinger 2001-2019
</metadata>
<g transform="translate(0.000000,93.000000) scale(0.100000,-0.100000)"
fill="#000000" stroke="none">
<path d="M255 797 l0 -132 -20 -40 -20 -40 -29 -14 -29 -14 -46 12 -46 12 -24
6 -23 6 -9 -14 -9 -14 0 -63 0 -63 15 -29 15 -29 43 -26 44 -25 22 0 22 0 29
15 30 15 21 -21 21 -21 -4 -139 -3 -138 54 -7 55 -7 97 6 97 6 35 14 34 15 21
27 22 28 0 49 0 49 -10 19 -10 19 34 6 34 7 31 -7 30 -6 30 -28 30 -28 7 -26
6 -27 -16 -40 -16 -40 0 -18 0 -18 22 -18 21 -18 101 5 101 5 53 12 53 12 -7
146 -6 147 -12 25 -11 25 -40 -2 -40 -3 -39 -2 -39 -3 -20 28 -21 27 -4 63 -4
62 20 25 21 25 18 -11 19 -11 29 -7 30 -6 29 8 30 8 18 25 19 25 9 65 10 64
-7 78 -6 77 -16 0 -16 -1 -20 -15 -20 -15 -85 -25 -85 -25 -43 -15 -42 -16 -6
-25 -7 -26 19 -14 19 -14 -23 -19 -23 -19 -53 -12 -53 -12 -29 10 -29 10 -15
26 -14 26 14 48 14 48 0 40 1 39 -25 13 -25 13 -175 0 -175 0 0 -133z"/>
</g>
</svg>
