<?xml version="1.0" standalone="no"?>
<!DOCTYPE svg PUBLIC "-//W3C//DTD SVG 20010904//EN"
 "http://www.w3.org/TR/2001/REC-SVG-20010904/DTD/svg10.dtd">
<svg version="1.0" xmlns="http://www.w3.org/2000/svg"
 width="91.000000pt" height="115.000000pt" viewBox="0 0 91.000000 115.000000"
 preserveAspectRatio="xMidYMid meet">
<metadata>
Created by potrace 1.16, written by Peter Selinger 2001-2019
</metadata>
<g transform="translate(0.000000,115.000000) scale(0.100000,-0.100000)"
fill="#000000" stroke="none">
<path d="M5 1036 l-7 -117 6 -41 7 -41 10 -18 10 -19 28 0 28 0 33 16 33 17
36 -9 35 -9 23 -34 23 -34 0 -29 0 -30 -29 -29 -29 -29 -31 0 -31 0 0 10 0 10
-24 0 -24 0 -12 -15 -12 -14 -24 -140 -24 -139 -9 -25 -10 -25 6 -6 6 -6 163
0 162 0 16 -6 16 -6 0 -13 0 -12 -16 -32 -16 -33 6 -44 6 -44 15 -30 15 -30
25 -16 25 -16 45 7 46 6 34 35 35 35 0 35 0 35 -15 23 -15 23 17 15 18 16 20
6 20 6 100 10 100 10 30 6 30 5 -3 432 -3 431 -2 3 -3 3 -35 -10 -34 -10 -115
-16 -115 -16 -34 -14 -33 -14 5 -22 5 -23 13 -32 13 -32 -18 -20 -18 -20 -44
-7 -44 -6 -46 7 -45 6 -8 22 -9 22 14 34 14 33 0 34 0 33 -16 15 -16 16 -21
12 -22 12 -136 4 -137 4 -7 -116z"/>
</g>
</svg>
