<?xml version="1.0" standalone="no"?>
<!DOCTYPE svg PUBLIC "-//W3C//DTD SVG 20010904//EN"
 "http://www.w3.org/TR/2001/REC-SVG-20010904/DTD/svg10.dtd">
<svg version="1.0" xmlns="http://www.w3.org/2000/svg"
 width="93.000000pt" height="117.000000pt" viewBox="0 0 93.000000 117.000000"
 preserveAspectRatio="xMidYMid meet">
<metadata>
Created by potrace 1.16, written by Peter Selinger 2001-2019
</metadata>
<g transform="translate(0.000000,117.000000) scale(0.100000,-0.100000)"
fill="#000000" stroke="none">
<path d="M5 1055 l-8 -117 6 -49 6 -48 11 -21 11 -20 38 0 38 0 32 16 31 16
28 -9 27 -10 23 -33 22 -33 0 -19 0 -20 -29 -29 -29 -29 -21 0 -21 0 0 10 0
10 -34 0 -34 0 -12 -15 -12 -14 -23 -135 -23 -136 -12 -35 -11 -35 6 -10 6
-10 167 0 167 0 13 -8 13 -9 -16 -29 -15 -29 0 -35 0 -35 11 -39 11 -39 28
-29 28 -28 30 0 29 0 33 6 32 7 34 34 34 34 0 47 0 48 -11 11 -11 11 7 12 7
11 24 9 23 9 103 11 103 10 30 6 30 5 -3 442 -3 441 -4 4 -3 4 -74 -16 -73
-16 -85 -11 -84 -11 -33 -13 -33 -14 0 -26 0 -26 16 -30 15 -31 -16 -18 -17
-19 -44 -7 -43 -6 -38 9 -38 9 2 29 2 30 7 43 6 42 -6 23 -5 22 -33 20 -33 20
-146 3 -147 4 -7 -117z"/>
</g>
</svg>
