<?xml version="1.0" standalone="no"?>
<!DOCTYPE svg PUBLIC "-//W3C//DTD SVG 20010904//EN"
 "http://www.w3.org/TR/2001/REC-SVG-20010904/DTD/svg10.dtd">
<svg version="1.0" xmlns="http://www.w3.org/2000/svg"
 width="123.000000pt" height="121.000000pt" viewBox="0 0 123.000000 121.000000"
 preserveAspectRatio="xMidYMid meet">
<metadata>
Created by potrace 1.16, written by Peter Selinger 2001-2019
</metadata>
<g transform="translate(0.000000,121.000000) scale(0.100000,-0.100000)"
fill="#000000" stroke="none">
<path d="M430 1199 l-35 -7 -17 -22 -18 -22 0 -34 0 -33 15 -46 16 -45 -5 -9
-6 -9 -34 -16 -34 -16 -157 0 -157 0 4 -154 3 -154 19 -21 19 -21 26 0 26 0
44 16 45 15 42 -16 41 -16 19 -34 18 -34 -9 -28 -10 -27 -32 -19 -32 -19 -23
16 -22 16 -28 0 -28 0 -19 -31 -19 -31 -17 -97 -17 -96 -19 -60 -19 -60 0 -20
0 -20 142 3 143 3 37 10 36 9 22 18 21 17 6 42 6 43 -17 26 -18 26 17 18 17
19 28 6 29 6 29 -15 29 -15 17 -35 16 -34 0 -26 0 -27 -15 -36 -15 -35 0 -18
0 -18 25 -16 24 -16 68 0 68 0 70 16 70 15 37 6 38 6 25 51 25 51 20 94 21 93
14 34 14 34 15 0 15 0 6 -10 6 -10 35 0 35 0 24 26 25 27 2 31 2 31 -2 30 -3
29 -17 19 -17 20 -40 18 -40 19 -43 0 -43 0 -31 -16 -30 -16 -9 9 -8 8 -3 165
-3 165 -53 27 -52 26 -96 22 -96 22 -20 20 -19 19 16 25 16 25 -3 22 -3 22
-25 11 -25 12 -55 4 -55 5 -35 -8z"/>
</g>
</svg>
