<?xml version="1.0" standalone="no"?>
<!DOCTYPE svg PUBLIC "-//W3C//DTD SVG 20010904//EN"
 "http://www.w3.org/TR/2001/REC-SVG-20010904/DTD/svg10.dtd">
<svg version="1.0" xmlns="http://www.w3.org/2000/svg"
 width="121.000000pt" height="119.000000pt" viewBox="0 0 121.000000 119.000000"
 preserveAspectRatio="xMidYMid meet">
<metadata>
Created by potrace 1.16, written by Peter Selinger 2001-2019
</metadata>
<g transform="translate(0.000000,119.000000) scale(0.100000,-0.100000)"
fill="#000000" stroke="none">
<path d="M430 1179 l-35 -7 -17 -22 -18 -22 0 -23 0 -23 16 -50 17 -51 -6 -14
-5 -14 -34 -16 -34 -16 -158 -2 -158 -1 4 -143 3 -143 20 -22 20 -22 25 5 25
5 43 12 42 13 43 -17 43 -16 17 -29 17 -29 0 -31 0 -32 -24 -24 -24 -24 -26
-7 -25 -6 -23 16 -22 16 -18 0 -18 0 -19 -31 -19 -31 -17 -97 -17 -96 -19 -60
-19 -60 0 -10 0 -10 152 5 153 5 35 20 35 21 9 36 9 37 -16 25 -17 25 0 14 0
14 19 17 19 17 34 5 35 6 30 -16 30 -15 17 -35 16 -34 0 -36 0 -36 -17 -41
-16 -42 24 -19 24 -19 90 5 90 5 72 20 72 19 4 -5 5 -4 26 53 26 53 20 94 21
93 14 34 14 34 21 0 20 0 19 -11 18 -12 25 6 26 7 16 25 17 25 1 46 1 45 -19
21 -19 21 -40 18 -40 19 -33 0 -33 0 -30 -16 -30 -15 -17 3 -17 3 -5 170 -5
169 -40 23 -40 22 -65 17 -65 16 -52 14 -53 14 -11 22 -12 22 18 33 19 34 -16
15 -16 16 -58 7 -59 7 -35 -7z"/>
</g>
</svg>
