<?xml version="1.0" standalone="no"?>
<!DOCTYPE svg PUBLIC "-//W3C//DTD SVG 20010904//EN"
 "http://www.w3.org/TR/2001/REC-SVG-20010904/DTD/svg10.dtd">
<svg version="1.0" xmlns="http://www.w3.org/2000/svg"
 width="467.000000pt" height="330.000000pt" viewBox="0 0 467.000000 330.000000"
 preserveAspectRatio="xMidYMid meet">
<metadata>
Created by potrace 1.16, written by Peter Selinger 2001-2019
</metadata>
<g transform="translate(0.000000,330.000000) scale(0.100000,-0.100000)"
fill="#000000" stroke="none">
<path d="M2045 3285 l-70 -13 -58 -22 -57 -21 -49 -40 -50 -39 -25 -42 -25
-43 -10 -60 -11 -60 9 -60 9 -60 17 -50 17 -50 11 -20 10 -20 28 -32 28 -33
-5 -14 -5 -14 -22 -6 -22 -6 -70 0 -70 0 -230 14 -230 15 -209 7 -208 7 7
-369 7 -369 -12 -84 -11 -84 -21 -56 -21 -56 -46 -46 -46 -47 -60 -12 -59 -12
-81 16 -81 16 -60 30 -60 31 -40 6 -41 5 -31 -16 -32 -16 -20 -40 -21 -40 -10
-83 -10 -82 11 -83 11 -84 23 -51 23 -52 28 -33 28 -33 40 -21 40 -20 53 4 52
4 53 35 54 34 58 0 59 0 34 -39 34 -40 20 -62 19 -62 10 -79 11 -78 15 -185
15 -185 11 -75 11 -75 15 -68 15 -67 1479 0 1479 0 0 8 0 7 -50 137 -50 137
-40 143 -39 143 -21 114 -20 114 0 91 0 91 11 40 11 39 33 33 33 33 45 0 45 0
75 -30 74 -29 74 -12 74 -11 125 5 125 5 75 16 75 16 65 22 65 21 50 25 49 24
29 22 29 21 14 27 14 27 0 36 0 36 -15 28 -14 29 -45 39 -44 39 -54 26 -53 26
-45 15 -46 15 -76 16 -77 16 -100 0 -100 0 -53 -11 -53 -11 -59 -29 -59 -29
-23 0 -23 0 -20 29 -20 28 -12 49 -12 49 0 160 0 160 17 245 17 245 -3 70 -3
70 -92 27 -92 27 -128 20 -128 21 -206 25 -206 25 -68 15 -67 16 -44 21 -44
20 -20 26 -20 25 0 34 0 34 10 18 9 18 36 36 35 35 0 29 0 28 -25 37 -25 37
-73 35 -72 35 -89 16 -89 15 -91 -1 -91 -1 -70 -13z"/>
</g>
</svg>
