<?xml version="1.0" standalone="no"?>
<!DOCTYPE svg PUBLIC "-//W3C//DTD SVG 20010904//EN"
 "http://www.w3.org/TR/2001/REC-SVG-20010904/DTD/svg10.dtd">
<svg version="1.0" xmlns="http://www.w3.org/2000/svg"
 width="119.000000pt" height="89.000000pt" viewBox="0 0 119.000000 89.000000"
 preserveAspectRatio="xMidYMid meet">
<metadata>
Created by potrace 1.16, written by Peter Selinger 2001-2019
</metadata>
<g transform="translate(0.000000,89.000000) scale(0.100000,-0.100000)"
fill="#000000" stroke="none">
<path d="M369 883 l-107 -4 -4 -132 -4 -132 -16 -30 -16 -30 -20 -18 -20 -19
-41 -5 -41 -6 -24 17 -25 16 -14 0 -14 0 -11 -25 -12 -26 0 -54 0 -54 23 -26
22 -26 40 -9 40 -9 60 9 60 9 36 7 37 6 11 -34 11 -34 -10 -52 -10 -52 -25
-73 -25 -74 0 -11 0 -12 449 0 450 0 6 9 5 10 3 134 2 135 -19 21 -19 21 -17
0 -16 0 -20 -15 -19 -14 -25 -1 -25 0 -40 11 -40 11 -37 38 -38 38 0 68 1 69
13 17 13 18 19 0 19 0 40 -15 40 -14 47 -1 47 0 26 23 26 22 9 40 10 40 0 61
0 61 -6 46 -6 45 -157 7 -156 7 -40 -14 -40 -13 -3 -22 -3 -22 15 -30 16 -30
0 -25 0 -24 -31 -31 -31 -31 -25 0 -25 0 -28 28 -28 29 -13 42 -13 43 18 33
19 34 -6 15 -6 16 -78 -2 -78 -2 -106 -3z"/>
</g>
</svg>
