<?xml version="1.0" standalone="no"?>
<!DOCTYPE svg PUBLIC "-//W3C//DTD SVG 20010904//EN"
 "http://www.w3.org/TR/2001/REC-SVG-20010904/DTD/svg10.dtd">
<svg version="1.0" xmlns="http://www.w3.org/2000/svg"
 width="117.000000pt" height="87.000000pt" viewBox="0 0 117.000000 87.000000"
 preserveAspectRatio="xMidYMid meet">
<metadata>
Created by potrace 1.16, written by Peter Selinger 2001-2019
</metadata>
<g transform="translate(0.000000,87.000000) scale(0.100000,-0.100000)"
fill="#000000" stroke="none">
<path d="M369 863 l-107 -4 -4 -132 -4 -132 -16 -30 -16 -30 -21 -19 -21 -19
-50 -5 -50 -5 -26 18 -26 17 -3 -4 -2 -3 -12 -22 -11 -22 0 -45 0 -45 23 -26
22 -26 35 -8 36 -8 54 8 55 8 46 7 47 7 11 -36 12 -36 -7 -48 -7 -48 -23 -70
-22 -70 -7 -18 -7 -17 440 0 441 0 5 9 6 9 3 126 2 125 -22 22 -22 22 -25 -16
-25 -17 -33 0 -33 0 -40 11 -40 11 -37 38 -38 38 0 78 1 79 14 19 14 18 38 -5
38 -6 52 -12 53 -13 26 10 27 9 18 25 19 25 6 61 7 62 -7 64 -7 65 -143 7
-143 8 -42 -12 -42 -11 -5 -14 -5 -13 15 -31 16 -30 0 -35 0 -34 -31 -31 -31
-31 -32 0 -32 0 -23 16 -23 17 -19 41 -19 41 0 30 0 31 16 22 15 22 -6 10 -6
10 -67 -2 -67 -2 -106 -3z"/>
</g>
</svg>
