<?xml version="1.0" standalone="no"?>
<!DOCTYPE svg PUBLIC "-//W3C//DTD SVG 20010904//EN"
 "http://www.w3.org/TR/2001/REC-SVG-20010904/DTD/svg10.dtd">
<svg version="1.0" xmlns="http://www.w3.org/2000/svg"
 width="98.000000pt" height="89.000000pt" viewBox="0 0 98.000000 89.000000"
 preserveAspectRatio="xMidYMid meet">
<metadata>
Created by potrace 1.16, written by Peter Selinger 2001-2019
</metadata>
<g transform="translate(0.000000,89.000000) scale(0.100000,-0.100000)"
fill="#000000" stroke="none">
<path d="M92 883 l-92 -4 0 -148 0 -148 11 -32 11 -31 18 -10 19 -10 46 0 46
0 30 16 30 15 20 -6 19 -6 15 -29 15 -29 0 -31 0 -32 -29 -29 -29 -29 -30 0
-29 0 -43 15 -43 15 -17 -5 -17 -5 -11 -25 -11 -24 -6 -93 -6 -93 -5 -62 -5
-63 470 0 469 0 21 78 21 78 0 70 0 70 -12 12 -12 12 -32 0 -32 0 -51 -12 -51
-12 -36 17 -35 17 -15 35 -14 34 0 66 0 65 19 19 20 20 67 -19 67 -20 24 6 24
6 10 21 11 20 -1 140 -1 140 -5 6 -6 5 -62 -21 -62 -22 -85 -17 -85 -16 -32
-14 -33 -13 0 -33 0 -34 13 -13 12 -12 -23 -19 -22 -18 -39 -7 -39 -6 -41 11
-40 11 -26 33 -26 34 -6 36 -6 37 18 40 19 41 -15 9 -14 9 -70 -2 -70 -2 -93
-3z"/>
</g>
</svg>
