<?xml version="1.0" standalone="no"?>
<!DOCTYPE svg PUBLIC "-//W3C//DTD SVG 20010904//EN"
 "http://www.w3.org/TR/2001/REC-SVG-20010904/DTD/svg10.dtd">
<svg version="1.0" xmlns="http://www.w3.org/2000/svg"
 width="116.000000pt" height="89.000000pt" viewBox="0 0 116.000000 89.000000"
 preserveAspectRatio="xMidYMid meet">
<metadata>
Created by potrace 1.16, written by Peter Selinger 2001-2019
</metadata>
<g transform="translate(0.000000,89.000000) scale(0.100000,-0.100000)"
fill="#000000" stroke="none">
<path d="M240 749 l0 -140 -10 -20 -11 -19 -22 0 -22 0 -49 15 -49 15 -19 0
-18 0 -20 -20 -20 -20 0 -85 0 -86 14 -34 14 -34 31 -15 30 -16 35 0 34 0 51
12 50 11 16 -13 15 -12 0 -53 0 -53 -25 -86 -25 -86 0 -5 0 -5 460 0 460 0 0
441 0 442 -47 -7 -48 -7 -98 -10 -98 -10 -22 -8 -23 -9 -14 -17 -14 -17 17
-30 17 -30 0 -23 0 -24 -34 -34 -34 -34 -37 -7 -37 -7 -24 15 -24 16 -14 28
-14 28 -7 36 -7 37 16 32 16 32 0 22 0 23 -16 6 -16 6 -179 0 -179 0 0 -141z"/>
</g>
</svg>
