<?xml version="1.0" standalone="no"?>
<!DOCTYPE svg PUBLIC "-//W3C//DTD SVG 20010904//EN"
 "http://www.w3.org/TR/2001/REC-SVG-20010904/DTD/svg10.dtd">
<svg version="1.0" xmlns="http://www.w3.org/2000/svg"
 width="102.000000pt" height="107.000000pt" viewBox="0 0 102.000000 107.000000"
 preserveAspectRatio="xMidYMid meet">
<metadata>
Created by potrace 1.16, written by Peter Selinger 2001-2019
</metadata>
<g transform="translate(0.000000,107.000000) scale(0.100000,-0.100000)"
fill="#000000" stroke="none">
<path d="M432 1063 l-22 -4 -16 -24 -15 -23 22 -63 22 -63 -24 -19 -24 -19
-172 4 -173 3 0 -140 0 -140 18 -35 17 -35 27 -13 27 -12 43 15 43 15 21 0 22
0 6 -16 6 -16 0 -54 0 -55 -14 -32 -13 -33 -27 -17 -26 -18 -33 -1 -32 -1 -39
14 -38 14 -19 -24 -19 -23 0 -42 0 -41 10 -65 11 -65 5 -17 5 -18 458 0 459 0
20 58 21 57 10 35 10 35 6 42 7 43 -12 36 -12 37 -47 -7 -46 -7 -55 -8 -54 -8
-36 8 -35 8 -22 26 -23 26 0 45 0 45 11 22 12 22 2 3 3 4 26 -17 26 -18 50 5
50 5 21 19 21 19 16 30 16 30 4 131 4 131 -68 -9 -69 -8 -90 -2 -90 -2 -22 8
-23 7 -6 24 -6 24 16 16 16 16 0 16 0 15 -22 39 -21 38 -39 16 -38 15 -13 -1
-12 -2 -23 -4z"/>
</g>
</svg>
