<?xml version="1.0" standalone="no"?>
<!DOCTYPE svg PUBLIC "-//W3C//DTD SVG 20010904//EN"
 "http://www.w3.org/TR/2001/REC-SVG-20010904/DTD/svg10.dtd">
<svg version="1.0" xmlns="http://www.w3.org/2000/svg"
 width="104.000000pt" height="109.000000pt" viewBox="0 0 104.000000 109.000000"
 preserveAspectRatio="xMidYMid meet">
<metadata>
Created by potrace 1.16, written by Peter Selinger 2001-2019
</metadata>
<g transform="translate(0.000000,109.000000) scale(0.100000,-0.100000)"
fill="#000000" stroke="none">
<path d="M430 1081 l-25 -7 -14 -26 -15 -26 21 -61 21 -62 -24 -16 -24 -16
-171 5 -170 4 3 -162 3 -163 21 -27 20 -28 27 -9 27 -9 56 18 56 17 9 -14 9
-14 0 -48 0 -48 -14 -32 -13 -33 -28 -18 -27 -18 -37 6 -36 5 -36 7 -37 6 -16
-23 -16 -23 0 -51 0 -50 10 -65 11 -65 5 -17 5 -18 468 0 469 0 20 58 21 57
10 35 10 35 7 51 6 52 -12 37 -12 37 -52 -6 -51 -5 -77 -7 -77 -7 -31 31 -30
30 0 37 0 36 10 20 11 19 21 -11 21 -11 58 4 58 4 22 20 21 19 16 30 16 30 4
144 4 143 -28 -5 -29 -6 -55 -6 -55 -5 -75 -2 -75 -1 -22 7 -21 7 -6 15 -6 15
15 15 15 15 0 26 0 25 -22 39 -21 38 -39 16 -38 15 -23 -1 -22 -1 -25 -7z"/>
</g>
</svg>
