<?xml version="1.0" standalone="no"?>
<!DOCTYPE svg PUBLIC "-//W3C//DTD SVG 20010904//EN"
 "http://www.w3.org/TR/2001/REC-SVG-20010904/DTD/svg10.dtd">
<svg version="1.0" xmlns="http://www.w3.org/2000/svg"
 width="101.000000pt" height="94.000000pt" viewBox="0 0 101.000000 94.000000"
 preserveAspectRatio="xMidYMid meet">
<metadata>
Created by potrace 1.16, written by Peter Selinger 2001-2019
</metadata>
<g transform="translate(0.000000,94.000000) scale(0.100000,-0.100000)"
fill="#000000" stroke="none">
<path d="M593 923 l-6 -16 11 -57 12 -56 0 -42 0 -41 -34 -37 -34 -38 -60 -4
-60 -4 -21 21 -21 21 0 19 0 18 15 43 15 43 0 18 0 18 -15 15 -16 15 -37 10
-37 10 -153 3 -152 3 0 -442 0 -443 464 0 464 0 26 57 27 56 16 70 16 70 -9
36 -9 36 -35 -2 -35 -3 -52 -6 -52 -6 -35 12 -35 11 -30 34 -30 35 -6 32 -6
33 10 28 11 28 22 -15 22 -16 41 0 40 0 24 13 25 12 19 33 19 33 9 77 9 77 -6
72 -7 71 -36 16 -36 17 -55 14 -55 15 -68 0 -68 0 -6 -17z"/>
</g>
</svg>
