<?xml version="1.0" standalone="no"?>
<!DOCTYPE svg PUBLIC "-//W3C//DTD SVG 20010904//EN"
 "http://www.w3.org/TR/2001/REC-SVG-20010904/DTD/svg10.dtd">
<svg version="1.0" xmlns="http://www.w3.org/2000/svg"
 width="101.000000pt" height="92.000000pt" viewBox="0 0 101.000000 92.000000"
 preserveAspectRatio="xMidYMid meet">
<metadata>
Created by potrace 1.16, written by Peter Selinger 2001-2019
</metadata>
<g transform="translate(0.000000,92.000000) scale(0.100000,-0.100000)"
fill="#000000" stroke="none">
<path d="M618 909 l-18 -10 0 -22 0 -22 16 -44 15 -44 -6 -28 -6 -27 -24 -26
-24 -26 -51 0 -51 0 -24 16 -25 16 0 32 0 32 16 48 16 48 -10 10 -10 10 -44 9
-43 8 -137 -6 -136 -6 -7 -133 -7 -133 13 -43 14 -43 23 -3 23 -4 35 17 35 16
29 -6 29 -6 30 -28 30 -28 7 -27 6 -26 -23 -24 -24 -23 -23 -12 -24 -13 -54 0
-54 -1 -29 12 -29 13 -28 -4 -29 -3 -9 -38 -10 -38 12 -73 13 -73 22 -74 23
-74 465 -3 466 -2 7 76 6 77 0 93 0 93 -10 25 -9 25 -27 7 -27 7 -33 -18 -33
-17 -33 6 -33 6 -33 20 -33 20 -5 15 -6 15 16 25 16 25 38 0 37 0 49 -15 48
-15 23 6 23 6 10 26 10 27 6 33 6 33 -7 138 -6 138 -111 22 -111 21 -70 0 -70
-1 -17 -10z"/>
</g>
</svg>
