<?xml version="1.0" standalone="no"?>
<!DOCTYPE svg PUBLIC "-//W3C//DTD SVG 20010904//EN"
 "http://www.w3.org/TR/2001/REC-SVG-20010904/DTD/svg10.dtd">
<svg version="1.0" xmlns="http://www.w3.org/2000/svg"
 width="144.000000pt" height="90.000000pt" viewBox="0 0 144.000000 90.000000"
 preserveAspectRatio="xMidYMid meet">
<metadata>
Created by potrace 1.16, written by Peter Selinger 2001-2019
</metadata>
<g transform="translate(0.000000,90.000000) scale(0.100000,-0.100000)"
fill="#000000" stroke="none">
<path d="M830 882 l-23 -18 18 -70 18 -69 -7 -37 -7 -38 -33 -25 -33 -25 -36
0 -36 0 -34 33 -35 32 -12 45 -12 45 11 40 12 40 2 19 2 20 -32 9 -32 9 -146
-7 -146 -7 3 -157 3 -156 -14 -34 -14 -33 -36 6 -36 6 -49 10 -48 10 -24 -6
-24 -6 -15 -21 -15 -21 0 -32 0 -31 18 -16 18 -16 37 -16 36 -15 41 0 41 0 23
15 22 15 20 -14 19 -15 -2 -175 -2 -176 458 0 458 0 5 140 5 139 17 26 16 25
20 0 19 0 6 -10 6 -10 30 0 30 0 29 15 28 15 21 26 21 27 0 56 0 57 -13 18
-13 17 -39 5 -40 6 -70 -15 -70 -15 -10 10 -10 9 2 137 3 137 5 31 5 31 -94
11 -95 12 -74 0 -75 0 -22 -18z"/>
</g>
</svg>
