<?xml version="1.0" standalone="no"?>
<!DOCTYPE svg PUBLIC "-//W3C//DTD SVG 20010904//EN"
 "http://www.w3.org/TR/2001/REC-SVG-20010904/DTD/svg10.dtd">
<svg version="1.0" xmlns="http://www.w3.org/2000/svg"
 width="91.000000pt" height="112.000000pt" viewBox="0 0 91.000000 112.000000"
 preserveAspectRatio="xMidYMid meet">
<metadata>
Created by potrace 1.16, written by Peter Selinger 2001-2019
</metadata>
<g transform="translate(0.000000,112.000000) scale(0.100000,-0.100000)"
fill="#000000" stroke="none">
<path d="M413 1105 l-22 -16 -11 -40 -11 -39 17 -66 16 -66 -13 -10 -14 -9
-185 3 -185 3 0 -125 0 -126 18 -27 17 -27 25 0 24 0 6 10 6 10 46 0 45 0 28
-17 28 -16 22 -40 22 -39 -4 -49 -5 -48 -26 -34 -26 -34 -28 -6 -28 -5 -40 14
-40 14 -13 0 -13 0 -13 -33 -14 -32 -11 -104 -11 -103 -6 -25 -7 -25 156 4
156 3 28 21 28 21 3 41 3 41 -16 31 -16 31 7 22 6 22 22 24 21 23 23 9 24 9
37 -10 37 -10 26 -27 27 -28 6 -27 7 -27 -16 -23 -16 -22 0 -17 0 -17 26 -17
27 -17 121 -19 121 -19 20 -3 20 -2 7 45 7 45 0 91 1 91 -11 31 -10 30 -15 6
-15 6 -29 -15 -29 -15 -34 0 -34 0 -39 34 -39 34 1 55 0 56 14 25 13 26 18 5
19 6 64 -21 64 -22 20 11 21 11 11 38 10 37 0 55 0 55 -7 68 -6 67 -169 0
-169 0 -19 10 -20 10 -9 19 -10 18 15 27 14 28 0 38 0 38 -26 31 -26 31 -22 0
-22 0 -21 -15z"/>
</g>
</svg>
