<?xml version="1.0" standalone="no"?>
<!DOCTYPE svg PUBLIC "-//W3C//DTD SVG 20010904//EN"
 "http://www.w3.org/TR/2001/REC-SVG-20010904/DTD/svg10.dtd">
<svg version="1.0" xmlns="http://www.w3.org/2000/svg"
 width="94.000000pt" height="90.000000pt" viewBox="0 0 94.000000 90.000000"
 preserveAspectRatio="xMidYMid meet">
<metadata>
Created by potrace 1.16, written by Peter Selinger 2001-2019
</metadata>
<g transform="translate(0.000000,90.000000) scale(0.100000,-0.100000)"
fill="#000000" stroke="none">
<path d="M30 878 l0 -23 -15 -139 -15 -140 4 -4 4 -3 39 10 38 11 40 0 40 0
34 -18 35 -17 20 -28 21 -28 -1 -57 -1 -57 -12 -24 -13 -23 -31 6 -32 7 -31 5
-30 6 -13 -15 -12 -15 -15 -79 -15 -78 -15 -65 -16 -65 -5 -22 -5 -23 113 0
114 0 40 11 40 11 28 29 27 29 0 41 0 41 -16 34 -17 35 18 19 18 20 40 11 40
11 35 -7 35 -6 24 -16 24 -16 10 -19 10 -18 -16 -22 -15 -22 0 -27 0 -27 26
-17 27 -17 81 -15 81 -15 63 -19 62 -19 10 0 10 0 0 445 0 445 -455 0 -455 0
0 -22z"/>
</g>
</svg>
