<?xml version="1.0" standalone="no"?>
<!DOCTYPE svg PUBLIC "-//W3C//DTD SVG 20010904//EN"
 "http://www.w3.org/TR/2001/REC-SVG-20010904/DTD/svg10.dtd">
<svg version="1.0" xmlns="http://www.w3.org/2000/svg"
 width="92.000000pt" height="88.000000pt" viewBox="0 0 92.000000 88.000000"
 preserveAspectRatio="xMidYMid meet">
<metadata>
Created by potrace 1.16, written by Peter Selinger 2001-2019
</metadata>
<g transform="translate(0.000000,88.000000) scale(0.100000,-0.100000)"
fill="#000000" stroke="none">
<path d="M30 861 l0 -19 -10 -103 -10 -104 -5 -32 -6 -32 33 10 33 9 50 0 50
0 34 -18 35 -17 20 -28 21 -28 -1 -67 0 -67 -13 -22 -12 -23 -26 0 -27 0 -33
12 -33 12 -15 -15 -16 -15 -15 -80 -15 -79 -13 -60 -14 -60 -7 -18 -7 -17 103
0 104 0 40 11 40 11 27 29 28 29 0 31 0 31 -16 33 -16 34 4 17 3 17 28 21 28
21 67 0 67 0 32 -23 32 -23 6 -20 7 -21 -18 -33 -17 -32 6 -15 5 -15 34 -16
33 -16 94 -16 95 -16 34 -15 34 -14 4 0 4 0 0 435 0 435 -445 0 -445 0 0 -19z"/>
</g>
</svg>
