<?xml version="1.0" standalone="no"?>
<!DOCTYPE svg PUBLIC "-//W3C//DTD SVG 20010904//EN"
 "http://www.w3.org/TR/2001/REC-SVG-20010904/DTD/svg10.dtd">
<svg version="1.0" xmlns="http://www.w3.org/2000/svg"
 width="122.000000pt" height="114.000000pt" viewBox="0 0 122.000000 114.000000"
 preserveAspectRatio="xMidYMid meet">
<metadata>
Created by potrace 1.16, written by Peter Selinger 2001-2019
</metadata>
<g transform="translate(0.000000,114.000000) scale(0.100000,-0.100000)"
fill="#000000" stroke="none">
<path d="M400 1128 l-25 -13 -9 -38 -9 -37 15 -70 15 -71 -10 -6 -9 -6 -178 7
-177 8 -6 -54 -7 -53 0 -52 0 -52 11 -51 11 -50 15 -15 14 -15 34 0 34 0 6 10
6 10 28 0 28 0 26 -21 27 -20 10 -40 11 -40 -11 -56 -10 -56 -16 -18 -17 -18
-20 14 -21 15 -23 0 -23 0 -14 -22 -15 -23 -20 -94 -21 -94 -20 -34 -20 -34 0
-13 0 -13 77 -7 76 -6 76 0 76 0 23 7 24 6 -5 31 -5 31 -12 41 -12 41 16 36
15 37 33 20 33 20 39 0 38 0 39 -38 38 -38 7 -28 7 -29 -17 -27 -16 -28 0 -25
0 -25 25 -16 24 -16 99 0 99 0 60 6 61 7 21 71 20 71 17 90 16 90 14 27 14 27
10 6 11 7 24 -16 24 -16 21 0 21 0 29 15 29 15 11 19 10 20 0 36 0 37 -17 29
-17 28 -38 16 -38 15 -25 0 -24 0 -47 -16 -47 -16 -21 21 -21 22 -3 150 -4
151 -51 23 -52 22 -94 22 -95 23 -28 14 -28 15 0 18 0 19 15 6 15 5 0 14 0 14
-27 13 -28 12 -60 5 -60 4 -25 -13z"/>
</g>
</svg>
