<?xml version="1.0" standalone="no"?>
<!DOCTYPE svg PUBLIC "-//W3C//DTD SVG 20010904//EN"
 "http://www.w3.org/TR/2001/REC-SVG-20010904/DTD/svg10.dtd">
<svg version="1.0" xmlns="http://www.w3.org/2000/svg"
 width="120.000000pt" height="112.000000pt" viewBox="0 0 120.000000 112.000000"
 preserveAspectRatio="xMidYMid meet">
<metadata>
Created by potrace 1.16, written by Peter Selinger 2001-2019
</metadata>
<g transform="translate(0.000000,112.000000) scale(0.100000,-0.100000)"
fill="#000000" stroke="none">
<path d="M402 1110 l-22 -9 -11 -28 -12 -28 16 -79 16 -79 -6 -10 -6 -10 -183
7 -182 7 -7 -76 -7 -76 6 -49 6 -48 11 -31 11 -31 26 -7 25 -6 18 12 19 11 36
0 36 0 28 -28 28 -28 6 -41 7 -41 -10 -58 -11 -59 -20 -19 -20 -20 -29 17 -29
17 -11 0 -11 0 -14 -22 -15 -23 -20 -94 -21 -94 -20 -35 -21 -35 4 -3 3 -3
125 -7 126 -7 37 7 38 7 -6 22 -5 22 -12 50 -12 50 16 37 16 38 33 20 33 20
47 0 46 0 32 -26 31 -26 14 -29 15 -28 0 -28 -1 -28 -14 -19 -15 -20 0 -17 0
-17 25 -16 24 -16 89 0 89 0 60 6 61 7 21 71 20 71 17 92 16 91 19 31 19 31
18 0 18 0 22 -16 23 -16 25 6 26 7 24 24 24 24 0 32 0 31 -17 29 -17 29 -43
16 -43 17 -42 -13 -43 -12 -25 -5 -25 -5 -20 22 -20 22 -3 150 -4 150 -51 23
-52 22 -94 22 -95 23 -28 14 -28 15 0 28 0 29 18 7 17 7 -28 15 -29 15 -51 4
-52 4 -23 -10z"/>
</g>
</svg>
