<?xml version="1.0" standalone="no"?>
<!DOCTYPE svg PUBLIC "-//W3C//DTD SVG 20010904//EN"
 "http://www.w3.org/TR/2001/REC-SVG-20010904/DTD/svg10.dtd">
<svg version="1.0" xmlns="http://www.w3.org/2000/svg"
 width="120.000000pt" height="118.000000pt" viewBox="0 0 120.000000 118.000000"
 preserveAspectRatio="xMidYMid meet">
<metadata>
Created by potrace 1.16, written by Peter Selinger 2001-2019
</metadata>
<g transform="translate(0.000000,118.000000) scale(0.100000,-0.100000)"
fill="#000000" stroke="none">
<path d="M400 1172 l-25 -8 -14 -29 -14 -28 13 -71 12 -71 11 -19 10 -20 -24
-19 -23 -19 -167 4 -167 3 -6 -59 -6 -59 0 -69 0 -69 14 -34 15 -35 20 0 20 0
57 15 57 15 26 -7 26 -6 22 -14 21 -14 16 -34 16 -33 0 -49 0 -48 -20 -33 -20
-33 -30 16 -29 15 -30 0 -31 0 -14 -22 -14 -23 -26 -95 -27 -95 -25 -44 -24
-44 0 -18 0 -19 133 0 134 0 48 14 47 15 24 22 24 22 0 44 0 44 -16 24 -16 24
18 30 18 30 26 10 26 9 40 -14 39 -14 2 0 2 0 11 -20 11 -20 -16 -29 -15 -30
0 -25 0 -26 23 -14 23 -15 128 -26 128 -25 28 -15 29 -15 14 0 13 0 22 39 23
40 20 93 20 93 15 23 15 23 24 -15 24 -16 19 0 19 0 17 19 16 18 11 62 11 61
-7 47 -7 46 -28 29 -28 28 -49 0 -49 0 -11 -11 -11 -11 -20 6 -21 7 -13 37
-13 37 2 123 2 122 -12 0 -12 0 -134 15 -134 14 -21 20 -20 21 17 29 17 29 0
22 0 21 -15 29 -15 28 -35 22 -36 22 -62 4 -62 3 -25 -7z"/>
</g>
</svg>
