<?xml version="1.0" standalone="no"?>
<!DOCTYPE svg PUBLIC "-//W3C//DTD SVG 20010904//EN"
 "http://www.w3.org/TR/2001/REC-SVG-20010904/DTD/svg10.dtd">
<svg version="1.0" xmlns="http://www.w3.org/2000/svg"
 width="118.000000pt" height="116.000000pt" viewBox="0 0 118.000000 116.000000"
 preserveAspectRatio="xMidYMid meet">
<metadata>
Created by potrace 1.16, written by Peter Selinger 2001-2019
</metadata>
<g transform="translate(0.000000,116.000000) scale(0.100000,-0.100000)"
fill="#000000" stroke="none">
<path d="M400 1152 l-25 -8 -13 -27 -13 -27 11 -58 12 -57 11 -33 12 -34 -24
-19 -24 -20 -168 3 -167 3 -6 -59 -6 -59 0 -59 0 -59 14 -34 15 -35 10 0 9 0
62 16 61 15 32 -7 32 -7 21 -14 22 -14 16 -34 16 -33 0 -59 0 -58 -20 -32 -20
-33 -12 0 -13 1 -25 14 -25 14 -22 1 -23 0 -14 -22 -14 -23 -26 -95 -27 -95
-25 -44 -24 -44 0 -8 0 -9 123 0 124 0 48 14 47 15 24 22 24 22 0 33 0 32 -17
31 -18 30 19 35 19 35 30 10 30 11 39 -11 39 -10 20 -20 19 -19 0 -17 -1 -18
-14 -25 -14 -25 -1 -17 0 -18 23 -14 23 -15 128 -26 128 -25 30 -16 31 -16 9
14 9 13 15 28 15 28 20 92 20 92 15 23 14 22 11 0 11 0 29 -17 29 -17 20 20
20 19 11 59 10 58 -7 41 -6 41 -28 28 -28 28 -36 0 -36 0 -19 -11 -18 -12 -26
7 -25 6 -14 37 -13 38 1 123 1 122 -11 0 -11 0 -134 15 -133 14 -19 17 -19 17
0 18 0 17 17 30 17 29 -14 32 -13 33 -38 25 -37 24 -53 4 -54 4 -25 -7z"/>
</g>
</svg>
