<?xml version="1.0" standalone="no"?>
<!DOCTYPE svg PUBLIC "-//W3C//DTD SVG 20010904//EN"
 "http://www.w3.org/TR/2001/REC-SVG-20010904/DTD/svg10.dtd">
<svg version="1.0" xmlns="http://www.w3.org/2000/svg"
 width="122.000000pt" height="140.000000pt" viewBox="0 0 122.000000 140.000000"
 preserveAspectRatio="xMidYMid meet">
<metadata>
Created by potrace 1.16, written by Peter Selinger 2001-2019
</metadata>
<g transform="translate(0.000000,140.000000) scale(0.100000,-0.100000)"
fill="#000000" stroke="none">
<path d="M676 1390 l-28 -9 -19 -17 -19 -17 0 -27 0 -28 15 -28 15 -29 0 -23
0 -22 -28 -29 -28 -30 -47 -12 -48 -12 -105 5 -105 5 5 -26 6 -26 2 -127 3
-127 -11 -11 -12 -12 -38 11 -39 11 -58 0 -58 0 -29 -15 -28 -15 -12 -36 -12
-36 4 -56 5 -55 31 -28 31 -28 37 -7 37 -7 41 10 41 10 17 7 16 8 13 -24 13
-23 4 -152 4 -153 42 8 41 7 95 0 95 0 28 -8 28 -8 19 -19 19 -19 -14 -35 -15
-35 0 -40 0 -40 19 -11 20 -10 66 0 66 0 24 16 24 15 10 31 11 31 0 34 0 34
-14 34 -14 34 15 13 16 13 76 -1 76 -2 89 -16 89 -15 8 5 9 5 0 447 0 447 -77
18 -78 17 -72 15 -72 14 -25 16 -26 17 0 7 0 7 15 20 14 19 1 28 0 29 -30 28
-29 27 -32 7 -31 6 -37 -1 -36 -1 -29 -8z"/>
</g>
</svg>
