<?xml version="1.0" standalone="no"?>
<!DOCTYPE svg PUBLIC "-//W3C//DTD SVG 20010904//EN"
 "http://www.w3.org/TR/2001/REC-SVG-20010904/DTD/svg10.dtd">
<svg version="1.0" xmlns="http://www.w3.org/2000/svg"
 width="148.000000pt" height="143.000000pt" viewBox="0 0 148.000000 143.000000"
 preserveAspectRatio="xMidYMid meet">
<metadata>
Created by potrace 1.16, written by Peter Selinger 2001-2019
</metadata>
<g transform="translate(0.000000,143.000000) scale(0.100000,-0.100000)"
fill="#000000" stroke="none">
<path d="M583 1420 l-23 -9 0 -18 0 -18 16 -44 15 -43 -11 -34 -12 -34 -45
-27 -46 -27 -114 -4 -115 -5 7 -116 7 -116 -11 -42 -12 -43 -17 -9 -17 -9 -61
21 -61 20 -25 -6 -24 -6 -14 -27 -15 -26 0 -65 0 -65 40 -35 40 -35 50 5 50 5
26 7 27 7 12 -38 13 -38 -6 -110 -6 -111 -6 -20 -5 -20 8 -12 8 -12 72 11 73
11 78 -10 78 -10 28 -14 28 -14 20 -27 20 -27 -16 -25 -17 -25 0 -39 0 -38 28
-24 27 -24 52 0 52 0 25 23 25 24 12 35 11 35 -6 71 -7 71 -2 30 -2 30 80 0
80 -1 93 -29 92 -28 3 4 3 4 26 50 27 50 30 104 30 104 15 16 16 15 35 -17 36
-17 19 0 20 0 20 33 20 32 0 68 0 69 -16 33 -16 34 -22 15 -23 15 -36 6 -36 7
-48 -10 -48 -11 -18 -6 -17 -7 -16 38 -16 39 6 117 7 116 -68 11 -68 10 -60 6
-60 7 -32 13 -33 14 0 14 0 15 15 12 15 12 0 21 0 20 -20 33 -21 33 -43 20
-42 21 -80 -1 -79 0 -22 -9z"/>
</g>
</svg>
