<?xml version="1.0" standalone="no"?>
<!DOCTYPE svg PUBLIC "-//W3C//DTD SVG 20010904//EN"
 "http://www.w3.org/TR/2001/REC-SVG-20010904/DTD/svg10.dtd">
<svg version="1.0" xmlns="http://www.w3.org/2000/svg"
 width="94.000000pt" height="146.000000pt" viewBox="0 0 94.000000 146.000000"
 preserveAspectRatio="xMidYMid meet">
<metadata>
Created by potrace 1.16, written by Peter Selinger 2001-2019
</metadata>
<g transform="translate(0.000000,146.000000) scale(0.100000,-0.100000)"
fill="#000000" stroke="none">
<path d="M366 1438 l-16 -22 0 -34 0 -33 16 -65 17 -65 -17 -17 -17 -17 -172
-5 -172 -5 -3 -123 -3 -123 11 -39 11 -40 21 -20 22 -20 32 0 33 0 57 15 56
14 19 -9 18 -10 10 -36 10 -37 -14 -33 -13 -33 -33 -16 -32 -17 -41 7 -41 6
-50 2 -50 2 -13 -39 -13 -39 3 -146 3 -146 174 4 174 4 -7 -19 -8 -19 -5 -61
-6 -61 13 -37 12 -37 28 -30 27 -31 41 -5 42 -6 24 17 25 16 21 66 20 66 0 57
-1 56 -13 38 -14 37 21 11 20 11 52 -6 52 -6 89 -26 89 -26 18 -5 17 -5 0 21
0 22 -19 38 -20 38 -26 93 -26 94 -10 18 -10 18 -24 6 -25 6 -26 -17 -26 -17
-19 18 -18 19 -12 45 -11 45 11 43 12 42 25 17 25 16 35 -16 35 -17 42 0 43 0
21 15 21 15 11 33 10 32 2 60 2 60 -1 72 -2 72 -67 20 -68 19 -84 15 -83 16
-19 17 -18 16 14 35 15 35 0 34 0 33 -30 16 -29 15 -90 0 -90 0 -15 -22z"/>
</g>
</svg>
