<?xml version="1.0" standalone="no"?>
<!DOCTYPE svg PUBLIC "-//W3C//DTD SVG 20010904//EN"
 "http://www.w3.org/TR/2001/REC-SVG-20010904/DTD/svg10.dtd">
<svg version="1.0" xmlns="http://www.w3.org/2000/svg"
 width="92.000000pt" height="144.000000pt" viewBox="0 0 92.000000 144.000000"
 preserveAspectRatio="xMidYMid meet">
<metadata>
Created by potrace 1.16, written by Peter Selinger 2001-2019
</metadata>
<g transform="translate(0.000000,144.000000) scale(0.100000,-0.100000)"
fill="#000000" stroke="none">
<path d="M364 1415 l-17 -25 6 -38 6 -37 12 -58 13 -57 -17 -18 -18 -17 -172
-5 -172 -5 -3 -113 -3 -112 11 -40 11 -40 21 -20 22 -20 22 0 22 0 63 16 62
16 23 -11 23 -10 11 -41 11 -41 -11 -35 -12 -36 -32 -19 -31 -20 -55 6 -55 5
-40 3 -40 2 -13 -39 -13 -39 3 -136 3 -136 166 4 167 4 10 -7 10 -6 -14 -37
-13 -38 -1 -43 0 -43 15 -35 15 -36 22 -24 23 -24 33 -6 32 -6 25 16 24 16 21
66 20 66 0 44 0 43 -16 48 -16 47 18 13 18 13 40 0 41 0 80 -19 80 -20 43 -15
42 -15 0 10 0 10 -19 37 -19 38 -17 59 -16 60 -16 48 -15 47 -19 11 -19 10
-30 -18 -30 -18 -18 11 -17 11 -15 29 -15 29 0 61 0 60 18 27 17 27 26 6 26 7
34 -17 35 -16 30 0 30 0 21 11 20 11 13 31 13 32 2 55 2 55 -1 72 -1 72 -67
20 -68 19 -84 16 -85 15 -19 20 -20 20 16 43 17 44 0 22 0 21 -30 16 -29 15
-80 0 -81 0 -16 -25z"/>
</g>
</svg>
