<?xml version="1.0" standalone="no"?>
<!DOCTYPE svg PUBLIC "-//W3C//DTD SVG 20010904//EN"
 "http://www.w3.org/TR/2001/REC-SVG-20010904/DTD/svg10.dtd">
<svg version="1.0" xmlns="http://www.w3.org/2000/svg"
 width="121.000000pt" height="118.000000pt" viewBox="0 0 121.000000 118.000000"
 preserveAspectRatio="xMidYMid meet">
<metadata>
Created by potrace 1.16, written by Peter Selinger 2001-2019
</metadata>
<g transform="translate(0.000000,118.000000) scale(0.100000,-0.100000)"
fill="#000000" stroke="none">
<path d="M470 1173 l-45 -3 -71 -6 -70 -5 0 -164 1 -164 -21 -21 -21 -21 -38
15 -37 16 -48 0 -47 0 -34 -23 -34 -23 -3 -56 -3 -55 28 -33 27 -33 33 -13 32
-14 28 0 29 0 21 15 20 14 18 -19 18 -19 8 -43 8 -43 1 -56 0 -56 6 -47 7 -46
123 0 124 0 38 -16 39 -15 13 -24 12 -23 -5 -38 -4 -39 -14 -32 -13 -32 12
-25 12 -26 105 0 106 0 24 16 25 16 0 25 0 24 -15 30 -16 30 5 8 6 8 27 11 28
11 90 21 90 20 55 21 55 22 -3 176 -4 176 -11 25 -12 25 -23 3 -23 4 -41 -17
-40 -16 -33 11 -33 11 -18 20 -18 20 1 34 1 34 22 31 21 30 19 0 19 0 5 -9 6
-8 29 -6 30 -6 31 10 31 11 17 32 17 31 3 139 4 139 -147 -7 -148 -7 -28 -15
-29 -15 0 -12 0 -12 17 -47 17 -47 -12 -26 -12 -26 -35 -15 -34 -14 -37 0 -36
0 -28 30 -27 29 -12 46 -11 45 6 28 7 27 9 12 10 13 -6 15 -5 15 -73 -2 -73
-1 -45 -4z"/>
</g>
</svg>
