<?xml version="1.0" standalone="no"?>
<!DOCTYPE svg PUBLIC "-//W3C//DTD SVG 20010904//EN"
 "http://www.w3.org/TR/2001/REC-SVG-20010904/DTD/svg10.dtd">
<svg version="1.0" xmlns="http://www.w3.org/2000/svg"
 width="131.000000pt" height="115.000000pt" viewBox="0 0 131.000000 115.000000"
 preserveAspectRatio="xMidYMid meet">
<metadata>
Created by potrace 1.16, written by Peter Selinger 2001-2019
</metadata>
<g transform="translate(0.000000,115.000000) scale(0.100000,-0.100000)"
fill="#000000" stroke="none">
<path d="M325 1144 l-20 -3 -107 -6 -108 -7 0 -134 0 -135 14 -33 14 -33 23
-17 23 -16 31 0 30 0 29 15 28 15 18 0 19 0 20 -26 21 -27 0 -31 0 -31 -33
-21 -32 -21 -35 -11 -35 -11 -41 -6 -41 -6 -38 15 -37 16 -23 0 -23 0 -12 -34
-11 -34 11 -66 10 -66 26 -68 26 -67 -1 -27 -1 -27 162 2 163 2 33 -18 32 -18
0 -13 0 -13 -15 -43 -15 -43 0 -24 0 -24 19 -20 19 -20 64 -2 64 -2 28 18 28
19 15 36 15 37 -6 70 -6 70 -3 30 -2 30 70 -1 70 -1 75 -28 75 -28 25 -1 24
-1 12 25 12 25 15 103 16 103 16 26 17 25 21 -7 22 -7 41 -10 41 -11 27 7 26
6 16 31 16 31 0 89 0 89 -16 24 -15 24 -37 12 -37 12 -72 -6 -72 -7 -33 -9
-33 -9 7 82 7 82 6 74 6 73 -139 -7 -139 -7 -25 -12 -25 -11 -3 -29 -4 -28 11
-11 11 -11 0 -20 -1 -21 -12 -16 -12 -16 -25 -15 -25 -16 -45 -7 -45 -7 -32
29 -32 28 -11 28 -10 28 0 32 0 32 15 29 15 28 0 9 0 9 -67 -1 -68 -2 -20 -3z"/>
</g>
</svg>
