<?xml version="1.0" standalone="no"?>
<!DOCTYPE svg PUBLIC "-//W3C//DTD SVG 20010904//EN"
 "http://www.w3.org/TR/2001/REC-SVG-20010904/DTD/svg10.dtd">
<svg version="1.0" xmlns="http://www.w3.org/2000/svg"
 width="122.000000pt" height="141.000000pt" viewBox="0 0 122.000000 141.000000"
 preserveAspectRatio="xMidYMid meet">
<metadata>
Created by potrace 1.16, written by Peter Selinger 2001-2019
</metadata>
<g transform="translate(0.000000,141.000000) scale(0.100000,-0.100000)"
fill="#000000" stroke="none">
<path d="M675 1400 l-20 -8 -22 -23 -21 -24 -12 -44 -12 -45 7 -55 7 -55 9
-24 10 -25 -68 7 -68 6 -99 7 -99 6 7 -104 7 -104 6 -63 6 -62 -84 6 -84 6
-44 -12 -44 -12 -29 -28 -28 -28 0 -44 0 -43 20 -32 19 -32 32 -17 32 -16 51
5 51 6 26 6 26 7 12 -33 11 -32 0 -107 0 -107 6 -33 7 -32 21 6 21 6 149 6
148 7 -8 -54 -9 -54 0 -47 0 -46 19 -21 19 -21 82 0 82 0 27 21 26 20 0 49 0
49 -10 6 -10 6 0 13 0 13 26 12 26 12 122 9 121 10 38 0 37 0 0 450 0 450 -37
16 -38 16 -138 29 -137 29 -20 12 -20 13 0 13 0 13 16 24 16 25 -6 26 -7 26
-24 24 -24 24 -53 -1 -53 0 -20 -9z"/>
</g>
</svg>
