<?xml version="1.0" standalone="no"?>
<!DOCTYPE svg PUBLIC "-//W3C//DTD SVG 20010904//EN"
 "http://www.w3.org/TR/2001/REC-SVG-20010904/DTD/svg10.dtd">
<svg version="1.0" xmlns="http://www.w3.org/2000/svg"
 width="125.000000pt" height="116.000000pt" viewBox="0 0 125.000000 116.000000"
 preserveAspectRatio="xMidYMid meet">
<metadata>
Created by potrace 1.16, written by Peter Selinger 2001-2019
</metadata>
<g transform="translate(0.000000,116.000000) scale(0.100000,-0.100000)"
fill="#000000" stroke="none">
<path d="M669 1137 l-34 -23 -15 -41 -14 -42 10 -48 11 -48 7 -17 8 -17 -37
-7 -36 -6 -131 7 -131 7 6 -114 7 -113 6 -66 7 -66 -79 14 -79 14 -64 -4 -63
-5 -20 -20 -20 -20 -5 -43 -5 -44 24 -34 23 -34 28 -21 28 -21 67 1 67 1 32 8
31 7 12 -23 12 -22 -3 -141 -4 -141 135 -7 135 -8 53 6 54 6 19 19 19 19 0 16
0 15 -20 44 -20 43 12 34 11 33 20 23 20 22 14 0 14 0 29 -15 29 -15 6 -21 7
-21 -11 -11 -11 -11 0 -32 0 -32 26 -16 25 -17 87 -15 87 -15 78 -21 78 -21
10 10 10 10 -15 138 -15 137 -16 24 -15 24 -31 0 -30 0 -22 -15 -22 -14 -42
19 -43 19 -20 33 -20 33 0 37 0 38 25 16 26 17 62 -7 62 -7 52 -6 53 -5 10 28
11 28 5 75 5 76 -8 85 -8 85 -155 -3 -155 -3 -24 19 -25 20 17 26 17 25 0 36
0 36 -15 28 -14 29 -31 26 -32 26 -57 0 -58 0 -34 -23z"/>
</g>
</svg>
