<?xml version="1.0" standalone="no"?>
<!DOCTYPE svg PUBLIC "-//W3C//DTD SVG 20010904//EN"
 "http://www.w3.org/TR/2001/REC-SVG-20010904/DTD/svg10.dtd">
<svg version="1.0" xmlns="http://www.w3.org/2000/svg"
 width="151.000000pt" height="136.000000pt" viewBox="0 0 151.000000 136.000000"
 preserveAspectRatio="xMidYMid meet">
<metadata>
Created by potrace 1.16, written by Peter Selinger 2001-2019
</metadata>
<g transform="translate(0.000000,136.000000) scale(0.100000,-0.100000)"
fill="#000000" stroke="none">
<path d="M700 1353 l-15 -6 -17 -15 -18 -15 0 -23 0 -22 16 -29 16 -28 -11
-27 -10 -27 -33 -18 -33 -18 -147 -3 -148 -4 2 -151 2 -152 -12 -29 -12 -28
-33 6 -32 6 -82 6 -82 7 -26 -17 -25 -16 0 -58 0 -57 20 -33 20 -33 43 -19 42
-20 18 0 19 0 30 18 30 17 18 -23 18 -22 6 -38 5 -37 12 -113 12 -114 21 6 21
6 149 6 149 7 -7 -24 -7 -24 -6 -66 -5 -65 25 -29 25 -30 77 -3 76 -4 44 16
43 17 16 24 16 24 0 34 0 34 -12 33 -11 33 19 15 19 14 133 -5 132 -5 1 141 0
142 12 35 12 35 35 -3 35 -3 56 -5 57 -6 32 17 32 16 15 36 15 37 -7 43 -6 44
-20 20 -19 19 -22 0 -22 0 -64 -16 -64 -16 -23 12 -23 12 -13 27 -13 26 -4
138 -4 137 -6 0 -7 0 -75 -20 -75 -20 -76 -6 -76 -7 -26 17 -25 17 14 34 14
34 0 47 0 46 -16 34 -17 35 -28 14 -28 15 -33 -1 -33 -1 -15 -5z"/>
</g>
</svg>
