<?xml version="1.0" standalone="no"?>
<!DOCTYPE svg PUBLIC "-//W3C//DTD SVG 20010904//EN"
 "http://www.w3.org/TR/2001/REC-SVG-20010904/DTD/svg10.dtd">
<svg version="1.0" xmlns="http://www.w3.org/2000/svg"
 width="149.000000pt" height="134.000000pt" viewBox="0 0 149.000000 134.000000"
 preserveAspectRatio="xMidYMid meet">
<metadata>
Created by potrace 1.16, written by Peter Selinger 2001-2019
</metadata>
<g transform="translate(0.000000,134.000000) scale(0.100000,-0.100000)"
fill="#000000" stroke="none">
<path d="M691 1327 l-24 -12 -10 -17 -11 -17 19 -34 18 -35 -9 -33 -10 -33
-34 -21 -35 -20 -147 -3 -147 -4 2 -151 1 -152 -12 -29 -12 -29 -48 7 -47 7
-67 6 -67 6 -26 -17 -25 -16 0 -48 0 -47 20 -33 21 -33 46 -21 47 -21 29 17
29 16 19 0 19 0 15 -24 16 -24 14 -128 15 -129 0 -15 0 -16 78 8 77 7 98 0 97
1 0 -2 0 -3 -15 -49 -15 -49 0 -38 0 -38 24 -27 23 -28 67 -4 67 -4 44 16 43
17 16 24 16 24 0 26 0 26 -16 37 -15 37 23 19 23 18 133 -4 132 -5 1 141 0
141 12 35 12 35 40 -2 40 -3 55 -5 55 -6 31 20 32 19 12 36 11 35 -11 41 -11
41 -23 10 -23 11 -62 -16 -63 -16 -22 0 -22 0 -22 20 -21 20 -10 37 -11 38 0
117 0 116 -72 -19 -73 -20 -90 -5 -90 -5 -24 19 -24 19 16 42 17 41 0 36 0 36
-16 34 -17 35 -28 14 -28 15 -23 0 -23 0 -24 -13z"/>
</g>
</svg>
