<?xml version="1.0" standalone="no"?>
<!DOCTYPE svg PUBLIC "-//W3C//DTD SVG 20010904//EN"
 "http://www.w3.org/TR/2001/REC-SVG-20010904/DTD/svg10.dtd">
<svg version="1.0" xmlns="http://www.w3.org/2000/svg"
 width="122.000000pt" height="120.000000pt" viewBox="0 0 122.000000 120.000000"
 preserveAspectRatio="xMidYMid meet">
<metadata>
Created by potrace 1.16, written by Peter Selinger 2001-2019
</metadata>
<g transform="translate(0.000000,120.000000) scale(0.100000,-0.100000)"
fill="#000000" stroke="none">
<path d="M591 1186 l-13 -16 16 -65 16 -64 0 -31 0 -31 -14 -32 -13 -32 -21
-18 -21 -19 -34 0 -35 0 -26 23 -26 23 0 20 1 21 14 19 15 20 0 27 0 27 -24
29 -25 29 -38 12 -38 11 -68 6 -67 7 -74 -7 -73 -6 -6 -107 -7 -107 -6 -64 -7
-64 29 7 29 7 112 6 111 6 26 -28 26 -28 0 -47 0 -46 -21 -23 -22 -23 -33 -14
-33 -14 -43 0 -42 0 -59 17 -60 16 -19 -22 -18 -23 0 -58 0 -58 17 -83 16 -84
-1 -33 -2 -32 42 7 43 8 105 -1 105 -1 49 -21 48 -22 -6 -27 -7 -28 -6 -61 -5
-61 23 -17 23 -16 49 0 48 0 29 15 29 15 11 19 10 20 0 22 0 22 -16 18 -16 18
7 11 7 11 25 10 25 9 102 15 101 15 48 11 48 11 19 38 20 39 19 73 20 73 11
58 12 59 20 20 19 19 24 -15 24 -16 21 0 20 0 21 33 20 32 -3 78 -3 79 -28 24
-28 24 -52 0 -52 -1 -40 -14 -40 -15 -13 18 -13 17 3 139 3 140 -75 24 -75 24
-100 5 -101 5 -13 -16z"/>
</g>
</svg>
