<?xml version="1.0" standalone="no"?>
<!DOCTYPE svg PUBLIC "-//W3C//DTD SVG 20010904//EN"
 "http://www.w3.org/TR/2001/REC-SVG-20010904/DTD/svg10.dtd">
<svg version="1.0" xmlns="http://www.w3.org/2000/svg"
 width="94.000000pt" height="95.000000pt" viewBox="0 0 94.000000 95.000000"
 preserveAspectRatio="xMidYMid meet">
<metadata>
Created by potrace 1.16, written by Peter Selinger 2001-2019
</metadata>
<g transform="translate(0.000000,95.000000) scale(0.100000,-0.100000)"
fill="#000000" stroke="none">
<path d="M582 940 l-22 -10 -7 -16 -6 -16 18 -50 18 -50 -12 -38 -11 -38 -25
-16 -24 -16 -46 0 -46 0 -20 10 -19 11 0 19 0 20 16 40 16 40 -6 25 -6 25 -32
16 -32 17 -111 4 -110 4 -45 -8 -45 -9 -6 -39 -7 -40 -7 -127 -8 -128 20 0 19
0 10 10 9 9 74 12 75 11 37 -11 38 -12 16 -22 15 -21 0 -74 0 -73 -15 -29 -15
-29 -19 -6 -19 -6 -43 16 -44 15 -27 0 -28 0 -15 -24 -16 -25 -15 -103 -16
-103 -14 -29 -14 -29 0 -12 0 -11 148 -12 147 -12 34 0 34 0 -7 32 -6 33 -10
49 -10 48 11 43 11 43 28 27 28 27 45 5 45 5 26 -25 26 -26 0 -20 0 -20 -10
-6 -10 -6 0 -37 0 -37 21 -13 20 -13 127 -25 127 -26 34 -14 33 -14 19 0 19 0
-2 442 -3 443 -70 12 -70 12 -95 6 -95 5 -23 -10z"/>
</g>
</svg>
