<?xml version="1.0" standalone="no"?>
<!DOCTYPE svg PUBLIC "-//W3C//DTD SVG 20010904//EN"
 "http://www.w3.org/TR/2001/REC-SVG-20010904/DTD/svg10.dtd">
<svg version="1.0" xmlns="http://www.w3.org/2000/svg"
 width="127.000000pt" height="91.000000pt" viewBox="0 0 127.000000 91.000000"
 preserveAspectRatio="xMidYMid meet">
<metadata>
Created by potrace 1.16, written by Peter Selinger 2001-2019
</metadata>
<g transform="translate(0.000000,91.000000) scale(0.100000,-0.100000)"
fill="#000000" stroke="none">
<path d="M273 894 l-6 -16 7 -145 7 -145 -18 7 -18 7 -52 5 -51 6 -35 -7 -35
-6 -25 -24 -26 -24 -11 -42 -11 -41 11 -35 12 -36 32 -19 31 -19 28 0 29 0 30
18 30 17 18 -23 19 -23 6 -52 6 -52 2 -116 2 -116 134 -7 134 -6 63 0 62 0 16
6 16 6 0 19 0 18 -15 56 -14 56 12 37 12 36 28 16 28 15 30 -33 29 -32 0 -29
0 -29 -15 -28 -15 -29 0 -13 0 -13 25 -24 24 -25 194 0 195 0 25 63 25 62 11
53 11 53 0 29 0 29 -12 26 -11 25 -23 6 -23 6 -45 -17 -46 -18 -41 7 -41 7
-39 20 -40 20 -19 32 -20 32 0 50 0 50 13 24 12 24 20 7 20 7 50 -14 50 -14
40 -5 40 -6 20 15 20 15 3 103 4 102 -7 53 -6 54 -455 0 -455 0 -6 -16z"/>
</g>
</svg>
