<?xml version="1.0" standalone="no"?>
<!DOCTYPE svg PUBLIC "-//W3C//DTD SVG 20010904//EN"
 "http://www.w3.org/TR/2001/REC-SVG-20010904/DTD/svg10.dtd">
<svg version="1.0" xmlns="http://www.w3.org/2000/svg"
 width="125.000000pt" height="89.000000pt" viewBox="0 0 125.000000 89.000000"
 preserveAspectRatio="xMidYMid meet">
<metadata>
Created by potrace 1.16, written by Peter Selinger 2001-2019
</metadata>
<g transform="translate(0.000000,89.000000) scale(0.100000,-0.100000)"
fill="#000000" stroke="none">
<path d="M274 879 l-7 -11 8 -154 7 -154 -4 0 -3 0 -40 15 -40 14 -43 1 -44 0
-34 -16 -35 -17 -10 -20 -11 -20 -9 -30 -8 -29 14 -34 13 -33 31 -15 30 -16
19 0 18 0 20 15 19 14 22 1 23 0 16 -24 15 -25 10 -138 10 -138 -5 -26 -5 -26
136 -6 136 -7 56 0 56 0 14 9 13 9 -16 66 -17 66 11 39 11 40 22 16 21 15 22
0 22 0 26 -31 26 -31 0 -38 0 -38 -14 -28 -15 -27 10 -18 9 -19 20 -10 19 -10
179 0 180 0 26 64 25 64 12 65 12 65 -13 31 -12 30 -17 6 -18 5 -39 -16 -39
-16 -51 5 -51 5 -42 22 -42 21 -20 32 -20 32 3 72 3 73 18 17 17 18 39 -1 38
-1 52 -18 52 -17 25 6 25 7 9 25 10 25 0 92 0 92 -6 38 -7 37 -443 0 -443 0
-7 -11z"/>
</g>
</svg>
