<?xml version="1.0" standalone="no"?>
<!DOCTYPE svg PUBLIC "-//W3C//DTD SVG 20010904//EN"
 "http://www.w3.org/TR/2001/REC-SVG-20010904/DTD/svg10.dtd">
<svg version="1.0" xmlns="http://www.w3.org/2000/svg"
 width="143.000000pt" height="138.000000pt" viewBox="0 0 143.000000 138.000000"
 preserveAspectRatio="xMidYMid meet">
<metadata>
Created by potrace 1.16, written by Peter Selinger 2001-2019
</metadata>
<g transform="translate(0.000000,138.000000) scale(0.100000,-0.100000)"
fill="#000000" stroke="none">
<path d="M633 1358 l-20 -23 -12 -34 -11 -34 0 -21 0 -21 15 -29 15 -28 0 -19
0 -18 -22 -13 -23 -13 -180 3 -181 3 4 -105 4 -106 -7 -47 -7 -46 -29 -30 -29
-29 -48 6 -47 6 -25 3 -25 2 -3 -64 -3 -63 18 -20 18 -20 27 -14 27 -14 36 0
35 0 20 12 20 12 12 -12 13 -13 0 -172 0 -172 158 -2 158 -1 25 -16 24 -16 0
-24 0 -24 -16 -12 -15 -13 3 -35 3 -35 28 -21 28 -21 64 0 63 0 21 19 21 19 0
22 0 23 -15 12 -15 12 6 10 6 9 24 9 24 10 123 20 122 21 35 11 35 11 16 14
17 14 15 57 15 57 17 98 17 97 18 23 19 22 12 -12 13 -13 36 0 35 0 21 18 22
17 11 22 11 22 0 46 0 46 -14 34 -15 35 -19 0 -20 0 -35 -15 -36 -15 -28 0
-29 0 -22 16 -22 15 -17 32 -16 32 -1 122 -1 122 -5 3 -5 4 -60 13 -60 12
-102 19 -103 19 -25 17 -25 16 0 13 0 13 15 12 15 12 0 14 0 13 -12 26 -12 26
-27 15 -28 14 -34 0 -34 0 -20 -22z"/>
</g>
</svg>
