<?xml version="1.0" standalone="no"?>
<!DOCTYPE svg PUBLIC "-//W3C//DTD SVG 20010904//EN"
 "http://www.w3.org/TR/2001/REC-SVG-20010904/DTD/svg10.dtd">
<svg version="1.0" xmlns="http://www.w3.org/2000/svg"
 width="141.000000pt" height="136.000000pt" viewBox="0 0 141.000000 136.000000"
 preserveAspectRatio="xMidYMid meet">
<metadata>
Created by potrace 1.16, written by Peter Selinger 2001-2019
</metadata>
<g transform="translate(0.000000,136.000000) scale(0.100000,-0.100000)"
fill="#000000" stroke="none">
<path d="M633 1338 l-21 -23 -12 -41 -12 -40 21 -47 22 -47 -11 -19 -10 -20
-22 -8 -23 -8 -175 3 -175 3 3 -108 3 -108 -6 -44 -7 -44 -29 -30 -29 -29 -53
5 -52 5 -20 3 -20 4 -3 -54 -3 -53 18 -20 18 -20 27 -14 27 -14 26 0 26 0 25
17 25 16 17 -17 17 -17 0 -172 0 -172 157 -1 158 -1 25 -17 25 -16 0 -34 0
-34 -16 -12 -15 -13 3 -25 3 -25 26 -20 27 -19 43 -5 44 -4 24 13 24 13 11 17
10 17 -18 20 -18 20 6 16 5 15 26 10 25 10 123 20 122 21 35 11 35 11 16 14
17 14 15 57 15 57 17 97 17 98 20 25 20 26 24 -16 23 -15 23 0 23 0 21 18 22
17 11 22 11 22 0 36 0 36 -14 34 -15 35 -9 0 -10 0 -35 -15 -36 -15 -38 0 -39
0 -22 16 -22 15 -17 32 -17 32 -2 115 -2 115 -1 13 -1 13 -8 -5 -9 -5 -49 15
-49 15 -107 19 -108 19 -25 17 -25 16 0 21 0 20 15 17 16 17 -13 27 -12 27
-27 15 -28 14 -24 0 -24 0 -20 -22z"/>
</g>
</svg>
