<?xml version="1.0" standalone="no"?>
<!DOCTYPE svg PUBLIC "-//W3C//DTD SVG 20010904//EN"
 "http://www.w3.org/TR/2001/REC-SVG-20010904/DTD/svg10.dtd">
<svg version="1.0" xmlns="http://www.w3.org/2000/svg"
 width="124.000000pt" height="109.000000pt" viewBox="0 0 124.000000 109.000000"
 preserveAspectRatio="xMidYMid meet">
<metadata>
Created by potrace 1.16, written by Peter Selinger 2001-2019
</metadata>
<g transform="translate(0.000000,109.000000) scale(0.100000,-0.100000)"
fill="#000000" stroke="none">
<path d="M110 1081 l-75 -6 -8 -120 -9 -120 7 -42 6 -43 23 -15 23 -15 77 20
77 19 22 -8 23 -9 13 -16 13 -15 5 -40 6 -41 -32 -29 -32 -30 -43 -6 -43 -7
-63 18 -63 17 -19 -22 -18 -23 0 -72 0 -71 15 -95 15 -95 0 -5 0 -5 112 3 113
3 31 -5 30 -6 22 -21 22 -20 0 -46 0 -46 -17 -19 -17 -18 13 -13 12 -12 108
-3 108 -4 37 17 36 17 0 22 -1 21 -13 24 -14 25 5 14 6 14 23 8 24 9 127 16
127 16 6 5 5 6 -4 148 -3 147 12 23 12 22 46 -7 47 -7 38 -5 37 -5 24 6 24 6
31 26 30 25 7 35 6 34 -12 29 -12 29 -28 12 -29 12 -23 -16 -22 -16 -29 0 -29
0 -32 15 -33 16 -23 45 -22 46 -9 77 -9 76 6 49 6 49 -16 -6 -16 -6 -107 -11
-108 -11 -20 -6 -20 -5 -17 -15 -16 -15 14 -40 14 -41 0 -36 0 -37 -21 -18
-22 -18 -31 -9 -31 -9 -55 0 -55 0 -42 20 -42 19 -7 27 -7 28 13 30 13 31 4
31 5 32 -12 21 -11 22 -22 8 -22 9 -60 4 -60 5 -75 -6z"/>
</g>
</svg>
