<?xml version="1.0" standalone="no"?>
<!DOCTYPE svg PUBLIC "-//W3C//DTD SVG 20010904//EN"
 "http://www.w3.org/TR/2001/REC-SVG-20010904/DTD/svg10.dtd">
<svg version="1.0" xmlns="http://www.w3.org/2000/svg"
 width="98.000000pt" height="120.000000pt" viewBox="0 0 98.000000 120.000000"
 preserveAspectRatio="xMidYMid meet">
<metadata>
Created by potrace 1.16, written by Peter Selinger 2001-2019
</metadata>
<g transform="translate(0.000000,120.000000) scale(0.100000,-0.100000)"
fill="#000000" stroke="none">
<path d="M405 1190 l-21 -8 -14 -17 -15 -18 2 -67 2 -67 14 -41 14 -41 -16 -6
-16 -6 -177 7 -178 7 0 -134 0 -134 11 -39 11 -39 28 -29 28 -28 32 0 31 0 36
15 35 15 4 0 3 0 15 -16 16 -15 0 -32 0 -33 -16 -23 -17 -23 -46 7 -46 7 -45
2 -45 1 -12 -26 -12 -25 -6 -175 -6 -174 133 3 133 2 37 10 37 10 20 27 21 26
0 44 0 44 -15 28 -14 29 18 16 18 17 50 5 49 6 28 -33 28 -32 -4 -51 -4 -51
-14 -48 -15 -48 25 -20 25 -20 110 5 110 4 86 17 87 17 5 46 5 47 12 100 11
100 -13 40 -13 40 -24 3 -23 4 -63 -17 -63 -17 -36 12 -36 11 -20 26 -20 26 0
53 0 53 10 26 10 27 23 -6 22 -5 50 -12 51 -12 37 7 37 7 15 29 15 29 0 131 0
131 -12 13 -13 12 -51 16 -52 17 -84 16 -84 17 -25 19 -24 18 18 31 17 32 0
12 0 13 -22 20 -23 21 -40 11 -40 11 -40 -1 -40 0 -20 -9z"/>
</g>
</svg>
