<?xml version="1.0" standalone="no"?>
<!DOCTYPE svg PUBLIC "-//W3C//DTD SVG 20010904//EN"
 "http://www.w3.org/TR/2001/REC-SVG-20010904/DTD/svg10.dtd">
<svg version="1.0" xmlns="http://www.w3.org/2000/svg"
 width="128.000000pt" height="112.000000pt" viewBox="0 0 128.000000 112.000000"
 preserveAspectRatio="xMidYMid meet">
<metadata>
Created by potrace 1.16, written by Peter Selinger 2001-2019
</metadata>
<g transform="translate(0.000000,112.000000) scale(0.100000,-0.100000)"
fill="#000000" stroke="none">
<path d="M340 1114 l-35 -5 0 -159 0 -159 -11 -11 -11 -11 -64 16 -64 15 -47
0 -47 0 -27 -23 -27 -23 -4 -51 -5 -51 12 -36 11 -35 30 -26 31 -25 24 0 25 0
16 15 15 16 22 -14 21 -14 17 -69 18 -69 27 -89 28 -88 139 6 139 7 28 6 28 5
-9 -33 -10 -34 0 -62 0 -63 19 -19 20 -20 46 -7 47 -7 54 6 54 6 35 21 34 21
7 33 6 34 -17 31 -16 32 6 8 5 9 51 11 50 11 113 0 112 0 22 89 22 88 0 76 0
76 -16 15 -15 16 -21 0 -20 0 -28 -17 -29 -16 -53 12 -53 12 -39 22 -39 22
-20 26 -19 26 16 32 16 31 27 6 27 7 45 -13 46 -14 44 0 44 -1 21 28 21 29 0
174 0 174 -11 0 -11 0 -30 -15 -30 -15 -134 -20 -133 -21 -26 -12 -25 -12 -3
-28 -3 -29 16 -18 17 -18 -11 -21 -12 -21 -29 -15 -29 -15 -28 0 -29 0 -23 16
-23 16 5 37 6 36 7 52 7 53 -48 21 -47 21 -117 3 -116 3 -35 -4z"/>
</g>
</svg>
