<?xml version="1.0" standalone="no"?>
<!DOCTYPE svg PUBLIC "-//W3C//DTD SVG 20010904//EN"
 "http://www.w3.org/TR/2001/REC-SVG-20010904/DTD/svg10.dtd">
<svg version="1.0" xmlns="http://www.w3.org/2000/svg"
 width="95.000000pt" height="121.000000pt" viewBox="0 0 95.000000 121.000000"
 preserveAspectRatio="xMidYMid meet">
<metadata>
Created by potrace 1.16, written by Peter Selinger 2001-2019
</metadata>
<g transform="translate(0.000000,121.000000) scale(0.100000,-0.100000)"
fill="#000000" stroke="none">
<path d="M602 1194 l-23 -19 15 -65 16 -65 0 -42 0 -42 -10 -25 -9 -25 -41
-27 -40 -27 -58 6 -59 5 -31 16 -32 16 -5 23 -6 22 16 37 15 37 0 25 0 25 -22
25 -23 26 -55 10 -55 11 -97 -7 -98 -7 0 -162 0 -162 19 -21 18 -22 28 0 27 0
29 17 28 17 27 -15 27 -14 14 -33 14 -34 -11 -34 -12 -34 -20 -14 -20 -14 -26
14 -27 14 -21 0 -21 0 -17 -19 -18 -19 -8 -69 -8 -68 -7 -114 -7 -114 24 6 23
6 156 7 157 7 -14 -54 -15 -54 7 -39 6 -40 27 -26 26 -27 36 -7 37 -6 25 9 26
10 21 41 21 41 6 49 6 49 -16 25 -16 24 16 14 16 13 72 -2 73 -2 88 -15 89
-16 13 0 12 0 0 23 0 22 -19 51 -20 50 -21 92 -22 92 -21 15 -21 15 -23 0 -22
0 -16 -16 -16 -17 -27 20 -27 19 -18 35 -18 34 5 40 5 40 26 22 26 23 27 0 27
0 60 -15 60 -14 28 -1 27 0 10 26 10 25 0 143 0 142 -19 21 -20 21 -78 26 -78
27 -65 6 -65 5 -23 -18z"/>
</g>
</svg>
