<?xml version="1.0" standalone="no"?>
<!DOCTYPE svg PUBLIC "-//W3C//DTD SVG 20010904//EN"
 "http://www.w3.org/TR/2001/REC-SVG-20010904/DTD/svg10.dtd">
<svg version="1.0" xmlns="http://www.w3.org/2000/svg"
 width="93.000000pt" height="119.000000pt" viewBox="0 0 93.000000 119.000000"
 preserveAspectRatio="xMidYMid meet">
<metadata>
Created by potrace 1.16, written by Peter Selinger 2001-2019
</metadata>
<g transform="translate(0.000000,119.000000) scale(0.100000,-0.100000)"
fill="#000000" stroke="none">
<path d="M604 1176 l-22 -15 14 -58 14 -58 0 -52 0 -52 -10 -25 -9 -25 -41
-27 -40 -27 -68 5 -67 5 -32 17 -33 16 -6 26 -7 26 18 53 19 53 -18 27 -17 26
-27 10 -27 11 -65 1 -65 2 -57 -4 -58 -4 0 -152 0 -152 19 -21 18 -22 20 0 19
0 20 15 19 14 26 1 26 0 26 -24 26 -24 6 -34 7 -35 -15 -36 -15 -35 -22 -12
-22 -12 -33 16 -33 16 -9 0 -10 0 -17 -19 -18 -20 -8 -73 -8 -73 -7 -95 -6
-95 88 7 88 6 97 1 97 1 -16 -37 -15 -38 -1 -48 -1 -47 21 -28 20 -27 36 -12
37 -12 25 9 24 9 20 40 20 39 7 40 6 40 -18 31 -18 31 17 17 18 18 82 -2 82
-1 89 -16 90 -16 5 5 4 5 -26 78 -26 77 -16 73 -17 73 -24 15 -23 16 -21 -7
-20 -6 0 -10 0 -9 -21 0 -21 0 -33 33 -33 33 -7 37 -7 37 6 35 7 34 26 21 26
20 33 0 33 0 76 -17 76 -16 12 12 12 12 3 147 3 147 -20 21 -20 22 -80 27 -80
26 -53 5 -53 6 -21 -16z"/>
</g>
</svg>
