<?xml version="1.0" standalone="no"?>
<!DOCTYPE svg PUBLIC "-//W3C//DTD SVG 20010904//EN"
 "http://www.w3.org/TR/2001/REC-SVG-20010904/DTD/svg10.dtd">
<svg version="1.0" xmlns="http://www.w3.org/2000/svg"
 width="116.000000pt" height="91.000000pt" viewBox="0 0 116.000000 91.000000"
 preserveAspectRatio="xMidYMid meet">
<metadata>
Created by potrace 1.16, written by Peter Selinger 2001-2019
</metadata>
<g transform="translate(0.000000,91.000000) scale(0.100000,-0.100000)"
fill="#000000" stroke="none">
<path d="M73 903 l-61 -4 -7 -69 -7 -70 7 -62 7 -63 14 -27 14 -27 22 -15 22
-16 49 0 48 0 35 15 35 14 15 -34 14 -34 0 -26 0 -26 -14 -27 -14 -28 -26 -13
-26 -14 -36 19 -35 19 -24 -27 -23 -27 -17 -98 -16 -98 -20 -67 -19 -66 0 -10
0 -9 78 -6 77 -7 79 9 79 9 26 20 26 19 3 36 3 36 -16 25 -16 24 14 34 14 33
24 21 24 22 22 6 22 7 41 -11 41 -11 6 -15 6 -15 -12 -12 -11 -11 0 -43 0 -42
18 -10 18 -10 105 -26 104 -26 57 -26 57 -25 14 5 14 5 7 44 6 43 10 109 10
109 15 24 15 23 13 0 13 0 20 -15 19 -14 23 -1 24 0 29 29 29 29 0 65 0 65
-19 23 -19 23 -38 -16 -39 -17 -28 -6 -27 -5 -21 11 -21 11 -14 33 -14 34 0
134 0 134 -37 7 -38 6 -106 0 -107 0 -23 -19 -23 -19 19 -55 19 -56 -15 -27
-14 -27 -44 -20 -44 -19 -60 4 -60 4 -24 28 -23 27 0 28 0 28 15 49 15 49 0
13 0 12 -117 -2 -118 -2 -62 -3z"/>
</g>
</svg>
