<?xml version="1.0" standalone="no"?>
<!DOCTYPE svg PUBLIC "-//W3C//DTD SVG 20010904//EN"
 "http://www.w3.org/TR/2001/REC-SVG-20010904/DTD/svg10.dtd">
<svg version="1.0" xmlns="http://www.w3.org/2000/svg"
 width="114.000000pt" height="89.000000pt" viewBox="0 0 114.000000 89.000000"
 preserveAspectRatio="xMidYMid meet">
<metadata>
Created by potrace 1.16, written by Peter Selinger 2001-2019
</metadata>
<g transform="translate(0.000000,89.000000) scale(0.100000,-0.100000)"
fill="#000000" stroke="none">
<path d="M74 883 l-62 -4 -7 -64 -7 -64 8 -58 7 -58 13 -27 14 -27 22 -15 22
-16 39 0 38 0 36 15 35 15 10 0 9 0 15 -35 14 -34 0 -36 0 -36 -11 -22 -11
-22 -22 -17 -21 -18 -23 0 -23 0 -23 15 -24 16 -20 -26 -20 -25 -17 -98 -17
-97 -14 -52 -14 -52 -6 -14 -5 -14 73 -6 73 -6 74 9 73 8 27 19 26 20 3 26 3
26 -17 26 -17 26 11 37 12 38 30 29 31 30 52 -1 52 0 23 -12 22 -13 0 -24 0
-24 -10 -6 -10 -6 0 -34 0 -34 18 -10 17 -9 117 -30 117 -31 41 -21 41 -21 8
5 9 6 6 42 6 43 10 109 10 109 15 24 15 23 23 0 23 0 22 -16 22 -15 20 6 19 6
21 26 20 26 0 51 0 52 -16 22 -15 22 -27 -14 -27 -14 -42 -7 -42 -7 -21 12
-22 12 -14 33 -14 34 0 134 0 134 -37 7 -38 6 -96 0 -97 0 -21 -18 -22 -17 15
-37 16 -37 0 -26 0 -26 -16 -24 -16 -24 -43 -17 -44 -16 -67 4 -67 4 -23 28
-24 27 0 38 0 38 15 49 15 49 0 3 0 2 -107 -2 -108 -2 -61 -3z"/>
</g>
</svg>
