<?xml version="1.0" standalone="no"?>
<!DOCTYPE svg PUBLIC "-//W3C//DTD SVG 20010904//EN"
 "http://www.w3.org/TR/2001/REC-SVG-20010904/DTD/svg10.dtd">
<svg version="1.0" xmlns="http://www.w3.org/2000/svg"
 width="122.000000pt" height="97.000000pt" viewBox="0 0 122.000000 97.000000"
 preserveAspectRatio="xMidYMid meet">
<metadata>
Created by potrace 1.16, written by Peter Selinger 2001-2019
</metadata>
<g transform="translate(0.000000,97.000000) scale(0.100000,-0.100000)"
fill="#000000" stroke="none">
<path d="M830 955 l-13 -15 17 -58 16 -58 0 -32 0 -33 -14 -33 -14 -33 -23
-17 -23 -16 -51 0 -51 0 -17 21 -18 21 15 46 16 46 0 33 0 32 -27 15 -28 14
-54 7 -54 7 -113 -7 -114 -7 0 -124 0 -125 -15 -29 -15 -29 -33 -6 -33 -6 -44
15 -45 16 -33 0 -32 0 -10 -26 -10 -26 -2 -67 -2 -68 18 -27 18 -28 33 -14 34
-14 34 0 33 0 52 15 52 16 10 -6 9 -6 10 -34 9 -33 -9 -79 -9 -78 -10 -52 -11
-53 6 -10 6 -10 117 0 117 0 37 10 37 11 21 26 20 26 0 59 0 59 -11 21 -12 21
17 13 17 12 44 7 45 6 39 -22 40 -22 12 -30 12 -29 -11 -19 -12 -19 0 -35 0
-36 33 -14 34 -14 124 -11 124 -10 31 -6 30 -6 -4 144 -3 143 -10 32 -10 32
-19 6 -19 6 -49 -17 -48 -17 -28 7 -29 7 -28 28 -28 28 -7 29 -7 28 14 25 14
25 35 20 35 21 75 -2 75 -3 30 -2 30 -3 -3 110 -3 110 -7 70 -7 70 -60 24 -60
24 -50 13 -50 14 -66 0 -67 0 -12 -15z"/>
</g>
</svg>
