<?xml version="1.0" standalone="no"?>
<!DOCTYPE svg PUBLIC "-//W3C//DTD SVG 20010904//EN"
 "http://www.w3.org/TR/2001/REC-SVG-20010904/DTD/svg10.dtd">
<svg version="1.0" xmlns="http://www.w3.org/2000/svg"
 width="120.000000pt" height="95.000000pt" viewBox="0 0 120.000000 95.000000"
 preserveAspectRatio="xMidYMid meet">
<metadata>
Created by potrace 1.16, written by Peter Selinger 2001-2019
</metadata>
<g transform="translate(0.000000,95.000000) scale(0.100000,-0.100000)"
fill="#000000" stroke="none">
<path d="M833 938 l-12 -14 14 -49 15 -48 0 -44 0 -44 -14 -34 -14 -33 -27
-18 -27 -17 -55 1 -56 1 -20 22 -20 22 13 46 13 46 4 32 5 31 -28 15 -29 15
-53 7 -52 7 -105 -7 -105 -7 0 -125 0 -124 -15 -29 -15 -29 -35 -7 -35 -6 -43
12 -42 12 -32 5 -33 5 -10 -26 -10 -27 -1 -60 -2 -61 20 -26 20 -27 41 -15 41
-14 74 18 75 19 10 -7 11 -7 11 -37 10 -38 -10 -88 -11 -89 -9 -40 -9 -41 5
-8 5 -8 107 0 107 0 37 10 37 11 21 26 20 26 0 51 0 52 -17 23 -16 24 22 18
22 18 54 6 54 7 39 -22 40 -23 11 -24 11 -24 0 -24 0 -24 -10 -6 -10 -6 0 -30
0 -30 33 -14 34 -14 129 -11 129 -11 15 -4 15 -5 -3 128 -2 127 -10 36 -10 37
-15 6 -15 5 -34 -14 -35 -15 -33 0 -33 0 -32 20 -32 19 -16 30 -15 30 0 31 0
32 28 28 29 28 44 12 44 12 60 -6 60 -6 20 -3 20 -2 -1 60 0 60 -8 108 -8 107
-26 14 -27 13 -65 23 -65 23 -75 5 -76 4 -11 -14z"/>
</g>
</svg>
