<?xml version="1.0" standalone="no"?>
<!DOCTYPE svg PUBLIC "-//W3C//DTD SVG 20010904//EN"
 "http://www.w3.org/TR/2001/REC-SVG-20010904/DTD/svg10.dtd">
<svg version="1.0" xmlns="http://www.w3.org/2000/svg"
 width="114.000000pt" height="91.000000pt" viewBox="0 0 114.000000 91.000000"
 preserveAspectRatio="xMidYMid meet">
<metadata>
Created by potrace 1.16, written by Peter Selinger 2001-2019
</metadata>
<g transform="translate(0.000000,91.000000) scale(0.100000,-0.100000)"
fill="#000000" stroke="none">
<path d="M631 900 l-23 -10 5 -23 5 -22 12 -30 12 -30 -15 -37 -15 -36 -24
-16 -24 -16 -50 -9 -50 -10 -40 9 -39 9 -18 23 -19 22 5 46 6 45 6 32 7 31
-38 11 -39 11 -90 0 -90 0 -52 -6 -51 -7 -6 -46 -6 -46 9 -76 9 -77 22 -46 23
-45 33 -16 32 -15 29 0 29 0 22 16 23 16 29 -12 28 -12 12 -29 12 -29 -6 -34
-7 -35 -30 -25 -31 -26 -24 -6 -25 -6 -42 6 -42 6 -39 6 -39 7 -14 -19 -13
-18 1 -125 1 -126 7 -25 7 -25 139 -12 140 -11 44 -1 43 -1 -8 27 -9 28 1 65
1 65 23 48 22 48 21 14 21 15 17 0 16 0 27 -21 27 -22 10 -25 10 -25 -16 -24
-16 -24 3 -22 3 -22 27 -13 26 -12 109 -20 108 -19 57 -20 56 -19 6 76 6 77 9
88 8 88 18 19 18 20 10 0 9 0 33 -16 33 -16 22 12 22 12 15 35 15 36 -7 35 -6
34 -26 24 -26 24 -26 0 -26 -1 -19 -14 -20 -15 -19 0 -20 0 -18 22 -19 21 0
152 0 153 -17 6 -17 7 -111 5 -110 4 -24 -10z"/>
</g>
</svg>
