<?xml version="1.0" standalone="no"?>
<!DOCTYPE svg PUBLIC "-//W3C//DTD SVG 20010904//EN"
 "http://www.w3.org/TR/2001/REC-SVG-20010904/DTD/svg10.dtd">
<svg version="1.0" xmlns="http://www.w3.org/2000/svg"
 width="122.000000pt" height="113.000000pt" viewBox="0 0 122.000000 113.000000"
 preserveAspectRatio="xMidYMid meet">
<metadata>
Created by potrace 1.16, written by Peter Selinger 2001-2019
</metadata>
<g transform="translate(0.000000,113.000000) scale(0.100000,-0.100000)"
fill="#000000" stroke="none">
<path d="M72 1123 l-72 -4 0 -451 0 -450 23 5 22 6 145 6 145 7 27 -10 26 -11
-14 -47 -14 -47 0 -39 0 -39 10 -18 9 -19 43 -6 43 -6 40 10 40 9 27 31 28 30
0 24 0 24 -15 12 -15 12 6 10 6 9 25 10 26 9 101 10 101 10 53 11 54 11 -6 21
-6 22 -16 109 -16 110 12 39 11 39 22 -7 22 -7 62 -5 61 -5 34 11 35 11 29 31
29 30 -1 54 0 53 -13 16 -13 16 -42 11 -41 11 -83 -11 -83 -12 -11 7 -11 7 8
162 7 163 -11 6 -10 6 -43 -9 -43 -10 -110 -11 -110 -12 -32 -14 -33 -13 0
-24 0 -24 16 -33 17 -33 -19 -35 -19 -35 -31 -13 -31 -13 -36 6 -36 5 -22 24
-23 25 13 42 14 42 1 49 1 49 -25 18 -25 19 -95 4 -95 3 -73 -4z"/>
</g>
</svg>
