<?xml version="1.0" standalone="no"?>
<!DOCTYPE svg PUBLIC "-//W3C//DTD SVG 20010904//EN"
 "http://www.w3.org/TR/2001/REC-SVG-20010904/DTD/svg10.dtd">
<svg version="1.0" xmlns="http://www.w3.org/2000/svg"
 width="300.000000pt" height="348.000000pt" viewBox="0 0 300.000000 348.000000"
 preserveAspectRatio="xMidYMid meet">
<metadata>
Created by potrace 1.16, written by Peter Selinger 2001-2019
</metadata>
<g transform="translate(0.000000,348.000000) scale(0.100000,-0.100000)"
fill="#000000" stroke="none">
<path d="M1294 3469 l-71 -8 -55 -21 -54 -20 -34 -33 -33 -32 -26 -55 -26 -55
0 -175 1 -175 28 -150 28 -150 12 -8 11 -9 -110 6 -110 6 -255 25 -255 25
-143 7 -144 6 -9 -14 -9 -14 0 -95 0 -95 -20 -275 -20 -275 0 -97 0 -97 11
-51 11 -50 15 -15 14 -15 27 0 28 0 19 13 20 14 88 22 87 21 101 12 100 12 70
-12 70 -12 48 -25 49 -24 31 -38 32 -38 14 -49 15 -50 0 -93 0 -94 -16 -77
-16 -77 -26 -55 -27 -54 -43 -33 -43 -32 -42 -12 -42 -11 -56 10 -56 10 -77
31 -78 31 -52 0 -53 0 -34 -23 -34 -23 -22 -55 -22 -55 -11 -67 -10 -66 -10
-228 -10 -228 -11 -88 -12 -87 6 -6 6 -6 208 -8 208 -9 160 9 160 9 77 16 76
15 56 20 56 19 44 30 44 30 25 31 26 30 12 54 12 55 -13 63 -12 63 -29 40 -29
40 -11 38 -10 39 7 31 6 32 19 36 18 36 39 41 38 40 52 26 52 26 63 17 62 16
90 -6 90 -6 56 -19 56 -20 34 -17 34 -18 45 -37 45 -38 35 -58 35 -58 0 -66 0
-66 -39 -63 -39 -63 -5 -44 -5 -44 12 -28 12 -29 27 -20 27 -19 43 -17 43 -17
92 -15 92 -14 175 -16 175 -16 115 -15 115 -15 73 -19 72 -20 10 0 10 0 -2
1317 -3 1317 -45 13 -45 13 -110 20 -110 20 -255 25 -255 25 -84 16 -84 15
-47 18 -48 18 -20 19 -19 19 -13 24 -12 23 6 30 6 30 40 60 40 60 0 64 0 65
-24 47 -24 48 -41 37 -40 36 -50 26 -51 25 -62 15 -63 15 -110 -1 -110 -2 -71
-8z"/>
</g>
</svg>
