<?xml version="1.0" standalone="no"?>
<!DOCTYPE svg PUBLIC "-//W3C//DTD SVG 20010904//EN"
 "http://www.w3.org/TR/2001/REC-SVG-20010904/DTD/svg10.dtd">
<svg version="1.0" xmlns="http://www.w3.org/2000/svg"
 width="140.000000pt" height="90.000000pt" viewBox="0 0 140.000000 90.000000"
 preserveAspectRatio="xMidYMid meet">
<metadata>
Created by potrace 1.16, written by Peter Selinger 2001-2019
</metadata>
<g transform="translate(0.000000,90.000000) scale(0.100000,-0.100000)"
fill="#000000" stroke="none">
<path d="M241 766 l1 -135 -12 -36 -12 -35 -18 -10 -19 -10 -39 0 -40 0 -28
15 -29 15 -12 0 -12 0 -11 -19 -10 -20 0 -71 0 -71 15 -29 15 -29 22 -15 22
-16 34 0 33 0 31 16 32 17 24 -29 25 -28 -6 -138 -7 -138 173 0 173 0 23 16
23 16 -5 32 -5 31 -15 65 -16 65 12 24 12 25 30 8 30 9 40 -6 39 -6 33 -20 33
-21 16 -30 15 -30 -15 -23 -16 -24 0 -29 0 -29 19 -17 19 -17 133 -14 134 -15
23 0 23 0 24 53 23 52 27 115 26 115 15 20 14 20 20 -13 20 -12 20 0 19 0 11
19 10 20 0 53 0 53 -19 35 -18 35 -26 3 -26 3 -32 -16 -32 -17 -25 19 -25 19
-15 39 -14 40 0 118 1 117 -465 0 -464 0 1 -134z"/>
</g>
</svg>
