<?xml version="1.0" standalone="no"?>
<!DOCTYPE svg PUBLIC "-//W3C//DTD SVG 20010904//EN"
 "http://www.w3.org/TR/2001/REC-SVG-20010904/DTD/svg10.dtd">
<svg version="1.0" xmlns="http://www.w3.org/2000/svg"
 width="138.000000pt" height="88.000000pt" viewBox="0 0 138.000000 88.000000"
 preserveAspectRatio="xMidYMid meet">
<metadata>
Created by potrace 1.16, written by Peter Selinger 2001-2019
</metadata>
<g transform="translate(0.000000,88.000000) scale(0.100000,-0.100000)"
fill="#000000" stroke="none">
<path d="M242 747 l1 -133 -12 -37 -13 -37 -18 -10 -19 -10 -49 0 -50 0 -28
15 -29 15 -13 -17 -12 -17 0 -65 0 -66 20 -32 19 -32 22 -11 21 -12 27 5 26 5
33 13 34 14 25 -30 26 -29 -6 -138 -5 -138 163 0 163 0 23 19 24 19 -12 34
-11 33 -12 57 -11 58 13 27 13 27 30 8 30 9 49 -5 49 -5 37 -25 37 -24 13 -33
14 -32 -17 -29 -17 -30 0 -17 0 -18 19 -17 19 -17 133 -14 134 -15 12 0 13 0
20 40 21 40 30 126 30 125 12 20 12 19 18 0 17 0 21 -12 20 -13 15 19 14 20 0
46 0 45 -19 35 -19 35 -23 -1 -24 -1 -32 -14 -33 -13 -26 20 -27 20 -15 39
-14 40 -1 118 0 117 -453 0 -454 0 2 -133z"/>
</g>
</svg>
