<?xml version="1.0" standalone="no"?>
<!DOCTYPE svg PUBLIC "-//W3C//DTD SVG 20010904//EN"
 "http://www.w3.org/TR/2001/REC-SVG-20010904/DTD/svg10.dtd">
<svg version="1.0" xmlns="http://www.w3.org/2000/svg"
 width="94.000000pt" height="93.000000pt" viewBox="0 0 94.000000 93.000000"
 preserveAspectRatio="xMidYMid meet">
<metadata>
Created by potrace 1.16, written by Peter Selinger 2001-2019
</metadata>
<g transform="translate(0.000000,93.000000) scale(0.100000,-0.100000)"
fill="#000000" stroke="none">
<path d="M80 921 l-75 -6 -3 -434 -2 -435 7 -7 8 -7 136 -7 137 -8 56 7 57 8
15 23 15 23 -20 72 -20 72 10 20 10 19 22 8 22 8 28 -9 28 -10 25 -34 26 -33
5 -41 6 -40 -12 0 -11 0 0 -39 0 -40 11 -7 11 -7 37 -8 36 -8 142 11 142 11 0
21 0 21 7 125 7 126 -12 22 -12 22 -20 0 -21 0 -53 -15 -53 -16 -36 15 -36 15
-20 33 -20 33 0 55 0 56 15 21 15 21 27 7 27 6 74 -17 73 -17 17 17 17 17 0
159 0 158 -6 6 -6 6 -49 -10 -49 -10 -104 -10 -103 -10 -27 -13 -26 -12 -3
-23 -4 -24 17 -18 16 -18 -28 -32 -28 -31 -35 -7 -35 -7 -28 3 -28 3 -11 25
-12 25 19 75 18 75 -12 12 -12 12 -117 1 -117 1 -75 -6z"/>
</g>
</svg>
