<?xml version="1.0" standalone="no"?>
<!DOCTYPE svg PUBLIC "-//W3C//DTD SVG 20010904//EN"
 "http://www.w3.org/TR/2001/REC-SVG-20010904/DTD/svg10.dtd">
<svg version="1.0" xmlns="http://www.w3.org/2000/svg"
 width="122.000000pt" height="120.000000pt" viewBox="0 0 122.000000 120.000000"
 preserveAspectRatio="xMidYMid meet">
<metadata>
Created by potrace 1.16, written by Peter Selinger 2001-2019
</metadata>
<g transform="translate(0.000000,120.000000) scale(0.100000,-0.100000)"
fill="#000000" stroke="none">
<path d="M439 1173 l-32 -27 -13 -33 -14 -32 0 -43 0 -44 16 -22 15 -22 -7
-11 -7 -12 -157 7 -157 6 -17 -6 -16 -6 0 -119 0 -118 11 -50 11 -51 26 -21
27 -21 50 4 50 4 16 8 15 7 12 -26 12 -26 0 -28 0 -28 -23 -34 -23 -34 -36
-20 -37 -19 -34 12 -33 12 -37 0 -37 0 -11 -27 -11 -28 5 -61 4 -60 19 -75 18
-74 3 -4 2 -4 179 -4 179 -5 36 16 37 15 0 35 0 34 -16 29 -16 28 15 37 15 36
25 17 25 16 34 -14 34 -14 27 -32 26 -32 12 -38 12 -39 -17 -23 -16 -23 0 -28
0 -27 23 -13 22 -12 71 1 72 1 80 17 80 18 25 46 24 46 28 112 27 112 13 18
14 18 20 -13 21 -12 15 0 14 0 10 18 9 17 7 48 7 47 -6 44 -7 44 -25 27 -25
27 -72 -4 -72 -5 -15 -4 -15 -4 4 138 3 137 -6 23 -5 23 -38 21 -38 21 -98 26
-98 26 -25 16 -24 16 0 7 0 7 15 20 14 19 1 18 0 18 -42 19 -43 20 -67 0 -66
0 -33 -27z"/>
</g>
</svg>
