<?xml version="1.0" standalone="no"?>
<!DOCTYPE svg PUBLIC "-//W3C//DTD SVG 20010904//EN"
 "http://www.w3.org/TR/2001/REC-SVG-20010904/DTD/svg10.dtd">
<svg version="1.0" xmlns="http://www.w3.org/2000/svg"
 width="120.000000pt" height="118.000000pt" viewBox="0 0 120.000000 118.000000"
 preserveAspectRatio="xMidYMid meet">
<metadata>
Created by potrace 1.16, written by Peter Selinger 2001-2019
</metadata>
<g transform="translate(0.000000,118.000000) scale(0.100000,-0.100000)"
fill="#000000" stroke="none">
<path d="M439 1153 l-32 -27 -13 -33 -14 -32 0 -32 0 -31 16 -28 17 -28 -7
-17 -7 -18 -159 6 -160 6 -15 -5 -15 -6 0 -109 0 -108 11 -50 11 -51 26 -21
27 -21 40 5 40 5 26 7 25 7 12 -27 12 -26 0 -37 0 -37 -20 -33 -20 -32 -32
-21 -33 -20 -40 6 -40 5 -37 6 -38 6 -11 -28 -11 -29 6 -61 6 -62 20 -58 19
-58 -5 -8 -5 -8 8 0 8 -1 165 -5 166 -6 37 15 37 16 0 25 0 24 -17 31 -18 30
15 42 15 42 26 20 27 19 31 -7 31 -7 32 -26 31 -26 18 -41 19 -40 -1 -25 0
-25 -14 -19 -15 -20 0 -18 0 -17 23 -12 22 -12 63 1 63 1 79 17 78 17 25 46
24 46 23 95 23 95 13 32 13 33 23 0 24 0 13 -12 12 -13 14 18 13 18 7 45 6 46
-6 38 -7 39 -24 27 -25 26 -62 -5 -62 -6 -25 -3 -25 -3 3 139 3 139 -5 21 -5
22 -38 21 -38 21 -98 26 -98 26 -25 16 -24 16 0 17 0 17 15 20 14 19 1 8 0 8
-42 19 -43 20 -57 0 -56 0 -33 -27z"/>
</g>
</svg>
