<?xml version="1.0" standalone="no"?>
<!DOCTYPE svg PUBLIC "-//W3C//DTD SVG 20010904//EN"
 "http://www.w3.org/TR/2001/REC-SVG-20010904/DTD/svg10.dtd">
<svg version="1.0" xmlns="http://www.w3.org/2000/svg"
 width="92.000000pt" height="136.000000pt" viewBox="0 0 92.000000 136.000000"
 preserveAspectRatio="xMidYMid meet">
<metadata>
Created by potrace 1.16, written by Peter Selinger 2001-2019
</metadata>
<g transform="translate(0.000000,136.000000) scale(0.100000,-0.100000)"
fill="#000000" stroke="none">
<path d="M412 1350 l-22 -9 -11 -24 -11 -24 20 -72 19 -72 -16 -21 -17 -20
-90 -5 -89 -4 -97 8 -98 9 0 -439 0 -438 169 3 170 3 12 -12 12 -12 -17 -41
-16 -40 0 -41 0 -40 10 -19 10 -18 31 -11 32 -11 34 0 35 0 35 17 35 16 11 24
10 23 -16 18 -17 19 0 17 0 17 33 13 32 14 85 11 85 12 66 16 66 16 7 81 6 81
0 78 0 79 -16 34 -16 34 -22 0 -21 -1 -60 -14 -60 -14 -37 10 -37 9 -20 27
-21 26 0 17 0 17 20 26 21 26 32 6 32 6 50 -11 50 -10 32 -6 32 -6 18 18 18
18 0 162 0 163 -10 9 -10 10 -60 -9 -60 -9 -90 -2 -90 -2 -22 12 -23 13 0 29
0 28 12 4 11 4 -1 33 -1 32 -19 37 -18 36 -25 17 -24 18 -25 5 -25 5 -23 -9z"/>
</g>
</svg>
