<?xml version="1.0" standalone="no"?>
<!DOCTYPE svg PUBLIC "-//W3C//DTD SVG 20010904//EN"
 "http://www.w3.org/TR/2001/REC-SVG-20010904/DTD/svg10.dtd">
<svg version="1.0" xmlns="http://www.w3.org/2000/svg"
 width="118.000000pt" height="96.000000pt" viewBox="0 0 118.000000 96.000000"
 preserveAspectRatio="xMidYMid meet">
<metadata>
Created by potrace 1.16, written by Peter Selinger 2001-2019
</metadata>
<g transform="translate(0.000000,96.000000) scale(0.100000,-0.100000)"
fill="#000000" stroke="none">
<path d="M322 953 l-64 -4 7 -133 8 -133 -13 -37 -12 -37 -16 6 -15 6 -68 11
-69 12 -27 -10 -28 -9 -13 -25 -13 -25 4 -71 4 -72 19 -33 20 -34 27 -3 27 -3
0 10 0 11 23 0 22 0 14 -22 14 -22 27 -105 28 -106 13 -35 13 -36 160 1 161 1
30 15 30 14 13 28 14 29 -17 51 -17 51 18 13 18 13 33 0 32 0 35 -16 34 -17
21 -37 21 -38 0 -25 0 -26 -10 -6 -10 -6 0 -39 0 -39 22 -12 21 -11 76 4 76 5
83 23 84 23 -6 30 -6 30 0 419 0 420 -32 -6 -33 -6 -131 -9 -132 -10 -26 -12
-26 -12 0 -33 0 -33 10 -6 10 -6 0 -29 0 -29 -26 -20 -27 -21 -62 0 -62 0 -15
18 -15 17 -6 18 -7 18 15 77 15 77 0 8 0 7 -117 -2 -118 -2 -63 -3z"/>
</g>
</svg>
