<?xml version="1.0" standalone="no"?>
<!DOCTYPE svg PUBLIC "-//W3C//DTD SVG 20010904//EN"
 "http://www.w3.org/TR/2001/REC-SVG-20010904/DTD/svg10.dtd">
<svg version="1.0" xmlns="http://www.w3.org/2000/svg"
 width="116.000000pt" height="94.000000pt" viewBox="0 0 116.000000 94.000000"
 preserveAspectRatio="xMidYMid meet">
<metadata>
Created by potrace 1.16, written by Peter Selinger 2001-2019
</metadata>
<g transform="translate(0.000000,94.000000) scale(0.100000,-0.100000)"
fill="#000000" stroke="none">
<path d="M322 933 l-62 -4 6 -133 7 -132 -13 -38 -12 -38 -27 6 -26 6 -66 12
-67 12 -25 -17 -26 -17 -7 -36 -7 -36 7 -44 6 -44 15 -31 16 -30 16 -6 17 -7
4 12 4 12 32 0 33 0 16 -32 17 -33 20 -88 20 -87 19 -39 20 -38 98 -7 98 -7
69 10 68 10 18 16 18 16 5 18 4 18 -13 39 -14 39 0 17 0 17 19 11 20 10 40 0
40 0 34 -16 34 -16 17 -30 18 -29 8 -29 8 -28 -14 -27 -14 -27 0 -24 0 -23 22
-12 21 -11 66 4 66 5 83 23 83 23 -5 14 -6 15 0 424 0 425 -17 -5 -18 -5 -136
-10 -136 -10 -27 -12 -26 -12 0 -23 0 -23 10 -6 10 -6 0 -39 0 -39 -26 -20
-27 -21 -72 0 -72 0 -15 18 -16 17 -6 22 -7 22 11 63 11 63 5 18 5 17 -108 -2
-108 -2 -63 -3z"/>
</g>
</svg>
