<?xml version="1.0" standalone="no"?>
<!DOCTYPE svg PUBLIC "-//W3C//DTD SVG 20010904//EN"
 "http://www.w3.org/TR/2001/REC-SVG-20010904/DTD/svg10.dtd">
<svg version="1.0" xmlns="http://www.w3.org/2000/svg"
 width="113.000000pt" height="134.000000pt" viewBox="0 0 113.000000 134.000000"
 preserveAspectRatio="xMidYMid meet">
<metadata>
Created by potrace 1.16, written by Peter Selinger 2001-2019
</metadata>
<g transform="translate(0.000000,134.000000) scale(0.100000,-0.100000)"
fill="#000000" stroke="none">
<path d="M358 1311 l-33 -29 1 -59 1 -58 13 -39 12 -38 -13 -10 -14 -9 -110 6
-110 6 -46 5 -46 6 -6 -62 -7 -63 0 -82 0 -82 6 -6 7 -6 28 14 28 15 58 0 58
0 39 -23 40 -22 19 -33 20 -34 0 -52 0 -51 -17 -33 -16 -32 -31 -15 -31 -16
-23 15 -24 16 -14 0 -15 0 -10 -13 -11 -13 -31 -114 -31 -115 -20 -34 -20 -34
143 7 143 7 17 -6 17 -7 -20 -41 -21 -40 11 -39 12 -39 41 -29 41 -30 47 0 47
0 21 23 21 22 13 48 12 47 -18 34 -18 34 6 11 7 10 39 11 40 11 107 -11 108
-11 31 -5 32 -6 5 9 6 9 -19 58 -20 58 -6 62 -6 61 11 29 11 28 43 -6 42 -6
35 -6 35 -5 33 20 32 21 20 32 20 33 0 37 0 37 -12 26 -12 27 -25 -7 -26 -7
-40 -5 -40 -5 -27 21 -27 21 -11 56 -12 55 4 114 3 114 -65 29 -65 29 -70 18
-70 18 -27 14 -28 14 0 29 0 29 10 6 10 6 0 10 0 10 -35 15 -34 14 -71 0 -70
0 -32 -29z"/>
</g>
</svg>
