<?xml version="1.0" standalone="no"?>
<!DOCTYPE svg PUBLIC "-//W3C//DTD SVG 20010904//EN"
 "http://www.w3.org/TR/2001/REC-SVG-20010904/DTD/svg10.dtd">
<svg version="1.0" xmlns="http://www.w3.org/2000/svg"
 width="141.000000pt" height="96.000000pt" viewBox="0 0 141.000000 96.000000"
 preserveAspectRatio="xMidYMid meet">
<metadata>
Created by potrace 1.16, written by Peter Selinger 2001-2019
</metadata>
<g transform="translate(0.000000,96.000000) scale(0.100000,-0.100000)"
fill="#000000" stroke="none">
<path d="M220 850 l0 -111 -15 -36 -15 -36 -26 -23 -25 -24 -35 0 -34 0 -21
13 -20 12 -15 -19 -14 -20 0 -67 0 -66 21 -27 21 -27 38 -19 38 -19 41 -7 41
-7 24 17 25 16 11 0 11 0 14 -33 14 -34 -14 -66 -14 -67 -20 -46 -21 -47 0
-18 0 -19 103 0 102 0 39 11 39 11 29 28 28 28 0 56 0 56 -12 20 -13 20 11 18
11 17 24 12 24 13 47 0 46 0 32 -26 31 -27 19 -37 19 -38 7 -39 6 -39 -16 -38
-16 -38 0 -24 0 -24 25 -16 26 -17 72 6 73 5 70 24 69 24 -1 30 -1 29 -28 64
-27 65 -5 55 -5 56 15 20 15 20 34 -13 34 -12 63 0 62 0 32 14 32 14 29 31 29
31 5 54 4 54 -21 21 -21 21 -22 0 -23 0 -72 -17 -72 -16 -15 12 -14 12 -13 51
-12 51 7 130 7 130 -23 -7 -23 -6 -123 -15 -122 -16 -24 -9 -24 -9 -7 -20 -6
-20 15 -30 16 -30 0 -9 0 -10 -36 -17 -37 -17 -98 4 -98 4 -7 7 -8 7 12 12 12
12 0 57 0 58 -17 16 -16 17 -24 9 -24 9 -130 0 -129 0 0 -110z"/>
</g>
</svg>
