<?xml version="1.0" standalone="no"?>
<!DOCTYPE svg PUBLIC "-//W3C//DTD SVG 20010904//EN"
 "http://www.w3.org/TR/2001/REC-SVG-20010904/DTD/svg10.dtd">
<svg version="1.0" xmlns="http://www.w3.org/2000/svg"
 width="139.000000pt" height="94.000000pt" viewBox="0 0 139.000000 94.000000"
 preserveAspectRatio="xMidYMid meet">
<metadata>
Created by potrace 1.16, written by Peter Selinger 2001-2019
</metadata>
<g transform="translate(0.000000,94.000000) scale(0.100000,-0.100000)"
fill="#000000" stroke="none">
<path d="M220 830 l0 -111 -15 -36 -15 -36 -26 -23 -25 -24 -49 0 -49 0 -7 12
-7 11 -14 -18 -13 -19 0 -57 0 -56 21 -27 21 -27 36 -18 37 -19 33 -7 33 -7
24 16 24 16 21 0 21 0 15 -36 15 -35 -11 -62 -12 -62 -24 -61 -24 -61 0 -6 0
-7 93 0 92 0 39 11 39 11 29 28 28 28 0 45 0 45 -15 28 -14 28 13 21 13 20 24
12 24 13 57 0 56 0 32 -26 31 -27 20 -38 19 -39 6 -44 7 -45 -19 -51 -19 -52
25 -20 25 -20 66 5 66 6 69 23 69 24 -2 20 -1 19 -27 65 -28 65 -5 61 -4 61
12 22 12 23 36 -7 37 -6 54 -6 55 -5 36 11 36 10 33 35 33 34 5 45 5 45 -22
22 -22 22 -26 -5 -27 -4 -63 -14 -63 -13 -17 10 -17 11 -13 44 -14 44 6 138 5
138 -8 -5 -8 -5 -127 -16 -126 -16 -24 -9 -23 -8 -6 -14 -5 -14 14 -25 13 -24
1 -21 0 -22 -36 -17 -37 -17 -108 4 -108 3 -12 12 -13 13 17 18 17 19 0 46 0
46 -17 16 -16 17 -24 9 -24 9 -120 0 -119 0 0 -110z"/>
</g>
</svg>
