<?xml version="1.0" standalone="no"?>
<!DOCTYPE svg PUBLIC "-//W3C//DTD SVG 20010904//EN"
 "http://www.w3.org/TR/2001/REC-SVG-20010904/DTD/svg10.dtd">
<svg version="1.0" xmlns="http://www.w3.org/2000/svg"
 width="95.000000pt" height="117.000000pt" viewBox="0 0 95.000000 117.000000"
 preserveAspectRatio="xMidYMid meet">
<metadata>
Created by potrace 1.16, written by Peter Selinger 2001-2019
</metadata>
<g transform="translate(0.000000,117.000000) scale(0.100000,-0.100000)"
fill="#000000" stroke="none">
<path d="M17 1073 l-7 -98 0 -62 0 -62 10 -6 10 -6 46 16 47 16 29 -6 28 -7
30 -15 30 -15 11 -20 11 -21 8 -28 9 -29 -32 -34 -32 -33 -53 -13 -53 -12 -18
16 -18 16 -27 0 -26 0 -10 -26 -10 -25 0 -71 0 -72 11 -90 11 -91 9 -9 8 -9
176 13 176 13 3 -4 3 -4 -10 -70 -10 -70 7 -47 7 -48 25 -30 26 -30 43 0 44 0
28 11 28 10 27 28 27 28 11 27 10 27 0 59 0 59 -11 25 -12 25 13 16 12 15 42
0 42 0 83 -21 83 -21 10 10 10 10 -20 54 -20 53 -17 85 -17 85 -15 29 -15 29
-48 -6 -48 -6 -6 31 -6 31 0 24 0 24 15 28 14 29 30 10 30 11 55 -16 55 -16
16 6 15 6 0 109 0 109 -7 77 -6 78 -31 -6 -31 -6 -124 -10 -123 -10 -27 -13
-26 -12 2 -35 2 -35 7 -38 6 -37 -16 -24 -15 -24 -36 -12 -36 -12 -37 7 -37 6
-23 16 -24 15 6 34 6 34 6 35 6 35 -6 26 -7 25 -42 19 -42 20 -136 0 -136 0
-6 -97z"/>
</g>
</svg>
