<?xml version="1.0" standalone="no"?>
<!DOCTYPE svg PUBLIC "-//W3C//DTD SVG 20010904//EN"
 "http://www.w3.org/TR/2001/REC-SVG-20010904/DTD/svg10.dtd">
<svg version="1.0" xmlns="http://www.w3.org/2000/svg"
 width="151.000000pt" height="119.000000pt" viewBox="0 0 151.000000 119.000000"
 preserveAspectRatio="xMidYMid meet">
<metadata>
Created by potrace 1.16, written by Peter Selinger 2001-2019
</metadata>
<g transform="translate(0.000000,119.000000) scale(0.100000,-0.100000)"
fill="#000000" stroke="none">
<path d="M630 1177 l-24 -12 -15 -26 -14 -26 16 -33 17 -33 0 -34 0 -35 -28
-28 -29 -28 -39 -11 -39 -11 -102 0 -102 0 2 -158 2 -158 -18 -28 -18 -28 -17
7 -17 7 -43 10 -44 10 -33 -6 -34 -7 -20 -17 -21 -17 -6 -43 -7 -42 36 -34 36
-34 41 -7 41 -7 18 16 18 16 6 0 7 0 15 -24 16 -24 14 -140 14 -140 6 -25 7
-25 121 3 122 3 35 14 35 15 14 16 13 17 5 43 5 43 -17 39 -16 40 30 27 30 27
46 7 47 7 38 -12 38 -11 13 -16 13 -16 -12 -19 -12 -19 0 -35 0 -34 28 -15 29
-15 89 -21 89 -22 67 -30 67 -31 15 6 15 6 15 30 16 29 30 114 31 113 13 13
13 13 31 -18 30 -17 36 16 35 17 17 33 17 33 1 61 0 61 -20 34 -20 34 -40 23
-39 22 -75 -3 -75 -3 -19 -9 -19 -8 6 146 7 147 -13 0 -13 0 -42 -20 -41 -20
-63 -15 -63 -15 -31 0 -32 0 -21 18 -22 17 17 40 16 40 -5 56 -5 55 -20 41
-21 40 -31 27 -32 26 -66 0 -67 0 -25 -13z"/>
</g>
</svg>
