<?xml version="1.0" standalone="no"?>
<!DOCTYPE svg PUBLIC "-//W3C//DTD SVG 20010904//EN"
 "http://www.w3.org/TR/2001/REC-SVG-20010904/DTD/svg10.dtd">
<svg version="1.0" xmlns="http://www.w3.org/2000/svg"
 width="149.000000pt" height="117.000000pt" viewBox="0 0 149.000000 117.000000"
 preserveAspectRatio="xMidYMid meet">
<metadata>
Created by potrace 1.16, written by Peter Selinger 2001-2019
</metadata>
<g transform="translate(0.000000,117.000000) scale(0.100000,-0.100000)"
fill="#000000" stroke="none">
<path d="M631 1157 l-24 -12 -13 -20 -13 -21 14 -28 15 -28 0 -45 0 -45 -28
-28 -29 -28 -39 -11 -39 -11 -101 0 -102 0 2 -158 1 -158 -18 -28 -19 -28 -21
5 -22 6 -45 11 -45 11 -36 -10 -37 -11 -10 -13 -10 -12 -7 -33 -7 -33 35 -33
35 -33 33 -7 32 -6 17 15 17 15 16 0 17 0 15 -24 16 -24 14 -140 14 -140 6
-24 6 -23 112 1 112 2 30 12 30 11 17 16 18 16 6 33 6 34 -18 50 -18 50 24 25
24 25 35 10 36 10 38 0 38 0 34 -14 33 -14 12 -22 12 -22 -16 -17 -16 -18 0
-26 0 -26 28 -15 27 -14 103 -26 103 -26 51 -26 52 -26 18 22 18 22 19 67 20
66 18 64 18 64 17 11 18 11 29 -18 30 -18 31 16 30 15 16 32 17 33 0 51 0 52
-20 34 -19 33 -40 22 -39 23 -58 0 -58 0 -30 -15 -29 -16 -7 17 -6 16 6 134 6
134 -3 0 -2 0 -42 -20 -41 -20 -63 -15 -63 -15 -41 0 -42 0 -23 19 -24 19 19
52 19 51 -7 45 -6 44 -19 39 -20 38 -31 27 -32 26 -56 0 -57 0 -24 -13z"/>
</g>
</svg>
