<?xml version="1.0" standalone="no"?>
<!DOCTYPE svg PUBLIC "-//W3C//DTD SVG 20010904//EN"
 "http://www.w3.org/TR/2001/REC-SVG-20010904/DTD/svg10.dtd">
<svg version="1.0" xmlns="http://www.w3.org/2000/svg"
 width="125.000000pt" height="140.000000pt" viewBox="0 0 125.000000 140.000000"
 preserveAspectRatio="xMidYMid meet">
<metadata>
Created by potrace 1.16, written by Peter Selinger 2001-2019
</metadata>
<g transform="translate(0.000000,140.000000) scale(0.100000,-0.100000)"
fill="#000000" stroke="none">
<path d="M665 1393 l-20 -5 -12 -10 -13 -10 0 -23 0 -23 15 -35 15 -36 0 -34
0 -34 -21 -26 -20 -27 -38 -11 -38 -11 -121 3 -122 4 0 -123 0 -123 -14 -34
-15 -35 -25 -11 -24 -12 -46 7 -46 7 -5 10 -6 9 -27 0 -28 0 -17 -21 -18 -20
-9 -50 -10 -50 9 -41 9 -40 23 -24 22 -24 45 -22 45 -21 57 -1 57 -1 17 14 16
13 15 -12 15 -12 0 -53 0 -52 -20 -78 -20 -79 12 -8 13 -8 131 0 132 0 23 -19
24 -19 -23 -66 -23 -65 10 -19 10 -19 32 -7 32 -6 69 0 69 0 29 15 30 15 15
30 15 29 0 27 0 27 -16 19 -17 18 36 15 36 15 114 0 114 0 32 6 31 7 0 19 0
19 -16 37 -15 37 -24 107 -24 108 -17 25 -16 25 -30 0 -29 0 -30 -15 -30 -16
-29 30 -30 29 0 25 0 24 18 16 18 16 37 16 36 15 58 0 58 -1 40 -14 40 -15 9
0 9 0 -7 148 -8 147 -6 50 -7 50 -150 0 -150 0 -23 14 -24 13 6 26 6 27 10 49
10 48 -6 27 -7 26 -16 19 -16 19 -32 13 -32 14 -58 -1 -58 -1 -20 -5z"/>
</g>
</svg>
