<?xml version="1.0" standalone="no"?>
<!DOCTYPE svg PUBLIC "-//W3C//DTD SVG 20010904//EN"
 "http://www.w3.org/TR/2001/REC-SVG-20010904/DTD/svg10.dtd">
<svg version="1.0" xmlns="http://www.w3.org/2000/svg"
 width="123.000000pt" height="138.000000pt" viewBox="0 0 123.000000 138.000000"
 preserveAspectRatio="xMidYMid meet">
<metadata>
Created by potrace 1.16, written by Peter Selinger 2001-2019
</metadata>
<g transform="translate(0.000000,138.000000) scale(0.100000,-0.100000)"
fill="#000000" stroke="none">
<path d="M663 1373 l-22 -4 -12 -15 -12 -15 16 -47 17 -47 0 -41 0 -41 -21
-26 -20 -27 -37 -10 -37 -11 -123 3 -122 3 0 -123 0 -123 -14 -34 -14 -33 -23
-12 -22 -12 -55 5 -55 6 -10 10 -11 11 -16 0 -16 0 -17 -21 -18 -20 -8 -45 -9
-45 8 -36 8 -35 23 -24 22 -24 43 -21 43 -21 44 -1 44 -2 27 15 27 14 17 -11
17 -10 3 -64 3 -64 -19 -72 -18 -72 14 -6 14 -5 127 0 127 0 22 -16 22 -15 0
-24 0 -24 -19 -50 -20 -49 13 -18 13 -17 85 -5 84 -4 32 16 32 16 15 30 15 29
0 19 0 20 -15 12 -15 12 0 14 0 13 23 13 22 13 152 5 152 5 7 7 7 7 -21 58
-22 58 -19 92 -20 92 -17 26 -16 25 -20 0 -19 0 -30 -16 -30 -15 -19 6 -19 6
-21 26 -20 26 0 32 0 32 18 16 18 16 37 16 36 15 68 0 68 -1 39 -14 39 -14 -7
137 -8 137 -6 50 -7 50 -150 0 -150 0 -22 13 -23 13 0 24 0 24 11 28 10 28 1
47 1 48 -19 21 -19 22 -32 13 -32 14 -48 -1 -48 -2 -22 -4z"/>
</g>
</svg>
