<?xml version="1.0" standalone="no"?>
<!DOCTYPE svg PUBLIC "-//W3C//DTD SVG 20010904//EN"
 "http://www.w3.org/TR/2001/REC-SVG-20010904/DTD/svg10.dtd">
<svg version="1.0" xmlns="http://www.w3.org/2000/svg"
 width="120.000000pt" height="88.000000pt" viewBox="0 0 120.000000 88.000000"
 preserveAspectRatio="xMidYMid meet">
<metadata>
Created by potrace 1.16, written by Peter Selinger 2001-2019
</metadata>
<g transform="translate(0.000000,88.000000) scale(0.100000,-0.100000)"
fill="#000000" stroke="none">
<path d="M288 766 l5 -114 -7 -36 -7 -37 -25 -11 -24 -11 -61 18 -62 19 -34 0
-33 0 -17 -17 -18 -17 -3 -73 -3 -72 20 -32 20 -32 42 -21 42 -22 51 -5 51 -5
39 16 39 16 18 -5 17 -6 12 -30 13 -31 -12 -65 -12 -66 -25 -60 -24 -60 0 -5
0 -5 104 5 103 5 46 27 46 26 12 40 12 39 -17 52 -17 52 11 11 11 11 82 3 82
3 44 -23 43 -23 21 -37 22 -36 -18 -19 -17 -20 0 -22 0 -22 33 -14 33 -13 94
-11 95 -11 36 -6 36 -6 6 47 7 48 0 88 0 88 -24 28 -24 28 -34 -14 -33 -13
-26 -5 -27 -5 -21 12 -22 11 -19 32 -20 32 0 66 0 65 13 17 12 17 29 -15 28
-15 50 0 49 0 19 10 18 10 11 32 10 33 2 60 3 60 -2 78 -2 77 -454 0 -453 0 5
-114z"/>
</g>
</svg>
