<?xml version="1.0" standalone="no"?>
<!DOCTYPE svg PUBLIC "-//W3C//DTD SVG 20010904//EN"
 "http://www.w3.org/TR/2001/REC-SVG-20010904/DTD/svg10.dtd">
<svg version="1.0" xmlns="http://www.w3.org/2000/svg"
 width="123.000000pt" height="97.000000pt" viewBox="0 0 123.000000 97.000000"
 preserveAspectRatio="xMidYMid meet">
<metadata>
Created by potrace 1.16, written by Peter Selinger 2001-2019
</metadata>
<g transform="translate(0.000000,97.000000) scale(0.100000,-0.100000)"
fill="#000000" stroke="none">
<path d="M27 863 l-7 -106 0 -71 0 -71 8 -13 9 -13 88 16 88 15 37 -10 38 -10
12 -15 12 -14 1 -36 1 -35 -29 -30 -28 -30 -35 -11 -34 -11 -47 7 -46 7 -36 5
-37 5 -12 -37 -12 -37 7 -77 6 -76 12 -65 12 -65 80 -7 80 -8 84 6 83 6 33 14
33 14 6 28 7 28 -16 43 -15 44 0 31 0 32 20 22 21 22 34 0 33 0 28 -33 27 -32
13 -32 14 -31 10 -47 11 -48 -16 -23 -15 -23 0 -34 0 -35 30 -12 31 -13 62 7
62 6 75 25 75 25 14 9 14 9 -17 113 -16 114 0 56 0 57 18 20 17 21 60 -16 60
-16 47 7 47 7 32 30 32 29 -5 50 -5 50 -18 20 -17 19 -27 6 -26 5 -73 -18 -74
-19 -21 18 -22 17 3 156 3 156 -16 0 -16 0 -29 -15 -30 -15 -118 -29 -117 -28
-23 -12 -22 -12 0 -25 0 -25 16 -31 16 -31 -23 -18 -24 -19 -87 0 -87 0 -10
18 -9 17 14 25 13 25 0 60 0 60 -13 17 -13 18 -36 15 -36 15 -134 0 -134 0 -6
-107z"/>
</g>
</svg>
