<?xml version="1.0" standalone="no"?>
<!DOCTYPE svg PUBLIC "-//W3C//DTD SVG 20010904//EN"
 "http://www.w3.org/TR/2001/REC-SVG-20010904/DTD/svg10.dtd">
<svg version="1.0" xmlns="http://www.w3.org/2000/svg"
 width="121.000000pt" height="116.000000pt" viewBox="0 0 121.000000 116.000000"
 preserveAspectRatio="xMidYMid meet">
<metadata>
Created by potrace 1.16, written by Peter Selinger 2001-2019
</metadata>
<g transform="translate(0.000000,116.000000) scale(0.100000,-0.100000)"
fill="#000000" stroke="none">
<path d="M413 1150 l-23 -9 0 -23 0 -22 16 -44 17 -43 -14 -26 -14 -26 -34
-14 -34 -15 -144 1 -143 1 0 -123 1 -122 13 -38 14 -38 18 -20 17 -19 48 0 48
0 6 10 6 10 28 0 28 0 27 -26 26 -27 0 -44 0 -45 -28 -28 -29 -28 -42 -13 -43
-13 -75 19 -75 19 -14 -19 -14 -19 0 -65 0 -66 17 -83 17 -83 26 -6 25 -7 152
0 152 -1 18 17 17 18 -18 70 -18 69 6 24 6 24 25 11 26 12 30 0 30 0 29 -15
29 -15 12 -41 13 -41 -19 -74 -19 -75 18 -17 17 -17 72 1 72 1 60 12 60 12 55
15 56 15 22 72 21 72 15 80 15 80 10 28 11 28 16 6 16 6 30 -17 29 -18 24 16
24 16 6 43 7 43 -16 37 -15 37 -33 20 -33 20 -38 0 -38 0 -28 -15 -29 -14 -13
16 -14 16 -1 146 0 146 -15 -2 -14 -2 -85 -17 -85 -17 -77 -1 -77 -1 -23 22
-22 22 17 36 17 36 0 35 0 35 -15 29 -15 29 -22 15 -22 16 -41 -1 -40 0 -22
-9z"/>
</g>
</svg>
