<?xml version="1.0" standalone="no"?>
<!DOCTYPE svg PUBLIC "-//W3C//DTD SVG 20010904//EN"
 "http://www.w3.org/TR/2001/REC-SVG-20010904/DTD/svg10.dtd">
<svg version="1.0" xmlns="http://www.w3.org/2000/svg"
 width="123.000000pt" height="94.000000pt" viewBox="0 0 123.000000 94.000000"
 preserveAspectRatio="xMidYMid meet">
<metadata>
Created by potrace 1.16, written by Peter Selinger 2001-2019
</metadata>
<g transform="translate(0.000000,94.000000) scale(0.100000,-0.100000)"
fill="#000000" stroke="none">
<path d="M304 808 l6 -133 -9 -39 -10 -39 -20 -20 -20 -21 -54 17 -54 17 -41
0 -40 0 -17 -6 -16 -6 -14 -29 -15 -28 0 -25 0 -24 25 -30 25 -29 52 -23 52
-22 56 -5 57 -5 25 16 26 17 16 -16 16 -16 0 -58 0 -57 -20 -75 -20 -74 0 -22
0 -23 78 -2 77 -1 70 2 70 3 30 13 30 12 14 27 15 27 -13 42 -13 42 -1 25 -2
25 38 9 38 10 26 -10 27 -9 23 -34 23 -34 0 -31 -1 -31 -14 -25 -14 -25 -1
-21 0 -21 18 -16 18 -17 45 -6 44 -6 70 10 70 11 75 12 75 13 3 171 3 171 -10
27 -11 28 -16 6 -17 6 -33 -18 -33 -17 -25 6 -24 6 -31 26 -31 26 0 42 0 43
73 -5 72 -4 27 21 27 22 11 37 10 37 0 128 0 127 -12 0 -13 0 -50 -19 -50 -19
-100 -22 -100 -22 -27 -14 -28 -15 0 -25 0 -25 17 -26 17 -26 -28 -23 -27 -24
-65 0 -65 0 -35 15 -36 15 7 17 7 18 10 28 10 28 -7 36 -6 36 -28 28 -28 27
-39 11 -39 11 -104 0 -104 0 7 -132z"/>
</g>
</svg>
