<?xml version="1.0" standalone="no"?>
<!DOCTYPE svg PUBLIC "-//W3C//DTD SVG 20010904//EN"
 "http://www.w3.org/TR/2001/REC-SVG-20010904/DTD/svg10.dtd">
<svg version="1.0" xmlns="http://www.w3.org/2000/svg"
 width="121.000000pt" height="92.000000pt" viewBox="0 0 121.000000 92.000000"
 preserveAspectRatio="xMidYMid meet">
<metadata>
Created by potrace 1.16, written by Peter Selinger 2001-2019
</metadata>
<g transform="translate(0.000000,92.000000) scale(0.100000,-0.100000)"
fill="#000000" stroke="none">
<path d="M303 762 l2 -160 -21 -29 -21 -28 -22 -3 -22 -4 -46 16 -47 16 -38 0
-38 0 -20 -20 -19 -19 -7 -27 -7 -26 20 -26 19 -27 55 -28 55 -27 51 -6 51 -7
23 17 23 16 13 0 12 0 15 -16 16 -15 0 -67 0 -66 -21 -84 -21 -83 4 -5 5 -5
130 0 130 0 34 14 34 14 14 26 14 26 -17 43 -16 44 0 22 0 22 26 10 25 10 37
0 38 0 22 -16 22 -15 15 -29 15 -29 0 -35 0 -35 -17 -36 -17 -36 22 -22 23
-22 77 1 77 1 82 17 82 17 18 2 18 1 0 178 0 177 -17 17 -17 17 -25 -16 -25
-17 -26 0 -26 0 -27 14 -27 14 -18 20 -18 20 3 53 3 54 20 -4 20 -3 50 -5 50
-5 27 22 27 21 11 37 10 37 0 118 0 117 -2 0 -3 0 -50 -19 -50 -19 -100 -22
-100 -22 -27 -14 -28 -15 0 -17 1 -17 14 -19 15 -20 0 -17 0 -18 -26 -20 -27
-21 -74 0 -74 0 -34 14 -35 15 0 12 0 11 17 47 16 47 -19 39 -19 39 -35 21
-35 20 -112 4 -112 3 2 -160z"/>
</g>
</svg>
