<?xml version="1.0" standalone="no"?>
<!DOCTYPE svg PUBLIC "-//W3C//DTD SVG 20010904//EN"
 "http://www.w3.org/TR/2001/REC-SVG-20010904/DTD/svg10.dtd">
<svg version="1.0" xmlns="http://www.w3.org/2000/svg"
 width="128.000000pt" height="120.000000pt" viewBox="0 0 128.000000 120.000000"
 preserveAspectRatio="xMidYMid meet">
<metadata>
Created by potrace 1.16, written by Peter Selinger 2001-2019
</metadata>
<g transform="translate(0.000000,120.000000) scale(0.100000,-0.100000)"
fill="#000000" stroke="none">
<path d="M684 1190 l-30 -10 -13 -24 -14 -24 7 -59 6 -58 6 -37 6 -37 -38 -17
-39 -17 -155 1 -156 1 1 -153 0 -153 -13 -15 -12 -15 -53 14 -52 14 -49 -4
-50 -4 -18 -23 -18 -22 0 -78 0 -77 23 -34 23 -34 42 -15 42 -14 63 16 62 17
13 -17 12 -16 0 -57 0 -58 -11 -76 -10 -77 3 -3 3 -3 198 -13 197 -13 12 12
11 11 -13 47 -14 48 0 47 -1 47 19 21 19 21 41 0 42 0 22 -16 22 -15 0 -19 0
-19 -10 -6 -10 -6 0 -36 0 -36 22 -18 21 -19 6 0 6 0 135 -15 135 -15 40 -6
40 -6 27 70 28 70 11 69 11 68 -15 38 -16 37 -33 0 -33 -1 -19 -14 -19 -15
-26 7 -26 6 -37 18 -36 18 -21 27 -21 27 0 43 0 42 5 14 5 13 64 -3 63 -4 27
25 26 24 15 36 15 36 0 116 0 115 -16 0 -16 0 -81 -29 -82 -28 -49 -7 -48 -8
-29 12 -29 12 0 15 0 14 16 25 17 25 -7 47 -6 47 -15 46 -16 47 -32 36 -32 36
-30 5 -30 4 -31 -9z"/>
</g>
</svg>
