<?xml version="1.0" standalone="no"?>
<!DOCTYPE svg PUBLIC "-//W3C//DTD SVG 20010904//EN"
 "http://www.w3.org/TR/2001/REC-SVG-20010904/DTD/svg10.dtd">
<svg version="1.0" xmlns="http://www.w3.org/2000/svg"
 width="121.000000pt" height="118.000000pt" viewBox="0 0 121.000000 118.000000"
 preserveAspectRatio="xMidYMid meet">
<metadata>
Created by potrace 1.16, written by Peter Selinger 2001-2019
</metadata>
<g transform="translate(0.000000,118.000000) scale(0.100000,-0.100000)"
fill="#000000" stroke="none">
<path d="M434 1171 l-21 -9 -26 -31 -26 -32 -7 -36 -7 -36 19 -34 18 -34 -10
-17 -10 -17 -38 -19 -38 -19 -134 1 -134 1 -5 -8 -5 -9 -2 -140 -3 -141 17
-17 17 -17 75 18 76 17 36 -7 36 -6 23 -23 23 -23 7 -46 7 -46 -18 -38 -19
-38 -37 -20 -36 -19 -24 13 -25 13 -34 -4 -34 -3 -12 -25 -12 -25 -16 -105
-17 -105 -14 -34 -14 -33 0 -9 0 -9 168 0 167 0 42 19 42 19 10 40 11 39 -9
44 -9 44 -7 17 -7 17 35 6 35 7 30 -7 30 -6 16 -18 16 -18 -16 -45 -17 -45 6
-25 7 -26 32 -11 33 -10 60 -6 60 -6 103 -16 103 -16 4 4 4 4 -15 105 -15 105
3 67 4 68 12 12 12 12 18 -17 19 -17 29 0 30 0 52 15 51 16 27 34 26 35 -7 37
-7 37 -14 28 -14 27 -38 18 -37 18 -50 0 -50 0 -29 -8 -29 -8 7 133 7 133 6
23 5 22 -16 0 -17 0 -40 21 -40 20 -117 31 -117 30 -17 9 -18 10 0 24 0 24 10
6 10 6 0 34 0 34 -21 11 -21 12 -51 4 -52 4 -21 -9z"/>
</g>
</svg>
