<?xml version="1.0" standalone="no"?>
<!DOCTYPE svg PUBLIC "-//W3C//DTD SVG 20010904//EN"
 "http://www.w3.org/TR/2001/REC-SVG-20010904/DTD/svg10.dtd">
<svg version="1.0" xmlns="http://www.w3.org/2000/svg"
 width="122.000000pt" height="117.000000pt" viewBox="0 0 122.000000 117.000000"
 preserveAspectRatio="xMidYMid meet">
<metadata>
Created by potrace 1.16, written by Peter Selinger 2001-2019
</metadata>
<g transform="translate(0.000000,117.000000) scale(0.100000,-0.100000)"
fill="#000000" stroke="none">
<path d="M653 1160 l-33 -7 -15 -13 -15 -12 0 -17 1 -16 14 -19 15 -20 0 -42
0 -41 -20 -26 -21 -26 -37 -11 -37 -10 -117 0 -116 0 -4 -141 -3 -141 -28 -24
-28 -24 -32 0 -32 0 -29 15 -28 15 -24 0 -24 0 -14 -22 -14 -23 -6 -49 -6 -49
10 -38 10 -37 35 -31 36 -31 39 0 39 0 6 10 6 10 13 0 14 0 11 -27 11 -28 14
-123 15 -123 12 -15 11 -14 135 0 134 0 33 14 33 14 17 23 16 23 0 54 0 53
-15 36 -15 36 11 13 11 13 44 7 44 6 35 -6 34 -7 32 -26 31 -27 -6 -55 -6 -56
-6 -47 -6 -46 24 -14 23 -13 159 2 158 2 6 5 5 6 -26 57 -25 58 -17 80 -18 80
-15 28 -16 27 -42 0 -42 0 -5 -12 -4 -13 -21 35 -21 34 -7 42 -6 42 7 31 7 32
25 16 24 16 77 -16 77 -17 17 0 16 0 11 31 11 32 0 76 0 76 -7 68 -6 68 -16 9
-16 8 -134 12 -134 11 -33 14 -34 14 0 20 0 20 10 6 10 6 0 34 0 34 -11 24
-11 24 -38 22 -38 21 -38 -1 -39 -1 -32 -8z"/>
</g>
</svg>
