<?xml version="1.0" standalone="no"?>
<!DOCTYPE svg PUBLIC "-//W3C//DTD SVG 20010904//EN"
 "http://www.w3.org/TR/2001/REC-SVG-20010904/DTD/svg10.dtd">
<svg version="1.0" xmlns="http://www.w3.org/2000/svg"
 width="120.000000pt" height="115.000000pt" viewBox="0 0 120.000000 115.000000"
 preserveAspectRatio="xMidYMid meet">
<metadata>
Created by potrace 1.16, written by Peter Selinger 2001-2019
</metadata>
<g transform="translate(0.000000,115.000000) scale(0.100000,-0.100000)"
fill="#000000" stroke="none">
<path d="M651 1140 l-33 -8 -15 -15 -15 -15 16 -23 16 -23 0 -52 0 -51 -20
-26 -21 -26 -37 -11 -37 -10 -117 0 -116 0 -4 -141 -3 -141 -28 -24 -28 -24
-42 0 -42 0 -29 15 -28 15 -13 0 -13 0 -12 -16 -13 -15 -8 -47 -7 -47 9 -37 9
-36 35 -31 36 -31 27 0 27 1 18 14 19 14 13 -5 13 -5 11 -27 11 -27 14 -123
15 -123 12 -15 11 -14 125 0 124 0 33 14 33 14 17 23 16 23 0 41 0 40 -17 48
-17 47 16 16 15 16 60 5 60 6 35 -12 35 -12 23 -24 23 -25 -1 -48 -1 -47 -10
-28 -11 -28 0 -24 0 -24 18 -9 17 -9 42 -7 42 -6 115 6 115 7 -20 38 -19 39
-20 87 -20 88 -17 33 -16 32 -33 0 -32 0 -4 -12 -4 -12 -17 7 -16 6 -16 30
-15 31 -6 44 -7 44 7 36 7 36 26 17 25 17 67 -12 66 -12 26 -6 26 -6 12 33 11
32 0 66 0 66 -7 68 -6 68 -16 9 -16 8 -134 12 -134 11 -33 14 -34 14 0 30 0
30 10 6 10 6 0 24 0 24 -11 24 -11 24 -38 22 -38 21 -28 -1 -29 -1 -34 -8z"/>
</g>
</svg>
