<?xml version="1.0" standalone="no"?>
<!DOCTYPE svg PUBLIC "-//W3C//DTD SVG 20010904//EN"
 "http://www.w3.org/TR/2001/REC-SVG-20010904/DTD/svg10.dtd">
<svg version="1.0" xmlns="http://www.w3.org/2000/svg"
 width="115.000000pt" height="137.000000pt" viewBox="0 0 115.000000 137.000000"
 preserveAspectRatio="xMidYMid meet">
<metadata>
Created by potrace 1.16, written by Peter Selinger 2001-2019
</metadata>
<g transform="translate(0.000000,137.000000) scale(0.100000,-0.100000)"
fill="#000000" stroke="none">
<path d="M605 1363 l-20 -5 -18 -16 -19 -17 5 -25 5 -25 13 -32 13 -32 -9 -27
-10 -27 -28 -21 -28 -21 -142 -5 -142 -5 4 -166 4 -167 -7 -10 -6 -9 -55 15
-55 15 -40 -12 -40 -12 -15 -29 -15 -29 1 -53 1 -53 7 -25 7 -25 25 1 24 2 22
7 21 7 15 -29 15 -28 12 -60 11 -60 22 -77 21 -77 21 -5 20 -6 128 0 128 0 34
-14 33 -14 11 -20 11 -21 0 -28 0 -28 -15 -29 -15 -28 0 -13 0 -12 38 -7 37
-6 46 0 46 0 34 11 34 12 28 25 27 26 0 25 0 24 -16 18 -16 17 26 17 26 17
133 10 132 10 9 8 8 8 -11 49 -11 48 -10 97 -10 97 -12 25 -11 26 -19 6 -19 6
-24 -16 -24 -16 -15 0 -15 0 -36 31 -35 31 -8 31 -8 32 6 43 7 43 15 15 14 15
30 -16 29 -15 52 0 52 0 28 24 28 24 3 151 3 151 -4 0 -5 0 -117 -20 -117 -20
-54 0 -55 0 -24 16 -24 15 15 41 14 41 0 62 0 63 -26 31 -26 31 -51 -1 -52 -1
-20 -5z"/>
</g>
</svg>
