<?xml version="1.0" standalone="no"?>
<!DOCTYPE svg PUBLIC "-//W3C//DTD SVG 20010904//EN"
 "http://www.w3.org/TR/2001/REC-SVG-20010904/DTD/svg10.dtd">
<svg version="1.0" xmlns="http://www.w3.org/2000/svg"
 width="123.000000pt" height="91.000000pt" viewBox="0 0 123.000000 91.000000"
 preserveAspectRatio="xMidYMid meet">
<metadata>
Created by potrace 1.16, written by Peter Selinger 2001-2019
</metadata>
<g transform="translate(0.000000,91.000000) scale(0.100000,-0.100000)"
fill="#000000" stroke="none">
<path d="M6 833 l-7 -78 10 -65 9 -65 10 -26 11 -27 23 -16 22 -16 24 0 23 0
30 15 30 16 8 -5 9 -6 16 -34 16 -34 0 -34 0 -34 -13 -19 -14 -18 -7 11 -7 12
-32 0 -32 0 -12 -19 -12 -20 -30 -125 -30 -126 -21 -39 -20 -40 0 -14 0 -14
107 -6 106 -7 89 0 89 0 5 14 6 15 -17 75 -17 75 14 28 13 28 35 9 35 8 40
-11 40 -10 -3 -45 -4 -45 29 -14 29 -15 95 -22 94 -22 61 -29 62 -29 8 0 9 0
23 48 22 47 21 90 20 90 11 28 11 27 8 6 8 5 25 -16 25 -17 29 7 29 6 21 24
20 23 11 20 11 21 0 49 0 49 -11 32 -11 31 -18 10 -19 10 -54 0 -54 0 -42 -14
-41 -15 -15 15 -14 15 -12 42 -11 42 3 110 4 110 -461 3 -461 2 -7 -77z"/>
</g>
</svg>
