<?xml version="1.0" standalone="no"?>
<!DOCTYPE svg PUBLIC "-//W3C//DTD SVG 20010904//EN"
 "http://www.w3.org/TR/2001/REC-SVG-20010904/DTD/svg10.dtd">
<svg version="1.0" xmlns="http://www.w3.org/2000/svg"
 width="472.000000pt" height="285.000000pt" viewBox="0 0 472.000000 285.000000"
 preserveAspectRatio="xMidYMid meet">
<metadata>
Created by potrace 1.16, written by Peter Selinger 2001-2019
</metadata>
<g transform="translate(0.000000,285.000000) scale(0.100000,-0.100000)"
fill="#000000" stroke="none">
<path d="M2812 2840 l-53 -10 -39 -20 -39 -20 -11 -19 -10 -20 0 -36 0 -37 30
-68 30 -67 15 -59 15 -58 0 -66 0 -66 -16 -55 -16 -54 -26 -45 -26 -45 -45
-44 -46 -43 -47 -24 -48 -24 -67 -16 -68 -16 -110 5 -110 5 -75 17 -75 18 -50
22 -50 23 -32 28 -31 29 -7 22 -6 23 23 23 24 24 12 4 13 4 14 55 15 55 0 70
0 70 -21 45 -20 45 -32 33 -32 34 -47 24 -48 24 -82 21 -83 21 -211 5 -211 6
-148 -8 -148 -7 9 -287 9 -286 -1 -140 0 -140 -13 -66 -13 -66 -21 -38 -22
-39 -35 -24 -35 -24 -66 5 -66 4 -39 21 -39 21 -44 22 -44 21 -76 -4 -76 -4
-55 -27 -55 -26 -19 -13 -19 -13 -20 -19 -19 -18 -29 -55 -29 -55 0 -45 0 -45
16 -34 17 -35 41 -34 42 -34 74 -35 75 -35 77 -15 77 -16 33 0 33 0 38 11 37
10 30 29 29 28 40 7 41 7 37 -19 38 -18 22 -33 21 -33 12 -52 12 -52 5 -135 5
-135 -16 -242 -16 -242 0 -89 0 -89 188 -7 187 -7 259 -15 259 -16 89 4 89 3
9 15 10 15 0 22 0 22 -29 33 -28 33 -11 20 -10 20 -21 65 -22 65 0 60 0 60 10
33 10 33 22 35 22 36 48 38 49 39 57 21 58 22 75 14 75 13 66 1 66 0 89 -15
89 -16 73 -35 72 -35 26 -39 26 -38 -11 -20 -11 -20 -23 -19 -24 -18 -11 -22
-12 -22 0 -54 0 -54 20 -25 20 -26 44 -20 44 -21 67 -16 67 -15 242 -30 241
-30 90 -15 90 -15 108 -32 108 -31 3 4 4 4 16 140 15 140 11 225 11 225 10 93
11 94 14 56 15 56 20 32 19 32 27 18 27 17 43 -1 42 0 33 -18 33 -17 38 -20
38 -20 67 -4 67 -5 72 15 71 16 62 30 62 31 39 31 40 31 19 39 20 38 0 42 0
42 -12 40 -12 40 -47 52 -48 52 -59 31 -59 32 -69 16 -69 16 -62 -6 -62 -5
-51 -22 -50 -21 0 -8 0 -7 -57 -12 -58 -11 -36 10 -35 10 -40 34 -40 34 -27
55 -27 56 -15 65 -15 65 -9 133 -9 133 9 170 8 170 0 76 1 76 -117 36 -118 37
-124 30 -124 30 -101 15 -101 14 -110 5 -110 5 -53 -9z"/>
</g>
</svg>
