<?xml version="1.0" standalone="no"?>
<!DOCTYPE svg PUBLIC "-//W3C//DTD SVG 20010904//EN"
 "http://www.w3.org/TR/2001/REC-SVG-20010904/DTD/svg10.dtd">
<svg version="1.0" xmlns="http://www.w3.org/2000/svg"
 width="470.000000pt" height="283.000000pt" viewBox="0 0 470.000000 283.000000"
 preserveAspectRatio="xMidYMid meet">
<metadata>
Created by potrace 1.16, written by Peter Selinger 2001-2019
</metadata>
<g transform="translate(0.000000,283.000000) scale(0.100000,-0.100000)"
fill="#000000" stroke="none">
<path d="M2812 2819 l-53 -9 -39 -20 -39 -20 -11 -19 -10 -20 0 -26 0 -27 30
-68 30 -67 15 -59 15 -58 0 -76 0 -76 -16 -55 -16 -54 -26 -45 -26 -45 -45
-44 -46 -43 -47 -24 -48 -24 -67 -16 -68 -16 -120 5 -120 5 -75 17 -75 18 -50
22 -50 23 -33 28 -32 29 -6 32 -6 32 24 24 24 24 12 4 13 4 14 55 15 55 0 60
0 60 -21 45 -20 45 -32 33 -32 34 -47 24 -48 24 -82 21 -83 21 -201 5 -200 6
-148 -8 -149 -7 9 -277 9 -276 -1 -150 0 -150 -13 -66 -13 -66 -21 -38 -22
-39 -35 -24 -35 -24 -76 4 -75 4 -40 22 -39 21 -44 22 -44 21 -67 -4 -67 -5
-54 -26 -54 -26 -19 -13 -19 -13 -20 -19 -19 -18 -29 -55 -29 -55 0 -35 0 -35
16 -34 17 -35 41 -34 42 -34 74 -35 75 -35 77 -15 77 -16 23 0 23 0 38 11 37
10 30 29 29 29 45 6 45 7 34 -11 34 -12 20 -22 21 -22 12 -24 12 -24 14 -76
13 -76 0 -135 1 -135 -15 -215 -15 -215 0 -86 0 -87 198 -6 197 -7 230 -15
230 -14 80 0 80 0 22 6 22 6 7 20 6 20 -21 27 -21 26 -15 21 -16 21 -20 59
-21 59 -8 55 -8 55 10 55 10 55 24 43 25 42 50 39 49 40 57 21 58 22 75 14 75
13 76 1 76 0 89 -15 89 -16 72 -35 73 -35 25 -37 25 -37 0 -18 0 -19 -35 -35
-36 -36 -9 -18 -10 -18 0 -44 0 -44 20 -25 20 -26 44 -20 44 -21 67 -16 68
-15 206 -25 206 -25 129 -21 129 -21 96 -28 96 -29 1 2 2 2 16 140 15 140 11
225 11 225 10 93 11 94 14 56 15 56 20 32 19 32 28 18 27 18 51 -1 51 0 34
-18 34 -18 37 -19 38 -20 57 -5 58 -5 72 15 71 16 62 30 62 31 39 31 40 31 19
39 20 38 0 32 0 32 -12 40 -12 40 -47 52 -48 52 -59 31 -59 32 -69 16 -69 16
-54 -6 -53 -6 -49 -21 -49 -21 0 -8 0 -8 -63 -12 -64 -12 -39 11 -40 11 -40
34 -40 34 -27 55 -27 56 -15 65 -15 65 -9 138 -9 138 8 175 9 175 0 66 1 66
-117 36 -118 37 -124 30 -124 30 -101 14 -101 15 -100 5 -100 5 -53 -10z"/>
</g>
</svg>
