<?xml version="1.0" standalone="no"?>
<!DOCTYPE svg PUBLIC "-//W3C//DTD SVG 20010904//EN"
 "http://www.w3.org/TR/2001/REC-SVG-20010904/DTD/svg10.dtd">
<svg version="1.0" xmlns="http://www.w3.org/2000/svg"
 width="124.000000pt" height="116.000000pt" viewBox="0 0 124.000000 116.000000"
 preserveAspectRatio="xMidYMid meet">
<metadata>
Created by potrace 1.16, written by Peter Selinger 2001-2019
</metadata>
<g transform="translate(0.000000,116.000000) scale(0.100000,-0.100000)"
fill="#000000" stroke="none">
<path d="M408 1154 l-17 -5 -6 -20 -6 -19 15 -22 16 -22 0 -44 0 -43 -10 -18
-9 -19 -41 -16 -40 -16 -149 0 -149 0 -6 -22 -6 -23 0 -136 0 -137 16 -13 16
-13 48 17 48 17 30 0 30 0 31 -30 30 -31 7 -33 6 -34 -11 -21 -12 -21 -29 -15
-29 -15 -25 0 -25 0 -6 10 -6 10 -44 0 -44 0 -12 -22 -12 -22 -5 -67 -5 -67 8
-114 7 -115 96 -4 97 -4 82 0 82 0 12 12 11 11 -16 72 -17 72 11 34 12 34 28
15 29 15 31 0 31 0 30 -15 29 -16 -16 -24 -16 -25 6 -25 7 -26 32 -14 32 -15
92 -19 92 -20 66 -26 66 -27 15 6 15 6 19 42 18 43 18 88 17 89 17 20 16 21
22 -12 21 -11 31 0 32 0 29 21 28 20 11 37 11 37 -3 50 -3 50 -48 32 -47 32
-55 6 -55 7 -45 -14 -44 -15 -4 11 -4 11 5 157 5 156 -54 11 -54 11 -100 10
-100 11 -32 10 -31 10 -6 14 -5 15 14 34 15 35 0 24 0 24 -21 19 -20 18 -62 2
-62 3 -17 -5z"/>
</g>
</svg>
