<?xml version="1.0" standalone="no"?>
<!DOCTYPE svg PUBLIC "-//W3C//DTD SVG 20010904//EN"
 "http://www.w3.org/TR/2001/REC-SVG-20010904/DTD/svg10.dtd">
<svg version="1.0" xmlns="http://www.w3.org/2000/svg"
 width="125.000000pt" height="118.000000pt" viewBox="0 0 125.000000 118.000000"
 preserveAspectRatio="xMidYMid meet">
<metadata>
Created by potrace 1.16, written by Peter Selinger 2001-2019
</metadata>
<g transform="translate(0.000000,118.000000) scale(0.100000,-0.100000)"
fill="#000000" stroke="none">
<path d="M297 1083 l5 -98 -11 -58 -11 -58 -21 -31 -22 -30 -36 7 -36 6 -60 5
-61 6 -17 -20 -18 -20 -6 -36 -6 -36 13 -29 12 -29 29 -12 30 -13 62 7 62 6
37 6 38 6 11 -28 11 -29 -4 -155 -3 -155 142 -5 142 -5 28 -21 28 -21 3 -21 3
-21 -15 -30 -16 -30 0 -26 0 -26 15 -28 14 -29 41 -16 40 -16 29 0 28 0 27 25
27 25 15 35 14 34 0 46 0 46 -14 34 -15 35 22 15 21 15 56 0 55 0 90 -10 90
-10 25 -5 25 -5 18 88 17 88 0 65 0 65 -12 12 -12 12 -26 0 -26 0 -11 -11 -11
-11 -42 0 -41 1 -44 21 -45 22 -26 31 -26 31 4 61 4 61 22 24 21 23 16 -13 15
-12 63 -5 64 -5 22 12 23 12 14 33 14 34 0 131 0 131 -32 -6 -33 -5 -118 -9
-117 -9 -25 -16 -25 -16 0 -22 0 -21 17 -19 17 -19 -30 -29 -29 -29 -45 -12
-46 -12 -46 7 -47 7 9 25 10 25 0 45 0 45 -11 21 -11 20 -33 14 -34 14 -145 0
-145 0 6 -97z"/>
</g>
</svg>
