<?xml version="1.0" standalone="no"?>
<!DOCTYPE svg PUBLIC "-//W3C//DTD SVG 20010904//EN"
 "http://www.w3.org/TR/2001/REC-SVG-20010904/DTD/svg10.dtd">
<svg version="1.0" xmlns="http://www.w3.org/2000/svg"
 width="123.000000pt" height="116.000000pt" viewBox="0 0 123.000000 116.000000"
 preserveAspectRatio="xMidYMid meet">
<metadata>
Created by potrace 1.16, written by Peter Selinger 2001-2019
</metadata>
<g transform="translate(0.000000,116.000000) scale(0.100000,-0.100000)"
fill="#000000" stroke="none">
<path d="M298 1063 l4 -98 -11 -58 -11 -58 -21 -31 -22 -30 -46 6 -46 7 -48 5
-48 6 -19 -17 -19 -17 -6 -30 -7 -29 12 -29 12 -28 29 -12 29 -13 48 6 47 7
52 6 53 7 11 -29 11 -29 -4 -155 -3 -155 142 -5 142 -5 28 -21 28 -21 3 -28 4
-28 -17 -38 -17 -38 6 -26 7 -26 19 -19 19 -19 41 -12 42 -13 26 16 27 17 23
42 22 42 0 38 0 39 -17 41 -16 42 24 20 24 20 125 -7 125 -7 48 -8 47 -8 -2
11 -2 11 18 75 17 76 -3 58 -3 59 -17 11 -17 10 -27 -14 -27 -15 -44 2 -44 1
-43 21 -43 21 -22 24 -23 24 -8 35 -8 36 9 45 8 45 18 20 17 21 16 0 16 0 11
-11 10 -10 55 -6 55 -5 22 12 23 12 14 33 14 34 0 119 0 118 -67 -7 -68 -8
-55 -1 -55 -1 -34 -12 -34 -12 -11 -17 -10 -17 17 -19 17 -19 0 -14 0 -15 -27
-26 -28 -26 -39 -12 -39 -13 -65 6 -65 7 -4 3 -3 4 15 29 15 29 0 38 0 38 -11
21 -11 20 -33 14 -34 14 -134 0 -134 0 5 -97z"/>
</g>
</svg>
