<?xml version="1.0" standalone="no"?>
<!DOCTYPE svg PUBLIC "-//W3C//DTD SVG 20010904//EN"
 "http://www.w3.org/TR/2001/REC-SVG-20010904/DTD/svg10.dtd">
<svg version="1.0" xmlns="http://www.w3.org/2000/svg"
 width="95.000000pt" height="117.000000pt" viewBox="0 0 95.000000 117.000000"
 preserveAspectRatio="xMidYMid meet">
<metadata>
Created by potrace 1.16, written by Peter Selinger 2001-2019
</metadata>
<g transform="translate(0.000000,117.000000) scale(0.100000,-0.100000)"
fill="#000000" stroke="none">
<path d="M387 1163 l-7 -6 0 -27 0 -28 16 -37 15 -37 -3 -26 -3 -26 -34 -23
-34 -23 -162 0 -162 0 -8 -161 -7 -161 11 -11 11 -11 45 12 45 12 36 0 35 0
23 -25 24 -26 7 -35 6 -36 -6 -31 -6 -32 -5 -16 -5 -16 -44 5 -45 5 -14 -34
-13 -34 -23 -95 -23 -95 -18 -37 -19 -37 0 -15 0 -14 83 -7 82 -7 112 4 112 3
13 13 12 12 -17 83 -17 82 0 23 0 22 20 20 20 20 24 0 23 0 26 -20 26 -21 7
-36 7 -35 -17 -59 -16 -59 0 -24 0 -24 17 -13 16 -14 111 2 111 2 75 13 75 14
3 21 3 21 -21 41 -20 41 -20 81 -19 81 -16 24 -15 24 -38 0 -38 0 -12 -12 -11
-11 -17 14 -17 14 -14 32 -13 32 0 45 0 45 23 26 22 26 42 1 42 0 64 -12 64
-13 17 6 16 6 0 109 0 109 -6 75 -7 75 -116 17 -116 17 -48 11 -47 10 -10 18
-9 17 14 19 14 19 1 21 0 21 -22 20 -23 21 -22 11 -22 11 -69 0 -69 0 -6 -7z"/>
</g>
</svg>
