<?xml version="1.0" standalone="no"?>
<!DOCTYPE svg PUBLIC "-//W3C//DTD SVG 20010904//EN"
 "http://www.w3.org/TR/2001/REC-SVG-20010904/DTD/svg10.dtd">
<svg version="1.0" xmlns="http://www.w3.org/2000/svg"
 width="93.000000pt" height="115.000000pt" viewBox="0 0 93.000000 115.000000"
 preserveAspectRatio="xMidYMid meet">
<metadata>
Created by potrace 1.16, written by Peter Selinger 2001-2019
</metadata>
<g transform="translate(0.000000,115.000000) scale(0.100000,-0.100000)"
fill="#000000" stroke="none">
<path d="M383 1134 l-6 -16 17 -48 17 -48 -3 -33 -3 -33 -34 -23 -34 -23 -162
0 -162 0 -7 -151 -8 -151 10 -10 10 -10 33 11 32 11 49 0 49 0 24 -26 23 -25
7 -39 6 -38 -6 -46 -7 -45 -13 -18 -14 -18 -12 13 -13 12 -24 0 -23 0 -13 -32
-13 -33 -23 -95 -23 -95 -19 -38 -19 -39 6 -6 6 -7 179 0 179 0 11 12 12 11
-16 70 -16 71 0 35 0 36 20 20 20 20 34 0 35 0 26 -23 26 -22 6 -42 6 -43 -19
-70 -18 -70 17 -18 18 -17 82 0 82 0 93 14 94 14 5 13 4 12 -20 41 -21 41 -20
81 -19 81 -16 24 -15 24 -25 0 -25 0 -20 -12 -20 -13 -18 11 -17 10 -17 35
-18 34 0 57 0 57 23 27 23 27 55 0 55 0 52 -13 52 -12 15 6 15 5 0 99 0 99 -6
75 -7 75 -116 17 -116 17 -48 11 -47 10 -12 21 -11 21 18 33 18 33 -19 21 -19
21 -27 14 -27 14 -61 0 -61 0 -6 -16z"/>
</g>
</svg>
