<?xml version="1.0" standalone="no"?>
<!DOCTYPE svg PUBLIC "-//W3C//DTD SVG 20010904//EN"
 "http://www.w3.org/TR/2001/REC-SVG-20010904/DTD/svg10.dtd">
<svg version="1.0" xmlns="http://www.w3.org/2000/svg"
 width="123.000000pt" height="117.000000pt" viewBox="0 0 123.000000 117.000000"
 preserveAspectRatio="xMidYMid meet">
<metadata>
Created by potrace 1.16, written by Peter Selinger 2001-2019
</metadata>
<g transform="translate(0.000000,117.000000) scale(0.100000,-0.100000)"
fill="#000000" stroke="none">
<path d="M684 1159 l-30 -9 -24 -25 -24 -25 18 -50 18 -50 -6 -34 -6 -33 -18
-16 -17 -16 -30 -11 -30 -12 -110 -2 -110 -1 4 -177 3 -178 -5 0 -5 0 -35 15
-36 15 -63 0 -63 0 -41 -19 -41 -19 -17 -23 -16 -23 0 -19 0 -18 15 -28 14
-29 44 -21 43 -21 48 0 49 0 39 12 39 11 17 -17 17 -17 -2 -112 -2 -112 -9
-42 -9 -41 86 -7 86 -6 73 10 73 11 29 15 30 15 17 27 18 27 -1 44 -1 43 -11
11 -12 12 0 18 0 17 19 11 20 10 56 0 56 0 34 -15 35 -14 7 -16 6 -17 -17 -34
-16 -35 10 -19 10 -20 18 -9 17 -9 60 -11 60 -12 67 -16 68 -17 5 6 6 6 -20
39 -20 40 -21 84 -22 84 -16 27 -16 28 -32 0 -32 0 -4 -12 -5 -13 -12 23 -13
24 -5 53 -6 53 7 46 7 45 18 22 17 21 32 -16 31 -16 44 0 44 0 19 21 19 21 3
132 3 132 -68 31 -68 31 -89 22 -89 21 -29 15 -28 15 0 26 0 26 16 18 16 17
-12 22 -12 22 -33 14 -34 14 -43 -1 -43 -1 -31 -9z"/>
</g>
</svg>
