<?xml version="1.0" standalone="no"?>
<!DOCTYPE svg PUBLIC "-//W3C//DTD SVG 20010904//EN"
 "http://www.w3.org/TR/2001/REC-SVG-20010904/DTD/svg10.dtd">
<svg version="1.0" xmlns="http://www.w3.org/2000/svg"
 width="120.000000pt" height="112.000000pt" viewBox="0 0 120.000000 112.000000"
 preserveAspectRatio="xMidYMid meet">
<metadata>
Created by potrace 1.16, written by Peter Selinger 2001-2019
</metadata>
<g transform="translate(0.000000,112.000000) scale(0.100000,-0.100000)"
fill="#000000" stroke="none">
<path d="M652 1108 l-22 -11 -6 -24 -6 -24 18 -69 18 -70 -17 -18 -18 -17
-169 1 -168 2 5 -169 6 -168 -16 -7 -17 -6 -52 12 -52 13 -55 0 -55 0 -23 -27
-23 -27 0 -57 0 -57 18 -34 17 -35 17 -10 18 -11 20 13 20 12 25 0 25 0 15
-24 16 -24 18 -75 18 -76 24 -54 24 -55 65 -6 65 -6 85 0 85 0 39 10 39 9 16
15 15 16 -13 33 -14 32 -4 36 -5 36 27 22 28 21 48 0 49 0 41 -17 41 -16 -16
-9 -16 -9 0 -23 0 -24 25 -16 25 -16 67 -15 68 -16 62 -21 63 -22 6 6 5 6 -15
30 -16 30 -31 109 -31 108 -10 12 -10 13 -34 0 -33 0 -6 -10 -6 -10 -24 0 -24
0 -12 23 -13 22 -7 40 -7 40 13 31 13 31 43 21 44 21 41 7 41 6 45 -20 45 -20
13 8 13 8 -7 168 -8 169 -1 1 -2 2 -72 -19 -73 -18 -80 -11 -80 -11 -35 7 -34
6 -12 14 -12 15 18 74 19 73 -13 41 -12 41 -29 15 -29 15 -33 -1 -33 0 -23
-11z"/>
</g>
</svg>
