<?xml version="1.0" standalone="no"?>
<!DOCTYPE svg PUBLIC "-//W3C//DTD SVG 20010904//EN"
 "http://www.w3.org/TR/2001/REC-SVG-20010904/DTD/svg10.dtd">
<svg version="1.0" xmlns="http://www.w3.org/2000/svg"
 width="117.000000pt" height="118.000000pt" viewBox="0 0 117.000000 118.000000"
 preserveAspectRatio="xMidYMid meet">
<metadata>
Created by potrace 1.16, written by Peter Selinger 2001-2019
</metadata>
<g transform="translate(0.000000,118.000000) scale(0.100000,-0.100000)"
fill="#000000" stroke="none">
<path d="M406 1149 l-26 -30 -16 -56 -16 -56 5 -46 5 -46 7 -19 8 -19 -124 9
-124 8 -54 1 -55 0 -7 -25 -7 -25 -1 -131 -1 -130 14 -19 14 -19 70 17 70 17
25 -9 25 -10 16 -23 16 -22 0 -51 0 -51 -21 -23 -22 -23 -26 7 -26 7 -47 5
-46 5 -12 -23 -12 -22 -13 -146 -13 -146 -7 -22 -7 -21 66 -7 66 -7 68 7 67 6
38 10 39 10 35 35 35 35 -5 47 -5 47 -7 26 -7 25 27 12 26 12 30 0 30 0 25
-27 26 -28 -7 -50 -6 -50 -5 -40 -5 -40 23 -15 23 -15 187 0 187 0 3 137 3
137 17 17 17 17 17 -18 17 -17 35 6 34 5 21 18 20 18 18 40 19 40 0 52 0 52
-10 25 -9 25 -21 21 -20 20 -40 0 -41 0 -31 -16 -32 -16 -14 18 -14 19 4 145
3 145 -85 -5 -85 -5 -87 0 -87 0 -16 16 -16 16 16 58 17 57 -7 43 -6 44 -29
31 -28 30 -50 0 -50 0 -26 -31z"/>
</g>
</svg>
