<?xml version="1.0" standalone="no"?>
<!DOCTYPE svg PUBLIC "-//W3C//DTD SVG 20010904//EN"
 "http://www.w3.org/TR/2001/REC-SVG-20010904/DTD/svg10.dtd">
<svg version="1.0" xmlns="http://www.w3.org/2000/svg"
 width="121.000000pt" height="111.000000pt" viewBox="0 0 121.000000 111.000000"
 preserveAspectRatio="xMidYMid meet">
<metadata>
Created by potrace 1.16, written by Peter Selinger 2001-2019
</metadata>
<g transform="translate(0.000000,111.000000) scale(0.100000,-0.100000)"
fill="#000000" stroke="none">
<path d="M684 1089 l-19 -21 2 -67 1 -66 11 -28 11 -29 -6 -10 -7 -11 -111 7
-111 6 -75 6 -76 7 1 -175 0 -174 -18 -18 -18 -18 -32 6 -32 6 -50 10 -50 11
-32 -6 -32 -6 -21 -26 -20 -26 0 -17 0 -17 21 -26 20 -27 37 -9 37 -10 60 14
60 14 21 1 22 0 17 -37 18 -37 -6 -152 -7 -151 113 -7 112 -6 60 10 60 10 2 0
2 0 21 22 20 22 0 46 0 46 -16 22 -15 22 26 10 26 10 32 0 32 0 33 -20 32 -20
0 -20 0 -21 -16 -24 -15 -24 10 -20 11 -20 38 -10 37 -9 115 -7 115 -6 34 -6
33 -6 -6 20 -6 20 -15 142 -14 143 -16 24 -15 24 -17 0 -16 0 -17 -15 -17 -15
-32 6 -33 7 -35 33 -35 33 7 33 7 33 10 12 10 12 34 11 34 12 33 -7 32 -7 33
-11 34 -12 18 23 18 22 7 60 7 60 -7 105 -7 104 -17 6 -17 5 -140 15 -139 15
-6 0 -6 0 -21 19 -22 18 0 22 0 22 16 24 15 24 -11 20 -10 21 -20 10 -19 10
-49 0 -49 0 -19 -21z"/>
</g>
</svg>
