<?xml version="1.0" standalone="no"?>
<!DOCTYPE svg PUBLIC "-//W3C//DTD SVG 20010904//EN"
 "http://www.w3.org/TR/2001/REC-SVG-20010904/DTD/svg10.dtd">
<svg version="1.0" xmlns="http://www.w3.org/2000/svg"
 width="120.000000pt" height="131.000000pt" viewBox="0 0 120.000000 131.000000"
 preserveAspectRatio="xMidYMid meet">
<metadata>
Created by potrace 1.16, written by Peter Selinger 2001-2019
</metadata>
<g transform="translate(0.000000,131.000000) scale(0.100000,-0.100000)"
fill="#000000" stroke="none">
<path d="M665 1297 l-18 -14 6 -24 5 -24 10 -31 10 -32 -12 -23 -12 -24 -29
-15 -30 -14 -149 1 -149 1 7 -67 7 -66 6 -122 6 -122 -39 14 -39 14 -68 1 -68
0 -36 -15 -37 -16 -18 -16 -18 -16 0 -32 0 -32 20 -26 21 -26 19 -6 19 -6 30
15 30 16 19 0 20 0 16 -25 17 -25 24 -108 25 -107 17 -50 18 -50 95 6 95 7 77
1 77 1 -15 -28 -14 -27 0 -33 0 -34 16 -34 16 -34 30 -25 30 -25 47 0 47 0 22
20 22 21 0 23 0 22 -16 48 -16 48 10 10 10 10 38 9 39 9 120 0 120 0 23 6 22
6 0 430 0 430 -17 -7 -18 -6 -80 -20 -80 -19 -48 0 -48 0 -20 10 -19 11 0 23
0 24 14 27 14 27 -8 28 -8 29 -18 29 -17 30 -34 16 -34 16 -42 0 -43 0 -19
-13z"/>
</g>
</svg>
