<?xml version="1.0" standalone="no"?>
<!DOCTYPE svg PUBLIC "-//W3C//DTD SVG 20010904//EN"
 "http://www.w3.org/TR/2001/REC-SVG-20010904/DTD/svg10.dtd">
<svg version="1.0" xmlns="http://www.w3.org/2000/svg"
 width="95.000000pt" height="116.000000pt" viewBox="0 0 95.000000 116.000000"
 preserveAspectRatio="xMidYMid meet">
<metadata>
Created by potrace 1.16, written by Peter Selinger 2001-2019
</metadata>
<g transform="translate(0.000000,116.000000) scale(0.100000,-0.100000)"
fill="#000000" stroke="none">
<path d="M620 1145 l-12 -15 6 -35 6 -35 6 -35 6 -35 -7 -36 -6 -36 -38 -38
-38 -39 -38 -7 -38 -7 -16 10 -15 10 -20 26 -20 27 0 57 -1 58 9 58 8 57 -48
0 -49 0 -151 -11 -151 -12 -6 -164 -6 -163 5 -15 6 -15 17 0 16 0 43 15 43 15
40 -6 41 -7 47 -31 46 -31 3 -30 4 -30 -11 -37 -12 -37 -30 -22 -31 -22 -32
11 -32 12 -22 0 -22 0 -14 -22 -14 -23 -21 -99 -20 -98 -21 -35 -20 -34 0 -10
0 -9 138 0 137 0 35 -18 35 -17 3 -33 3 -33 -16 -25 -16 -25 3 -22 3 -21 25
-13 25 -13 74 0 74 0 33 36 34 35 0 36 0 36 -16 19 -17 18 36 15 36 15 109 0
109 0 45 6 44 6 3 167 2 167 -11 28 -11 29 -62 -7 -62 -6 -38 -6 -37 -6 -29
12 -29 12 -12 27 -11 27 10 25 9 25 16 13 16 13 42 -6 43 -7 51 -5 51 -6 22
30 21 30 10 53 10 52 0 81 0 81 -6 35 -6 36 -93 22 -93 22 -60 0 -60 0 -12
-15z"/>
</g>
</svg>
