<?xml version="1.0" standalone="no"?>
<!DOCTYPE svg PUBLIC "-//W3C//DTD SVG 20010904//EN"
 "http://www.w3.org/TR/2001/REC-SVG-20010904/DTD/svg10.dtd">
<svg version="1.0" xmlns="http://www.w3.org/2000/svg"
 width="145.000000pt" height="89.000000pt" viewBox="0 0 145.000000 89.000000"
 preserveAspectRatio="xMidYMid meet">
<metadata>
Created by potrace 1.16, written by Peter Selinger 2001-2019
</metadata>
<g transform="translate(0.000000,89.000000) scale(0.100000,-0.100000)"
fill="#000000" stroke="none">
<path d="M306 719 l7 -171 -13 -8 -13 -8 -45 20 -45 20 -41 -6 -41 -7 -44 -21
-43 -21 -13 -31 -13 -31 7 -40 7 -40 13 -22 12 -23 24 0 24 0 6 10 6 10 33 0
34 0 10 -12 10 -13 31 -108 31 -109 16 -29 15 -30 -5 -7 -4 -7 13 -12 13 -12
5 5 4 5 160 -13 159 -12 17 7 16 6 -14 35 -15 35 0 29 0 28 15 52 15 51 26 31
26 30 40 0 40 0 28 -30 28 -30 6 -34 7 -35 -18 -66 -17 -65 17 -18 18 -17 134
1 133 1 36 7 36 7 -6 147 -6 147 13 40 14 40 34 3 34 3 10 -10 11 -11 36 0 35
0 32 20 32 19 7 26 6 25 -6 35 -7 34 -30 31 -31 30 -43 0 -43 0 -37 -15 -37
-16 -15 12 -15 13 4 149 3 148 -147 -3 -147 -3 -12 -12 -12 -12 18 -56 17 -57
-10 -23 -11 -24 -28 -18 -27 -18 -92 0 -93 0 -28 21 -28 21 -3 18 -4 17 17 39
17 38 -6 24 -6 24 -25 11 -26 12 -130 0 -131 0 8 -171z"/>
</g>
</svg>
