<?xml version="1.0" standalone="no"?>
<!DOCTYPE svg PUBLIC "-//W3C//DTD SVG 20010904//EN"
 "http://www.w3.org/TR/2001/REC-SVG-20010904/DTD/svg10.dtd">
<svg version="1.0" xmlns="http://www.w3.org/2000/svg"
 width="94.000000pt" height="91.000000pt" viewBox="0 0 94.000000 91.000000"
 preserveAspectRatio="xMidYMid meet">
<metadata>
Created by potrace 1.16, written by Peter Selinger 2001-2019
</metadata>
<g transform="translate(0.000000,91.000000) scale(0.100000,-0.100000)"
fill="#000000" stroke="none">
<path d="M4 763 l1 -148 14 -28 14 -27 23 -6 24 -6 47 16 47 16 33 0 34 0 19
-10 18 -10 11 -31 11 -32 0 -29 0 -29 -11 -21 -11 -20 -21 -24 -21 -24 -22 0
-23 0 -6 10 -6 10 -29 0 -29 0 -14 -27 -14 -28 -23 -100 -22 -100 -24 -45 -24
-45 0 -10 0 -10 162 3 163 3 35 18 35 18 3 23 4 23 -17 53 -17 53 7 21 7 21
24 15 24 16 69 -4 69 -4 16 -13 16 -13 -15 -21 -15 -21 0 -23 0 -23 19 -19 19
-19 92 -21 93 -21 45 -20 45 -20 23 0 24 0 -1 38 0 37 -8 110 -8 111 -14 22
-14 23 -45 -5 -45 -5 -36 -6 -36 -7 -22 27 -21 28 0 56 0 57 16 22 16 23 11
-10 12 -9 47 -7 47 -7 33 11 34 11 19 33 19 32 4 139 4 138 -13 9 -14 9 -457
0 -456 0 2 -147z"/>
</g>
</svg>
