<?xml version="1.0" standalone="no"?>
<!DOCTYPE svg PUBLIC "-//W3C//DTD SVG 20010904//EN"
 "http://www.w3.org/TR/2001/REC-SVG-20010904/DTD/svg10.dtd">
<svg version="1.0" xmlns="http://www.w3.org/2000/svg"
 width="319.000000pt" height="351.000000pt" viewBox="0 0 319.000000 351.000000"
 preserveAspectRatio="xMidYMid meet">
<metadata>
Created by potrace 1.16, written by Peter Selinger 2001-2019
</metadata>
<g transform="translate(0.000000,351.000000) scale(0.100000,-0.100000)"
fill="#000000" stroke="none">
<path d="M1563 3495 l-53 -15 -52 -26 -52 -26 -38 -40 -39 -41 -19 -36 -18
-37 -7 -37 -7 -37 6 -45 7 -44 33 -49 34 -48 11 -55 11 -54 -15 -51 -15 -52
-38 -34 -37 -33 -35 -22 -35 -21 -70 -22 -70 -21 -100 -15 -100 -16 -260 1
-260 1 -59 10 -59 9 -8 -5 -9 -5 0 -68 0 -67 -25 -265 -24 -264 -11 -160 -10
-160 7 -50 8 -50 33 -3 32 -3 0 9 0 10 48 20 47 20 63 13 63 12 97 -6 97 -6
60 -16 60 -17 70 -33 70 -33 48 -48 47 -48 16 -43 16 -42 -7 -37 -6 -37 -53
-52 -52 -52 -76 -37 -75 -36 -79 -22 -79 -21 -110 -1 -110 -1 -76 38 -75 37
-66 0 -66 0 -31 -31 -31 -30 -12 -42 -13 -42 1 -120 1 -120 17 -90 17 -90 35
-133 34 -133 46 -127 46 -127 16 -13 16 -12 1478 0 1478 0 0 1318 0 1317 -62
13 -63 13 -84 14 -84 14 -221 21 -221 21 -92 14 -92 15 -43 17 -43 17 -27 19
-27 20 -12 28 -11 29 7 27 6 27 37 60 37 60 0 86 0 86 -35 58 -35 58 -45 38
-45 37 -34 18 -34 17 -56 20 -56 20 -120 4 -120 4 -52 -15z"/>
</g>
</svg>
