<?xml version="1.0" standalone="no"?>
<!DOCTYPE svg PUBLIC "-//W3C//DTD SVG 20010904//EN"
 "http://www.w3.org/TR/2001/REC-SVG-20010904/DTD/svg10.dtd">
<svg version="1.0" xmlns="http://www.w3.org/2000/svg"
 width="317.000000pt" height="349.000000pt" viewBox="0 0 317.000000 349.000000"
 preserveAspectRatio="xMidYMid meet">
<metadata>
Created by potrace 1.16, written by Peter Selinger 2001-2019
</metadata>
<g transform="translate(0.000000,349.000000) scale(0.100000,-0.100000)"
fill="#000000" stroke="none">
<path d="M1563 3475 l-53 -15 -52 -26 -52 -26 -38 -40 -39 -41 -18 -36 -19
-36 -7 -33 -7 -32 7 -40 7 -40 33 -48 33 -48 12 -58 12 -57 -12 -51 -13 -50
-29 -33 -29 -33 -47 -31 -47 -30 -85 -24 -85 -25 -90 -12 -90 -12 -265 1 -265
1 -52 8 -53 9 -5 -5 -5 -5 0 -67 0 -66 -25 -265 -24 -264 -10 -150 -11 -150 8
-50 7 -50 23 -3 22 -3 0 9 0 10 48 20 47 20 63 12 63 13 107 -6 107 -6 60 -16
60 -17 70 -33 70 -33 48 -48 47 -48 16 -43 17 -43 -6 -40 -5 -41 -27 -35 -27
-35 -46 -34 -47 -35 -75 -31 -75 -32 -95 -19 -95 -20 -87 5 -88 4 -73 37 -73
36 -56 0 -56 0 -31 -31 -31 -30 -12 -42 -12 -42 0 -110 1 -110 17 -90 17 -90
35 -133 34 -133 46 -127 46 -127 16 -13 16 -12 1468 0 1468 0 0 1311 0 1310
-8 -5 -9 -5 -49 15 -49 15 -89 14 -89 14 -221 21 -221 21 -92 14 -92 15 -43
17 -43 17 -27 19 -27 20 -12 29 -12 28 6 35 6 35 38 62 38 62 0 76 0 76 -35
58 -35 58 -45 38 -45 37 -34 18 -34 17 -56 20 -56 20 -110 4 -110 4 -52 -15z"/>
</g>
</svg>
