<?xml version="1.0" standalone="no"?>
<!DOCTYPE svg PUBLIC "-//W3C//DTD SVG 20010904//EN"
 "http://www.w3.org/TR/2001/REC-SVG-20010904/DTD/svg10.dtd">
<svg version="1.0" xmlns="http://www.w3.org/2000/svg"
 width="92.000000pt" height="89.000000pt" viewBox="0 0 92.000000 89.000000"
 preserveAspectRatio="xMidYMid meet">
<metadata>
Created by potrace 1.16, written by Peter Selinger 2001-2019
</metadata>
<g transform="translate(0.000000,89.000000) scale(0.100000,-0.100000)"
fill="#000000" stroke="none">
<path d="M4 753 l1 -138 14 -27 14 -28 17 -5 17 -5 43 15 43 15 44 0 44 0 19
-10 18 -10 11 -31 11 -32 0 -39 0 -39 -11 -20 -11 -21 -16 -20 -17 -20 -24 -9
-24 -10 -23 16 -23 15 -15 0 -15 0 -14 -27 -14 -28 -22 -100 -23 -100 -19 -33
-19 -33 0 -10 0 -9 146 0 146 0 35 17 35 16 5 14 6 14 -17 51 -16 50 0 23 0
23 18 22 17 22 35 7 35 7 59 -7 58 -7 16 -16 16 -15 -19 -34 -18 -33 12 -22
11 -22 58 -15 57 -15 65 -19 65 -19 32 -13 32 -13 6 6 6 6 -9 134 -9 134 -14
23 -14 22 -40 -6 -40 -6 -40 -5 -40 -6 -19 21 -19 20 -7 41 -7 40 7 41 8 41
16 16 15 16 23 -12 23 -11 32 -6 33 -7 33 11 33 11 19 33 19 32 4 129 4 128
-13 9 -14 9 -446 0 -445 0 0 -137z"/>
</g>
</svg>
