<?xml version="1.0" standalone="no"?>
<!DOCTYPE svg PUBLIC "-//W3C//DTD SVG 20010904//EN"
 "http://www.w3.org/TR/2001/REC-SVG-20010904/DTD/svg10.dtd">
<svg version="1.0" xmlns="http://www.w3.org/2000/svg"
 width="93.000000pt" height="89.000000pt" viewBox="0 0 93.000000 89.000000"
 preserveAspectRatio="xMidYMid meet">
<metadata>
Created by potrace 1.16, written by Peter Selinger 2001-2019
</metadata>
<g transform="translate(0.000000,89.000000) scale(0.100000,-0.100000)"
fill="#000000" stroke="none">
<path d="M98 883 l-98 -4 0 -433 0 -433 38 -7 37 -6 132 0 132 0 24 9 24 9 6
16 6 16 -14 34 -15 35 0 30 0 29 26 31 26 31 43 0 43 0 23 -19 23 -19 -19 -37
-20 -36 27 -24 27 -23 73 -12 73 -12 75 -17 75 -18 17 -7 16 -7 6 28 5 28 12
103 11 102 -6 35 -7 34 -15 15 -14 15 -41 -15 -42 -14 -39 0 -40 0 -29 29 -29
29 -1 24 -1 23 2 40 2 40 13 33 14 32 14 0 15 0 35 -15 36 -15 29 0 28 0 18
13 17 13 10 44 10 45 -7 98 -7 99 -21 -7 -21 -6 -137 -24 -137 -24 -21 -11
-20 -11 0 -16 0 -16 17 -19 16 -18 -10 -23 -11 -24 -35 -16 -35 -17 -35 0 -34
0 -32 11 -31 11 -10 18 -10 19 0 40 0 41 16 40 17 41 -11 11 -11 11 -73 2 -73
2 -97 -4z"/>
</g>
</svg>
