<?xml version="1.0" standalone="no"?>
<!DOCTYPE svg PUBLIC "-//W3C//DTD SVG 20010904//EN"
 "http://www.w3.org/TR/2001/REC-SVG-20010904/DTD/svg10.dtd">
<svg version="1.0" xmlns="http://www.w3.org/2000/svg"
 width="125.000000pt" height="115.000000pt" viewBox="0 0 125.000000 115.000000"
 preserveAspectRatio="xMidYMid meet">
<metadata>
Created by potrace 1.16, written by Peter Selinger 2001-2019
</metadata>
<g transform="translate(0.000000,115.000000) scale(0.100000,-0.100000)"
fill="#000000" stroke="none">
<path d="M711 1134 l-23 -17 -14 -33 -14 -33 0 -29 0 -28 15 -20 14 -19 1 -18
0 -18 -37 -16 -38 -15 -160 3 -160 4 -3 -140 -3 -140 -7 -7 -7 -7 -55 15 -54
14 -49 0 -49 0 -27 -28 -28 -27 -6 -65 -7 -65 9 -38 9 -37 15 -24 16 -23 37
-18 37 -18 91 6 91 6 22 6 22 7 12 -26 12 -26 -17 -61 -17 -61 -24 -49 -25
-48 0 -14 0 -14 61 -7 62 -6 142 0 143 0 13 16 12 15 -17 50 -18 49 -1 35 -1
35 21 27 20 28 32 3 32 3 24 -15 24 -16 -16 -28 -16 -28 7 -27 6 -26 20 -11
20 -10 102 -21 103 -21 69 -25 68 -25 8 9 8 8 16 90 16 90 0 56 0 57 -19 23
-19 24 -50 -18 -50 -17 -21 0 -22 0 -34 35 -35 34 -1 28 -1 28 2 30 2 30 20
28 20 28 17 -15 18 -16 46 0 46 0 15 15 15 16 12 42 11 42 -5 114 -6 114 -6 5
-5 5 -77 -16 -78 -16 -35 -2 -35 -1 -26 1 -25 1 -19 14 -19 14 17 25 17 26 0
33 0 33 -19 40 -18 40 -24 22 -24 22 -28 10 -28 11 -22 0 -23 0 -23 -16z"/>
</g>
</svg>
