<?xml version="1.0" standalone="no"?>
<!DOCTYPE svg PUBLIC "-//W3C//DTD SVG 20010904//EN"
 "http://www.w3.org/TR/2001/REC-SVG-20010904/DTD/svg10.dtd">
<svg version="1.0" xmlns="http://www.w3.org/2000/svg"
 width="114.000000pt" height="113.000000pt" viewBox="0 0 114.000000 113.000000"
 preserveAspectRatio="xMidYMid meet">
<metadata>
Created by potrace 1.16, written by Peter Selinger 2001-2019
</metadata>
<g transform="translate(0.000000,113.000000) scale(0.100000,-0.100000)"
fill="#000000" stroke="none">
<path d="M378 1114 l-27 -14 -12 -39 -12 -39 16 -68 15 -69 -4 -7 -4 -7 -43
-6 -42 -6 -125 10 -125 9 -4 -3 -3 -4 -5 -143 -5 -143 15 -20 15 -20 34 14 33
14 31 4 32 5 20 -11 19 -10 17 -35 16 -34 0 -44 0 -43 -19 -40 -18 -40 -19
-17 -19 -16 -26 -7 -26 -6 -17 16 -16 16 -17 -3 -17 -3 -13 -25 -13 -25 0
-122 0 -121 85 -7 85 -7 55 7 56 7 24 22 25 23 0 28 0 28 -16 53 -17 52 6 15
6 16 38 10 38 11 41 0 41 0 26 -20 25 -20 6 -26 7 -25 -16 -31 -15 -31 0 -23
0 -24 23 -15 23 -15 130 -10 129 -10 52 -6 51 -6 4 171 3 170 21 21 20 21 37
-16 36 -15 29 0 29 0 17 19 17 19 6 35 5 35 -12 50 -12 50 -18 17 -19 17 -45
5 -45 6 -47 -12 -46 -12 -4 3 -3 3 12 138 11 138 -14 10 -15 9 -55 21 -55 21
-90 19 -90 19 -28 12 -28 11 -10 19 -10 19 15 24 16 24 0 10 0 10 -30 16 -29
15 -43 0 -43 -1 -27 -15z"/>
</g>
</svg>
