<?xml version="1.0" standalone="no"?>
<!DOCTYPE svg PUBLIC "-//W3C//DTD SVG 20010904//EN"
 "http://www.w3.org/TR/2001/REC-SVG-20010904/DTD/svg10.dtd">
<svg version="1.0" xmlns="http://www.w3.org/2000/svg"
 width="118.000000pt" height="116.000000pt" viewBox="0 0 118.000000 116.000000"
 preserveAspectRatio="xMidYMid meet">
<metadata>
Created by potrace 1.16, written by Peter Selinger 2001-2019
</metadata>
<g transform="translate(0.000000,116.000000) scale(0.100000,-0.100000)"
fill="#000000" stroke="none">
<path d="M406 1139 l-26 -20 0 -40 0 -40 16 -31 16 -32 -21 -17 -22 -18 -56
-7 -56 -7 -122 7 -122 7 -6 -92 -7 -92 0 -98 0 -98 9 -5 8 -6 74 16 74 16 37
-15 38 -16 12 -25 11 -26 -12 -40 -12 -41 -31 -19 -31 -19 -28 15 -28 14 -20
0 -21 0 -15 -24 -16 -24 -15 -147 -16 -146 5 -14 6 -13 145 -7 145 -7 26 6 25
6 0 19 0 18 -15 31 -16 31 14 33 14 34 32 27 33 27 16 1 17 1 15 -2 15 -2 22
-20 22 -21 11 -33 11 -33 -15 -30 -16 -30 0 -35 0 -35 22 -12 22 -12 100 6
101 5 72 17 72 17 7 16 7 17 12 146 13 146 12 22 12 23 31 -7 32 -6 41 -6 42
-5 20 22 20 21 5 32 5 32 -8 47 -7 48 -18 20 -18 20 -34 6 -34 6 -60 -14 -60
-15 -11 21 -11 20 6 147 5 148 -71 25 -72 26 -68 15 -67 15 -25 16 -25 16 0
14 0 15 15 5 15 6 0 13 0 13 -40 16 -40 16 -59 0 -58 0 -27 -21z"/>
</g>
</svg>
