<?xml version="1.0" standalone="no"?>
<!DOCTYPE svg PUBLIC "-//W3C//DTD SVG 20010904//EN"
 "http://www.w3.org/TR/2001/REC-SVG-20010904/DTD/svg10.dtd">
<svg version="1.0" xmlns="http://www.w3.org/2000/svg"
 width="116.000000pt" height="114.000000pt" viewBox="0 0 116.000000 114.000000"
 preserveAspectRatio="xMidYMid meet">
<metadata>
Created by potrace 1.16, written by Peter Selinger 2001-2019
</metadata>
<g transform="translate(0.000000,114.000000) scale(0.100000,-0.100000)"
fill="#000000" stroke="none">
<path d="M405 1119 l-27 -22 5 -36 4 -36 14 -33 14 -34 -23 -18 -23 -19 -56
-7 -57 -7 -122 6 -121 6 -7 -91 -6 -91 0 -87 0 -87 5 -5 5 -5 65 15 65 14 36
-7 36 -6 24 -24 24 -24 0 -31 0 -31 -14 -34 -15 -35 -34 -16 -34 -16 -31 16
-31 16 -10 0 -11 0 -15 -24 -16 -24 -15 -143 -15 -142 8 -8 8 -7 145 -7 145
-6 14 10 14 9 -17 37 -17 36 6 30 7 30 29 34 30 34 33 11 33 11 25 -10 25 -10
21 -26 21 -27 7 -33 6 -33 -16 -30 -16 -31 0 -25 0 -25 22 -12 22 -12 90 6 91
6 72 16 72 17 7 16 7 17 12 146 13 146 11 21 12 22 26 0 27 0 31 -11 32 -12
24 6 24 6 14 22 13 22 -1 56 0 55 -19 25 -18 25 -28 9 -28 9 -67 -16 -66 -16
-13 17 -14 18 4 152 5 152 -71 25 -71 26 -68 15 -67 15 -25 16 -25 16 0 24 0
23 16 9 16 9 -41 16 -41 17 -49 0 -48 0 -28 -21z"/>
</g>
</svg>
