<?xml version="1.0" standalone="no"?>
<!DOCTYPE svg PUBLIC "-//W3C//DTD SVG 20010904//EN"
 "http://www.w3.org/TR/2001/REC-SVG-20010904/DTD/svg10.dtd">
<svg version="1.0" xmlns="http://www.w3.org/2000/svg"
 width="119.000000pt" height="117.000000pt" viewBox="0 0 119.000000 117.000000"
 preserveAspectRatio="xMidYMid meet">
<metadata>
Created by potrace 1.16, written by Peter Selinger 2001-2019
</metadata>
<g transform="translate(0.000000,117.000000) scale(0.100000,-0.100000)"
fill="#000000" stroke="none">
<path d="M633 1160 l-23 -9 0 -13 1 -13 14 -19 15 -20 0 -35 -1 -36 -13 -17
-13 -17 -29 -12 -29 -12 -155 -1 -155 -1 0 -130 0 -130 -13 -22 -13 -23 -25
-6 -25 -6 -42 16 -43 16 -21 0 -22 0 -12 -21 -11 -21 -8 -59 -8 -59 9 -34 10
-35 27 -22 27 -21 60 5 60 6 27 6 27 7 11 -39 12 -39 -16 -134 -16 -133 6 -6
6 -6 151 0 152 1 48 21 47 22 11 28 11 28 -10 35 -9 35 -8 17 -7 18 27 10 28
11 18 -6 18 -6 20 -32 20 -33 7 -40 6 -41 -16 -31 -16 -31 0 -20 0 -20 22 -15
22 -16 66 0 65 1 60 13 60 13 62 18 62 17 8 77 8 76 0 91 0 91 -14 17 -15 18
-35 -6 -36 -6 -52 -6 -52 -6 -46 22 -47 23 -15 33 -16 33 17 26 18 27 41 19
42 19 53 0 53 0 36 -15 35 -15 16 0 15 0 -7 187 -7 187 -4 4 -4 4 -164 13
-164 13 -21 11 -22 12 0 19 0 19 10 6 10 6 0 35 0 34 -32 20 -33 20 -45 -1
-45 0 -22 -9z"/>
</g>
</svg>
