<?xml version="1.0" standalone="no"?>
<!DOCTYPE svg PUBLIC "-//W3C//DTD SVG 20010904//EN"
 "http://www.w3.org/TR/2001/REC-SVG-20010904/DTD/svg10.dtd">
<svg version="1.0" xmlns="http://www.w3.org/2000/svg"
 width="122.000000pt" height="117.000000pt" viewBox="0 0 122.000000 117.000000"
 preserveAspectRatio="xMidYMid meet">
<metadata>
Created by potrace 1.16, written by Peter Selinger 2001-2019
</metadata>
<g transform="translate(0.000000,117.000000) scale(0.100000,-0.100000)"
fill="#000000" stroke="none">
<path d="M793 1159 l-32 -9 -7 -11 -6 -11 18 -34 18 -34 -12 -47 -13 -48 -21
-22 -21 -23 -47 0 -47 0 -41 30 -41 29 -12 39 -11 39 21 40 20 41 -17 7 -17 6
-142 -7 -141 -7 -4 -132 -3 -133 -19 -21 -19 -21 -44 0 -44 0 -31 16 -32 16
-17 -21 -18 -22 -7 -45 -7 -46 6 -53 5 -53 13 -24 12 -23 5 13 4 12 32 0 32 0
16 -28 16 -27 22 -84 21 -84 20 -39 20 -39 -6 -9 -5 -9 9 -5 10 -6 165 -3 165
-2 28 -21 28 -21 3 -32 3 -32 -15 -24 -16 -24 0 -26 0 -26 25 -23 26 -24 26
-5 27 -5 22 9 23 8 16 25 17 26 9 41 10 41 -16 60 -15 60 0 13 0 14 40 11 39
11 103 -16 104 -15 34 -10 35 -10 11 0 11 0 32 69 32 69 11 55 12 56 -12 26
-13 27 -32 -6 -32 -6 -85 -6 -85 -5 -35 19 -35 19 -20 34 -19 33 1 75 2 75 19
25 19 26 27 9 26 10 68 -13 67 -13 25 -1 25 -2 3 146 3 146 -93 11 -93 11 -65
5 -65 5 -32 -10z"/>
</g>
</svg>
