<?xml version="1.0" standalone="no"?>
<!DOCTYPE svg PUBLIC "-//W3C//DTD SVG 20010904//EN"
 "http://www.w3.org/TR/2001/REC-SVG-20010904/DTD/svg10.dtd">
<svg version="1.0" xmlns="http://www.w3.org/2000/svg"
 width="151.000000pt" height="92.000000pt" viewBox="0 0 151.000000 92.000000"
 preserveAspectRatio="xMidYMid meet">
<metadata>
Created by potrace 1.16, written by Peter Selinger 2001-2019
</metadata>
<g transform="translate(0.000000,92.000000) scale(0.100000,-0.100000)"
fill="#000000" stroke="none">
<path d="M843 905 l-23 -16 0 -18 0 -19 15 -35 15 -36 0 -28 0 -27 -20 -42
-21 -42 -26 -17 -25 -17 -44 17 -44 17 -16 30 -16 31 17 37 16 36 -3 39 -3 38
-28 21 -28 21 -160 3 -159 4 0 -34 0 -33 10 -134 10 -134 -3 -3 -3 -3 -43 11
-43 11 -59 -11 -58 -11 -37 -17 -36 -17 -15 -34 -14 -34 11 -39 10 -39 30 -25
31 -25 35 -7 35 -6 77 5 77 5 22 7 23 7 10 -26 9 -26 -10 -57 -11 -58 -30 -78
-31 -77 6 -6 6 -6 103 -5 103 -6 55 12 54 12 18 16 18 16 0 42 0 43 -15 35
-15 36 24 27 23 28 65 4 64 4 32 -27 32 -27 0 -12 0 -13 -17 -33 -16 -33 14
-26 15 -26 39 -11 40 -12 115 -16 115 -16 28 -6 27 -6 0 33 0 34 -15 55 -15
55 -6 65 -6 65 15 20 16 20 20 -12 21 -13 63 0 63 0 51 25 51 26 17 26 17 26
-4 65 -4 65 -25 20 -24 19 -95 -5 -95 -6 -23 -7 -24 -7 4 159 3 159 -45 7 -45
7 -135 6 -135 7 -22 -17z"/>
</g>
</svg>
