<?xml version="1.0" standalone="no"?>
<!DOCTYPE svg PUBLIC "-//W3C//DTD SVG 20010904//EN"
 "http://www.w3.org/TR/2001/REC-SVG-20010904/DTD/svg10.dtd">
<svg version="1.0" xmlns="http://www.w3.org/2000/svg"
 width="149.000000pt" height="90.000000pt" viewBox="0 0 149.000000 90.000000"
 preserveAspectRatio="xMidYMid meet">
<metadata>
Created by potrace 1.16, written by Peter Selinger 2001-2019
</metadata>
<g transform="translate(0.000000,90.000000) scale(0.100000,-0.100000)"
fill="#000000" stroke="none">
<path d="M841 883 l-24 -20 16 -42 17 -41 0 -39 0 -38 -22 -42 -23 -42 -27
-17 -26 -16 -42 13 -41 12 -19 19 -19 19 -7 26 -6 26 17 38 17 38 -4 28 -3 28
-28 21 -28 21 -150 3 -149 4 0 -24 0 -23 11 -139 10 -139 -5 -12 -5 -13 -46
15 -46 16 -55 -11 -55 -12 -36 -16 -35 -17 -13 -30 -13 -30 9 -30 9 -30 21
-23 22 -23 35 -12 35 -11 76 6 76 6 32 6 33 6 10 -28 11 -28 -11 -66 -11 -65
-28 -70 -29 -70 37 -7 36 -7 70 0 70 -1 45 11 45 10 17 16 18 16 0 31 0 30
-16 43 -17 43 17 25 17 26 25 9 25 10 59 0 58 0 31 -26 31 -26 0 -23 0 -23
-15 -28 -14 -28 13 -21 13 -20 39 -11 39 -12 115 -15 115 -15 19 -8 19 -7 -6
39 -6 39 -15 70 -16 70 0 43 0 43 10 20 11 19 24 0 24 0 6 -10 6 -10 58 0 57
0 51 25 51 26 17 26 17 26 -4 55 -5 55 -23 19 -22 18 -62 0 -61 0 -35 -9 -35
-8 -24 -7 -23 -8 3 163 4 164 -45 7 -45 7 -125 7 -125 7 -24 -20z"/>
</g>
</svg>
