<?xml version="1.0" standalone="no"?>
<!DOCTYPE svg PUBLIC "-//W3C//DTD SVG 20010904//EN"
 "http://www.w3.org/TR/2001/REC-SVG-20010904/DTD/svg10.dtd">
<svg version="1.0" xmlns="http://www.w3.org/2000/svg"
 width="400.000000pt" height="340.000000pt" viewBox="0 0 400.000000 340.000000"
 preserveAspectRatio="xMidYMid meet">
<metadata>
Created by potrace 1.16, written by Peter Selinger 2001-2019
</metadata>
<g transform="translate(0.000000,340.000000) scale(0.100000,-0.100000)"
fill="#000000" stroke="none">
<path d="M1602 3390 l-43 -9 -52 -24 -52 -24 -34 -34 -34 -34 -26 -55 -26 -55
1 -90 0 -90 18 -65 18 -65 28 -60 29 -60 2 -15 3 -15 -8 -22 -7 -22 -43 -20
-43 -21 -74 -10 -74 -9 -115 -1 -115 0 -310 15 -310 15 -57 0 -58 0 0 -73 0
-74 -16 -219 -16 -219 -1 -185 -1 -185 12 -55 12 -55 24 -30 23 -29 35 0 35 0
64 31 64 31 53 11 53 11 80 0 80 0 77 -16 76 -16 46 -15 45 -15 54 -26 54 -27
47 -42 47 -42 13 -31 12 -30 -6 -26 -7 -27 -32 -29 -31 -30 -55 -27 -56 -28
-65 -21 -65 -22 -75 -15 -75 -16 -105 -6 -105 -6 -74 12 -74 12 -76 30 -76 31
-57 1 -57 2 -28 -21 -28 -21 -20 -34 -20 -34 -4 -123 -3 -123 22 -127 22 -126
43 -151 43 -150 44 -120 45 -120 1486 -3 1487 -2 0 8 0 8 -46 124 -46 124 -34
125 -34 125 -22 110 -21 111 -1 100 0 100 12 42 12 42 31 30 31 31 46 0 46 0
73 -37 74 -36 97 -5 97 -4 95 20 95 19 75 32 75 31 47 35 46 34 28 36 27 36 5
50 5 49 -17 43 -16 43 -47 48 -48 48 -70 33 -70 33 -60 17 -60 16 -117 6 -117
6 -63 -12 -63 -13 -45 -19 -44 -20 -8 -12 -7 -12 -13 13 -13 13 2 117 2 117
30 331 31 331 0 76 0 76 -30 21 -30 21 -82 39 -83 38 -100 30 -100 30 -223 47
-223 47 -53 18 -54 18 -39 26 -40 27 -12 25 -11 25 0 18 0 18 11 32 11 31 17
0 18 0 16 18 17 19 0 26 0 26 -31 36 -31 35 -71 35 -72 35 -60 15 -60 16 -115
4 -115 4 -43 -9z"/>
</g>
</svg>
