<?xml version="1.0" standalone="no"?>
<!DOCTYPE svg PUBLIC "-//W3C//DTD SVG 20010904//EN"
 "http://www.w3.org/TR/2001/REC-SVG-20010904/DTD/svg10.dtd">
<svg version="1.0" xmlns="http://www.w3.org/2000/svg"
 width="149.000000pt" height="113.000000pt" viewBox="0 0 149.000000 113.000000"
 preserveAspectRatio="xMidYMid meet">
<metadata>
Created by potrace 1.16, written by Peter Selinger 2001-2019
</metadata>
<g transform="translate(0.000000,113.000000) scale(0.100000,-0.100000)"
fill="#000000" stroke="none">
<path d="M250 1115 l0 -15 11 0 11 0 -4 -122 -4 -123 -19 -32 -19 -32 -28 -10
-28 -10 -35 6 -35 6 -6 8 -5 9 -24 0 -25 0 -16 -25 -17 -26 0 -70 0 -70 20
-27 20 -27 54 2 54 1 30 7 30 6 14 -22 14 -23 8 -125 9 -125 -11 -7 -12 -7 7
-17 6 -17 108 6 107 7 56 5 56 6 -5 -51 -5 -51 17 -45 17 -44 35 -31 35 -30
47 0 48 0 24 16 25 17 13 15 12 16 0 39 0 38 -11 21 -11 20 15 16 15 15 139 9
138 8 34 -5 33 -6 -4 33 -5 33 -26 89 -27 88 0 43 0 43 14 11 15 12 20 -10 20
-11 59 0 58 0 51 15 50 15 38 36 38 35 -5 70 -5 70 -22 20 -21 20 -48 5 -47 5
-77 -14 -78 -13 -6 19 -6 18 6 107 7 107 5 33 5 32 -476 0 -475 0 0 -15z"/>
</g>
</svg>
