<?xml version="1.0" standalone="no"?>
<!DOCTYPE svg PUBLIC "-//W3C//DTD SVG 20010904//EN"
 "http://www.w3.org/TR/2001/REC-SVG-20010904/DTD/svg10.dtd">
<svg version="1.0" xmlns="http://www.w3.org/2000/svg"
 width="147.000000pt" height="111.000000pt" viewBox="0 0 147.000000 111.000000"
 preserveAspectRatio="xMidYMid meet">
<metadata>
Created by potrace 1.16, written by Peter Selinger 2001-2019
</metadata>
<g transform="translate(0.000000,111.000000) scale(0.100000,-0.100000)"
fill="#000000" stroke="none">
<path d="M259 1101 l13 -9 -4 -128 -4 -129 -19 -32 -19 -33 -33 -11 -33 -11
-33 7 -32 6 -23 11 -23 12 -15 -16 -16 -16 -8 -41 -7 -41 7 -40 7 -41 19 -20
19 -21 40 6 40 5 40 6 40 6 14 -22 14 -23 9 -135 9 -134 -11 -7 -12 -7 10 -7
11 -6 161 10 162 11 5 -5 5 -4 -11 -20 -11 -21 0 -33 0 -33 19 -40 18 -41 32
-27 33 -27 37 0 37 0 24 16 25 17 13 15 12 16 0 28 0 29 -15 28 -14 29 19 17
20 18 147 9 148 9 23 -4 24 -5 -5 22 -4 21 -27 89 -26 88 0 53 0 53 16 13 15
13 33 -12 32 -12 45 0 45 0 51 15 50 15 38 36 38 35 -6 61 -5 60 -20 19 -21
19 -38 5 -38 6 -85 -15 -84 -15 -8 12 -8 12 1 55 1 55 6 93 7 92 -465 0 -465
0 14 -9z"/>
</g>
</svg>
