<?xml version="1.0" standalone="no"?>
<!DOCTYPE svg PUBLIC "-//W3C//DTD SVG 20010904//EN"
 "http://www.w3.org/TR/2001/REC-SVG-20010904/DTD/svg10.dtd">
<svg version="1.0" xmlns="http://www.w3.org/2000/svg"
 width="398.000000pt" height="338.000000pt" viewBox="0 0 398.000000 338.000000"
 preserveAspectRatio="xMidYMid meet">
<metadata>
Created by potrace 1.16, written by Peter Selinger 2001-2019
</metadata>
<g transform="translate(0.000000,338.000000) scale(0.100000,-0.100000)"
fill="#000000" stroke="none">
<path d="M1602 3370 l-43 -9 -52 -24 -52 -24 -34 -34 -34 -34 -26 -55 -25 -55
0 -80 1 -80 17 -65 18 -65 28 -60 29 -60 6 -21 6 -22 -12 -26 -12 -26 -42 -20
-42 -20 -74 -10 -74 -9 -125 -1 -125 0 -310 15 -310 15 -47 0 -48 0 0 -73 0
-74 -16 -219 -16 -219 -1 -175 -1 -175 12 -55 12 -55 23 -29 23 -29 27 1 27 0
63 30 62 30 53 11 53 11 90 0 90 0 77 -16 76 -16 46 -15 45 -15 53 -26 54 -26
44 -39 45 -39 14 -29 15 -28 0 -26 0 -26 -14 -27 -14 -27 -29 -21 -29 -22 -49
-24 -50 -25 -65 -21 -65 -22 -75 -16 -75 -15 -115 -6 -115 -6 -74 12 -74 12
-76 30 -76 30 -48 1 -48 1 -27 -20 -27 -20 -20 -34 -20 -34 -3 -115 -4 -115
21 -120 22 -120 39 -142 40 -142 46 -128 46 -128 7 -8 7 -7 1471 2 1470 3 -39
105 -40 105 -34 120 -35 119 -26 126 -26 125 -1 115 -1 115 13 42 12 42 31 30
31 31 56 0 56 0 73 -36 73 -37 88 -4 87 -5 95 20 95 19 75 32 75 31 47 35 46
34 27 35 27 35 5 41 6 40 -17 43 -16 43 -47 48 -48 48 -70 33 -70 33 -60 17
-60 16 -107 6 -107 6 -63 -13 -63 -12 -47 -20 -48 -20 0 -10 0 -9 -22 3 -23 3
-7 50 -8 50 11 150 10 150 24 264 25 265 0 67 0 68 -30 21 -30 21 -82 39 -83
38 -100 30 -100 30 -223 47 -223 47 -53 18 -54 18 -39 26 -40 27 -12 25 -11
25 0 28 0 28 11 32 11 31 17 0 18 0 16 18 17 19 0 16 0 16 -31 36 -31 35 -71
35 -72 35 -60 15 -60 15 -105 5 -105 4 -43 -9z"/>
</g>
</svg>
