<?xml version="1.0" standalone="no"?>
<!DOCTYPE svg PUBLIC "-//W3C//DTD SVG 20010904//EN"
 "http://www.w3.org/TR/2001/REC-SVG-20010904/DTD/svg10.dtd">
<svg version="1.0" xmlns="http://www.w3.org/2000/svg"
 width="100.000000pt" height="114.000000pt" viewBox="0 0 100.000000 114.000000"
 preserveAspectRatio="xMidYMid meet">
<metadata>
Created by potrace 1.16, written by Peter Selinger 2001-2019
</metadata>
<g transform="translate(0.000000,114.000000) scale(0.100000,-0.100000)"
fill="#000000" stroke="none">
<path d="M13 998 l-11 -143 3 -3 3 -3 46 12 47 12 45 -6 45 -5 19 -17 18 -17
12 -50 12 -50 -5 -35 -6 -35 -17 -19 -17 -19 -29 0 -29 0 -36 15 -37 16 -20
-21 -21 -21 -3 -169 -4 -169 176 -3 175 -3 18 -17 17 -18 -14 -47 -13 -48 -4
-40 -5 -41 20 -24 20 -25 64 0 63 1 40 19 40 20 3 18 4 19 -17 12 -16 12 6 15
6 16 23 11 22 10 80 22 79 22 57 26 56 26 -1 16 -1 15 26 65 27 65 11 65 11
65 -11 29 -10 28 -33 -6 -32 -6 -76 -6 -76 -6 -35 11 -35 12 -22 23 -21 23 -9
30 -9 30 13 30 13 30 35 17 36 16 55 12 55 11 46 -16 46 -15 5 13 5 12 -10
139 -11 139 0 20 0 20 -147 -3 -148 -4 -32 -14 -33 -13 0 -14 0 -15 15 -12 15
-12 0 -29 0 -28 -35 -36 -34 -37 -76 4 -75 3 -17 17 -17 17 18 33 18 33 -4 40
-3 40 -35 17 -35 18 -135 0 -136 0 -11 -142z"/>
</g>
</svg>
