<?xml version="1.0" standalone="no"?>
<!DOCTYPE svg PUBLIC "-//W3C//DTD SVG 20010904//EN"
 "http://www.w3.org/TR/2001/REC-SVG-20010904/DTD/svg10.dtd">
<svg version="1.0" xmlns="http://www.w3.org/2000/svg"
 width="123.000000pt" height="137.000000pt" viewBox="0 0 123.000000 137.000000"
 preserveAspectRatio="xMidYMid meet">
<metadata>
Created by potrace 1.16, written by Peter Selinger 2001-2019
</metadata>
<g transform="translate(0.000000,137.000000) scale(0.100000,-0.100000)"
fill="#000000" stroke="none">
<path d="M398 1359 l-18 -10 0 -27 0 -28 11 -11 11 -11 1 -35 1 -35 -17 -26
-17 -26 -30 -15 -29 -15 -73 -10 -73 -11 -82 7 -83 7 0 -149 0 -149 20 -32 19
-32 37 -7 37 -7 53 10 53 9 5 -20 6 -21 0 -38 0 -39 -30 -29 -29 -30 -37 16
-36 15 -29 0 -28 0 -17 -31 -16 -32 -1 -161 -2 -161 150 0 150 -1 29 -7 28 -8
-7 -22 -7 -22 -5 -64 -6 -64 24 -18 24 -19 72 0 73 0 20 20 21 21 9 25 10 25
0 32 -1 32 -14 40 -15 40 17 12 17 13 55 0 56 0 95 -20 95 -20 23 0 22 0 0 9
0 9 -31 77 -30 77 -16 74 -16 74 12 26 12 26 22 -8 22 -8 95 0 95 -1 43 13 43
13 20 20 19 19 0 47 0 48 -24 30 -24 30 -74 0 -73 0 -50 -5 -50 -5 0 157 0
157 -15 14 -15 14 -60 16 -60 15 -68 12 -68 12 -21 18 -22 17 13 40 13 40 -3
19 -4 19 -35 17 -35 18 -70 0 -70 -1 -17 -10z"/>
</g>
</svg>
