<?xml version="1.0" standalone="no"?>
<!DOCTYPE svg PUBLIC "-//W3C//DTD SVG 20010904//EN"
 "http://www.w3.org/TR/2001/REC-SVG-20010904/DTD/svg10.dtd">
<svg version="1.0" xmlns="http://www.w3.org/2000/svg"
 width="121.000000pt" height="135.000000pt" viewBox="0 0 121.000000 135.000000"
 preserveAspectRatio="xMidYMid meet">
<metadata>
Created by potrace 1.16, written by Peter Selinger 2001-2019
</metadata>
<g transform="translate(0.000000,135.000000) scale(0.100000,-0.100000)"
fill="#000000" stroke="none">
<path d="M398 1339 l-18 -10 0 -17 0 -18 12 -12 11 -11 1 -43 1 -44 -18 -27
-17 -27 -30 -15 -29 -15 -78 -11 -77 -11 -78 7 -78 7 0 -138 0 -139 19 -32 20
-31 30 -7 31 -7 43 7 42 7 7 12 7 11 12 -12 13 -13 4 -60 4 -60 -16 -25 -17
-26 -23 -10 -23 -11 -38 16 -37 16 -19 0 -18 0 -17 -31 -16 -31 -1 -151 -2
-152 160 0 160 -1 22 -12 22 -12 -14 -41 -15 -42 0 -42 0 -43 25 -16 24 -16
61 0 61 0 24 26 25 26 6 34 6 33 -18 57 -18 57 19 13 19 14 64 0 64 0 100 -20
100 -21 8 3 8 3 -30 75 -30 74 -16 78 -16 77 10 28 10 28 34 -4 35 -3 85 -1
85 -1 43 12 43 13 20 20 19 19 0 38 0 37 -23 29 -23 29 -50 4 -49 5 -70 -15
-70 -15 -8 12 -8 11 4 152 5 152 -17 14 -16 14 -41 11 -41 12 -83 16 -84 16
-18 9 -18 9 -10 20 -10 19 16 35 17 34 -6 17 -7 16 -35 14 -34 15 -58 0 -58
-1 -17 -10z"/>
</g>
</svg>
