<?xml version="1.0" standalone="no"?>
<!DOCTYPE svg PUBLIC "-//W3C//DTD SVG 20010904//EN"
 "http://www.w3.org/TR/2001/REC-SVG-20010904/DTD/svg10.dtd">
<svg version="1.0" xmlns="http://www.w3.org/2000/svg"
 width="116.000000pt" height="137.000000pt" viewBox="0 0 116.000000 137.000000"
 preserveAspectRatio="xMidYMid meet">
<metadata>
Created by potrace 1.16, written by Peter Selinger 2001-2019
</metadata>
<g transform="translate(0.000000,137.000000) scale(0.100000,-0.100000)"
fill="#000000" stroke="none">
<path d="M395 1338 l-27 -32 5 -51 6 -50 7 -27 6 -28 -28 -11 -29 -11 -168 5
-167 4 2 -441 3 -441 160 -5 160 -5 25 -14 25 -14 7 -10 6 -10 -14 -40 -14
-40 0 -38 0 -39 21 -21 21 -21 79 4 79 3 36 39 36 40 -6 85 -5 86 -3 25 -3 25
70 -1 70 -1 60 -22 60 -23 38 -5 37 -5 0 15 0 15 15 12 15 13 35 112 35 113
16 13 15 12 11 -11 12 -12 18 0 18 0 4 22 5 23 5 65 6 65 -10 40 -9 39 -23 18
-23 19 -60 -5 -60 -5 -21 -6 -21 -7 -8 29 -7 28 7 137 7 136 -28 15 -29 15
-70 15 -70 15 -72 12 -72 12 -26 20 -26 20 16 24 15 23 0 20 0 20 -22 15 -22
16 -52 0 -52 0 -27 -32z"/>
</g>
</svg>
