<?xml version="1.0" standalone="no"?>
<!DOCTYPE svg PUBLIC "-//W3C//DTD SVG 20010904//EN"
 "http://www.w3.org/TR/2001/REC-SVG-20010904/DTD/svg10.dtd">
<svg version="1.0" xmlns="http://www.w3.org/2000/svg"
 width="114.000000pt" height="135.000000pt" viewBox="0 0 114.000000 135.000000"
 preserveAspectRatio="xMidYMid meet">
<metadata>
Created by potrace 1.16, written by Peter Selinger 2001-2019
</metadata>
<g transform="translate(0.000000,135.000000) scale(0.100000,-0.100000)"
fill="#000000" stroke="none">
<path d="M396 1319 l-26 -31 0 -29 0 -30 15 -35 15 -36 -10 -18 -10 -19 -36
-7 -35 -6 -155 4 -154 4 2 -431 3 -430 160 -6 160 -5 27 -14 28 -13 5 -17 5
-17 -15 -43 -15 -43 0 -28 0 -29 21 -21 21 -21 70 4 69 4 36 39 35 39 -6 75
-6 76 -3 35 -2 35 80 -1 80 -1 60 -22 60 -23 28 -5 27 -5 0 13 0 12 16 18 15
17 37 113 37 113 17 10 18 11 21 -13 21 -13 6 6 6 6 7 74 7 73 -8 38 -9 38
-23 18 -23 18 -31 0 -31 0 -47 -14 -47 -14 -11 26 -10 27 7 142 7 142 -29 14
-28 15 -70 15 -70 15 -73 12 -73 12 -27 23 -27 24 20 36 19 37 -23 19 -23 19
-43 0 -43 0 -26 -31z"/>
</g>
</svg>
