<?xml version="1.0" standalone="no"?>
<!DOCTYPE svg PUBLIC "-//W3C//DTD SVG 20010904//EN"
 "http://www.w3.org/TR/2001/REC-SVG-20010904/DTD/svg10.dtd">
<svg version="1.0" xmlns="http://www.w3.org/2000/svg"
 width="124.000000pt" height="118.000000pt" viewBox="0 0 124.000000 118.000000"
 preserveAspectRatio="xMidYMid meet">
<metadata>
Created by potrace 1.16, written by Peter Selinger 2001-2019
</metadata>
<g transform="translate(0.000000,118.000000) scale(0.100000,-0.100000)"
fill="#000000" stroke="none">
<path d="M652 1168 l-22 -11 -6 -23 -6 -22 16 -30 16 -31 0 -21 0 -21 -34 -34
-34 -34 -44 -12 -43 -13 -115 1 -115 0 3 -121 4 -122 -11 -41 -12 -42 -16 -16
-16 -17 -26 7 -26 7 -56 5 -56 5 -26 -32 -27 -32 0 -44 0 -45 14 -34 15 -35
45 0 45 0 6 10 6 10 14 0 14 0 15 -27 14 -28 21 -100 21 -100 12 -46 12 -47
51 -6 50 -6 146 0 147 0 23 19 24 19 -13 43 -13 44 -6 28 -5 27 11 14 12 14
27 5 26 5 37 -14 36 -15 21 -38 22 -39 -6 -16 -6 -16 -9 0 -9 0 0 -27 0 -28 9
-14 9 -13 43 -9 44 -8 125 10 125 9 22 5 21 5 0 32 0 33 11 65 11 65 0 60 0
60 -13 25 -13 25 -23 3 -24 4 -59 -17 -58 -16 -28 13 -27 13 -14 41 -15 42 15
37 14 38 17 10 17 11 25 -13 24 -14 41 -1 40 -1 23 25 23 24 0 161 0 160 -130
-3 -130 -3 -50 6 -50 6 -19 14 -19 14 17 59 16 59 -6 31 -6 32 -24 25 -23 25
-53 -1 -53 0 -23 -11z"/>
</g>
</svg>
