<?xml version="1.0" standalone="no"?>
<!DOCTYPE svg PUBLIC "-//W3C//DTD SVG 20010904//EN"
 "http://www.w3.org/TR/2001/REC-SVG-20010904/DTD/svg10.dtd">
<svg version="1.0" xmlns="http://www.w3.org/2000/svg"
 width="122.000000pt" height="116.000000pt" viewBox="0 0 122.000000 116.000000"
 preserveAspectRatio="xMidYMid meet">
<metadata>
Created by potrace 1.16, written by Peter Selinger 2001-2019
</metadata>
<g transform="translate(0.000000,116.000000) scale(0.100000,-0.100000)"
fill="#000000" stroke="none">
<path d="M653 1148 l-22 -11 -5 -14 -6 -14 15 -29 15 -29 0 -31 0 -31 -34 -34
-34 -34 -44 -12 -43 -13 -115 0 -115 -1 3 -122 3 -122 -11 -40 -11 -40 -16
-16 -16 -17 -36 7 -36 6 -46 5 -46 6 -26 -32 -27 -32 0 -34 0 -35 14 -34 15
-35 35 0 35 0 6 10 6 10 24 0 24 0 15 -28 14 -27 20 -100 21 -100 15 -42 15
-43 -7 -1 -7 -2 45 -8 45 -8 146 0 147 -1 22 18 23 18 -22 63 -22 63 15 23 15
23 35 6 34 7 40 -16 39 -16 22 -40 23 -40 -6 -25 -6 -24 -10 0 -10 0 0 -17 0
-18 9 -14 9 -13 42 -8 42 -8 117 9 116 9 23 5 23 6 -5 8 -5 7 15 95 16 94 -4
58 -4 58 -17 16 -16 17 -73 -18 -73 -18 -28 11 -28 11 -14 35 -15 34 0 26 0
26 14 34 14 33 22 12 21 11 25 -16 24 -16 35 -1 35 -1 23 24 22 23 0 151 0
150 -175 0 -175 0 -22 15 -23 15 0 20 0 20 14 46 14 45 -5 27 -5 26 -24 26
-23 25 -43 -1 -43 0 -22 -11z"/>
</g>
</svg>
