<?xml version="1.0" standalone="no"?>
<!DOCTYPE svg PUBLIC "-//W3C//DTD SVG 20010904//EN"
 "http://www.w3.org/TR/2001/REC-SVG-20010904/DTD/svg10.dtd">
<svg version="1.0" xmlns="http://www.w3.org/2000/svg"
 width="117.000000pt" height="138.000000pt" viewBox="0 0 117.000000 138.000000"
 preserveAspectRatio="xMidYMid meet">
<metadata>
Created by potrace 1.16, written by Peter Selinger 2001-2019
</metadata>
<g transform="translate(0.000000,138.000000) scale(0.100000,-0.100000)"
fill="#000000" stroke="none">
<path d="M580 1367 l-35 -12 -3 -28 -3 -28 15 -46 16 -47 0 -19 0 -20 -24 -22
-24 -22 -48 -8 -47 -7 -93 7 -93 7 -3 -153 -3 -154 -20 -22 -19 -23 -27 0 -27
0 -30 17 -30 17 -26 -12 -27 -12 -16 -37 -15 -37 4 -48 5 -47 16 -25 17 -25
36 -7 36 -7 61 17 60 17 15 -14 14 -15 5 -44 5 -45 -17 -106 -16 -107 7 -11 7
-12 170 7 169 6 -7 -17 -8 -18 -5 -38 -4 -38 17 -45 17 -44 25 -20 26 -20 43
0 42 0 31 31 31 31 0 44 0 45 -15 29 -15 29 20 11 21 11 47 5 47 5 125 -9 125
-9 7 11 8 11 0 143 0 142 -20 20 -20 20 -20 0 -21 0 -30 -16 -30 -15 -45 26
-44 26 -15 29 -15 29 0 40 0 39 6 15 5 14 42 -14 42 -15 49 5 50 4 22 26 22
26 12 54 11 54 -3 108 -3 109 -35 7 -35 7 -144 11 -144 11 -23 15 -24 15 0 14
0 13 16 32 16 32 -6 34 -7 34 -26 21 -26 20 -56 -1 -56 0 -35 -12z"/>
</g>
</svg>
