<?xml version="1.0" standalone="no"?>
<!DOCTYPE svg PUBLIC "-//W3C//DTD SVG 20010904//EN"
 "http://www.w3.org/TR/2001/REC-SVG-20010904/DTD/svg10.dtd">
<svg version="1.0" xmlns="http://www.w3.org/2000/svg"
 width="115.000000pt" height="136.000000pt" viewBox="0 0 115.000000 136.000000"
 preserveAspectRatio="xMidYMid meet">
<metadata>
Created by potrace 1.16, written by Peter Selinger 2001-2019
</metadata>
<g transform="translate(0.000000,136.000000) scale(0.100000,-0.100000)"
fill="#000000" stroke="none">
<path d="M582 1349 l-33 -10 -6 -15 -6 -16 17 -52 16 -53 0 -28 0 -28 -25 -23
-24 -22 -56 -7 -55 -7 -84 7 -85 7 -3 -154 -3 -154 -22 -23 -23 -24 -35 1 -35
1 -24 16 -25 16 -21 -11 -22 -12 -14 -33 -14 -34 0 -26 0 -26 15 -34 14 -35
28 -11 28 -11 73 18 73 18 16 -17 17 -16 4 -58 4 -58 -16 -94 -15 -95 6 -9 6
-10 168 7 167 7 7 -10 6 -11 -15 -22 -16 -22 0 -31 0 -30 19 -41 19 -41 23
-17 23 -16 32 0 32 0 31 31 31 31 0 33 0 34 -17 37 -18 36 19 14 19 13 41 6
42 7 137 -9 137 -8 5 13 5 14 0 129 0 129 -20 20 -20 20 -10 0 -9 0 -36 -17
-36 -17 -46 24 -46 24 -18 31 -19 30 0 55 0 55 9 13 8 13 52 -17 52 -17 37 6
37 6 22 25 21 25 12 54 11 54 -3 98 -3 99 -35 7 -35 7 -144 11 -144 11 -23 15
-24 15 0 24 0 23 15 31 16 31 -7 25 -6 26 -25 20 -26 20 -46 -1 -46 -1 -33 -9z"/>
</g>
</svg>
