<?xml version="1.0" standalone="no"?>
<!DOCTYPE svg PUBLIC "-//W3C//DTD SVG 20010904//EN"
 "http://www.w3.org/TR/2001/REC-SVG-20010904/DTD/svg10.dtd">
<svg version="1.0" xmlns="http://www.w3.org/2000/svg"
 width="119.000000pt" height="124.000000pt" viewBox="0 0 119.000000 124.000000"
 preserveAspectRatio="xMidYMid meet">
<metadata>
Created by potrace 1.16, written by Peter Selinger 2001-2019
</metadata>
<g transform="translate(0.000000,124.000000) scale(0.100000,-0.100000)"
fill="#000000" stroke="none">
<path d="M603 1230 l-22 -9 -17 -26 -18 -27 13 -41 12 -42 6 -28 5 -28 -17
-19 -17 -19 -57 -12 -56 -12 -92 7 -92 6 -5 -17 -5 -18 0 -105 1 -105 -12 -30
-11 -30 -16 -17 -16 -18 -38 0 -38 0 -6 10 -6 10 -34 0 -35 0 -16 -25 -16 -25
3 -79 4 -80 21 -28 21 -28 43 -3 43 -3 29 12 29 12 17 -16 16 -16 8 -143 9
-142 5 -5 6 -6 162 -3 162 -4 14 17 13 16 -16 47 -16 47 -6 32 -6 32 26 27 26
26 74 -4 74 -3 30 -29 31 -29 17 -45 17 -45 -17 -47 -17 -48 0 -20 0 -21 22
-15 22 -16 41 0 40 0 63 15 62 15 61 31 61 30 -7 22 -7 22 -9 140 -9 140 -11
28 -12 27 -25 7 -25 6 -33 -18 -32 -17 -36 12 -35 11 -26 30 -25 31 0 27 0 28
11 32 11 31 21 6 22 5 44 -16 44 -15 42 0 42 0 18 20 19 21 6 50 7 51 -5 103
-5 104 -46 10 -46 11 -114 15 -114 15 -24 15 -23 15 0 20 0 19 10 6 10 6 0 39
0 38 -31 26 -31 26 -71 -1 -72 0 -22 -9z"/>
</g>
</svg>
