<?xml version="1.0" standalone="no"?>
<!DOCTYPE svg PUBLIC "-//W3C//DTD SVG 20010904//EN"
 "http://www.w3.org/TR/2001/REC-SVG-20010904/DTD/svg10.dtd">
<svg version="1.0" xmlns="http://www.w3.org/2000/svg"
 width="147.000000pt" height="140.000000pt" viewBox="0 0 147.000000 140.000000"
 preserveAspectRatio="xMidYMid meet">
<metadata>
Created by potrace 1.16, written by Peter Selinger 2001-2019
</metadata>
<g transform="translate(0.000000,140.000000) scale(0.100000,-0.100000)"
fill="#000000" stroke="none">
<path d="M633 1389 l-33 -10 -16 -24 -16 -24 23 -66 22 -66 -20 -27 -20 -27
-34 -8 -34 -7 -113 5 -112 6 1 -137 0 -137 -19 -26 -19 -26 -22 -3 -22 -4 -46
16 -47 16 -30 0 -31 0 -12 -8 -12 -7 -10 -28 -11 -28 0 -48 0 -48 22 -28 21
-27 33 -14 33 -14 31 0 31 0 22 15 22 14 11 -7 11 -7 12 -22 12 -23 6 -132 6
-133 9 -24 8 -24 153 4 152 4 -5 -15 -5 -15 0 -66 0 -66 28 -36 28 -36 42 -12
42 -11 53 5 54 6 24 16 24 15 0 30 0 29 -10 6 -10 6 0 14 0 14 20 11 20 11
113 24 112 24 46 19 46 20 6 34 6 33 25 138 24 138 12 14 12 15 14 0 14 0 0
-10 0 -10 41 0 41 0 29 29 29 29 0 39 0 38 -20 33 -20 32 -26 10 -25 10 -26 0
-25 0 -33 -16 -34 -16 -18 4 -18 3 -13 35 -12 35 6 132 6 133 -29 11 -28 11
-85 14 -85 14 -67 11 -66 11 -17 18 -16 18 15 31 16 30 0 20 0 20 -24 28 -24
27 -68 3 -69 2 -32 -10z"/>
</g>
</svg>
