<?xml version="1.0" standalone="no"?>
<!DOCTYPE svg PUBLIC "-//W3C//DTD SVG 20010904//EN"
 "http://www.w3.org/TR/2001/REC-SVG-20010904/DTD/svg10.dtd">
<svg version="1.0" xmlns="http://www.w3.org/2000/svg"
 width="145.000000pt" height="138.000000pt" viewBox="0 0 145.000000 138.000000"
 preserveAspectRatio="xMidYMid meet">
<metadata>
Created by potrace 1.16, written by Peter Selinger 2001-2019
</metadata>
<g transform="translate(0.000000,138.000000) scale(0.100000,-0.100000)"
fill="#000000" stroke="none">
<path d="M633 1369 l-32 -9 -15 -21 -14 -21 19 -54 19 -54 0 -19 0 -20 -24
-28 -24 -28 -141 1 -141 1 1 -135 2 -134 -20 -26 -20 -27 -29 -3 -29 -4 -56
17 -57 18 -25 -7 -25 -6 -11 -31 -11 -32 0 -39 0 -40 33 -33 33 -33 39 -8 38
-7 28 17 29 17 19 -6 18 -5 12 -27 12 -26 6 -131 6 -131 9 -24 9 -24 142 7
143 7 17 -6 17 -7 -16 -31 -16 -30 4 -48 5 -48 27 -35 27 -35 42 -12 42 -11
44 6 45 6 23 15 23 15 0 20 0 19 -10 6 -10 6 0 24 0 24 20 11 20 11 113 24
112 24 49 21 49 21 -6 5 -6 6 10 25 9 25 24 139 24 140 12 14 12 15 24 0 24 0
0 -10 0 -10 31 0 31 0 29 29 29 29 0 30 0 29 -23 34 -23 34 -35 9 -35 9 -36
-17 -36 -17 -29 3 -28 3 -13 40 -14 40 6 128 7 127 -28 11 -28 11 -85 14 -85
14 -67 11 -66 11 -18 19 -18 20 13 32 13 32 5 16 5 16 -25 28 -24 29 -59 2
-59 3 -32 -10z"/>
</g>
</svg>
