<svg baseProfile="full" height="784" preserveAspectRatio="none" shape-rendering="geometricPrecision" version="1.1" viewBox="0,0,1180,784" width="1180" xmlns="http://www.w3.org/2000/svg" xmlns:ev="http://www.w3.org/2001/xml-events" xmlns:xlink="http://www.w3.org/1999/xlink"><title>Jigsaw puzzle piece clips</title><desc>Created with the piecemaker. Piece count: 117</desc><defs/><g><g><rect fill="white" height="784" width="1180" x="0" y="0"/></g></g><g><g><path d="M 0 0  L 90.769231 0  c 0.0,14.554073898477005 -4.538461538461539,39.49298323452952 17.983250116555173,33.39520545675174
c 4.181389208892335,-5.226666666666667 11.129489305653866,0 11.129489305653866,10.160350098803818
c 0,8.816834009030835 -18.18682655261298,14.043500675697501 -20.159129346635147,8.816834009030835
c -11.8,-5.226666666666667 -7.261538461538462,18.293333333333333 -8.953610075573891,34.73872154652472 c 0.0,5.291088662914729 -4.538461538461539,42.81242595840507 4.216074131660402,36.71464818062729
c 14.76991751827329,-5.226666666666667 21.427910319285044,0 21.427910319285044,6.840907374928264
c 0,6.3974070917771755 -6.829923552663201,11.624073758443842 -13.46876782907313,6.3974070917771755
c -11.8,-5.226666666666667 -7.261538461538462,18.293333333333333 -12.175216621872316,37.15814846377838 c 0.0,17.652763588039207 -4.538461538461539,38.493116469431534 4.632452625977466,32.395338691653755
c 20.786807282695666,-5.226666666666667 22.541117512929567,0 22.541117512929567,11.160216863901802
c 0,9.046230603938014 -9.523387994304437,14.27289727060468 -28.11238584723517,9.046230603938014
c -11.8,-5.226666666666667 -7.261538461538462,18.293333333333333 0.9388157083281392,34.50932495161754 c 0.0,7.216627907806732 -4.538461538461539,42.18253523663639 0.2834457423010928,36.08475745885861
c 9.226387357375923,-5.226666666666667 30.196080909891855,0 30.196080909891855,7.470798096696946
c 0,8.836871178772398 -17.361873937325772,14.063537845439065 -28.339610313625986,8.836871178772398
c -11.8,-5.226666666666667 -7.261538461538462,18.293333333333333 -2.1399163385669624,34.71868437678316 c -0.0,8.58775509116345 4.538461538461539,41.355015340857314 -19.02992150834409,35.257237563079535
c -1.2636570485718766,-5.226666666666667 -2.8837987310149735,0 -2.8837987310149735,8.298317992476022
c 0,12.815976455318491 13.575041321137858,18.042643121985158 18.087017360886765,12.815976455318491
c 11.8,-5.226666666666667 7.261538461538462,18.293333333333333 3.8267028784722967,30.739579100237066 c 0.0,9.68098296630204 -4.538461538461539,37.225629465542724 7.288115745508845,31.12785168776495
c 6.331789937600666,-5.226666666666667 19.064004089808193,0 19.064004089808193,12.427703867790608
c 0,7.836085665910652 -16.88466195098657,13.062752332577318 -24.265992146033675,7.836085665910652
c -11.8,-5.226666666666667 -7.261538461538462,18.293333333333333 -2.086127689283366,35.719469889644905 c -0.0,16.726732458796157 4.538461538461539,41.66826597947026 -11.933443846623408,35.570488201692484
c -10.793045608518886,-5.226666666666667 -10.87015144597736,0 -10.87015144597736,7.985067353863073
c 0,9.849486976685917 3.790228858383662,15.076153643352583 4.161031186571449,9.849486976685917
c 11.8,-5.226666666666667 7.261538461538462,18.293333333333333 18.64256410602932,33.70606857886964 c 0.0,19.51599689488247 -4.538461538461539,40.70234316563835 14.164242129141682,34.60456538786057
c 11.65953879589689,-5.226666666666667 13.625415985023222,0 13.625415985023222,8.95099016769499
c 0,10.743884822983063 -12.844333614445514,15.97055148964973 -17.78289281045292,10.743884822983063
c -11.8,-5.226666666666667 -7.261538461538462,18.293333333333333 -10.006765303711983,32.811670732572495 c -0.0,18.395384850282454 4.538461538461539,41.5299504340069 -18.270726937669078,35.43217265622912
c -7.5890315589554085,-5.226666666666667 -8.045490797147036,0 -8.045490797147036,8.123382899326437
c 0,8.907242848033832 10.938949986739765,14.133909514700498 20.763635760918042,8.907242848033832
c 11.8,-5.226666666666667 7.261538461538462,18.293333333333333 5.5525819738980715,34.648312707521725 L 0 784 " fill="none" stroke="black" stroke-width="0.1" style="vector-effect:non-scaling-stroke;"/></g><g><path d="M 0 0  L 181.538462 0  c -0.0,22.69897098477752 4.538461538461539,42.92236134452236 -0.5660977003495911,36.82458356674458
c -21.570482690173858,-5.226666666666667 -25.981514880930412,0 -25.981514880930412,6.730971988810978
c 0,10.98095990082048 12.32302520569042,16.207626567487146 14.863225412465834,10.98095990082048
c 11.8,-5.226666666666667 7.261538461538462,18.293333333333333 11.684387168814169,32.57459565473508 c 0.0,25.2450412358753 -4.538461538461539,38.42230044506553 1.4350020166755855,32.32452266728775
c 8.068097674893798,-5.226666666666667 24.31342422415938,0 24.31342422415938,11.231032888267805
c 0,8.631009431162312 -22.976927436911673,13.857676097828978 -24.87020969192301,8.631009431162312
c -11.8,-5.226666666666667 -7.261538461538462,18.293333333333333 -0.8782165489119578,34.924546124393245 c 0.0,10.195171098739499 -4.538461538461539,38.88681795778604 9.810601640023169,32.789040180008264
c 13.831594431696336,-5.226666666666667 20.106014797535057,0 20.106014797535057,10.766515375547293
c 0,7.915144263753149 -9.086655516567475,13.141810930419815 -14.22438439731711,7.915144263753149
c -11.8,-5.226666666666667 -7.261538461538462,18.293333333333333 -15.692232040241116,35.64041129180241 c -0.0,6.8004400193111145 4.538461538461539,40.05730065992833 -17.923026627225997,33.95952288215055
c -3.7830992798054908,-5.226666666666667 -4.151807957827618,0 -4.151807957827618,9.596032673405006
c 0,11.046692196127573 11.263210450449037,16.27335886279424 11.672855694383824,11.046692196127573
c 11.8,-5.226666666666667 7.261538461538462,18.293333333333333 10.401978890669792,32.508863359427984 c -0.0,20.255887031351605 4.538461538461539,36.252790163998284 -19.167229515639786,30.155012386220506
c -6.206402633811374,-5.226666666666667 -10.42517385340096,0 -10.42517385340096,13.400543169335052
c 0,8.462226002076207 16.75750482214793,13.688892668742874 18.21503334293725,8.462226002076207
c 11.8,-5.226666666666667 7.261538461538462,18.293333333333333 11.377370026103495,35.09332955347935 c -0.0,15.362779452725762 4.538461538461539,41.676851298454565 -0.8705938911322953,35.579073520676786
c -10.17251944222052,-5.226666666666667 -24.8000585006558,0 -24.8000585006558,7.976482034878771
c 0,6.534261181040691 14.978669721688451,11.760927847707357 23.334748110531894,6.534261181040691
c 11.8,-5.226666666666667 7.261538461538462,18.293333333333333 2.3359042812562016,37.021294374514866 c -0.0,21.291738798243937 4.538461538461539,36.98172496638945 1.2757855226236166,30.88394718861167
c -8.67209859750087,-5.226666666666667 -30.58041779918788,0 -30.58041779918788,12.671608366943886
c 0,11.4977495330917 7.339018859052204,16.724416199758366 13.200500397762873,11.4977495330917
c 11.8,-5.226666666666667 7.261538461538462,18.293333333333333 16.10413187880139,32.05780602246386 c -0.0,20.10886356571305 4.538461538461539,43.362193835282405 -16.919689542400494,37.264416057504626
c -5.663156478727394,-5.226666666666667 -9.98091521830489,0 -9.98091521830489,6.291139498050931
c 0,6.644542358453457 11.846736816457268,11.871209025120123 27.436660000127354,6.644542358453457
c 11.8,-5.226666666666667 7.261538461538462,18.293333333333333 -0.5360552394219695,36.9110131971021 c 0.0,5.412904994974541 -4.538461538461539,41.46503462478827 -1.6358822633817052,35.36725684701049
c 15.973015827526323,-5.226666666666667 30.486499464833376,0 30.486499464833376,8.18829870854507
c 0,6.504530532931689 -15.052235306263517,11.731197199598355 -21.61348032622331,6.504530532931689
c -11.8,-5.226666666666667 -7.261538461538462,18.293333333333333 -7.237136875228359,37.05102502262387 L 0 784 " fill="none" stroke="black" stroke-width="0.1" style="vector-effect:non-scaling-stroke;"/></g><g><path d="M 0 0  L 272.307692 0  c 0.0,19.856432030701463 -4.538461538461539,40.05669175389053 14.71996794461476,33.958913976112754
c 12.758176539680228,-5.226666666666667 12.964003286981518,0 12.964003286981518,9.596641579442803
c 0,10.118897882433927 -23.309372472991225,15.345564549100594 -25.802627853853487,10.118897882433927
c -11.8,-5.226666666666667 -7.261538461538462,18.293333333333333 -1.881343377742791,33.43665767312163 c -0.0,10.611364005905855 4.538461538461539,41.68505075041393 -3.8068536705582603,35.58727297263615
c -13.124860733405127,-5.226666666666667 -21.139371337097078,0 -21.139371337097078,7.968282582919407
c 0,10.187521016377637 3.6013830712149746,15.414187683044304 8.936651540299298,10.187521016377637
c 11.8,-5.226666666666667 7.261538461538462,18.293333333333333 16.00957346735604,33.36803453917792 c -0.0,16.093215751251144 4.538461538461539,42.38155172873243 -11.356957559281721,36.283773950954654
c -10.709137656447583,-5.226666666666667 -12.498793701466298,0 -12.498793701466298,7.271781604600903
c 0,11.097012128003733 2.8211166543633523,16.3236787946704 7.512000615480186,11.097012128003733
c 11.8,-5.226666666666667 7.261538461538462,18.293333333333333 16.343750645267832,32.458543427551824 c -0.0,23.16369070842452 4.538461538461539,41.25228353534655 -10.047786100600181,35.15450575756877
c -12.969030509003492,-5.226666666666667 -13.189255945768181,0 -13.189255945768181,8.401049797986786
c 0,13.642883475030139 2.183177477990784,18.869550141696806 7.13004690179654,13.642883475030139
c 11.8,-5.226666666666667 7.261538461538462,18.293333333333333 16.106995144571822,29.912672080525418 c 0.0,11.154635277917837 -4.538461538461539,37.915884903486756 3.0968348967064037,31.818107125708973
c 25.767074073701885,-5.226666666666667 27.240898229083218,0 27.240898229083218,11.737448429846584
c 0,13.756714038670196 -19.72201859149002,18.983380705336863 -31.905930672401645,13.756714038670196
c -11.8,-5.226666666666667 -7.261538461538462,18.293333333333333 1.5681975466120228,29.79884151688536 c 0.0,6.578621051056789 -4.538461538461539,36.147122106846425 0.3216491873136489,30.049344329068646
c 22.53973065767951,-5.226666666666667 30.04490052025034,0 30.04490052025034,13.506211226486911
c 0,10.990114354539706 -13.848703478148224,16.216781021206373 -14.670778276666766,10.990114354539706
c -11.8,-5.226666666666667 -7.261538461538462,18.293333333333333 -15.695771430897224,32.56544120101585 c -0.0,16.137079573859552 4.538461538461539,42.05124002710896 -18.89060605584567,35.95346224933118
c -2.2858148609744715,-5.226666666666667 -6.807570752771827,0 -6.807570752771827,7.602093306224376
c 0,10.97483449199489 19.803573000053706,16.201501158661557 20.03391015636323,10.97483449199489
c 11.8,-5.226666666666667 7.261538461538462,18.293333333333333 5.664266652254266,32.58072106356067 c -0.0,25.20319320219989 4.538461538461539,37.502716598951416 -1.0292207480394178,31.404938821173637
c -22.181956491025034,-5.226666666666667 -23.84245985555286,0 -23.84245985555286,12.15061673438192
c 0,10.867340284308654 5.6902870617203565,16.09400695097532 12.616011273382268,10.867340284308654
c 11.8,-5.226666666666667 7.261538461538462,18.293333333333333 12.25566933021001,32.688215271246904 c 0.0,22.25792924425476 -4.538461538461539,40.175461027119844 -0.5617519718466311,34.077683249342066
c 18.749622677353436,-5.226666666666667 22.528641508782496,0 22.528641508782496,9.477872306213492
c 0,8.586613557475324 -5.916114357905786,13.813280224141991 -8.631889688996568,8.586613557475324
c -11.8,-5.226666666666667 -7.261538461538462,18.293333333333333 -13.334999847939295,34.96894199808023 L 0 784 " fill="none" stroke="black" stroke-width="0.1" style="vector-effect:non-scaling-stroke;"/></g><g><path d="M 0 0  L 363.076923 0  c 0.0,6.925542554811962 -4.538461538461539,41.56544063700312 14.51952130065751,35.46766285922534
c 4.836803563406494,-5.226666666666667 15.1726045342073,0 15.1726045342073,8.087892696330215
c 0,13.513561152227844 -7.458352861938235,18.74022781889451 -12.851709544339641,13.513561152227844
c -11.8,-5.226666666666667 -7.261538461538462,18.293333333333333 -16.84041629052517,30.041994403327713 c 0.0,12.050442600644836 -4.538461538461539,37.72104984813445 10.000242130575627,31.62327207035667
c 15.907692320301274,-5.226666666666667 18.506284629743362,0 18.506284629743362,11.932283485198887
c 0,9.480376603082597 -13.253740438257962,14.707043269749263 -23.53183512937807,9.480376603082597
c -11.8,-5.226666666666667 -7.261538461538462,18.293333333333333 -4.974691630940921,34.07517895247296 c -0.0,19.856065629482167 4.538461538461539,40.78792328320607 -6.699619479421052,34.69014550542829
c -21.100083013392148,-5.226666666666667 -21.69961705277676,0 -21.69961705277676,8.865410050127267
c 0,13.710510049145562 3.8904465119611658,18.937176715812228 14.087843712544393,13.710510049145562
c 11.8,-5.226666666666667 7.261538461538462,18.293333333333333 14.311392819653419,29.845045506409996 c -0.0,15.692812482506426 4.538461538461539,38.45126461076023 -7.966107586144094,32.35348683298245
c -10.259297004265749,-5.226666666666667 -17.11464224321457,0 -17.11464224321457,11.20206872257311
c 0,9.266782309055571 13.93644000279853,14.493448975722238 20.102403397865075,9.266782309055571
c 11.8,-5.226666666666667 7.261538461538462,18.293333333333333 4.978346431493588,34.288773246499986 c 0.0,7.5199329441231155 -4.538461538461539,41.97298302463398 19.095612504967864,35.875205246856204
c 2.332260594705738,-5.226666666666667 6.09461000102252,0 6.09461000102252,7.680350308699353
c 0,9.217012079333173 -3.881523599685899,14.44367874599984 -15.727827609070976,9.217012079333173
c -11.8,-5.226666666666667 -7.261538461538462,18.293333333333333 -9.462394896919408,34.338543476222384 c 0.0,5.761204187996734 -4.538461538461539,42.84863033914831 16.206733418541994,36.75085256137053
c 8.552465393746216,-5.226666666666667 11.104326180818564,0 11.104326180818564,6.804702994185028
c 0,11.874194872333014 -10.794148700885554,17.10086153899968 -16.25680185663135,11.874194872333014
c -11.8,-5.226666666666667 -7.261538461538462,18.293333333333333 -11.05425774272921,31.681360683222543 c 0.0,19.33498653924721 -4.538461538461539,36.24018721079531 10.035563847838722,30.142409433017537
c 11.607122873345842,-5.226666666666667 16.05491490746671,0 16.05491490746671,13.41314612253802
c 0,11.435844217745974 -5.910832224038805,16.66251088441264 -16.24527129324303,11.435844217745974
c -11.8,-5.226666666666667 -7.261538461538462,18.293333333333333 -9.845207462062405,32.11971133780958 c 0.0,5.186272327588458 -4.538461538461539,37.96667910476596 14.294726697942172,31.868901326988183
c 10.460269450669356,-5.226666666666667 13.292442904951857,0 13.292442904951857,11.686654228567374
c 0,11.678346386940724 -10.199184541436404,16.90501305360739 -11.337027761190612,11.678346386940724
c -11.8,-5.226666666666667 -7.261538461538462,18.293333333333333 -16.250141841703417,31.877209168614833 c -0.0,15.529007276056687 4.538461538461539,43.148220624322285 -18.543409908385826,37.050442846544506
c -11.655149854464298,-5.226666666666667 -12.275984773643852,0 -12.275984773643852,6.505112709011051
c 0,8.579658530057586 15.888232666997155,13.806325196724252 19.278231964050953,8.579658530057586
c 11.8,-5.226666666666667 7.261538461538462,18.293333333333333 11.541162717978725,34.97589702549797 L 0 784 " fill="none" stroke="black" stroke-width="0.1" style="vector-effect:non-scaling-stroke;"/></g><g><path d="M 0 0  L 453.846154 0  c 0.0,14.988762952544137 -4.538461538461539,40.43005727886425 16.06318833538231,34.33227950108647
c 10.194969434413363,-5.226666666666667 13.732450966870072,0 13.732450966870072,9.223276054469089
c 0,11.52378558734538 -20.585060423004798,16.750452254012046 -20.697768233715188,11.52378558734538
c -11.8,-5.226666666666667 -7.261538461538462,18.293333333333333 -9.097871068537195,32.03176996821018 c 0.0,21.350823597353234 -4.538461538461539,42.63190812990591 13.032698839375009,36.53413035212813
c 3.8499855023769913,-5.226666666666667 13.664577258486485,0 13.664577258486485,7.021425203427427
c 0,12.572150361440073 -14.461009302388822,17.79881702810674 -18.779647703524898,12.572150361440073
c -11.8,-5.226666666666667 -7.261538461538462,18.293333333333333 -7.917628394336596,30.983405194115484 c 0.0,21.974151964714586 -4.538461538461539,40.05679622236126 15.636033632538787,33.95901844458348
c 6.186589442436142,-5.226666666666667 11.308454475720936,0 11.308454475720936,9.59653711097208
c 0,9.064470960002467 -7.446135635133351,14.291137626669133 -7.72861854156541,9.064470960002467
c -11.8,-5.226666666666667 -7.261538461538462,18.293333333333333 -19.215869566694312,34.49108459555309 c 0.0,21.08327376741842 -4.538461538461539,41.39571219703163 4.626327605434325,35.29793441925385
c 14.624350196560012,-5.226666666666667 17.417225464864472,0 17.417225464864472,8.257621136301708
c 0,13.697113315946275 -3.138709898436655,18.923779982612942 -14.611106363400106,13.697113315946275
c -11.8,-5.226666666666667 -7.261538461538462,18.293333333333333 -7.432446706898693,29.858442239609282 c 0.0,8.21857919817384 -4.538461538461539,39.76235304365389 16.985230543534733,33.66457526587611
c 5.928149090200767,-5.226666666666667 10.12747535421888,0 10.12747535421888,9.890980289679447
c 0,11.97145185460355 -11.544390261768509,17.198118521270217 -15.749095337799133,11.97145185460355
c -11.8,-5.226666666666667 -7.261538461538462,18.293333333333333 -11.36361055995448,31.584103700952006 c 0.0,21.231341494111263 -4.538461538461539,41.753333800817174 7.007575382396716,35.655556023039395
c 14.483176659182067,-5.226666666666667 18.919119238951133,0 18.919119238951133,7.899999532516162
c 0,10.835428865629908 -11.673951084443864,16.062095532296574 -26.44418870765787,10.835428865629908
c -11.8,-5.226666666666667 -7.261538461538462,18.293333333333333 0.5174940863100197,32.72012668992565 c -0.0,8.217733443355323 4.538461538461539,42.807586566603106 -17.712833261373813,36.70980878882533
c -4.256009747078376,-5.226666666666667 -5.675372974220068,0 -5.675372974220068,6.84574676673023
c 0,12.568600643685123 3.0045975031194203,17.79526731035179 13.419439988725948,12.568600643685123
c 11.8,-5.226666666666667 7.261538461538462,18.293333333333333 9.968766246867933,30.986954911870434 c 0.0,12.375411943675605 -4.538461538461539,43.30020767642023 4.696625431652946,37.20242989864245
c 10.130016459039872,-5.226666666666667 17.656236505892657,0 17.656236505892657,6.353125656913107
c 0,9.563538999650994 -7.9321133395986765,14.79020566631766 -9.545080697494903,9.563538999650994
c -11.8,-5.226666666666667 -7.261538461538462,18.293333333333333 -12.807781240050701,33.99201655590456 c -0.0,19.91994901319587 4.538461538461539,42.42223067948154 -4.137850570864938,36.32445290170376
c -21.892582437251747,-5.226666666666667 -22.147926932978148,0 -22.147926932978148,7.231102653851799
c 0,12.357397933741517 5.286857438100093,17.584064600408183 11.450282382702504,12.357397933741517
c 11.8,-5.226666666666667 7.261538461538462,18.293333333333333 14.835495121140582,31.19815762181404 L 0 784 " fill="none" stroke="black" stroke-width="0.1" style="vector-effect:non-scaling-stroke;"/></g><g><path d="M 0 0  L 544.615385 0  c -0.0,5.657894334418407 4.538461538461539,38.54397135874413 -13.741658162338467,32.44619358096635
c -16.517975845473828,-5.226666666666667 -16.467807888629487,0 -16.467807888629487,11.109361974589206
c 0,10.260238607800545 10.627952694709931,15.486905274467212 19.26903027784189,10.260238607800545
c 11.8,-5.226666666666667 7.261538461538462,18.293333333333333 10.940435773126065,33.29531694775501 c 0.0,8.524606139506648 -4.538461538461539,37.769488964760995 17.71824615484218,31.671711186983213
c 5.300407305266456,-5.226666666666667 5.386726184427818,0 5.386726184427818,11.883844368572344
c 0,9.609877884917168 -3.359321767116108,14.836544551583835 -10.17988102632535,9.609877884917168
c -11.8,-5.226666666666667 -7.261538461538462,18.293333333333333 -12.925091312944648,33.94567767063839 c 0.0,14.68913718064917 -4.538461538461539,41.38624213707769 6.008774344283824,35.28846435929991
c 7.240925656927084,-5.226666666666667 18.16855132261674,0 18.16855132261674,8.267091196255649
c 0,9.076890724016422 -20.585721046380186,14.303557390683089 -21.276664934758156,9.076890724016422
c -11.8,-5.226666666666667 -7.261538461538462,18.293333333333333 -2.900660732142409,34.478664831539135 c 0.0,16.530447629282275 -4.538461538461539,37.56136060437349 6.230149292190099,31.463582826595715
c 9.420102899667423,-5.226666666666667 21.599619821778205,0 21.599619821778205,12.091972728959842
c 0,8.066456466575318 -10.105511844270936,13.293123133241984 -17.149454881751318,8.066456466575318
c -11.8,-5.226666666666667 -7.261538461538462,18.293333333333333 -10.680314232216986,35.48909908898024 c -0.0,21.800003859773984 4.538461538461539,40.73790060160715 -16.962815291837067,34.64012282382937
c -4.43902216187115,-5.226666666666667 -5.863084957292212,0 -5.863084957292212,8.915432731726185
c 0,6.85303819010349 4.7405459218951265,12.079704856770157 14.978947097618843,6.85303819010349
c 11.8,-5.226666666666667 7.261538461538462,18.293333333333333 7.846953151510437,36.70251736545207 c -0.0,17.233254083493684 4.538461538461539,39.51888681483932 -18.435653795980816,33.42110903706154
c -6.493668270257056,-5.226666666666667 -10.583124469867535,0 -10.583124469867535,10.134446518494016
c 0,13.29842252330237 9.794923705050332,18.525089189969037 9.745641944418637,13.29842252330237
c 11.8,-5.226666666666667 7.261538461538462,18.293333333333333 19.273136321429714,30.257133032253186 c 0.0,13.243335594499772 -4.538461538461539,40.83965821839702 17.73184790092495,34.74188044061924
c 9.212672787521669,-5.226666666666667 12.908923738321011,0 12.908923738321011,8.813675114936316
c 0,7.093276988719701 -15.614888412895475,12.319943655386368 -21.48871278723167,7.093276988719701
c -11.8,-5.226666666666667 -7.261538461538462,18.293333333333333 -9.152058852014292,36.462278566835856 c 0.0,20.212736482056545 -4.538461538461539,41.27975261805992 0.9464037163844705,35.181974840282145
c 13.713390581560313,-5.226666666666667 28.251239149004626,0 28.251239149004626,8.373580715273413
c 0,11.70008651899672 -8.657617681866354,16.926753185663387 -25.00053287303451,11.70008651899672
c -11.8,-5.226666666666667 -7.261538461538462,18.293333333333333 -4.197109992354587,31.855469036558837 c 0.0,20.235409863955415 -4.538461538461539,36.07514272168864 -1.7740010973062785,29.977364943910864
c 9.515881119837381,-5.226666666666667 24.33706617176432,0 24.33706617176432,13.578190611644693
c 0,10.195120087921019 -3.4447036088924885,15.421786754587686 -4.769757507748309,10.195120087921019
c -11.8,-5.226666666666667 -7.261538461538462,18.293333333333333 -17.793307566709732,33.36043546763454 L 0 784 " fill="none" stroke="black" stroke-width="0.1" style="vector-effect:non-scaling-stroke;"/></g><g><path d="M 0 0  L 635.384615 0  c -0.0,10.711221367909761 4.538461538461539,42.09045623085573 -6.437952238113438,35.99267845307795
c -21.67714277848953,-5.226666666666667 -22.534766071012953,0 -22.534766071012953,7.562877102477607
c 0,6.825437505937423 8.677422994154181,12.05210417260409 15.877936823509469,6.825437505937423
c 11.8,-5.226666666666667 7.261538461538462,18.293333333333333 13.094781485616924,36.730118049618135 c 0.0,20.899795181423382 -4.538461538461539,42.73926175136728 3.7401490489253395,36.6414839735895
c 15.415145304293745,-5.226666666666667 21.20231368895714,0 21.20231368895714,6.914071581966056
c 0,7.286022406655732 -8.104703916308164,12.512689073322399 -8.118522910070219,7.286022406655732
c -11.8,-5.226666666666667 -7.261538461538462,18.293333333333333 -16.82393982781226,36.269533148899825 c -0.0,5.0651160099822015 4.538461538461539,40.18368421668517 -3.4199379128644525,34.085906438907394
c -8.67254172212677,-5.226666666666667 -24.618644480366214,0 -24.618644480366214,9.469649116648164
c 0,6.545756110817351 4.851309442748548,11.772422777484017 11.52377431898109,6.545756110817351
c 11.8,-5.226666666666667 7.261538461538462,18.293333333333333 16.514808074249576,37.009799444738206 c -0.0,4.369719102034339 4.538461538461539,41.87645314682645 -5.054053310567406,35.77867536904867
c -14.549680097026227,-5.226666666666667 -25.190646527564823,0 -25.190646527564823,7.776880186506887
c 0,11.05474433714756 22.93770447870021,16.281411003814227 29.50240652364807,11.05474433714756
c 11.8,-5.226666666666667 7.261538461538462,18.293333333333333 0.7422933144841579,32.500811218407996 c 0.0,20.475124077392987 -4.538461538461539,41.441658255047344 15.230181887130692,35.343880477269565
c 4.532044609129444,-5.226666666666667 9.156735781471108,0 9.156735781471108,8.211675078285992
c 0,10.627489444696948 -10.590990543384072,15.854156111363615 -16.25958864379482,10.627489444696948
c -11.8,-5.226666666666667 -7.261538461538462,18.293333333333333 -8.12732902480698,32.92806611085861 c -0.0,18.31979082603665 4.538461538461539,36.88594611378749 -6.921290850820882,30.78816833600971
c -13.1585398796015,-5.226666666666667 -16.063379108958454,0 -16.063379108958454,12.767387219545846
c 0,12.794439269106647 5.631591765389181,18.021105935773313 12.85290520285675,12.794439269106647
c 11.8,-5.226666666666667 7.261538461538462,18.293333333333333 10.131764756922585,30.76111628644891 c 0.0,5.3308274290066775 -4.538461538461539,43.53942581623801 0.17599413517907891,37.44164803846023
c 9.85015529421574,-5.226666666666667 30.272642969129958,0 30.272642969129958,6.113907517095328
c 0,10.155383492392616 -10.34911203616958,15.382050159059283 -16.928131345721248,10.155383492392616
c -11.8,-5.226666666666667 -7.261538461538462,18.293333333333333 -13.520505758587788,33.40017206316294 c 0.0,10.961082878565339 -4.538461538461539,35.806011040034534 14.958211124000256,29.708233262256755
c 6.698816089194141,-5.226666666666667 13.54359792659387,0 13.54359792659387,13.847322293298802
c 0,7.189198429584074 -7.874378533983438,12.41586509625074 -26.449870883684454,7.189198429584074
c -11.8,-5.226666666666667 -7.261538461538462,18.293333333333333 -2.0519381669096717,36.36635712597148 c 0.0,14.370666096112915 -4.538461538461539,41.62362533077232 17.36043020485068,35.52584755299454
c 6.388092170862342,-5.226666666666667 8.908109066896913,0 8.908109066896913,8.029708002561016
c 0,11.868014996733635 -13.437175999821633,17.0946816634003 -27.923400626380662,11.868014996733635
c -11.8,-5.226666666666667 -7.261538461538462,18.293333333333333 1.65486135463307,31.687540558821922 L 0 784 " fill="none" stroke="black" stroke-width="0.1" style="vector-effect:non-scaling-stroke;"/></g><g><path d="M 0 0  L 726.153846 0  c -0.0,15.408097941876793 4.538461538461539,38.83038984783427 -19.331136585346446,32.73261207005649
c -4.72080146983407,-5.226666666666667 -10.5819314233742,0 -10.5819314233742,10.822943485499067
c 0,8.219623347395654 14.033030397939259,13.44629001406232 28.68041201431476,8.219623347395654
c 11.8,-5.226666666666667 7.261538461538462,18.293333333333333 1.232655994405885,35.3359322081599 c -0.0,18.80068953832227 4.538461538461539,40.93845050384734 -11.995576708394712,34.84067272606956
c -8.99678675848079,-5.226666666666667 -15.027608552499668,0 -15.027608552499668,8.714882829485994
c 0,9.863350172852222 8.73192771149012,15.090016839518889 11.7598919212905,9.863350172852222
c 11.8,-5.226666666666667 7.261538461538462,18.293333333333333 15.26329333960388,33.692205382703335 c 0.0,11.868937875850037 -4.538461538461539,40.8995510430713 8.3354024306602,34.80177326529352
c 7.703148570229362,-5.226666666666667 20.79053900342018,0 20.79053900342018,8.753782290262038
c 0,10.966511515595123 -6.341843627114013,16.19317818226179 -18.34452497521019,10.966511515595123
c -11.8,-5.226666666666667 -7.261538461538462,18.293333333333333 -10.781416458870186,32.589044039960434 c -0.0,19.444533951764726 4.538461538461539,36.024069696248816 -6.694390708492691,29.92629191847104
c -7.815279413613212,-5.226666666666667 -23.500835513392346,0 -23.500835513392346,13.629263637084517
c 0,7.806296851580839 17.447317939312576,13.032963518247506 28.094879464923423,7.806296851580839
c 11.8,-5.226666666666667 7.261538461538462,18.293333333333333 2.1003467569616134,35.74925870397472 c 0.0,10.959488692154812 -4.538461538461539,38.86962388310053 16.8518106213201,32.77184610532275
c 8.01397952453951,-5.226666666666667 9.288635355739736,0 9.288635355739736,10.783709450232806
c 0,11.641843853533295 -7.305548777167124,16.868510520199962 -10.231760617348456,11.641843853533295
c -11.8,-5.226666666666667 -7.261538461538462,18.293333333333333 -15.90868535971138,31.913711702022262 c 0.0,7.161191353291749 -4.538461538461539,37.92433336850878 10.831569949322414,31.826555590731008
c 6.687410065373805,-5.226666666666667 19.857170028310744,0 19.857170028310744,11.728999964824549
c 0,12.10186038573908 -5.6847661393593825,17.328527052405747 -11.810252146121613,12.10186038573908
c -11.8,-5.226666666666667 -7.261538461538462,18.293333333333333 -18.878487831511546,31.453695169816477 c -0.0,23.31641948675678 4.538461538461539,36.08360982405486 -3.8432438282883066,29.98583204627708
c -18.15259594428502,-5.226666666666667 -20.594769149299573,0 -20.594769149299573,13.569723509278479
c 0,7.747376832059359 19.120861103232983,12.974043498726026 25.08544224019762,7.747376832059359
c 11.8,-5.226666666666667 7.261538461538462,18.293333333333333 -0.6474292626097373,35.8081787234962 c 0.0,7.238006716342031 -4.538461538461539,36.237674746399584 2.8038288461245444,30.139896968621805
c 13.195485767697376,-5.226666666666667 22.099238778046384,0 22.099238778046384,13.415658586933752
c 0,6.503959372701672 -15.182183065334362,11.730626039368339 -15.944547098963838,6.503959372701672
c -11.8,-5.226666666666667 -7.261538461538462,18.293333333333333 -8.958520525207092,37.051596182853885 c -0.0,24.943192693560285 4.538461538461539,41.640131621663315 -7.015864404801547,35.542353843885536
c -16.99822483785885,-5.226666666666667 -21.146683524103747,0 -21.146683524103747,8.013201711670021
c 0,11.844178670357408 25.723421184407805,17.070845337024075 27.460811232582238,11.844178670357408
c 11.8,-5.226666666666667 7.261538461538462,18.293333333333333 0.7017366963230565,31.71137688519815 L 0 784 " fill="none" stroke="black" stroke-width="0.1" style="vector-effect:non-scaling-stroke;"/></g><g><path d="M 0 0  L 816.923077 0  c -0.0,7.699459560988643 4.538461538461539,39.351471794231934 -12.496931210993655,33.253694016454155
c -3.4747801514911947,-5.226666666666667 -13.691494003031814,0 -13.691494003031814,10.301861539101402
c 0,10.44579727770109 18.453114363868433,15.672463944367756 19.407510326483145,10.44579727770109
c 11.8,-5.226666666666667 7.261538461538462,18.293333333333333 6.780914887542323,33.10975827785447 c 0.0,16.45344202639148 -4.538461538461539,40.720860009927016 0.4530576103408721,34.62308223214924
c 14.489065099233066,-5.226666666666667 23.965731537831545,0 23.965731537831545,8.93247332340632
c 0,7.538410314822777 -6.958709571107451,12.765076981489443 -20.338159237468712,7.538410314822777
c -11.8,-5.226666666666667 -7.261538461538462,18.293333333333333 -4.080629910703703,36.01714524073278 c 0.0,20.243051994944118 -4.538461538461539,42.511049882976266 8.31777621795771,36.41327210519849
c 4.014019213876611,-5.226666666666667 16.490046439987346,0 16.490046439987346,7.14228345035707
c 0,12.723158663777262 -6.756527785643784,17.94982533044393 -16.751226696900947,12.723158663777262
c -11.8,-5.226666666666667 -7.261538461538462,18.293333333333333 -8.05659596104411,30.832396891778295 c -0.0,13.602782063203987 4.538461538461539,36.13062943417279 -6.819073421231845,30.03285165639501
c -12.931319801640278,-5.226666666666667 -16.37480417393362,0 -16.37480417393362,13.522703899160547
c 0,6.177290308781863 17.461842130959287,11.40395697544853 18.483890642708523,6.177290308781863
c 11.8,-5.226666666666667 7.261538461538462,18.293333333333333 4.709986952456941,37.378265246773694 c 0.0,12.017149672256862 -4.538461538461539,36.64669400446329 1.5466620395313688,30.548916226685513
c 11.86480654761108,-5.226666666666667 20.507390349780394,0 20.507390349780394,13.006639328870044
c 0,8.136650226121212 -8.413603292441163,13.363316892787878 -15.333185600944926,8.136650226121212
c -11.8,-5.226666666666667 -7.261538461538462,18.293333333333333 -6.720866788366838,35.418905329434345 c -0.0,12.01192280093341 4.538461538461539,39.479461767279616 -2.3541492774967043,33.38168398950184
c -9.029924996310356,-5.226666666666667 -27.336929105538154,0 -27.336929105538154,10.17387156605372
c 0,12.522527571223065 20.43761267477471,17.749194237889732 30.244318208284017,12.522527571223065
c 11.8,-5.226666666666667 7.261538461538462,18.293333333333333 -0.553239825249161,31.03302798433249 c -0.0,8.162325311944283 4.538461538461539,41.02493617820692 -7.847986267474061,34.92715840042914
c -10.411079141489441,-5.226666666666667 -17.37217999111632,0 -17.37217999111632,8.628397155126414
c 0,8.542659783579175 4.043013123821924,13.769326450245842 16.53184576254942,8.542659783579175
c 11.8,-5.226666666666667 7.261538461538462,18.293333333333333 8.688320496040962,35.01289577197638 c 0.0,14.02744282161435 -4.538461538461539,36.554239501110345 15.911306059540358,30.456461723332566
c 7.940656506911866,-5.226666666666667 12.178293048898269,0 12.178293048898269,13.09909383222299
c 0,12.692902097183108 -15.122196290561453,17.919568763849774 -20.8752889421175,12.692902097183108
c -11.8,-5.226666666666667 -7.261538461538462,18.293333333333333 -7.214310166321127,30.86265345837245 c -0.0,14.455151018362022 4.538461538461539,38.07872703060488 -10.20172239238226,31.980949252827106
c -11.314990772904144,-5.226666666666667 -13.820698339313646,0 -13.820698339313646,11.574606302728451
c 0,12.076941445352318 4.099846377789248,17.303608112018985 11.271863935471853,12.076941445352318
c 11.8,-5.226666666666667 7.261538461538462,18.293333333333333 12.750556796224053,31.47861411020324 L 0 784 " fill="none" stroke="black" stroke-width="0.1" style="vector-effect:non-scaling-stroke;"/></g><g><path d="M 0 0  L 907.692308 0  c 0.0,23.325011044845674 -4.538461538461539,38.147920609064315 8.162068017532489,32.050142831286536
c 8.973137043649174,-5.226666666666667 14.772714217303877,0 14.772714217303877,11.505412724269021
c 0,8.220917943473786 -11.702467983230695,13.447584610140453 -16.194189383264813,8.220917943473786
c -11.8,-5.226666666666667 -7.261538461538462,18.293333333333333 -6.740592851571552,35.33463761208177 c 0.0,7.864357134487287 -4.538461538461539,36.78431686219696 15.113223793622618,30.686539084419184
c 10.283608580063758,-5.226666666666667 10.847670320103022,0 10.847670320103022,12.869016471136373
c 0,11.740166796005099 -27.526726218970865,16.966833462671765 -27.61741627978168,11.740166796005099
c -11.8,-5.226666666666667 -7.261538461538462,18.293333333333333 1.656522166056039,31.81538875955046 c -0.0,15.616767763166528 4.538461538461539,38.000947902655824 -13.821564189587315,31.90317012487804
c -9.789242218096364,-5.226666666666667 -11.559435993922209,0 -11.559435993922209,11.652385430677516
c 0,10.713240644944669 6.355625214698905,15.939907311611336 21.193184940032886,10.713240644944669
c 11.8,-5.226666666666667 7.261538461538462,18.293333333333333 4.1878152434766385,32.84231491061089 c -0.0,7.5884218710683795 4.538461538461539,38.12682701346944 -14.873752863434829,32.02904923569166
c -13.116685560536803,-5.226666666666667 -13.508079895428947,0 -13.508079895428947,11.526506319863898
c 0,8.115842235350357 6.285236755547257,13.342508902017023 11.774796997097493,8.115842235350357
c 11.8,-5.226666666666667 7.261538461538462,18.293333333333333 16.607035761766284,35.4397133202052 c 0.0,9.560816741464421 -4.538461538461539,40.03776863967664 5.952535777395703,33.93999086189886
c 19.30302150054931,-5.226666666666667 20.040863869319512,0 20.040863869319512,9.615564693656694
c 0,9.873995424426418 -7.630967017768232,15.100662091093085 -22.341706655835633,9.873995424426418
c -11.8,-5.226666666666667 -7.261538461538462,18.293333333333333 -3.6516929908795817,33.68156013112914 c -0.0,10.54599632508961 4.538461538461539,40.13900299595514 -11.992407161757608,34.04122521817736
c -9.284799394118401,-5.226666666666667 -13.115104601724791,0 -13.115104601724791,9.514330337378198
c 0,9.400400527077764 9.194934478068317,14.62706719374443 26.209652692683594,9.400400527077764
c 11.8,-5.226666666666667 7.261538461538462,18.293333333333333 -1.1021409292011946,34.15515502847779 c 0.0,9.534589986218965 -4.538461538461539,43.002645619105394 11.868452473216138,36.904867841327615
c 11.989133448000324,-5.226666666666667 12.389819228896158,0 12.389819228896158,6.650687714227942
c 0,9.389118551327407 -9.504069878495995,14.615785217994073 -16.140278029187677,9.389118551327407
c -11.8,-5.226666666666667 -7.261538461538462,18.293333333333333 -8.11799367292462,34.16643700422815 c 0.0,19.988855318338693 -4.538461538461539,43.4129219529501 15.856945275323827,37.31514417517232
c 4.056990612021049,-5.226666666666667 10.002625141231082,0 10.002625141231082,6.240411380383236
c 0,13.719910270853276 -12.789093208628598,18.946576937519943 -21.108290788371363,13.719910270853276
c -11.8,-5.226666666666667 -7.261538461538462,18.293333333333333 -4.751279628183546,29.83564528470228 c -0.0,12.389863288404674 4.538461538461539,38.61597478132812 -4.227162215896833,32.51819700355034
c -12.08490537254799,-5.226666666666667 -23.348630570943204,0 -23.348630570943204,11.037358552005216
c 0,9.47657810707387 7.092334161400669,14.703244773740536 17.573006670952978,9.47657810707387
c 11.8,-5.226666666666667 7.261538461538462,18.293333333333333 10.002786115887059,34.07897744848169 L 0 784 " fill="none" stroke="black" stroke-width="0.1" style="vector-effect:non-scaling-stroke;"/></g><g><path d="M 0 0  L 998.461538 0  c 0.0,15.234954804573498 -4.538461538461539,36.051772693424056 12.160603757847413,29.95399491564628
c 4.865984186395207,-5.226666666666667 11.33905917373709,0 11.33905917373709,13.601560639909277
c 0,9.36026793580244 -12.971958244081232,14.586934602469107 -16.02999099700633,9.36026793580244
c -11.8,-5.226666666666667 -7.261538461538462,18.293333333333333 -7.469671934578173,34.19528761975312 c -0.0,13.43452748586745 4.538461538461539,41.73287220632458 -6.0376561151112,35.6350944285468
c -13.543587029347119,-5.226666666666667 -20.64306147170188,0 -20.64306147170188,7.920461127008757
c 0,11.99330454359616 11.535005010359749,17.219971210262827 26.426161116619408,11.99330454359616
c 11.8,-5.226666666666667 7.261538461538462,18.293333333333333 0.25455647019367333,31.562251011959397 c 0.0,22.73592920097165 -4.538461538461539,38.67493968958844 3.689655005467228,32.57716191181066
c 14.959043857505744,-5.226666666666667 24.56733258413015,0 24.56733258413015,10.978393643744894
c 0,7.146013980847719 -6.004152064835245,12.372680647514386 -23.818165711046767,7.146013980847719
c -11.8,-5.226666666666667 -7.261538461538462,18.293333333333333 -4.438821878550609,36.40954157470784 c 0.0,19.589318380107265 -4.538461538461539,37.38669478952065 0.10452727040876011,31.288917011742868
c 15.552743150168324,-5.226666666666667 23.08089876352305,0 23.08089876352305,12.26663854381269
c 0,12.222633972358572 -6.064992699073452,17.44930063902524 -13.18480053345819,12.222633972358572
c -11.8,-5.226666666666667 -7.261538461538462,18.293333333333333 -10.000625500473618,31.332921583196985 c -0.0,16.786572488423907 4.538461538461539,39.078910139501396 -12.559815005826266,32.98113236172362
c -13.019765949840394,-5.226666666666667 -14.394749912448706,0 -14.394749912448706,10.57442319383194
c 0,11.568164315109335 5.345973158357344,16.794830981776002 8.273873724134123,11.568164315109335
c 11.8,-5.226666666666667 7.261538461538462,18.293333333333333 18.68069119414085,31.98739124044622 c -0.0,22.753562768797185 4.538461538461539,36.134844588500115 -12.630101830152004,30.037066810722337
c -6.5081356035091655,-5.226666666666667 -9.673898542195051,0 -9.673898542195051,13.51848874483322
c 0,11.525149130346492 4.253662425481178,16.75181579701316 13.95221297566527,11.525149130346492
c 11.8,-5.226666666666667 7.261538461538462,18.293333333333333 8.351787396681784,32.030406425209065 c 0.0,10.388846715613603 -4.538461538461539,37.227935374827524 17.125699228723928,31.13015759704975
c 3.2776382963536568,-5.226666666666667 6.480167146956692,0 6.480167146956692,12.425397958505808
c 0,12.374097263984247 -5.071554503712773,17.600763930650913 -14.377792690506682,12.374097263984247
c -11.8,-5.226666666666667 -7.261538461538462,18.293333333333333 -9.228073685173937,31.18145829157131 c 0.0,9.317262440307609 -4.538461538461539,38.09534385819665 1.6520709597118515,31.99756608041887
c 14.328638474709106,-5.226666666666667 25.049889452267145,0 25.049889452267145,11.557989475136687
c 0,6.270525448462855 -5.1890883977221325,11.497192115129522 -12.282317562320513,6.270525448462855
c -11.8,-5.226666666666667 -7.261538461538462,18.293333333333333 -14.419642849658482,37.2850301070927 c 0.0,24.89189196467758 -4.538461538461539,38.999019998432125 -0.46736538608289485,32.901242220654346
c 15.828873171220186,-5.226666666666667 24.2332305690744,0 24.2332305690744,10.654313334901211
c 0,11.696187296060344 -12.202727465242857,16.92285396272701 -22.417592081249747,11.696187296060344
c -11.8,-5.226666666666667 -7.261538461538462,18.293333333333333 -1.348273101741757,31.859368259495213 L 0 784 " fill="none" stroke="black" stroke-width="0.1" style="vector-effect:non-scaling-stroke;"/></g><g><path d="M 0 0  L 1089.230769 0  c 0.0,15.407538835096567 -4.538461538461539,38.12621586224255 17.633891263063752,32.028438084464774
c 3.7543897225264424,-5.226666666666667 5.086804819785822,0 5.086804819785822,11.527117471090783
c 0,11.299484586422295 -12.615082110734111,16.526151253088962 -20.819597037317724,11.299484586422295
c -11.8,-5.226666666666667 -7.261538461538462,18.293333333333333 -1.9010990455318506,32.25607096913326 c 0.0,18.54570117467109 -4.538461538461539,39.97580242845633 4.040846423416125,33.878024650678555
c 15.916039029658583,-5.226666666666667 19.2960786562735,0 19.2960786562735,9.677530904877003
c 0,12.573087677538524 -16.892252322702237,17.79975434420519 -24.839639123304494,12.573087677538524
c -11.8,-5.226666666666667 -7.261538461538462,18.293333333333333 1.5027140436148656,30.982467878017033 c 0.0,10.988049602821922 -4.538461538461539,40.69097737844978 13.474672504214173,34.593199600672
c 8.280570728758457,-5.226666666666667 12.010546467657335,0 12.010546467657335,8.962355954883556
c 0,7.716353972751726 -23.3599889501163,12.943020639418393 -27.195977243523295,7.716353972751726
c -11.8,-5.226666666666667 -7.261538461538462,18.293333333333333 1.7107582716517875,35.83920158280383 c 0.0,8.00851900981984 -4.538461538461539,37.56080750970814 9.714280221507755,31.463029731930362
c 4.2702384376914875,-5.226666666666667 12.481613836816761,0 12.481613836816761,12.092525823625195
c 0,10.559138852161851 -6.903873483350067,15.785805518828518 -20.643447861034478,10.559138852161851
c -11.8,-5.226666666666667 -7.261538461538462,18.293333333333333 -1.5524461972900383,32.996416703393706 c 0.0,4.967341535864182 -4.538461538461539,37.50991206511897 9.703017523719522,31.412134287341193
c 7.915293388673391,-5.226666666666667 15.56872601394504,0 15.56872601394504,12.143421268214365
c 0,9.501360835790152 -11.65110578048066,14.728027502456818 -22.222630640895158,9.501360835790152
c -11.8,-5.226666666666667 -7.261538461538462,18.293333333333333 -3.0491128967694046,34.054194719765405 c 0.0,4.418074412919398 -4.538461538461539,42.41681625472538 10.512644447344426,36.319038476947604
c 10.866498304029145,-5.226666666666667 19.055559091312773,0 19.055559091312773,7.236517078607953
c 0,7.017211902770569 -4.778702299625439,12.243878569437236 -11.310987255251106,7.017211902770569
c -11.8,-5.226666666666667 -7.261538461538462,18.293333333333333 -18.257216283406095,36.53834365278499 c -0.0,4.94060154893383 4.538461538461539,36.663081251843295 -7.706303906634621,30.565303474065512
c -9.016830669032784,-5.226666666666667 -22.09219965500444,0 -22.09219965500444,12.990252081490045
c 0,9.386914838549188 21.182565617796193,14.613581505215855 23.305562754638338,9.386914838549188
c 11.8,-5.226666666666667 7.261538461538462,18.293333333333333 6.492940807000721,34.16864071700637 c 0.0,16.82507637748087 -4.538461538461539,42.78782318062326 0.33834082978818264,36.690045402845485
c 8.798420812407231,-5.226666666666667 22.105448386533936,0 22.105448386533936,6.865510152710073
c 0,7.341132164489871 -6.448068787263136,12.567798831156537 -11.176512403140292,7.341132164489871
c -11.8,-5.226666666666667 -7.261538461538462,18.293333333333333 -11.267276813181828,36.21442339106569 c -0.0,8.18065424748303 4.538461538461539,41.01659552826534 0.36415175190385163,34.91881775048756
c -21.152363582485012,-5.226666666666667 -25.448088442922217,0 -25.448088442922217,8.636737805067995
c 0,7.965429373477299 3.9496623927994077,13.192096040143966 13.025731259939116,7.965429373477299
c 11.8,-5.226666666666667 7.261538461538462,18.293333333333333 12.05820543107925,35.59012618207826 L 0 784 " fill="none" stroke="black" stroke-width="0.1" style="vector-effect:non-scaling-stroke;"/></g></g><g><g><path d="M 0 0  L 0 87.111111  c 9.757172339787049,0.0 41.237304711633584,-4.355555555555556 34.88345855778743,1.6090480760350359
c -5.446153846153846,9.56274487350656 0,26.11072207782769 10.501156826827959,26.11072207782769
c 6.966188428470822,0 12.412342274624669,-16.072954685915924 6.966188428470822,-25.103464323323262
c -5.446153846153846,-11.324444444444445 19.06153846153846,-6.968888888888889 38.418426956144565,-2.6163058305394635 c 12.352314970576444,0.0 43.48002334907534,-4.355555555555556 37.12617719522918,4.100149677177438
c -5.446153846153846,17.31618843781311 0,22.048877295780244 8.258438189386204,22.048877295780244
c 11.624875544238023,0 17.07102939039187,-12.031035302879078 11.624875544238023,-19.295763566250315
c -5.446153846153846,-11.324444444444445 19.06153846153846,-6.968888888888889 33.759739840377364,-6.853263406707367 c 6.47941550914303,0.0 43.08235169668292,-4.355555555555556 36.728505542836764,7.339005750545345
c -5.446153846153846,5.981757817043306 0,14.867609618104803 8.656109841778623,14.867609618104803
c 12.29439614965073,0 17.740549995804578,-10.075534028010305 12.29439614965073,-13.361200616907606
c -5.446153846153846,-11.324444444444445 19.06153846153846,-6.968888888888889 33.09021923496466,-8.845414751742542 c 9.903495307458108,0.0 40.064271056119935,-4.355555555555556 33.71042490227378,9.663194541581491
c -5.446153846153846,5.0094118112954185 0,16.70977029014437 11.674190482341608,16.70977029014437
c 13.950856894399344,0 19.397010740553192,-13.992007488912424 13.950856894399344,-17.081803837188446
c -5.446153846153846,-11.324444444444445 19.06153846153846,-6.968888888888889 31.433758490216043,-9.291160994537414 c 20.371830404875116,0.0 40.84493322807729,-4.355555555555556 34.49108707423113,4.084888408076707
c -5.446153846153846,21.150764364953023 0,21.7087929098566 10.893528310384255,21.7087929098566
c 11.478125295413783,0 16.92427914156763,-7.680246249178382 11.478125295413783,-9.433754217506298
c -5.446153846153846,-11.324444444444445 19.06153846153846,-6.968888888888889 33.906490089201604,-16.35992710042701 c 18.67413557952455,0.0 38.3769922887624,-4.355555555555556 32.023146134916246,11.861663351651872
c -5.446153846153846,3.7865748504952865 0,12.573434413409652 13.361469249699141,12.573434413409652
c 13.412260132356636,0 18.858413978510484,-5.0426028256127085 13.412260132356636,-14.094760826004403
c -5.446153846153846,-11.324444444444445 19.06153846153846,-6.968888888888889 31.97235525225875,-10.34033693905712 c 22.61325387712463,0.0 41.80278502453401,-4.355555555555556 35.448938870687854,6.032163586682836
c -5.446153846153846,7.0350697965786635 0,16.956457913285526 9.935676513927532,16.956457913285526
c 8.776024457350843,0 14.22217830350469,-6.205522750995845 8.776024457350843,-18.363896576139993
c -5.446153846153846,-11.324444444444445 19.06153846153846,-6.968888888888889 36.608590927264544,-4.624724923828367 c 8.88818452891229,0.0 42.51268641152043,-4.355555555555556 36.15884025767427,-0.12953256293121718
c -5.446153846153846,20.70185906504631 0,27.85354316858922 9.225775126941116,27.85354316858922
c 10.56646204426221,0 16.012615890416058,-9.75416521283296 10.56646204426221,-24.665461532025173
c -5.446153846153846,-11.324444444444445 19.06153846153846,-6.968888888888889 34.81815334035318,-3.058549073632829 c 11.67900458788749,0.0 43.974353516919145,-4.355555555555556 37.62050736307299,0.7984546076879129
c -5.446153846153846,15.461117921783753 0,21.333788613968423 7.764108021542398,21.333788613968423
c 9.96446433752704,0 15.410618183680887,-15.874152156536477 9.96446433752704,-15.7706227395152
c -5.446153846153846,-11.324444444444445 19.06153846153846,-6.968888888888889 35.420151047088346,-6.361620482141134 c 15.046297738345354,0.0 40.46512885269791,-4.355555555555556 34.11128269885175,15.922122001625516
c -5.446153846153846,8.892660328112527 0,9.948448366927737 11.273332685763634,9.948448366927737
c 11.968082951583547,0 17.414236797737395,-4.951097621619061 11.968082951583547,-18.19413717406868
c -5.446153846153846,-11.324444444444445 19.06153846153846,-6.968888888888889 33.41653243303184,-7.676433194484574 c 6.697910637876225,-0.0 42.36918049866203,4.355555555555556 36.01533434481588,-16.24026755791547
c -5.446153846153846,-4.431414337616208 0,-6.293710562840353 9.36928103979951,-6.293710562840353
c 7.769405179714859,0 13.215559025868705,1.98046315256543 7.769405179714859,4.431508207507459
c -5.446153846153846,11.324444444444445 19.06153846153846,6.968888888888889 37.61521020490053,18.102469913248363 c 7.427607342992889,-0.0 40.92630701838172,4.355555555555556 34.572460864535564,-15.088053306958862
c -5.446153846153846,-2.831279100278172 0,-8.013474472604788 10.812154520079822,-8.013474472604788
c 10.458041196800465,0 15.904195042954312,4.680619896310489 10.458041196800465,16.426830577241613
c -5.446153846153846,11.324444444444445 19.06153846153846,6.968888888888889 34.92657418781492,6.674697202322037 c 10.840329334066446,0.0 41.81967662382176,-4.355555555555556 35.46583046997561,2.9864880081669147
c -5.446153846153846,15.996156048609599 0,22.122859673177473 9.91878491463978,22.122859673177473
c 7.99197505589602,0 13.438128902049867,-19.07318661599006 7.99197505589602,-21.118948762285687
c -5.446153846153846,-11.324444444444445 19.06153846153846,-6.968888888888889 37.39264032871937,-3.990398919058702 L 1180 0 " fill="none" stroke="black" stroke-width="0.1" style="vector-effect:non-scaling-stroke;"/></g><g><path d="M 0 0  L 0 174.222222  c 13.555112766686362,-0.0 39.79515567462309,4.355555555555556 33.44130952077693,-4.3372466820036655
c -5.446153846153846,-9.790726556211471 0,-17.533739619108268 11.943305863838454,-17.533739619108268
c 11.896427103662482,0 17.34258094981633,18.365643982552836 11.896427103662482,21.62964859392671
c -5.446153846153846,11.324444444444445 19.06153846153846,6.968888888888889 33.488188280952905,0.24133770718522385 c 9.38026369471826,-0.0 37.41866309172077,4.355555555555556 31.06481693787461,1.2886625797777485
c -5.446153846153846,-8.48792198479474 0,-26.27007402165576 14.319798446740776,-26.27007402165576
c 10.974150234932786,0 16.420304081086634,5.364687066223979 10.974150234932786,19.015062276624725
c -5.446153846153846,11.324444444444445 19.06153846153846,6.968888888888889 34.4104651496826,5.966349165253284 c 20.15033526019981,0.0 37.93906418061259,-4.355555555555556 31.585218026766437,11.66942055264997
c -5.446153846153846,4.981344097656236 0,14.099488684172535 13.79939735784895,14.099488684172535
c 6.4065259718038945,0 11.85267981795774,-11.36380313509652 6.4065259718038945,-12.586573299351004
c -5.446153846153846,-11.324444444444445 19.06153846153846,-6.968888888888889 38.97808941281149,-13.182335937471501 c 8.538028726751445,0.0 40.86502227868398,-4.355555555555556 34.511176124837824,15.138738112440254
c -5.446153846153846,5.73185786954976 0,7.093182443467988 10.873439259777562,7.093182443467988
c 12.936714003166486,0 18.382867849320334,-19.88465905904306 12.936714003166486,-23.0526322253429
c -5.446153846153846,-11.324444444444445 19.06153846153846,-6.968888888888889 32.4479013814489,0.8207116694346581 c 6.86639668007388,0.0 37.80377086979511,-4.355555555555556 31.449924715948953,18.00399280400749
c -5.446153846153846,4.683818739369856 0,4.800250657507135 13.934690668666434,4.800250657507135
c 10.74951398674505,0 16.1956678328989,-8.127845939219801 10.74951398674505,-14.32114120078414
c -5.446153846153846,-11.324444444444445 19.06153846153846,-6.968888888888889 34.635101397870336,-8.483102260730483 c 23.64037242428678,-0.0 42.69782384113027,4.355555555555556 36.34397768728412,-13.572946436531046
c -5.446153846153846,-5.885212228158999 0,-15.229355657121397 9.04063769733127,-15.229355657121397
c 8.40465164705126,0 13.850805493205106,10.14079109769201 8.40465164705126,25.64935615070063
c -5.446153846153846,11.324444444444445 19.06153846153846,6.968888888888889 36.97996373756413,3.1529459429518134 c 25.67004821863587,-0.0 38.82181482580582,4.355555555555556 32.46796867195967,-15.31136488730611
c -5.446153846153846,-8.084873145034825 0,-9.741238391290894 12.91664671265572,-9.741238391290894
c 6.992604006358619,0 12.438757852512465,9.066060114132302 6.992604006358619,19.39133883535839
c -5.446153846153846,11.324444444444445 19.06153846153846,6.968888888888889 38.39201137825677,5.661264443238615 c 20.592972531660592,0.0 42.59878396710327,-4.355555555555556 36.24493781325712,6.558794968213652
c -5.446153846153846,8.89486407249972 0,19.137738647018153 9.13967757135827,19.137738647018153
c 7.4817138742869105,0 12.927867720440757,-4.7180049977036465 7.4817138742869105,-15.793546034515375
c -5.446153846153846,-11.324444444444445 19.06153846153846,-6.968888888888889 37.902901510328476,-9.902987580716433 c 19.84886166902065,-0.0 42.6883529845776,4.355555555555556 36.33450683073144,-7.706192383350043
c -5.446153846153846,-12.736177448312876 0,-15.374048932586266 9.050108553883945,-15.374048932586266
c 10.016887035017703,0 15.46304088117155,12.009110064451257 10.016887035017703,24.774003188146516
c -5.446153846153846,11.324444444444445 19.06153846153846,6.968888888888889 35.367728349597684,-1.6937618722102066 c 16.882158576342768,0.0 39.38812801438977,-4.355555555555556 33.034281860543615,10.927871861726086
c -5.446153846153846,6.917879186290362 0,14.216831142321784 12.350333524071772,14.216831142321784
c 9.325818016196337,0 14.771971862350183,-6.087095708551777 9.325818016196337,-10.955927355806418
c -5.446153846153846,-11.324444444444445 19.06153846153846,-6.968888888888889 36.05879736841905,-14.188775648241451 c 12.533767855129634,0.0 43.082861377483376,-4.355555555555556 36.72901522363722,15.59047100672587
c -5.446153846153846,7.784964058041645 0,10.89972346831631 8.655600160978167,10.89972346831631
c 8.037939107995292,0 13.484092954149139,-6.996800477645969 8.037939107995292,-14.715578739412805
c -5.446153846153846,-11.324444444444445 19.06153846153846,-6.968888888888889 37.346676276620094,-11.774615735629375 c 19.733435127523833,0.0 39.99125072386865,-4.355555555555556 33.6374045700225,12.761776061267447
c -5.446153846153846,2.771660037585776 0,8.454385250850233 11.74721081459289,8.454385250850233
c 9.248655297881847,0 14.694809144035693,-5.6481350330729425 9.248655297881847,-6.952051136213797
c -5.446153846153846,-11.324444444444445 19.06153846153846,-6.968888888888889 36.13596008673354,-14.264110175903884 c 14.520923653273936,-0.0 38.749744093032795,4.355555555555556 32.39589793918664,-11.683446381211947
c -5.446153846153846,-4.866676584999635 0,-16.442930767107605 12.988717445428748,-16.442930767107605
c 11.69865092127933,0 17.14480476743318,17.413736183232665 11.69865092127933,29.25642521484445
c -5.446153846153846,11.324444444444445 19.06153846153846,6.968888888888889 33.685964463336056,-1.1300480665248998 L 1180 0 " fill="none" stroke="black" stroke-width="0.1" style="vector-effect:non-scaling-stroke;"/></g><g><path d="M 0 0  L 0 261.333333  c 16.933224501361156,0.0 41.375865677664684,-4.355555555555556 35.02201952381853,0.3428201507231717
c -5.446153846153846,13.002779835904324 0,28.91366777129592 10.362595860796858,28.91366777129592
c 10.979864053641897,0 16.426017899795745,-3.3737672587135825 10.979864053641897,-13.42970726655478
c -5.446153846153846,-11.324444444444445 19.06153846153846,-6.968888888888889 34.40475133097349,-15.82678065546431 c 10.185894951296518,0.0 39.14540432455599,-4.355555555555556 32.791558170709834,3.237074497068055
c -5.446153846153846,14.798662409058235 0,21.25385779224247 12.593057213905553,21.25385779224247
c 7.69794796189543,0 13.144101808049276,-2.4238622989680083 7.69794796189543,-7.366171606863418
c -5.446153846153846,-11.324444444444445 19.06153846153846,-6.968888888888889 37.68666742271996,-17.124760682447107 c 11.15376165744215,-0.0 41.587277519327685,4.355555555555556 35.23343136548153,-3.8835588981423523
c -5.446153846153846,-15.293060123746992 0,-22.49471872559679 10.151184019133858,-22.49471872559679
c 9.253263652677475,0 14.699417498831322,2.4214470884406984 9.253263652677475,11.290644964919037
c -5.446153846153846,11.324444444444445 19.06153846153846,6.968888888888889 36.13135173193791,15.087632658820107 c 8.152459128087859,0.0 39.171826692643634,-4.355555555555556 32.81798053879748,11.450199923156724
c -5.446153846153846,12.410842597242548 0,16.020017379301112 12.566634845817909,16.020017379301112
c 12.034378953474189,0 17.480532799628037,-22.6778801828482 12.034378953474189,-25.74980756472641
c -5.446153846153846,-11.324444444444445 19.06153846153846,-6.968888888888889 33.3502364311412,-1.7204097377314262 c 20.84541841754024,-0.0 40.25221468267791,4.355555555555556 33.89836852883175,-9.151339320812303
c -5.446153846153846,-7.065997039342127 0,-14.160243420353885 11.486246855783634,-14.160243420353885
c 8.91169537836965,0 14.357849224523497,3.130811562264666 8.91169537836965,12.023168762964293
c -5.446153846153846,11.324444444444445 19.06153846153846,6.968888888888889 36.47292000624574,11.288413978201895 c 8.3231234907559,0.0 42.47048779492153,-4.355555555555556 36.116641641075375,2.971899004809415
c -5.446153846153846,15.313250687879517 0,25.790138724930824 9.267973743540011,25.790138724930824
c 11.386080094542734,0 16.832233940696582,-2.890251384374496 11.386080094542734,-12.32751659850054
c -5.446153846153846,-11.324444444444445 19.06153846153846,-6.968888888888889 33.99853529007265,-16.4345211312397 c 11.256977174977704,-0.0 41.178536250162075,4.355555555555556 34.82469009631592,-16.12521725807228
c -5.446153846153846,-3.9591658143911976 0,-8.054811515930783 10.559925288299468,-8.054811515930783
c 8.580367775838418,0 14.026521621992265,6.276680406967292 8.580367775838418,11.48918571940578
c -5.446153846153846,11.324444444444445 19.06153846153846,6.968888888888889 36.80424760877697,12.690843054597282 c 8.473441852834467,-0.0 40.69096779892498,4.355555555555556 34.337121645078824,-14.859416034495766
c -5.446153846153846,-3.151303163253602 0,-13.439160671817259 11.047493739536563,-13.439160671817259
c 6.91314472678706,0 12.359298572940906,5.0474788669979604 6.91314472678706,15.505542454581256
c -5.446153846153846,11.324444444444445 19.06153846153846,6.968888888888889 38.47147065782833,12.793034251731768 c 5.722733849669833,-0.0 41.28659656847708,4.355555555555556 34.932750414630924,-10.832242707511817
c -5.446153846153846,-5.142237167173751 0,-10.620147779457657 10.451864969984463,-10.620147779457657
c 7.796288094255175,0 13.242441940409021,19.079951580104474 7.796288094255175,21.624588697585526
c -5.446153846153846,11.324444444444445 19.06153846153846,6.968888888888889 37.58832729036021,-0.17219821061605245 c 18.394058990776582,-0.0 39.98643262683481,4.355555555555556 33.632586472988656,-3.3671180484002763
c -5.446153846153846,-4.6510324113779165 0,-20.995233819955978 11.75202891162673,-20.995233819955978
c 7.103167360476455,0 12.549321206630301,6.050827668110186 7.103167360476455,8.619174122865097
c -5.446153846153846,11.324444444444445 19.06153846153846,6.968888888888889 38.28144802413893,15.743177745491156 c 23.88748555784226,-0.0 44.551244765945135,4.355555555555556 38.19739861209898,-17.779439059837543
c -5.446153846153846,-3.489842692407563 0,-4.78681607517553 7.187216772516408,-4.78681607517553
c 11.95681637708715,0 17.402970223241,4.690221583562459 11.95681637708715,17.409201801479632
c -5.446153846153846,11.324444444444445 19.06153846153846,6.968888888888889 33.427799007528236,5.15705333353344 c 9.887705734179116,0.0 41.60796646967845,-4.355555555555556 35.254120315832296,17.559471461273777
c -5.446153846153846,1.9963209707580412 0,7.425325367337887 10.130495068783091,7.425325367337887
c 11.540704571481328,0 16.986858417635176,-9.799384963638564 11.540704571481328,-13.772505551292957
c -5.446153846153846,-11.324444444444445 19.06153846153846,-6.968888888888889 33.84391081313406,-11.212291277318707 c 9.454454098563827,-0.0 42.924116613882795,4.355555555555556 36.57027046003664,-13.38816515821627
c -5.446153846153846,-9.731151938524233 0,-15.657751733462616 8.814344924578748,-15.657751733462616
c 10.429178885481605,0 15.875332731635451,8.731553478402498 10.429178885481605,11.474910270665934
c -5.446153846153846,11.324444444444445 19.06153846153846,6.968888888888889 34.95543649913378,17.571006621012952 L 1180 0 " fill="none" stroke="black" stroke-width="0.1" style="vector-effect:non-scaling-stroke;"/></g><g><path d="M 0 0  L 0 348.444444  c 24.31909000495157,0.0 45.1816046839268,-4.355555555555556 38.827758530080644,5.335652205611764
c -5.446153846153846,20.956016978970393 0,23.723397001772625 6.556856854534743,23.723397001772625
c 8.221011123929884,0 13.66716497008373,-11.163277020224026 8.221011123929884,-13.106765078330824
c -5.446153846153846,-11.324444444444445 19.06153846153846,-6.968888888888889 37.1636042606855,-15.952284129053567 c 23.171093180403638,0.0 45.224646529578,-4.355555555555556 38.87080037573185,2.9959290474045623
c -5.446153846153846,12.909364284040585 0,23.752864704687916 6.51381500888354,23.752864704687916
c 7.78759481786588,0 13.233748664019727,-27.236691397200165 7.78759481786588,-27.69238214262908
c -5.446153846153846,-11.324444444444445 19.06153846153846,-6.968888888888889 37.59702056674951,0.9435883905366005 c 7.614148762534004,-0.0 37.518033915360654,4.355555555555556 31.1641877615145,-8.876241568976502
c -5.446153846153846,-4.435915452534493 0,-13.346844503911411 14.220427623100885,-13.346844503911411
c 9.746259113797173,0 15.19241295995102,9.552833413608091 9.746259113797173,14.325907482662764
c -5.446153846153846,11.324444444444445 19.06153846153846,6.968888888888889 35.638356270818214,7.897178590225149 c 14.2157000222772,-0.0 37.61763592095177,4.355555555555556 31.263789767105614,-7.686444179859632
c -5.446153846153846,-12.451128869093942 0,-17.591003612902167 14.120825617509773,-17.591003612902167
c 13.261512506067142,0 18.70766635222099,15.384514324796179 13.261512506067142,20.781281806361296
c -5.446153846153846,11.324444444444445 19.06153846153846,6.968888888888889 32.123102878548245,4.496165986400502 c 19.89777353465158,0.0 42.56470824180532,-4.355555555555556 36.210862087959164,10.72484891504277
c -5.446153846153846,12.227386190160042 0,15.544526395425798 9.173753296656223,15.544526395425798
c 8.376441067721053,0 13.8225949138749,-5.931225431986575 8.376441067721053,-24.889464259766093
c -5.446153846153846,-11.324444444444445 19.06153846153846,-6.968888888888889 37.00817431689433,-1.379911050702475 c 5.65978211284274,0.0 41.46484138069942,-4.355555555555556 35.11099522685326,13.208787529309083
c -5.446153846153846,9.091026353360945 0,13.07776247442841 10.273620157762124,13.07776247442841
c 12.502415125248021,0 17.94856897140187,-4.368439630543125 12.502415125248021,-18.263081319182433
c -5.446153846153846,-11.324444444444445 19.06153846153846,-6.968888888888889 32.882200259367366,-8.02346868455506 c 20.407108481837085,-0.0 43.10130600033264,4.355555555555556 36.747459846486485,-1.7564097458646524
c -5.446153846153846,-18.22108929870203 0,-27.719980344903195 8.637155538128901,-27.719980344903195
c 8.48607554285121,0 13.932229389005057,7.453513873257516 8.48607554285121,10.847150593812472
c -5.446153846153846,11.324444444444445 19.06153846153846,6.968888888888889 36.898539841764176,18.629239496955375 c 6.872874802193533,0.0 39.860144562513355,-4.355555555555556 33.5062984086672,12.451735667435925
c -5.446153846153846,10.63557431475893 0,15.967872966226123 11.878316975948188,15.967872966226123
c 12.570473339934523,0 18.01662718608837,-23.369720820934834 12.570473339934523,-26.54199743008418
c -5.446153846153846,-11.324444444444445 19.06153846153846,-6.968888888888889 32.814142044680864,-1.8776112035778674 c 19.280069797213354,-0.0 40.84464781870503,4.355555555555556 34.49080166485887,-14.334964679202395
c -5.446153846153846,-12.428341229735244 0,-13.249786506004027 10.893813719756515,-13.249786506004027
c 9.011769539074784,0 14.45792338522863,14.982042402530988 9.011769539074784,21.508010467861993
c -5.446153846153846,11.324444444444445 19.06153846153846,6.968888888888889 36.3728458455406,6.076740717344428 c 6.953367818803302,0.0 42.91290558972178,-4.355555555555556 36.559059435875625,3.4889962482982844
c -5.446153846153846,7.097517363944599 0,24.85288171898394 8.825555948739762,24.85288171898394
c 9.116537327804103,0 14.56269117395795,-12.965394615489048 9.116537327804103,-14.134403235819624
c -5.446153846153846,-11.324444444444445 19.06153846153846,-6.968888888888889 36.268078056811284,-14.207474731462602 c 12.199918716759152,-0.0 39.65494745089615,4.355555555555556 33.301101297049996,-7.4752874851831725
c -5.446153846153846,-7.904854472651597 0,-14.265573948189179 12.08351408756539,-14.265573948189179
c 14.00174218763086,0 19.44789603378471,13.655176814210979 14.00174218763086,19.08815087874938
c -5.446153846153846,11.324444444444445 19.06153846153846,6.968888888888889 31.382873196984526,2.6527105546229706 c 8.46147903521329,0.0 41.80183601081622,-4.355555555555556 35.44798985697006,4.885932800172702
c -5.446153846153846,4.312021827659975 0,17.619934489796748 9.936625527645326,17.619934489796748
c 8.426490598537278,0 13.872644444691124,-9.788123465311724 8.426490598537278,-20.586460123260604
c -5.446153846153846,-11.324444444444445 19.06153846153846,-6.968888888888889 36.95812478607811,-1.9194071667088473 c 9.094258019802501,0.0 39.8294476621428,-4.355555555555556 33.47560150829664,13.187139604412652
c -5.446153846153846,10.923444702252633 0,13.568772370791377 11.909013876318745,13.568772370791377
c 6.611645177252498,0 12.057799023406345,-12.56457578571387 6.611645177252498,-13.124604780420936
c -5.446153846153846,-11.324444444444445 19.06153846153846,-6.968888888888889 38.77297020736289,-13.631307194783092 L 1180 0 " fill="none" stroke="black" stroke-width="0.1" style="vector-effect:non-scaling-stroke;"/></g><g><path d="M 0 0  L 0 435.555556  c 17.56772962296302,-0.0 37.66956187470237,4.355555555555556 31.315715720856215,-2.78317076188268
c -5.446153846153846,-23.29046187941861 0,-24.914292448239447 14.068899663759172,-24.914292448239447
c 7.594786977358311,0 13.040940823512157,6.152908542058474 7.594786977358311,10.413210583128524
c -5.446153846153846,11.324444444444445 19.06153846153846,6.968888888888889 37.789828407257076,17.284252626993602 c 8.280076964097825,0.0 42.29642631450527,-4.355555555555556 35.94258016065911,3.1466398583750848
c -5.446153846153846,12.817550811577549 0,19.010542495972977 9.442035223956275,19.010542495972977
c 10.673250850980594,0 16.119404697134442,-3.2766760599315328 10.673250850980594,-5.875059184661215
c -5.446153846153846,-11.324444444444445 19.06153846153846,-6.968888888888889 34.71136453363479,-16.282123169686848 c 19.068566113416523,-0.0 37.507212723966404,4.355555555555556 31.153366570120248,-8.960839068281999
c -5.446153846153846,-14.778487489051452 0,-15.273026616189604 14.231248814495139,-15.273026616189604
c 7.078433505322906,0 12.524587351476752,21.72793220892046 7.078433505322906,24.88296959606464
c -5.446153846153846,11.324444444444445 19.06153846153846,6.968888888888889 38.30618187929248,-0.6491039115930377 c 22.215004309988625,0.0 40.213728013031705,-4.355555555555556 33.85988185918555,15.737415962551419
c -5.446153846153846,3.3742042955928158 0,6.720036208027141 11.524733525429838,6.720036208027141
c 6.493119391384013,0 11.93927323753786,-11.349804437897209 6.493119391384013,-16.57919470788086
c -5.446153846153846,-11.324444444444445 19.06153846153846,-6.968888888888889 38.89149599323137,-5.8782574626977 c 26.256238795296806,-0.0 41.28685968691366,4.355555555555556 34.9330135330675,-6.099125137089336
c -5.446153846153846,-6.960311575883714 0,-15.986533237457389 10.451601851547885,-15.986533237457389
c 11.415324945508623,0 16.86147879166247,18.22844434072947 11.415324945508623,19.821748797136337
c -5.446153846153846,11.324444444444445 19.06153846153846,6.968888888888889 33.969290439106764,2.263909577410388 c 5.262102000619004,0.0 43.90661490387318,-4.355555555555556 37.55276875002702,1.2455075564561486
c -5.446153846153846,24.808874493248343 0,26.131483064681184 7.831846634588366,26.131483064681184
c 12.249653026831467,0 17.695806872985315,-8.72218797674567 12.249653026831467,-8.732945076146237
c -5.446153846153846,-11.324444444444445 19.06153846153846,-6.968888888888889 33.13496235778392,-18.644045544991094 c 12.486467246961,-0.0 41.976912463310384,4.355555555555556 35.62306630946423,-12.47847317217448
c -5.446153846153846,-16.33159103164249 0,-16.69725885534644 9.761549075151159,-16.69725885534644
c 14.125665930889099,0 19.571819777042947,17.36447093521859 14.125665930889099,30.55375162591636
c -5.446153846153846,11.324444444444445 19.06153846153846,6.968888888888889 31.258949453726288,-1.3780195983954364 c 22.53129643417072,0.0 41.41470028065586,-4.355555555555556 35.0608541268097,2.0247566795597147
c -5.446153846153846,15.19882401845542 0,19.01651384292597 10.323761257805685,19.01651384292597
c 7.6687763344413185,0 13.114930180595165,-6.398485419973731 7.6687763344413185,-20.918356647863543
c -5.446153846153846,-11.324444444444445 19.06153846153846,-6.968888888888889 37.71583905017407,-0.12291387462214232 c 13.747347395120077,-0.0 41.0396397803127,4.355555555555556 34.68579362646654,-0.5281960832311097
c -5.446153846153846,-24.826867319566944 0,-27.91718966730686 10.698821758148846,-27.91718966730686
c 10.71148313090513,0 16.157636977058978,20.90757727856016 10.71148313090513,27.161790629961793
c -5.446153846153846,11.324444444444445 19.06153846153846,6.968888888888889 34.67313225371026,1.2835951205761766 c 24.56808943388657,-0.0 43.748450028797215,4.355555555555556 37.39460387495106,-6.418950865694748
c -5.446153846153846,-13.924230760089923 0,-21.962929903903095 7.990011509664328,-21.962929903903095
c 11.678793331559298,0 17.124947177713146,16.803448699435634 11.678793331559298,20.947979366712016
c -5.446153846153846,11.324444444444445 19.06153846153846,6.968888888888889 33.70582205305609,7.433901402885827 c 15.040545090525614,0.0 41.26172706412577,-4.355555555555556 34.907880910279616,7.070208357386379
c -5.446153846153846,4.532028633154582 0,17.83299811621304 10.476734474335771,17.83299811621304
c 11.044139983585218,0 16.490293829739066,-18.035705666245576 11.044139983585218,-18.125775507948006
c -5.446153846153846,-11.324444444444445 19.06153846153846,-6.968888888888889 34.34047540103017,-6.777430965651412 c 14.875756266082744,-0.0 40.925110532024526,4.355555555555556 34.57126437817837,-12.591983279736542
c -5.446153846153846,-5.453418450103175 0,-15.28639659383894 10.813351006437017,-15.28639659383894
c 7.107834629257091,0 12.553988475410938,4.087750571782065 7.107834629257091,9.312673046340304
c -5.446153846153846,11.324444444444445 19.06153846153846,6.968888888888889 38.276780755358295,18.56570682723518 c 21.386448221355284,0.0 40.12567435936111,-4.355555555555556 33.77182820551496,18.38848361233324
c -5.446153846153846,7.834305158237943 0,8.042714295349882 11.61278717910043,8.042714295349882
c 9.052474972218263,0 14.49862881837211,-6.622557809551878 9.052474972218263,-24.14270981227553
c -5.446153846153846,-11.324444444444445 19.06153846153846,-6.968888888888889 36.33214041239712,-2.2884880954075904 L 1180 0 " fill="none" stroke="black" stroke-width="0.1" style="vector-effect:non-scaling-stroke;"/></g><g><path d="M 0 0  L 0 522.666667  c 9.18991849592042,0.0 39.77355684749842,-4.355555555555556 33.41971069365226,15.038947025897249
c -5.446153846153846,8.158026673650406 0,9.75624913639952 11.964904690963124,9.75624913639952
c 6.822725394574434,0 12.26887924072828,-9.640439106727408 6.822725394574434,-12.9729922633188
c -5.446153846153846,-11.324444444444445 19.06153846153846,-6.968888888888889 38.56188999004095,-11.82220389897797 c 17.369762634479315,-0.0 44.04285238141453,4.355555555555556 37.68900622756837,-13.820215306703956
c -5.446153846153846,-7.626992226412202 0,-7.792226146177059 7.695609157047016,-7.792226146177059
c 9.755994502357964,0 15.20214834851181,16.75623055559863 9.755994502357964,21.834994263230346
c -5.446153846153846,11.324444444444445 19.06153846153846,6.968888888888889 35.62862088225742,-0.22255281034933105 c 11.27384840546869,0.0 38.10791320932199,-4.355555555555556 31.75406705547584,10.715883948979112
c -5.446153846153846,9.538560391017981 0,14.228038977353403 13.630548329139547,14.228038977353403
c 11.146372661679912,0 16.59252650783376,-12.11023683011916 11.146372661679912,-18.06534722203823
c -5.446153846153846,-11.324444444444445 19.06153846153846,-6.968888888888889 34.238242722935475,-6.878575704294285 c 24.370975401738857,-0.0 44.889372312555416,4.355555555555556 38.53552615870926,-3.6794403504264954
c -5.446153846153846,-17.26013010432984 0,-22.553138510782798 6.849089225906127,-22.553138510782798
c 12.16432603338405,0 17.6104798795379,16.943968797865438 12.16432603338405,27.490668912253966
c -5.446153846153846,11.324444444444445 19.06153846153846,6.968888888888889 33.22028935123134,-1.2580900510446718 c 11.453658177259259,0.0 42.43436106729551,-4.355555555555556 36.080514913449356,1.6574897859814093
c -5.446153846153846,5.503209795584977 0,24.75157499136821 9.30410047116603,24.75157499136821
c 7.252344676100812,0 12.698498522254658,-7.7840520834329725 7.252344676100812,-13.680350801033514
c -5.446153846153846,-11.324444444444445 19.06153846153846,-6.968888888888889 38.132270708514575,-12.728713976316103 c 10.055190921345673,-0.0 41.060657531059334,4.355555555555556 34.70681137721318,-0.20743926105294935
c -5.446153846153846,-5.500663796784373 0,-23.59047997031537 10.677804007402209,-23.59047997031537
c 8.458337043152838,0 13.904490889306684,8.379195374038801 8.458337043152838,17.0527490838991
c -5.446153846153846,11.324444444444445 19.06153846153846,6.968888888888889 36.92627834146255,6.745170147469221 c 10.711787394458925,0.0 40.49048425509611,-4.355555555555556 34.13663810124996,16.05334788591281
c -5.446153846153846,12.571243491671963 0,12.976805264233416 11.24797728336543,12.976805264233416
c 9.005507108812076,0 14.451660954965922,-15.246523507585852 9.005507108812076,-26.890031228703336
c -5.446153846153846,-11.324444444444445 19.06153846153846,-6.968888888888889 36.37910827580331,-2.1401219214428906 c 15.51417110849412,-0.0 43.589725433285814,4.355555555555556 37.23587927943966,-6.377533517701258
c -5.446153846153846,-15.974391313519462 0,-18.510147350696425 8.148736105175729,-18.510147350696425
c 12.219406798721351,0 17.6655606448752,4.450558453696747 12.219406798721351,7.856895297027705
c -5.446153846153846,11.324444444444445 19.06153846153846,6.968888888888889 33.165208585894035,17.03078557136998 c 5.7787227562767916,0.0 38.561384820673574,-4.355555555555556 32.20753866682742,6.340340504369554
c -5.446153846153846,17.62694251120924 0,19.62764737099784 13.177076717787969,19.62764737099784
c 7.176374474623216,0 12.622528320777063,-15.204920916484584 7.176374474623216,-25.562291939414205
c -5.446153846153846,-11.324444444444445 19.06153846153846,-6.968888888888889 38.20824090999217,-0.40569593595318665 c 17.471903703000915,0.0 44.679011008658485,-4.355555555555556 38.32516485481233,8.28516979113664
c -5.446153846153846,12.418091105085487 0,14.83345564884223 7.059450529803058,14.83345564884223
c 9.634398076575557,0 15.080551922729404,-6.19716904747855 9.634398076575557,-14.177431882393057
c -5.446153846153846,-11.324444444444445 19.06153846153846,-6.968888888888889 35.75021730803983,-8.941193557585814 c 14.026871521801914,0.0 43.24698206774312,-4.355555555555556 36.89313591389696,16.603049608116006
c -5.446153846153846,4.16465325712998 0,5.152938184911456 8.491479470718424,5.152938184911456
c 9.275712139800184,0 14.72186598595403,-22.682119772874827 9.275712139800184,-22.76420629912207
c -5.446153846153846,-11.324444444444445 19.06153846153846,-6.968888888888889 36.1089032448152,1.0082185060946074 c 24.30756214928282,-0.0 40.567772577155736,4.355555555555556 34.21392642330958,-10.946823409454973
c -5.446153846153846,-4.458892260061599 0,-16.28711183501177 11.170688961305807,-16.28711183501177
c 9.097584934534197,0 14.543738780688043,8.842863326269802 9.097584934534197,20.153071098719195
c -5.446153846153846,11.324444444444445 19.06153846153846,6.968888888888889 36.28703045008119,7.080864145747547 c 15.70076727188538,-0.0 43.22132323589455,4.355555555555556 36.867477082048396,-3.362706979071134
c -5.446153846153846,-16.850929958076293 0,-21.350547469357004 8.517138302566991,-21.350547469357004
c 9.10313467060859,0 14.549288516762436,4.736091930757047 9.10313467060859,14.302541358187415
c -5.446153846153846,11.324444444444445 19.06153846153846,6.968888888888889 36.2814807140068,10.410713090240723 L 1180 0 " fill="none" stroke="black" stroke-width="0.1" style="vector-effect:non-scaling-stroke;"/></g><g><path d="M 0 0  L 0 609.777778  c 17.314928427741982,-0.0 44.213356254504006,4.355555555555556 37.85951010065785,-14.011829585482161
c -5.446153846153846,-6.028580023167473 0,-13.986757325687588 7.5251052839575365,-13.986757325687588
c 7.029589724851313,0 12.47574357100516,16.254891672056992 7.029589724851313,21.25800479038792
c -5.446153846153846,11.324444444444445 19.06153846153846,6.968888888888889 38.355025659764074,6.740582120781831 c 19.272782075977183,-0.0 45.09233229483245,4.355555555555556 38.738486140986296,-3.7663247689302017
c -5.446153846153846,-17.57192592456089 0,-18.61626460663707 6.64612924362909,-18.61626460663707
c 11.804382387135362,0 17.25053623328921,5.427894537442027 11.804382387135362,13.059246889704038
c -5.446153846153846,11.324444444444445 19.06153846153846,6.968888888888889 33.580232997480024,9.323342485863233 c 21.19974236688858,-0.0 42.128711191739185,4.355555555555556 35.77486503789303,-4.739534023004322
c -5.446153846153846,-18.97025262433842 0,-19.8277201718925 9.609750346722358,-19.8277201718925
c 12.80594444789471,0 18.252098294048558,5.219093560646356 12.80594444789471,6.462607588744888
c -5.446153846153846,11.324444444444445 19.06153846153846,6.968888888888889 32.57867093672068,18.104646606151935 c 9.45863327596346,-0.0 42.08814441549338,4.355555555555556 35.734298261647226,-2.6209000797538877
c -5.446153846153846,-18.368368816021057 0,-18.999813489100884 9.650317122968161,-18.999813489100884
c 7.751809959308098,0 13.197963805461944,2.376684556809252 7.751809959308098,3.686767794213143
c -5.446153846153846,11.324444444444445 19.06153846153846,6.968888888888889 37.63280542530729,17.93394577464163 c 21.347628328941173,0.0 38.45570040320336,-4.355555555555556 32.1018542493572,-0.6279913771792472
c -5.446153846153846,22.030819049697755 0,22.479609296417017 13.282761135258184,22.479609296417017
c 8.605913632230703,0 14.052067478384549,-7.098696080468003 8.605913632230703,-8.321464799468485
c -5.446153846153846,-11.324444444444445 19.06153846153846,-6.968888888888889 36.778701752384684,-13.530153119769286 c 23.63145390997171,0.0 40.41290424733771,-4.355555555555556 34.05905809349155,15.99114302203201
c -5.446153846153846,3.3648218407505643 0,8.33490682696532 11.325557291123836,8.33490682696532
c 12.277050829383874,0 17.723204675537723,-6.956750289226138 12.277050829383874,-7.447350380309263
c -5.446153846153846,-11.324444444444445 19.06153846153846,-6.968888888888889 33.10756455523151,-16.878699468688065 c 23.58622424248888,0.0 44.48793595337947,-4.355555555555556 38.134089799533314,-0.21962369368262322
c -5.446153846153846,14.398381072227806 0,22.31803080398225 7.250525585082073,22.31803080398225
c 13.901157604336099,0 19.347311450489947,-16.069988677787652 13.901157604336099,-18.79409556059318
c -5.446153846153846,-11.324444444444445 19.06153846153846,-6.968888888888889 31.483457780279288,-3.304311549706444 c 23.96517516675485,0.0 40.21564354849932,-4.355555555555556 33.861797394653166,-0.9229233487895995
c -5.446153846153846,9.739908484228122 0,24.09279081019151 11.52281798996222,24.09279081019151
c 14.406914274917042,0 19.85306812107089,-4.806244429960894 14.406914274917042,-11.281032627925038
c -5.446153846153846,-11.324444444444445 19.06153846153846,-6.968888888888889 30.977701109698344,-11.888834833476873 c 24.946815851346635,-0.0 38.972631042244444,4.355555555555556 32.61878488839829,1.6956926293262724
c -5.446153846153846,-19.052306206907055 0,-23.012557300617317 12.765830496217099,-23.012557300617317
c 6.599781971271838,0 12.045935817425685,8.726845719499751 6.599781971271838,13.914758263647848
c -5.446153846153846,11.324444444444445 19.06153846153846,6.968888888888889 38.78483341334355,7.4021064076431955 c 16.70605526542621,-0.0 45.05160340738894,4.355555555555556 38.69775725354278,-0.4831686347865799
c -5.446153846153846,-21.925263319679157 0,-26.55706017541644 6.686858131072604,-26.55706017541644
c 11.112369774388853,0 16.5585236205427,24.0280077654134 11.112369774388853,26.63048984081677
c -5.446153846153846,11.324444444444445 19.06153846153846,6.968888888888889 34.272245610226534,0.40973896938624677 c 21.92833198805701,0.0 42.25034532472263,-4.355555555555556 35.896499170876474,17.59442896085509
c -5.446153846153846,5.660536146004039 0,7.892222620983489 9.488116213738913,7.892222620983489
c 13.864661028940134,0 19.310814875093982,-8.579596037583626 13.864661028940134,-26.747607215818864
c -5.446153846153846,-11.324444444444445 19.06153846153846,-6.968888888888889 31.519954355675253,1.2609556339802843 c 17.709058085857787,-0.0 40.25920151862473,4.355555555555556 33.90535536477857,-1.604559046063992
c -5.446153846153846,-12.76767540297694 0,-26.44226725142373 11.479260019836815,-26.44226725142373
c 11.594713789125358,0 17.040867635279206,13.617379572671158 11.594713789125358,18.64843809032985
c -5.446153846153846,11.324444444444445 19.06153846153846,6.968888888888889 33.78990159549003,9.398388207157872 c 21.508309542045676,-0.0 40.085741301266765,4.355555555555556 33.73189514742061,-8.844749537643198
c -5.446153846153846,-8.915657173750231 0,-16.78365601599569 11.652720237194778,-16.78365601599569
c 8.489118202761958,0 13.935272048915804,7.953241091097716 8.489118202761958,12.141792867142218
c -5.446153846153846,11.324444444444445 19.06153846153846,6.968888888888889 36.89549718185343,13.486612686496667 L 1180 0 " fill="none" stroke="black" stroke-width="0.1" style="vector-effect:non-scaling-stroke;"/></g><g><path d="M 0 0  L 0 696.888889  c 7.1188436673216104,0.0 40.75105381089556,-4.355555555555556 34.39720765704941,16.017395002337697
c -5.446153846153846,8.565715024745032 0,8.630474849451726 10.98740772756598,8.630474849451726
c 9.199084904985412,0 14.645238751139258,-4.71584747959622 9.199084904985412,-19.656920176209002
c -5.446153846153846,-11.324444444444445 19.06153846153846,-6.968888888888889 36.185530479629975,-4.990949675580421 c 14.973831837733101,0.0 40.066433051508064,-4.355555555555556 33.71258689766191,0.4265396524670871
c -5.446153846153846,8.535036176680263 0,28.55944827206293 11.67202848695348,28.55944827206293
c 10.160108994850553,0 15.6062628410044,-5.067161594425382 10.160108994850553,-11.46536073250353
c -5.446153846153846,-11.324444444444445 19.06153846153846,-6.968888888888889 35.224506389764834,-17.520627192026488 c 6.543845012081118,0.0 43.07593380264008,-4.355555555555556 36.722087648793924,9.248476800459567
c -5.446153846153846,17.010626577406626 0,19.753214252448533 8.662527735821463,19.753214252448533
c 11.530989930408715,0 16.977143776562563,-11.852624932845897 11.530989930408715,-21.96514013955074
c -5.446153846153846,-11.324444444444445 19.06153846153846,-6.968888888888889 33.85362545420667,-7.03655091335736 c 7.120187601852445,0.0 43.22592219415497,-4.355555555555556 36.87207604030881,15.699208469579514
c -5.446153846153846,7.474450186362543 0,9.260632131021964 8.512539344306575,9.260632131021964
c 9.998544464367555,0 15.444698310521401,-8.12537249174606 9.998544464367555,-8.87006696905387
c -5.446153846153846,-11.324444444444445 19.06153846153846,-6.968888888888889 35.38607092024783,-16.089773631547608 c 14.486031546782145,0.0 38.4360904602217,-4.355555555555556 32.08224430637554,-1.5162604858696165
c -5.446153846153846,10.376082060786183 0,26.890331334790933 13.302371078239844,26.890331334790933
c 9.668702715745233,0 15.11485656189908,-12.927048158041769 9.668702715745233,-24.251734812999896
c -5.446153846153846,-11.324444444444445 19.06153846153846,-6.968888888888889 35.71591266887015,-1.1223360359214212 c 24.255671372388626,-0.0 38.01122302201713,4.355555555555556 31.657376868170974,-15.926391960911825
c -5.446153846153846,-8.649029693601054 0,-11.117432430954587 13.727238516444412,-11.117432430954587
c 9.274714893663457,0 14.720868739817304,7.906466796505147 9.274714893663457,18.211855977680198
c -5.446153846153846,11.324444444444445 19.06153846153846,6.968888888888889 36.10990049095193,8.831968414186214 c 5.45256365739772,-0.0 42.94904128138651,4.355555555555556 36.59519512754036,-9.692425229506703
c -5.446153846153846,-7.470194976527342 0,-13.665328187085482 8.78942025707503,-13.665328187085482
c 11.941449090838539,0 17.387602936992387,8.179969639822959 11.941449090838539,8.801435110432708
c -5.446153846153846,11.324444444444445 19.06153846153846,6.968888888888889 33.44316629377685,14.556318306159477 c 8.587327087576622,0.0 40.93268557815845,-4.355555555555556 34.57883942431229,17.917134353933008
c -5.446153846153846,5.142591516485005 0,6.589107761330105 10.805775960303095,6.589107761330105
c 9.570731681277216,0 15.016885527431063,-5.969033622679778 9.570731681277216,-7.688539318030692
c -5.446153846153846,-11.324444444444445 19.06153846153846,-6.968888888888889 35.81388370333817,-16.81770279723242 c 6.779856069472369,-0.0 43.63319483732969,4.355555555555556 37.27934868348353,-4.491793004398591
c -5.446153846153846,-10.679401811936032 0,-19.545847875662012 8.105266701131853,-19.545847875662012
c 10.861936643209717,0 16.308090489363565,8.632850763232584 10.861936643209717,20.995088387893183
c -5.446153846153846,11.324444444444445 19.06153846153846,6.968888888888889 34.52267874140567,3.0425524921674203 c 8.253865832803353,0.0 41.77571900335772,-4.355555555555556 35.421872849511566,3.7092510961782317
c -5.446153846153846,8.231097478117505 0,20.706814489621422 9.962742535103821,20.706814489621422
c 12.417901610524602,0 17.86405545667845,-10.615445517623796 12.417901610524602,-13.739913740193584
c -5.446153846153846,-11.324444444444445 19.06153846153846,-6.968888888888889 32.966713774090785,-10.67615184560607 c 7.876457746292078,-0.0 37.99054245906805,4.355555555555556 31.636696305221896,-15.271067397312933
c -5.446153846153846,-13.396239104430146 0,-14.304091492186526 13.74791907939349,-14.304091492186526
c 10.575093733729993,0 16.02124757988384,9.2491329546973 10.575093733729993,19.653369647736007
c -5.446153846153846,11.324444444444445 19.06153846153846,6.968888888888889 34.809521650885394,9.921789241763452 c 8.34484388638412,-0.0 40.071005529783925,4.355555555555556 33.71715937593777,0.43949186348894026
c -5.446153846153846,-22.170764180906335 0,-25.414962383856327 11.667456008677618,-25.414962383856327
c 9.270981206626054,0 14.7171350527799,21.086170862089947 9.270981206626054,22.01165306093936
c -5.446153846153846,11.324444444444445 19.06153846153846,6.968888888888889 36.11363417798933,2.9638174594280287 c 16.32490670839275,-0.0 44.70010747191137,4.355555555555556 38.34626131806522,-9.984508375327486
c -5.446153846153846,-4.825955699236216 0,-19.101009004694532 7.03835406655017,-19.101009004694532
c 10.70878717372213,0 16.154941019875977,7.80897420602288 10.70878717372213,18.946540255764553
c -5.446153846153846,11.324444444444445 19.06153846153846,6.968888888888889 34.67582821089326,10.138977124257465 L 1180 0 " fill="none" stroke="black" stroke-width="0.1" style="vector-effect:non-scaling-stroke;"/></g></g></svg>