<svg baseProfile="full" height="580" preserveAspectRatio="none" shape-rendering="geometricPrecision" version="1.1" viewBox="0,0,1030,580" width="1030" xmlns="http://www.w3.org/2000/svg" xmlns:ev="http://www.w3.org/2001/xml-events" xmlns:xlink="http://www.w3.org/1999/xlink"><title>Jigsaw puzzle piece clips</title><desc>Created with the piecemaker. Piece count: 112</desc><defs/><g><g><rect fill="white" height="580" width="1030" x="0" y="0"/></g></g><g><g><path d="M 0 0  L 73.571429 0  c 0.0,17.879187049574334 -3.678571428571429,34.55189785876052 -0.6464644330141601,29.476897858760516
c 18.680715584340373,-4.35 19.855113031726646,0 19.855113031726646,6.773102141239484
c 0,7.42293043913412 -4.808376011460712,11.77293043913412 -5.207281944829182,7.42293043913412
c -9.564285714285715,-4.35 -5.885714285714285,15.225 -14.001366653883304,28.82706956086588 c -0.0,9.803690062980909 3.678571428571429,32.53785709115773 -5.331998605700886,27.462857091157733
c -8.18307789228377,-4.35 -15.35550880816319,0 -15.35550880816319,8.787142908842267
c 0,9.847727597650632 16.911033279476968,14.197727597650632 20.82043113925565,9.847727597650632
c 9.564285714285715,-4.35 5.885714285714285,15.225 -0.13292372539157427,26.402272402349368 c -0.0,17.056740181509994 3.678571428571429,32.568433161989724 -3.0014886686816644,27.49343316198972
c -14.60570171648447,-4.35 -18.391398404285734,0 -18.391398404285734,8.75656683801028
c 0,9.901412882139503 18.96086964455822,14.251412882139503 21.13587519443017,9.901412882139503
c 9.564285714285715,-4.35 5.885714285714285,15.225 0.2570118785372273,26.348587117860497 c -0.0,11.755874152092167 3.678571428571429,30.087050404323396 -6.825190641878272,25.012050404323396
c -4.787748651587694,-4.35 -16.48206831584814,0 -16.48206831584814,11.237949595676604
c 0,10.595706864703189 21.91666159394438,14.945706864703189 22.05938360329657,10.595706864703189
c 9.564285714285715,-4.35 5.885714285714285,15.225 1.2478753544298407,25.65429313529681 c -0.0,15.288903457936863 3.678571428571429,29.75669851642169 -14.006648990519022,24.68169851642169
c -2.906844305940604,-4.35 -6.506268311683378,0 -6.506268311683378,11.56830148357831
c 0,9.46680168849155 1.5330435973704872,13.81680168849155 4.611026862125897,9.46680168849155
c 9.564285714285715,-4.35 5.885714285714285,15.225 15.901890440076503,26.78319831150845 c 0.0,15.034377462988383 -3.678571428571429,29.79067146404527 8.482469003574332,24.715671464045272
c 11.588770146696792,-4.35 13.79094647017484,0 13.79094647017484,11.534328535954728
c 0,8.105340424126148 -4.330616039777179,12.455340424126147 -10.201322179264608,8.105340424126148
c -9.564285714285715,-4.35 -5.885714285714285,15.225 -12.072093294484564,28.144659575873852 c 0.0,7.195040942222681 -3.678571428571429,33.18208142992975 15.081425866839616,28.107081429929753
c 4.1932509758790735,-4.35 4.699376275003459,0 4.699376275003459,8.142918570070247
c 0,11.016614706408276 -7.4642612519104645,15.366614706408276 -7.649434332439977,11.016614706408276
c -9.564285714285715,-4.35 -5.885714285714285,15.225 -12.131367809403098,25.233385293591724 c 0.0,13.776766135960417 -3.678571428571429,30.64984696141137 8.238304857548812,25.57484696141137
c 8.526396830952685,-4.35 10.204850832769633,0 10.204850832769633,10.675153038588629
c 0,9.698368165268903 -3.8355282847907293,14.048368165268903 -11.148377369364024,9.698368165268903
c -9.564285714285715,-4.35 -5.885714285714285,15.225 -7.294778320954421,26.551631834731097 L 0 580 " fill="none" stroke="black" stroke-width="0.1" style="vector-effect:non-scaling-stroke;"/></g><g><path d="M 0 0  L 147.142857 0  c -0.0,9.574792219254608 3.678571428571429,30.45117562749186 -9.751120181643817,25.37617562749186
c -7.68264606869201,-4.35 -11.815077212343393,0 -11.815077212343393,10.873824372508139
c 0,8.96055680524173 4.0219953205570365,13.31055680524173 18.938302033445147,8.96055680524173
c 9.564285714285715,-4.35 5.885714285714285,15.225 2.6278953605420625,27.28944319475827 c -0.0,20.815771769596026 3.678571428571429,33.8041737189324 -8.12623718089214,28.729173718932397
c -8.305779691518403,-4.35 -10.642493263328088,0 -10.642493263328088,7.5208262810676025
c 0,10.445558947100814 5.072873834138991,14.795558947100814 11.807062690894831,10.445558947100814
c 9.564285714285715,-4.35 5.885714285714285,15.225 6.961667753325397,25.804441052899186 c 0.0,14.713028014240278 -3.678571428571429,34.936422996955415 12.715561291119055,29.861422996955415
c 6.546783396803542,-4.35 6.490919697090078,0 6.490919697090078,6.388577003044585
c 0,11.383928968515704 -1.8593610079413583,15.733928968515704 -3.7902681275052608,11.383928968515704
c -9.564285714285715,-4.35 -5.885714285714285,15.225 -15.416212860703872,24.866071031484296 c 0.0,20.993312555600696 -3.678571428571429,32.383628216931164 9.80448006741792,27.308628216931165
c 4.2616787046993965,-4.35 13.053534166770167,0 13.053534166770167,8.941371783068835
c 0,8.012678068230912 -5.2118557228951365,12.362678068230911 -9.082282207087781,8.012678068230912
c -9.564285714285715,-4.35 -5.885714285714285,15.225 -13.775732027100306,28.237321931769088 c 0.0,6.282262181093199 -3.678571428571429,36.00435760003701 15.936999380971052,30.929357600037008
c 4.435235388237737,-4.35 9.052201789169782,0 9.052201789169782,5.320642399962992
c 0,11.172204497341127 -7.058518925742799,15.522204497341127 -11.398669599892552,11.172204497341127
c -9.564285714285715,-4.35 -5.885714285714285,15.225 -13.590531570248283,25.077795502658873 c -0.0,10.038146645116026 3.678571428571429,32.029429470732325 -16.041990910494995,26.954429470732325
c -1.580090408976629,-4.35 -2.2499618280250715,0 -2.2499618280250715,9.295570529267675
c 0,7.86902073117065 4.06063407752201,12.21902073117065 14.322878495143678,7.86902073117065
c 9.564285714285715,-4.35 5.885714285714285,15.225 3.9690742433763884,28.38097926882935 c 0.0,9.177975702537752 -3.678571428571429,30.757189637904435 16.166601280451317,25.682189637904436
c 1.225281147710386,-4.35 2.68462625352797,0 2.68462625352797,10.567810362095564
c 0,8.786152027998625 -7.016093629583464,13.136152027998625 -11.729993949047806,8.786152027998625
c -9.564285714285715,-4.35 -5.885714285714285,15.225 -7.121233584931481,27.463847972001375 c 0.0,17.791817351077523 -3.678571428571429,31.087533690711023 8.522659445675878,26.012533690711024
c 7.673968285546625,-4.35 10.112668600149544,0 10.112668600149544,10.237466309288976
c 0,10.202851721274605 -14.355086135198235,14.552851721274605 -15.155954315329595,10.202851721274605
c -9.564285714285715,-4.35 -5.885714285714285,15.225 -3.4793737304958263,26.047148278725395 L 0 580 " fill="none" stroke="black" stroke-width="0.1" style="vector-effect:non-scaling-stroke;"/></g><g><path d="M 0 0  L 220.714286 0  c 0.0,6.971135167485153 -3.678571428571429,35.18970357282471 -0.6009488914466663,30.11470357282471
c 8.33250043058191,-4.35 23.116316874380214,0 23.116316874380214,6.135296427175291
c 0,10.927394340879829 -8.02306175817655,15.277394340879829 -11.968993125503308,10.927394340879829
c -9.564285714285715,-4.35 -5.885714285714285,15.225 -10.546374857430239,25.32260565912017 c 0.0,10.652454107928191 -3.678571428571429,34.25151155583446 9.738716589597626,29.176511555834463
c 4.253724632633924,-4.35 8.750647358038737,0 8.750647358038737,7.0734884441655375
c 0,9.623789112879898 -17.921404139302698,13.973789112879897 -18.58165923241733,9.623789112879898
c -9.564285714285715,-4.35 -5.885714285714285,15.225 0.09229528478096682,26.626210887120102 c 0.0,7.6359525211019905 -3.678571428571429,30.187263636247465 12.191335785415871,25.112263636247466
c 11.987091659858667,-4.35 12.701837834018002,0 12.701837834018002,11.137736363752534
c 0,7.26690561642571 -10.240803799257987,11.61690561642571 -25.264162463756033,7.26690561642571
c -9.564285714285715,-4.35 -5.885714285714285,15.225 0.3709888443221594,28.98309438357429 c 0.0,17.097471841564005 -3.678571428571429,33.91330865132709 5.159599146988701,28.838308651327093
c 3.9296471003356483,-4.35 15.003947182955223,0 15.003947182955223,7.411691348672907
c 0,9.614911542156278 -14.70293920408933,13.964911542156278 -16.423739600895665,9.614911542156278
c -9.564285714285715,-4.35 -5.885714285714285,15.225 -3.739806729048258,26.63508845784372 c 0.0,18.489735033136704 -3.678571428571429,31.200153501105852 -1.0283987160735992,26.125153501105853
c 13.862015768232252,-4.35 20.26550216044549,0 20.26550216044549,10.124846498894147
c 0,9.322432737955936 -2.4741724679225006,13.672432737955935 -6.388552192088065,9.322432737955936
c -9.564285714285715,-4.35 -5.885714285714285,15.225 -12.848551252283825,26.927567262044064 c -0.0,12.060543622636576 3.678571428571429,30.801013261743485 -5.0102664599402855,25.726013261743486
c -10.639750721709202,-4.35 -17.1463925553745,0 -17.1463925553745,10.523986738256514
c 0,8.755129740379182 10.303996579279406,13.105129740379182 12.445984942767018,8.755129740379182
c 9.564285714285715,-4.35 5.885714285714285,15.225 9.71067407254777,27.494870259620818 c -0.0,5.626339404707967 3.678571428571429,33.745578162773555 0.04771777582618468,28.670578162773555
c -4.7206011517102695,-4.35 -17.923114052061134,0 -17.923114052061134,7.579421837226445
c 0,7.1144642113831225 2.6939474570847493,11.464464211383122 12.49913413288959,7.1144642113831225
c 9.564285714285715,-4.35 5.885714285714285,15.225 5.3762621433453575,29.135535788616878 c -0.0,3.7732711770624054 3.678571428571429,33.27534585200705 -11.95330404209039,28.20034585200705
c -1.9802492738101405,-4.35 -8.232461736462035,0 -8.232461736462035,8.04965414799295
c 0,8.506288293243813 12.046278659353439,12.856288293243813 19.864223872569184,8.506288293243813
c 9.564285714285715,-4.35 5.885714285714285,15.225 0.32154190598324206,27.743711706756187 L 0 580 " fill="none" stroke="black" stroke-width="0.1" style="vector-effect:non-scaling-stroke;"/></g><g><path d="M 0 0  L 294.285714 0  c -0.0,12.803130133593417 3.678571428571429,32.53732702032206 -11.535338760009603,27.46232702032206
c -3.5027621155890136,-4.35 -11.697241130793584,0 -11.697241130793584,8.78767297967794
c 0,8.514441315656029 5.333709994042202,12.864441315656029 17.743701702979962,8.514441315656029
c 9.564285714285715,-4.35 5.885714285714285,15.225 5.488878187823225,27.73555868434397 c -0.0,7.588623100716186 3.678571428571429,34.97245574290821 -11.23675047725147,29.89745574290821
c -9.78826236911878,-4.35 -9.818206349370694,0 -9.818206349370694,6.35254425709179
c 0,5.628135977778065 5.200716301270154,9.978135977778065 10.119785104216067,5.628135977778065
c 9.564285714285715,-4.35 5.885714285714285,15.225 10.935171722406096,30.621864022221935 c -0.0,18.61170853741007 3.678571428571429,32.533313140616364 -0.853591102164365,27.45831314061636
c -18.86701893025592,-4.35 -20.757278108775715,0 -20.757278108775715,8.791686859383638
c 0,9.220115595696718 10.28400603481032,13.570115595696718 13.333186039985796,9.220115595696718
c 9.564285714285715,-4.35 5.885714285714285,15.225 8.277683170954285,27.02988440430328 c 0.0,10.19468602790517 -3.678571428571429,32.12417231823505 15.57126527218996,27.049172318235044
c 5.124741902362546,-4.35 5.848035848478881,0 5.848035848478881,9.200827681764956
c 0,9.848917044890719 -5.980030937437232,14.198917044890718 -18.773140844440377,9.848917044890719
c -9.564285714285715,-4.35 -5.885714285714285,15.225 -2.646160276228464,26.40108295510928 c -0.0,15.226941572105762 3.678571428571429,29.883315261651997 -4.552402251031626,24.808315261651998
c -6.597926221841429,-4.35 -16.368503135975647,0 -16.368503135975647,11.441684738348002
c 0,7.1893805148963565 7.18654699128417,11.539380514896356 12.55512870211084,7.1893805148963565
c 9.564285714285715,-4.35 5.885714285714285,15.225 8.365776684896433,29.060619485103643 c -0.0,9.24592776391063 3.678571428571429,32.66493594414574 -15.959281629597015,27.589935944145736
c -6.064135615170469,-4.35 -6.102501089938816,0 -6.102501089938816,8.660064055854264
c 0,6.43799580711709 5.094337939605431,10.78799580711709 10.767031641754784,6.43799580711709
c 9.564285714285715,-4.35 5.885714285714285,15.225 11.294751077781047,29.81200419288291 c -0.0,14.010383229613742 3.678571428571429,32.50759315970599 -5.267733379403843,27.432593159705988
c -3.9175644704545634,-4.35 -15.078012705073093,0 -15.078012705073093,8.817406840294012
c 0,11.533848555285147 5.669054515429116,15.883848555285146 8.275911852263208,11.533848555285147
c 9.564285714285715,-4.35 5.885714285714285,15.225 12.069834232213728,24.716151444714853 c 0.0,17.123521523073055 -3.678571428571429,30.05171662770164 10.019158070194694,24.97671662770164
c 10.598016447609119,-4.35 14.77912400734015,0 14.77912400734015,11.273283372298359
c 0,5.328714673135714 -14.64968768724588,9.678714673135714 -14.854598880688508,5.328714673135714
c -9.564285714285715,-4.35 -5.885714285714285,15.225 -9.943683196846335,30.921285326864286 L 0 580 " fill="none" stroke="black" stroke-width="0.1" style="vector-effect:non-scaling-stroke;"/></g><g><path d="M 0 0  L 367.857143 0  c -0.0,8.303500172103476 3.678571428571429,32.44378736678433 -8.685335059603002,27.368787366784325
c -6.0709503608006665,-4.35 -12.534149340328884,0 -12.534149340328884,8.881212633215675
c 0,5.995273064846955 8.082353868688934,10.345273064846955 21.573277030934406,5.995273064846955
c 9.564285714285715,-4.35 5.885714285714285,15.225 -0.3537926310025199,30.254726935153045 c -0.0,10.220288281657343 3.678571428571429,34.80286743207055 0.036400961510007226,29.72786743207055
c -16.324452136307276,-4.35 -22.85080917829898,0 -22.85080917829898,6.52213256792945
c 0,9.31844218489561 13.959945397691625,13.668442184895609 23.895064671740222,9.31844218489561
c 9.564285714285715,-4.35 5.885714285714285,15.225 -1.0806564549512494,26.93155781510439 c 0.0,13.948048644339801 -3.678571428571429,33.05968411519774 6.923133064956961,27.98468411519774
c 4.557280892144129,-4.35 15.829009817196987,0 15.829009817196987,8.26531588480226
c 0,10.802938796627096 -12.316599808588522,15.152938796627096 -22.127766754209738,10.802938796627096
c -9.564285714285715,-4.35 -5.885714285714285,15.225 -0.6243761279442097,25.447061203372904 c -0.0,9.988918475963876 3.678571428571429,30.428802469123376 -6.9161137645336925,25.353802469123377
c -12.18669918355525,-4.35 -16.92019263010573,0 -16.92019263010573,10.896197530876623
c 0,6.359273439636759 9.5242150179717,10.709273439636759 16.16882753461542,6.359273439636759
c 9.564285714285715,-4.35 5.885714285714285,15.225 7.667478860024001,29.89072656036324 c 0.0,6.066271502256486 -3.678571428571429,29.81239190164358 11.333961583222006,24.73739190164358
c 3.0136475544911114,-4.35 13.113319620272922,0 13.113319620272922,11.51260809835642
c 0,8.88072785114904 -16.402908545415848,13.23072785114904 -18.82715852040833,8.88072785114904
c -9.564285714285715,-4.35 -5.885714285714285,15.225 -5.620122683086599,27.36927214885096 c -0.0,18.1381378086248 3.678571428571429,30.891834569881077 -10.97446957116459,25.816834569881077
c -6.6222404612871975,-4.35 -7.1786879631953795,0 -7.1786879631953795,10.433165430118923
c 0,10.188651056000616 5.016282521135252,14.538651056000615 11.08607597243428,10.188651056000616
c 9.564285714285715,-4.35 5.885714285714285,15.225 7.06708156192569,26.061348943999384 c 0.0,4.693013057895298 -3.678571428571429,30.005844710804503 5.440853795498642,24.930844710804504
c 6.158698400994693,-4.35 15.915769927032096,0 15.915769927032096,11.319155289195496
c 0,11.195165972259069 -7.269753845938102,15.545165972259069 -9.903100078491768,11.195165972259069
c -9.564285714285715,-4.35 -5.885714285714285,15.225 -11.45352364403897,25.05483402774093 c -0.0,18.60817907348061 3.678571428571429,34.225978521906505 1.0481426949536023,29.150978521906502
c -13.331793348791496,-4.35 -20.61007781893365,0 -20.61007781893365,7.099021478093498
c 0,10.802996840875238 7.887428774797595,15.152996840875238 13.316903633296672,10.802996840875238
c 9.564285714285715,-4.35 5.885714285714285,15.225 6.2450314906833775,25.447003159124762 L 0 580 " fill="none" stroke="black" stroke-width="0.1" style="vector-effect:non-scaling-stroke;"/></g><g><path d="M 0 0  L 441.428571 0  c -0.0,19.45980442171441 3.678571428571429,33.94097537306519 -7.702568108956553,28.865975373065194
c -2.5381134484338164,-4.35 -11.466041391805009,0 -11.466041391805009,7.384024626934806
c 0,7.988273561312752 4.296418361939173,12.338273561312752 10.379508431977918,7.988273561312752
c 9.564285714285715,-4.35 5.885714285714285,15.225 8.789101068783644,28.261726438687248 c -0.0,13.73329936959498 3.678571428571429,30.464477119223048 -9.823882376473438,25.38947711922305
c -6.146397742034265,-4.35 -8.229109792974409,0 -8.229109792974409,10.860522880776951
c 0,5.405438530679724 1.8377019308869411,9.755438530679724 4.536315510219763,5.405438530679724
c 9.564285714285715,-4.35 5.885714285714285,15.225 13.516676659228084,30.844561469320276 c 0.0,11.065359207173868 -3.678571428571429,35.99623796162649 12.109334078942464,30.92123796162649
c 7.4013286059548875,-4.35 9.11723390665038,0 9.11723390665038,5.328762038373512
c 0,5.310385634326487 -10.622003148598056,9.660385634326486 -17.311323080192796,5.310385634326487
c -9.564285714285715,-4.35 -5.885714285714285,15.225 -3.9152449054000478,30.939614365673513 c 0.0,7.317934642507644 -3.678571428571429,33.294934810606904 13.670797273650873,28.219934810606905
c 1.6018384617605834,-4.35 6.582926406387276,0 6.582926406387276,8.030065189393095
c 0,6.317011723267612 -12.394207004972476,10.667011723267612 -21.66348156944578,6.317011723267612
c -9.564285714285715,-4.35 -5.885714285714285,15.225 1.4097578894076292,29.932988276732388 c 0.0,9.78273252377927 -3.678571428571429,34.830708578178324 11.647807672101214,29.755708578178325
c 2.0544733858396365,-4.35 7.1616780030348774,0 7.1616780030348774,6.494291421821675
c 0,7.28902704966147 -11.085852272681585,11.63902704966147 -16.869406166069403,7.28902704966147
c -9.564285714285715,-4.35 -5.885714285714285,15.225 -1.9400795090666882,28.96097295033853 c -0.0,19.172946232776386 3.678571428571429,30.852790899372597 0.006887173148867488,25.777790899372597
c -22.628494836124897,-4.35 -24.257532657494124,0 -24.257532657494124,10.472209100627403
c 0,7.976538358798933 12.005832552410453,12.326538358798933 20.375091580484288,7.976538358798933
c 9.564285714285715,-4.35 5.885714285714285,15.225 3.8755539038609683,28.273461641201067 c 0.0,19.436183395945694 -3.678571428571429,32.57603393961062 11.201049733709482,27.50103393961062
c 4.211975378984814,-4.35 13.222598977805958,0 13.222598977805958,8.748966060389382
c 0,7.305928318236674 -20.003697888704377,11.655928318236674 -25.039482982381102,7.305928318236674
c -9.564285714285715,-4.35 -5.885714285714285,15.225 0.6158342708656619,28.944071681763326 c -0.0,4.4513143625885085 3.678571428571429,32.513515169301904 -10.36675821773594,27.438515169301905
c -5.7791641294541645,-4.35 -8.11258081319467,0 -8.11258081319467,8.811484830698095
c 0,10.513470597024089 2.006413666273644,14.863470597024088 8.693404806569047,10.513470597024089
c 9.564285714285715,-4.35 5.885714285714285,15.225 9.785934224361563,25.73652940297591 L 0 580 " fill="none" stroke="black" stroke-width="0.1" style="vector-effect:non-scaling-stroke;"/></g><g><path d="M 0 0  L 515.000000 0  c -0.0,16.249124824750155 3.678571428571429,32.92034694560958 -4.541920568128905,27.845346945609577
c -3.936664106314361,-4.35 -14.440884255258677,0 -14.440884255258677,8.404653054390423
c 0,8.584599570638517 1.7750925875208547,12.934599570638516 3.9439294595261014,8.584599570638517
c 9.564285714285715,-4.35 5.885714285714285,15.225 15.03887536386148,27.665400429361483 c 0.0,5.383811884180912 -3.678571428571429,31.21814262036139 5.3960946706849136,26.14314262036139
c 5.099710633838751,-4.35 18.956845041659808,0 18.956845041659808,10.106857379638608
c 0,8.71353984180945 -17.75828406957106,13.06353984180945 -24.56207020874765,8.71353984180945
c -9.564285714285715,-4.35 -5.885714285714285,15.225 0.2091304964029277,27.53646015819055 c -0.0,9.74462370062198 3.678571428571429,35.049513971349576 -5.019182532951495,29.974513971349573
c -9.094028044188478,-4.35 -14.984652716448094,0 -14.984652716448094,6.275486028650427
c 0,10.121282888162519 8.095190696749949,14.471282888162518 11.294815405164284,10.121282888162519
c 9.564285714285715,-4.35 5.885714285714285,15.225 8.709019844235305,26.12871711183748 c -0.0,7.9535271326808825 3.678571428571429,35.50243811201237 -3.124309382431503,30.427438112012368
c -5.292768714577176,-4.35 -14.85712465588634,0 -14.85712465588634,5.822561887987632
c 0,5.899263320556294 7.879742924211205,10.249263320556294 19.43753844030774,5.899263320556294
c 9.564285714285715,-4.35 5.885714285714285,15.225 -1.4561044019898972,30.350736679443706 c -0.0,19.42703819594448 3.678571428571429,35.78217572557624 -5.220324846857003,30.707175725576235
c -8.434528057773944,-4.35 -13.304111729555899,0 -13.304111729555899,5.542824274423765
c 0,10.561027714678922 12.896158116671838,14.911027714678921 16.722459555569877,10.561027714678922
c 9.564285714285715,-4.35 5.885714285714285,15.225 1.801977020843026,25.68897228532108 c 0.0,6.429156634240407 -3.678571428571429,33.09046912899268 8.19986967256292,28.01546912899268
c 6.048939083408567,-4.35 16.304282573195785,0 16.304282573195785,8.234530871007319
c 0,7.731709969218059 -6.370007348875285,12.081709969218059 -13.450392823293253,7.731709969218059
c -9.564285714285715,-4.35 -5.885714285714285,15.225 -11.05375942246545,28.51829003078194 c -0.0,13.534486075089504 3.678571428571429,30.50523422595565 -2.6533820567812656,25.43023422595565
c -16.889218138636704,-4.35 -19.120020352752277,0 -19.120020352752277,10.819765774044349
c 0,7.174156666158744 5.949703656903003,11.524156666158744 12.532488627326428,7.174156666158744
c 9.564285714285715,-4.35 5.885714285714285,15.225 9.240913782207114,29.075843333841256 c -0.0,11.292566151421555 3.678571428571429,32.6373765676514 -1.6246425078346134,27.562376567651402
c -13.890353132689915,-4.35 -18.08798067682258,0 -18.08798067682258,8.687623432348598
c 0,8.701256627707501 6.070446991242664,13.0512566277075 14.902833332399563,8.701256627707501
c 9.564285714285715,-4.35 5.885714285714285,15.225 4.80978985225763,27.5487433722925 L 0 580 " fill="none" stroke="black" stroke-width="0.1" style="vector-effect:non-scaling-stroke;"/></g><g><path d="M 0 0  L 588.571429 0  c 0.0,10.352990042682276 -3.678571428571429,35.173007333712206 13.870642407620776,30.098007333712207
c 5.722867228774005,-4.35 10.023911310343424,0 10.023911310343424,6.151992666287793
c 0,8.882119438810726 -15.525323745638898,13.232119438810725 -18.70496689310814,8.882119438810726
c -9.564285714285715,-4.35 -5.885714285714285,15.225 -5.189586824856061,27.367880561189274 c 0.0,18.052811240165404 -3.678571428571429,32.452432182946 0.995199185794456,27.377432182946
c 12.860455650443873,-4.35 18.67131365386826,0 18.67131365386826,8.872567817054001
c 0,11.315561428392343 -6.809877487020237,15.665561428392342 -12.592884619658925,11.315561428392343
c -9.564285714285715,-4.35 -5.885714285714285,15.225 -7.0736282200037905,24.934438571607657 c 0.0,6.00959121125037 -3.678571428571429,32.43409624309358 5.271783985157992,27.359096243093575
c 6.767333864398739,-4.35 13.800715067644749,0 13.800715067644749,8.890903756906425
c 0,6.211974379608627 -4.738903178863507,10.561974379608627 -10.489438972974387,6.211974379608627
c -9.564285714285715,-4.35 -5.885714285714285,15.225 -8.583060079828353,30.038025620391373 c -0.0,5.754775622054411 3.678571428571429,31.10236084510267 -1.1413327350942775,26.02736084510267
c -13.673155865987912,-4.35 -21.965038748978643,0 -21.965038748978643,10.22263915489733
c 0,6.951199508985603 6.3069253543142265,11.301199508985603 14.146248827688742,6.951199508985603
c 9.564285714285715,-4.35 5.885714285714285,15.225 8.960122656384177,29.298800491014397 c 0.0,20.121652058510353 -3.678571428571429,36.09496289554143 0.1332356048105613,31.019962895541425
c 6.533339555965654,-4.35 23.420188516359346,0 23.420188516359346,5.2300371044585745
c 0,7.387971874171363 -23.566985766406177,11.737971874171363 -24.980201638943512,7.387971874171363
c -9.564285714285715,-4.35 -5.885714285714285,15.225 1.4267775177736048,28.862028125828637 c -0.0,10.496401088762596 3.678571428571429,35.814865300287124 -2.484144688661187,30.73986530028712
c -6.33940911318728,-4.35 -20.026951028000457,0 -20.026951028000457,5.510134699712879
c 0,5.522323699710249 5.677598534892701,9.872323699710249 9.58249996113835,5.522323699710249
c 9.564285714285715,-4.35 5.885714285714285,15.225 12.928595755523293,30.72767630028975 c 0.0,16.65147868439368 -3.678571428571429,31.586594638247533 7.107800766227846,26.511594638247534
c 7.099509582748288,-4.35 10.645267967254078,0 10.645267967254078,9.738405361752466
c 0,6.375186417916879 -12.345136388823715,10.725186417916879 -13.59422759998663,6.375186417916879
c -9.564285714285715,-4.35 -5.885714285714285,15.225 -4.1588411334952955,29.87481358208312 c -0.0,16.393944130031322 3.678571428571429,34.84405838844203 -4.649071147957566,29.769058388442026
c -14.265141719776205,-4.35 -16.606446645966024,0 -16.606446645966024,6.480941611557974
c 0,8.939337804621488 15.175009051201519,13.289337804621487 15.489454164148459,8.939337804621488
c 9.564285714285715,-4.35 5.885714285714285,15.225 5.766063629775132,27.310662195378512 L 0 580 " fill="none" stroke="black" stroke-width="0.1" style="vector-effect:non-scaling-stroke;"/></g><g><path d="M 0 0  L 662.142857 0  c 0.0,7.622261166049358 -3.678571428571429,31.5524184490851 4.635322485423434,26.4774184490851
c 6.886834916120877,-4.35 18.25064486539754,0 18.25064486539754,9.7725815509149
c 0,6.633470721551099 -16.13457150292995,10.983470721551098 -21.086107338348945,6.633470721551099
c -9.564285714285715,-4.35 -5.885714285714285,15.225 -1.7998600124720276,29.6165292784489 c -0.0,11.1609767092506 3.678571428571429,33.10786893190456 -6.154482171427198,28.03286893190456
c -6.563563729600659,-4.35 -15.332124159502655,0 -15.332124159502655,8.21713106809544
c 0,5.629488951362802 6.74283482940332,9.979488951362802 20.601893910662575,5.629488951362802
c 9.564285714285715,-4.35 5.885714285714285,15.225 0.8847124202672774,30.620511048637198 c 0.0,11.015206116823668 -3.678571428571429,32.80298170396932 9.364538392715508,27.72798170396932
c 9.876077418179857,-4.35 10.681636592910982,0 10.681636592910982,8.52201829603068
c 0,5.560461518394369 -4.085274626178415,9.910461518394369 -12.277061816634248,5.560461518394369
c -9.564285714285715,-4.35 -5.885714285714285,15.225 -7.7691131689922415,30.68953848160563 c -0.0,18.682990322541993 3.678571428571429,34.76128332348284 -12.47104151596006,29.686283323482844
c -8.997721749372019,-4.35 -10.749795648743433,0 -10.749795648743433,6.563716676517156
c 0,8.689823357829852 16.289927997852082,13.039823357829851 23.027833540797086,8.689823357829852
c 9.564285714285715,-4.35 5.885714285714285,15.225 0.19300362390640657,27.56017664217015 c 0.0,15.43648980162447 -3.678571428571429,32.76190213914027 -1.1122687639609032,27.68690213914027
c 16.78529842591743,-4.35 19.77199138856908,0 19.77199138856908,8.563097860859731
c 0,8.694308823584485 -11.149928796402595,13.044308823584485 -14.791180499593244,8.694308823584485
c -9.564285714285715,-4.35 -5.885714285714285,15.225 -3.868542125014935,27.555691176415515 c 0.0,3.7454220108730945 -3.678571428571429,32.253786106801805 -1.2229545974175315,27.1787861068018
c 12.32920842632617,-4.35 20.551043389772165,0 20.551043389772165,9.071213893198198
c 0,7.908790289451268 -12.147705056590986,12.258790289451268 -15.382959022796836,7.908790289451268
c -9.564285714285715,-4.35 -5.885714285714285,15.225 -3.9451297695577985,28.341209710548732 c -0.0,19.398934574392218 3.678571428571429,31.687640401324565 -10.85613239915387,26.612640401324565
c -9.306711489018932,-4.35 -10.31062456389809,0 -10.31062456389809,9.637359598675435
c 0,10.357799157752162 3.2879343617085257,14.707799157752161 9.249971494884937,10.357799157752162
c 9.564285714285715,-4.35 5.885714285714285,15.225 11.916785468167022,25.89220084224784 c -0.0,3.6858509995735793 3.678571428571429,34.112011738482344 -14.373016019275079,29.03701173848234
c -0.9954938254241844,-4.35 -3.549661090265163,0 -3.549661090265163,7.212988261517658
c 0,9.412949062315768 3.2771633705901078,13.762949062315768 10.77979982529941,9.412949062315768
c 9.564285714285715,-4.35 5.885714285714285,15.225 7.142877284240832,26.837050937684232 L 0 580 " fill="none" stroke="black" stroke-width="0.1" style="vector-effect:non-scaling-stroke;"/></g><g><path d="M 0 0  L 735.714286 0  c 0.0,10.708985757349264 -3.678571428571429,32.92710679964699 9.068249937977896,27.852106799646993
c 4.272099332212777,-4.35 10.835750640716807,0 10.835750640716807,8.397893200353007
c 0,8.129499139484366 -4.437093593145405,12.479499139484366 -14.141034456412626,8.129499139484366
c -9.564285714285715,-4.35 -5.885714285714285,15.225 -5.7629661222820765,28.120500860515634 c 0.0,12.76414221342542 -3.678571428571429,35.50378551733124 12.717703532744094,30.428785517331235
c 5.14932477506167,-4.35 8.394855554336539,0 8.394855554336539,5.821214482668765
c 0,6.291293969424935 -2.681734907481583,10.641293969424934 -5.657455180904284,6.291293969424935
c -9.564285714285715,-4.35 -5.885714285714285,15.225 -15.45510390617635,29.958706030575065 c -0.0,4.1987497788760955 3.678571428571429,35.35820987838757 -7.892097971064935,30.283209878387567
c -8.974961984068482,-4.35 -13.74215198497815,0 -13.74215198497815,5.9667901216124335
c 0,10.650799520448807 7.214406564894191,15.000799520448806 12.22028960467002,10.650799520448807
c 9.564285714285715,-4.35 5.885714285714285,15.225 9.413960351373065,25.599200479551193 c 0.0,20.181967720268986 -3.678571428571429,32.94289167782017 11.698470554511804,27.86789167782017
c 8.797680306930815,-4.35 8.754562467650196,0 8.754562467650196,8.382108322179828
c 0,5.839181633005325 -5.799956118309779,10.189181633005324 -6.655085741489758,5.839181633005325
c -9.564285714285715,-4.35 -5.885714285714285,15.225 -13.797947280672242,30.410818366994675 c -0.0,16.596272434425675 3.678571428571429,35.10176502453059 -5.11472763019248,30.02676502453059
c -5.330116264254108,-4.35 -15.51918928090807,0 -15.51918928090807,6.22323497546941
c 0,7.729399757992823 15.615515510785297,12.079399757992823 19.756616358429373,7.729399757992823
c 9.564285714285715,-4.35 5.885714285714285,15.225 0.8773005526711763,28.520600242007177 c 0.0,4.183232708149404 -3.678571428571429,34.19330828777185 10.10982204087892,29.11830828777185
c 10.936614436665046,-4.35 12.141123299842002,0 12.141123299842002,7.13169171222815
c 0,7.009054796790643 -5.855162968425243,11.359054796790643 -10.088198709018672,7.009054796790643
c -9.564285714285715,-4.35 -5.885714285714285,15.225 -12.16274663170225,29.240945203209357 c -0.0,16.09463481239137 3.678571428571429,33.158422529246735 -5.00989032354669,28.083422529246736
c -11.97410450786495,-4.35 -15.277601384065791,0 -15.277601384065791,8.166577470753264
c 0,9.387749718791547 5.364797708419044,13.737749718791546 19.984870704943308,9.387749718791547
c 9.564285714285715,-4.35 5.885714285714285,15.225 0.3026210026691736,26.862250281208453 c 0.0,16.850357509341748 -3.678571428571429,33.117807115918545 0.11874983080479189,28.042807115918542
c 15.910193220532493,-4.35 19.06631035819193,0 19.06631035819193,8.207192884081458
c 0,6.938223577860491 -2.908976937242409,11.28822357786049 -9.265895283015706,6.938223577860491
c -9.564285714285715,-4.35 -5.885714285714285,15.225 -9.919164905981017,29.31177642213951 L 0 580 " fill="none" stroke="black" stroke-width="0.1" style="vector-effect:non-scaling-stroke;"/></g><g><path d="M 0 0  L 809.285714 0  c 0.0,9.14013217843843 -3.678571428571429,34.04314232885983 11.752278987188799,28.96814232885983
c 8.927597162358325,-4.35 9.792547921915432,0 9.792547921915432,7.28185767114017
c 0,8.792424560344635 -5.44137625263578,13.142424560344635 -12.608662825567524,8.792424560344635
c -9.564285714285715,-4.35 -5.885714285714285,15.225 -8.936164083536706,27.457575439655365 c 0.0,14.038412024303367 -3.678571428571429,30.788766453211576 1.4725093065637773,25.713766453211576
c 14.052813759069462,-4.35 18.61376625862405,0 18.61376625862405,10.536233546788424
c 0,11.524424435386287 -7.683398597578778,15.874424435386286 -13.25640462051853,11.524424435386287
c -9.564285714285715,-4.35 -5.885714285714285,15.225 -6.829870944669295,24.725575564613713 c -0.0,10.794195598464075 3.678571428571429,32.007425681542095 -13.926184498645927,26.932425681542096
c -2.7412139655568493,-4.35 -9.227616602290407,0 -9.227616602290407,9.317574318457904
c 0,7.477188133000382 2.5002170728876605,11.827188133000382 8.894927354951461,7.477188133000382
c 9.564285714285715,-4.35 5.885714285714285,15.225 14.258873745984873,28.772811866999618 c -0.0,14.166545570155918 3.678571428571429,34.00372277347199 -0.7050373759505174,28.92872277347199
c -5.193872200188918,-4.35 -17.71536587602741,0 -17.71536587602741,7.321277226528011
c 0,5.180454772410997 3.3634295231168916,9.530454772410996 12.347983207782825,5.180454772410997
c 9.564285714285715,-4.35 5.885714285714285,15.225 6.072420044195102,31.069545227589003 c -0.0,9.46374765878823 3.678571428571429,32.15767749467733 0.5838807205055971,27.082677494677327
c -16.132868836767326,-4.35 -23.343555847159195,0 -23.343555847159195,9.167322505322673
c 0,7.938986442845447 5.472202750490823,12.288986442845447 10.498766372225804,7.938986442845447
c 9.564285714285715,-4.35 5.885714285714285,15.225 12.260908754427794,28.311013557154553 c 0.0,7.854795591078803 -3.678571428571429,34.27501152218062 11.790103628460306,29.200011522180617
c 3.8034260775175257,-4.35 8.629782413575812,0 8.629782413575812,7.049988477819383
c 0,7.895864087540936 -7.512791274088412,12.245864087540935 -10.628947677220124,7.895864087540936
c -9.564285714285715,-4.35 -5.885714285714285,15.225 -9.790938364815995,28.354135912459064 c 0.0,16.126102711124425 -3.678571428571429,33.35630183303753 12.57253069237761,28.281301833037528
c 3.311008583924677,-4.35 11.093028021313527,0 11.093028021313527,7.968698166962472
c 0,11.556431665976213 -15.614440293390683,15.906431665976212 -17.13284622205451,11.556431665976213
c -9.564285714285715,-4.35 -5.885714285714285,15.225 -6.532712491636627,24.693568334023787 c -0.0,17.316659323218232 3.678571428571429,32.57556800185588 -3.1813123596611277,27.50056800185588
c -5.543250218236435,-4.35 -18.418947871382695,0 -18.418947871382695,8.749431998144122
c 0,6.9659176374469 13.412722726781515,11.3159176374469 16.963920845776663,6.9659176374469
c 9.564285714285715,-4.35 5.885714285714285,15.225 4.63633938526716,29.2840823625531 L 0 580 " fill="none" stroke="black" stroke-width="0.1" style="vector-effect:non-scaling-stroke;"/></g><g><path d="M 0 0  L 882.857143 0  c -0.0,5.973882168142404 3.678571428571429,32.1671838374609 -6.459974750637752,27.092183837460897
c -16.17773300967212,-4.35 -17.55819094524118,0 -17.55819094524118,9.157816162539103
c 0,5.077124920586748 21.860962256560345,9.427124920586747 23.713202011779362,5.077124920586748
c 9.564285714285715,-4.35 5.885714285714285,15.225 0.30496368409956887,31.172875079413252 c -0.0,16.812877346004548 3.678571428571429,33.60391092771971 -5.863778605077721,28.52891092771971
c -15.542822736911761,-4.35 -16.691049111403117,0 -16.691049111403117,7.721089072280289
c 0,10.854029780976646 3.8906048973753014,15.204029780976645 8.191321887251249,10.854029780976646
c 9.564285714285715,-4.35 5.885714285714285,15.225 14.363505829229588,25.395970219023354 c -0.0,16.563364932618832 3.678571428571429,33.282347875157065 -6.262504137652311,28.207347875157062
c -11.114316464906004,-4.35 -16.89392605122987,0 -16.89392605122987,8.042652124842938
c 0,10.898990055745458 11.398453525928907,15.248990055745457 19.249535760789783,10.898990055745458
c 9.564285714285715,-4.35 5.885714285714285,15.225 3.9068944280923965,25.351009944254542 c -0.0,18.726142400374528 3.678571428571429,30.50969834560396 -5.900885898016282,25.434698345603962
c -3.3547964721169015,-4.35 -12.618885550447283,0 -12.618885550447283,10.815301654396038
c 0,10.774183979684793 10.6748787877959,15.124183979684792 16.386567495720286,10.774183979684793
c 9.564285714285715,-4.35 5.885714285714285,15.225 2.13320395274328,25.475816020315207 c -0.0,5.423809608086039 3.678571428571429,32.652311618207044 -1.1369444580850558,27.57731161820704
c -5.9321342103356045,-4.35 -22.09459770703743,0 -22.09459770703743,8.672688381792959
c 0,10.61566561921181 23.423286772001916,14.96566561921181 23.421501183789314,10.61566561921181
c 9.564285714285715,-4.35 5.885714285714285,15.225 -0.18995901866682985,25.63433438078819 c -0.0,11.072491720773597 3.678571428571429,35.464104246546874 -14.886893588409086,30.389104246546875
c -3.6920282585510438,-4.35 -5.129239312253242,0 -5.129239312253242,5.860895753453125
c 0,8.479043442147322 3.7849347870796635,12.829043442147322 5.7463911039046955,8.479043442147322
c 9.564285714285715,-4.35 5.885714285714285,15.225 14.269741796757632,27.770956557852678 c -0.0,10.169035261429903 3.678571428571429,35.14304735196477 -10.998516603358937,30.068047351964765
c -8.312920760096723,-4.35 -9.22447281415927,0 -9.22447281415927,6.181952648035235
c 0,6.957239085574571 18.17545489441293,11.30723908557457 18.627947865269544,6.957239085574571
c 9.564285714285715,-4.35 5.885714285714285,15.225 1.595041552248663,29.29276091442543 c 0.0,16.0851679374218 -3.678571428571429,34.64543117247804 -0.13976566959194944,29.570431172478038
c 20.431493687000014,-4.35 24.822421988615236,0 24.822421988615236,6.679568827521962
c 0,6.482897635053412 -14.601711123925432,10.832897635053412 -16.473690802174225,6.482897635053412
c -9.564285714285715,-4.35 -5.885714285714285,15.225 -8.208965516849062,29.767102364946588 L 0 580 " fill="none" stroke="black" stroke-width="0.1" style="vector-effect:non-scaling-stroke;"/></g><g><path d="M 0 0  L 956.428571 0  c -0.0,5.93859386429473 3.678571428571429,32.21362468275862 -11.9744316293822,27.138624682758618
c -9.906041531436918,-4.35 -11.987121627964568,0 -11.987121627964568,9.111375317241382
c 0,6.3829954244149505 7.902805503001917,10.73299542441495 9.88541729778533,6.3829954244149505
c 9.564285714285715,-4.35 5.885714285714285,15.225 14.076135959561439,29.86700457558505 c -0.0,19.47865266767086 3.678571428571429,34.73700265708698 -13.071255364312686,29.66200265708698
c -2.2343466874644076,-4.35 -7.338136864057388,0 -7.338136864057388,6.58799734291302
c 0,7.75844048681666 9.807369935574378,12.10844048681666 13.891528595647536,7.75844048681666
c 9.564285714285715,-4.35 5.885714285714285,15.225 6.517863632722538,28.49155951318334 c -0.0,17.368443022904657 3.678571428571429,33.41790021832823 -10.909506247251068,28.342900218328225
c -9.119091398287427,-4.35 -11.117743520324685,0 -11.117743520324685,7.907099781671775
c 0,11.449973854136722 6.586325238973335,15.799973854136722 9.509365461391969,11.449973854136722
c 9.564285714285715,-4.35 5.885714285714285,15.225 12.517884306183785,24.800026145863278 c -0.0,7.719372604441002 3.678571428571429,32.22589648036354 -4.971375729395018,27.15089648036354
c -14.830772975279599,-4.35 -16.470870877549824,0 -16.470870877549824,9.099103519636461
c 0,10.651453207445783 7.8490516885367985,15.001453207445783 20.974770636524518,10.651453207445783
c 9.564285714285715,-4.35 5.885714285714285,15.225 0.46747597042032396,25.598546792554217 c -0.0,7.26022732515725 3.678571428571429,30.207448714360044 -5.1227724352748565,25.132448714360045
c -9.678928961920409,-4.35 -14.217914514463438,0 -14.217914514463438,11.117551285639955
c 0,10.58392404857264 4.620347615161691,14.93392404857264 5.528930804194436,10.58392404857264
c 9.564285714285715,-4.35 5.885714285714285,15.225 13.811756145543859,25.66607595142736 c 0.0,5.186698535020776 -3.678571428571429,29.758878563687013 -0.4472551587256802,24.683878563687013
c 5.996101269052849,-4.35 18.797801114563583,0 18.797801114563583,11.566121436312987
c 0,5.098253589638865 -9.220950098064941,9.448253589638865 -14.277564642270717,5.098253589638865
c -9.564285714285715,-4.35 -5.885714285714285,15.225 -4.072981313567185,31.151746410361135 c 0.0,17.072956653768713 -3.678571428571429,35.522724858082576 0.8595054065368547,30.447724858082577
c 10.076694322706333,-4.35 23.44143402066695,0 23.44143402066695,5.802275141917423
c 0,6.402719205849252 -10.12602474041493,10.752719205849251 -10.188489886208552,6.402719205849252
c -9.564285714285715,-4.35 -5.885714285714285,15.225 -14.112449540995252,29.84728079415075 c 0.0,18.328883950963522 -3.678571428571429,35.27389102083151 7.739820143421379,30.198891020831514
c 5.093720285715136,-4.35 13.006550432747858,0 13.006550432747858,6.051108979168486
c 0,7.606218689378906 -12.374406838223136,11.956218689378906 -14.008709276361982,7.606218689378906
c -9.564285714285715,-4.35 -5.885714285714285,15.225 -6.737661299807256,28.643781310621094 L 0 580 " fill="none" stroke="black" stroke-width="0.1" style="vector-effect:non-scaling-stroke;"/></g></g><g><g><path d="M 0 0  L 0 72.500000  c 17.95382187095853,0.0 34.34775461531664,-3.625 29.197754615316637,7.299723188650282
c -4.414285714285714,15.252630023326399 0,16.851043383727774 7.587959670397648,16.851043383727774
c 11.287317779614064,0 15.701603493899778,-15.594533354243515 11.287317779614064,-25.101586204336897
c -4.414285714285714,-9.425 15.45,-5.8 25.49839650610022,0.95081963195884 c 11.885141356615849,-0.0 36.70757988330764,3.625 31.55757988330764,-1.546799373913624
c -4.414285714285714,-10.584149432754389 0,-16.08242206053017 5.228134402406646,-16.08242206053017
c 11.320641568564092,0 15.734927282849807,13.780420346315877 11.320641568564092,18.6468751580502
c -4.414285714285714,9.425 15.45,5.8 25.465072717150193,-1.0176537236064043 c 8.763067436253417,-0.0 33.341439510959766,3.625 28.191439510959768,-9.866485833556945
c -4.414285714285714,-7.347263997853974 0,-14.141262409444062 8.594274774754517,-14.141262409444062
c 7.341664204435325,0 11.75594991872104,8.877506038183757 7.341664204435325,18.038010424691482
c -4.414285714285714,9.425 15.45,5.8 29.44405008127896,5.969737818309525 c 9.753498032442865,-0.0 32.78095112681236,3.625 27.63095112681236,-8.633104213382913
c -4.414285714285714,-5.187536155842813 0,-11.414140086271201 9.154763158901925,-11.414140086271201
c 10.607921171443145,0 15.02220688572886,4.0652663903037585 10.607921171443145,14.213804839864249
c -4.414285714285714,9.425 15.45,5.8 26.17779311427114,5.833439459789865 c 14.272575280329928,-0.0 34.3683843011918,3.625 29.2183843011918,-8.666841273946101
c -4.414285714285714,-6.242275596255563 0,-9.950040215561508 7.567329984522484,-9.950040215561508
c 11.49321315990953,0 15.907498874195245,5.506070215826284 11.49321315990953,12.666865789441985
c -4.414285714285714,9.425 15.45,5.8 25.292501125804755,5.950015700065624 c 16.601028117243416,0.0 32.469600282643135,-3.625 27.319600282643133,9.542558261071115
c -4.414285714285714,7.010331315953065 0,12.979526592289265 9.466114003071151,12.979526592289265
c 8.630822531845538,0 13.045108246131253,-14.021895055923778 8.630822531845538,-16.757635861494645
c -4.414285714285714,-9.425 15.45,-5.8 28.154891753868746,-5.764448991865734 c 16.259328032299447,-0.0 32.5624818162251,3.625 27.4124818162251,-5.70714831504939
c -4.414285714285714,-7.292986325836911 0,-15.61572302048096 9.373232469489185,-15.61572302048096
c 10.36030262752039,0 14.774588341806105,12.554148555230066 10.36030262752039,22.674867761944366
c -4.414285714285714,9.425 15.45,5.8 26.425411658193894,-1.351996426414015 c 12.902459525224389,-0.0 34.45478237559119,3.625 29.304782375591195,-10.277868320856363
c -4.414285714285714,-9.770078130849187 0,-10.359192352253235 7.48093191012309,-10.359192352253235
c 9.101519103160008,0 13.515804817445723,3.3052547136881603 9.101519103160008,5.789447041735597
c -4.414285714285714,9.425 15.45,5.8 27.684195182554276,14.847613631374001 c 5.370891887133783,0.0 35.23174790362345,-3.625 30.081747903623448,9.51446902176575
c -4.414285714285714,5.95991094808913 0,13.8593642955996 6.703966382090837,13.8593642955996
c 10.559742282579776,0 14.974027996865491,-10.317997368711575 10.559742282579776,-24.58484929679171
c -4.414285714285714,-9.425 15.45,-5.8 26.22597200313451,1.2110159794263602 c 9.129075704582705,-0.0 35.21762567910421,3.625 30.06762567910421,-12.204651989899306
c -4.414285714285714,-3.1122510592208346 0,-6.164804149181327 6.718088606610074,-6.164804149181327
c 8.919747916513892,0 13.334033630799606,2.6784803866421516 8.919747916513892,8.297332653397763
c -4.414285714285714,9.425 15.45,5.8 27.865966369200393,10.07212348568287 c 7.48143566940874,0.0 33.20134074239128,-3.625 28.05134074239128,11.111396136342579
c -4.414285714285714,4.584228934122081 0,10.116522529901653 8.734373543323006,10.116522529901653
c 11.609152287768595,0 16.02343800205431,-14.829196619674402 11.609152287768595,-16.62916126666785
c -4.414285714285714,-9.425 15.45,-5.8 25.17656199794569,-4.598757399576382 c 14.484662640983707,0.0 35.16153858711743,-3.625 30.01153858711743,2.482967096370011
c -4.414285714285714,13.652041247311447 0,22.132873066835987 6.774175698596856,22.132873066835987
c 5.184056416530353,0 9.598342130816068,-9.570573030909062 5.184056416530353,-22.237944907410064
c -4.414285714285714,-9.425 15.45,-5.8 31.60165786918393,-2.3778952557959343 c 5.261498792171877,-0.0 35.14605375276746,3.625 29.996053752767455,-13.043332779988663
c -4.414285714285714,-3.28438243528515 0,-9.77240462239737 6.789660532946829,-9.77240462239737
c 8.686088774915554,0 13.100374489201268,10.666533516179316 8.686088774915554,13.873316395333603
c -4.414285714285714,9.425 15.45,5.8 28.09962551079873,8.942421007052431 c 5.555669245976873,0.0 36.75285500038901,-3.625 31.60285500038901,1.6071352233772667
c -4.414285714285714,17.642807649723654 0,17.886899528271336 5.182859285325275,17.886899528271336
c 5.4865309845592805,0 9.900816698844995,-12.107574680146103 5.4865309845592805,-14.479292021942982
c -4.414285714285714,-9.425 15.45,-5.8 31.299183301155004,-5.01474272970562 L 1030 0 " fill="none" stroke="black" stroke-width="0.1" style="vector-effect:non-scaling-stroke;"/></g><g><path d="M 0 0  L 0 145.000000  c 7.05847819248555,0.0 31.32575105168761,-3.625 26.175751051687612,13.636909668334654
c -4.414285714285714,3.0460398920545577 0,5.137712630400271 10.609963234026672,5.137712630400271
c 7.29078057847196,0 11.705066292757675,-4.639117641886977 7.29078057847196,-14.720953283879707
c -4.414285714285714,-9.425 15.45,-5.8 29.494933707242325,-4.053669014855219 c 7.773611395929207,0.0 36.25138554699857,-3.625 31.10138554699857,14.525155145637127
c -4.414285714285714,1.4991096183385444 0,4.4369141282698745 5.684328738715713,4.4369141282698745
c 9.082398870511014,0 13.496684584796729,-2.910463706811331 9.082398870511014,-8.000259474995705
c -4.414285714285714,-9.425 15.45,-5.8 27.70331541520327,-10.961809798911297 c 10.919915498989031,-0.0 35.69544165592734,3.625 30.545441655927338,-7.383927429871753
c -4.414285714285714,-8.05729182948103 0,-11.513787989441923 6.240272629786947,-11.513787989441923
c 10.765291537456953,0 15.179577251742668,4.898208256620049 10.765291537456953,5.010849317574497
c -4.414285714285714,9.425 15.45,5.8 26.02042274825733,13.88686610173918 c 20.472442902276967,0.0 35.622702201729496,-3.625 30.472702201729497,12.254819452612622
c -4.414285714285714,2.740173481871625 0,8.119340077783065 6.313012083984788,8.119340077783065
c 7.971100590891986,0 12.3853863051777,-8.155041689290364 7.971100590891986,-19.44750127202742
c -4.414285714285714,-9.425 15.45,-5.8 28.8146136948223,-0.926658258368267 c 13.069047798401618,-0.0 34.192057794160235,3.625 29.042057794160232,-14.457164833531127
c -4.414285714285714,-2.321880282260807 0,-4.848857042971428 7.743656491554052,-4.848857042971428
c 9.1227447486405,0 13.537030462926214,13.575302674479541 9.1227447486405,14.664994064329438
c -4.414285714285714,9.425 15.45,5.8 27.662969537073785,4.641027812173117 c 14.488422365620353,0.0 36.38923026709725,-3.625 31.239230267097245,8.728401885183322
c -4.414285714285714,8.145810461028198 0,15.599451168205478 5.54648401861704,15.599451168205478
c 10.00876770091083,0 14.423053415196545,-7.661124106252443 10.00876770091083,-19.05511412319664
c -4.414285714285714,-9.425 15.45,-5.8 26.776946584803454,-5.272738930192162 c 17.944159159826803,-0.0 32.345697735863624,3.625 27.195697735863625,0.7504624306283797
c -4.414285714285714,-16.632769730887187 0,-25.075506140251207 9.59001654985066,-25.075506140251207
c 7.405639383044964,0 11.819925097330678,18.640427390218683 7.405639383044964,21.76385173384317
c -4.414285714285714,9.425 15.45,5.8 29.38007490266932,2.5611919757796606 c 19.410813698742363,0.0 35.7822141004263,-3.625 30.632214100426303,6.578903007557977
c -4.414285714285714,13.75916346196081 0,18.065416256756922 6.153500185287982,18.065416256756922
c 9.14994097291087,0 13.564226687196584,-6.224865057826631 9.14994097291087,-18.395718193461626
c -4.414285714285714,-9.425 15.45,-5.8 27.635773312803416,-6.248601070853272 c 3.7584962081594715,-0.0 32.043576987460185,3.625 26.893576987460182,0.3231069234800529
c -4.414285714285714,-11.057713536158792 0,-23.769249342555565 9.892137298254102,-23.769249342555565
c 6.435161664460402,0 10.849447378746117,13.057506510809942 6.435161664460402,18.470478112444965
c -4.414285714285714,9.425 15.45,5.8 30.350552621253883,4.975664306630545 c 11.496430727738362,0.0 30.945953459832182,-3.625 25.795953459832184,10.073484695237562
c -4.414285714285714,7.030905336402009 0,10.589667002593101 10.989760825882101,10.589667002593101
c 5.940270927961919,0 10.354556642247633,-9.086901150014052 5.940270927961919,-18.015401579114148
c -4.414285714285714,-9.425 15.45,-5.8 30.845443357752366,-2.647750118716516 c 14.801865211276178,-0.0 34.649244657578635,3.625 29.499244657578636,-13.354752808607664
c -4.414285714285714,-6.156008874103026 0,-7.665638580511736 7.286469628135649,-7.665638580511736
c 8.343502741396911,0 12.757788455682626,2.7899550405256037 8.343502741396911,5.517841780781646
c -4.414285714285714,9.425 15.45,5.8 28.442211544317374,15.502549608337754 c 11.668395487293617,0.0 30.321214975426507,-3.625 25.171214975426505,9.95594064040894
c -4.414285714285714,4.773876924890034 0,7.9243433813900275 11.61449931028778,7.9243433813900275
c 7.589581822257863,0 12.003867536543577,-9.319459403324304 7.589581822257863,-13.922032370857687
c -4.414285714285714,-9.425 15.45,-5.8 29.196132463456422,-3.95825165094128 c 19.644825851373835,0.0 35.43579815483559,-3.625 30.28579815483559,-0.32485329799149953
c -4.414285714285714,20.633628790303565 0,22.73060089491562 6.499916130878695,22.73060089491562
c 5.980174197657426,0 10.394459911943141,-7.48658358400087 5.980174197657426,-8.094310336801152
c -4.414285714285714,-9.425 15.45,-5.8 30.80554008805686,-14.31143726012297 c 19.60966119521852,-0.0 32.518443566390786,3.625 27.368443566390788,-5.238905705061741
c -4.414285714285714,-4.734850023002128 0,-14.279921360418433 9.417270719323497,-14.279921360418433
c 11.255105538808039,0 15.669391253093753,7.018293718480745 11.255105538808039,15.31492035371146
c -4.414285714285714,9.425 15.45,5.8 25.530608746906246,4.203906711768713 L 1030 0 " fill="none" stroke="black" stroke-width="0.1" style="vector-effect:non-scaling-stroke;"/></g><g><path d="M 0 0  L 0 217.500000  c 4.009465014979866,0.0 34.14827551045651,-3.625 28.998275510456505,-1.0944169933155754
c -4.414285714285714,10.634811056766127 0,20.433797622718814 7.78743877525778,20.433797622718814
c 7.292719600758858,0 11.707005315044572,-11.063274717342194 7.292719600758858,-20.733006973484557
c -4.414285714285714,-9.425 15.45,-5.8 29.492994684955427,1.3936263440813192 c 7.488324088189957,-0.0 33.14204507881373,3.625 27.992045078813728,-5.738883699724605
c -4.414285714285714,-4.325569857696099 0,-15.057965171624298 8.793669206900557,-15.057965171624298
c 10.631073778173239,0 15.045359492458953,9.948291954781658 10.631073778173239,19.897871141739106
c -4.414285714285714,9.425 15.45,5.8 26.154640507541046,0.8989777296097969 c 9.578151900272552,-0.0 34.121463099941685,3.625 28.971463099941683,-3.206607230264581
c -4.414285714285714,-15.704771205709765 0,-17.5442428722877 7.814251185772601,-17.5442428722877
c 11.667366369231239,0 16.081652083516953,14.243256877839988 11.667366369231239,18.359290382318395
c -4.414285714285714,9.425 15.45,5.8 25.118347916483046,2.391559720233886 c 16.995535266529952,0.0 32.6323740913469,-3.625 27.482374091346898,-0.38960364426662447
c -4.414285714285714,11.915358342091674 0,24.087667675836776 9.303340194367387,24.087667675836776
c 6.9691872197843665,0 11.383472934070081,-10.220331635459905 6.9691872197843665,-17.03402491258239
c -4.414285714285714,-9.425 15.45,-5.8 29.816527065929918,-6.664039118987763 c 6.802751772016676,-0.0 30.62210041287313,3.625 25.47210041287313,-5.515889988292536
c -4.414285714285714,-3.6419195317157853 0,-15.434169137437767 11.313613872841156,-15.434169137437767
c 5.62249953556821,0 10.036785249853924,2.5418516520750876 5.62249953556821,10.352574762265666
c -4.414285714285714,9.425 15.45,5.8 31.163214750146075,10.597484363464636 c 14.704080113864025,0.0 32.59660191674516,-3.625 27.446601916745156,11.370518229637748
c -4.414285714285714,5.65010165368855 0,9.15036263349358 9.339112368969129,9.15036263349358
c 7.911315421152757,0 12.325601135438472,-5.309341501514098 7.911315421152757,-17.626744836789207
c -4.414285714285714,-9.425 15.45,-5.8 28.874398864561527,-2.894136026342121 c 5.49494127557449,0.0 33.9362342062167,-3.625 28.786234206216704,3.7347780207267034
c -4.414285714285714,4.43898814970178 0,16.823768135649406 7.99948007949758,16.823768135649406
c 10.850028535193537,0 15.264314249479252,-6.926613031124101 10.850028535193537,-7.848489041372259
c -4.414285714285714,-9.425 15.45,-5.8 25.935685750520747,-12.71005711500385 c 6.293848099964872,0.0 33.53537444877548,-3.625 28.38537444877548,5.591136858263914
c -4.414285714285714,18.101132617439266 0,18.129246789506738 8.400339836938805,18.129246789506738
c 9.607436480757094,0 14.021722195042809,-12.135981262504055 9.607436480757094,-19.425704878256976
c -4.414285714285714,-9.425 15.45,-5.8 27.17827780495719,-4.294678769513677 c 16.788084273173013,-0.0 30.443621544954063,3.625 25.293621544954064,-14.758627246862735
c -4.414285714285714,-0.875363252687166 0,-4.126237410647109 11.49209274076022,-4.126237410647109
c 11.29629065332876,0 15.710576367614475,10.459574899912147 11.29629065332876,19.906296627894527
c -4.414285714285714,9.425 15.45,5.8 25.489423632385524,-1.0214319703846826 c 20.474399511725277,0.0 31.327823726766653,-3.625 26.17782372676665,5.611080741185803
c -4.414285714285714,5.886598788312535 0,11.850405951836908 10.607890558947634,11.850405951836908
c 11.092511324944404,0 15.506797039230118,-9.618201151546634 11.092511324944404,-13.023247632088456
c -4.414285714285714,-9.425 15.45,-5.8 25.69320296076988,-4.438239060934254 c 6.6194849747811855,0.0 34.829466747009974,-3.625 29.679466747009972,-0.019300888306471083
c -4.414285714285714,7.935420571955885 0,21.314167873131645 7.106247538704313,21.314167873131645
c 9.706366138317385,0 14.1206518526031,-11.065659979154795 9.706366138317385,-16.213672837055153
c -4.414285714285714,-9.425 15.45,-5.8 27.0793481473969,-5.08119414777002 c 4.801784315134642,0.0 31.166830812460482,-3.625 26.01683081246048,9.27632072761815
c -4.414285714285714,3.1734742661013438 0,8.495879643511012 10.768883473253805,8.495879643511012
c 6.097955069052183,0 10.512240783337898,-3.849366869460081 6.097955069052183,-5.760941809288093
c -4.414285714285714,-9.425 15.45,-5.8 30.6877592166621,-12.01125856184107 c 6.554831093960918,0.0 30.413890706790006,-3.625 25.263890706790008,1.0361667172910096
c -4.414285714285714,5.263995260420638 0,19.502294188170136 11.521823578924277,19.502294188170136
c 11.4109981941955,0 15.825283908481214,-6.023201691837134 11.4109981941955,-7.487147493611639
c -4.414285714285714,-9.425 15.45,-5.8 25.374716091518785,-13.051313411849508 c 11.62178994745874,-0.0 31.095252917485936,3.625 25.945252917485938,-1.677696831455564
c -4.414285714285714,-19.50067132982625 0,-19.611370205395165 10.840461368228347,-19.611370205395165
c 9.048885766299193,0 13.463171480584908,10.991606081063173 9.048885766299193,14.596175759668753
c -4.414285714285714,9.425 15.45,5.8 27.73682851941509,6.692891277181975 L 1030 0 " fill="none" stroke="black" stroke-width="0.1" style="vector-effect:non-scaling-stroke;"/></g><g><path d="M 0 0  L 0 290.000000  c 21.31446119640337,-0.0 30.516719804608364,3.625 25.366719804608362,0.0807969399398262
c -4.414285714285714,-4.649643755374856 0,-19.465709843494356 11.418994481105923,-19.465709843494356
c 11.588158574210105,0 16.00244428849582,3.931032120958602 11.588158574210105,6.956978416154886
c -4.414285714285714,9.425 15.45,5.8 25.19755571150418,12.427934487399643 c 5.250538973569321,0.0 36.587931203969106,-3.625 31.437931203969104,12.921830640588158
c -4.414285714285714,4.276671251783998 0,4.917781371451831 5.347783081745181,4.917781371451831
c 5.36634065773611,0 9.780626372021825,-3.3903958119404995 5.36634065773611,-10.734296692604657
c -4.414285714285714,-9.425 15.45,-5.8 31.419373627978175,-7.1053153194353325 c 7.070976106171639,0.0 34.76210091652805,-3.625 29.61210091652805,6.5251934278997865
c -4.414285714285714,8.238280270284072 0,11.346903873831135 7.173613369186235,11.346903873831135
c 10.116301889983717,0 14.530587604269432,-8.602258699729443 10.116301889983717,-10.260283958500487
c -4.414285714285714,-9.425 15.45,-5.8 26.669412395730568,-7.611813343230434 c 11.389184159283957,0.0 33.96487787857799,-3.625 28.814877878577988,3.124228411580587
c -4.414285714285714,16.08487736661763 0,16.710902514685266 7.9708364071362965,16.710902514685266
c 8.341022881967817,0 12.755308596253531,-4.366407903423517 8.341022881967817,-12.039887409888745
c -4.414285714285714,-9.425 15.45,-5.8 28.444691403746468,-7.795243516377109 c 17.305922382712662,-0.0 33.01137432876546,3.625 27.86137432876546,-8.059807111342696
c -4.414285714285714,-6.9125545989752695 0,-15.267281243146222 8.924339956948824,-15.267281243146222
c 8.234195746426025,0 12.64848146071174,10.231511402127879 8.234195746426025,24.603056667887422
c -4.414285714285714,9.425 15.45,5.8 28.55151853928826,-1.2759683133985043 c 14.975016773917366,0.0 35.50046342513687,-3.625 30.350463425136873,0.987334778525867
c -4.414285714285714,15.71409149116775 0,23.495547964704812 6.435250860577412,23.495547964704812
c 8.954943877162869,0 13.369229591448583,-10.423892723288104 8.954943877162869,-12.631863014611485
c -4.414285714285714,-9.425 15.45,-5.8 27.830770408551416,-11.851019728619194 c 6.513073403342592,0.0 31.474558503660198,-3.625 26.324558503660196,15.413884986917276
c -4.414285714285714,5.305260666605764 0,6.922334720616886 10.461155782054089,6.922334720616886
c 9.923424192553526,0 14.33770990683924,-6.856363068068101 9.923424192553526,-9.24878795047082
c -4.414285714285714,-9.425 15.45,-5.8 26.86229009316076,-13.087431757063342 c 14.481324100103505,-0.0 35.756477447715135,3.625 30.606477447715136,-6.343174976080802
c -4.414285714285714,-12.738005316595869 0,-14.533699769301453 6.179236837999149,-14.533699769301453
c 9.60695985455709,0 14.021245568842804,11.825153140307345 9.60695985455709,13.654977403562013
c -4.414285714285714,9.425 15.45,5.8 27.178754431157195,7.2218973418202435 c 5.4234736451303185,0.0 35.87931577777418,-3.625 30.72931577777418,0.354163537537176
c -4.414285714285714,4.272474393457444 0,17.266076665171813 6.056398507940106,17.266076665171813
c 7.21872016514471,0 11.633005879430424,-6.857342788798281 7.21872016514471,-14.760426585622104
c -4.414285714285714,-9.425 15.45,-5.8 29.566994120569575,-2.8598136170868838 c 5.356933147367455,0.0 30.900623829427964,-3.625 25.750623829427965,8.729487776878422
c -4.414285714285714,9.843986267490399 0,13.85918838989479 11.03509045628632,13.85918838989479
c 10.309935036465887,0 14.724220750751602,-12.49785536776883 10.309935036465887,-12.87027767876337
c -4.414285714285714,-9.425 15.45,-5.8 26.475779249248397,-9.718398488009841 c 4.958140357333706,0.0 30.983269788449263,-3.625 25.83326978844926,4.994869461414173
c -4.414285714285714,10.26277902471853 0,12.75269265999875 10.952444497265024,12.75269265999875
c 6.971712585277572,0 11.385998299563287,-3.5342069945323336 6.971712585277572,-5.3304556465928705
c -4.414285714285714,-9.425 15.45,-5.8 29.814001700436712,-12.417106474820052 c 12.522868033428818,-0.0 34.21138095047502,3.625 29.06138095047502,-13.82406947150253
c -4.414285714285714,-6.5022695820584495 0,-9.776157371299309 7.724333335239265,-9.776157371299309
c 6.5822896690666965,0 10.996575383352411,10.621795417770567 6.5822896690666965,19.514447474294453
c -4.414285714285714,9.425 15.45,5.8 30.203424616647588,4.085779368507385 c 10.921130031297368,-0.0 31.255832420916327,3.625 26.10583242091633,-6.783225116836883
c -4.414285714285714,-13.230568766479651 0,-16.26788225577021 10.679881864797956,-16.26788225577021
c 7.676230873651811,0 12.090516587937525,13.658750237613054 7.676230873651811,14.455191324894322
c -4.414285714285714,9.425 15.45,5.8 29.109483412062474,8.59591604771277 c 10.718587931171415,0.0 35.16991025739328,-3.625 30.019910257393285,9.264746513095094
c -4.414285714285714,7.3053149676636195 0,14.299581598532257 6.765804028321,14.299581598532257
c 10.141724231391969,0 14.556009945677683,-7.131582960849363 10.141724231391969,-14.153596580741903
c -4.414285714285714,-9.425 15.45,-5.8 26.643990054322316,-9.410731530885448 L 1030 0 " fill="none" stroke="black" stroke-width="0.1" style="vector-effect:non-scaling-stroke;"/></g><g><path d="M 0 0  L 0 362.500000  c 10.93254401847272,0.0 33.66854352654462,-3.625 28.51854352654462,12.54183575491934
c -4.414285714285714,6.963937056311691 0,11.801447474561698 8.267170759169666,11.801447474561698
c 11.653507804478387,0 16.067793518764102,-9.806370273604392 11.653507804478387,-13.81909821967067
c -4.414285714285714,-9.425 15.45,-5.8 25.132206481235897,-10.524185009810369 c 13.291330346933487,-0.0 35.21617607204298,3.625 30.06617607204298,-1.072269870409536
c -4.414285714285714,-5.934833287796578 0,-16.691746441884003 6.719538213671306,-16.691746441884003
c 5.342684490683396,0 9.756970204969111,2.7454994244660824 5.342684490683396,10.09180844263712
c -4.414285714285714,9.425 15.45,5.8 31.44302979503089,7.672207869656418 c 10.15702453237227,-0.0 36.20220231165746,3.625 31.052202311657457,0.9613483601493531
c -4.414285714285714,-19.540561976527442 0,-24.91083166252566 5.733511974056828,-24.91083166252566
c 6.3416379954814275,0 10.755923709767142,15.197040290823454 6.3416379954814275,23.22427373611319
c -4.414285714285714,9.425 15.45,5.8 30.444076290232857,0.7252095662631177 c 15.820833531395248,-0.0 32.637543225481,3.625 27.487543225480994,-6.4913870153740545
c -4.414285714285714,-9.186369799837406 0,-17.803195388207985 9.29817106023329,-17.803195388207985
c 7.749998431883412,0 12.164284146169127,9.736460870955773 7.749998431883412,24.213837236380964
c -4.414285714285714,9.425 15.45,5.8 29.035715853830872,0.08074516720107638 c 5.914504299053212,0.0 34.31615630916423,-3.625 29.166156309164226,15.530203539479674
c -4.414285714285714,1.4440575116992072 0,4.786994789725041 7.619557976550059,4.786994789725041
c 6.8208555107061954,0 11.23514122499191,-4.2582242451253585 6.8208555107061954,-7.257509243562247
c -4.414285714285714,-9.425 15.45,-5.8 29.96485877500809,-13.059689085642468 c 6.882886524186256,-0.0 31.607823649849145,3.625 26.457823649849143,-4.4405830777425885
c -4.414285714285714,-14.065137298843615 0,-17.101594828962593 10.327890635865142,-17.101594828962593
c 10.457081946968046,0 14.87136766125376,2.6839429488084865 10.457081946968046,9.136417416710472
c -4.414285714285714,9.425 15.45,5.8 26.32863233874624,12.405760489994709 c 18.011045398197595,-0.0 34.465323258817484,3.625 29.315323258817482,-6.745166440386653
c -4.414285714285714,-4.3587944186205725 0,-16.256189196817147 7.470391026896802,-16.256189196817147
c 7.795879571947211,0 12.210165286232925,14.865463574133521 7.795879571947211,20.710746287422264
c -4.414285714285714,9.425 15.45,5.8 28.989834713767074,2.290609349781537 c 11.930460207549315,-0.0 33.90859031113654,3.625 28.75859031113654,-12.182247783481952
c -4.414285714285714,-5.705073675912678 0,-6.476283332161216 8.027123974577744,-6.476283332161216
c 11.285561935105981,0 15.699847649391696,1.9669584437258438 11.285561935105981,4.840316299443835
c -4.414285714285714,9.425 15.45,5.8 25.500152350608303,13.818214816199333 c 10.591027499359695,0.0 35.667457958045915,-3.625 30.517457958045913,8.696150742492682
c -4.414285714285714,5.421881335633192 0,9.945636925457789 6.268256327668372,9.945636925457789
c 10.378082684272336,0 14.79236839855805,-1.8581512673634095 10.378082684272336,-3.4683164901322012
c -4.414285714285714,-9.425 15.45,-5.8 26.40763160144195,-15.17347117781827 c 10.648077006799308,-0.0 33.25224261868182,3.625 28.10224261868182,-4.587252067603744
c -4.414285714285714,-10.770871198376472 0,-14.723120439518835 8.683471667032464,-14.723120439518835
c 8.16397170993438,0 12.578257424220094,12.86699751225038 8.16397170993438,17.485789410564475
c -4.414285714285714,9.425 15.45,5.8 28.621742575779905,1.8245830965581042 c 13.151184317240102,0.0 31.762639367923526,-3.625 26.612639367923528,6.571593602750399
c -4.414285714285714,10.325668969754549 0,11.905107429426314 10.173074917790757,11.905107429426314
c 11.569008883806802,0 15.983294598092517,-3.534345941684192 11.569008883806802,-8.289450616903231
c -4.414285714285714,-9.425 15.45,-5.8 25.216705401907483,-10.187250415273482 c 15.830222282238815,0.0 36.65702661485959,-3.625 31.507026614859587,1.4286085660890318
c -4.414285714285714,7.225892625004011 0,16.550482443820428 5.278687670854698,16.550482443820428
c 6.744817417152966,0 11.15910313143868,-2.0331880474255217 6.744817417152966,-2.646242651669869
c -4.414285714285714,-9.425 15.45,-5.8 30.04089686856132,-15.332848358239591 c 3.6892054008723307,-0.0 30.300082872359283,3.625 25.15008287235928,-10.644593402598046
c -4.414285714285714,-10.134506123623659 0,-10.372652791502523 11.635631413355004,-10.372652791502523
c 9.115001125382001,0 13.529286839667716,9.098806977065852 9.115001125382001,12.89291759178364
c -4.414285714285714,9.425 15.45,5.8 27.670713160332284,8.124328602316929 c 12.300421001447814,0.0 31.08170345553983,-3.625 25.931703455539832,8.28810654912227
c -4.414285714285714,5.482421247160223 0,15.974581177567385 10.854010830174452,15.974581177567385
c 7.648188664016885,0 12.0624743783026,-19.983116612075182 7.648188664016885,-20.93954850200238
c -4.414285714285714,-9.425 15.45,-5.8 29.1375256216974,-3.3231392246872744 L 1030 0 " fill="none" stroke="black" stroke-width="0.1" style="vector-effect:non-scaling-stroke;"/></g><g><path d="M 0 0  L 0 435.000000  c 17.201397849773485,0.0 34.72036850772713,-3.625 29.570368507727128,14.768661041289517
c -4.414285714285714,7.071852621844468 0,9.149188360082254 7.215345777987157,9.149188360082254
c 6.879147019293399,0 11.293432733579113,-18.97213732508337 6.879147019293399,-21.46376533644742
c -4.414285714285714,-9.425 15.45,-5.8 29.906567266420886,-2.454084064924352 c 10.282198425779777,-0.0 34.97311934792762,3.625 29.82311934792762,-13.34233015417687
c -4.414285714285714,-5.8149041426313115 0,-6.61264068467041 6.962594937786665,-6.61264068467041
c 7.838186753256316,0 12.252472467542031,14.800587303543217 7.838186753256316,19.707788625768444
c -4.414285714285714,9.425 15.45,5.8 28.94752753245797,0.2471822130788368 c 20.71763832061907,-0.0 32.7585769161166,3.625 27.6085769161166,-13.14785647906106
c -4.414285714285714,-1.8470215347874188 0,-4.464646537539407 9.177137369597684,-4.464646537539407
c 11.624203913911316,0 16.03848962819703,4.198592464396392 11.624203913911316,7.31585889752156
c -4.414285714285714,9.425 15.45,5.8 25.16151037180297,10.296644119078907 c 4.1159125052610745,-0.0 32.890847576970565,3.625 27.740847576970566,-7.792057459387333
c -4.414285714285714,-5.182107647347927 0,-15.652228643726751 9.044866708743719,-15.652228643726751
c 8.842300365950322,0 13.256586080236037,12.378630353868841 8.842300365950322,14.816009315160644
c -4.414285714285714,9.425 15.45,5.8 27.943413919763962,8.62827678795344 c 14.633293328326912,-0.0 34.525390772984835,3.625 29.375390772984836,-15.781397553493802
c -4.414285714285714,-3.1818925250938834 0,-3.6967242544377275 7.410323512729448,-3.6967242544377275
c 9.473277708898685,0 13.8875634231844,6.831266823995187 9.473277708898685,8.758805684573067
c -4.414285714285714,9.425 15.45,5.8 27.3124365768156,10.719316123358462 c 13.018598793675144,-0.0 33.14918379834861,3.625 27.999183798348607,-10.041812635936894
c -4.414285714285714,-4.303921726600143 0,-12.995438647511287 8.786530487365678,-12.995438647511287
c 7.8568760511698414,0 12.271161765455556,13.031966743449855 7.8568760511698414,17.518741851483583
c -4.414285714285714,9.425 15.45,5.8 28.928838234544443,5.518509431964599 c 20.349014190408013,-0.0 32.37375340539211,3.625 27.22375340539211,-15.312412462085875
c -4.414285714285714,-2.3206553328155852 0,-7.935645029230079 9.561960880322175,-7.935645029230079
c 8.218671727310358,0 12.632957441596073,3.3003112304260482 8.218671727310358,12.087181164366555
c -4.414285714285714,9.425 15.45,5.8 28.567042558403926,11.1608763269494 c 19.055730696101993,-0.0 33.99674434768974,3.625 28.84674434768974,-15.872698224779787
c -4.414285714285714,-4.060187093920186 0,-4.479068014443774 7.938969938024545,-4.479068014443774
c 7.238172917291131,0 11.652458631576845,6.944944718401552 7.238172917291131,15.654622735453575
c -4.414285714285714,9.425 15.45,5.8 29.547541368423154,4.697143503769986 c 9.566070814277245,-0.0 30.468747428413046,3.625 25.318747428413047,0.6963035602955169
c -4.414285714285714,-12.439749813962282 0,-19.65399714455053 11.466966857301237,-19.65399714455053
c 6.5905434330921935,0 11.004829147377908,7.2617361519361765 6.5905434330921935,13.76864335926048
c -4.414285714285714,9.425 15.45,5.8 30.19517085262209,5.189050224994535 c 14.533982687568171,0.0 36.40667918480155,-3.625 31.256679184801545,9.358060143453649
c -4.414285714285714,6.401430194589828 0,10.949766533729953 5.52903510091274,10.949766533729953
c 7.5513864294546025,0 11.965672143740317,-9.375156865870593 7.5513864294546025,-20.647460787362395
c -4.414285714285714,-9.425 15.45,-5.8 29.234327856259682,0.3396341101787925 c 18.63761906567047,-0.0 32.57525129625363,3.625 27.42525129625363,-4.441861177356052
c -4.414285714285714,-7.789642103578651 0,-18.34981797870393 9.360462989460654,-18.34981797870393
c 8.224609560698646,0 12.63889527498436,12.568423242057404 8.224609560698646,13.95050362577789
c -4.414285714285714,9.425 15.45,5.8 28.56110472501564,8.841175530282092 c 19.80551196140017,-0.0 31.948085115146526,3.625 26.798085115146524,-12.507073183947268
c -4.414285714285714,-5.9480023923672425 0,-10.110931405795911 9.987629170567761,-10.110931405795911
c 8.484635098721924,0 12.898920813007638,6.2923827601201525 8.484635098721924,6.7304450923033965
c -4.414285714285714,9.425 15.45,5.8 28.30107918699236,15.887559497439783 c 6.852877689544462,-0.0 35.48433796135948,3.625 30.33433796135948,-0.3391189109145744
c -4.414285714285714,-16.477517887377022 0,-21.911050122850504 6.451376324354804,-21.911050122850504
c 7.940631817086519,0 12.354917531372234,12.224329637008502 7.940631817086519,17.914226664960154
c -4.414285714285714,9.425 15.45,5.8 28.845082468627766,4.3359423688049255 c 18.620210463444888,-0.0 33.25017016680471,3.625 28.10017016680471,-9.073872146702385
c -4.414285714285714,-4.661401683261377 0,-13.080939828180075 8.685544118909576,-13.080939828180075
c 10.416452501322972,0 14.830738215608687,12.38415938383892 10.416452501322972,18.83678184534059
c -4.414285714285714,9.425 15.45,5.8 26.369261784391313,3.318030129541871 L 1030 0 " fill="none" stroke="black" stroke-width="0.1" style="vector-effect:non-scaling-stroke;"/></g><g><path d="M 0 0  L 0 507.500000  c 18.780914027941705,0.0 32.79044906850361,-3.625 27.640449068503614,4.960146435666556
c -4.414285714285714,12.413060942676516 0,17.297858905998826 9.145265217210671,17.297858905998826
c 10.691502625485512,0 15.105788339771227,-5.782747210670899 10.691502625485512,-16.646337017529625
c -4.414285714285714,-9.425 15.45,-5.8 26.094211660228773,-5.611668324135756 c 16.83136289591159,0.0 35.68607940204296,-3.625 30.536079402042958,9.763060211818907
c -4.414285714285714,6.893156433908303 0,8.548141490492565 6.249634883671327,8.548141490492565
c 8.955666109695066,0 13.36995182398078,-6.638607930375489 8.955666109695066,-7.72139714220482
c -4.414285714285714,-9.425 15.45,-5.8 27.83004817601922,-10.589804560106652 c 18.450923009151403,-0.0 30.372129015378505,3.625 25.222129015378503,-6.7699383327975005
c -4.414285714285714,-11.001287590758789 0,-11.066214814332646 11.563585270335782,-11.066214814332646
c 8.054127349299293,0 12.468413063585007,1.2124636751930233 8.054127349299293,4.99250304520106
c -4.414285714285714,9.425 15.45,5.8 28.731586936414992,12.843650101929088 c 7.9074482415894085,-0.0 33.48796718517924,3.625 28.337967185179238,-9.703249165861052
c -4.414285714285714,-5.282508898778872 0,-10.23135807903261 8.447747100535047,-10.23135807903261
c 5.491115536019883,0 9.905401250305598,10.3806767097109 5.491115536019883,14.357420811909591
c -4.414285714285714,9.425 15.45,5.8 31.2945987496944,5.577186432984071 c 9.853918147783043,-0.0 31.95528930308521,3.625 26.80528930308521,-7.1690353074390325
c -4.414285714285714,-9.489459219576144 0,-11.920821563515794 9.980424982629074,-11.920821563515794
c 7.857398837233028,0 12.271684551518742,3.824671133360386 7.857398837233028,5.984741270837796
c -4.414285714285714,9.425 15.45,5.8 28.928315448481257,13.10511560011703 c 13.398869788467065,0.0 35.94934237861271,-3.625 30.799342378612714,4.508340479441163
c -4.414285714285714,6.193068185884489 0,19.2461586877926 5.986371907101571,19.2461586877926
c 5.624951890989969,0 10.039237605275684,-11.073663295370254 5.624951890989969,-21.168968182206385
c -4.414285714285714,-9.425 15.45,-5.8 31.160762394724316,-2.585530985027379 c 12.916502199649859,-0.0 33.93457512427928,3.625 28.784575124279275,-14.405726062189897
c -4.414285714285714,-2.441470301087992 0,-7.702620823855609 8.00113916143501,-7.702620823855609
c 10.612148054662164,0 15.026433768947879,12.698324801102853 10.612148054662164,20.541987649800365
c -4.414285714285714,9.425 15.45,5.8 26.17356623105212,1.566359236245141 c 7.985994625215378,-0.0 34.88041871123769,3.625 29.730418711237686,-4.97690438297117
c -4.414285714285714,-4.2463342295683395 0,-18.330329925285415 7.055295574476599,-18.330329925285415
c 7.769395492996772,0 12.183681207282486,2.924973398638477 7.769395492996772,8.322222439869616
c -4.414285714285714,9.425 15.45,5.8 29.016318792717513,14.98501186838697 c 10.813453283967831,-0.0 32.091858173903134,3.625 26.941858173903135,-7.362554420929714
c -4.414285714285714,-6.404082554408159 0,-12.97041419189709 9.84385611181115,-12.97041419189709
c 6.770301584979016,0 11.18458729926473,4.121163273318986 6.770301584979016,14.451586860588009
c -4.414285714285714,9.425 15.45,5.8 30.01541270073527,5.881381752238795 c 10.580927118632012,-0.0 36.675514129542336,3.625 31.525514129542337,-10.013613225620874
c -4.414285714285714,-4.428335559206021 0,-14.286158026859395 5.260200156171948,-14.286158026859395
c 7.989388173869372,0 12.403673888155087,13.717797110631523 7.989388173869372,13.89786557444637
c -4.414285714285714,9.425 15.45,5.8 28.796326111844913,10.401905678033899 c 5.626678860561764,-0.0 36.00137811875233,3.625 30.85137811875233,-3.223482538140782
c -4.414285714285714,-12.719792242351048 0,-18.229876041528644 5.934336166961955,-18.229876041528644
c 10.28460685319169,0 14.698892567477404,3.1696363737974864 10.28460685319169,13.9315605957867
c -4.414285714285714,9.425 15.45,5.8 26.501107432522595,7.521797983882728 c 13.673277655589745,0.0 35.01121338469371,-3.625 29.861213384693713,8.34629736251425
c -4.414285714285714,12.488461531429538 0,13.96906969803004 6.924500901020572,13.96906969803004
c 7.529757746187862,0 11.944043460473576,-14.832330999117543 7.529757746187862,-15.85773934877709
c -4.414285714285714,-9.425 15.45,-5.8 29.255956539526423,-6.4576277117672 c 9.866734248116703,-0.0 32.91235870540499,3.625 27.76235870540499,-14.933460034399872
c -4.414285714285714,-3.810865483318582 0,-5.944486935230113 9.023355580309296,-5.944486935230113
c 10.183832261194269,0 14.598117975479983,3.7704459274661786 10.183832261194269,17.446444128872887
c -4.414285714285714,9.425 15.45,5.8 26.601882024520016,3.4315028407570978 c 14.835168217138733,0.0 33.96987647211387,-3.625 28.819876472113865,14.33907227296969
c -4.414285714285714,3.0965360227140426 0,3.680490038392696 7.9658378136004195,3.680490038392696
c 10.307617957357266,0 14.72190367164298,-5.215817574430397 10.307617957357266,-11.024867419269487
c -4.414285714285714,-9.425 15.45,-5.8 26.47809632835702,-6.994694892092898 L 1030 0 " fill="none" stroke="black" stroke-width="0.1" style="vector-effect:non-scaling-stroke;"/></g></g></svg>