<?xml version="1.0" standalone="no"?>
<!DOCTYPE svg PUBLIC "-//W3C//DTD SVG 20010904//EN"
 "http://www.w3.org/TR/2001/REC-SVG-20010904/DTD/svg10.dtd">
<svg version="1.0" xmlns="http://www.w3.org/2000/svg"
 width="66.000000pt" height="69.000000pt" viewBox="0 0 66.000000 69.000000"
 preserveAspectRatio="xMidYMid meet">
<metadata>
Created by potrace 1.16, written by Peter Selinger 2001-2019
</metadata>
<g transform="translate(0.000000,69.000000) scale(0.100000,-0.100000)"
fill="#000000" stroke="none">
<path d="M0 422 l0 -269 74 5 75 5 23 -6 24 -6 -4 -60 -4 -59 26 -17 26 -18
41 6 40 5 15 13 15 13 -2 60 -3 61 100 3 100 3 13 87 14 87 4 12 5 12 28 -5
28 -6 11 20 11 21 0 45 0 44 -6 16 -6 16 -17 0 -17 0 -10 -10 -11 -11 -15 6
-16 6 -13 32 -13 32 1 55 0 55 -11 7 -11 8 -257 0 -258 0 0 -268z"/>
</g>
</svg>
