<?xml version="1.0" standalone="no"?>
<!DOCTYPE svg PUBLIC "-//W3C//DTD SVG 20010904//EN"
 "http://www.w3.org/TR/2001/REC-SVG-20010904/DTD/svg10.dtd">
<svg version="1.0" xmlns="http://www.w3.org/2000/svg"
 width="64.000000pt" height="67.000000pt" viewBox="0 0 64.000000 67.000000"
 preserveAspectRatio="xMidYMid meet">
<metadata>
Created by potrace 1.16, written by Peter Selinger 2001-2019
</metadata>
<g transform="translate(0.000000,67.000000) scale(0.100000,-0.100000)"
fill="#000000" stroke="none">
<path d="M0 413 l0 -258 76 3 76 4 24 -6 24 -6 -6 -59 -7 -59 27 -17 26 -17
34 6 34 7 12 14 13 15 -6 55 -6 55 11 6 10 6 92 -1 92 -2 2 23 2 23 14 74 14
73 11 11 10 10 17 -14 16 -13 14 19 14 19 0 40 0 41 -9 14 -9 15 -16 -13 -16
-13 -24 6 -23 6 -14 32 -13 32 -1 55 0 56 -10 7 -10 8 -247 0 -248 0 0 -257z"/>
</g>
</svg>
