<?xml version="1.0" standalone="no"?>
<!DOCTYPE svg PUBLIC "-//W3C//DTD SVG 20010904//EN"
 "http://www.w3.org/TR/2001/REC-SVG-20010904/DTD/svg10.dtd">
<svg version="1.0" xmlns="http://www.w3.org/2000/svg"
 width="72.000000pt" height="66.000000pt" viewBox="0 0 72.000000 66.000000"
 preserveAspectRatio="xMidYMid meet">
<metadata>
Created by potrace 1.16, written by Peter Selinger 2001-2019
</metadata>
<g transform="translate(0.000000,66.000000) scale(0.100000,-0.100000)"
fill="#000000" stroke="none">
<path d="M50 635 l-10 -26 0 -85 0 -85 44 6 44 7 20 -11 21 -11 6 -20 6 -20
-6 -21 -7 -21 -30 -12 -30 -13 -44 10 -44 10 -7 -7 -8 -7 1 -37 0 -37 19 -66
19 -66 71 5 72 4 22 -11 22 -12 -7 -44 -6 -44 28 -6 29 -7 14 -4 13 -4 39 10
39 11 11 20 10 20 -3 41 -2 42 13 4 14 5 69 -13 70 -12 10 10 11 11 8 78 8 78
0 7 1 7 33 -6 32 -5 29 27 28 26 -5 47 -5 46 -23 19 -23 19 -43 -4 -43 -3 -2
10 -2 10 0 75 -1 75 -258 3 -257 2 -10 -25z"/>
</g>
</svg>
