<?xml version="1.0" standalone="no"?>
<!DOCTYPE svg PUBLIC "-//W3C//DTD SVG 20010904//EN"
 "http://www.w3.org/TR/2001/REC-SVG-20010904/DTD/svg10.dtd">
<svg version="1.0" xmlns="http://www.w3.org/2000/svg"
 width="70.000000pt" height="64.000000pt" viewBox="0 0 70.000000 64.000000"
 preserveAspectRatio="xMidYMid meet">
<metadata>
Created by potrace 1.16, written by Peter Selinger 2001-2019
</metadata>
<g transform="translate(0.000000,64.000000) scale(0.100000,-0.100000)"
fill="#000000" stroke="none">
<path d="M50 615 l-10 -26 0 -73 0 -73 49 5 49 4 21 -21 21 -21 0 -26 0 -25
-10 -19 -10 -18 -31 -11 -32 -11 -39 11 -40 10 -6 -6 -6 -6 1 -37 2 -38 18
-49 19 -50 83 -5 83 -5 13 -18 13 -19 -10 -29 -10 -30 5 -5 5 -6 34 -7 33 -8
32 9 33 8 10 21 11 20 -3 42 -3 42 33 3 33 3 51 -11 51 -11 10 10 9 9 9 83 8
82 10 10 10 10 16 -13 16 -13 25 14 26 13 10 19 10 19 -6 34 -7 33 -22 16 -21
15 -26 0 -26 0 -11 -11 -11 -11 -12 21 -11 21 3 73 3 72 -248 3 -247 2 -10
-25z"/>
</g>
</svg>
