<?xml version="1.0" standalone="no"?>
<!DOCTYPE svg PUBLIC "-//W3C//DTD SVG 20010904//EN"
 "http://www.w3.org/TR/2001/REC-SVG-20010904/DTD/svg10.dtd">
<svg version="1.0" xmlns="http://www.w3.org/2000/svg"
 width="68.000000pt" height="78.000000pt" viewBox="0 0 68.000000 78.000000"
 preserveAspectRatio="xMidYMid meet">
<metadata>
Created by potrace 1.16, written by Peter Selinger 2001-2019
</metadata>
<g transform="translate(0.000000,78.000000) scale(0.100000,-0.100000)"
fill="#000000" stroke="none">
<path d="M225 768 l-20 -11 -3 -3 -4 -3 13 -36 14 -37 -20 -14 -19 -14 -72 0
-73 0 -7 -36 -7 -36 9 -41 9 -42 52 3 51 3 16 -23 16 -22 0 -37 0 -37 -26 -17
-27 -17 -41 6 -41 6 -20 3 -20 2 -3 -35 -3 -35 19 -70 18 -70 85 -1 84 -1 18
-1 18 -2 -11 -21 -11 -20 6 -32 7 -32 14 -23 14 -22 26 0 25 0 24 16 25 16 11
39 12 38 -13 16 -14 17 15 9 14 9 40 -1 40 0 42 -8 42 -8 3 106 3 106 41 -3
41 -3 20 25 20 25 -5 26 -5 26 -23 16 -24 15 -41 -4 -41 -4 3 91 4 90 -95 5
-95 5 -13 9 -14 8 7 35 6 35 -12 14 -11 14 -37 0 -36 -1 -20 -11z"/>
</g>
</svg>
