<?xml version="1.0" standalone="no"?>
<!DOCTYPE svg PUBLIC "-//W3C//DTD SVG 20010904//EN"
 "http://www.w3.org/TR/2001/REC-SVG-20010904/DTD/svg10.dtd">
<svg version="1.0" xmlns="http://www.w3.org/2000/svg"
 width="68.000000pt" height="72.000000pt" viewBox="0 0 68.000000 72.000000"
 preserveAspectRatio="xMidYMid meet">
<metadata>
Created by potrace 1.16, written by Peter Selinger 2001-2019
</metadata>
<g transform="translate(0.000000,72.000000) scale(0.100000,-0.100000)"
fill="#000000" stroke="none">
<path d="M482 712 l-13 -9 7 -50 6 -50 -16 -32 -17 -32 -23 -10 -24 -11 -26
17 -26 17 0 18 0 17 11 32 11 31 -12 16 -13 15 -110 -2 -109 -1 6 -58 7 -57
-10 -27 -11 -26 -41 6 -42 7 -18 -24 -19 -24 0 -47 0 -47 24 -28 24 -28 56 0
56 0 0 -25 0 -25 -15 -55 -15 -55 0 -9 0 -9 100 5 100 5 0 -52 0 -53 19 -23
19 -24 48 2 48 2 14 18 13 18 -6 42 -6 41 9 6 10 6 85 2 84 3 6 81 5 82 -6 27
-5 27 -39 -6 -38 -6 -30 15 -30 15 -6 24 -6 24 12 22 12 22 16 -8 17 -7 31 -4
30 -5 12 14 11 14 7 56 7 56 -7 45 -7 45 -37 15 -38 15 -44 6 -45 7 -13 -9z"/>
</g>
</svg>
