<?xml version="1.0" standalone="no"?>
<!DOCTYPE svg PUBLIC "-//W3C//DTD SVG 20010904//EN"
 "http://www.w3.org/TR/2001/REC-SVG-20010904/DTD/svg10.dtd">
<svg version="1.0" xmlns="http://www.w3.org/2000/svg"
 width="66.000000pt" height="70.000000pt" viewBox="0 0 66.000000 70.000000"
 preserveAspectRatio="xMidYMid meet">
<metadata>
Created by potrace 1.16, written by Peter Selinger 2001-2019
</metadata>
<g transform="translate(0.000000,70.000000) scale(0.100000,-0.100000)"
fill="#000000" stroke="none">
<path d="M483 694 l-11 -5 5 -57 4 -57 -20 -32 -20 -32 -27 -7 -27 -7 -26 16
-26 16 -3 26 -3 26 10 29 10 29 -14 11 -14 12 -96 -4 -95 -3 6 -55 6 -55 -11
-29 -11 -28 -44 6 -43 7 -17 -25 -16 -25 0 -34 0 -34 20 -26 21 -26 35 -7 34
-6 15 12 14 12 11 -7 10 -6 0 -37 0 -37 -15 -54 -14 -54 103 6 103 7 -5 -53
-4 -52 18 -22 19 -22 15 -2 15 -1 27 1 27 1 11 20 11 20 -10 37 -11 37 11 7
11 6 80 6 81 7 5 5 6 6 7 64 6 64 -5 26 -4 25 -34 -6 -34 -6 -31 12 -30 13 -9
18 -10 18 0 23 0 24 14 19 14 19 40 -14 41 -13 15 12 15 12 6 54 7 53 -7 40
-6 40 -37 15 -37 14 -35 6 -35 5 -12 -4z"/>
</g>
</svg>
