<?xml version="1.0" standalone="no"?>
<!DOCTYPE svg PUBLIC "-//W3C//DTD SVG 20010904//EN"
 "http://www.w3.org/TR/2001/REC-SVG-20010904/DTD/svg10.dtd">
<svg version="1.0" xmlns="http://www.w3.org/2000/svg"
 width="67.000000pt" height="68.000000pt" viewBox="0 0 67.000000 68.000000"
 preserveAspectRatio="xMidYMid meet">
<metadata>
Created by potrace 1.16, written by Peter Selinger 2001-2019
</metadata>
<g transform="translate(0.000000,68.000000) scale(0.100000,-0.100000)"
fill="#000000" stroke="none">
<path d="M313 674 l-12 -5 6 -48 5 -47 -16 -33 -17 -32 -52 3 -52 3 0 47 0 47
-12 11 -11 12 -65 5 -64 6 -7 -12 -7 -11 -6 -83 -6 -83 42 4 41 4 24 -15 23
-16 5 -26 5 -26 -20 -25 -20 -25 -41 3 -41 3 -3 -102 -3 -103 71 0 71 0 34
-14 35 -15 0 -10 0 -10 -12 -27 -12 -26 19 -14 19 -14 39 0 38 0 16 15 15 16
-13 15 -13 16 14 8 15 9 71 16 71 16 17 12 17 12 -15 37 -16 36 -10 46 -10 45
6 15 6 16 54 -6 53 -7 31 13 31 13 9 18 10 18 0 28 -1 28 -15 20 -14 20 -20
-13 -20 -12 -18 0 -18 0 -20 14 -19 14 -5 78 -5 78 -55 17 -55 17 -40 5 -40 6
-12 -5z"/>
</g>
</svg>
