<?xml version="1.0" standalone="no"?>
<!DOCTYPE svg PUBLIC "-//W3C//DTD SVG 20010904//EN"
 "http://www.w3.org/TR/2001/REC-SVG-20010904/DTD/svg10.dtd">
<svg version="1.0" xmlns="http://www.w3.org/2000/svg"
 width="84.000000pt" height="69.000000pt" viewBox="0 0 84.000000 69.000000"
 preserveAspectRatio="xMidYMid meet">
<metadata>
Created by potrace 1.16, written by Peter Selinger 2001-2019
</metadata>
<g transform="translate(0.000000,69.000000) scale(0.100000,-0.100000)"
fill="#000000" stroke="none">
<path d="M507 684 l-6 -7 5 -41 6 -42 -15 -37 -16 -37 -25 -11 -25 -12 -25 7
-26 6 -14 28 -15 28 9 39 9 39 -12 8 -12 8 -75 0 -76 0 -12 -12 -12 -12 0 -47
0 -46 -11 -32 -11 -31 -20 -11 -19 -10 -35 11 -35 12 -13 -5 -13 -5 -6 -32 -7
-31 15 -30 15 -29 25 -6 25 -6 22 -1 23 0 27 7 27 8 7 -27 7 -27 -12 -68 -11
-69 0 -9 0 -10 18 3 17 4 76 5 77 4 -6 -64 -5 -64 13 -15 12 -15 57 0 56 1 20
15 20 14 -12 19 -12 19 12 10 12 11 50 12 50 12 27 13 26 14 -19 61 -19 61 0
23 0 23 6 17 6 16 59 -7 58 -6 25 6 25 6 10 38 10 37 -8 35 -7 35 -20 -3 -19
-4 -33 -5 -33 -5 -19 17 -20 18 0 84 0 85 -12 -4 -13 -5 -44 14 -44 13 -27 0
-27 0 -6 -6z"/>
</g>
</svg>
