<?xml version="1.0" standalone="no"?>
<!DOCTYPE svg PUBLIC "-//W3C//DTD SVG 20010904//EN"
 "http://www.w3.org/TR/2001/REC-SVG-20010904/DTD/svg10.dtd">
<svg version="1.0" xmlns="http://www.w3.org/2000/svg"
 width="53.000000pt" height="80.000000pt" viewBox="0 0 53.000000 80.000000"
 preserveAspectRatio="xMidYMid meet">
<metadata>
Created by potrace 1.16, written by Peter Selinger 2001-2019
</metadata>
<g transform="translate(0.000000,80.000000) scale(0.100000,-0.100000)"
fill="#000000" stroke="none">
<path d="M216 757 l6 -42 -21 -19 -22 -20 -89 -4 -90 -4 0 -63 0 -62 20 -26
21 -26 42 -3 42 -3 3 -43 3 -43 -12 -15 -12 -15 -45 3 -45 3 -9 -33 -9 -33 3
-77 3 -77 80 0 80 1 -3 -37 -4 -36 16 -31 16 -31 38 -11 37 -11 40 13 40 13 0
50 0 50 10 7 10 8 80 0 80 0 3 109 2 108 -15 13 -16 13 -23 -13 -24 -12 -37
18 -37 17 -5 14 -5 13 6 25 7 26 34 -7 35 -6 23 6 24 6 11 25 12 26 0 74 0 74
-17 5 -18 5 -72 0 -72 -1 -11 7 -10 6 6 41 7 41 -18 14 -19 13 -43 0 -43 0 6
-43z"/>
</g>
</svg>
