<?xml version="1.0" standalone="no"?>
<!DOCTYPE svg PUBLIC "-//W3C//DTD SVG 20010904//EN"
 "http://www.w3.org/TR/2001/REC-SVG-20010904/DTD/svg10.dtd">
<svg version="1.0" xmlns="http://www.w3.org/2000/svg"
 width="68.000000pt" height="68.000000pt" viewBox="0 0 68.000000 68.000000"
 preserveAspectRatio="xMidYMid meet">
<metadata>
Created by potrace 1.16, written by Peter Selinger 2001-2019
</metadata>
<g transform="translate(0.000000,68.000000) scale(0.100000,-0.100000)"
fill="#000000" stroke="none">
<path d="M354 666 l-19 -14 13 -34 12 -33 -22 -17 -23 -18 -82 0 -83 0 0 -75
0 -75 -20 -20 -20 -20 -39 6 -39 6 -17 -25 -16 -26 3 -28 3 -28 43 -15 42 -14
31 11 32 12 10 -6 10 -6 -6 -81 -7 -81 -6 -22 -6 -23 27 -10 26 -10 86 0 85 0
-7 40 -7 41 16 24 16 25 25 0 24 0 19 -25 20 -25 -11 -29 -10 -28 6 -16 6 -16
28 -7 27 -7 76 12 75 13 2 2 2 2 -12 105 -12 104 -43 -2 -43 -2 -16 35 -17 34
21 28 21 27 48 0 49 0 3 19 4 19 -7 83 -7 82 -26 11 -27 11 -70 16 -70 16 -7
11 -7 12 6 22 5 23 -49 0 -49 0 -20 -14z"/>
</g>
</svg>
