<?xml version="1.0" standalone="no"?>
<!DOCTYPE svg PUBLIC "-//W3C//DTD SVG 20010904//EN"
 "http://www.w3.org/TR/2001/REC-SVG-20010904/DTD/svg10.dtd">
<svg version="1.0" xmlns="http://www.w3.org/2000/svg"
 width="69.000000pt" height="82.000000pt" viewBox="0 0 69.000000 82.000000"
 preserveAspectRatio="xMidYMid meet">
<metadata>
Created by potrace 1.16, written by Peter Selinger 2001-2019
</metadata>
<g transform="translate(0.000000,82.000000) scale(0.100000,-0.100000)"
fill="#000000" stroke="none">
<path d="M195 807 l-18 -14 7 -42 6 -41 -26 -10 -25 -10 -70 0 -69 0 0 -81 0
-80 10 -20 11 -20 52 3 52 3 3 -34 3 -34 -5 -23 -6 -24 -20 12 -20 13 -13 -15
-14 -15 -21 -90 -22 -91 0 -13 0 -14 73 6 73 5 1 -48 1 -49 21 -34 21 -35 16
-6 16 -6 37 0 37 0 25 27 24 28 0 77 0 78 30 0 30 0 44 -20 43 -20 9 0 9 0 -2
85 -2 85 10 10 10 10 34 -10 35 -10 22 0 23 0 20 20 20 20 0 58 0 58 -13 18
-14 19 -36 -14 -36 -13 -25 14 -25 13 -7 16 -7 16 -6 65 -6 65 -97 5 -96 5 -7
7 -7 6 11 20 11 21 0 10 0 11 -20 20 -20 20 -38 0 -38 0 -19 -13z"/>
</g>
</svg>
