<?xml version="1.0" standalone="no"?>
<!DOCTYPE svg PUBLIC "-//W3C//DTD SVG 20010904//EN"
 "http://www.w3.org/TR/2001/REC-SVG-20010904/DTD/svg10.dtd">
<svg version="1.0" xmlns="http://www.w3.org/2000/svg"
 width="68.000000pt" height="63.000000pt" viewBox="0 0 68.000000 63.000000"
 preserveAspectRatio="xMidYMid meet">
<metadata>
Created by potrace 1.16, written by Peter Selinger 2001-2019
</metadata>
<g transform="translate(0.000000,63.000000) scale(0.100000,-0.100000)"
fill="#000000" stroke="none">
<path d="M403 624 l-12 -5 6 -32 5 -32 -19 -24 -19 -23 -94 -6 -95 -7 -6 -55
-6 -55 -7 -17 -8 -17 -19 -6 -19 -6 -44 6 -45 7 -12 -41 -12 -42 9 -37 9 -37
44 0 45 0 8 -35 9 -35 16 -53 16 -53 18 -9 18 -10 68 0 69 0 23 16 23 17 -5
43 -4 44 32 6 33 6 21 -7 20 -6 -6 -29 -5 -29 23 -10 24 -9 83 -19 83 -19 -5
21 -5 20 -12 55 -11 55 -10 18 -9 17 -20 -11 -21 -11 -19 18 -20 18 3 50 3 51
20 -2 20 -1 21 -7 20 -6 25 19 24 20 3 91 4 91 -64 0 -63 0 -38 9 -39 9 -6 7
-6 6 11 29 11 29 -12 10 -11 9 -25 6 -25 5 -12 -5z"/>
</g>
</svg>
