<?xml version="1.0" standalone="no"?>
<!DOCTYPE svg PUBLIC "-//W3C//DTD SVG 20010904//EN"
 "http://www.w3.org/TR/2001/REC-SVG-20010904/DTD/svg10.dtd">
<svg version="1.0" xmlns="http://www.w3.org/2000/svg"
 width="69.000000pt" height="52.000000pt" viewBox="0 0 69.000000 52.000000"
 preserveAspectRatio="xMidYMid meet">
<metadata>
Created by potrace 1.16, written by Peter Selinger 2001-2019
</metadata>
<g transform="translate(0.000000,52.000000) scale(0.100000,-0.100000)"
fill="#000000" stroke="none">
<path d="M158 450 l4 -71 -17 -25 -17 -26 -43 6 -43 7 -21 -27 -21 -27 0 -24
0 -24 26 -26 26 -26 58 6 58 6 12 -14 12 -15 -6 -53 -7 -53 -14 -28 -15 -28 0
-2 0 -1 98 0 98 0 17 17 17 17 -10 26 -10 26 0 20 0 19 20 20 20 20 10 0 10 0
21 -21 21 -21 -7 -48 -7 -48 14 -8 13 -9 97 -5 97 -5 12 65 11 65 -4 40 -3 40
-60 -3 -60 -3 -32 21 -33 20 0 18 0 18 15 21 16 22 37 11 38 10 31 -9 32 -9 6
16 6 16 -7 78 -7 78 -256 0 -256 0 3 -70z"/>
</g>
</svg>
