<?xml version="1.0" standalone="no"?>
<!DOCTYPE svg PUBLIC "-//W3C//DTD SVG 20010904//EN"
 "http://www.w3.org/TR/2001/REC-SVG-20010904/DTD/svg10.dtd">
<svg version="1.0" xmlns="http://www.w3.org/2000/svg"
 width="67.000000pt" height="65.000000pt" viewBox="0 0 67.000000 65.000000"
 preserveAspectRatio="xMidYMid meet">
<metadata>
Created by potrace 1.16, written by Peter Selinger 2001-2019
</metadata>
<g transform="translate(0.000000,65.000000) scale(0.100000,-0.100000)"
fill="#000000" stroke="none">
<path d="M373 640 l-22 -9 -11 -21 -12 -22 4 -41 3 -42 -86 4 -87 3 -3 -85 -4
-86 -20 -16 -20 -15 -17 5 -18 5 -19 6 -19 6 -22 -22 -21 -21 3 -22 3 -22 35
-17 36 -18 38 11 38 10 14 -5 14 -5 0 -68 -1 -68 -14 -40 -15 -40 0 0 0 -1 86
2 86 1 26 20 27 21 -1 53 -1 54 11 7 11 8 26 0 27 0 22 -18 21 -17 -10 -28
-10 -27 5 -14 6 -15 56 -11 57 -12 21 -5 22 -5 5 9 6 9 -21 70 -21 69 -10 13
-11 14 -23 -5 -23 -4 0 47 0 48 15 12 16 13 33 -10 33 -10 17 9 16 9 0 93 0
93 -5 5 -6 5 -61 -14 -61 -14 -36 3 -36 3 0 57 0 56 -24 26 -24 26 -11 -1 -11
0 -22 -9z"/>
</g>
</svg>
