<?xml version="1.0" standalone="no"?>
<!DOCTYPE svg PUBLIC "-//W3C//DTD SVG 20010904//EN"
 "http://www.w3.org/TR/2001/REC-SVG-20010904/DTD/svg10.dtd">
<svg version="1.0" xmlns="http://www.w3.org/2000/svg"
 width="69.000000pt" height="67.000000pt" viewBox="0 0 69.000000 67.000000"
 preserveAspectRatio="xMidYMid meet">
<metadata>
Created by potrace 1.16, written by Peter Selinger 2001-2019
</metadata>
<g transform="translate(0.000000,67.000000) scale(0.100000,-0.100000)"
fill="#000000" stroke="none">
<path d="M373 660 l-22 -9 -10 -20 -11 -20 0 -44 0 -43 -84 4 -84 4 -3 -85 -4
-86 -20 -15 -20 -14 -17 9 -17 9 -20 0 -21 0 -21 -21 -20 -20 3 -32 3 -32 38
-19 38 -18 41 10 42 11 8 -5 8 -5 0 -57 -1 -57 -14 -40 -15 -40 0 -12 0 -12
96 3 96 4 27 19 26 20 0 57 0 57 22 5 21 6 22 -12 22 -12 -6 -36 -6 -37 8 -12
8 -13 83 -17 82 -16 11 11 11 11 -23 78 -23 78 -10 13 -9 12 -24 0 -24 0 0 34
0 34 14 11 13 11 31 -11 31 -10 20 11 21 11 0 104 0 104 -8 5 -9 5 -79 -16
-80 -17 -17 7 -16 6 6 48 5 49 -27 32 -27 32 -21 -1 -22 0 -22 -9z"/>
</g>
</svg>
