<?xml version="1.0" standalone="no"?>
<!DOCTYPE svg PUBLIC "-//W3C//DTD SVG 20010904//EN"
 "http://www.w3.org/TR/2001/REC-SVG-20010904/DTD/svg10.dtd">
<svg version="1.0" xmlns="http://www.w3.org/2000/svg"
 width="55.000000pt" height="68.000000pt" viewBox="0 0 55.000000 68.000000"
 preserveAspectRatio="xMidYMid meet">
<metadata>
Created by potrace 1.16, written by Peter Selinger 2001-2019
</metadata>
<g transform="translate(0.000000,68.000000) scale(0.100000,-0.100000)"
fill="#000000" stroke="none">
<path d="M231 666 l-24 -13 -13 -24 -13 -24 -1 -31 0 -31 -87 1 -88 1 0 -95 0
-95 67 3 67 2 18 -26 17 -26 -15 -27 -15 -26 -44 0 -45 0 -12 -55 -13 -55 -16
-53 -16 -54 7 -6 7 -7 98 -3 98 -4 22 12 22 12 -6 45 -6 46 11 13 11 14 14 0
14 0 20 -20 20 -20 -6 -55 -7 -54 28 -7 27 -7 56 6 57 6 31 11 31 11 -4 72 -5
72 -7 30 -8 30 -64 0 -64 0 -12 26 -13 27 8 23 9 23 54 -3 54 -2 18 13 18 13
9 64 9 63 -4 11 -3 12 -6 26 -6 27 -82 7 -83 7 -18 10 -18 9 7 34 6 35 -27 10
-26 10 -17 0 -17 -1 -24 -13z"/>
</g>
</svg>
