<?xml version="1.0" standalone="no"?>
<!DOCTYPE svg PUBLIC "-//W3C//DTD SVG 20010904//EN"
 "http://www.w3.org/TR/2001/REC-SVG-20010904/DTD/svg10.dtd">
<svg version="1.0" xmlns="http://www.w3.org/2000/svg"
 width="84.000000pt" height="63.000000pt" viewBox="0 0 84.000000 63.000000"
 preserveAspectRatio="xMidYMid meet">
<metadata>
Created by potrace 1.16, written by Peter Selinger 2001-2019
</metadata>
<g transform="translate(0.000000,63.000000) scale(0.100000,-0.100000)"
fill="#000000" stroke="none">
<path d="M383 583 l2 -47 -25 -13 -25 -13 -82 0 -82 0 0 -68 0 -68 -10 -27
-10 -26 -25 -7 -24 -6 -43 4 -43 3 -9 -31 -9 -32 14 -28 14 -29 64 0 64 0 7
-25 7 -25 1 -63 1 -62 28 -11 27 -11 55 6 55 7 22 15 23 14 0 28 0 27 -10 15
-9 14 12 8 12 8 35 0 35 0 14 -9 13 -8 -12 -23 -13 -23 18 -14 18 -13 36 -5
36 -6 56 -17 56 -18 11 13 12 12 15 58 15 57 6 19 6 18 32 -6 33 -7 16 26 17
25 0 40 0 40 -16 15 -15 16 -22 0 -22 0 -33 -9 -32 -10 -10 19 -10 19 0 79 0
80 -22 6 -23 6 -49 0 -49 0 -38 12 -39 11 0 9 0 9 11 20 10 20 -12 15 -11 14
-38 0 -38 0 1 -47z"/>
</g>
</svg>
