<?xml version="1.0" standalone="no"?>
<!DOCTYPE svg PUBLIC "-//W3C//DTD SVG 20010904//EN"
 "http://www.w3.org/TR/2001/REC-SVG-20010904/DTD/svg10.dtd">
<svg version="1.0" xmlns="http://www.w3.org/2000/svg"
 width="65.000000pt" height="63.000000pt" viewBox="0 0 65.000000 63.000000"
 preserveAspectRatio="xMidYMid meet">
<metadata>
Created by potrace 1.16, written by Peter Selinger 2001-2019
</metadata>
<g transform="translate(0.000000,63.000000) scale(0.100000,-0.100000)"
fill="#000000" stroke="none">
<path d="M204 624 l-11 -5 4 -42 5 -43 -26 -12 -27 -12 -74 0 -75 0 0 -74 0
-75 16 -15 15 -16 8 0 8 0 33 12 33 11 19 -23 18 -22 0 -40 0 -39 -11 -21 -11
-20 -42 6 -43 7 -11 -14 -12 -14 -8 -79 -9 -79 11 -7 11 -8 75 0 75 0 13 9 13
8 -10 44 -11 44 0 7 0 7 16 15 15 16 39 0 39 0 11 -20 11 -21 -7 -44 -6 -44
23 -5 24 -6 88 -2 87 -3 0 1 0 1 -17 34 -18 34 0 60 0 60 30 -3 30 -3 24 0 24
-1 26 20 26 19 3 35 3 35 -15 12 -16 13 -22 0 -23 -1 -32 -7 -33 -6 0 100 0
100 -22 6 -23 6 -61 0 -62 0 -12 15 -12 15 5 22 6 22 -16 18 -16 18 -41 -1
-41 -1 -11 -4z"/>
</g>
</svg>
