<?xml version="1.0" standalone="no"?>
<!DOCTYPE svg PUBLIC "-//W3C//DTD SVG 20010904//EN"
 "http://www.w3.org/TR/2001/REC-SVG-20010904/DTD/svg10.dtd">
<svg version="1.0" xmlns="http://www.w3.org/2000/svg"
 width="82.000000pt" height="71.000000pt" viewBox="0 0 82.000000 71.000000"
 preserveAspectRatio="xMidYMid meet">
<metadata>
Created by potrace 1.16, written by Peter Selinger 2001-2019
</metadata>
<g transform="translate(0.000000,71.000000) scale(0.100000,-0.100000)"
fill="#000000" stroke="none">
<path d="M489 706 l-6 -6 5 -73 4 -74 -27 -21 -28 -22 -23 0 -24 0 -16 25 -17
26 7 53 6 54 -16 6 -16 6 -36 0 -37 0 -52 -6 -53 -7 0 -62 0 -63 -19 -23 -19
-24 -34 13 -34 12 -7 0 -6 0 -21 -22 -20 -22 0 -49 0 -48 11 -21 11 -20 56 4
56 3 7 -25 7 -25 1 -56 1 -57 16 -6 16 -6 44 0 45 0 34 -14 35 -15 0 -13 0
-13 -10 -39 -9 -40 10 -18 10 -18 59 0 59 0 11 21 12 21 -4 66 -3 67 101 -2
102 -3 29 93 30 92 29 0 29 1 12 24 13 25 0 31 0 30 -14 19 -14 19 -42 -13
-43 -13 -20 21 -21 20 0 78 -1 78 -40 13 -40 13 -45 6 -45 5 -6 -6z"/>
</g>
</svg>
