<?xml version="1.0" standalone="no"?>
<!DOCTYPE svg PUBLIC "-//W3C//DTD SVG 20010904//EN"
 "http://www.w3.org/TR/2001/REC-SVG-20010904/DTD/svg10.dtd">
<svg version="1.0" xmlns="http://www.w3.org/2000/svg"
 width="84.000000pt" height="73.000000pt" viewBox="0 0 84.000000 73.000000"
 preserveAspectRatio="xMidYMid meet">
<metadata>
Created by potrace 1.16, written by Peter Selinger 2001-2019
</metadata>
<g transform="translate(0.000000,73.000000) scale(0.100000,-0.100000)"
fill="#000000" stroke="none">
<path d="M488 725 l-8 -8 7 -72 6 -71 -28 -22 -28 -22 -13 0 -14 0 -16 25 -16
24 7 52 7 51 -13 9 -14 9 -50 0 -50 0 -52 -6 -53 -7 0 -62 0 -63 -18 -22 -18
-23 -22 12 -21 11 -20 0 -20 0 -21 -22 -20 -22 0 -59 0 -58 11 -20 10 -20 57
2 56 3 7 -25 7 -24 1 -56 1 -57 16 -6 16 -6 44 0 45 0 35 -15 35 -15 -5 -17
-5 -18 -6 -32 -6 -32 11 -20 11 -21 69 0 69 0 12 21 11 21 -4 67 -3 66 101 -3
101 -3 30 93 30 93 28 0 29 0 13 25 13 25 0 38 0 38 -10 20 -11 19 -24 0 -24
0 -24 -9 -25 -10 -17 20 -18 19 -1 77 -1 78 -40 13 -40 14 -55 5 -55 5 -7 -7z"/>
</g>
</svg>
