<?xml version="1.0" standalone="no"?>
<!DOCTYPE svg PUBLIC "-//W3C//DTD SVG 20010904//EN"
 "http://www.w3.org/TR/2001/REC-SVG-20010904/DTD/svg10.dtd">
<svg version="1.0" xmlns="http://www.w3.org/2000/svg"
 width="79.000000pt" height="72.000000pt" viewBox="0 0 79.000000 72.000000"
 preserveAspectRatio="xMidYMid meet">
<metadata>
Created by potrace 1.16, written by Peter Selinger 2001-2019
</metadata>
<g transform="translate(0.000000,72.000000) scale(0.100000,-0.100000)"
fill="#000000" stroke="none">
<path d="M448 713 l-1 -8 -1 -73 -1 -74 -28 -23 -27 -24 -14 5 -13 5 -14 26
-14 26 2 64 1 63 -36 -5 -37 -4 -68 -7 -67 -6 0 -83 0 -84 -23 -27 -24 -27
-33 11 -33 12 -8 0 -9 0 0 -44 0 -43 21 -27 21 -27 42 3 41 3 5 -90 5 -90 87
-5 87 -5 12 -12 11 -11 -13 -36 -13 -35 12 -25 11 -25 35 -6 35 -7 35 12 36
12 2 16 1 17 1 35 1 35 89 13 90 12 4 5 4 4 -15 77 -15 77 5 13 5 14 52 -6 51
-6 19 14 18 14 5 46 5 45 -12 23 -12 22 -44 -6 -44 -6 -10 20 -10 19 0 73 0
73 -8 11 -7 12 -54 16 -55 16 -43 0 -43 0 -2 -7z"/>
</g>
</svg>
