<?xml version="1.0" standalone="no"?>
<!DOCTYPE svg PUBLIC "-//W3C//DTD SVG 20010904//EN"
 "http://www.w3.org/TR/2001/REC-SVG-20010904/DTD/svg10.dtd">
<svg version="1.0" xmlns="http://www.w3.org/2000/svg"
 width="77.000000pt" height="70.000000pt" viewBox="0 0 77.000000 70.000000"
 preserveAspectRatio="xMidYMid meet">
<metadata>
Created by potrace 1.16, written by Peter Selinger 2001-2019
</metadata>
<g transform="translate(0.000000,70.000000) scale(0.100000,-0.100000)"
fill="#000000" stroke="none">
<path d="M449 693 l-1 -8 -2 -73 -1 -74 -28 -24 -28 -24 -14 0 -14 0 -20 21
-20 22 -7 43 -6 42 6 29 7 29 -78 -7 -78 -8 -17 0 -18 -1 0 -84 0 -85 -24 -28
-24 -28 -41 11 -41 11 0 -32 0 -33 19 -23 19 -24 44 0 43 0 5 -90 5 -90 85 -5
85 -5 13 -8 12 -8 0 -20 0 -20 -11 -20 -10 -20 6 -20 7 -20 26 -10 27 -11 37
11 37 11 3 18 4 17 -8 24 -9 24 13 13 13 12 84 11 84 11 4 3 3 3 -16 74 -15
74 10 22 10 22 41 -10 41 -11 24 11 24 11 7 36 7 37 -12 24 -11 25 -44 -6 -44
-7 -11 20 -11 21 0 73 0 73 -8 11 -7 12 -54 16 -55 16 -33 0 -33 0 -1 -7z"/>
</g>
</svg>
