<?xml version="1.0" standalone="no"?>
<!DOCTYPE svg PUBLIC "-//W3C//DTD SVG 20010904//EN"
 "http://www.w3.org/TR/2001/REC-SVG-20010904/DTD/svg10.dtd">
<svg version="1.0" xmlns="http://www.w3.org/2000/svg"
 width="72.000000pt" height="66.000000pt" viewBox="0 0 72.000000 66.000000"
 preserveAspectRatio="xMidYMid meet">
<metadata>
Created by potrace 1.16, written by Peter Selinger 2001-2019
</metadata>
<g transform="translate(0.000000,66.000000) scale(0.100000,-0.100000)"
fill="#000000" stroke="none">
<path d="M232 644 l-22 -15 0 -24 0 -24 9 -25 10 -24 -13 -11 -12 -10 -84 -3
-85 -3 -3 -99 -3 -98 33 6 33 7 23 1 22 0 16 -13 15 -12 -3 -35 -3 -35 -26
-19 -26 -20 -24 1 -24 0 -30 3 -30 3 -3 -40 -3 -39 12 -44 12 -44 22 -14 23
-15 93 3 94 3 -3 15 -3 14 -6 46 -5 46 17 17 16 17 23 0 22 0 23 -21 23 -22
-6 -42 -7 -43 18 -7 18 -7 91 -5 91 -6 0 14 1 14 20 83 20 84 11 11 11 11 11
-11 11 -11 17 5 16 6 18 15 17 15 0 29 0 29 -11 20 -10 20 -24 9 -23 9 -37
-12 -37 -11 -14 19 -14 19 0 69 0 69 -14 -5 -14 -6 -61 -12 -60 -11 -26 6 -26
7 7 57 6 57 -22 28 -21 27 -33 0 -32 0 -22 -16z"/>
</g>
</svg>
