<?xml version="1.0" standalone="no"?>
<!DOCTYPE svg PUBLIC "-//W3C//DTD SVG 20010904//EN"
 "http://www.w3.org/TR/2001/REC-SVG-20010904/DTD/svg10.dtd">
<svg version="1.0" xmlns="http://www.w3.org/2000/svg"
 width="51.000000pt" height="68.000000pt" viewBox="0 0 51.000000 68.000000"
 preserveAspectRatio="xMidYMid meet">
<metadata>
Created by potrace 1.16, written by Peter Selinger 2001-2019
</metadata>
<g transform="translate(0.000000,68.000000) scale(0.100000,-0.100000)"
fill="#000000" stroke="none">
<path d="M221 666 l-14 -16 5 -48 6 -47 -5 -12 -5 -13 -104 0 -104 0 0 -68 0
-68 14 -19 14 -19 37 11 37 12 23 -9 24 -9 10 -20 11 -20 0 -29 0 -29 -17 -15
-18 -15 -16 -6 -17 -5 -11 11 -11 11 -11 -11 -10 -10 -23 -92 -22 -91 10 -10
10 -10 79 0 79 0 -6 16 -6 16 -6 38 -6 38 21 21 21 21 38 0 39 0 17 -19 17
-19 -3 -63 -3 -64 40 -3 40 -4 58 13 58 12 -5 14 -6 15 0 239 0 239 -73 0 -73
0 -18 13 -18 13 13 43 12 42 -15 15 -15 16 -40 5 -39 5 -13 -16z"/>
</g>
</svg>
