<?xml version="1.0" standalone="no"?>
<!DOCTYPE svg PUBLIC "-//W3C//DTD SVG 20010904//EN"
 "http://www.w3.org/TR/2001/REC-SVG-20010904/DTD/svg10.dtd">
<svg version="1.0" xmlns="http://www.w3.org/2000/svg"
 width="68.000000pt" height="69.000000pt" viewBox="0 0 68.000000 69.000000"
 preserveAspectRatio="xMidYMid meet">
<metadata>
Created by potrace 1.16, written by Peter Selinger 2001-2019
</metadata>
<g transform="translate(0.000000,69.000000) scale(0.100000,-0.100000)"
fill="#000000" stroke="none">
<path d="M189 669 l-21 -21 6 -19 6 -19 6 -20 6 -20 -27 -10 -26 -10 -63 0
-63 0 -7 -31 -6 -31 0 -70 0 -70 27 8 28 8 32 0 33 0 20 -19 20 -18 0 -27 0
-27 -19 -17 -20 -18 -52 7 -51 7 -9 -13 -9 -14 0 -103 0 -102 88 4 87 4 17 7
17 7 7 34 6 34 -6 26 -7 27 13 8 13 9 21 0 21 0 27 -21 26 -21 -6 -63 -7 -63
31 -7 31 -6 48 6 48 7 36 9 36 9 13 77 12 77 5 13 5 13 29 0 29 0 20 20 20 20
0 50 0 50 -21 21 -21 21 -55 -4 -55 -3 6 82 7 82 -33 5 -33 5 -59 5 -58 5 -6
6 -6 6 2 34 3 34 -21 21 -20 20 -50 0 -50 0 -21 -21z"/>
</g>
</svg>
