<?xml version="1.0" standalone="no"?>
<!DOCTYPE svg PUBLIC "-//W3C//DTD SVG 20010904//EN"
 "http://www.w3.org/TR/2001/REC-SVG-20010904/DTD/svg10.dtd">
<svg version="1.0" xmlns="http://www.w3.org/2000/svg"
 width="58.000000pt" height="55.000000pt" viewBox="0 0 58.000000 55.000000"
 preserveAspectRatio="xMidYMid meet">
<metadata>
Created by potrace 1.16, written by Peter Selinger 2001-2019
</metadata>
<g transform="translate(0.000000,55.000000) scale(0.100000,-0.100000)"
fill="#000000" stroke="none">
<path d="M0 445 l0 -106 38 8 37 7 23 -1 23 -1 20 -18 19 -17 0 -27 0 -27 -24
-22 -24 -23 -40 7 -40 7 -10 -19 -9 -18 -6 -88 -5 -87 82 0 81 0 25 13 25 13
0 63 0 62 18 10 17 10 20 -6 20 -6 13 -22 12 -22 0 -65 0 -65 55 -3 55 -3 55
8 54 8 23 65 24 65 -4 52 -4 53 -6 6 -6 7 -61 -12 -62 -12 -24 16 -25 16 3 22
3 22 61 -3 61 -4 8 19 8 18 4 103 3 102 -270 0 -270 0 0 -105z"/>
</g>
</svg>
