<?xml version="1.0" standalone="no"?>
<!DOCTYPE svg PUBLIC "-//W3C//DTD SVG 20010904//EN"
 "http://www.w3.org/TR/2001/REC-SVG-20010904/DTD/svg10.dtd">
<svg version="1.0" xmlns="http://www.w3.org/2000/svg"
 width="56.000000pt" height="53.000000pt" viewBox="0 0 56.000000 53.000000"
 preserveAspectRatio="xMidYMid meet">
<metadata>
Created by potrace 1.16, written by Peter Selinger 2001-2019
</metadata>
<g transform="translate(0.000000,53.000000) scale(0.100000,-0.100000)"
fill="#000000" stroke="none">
<path d="M0 436 l0 -94 41 9 41 10 22 -7 21 -6 17 -16 18 -15 0 -37 0 -37 -23
-21 -23 -22 -25 -1 -24 -2 -17 7 -16 8 -10 -19 -10 -18 -4 -78 -3 -77 70 0 70
0 25 13 25 13 -2 62 -3 63 24 11 25 11 25 -7 26 -6 15 -31 16 -30 -3 -57 -3
-57 65 0 65 1 35 5 35 5 23 65 23 64 -5 43 -4 43 -4 4 -4 4 -61 -11 -62 -11
-26 17 -26 17 3 32 3 32 61 -3 61 -3 8 18 8 18 2 93 3 92 -259 0 -259 0 0 -94z"/>
</g>
</svg>
