<?xml version="1.0" standalone="no"?>
<!DOCTYPE svg PUBLIC "-//W3C//DTD SVG 20010904//EN"
 "http://www.w3.org/TR/2001/REC-SVG-20010904/DTD/svg10.dtd">
<svg version="1.0" xmlns="http://www.w3.org/2000/svg"
 width="54.000000pt" height="54.000000pt" viewBox="0 0 54.000000 54.000000"
 preserveAspectRatio="xMidYMid meet">
<metadata>
Created by potrace 1.16, written by Peter Selinger 2001-2019
</metadata>
<g transform="translate(0.000000,54.000000) scale(0.100000,-0.100000)"
fill="#000000" stroke="none">
<path d="M13 533 l-13 -5 0 -82 0 -82 13 -19 14 -18 33 11 33 12 18 0 19 0 20
-20 20 -20 0 -29 0 -29 -14 -11 -14 -12 -36 6 -35 7 -10 -23 -10 -24 -21 -88
-22 -89 6 -6 6 -6 117 -4 116 -5 -7 24 -6 24 -6 25 -5 25 14 19 14 18 21 -6
22 -7 -2 -57 -3 -57 117 0 116 0 6 5 5 5 -10 75 -10 75 -10 38 -10 38 -32 -2
-32 -3 -13 8 -12 7 0 22 0 22 10 15 9 15 53 0 53 0 3 103 3 102 -13 0 -13 0
-91 -19 -91 -18 -12 -7 -12 -8 3 -31 3 -32 -49 -3 -49 -3 -9 9 -10 10 13 42
13 42 -19 14 -19 14 -80 -1 -81 -1 -12 -5z"/>
</g>
</svg>
