<?xml version="1.0" standalone="no"?>
<!DOCTYPE svg PUBLIC "-//W3C//DTD SVG 20010904//EN"
 "http://www.w3.org/TR/2001/REC-SVG-20010904/DTD/svg10.dtd">
<svg version="1.0" xmlns="http://www.w3.org/2000/svg"
 width="77.000000pt" height="52.000000pt" viewBox="0 0 77.000000 52.000000"
 preserveAspectRatio="xMidYMid meet">
<metadata>
Created by potrace 1.16, written by Peter Selinger 2001-2019
</metadata>
<g transform="translate(0.000000,52.000000) scale(0.100000,-0.100000)"
fill="#000000" stroke="none">
<path d="M145 508 l-5 -13 -2 -85 -3 -85 -35 3 -35 3 -21 -5 -21 -6 -11 -26
-12 -26 13 -26 13 -27 36 3 37 3 10 -38 10 -38 8 -65 8 -65 83 -9 83 -8 30 12
30 13 -7 16 -7 16 -4 21 -5 22 11 21 12 21 32 0 33 0 11 -11 11 -11 -5 -33 -5
-33 18 -6 19 -5 60 -10 60 -10 30 -6 30 -7 12 44 12 43 13 50 14 50 19 0 20 0
13 8 12 8 0 38 0 37 -14 19 -13 18 -46 -6 -47 -7 -6 26 -7 26 6 77 6 77 -62
-3 -62 -4 -32 -5 -33 -5 6 -44 6 -43 -30 -16 -31 -16 -23 0 -23 1 -19 14 -19
15 11 24 11 25 -17 21 -18 22 -44 9 -45 8 -38 1 -38 0 -4 -12z"/>
</g>
</svg>
