<?xml version="1.0" standalone="no"?>
<!DOCTYPE svg PUBLIC "-//W3C//DTD SVG 20010904//EN"
 "http://www.w3.org/TR/2001/REC-SVG-20010904/DTD/svg10.dtd">
<svg version="1.0" xmlns="http://www.w3.org/2000/svg"
 width="67.000000pt" height="55.000000pt" viewBox="0 0 67.000000 55.000000"
 preserveAspectRatio="xMidYMid meet">
<metadata>
Created by potrace 1.16, written by Peter Selinger 2001-2019
</metadata>
<g transform="translate(0.000000,55.000000) scale(0.100000,-0.100000)"
fill="#000000" stroke="none">
<path d="M183 543 l-13 -5 0 -58 0 -59 -11 -24 -11 -25 -24 -12 -23 -13 -32
13 -32 14 -18 -23 -19 -23 0 -27 0 -27 15 -21 15 -22 34 6 34 5 27 -88 26 -89
4 -15 5 -15 99 3 99 3 18 20 18 20 -12 31 -12 31 11 14 11 13 29 0 29 0 21
-21 21 -21 -7 -58 -7 -58 21 -7 21 -6 33 6 32 6 43 11 42 11 0 2 0 2 -16 33
-17 33 -17 66 -16 66 -45 0 -44 0 -9 37 -9 37 12 41 12 41 52 -6 52 -6 11 8
11 8 12 22 11 22 0 51 0 52 -67 -7 -68 -6 -33 -5 -34 -5 7 -38 6 -38 -16 -17
-16 -16 -17 -1 -17 -1 -15 2 -15 2 -23 26 -24 27 6 43 6 42 -78 -1 -77 -1 -12
-5z"/>
</g>
</svg>
