<?xml version="1.0" standalone="no"?>
<!DOCTYPE svg PUBLIC "-//W3C//DTD SVG 20010904//EN"
 "http://www.w3.org/TR/2001/REC-SVG-20010904/DTD/svg10.dtd">
<svg version="1.0" xmlns="http://www.w3.org/2000/svg"
 width="67.000000pt" height="53.000000pt" viewBox="0 0 67.000000 53.000000"
 preserveAspectRatio="xMidYMid meet">
<metadata>
Created by potrace 1.16, written by Peter Selinger 2001-2019
</metadata>
<g transform="translate(0.000000,53.000000) scale(0.100000,-0.100000)"
fill="#000000" stroke="none">
<path d="M157 523 l-17 -4 6 -54 7 -53 -7 -35 -7 -35 -16 -6 -16 -6 -33 12
-34 12 -16 -16 -16 -16 0 -50 0 -50 7 -12 7 -12 35 7 35 6 13 -18 14 -18 6
-62 7 -62 12 -15 11 -15 99 -9 98 -8 -5 49 -6 48 6 30 6 30 23 15 23 15 21
-11 22 -12 -7 -48 -7 -49 39 -9 38 -10 60 -12 60 -12 9 -1 10 -2 13 50 13 50
0 37 0 37 -10 6 -11 7 -14 -12 -15 -12 -34 6 -35 7 -21 26 -20 26 0 36 1 36
15 20 15 20 46 0 46 0 10 28 9 28 -7 55 -7 55 -76 -3 -77 -3 3 -47 4 -48 -30
-30 -30 -30 -36 0 -35 0 -12 22 -11 21 5 59 5 58 -86 -1 -87 -1 -18 -5z"/>
</g>
</svg>
