<?xml version="1.0" standalone="no"?>
<!DOCTYPE svg PUBLIC "-//W3C//DTD SVG 20010904//EN"
 "http://www.w3.org/TR/2001/REC-SVG-20010904/DTD/svg10.dtd">
<svg version="1.0" xmlns="http://www.w3.org/2000/svg"
 width="69.000000pt" height="55.000000pt" viewBox="0 0 69.000000 55.000000"
 preserveAspectRatio="xMidYMid meet">
<metadata>
Created by potrace 1.16, written by Peter Selinger 2001-2019
</metadata>
<g transform="translate(0.000000,55.000000) scale(0.100000,-0.100000)"
fill="#000000" stroke="none">
<path d="M159 543 l-17 -4 2 -85 1 -85 -14 -9 -15 -9 -17 10 -18 9 -24 0 -25
0 -12 -16 -13 -15 0 -58 0 -58 8 -12 8 -13 37 5 37 5 10 -18 11 -17 7 -59 8
-59 8 -17 9 -16 77 -7 78 -6 33 -5 32 -5 -2 74 -2 75 13 16 14 17 21 -3 21 -3
-3 -52 -4 -52 39 -9 38 -9 74 -17 74 -17 7 8 7 8 12 47 11 47 0 46 0 46 -16 6
-15 6 -23 -12 -22 -12 -26 10 -26 10 -16 23 -16 22 0 26 1 25 15 20 15 20 47
0 47 0 9 36 9 36 -7 57 -8 57 -86 -3 -87 -3 0 -53 0 -54 -28 -24 -28 -24 -24
0 -24 0 -12 21 -11 22 6 58 7 59 -98 -1 -98 -1 -16 -5z"/>
</g>
</svg>
