<?xml version="1.0" standalone="no"?>
<!DOCTYPE svg PUBLIC "-//W3C//DTD SVG 20010904//EN"
 "http://www.w3.org/TR/2001/REC-SVG-20010904/DTD/svg10.dtd">
<svg version="1.0" xmlns="http://www.w3.org/2000/svg"
 width="80.000000pt" height="70.000000pt" viewBox="0 0 80.000000 70.000000"
 preserveAspectRatio="xMidYMid meet">
<metadata>
Created by potrace 1.16, written by Peter Selinger 2001-2019
</metadata>
<g transform="translate(0.000000,70.000000) scale(0.100000,-0.100000)"
fill="#000000" stroke="none">
<path d="M435 690 l-7 -11 12 -14 12 -15 -6 -35 -7 -35 -24 -16 -25 -16 -35 6
-34 7 -10 16 -9 17 11 17 10 16 -6 16 -6 16 -38 10 -38 11 -37 0 -36 0 -16 -6
-16 -6 0 -49 0 -50 -15 -36 -15 -36 -40 7 -39 6 -11 -19 -10 -20 0 -39 0 -40
19 -23 19 -24 39 0 38 0 3 -75 3 -74 11 -13 10 -13 89 0 88 0 -6 -63 -6 -64
24 -21 23 -22 32 0 33 0 16 16 16 17 -5 13 -6 14 -6 15 -6 15 24 9 23 9 87 27
87 27 12 57 11 56 12 50 11 50 32 -3 32 -3 21 11 20 11 0 38 0 39 -25 16 -26
17 -37 -10 -37 -11 -14 15 -15 14 1 84 2 83 -70 12 -69 12 -35 0 -34 0 -6 -10z"/>
</g>
</svg>
