<?xml version="1.0" standalone="no"?>
<!DOCTYPE svg PUBLIC "-//W3C//DTD SVG 20010904//EN"
 "http://www.w3.org/TR/2001/REC-SVG-20010904/DTD/svg10.dtd">
<svg version="1.0" xmlns="http://www.w3.org/2000/svg"
 width="82.000000pt" height="72.000000pt" viewBox="0 0 82.000000 72.000000"
 preserveAspectRatio="xMidYMid meet">
<metadata>
Created by potrace 1.16, written by Peter Selinger 2001-2019
</metadata>
<g transform="translate(0.000000,72.000000) scale(0.100000,-0.100000)"
fill="#000000" stroke="none">
<path d="M433 704 l-6 -15 12 -23 12 -22 -10 -27 -11 -27 -22 -11 -23 -10 -25
9 -25 9 0 44 0 44 -35 12 -35 12 -52 0 -51 1 -16 -6 -16 -6 0 -49 0 -50 -15
-35 -14 -34 -40 6 -39 6 -11 -20 -11 -21 0 -51 0 -51 25 -25 26 -25 32 3 32 3
3 -75 3 -74 11 -13 10 -13 87 0 87 0 -4 -64 -4 -63 23 -22 23 -21 42 0 43 0
16 17 17 16 -7 33 -6 33 43 11 43 11 62 21 62 21 10 46 10 46 11 58 11 57 35
0 35 0 20 10 19 11 0 48 0 49 -25 16 -26 17 -43 -6 -44 -7 -7 12 -8 12 2 82 1
82 -70 12 -70 12 -45 0 -46 0 -6 -16z"/>
</g>
</svg>
