<?xml version="1.0" standalone="no"?>
<!DOCTYPE svg PUBLIC "-//W3C//DTD SVG 20010904//EN"
 "http://www.w3.org/TR/2001/REC-SVG-20010904/DTD/svg10.dtd">
<svg version="1.0" xmlns="http://www.w3.org/2000/svg"
 width="66.000000pt" height="71.000000pt" viewBox="0 0 66.000000 71.000000"
 preserveAspectRatio="xMidYMid meet">
<metadata>
Created by potrace 1.16, written by Peter Selinger 2001-2019
</metadata>
<g transform="translate(0.000000,71.000000) scale(0.100000,-0.100000)"
fill="#000000" stroke="none">
<path d="M72 703 l-72 -4 0 -267 0 -267 80 0 79 0 18 -18 18 -18 0 -62 0 -62
51 -3 50 -3 19 21 20 22 -1 58 -1 59 21 5 21 6 73 0 72 0 10 25 10 26 10 67
10 67 11 22 12 21 23 -10 23 -11 16 13 15 12 0 30 0 29 -10 18 -9 18 -31 13
-30 13 -34 -6 -33 -5 5 89 5 89 -90 0 -89 0 -20 -14 -19 -14 11 -31 12 -30
-12 -15 -11 -15 -25 -6 -26 -6 -28 26 -29 26 6 50 6 49 -32 -2 -32 -2 -73 -3z"/>
</g>
</svg>
