<?xml version="1.0" standalone="no"?>
<!DOCTYPE svg PUBLIC "-//W3C//DTD SVG 20010904//EN"
 "http://www.w3.org/TR/2001/REC-SVG-20010904/DTD/svg10.dtd">
<svg version="1.0" xmlns="http://www.w3.org/2000/svg"
 width="53.000000pt" height="65.000000pt" viewBox="0 0 53.000000 65.000000"
 preserveAspectRatio="xMidYMid meet">
<metadata>
Created by potrace 1.16, written by Peter Selinger 2001-2019
</metadata>
<g transform="translate(0.000000,65.000000) scale(0.100000,-0.100000)"
fill="#000000" stroke="none">
<path d="M105 641 l-80 -7 -12 -7 -13 -8 0 -79 0 -79 16 -9 16 -9 39 11 38 10
26 -24 25 -23 0 -31 0 -31 -9 -13 -8 -13 -36 6 -35 7 -10 -19 -10 -18 -7 -45
-7 -45 -14 -34 -14 -35 12 -8 13 -8 67 0 67 0 27 -10 26 -10 -6 -41 -7 -41 12
-14 11 -14 42 0 41 0 23 7 24 6 -6 29 -6 29 23 8 22 9 68 17 67 17 0 7 0 7
-10 10 -9 9 -3 75 -3 75 -38 0 -39 0 -19 24 -19 23 0 40 0 39 10 20 11 19 39
-6 40 -7 15 36 15 36 0 50 0 49 -57 -14 -58 -13 -25 -5 -25 -6 -12 -8 -13 -8
12 -32 12 -31 -19 -20 -18 -21 -42 0 -42 0 -22 24 -23 24 4 66 3 66 -5 -2 -5
-1 -80 -6z"/>
</g>
</svg>
