<?xml version="1.0" standalone="no"?>
<!DOCTYPE svg PUBLIC "-//W3C//DTD SVG 20010904//EN"
 "http://www.w3.org/TR/2001/REC-SVG-20010904/DTD/svg10.dtd">
<svg version="1.0" xmlns="http://www.w3.org/2000/svg"
 width="54.000000pt" height="54.000000pt" viewBox="0 0 54.000000 54.000000"
 preserveAspectRatio="xMidYMid meet">
<metadata>
Created by potrace 1.16, written by Peter Selinger 2001-2019
</metadata>
<g transform="translate(0.000000,54.000000) scale(0.100000,-0.100000)"
fill="#000000" stroke="none">
<path d="M340 531 l-15 -10 12 -31 12 -31 -6 -17 -7 -17 -23 -22 -24 -23 -30
0 -30 0 -20 11 -20 10 6 55 7 54 -27 10 -26 10 -64 0 -64 0 -7 -11 -7 -12 -1
-84 0 -83 16 -17 17 -16 38 10 39 10 22 -15 22 -14 0 -29 0 -28 -19 -11 -19
-10 -30 6 -30 6 -6 -10 -6 -10 -20 -99 -20 -98 0 -7 0 -8 94 0 94 0 13 17 14
16 -2 49 -2 49 22 8 21 8 26 -7 25 -6 3 -31 3 -32 12 -9 12 -9 65 -17 65 -17
23 -6 22 -5 0 22 0 22 -26 84 -25 84 -40 0 -39 0 -12 26 -12 26 15 26 16 27
14 -4 14 -4 23 -5 23 -5 24 13 23 12 11 25 11 24 0 69 0 69 -9 5 -9 6 -83 5
-84 6 -15 -10z"/>
</g>
</svg>
