<?xml version="1.0" standalone="no"?>
<!DOCTYPE svg PUBLIC "-//W3C//DTD SVG 20010904//EN"
 "http://www.w3.org/TR/2001/REC-SVG-20010904/DTD/svg10.dtd">
<svg version="1.0" xmlns="http://www.w3.org/2000/svg"
 width="52.000000pt" height="52.000000pt" viewBox="0 0 52.000000 52.000000"
 preserveAspectRatio="xMidYMid meet">
<metadata>
Created by potrace 1.16, written by Peter Selinger 2001-2019
</metadata>
<g transform="translate(0.000000,52.000000) scale(0.100000,-0.100000)"
fill="#000000" stroke="none">
<path d="M341 512 l-13 -9 12 -23 12 -22 -7 -26 -6 -26 -25 -23 -25 -23 -40 0
-40 0 -21 11 -21 11 7 54 6 54 -26 10 -25 10 -54 0 -54 0 -7 -11 -6 -11 -1
-74 0 -75 14 -14 14 -15 37 11 37 10 26 -17 25 -16 0 -39 0 -38 -21 -12 -21
-11 -29 6 -28 5 -6 -9 -6 -9 -15 -78 -14 -78 -6 -17 -5 -18 84 0 85 0 12 15
13 16 -1 27 -2 27 -2 20 -3 19 27 14 28 13 39 -11 40 -11 -5 -27 -6 -28 14
-11 13 -10 60 -15 60 -16 18 -7 17 -7 0 12 0 12 -26 85 -26 85 -34 -5 -34 -6
-15 22 -15 21 0 27 0 27 19 23 18 23 32 -14 32 -13 23 13 24 12 11 25 11 24 0
59 0 59 -8 5 -8 5 -75 6 -74 6 -14 -9z"/>
</g>
</svg>
