<?xml version="1.0" standalone="no"?>
<!DOCTYPE svg PUBLIC "-//W3C//DTD SVG 20010904//EN"
 "http://www.w3.org/TR/2001/REC-SVG-20010904/DTD/svg10.dtd">
<svg version="1.0" xmlns="http://www.w3.org/2000/svg"
 width="87.000000pt" height="56.000000pt" viewBox="0 0 87.000000 56.000000"
 preserveAspectRatio="xMidYMid meet">
<metadata>
Created by potrace 1.16, written by Peter Selinger 2001-2019
</metadata>
<g transform="translate(0.000000,56.000000) scale(0.100000,-0.100000)"
fill="#000000" stroke="none">
<path d="M171 473 l4 -88 -33 3 -34 2 -38 -10 -39 -11 -16 -22 -15 -21 0 -28
0 -28 32 -21 33 -20 60 3 60 3 0 -55 -1 -55 -8 -47 -8 -48 103 0 104 1 19 14
19 14 -6 54 -5 55 11 11 11 11 13 0 12 0 21 -22 20 -22 -6 -73 -7 -73 62 0 62
0 44 11 44 11 5 15 6 15 -15 60 -16 59 5 17 6 17 74 -3 74 -4 21 21 21 21 0
69 0 69 -15 12 -15 12 -67 -3 -68 -4 -3 83 -3 82 -265 0 -266 0 3 -87z"/>
</g>
</svg>
