<?xml version="1.0" standalone="no"?>
<!DOCTYPE svg PUBLIC "-//W3C//DTD SVG 20010904//EN"
 "http://www.w3.org/TR/2001/REC-SVG-20010904/DTD/svg10.dtd">
<svg version="1.0" xmlns="http://www.w3.org/2000/svg"
 width="85.000000pt" height="54.000000pt" viewBox="0 0 85.000000 54.000000"
 preserveAspectRatio="xMidYMid meet">
<metadata>
Created by potrace 1.16, written by Peter Selinger 2001-2019
</metadata>
<g transform="translate(0.000000,54.000000) scale(0.100000,-0.100000)"
fill="#000000" stroke="none">
<path d="M174 462 l7 -78 -6 -16 -6 -16 -32 9 -31 9 -38 -10 -37 -11 -16 -22
-15 -21 0 -18 0 -18 33 -20 32 -21 60 3 60 3 0 -65 0 -65 -8 -37 -8 -38 93 0
93 1 19 14 19 14 -7 51 -7 52 12 14 11 14 24 0 23 0 21 -22 22 -23 -7 -72 -7
-73 54 0 53 0 40 11 40 11 6 10 6 10 -15 59 -14 58 6 25 6 24 74 -5 73 -6 22
22 21 21 0 59 0 59 -15 12 -15 13 -64 -7 -65 -6 -6 10 -7 11 1 75 1 74 -256 0
-257 0 7 -78z"/>
</g>
</svg>
