<?xml version="1.0" standalone="no"?>
<!DOCTYPE svg PUBLIC "-//W3C//DTD SVG 20010904//EN"
 "http://www.w3.org/TR/2001/REC-SVG-20010904/DTD/svg10.dtd">
<svg version="1.0" xmlns="http://www.w3.org/2000/svg"
 width="54.000000pt" height="69.000000pt" viewBox="0 0 54.000000 69.000000"
 preserveAspectRatio="xMidYMid meet">
<metadata>
Created by potrace 1.16, written by Peter Selinger 2001-2019
</metadata>
<g transform="translate(0.000000,69.000000) scale(0.100000,-0.100000)"
fill="#000000" stroke="none">
<path d="M326 681 l-8 -12 7 -47 6 -47 -15 -20 -14 -20 -47 2 -46 2 -14 11
-15 12 11 20 10 19 -3 31 -3 32 -25 6 -25 7 -66 -5 -67 -4 -6 -37 -6 -36 0
-58 0 -58 54 6 54 7 21 -21 21 -21 0 -30 0 -30 -19 -19 -19 -19 -26 5 -25 5
-10 -23 -10 -24 -12 -60 -11 -60 -2 -20 -1 -20 78 0 77 0 0 -63 0 -63 37 -16
37 -15 49 6 49 7 15 15 15 15 -4 30 -5 29 26 6 26 6 58 14 59 14 4 0 4 0 0 20
0 20 -10 0 -10 0 -1 58 -1 57 -7 25 -7 25 -57 -3 -56 -3 -10 20 -11 20 0 38 0
39 20 22 21 22 19 -10 19 -10 25 0 25 0 15 22 16 22 0 72 0 72 -16 6 -16 6
-82 6 -83 7 -7 -12z"/>
</g>
</svg>
