<?xml version="1.0" standalone="no"?>
<!DOCTYPE svg PUBLIC "-//W3C//DTD SVG 20010904//EN"
 "http://www.w3.org/TR/2001/REC-SVG-20010904/DTD/svg10.dtd">
<svg version="1.0" xmlns="http://www.w3.org/2000/svg"
 width="52.000000pt" height="67.000000pt" viewBox="0 0 52.000000 67.000000"
 preserveAspectRatio="xMidYMid meet">
<metadata>
Created by potrace 1.16, written by Peter Selinger 2001-2019
</metadata>
<g transform="translate(0.000000,67.000000) scale(0.100000,-0.100000)"
fill="#000000" stroke="none">
<path d="M328 664 l-8 -7 6 -51 6 -51 -15 -20 -15 -20 -57 1 -57 2 -16 15 -16
16 12 26 12 26 0 19 0 19 -11 7 -11 6 -71 -1 -71 -1 -4 -4 -4 -4 -5 -81 -6
-80 55 6 55 6 22 -22 21 -21 0 -40 0 -40 -21 -21 -21 -21 -24 6 -24 6 -10 -22
-9 -23 -10 -55 -9 -55 -4 -15 -3 -15 80 2 81 1 -4 -64 -4 -64 37 -16 38 -15
40 7 41 6 14 14 14 14 -7 30 -6 29 28 7 28 6 59 14 60 15 5 6 6 6 -12 4 -13 5
-1 56 -1 57 -7 25 -7 25 -56 -3 -56 -4 -11 20 -11 21 0 48 0 49 20 22 21 22 6
0 7 0 34 -12 34 -13 19 24 19 23 0 63 0 63 -15 5 -14 6 -73 7 -73 6 -7 -8z"/>
</g>
</svg>
