<?xml version="1.0" standalone="no"?>
<!DOCTYPE svg PUBLIC "-//W3C//DTD SVG 20010904//EN"
 "http://www.w3.org/TR/2001/REC-SVG-20010904/DTD/svg10.dtd">
<svg version="1.0" xmlns="http://www.w3.org/2000/svg"
 width="57.000000pt" height="68.000000pt" viewBox="0 0 57.000000 68.000000"
 preserveAspectRatio="xMidYMid meet">
<metadata>
Created by potrace 1.16, written by Peter Selinger 2001-2019
</metadata>
<g transform="translate(0.000000,68.000000) scale(0.100000,-0.100000)"
fill="#000000" stroke="none">
<path d="M371 671 l-15 -10 11 -24 12 -25 -6 -23 -6 -24 -15 -23 -15 -24 -25
-9 -24 -9 -34 6 -34 6 -22 30 -21 30 10 44 10 43 -14 6 -15 5 -38 0 -37 0 -32
-6 -31 -6 0 -80 0 -79 11 -21 11 -20 44 7 44 6 11 -25 12 -24 -7 -37 -7 -36
-24 -11 -24 -11 -41 11 -40 10 -11 -19 -10 -19 7 -38 6 -37 9 -37 10 -38 77 0
77 0 25 -13 25 -14 -3 -14 -4 -14 -5 -33 -6 -32 18 -20 18 -20 24 0 24 0 18
10 19 9 6 16 6 16 -10 19 -10 19 22 15 23 14 48 7 48 6 36 13 36 12 3 15 2 14
11 67 11 66 -9 26 -10 25 -69 -6 -68 -6 -22 27 -21 27 8 22 9 22 48 -3 49 -3
25 26 25 27 3 77 4 78 -14 6 -15 5 -64 6 -64 7 -14 -10z"/>
</g>
</svg>
