<?xml version="1.0" standalone="no"?>
<!DOCTYPE svg PUBLIC "-//W3C//DTD SVG 20010904//EN"
 "http://www.w3.org/TR/2001/REC-SVG-20010904/DTD/svg10.dtd">
<svg version="1.0" xmlns="http://www.w3.org/2000/svg"
 width="81.000000pt" height="54.000000pt" viewBox="0 0 81.000000 54.000000"
 preserveAspectRatio="xMidYMid meet">
<metadata>
Created by potrace 1.16, written by Peter Selinger 2001-2019
</metadata>
<g transform="translate(0.000000,54.000000) scale(0.100000,-0.100000)"
fill="#000000" stroke="none">
<path d="M501 532 l-13 -10 7 -23 8 -24 -1 -30 -1 -30 -22 -17 -21 -18 -40 0
-39 0 -19 10 -20 10 6 44 6 43 -23 17 -23 16 -67 0 -67 0 -3 -79 -4 -79 -25
-27 -25 -26 -49 3 -48 3 -9 -22 -8 -22 21 -27 22 -27 68 6 69 6 10 -25 9 -26
-10 -66 -11 -65 -5 -8 -5 -8 22 -11 21 -12 55 7 55 7 19 19 19 19 0 14 0 13
-12 33 -11 33 18 14 19 13 27 0 27 0 11 -14 12 -14 9 -31 8 -30 -11 -36 -11
-36 15 -10 14 -10 99 6 100 5 3 4 4 4 -16 77 -16 77 6 19 6 19 53 -6 54 -6 21
21 21 21 0 48 0 47 -10 15 -9 15 -43 0 -42 0 -13 25 -13 25 0 51 0 52 -16 6
-16 6 -66 6 -67 5 -14 -9z"/>
</g>
</svg>
