<?xml version="1.0" standalone="no"?>
<!DOCTYPE svg PUBLIC "-//W3C//DTD SVG 20010904//EN"
 "http://www.w3.org/TR/2001/REC-SVG-20010904/DTD/svg10.dtd">
<svg version="1.0" xmlns="http://www.w3.org/2000/svg"
 width="83.000000pt" height="56.000000pt" viewBox="0 0 83.000000 56.000000"
 preserveAspectRatio="xMidYMid meet">
<metadata>
Created by potrace 1.16, written by Peter Selinger 2001-2019
</metadata>
<g transform="translate(0.000000,56.000000) scale(0.100000,-0.100000)"
fill="#000000" stroke="none">
<path d="M502 554 l-13 -6 7 -58 6 -57 -23 -17 -23 -16 -31 0 -30 0 -15 10
-14 9 3 44 2 45 -23 16 -22 16 -77 0 -77 0 -3 -79 -4 -79 -24 -26 -25 -26 -49
2 -50 3 -10 -29 -9 -28 19 -27 20 -26 73 -1 73 0 7 -20 8 -19 -10 -60 -11 -60
-1 -20 -1 -19 26 -9 26 -10 57 7 58 8 20 20 20 20 -5 37 -5 36 -3 14 -4 15 29
10 28 11 20 -25 20 -24 -7 -63 -7 -62 27 -7 27 -7 96 7 96 7 5 4 4 5 -15 82
-16 81 4 12 5 12 53 -5 54 -4 21 21 21 21 0 56 0 55 -11 20 -10 20 -42 -3 -41
-3 -13 25 -13 25 0 51 0 52 -17 6 -17 7 -76 4 -75 5 -13 -6z"/>
</g>
</svg>
