<?xml version="1.0" standalone="no"?>
<!DOCTYPE svg PUBLIC "-//W3C//DTD SVG 20010904//EN"
 "http://www.w3.org/TR/2001/REC-SVG-20010904/DTD/svg10.dtd">
<svg version="1.0" xmlns="http://www.w3.org/2000/svg"
 width="70.000000pt" height="70.000000pt" viewBox="0 0 70.000000 70.000000"
 preserveAspectRatio="xMidYMid meet">
<metadata>
Created by potrace 1.16, written by Peter Selinger 2001-2019
</metadata>
<g transform="translate(0.000000,70.000000) scale(0.100000,-0.100000)"
fill="#000000" stroke="none">
<path d="M188 693 l-18 -4 0 -98 0 -97 -58 4 -58 4 -29 -24 -28 -24 7 -38 7
-37 32 -20 32 -20 36 5 37 6 6 -16 6 -16 0 -61 0 -62 8 -12 8 -12 94 -3 95 -3
-3 -60 -3 -60 21 -23 21 -22 22 0 22 0 24 19 24 18 -5 46 -5 46 13 5 13 5 63
6 63 7 32 9 32 10 -5 67 -5 67 -5 32 -5 33 -24 6 -23 6 -21 -12 -21 -11 -26
26 -25 25 3 28 3 27 47 -3 46 -4 21 11 20 11 11 38 11 37 -3 65 -3 65 -110 0
-110 0 3 -57 3 -57 -11 -21 -11 -20 -27 0 -27 0 -11 8 -11 7 -12 23 -12 23 7
55 6 54 -83 -1 -84 -1 -17 -5z"/>
</g>
</svg>
