<?xml version="1.0" standalone="no"?>
<!DOCTYPE svg PUBLIC "-//W3C//DTD SVG 20010904//EN"
 "http://www.w3.org/TR/2001/REC-SVG-20010904/DTD/svg10.dtd">
<svg version="1.0" xmlns="http://www.w3.org/2000/svg"
 width="68.000000pt" height="65.000000pt" viewBox="0 0 68.000000 65.000000"
 preserveAspectRatio="xMidYMid meet">
<metadata>
Created by potrace 1.16, written by Peter Selinger 2001-2019
</metadata>
<g transform="translate(0.000000,65.000000) scale(0.100000,-0.100000)"
fill="#000000" stroke="none">
<path d="M90 641 l-55 -6 -4 -103 -3 -103 38 7 39 8 19 -2 19 -1 8 -13 9 -13
0 -21 0 -21 -24 -22 -24 -23 -24 1 -23 0 -30 3 -30 3 -3 -46 -3 -46 15 -43 15
-44 -6 -9 -6 -10 115 5 115 4 -4 -45 -4 -46 13 -25 13 -25 27 -3 27 -3 21 21
22 22 -4 46 -3 47 95 5 95 5 -2 10 -1 10 -7 61 -6 61 7 27 6 27 53 -6 52 -7
17 23 16 23 0 21 0 21 -21 23 -22 23 -26 -5 -26 -6 -20 -3 -20 -3 3 98 2 97
-37 -1 -38 0 -48 -8 -47 -8 -7 -6 -6 -7 11 -25 11 -25 -5 -15 -6 -14 -21 -7
-21 -7 -38 0 -38 0 -15 13 -16 13 7 43 6 44 -13 4 -14 4 -35 5 -35 4 -55 -6z"/>
</g>
</svg>
