<?xml version="1.0" standalone="no"?>
<!DOCTYPE svg PUBLIC "-//W3C//DTD SVG 20010904//EN"
 "http://www.w3.org/TR/2001/REC-SVG-20010904/DTD/svg10.dtd">
<svg version="1.0" xmlns="http://www.w3.org/2000/svg"
 width="70.000000pt" height="67.000000pt" viewBox="0 0 70.000000 67.000000"
 preserveAspectRatio="xMidYMid meet">
<metadata>
Created by potrace 1.16, written by Peter Selinger 2001-2019
</metadata>
<g transform="translate(0.000000,67.000000) scale(0.100000,-0.100000)"
fill="#000000" stroke="none">
<path d="M89 663 l-56 -4 -2 -115 -2 -115 60 7 59 6 7 -22 7 -22 -23 -24 -22
-24 -56 3 -56 2 -3 -40 -4 -40 13 -68 12 -68 108 3 107 3 4 -57 4 -56 13 -16
13 -16 34 0 34 0 21 21 20 20 -2 47 -3 47 89 3 90 3 7 7 8 8 -11 63 -10 64 6
28 6 27 53 -5 53 -6 17 24 16 23 0 31 0 31 -22 23 -21 23 -49 -5 -50 -6 7 96
8 96 -86 -6 -85 -7 -17 -6 -17 -7 7 -42 6 -43 -16 -6 -17 -6 -37 0 -37 0 -11
11 -10 10 4 43 5 43 -8 6 -9 5 -50 4 -50 5 -56 -4z"/>
</g>
</svg>
