<?xml version="1.0" standalone="no"?>
<!DOCTYPE svg PUBLIC "-//W3C//DTD SVG 20010904//EN"
 "http://www.w3.org/TR/2001/REC-SVG-20010904/DTD/svg10.dtd">
<svg version="1.0" xmlns="http://www.w3.org/2000/svg"
 width="67.000000pt" height="67.000000pt" viewBox="0 0 67.000000 67.000000"
 preserveAspectRatio="xMidYMid meet">
<metadata>
Created by potrace 1.16, written by Peter Selinger 2001-2019
</metadata>
<g transform="translate(0.000000,67.000000) scale(0.100000,-0.100000)"
fill="#000000" stroke="none">
<path d="M60 663 l-35 -4 -6 -7 -7 -7 -6 -97 -7 -97 57 6 57 6 18 -24 19 -24
0 -20 0 -21 -17 -20 -16 -21 -29 11 -30 11 -12 -17 -13 -18 -7 -80 -7 -81 6
-10 6 -9 84 0 85 0 -10 -26 -10 -25 0 -29 0 -29 22 -15 22 -16 39 0 38 0 34
14 34 15 7 25 6 26 -4 40 -4 40 35 0 34 0 39 -12 39 -11 10 10 10 10 13 84 12
85 7 11 7 12 33 -6 33 -5 13 15 12 16 -3 43 -3 43 -70 1 -70 1 4 97 3 96 -12
0 -13 0 -36 -10 -36 -10 -43 -10 -43 -11 3 -37 3 -37 -48 -3 -49 -3 -15 13
-15 12 6 58 6 58 -73 -2 -72 -1 -35 -4z"/>
</g>
</svg>
