<?xml version="1.0" standalone="no"?>
<!DOCTYPE svg PUBLIC "-//W3C//DTD SVG 20010904//EN"
 "http://www.w3.org/TR/2001/REC-SVG-20010904/DTD/svg10.dtd">
<svg version="1.0" xmlns="http://www.w3.org/2000/svg"
 width="64.000000pt" height="68.000000pt" viewBox="0 0 64.000000 68.000000"
 preserveAspectRatio="xMidYMid meet">
<metadata>
Created by potrace 1.16, written by Peter Selinger 2001-2019
</metadata>
<g transform="translate(0.000000,68.000000) scale(0.100000,-0.100000)"
fill="#000000" stroke="none">
<path d="M336 672 l-5 -8 10 -14 9 -15 0 -23 0 -23 -15 -28 -14 -28 -30 -13
-30 -12 -30 7 -30 6 -12 15 -12 14 6 52 6 51 -86 -7 -87 -7 -8 -5 -8 -5 0 -78
0 -79 13 -10 12 -10 20 9 20 8 31 0 30 1 12 -12 12 -12 0 -36 0 -35 -10 -15
-9 -15 -38 0 -37 0 -22 -90 -23 -90 0 -12 -1 -13 64 0 63 0 31 -11 30 -10 7
-16 6 -16 -11 -11 -10 -10 0 -17 0 -18 22 -15 22 -16 25 0 25 0 23 26 23 27 6
35 7 35 -11 18 -11 17 14 12 15 12 62 -14 63 -15 15 -4 15 -4 0 85 0 85 9 13
8 13 39 -6 40 -7 14 12 14 11 6 29 6 30 -6 20 -6 19 -43 -5 -43 -6 -17 23 -16
23 0 83 0 82 -52 16 -52 15 -32 0 -33 0 -5 -8z"/>
</g>
</svg>
