<?xml version="1.0" standalone="no"?>
<!DOCTYPE svg PUBLIC "-//W3C//DTD SVG 20010904//EN"
 "http://www.w3.org/TR/2001/REC-SVG-20010904/DTD/svg10.dtd">
<svg version="1.0" xmlns="http://www.w3.org/2000/svg"
 width="53.000000pt" height="69.000000pt" viewBox="0 0 53.000000 69.000000"
 preserveAspectRatio="xMidYMid meet">
<metadata>
Created by potrace 1.16, written by Peter Selinger 2001-2019
</metadata>
<g transform="translate(0.000000,69.000000) scale(0.100000,-0.100000)"
fill="#000000" stroke="none">
<path d="M325 680 l-6 -9 7 -50 6 -50 -31 -19 -31 -19 -27 4 -28 5 3 42 4 43
-17 16 -16 17 -95 0 -94 0 0 -93 0 -93 13 -18 13 -18 40 11 39 11 12 0 12 0
15 -16 16 -15 0 -30 0 -30 -16 -24 -15 -24 -34 6 -33 5 -12 -43 -12 -44 -9
-29 -9 -29 0 -23 0 -24 90 0 90 0 0 -51 0 -50 10 -20 11 -19 49 0 50 0 21 21
20 20 -6 29 -6 28 68 11 68 12 19 5 18 6 -6 92 -7 91 -6 18 -5 19 -41 -6 -42
-6 -11 8 -11 7 -6 25 -6 25 6 37 5 37 43 -6 43 -5 20 20 20 20 7 51 7 50 -7
29 -6 29 -56 12 -56 11 -38 0 -38 0 -6 -10z"/>
</g>
</svg>
