<?xml version="1.0" standalone="no"?>
<!DOCTYPE svg PUBLIC "-//W3C//DTD SVG 20010904//EN"
 "http://www.w3.org/TR/2001/REC-SVG-20010904/DTD/svg10.dtd">
<svg version="1.0" xmlns="http://www.w3.org/2000/svg"
 width="51.000000pt" height="67.000000pt" viewBox="0 0 51.000000 67.000000"
 preserveAspectRatio="xMidYMid meet">
<metadata>
Created by potrace 1.16, written by Peter Selinger 2001-2019
</metadata>
<g transform="translate(0.000000,67.000000) scale(0.100000,-0.100000)"
fill="#000000" stroke="none">
<path d="M329 663 l-2 -8 -1 -54 -1 -55 -30 -18 -31 -17 -37 6 -36 5 5 42 6
42 -17 17 -16 17 -85 0 -84 0 0 -81 0 -80 10 -19 10 -19 32 10 33 9 22 0 22 0
15 -16 16 -15 0 -40 0 -40 -17 -25 -16 -26 -33 7 -33 6 -12 -43 -11 -43 -9
-29 -9 -29 0 -13 0 -14 94 0 93 0 -5 -49 -4 -48 11 -22 12 -21 39 0 40 0 20
20 20 20 -10 20 -11 20 5 9 6 9 67 11 68 12 18 5 19 6 -7 81 -6 82 -5 18 -6
18 -33 -7 -33 -6 -21 7 -20 6 -5 42 -6 42 8 35 8 35 15 -2 14 -2 27 -7 26 -6
20 20 19 19 7 46 7 45 -6 25 -7 25 -55 11 -56 11 -29 0 -28 0 -1 -7z"/>
</g>
</svg>
