<?xml version="1.0" standalone="no"?>
<!DOCTYPE svg PUBLIC "-//W3C//DTD SVG 20010904//EN"
 "http://www.w3.org/TR/2001/REC-SVG-20010904/DTD/svg10.dtd">
<svg version="1.0" xmlns="http://www.w3.org/2000/svg"
 width="70.000000pt" height="70.000000pt" viewBox="0 0 70.000000 70.000000"
 preserveAspectRatio="xMidYMid meet">
<metadata>
Created by potrace 1.16, written by Peter Selinger 2001-2019
</metadata>
<g transform="translate(0.000000,70.000000) scale(0.100000,-0.100000)"
fill="#000000" stroke="none">
<path d="M357 694 l-7 -8 6 -62 7 -62 -21 -11 -21 -11 -24 0 -24 0 -19 21 -19
21 2 50 2 50 -97 -4 -97 -4 -12 -7 -13 -8 0 -109 0 -109 21 -6 20 -7 30 12 29
12 25 -16 25 -16 0 -9 0 -9 -19 -23 -19 -24 -64 0 -63 0 -3 -50 -3 -50 11 -56
12 -57 57 5 56 5 35 -14 35 -15 0 -54 0 -54 48 -9 49 -10 16 11 17 10 15 29
14 29 1 52 0 53 35 0 35 -1 55 -19 55 -19 6 -1 6 0 5 85 6 85 11 14 12 14 41
-6 41 -5 14 18 13 19 0 52 0 52 -19 23 -19 24 -42 -11 -41 -12 -15 15 -14 14
0 75 0 74 -27 11 -28 11 -65 5 -65 5 -8 -8z"/>
</g>
</svg>
