<?xml version="1.0" standalone="no"?>
<!DOCTYPE svg PUBLIC "-//W3C//DTD SVG 20010904//EN"
 "http://www.w3.org/TR/2001/REC-SVG-20010904/DTD/svg10.dtd">
<svg version="1.0" xmlns="http://www.w3.org/2000/svg"
 width="82.000000pt" height="55.000000pt" viewBox="0 0 82.000000 55.000000"
 preserveAspectRatio="xMidYMid meet">
<metadata>
Created by potrace 1.16, written by Peter Selinger 2001-2019
</metadata>
<g transform="translate(0.000000,55.000000) scale(0.100000,-0.100000)"
fill="#000000" stroke="none">
<path d="M149 545 l-1 -5 -3 -87 -2 -88 -7 -17 -8 -18 -61 3 -62 2 0 -45 0
-44 27 -15 26 -15 61 10 61 10 6 -31 6 -31 -21 -62 -21 -61 0 -14 0 -14 53 -7
52 -6 36 0 35 0 19 14 19 14 -13 42 -12 41 12 15 11 14 33 0 33 0 13 -17 14
-16 0 -56 0 -56 58 -3 59 -3 54 11 54 11 0 7 0 7 -19 56 -19 57 -2 28 -2 29 1
12 1 12 69 -6 68 -6 22 22 21 21 0 43 0 43 -12 12 -12 12 -64 0 -64 0 4 90 4
90 -263 0 -263 0 -1 -5z"/>
</g>
</svg>
