<?xml version="1.0" standalone="no"?>
<!DOCTYPE svg PUBLIC "-//W3C//DTD SVG 20010904//EN"
 "http://www.w3.org/TR/2001/REC-SVG-20010904/DTD/svg10.dtd">
<svg version="1.0" xmlns="http://www.w3.org/2000/svg"
 width="80.000000pt" height="53.000000pt" viewBox="0 0 80.000000 53.000000"
 preserveAspectRatio="xMidYMid meet">
<metadata>
Created by potrace 1.16, written by Peter Selinger 2001-2019
</metadata>
<g transform="translate(0.000000,53.000000) scale(0.100000,-0.100000)"
fill="#000000" stroke="none">
<path d="M149 528 l0 -3 -3 -90 -3 -90 -8 -18 -8 -18 -61 3 -61 3 -3 -32 -3
-32 26 -17 26 -17 62 11 61 11 4 -3 4 -4 5 -39 5 -38 -22 -64 -21 -63 3 -4 3
-3 75 -6 75 -7 17 14 17 13 -11 42 -12 41 13 16 13 16 43 0 42 0 18 -20 18
-19 -2 -23 -2 -23 -2 -30 -2 -30 48 -3 48 -3 53 11 53 11 -14 41 -14 42 -10
49 -9 49 10 18 10 19 32 -10 33 -9 32 0 33 0 20 20 20 20 0 34 0 34 -15 12
-15 12 -61 -4 -60 -4 3 93 3 93 -252 0 -253 0 -1 -2z"/>
</g>
</svg>
