<?xml version="1.0" standalone="no"?>
<!DOCTYPE svg PUBLIC "-//W3C//DTD SVG 20010904//EN"
 "http://www.w3.org/TR/2001/REC-SVG-20010904/DTD/svg10.dtd">
<svg version="1.0" xmlns="http://www.w3.org/2000/svg"
 width="88.000000pt" height="82.000000pt" viewBox="0 0 88.000000 82.000000"
 preserveAspectRatio="xMidYMid meet">
<metadata>
Created by potrace 1.16, written by Peter Selinger 2001-2019
</metadata>
<g transform="translate(0.000000,82.000000) scale(0.100000,-0.100000)"
fill="#000000" stroke="none">
<path d="M362 808 l-12 -12 0 -32 0 -33 10 -27 11 -27 -10 -10 -9 -9 -86 1
-86 1 0 -87 0 -88 -60 3 -61 4 -23 -16 -24 -15 -6 -34 -6 -35 10 -27 10 -28
46 6 45 5 8 -17 8 -16 23 -98 23 -98 21 5 21 6 78 6 77 7 0 -60 0 -61 14 -11
14 -12 69 3 68 3 0 38 0 38 40 10 40 9 42 11 42 11 6 17 5 16 -15 49 -15 49 0
34 0 33 25 -6 25 -6 45 6 45 7 30 25 30 26 0 29 0 30 -25 24 -24 25 -67 0 -67
0 7 85 7 85 -24 0 -24 0 -43 -15 -43 -15 -41 0 -42 0 0 73 1 73 -18 27 -17 27
-43 0 -43 0 -12 -12z"/>
</g>
</svg>
