<?xml version="1.0" standalone="no"?>
<!DOCTYPE svg PUBLIC "-//W3C//DTD SVG 20010904//EN"
 "http://www.w3.org/TR/2001/REC-SVG-20010904/DTD/svg10.dtd">
<svg version="1.0" xmlns="http://www.w3.org/2000/svg"
 width="84.000000pt" height="82.000000pt" viewBox="0 0 84.000000 82.000000"
 preserveAspectRatio="xMidYMid meet">
<metadata>
Created by potrace 1.16, written by Peter Selinger 2001-2019
</metadata>
<g transform="translate(0.000000,82.000000) scale(0.100000,-0.100000)"
fill="#000000" stroke="none">
<path d="M404 806 l-19 -14 -1 -64 -1 -63 -104 0 -104 0 -5 -60 -5 -60 -12
-21 -12 -22 -15 -5 -15 -6 -29 11 -30 12 -26 -17 -26 -17 0 -54 0 -54 37 -23
37 -23 65 -3 66 -2 -3 -33 -2 -33 -16 -47 -15 -48 6 -10 6 -10 67 0 68 0 22
-16 23 -16 -7 -43 -6 -43 20 -11 21 -11 48 0 49 0 20 15 21 14 6 30 6 29 -9
31 -9 31 25 6 24 6 66 -11 67 -12 9 9 8 8 15 75 15 74 5 22 5 22 29 -5 29 -6
11 20 11 21 0 39 0 40 -13 10 -13 11 -36 -5 -36 -6 -16 30 -16 31 0 69 0 68
-37 21 -38 21 -45 12 -45 12 -12 10 -12 10 5 27 6 28 -24 6 -23 7 -31 0 -30 0
-20 -14z"/>
</g>
</svg>
