<?xml version="1.0" standalone="no"?>
<!DOCTYPE svg PUBLIC "-//W3C//DTD SVG 20010904//EN"
 "http://www.w3.org/TR/2001/REC-SVG-20010904/DTD/svg10.dtd">
<svg version="1.0" xmlns="http://www.w3.org/2000/svg"
 width="72.000000pt" height="81.000000pt" viewBox="0 0 72.000000 81.000000"
 preserveAspectRatio="xMidYMid meet">
<metadata>
Created by potrace 1.16, written by Peter Selinger 2001-2019
</metadata>
<g transform="translate(0.000000,81.000000) scale(0.100000,-0.100000)"
fill="#000000" stroke="none">
<path d="M260 797 l-25 -13 3 -48 3 -48 -12 -14 -11 -14 -84 0 -83 0 -11 -19
-10 -20 0 -90 0 -91 9 0 8 0 31 11 31 10 23 -12 23 -12 7 -11 8 -11 0 -13 0
-12 -35 -17 -34 -16 -26 11 -26 12 -18 0 -19 0 -6 -16 -6 -16 0 -45 0 -45 17
-64 17 -64 93 1 92 1 10 -7 10 -6 -5 -42 -6 -43 16 -13 17 -14 42 -1 42 0 27
7 28 7 6 24 6 24 -11 20 -11 21 18 5 17 5 60 6 60 6 20 4 21 4 16 33 15 33 17
57 17 58 28 0 28 0 6 43 5 42 -6 39 -7 39 -17 11 -17 11 -31 -12 -30 -11 -15
15 -15 14 0 67 0 67 -8 11 -7 12 -45 15 -45 15 -35 7 -35 7 -12 10 -12 10 6
28 5 28 -38 11 -39 11 -15 0 -15 0 -25 -13z"/>
</g>
</svg>
