<?xml version="1.0" standalone="no"?>
<!DOCTYPE svg PUBLIC "-//W3C//DTD SVG 20010904//EN"
 "http://www.w3.org/TR/2001/REC-SVG-20010904/DTD/svg10.dtd">
<svg version="1.0" xmlns="http://www.w3.org/2000/svg"
 width="69.000000pt" height="69.000000pt" viewBox="0 0 69.000000 69.000000"
 preserveAspectRatio="xMidYMid meet">
<metadata>
Created by potrace 1.16, written by Peter Selinger 2001-2019
</metadata>
<g transform="translate(0.000000,69.000000) scale(0.100000,-0.100000)"
fill="#000000" stroke="none">
<path d="M360 675 l-13 -15 7 -55 6 -54 -12 -7 -12 -8 -91 0 -90 -1 -5 -82 -6
-82 -18 -20 -19 -21 -45 3 -46 2 -9 -26 -10 -26 7 -26 6 -27 31 -16 32 -16 38
4 39 4 6 -19 6 -18 -7 -82 -7 -82 101 -2 101 -2 0 30 0 30 14 28 15 27 23 10
23 10 18 -4 17 -3 0 -39 0 -39 18 -10 17 -9 81 -7 82 -7 6 10 6 11 -21 68 -21
68 -8 22 -9 22 -28 3 -28 3 -3 42 -3 42 20 20 20 20 36 -11 35 -12 13 13 12
12 -1 90 -2 90 -5 5 -5 6 -81 5 -81 6 -18 13 -17 13 13 12 12 13 0 17 0 16
-21 27 -20 26 -44 0 -43 0 -12 -15z"/>
</g>
</svg>
