<?xml version="1.0" standalone="no"?>
<!DOCTYPE svg PUBLIC "-//W3C//DTD SVG 20010904//EN"
 "http://www.w3.org/TR/2001/REC-SVG-20010904/DTD/svg10.dtd">
<svg version="1.0" xmlns="http://www.w3.org/2000/svg"
 width="71.000000pt" height="83.000000pt" viewBox="0 0 71.000000 83.000000"
 preserveAspectRatio="xMidYMid meet">
<metadata>
Created by potrace 1.16, written by Peter Selinger 2001-2019
</metadata>
<g transform="translate(0.000000,83.000000) scale(0.100000,-0.100000)"
fill="#000000" stroke="none">
<path d="M390 821 l-25 -7 0 -67 0 -68 -20 -5 -20 -5 -80 3 -80 3 -5 -95 -5
-95 -15 3 -14 3 -46 6 -46 5 -17 -17 -17 -16 0 -50 0 -49 21 -21 20 -20 31 3
31 3 7 -25 8 -25 17 -67 17 -68 74 0 73 0 28 -24 28 -25 -12 -20 -13 -21 0
-20 0 -19 19 -11 20 -10 63 0 64 0 19 13 18 14 -5 41 -6 41 57 11 56 12 38 9
39 10 -7 22 -6 22 -11 75 -11 75 -10 13 -10 13 -36 -3 -35 -3 -15 26 -15 27
18 26 17 27 22 8 22 9 17 -9 17 -9 22 0 22 0 -7 98 -6 97 -16 11 -15 12 -82
12 -82 13 -17 8 -16 9 5 40 6 40 -27 10 -27 10 -7 -1 -7 -1 -25 -7z"/>
</g>
</svg>
