<?xml version="1.0" standalone="no"?>
<!DOCTYPE svg PUBLIC "-//W3C//DTD SVG 20010904//EN"
 "http://www.w3.org/TR/2001/REC-SVG-20010904/DTD/svg10.dtd">
<svg version="1.0" xmlns="http://www.w3.org/2000/svg"
 width="59.000000pt" height="65.000000pt" viewBox="0 0 59.000000 65.000000"
 preserveAspectRatio="xMidYMid meet">
<metadata>
Created by potrace 1.16, written by Peter Selinger 2001-2019
</metadata>
<g transform="translate(0.000000,65.000000) scale(0.100000,-0.100000)"
fill="#000000" stroke="none">
<path d="M57 643 l-7 -6 0 -79 0 -78 20 -20 20 -20 33 0 33 0 10 10 10 10 13
-24 14 -24 -7 -26 -6 -26 -31 -16 -31 -16 -59 7 -58 7 -6 -25 -7 -25 17 -64
18 -63 4 -28 5 -28 27 5 26 5 45 2 45 1 13 -1 12 -1 0 -43 0 -44 18 -16 19
-17 55 0 56 0 16 25 17 25 -3 28 -3 27 88 6 87 6 5 5 5 5 12 79 11 79 -7 28
-7 28 -53 -6 -54 -7 -21 7 -21 6 -13 27 -13 27 4 20 4 20 7 8 7 7 32 -11 32
-11 26 6 25 7 15 34 14 34 0 67 0 66 -87 -7 -88 -8 -22 -8 -23 -9 0 -14 0 -15
10 -26 10 -26 -11 -20 -10 -20 -36 3 -36 3 -19 26 -20 26 0 24 0 24 7 28 7 27
-94 0 -95 0 -6 -7z"/>
</g>
</svg>
