<?xml version="1.0" standalone="no"?>
<!DOCTYPE svg PUBLIC "-//W3C//DTD SVG 20010904//EN"
 "http://www.w3.org/TR/2001/REC-SVG-20010904/DTD/svg10.dtd">
<svg version="1.0" xmlns="http://www.w3.org/2000/svg"
 width="57.000000pt" height="63.000000pt" viewBox="0 0 57.000000 63.000000"
 preserveAspectRatio="xMidYMid meet">
<metadata>
Created by potrace 1.16, written by Peter Selinger 2001-2019
</metadata>
<g transform="translate(0.000000,63.000000) scale(0.100000,-0.100000)"
fill="#000000" stroke="none">
<path d="M57 623 l-7 -6 0 -69 0 -68 20 -20 20 -20 20 0 20 0 20 12 20 13 14
-20 15 -20 1 -28 0 -28 -10 -18 -9 -18 -31 -13 -31 -13 -53 7 -54 6 -6 -16 -6
-15 10 -44 10 -45 16 -41 17 -41 66 2 66 3 17 -2 16 -1 -5 -40 -6 -40 18 -20
18 -20 47 0 48 0 16 25 17 25 -12 21 -11 21 7 6 6 7 90 6 90 6 4 5 4 4 12 71
12 71 -7 27 -7 27 -27 -8 -27 -7 -23 0 -22 1 -25 6 -25 6 -15 29 -15 30 7 31
6 32 13 5 13 5 35 -12 35 -11 19 10 20 11 11 31 11 32 0 54 0 54 -77 -7 -78
-7 -24 -9 -23 -8 6 -16 6 -16 6 -23 6 -23 -12 -22 -11 -21 -46 3 -46 3 -20 27
-20 27 -1 33 0 33 8 18 8 17 -84 0 -85 0 -6 -7z"/>
</g>
</svg>
