<?xml version="1.0" standalone="no"?>
<!DOCTYPE svg PUBLIC "-//W3C//DTD SVG 20010904//EN"
 "http://www.w3.org/TR/2001/REC-SVG-20010904/DTD/svg10.dtd">
<svg version="1.0" xmlns="http://www.w3.org/2000/svg"
 width="52.000000pt" height="68.000000pt" viewBox="0 0 52.000000 68.000000"
 preserveAspectRatio="xMidYMid meet">
<metadata>
Created by potrace 1.16, written by Peter Selinger 2001-2019
</metadata>
<g transform="translate(0.000000,68.000000) scale(0.100000,-0.100000)"
fill="#000000" stroke="none">
<path d="M24 672 l-11 -7 -5 -85 -6 -85 5 -12 4 -12 34 6 34 5 25 -6 25 -6 12
-22 11 -21 -11 -38 -12 -39 -19 -10 -20 -11 -19 10 -19 11 -10 -13 -10 -12 -7
-60 -7 -60 -4 -17 -5 -18 100 0 101 0 0 -3 0 -2 -9 -32 -9 -33 9 -34 9 -34 25
-16 25 -17 21 11 20 11 8 22 9 22 -10 19 -10 18 10 10 10 10 92 19 92 18 4 3
3 3 7 77 7 76 -7 26 -6 26 -38 -6 -37 -6 -28 22 -27 21 0 28 0 28 26 28 25 27
39 -6 39 -6 5 17 5 18 -7 70 -7 70 -82 3 -83 3 -19 -10 -18 -10 10 -46 10 -45
-18 -20 -18 -20 -53 0 -53 0 -6 11 -7 10 11 28 12 27 -10 27 -10 26 -38 10
-38 11 -30 0 -30 0 -11 -8z"/>
</g>
</svg>
