<?xml version="1.0" standalone="no"?>
<!DOCTYPE svg PUBLIC "-//W3C//DTD SVG 20010904//EN"
 "http://www.w3.org/TR/2001/REC-SVG-20010904/DTD/svg10.dtd">
<svg version="1.0" xmlns="http://www.w3.org/2000/svg"
 width="72.000000pt" height="73.000000pt" viewBox="0 0 72.000000 73.000000"
 preserveAspectRatio="xMidYMid meet">
<metadata>
Created by potrace 1.16, written by Peter Selinger 2001-2019
</metadata>
<g transform="translate(0.000000,73.000000) scale(0.100000,-0.100000)"
fill="#000000" stroke="none">
<path d="M235 705 l-25 -24 0 -26 0 -26 10 -19 10 -19 -22 -15 -22 -16 -87 0
-87 0 -6 -16 -6 -16 0 -78 0 -78 15 -12 15 -12 42 10 43 11 14 -13 13 -14 0
-41 -1 -41 -6 -10 -6 -10 -35 0 -34 0 -10 -22 -9 -23 -11 -57 -11 -58 -10 -5
-9 -6 0 -20 0 -19 99 0 99 0 11 14 12 15 -12 42 -13 42 23 18 23 19 23 0 24 0
21 -27 21 -27 -7 -54 -7 -54 14 -9 14 -9 33 0 33 0 70 16 69 16 0 6 0 7 -20
63 -20 64 0 19 0 19 60 0 61 0 32 17 32 16 12 16 12 16 1 26 0 26 -19 17 -19
18 -40 5 -39 5 -21 -11 -21 -11 -11 19 -10 20 0 80 0 81 -17 0 -18 0 -75 -16
-74 -15 -23 12 -23 12 11 14 12 13 -6 50 -6 49 -16 30 -16 31 -15 0 -15 0 -24
-25z"/>
</g>
</svg>
