<?xml version="1.0" standalone="no"?>
<!DOCTYPE svg PUBLIC "-//W3C//DTD SVG 20010904//EN"
 "http://www.w3.org/TR/2001/REC-SVG-20010904/DTD/svg10.dtd">
<svg version="1.0" xmlns="http://www.w3.org/2000/svg"
 width="82.000000pt" height="51.000000pt" viewBox="0 0 82.000000 51.000000"
 preserveAspectRatio="xMidYMid meet">
<metadata>
Created by potrace 1.16, written by Peter Selinger 2001-2019
</metadata>
<g transform="translate(0.000000,51.000000) scale(0.100000,-0.100000)"
fill="#000000" stroke="none">
<path d="M160 438 l0 -73 -13 -25 -13 -25 -64 0 -65 0 -3 -38 -3 -38 13 -16
12 -15 52 6 52 6 10 -13 11 -12 7 -88 7 -89 25 -9 25 -10 81 3 81 3 0 69 0 69
16 10 16 10 26 -7 26 -6 16 -16 16 -17 -10 -10 -11 -11 0 -17 0 -18 9 -5 9 -6
73 -16 74 -16 20 -5 20 -4 0 98 0 98 50 -3 50 -3 23 21 22 21 0 24 0 25 -21
21 -22 22 -59 -7 -59 -6 7 92 7 91 -42 -7 -41 -6 -51 -11 -50 -11 7 -43 6 -43
-20 -11 -21 -11 -53 0 -54 0 -20 14 -19 15 13 20 12 21 0 19 0 20 -26 20 -27
21 -63 0 -64 0 0 -72z"/>
</g>
</svg>
