<?xml version="1.0" standalone="no"?>
<!DOCTYPE svg PUBLIC "-//W3C//DTD SVG 20010904//EN"
 "http://www.w3.org/TR/2001/REC-SVG-20010904/DTD/svg10.dtd">
<svg version="1.0" xmlns="http://www.w3.org/2000/svg"
 width="84.000000pt" height="53.000000pt" viewBox="0 0 84.000000 53.000000"
 preserveAspectRatio="xMidYMid meet">
<metadata>
Created by potrace 1.16, written by Peter Selinger 2001-2019
</metadata>
<g transform="translate(0.000000,53.000000) scale(0.100000,-0.100000)"
fill="#000000" stroke="none">
<path d="M160 458 l0 -73 -13 -25 -13 -25 -64 0 -65 0 -3 -48 -3 -49 12 -15
13 -15 50 4 51 3 12 -8 12 -7 7 -91 7 -91 25 -9 25 -10 91 3 91 3 -3 66 -3 65
15 13 16 13 29 -12 29 -12 -5 -37 -5 -38 10 -7 10 -6 73 -16 74 -17 30 -4 30
-5 0 98 0 98 50 -3 50 -2 22 21 23 21 0 34 0 35 -21 21 -21 21 -58 -4 -58 -4
5 89 6 90 -49 -6 -49 -6 -54 -11 -53 -12 6 -44 6 -44 -20 -10 -19 -10 -43 0
-44 0 -19 13 -18 14 11 7 12 7 0 34 0 34 -26 20 -27 21 -73 0 -74 0 0 -72z"/>
</g>
</svg>
