<?xml version="1.0" standalone="no"?>
<!DOCTYPE svg PUBLIC "-//W3C//DTD SVG 20010904//EN"
 "http://www.w3.org/TR/2001/REC-SVG-20010904/DTD/svg10.dtd">
<svg version="1.0" xmlns="http://www.w3.org/2000/svg"
 width="68.000000pt" height="54.000000pt" viewBox="0 0 68.000000 54.000000"
 preserveAspectRatio="xMidYMid meet">
<metadata>
Created by potrace 1.16, written by Peter Selinger 2001-2019
</metadata>
<g transform="translate(0.000000,54.000000) scale(0.100000,-0.100000)"
fill="#000000" stroke="none">
<path d="M3 434 l-2 -106 59 7 58 7 21 -21 21 -21 0 -15 0 -14 -22 -21 -22
-20 -50 2 -51 3 -3 -103 -3 -102 26 -10 26 -10 47 1 47 1 25 7 25 7 0 69 0 69
32 13 33 13 15 -24 16 -24 9 -31 9 -31 -10 -5 -9 -6 0 -23 0 -24 15 -12 16
-13 96 6 96 7 5 5 5 5 -12 67 -13 68 3 25 4 25 57 -3 57 -4 26 26 25 25 0 30
0 31 -25 16 -25 17 -50 -7 -50 -7 0 107 0 106 -22 -5 -23 -6 -65 -11 -65 -10
-24 -6 -24 -5 6 -44 6 -44 -18 -22 -18 -22 -27 7 -28 7 7 63 7 63 -23 17 -23
16 -96 0 -95 0 -2 -106z"/>
</g>
</svg>
