<?xml version="1.0" standalone="no"?>
<!DOCTYPE svg PUBLIC "-//W3C//DTD SVG 20010904//EN"
 "http://www.w3.org/TR/2001/REC-SVG-20010904/DTD/svg10.dtd">
<svg version="1.0" xmlns="http://www.w3.org/2000/svg"
 width="66.000000pt" height="52.000000pt" viewBox="0 0 66.000000 52.000000"
 preserveAspectRatio="xMidYMid meet">
<metadata>
Created by potrace 1.16, written by Peter Selinger 2001-2019
</metadata>
<g transform="translate(0.000000,52.000000) scale(0.100000,-0.100000)"
fill="#000000" stroke="none">
<path d="M3 425 l-2 -95 58 7 58 6 22 -22 21 -21 0 -25 0 -24 -22 -21 -23 -21
-50 3 -50 3 0 -95 0 -95 37 -9 38 -9 47 9 48 9 3 37 3 37 -10 18 -9 19 9 16 9
16 37 13 37 12 18 -23 18 -22 10 -39 11 -38 -13 -20 -12 -19 14 -18 15 -17 89
7 89 6 5 4 4 4 -12 54 -12 53 4 40 3 40 57 -3 58 -3 26 26 25 25 -3 22 -3 22
-27 16 -27 15 -31 -12 -31 -12 -15 6 -14 5 0 102 0 102 -97 -17 -98 -18 -3 -1
-4 0 7 -40 7 -41 -16 -24 -16 -25 -28 0 -27 0 -14 9 -14 9 7 60 7 60 -23 16
-22 16 -86 0 -85 0 -2 -95z"/>
</g>
</svg>
