<?xml version="1.0" standalone="no"?>
<!DOCTYPE svg PUBLIC "-//W3C//DTD SVG 20010904//EN"
 "http://www.w3.org/TR/2001/REC-SVG-20010904/DTD/svg10.dtd">
<svg version="1.0" xmlns="http://www.w3.org/2000/svg"
 width="71.000000pt" height="71.000000pt" viewBox="0 0 71.000000 71.000000"
 preserveAspectRatio="xMidYMid meet">
<metadata>
Created by potrace 1.16, written by Peter Selinger 2001-2019
</metadata>
<g transform="translate(0.000000,71.000000) scale(0.100000,-0.100000)"
fill="#000000" stroke="none">
<path d="M368 699 l-18 -10 0 -28 0 -28 11 -32 12 -33 -17 -16 -17 -17 -98 1
-97 2 0 -64 0 -65 -18 -17 -17 -17 -47 0 -47 0 -8 -52 -8 -52 13 -28 13 -28
42 -3 42 -3 5 -17 4 -17 12 -85 11 -85 107 1 107 1 18 2 17 1 0 26 0 25 -11
20 -10 20 16 25 15 24 25 0 24 0 3 -32 3 -33 45 -13 45 -13 50 -21 50 -20 19
-2 20 -1 12 40 12 40 1 61 1 62 -15 12 -15 13 -45 -13 -45 -13 -20 18 -20 18
0 29 0 28 44 0 45 0 21 31 22 30 5 83 6 83 -80 22 -79 21 -13 0 -12 0 -29 15
-28 15 11 31 12 31 -24 19 -23 19 -22 0 -21 -1 -17 -10z"/>
</g>
</svg>
