<?xml version="1.0" standalone="no"?>
<!DOCTYPE svg PUBLIC "-//W3C//DTD SVG 20010904//EN"
 "http://www.w3.org/TR/2001/REC-SVG-20010904/DTD/svg10.dtd">
<svg version="1.0" xmlns="http://www.w3.org/2000/svg"
 width="80.000000pt" height="72.000000pt" viewBox="0 0 80.000000 72.000000"
 preserveAspectRatio="xMidYMid meet">
<metadata>
Created by potrace 1.16, written by Peter Selinger 2001-2019
</metadata>
<g transform="translate(0.000000,72.000000) scale(0.100000,-0.100000)"
fill="#000000" stroke="none">
<path d="M363 713 l-22 -4 -11 -14 -12 -14 13 -56 12 -56 -12 -12 -12 -12 -85
0 -84 1 0 -98 0 -98 -55 6 -55 7 -20 -18 -20 -18 0 -41 0 -41 19 -24 19 -25
36 11 35 11 10 -12 10 -12 7 -76 7 -75 73 -7 73 -7 26 7 27 7 -6 22 -6 23 -6
15 -6 15 22 22 21 21 36 -3 36 -3 20 -27 21 -27 -12 -38 -11 -37 12 -14 11
-14 51 5 50 6 51 16 51 17 -8 37 -9 36 0 52 0 51 6 16 6 16 52 -6 52 -6 12 15
13 16 -3 38 -3 38 -62 -2 -63 -1 -2 21 -2 22 -1 80 0 80 -85 8 -85 8 -21 5
-22 4 -6 15 -5 15 11 24 11 25 -6 24 -7 24 -25 11 -26 12 -7 -1 -7 -2 -22 -4z"/>
</g>
</svg>
