<?xml version="1.0" standalone="no"?>
<!DOCTYPE svg PUBLIC "-//W3C//DTD SVG 20010904//EN"
 "http://www.w3.org/TR/2001/REC-SVG-20010904/DTD/svg10.dtd">
<svg version="1.0" xmlns="http://www.w3.org/2000/svg"
 width="86.000000pt" height="83.000000pt" viewBox="0 0 86.000000 83.000000"
 preserveAspectRatio="xMidYMid meet">
<metadata>
Created by potrace 1.16, written by Peter Selinger 2001-2019
</metadata>
<g transform="translate(0.000000,83.000000) scale(0.100000,-0.100000)"
fill="#000000" stroke="none">
<path d="M383 815 l-31 -13 -7 -21 -6 -20 11 -21 11 -21 -3 -26 -3 -27 -30 -8
-30 -8 -62 6 -63 6 0 -89 0 -90 -6 -5 -5 -6 -34 11 -34 10 -33 -9 -33 -10 -13
-38 -13 -39 11 -33 11 -32 29 -12 30 -12 65 4 65 4 0 -28 0 -27 -21 -55 -20
-56 6 -10 6 -10 62 0 63 0 22 -16 23 -16 -6 -40 -7 -40 13 -9 14 -9 77 0 78 0
5 23 5 22 -3 19 -2 19 30 7 30 7 55 12 55 11 14 9 14 9 32 94 31 93 23 -3 23
-4 14 19 13 18 1 38 0 38 -19 21 -20 21 -58 6 -58 6 4 84 3 84 -96 -8 -97 -7
-14 12 -15 13 11 13 11 13 -7 39 -6 39 -19 31 -20 32 -22 0 -23 -1 -32 -14z"/>
</g>
</svg>
