<?xml version="1.0" standalone="no"?>
<!DOCTYPE svg PUBLIC "-//W3C//DTD SVG 20010904//EN"
 "http://www.w3.org/TR/2001/REC-SVG-20010904/DTD/svg10.dtd">
<svg version="1.0" xmlns="http://www.w3.org/2000/svg"
 width="69.000000pt" height="69.000000pt" viewBox="0 0 69.000000 69.000000"
 preserveAspectRatio="xMidYMid meet">
<metadata>
Created by potrace 1.16, written by Peter Selinger 2001-2019
</metadata>
<g transform="translate(0.000000,69.000000) scale(0.100000,-0.100000)"
fill="#000000" stroke="none">
<path d="M211 676 l-13 -16 3 -67 4 -68 -100 -1 -100 -2 -3 -253 -2 -254 87 5
88 5 24 14 24 13 -6 48 -6 47 12 12 11 11 28 0 28 0 15 -24 16 -23 -11 -48
-11 -47 13 -15 13 -16 75 7 75 6 20 5 20 6 0 102 0 102 20 -3 20 -3 46 -2 47
-2 21 19 21 19 0 42 0 41 -14 19 -13 18 -66 -6 -67 -6 -11 21 -11 21 4 60 4
59 -75 -4 -76 -5 -28 10 -29 10 7 31 7 31 0 19 -1 20 -19 25 -19 26 -30 3 -30
3 -12 -15z"/>
</g>
</svg>
