<?xml version="1.0" standalone="no"?>
<!DOCTYPE svg PUBLIC "-//W3C//DTD SVG 20010904//EN"
 "http://www.w3.org/TR/2001/REC-SVG-20010904/DTD/svg10.dtd">
<svg version="1.0" xmlns="http://www.w3.org/2000/svg"
 width="64.000000pt" height="52.000000pt" viewBox="0 0 64.000000 52.000000"
 preserveAspectRatio="xMidYMid meet">
<metadata>
Created by potrace 1.16, written by Peter Selinger 2001-2019
</metadata>
<g transform="translate(0.000000,52.000000) scale(0.100000,-0.100000)"
fill="#000000" stroke="none">
<path d="M163 512 l-33 -3 0 -99 0 -99 -16 -9 -17 -9 -33 10 -33 10 -16 -13
-15 -12 0 -48 0 -47 23 4 23 5 11 -14 11 -13 17 -60 18 -60 1 -15 2 -15 7 -11
7 -12 94 2 93 1 18 15 17 14 -6 48 -7 47 20 10 20 11 13 0 14 0 19 -14 19 -14
-12 -28 -13 -27 13 -13 13 -13 90 -14 90 -15 9 8 9 9 1 83 1 83 -45 -3 -46 -3
-27 21 -27 21 0 42 0 42 9 14 9 14 61 -6 61 -5 0 87 0 87 -97 -19 -98 -19 -9
-8 -8 -8 11 -32 11 -32 -11 -19 -10 -19 -37 0 -38 0 -23 16 -23 17 7 53 6 53
-18 9 -18 9 -40 4 -40 4 -32 -3z"/>
</g>
</svg>
