<?xml version="1.0" standalone="no"?>
<!DOCTYPE svg PUBLIC "-//W3C//DTD SVG 20010904//EN"
 "http://www.w3.org/TR/2001/REC-SVG-20010904/DTD/svg10.dtd">
<svg version="1.0" xmlns="http://www.w3.org/2000/svg"
 width="66.000000pt" height="54.000000pt" viewBox="0 0 66.000000 54.000000"
 preserveAspectRatio="xMidYMid meet">
<metadata>
Created by potrace 1.16, written by Peter Selinger 2001-2019
</metadata>
<g transform="translate(0.000000,54.000000) scale(0.100000,-0.100000)"
fill="#000000" stroke="none">
<path d="M163 533 l-32 -4 -3 -102 -3 -102 -48 3 -49 3 -14 -12 -14 -11 0 -60
0 -60 24 6 24 6 10 -13 10 -12 17 -70 17 -70 8 -15 7 -15 105 0 105 0 18 15
17 14 -5 49 -4 48 18 10 19 10 19 -11 19 -10 -11 -30 -11 -30 14 -14 15 -15
99 -16 99 -16 10 10 10 10 1 93 1 93 -51 0 -52 0 -21 19 -21 19 0 31 0 31 9
14 9 14 61 -7 61 -7 0 101 0 100 -7 -1 -8 0 -105 -22 -105 -22 0 -55 0 -55
-28 -3 -28 -3 -25 16 -24 16 6 53 7 54 -19 10 -19 9 -50 5 -50 5 -32 -4z"/>
</g>
</svg>
