<?xml version="1.0" standalone="no"?>
<!DOCTYPE svg PUBLIC "-//W3C//DTD SVG 20010904//EN"
 "http://www.w3.org/TR/2001/REC-SVG-20010904/DTD/svg10.dtd">
<svg version="1.0" xmlns="http://www.w3.org/2000/svg"
 width="70.000000pt" height="55.000000pt" viewBox="0 0 70.000000 55.000000"
 preserveAspectRatio="xMidYMid meet">
<metadata>
Created by potrace 1.16, written by Peter Selinger 2001-2019
</metadata>
<g transform="translate(0.000000,55.000000) scale(0.100000,-0.100000)"
fill="#000000" stroke="none">
<path d="M30 488 l0 -63 13 -25 13 -25 43 -1 43 -1 9 -14 9 -14 0 -37 0 -38
-21 -21 -20 -20 -54 6 -54 7 -7 -26 -6 -25 16 -77 15 -77 13 -9 13 -9 88 3 88
3 10 15 9 15 -3 20 -4 20 -8 17 -7 18 28 10 28 11 23 -6 24 -6 19 -19 19 -19
-11 -34 -11 -35 6 -16 6 -16 62 0 62 0 36 11 37 11 25 106 25 107 36 -3 37 -3
10 20 11 20 0 44 0 45 -15 12 -14 12 -58 -4 -58 -3 -3 88 -3 88 -87 -7 -87 -7
-18 -9 -18 -9 7 -45 6 -45 -18 -14 -19 -14 -25 -1 -26 0 -11 11 -11 11 10 30
10 30 -11 24 -11 24 -26 10 -25 10 -80 0 -79 0 0 -62z"/>
</g>
</svg>
