<?xml version="1.0" standalone="no"?>
<!DOCTYPE svg PUBLIC "-//W3C//DTD SVG 20010904//EN"
 "http://www.w3.org/TR/2001/REC-SVG-20010904/DTD/svg10.dtd">
<svg version="1.0" xmlns="http://www.w3.org/2000/svg"
 width="80.000000pt" height="53.000000pt" viewBox="0 0 80.000000 53.000000"
 preserveAspectRatio="xMidYMid meet">
<metadata>
Created by potrace 1.16, written by Peter Selinger 2001-2019
</metadata>
<g transform="translate(0.000000,53.000000) scale(0.100000,-0.100000)"
fill="#000000" stroke="none">
<path d="M160 465 l0 -66 -14 -33 -14 -34 -22 -7 -21 -7 -30 12 -29 12 -15
-12 -15 -12 0 -45 0 -44 26 -26 25 -25 43 6 43 7 7 -23 6 -23 0 -74 0 -73 99
4 100 4 21 19 22 20 -6 25 -6 25 -6 22 -6 21 22 12 22 12 29 -13 30 -12 9 -16
9 -17 -6 -42 -6 -42 27 -10 27 -10 53 0 52 0 19 14 19 13 -18 56 -17 55 3 34
3 33 20 -4 20 -3 32 -1 33 -1 25 24 25 23 0 31 0 31 -8 11 -7 11 -20 6 -20 6
-39 -9 -39 -9 6 101 6 100 -22 -5 -22 -6 -65 -21 -65 -21 -15 -8 -15 -8 0 -29
0 -29 -8 -12 -8 -13 -33 0 -34 0 -11 14 -12 15 10 20 11 20 0 30 0 30 -16 15
-15 16 -100 0 -99 0 0 -65z"/>
</g>
</svg>
