<?xml version="1.0" standalone="no"?>
<!DOCTYPE svg PUBLIC "-//W3C//DTD SVG 20010904//EN"
 "http://www.w3.org/TR/2001/REC-SVG-20010904/DTD/svg10.dtd">
<svg version="1.0" xmlns="http://www.w3.org/2000/svg"
 width="69.000000pt" height="54.000000pt" viewBox="0 0 69.000000 54.000000"
 preserveAspectRatio="xMidYMid meet">
<metadata>
Created by potrace 1.16, written by Peter Selinger 2001-2019
</metadata>
<g transform="translate(0.000000,54.000000) scale(0.100000,-0.100000)"
fill="#000000" stroke="none">
<path d="M0 446 l0 -94 16 -13 15 -13 35 13 35 13 14 -12 15 -12 0 -43 0 -43
-6 -16 -6 -16 -23 6 -23 6 -10 -19 -10 -18 -17 -60 -17 -60 -5 -27 -5 -28 98
0 99 0 14 9 15 9 -13 42 -12 41 6 19 6 20 21 11 20 11 22 -21 21 -22 0 -62 0
-62 40 -3 40 -4 71 7 70 6 18 82 18 82 7 25 8 25 40 -3 41 -4 16 23 16 23 0
31 0 31 -16 23 -16 23 -67 -4 -66 -3 -3 88 -3 87 -97 0 -98 0 -19 -14 -19 -14
12 -40 12 -40 -10 -26 -9 -25 -25 -7 -24 -6 -22 12 -22 12 7 21 6 22 6 36 5
36 -23 17 -23 16 -88 0 -88 0 0 -94z"/>
</g>
</svg>
