<?xml version="1.0" standalone="no"?>
<!DOCTYPE svg PUBLIC "-//W3C//DTD SVG 20010904//EN"
 "http://www.w3.org/TR/2001/REC-SVG-20010904/DTD/svg10.dtd">
<svg version="1.0" xmlns="http://www.w3.org/2000/svg"
 width="58.000000pt" height="67.000000pt" viewBox="0 0 58.000000 67.000000"
 preserveAspectRatio="xMidYMid meet">
<metadata>
Created by potrace 1.16, written by Peter Selinger 2001-2019
</metadata>
<g transform="translate(0.000000,67.000000) scale(0.100000,-0.100000)"
fill="#000000" stroke="none">
<path d="M47 663 l-7 -6 0 -98 0 -97 66 1 66 2 11 -16 10 -16 -7 -27 -7 -27
-24 -11 -25 -11 -53 12 -52 12 -13 -18 -13 -18 7 -49 6 -49 17 -51 16 -51 75
-5 75 -5 23 -13 22 -13 0 -4 0 -4 -12 -26 -11 -25 11 -25 12 -25 63 0 63 0 19
13 18 14 -6 31 -6 30 13 5 13 5 76 13 77 13 0 23 0 24 -19 37 -18 37 -17 57
-16 57 -28 3 -27 3 -3 49 -3 49 36 -6 36 -6 24 9 24 9 10 38 11 38 0 63 0 62
-263 0 -264 0 -6 -7z"/>
</g>
</svg>
