<?xml version="1.0" standalone="no"?>
<!DOCTYPE svg PUBLIC "-//W3C//DTD SVG 20010904//EN"
 "http://www.w3.org/TR/2001/REC-SVG-20010904/DTD/svg10.dtd">
<svg version="1.0" xmlns="http://www.w3.org/2000/svg"
 width="56.000000pt" height="65.000000pt" viewBox="0 0 56.000000 65.000000"
 preserveAspectRatio="xMidYMid meet">
<metadata>
Created by potrace 1.16, written by Peter Selinger 2001-2019
</metadata>
<g transform="translate(0.000000,65.000000) scale(0.100000,-0.100000)"
fill="#000000" stroke="none">
<path d="M47 643 l-7 -6 0 -87 0 -86 60 4 60 4 15 -12 15 -12 0 -34 0 -34 -20
-20 -20 -20 -33 0 -32 0 -33 9 -32 10 -10 -19 -10 -18 9 -49 10 -48 13 -40 13
-40 75 -5 75 -5 23 -13 22 -13 0 -15 0 -15 -10 -20 -11 -19 11 -20 11 -20 50
0 50 0 20 11 20 10 -7 34 -6 33 19 5 18 6 60 13 60 12 13 -1 12 -1 0 15 0 14
-19 37 -18 37 -17 57 -16 57 -28 3 -27 3 -3 54 -3 54 8 8 9 9 29 -9 30 -8 22
8 22 8 10 38 11 38 0 53 0 52 -253 0 -254 0 -6 -7z"/>
</g>
</svg>
