<?xml version="1.0" standalone="no"?>
<!DOCTYPE svg PUBLIC "-//W3C//DTD SVG 20010904//EN"
 "http://www.w3.org/TR/2001/REC-SVG-20010904/DTD/svg10.dtd">
<svg version="1.0" xmlns="http://www.w3.org/2000/svg"
 width="51.000000pt" height="64.000000pt" viewBox="0 0 51.000000 64.000000"
 preserveAspectRatio="xMidYMid meet">
<metadata>
Created by potrace 1.16, written by Peter Selinger 2001-2019
</metadata>
<g transform="translate(0.000000,64.000000) scale(0.100000,-0.100000)"
fill="#000000" stroke="none">
<path d="M211 627 l-11 -14 12 -31 12 -31 -19 -20 -18 -21 -94 0 -93 0 0 -74
0 -75 16 -15 15 -16 9 0 9 0 26 12 26 12 14 -15 13 -14 3 -35 2 -35 -2 -33 -1
-33 -27 3 -28 3 -28 -80 -28 -80 -6 -17 -5 -18 106 0 106 0 0 8 0 7 -11 45
-10 44 6 23 5 23 30 0 30 0 15 -23 15 -23 -11 -38 -10 -37 12 -15 11 -14 95 0
94 0 5 14 6 14 -12 23 -12 22 -17 61 -16 61 -28 3 -27 3 0 43 0 44 15 12 15
12 31 -13 32 -13 13 19 14 19 0 93 0 93 -27 -11 -28 -11 -53 -9 -53 -10 -20 6
-21 7 7 58 7 58 -21 21 -21 21 -29 0 -29 0 -11 -13z"/>
</g>
</svg>
