<?xml version="1.0" standalone="no"?>
<!DOCTYPE svg PUBLIC "-//W3C//DTD SVG 20010904//EN"
 "http://www.w3.org/TR/2001/REC-SVG-20010904/DTD/svg10.dtd">
<svg version="1.0" xmlns="http://www.w3.org/2000/svg"
 width="76.000000pt" height="64.000000pt" viewBox="0 0 76.000000 64.000000"
 preserveAspectRatio="xMidYMid meet">
<metadata>
Created by potrace 1.16, written by Peter Selinger 2001-2019
</metadata>
<g transform="translate(0.000000,64.000000) scale(0.100000,-0.100000)"
fill="#000000" stroke="none">
<path d="M319 633 l-16 -4 4 -43 5 -43 -23 -17 -23 -16 -73 0 -73 0 0 -93 0
-93 -14 -19 -13 -19 -32 13 -31 13 -15 -12 -15 -12 0 -44 0 -43 27 -3 28 -3
16 -61 17 -61 12 -22 12 -23 -6 -14 -5 -14 79 0 80 0 20 20 20 20 0 33 0 33
-11 11 -11 11 21 12 22 11 39 1 38 0 11 -7 12 -7 -7 -33 -6 -33 12 -7 11 -7
77 -19 77 -20 20 -2 20 -2 0 100 0 100 47 -3 46 -4 22 22 21 21 -3 22 -3 21
-27 16 -27 15 -30 -12 -30 -11 -5 6 -6 5 0 97 0 97 -57 16 -58 16 -40 7 -40 7
-19 9 -18 10 6 28 5 28 -15 6 -16 6 -21 -1 -22 -1 -16 -5z"/>
</g>
</svg>
