<?xml version="1.0" standalone="no"?>
<!DOCTYPE svg PUBLIC "-//W3C//DTD SVG 20010904//EN"
 "http://www.w3.org/TR/2001/REC-SVG-20010904/DTD/svg10.dtd">
<svg version="1.0" xmlns="http://www.w3.org/2000/svg"
 width="70.000000pt" height="64.000000pt" viewBox="0 0 70.000000 64.000000"
 preserveAspectRatio="xMidYMid meet">
<metadata>
Created by potrace 1.16, written by Peter Selinger 2001-2019
</metadata>
<g transform="translate(0.000000,64.000000) scale(0.100000,-0.100000)"
fill="#000000" stroke="none">
<path d="M398 614 l-12 -25 11 -40 10 -39 -76 0 -76 0 -37 9 -37 9 -6 -16 -5
-15 6 -32 6 -32 -12 -42 -11 -43 -57 7 -58 6 -18 -20 -19 -20 1 -56 0 -56 13
-15 12 -15 36 3 36 3 18 -55 17 -55 16 -35 15 -35 102 3 102 4 4 4 4 4 -12 38
-13 39 16 31 16 31 21 11 20 11 29 -6 29 -6 12 -15 13 -16 -12 -41 -11 -42 13
-13 13 -14 81 -7 82 -7 5 14 5 14 6 66 5 67 -9 14 -10 14 -32 -11 -32 -12 -28
15 -29 15 -6 34 -7 34 11 21 12 21 25 6 25 6 39 -5 39 -5 -5 67 -5 66 -5 30
-4 30 -102 0 -103 0 1 25 0 25 7 21 8 22 -16 16 -16 16 -25 0 -24 0 -12 -26z"/>
</g>
</svg>
