<?xml version="1.0" standalone="no"?>
<!DOCTYPE svg PUBLIC "-//W3C//DTD SVG 20010904//EN"
 "http://www.w3.org/TR/2001/REC-SVG-20010904/DTD/svg10.dtd">
<svg version="1.0" xmlns="http://www.w3.org/2000/svg"
 width="67.000000pt" height="70.000000pt" viewBox="0 0 67.000000 70.000000"
 preserveAspectRatio="xMidYMid meet">
<metadata>
Created by potrace 1.16, written by Peter Selinger 2001-2019
</metadata>
<g transform="translate(0.000000,70.000000) scale(0.100000,-0.100000)"
fill="#000000" stroke="none">
<path d="M329 696 l-6 -6 10 -44 10 -43 -7 -36 -7 -36 -26 -21 -26 -20 -21 0
-21 0 -10 8 -10 7 -14 18 -13 17 11 14 12 15 -3 33 -3 33 -25 12 -25 13 -77 0
-78 0 0 -70 0 -71 16 -30 15 -30 37 2 38 3 12 -8 12 -7 0 -30 0 -30 -10 -19
-10 -19 -29 5 -29 6 -5 -18 -6 -19 -11 -63 -11 -64 -9 -24 -10 -24 70 0 69 0
25 -10 25 -9 10 -20 11 -19 -11 -31 -11 -31 12 -15 12 -15 37 0 36 1 19 14 18
14 1 23 1 23 -7 22 -8 22 18 10 19 9 82 4 82 3 14 30 15 31 11 49 11 50 5 18
6 18 38 -6 38 -7 11 21 11 20 0 48 0 48 -9 14 -9 14 -60 -7 -60 -7 -9 13 -8
13 -5 75 -5 75 -39 19 -39 19 -46 5 -46 4 -6 -6z"/>
</g>
</svg>
