<?xml version="1.0" standalone="no"?>
<!DOCTYPE svg PUBLIC "-//W3C//DTD SVG 20010904//EN"
 "http://www.w3.org/TR/2001/REC-SVG-20010904/DTD/svg10.dtd">
<svg version="1.0" xmlns="http://www.w3.org/2000/svg"
 width="54.000000pt" height="70.000000pt" viewBox="0 0 54.000000 70.000000"
 preserveAspectRatio="xMidYMid meet">
<metadata>
Created by potrace 1.16, written by Peter Selinger 2001-2019
</metadata>
<g transform="translate(0.000000,70.000000) scale(0.100000,-0.100000)"
fill="#000000" stroke="none">
<path d="M334 623 l1 -78 -24 -27 -25 -28 -23 0 -24 0 -25 27 -24 26 -6 24 -6
24 6 41 7 41 -68 -6 -68 -7 -27 0 -28 0 0 -81 0 -80 11 -21 11 -20 60 6 61 7
8 -13 9 -13 0 -38 0 -38 -10 -19 -10 -18 -39 5 -40 5 -11 -43 -10 -44 -12 -43
-11 -43 -8 -5 -9 -5 0 -16 0 -16 87 7 88 7 -3 -54 -4 -53 16 -13 15 -13 39 -5
39 -5 30 15 30 16 13 31 13 30 -6 40 -5 40 26 0 27 -1 55 -19 55 -19 9 -1 9 0
-7 108 -7 107 -14 15 -15 14 -41 -11 -41 -11 -26 24 -27 23 17 17 18 18 75 -2
75 -3 0 104 0 104 -18 16 -18 16 -37 16 -36 15 -49 0 -49 0 1 -77z"/>
</g>
</svg>
