<?xml version="1.0" standalone="no"?>
<!DOCTYPE svg PUBLIC "-//W3C//DTD SVG 20010904//EN"
 "http://www.w3.org/TR/2001/REC-SVG-20010904/DTD/svg10.dtd">
<svg version="1.0" xmlns="http://www.w3.org/2000/svg"
 width="52.000000pt" height="68.000000pt" viewBox="0 0 52.000000 68.000000"
 preserveAspectRatio="xMidYMid meet">
<metadata>
Created by potrace 1.16, written by Peter Selinger 2001-2019
</metadata>
<g transform="translate(0.000000,68.000000) scale(0.100000,-0.100000)"
fill="#000000" stroke="none">
<path d="M335 603 l0 -78 -24 -27 -25 -28 -27 0 -27 0 -16 6 -16 6 -20 34 -21
33 -1 40 0 39 7 13 8 12 -54 -6 -54 -7 -32 0 -33 0 0 -71 0 -70 11 -20 10 -20
61 7 60 7 9 -14 9 -14 0 -48 0 -48 -11 -20 -11 -21 -38 7 -39 7 -11 -44 -10
-43 -11 -40 -11 -40 -11 -13 -11 -14 92 7 91 8 -6 -52 -6 -51 13 -15 12 -14
33 -7 33 -6 29 16 30 15 13 30 12 31 -4 22 -5 23 -4 15 -4 15 36 3 37 3 57
-19 58 -20 -7 97 -7 96 -14 14 -13 13 -37 -12 -37 -12 -27 19 -26 20 0 24 0
23 25 13 24 12 63 -6 63 -6 0 95 0 95 -18 16 -18 16 -37 16 -36 15 -38 0 -38
0 0 -77z"/>
</g>
</svg>
