<?xml version="1.0" standalone="no"?>
<!DOCTYPE svg PUBLIC "-//W3C//DTD SVG 20010904//EN"
 "http://www.w3.org/TR/2001/REC-SVG-20010904/DTD/svg10.dtd">
<svg version="1.0" xmlns="http://www.w3.org/2000/svg"
 width="51.000000pt" height="53.000000pt" viewBox="0 0 51.000000 53.000000"
 preserveAspectRatio="xMidYMid meet">
<metadata>
Created by potrace 1.16, written by Peter Selinger 2001-2019
</metadata>
<g transform="translate(0.000000,53.000000) scale(0.100000,-0.100000)"
fill="#000000" stroke="none">
<path d="M63 523 l-63 -4 0 -79 0 -79 16 -9 17 -9 33 10 34 10 21 -21 20 -22
2 -38 1 -38 -21 -23 -21 -23 -49 4 -48 3 -3 -97 -3 -98 70 0 70 0 27 12 26 12
-6 53 -6 52 22 15 22 16 22 0 21 0 17 -19 18 -20 -7 -49 -7 -50 14 -8 13 -9
98 -5 98 -5 -7 105 -6 105 -13 14 -14 14 -30 -12 -30 -13 -20 7 -21 6 -10 19
-10 19 6 14 5 14 26 12 26 12 34 -12 34 -11 15 6 15 6 -3 102 -3 103 -75 -3
-75 -3 -17 -5 -17 -5 2 -52 2 -51 -37 -13 -37 -12 -31 10 -31 11 -15 31 -16
30 6 39 6 38 -22 -2 -23 -2 -62 -3z"/>
</g>
</svg>
