<?xml version="1.0" standalone="no"?>
<!DOCTYPE svg PUBLIC "-//W3C//DTD SVG 20010904//EN"
 "http://www.w3.org/TR/2001/REC-SVG-20010904/DTD/svg10.dtd">
<svg version="1.0" xmlns="http://www.w3.org/2000/svg"
 width="53.000000pt" height="55.000000pt" viewBox="0 0 53.000000 55.000000"
 preserveAspectRatio="xMidYMid meet">
<metadata>
Created by potrace 1.16, written by Peter Selinger 2001-2019
</metadata>
<g transform="translate(0.000000,55.000000) scale(0.100000,-0.100000)"
fill="#000000" stroke="none">
<path d="M63 543 l-63 -4 0 -89 0 -89 21 -11 20 -11 31 10 31 11 19 -20 18
-19 0 -31 0 -31 -19 -20 -19 -20 -48 3 -49 3 -3 -107 -3 -108 80 0 80 0 26 12
27 12 -4 55 -3 55 27 15 27 15 20 -18 21 -19 -6 -53 -7 -53 24 -9 24 -9 98 -5
99 -4 -7 116 -7 115 -10 13 -10 12 -20 0 -19 0 -20 -10 -19 -11 -20 11 -20 11
0 18 0 18 22 10 21 9 37 -10 37 -9 17 6 17 7 -3 112 -3 113 -85 -3 -85 -3 -19
-6 -18 -5 6 -49 7 -48 -20 -10 -20 -11 -25 0 -24 0 -17 6 -16 6 -15 29 -14 29
6 40 7 40 -34 -2 -34 -2 -62 -3z"/>
</g>
</svg>
