<?xml version="1.0" standalone="no"?>
<!DOCTYPE svg PUBLIC "-//W3C//DTD SVG 20010904//EN"
 "http://www.w3.org/TR/2001/REC-SVG-20010904/DTD/svg10.dtd">
<svg version="1.0" xmlns="http://www.w3.org/2000/svg"
 width="84.000000pt" height="81.000000pt" viewBox="0 0 84.000000 81.000000"
 preserveAspectRatio="xMidYMid meet">
<metadata>
Created by potrace 1.16, written by Peter Selinger 2001-2019
</metadata>
<g transform="translate(0.000000,81.000000) scale(0.100000,-0.100000)"
fill="#000000" stroke="none">
<path d="M393 799 l-12 -12 11 -17 11 -17 -7 -36 -7 -37 -22 -5 -22 -5 -85 -2
-85 -3 -5 -77 -5 -77 -17 -17 -17 -17 -41 12 -40 12 -19 -10 -19 -10 -6 -17
-6 -16 0 -22 0 -23 19 -18 20 -17 73 3 73 4 3 -46 3 -46 -14 -62 -15 -62 88 7
87 6 21 -7 22 -6 -6 -54 -7 -54 17 -26 16 -25 24 0 23 0 28 21 27 22 -4 76 -3
76 27 3 26 3 54 -14 53 -15 17 -7 17 -7 3 99 3 98 48 -3 49 -4 21 23 21 23 -1
38 -2 38 -20 22 -21 21 -34 -10 -33 -10 -17 9 -16 9 0 80 0 80 -75 -7 -76 -7
-25 13 -25 14 7 41 6 42 -27 22 -28 21 -21 0 -22 0 -11 -11z"/>
</g>
</svg>
