<?xml version="1.0" standalone="no"?>
<!DOCTYPE svg PUBLIC "-//W3C//DTD SVG 20010904//EN"
 "http://www.w3.org/TR/2001/REC-SVG-20010904/DTD/svg10.dtd">
<svg version="1.0" xmlns="http://www.w3.org/2000/svg"
 width="58.000000pt" height="82.000000pt" viewBox="0 0 58.000000 82.000000"
 preserveAspectRatio="xMidYMid meet">
<metadata>
Created by potrace 1.16, written by Peter Selinger 2001-2019
</metadata>
<g transform="translate(0.000000,82.000000) scale(0.100000,-0.100000)"
fill="#000000" stroke="none">
<path d="M236 797 l-26 -26 0 -47 0 -47 -99 6 -98 7 -6 -73 -6 -72 7 -40 7
-40 66 0 66 0 16 -14 17 -13 0 -9 0 -8 -22 -21 -23 -21 -61 6 -61 7 -7 -18 -7
-17 2 -92 1 -92 8 -12 7 -12 45 11 45 12 34 -4 34 -3 -3 -50 -3 -50 24 -29 24
-30 58 0 57 -1 23 29 23 29 7 34 6 33 -11 19 -10 20 19 6 19 6 67 -11 68 -11
2 3 2 3 17 76 18 76 -4 24 -3 24 -65 0 -65 1 -38 23 -37 23 0 33 0 33 14 11
14 12 35 -6 35 -7 21 7 21 6 15 29 15 29 0 61 0 60 -20 0 -19 0 -52 -11 -51
-11 -25 11 -24 11 11 19 10 20 0 20 0 20 -22 25 -23 26 -32 6 -32 6 -25 -25z"/>
</g>
</svg>
