<?xml version="1.0" standalone="no"?>
<!DOCTYPE svg PUBLIC "-//W3C//DTD SVG 20010904//EN"
 "http://www.w3.org/TR/2001/REC-SVG-20010904/DTD/svg10.dtd">
<svg version="1.0" xmlns="http://www.w3.org/2000/svg"
 width="56.000000pt" height="80.000000pt" viewBox="0 0 56.000000 80.000000"
 preserveAspectRatio="xMidYMid meet">
<metadata>
Created by potrace 1.16, written by Peter Selinger 2001-2019
</metadata>
<g transform="translate(0.000000,80.000000) scale(0.100000,-0.100000)"
fill="#000000" stroke="none">
<path d="M233 774 l-25 -26 5 -45 5 -46 -103 5 -102 6 -6 -62 -5 -61 7 -40 7
-40 58 3 58 3 24 -16 24 -15 0 -20 0 -19 -22 -22 -23 -21 -62 6 -62 7 -7 -26
-6 -25 5 -82 6 -83 0 -2 1 -2 32 10 33 9 42 0 41 0 15 -5 14 -6 -10 -43 -10
-44 21 -30 22 -30 34 -6 34 -6 24 9 25 9 15 24 15 23 6 24 6 23 -12 25 -11 24
15 10 14 10 64 -7 64 -6 12 -4 12 -5 0 13 1 13 17 63 16 63 -3 16 -3 17 -65 1
-65 0 -38 24 -37 23 0 44 0 44 24 15 25 16 21 -11 22 -12 24 6 24 6 15 30 15
29 0 52 0 52 -32 -7 -33 -7 -45 -5 -45 -6 -19 15 -20 14 13 32 13 31 -16 25
-17 26 -25 9 -25 10 -5 0 -5 0 -26 -26z"/>
</g>
</svg>
