<?xml version="1.0" standalone="no"?>
<!DOCTYPE svg PUBLIC "-//W3C//DTD SVG 20010904//EN"
 "http://www.w3.org/TR/2001/REC-SVG-20010904/DTD/svg10.dtd">
<svg version="1.0" xmlns="http://www.w3.org/2000/svg"
 width="81.000000pt" height="54.000000pt" viewBox="0 0 81.000000 54.000000"
 preserveAspectRatio="xMidYMid meet">
<metadata>
Created by potrace 1.16, written by Peter Selinger 2001-2019
</metadata>
<g transform="translate(0.000000,54.000000) scale(0.100000,-0.100000)"
fill="#000000" stroke="none">
<path d="M139 483 l0 -58 -12 -35 -12 -35 -55 0 -55 0 0 -70 0 -70 27 -3 28
-3 16 -57 17 -57 20 -41 20 -41 74 -7 75 -6 39 6 39 6 12 15 12 14 -12 33 -12
32 0 6 0 7 16 15 15 16 9 0 9 0 14 -15 15 -14 -5 -44 -5 -45 18 -5 19 -6 104
-6 103 -7 -5 28 -6 29 -5 55 -6 55 7 11 8 11 58 -1 59 -1 14 20 15 20 -3 50
-3 50 -60 0 -60 0 -13 40 -14 40 6 63 5 62 -264 0 -265 0 -1 -57z"/>
</g>
</svg>
