<?xml version="1.0" standalone="no"?>
<!DOCTYPE svg PUBLIC "-//W3C//DTD SVG 20010904//EN"
 "http://www.w3.org/TR/2001/REC-SVG-20010904/DTD/svg10.dtd">
<svg version="1.0" xmlns="http://www.w3.org/2000/svg"
 width="69.000000pt" height="54.000000pt" viewBox="0 0 69.000000 54.000000"
 preserveAspectRatio="xMidYMid meet">
<metadata>
Created by potrace 1.16, written by Peter Selinger 2001-2019
</metadata>
<g transform="translate(0.000000,54.000000) scale(0.100000,-0.100000)"
fill="#000000" stroke="none">
<path d="M89 533 l-66 -4 1 -102 1 -102 57 3 56 4 21 -11 21 -11 11 -21 11
-21 -23 -24 -23 -24 -39 -11 -39 -10 -29 11 -28 12 -10 -7 -11 -6 0 -53 0 -52
15 -53 16 -52 92 3 92 3 1 55 1 55 1 12 2 11 30 7 30 7 29 -7 28 -6 -1 -36 -1
-37 25 -12 25 -13 68 -15 69 -16 14 15 15 14 -21 60 -20 60 0 16 0 15 49 0 50
0 24 9 24 9 16 17 17 16 0 54 0 53 -15 6 -15 5 -29 -5 -28 -6 -22 27 -21 28 0
58 0 58 -9 5 -8 6 -71 6 -70 7 -26 -7 -26 -6 0 -18 0 -18 11 -11 10 -10 -14
-34 -14 -34 -27 -15 -27 -14 -17 10 -17 11 -12 37 -13 36 12 25 11 25 -6 6 -6
6 -43 3 -43 2 -66 -4z"/>
</g>
</svg>
