<?xml version="1.0" standalone="no"?>
<!DOCTYPE svg PUBLIC "-//W3C//DTD SVG 20010904//EN"
 "http://www.w3.org/TR/2001/REC-SVG-20010904/DTD/svg10.dtd">
<svg version="1.0" xmlns="http://www.w3.org/2000/svg"
 width="70.000000pt" height="55.000000pt" viewBox="0 0 70.000000 55.000000"
 preserveAspectRatio="xMidYMid meet">
<metadata>
Created by potrace 1.16, written by Peter Selinger 2001-2019
</metadata>
<g transform="translate(0.000000,55.000000) scale(0.100000,-0.100000)"
fill="#000000" stroke="none">
<path d="M205 541 l-60 -6 -5 -100 -5 -100 -59 4 -59 3 -8 -13 -9 -14 0 -36 0
-36 21 -18 20 -19 32 12 31 12 9 -9 9 -9 4 -63 5 -64 5 -30 4 -30 93 0 92 0
-3 45 -3 46 18 22 18 21 25 6 26 6 24 -26 25 -27 0 -56 0 -57 25 -4 25 -3 70
13 70 13 6 -2 7 -1 15 57 15 57 7 40 6 40 -14 18 -13 19 -41 -11 -41 -11 -26
12 -26 11 -6 23 -6 23 9 28 10 28 22 11 23 12 31 -9 31 -9 8 8 7 7 -7 80 -7
80 -22 -1 -23 0 -67 -2 -68 -2 -14 -9 -13 -8 11 -22 12 -21 -17 -25 -16 -25
-48 0 -47 0 -18 20 -18 20 6 39 5 39 -22 6 -21 6 -5 -2 -5 -1 -60 -6z"/>
</g>
</svg>
