<?xml version="1.0" standalone="no"?>
<!DOCTYPE svg PUBLIC "-//W3C//DTD SVG 20010904//EN"
 "http://www.w3.org/TR/2001/REC-SVG-20010904/DTD/svg10.dtd">
<svg version="1.0" xmlns="http://www.w3.org/2000/svg"
 width="72.000000pt" height="57.000000pt" viewBox="0 0 72.000000 57.000000"
 preserveAspectRatio="xMidYMid meet">
<metadata>
Created by potrace 1.16, written by Peter Selinger 2001-2019
</metadata>
<g transform="translate(0.000000,57.000000) scale(0.100000,-0.100000)"
fill="#000000" stroke="none">
<path d="M205 561 l-60 -6 -3 -97 -3 -98 -63 0 -64 0 -6 -16 -6 -16 0 -42 0
-43 20 -18 19 -18 40 7 39 6 6 -31 6 -31 0 -47 0 -46 6 -20 5 -20 102 0 102 0
-3 44 -3 44 15 22 15 22 20 6 20 5 23 -25 23 -25 0 -56 0 -57 30 -4 30 -3 82
12 81 13 16 56 15 56 6 50 6 50 -14 19 -15 20 -44 -10 -44 -10 -22 9 -22 10
-5 18 -6 19 13 27 14 28 54 0 55 0 -4 90 -3 90 -5 8 -4 7 -87 -6 -87 -5 -24
-5 -23 -5 6 -30 6 -31 -10 -19 -11 -19 -38 0 -38 0 -17 19 -18 20 7 39 6 39
-23 7 -23 6 -15 -2 -15 -1 -60 -6z"/>
</g>
</svg>
