<?xml version="1.0" standalone="no"?>
<!DOCTYPE svg PUBLIC "-//W3C//DTD SVG 20010904//EN"
 "http://www.w3.org/TR/2001/REC-SVG-20010904/DTD/svg10.dtd">
<svg version="1.0" xmlns="http://www.w3.org/2000/svg"
 width="79.000000pt" height="68.000000pt" viewBox="0 0 79.000000 68.000000"
 preserveAspectRatio="xMidYMid meet">
<metadata>
Created by potrace 1.16, written by Peter Selinger 2001-2019
</metadata>
<g transform="translate(0.000000,68.000000) scale(0.100000,-0.100000)"
fill="#000000" stroke="none">
<path d="M201 673 l-74 -4 6 -84 6 -84 -8 -5 -8 -5 -30 8 -31 9 -23 -12 -22
-11 -10 -28 -9 -28 6 -23 6 -23 26 -11 26 -12 41 11 41 11 13 -18 13 -18 0
-10 0 -11 -14 -65 -14 -65 -7 -17 -6 -16 69 0 70 0 22 -12 21 -11 -6 -53 -7
-53 23 -17 23 -16 38 0 37 0 11 19 10 20 -10 27 -11 27 5 13 5 12 43 7 43 7
66 14 66 15 0 12 1 12 12 77 12 78 14 11 14 11 14 -11 15 -12 20 11 21 10 10
20 10 19 0 29 0 30 -16 13 -16 13 -45 -12 -45 -13 -14 12 -14 11 0 89 0 89 -5
0 -6 0 -27 -14 -27 -13 -50 -12 -50 -12 -12 -11 -12 -10 12 -19 12 -19 -20
-14 -20 -15 -56 -1 -57 0 -12 15 -13 15 5 65 6 65 -17 -2 -16 -2 -74 -3z"/>
</g>
</svg>
