<?xml version="1.0" standalone="no"?>
<!DOCTYPE svg PUBLIC "-//W3C//DTD SVG 20010904//EN"
 "http://www.w3.org/TR/2001/REC-SVG-20010904/DTD/svg10.dtd">
<svg version="1.0" xmlns="http://www.w3.org/2000/svg"
 width="53.000000pt" height="55.000000pt" viewBox="0 0 53.000000 55.000000"
 preserveAspectRatio="xMidYMid meet">
<metadata>
Created by potrace 1.16, written by Peter Selinger 2001-2019
</metadata>
<g transform="translate(0.000000,55.000000) scale(0.100000,-0.100000)"
fill="#000000" stroke="none">
<path d="M70 543 l-66 -4 4 -102 4 -102 14 -15 14 -14 46 12 46 13 14 -12 14
-11 0 -22 0 -22 -16 -22 -16 -23 -32 6 -32 7 -11 -14 -11 -13 -12 -75 -12 -75
-2 -20 -1 -20 62 -3 62 -3 40 11 39 10 17 26 17 26 -4 39 -3 39 13 5 13 5 28
-15 29 -14 6 -16 6 -15 -6 -44 -6 -43 31 -12 31 -13 65 7 65 7 0 15 0 15 -15
56 -16 57 -10 38 -10 37 -41 -2 -42 -3 -9 26 -10 26 6 25 7 26 16 6 15 6 45
-11 44 -11 15 6 15 5 0 102 0 101 -17 -5 -18 -6 -70 -20 -69 -21 -15 -15 -15
-14 13 -27 12 -27 -8 -8 -8 -7 -37 -7 -36 -7 -22 22 -23 23 6 62 6 63 -31 6
-30 6 -17 -2 -16 -2 -65 -3z"/>
</g>
</svg>
