<?xml version="1.0" standalone="no"?>
<!DOCTYPE svg PUBLIC "-//W3C//DTD SVG 20010904//EN"
 "http://www.w3.org/TR/2001/REC-SVG-20010904/DTD/svg10.dtd">
<svg version="1.0" xmlns="http://www.w3.org/2000/svg"
 width="70.000000pt" height="65.000000pt" viewBox="0 0 70.000000 65.000000"
 preserveAspectRatio="xMidYMid meet">
<metadata>
Created by potrace 1.16, written by Peter Selinger 2001-2019
</metadata>
<g transform="translate(0.000000,65.000000) scale(0.100000,-0.100000)"
fill="#000000" stroke="none">
<path d="M390 641 l-25 -8 5 -14 4 -14 0 -32 0 -33 -24 -25 -23 -25 -38 0 -38
0 -22 31 -22 32 10 39 11 40 -13 4 -12 5 -84 -3 -84 -3 -3 -80 -3 -80 14 -19
14 -19 32 11 32 11 19 -19 20 -20 0 -24 0 -25 -27 -21 -27 -21 -51 3 -50 3 -3
-45 -4 -45 17 -62 17 -61 31 9 32 9 66 0 65 0 0 -49 -1 -49 19 -21 19 -21 37
0 36 0 18 13 18 13 -1 40 -2 39 -2 25 -2 25 34 3 34 4 42 -11 42 -11 17 -6 16
-6 19 43 19 44 12 57 11 56 15 12 14 12 14 -11 14 -12 16 16 16 16 0 29 0 29
-16 16 -17 17 -21 -7 -21 -7 -25 -2 -24 -1 -13 25 -13 25 0 73 0 73 -12 3 -13
4 -55 5 -55 5 -25 -7z"/>
</g>
</svg>
