<?xml version="1.0" standalone="no"?>
<!DOCTYPE svg PUBLIC "-//W3C//DTD SVG 20010904//EN"
 "http://www.w3.org/TR/2001/REC-SVG-20010904/DTD/svg10.dtd">
<svg version="1.0" xmlns="http://www.w3.org/2000/svg"
 width="83.000000pt" height="69.000000pt" viewBox="0 0 83.000000 69.000000"
 preserveAspectRatio="xMidYMid meet">
<metadata>
Created by potrace 1.16, written by Peter Selinger 2001-2019
</metadata>
<g transform="translate(0.000000,69.000000) scale(0.100000,-0.100000)"
fill="#000000" stroke="none">
<path d="M223 683 l-63 -4 0 -105 0 -105 -15 -5 -14 -6 -34 11 -34 12 -26 -12
-26 -12 -5 -14 -6 -14 10 -19 10 -19 21 -6 20 -7 30 12 29 12 14 -11 13 -11 7
-102 6 -102 4 -3 3 -3 92 8 92 8 -7 -29 -6 -29 6 -42 7 -43 20 -22 20 -21 14
0 14 0 28 24 28 24 0 79 1 78 32 3 33 3 51 -15 52 -15 7 4 6 5 -5 69 -5 69 7
26 7 27 62 -7 62 -6 23 21 22 22 0 19 0 20 -25 16 -25 16 -54 -6 -54 -7 -8 13
-8 13 1 92 2 92 -62 6 -62 7 -35 -4 -35 -3 3 -52 4 -51 -26 -17 -26 -17 -33 6
-34 6 -13 25 -13 24 7 40 6 41 -27 -2 -28 -2 -62 -3z"/>
</g>
</svg>
