<?xml version="1.0" standalone="no"?>
<!DOCTYPE svg PUBLIC "-//W3C//DTD SVG 20010904//EN"
 "http://www.w3.org/TR/2001/REC-SVG-20010904/DTD/svg10.dtd">
<svg version="1.0" xmlns="http://www.w3.org/2000/svg"
 width="68.000000pt" height="70.000000pt" viewBox="0 0 68.000000 70.000000"
 preserveAspectRatio="xMidYMid meet">
<metadata>
Created by potrace 1.16, written by Peter Selinger 2001-2019
</metadata>
<g transform="translate(0.000000,70.000000) scale(0.100000,-0.100000)"
fill="#000000" stroke="none">
<path d="M4 653 l-7 -45 7 -56 7 -57 22 -18 22 -18 53 6 52 5 0 -23 0 -23 -11
-11 -10 -10 -43 4 -43 5 -7 -17 -6 -18 -10 -71 -10 -71 -12 -28 -11 -29 13 -8
14 -8 87 5 87 6 -5 -46 -5 -46 6 -25 6 -25 16 -15 15 -16 49 0 49 0 11 21 11
20 -2 57 -3 57 100 5 99 5 0 94 0 95 51 -3 51 -2 16 25 17 25 0 43 0 44 -16
22 -15 22 -56 0 -56 0 6 75 5 75 -12 0 -13 0 -77 -20 -77 -19 -11 -7 -10 -6 6
-28 5 -28 -22 -6 -22 -6 -30 0 -31 0 -11 11 -10 10 5 44 5 45 -24 8 -24 9 -92
5 -92 5 -7 -44z"/>
</g>
</svg>
