<?xml version="1.0" standalone="no"?>
<!DOCTYPE svg PUBLIC "-//W3C//DTD SVG 20010904//EN"
 "http://www.w3.org/TR/2001/REC-SVG-20010904/DTD/svg10.dtd">
<svg version="1.0" xmlns="http://www.w3.org/2000/svg"
 width="67.000000pt" height="54.000000pt" viewBox="0 0 67.000000 54.000000"
 preserveAspectRatio="xMidYMid meet">
<metadata>
Created by potrace 1.16, written by Peter Selinger 2001-2019
</metadata>
<g transform="translate(0.000000,54.000000) scale(0.100000,-0.100000)"
fill="#000000" stroke="none">
<path d="M83 533 l-73 -4 0 -109 0 -109 11 -6 10 -7 30 12 29 12 25 -16 25
-16 0 -10 0 -10 -20 -20 -21 -21 -47 3 -47 3 -1 -117 -1 -118 84 0 85 0 35 17
35 16 -4 49 -5 49 19 10 20 11 24 -6 23 -6 -5 -29 -6 -29 10 -19 11 -19 101
-18 100 -19 7 7 6 6 -11 51 -12 51 0 40 0 41 42 -6 42 -6 33 14 33 14 0 55 0
56 -21 21 -21 21 -41 -4 -42 -3 -3 79 -3 79 -90 -7 -89 -7 -16 -6 -16 -6 6
-38 6 -38 -11 -6 -10 -7 -36 -1 -35 -1 -15 19 -15 20 6 48 5 47 -37 -2 -37 -2
-72 -3z"/>
</g>
</svg>
