<?xml version="1.0" standalone="no"?>
<!DOCTYPE svg PUBLIC "-//W3C//DTD SVG 20010904//EN"
 "http://www.w3.org/TR/2001/REC-SVG-20010904/DTD/svg10.dtd">
<svg version="1.0" xmlns="http://www.w3.org/2000/svg"
 width="55.000000pt" height="71.000000pt" viewBox="0 0 55.000000 71.000000"
 preserveAspectRatio="xMidYMid meet">
<metadata>
Created by potrace 1.16, written by Peter Selinger 2001-2019
</metadata>
<g transform="translate(0.000000,71.000000) scale(0.100000,-0.100000)"
fill="#000000" stroke="none">
<path d="M331 701 l-13 -9 13 -51 13 -50 -19 -21 -18 -20 -32 0 -32 0 -21 18
-21 18 6 41 5 40 -23 17 -23 16 -76 0 -76 0 4 -87 4 -88 11 -13 11 -13 15 4
16 5 17 7 16 7 21 -21 21 -21 0 -35 0 -34 -21 -11 -20 -11 -52 3 -52 3 1 -80
2 -80 1 -36 2 -35 82 4 82 4 23 -19 23 -18 -10 -28 -11 -28 0 -29 0 -29 19
-11 20 -10 33 0 34 0 20 14 19 14 -1 64 0 63 10 7 11 8 86 0 86 0 7 46 6 47 0
51 0 51 -9 14 -9 14 -36 -7 -35 -7 -30 15 -29 15 -6 16 -6 17 9 16 9 16 44 -3
44 -2 19 21 20 22 3 93 4 92 -39 6 -38 7 -60 0 -60 0 -14 -9z"/>
</g>
</svg>
