<?xml version="1.0" standalone="no"?>
<!DOCTYPE svg PUBLIC "-//W3C//DTD SVG 20010904//EN"
 "http://www.w3.org/TR/2001/REC-SVG-20010904/DTD/svg10.dtd">
<svg version="1.0" xmlns="http://www.w3.org/2000/svg"
 width="53.000000pt" height="69.000000pt" viewBox="0 0 53.000000 69.000000"
 preserveAspectRatio="xMidYMid meet">
<metadata>
Created by potrace 1.16, written by Peter Selinger 2001-2019
</metadata>
<g transform="translate(0.000000,69.000000) scale(0.100000,-0.100000)"
fill="#000000" stroke="none">
<path d="M332 682 l-13 -9 11 -27 10 -27 0 -28 0 -28 -18 -16 -19 -17 -40 0
-40 0 -22 20 -23 19 7 39 6 40 -23 16 -22 16 -66 0 -65 0 3 -77 4 -78 10 -12
10 -13 18 10 19 10 15 0 16 0 20 -20 20 -20 0 -45 0 -46 -31 -13 -32 -13 -35
8 -36 8 -9 -6 -9 -6 7 -76 6 -76 1 -25 1 -25 82 3 81 3 23 -19 24 -18 -14 -53
-13 -53 19 -14 19 -14 24 0 23 0 19 10 19 10 6 33 6 32 -11 30 -11 29 17 13
18 13 87 0 86 0 7 46 6 47 0 38 0 37 -6 16 -6 16 -38 -6 -37 -6 -31 16 -32 16
-6 24 -6 24 11 21 11 21 43 -6 42 -6 20 22 20 22 3 83 4 82 -39 6 -38 7 -50 0
-50 0 -13 -8z"/>
</g>
</svg>
