<?xml version="1.0" standalone="no"?>
<!DOCTYPE svg PUBLIC "-//W3C//DTD SVG 20010904//EN"
 "http://www.w3.org/TR/2001/REC-SVG-20010904/DTD/svg10.dtd">
<svg version="1.0" xmlns="http://www.w3.org/2000/svg"
 width="69.000000pt" height="67.000000pt" viewBox="0 0 69.000000 67.000000"
 preserveAspectRatio="xMidYMid meet">
<metadata>
Created by potrace 1.16, written by Peter Selinger 2001-2019
</metadata>
<g transform="translate(0.000000,67.000000) scale(0.100000,-0.100000)"
fill="#000000" stroke="none">
<path d="M16 654 l-6 -16 1 -61 0 -62 12 -35 12 -35 60 0 60 0 3 -30 3 -30
-14 -18 -13 -19 -25 0 -24 -1 -32 8 -31 7 -12 -21 -11 -22 7 -92 6 -93 87 4
86 4 -3 -49 -4 -50 29 -23 28 -22 52 4 53 5 20 24 21 23 -2 56 -3 55 23 3 22
4 46 -16 47 -16 22 0 21 0 23 72 22 73 7 25 8 25 34 0 34 0 0 80 0 80 -52 0
-52 0 -17 17 -17 17 0 70 0 71 -262 0 -263 0 -6 -16z"/>
</g>
</svg>
