<?xml version="1.0" standalone="no"?>
<!DOCTYPE svg PUBLIC "-//W3C//DTD SVG 20010904//EN"
 "http://www.w3.org/TR/2001/REC-SVG-20010904/DTD/svg10.dtd">
<svg version="1.0" xmlns="http://www.w3.org/2000/svg"
 width="66.000000pt" height="52.000000pt" viewBox="0 0 66.000000 52.000000"
 preserveAspectRatio="xMidYMid meet">
<metadata>
Created by potrace 1.16, written by Peter Selinger 2001-2019
</metadata>
<g transform="translate(0.000000,52.000000) scale(0.100000,-0.100000)"
fill="#000000" stroke="none">
<path d="M6 504 l-6 -16 0 -42 0 -43 11 -32 11 -32 58 7 57 6 17 -23 16 -23 0
-28 0 -28 -27 -17 -27 -18 -56 0 -55 0 -2 -105 -2 -105 84 5 84 5 13 13 12 12
-13 35 -12 34 10 19 10 20 17 6 16 6 33 0 33 0 12 -15 12 -14 -7 -20 -6 -20
10 -20 11 -20 48 -6 47 -7 39 -10 40 -10 12 17 13 17 6 57 7 56 10 39 9 38 43
-6 43 -7 12 15 12 15 -3 33 -3 33 -20 -3 -20 -2 -30 -5 -30 -6 -25 20 -25 20
0 83 0 84 -80 -8 -80 -8 -13 -5 -12 -4 6 -40 6 -39 -20 -22 -20 -22 -36 0 -37
0 -14 12 -15 13 6 48 7 49 -36 15 -36 15 -60 0 -59 0 -6 -16z"/>
</g>
</svg>
