<?xml version="1.0" standalone="no"?>
<!DOCTYPE svg PUBLIC "-//W3C//DTD SVG 20010904//EN"
 "http://www.w3.org/TR/2001/REC-SVG-20010904/DTD/svg10.dtd">
<svg version="1.0" xmlns="http://www.w3.org/2000/svg"
 width="65.000000pt" height="67.000000pt" viewBox="0 0 65.000000 67.000000"
 preserveAspectRatio="xMidYMid meet">
<metadata>
Created by potrace 1.16, written by Peter Selinger 2001-2019
</metadata>
<g transform="translate(0.000000,67.000000) scale(0.100000,-0.100000)"
fill="#000000" stroke="none">
<path d="M6 648 l-6 -23 0 -60 0 -60 54 3 54 4 16 -23 16 -23 0 -34 0 -33 -17
-25 -16 -26 -51 4 -51 3 -1 -100 0 -100 79 3 79 4 23 -6 24 -6 6 -21 7 -22
-12 -38 -13 -38 13 -16 12 -15 43 0 42 0 18 20 18 20 -13 15 -12 15 10 13 11
13 53 13 53 14 28 14 27 14 0 17 0 17 -15 49 -15 49 0 41 0 41 9 14 9 13 34
-12 35 -13 27 7 27 7 19 19 20 20 -11 24 -12 25 -29 12 -29 12 -36 -11 -35
-11 4 95 3 94 -15 -6 -15 -7 -80 -24 -80 -24 -8 -8 -9 -9 11 -20 11 -21 0 -5
0 -5 -16 -15 -15 -16 -33 0 -32 0 -23 22 -24 21 6 64 6 63 -88 0 -89 0 -6 -22z"/>
</g>
</svg>
