<?xml version="1.0" standalone="no"?>
<!DOCTYPE svg PUBLIC "-//W3C//DTD SVG 20010904//EN"
 "http://www.w3.org/TR/2001/REC-SVG-20010904/DTD/svg10.dtd">
<svg version="1.0" xmlns="http://www.w3.org/2000/svg"
 width="57.000000pt" height="55.000000pt" viewBox="0 0 57.000000 55.000000"
 preserveAspectRatio="xMidYMid meet">
<metadata>
Created by potrace 1.16, written by Peter Selinger 2001-2019
</metadata>
<g transform="translate(0.000000,55.000000) scale(0.100000,-0.100000)"
fill="#000000" stroke="none">
<path d="M50 476 l0 -73 21 -27 20 -26 45 0 44 0 0 -35 0 -34 -22 -20 -22 -21
-30 -5 -31 -5 -35 3 -35 2 -3 -33 -3 -33 14 -50 15 -50 -5 -18 -5 -18 24 -6
23 -7 86 0 87 0 12 15 13 16 -13 55 -13 55 9 8 9 9 20 2 20 2 12 -1 12 -1 13
-22 13 -23 0 -65 0 -65 58 -3 59 -3 54 11 54 11 -6 62 -5 62 -5 43 -5 43 -15
6 -15 6 -26 -12 -26 -12 -18 17 -19 17 0 26 0 26 9 13 8 14 59 -4 59 -3 3 108
3 107 -12 0 -11 0 -56 -15 -57 -16 -38 -10 -38 -10 1 -22 2 -22 -1 -12 -1 -13
-31 0 -30 0 -20 10 -19 11 10 19 10 19 0 21 0 21 -35 15 -34 14 -81 0 -80 0 0
-74z"/>
</g>
</svg>
