<?xml version="1.0" standalone="no"?>
<!DOCTYPE svg PUBLIC "-//W3C//DTD SVG 20010904//EN"
 "http://www.w3.org/TR/2001/REC-SVG-20010904/DTD/svg10.dtd">
<svg version="1.0" xmlns="http://www.w3.org/2000/svg"
 width="55.000000pt" height="53.000000pt" viewBox="0 0 55.000000 53.000000"
 preserveAspectRatio="xMidYMid meet">
<metadata>
Created by potrace 1.16, written by Peter Selinger 2001-2019
</metadata>
<g transform="translate(0.000000,53.000000) scale(0.100000,-0.100000)"
fill="#000000" stroke="none">
<path d="M50 466 l0 -63 21 -27 21 -27 32 1 31 2 13 -1 12 -1 0 -44 0 -45 -17
-16 -16 -17 -26 -10 -26 -9 -45 3 -45 3 -3 -26 -3 -26 19 -57 19 -57 -10 -6
-11 -6 20 -8 19 -8 81 0 82 -1 11 14 12 15 -11 38 -12 39 4 24 3 24 30 8 30 8
18 -6 17 -5 16 -30 15 -30 -3 -57 -3 -57 48 -3 48 -3 53 11 53 11 -4 52 -4 52
-5 42 -5 43 -8 4 -8 5 -31 -11 -31 -12 -20 19 -21 18 0 36 0 36 9 14 8 13 59
-3 59 -4 3 99 3 98 -18 -7 -18 -6 -65 -15 -66 -15 -14 -9 -14 -8 13 -16 13
-15 -15 -16 -16 -15 -38 0 -39 0 -19 14 -19 14 12 26 12 27 0 10 0 10 -35 15
-34 14 -71 0 -70 0 0 -64z"/>
</g>
</svg>
