<?xml version="1.0" standalone="no"?>
<!DOCTYPE svg PUBLIC "-//W3C//DTD SVG 20010904//EN"
 "http://www.w3.org/TR/2001/REC-SVG-20010904/DTD/svg10.dtd">
<svg version="1.0" xmlns="http://www.w3.org/2000/svg"
 width="79.000000pt" height="70.000000pt" viewBox="0 0 79.000000 70.000000"
 preserveAspectRatio="xMidYMid meet">
<metadata>
Created by potrace 1.16, written by Peter Selinger 2001-2019
</metadata>
<g transform="translate(0.000000,70.000000) scale(0.100000,-0.100000)"
fill="#000000" stroke="none">
<path d="M144 604 l7 -95 -21 11 -22 12 -34 -6 -33 -7 -21 -26 -20 -26 0 -31
0 -32 16 -23 17 -23 33 5 33 6 9 -12 10 -12 7 -65 7 -65 9 -22 9 -23 78 0 78
0 21 -15 21 -15 -5 -61 -6 -61 14 -9 14 -9 37 0 38 0 16 25 17 25 -6 40 -5 39
16 5 17 5 78 12 79 12 5 12 4 13 -16 56 -16 55 3 38 3 38 50 -3 50 -3 28 21
27 21 0 35 0 34 -20 20 -20 20 -9 0 -10 0 -25 -10 -26 -9 -10 19 -10 19 0 75
0 76 -12 0 -13 0 -91 -19 -91 -18 -12 -7 -12 -8 6 -37 6 -38 -15 -12 -15 -13
-21 7 -20 6 -11 21 -11 21 6 54 6 53 -111 0 -112 0 7 -96z"/>
</g>
</svg>
