<?xml version="1.0" standalone="no"?>
<!DOCTYPE svg PUBLIC "-//W3C//DTD SVG 20010904//EN"
 "http://www.w3.org/TR/2001/REC-SVG-20010904/DTD/svg10.dtd">
<svg version="1.0" xmlns="http://www.w3.org/2000/svg"
 width="77.000000pt" height="68.000000pt" viewBox="0 0 77.000000 68.000000"
 preserveAspectRatio="xMidYMid meet">
<metadata>
Created by potrace 1.16, written by Peter Selinger 2001-2019
</metadata>
<g transform="translate(0.000000,68.000000) scale(0.100000,-0.100000)"
fill="#000000" stroke="none">
<path d="M145 583 l8 -96 -24 8 -24 8 -29 0 -30 0 -23 -27 -23 -27 0 -22 0
-23 16 -22 16 -23 29 6 30 7 13 -11 14 -12 7 -66 7 -67 9 -23 9 -23 78 0 78 0
22 -16 23 -16 -7 -60 -7 -60 14 -9 14 -9 27 0 28 0 16 25 16 24 -7 40 -6 39
18 5 18 6 78 12 78 12 4 7 4 6 -15 52 -15 51 3 48 3 48 50 -3 51 -3 27 21 27
21 0 25 0 24 -20 20 -19 19 -32 -11 -32 -11 -14 18 -13 19 0 78 0 78 -2 0 -3
0 -93 -19 -94 -19 -10 -10 -10 -10 10 -18 10 -19 -9 -22 -8 -22 -20 -11 -21
-11 -25 17 -25 16 -9 34 -9 34 9 33 9 32 0 2 0 3 -101 0 -101 0 7 -97z"/>
</g>
</svg>
