<?xml version="1.0" standalone="no"?>
<!DOCTYPE svg PUBLIC "-//W3C//DTD SVG 20010904//EN"
 "http://www.w3.org/TR/2001/REC-SVG-20010904/DTD/svg10.dtd">
<svg version="1.0" xmlns="http://www.w3.org/2000/svg"
 width="67.000000pt" height="54.000000pt" viewBox="0 0 67.000000 54.000000"
 preserveAspectRatio="xMidYMid meet">
<metadata>
Created by potrace 1.16, written by Peter Selinger 2001-2019
</metadata>
<g transform="translate(0.000000,54.000000) scale(0.100000,-0.100000)"
fill="#000000" stroke="none">
<path d="M0 453 l0 -88 13 -25 12 -25 27 -3 27 -3 20 10 20 11 15 -16 16 -15
0 -14 0 -13 -6 -16 -6 -15 -27 5 -27 6 -11 -14 -11 -13 -16 -68 -16 -68 -15
-29 -15 -29 0 -11 0 -10 80 0 79 0 25 11 25 12 3 46 3 46 33 3 33 3 15 -12 14
-11 0 -33 0 -33 13 -10 12 -10 75 -5 75 -5 21 -7 21 -6 17 78 17 78 10 23 9
23 35 -7 34 -6 8 28 8 29 -1 47 0 47 -14 16 -13 16 -56 -3 -56 -3 -3 83 -3 82
-2 0 -2 0 -98 -25 -98 -25 -11 -6 -10 -6 6 -29 5 -29 -20 -10 -20 -11 -22 7
-22 6 -18 16 -18 16 7 44 7 44 -14 9 -14 9 -87 0 -88 0 0 -87z"/>
</g>
</svg>
