<?xml version="1.0" standalone="no"?>
<!DOCTYPE svg PUBLIC "-//W3C//DTD SVG 20010904//EN"
 "http://www.w3.org/TR/2001/REC-SVG-20010904/DTD/svg10.dtd">
<svg version="1.0" xmlns="http://www.w3.org/2000/svg"
 width="53.000000pt" height="57.000000pt" viewBox="0 0 53.000000 57.000000"
 preserveAspectRatio="xMidYMid meet">
<metadata>
Created by potrace 1.16, written by Peter Selinger 2001-2019
</metadata>
<g transform="translate(0.000000,57.000000) scale(0.100000,-0.100000)"
fill="#000000" stroke="none">
<path d="M7 564 l-7 -7 0 -262 0 -262 73 4 72 4 33 5 33 5 11 25 11 24 -12 42
-13 42 18 13 18 13 14 0 13 0 20 -11 20 -10 9 -24 9 -24 -11 -61 -12 -61 15
-10 14 -9 39 0 40 0 56 16 57 16 -5 96 -4 97 -13 14 -14 14 -29 -12 -30 -13
-25 17 -26 16 -6 28 -6 28 7 27 6 27 19 10 19 10 21 -11 21 -12 22 6 23 6 11
25 12 26 0 69 0 70 -89 0 -90 0 -27 -10 -26 -10 7 -33 7 -32 -1 -24 -1 -24
-17 -19 -17 -19 -30 3 -31 3 3 60 4 60 -22 20 -22 20 -82 3 -81 4 -8 -8z"/>
</g>
</svg>
