<?xml version="1.0" standalone="no"?>
<!DOCTYPE svg PUBLIC "-//W3C//DTD SVG 20010904//EN"
 "http://www.w3.org/TR/2001/REC-SVG-20010904/DTD/svg10.dtd">
<svg version="1.0" xmlns="http://www.w3.org/2000/svg"
 width="66.000000pt" height="65.000000pt" viewBox="0 0 66.000000 65.000000"
 preserveAspectRatio="xMidYMid meet">
<metadata>
Created by potrace 1.16, written by Peter Selinger 2001-2019
</metadata>
<g transform="translate(0.000000,65.000000) scale(0.100000,-0.100000)"
fill="#000000" stroke="none">
<path d="M140 586 l0 -65 -10 -26 -10 -27 -58 4 -57 3 -3 -51 -3 -50 11 -28
10 -27 11 6 10 7 24 -6 23 -6 18 -77 18 -78 -3 -13 -2 -13 85 2 84 1 11 -6 11
-7 0 -19 0 -19 -12 -26 -12 -26 16 -16 16 -15 57 -2 57 -1 14 20 15 20 -3 55
-3 55 50 0 50 -1 40 -4 40 -5 12 55 13 55 -3 50 -2 50 -73 -4 -73 -3 -20 17
-19 18 0 23 0 22 6 16 6 17 19 10 19 10 41 -13 42 -12 18 23 19 23 0 72 0 71
-77 -4 -78 -3 -21 -9 -22 -8 5 -44 5 -45 -26 -17 -26 -18 -41 6 -41 5 -10 10
-10 10 12 22 12 22 -7 25 -6 24 -34 15 -34 14 -51 0 -50 0 0 -64z"/>
</g>
</svg>
