<?xml version="1.0" standalone="no"?>
<!DOCTYPE svg PUBLIC "-//W3C//DTD SVG 20010904//EN"
 "http://www.w3.org/TR/2001/REC-SVG-20010904/DTD/svg10.dtd">
<svg version="1.0" xmlns="http://www.w3.org/2000/svg"
 width="70.000000pt" height="56.000000pt" viewBox="0 0 70.000000 56.000000"
 preserveAspectRatio="xMidYMid meet">
<metadata>
Created by potrace 1.16, written by Peter Selinger 2001-2019
</metadata>
<g transform="translate(0.000000,56.000000) scale(0.100000,-0.100000)"
fill="#000000" stroke="none">
<path d="M178 454 l5 -107 -64 7 -64 6 -25 -13 -25 -13 0 -33 0 -34 28 -20 27
-21 40 11 40 10 11 -13 10 -13 2 -99 2 -98 80 3 80 4 33 5 32 5 16 25 17 24
-7 40 -6 40 15 0 14 0 13 -22 13 -23 0 -60 0 -60 55 -2 55 -3 55 13 55 13 -2
19 -2 20 -28 80 -28 80 -35 0 -35 0 -12 8 -13 8 0 51 0 51 16 18 17 18 58 -6
58 -6 11 44 12 44 -6 44 -6 44 -4 5 -5 4 -87 -12 -88 -11 -19 -11 -19 -10 5
-27 6 -28 -12 -12 -11 -11 -21 0 -20 0 -30 24 -30 24 14 26 14 25 -13 16 -12
15 -93 0 -92 0 5 -106z"/>
</g>
</svg>
