<?xml version="1.0" standalone="no"?>
<!DOCTYPE svg PUBLIC "-//W3C//DTD SVG 20010904//EN"
 "http://www.w3.org/TR/2001/REC-SVG-20010904/DTD/svg10.dtd">
<svg version="1.0" xmlns="http://www.w3.org/2000/svg"
 width="55.000000pt" height="51.000000pt" viewBox="0 0 55.000000 51.000000"
 preserveAspectRatio="xMidYMid meet">
<metadata>
Created by potrace 1.16, written by Peter Selinger 2001-2019
</metadata>
<g transform="translate(0.000000,51.000000) scale(0.100000,-0.100000)"
fill="#000000" stroke="none">
<path d="M6 485 l-7 -26 7 -49 6 -49 18 -16 17 -15 49 2 49 3 3 -64 3 -64 -9
-9 -10 -10 -20 11 -20 11 -10 -13 -10 -12 -21 -75 -22 -75 -6 -19 -6 -18 73 4
72 4 25 28 25 29 -4 29 -5 28 42 0 42 0 26 -21 27 -20 -13 -20 -12 -20 17 -13
18 -13 77 -6 78 -6 13 13 13 13 12 66 11 65 -13 16 -13 15 -58 -6 -58 -6 -26
26 -26 26 0 24 0 24 21 27 21 27 43 -7 43 -6 17 25 16 25 -3 68 -3 69 -251 3
-252 2 -6 -25z"/>
</g>
</svg>
