<?xml version="1.0" standalone="no"?>
<!DOCTYPE svg PUBLIC "-//W3C//DTD SVG 20010904//EN"
 "http://www.w3.org/TR/2001/REC-SVG-20010904/DTD/svg10.dtd">
<svg version="1.0" xmlns="http://www.w3.org/2000/svg"
 width="53.000000pt" height="83.000000pt" viewBox="0 0 53.000000 83.000000"
 preserveAspectRatio="xMidYMid meet">
<metadata>
Created by potrace 1.16, written by Peter Selinger 2001-2019
</metadata>
<g transform="translate(0.000000,83.000000) scale(0.100000,-0.100000)"
fill="#000000" stroke="none">
<path d="M199 809 l-21 -21 7 -21 7 -22 5 -22 5 -21 -19 -11 -20 -10 -82 -2
-83 -2 4 -84 3 -85 24 -19 24 -20 31 7 31 7 19 1 20 1 15 -26 15 -27 -18 -27
-18 -28 -64 7 -64 7 -10 -26 -10 -26 0 -69 0 -68 5 -14 5 -13 106 3 106 3 -8
-33 -8 -33 1 -23 1 -22 6 -26 7 -25 22 -8 22 -8 30 8 30 9 18 23 18 22 -6 69
-7 69 64 -7 63 -6 29 -7 29 -6 -6 17 -7 18 0 62 0 62 -13 18 -13 17 -26 -12
-27 -12 -32 19 -32 19 -10 29 -10 30 29 24 28 24 58 -6 58 -6 0 103 0 103 -62
12 -63 12 -38 6 -38 6 -10 20 -10 19 6 20 7 20 -12 14 -12 15 -39 0 -39 0 -21
-21z"/>
</g>
</svg>
