<?xml version="1.0" standalone="no"?>
<!DOCTYPE svg PUBLIC "-//W3C//DTD SVG 20010904//EN"
 "http://www.w3.org/TR/2001/REC-SVG-20010904/DTD/svg10.dtd">
<svg version="1.0" xmlns="http://www.w3.org/2000/svg"
 width="55.000000pt" height="85.000000pt" viewBox="0 0 55.000000 85.000000"
 preserveAspectRatio="xMidYMid meet">
<metadata>
Created by potrace 1.16, written by Peter Selinger 2001-2019
</metadata>
<g transform="translate(0.000000,85.000000) scale(0.100000,-0.100000)"
fill="#000000" stroke="none">
<path d="M200 830 l-20 -20 0 -21 0 -20 11 -21 12 -21 -19 -14 -18 -13 -83 0
-83 0 0 -79 0 -80 10 -25 10 -26 24 -11 25 -12 41 11 40 10 15 -21 15 -21 -14
-21 -14 -20 -66 3 -66 3 -10 -26 -10 -26 0 -79 0 -78 5 -14 5 -13 105 3 104 4
-10 -33 -9 -34 6 -30 5 -30 6 -18 5 -18 25 -10 25 -9 38 10 38 10 17 27 18 26
-6 65 -7 65 48 -7 47 -6 44 -6 44 -7 -6 33 -7 33 0 56 0 57 -14 20 -14 19 -30
-11 -30 -12 -30 18 -29 18 -6 21 -5 21 26 21 27 20 57 -6 58 -7 0 114 0 114
-62 12 -63 12 -38 6 -37 6 -7 11 -7 11 2 29 2 29 -11 14 -11 14 -49 0 -49 0
-20 -20z"/>
</g>
</svg>
