<?xml version="1.0" standalone="no"?>
<!DOCTYPE svg PUBLIC "-//W3C//DTD SVG 20010904//EN"
 "http://www.w3.org/TR/2001/REC-SVG-20010904/DTD/svg10.dtd">
<svg version="1.0" xmlns="http://www.w3.org/2000/svg"
 width="67.000000pt" height="82.000000pt" viewBox="0 0 67.000000 82.000000"
 preserveAspectRatio="xMidYMid meet">
<metadata>
Created by potrace 1.16, written by Peter Selinger 2001-2019
</metadata>
<g transform="translate(0.000000,82.000000) scale(0.100000,-0.100000)"
fill="#000000" stroke="none">
<path d="M235 797 l-6 -23 10 -44 11 -45 0 -8 0 -9 -114 4 -115 3 -7 -93 -6
-94 10 -10 10 -10 20 11 21 11 20 0 20 0 21 -22 20 -22 0 -21 0 -21 -16 -23
-17 -23 -52 7 -53 6 -6 -27 -7 -27 7 -66 8 -66 -2 -6 -1 -6 83 -5 83 -6 21
-11 22 -11 10 -21 11 -20 -12 -34 -13 -35 20 -15 19 -14 21 -1 22 0 21 18 22
17 0 30 -1 30 -2 25 -3 24 40 8 40 7 63 0 62 1 0 6 0 5 -15 15 -15 15 -16 54
-15 55 3 32 3 33 68 -3 68 -4 24 16 25 16 0 20 0 19 -26 20 -27 21 -26 0 -27
0 -12 -12 -13 -13 -10 15 -10 15 6 93 5 92 -99 0 -99 0 -11 14 -12 15 10 37
11 38 -15 23 -15 23 -30 0 -30 0 -5 -23z"/>
</g>
</svg>
