<?xml version="1.0" standalone="no"?>
<!DOCTYPE svg PUBLIC "-//W3C//DTD SVG 20010904//EN"
 "http://www.w3.org/TR/2001/REC-SVG-20010904/DTD/svg10.dtd">
<svg version="1.0" xmlns="http://www.w3.org/2000/svg"
 width="69.000000pt" height="84.000000pt" viewBox="0 0 69.000000 84.000000"
 preserveAspectRatio="xMidYMid meet">
<metadata>
Created by potrace 1.16, written by Peter Selinger 2001-2019
</metadata>
<g transform="translate(0.000000,84.000000) scale(0.100000,-0.100000)"
fill="#000000" stroke="none">
<path d="M234 814 l-6 -25 10 -51 10 -50 -113 4 -112 4 -7 -65 -6 -66 0 -43 0
-43 16 -6 15 -6 26 12 25 12 18 -6 17 -5 13 -25 13 -24 -17 -26 -17 -25 -53 6
-53 6 -7 -28 -7 -28 6 -83 7 -83 57 0 56 0 40 -10 40 -9 17 -21 18 -22 -10
-18 -10 -19 0 -22 0 -22 18 -13 17 -13 31 -1 32 0 22 18 22 18 1 40 0 39 -4
14 -4 15 40 7 40 8 63 0 62 1 0 16 0 15 -15 15 -15 15 -16 55 -15 54 3 22 3
23 68 -4 67 -3 25 16 25 16 0 30 0 29 -27 21 -27 21 -46 -2 -45 -3 3 97 3 97
-99 0 -98 0 -11 11 -10 10 9 40 10 39 -16 25 -16 25 -40 0 -40 0 -6 -26z"/>
</g>
</svg>
