<?xml version="1.0" standalone="no"?>
<!DOCTYPE svg PUBLIC "-//W3C//DTD SVG 20010904//EN"
 "http://www.w3.org/TR/2001/REC-SVG-20010904/DTD/svg10.dtd">
<svg version="1.0" xmlns="http://www.w3.org/2000/svg"
 width="80.000000pt" height="66.000000pt" viewBox="0 0 80.000000 66.000000"
 preserveAspectRatio="xMidYMid meet">
<metadata>
Created by potrace 1.16, written by Peter Selinger 2001-2019
</metadata>
<g transform="translate(0.000000,66.000000) scale(0.100000,-0.100000)"
fill="#000000" stroke="none">
<path d="M359 650 l-17 -10 5 -43 5 -44 -27 -21 -28 -22 -76 0 -76 0 -1 -58
-1 -58 -12 -22 -12 -22 -23 -6 -24 -6 -22 12 -22 12 -11 -11 -11 -11 0 -65 -1
-66 15 -10 15 -10 42 5 43 6 4 -23 5 -22 8 -75 8 -75 97 0 97 0 17 17 17 17
-13 57 -14 56 19 14 19 14 12 0 12 0 22 -18 23 -18 -12 -22 -11 -21 0 -10 0
-10 20 -11 20 -11 97 -24 98 -25 5 0 5 0 1 27 0 28 2 51 2 50 13 18 13 17 27
-12 27 -12 20 23 20 23 0 31 0 31 -19 24 -18 23 -56 -3 -56 -4 2 90 2 90 -20
-2 -20 -3 -61 -6 -62 -7 -26 7 -26 6 0 20 0 19 11 7 11 6 -6 31 -6 31 -15 23
-15 23 -23 0 -22 -1 -16 -9z"/>
</g>
</svg>
