<?xml version="1.0" standalone="no"?>
<!DOCTYPE svg PUBLIC "-//W3C//DTD SVG 20010904//EN"
 "http://www.w3.org/TR/2001/REC-SVG-20010904/DTD/svg10.dtd">
<svg version="1.0" xmlns="http://www.w3.org/2000/svg"
 width="82.000000pt" height="68.000000pt" viewBox="0 0 82.000000 68.000000"
 preserveAspectRatio="xMidYMid meet">
<metadata>
Created by potrace 1.16, written by Peter Selinger 2001-2019
</metadata>
<g transform="translate(0.000000,68.000000) scale(0.100000,-0.100000)"
fill="#000000" stroke="none">
<path d="M357 669 l-18 -11 6 -42 7 -43 -27 -22 -28 -21 -77 0 -78 0 1 -47 1
-48 -7 -27 -7 -27 -19 -10 -18 -10 -32 12 -31 11 -12 -12 -12 -12 -1 -75 0
-76 15 -10 15 -10 43 3 43 3 4 -20 4 -20 8 -75 8 -75 106 0 106 0 16 14 17 13
0 28 0 27 -12 33 -11 33 18 13 18 13 18 -10 19 -10 -6 -38 -6 -39 21 -11 21
-12 97 -24 98 -25 15 0 16 0 2 72 2 72 6 18 6 19 34 -7 35 -6 19 22 20 23 0
39 0 39 -16 24 -16 25 -57 0 -57 0 1 88 0 87 -25 -2 -25 -1 -70 -7 -70 -6 -14
10 -15 9 13 16 14 16 -6 36 -6 36 -16 24 -15 24 -33 0 -32 -1 -18 -10z"/>
</g>
</svg>
