<?xml version="1.0" standalone="no"?>
<!DOCTYPE svg PUBLIC "-//W3C//DTD SVG 20010904//EN"
 "http://www.w3.org/TR/2001/REC-SVG-20010904/DTD/svg10.dtd">
<svg version="1.0" xmlns="http://www.w3.org/2000/svg"
 width="68.000000pt" height="78.000000pt" viewBox="0 0 68.000000 78.000000"
 preserveAspectRatio="xMidYMid meet">
<metadata>
Created by potrace 1.16, written by Peter Selinger 2001-2019
</metadata>
<g transform="translate(0.000000,78.000000) scale(0.100000,-0.100000)"
fill="#000000" stroke="none">
<path d="M218 774 l-18 -5 -5 -22 -5 -22 2 -45 3 -45 -88 0 -88 0 -4 -20 -4
-20 -3 -85 -3 -85 70 0 70 0 3 -33 3 -33 -12 -15 -12 -14 -33 6 -32 6 -10 -19
-10 -18 -7 -65 -7 -65 -9 -22 -9 -23 100 0 99 0 5 -8 5 -9 -10 -36 -10 -37 11
-20 11 -20 54 0 54 0 15 16 16 15 0 14 0 14 -10 25 -9 25 12 8 12 7 79 6 79 5
-2 78 -2 78 12 15 12 15 43 -7 43 -6 25 25 26 26 0 20 0 20 -32 17 -32 16 -53
-5 -54 -6 7 92 6 92 4 13 4 13 -33 14 -32 13 -48 7 -48 7 -22 19 -22 18 13 22
14 21 -11 11 -10 10 -48 3 -48 3 -17 -5z"/>
</g>
</svg>
