<?xml version="1.0" standalone="no"?>
<!DOCTYPE svg PUBLIC "-//W3C//DTD SVG 20010904//EN"
 "http://www.w3.org/TR/2001/REC-SVG-20010904/DTD/svg10.dtd">
<svg version="1.0" xmlns="http://www.w3.org/2000/svg"
 width="56.000000pt" height="69.000000pt" viewBox="0 0 56.000000 69.000000"
 preserveAspectRatio="xMidYMid meet">
<metadata>
Created by potrace 1.16, written by Peter Selinger 2001-2019
</metadata>
<g transform="translate(0.000000,69.000000) scale(0.100000,-0.100000)"
fill="#000000" stroke="none">
<path d="M221 674 l-23 -17 6 -51 7 -52 -26 -12 -26 -12 -73 0 -73 0 -7 -49
-6 -49 6 -41 6 -40 20 -17 19 -18 42 12 42 11 13 -16 12 -17 0 -17 0 -18 -9
-25 -10 -25 -32 -3 -32 -3 -28 -85 -28 -85 -1 -16 0 -16 31 -7 32 -6 61 0 61
0 13 9 13 8 -7 60 -6 61 27 18 27 18 27 -15 26 -15 -3 -41 -4 -41 19 -10 18
-9 98 -18 97 -18 3 4 3 4 -5 100 -6 100 -44 1 -44 1 -19 22 -18 23 0 18 0 18
43 -5 44 -5 22 28 22 28 -3 90 -3 91 -95 5 -95 5 -12 8 -12 8 6 49 6 50 -18
20 -18 20 -31 0 -32 0 -23 -16z"/>
</g>
</svg>
