<?xml version="1.0" standalone="no"?>
<!DOCTYPE svg PUBLIC "-//W3C//DTD SVG 20010904//EN"
 "http://www.w3.org/TR/2001/REC-SVG-20010904/DTD/svg10.dtd">
<svg version="1.0" xmlns="http://www.w3.org/2000/svg"
 width="61.000000pt" height="67.000000pt" viewBox="0 0 61.000000 67.000000"
 preserveAspectRatio="xMidYMid meet">
<metadata>
Created by potrace 1.16, written by Peter Selinger 2001-2019
</metadata>
<g transform="translate(0.000000,67.000000) scale(0.100000,-0.100000)"
fill="#000000" stroke="none">
<path d="M274 660 l-31 -7 -12 -8 -13 -7 11 -11 11 -11 0 -33 0 -33 -20 -20
-20 -20 -74 0 -73 0 -7 -52 -6 -53 0 -40 0 -40 10 -15 9 -15 13 13 12 12 27 0
26 0 27 -21 26 -20 0 -19 0 -20 -25 -16 -24 -16 -68 4 -68 3 0 -50 1 -51 17
-46 18 -46 29 -12 30 -12 57 7 58 7 27 14 27 14 6 21 7 21 -7 34 -6 34 30 0
31 0 16 -25 17 -26 -12 -25 -11 -25 0 -8 0 -9 31 -11 32 -11 87 0 87 0 11 39
12 38 5 44 6 44 -10 14 -10 15 -37 -12 -37 -11 -21 11 -21 11 -12 16 -12 16
-1 31 0 32 44 -5 43 -5 17 23 16 23 0 88 0 88 -34 14 -34 14 -58 13 -59 12
-18 9 -18 9 3 36 3 36 -25 7 -25 6 -31 -6z"/>
</g>
</svg>
