<?xml version="1.0" standalone="no"?>
<!DOCTYPE svg PUBLIC "-//W3C//DTD SVG 20010904//EN"
 "http://www.w3.org/TR/2001/REC-SVG-20010904/DTD/svg10.dtd">
<svg version="1.0" xmlns="http://www.w3.org/2000/svg"
 width="63.000000pt" height="69.000000pt" viewBox="0 0 63.000000 69.000000"
 preserveAspectRatio="xMidYMid meet">
<metadata>
Created by potrace 1.16, written by Peter Selinger 2001-2019
</metadata>
<g transform="translate(0.000000,69.000000) scale(0.100000,-0.100000)"
fill="#000000" stroke="none">
<path d="M272 680 l-34 -8 -11 -11 -11 -11 12 -20 12 -20 0 -20 0 -20 -20 -20
-20 -20 -74 0 -73 0 -7 -52 -6 -53 0 -47 0 -46 6 -16 6 -16 18 0 19 0 6 10 6
10 19 0 19 0 28 -25 28 -25 -24 -20 -24 -21 -71 3 -71 3 0 -60 0 -60 18 -46
18 -47 30 -12 30 -13 66 7 66 7 28 15 29 14 6 25 6 25 -4 30 -5 30 18 0 18 0
15 -22 15 -21 -9 -18 -10 -18 0 -19 0 -20 31 -11 32 -11 97 0 97 0 11 38 11
37 7 42 6 42 -6 27 -7 26 -54 -7 -53 -6 -21 22 -21 23 0 18 0 18 44 0 45 0 15
22 16 22 0 98 0 98 -34 14 -34 14 -58 13 -59 12 -17 9 -17 8 6 34 5 33 -8 6
-9 5 -30 5 -30 5 -33 -8z"/>
</g>
</svg>
