<?xml version="1.0" standalone="no"?>
<!DOCTYPE svg PUBLIC "-//W3C//DTD SVG 20010904//EN"
 "http://www.w3.org/TR/2001/REC-SVG-20010904/DTD/svg10.dtd">
<svg version="1.0" xmlns="http://www.w3.org/2000/svg"
 width="68.000000pt" height="58.000000pt" viewBox="0 0 68.000000 58.000000"
 preserveAspectRatio="xMidYMid meet">
<metadata>
Created by potrace 1.16, written by Peter Selinger 2001-2019
</metadata>
<g transform="translate(0.000000,58.000000) scale(0.100000,-0.100000)"
fill="#000000" stroke="none">
<path d="M0 565 l0 -15 8 0 7 0 1 -58 0 -58 13 -32 14 -32 22 -6 23 -6 23 4
24 3 3 -24 4 -23 -6 -24 -6 -23 -29 5 -29 6 -7 -12 -8 -12 -18 -95 -18 -96 5
-8 5 -9 93 0 93 0 18 20 18 20 -6 44 -6 45 19 6 19 6 21 -11 20 -11 15 -23 16
-24 -7 -52 -7 -52 14 -9 14 -9 26 0 25 0 50 15 49 15 18 14 19 15 -21 56 -21
56 0 34 0 33 37 -10 37 -10 38 11 38 12 10 19 10 19 0 35 0 36 -20 20 -20 20
-51 0 -51 0 5 73 5 72 7 23 7 22 -281 0 -281 0 0 -15z"/>
</g>
</svg>
