<?xml version="1.0" standalone="no"?>
<!DOCTYPE svg PUBLIC "-//W3C//DTD SVG 20010904//EN"
 "http://www.w3.org/TR/2001/REC-SVG-20010904/DTD/svg10.dtd">
<svg version="1.0" xmlns="http://www.w3.org/2000/svg"
 width="52.000000pt" height="67.000000pt" viewBox="0 0 52.000000 67.000000"
 preserveAspectRatio="xMidYMid meet">
<metadata>
Created by potrace 1.16, written by Peter Selinger 2001-2019
</metadata>
<g transform="translate(0.000000,67.000000) scale(0.100000,-0.100000)"
fill="#000000" stroke="none">
<path d="M51 663 l-44 -4 5 -75 5 -76 21 -20 20 -21 33 12 32 11 13 -11 13
-10 6 -29 6 -28 -15 -36 -15 -35 -24 -6 -24 -6 -39 3 -39 3 1 -72 2 -73 6 -15
5 -15 69 0 68 0 19 -14 19 -14 -13 -43 -13 -43 27 -23 26 -23 30 0 29 0 21 21
21 21 -3 77 -4 76 56 -2 57 -2 38 -16 38 -15 8 8 9 9 -3 89 -3 89 -55 -3 -55
-4 -28 26 -27 25 0 19 0 19 11 31 11 31 27 6 28 6 29 -6 29 -7 18 -5 17 -4 0
85 0 85 -52 -6 -53 -5 -35 -7 -35 -7 3 -30 3 -30 -18 -16 -18 -15 -28 -7 -27
-6 -21 11 -21 11 -14 34 -14 34 6 25 6 25 -53 -2 -54 -1 -44 -4z"/>
</g>
</svg>
