<?xml version="1.0" standalone="no"?>
<!DOCTYPE svg PUBLIC "-//W3C//DTD SVG 20010904//EN"
 "http://www.w3.org/TR/2001/REC-SVG-20010904/DTD/svg10.dtd">
<svg version="1.0" xmlns="http://www.w3.org/2000/svg"
 width="54.000000pt" height="69.000000pt" viewBox="0 0 54.000000 69.000000"
 preserveAspectRatio="xMidYMid meet">
<metadata>
Created by potrace 1.16, written by Peter Selinger 2001-2019
</metadata>
<g transform="translate(0.000000,69.000000) scale(0.100000,-0.100000)"
fill="#000000" stroke="none">
<path d="M51 683 l-43 -4 4 -84 4 -84 19 -22 20 -21 42 7 43 6 10 -26 10 -26
-14 -34 -15 -34 -23 -5 -23 -5 -40 2 -40 2 1 -81 1 -82 6 -16 6 -16 69 0 68 0
17 -12 16 -13 -12 -44 -12 -43 28 -24 28 -24 40 0 39 0 21 21 21 21 -3 76 -3
77 48 -3 48 -2 45 -20 46 -20 9 0 9 0 -3 113 -3 112 -52 -3 -53 -3 -24 16 -24
16 -6 16 -7 16 11 33 11 32 22 6 22 5 40 -9 40 -10 13 0 12 0 0 95 0 96 -62
-7 -63 -6 -35 -7 -35 -7 0 -30 0 -31 -13 -15 -13 -16 -26 -5 -26 -5 -24 24
-23 23 -1 18 -1 18 2 28 2 27 -64 -2 -63 -1 -44 -4z"/>
</g>
</svg>
