<?xml version="1.0" standalone="no"?>
<!DOCTYPE svg PUBLIC "-//W3C//DTD SVG 20010904//EN"
 "http://www.w3.org/TR/2001/REC-SVG-20010904/DTD/svg10.dtd">
<svg version="1.0" xmlns="http://www.w3.org/2000/svg"
 width="53.000000pt" height="65.000000pt" viewBox="0 0 53.000000 65.000000"
 preserveAspectRatio="xMidYMid meet">
<metadata>
Created by potrace 1.16, written by Peter Selinger 2001-2019
</metadata>
<g transform="translate(0.000000,65.000000) scale(0.100000,-0.100000)"
fill="#000000" stroke="none">
<path d="M35 642 l-30 -7 -3 -67 -4 -67 6 -19 6 -19 49 5 50 4 25 -25 26 -26
0 -20 0 -20 -12 -26 -11 -25 -22 -6 -22 -5 -38 3 -38 3 -8 -28 -8 -28 7 -62 7
-62 86 2 87 2 -1 -48 -1 -49 17 -26 17 -26 41 0 40 0 21 11 21 11 -7 53 -6 53
23 6 22 6 66 0 67 0 13 86 13 86 -11 17 -11 16 -14 -4 -13 -4 -47 -5 -48 -5
-25 17 -25 16 0 23 0 23 16 23 17 23 68 -4 69 -5 0 96 0 97 -91 -22 -91 -23
-7 -6 -6 -7 0 -26 0 -26 -31 -9 -31 -9 -27 17 -26 17 -6 23 -6 23 12 22 12 22
-7 6 -6 6 -67 2 -67 2 -30 -6z"/>
</g>
</svg>
