<?xml version="1.0" standalone="no"?>
<!DOCTYPE svg PUBLIC "-//W3C//DTD SVG 20010904//EN"
 "http://www.w3.org/TR/2001/REC-SVG-20010904/DTD/svg10.dtd">
<svg version="1.0" xmlns="http://www.w3.org/2000/svg"
 width="83.000000pt" height="56.000000pt" viewBox="0 0 83.000000 56.000000"
 preserveAspectRatio="xMidYMid meet">
<metadata>
Created by potrace 1.16, written by Peter Selinger 2001-2019
</metadata>
<g transform="translate(0.000000,56.000000) scale(0.100000,-0.100000)"
fill="#000000" stroke="none">
<path d="M187 553 l-38 -4 7 -103 7 -103 -57 5 -56 4 -25 -16 -25 -16 0 -26 0
-25 25 -24 24 -25 14 0 13 0 12 12 12 12 14 -19 14 -19 10 -79 10 -79 12 -12
11 -11 86 1 86 1 19 22 18 23 0 38 0 38 17 6 17 7 26 -19 25 -19 0 -59 0 -59
55 -3 55 -4 50 11 51 11 33 108 34 107 9 12 10 12 18 -11 18 -12 16 13 16 13
0 44 0 44 -25 12 -24 11 -32 -13 -32 -14 -23 28 -24 27 0 75 0 74 -81 0 -80 0
-20 -11 -20 -10 3 -36 3 -37 -25 -13 -25 -14 -33 5 -34 5 -15 12 -14 13 6 48
7 48 -59 -2 -58 -1 -38 -4z"/>
</g>
</svg>
