<?xml version="1.0" standalone="no"?>
<!DOCTYPE svg PUBLIC "-//W3C//DTD SVG 20010904//EN"
 "http://www.w3.org/TR/2001/REC-SVG-20010904/DTD/svg10.dtd">
<svg version="1.0" xmlns="http://www.w3.org/2000/svg"
 width="68.000000pt" height="54.000000pt" viewBox="0 0 68.000000 54.000000"
 preserveAspectRatio="xMidYMid meet">
<metadata>
Created by potrace 1.16, written by Peter Selinger 2001-2019
</metadata>
<g transform="translate(0.000000,54.000000) scale(0.100000,-0.100000)"
fill="#000000" stroke="none">
<path d="M209 533 l-27 -4 -4 -91 -4 -91 -17 -12 -16 -12 -52 11 -51 10 -20
-24 -19 -24 6 -25 6 -26 16 -12 16 -12 18 9 18 10 14 0 15 0 10 -27 10 -28 17
-68 18 -68 24 -16 24 -16 57 6 57 6 13 18 13 18 -5 36 -6 37 14 11 14 12 41 2
41 1 18 -17 17 -18 0 -62 0 -62 30 -4 30 -3 65 11 65 12 -3 247 -3 246 -3 3
-2 3 -79 -15 -80 -16 -8 -8 -8 -8 13 -28 12 -27 -32 -29 -32 -29 -28 0 -28 0
-23 22 -23 21 5 63 5 63 -15 5 -15 6 -46 -1 -47 -2 -26 -4z"/>
</g>
</svg>
