<?xml version="1.0" standalone="no"?>
<!DOCTYPE svg PUBLIC "-//W3C//DTD SVG 20010904//EN"
 "http://www.w3.org/TR/2001/REC-SVG-20010904/DTD/svg10.dtd">
<svg version="1.0" xmlns="http://www.w3.org/2000/svg"
 width="70.000000pt" height="56.000000pt" viewBox="0 0 70.000000 56.000000"
 preserveAspectRatio="xMidYMid meet">
<metadata>
Created by potrace 1.16, written by Peter Selinger 2001-2019
</metadata>
<g transform="translate(0.000000,56.000000) scale(0.100000,-0.100000)"
fill="#000000" stroke="none">
<path d="M208 553 l-28 -4 -1 -72 -1 -72 -7 -25 -7 -25 -66 3 -66 4 -17 -26
-17 -26 6 -35 7 -35 21 -11 21 -11 24 11 24 11 3 0 4 0 10 -28 10 -27 17 -68
18 -68 24 -16 24 -16 66 6 67 5 13 19 14 18 -2 35 -3 36 8 12 7 12 38 0 39 0
13 -16 14 -17 0 -61 0 -61 40 -3 40 -4 65 12 65 11 -3 257 -4 257 -3 4 -4 3
-88 -16 -87 -16 -10 -10 -10 -10 11 -30 11 -30 -30 -25 -30 -25 -17 0 -17 0
-23 22 -23 21 6 62 6 63 -16 6 -16 6 -56 -1 -57 -2 -27 -4z"/>
</g>
</svg>
