<?xml version="1.0" standalone="no"?>
<!DOCTYPE svg PUBLIC "-//W3C//DTD SVG 20010904//EN"
 "http://www.w3.org/TR/2001/REC-SVG-20010904/DTD/svg10.dtd">
<svg version="1.0" xmlns="http://www.w3.org/2000/svg"
 width="68.000000pt" height="53.000000pt" viewBox="0 0 68.000000 53.000000"
 preserveAspectRatio="xMidYMid meet">
<metadata>
Created by potrace 1.16, written by Peter Selinger 2001-2019
</metadata>
<g transform="translate(0.000000,53.000000) scale(0.100000,-0.100000)"
fill="#000000" stroke="none">
<path d="M0 478 l0 -53 13 -25 13 -25 42 0 43 0 9 -15 10 -15 0 -46 0 -46 -19
-17 -19 -18 -44 4 -43 3 -3 -88 -3 -89 12 -14 11 -14 88 0 87 0 5 5 5 5 -9 58
-9 57 10 22 10 22 25 7 24 6 22 -12 22 -12 14 -35 15 -35 -7 -55 -7 -56 79 7
79 7 18 2 17 1 0 1 0 1 -22 45 -21 44 -1 60 -1 60 77 -4 77 -3 31 31 31 30
-11 20 -10 21 -21 11 -21 11 -56 -4 -57 -3 -3 93 -3 94 -17 -7 -17 -6 -50 -11
-50 -10 -17 -9 -17 -9 5 -30 6 -29 -24 -6 -24 -6 -50 3 -49 3 3 47 4 47 -31
15 -30 16 -71 0 -70 0 0 -52z"/>
</g>
</svg>
