<?xml version="1.0" standalone="no"?>
<!DOCTYPE svg PUBLIC "-//W3C//DTD SVG 20010904//EN"
 "http://www.w3.org/TR/2001/REC-SVG-20010904/DTD/svg10.dtd">
<svg version="1.0" xmlns="http://www.w3.org/2000/svg"
 width="81.000000pt" height="67.000000pt" viewBox="0 0 81.000000 67.000000"
 preserveAspectRatio="xMidYMid meet">
<metadata>
Created by potrace 1.16, written by Peter Selinger 2001-2019
</metadata>
<g transform="translate(0.000000,67.000000) scale(0.100000,-0.100000)"
fill="#000000" stroke="none">
<path d="M138 595 l-5 -75 -19 -21 -19 -21 -42 6 -42 5 -6 -29 -7 -30 7 -30 7
-30 30 -16 31 -16 42 6 43 7 6 -17 6 -16 -11 -64 -11 -64 -9 -6 -9 -5 0 -18 0
-19 64 5 64 6 26 -7 25 -6 -6 -50 -6 -50 18 -20 18 -20 58 0 58 0 27 25 26 24
-4 31 -5 30 16 4 16 5 40 6 40 6 23 5 22 4 0 15 0 15 -21 64 -22 65 6 16 6 15
54 -6 53 -6 31 16 31 16 11 33 12 34 -10 26 -10 25 -21 7 -21 7 -47 -4 -47 -3
2 99 3 98 -23 -6 -22 -7 -70 -15 -70 -15 -19 -5 -18 -6 5 -33 5 -33 -15 -6
-15 -6 -33 0 -33 0 -16 6 -15 6 6 44 6 44 -13 15 -12 15 -83 0 -82 0 -5 -75z"/>
</g>
</svg>
