<?xml version="1.0" standalone="no"?>
<!DOCTYPE svg PUBLIC "-//W3C//DTD SVG 20010904//EN"
 "http://www.w3.org/TR/2001/REC-SVG-20010904/DTD/svg10.dtd">
<svg version="1.0" xmlns="http://www.w3.org/2000/svg"
 width="54.000000pt" height="67.000000pt" viewBox="0 0 54.000000 67.000000"
 preserveAspectRatio="xMidYMid meet">
<metadata>
Created by potrace 1.16, written by Peter Selinger 2001-2019
</metadata>
<g transform="translate(0.000000,67.000000) scale(0.100000,-0.100000)"
fill="#000000" stroke="none">
<path d="M39 663 l-27 -4 -6 -68 -7 -67 5 -15 4 -14 7 -29 6 -28 51 6 50 7 25
-16 24 -16 -3 -27 -3 -27 -42 3 -42 3 -16 -58 -16 -58 -15 -40 -14 -41 0 -17
0 -17 80 0 79 0 -6 -48 -5 -49 11 -21 12 -22 68 0 69 0 12 14 12 15 -4 28 -3
28 55 13 55 12 43 11 42 12 0 18 0 19 -9 0 -9 0 -12 73 -11 72 -10 24 -10 23
-19 -6 -20 -6 -18 -6 -17 -5 -23 21 -22 21 0 28 0 28 25 27 26 28 17 -8 17 -7
34 -5 33 -4 9 13 9 14 0 82 0 82 -32 6 -33 6 -75 -3 -75 -3 3 -44 3 -45 -12
-28 -12 -29 -16 -8 -16 -9 -22 9 -22 8 -11 22 -12 21 7 46 7 45 -14 8 -13 9
-60 -2 -60 -1 -26 -4z"/>
</g>
</svg>
