<?xml version="1.0" standalone="no"?>
<!DOCTYPE svg PUBLIC "-//W3C//DTD SVG 20010904//EN"
 "http://www.w3.org/TR/2001/REC-SVG-20010904/DTD/svg10.dtd">
<svg version="1.0" xmlns="http://www.w3.org/2000/svg"
 width="53.000000pt" height="64.000000pt" viewBox="0 0 53.000000 64.000000"
 preserveAspectRatio="xMidYMid meet">
<metadata>
Created by potrace 1.16, written by Peter Selinger 2001-2019
</metadata>
<g transform="translate(0.000000,64.000000) scale(0.100000,-0.100000)"
fill="#000000" stroke="none">
<path d="M213 630 l-23 -9 0 -9 0 -9 11 -31 10 -31 -11 -20 -11 -21 -88 0 -88
0 -7 -46 -6 -47 0 -53 0 -53 9 -6 10 -5 46 10 46 10 27 -12 27 -13 3 -21 3
-20 -21 -19 -21 -19 -35 13 -35 13 -14 -19 -14 -18 -7 -75 -7 -75 -7 -20 -8
-20 261 3 261 3 2 2 1 2 -8 79 -9 79 -12 14 -11 14 -43 -7 -42 -6 -21 21 -21
21 0 25 0 24 12 26 12 27 27 -6 27 -5 25 -6 25 -7 21 21 21 21 0 68 0 69 -5 5
-6 6 -49 -15 -49 -14 -48 3 -48 3 1 25 0 25 8 32 7 32 -25 26 -25 25 -28 -1
-28 0 -22 -9z"/>
</g>
</svg>
