<?xml version="1.0" standalone="no"?>
<!DOCTYPE svg PUBLIC "-//W3C//DTD SVG 20010904//EN"
 "http://www.w3.org/TR/2001/REC-SVG-20010904/DTD/svg10.dtd">
<svg version="1.0" xmlns="http://www.w3.org/2000/svg"
 width="71.000000pt" height="66.000000pt" viewBox="0 0 71.000000 66.000000"
 preserveAspectRatio="xMidYMid meet">
<metadata>
Created by potrace 1.16, written by Peter Selinger 2001-2019
</metadata>
<g transform="translate(0.000000,66.000000) scale(0.100000,-0.100000)"
fill="#000000" stroke="none">
<path d="M219 628 l-20 -33 4 -20 4 -20 8 -17 7 -18 -98 0 -99 0 -13 -8 -13
-9 3 -104 3 -104 71 3 71 3 13 -16 13 -16 -17 -17 -17 -17 -46 0 -47 0 -6 -30
-7 -30 -13 -83 -13 -83 4 -2 4 -2 260 3 260 3 0 97 0 97 55 -3 55 -3 33 20 32
21 0 24 0 25 -27 21 -27 21 -55 -3 -54 -3 -9 30 -9 30 6 67 6 66 -103 -1 -103
-2 3 53 4 53 -18 20 -17 19 -34 0 -33 0 -21 -32z"/>
</g>
</svg>
