<?xml version="1.0" standalone="no"?>
<!DOCTYPE svg PUBLIC "-//W3C//DTD SVG 20010904//EN"
 "http://www.w3.org/TR/2001/REC-SVG-20010904/DTD/svg10.dtd">
<svg version="1.0" xmlns="http://www.w3.org/2000/svg"
 width="69.000000pt" height="64.000000pt" viewBox="0 0 69.000000 64.000000"
 preserveAspectRatio="xMidYMid meet">
<metadata>
Created by potrace 1.16, written by Peter Selinger 2001-2019
</metadata>
<g transform="translate(0.000000,64.000000) scale(0.100000,-0.100000)"
fill="#000000" stroke="none">
<path d="M205 623 l-17 -17 6 -42 5 -42 3 -14 3 -13 -95 0 -95 0 -3 -35 -4
-35 11 -36 11 -37 26 -17 25 -16 30 6 29 7 0 -45 0 -44 -20 -18 -21 -19 -36
13 -36 14 -14 -19 -13 -18 0 -40 0 -41 6 -52 7 -52 256 -3 256 -3 7 10 8 10 0
58 0 58 10 19 10 20 43 -6 42 -6 18 14 18 14 6 40 5 41 -12 23 -12 23 -64 -6
-64 -6 -5 22 -5 22 -2 70 -3 70 -75 -3 -75 -3 -19 14 -19 14 11 33 12 33 0 8
0 9 -20 20 -20 20 -49 0 -50 0 -16 -17z"/>
</g>
</svg>
