<?xml version="1.0" standalone="no"?>
<!DOCTYPE svg PUBLIC "-//W3C//DTD SVG 20010904//EN"
 "http://www.w3.org/TR/2001/REC-SVG-20010904/DTD/svg10.dtd">
<svg version="1.0" xmlns="http://www.w3.org/2000/svg"
 width="51.000000pt" height="64.000000pt" viewBox="0 0 51.000000 64.000000"
 preserveAspectRatio="xMidYMid meet">
<metadata>
Created by potrace 1.16, written by Peter Selinger 2001-2019
</metadata>
<g transform="translate(0.000000,64.000000) scale(0.100000,-0.100000)"
fill="#000000" stroke="none">
<path d="M223 630 l-22 -9 -11 -21 -12 -22 12 -29 12 -29 -12 -15 -12 -15 -83
0 -82 0 -7 -46 -6 -47 0 -38 0 -39 50 0 51 0 28 -15 29 -14 6 -16 6 -17 0 -23
0 -23 -19 -23 -19 -24 -33 12 -33 13 -12 -13 -11 -12 -12 -72 -11 -72 0 -10 0
-11 240 0 240 0 -14 33 -15 32 -18 60 -18 60 -15 -4 -15 -4 -19 -1 -20 -1 -7
33 -7 34 7 26 8 27 61 -3 61 -3 10 20 11 20 0 80 0 80 -32 5 -33 5 -65 5 -65
6 -13 17 -12 17 6 16 6 15 4 15 4 15 -7 12 -8 11 -25 6 -25 5 -22 -9z"/>
</g>
</svg>
