<?xml version="1.0" standalone="no"?>
<!DOCTYPE svg PUBLIC "-//W3C//DTD SVG 20010904//EN"
 "http://www.w3.org/TR/2001/REC-SVG-20010904/DTD/svg10.dtd">
<svg version="1.0" xmlns="http://www.w3.org/2000/svg"
 width="71.000000pt" height="66.000000pt" viewBox="0 0 71.000000 66.000000"
 preserveAspectRatio="xMidYMid meet">
<metadata>
Created by potrace 1.16, written by Peter Selinger 2001-2019
</metadata>
<g transform="translate(0.000000,66.000000) scale(0.100000,-0.100000)"
fill="#000000" stroke="none">
<path d="M204 643 l-16 -17 6 -57 6 -58 -93 2 -92 2 -3 -45 -4 -45 11 -36 11
-37 26 -17 26 -17 29 4 29 5 0 -32 0 -32 -19 -17 -19 -18 -21 11 -20 11 -20 0
-20 0 -11 -19 -10 -20 0 -48 0 -48 6 -52 7 -52 266 -3 266 -3 7 10 8 10 0 60
0 60 10 15 9 14 43 -2 43 -3 19 14 19 14 4 50 5 50 -12 23 -12 22 -64 -4 -65
-4 -4 21 -5 20 -2 70 -3 70 -72 -3 -73 -3 -19 11 -20 10 9 26 10 25 0 20 0 19
-20 20 -20 20 -59 0 -60 0 -17 -17z"/>
</g>
</svg>
