<?xml version="1.0" standalone="no"?>
<!DOCTYPE svg PUBLIC "-//W3C//DTD SVG 20010904//EN"
 "http://www.w3.org/TR/2001/REC-SVG-20010904/DTD/svg10.dtd">
<svg version="1.0" xmlns="http://www.w3.org/2000/svg"
 width="87.000000pt" height="66.000000pt" viewBox="0 0 87.000000 66.000000"
 preserveAspectRatio="xMidYMid meet">
<metadata>
Created by potrace 1.16, written by Peter Selinger 2001-2019
</metadata>
<g transform="translate(0.000000,66.000000) scale(0.100000,-0.100000)"
fill="#000000" stroke="none">
<path d="M370 640 l-20 -20 0 -15 0 -14 12 -26 11 -26 -12 -12 -12 -12 -87 -5
-87 -5 -6 -71 -7 -71 -11 -21 -11 -22 -18 -9 -18 -10 -15 10 -14 9 -24 0 -24
0 -13 -17 -13 -18 -1 -32 0 -32 17 -16 16 -17 26 -10 26 -10 63 7 62 7 0 -20
0 -20 -20 -64 -20 -63 0 -7 0 -8 274 0 273 0 14 88 14 87 47 -3 46 -3 16 23
16 22 0 32 0 32 -6 17 -6 16 -29 14 -28 15 -52 0 -51 0 7 86 7 87 -28 -7 -29
-7 -66 -6 -66 -5 -6 9 -6 10 9 34 10 34 -11 32 -11 33 -18 10 -19 10 -40 0
-41 0 -20 -20z"/>
</g>
</svg>
