<?xml version="1.0" standalone="no"?>
<!DOCTYPE svg PUBLIC "-//W3C//DTD SVG 20010904//EN"
 "http://www.w3.org/TR/2001/REC-SVG-20010904/DTD/svg10.dtd">
<svg version="1.0" xmlns="http://www.w3.org/2000/svg"
 width="57.000000pt" height="64.000000pt" viewBox="0 0 57.000000 64.000000"
 preserveAspectRatio="xMidYMid meet">
<metadata>
Created by potrace 1.16, written by Peter Selinger 2001-2019
</metadata>
<g transform="translate(0.000000,64.000000) scale(0.100000,-0.100000)"
fill="#000000" stroke="none">
<path d="M214 630 l-22 -9 -6 -10 -6 -10 10 -6 10 -6 0 -30 0 -30 -14 -15 -15
-14 -80 0 -81 0 -5 -23 -6 -22 3 -75 3 -75 20 1 20 1 17 8 17 7 26 -26 26 -26
-3 -28 -3 -27 -44 0 -44 0 -7 -25 -7 -25 -7 -77 -7 -77 261 -3 260 -3 10 30
10 30 9 49 9 49 -10 28 -10 29 -13 0 -14 0 -6 -10 -6 -10 -32 0 -32 0 -42 20
-43 19 0 23 0 24 16 23 17 24 55 -6 56 -6 12 17 13 17 1 69 0 69 -42 -9 -43
-8 -60 0 -60 -1 2 20 1 20 7 37 7 37 -25 25 -26 26 -28 -1 -28 0 -21 -9z"/>
</g>
</svg>
