<?xml version="1.0" standalone="no"?>
<!DOCTYPE svg PUBLIC "-//W3C//DTD SVG 20010904//EN"
 "http://www.w3.org/TR/2001/REC-SVG-20010904/DTD/svg10.dtd">
<svg version="1.0" xmlns="http://www.w3.org/2000/svg"
 width="68.000000pt" height="65.000000pt" viewBox="0 0 68.000000 65.000000"
 preserveAspectRatio="xMidYMid meet">
<metadata>
Created by potrace 1.16, written by Peter Selinger 2001-2019
</metadata>
<g transform="translate(0.000000,65.000000) scale(0.100000,-0.100000)"
fill="#000000" stroke="none">
<path d="M383 644 l-11 -5 5 -53 6 -53 -22 -22 -21 -21 -85 0 -85 0 0 -79 0
-80 -10 -26 -10 -27 -58 7 -58 6 -18 -20 -18 -20 6 -25 6 -25 21 -12 22 -11
23 12 23 13 15 -12 14 -12 6 -37 7 -37 10 -52 10 -53 256 0 255 0 -6 23 -6 22
-11 62 -11 62 -13 18 -14 18 -21 -13 -20 -12 -10 25 -10 26 0 14 0 13 18 21
17 22 33 -12 32 -11 16 12 15 13 -3 91 -3 91 -85 -3 -85 -3 -20 14 -20 15 12
32 12 31 -6 17 -6 17 -20 23 -20 22 -21 -1 -21 -1 -12 -4z"/>
</g>
</svg>
