<?xml version="1.0" standalone="no"?>
<!DOCTYPE svg PUBLIC "-//W3C//DTD SVG 20010904//EN"
 "http://www.w3.org/TR/2001/REC-SVG-20010904/DTD/svg10.dtd">
<svg version="1.0" xmlns="http://www.w3.org/2000/svg"
 width="69.000000pt" height="65.000000pt" viewBox="0 0 69.000000 65.000000"
 preserveAspectRatio="xMidYMid meet">
<metadata>
Created by potrace 1.16, written by Peter Selinger 2001-2019
</metadata>
<g transform="translate(0.000000,65.000000) scale(0.100000,-0.100000)"
fill="#000000" stroke="none">
<path d="M366 639 l-18 -11 7 -61 6 -60 -13 -8 -13 -9 -92 0 -93 0 0 -74 0
-74 -6 -16 -6 -15 -43 6 -43 6 -26 -26 -26 -26 0 -35 0 -35 22 -22 23 -21 50
5 50 5 15 4 15 3 3 -38 3 -39 -15 -46 -16 -46 0 -3 0 -3 260 0 259 0 7 38 8
37 0 52 1 52 -12 12 -11 11 -36 -12 -35 -11 -20 11 -21 11 -6 24 -6 25 6 35 7
35 19 -12 19 -12 28 10 28 9 12 25 13 25 -2 60 -3 60 -90 -3 -90 -3 -20 14
-19 15 12 24 13 24 -11 29 -11 30 -16 17 -16 18 -16 0 -16 -1 -19 -10z"/>
</g>
</svg>
