<?xml version="1.0" standalone="no"?>
<!DOCTYPE svg PUBLIC "-//W3C//DTD SVG 20010904//EN"
 "http://www.w3.org/TR/2001/REC-SVG-20010904/DTD/svg10.dtd">
<svg version="1.0" xmlns="http://www.w3.org/2000/svg"
 width="69.000000pt" height="64.000000pt" viewBox="0 0 69.000000 64.000000"
 preserveAspectRatio="xMidYMid meet">
<metadata>
Created by potrace 1.16, written by Peter Selinger 2001-2019
</metadata>
<g transform="translate(0.000000,64.000000) scale(0.100000,-0.100000)"
fill="#000000" stroke="none">
<path d="M220 608 l-20 -33 6 -15 7 -15 4 -22 5 -23 -33 -1 -34 -1 -65 1 -65
2 -13 -9 -13 -9 3 -94 3 -94 68 3 68 4 14 -12 15 -12 0 -18 0 -17 -19 -17 -18
-17 -40 7 -40 6 -7 -10 -6 -10 -10 -68 -9 -69 -6 -30 -7 -30 254 3 253 3 0 97
0 97 55 -3 55 -3 33 21 32 20 0 14 0 15 -27 21 -28 22 -25 -5 -25 -4 -15 -7
-16 -6 -19 14 -20 14 0 89 0 89 -100 -1 -100 0 3 53 4 54 -18 19 -17 19 -24 0
-23 0 -20 -32z"/>
</g>
</svg>
