<?xml version="1.0" standalone="no"?>
<!DOCTYPE svg PUBLIC "-//W3C//DTD SVG 20010904//EN"
 "http://www.w3.org/TR/2001/REC-SVG-20010904/DTD/svg10.dtd">
<svg version="1.0" xmlns="http://www.w3.org/2000/svg"
 width="85.000000pt" height="64.000000pt" viewBox="0 0 85.000000 64.000000"
 preserveAspectRatio="xMidYMid meet">
<metadata>
Created by potrace 1.16, written by Peter Selinger 2001-2019
</metadata>
<g transform="translate(0.000000,64.000000) scale(0.100000,-0.100000)"
fill="#000000" stroke="none">
<path d="M369 619 l-21 -21 8 -16 7 -17 4 -26 5 -27 -14 -8 -13 -9 -85 -5 -85
-5 -6 -71 -7 -71 -11 -21 -11 -22 -21 -10 -20 -11 -34 12 -35 13 -15 -20 -14
-19 -1 -22 0 -22 22 -20 22 -21 30 -6 31 -5 44 10 45 10 8 -5 8 -5 0 -29 0
-28 -19 -61 -19 -61 263 0 263 0 13 85 12 85 12 10 12 10 32 -13 33 -12 19 24
19 23 0 23 0 23 -6 17 -6 16 -29 14 -28 15 -52 0 -52 0 7 86 6 86 -17 -7 -18
-8 -77 -5 -78 -5 -6 16 -5 15 9 35 10 34 -13 30 -13 30 -17 7 -17 6 -29 0 -29
0 -21 -21z"/>
</g>
</svg>
