<?xml version="1.0" standalone="no"?>
<!DOCTYPE svg PUBLIC "-//W3C//DTD SVG 20010904//EN"
 "http://www.w3.org/TR/2001/REC-SVG-20010904/DTD/svg10.dtd">
<svg version="1.0" xmlns="http://www.w3.org/2000/svg"
 width="70.000000pt" height="62.000000pt" viewBox="0 0 70.000000 62.000000"
 preserveAspectRatio="xMidYMid meet">
<metadata>
Created by potrace 1.16, written by Peter Selinger 2001-2019
</metadata>
<g transform="translate(0.000000,62.000000) scale(0.100000,-0.100000)"
fill="#000000" stroke="none">
<path d="M231 604 l-23 -16 4 -52 3 -51 -95 0 -95 0 -6 -80 -6 -80 4 -12 5
-11 29 10 30 10 36 -5 35 -6 19 -17 19 -17 0 -28 0 -28 -17 -16 -16 -17 -26
-9 -26 -10 -47 6 -47 7 -7 -26 -6 -26 6 -48 7 -47 5 -17 5 -18 259 0 259 0 9
52 10 53 9 50 8 50 46 0 46 0 16 14 17 13 0 18 0 18 -15 12 -14 12 -68 -4 -68
-3 -2 102 -1 102 -6 9 -5 9 -58 17 -58 17 -22 9 -23 10 0 24 0 24 -16 6 -16 6
-37 0 -37 0 -23 -16z"/>
</g>
</svg>
