<?xml version="1.0" standalone="no"?>
<!DOCTYPE svg PUBLIC "-//W3C//DTD SVG 20010904//EN"
 "http://www.w3.org/TR/2001/REC-SVG-20010904/DTD/svg10.dtd">
<svg version="1.0" xmlns="http://www.w3.org/2000/svg"
 width="52.000000pt" height="62.000000pt" viewBox="0 0 52.000000 62.000000"
 preserveAspectRatio="xMidYMid meet">
<metadata>
Created by potrace 1.16, written by Peter Selinger 2001-2019
</metadata>
<g transform="translate(0.000000,62.000000) scale(0.100000,-0.100000)"
fill="#000000" stroke="none">
<path d="M175 610 l-6 -10 11 -19 10 -20 0 -19 0 -19 -18 -16 -19 -17 -76 0
-77 0 0 -79 0 -79 6 -16 6 -15 63 6 63 6 12 -23 12 -23 -5 -41 -6 -40 -18 -14
-18 -14 -42 6 -42 5 -8 -12 -8 -12 -5 -73 -5 -72 253 0 252 0 -7 73 -6 72 -7
25 -7 25 -53 0 -54 0 -10 28 -10 27 10 28 10 27 57 -3 57 -4 15 36 15 35 0 61
0 60 -2 0 -3 0 -70 -15 -71 -14 -29 8 -30 8 4 19 3 19 1 28 0 28 -23 24 -23
25 -48 0 -48 0 -6 -10z"/>
</g>
</svg>
