<?xml version="1.0" standalone="no"?>
<!DOCTYPE svg PUBLIC "-//W3C//DTD SVG 20010904//EN"
 "http://www.w3.org/TR/2001/REC-SVG-20010904/DTD/svg10.dtd">
<svg version="1.0" xmlns="http://www.w3.org/2000/svg"
 width="82.000000pt" height="56.000000pt" viewBox="0 0 82.000000 56.000000"
 preserveAspectRatio="xMidYMid meet">
<metadata>
Created by potrace 1.16, written by Peter Selinger 2001-2019
</metadata>
<g transform="translate(0.000000,56.000000) scale(0.100000,-0.100000)"
fill="#000000" stroke="none">
<path d="M446 547 l-20 -14 13 -32 13 -31 -6 -32 -6 -32 -17 -18 -16 -18 -14
0 -14 0 -16 16 -16 15 6 66 7 66 -83 -6 -82 -7 -32 0 -33 0 0 -69 0 -70 -22
-26 -23 -25 -32 12 -32 12 -8 -8 -8 -7 0 -56 0 -55 28 -21 27 -21 48 -2 47 -2
-1 -29 -1 -28 -8 -57 -8 -57 264 -3 264 -3 8 6 9 7 8 67 8 67 6 5 6 6 42 1 42
1 13 25 13 25 0 41 0 41 -20 18 -20 18 -55 -6 -55 -6 0 92 0 92 -8 11 -7 11
-50 11 -50 11 -45 6 -45 6 -19 -14z"/>
</g>
</svg>
