<?xml version="1.0" standalone="no"?>
<!DOCTYPE svg PUBLIC "-//W3C//DTD SVG 20010904//EN"
 "http://www.w3.org/TR/2001/REC-SVG-20010904/DTD/svg10.dtd">
<svg version="1.0" xmlns="http://www.w3.org/2000/svg"
 width="59.000000pt" height="64.000000pt" viewBox="0 0 59.000000 64.000000"
 preserveAspectRatio="xMidYMid meet">
<metadata>
Created by potrace 1.16, written by Peter Selinger 2001-2019
</metadata>
<g transform="translate(0.000000,64.000000) scale(0.100000,-0.100000)"
fill="#000000" stroke="none">
<path d="M258 629 l-18 -10 0 -20 0 -20 11 -21 11 -20 -12 -12 -11 -11 -107
-5 -107 -5 0 -92 0 -92 12 -12 13 -13 50 13 51 13 20 -17 19 -18 0 -27 0 -27
-18 -16 -17 -16 -25 -9 -25 -9 -28 9 -27 10 -25 -6 -25 -6 0 -64 0 -63 11 -32
11 -31 268 0 268 0 17 49 16 50 -3 48 -3 48 -20 -1 -20 -2 -45 -7 -45 -7 -22
22 -23 21 0 25 0 25 25 25 26 26 41 -7 40 -7 9 13 9 14 0 88 0 89 -32 -9 -33
-8 -60 0 -60 0 3 15 4 15 5 32 5 32 -25 25 -26 26 -33 0 -33 -1 -17 -10z"/>
</g>
</svg>
