<?xml version="1.0" standalone="no"?>
<!DOCTYPE svg PUBLIC "-//W3C//DTD SVG 20010904//EN"
 "http://www.w3.org/TR/2001/REC-SVG-20010904/DTD/svg10.dtd">
<svg version="1.0" xmlns="http://www.w3.org/2000/svg"
 width="83.000000pt" height="64.000000pt" viewBox="0 0 83.000000 64.000000"
 preserveAspectRatio="xMidYMid meet">
<metadata>
Created by potrace 1.16, written by Peter Selinger 2001-2019
</metadata>
<g transform="translate(0.000000,64.000000) scale(0.100000,-0.100000)"
fill="#000000" stroke="none">
<path d="M344 628 l-22 -10 -11 -24 -11 -25 0 -35 0 -34 -85 6 -84 7 -3 -103
-3 -103 -17 -11 -18 -11 -20 13 -20 12 -15 0 -14 0 -11 -19 -10 -20 0 -15 0
-16 21 -21 21 -21 33 6 33 6 6 -22 6 -23 0 -45 0 -45 6 -38 7 -37 264 0 265 0
-2 73 -2 72 1 26 1 25 60 -4 60 -4 25 16 25 16 0 50 0 49 -16 15 -15 16 -27 2
-27 1 -46 -2 -46 -3 5 83 5 82 -89 -5 -89 -5 -26 9 -26 9 5 44 5 45 -13 15
-12 15 -27 -1 -26 0 -21 -11z"/>
</g>
</svg>
