<?xml version="1.0" standalone="no"?>
<!DOCTYPE svg PUBLIC "-//W3C//DTD SVG 20010904//EN"
 "http://www.w3.org/TR/2001/REC-SVG-20010904/DTD/svg10.dtd">
<svg version="1.0" xmlns="http://www.w3.org/2000/svg"
 width="74.000000pt" height="55.000000pt" viewBox="0 0 74.000000 55.000000"
 preserveAspectRatio="xMidYMid meet">
<metadata>
Created by potrace 1.16, written by Peter Selinger 2001-2019
</metadata>
<g transform="translate(0.000000,55.000000) scale(0.100000,-0.100000)"
fill="#000000" stroke="none">
<path d="M80 541 l-24 -7 -7 -24 -7 -25 -1 -75 -1 -75 9 -14 9 -15 41 14 41
13 25 -11 25 -12 0 -25 0 -25 -20 -20 -20 -20 -12 -2 -13 -1 -60 -1 -60 -1 -3
-34 -4 -34 22 -67 21 -67 66 -1 66 -1 50 -6 50 -7 -7 54 -7 55 12 27 12 26 24
7 24 6 25 -11 24 -11 -6 -44 -6 -44 11 -7 11 -7 86 -15 86 -15 5 5 5 5 -15 76
-15 76 5 18 5 19 61 -5 62 -4 33 20 32 21 0 35 0 34 -22 12 -21 11 -65 -6 -65
-7 6 106 7 106 -93 -3 -92 -3 0 -43 0 -43 -19 -15 -20 -14 -27 0 -28 0 -24 11
-25 11 -11 25 -12 25 12 14 11 14 -6 15 -5 15 -68 -1 -68 -1 -25 -7z"/>
</g>
</svg>
