<?xml version="1.0" standalone="no"?>
<!DOCTYPE svg PUBLIC "-//W3C//DTD SVG 20010904//EN"
 "http://www.w3.org/TR/2001/REC-SVG-20010904/DTD/svg10.dtd">
<svg version="1.0" xmlns="http://www.w3.org/2000/svg"
 width="81.000000pt" height="62.000000pt" viewBox="0 0 81.000000 62.000000"
 preserveAspectRatio="xMidYMid meet">
<metadata>
Created by potrace 1.16, written by Peter Selinger 2001-2019
</metadata>
<g transform="translate(0.000000,62.000000) scale(0.100000,-0.100000)"
fill="#000000" stroke="none">
<path d="M343 608 l-22 -10 -11 -28 -12 -28 4 -29 3 -28 -87 3 -88 3 0 -98 0
-99 -12 -12 -12 -12 -26 0 -26 0 -13 13 -12 12 -15 -19 -14 -20 0 -8 0 -8 19
-19 20 -20 34 6 34 5 6 -23 7 -24 0 -45 0 -45 6 -37 7 -38 254 0 255 0 -3 73
-2 72 1 27 2 28 60 -7 59 -6 26 17 25 16 0 40 0 39 -16 15 -15 16 -27 1 -27 1
-30 -2 -30 -1 -18 -5 -17 -5 6 87 7 87 -86 -6 -87 -6 -30 11 -31 10 7 44 6 44
-12 15 -12 15 -17 -1 -16 0 -22 -11z"/>
</g>
</svg>
