<?xml version="1.0" standalone="no"?>
<!DOCTYPE svg PUBLIC "-//W3C//DTD SVG 20010904//EN"
 "http://www.w3.org/TR/2001/REC-SVG-20010904/DTD/svg10.dtd">
<svg version="1.0" xmlns="http://www.w3.org/2000/svg"
 width="60.000000pt" height="54.000000pt" viewBox="0 0 60.000000 54.000000"
 preserveAspectRatio="xMidYMid meet">
<metadata>
Created by potrace 1.16, written by Peter Selinger 2001-2019
</metadata>
<g transform="translate(0.000000,54.000000) scale(0.100000,-0.100000)"
fill="#000000" stroke="none">
<path d="M377 533 l-7 -6 6 -52 6 -53 -21 -21 -21 -21 -38 0 -39 0 -17 19 -18
19 13 23 12 23 -23 18 -23 19 -76 -3 -76 -3 -9 -48 -8 -47 7 -46 6 -45 24 -11
24 -11 31 13 30 12 14 -11 14 -12 5 -20 6 -21 -26 -25 -25 -26 -68 7 -69 6 -6
-21 -7 -20 16 -72 16 -72 8 -10 7 -10 260 5 259 5 18 55 17 55 0 32 1 32 -8 5
-8 5 -45 -10 -44 -10 -31 5 -30 6 -22 21 -22 20 0 22 1 22 14 19 15 20 36 -13
35 -13 24 16 24 16 10 37 11 38 0 56 0 56 -69 16 -69 17 -19 0 -20 0 -6 -7z"/>
</g>
</svg>
