<?xml version="1.0" standalone="no"?>
<!DOCTYPE svg PUBLIC "-//W3C//DTD SVG 20010904//EN"
 "http://www.w3.org/TR/2001/REC-SVG-20010904/DTD/svg10.dtd">
<svg version="1.0" xmlns="http://www.w3.org/2000/svg"
 width="67.000000pt" height="62.000000pt" viewBox="0 0 67.000000 62.000000"
 preserveAspectRatio="xMidYMid meet">
<metadata>
Created by potrace 1.16, written by Peter Selinger 2001-2019
</metadata>
<g transform="translate(0.000000,62.000000) scale(0.100000,-0.100000)"
fill="#000000" stroke="none">
<path d="M211 606 l-12 -14 -1 -19 -1 -18 7 -34 8 -33 -99 7 -100 7 -6 -83 -7
-83 3 -2 2 -2 45 7 45 7 34 -7 34 -7 8 -14 9 -13 0 -37 0 -38 -25 -16 -26 -17
-58 6 -59 6 -4 -31 -5 -32 5 -67 5 -68 254 -3 253 -3 -7 45 -8 45 0 45 0 45
66 -3 67 -4 16 23 16 23 0 33 0 32 -16 16 -16 16 -17 -5 -16 -5 -26 -6 -25 -6
-14 16 -13 16 -5 79 -5 80 -13 11 -13 11 -88 15 -88 15 -13 11 -13 10 3 26 3
26 -36 3 -36 3 -12 -15z"/>
</g>
</svg>
