<?xml version="1.0" standalone="no"?>
<!DOCTYPE svg PUBLIC "-//W3C//DTD SVG 20010904//EN"
 "http://www.w3.org/TR/2001/REC-SVG-20010904/DTD/svg10.dtd">
<svg version="1.0" xmlns="http://www.w3.org/2000/svg"
 width="66.000000pt" height="54.000000pt" viewBox="0 0 66.000000 54.000000"
 preserveAspectRatio="xMidYMid meet">
<metadata>
Created by potrace 1.16, written by Peter Selinger 2001-2019
</metadata>
<g transform="translate(0.000000,54.000000) scale(0.100000,-0.100000)"
fill="#000000" stroke="none">
<path d="M332 528 l-10 -13 9 -20 8 -20 0 -28 1 -28 -26 -24 -27 -25 -32 0
-32 0 -24 26 -24 25 0 46 0 45 -59 -6 -59 -6 -29 0 -29 0 3 -92 3 -93 29 3 29
3 23 -5 22 -6 10 -29 11 -30 -10 -35 -10 -36 -20 -10 -20 -11 -19 6 -18 6 -9
-13 -8 -13 -5 -67 -5 -67 254 -3 254 -3 8 20 8 20 11 59 10 59 10 12 11 13 30
-12 31 -11 14 19 14 20 0 52 0 52 -19 23 -20 24 -12 -12 -13 -13 -33 0 -32 0
-11 19 -10 20 0 58 0 58 -8 12 -8 12 -64 15 -65 16 -11 0 -12 0 -10 -12z"/>
</g>
</svg>
