<?xml version="1.0" standalone="no"?>
<!DOCTYPE svg PUBLIC "-//W3C//DTD SVG 20010904//EN"
 "http://www.w3.org/TR/2001/REC-SVG-20010904/DTD/svg10.dtd">
<svg version="1.0" xmlns="http://www.w3.org/2000/svg"
 width="57.000000pt" height="63.000000pt" viewBox="0 0 57.000000 63.000000"
 preserveAspectRatio="xMidYMid meet">
<metadata>
Created by potrace 1.16, written by Peter Selinger 2001-2019
</metadata>
<g transform="translate(0.000000,63.000000) scale(0.100000,-0.100000)"
fill="#000000" stroke="none">
<path d="M235 581 l7 -49 -21 -11 -20 -11 -98 0 -99 0 4 -97 4 -98 11 -14 11
-13 41 5 40 5 14 3 15 4 10 -27 10 -27 -17 -19 -17 -18 -33 4 -33 4 -11 -14
-11 -13 -11 -75 -12 -75 -6 -23 -5 -22 275 0 274 0 7 37 6 38 0 46 0 45 -14
19 -13 18 -46 -11 -46 -12 -16 6 -16 6 -9 19 -10 18 0 30 0 30 16 16 17 16 63
-7 64 -6 0 43 0 44 -7 54 -6 53 -41 -7 -41 -8 -50 -1 -50 -1 4 15 4 15 4 26 5
25 -27 32 -27 32 -50 0 -50 0 7 -49z"/>
</g>
</svg>
