<?xml version="1.0" standalone="no"?>
<!DOCTYPE svg PUBLIC "-//W3C//DTD SVG 20010904//EN"
 "http://www.w3.org/TR/2001/REC-SVG-20010904/DTD/svg10.dtd">
<svg version="1.0" xmlns="http://www.w3.org/2000/svg"
 width="62.000000pt" height="56.000000pt" viewBox="0 0 62.000000 56.000000"
 preserveAspectRatio="xMidYMid meet">
<metadata>
Created by potrace 1.16, written by Peter Selinger 2001-2019
</metadata>
<g transform="translate(0.000000,56.000000) scale(0.100000,-0.100000)"
fill="#000000" stroke="none">
<path d="M375 550 l-7 -11 7 -49 7 -48 -21 -21 -21 -21 -29 0 -29 0 -11 14
-11 13 6 31 6 30 -25 16 -25 17 -83 -3 -84 -3 -9 -58 -9 -57 9 -47 9 -48 28
-9 28 -10 29 11 28 11 11 -11 11 -11 0 -18 0 -18 -25 -16 -24 -16 -65 7 -65 7
-7 -26 -6 -26 6 -38 7 -37 14 -50 14 -50 263 3 263 3 11 3 11 4 16 59 17 59 0
37 0 36 -10 6 -10 6 -55 -11 -54 -11 -35 16 -35 17 -6 18 -6 19 13 20 13 21
15 -6 15 -7 22 -4 23 -5 24 16 25 16 10 37 11 38 0 66 0 66 -69 16 -69 17 -30
0 -31 0 -6 -10z"/>
</g>
</svg>
