<?xml version="1.0" standalone="no"?>
<!DOCTYPE svg PUBLIC "-//W3C//DTD SVG 20010904//EN"
 "http://www.w3.org/TR/2001/REC-SVG-20010904/DTD/svg10.dtd">
<svg version="1.0" xmlns="http://www.w3.org/2000/svg"
 width="55.000000pt" height="61.000000pt" viewBox="0 0 55.000000 61.000000"
 preserveAspectRatio="xMidYMid meet">
<metadata>
Created by potrace 1.16, written by Peter Selinger 2001-2019
</metadata>
<g transform="translate(0.000000,61.000000) scale(0.100000,-0.100000)"
fill="#000000" stroke="none">
<path d="M234 586 l6 -24 6 -15 6 -15 -21 -21 -21 -21 -102 0 -103 0 3 -89 3
-90 15 -12 16 -13 46 13 46 12 13 -17 13 -18 0 -26 0 -27 -18 -17 -19 -16 -29
6 -30 6 -11 -14 -11 -13 -14 -87 -14 -88 262 0 261 0 7 38 6 37 0 36 0 35 -12
17 -13 16 -43 -11 -43 -11 -24 11 -24 11 -9 33 -9 33 8 29 9 30 12 8 13 9 64
-6 64 -6 -7 83 -7 82 -4 4 -4 5 -44 -12 -43 -12 -44 3 -45 3 2 20 1 20 7 21 6
21 -26 31 -27 32 -40 0 -40 0 6 -24z"/>
</g>
</svg>
