<?xml version="1.0" standalone="no"?>
<!DOCTYPE svg PUBLIC "-//W3C//DTD SVG 20010904//EN"
 "http://www.w3.org/TR/2001/REC-SVG-20010904/DTD/svg10.dtd">
<svg version="1.0" xmlns="http://www.w3.org/2000/svg"
 width="57.000000pt" height="62.000000pt" viewBox="0 0 57.000000 62.000000"
 preserveAspectRatio="xMidYMid meet">
<metadata>
Created by potrace 1.16, written by Peter Selinger 2001-2019
</metadata>
<g transform="translate(0.000000,62.000000) scale(0.100000,-0.100000)"
fill="#000000" stroke="none">
<path d="M256 607 l-19 -14 14 -36 13 -37 -12 -12 -13 -13 -107 -5 -107 -5 -3
-66 -3 -66 11 -27 10 -28 23 6 22 7 33 6 32 6 20 -18 20 -18 0 -37 0 -37 -18
-16 -17 -16 -29 -11 -29 -11 -32 11 -32 11 -16 -7 -17 -6 0 -53 0 -52 11 -32
11 -31 258 0 258 0 17 49 16 50 -3 38 -3 38 -15 -3 -15 -4 -50 -5 -50 -5 -22
21 -23 22 0 35 0 35 26 26 26 26 43 -6 43 -6 6 15 6 16 0 73 0 74 -32 -10 -33
-9 -53 -1 -54 -1 -10 10 -10 10 12 36 11 35 -11 20 -10 21 -20 10 -19 10 -18
0 -19 0 -18 -13z"/>
</g>
</svg>
