<?xml version="1.0" standalone="no"?>
<!DOCTYPE svg PUBLIC "-//W3C//DTD SVG 20010904//EN"
 "http://www.w3.org/TR/2001/REC-SVG-20010904/DTD/svg10.dtd">
<svg version="1.0" xmlns="http://www.w3.org/2000/svg"
 width="68.000000pt" height="52.000000pt" viewBox="0 0 68.000000 52.000000"
 preserveAspectRatio="xMidYMid meet">
<metadata>
Created by potrace 1.16, written by Peter Selinger 2001-2019
</metadata>
<g transform="translate(0.000000,52.000000) scale(0.100000,-0.100000)"
fill="#000000" stroke="none">
<path d="M338 515 l-6 -6 5 -63 6 -63 -22 -22 -21 -21 -33 0 -33 0 -19 14 -18
13 6 48 7 48 -11 13 -11 14 -73 0 -73 0 -16 -6 -16 -6 0 -73 0 -73 18 -21 17
-22 33 12 34 11 24 -10 23 -11 7 -27 7 -28 -15 -25 -14 -26 -64 2 -65 2 -7
-12 -8 -12 0 -36 0 -36 6 -47 7 -46 252 0 251 0 -19 76 -19 76 6 24 6 24 69
-6 69 -7 25 26 26 25 -6 21 -5 20 -14 12 -14 11 -30 -12 -31 -13 -23 11 -23
10 -7 37 -7 37 7 67 6 66 -6 -6 -7 -7 -46 14 -46 14 -42 0 -42 0 -5 -5z"/>
</g>
</svg>
