<?xml version="1.0" standalone="no"?>
<!DOCTYPE svg PUBLIC "-//W3C//DTD SVG 20010904//EN"
 "http://www.w3.org/TR/2001/REC-SVG-20010904/DTD/svg10.dtd">
<svg version="1.0" xmlns="http://www.w3.org/2000/svg"
 width="69.000000pt" height="52.000000pt" viewBox="0 0 69.000000 52.000000"
 preserveAspectRatio="xMidYMid meet">
<metadata>
Created by potrace 1.16, written by Peter Selinger 2001-2019
</metadata>
<g transform="translate(0.000000,52.000000) scale(0.100000,-0.100000)"
fill="#000000" stroke="none">
<path d="M38 513 l-38 -4 0 -255 0 -254 260 0 260 0 0 8 0 8 -11 58 -11 59 7
24 6 24 34 -7 35 -6 33 6 33 6 22 21 22 20 0 38 0 38 -21 19 -21 19 -66 1 -66
1 2 59 3 59 5 28 6 27 -9 0 -9 0 -84 -10 -85 -10 -24 -6 -23 -5 6 -41 7 -41
-16 -23 -15 -24 -29 0 -29 0 -13 16 -13 16 0 36 -1 37 8 33 9 32 -69 -2 -68
-1 -37 -4z"/>
</g>
</svg>
