<?xml version="1.0" standalone="no"?>
<!DOCTYPE svg PUBLIC "-//W3C//DTD SVG 20010904//EN"
 "http://www.w3.org/TR/2001/REC-SVG-20010904/DTD/svg10.dtd">
<svg version="1.0" xmlns="http://www.w3.org/2000/svg"
 width="68.000000pt" height="51.000000pt" viewBox="0 0 68.000000 51.000000"
 preserveAspectRatio="xMidYMid meet">
<metadata>
Created by potrace 1.16, written by Peter Selinger 2001-2019
</metadata>
<g transform="translate(0.000000,51.000000) scale(0.100000,-0.100000)"
fill="#000000" stroke="none">
<path d="M208 503 l-48 -4 0 -60 0 -60 -15 -35 -15 -36 -57 4 -57 3 -10 -28
-10 -27 10 -28 10 -27 54 0 55 0 7 -40 7 -40 6 -57 6 -58 245 -1 244 -2 13 -1
12 -1 9 63 9 63 -12 25 -11 26 -38 -7 -38 -6 -16 18 -16 18 -7 23 -7 23 12 30
13 29 24 6 24 6 29 -5 29 -6 6 9 5 8 -6 87 -7 86 -76 -6 -76 -6 -33 -5 -32 -5
6 -37 6 -38 -16 -13 -16 -13 -27 0 -27 0 -23 26 -23 27 0 40 0 39 -37 -2 -38
-2 -47 -3z"/>
</g>
</svg>
