<?xml version="1.0" standalone="no"?>
<!DOCTYPE svg PUBLIC "-//W3C//DTD SVG 20010904//EN"
 "http://www.w3.org/TR/2001/REC-SVG-20010904/DTD/svg10.dtd">
<svg version="1.0" xmlns="http://www.w3.org/2000/svg"
 width="67.000000pt" height="53.000000pt" viewBox="0 0 67.000000 53.000000"
 preserveAspectRatio="xMidYMid meet">
<metadata>
Created by potrace 1.16, written by Peter Selinger 2001-2019
</metadata>
<g transform="translate(0.000000,53.000000) scale(0.100000,-0.100000)"
fill="#000000" stroke="none">
<path d="M497 523 l-7 -6 6 -51 6 -51 -14 -19 -14 -18 -45 -5 -44 -5 -28 11
-27 11 6 38 6 39 -23 17 -23 16 -76 -1 -75 -1 13 -5 12 -5 0 -66 -1 -67 -13
-17 -12 -17 -56 6 -55 6 -17 -24 -16 -23 0 -24 0 -23 43 -19 42 -20 32 0 32 0
6 10 6 10 14 0 13 0 10 -29 11 -30 -14 -63 -13 -63 -7 -17 -7 -18 251 0 251 0
0 257 0 256 -5 -5 -6 -5 -57 13 -57 14 -21 0 -21 0 -6 -7z"/>
</g>
</svg>
