<?xml version="1.0" standalone="no"?>
<!DOCTYPE svg PUBLIC "-//W3C//DTD SVG 20010904//EN"
 "http://www.w3.org/TR/2001/REC-SVG-20010904/DTD/svg10.dtd">
<svg version="1.0" xmlns="http://www.w3.org/2000/svg"
 width="55.000000pt" height="52.000000pt" viewBox="0 0 55.000000 52.000000"
 preserveAspectRatio="xMidYMid meet">
<metadata>
Created by potrace 1.16, written by Peter Selinger 2001-2019
</metadata>
<g transform="translate(0.000000,52.000000) scale(0.100000,-0.100000)"
fill="#000000" stroke="none">
<path d="M337 514 l-8 -8 7 -57 6 -57 -25 -26 -26 -26 -27 0 -26 0 -29 17 -28
17 2 65 2 66 -93 3 -92 3 0 -79 0 -78 13 -19 14 -18 52 5 52 5 9 -18 10 -18 0
-38 0 -39 -13 -18 -13 -17 -27 12 -28 13 -14 -15 -14 -14 -16 -80 -15 -80 0
-7 0 -8 264 0 264 0 7 87 8 87 -10 15 -10 16 -45 0 -45 0 -16 14 -17 13 0 29
0 29 43 -6 42 -6 20 15 20 15 -1 92 -2 92 -11 11 -12 12 -82 3 -82 4 -8 -8z"/>
</g>
</svg>
