<?xml version="1.0" standalone="no"?>
<!DOCTYPE svg PUBLIC "-//W3C//DTD SVG 20010904//EN"
 "http://www.w3.org/TR/2001/REC-SVG-20010904/DTD/svg10.dtd">
<svg version="1.0" xmlns="http://www.w3.org/2000/svg"
 width="78.000000pt" height="50.000000pt" viewBox="0 0 78.000000 50.000000"
 preserveAspectRatio="xMidYMid meet">
<metadata>
Created by potrace 1.16, written by Peter Selinger 2001-2019
</metadata>
<g transform="translate(0.000000,50.000000) scale(0.100000,-0.100000)"
fill="#000000" stroke="none">
<path d="M172 493 l-44 -4 4 -92 3 -92 -34 3 -33 4 -23 -6 -22 -6 -13 -29 -12
-30 7 -23 7 -23 16 -18 16 -18 37 6 37 7 12 -23 12 -22 -7 -63 -7 -64 247 0
246 0 -7 69 -6 70 6 25 6 25 67 -2 67 -2 14 26 15 25 -7 28 -7 27 -23 11 -24
10 -34 -11 -33 -12 -17 22 -18 21 0 75 0 74 -17 -5 -18 -5 -75 -16 -75 -16 -9
-9 -9 -9 11 -26 12 -26 -13 -20 -12 -20 -22 -5 -22 -6 -28 14 -28 13 -13 39
-12 38 9 34 9 33 -6 5 -5 6 -41 -2 -41 -1 -43 -4z"/>
</g>
</svg>
