<?xml version="1.0" standalone="no"?>
<!DOCTYPE svg PUBLIC "-//W3C//DTD SVG 20010904//EN"
 "http://www.w3.org/TR/2001/REC-SVG-20010904/DTD/svg10.dtd">
<svg version="1.0" xmlns="http://www.w3.org/2000/svg"
 width="70.000000pt" height="53.000000pt" viewBox="0 0 70.000000 53.000000"
 preserveAspectRatio="xMidYMid meet">
<metadata>
Created by potrace 1.16, written by Peter Selinger 2001-2019
</metadata>
<g transform="translate(0.000000,53.000000) scale(0.100000,-0.100000)"
fill="#000000" stroke="none">
<path d="M208 523 l-48 -4 0 -60 0 -60 -15 -35 -15 -36 -54 6 -55 7 -10 -20
-11 -20 0 -31 0 -31 11 -21 11 -20 51 4 52 3 7 -40 7 -40 6 -57 6 -58 245 -2
244 -2 23 0 22 -1 9 68 9 68 -9 27 -10 27 -39 0 -40 0 -13 9 -13 8 -10 25 -9
24 11 22 12 22 11 8 11 8 42 -6 41 -6 7 11 6 10 -7 96 -7 96 -86 -7 -86 -6
-34 -5 -33 -5 5 -37 6 -36 -11 -13 -10 -13 -23 0 -24 0 -20 26 -21 27 0 38 0
39 -47 -2 -48 -2 -47 -3z"/>
</g>
</svg>
