<?xml version="1.0" standalone="no"?>
<!DOCTYPE svg PUBLIC "-//W3C//DTD SVG 20010904//EN"
 "http://www.w3.org/TR/2001/REC-SVG-20010904/DTD/svg10.dtd">
<svg version="1.0" xmlns="http://www.w3.org/2000/svg"
 width="67.000000pt" height="50.000000pt" viewBox="0 0 67.000000 50.000000"
 preserveAspectRatio="xMidYMid meet">
<metadata>
Created by potrace 1.16, written by Peter Selinger 2001-2019
</metadata>
<g transform="translate(0.000000,50.000000) scale(0.100000,-0.100000)"
fill="#000000" stroke="none">
<path d="M38 493 l-38 -4 0 -245 0 -244 251 0 250 0 -5 18 -5 17 -7 47 -6 48
6 26 7 26 47 -7 47 -6 26 10 26 9 16 17 17 16 0 28 0 28 -19 17 -19 17 -35 6
-36 5 -30 -10 -29 -10 -5 11 -4 12 6 83 6 83 -25 -5 -25 -5 -60 -6 -60 -6 -18
-5 -17 -5 6 -40 7 -39 -17 -25 -16 -25 -39 0 -39 0 -11 14 -12 14 -5 34 -6 34
10 37 10 37 -56 -2 -57 -1 -37 -4z"/>
</g>
</svg>
