<?xml version="1.0" standalone="no"?>
<!DOCTYPE svg PUBLIC "-//W3C//DTD SVG 20010904//EN"
 "http://www.w3.org/TR/2001/REC-SVG-20010904/DTD/svg10.dtd">
<svg version="1.0" xmlns="http://www.w3.org/2000/svg"
 width="83.000000pt" height="52.000000pt" viewBox="0 0 83.000000 52.000000"
 preserveAspectRatio="xMidYMid meet">
<metadata>
Created by potrace 1.16, written by Peter Selinger 2001-2019
</metadata>
<g transform="translate(0.000000,52.000000) scale(0.100000,-0.100000)"
fill="#000000" stroke="none">
<path d="M497 514 l-6 -6 6 -62 5 -61 -22 -20 -22 -20 -40 0 -40 0 -14 20 -15
20 7 41 6 42 -20 11 -21 11 -80 0 -80 0 -3 -92 -3 -93 -20 3 -20 2 -33 1 -32
1 -25 -16 -25 -16 0 -35 0 -35 33 -20 32 -21 45 3 45 3 3 -88 3 -87 254 0 253
0 6 27 5 28 6 65 7 65 13 19 14 18 35 -13 35 -13 21 19 21 19 -3 20 -3 21 -27
13 -27 12 -46 -10 -46 -10 -11 6 -10 7 3 100 4 101 -50 13 -50 13 -31 0 -31 0
-6 -6z"/>
</g>
</svg>
