<?xml version="1.0" standalone="no"?>
<!DOCTYPE svg PUBLIC "-//W3C//DTD SVG 20010904//EN"
 "http://www.w3.org/TR/2001/REC-SVG-20010904/DTD/svg10.dtd">
<svg version="1.0" xmlns="http://www.w3.org/2000/svg"
 width="64.000000pt" height="51.000000pt" viewBox="0 0 64.000000 51.000000"
 preserveAspectRatio="xMidYMid meet">
<metadata>
Created by potrace 1.16, written by Peter Selinger 2001-2019
</metadata>
<g transform="translate(0.000000,51.000000) scale(0.100000,-0.100000)"
fill="#000000" stroke="none">
<path d="M37 503 l-38 -4 3 -102 3 -102 15 4 15 3 40 5 40 5 19 -21 19 -21 -6
-40 -5 -41 -13 -15 -13 -16 -38 6 -38 6 -9 -22 -8 -23 -6 -57 -5 -57 248 -3
249 -3 11 65 11 65 5 28 6 27 19 11 20 10 14 -11 13 -11 16 23 16 22 0 21 0
21 -13 19 -14 18 -7 -11 -7 -12 -22 0 -22 1 -18 13 -18 14 -9 33 -10 34 0 59
0 59 -85 -5 -85 -6 -16 -12 -15 -13 11 -11 10 -10 0 -21 0 -22 -18 -16 -19
-17 -36 0 -37 0 -21 21 -21 21 6 49 7 49 -53 -2 -53 -1 -38 -4z"/>
</g>
</svg>
