<?xml version="1.0" standalone="no"?>
<!DOCTYPE svg PUBLIC "-//W3C//DTD SVG 20010904//EN"
 "http://www.w3.org/TR/2001/REC-SVG-20010904/DTD/svg10.dtd">
<svg version="1.0" xmlns="http://www.w3.org/2000/svg"
 width="66.000000pt" height="53.000000pt" viewBox="0 0 66.000000 53.000000"
 preserveAspectRatio="xMidYMid meet">
<metadata>
Created by potrace 1.16, written by Peter Selinger 2001-2019
</metadata>
<g transform="translate(0.000000,53.000000) scale(0.100000,-0.100000)"
fill="#000000" stroke="none">
<path d="M38 523 l-38 -4 0 -109 0 -109 9 -6 10 -5 45 12 45 12 21 -19 22 -20
-6 -33 -5 -34 -12 -14 -11 -14 -39 6 -39 6 -8 -23 -9 -24 -7 -68 -7 -67 238 0
238 0 21 -6 22 -6 12 74 12 73 8 25 7 25 31 -2 31 -3 15 22 16 22 0 31 0 31
-14 19 -14 19 -25 -13 -24 -13 -22 14 -21 13 -10 35 -10 35 0 59 0 59 -96 -5
-96 -5 -16 -16 -16 -16 14 -26 13 -25 -18 -20 -18 -20 -29 0 -28 0 -20 20 -21
21 7 49 7 50 -64 -2 -64 -1 -37 -4z"/>
</g>
</svg>
