<?xml version="1.0" standalone="no"?>
<!DOCTYPE svg PUBLIC "-//W3C//DTD SVG 20010904//EN"
 "http://www.w3.org/TR/2001/REC-SVG-20010904/DTD/svg10.dtd">
<svg version="1.0" xmlns="http://www.w3.org/2000/svg"
 width="82.000000pt" height="51.000000pt" viewBox="0 0 82.000000 51.000000"
 preserveAspectRatio="xMidYMid meet">
<metadata>
Created by potrace 1.16, written by Peter Selinger 2001-2019
</metadata>
<g transform="translate(0.000000,51.000000) scale(0.100000,-0.100000)"
fill="#000000" stroke="none">
<path d="M471 501 l-15 -10 12 -25 11 -25 -10 -31 -11 -30 -18 -10 -19 -10
-43 0 -43 0 -15 10 -14 9 13 36 13 36 -18 20 -17 19 -67 0 -68 0 -4 -76 -3
-76 -20 -15 -20 -14 -25 5 -25 5 -15 5 -15 6 -14 -9 -13 -9 -5 -44 -5 -45 11
-22 12 -22 35 7 34 6 14 -11 14 -12 7 -47 6 -47 10 -37 10 -38 250 0 251 0 -7
17 -8 18 -5 66 -4 66 17 7 18 7 32 -11 32 -11 29 11 29 11 17 16 18 16 0 37 0
37 -20 18 -20 18 -32 -6 -33 -6 -22 -7 -23 -6 -11 28 -10 29 3 67 3 67 -20 5
-20 5 -65 6 -65 6 -14 -10z"/>
</g>
</svg>
