<?xml version="1.0" standalone="no"?>
<!DOCTYPE svg PUBLIC "-//W3C//DTD SVG 20010904//EN"
 "http://www.w3.org/TR/2001/REC-SVG-20010904/DTD/svg10.dtd">
<svg version="1.0" xmlns="http://www.w3.org/2000/svg"
 width="69.000000pt" height="55.000000pt" viewBox="0 0 69.000000 55.000000"
 preserveAspectRatio="xMidYMid meet">
<metadata>
Created by potrace 1.16, written by Peter Selinger 2001-2019
</metadata>
<g transform="translate(0.000000,55.000000) scale(0.100000,-0.100000)"
fill="#000000" stroke="none">
<path d="M495 539 l-7 -10 7 -44 6 -44 -11 -20 -10 -20 -35 -7 -34 -6 -28 9
-27 9 2 41 3 41 -23 16 -22 16 -83 0 -83 0 0 -15 0 -15 10 0 10 0 0 -55 0 -55
-11 -18 -11 -18 -58 4 -57 4 -17 -23 -16 -23 0 -34 0 -33 43 -19 42 -20 42 0
42 0 7 11 6 11 9 -13 9 -14 0 -36 0 -36 -15 -49 -15 -49 0 -12 0 -13 260 0
260 0 0 263 0 263 -70 12 -70 12 -25 0 -24 0 -6 -11z"/>
</g>
</svg>
