<?xml version="1.0" standalone="no"?>
<!DOCTYPE svg PUBLIC "-//W3C//DTD SVG 20010904//EN"
 "http://www.w3.org/TR/2001/REC-SVG-20010904/DTD/svg10.dtd">
<svg version="1.0" xmlns="http://www.w3.org/2000/svg"
 width="63.000000pt" height="49.000000pt" viewBox="0 0 63.000000 49.000000"
 preserveAspectRatio="xMidYMid meet">
<metadata>
Created by potrace 1.16, written by Peter Selinger 2001-2019
</metadata>
<g transform="translate(0.000000,49.000000) scale(0.100000,-0.100000)"
fill="#000000" stroke="none">
<path d="M130 428 l0 -63 -13 -25 -12 -25 -28 -9 -28 -10 -19 12 -19 12 -7
-35 -6 -35 6 -25 6 -24 21 -11 20 -11 35 11 36 12 11 -11 11 -11 1 -43 0 -42
-7 -48 -8 -47 251 0 250 0 -3 87 -3 88 -45 -3 -45 -3 -32 21 -33 20 0 35 0 35
25 16 25 16 32 -1 33 -1 20 -2 20 -3 3 89 3 89 -23 -7 -23 -7 -57 -10 -57 -11
-12 -15 -13 -15 13 -8 13 -8 -7 -21 -7 -22 -23 -15 -23 -15 -31 -1 -30 -1 -16
13 -17 14 7 58 7 58 -27 10 -26 10 -75 0 -74 0 0 -62z"/>
</g>
</svg>
