<?xml version="1.0" standalone="no"?>
<!DOCTYPE svg PUBLIC "-//W3C//DTD SVG 20010904//EN"
 "http://www.w3.org/TR/2001/REC-SVG-20010904/DTD/svg10.dtd">
<svg version="1.0" xmlns="http://www.w3.org/2000/svg"
 width="71.000000pt" height="50.000000pt" viewBox="0 0 71.000000 50.000000"
 preserveAspectRatio="xMidYMid meet">
<metadata>
Created by potrace 1.16, written by Peter Selinger 2001-2019
</metadata>
<g transform="translate(0.000000,50.000000) scale(0.100000,-0.100000)"
fill="#000000" stroke="none">
<path d="M165 411 l8 -92 -64 6 -64 6 -13 -9 -12 -8 -9 -30 -8 -29 9 -33 9
-33 24 -11 24 -11 43 11 43 11 13 -17 14 -17 -6 -72 -6 -73 245 0 245 0 7 -2
8 -3 13 40 14 40 5 50 5 51 -14 11 -14 12 -42 -11 -41 -10 -26 6 -25 6 -16 26
-17 25 22 22 22 22 59 0 60 0 0 56 0 56 -6 47 -7 46 -81 -1 -81 0 -20 -8 -20
-8 0 -49 0 -48 -26 -10 -26 -9 -37 7 -37 7 6 33 6 32 -19 24 -20 25 -77 3 -77
4 7 -91z"/>
</g>
</svg>
