<?xml version="1.0" standalone="no"?>
<!DOCTYPE svg PUBLIC "-//W3C//DTD SVG 20010904//EN"
 "http://www.w3.org/TR/2001/REC-SVG-20010904/DTD/svg10.dtd">
<svg version="1.0" xmlns="http://www.w3.org/2000/svg"
 width="71.000000pt" height="51.000000pt" viewBox="0 0 71.000000 51.000000"
 preserveAspectRatio="xMidYMid meet">
<metadata>
Created by potrace 1.16, written by Peter Selinger 2001-2019
</metadata>
<g transform="translate(0.000000,51.000000) scale(0.100000,-0.100000)"
fill="#000000" stroke="none">
<path d="M156 411 l7 -98 -61 -5 -61 -4 -21 -19 -20 -18 0 -19 0 -19 26 -26
26 -26 64 7 64 7 7 -17 6 -16 -17 -72 -16 -71 0 -7 0 -8 259 0 259 0 10 33 10
32 7 38 6 38 -6 20 -7 20 -59 -7 -59 -7 -24 17 -25 16 -6 34 -7 34 15 28 15
29 59 0 58 0 3 93 3 92 -93 0 -93 0 -14 -9 -13 -9 8 -43 8 -44 -3 -15 -2 -15
-21 -17 -20 -18 -14 0 -13 0 -28 24 -28 24 14 25 14 25 -7 27 -7 26 -25 9 -25
10 -80 0 -80 0 7 -99z"/>
</g>
</svg>
