<?xml version="1.0" standalone="no"?>
<!DOCTYPE svg PUBLIC "-//W3C//DTD SVG 20010904//EN"
 "http://www.w3.org/TR/2001/REC-SVG-20010904/DTD/svg10.dtd">
<svg version="1.0" xmlns="http://www.w3.org/2000/svg"
 width="65.000000pt" height="51.000000pt" viewBox="0 0 65.000000 51.000000"
 preserveAspectRatio="xMidYMid meet">
<metadata>
Created by potrace 1.16, written by Peter Selinger 2001-2019
</metadata>
<g transform="translate(0.000000,51.000000) scale(0.100000,-0.100000)"
fill="#000000" stroke="none">
<path d="M130 451 l0 -60 -10 -25 -9 -25 -22 -11 -21 -12 -24 13 -24 12 -7 -6
-6 -7 -5 -54 -4 -54 21 -21 21 -21 19 0 20 0 26 10 26 10 9 -26 10 -26 -10
-61 -10 -62 0 -12 0 -13 260 0 261 0 -3 98 -3 97 -50 0 -51 0 -27 18 -27 17 0
25 0 25 24 16 25 16 53 -4 53 -3 3 99 3 98 -28 -5 -28 -5 -60 -12 -60 -12 -12
-10 -13 -10 0 -18 0 -18 12 -4 12 -4 -26 -27 -27 -27 -29 0 -28 0 -12 12 -11
11 6 58 6 58 -27 11 -27 10 -85 0 -84 0 0 -59z"/>
</g>
</svg>
