<?xml version="1.0" standalone="no"?>
<!DOCTYPE svg PUBLIC "-//W3C//DTD SVG 20010904//EN"
 "http://www.w3.org/TR/2001/REC-SVG-20010904/DTD/svg10.dtd">
<svg version="1.0" xmlns="http://www.w3.org/2000/svg"
 width="78.000000pt" height="49.000000pt" viewBox="0 0 78.000000 49.000000"
 preserveAspectRatio="xMidYMid meet">
<metadata>
Created by potrace 1.16, written by Peter Selinger 2001-2019
</metadata>
<g transform="translate(0.000000,49.000000) scale(0.100000,-0.100000)"
fill="#000000" stroke="none">
<path d="M130 396 l0 -94 -15 -12 -15 -12 -32 11 -33 12 -17 -22 -18 -21 0
-13 0 -14 10 -26 10 -27 15 12 15 12 14 -5 15 -6 9 -38 10 -38 12 -58 12 -57
256 2 257 3 15 85 15 85 9 14 8 13 31 -6 30 -6 19 16 18 17 0 27 0 26 -13 18
-13 17 -46 -12 -46 -13 -16 13 -16 13 0 85 0 85 -17 -7 -18 -7 -40 -14 -40
-13 -43 -11 -43 -11 7 -34 6 -33 -20 -11 -21 -11 -43 0 -44 0 -19 14 -20 14
13 47 13 48 -17 18 -17 19 -69 0 -68 0 0 -94z"/>
</g>
</svg>
