<?xml version="1.0" standalone="no"?>
<!DOCTYPE svg PUBLIC "-//W3C//DTD SVG 20010904//EN"
 "http://www.w3.org/TR/2001/REC-SVG-20010904/DTD/svg10.dtd">
<svg version="1.0" xmlns="http://www.w3.org/2000/svg"
 width="67.000000pt" height="52.000000pt" viewBox="0 0 67.000000 52.000000"
 preserveAspectRatio="xMidYMid meet">
<metadata>
Created by potrace 1.16, written by Peter Selinger 2001-2019
</metadata>
<g transform="translate(0.000000,52.000000) scale(0.100000,-0.100000)"
fill="#000000" stroke="none">
<path d="M122 429 l2 -91 -19 -14 -19 -14 -16 6 -15 7 -25 1 -25 1 -3 -49 -3
-48 18 -20 18 -20 42 5 43 5 10 -13 11 -13 -7 -81 -7 -81 239 0 239 0 21 -6
21 -5 13 84 13 84 -7 27 -6 26 -18 0 -18 0 -11 -11 -11 -11 -38 18 -38 19 -9
16 -10 16 6 26 7 25 38 -5 39 -5 21 27 22 28 0 80 0 80 -80 -7 -79 -6 -16 -7
-16 -6 6 -38 7 -39 -37 -16 -36 -15 -20 6 -19 6 -1 12 -1 12 2 37 1 37 -20 10
-20 11 -95 0 -96 0 2 -91z"/>
</g>
</svg>
