<?xml version="1.0" standalone="no"?>
<!DOCTYPE svg PUBLIC "-//W3C//DTD SVG 20010904//EN"
 "http://www.w3.org/TR/2001/REC-SVG-20010904/DTD/svg10.dtd">
<svg version="1.0" xmlns="http://www.w3.org/2000/svg"
 width="69.000000pt" height="49.000000pt" viewBox="0 0 69.000000 49.000000"
 preserveAspectRatio="xMidYMid meet">
<metadata>
Created by potrace 1.16, written by Peter Selinger 2001-2019
</metadata>
<g transform="translate(0.000000,49.000000) scale(0.100000,-0.100000)"
fill="#000000" stroke="none">
<path d="M157 388 l6 -103 -61 0 -61 0 -22 -22 -22 -22 17 -25 16 -26 25 -6
26 -6 41 10 42 11 13 -11 13 -10 0 -32 0 -31 -15 -55 -15 -55 0 -2 0 -3 249 0
249 0 7 18 6 17 9 47 9 48 -5 14 -5 14 -62 -5 -62 -5 -23 18 -23 19 -6 37 -6
38 13 31 13 31 20 7 21 8 26 -10 27 -10 17 6 16 6 0 81 0 80 -82 0 -83 0 -13
-9 -14 -8 11 -41 11 -40 -9 -25 -10 -26 -20 -10 -20 -11 -19 0 -19 0 -27 21
-26 20 0 23 0 22 11 11 11 11 -7 22 -7 21 -25 10 -24 9 -69 0 -69 0 6 -102z"/>
</g>
</svg>
