<?xml version="1.0" standalone="no"?>
<!DOCTYPE svg PUBLIC "-//W3C//DTD SVG 20010904//EN"
 "http://www.w3.org/TR/2001/REC-SVG-20010904/DTD/svg10.dtd">
<svg version="1.0" xmlns="http://www.w3.org/2000/svg"
 width="66.000000pt" height="52.000000pt" viewBox="0 0 66.000000 52.000000"
 preserveAspectRatio="xMidYMid meet">
<metadata>
Created by potrace 1.16, written by Peter Selinger 2001-2019
</metadata>
<g transform="translate(0.000000,52.000000) scale(0.100000,-0.100000)"
fill="#000000" stroke="none">
<path d="M209 513 l-46 -4 -5 -70 -5 -71 -21 -26 -20 -27 -50 0 -50 1 -5 -25
-5 -25 9 -23 9 -23 9 0 10 0 25 11 25 12 15 -16 16 -15 10 -74 10 -73 11 -32
11 -33 72 0 72 0 19 14 20 14 -14 37 -13 36 4 3 3 3 22 12 22 11 34 0 35 0 11
-14 12 -14 -6 -35 -7 -35 20 -11 21 -11 75 0 75 0 4 8 5 7 -15 80 -15 80 -10
12 -10 13 -21 -11 -20 -12 -14 19 -13 18 0 43 0 44 15 5 15 6 31 -12 30 -13
17 17 17 17 3 88 4 88 -59 -5 -58 -4 -35 -7 -35 -7 3 -38 4 -38 -18 -19 -17
-19 -38 0 -38 0 -15 16 -16 15 0 17 0 17 9 37 9 36 -22 6 -21 6 -30 -2 -30 -2
-46 -3z"/>
</g>
</svg>
