<?xml version="1.0" standalone="no"?>
<!DOCTYPE svg PUBLIC "-//W3C//DTD SVG 20010904//EN"
 "http://www.w3.org/TR/2001/REC-SVG-20010904/DTD/svg10.dtd">
<svg version="1.0" xmlns="http://www.w3.org/2000/svg"
 width="67.000000pt" height="66.000000pt" viewBox="0 0 67.000000 66.000000"
 preserveAspectRatio="xMidYMid meet">
<metadata>
Created by potrace 1.16, written by Peter Selinger 2001-2019
</metadata>
<g transform="translate(0.000000,66.000000) scale(0.100000,-0.100000)"
fill="#000000" stroke="none">
<path d="M198 653 l-38 -4 0 -67 0 -68 -15 -21 -15 -21 -28 -7 -29 -6 -28 11
-28 11 -4 -5 -5 -4 -4 -39 -5 -38 14 -25 13 -25 54 0 54 0 7 -25 7 -25 1 -46
1 -46 10 -29 11 -30 32 4 33 4 43 -12 42 -11 10 -26 10 -27 -12 -27 -11 -28 7
-10 6 -11 53 0 53 0 18 20 18 20 -10 45 -10 46 18 9 18 10 79 0 79 0 4 5 5 4
-14 88 -14 88 -10 12 -10 13 -20 -11 -19 -10 -15 12 -14 11 0 43 0 42 20 18
20 18 35 -10 35 -11 7 11 7 12 0 73 -1 72 -4 4 -4 4 -94 -24 -94 -23 -10 -10
-10 -10 12 -15 13 -15 -7 -11 -6 -10 -34 0 -34 0 -21 27 -22 28 4 42 3 43 -60
-2 -60 -1 -37 -4z"/>
</g>
</svg>
