<?xml version="1.0" standalone="no"?>
<!DOCTYPE svg PUBLIC "-//W3C//DTD SVG 20010904//EN"
 "http://www.w3.org/TR/2001/REC-SVG-20010904/DTD/svg10.dtd">
<svg version="1.0" xmlns="http://www.w3.org/2000/svg"
 width="80.000000pt" height="54.000000pt" viewBox="0 0 80.000000 54.000000"
 preserveAspectRatio="xMidYMid meet">
<metadata>
Created by potrace 1.16, written by Peter Selinger 2001-2019
</metadata>
<g transform="translate(0.000000,54.000000) scale(0.100000,-0.100000)"
fill="#000000" stroke="none">
<path d="M150 451 l0 -89 -16 -13 -15 -13 -35 13 -35 13 -24 -16 -25 -16 0
-30 0 -30 32 -21 33 -20 58 7 57 6 0 -55 0 -54 -15 -43 -15 -42 6 -9 5 -9 83
0 82 0 11 11 11 11 -10 28 -9 29 3 28 3 28 42 3 43 3 26 -26 26 -27 -6 -59 -7
-59 58 1 58 1 35 12 35 13 17 79 18 79 7 35 8 35 37 0 37 0 17 16 16 17 -11
20 -10 20 -24 6 -24 6 -33 -10 -33 -10 -14 18 -13 17 2 91 3 90 -40 -8 -40 -8
-35 -5 -35 -5 -14 -9 -15 -9 12 -15 12 -14 -6 -16 -6 -16 -30 -10 -31 -11 -33
0 -32 0 -15 6 -14 5 4 43 5 43 -23 17 -23 16 -68 0 -68 0 0 -89z"/>
</g>
</svg>
