<?xml version="1.0" standalone="no"?>
<!DOCTYPE svg PUBLIC "-//W3C//DTD SVG 20010904//EN"
 "http://www.w3.org/TR/2001/REC-SVG-20010904/DTD/svg10.dtd">
<svg version="1.0" xmlns="http://www.w3.org/2000/svg"
 width="82.000000pt" height="56.000000pt" viewBox="0 0 82.000000 56.000000"
 preserveAspectRatio="xMidYMid meet">
<metadata>
Created by potrace 1.16, written by Peter Selinger 2001-2019
</metadata>
<g transform="translate(0.000000,56.000000) scale(0.100000,-0.100000)"
fill="#000000" stroke="none">
<path d="M150 471 l0 -89 -13 -11 -14 -11 -32 13 -32 12 -27 -15 -27 -16 -3
-42 -3 -42 33 -20 33 -21 58 5 57 6 0 -43 0 -43 -16 -47 -16 -47 6 -15 5 -15
94 0 95 0 11 14 12 15 -12 40 -12 39 6 16 6 16 31 0 31 0 25 -25 25 -25 -7
-60 -7 -60 69 1 69 1 35 12 35 13 17 79 18 79 7 35 8 35 36 -3 36 -2 17 19 18
20 -6 26 -7 26 -26 10 -27 10 -36 -6 -37 -6 -13 16 -13 15 5 91 6 91 -27 -7
-26 -7 -55 -8 -55 -8 -18 -8 -19 -7 7 -33 6 -33 -39 -11 -38 -12 -24 4 -25 3
-3 47 -3 48 -22 15 -21 15 -78 0 -78 0 0 -89z"/>
</g>
</svg>
