<?xml version="1.0" standalone="no"?>
<!DOCTYPE svg PUBLIC "-//W3C//DTD SVG 20010904//EN"
 "http://www.w3.org/TR/2001/REC-SVG-20010904/DTD/svg10.dtd">
<svg version="1.0" xmlns="http://www.w3.org/2000/svg"
 width="64.000000pt" height="55.000000pt" viewBox="0 0 64.000000 55.000000"
 preserveAspectRatio="xMidYMid meet">
<metadata>
Created by potrace 1.16, written by Peter Selinger 2001-2019
</metadata>
<g transform="translate(0.000000,55.000000) scale(0.100000,-0.100000)"
fill="#000000" stroke="none">
<path d="M140 485 l0 -66 -14 -34 -15 -34 -27 -7 -27 -7 -19 12 -18 11 -11
-27 -10 -27 10 -23 10 -22 27 -17 26 -18 31 12 30 12 15 -12 15 -13 -6 -70 -6
-70 -7 -23 -7 -24 102 4 102 3 10 15 9 15 -5 25 -6 25 -2 25 -2 25 27 3 27 3
20 -11 21 -11 15 -30 16 -30 -3 -47 -3 -47 50 1 50 1 38 16 38 16 -3 93 -3 93
-35 -3 -36 -3 -27 25 -27 25 0 35 0 34 6 16 6 15 42 -5 42 -6 17 17 17 16 0
76 0 75 -16 -6 -17 -6 -46 -11 -46 -11 -28 -10 -28 -11 6 -15 5 -15 -11 -13
-11 -14 -48 0 -48 0 -12 15 -13 16 11 11 12 12 0 23 0 22 -19 11 -20 10 -85 0
-86 0 0 -65z"/>
</g>
</svg>
