<?xml version="1.0" standalone="no"?>
<!DOCTYPE svg PUBLIC "-//W3C//DTD SVG 20010904//EN"
 "http://www.w3.org/TR/2001/REC-SVG-20010904/DTD/svg10.dtd">
<svg version="1.0" xmlns="http://www.w3.org/2000/svg"
 width="66.000000pt" height="57.000000pt" viewBox="0 0 66.000000 57.000000"
 preserveAspectRatio="xMidYMid meet">
<metadata>
Created by potrace 1.16, written by Peter Selinger 2001-2019
</metadata>
<g transform="translate(0.000000,57.000000) scale(0.100000,-0.100000)"
fill="#000000" stroke="none">
<path d="M140 505 l0 -66 -14 -33 -14 -34 -20 -7 -21 -6 -20 13 -21 12 -10
-10 -11 -11 -6 -36 -5 -36 31 -31 31 -32 48 4 47 3 0 -50 -1 -50 -8 -47 -8
-48 93 0 94 0 23 6 22 6 7 26 6 26 -11 30 -12 30 9 9 10 10 25 -7 26 -6 17
-27 18 -27 0 -56 0 -55 60 1 60 0 38 17 38 16 -3 103 -3 103 -36 -2 -37 -2
-26 24 -26 24 0 25 0 24 5 14 5 13 44 -3 43 -4 16 17 17 16 0 85 0 84 -8 0 -9
0 -74 -19 -74 -19 -17 -7 -17 -7 -3 -26 -3 -27 -45 0 -45 0 3 47 4 46 -21 11
-20 11 -95 0 -96 0 0 -65z"/>
</g>
</svg>
