<?xml version="1.0" standalone="no"?>
<!DOCTYPE svg PUBLIC "-//W3C//DTD SVG 20010904//EN"
 "http://www.w3.org/TR/2001/REC-SVG-20010904/DTD/svg10.dtd">
<svg version="1.0" xmlns="http://www.w3.org/2000/svg"
 width="69.000000pt" height="51.000000pt" viewBox="0 0 69.000000 51.000000"
 preserveAspectRatio="xMidYMid meet">
<metadata>
Created by potrace 1.16, written by Peter Selinger 2001-2019
</metadata>
<g transform="translate(0.000000,51.000000) scale(0.100000,-0.100000)"
fill="#000000" stroke="none">
<path d="M155 418 l6 -93 -9 -14 -10 -14 -45 12 -45 13 -20 -11 -21 -11 -6
-20 -7 -21 13 -15 13 -15 28 -15 29 -15 57 3 57 3 3 -32 3 -31 -24 -71 -23
-71 67 0 68 0 26 10 27 10 -6 45 -7 44 20 10 20 11 25 0 26 0 19 -19 20 -20
-12 -31 -12 -31 15 -9 15 -10 80 0 80 0 21 -6 21 -6 12 77 11 76 0 9 0 9 -16
15 -15 16 -40 -6 -40 -7 -19 18 -20 18 0 37 0 36 11 11 11 11 38 -5 38 -5 11
20 11 20 5 69 6 68 -8 12 -8 11 -55 -9 -55 -9 -33 -6 -34 -5 6 -34 7 -33 -16
-16 -16 -16 -58 0 -57 0 -17 13 -17 12 12 33 13 34 -24 19 -23 19 -69 0 -69 0
5 -92z"/>
</g>
</svg>
