<?xml version="1.0" standalone="no"?>
<!DOCTYPE svg PUBLIC "-//W3C//DTD SVG 20010904//EN"
 "http://www.w3.org/TR/2001/REC-SVG-20010904/DTD/svg10.dtd">
<svg version="1.0" xmlns="http://www.w3.org/2000/svg"
 width="70.000000pt" height="70.000000pt" viewBox="0 0 70.000000 70.000000"
 preserveAspectRatio="xMidYMid meet">
<metadata>
Created by potrace 1.16, written by Peter Selinger 2001-2019
</metadata>
<g transform="translate(0.000000,70.000000) scale(0.100000,-0.100000)"
fill="#000000" stroke="none">
<path d="M481 692 l-13 -10 12 -49 13 -49 -17 -32 -16 -32 -24 -6 -25 -6 -19
6 -20 7 -6 14 -5 15 9 26 10 25 0 29 0 29 -19 11 -20 10 -85 0 -86 0 0 -88 0
-88 -10 -10 -11 -11 -49 5 -50 5 -25 -17 -25 -16 0 -45 0 -44 22 -15 22 -16
31 0 30 0 33 9 33 10 11 -24 10 -23 -11 -64 -11 -65 0 -14 0 -15 87 1 88 0 1
-45 0 -45 2 -12 2 -13 20 -20 20 -20 33 0 33 0 21 15 21 15 12 35 12 35 -4 42
-3 43 18 3 17 3 54 -15 54 -16 17 6 17 7 -5 21 -5 21 -17 65 -17 65 -11 13
-11 14 -29 -6 -28 -6 3 43 3 42 48 -3 48 -4 14 12 15 12 0 102 0 101 -8 12 -8
12 -94 6 -95 6 -14 -9z"/>
</g>
</svg>
