<?xml version="1.0" standalone="no"?>
<!DOCTYPE svg PUBLIC "-//W3C//DTD SVG 20010904//EN"
 "http://www.w3.org/TR/2001/REC-SVG-20010904/DTD/svg10.dtd">
<svg version="1.0" xmlns="http://www.w3.org/2000/svg"
 width="60.000000pt" height="55.000000pt" viewBox="0 0 60.000000 55.000000"
 preserveAspectRatio="xMidYMid meet">
<metadata>
Created by potrace 1.16, written by Peter Selinger 2001-2019
</metadata>
<g transform="translate(0.000000,55.000000) scale(0.100000,-0.100000)"
fill="#000000" stroke="none">
<path d="M104 543 l-62 -4 -6 -22 -6 -22 0 -60 0 -60 9 -14 9 -13 50 7 50 7
16 -23 16 -23 0 -34 0 -33 -26 -26 -25 -25 -28 5 -29 6 -25 6 -25 7 -12 -22
-12 -23 17 -86 18 -87 86 4 86 4 19 10 19 10 -7 54 -6 54 25 12 26 12 27 -10
27 -10 0 -64 0 -64 30 -6 30 -6 92 4 91 4 6 36 7 37 6 79 5 79 -59 -6 -59 -6
-32 19 -32 20 0 19 0 20 22 15 21 15 18 -9 18 -10 23 0 24 0 12 12 12 12 0 92
0 93 -10 6 -10 6 -95 2 -94 2 -12 -12 -13 -13 14 -24 13 -25 -12 -29 -12 -29
-24 -13 -23 -12 -24 21 -23 22 2 60 1 59 -41 -2 -42 -2 -61 -3z"/>
</g>
</svg>
