<?xml version="1.0" standalone="no"?>
<!DOCTYPE svg PUBLIC "-//W3C//DTD SVG 20010904//EN"
 "http://www.w3.org/TR/2001/REC-SVG-20010904/DTD/svg10.dtd">
<svg version="1.0" xmlns="http://www.w3.org/2000/svg"
 width="58.000000pt" height="53.000000pt" viewBox="0 0 58.000000 53.000000"
 preserveAspectRatio="xMidYMid meet">
<metadata>
Created by potrace 1.16, written by Peter Selinger 2001-2019
</metadata>
<g transform="translate(0.000000,53.000000) scale(0.100000,-0.100000)"
fill="#000000" stroke="none">
<path d="M104 523 l-62 -4 -6 -22 -6 -22 0 -47 0 -46 6 -16 6 -16 53 6 52 6
17 -23 16 -23 0 -44 0 -43 -25 -24 -24 -25 -23 0 -23 0 -33 9 -32 10 -10 -19
-10 -20 15 -62 16 -63 0 -15 1 -15 83 5 84 5 13 13 12 12 -12 43 -11 42 20 18
21 17 30 0 29 0 20 -11 20 -10 -3 -62 -3 -61 29 -6 28 -5 84 3 84 3 -5 9 -5 8
15 42 15 43 0 54 0 55 -57 -6 -58 -7 -32 20 -33 21 0 30 0 30 25 16 24 16 35
-13 35 -13 15 13 16 13 0 84 0 83 -10 6 -9 6 -85 2 -85 2 -11 -11 -12 -12 11
-6 11 -7 0 -25 0 -25 -12 -22 -11 -22 -16 -12 -16 -12 -18 -1 -18 0 -22 21
-22 20 0 60 1 59 -31 -2 -30 -2 -61 -3z"/>
</g>
</svg>
