<?xml version="1.0" standalone="no"?>
<!DOCTYPE svg PUBLIC "-//W3C//DTD SVG 20010904//EN"
 "http://www.w3.org/TR/2001/REC-SVG-20010904/DTD/svg10.dtd">
<svg version="1.0" xmlns="http://www.w3.org/2000/svg"
 width="76.000000pt" height="53.000000pt" viewBox="0 0 76.000000 53.000000"
 preserveAspectRatio="xMidYMid meet">
<metadata>
Created by potrace 1.16, written by Peter Selinger 2001-2019
</metadata>
<g transform="translate(0.000000,53.000000) scale(0.100000,-0.100000)"
fill="#000000" stroke="none">
<path d="M190 523 l-65 -4 3 -78 3 -78 -17 -18 -18 -17 -42 6 -42 5 -6 -15 -6
-16 0 -34 0 -35 27 -25 27 -25 36 3 35 3 3 -95 3 -95 87 3 87 3 25 19 25 19
-13 33 -12 33 17 13 17 12 37 0 36 0 -4 -23 -3 -22 7 -12 8 -11 80 -20 80 -19
15 -4 15 -4 -3 67 -4 66 12 22 12 22 31 -6 30 -6 24 22 23 21 0 41 0 41 -9 13
-8 13 -36 -6 -36 -7 -16 15 -15 16 0 75 0 76 -9 0 -10 0 -5 -9 -6 -9 -52 -12
-53 -13 -18 -9 -19 -10 6 -15 6 -16 -11 -13 -11 -14 -48 0 -48 0 -13 16 -13
16 0 36 0 37 4 15 5 15 -45 1 -45 1 -65 -4z"/>
</g>
</svg>
