<?xml version="1.0" standalone="no"?>
<!DOCTYPE svg PUBLIC "-//W3C//DTD SVG 20010904//EN"
 "http://www.w3.org/TR/2001/REC-SVG-20010904/DTD/svg10.dtd">
<svg version="1.0" xmlns="http://www.w3.org/2000/svg"
 width="78.000000pt" height="55.000000pt" viewBox="0 0 78.000000 55.000000"
 preserveAspectRatio="xMidYMid meet">
<metadata>
Created by potrace 1.16, written by Peter Selinger 2001-2019
</metadata>
<g transform="translate(0.000000,55.000000) scale(0.100000,-0.100000)"
fill="#000000" stroke="none">
<path d="M189 543 l-66 -4 5 -78 4 -77 -17 -18 -18 -17 -40 6 -39 7 -9 -13 -9
-14 0 -48 0 -48 26 -24 27 -25 38 0 39 0 0 -93 0 -93 97 4 98 5 23 15 24 16
-6 42 -5 42 15 6 16 6 19 0 19 0 0 -22 0 -23 8 -12 7 -11 85 -22 85 -21 20 -2
20 -2 -3 68 -2 67 10 20 10 19 31 -6 30 -6 24 23 25 23 0 51 0 51 -9 14 -9 14
-37 -6 -37 -6 -14 14 -14 14 0 75 0 76 -19 0 -20 0 -5 -9 -6 -9 -52 -12 -53
-13 -17 -8 -17 -9 -3 -27 -3 -28 -45 0 -45 0 -13 28 -14 28 12 29 12 29 -7 10
-6 11 -52 -2 -52 -2 -66 -3z"/>
</g>
</svg>
