<?xml version="1.0" standalone="no"?>
<!DOCTYPE svg PUBLIC "-//W3C//DTD SVG 20010904//EN"
 "http://www.w3.org/TR/2001/REC-SVG-20010904/DTD/svg10.dtd">
<svg version="1.0" xmlns="http://www.w3.org/2000/svg"
 width="71.000000pt" height="55.000000pt" viewBox="0 0 71.000000 55.000000"
 preserveAspectRatio="xMidYMid meet">
<metadata>
Created by potrace 1.16, written by Peter Selinger 2001-2019
</metadata>
<g transform="translate(0.000000,55.000000) scale(0.100000,-0.100000)"
fill="#000000" stroke="none">
<path d="M75 541 l-60 -6 0 -88 0 -89 28 -24 28 -24 40 0 39 0 0 -18 0 -18
-12 -12 -11 -11 -41 5 -41 6 -12 -23 -11 -24 -6 -75 -5 -75 -6 -20 -5 -20 7
-11 8 -11 92 7 92 6 15 13 16 13 0 54 0 54 29 0 29 0 11 -14 12 -14 -7 -39 -6
-39 24 -12 23 -13 95 3 95 3 5 97 5 96 6 6 6 6 29 -10 29 -10 29 8 30 8 19 26
20 27 -12 29 -12 29 -25 12 -25 11 -22 0 -22 0 -15 -10 -14 -9 -13 11 -13 10
0 85 0 85 -22 -5 -23 -6 -70 -18 -70 -18 0 -30 0 -30 -10 -7 -10 -8 -36 0 -35
0 -20 14 -19 14 1 56 2 56 -47 -2 -46 -1 -60 -6z"/>
</g>
</svg>
