<?xml version="1.0" standalone="no"?>
<!DOCTYPE svg PUBLIC "-//W3C//DTD SVG 20010904//EN"
 "http://www.w3.org/TR/2001/REC-SVG-20010904/DTD/svg10.dtd">
<svg version="1.0" xmlns="http://www.w3.org/2000/svg"
 width="71.000000pt" height="70.000000pt" viewBox="0 0 71.000000 70.000000"
 preserveAspectRatio="xMidYMid meet">
<metadata>
Created by potrace 1.16, written by Peter Selinger 2001-2019
</metadata>
<g transform="translate(0.000000,70.000000) scale(0.100000,-0.100000)"
fill="#000000" stroke="none">
<path d="M17 693 l-5 -8 -7 -107 -7 -106 59 5 59 5 32 -16 32 -17 0 -18 0 -19
-14 -11 -14 -12 -40 7 -41 6 -9 -38 -9 -39 -16 -68 -17 -69 6 -9 5 -9 67 0 67
0 12 -8 13 -8 -10 -34 -10 -35 0 -27 0 -27 16 -15 15 -16 62 0 63 0 18 21 18
22 -4 59 -4 59 20 4 21 5 70 2 70 3 -4 55 -4 55 -1 35 -1 35 56 -3 57 -4 30
16 30 15 6 16 6 17 0 39 0 40 -26 26 -26 26 -49 -6 -50 -6 -10 27 -11 27 5 58
5 57 -263 0 -264 0 -4 -7z"/>
</g>
</svg>
