<?xml version="1.0" standalone="no"?>
<!DOCTYPE svg PUBLIC "-//W3C//DTD SVG 20010904//EN"
 "http://www.w3.org/TR/2001/REC-SVG-20010904/DTD/svg10.dtd">
<svg version="1.0" xmlns="http://www.w3.org/2000/svg"
 width="69.000000pt" height="68.000000pt" viewBox="0 0 69.000000 68.000000"
 preserveAspectRatio="xMidYMid meet">
<metadata>
Created by potrace 1.16, written by Peter Selinger 2001-2019
</metadata>
<g transform="translate(0.000000,68.000000) scale(0.100000,-0.100000)"
fill="#000000" stroke="none">
<path d="M17 673 l-4 -8 -7 -95 -7 -95 59 3 60 4 31 -16 31 -17 0 -28 0 -29
-15 -12 -15 -13 -40 7 -39 6 -9 -37 -9 -38 -15 -62 -15 -63 5 -5 5 -5 66 0 66
0 14 -9 14 -9 -12 -45 -11 -46 0 -15 0 -15 16 -15 15 -16 52 0 53 0 18 22 19
21 -7 58 -6 59 23 5 22 5 70 2 70 3 -4 45 -5 45 0 45 -1 45 54 -3 55 -3 28 12
29 12 9 18 10 18 0 31 0 31 -26 26 -25 25 -27 -5 -27 -6 -19 -3 -20 -3 -13 25
-14 25 3 63 3 62 -252 0 -252 0 -4 -7z"/>
</g>
</svg>
