<?xml version="1.0" standalone="no"?>
<!DOCTYPE svg PUBLIC "-//W3C//DTD SVG 20010904//EN"
 "http://www.w3.org/TR/2001/REC-SVG-20010904/DTD/svg10.dtd">
<svg version="1.0" xmlns="http://www.w3.org/2000/svg"
 width="83.000000pt" height="70.000000pt" viewBox="0 0 83.000000 70.000000"
 preserveAspectRatio="xMidYMid meet">
<metadata>
Created by potrace 1.16, written by Peter Selinger 2001-2019
</metadata>
<g transform="translate(0.000000,70.000000) scale(0.100000,-0.100000)"
fill="#000000" stroke="none">
<path d="M364 676 l-16 -25 3 -58 3 -58 -102 1 -103 0 -5 -23 -6 -23 6 -53 7
-53 -6 -17 -7 -16 -44 6 -43 6 -26 -17 -26 -17 3 -57 3 -57 32 -3 33 -3 15
-57 16 -57 20 -45 20 -45 107 3 107 4 13 10 12 10 0 25 0 24 -10 19 -10 19 19
11 20 10 20 0 21 0 0 -24 0 -24 13 -10 12 -10 65 -17 65 -17 18 -10 19 -10 25
7 25 6 -8 27 -7 27 -12 55 -12 55 4 15 4 15 62 -3 62 -3 25 13 25 13 3 42 3
41 -23 16 -22 16 -58 0 -57 0 6 83 6 82 -18 15 -17 14 -76 26 -77 26 2 32 3
31 -22 15 -22 16 -38 0 -38 0 -16 -24z"/>
</g>
</svg>
