<?xml version="1.0" standalone="no"?>
<!DOCTYPE svg PUBLIC "-//W3C//DTD SVG 20010904//EN"
 "http://www.w3.org/TR/2001/REC-SVG-20010904/DTD/svg10.dtd">
<svg version="1.0" xmlns="http://www.w3.org/2000/svg"
 width="57.000000pt" height="80.000000pt" viewBox="0 0 57.000000 80.000000"
 preserveAspectRatio="xMidYMid meet">
<metadata>
Created by potrace 1.16, written by Peter Selinger 2001-2019
</metadata>
<g transform="translate(0.000000,80.000000) scale(0.100000,-0.100000)"
fill="#000000" stroke="none">
<path d="M240 787 l-25 -13 0 -71 0 -71 -5 -4 -5 -4 -80 6 -80 6 -1 0 -2 -1
-3 -90 -4 -90 53 3 53 4 25 -17 25 -16 -3 -32 -3 -32 -25 -13 -25 -13 -62 4
-61 5 -6 -21 -5 -20 10 -55 11 -55 9 -23 9 -24 -10 0 -10 0 0 -11 0 -10 108 7
107 7 -3 -44 -4 -44 22 -28 21 -27 34 0 34 0 6 10 7 11 -13 16 -13 15 17 13
17 12 62 13 62 12 37 16 38 16 6 61 7 60 -4 30 -3 30 -63 -3 -64 -4 -19 18
-19 17 0 43 0 43 21 12 21 11 61 -7 60 -7 -6 97 -7 98 -2 3 -3 2 -89 10 -89
10 -7 12 -7 12 10 34 11 35 -20 20 -20 20 -35 5 -34 5 -25 -14z"/>
</g>
</svg>
