<?xml version="1.0" standalone="no"?>
<!DOCTYPE svg PUBLIC "-//W3C//DTD SVG 20010904//EN"
 "http://www.w3.org/TR/2001/REC-SVG-20010904/DTD/svg10.dtd">
<svg version="1.0" xmlns="http://www.w3.org/2000/svg"
 width="56.000000pt" height="69.000000pt" viewBox="0 0 56.000000 69.000000"
 preserveAspectRatio="xMidYMid meet">
<metadata>
Created by potrace 1.16, written by Peter Selinger 2001-2019
</metadata>
<g transform="translate(0.000000,69.000000) scale(0.100000,-0.100000)"
fill="#000000" stroke="none">
<path d="M240 670 l-22 -22 4 -51 3 -50 -30 -9 -30 -9 -80 3 -80 3 0 -103 0
-104 20 -14 20 -15 50 3 50 3 3 -31 3 -31 -17 -17 -17 -17 -16 6 -16 6 -25 5
-25 5 -15 -10 -14 -10 -4 -99 -4 -99 92 -6 93 -7 34 0 33 0 -6 69 -7 69 21 11
21 11 23 -11 24 -10 12 -20 12 -19 -11 -21 -11 -21 6 -23 6 -23 34 -6 35 -7
65 7 66 7 1 11 2 11 -3 90 -2 90 -10 19 -10 18 -43 -5 -42 -6 -21 19 -20 19 5
21 6 21 24 16 25 17 46 -13 45 -12 10 10 9 9 -8 94 -9 93 -55 17 -55 16 -43
12 -43 11 6 33 7 32 -14 11 -13 10 -37 7 -37 7 -21 -21z"/>
</g>
</svg>
