<?xml version="1.0" standalone="no"?>
<!DOCTYPE svg PUBLIC "-//W3C//DTD SVG 20010904//EN"
 "http://www.w3.org/TR/2001/REC-SVG-20010904/DTD/svg10.dtd">
<svg version="1.0" xmlns="http://www.w3.org/2000/svg"
 width="70.000000pt" height="72.000000pt" viewBox="0 0 70.000000 72.000000"
 preserveAspectRatio="xMidYMid meet">
<metadata>
Created by potrace 1.16, written by Peter Selinger 2001-2019
</metadata>
<g transform="translate(0.000000,72.000000) scale(0.100000,-0.100000)"
fill="#000000" stroke="none">
<path d="M365 710 l-7 -11 4 -67 3 -67 -100 2 -99 3 -8 -13 -8 -12 6 -52 6
-53 -6 -24 -6 -24 -61 5 -62 6 -14 -18 -13 -19 0 -43 0 -42 33 -17 32 -17 67
-1 68 -1 0 -25 0 -25 -25 -70 -25 -70 0 -6 0 -6 98 -6 97 -7 23 6 22 6 -6 64
-7 64 17 6 16 6 23 -6 24 -6 10 -23 11 -24 -11 -47 -10 -47 11 -11 12 -12 53
0 52 1 59 17 58 17 -6 23 -6 23 -6 74 -7 74 -15 18 -15 17 -18 0 -18 0 -6 -10
-6 -10 -20 11 -20 10 -9 25 -10 24 10 25 9 25 59 -6 59 -7 12 33 11 33 0 70 0
70 -47 -8 -48 -8 -50 -1 -50 -1 5 25 5 25 0 48 0 49 -20 14 -19 14 -52 0 -53
0 -6 -10z"/>
</g>
</svg>
