<?xml version="1.0" standalone="no"?>
<!DOCTYPE svg PUBLIC "-//W3C//DTD SVG 20010904//EN"
 "http://www.w3.org/TR/2001/REC-SVG-20010904/DTD/svg10.dtd">
<svg version="1.0" xmlns="http://www.w3.org/2000/svg"
 width="55.000000pt" height="84.000000pt" viewBox="0 0 55.000000 84.000000"
 preserveAspectRatio="xMidYMid meet">
<metadata>
Created by potrace 1.16, written by Peter Selinger 2001-2019
</metadata>
<g transform="translate(0.000000,84.000000) scale(0.100000,-0.100000)"
fill="#000000" stroke="none">
<path d="M185 831 l-6 -11 12 -38 11 -39 -11 -22 -12 -21 -32 -1 -32 0 -55 -2
-55 -2 0 -93 0 -94 20 -14 20 -15 35 1 35 2 13 -1 12 -1 11 -24 11 -23 -11
-21 -11 -21 -32 -3 -32 -3 -33 -95 -32 -95 -1 -12 0 -13 94 0 94 0 10 -12 10
-13 -9 -20 -8 -20 0 -31 -1 -30 20 -22 21 -22 34 0 33 0 26 31 26 31 2 31 2
32 -3 38 -2 37 32 0 32 0 53 -17 54 -17 6 7 7 7 -12 72 -13 73 -11 40 -12 40
-49 0 -49 0 -11 18 -11 18 22 18 22 18 50 -10 50 -9 16 5 15 6 0 111 0 110
-15 0 -16 0 -64 -16 -64 -16 -27 6 -26 7 8 17 8 17 -1 39 -1 39 -20 26 -19 26
-61 3 -60 3 -7 -10z"/>
</g>
</svg>
