<?xml version="1.0" standalone="no"?>
<!DOCTYPE svg PUBLIC "-//W3C//DTD SVG 20010904//EN"
 "http://www.w3.org/TR/2001/REC-SVG-20010904/DTD/svg10.dtd">
<svg version="1.0" xmlns="http://www.w3.org/2000/svg"
 width="53.000000pt" height="82.000000pt" viewBox="0 0 53.000000 82.000000"
 preserveAspectRatio="xMidYMid meet">
<metadata>
Created by potrace 1.16, written by Peter Selinger 2001-2019
</metadata>
<g transform="translate(0.000000,82.000000) scale(0.100000,-0.100000)"
fill="#000000" stroke="none">
<path d="M188 814 l-7 -6 10 -25 9 -24 0 -23 0 -22 -13 -18 -13 -18 -85 -2
-84 -1 0 -84 1 -83 19 -15 20 -14 37 5 38 6 20 -20 20 -20 0 -23 0 -23 -14
-19 -14 -19 -28 -1 -28 0 -32 -95 -33 -95 -1 -2 0 -3 94 0 94 0 11 -14 12 -15
-12 -40 -12 -41 13 -25 14 -26 24 -6 25 -6 16 10 15 10 18 24 19 25 0 44 0 45
-3 20 -3 20 43 3 44 3 46 -15 45 -16 4 4 4 4 -12 63 -11 64 -12 40 -11 40 -44
-3 -43 -3 -14 12 -14 11 0 24 0 24 24 15 23 16 48 -11 48 -11 14 5 13 5 0 102
0 101 -22 -6 -23 -6 -55 -12 -56 -11 -28 7 -28 7 7 27 7 27 -1 30 -1 30 -18
25 -19 25 -49 3 -50 3 -6 -7z"/>
</g>
</svg>
