<?xml version="1.0" standalone="no"?>
<!DOCTYPE svg PUBLIC "-//W3C//DTD SVG 20010904//EN"
 "http://www.w3.org/TR/2001/REC-SVG-20010904/DTD/svg10.dtd">
<svg version="1.0" xmlns="http://www.w3.org/2000/svg"
 width="86.000000pt" height="80.000000pt" viewBox="0 0 86.000000 80.000000"
 preserveAspectRatio="xMidYMid meet">
<metadata>
Created by potrace 1.16, written by Peter Selinger 2001-2019
</metadata>
<g transform="translate(0.000000,80.000000) scale(0.100000,-0.100000)"
fill="#000000" stroke="none">
<path d="M354 777 l-27 -23 13 -38 12 -38 -11 -11 -12 -12 -84 1 -83 0 -4 -89
-3 -89 -20 -14 -20 -15 -42 7 -43 6 -15 -12 -15 -12 0 -37 0 -37 13 -19 14
-18 46 5 46 5 10 -26 10 -26 6 -60 7 -60 9 -17 10 -18 88 0 88 0 -5 -52 -5
-51 18 -14 19 -13 51 0 51 0 22 16 23 16 -3 34 -2 33 6 7 7 7 76 7 76 7 6 7 6
6 -22 75 -23 75 4 17 3 18 72 -3 71 -4 24 13 23 12 7 11 8 11 0 37 0 37 -32
17 -31 16 -36 -5 -36 -5 -15 -3 -15 -4 -5 100 -5 100 -70 8 -70 8 -35 7 -35 7
3 43 4 43 -12 14 -12 15 -39 0 -38 0 -27 -23z"/>
</g>
</svg>
