<?xml version="1.0" standalone="no"?>
<!DOCTYPE svg PUBLIC "-//W3C//DTD SVG 20010904//EN"
 "http://www.w3.org/TR/2001/REC-SVG-20010904/DTD/svg10.dtd">
<svg version="1.0" xmlns="http://www.w3.org/2000/svg"
 width="68.000000pt" height="56.000000pt" viewBox="0 0 68.000000 56.000000"
 preserveAspectRatio="xMidYMid meet">
<metadata>
Created by potrace 1.16, written by Peter Selinger 2001-2019
</metadata>
<g transform="translate(0.000000,56.000000) scale(0.100000,-0.100000)"
fill="#000000" stroke="none">
<path d="M7 480 l-6 -80 6 -30 5 -30 17 0 16 0 14 9 15 10 28 -15 29 -15 -3
-37 -3 -37 -37 0 -36 0 -8 -7 -7 -8 -13 -97 -14 -96 6 -6 6 -6 77 1 77 1 22
12 22 12 0 48 0 49 21 5 21 6 22 -9 22 -8 14 -18 15 -17 0 -50 0 -50 16 -10
17 -11 86 14 86 13 -2 21 -3 21 8 74 8 73 6 14 5 14 38 -6 38 -6 21 21 21 21
0 36 0 35 -11 20 -10 20 -62 -3 -62 -3 -3 93 -3 92 -3 0 -3 0 -97 -15 -96 -14
-11 -7 -11 -6 7 -48 7 -48 -26 -17 -25 -17 -36 12 -35 12 6 38 6 39 -6 25 -6
24 -31 11 -32 11 -62 0 -62 0 -6 -80z"/>
</g>
</svg>
