<?xml version="1.0" standalone="no"?>
<!DOCTYPE svg PUBLIC "-//W3C//DTD SVG 20010904//EN"
 "http://www.w3.org/TR/2001/REC-SVG-20010904/DTD/svg10.dtd">
<svg version="1.0" xmlns="http://www.w3.org/2000/svg"
 width="82.000000pt" height="83.000000pt" viewBox="0 0 82.000000 83.000000"
 preserveAspectRatio="xMidYMid meet">
<metadata>
Created by potrace 1.16, written by Peter Selinger 2001-2019
</metadata>
<g transform="translate(0.000000,83.000000) scale(0.100000,-0.100000)"
fill="#000000" stroke="none">
<path d="M359 809 l-21 -21 7 -70 7 -71 -106 5 -106 6 1 -93 2 -92 -7 -11 -6
-11 -53 6 -52 5 -14 -25 -14 -25 7 -45 7 -45 14 -12 15 -12 25 5 26 4 8 -16 8
-16 7 -40 7 -40 11 -36 10 -36 72 5 71 4 23 -18 22 -19 -12 -33 -13 -34 19
-14 20 -14 67 0 68 0 16 17 17 16 -5 33 -6 33 32 6 32 5 59 10 60 10 3 0 3 0
0 69 0 68 6 32 7 31 31 -5 32 -6 27 21 27 21 0 39 0 39 -27 21 -28 22 -42 -4
-42 -3 -3 85 -3 85 -25 -2 -25 -2 -68 -7 -68 -7 7 50 6 51 -12 36 -12 36 -21
15 -21 15 -28 0 -28 0 -21 -21z"/>
</g>
</svg>
