<?xml version="1.0" standalone="no"?>
<!DOCTYPE svg PUBLIC "-//W3C//DTD SVG 20010904//EN"
 "http://www.w3.org/TR/2001/REC-SVG-20010904/DTD/svg10.dtd">
<svg version="1.0" xmlns="http://www.w3.org/2000/svg"
 width="80.000000pt" height="81.000000pt" viewBox="0 0 80.000000 81.000000"
 preserveAspectRatio="xMidYMid meet">
<metadata>
Created by potrace 1.16, written by Peter Selinger 2001-2019
</metadata>
<g transform="translate(0.000000,81.000000) scale(0.100000,-0.100000)"
fill="#000000" stroke="none">
<path d="M359 789 l-20 -20 7 -57 6 -57 2 -10 1 -10 -107 0 -108 0 2 -90 2
-90 -8 -13 -8 -13 -52 6 -52 7 -13 -25 -13 -25 7 -33 7 -34 11 -13 10 -13 28
6 28 6 9 -18 9 -18 7 -40 7 -40 10 -35 11 -35 72 3 72 3 25 -19 24 -20 -13
-34 -12 -33 17 -12 17 -13 57 0 58 0 16 16 16 16 -7 33 -6 34 34 5 33 6 59 10
60 10 2 0 2 0 4 95 4 95 11 11 11 11 22 -12 22 -12 27 19 26 20 3 30 3 31 -28
22 -28 22 -42 -6 -42 -6 -3 88 -3 87 -20 -3 -20 -3 -74 -6 -74 -6 7 56 7 55
-15 35 -14 35 -20 11 -21 11 -15 0 -16 0 -21 -21z"/>
</g>
</svg>
