<?xml version="1.0" standalone="no"?>
<!DOCTYPE svg PUBLIC "-//W3C//DTD SVG 20010904//EN"
 "http://www.w3.org/TR/2001/REC-SVG-20010904/DTD/svg10.dtd">
<svg version="1.0" xmlns="http://www.w3.org/2000/svg"
 width="55.000000pt" height="70.000000pt" viewBox="0 0 55.000000 70.000000"
 preserveAspectRatio="xMidYMid meet">
<metadata>
Created by potrace 1.16, written by Peter Selinger 2001-2019
</metadata>
<g transform="translate(0.000000,70.000000) scale(0.100000,-0.100000)"
fill="#000000" stroke="none">
<path d="M243 688 l-22 -10 -12 -29 -12 -29 5 -48 5 -48 -90 9 -90 8 -10 -10
-11 -11 -4 -95 -4 -95 55 6 55 7 11 -21 11 -21 0 -25 0 -24 -6 -16 -6 -16 -50
6 -50 7 -9 -14 -9 -14 0 -96 0 -97 97 -4 98 -4 30 6 30 6 -3 55 -3 56 18 22
18 22 22 -16 22 -15 -6 -54 -6 -54 29 -5 29 -6 85 -3 85 -3 3 99 3 98 -13 15
-12 15 -54 -7 -55 -7 -8 14 -9 13 0 15 0 15 10 15 9 15 63 0 63 0 3 112 3 111
-73 12 -73 11 -25 8 -25 8 3 46 4 45 -19 10 -18 10 -30 5 -30 6 -22 -11z"/>
</g>
</svg>
