<?xml version="1.0" standalone="no"?>
<!DOCTYPE svg PUBLIC "-//W3C//DTD SVG 20010904//EN"
 "http://www.w3.org/TR/2001/REC-SVG-20010904/DTD/svg10.dtd">
<svg version="1.0" xmlns="http://www.w3.org/2000/svg"
 width="67.000000pt" height="80.000000pt" viewBox="0 0 67.000000 80.000000"
 preserveAspectRatio="xMidYMid meet">
<metadata>
Created by potrace 1.16, written by Peter Selinger 2001-2019
</metadata>
<g transform="translate(0.000000,80.000000) scale(0.100000,-0.100000)"
fill="#000000" stroke="none">
<path d="M360 780 l-20 -20 0 -12 0 -13 11 -44 10 -44 -13 -9 -13 -9 -95 3
-95 2 -5 -94 -5 -95 -47 3 -46 4 -21 -21 -21 -21 0 -24 0 -23 21 -28 22 -27
56 4 56 3 -1 -66 -2 -66 -10 -19 -9 -19 3 -10 4 -10 77 3 78 2 15 -9 15 -10
-13 -33 -12 -33 25 -23 26 -22 35 0 35 0 24 26 25 27 0 19 0 19 -10 20 -11 19
25 11 25 12 76 -12 76 -11 10 0 10 0 -10 18 -9 17 -7 60 -6 60 -11 28 -11 27
-47 -6 -48 -6 -11 20 -11 21 0 24 0 25 15 12 16 13 36 -11 35 -11 23 15 23 15
6 22 6 22 0 67 0 67 -18 10 -18 10 -87 15 -87 15 -11 7 -11 7 6 35 5 36 -16
18 -16 18 -14 0 -13 0 -20 -20z"/>
</g>
</svg>
