<?xml version="1.0" standalone="no"?>
<!DOCTYPE svg PUBLIC "-//W3C//DTD SVG 20010904//EN"
 "http://www.w3.org/TR/2001/REC-SVG-20010904/DTD/svg10.dtd">
<svg version="1.0" xmlns="http://www.w3.org/2000/svg"
 width="69.000000pt" height="82.000000pt" viewBox="0 0 69.000000 82.000000"
 preserveAspectRatio="xMidYMid meet">
<metadata>
Created by potrace 1.16, written by Peter Selinger 2001-2019
</metadata>
<g transform="translate(0.000000,82.000000) scale(0.100000,-0.100000)"
fill="#000000" stroke="none">
<path d="M360 800 l-20 -20 0 -22 0 -23 9 -37 9 -37 -20 -7 -20 -6 -87 3 -86
4 -3 -92 -3 -93 -49 0 -50 0 -20 -20 -20 -20 0 -34 0 -33 21 -27 22 -27 56 2
56 2 -2 -56 -2 -56 -11 -21 -11 -21 6 -18 5 -18 78 4 77 4 12 -9 13 -8 -13
-33 -12 -33 28 -24 28 -24 45 0 45 0 25 27 26 28 -5 42 -4 42 17 6 18 6 64
-11 63 -10 24 0 23 0 -7 23 -7 22 -13 75 -12 75 -8 18 -8 18 -50 -3 -51 -3
-10 28 -10 27 15 15 15 15 33 -11 33 -12 25 14 25 14 9 23 9 23 0 79 0 79 -18
10 -18 10 -87 15 -87 15 -11 6 -10 7 7 34 6 35 -17 19 -18 20 -24 0 -23 0 -20
-20z"/>
</g>
</svg>
