<?xml version="1.0" standalone="no"?>
<!DOCTYPE svg PUBLIC "-//W3C//DTD SVG 20010904//EN"
 "http://www.w3.org/TR/2001/REC-SVG-20010904/DTD/svg10.dtd">
<svg version="1.0" xmlns="http://www.w3.org/2000/svg"
 width="50.000000pt" height="52.000000pt" viewBox="0 0 50.000000 52.000000"
 preserveAspectRatio="xMidYMid meet">
<metadata>
Created by potrace 1.16, written by Peter Selinger 2001-2019
</metadata>
<g transform="translate(0.000000,52.000000) scale(0.100000,-0.100000)"
fill="#000000" stroke="none">
<path d="M0 453 l0 -68 13 -25 12 -25 28 -3 28 -3 15 12 16 13 9 -15 9 -14 0
-63 0 -64 -29 7 -30 6 -11 -43 -11 -43 -15 -47 -16 -48 -9 -5 -9 -6 0 -7 0 -7
78 6 77 5 22 12 23 13 6 25 7 25 -12 25 -11 25 28 10 27 10 29 -5 29 -6 13
-11 13 -10 -6 -33 -5 -34 33 -10 34 -10 42 -6 41 -6 16 -6 16 -6 0 247 0 247
-17 -7 -18 -7 -74 -18 -74 -19 -11 -12 -11 -11 13 -5 12 -5 0 -13 0 -13 -16
-6 -16 -6 -49 0 -49 0 -5 23 -6 24 3 39 3 39 -92 3 -93 3 0 -68z"/>
</g>
</svg>
