<?xml version="1.0" standalone="no"?>
<!DOCTYPE svg PUBLIC "-//W3C//DTD SVG 20010904//EN"
 "http://www.w3.org/TR/2001/REC-SVG-20010904/DTD/svg10.dtd">
<svg version="1.0" xmlns="http://www.w3.org/2000/svg"
 width="71.000000pt" height="70.000000pt" viewBox="0 0 71.000000 70.000000"
 preserveAspectRatio="xMidYMid meet">
<metadata>
Created by potrace 1.16, written by Peter Selinger 2001-2019
</metadata>
<g transform="translate(0.000000,70.000000) scale(0.100000,-0.100000)"
fill="#000000" stroke="none">
<path d="M262 675 l-21 -26 -6 -43 -7 -42 4 -19 3 -19 -92 3 -93 3 -11 -29
-11 -28 7 -49 6 -49 10 -18 9 -18 53 -3 52 -3 3 -36 3 -35 -22 -20 -21 -19
-62 0 -61 0 -3 -55 -3 -55 19 -55 19 -55 16 1 17 1 93 1 92 2 15 10 15 9 2 58
1 58 14 3 14 3 27 -21 27 -21 -6 -40 -7 -40 19 -14 19 -14 45 -1 45 0 52 6 51
7 -5 52 -6 53 7 47 8 47 35 -7 35 -6 24 16 24 15 0 63 0 62 -9 13 -8 13 -35
-6 -35 -7 -22 27 -21 28 0 43 0 42 -6 16 -6 15 -46 14 -47 15 -43 11 -42 12 6
37 6 38 -16 13 -16 13 -43 5 -44 5 -21 -27z"/>
</g>
</svg>
