<?xml version="1.0" standalone="no"?>
<!DOCTYPE svg PUBLIC "-//W3C//DTD SVG 20010904//EN"
 "http://www.w3.org/TR/2001/REC-SVG-20010904/DTD/svg10.dtd">
<svg version="1.0" xmlns="http://www.w3.org/2000/svg"
 width="72.000000pt" height="73.000000pt" viewBox="0 0 72.000000 73.000000"
 preserveAspectRatio="xMidYMid meet">
<metadata>
Created by potrace 1.16, written by Peter Selinger 2001-2019
</metadata>
<g transform="translate(0.000000,73.000000) scale(0.100000,-0.100000)"
fill="#000000" stroke="none">
<path d="M402 718 l-12 -12 0 -19 0 -18 11 -21 11 -21 -10 -23 -11 -23 -38
-10 -38 -11 -72 0 -72 0 6 -93 6 -92 -60 -2 -61 -1 -23 -13 -24 -12 -7 -11 -8
-11 0 -25 0 -26 16 -22 15 -22 38 0 38 0 13 -47 13 -48 18 -50 19 -51 102 4
103 4 24 15 23 15 -5 26 -4 27 -7 16 -7 16 20 24 21 24 10 -15 10 -15 11 -40
11 -40 -11 -17 -11 -18 0 -16 0 -17 18 -13 17 -13 30 -1 30 0 69 15 70 15 8
12 8 13 -5 25 -5 25 -11 60 -12 60 -9 13 -10 12 -34 0 -33 0 -6 34 -7 34 12
21 11 22 57 -3 57 -3 3 98 3 97 -15 6 -15 6 -48 -15 -48 -15 -38 -7 -39 -6
-13 11 -13 11 10 36 10 37 -6 40 -7 40 -16 18 -16 18 -27 0 -26 0 -12 -12z"/>
</g>
</svg>
