<?xml version="1.0" standalone="no"?>
<!DOCTYPE svg PUBLIC "-//W3C//DTD SVG 20010904//EN"
 "http://www.w3.org/TR/2001/REC-SVG-20010904/DTD/svg10.dtd">
<svg version="1.0" xmlns="http://www.w3.org/2000/svg"
 width="70.000000pt" height="71.000000pt" viewBox="0 0 70.000000 71.000000"
 preserveAspectRatio="xMidYMid meet">
<metadata>
Created by potrace 1.16, written by Peter Selinger 2001-2019
</metadata>
<g transform="translate(0.000000,71.000000) scale(0.100000,-0.100000)"
fill="#000000" stroke="none">
<path d="M400 695 l-12 -14 13 -35 13 -35 -12 -25 -11 -25 -38 -10 -38 -11
-71 0 -71 0 5 -100 5 -99 -30 8 -30 9 -39 -8 -39 -7 -18 -8 -17 -7 -6 -24 -6
-24 17 -26 16 -25 37 3 36 3 18 -60 18 -60 15 -40 15 -40 100 5 99 5 17 17 17
17 -13 31 -13 31 11 24 11 24 20 11 20 10 15 -28 14 -28 7 -38 8 -38 -13 -24
-14 -24 20 -15 19 -14 20 -1 20 0 69 15 70 15 8 12 8 13 -6 15 -6 15 -10 60
-11 60 -10 13 -11 14 -28 -6 -29 -6 -9 26 -10 25 0 30 0 29 19 19 19 19 42 -9
41 -9 10 5 9 6 0 84 0 84 -9 5 -9 6 -40 -14 -40 -14 -54 -7 -54 -7 -13 15 -12
15 11 42 11 42 -7 31 -6 32 -16 18 -15 17 -17 0 -18 0 -12 -15z"/>
</g>
</svg>
