<?xml version="1.0" standalone="no"?>
<!DOCTYPE svg PUBLIC "-//W3C//DTD SVG 20010904//EN"
 "http://www.w3.org/TR/2001/REC-SVG-20010904/DTD/svg10.dtd">
<svg version="1.0" xmlns="http://www.w3.org/2000/svg"
 width="68.000000pt" height="69.000000pt" viewBox="0 0 68.000000 69.000000"
 preserveAspectRatio="xMidYMid meet">
<metadata>
Created by potrace 1.16, written by Peter Selinger 2001-2019
</metadata>
<g transform="translate(0.000000,69.000000) scale(0.100000,-0.100000)"
fill="#000000" stroke="none">
<path d="M345 681 l-20 -8 0 -59 0 -59 -35 -12 -35 -12 -64 0 -63 -1 7 -85 7
-85 -50 0 -51 0 -20 -26 -21 -27 0 -29 0 -29 16 -30 15 -30 42 3 42 3 10 -90
10 -90 40 -7 40 -7 70 0 70 -1 14 9 15 9 -13 39 -12 38 10 27 10 26 20 7 21 6
20 -6 20 -6 0 -28 0 -29 13 -10 12 -10 45 -12 45 -12 28 -15 28 -14 20 6 21 7
-8 26 -7 27 -16 79 -16 79 -17 11 -17 11 -31 -12 -30 -11 -15 15 -15 14 0 9 0
9 12 25 11 26 16 5 16 5 35 -10 35 -10 22 0 21 0 7 30 7 30 -7 75 -7 74 -57 6
-56 6 -38 10 -39 10 7 17 8 17 4 20 4 21 -20 18 -21 19 -47 3 -48 4 -20 -9z"/>
</g>
</svg>
