<?xml version="1.0" standalone="no"?>
<!DOCTYPE svg PUBLIC "-//W3C//DTD SVG 20010904//EN"
 "http://www.w3.org/TR/2001/REC-SVG-20010904/DTD/svg10.dtd">
<svg version="1.0" xmlns="http://www.w3.org/2000/svg"
 width="67.000000pt" height="57.000000pt" viewBox="0 0 67.000000 57.000000"
 preserveAspectRatio="xMidYMid meet">
<metadata>
Created by potrace 1.16, written by Peter Selinger 2001-2019
</metadata>
<g transform="translate(0.000000,57.000000) scale(0.100000,-0.100000)"
fill="#000000" stroke="none">
<path d="M124 493 l-1 -78 -12 -23 -13 -24 -35 7 -35 6 -14 -12 -14 -11 0 -48
0 -47 19 -17 19 -17 47 2 46 3 10 -15 9 -14 -4 -20 -5 -20 -7 -64 -7 -63 86 3
85 4 22 20 22 20 -6 43 -6 43 25 9 25 10 24 -10 25 -9 10 -19 10 -18 -9 -40
-10 -39 0 -18 0 -17 25 -12 24 -11 62 12 61 12 23 11 22 10 13 83 13 82 -7 27
-7 27 -53 -6 -53 -7 -17 17 -17 18 3 31 3 31 42 -3 42 -3 14 23 15 23 6 43 6
44 -6 48 -6 49 -87 -6 -86 -6 -24 -9 -23 -8 6 -39 6 -38 -24 -11 -24 -11 -22
16 -21 15 6 40 7 40 -13 9 -14 9 -100 0 -100 0 -1 -77z"/>
</g>
</svg>
