<?xml version="1.0" standalone="no"?>
<!DOCTYPE svg PUBLIC "-//W3C//DTD SVG 20010904//EN"
 "http://www.w3.org/TR/2001/REC-SVG-20010904/DTD/svg10.dtd">
<svg version="1.0" xmlns="http://www.w3.org/2000/svg"
 width="53.000000pt" height="66.000000pt" viewBox="0 0 53.000000 66.000000"
 preserveAspectRatio="xMidYMid meet">
<metadata>
Created by potrace 1.16, written by Peter Selinger 2001-2019
</metadata>
<g transform="translate(0.000000,66.000000) scale(0.100000,-0.100000)"
fill="#000000" stroke="none">
<path d="M0 566 l0 -96 8 0 7 0 37 10 37 11 25 -16 25 -16 6 -29 6 -29 -13
-28 -14 -28 -41 3 -41 3 -6 -18 -5 -18 -10 -78 -11 -78 0 -12 0 -12 74 -1 75
-1 26 -17 26 -17 -7 -35 -6 -35 18 -14 19 -14 33 -1 33 0 30 16 31 15 -4 44
-3 44 20 5 20 6 63 0 62 0 0 99 0 99 -14 11 -14 12 -41 -7 -42 -7 -19 18 -20
18 0 33 0 34 23 14 22 15 44 -11 44 -11 13 18 14 19 0 88 0 88 -89 0 -89 0
-12 -15 -12 -15 10 -30 11 -30 -22 -15 -21 -15 -38 0 -37 0 -8 12 -7 13 2 25
3 26 -21 19 -22 20 -89 3 -89 4 0 -96z"/>
</g>
</svg>
