<?xml version="1.0" standalone="no"?>
<!DOCTYPE svg PUBLIC "-//W3C//DTD SVG 20010904//EN"
 "http://www.w3.org/TR/2001/REC-SVG-20010904/DTD/svg10.dtd">
<svg version="1.0" xmlns="http://www.w3.org/2000/svg"
 width="64.000000pt" height="51.000000pt" viewBox="0 0 64.000000 51.000000"
 preserveAspectRatio="xMidYMid meet">
<metadata>
Created by potrace 1.16, written by Peter Selinger 2001-2019
</metadata>
<g transform="translate(0.000000,51.000000) scale(0.100000,-0.100000)"
fill="#000000" stroke="none">
<path d="M2 428 l3 -83 42 3 42 3 20 -20 21 -21 0 -40 0 -40 -21 -21 -21 -21
-41 4 -42 3 -3 -99 -3 -99 93 5 92 6 19 23 19 24 -5 32 -6 32 20 6 19 6 27
-14 28 -13 -4 -15 -4 -14 -4 -21 -5 -21 19 -8 18 -7 81 -5 81 -6 8 13 7 12 5
82 6 82 13 19 14 19 30 -11 29 -11 21 15 21 15 -3 31 -3 32 -36 -3 -36 -3 -29
24 -29 25 -3 79 -4 79 -56 -4 -57 -4 -32 -10 -33 -10 0 -8 0 -9 10 -6 10 -6 0
-19 0 -19 -22 -15 -22 -16 -39 0 -38 0 -21 11 -21 11 7 54 6 54 -95 0 -96 0 3
-82z"/>
</g>
</svg>
