<?xml version="1.0" standalone="no"?>
<!DOCTYPE svg PUBLIC "-//W3C//DTD SVG 20010904//EN"
 "http://www.w3.org/TR/2001/REC-SVG-20010904/DTD/svg10.dtd">
<svg version="1.0" xmlns="http://www.w3.org/2000/svg"
 width="65.000000pt" height="66.000000pt" viewBox="0 0 65.000000 66.000000"
 preserveAspectRatio="xMidYMid meet">
<metadata>
Created by potrace 1.16, written by Peter Selinger 2001-2019
</metadata>
<g transform="translate(0.000000,66.000000) scale(0.100000,-0.100000)"
fill="#000000" stroke="none">
<path d="M128 559 l-3 -102 -17 -11 -17 -11 -29 11 -29 11 -17 -9 -16 -9 0
-48 0 -48 6 -6 7 -6 19 10 20 11 13 -14 13 -13 17 -65 17 -65 5 -22 5 -23 22
4 21 5 77 6 76 6 -9 -39 -8 -39 9 -33 9 -32 12 -14 11 -14 38 0 38 0 26 30 25
31 7 35 7 36 -12 25 -11 24 6 11 7 10 43 -6 44 -6 39 -20 40 -20 -2 23 -2 22
9 73 8 72 -12 14 -11 15 -30 -11 -30 -10 -36 5 -35 6 -19 17 -19 17 0 42 0 42
20 18 19 17 66 -7 65 -7 0 76 0 76 -9 0 -9 0 -76 -15 -77 -14 -8 -6 -9 -5 11
-30 11 -29 -19 -20 -18 -21 -57 0 -58 0 -12 15 -13 16 12 25 11 25 0 18 0 18
-18 16 -19 17 -71 0 -71 0 -3 -101z"/>
</g>
</svg>
