<?xml version="1.0" standalone="no"?>
<!DOCTYPE svg PUBLIC "-//W3C//DTD SVG 20010904//EN"
 "http://www.w3.org/TR/2001/REC-SVG-20010904/DTD/svg10.dtd">
<svg version="1.0" xmlns="http://www.w3.org/2000/svg"
 width="63.000000pt" height="79.000000pt" viewBox="0 0 63.000000 79.000000"
 preserveAspectRatio="xMidYMid meet">
<metadata>
Created by potrace 1.16, written by Peter Selinger 2001-2019
</metadata>
<g transform="translate(0.000000,79.000000) scale(0.100000,-0.100000)"
fill="#000000" stroke="none">
<path d="M324 783 l-21 -4 5 -49 4 -48 -23 -13 -23 -12 -73 -1 -73 -1 0 -81 0
-81 -20 -23 -19 -22 -41 4 -40 4 0 -42 0 -41 28 5 29 4 11 -29 11 -28 17 -80
18 -80 -2 -10 -2 -10 76 3 76 4 19 -18 19 -17 0 -18 0 -18 -11 -25 -12 -25 13
-16 12 -15 58 0 57 0 18 21 19 20 -11 30 -12 30 22 8 22 8 73 13 72 12 0 4 0
3 -19 43 -20 43 -18 60 -18 60 -30 0 -30 0 -3 47 -3 47 26 17 26 17 44 -10 44
-10 6 25 6 24 -7 70 -7 69 -16 -6 -16 -7 -57 -11 -57 -10 -16 13 -16 13 7 42
6 42 -24 26 -23 27 -30 4 -30 4 -21 -5z"/>
</g>
</svg>
