<?xml version="1.0" standalone="no"?>
<!DOCTYPE svg PUBLIC "-//W3C//DTD SVG 20010904//EN"
 "http://www.w3.org/TR/2001/REC-SVG-20010904/DTD/svg10.dtd">
<svg version="1.0" xmlns="http://www.w3.org/2000/svg"
 width="65.000000pt" height="81.000000pt" viewBox="0 0 65.000000 81.000000"
 preserveAspectRatio="xMidYMid meet">
<metadata>
Created by potrace 1.16, written by Peter Selinger 2001-2019
</metadata>
<g transform="translate(0.000000,81.000000) scale(0.100000,-0.100000)"
fill="#000000" stroke="none">
<path d="M322 803 l-22 -4 6 -49 6 -48 -23 -13 -24 -12 -72 0 -73 0 0 -82 0
-82 -20 -23 -20 -23 -40 7 -40 6 0 -56 0 -56 28 7 28 6 11 -23 10 -23 19 -96
18 -95 76 4 75 4 18 -20 19 -21 -13 -36 -13 -36 10 -17 11 -17 68 -3 67 -3 20
18 20 18 -5 37 -5 37 52 10 51 10 38 7 37 6 0 14 0 13 -19 43 -20 43 -18 60
-18 60 -30 0 -30 1 -3 36 -3 37 25 16 24 16 42 -11 42 -11 7 6 6 7 -2 95 -1
95 -5 5 -5 5 -71 -17 -71 -18 -14 12 -14 11 5 43 5 43 -23 28 -24 27 -40 4
-40 3 -23 -5z"/>
</g>
</svg>
