<?xml version="1.0" standalone="no"?>
<!DOCTYPE svg PUBLIC "-//W3C//DTD SVG 20010904//EN"
 "http://www.w3.org/TR/2001/REC-SVG-20010904/DTD/svg10.dtd">
<svg version="1.0" xmlns="http://www.w3.org/2000/svg"
 width="67.000000pt" height="78.000000pt" viewBox="0 0 67.000000 78.000000"
 preserveAspectRatio="xMidYMid meet">
<metadata>
Created by potrace 1.16, written by Peter Selinger 2001-2019
</metadata>
<g transform="translate(0.000000,78.000000) scale(0.100000,-0.100000)"
fill="#000000" stroke="none">
<path d="M361 766 l-24 -13 12 -7 11 -7 0 -23 0 -24 -19 -23 -18 -23 -87 0
-86 0 7 -99 6 -99 -60 7 -61 7 -21 -11 -21 -12 0 -43 0 -43 19 -17 19 -18 64
4 63 3 -2 -94 -2 -93 65 7 64 7 30 -7 31 -7 -5 -16 -5 -17 -6 -30 -6 -30 13
-17 13 -17 26 -6 26 -6 28 24 28 24 -1 44 0 44 -4 20 -3 20 41 3 42 3 56 -19
57 -19 4 7 4 6 -9 70 -10 69 -5 24 -6 23 -41 -6 -40 -7 -14 12 -14 11 0 38 0
38 15 12 14 12 35 -12 36 -11 19 6 20 6 7 45 6 44 -7 56 -7 55 -31 -8 -32 -8
-65 0 -65 0 3 30 3 30 0 25 1 24 -27 23 -26 23 -17 0 -17 -1 -24 -13z"/>
</g>
</svg>
