<?xml version="1.0" standalone="no"?>
<!DOCTYPE svg PUBLIC "-//W3C//DTD SVG 20010904//EN"
 "http://www.w3.org/TR/2001/REC-SVG-20010904/DTD/svg10.dtd">
<svg version="1.0" xmlns="http://www.w3.org/2000/svg"
 width="54.000000pt" height="64.000000pt" viewBox="0 0 54.000000 64.000000"
 preserveAspectRatio="xMidYMid meet">
<metadata>
Created by potrace 1.16, written by Peter Selinger 2001-2019
</metadata>
<g transform="translate(0.000000,64.000000) scale(0.100000,-0.100000)"
fill="#000000" stroke="none">
<path d="M208 603 l3 -38 -21 -22 -21 -23 -37 -2 -37 -1 -41 2 -41 2 -7 -23
-6 -23 0 -56 0 -55 13 -17 12 -16 42 11 42 12 25 -12 25 -11 7 -36 6 -35 -16
-26 -17 -25 -44 7 -45 6 -8 -23 -9 -24 -8 -59 -7 -60 -8 -22 -9 -22 72 -4 72
-3 33 4 34 3 -7 50 -7 49 23 25 22 24 38 0 37 0 16 -6 16 -6 -6 -33 -6 -33 11
-7 11 -6 68 -20 67 -20 19 -6 18 -6 -3 82 -4 83 -19 14 -19 13 -19 -10 -20
-11 -25 7 -24 6 -15 35 -15 36 11 34 12 34 26 7 26 6 44 -12 45 -12 3 4 4 4
-6 91 -7 92 -66 1 -66 1 -25 7 -25 7 0 38 0 37 -19 15 -20 14 -51 0 -51 0 4
-37z"/>
</g>
</svg>
