<?xml version="1.0" standalone="no"?>
<!DOCTYPE svg PUBLIC "-//W3C//DTD SVG 20010904//EN"
 "http://www.w3.org/TR/2001/REC-SVG-20010904/DTD/svg10.dtd">
<svg version="1.0" xmlns="http://www.w3.org/2000/svg"
 width="56.000000pt" height="66.000000pt" viewBox="0 0 56.000000 66.000000"
 preserveAspectRatio="xMidYMid meet">
<metadata>
Created by potrace 1.16, written by Peter Selinger 2001-2019
</metadata>
<g transform="translate(0.000000,66.000000) scale(0.100000,-0.100000)"
fill="#000000" stroke="none">
<path d="M206 623 l6 -38 -22 -22 -21 -23 -37 -1 -37 -1 -41 2 -41 1 -7 -23
-6 -23 0 -66 0 -65 14 -19 13 -18 45 12 46 13 20 -11 20 -10 6 -27 7 -26 -15
-23 -15 -23 -44 5 -44 5 -7 -11 -7 -11 -14 -82 -14 -83 -6 -21 -7 -21 79 -5
79 -4 38 4 38 4 -6 51 -6 51 22 23 21 23 28 0 27 0 14 -5 14 -6 -4 -34 -4 -34
23 -10 24 -9 68 -21 67 -21 15 0 15 0 0 74 0 75 -9 24 -10 25 -20 7 -20 6 -20
-10 -20 -11 -16 7 -17 6 -13 30 -13 31 10 27 10 28 19 6 20 7 49 -13 50 -13 5
6 6 6 -7 101 -7 101 -66 1 -66 1 -25 7 -25 7 3 36 3 36 -23 16 -22 16 -63 0
-63 0 6 -37z"/>
</g>
</svg>
