<?xml version="1.0" standalone="no"?>
<!DOCTYPE svg PUBLIC "-//W3C//DTD SVG 20010904//EN"
 "http://www.w3.org/TR/2001/REC-SVG-20010904/DTD/svg10.dtd">
<svg version="1.0" xmlns="http://www.w3.org/2000/svg"
 width="67.000000pt" height="64.000000pt" viewBox="0 0 67.000000 64.000000"
 preserveAspectRatio="xMidYMid meet">
<metadata>
Created by potrace 1.16, written by Peter Selinger 2001-2019
</metadata>
<g transform="translate(0.000000,64.000000) scale(0.100000,-0.100000)"
fill="#000000" stroke="none">
<path d="M354 634 l-12 -5 5 -38 5 -39 -27 -18 -28 -18 -74 0 -73 0 0 -99 0
-98 -16 -6 -17 -6 -29 11 -30 11 -24 -11 -24 -11 -6 -24 -6 -23 6 -24 6 -24
14 -5 14 -5 41 10 41 10 16 -13 16 -13 -4 -95 -3 -96 70 3 70 3 24 12 23 12
-5 52 -6 53 48 0 47 0 12 -12 11 -11 -9 -18 -10 -18 14 -14 15 -14 93 -17 92
-17 13 17 12 16 6 53 7 52 -4 19 -3 19 -56 -3 -56 -4 -22 27 -21 28 0 23 0 24
21 21 21 21 46 -4 47 -3 0 100 0 99 -50 13 -50 13 -39 11 -38 10 4 29 4 29
-20 5 -21 6 -35 -1 -35 -1 -11 -4z"/>
</g>
</svg>
