<?xml version="1.0" standalone="no"?>
<!DOCTYPE svg PUBLIC "-//W3C//DTD SVG 20010904//EN"
 "http://www.w3.org/TR/2001/REC-SVG-20010904/DTD/svg10.dtd">
<svg version="1.0" xmlns="http://www.w3.org/2000/svg"
 width="71.000000pt" height="78.000000pt" viewBox="0 0 71.000000 78.000000"
 preserveAspectRatio="xMidYMid meet">
<metadata>
Created by potrace 1.16, written by Peter Selinger 2001-2019
</metadata>
<g transform="translate(0.000000,78.000000) scale(0.100000,-0.100000)"
fill="#000000" stroke="none">
<path d="M228 770 l-16 -10 9 -36 10 -35 -15 -24 -15 -23 -43 -6 -43 -6 -37 9
-38 9 0 -103 0 -104 10 -6 10 -6 40 12 41 12 34 -16 35 -17 0 -27 0 -28 -8
-11 -7 -11 -24 -12 -23 -13 -72 4 -71 3 -3 -28 -3 -29 21 -70 21 -71 92 7 92
7 0 -56 0 -57 19 -14 20 -14 45 0 46 0 12 8 12 8 -2 29 -2 30 65 16 65 16 25
14 25 14 -3 81 -3 81 11 27 10 28 15 -12 15 -13 36 6 37 6 18 20 19 20 0 16 0
16 -11 20 -10 20 -24 9 -23 9 -38 -10 -37 -11 -8 14 -9 13 0 88 0 88 -12 -2
-13 -3 -80 19 -79 18 -15 15 -15 14 12 19 12 18 -16 16 -15 15 -42 0 -42 -1
-17 -9z"/>
</g>
</svg>
