<?xml version="1.0" standalone="no"?>
<!DOCTYPE svg PUBLIC "-//W3C//DTD SVG 20010904//EN"
 "http://www.w3.org/TR/2001/REC-SVG-20010904/DTD/svg10.dtd">
<svg version="1.0" xmlns="http://www.w3.org/2000/svg"
 width="83.000000pt" height="81.000000pt" viewBox="0 0 83.000000 81.000000"
 preserveAspectRatio="xMidYMid meet">
<metadata>
Created by potrace 1.16, written by Peter Selinger 2001-2019
</metadata>
<g transform="translate(0.000000,81.000000) scale(0.100000,-0.100000)"
fill="#000000" stroke="none">
<path d="M364 785 l-17 -26 6 -54 6 -55 -22 4 -22 5 -79 6 -79 6 6 -89 6 -90
-57 5 -57 5 -23 -18 -23 -19 -5 -36 -6 -36 23 -22 24 -23 43 5 43 5 9 -19 10
-18 0 -92 0 -92 85 6 86 6 14 -6 15 -5 -6 -52 -6 -52 17 -17 16 -17 48 0 48 0
16 18 17 19 0 41 0 41 58 6 57 6 41 5 40 5 13 67 13 67 9 37 10 37 29 -6 30
-5 15 12 15 12 0 57 -1 56 -13 18 -13 17 -26 0 -26 0 -25 -10 -25 -9 -7 11 -7
12 2 77 1 77 -42 6 -43 6 -52 6 -53 7 -16 12 -17 12 12 21 11 21 0 10 0 10
-16 15 -15 16 -39 0 -40 0 -16 -25z"/>
</g>
</svg>
