<?xml version="1.0" standalone="no"?>
<!DOCTYPE svg PUBLIC "-//W3C//DTD SVG 20010904//EN"
 "http://www.w3.org/TR/2001/REC-SVG-20010904/DTD/svg10.dtd">
<svg version="1.0" xmlns="http://www.w3.org/2000/svg"
 width="81.000000pt" height="79.000000pt" viewBox="0 0 81.000000 79.000000"
 preserveAspectRatio="xMidYMid meet">
<metadata>
Created by potrace 1.16, written by Peter Selinger 2001-2019
</metadata>
<g transform="translate(0.000000,79.000000) scale(0.100000,-0.100000)"
fill="#000000" stroke="none">
<path d="M364 765 l-17 -25 6 -38 5 -37 7 -18 8 -18 -64 6 -64 6 -44 5 -43 6
3 -94 4 -93 -15 4 -15 3 -40 5 -40 5 -22 -18 -22 -19 -6 -26 -7 -27 24 -22 23
-21 42 6 42 6 10 -19 10 -19 2 -93 2 -93 78 7 79 6 24 -6 24 -6 -9 -36 -9 -37
0 -17 0 -17 16 -15 15 -16 38 0 38 0 17 19 18 19 -4 39 -3 38 55 7 55 8 46 5
46 6 0 12 1 12 16 75 16 75 10 22 9 23 25 -12 25 -11 16 13 15 12 0 47 -1 46
-14 20 -15 19 -47 -12 -46 -13 -11 11 -11 11 2 78 3 79 -43 6 -42 6 -52 6 -53
7 -17 12 -18 13 12 31 11 31 -15 15 -14 15 -29 0 -30 0 -16 -25z"/>
</g>
</svg>
