<?xml version="1.0" standalone="no"?>
<!DOCTYPE svg PUBLIC "-//W3C//DTD SVG 20010904//EN"
 "http://www.w3.org/TR/2001/REC-SVG-20010904/DTD/svg10.dtd">
<svg version="1.0" xmlns="http://www.w3.org/2000/svg"
 width="68.000000pt" height="80.000000pt" viewBox="0 0 68.000000 80.000000"
 preserveAspectRatio="xMidYMid meet">
<metadata>
Created by potrace 1.16, written by Peter Selinger 2001-2019
</metadata>
<g transform="translate(0.000000,80.000000) scale(0.100000,-0.100000)"
fill="#000000" stroke="none">
<path d="M370 793 l-25 -5 -13 -11 -14 -11 6 -36 6 -37 -14 -19 -14 -19 -71 1
-71 0 0 -61 0 -62 -11 -31 -11 -32 -59 7 -58 6 -12 -29 -11 -29 6 -35 5 -35
23 -18 22 -18 34 3 35 3 8 -15 8 -15 8 -80 8 -80 90 -5 90 -5 -3 -42 -3 -43 6
-20 6 -20 62 0 62 0 14 9 14 9 -5 26 -5 26 41 10 41 10 58 17 57 16 0 265 0
265 -52 -9 -53 -8 -45 0 -45 -1 3 56 3 55 -18 22 -18 22 -30 4 -30 4 -25 -5z"/>
</g>
</svg>
