<?xml version="1.0" standalone="no"?>
<!DOCTYPE svg PUBLIC "-//W3C//DTD SVG 20010904//EN"
 "http://www.w3.org/TR/2001/REC-SVG-20010904/DTD/svg10.dtd">
<svg version="1.0" xmlns="http://www.w3.org/2000/svg"
 width="80.000000pt" height="64.000000pt" viewBox="0 0 80.000000 64.000000"
 preserveAspectRatio="xMidYMid meet">
<metadata>
Created by potrace 1.16, written by Peter Selinger 2001-2019
</metadata>
<g transform="translate(0.000000,64.000000) scale(0.100000,-0.100000)"
fill="#000000" stroke="none">
<path d="M137 633 l-7 -6 0 -72 0 -73 -15 -12 -15 -13 -45 5 -44 5 -5 -14 -6
-15 0 -41 0 -42 8 -10 7 -10 20 0 20 0 30 -91 31 -92 -5 -13 -4 -12 110 6 110
7 -5 -54 -4 -54 31 -16 31 -16 24 6 24 6 9 21 10 22 -9 34 -10 34 14 9 13 9
94 -6 93 -6 -7 23 -7 23 -14 58 -14 57 9 19 10 18 49 -10 48 -10 26 6 27 7 15
16 16 15 0 50 0 50 -16 16 -15 16 -41 -12 -41 -13 -21 21 -21 22 0 69 0 70
-251 0 -251 0 -6 -7z"/>
</g>
</svg>
