<?xml version="1.0" standalone="no"?>
<!DOCTYPE svg PUBLIC "-//W3C//DTD SVG 20010904//EN"
 "http://www.w3.org/TR/2001/REC-SVG-20010904/DTD/svg10.dtd">
<svg version="1.0" xmlns="http://www.w3.org/2000/svg"
 width="66.000000pt" height="80.000000pt" viewBox="0 0 66.000000 80.000000"
 preserveAspectRatio="xMidYMid meet">
<metadata>
Created by potrace 1.16, written by Peter Selinger 2001-2019
</metadata>
<g transform="translate(0.000000,80.000000) scale(0.100000,-0.100000)"
fill="#000000" stroke="none">
<path d="M343 790 l-23 -9 0 -11 0 -11 11 -20 10 -20 -6 -20 -7 -21 -34 -14
-33 -14 -60 0 -60 0 -3 -92 -3 -93 -10 1 -10 2 -37 6 -37 7 -21 -21 -20 -20 0
-39 0 -40 10 -27 10 -26 29 5 29 6 11 -12 10 -13 12 -85 12 -85 89 4 88 4 -6
-45 -6 -45 21 -21 21 -21 56 0 55 0 20 11 20 10 -2 57 -3 57 92 -3 92 -3 0
265 0 265 -57 11 -58 11 -38 10 -38 10 6 33 7 32 -16 13 -16 13 -43 4 -42 4
-22 -10z"/>
</g>
</svg>
