<?xml version="1.0" standalone="no"?>
<!DOCTYPE svg PUBLIC "-//W3C//DTD SVG 20010904//EN"
 "http://www.w3.org/TR/2001/REC-SVG-20010904/DTD/svg10.dtd">
<svg version="1.0" xmlns="http://www.w3.org/2000/svg"
 width="64.000000pt" height="78.000000pt" viewBox="0 0 64.000000 78.000000"
 preserveAspectRatio="xMidYMid meet">
<metadata>
Created by potrace 1.16, written by Peter Selinger 2001-2019
</metadata>
<g transform="translate(0.000000,78.000000) scale(0.100000,-0.100000)"
fill="#000000" stroke="none">
<path d="M343 770 l-23 -9 11 -25 12 -25 -7 -26 -7 -26 -34 -15 -34 -14 -61 0
-60 0 0 -89 0 -90 -9 -6 -10 -5 -41 9 -42 9 -19 -19 -19 -19 0 -29 0 -30 10
-25 9 -26 29 6 28 6 11 -14 10 -13 13 -65 12 -65 0 -20 0 -20 92 0 91 0 -3
-14 -3 -15 -6 -27 -5 -27 21 -21 21 -21 46 0 45 0 21 11 20 11 -4 56 -3 57 93
-2 92 -2 0 254 0 254 -57 11 -58 11 -39 10 -38 11 5 33 6 34 -14 11 -13 11
-34 4 -33 5 -22 -10z"/>
</g>
</svg>
