<?xml version="1.0" standalone="no"?>
<!DOCTYPE svg PUBLIC "-//W3C//DTD SVG 20010904//EN"
 "http://www.w3.org/TR/2001/REC-SVG-20010904/DTD/svg10.dtd">
<svg version="1.0" xmlns="http://www.w3.org/2000/svg"
 width="78.000000pt" height="79.000000pt" viewBox="0 0 78.000000 79.000000"
 preserveAspectRatio="xMidYMid meet">
<metadata>
Created by potrace 1.16, written by Peter Selinger 2001-2019
</metadata>
<g transform="translate(0.000000,79.000000) scale(0.100000,-0.100000)"
fill="#000000" stroke="none">
<path d="M337 783 l-7 -6 1 -31 0 -31 8 -20 9 -20 -10 -12 -10 -13 -89 0 -89
0 0 -80 0 -79 -20 -11 -21 -11 -34 13 -35 12 -16 -16 -17 -16 -1 -39 -1 -38
36 -18 36 -17 31 11 32 11 17 -6 16 -6 -6 -83 -6 -82 -7 -22 -6 -23 51 0 52 0
34 -14 34 -15 6 -24 7 -25 -12 -22 -12 -22 10 -10 10 -10 41 -5 41 -6 26 18
26 17 -5 45 -5 44 25 10 24 9 64 0 64 0 6 10 6 10 -16 50 -16 49 3 43 3 43 55
-3 56 -3 27 21 27 21 0 39 0 38 -5 15 -6 14 -49 -5 -48 -4 -13 23 -13 24 0 61
0 62 -39 -14 -40 -14 -54 0 -54 0 7 59 6 59 -25 26 -26 26 -39 0 -39 0 -6 -7z"/>
</g>
</svg>
