<?xml version="1.0" standalone="no"?>
<!DOCTYPE svg PUBLIC "-//W3C//DTD SVG 20010904//EN"
 "http://www.w3.org/TR/2001/REC-SVG-20010904/DTD/svg10.dtd">
<svg version="1.0" xmlns="http://www.w3.org/2000/svg"
 width="80.000000pt" height="81.000000pt" viewBox="0 0 80.000000 81.000000"
 preserveAspectRatio="xMidYMid meet">
<metadata>
Created by potrace 1.16, written by Peter Selinger 2001-2019
</metadata>
<g transform="translate(0.000000,81.000000) scale(0.100000,-0.100000)"
fill="#000000" stroke="none">
<path d="M335 799 l-7 -10 4 -57 3 -57 -92 -3 -93 -3 0 -79 0 -79 -18 -10 -18
-10 -15 10 -14 9 -26 0 -27 0 -13 -16 -13 -16 0 -46 -1 -47 39 -19 38 -19 36
11 35 11 10 -6 10 -6 -7 -71 -6 -71 -6 -32 -6 -33 49 0 50 0 32 -11 31 -11 10
-18 9 -17 -12 -32 -11 -31 11 -11 12 -12 50 -5 51 -5 25 17 25 16 0 49 0 49
23 6 22 6 63 0 63 0 6 16 6 15 -18 57 -17 57 4 30 3 30 55 -3 55 -4 28 22 27
21 0 49 0 48 -6 16 -6 16 -48 -6 -48 -6 -13 23 -12 24 1 63 1 62 -8 0 -8 0
-43 -15 -43 -15 -42 0 -43 0 5 59 6 59 -26 26 -26 26 -50 0 -50 0 -6 -11z"/>
</g>
</svg>
