<?xml version="1.0" standalone="no"?>
<!DOCTYPE svg PUBLIC "-//W3C//DTD SVG 20010904//EN"
 "http://www.w3.org/TR/2001/REC-SVG-20010904/DTD/svg10.dtd">
<svg version="1.0" xmlns="http://www.w3.org/2000/svg"
 width="71.000000pt" height="79.000000pt" viewBox="0 0 71.000000 79.000000"
 preserveAspectRatio="xMidYMid meet">
<metadata>
Created by potrace 1.16, written by Peter Selinger 2001-2019
</metadata>
<g transform="translate(0.000000,79.000000) scale(0.100000,-0.100000)"
fill="#000000" stroke="none">
<path d="M364 775 l-6 -15 5 -23 4 -22 7 -15 6 -15 -10 -15 -9 -15 -106 -3
-105 -4 0 -63 0 -64 -11 -25 -12 -25 -15 -6 -15 -5 -34 12 -35 13 -14 -20 -14
-19 0 -42 0 -42 28 -18 27 -18 50 -2 50 -2 0 -94 0 -93 90 1 90 0 -3 -45 -2
-46 14 -18 14 -19 41 -5 41 -6 25 17 26 17 -2 52 -3 52 106 -3 106 -3 7 83 7
83 -4 40 -3 40 -27 3 -27 3 -20 -11 -21 -10 -35 14 -35 15 0 8 0 9 16 22 15
22 20 -11 21 -11 29 13 30 12 9 18 10 18 0 75 0 75 -10 6 -10 6 -59 -21 -58
-22 -24 4 -24 3 3 46 4 47 -16 31 -16 30 -19 11 -20 10 -36 0 -36 0 -5 -15z"/>
</g>
</svg>
