<?xml version="1.0" standalone="no"?>
<!DOCTYPE svg PUBLIC "-//W3C//DTD SVG 20010904//EN"
 "http://www.w3.org/TR/2001/REC-SVG-20010904/DTD/svg10.dtd">
<svg version="1.0" xmlns="http://www.w3.org/2000/svg"
 width="80.000000pt" height="77.000000pt" viewBox="0 0 80.000000 77.000000"
 preserveAspectRatio="xMidYMid meet">
<metadata>
Created by potrace 1.16, written by Peter Selinger 2001-2019
</metadata>
<g transform="translate(0.000000,77.000000) scale(0.100000,-0.100000)"
fill="#000000" stroke="none">
<path d="M331 761 l-13 -8 11 -7 11 -7 0 -38 0 -39 -16 -13 -16 -13 -82 -6
-81 -5 -5 -84 -6 -83 -24 -20 -24 -19 -20 6 -21 7 -20 1 -20 2 -3 -51 -3 -50
20 -18 19 -18 21 11 20 11 9 -17 9 -18 18 -79 17 -79 107 6 106 5 -3 -46 -3
-47 14 -20 15 -20 39 1 38 0 19 7 19 7 -7 39 -6 40 17 5 18 5 72 7 71 6 11 42
11 41 10 59 10 60 0 2 0 2 22 5 22 6 13 -11 13 -10 14 11 15 12 6 29 6 30 -6
19 -6 19 -28 -11 -27 -10 -28 7 -27 7 -15 36 -16 36 4 69 3 68 -95 0 -95 1
-19 14 -19 15 12 26 12 26 -16 24 -15 24 -38 0 -37 0 -14 -9z"/>
</g>
</svg>
