<?xml version="1.0" standalone="no"?>
<!DOCTYPE svg PUBLIC "-//W3C//DTD SVG 20010904//EN"
 "http://www.w3.org/TR/2001/REC-SVG-20010904/DTD/svg10.dtd">
<svg version="1.0" xmlns="http://www.w3.org/2000/svg"
 width="58.000000pt" height="72.000000pt" viewBox="0 0 58.000000 72.000000"
 preserveAspectRatio="xMidYMid meet">
<metadata>
Created by potrace 1.16, written by Peter Selinger 2001-2019
</metadata>
<g transform="translate(0.000000,72.000000) scale(0.100000,-0.100000)"
fill="#000000" stroke="none">
<path d="M209 701 l-23 -18 13 -44 13 -43 -18 -13 -18 -13 -81 0 -82 0 -7
-101 -7 -101 6 -6 6 -6 34 13 34 12 30 -15 30 -16 6 -20 6 -20 -6 -10 -6 -9
-30 6 -30 6 -14 -19 -14 -19 -6 -50 -6 -50 -15 -54 -15 -53 4 -5 5 -4 126 -6
126 -6 0 9 0 9 -11 39 -11 38 6 24 6 24 24 0 24 0 13 -17 14 -16 0 -71 0 -71
38 -3 38 -3 74 22 74 22 11 66 12 66 -4 55 -3 55 -59 -3 -59 -2 -24 16 -25 16
7 26 6 27 12 12 13 13 31 -12 32 -12 25 12 26 12 0 89 0 90 -107 3 -108 3 3
62 4 61 -20 11 -21 11 -39 0 -40 0 -23 -19z"/>
</g>
</svg>
