<?xml version="1.0" standalone="no"?>
<!DOCTYPE svg PUBLIC "-//W3C//DTD SVG 20010904//EN"
 "http://www.w3.org/TR/2001/REC-SVG-20010904/DTD/svg10.dtd">
<svg version="1.0" xmlns="http://www.w3.org/2000/svg"
 width="72.000000pt" height="80.000000pt" viewBox="0 0 72.000000 80.000000"
 preserveAspectRatio="xMidYMid meet">
<metadata>
Created by potrace 1.16, written by Peter Selinger 2001-2019
</metadata>
<g transform="translate(0.000000,80.000000) scale(0.100000,-0.100000)"
fill="#000000" stroke="none">
<path d="M232 790 l-22 -10 -7 -15 -6 -16 12 -26 12 -26 -21 -21 -21 -21 -84
-4 -85 -3 0 -58 0 -57 10 -30 11 -30 24 -13 24 -13 45 5 45 5 5 -14 6 -15 0
-34 0 -34 -20 -20 -20 -20 -28 7 -27 7 -34 1 -34 0 -9 -30 -8 -30 6 -75 6 -75
91 0 91 0 -2 -41 -3 -42 29 -21 30 -21 39 0 40 0 18 20 17 19 -6 25 -6 24 14
5 15 6 82 11 83 11 12 17 13 17 11 50 12 50 9 35 9 35 39 0 38 0 17 14 16 13
0 49 0 49 -21 21 -22 22 -58 -6 -58 -5 -5 15 -6 15 0 70 0 70 -22 -5 -23 -6
-59 -15 -59 -15 -17 9 -17 9 10 51 10 51 -11 25 -12 24 -26 10 -25 10 -22 -1
-22 0 -23 -9z"/>
</g>
</svg>
