<?xml version="1.0" standalone="no"?>
<!DOCTYPE svg PUBLIC "-//W3C//DTD SVG 20010904//EN"
 "http://www.w3.org/TR/2001/REC-SVG-20010904/DTD/svg10.dtd">
<svg version="1.0" xmlns="http://www.w3.org/2000/svg"
 width="55.000000pt" height="82.000000pt" viewBox="0 0 55.000000 82.000000"
 preserveAspectRatio="xMidYMid meet">
<metadata>
Created by potrace 1.16, written by Peter Selinger 2001-2019
</metadata>
<g transform="translate(0.000000,82.000000) scale(0.100000,-0.100000)"
fill="#000000" stroke="none">
<path d="M220 805 l-12 -14 12 -37 12 -36 -21 -21 -21 -21 -95 -4 -95 -4 0
-75 0 -74 14 -34 15 -34 25 -7 26 -6 31 4 31 5 4 -12 5 -11 -9 -24 -9 -24 -41
-1 -41 -1 -6 -6 -5 -5 -15 -79 -15 -79 -6 -27 -6 -28 69 0 69 0 21 -15 21 -15
-5 -40 -6 -40 23 -20 23 -20 52 0 52 0 17 19 18 20 -3 58 -4 58 60 0 60 0 36
-8 37 -7 6 22 6 23 0 76 0 77 -16 13 -16 13 -30 -12 -31 -11 -32 15 -32 15
-12 26 -12 25 12 14 11 14 24 0 23 0 27 -11 28 -10 22 5 22 6 7 40 7 41 -7 71
-7 70 -19 19 -18 18 -73 22 -73 22 -12 9 -12 10 12 19 12 20 -15 9 -15 10 -46
0 -47 0 -12 -15z"/>
</g>
</svg>
