<?xml version="1.0" standalone="no"?>
<!DOCTYPE svg PUBLIC "-//W3C//DTD SVG 20010904//EN"
 "http://www.w3.org/TR/2001/REC-SVG-20010904/DTD/svg10.dtd">
<svg version="1.0" xmlns="http://www.w3.org/2000/svg"
 width="69.000000pt" height="66.000000pt" viewBox="0 0 69.000000 66.000000"
 preserveAspectRatio="xMidYMid meet">
<metadata>
Created by potrace 1.16, written by Peter Selinger 2001-2019
</metadata>
<g transform="translate(0.000000,66.000000) scale(0.100000,-0.100000)"
fill="#000000" stroke="none">
<path d="M394 650 l-22 -9 -6 -10 -6 -10 10 -6 10 -6 0 -28 0 -28 -20 -18 -21
-19 -84 -4 -83 -4 1 -100 2 -99 -15 -9 -15 -10 -20 8 -20 7 -44 0 -44 0 -10
-16 -10 -17 12 -30 13 -31 36 -17 36 -17 30 11 29 12 15 -12 14 -12 -4 -82 -3
-82 42 -7 43 -6 47 6 48 7 11 14 11 14 -11 40 -10 41 10 17 11 17 38 0 38 0
20 -28 21 -27 -12 -12 -12 -12 0 -18 0 -17 18 -9 17 -9 93 -7 93 -7 -9 18 -10
18 -7 60 -6 60 -14 18 -13 18 -35 -6 -35 -7 -7 12 -7 12 0 50 0 50 16 16 16
16 34 -12 33 -12 16 6 16 6 7 35 6 34 -5 45 -5 46 -8 8 -9 9 -60 -14 -60 -15
-37 0 -37 0 -11 20 -11 20 11 19 10 20 0 24 0 24 -21 27 -20 26 -7 -1 -7 0
-21 -9z"/>
</g>
</svg>
