<?xml version="1.0" standalone="no"?>
<!DOCTYPE svg PUBLIC "-//W3C//DTD SVG 20010904//EN"
 "http://www.w3.org/TR/2001/REC-SVG-20010904/DTD/svg10.dtd">
<svg version="1.0" xmlns="http://www.w3.org/2000/svg"
 width="71.000000pt" height="68.000000pt" viewBox="0 0 71.000000 68.000000"
 preserveAspectRatio="xMidYMid meet">
<metadata>
Created by potrace 1.16, written by Peter Selinger 2001-2019
</metadata>
<g transform="translate(0.000000,68.000000) scale(0.100000,-0.100000)"
fill="#000000" stroke="none">
<path d="M392 670 l-22 -10 -7 -15 -6 -16 12 -12 11 -11 0 -16 0 -17 -20 -18
-21 -19 -86 -4 -86 -5 6 -73 7 -73 -6 -31 -6 -30 -69 6 -69 7 -15 -13 -15 -12
0 -24 0 -23 11 -25 12 -25 34 -16 34 -16 42 3 42 3 -1 -87 -1 -87 48 -6 47 -7
56 7 57 7 10 19 10 19 -12 40 -12 39 13 16 12 15 21 0 20 0 18 -16 18 -16 -6
-43 -5 -43 18 -10 19 -9 104 -8 104 -7 -7 24 -8 23 -9 60 -10 60 -11 23 -12
23 -41 -3 -40 -3 -3 51 -3 51 14 12 15 12 25 -12 26 -12 25 7 25 6 7 36 6 35
-4 55 -5 55 -10 10 -10 10 -85 -17 -84 -18 -17 7 -17 6 6 58 6 58 -22 28 -21
27 -17 -1 -17 0 -23 -9z"/>
</g>
</svg>
