<?xml version="1.0" standalone="no"?>
<!DOCTYPE svg PUBLIC "-//W3C//DTD SVG 20010904//EN"
 "http://www.w3.org/TR/2001/REC-SVG-20010904/DTD/svg10.dtd">
<svg version="1.0" xmlns="http://www.w3.org/2000/svg"
 width="55.000000pt" height="54.000000pt" viewBox="0 0 55.000000 54.000000"
 preserveAspectRatio="xMidYMid meet">
<metadata>
Created by potrace 1.16, written by Peter Selinger 2001-2019
</metadata>
<g transform="translate(0.000000,54.000000) scale(0.100000,-0.100000)"
fill="#000000" stroke="none">
<path d="M4 504 l-7 -36 6 -59 5 -60 13 -15 13 -16 42 7 43 6 11 -21 11 -21
-3 -27 -3 -27 -33 3 -32 2 -9 -22 -9 -23 -17 -70 -17 -70 -5 -21 -5 -21 78 -6
77 -7 31 0 31 0 14 9 15 9 -14 42 -14 41 22 22 22 21 27 -21 28 -20 -3 -41 -4
-41 39 -11 38 -12 70 9 70 8 -4 95 -3 94 -12 19 -11 18 -37 -5 -37 -6 -15 22
-16 22 17 18 17 19 52 -7 51 -6 5 19 5 19 -5 102 -5 102 -263 0 -263 0 -7 -36z"/>
</g>
</svg>
