<?xml version="1.0" standalone="no"?>
<!DOCTYPE svg PUBLIC "-//W3C//DTD SVG 20010904//EN"
 "http://www.w3.org/TR/2001/REC-SVG-20010904/DTD/svg10.dtd">
<svg version="1.0" xmlns="http://www.w3.org/2000/svg"
 width="53.000000pt" height="52.000000pt" viewBox="0 0 53.000000 52.000000"
 preserveAspectRatio="xMidYMid meet">
<metadata>
Created by potrace 1.16, written by Peter Selinger 2001-2019
</metadata>
<g transform="translate(0.000000,52.000000) scale(0.100000,-0.100000)"
fill="#000000" stroke="none">
<path d="M4 484 l-7 -36 6 -50 6 -50 12 -14 11 -14 41 7 40 6 14 -18 13 -19 0
-37 0 -37 -14 -11 -15 -12 -20 11 -21 11 -9 -23 -9 -23 -15 -65 -15 -65 -7
-16 -6 -16 90 -7 91 -7 21 6 20 7 -7 16 -7 17 -5 28 -4 28 17 19 18 20 17 0
17 0 27 -21 27 -22 -6 -38 -7 -38 39 -11 38 -11 60 8 60 8 -1 13 -1 12 -2 73
-2 72 -14 19 -15 19 -27 -12 -28 -13 -22 27 -23 26 0 13 0 13 20 18 19 18 50
-7 49 -6 4 17 4 18 -4 93 -4 92 -254 0 -253 0 -7 -36z"/>
</g>
</svg>
