<?xml version="1.0" standalone="no"?>
<!DOCTYPE svg PUBLIC "-//W3C//DTD SVG 20010904//EN"
 "http://www.w3.org/TR/2001/REC-SVG-20010904/DTD/svg10.dtd">
<svg version="1.0" xmlns="http://www.w3.org/2000/svg"
 width="54.000000pt" height="55.000000pt" viewBox="0 0 54.000000 55.000000"
 preserveAspectRatio="xMidYMid meet">
<metadata>
Created by potrace 1.16, written by Peter Selinger 2001-2019
</metadata>
<g transform="translate(0.000000,55.000000) scale(0.100000,-0.100000)"
fill="#000000" stroke="none">
<path d="M0 279 l0 -274 103 -3 103 -2 19 14 19 13 -13 30 -12 30 6 26 7 26
18 16 19 17 10 -7 11 -6 0 -27 0 -27 9 -15 10 -14 83 -23 83 -24 15 -4 15 -5
13 9 14 8 -17 74 -16 74 -10 37 -9 37 -33 3 -32 3 -3 28 -3 27 44 0 44 0 18
20 19 21 4 88 4 89 -76 7 -75 7 -27 -6 -26 -7 6 -50 7 -49 -11 -20 -10 -19
-36 -7 -36 -7 -16 17 -16 16 0 37 1 38 8 23 7 22 -98 0 -99 0 -22 6 -23 6 0
-273z"/>
</g>
</svg>
