<?xml version="1.0" standalone="no"?>
<!DOCTYPE svg PUBLIC "-//W3C//DTD SVG 20010904//EN"
 "http://www.w3.org/TR/2001/REC-SVG-20010904/DTD/svg10.dtd">
<svg version="1.0" xmlns="http://www.w3.org/2000/svg"
 width="52.000000pt" height="53.000000pt" viewBox="0 0 52.000000 53.000000"
 preserveAspectRatio="xMidYMid meet">
<metadata>
Created by potrace 1.16, written by Peter Selinger 2001-2019
</metadata>
<g transform="translate(0.000000,53.000000) scale(0.100000,-0.100000)"
fill="#000000" stroke="none">
<path d="M0 265 l0 -260 90 -3 90 -3 20 11 20 11 -11 21 -11 21 5 35 6 34 17
19 17 19 17 0 17 0 17 -19 17 -19 -13 -4 -13 -5 12 -24 11 -25 58 -13 59 -13
33 -14 32 -13 0 10 0 10 12 -7 11 -7 -7 19 -8 19 -13 70 -14 70 -7 18 -7 19
-28 -6 -29 -5 -6 23 -6 24 4 23 3 24 40 -3 41 -3 19 20 18 21 5 79 4 79 -70 7
-70 7 -21 -7 -21 -6 6 -52 6 -52 -14 -19 -14 -18 -45 -5 -45 -5 -13 16 -13 15
-5 39 -5 39 11 21 11 21 -110 3 -110 3 0 -260z"/>
</g>
</svg>
