<?xml version="1.0" standalone="no"?>
<!DOCTYPE svg PUBLIC "-//W3C//DTD SVG 20010904//EN"
 "http://www.w3.org/TR/2001/REC-SVG-20010904/DTD/svg10.dtd">
<svg version="1.0" xmlns="http://www.w3.org/2000/svg"
 width="66.000000pt" height="69.000000pt" viewBox="0 0 66.000000 69.000000"
 preserveAspectRatio="xMidYMid meet">
<metadata>
Created by potrace 1.16, written by Peter Selinger 2001-2019
</metadata>
<g transform="translate(0.000000,69.000000) scale(0.100000,-0.100000)"
fill="#000000" stroke="none">
<path d="M189 683 l-56 -4 -5 -79 -5 -80 -18 -20 -18 -20 -41 2 -41 3 -3 -34
-3 -34 6 -25 6 -24 29 5 28 6 7 -17 6 -17 15 -75 14 -75 0 -28 0 -28 43 5 42
5 60 6 60 5 0 -59 0 -60 22 -20 22 -21 29 0 28 0 22 20 22 21 6 24 6 25 -4 30
-5 30 21 1 21 2 75 1 75 1 -4 95 -3 95 -9 24 -10 24 -48 -6 -48 -6 -12 12 -11
11 0 22 0 22 6 16 6 16 53 -6 52 -6 17 23 16 23 0 82 0 81 -61 7 -62 6 -49 0
-49 0 -5 -15 -6 -15 10 -41 10 -41 -19 -19 -19 -19 -24 0 -24 0 -27 32 -27 32
6 43 6 43 -38 -2 -37 -2 -56 -3z"/>
</g>
</svg>
