<?xml version="1.0" standalone="no"?>
<!DOCTYPE svg PUBLIC "-//W3C//DTD SVG 20010904//EN"
 "http://www.w3.org/TR/2001/REC-SVG-20010904/DTD/svg10.dtd">
<svg version="1.0" xmlns="http://www.w3.org/2000/svg"
 width="81.000000pt" height="65.000000pt" viewBox="0 0 81.000000 65.000000"
 preserveAspectRatio="xMidYMid meet">
<metadata>
Created by potrace 1.16, written by Peter Selinger 2001-2019
</metadata>
<g transform="translate(0.000000,65.000000) scale(0.100000,-0.100000)"
fill="#000000" stroke="none">
<path d="M223 643 l-73 -4 0 -73 0 -74 -19 -23 -18 -23 -47 11 -47 10 -9 -18
-10 -18 0 -34 0 -35 14 -11 15 -12 45 6 46 7 9 -25 10 -26 2 -88 2 -88 69 3
69 4 26 -17 25 -17 -5 -43 -4 -44 14 -5 15 -6 32 0 33 0 31 11 30 10 7 16 6
16 -11 11 -10 10 0 8 0 7 38 10 37 10 47 6 47 6 10 32 10 32 7 55 7 55 9 24 8
23 45 -6 44 -7 17 25 16 26 -6 35 -7 36 -25 11 -25 12 -42 -12 -42 -11 -13 17
-14 17 4 72 3 73 -15 -5 -15 -4 -40 -6 -40 -7 -38 -9 -38 -10 6 -32 5 -32 -8
-13 -9 -13 -35 -5 -35 -6 -29 25 -29 25 0 56 0 56 -15 -2 -15 -2 -72 -3z"/>
</g>
</svg>
