<?xml version="1.0" standalone="no"?>
<!DOCTYPE svg PUBLIC "-//W3C//DTD SVG 20010904//EN"
 "http://www.w3.org/TR/2001/REC-SVG-20010904/DTD/svg10.dtd">
<svg version="1.0" xmlns="http://www.w3.org/2000/svg"
 width="67.000000pt" height="55.000000pt" viewBox="0 0 67.000000 55.000000"
 preserveAspectRatio="xMidYMid meet">
<metadata>
Created by potrace 1.16, written by Peter Selinger 2001-2019
</metadata>
<g transform="translate(0.000000,55.000000) scale(0.100000,-0.100000)"
fill="#000000" stroke="none">
<path d="M212 543 l-72 -4 1 -92 2 -93 -12 -21 -11 -22 -29 10 -30 10 -28 -3
-28 -3 -3 -40 -3 -40 15 -20 15 -20 22 14 23 13 12 -16 12 -17 18 -97 17 -97
101 0 101 0 5 57 5 58 28 27 27 27 20 -20 21 -20 -11 -28 -10 -27 0 -14 0 -14
28 -14 27 -14 93 -6 92 -6 0 7 0 7 -16 70 -16 70 -9 24 -10 23 -29 -4 -30 -5
-9 11 -9 11 -6 30 -6 30 13 17 13 16 54 -1 54 -2 7 35 8 35 -6 77 -6 77 -61 6
-61 7 -40 -4 -40 -3 3 -47 3 -47 -15 -35 -15 -35 -27 -7 -27 -7 -14 19 -14 19
6 73 7 72 -39 -2 -38 -2 -73 -3z"/>
</g>
</svg>
