<?xml version="1.0" standalone="no"?>
<!DOCTYPE svg PUBLIC "-//W3C//DTD SVG 20010904//EN"
 "http://www.w3.org/TR/2001/REC-SVG-20010904/DTD/svg10.dtd">
<svg version="1.0" xmlns="http://www.w3.org/2000/svg"
 width="67.000000pt" height="53.000000pt" viewBox="0 0 67.000000 53.000000"
 preserveAspectRatio="xMidYMid meet">
<metadata>
Created by potrace 1.16, written by Peter Selinger 2001-2019
</metadata>
<g transform="translate(0.000000,53.000000) scale(0.100000,-0.100000)"
fill="#000000" stroke="none">
<path d="M203 523 l-63 -4 -1 -12 0 -12 -2 -80 -2 -80 -34 3 -33 4 -23 -6 -22
-6 -13 -29 -12 -30 7 -41 7 -40 18 -10 19 -10 28 11 27 10 13 -17 13 -18 0
-75 0 -76 99 5 98 5 18 15 17 14 -6 43 -6 43 21 10 20 11 19 -6 20 -6 10 -18
9 -18 -11 -38 -12 -37 19 -15 20 -15 90 4 90 3 12 50 12 50 1 37 0 37 -9 5 -8
5 -34 -9 -34 -10 -28 6 -27 6 -15 28 -15 29 0 34 0 33 13 18 13 18 62 -4 62
-3 0 65 0 65 -6 23 -7 23 -81 -7 -81 -7 -24 -9 -23 -8 7 -18 8 -17 4 -26 5
-26 -23 -22 -23 -21 -7 0 -7 0 -23 19 -24 19 0 71 0 71 -40 -2 -40 -2 -62 -3z"/>
</g>
</svg>
