<?xml version="1.0" standalone="no"?>
<!DOCTYPE svg PUBLIC "-//W3C//DTD SVG 20010904//EN"
 "http://www.w3.org/TR/2001/REC-SVG-20010904/DTD/svg10.dtd">
<svg version="1.0" xmlns="http://www.w3.org/2000/svg"
 width="69.000000pt" height="55.000000pt" viewBox="0 0 69.000000 55.000000"
 preserveAspectRatio="xMidYMid meet">
<metadata>
Created by potrace 1.16, written by Peter Selinger 2001-2019
</metadata>
<g transform="translate(0.000000,55.000000) scale(0.100000,-0.100000)"
fill="#000000" stroke="none">
<path d="M203 543 l-63 -4 -1 -12 -2 -12 3 -77 2 -78 -50 0 -51 0 -15 -16 -16
-15 -6 -25 -6 -24 6 -45 7 -45 20 -11 20 -10 31 6 30 7 9 -13 9 -14 0 -75 0
-76 98 4 97 4 25 12 25 11 1 49 1 48 13 8 14 9 19 -10 18 -10 -6 -54 -7 -53
21 -11 21 -12 99 3 99 3 12 65 12 65 -4 35 -3 35 -30 -2 -30 -2 -34 -3 -33 -2
-15 19 -14 20 -6 24 -6 24 9 26 10 26 68 -1 68 -1 -4 93 -3 92 -7 8 -7 7 -101
-10 -101 -10 -12 -12 -11 -11 12 -34 12 -33 -6 -16 -6 -16 -20 -7 -20 -6 -17
16 -16 17 1 69 1 70 -51 -2 -51 -2 -62 -3z"/>
</g>
</svg>
