<?xml version="1.0" standalone="no"?>
<!DOCTYPE svg PUBLIC "-//W3C//DTD SVG 20010904//EN"
 "http://www.w3.org/TR/2001/REC-SVG-20010904/DTD/svg10.dtd">
<svg version="1.0" xmlns="http://www.w3.org/2000/svg"
 width="82.000000pt" height="58.000000pt" viewBox="0 0 82.000000 58.000000"
 preserveAspectRatio="xMidYMid meet">
<metadata>
Created by potrace 1.16, written by Peter Selinger 2001-2019
</metadata>
<g transform="translate(0.000000,58.000000) scale(0.100000,-0.100000)"
fill="#000000" stroke="none">
<path d="M457 574 l-7 -8 6 -72 7 -71 -22 -22 -21 -21 -19 0 -18 0 -26 20 -26
21 9 25 10 25 0 24 0 24 -19 11 -20 10 -84 0 -85 0 2 -80 1 -81 -14 -9 -15 -9
-17 10 -18 9 -24 0 -25 0 -13 -17 -14 -16 0 -72 1 -73 14 -17 14 -16 21 5 22
6 12 -43 12 -42 17 -41 16 -42 66 -6 65 -6 48 0 48 0 -7 45 -6 46 17 19 18 20
22 0 21 0 11 -11 11 -11 -5 -36 -6 -35 18 -13 19 -14 97 0 97 0 5 21 6 22 -6
28 -5 28 7 46 6 46 53 -6 53 -7 16 17 17 16 0 48 0 49 -16 13 -15 13 -34 -13
-34 -12 -19 10 -19 10 -7 32 -6 31 0 68 0 68 -41 16 -42 17 -61 6 -61 5 -8 -8z"/>
</g>
</svg>
