<?xml version="1.0" standalone="no"?>
<!DOCTYPE svg PUBLIC "-//W3C//DTD SVG 20010904//EN"
 "http://www.w3.org/TR/2001/REC-SVG-20010904/DTD/svg10.dtd">
<svg version="1.0" xmlns="http://www.w3.org/2000/svg"
 width="80.000000pt" height="56.000000pt" viewBox="0 0 80.000000 56.000000"
 preserveAspectRatio="xMidYMid meet">
<metadata>
Created by potrace 1.16, written by Peter Selinger 2001-2019
</metadata>
<g transform="translate(0.000000,56.000000) scale(0.100000,-0.100000)"
fill="#000000" stroke="none">
<path d="M458 555 l-6 -7 5 -72 6 -73 -22 -22 -21 -21 -29 0 -30 0 -26 23 -27
23 13 43 13 43 -19 14 -19 14 -79 0 -78 0 6 -44 7 -44 -7 -40 -6 -40 -16 -6
-16 -6 -33 12 -34 12 -18 -17 -17 -18 1 -64 0 -64 14 -15 13 -16 14 11 14 12
8 -9 9 -9 12 -40 12 -40 16 -41 16 -42 66 -6 65 -6 36 0 37 0 -6 45 -5 45 17
19 17 19 26 5 26 5 25 -25 24 -25 -11 -11 -11 -11 0 -18 0 -17 19 -11 20 -10
85 0 86 0 0 13 0 12 3 78 2 78 15 9 15 10 15 -6 15 -5 26 -6 26 -5 16 17 17
16 0 38 0 39 -13 11 -14 11 -31 -12 -31 -12 -24 11 -24 11 -7 32 -6 33 0 67 0
68 -40 16 -40 16 -52 6 -53 6 -7 -7z"/>
</g>
</svg>
