<?xml version="1.0" standalone="no"?>
<!DOCTYPE svg PUBLIC "-//W3C//DTD SVG 20010904//EN"
 "http://www.w3.org/TR/2001/REC-SVG-20010904/DTD/svg10.dtd">
<svg version="1.0" xmlns="http://www.w3.org/2000/svg"
 width="83.000000pt" height="68.000000pt" viewBox="0 0 83.000000 68.000000"
 preserveAspectRatio="xMidYMid meet">
<metadata>
Created by potrace 1.16, written by Peter Selinger 2001-2019
</metadata>
<g transform="translate(0.000000,68.000000) scale(0.100000,-0.100000)"
fill="#000000" stroke="none">
<path d="M476 667 l-20 -14 14 -32 13 -32 -11 -38 -12 -38 -19 -17 -20 -18
-20 7 -21 6 -16 31 -16 31 12 38 12 37 -6 11 -7 11 -94 0 -93 0 -16 -6 -15 -6
6 -84 6 -84 -66 0 -66 0 -11 -19 -10 -20 0 -41 0 -41 15 -28 14 -29 27 -6 26
-7 46 7 45 7 -6 -44 -6 -44 -7 -41 -6 -42 80 -3 80 -4 21 -19 21 -20 -10 -10
-10 -10 0 -14 0 -15 18 -13 17 -13 55 -1 56 0 22 16 23 16 -3 41 -3 42 82 3
82 3 15 42 16 42 18 55 17 55 27 -3 27 -3 15 23 16 22 0 33 0 33 -21 21 -21
21 -37 -6 -38 -6 -18 14 -18 13 -5 87 -5 86 -36 9 -36 10 -50 6 -50 6 -19 -14z"/>
</g>
</svg>
