<?xml version="1.0" standalone="no"?>
<!DOCTYPE svg PUBLIC "-//W3C//DTD SVG 20010904//EN"
 "http://www.w3.org/TR/2001/REC-SVG-20010904/DTD/svg10.dtd">
<svg version="1.0" xmlns="http://www.w3.org/2000/svg"
 width="68.000000pt" height="65.000000pt" viewBox="0 0 68.000000 65.000000"
 preserveAspectRatio="xMidYMid meet">
<metadata>
Created by potrace 1.16, written by Peter Selinger 2001-2019
</metadata>
<g transform="translate(0.000000,65.000000) scale(0.100000,-0.100000)"
fill="#000000" stroke="none">
<path d="M522 641 l-13 -8 7 -51 6 -51 -27 -25 -28 -26 -54 0 -54 0 6 53 7 54
-16 16 -17 16 -32 6 -32 6 -50 -3 -50 -3 3 -93 3 -94 -11 7 -10 6 -61 0 -61 1
-19 -21 -19 -20 0 -36 0 -35 21 -21 22 -22 68 6 69 6 6 -22 5 -23 -10 -64 -11
-65 0 -10 0 -10 89 3 90 3 20 -11 21 -11 0 -22 0 -23 -12 -12 -11 -11 13 -16
12 -15 48 0 48 0 11 14 11 13 -5 15 -6 15 28 11 28 10 53 12 52 12 9 17 8 16
-7 71 -7 71 -7 11 -6 11 -33 -6 -32 -5 -18 20 -18 20 -5 33 -6 34 22 28 23 28
46 -3 46 -3 3 91 3 92 -64 11 -64 11 -9 0 -9 0 -13 -9z"/>
</g>
</svg>
