<?xml version="1.0" standalone="no"?>
<!DOCTYPE svg PUBLIC "-//W3C//DTD SVG 20010904//EN"
 "http://www.w3.org/TR/2001/REC-SVG-20010904/DTD/svg10.dtd">
<svg version="1.0" xmlns="http://www.w3.org/2000/svg"
 width="55.000000pt" height="55.000000pt" viewBox="0 0 55.000000 55.000000"
 preserveAspectRatio="xMidYMid meet">
<metadata>
Created by potrace 1.16, written by Peter Selinger 2001-2019
</metadata>
<g transform="translate(0.000000,55.000000) scale(0.100000,-0.100000)"
fill="#000000" stroke="none">
<path d="M337 537 l-18 -12 12 -52 12 -52 -17 -25 -16 -26 -25 -6 -25 -6 -24
6 -25 6 -6 21 -7 20 12 51 13 50 -14 9 -14 9 -92 0 -93 0 0 -39 0 -38 -7 -62
-6 -62 37 6 36 7 31 -12 30 -13 9 -18 10 -18 0 -15 0 -15 -32 -17 -32 -17 -4
12 -4 11 -18 0 -18 0 -9 -13 -10 -12 -7 -108 -6 -107 93 0 93 0 19 13 18 14
-5 46 -5 46 18 6 18 6 36 -7 35 -6 -5 -32 -5 -31 8 -13 9 -13 69 -10 69 -9 28
-6 27 -6 0 23 0 22 -16 81 -16 81 -10 18 -10 19 -34 -4 -35 -4 -6 24 -6 23 10
10 10 10 47 -13 48 -13 13 18 13 18 5 42 6 42 -7 65 -7 65 -55 12 -55 11 -36
1 -35 1 -17 -13z"/>
</g>
</svg>
