<?xml version="1.0" standalone="no"?>
<!DOCTYPE svg PUBLIC "-//W3C//DTD SVG 20010904//EN"
 "http://www.w3.org/TR/2001/REC-SVG-20010904/DTD/svg10.dtd">
<svg version="1.0" xmlns="http://www.w3.org/2000/svg"
 width="53.000000pt" height="53.000000pt" viewBox="0 0 53.000000 53.000000"
 preserveAspectRatio="xMidYMid meet">
<metadata>
Created by potrace 1.16, written by Peter Selinger 2001-2019
</metadata>
<g transform="translate(0.000000,53.000000) scale(0.100000,-0.100000)"
fill="#000000" stroke="none">
<path d="M338 520 l-17 -10 10 -33 9 -32 0 -28 0 -28 -25 -24 -24 -25 -40 0
-40 0 -15 16 -16 15 0 27 0 27 10 35 10 34 -13 8 -12 8 -82 0 -83 0 0 -44 0
-43 -6 -45 -6 -45 31 5 31 4 25 -6 26 -7 19 -19 20 -20 0 -30 0 -29 -30 -16
-29 -15 -15 0 -14 0 -5 13 -5 12 -15 -15 -15 -15 -5 -98 -5 -97 79 0 80 0 20
10 19 11 0 25 0 25 -10 20 -11 19 26 12 25 11 48 -9 47 -9 -1 -15 -2 -15 -6
-15 -6 -15 8 -13 9 -13 86 -12 87 -13 0 9 0 10 -16 81 -16 81 -10 18 -9 17
-19 0 -19 0 -7 -12 -7 -11 -14 18 -13 19 0 28 0 29 16 6 16 6 40 -12 40 -13
10 10 10 10 8 38 8 39 -6 65 -7 65 -55 12 -55 11 -25 1 -25 0 -17 -9z"/>
</g>
</svg>
