<?xml version="1.0" standalone="no"?>
<!DOCTYPE svg PUBLIC "-//W3C//DTD SVG 20010904//EN"
 "http://www.w3.org/TR/2001/REC-SVG-20010904/DTD/svg10.dtd">
<svg version="1.0" xmlns="http://www.w3.org/2000/svg"
 width="68.000000pt" height="54.000000pt" viewBox="0 0 68.000000 54.000000"
 preserveAspectRatio="xMidYMid meet">
<metadata>
Created by potrace 1.16, written by Peter Selinger 2001-2019
</metadata>
<g transform="translate(0.000000,54.000000) scale(0.100000,-0.100000)"
fill="#000000" stroke="none">
<path d="M140 448 l1 -93 0 -16 -1 -16 -50 5 -51 5 -19 -18 -20 -18 0 -23 0
-23 24 -28 24 -28 30 11 29 11 11 -18 12 -19 0 -88 0 -88 103 0 103 1 19 19
19 18 -12 30 -11 29 20 20 20 20 27 -3 27 -3 3 -22 3 -22 16 -13 16 -13 61
-18 61 -18 17 -5 17 -6 6 23 6 24 -16 69 -16 70 -11 19 -10 19 -35 -4 -35 -4
-9 24 -9 23 11 22 12 22 11 7 11 7 52 -6 53 -6 4 14 5 14 3 93 4 92 -269 0
-268 0 1 -92z"/>
</g>
</svg>
