<?xml version="1.0" standalone="no"?>
<!DOCTYPE svg PUBLIC "-//W3C//DTD SVG 20010904//EN"
 "http://www.w3.org/TR/2001/REC-SVG-20010904/DTD/svg10.dtd">
<svg version="1.0" xmlns="http://www.w3.org/2000/svg"
 width="79.000000pt" height="53.000000pt" viewBox="0 0 79.000000 53.000000"
 preserveAspectRatio="xMidYMid meet">
<metadata>
Created by potrace 1.16, written by Peter Selinger 2001-2019
</metadata>
<g transform="translate(0.000000,53.000000) scale(0.100000,-0.100000)"
fill="#000000" stroke="none">
<path d="M170 425 l0 -106 -13 -5 -14 -5 -48 11 -48 11 -23 -16 -24 -15 0 -24
0 -24 14 -11 14 -12 43 3 44 3 11 -40 12 -40 12 -70 12 -70 94 3 94 3 0 28 0
27 -11 11 -11 11 25 26 26 26 31 0 30 0 20 -20 20 -20 0 -21 0 -20 -11 -20
-10 -20 13 -16 13 -16 79 7 80 6 9 9 10 10 -2 78 -2 78 7 18 7 19 50 -7 49 -7
9 13 9 14 0 41 0 40 -13 18 -13 18 -25 1 -24 1 -29 -7 -29 -8 5 91 6 90 -37
-5 -36 -6 -30 -5 -30 -5 -18 -6 -18 -5 6 -29 7 -30 -27 -25 -26 -24 -48 0 -48
0 -16 18 -17 19 0 21 0 21 10 25 9 26 -19 10 -19 10 -70 0 -71 0 0 -105z"/>
</g>
</svg>
