<?xml version="1.0" standalone="no"?>
<!DOCTYPE svg PUBLIC "-//W3C//DTD SVG 20010904//EN"
 "http://www.w3.org/TR/2001/REC-SVG-20010904/DTD/svg10.dtd">
<svg version="1.0" xmlns="http://www.w3.org/2000/svg"
 width="64.000000pt" height="54.000000pt" viewBox="0 0 64.000000 54.000000"
 preserveAspectRatio="xMidYMid meet">
<metadata>
Created by potrace 1.16, written by Peter Selinger 2001-2019
</metadata>
<g transform="translate(0.000000,54.000000) scale(0.100000,-0.100000)"
fill="#000000" stroke="none">
<path d="M0 458 l0 -83 9 -13 8 -14 37 11 38 10 23 -9 24 -9 10 -20 11 -20 0
-16 0 -16 -19 -20 -18 -20 -37 -6 -36 -6 -15 13 -15 12 -10 -28 -11 -27 3 -81
3 -81 83 -3 82 -3 26 26 26 26 -5 22 -4 22 -4 15 -4 15 36 3 35 3 27 -22 28
-21 -3 -57 -3 -56 35 -3 35 -4 58 13 57 12 -2 11 -1 11 7 50 7 50 10 38 10 37
15 0 15 0 19 -10 19 -10 15 22 16 22 0 41 0 41 -14 19 -13 18 -55 -6 -56 -7
-6 23 -6 22 7 69 6 68 -29 -15 -29 -14 -52 -13 -52 -12 -11 -13 -11 -14 11
-21 12 -22 -18 -19 -17 -19 -44 0 -44 0 -21 11 -20 11 6 59 7 60 -35 14 -35
15 -61 0 -60 0 0 -82z"/>
</g>
</svg>
