<?xml version="1.0" standalone="no"?>
<!DOCTYPE svg PUBLIC "-//W3C//DTD SVG 20010904//EN"
 "http://www.w3.org/TR/2001/REC-SVG-20010904/DTD/svg10.dtd">
<svg version="1.0" xmlns="http://www.w3.org/2000/svg"
 width="66.000000pt" height="56.000000pt" viewBox="0 0 66.000000 56.000000"
 preserveAspectRatio="xMidYMid meet">
<metadata>
Created by potrace 1.16, written by Peter Selinger 2001-2019
</metadata>
<g transform="translate(0.000000,56.000000) scale(0.100000,-0.100000)"
fill="#000000" stroke="none">
<path d="M0 468 l0 -93 8 -12 8 -12 59 2 59 2 15 -26 14 -26 -19 -20 -19 -21
-24 -7 -23 -7 -24 13 -24 13 -13 -13 -12 -12 0 -107 0 -107 93 -3 92 -3 26 26
26 27 -5 39 -5 39 23 0 23 0 23 -19 24 -19 0 -59 0 -58 45 -3 45 -4 56 12 57
12 7 67 6 66 10 33 11 32 3 0 4 0 27 -12 26 -12 19 23 19 23 0 52 0 52 -13 18
-14 19 -56 -5 -56 -5 -4 18 -5 17 6 71 5 71 -12 0 -12 0 -27 -14 -27 -13 -52
-13 -52 -12 -12 -14 -11 -14 6 -26 7 -26 -12 -14 -11 -14 -35 0 -34 0 -20 11
-20 10 7 60 7 59 -36 15 -36 15 -71 0 -70 0 0 -92z"/>
</g>
</svg>
