<?xml version="1.0" standalone="no"?>
<!DOCTYPE svg PUBLIC "-//W3C//DTD SVG 20010904//EN"
 "http://www.w3.org/TR/2001/REC-SVG-20010904/DTD/svg10.dtd">
<svg version="1.0" xmlns="http://www.w3.org/2000/svg"
 width="66.000000pt" height="68.000000pt" viewBox="0 0 66.000000 68.000000"
 preserveAspectRatio="xMidYMid meet">
<metadata>
Created by potrace 1.16, written by Peter Selinger 2001-2019
</metadata>
<g transform="translate(0.000000,68.000000) scale(0.100000,-0.100000)"
fill="#000000" stroke="none">
<path d="M155 607 l-1 -72 -7 -27 -7 -27 -21 -11 -20 -11 -35 11 -35 12 -14
-12 -15 -12 0 -23 0 -23 14 -11 14 -12 34 -5 34 -6 39 11 39 10 13 -11 13 -10
0 -37 -1 -36 -22 -67 -23 -67 80 2 81 1 22 -8 22 -7 -9 -25 -10 -25 0 -35 0
-34 20 -20 20 -20 20 0 20 0 21 21 21 21 -6 53 -6 53 16 6 16 6 48 0 48 0 32
6 32 7 -6 16 -5 16 -22 65 -22 65 -8 9 -8 9 -14 -12 -14 -11 -13 16 -14 15 0
64 -1 64 17 18 18 17 34 -12 33 -12 16 6 16 6 7 44 6 44 -6 35 -7 35 -53 0
-53 0 -32 -6 -31 -6 6 -38 6 -37 -30 -22 -30 -21 -37 0 -36 0 -20 10 -19 11 1
27 0 27 8 20 9 20 -10 13 -10 12 -82 0 -81 0 0 -73z"/>
</g>
</svg>
