<?xml version="1.0" standalone="no"?>
<!DOCTYPE svg PUBLIC "-//W3C//DTD SVG 20010904//EN"
 "http://www.w3.org/TR/2001/REC-SVG-20010904/DTD/svg10.dtd">
<svg version="1.0" xmlns="http://www.w3.org/2000/svg"
 width="68.000000pt" height="70.000000pt" viewBox="0 0 68.000000 70.000000"
 preserveAspectRatio="xMidYMid meet">
<metadata>
Created by potrace 1.16, written by Peter Selinger 2001-2019
</metadata>
<g transform="translate(0.000000,70.000000) scale(0.100000,-0.100000)"
fill="#000000" stroke="none">
<path d="M155 664 l6 -36 -7 -55 -7 -56 -17 -17 -18 -18 -40 11 -40 11 -16
-13 -16 -13 0 -33 0 -33 17 -13 16 -14 81 0 81 0 3 -27 3 -26 -25 -76 -26 -76
0 -5 0 -5 90 2 90 1 8 -7 7 -8 -3 -58 -4 -58 21 -21 21 -21 30 0 30 0 21 21
21 21 -4 54 -5 53 15 6 14 5 48 0 47 0 33 6 32 7 -5 26 -5 26 -25 70 -24 70
-29 0 -28 1 -8 34 -7 35 5 32 6 32 13 11 13 11 25 -12 26 -12 24 7 24 6 7 31
6 32 0 36 0 36 -6 23 -6 22 -63 0 -62 0 -33 -6 -32 -7 6 -38 6 -38 -29 -20
-29 -21 -29 0 -29 0 -19 14 -19 14 13 42 12 41 -12 15 -11 14 -95 0 -95 0 7
-36z"/>
</g>
</svg>
