<?xml version="1.0" standalone="no"?>
<!DOCTYPE svg PUBLIC "-//W3C//DTD SVG 20010904//EN"
 "http://www.w3.org/TR/2001/REC-SVG-20010904/DTD/svg10.dtd">
<svg version="1.0" xmlns="http://www.w3.org/2000/svg"
 width="69.000000pt" height="52.000000pt" viewBox="0 0 69.000000 52.000000"
 preserveAspectRatio="xMidYMid meet">
<metadata>
Created by potrace 1.16, written by Peter Selinger 2001-2019
</metadata>
<g transform="translate(0.000000,52.000000) scale(0.100000,-0.100000)"
fill="#000000" stroke="none">
<path d="M145 457 l7 -65 -7 -41 -7 -40 -19 -6 -19 -6 -36 11 -35 12 -14 -12
-15 -12 0 -38 0 -38 14 -11 14 -12 40 7 41 6 6 -23 5 -24 9 -68 10 -69 -5 -11
-4 -12 99 5 100 5 13 13 12 12 -13 37 -14 36 19 14 18 13 24 0 23 0 19 -10 19
-10 -5 -29 -6 -30 38 -10 39 -11 55 -10 55 -10 10 -3 9 -2 23 65 22 65 1 37 0
37 -10 6 -11 7 -14 -12 -15 -12 -47 7 -48 7 -27 14 -28 15 0 30 0 30 11 21 11
21 64 -7 63 -7 7 27 7 26 -6 55 -6 55 -3 4 -4 3 -74 -11 -75 -11 -11 -9 -12
-9 6 -41 5 -41 -18 -14 -19 -13 -53 0 -53 0 -12 26 -12 25 11 39 10 39 -8 13
-8 13 -87 4 -86 3 7 -65z"/>
</g>
</svg>
