<?xml version="1.0" standalone="no"?>
<!DOCTYPE svg PUBLIC "-//W3C//DTD SVG 20010904//EN"
 "http://www.w3.org/TR/2001/REC-SVG-20010904/DTD/svg10.dtd">
<svg version="1.0" xmlns="http://www.w3.org/2000/svg"
 width="80.000000pt" height="80.000000pt" viewBox="0 0 80.000000 80.000000"
 preserveAspectRatio="xMidYMid meet">
<metadata>
Created by potrace 1.16, written by Peter Selinger 2001-2019
</metadata>
<g transform="translate(0.000000,80.000000) scale(0.100000,-0.100000)"
fill="#000000" stroke="none">
<path d="M335 783 l-17 -17 6 -62 6 -63 -12 -7 -13 -8 -86 2 -87 3 -3 -90 -4
-90 -17 -17 -17 -17 -30 13 -31 12 -15 -6 -15 -5 0 -44 0 -43 13 -18 14 -19
20 12 21 11 10 -13 10 -12 15 -80 15 -80 -5 -8 -4 -7 8 -1 8 0 77 -2 77 -2 13
-13 13 -13 0 -47 0 -47 52 -3 52 -3 17 32 16 33 -5 47 -6 48 19 6 18 6 64 -15
63 -15 27 -10 27 -10 3 97 3 97 15 -2 15 -2 26 -7 26 -6 29 25 29 25 -1 43 -2
43 -22 18 -22 18 -28 0 -29 0 -27 -10 -27 -11 6 83 7 83 -8 11 -7 11 -30 15
-30 16 -35 7 -35 7 -23 15 -23 14 3 32 3 31 -25 13 -25 13 -32 0 -32 0 -16
-17z"/>
</g>
</svg>
