<?xml version="1.0" standalone="no"?>
<!DOCTYPE svg PUBLIC "-//W3C//DTD SVG 20010904//EN"
 "http://www.w3.org/TR/2001/REC-SVG-20010904/DTD/svg10.dtd">
<svg version="1.0" xmlns="http://www.w3.org/2000/svg"
 width="68.000000pt" height="82.000000pt" viewBox="0 0 68.000000 82.000000"
 preserveAspectRatio="xMidYMid meet">
<metadata>
Created by potrace 1.16, written by Peter Selinger 2001-2019
</metadata>
<g transform="translate(0.000000,82.000000) scale(0.100000,-0.100000)"
fill="#000000" stroke="none">
<path d="M224 799 l-19 -21 0 -59 0 -59 -10 -2 -10 -2 -90 -1 -90 0 -3 -259
-2 -258 90 3 90 4 0 -48 0 -48 27 -25 28 -26 44 5 45 5 14 18 13 19 -5 36 -6
37 16 6 16 6 71 0 72 0 13 9 14 8 -15 44 -15 44 -2 25 -2 25 1 12 1 13 59 -6
59 -7 26 26 26 26 0 53 0 54 -16 23 -17 23 -54 -4 -53 -5 -7 24 -6 25 7 54 6
54 -10 0 -10 0 0 13 0 14 -96 24 -96 24 -9 17 -10 18 11 0 10 0 0 13 0 14 -18
16 -19 17 -25 0 -25 0 -19 -21z"/>
</g>
</svg>
