<?xml version="1.0" standalone="no"?>
<!DOCTYPE svg PUBLIC "-//W3C//DTD SVG 20010904//EN"
 "http://www.w3.org/TR/2001/REC-SVG-20010904/DTD/svg10.dtd">
<svg version="1.0" xmlns="http://www.w3.org/2000/svg"
 width="69.000000pt" height="52.000000pt" viewBox="0 0 69.000000 52.000000"
 preserveAspectRatio="xMidYMid meet">
<metadata>
Created by potrace 1.16, written by Peter Selinger 2001-2019
</metadata>
<g transform="translate(0.000000,52.000000) scale(0.100000,-0.100000)"
fill="#000000" stroke="none">
<path d="M89 513 l-76 -4 -6 -72 -6 -72 5 -23 6 -22 56 7 55 6 13 -18 14 -19
0 -41 0 -41 -16 -22 -15 -22 -19 10 -19 10 -15 0 -15 0 -10 -38 -9 -37 -9 -53
-10 -52 5 -5 5 -5 93 0 93 0 8 13 8 12 0 55 0 55 24 3 23 4 25 -7 25 -6 -7
-39 -7 -40 24 -9 23 -10 72 -11 71 -10 14 -5 15 -6 1 13 1 13 16 94 16 95 6 9
5 8 40 -6 39 -7 20 18 19 17 0 23 0 23 -17 17 -17 16 -57 -6 -58 -6 -13 -2
-13 -3 3 94 3 93 -23 -5 -23 -6 -70 -11 -70 -11 -8 -8 -9 -9 11 -20 11 -21 0
-11 0 -11 -26 -24 -27 -25 -18 0 -19 0 -16 25 -17 26 6 64 6 65 -32 -2 -32 -2
-76 -3z"/>
</g>
</svg>
