<?xml version="1.0" standalone="no"?>
<!DOCTYPE svg PUBLIC "-//W3C//DTD SVG 20010904//EN"
 "http://www.w3.org/TR/2001/REC-SVG-20010904/DTD/svg10.dtd">
<svg version="1.0" xmlns="http://www.w3.org/2000/svg"
 width="71.000000pt" height="54.000000pt" viewBox="0 0 71.000000 54.000000"
 preserveAspectRatio="xMidYMid meet">
<metadata>
Created by potrace 1.16, written by Peter Selinger 2001-2019
</metadata>
<g transform="translate(0.000000,54.000000) scale(0.100000,-0.100000)"
fill="#000000" stroke="none">
<path d="M89 533 l-76 -4 -7 -79 -6 -80 6 -26 7 -26 57 7 58 7 11 -20 11 -21
0 -26 0 -26 -10 -19 -10 -18 -39 5 -39 5 -10 -38 -10 -39 -11 -59 -11 -59 6
-8 5 -9 103 0 104 0 12 15 13 15 -7 50 -7 50 16 6 15 6 24 -6 24 -6 -5 -40 -6
-39 24 -10 24 -10 70 -11 70 -11 26 -5 26 -6 17 108 17 107 4 8 5 7 40 -5 40
-6 20 18 20 18 0 33 0 33 -17 17 -17 17 -74 -7 -73 -6 7 90 7 90 -12 0 -11 0
-92 -16 -93 -16 -10 -9 -9 -9 11 -31 12 -31 -26 -24 -26 -24 -8 0 -9 0 -16 25
-16 25 7 65 7 65 -44 -2 -43 -2 -76 -3z"/>
</g>
</svg>
