<?xml version="1.0" standalone="no"?>
<!DOCTYPE svg PUBLIC "-//W3C//DTD SVG 20010904//EN"
 "http://www.w3.org/TR/2001/REC-SVG-20010904/DTD/svg10.dtd">
<svg version="1.0" xmlns="http://www.w3.org/2000/svg"
 width="51.000000pt" height="53.000000pt" viewBox="0 0 51.000000 53.000000"
 preserveAspectRatio="xMidYMid meet">
<metadata>
Created by potrace 1.16, written by Peter Selinger 2001-2019
</metadata>
<g transform="translate(0.000000,53.000000) scale(0.100000,-0.100000)"
fill="#000000" stroke="none">
<path d="M73 523 l-63 -4 -2 -47 -2 -47 2 -34 2 -35 8 -8 9 -9 46 13 47 12 15
-19 14 -20 1 -46 0 -47 -15 -12 -16 -13 -25 11 -25 12 -9 -23 -10 -22 -14 -70
-14 -70 -4 -15 -3 -15 64 -6 65 -6 25 7 26 7 -3 65 -4 65 17 17 16 16 32 0 32
0 25 -13 25 -13 0 -34 0 -34 25 -12 25 -13 50 -15 49 -15 8 5 8 5 -6 57 -7 57
-9 19 -10 18 -11 -11 -11 -11 -13 0 -14 0 -24 25 -25 24 0 44 0 44 20 18 19
18 51 -5 50 -5 0 93 0 94 -67 0 -68 0 -22 -6 -23 -6 6 -53 7 -53 -21 -11 -21
-11 -40 0 -41 0 -17 26 -17 26 1 49 1 49 -27 -2 -26 -2 -62 -3z"/>
</g>
</svg>
