<?xml version="1.0" standalone="no"?>
<!DOCTYPE svg PUBLIC "-//W3C//DTD SVG 20010904//EN"
 "http://www.w3.org/TR/2001/REC-SVG-20010904/DTD/svg10.dtd">
<svg version="1.0" xmlns="http://www.w3.org/2000/svg"
 width="68.000000pt" height="65.000000pt" viewBox="0 0 68.000000 65.000000"
 preserveAspectRatio="xMidYMid meet">
<metadata>
Created by potrace 1.16, written by Peter Selinger 2001-2019
</metadata>
<g transform="translate(0.000000,65.000000) scale(0.100000,-0.100000)"
fill="#000000" stroke="none">
<path d="M164 554 l7 -96 -23 6 -23 6 -27 6 -27 6 -25 -6 -24 -6 -12 -34 -11
-34 15 -36 15 -35 24 -6 25 -7 20 11 19 10 19 -14 19 -13 0 -89 0 -88 76 3 75
3 13 -15 13 -15 -12 -36 -12 -36 18 -20 17 -19 52 0 52 0 24 26 24 26 0 56 0
57 27 3 26 3 56 -14 56 -15 0 6 0 7 11 65 10 64 -5 23 -6 22 -69 -6 -68 -6
-22 22 -21 21 0 35 0 36 19 20 19 21 61 -1 61 0 11 -7 11 -6 -7 88 -7 89 -2 2
-1 1 -60 -14 -60 -14 -30 -8 -30 -8 2 -29 2 -29 -11 -13 -10 -13 -59 0 -58 0
-12 21 -11 22 5 31 5 31 7 18 7 17 -92 0 -93 0 7 -96z"/>
</g>
</svg>
