<?xml version="1.0" standalone="no"?>
<!DOCTYPE svg PUBLIC "-//W3C//DTD SVG 20010904//EN"
 "http://www.w3.org/TR/2001/REC-SVG-20010904/DTD/svg10.dtd">
<svg version="1.0" xmlns="http://www.w3.org/2000/svg"
 width="51.000000pt" height="64.000000pt" viewBox="0 0 51.000000 64.000000"
 preserveAspectRatio="xMidYMid meet">
<metadata>
Created by potrace 1.16, written by Peter Selinger 2001-2019
</metadata>
<g transform="translate(0.000000,64.000000) scale(0.100000,-0.100000)"
fill="#000000" stroke="none">
<path d="M0 545 l0 -95 43 6 42 6 28 -22 28 -22 -3 -31 -3 -30 -26 -20 -27
-19 -22 12 -22 12 -11 -11 -11 -11 -4 -95 -4 -95 85 0 85 0 16 -6 15 -6 -6
-43 -5 -43 26 -17 26 -17 31 12 31 13 -6 39 -6 38 26 10 25 10 52 0 52 0 23 6
22 6 0 72 0 72 -13 18 -13 17 -27 -10 -28 -11 -19 10 -18 10 -7 40 -7 41 12
30 13 29 22 6 23 6 33 -4 34 -3 3 75 2 75 -8 13 -9 13 -88 -11 -89 -11 -8 -5
-8 -5 6 -40 7 -40 -18 -19 -18 -20 -19 0 -19 0 -20 11 -20 10 3 52 3 52 -35
17 -35 18 -67 0 -68 0 0 -95z"/>
</g>
</svg>
