<?xml version="1.0" standalone="no"?>
<!DOCTYPE svg PUBLIC "-//W3C//DTD SVG 20010904//EN"
 "http://www.w3.org/TR/2001/REC-SVG-20010904/DTD/svg10.dtd">
<svg version="1.0" xmlns="http://www.w3.org/2000/svg"
 width="68.000000pt" height="53.000000pt" viewBox="0 0 68.000000 53.000000"
 preserveAspectRatio="xMidYMid meet">
<metadata>
Created by potrace 1.16, written by Peter Selinger 2001-2019
</metadata>
<g transform="translate(0.000000,53.000000) scale(0.100000,-0.100000)"
fill="#000000" stroke="none">
<path d="M167 523 l-7 -6 0 -84 0 -84 -16 -6 -17 -6 -29 11 -30 11 -23 -11
-24 -11 -11 -28 -12 -28 10 -28 9 -28 36 3 36 3 10 -19 10 -18 15 -68 16 -68
-5 -9 -6 -9 12 -12 11 -13 87 5 86 5 22 13 22 12 6 21 7 20 -6 25 -6 24 28 0
29 0 11 -22 12 -23 -3 -45 -2 -45 80 1 80 0 35 7 35 7 3 98 4 98 -14 11 -13
11 -44 -11 -43 -12 -19 24 -19 23 0 17 0 17 16 23 17 24 53 -6 54 -6 5 9 6 9
-7 91 -7 90 -247 0 -247 0 -6 -7z"/>
</g>
</svg>
