<?xml version="1.0" standalone="no"?>
<!DOCTYPE svg PUBLIC "-//W3C//DTD SVG 20010904//EN"
 "http://www.w3.org/TR/2001/REC-SVG-20010904/DTD/svg10.dtd">
<svg version="1.0" xmlns="http://www.w3.org/2000/svg"
 width="66.000000pt" height="69.000000pt" viewBox="0 0 66.000000 69.000000"
 preserveAspectRatio="xMidYMid meet">
<metadata>
Created by potrace 1.16, written by Peter Selinger 2001-2019
</metadata>
<g transform="translate(0.000000,69.000000) scale(0.100000,-0.100000)"
fill="#000000" stroke="none">
<path d="M366 677 l-18 -13 0 -36 0 -36 7 -32 7 -32 -111 7 -111 7 0 -53 0
-54 -10 -36 -10 -37 -15 -12 -15 -12 -30 12 -30 12 -15 -12 -15 -12 0 -34 0
-33 22 -15 22 -16 26 0 26 0 11 11 11 11 12 -22 12 -22 -4 -94 -3 -95 105 3
105 3 -2 20 -2 20 -7 44 -7 44 18 14 19 13 28 0 27 0 21 -22 21 -23 -3 -70 -3
-70 30 -3 30 -4 55 12 54 12 17 11 17 11 -8 22 -9 22 -10 77 -11 76 -16 16
-15 16 -25 -12 -25 -11 -10 0 -9 0 -9 23 -9 23 5 25 5 25 50 -1 50 0 20 27 21
26 5 73 5 72 -67 -6 -67 -6 -29 5 -29 6 -5 14 -5 14 11 25 11 25 -12 24 -13
24 -25 11 -24 11 -13 0 -12 0 -18 -13z"/>
</g>
</svg>
