<?xml version="1.0" standalone="no"?>
<!DOCTYPE svg PUBLIC "-//W3C//DTD SVG 20010904//EN"
 "http://www.w3.org/TR/2001/REC-SVG-20010904/DTD/svg10.dtd">
<svg version="1.0" xmlns="http://www.w3.org/2000/svg"
 width="68.000000pt" height="71.000000pt" viewBox="0 0 68.000000 71.000000"
 preserveAspectRatio="xMidYMid meet">
<metadata>
Created by potrace 1.16, written by Peter Selinger 2001-2019
</metadata>
<g transform="translate(0.000000,71.000000) scale(0.100000,-0.100000)"
fill="#000000" stroke="none">
<path d="M368 698 l-16 -13 -5 -25 -6 -25 8 -43 8 -43 -107 7 -107 7 -5 -76
-5 -76 -16 -25 -16 -24 -31 11 -31 12 -17 -11 -17 -11 -3 -46 -3 -46 25 -16
26 -17 40 4 41 4 6 -24 6 -24 -6 -84 -5 -84 114 0 113 0 7 11 7 11 -14 55 -13
55 19 14 19 14 18 0 17 0 21 -22 21 -22 -3 -71 -3 -70 40 -3 40 -4 55 12 55
12 19 13 18 14 -11 33 -11 33 -10 73 -10 74 -15 15 -16 15 -22 -5 -22 -4 -15
-4 -15 -4 -3 32 -3 32 52 3 52 3 20 27 20 27 5 82 5 82 -71 -5 -72 -5 -25 5
-25 4 5 47 6 46 -13 16 -13 16 -22 11 -22 12 -23 0 -24 0 -16 -12z"/>
</g>
</svg>
