<?xml version="1.0" standalone="no"?>
<!DOCTYPE svg PUBLIC "-//W3C//DTD SVG 20010904//EN"
 "http://www.w3.org/TR/2001/REC-SVG-20010904/DTD/svg10.dtd">
<svg version="1.0" xmlns="http://www.w3.org/2000/svg"
 width="57.000000pt" height="70.000000pt" viewBox="0 0 57.000000 70.000000"
 preserveAspectRatio="xMidYMid meet">
<metadata>
Created by potrace 1.16, written by Peter Selinger 2001-2019
</metadata>
<g transform="translate(0.000000,70.000000) scale(0.100000,-0.100000)"
fill="#000000" stroke="none">
<path d="M243 684 l-6 -15 6 -44 6 -43 -12 -11 -13 -10 -95 -3 -94 -3 0 -104
0 -104 17 -11 17 -11 30 12 29 11 11 -11 11 -11 0 -27 0 -28 -25 -19 -24 -19
-51 5 -50 5 0 -60 0 -59 15 -51 15 -51 63 4 62 5 41 5 42 5 17 19 17 18 -4 44
-3 43 22 3 22 3 17 -26 17 -26 -13 -38 -12 -38 11 -22 12 -21 37 0 37 0 76 12
76 12 -5 75 -4 76 -7 30 -8 30 -44 0 -44 0 -12 8 -13 8 0 34 0 33 6 16 6 15
43 -5 42 -6 17 23 16 23 0 88 0 87 -9 5 -8 5 -74 11 -74 11 -22 9 -22 9 6 37
6 36 -14 9 -14 9 -43 0 -43 0 -6 -16z"/>
</g>
</svg>
