<?xml version="1.0" standalone="no"?>
<!DOCTYPE svg PUBLIC "-//W3C//DTD SVG 20010904//EN"
 "http://www.w3.org/TR/2001/REC-SVG-20010904/DTD/svg10.dtd">
<svg version="1.0" xmlns="http://www.w3.org/2000/svg"
 width="55.000000pt" height="68.000000pt" viewBox="0 0 55.000000 68.000000"
 preserveAspectRatio="xMidYMid meet">
<metadata>
Created by potrace 1.16, written by Peter Selinger 2001-2019
</metadata>
<g transform="translate(0.000000,68.000000) scale(0.100000,-0.100000)"
fill="#000000" stroke="none">
<path d="M245 670 l-7 -11 7 -48 6 -47 -13 -12 -14 -11 -95 -3 -94 -3 -3 -91
-3 -91 16 -13 15 -12 31 12 30 13 16 -16 16 -16 0 -32 0 -32 -27 -24 -28 -23
-49 6 -49 7 0 -50 0 -49 15 -50 14 -49 91 6 91 6 19 18 20 18 0 27 0 26 -10
10 -11 11 13 10 13 11 21 6 22 7 21 -27 21 -27 0 -24 0 -24 -10 -20 -11 -19
12 -21 11 -22 62 6 61 6 38 11 37 11 -1 67 -1 67 -7 25 -7 25 -43 -3 -42 -3
-15 11 -14 12 0 47 0 46 9 14 9 13 40 -7 40 -6 16 23 16 22 0 78 0 77 -9 5 -8
5 -74 11 -74 11 -24 10 -23 10 7 36 6 36 -13 8 -13 9 -32 0 -32 0 -6 -10z"/>
</g>
</svg>
