<?xml version="1.0" standalone="no"?>
<!DOCTYPE svg PUBLIC "-//W3C//DTD SVG 20010904//EN"
 "http://www.w3.org/TR/2001/REC-SVG-20010904/DTD/svg10.dtd">
<svg version="1.0" xmlns="http://www.w3.org/2000/svg"
 width="79.000000pt" height="69.000000pt" viewBox="0 0 79.000000 69.000000"
 preserveAspectRatio="xMidYMid meet">
<metadata>
Created by potrace 1.16, written by Peter Selinger 2001-2019
</metadata>
<g transform="translate(0.000000,69.000000) scale(0.100000,-0.100000)"
fill="#000000" stroke="none">
<path d="M351 672 l-9 -17 9 -49 9 -49 -6 -6 -6 -6 -103 3 -102 3 1 -95 1 -95
-10 -10 -11 -11 -30 12 -30 11 -30 -14 -29 -14 -3 -22 -3 -22 20 -22 20 -22
53 2 53 1 20 2 20 3 3 -33 3 -33 -19 -57 -20 -57 -7 -17 -7 -18 73 0 74 0 38
11 38 10 11 25 12 25 -13 35 -13 35 12 14 12 15 18 0 17 0 15 -17 16 -18 6
-32 7 -31 -11 -43 -12 -42 16 -15 15 -15 66 11 67 11 36 19 37 19 17 49 17 49
11 43 11 43 30 -6 29 -7 0 64 0 63 -9 14 -9 15 -16 -13 -15 -12 -28 3 -28 3
-12 25 -13 25 0 67 0 66 -47 -14 -48 -15 -48 -1 -48 -1 -10 10 -10 10 11 42
11 42 -6 19 -6 20 -15 15 -15 15 -34 0 -34 0 -10 -18z"/>
</g>
</svg>
