<?xml version="1.0" standalone="no"?>
<!DOCTYPE svg PUBLIC "-//W3C//DTD SVG 20010904//EN"
 "http://www.w3.org/TR/2001/REC-SVG-20010904/DTD/svg10.dtd">
<svg version="1.0" xmlns="http://www.w3.org/2000/svg"
 width="55.000000pt" height="66.000000pt" viewBox="0 0 55.000000 66.000000"
 preserveAspectRatio="xMidYMid meet">
<metadata>
Created by potrace 1.16, written by Peter Selinger 2001-2019
</metadata>
<g transform="translate(0.000000,66.000000) scale(0.100000,-0.100000)"
fill="#000000" stroke="none">
<path d="M216 648 l-19 -15 14 -36 13 -37 -12 -12 -13 -13 -92 -5 -92 -5 -3
-88 -3 -88 16 -16 16 -15 39 5 39 5 5 -15 6 -15 0 -27 0 -28 -21 -19 -20 -18
-34 3 -34 2 -11 -20 -11 -21 3 -83 3 -82 67 -3 68 -3 40 11 41 11 9 25 10 25
-6 39 -6 38 31 7 30 6 28 -13 28 -14 -3 -46 -3 -46 33 -10 33 -10 63 -7 62 -6
0 16 0 16 -15 47 -14 47 -11 43 -11 43 -28 -3 -28 -3 -17 14 -16 13 0 44 0 43
20 11 20 11 60 -7 60 -7 -1 59 0 59 -7 40 -7 40 -55 8 -55 8 -33 5 -34 5 7 39
6 38 -11 7 -11 7 -57 5 -57 5 -19 -14z"/>
</g>
</svg>
