<?xml version="1.0" standalone="no"?>
<!DOCTYPE svg PUBLIC "-//W3C//DTD SVG 20010904//EN"
 "http://www.w3.org/TR/2001/REC-SVG-20010904/DTD/svg10.dtd">
<svg version="1.0" xmlns="http://www.w3.org/2000/svg"
 width="72.000000pt" height="67.000000pt" viewBox="0 0 72.000000 67.000000"
 preserveAspectRatio="xMidYMid meet">
<metadata>
Created by potrace 1.16, written by Peter Selinger 2001-2019
</metadata>
<g transform="translate(0.000000,67.000000) scale(0.100000,-0.100000)"
fill="#000000" stroke="none">
<path d="M366 639 l-26 -31 -1 -21 -2 -22 -1 -30 -1 -30 -90 0 -90 0 4 -83 3
-83 -59 7 -60 6 -22 -11 -21 -12 0 -53 0 -53 19 -17 19 -17 25 6 26 7 11 -44
11 -43 16 -53 16 -52 21 -6 21 -5 85 3 85 3 -3 20 -4 20 -5 36 -5 36 27 22 28
21 17 0 17 0 31 -11 32 -11 -10 -18 -10 -19 6 -15 6 -16 42 -10 41 -10 50 -20
50 -20 7 0 7 0 21 69 21 69 -3 29 -3 28 -57 -3 -57 -3 -29 15 -28 15 -13 15
-13 15 7 21 6 20 21 11 20 11 45 -13 45 -12 10 14 9 14 -5 84 -5 84 -11 11
-10 10 -82 6 -83 6 -23 13 -24 13 6 15 6 15 6 24 6 25 -17 19 -18 20 -18 0
-17 0 -26 -31z"/>
</g>
</svg>
