<?xml version="1.0" standalone="no"?>
<!DOCTYPE svg PUBLIC "-//W3C//DTD SVG 20010904//EN"
 "http://www.w3.org/TR/2001/REC-SVG-20010904/DTD/svg10.dtd">
<svg version="1.0" xmlns="http://www.w3.org/2000/svg"
 width="74.000000pt" height="69.000000pt" viewBox="0 0 74.000000 69.000000"
 preserveAspectRatio="xMidYMid meet">
<metadata>
Created by potrace 1.16, written by Peter Selinger 2001-2019
</metadata>
<g transform="translate(0.000000,69.000000) scale(0.100000,-0.100000)"
fill="#000000" stroke="none">
<path d="M366 659 l-26 -31 -2 -21 -2 -22 0 -30 -1 -30 -90 0 -90 0 3 -82 4
-81 -60 5 -59 5 -21 -11 -22 -12 0 -63 0 -63 20 -18 19 -17 26 4 25 5 10 -41
11 -41 16 -53 16 -52 21 -6 21 -5 95 3 95 3 -3 30 -3 30 -2 29 -2 29 26 19 27
20 28 -9 29 -10 -3 -24 -2 -24 8 -13 9 -13 59 -15 58 -16 28 -14 27 -14 20 0
20 0 21 69 21 69 -3 38 -3 39 -65 0 -65 0 -21 12 -21 12 -12 15 -12 15 21 21
22 22 16 -7 17 -7 37 -5 37 -5 7 27 7 27 -6 81 -7 81 -10 10 -10 10 -73 4 -72
3 -28 11 -28 11 7 44 6 44 -17 19 -18 20 -28 0 -27 0 -26 -31z"/>
</g>
</svg>
