<?xml version="1.0" standalone="no"?>
<!DOCTYPE svg PUBLIC "-//W3C//DTD SVG 20010904//EN"
 "http://www.w3.org/TR/2001/REC-SVG-20010904/DTD/svg10.dtd">
<svg version="1.0" xmlns="http://www.w3.org/2000/svg"
 width="84.000000pt" height="81.000000pt" viewBox="0 0 84.000000 81.000000"
 preserveAspectRatio="xMidYMid meet">
<metadata>
Created by potrace 1.16, written by Peter Selinger 2001-2019
</metadata>
<g transform="translate(0.000000,81.000000) scale(0.100000,-0.100000)"
fill="#000000" stroke="none">
<path d="M403 783 l-18 -26 1 -36 1 -36 4 -15 4 -15 -111 -3 -112 -3 -4 -66
-4 -66 -27 -23 -27 -23 -26 9 -25 10 -24 0 -25 0 -6 -25 -6 -26 4 -54 5 -54
13 -16 14 -17 48 4 47 5 5 -12 4 -12 7 -49 7 -49 10 -33 10 -32 47 6 47 6 41
-11 42 -12 6 -10 7 -10 -13 -15 -12 -15 11 -24 11 -24 37 -7 37 -7 26 9 26 9
13 25 13 25 -4 44 -5 43 52 -6 51 -6 56 -6 55 -6 12 86 11 87 6 9 6 9 28 -5
28 -6 16 17 17 16 0 47 0 48 -16 22 -15 22 -56 0 -55 0 7 80 7 80 -27 10 -26
10 -57 0 -57 0 -22 6 -23 6 6 53 6 52 -23 17 -23 16 -23 0 -23 0 -17 -27z"/>
</g>
</svg>
