<?xml version="1.0" standalone="no"?>
<!DOCTYPE svg PUBLIC "-//W3C//DTD SVG 20010904//EN"
 "http://www.w3.org/TR/2001/REC-SVG-20010904/DTD/svg10.dtd">
<svg version="1.0" xmlns="http://www.w3.org/2000/svg"
 width="56.000000pt" height="84.000000pt" viewBox="0 0 56.000000 84.000000"
 preserveAspectRatio="xMidYMid meet">
<metadata>
Created by potrace 1.16, written by Peter Selinger 2001-2019
</metadata>
<g transform="translate(0.000000,84.000000) scale(0.100000,-0.100000)"
fill="#000000" stroke="none">
<path d="M210 827 l-25 -13 3 -59 2 -59 -12 -8 -13 -8 -76 0 -76 0 -7 -52 -6
-53 0 -49 0 -48 23 6 22 7 30 5 30 6 23 -19 23 -18 1 -34 1 -34 -28 -24 -27
-24 -17 7 -16 7 -25 1 -25 1 -3 -106 -3 -105 83 4 83 4 0 -50 0 -51 21 -28 21
-28 56 -3 56 -3 11 22 12 21 -7 43 -6 43 28 6 29 7 72 2 72 2 4 11 4 11 7 89
7 89 -15 19 -14 20 -57 -13 -57 -13 -24 16 -25 16 0 25 0 25 24 15 25 16 45
-6 46 -7 15 12 15 12 0 93 0 93 -13 10 -13 11 -85 19 -84 18 3 24 3 25 -5 21
-6 21 -25 11 -26 12 -27 0 -27 0 -25 -13z"/>
</g>
</svg>
