<?xml version="1.0" standalone="no"?>
<!DOCTYPE svg PUBLIC "-//W3C//DTD SVG 20010904//EN"
 "http://www.w3.org/TR/2001/REC-SVG-20010904/DTD/svg10.dtd">
<svg version="1.0" xmlns="http://www.w3.org/2000/svg"
 width="69.000000pt" height="67.000000pt" viewBox="0 0 69.000000 67.000000"
 preserveAspectRatio="xMidYMid meet">
<metadata>
Created by potrace 1.16, written by Peter Selinger 2001-2019
</metadata>
<g transform="translate(0.000000,67.000000) scale(0.100000,-0.100000)"
fill="#000000" stroke="none">
<path d="M221 646 l-23 -25 7 -50 7 -51 -34 -1 -33 -1 -64 2 -64 2 -8 -14 -9
-13 0 -80 1 -80 13 -17 13 -18 33 10 33 10 24 -6 24 -6 10 -20 11 -20 -17 -18
-17 -18 -33 5 -32 5 -6 -9 -6 -9 -20 -101 -21 -101 0 -9 0 -8 93 1 92 2 13 1
13 1 -11 21 -12 20 7 39 7 39 20 27 21 26 34 -5 35 -6 14 -12 14 -11 -6 -38
-6 -39 43 -11 44 -12 48 -15 49 -15 10 10 11 11 27 93 27 93 27 -2 27 -2 20
17 19 16 0 17 0 16 -21 19 -21 19 -59 0 -58 -1 -7 39 -6 39 7 53 6 52 -16 17
-16 16 -57 15 -57 16 -24 10 -23 10 6 33 6 34 -16 6 -16 6 -37 0 -38 0 -22
-24z"/>
</g>
</svg>
