<?xml version="1.0" standalone="no"?>
<!DOCTYPE svg PUBLIC "-//W3C//DTD SVG 20010904//EN"
 "http://www.w3.org/TR/2001/REC-SVG-20010904/DTD/svg10.dtd">
<svg version="1.0" xmlns="http://www.w3.org/2000/svg"
 width="83.000000pt" height="69.000000pt" viewBox="0 0 83.000000 69.000000"
 preserveAspectRatio="xMidYMid meet">
<metadata>
Created by potrace 1.16, written by Peter Selinger 2001-2019
</metadata>
<g transform="translate(0.000000,69.000000) scale(0.100000,-0.100000)"
fill="#000000" stroke="none">
<path d="M141 593 l4 -97 -56 3 -57 2 -16 -23 -16 -22 0 -26 0 -26 16 -23 16
-23 57 4 56 3 0 -100 0 -100 78 1 77 1 0 -66 0 -66 9 -14 9 -14 55 -5 54 -4
26 17 26 17 7 35 6 34 -9 49 -10 49 11 4 11 4 50 -13 50 -14 26 -6 27 -6 6 18
6 19 -15 49 -15 49 0 26 0 26 84 -3 84 -4 16 23 16 23 0 43 0 42 -12 27 -12
26 -63 -5 -63 -6 -5 22 -5 22 -2 60 -3 60 -264 3 -263 2 3 -97z"/>
</g>
</svg>
