<?xml version="1.0" standalone="no"?>
<!DOCTYPE svg PUBLIC "-//W3C//DTD SVG 20010904//EN"
 "http://www.w3.org/TR/2001/REC-SVG-20010904/DTD/svg10.dtd">
<svg version="1.0" xmlns="http://www.w3.org/2000/svg"
 width="81.000000pt" height="67.000000pt" viewBox="0 0 81.000000 67.000000"
 preserveAspectRatio="xMidYMid meet">
<metadata>
Created by potrace 1.16, written by Peter Selinger 2001-2019
</metadata>
<g transform="translate(0.000000,67.000000) scale(0.100000,-0.100000)"
fill="#000000" stroke="none">
<path d="M142 573 l3 -98 -56 3 -57 4 -16 -23 -16 -23 0 -17 0 -17 19 -23 19
-24 43 12 44 11 13 -11 14 -11 -3 -96 -4 -95 80 3 81 2 -4 -67 -3 -68 10 -14
9 -14 48 -4 49 -4 25 20 24 19 1 44 0 43 -8 37 -8 36 19 6 18 6 54 -14 55 -15
19 -7 19 -7 -7 11 -7 12 9 0 10 0 -14 47 -14 46 0 37 0 38 84 -5 83 -6 17 24
16 23 0 33 0 32 -12 26 -12 27 -63 -7 -62 -7 -6 24 -5 23 -2 60 -3 60 -253 3
-254 2 4 -97z"/>
</g>
</svg>
