<?xml version="1.0" standalone="no"?>
<!DOCTYPE svg PUBLIC "-//W3C//DTD SVG 20010904//EN"
 "http://www.w3.org/TR/2001/REC-SVG-20010904/DTD/svg10.dtd">
<svg version="1.0" xmlns="http://www.w3.org/2000/svg"
 width="72.000000pt" height="81.000000pt" viewBox="0 0 72.000000 81.000000"
 preserveAspectRatio="xMidYMid meet">
<metadata>
Created by potrace 1.16, written by Peter Selinger 2001-2019
</metadata>
<g transform="translate(0.000000,81.000000) scale(0.100000,-0.100000)"
fill="#000000" stroke="none">
<path d="M388 799 l-18 -10 0 -20 0 -20 11 -20 10 -20 -11 -14 -12 -14 -96 -3
-97 -3 -3 -77 -3 -77 -65 6 -64 6 -20 -18 -20 -18 0 -52 0 -52 21 -19 21 -19
69 0 68 -1 7 -6 6 -7 -11 -79 -12 -79 6 -15 6 -16 84 6 84 5 -2 -56 -1 -56 24
-26 23 -25 42 0 42 0 27 25 26 24 0 62 0 61 96 -7 97 -7 -7 23 -7 24 -9 77 -9
78 -6 11 -7 11 -51 -4 -51 -3 -14 28 -14 28 6 23 5 22 57 0 56 -1 19 24 19 23
0 77 0 77 -34 17 -35 16 -63 16 -63 17 -12 10 -13 10 0 24 0 24 -42 0 -43 -1
-17 -10z"/>
</g>
</svg>
