<?xml version="1.0" standalone="no"?>
<!DOCTYPE svg PUBLIC "-//W3C//DTD SVG 20010904//EN"
 "http://www.w3.org/TR/2001/REC-SVG-20010904/DTD/svg10.dtd">
<svg version="1.0" xmlns="http://www.w3.org/2000/svg"
 width="70.000000pt" height="79.000000pt" viewBox="0 0 70.000000 79.000000"
 preserveAspectRatio="xMidYMid meet">
<metadata>
Created by potrace 1.16, written by Peter Selinger 2001-2019
</metadata>
<g transform="translate(0.000000,79.000000) scale(0.100000,-0.100000)"
fill="#000000" stroke="none">
<path d="M386 777 l-19 -14 14 -36 13 -36 -13 -15 -13 -15 -96 -3 -97 -3 -3
-78 -3 -78 -65 6 -65 7 -19 -17 -20 -18 0 -42 0 -42 19 -17 19 -17 35 -6 36
-5 30 10 30 11 12 -15 12 -15 -10 -81 -11 -81 4 -11 4 -11 88 0 87 0 -3 -20
-2 -20 -1 -33 -1 -34 23 -24 22 -24 32 0 32 0 27 25 28 26 -4 57 -3 57 97 -2
97 -2 -9 25 -10 25 -1 47 -1 47 -7 25 -7 25 -54 0 -54 0 -13 25 -14 25 5 38 4
39 5 4 4 5 28 -11 28 -11 29 6 28 7 15 21 15 21 0 66 0 66 -34 17 -35 16 -63
16 -63 17 -12 10 -13 10 0 24 0 24 -33 0 -33 0 -18 -13z"/>
</g>
</svg>
