<?xml version="1.0" standalone="no"?>
<!DOCTYPE svg PUBLIC "-//W3C//DTD SVG 20010904//EN"
 "http://www.w3.org/TR/2001/REC-SVG-20010904/DTD/svg10.dtd">
<svg version="1.0" xmlns="http://www.w3.org/2000/svg"
 width="74.000000pt" height="66.000000pt" viewBox="0 0 74.000000 66.000000"
 preserveAspectRatio="xMidYMid meet">
<metadata>
Created by potrace 1.16, written by Peter Selinger 2001-2019
</metadata>
<g transform="translate(0.000000,66.000000) scale(0.100000,-0.100000)"
fill="#000000" stroke="none">
<path d="M378 649 l-18 -10 0 -20 0 -20 11 -21 11 -20 -12 -12 -11 -11 -97 -5
-97 -5 -5 -90 -5 -90 -8 -13 -8 -12 -19 10 -19 10 -31 0 -31 0 -20 -10 -19
-11 0 -39 0 -40 25 -16 24 -16 78 3 78 3 -3 -37 -3 -37 -14 -41 -15 -42 0 -28
0 -29 108 0 107 0 12 8 13 8 -3 53 -2 53 18 12 17 11 17 -11 18 -11 -3 -35 -3
-35 14 -11 15 -12 86 -11 87 -11 14 5 13 6 22 65 21 65 -3 43 -3 43 -73 -4
-73 -3 -21 21 -20 22 6 15 5 14 25 10 24 9 31 -12 31 -11 12 12 12 12 3 63 4
62 -8 45 -8 45 -60 13 -60 13 -37 10 -37 10 5 28 6 29 -20 11 -21 11 -33 0
-33 -1 -17 -10z"/>
</g>
</svg>
