<?xml version="1.0" standalone="no"?>
<!DOCTYPE svg PUBLIC "-//W3C//DTD SVG 20010904//EN"
 "http://www.w3.org/TR/2001/REC-SVG-20010904/DTD/svg10.dtd">
<svg version="1.0" xmlns="http://www.w3.org/2000/svg"
 width="70.000000pt" height="58.000000pt" viewBox="0 0 70.000000 58.000000"
 preserveAspectRatio="xMidYMid meet">
<metadata>
Created by potrace 1.16, written by Peter Selinger 2001-2019
</metadata>
<g transform="translate(0.000000,58.000000) scale(0.100000,-0.100000)"
fill="#000000" stroke="none">
<path d="M434 565 l-6 -15 10 -28 10 -29 -5 -27 -5 -26 -25 -20 -24 -19 -17 6
-17 6 -11 14 -11 13 9 46 10 45 -7 7 -7 7 -110 -2 -111 -2 -3 -4 -4 -4 9 -50
10 -51 -6 -36 -6 -36 -39 6 -39 7 -19 -18 -20 -18 0 -52 0 -53 15 -12 15 -12
24 6 25 6 5 -8 5 -9 12 -92 13 -92 20 -4 21 -4 80 -5 80 -6 14 9 14 9 -11 29
-10 30 10 19 10 19 16 13 16 12 33 0 33 0 0 -19 0 -19 13 -10 12 -10 60 -17
59 -17 20 -14 20 -14 16 0 15 0 20 68 19 67 0 45 1 45 -78 -3 -78 -4 -24 16
-25 16 0 20 0 20 25 12 25 11 25 -11 26 -12 19 0 19 0 12 22 12 23 -1 88 -2
88 -5 9 -6 9 -51 16 -52 15 -48 0 -49 0 -5 -15z"/>
</g>
</svg>
