<?xml version="1.0" standalone="no"?>
<!DOCTYPE svg PUBLIC "-//W3C//DTD SVG 20010904//EN"
 "http://www.w3.org/TR/2001/REC-SVG-20010904/DTD/svg10.dtd">
<svg version="1.0" xmlns="http://www.w3.org/2000/svg"
 width="68.000000pt" height="56.000000pt" viewBox="0 0 68.000000 56.000000"
 preserveAspectRatio="xMidYMid meet">
<metadata>
Created by potrace 1.16, written by Peter Selinger 2001-2019
</metadata>
<g transform="translate(0.000000,56.000000) scale(0.100000,-0.100000)"
fill="#000000" stroke="none">
<path d="M436 551 l-6 -9 10 -27 10 -27 -6 -34 -6 -34 -26 -21 -26 -20 -26 6
-25 6 -13 17 -13 17 6 30 6 30 5 16 5 17 -27 6 -26 7 -82 -7 -83 -7 9 -46 9
-46 -7 -40 -6 -40 -4 -7 -4 -6 -35 11 -35 10 -20 -18 -20 -18 0 -42 0 -43 14
-11 15 -12 19 10 20 11 10 -13 10 -12 13 -85 13 -85 -2 -7 -2 -8 23 -4 22 -5
70 -4 70 -5 12 5 12 4 -10 27 -10 26 12 28 12 29 18 9 18 10 44 0 45 0 -5 -18
-4 -18 13 -11 13 -11 59 -16 59 -17 24 -16 24 -16 3 4 2 4 18 61 19 62 1 38 1
39 -78 -4 -77 -3 -26 17 -25 16 3 32 3 32 28 9 27 10 36 -13 36 -13 10 10 10
10 7 39 6 38 -5 60 -5 60 -50 17 -50 17 -42 1 -42 0 -5 -9z"/>
</g>
</svg>
