<?xml version="1.0" standalone="no"?>
<!DOCTYPE svg PUBLIC "-//W3C//DTD SVG 20010904//EN"
 "http://www.w3.org/TR/2001/REC-SVG-20010904/DTD/svg10.dtd">
<svg version="1.0" xmlns="http://www.w3.org/2000/svg"
 width="54.000000pt" height="55.000000pt" viewBox="0 0 54.000000 55.000000"
 preserveAspectRatio="xMidYMid meet">
<metadata>
Created by potrace 1.16, written by Peter Selinger 2001-2019
</metadata>
<g transform="translate(0.000000,55.000000) scale(0.100000,-0.100000)"
fill="#000000" stroke="none">
<path d="M349 543 l-1 -8 -2 -52 -1 -51 -24 -26 -24 -26 -52 0 -52 0 -17 19
-18 20 12 36 12 36 -12 14 -12 15 -73 0 -73 0 -7 -60 -7 -59 7 -38 6 -39 58 1
59 0 21 -19 21 -19 0 -16 0 -17 -19 -16 -20 -17 -27 2 -27 2 -27 -93 -27 -93
-12 -12 -11 -11 0 -6 0 -5 95 6 95 6 21 19 21 19 -4 42 -3 43 28 0 28 0 20
-11 20 -10 -6 -43 -7 -44 11 -6 11 -7 91 -3 90 -2 11 19 10 19 5 72 6 71 -15
13 -15 12 -30 -12 -31 -12 -26 18 -27 17 -10 22 -10 23 10 27 11 27 18 -11 19
-12 27 7 27 7 15 34 14 34 0 59 0 60 -12 9 -13 10 -47 12 -47 11 -25 0 -26 0
-1 -7z"/>
</g>
</svg>
