<?xml version="1.0" standalone="no"?>
<!DOCTYPE svg PUBLIC "-//W3C//DTD SVG 20010904//EN"
 "http://www.w3.org/TR/2001/REC-SVG-20010904/DTD/svg10.dtd">
<svg version="1.0" xmlns="http://www.w3.org/2000/svg"
 width="68.000000pt" height="70.000000pt" viewBox="0 0 68.000000 70.000000"
 preserveAspectRatio="xMidYMid meet">
<metadata>
Created by potrace 1.16, written by Peter Selinger 2001-2019
</metadata>
<g transform="translate(0.000000,70.000000) scale(0.100000,-0.100000)"
fill="#000000" stroke="none">
<path d="M496 692 l-5 -9 8 -29 7 -29 -7 -38 -7 -38 -22 -25 -23 -24 -23 0
-23 0 -21 22 -20 22 0 16 0 17 11 32 11 31 -12 15 -12 15 -94 0 -94 0 0 -78 0
-78 -12 -17 -13 -16 -42 10 -43 11 -24 -15 -23 -16 -6 -28 -5 -28 11 -25 12
-25 27 -13 26 -12 27 10 27 10 14 -11 14 -11 0 -83 0 -82 88 -5 88 -5 23 -12
22 -12 -6 -53 -7 -53 17 -16 16 -17 35 0 35 0 25 27 26 28 -5 37 -5 38 10 6
10 6 65 8 65 8 5 5 5 5 -10 82 -10 82 -9 9 -9 9 -31 -12 -32 -12 -20 18 -21
19 -5 31 -6 31 10 27 10 26 21 7 21 7 31 -13 31 -13 18 23 19 23 0 78 0 78
-47 16 -47 16 -42 0 -43 0 -5 -8z"/>
</g>
</svg>
