<?xml version="1.0" standalone="no"?>
<!DOCTYPE svg PUBLIC "-//W3C//DTD SVG 20010904//EN"
 "http://www.w3.org/TR/2001/REC-SVG-20010904/DTD/svg10.dtd">
<svg version="1.0" xmlns="http://www.w3.org/2000/svg"
 width="71.000000pt" height="69.000000pt" viewBox="0 0 71.000000 69.000000"
 preserveAspectRatio="xMidYMid meet">
<metadata>
Created by potrace 1.16, written by Peter Selinger 2001-2019
</metadata>
<g transform="translate(0.000000,69.000000) scale(0.100000,-0.100000)"
fill="#000000" stroke="none">
<path d="M366 677 l-20 -14 13 -31 13 -30 -17 -26 -17 -26 -26 -7 -26 -6 -25
15 -26 14 3 43 4 44 -14 8 -13 9 -81 0 -81 0 -6 -67 -7 -68 0 -28 0 -27 53 6
52 6 23 -21 22 -22 0 -33 0 -33 -21 -24 -21 -24 -71 0 -72 0 -3 -23 -4 -23 23
-74 23 -73 91 5 90 6 -3 -44 -4 -44 24 -26 23 -26 19 -7 19 -7 34 12 33 11 6
24 6 24 -6 24 -6 24 28 6 27 6 77 3 78 2 0 98 0 97 45 0 45 0 20 20 20 20 0
50 0 50 -21 21 -20 20 -42 -3 -42 -3 -3 81 -3 82 -31 6 -31 6 -66 6 -66 6 -19
-15z"/>
</g>
</svg>
