<?xml version="1.0" standalone="no"?>
<!DOCTYPE svg PUBLIC "-//W3C//DTD SVG 20010904//EN"
 "http://www.w3.org/TR/2001/REC-SVG-20010904/DTD/svg10.dtd">
<svg version="1.0" xmlns="http://www.w3.org/2000/svg"
 width="67.000000pt" height="80.000000pt" viewBox="0 0 67.000000 80.000000"
 preserveAspectRatio="xMidYMid meet">
<metadata>
Created by potrace 1.16, written by Peter Selinger 2001-2019
</metadata>
<g transform="translate(0.000000,80.000000) scale(0.100000,-0.100000)"
fill="#000000" stroke="none">
<path d="M353 774 l-25 -26 11 -11 11 -11 0 -28 0 -27 -92 -3 -93 -3 -5 -82
-5 -82 -17 -17 -17 -17 -30 12 -30 13 -21 -7 -21 -7 -10 -26 -10 -27 6 -31 5
-31 21 -19 20 -18 32 12 31 12 9 -9 9 -9 9 -78 10 -78 5 -7 4 -8 58 5 57 5 35
3 35 3 -3 -64 -4 -65 23 -24 22 -24 42 0 42 0 18 21 19 20 -12 31 -12 32 13 8
12 8 20 4 20 5 60 14 60 13 -3 20 -2 19 -11 60 -10 60 -5 18 -6 17 -47 -6 -47
-6 -14 17 -14 17 -3 56 -4 57 10 14 9 15 42 -13 42 -12 24 16 25 16 9 25 10
25 0 51 0 50 -17 -6 -17 -7 -76 -6 -75 -6 -13 16 -13 16 10 20 11 20 0 20 0
21 -20 20 -20 20 -30 0 -31 0 -26 -26z"/>
</g>
</svg>
