<?xml version="1.0" standalone="no"?>
<!DOCTYPE svg PUBLIC "-//W3C//DTD SVG 20010904//EN"
 "http://www.w3.org/TR/2001/REC-SVG-20010904/DTD/svg10.dtd">
<svg version="1.0" xmlns="http://www.w3.org/2000/svg"
 width="67.000000pt" height="66.000000pt" viewBox="0 0 67.000000 66.000000"
 preserveAspectRatio="xMidYMid meet">
<metadata>
Created by potrace 1.16, written by Peter Selinger 2001-2019
</metadata>
<g transform="translate(0.000000,66.000000) scale(0.100000,-0.100000)"
fill="#000000" stroke="none">
<path d="M395 652 l-20 -4 -19 -17 -18 -16 5 -49 4 -49 -96 7 -96 7 3 -76 4
-75 -6 -24 -6 -25 -55 6 -55 6 -20 -18 -20 -18 0 -19 0 -19 11 -21 11 -20 29
6 30 6 9 -23 9 -22 21 -80 21 -80 7 -11 7 -10 97 7 97 6 16 13 15 13 -2 51 -3
51 28 3 28 3 15 -12 15 -13 -3 -65 -3 -66 55 -3 55 -3 45 11 45 11 7 12 8 12
0 86 0 85 -13 19 -14 18 -7 -11 -7 -12 -27 0 -28 0 -22 16 -22 15 0 33 0 34
15 12 15 12 30 -12 30 -12 15 12 15 12 10 37 10 36 0 53 0 52 -91 0 -90 0 -20
10 -19 11 0 19 0 19 10 6 10 6 -10 19 -10 20 -18 8 -17 9 -20 -5z"/>
</g>
</svg>
