<?xml version="1.0" standalone="no"?>
<!DOCTYPE svg PUBLIC "-//W3C//DTD SVG 20010904//EN"
 "http://www.w3.org/TR/2001/REC-SVG-20010904/DTD/svg10.dtd">
<svg version="1.0" xmlns="http://www.w3.org/2000/svg"
 width="71.000000pt" height="67.000000pt" viewBox="0 0 71.000000 67.000000"
 preserveAspectRatio="xMidYMid meet">
<metadata>
Created by potrace 1.16, written by Peter Selinger 2001-2019
</metadata>
<g transform="translate(0.000000,67.000000) scale(0.100000,-0.100000)"
fill="#000000" stroke="none">
<path d="M3 582 l-3 -88 14 -19 14 -19 26 13 26 14 25 -11 25 -12 10 -26 10
-25 0 -10 0 -10 -26 -24 -26 -24 -18 11 -17 11 -16 -6 -15 -6 -6 -38 -5 -38
-6 -68 -7 -67 74 0 73 0 13 -9 13 -8 -7 -50 -6 -51 20 -11 21 -11 46 0 46 0
29 15 30 15 6 24 5 23 -3 18 -3 19 25 7 25 7 51 1 51 1 16 18 17 18 6 50 6 49
10 32 9 32 25 -9 25 -10 25 6 25 6 14 29 15 28 0 31 0 30 -20 20 -20 20 -11 0
-10 0 -21 -11 -20 -11 -23 6 -23 6 -8 17 -8 18 -5 80 -6 80 -265 3 -265 2 -2
-88z"/>
</g>
</svg>
