<?xml version="1.0" standalone="no"?>
<!DOCTYPE svg PUBLIC "-//W3C//DTD SVG 20010904//EN"
 "http://www.w3.org/TR/2001/REC-SVG-20010904/DTD/svg10.dtd">
<svg version="1.0" xmlns="http://www.w3.org/2000/svg"
 width="70.000000pt" height="54.000000pt" viewBox="0 0 70.000000 54.000000"
 preserveAspectRatio="xMidYMid meet">
<metadata>
Created by potrace 1.16, written by Peter Selinger 2001-2019
</metadata>
<g transform="translate(0.000000,54.000000) scale(0.100000,-0.100000)"
fill="#000000" stroke="none">
<path d="M125 528 l-4 -13 -3 -83 -3 -84 -24 -19 -24 -20 -16 7 -16 6 -18 5
-17 5 0 -49 0 -49 16 -22 16 -23 21 2 22 1 11 -1 12 -1 6 -24 6 -25 1 -68 1
-68 122 0 121 0 -1 20 -1 20 -7 35 -7 36 18 23 18 22 17 -6 16 -6 -5 -39 -5
-38 18 -10 19 -9 70 -13 70 -13 24 -9 24 -9 18 6 18 6 15 47 16 47 5 45 6 45
-16 20 -15 19 -40 -11 -39 -10 -31 18 -30 19 0 30 0 30 39 -6 39 -6 21 21 21
21 0 95 0 95 -260 0 -261 0 -4 -12z"/>
</g>
</svg>
