<?xml version="1.0" standalone="no"?>
<!DOCTYPE svg PUBLIC "-//W3C//DTD SVG 20010904//EN"
 "http://www.w3.org/TR/2001/REC-SVG-20010904/DTD/svg10.dtd">
<svg version="1.0" xmlns="http://www.w3.org/2000/svg"
 width="68.000000pt" height="52.000000pt" viewBox="0 0 68.000000 52.000000"
 preserveAspectRatio="xMidYMid meet">
<metadata>
Created by potrace 1.16, written by Peter Selinger 2001-2019
</metadata>
<g transform="translate(0.000000,52.000000) scale(0.100000,-0.100000)"
fill="#000000" stroke="none">
<path d="M127 513 l-7 -6 0 -73 0 -73 -10 -25 -10 -26 -25 -12 -25 -11 -25 11
-25 12 0 -38 0 -38 16 -22 15 -22 22 5 22 5 14 -9 13 -9 8 -78 8 -78 -4 -11
-4 -10 112 0 113 0 -3 13 -3 14 -5 42 -6 41 19 24 20 24 27 -7 28 -7 -7 -39
-7 -40 24 -9 23 -10 76 -15 76 -15 9 -2 9 -1 12 1 11 1 16 48 15 47 6 35 5 35
-14 18 -15 19 -35 -12 -36 -12 -33 19 -32 19 -3 48 -3 49 16 -7 17 -6 23 -6
23 -6 21 21 21 21 0 85 0 85 -248 0 -249 0 -6 -7z"/>
</g>
</svg>
