<?xml version="1.0" standalone="no"?>
<!DOCTYPE svg PUBLIC "-//W3C//DTD SVG 20010904//EN"
 "http://www.w3.org/TR/2001/REC-SVG-20010904/DTD/svg10.dtd">
<svg version="1.0" xmlns="http://www.w3.org/2000/svg"
 width="69.000000pt" height="71.000000pt" viewBox="0 0 69.000000 71.000000"
 preserveAspectRatio="xMidYMid meet">
<metadata>
Created by potrace 1.16, written by Peter Selinger 2001-2019
</metadata>
<g transform="translate(0.000000,71.000000) scale(0.100000,-0.100000)"
fill="#000000" stroke="none">
<path d="M211 697 l-23 -11 6 -51 5 -50 -9 -15 -9 -15 -83 1 -83 1 -7 -11 -8
-11 0 -76 0 -75 14 -19 13 -18 49 12 48 12 13 -17 13 -18 0 -27 0 -27 -14 -11
-13 -11 -46 6 -46 7 -9 -24 -9 -24 -5 -97 -5 -98 92 0 92 0 18 20 18 20 -6 50
-6 50 38 0 38 0 24 -26 24 -26 0 -56 0 -57 35 -3 35 -4 68 12 67 12 0 22 0 22
-20 42 -20 41 0 24 0 24 71 -1 71 -1 24 28 24 28 0 48 0 49 -15 12 -15 12 -60
-4 -60 -4 0 94 0 95 -42 -9 -43 -8 -45 0 -45 -1 3 54 4 53 -6 22 -6 23 -25 11
-26 12 -37 -1 -37 0 -24 -12z"/>
</g>
</svg>
