<?xml version="1.0" standalone="no"?>
<!DOCTYPE svg PUBLIC "-//W3C//DTD SVG 20010904//EN"
 "http://www.w3.org/TR/2001/REC-SVG-20010904/DTD/svg10.dtd">
<svg version="1.0" xmlns="http://www.w3.org/2000/svg"
 width="53.000000pt" height="80.000000pt" viewBox="0 0 53.000000 80.000000"
 preserveAspectRatio="xMidYMid meet">
<metadata>
Created by potrace 1.16, written by Peter Selinger 2001-2019
</metadata>
<g transform="translate(0.000000,80.000000) scale(0.100000,-0.100000)"
fill="#000000" stroke="none">
<path d="M225 786 l-20 -14 12 -44 12 -43 -20 -20 -20 -20 -87 -2 -87 -2 -7
-33 -8 -33 6 -58 6 -58 15 -14 14 -15 25 0 25 0 19 10 20 10 20 -20 20 -20 0
-15 0 -14 -12 -25 -11 -26 -19 -6 -19 -6 -41 7 -40 7 -9 -13 -9 -14 0 -85 0
-85 72 3 73 3 28 -10 28 -11 6 -16 6 -17 -11 -30 -12 -30 11 -14 11 -13 53 0
53 0 11 14 12 14 -6 25 -7 25 19 10 18 9 78 17 77 17 0 83 0 82 -14 19 -14 19
-28 -13 -29 -13 -22 27 -23 26 0 40 0 39 21 21 21 21 16 -8 17 -7 25 -1 25 -1
3 93 3 92 -68 -6 -68 -6 -29 11 -28 11 6 36 7 35 -6 20 -6 19 -29 15 -29 15
-19 0 -18 0 -19 -14z"/>
</g>
</svg>
