<?xml version="1.0" standalone="no"?>
<!DOCTYPE svg PUBLIC "-//W3C//DTD SVG 20010904//EN"
 "http://www.w3.org/TR/2001/REC-SVG-20010904/DTD/svg10.dtd">
<svg version="1.0" xmlns="http://www.w3.org/2000/svg"
 width="58.000000pt" height="81.000000pt" viewBox="0 0 58.000000 81.000000"
 preserveAspectRatio="xMidYMid meet">
<metadata>
Created by potrace 1.16, written by Peter Selinger 2001-2019
</metadata>
<g transform="translate(0.000000,81.000000) scale(0.100000,-0.100000)"
fill="#000000" stroke="none">
<path d="M240 796 l-11 -15 2 -63 2 -63 -110 2 -110 2 -7 -52 -6 -52 0 -41 0
-42 14 -11 15 -12 45 6 46 7 25 -16 25 -16 0 -28 0 -28 -11 -11 -11 -11 -37 5
-37 5 -12 -14 -12 -15 -16 -79 -16 -79 -5 -22 -5 -23 63 0 64 0 25 -13 25 -13
-3 -44 -3 -43 13 -9 13 -8 66 0 67 0 12 15 12 15 -5 20 -5 20 41 10 42 10 55
16 56 16 13 51 14 52 5 58 4 59 -66 -7 -66 -7 -30 12 -30 13 -6 23 -6 24 6 25
7 26 23 9 24 9 35 -11 35 -11 16 6 16 6 0 100 0 99 -32 11 -33 10 -57 11 -58
11 -6 10 -6 10 12 14 12 14 -6 19 -6 19 -26 11 -25 12 -28 0 -29 0 -12 -14z"/>
</g>
</svg>
