<?xml version="1.0" standalone="no"?>
<!DOCTYPE svg PUBLIC "-//W3C//DTD SVG 20010904//EN"
 "http://www.w3.org/TR/2001/REC-SVG-20010904/DTD/svg10.dtd">
<svg version="1.0" xmlns="http://www.w3.org/2000/svg"
 width="76.000000pt" height="81.000000pt" viewBox="0 0 76.000000 81.000000"
 preserveAspectRatio="xMidYMid meet">
<metadata>
Created by potrace 1.16, written by Peter Selinger 2001-2019
</metadata>
<g transform="translate(0.000000,81.000000) scale(0.100000,-0.100000)"
fill="#000000" stroke="none">
<path d="M394 793 l-17 -17 6 -64 6 -64 -107 3 -107 4 0 -80 0 -80 -61 3 -62
4 -20 -11 -21 -11 -6 -44 -7 -45 11 -34 12 -34 25 -12 25 -11 71 0 71 0 -6
-39 -5 -40 -16 -32 -16 -32 0 -14 0 -13 89 0 89 0 11 -14 12 -15 -11 -21 -11
-21 6 -20 7 -20 25 -10 24 -9 37 0 38 0 23 16 23 16 -5 24 -4 24 36 9 36 9 56
11 56 12 11 22 12 22 15 44 15 44 0 37 0 38 -6 16 -6 16 -27 0 -26 0 -14 -9
-13 -9 -37 10 -36 10 -18 16 -18 16 3 30 3 31 54 5 54 5 19 25 19 26 6 70 6
71 -89 6 -89 6 -16 6 -16 6 4 43 5 43 -23 22 -23 21 -32 0 -33 0 -17 -17z"/>
</g>
</svg>
