<?xml version="1.0" standalone="no"?>
<!DOCTYPE svg PUBLIC "-//W3C//DTD SVG 20010904//EN"
 "http://www.w3.org/TR/2001/REC-SVG-20010904/DTD/svg10.dtd">
<svg version="1.0" xmlns="http://www.w3.org/2000/svg"
 width="74.000000pt" height="79.000000pt" viewBox="0 0 74.000000 79.000000"
 preserveAspectRatio="xMidYMid meet">
<metadata>
Created by potrace 1.16, written by Peter Selinger 2001-2019
</metadata>
<g transform="translate(0.000000,79.000000) scale(0.100000,-0.100000)"
fill="#000000" stroke="none">
<path d="M395 773 l-17 -17 5 -46 6 -46 3 -14 3 -15 -110 -1 -110 -1 3 -63 4
-62 -6 -22 -6 -23 -50 11 -50 10 -27 -10 -27 -9 -9 -35 -9 -35 11 -36 11 -37
29 -12 30 -12 63 4 63 3 0 -50 -1 -50 -17 -34 -17 -34 0 -4 0 -3 89 0 89 0 13
-16 13 -16 -11 -28 -11 -29 12 -17 12 -16 45 -5 44 -5 25 21 25 21 -15 9 -15
10 12 12 12 12 88 18 87 19 11 18 10 17 17 45 16 45 1 35 1 35 -10 15 -9 14
-33 -12 -33 -12 -40 11 -40 11 -17 16 -18 15 0 38 0 38 12 7 11 7 45 1 45 1
18 25 19 25 6 61 7 61 -89 6 -89 6 -18 7 -18 6 7 43 6 42 -23 22 -23 21 -22 0
-23 0 -16 -17z"/>
</g>
</svg>
