<?xml version="1.0" standalone="no"?>
<!DOCTYPE svg PUBLIC "-//W3C//DTD SVG 20010904//EN"
 "http://www.w3.org/TR/2001/REC-SVG-20010904/DTD/svg10.dtd">
<svg version="1.0" xmlns="http://www.w3.org/2000/svg"
 width="68.000000pt" height="79.000000pt" viewBox="0 0 68.000000 79.000000"
 preserveAspectRatio="xMidYMid meet">
<metadata>
Created by potrace 1.16, written by Peter Selinger 2001-2019
</metadata>
<g transform="translate(0.000000,79.000000) scale(0.100000,-0.100000)"
fill="#000000" stroke="none">
<path d="M354 751 l6 -39 -6 -17 -6 -16 -31 -16 -32 -16 -75 -1 -75 -2 -2 -54
-3 -55 -5 -33 -6 -32 -23 -15 -24 -16 -26 13 -27 12 -10 -15 -9 -14 0 -37 0
-38 21 -21 21 -21 46 6 45 6 -5 -106 -5 -105 66 1 66 2 22 -1 21 -1 -5 -40 -6
-40 18 -20 18 -20 51 0 51 0 11 8 11 7 12 23 12 23 -2 52 -3 52 37 -3 37 -3
41 -14 42 -15 24 0 24 0 -7 88 -7 87 -10 14 -11 13 -42 -6 -42 -5 -11 30 -10
30 6 17 6 17 21 23 20 23 43 -7 43 -6 6 16 6 16 -7 85 -7 85 -82 0 -83 0 -30
11 -31 10 11 30 12 30 -15 27 -16 27 -43 3 -44 3 7 -40z"/>
</g>
</svg>
