<?xml version="1.0" standalone="no"?>
<!DOCTYPE svg PUBLIC "-//W3C//DTD SVG 20010904//EN"
 "http://www.w3.org/TR/2001/REC-SVG-20010904/DTD/svg10.dtd">
<svg version="1.0" xmlns="http://www.w3.org/2000/svg"
 width="57.000000pt" height="70.000000pt" viewBox="0 0 57.000000 70.000000"
 preserveAspectRatio="xMidYMid meet">
<metadata>
Created by potrace 1.16, written by Peter Selinger 2001-2019
</metadata>
<g transform="translate(0.000000,70.000000) scale(0.100000,-0.100000)"
fill="#000000" stroke="none">
<path d="M243 685 l-21 -15 -6 -28 -6 -27 10 -34 10 -35 -13 -9 -12 -8 -86 6
-86 5 -6 -68 -6 -69 6 -41 6 -42 24 -6 24 -6 30 6 30 6 5 -15 6 -15 -6 -25 -6
-24 -27 -14 -26 -14 -28 10 -27 11 -16 -13 -16 -13 0 -41 0 -41 12 -57 12 -57
102 -7 102 -7 12 7 12 8 -6 37 -6 37 11 32 11 31 19 11 19 10 20 -11 20 -10 9
-19 10 -18 -6 -51 -6 -51 28 -7 27 -7 75 6 75 6 6 5 5 6 -11 91 -11 91 -13 15
-12 15 -43 -6 -43 -6 -10 20 -10 19 0 24 0 25 14 11 14 11 26 -10 27 -10 23 0
23 0 16 18 17 19 0 95 0 96 -42 10 -43 10 -45 7 -45 7 -17 9 -16 9 5 38 5 39
-23 17 -23 16 -31 0 -31 0 -21 -15z"/>
</g>
</svg>
