<?xml version="1.0" standalone="no"?>
<!DOCTYPE svg PUBLIC "-//W3C//DTD SVG 20010904//EN"
 "http://www.w3.org/TR/2001/REC-SVG-20010904/DTD/svg10.dtd">
<svg version="1.0" xmlns="http://www.w3.org/2000/svg"
 width="53.000000pt" height="84.000000pt" viewBox="0 0 53.000000 84.000000"
 preserveAspectRatio="xMidYMid meet">
<metadata>
Created by potrace 1.16, written by Peter Selinger 2001-2019
</metadata>
<g transform="translate(0.000000,84.000000) scale(0.100000,-0.100000)"
fill="#000000" stroke="none">
<path d="M206 827 l-19 -14 12 -36 12 -37 -6 -20 -6 -20 -22 -12 -22 -12 -70
-1 -70 -1 -6 -60 -7 -59 -1 -48 -1 -47 40 6 40 7 29 -13 30 -12 4 -11 4 -12
-8 -23 -9 -23 -33 6 -33 7 -12 -15 -12 -14 -11 -79 -11 -78 -10 -20 -10 -19
92 5 92 6 19 -5 18 -5 -5 -62 -6 -61 21 -22 22 -23 15 0 15 0 23 15 24 16 12
28 12 29 -4 33 -3 33 25 7 25 7 64 1 63 1 -6 18 -5 17 -27 78 -26 78 -30 -3
-29 -3 -9 15 -10 15 0 32 0 32 16 16 16 16 43 -7 43 -6 16 23 16 23 0 79 0 78
-102 -6 -103 -6 -14 10 -15 10 11 36 11 36 -8 30 -9 31 -12 14 -11 14 -27 0
-27 0 -18 -13z"/>
</g>
</svg>
