<?xml version="1.0" standalone="no"?>
<!DOCTYPE svg PUBLIC "-//W3C//DTD SVG 20010904//EN"
 "http://www.w3.org/TR/2001/REC-SVG-20010904/DTD/svg10.dtd">
<svg version="1.0" xmlns="http://www.w3.org/2000/svg"
 width="65.000000pt" height="70.000000pt" viewBox="0 0 65.000000 70.000000"
 preserveAspectRatio="xMidYMid meet">
<metadata>
Created by potrace 1.16, written by Peter Selinger 2001-2019
</metadata>
<g transform="translate(0.000000,70.000000) scale(0.100000,-0.100000)"
fill="#000000" stroke="none">
<path d="M234 692 l-11 -7 1 -54 1 -53 -27 -21 -28 -21 -79 0 -78 0 -7 -72 -6
-73 6 -30 6 -29 62 1 61 2 3 -38 3 -38 -13 -16 -12 -15 -53 6 -53 6 -6 -26 -7
-26 6 -69 6 -69 6 -10 6 -10 65 0 65 0 21 11 21 11 -7 53 -6 54 16 15 15 16
25 6 25 6 19 -17 20 -18 6 -35 7 -35 -13 -35 -13 -35 19 -14 19 -14 50 6 50 6
51 11 51 11 24 96 24 96 32 -2 32 -3 7 35 6 35 -6 24 -6 24 -24 16 -25 16 -26
-12 -26 -12 -10 15 -9 14 -1 30 -1 30 2 46 1 45 -13 11 -13 11 -79 16 -78 16
-3 0 -3 0 -6 15 -5 15 10 27 10 28 -21 17 -22 18 -27 0 -26 0 -11 -8z"/>
</g>
</svg>
