<?xml version="1.0" standalone="no"?>
<!DOCTYPE svg PUBLIC "-//W3C//DTD SVG 20010904//EN"
 "http://www.w3.org/TR/2001/REC-SVG-20010904/DTD/svg10.dtd">
<svg version="1.0" xmlns="http://www.w3.org/2000/svg"
 width="57.000000pt" height="80.000000pt" viewBox="0 0 57.000000 80.000000"
 preserveAspectRatio="xMidYMid meet">
<metadata>
Created by potrace 1.16, written by Peter Selinger 2001-2019
</metadata>
<g transform="translate(0.000000,80.000000) scale(0.100000,-0.100000)"
fill="#000000" stroke="none">
<path d="M195 786 l-20 -14 12 -34 12 -33 -5 -23 -6 -22 -27 -8 -26 -7 -62 2
-61 1 -6 -21 -6 -22 0 -53 0 -53 11 -20 10 -20 69 7 68 6 11 -20 11 -21 0 -29
0 -29 -21 -19 -21 -19 -36 3 -37 3 -30 2 -30 2 -3 -116 -3 -116 79 5 80 4 22
-22 22 -22 -8 -16 -7 -17 -4 -22 -5 -23 66 0 66 0 16 25 17 25 -6 35 -6 35
108 0 107 0 11 82 11 83 -5 34 -6 33 -63 -6 -63 -6 -11 21 -12 21 6 23 6 24
51 -6 51 -6 9 14 9 14 0 98 0 97 -22 0 -23 0 -57 -9 -56 -10 -21 6 -20 5 6 62
6 63 -28 21 -28 22 -41 0 -42 0 -19 -14z"/>
</g>
</svg>
