<?xml version="1.0" standalone="no"?>
<!DOCTYPE svg PUBLIC "-//W3C//DTD SVG 20010904//EN"
 "http://www.w3.org/TR/2001/REC-SVG-20010904/DTD/svg10.dtd">
<svg version="1.0" xmlns="http://www.w3.org/2000/svg"
 width="60.000000pt" height="85.000000pt" viewBox="0 0 60.000000 85.000000"
 preserveAspectRatio="xMidYMid meet">
<metadata>
Created by potrace 1.16, written by Peter Selinger 2001-2019
</metadata>
<g transform="translate(0.000000,85.000000) scale(0.100000,-0.100000)"
fill="#000000" stroke="none">
<path d="M236 839 l-18 -11 6 -58 7 -57 -17 -14 -17 -14 -86 -5 -86 -5 -3 -84
-3 -83 17 -25 16 -25 55 4 54 5 10 -18 9 -18 0 -5 0 -5 -22 -21 -22 -21 -58 7
-58 7 -9 -26 -10 -26 6 -88 6 -88 11 -7 11 -8 96 7 96 6 5 -61 4 -61 19 -21
18 -20 20 0 21 0 33 12 33 12 6 31 5 31 -3 14 -3 13 35 8 35 7 56 11 55 12 17
72 17 72 0 40 0 40 -9 14 -9 15 -59 -11 -58 -11 -32 14 -33 13 0 14 0 14 18
16 17 16 15 -9 15 -10 31 0 31 0 19 21 19 21 -1 84 0 84 -11 11 -10 10 -50
-11 -51 -11 -39 3 -38 3 3 56 4 57 -16 30 -15 30 -16 6 -17 6 -26 0 -27 -1
-19 -10z"/>
</g>
</svg>
