<?xml version="1.0" standalone="no"?>
<!DOCTYPE svg PUBLIC "-//W3C//DTD SVG 20010904//EN"
 "http://www.w3.org/TR/2001/REC-SVG-20010904/DTD/svg10.dtd">
<svg version="1.0" xmlns="http://www.w3.org/2000/svg"
 width="58.000000pt" height="83.000000pt" viewBox="0 0 58.000000 83.000000"
 preserveAspectRatio="xMidYMid meet">
<metadata>
Created by potrace 1.16, written by Peter Selinger 2001-2019
</metadata>
<g transform="translate(0.000000,83.000000) scale(0.100000,-0.100000)"
fill="#000000" stroke="none">
<path d="M237 819 l-18 -10 7 -58 6 -57 -17 -14 -18 -15 -86 -5 -86 -5 -3 -74
-3 -73 17 -25 16 -26 54 7 53 6 11 -19 10 -20 0 -15 0 -15 -22 -21 -23 -22
-58 7 -57 6 -10 -25 -9 -25 8 -68 8 -68 -5 -9 -5 -8 13 -8 12 -8 102 5 101 6
0 -61 0 -61 22 -22 22 -23 41 14 40 13 2 16 1 16 1 30 1 29 35 7 35 7 56 11
55 12 17 72 17 72 0 30 0 30 -9 13 -8 14 -56 -12 -55 -11 -36 15 -36 15 0 24
0 24 20 18 20 18 26 -11 25 -12 18 0 18 0 19 21 19 21 -1 67 0 66 -6 17 -7 16
-44 -10 -45 -9 -48 3 -49 3 3 54 3 55 -12 28 -12 29 -18 9 -18 10 -18 0 -18
-1 -18 -10z"/>
</g>
</svg>
