<?xml version="1.0" standalone="no"?>
<!DOCTYPE svg PUBLIC "-//W3C//DTD SVG 20010904//EN"
 "http://www.w3.org/TR/2001/REC-SVG-20010904/DTD/svg10.dtd">
<svg version="1.0" xmlns="http://www.w3.org/2000/svg"
 width="85.000000pt" height="79.000000pt" viewBox="0 0 85.000000 79.000000"
 preserveAspectRatio="xMidYMid meet">
<metadata>
Created by potrace 1.16, written by Peter Selinger 2001-2019
</metadata>
<g transform="translate(0.000000,79.000000) scale(0.100000,-0.100000)"
fill="#000000" stroke="none">
<path d="M375 781 l-19 -8 3 -46 2 -46 -20 -20 -20 -20 -43 -5 -43 -6 -35 -2
-35 -3 -5 -85 -5 -85 -65 0 -64 0 -14 -28 -14 -28 7 -41 7 -40 39 6 38 6 12
-42 11 -43 14 -45 14 -45 9 -14 8 -13 99 -2 99 -1 -3 -20 -3 -20 -6 -29 -6
-29 19 -14 18 -13 32 0 33 0 24 11 25 11 12 24 13 23 -7 39 -6 40 15 6 15 5
51 -9 52 -10 24 0 24 0 -5 8 -5 9 -9 59 -10 59 9 22 8 23 26 -10 26 -10 35 0
36 0 30 30 31 31 -6 39 -5 39 -20 22 -21 21 -54 -6 -55 -7 -8 13 -9 13 2 73 2
74 -15 -6 -16 -6 -81 -6 -82 -6 -20 15 -19 15 11 37 12 37 -9 23 -9 24 -20 10
-20 11 -8 -1 -8 0 -20 -8z"/>
</g>
</svg>
