<?xml version="1.0" standalone="no"?>
<!DOCTYPE svg PUBLIC "-//W3C//DTD SVG 20010904//EN"
 "http://www.w3.org/TR/2001/REC-SVG-20010904/DTD/svg10.dtd">
<svg version="1.0" xmlns="http://www.w3.org/2000/svg"
 width="70.000000pt" height="69.000000pt" viewBox="0 0 70.000000 69.000000"
 preserveAspectRatio="xMidYMid meet">
<metadata>
Created by potrace 1.16, written by Peter Selinger 2001-2019
</metadata>
<g transform="translate(0.000000,69.000000) scale(0.100000,-0.100000)"
fill="#000000" stroke="none">
<path d="M374 665 l-17 -25 7 -33 6 -32 2 -20 3 -20 -110 -5 -110 -5 -3 -81
-3 -80 -57 4 -58 4 -13 -16 -13 -15 -1 -49 -2 -48 18 -28 19 -28 34 5 33 6 5
-17 5 -17 12 -77 12 -78 96 0 97 0 23 16 23 17 -6 48 -6 48 22 15 22 16 19
-18 19 -17 -6 -47 -6 -47 11 -7 12 -7 83 -8 83 -7 31 -7 30 -7 0 99 0 99 -13
19 -14 18 -43 -7 -42 -7 -14 12 -14 11 0 30 0 29 11 20 10 20 62 -3 62 -3 -1
76 -1 77 -7 25 -6 24 -27 12 -28 11 -50 10 -50 11 -18 5 -18 6 6 30 7 29 -18
20 -17 19 -38 0 -39 0 -16 -25z"/>
</g>
</svg>
