<?xml version="1.0" standalone="no"?>
<!DOCTYPE svg PUBLIC "-//W3C//DTD SVG 20010904//EN"
 "http://www.w3.org/TR/2001/REC-SVG-20010904/DTD/svg10.dtd">
<svg version="1.0" xmlns="http://www.w3.org/2000/svg"
 width="55.000000pt" height="68.000000pt" viewBox="0 0 55.000000 68.000000"
 preserveAspectRatio="xMidYMid meet">
<metadata>
Created by potrace 1.16, written by Peter Selinger 2001-2019
</metadata>
<g transform="translate(0.000000,68.000000) scale(0.100000,-0.100000)"
fill="#000000" stroke="none">
<path d="M218 669 l-28 -11 0 -22 0 -23 11 -32 11 -32 -18 -14 -19 -14 -81 -1
-81 0 -6 -68 -5 -67 7 -35 7 -35 57 1 57 1 6 -24 7 -24 -11 -24 -11 -24 -33 6
-34 5 -11 -14 -11 -13 -10 -80 -11 -80 -7 -23 -6 -22 104 0 104 0 23 16 23 17
-5 44 -5 44 19 10 19 10 19 -10 19 -10 6 -16 5 -15 -6 -30 -5 -30 12 -15 12
-15 95 0 95 0 -5 28 -5 27 -20 71 -19 72 -8 11 -7 12 -21 -3 -22 -2 -12 7 -13
8 0 23 0 23 20 18 20 18 56 -6 56 -6 -7 107 -7 107 -12 7 -11 8 -76 0 -77 0
-10 13 -10 12 9 20 8 20 0 26 1 27 -15 12 -15 12 -43 4 -42 3 -27 -10z"/>
</g>
</svg>
