<?xml version="1.0" standalone="no"?>
<!DOCTYPE svg PUBLIC "-//W3C//DTD SVG 20010904//EN"
 "http://www.w3.org/TR/2001/REC-SVG-20010904/DTD/svg10.dtd">
<svg version="1.0" xmlns="http://www.w3.org/2000/svg"
 width="53.000000pt" height="66.000000pt" viewBox="0 0 53.000000 66.000000"
 preserveAspectRatio="xMidYMid meet">
<metadata>
Created by potrace 1.16, written by Peter Selinger 2001-2019
</metadata>
<g transform="translate(0.000000,66.000000) scale(0.100000,-0.100000)"
fill="#000000" stroke="none">
<path d="M218 649 l-28 -11 0 -9 0 -9 12 -45 12 -45 -19 -15 -20 -14 -81 -1
-82 0 -4 -62 -5 -62 7 -31 6 -30 54 2 54 3 8 -13 8 -12 0 -31 0 -32 -18 -22
-18 -23 -21 14 -21 13 -15 -13 -16 -12 -6 -67 -6 -67 -9 -27 -9 -28 92 0 93 0
22 16 22 15 0 24 0 24 -10 6 -10 6 0 9 0 10 25 16 25 16 25 -6 24 -6 15 -27
14 -27 -11 -23 -10 -22 13 -16 12 -15 85 0 85 0 -7 23 -6 22 -18 66 -18 67 -8
11 -7 12 -19 -6 -20 -7 -14 12 -15 12 0 33 0 32 19 17 20 18 56 -4 57 -3 -8
95 -7 95 -11 7 -11 8 -76 0 -77 0 -11 14 -12 15 12 41 12 41 -14 15 -15 15
-35 4 -34 4 -27 -10z"/>
</g>
</svg>
