<?xml version="1.0" standalone="no"?>
<!DOCTYPE svg PUBLIC "-//W3C//DTD SVG 20010904//EN"
 "http://www.w3.org/TR/2001/REC-SVG-20010904/DTD/svg10.dtd">
<svg version="1.0" xmlns="http://www.w3.org/2000/svg"
 width="71.000000pt" height="81.000000pt" viewBox="0 0 71.000000 81.000000"
 preserveAspectRatio="xMidYMid meet">
<metadata>
Created by potrace 1.16, written by Peter Selinger 2001-2019
</metadata>
<g transform="translate(0.000000,81.000000) scale(0.100000,-0.100000)"
fill="#000000" stroke="none">
<path d="M230 795 l-14 -17 11 -40 11 -41 -5 -13 -5 -13 -30 -10 -31 -11 -83
0 -84 0 0 -94 0 -94 15 -12 15 -13 40 6 41 5 15 -24 16 -24 -5 -14 -6 -15 -33
5 -34 6 -11 -24 -11 -23 -16 -85 -16 -85 0 -17 0 -18 69 0 69 0 23 -19 23 -19
-12 -26 -12 -27 0 -13 0 -14 57 -4 58 -5 33 9 34 9 15 36 15 36 -10 39 -10 38
12 1 11 1 25 -2 25 -2 27 -14 28 -14 25 6 25 6 0 7 -1 6 -14 60 -15 60 0 18 0
17 55 0 56 0 34 14 33 14 12 22 12 22 -6 33 -7 33 -14 12 -14 12 -61 -4 -60
-3 -5 13 -5 14 0 75 0 75 -27 -6 -28 -7 -68 -6 -67 -6 6 54 6 54 -24 35 -24
35 -35 3 -36 3 -13 -16z"/>
</g>
</svg>
