<?xml version="1.0" standalone="no"?>
<!DOCTYPE svg PUBLIC "-//W3C//DTD SVG 20010904//EN"
 "http://www.w3.org/TR/2001/REC-SVG-20010904/DTD/svg10.dtd">
<svg version="1.0" xmlns="http://www.w3.org/2000/svg"
 width="85.000000pt" height="71.000000pt" viewBox="0 0 85.000000 71.000000"
 preserveAspectRatio="xMidYMid meet">
<metadata>
Created by potrace 1.16, written by Peter Selinger 2001-2019
</metadata>
<g transform="translate(0.000000,71.000000) scale(0.100000,-0.100000)"
fill="#000000" stroke="none">
<path d="M362 701 l-14 -8 13 -42 12 -42 -21 -21 -21 -22 -86 -4 -85 -5 0 -77
0 -77 -21 -28 -22 -27 -53 7 -53 6 -7 -25 -6 -26 6 -26 7 -25 45 -21 46 -20
32 4 31 5 15 4 15 4 3 -34 3 -34 -16 -50 -16 -49 5 -14 5 -14 76 0 76 0 29 15
30 15 6 25 6 25 -6 35 -7 35 19 0 20 0 16 -41 17 -41 -13 -34 -12 -35 11 -17
11 -17 65 1 65 2 55 16 55 16 6 87 7 88 5 16 4 16 48 -5 48 -4 18 27 18 28 -5
38 -5 38 -16 17 -16 16 -60 -4 -60 -3 -1 10 -1 10 2 74 2 74 -34 -7 -33 -6
-71 -6 -71 -7 -6 9 -5 9 10 52 11 53 -17 25 -16 25 -43 0 -42 0 -13 -9z"/>
</g>
</svg>
