<?xml version="1.0" standalone="no"?>
<!DOCTYPE svg PUBLIC "-//W3C//DTD SVG 20010904//EN"
 "http://www.w3.org/TR/2001/REC-SVG-20010904/DTD/svg10.dtd">
<svg version="1.0" xmlns="http://www.w3.org/2000/svg"
 width="72.000000pt" height="73.000000pt" viewBox="0 0 72.000000 73.000000"
 preserveAspectRatio="xMidYMid meet">
<metadata>
Created by potrace 1.16, written by Peter Selinger 2001-2019
</metadata>
<g transform="translate(0.000000,73.000000) scale(0.100000,-0.100000)"
fill="#000000" stroke="none">
<path d="M247 715 l-15 -15 -12 -36 -12 -36 5 -34 6 -34 -105 0 -104 0 0 -44
0 -43 -7 -63 -6 -63 39 7 39 8 19 -1 18 0 19 -17 19 -17 0 -22 0 -22 -21 -19
-21 -19 -52 0 -51 0 -1 -102 -2 -103 105 0 104 0 16 16 15 15 -6 50 -7 49 23
2 23 1 19 -2 20 -1 19 -17 18 -17 -6 -59 -7 -59 13 -9 14 -9 36 0 35 0 50 15
49 15 12 8 13 8 -9 68 -8 69 4 21 4 21 57 -3 57 -4 28 22 27 21 0 55 0 54 -20
20 -20 20 -18 0 -18 0 -11 -11 -12 -12 -25 7 -25 6 -11 39 -10 40 6 39 6 39
-23 6 -24 7 -75 0 -76 0 -11 11 -10 10 4 42 5 42 -22 28 -21 27 -24 0 -24 0
-14 -15z"/>
</g>
</svg>
