<?xml version="1.0" standalone="no"?>
<!DOCTYPE svg PUBLIC "-//W3C//DTD SVG 20010904//EN"
 "http://www.w3.org/TR/2001/REC-SVG-20010904/DTD/svg10.dtd">
<svg version="1.0" xmlns="http://www.w3.org/2000/svg"
 width="68.000000pt" height="70.000000pt" viewBox="0 0 68.000000 70.000000"
 preserveAspectRatio="xMidYMid meet">
<metadata>
Created by potrace 1.16, written by Peter Selinger 2001-2019
</metadata>
<g transform="translate(0.000000,70.000000) scale(0.100000,-0.100000)"
fill="#000000" stroke="none">
<path d="M360 685 l-12 -14 3 -58 4 -58 -8 -12 -8 -13 -101 0 -101 0 6 -95 6
-95 -58 0 -58 0 -16 -18 -17 -19 0 -39 0 -40 12 -12 12 -12 28 0 27 0 11 -42
11 -43 15 -51 16 -51 86 -6 87 -6 35 7 35 8 0 68 0 68 19 14 20 14 20 -14 21
-14 -3 -60 -4 -61 29 -8 28 -7 85 -1 85 0 -1 20 -1 20 -12 68 -12 68 -12 20
-12 20 -30 -3 -30 -2 -13 8 -12 7 0 39 0 40 26 -10 25 -10 20 0 20 0 24 25 25
24 0 90 0 90 -22 13 -23 13 -80 26 -80 25 3 39 3 38 -13 8 -13 9 -41 0 -42 0
-12 -15z"/>
</g>
</svg>
