<?xml version="1.0" standalone="no"?>
<!DOCTYPE svg PUBLIC "-//W3C//DTD SVG 20010904//EN"
 "http://www.w3.org/TR/2001/REC-SVG-20010904/DTD/svg10.dtd">
<svg version="1.0" xmlns="http://www.w3.org/2000/svg"
 width="68.000000pt" height="82.000000pt" viewBox="0 0 68.000000 82.000000"
 preserveAspectRatio="xMidYMid meet">
<metadata>
Created by potrace 1.16, written by Peter Selinger 2001-2019
</metadata>
<g transform="translate(0.000000,82.000000) scale(0.100000,-0.100000)"
fill="#000000" stroke="none">
<path d="M362 808 l-22 -11 -6 -23 -6 -23 12 -36 12 -37 -8 -8 -9 -9 -85 -3
-85 -3 -6 -68 -6 -68 -21 -22 -22 -21 -30 11 -30 11 -21 -17 -21 -17 -2 -42
-1 -41 13 -13 13 -13 42 0 42 0 12 -65 13 -65 9 -35 10 -35 70 0 69 0 22 -20
22 -20 -7 -41 -6 -42 23 -16 22 -16 42 0 42 0 23 19 24 20 -12 19 -12 20 12
10 12 10 35 7 35 7 53 20 52 19 0 78 0 79 -6 32 -7 32 -14 5 -14 6 -25 -13
-24 -14 -28 21 -27 20 -3 21 -3 21 11 21 11 21 34 -7 33 -6 21 7 21 6 11 37
10 37 -3 50 -3 50 -15 -2 -15 -1 -73 -16 -72 -16 -25 6 -25 6 6 62 6 62 -16
32 -17 32 -22 -1 -22 0 -23 -11z"/>
</g>
</svg>
