<?xml version="1.0" standalone="no"?>
<!DOCTYPE svg PUBLIC "-//W3C//DTD SVG 20010904//EN"
 "http://www.w3.org/TR/2001/REC-SVG-20010904/DTD/svg10.dtd">
<svg version="1.0" xmlns="http://www.w3.org/2000/svg"
 width="64.000000pt" height="65.000000pt" viewBox="0 0 64.000000 65.000000"
 preserveAspectRatio="xMidYMid meet">
<metadata>
Created by potrace 1.16, written by Peter Selinger 2001-2019
</metadata>
<g transform="translate(0.000000,65.000000) scale(0.100000,-0.100000)"
fill="#000000" stroke="none">
<path d="M334 636 l-19 -15 13 -12 12 -13 0 -27 0 -27 -17 -13 -16 -14 -84 0
-83 0 2 -85 3 -85 -44 3 -43 4 -23 -22 -23 -22 -7 -25 -6 -25 12 -35 11 -35
43 6 42 7 10 -13 10 -13 7 -79 6 -79 3 -4 3 -3 102 -6 103 -7 -11 27 -10 27 0
39 0 39 16 15 15 16 22 0 22 0 15 -10 15 -10 0 -42 0 -43 90 -18 90 -17 13 5
12 4 -1 63 -1 63 -7 25 -7 25 -43 -3 -43 -4 -24 23 -24 22 0 32 0 32 19 17 19
17 46 -6 46 -7 10 27 10 26 0 65 0 64 -2 0 -3 0 -40 -15 -40 -14 -45 0 -45 -1
-14 9 -14 9 12 30 12 29 -6 25 -7 26 -19 21 -20 21 -27 0 -28 0 -20 -14z"/>
</g>
</svg>
