<?xml version="1.0" standalone="no"?>
<!DOCTYPE svg PUBLIC "-//W3C//DTD SVG 20010904//EN"
 "http://www.w3.org/TR/2001/REC-SVG-20010904/DTD/svg10.dtd">
<svg version="1.0" xmlns="http://www.w3.org/2000/svg"
 width="80.000000pt" height="76.000000pt" viewBox="0 0 80.000000 76.000000"
 preserveAspectRatio="xMidYMid meet">
<metadata>
Created by potrace 1.16, written by Peter Selinger 2001-2019
</metadata>
<g transform="translate(0.000000,76.000000) scale(0.100000,-0.100000)"
fill="#000000" stroke="none">
<path d="M363 752 l-12 -8 9 -14 10 -15 0 -27 0 -28 -27 -17 -27 -18 -78 0
-78 0 6 -55 5 -55 4 -36 5 -36 -66 1 -66 1 -25 -29 -24 -29 6 -26 7 -26 10
-13 11 -12 33 6 32 6 13 -24 12 -23 15 -60 14 -60 0 -20 0 -20 90 3 91 3 10
-10 10 -10 -13 -31 -13 -31 18 -19 18 -20 57 0 56 0 19 14 19 14 -13 16 -14
17 9 9 10 10 82 16 82 17 0 11 0 12 -21 61 -20 62 3 32 3 32 62 1 62 1 21 23
22 23 -6 34 -7 34 -10 7 -10 6 -14 -12 -15 -12 -14 5 -15 6 -16 25 -17 25 -6
68 -7 68 -55 17 -55 17 -36 5 -36 6 -18 13 -18 14 13 23 12 23 -13 8 -14 9
-35 0 -35 0 -12 -8z"/>
</g>
</svg>
