<?xml version="1.0" standalone="no"?>
<!DOCTYPE svg PUBLIC "-//W3C//DTD SVG 20010904//EN"
 "http://www.w3.org/TR/2001/REC-SVG-20010904/DTD/svg10.dtd">
<svg version="1.0" xmlns="http://www.w3.org/2000/svg"
 width="71.000000pt" height="66.000000pt" viewBox="0 0 71.000000 66.000000"
 preserveAspectRatio="xMidYMid meet">
<metadata>
Created by potrace 1.16, written by Peter Selinger 2001-2019
</metadata>
<g transform="translate(0.000000,66.000000) scale(0.100000,-0.100000)"
fill="#000000" stroke="none">
<path d="M351 649 l-23 -9 5 -23 4 -22 7 -15 6 -15 -10 -15 -9 -15 -91 0 -90
0 0 -80 0 -81 -16 -23 -16 -23 -43 6 -43 7 -16 -16 -16 -16 0 -32 0 -32 10
-15 9 -15 30 3 29 3 12 -38 11 -38 22 -57 22 -58 86 0 86 0 18 20 19 21 -11
42 -11 42 10 12 10 13 32 0 31 0 23 -6 23 -7 15 -28 14 -29 -11 -46 -12 -46
14 -9 14 -9 32 0 31 0 51 12 50 11 21 49 21 49 6 47 5 48 -15 12 -15 12 -26
-10 -27 -10 -32 0 -32 0 -32 20 -33 20 0 34 0 35 16 15 15 16 12 0 12 0 35
-10 35 -10 17 6 17 5 7 35 6 34 -7 56 -7 56 -21 -7 -22 -7 -63 -5 -64 -5 -10
10 -10 10 11 35 12 34 -7 17 -6 17 -29 14 -28 15 -23 -1 -23 0 -24 -10z"/>
</g>
</svg>
