<?xml version="1.0" standalone="no"?>
<!DOCTYPE svg PUBLIC "-//W3C//DTD SVG 20010904//EN"
 "http://www.w3.org/TR/2001/REC-SVG-20010904/DTD/svg10.dtd">
<svg version="1.0" xmlns="http://www.w3.org/2000/svg"
 width="71.000000pt" height="67.000000pt" viewBox="0 0 71.000000 67.000000"
 preserveAspectRatio="xMidYMid meet">
<metadata>
Created by potrace 1.16, written by Peter Selinger 2001-2019
</metadata>
<g transform="translate(0.000000,67.000000) scale(0.100000,-0.100000)"
fill="#000000" stroke="none">
<path d="M226 657 l-19 -14 7 -45 7 -45 -17 -14 -17 -14 -89 0 -88 1 -2 -51
-2 -50 2 -30 2 -30 5 -24 6 -23 39 6 40 6 20 -20 20 -20 -1 -22 0 -23 -7 -15
-7 -15 -30 0 -30 0 -22 -85 -22 -85 -1 -22 0 -23 86 0 85 0 20 10 19 11 0 24
0 24 -9 24 -10 25 13 17 12 17 29 -4 30 -3 5 -39 5 -40 95 -28 95 -27 23 -1
22 0 0 18 -1 17 -8 43 -9 44 6 20 5 20 44 -7 44 -6 30 6 31 7 14 34 14 33 0
43 0 43 -19 24 -19 25 -52 -12 -53 -12 -13 11 -14 11 0 78 0 78 -72 12 -73 11
-35 8 -35 7 3 41 3 42 -20 10 -20 11 -23 0 -24 0 -18 -13z"/>
</g>
</svg>
