<?xml version="1.0" standalone="no"?>
<!DOCTYPE svg PUBLIC "-//W3C//DTD SVG 20010904//EN"
 "http://www.w3.org/TR/2001/REC-SVG-20010904/DTD/svg10.dtd">
<svg version="1.0" xmlns="http://www.w3.org/2000/svg"
 width="69.000000pt" height="65.000000pt" viewBox="0 0 69.000000 65.000000"
 preserveAspectRatio="xMidYMid meet">
<metadata>
Created by potrace 1.16, written by Peter Selinger 2001-2019
</metadata>
<g transform="translate(0.000000,65.000000) scale(0.100000,-0.100000)"
fill="#000000" stroke="none">
<path d="M227 639 l-18 -10 7 -48 6 -47 -17 -14 -18 -15 -88 0 -87 0 -4 -52
-3 -51 6 -36 6 -36 6 -7 7 -6 25 11 26 12 25 -16 24 -16 6 -24 6 -24 -6 -35
-7 -35 -32 3 -32 2 -22 -85 -22 -85 -1 -12 0 -13 78 0 78 0 19 14 19 14 -12
41 -13 41 10 19 10 19 25 4 25 5 23 -11 23 -12 0 -34 0 -34 103 -29 103 -30 4
5 5 5 -10 55 -11 55 10 26 10 25 42 -9 42 -10 30 7 29 6 14 34 14 33 0 33 0
33 -18 23 -18 23 -51 -12 -52 -12 -16 13 -15 12 0 78 0 78 -62 10 -63 11 -42
6 -42 7 -11 13 -11 13 13 27 12 27 -19 14 -19 14 -15 0 -16 -1 -18 -10z"/>
</g>
</svg>
