<?xml version="1.0" standalone="no"?>
<!DOCTYPE svg PUBLIC "-//W3C//DTD SVG 20010904//EN"
 "http://www.w3.org/TR/2001/REC-SVG-20010904/DTD/svg10.dtd">
<svg version="1.0" xmlns="http://www.w3.org/2000/svg"
 width="69.000000pt" height="66.000000pt" viewBox="0 0 69.000000 66.000000"
 preserveAspectRatio="xMidYMid meet">
<metadata>
Created by potrace 1.16, written by Peter Selinger 2001-2019
</metadata>
<g transform="translate(0.000000,66.000000) scale(0.100000,-0.100000)"
fill="#000000" stroke="none">
<path d="M336 644 l-16 -15 0 -7 0 -7 11 -44 10 -44 -13 -9 -13 -8 -85 1 -85
2 3 -100 4 -101 -49 10 -48 10 -27 -11 -28 -11 0 -43 0 -43 16 -23 17 -23 43
6 43 5 5 -8 6 -9 5 -78 5 -79 0 -5 0 -5 87 5 88 5 22 13 23 13 6 23 6 24 -12
21 -11 21 6 10 6 10 34 0 33 0 16 -6 16 -6 -6 -22 -5 -22 14 -12 14 -12 84
-24 84 -24 11 9 12 9 12 44 12 43 -4 29 -3 29 -63 -3 -63 -4 -30 12 -29 12
-11 37 -11 36 9 35 9 35 27 9 27 10 50 -10 50 -11 6 24 6 23 -7 65 -7 65 -91
0 -92 0 -14 9 -13 9 7 40 7 41 -12 20 -11 21 -39 0 -39 0 -15 -16z"/>
</g>
</svg>
