<?xml version="1.0" standalone="no"?>
<!DOCTYPE svg PUBLIC "-//W3C//DTD SVG 20010904//EN"
 "http://www.w3.org/TR/2001/REC-SVG-20010904/DTD/svg10.dtd">
<svg version="1.0" xmlns="http://www.w3.org/2000/svg"
 width="71.000000pt" height="68.000000pt" viewBox="0 0 71.000000 68.000000"
 preserveAspectRatio="xMidYMid meet">
<metadata>
Created by potrace 1.16, written by Peter Selinger 2001-2019
</metadata>
<g transform="translate(0.000000,68.000000) scale(0.100000,-0.100000)"
fill="#000000" stroke="none">
<path d="M336 664 l-16 -15 0 -17 0 -17 9 -37 9 -37 -20 -7 -20 -6 -76 4 -77
3 3 -98 3 -98 -48 6 -48 7 -27 -11 -28 -11 0 -53 0 -53 16 -22 16 -23 47 2 46
3 7 -54 8 -55 -5 -22 -5 -21 5 -14 6 -14 92 4 92 4 27 14 27 14 6 21 7 21 -7
35 -6 34 33 -3 33 -3 3 -27 3 -27 13 -10 13 -11 92 -26 91 -26 14 11 14 11 11
43 12 43 -3 39 -3 40 -63 -3 -63 -4 -29 12 -29 12 -10 29 -10 30 6 30 6 31 24
11 23 10 52 -12 52 -11 8 12 8 13 0 41 0 41 -6 47 -7 46 -88 0 -87 0 -16 6
-15 6 5 42 6 43 -11 22 -12 21 -49 0 -49 0 -15 -16z"/>
</g>
</svg>
