<?xml version="1.0" standalone="no"?>
<!DOCTYPE svg PUBLIC "-//W3C//DTD SVG 20010904//EN"
 "http://www.w3.org/TR/2001/REC-SVG-20010904/DTD/svg10.dtd">
<svg version="1.0" xmlns="http://www.w3.org/2000/svg"
 width="68.000000pt" height="69.000000pt" viewBox="0 0 68.000000 69.000000"
 preserveAspectRatio="xMidYMid meet">
<metadata>
Created by potrace 1.16, written by Peter Selinger 2001-2019
</metadata>
<g transform="translate(0.000000,69.000000) scale(0.100000,-0.100000)"
fill="#000000" stroke="none">
<path d="M339 669 l-21 -21 6 -56 7 -55 -84 5 -84 6 -7 -62 -6 -61 -19 -25
-19 -25 -43 0 -44 0 -12 -8 -13 -8 0 -48 0 -48 18 -16 17 -15 48 -13 48 -12
26 12 26 12 8 -13 9 -13 0 -21 0 -21 -15 -44 -15 -44 -12 -22 -11 -23 6 -6 6
-6 108 -1 108 -2 -3 63 -4 63 12 15 12 14 17 0 18 0 20 -22 21 -23 6 -22 7
-21 -11 -7 -10 -6 0 -25 0 -24 24 -11 24 -11 74 6 74 7 9 7 10 7 -3 259 -3
258 -42 -8 -42 -8 -50 0 -50 -1 4 63 3 63 -18 20 -17 19 -49 0 -48 0 -21 -21z"/>
</g>
</svg>
