<?xml version="1.0" standalone="no"?>
<!DOCTYPE svg PUBLIC "-//W3C//DTD SVG 20010904//EN"
 "http://www.w3.org/TR/2001/REC-SVG-20010904/DTD/svg10.dtd">
<svg version="1.0" xmlns="http://www.w3.org/2000/svg"
 width="71.000000pt" height="81.000000pt" viewBox="0 0 71.000000 81.000000"
 preserveAspectRatio="xMidYMid meet">
<metadata>
Created by potrace 1.16, written by Peter Selinger 2001-2019
</metadata>
<g transform="translate(0.000000,81.000000) scale(0.100000,-0.100000)"
fill="#000000" stroke="none">
<path d="M238 780 l-30 -30 4 -37 3 -38 -88 1 -87 1 0 -110 0 -109 60 7 61 7
14 -12 15 -12 0 -29 0 -28 -24 -28 -24 -28 -44 2 -43 3 -25 2 -25 3 -3 -46 -3
-45 23 -52 23 -52 61 0 61 0 32 -11 32 -11 -6 -53 -7 -53 20 -11 21 -11 40 0
41 0 20 20 20 20 0 44 0 44 31 6 31 6 62 0 61 0 11 8 12 7 7 65 7 65 9 22 8
23 32 -7 32 -6 14 18 13 19 0 65 0 66 -9 13 -8 14 -45 -7 -44 -7 -15 18 -14
17 1 68 1 68 -26 10 -26 10 -60 7 -60 6 -12 10 -12 10 5 28 6 27 -23 17 -23
16 -39 0 -39 0 -30 -30z"/>
</g>
</svg>
