<?xml version="1.0" standalone="no"?>
<!DOCTYPE svg PUBLIC "-//W3C//DTD SVG 20010904//EN"
 "http://www.w3.org/TR/2001/REC-SVG-20010904/DTD/svg10.dtd">
<svg version="1.0" xmlns="http://www.w3.org/2000/svg"
 width="71.000000pt" height="70.000000pt" viewBox="0 0 71.000000 70.000000"
 preserveAspectRatio="xMidYMid meet">
<metadata>
Created by potrace 1.16, written by Peter Selinger 2001-2019
</metadata>
<g transform="translate(0.000000,70.000000) scale(0.100000,-0.100000)"
fill="#000000" stroke="none">
<path d="M224 679 l-19 -21 -5 -62 -5 -61 -95 0 -95 0 -3 -70 -3 -70 6 -22 5
-22 23 -21 22 -21 45 3 45 2 3 -16 3 -16 -14 -34 -14 -34 -36 4 -36 4 -10 -23
-10 -24 -16 -78 -17 -79 4 -3 3 -3 123 -7 123 -8 -7 66 -7 65 7 26 6 26 20 0
19 0 11 -20 11 -20 -11 -41 -12 -42 19 -17 18 -18 102 -5 102 -5 10 12 10 12
10 83 11 84 5 6 6 5 38 1 38 1 27 17 26 17 0 32 0 31 -26 23 -25 24 -65 0 -66
0 7 85 7 84 -13 13 -14 14 -80 13 -80 13 -12 10 -12 9 6 36 6 36 -18 13 -19
14 -31 0 -32 0 -19 -21z"/>
</g>
</svg>
