<?xml version="1.0" standalone="no"?>
<!DOCTYPE svg PUBLIC "-//W3C//DTD SVG 20010904//EN"
 "http://www.w3.org/TR/2001/REC-SVG-20010904/DTD/svg10.dtd">
<svg version="1.0" xmlns="http://www.w3.org/2000/svg"
 width="81.000000pt" height="79.000000pt" viewBox="0 0 81.000000 79.000000"
 preserveAspectRatio="xMidYMid meet">
<metadata>
Created by potrace 1.16, written by Peter Selinger 2001-2019
</metadata>
<g transform="translate(0.000000,79.000000) scale(0.100000,-0.100000)"
fill="#000000" stroke="none">
<path d="M345 783 l-10 -8 0 -39 0 -39 -25 -19 -26 -19 -72 -6 -73 -6 3 -86 3
-86 -62 3 -61 4 -11 -20 -11 -21 0 -39 0 -40 15 -12 15 -12 44 6 45 7 10 -20
11 -20 0 -80 0 -81 83 0 82 0 13 -9 14 -8 -11 -39 -11 -39 0 -7 0 -8 20 -20
20 -20 36 0 36 0 28 29 29 28 7 28 7 29 -11 28 -10 28 18 10 18 9 57 -14 57
-15 10 6 10 6 -7 74 -7 74 12 31 13 31 26 -7 26 -7 32 0 31 0 21 12 21 11 0
23 0 23 -20 18 -21 19 -47 -13 -47 -12 -17 22 -18 21 0 79 0 79 -27 -7 -28 -8
-65 0 -65 0 3 55 3 55 -14 18 -13 18 -39 5 -40 5 -10 -8z"/>
</g>
</svg>
