<?xml version="1.0" standalone="no"?>
<!DOCTYPE svg PUBLIC "-//W3C//DTD SVG 20010904//EN"
 "http://www.w3.org/TR/2001/REC-SVG-20010904/DTD/svg10.dtd">
<svg version="1.0" xmlns="http://www.w3.org/2000/svg"
 width="70.000000pt" height="80.000000pt" viewBox="0 0 70.000000 80.000000"
 preserveAspectRatio="xMidYMid meet">
<metadata>
Created by potrace 1.16, written by Peter Selinger 2001-2019
</metadata>
<g transform="translate(0.000000,80.000000) scale(0.100000,-0.100000)"
fill="#000000" stroke="none">
<path d="M383 793 l-22 -4 5 -42 6 -42 -20 -18 -21 -19 -79 -5 -79 -6 -6 -71
-5 -71 -7 -16 -6 -16 -23 -13 -24 -12 -36 12 -37 12 -14 -12 -15 -12 0 -44 0
-44 28 -11 27 -11 50 10 50 10 10 -10 10 -9 -3 -106 -3 -106 85 5 86 4 0 -46
0 -46 15 -21 16 -22 36 -7 37 -7 24 29 24 28 -5 63 -5 63 27 0 26 0 73 -21 72
-22 8 7 7 7 3 72 4 72 -9 35 -9 35 -44 0 -43 0 -14 22 -14 22 21 21 22 22 16
-8 17 -7 28 -5 27 -4 0 115 0 115 -32 11 -33 10 -55 7 -55 7 -23 8 -23 9 6 34
7 34 -9 5 -8 5 -35 5 -35 5 -22 -5z"/>
</g>
</svg>
