<?xml version="1.0" standalone="no"?>
<!DOCTYPE svg PUBLIC "-//W3C//DTD SVG 20010904//EN"
 "http://www.w3.org/TR/2001/REC-SVG-20010904/DTD/svg10.dtd">
<svg version="1.0" xmlns="http://www.w3.org/2000/svg"
 width="68.000000pt" height="66.000000pt" viewBox="0 0 68.000000 66.000000"
 preserveAspectRatio="xMidYMid meet">
<metadata>
Created by potrace 1.16, written by Peter Selinger 2001-2019
</metadata>
<g transform="translate(0.000000,66.000000) scale(0.100000,-0.100000)"
fill="#000000" stroke="none">
<path d="M331 651 l-15 -10 12 -26 12 -26 0 -9 0 -10 -26 -17 -26 -17 -72 -5
-71 -6 -3 -92 -3 -93 -54 0 -54 0 -15 -22 -16 -22 0 -26 0 -25 13 -25 13 -25
39 0 40 0 6 -45 7 -45 7 -46 6 -46 88 -7 88 -7 27 7 28 7 -6 58 -7 58 20 10
20 11 18 0 19 0 19 -14 19 -14 -2 -41 -3 -41 23 -9 23 -9 85 -3 85 -4 -2 20
-1 20 -17 85 -17 85 -12 7 -11 8 -31 0 -32 0 -6 16 -6 16 0 33 0 34 54 -6 53
-6 17 24 16 23 0 77 0 77 -22 6 -23 6 -65 0 -65 0 -15 10 -15 9 13 13 12 12 0
13 0 14 -25 24 -24 25 -53 0 -53 0 -14 -9z"/>
</g>
</svg>
