<?xml version="1.0" standalone="no"?>
<!DOCTYPE svg PUBLIC "-//W3C//DTD SVG 20010904//EN"
 "http://www.w3.org/TR/2001/REC-SVG-20010904/DTD/svg10.dtd">
<svg version="1.0" xmlns="http://www.w3.org/2000/svg"
 width="66.000000pt" height="64.000000pt" viewBox="0 0 66.000000 64.000000"
 preserveAspectRatio="xMidYMid meet">
<metadata>
Created by potrace 1.16, written by Peter Selinger 2001-2019
</metadata>
<g transform="translate(0.000000,64.000000) scale(0.100000,-0.100000)"
fill="#000000" stroke="none">
<path d="M333 632 l-12 -8 9 -14 10 -15 0 -22 0 -23 -26 -17 -26 -17 -72 -5
-71 -6 -1 -95 -1 -95 -55 3 -56 4 -17 -26 -17 -25 7 -30 6 -30 15 -12 16 -13
20 13 20 12 13 -11 13 -11 6 -57 7 -57 5 -31 6 -31 79 -7 79 -6 25 6 26 6 -7
59 -7 59 37 15 36 15 29 -14 29 -15 6 -16 5 -15 -5 -30 -6 -30 23 -9 24 -9 75
-3 75 -4 -3 15 -4 15 -15 80 -15 80 -12 8 -11 8 -27 -5 -28 -5 -10 19 -10 19
0 49 0 49 51 -11 51 -10 19 23 19 23 0 68 0 68 -22 6 -23 6 -62 0 -61 0 -16 6
-16 6 0 17 0 17 11 11 11 11 -25 26 -26 26 -43 0 -43 0 -12 -8z"/>
</g>
</svg>
