<?xml version="1.0" standalone="no"?>
<!DOCTYPE svg PUBLIC "-//W3C//DTD SVG 20010904//EN"
 "http://www.w3.org/TR/2001/REC-SVG-20010904/DTD/svg10.dtd">
<svg version="1.0" xmlns="http://www.w3.org/2000/svg"
 width="56.000000pt" height="80.000000pt" viewBox="0 0 56.000000 80.000000"
 preserveAspectRatio="xMidYMid meet">
<metadata>
Created by potrace 1.16, written by Peter Selinger 2001-2019
</metadata>
<g transform="translate(0.000000,80.000000) scale(0.100000,-0.100000)"
fill="#000000" stroke="none">
<path d="M250 791 l-25 -8 4 -14 5 -14 4 -42 4 -43 -27 -10 -26 -10 -73 0 -73
0 -6 -58 -6 -58 8 -30 8 -29 65 3 65 3 10 -13 11 -13 3 -25 3 -25 -7 -21 -8
-22 -30 -12 -29 -13 -43 7 -42 7 -20 2 -20 2 -3 -51 -3 -51 21 -55 21 -56 17
3 17 4 83 5 83 5 -7 -35 -6 -35 17 -39 18 -40 19 -6 18 -5 31 6 30 7 11 23 10
22 -12 23 -12 22 9 9 9 9 79 10 78 10 5 4 4 5 -13 86 -12 86 -13 16 -12 17
-16 -13 -16 -13 -15 6 -16 6 -14 32 -13 33 5 30 6 30 11 14 10 13 58 -6 57 -6
3 16 3 16 -3 69 -4 68 -31 -7 -32 -7 -55 0 -55 0 3 60 4 60 -19 17 -18 16 -35
5 -35 6 -25 -8z"/>
</g>
</svg>
