<?xml version="1.0" standalone="no"?>
<!DOCTYPE svg PUBLIC "-//W3C//DTD SVG 20010904//EN"
 "http://www.w3.org/TR/2001/REC-SVG-20010904/DTD/svg10.dtd">
<svg version="1.0" xmlns="http://www.w3.org/2000/svg"
 width="68.000000pt" height="68.000000pt" viewBox="0 0 68.000000 68.000000"
 preserveAspectRatio="xMidYMid meet">
<metadata>
Created by potrace 1.16, written by Peter Selinger 2001-2019
</metadata>
<g transform="translate(0.000000,68.000000) scale(0.100000,-0.100000)"
fill="#000000" stroke="none">
<path d="M232 673 l-34 -4 4 -57 3 -56 -25 -13 -25 -13 -72 0 -73 0 0 -89 0
-89 19 -23 19 -24 48 13 48 13 19 -20 20 -19 -6 -16 -6 -15 -33 -9 -33 -9 -17
8 -17 9 -24 0 -25 0 -11 -28 -12 -28 4 -97 4 -97 4 -4 4 -3 88 6 89 6 20 25
19 24 -3 40 -3 39 26 8 27 7 9 -7 10 -6 10 -18 10 -19 -11 -40 -11 -40 20 -15
20 -15 109 5 108 6 5 5 6 5 -12 30 -13 29 -1 48 -2 49 52 -3 51 -4 21 21 21
21 0 65 0 66 -16 6 -15 6 -24 -11 -24 -11 -23 19 -23 18 -4 86 -3 85 -77 16
-76 17 -25 7 -25 8 3 30 3 30 -13 10 -13 11 -30 4 -30 5 -33 -4z"/>
</g>
</svg>
