<?xml version="1.0" standalone="no"?>
<!DOCTYPE svg PUBLIC "-//W3C//DTD SVG 20010904//EN"
 "http://www.w3.org/TR/2001/REC-SVG-20010904/DTD/svg10.dtd">
<svg version="1.0" xmlns="http://www.w3.org/2000/svg"
 width="69.000000pt" height="79.000000pt" viewBox="0 0 69.000000 79.000000"
 preserveAspectRatio="xMidYMid meet">
<metadata>
Created by potrace 1.16, written by Peter Selinger 2001-2019
</metadata>
<g transform="translate(0.000000,79.000000) scale(0.100000,-0.100000)"
fill="#000000" stroke="none">
<path d="M367 779 l-18 -10 7 -47 6 -47 -24 -15 -23 -14 -80 -6 -80 -5 0 -80
0 -80 -61 3 -62 4 -16 -23 -16 -23 0 -44 0 -43 25 -24 24 -25 28 0 28 0 15 10
14 9 14 -11 14 -12 -4 -75 -3 -76 105 -5 105 -5 -1 -10 0 -10 -8 -28 -9 -29
14 -24 13 -25 23 -5 23 -6 30 12 30 13 6 22 6 23 -11 20 -11 21 12 7 12 8 88
6 88 6 5 5 5 5 2 102 3 101 -12 12 -11 11 -49 -11 -49 -12 -27 10 -27 11 0 33
0 33 10 10 11 11 39 -10 39 -11 25 13 25 14 6 16 7 16 5 73 6 72 -9 0 -9 0
-40 -15 -40 -14 -41 -1 -42 0 -11 14 -12 15 11 22 12 22 -11 38 -12 38 -22 16
-21 15 -26 0 -25 -1 -18 -10z"/>
</g>
</svg>
