<?xml version="1.0" standalone="no"?>
<!DOCTYPE svg PUBLIC "-//W3C//DTD SVG 20010904//EN"
 "http://www.w3.org/TR/2001/REC-SVG-20010904/DTD/svg10.dtd">
<svg version="1.0" xmlns="http://www.w3.org/2000/svg"
 width="81.000000pt" height="80.000000pt" viewBox="0 0 81.000000 80.000000"
 preserveAspectRatio="xMidYMid meet">
<metadata>
Created by potrace 1.16, written by Peter Selinger 2001-2019
</metadata>
<g transform="translate(0.000000,80.000000) scale(0.100000,-0.100000)"
fill="#000000" stroke="none">
<path d="M355 786 l-19 -13 13 -31 13 -31 -6 -19 -7 -20 -17 -8 -17 -7 -80 -6
-80 -6 -3 -92 -3 -93 -59 7 -60 6 -15 -13 -15 -12 0 -50 0 -49 15 -16 16 -15
23 6 24 6 22 -78 22 -77 5 -22 5 -23 109 0 108 0 -2 -51 -2 -51 19 -14 20 -14
31 0 31 0 20 14 19 14 -2 66 -1 66 31 0 32 0 55 -15 55 -15 20 0 20 0 22 58
22 57 11 38 12 37 24 0 24 0 0 80 0 79 -20 11 -21 11 -46 -7 -45 -7 7 82 7 81
-94 0 -94 0 -18 13 -19 14 12 21 11 22 -6 25 -6 25 -21 15 -21 15 -31 0 -31 0
-19 -14z"/>
</g>
</svg>
