<?xml version="1.0" standalone="no"?>
<!DOCTYPE svg PUBLIC "-//W3C//DTD SVG 20010904//EN"
 "http://www.w3.org/TR/2001/REC-SVG-20010904/DTD/svg10.dtd">
<svg version="1.0" xmlns="http://www.w3.org/2000/svg"
 width="68.000000pt" height="71.000000pt" viewBox="0 0 68.000000 71.000000"
 preserveAspectRatio="xMidYMid meet">
<metadata>
Created by potrace 1.16, written by Peter Selinger 2001-2019
</metadata>
<g transform="translate(0.000000,71.000000) scale(0.100000,-0.100000)"
fill="#000000" stroke="none">
<path d="M189 703 l-66 -4 5 -79 4 -79 -6 -26 -7 -27 -22 5 -22 5 -21 7 -21 7
-17 -17 -16 -16 0 -38 0 -37 14 -19 13 -18 63 6 63 7 -7 -73 -6 -72 -3 -30 -2
-30 96 -3 96 -3 -5 -54 -4 -54 22 -30 21 -31 34 0 34 0 25 11 25 12 3 40 3 41
56 17 56 16 31 14 31 13 8 66 7 65 0 53 0 52 -12 12 -12 12 -46 -12 -47 -13
-24 16 -24 16 3 17 3 17 55 -3 55 -3 15 10 15 10 3 106 4 105 -15 0 -15 0 -59
-14 -58 -14 -29 -7 -28 -6 5 -32 4 -31 -11 -11 -11 -12 -33 -6 -33 -7 -36 15
-36 15 6 65 6 65 -32 -2 -32 -2 -66 -3z"/>
</g>
</svg>
