<?xml version="1.0" standalone="no"?>
<!DOCTYPE svg PUBLIC "-//W3C//DTD SVG 20010904//EN"
 "http://www.w3.org/TR/2001/REC-SVG-20010904/DTD/svg10.dtd">
<svg version="1.0" xmlns="http://www.w3.org/2000/svg"
 width="78.000000pt" height="66.000000pt" viewBox="0 0 78.000000 66.000000"
 preserveAspectRatio="xMidYMid meet">
<metadata>
Created by potrace 1.16, written by Peter Selinger 2001-2019
</metadata>
<g transform="translate(0.000000,66.000000) scale(0.100000,-0.100000)"
fill="#000000" stroke="none">
<path d="M457 653 l-7 -7 6 -61 6 -62 -11 -21 -12 -22 -59 0 -59 0 -10 18 -10
18 9 40 10 39 0 13 0 13 -35 15 -34 14 -50 0 -49 0 -4 -100 -3 -101 -15 -9
-15 -10 -55 2 -55 3 -3 -27 -3 -27 26 -17 27 -18 46 13 45 12 10 -10 10 -10 1
-43 0 -43 -8 -64 -7 -63 83 3 83 4 -3 -50 -4 -51 22 -19 22 -20 42 0 42 0 28
18 28 19 -4 61 -3 62 45 0 45 -1 34 -8 34 -8 -7 28 -6 29 -6 55 -6 56 15 12
16 13 21 -11 22 -12 29 13 30 12 14 28 15 28 -10 26 -10 26 -42 -6 -43 -6 -14
10 -15 10 2 94 1 94 -52 7 -52 6 -41 0 -41 0 -6 -7z"/>
</g>
</svg>
