<?xml version="1.0" standalone="no"?>
<!DOCTYPE svg PUBLIC "-//W3C//DTD SVG 20010904//EN"
 "http://www.w3.org/TR/2001/REC-SVG-20010904/DTD/svg10.dtd">
<svg version="1.0" xmlns="http://www.w3.org/2000/svg"
 width="79.000000pt" height="53.000000pt" viewBox="0 0 79.000000 53.000000"
 preserveAspectRatio="xMidYMid meet">
<metadata>
Created by potrace 1.16, written by Peter Selinger 2001-2019
</metadata>
<g transform="translate(0.000000,53.000000) scale(0.100000,-0.100000)"
fill="#000000" stroke="none">
<path d="M213 523 l-82 -4 -3 -92 -3 -92 -25 1 -25 1 -17 7 -16 8 -21 -21 -21
-21 0 -39 0 -40 23 -26 22 -27 29 13 28 13 14 -19 14 -19 0 -77 0 -77 71 -7
71 -7 23 12 23 13 -10 23 -11 23 13 30 12 30 32 10 31 11 30 -8 30 -9 -3 -25
-3 -25 13 -10 13 -10 65 -17 65 -17 24 -6 24 -6 -6 24 -7 24 -6 70 -5 70 9 13
9 13 49 -11 50 -11 27 10 27 11 0 34 0 34 -6 16 -6 15 -31 6 -32 6 -43 -9 -43
-10 7 99 7 100 -104 -3 -104 -3 3 -47 4 -46 -22 -22 -21 -21 -27 3 -27 3 -13
25 -13 25 4 48 4 47 -16 -2 -16 -2 -82 -3z"/>
</g>
</svg>
