<?xml version="1.0" standalone="no"?>
<!DOCTYPE svg PUBLIC "-//W3C//DTD SVG 20010904//EN"
 "http://www.w3.org/TR/2001/REC-SVG-20010904/DTD/svg10.dtd">
<svg version="1.0" xmlns="http://www.w3.org/2000/svg"
 width="55.000000pt" height="52.000000pt" viewBox="0 0 55.000000 52.000000"
 preserveAspectRatio="xMidYMid meet">
<metadata>
Created by potrace 1.16, written by Peter Selinger 2001-2019
</metadata>
<g transform="translate(0.000000,52.000000) scale(0.100000,-0.100000)"
fill="#000000" stroke="none">
<path d="M40 469 l0 -54 10 -36 10 -36 21 -19 20 -18 20 12 20 13 9 -6 9 -6 7
-34 6 -34 -22 -23 -21 -23 -62 -1 -62 -1 -3 -29 -4 -29 23 -73 23 -72 82 0 82
0 11 14 11 14 -6 57 -7 57 14 9 14 9 46 0 46 0 22 -24 22 -23 -7 -50 -6 -50
23 -6 24 -7 64 0 63 0 -6 33 -5 32 -7 55 -7 55 -8 15 -8 15 -38 0 -38 0 -12
26 -13 26 8 44 8 44 43 -3 44 -3 18 17 18 16 7 55 6 55 -8 8 -9 8 -80 -15 -80
-15 -8 -8 -9 -8 11 -21 11 -21 -20 -20 -20 -20 -40 0 -39 0 -12 21 -11 22 4
48 5 49 -88 0 -87 0 -16 6 -16 6 0 -53z"/>
</g>
</svg>
