<?xml version="1.0" standalone="no"?>
<!DOCTYPE svg PUBLIC "-//W3C//DTD SVG 20010904//EN"
 "http://www.w3.org/TR/2001/REC-SVG-20010904/DTD/svg10.dtd">
<svg version="1.0" xmlns="http://www.w3.org/2000/svg"
 width="81.000000pt" height="54.000000pt" viewBox="0 0 81.000000 54.000000"
 preserveAspectRatio="xMidYMid meet">
<metadata>
Created by potrace 1.16, written by Peter Selinger 2001-2019
</metadata>
<g transform="translate(0.000000,54.000000) scale(0.100000,-0.100000)"
fill="#000000" stroke="none">
<path d="M160 452 l0 -89 -20 -18 -20 -18 -45 13 -45 13 -15 -13 -15 -12 0
-39 0 -39 19 -19 20 -20 30 12 31 11 15 -15 16 -15 11 -90 11 -89 104 3 104 3
6 15 6 15 -12 25 -11 25 10 20 11 19 29 0 30 0 15 -23 15 -23 -11 -38 -10 -38
5 -14 5 -14 46 0 46 0 67 15 67 16 0 84 0 84 11 11 10 10 31 -11 32 -10 25 16
26 17 0 58 0 57 -19 17 -20 18 -37 -12 -37 -13 -14 19 -13 18 0 69 0 69 -32
-5 -33 -6 -57 -7 -57 -6 -11 -13 -10 -13 8 -23 8 -24 -4 -17 -3 -18 -37 -11
-37 -11 -27 11 -26 10 -7 20 -6 20 10 20 11 20 0 21 0 20 -26 10 -25 10 -75 0
-74 0 0 -88z"/>
</g>
</svg>
