<?xml version="1.0" standalone="no"?>
<!DOCTYPE svg PUBLIC "-//W3C//DTD SVG 20010904//EN"
 "http://www.w3.org/TR/2001/REC-SVG-20010904/DTD/svg10.dtd">
<svg version="1.0" xmlns="http://www.w3.org/2000/svg"
 width="64.000000pt" height="64.000000pt" viewBox="0 0 64.000000 64.000000"
 preserveAspectRatio="xMidYMid meet">
<metadata>
Created by potrace 1.16, written by Peter Selinger 2001-2019
</metadata>
<g transform="translate(0.000000,64.000000) scale(0.100000,-0.100000)"
fill="#000000" stroke="none">
<path d="M0 567 l0 -73 13 -18 14 -19 37 13 37 12 20 -18 19 -17 0 -57 0 -58
-26 -17 -25 -16 -32 10 -31 11 -10 -10 -10 -10 -1 -83 0 -82 92 -3 91 -3 12
-14 12 -14 -14 -36 -13 -37 20 -14 19 -14 25 1 26 1 25 7 25 7 0 24 0 25 60
16 60 17 29 11 29 12 -6 6 -6 6 9 16 8 17 11 78 11 79 12 14 12 15 33 -7 33
-6 9 23 8 23 -4 12 -4 11 -30 12 -29 13 -41 -7 -41 -7 7 107 7 107 -18 -7 -19
-8 -68 -13 -67 -13 -15 -12 -15 -12 11 -19 10 -19 -10 -19 -10 -19 -17 -6 -16
-6 -22 0 -23 0 -18 20 -18 20 6 32 5 33 4 14 3 14 -25 14 -25 13 -77 0 -78 0
0 -73z"/>
</g>
</svg>
