<?xml version="1.0" standalone="no"?>
<!DOCTYPE svg PUBLIC "-//W3C//DTD SVG 20010904//EN"
 "http://www.w3.org/TR/2001/REC-SVG-20010904/DTD/svg10.dtd">
<svg version="1.0" xmlns="http://www.w3.org/2000/svg"
 width="83.000000pt" height="57.000000pt" viewBox="0 0 83.000000 57.000000"
 preserveAspectRatio="xMidYMid meet">
<metadata>
Created by potrace 1.16, written by Peter Selinger 2001-2019
</metadata>
<g transform="translate(0.000000,57.000000) scale(0.100000,-0.100000)"
fill="#000000" stroke="none">
<path d="M480 555 l-13 -16 13 -24 13 -23 -11 -30 -10 -30 -18 -21 -18 -21
-17 0 -17 0 -23 19 -23 19 13 16 13 16 -6 24 -6 24 -31 11 -32 11 -73 0 -73 0
2 -90 2 -91 -14 -8 -14 -9 -31 9 -31 9 -22 0 -22 0 -15 -16 -16 -15 0 -45 0
-44 32 -21 33 -20 70 3 70 3 3 -21 3 -22 -21 -58 -21 -59 -6 -19 -6 -18 96 3
95 4 22 20 22 20 -4 37 -3 38 13 5 14 5 24 -6 24 -6 0 -28 0 -28 13 -10 12
-10 75 -15 75 -16 22 -7 22 -6 3 93 3 94 54 -3 53 -3 19 17 19 17 0 52 0 52
-20 18 -20 18 -37 -6 -38 -5 -15 -3 -15 -4 -3 96 -3 97 -27 11 -27 11 -45 10
-45 10 -21 0 -22 0 -12 -15z"/>
</g>
</svg>
