<?xml version="1.0" standalone="no"?>
<!DOCTYPE svg PUBLIC "-//W3C//DTD SVG 20010904//EN"
 "http://www.w3.org/TR/2001/REC-SVG-20010904/DTD/svg10.dtd">
<svg version="1.0" xmlns="http://www.w3.org/2000/svg"
 width="54.000000pt" height="57.000000pt" viewBox="0 0 54.000000 57.000000"
 preserveAspectRatio="xMidYMid meet">
<metadata>
Created by potrace 1.16, written by Peter Selinger 2001-2019
</metadata>
<g transform="translate(0.000000,57.000000) scale(0.100000,-0.100000)"
fill="#000000" stroke="none">
<path d="M325 556 l-19 -14 13 -24 13 -25 -13 -41 -12 -42 -17 -15 -18 -16
-33 9 -34 8 3 52 4 52 -36 15 -35 15 -64 0 -64 0 -7 -89 -6 -88 5 -15 6 -14
54 0 54 1 20 -22 21 -22 0 -20 0 -20 -13 -8 -12 -7 -21 2 -21 3 -11 -28 -10
-28 -26 -77 -26 -76 0 -11 0 -11 78 0 77 0 34 21 33 20 -4 50 -5 49 23 6 23 6
28 -10 28 -9 -3 -30 -3 -30 13 -10 13 -11 79 -21 79 -22 10 10 10 10 -9 83 -9
83 -48 0 -48 0 -15 19 -14 20 0 33 0 33 25 10 26 10 42 -10 42 -10 8 0 7 0 0
48 0 47 -7 68 -6 67 -51 14 -51 15 -40 6 -40 6 -20 -15z"/>
</g>
</svg>
