<?xml version="1.0" standalone="no"?>
<!DOCTYPE svg PUBLIC "-//W3C//DTD SVG 20010904//EN"
 "http://www.w3.org/TR/2001/REC-SVG-20010904/DTD/svg10.dtd">
<svg version="1.0" xmlns="http://www.w3.org/2000/svg"
 width="52.000000pt" height="55.000000pt" viewBox="0 0 52.000000 55.000000"
 preserveAspectRatio="xMidYMid meet">
<metadata>
Created by potrace 1.16, written by Peter Selinger 2001-2019
</metadata>
<g transform="translate(0.000000,55.000000) scale(0.100000,-0.100000)"
fill="#000000" stroke="none">
<path d="M328 539 l-18 -10 12 -19 12 -19 -12 -48 -13 -48 -19 -19 -19 -19
-43 9 -43 10 3 52 3 53 -35 14 -35 15 -54 0 -54 0 -6 -81 -7 -82 8 -11 7 -11
52 0 53 -1 20 -21 20 -22 0 -28 -1 -28 -14 -19 -14 -19 -16 13 -15 13 -6 -6
-6 -6 -28 -83 -28 -83 -7 -17 -7 -18 68 0 69 0 34 21 33 20 -6 49 -7 49 26 7
26 6 31 -6 31 -6 13 -11 14 -11 -11 -20 -11 -20 14 -13 13 -13 73 -20 74 -20
5 13 4 13 -8 69 -8 68 -46 -3 -47 -3 -16 23 -16 22 0 43 0 43 28 11 27 11 48
-10 47 -9 0 36 0 36 -7 68 -6 67 -51 14 -51 14 -30 5 -30 6 -17 -10z"/>
</g>
</svg>
