<?xml version="1.0" standalone="no"?>
<!DOCTYPE svg PUBLIC "-//W3C//DTD SVG 20010904//EN"
 "http://www.w3.org/TR/2001/REC-SVG-20010904/DTD/svg10.dtd">
<svg version="1.0" xmlns="http://www.w3.org/2000/svg"
 width="66.000000pt" height="68.000000pt" viewBox="0 0 66.000000 68.000000"
 preserveAspectRatio="xMidYMid meet">
<metadata>
Created by potrace 1.16, written by Peter Selinger 2001-2019
</metadata>
<g transform="translate(0.000000,68.000000) scale(0.100000,-0.100000)"
fill="#000000" stroke="none">
<path d="M345 613 l6 -68 -18 -22 -18 -23 -30 -9 -30 -8 -22 8 -22 8 -7 25 -6
26 -1 22 -1 23 8 33 8 32 -100 0 -100 0 -7 -40 -7 -40 7 -40 7 -41 22 -14 23
-15 32 11 33 12 9 -14 9 -14 0 -56 0 -55 -14 -19 -14 -19 -25 11 -25 12 -11
-13 -11 -13 -13 -77 -13 -76 4 -5 5 -5 54 0 54 0 20 -11 20 -10 -7 -48 -6 -47
26 -17 25 -17 39 0 40 0 13 17 14 16 -2 56 -1 56 -4 20 -3 20 60 -1 60 -1 46
-20 47 -21 15 57 15 56 7 32 7 33 10 6 10 6 11 -11 11 -11 13 0 12 0 16 30 15
29 0 35 0 35 -11 25 -12 25 -29 6 -28 7 -40 -7 -40 -7 4 14 4 13 6 71 6 71
-57 12 -56 11 -34 0 -34 0 6 -67z"/>
</g>
</svg>
