<?xml version="1.0" standalone="no"?>
<!DOCTYPE svg PUBLIC "-//W3C//DTD SVG 20010904//EN"
 "http://www.w3.org/TR/2001/REC-SVG-20010904/DTD/svg10.dtd">
<svg version="1.0" xmlns="http://www.w3.org/2000/svg"
 width="81.000000pt" height="58.000000pt" viewBox="0 0 81.000000 58.000000"
 preserveAspectRatio="xMidYMid meet">
<metadata>
Created by potrace 1.16, written by Peter Selinger 2001-2019
</metadata>
<g transform="translate(0.000000,58.000000) scale(0.100000,-0.100000)"
fill="#000000" stroke="none">
<path d="M475 526 l7 -54 -20 -20 -21 -21 -35 -7 -36 -6 -26 17 -26 17 6 21 7
22 6 33 6 32 -100 0 -100 0 -6 -75 -5 -75 -23 -31 -22 -31 -43 7 -44 6 0 -54
0 -54 19 -17 20 -18 58 4 58 3 3 -35 4 -35 -17 -63 -17 -63 3 -3 4 -3 84 6 83
6 20 25 20 25 -5 37 -5 37 15 5 15 6 24 0 23 0 17 -32 16 -31 -12 -38 -13 -38
16 -15 16 -16 37 0 37 0 64 12 65 12 13 20 14 21 13 80 13 80 28 -3 29 -3 24
16 24 15 0 49 0 49 -15 12 -15 13 -51 -5 -51 -5 -10 26 -10 26 6 71 5 70 -44
12 -45 12 -56 0 -55 0 6 -54z"/>
</g>
</svg>
