<?xml version="1.0" standalone="no"?>
<!DOCTYPE svg PUBLIC "-//W3C//DTD SVG 20010904//EN"
 "http://www.w3.org/TR/2001/REC-SVG-20010904/DTD/svg10.dtd">
<svg version="1.0" xmlns="http://www.w3.org/2000/svg"
 width="66.000000pt" height="54.000000pt" viewBox="0 0 66.000000 54.000000"
 preserveAspectRatio="xMidYMid meet">
<metadata>
Created by potrace 1.16, written by Peter Selinger 2001-2019
</metadata>
<g transform="translate(0.000000,54.000000) scale(0.100000,-0.100000)"
fill="#000000" stroke="none">
<path d="M361 529 l-23 -9 8 -18 7 -17 -1 -27 -1 -27 -17 -26 -17 -26 -41 3
-41 3 0 52 0 52 -11 11 -11 11 -56 6 -55 6 -36 -7 -36 -7 0 -77 0 -77 8 -10 7
-11 65 1 64 0 14 -29 14 -28 -11 -25 -11 -24 -37 -15 -36 -16 -51 4 -51 3 -3
-26 -3 -26 14 -61 14 -61 -11 -4 -11 -4 6 -7 6 -6 99 -2 100 -2 13 8 13 9 -6
59 -7 60 12 14 11 14 24 0 24 0 16 -25 16 -25 -12 -31 -13 -30 12 -12 11 -11
93 -12 92 -12 8 8 9 8 -11 38 -11 39 0 56 0 57 14 5 15 6 35 -6 36 -6 25 17
26 17 -3 27 -3 27 -53 0 -53 0 -9 15 -10 15 0 91 0 92 -47 6 -48 7 -25 4 -25
4 -24 -10z"/>
</g>
</svg>
