<?xml version="1.0" standalone="no"?>
<!DOCTYPE svg PUBLIC "-//W3C//DTD SVG 20010904//EN"
 "http://www.w3.org/TR/2001/REC-SVG-20010904/DTD/svg10.dtd">
<svg version="1.0" xmlns="http://www.w3.org/2000/svg"
 width="68.000000pt" height="56.000000pt" viewBox="0 0 68.000000 56.000000"
 preserveAspectRatio="xMidYMid meet">
<metadata>
Created by potrace 1.16, written by Peter Selinger 2001-2019
</metadata>
<g transform="translate(0.000000,56.000000) scale(0.100000,-0.100000)"
fill="#000000" stroke="none">
<path d="M362 549 l-23 -9 6 -44 7 -44 -18 -26 -17 -27 -31 3 -31 3 3 51 3 51
-15 12 -16 13 -64 5 -64 6 -36 -7 -36 -7 0 -87 0 -87 8 -12 7 -12 65 2 64 2
12 -24 13 -25 -10 -19 -11 -19 -35 -14 -35 -15 -52 3 -51 3 2 -55 1 -55 3 -51
2 -51 81 -6 81 -5 40 7 40 7 0 68 0 69 18 11 18 11 19 -23 20 -24 -10 -18 -10
-19 0 -21 0 -20 23 -10 22 -9 90 -11 89 -10 10 10 10 10 -12 51 -12 51 0 44 0
44 13 1 12 1 38 -2 38 -2 25 17 25 16 -3 37 -3 37 -53 0 -53 1 -9 14 -10 15 0
91 0 92 -75 11 -76 11 -7 -1 -7 0 -23 -10z"/>
</g>
</svg>
