<?xml version="1.0" standalone="no"?>
<!DOCTYPE svg PUBLIC "-//W3C//DTD SVG 20010904//EN"
 "http://www.w3.org/TR/2001/REC-SVG-20010904/DTD/svg10.dtd">
<svg version="1.0" xmlns="http://www.w3.org/2000/svg"
 width="68.000000pt" height="71.000000pt" viewBox="0 0 68.000000 71.000000"
 preserveAspectRatio="xMidYMid meet">
<metadata>
Created by potrace 1.16, written by Peter Selinger 2001-2019
</metadata>
<g transform="translate(0.000000,71.000000) scale(0.100000,-0.100000)"
fill="#000000" stroke="none">
<path d="M475 699 l-7 -10 6 -42 6 -42 -8 -11 -7 -11 -22 -12 -22 -11 -18 0
-18 0 -13 8 -13 9 11 28 11 29 -6 23 -5 22 -38 10 -37 11 -41 0 -41 0 -32 -6
-31 -6 0 -78 0 -78 -6 -16 -6 -16 -53 6 -52 6 -17 -23 -16 -23 0 -31 0 -31 13
-19 14 -18 41 7 41 6 6 -10 7 -11 9 -67 9 -67 6 -28 6 -27 86 0 87 0 14 -9 15
-10 0 -73 1 -73 39 -3 39 -3 24 6 24 6 10 23 11 23 -10 36 -10 36 16 5 17 5
40 6 40 6 31 5 31 4 11 26 12 25 0 76 0 76 -59 -7 -58 -7 -11 13 -10 13 -7 28
-7 27 6 25 6 24 30 -5 29 -6 24 6 24 6 11 25 12 26 0 83 0 83 -52 7 -53 6 -42
0 -42 0 -6 -11z"/>
</g>
</svg>
