<?xml version="1.0" standalone="no"?>
<!DOCTYPE svg PUBLIC "-//W3C//DTD SVG 20010904//EN"
 "http://www.w3.org/TR/2001/REC-SVG-20010904/DTD/svg10.dtd">
<svg version="1.0" xmlns="http://www.w3.org/2000/svg"
 width="68.000000pt" height="65.000000pt" viewBox="0 0 68.000000 65.000000"
 preserveAspectRatio="xMidYMid meet">
<metadata>
Created by potrace 1.16, written by Peter Selinger 2001-2019
</metadata>
<g transform="translate(0.000000,65.000000) scale(0.100000,-0.100000)"
fill="#000000" stroke="none">
<path d="M359 643 l-1 -8 -2 -60 -1 -60 -20 -22 -19 -23 -27 0 -27 0 -26 30
-25 31 -7 33 -6 34 7 21 6 21 -73 0 -73 0 -15 -10 -15 -9 1 -78 1 -78 12 -23
13 -24 31 5 32 5 22 7 21 7 21 -21 21 -21 0 -14 0 -14 -19 -23 -19 -24 -79 1
-78 2 -7 -12 -8 -11 0 -29 0 -30 16 -58 17 -58 73 0 73 0 25 -10 26 -10 -6
-39 -6 -39 23 -13 23 -12 45 1 44 0 8 14 8 13 -5 22 -6 21 59 12 58 12 36 9
36 9 1 12 1 13 11 85 12 85 14 15 14 15 22 -14 22 -14 18 23 18 22 0 32 0 31
-8 12 -8 13 -54 -3 -54 -2 -7 32 -6 33 6 64 7 63 -75 7 -74 6 -24 0 -23 0 -1
-7z"/>
</g>
</svg>
