<?xml version="1.0" standalone="no"?>
<!DOCTYPE svg PUBLIC "-//W3C//DTD SVG 20010904//EN"
 "http://www.w3.org/TR/2001/REC-SVG-20010904/DTD/svg10.dtd">
<svg version="1.0" xmlns="http://www.w3.org/2000/svg"
 width="70.000000pt" height="67.000000pt" viewBox="0 0 70.000000 67.000000"
 preserveAspectRatio="xMidYMid meet">
<metadata>
Created by potrace 1.16, written by Peter Selinger 2001-2019
</metadata>
<g transform="translate(0.000000,67.000000) scale(0.100000,-0.100000)"
fill="#000000" stroke="none">
<path d="M358 664 l-1 -9 -1 -60 -1 -60 -20 -22 -19 -23 -16 0 -17 0 -21 23
-21 22 -11 29 -10 28 6 34 6 34 -83 0 -84 0 -15 -10 -15 -9 1 -88 0 -88 12
-22 13 -23 35 0 35 0 19 10 20 10 20 -20 20 -20 -10 -21 -11 -20 -26 -10 -26
-10 -60 7 -59 7 -9 -14 -9 -14 0 -39 0 -40 16 -58 17 -58 76 -1 76 0 19 -8 19
-7 1 -45 1 -44 38 -12 39 -13 39 6 39 7 6 23 6 23 -6 10 -6 10 57 11 58 12 36
9 37 9 5 43 6 42 7 57 6 57 13 11 13 11 7 -11 6 -10 19 0 19 0 15 22 16 22 0
41 0 40 -9 13 -8 14 -54 -4 -53 -3 -6 30 -5 30 6 65 7 65 -1 2 -2 1 -107 8
-108 7 -2 -9z"/>
</g>
</svg>
