<?xml version="1.0" standalone="no"?>
<!DOCTYPE svg PUBLIC "-//W3C//DTD SVG 20010904//EN"
 "http://www.w3.org/TR/2001/REC-SVG-20010904/DTD/svg10.dtd">
<svg version="1.0" xmlns="http://www.w3.org/2000/svg"
 width="66.000000pt" height="55.000000pt" viewBox="0 0 66.000000 55.000000"
 preserveAspectRatio="xMidYMid meet">
<metadata>
Created by potrace 1.16, written by Peter Selinger 2001-2019
</metadata>
<g transform="translate(0.000000,55.000000) scale(0.100000,-0.100000)"
fill="#000000" stroke="none">
<path d="M475 540 l-6 -10 6 -44 7 -45 -31 -30 -32 -31 -22 0 -23 0 -22 16
-23 16 7 54 6 54 -28 10 -27 11 -71 -3 -71 -3 3 -60 2 -60 -5 -33 -6 -33 -48
7 -48 6 -21 -27 -22 -28 0 -32 0 -32 22 -28 21 -27 59 4 59 4 9 -15 8 -16 -9
-45 -9 -45 -6 -33 -7 -32 95 0 95 0 17 19 18 20 -4 48 -3 48 27 3 28 3 19 -31
19 -32 -11 -29 -11 -29 19 -15 20 -14 76 -1 75 0 17 12 16 13 -14 100 -15 100
0 4 0 4 -41 -6 -40 -5 -11 24 -12 25 10 27 10 27 54 0 55 0 3 106 3 106 -47 7
-47 6 -43 0 -43 0 -6 -10z"/>
</g>
</svg>
