<?xml version="1.0" standalone="no"?>
<!DOCTYPE svg PUBLIC "-//W3C//DTD SVG 20010904//EN"
 "http://www.w3.org/TR/2001/REC-SVG-20010904/DTD/svg10.dtd">
<svg version="1.0" xmlns="http://www.w3.org/2000/svg"
 width="54.000000pt" height="54.000000pt" viewBox="0 0 54.000000 54.000000"
 preserveAspectRatio="xMidYMid meet">
<metadata>
Created by potrace 1.16, written by Peter Selinger 2001-2019
</metadata>
<g transform="translate(0.000000,54.000000) scale(0.100000,-0.100000)"
fill="#000000" stroke="none">
<path d="M0 279 l0 -258 10 -6 10 -6 106 -6 106 -6 -7 54 -6 54 21 23 21 22 9
0 10 0 0 -23 0 -24 18 -16 17 -16 49 -11 48 -10 35 -15 35 -15 25 0 25 0 -7
77 -8 77 -7 25 -7 26 -42 0 -43 0 -14 26 -13 26 13 18 13 18 46 -12 46 -13 16
15 15 16 0 105 0 106 -98 0 -98 0 -18 -13 -19 -14 14 -36 13 -37 -21 -27 -20
-28 -34 -3 -34 -3 -19 14 -20 15 13 41 12 42 -6 19 -6 20 -38 10 -39 10 -61
-1 -61 -2 0 -258z"/>
</g>
</svg>
