<?xml version="1.0" standalone="no"?>
<!DOCTYPE svg PUBLIC "-//W3C//DTD SVG 20010904//EN"
 "http://www.w3.org/TR/2001/REC-SVG-20010904/DTD/svg10.dtd">
<svg version="1.0" xmlns="http://www.w3.org/2000/svg"
 width="52.000000pt" height="52.000000pt" viewBox="0 0 52.000000 52.000000"
 preserveAspectRatio="xMidYMid meet">
<metadata>
Created by potrace 1.16, written by Peter Selinger 2001-2019
</metadata>
<g transform="translate(0.000000,52.000000) scale(0.100000,-0.100000)"
fill="#000000" stroke="none">
<path d="M0 268 l0 -247 9 -6 10 -5 95 -7 95 -6 -6 54 -5 54 21 23 22 22 14 0
13 0 16 -6 17 -6 -12 -14 -12 -14 18 -20 17 -19 32 -6 31 -6 62 -21 63 -22 5
6 6 6 -10 81 -11 82 -5 10 -6 9 -19 0 -19 0 -6 -10 -6 -10 -18 10 -18 9 -12
30 -13 29 12 21 11 21 24 0 24 0 26 -10 26 -10 15 14 14 15 0 95 0 96 -86 0
-85 0 -20 -10 -19 -11 10 -19 10 -19 0 -25 0 -25 -23 -27 -24 -27 -37 1 -36 1
-20 11 -20 11 0 24 0 24 10 25 9 26 -5 15 -6 15 -39 10 -39 11 -50 -3 -50 -3
0 -247z"/>
</g>
</svg>
