<?xml version="1.0" standalone="no"?>
<!DOCTYPE svg PUBLIC "-//W3C//DTD SVG 20010904//EN"
 "http://www.w3.org/TR/2001/REC-SVG-20010904/DTD/svg10.dtd">
<svg version="1.0" xmlns="http://www.w3.org/2000/svg"
 width="68.000000pt" height="68.000000pt" viewBox="0 0 68.000000 68.000000"
 preserveAspectRatio="xMidYMid meet">
<metadata>
Created by potrace 1.16, written by Peter Selinger 2001-2019
</metadata>
<g transform="translate(0.000000,68.000000) scale(0.100000,-0.100000)"
fill="#000000" stroke="none">
<path d="M168 673 l-18 -4 0 -100 0 -99 -12 -1 -13 -2 -55 -1 -54 -1 -10 -27
-10 -28 17 -34 16 -34 21 -7 21 -7 15 13 15 12 10 -10 10 -10 11 -96 11 -96
51 5 51 5 31 4 32 3 -5 -56 -5 -57 21 -22 22 -23 48 0 49 0 14 23 15 22 6 26
7 26 -9 30 -9 31 21 6 21 5 74 -11 73 -11 5 6 6 6 -13 97 -14 97 -17 11 -18
11 -19 -12 -19 -12 -10 12 -9 12 -7 19 -6 19 16 24 16 25 56 -4 57 -3 -1 23 0
22 -2 85 -2 85 -91 0 -90 0 -21 -11 -20 -11 7 -35 6 -34 5 -14 6 -13 -21 -21
-21 -21 -29 0 -30 0 -21 28 -22 27 6 35 5 35 7 23 6 22 -83 -1 -84 -1 -17 -5z"/>
</g>
</svg>
