<?xml version="1.0" standalone="no"?>
<!DOCTYPE svg PUBLIC "-//W3C//DTD SVG 20010904//EN"
 "http://www.w3.org/TR/2001/REC-SVG-20010904/DTD/svg10.dtd">
<svg version="1.0" xmlns="http://www.w3.org/2000/svg"
 width="78.000000pt" height="55.000000pt" viewBox="0 0 78.000000 55.000000"
 preserveAspectRatio="xMidYMid meet">
<metadata>
Created by potrace 1.16, written by Peter Selinger 2001-2019
</metadata>
<g transform="translate(0.000000,55.000000) scale(0.100000,-0.100000)"
fill="#000000" stroke="none">
<path d="M473 542 l-12 -8 10 -41 11 -41 -17 -26 -17 -26 -25 -6 -24 -6 -35 5
-36 6 -15 13 -15 12 6 42 5 42 -22 6 -22 6 -52 0 -51 0 -16 -6 -16 -6 0 -89 0
-90 -16 -6 -17 -6 -29 11 -29 11 -20 -20 -19 -19 0 -31 0 -30 11 -20 11 -21
38 7 37 6 6 -23 5 -23 8 -70 8 -70 -2 -7 -2 -8 85 0 85 0 21 21 20 20 -3 52
-3 52 39 9 38 10 24 -27 23 -27 -9 -26 -10 -25 0 -14 0 -13 31 -11 32 -11 46
0 46 0 31 -9 31 -9 19 103 18 103 13 18 13 17 26 -12 27 -12 8 13 9 13 0 20 0
21 -16 22 -16 23 -42 -6 -42 -7 -13 16 -13 15 4 84 3 85 -66 16 -67 16 -13 0
-14 0 -12 -8z"/>
</g>
</svg>
