<?xml version="1.0" standalone="no"?>
<!DOCTYPE svg PUBLIC "-//W3C//DTD SVG 20010904//EN"
 "http://www.w3.org/TR/2001/REC-SVG-20010904/DTD/svg10.dtd">
<svg version="1.0" xmlns="http://www.w3.org/2000/svg"
 width="54.000000pt" height="69.000000pt" viewBox="0 0 54.000000 69.000000"
 preserveAspectRatio="xMidYMid meet">
<metadata>
Created by potrace 1.16, written by Peter Selinger 2001-2019
</metadata>
<g transform="translate(0.000000,69.000000) scale(0.100000,-0.100000)"
fill="#000000" stroke="none">
<path d="M337 612 l6 -78 -12 -22 -12 -22 -33 0 -34 0 -13 17 -14 16 0 66 -1
66 -102 1 -102 0 0 -90 0 -91 10 -15 9 -15 53 0 53 0 3 -27 3 -27 -26 -17 -25
-17 -38 6 -37 6 -14 -8 -14 -9 7 -78 7 -79 2 -22 2 -23 93 0 93 0 19 -10 19
-10 -6 -53 -5 -52 25 -14 25 -13 20 6 20 7 12 29 12 29 -4 53 -3 53 31 3 31 3
64 -15 64 -15 8 8 7 7 -2 244 -3 244 -55 18 -55 17 -47 0 -47 1 6 -78z"/>
</g>
</svg>
