<?xml version="1.0" standalone="no"?>
<!DOCTYPE svg PUBLIC "-//W3C//DTD SVG 20010904//EN"
 "http://www.w3.org/TR/2001/REC-SVG-20010904/DTD/svg10.dtd">
<svg version="1.0" xmlns="http://www.w3.org/2000/svg"
 width="56.000000pt" height="71.000000pt" viewBox="0 0 56.000000 71.000000"
 preserveAspectRatio="xMidYMid meet">
<metadata>
Created by potrace 1.16, written by Peter Selinger 2001-2019
</metadata>
<g transform="translate(0.000000,71.000000) scale(0.100000,-0.100000)"
fill="#000000" stroke="none">
<path d="M335 632 l7 -79 -11 -21 -12 -22 -23 0 -24 0 -13 17 -14 16 0 66 0
66 -112 2 -113 2 0 -104 0 -104 17 -16 17 -17 43 6 44 6 6 -17 6 -16 -23 -19
-23 -19 -41 6 -41 6 -14 -10 -14 -9 7 -88 6 -89 0 -22 0 -23 98 0 97 0 14 -9
15 -10 -3 -51 -3 -52 19 -14 18 -13 25 -1 25 0 11 8 11 7 12 23 12 23 -2 57
-3 57 18 3 17 4 76 -17 75 -17 9 9 9 9 -2 254 -3 254 -55 18 -55 17 -58 0 -58
1 6 -78z"/>
</g>
</svg>
