<?xml version="1.0" standalone="no"?>
<!DOCTYPE svg PUBLIC "-//W3C//DTD SVG 20010904//EN"
 "http://www.w3.org/TR/2001/REC-SVG-20010904/DTD/svg10.dtd">
<svg version="1.0" xmlns="http://www.w3.org/2000/svg"
 width="53.000000pt" height="70.000000pt" viewBox="0 0 53.000000 70.000000"
 preserveAspectRatio="xMidYMid meet">
<metadata>
Created by potrace 1.16, written by Peter Selinger 2001-2019
</metadata>
<g transform="translate(0.000000,70.000000) scale(0.100000,-0.100000)"
fill="#000000" stroke="none">
<path d="M312 687 l-11 -13 9 -14 10 -15 0 -21 0 -21 -21 -27 -21 -27 -52 3
-51 3 3 29 3 29 -5 23 -6 23 -42 12 -42 11 -43 -7 -43 -6 0 -78 0 -77 14 -19
13 -18 45 6 45 6 12 -25 11 -25 0 -13 0 -14 -20 -23 -19 -24 -1 13 0 12 -19 0
-19 0 -10 -13 -11 -12 -12 -70 -12 -70 -8 -22 -8 -21 15 -6 16 -6 58 0 59 0
25 -12 26 -11 5 -18 6 -18 -12 -41 -12 -40 19 -15 19 -14 28 -1 29 0 30 22 30
21 -6 43 -6 43 38 10 37 9 58 7 57 6 0 3 0 3 -15 97 -14 96 -6 11 -7 10 -46
-3 -46 -3 -10 28 -10 28 15 27 15 27 56 -3 56 -3 6 18 5 18 1 40 2 40 -1 41
-1 41 -77 11 -78 12 -21 0 -22 0 -10 -13z"/>
</g>
</svg>
