<?xml version="1.0" standalone="no"?>
<!DOCTYPE svg PUBLIC "-//W3C//DTD SVG 20010904//EN"
 "http://www.w3.org/TR/2001/REC-SVG-20010904/DTD/svg10.dtd">
<svg version="1.0" xmlns="http://www.w3.org/2000/svg"
 width="69.000000pt" height="66.000000pt" viewBox="0 0 69.000000 66.000000"
 preserveAspectRatio="xMidYMid meet">
<metadata>
Created by potrace 1.16, written by Peter Selinger 2001-2019
</metadata>
<g transform="translate(0.000000,66.000000) scale(0.100000,-0.100000)"
fill="#000000" stroke="none">
<path d="M483 653 l-13 -5 6 -53 7 -53 -6 -24 -7 -25 -25 -11 -26 -12 -29 0
-29 0 -20 26 -21 27 0 29 0 29 11 21 11 21 -13 8 -14 9 -56 0 -57 0 -31 -6
-31 -6 0 -80 0 -79 -26 -25 -25 -26 -22 6 -22 6 -22 6 -23 6 0 -50 0 -50 14
-11 14 -12 27 7 26 6 14 -18 14 -19 6 -45 7 -45 9 -37 10 -38 77 0 78 0 17
-13 18 -12 -12 -33 -12 -34 17 -16 17 -17 49 1 50 0 21 20 21 19 -6 47 -6 46
20 7 20 6 47 -7 48 -7 22 -8 22 -8 15 42 15 42 6 37 6 38 -11 20 -11 20 -58
-6 -58 -6 -21 27 -22 28 0 23 0 23 24 28 24 27 37 -12 38 -11 8 5 7 4 7 31 7
31 -7 63 -6 62 -69 12 -69 11 -8 -1 -8 -1 -12 -5z"/>
</g>
</svg>
