<?xml version="1.0" standalone="no"?>
<!DOCTYPE svg PUBLIC "-//W3C//DTD SVG 20010904//EN"
 "http://www.w3.org/TR/2001/REC-SVG-20010904/DTD/svg10.dtd">
<svg version="1.0" xmlns="http://www.w3.org/2000/svg"
 width="81.000000pt" height="66.000000pt" viewBox="0 0 81.000000 66.000000"
 preserveAspectRatio="xMidYMid meet">
<metadata>
Created by potrace 1.16, written by Peter Selinger 2001-2019
</metadata>
<g transform="translate(0.000000,66.000000) scale(0.100000,-0.100000)"
fill="#000000" stroke="none">
<path d="M125 631 l6 -29 1 -70 0 -70 -7 -11 -7 -12 -59 7 -60 7 3 -64 3 -64
35 0 35 1 12 -16 12 -15 8 -55 8 -55 -3 -27 -3 -28 78 0 79 0 23 -16 23 -16
-7 -49 -7 -49 64 0 64 0 22 16 23 16 -2 66 -2 66 11 4 11 3 61 -15 62 -16 11
0 12 0 13 9 14 8 -16 53 -16 54 0 37 0 38 63 -5 62 -6 28 11 27 11 0 53 0 53
-16 22 -15 22 -28 0 -27 0 -10 -10 -10 -10 -20 14 -19 14 0 76 0 76 -273 0
-274 0 7 -29z"/>
</g>
</svg>
