<?xml version="1.0" standalone="no"?>
<!DOCTYPE svg PUBLIC "-//W3C//DTD SVG 20010904//EN"
 "http://www.w3.org/TR/2001/REC-SVG-20010904/DTD/svg10.dtd">
<svg version="1.0" xmlns="http://www.w3.org/2000/svg"
 width="79.000000pt" height="64.000000pt" viewBox="0 0 79.000000 64.000000"
 preserveAspectRatio="xMidYMid meet">
<metadata>
Created by potrace 1.16, written by Peter Selinger 2001-2019
</metadata>
<g transform="translate(0.000000,64.000000) scale(0.100000,-0.100000)"
fill="#000000" stroke="none">
<path d="M131 573 l7 -68 -7 -40 -7 -40 -62 2 -63 3 3 -53 3 -52 36 3 35 2 12
-22 11 -23 11 -61 10 -61 -6 -17 -6 -16 79 0 79 0 23 -16 23 -17 -5 -48 -6
-49 52 0 53 0 23 16 23 16 -4 67 -3 66 22 3 22 3 61 -15 60 -16 15 6 15 6 -6
9 -5 9 -14 66 -14 66 9 23 8 22 50 -10 50 -11 33 10 34 10 3 43 3 43 -16 24
-15 24 -18 0 -18 0 -12 -12 -11 -11 -25 11 -25 11 -6 35 -7 35 4 46 3 45 -261
0 -260 0 7 -67z"/>
</g>
</svg>
