<?xml version="1.0" standalone="no"?>
<!DOCTYPE svg PUBLIC "-//W3C//DTD SVG 20010904//EN"
 "http://www.w3.org/TR/2001/REC-SVG-20010904/DTD/svg10.dtd">
<svg version="1.0" xmlns="http://www.w3.org/2000/svg"
 width="72.000000pt" height="71.000000pt" viewBox="0 0 72.000000 71.000000"
 preserveAspectRatio="xMidYMid meet">
<metadata>
Created by potrace 1.16, written by Peter Selinger 2001-2019
</metadata>
<g transform="translate(0.000000,71.000000) scale(0.100000,-0.100000)"
fill="#000000" stroke="none">
<path d="M251 691 l-20 -20 -6 -33 -5 -33 2 -30 3 -30 -97 3 -98 3 0 -86 0
-85 21 -21 21 -21 37 6 36 5 19 3 20 3 10 -27 10 -27 -20 -22 -19 -21 -80 4
-80 3 -3 -49 -3 -50 16 -65 16 -66 87 3 87 3 9 9 8 8 -12 37 -12 36 6 23 6 23
25 11 26 12 19 0 19 0 17 -32 16 -32 -6 -62 -6 -62 25 -6 25 -6 72 16 73 16
15 1 15 2 7 9 6 9 -9 24 -9 24 0 57 0 57 9 13 8 14 21 -13 20 -13 39 12 39 12
22 20 22 21 0 28 0 29 -18 22 -18 23 -22 -12 -21 -11 -24 0 -24 0 -18 20 -19
21 -5 72 -6 72 -77 -3 -76 -4 -22 7 -21 7 6 53 7 54 -25 25 -26 26 -21 0 -20
0 -19 -19z"/>
</g>
</svg>
