<?xml version="1.0" standalone="no"?>
<!DOCTYPE svg PUBLIC "-//W3C//DTD SVG 20010904//EN"
 "http://www.w3.org/TR/2001/REC-SVG-20010904/DTD/svg10.dtd">
<svg version="1.0" xmlns="http://www.w3.org/2000/svg"
 width="55.000000pt" height="72.000000pt" viewBox="0 0 55.000000 72.000000"
 preserveAspectRatio="xMidYMid meet">
<metadata>
Created by potrace 1.16, written by Peter Selinger 2001-2019
</metadata>
<g transform="translate(0.000000,72.000000) scale(0.100000,-0.100000)"
fill="#000000" stroke="none">
<path d="M201 711 l-14 -9 6 -61 5 -60 -12 -10 -12 -10 -84 -3 -85 -3 0 -105
0 -105 62 3 63 3 20 -11 20 -11 0 -24 0 -23 -12 -5 -13 -4 -18 9 -19 10 -24
-6 -23 -6 -9 -38 -10 -37 -16 -65 -17 -65 -6 -22 -5 -23 82 0 82 0 35 17 35
16 -5 50 -4 49 23 10 24 11 26 -11 25 -12 14 -34 14 -33 -11 -31 -12 -30 13
-16 13 -16 48 0 48 0 52 17 51 16 -5 21 -5 21 -7 92 -7 93 -13 11 -14 11 -30
-4 -30 -5 -16 18 -16 17 25 17 26 16 45 -6 46 -7 0 110 0 110 -16 6 -16 6 -56
0 -57 0 -23 6 -22 6 6 50 7 49 -23 24 -23 25 -56 0 -56 0 -14 -9z"/>
</g>
</svg>
