<?xml version="1.0" standalone="no"?>
<!DOCTYPE svg PUBLIC "-//W3C//DTD SVG 20010904//EN"
 "http://www.w3.org/TR/2001/REC-SVG-20010904/DTD/svg10.dtd">
<svg version="1.0" xmlns="http://www.w3.org/2000/svg"
 width="53.000000pt" height="70.000000pt" viewBox="0 0 53.000000 70.000000"
 preserveAspectRatio="xMidYMid meet">
<metadata>
Created by potrace 1.16, written by Peter Selinger 2001-2019
</metadata>
<g transform="translate(0.000000,70.000000) scale(0.100000,-0.100000)"
fill="#000000" stroke="none">
<path d="M201 691 l-14 -9 7 -59 7 -60 -14 -11 -13 -11 -84 -3 -85 -3 0 -95 0
-95 65 3 65 3 17 -13 17 -13 1 -15 2 -15 -1 -17 -1 -17 -20 -6 -19 -6 -20 10
-20 11 -15 -6 -16 -6 -9 -37 -9 -36 -14 -60 -15 -60 -8 -17 -7 -18 72 0 72 0
35 16 34 17 -3 50 -3 51 28 10 27 10 28 -10 27 -9 19 -39 19 -39 -11 -30 -12
-30 11 -14 11 -13 38 0 38 0 48 16 49 16 -10 101 -10 102 -9 14 -8 13 -31 -6
-30 -6 -19 16 -18 17 0 13 0 14 25 16 26 17 44 -6 45 -7 0 99 0 99 -16 6 -16
6 -56 0 -57 0 -24 7 -23 6 6 50 7 50 -22 23 -22 24 -46 0 -46 0 -14 -9z"/>
</g>
</svg>
