<?xml version="1.0" standalone="no"?>
<!DOCTYPE svg PUBLIC "-//W3C//DTD SVG 20010904//EN"
 "http://www.w3.org/TR/2001/REC-SVG-20010904/DTD/svg10.dtd">
<svg version="1.0" xmlns="http://www.w3.org/2000/svg"
 width="80.000000pt" height="69.000000pt" viewBox="0 0 80.000000 69.000000"
 preserveAspectRatio="xMidYMid meet">
<metadata>
Created by potrace 1.16, written by Peter Selinger 2001-2019
</metadata>
<g transform="translate(0.000000,69.000000) scale(0.100000,-0.100000)"
fill="#000000" stroke="none">
<path d="M352 683 l-23 -5 -11 -24 -11 -24 11 -38 12 -37 -17 -12 -17 -13 -83
0 -83 0 0 -86 0 -85 -10 -19 -10 -20 -46 7 -46 6 -9 -14 -9 -14 0 -35 0 -35 8
-12 8 -12 29 2 30 2 12 -55 13 -55 15 -52 16 -53 87 0 87 1 19 14 19 14 -6 38
-5 38 -7 16 -6 17 34 11 34 12 26 -10 25 -10 5 -8 5 -9 -11 -41 -11 -41 13
-15 12 -15 92 -4 92 -3 13 12 13 13 -10 37 -11 38 0 33 0 32 49 0 49 0 31 29
31 29 0 45 0 45 -6 16 -6 16 -27 -1 -26 0 -20 -9 -20 -8 -17 16 -18 15 0 76 0
76 -8 12 -8 12 -99 29 -100 29 3 30 3 30 -13 11 -13 10 -25 5 -25 5 -23 -5z"/>
</g>
</svg>
