<?xml version="1.0" standalone="no"?>
<!DOCTYPE svg PUBLIC "-//W3C//DTD SVG 20010904//EN"
 "http://www.w3.org/TR/2001/REC-SVG-20010904/DTD/svg10.dtd">
<svg version="1.0" xmlns="http://www.w3.org/2000/svg"
 width="56.000000pt" height="67.000000pt" viewBox="0 0 56.000000 67.000000"
 preserveAspectRatio="xMidYMid meet">
<metadata>
Created by potrace 1.16, written by Peter Selinger 2001-2019
</metadata>
<g transform="translate(0.000000,67.000000) scale(0.100000,-0.100000)"
fill="#000000" stroke="none">
<path d="M232 660 l-22 -10 -7 -16 -6 -16 12 -36 11 -37 -21 -17 -21 -18 -79
0 -79 0 0 -83 0 -84 19 -17 19 -17 42 12 42 13 9 -15 9 -14 0 -38 0 -39 -32
-30 -32 -29 -45 3 -46 3 -3 -42 -3 -42 10 -36 9 -35 -9 0 -9 0 0 -10 0 -10
103 0 103 0 12 12 11 11 -6 58 -6 59 13 15 12 15 32 0 31 0 14 -9 15 -10 -13
-27 -12 -27 13 -13 13 -12 74 -22 75 -22 22 -14 22 -15 5 14 5 13 12 76 12 75
-11 22 -12 21 -17 -1 -17 -1 -25 -7 -25 -8 -28 10 -29 10 -7 21 -8 21 9 28 10
27 23 6 23 6 22 -12 22 -12 19 18 19 17 0 82 0 82 -37 16 -38 16 -65 17 -65
16 -7 11 -8 12 6 27 6 28 -27 10 -26 10 -7 -1 -7 0 -23 -9z"/>
</g>
</svg>
