<?xml version="1.0" standalone="no"?>
<!DOCTYPE svg PUBLIC "-//W3C//DTD SVG 20010904//EN"
 "http://www.w3.org/TR/2001/REC-SVG-20010904/DTD/svg10.dtd">
<svg version="1.0" xmlns="http://www.w3.org/2000/svg"
 width="58.000000pt" height="69.000000pt" viewBox="0 0 58.000000 69.000000"
 preserveAspectRatio="xMidYMid meet">
<metadata>
Created by potrace 1.16, written by Peter Selinger 2001-2019
</metadata>
<g transform="translate(0.000000,69.000000) scale(0.100000,-0.100000)"
fill="#000000" stroke="none">
<path d="M230 677 l-25 -13 0 -57 0 -58 -15 -9 -15 -10 -77 0 -78 0 0 -93 0
-94 20 -18 21 -19 42 11 42 11 7 -11 8 -12 0 -28 0 -29 -31 -29 -32 -30 -46 3
-46 3 -1 -97 -1 -98 112 0 113 0 11 14 11 13 -2 63 -3 62 16 11 16 10 26 -7
25 -6 -11 -29 -11 -29 12 -15 12 -14 63 -18 62 -17 43 -21 43 -21 9 14 8 14
13 83 12 83 -12 26 -12 26 -54 -7 -54 -6 -20 11 -21 11 0 24 0 24 16 16 17 16
16 -7 16 -6 18 -5 18 -6 19 18 20 18 0 92 0 92 -37 16 -38 17 -67 16 -68 16
-1 12 -1 11 2 27 1 28 -26 10 -26 10 -17 0 -17 0 -25 -13z"/>
</g>
</svg>
