<?xml version="1.0" standalone="no"?>
<!DOCTYPE svg PUBLIC "-//W3C//DTD SVG 20010904//EN"
 "http://www.w3.org/TR/2001/REC-SVG-20010904/DTD/svg10.dtd">
<svg version="1.0" xmlns="http://www.w3.org/2000/svg"
 width="68.000000pt" height="83.000000pt" viewBox="0 0 68.000000 83.000000"
 preserveAspectRatio="xMidYMid meet">
<metadata>
Created by potrace 1.16, written by Peter Selinger 2001-2019
</metadata>
<g transform="translate(0.000000,83.000000) scale(0.100000,-0.100000)"
fill="#000000" stroke="none">
<path d="M223 819 l-12 -12 6 -47 6 -48 -24 -13 -24 -14 -85 -5 -85 -5 0 -250
0 -250 46 3 47 3 40 -10 40 -11 6 -15 5 -15 -9 -26 -10 -25 0 -24 0 -24 20
-11 20 -11 36 -1 37 -1 24 27 23 27 0 25 0 25 -10 19 -10 19 19 11 20 10 85 0
84 0 -5 73 -6 73 12 22 12 22 19 -10 19 -10 26 0 26 0 29 30 30 31 0 24 0 25
-21 21 -21 21 -59 -6 -58 -7 -6 34 -7 34 4 64 3 64 -20 -2 -20 -3 -75 -6 -75
-7 -13 16 -13 15 11 47 11 48 -16 23 -15 24 -28 0 -28 0 -11 -11z"/>
</g>
</svg>
