<?xml version="1.0" standalone="no"?>
<!DOCTYPE svg PUBLIC "-//W3C//DTD SVG 20010904//EN"
 "http://www.w3.org/TR/2001/REC-SVG-20010904/DTD/svg10.dtd">
<svg version="1.0" xmlns="http://www.w3.org/2000/svg"
 width="69.000000pt" height="72.000000pt" viewBox="0 0 69.000000 72.000000"
 preserveAspectRatio="xMidYMid meet">
<metadata>
Created by potrace 1.16, written by Peter Selinger 2001-2019
</metadata>
<g transform="translate(0.000000,72.000000) scale(0.100000,-0.100000)"
fill="#000000" stroke="none">
<path d="M210 705 l-13 -16 12 -40 12 -41 -17 -19 -17 -19 -87 0 -87 0 -7 -77
-6 -76 0 -44 0 -45 50 7 51 7 29 -12 30 -12 0 -13 0 -12 -18 -16 -18 -17 -51
7 -51 6 -5 -19 -6 -19 -3 -95 -3 -95 75 -3 75 -3 36 10 37 11 6 23 5 23 -10
38 -10 38 5 14 5 14 35 0 35 0 20 -26 21 -26 9 -35 10 -35 -11 -18 -12 -19 12
-25 12 -26 37 0 37 0 58 17 58 17 0 9 0 8 15 15 14 15 21 68 20 68 25 -4 24
-5 7 28 7 28 1 43 1 42 -17 18 -18 17 -50 0 -50 0 0 89 0 90 -42 -7 -43 -7
-40 -5 -40 -5 -12 8 -12 9 11 42 10 42 -12 31 -13 31 -24 9 -24 9 -43 0 -44 0
-12 -15z"/>
</g>
</svg>
