<?xml version="1.0" standalone="no"?>
<!DOCTYPE svg PUBLIC "-//W3C//DTD SVG 20010904//EN"
 "http://www.w3.org/TR/2001/REC-SVG-20010904/DTD/svg10.dtd">
<svg version="1.0" xmlns="http://www.w3.org/2000/svg"
 width="68.000000pt" height="68.000000pt" viewBox="0 0 68.000000 68.000000"
 preserveAspectRatio="xMidYMid meet">
<metadata>
Created by potrace 1.16, written by Peter Selinger 2001-2019
</metadata>
<g transform="translate(0.000000,68.000000) scale(0.100000,-0.100000)"
fill="#000000" stroke="none">
<path d="M19 668 l0 -13 -8 -73 -7 -73 38 6 38 7 28 -7 29 -6 12 -25 11 -25 0
-35 0 -35 -15 -29 -16 -30 -12 0 -13 0 -12 12 -12 12 -9 -9 -10 -10 -15 -65
-15 -65 -6 -17 -7 -18 67 0 66 0 20 -11 20 -10 -7 -57 -6 -58 15 -12 15 -13
36 -6 36 -6 26 18 26 17 -6 33 -6 32 27 11 28 10 30 7 30 6 43 16 42 16 0 86
0 86 9 14 9 13 40 -7 41 -7 19 6 19 6 11 26 12 25 0 14 0 15 -19 19 -20 20
-29 -11 -28 -11 -27 7 -27 6 -7 28 -8 27 1 73 1 72 -1 0 -2 0 -84 -10 -85 -11
-18 -5 -17 -6 6 -47 6 -47 -26 -18 -27 -17 -18 6 -18 5 -12 24 -13 24 10 48
11 49 -12 7 -12 8 -92 0 -93 0 -1 -12z"/>
</g>
</svg>
