<?xml version="1.0" standalone="no"?>
<!DOCTYPE svg PUBLIC "-//W3C//DTD SVG 20010904//EN"
 "http://www.w3.org/TR/2001/REC-SVG-20010904/DTD/svg10.dtd">
<svg version="1.0" xmlns="http://www.w3.org/2000/svg"
 width="52.000000pt" height="52.000000pt" viewBox="0 0 52.000000 52.000000"
 preserveAspectRatio="xMidYMid meet">
<metadata>
Created by potrace 1.16, written by Peter Selinger 2001-2019
</metadata>
<g transform="translate(0.000000,52.000000) scale(0.100000,-0.100000)"
fill="#000000" stroke="none">
<path d="M20 489 l0 -34 -6 -67 -7 -66 44 9 44 10 32 -6 31 -6 6 -15 6 -16 0
-34 0 -34 -27 -11 -27 -10 -50 11 -49 11 -9 -13 -9 -13 7 -75 7 -75 0 -25 0
-25 80 3 80 4 25 16 24 16 -4 48 -5 48 22 6 22 5 34 -9 34 -9 -3 -26 -3 -26
21 -11 21 -11 72 -18 72 -19 8 5 7 4 0 94 0 94 -9 6 -10 5 -25 -11 -26 -12
-25 11 -24 11 -7 26 -6 25 6 25 6 24 25 -11 25 -11 25 11 25 12 10 26 10 25 0
65 0 64 -57 -1 -58 0 -40 -7 -40 -8 3 -24 2 -25 1 -30 0 -30 -22 -17 -21 -18
-22 0 -21 1 -19 14 -20 15 13 35 12 34 -11 20 -10 21 -21 11 -21 11 -74 5 -74
6 0 -34z"/>
</g>
</svg>
