<?xml version="1.0" standalone="no"?>
<!DOCTYPE svg PUBLIC "-//W3C//DTD SVG 20010904//EN"
 "http://www.w3.org/TR/2001/REC-SVG-20010904/DTD/svg10.dtd">
<svg version="1.0" xmlns="http://www.w3.org/2000/svg"
 width="53.000000pt" height="66.000000pt" viewBox="0 0 53.000000 66.000000"
 preserveAspectRatio="xMidYMid meet">
<metadata>
Created by potrace 1.16, written by Peter Selinger 2001-2019
</metadata>
<g transform="translate(0.000000,66.000000) scale(0.100000,-0.100000)"
fill="#000000" stroke="none">
<path d="M6 638 l-6 -23 0 -62 0 -62 10 -27 10 -27 51 7 51 7 14 -12 14 -11 0
-28 0 -28 -15 -12 -14 -12 -29 7 -29 6 -10 -13 -11 -13 -11 -65 -10 -65 -7
-38 -7 -37 75 0 74 0 19 -14 19 -14 -3 -40 -2 -41 20 -10 20 -11 35 0 34 0 32
31 31 32 -3 36 -3 36 84 -2 84 -3 -7 88 -6 87 -14 14 -14 14 -33 -12 -34 -12
-17 23 -18 23 0 31 0 31 19 17 19 18 56 -7 56 -7 0 111 0 111 -79 0 -80 0 -26
-10 -27 -10 6 -24 6 -24 6 -15 5 -14 -16 -17 -16 -16 -44 0 -44 0 -9 17 -10
16 10 34 9 35 -5 14 -5 14 -100 0 -99 0 -6 -22z"/>
</g>
</svg>
