<?xml version="1.0" standalone="no"?>
<!DOCTYPE svg PUBLIC "-//W3C//DTD SVG 20010904//EN"
 "http://www.w3.org/TR/2001/REC-SVG-20010904/DTD/svg10.dtd">
<svg version="1.0" xmlns="http://www.w3.org/2000/svg"
 width="51.000000pt" height="64.000000pt" viewBox="0 0 51.000000 64.000000"
 preserveAspectRatio="xMidYMid meet">
<metadata>
Created by potrace 1.16, written by Peter Selinger 2001-2019
</metadata>
<g transform="translate(0.000000,64.000000) scale(0.100000,-0.100000)"
fill="#000000" stroke="none">
<path d="M6 618 l-6 -23 0 -52 0 -52 10 -26 10 -26 50 7 50 7 15 -13 15 -12 0
-39 0 -39 -24 -15 -25 -16 -19 10 -20 11 -10 -13 -10 -12 -11 -70 -11 -70 -6
-22 -6 -23 74 0 74 0 22 -16 22 -15 -6 -39 -6 -38 20 -11 21 -11 25 0 24 0 32
31 31 31 -3 37 -3 36 84 -1 84 -1 -7 76 -7 75 -10 12 -10 12 -35 -11 -36 -11
-19 25 -19 24 0 41 0 41 20 18 20 18 55 -7 55 -6 0 100 0 100 -69 0 -70 0 -25
-10 -26 -9 10 -26 10 -26 0 -14 0 -14 -16 -15 -15 -16 -54 0 -54 0 -11 20 -11
20 10 37 10 36 -5 9 -5 8 -88 0 -89 0 -6 -22z"/>
</g>
</svg>
