<?xml version="1.0" standalone="no"?>
<!DOCTYPE svg PUBLIC "-//W3C//DTD SVG 20010904//EN"
 "http://www.w3.org/TR/2001/REC-SVG-20010904/DTD/svg10.dtd">
<svg version="1.0" xmlns="http://www.w3.org/2000/svg"
 width="67.000000pt" height="86.000000pt" viewBox="0 0 67.000000 86.000000"
 preserveAspectRatio="xMidYMid meet">
<metadata>
Created by potrace 1.16, written by Peter Selinger 2001-2019
</metadata>
<g transform="translate(0.000000,86.000000) scale(0.100000,-0.100000)"
fill="#000000" stroke="none">
<path d="M345 848 l-20 -11 -8 -11 -8 -11 6 -52 6 -52 -20 -10 -20 -11 -75 0
-76 0 0 -68 0 -68 -16 -22 -15 -22 -15 0 -14 0 0 10 0 10 -19 0 -20 0 -15 -22
-16 -22 0 -43 0 -42 16 -16 17 -16 66 2 66 3 3 -23 4 -22 -21 -69 -21 -68 5
-15 6 -14 74 5 75 5 0 -36 0 -36 11 -28 10 -28 21 -22 21 -23 37 0 36 0 19 23
20 22 2 65 2 65 102 -4 102 -3 -7 23 -7 24 -15 65 -16 65 -7 25 -8 25 -29 3
-29 4 -9 8 -9 9 7 25 6 26 47 -7 46 -6 13 18 14 19 0 99 0 100 -37 -7 -38 -7
-58 -10 -57 -9 -20 10 -20 11 11 21 11 21 -4 49 -5 48 -18 20 -18 20 -26 0
-26 -1 -20 -11z"/>
</g>
</svg>
