<?xml version="1.0" standalone="no"?>
<!DOCTYPE svg PUBLIC "-//W3C//DTD SVG 20010904//EN"
 "http://www.w3.org/TR/2001/REC-SVG-20010904/DTD/svg10.dtd">
<svg version="1.0" xmlns="http://www.w3.org/2000/svg"
 width="65.000000pt" height="84.000000pt" viewBox="0 0 65.000000 84.000000"
 preserveAspectRatio="xMidYMid meet">
<metadata>
Created by potrace 1.16, written by Peter Selinger 2001-2019
</metadata>
<g transform="translate(0.000000,84.000000) scale(0.100000,-0.100000)"
fill="#000000" stroke="none">
<path d="M345 828 l-20 -11 -7 -11 -7 -11 6 -51 6 -52 -21 -11 -21 -11 -75 0
-76 0 0 -68 0 -68 -16 -22 -15 -22 -24 0 -23 0 -6 13 -5 12 -20 -24 -21 -23 0
-33 0 -34 17 -16 16 -17 66 4 66 3 3 -35 3 -35 -19 -60 -19 -60 4 -10 3 -10
81 3 81 4 -7 -22 -7 -22 6 -34 7 -33 25 -31 26 -30 27 0 27 0 19 23 20 22 0
65 1 65 101 -3 102 -3 -15 48 -14 48 -13 55 -12 55 -33 0 -33 0 -5 22 -6 23 6
26 7 26 49 -7 48 -7 11 21 11 20 0 87 0 86 -22 -6 -23 -6 -69 -11 -69 -11 -24
11 -25 12 8 22 7 22 1 47 1 46 -19 21 -19 21 -16 0 -16 -1 -20 -11z"/>
</g>
</svg>
