<?xml version="1.0" standalone="no"?>
<!DOCTYPE svg PUBLIC "-//W3C//DTD SVG 20010904//EN"
 "http://www.w3.org/TR/2001/REC-SVG-20010904/DTD/svg10.dtd">
<svg version="1.0" xmlns="http://www.w3.org/2000/svg"
 width="72.000000pt" height="57.000000pt" viewBox="0 0 72.000000 57.000000"
 preserveAspectRatio="xMidYMid meet">
<metadata>
Created by potrace 1.16, written by Peter Selinger 2001-2019
</metadata>
<g transform="translate(0.000000,57.000000) scale(0.100000,-0.100000)"
fill="#000000" stroke="none">
<path d="M47 563 l-7 -6 0 -63 0 -63 10 -25 9 -25 27 -7 27 -7 20 13 21 13 18
-23 18 -22 0 -34 0 -34 -27 -11 -28 -11 -35 6 -35 6 -22 6 -23 6 -10 -27 -10
-27 12 -62 11 -61 -1 -31 -2 -31 68 -6 67 -7 35 0 35 0 14 9 14 9 -11 32 -11
31 24 25 24 24 20 0 20 0 15 -16 16 -15 -6 -54 -7 -53 23 -12 23 -12 41 6 41
6 53 12 53 12 -6 106 -7 107 54 -5 55 -4 27 17 26 17 0 42 0 42 -12 12 -12 12
-24 0 -23 0 -18 -9 -17 -10 -11 7 -12 7 -10 28 -11 28 0 70 0 69 -258 0 -259
0 -6 -7z"/>
</g>
</svg>
