<?xml version="1.0" standalone="no"?>
<!DOCTYPE svg PUBLIC "-//W3C//DTD SVG 20010904//EN"
 "http://www.w3.org/TR/2001/REC-SVG-20010904/DTD/svg10.dtd">
<svg version="1.0" xmlns="http://www.w3.org/2000/svg"
 width="70.000000pt" height="55.000000pt" viewBox="0 0 70.000000 55.000000"
 preserveAspectRatio="xMidYMid meet">
<metadata>
Created by potrace 1.16, written by Peter Selinger 2001-2019
</metadata>
<g transform="translate(0.000000,55.000000) scale(0.100000,-0.100000)"
fill="#000000" stroke="none">
<path d="M47 543 l-7 -6 0 -53 0 -53 9 -24 10 -25 21 -7 22 -7 11 11 11 11 18
0 18 0 15 -24 16 -24 -3 -43 -3 -43 -34 -10 -33 -10 -50 11 -50 10 -8 -22 -9
-23 14 -66 14 -66 6 -10 6 -10 -10 0 -11 0 0 -9 0 -9 84 -7 85 -7 20 7 20 6
-9 25 -10 25 0 10 0 10 25 24 24 25 30 0 30 0 16 -17 17 -16 -7 -53 -6 -53 21
-11 22 -12 77 16 78 16 7 0 6 0 -6 110 -7 111 55 -7 55 -6 27 17 26 17 0 33 0
33 -16 13 -15 13 -33 -12 -33 -12 -16 6 -16 6 -10 30 -11 31 0 68 0 69 -248 0
-249 0 -6 -7z"/>
</g>
</svg>
