<?xml version="1.0" standalone="no"?>
<!DOCTYPE svg PUBLIC "-//W3C//DTD SVG 20010904//EN"
 "http://www.w3.org/TR/2001/REC-SVG-20010904/DTD/svg10.dtd">
<svg version="1.0" xmlns="http://www.w3.org/2000/svg"
 width="54.000000pt" height="65.000000pt" viewBox="0 0 54.000000 65.000000"
 preserveAspectRatio="xMidYMid meet">
<metadata>
Created by potrace 1.16, written by Peter Selinger 2001-2019
</metadata>
<g transform="translate(0.000000,65.000000) scale(0.100000,-0.100000)"
fill="#000000" stroke="none">
<path d="M239 639 l-27 -10 -12 -30 -13 -30 11 -23 10 -23 -23 -13 -23 -12
-70 7 -70 7 -7 -12 -7 -11 0 -68 -1 -67 12 -23 13 -23 56 4 57 3 3 -42 3 -43
-24 -24 -25 -25 -31 12 -32 12 -9 -14 -8 -14 -7 -71 -6 -71 -5 -17 -5 -18 90
0 90 0 27 10 27 11 -7 46 -6 46 11 13 11 14 23 0 23 0 23 -19 24 -19 0 -49 0
-48 100 -3 100 -3 0 106 0 106 -13 8 -13 8 -40 -11 -40 -10 -26 14 -26 15 -10
16 -10 16 7 27 6 26 40 -6 39 -6 26 6 26 7 15 34 14 34 0 53 0 53 -8 11 -7 12
-45 15 -46 15 -36 7 -37 7 -12 14 -11 14 5 20 5 20 -6 4 -7 4 -30 5 -30 6 -26
-10z"/>
</g>
</svg>
