<?xml version="1.0" standalone="no"?>
<!DOCTYPE svg PUBLIC "-//W3C//DTD SVG 20010904//EN"
 "http://www.w3.org/TR/2001/REC-SVG-20010904/DTD/svg10.dtd">
<svg version="1.0" xmlns="http://www.w3.org/2000/svg"
 width="82.000000pt" height="65.000000pt" viewBox="0 0 82.000000 65.000000"
 preserveAspectRatio="xMidYMid meet">
<metadata>
Created by potrace 1.16, written by Peter Selinger 2001-2019
</metadata>
<g transform="translate(0.000000,65.000000) scale(0.100000,-0.100000)"
fill="#000000" stroke="none">
<path d="M344 625 l-17 -26 13 -40 13 -39 -7 -8 -8 -7 -99 3 -99 3 0 -105 0
-106 -45 7 -44 6 -26 -17 -25 -16 0 -14 0 -13 18 -17 19 -16 30 6 31 6 8 -13
9 -14 10 -100 10 -100 83 1 82 1 21 19 21 19 -4 42 -3 42 24 4 23 5 27 -7 26
-8 -3 -36 -4 -37 24 -9 23 -8 59 -8 60 -7 22 -8 21 -9 11 22 11 22 11 65 11
65 5 18 6 18 44 -7 45 -6 19 17 20 18 0 32 0 31 -13 18 -14 19 -52 -13 -53
-12 -21 20 -20 21 -3 78 -3 78 -28 18 -28 17 -55 16 -55 15 -22 9 -23 10 0 20
0 20 13 0 12 0 -15 10 -15 10 -32 0 -33 0 -16 -25z"/>
</g>
</svg>
