<?xml version="1.0" standalone="no"?>
<!DOCTYPE svg PUBLIC "-//W3C//DTD SVG 20010904//EN"
 "http://www.w3.org/TR/2001/REC-SVG-20010904/DTD/svg10.dtd">
<svg version="1.0" xmlns="http://www.w3.org/2000/svg"
 width="84.000000pt" height="67.000000pt" viewBox="0 0 84.000000 67.000000"
 preserveAspectRatio="xMidYMid meet">
<metadata>
Created by potrace 1.16, written by Peter Selinger 2001-2019
</metadata>
<g transform="translate(0.000000,67.000000) scale(0.100000,-0.100000)"
fill="#000000" stroke="none">
<path d="M346 648 l-16 -22 0 -24 0 -23 11 -21 11 -20 -6 -6 -6 -5 -100 2
-100 2 0 -103 0 -103 -45 3 -45 4 -25 -16 -25 -16 0 -24 0 -23 20 -18 19 -18
30 6 30 6 8 -12 8 -12 10 -100 10 -100 92 1 93 1 20 18 20 18 0 44 0 43 35 0
35 0 0 -40 0 -40 23 -9 22 -8 55 -7 55 -7 33 -10 33 -11 14 18 13 18 12 75 12
75 5 12 4 11 45 -5 44 -5 20 18 20 18 0 42 0 41 -14 19 -14 19 -53 -11 -54
-11 -19 19 -20 18 -1 78 -2 78 -39 22 -39 22 -53 12 -53 12 -17 14 -17 14 13
5 12 6 0 13 0 13 -16 6 -16 6 -38 0 -39 0 -15 -22z"/>
</g>
</svg>
