<?xml version="1.0" standalone="no"?>
<!DOCTYPE svg PUBLIC "-//W3C//DTD SVG 20010904//EN"
 "http://www.w3.org/TR/2001/REC-SVG-20010904/DTD/svg10.dtd">
<svg version="1.0" xmlns="http://www.w3.org/2000/svg"
 width="52.000000pt" height="65.000000pt" viewBox="0 0 52.000000 65.000000"
 preserveAspectRatio="xMidYMid meet">
<metadata>
Created by potrace 1.16, written by Peter Selinger 2001-2019
</metadata>
<g transform="translate(0.000000,65.000000) scale(0.100000,-0.100000)"
fill="#000000" stroke="none">
<path d="M187 639 l-17 -10 10 -19 10 -19 0 -16 0 -16 -25 -24 -24 -25 -65 0
-66 0 -6 -26 -7 -26 7 -56 7 -57 18 -19 19 -18 53 12 52 13 14 -19 13 -18 0
-31 0 -32 -20 -18 -19 -17 -45 6 -44 7 -6 -18 -5 -18 -12 -70 -11 -70 -9 -9
-9 -10 0 -9 0 -10 79 6 78 5 22 11 21 12 6 23 6 24 -11 21 -11 20 19 11 20 10
19 0 19 0 17 -19 18 -20 -7 -42 -7 -41 13 -9 14 -9 101 0 101 0 -4 73 -4 72
-5 23 -5 24 -47 -7 -48 -6 -27 21 -27 21 0 39 0 38 13 5 14 5 14 -9 14 -9 23
0 23 0 24 16 25 16 10 37 10 36 0 58 0 57 -22 -5 -23 -5 -45 -10 -45 -10 -33
0 -33 0 -15 15 -15 15 11 19 10 20 0 21 0 21 -15 29 -16 30 -37 0 -37 -1 -18
-10z"/>
</g>
</svg>
