<?xml version="1.0" standalone="no"?>
<!DOCTYPE svg PUBLIC "-//W3C//DTD SVG 20010904//EN"
 "http://www.w3.org/TR/2001/REC-SVG-20010904/DTD/svg10.dtd">
<svg version="1.0" xmlns="http://www.w3.org/2000/svg"
 width="81.000000pt" height="68.000000pt" viewBox="0 0 81.000000 68.000000"
 preserveAspectRatio="xMidYMid meet">
<metadata>
Created by potrace 1.16, written by Peter Selinger 2001-2019
</metadata>
<g transform="translate(0.000000,68.000000) scale(0.100000,-0.100000)"
fill="#000000" stroke="none">
<path d="M345 670 l-6 -10 11 -21 12 -21 -6 -24 -6 -24 -30 -15 -29 -15 -75 0
-74 0 1 -87 2 -88 -32 3 -32 3 -31 -16 -31 -16 -8 -22 -8 -21 7 -26 7 -25 54
0 54 0 6 -30 7 -30 1 -77 1 -78 79 0 78 0 31 11 31 11 6 19 6 19 -11 36 -12
35 12 14 12 15 23 0 24 0 20 -27 21 -26 6 -23 6 -24 -10 -28 -10 -29 8 -12 7
-13 47 0 47 0 49 12 48 12 -14 33 -14 33 -10 46 -10 45 6 15 6 15 43 -6 43 -5
36 12 36 12 15 21 15 21 0 21 0 22 -25 23 -24 23 -55 -6 -55 -5 -3 96 -3 97
-75 23 -75 23 -25 13 -25 12 1 25 1 24 -11 7 -11 8 -37 0 -37 0 -6 -10z"/>
</g>
</svg>
