<?xml version="1.0" standalone="no"?>
<!DOCTYPE svg PUBLIC "-//W3C//DTD SVG 20010904//EN"
 "http://www.w3.org/TR/2001/REC-SVG-20010904/DTD/svg10.dtd">
<svg version="1.0" xmlns="http://www.w3.org/2000/svg"
 width="69.000000pt" height="69.000000pt" viewBox="0 0 69.000000 69.000000"
 preserveAspectRatio="xMidYMid meet">
<metadata>
Created by potrace 1.16, written by Peter Selinger 2001-2019
</metadata>
<g transform="translate(0.000000,69.000000) scale(0.100000,-0.100000)"
fill="#000000" stroke="none">
<path d="M211 681 l-14 -9 7 -34 6 -35 -21 -19 -21 -19 -84 -4 -84 -3 0 -109
0 -109 53 6 53 6 12 -15 13 -16 -3 -43 -3 -43 -27 -3 -28 -3 -20 -69 -21 -69
-14 -15 -15 -15 0 -16 0 -17 94 4 95 4 21 19 22 19 -4 51 -3 50 27 3 26 3 15
-21 14 -20 -10 -50 -9 -49 5 -14 5 -14 34 -6 33 -5 60 9 60 9 26 11 26 10 -4
67 -5 67 10 24 9 25 55 -3 56 -2 16 23 16 22 0 46 -1 45 -14 20 -15 19 -41
-11 -40 -10 -22 17 -21 18 -4 70 -4 71 -13 11 -13 11 -79 16 -78 15 -11 9 -11
9 5 25 4 25 -27 10 -26 10 -27 0 -27 0 -14 -9z"/>
</g>
</svg>
