<?xml version="1.0" standalone="no"?>
<!DOCTYPE svg PUBLIC "-//W3C//DTD SVG 20010904//EN"
 "http://www.w3.org/TR/2001/REC-SVG-20010904/DTD/svg10.dtd">
<svg version="1.0" xmlns="http://www.w3.org/2000/svg"
 width="67.000000pt" height="67.000000pt" viewBox="0 0 67.000000 67.000000"
 preserveAspectRatio="xMidYMid meet">
<metadata>
Created by potrace 1.16, written by Peter Selinger 2001-2019
</metadata>
<g transform="translate(0.000000,67.000000) scale(0.100000,-0.100000)"
fill="#000000" stroke="none">
<path d="M213 663 l-13 -5 6 -36 6 -37 -22 -20 -22 -20 -84 -4 -84 -3 0 -100
0 -99 23 7 22 8 29 -2 30 -1 15 -16 15 -15 -1 -41 -2 -40 -6 -20 -6 -19 -24 6
-24 6 -21 -71 -21 -70 -14 -15 -15 -15 0 -7 0 -7 85 5 84 4 21 19 20 18 0 23
0 23 -9 24 -10 25 15 6 16 6 29 0 29 0 15 -24 15 -23 -11 -53 -11 -52 10 -10
10 -10 46 0 46 0 32 7 33 6 25 10 25 9 -3 68 -3 67 10 27 10 27 54 -6 54 -6
17 24 16 23 0 36 -1 35 -14 18 -14 19 -35 -12 -35 -11 -21 11 -21 11 -9 25
-10 25 0 53 0 54 -14 11 -14 12 -79 16 -78 15 -13 11 -13 11 6 23 5 23 -25 10
-26 10 -17 -1 -17 -1 -12 -5z"/>
</g>
</svg>
