<?xml version="1.0" standalone="no"?>
<!DOCTYPE svg PUBLIC "-//W3C//DTD SVG 20010904//EN"
 "http://www.w3.org/TR/2001/REC-SVG-20010904/DTD/svg10.dtd">
<svg version="1.0" xmlns="http://www.w3.org/2000/svg"
 width="67.000000pt" height="78.000000pt" viewBox="0 0 67.000000 78.000000"
 preserveAspectRatio="xMidYMid meet">
<metadata>
Created by potrace 1.16, written by Peter Selinger 2001-2019
</metadata>
<g transform="translate(0.000000,78.000000) scale(0.100000,-0.100000)"
fill="#000000" stroke="none">
<path d="M362 774 l-12 -6 6 -48 6 -49 -33 -20 -34 -21 -77 0 -78 0 0 -65 0
-66 -14 -34 -15 -34 -27 -7 -27 -7 -20 12 -20 13 -8 -14 -9 -13 0 -31 0 -31
20 -18 20 -18 70 6 71 6 6 -16 7 -17 -18 -65 -18 -66 -5 -20 -4 -20 51 4 51 3
34 -6 35 -7 -6 -42 -6 -43 16 -13 17 -14 49 -5 49 -4 26 28 26 28 -6 34 -6 33
-5 14 -6 14 25 6 25 7 62 -16 62 -16 9 0 9 0 -1 73 -1 72 -7 30 -6 30 -54 0
-54 0 -7 25 -7 26 8 21 8 22 31 16 31 16 32 -3 32 -3 3 40 4 40 -7 42 -6 43
-14 14 -14 14 -70 17 -70 17 -11 13 -11 14 10 19 11 20 -15 12 -15 12 -43 4
-42 3 -13 -5z"/>
</g>
</svg>
