<?xml version="1.0" standalone="no"?>
<!DOCTYPE svg PUBLIC "-//W3C//DTD SVG 20010904//EN"
 "http://www.w3.org/TR/2001/REC-SVG-20010904/DTD/svg10.dtd">
<svg version="1.0" xmlns="http://www.w3.org/2000/svg"
 width="69.000000pt" height="80.000000pt" viewBox="0 0 69.000000 80.000000"
 preserveAspectRatio="xMidYMid meet">
<metadata>
Created by potrace 1.16, written by Peter Selinger 2001-2019
</metadata>
<g transform="translate(0.000000,80.000000) scale(0.100000,-0.100000)"
fill="#000000" stroke="none">
<path d="M361 791 l-14 -9 7 -46 7 -46 -33 -20 -33 -20 -77 0 -78 0 0 -65 0
-66 -14 -33 -14 -34 -22 -7 -22 -7 -11 11 -11 11 -17 0 -17 0 -6 -16 -6 -16 0
-37 0 -38 19 -17 20 -18 72 3 72 4 5 -13 4 -12 -21 -69 -21 -69 0 -21 0 -20
49 6 49 6 34 -7 33 -6 0 -47 0 -47 25 -13 25 -13 48 0 48 0 25 27 26 28 -6 47
-6 47 10 6 10 6 61 -15 61 -16 19 0 19 0 -1 83 -1 82 -7 30 -6 30 -55 0 -55 0
-3 32 -3 32 27 18 28 18 41 0 40 0 3 62 3 62 -11 41 -11 40 -57 16 -57 15 -25
8 -25 8 0 34 0 33 -25 13 -25 13 -40 0 -40 0 -14 -9z"/>
</g>
</svg>
