<?xml version="1.0" standalone="no"?>
<!DOCTYPE svg PUBLIC "-//W3C//DTD SVG 20010904//EN"
 "http://www.w3.org/TR/2001/REC-SVG-20010904/DTD/svg10.dtd">
<svg version="1.0" xmlns="http://www.w3.org/2000/svg"
 width="54.000000pt" height="82.000000pt" viewBox="0 0 54.000000 82.000000"
 preserveAspectRatio="xMidYMid meet">
<metadata>
Created by potrace 1.16, written by Peter Selinger 2001-2019
</metadata>
<g transform="translate(0.000000,82.000000) scale(0.100000,-0.100000)"
fill="#000000" stroke="none">
<path d="M240 805 l-12 -15 3 -62 4 -63 -105 0 -105 0 -3 -86 -3 -86 15 -12
14 -12 27 13 27 12 25 -28 24 -29 -6 -26 -6 -26 -18 -18 -18 -18 -19 0 -19 0
-27 7 -27 6 -7 -26 -6 -26 8 -58 8 -57 -1 -12 -1 -13 12 -1 11 -1 95 -2 94 -1
1 -66 0 -66 14 -16 13 -17 34 0 33 0 12 22 12 22 -6 78 -6 78 43 0 43 0 49
-15 49 -15 8 0 7 0 0 248 0 249 -47 -8 -48 -8 -31 0 -30 -1 -19 14 -19 14 13
25 13 25 -7 23 -7 24 -21 23 -20 22 -28 0 -27 0 -12 -15z"/>
</g>
</svg>
