<?xml version="1.0" standalone="no"?>
<!DOCTYPE svg PUBLIC "-//W3C//DTD SVG 20010904//EN"
 "http://www.w3.org/TR/2001/REC-SVG-20010904/DTD/svg10.dtd">
<svg version="1.0" xmlns="http://www.w3.org/2000/svg"
 width="56.000000pt" height="84.000000pt" viewBox="0 0 56.000000 84.000000"
 preserveAspectRatio="xMidYMid meet">
<metadata>
Created by potrace 1.16, written by Peter Selinger 2001-2019
</metadata>
<g transform="translate(0.000000,84.000000) scale(0.100000,-0.100000)"
fill="#000000" stroke="none">
<path d="M240 826 l-11 -15 2 -63 2 -63 -104 0 -104 0 -3 -96 -3 -96 16 -13
17 -14 29 11 29 11 19 -25 20 -24 -6 -17 -6 -17 -15 -18 -15 -17 -48 6 -47 6
-7 -22 -7 -23 7 -83 7 -84 11 -2 12 -1 93 -1 93 -1 2 -66 2 -66 14 -16 13 -17
44 0 43 0 12 22 11 21 -4 79 -5 78 33 0 32 0 64 -20 63 -20 5 0 5 0 -3 262 -3
263 -3 2 -2 2 -68 -10 -69 -11 -24 11 -25 11 12 15 13 15 -6 37 -6 36 -22 23
-22 24 -38 0 -37 0 -12 -14z"/>
</g>
</svg>
