<?xml version="1.0" standalone="no"?>
<!DOCTYPE svg PUBLIC "-//W3C//DTD SVG 20010904//EN"
 "http://www.w3.org/TR/2001/REC-SVG-20010904/DTD/svg10.dtd">
<svg version="1.0" xmlns="http://www.w3.org/2000/svg"
 width="65.000000pt" height="65.000000pt" viewBox="0 0 65.000000 65.000000"
 preserveAspectRatio="xMidYMid meet">
<metadata>
Created by potrace 1.16, written by Peter Selinger 2001-2019
</metadata>
<g transform="translate(0.000000,65.000000) scale(0.100000,-0.100000)"
fill="#000000" stroke="none">
<path d="M185 640 l-6 -10 11 -19 10 -20 0 -24 0 -24 -18 -16 -19 -17 -81 0
-82 0 0 -71 0 -70 10 -20 11 -19 30 0 30 0 19 10 19 10 15 -22 16 -22 0 -37 0
-37 -6 -16 -6 -16 -38 6 -39 6 -16 -58 -16 -59 -10 -35 -10 -35 -5 -12 -6 -13
66 0 67 0 35 15 36 15 -4 50 -3 50 55 0 56 0 21 -15 22 -15 -6 -35 -6 -35 14
-5 14 -5 77 -8 78 -8 4 15 5 16 6 71 7 71 8 12 7 13 24 -12 23 -13 23 27 23
27 0 29 0 30 -25 16 -25 17 -40 -6 -40 -5 0 95 0 95 -42 -8 -43 -9 -50 0 -50
0 3 51 3 51 -26 32 -27 31 -48 0 -49 0 -6 -10z"/>
</g>
</svg>
