<?xml version="1.0" standalone="no"?>
<!DOCTYPE svg PUBLIC "-//W3C//DTD SVG 20010904//EN"
 "http://www.w3.org/TR/2001/REC-SVG-20010904/DTD/svg10.dtd">
<svg version="1.0" xmlns="http://www.w3.org/2000/svg"
 width="67.000000pt" height="67.000000pt" viewBox="0 0 67.000000 67.000000"
 preserveAspectRatio="xMidYMid meet">
<metadata>
Created by potrace 1.16, written by Peter Selinger 2001-2019
</metadata>
<g transform="translate(0.000000,67.000000) scale(0.100000,-0.100000)"
fill="#000000" stroke="none">
<path d="M10 591 l0 -78 11 -32 11 -31 25 -6 24 -7 26 12 25 12 14 -12 14 -11
0 -23 0 -23 -26 -16 -25 -17 -55 7 -54 6 0 -63 0 -64 7 -53 6 -54 87 4 88 3
-5 -32 -6 -33 13 -30 13 -31 18 -9 18 -10 35 0 36 0 20 20 20 20 0 51 0 51 96
-4 95 -4 -3 85 -3 86 36 -3 36 -3 32 30 32 30 -3 58 -3 58 -50 0 -50 0 -12 35
-12 35 0 63 -1 62 -265 0 -265 0 0 -79z"/>
</g>
</svg>
