<?xml version="1.0" standalone="no"?>
<!DOCTYPE svg PUBLIC "-//W3C//DTD SVG 20010904//EN"
 "http://www.w3.org/TR/2001/REC-SVG-20010904/DTD/svg10.dtd">
<svg version="1.0" xmlns="http://www.w3.org/2000/svg"
 width="67.000000pt" height="69.000000pt" viewBox="0 0 67.000000 69.000000"
 preserveAspectRatio="xMidYMid meet">
<metadata>
Created by potrace 1.16, written by Peter Selinger 2001-2019
</metadata>
<g transform="translate(0.000000,69.000000) scale(0.100000,-0.100000)"
fill="#000000" stroke="none">
<path d="M322 681 l-14 -8 12 -59 12 -59 -11 -28 -11 -28 -22 -8 -22 -8 -19 5
-18 5 -16 23 -15 24 7 60 7 60 -30 0 -29 0 -76 -6 -77 -7 0 -68 0 -68 10 -25
10 -26 25 -12 25 -11 34 10 33 10 11 -18 12 -19 0 -23 0 -23 -16 -23 -17 -23
-53 7 -54 6 -10 -26 -10 -26 0 -69 0 -68 6 -16 6 -16 34 6 34 6 46 -7 45 -6
-6 -29 -6 -30 6 -19 6 -19 31 -11 31 -11 41 0 42 0 12 12 12 12 0 17 0 18 18
4 17 5 75 22 76 22 12 56 13 57 15 53 15 53 35 -7 36 -7 9 14 9 14 0 51 0 52
-19 23 -19 23 -26 -12 -27 -12 -19 0 -19 0 -8 13 -8 12 -5 80 -5 79 -55 18
-55 17 -35 0 -35 1 -13 -9z"/>
</g>
</svg>
