<?xml version="1.0" standalone="no"?>
<!DOCTYPE svg PUBLIC "-//W3C//DTD SVG 20010904//EN"
 "http://www.w3.org/TR/2001/REC-SVG-20010904/DTD/svg10.dtd">
<svg version="1.0" xmlns="http://www.w3.org/2000/svg"
 width="57.000000pt" height="71.000000pt" viewBox="0 0 57.000000 71.000000"
 preserveAspectRatio="xMidYMid meet">
<metadata>
Created by potrace 1.16, written by Peter Selinger 2001-2019
</metadata>
<g transform="translate(0.000000,71.000000) scale(0.100000,-0.100000)"
fill="#000000" stroke="none">
<path d="M326 701 l-7 -11 12 -54 12 -53 -14 -29 -14 -29 -32 -3 -32 -3 -26
17 -25 17 6 47 6 48 -20 11 -21 11 -75 0 -75 0 -4 -7 -5 -8 -3 -105 -4 -105
47 3 47 3 31 -16 31 -16 -3 -17 -4 -17 -49 3 -50 3 -12 -19 -11 -19 -8 -106
-7 -105 86 5 85 6 -5 -45 -5 -44 25 -29 25 -29 57 0 57 0 20 24 19 24 -6 37
-7 38 37 7 37 7 58 -6 59 -5 -6 107 -6 106 -10 14 -11 13 -38 -5 -38 -5 -10
18 -10 19 0 30 0 30 16 9 16 9 46 -9 46 -8 9 9 9 9 -7 92 -7 92 -46 21 -47 20
-66 5 -66 4 -7 -11z"/>
</g>
</svg>
