<?xml version="1.0" standalone="no"?>
<!DOCTYPE svg PUBLIC "-//W3C//DTD SVG 20010904//EN"
 "http://www.w3.org/TR/2001/REC-SVG-20010904/DTD/svg10.dtd">
<svg version="1.0" xmlns="http://www.w3.org/2000/svg"
 width="71.000000pt" height="70.000000pt" viewBox="0 0 71.000000 70.000000"
 preserveAspectRatio="xMidYMid meet">
<metadata>
Created by potrace 1.16, written by Peter Selinger 2001-2019
</metadata>
<g transform="translate(0.000000,70.000000) scale(0.100000,-0.100000)"
fill="#000000" stroke="none">
<path d="M357 694 l-8 -8 7 -57 6 -57 -27 -18 -28 -18 -33 0 -33 0 -21 19 -21
19 3 51 3 50 -90 -3 -90 -4 -10 -9 -10 -10 -3 -78 -4 -79 12 -22 12 -22 52 6
53 7 12 -15 12 -15 -3 -28 -3 -28 -42 3 -43 3 -9 -23 -10 -23 -16 -83 -16 -83
13 -12 13 -12 82 0 82 0 18 -17 17 -18 -12 -12 -12 -12 0 -21 0 -21 16 -22 15
-22 44 0 44 0 16 17 17 16 -4 34 -4 33 16 5 15 4 66 11 65 11 13 9 14 8 -17
69 -17 70 3 39 3 39 78 -4 78 -3 20 17 19 18 0 27 0 26 -14 19 -14 19 -39 -12
-40 -12 -12 0 -11 0 -20 20 -20 20 0 85 0 85 -27 11 -28 11 -60 5 -60 5 -8 -8z"/>
</g>
</svg>
