<?xml version="1.0" standalone="no"?>
<!DOCTYPE svg PUBLIC "-//W3C//DTD SVG 20010904//EN"
 "http://www.w3.org/TR/2001/REC-SVG-20010904/DTD/svg10.dtd">
<svg version="1.0" xmlns="http://www.w3.org/2000/svg"
 width="80.000000pt" height="55.000000pt" viewBox="0 0 80.000000 55.000000"
 preserveAspectRatio="xMidYMid meet">
<metadata>
Created by potrace 1.16, written by Peter Selinger 2001-2019
</metadata>
<g transform="translate(0.000000,55.000000) scale(0.100000,-0.100000)"
fill="#000000" stroke="none">
<path d="M198 543 l-68 -4 0 -89 0 -90 -43 6 -44 6 -21 -30 -22 -30 0 -29 0
-29 15 -21 15 -21 36 -12 35 -12 26 7 26 6 -6 -53 -6 -53 -7 -46 -6 -46 73 4
74 5 35 17 35 16 1 45 0 45 33 3 32 3 24 -15 23 -15 -5 -40 -5 -40 23 -5 24
-5 85 -5 86 -5 12 91 12 90 10 18 10 18 29 -11 29 -11 16 13 16 13 0 49 0 49
-26 16 -25 17 -37 -11 -37 -12 -13 18 -14 17 6 78 5 77 -19 0 -19 0 -5 -9 -5
-8 -63 -18 -63 -17 -13 -11 -14 -11 6 -31 6 -32 -25 -11 -26 -12 -14 0 -14 0
-20 29 -21 29 0 21 0 20 12 26 11 26 -9 8 -9 9 -45 4 -45 4 -67 -3z"/>
</g>
</svg>
