<?xml version="1.0" standalone="no"?>
<!DOCTYPE svg PUBLIC "-//W3C//DTD SVG 20010904//EN"
 "http://www.w3.org/TR/2001/REC-SVG-20010904/DTD/svg10.dtd">
<svg version="1.0" xmlns="http://www.w3.org/2000/svg"
 width="78.000000pt" height="53.000000pt" viewBox="0 0 78.000000 53.000000"
 preserveAspectRatio="xMidYMid meet">
<metadata>
Created by potrace 1.16, written by Peter Selinger 2001-2019
</metadata>
<g transform="translate(0.000000,53.000000) scale(0.100000,-0.100000)"
fill="#000000" stroke="none">
<path d="M198 522 l-68 -3 0 -88 0 -88 -6 -5 -5 -6 -36 11 -36 11 -23 -29 -24
-30 0 -20 0 -21 15 -21 15 -21 35 -12 36 -12 14 12 14 12 12 -7 11 -8 -6 -66
-6 -66 -6 -30 -6 -31 75 6 75 7 26 17 26 16 0 23 0 22 -10 15 -9 14 12 8 12 8
43 0 43 0 26 -26 25 -26 -11 -11 -11 -11 0 -18 0 -18 23 -4 22 -5 78 -4 78 -4
-4 11 -4 11 17 88 18 89 11 11 10 10 27 -12 26 -12 14 12 14 11 0 39 0 39 -23
14 -23 15 -38 -11 -38 -12 -15 19 -15 20 4 78 5 77 -8 0 -8 0 -5 -9 -5 -8 -63
-18 -63 -17 -12 -10 -12 -9 6 -33 5 -32 -26 -12 -27 -12 -24 0 -24 0 -20 29
-21 29 0 32 0 31 10 20 11 19 -13 4 -13 4 -30 4 -30 3 -67 -3z"/>
</g>
</svg>
