<?xml version="1.0" standalone="no"?>
<!DOCTYPE svg PUBLIC "-//W3C//DTD SVG 20010904//EN"
 "http://www.w3.org/TR/2001/REC-SVG-20010904/DTD/svg10.dtd">
<svg version="1.0" xmlns="http://www.w3.org/2000/svg"
 width="68.000000pt" height="53.000000pt" viewBox="0 0 68.000000 53.000000"
 preserveAspectRatio="xMidYMid meet">
<metadata>
Created by potrace 1.16, written by Peter Selinger 2001-2019
</metadata>
<g transform="translate(0.000000,53.000000) scale(0.100000,-0.100000)"
fill="#000000" stroke="none">
<path d="M497 523 l-7 -7 6 -31 6 -32 -32 -31 -32 -32 -24 0 -25 0 -21 11 -20
11 6 38 6 39 -22 15 -22 16 -73 0 -73 0 0 -57 0 -58 -10 -36 -10 -37 -25 -16
-24 -16 -23 0 -23 0 -14 9 -14 9 -14 -5 -13 -5 0 -38 0 -39 27 -21 28 -22 44
7 44 7 8 -14 9 -13 0 -60 0 -60 6 -22 6 -23 63 0 62 0 32 11 31 11 7 26 6 26
-11 28 -11 29 25 11 25 12 27 -10 27 -9 11 -23 12 -24 -12 -30 -11 -30 19 -14
20 -14 94 0 94 0 -6 16 -6 16 0 81 0 82 -8 13 -8 12 -32 -11 -32 -11 -38 19
-37 20 -3 34 -3 34 14 20 15 19 26 -12 27 -12 24 0 24 0 15 22 16 22 0 72 0
71 -37 7 -38 6 -46 0 -46 0 -6 -7z"/>
</g>
</svg>
