<?xml version="1.0" standalone="no"?>
<!DOCTYPE svg PUBLIC "-//W3C//DTD SVG 20010904//EN"
 "http://www.w3.org/TR/2001/REC-SVG-20010904/DTD/svg10.dtd">
<svg version="1.0" xmlns="http://www.w3.org/2000/svg"
 width="70.000000pt" height="55.000000pt" viewBox="0 0 70.000000 55.000000"
 preserveAspectRatio="xMidYMid meet">
<metadata>
Created by potrace 1.16, written by Peter Selinger 2001-2019
</metadata>
<g transform="translate(0.000000,55.000000) scale(0.100000,-0.100000)"
fill="#000000" stroke="none">
<path d="M167 491 l5 -56 -11 -41 -11 -42 -27 -17 -26 -18 -32 12 -32 11 -17
-6 -16 -6 0 -48 0 -49 28 -21 27 -22 47 5 46 6 6 -15 5 -14 2 -84 1 -83 77 4
76 5 33 10 32 10 6 24 6 25 -5 34 -6 34 20 6 20 7 25 -17 25 -16 -7 -48 -6
-49 20 -11 21 -11 102 0 102 0 -7 31 -6 31 0 77 0 76 -9 14 -10 15 -35 -11
-35 -11 -33 18 -33 17 -3 21 -3 21 11 21 11 20 19 -10 19 -10 35 0 35 0 15 22
16 22 0 83 0 82 -52 6 -53 7 -45 -4 -45 -3 0 -35 -1 -35 -11 -20 -11 -21 -26
-14 -26 -13 -25 11 -25 12 6 39 6 39 -23 15 -24 15 -86 4 -87 4 5 -55z"/>
</g>
</svg>
