<?xml version="1.0" standalone="no"?>
<!DOCTYPE svg PUBLIC "-//W3C//DTD SVG 20010904//EN"
 "http://www.w3.org/TR/2001/REC-SVG-20010904/DTD/svg10.dtd">
<svg version="1.0" xmlns="http://www.w3.org/2000/svg"
 width="70.000000pt" height="79.000000pt" viewBox="0 0 70.000000 79.000000"
 preserveAspectRatio="xMidYMid meet">
<metadata>
Created by potrace 1.16, written by Peter Selinger 2001-2019
</metadata>
<g transform="translate(0.000000,79.000000) scale(0.100000,-0.100000)"
fill="#000000" stroke="none">
<path d="M374 780 l-11 -11 10 -39 11 -38 -13 -16 -13 -15 -91 -3 -92 -3 -1
-82 -1 -82 -12 -15 -13 -15 -24 10 -25 9 -32 0 -33 0 -17 -20 -17 -20 0 -30 0
-29 12 -25 11 -26 20 -6 19 -6 53 7 53 6 6 -33 6 -33 -9 -52 -8 -53 6 -1 6 -1
75 -2 75 -2 22 -12 23 -13 6 -23 6 -24 -11 -20 -11 -21 6 -15 6 -16 27 -2 26
-1 25 2 25 2 13 17 12 16 -5 13 -5 13 -6 14 -6 15 39 10 38 11 57 10 56 11 12
14 11 14 -15 23 -14 23 -17 60 -17 60 -10 13 -10 12 -24 0 -24 0 0 41 0 40 11
21 11 20 56 -4 57 -3 0 75 0 75 -7 16 -6 17 -59 -14 -58 -14 -26 0 -25 0 -19
14 -19 13 13 31 13 30 -16 30 -15 30 -16 6 -17 6 -27 0 -27 0 -10 -10z"/>
</g>
</svg>
