<?xml version="1.0" standalone="no"?>
<!DOCTYPE svg PUBLIC "-//W3C//DTD SVG 20010904//EN"
 "http://www.w3.org/TR/2001/REC-SVG-20010904/DTD/svg10.dtd">
<svg version="1.0" xmlns="http://www.w3.org/2000/svg"
 width="72.000000pt" height="81.000000pt" viewBox="0 0 72.000000 81.000000"
 preserveAspectRatio="xMidYMid meet">
<metadata>
Created by potrace 1.16, written by Peter Selinger 2001-2019
</metadata>
<g transform="translate(0.000000,81.000000) scale(0.100000,-0.100000)"
fill="#000000" stroke="none">
<path d="M370 795 l-12 -14 12 -36 12 -36 -12 -14 -12 -14 -91 -3 -92 -3 -2
-78 -1 -78 -6 -14 -5 -13 -61 5 -61 6 -19 -21 -20 -21 0 -40 0 -40 12 -26 11
-25 25 -7 24 -6 48 6 48 6 5 -27 5 -27 -9 -54 -9 -55 6 -5 6 -6 71 -1 72 0 23
-8 22 -7 10 -20 11 -19 -11 -21 -12 -21 6 -23 6 -22 36 -6 36 -6 29 6 30 6 10
18 10 19 -3 27 -3 28 35 7 35 8 54 13 54 12 11 17 11 18 -17 27 -16 28 -17 60
-17 60 -10 13 -10 12 -24 0 -24 0 0 31 0 30 11 20 10 20 57 -3 57 -3 0 92 0
92 -11 11 -10 10 -73 -16 -73 -17 -24 11 -24 11 11 25 12 25 -7 26 -7 26 -19
19 -20 20 -44 0 -44 0 -12 -15z"/>
</g>
</svg>
