<?xml version="1.0" standalone="no"?>
<!DOCTYPE svg PUBLIC "-//W3C//DTD SVG 20010904//EN"
 "http://www.w3.org/TR/2001/REC-SVG-20010904/DTD/svg10.dtd">
<svg version="1.0" xmlns="http://www.w3.org/2000/svg"
 width="58.000000pt" height="81.000000pt" viewBox="0 0 58.000000 81.000000"
 preserveAspectRatio="xMidYMid meet">
<metadata>
Created by potrace 1.16, written by Peter Selinger 2001-2019
</metadata>
<g transform="translate(0.000000,81.000000) scale(0.100000,-0.100000)"
fill="#000000" stroke="none">
<path d="M208 785 l-11 -25 12 -26 11 -25 -5 -10 -6 -9 -101 0 -100 0 3 -84 4
-84 20 -22 20 -22 53 5 52 6 11 -21 11 -20 -6 -23 -6 -23 -46 -23 -47 -22 -18
11 -19 12 -14 0 -14 0 -6 -16 -6 -16 0 -56 0 -57 6 -36 6 -37 79 5 78 6 -2
-62 -1 -61 22 -23 23 -22 62 0 62 0 18 7 17 7 0 50 0 51 28 6 27 6 59 14 60
15 2 2 1 2 17 49 16 50 0 47 0 47 -15 6 -16 6 -59 -7 -59 -6 -30 31 -31 30 0
11 0 11 21 21 21 21 16 -8 17 -7 34 -5 34 -5 14 19 13 18 0 98 0 98 -12 0 -13
-1 -60 -14 -60 -15 -37 0 -37 0 -5 8 -5 8 11 42 10 42 -16 25 -16 25 -40 0
-40 0 -12 -25z"/>
</g>
</svg>
