<?xml version="1.0" standalone="no"?>
<!DOCTYPE svg PUBLIC "-//W3C//DTD SVG 20010904//EN"
 "http://www.w3.org/TR/2001/REC-SVG-20010904/DTD/svg10.dtd">
<svg version="1.0" xmlns="http://www.w3.org/2000/svg"
 width="56.000000pt" height="79.000000pt" viewBox="0 0 56.000000 79.000000"
 preserveAspectRatio="xMidYMid meet">
<metadata>
Created by potrace 1.16, written by Peter Selinger 2001-2019
</metadata>
<g transform="translate(0.000000,79.000000) scale(0.100000,-0.100000)"
fill="#000000" stroke="none">
<path d="M210 771 l-10 -20 11 -25 12 -25 -6 -15 -6 -16 -102 0 -101 0 4 -74
3 -74 19 -21 19 -21 24 0 24 0 21 11 22 12 18 -23 18 -22 0 -29 0 -28 -22 -21
-22 -20 -39 -12 -39 -12 -20 13 -21 13 -9 -14 -9 -13 5 -75 5 -75 2 -10 2 -10
81 0 81 0 -2 -20 -3 -20 -1 -38 -1 -38 17 -19 18 -20 33 -6 33 -6 38 9 38 9 0
48 0 47 15 8 15 8 40 7 40 7 36 11 36 10 17 53 16 52 0 36 0 35 -12 5 -13 4
-62 -5 -62 -5 -30 31 -31 30 0 21 0 21 21 21 21 21 21 -6 22 -5 29 -7 29 -7
14 18 13 19 0 89 0 88 -17 -5 -18 -5 -45 -10 -45 -11 -48 0 -48 0 -5 14 -5 14
10 38 11 38 -15 23 -15 23 -30 0 -29 0 -11 -19z"/>
</g>
</svg>
