<?xml version="1.0" standalone="no"?>
<!DOCTYPE svg PUBLIC "-//W3C//DTD SVG 20010904//EN"
 "http://www.w3.org/TR/2001/REC-SVG-20010904/DTD/svg10.dtd">
<svg version="1.0" xmlns="http://www.w3.org/2000/svg"
 width="73.000000pt" height="79.000000pt" viewBox="0 0 73.000000 79.000000"
 preserveAspectRatio="xMidYMid meet">
<metadata>
Created by potrace 1.16, written by Peter Selinger 2001-2019
</metadata>
<g transform="translate(0.000000,79.000000) scale(0.100000,-0.100000)"
fill="#000000" stroke="none">
<path d="M350 770 l-20 -20 0 -14 0 -15 9 -24 10 -25 -22 -6 -22 -5 -72 6 -73
6 0 -75 0 -76 -19 -23 -19 -24 -34 13 -34 12 -17 0 -16 0 -11 -19 -10 -20 0
-39 0 -40 28 -18 27 -18 50 -1 50 0 3 -80 2 -80 5 -20 4 -21 74 1 74 0 16 -13
16 -14 -10 -24 -9 -25 0 -25 0 -24 26 -10 25 -10 47 0 47 1 19 14 18 14 -6 25
-6 25 37 10 38 11 7 0 7 0 56 21 55 20 0 21 0 20 16 54 15 53 -3 43 -3 43 -66
-3 -66 -4 -17 17 -16 16 0 22 0 22 10 15 9 14 39 -3 40 -2 16 23 16 22 0 79 0
79 -22 -7 -23 -7 -61 -15 -61 -16 -17 6 -17 7 7 47 6 48 -22 28 -21 27 -45 0
-44 0 -20 -20z"/>
</g>
</svg>
