<?xml version="1.0" standalone="no"?>
<!DOCTYPE svg PUBLIC "-//W3C//DTD SVG 20010904//EN"
 "http://www.w3.org/TR/2001/REC-SVG-20010904/DTD/svg10.dtd">
<svg version="1.0" xmlns="http://www.w3.org/2000/svg"
 width="82.000000pt" height="56.000000pt" viewBox="0 0 82.000000 56.000000"
 preserveAspectRatio="xMidYMid meet">
<metadata>
Created by potrace 1.16, written by Peter Selinger 2001-2019
</metadata>
<g transform="translate(0.000000,56.000000) scale(0.100000,-0.100000)"
fill="#000000" stroke="none">
<path d="M458 554 l-8 -7 6 -38 6 -38 -6 -25 -6 -25 -16 -15 -15 -16 -43 0
-43 0 -18 20 -17 19 4 23 5 23 4 14 4 14 -25 7 -25 7 -59 -5 -58 -5 6 -86 7
-86 -13 -18 -14 -18 -47 11 -48 10 -20 -11 -20 -10 3 -37 3 -37 35 -17 35 -17
44 10 43 10 14 -12 14 -11 0 -27 0 -27 -14 -49 -13 -50 -8 -17 -7 -18 105 0
106 0 6 11 7 11 -12 44 -13 44 17 25 16 25 29 0 28 0 17 -19 18 -19 -12 -22
-12 -22 10 -10 10 -10 74 -18 73 -17 15 -4 15 -4 3 95 3 95 15 11 15 12 34
-11 34 -10 30 13 31 13 6 24 7 25 -20 26 -20 27 -24 5 -24 6 -40 -7 -40 -7 -9
8 -9 9 9 83 9 84 -55 17 -56 16 -40 6 -39 7 -7 -8z"/>
</g>
</svg>
