<?xml version="1.0" standalone="no"?>
<!DOCTYPE svg PUBLIC "-//W3C//DTD SVG 20010904//EN"
 "http://www.w3.org/TR/2001/REC-SVG-20010904/DTD/svg10.dtd">
<svg version="1.0" xmlns="http://www.w3.org/2000/svg"
 width="84.000000pt" height="58.000000pt" viewBox="0 0 84.000000 58.000000"
 preserveAspectRatio="xMidYMid meet">
<metadata>
Created by potrace 1.16, written by Peter Selinger 2001-2019
</metadata>
<g transform="translate(0.000000,58.000000) scale(0.100000,-0.100000)"
fill="#000000" stroke="none">
<path d="M456 571 l-7 -11 6 -44 7 -44 -13 -23 -12 -24 -11 -7 -11 -8 -31 0
-31 0 -18 20 -18 19 13 31 13 31 -10 10 -10 10 -39 2 -39 1 -49 -2 -49 -2 6
-86 6 -87 -9 -17 -9 -18 -47 10 -46 10 -24 -11 -24 -11 0 -45 0 -45 26 -17 26
-17 31 0 32 0 29 4 29 5 10 -16 10 -17 -17 -63 -17 -64 -6 -22 -5 -23 116 0
117 0 6 17 6 16 -11 41 -11 41 15 23 14 22 19 0 19 0 11 -14 11 -13 -6 -30 -6
-31 13 -7 13 -8 75 -19 76 -19 20 -2 20 -2 5 100 5 100 52 -3 52 -3 23 12 23
12 7 11 8 11 0 27 0 27 -24 28 -24 27 -67 -2 -67 -2 7 63 6 62 5 25 4 25 -62
18 -62 18 -47 6 -46 5 -7 -11z"/>
</g>
</svg>
