<?xml version="1.0" standalone="no"?>
<!DOCTYPE svg PUBLIC "-//W3C//DTD SVG 20010904//EN"
 "http://www.w3.org/TR/2001/REC-SVG-20010904/DTD/svg10.dtd">
<svg version="1.0" xmlns="http://www.w3.org/2000/svg"
 width="79.000000pt" height="51.000000pt" viewBox="0 0 79.000000 51.000000"
 preserveAspectRatio="xMidYMid meet">
<metadata>
Created by potrace 1.16, written by Peter Selinger 2001-2019
</metadata>
<g transform="translate(0.000000,51.000000) scale(0.100000,-0.100000)"
fill="#000000" stroke="none">
<path d="M155 414 l7 -96 -23 8 -24 9 -34 -1 -34 -1 -24 -27 -23 -27 0 -15 0
-15 26 -26 26 -25 11 11 11 11 17 0 18 0 6 -11 7 -10 9 -72 9 -72 6 -28 6 -27
78 0 79 0 15 16 16 15 0 4 0 4 -12 26 -11 25 11 24 10 23 31 11 30 11 23 -18
22 -19 -12 -38 -12 -39 15 -14 14 -15 98 0 97 -1 11 87 10 87 8 7 8 8 30 -11
31 -12 25 25 24 24 -3 43 -3 42 -57 -3 -56 -4 -13 23 -12 23 1 74 1 74 -12 -5
-13 -5 -59 -12 -60 -12 -18 -10 -19 -10 7 -25 6 -25 -12 -14 -11 -14 -53 0
-53 0 -11 13 -11 14 12 30 11 30 -6 17 -6 16 -26 10 -26 10 -71 0 -70 0 7 -96z"/>
</g>
</svg>
