<?xml version="1.0" standalone="no"?>
<!DOCTYPE svg PUBLIC "-//W3C//DTD SVG 20010904//EN"
 "http://www.w3.org/TR/2001/REC-SVG-20010904/DTD/svg10.dtd">
<svg version="1.0" xmlns="http://www.w3.org/2000/svg"
 width="82.000000pt" height="69.000000pt" viewBox="0 0 82.000000 69.000000"
 preserveAspectRatio="xMidYMid meet">
<metadata>
Created by potrace 1.16, written by Peter Selinger 2001-2019
</metadata>
<g transform="translate(0.000000,69.000000) scale(0.100000,-0.100000)"
fill="#000000" stroke="none">
<path d="M150 606 l0 -84 -14 -11 -14 -12 -26 7 -26 6 -24 -6 -24 -6 -12 -34
-11 -33 10 -26 10 -25 33 -11 33 -11 35 10 35 10 2 0 2 0 11 -20 11 -20 -11
-63 -11 -62 -5 -27 -5 -27 93 2 93 2 -3 -55 -4 -55 22 -28 21 -27 39 0 39 0
26 12 25 11 6 24 6 24 -4 54 -5 54 14 5 13 5 51 -9 52 -10 27 0 27 0 7 83 7
82 5 18 6 18 34 -7 35 -6 20 23 21 24 -5 38 -5 38 -12 14 -12 15 -41 11 -40
11 -19 -6 -20 -5 7 80 7 79 -18 0 -17 0 -51 -15 -51 -15 -42 -10 -42 -10 -3
-33 -3 -32 -39 -3 -39 -3 -21 5 -21 5 0 48 0 47 -25 13 -25 13 -67 0 -68 0 0
-84z"/>
</g>
</svg>
