<?xml version="1.0" standalone="no"?>
<!DOCTYPE svg PUBLIC "-//W3C//DTD SVG 20010904//EN"
 "http://www.w3.org/TR/2001/REC-SVG-20010904/DTD/svg10.dtd">
<svg version="1.0" xmlns="http://www.w3.org/2000/svg"
 width="58.000000pt" height="68.000000pt" viewBox="0 0 58.000000 68.000000"
 preserveAspectRatio="xMidYMid meet">
<metadata>
Created by potrace 1.16, written by Peter Selinger 2001-2019
</metadata>
<g transform="translate(0.000000,68.000000) scale(0.100000,-0.100000)"
fill="#000000" stroke="none">
<path d="M6 628 l-6 -53 0 -43 0 -44 28 2 27 2 21 -1 22 -1 20 -17 20 -18 6
-20 6 -21 -17 -20 -16 -21 -29 11 -30 11 -13 -18 -12 -17 -7 -83 -7 -82 -5
-21 -6 -22 64 5 63 5 26 -10 26 -10 -5 -55 -4 -54 23 -17 23 -16 43 0 42 0 31
30 31 31 -2 52 -3 52 45 0 44 0 40 -7 41 -8 23 83 23 82 -4 30 -3 30 -75 -3
-76 -4 -18 20 -18 20 4 24 3 23 32 -3 33 -3 21 6 21 7 14 34 14 33 0 71 0 70
-12 0 -11 0 -81 -16 -81 -16 -13 -11 -14 -11 7 -33 6 -33 -55 0 -54 0 -14 5
-13 5 3 44 4 44 -23 16 -23 16 -72 0 -71 0 -7 -52z"/>
</g>
</svg>
