<?xml version="1.0" standalone="no"?>
<!DOCTYPE svg PUBLIC "-//W3C//DTD SVG 20010904//EN"
 "http://www.w3.org/TR/2001/REC-SVG-20010904/DTD/svg10.dtd">
<svg version="1.0" xmlns="http://www.w3.org/2000/svg"
 width="67.000000pt" height="64.000000pt" viewBox="0 0 67.000000 64.000000"
 preserveAspectRatio="xMidYMid meet">
<metadata>
Created by potrace 1.16, written by Peter Selinger 2001-2019
</metadata>
<g transform="translate(0.000000,64.000000) scale(0.100000,-0.100000)"
fill="#000000" stroke="none">
<path d="M40 546 l0 -95 55 6 56 6 24 -23 25 -23 0 -22 0 -21 -15 -21 -15 -21
-36 -12 -36 -12 -44 6 -43 5 -5 -17 -6 -18 15 -58 15 -58 9 -15 8 -15 86 -2
86 -1 13 -13 13 -13 0 -52 0 -52 41 -3 41 -3 17 26 17 26 1 27 1 27 -7 17 -8
18 25 9 26 10 62 -10 62 -10 7 8 8 8 -11 61 -10 60 7 28 7 28 27 -6 27 -7 19
0 19 0 18 18 18 18 6 26 6 26 -24 29 -25 28 -27 -12 -27 -13 -14 12 -14 11 0
85 0 85 -15 -6 -15 -5 -64 -12 -65 -11 -18 -14 -18 -14 15 -10 15 -10 -25 -21
-25 -21 -44 5 -45 5 -12 16 -12 17 11 29 11 28 -13 16 -13 16 -84 0 -84 0 0
-94z"/>
</g>
</svg>
