<?xml version="1.0" standalone="no"?>
<!DOCTYPE svg PUBLIC "-//W3C//DTD SVG 20010904//EN"
 "http://www.w3.org/TR/2001/REC-SVG-20010904/DTD/svg10.dtd">
<svg version="1.0" xmlns="http://www.w3.org/2000/svg"
 width="55.000000pt" height="69.000000pt" viewBox="0 0 55.000000 69.000000"
 preserveAspectRatio="xMidYMid meet">
<metadata>
Created by potrace 1.16, written by Peter Selinger 2001-2019
</metadata>
<g transform="translate(0.000000,69.000000) scale(0.100000,-0.100000)"
fill="#000000" stroke="none">
<path d="M6 644 l-6 -47 0 -41 0 -41 7 -24 6 -23 58 6 58 7 21 -21 20 -20 0
-15 0 -14 -30 -31 -29 -30 -15 0 -15 0 -27 12 -26 12 -14 -19 -14 -19 0 -57 0
-57 6 -30 6 -31 82 6 82 6 -4 -59 -4 -59 22 -27 21 -28 50 0 49 0 21 21 21 21
-6 51 -7 50 13 8 13 9 81 0 81 0 11 51 12 51 0 54 0 55 -16 6 -17 6 -16 -10
-17 -11 -32 14 -32 13 -11 25 -11 24 22 32 22 31 21 -7 22 -7 20 -1 20 -1 3
103 3 102 -111 0 -111 0 -6 -16 -6 -17 12 -19 12 -20 -16 -24 -15 -24 -39 0
-39 0 5 39 5 39 -21 21 -21 21 -84 0 -83 0 -7 -46z"/>
</g>
</svg>
