<?xml version="1.0" standalone="no"?>
<!DOCTYPE svg PUBLIC "-//W3C//DTD SVG 20010904//EN"
 "http://www.w3.org/TR/2001/REC-SVG-20010904/DTD/svg10.dtd">
<svg version="1.0" xmlns="http://www.w3.org/2000/svg"
 width="53.000000pt" height="67.000000pt" viewBox="0 0 53.000000 67.000000"
 preserveAspectRatio="xMidYMid meet">
<metadata>
Created by potrace 1.16, written by Peter Selinger 2001-2019
</metadata>
<g transform="translate(0.000000,67.000000) scale(0.100000,-0.100000)"
fill="#000000" stroke="none">
<path d="M5 605 l-7 -65 6 -35 7 -36 58 7 59 6 21 -21 21 -21 0 -25 0 -24 -30
-31 -29 -30 -26 0 -26 0 -19 10 -19 10 -11 -19 -10 -20 0 -44 0 -45 6 -29 6
-29 89 4 89 4 -10 -26 -10 -27 0 -33 0 -33 21 -27 20 -26 40 0 39 0 20 20 20
20 0 13 0 12 -10 35 -10 35 17 13 17 12 81 0 82 0 11 51 12 51 0 43 0 44 -10
6 -11 7 -14 -12 -14 -12 -36 12 -35 12 -15 21 -15 21 0 21 0 20 24 30 23 29
36 -11 36 -11 5 6 6 5 0 89 0 88 -99 0 -100 0 -6 -10 -6 -9 13 -21 13 -20 -15
-28 -16 -27 -58 -3 -59 -3 8 18 8 18 4 22 5 21 -21 21 -21 21 -74 0 -74 0 -7
-65z"/>
</g>
</svg>
