<?xml version="1.0" standalone="no"?>
<!DOCTYPE svg PUBLIC "-//W3C//DTD SVG 20010904//EN"
 "http://www.w3.org/TR/2001/REC-SVG-20010904/DTD/svg10.dtd">
<svg version="1.0" xmlns="http://www.w3.org/2000/svg"
 width="84.000000pt" height="63.000000pt" viewBox="0 0 84.000000 63.000000"
 preserveAspectRatio="xMidYMid meet">
<metadata>
Created by potrace 1.16, written by Peter Selinger 2001-2019
</metadata>
<g transform="translate(0.000000,63.000000) scale(0.100000,-0.100000)"
fill="#000000" stroke="none">
<path d="M170 542 l0 -88 -13 -19 -14 -18 -24 6 -24 6 -27 7 -26 6 -21 -21
-21 -21 0 -21 0 -21 31 -30 30 -31 62 5 62 5 13 -4 12 -5 0 -38 0 -37 -15 -43
-15 -43 0 -8 0 -8 33 6 33 5 42 -11 42 -12 6 -23 5 -23 -3 -29 -3 -29 51 -3
52 -3 21 27 21 27 0 19 0 19 -10 19 -10 18 16 13 16 13 81 -12 81 -12 3 4 4 4
-11 59 -12 58 4 35 3 35 67 -3 67 -3 23 12 23 12 7 11 8 11 0 30 0 30 -10 15
-9 15 -63 0 -62 0 -13 25 -13 25 0 57 0 58 -27 -11 -28 -11 -60 -17 -60 -16 0
-25 0 -24 -25 -7 -25 -7 -26 -1 -25 -1 -19 14 -20 14 13 37 14 36 -12 14 -12
15 -94 0 -94 0 0 -88z"/>
</g>
</svg>
