<?xml version="1.0" standalone="no"?>
<!DOCTYPE svg PUBLIC "-//W3C//DTD SVG 20010904//EN"
 "http://www.w3.org/TR/2001/REC-SVG-20010904/DTD/svg10.dtd">
<svg version="1.0" xmlns="http://www.w3.org/2000/svg"
 width="65.000000pt" height="51.000000pt" viewBox="0 0 65.000000 51.000000"
 preserveAspectRatio="xMidYMid meet">
<metadata>
Created by potrace 1.16, written by Peter Selinger 2001-2019
</metadata>
<g transform="translate(0.000000,51.000000) scale(0.100000,-0.100000)"
fill="#000000" stroke="none">
<path d="M0 411 l0 -99 40 5 40 6 25 -17 25 -16 0 -30 0 -29 -23 -27 -23 -27
-23 13 -24 12 -7 -13 -8 -12 -7 -71 -6 -71 -5 -17 -5 -18 106 0 107 0 -7 18
-7 17 -5 18 -5 18 16 44 17 44 22 7 21 7 24 -28 24 -28 -6 -42 -7 -42 13 -10
13 -11 92 -4 91 -3 7 95 7 95 14 19 14 19 34 -10 33 -10 17 9 16 9 0 24 0 24
-31 17 -31 16 -47 -4 -46 -3 4 101 3 100 -63 -4 -64 -4 -30 -7 -30 -7 3 -41 4
-41 -21 -21 -21 -21 -33 0 -33 0 -19 14 -19 14 11 37 12 37 -5 13 -6 14 -30
10 -31 11 -63 0 -64 0 0 -99z"/>
</g>
</svg>
