<?xml version="1.0" standalone="no"?>
<!DOCTYPE svg PUBLIC "-//W3C//DTD SVG 20010904//EN"
 "http://www.w3.org/TR/2001/REC-SVG-20010904/DTD/svg10.dtd">
<svg version="1.0" xmlns="http://www.w3.org/2000/svg"
 width="67.000000pt" height="54.000000pt" viewBox="0 0 67.000000 54.000000"
 preserveAspectRatio="xMidYMid meet">
<metadata>
Created by potrace 1.16, written by Peter Selinger 2001-2019
</metadata>
<g transform="translate(0.000000,54.000000) scale(0.100000,-0.100000)"
fill="#000000" stroke="none">
<path d="M133 449 l7 -92 -50 7 -50 7 -20 -11 -20 -11 0 -52 0 -53 14 -19 13
-18 35 6 36 5 11 -11 11 -11 0 -71 0 -70 6 -22 6 -23 57 0 56 0 37 10 38 11
10 19 10 19 0 44 0 45 19 5 20 5 21 -15 22 -15 -7 -58 -7 -58 20 -11 21 -11
53 1 53 0 48 8 47 8 5 5 5 5 -11 79 -11 79 -7 30 -7 30 -43 0 -44 0 -14 21
-14 22 23 27 24 27 24 0 25 1 34 -8 34 -8 -7 99 -8 99 -4 4 -5 5 -42 -13 -42
-12 -50 -14 -50 -13 -19 -7 -18 -8 5 -34 6 -33 -25 -16 -24 -16 -27 7 -28 7
-13 10 -13 11 7 58 6 57 -20 11 -21 11 -77 0 -77 0 6 -91z"/>
</g>
</svg>
