<?xml version="1.0" standalone="no"?>
<!DOCTYPE svg PUBLIC "-//W3C//DTD SVG 20010904//EN"
 "http://www.w3.org/TR/2001/REC-SVG-20010904/DTD/svg10.dtd">
<svg version="1.0" xmlns="http://www.w3.org/2000/svg"
 width="71.000000pt" height="82.000000pt" viewBox="0 0 71.000000 82.000000"
 preserveAspectRatio="xMidYMid meet">
<metadata>
Created by potrace 1.16, written by Peter Selinger 2001-2019
</metadata>
<g transform="translate(0.000000,82.000000) scale(0.100000,-0.100000)"
fill="#000000" stroke="none">
<path d="M399 799 l-21 -21 5 -47 6 -47 -9 -14 -9 -15 -98 0 -98 0 -3 -80 -2
-80 -5 -20 -4 -20 -65 3 -64 4 -17 -25 -16 -25 7 -37 7 -37 21 -19 20 -20 30
3 30 3 9 -35 9 -35 16 -54 15 -53 83 7 83 7 19 -7 20 -6 -5 -39 -5 -39 27 -25
28 -26 23 0 23 0 25 10 26 10 0 29 0 30 18 5 17 5 69 16 70 16 12 10 13 11 -5
86 -5 87 -5 24 -5 24 -53 -7 -53 -6 -17 19 -17 19 3 34 3 33 15 -4 15 -3 40
-4 40 -5 20 16 20 16 0 92 0 92 -95 5 -95 5 -12 8 -12 8 6 48 5 49 -21 21 -21
21 -20 0 -20 0 -21 -21z"/>
</g>
</svg>
