<?xml version="1.0" standalone="no"?>
<!DOCTYPE svg PUBLIC "-//W3C//DTD SVG 20010904//EN"
 "http://www.w3.org/TR/2001/REC-SVG-20010904/DTD/svg10.dtd">
<svg version="1.0" xmlns="http://www.w3.org/2000/svg"
 width="69.000000pt" height="80.000000pt" viewBox="0 0 69.000000 80.000000"
 preserveAspectRatio="xMidYMid meet">
<metadata>
Created by potrace 1.16, written by Peter Selinger 2001-2019
</metadata>
<g transform="translate(0.000000,80.000000) scale(0.100000,-0.100000)"
fill="#000000" stroke="none">
<path d="M400 780 l-20 -20 0 -19 0 -20 10 -26 10 -26 -17 -17 -17 -17 -95 0
-96 0 -3 -80 -2 -80 -5 -21 -5 -22 -64 5 -64 6 -16 -25 -16 -24 10 -34 10 -35
20 -13 20 -12 19 10 19 10 10 -13 11 -13 11 -49 11 -50 11 -31 11 -32 103 2
102 1 7 -7 7 -6 -12 -22 -12 -22 6 -23 6 -23 26 -17 27 -17 31 9 31 9 0 28 0
27 15 8 15 8 74 17 74 16 12 10 12 10 -4 77 -4 78 -5 23 -5 23 -52 -6 -52 -7
-18 20 -18 20 3 43 3 44 20 -2 20 -1 35 -6 35 -6 20 15 20 16 0 82 0 82 -95 5
-95 5 -13 9 -14 8 7 48 7 48 -21 21 -21 21 -10 0 -10 0 -20 -20z"/>
</g>
</svg>
