<?xml version="1.0" standalone="no"?>
<!DOCTYPE svg PUBLIC "-//W3C//DTD SVG 20010904//EN"
 "http://www.w3.org/TR/2001/REC-SVG-20010904/DTD/svg10.dtd">
<svg version="1.0" xmlns="http://www.w3.org/2000/svg"
 width="56.000000pt" height="67.000000pt" viewBox="0 0 56.000000 67.000000"
 preserveAspectRatio="xMidYMid meet">
<metadata>
Created by potrace 1.16, written by Peter Selinger 2001-2019
</metadata>
<g transform="translate(0.000000,67.000000) scale(0.100000,-0.100000)"
fill="#000000" stroke="none">
<path d="M37 663 l-19 -5 4 -90 3 -90 25 -20 24 -20 38 6 38 6 0 -43 0 -43
-14 -20 -14 -19 -59 0 -58 0 1 -71 2 -71 11 -21 12 -22 54 0 54 0 26 -12 25
-11 7 -24 6 -24 -12 -12 -11 -11 0 -17 0 -17 16 -6 16 -6 49 0 50 0 20 11 20
10 -2 47 -3 46 24 7 25 7 66 1 67 1 11 14 12 14 -7 79 -7 78 -9 24 -9 24 -44
-6 -45 -7 -16 26 -17 25 11 23 10 23 49 -4 49 -5 19 28 19 29 0 72 1 72 -11
11 -10 10 -70 -16 -69 -15 -38 -10 -37 -10 2 -42 3 -42 -48 -3 -48 -3 6 48 6
48 -13 18 -14 18 -39 9 -40 10 -40 -1 -40 -1 -18 -5z"/>
</g>
</svg>
