<?xml version="1.0" standalone="no"?>
<!DOCTYPE svg PUBLIC "-//W3C//DTD SVG 20010904//EN"
 "http://www.w3.org/TR/2001/REC-SVG-20010904/DTD/svg10.dtd">
<svg version="1.0" xmlns="http://www.w3.org/2000/svg"
 width="70.000000pt" height="65.000000pt" viewBox="0 0 70.000000 65.000000"
 preserveAspectRatio="xMidYMid meet">
<metadata>
Created by potrace 1.16, written by Peter Selinger 2001-2019
</metadata>
<g transform="translate(0.000000,65.000000) scale(0.100000,-0.100000)"
fill="#000000" stroke="none">
<path d="M22 642 l-13 -9 -6 -86 -6 -87 16 -5 15 -6 35 9 34 10 16 -10 17 -9
0 -59 0 -60 -24 0 -24 0 -27 -78 -26 -77 -6 -27 -5 -28 51 0 52 0 34 -14 35
-15 -6 -45 -7 -46 71 0 71 0 12 21 11 21 -6 43 -7 42 18 5 19 5 72 -9 73 -10
7 6 6 6 -18 70 -18 69 6 24 5 23 82 -1 81 0 19 24 19 23 0 24 0 24 -21 21 -21
21 -26 -5 -27 -6 -27 -6 -26 -7 -13 24 -13 23 1 83 1 84 -17 -6 -16 -5 -83
-25 -84 -26 -10 -6 -10 -6 6 -23 6 -23 -15 -12 -15 -13 -41 6 -41 5 -9 9 -8 8
12 43 11 42 -16 17 -17 16 -73 4 -73 4 -13 -9z"/>
</g>
</svg>
