<?xml version="1.0" standalone="no"?>
<!DOCTYPE svg PUBLIC "-//W3C//DTD SVG 20010904//EN"
 "http://www.w3.org/TR/2001/REC-SVG-20010904/DTD/svg10.dtd">
<svg version="1.0" xmlns="http://www.w3.org/2000/svg"
 width="52.000000pt" height="68.000000pt" viewBox="0 0 52.000000 68.000000"
 preserveAspectRatio="xMidYMid meet">
<metadata>
Created by potrace 1.16, written by Peter Selinger 2001-2019
</metadata>
<g transform="translate(0.000000,68.000000) scale(0.100000,-0.100000)"
fill="#000000" stroke="none">
<path d="M237 668 l-16 -13 -9 -24 -8 -24 10 -38 10 -39 -12 -12 -13 -13 -100
2 -101 2 4 -94 3 -94 20 -15 20 -15 23 -1 23 0 19 10 18 10 6 -24 6 -23 -9
-31 -9 -31 -7 -11 -7 -11 -13 11 -14 11 -19 -10 -18 -10 -18 -78 -18 -78 -5
-12 -5 -13 92 0 91 0 21 11 20 11 -7 45 -6 45 17 19 17 19 26 0 26 0 13 -9 13
-8 -6 -35 -7 -34 14 -11 13 -11 66 -11 66 -11 22 0 22 0 -14 28 -14 27 -17 59
-17 58 -35 -5 -34 -6 -10 19 -10 19 0 49 0 50 15 12 15 13 45 -13 45 -13 20
18 20 18 0 81 0 81 -78 0 -77 1 -28 7 -29 8 7 58 7 59 -23 16 -23 16 -11 0
-11 0 -17 -12z"/>
</g>
</svg>
