<?xml version="1.0" standalone="no"?>
<!DOCTYPE svg PUBLIC "-//W3C//DTD SVG 20010904//EN"
 "http://www.w3.org/TR/2001/REC-SVG-20010904/DTD/svg10.dtd">
<svg version="1.0" xmlns="http://www.w3.org/2000/svg"
 width="54.000000pt" height="70.000000pt" viewBox="0 0 54.000000 70.000000"
 preserveAspectRatio="xMidYMid meet">
<metadata>
Created by potrace 1.16, written by Peter Selinger 2001-2019
</metadata>
<g transform="translate(0.000000,70.000000) scale(0.100000,-0.100000)"
fill="#000000" stroke="none">
<path d="M237 688 l-16 -13 -11 -29 -11 -29 12 -34 11 -35 -11 -11 -11 -11
-101 2 -101 2 4 -104 3 -105 20 -16 20 -15 42 2 43 3 3 -10 4 -10 -9 -31 -8
-31 -22 4 -23 4 -16 -13 -16 -13 -21 -90 -22 -91 0 -7 0 -7 103 0 103 0 19 14
18 13 -6 45 -6 46 19 17 19 17 25 -6 24 -6 -5 -38 -5 -38 13 -11 14 -11 66
-11 66 -11 32 0 33 0 -6 18 -5 17 -27 78 -26 77 -38 0 -38 0 -6 16 -6 16 0 38
0 38 14 11 14 11 26 -10 27 -10 23 0 23 0 16 18 17 19 0 89 0 89 -77 0 -78 0
-27 8 -28 7 6 59 7 58 -24 17 -23 16 -21 0 -21 0 -17 -12z"/>
</g>
</svg>
