<?xml version="1.0" standalone="no"?>
<!DOCTYPE svg PUBLIC "-//W3C//DTD SVG 20010904//EN"
 "http://www.w3.org/TR/2001/REC-SVG-20010904/DTD/svg10.dtd">
<svg version="1.0" xmlns="http://www.w3.org/2000/svg"
 width="70.000000pt" height="85.000000pt" viewBox="0 0 70.000000 85.000000"
 preserveAspectRatio="xMidYMid meet">
<metadata>
Created by potrace 1.16, written by Peter Selinger 2001-2019
</metadata>
<g transform="translate(0.000000,85.000000) scale(0.100000,-0.100000)"
fill="#000000" stroke="none">
<path d="M201 824 l-21 -27 0 -12 0 -12 11 -32 11 -33 -11 -11 -12 -12 -89 3
-90 2 0 -80 0 -81 11 -20 11 -21 56 4 56 3 10 -26 9 -26 -7 -27 -6 -26 -40 0
-40 0 -10 -22 -9 -23 -12 -60 -12 -60 -4 -36 -5 -37 65 5 65 6 26 -7 27 -7 -7
-63 -7 -64 21 -11 21 -11 60 0 61 0 21 21 21 21 -6 39 -6 39 26 6 26 7 57 11
56 11 3 18 4 19 -21 48 -21 49 0 24 0 25 39 -5 40 -5 34 6 35 6 26 25 26 24 0
43 0 44 -15 21 -16 22 -41 11 -41 11 -24 -6 -25 -6 3 78 4 78 -90 5 -90 5 -13
8 -12 8 10 19 10 19 0 24 0 24 -21 27 -20 26 -49 0 -49 0 -20 -26z"/>
</g>
</svg>
