<?xml version="1.0" standalone="no"?>
<!DOCTYPE svg PUBLIC "-//W3C//DTD SVG 20010904//EN"
 "http://www.w3.org/TR/2001/REC-SVG-20010904/DTD/svg10.dtd">
<svg version="1.0" xmlns="http://www.w3.org/2000/svg"
 width="57.000000pt" height="70.000000pt" viewBox="0 0 57.000000 70.000000"
 preserveAspectRatio="xMidYMid meet">
<metadata>
Created by potrace 1.16, written by Peter Selinger 2001-2019
</metadata>
<g transform="translate(0.000000,70.000000) scale(0.100000,-0.100000)"
fill="#000000" stroke="none">
<path d="M245 675 l-25 -24 0 -16 0 -16 11 -21 12 -22 -23 -18 -22 -18 -88 0
-88 0 5 -67 4 -68 5 -22 4 -22 16 -15 15 -16 45 0 44 0 0 -35 0 -36 -25 -25
-25 -25 -23 7 -22 8 -30 1 -30 0 -3 -64 -3 -64 17 -46 16 -47 102 4 101 4 14
13 14 14 -13 45 -12 44 7 12 7 11 22 9 21 8 13 -10 12 -10 0 -33 0 -33 13 -10
13 -11 69 -14 70 -15 25 -6 25 -6 14 9 13 9 -26 68 -27 69 -12 23 -11 23 -35
-3 -35 -3 -8 30 -8 30 6 20 6 20 15 17 15 17 51 -6 50 -6 13 18 14 19 0 77 0
78 -8 5 -9 5 -69 6 -69 6 -32 5 -31 5 1 48 2 49 -19 21 -19 21 -24 0 -24 0
-24 -25z"/>
</g>
</svg>
