<?xml version="1.0" standalone="no"?>
<!DOCTYPE svg PUBLIC "-//W3C//DTD SVG 20010904//EN"
 "http://www.w3.org/TR/2001/REC-SVG-20010904/DTD/svg10.dtd">
<svg version="1.0" xmlns="http://www.w3.org/2000/svg"
 width="55.000000pt" height="68.000000pt" viewBox="0 0 55.000000 68.000000"
 preserveAspectRatio="xMidYMid meet">
<metadata>
Created by potrace 1.16, written by Peter Selinger 2001-2019
</metadata>
<g transform="translate(0.000000,68.000000) scale(0.100000,-0.100000)"
fill="#000000" stroke="none">
<path d="M244 655 l-26 -26 7 -17 8 -17 4 -21 5 -22 -23 -16 -23 -16 -86 0
-85 0 6 -72 6 -73 7 -18 8 -17 22 -6 23 -5 29 3 29 3 3 -47 3 -48 -26 -26 -26
-26 -32 7 -32 7 -20 2 -20 1 -3 -54 -3 -53 16 -47 17 -46 93 3 94 3 10 12 9
12 -11 43 -11 43 10 16 10 17 28 9 27 9 19 -17 19 -17 -5 -27 -6 -27 14 -12
14 -11 79 -16 80 -17 5 0 5 0 11 1 12 1 -25 63 -24 62 -11 23 -12 22 -34 -2
-35 -3 -9 30 -8 30 5 32 6 32 25 20 26 21 18 -10 19 -10 25 0 25 0 11 19 10
20 0 66 0 66 -12 4 -13 5 -93 9 -93 8 -10 10 -10 10 10 26 10 27 -6 17 -6 18
-15 18 -15 17 -14 0 -14 0 -25 -25z"/>
</g>
</svg>
