<?xml version="1.0" standalone="no"?>
<!DOCTYPE svg PUBLIC "-//W3C//DTD SVG 20010904//EN"
 "http://www.w3.org/TR/2001/REC-SVG-20010904/DTD/svg10.dtd">
<svg version="1.0" xmlns="http://www.w3.org/2000/svg"
 width="66.000000pt" height="56.000000pt" viewBox="0 0 66.000000 56.000000"
 preserveAspectRatio="xMidYMid meet">
<metadata>
Created by potrace 1.16, written by Peter Selinger 2001-2019
</metadata>
<g transform="translate(0.000000,56.000000) scale(0.100000,-0.100000)"
fill="#000000" stroke="none">
<path d="M140 488 l0 -74 -16 -23 -17 -23 -27 6 -28 5 -26 7 -26 6 0 -62 0
-61 11 -21 11 -20 27 5 27 6 11 -7 11 -7 12 -65 11 -65 10 -31 10 -31 52 -7
52 -6 47 0 46 0 16 6 16 6 0 19 0 18 -12 25 -11 26 18 20 18 20 12 0 12 0 19
-21 19 -21 0 -57 0 -56 40 -3 40 -4 69 12 68 12 -7 32 -7 31 -17 80 -16 80
-42 0 -43 1 -11 11 -12 12 1 31 1 31 11 14 12 14 41 -5 42 -6 20 22 20 22 4
79 3 79 -8 0 -9 0 -75 -15 -75 -15 -24 -6 -23 -5 5 -34 6 -35 -15 -15 -15 -15
-24 0 -24 0 -15 22 -16 22 10 10 10 10 0 27 0 27 -16 13 -16 13 -99 4 -99 4 0
-74z"/>
</g>
</svg>
