<?xml version="1.0" standalone="no"?>
<!DOCTYPE svg PUBLIC "-//W3C//DTD SVG 20010904//EN"
 "http://www.w3.org/TR/2001/REC-SVG-20010904/DTD/svg10.dtd">
<svg version="1.0" xmlns="http://www.w3.org/2000/svg"
 width="64.000000pt" height="54.000000pt" viewBox="0 0 64.000000 54.000000"
 preserveAspectRatio="xMidYMid meet">
<metadata>
Created by potrace 1.16, written by Peter Selinger 2001-2019
</metadata>
<g transform="translate(0.000000,54.000000) scale(0.100000,-0.100000)"
fill="#000000" stroke="none">
<path d="M140 465 l0 -73 -19 -23 -19 -23 -51 10 -51 11 0 -49 0 -49 11 -20
10 -20 20 6 19 6 19 -6 19 -6 11 -67 12 -67 10 -31 10 -31 52 -7 52 -6 40 0
40 0 14 9 15 10 -12 26 -12 26 0 18 0 18 18 16 19 17 21 0 21 0 21 -27 21 -27
-3 -51 -3 -50 30 -4 30 -3 68 12 68 12 -7 21 -7 22 -16 80 -16 80 -42 0 -42 0
-13 13 -13 13 1 41 2 42 21 17 21 17 30 -11 30 -11 22 22 22 22 4 71 4 72 -15
-6 -16 -6 -63 -11 -63 -11 -18 -5 -18 -6 7 -32 6 -33 -17 -16 -16 -17 -34 0
-35 0 -17 26 -17 26 12 19 12 19 0 14 0 14 -17 13 -16 14 -89 2 -88 1 0 -73z"/>
</g>
</svg>
