<?xml version="1.0" standalone="no"?>
<!DOCTYPE svg PUBLIC "-//W3C//DTD SVG 20010904//EN"
 "http://www.w3.org/TR/2001/REC-SVG-20010904/DTD/svg10.dtd">
<svg version="1.0" xmlns="http://www.w3.org/2000/svg"
 width="81.000000pt" height="54.000000pt" viewBox="0 0 81.000000 54.000000"
 preserveAspectRatio="xMidYMid meet">
<metadata>
Created by potrace 1.16, written by Peter Selinger 2001-2019
</metadata>
<g transform="translate(0.000000,54.000000) scale(0.100000,-0.100000)"
fill="#000000" stroke="none">
<path d="M163 534 l-13 -6 0 -58 0 -59 -11 -28 -10 -28 -12 -7 -12 -8 -42 6
-41 6 -11 -20 -11 -21 0 -30 0 -30 26 -20 27 -21 21 0 22 0 12 12 12 12 12
-12 12 -12 4 -99 4 -99 37 -6 36 -6 56 0 57 0 6 15 6 15 -7 45 -6 45 18 20 18
20 28 0 27 0 14 -5 14 -6 -4 -33 -4 -34 10 -6 10 -6 84 -26 83 -25 16 -5 17
-6 11 34 10 33 12 67 11 67 16 13 15 13 4 -12 5 -13 13 0 14 0 15 22 16 22 0
23 0 22 -12 26 -12 26 -47 -6 -47 -7 -11 21 -11 20 0 77 0 76 -22 -6 -23 -6
-50 -11 -50 -10 -23 -10 -23 -9 7 -45 6 -45 -18 -7 -19 -8 -41 0 -42 0 -22 20
-22 20 4 60 3 60 -80 2 -80 2 -12 -5z"/>
</g>
</svg>
