<?xml version="1.0" standalone="no"?>
<!DOCTYPE svg PUBLIC "-//W3C//DTD SVG 20010904//EN"
 "http://www.w3.org/TR/2001/REC-SVG-20010904/DTD/svg10.dtd">
<svg version="1.0" xmlns="http://www.w3.org/2000/svg"
 width="52.000000pt" height="66.000000pt" viewBox="0 0 52.000000 66.000000"
 preserveAspectRatio="xMidYMid meet">
<metadata>
Created by potrace 1.16, written by Peter Selinger 2001-2019
</metadata>
<g transform="translate(0.000000,66.000000) scale(0.100000,-0.100000)"
fill="#000000" stroke="none">
<path d="M6 582 l1 -77 2 -12 1 -11 59 5 60 6 16 -16 15 -16 6 -29 6 -30 -18
-27 -18 -27 -47 6 -47 6 -6 -17 -5 -18 -7 -87 -6 -87 93 -3 94 -3 -3 -53 -4
-54 18 -19 17 -19 22 0 22 0 16 18 16 18 6 39 7 40 -12 29 -11 29 13 9 13 8
50 -6 50 -7 37 -13 37 -13 5 7 4 7 -9 65 -9 65 -5 33 -6 34 -40 -7 -40 -7 -14
12 -15 12 0 33 0 32 25 27 26 28 50 -4 51 -3 -4 72 -3 72 -5 5 -5 4 -83 -24
-84 -24 -9 -6 -10 -6 5 -13 4 -13 -11 -11 -11 -11 -32 0 -31 0 -31 11 -31 11
-6 18 -6 19 11 22 12 21 -11 11 -11 11 -83 3 -82 2 1 -77z"/>
</g>
</svg>
