<?xml version="1.0" standalone="no"?>
<!DOCTYPE svg PUBLIC "-//W3C//DTD SVG 20010904//EN"
 "http://www.w3.org/TR/2001/REC-SVG-20010904/DTD/svg10.dtd">
<svg version="1.0" xmlns="http://www.w3.org/2000/svg"
 width="54.000000pt" height="68.000000pt" viewBox="0 0 54.000000 68.000000"
 preserveAspectRatio="xMidYMid meet">
<metadata>
Created by potrace 1.16, written by Peter Selinger 2001-2019
</metadata>
<g transform="translate(0.000000,68.000000) scale(0.100000,-0.100000)"
fill="#000000" stroke="none">
<path d="M6 594 l1 -89 1 -13 2 -13 59 7 60 6 14 -14 14 -14 7 -22 7 -21 -17
-26 -17 -25 -47 6 -47 6 -6 -14 -5 -15 -7 -101 -8 -101 94 -3 94 -3 -3 -53 -4
-53 18 -20 17 -19 32 0 32 0 19 21 19 21 1 72 1 71 39 -3 39 -3 48 -16 49 -15
9 9 9 9 -10 80 -11 79 -5 29 -6 28 -42 -5 -43 -6 -11 11 -12 12 0 22 0 21 26
28 25 28 51 -6 50 -6 -3 84 -4 83 -7 8 -8 7 -77 -22 -78 -22 -22 -9 -23 -10 0
-20 0 -21 -15 -5 -15 -6 -35 6 -34 7 -15 14 -14 15 11 30 11 30 -12 12 -12 12
-93 4 -92 4 1 -88z"/>
</g>
</svg>
