<?xml version="1.0" standalone="no"?>
<!DOCTYPE svg PUBLIC "-//W3C//DTD SVG 20010904//EN"
 "http://www.w3.org/TR/2001/REC-SVG-20010904/DTD/svg10.dtd">
<svg version="1.0" xmlns="http://www.w3.org/2000/svg"
 width="68.000000pt" height="79.000000pt" viewBox="0 0 68.000000 79.000000"
 preserveAspectRatio="xMidYMid meet">
<metadata>
Created by potrace 1.16, written by Peter Selinger 2001-2019
</metadata>
<g transform="translate(0.000000,79.000000) scale(0.100000,-0.100000)"
fill="#000000" stroke="none">
<path d="M239 769 l-21 -21 5 -32 5 -33 -9 -14 -8 -14 -90 3 -90 2 -5 -52 -5
-53 -6 -58 -5 -57 53 6 52 6 38 -15 37 -16 0 -15 0 -15 -15 -15 -16 -15 -39
-11 -39 -10 -40 6 -41 7 0 -47 0 -46 12 -68 11 -68 77 4 76 4 13 -15 13 -16
-14 -36 -13 -37 20 -14 19 -14 60 0 61 0 14 9 14 9 -5 31 -5 31 36 9 36 9 55
11 55 11 14 9 14 9 -28 85 -27 84 4 19 3 18 57 -3 57 -2 25 16 26 17 0 39 0
38 -12 26 -12 26 -45 -3 -44 -3 -9 30 -8 30 6 32 6 33 -6 24 -6 23 -72 22 -73
23 -15 8 -15 8 3 25 2 25 -22 6 -23 6 -37 0 -38 0 -21 -21z"/>
</g>
</svg>
