<?xml version="1.0" standalone="no"?>
<!DOCTYPE svg PUBLIC "-//W3C//DTD SVG 20010904//EN"
 "http://www.w3.org/TR/2001/REC-SVG-20010904/DTD/svg10.dtd">
<svg version="1.0" xmlns="http://www.w3.org/2000/svg"
 width="66.000000pt" height="77.000000pt" viewBox="0 0 66.000000 77.000000"
 preserveAspectRatio="xMidYMid meet">
<metadata>
Created by potrace 1.16, written by Peter Selinger 2001-2019
</metadata>
<g transform="translate(0.000000,77.000000) scale(0.100000,-0.100000)"
fill="#000000" stroke="none">
<path d="M240 750 l-20 -20 0 -11 0 -10 10 -20 11 -19 -17 -18 -18 -17 -87 2
-88 2 -5 -52 -5 -52 -4 -46 -4 -45 51 4 52 4 37 -15 37 -16 0 -25 0 -25 -15
-15 -16 -15 -42 -12 -41 -11 -38 6 -38 6 0 -39 0 -40 12 -53 12 -53 -2 -10 -2
-10 81 0 82 0 11 -17 11 -17 -13 -33 -12 -33 17 -12 17 -13 50 0 51 0 14 9 13
9 -7 30 -6 31 38 9 38 10 55 11 55 11 12 8 11 7 -24 73 -25 74 3 31 3 32 56
-3 57 -4 26 17 26 17 0 29 0 28 -12 26 -11 26 -45 -3 -45 -3 -9 30 -8 30 5 45
5 45 -7 12 -8 11 -62 21 -62 21 -14 0 -14 0 -18 20 -18 20 12 14 11 14 -22 6
-23 6 -27 0 -28 0 -20 -20z"/>
</g>
</svg>
