<?xml version="1.0" standalone="no"?>
<!DOCTYPE svg PUBLIC "-//W3C//DTD SVG 20010904//EN"
 "http://www.w3.org/TR/2001/REC-SVG-20010904/DTD/svg10.dtd">
<svg version="1.0" xmlns="http://www.w3.org/2000/svg"
 width="52.000000pt" height="54.000000pt" viewBox="0 0 52.000000 54.000000"
 preserveAspectRatio="xMidYMid meet">
<metadata>
Created by potrace 1.16, written by Peter Selinger 2001-2019
</metadata>
<g transform="translate(0.000000,54.000000) scale(0.100000,-0.100000)"
fill="#000000" stroke="none">
<path d="M335 531 l-30 -7 3 -48 3 -48 -12 -14 -11 -14 -43 0 -42 0 5 49 4 48
-23 17 -23 16 -83 0 -83 0 0 -65 0 -66 15 -29 15 -29 34 -6 34 -7 21 11 21 12
11 -28 11 -28 -6 -34 -5 -35 -16 -15 -16 -16 -52 0 -52 0 -9 -79 -9 -78 10
-17 10 -16 98 -3 97 -3 -6 55 -7 55 26 17 26 17 24 -11 24 -11 -2 -53 -2 -52
47 -8 48 -8 62 7 63 8 -1 23 0 22 -2 78 -2 77 -9 14 -9 14 -34 -9 -33 -10 -22
14 -23 14 0 18 0 17 25 27 24 26 10 0 10 0 26 -12 26 -12 10 15 9 14 0 93 0
92 -42 0 -43 0 -35 4 -35 5 -30 -8z"/>
</g>
</svg>
