<?xml version="1.0" standalone="no"?>
<!DOCTYPE svg PUBLIC "-//W3C//DTD SVG 20010904//EN"
 "http://www.w3.org/TR/2001/REC-SVG-20010904/DTD/svg10.dtd">
<svg version="1.0" xmlns="http://www.w3.org/2000/svg"
 width="50.000000pt" height="52.000000pt" viewBox="0 0 50.000000 52.000000"
 preserveAspectRatio="xMidYMid meet">
<metadata>
Created by potrace 1.16, written by Peter Selinger 2001-2019
</metadata>
<g transform="translate(0.000000,52.000000) scale(0.100000,-0.100000)"
fill="#000000" stroke="none">
<path d="M340 513 l-25 -5 -7 -7 -8 -7 10 -34 10 -34 -15 -23 -15 -23 -56 0
-55 0 7 49 6 48 -23 17 -23 16 -73 0 -73 0 0 -55 0 -56 15 -28 14 -29 25 -6
25 -6 26 12 26 11 12 -12 12 -12 0 -60 0 -61 -24 -20 -25 -19 -45 3 -46 3 -9
-72 -9 -73 13 -15 12 -15 84 0 83 0 -2 57 -2 57 26 14 25 15 27 -7 26 -6 10
-19 10 -18 -12 -32 -11 -31 12 -12 12 -12 86 1 86 1 7 8 7 9 -5 92 -6 91 -6 6
-6 6 -31 -11 -31 -10 -25 16 -26 17 0 28 0 27 25 27 24 26 23 0 23 0 15 -10
14 -9 8 12 8 12 0 83 0 82 -47 0 -48 0 -20 4 -20 4 -25 -5z"/>
</g>
</svg>
