<?xml version="1.0" standalone="no"?>
<!DOCTYPE svg PUBLIC "-//W3C//DTD SVG 20010904//EN"
 "http://www.w3.org/TR/2001/REC-SVG-20010904/DTD/svg10.dtd">
<svg version="1.0" xmlns="http://www.w3.org/2000/svg"
 width="56.000000pt" height="66.000000pt" viewBox="0 0 56.000000 66.000000"
 preserveAspectRatio="xMidYMid meet">
<metadata>
Created by potrace 1.16, written by Peter Selinger 2001-2019
</metadata>
<g transform="translate(0.000000,66.000000) scale(0.100000,-0.100000)"
fill="#000000" stroke="none">
<path d="M48 653 l-38 -4 0 -89 0 -89 48 6 49 5 21 -27 22 -28 0 -33 0 -34
-20 -20 -20 -20 -7 0 -8 0 -39 11 -39 11 -8 -14 -9 -13 1 -50 1 -50 7 -30 6
-30 90 -5 90 -5 -3 -47 -4 -47 26 -26 25 -25 18 0 19 0 18 21 18 21 5 34 6 34
-12 14 -12 15 21 11 21 11 82 -7 82 -6 9 -2 9 -1 3 25 2 25 16 55 16 54 -5 17
-6 17 -57 -5 -57 -4 -45 23 -45 23 -3 23 -4 23 16 24 15 23 37 12 36 12 41 -6
40 -7 -7 77 -6 77 -3 3 -2 2 -65 -20 -65 -20 -24 -9 -23 -10 6 -23 6 -24 -40
-7 -41 -7 -24 16 -25 16 -5 23 -6 23 10 26 10 26 -6 6 -6 6 -61 -2 -61 -1 -37
-4z"/>
</g>
</svg>
