<?xml version="1.0" standalone="no"?>
<!DOCTYPE svg PUBLIC "-//W3C//DTD SVG 20010904//EN"
 "http://www.w3.org/TR/2001/REC-SVG-20010904/DTD/svg10.dtd">
<svg version="1.0" xmlns="http://www.w3.org/2000/svg"
 width="69.000000pt" height="70.000000pt" viewBox="0 0 69.000000 70.000000"
 preserveAspectRatio="xMidYMid meet">
<metadata>
Created by potrace 1.16, written by Peter Selinger 2001-2019
</metadata>
<g transform="translate(0.000000,70.000000) scale(0.100000,-0.100000)"
fill="#000000" stroke="none">
<path d="M5 687 l-5 -12 2 -245 3 -245 85 -5 85 -5 12 -8 12 -8 -9 -25 -10
-25 0 -33 0 -33 18 -16 17 -15 28 -7 27 -7 31 12 30 13 14 28 15 28 0 57 0 57
85 -7 84 -7 21 73 22 73 7 25 8 25 37 -3 38 -3 14 12 14 11 0 53 0 53 -15 12
-15 13 -71 -5 -71 -5 4 93 4 94 -6 0 -5 0 -65 -10 -65 -10 -34 -6 -33 -5 5
-35 6 -34 -29 -15 -29 -15 -21 0 -21 0 -20 10 -19 11 10 19 10 19 0 15 0 16
-20 20 -20 20 -80 0 -81 0 -4 -13z"/>
</g>
</svg>
