<?xml version="1.0" standalone="no"?>
<!DOCTYPE svg PUBLIC "-//W3C//DTD SVG 20010904//EN"
 "http://www.w3.org/TR/2001/REC-SVG-20010904/DTD/svg10.dtd">
<svg version="1.0" xmlns="http://www.w3.org/2000/svg"
 width="67.000000pt" height="68.000000pt" viewBox="0 0 67.000000 68.000000"
 preserveAspectRatio="xMidYMid meet">
<metadata>
Created by potrace 1.16, written by Peter Selinger 2001-2019
</metadata>
<g transform="translate(0.000000,68.000000) scale(0.100000,-0.100000)"
fill="#000000" stroke="none">
<path d="M4 667 l-4 -12 2 -235 3 -235 87 -5 87 -5 11 -11 11 -11 -13 -47 -12
-47 10 -17 11 -17 27 -13 27 -14 30 13 30 12 15 30 16 29 -4 52 -3 51 88 -2
87 -1 21 71 21 72 7 25 8 25 39 0 39 0 13 8 12 8 0 43 0 44 -15 12 -15 12 -53
-4 -52 -5 -15 -4 -15 -4 0 97 0 98 -15 -4 -15 -4 -50 -7 -50 -6 -28 -5 -28 -6
7 -33 6 -33 -31 -16 -30 -16 -34 0 -33 0 -19 14 -19 14 12 26 12 27 -10 18 -9
19 -17 6 -16 6 -64 0 -65 0 -5 -13z"/>
</g>
</svg>
