<?xml version="1.0" standalone="no"?>
<!DOCTYPE svg PUBLIC "-//W3C//DTD SVG 20010904//EN"
 "http://www.w3.org/TR/2001/REC-SVG-20010904/DTD/svg10.dtd">
<svg version="1.0" xmlns="http://www.w3.org/2000/svg"
 width="51.000000pt" height="54.000000pt" viewBox="0 0 51.000000 54.000000"
 preserveAspectRatio="xMidYMid meet">
<metadata>
Created by potrace 1.16, written by Peter Selinger 2001-2019
</metadata>
<g transform="translate(0.000000,54.000000) scale(0.100000,-0.100000)"
fill="#000000" stroke="none">
<path d="M0 462 l0 -78 15 -21 15 -22 32 10 33 9 17 0 18 0 21 -21 21 -21 -5
-36 -6 -35 -23 -24 -23 -24 -49 3 -50 3 -8 -40 -9 -40 3 -45 3 -45 68 2 68 1
26 17 26 17 -6 51 -6 51 10 13 11 13 38 0 39 0 20 -26 21 -26 9 -35 10 -35
-11 -23 -11 -24 6 -15 6 -16 44 0 43 0 47 16 47 16 0 8 0 8 -11 4 -11 4 -22
94 -23 95 -41 -3 -42 -2 -11 24 -12 24 7 46 7 46 10 6 11 6 44 -12 44 -13 20
18 20 18 0 69 0 68 -22 -4 -23 -5 -60 -6 -60 -6 -18 -5 -17 -5 6 -39 6 -40
-28 -11 -29 -10 -43 6 -43 6 -6 15 -6 15 12 12 11 11 0 13 0 13 -20 20 -20 20
-70 0 -70 0 0 -78z"/>
</g>
</svg>
