<?xml version="1.0" standalone="no"?>
<!DOCTYPE svg PUBLIC "-//W3C//DTD SVG 20010904//EN"
 "http://www.w3.org/TR/2001/REC-SVG-20010904/DTD/svg10.dtd">
<svg version="1.0" xmlns="http://www.w3.org/2000/svg"
 width="53.000000pt" height="56.000000pt" viewBox="0 0 53.000000 56.000000"
 preserveAspectRatio="xMidYMid meet">
<metadata>
Created by potrace 1.16, written by Peter Selinger 2001-2019
</metadata>
<g transform="translate(0.000000,56.000000) scale(0.100000,-0.100000)"
fill="#000000" stroke="none">
<path d="M0 471 l0 -89 18 -22 18 -22 42 11 42 12 19 -11 20 -10 6 -19 6 -18
-10 -24 -9 -24 -19 -18 -20 -17 -48 2 -49 3 -8 -40 -9 -40 3 -55 3 -55 77 1
78 1 26 18 26 17 -4 54 -5 54 13 11 13 10 28 -3 27 -3 23 -34 23 -35 -2 -60
-3 -61 53 -3 54 -3 49 16 49 17 0 18 0 18 -11 4 -11 4 -22 94 -22 95 -44 0
-43 0 -10 22 -9 21 9 39 9 38 20 -3 19 -2 33 -7 32 -6 20 18 20 18 0 79 0 80
-37 -6 -38 -5 -55 -6 -55 -6 -19 -6 -18 -5 6 -39 6 -39 -26 -10 -26 -10 -34 6
-34 6 -5 8 -5 9 10 6 10 6 0 25 0 24 -20 20 -20 20 -80 0 -80 0 0 -89z"/>
</g>
</svg>
