<?xml version="1.0" standalone="no"?>
<!DOCTYPE svg PUBLIC "-//W3C//DTD SVG 20010904//EN"
 "http://www.w3.org/TR/2001/REC-SVG-20010904/DTD/svg10.dtd">
<svg version="1.0" xmlns="http://www.w3.org/2000/svg"
 width="81.000000pt" height="65.000000pt" viewBox="0 0 81.000000 65.000000"
 preserveAspectRatio="xMidYMid meet">
<metadata>
Created by potrace 1.16, written by Peter Selinger 2001-2019
</metadata>
<g transform="translate(0.000000,65.000000) scale(0.100000,-0.100000)"
fill="#000000" stroke="none">
<path d="M155 588 l6 -63 -9 -30 -9 -30 -24 1 -24 1 -32 8 -31 7 -17 -26 -17
-26 6 -24 6 -23 30 -13 31 -13 38 13 39 12 12 -7 13 -8 -7 -108 -6 -109 98 0
98 0 -4 -60 -4 -60 12 -15 12 -15 33 0 32 0 28 22 27 21 -6 43 -5 42 22 6 22
6 63 0 62 0 0 4 0 3 -15 43 -15 43 0 49 0 49 16 6 17 6 16 -10 16 -9 34 7 34
7 26 19 26 20 3 34 3 34 -15 20 -14 20 -47 -13 -48 -13 -18 17 -19 17 0 75 0
74 -17 -7 -18 -7 -55 -15 -55 -15 -15 -8 -15 -8 0 -24 0 -23 -49 -3 -50 -3
-22 5 -23 6 5 15 6 15 -6 25 -6 25 -30 15 -29 15 -61 0 -61 0 6 -62z"/>
</g>
</svg>
