<?xml version="1.0" standalone="no"?>
<!DOCTYPE svg PUBLIC "-//W3C//DTD SVG 20010904//EN"
 "http://www.w3.org/TR/2001/REC-SVG-20010904/DTD/svg10.dtd">
<svg version="1.0" xmlns="http://www.w3.org/2000/svg"
 width="83.000000pt" height="67.000000pt" viewBox="0 0 83.000000 67.000000"
 preserveAspectRatio="xMidYMid meet">
<metadata>
Created by potrace 1.16, written by Peter Selinger 2001-2019
</metadata>
<g transform="translate(0.000000,67.000000) scale(0.100000,-0.100000)"
fill="#000000" stroke="none">
<path d="M153 586 l2 -85 -10 -10 -10 -10 -43 12 -43 11 -17 -10 -17 -11 -9
-25 -9 -25 6 -25 7 -25 30 -13 30 -12 27 5 28 6 20 3 20 3 -3 -113 -3 -112 96
0 95 0 0 -63 0 -63 12 -12 12 -12 42 0 41 0 28 21 27 22 -4 43 -3 43 20 5 20
6 63 0 62 0 0 14 0 13 -15 43 -15 43 0 38 0 38 10 6 11 7 13 -11 14 -12 43 10
42 10 26 19 26 19 3 41 3 41 -11 21 -11 20 -32 -1 -32 0 -20 -9 -20 -8 -17 16
-18 15 0 75 0 74 -22 -5 -23 -5 -60 -17 -60 -17 -18 -10 -18 -9 3 -22 3 -22
-55 0 -55 0 -3 20 -3 20 -5 22 -4 23 -30 15 -29 15 -70 0 -69 0 1 -84z"/>
</g>
</svg>
