<?xml version="1.0" standalone="no"?>
<!DOCTYPE svg PUBLIC "-//W3C//DTD SVG 20010904//EN"
 "http://www.w3.org/TR/2001/REC-SVG-20010904/DTD/svg10.dtd">
<svg version="1.0" xmlns="http://www.w3.org/2000/svg"
 width="53.000000pt" height="52.000000pt" viewBox="0 0 53.000000 52.000000"
 preserveAspectRatio="xMidYMid meet">
<metadata>
Created by potrace 1.16, written by Peter Selinger 2001-2019
</metadata>
<g transform="translate(0.000000,52.000000) scale(0.100000,-0.100000)"
fill="#000000" stroke="none">
<path d="M2 439 l3 -76 13 -15 13 -16 36 11 35 11 14 -19 14 -19 0 -36 0 -37
-21 -19 -21 -19 -42 0 -41 0 -3 -100 -3 -100 104 -3 103 -3 13 15 13 16 -11
31 -11 32 0 23 0 24 21 21 21 21 22 -21 21 -22 0 -67 0 -67 85 -3 85 -3 30 5
30 6 -3 89 -3 90 -15 12 -15 12 -23 -12 -23 -13 -41 21 -41 21 -6 20 -6 20 6
30 6 29 14 11 14 11 20 -10 20 -11 29 0 30 0 16 25 16 24 0 59 0 59 -6 6 -6 6
-26 -10 -27 -10 -69 -15 -70 -14 -12 -11 -13 -11 12 -19 12 -20 -15 -9 -15
-10 -27 0 -27 0 -24 9 -25 10 -6 19 -7 19 11 28 11 28 -11 11 -10 10 -86 1
-86 1 4 -77z"/>
</g>
</svg>
