<?xml version="1.0" standalone="no"?>
<!DOCTYPE svg PUBLIC "-//W3C//DTD SVG 20010904//EN"
 "http://www.w3.org/TR/2001/REC-SVG-20010904/DTD/svg10.dtd">
<svg version="1.0" xmlns="http://www.w3.org/2000/svg"
 width="86.000000pt" height="66.000000pt" viewBox="0 0 86.000000 66.000000"
 preserveAspectRatio="xMidYMid meet">
<metadata>
Created by potrace 1.16, written by Peter Selinger 2001-2019
</metadata>
<g transform="translate(0.000000,66.000000) scale(0.100000,-0.100000)"
fill="#000000" stroke="none">
<path d="M208 653 l-38 -4 0 -65 0 -65 -16 -24 -16 -25 -16 0 -16 0 -32 12
-33 12 -15 -13 -15 -13 -7 -34 -6 -34 6 -25 6 -25 40 -20 39 -20 19 0 18 0 10
10 11 11 11 -14 11 -13 3 -84 3 -85 72 -5 72 -5 11 -11 11 -11 -11 -27 -10
-27 0 -18 0 -18 51 -7 51 -7 44 7 44 6 0 24 0 23 38 10 37 11 9 0 8 0 49 22
49 23 0 75 0 75 6 21 6 22 53 -2 53 -1 21 19 22 20 -3 65 -3 66 -80 1 -80 0 0
76 0 76 -6 6 -6 6 -87 -19 -87 -18 -12 -12 -11 -11 11 -31 12 -30 -20 -20 -19
-19 -43 0 -43 0 -19 14 -18 13 11 46 12 46 -6 15 -6 16 -22 5 -21 4 -35 4 -35
4 -37 -4z"/>
</g>
</svg>
