<?xml version="1.0" standalone="no"?>
<!DOCTYPE svg PUBLIC "-//W3C//DTD SVG 20010904//EN"
 "http://www.w3.org/TR/2001/REC-SVG-20010904/DTD/svg10.dtd">
<svg version="1.0" xmlns="http://www.w3.org/2000/svg"
 width="84.000000pt" height="64.000000pt" viewBox="0 0 84.000000 64.000000"
 preserveAspectRatio="xMidYMid meet">
<metadata>
Created by potrace 1.16, written by Peter Selinger 2001-2019
</metadata>
<g transform="translate(0.000000,64.000000) scale(0.100000,-0.100000)"
fill="#000000" stroke="none">
<path d="M208 632 l-38 -3 0 -65 0 -65 -16 -24 -16 -25 -30 0 -29 0 -20 11
-20 10 -14 -11 -14 -11 -6 -29 -6 -30 6 -20 6 -20 41 -21 41 -21 23 13 23 12
15 -12 15 -13 3 -86 3 -87 72 -5 72 -5 12 -12 12 -12 -11 -39 -12 -39 0 -5 0
-5 46 -7 46 -6 39 6 40 7 -6 18 -6 18 18 9 18 10 35 7 35 7 48 21 47 22 0 77
0 77 10 26 10 26 23 -8 22 -7 28 0 27 1 21 19 20 18 -3 55 -3 56 -80 0 -80 0
0 75 0 75 -10 3 -10 3 -67 -11 -66 -12 -17 -12 -18 -13 12 -21 11 -21 0 -10 0
-11 -20 -20 -20 -20 -53 0 -53 0 -19 14 -19 14 10 51 10 51 -7 11 -7 12 -43 6
-44 6 -37 -3z"/>
</g>
</svg>
