<?xml version="1.0" standalone="no"?>
<!DOCTYPE svg PUBLIC "-//W3C//DTD SVG 20010904//EN"
 "http://www.w3.org/TR/2001/REC-SVG-20010904/DTD/svg10.dtd">
<svg version="1.0" xmlns="http://www.w3.org/2000/svg"
 width="81.000000pt" height="54.000000pt" viewBox="0 0 81.000000 54.000000"
 preserveAspectRatio="xMidYMid meet">
<metadata>
Created by potrace 1.16, written by Peter Selinger 2001-2019
</metadata>
<g transform="translate(0.000000,54.000000) scale(0.100000,-0.100000)"
fill="#000000" stroke="none">
<path d="M200 531 l-55 -6 2 -92 2 -93 -48 0 -48 0 -28 -22 -27 -21 5 -44 5
-44 18 -21 19 -20 54 5 54 6 -6 -77 -7 -77 8 -13 9 -13 104 3 104 3 -1 25 0
25 -8 32 -7 32 20 20 21 21 10 0 10 0 18 -20 17 -21 0 -46 0 -47 25 -7 25 -7
83 -1 82 -1 0 28 0 28 -11 58 -11 59 6 22 6 23 60 -5 60 -6 20 18 20 18 0 27
0 28 -16 13 -15 13 -36 -13 -35 -13 -20 20 -20 20 1 86 0 86 -12 0 -12 0 -90
-28 -90 -28 -3 -27 -3 -27 -20 -11 -20 -10 -29 6 -29 6 -10 13 -10 12 11 37
12 38 -15 13 -14 14 -40 5 -40 4 -55 -6z"/>
</g>
</svg>
