<?xml version="1.0" standalone="no"?>
<!DOCTYPE svg PUBLIC "-//W3C//DTD SVG 20010904//EN"
 "http://www.w3.org/TR/2001/REC-SVG-20010904/DTD/svg10.dtd">
<svg version="1.0" xmlns="http://www.w3.org/2000/svg"
 width="68.000000pt" height="72.000000pt" viewBox="0 0 68.000000 72.000000"
 preserveAspectRatio="xMidYMid meet">
<metadata>
Created by potrace 1.16, written by Peter Selinger 2001-2019
</metadata>
<g transform="translate(0.000000,72.000000) scale(0.100000,-0.100000)"
fill="#000000" stroke="none">
<path d="M381 706 l-12 -14 7 -52 7 -51 -19 -14 -19 -14 -91 -1 -92 0 -3 -85
-4 -84 -20 -16 -20 -15 -35 6 -35 6 -20 1 -20 2 -3 -44 -3 -43 18 -20 18 -20
51 7 52 6 6 -18 5 -18 3 -90 2 -90 94 5 94 6 13 17 13 18 -11 35 -11 35 15 10
14 9 36 0 35 0 17 -12 17 -13 2 -25 1 -25 -7 -41 -7 -41 16 -13 16 -13 52 12
52 12 37 17 36 17 -8 15 -8 15 -7 65 -7 65 -10 18 -10 19 -33 -6 -34 -7 -21
21 -21 21 3 47 3 47 20 -3 20 -3 36 -5 36 -6 17 23 16 23 0 77 0 77 -47 -14
-46 -14 -54 0 -55 0 7 73 7 72 -22 23 -21 22 -23 0 -24 0 -11 -14z"/>
</g>
</svg>
