<?xml version="1.0" standalone="no"?>
<!DOCTYPE svg PUBLIC "-//W3C//DTD SVG 20010904//EN"
 "http://www.w3.org/TR/2001/REC-SVG-20010904/DTD/svg10.dtd">
<svg version="1.0" xmlns="http://www.w3.org/2000/svg"
 width="54.000000pt" height="66.000000pt" viewBox="0 0 54.000000 66.000000"
 preserveAspectRatio="xMidYMid meet">
<metadata>
Created by potrace 1.16, written by Peter Selinger 2001-2019
</metadata>
<g transform="translate(0.000000,66.000000) scale(0.100000,-0.100000)"
fill="#000000" stroke="none">
<path d="M206 641 l-18 -20 2 -48 3 -48 -2 -14 -1 -14 -85 6 -84 6 -6 -8 -5
-9 -5 -83 -6 -84 15 -18 14 -19 21 11 20 11 23 0 24 0 12 -12 12 -12 0 -28 0
-28 -26 -17 -26 -17 -31 12 -30 12 -14 -11 -13 -11 0 -74 0 -73 10 -25 10 -26
78 0 78 0 22 16 23 16 -3 66 -3 67 47 3 47 3 21 -11 22 -12 -7 -49 -7 -49 24
-9 23 -10 55 -10 55 -10 19 -7 19 -7 -6 85 -7 86 -6 17 -7 17 -27 -6 -28 -5
-24 -6 -25 -6 -17 16 -16 16 0 39 0 39 21 12 21 11 33 0 33 0 32 -7 31 -7 -3
111 -3 111 -10 -2 -10 -2 -75 23 -75 22 -22 9 -23 10 0 19 0 20 12 7 11 7 -18
14 -19 13 -41 0 -42 0 -17 -19z"/>
</g>
</svg>
