<?xml version="1.0" standalone="no"?>
<!DOCTYPE svg PUBLIC "-//W3C//DTD SVG 20010904//EN"
 "http://www.w3.org/TR/2001/REC-SVG-20010904/DTD/svg10.dtd">
<svg version="1.0" xmlns="http://www.w3.org/2000/svg"
 width="56.000000pt" height="68.000000pt" viewBox="0 0 56.000000 68.000000"
 preserveAspectRatio="xMidYMid meet">
<metadata>
Created by potrace 1.16, written by Peter Selinger 2001-2019
</metadata>
<g transform="translate(0.000000,68.000000) scale(0.100000,-0.100000)"
fill="#000000" stroke="none">
<path d="M207 662 l-17 -19 0 -63 0 -63 -84 7 -84 7 -6 -10 -6 -10 -6 -93 -5
-93 15 -19 16 -19 39 13 40 13 16 -13 15 -12 0 -19 0 -19 -23 -15 -23 -15 -31
12 -31 12 -16 -13 -16 -13 0 -84 0 -83 10 -25 10 -26 88 0 88 0 23 16 23 16
-4 67 -3 66 37 3 37 3 20 -11 20 -10 -6 -50 -6 -49 24 -10 24 -10 55 -11 55
-10 28 -6 27 -6 -1 58 0 59 -8 48 -8 47 -7 7 -7 7 -50 -11 -51 -10 -14 14 -14
14 0 29 0 29 22 12 21 11 64 -6 64 -7 -3 121 -3 120 -12 0 -13 0 -87 25 -88
26 -8 8 -9 9 14 21 13 22 -19 15 -20 14 -51 0 -52 0 -16 -18z"/>
</g>
</svg>
