<?xml version="1.0" standalone="no"?>
<!DOCTYPE svg PUBLIC "-//W3C//DTD SVG 20010904//EN"
 "http://www.w3.org/TR/2001/REC-SVG-20010904/DTD/svg10.dtd">
<svg version="1.0" xmlns="http://www.w3.org/2000/svg"
 width="68.000000pt" height="78.000000pt" viewBox="0 0 68.000000 78.000000"
 preserveAspectRatio="xMidYMid meet">
<metadata>
Created by potrace 1.16, written by Peter Selinger 2001-2019
</metadata>
<g transform="translate(0.000000,78.000000) scale(0.100000,-0.100000)"
fill="#000000" stroke="none">
<path d="M365 771 l-5 -10 11 -25 12 -25 -7 -25 -6 -26 -30 -15 -29 -15 -79 0
-80 0 2 -79 1 -80 -10 -10 -10 -10 -42 12 -42 11 -20 -18 -19 -17 -5 -32 -4
-32 5 -13 4 -13 31 -15 30 -16 50 6 50 7 -6 -86 -5 -87 -11 -11 -11 -11 0 -8
0 -8 70 0 71 0 29 -15 30 -15 6 -25 6 -25 -6 -15 -5 -15 23 -6 22 -5 50 3 49
3 0 25 0 24 35 12 35 13 58 17 57 17 0 16 0 16 -14 88 -13 89 -13 8 -13 8 -24
-11 -24 -11 -26 26 -25 26 7 21 7 22 31 20 32 19 23 0 23 0 20 -10 19 -11 0
69 0 70 -6 29 -6 30 -44 -13 -44 -13 -58 -7 -58 -6 -13 15 -13 16 13 35 12 34
-17 46 -18 46 -28 0 -29 0 -6 -9z"/>
</g>
</svg>
