<?xml version="1.0" standalone="no"?>
<!DOCTYPE svg PUBLIC "-//W3C//DTD SVG 20010904//EN"
 "http://www.w3.org/TR/2001/REC-SVG-20010904/DTD/svg10.dtd">
<svg version="1.0" xmlns="http://www.w3.org/2000/svg"
 width="70.000000pt" height="80.000000pt" viewBox="0 0 70.000000 80.000000"
 preserveAspectRatio="xMidYMid meet">
<metadata>
Created by potrace 1.16, written by Peter Selinger 2001-2019
</metadata>
<g transform="translate(0.000000,80.000000) scale(0.100000,-0.100000)"
fill="#000000" stroke="none">
<path d="M363 784 l-6 -15 12 -26 12 -25 -6 -19 -6 -19 -29 -15 -29 -15 -82 0
-82 0 6 -57 6 -56 -6 -29 -6 -28 -49 6 -49 7 -18 -17 -19 -17 -6 -40 -6 -40 9
-18 10 -18 31 -13 30 -13 47 6 46 5 -6 -75 -6 -76 -10 -10 -11 -11 0 -18 0
-18 70 0 71 0 28 -15 29 -14 6 -16 6 -17 -6 -23 -6 -24 24 -6 24 -6 59 3 60 3
3 27 3 27 32 10 32 9 58 17 57 18 0 24 0 24 -10 72 -11 72 -4 22 -5 22 -20 6
-19 6 -19 -10 -19 -10 -21 22 -22 23 15 21 14 20 31 13 31 13 25 -12 25 -11 9
0 10 0 0 79 0 79 -6 32 -7 32 -21 -7 -21 -6 -77 -16 -77 -16 -15 13 -16 12 10
18 10 19 0 25 0 26 -16 40 -16 40 -39 0 -40 0 -6 -16z"/>
</g>
</svg>
