<?xml version="1.0" standalone="no"?>
<!DOCTYPE svg PUBLIC "-//W3C//DTD SVG 20010904//EN"
 "http://www.w3.org/TR/2001/REC-SVG-20010904/DTD/svg10.dtd">
<svg version="1.0" xmlns="http://www.w3.org/2000/svg"
 width="54.000000pt" height="78.000000pt" viewBox="0 0 54.000000 78.000000"
 preserveAspectRatio="xMidYMid meet">
<metadata>
Created by potrace 1.16, written by Peter Selinger 2001-2019
</metadata>
<g transform="translate(0.000000,78.000000) scale(0.100000,-0.100000)"
fill="#000000" stroke="none">
<path d="M219 758 l-21 -23 5 -54 6 -54 -105 7 -104 7 0 -258 0 -258 61 3 60
4 24 -6 24 -6 11 -20 10 -19 -12 -27 -12 -26 19 -14 19 -14 33 0 34 0 30 16
31 16 -6 33 -7 34 33 5 33 6 65 10 65 10 5 0 5 0 1 28 2 27 7 82 8 83 -16 5
-15 6 -37 -10 -37 -10 -24 9 -23 9 -7 26 -6 25 17 26 17 26 48 -6 48 -6 6 16
6 16 0 71 0 72 -8 10 -7 10 -65 22 -65 22 -31 6 -32 6 -17 19 -18 20 12 14 12
14 -17 6 -16 6 -13 0 -14 0 -22 -22z"/>
</g>
</svg>
