<?xml version="1.0" standalone="no"?>
<!DOCTYPE svg PUBLIC "-//W3C//DTD SVG 20010904//EN"
 "http://www.w3.org/TR/2001/REC-SVG-20010904/DTD/svg10.dtd">
<svg version="1.0" xmlns="http://www.w3.org/2000/svg"
 width="56.000000pt" height="80.000000pt" viewBox="0 0 56.000000 80.000000"
 preserveAspectRatio="xMidYMid meet">
<metadata>
Created by potrace 1.16, written by Peter Selinger 2001-2019
</metadata>
<g transform="translate(0.000000,80.000000) scale(0.100000,-0.100000)"
fill="#000000" stroke="none">
<path d="M220 778 l-21 -23 3 -54 3 -53 -102 7 -103 7 0 -270 0 -269 68 5 69
4 22 -11 22 -12 -6 -44 -7 -43 20 -11 21 -11 41 0 41 0 31 16 30 16 -4 34 -4
34 31 5 30 5 65 10 65 10 6 0 6 0 3 43 3 42 1 80 1 80 -67 -3 -67 -3 -11 21
-11 21 16 25 16 25 46 -7 45 -7 9 14 9 14 0 85 0 85 -8 10 -7 10 -65 22 -65
21 -30 7 -30 7 -13 10 -12 11 6 20 6 19 -13 9 -14 9 -27 0 -27 0 -21 -22z"/>
</g>
</svg>
