<?xml version="1.0" standalone="no"?>
<!DOCTYPE svg PUBLIC "-//W3C//DTD SVG 20010904//EN"
 "http://www.w3.org/TR/2001/REC-SVG-20010904/DTD/svg10.dtd">
<svg version="1.0" xmlns="http://www.w3.org/2000/svg"
 width="66.000000pt" height="78.000000pt" viewBox="0 0 66.000000 78.000000"
 preserveAspectRatio="xMidYMid meet">
<metadata>
Created by potrace 1.16, written by Peter Selinger 2001-2019
</metadata>
<g transform="translate(0.000000,78.000000) scale(0.100000,-0.100000)"
fill="#000000" stroke="none">
<path d="M220 771 l-25 -7 1 -9 0 -10 8 -37 8 -37 -15 -16 -16 -15 -90 0 -91
0 0 -67 0 -68 13 -25 13 -25 42 3 41 2 11 -20 11 -21 -3 -32 -3 -32 -37 3 -36
3 -6 -18 -5 -18 -12 -70 -12 -70 -1 -25 -1 -25 82 0 83 -1 10 -10 11 -11 -11
-28 -11 -28 7 -19 6 -19 25 -10 24 -9 27 0 27 0 15 10 15 9 -12 20 -12 19 13
11 12 11 70 14 69 15 26 9 25 10 12 48 11 49 7 40 7 40 9 19 10 18 34 -5 34
-6 10 19 10 19 0 34 0 35 -17 21 -18 20 -43 -12 -44 -12 -14 20 -14 19 0 69 0
69 -17 -7 -18 -6 -46 -11 -46 -11 -27 7 -27 7 7 62 6 62 -19 17 -19 18 -30 4
-29 5 -25 -8z"/>
</g>
</svg>
