<?xml version="1.0" standalone="no"?>
<!DOCTYPE svg PUBLIC "-//W3C//DTD SVG 20010904//EN"
 "http://www.w3.org/TR/2001/REC-SVG-20010904/DTD/svg10.dtd">
<svg version="1.0" xmlns="http://www.w3.org/2000/svg"
 width="78.000000pt" height="66.000000pt" viewBox="0 0 78.000000 66.000000"
 preserveAspectRatio="xMidYMid meet">
<metadata>
Created by potrace 1.16, written by Peter Selinger 2001-2019
</metadata>
<g transform="translate(0.000000,66.000000) scale(0.100000,-0.100000)"
fill="#000000" stroke="none">
<path d="M349 641 l-24 -20 13 -12 12 -13 0 -22 0 -23 -22 -15 -22 -16 -87 0
-86 0 -5 -82 -5 -81 -22 -18 -22 -18 -26 12 -25 11 -14 -19 -14 -19 0 -29 0
-28 11 -20 11 -21 46 4 47 3 7 -90 7 -90 -4 -12 -4 -13 87 0 88 0 23 16 23 16
-4 57 -3 56 37 3 37 3 17 -25 16 -26 -6 -34 -6 -33 6 -17 6 -16 99 0 98 0 15
53 15 52 7 38 6 38 20 10 19 10 14 -11 13 -11 7 11 7 11 9 31 9 31 -6 23 -6
24 -18 -10 -19 -10 -23 0 -23 1 -20 15 -20 15 -3 94 -4 95 -88 0 -88 0 -12 15
-13 16 10 22 11 23 -10 20 -10 19 -16 13 -16 12 -17 0 -17 0 -23 -19z"/>
</g>
</svg>
