<?xml version="1.0" standalone="no"?>
<!DOCTYPE svg PUBLIC "-//W3C//DTD SVG 20010904//EN"
 "http://www.w3.org/TR/2001/REC-SVG-20010904/DTD/svg10.dtd">
<svg version="1.0" xmlns="http://www.w3.org/2000/svg"
 width="80.000000pt" height="68.000000pt" viewBox="0 0 80.000000 68.000000"
 preserveAspectRatio="xMidYMid meet">
<metadata>
Created by potrace 1.16, written by Peter Selinger 2001-2019
</metadata>
<g transform="translate(0.000000,68.000000) scale(0.100000,-0.100000)"
fill="#000000" stroke="none">
<path d="M352 664 l-22 -15 0 -15 0 -14 13 -21 12 -20 -24 -20 -23 -19 -88 0
-87 0 -5 -79 -5 -80 -12 -15 -13 -16 -38 6 -38 6 -11 -20 -11 -21 0 -36 0 -36
11 -20 10 -20 47 2 47 3 6 -79 7 -80 -5 -22 -5 -23 99 0 99 0 23 16 23 16 -4
57 -3 56 27 3 26 3 16 -22 15 -22 -5 -41 -5 -41 8 -11 8 -12 113 -4 112 -3 0
20 1 20 17 75 18 75 34 0 35 0 13 40 13 40 -6 33 -6 34 -22 -7 -22 -7 -20 -4
-20 -4 -20 15 -20 16 -3 94 -4 95 -87 0 -87 0 -12 12 -11 11 10 19 11 20 -13
29 -12 30 -18 9 -18 10 -23 0 -24 0 -22 -16z"/>
</g>
</svg>
