<?xml version="1.0" standalone="no"?>
<!DOCTYPE svg PUBLIC "-//W3C//DTD SVG 20010904//EN"
 "http://www.w3.org/TR/2001/REC-SVG-20010904/DTD/svg10.dtd">
<svg version="1.0" xmlns="http://www.w3.org/2000/svg"
 width="72.000000pt" height="84.000000pt" viewBox="0 0 72.000000 84.000000"
 preserveAspectRatio="xMidYMid meet">
<metadata>
Created by potrace 1.16, written by Peter Selinger 2001-2019
</metadata>
<g transform="translate(0.000000,84.000000) scale(0.100000,-0.100000)"
fill="#000000" stroke="none">
<path d="M371 829 l-24 -9 7 -50 7 -49 -21 -21 -20 -20 -81 0 -81 0 7 -75 7
-74 -6 -19 -6 -18 -63 4 -63 4 -18 -17 -17 -17 3 -47 3 -46 30 -14 29 -14 38
10 38 10 4 -16 5 -16 3 -85 3 -85 10 -7 10 -8 67 0 67 0 27 -23 27 -23 -14
-38 -14 -38 20 -14 19 -14 46 0 46 0 18 13 19 14 -5 31 -5 32 41 10 41 10 62
16 62 16 8 37 8 36 0 90 0 90 -55 1 -55 1 -12 1 -13 2 0 19 0 20 21 15 21 14
29 -10 29 -10 15 6 15 5 0 94 0 93 -13 18 -13 17 -84 8 -85 9 -18 7 -18 8 5
14 6 15 6 22 5 22 -21 27 -21 27 -32 -1 -32 0 -24 -10z"/>
</g>
</svg>
