<?xml version="1.0" standalone="no"?>
<!DOCTYPE svg PUBLIC "-//W3C//DTD SVG 20010904//EN"
 "http://www.w3.org/TR/2001/REC-SVG-20010904/DTD/svg10.dtd">
<svg version="1.0" xmlns="http://www.w3.org/2000/svg"
 width="54.000000pt" height="71.000000pt" viewBox="0 0 54.000000 71.000000"
 preserveAspectRatio="xMidYMid meet">
<metadata>
Created by potrace 1.16, written by Peter Selinger 2001-2019
</metadata>
<g transform="translate(0.000000,71.000000) scale(0.100000,-0.100000)"
fill="#000000" stroke="none">
<path d="M231 696 l-12 -14 7 -60 6 -59 -13 -9 -13 -8 -98 2 -98 2 0 -78 0
-78 14 -19 14 -19 51 13 52 13 20 -17 19 -18 0 -38 0 -38 -26 -20 -26 -20 -20
-6 -19 -7 -30 13 -30 12 -12 -12 -11 -11 1 -83 1 -82 1 -10 1 -10 101 5 101 6
19 23 19 23 0 20 0 19 -10 19 -10 19 20 6 19 6 20 -10 19 -11 18 -45 17 -46
-11 -11 -12 -12 0 -17 0 -17 16 -6 16 -6 20 0 20 0 70 17 70 17 -7 90 -6 91
-5 17 -5 16 -15 6 -15 6 -20 -11 -20 -10 -19 6 -20 6 -6 25 -7 25 12 25 11 24
27 11 28 11 29 -11 29 -10 8 5 9 5 0 93 0 94 -42 6 -43 5 -62 7 -63 7 -17 12
-17 12 13 32 13 31 -16 25 -16 25 -24 0 -24 0 -11 -14z"/>
</g>
</svg>
