<?xml version="1.0" standalone="no"?>
<!DOCTYPE svg PUBLIC "-//W3C//DTD SVG 20010904//EN"
 "http://www.w3.org/TR/2001/REC-SVG-20010904/DTD/svg10.dtd">
<svg version="1.0" xmlns="http://www.w3.org/2000/svg"
 width="71.000000pt" height="66.000000pt" viewBox="0 0 71.000000 66.000000"
 preserveAspectRatio="xMidYMid meet">
<metadata>
Created by potrace 1.16, written by Peter Selinger 2001-2019
</metadata>
<g transform="translate(0.000000,66.000000) scale(0.100000,-0.100000)"
fill="#000000" stroke="none">
<path d="M350 645 l-13 -15 7 -49 6 -49 -16 -6 -16 -6 -79 6 -79 7 3 -86 2
-86 -22 -23 -22 -22 -26 12 -26 12 -18 0 -18 0 -16 -18 -17 -19 0 -32 0 -32
38 -16 37 -15 55 10 55 10 7 -12 8 -11 0 -25 0 -25 -15 -55 -15 -55 0 -23 0
-23 103 3 102 3 0 45 0 45 8 12 8 13 28 0 28 0 -5 -28 -4 -28 15 -12 15 -13
83 -14 84 -14 31 -6 32 -7 7 90 7 90 -7 22 -7 23 -54 -7 -55 -6 -24 24 -25 25
0 21 0 21 10 19 10 19 64 -6 63 -6 6 24 7 24 0 65 0 65 -9 13 -8 14 -59 -12
-59 -12 -35 4 -35 3 3 20 3 20 2 32 1 32 -19 21 -18 20 -52 0 -53 0 -12 -15z"/>
</g>
</svg>
