<?xml version="1.0" standalone="no"?>
<!DOCTYPE svg PUBLIC "-//W3C//DTD SVG 20010904//EN"
 "http://www.w3.org/TR/2001/REC-SVG-20010904/DTD/svg10.dtd">
<svg version="1.0" xmlns="http://www.w3.org/2000/svg"
 width="69.000000pt" height="64.000000pt" viewBox="0 0 69.000000 64.000000"
 preserveAspectRatio="xMidYMid meet">
<metadata>
Created by potrace 1.16, written by Peter Selinger 2001-2019
</metadata>
<g transform="translate(0.000000,64.000000) scale(0.100000,-0.100000)"
fill="#000000" stroke="none">
<path d="M349 624 l-13 -16 12 -41 11 -42 -17 -13 -17 -14 -82 7 -81 7 1 -85
2 -85 -19 -21 -19 -21 -18 0 -18 0 -25 12 -26 11 -20 -18 -20 -18 0 -24 0 -24
36 -15 36 -15 55 11 56 12 8 -14 9 -13 0 -35 0 -35 -15 -55 -15 -55 0 -13 0
-13 93 3 92 3 -3 46 -3 45 15 13 15 12 29 1 29 1 11 -7 12 -7 -13 -19 -12 -20
16 -15 15 -15 91 -15 91 -15 14 -5 15 -6 7 80 7 81 -6 21 -7 20 -53 -6 -54 -7
-25 25 -26 26 0 31 0 31 11 20 10 20 63 -6 63 -7 6 23 7 24 0 55 0 55 -8 12
-7 12 -47 -10 -46 -10 -48 3 -49 3 2 30 2 30 2 23 2 23 -18 19 -18 20 -42 0
-43 0 -13 -16z"/>
</g>
</svg>
