<?xml version="1.0" standalone="no"?>
<!DOCTYPE svg PUBLIC "-//W3C//DTD SVG 20010904//EN"
 "http://www.w3.org/TR/2001/REC-SVG-20010904/DTD/svg10.dtd">
<svg version="1.0" xmlns="http://www.w3.org/2000/svg"
 width="67.000000pt" height="71.000000pt" viewBox="0 0 67.000000 71.000000"
 preserveAspectRatio="xMidYMid meet">
<metadata>
Created by potrace 1.16, written by Peter Selinger 2001-2019
</metadata>
<g transform="translate(0.000000,71.000000) scale(0.100000,-0.100000)"
fill="#000000" stroke="none">
<path d="M316 701 l-6 -10 6 -40 6 -40 -24 -24 -24 -24 -48 -6 -49 -7 -13 11
-14 11 -14 -5 -14 -5 0 -67 1 -66 -18 -19 -17 -18 -35 5 -35 6 -9 -14 -9 -14
0 -58 0 -58 11 -20 10 -20 27 3 27 3 19 -96 20 -97 114 -7 114 -7 5 6 6 6 -12
55 -13 56 16 24 16 25 21 0 20 0 15 -35 14 -34 -12 -44 -11 -44 6 -16 6 -17
63 0 62 0 57 12 58 12 6 81 7 80 -4 25 -3 25 -53 0 -54 0 -19 24 -20 25 6 25
6 26 17 13 17 13 48 -6 47 -6 0 94 0 93 -12 17 -13 16 -95 23 -95 23 0 45 0
45 -62 3 -61 3 -6 -10z"/>
</g>
</svg>
