<?xml version="1.0" standalone="no"?>
<!DOCTYPE svg PUBLIC "-//W3C//DTD SVG 20010904//EN"
 "http://www.w3.org/TR/2001/REC-SVG-20010904/DTD/svg10.dtd">
<svg version="1.0" xmlns="http://www.w3.org/2000/svg"
 width="65.000000pt" height="69.000000pt" viewBox="0 0 65.000000 69.000000"
 preserveAspectRatio="xMidYMid meet">
<metadata>
Created by potrace 1.16, written by Peter Selinger 2001-2019
</metadata>
<g transform="translate(0.000000,69.000000) scale(0.100000,-0.100000)"
fill="#000000" stroke="none">
<path d="M318 685 l-5 -6 4 -44 5 -43 -24 -25 -24 -24 -58 -7 -57 -8 -15 12
-14 12 -1 -3 -1 -4 -3 -68 -3 -68 -18 -20 -18 -20 -35 6 -34 6 -8 -13 -9 -13
0 -51 0 -50 14 -19 14 -19 15 12 14 12 11 -12 10 -13 17 -80 17 -80 1 -11 0
-11 105 -7 105 -7 3 4 4 3 -12 56 -12 56 17 26 17 26 31 0 30 0 16 -38 15 -37
-12 -47 -12 -47 7 -11 6 -10 51 0 52 0 57 12 58 12 6 83 7 83 -5 15 -6 15 -45
-6 -44 -7 -27 27 -27 27 6 37 6 37 17 13 18 14 48 -5 47 -4 0 82 0 81 -12 17
-13 16 -95 23 -95 23 0 45 0 45 -50 3 -51 3 -6 -6z"/>
</g>
</svg>
