<?xml version="1.0" standalone="no"?>
<!DOCTYPE svg PUBLIC "-//W3C//DTD SVG 20010904//EN"
 "http://www.w3.org/TR/2001/REC-SVG-20010904/DTD/svg10.dtd">
<svg version="1.0" xmlns="http://www.w3.org/2000/svg"
 width="56.000000pt" height="69.000000pt" viewBox="0 0 56.000000 69.000000"
 preserveAspectRatio="xMidYMid meet">
<metadata>
Created by potrace 1.16, written by Peter Selinger 2001-2019
</metadata>
<g transform="translate(0.000000,69.000000) scale(0.100000,-0.100000)"
fill="#000000" stroke="none">
<path d="M260 677 l-25 -13 0 -64 0 -65 -105 -1 -105 -1 -3 -83 -3 -83 11 -7
12 -7 45 8 45 9 19 -10 19 -11 6 -26 7 -27 -14 -25 -14 -24 -29 -10 -29 -10
-35 13 -34 12 -11 -12 -12 -11 3 -62 3 -62 2 -30 2 -30 9 -10 8 -10 87 5 86 5
14 9 13 9 -6 48 -7 49 40 0 41 0 15 -24 16 -25 -6 -45 -7 -45 28 -7 28 -7 76
13 75 13 11 0 11 0 7 88 7 88 -7 26 -6 26 -52 -6 -51 -6 -17 13 -17 13 -1 15
-2 15 1 19 1 18 68 -3 67 -4 3 108 3 107 -73 1 -73 1 -25 7 -25 7 -3 18 -4 18
11 11 10 10 -14 27 -14 26 -26 12 -26 12 -2 0 -2 0 -25 -13z"/>
</g>
</svg>
