<?xml version="1.0" standalone="no"?>
<!DOCTYPE svg PUBLIC "-//W3C//DTD SVG 20010904//EN"
 "http://www.w3.org/TR/2001/REC-SVG-20010904/DTD/svg10.dtd">
<svg version="1.0" xmlns="http://www.w3.org/2000/svg"
 width="58.000000pt" height="71.000000pt" viewBox="0 0 58.000000 71.000000"
 preserveAspectRatio="xMidYMid meet">
<metadata>
Created by potrace 1.16, written by Peter Selinger 2001-2019
</metadata>
<g transform="translate(0.000000,71.000000) scale(0.100000,-0.100000)"
fill="#000000" stroke="none">
<path d="M260 697 l-25 -13 0 -64 0 -65 -105 0 -105 0 -3 -96 -3 -97 16 -5 15
-6 46 8 46 9 19 -19 19 -19 0 -14 0 -14 -18 -22 -18 -23 -30 1 -29 0 -32 7
-33 7 -11 -28 -11 -29 8 -65 8 -65 -2 -18 -2 -18 12 -13 13 -12 95 5 95 6 14
9 13 9 -4 48 -5 49 28 0 28 0 15 -22 15 -21 -6 -45 -6 -44 14 -9 14 -9 35 0
35 0 76 12 77 12 7 96 6 96 -7 28 -7 28 -50 -5 -50 -6 -18 10 -19 10 0 25 0
25 68 -3 67 -3 3 116 3 117 -91 4 -90 4 -12 12 -11 11 13 16 12 15 -12 30 -13
31 -28 14 -28 15 -13 0 -13 0 -25 -13z"/>
</g>
</svg>
