<?xml version="1.0" standalone="no"?>
<!DOCTYPE svg PUBLIC "-//W3C//DTD SVG 20010904//EN"
 "http://www.w3.org/TR/2001/REC-SVG-20010904/DTD/svg10.dtd">
<svg version="1.0" xmlns="http://www.w3.org/2000/svg"
 width="82.000000pt" height="68.000000pt" viewBox="0 0 82.000000 68.000000"
 preserveAspectRatio="xMidYMid meet">
<metadata>
Created by potrace 1.16, written by Peter Selinger 2001-2019
</metadata>
<g transform="translate(0.000000,68.000000) scale(0.100000,-0.100000)"
fill="#000000" stroke="none">
<path d="M375 666 l-18 -13 12 -49 12 -48 -18 -14 -18 -13 -95 2 -95 2 -6 -76
-7 -77 -16 -25 -16 -25 -11 0 -10 0 -20 11 -20 10 -25 -16 -24 -15 0 -25 0
-24 24 -28 24 -28 64 -1 63 -1 3 -35 3 -36 -19 -55 -18 -55 93 -7 94 -7 14 12
14 12 -5 42 -6 42 17 18 18 17 30 -3 30 -3 20 -26 19 -27 -12 -36 -12 -37 12
-14 12 -15 37 0 36 0 45 11 44 10 13 11 12 10 -15 30 -16 30 -5 55 -6 54 49
-6 50 -7 35 15 36 15 12 31 13 31 -17 26 -17 27 -59 -6 -59 -5 -2 16 -2 17 -1
84 0 83 -92 2 -92 1 -11 11 -12 12 13 41 12 42 -14 13 -14 13 -31 6 -32 6 -17
-13z"/>
</g>
</svg>
