<?xml version="1.0" standalone="no"?>
<!DOCTYPE svg PUBLIC "-//W3C//DTD SVG 20010904//EN"
 "http://www.w3.org/TR/2001/REC-SVG-20010904/DTD/svg10.dtd">
<svg version="1.0" xmlns="http://www.w3.org/2000/svg"
 width="72.000000pt" height="82.000000pt" viewBox="0 0 72.000000 82.000000"
 preserveAspectRatio="xMidYMid meet">
<metadata>
Created by potrace 1.16, written by Peter Selinger 2001-2019
</metadata>
<g transform="translate(0.000000,82.000000) scale(0.100000,-0.100000)"
fill="#000000" stroke="none">
<path d="M371 809 l-24 -9 5 -50 5 -49 -8 -13 -8 -13 -103 0 -103 -1 -3 -81
-3 -82 -48 6 -47 5 -17 -17 -17 -16 0 -68 0 -67 13 -19 14 -18 26 5 26 5 16
-68 15 -68 0 -11 0 -11 12 -13 12 -12 76 4 77 4 29 -15 29 -15 0 -59 0 -58 49
-3 50 -3 24 13 24 12 -6 28 -5 27 82 26 82 25 18 14 18 14 19 56 20 56 0 32 0
33 -9 13 -8 14 -67 -7 -66 -7 -25 16 -25 16 0 24 0 24 30 12 29 12 51 -7 50
-7 0 45 0 44 -6 76 -7 76 -46 15 -46 15 -35 7 -34 7 -17 10 -17 11 11 23 10
24 -9 8 -9 9 -40 6 -40 5 -24 -10z"/>
</g>
</svg>
