<?xml version="1.0" standalone="no"?>
<!DOCTYPE svg PUBLIC "-//W3C//DTD SVG 20010904//EN"
 "http://www.w3.org/TR/2001/REC-SVG-20010904/DTD/svg10.dtd">
<svg version="1.0" xmlns="http://www.w3.org/2000/svg"
 width="68.000000pt" height="53.000000pt" viewBox="0 0 68.000000 53.000000"
 preserveAspectRatio="xMidYMid meet">
<metadata>
Created by potrace 1.16, written by Peter Selinger 2001-2019
</metadata>
<g transform="translate(0.000000,53.000000) scale(0.100000,-0.100000)"
fill="#000000" stroke="none">
<path d="M39 460 l-2 -70 -1 -12 -1 -13 15 4 15 4 35 1 35 0 22 -19 23 -19 6
-33 6 -32 -26 -28 -26 -28 -48 0 -47 0 -20 5 -20 5 -3 -41 -3 -41 21 -56 21
-57 25 -6 24 -6 71 4 70 4 10 14 9 15 -5 20 -5 20 -6 27 -6 28 28 10 28 11 23
-6 22 -5 22 -23 21 -22 -6 -46 -6 -46 15 -13 16 -13 76 11 77 12 4 5 5 5 -11
13 -12 14 -16 71 -16 72 6 24 6 24 65 -1 64 -2 23 23 23 22 -16 28 -15 27 -63
-1 -63 -1 7 90 7 90 -19 -7 -18 -7 -65 -15 -65 -15 -18 -5 -18 -6 7 -33 6 -33
-20 -11 -21 -11 -33 0 -34 0 -18 13 -19 14 12 21 11 21 0 20 0 20 -26 20 -27
21 -68 0 -69 0 -1 -70z"/>
</g>
</svg>
