<?xml version="1.0" standalone="no"?>
<!DOCTYPE svg PUBLIC "-//W3C//DTD SVG 20010904//EN"
 "http://www.w3.org/TR/2001/REC-SVG-20010904/DTD/svg10.dtd">
<svg version="1.0" xmlns="http://www.w3.org/2000/svg"
 width="70.000000pt" height="55.000000pt" viewBox="0 0 70.000000 55.000000"
 preserveAspectRatio="xMidYMid meet">
<metadata>
Created by potrace 1.16, written by Peter Selinger 2001-2019
</metadata>
<g transform="translate(0.000000,55.000000) scale(0.100000,-0.100000)"
fill="#000000" stroke="none">
<path d="M38 480 l-2 -70 0 -22 -1 -23 25 3 25 2 26 2 26 1 20 -19 21 -19 6
-22 7 -23 -25 -27 -26 -28 -43 2 -42 2 -25 3 -25 3 -3 -51 -3 -51 21 -56 21
-57 25 -6 24 -6 80 4 81 3 10 15 10 15 -5 30 -4 30 -7 17 -7 18 27 10 26 10
22 -12 22 -11 12 -16 13 -16 -6 -43 -6 -42 12 -15 12 -15 31 0 30 0 64 11 63
11 0 18 0 19 -9 6 -9 5 -17 71 -16 71 6 17 5 16 64 0 64 0 21 19 21 19 0 21 0
22 -16 23 -16 23 -60 -4 -59 -3 7 88 7 87 -10 0 -10 0 -74 -19 -74 -18 -28 -7
-28 -7 3 -37 3 -36 -26 -10 -26 -9 -26 7 -26 6 6 48 5 49 -27 21 -28 22 -78 0
-79 0 -2 -70z"/>
</g>
</svg>
