<?xml version="1.0" standalone="no"?>
<!DOCTYPE svg PUBLIC "-//W3C//DTD SVG 20010904//EN"
 "http://www.w3.org/TR/2001/REC-SVG-20010904/DTD/svg10.dtd">
<svg version="1.0" xmlns="http://www.w3.org/2000/svg"
 width="68.000000pt" height="81.000000pt" viewBox="0 0 68.000000 81.000000"
 preserveAspectRatio="xMidYMid meet">
<metadata>
Created by potrace 1.16, written by Peter Selinger 2001-2019
</metadata>
<g transform="translate(0.000000,81.000000) scale(0.100000,-0.100000)"
fill="#000000" stroke="none">
<path d="M371 791 l-21 -21 0 -24 0 -23 11 -32 11 -31 -13 -16 -13 -16 -106 4
-105 4 3 -92 4 -91 -49 4 -48 5 -18 -14 -17 -13 -6 -37 -6 -37 26 -26 27 -27
47 4 47 3 0 -90 0 -90 80 -5 80 -5 21 -12 22 -12 6 -16 6 -16 -11 -20 -10 -20
12 -15 12 -15 35 3 35 3 11 17 11 17 -12 31 -11 30 18 10 19 10 63 1 63 0 35
7 35 7 3 20 2 20 6 65 7 65 -16 13 -16 13 -21 -11 -21 -11 -29 6 -29 6 -26 20
-25 20 0 23 0 23 19 17 18 17 29 1 29 2 33 -8 32 -8 0 104 0 103 -112 0 -113
0 0 67 0 67 -21 22 -22 21 -21 -21z"/>
</g>
</svg>
