<?xml version="1.0" standalone="no"?>
<!DOCTYPE svg PUBLIC "-//W3C//DTD SVG 20010904//EN"
 "http://www.w3.org/TR/2001/REC-SVG-20010904/DTD/svg10.dtd">
<svg version="1.0" xmlns="http://www.w3.org/2000/svg"
 width="78.000000pt" height="85.000000pt" viewBox="0 0 78.000000 85.000000"
 preserveAspectRatio="xMidYMid meet">
<metadata>
Created by potrace 1.16, written by Peter Selinger 2001-2019
</metadata>
<g transform="translate(0.000000,85.000000) scale(0.100000,-0.100000)"
fill="#000000" stroke="none">
<path d="M360 830 l-20 -20 0 -39 0 -40 10 -25 9 -25 -19 -6 -20 -6 -95 2 -95
3 -4 -5 -4 -4 7 -76 6 -76 -46 5 -47 4 -21 -21 -21 -21 0 -39 0 -40 22 -15 22
-16 28 0 27 0 25 10 26 9 10 -20 11 -20 -20 -81 -21 -82 0 -8 0 -8 71 0 70 0
20 -11 20 -10 -7 -58 -6 -57 26 -17 25 -17 30 0 30 0 17 33 17 32 0 45 -1 45
-3 20 -4 20 42 3 41 3 60 -15 60 -16 8 0 9 0 1 33 1 32 7 65 7 66 9 14 9 15
21 -13 20 -12 25 16 25 16 0 39 0 39 -20 20 -20 20 -16 0 -15 0 -21 -11 -20
-11 -12 12 -11 11 -5 72 -5 72 -95 0 -95 0 3 67 3 68 -25 25 -25 25 -11 0 -10
0 -20 -20z"/>
</g>
</svg>
