<?xml version="1.0" standalone="no"?>
<!DOCTYPE svg PUBLIC "-//W3C//DTD SVG 20010904//EN"
 "http://www.w3.org/TR/2001/REC-SVG-20010904/DTD/svg10.dtd">
<svg version="1.0" xmlns="http://www.w3.org/2000/svg"
 width="72.000000pt" height="83.000000pt" viewBox="0 0 72.000000 83.000000"
 preserveAspectRatio="xMidYMid meet">
<metadata>
Created by potrace 1.16, written by Peter Selinger 2001-2019
</metadata>
<g transform="translate(0.000000,83.000000) scale(0.100000,-0.100000)"
fill="#000000" stroke="none">
<path d="M210 815 l-12 -14 7 -50 7 -49 -28 -18 -27 -18 -72 0 -72 0 -7 -98
-7 -98 7 -11 6 -11 48 7 49 7 20 -7 20 -6 6 -19 6 -19 -10 -20 -11 -20 -35 6
-34 6 -11 -24 -10 -24 -16 -75 -16 -75 -5 -22 -5 -23 80 0 80 0 16 -6 15 -6
-6 -47 -5 -48 23 -17 23 -16 39 0 38 0 34 14 34 15 6 23 5 23 -3 20 -2 20 72
10 72 10 12 12 11 11 -15 49 -16 48 -2 20 -1 20 1 10 1 10 68 -3 69 -4 33 33
32 33 -5 43 -5 44 -17 19 -18 20 -38 10 -38 11 -26 -7 -25 -6 0 76 0 76 -14 0
-13 0 -43 -15 -43 -15 -33 0 -33 0 -6 9 -5 10 11 24 11 24 -11 40 -11 40 -21
27 -20 26 -49 0 -48 0 -12 -15z"/>
</g>
</svg>
