<?xml version="1.0" standalone="no"?>
<!DOCTYPE svg PUBLIC "-//W3C//DTD SVG 20010904//EN"
 "http://www.w3.org/TR/2001/REC-SVG-20010904/DTD/svg10.dtd">
<svg version="1.0" xmlns="http://www.w3.org/2000/svg"
 width="69.000000pt" height="85.000000pt" viewBox="0 0 69.000000 85.000000"
 preserveAspectRatio="xMidYMid meet">
<metadata>
Created by potrace 1.16, written by Peter Selinger 2001-2019
</metadata>
<g transform="translate(0.000000,85.000000) scale(0.100000,-0.100000)"
fill="#000000" stroke="none">
<path d="M224 825 l-17 -26 7 -55 6 -55 -107 3 -108 3 0 -98 0 -99 20 -14 20
-15 43 3 43 3 5 -22 6 -23 -6 -15 -5 -15 -39 6 -38 6 -12 -14 -12 -15 -10 -69
-10 -69 -6 -42 -7 -43 46 6 45 7 36 -7 35 -7 16 -15 15 -15 -6 -53 -6 -53 32
-12 33 -11 26 0 27 0 22 16 23 16 -2 51 -3 50 21 8 20 7 83 8 82 7 -6 46 -7
46 -6 52 -5 52 63 -5 64 -6 19 14 19 15 4 49 5 49 -22 28 -23 29 -53 -4 -54
-3 0 87 0 86 -32 11 -33 10 -65 12 -65 12 -17 8 -17 9 6 36 6 36 -14 9 -14 9
-27 0 -28 0 -16 -25z"/>
</g>
</svg>
