<?xml version="1.0" standalone="no"?>
<!DOCTYPE svg PUBLIC "-//W3C//DTD SVG 20010904//EN"
 "http://www.w3.org/TR/2001/REC-SVG-20010904/DTD/svg10.dtd">
<svg version="1.0" xmlns="http://www.w3.org/2000/svg"
 width="87.000000pt" height="58.000000pt" viewBox="0 0 87.000000 58.000000"
 preserveAspectRatio="xMidYMid meet">
<metadata>
Created by potrace 1.16, written by Peter Selinger 2001-2019
</metadata>
<g transform="translate(0.000000,58.000000) scale(0.100000,-0.100000)"
fill="#000000" stroke="none">
<path d="M492 574 l-12 -6 6 -47 6 -48 -21 -41 -21 -42 -33 0 -32 0 -15 10
-15 9 0 48 0 47 -25 12 -25 12 -74 4 -75 3 0 -76 -1 -77 -20 -22 -20 -22 -43
7 -43 6 -15 -12 -14 -11 0 -48 0 -47 20 -25 19 -25 31 -6 30 -7 25 10 25 9 5
-22 5 -22 2 -70 3 -70 107 -3 107 -3 7 25 6 26 -11 31 -11 31 10 18 10 19 21
6 20 7 25 -6 24 -6 0 -34 0 -33 23 -11 22 -11 60 -21 60 -22 27 -5 27 -5 15
33 15 34 16 58 16 57 34 0 34 0 14 15 15 15 7 30 7 30 -19 33 -19 32 -40 13
-39 13 -34 -5 -34 -5 7 82 7 82 -58 23 -58 22 -40 5 -40 4 -13 -5z"/>
</g>
</svg>
