<?xml version="1.0" standalone="no"?>
<!DOCTYPE svg PUBLIC "-//W3C//DTD SVG 20010904//EN"
 "http://www.w3.org/TR/2001/REC-SVG-20010904/DTD/svg10.dtd">
<svg version="1.0" xmlns="http://www.w3.org/2000/svg"
 width="85.000000pt" height="56.000000pt" viewBox="0 0 85.000000 56.000000"
 preserveAspectRatio="xMidYMid meet">
<metadata>
Created by potrace 1.16, written by Peter Selinger 2001-2019
</metadata>
<g transform="translate(0.000000,56.000000) scale(0.100000,-0.100000)"
fill="#000000" stroke="none">
<path d="M494 554 l-11 -5 5 -48 4 -47 -21 -42 -21 -42 -41 0 -40 0 -20 11
-20 10 3 47 3 46 -25 12 -25 13 -63 2 -63 3 -2 -76 -2 -76 -20 -22 -20 -22
-46 5 -46 6 -12 -12 -11 -11 0 -37 0 -38 23 -26 22 -25 25 -2 25 -1 27 8 27 7
6 -24 5 -23 2 -70 3 -70 97 -3 96 -3 6 19 7 19 -11 27 -10 27 0 15 0 14 20 20
20 20 31 0 30 0 19 -10 19 -10 -5 -28 -6 -28 24 -12 23 -11 60 -21 60 -21 17
-6 17 -5 15 33 15 34 18 60 18 60 20 -2 20 -3 22 5 21 5 11 31 11 32 -18 31
-18 31 -34 12 -35 12 -39 -5 -39 -6 6 84 6 84 -57 21 -57 22 -30 5 -30 5 -11
-5z"/>
</g>
</svg>
