<?xml version="1.0" standalone="no"?>
<!DOCTYPE svg PUBLIC "-//W3C//DTD SVG 20010904//EN"
 "http://www.w3.org/TR/2001/REC-SVG-20010904/DTD/svg10.dtd">
<svg version="1.0" xmlns="http://www.w3.org/2000/svg"
 width="80.000000pt" height="56.000000pt" viewBox="0 0 80.000000 56.000000"
 preserveAspectRatio="xMidYMid meet">
<metadata>
Created by potrace 1.16, written by Peter Selinger 2001-2019
</metadata>
<g transform="translate(0.000000,56.000000) scale(0.100000,-0.100000)"
fill="#000000" stroke="none">
<path d="M472 551 l-14 -8 11 -38 10 -38 -14 -33 -14 -33 -30 -8 -31 -8 -51 4
-50 3 7 17 7 16 4 26 5 27 -23 16 -23 16 -66 0 -65 0 0 -102 0 -103 -15 1 -15
2 -27 7 -27 7 -25 -26 -26 -25 0 -10 0 -10 16 -16 16 -16 57 3 56 3 0 -75 0
-75 -7 -38 -7 -38 92 3 92 3 0 64 0 65 32 9 33 10 32 -9 33 -10 0 -29 0 -30
84 -27 84 -27 8 5 8 5 -2 74 -2 74 12 12 12 12 30 -12 30 -13 19 7 20 6 26 20
26 20 0 38 0 38 -19 18 -20 17 -52 -13 -51 -13 -14 19 -14 19 0 75 0 76 -10
15 -10 15 0 -8 0 -8 -27 14 -28 14 -35 6 -35 7 -13 -9z"/>
</g>
</svg>
