<?xml version="1.0" standalone="no"?>
<!DOCTYPE svg PUBLIC "-//W3C//DTD SVG 20010904//EN"
 "http://www.w3.org/TR/2001/REC-SVG-20010904/DTD/svg10.dtd">
<svg version="1.0" xmlns="http://www.w3.org/2000/svg"
 width="71.000000pt" height="57.000000pt" viewBox="0 0 71.000000 57.000000"
 preserveAspectRatio="xMidYMid meet">
<metadata>
Created by potrace 1.16, written by Peter Selinger 2001-2019
</metadata>
<g transform="translate(0.000000,57.000000) scale(0.100000,-0.100000)"
fill="#000000" stroke="none">
<path d="M515 556 l-19 -13 13 -32 13 -31 -12 -30 -13 -31 -25 -19 -25 -20
-23 0 -24 0 -19 19 -19 19 11 47 11 47 -15 9 -14 9 -92 0 -93 0 0 -73 0 -73
-14 -19 -14 -20 -37 14 -37 13 -27 -19 -26 -20 -9 -31 -9 -32 9 -42 9 -43 37
1 36 1 11 -21 10 -21 21 -55 20 -55 0 -17 0 -18 103 0 103 0 19 14 18 13 -6
46 -7 47 24 15 23 15 24 -8 23 -9 -3 -42 -3 -41 24 -9 23 -8 50 -7 50 -7 33
-11 33 -10 5 4 4 4 10 78 11 77 -6 31 -7 30 -46 -6 -47 -7 -32 21 -33 20 0 21
0 20 11 21 11 21 63 -7 63 -6 6 22 5 23 -6 86 -6 86 -67 17 -68 16 -9 0 -9 0
-19 -14z"/>
</g>
</svg>
