<?xml version="1.0" standalone="no"?>
<!DOCTYPE svg PUBLIC "-//W3C//DTD SVG 20010904//EN"
 "http://www.w3.org/TR/2001/REC-SVG-20010904/DTD/svg10.dtd">
<svg version="1.0" xmlns="http://www.w3.org/2000/svg"
 width="69.000000pt" height="55.000000pt" viewBox="0 0 69.000000 55.000000"
 preserveAspectRatio="xMidYMid meet">
<metadata>
Created by potrace 1.16, written by Peter Selinger 2001-2019
</metadata>
<g transform="translate(0.000000,55.000000) scale(0.100000,-0.100000)"
fill="#000000" stroke="none">
<path d="M518 540 l-16 -10 10 -28 11 -28 -7 -29 -7 -28 -29 -28 -28 -29 -36
0 -36 0 -20 20 -20 20 0 8 0 7 11 39 11 39 -14 8 -13 9 -82 0 -83 0 0 -71 0
-70 -10 -20 -11 -19 -25 0 -25 0 -19 10 -18 10 -26 -21 -25 -20 -6 -32 -5 -32
8 -30 9 -30 35 3 34 2 12 -22 11 -23 23 -60 22 -60 -2 -12 -3 -13 91 0 91 0
20 11 21 11 -7 48 -7 48 26 18 27 17 32 -10 32 -9 -3 -41 -3 -41 10 -6 10 -7
83 -14 82 -15 10 10 9 9 8 58 9 58 -6 27 -5 27 -47 -5 -47 -5 -32 20 -33 21 0
33 0 33 13 17 12 17 30 2 30 2 31 -8 31 -7 6 20 5 21 -5 78 -6 79 -51 12 -51
13 -15 3 -15 4 -17 -9z"/>
</g>
</svg>
