<?xml version="1.0" standalone="no"?>
<!DOCTYPE svg PUBLIC "-//W3C//DTD SVG 20010904//EN"
 "http://www.w3.org/TR/2001/REC-SVG-20010904/DTD/svg10.dtd">
<svg version="1.0" xmlns="http://www.w3.org/2000/svg"
 width="55.000000pt" height="59.000000pt" viewBox="0 0 55.000000 59.000000"
 preserveAspectRatio="xMidYMid meet">
<metadata>
Created by potrace 1.16, written by Peter Selinger 2001-2019
</metadata>
<g transform="translate(0.000000,59.000000) scale(0.100000,-0.100000)"
fill="#000000" stroke="none">
<path d="M304 577 l-5 -14 11 -27 10 -27 0 -23 0 -23 -20 -26 -20 -25 -21 5
-20 6 -16 23 -15 24 7 46 7 47 -63 -6 -62 -7 -48 0 -49 0 0 -109 0 -109 16
-13 16 -13 40 11 41 11 13 -5 12 -5 6 -15 6 -15 -6 -22 -6 -23 -42 4 -43 5 -6
-9 -6 -10 -17 -102 -17 -101 4 -5 5 -4 108 -7 107 -7 -7 61 -6 60 26 26 26 26
19 -12 19 -12 17 -34 16 -35 -10 -10 -11 -11 0 -22 0 -22 15 -12 15 -13 78 7
77 7 21 0 22 -1 -5 88 -4 87 -5 23 -5 23 -53 -6 -53 -7 -22 27 -21 28 0 28 0
28 12 7 12 8 46 -3 46 -2 19 20 18 21 5 78 4 78 -13 11 -14 11 -54 16 -55 16
-48 0 -49 0 -5 -13z"/>
</g>
</svg>
