<?xml version="1.0" standalone="no"?>
<!DOCTYPE svg PUBLIC "-//W3C//DTD SVG 20010904//EN"
 "http://www.w3.org/TR/2001/REC-SVG-20010904/DTD/svg10.dtd">
<svg version="1.0" xmlns="http://www.w3.org/2000/svg"
 width="69.000000pt" height="69.000000pt" viewBox="0 0 69.000000 69.000000"
 preserveAspectRatio="xMidYMid meet">
<metadata>
Created by potrace 1.16, written by Peter Selinger 2001-2019
</metadata>
<g transform="translate(0.000000,69.000000) scale(0.100000,-0.100000)"
fill="#000000" stroke="none">
<path d="M393 684 l-13 -6 6 -39 7 -40 -13 -23 -12 -24 -25 -11 -24 -11 -33 0
-32 0 -18 13 -19 14 6 29 6 29 3 20 3 20 -91 3 -91 3 -7 -23 -6 -23 0 -59 0
-58 29 5 29 6 36 -10 35 -10 16 -22 15 -21 0 -34 0 -33 -26 -24 -26 -24 -30
-6 -30 -7 -44 7 -44 6 0 -38 0 -38 20 -44 20 -43 0 -12 0 -11 93 3 93 3 19
-21 19 -21 -11 -30 -12 -30 6 -15 5 -15 19 -10 19 -10 34 7 35 6 17 19 17 19
-6 40 -5 40 18 10 19 10 64 0 65 0 6 37 5 38 7 45 6 45 14 20 14 20 19 -12 19
-12 16 12 16 12 8 30 8 30 -4 18 -4 18 -33 -7 -34 -6 -30 31 -31 32 -2 42 -2
42 2 41 3 41 -53 7 -53 7 -20 4 -20 4 -12 -5z"/>
</g>
</svg>
