<?xml version="1.0" standalone="no"?>
<!DOCTYPE svg PUBLIC "-//W3C//DTD SVG 20010904//EN"
 "http://www.w3.org/TR/2001/REC-SVG-20010904/DTD/svg10.dtd">
<svg version="1.0" xmlns="http://www.w3.org/2000/svg"
 width="68.000000pt" height="66.000000pt" viewBox="0 0 68.000000 66.000000"
 preserveAspectRatio="xMidYMid meet">
<metadata>
Created by potrace 1.16, written by Peter Selinger 2001-2019
</metadata>
<g transform="translate(0.000000,66.000000) scale(0.100000,-0.100000)"
fill="#000000" stroke="none">
<path d="M373 654 l-12 -5 10 -25 9 -25 0 -23 0 -23 -19 -17 -19 -18 -86 4
-86 3 -5 -13 -5 -14 0 -58 0 -58 -18 -22 -18 -23 -22 12 -21 11 -25 0 -25 0
-15 -22 -16 -22 0 -32 0 -33 27 -21 28 -22 51 6 51 6 6 -33 5 -32 -7 -71 -7
-71 84 -6 83 -6 12 5 12 4 -3 40 -4 40 6 23 6 24 25 11 26 12 18 0 18 0 17
-19 17 -18 -7 -41 -6 -41 23 -6 24 -5 77 -8 77 -8 5 13 5 12 -6 85 -6 84 -7
12 -8 12 -36 -12 -35 -11 -28 13 -28 13 -3 36 -3 37 17 17 18 18 62 -6 62 -6
6 15 6 16 0 32 0 33 -6 45 -6 44 -82 -3 -81 -4 -18 14 -18 15 12 25 12 26 -20
33 -19 33 -34 2 -35 2 -12 -5z"/>
</g>
</svg>
