<?xml version="1.0" standalone="no"?>
<!DOCTYPE svg PUBLIC "-//W3C//DTD SVG 20010904//EN"
 "http://www.w3.org/TR/2001/REC-SVG-20010904/DTD/svg10.dtd">
<svg version="1.0" xmlns="http://www.w3.org/2000/svg"
 width="71.000000pt" height="83.000000pt" viewBox="0 0 71.000000 83.000000"
 preserveAspectRatio="xMidYMid meet">
<metadata>
Created by potrace 1.16, written by Peter Selinger 2001-2019
</metadata>
<g transform="translate(0.000000,83.000000) scale(0.100000,-0.100000)"
fill="#000000" stroke="none">
<path d="M237 812 l-17 -19 0 -27 0 -27 10 -19 10 -19 -21 -6 -20 -7 -83 7
-84 7 -7 -92 -7 -92 11 -11 11 -11 33 12 33 12 21 0 20 0 15 -17 16 -18 6 -22
7 -22 -10 -19 -10 -19 -32 -13 -32 -13 -44 11 -44 12 -11 -6 -10 -7 5 -71 5
-71 12 -38 11 -37 98 6 98 7 -1 -82 -1 -82 15 -10 15 -10 39 5 39 4 20 21 20
20 1 43 1 43 15 7 15 6 78 7 77 8 0 87 0 88 5 14 5 13 43 -3 42 -3 25 20 25
20 0 39 0 40 -19 21 -19 21 -24 0 -24 0 -19 -10 -19 -10 -11 19 -10 20 0 77 0
77 -57 -8 -58 -8 -45 -1 -45 -1 3 50 3 50 -21 28 -21 27 -33 0 -33 0 -16 -18z"/>
</g>
</svg>
