<?xml version="1.0" standalone="no"?>
<!DOCTYPE svg PUBLIC "-//W3C//DTD SVG 20010904//EN"
 "http://www.w3.org/TR/2001/REC-SVG-20010904/DTD/svg10.dtd">
<svg version="1.0" xmlns="http://www.w3.org/2000/svg"
 width="69.000000pt" height="81.000000pt" viewBox="0 0 69.000000 81.000000"
 preserveAspectRatio="xMidYMid meet">
<metadata>
Created by potrace 1.16, written by Peter Selinger 2001-2019
</metadata>
<g transform="translate(0.000000,81.000000) scale(0.100000,-0.100000)"
fill="#000000" stroke="none">
<path d="M237 792 l-17 -19 0 -16 0 -16 12 -26 12 -26 -15 -10 -14 -10 -91 6
-91 5 -7 -81 -8 -81 10 -10 10 -10 20 11 21 11 34 0 34 0 16 -17 15 -18 7 -27
7 -27 -7 -20 -6 -21 -31 -16 -31 -16 -41 5 -41 5 -15 3 -15 4 1 -60 0 -60 12
-42 12 -41 100 5 99 6 -2 -82 -2 -82 15 -10 15 -10 29 6 30 5 17 16 18 16 6
29 7 30 -12 14 -12 15 23 9 24 9 65 8 65 8 13 -1 12 -1 0 88 0 88 6 16 6 15
41 -5 42 -5 24 19 24 20 0 31 0 32 -21 22 -22 21 -37 -13 -36 -14 -14 19 -13
18 0 79 0 79 -47 -8 -48 -8 -55 -1 -55 0 3 50 3 51 -21 27 -21 27 -23 0 -23 0
-16 -18z"/>
</g>
</svg>
