<?xml version="1.0" standalone="no"?>
<!DOCTYPE svg PUBLIC "-//W3C//DTD SVG 20010904//EN"
 "http://www.w3.org/TR/2001/REC-SVG-20010904/DTD/svg10.dtd">
<svg version="1.0" xmlns="http://www.w3.org/2000/svg"
 width="56.000000pt" height="78.000000pt" viewBox="0 0 56.000000 78.000000"
 preserveAspectRatio="xMidYMid meet">
<metadata>
Created by potrace 1.16, written by Peter Selinger 2001-2019
</metadata>
<g transform="translate(0.000000,78.000000) scale(0.100000,-0.100000)"
fill="#000000" stroke="none">
<path d="M243 770 l-22 -9 -10 -20 -11 -20 12 -26 11 -26 -12 -12 -12 -12 -72
0 -72 0 -25 7 -25 7 -3 -82 -3 -82 9 -25 9 -25 69 0 69 0 3 -29 4 -28 -24 -25
-23 -25 -41 7 -40 6 -13 -23 -12 -23 3 -80 3 -80 63 3 64 4 23 -6 22 -6 -10
-38 -10 -38 6 -26 7 -26 22 -6 23 -6 33 0 33 0 29 15 30 15 6 26 6 25 -6 30
-6 30 26 9 26 10 61 -10 62 -10 8 0 7 0 -2 8 -2 7 13 55 13 55 -4 40 -3 40
-76 0 -77 0 -21 19 -21 19 0 24 0 23 21 21 21 21 47 -5 47 -6 14 -3 15 -3 3
80 3 80 -5 20 -5 20 -99 -3 -99 -3 -13 16 -13 16 12 25 12 26 -6 19 -6 19 -9
0 -8 0 -14 4 -13 5 -22 -9z"/>
</g>
</svg>
