<?xml version="1.0" standalone="no"?>
<!DOCTYPE svg PUBLIC "-//W3C//DTD SVG 20010904//EN"
 "http://www.w3.org/TR/2001/REC-SVG-20010904/DTD/svg10.dtd">
<svg version="1.0" xmlns="http://www.w3.org/2000/svg"
 width="67.000000pt" height="77.000000pt" viewBox="0 0 67.000000 77.000000"
 preserveAspectRatio="xMidYMid meet">
<metadata>
Created by potrace 1.16, written by Peter Selinger 2001-2019
</metadata>
<g transform="translate(0.000000,77.000000) scale(0.100000,-0.100000)"
fill="#000000" stroke="none">
<path d="M200 755 l-12 -14 7 -39 6 -39 -16 -13 -15 -13 -76 5 -76 5 -9 -24
-9 -23 8 -60 9 -60 28 -26 28 -26 33 6 32 7 4 -18 4 -18 -8 -30 -8 -30 -16
-12 -16 -12 -19 12 -19 12 -14 -20 -14 -20 -6 -40 -5 -40 -7 -49 -7 -49 11 7
10 6 77 2 76 1 14 -14 15 -14 -12 -37 -11 -37 12 -15 13 -15 34 -7 34 -6 29
12 30 12 -2 26 -2 26 95 29 95 29 -4 85 -3 85 13 24 13 25 40 -6 41 -7 23 25
24 25 -4 28 -3 29 -69 0 -69 0 -9 25 -10 25 4 77 5 77 -22 5 -21 5 -59 7 -60
7 -27 14 -28 14 0 7 0 8 13 13 12 12 -19 15 -20 14 -37 0 -37 0 -12 -15z"/>
</g>
</svg>
