<?xml version="1.0" standalone="no"?>
<!DOCTYPE svg PUBLIC "-//W3C//DTD SVG 20010904//EN"
 "http://www.w3.org/TR/2001/REC-SVG-20010904/DTD/svg10.dtd">
<svg version="1.0" xmlns="http://www.w3.org/2000/svg"
 width="69.000000pt" height="79.000000pt" viewBox="0 0 69.000000 79.000000"
 preserveAspectRatio="xMidYMid meet">
<metadata>
Created by potrace 1.16, written by Peter Selinger 2001-2019
</metadata>
<g transform="translate(0.000000,79.000000) scale(0.100000,-0.100000)"
fill="#000000" stroke="none">
<path d="M200 775 l-13 -15 6 -40 5 -39 -14 -12 -15 -12 -75 6 -75 7 -9 -26
-10 -26 6 -65 7 -65 29 -30 29 -30 35 4 34 4 0 -24 0 -23 -10 -19 -10 -19 -33
6 -33 5 -12 -24 -12 -23 -10 -70 -10 -70 0 -20 0 -20 92 0 93 0 0 -55 0 -54
25 -13 25 -13 32 0 32 0 26 12 26 12 -3 25 -3 25 96 29 97 30 -6 84 -5 84 13
23 12 23 41 -4 42 -5 23 25 23 25 -3 38 -3 39 -69 0 -69 0 -9 25 -10 25 6 77
5 76 -22 5 -22 6 -55 6 -55 7 -27 10 -27 10 6 28 5 28 -20 11 -21 11 -44 0
-45 0 -12 -15z"/>
</g>
</svg>
