<?xml version="1.0" standalone="no"?>
<!DOCTYPE svg PUBLIC "-//W3C//DTD SVG 20010904//EN"
 "http://www.w3.org/TR/2001/REC-SVG-20010904/DTD/svg10.dtd">
<svg version="1.0" xmlns="http://www.w3.org/2000/svg"
 width="65.000000pt" height="81.000000pt" viewBox="0 0 65.000000 81.000000"
 preserveAspectRatio="xMidYMid meet">
<metadata>
Created by potrace 1.16, written by Peter Selinger 2001-2019
</metadata>
<g transform="translate(0.000000,81.000000) scale(0.100000,-0.100000)"
fill="#000000" stroke="none">
<path d="M357 804 l-6 -7 5 -41 6 -42 -17 -14 -18 -15 -96 -5 -96 -5 -1 -50 0
-50 -2 -27 -2 -28 -23 -15 -23 -15 -34 10 -34 10 -8 -13 -8 -12 0 -47 0 -48
20 -20 20 -20 21 0 20 0 19 10 18 10 12 -15 13 -15 -5 -86 -4 -85 72 6 73 7
25 -6 24 -6 -5 -63 -5 -64 23 -21 23 -22 28 0 28 0 32 29 32 29 -12 27 -13 28
8 8 9 9 87 16 87 16 0 255 0 256 -37 -7 -38 -7 -59 -6 -59 -6 -13 18 -13 17
10 25 9 24 0 20 0 19 -20 20 -20 20 -23 0 -24 0 -6 -6z"/>
</g>
</svg>
