<?xml version="1.0" standalone="no"?>
<!DOCTYPE svg PUBLIC "-//W3C//DTD SVG 20010904//EN"
 "http://www.w3.org/TR/2001/REC-SVG-20010904/DTD/svg10.dtd">
<svg version="1.0" xmlns="http://www.w3.org/2000/svg"
 width="53.000000pt" height="65.000000pt" viewBox="0 0 53.000000 65.000000"
 preserveAspectRatio="xMidYMid meet">
<metadata>
Created by potrace 1.16, written by Peter Selinger 2001-2019
</metadata>
<g transform="translate(0.000000,65.000000) scale(0.100000,-0.100000)"
fill="#000000" stroke="none">
<path d="M222 639 l-23 -9 7 -45 6 -45 -36 -15 -35 -15 -60 0 -60 0 -5 -17 -5
-18 -1 -65 -2 -65 1 -16 1 -17 43 5 43 5 29 -24 28 -25 -7 -26 -6 -26 -16 -16
-16 -16 -32 6 -32 7 -11 -14 -11 -13 -4 -81 -3 -82 95 -7 95 -6 17 6 18 7 -6
10 -6 9 0 35 0 35 18 20 17 19 17 0 18 0 12 -15 13 -16 -12 -25 -12 -26 12
-14 11 -13 41 -5 42 -5 59 -5 59 -5 -6 96 -7 96 -11 13 -11 13 -18 -11 -19
-12 -26 14 -27 14 -8 16 -8 15 5 28 6 29 23 10 24 11 24 -11 24 -11 18 14 19
13 4 83 3 82 -17 -7 -18 -6 -41 -11 -42 -10 -40 3 -39 3 3 25 3 25 2 39 2 38
-24 19 -23 19 -27 -1 -26 0 -23 -10z"/>
</g>
</svg>
