<?xml version="1.0" standalone="no"?>
<!DOCTYPE svg PUBLIC "-//W3C//DTD SVG 20010904//EN"
 "http://www.w3.org/TR/2001/REC-SVG-20010904/DTD/svg10.dtd">
<svg version="1.0" xmlns="http://www.w3.org/2000/svg"
 width="55.000000pt" height="67.000000pt" viewBox="0 0 55.000000 67.000000"
 preserveAspectRatio="xMidYMid meet">
<metadata>
Created by potrace 1.16, written by Peter Selinger 2001-2019
</metadata>
<g transform="translate(0.000000,67.000000) scale(0.100000,-0.100000)"
fill="#000000" stroke="none">
<path d="M221 659 l-24 -9 7 -46 6 -45 -35 -15 -34 -14 -60 0 -60 0 -5 -17 -5
-18 -2 -75 -2 -75 2 -18 1 -18 43 6 44 7 27 -24 28 -23 -13 -28 -12 -27 -11
-1 -11 -1 -31 2 -31 1 -10 -13 -11 -13 -4 -91 -4 -92 102 -7 103 -7 20 7 20 6
-6 47 -5 47 21 19 21 19 14 -12 14 -12 -11 -29 -11 -28 13 -16 13 -15 41 -5
42 -5 69 -6 69 -6 -6 107 -6 107 -16 16 -15 16 -20 -13 -20 -12 -25 16 -25 16
0 29 0 28 20 11 20 11 20 -11 21 -11 20 6 20 7 10 25 9 24 0 75 0 74 -11 0
-11 0 -54 -16 -54 -15 -32 3 -33 3 4 15 5 15 0 48 1 49 -24 19 -23 19 -37 -1
-36 0 -24 -10z"/>
</g>
</svg>
