<?xml version="1.0" standalone="no"?>
<!DOCTYPE svg PUBLIC "-//W3C//DTD SVG 20010904//EN"
 "http://www.w3.org/TR/2001/REC-SVG-20010904/DTD/svg10.dtd">
<svg version="1.0" xmlns="http://www.w3.org/2000/svg"
 width="69.000000pt" height="79.000000pt" viewBox="0 0 69.000000 79.000000"
 preserveAspectRatio="xMidYMid meet">
<metadata>
Created by potrace 1.16, written by Peter Selinger 2001-2019
</metadata>
<g transform="translate(0.000000,79.000000) scale(0.100000,-0.100000)"
fill="#000000" stroke="none">
<path d="M360 775 l-13 -15 7 -56 6 -56 -95 4 -95 4 6 -81 5 -80 -9 -14 -9
-13 -21 11 -21 11 -33 0 -33 -1 -17 -13 -17 -13 -11 -27 -10 -27 10 -20 11
-19 47 3 47 2 13 -60 14 -60 15 -53 16 -53 94 7 94 7 -7 -41 -6 -41 6 -25 6
-25 16 -15 15 -16 39 0 39 0 27 27 27 26 -6 64 -6 63 42 0 42 -1 40 -14 40
-15 3 0 2 0 0 94 0 94 -14 11 -14 12 -40 -7 -40 -6 -11 20 -11 21 0 23 0 24
11 11 11 11 24 -10 24 -11 24 11 25 11 10 38 11 38 0 40 0 40 -6 22 -6 22 -42
15 -41 15 -59 15 -59 15 -9 13 -8 13 3 20 2 20 -46 3 -46 3 -13 -16z"/>
</g>
</svg>
