<?xml version="1.0" standalone="no"?>
<!DOCTYPE svg PUBLIC "-//W3C//DTD SVG 20010904//EN"
 "http://www.w3.org/TR/2001/REC-SVG-20010904/DTD/svg10.dtd">
<svg version="1.0" xmlns="http://www.w3.org/2000/svg"
 width="71.000000pt" height="81.000000pt" viewBox="0 0 71.000000 81.000000"
 preserveAspectRatio="xMidYMid meet">
<metadata>
Created by potrace 1.16, written by Peter Selinger 2001-2019
</metadata>
<g transform="translate(0.000000,81.000000) scale(0.100000,-0.100000)"
fill="#000000" stroke="none">
<path d="M360 795 l-12 -15 4 -56 5 -57 -94 6 -94 5 3 -86 3 -87 -60 3 -60 3
-22 -20 -21 -20 -7 -30 -6 -30 11 -21 12 -22 46 4 47 3 13 -60 14 -60 16 -54
15 -53 92 7 91 7 -4 -41 -4 -41 6 -24 6 -25 16 -15 15 -16 49 0 49 0 27 27 26
26 -4 64 -4 63 31 0 30 -1 40 -14 40 -15 13 0 12 0 0 104 0 104 -15 12 -15 13
-40 -7 -40 -6 -11 24 -12 25 6 15 6 15 34 -6 34 -5 21 11 21 11 11 38 10 37 0
50 0 50 -6 22 -6 22 -42 15 -41 15 -58 15 -59 15 -5 5 -6 6 -1 27 -1 28 -56 3
-56 3 -13 -16z"/>
</g>
</svg>
