<?xml version="1.0" standalone="no"?>
<!DOCTYPE svg PUBLIC "-//W3C//DTD SVG 20010904//EN"
 "http://www.w3.org/TR/2001/REC-SVG-20010904/DTD/svg10.dtd">
<svg version="1.0" xmlns="http://www.w3.org/2000/svg"
 width="83.000000pt" height="68.000000pt" viewBox="0 0 83.000000 68.000000"
 preserveAspectRatio="xMidYMid meet">
<metadata>
Created by potrace 1.16, written by Peter Selinger 2001-2019
</metadata>
<g transform="translate(0.000000,68.000000) scale(0.100000,-0.100000)"
fill="#000000" stroke="none">
<path d="M351 664 l-23 -17 6 -54 6 -55 -94 4 -95 3 -3 -105 -3 -105 -67 4
-68 3 -1 -18 -1 -19 2 -15 1 -15 17 -13 17 -13 51 6 52 6 6 -26 7 -27 -7 -85
-7 -85 91 3 91 4 22 23 21 24 -12 45 -13 45 14 9 14 9 13 0 13 0 21 -11 20
-11 14 -35 15 -35 -7 -54 -6 -54 47 0 48 0 53 17 52 16 11 43 11 43 0 24 0 24
11 32 11 33 23 -6 23 -6 16 -6 15 -6 26 28 25 27 0 38 0 38 -16 9 -17 9 -32
-10 -33 -10 -26 7 -27 7 -9 25 -10 25 0 76 0 76 -67 -6 -68 -5 -40 7 -40 7 1
24 1 25 7 17 8 16 -21 21 -21 21 -23 0 -23 0 -23 -16z"/>
</g>
</svg>
