<?xml version="1.0" standalone="no"?>
<!DOCTYPE svg PUBLIC "-//W3C//DTD SVG 20010904//EN"
 "http://www.w3.org/TR/2001/REC-SVG-20010904/DTD/svg10.dtd">
<svg version="1.0" xmlns="http://www.w3.org/2000/svg"
 width="85.000000pt" height="70.000000pt" viewBox="0 0 85.000000 70.000000"
 preserveAspectRatio="xMidYMid meet">
<metadata>
Created by potrace 1.16, written by Peter Selinger 2001-2019
</metadata>
<g transform="translate(0.000000,70.000000) scale(0.100000,-0.100000)"
fill="#000000" stroke="none">
<path d="M351 684 l-23 -17 4 -55 5 -55 -93 5 -93 5 -3 -106 -3 -106 -66 3
-66 4 -7 -25 -6 -26 10 -25 9 -25 26 -7 26 -6 38 6 39 6 6 -23 5 -22 -6 -88
-6 -89 101 4 101 3 22 23 21 24 -5 31 -5 32 -7 16 -6 16 16 7 16 6 21 -11 20
-11 13 -32 14 -33 -6 -56 -6 -57 58 0 58 0 53 17 52 16 11 43 11 43 0 24 0 24
11 31 11 31 24 -10 25 -9 15 0 15 0 24 26 25 27 0 48 0 48 -20 11 -21 11 -34
-11 -35 -11 -20 6 -21 7 -10 25 -9 24 0 75 0 74 -100 -2 -101 -1 -10 10 -11
11 11 20 11 21 0 15 0 16 -20 20 -20 20 -33 0 -33 0 -23 -16z"/>
</g>
</svg>
