<?xml version="1.0" standalone="no"?>
<!DOCTYPE svg PUBLIC "-//W3C//DTD SVG 20010904//EN"
 "http://www.w3.org/TR/2001/REC-SVG-20010904/DTD/svg10.dtd">
<svg version="1.0" xmlns="http://www.w3.org/2000/svg"
 width="67.000000pt" height="67.000000pt" viewBox="0 0 67.000000 67.000000"
 preserveAspectRatio="xMidYMid meet">
<metadata>
Created by potrace 1.16, written by Peter Selinger 2001-2019
</metadata>
<g transform="translate(0.000000,67.000000) scale(0.100000,-0.100000)"
fill="#000000" stroke="none">
<path d="M215 654 l-16 -17 5 -21 6 -21 6 -21 6 -21 -32 -13 -31 -13 -74 6
-73 7 -6 -68 -6 -67 8 -35 8 -35 52 0 53 0 9 -15 10 -15 0 -30 0 -30 -10 -15
-9 -14 -45 3 -45 2 -4 -33 -5 -33 -11 -70 -10 -69 2 -3 2 -2 114 -7 114 -7 -6
34 -5 34 -7 16 -6 15 21 27 21 27 34 0 34 0 3 -37 3 -37 35 -12 35 -11 73 -23
72 -23 15 19 15 19 10 35 10 35 10 43 11 42 29 0 30 0 0 70 0 69 -21 12 -21
11 -44 -7 -44 -6 7 90 6 91 -103 -2 -103 -3 -1 51 -1 52 -19 21 -19 21 -38 0
-38 0 -16 -16z"/>
</g>
</svg>
