<?xml version="1.0" standalone="no"?>
<!DOCTYPE svg PUBLIC "-//W3C//DTD SVG 20010904//EN"
 "http://www.w3.org/TR/2001/REC-SVG-20010904/DTD/svg10.dtd">
<svg version="1.0" xmlns="http://www.w3.org/2000/svg"
 width="68.000000pt" height="67.000000pt" viewBox="0 0 68.000000 67.000000"
 preserveAspectRatio="xMidYMid meet">
<metadata>
Created by potrace 1.16, written by Peter Selinger 2001-2019
</metadata>
<g transform="translate(0.000000,67.000000) scale(0.100000,-0.100000)"
fill="#000000" stroke="none">
<path d="M197 664 l-18 -6 6 -43 7 -42 -22 -21 -22 -20 -47 -6 -46 -5 -25 2
-25 2 -3 -77 -3 -78 11 -21 12 -21 21 5 22 4 17 7 16 8 21 -21 21 -21 0 -30 0
-29 -17 -9 -18 -10 -32 5 -31 5 -6 -19 -5 -18 -12 -94 -11 -93 10 -10 9 -9 99
3 99 3 0 70 0 70 22 3 22 3 21 -11 21 -11 -6 -33 -7 -32 14 -11 13 -11 88 -17
89 -17 10 10 11 11 -11 70 -12 70 10 26 10 26 21 -12 22 -11 41 5 41 6 17 21
18 22 0 34 0 34 -20 20 -21 21 -61 -7 -61 -7 5 91 4 91 -55 12 -56 12 -30 7
-30 7 3 35 3 35 -15 12 -15 13 -58 3 -58 4 -18 -5z"/>
</g>
</svg>
