<?xml version="1.0" standalone="no"?>
<!DOCTYPE svg PUBLIC "-//W3C//DTD SVG 20010904//EN"
 "http://www.w3.org/TR/2001/REC-SVG-20010904/DTD/svg10.dtd">
<svg version="1.0" xmlns="http://www.w3.org/2000/svg"
 width="66.000000pt" height="65.000000pt" viewBox="0 0 66.000000 65.000000"
 preserveAspectRatio="xMidYMid meet">
<metadata>
Created by potrace 1.16, written by Peter Selinger 2001-2019
</metadata>
<g transform="translate(0.000000,65.000000) scale(0.100000,-0.100000)"
fill="#000000" stroke="none">
<path d="M199 644 l-16 -5 4 -43 5 -43 -22 -21 -23 -21 -51 -6 -52 -7 -19 4
-20 3 -3 -70 -3 -70 14 -19 14 -19 21 12 21 11 15 0 16 0 20 -20 20 -20 0 -39
0 -39 -25 -16 -25 -16 -20 12 -21 13 -9 -15 -9 -14 -7 -66 -7 -65 -1 -30 -1
-30 93 -3 92 -3 7 17 6 16 -10 43 -10 43 9 16 9 16 33 0 34 0 22 -18 23 -18
-13 -23 -12 -23 14 -13 13 -13 80 -16 79 -16 9 9 8 8 -12 69 -11 69 11 29 11
28 23 -7 22 -7 20 -5 20 -4 28 10 27 11 11 24 12 25 -7 25 -6 25 -19 11 -19
10 -45 -9 -45 -8 -12 7 -12 7 4 86 3 87 -55 11 -55 12 -30 6 -30 7 0 37 0 36
-11 11 -11 11 -49 4 -49 4 -16 -5z"/>
</g>
</svg>
