<?xml version="1.0" standalone="no"?>
<!DOCTYPE svg PUBLIC "-//W3C//DTD SVG 20010904//EN"
 "http://www.w3.org/TR/2001/REC-SVG-20010904/DTD/svg10.dtd">
<svg version="1.0" xmlns="http://www.w3.org/2000/svg"
 width="66.000000pt" height="78.000000pt" viewBox="0 0 66.000000 78.000000"
 preserveAspectRatio="xMidYMid meet">
<metadata>
Created by potrace 1.16, written by Peter Selinger 2001-2019
</metadata>
<g transform="translate(0.000000,78.000000) scale(0.100000,-0.100000)"
fill="#000000" stroke="none">
<path d="M221 769 l-23 -9 6 -28 6 -27 5 -20 5 -20 -9 -15 -10 -15 -79 -3 -80
-4 -21 11 -21 12 0 -65 0 -65 9 -24 9 -24 28 -17 27 -18 36 11 36 11 13 -17
12 -17 0 -32 0 -31 -27 -28 -28 -27 -47 6 -47 7 -11 -21 -11 -20 3 -73 3 -72
70 -6 70 -5 22 -12 22 -12 6 -21 7 -21 -11 -11 -11 -11 0 -8 0 -7 38 -12 38
-11 42 11 42 12 -3 31 -2 31 30 7 30 8 62 12 61 12 -1 97 -2 96 20 -3 20 -2
31 -6 32 -6 21 21 21 21 0 53 0 52 -9 14 -10 15 -24 -11 -24 -11 -24 12 -24
12 -12 34 -12 35 0 44 -1 44 -29 -6 -28 -6 -52 -7 -51 -7 -15 13 -15 13 5 46
6 46 -13 16 -13 16 -22 11 -22 12 -13 -1 -13 0 -24 -10z"/>
</g>
</svg>
