<?xml version="1.0" standalone="no"?>
<!DOCTYPE svg PUBLIC "-//W3C//DTD SVG 20010904//EN"
 "http://www.w3.org/TR/2001/REC-SVG-20010904/DTD/svg10.dtd">
<svg version="1.0" xmlns="http://www.w3.org/2000/svg"
 width="53.000000pt" height="69.000000pt" viewBox="0 0 53.000000 69.000000"
 preserveAspectRatio="xMidYMid meet">
<metadata>
Created by potrace 1.16, written by Peter Selinger 2001-2019
</metadata>
<g transform="translate(0.000000,69.000000) scale(0.100000,-0.100000)"
fill="#000000" stroke="none">
<path d="M210 675 l-13 -16 2 -37 2 -37 2 -20 2 -20 -98 0 -97 0 1 -45 0 -45
12 -35 12 -34 24 -12 24 -12 24 11 24 11 10 -15 9 -14 0 -52 0 -53 -21 -21
-21 -21 -32 6 -31 6 -20 2 -20 3 1 -88 1 -87 6 -6 5 -6 95 -1 95 -2 7 7 7 7
-12 33 -12 33 15 37 15 36 21 11 20 11 18 -27 18 -27 -3 -46 -3 -45 -2 -30 -2
-30 49 -3 50 -3 65 21 66 21 -5 87 -6 87 -8 14 -9 13 -49 -6 -50 -7 -19 17
-19 17 0 33 0 33 21 12 21 11 46 -12 45 -11 15 14 14 15 5 65 6 65 -7 27 -7
26 -82 -6 -82 -7 -19 14 -19 15 12 21 11 21 0 15 0 14 -26 31 -26 31 -33 0
-33 0 -12 -15z"/>
</g>
</svg>
