<?xml version="1.0" standalone="no"?>
<!DOCTYPE svg PUBLIC "-//W3C//DTD SVG 20010904//EN"
 "http://www.w3.org/TR/2001/REC-SVG-20010904/DTD/svg10.dtd">
<svg version="1.0" xmlns="http://www.w3.org/2000/svg"
 width="69.000000pt" height="83.000000pt" viewBox="0 0 69.000000 83.000000"
 preserveAspectRatio="xMidYMid meet">
<metadata>
Created by potrace 1.16, written by Peter Selinger 2001-2019
</metadata>
<g transform="translate(0.000000,83.000000) scale(0.100000,-0.100000)"
fill="#000000" stroke="none">
<path d="M318 824 l-8 -7 6 -39 7 -39 -17 -18 -18 -19 -50 -7 -50 -7 -11 11
-11 11 -18 0 -18 0 0 -64 0 -65 -10 -26 -10 -26 -34 6 -34 7 -21 -11 -21 -12
0 -63 0 -63 19 -17 20 -18 39 7 40 6 6 -35 7 -35 -7 -65 -7 -66 111 0 110 0
-4 -58 -5 -57 13 -25 13 -25 42 -3 41 -3 28 25 29 24 -1 46 -1 45 26 5 26 5
52 6 52 7 18 46 18 47 0 60 0 60 -61 0 -62 0 -21 19 -20 19 -7 19 -6 19 13 15
12 15 43 -7 42 -6 18 27 18 27 4 86 5 85 -44 -8 -44 -9 -45 0 -45 -1 3 55 4
55 -22 20 -21 19 -62 4 -62 4 -7 -8z"/>
</g>
</svg>
