<?xml version="1.0" standalone="no"?>
<!DOCTYPE svg PUBLIC "-//W3C//DTD SVG 20010904//EN"
 "http://www.w3.org/TR/2001/REC-SVG-20010904/DTD/svg10.dtd">
<svg version="1.0" xmlns="http://www.w3.org/2000/svg"
 width="66.000000pt" height="70.000000pt" viewBox="0 0 66.000000 70.000000"
 preserveAspectRatio="xMidYMid meet">
<metadata>
Created by potrace 1.16, written by Peter Selinger 2001-2019
</metadata>
<g transform="translate(0.000000,70.000000) scale(0.100000,-0.100000)"
fill="#000000" stroke="none">
<path d="M359 690 l-16 -10 10 -39 11 -40 -19 -21 -18 -20 -94 0 -93 0 0 -57
0 -58 -13 -25 -13 -25 -49 3 -48 3 -8 -13 -9 -13 0 -47 0 -48 20 -20 20 -20
18 0 17 0 15 10 14 9 13 -11 13 -10 0 -88 0 -88 16 -6 16 -6 86 0 87 0 14 9
14 9 -5 23 -5 24 -7 16 -7 16 16 17 16 16 22 0 23 0 23 -16 23 -17 -6 -68 -7
-67 19 -6 20 -7 48 11 48 11 36 16 35 17 4 2 3 3 -16 23 -16 23 -11 40 -10 40
-11 28 -11 29 -42 -7 -43 -6 -6 16 -6 17 0 47 0 47 14 19 14 19 53 -13 53 -14
18 23 18 22 0 69 0 68 -9 6 -10 5 -6 -10 -6 -10 -55 -16 -55 -16 -25 6 -25 7
7 59 6 59 -30 31 -30 30 -24 0 -23 -1 -16 -9z"/>
</g>
</svg>
