<?xml version="1.0" standalone="no"?>
<!DOCTYPE svg PUBLIC "-//W3C//DTD SVG 20010904//EN"
 "http://www.w3.org/TR/2001/REC-SVG-20010904/DTD/svg10.dtd">
<svg version="1.0" xmlns="http://www.w3.org/2000/svg"
 width="69.000000pt" height="68.000000pt" viewBox="0 0 69.000000 68.000000"
 preserveAspectRatio="xMidYMid meet">
<metadata>
Created by potrace 1.16, written by Peter Selinger 2001-2019
</metadata>
<g transform="translate(0.000000,68.000000) scale(0.100000,-0.100000)"
fill="#000000" stroke="none">
<path d="M501 672 l-14 -10 7 -44 7 -44 -20 -18 -20 -19 -39 -1 -39 -1 -16 13
-15 13 11 36 11 35 -19 14 -19 14 -88 0 -88 0 0 -78 0 -79 -17 -16 -18 -16
-43 12 -43 11 -17 -10 -17 -11 -3 -61 -3 -62 11 -21 12 -21 33 6 34 7 20 -63
20 -63 13 -38 13 -38 20 5 20 6 83 6 82 7 -6 -46 -7 -45 26 -26 26 -26 24 0
25 0 32 6 32 7 -5 24 -5 25 22 8 21 9 57 16 58 15 8 18 9 17 6 72 6 73 -6 36
-6 36 -52 -7 -51 -6 -27 21 -27 21 0 24 0 23 19 23 18 23 43 -14 43 -14 18 23
19 23 0 78 0 78 -25 6 -24 6 -58 6 -58 5 -14 -9z"/>
</g>
</svg>
