<?xml version="1.0" standalone="no"?>
<!DOCTYPE svg PUBLIC "-//W3C//DTD SVG 20010904//EN"
 "http://www.w3.org/TR/2001/REC-SVG-20010904/DTD/svg10.dtd">
<svg version="1.0" xmlns="http://www.w3.org/2000/svg"
 width="80.000000pt" height="66.000000pt" viewBox="0 0 80.000000 66.000000"
 preserveAspectRatio="xMidYMid meet">
<metadata>
Created by potrace 1.16, written by Peter Selinger 2001-2019
</metadata>
<g transform="translate(0.000000,66.000000) scale(0.100000,-0.100000)"
fill="#000000" stroke="none">
<path d="M243 653 l-72 -4 -3 -97 -3 -97 -15 3 -14 3 -47 6 -47 5 -21 -21 -21
-21 0 -23 0 -24 21 -19 21 -19 77 0 76 0 3 -48 3 -48 -14 -49 -15 -49 6 -6 5
-5 69 0 69 0 25 -25 26 -26 -6 -15 -6 -16 -6 -23 -6 -24 35 -6 35 -7 24 7 23
8 23 26 23 26 -3 45 -3 45 33 3 33 3 47 -10 47 -10 3 3 2 3 -15 37 -16 38 3
56 3 57 20 -1 20 -2 32 -7 32 -7 26 26 26 26 -3 48 -3 47 -29 -3 -29 -3 -22 5
-22 6 -11 25 -12 26 0 60 0 61 -52 -6 -53 -7 -37 -5 -38 -6 -5 -9 -6 -9 12
-21 11 -22 -10 -22 -11 -23 -30 -7 -31 -6 -18 5 -19 6 -18 40 -17 39 6 35 7
36 -23 -2 -23 -2 -72 -3z"/>
</g>
</svg>
