<?xml version="1.0" standalone="no"?>
<!DOCTYPE svg PUBLIC "-//W3C//DTD SVG 20010904//EN"
 "http://www.w3.org/TR/2001/REC-SVG-20010904/DTD/svg10.dtd">
<svg version="1.0" xmlns="http://www.w3.org/2000/svg"
 width="82.000000pt" height="68.000000pt" viewBox="0 0 82.000000 68.000000"
 preserveAspectRatio="xMidYMid meet">
<metadata>
Created by potrace 1.16, written by Peter Selinger 2001-2019
</metadata>
<g transform="translate(0.000000,68.000000) scale(0.100000,-0.100000)"
fill="#000000" stroke="none">
<path d="M243 673 l-73 -4 0 -94 0 -94 -64 6 -63 6 -22 -22 -21 -21 0 -33 0
-34 21 -19 21 -19 77 0 76 -1 3 -37 3 -38 -16 -55 -16 -55 6 -9 6 -10 67 0 68
0 23 -16 23 -16 -7 -49 -7 -48 36 -7 37 -6 31 6 31 6 24 28 24 27 -3 45 -2 45
18 3 19 4 59 -12 60 -11 6 6 6 5 -18 49 -17 49 3 43 3 44 15 -4 15 -3 37 -5
36 -5 27 26 26 26 -3 58 -3 57 -30 -2 -30 -1 -21 4 -21 4 -11 25 -12 26 0 59
0 60 -22 0 -23 -1 -74 -9 -75 -10 -10 -10 -10 -10 11 -30 11 -29 -12 -15 -11
-15 -25 -6 -25 -5 -11 7 -11 8 -17 32 -16 33 6 40 7 40 -34 -2 -34 -2 -72 -3z"/>
</g>
</svg>
