<?xml version="1.0" standalone="no"?>
<!DOCTYPE svg PUBLIC "-//W3C//DTD SVG 20010904//EN"
 "http://www.w3.org/TR/2001/REC-SVG-20010904/DTD/svg10.dtd">
<svg version="1.0" xmlns="http://www.w3.org/2000/svg"
 width="74.000000pt" height="54.000000pt" viewBox="0 0 74.000000 54.000000"
 preserveAspectRatio="xMidYMid meet">
<metadata>
Created by potrace 1.16, written by Peter Selinger 2001-2019
</metadata>
<g transform="translate(0.000000,54.000000) scale(0.100000,-0.100000)"
fill="#000000" stroke="none">
<path d="M165 436 l7 -104 -46 9 -46 8 -38 -12 -37 -12 -3 -51 -3 -52 17 -17
17 -17 38 6 37 6 16 6 15 6 8 -29 7 -28 0 -75 1 -75 100 3 100 4 13 11 13 11
-2 50 -3 51 27 10 28 9 17 -11 17 -10 -3 -40 -3 -40 18 -7 18 -8 94 -14 94
-14 2 0 2 0 16 38 16 37 11 40 10 40 0 38 0 37 -25 12 -25 11 -24 -13 -24 -12
-43 13 -42 14 -11 17 -11 18 17 17 17 16 41 -12 41 -12 18 6 19 6 6 40 6 40
-6 66 -7 65 -66 -7 -66 -6 -39 -10 -38 -10 6 -44 7 -43 -30 -21 -29 -21 -19 0
-18 1 -17 13 -17 13 11 35 11 36 -6 24 -7 25 -25 11 -26 12 -81 0 -80 0 7
-104z"/>
</g>
</svg>
