<?xml version="1.0" standalone="no"?>
<!DOCTYPE svg PUBLIC "-//W3C//DTD SVG 20010904//EN"
 "http://www.w3.org/TR/2001/REC-SVG-20010904/DTD/svg10.dtd">
<svg version="1.0" xmlns="http://www.w3.org/2000/svg"
 width="72.000000pt" height="52.000000pt" viewBox="0 0 72.000000 52.000000"
 preserveAspectRatio="xMidYMid meet">
<metadata>
Created by potrace 1.16, written by Peter Selinger 2001-2019
</metadata>
<g transform="translate(0.000000,52.000000) scale(0.100000,-0.100000)"
fill="#000000" stroke="none">
<path d="M166 414 l7 -106 -32 7 -33 7 -33 0 -33 0 -21 -11 -21 -12 0 -39 0
-39 16 -16 17 -16 25 6 24 6 28 5 27 6 7 -17 6 -17 6 -84 7 -84 87 0 88 0 12
15 13 15 -6 45 -7 45 20 10 19 10 29 0 29 0 16 -18 16 -17 -9 -15 -10 -15 0
-17 0 -16 33 -10 32 -10 59 -7 59 -7 12 -4 12 -5 16 38 16 38 11 40 10 40 0
27 0 27 -21 11 -20 11 -15 -12 -14 -12 -43 7 -42 7 -23 15 -23 15 3 26 3 26
17 11 17 10 42 -11 42 -11 12 5 13 4 5 36 6 37 -6 58 -6 59 -56 -6 -56 -7 -37
-9 -38 -10 6 -43 6 -43 -30 -21 -30 -22 -29 0 -28 1 -19 14 -19 15 12 40 12
41 -6 18 -5 18 -26 11 -25 12 -70 0 -70 0 7 -106z"/>
</g>
</svg>
