<?xml version="1.0" standalone="no"?>
<!DOCTYPE svg PUBLIC "-//W3C//DTD SVG 20010904//EN"
 "http://www.w3.org/TR/2001/REC-SVG-20010904/DTD/svg10.dtd">
<svg version="1.0" xmlns="http://www.w3.org/2000/svg"
 width="85.000000pt" height="66.000000pt" viewBox="0 0 85.000000 66.000000"
 preserveAspectRatio="xMidYMid meet">
<metadata>
Created by potrace 1.16, written by Peter Selinger 2001-2019
</metadata>
<g transform="translate(0.000000,66.000000) scale(0.100000,-0.100000)"
fill="#000000" stroke="none">
<path d="M151 588 l2 -73 -1 -28 -2 -28 -60 7 -60 7 -15 -13 -15 -12 0 -34 0
-34 27 -17 27 -18 71 -1 70 -1 -2 -39 -1 -39 -17 -45 -17 -45 -5 -22 -5 -23
71 0 71 0 21 -21 20 -20 -11 -14 -12 -14 4 -23 3 -23 43 -9 44 -9 36 9 37 9 0
40 0 40 10 6 10 7 65 6 65 7 28 5 27 6 0 13 0 13 -20 43 -20 44 0 25 0 25 58
0 58 1 38 23 37 24 10 25 10 25 -6 28 -6 28 -33 21 -33 20 -52 0 -51 0 7 86 6
87 -29 -7 -29 -6 -65 -10 -65 -10 -18 -6 -18 -6 6 -53 7 -53 -21 -12 -22 -11
-27 3 -27 3 0 73 0 72 -15 10 -15 10 -99 0 -98 0 3 -72z"/>
</g>
</svg>
