<?xml version="1.0" standalone="no"?>
<!DOCTYPE svg PUBLIC "-//W3C//DTD SVG 20010904//EN"
 "http://www.w3.org/TR/2001/REC-SVG-20010904/DTD/svg10.dtd">
<svg version="1.0" xmlns="http://www.w3.org/2000/svg"
 width="83.000000pt" height="64.000000pt" viewBox="0 0 83.000000 64.000000"
 preserveAspectRatio="xMidYMid meet">
<metadata>
Created by potrace 1.16, written by Peter Selinger 2001-2019
</metadata>
<g transform="translate(0.000000,64.000000) scale(0.100000,-0.100000)"
fill="#000000" stroke="none">
<path d="M153 545 l2 -96 -15 -9 -15 -10 -15 6 -15 6 -32 5 -33 6 -15 -13 -15
-12 0 -24 0 -24 22 -14 23 -15 42 -7 43 -7 14 12 15 12 22 -11 22 -12 -6 -47
-6 -46 -14 -40 -14 -40 -8 -17 -7 -18 71 0 71 0 20 -20 20 -20 0 -13 0 -13
-11 -11 -12 -12 6 -15 6 -15 43 -6 43 -6 29 10 28 11 -6 40 -6 40 22 5 23 5
78 9 79 9 4 5 4 4 -20 47 -21 47 3 37 3 37 15 -5 15 -4 42 0 41 1 37 23 36 23
9 22 9 23 -6 21 -5 21 -34 21 -34 21 -51 -4 -51 -3 7 89 7 89 -18 -7 -19 -8
-65 -9 -65 -9 -18 -6 -19 -6 7 -26 6 -27 5 -17 5 -17 -21 -21 -21 -21 -42 3
-42 3 0 73 0 73 -15 9 -15 10 -87 0 -87 0 2 -95z"/>
</g>
</svg>
