<?xml version="1.0" standalone="no"?>
<!DOCTYPE svg PUBLIC "-//W3C//DTD SVG 20010904//EN"
 "http://www.w3.org/TR/2001/REC-SVG-20010904/DTD/svg10.dtd">
<svg version="1.0" xmlns="http://www.w3.org/2000/svg"
 width="58.000000pt" height="67.000000pt" viewBox="0 0 58.000000 67.000000"
 preserveAspectRatio="xMidYMid meet">
<metadata>
Created by potrace 1.16, written by Peter Selinger 2001-2019
</metadata>
<g transform="translate(0.000000,67.000000) scale(0.100000,-0.100000)"
fill="#000000" stroke="none">
<path d="M37 603 l-7 -68 0 -32 0 -32 49 6 49 6 36 -23 36 -22 0 -29 0 -29
-39 -25 -39 -26 -33 0 -34 -1 -25 4 -25 3 -3 -47 -3 -47 22 -51 22 -50 92 6
92 7 5 -56 5 -57 18 -20 18 -20 32 0 32 0 27 33 28 32 -5 49 -4 49 82 -7 82
-7 13 16 13 15 5 97 5 96 -51 -7 -52 -7 -30 16 -30 16 0 33 0 33 19 17 20 18
36 -12 36 -12 13 5 14 6 7 40 7 41 -7 51 -7 51 -22 -7 -21 -7 -65 -18 -65 -18
-18 -7 -18 -8 3 -21 2 -21 -7 -12 -8 -13 -38 0 -38 0 -16 18 -16 17 9 15 10
15 0 26 0 25 -12 12 -12 12 -92 0 -91 0 -6 -67z"/>
</g>
</svg>
