<?xml version="1.0" standalone="no"?>
<!DOCTYPE svg PUBLIC "-//W3C//DTD SVG 20010904//EN"
 "http://www.w3.org/TR/2001/REC-SVG-20010904/DTD/svg10.dtd">
<svg version="1.0" xmlns="http://www.w3.org/2000/svg"
 width="56.000000pt" height="56.000000pt" viewBox="0 0 56.000000 56.000000"
 preserveAspectRatio="xMidYMid meet">
<metadata>
Created by potrace 1.16, written by Peter Selinger 2001-2019
</metadata>
<g transform="translate(0.000000,56.000000) scale(0.100000,-0.100000)"
fill="#000000" stroke="none">
<path d="M306 551 l-5 -8 9 -34 10 -34 -6 -28 -6 -28 -23 -11 -24 -11 -26 7
-26 7 -8 22 -8 22 8 29 8 29 -5 8 -5 9 -93 0 -93 0 -7 -37 -6 -38 0 -48 0 -49
37 6 38 5 35 -12 34 -12 18 -31 18 -31 -11 -32 -11 -31 -21 -5 -22 -5 -20 3
-20 2 -18 -60 -18 -60 -17 -35 -16 -35 -3 -5 -3 -5 94 3 95 3 10 12 9 12 -11
43 -11 42 19 19 20 19 21 6 21 6 28 -22 27 -21 -6 -58 -6 -58 11 -7 10 -6 32
-1 32 0 68 7 69 8 -5 5 -5 5 19 55 19 56 0 48 0 48 -10 6 -10 6 -33 -12 -34
-12 -43 15 -44 14 -10 17 -11 17 11 17 11 17 25 7 26 7 43 -8 44 -8 3 3 4 3
-7 100 -7 100 -64 16 -63 16 -40 0 -40 0 -5 -9z"/>
</g>
</svg>
