<?xml version="1.0" standalone="no"?>
<!DOCTYPE svg PUBLIC "-//W3C//DTD SVG 20010904//EN"
 "http://www.w3.org/TR/2001/REC-SVG-20010904/DTD/svg10.dtd">
<svg version="1.0" xmlns="http://www.w3.org/2000/svg"
 width="67.000000pt" height="57.000000pt" viewBox="0 0 67.000000 57.000000"
 preserveAspectRatio="xMidYMid meet">
<metadata>
Created by potrace 1.16, written by Peter Selinger 2001-2019
</metadata>
<g transform="translate(0.000000,57.000000) scale(0.100000,-0.100000)"
fill="#000000" stroke="none">
<path d="M446 561 l-7 -11 7 -45 6 -45 -12 -29 -12 -30 -14 -5 -15 -6 -20 13
-20 12 6 52 6 52 -20 10 -20 11 -90 0 -91 0 0 -93 0 -93 -56 0 -56 1 -19 -24
-19 -23 0 -33 0 -34 17 -16 16 -17 43 7 42 6 5 -18 5 -18 7 -86 7 -86 88 -6
89 -7 16 7 17 6 -6 16 -5 16 -6 22 -7 22 30 31 30 30 16 0 16 0 19 -19 19 -19
-5 -45 -5 -46 23 -5 24 -5 88 -4 89 -4 -6 30 -6 30 0 238 0 238 -37 11 -38 11
-66 6 -66 6 -7 -12z"/>
</g>
</svg>
