<?xml version="1.0" standalone="no"?>
<!DOCTYPE svg PUBLIC "-//W3C//DTD SVG 20010904//EN"
 "http://www.w3.org/TR/2001/REC-SVG-20010904/DTD/svg10.dtd">
<svg version="1.0" xmlns="http://www.w3.org/2000/svg"
 width="65.000000pt" height="55.000000pt" viewBox="0 0 65.000000 55.000000"
 preserveAspectRatio="xMidYMid meet">
<metadata>
Created by potrace 1.16, written by Peter Selinger 2001-2019
</metadata>
<g transform="translate(0.000000,55.000000) scale(0.100000,-0.100000)"
fill="#000000" stroke="none">
<path d="M448 545 l-7 -7 6 -49 6 -48 -13 -30 -12 -30 -20 -7 -20 -6 -25 13
-25 14 5 52 6 53 -19 10 -19 10 -80 0 -81 0 0 -94 0 -95 -9 -5 -8 -5 -29 10
-29 11 -28 -11 -27 -11 -11 -24 -12 -25 7 -25 6 -25 20 -6 19 -6 20 10 20 11
15 -6 15 -6 5 -16 4 -17 7 -86 7 -86 80 -6 81 -5 13 5 14 5 -10 18 -10 19 0
21 0 22 29 29 29 29 26 0 26 0 21 -21 20 -20 -7 -44 -6 -44 23 -5 24 -6 78 -2
77 -3 -5 13 -5 14 0 243 0 244 -37 11 -38 10 -55 6 -55 6 -7 -7z"/>
</g>
</svg>
