<?xml version="1.0" standalone="no"?>
<!DOCTYPE svg PUBLIC "-//W3C//DTD SVG 20010904//EN"
 "http://www.w3.org/TR/2001/REC-SVG-20010904/DTD/svg10.dtd">
<svg version="1.0" xmlns="http://www.w3.org/2000/svg"
 width="64.000000pt" height="67.000000pt" viewBox="0 0 64.000000 67.000000"
 preserveAspectRatio="xMidYMid meet">
<metadata>
Created by potrace 1.16, written by Peter Selinger 2001-2019
</metadata>
<g transform="translate(0.000000,67.000000) scale(0.100000,-0.100000)"
fill="#000000" stroke="none">
<path d="M447 663 l-18 -5 7 -31 7 -32 -1 -23 -2 -22 -16 -25 -16 -25 -39 0
-38 0 -21 23 -22 22 7 59 6 59 -32 -7 -31 -6 -49 0 -49 0 0 -79 0 -79 -6 -16
-6 -16 -48 6 -48 6 -17 -26 -17 -26 6 -25 7 -26 23 -9 24 -9 37 10 37 10 15
-6 16 -5 -7 -78 -7 -77 -2 -30 -2 -30 85 3 86 4 -1 -59 0 -58 34 -17 34 -17
31 13 31 13 -1 67 -1 66 24 6 24 6 56 -11 56 -11 14 0 13 0 0 84 0 84 -6 16
-6 16 -38 -6 -37 -6 -22 11 -21 12 0 44 0 44 21 15 21 14 30 -10 30 -11 16 17
17 17 3 78 4 78 -76 12 -77 11 -12 -1 -12 -1 -18 -5z"/>
</g>
</svg>
