<?xml version="1.0" standalone="no"?>
<!DOCTYPE svg PUBLIC "-//W3C//DTD SVG 20010904//EN"
 "http://www.w3.org/TR/2001/REC-SVG-20010904/DTD/svg10.dtd">
<svg version="1.0" xmlns="http://www.w3.org/2000/svg"
 width="66.000000pt" height="69.000000pt" viewBox="0 0 66.000000 69.000000"
 preserveAspectRatio="xMidYMid meet">
<metadata>
Created by potrace 1.16, written by Peter Selinger 2001-2019
</metadata>
<g transform="translate(0.000000,69.000000) scale(0.100000,-0.100000)"
fill="#000000" stroke="none">
<path d="M447 683 l-18 -5 6 -53 7 -53 -17 -26 -17 -26 -29 0 -28 0 -21 22
-21 22 7 60 7 59 -48 -6 -48 -7 -43 0 -44 0 0 -79 0 -79 -5 -15 -6 -14 -48 5
-48 4 -17 -23 -16 -23 0 -26 0 -26 14 -20 14 -19 44 2 43 2 20 3 20 3 -1 -55
-1 -55 -4 -55 -4 -55 82 3 82 2 3 -57 3 -58 38 -19 38 -18 37 14 37 14 0 67 0
68 20 5 20 5 73 -16 73 -15 3 0 2 0 -3 93 -4 92 -5 24 -5 23 -40 -6 -40 -6
-19 10 -20 11 0 34 0 34 13 8 12 8 45 0 44 0 13 25 13 25 0 76 0 77 -75 11
-76 11 -22 -1 -22 -1 -18 -5z"/>
</g>
</svg>
