<?xml version="1.0" standalone="no"?>
<!DOCTYPE svg PUBLIC "-//W3C//DTD SVG 20010904//EN"
 "http://www.w3.org/TR/2001/REC-SVG-20010904/DTD/svg10.dtd">
<svg version="1.0" xmlns="http://www.w3.org/2000/svg"
 width="84.000000pt" height="68.000000pt" viewBox="0 0 84.000000 68.000000"
 preserveAspectRatio="xMidYMid meet">
<metadata>
Created by potrace 1.16, written by Peter Selinger 2001-2019
</metadata>
<g transform="translate(0.000000,68.000000) scale(0.100000,-0.100000)"
fill="#000000" stroke="none">
<path d="M463 670 l-23 -9 0 -15 0 -15 10 -26 10 -26 -10 -20 -11 -19 -48 0
-49 0 6 45 5 45 -36 15 -36 15 -67 0 -67 0 7 -99 6 -100 -64 2 -63 2 -17 -14
-17 -14 3 -31 3 -31 30 -15 30 -14 45 0 45 -1 15 5 15 5 3 -38 3 -38 -21 -64
-21 -65 6 -10 6 -10 67 0 68 0 22 -16 22 -15 -6 -50 -7 -49 66 0 67 0 15 24
16 23 -7 42 -7 41 29 1 29 1 67 -2 66 -1 6 10 7 10 -10 61 -10 61 6 15 6 15
28 -6 29 -7 29 7 29 6 26 24 26 24 0 44 0 45 -14 11 -15 12 -68 -2 -68 -2 3
100 4 100 -89 12 -89 11 -10 -1 -9 0 -22 -9z"/>
</g>
</svg>
