<?xml version="1.0" standalone="no"?>
<!DOCTYPE svg PUBLIC "-//W3C//DTD SVG 20010904//EN"
 "http://www.w3.org/TR/2001/REC-SVG-20010904/DTD/svg10.dtd">
<svg version="1.0" xmlns="http://www.w3.org/2000/svg"
 width="82.000000pt" height="66.000000pt" viewBox="0 0 82.000000 66.000000"
 preserveAspectRatio="xMidYMid meet">
<metadata>
Created by potrace 1.16, written by Peter Selinger 2001-2019
</metadata>
<g transform="translate(0.000000,66.000000) scale(0.100000,-0.100000)"
fill="#000000" stroke="none">
<path d="M461 650 l-23 -10 6 -16 6 -16 6 -23 6 -23 -12 -21 -11 -21 -60 0
-60 0 7 45 6 45 -36 15 -35 15 -57 0 -56 0 7 -106 7 -106 -22 7 -22 7 -43 0
-44 1 -16 -13 -16 -13 3 -21 3 -21 30 -14 30 -15 35 1 35 1 25 4 25 3 3 -48 3
-49 -20 -58 -19 -58 6 -6 5 -6 66 0 67 0 23 -16 23 -17 -6 -48 -7 -49 55 0 56
0 15 23 15 23 -10 34 -10 34 10 10 9 9 93 1 93 1 -1 17 -1 16 -7 54 -7 53 14
19 14 19 22 -12 22 -12 29 6 28 6 26 24 26 24 0 34 0 35 -15 12 -15 12 -67 -3
-68 -4 3 101 3 102 -58 6 -58 7 -30 4 -30 4 -24 -9z"/>
</g>
</svg>
