<?xml version="1.0" standalone="no"?>
<!DOCTYPE svg PUBLIC "-//W3C//DTD SVG 20010904//EN"
 "http://www.w3.org/TR/2001/REC-SVG-20010904/DTD/svg10.dtd">
<svg version="1.0" xmlns="http://www.w3.org/2000/svg"
 width="67.000000pt" height="78.000000pt" viewBox="0 0 67.000000 78.000000"
 preserveAspectRatio="xMidYMid meet">
<metadata>
Created by potrace 1.16, written by Peter Selinger 2001-2019
</metadata>
<g transform="translate(0.000000,78.000000) scale(0.100000,-0.100000)"
fill="#000000" stroke="none">
<path d="M236 764 l-16 -15 0 -20 0 -20 11 -21 11 -20 -16 -17 -17 -16 -99 2
-100 2 -6 -25 -6 -25 4 -55 5 -55 16 -17 17 -16 33 12 32 12 18 -21 17 -21 0
-23 0 -24 -27 -21 -26 -21 -11 11 -10 10 -18 0 -17 0 -10 -18 -9 -17 -3 -95
-3 -95 98 4 99 3 -7 -26 -6 -26 14 -34 14 -34 21 -11 21 -11 27 6 28 7 18 15
18 16 -3 30 -3 30 40 7 40 8 55 6 55 6 -3 60 -4 61 7 34 6 34 53 -6 54 -7 11
21 11 21 0 38 -1 38 -13 18 -13 17 -17 0 -17 0 -19 -10 -19 -10 -15 6 -16 6
-11 40 -10 40 2 52 3 51 -44 7 -45 7 -50 0 -50 1 -14 9 -13 9 7 39 6 40 -16
17 -16 16 -19 0 -19 0 -15 -16z"/>
</g>
</svg>
