<?xml version="1.0" standalone="no"?>
<!DOCTYPE svg PUBLIC "-//W3C//DTD SVG 20010904//EN"
 "http://www.w3.org/TR/2001/REC-SVG-20010904/DTD/svg10.dtd">
<svg version="1.0" xmlns="http://www.w3.org/2000/svg"
 width="77.000000pt" height="81.000000pt" viewBox="0 0 77.000000 81.000000"
 preserveAspectRatio="xMidYMid meet">
<metadata>
Created by potrace 1.16, written by Peter Selinger 2001-2019
</metadata>
<g transform="translate(0.000000,81.000000) scale(0.100000,-0.100000)"
fill="#000000" stroke="none">
<path d="M335 800 l-6 -10 7 -59 6 -59 -25 -17 -26 -17 -80 4 -81 3 0 -65 0
-66 -16 -22 -16 -23 -37 1 -36 2 -12 -1 -13 -1 0 -45 0 -46 15 -29 15 -29 20
-6 21 -7 42 4 42 3 3 -33 3 -33 -14 -49 -15 -49 6 -6 5 -5 51 0 51 0 36 -10
36 -10 17 -19 17 -18 -12 -26 -12 -26 13 -16 12 -15 45 0 44 0 20 11 20 10 -3
27 -3 26 61 17 61 17 21 11 22 12 1 -8 1 -8 8 30 8 30 1 56 1 55 13 18 14 19
21 -12 21 -11 5 0 5 0 15 16 16 15 0 43 0 44 -17 13 -16 14 -49 -1 -50 0 7 91
7 91 -15 12 -14 12 -59 10 -59 11 -23 10 -24 9 7 49 7 49 -21 11 -20 11 -45 0
-45 0 -6 -10z"/>
</g>
</svg>
