<?xml version="1.0" standalone="no"?>
<!DOCTYPE svg PUBLIC "-//W3C//DTD SVG 20010904//EN"
 "http://www.w3.org/TR/2001/REC-SVG-20010904/DTD/svg10.dtd">
<svg version="1.0" xmlns="http://www.w3.org/2000/svg"
 width="79.000000pt" height="83.000000pt" viewBox="0 0 79.000000 83.000000"
 preserveAspectRatio="xMidYMid meet">
<metadata>
Created by potrace 1.16, written by Peter Selinger 2001-2019
</metadata>
<g transform="translate(0.000000,83.000000) scale(0.100000,-0.100000)"
fill="#000000" stroke="none">
<path d="M334 819 l-6 -11 6 -58 7 -59 -26 -17 -25 -17 -80 5 -80 5 0 -66 0
-67 -16 -23 -17 -23 -34 5 -34 6 -15 -6 -14 -5 0 -55 0 -54 15 -28 14 -29 16
-6 17 -6 49 0 49 0 0 -23 0 -23 -15 -52 -16 -52 5 -9 6 -8 74 -5 75 -5 26 -17
26 -17 -7 -35 -6 -34 12 -15 12 -15 55 0 54 0 20 10 19 11 0 28 0 29 28 6 27
7 57 16 56 17 6 35 6 36 0 42 0 41 6 16 6 16 33 -6 32 -6 16 17 17 16 0 53 0
54 -16 13 -17 14 -48 0 -49 0 6 90 7 90 -15 13 -15 12 -59 10 -59 11 -22 9
-23 9 7 47 6 47 -18 13 -19 14 -57 0 -58 0 -7 -11z"/>
</g>
</svg>
