<?xml version="1.0" standalone="no"?>
<!DOCTYPE svg PUBLIC "-//W3C//DTD SVG 20010904//EN"
 "http://www.w3.org/TR/2001/REC-SVG-20010904/DTD/svg10.dtd">
<svg version="1.0" xmlns="http://www.w3.org/2000/svg"
 width="86.000000pt" height="69.000000pt" viewBox="0 0 86.000000 69.000000"
 preserveAspectRatio="xMidYMid meet">
<metadata>
Created by potrace 1.16, written by Peter Selinger 2001-2019
</metadata>
<g transform="translate(0.000000,69.000000) scale(0.100000,-0.100000)"
fill="#000000" stroke="none">
<path d="M370 670 l-20 -20 1 -27 0 -28 8 -20 8 -20 -4 -12 -5 -13 -94 0 -94
0 0 -77 0 -78 -8 -12 -8 -13 -30 12 -30 11 -27 -7 -28 -7 -19 -19 -20 -20 0
-49 0 -49 15 -12 16 -13 25 12 26 12 14 -18 13 -18 1 -13 0 -13 26 -79 27 -80
46 0 46 0 37 6 37 6 20 20 21 19 0 44 0 45 23 6 24 5 34 -8 34 -9 5 -45 5 -44
80 -17 80 -17 26 0 26 -1 7 69 6 69 6 16 6 15 43 -6 43 -5 21 21 21 21 0 58 0
58 -12 12 -12 12 -27 0 -28 0 -25 -10 -26 -9 -17 25 -17 26 -1 71 -2 72 -2 6
-1 7 -49 21 -50 21 -11 0 -12 0 -34 16 -33 16 6 28 5 28 -20 11 -21 11 -40 0
-41 0 -20 -20z"/>
</g>
</svg>
