<?xml version="1.0" standalone="no"?>
<!DOCTYPE svg PUBLIC "-//W3C//DTD SVG 20010904//EN"
 "http://www.w3.org/TR/2001/REC-SVG-20010904/DTD/svg10.dtd">
<svg version="1.0" xmlns="http://www.w3.org/2000/svg"
 width="68.000000pt" height="67.000000pt" viewBox="0 0 68.000000 67.000000"
 preserveAspectRatio="xMidYMid meet">
<metadata>
Created by potrace 1.16, written by Peter Selinger 2001-2019
</metadata>
<g transform="translate(0.000000,67.000000) scale(0.100000,-0.100000)"
fill="#000000" stroke="none">
<path d="M235 660 l-21 -8 -14 -17 -14 -17 11 -41 11 -42 -10 -12 -10 -13 -88
0 -88 0 -6 -35 -7 -36 7 -45 6 -45 17 -20 16 -20 47 12 46 13 16 -13 16 -13 0
-49 0 -49 -20 -20 -20 -20 -14 0 -15 0 -25 10 -25 9 -8 -12 -7 -12 -12 -72
-11 -72 7 -11 7 -11 89 3 89 3 0 65 0 64 27 13 26 13 27 -12 26 -12 14 -26 14
-27 -10 -10 -11 -11 4 -18 3 -18 25 -7 25 -7 76 -1 76 -1 -4 28 -4 27 8 55 9
55 45 -3 45 -3 25 19 24 20 0 61 0 60 -12 12 -12 12 -26 -11 -26 -12 -25 6
-25 6 -14 29 -15 28 0 56 0 57 -50 -7 -49 -7 -44 0 -44 -1 -11 7 -12 7 6 58 6
58 -27 21 -28 22 -6 -1 -6 0 -20 -9z"/>
</g>
</svg>
