<?xml version="1.0" standalone="no"?>
<!DOCTYPE svg PUBLIC "-//W3C//DTD SVG 20010904//EN"
 "http://www.w3.org/TR/2001/REC-SVG-20010904/DTD/svg10.dtd">
<svg version="1.0" xmlns="http://www.w3.org/2000/svg"
 width="70.000000pt" height="69.000000pt" viewBox="0 0 70.000000 69.000000"
 preserveAspectRatio="xMidYMid meet">
<metadata>
Created by potrace 1.16, written by Peter Selinger 2001-2019
</metadata>
<g transform="translate(0.000000,69.000000) scale(0.100000,-0.100000)"
fill="#000000" stroke="none">
<path d="M235 680 l-21 -8 -13 -15 -13 -16 4 -53 3 -53 -92 -3 -91 -3 -7 -40
-7 -39 7 -50 7 -50 18 -22 18 -23 47 13 47 13 14 -12 14 -11 0 -39 0 -39 -21
-21 -21 -21 -15 6 -15 6 -24 6 -23 6 -10 -23 -10 -24 -10 -68 -10 -68 6 -15 5
-15 102 3 101 3 0 60 0 60 8 13 8 12 23 0 22 0 19 -14 19 -14 1 -48 0 -48 25
-7 25 -7 88 -1 88 -1 -6 33 -5 32 7 50 8 49 46 -2 45 -3 24 19 23 19 4 54 5
54 -11 28 -11 27 -22 0 -23 0 -14 -9 -13 -9 -20 5 -19 6 -14 28 -15 28 0 55 0
55 -102 -2 -103 -2 3 61 4 61 -28 22 -27 21 -16 -1 -16 0 -20 -9z"/>
</g>
</svg>
