<?xml version="1.0" standalone="no"?>
<!DOCTYPE svg PUBLIC "-//W3C//DTD SVG 20010904//EN"
 "http://www.w3.org/TR/2001/REC-SVG-20010904/DTD/svg10.dtd">
<svg version="1.0" xmlns="http://www.w3.org/2000/svg"
 width="54.000000pt" height="53.000000pt" viewBox="0 0 54.000000 53.000000"
 preserveAspectRatio="xMidYMid meet">
<metadata>
Created by potrace 1.16, written by Peter Selinger 2001-2019
</metadata>
<g transform="translate(0.000000,53.000000) scale(0.100000,-0.100000)"
fill="#000000" stroke="none">
<path d="M0 440 l0 -90 21 -21 21 -21 26 5 27 4 17 7 16 8 22 -22 22 -22 -6
-37 -6 -36 -16 -12 -17 -12 -42 6 -43 5 -10 -48 -11 -49 -7 -53 -7 -52 87 0
86 0 21 21 21 21 -5 44 -4 43 18 6 19 6 30 -6 30 -7 7 -11 8 -12 0 -44 0 -45
25 -7 25 -7 67 -1 67 -1 10 18 9 18 7 71 7 72 -6 26 -7 26 -62 -7 -63 -6 -18
17 -17 17 3 42 3 41 42 -3 42 -4 19 6 19 6 11 26 12 25 0 68 0 68 -77 -4 -78
-5 -30 -7 -30 -8 2 -46 3 -46 -21 -11 -20 -11 -37 3 -36 3 2 45 2 45 -7 11 -8
11 -22 12 -22 11 -70 0 -71 0 0 -90z"/>
</g>
</svg>
