<?xml version="1.0" standalone="no"?>
<!DOCTYPE svg PUBLIC "-//W3C//DTD SVG 20010904//EN"
 "http://www.w3.org/TR/2001/REC-SVG-20010904/DTD/svg10.dtd">
<svg version="1.0" xmlns="http://www.w3.org/2000/svg"
 width="52.000000pt" height="51.000000pt" viewBox="0 0 52.000000 51.000000"
 preserveAspectRatio="xMidYMid meet">
<metadata>
Created by potrace 1.16, written by Peter Selinger 2001-2019
</metadata>
<g transform="translate(0.000000,51.000000) scale(0.100000,-0.100000)"
fill="#000000" stroke="none">
<path d="M0 430 l0 -80 21 -21 21 -21 21 7 22 7 22 5 21 5 22 -22 22 -22 -5
-46 -5 -46 -18 -14 -19 -13 -42 6 -41 6 -11 -53 -10 -53 -7 -37 -6 -38 76 0
76 0 20 20 20 20 0 19 0 20 -10 25 -9 25 34 7 33 6 31 -7 31 -7 14 -19 14 -20
-11 -30 -11 -29 11 -11 12 -12 74 -5 75 -4 10 18 10 19 7 66 7 67 -6 20 -7 20
-62 -5 -63 -5 -18 17 -17 17 3 52 3 51 40 -3 40 -2 21 5 21 5 11 25 12 26 0
57 0 57 -89 -6 -88 -6 -12 -7 -11 -7 6 -41 7 -41 -18 -14 -19 -13 -45 0 -46 0
-15 10 -15 9 13 13 12 12 0 25 0 26 -8 11 -7 11 -22 12 -22 11 -60 0 -61 0 0
-80z"/>
</g>
</svg>
