<?xml version="1.0" standalone="no"?>
<!DOCTYPE svg PUBLIC "-//W3C//DTD SVG 20010904//EN"
 "http://www.w3.org/TR/2001/REC-SVG-20010904/DTD/svg10.dtd">
<svg version="1.0" xmlns="http://www.w3.org/2000/svg"
 width="69.000000pt" height="68.000000pt" viewBox="0 0 69.000000 68.000000"
 preserveAspectRatio="xMidYMid meet">
<metadata>
Created by potrace 1.16, written by Peter Selinger 2001-2019
</metadata>
<g transform="translate(0.000000,68.000000) scale(0.100000,-0.100000)"
fill="#000000" stroke="none">
<path d="M20 618 l0 -63 -7 -54 -6 -53 32 7 33 7 34 0 35 0 14 -12 15 -12 0
-18 0 -17 -19 -17 -20 -18 -63 3 -63 4 2 -99 2 -98 6 -15 5 -16 84 7 84 6 15
-6 15 -5 -5 -58 -5 -57 17 -17 16 -17 39 0 39 0 16 30 15 29 0 57 0 57 68 -6
67 -6 31 -7 32 -6 12 73 12 74 7 30 8 30 46 -3 46 -4 7 36 6 36 -6 25 -6 25
-26 6 -26 7 -33 -10 -33 -11 -11 11 -11 11 0 97 0 97 -67 -5 -68 -4 -33 -5
-33 -5 -5 -14 -6 -13 11 -20 11 -21 -6 -14 -5 -14 -26 -12 -25 -12 -17 6 -16
5 -13 21 -14 21 12 29 12 29 -6 15 -5 15 -111 0 -110 0 0 -62z"/>
</g>
</svg>
