<?xml version="1.0" standalone="no"?>
<!DOCTYPE svg PUBLIC "-//W3C//DTD SVG 20010904//EN"
 "http://www.w3.org/TR/2001/REC-SVG-20010904/DTD/svg10.dtd">
<svg version="1.0" xmlns="http://www.w3.org/2000/svg"
 width="54.000000pt" height="54.000000pt" viewBox="0 0 54.000000 54.000000"
 preserveAspectRatio="xMidYMid meet">
<metadata>
Created by potrace 1.16, written by Peter Selinger 2001-2019
</metadata>
<g transform="translate(0.000000,54.000000) scale(0.100000,-0.100000)"
fill="#000000" stroke="none">
<path d="M15 435 l-7 -106 7 -7 7 -7 70 0 70 0 11 -17 11 -17 -9 -27 -10 -27
-35 -18 -36 -19 -33 13 -33 12 -15 -20 -15 -20 7 -60 6 -60 6 -23 5 -22 102 0
101 0 14 9 14 9 -6 55 -5 55 11 11 11 11 8 0 7 0 13 -22 13 -23 0 -55 0 -55
107 0 107 0 11 11 11 11 -8 104 -8 104 -50 0 -49 0 -10 27 -10 27 12 26 11 25
25 -12 25 -11 24 16 24 16 7 32 6 31 0 59 0 59 -8 0 -8 0 -94 -20 -94 -20 -3
0 -3 0 0 -35 0 -35 -41 0 -40 0 -20 10 -19 11 6 39 6 40 -26 10 -27 10 -74 0
-73 0 -7 -105z"/>
</g>
</svg>
