<?xml version="1.0" standalone="no"?>
<!DOCTYPE svg PUBLIC "-//W3C//DTD SVG 20010904//EN"
 "http://www.w3.org/TR/2001/REC-SVG-20010904/DTD/svg10.dtd">
<svg version="1.0" xmlns="http://www.w3.org/2000/svg"
 width="52.000000pt" height="52.000000pt" viewBox="0 0 52.000000 52.000000"
 preserveAspectRatio="xMidYMid meet">
<metadata>
Created by potrace 1.16, written by Peter Selinger 2001-2019
</metadata>
<g transform="translate(0.000000,52.000000) scale(0.100000,-0.100000)"
fill="#000000" stroke="none">
<path d="M15 425 l-7 -94 6 -9 6 -10 65 5 65 6 15 -13 15 -12 0 -35 0 -34 -26
-24 -26 -24 -28 -6 -29 -6 -22 12 -22 12 -14 -19 -14 -19 6 -45 6 -45 5 -28 6
-27 91 0 92 0 14 9 14 9 -7 52 -7 52 12 14 11 14 19 0 18 0 16 -30 16 -31 -3
-47 -3 -47 97 0 97 0 10 10 11 11 -8 94 -7 95 -47 -3 -46 -4 -11 21 -11 20 0
28 0 29 14 19 14 19 25 -11 26 -12 22 18 22 17 5 78 5 78 -19 -5 -19 -6 -75
-16 -75 -15 -4 0 -3 0 5 -23 6 -22 -8 -13 -8 -14 -44 0 -45 -1 -23 12 -23 13
6 39 6 39 -26 10 -25 10 -63 0 -64 0 -7 -95z"/>
</g>
</svg>
