<?xml version="1.0" standalone="no"?>
<!DOCTYPE svg PUBLIC "-//W3C//DTD SVG 20010904//EN"
 "http://www.w3.org/TR/2001/REC-SVG-20010904/DTD/svg10.dtd">
<svg version="1.0" xmlns="http://www.w3.org/2000/svg"
 width="72.000000pt" height="79.000000pt" viewBox="0 0 72.000000 79.000000"
 preserveAspectRatio="xMidYMid meet">
<metadata>
Created by potrace 1.16, written by Peter Selinger 2001-2019
</metadata>
<g transform="translate(0.000000,79.000000) scale(0.100000,-0.100000)"
fill="#000000" stroke="none">
<path d="M224 765 l-17 -26 7 -45 6 -46 -103 4 -102 3 -3 -98 -3 -98 16 -15
15 -15 55 12 54 12 16 -13 15 -12 0 -23 0 -24 -27 -21 -27 -21 -52 7 -52 6
-12 -21 -11 -21 3 -88 3 -87 85 -5 85 -5 23 -13 23 -13 -3 -47 -3 -47 60 -3
59 -3 23 6 23 5 0 35 0 34 38 10 37 11 12 0 13 0 40 17 40 18 0 75 0 75 6 21
6 21 47 -5 48 -4 26 25 27 24 0 49 0 49 -21 13 -21 13 -50 -12 -50 -13 -14 19
-14 19 0 78 0 78 -77 1 -78 1 -30 7 -30 6 3 38 4 39 -18 19 -17 19 -33 0 -34
0 -16 -25z"/>
</g>
</svg>
