<?xml version="1.0" standalone="no"?>
<!DOCTYPE svg PUBLIC "-//W3C//DTD SVG 20010904//EN"
 "http://www.w3.org/TR/2001/REC-SVG-20010904/DTD/svg10.dtd">
<svg version="1.0" xmlns="http://www.w3.org/2000/svg"
 width="70.000000pt" height="77.000000pt" viewBox="0 0 70.000000 77.000000"
 preserveAspectRatio="xMidYMid meet">
<metadata>
Created by potrace 1.16, written by Peter Selinger 2001-2019
</metadata>
<g transform="translate(0.000000,77.000000) scale(0.100000,-0.100000)"
fill="#000000" stroke="none">
<path d="M225 746 l-16 -24 7 -49 6 -49 -93 8 -94 8 -12 -5 -13 -4 0 -86 0
-86 13 -13 13 -13 53 10 52 11 17 -10 17 -11 3 -35 3 -36 -28 -22 -28 -22 -52
6 -52 6 -11 -21 -11 -20 4 -77 5 -77 83 -5 84 -5 23 -13 24 -14 -4 -46 -3 -47
49 -3 50 -3 24 6 24 6 -6 29 -5 30 17 9 17 9 50 10 50 11 26 13 26 13 2 75 2
75 6 23 5 22 47 -6 48 -6 26 25 27 24 0 39 0 39 -20 12 -19 13 -26 -10 -26
-10 -29 0 -29 0 -11 19 -10 20 0 75 0 76 -77 1 -78 1 -30 7 -30 7 2 39 3 39
-17 18 -16 18 -23 0 -24 0 -15 -24z"/>
</g>
</svg>
