<?xml version="1.0" standalone="no"?>
<!DOCTYPE svg PUBLIC "-//W3C//DTD SVG 20010904//EN"
 "http://www.w3.org/TR/2001/REC-SVG-20010904/DTD/svg10.dtd">
<svg version="1.0" xmlns="http://www.w3.org/2000/svg"
 width="84.000000pt" height="80.000000pt" viewBox="0 0 84.000000 80.000000"
 preserveAspectRatio="xMidYMid meet">
<metadata>
Created by potrace 1.16, written by Peter Selinger 2001-2019
</metadata>
<g transform="translate(0.000000,80.000000) scale(0.100000,-0.100000)"
fill="#000000" stroke="none">
<path d="M382 788 l-22 -11 -6 -24 -6 -23 4 -40 3 -40 -12 -4 -12 -5 -85 6
-84 6 9 -44 8 -44 1 -43 0 -42 -39 6 -39 6 -36 -12 -37 -12 -15 -23 -16 -24 4
-23 3 -23 45 -23 45 -23 57 4 57 5 6 -17 5 -17 -16 -54 -15 -55 -2 -20 -2 -20
91 -3 90 -3 0 -55 -1 -56 24 -19 23 -19 23 0 23 0 27 31 26 32 -3 41 -3 41 90
5 90 5 -3 10 -2 10 -16 47 -15 47 3 38 3 38 20 -5 20 -5 47 0 48 0 26 28 26
28 -6 32 -6 33 -23 19 -22 19 -35 0 -35 -1 -14 -4 -15 -4 3 86 3 86 -44 1 -43
1 -50 6 -50 6 -19 6 -18 5 6 40 7 41 -17 18 -17 19 -21 -1 -21 0 -23 -11z"/>
</g>
</svg>
