<?xml version="1.0" standalone="no"?>
<!DOCTYPE svg PUBLIC "-//W3C//DTD SVG 20010904//EN"
 "http://www.w3.org/TR/2001/REC-SVG-20010904/DTD/svg10.dtd">
<svg version="1.0" xmlns="http://www.w3.org/2000/svg"
 width="61.000000pt" height="69.000000pt" viewBox="0 0 61.000000 69.000000"
 preserveAspectRatio="xMidYMid meet">
<metadata>
Created by potrace 1.16, written by Peter Selinger 2001-2019
</metadata>
<g transform="translate(0.000000,69.000000) scale(0.100000,-0.100000)"
fill="#000000" stroke="none">
<path d="M251 679 l-23 -9 3 -63 4 -62 -95 -5 -95 -5 -7 -50 -6 -50 -1 -53 -1
-53 59 7 58 6 17 -23 16 -23 -20 -21 -21 -20 -64 2 -65 3 -7 -28 -6 -27 16
-79 16 -78 17 -19 18 -20 100 3 101 3 -3 58 -4 58 12 14 12 15 23 0 23 0 27
-31 26 -32 -7 -16 -6 -16 -6 -19 -5 -19 18 -13 19 -14 50 1 51 0 44 7 45 7 13
50 13 50 0 47 0 46 -6 16 -6 16 -25 0 -24 0 -17 -9 -17 -9 -32 13 -32 14 -7
25 -6 26 5 14 6 14 38 -4 38 -5 23 19 23 18 9 39 10 40 -1 35 0 35 -13 25 -14
25 -88 30 -89 30 3 27 3 28 -26 10 -26 10 -32 -1 -32 0 -24 -10z"/>
</g>
</svg>
