<?xml version="1.0" standalone="no"?>
<!DOCTYPE svg PUBLIC "-//W3C//DTD SVG 20010904//EN"
 "http://www.w3.org/TR/2001/REC-SVG-20010904/DTD/svg10.dtd">
<svg version="1.0" xmlns="http://www.w3.org/2000/svg"
 width="59.000000pt" height="67.000000pt" viewBox="0 0 59.000000 67.000000"
 preserveAspectRatio="xMidYMid meet">
<metadata>
Created by potrace 1.16, written by Peter Selinger 2001-2019
</metadata>
<g transform="translate(0.000000,67.000000) scale(0.100000,-0.100000)"
fill="#000000" stroke="none">
<path d="M252 659 l-24 -9 4 -62 3 -63 -95 -5 -95 -5 -7 -50 -6 -50 -1 -41 -1
-41 62 1 62 1 15 -27 16 -28 -23 -22 -23 -23 -64 2 -65 1 -6 -24 -6 -24 16
-72 16 -72 17 -18 16 -18 88 0 88 0 5 8 4 7 -7 42 -8 42 11 23 11 23 36 3 36
3 28 -32 27 -33 -5 -20 -4 -21 -8 -17 -7 -18 26 -11 26 -12 77 9 77 9 13 50
13 50 0 40 0 40 -10 15 -9 14 -34 -12 -34 -12 -32 11 -31 11 -10 18 -10 19 0
25 0 24 6 16 6 15 25 -10 24 -9 13 0 13 0 26 24 25 23 7 55 7 55 -16 31 -16
31 -87 28 -88 28 0 29 0 29 -20 8 -20 8 -25 0 -25 0 -23 -10z"/>
</g>
</svg>
