<?xml version="1.0" standalone="no"?>
<!DOCTYPE svg PUBLIC "-//W3C//DTD SVG 20010904//EN"
 "http://www.w3.org/TR/2001/REC-SVG-20010904/DTD/svg10.dtd">
<svg version="1.0" xmlns="http://www.w3.org/2000/svg"
 width="69.000000pt" height="65.000000pt" viewBox="0 0 69.000000 65.000000"
 preserveAspectRatio="xMidYMid meet">
<metadata>
Created by potrace 1.16, written by Peter Selinger 2001-2019
</metadata>
<g transform="translate(0.000000,65.000000) scale(0.100000,-0.100000)"
fill="#000000" stroke="none">
<path d="M218 639 l-18 -10 7 -44 6 -45 -13 -15 -12 -15 -89 0 -89 0 0 -32 0
-33 -6 -66 -7 -66 50 1 50 1 16 -14 17 -13 0 -44 0 -43 -16 -16 -17 -16 -13 5
-14 6 -14 6 -14 6 -10 -19 -10 -18 -3 -75 -4 -75 103 -3 102 -3 0 10 0 10 -10
6 -10 6 0 21 0 20 16 33 16 33 14 6 14 5 25 -9 25 -10 -6 -39 -6 -38 11 -8 12
-7 91 -13 91 -14 9 5 8 5 1 47 1 47 7 30 6 30 50 -3 50 -3 23 24 23 24 6 35 5
36 -21 21 -21 21 -18 0 -17 0 -33 -9 -32 -10 -15 22 -15 21 0 77 0 77 -13 5
-14 5 -59 7 -59 7 -32 10 -33 10 0 16 0 17 10 15 9 15 -16 17 -16 18 -31 0
-31 -1 -17 -10z"/>
</g>
</svg>
