<?xml version="1.0" standalone="no"?>
<!DOCTYPE svg PUBLIC "-//W3C//DTD SVG 20010904//EN"
 "http://www.w3.org/TR/2001/REC-SVG-20010904/DTD/svg10.dtd">
<svg version="1.0" xmlns="http://www.w3.org/2000/svg"
 width="56.000000pt" height="82.000000pt" viewBox="0 0 56.000000 82.000000"
 preserveAspectRatio="xMidYMid meet">
<metadata>
Created by potrace 1.16, written by Peter Selinger 2001-2019
</metadata>
<g transform="translate(0.000000,82.000000) scale(0.100000,-0.100000)"
fill="#000000" stroke="none">
<path d="M223 810 l-21 -9 -7 -20 -6 -21 7 -46 7 -46 -102 7 -101 8 0 -103 0
-102 23 6 22 7 42 6 43 6 15 -13 15 -12 0 -47 0 -47 -14 -20 -14 -19 -39 0
-38 0 -18 -70 -18 -70 -6 -24 -6 -24 94 5 94 4 0 -62 0 -62 19 -21 19 -21 29
0 29 0 20 11 20 10 -2 47 -3 46 29 8 30 8 71 6 72 7 16 56 17 56 -3 60 -3 60
-50 0 -50 0 -23 8 -22 8 -10 18 -9 18 14 20 14 21 44 -5 43 -5 14 16 13 17 1
77 1 77 -8 18 -7 19 -85 -7 -85 -7 -15 12 -14 12 10 24 9 25 0 14 0 13 -17 20
-18 20 -30 6 -30 5 -22 -9z"/>
</g>
</svg>
