<?xml version="1.0" standalone="no"?>
<!DOCTYPE svg PUBLIC "-//W3C//DTD SVG 20010904//EN"
 "http://www.w3.org/TR/2001/REC-SVG-20010904/DTD/svg10.dtd">
<svg version="1.0" xmlns="http://www.w3.org/2000/svg"
 width="54.000000pt" height="80.000000pt" viewBox="0 0 54.000000 80.000000"
 preserveAspectRatio="xMidYMid meet">
<metadata>
Created by potrace 1.16, written by Peter Selinger 2001-2019
</metadata>
<g transform="translate(0.000000,80.000000) scale(0.100000,-0.100000)"
fill="#000000" stroke="none">
<path d="M222 789 l-20 -8 -7 -20 -6 -21 4 -17 5 -18 7 -29 6 -29 -105 7 -106
7 0 -90 0 -91 26 10 25 10 43 0 42 0 12 -12 12 -12 0 -56 0 -56 -16 -22 -16
-23 -36 3 -37 3 -16 -65 -17 -65 -7 -19 -8 -19 95 6 95 5 -1 -63 -1 -63 19
-21 19 -21 22 0 21 0 19 13 18 14 -7 42 -6 42 13 4 12 5 85 14 85 14 6 -4 6
-3 17 57 17 57 -3 50 -3 50 -47 -3 -47 -3 -30 15 -30 16 -6 20 -7 21 17 25 16
25 43 -6 42 -7 14 17 13 16 1 72 0 72 -7 12 -8 13 -87 -6 -87 -7 -14 16 -13
17 11 31 11 32 -14 22 -15 22 -24 5 -24 5 -21 -8z"/>
</g>
</svg>
