<?xml version="1.0" standalone="no"?>
<!DOCTYPE svg PUBLIC "-//W3C//DTD SVG 20010904//EN"
 "http://www.w3.org/TR/2001/REC-SVG-20010904/DTD/svg10.dtd">
<svg version="1.0" xmlns="http://www.w3.org/2000/svg"
 width="70.000000pt" height="71.000000pt" viewBox="0 0 70.000000 71.000000"
 preserveAspectRatio="xMidYMid meet">
<metadata>
Created by potrace 1.16, written by Peter Selinger 2001-2019
</metadata>
<g transform="translate(0.000000,71.000000) scale(0.100000,-0.100000)"
fill="#000000" stroke="none">
<path d="M363 683 l-18 -27 -5 -50 -5 -51 -95 0 -95 0 -3 -81 -3 -81 -47 4
-47 5 -20 -15 -20 -15 0 -59 0 -59 18 -18 18 -18 34 5 34 6 5 -17 5 -17 6 -77
7 -77 54 -7 54 -6 45 6 45 7 15 15 15 15 0 45 0 44 38 0 38 0 23 -16 23 -17
-7 -55 -7 -55 14 -8 13 -9 34 0 35 0 57 12 57 12 7 50 8 51 1 55 1 55 -40 -3
-40 -2 -22 5 -23 5 -15 30 -15 29 0 36 0 35 49 0 50 0 15 22 16 22 0 73 0 72
-42 5 -43 6 -55 3 -55 2 2 25 2 25 -5 23 -5 23 -19 19 -20 20 -25 0 -25 0 -17
-27z"/>
</g>
</svg>
