<?xml version="1.0" standalone="no"?>
<!DOCTYPE svg PUBLIC "-//W3C//DTD SVG 20010904//EN"
 "http://www.w3.org/TR/2001/REC-SVG-20010904/DTD/svg10.dtd">
<svg version="1.0" xmlns="http://www.w3.org/2000/svg"
 width="68.000000pt" height="69.000000pt" viewBox="0 0 68.000000 69.000000"
 preserveAspectRatio="xMidYMid meet">
<metadata>
Created by potrace 1.16, written by Peter Selinger 2001-2019
</metadata>
<g transform="translate(0.000000,69.000000) scale(0.100000,-0.100000)"
fill="#000000" stroke="none">
<path d="M359 658 l-20 -33 3 -43 3 -43 -20 -5 -20 -4 -80 2 -80 3 -3 -86 -3
-87 -33 10 -34 11 -26 -7 -27 -7 -10 -27 -11 -27 6 -33 5 -32 16 -17 17 -17
29 11 29 11 9 -16 9 -17 7 -82 7 -81 49 -7 49 -7 40 7 40 7 15 15 15 14 0 45
0 44 48 0 48 0 23 -16 24 -17 -7 -58 -6 -59 27 -6 27 -7 50 12 51 12 18 2 18
1 -3 16 -2 15 13 55 13 55 -3 25 -4 25 -42 -3 -42 -4 -21 7 -20 6 -15 29 -15
29 0 46 0 45 13 1 12 1 36 -2 37 -1 16 23 16 22 0 62 0 62 -31 6 -31 6 -63 0
-63 0 -11 14 -12 15 11 20 11 21 -15 29 -15 29 -16 6 -17 6 -9 0 -9 0 -21 -32z"/>
</g>
</svg>
