<?xml version="1.0" standalone="no"?>
<!DOCTYPE svg PUBLIC "-//W3C//DTD SVG 20010904//EN"
 "http://www.w3.org/TR/2001/REC-SVG-20010904/DTD/svg10.dtd">
<svg version="1.0" xmlns="http://www.w3.org/2000/svg"
 width="80.000000pt" height="81.000000pt" viewBox="0 0 80.000000 81.000000"
 preserveAspectRatio="xMidYMid meet">
<metadata>
Created by potrace 1.16, written by Peter Selinger 2001-2019
</metadata>
<g transform="translate(0.000000,81.000000) scale(0.100000,-0.100000)"
fill="#000000" stroke="none">
<path d="M341 794 l-23 -16 7 -48 7 -48 -21 -11 -20 -11 -80 0 -81 0 0 -71 0
-70 -10 -20 -11 -19 -32 0 -32 0 -15 10 -15 9 -7 -17 -7 -17 0 -38 -1 -38 25
-24 24 -25 15 0 15 0 26 12 25 11 16 -19 15 -19 -5 -45 -5 -45 -7 -39 -7 -38
94 3 94 4 -3 -62 -4 -61 22 -22 21 -21 27 3 27 3 13 40 14 40 -10 45 -10 45 4
7 5 8 44 0 43 0 61 -19 61 -19 12 21 11 22 16 65 16 65 37 -3 36 -3 16 23 16
22 0 56 0 56 -12 12 -12 12 -42 0 -43 0 -25 -10 -26 -10 0 84 0 84 -14 11 -14
12 -81 14 -82 14 -10 7 -11 7 6 38 6 39 -26 10 -25 10 -12 0 -13 0 -23 -16z"/>
</g>
</svg>
