<?xml version="1.0" standalone="no"?>
<!DOCTYPE svg PUBLIC "-//W3C//DTD SVG 20010904//EN"
 "http://www.w3.org/TR/2001/REC-SVG-20010904/DTD/svg10.dtd">
<svg version="1.0" xmlns="http://www.w3.org/2000/svg"
 width="82.000000pt" height="83.000000pt" viewBox="0 0 82.000000 83.000000"
 preserveAspectRatio="xMidYMid meet">
<metadata>
Created by potrace 1.16, written by Peter Selinger 2001-2019
</metadata>
<g transform="translate(0.000000,83.000000) scale(0.100000,-0.100000)"
fill="#000000" stroke="none">
<path d="M341 814 l-23 -17 5 -48 6 -49 -19 -10 -19 -10 -80 0 -81 0 0 -73 0
-73 -13 -19 -14 -18 -24 6 -24 5 -21 7 -21 7 -6 -24 -7 -23 0 -43 0 -43 25
-24 24 -25 26 0 26 0 18 10 18 9 13 -23 12 -24 -11 -51 -11 -52 0 -25 0 -26
90 4 90 3 0 -62 0 -63 21 -21 20 -20 37 3 37 3 12 35 13 35 -6 58 -5 57 34 0
35 0 68 -21 68 -21 13 18 13 18 10 41 10 40 8 30 8 30 36 -3 36 -3 16 23 16
22 0 67 0 67 -15 12 -15 12 -65 -4 -65 -4 0 77 0 77 -14 11 -14 12 -81 14 -82
14 -9 6 -10 6 6 39 6 40 -26 10 -27 10 -22 0 -23 0 -23 -16z"/>
</g>
</svg>
