<?xml version="1.0" standalone="no"?>
<!DOCTYPE svg PUBLIC "-//W3C//DTD SVG 20010904//EN"
 "http://www.w3.org/TR/2001/REC-SVG-20010904/DTD/svg10.dtd">
<svg version="1.0" xmlns="http://www.w3.org/2000/svg"
 width="73.000000pt" height="70.000000pt" viewBox="0 0 73.000000 70.000000"
 preserveAspectRatio="xMidYMid meet">
<metadata>
Created by potrace 1.16, written by Peter Selinger 2001-2019
</metadata>
<g transform="translate(0.000000,70.000000) scale(0.100000,-0.100000)"
fill="#000000" stroke="none">
<path d="M235 690 l-7 -11 7 -48 7 -49 -23 -16 -23 -16 -77 0 -77 0 -7 -79 -7
-79 7 -31 7 -31 8 0 9 0 27 10 27 11 33 -11 33 -11 6 -20 6 -19 -6 -20 -6 -20
-27 -7 -26 -6 -54 11 -55 12 -8 -6 -9 -5 0 -48 0 -47 15 -52 15 -51 16 -16 15
-15 74 0 74 0 27 12 26 12 -6 53 -6 53 26 6 26 7 21 -21 20 -21 1 -52 1 -53
29 -7 29 -8 83 11 84 11 0 66 0 66 7 24 6 23 38 -6 38 -6 25 10 25 9 8 28 7
28 -1 38 0 38 -21 20 -21 19 -16 0 -16 0 -21 -11 -20 -11 -17 16 -16 17 -5 77
-5 77 -100 3 -99 3 -7 11 -7 11 5 38 6 39 -17 25 -16 25 -45 0 -44 0 -6 -10z"/>
</g>
</svg>
