<?xml version="1.0" standalone="no"?>
<!DOCTYPE svg PUBLIC "-//W3C//DTD SVG 20010904//EN"
 "http://www.w3.org/TR/2001/REC-SVG-20010904/DTD/svg10.dtd">
<svg version="1.0" xmlns="http://www.w3.org/2000/svg"
 width="71.000000pt" height="68.000000pt" viewBox="0 0 71.000000 68.000000"
 preserveAspectRatio="xMidYMid meet">
<metadata>
Created by potrace 1.16, written by Peter Selinger 2001-2019
</metadata>
<g transform="translate(0.000000,68.000000) scale(0.100000,-0.100000)"
fill="#000000" stroke="none">
<path d="M237 673 l-7 -6 6 -52 6 -52 -23 -17 -23 -16 -77 0 -77 0 -6 -73 -7
-73 6 -26 7 -27 26 10 27 10 32 -6 32 -6 16 -15 15 -15 0 -29 0 -29 -17 -17
-17 -16 -60 5 -61 5 -15 3 -15 4 -3 -38 -3 -38 15 -54 16 -54 16 -15 15 -16
64 0 64 0 26 12 25 11 0 18 0 18 -10 25 -9 25 15 16 15 15 28 0 28 0 19 -21
19 -21 0 -51 0 -51 25 -6 25 -7 77 10 76 9 4 84 3 83 10 10 11 11 33 -10 32
-9 24 9 23 9 7 21 7 22 0 35 0 35 -21 19 -21 20 -35 -12 -35 -13 -18 17 -17
18 -5 77 -5 77 -100 3 -99 3 -8 12 -8 12 6 38 6 38 -16 24 -16 25 -34 0 -33 0
-6 -7z"/>
</g>
</svg>
