<?xml version="1.0" standalone="no"?>
<!DOCTYPE svg PUBLIC "-//W3C//DTD SVG 20010904//EN"
 "http://www.w3.org/TR/2001/REC-SVG-20010904/DTD/svg10.dtd">
<svg version="1.0" xmlns="http://www.w3.org/2000/svg"
 width="83.000000pt" height="80.000000pt" viewBox="0 0 83.000000 80.000000"
 preserveAspectRatio="xMidYMid meet">
<metadata>
Created by potrace 1.16, written by Peter Selinger 2001-2019
</metadata>
<g transform="translate(0.000000,80.000000) scale(0.100000,-0.100000)"
fill="#000000" stroke="none">
<path d="M377 782 l-17 -19 0 -22 0 -22 11 -21 11 -21 -13 -8 -14 -9 -100 2
-100 3 -7 -75 -6 -74 -21 -17 -21 -17 -36 11 -36 11 -14 -19 -14 -19 0 -28 0
-28 22 -26 23 -25 45 3 45 3 3 -95 3 -94 12 -8 12 -8 58 0 58 0 29 -15 29 -15
6 -21 7 -20 -13 -30 -12 -30 11 -11 11 -11 36 -1 37 -1 21 27 20 27 1 48 1 48
-9 17 -8 17 26 7 26 6 71 -16 71 -16 13 0 12 0 -13 52 -14 52 0 43 0 43 38 -6
38 -6 41 11 42 12 16 15 15 15 0 25 0 25 -37 16 -37 15 -53 -4 -53 -5 4 16 5
16 3 80 3 80 -75 0 -75 0 -23 8 -23 9 6 38 6 37 -27 22 -27 21 -17 0 -17 0
-16 -18z"/>
</g>
</svg>
