<?xml version="1.0" standalone="no"?>
<!DOCTYPE svg PUBLIC "-//W3C//DTD SVG 20010904//EN"
 "http://www.w3.org/TR/2001/REC-SVG-20010904/DTD/svg10.dtd">
<svg version="1.0" xmlns="http://www.w3.org/2000/svg"
 width="58.000000pt" height="58.000000pt" viewBox="0 0 58.000000 58.000000"
 preserveAspectRatio="xMidYMid meet">
<metadata>
Created by potrace 1.16, written by Peter Selinger 2001-2019
</metadata>
<g transform="translate(0.000000,58.000000) scale(0.100000,-0.100000)"
fill="#000000" stroke="none">
<path d="M333 572 l-12 -7 2 -65 2 -64 -28 -10 -28 -10 -27 15 -27 15 2 59 2
58 -102 -7 -102 -7 -8 -8 -8 -8 3 -99 3 -99 20 2 20 2 47 7 48 7 15 -13 15
-12 0 -34 0 -33 -12 -7 -11 -7 -41 -1 -40 -1 -28 -99 -28 -98 17 -15 18 -14
69 5 68 5 19 17 19 17 0 50 0 50 46 -6 46 -5 17 -16 16 -17 0 -57 0 -57 45 -3
45 -4 57 12 56 12 16 57 16 57 0 45 0 44 -9 13 -8 14 -65 -7 -65 -7 -28 24
-28 24 7 21 7 20 44 -5 45 -5 24 17 25 16 10 37 11 38 0 65 0 66 -78 12 -77
12 -25 0 -25 0 -12 -8z"/>
</g>
</svg>
