<?xml version="1.0" standalone="no"?>
<!DOCTYPE svg PUBLIC "-//W3C//DTD SVG 20010904//EN"
 "http://www.w3.org/TR/2001/REC-SVG-20010904/DTD/svg10.dtd">
<svg version="1.0" xmlns="http://www.w3.org/2000/svg"
 width="70.000000pt" height="67.000000pt" viewBox="0 0 70.000000 67.000000"
 preserveAspectRatio="xMidYMid meet">
<metadata>
Created by potrace 1.16, written by Peter Selinger 2001-2019
</metadata>
<g transform="translate(0.000000,67.000000) scale(0.100000,-0.100000)"
fill="#000000" stroke="none">
<path d="M487 663 l-6 -9 10 -14 9 -15 0 -26 0 -25 -26 -32 -27 -32 -22 0 -22
0 -19 21 -19 21 0 54 0 54 -56 0 -56 0 -47 -6 -46 -7 0 -67 0 -67 -20 -18 -20
-18 -44 13 -44 12 -11 -6 -10 -6 -7 -46 -7 -46 12 -24 11 -24 42 2 41 3 22
-94 22 -93 14 -9 14 -9 55 -1 55 -1 24 -7 24 -6 11 -17 11 -17 -12 -32 -12
-31 12 -13 13 -12 34 -5 35 -6 31 13 32 13 12 36 11 35 -10 37 -10 37 5 9 5 8
29 0 30 0 51 -19 51 -20 13 5 12 5 7 52 6 52 0 52 0 52 -11 7 -11 6 -39 -12
-38 -13 -31 13 -30 13 -6 23 -6 24 17 26 17 26 31 -7 32 -8 24 -1 25 -1 9 38
9 38 -7 54 -6 53 -17 7 -17 7 -76 5 -76 6 -6 -10z"/>
</g>
</svg>
