<?xml version="1.0" standalone="no"?>
<!DOCTYPE svg PUBLIC "-//W3C//DTD SVG 20010904//EN"
 "http://www.w3.org/TR/2001/REC-SVG-20010904/DTD/svg10.dtd">
<svg version="1.0" xmlns="http://www.w3.org/2000/svg"
 width="72.000000pt" height="69.000000pt" viewBox="0 0 72.000000 69.000000"
 preserveAspectRatio="xMidYMid meet">
<metadata>
Created by potrace 1.16, written by Peter Selinger 2001-2019
</metadata>
<g transform="translate(0.000000,69.000000) scale(0.100000,-0.100000)"
fill="#000000" stroke="none">
<path d="M484 677 l-6 -15 11 -21 11 -20 0 -14 0 -14 -30 -34 -29 -34 -18 11
-18 11 -13 24 -13 24 6 43 6 42 -69 0 -69 0 -47 -6 -46 -7 0 -67 0 -67 -19
-17 -18 -17 -27 11 -27 10 -24 0 -24 0 -6 -10 -6 -11 -6 -53 -5 -53 12 -22 12
-23 41 4 41 3 21 -93 22 -92 7 -7 7 -7 81 -7 81 -7 14 -15 15 -15 -13 -35 -12
-35 14 -14 14 -15 43 -6 42 -7 34 14 34 14 12 36 11 35 -6 46 -7 45 20 0 21 0
56 -21 55 -20 19 6 19 6 7 72 7 72 -4 45 -3 45 -27 3 -27 3 -21 -11 -22 -12
-28 12 -29 12 -6 15 -5 16 15 24 16 24 22 -8 22 -7 35 -1 35 0 9 46 9 46 -7
55 -7 56 -17 7 -17 7 -87 5 -88 6 -6 -16z"/>
</g>
</svg>
