<?xml version="1.0" standalone="no"?>
<!DOCTYPE svg PUBLIC "-//W3C//DTD SVG 20010904//EN"
 "http://www.w3.org/TR/2001/REC-SVG-20010904/DTD/svg10.dtd">
<svg version="1.0" xmlns="http://www.w3.org/2000/svg"
 width="73.000000pt" height="70.000000pt" viewBox="0 0 73.000000 70.000000"
 preserveAspectRatio="xMidYMid meet">
<metadata>
Created by potrace 1.16, written by Peter Selinger 2001-2019
</metadata>
<g transform="translate(0.000000,70.000000) scale(0.100000,-0.100000)"
fill="#000000" stroke="none">
<path d="M392 690 l-23 -10 6 -44 7 -44 -21 -21 -20 -20 -26 -7 -25 -6 -35 6
-35 7 -6 24 -6 24 12 37 12 36 -13 10 -14 9 -79 -5 -78 -4 -11 -11 -10 -10 0
-91 0 -90 19 -21 19 -21 47 5 47 6 7 -10 6 -10 -18 -20 -18 -20 -59 6 -59 7
-9 -13 -9 -14 0 -30 0 -30 12 -77 11 -78 97 0 97 0 6 -6 6 -6 -10 -26 -10 -26
16 -43 17 -43 24 -6 25 -6 40 5 40 5 14 12 15 12 0 33 0 33 53 12 52 12 35 20
36 19 2 72 2 71 6 19 6 18 14 -12 14 -11 34 6 35 7 21 26 20 26 0 56 -1 56
-14 19 -14 18 -71 -4 -70 -4 6 77 7 76 -24 6 -24 6 -55 5 -55 6 -23 -10z"/>
</g>
</svg>
