<?xml version="1.0" standalone="no"?>
<!DOCTYPE svg PUBLIC "-//W3C//DTD SVG 20010904//EN"
 "http://www.w3.org/TR/2001/REC-SVG-20010904/DTD/svg10.dtd">
<svg version="1.0" xmlns="http://www.w3.org/2000/svg"
 width="71.000000pt" height="68.000000pt" viewBox="0 0 71.000000 68.000000"
 preserveAspectRatio="xMidYMid meet">
<metadata>
Created by potrace 1.16, written by Peter Selinger 2001-2019
</metadata>
<g transform="translate(0.000000,68.000000) scale(0.100000,-0.100000)"
fill="#000000" stroke="none">
<path d="M393 670 l-23 -9 6 -30 6 -30 -6 -25 -6 -26 -30 -15 -29 -15 -33 0
-33 0 -23 6 -22 6 -7 26 -6 26 10 38 10 38 -24 6 -25 7 -56 -7 -57 -7 -9 -9
-9 -9 0 -81 0 -81 18 -19 18 -20 19 0 19 0 20 11 20 10 15 -12 14 -11 0 -18 0
-17 -20 -18 -19 -18 -60 7 -60 7 -7 -25 -6 -26 13 -85 12 -85 99 0 99 0 5 -13
5 -14 -10 -24 -9 -25 14 -34 15 -34 12 -8 12 -8 30 0 30 0 25 13 25 13 0 34 0
35 63 17 63 17 27 18 27 18 1 28 0 27 2 48 2 47 10 15 9 14 23 -13 24 -12 26
10 26 10 16 23 16 22 0 46 -1 45 -14 19 -14 19 -72 -6 -71 -6 7 78 7 79 -29 5
-28 6 -40 5 -40 5 -22 -9z"/>
</g>
</svg>
