<?xml version="1.0" standalone="no"?>
<!DOCTYPE svg PUBLIC "-//W3C//DTD SVG 20010904//EN"
 "http://www.w3.org/TR/2001/REC-SVG-20010904/DTD/svg10.dtd">
<svg version="1.0" xmlns="http://www.w3.org/2000/svg"
 width="56.000000pt" height="53.000000pt" viewBox="0 0 56.000000 53.000000"
 preserveAspectRatio="xMidYMid meet">
<metadata>
Created by potrace 1.16, written by Peter Selinger 2001-2019
</metadata>
<g transform="translate(0.000000,53.000000) scale(0.100000,-0.100000)"
fill="#000000" stroke="none">
<path d="M347 524 l-6 -7 5 -41 5 -41 -23 -26 -23 -26 -23 -8 -24 -7 -35 7
-35 6 6 24 6 23 6 16 6 15 -26 26 -25 25 -76 0 -75 0 0 -19 0 -18 -6 -61 -7
-61 72 6 72 6 14 -19 14 -19 1 -45 0 -46 -16 -22 -16 -23 -26 -10 -26 -10 -24
12 -23 13 -8 -13 -8 -13 -6 -71 -6 -71 12 -14 12 -15 67 6 67 6 20 11 21 11 6
25 7 25 -11 24 -11 23 15 6 16 6 29 0 30 0 20 -11 20 -10 -7 -33 -6 -34 13 -8
12 -7 81 -13 80 -13 12 17 13 17 15 56 16 56 -6 16 -5 15 -57 -5 -57 -5 -27
25 -28 26 0 36 0 35 33 21 32 20 39 -3 38 -4 -7 86 -6 85 -4 3 -3 4 -39 9 -38
9 -36 0 -36 0 -6 -6z"/>
</g>
</svg>
