<?xml version="1.0" standalone="no"?>
<!DOCTYPE svg PUBLIC "-//W3C//DTD SVG 20010904//EN"
 "http://www.w3.org/TR/2001/REC-SVG-20010904/DTD/svg10.dtd">
<svg version="1.0" xmlns="http://www.w3.org/2000/svg"
 width="58.000000pt" height="55.000000pt" viewBox="0 0 58.000000 55.000000"
 preserveAspectRatio="xMidYMid meet">
<metadata>
Created by potrace 1.16, written by Peter Selinger 2001-2019
</metadata>
<g transform="translate(0.000000,55.000000) scale(0.100000,-0.100000)"
fill="#000000" stroke="none">
<path d="M345 540 l-7 -11 6 -37 7 -37 -23 -26 -23 -26 -22 -7 -21 -7 -26 7
-25 6 10 25 9 24 0 15 0 15 -25 24 -24 25 -84 0 -84 0 -7 -61 -6 -62 0 -29 0
-29 70 7 71 7 14 -19 14 -19 1 -36 0 -36 -20 -25 -20 -26 -20 -5 -20 -5 -6 9
-5 9 -24 0 -25 0 -4 -22 -5 -23 -6 -68 -7 -68 12 -14 12 -15 52 0 51 0 40 10
39 9 14 18 13 18 -3 40 -3 40 27 3 27 3 19 -10 18 -10 -4 -34 -4 -35 13 -7 12
-8 76 -13 76 -13 20 -6 20 -6 24 84 23 84 -7 22 -7 22 -56 -7 -57 -6 -27 26
-28 25 0 26 0 25 33 21 32 20 39 -6 39 -6 -7 98 -7 97 -4 4 -3 4 -39 9 -38 9
-47 0 -47 0 -6 -10z"/>
</g>
</svg>
