<?xml version="1.0" standalone="no"?>
<!DOCTYPE svg PUBLIC "-//W3C//DTD SVG 20010904//EN"
 "http://www.w3.org/TR/2001/REC-SVG-20010904/DTD/svg10.dtd">
<svg version="1.0" xmlns="http://www.w3.org/2000/svg"
 width="68.000000pt" height="68.000000pt" viewBox="0 0 68.000000 68.000000"
 preserveAspectRatio="xMidYMid meet">
<metadata>
Created by potrace 1.16, written by Peter Selinger 2001-2019
</metadata>
<g transform="translate(0.000000,68.000000) scale(0.100000,-0.100000)"
fill="#000000" stroke="none">
<path d="M317 674 l-7 -8 6 -46 6 -47 -16 -31 -17 -32 -19 0 -19 0 -16 17 -17
16 6 31 5 31 7 22 6 21 -22 12 -23 12 -94 -7 -94 -7 3 -91 3 -92 54 0 55 0 14
-37 14 -36 -14 -29 -14 -28 -44 3 -43 3 -9 -13 -8 -13 0 -72 0 -73 -10 0 -10
0 0 -20 0 -20 78 0 78 0 18 -13 18 -13 -13 -42 -12 -41 13 -16 12 -15 59 0 59
0 16 25 16 25 -4 60 -4 60 28 0 29 0 65 -16 65 -17 6 6 5 6 -16 85 -17 84 12
20 13 21 19 -11 20 -10 34 5 35 6 24 16 24 15 0 30 0 30 -25 16 -25 17 -50 -5
-50 -5 0 98 0 98 -10 6 -11 7 -92 5 -92 5 -8 -8z"/>
</g>
</svg>
