<?xml version="1.0" standalone="no"?>
<!DOCTYPE svg PUBLIC "-//W3C//DTD SVG 20010904//EN"
 "http://www.w3.org/TR/2001/REC-SVG-20010904/DTD/svg10.dtd">
<svg version="1.0" xmlns="http://www.w3.org/2000/svg"
 width="72.000000pt" height="52.000000pt" viewBox="0 0 72.000000 52.000000"
 preserveAspectRatio="xMidYMid meet">
<metadata>
Created by potrace 1.16, written by Peter Selinger 2001-2019
</metadata>
<g transform="translate(0.000000,52.000000) scale(0.100000,-0.100000)"
fill="#000000" stroke="none">
<path d="M219 513 l-46 -4 -5 -74 -5 -74 -17 -25 -16 -26 -27 -6 -27 -7 -28
11 -28 10 -10 -18 -10 -19 0 -20 0 -20 28 -21 27 -22 66 6 67 6 6 -16 6 -16 0
-32 0 -33 -15 -48 -14 -48 5 -9 5 -8 88 0 87 0 18 13 17 13 -12 48 -12 49 18
13 17 13 32 -6 31 -6 14 -13 14 -13 -12 -42 -13 -41 12 -12 11 -11 94 -1 93
-2 22 50 21 49 -3 47 -3 47 -81 -3 -81 -4 -16 17 -17 16 -1 22 -1 22 2 20 2
20 10 12 9 12 34 -6 34 -5 24 6 25 6 11 31 11 32 0 59 0 58 -22 -5 -23 -5 -64
-10 -64 -9 -10 -10 -10 -10 12 -15 13 -15 -6 -18 -6 -19 -29 -17 -29 -17 -24
0 -24 0 -22 20 -22 21 0 29 0 29 9 24 10 25 -15 6 -16 6 -36 -2 -37 -2 -46 -3z"/>
</g>
</svg>
