<?xml version="1.0" standalone="no"?>
<!DOCTYPE svg PUBLIC "-//W3C//DTD SVG 20010904//EN"
 "http://www.w3.org/TR/2001/REC-SVG-20010904/DTD/svg10.dtd">
<svg version="1.0" xmlns="http://www.w3.org/2000/svg"
 width="74.000000pt" height="54.000000pt" viewBox="0 0 74.000000 54.000000"
 preserveAspectRatio="xMidYMid meet">
<metadata>
Created by potrace 1.16, written by Peter Selinger 2001-2019
</metadata>
<g transform="translate(0.000000,54.000000) scale(0.100000,-0.100000)"
fill="#000000" stroke="none">
<path d="M218 533 l-48 -4 0 -52 0 -52 -11 -38 -10 -37 -25 -17 -26 -16 -36
13 -35 13 -14 -19 -13 -18 0 -32 0 -33 28 -21 27 -22 68 5 67 4 7 -26 6 -25
-17 -68 -18 -67 7 -11 6 -10 98 0 97 0 19 14 19 14 -11 48 -11 49 4 7 5 8 33
0 34 0 10 -13 10 -12 -11 -43 -11 -42 12 -12 13 -13 103 -3 103 -4 22 52 22
51 -3 57 -3 57 -81 -3 -81 -3 -17 17 -17 16 3 37 3 36 45 3 45 2 22 5 21 5 11
31 11 32 0 68 0 69 -7 0 -8 0 -88 -15 -87 -14 -10 -6 -10 -6 0 -19 0 -19 10
-6 9 -6 -5 -13 -5 -13 -34 -19 -34 -18 -26 14 -26 14 -5 22 -6 23 12 37 12 36
-13 9 -14 9 -50 -2 -50 -2 -47 -3z"/>
</g>
</svg>
