<?xml version="1.0" standalone="no"?>
<!DOCTYPE svg PUBLIC "-//W3C//DTD SVG 20010904//EN"
 "http://www.w3.org/TR/2001/REC-SVG-20010904/DTD/svg10.dtd">
<svg version="1.0" xmlns="http://www.w3.org/2000/svg"
 width="65.000000pt" height="65.000000pt" viewBox="0 0 65.000000 65.000000"
 preserveAspectRatio="xMidYMid meet">
<metadata>
Created by potrace 1.16, written by Peter Selinger 2001-2019
</metadata>
<g transform="translate(0.000000,65.000000) scale(0.100000,-0.100000)"
fill="#000000" stroke="none">
<path d="M206 637 l-17 -12 3 -55 3 -55 -98 -3 -98 -3 3 -87 3 -87 45 3 46 3
19 -21 19 -21 0 -34 0 -35 -19 -15 -20 -15 -45 2 -45 3 -3 -90 -3 -90 17 -12
18 -13 78 0 78 0 -6 58 -6 58 15 12 16 13 43 -3 43 -3 -2 -20 -3 -20 9 -13 8
-13 79 -20 79 -21 14 -8 15 -8 13 13 13 14 0 64 0 65 6 16 6 16 39 -6 39 -7
15 13 14 12 7 32 6 33 -16 37 -16 38 -52 -4 -53 -3 -3 86 -3 87 -62 16 -62 16
-44 11 -43 10 5 34 5 33 -15 6 -15 6 -27 0 -27 0 -18 -13z"/>
</g>
</svg>
