<?xml version="1.0" standalone="no"?>
<!DOCTYPE svg PUBLIC "-//W3C//DTD SVG 20010904//EN"
 "http://www.w3.org/TR/2001/REC-SVG-20010904/DTD/svg10.dtd">
<svg version="1.0" xmlns="http://www.w3.org/2000/svg"
 width="67.000000pt" height="77.000000pt" viewBox="0 0 67.000000 77.000000"
 preserveAspectRatio="xMidYMid meet">
<metadata>
Created by potrace 1.16, written by Peter Selinger 2001-2019
</metadata>
<g transform="translate(0.000000,77.000000) scale(0.100000,-0.100000)"
fill="#000000" stroke="none">
<path d="M364 764 l-12 -5 11 -29 11 -29 -12 -25 -12 -26 -26 -10 -25 -10 -77
0 -77 0 -1 -68 0 -67 -11 -20 -11 -21 -25 -13 -25 -14 -30 11 -30 10 -6 -15
-6 -15 0 -24 0 -25 10 -19 10 -18 31 -11 32 -11 34 12 34 12 10 -14 10 -15 -5
-60 -6 -60 -6 -27 -6 -28 99 0 100 0 -11 -51 -10 -51 19 -14 19 -14 32 0 32 0
12 15 13 16 -11 24 -11 25 17 9 17 9 70 7 70 8 24 8 23 9 -7 18 -8 17 -27 90
-26 90 -40 0 -39 0 -3 27 -3 27 11 20 10 20 39 12 39 12 31 -11 31 -11 4 7 3
7 -5 83 -5 84 -26 -5 -26 -5 -57 -12 -57 -12 -25 6 -26 6 0 18 0 18 12 12 11
11 -17 46 -18 45 -18 10 -19 10 -8 -1 -8 -1 -11 -4z"/>
</g>
</svg>
