<?xml version="1.0" standalone="no"?>
<!DOCTYPE svg PUBLIC "-//W3C//DTD SVG 20010904//EN"
 "http://www.w3.org/TR/2001/REC-SVG-20010904/DTD/svg10.dtd">
<svg version="1.0" xmlns="http://www.w3.org/2000/svg"
 width="68.000000pt" height="80.000000pt" viewBox="0 0 68.000000 80.000000"
 preserveAspectRatio="xMidYMid meet">
<metadata>
Created by potrace 1.16, written by Peter Selinger 2001-2019
</metadata>
<g transform="translate(0.000000,80.000000) scale(0.100000,-0.100000)"
fill="#000000" stroke="none">
<path d="M348 770 l-30 -30 4 -42 3 -43 -87 3 -87 4 5 -59 5 -58 4 -32 4 -32
-42 5 -43 6 -36 -15 -37 -16 -6 -24 -7 -25 4 -28 3 -29 40 0 40 0 17 -65 17
-65 16 -41 16 -42 85 -4 85 -4 15 -16 15 -15 -12 -26 -12 -26 17 -26 16 -25
46 0 45 0 16 15 15 16 -4 29 -4 29 13 6 14 5 90 12 89 12 -2 265 -3 266 -75 3
-75 2 -22 5 -23 5 6 44 6 44 -21 21 -21 21 -36 0 -36 0 -30 -30z"/>
</g>
</svg>
