<?xml version="1.0" standalone="no"?>
<!DOCTYPE svg PUBLIC "-//W3C//DTD SVG 20010904//EN"
 "http://www.w3.org/TR/2001/REC-SVG-20010904/DTD/svg10.dtd">
<svg version="1.0" xmlns="http://www.w3.org/2000/svg"
 width="66.000000pt" height="66.000000pt" viewBox="0 0 66.000000 66.000000"
 preserveAspectRatio="xMidYMid meet">
<metadata>
Created by potrace 1.16, written by Peter Selinger 2001-2019
</metadata>
<g transform="translate(0.000000,66.000000) scale(0.100000,-0.100000)"
fill="#000000" stroke="none">
<path d="M210 645 l-13 -15 6 -37 6 -37 -11 -13 -10 -13 -94 0 -94 0 0 -75 0
-76 15 -36 15 -36 55 7 54 6 12 -21 11 -22 -11 -24 -11 -25 -40 7 -40 7 -9
-24 -9 -23 -17 -88 -18 -88 11 -11 10 -10 68 7 67 7 23 23 24 24 0 51 0 51 42
-3 42 -3 0 -45 1 -45 105 -27 105 -27 12 0 12 -1 3 97 3 98 35 -3 36 -3 27 21
27 21 0 48 0 47 -13 19 -14 18 -41 -7 -41 -6 -7 12 -8 13 -6 70 -5 70 -20 -2
-20 -1 -73 -16 -73 -16 -18 10 -19 10 11 30 11 30 -14 42 -15 43 -36 3 -36 3
-13 -16z"/>
</g>
</svg>
