<?xml version="1.0" standalone="no"?>
<!DOCTYPE svg PUBLIC "-//W3C//DTD SVG 20010904//EN"
 "http://www.w3.org/TR/2001/REC-SVG-20010904/DTD/svg10.dtd">
<svg version="1.0" xmlns="http://www.w3.org/2000/svg"
 width="84.000000pt" height="66.000000pt" viewBox="0 0 84.000000 66.000000"
 preserveAspectRatio="xMidYMid meet">
<metadata>
Created by potrace 1.16, written by Peter Selinger 2001-2019
</metadata>
<g transform="translate(0.000000,66.000000) scale(0.100000,-0.100000)"
fill="#000000" stroke="none">
<path d="M145 560 l7 -101 -51 7 -51 7 -25 -17 -25 -16 0 -40 0 -40 25 -16 26
-17 60 6 60 7 6 -17 6 -16 -12 -56 -13 -56 -5 -34 -6 -34 92 6 91 7 0 -55 0
-55 25 -16 25 -16 44 6 44 7 18 21 19 20 -2 59 -2 59 19 0 19 0 56 -21 56 -21
14 19 14 18 1 50 0 50 6 22 6 23 24 -6 24 -6 25 6 24 6 26 24 25 23 0 42 0 41
-20 20 -20 20 -65 0 -65 0 -1 23 0 22 -2 65 -2 65 -264 3 -264 2 8 -100z"/>
</g>
</svg>
