<?xml version="1.0" standalone="no"?>
<!DOCTYPE svg PUBLIC "-//W3C//DTD SVG 20010904//EN"
 "http://www.w3.org/TR/2001/REC-SVG-20010904/DTD/svg10.dtd">
<svg version="1.0" xmlns="http://www.w3.org/2000/svg"
 width="81.000000pt" height="58.000000pt" viewBox="0 0 81.000000 58.000000"
 preserveAspectRatio="xMidYMid meet">
<metadata>
Created by potrace 1.16, written by Peter Selinger 2001-2019
</metadata>
<g transform="translate(0.000000,58.000000) scale(0.100000,-0.100000)"
fill="#000000" stroke="none">
<path d="M445 570 l-6 -10 12 -39 12 -39 -7 -26 -7 -27 -23 -10 -24 -11 -18
10 -19 11 0 47 0 48 -25 13 -25 13 -82 0 -83 0 0 -79 0 -79 -18 -23 -19 -22
-46 12 -45 13 -11 -7 -11 -6 0 -55 0 -54 21 -21 21 -21 34 5 34 6 9 -17 9 -17
7 -67 7 -67 12 -15 11 -16 99 -6 99 -7 -6 50 -6 50 15 22 15 21 18 0 18 0 11
-25 12 -25 -6 -45 -7 -44 28 -7 27 -7 72 7 71 6 22 6 21 6 6 23 6 22 10 73 10
73 11 13 10 12 29 -11 28 -11 16 13 16 13 0 42 0 41 -9 14 -9 13 -38 -6 -39
-7 -20 15 -20 14 -3 95 -4 94 -63 11 -62 12 -46 0 -46 0 -6 -10z"/>
</g>
</svg>
