<?xml version="1.0" standalone="no"?>
<!DOCTYPE svg PUBLIC "-//W3C//DTD SVG 20010904//EN"
 "http://www.w3.org/TR/2001/REC-SVG-20010904/DTD/svg10.dtd">
<svg version="1.0" xmlns="http://www.w3.org/2000/svg"
 width="79.000000pt" height="56.000000pt" viewBox="0 0 79.000000 56.000000"
 preserveAspectRatio="xMidYMid meet">
<metadata>
Created by potrace 1.16, written by Peter Selinger 2001-2019
</metadata>
<g transform="translate(0.000000,56.000000) scale(0.100000,-0.100000)"
fill="#000000" stroke="none">
<path d="M447 554 l-6 -6 10 -25 9 -24 0 -35 0 -34 -20 -20 -20 -20 -21 0 -20
0 -20 11 -20 10 3 47 3 46 -25 13 -25 13 -72 0 -73 0 0 -78 0 -78 -16 -23 -17
-23 -36 6 -36 5 -20 3 -20 3 -3 -47 -3 -47 21 -21 21 -21 34 7 33 6 10 -19 10
-18 7 -67 7 -67 12 -15 11 -15 89 -7 89 -7 -7 47 -7 47 15 23 15 23 19 5 20 6
9 -7 10 -6 12 -24 13 -23 -7 -44 -6 -43 26 -7 27 -7 59 7 60 6 24 6 24 6 10
51 10 52 6 47 6 46 15 13 15 12 25 -12 26 -12 14 12 14 11 0 28 0 28 -6 16 -6
15 -41 -5 -42 -6 -20 15 -20 15 -3 95 -4 94 -63 11 -62 12 -35 0 -35 0 -6 -6z"/>
</g>
</svg>
