<?xml version="1.0" standalone="no"?>
<!DOCTYPE svg PUBLIC "-//W3C//DTD SVG 20010904//EN"
 "http://www.w3.org/TR/2001/REC-SVG-20010904/DTD/svg10.dtd">
<svg version="1.0" xmlns="http://www.w3.org/2000/svg"
 width="60.000000pt" height="79.000000pt" viewBox="0 0 60.000000 79.000000"
 preserveAspectRatio="xMidYMid meet">
<metadata>
Created by potrace 1.16, written by Peter Selinger 2001-2019
</metadata>
<g transform="translate(0.000000,79.000000) scale(0.100000,-0.100000)"
fill="#000000" stroke="none">
<path d="M229 769 l-21 -21 7 -55 7 -56 -106 8 -106 7 0 -49 0 -48 -6 -50 -6
-50 14 -19 15 -19 36 14 37 13 27 -20 27 -20 4 -12 3 -11 -33 -20 -32 -21 -10
10 -10 10 -22 0 -22 0 -10 -12 -10 -13 -2 -100 -2 -100 1 -13 1 -13 32 5 33 5
53 6 52 6 0 -36 0 -37 29 -29 29 -29 44 0 44 0 18 13 18 13 -3 48 -4 47 23 6
24 6 51 -6 52 -6 21 -6 21 -7 20 44 21 43 7 44 7 43 -13 25 -13 25 -51 -7 -51
-6 -34 23 -35 24 -3 26 -3 25 17 18 18 17 57 -5 56 -5 11 7 11 7 -6 93 -6 93
-24 9 -24 9 -66 10 -67 11 -12 10 -12 10 5 38 5 38 -23 6 -24 7 -32 0 -33 0
-21 -21z"/>
</g>
</svg>
