<?xml version="1.0" standalone="no"?>
<!DOCTYPE svg PUBLIC "-//W3C//DTD SVG 20010904//EN"
 "http://www.w3.org/TR/2001/REC-SVG-20010904/DTD/svg10.dtd">
<svg version="1.0" xmlns="http://www.w3.org/2000/svg"
 width="70.000000pt" height="66.000000pt" viewBox="0 0 70.000000 66.000000"
 preserveAspectRatio="xMidYMid meet">
<metadata>
Created by potrace 1.16, written by Peter Selinger 2001-2019
</metadata>
<g transform="translate(0.000000,66.000000) scale(0.100000,-0.100000)"
fill="#000000" stroke="none">
<path d="M380 643 l-22 -16 6 -59 7 -60 -108 3 -108 4 -7 -59 -8 -59 -15 -23
-15 -24 -15 0 -15 0 -20 12 -20 12 -11 -11 -11 -11 -8 -43 -8 -44 13 -26 14
-26 37 -18 36 -17 22 5 21 4 15 4 15 4 -1 -56 -1 -56 -17 -33 -16 -33 0 -4 0
-4 103 3 102 3 0 45 0 45 8 13 8 12 33 0 34 0 13 -16 13 -15 -13 -35 -13 -35
19 -14 18 -14 40 -1 40 0 67 6 67 7 -4 7 -4 7 15 74 15 74 -6 34 -6 33 -42 -7
-42 -8 -24 1 -23 0 -15 15 -16 15 7 36 7 36 24 6 25 6 27 -9 28 -10 13 4 12 5
0 91 0 92 -110 -3 -110 -4 -6 17 -7 16 13 23 12 23 -16 30 -15 31 -14 5 -15 5
-22 -15z"/>
</g>
</svg>
