<?xml version="1.0" standalone="no"?>
<!DOCTYPE svg PUBLIC "-//W3C//DTD SVG 20010904//EN"
 "http://www.w3.org/TR/2001/REC-SVG-20010904/DTD/svg10.dtd">
<svg version="1.0" xmlns="http://www.w3.org/2000/svg"
 width="69.000000pt" height="82.000000pt" viewBox="0 0 69.000000 82.000000"
 preserveAspectRatio="xMidYMid meet">
<metadata>
Created by potrace 1.16, written by Peter Selinger 2001-2019
</metadata>
<g transform="translate(0.000000,82.000000) scale(0.100000,-0.100000)"
fill="#000000" stroke="none">
<path d="M223 804 l-6 -15 6 -44 7 -45 -23 -11 -22 -12 -83 -1 -83 -1 -10 -17
-10 -18 3 -82 3 -83 53 0 54 0 14 -19 14 -20 0 -33 0 -34 -17 -5 -18 -5 -14
-8 -14 -7 -29 -83 -29 -83 5 -15 6 -14 80 7 80 7 0 -47 0 -47 15 -28 14 -29
16 -6 17 -6 33 0 33 0 12 15 12 15 -4 40 -4 40 16 4 15 5 93 15 92 16 6 0 6 0
-7 31 -7 31 7 55 7 55 30 -6 30 -6 23 6 22 6 12 24 11 25 0 40 0 40 -11 20
-10 20 -57 -2 -56 -3 -7 25 -6 24 5 75 5 75 -74 19 -74 18 -28 10 -28 11 7 30
6 29 -13 9 -14 9 -53 0 -53 0 -6 -16z"/>
</g>
</svg>
