<?xml version="1.0" standalone="no"?>
<!DOCTYPE svg PUBLIC "-//W3C//DTD SVG 20010904//EN"
 "http://www.w3.org/TR/2001/REC-SVG-20010904/DTD/svg10.dtd">
<svg version="1.0" xmlns="http://www.w3.org/2000/svg"
 width="64.000000pt" height="64.000000pt" viewBox="0 0 64.000000 64.000000"
 preserveAspectRatio="xMidYMid meet">
<metadata>
Created by potrace 1.16, written by Peter Selinger 2001-2019
</metadata>
<g transform="translate(0.000000,64.000000) scale(0.100000,-0.100000)"
fill="#000000" stroke="none">
<path d="M354 634 l-11 -5 4 -43 5 -43 -23 -17 -23 -16 -83 0 -83 0 0 -83 0
-83 -16 -23 -17 -23 -53 4 -54 5 0 -38 0 -37 32 -27 32 -27 46 5 45 5 13 -5
12 -5 0 -44 0 -45 -15 -36 -15 -35 0 -9 0 -9 68 0 67 0 25 13 25 13 -3 49 -2
48 16 19 17 18 32 0 33 0 12 -15 12 -15 -11 -31 -11 -31 10 -18 10 -18 27 -6
28 -5 63 -6 62 -7 0 9 0 8 -14 74 -14 73 -10 10 -10 10 -21 -11 -21 -12 -20
11 -20 10 -10 20 -10 19 0 33 1 33 14 19 14 19 23 -6 23 -5 22 -7 21 -7 21 21
21 21 0 75 0 75 -4 0 -3 0 -43 -15 -43 -15 -42 0 -43 0 -11 14 -12 14 12 25
12 26 -7 26 -7 26 -19 19 -20 20 -22 -1 -23 -1 -11 -4z"/>
</g>
</svg>
