<?xml version="1.0" standalone="no"?>
<!DOCTYPE svg PUBLIC "-//W3C//DTD SVG 20010904//EN"
 "http://www.w3.org/TR/2001/REC-SVG-20010904/DTD/svg10.dtd">
<svg version="1.0" xmlns="http://www.w3.org/2000/svg"
 width="58.000000pt" height="67.000000pt" viewBox="0 0 58.000000 67.000000"
 preserveAspectRatio="xMidYMid meet">
<metadata>
Created by potrace 1.16, written by Peter Selinger 2001-2019
</metadata>
<g transform="translate(0.000000,67.000000) scale(0.100000,-0.100000)"
fill="#000000" stroke="none">
<path d="M224 655 l-6 -15 6 -25 7 -25 -27 -25 -27 -25 -73 0 -72 0 -16 -6
-16 -6 0 -87 0 -87 14 -19 13 -18 52 6 52 6 20 -20 21 -21 -7 -26 -7 -27 -10
-12 -10 -12 -43 6 -43 5 -10 -18 -10 -19 -12 -88 -13 -87 4 -3 4 -3 100 5 100
6 -3 71 -3 72 32 11 31 11 18 -10 18 -9 5 -14 5 -14 -9 -14 -9 -14 0 -22 0
-22 10 -6 11 -7 82 -13 82 -14 31 -6 32 -7 11 53 12 54 6 57 6 58 -14 16 -13
16 -48 -6 -48 -7 -31 16 -31 16 6 15 6 16 0 6 0 7 47 -3 48 -3 20 15 20 14 3
96 4 96 -99 0 -99 0 -11 11 -11 11 5 38 5 37 -23 17 -23 16 -34 0 -33 0 -5
-15z"/>
</g>
</svg>
