<?xml version="1.0" standalone="no"?>
<!DOCTYPE svg PUBLIC "-//W3C//DTD SVG 20010904//EN"
 "http://www.w3.org/TR/2001/REC-SVG-20010904/DTD/svg10.dtd">
<svg version="1.0" xmlns="http://www.w3.org/2000/svg"
 width="67.000000pt" height="84.000000pt" viewBox="0 0 67.000000 84.000000"
 preserveAspectRatio="xMidYMid meet">
<metadata>
Created by potrace 1.16, written by Peter Selinger 2001-2019
</metadata>
<g transform="translate(0.000000,84.000000) scale(0.100000,-0.100000)"
fill="#000000" stroke="none">
<path d="M323 814 l-25 -25 6 -40 6 -40 3 -12 2 -12 -93 3 -92 3 2 -108 3
-107 -53 3 -53 3 -15 -12 -14 -12 0 -28 0 -29 27 -21 27 -21 46 1 45 2 13 -1
12 -1 0 -28 0 -29 -15 -49 -15 -49 0 -22 0 -23 83 0 82 0 15 -10 15 -10 0 -67
0 -68 60 -3 60 -3 20 15 20 14 0 53 0 54 83 11 84 12 5 6 6 5 -13 31 -12 30
-17 77 -16 78 -45 1 -45 0 -3 35 -3 34 14 20 15 19 45 -3 46 -2 9 18 9 18 7
47 7 47 -6 35 -7 35 -57 11 -56 12 -35 7 -35 7 3 41 3 41 -23 16 -22 16 -44 0
-43 0 -26 -26z"/>
</g>
</svg>
