<?xml version="1.0" standalone="no"?>
<!DOCTYPE svg PUBLIC "-//W3C//DTD SVG 20010904//EN"
 "http://www.w3.org/TR/2001/REC-SVG-20010904/DTD/svg10.dtd">
<svg version="1.0" xmlns="http://www.w3.org/2000/svg"
 width="65.000000pt" height="82.000000pt" viewBox="0 0 65.000000 82.000000"
 preserveAspectRatio="xMidYMid meet">
<metadata>
Created by potrace 1.16, written by Peter Selinger 2001-2019
</metadata>
<g transform="translate(0.000000,82.000000) scale(0.100000,-0.100000)"
fill="#000000" stroke="none">
<path d="M324 795 l-25 -26 7 -32 7 -32 1 -20 1 -20 -92 2 -92 2 2 -107 2
-107 -53 3 -53 4 -14 -12 -15 -12 0 -18 0 -19 28 -21 27 -22 45 5 45 5 13 -5
12 -5 0 -37 0 -38 -15 -49 -15 -49 0 -12 0 -13 83 0 83 0 19 -14 18 -13 -2
-29 -2 -29 -2 -35 -2 -35 39 -3 39 -3 24 6 24 6 9 24 10 25 -10 26 -10 26 10
13 10 12 63 7 62 7 22 6 22 5 -10 22 -11 23 -16 79 -17 79 -45 0 -45 0 -3 43
-3 44 15 24 16 24 44 -6 44 -6 10 18 9 19 7 41 6 42 -6 31 -6 30 -57 11 -56
12 -35 7 -35 7 0 43 0 42 -19 15 -20 14 -33 0 -34 0 -25 -25z"/>
</g>
</svg>
