<?xml version="1.0" standalone="no"?>
<!DOCTYPE svg PUBLIC "-//W3C//DTD SVG 20010904//EN"
 "http://www.w3.org/TR/2001/REC-SVG-20010904/DTD/svg10.dtd">
<svg version="1.0" xmlns="http://www.w3.org/2000/svg"
 width="70.000000pt" height="84.000000pt" viewBox="0 0 70.000000 84.000000"
 preserveAspectRatio="xMidYMid meet">
<metadata>
Created by potrace 1.16, written by Peter Selinger 2001-2019
</metadata>
<g transform="translate(0.000000,84.000000) scale(0.100000,-0.100000)"
fill="#000000" stroke="none">
<path d="M230 825 l-13 -15 6 -44 6 -44 -18 -16 -18 -16 -95 0 -95 0 4 -82 4
-83 5 -23 5 -23 23 -11 24 -10 31 10 31 11 10 -19 10 -19 -12 -25 -11 -26 -11
-1 -11 -1 -31 2 -31 1 -10 -13 -11 -13 -4 -100 -3 -100 85 -3 85 -3 7 -7 7 -7
-10 -46 -10 -45 10 -27 11 -27 64 0 64 0 12 15 13 15 -7 49 -6 49 14 5 15 6
76 7 75 7 11 13 11 13 -11 51 -11 51 0 32 0 33 11 11 12 12 17 -11 17 -11 35
7 36 7 26 20 26 20 0 44 0 43 -15 12 -15 12 -67 -3 -68 -4 0 95 0 95 -50 17
-50 17 -57 16 -58 16 0 13 0 14 13 5 12 4 -11 19 -11 19 -40 3 -40 3 -13 -16z"/>
</g>
</svg>
