<?xml version="1.0" standalone="no"?>
<!DOCTYPE svg PUBLIC "-//W3C//DTD SVG 20010904//EN"
 "http://www.w3.org/TR/2001/REC-SVG-20010904/DTD/svg10.dtd">
<svg version="1.0" xmlns="http://www.w3.org/2000/svg"
 width="68.000000pt" height="82.000000pt" viewBox="0 0 68.000000 82.000000"
 preserveAspectRatio="xMidYMid meet">
<metadata>
Created by potrace 1.16, written by Peter Selinger 2001-2019
</metadata>
<g transform="translate(0.000000,82.000000) scale(0.100000,-0.100000)"
fill="#000000" stroke="none">
<path d="M231 806 l-12 -15 6 -43 7 -43 -21 -19 -20 -18 -93 1 -93 1 5 -91 5
-91 20 -14 19 -14 14 5 14 5 24 6 23 6 12 -26 12 -25 -12 -29 -12 -29 -25 -11
-24 -12 0 10 0 10 -19 0 -19 0 -10 -12 -10 -13 -3 -90 -4 -90 84 -2 83 -1 10
-10 10 -10 -10 -48 -10 -47 9 -24 9 -23 54 0 54 0 12 15 13 16 -10 45 -10 45
17 9 17 9 76 7 77 7 9 11 10 12 -9 39 -10 40 0 46 0 47 15 12 16 13 24 -13 23
-13 33 12 33 11 18 17 18 16 0 32 0 31 -12 12 -12 12 -37 0 -38 0 -25 -10 -25
-9 -8 12 -8 12 0 90 0 89 -50 18 -50 17 -57 16 -58 16 0 24 0 25 11 0 11 0
-12 15 -12 15 -28 0 -28 0 -11 -14z"/>
</g>
</svg>
