<?xml version="1.0" standalone="no"?>
<!DOCTYPE svg PUBLIC "-//W3C//DTD SVG 20010904//EN"
 "http://www.w3.org/TR/2001/REC-SVG-20010904/DTD/svg10.dtd">
<svg version="1.0" xmlns="http://www.w3.org/2000/svg"
 width="82.000000pt" height="83.000000pt" viewBox="0 0 82.000000 83.000000"
 preserveAspectRatio="xMidYMid meet">
<metadata>
Created by potrace 1.16, written by Peter Selinger 2001-2019
</metadata>
<g transform="translate(0.000000,83.000000) scale(0.100000,-0.100000)"
fill="#000000" stroke="none">
<path d="M360 817 l-25 -13 0 -51 0 -51 -8 -9 -9 -8 -81 0 -82 0 -5 -80 -6
-80 -7 -12 -8 -12 -48 6 -48 5 -17 -23 -16 -23 0 -34 0 -34 29 -29 29 -29 41
0 41 0 0 -91 0 -92 93 7 93 7 -4 -66 -4 -66 17 -19 18 -20 59 0 58 0 20 20 19
19 7 26 6 26 -4 54 -5 55 31 0 31 0 44 -20 43 -20 8 0 8 0 20 48 20 47 12 45
12 45 10 13 10 12 23 0 23 0 7 30 7 31 -17 26 -17 25 -54 -4 -54 -5 -7 25 -6
24 6 84 6 83 -67 6 -67 6 -23 5 -23 5 7 48 6 49 -20 11 -21 11 -43 0 -43 0
-25 -13z"/>
</g>
</svg>
