<?xml version="1.0" standalone="no"?>
<!DOCTYPE svg PUBLIC "-//W3C//DTD SVG 20010904//EN"
 "http://www.w3.org/TR/2001/REC-SVG-20010904/DTD/svg10.dtd">
<svg version="1.0" xmlns="http://www.w3.org/2000/svg"
 width="74.000000pt" height="80.000000pt" viewBox="0 0 74.000000 80.000000"
 preserveAspectRatio="xMidYMid meet">
<metadata>
Created by potrace 1.16, written by Peter Selinger 2001-2019
</metadata>
<g transform="translate(0.000000,80.000000) scale(0.100000,-0.100000)"
fill="#000000" stroke="none">
<path d="M393 790 l-23 -9 0 -14 0 -14 11 -32 12 -33 -16 -16 -16 -16 -98 0
-98 -1 -5 -77 -5 -77 -12 -12 -12 -12 -30 13 -31 12 -25 -6 -26 -7 -9 -25 -10
-25 0 -39 0 -38 29 -25 29 -24 41 -7 42 -6 19 10 19 10 3 -18 4 -17 -9 -50 -9
-50 -9 -9 -9 -10 0 -18 0 -17 98 -3 97 -3 -3 -46 -4 -46 17 -17 16 -16 62 0
62 1 19 14 19 14 -6 21 -5 20 16 9 17 8 39 7 39 8 37 16 37 16 17 45 16 46 0
51 0 52 -17 6 -16 7 -42 -7 -41 -6 -32 27 -32 27 0 24 0 24 54 0 55 0 15 22
16 22 0 93 0 93 -7 0 -8 1 -92 8 -92 9 -11 7 -11 7 6 31 6 32 -13 17 -13 17
-25 5 -25 5 -22 -9z"/>
</g>
</svg>
