<?xml version="1.0" standalone="no"?>
<!DOCTYPE svg PUBLIC "-//W3C//DTD SVG 20010904//EN"
 "http://www.w3.org/TR/2001/REC-SVG-20010904/DTD/svg10.dtd">
<svg version="1.0" xmlns="http://www.w3.org/2000/svg"
 width="71.000000pt" height="70.000000pt" viewBox="0 0 71.000000 70.000000"
 preserveAspectRatio="xMidYMid meet">
<metadata>
Created by potrace 1.16, written by Peter Selinger 2001-2019
</metadata>
<g transform="translate(0.000000,70.000000) scale(0.100000,-0.100000)"
fill="#000000" stroke="none">
<path d="M103 693 l-63 -4 0 -90 0 -90 14 -5 14 -5 40 10 40 11 16 -6 15 -6 7
-35 7 -35 -11 -22 -10 -23 -38 -18 -37 -17 -39 11 -38 12 -10 -6 -10 -6 0 -40
0 -41 17 -65 18 -65 70 7 71 6 25 -6 24 -6 -3 -47 -3 -47 20 -32 21 -33 33 0
34 0 17 19 18 19 -3 48 -3 48 34 8 35 7 70 2 71 1 13 81 12 81 10 17 9 18 35
-6 35 -6 16 38 15 37 -3 36 -3 37 -45 0 -45 0 -16 10 -16 10 -12 22 -11 22 0
75 0 76 -15 0 -15 0 0 -9 0 -9 -67 -6 -68 -7 -19 -6 -18 -5 6 -38 6 -38 -18
-23 -19 -22 -33 0 -33 0 -20 24 -19 24 5 58 5 57 -36 -2 -37 -2 -62 -3z"/>
</g>
</svg>
