<?xml version="1.0" standalone="no"?>
<!DOCTYPE svg PUBLIC "-//W3C//DTD SVG 20010904//EN"
 "http://www.w3.org/TR/2001/REC-SVG-20010904/DTD/svg10.dtd">
<svg version="1.0" xmlns="http://www.w3.org/2000/svg"
 width="69.000000pt" height="68.000000pt" viewBox="0 0 69.000000 68.000000"
 preserveAspectRatio="xMidYMid meet">
<metadata>
Created by potrace 1.16, written by Peter Selinger 2001-2019
</metadata>
<g transform="translate(0.000000,68.000000) scale(0.100000,-0.100000)"
fill="#000000" stroke="none">
<path d="M102 673 l-63 -4 3 -82 3 -82 20 2 20 3 35 5 35 6 14 -10 14 -9 5
-50 4 -51 -27 -25 -27 -26 -34 -6 -33 -6 -30 10 -29 10 -6 -5 -6 -6 0 -30 0
-29 17 -64 17 -64 76 6 75 6 29 -11 29 -12 -11 -11 -12 -12 0 -30 0 -31 20
-32 20 -33 23 0 24 0 18 20 18 20 -6 44 -6 45 9 6 9 6 92 8 91 8 8 14 8 13 13
65 12 66 9 18 10 19 34 -7 35 -6 15 37 15 36 -3 27 -3 26 -45 -3 -45 -2 -16
12 -16 13 -11 22 -12 22 0 78 0 78 -8 -11 -7 -12 -65 -7 -65 -6 -18 -5 -17 -5
6 -37 6 -38 -20 -24 -20 -25 -42 0 -42 0 -20 25 -20 24 4 58 3 58 -25 -2 -25
-2 -63 -3z"/>
</g>
</svg>
