<?xml version="1.0" standalone="no"?>
<!DOCTYPE svg PUBLIC "-//W3C//DTD SVG 20010904//EN"
 "http://www.w3.org/TR/2001/REC-SVG-20010904/DTD/svg10.dtd">
<svg version="1.0" xmlns="http://www.w3.org/2000/svg"
 width="66.000000pt" height="80.000000pt" viewBox="0 0 66.000000 80.000000"
 preserveAspectRatio="xMidYMid meet">
<metadata>
Created by potrace 1.16, written by Peter Selinger 2001-2019
</metadata>
<g transform="translate(0.000000,80.000000) scale(0.100000,-0.100000)"
fill="#000000" stroke="none">
<path d="M355 786 l-20 -14 12 -43 11 -42 -16 -16 -16 -16 -95 -2 -96 -2 3
-68 3 -68 5 -17 5 -17 -49 6 -49 5 -21 -11 -21 -11 -7 -34 -6 -34 7 -31 7 -31
18 -10 19 -10 27 10 27 11 8 -8 9 -9 7 -84 8 -85 70 -2 70 -1 22 -1 23 -1 -6
-42 -6 -43 21 -26 21 -27 24 -6 25 -6 25 10 26 10 17 35 17 36 -11 29 -11 29
15 12 14 13 70 -10 69 -10 4 11 3 10 -12 25 -13 25 -12 45 -12 45 -11 13 -11
13 -23 -6 -23 -5 0 64 0 64 6 15 5 15 30 -8 30 -9 23 9 23 8 7 19 7 18 6 61 6
62 -39 20 -39 19 -20 6 -20 6 -41 11 -42 10 -6 16 -6 15 10 19 10 18 -23 6
-22 6 -26 0 -25 0 -19 -14z"/>
</g>
</svg>
