<?xml version="1.0" standalone="no"?>
<!DOCTYPE svg PUBLIC "-//W3C//DTD SVG 20010904//EN"
 "http://www.w3.org/TR/2001/REC-SVG-20010904/DTD/svg10.dtd">
<svg version="1.0" xmlns="http://www.w3.org/2000/svg"
 width="68.000000pt" height="82.000000pt" viewBox="0 0 68.000000 82.000000"
 preserveAspectRatio="xMidYMid meet">
<metadata>
Created by potrace 1.16, written by Peter Selinger 2001-2019
</metadata>
<g transform="translate(0.000000,82.000000) scale(0.100000,-0.100000)"
fill="#000000" stroke="none">
<path d="M355 806 l-18 -13 6 -44 6 -44 -9 -15 -9 -15 -98 -1 -98 -1 4 -81 3
-82 -49 0 -49 0 -20 -14 -19 -14 0 -67 0 -67 20 -14 20 -15 37 6 36 6 7 -68 6
-68 2 -20 2 -20 90 -3 90 -3 -3 -42 -4 -42 22 -27 21 -27 32 -6 32 -6 27 10
27 10 17 32 16 32 -5 39 -5 39 14 6 14 5 62 -11 62 -11 8 13 8 12 -5 15 -4 15
-23 65 -23 65 -8 13 -8 12 -25 0 -25 0 3 58 3 57 47 0 48 1 11 11 11 11 9 38
9 39 0 47 0 48 -38 19 -37 19 -45 12 -45 11 -18 6 -19 5 6 33 6 33 -22 6 -23
6 -36 0 -35 0 -19 -14z"/>
</g>
</svg>
