<?xml version="1.0" standalone="no"?>
<!DOCTYPE svg PUBLIC "-//W3C//DTD SVG 20010904//EN"
 "http://www.w3.org/TR/2001/REC-SVG-20010904/DTD/svg10.dtd">
<svg version="1.0" xmlns="http://www.w3.org/2000/svg"
 width="65.000000pt" height="79.000000pt" viewBox="0 0 65.000000 79.000000"
 preserveAspectRatio="xMidYMid meet">
<metadata>
Created by potrace 1.16, written by Peter Selinger 2001-2019
</metadata>
<g transform="translate(0.000000,79.000000) scale(0.100000,-0.100000)"
fill="#000000" stroke="none">
<path d="M199 769 l-21 -21 7 -32 7 -31 1 -15 2 -15 -92 -3 -93 -3 -6 -25 -7
-25 7 -46 6 -47 17 -18 16 -18 19 0 19 0 20 11 20 10 19 -6 19 -6 11 -35 12
-34 -7 -29 -6 -30 -15 -12 -16 -13 -31 12 -31 12 -17 -16 -17 -15 -7 -47 -7
-47 -13 -37 -13 -38 83 0 83 0 11 -14 12 -14 -7 -50 -6 -50 20 -11 21 -11 39
0 40 0 26 31 26 31 6 24 6 24 -6 34 -7 34 19 6 18 6 57 -15 58 -15 12 0 13 0
-4 96 -4 96 9 9 10 10 25 -12 26 -11 28 14 29 13 0 40 0 40 -47 -3 -46 -3 -9
13 -8 13 -5 90 -5 90 -86 6 -86 6 -12 7 -12 8 6 38 6 38 -23 16 -22 16 -38 0
-38 0 -21 -21z"/>
</g>
</svg>
