<?xml version="1.0" standalone="no"?>
<!DOCTYPE svg PUBLIC "-//W3C//DTD SVG 20010904//EN"
 "http://www.w3.org/TR/2001/REC-SVG-20010904/DTD/svg10.dtd">
<svg version="1.0" xmlns="http://www.w3.org/2000/svg"
 width="52.000000pt" height="78.000000pt" viewBox="0 0 52.000000 78.000000"
 preserveAspectRatio="xMidYMid meet">
<metadata>
Created by potrace 1.16, written by Peter Selinger 2001-2019
</metadata>
<g transform="translate(0.000000,78.000000) scale(0.100000,-0.100000)"
fill="#000000" stroke="none">
<path d="M225 767 l-18 -14 5 -39 6 -39 3 -15 4 -15 -99 -3 -99 -3 -8 12 -7
12 -7 -96 -7 -95 6 -10 6 -10 65 5 65 6 15 -13 15 -12 0 -38 0 -37 -22 -28
-21 -27 -43 6 -43 5 -6 -9 -6 -10 -8 -68 -8 -67 -7 -15 -6 -15 92 3 93 3 20
-15 20 -14 -13 -36 -13 -36 6 -20 6 -20 40 0 39 0 20 20 19 19 7 26 6 25 -5
23 -4 22 -4 15 -4 15 38 3 38 3 52 -15 51 -15 5 4 4 5 -10 86 -11 86 -11 11
-11 11 -33 -12 -32 -12 -17 21 -18 21 0 33 0 33 15 12 16 13 51 -12 52 -11 8
12 8 13 0 94 0 93 -17 -7 -18 -8 -50 -14 -50 -13 -28 6 -28 6 7 54 6 53 -30
31 -30 30 -19 0 -19 0 -19 -13z"/>
</g>
</svg>
