<?xml version="1.0" standalone="no"?>
<!DOCTYPE svg PUBLIC "-//W3C//DTD SVG 20010904//EN"
 "http://www.w3.org/TR/2001/REC-SVG-20010904/DTD/svg10.dtd">
<svg version="1.0" xmlns="http://www.w3.org/2000/svg"
 width="53.000000pt" height="65.000000pt" viewBox="0 0 53.000000 65.000000"
 preserveAspectRatio="xMidYMid meet">
<metadata>
Created by potrace 1.16, written by Peter Selinger 2001-2019
</metadata>
<g transform="translate(0.000000,65.000000) scale(0.100000,-0.100000)"
fill="#000000" stroke="none">
<path d="M238 643 l-18 -4 11 -21 11 -20 -6 -24 -6 -24 -26 -17 -26 -17 -79 0
-79 -1 -4 -11 -4 -11 -8 -83 -7 -83 17 6 18 7 52 6 52 6 17 -17 17 -16 0 -44
0 -45 -25 -16 -25 -16 -31 13 -32 13 -13 -18 -13 -18 -6 -57 -6 -56 -4 -32 -4
-33 70 0 70 0 31 16 31 16 -6 54 -6 54 19 10 19 10 36 0 36 0 25 -25 26 -26
-7 -41 -7 -40 13 -9 14 -9 45 0 45 0 33 -9 32 -10 0 248 0 248 -5 5 -6 6 -62
-20 -62 -19 -45 3 -45 3 3 25 3 25 2 41 2 42 -19 21 -19 21 -11 -1 -11 -1 -17
-5z"/>
</g>
</svg>
