<?xml version="1.0" standalone="no"?>
<!DOCTYPE svg PUBLIC "-//W3C//DTD SVG 20010904//EN"
 "http://www.w3.org/TR/2001/REC-SVG-20010904/DTD/svg10.dtd">
<svg version="1.0" xmlns="http://www.w3.org/2000/svg"
 width="84.000000pt" height="64.000000pt" viewBox="0 0 84.000000 64.000000"
 preserveAspectRatio="xMidYMid meet">
<metadata>
Created by potrace 1.16, written by Peter Selinger 2001-2019
</metadata>
<g transform="translate(0.000000,64.000000) scale(0.100000,-0.100000)"
fill="#000000" stroke="none">
<path d="M368 592 l4 -48 -17 -14 -18 -15 -86 -2 -86 -2 -5 -85 -5 -85 -11
-11 -11 -11 -27 11 -27 10 -20 0 -19 0 -20 -20 -20 -20 0 -35 0 -36 25 -25 26
-26 42 8 42 7 15 1 15 1 3 -49 3 -48 -9 -43 -9 -43 45 -6 45 -6 43 0 42 0 15
6 15 5 -10 36 -10 35 6 25 7 24 24 11 24 11 25 -7 25 -6 11 -21 11 -20 -11
-14 -11 -14 10 -20 11 -20 57 -6 58 -6 37 -4 37 -5 10 18 10 19 12 66 12 67
17 15 16 15 31 -12 31 -12 16 13 15 12 6 30 7 29 -12 34 -11 35 -19 6 -19 6
-20 -10 -20 -11 -19 0 -19 0 -19 21 -19 21 0 73 0 73 -50 6 -50 6 -35 0 -35 1
-19 14 -19 15 11 24 11 24 -18 16 -18 16 -40 0 -40 0 5 -48z"/>
</g>
</svg>
