<?xml version="1.0" standalone="no"?>
<!DOCTYPE svg PUBLIC "-//W3C//DTD SVG 20010904//EN"
 "http://www.w3.org/TR/2001/REC-SVG-20010904/DTD/svg10.dtd">
<svg version="1.0" xmlns="http://www.w3.org/2000/svg"
 width="86.000000pt" height="66.000000pt" viewBox="0 0 86.000000 66.000000"
 preserveAspectRatio="xMidYMid meet">
<metadata>
Created by potrace 1.16, written by Peter Selinger 2001-2019
</metadata>
<g transform="translate(0.000000,66.000000) scale(0.100000,-0.100000)"
fill="#000000" stroke="none">
<path d="M366 612 l6 -48 -18 -14 -17 -15 -86 -1 -86 -1 -3 -69 -2 -69 -5 -23
-5 -22 -54 6 -54 6 -21 -21 -21 -21 0 -45 0 -46 25 -25 26 -26 61 7 61 7 -6
-68 -6 -69 -7 -21 -6 -21 48 -7 47 -6 56 0 56 0 13 9 14 8 -12 42 -11 41 11
19 10 20 20 6 19 6 21 -11 21 -11 -6 -32 -6 -32 13 -17 13 -18 100 -10 100
-10 11 15 12 16 12 67 13 67 9 12 10 13 39 -6 39 -7 15 13 14 12 7 35 7 35
-12 39 -12 39 -25 6 -24 6 -31 -12 -30 -13 -22 22 -22 22 1 73 1 74 -51 6 -51
6 -33 0 -32 0 -19 12 -19 12 11 23 10 23 -18 20 -18 20 -54 0 -54 0 7 -48z"/>
</g>
</svg>
