<?xml version="1.0" standalone="no"?>
<!DOCTYPE svg PUBLIC "-//W3C//DTD SVG 20010904//EN"
 "http://www.w3.org/TR/2001/REC-SVG-20010904/DTD/svg10.dtd">
<svg version="1.0" xmlns="http://www.w3.org/2000/svg"
 width="74.000000pt" height="82.000000pt" viewBox="0 0 74.000000 82.000000"
 preserveAspectRatio="xMidYMid meet">
<metadata>
Created by potrace 1.16, written by Peter Selinger 2001-2019
</metadata>
<g transform="translate(0.000000,82.000000) scale(0.100000,-0.100000)"
fill="#000000" stroke="none">
<path d="M367 809 l-19 -11 4 -67 3 -66 -97 1 -97 0 -3 -95 -3 -96 -58 3 -58
4 -20 -18 -19 -17 0 -49 0 -48 20 -20 20 -20 30 0 31 0 3 -12 4 -13 22 -73 21
-74 87 4 87 3 5 -53 6 -54 24 -19 25 -19 46 0 47 0 12 14 12 15 -3 58 -3 58
105 -3 104 -3 18 60 17 60 0 48 0 48 -9 13 -8 14 -54 -7 -55 -7 -24 20 -24 19
16 25 16 24 36 -4 36 -4 15 12 15 12 0 94 0 94 -102 -2 -103 -3 4 58 3 59 -23
24 -22 24 -36 0 -36 -1 -18 -10z"/>
</g>
</svg>
