<?xml version="1.0" standalone="no"?>
<!DOCTYPE svg PUBLIC "-//W3C//DTD SVG 20010904//EN"
 "http://www.w3.org/TR/2001/REC-SVG-20010904/DTD/svg10.dtd">
<svg version="1.0" xmlns="http://www.w3.org/2000/svg"
 width="69.000000pt" height="82.000000pt" viewBox="0 0 69.000000 82.000000"
 preserveAspectRatio="xMidYMid meet">
<metadata>
Created by potrace 1.16, written by Peter Selinger 2001-2019
</metadata>
<g transform="translate(0.000000,82.000000) scale(0.100000,-0.100000)"
fill="#000000" stroke="none">
<path d="M218 788 l-30 -32 4 -48 5 -47 -8 -3 -9 -3 -82 6 -83 5 -3 -2 -4 -2
0 -93 0 -93 18 -13 18 -13 33 6 34 6 19 -17 20 -18 0 -23 0 -23 -24 -27 -23
-28 -32 13 -31 13 -14 -11 -15 -12 -3 -86 -3 -86 112 7 113 7 -11 -28 -10 -28
6 -35 6 -35 15 -22 14 -23 31 0 30 0 25 25 26 26 -4 57 -3 57 85 0 85 0 -4 40
-5 40 0 50 -1 50 62 -3 62 -4 26 27 25 28 0 34 0 34 -17 25 -16 25 -48 -6 -47
-7 -16 23 -16 23 0 60 0 59 -37 -7 -38 -6 -52 -6 -53 -7 -15 13 -16 13 7 42 6
43 -11 20 -11 20 -16 16 -15 16 -16 0 -15 0 -30 -32z"/>
</g>
</svg>
