<?xml version="1.0" standalone="no"?>
<!DOCTYPE svg PUBLIC "-//W3C//DTD SVG 20010904//EN"
 "http://www.w3.org/TR/2001/REC-SVG-20010904/DTD/svg10.dtd">
<svg version="1.0" xmlns="http://www.w3.org/2000/svg"
 width="58.000000pt" height="79.000000pt" viewBox="0 0 58.000000 79.000000"
 preserveAspectRatio="xMidYMid meet">
<metadata>
Created by potrace 1.16, written by Peter Selinger 2001-2019
</metadata>
<g transform="translate(0.000000,79.000000) scale(0.100000,-0.100000)"
fill="#000000" stroke="none">
<path d="M252 779 l-34 -10 6 -15 6 -16 6 -23 6 -24 -25 -25 -24 -24 -56 -7
-55 -7 -22 7 -22 7 3 -87 4 -87 20 -14 20 -15 42 6 43 6 12 -26 11 -25 -9 -38
-9 -37 -27 -13 -27 -12 -47 10 -47 11 -14 -5 -13 -5 0 -40 0 -39 17 -51 16
-51 82 0 81 0 19 -13 18 -14 -7 -41 -6 -41 40 -12 40 -12 26 14 26 13 13 26
13 25 -12 18 -11 18 15 10 15 9 88 -2 87 -3 7 35 7 35 1 70 0 70 -56 -3 -55
-3 -16 18 -16 18 -2 15 -2 15 1 23 1 22 49 0 49 0 16 25 16 24 0 79 0 78 -92
25 -91 24 -13 13 -13 13 9 24 9 24 -7 5 -7 4 -35 6 -35 5 -33 -10z"/>
</g>
</svg>
