<?xml version="1.0" standalone="no"?>
<!DOCTYPE svg PUBLIC "-//W3C//DTD SVG 20010904//EN"
 "http://www.w3.org/TR/2001/REC-SVG-20010904/DTD/svg10.dtd">
<svg version="1.0" xmlns="http://www.w3.org/2000/svg"
 width="60.000000pt" height="81.000000pt" viewBox="0 0 60.000000 81.000000"
 preserveAspectRatio="xMidYMid meet">
<metadata>
Created by potrace 1.16, written by Peter Selinger 2001-2019
</metadata>
<g transform="translate(0.000000,81.000000) scale(0.100000,-0.100000)"
fill="#000000" stroke="none">
<path d="M253 799 l-33 -10 0 -14 0 -14 10 -25 9 -25 -17 -21 -17 -21 -45 -10
-44 -10 -39 7 -39 6 3 -97 4 -97 20 -15 20 -15 43 5 43 5 11 -23 10 -23 -9
-29 -10 -28 -21 -11 -22 -11 -50 10 -49 9 -16 -5 -15 -6 0 -50 0 -49 17 -51
16 -51 79 0 79 0 20 -11 20 -10 -6 -43 -7 -43 33 -12 32 -11 24 0 24 0 23 15
24 16 12 29 12 30 -12 15 -12 14 27 7 26 7 75 -5 74 -5 7 36 8 36 0 80 0 80
-56 0 -56 0 -16 14 -17 13 0 29 0 29 49 0 49 0 16 25 16 24 0 88 0 88 -62 18
-63 18 -38 10 -39 10 6 34 7 33 -10 6 -9 6 -44 5 -43 4 -32 -10z"/>
</g>
</svg>
