<?xml version="1.0" standalone="no"?>
<!DOCTYPE svg PUBLIC "-//W3C//DTD SVG 20010904//EN"
 "http://www.w3.org/TR/2001/REC-SVG-20010904/DTD/svg10.dtd">
<svg version="1.0" xmlns="http://www.w3.org/2000/svg"
 width="68.000000pt" height="54.000000pt" viewBox="0 0 68.000000 54.000000"
 preserveAspectRatio="xMidYMid meet">
<metadata>
Created by potrace 1.16, written by Peter Selinger 2001-2019
</metadata>
<g transform="translate(0.000000,54.000000) scale(0.100000,-0.100000)"
fill="#000000" stroke="none">
<path d="M498 535 l-8 -8 6 -37 6 -37 -11 -21 -11 -22 -33 -8 -32 -9 -33 8
-34 7 -5 6 -5 5 10 31 11 31 -19 19 -20 20 -75 0 -75 0 0 -74 0 -74 -18 -22
-18 -23 -53 14 -53 13 -14 -19 -14 -19 0 -47 0 -47 6 -17 6 -16 43 6 42 7 11
-29 11 -28 7 -30 7 -30 20 -38 21 -37 78 0 79 0 21 11 20 11 -7 45 -6 44 12
15 11 14 29 0 28 0 26 -12 26 -12 -6 -48 -7 -48 27 -10 26 -10 76 0 75 0 -7
17 -8 18 -17 50 -18 50 -12 44 -12 44 -43 -6 -43 -6 -6 15 -6 16 0 23 0 24 23
27 24 27 32 -11 32 -11 24 11 23 10 6 22 6 21 0 65 0 65 -22 1 -23 2 -65 7
-65 7 -7 -7z"/>
</g>
</svg>
