<?xml version="1.0" standalone="no"?>
<!DOCTYPE svg PUBLIC "-//W3C//DTD SVG 20010904//EN"
 "http://www.w3.org/TR/2001/REC-SVG-20010904/DTD/svg10.dtd">
<svg version="1.0" xmlns="http://www.w3.org/2000/svg"
 width="80.000000pt" height="69.000000pt" viewBox="0 0 80.000000 69.000000"
 preserveAspectRatio="xMidYMid meet">
<metadata>
Created by potrace 1.16, written by Peter Selinger 2001-2019
</metadata>
<g transform="translate(0.000000,69.000000) scale(0.100000,-0.100000)"
fill="#000000" stroke="none">
<path d="M466 683 l-18 -5 7 -36 7 -37 -1 -20 0 -20 -28 -22 -28 -23 -13 0
-13 0 -24 25 -25 24 11 25 12 25 -6 15 -6 16 -106 0 -106 0 7 -101 7 -101 -21
11 -20 11 -30 -6 -31 -6 -20 -20 -21 -19 0 -33 0 -33 20 -18 20 -18 45 6 46 5
9 -24 9 -24 -9 -72 -9 -72 5 -8 5 -8 78 0 77 0 17 -13 17 -12 -12 -32 -12 -33
19 -15 20 -14 56 -1 57 0 12 15 12 15 -5 29 -6 30 27 5 27 5 45 6 45 6 26 5
25 5 17 47 16 47 11 43 11 42 22 -5 22 -5 15 10 15 9 0 70 0 70 -17 18 -18 17
-37 -13 -36 -14 -14 19 -13 18 0 70 0 71 -8 10 -7 11 -40 11 -40 11 -40 5 -40
5 -19 -5z"/>
</g>
</svg>
