<?xml version="1.0" standalone="no"?>
<!DOCTYPE svg PUBLIC "-//W3C//DTD SVG 20010904//EN"
 "http://www.w3.org/TR/2001/REC-SVG-20010904/DTD/svg10.dtd">
<svg version="1.0" xmlns="http://www.w3.org/2000/svg"
 width="78.000000pt" height="67.000000pt" viewBox="0 0 78.000000 67.000000"
 preserveAspectRatio="xMidYMid meet">
<metadata>
Created by potrace 1.16, written by Peter Selinger 2001-2019
</metadata>
<g transform="translate(0.000000,67.000000) scale(0.100000,-0.100000)"
fill="#000000" stroke="none">
<path d="M467 663 l-19 -5 8 -26 8 -27 -1 -29 0 -30 -29 -23 -29 -23 -23 0
-23 0 -25 26 -26 25 7 22 6 22 2 15 2 15 -97 3 -97 3 6 -102 6 -102 -19 5 -19
6 -10 2 -10 2 -21 -1 -20 -1 -22 -20 -22 -21 0 -23 0 -23 20 -18 19 -17 46 6
45 7 10 -27 11 -27 -9 -74 -8 -73 5 -5 4 -5 77 0 76 0 20 -14 19 -14 -12 -33
-12 -32 17 -13 17 -13 46 -1 47 0 11 14 11 13 -6 31 -6 31 33 5 34 6 64 10 64
9 2 3 3 3 21 62 21 62 0 14 0 13 14 19 14 19 14 -11 14 -12 12 8 13 8 5 49 5
49 -14 25 -13 25 -15 -2 -14 -2 -29 -7 -29 -7 -14 18 -13 19 0 70 0 71 -8 11
-7 10 -45 12 -45 11 -25 4 -25 4 -18 -4z"/>
</g>
</svg>
