<?xml version="1.0" standalone="no"?>
<!DOCTYPE svg PUBLIC "-//W3C//DTD SVG 20010904//EN"
 "http://www.w3.org/TR/2001/REC-SVG-20010904/DTD/svg10.dtd">
<svg version="1.0" xmlns="http://www.w3.org/2000/svg"
 width="80.000000pt" height="56.000000pt" viewBox="0 0 80.000000 56.000000"
 preserveAspectRatio="xMidYMid meet">
<metadata>
Created by potrace 1.16, written by Peter Selinger 2001-2019
</metadata>
<g transform="translate(0.000000,56.000000) scale(0.100000,-0.100000)"
fill="#000000" stroke="none">
<path d="M454 546 l-5 -14 11 -42 11 -41 -18 -37 -18 -37 -22 -3 -22 -3 -21
21 -22 22 8 16 7 17 4 25 5 25 -22 20 -22 20 -88 3 -88 4 -3 -87 -4 -87 -20
-14 -20 -15 -46 6 -46 7 -7 -24 -6 -23 0 -22 0 -22 32 -17 31 -16 49 4 48 5
11 -13 11 -14 -17 -96 -17 -95 4 -4 3 -4 113 -7 112 -7 0 11 0 12 -12 44 -11
43 12 31 13 31 15 6 16 6 23 -22 23 -22 -6 -44 -6 -45 14 -9 14 -8 55 -6 55
-6 41 -5 42 -5 16 68 17 68 10 38 10 38 31 -6 30 -7 9 13 9 14 0 41 0 42 -16
13 -15 13 -36 -13 -35 -13 -17 16 -16 17 2 93 1 93 -50 11 -50 12 -54 0 -55 0
-5 -14z"/>
</g>
</svg>
