<?xml version="1.0" standalone="no"?>
<!DOCTYPE svg PUBLIC "-//W3C//DTD SVG 20010904//EN"
 "http://www.w3.org/TR/2001/REC-SVG-20010904/DTD/svg10.dtd">
<svg version="1.0" xmlns="http://www.w3.org/2000/svg"
 width="79.000000pt" height="64.000000pt" viewBox="0 0 79.000000 64.000000"
 preserveAspectRatio="xMidYMid meet">
<metadata>
Created by potrace 1.16, written by Peter Selinger 2001-2019
</metadata>
<g transform="translate(0.000000,64.000000) scale(0.100000,-0.100000)"
fill="#000000" stroke="none">
<path d="M365 634 l-10 -4 3 -44 4 -45 -31 -15 -30 -16 -78 0 -79 0 0 -68 -1
-68 -13 -23 -12 -23 -44 6 -44 6 -16 -24 -15 -24 3 -44 3 -43 45 0 45 0 17
-79 16 -79 11 -24 11 -23 78 0 78 0 22 16 23 16 -7 58 -7 59 26 12 25 11 29
-9 28 -10 -3 -46 -3 -46 58 -16 58 -16 34 -9 34 -9 9 5 8 5 0 88 0 89 15 12
16 13 24 -13 24 -13 33 20 33 19 3 21 3 21 -27 21 -27 21 -24 0 -24 0 -19 -10
-19 -10 -10 17 -9 18 5 87 6 88 -89 0 -89 0 -14 9 -13 9 7 39 6 40 -13 10 -13
11 -25 6 -25 5 -10 -5z"/>
</g>
</svg>
