<?xml version="1.0" standalone="no"?>
<!DOCTYPE svg PUBLIC "-//W3C//DTD SVG 20010904//EN"
 "http://www.w3.org/TR/2001/REC-SVG-20010904/DTD/svg10.dtd">
<svg version="1.0" xmlns="http://www.w3.org/2000/svg"
 width="81.000000pt" height="66.000000pt" viewBox="0 0 81.000000 66.000000"
 preserveAspectRatio="xMidYMid meet">
<metadata>
Created by potrace 1.16, written by Peter Selinger 2001-2019
</metadata>
<g transform="translate(0.000000,66.000000) scale(0.100000,-0.100000)"
fill="#000000" stroke="none">
<path d="M363 654 l-12 -5 6 -44 5 -43 -30 -16 -31 -16 -80 0 -79 0 0 -68 1
-68 -12 -23 -12 -22 -44 6 -43 7 -17 -25 -16 -25 3 -54 3 -53 45 0 45 0 17
-79 16 -79 11 -24 11 -23 88 0 88 0 23 16 23 17 -6 58 -7 58 20 10 20 11 24
-9 25 -10 -5 -44 -5 -45 33 -10 34 -11 67 -16 67 -17 11 7 10 6 0 88 0 89 14
11 14 12 7 -11 6 -10 22 0 22 0 33 20 32 20 0 29 0 30 -27 21 -28 22 -47 -5
-48 -4 -1 11 -2 11 3 88 2 87 -85 0 -85 0 -16 6 -15 6 5 42 6 42 -15 12 -15
13 -34 4 -33 4 -12 -5z"/>
</g>
</svg>
