<?xml version="1.0" standalone="no"?>
<!DOCTYPE svg PUBLIC "-//W3C//DTD SVG 20010904//EN"
 "http://www.w3.org/TR/2001/REC-SVG-20010904/DTD/svg10.dtd">
<svg version="1.0" xmlns="http://www.w3.org/2000/svg"
 width="52.000000pt" height="66.000000pt" viewBox="0 0 52.000000 66.000000"
 preserveAspectRatio="xMidYMid meet">
<metadata>
Created by potrace 1.16, written by Peter Selinger 2001-2019
</metadata>
<g transform="translate(0.000000,66.000000) scale(0.100000,-0.100000)"
fill="#000000" stroke="none">
<path d="M220 645 l-13 -15 6 -38 5 -37 8 -19 7 -19 -110 6 -110 6 -6 -67 -7
-67 8 -30 9 -30 55 3 56 4 11 -20 11 -21 0 -30 0 -30 -11 -25 -11 -24 -20 -5
-20 -6 -26 10 -25 10 -10 -10 -10 -10 -1 -78 -1 -78 55 -3 55 -2 35 17 35 18
0 55 0 55 41 3 42 3 16 -17 17 -16 -3 -67 -3 -66 80 2 80 1 28 11 28 11 -9 17
-9 18 -13 55 -12 55 -10 33 -10 33 -31 -3 -32 -3 -3 56 -3 57 44 -5 44 -5 21
27 22 28 0 68 0 69 -64 0 -63 0 -33 6 -32 7 -5 15 -6 15 13 20 13 21 -27 23
-27 23 -28 0 -29 0 -12 -15z"/>
</g>
</svg>
