<?xml version="1.0" standalone="no"?>
<!DOCTYPE svg PUBLIC "-//W3C//DTD SVG 20010904//EN"
 "http://www.w3.org/TR/2001/REC-SVG-20010904/DTD/svg10.dtd">
<svg version="1.0" xmlns="http://www.w3.org/2000/svg"
 width="79.000000pt" height="65.000000pt" viewBox="0 0 79.000000 65.000000"
 preserveAspectRatio="xMidYMid meet">
<metadata>
Created by potrace 1.16, written by Peter Selinger 2001-2019
</metadata>
<g transform="translate(0.000000,65.000000) scale(0.100000,-0.100000)"
fill="#000000" stroke="none">
<path d="M316 637 l-19 -14 13 -35 13 -35 -6 -15 -5 -15 -29 -6 -28 -5 -65 5
-66 6 0 -77 0 -76 -16 -16 -16 -16 -22 12 -21 11 -25 -16 -24 -15 0 -48 0 -47
9 -13 8 -13 26 6 26 7 7 -28 7 -29 16 -75 16 -75 75 -8 75 -7 25 2 25 3 -3 42
-3 42 21 21 21 21 42 -3 42 -3 0 -35 0 -35 103 -20 103 -21 8 10 9 11 15 55
15 55 7 28 6 29 26 -7 25 -6 19 17 19 17 0 36 0 37 -20 17 -20 17 -21 0 -20 0
-21 -11 -20 -11 -12 12 -11 11 -5 92 -5 92 -87 0 -87 0 -13 13 -12 12 12 33
12 32 -25 23 -26 22 -38 0 -37 0 -18 -13z"/>
</g>
</svg>
