<?xml version="1.0" standalone="no"?>
<!DOCTYPE svg PUBLIC "-//W3C//DTD SVG 20010904//EN"
 "http://www.w3.org/TR/2001/REC-SVG-20010904/DTD/svg10.dtd">
<svg version="1.0" xmlns="http://www.w3.org/2000/svg"
 width="81.000000pt" height="78.000000pt" viewBox="0 0 81.000000 78.000000"
 preserveAspectRatio="xMidYMid meet">
<metadata>
Created by potrace 1.16, written by Peter Selinger 2001-2019
</metadata>
<g transform="translate(0.000000,78.000000) scale(0.100000,-0.100000)"
fill="#000000" stroke="none">
<path d="M329 759 l-21 -21 7 -46 7 -45 -96 7 -95 6 -3 -97 -3 -98 -30 3 -30
2 -22 -5 -21 -5 -11 -33 -11 -34 8 -39 8 -39 46 2 46 3 6 -23 6 -22 0 -41 0
-41 6 -32 6 -31 80 0 79 0 20 -10 19 -11 -6 -39 -7 -40 13 -15 12 -15 41 0 40
0 19 22 19 22 6 23 5 24 -5 40 -5 40 14 6 15 5 70 -22 70 -23 11 11 12 12 -12
51 -12 51 0 22 0 23 55 -5 55 -4 35 26 35 27 0 49 0 48 -30 26 -31 25 -34 7
-35 6 -14 -5 -14 -6 5 76 6 76 -82 -7 -82 -7 -13 10 -14 11 5 44 5 43 -23 17
-23 16 -43 0 -43 0 -21 -21z"/>
</g>
</svg>
