<?xml version="1.0" standalone="no"?>
<!DOCTYPE svg PUBLIC "-//W3C//DTD SVG 20010904//EN"
 "http://www.w3.org/TR/2001/REC-SVG-20010904/DTD/svg10.dtd">
<svg version="1.0" xmlns="http://www.w3.org/2000/svg"
 width="79.000000pt" height="76.000000pt" viewBox="0 0 79.000000 76.000000"
 preserveAspectRatio="xMidYMid meet">
<metadata>
Created by potrace 1.16, written by Peter Selinger 2001-2019
</metadata>
<g transform="translate(0.000000,76.000000) scale(0.100000,-0.100000)"
fill="#000000" stroke="none">
<path d="M329 739 l-20 -20 6 -32 7 -32 2 -10 1 -10 -97 1 -98 1 0 -91 0 -92
-11 -11 -12 -12 -25 10 -25 10 -17 -6 -18 -6 -10 -28 -10 -28 7 -34 7 -34 20
1 19 1 15 7 15 6 14 -9 14 -9 8 -83 8 -84 0 -7 1 -8 81 0 80 0 21 -11 20 -11
-6 -40 -7 -40 12 -14 11 -14 30 0 29 0 13 13 13 12 12 23 12 23 -3 52 -3 52
26 3 26 3 59 -20 59 -20 8 8 9 9 -11 38 -11 39 0 38 0 37 55 -6 55 -7 35 27
35 27 0 39 0 38 -30 25 -30 25 -29 7 -30 6 -21 -11 -22 -12 8 82 7 82 -82 -7
-81 -8 -15 13 -16 13 7 42 6 43 -23 16 -23 16 -33 0 -33 0 -21 -21z"/>
</g>
</svg>
