<?xml version="1.0" standalone="no"?>
<!DOCTYPE svg PUBLIC "-//W3C//DTD SVG 20010904//EN"
 "http://www.w3.org/TR/2001/REC-SVG-20010904/DTD/svg10.dtd">
<svg version="1.0" xmlns="http://www.w3.org/2000/svg"
 width="68.000000pt" height="55.000000pt" viewBox="0 0 68.000000 55.000000"
 preserveAspectRatio="xMidYMid meet">
<metadata>
Created by potrace 1.16, written by Peter Selinger 2001-2019
</metadata>
<g transform="translate(0.000000,55.000000) scale(0.100000,-0.100000)"
fill="#000000" stroke="none">
<path d="M74 543 l-61 -4 -7 -61 -6 -61 0 -43 0 -43 63 6 63 6 27 -25 27 -25
0 -11 0 -12 -25 -16 -24 -16 -39 7 -39 6 -7 -18 -7 -18 -10 -80 -10 -80 -10
-9 -9 -10 0 -16 0 -16 93 3 92 4 23 5 24 5 -4 62 -3 62 35 3 35 3 19 -14 19
-14 -14 -37 -14 -38 24 -19 23 -19 89 0 89 0 0 13 0 12 -21 54 -20 54 3 36 3
36 20 -4 20 -4 39 1 39 0 25 19 25 19 11 16 10 17 -10 28 -10 28 -57 -3 -57
-2 -10 26 -10 25 0 78 0 78 -46 7 -47 6 -51 0 -51 0 -13 -9 -14 -8 6 -44 7
-44 -8 -11 -8 -11 -15 -5 -15 -5 -29 14 -29 15 7 54 6 54 -47 -2 -48 -2 -61
-3z"/>
</g>
</svg>
