<?xml version="1.0" standalone="no"?>
<!DOCTYPE svg PUBLIC "-//W3C//DTD SVG 20010904//EN"
 "http://www.w3.org/TR/2001/REC-SVG-20010904/DTD/svg10.dtd">
<svg version="1.0" xmlns="http://www.w3.org/2000/svg"
 width="66.000000pt" height="53.000000pt" viewBox="0 0 66.000000 53.000000"
 preserveAspectRatio="xMidYMid meet">
<metadata>
Created by potrace 1.16, written by Peter Selinger 2001-2019
</metadata>
<g transform="translate(0.000000,53.000000) scale(0.100000,-0.100000)"
fill="#000000" stroke="none">
<path d="M74 523 l-61 -4 -7 -61 -6 -61 0 -31 0 -32 63 4 64 4 26 -25 27 -24
0 -21 0 -22 -25 -16 -25 -16 -22 -1 -23 0 -16 7 -16 7 -7 -18 -7 -18 -10 -80
-10 -80 -10 -9 -9 -10 0 -5 0 -6 82 3 83 2 23 5 23 6 -3 62 -3 62 42 3 42 3
21 -11 20 -11 0 -20 0 -20 -11 -21 -12 -22 23 -18 22 -18 79 0 79 0 0 3 0 2
-20 53 -20 52 0 45 0 46 16 6 15 6 24 -11 23 -11 34 10 34 9 24 25 23 25 -11
25 -12 25 -55 -6 -54 -7 -11 27 -10 27 0 78 0 78 -46 7 -47 6 -41 0 -41 0 -13
-9 -14 -8 10 -34 9 -34 -10 -22 -9 -21 -24 -6 -24 -6 -31 16 -31 16 4 54 5 54
-36 -2 -36 -2 -61 -3z"/>
</g>
</svg>
