<?xml version="1.0" standalone="no"?>
<!DOCTYPE svg PUBLIC "-//W3C//DTD SVG 20010904//EN"
 "http://www.w3.org/TR/2001/REC-SVG-20010904/DTD/svg10.dtd">
<svg version="1.0" xmlns="http://www.w3.org/2000/svg"
 width="82.000000pt" height="69.000000pt" viewBox="0 0 82.000000 69.000000"
 preserveAspectRatio="xMidYMid meet">
<metadata>
Created by potrace 1.16, written by Peter Selinger 2001-2019
</metadata>
<g transform="translate(0.000000,69.000000) scale(0.100000,-0.100000)"
fill="#000000" stroke="none">
<path d="M464 675 l-6 -14 11 -34 12 -34 -7 -19 -7 -19 -20 -22 -20 -23 -29 0
-29 0 -8 22 -8 22 8 36 9 35 0 18 0 17 -115 0 -115 0 0 -87 0 -88 -19 -25 -19
-24 -27 12 -26 12 -15 0 -14 0 -11 -27 -10 -28 6 -33 6 -33 26 -10 25 -9 36
10 36 9 14 -12 14 -11 -6 -56 -6 -55 -6 -38 -7 -37 86 0 85 0 15 -6 14 -5 -4
-44 -5 -43 26 -17 26 -18 38 6 37 6 23 28 23 28 -3 38 -4 37 52 0 51 0 32 -11
32 -11 5 4 5 5 5 54 5 54 5 34 5 33 31 -6 30 -6 23 6 22 6 12 24 11 25 0 47 0
47 -10 15 -9 15 -66 -2 -65 -2 0 93 0 93 -58 17 -58 16 -42 0 -43 0 -5 -15z"/>
</g>
</svg>
