<?xml version="1.0" standalone="no"?>
<!DOCTYPE svg PUBLIC "-//W3C//DTD SVG 20010904//EN"
 "http://www.w3.org/TR/2001/REC-SVG-20010904/DTD/svg10.dtd">
<svg version="1.0" xmlns="http://www.w3.org/2000/svg"
 width="80.000000pt" height="67.000000pt" viewBox="0 0 80.000000 67.000000"
 preserveAspectRatio="xMidYMid meet">
<metadata>
Created by potrace 1.16, written by Peter Selinger 2001-2019
</metadata>
<g transform="translate(0.000000,67.000000) scale(0.100000,-0.100000)"
fill="#000000" stroke="none">
<path d="M466 661 l-6 -9 11 -31 11 -31 -7 -28 -6 -27 -21 -22 -21 -23 -39 0
-38 0 -10 25 -10 26 10 42 10 42 0 8 0 7 -105 0 -105 0 0 -87 0 -88 -19 -24
-18 -24 -24 5 -24 5 -17 8 -18 7 -10 -27 -10 -26 6 -25 7 -26 20 -7 21 -8 38
10 38 9 16 -13 17 -14 -7 -70 -6 -70 -6 -22 -6 -23 85 0 85 0 17 -6 16 -6 -7
-43 -6 -43 26 -17 25 -17 30 7 31 7 20 28 20 28 0 19 0 19 -11 11 -11 11 12 7
12 8 59 -2 58 -1 25 -10 26 -10 1 8 0 7 8 78 8 78 10 10 10 10 25 -10 26 -10
20 6 20 5 11 24 11 25 0 37 0 37 -10 15 -9 15 -43 -2 -43 -3 -20 -2 -20 -3 -3
96 -3 97 -58 16 -57 16 -32 0 -31 0 -5 -9z"/>
</g>
</svg>
