<?xml version="1.0" standalone="no"?>
<!DOCTYPE svg PUBLIC "-//W3C//DTD SVG 20010904//EN"
 "http://www.w3.org/TR/2001/REC-SVG-20010904/DTD/svg10.dtd">
<svg version="1.0" xmlns="http://www.w3.org/2000/svg"
 width="57.000000pt" height="59.000000pt" viewBox="0 0 57.000000 59.000000"
 preserveAspectRatio="xMidYMid meet">
<metadata>
Created by potrace 1.16, written by Peter Selinger 2001-2019
</metadata>
<g transform="translate(0.000000,59.000000) scale(0.100000,-0.100000)"
fill="#000000" stroke="none">
<path d="M337 584 l-7 -7 7 -72 6 -72 -24 -16 -23 -17 -31 0 -31 0 -16 13 -16
12 11 53 11 52 -12 13 -13 12 -87 0 -87 0 -3 -94 -3 -93 16 -25 17 -25 43 6
43 7 6 -17 7 -18 -19 -19 -19 -19 -41 13 -41 12 -17 -14 -17 -14 7 -105 7
-104 12 -8 12 -8 63 0 63 0 29 15 30 15 5 23 5 22 2 35 3 35 33 3 33 3 15 -12
15 -12 -3 -76 -3 -76 55 -2 55 -3 55 13 55 13 -2 29 -1 30 -27 77 -27 77 -29
10 -30 10 3 33 3 33 57 -3 57 -4 7 29 6 28 5 18 5 18 -7 73 -7 72 -63 17 -63
17 -44 0 -45 0 -6 -6z"/>
</g>
</svg>
