<?xml version="1.0" standalone="no"?>
<!DOCTYPE svg PUBLIC "-//W3C//DTD SVG 20010904//EN"
 "http://www.w3.org/TR/2001/REC-SVG-20010904/DTD/svg10.dtd">
<svg version="1.0" xmlns="http://www.w3.org/2000/svg"
 width="67.000000pt" height="64.000000pt" viewBox="0 0 67.000000 64.000000"
 preserveAspectRatio="xMidYMid meet">
<metadata>
Created by potrace 1.16, written by Peter Selinger 2001-2019
</metadata>
<g transform="translate(0.000000,64.000000) scale(0.100000,-0.100000)"
fill="#000000" stroke="none">
<path d="M507 634 l-6 -6 6 -29 5 -28 -6 -24 -6 -24 -24 -26 -25 -27 -34 0
-34 0 -18 20 -17 19 6 46 7 45 -35 15 -35 15 -60 0 -59 0 -6 -16 -6 -16 0 -58
0 -58 -19 -23 -19 -23 -26 12 -27 12 -14 0 -15 0 -20 -20 -20 -20 0 -31 0 -30
10 -19 10 -18 33 -11 34 -12 27 11 28 10 8 -5 7 -5 6 -27 5 -28 -7 -67 -7 -68
58 0 59 0 34 -14 34 -15 7 -25 6 -25 -7 -20 -6 -21 61 0 60 0 11 24 11 24 -11
33 -11 33 12 8 13 9 88 -5 89 -5 -7 17 -6 17 -16 60 -17 60 -9 12 -9 13 -23
-6 -23 -6 -21 21 -21 21 0 38 0 39 18 16 19 17 21 0 21 0 27 -10 26 -10 14 11
14 11 0 93 0 92 -46 7 -47 6 -32 0 -32 0 -6 -6z"/>
</g>
</svg>
