<?xml version="1.0" standalone="no"?>
<!DOCTYPE svg PUBLIC "-//W3C//DTD SVG 20010904//EN"
 "http://www.w3.org/TR/2001/REC-SVG-20010904/DTD/svg10.dtd">
<svg version="1.0" xmlns="http://www.w3.org/2000/svg"
 width="69.000000pt" height="66.000000pt" viewBox="0 0 69.000000 66.000000"
 preserveAspectRatio="xMidYMid meet">
<metadata>
Created by potrace 1.16, written by Peter Selinger 2001-2019
</metadata>
<g transform="translate(0.000000,66.000000) scale(0.100000,-0.100000)"
fill="#000000" stroke="none">
<path d="M505 650 l-6 -10 7 -34 6 -35 -21 -35 -21 -34 -16 -6 -16 -6 -17 0
-18 0 -16 18 -17 19 6 46 7 47 -36 15 -36 15 -70 0 -69 0 -6 -16 -6 -16 0 -57
0 -57 -16 -22 -15 -22 -19 10 -19 10 -25 0 -26 0 -20 -20 -20 -20 0 -41 0 -40
10 -19 10 -18 34 -12 35 -11 35 7 36 6 1 -23 2 -24 -2 -45 -2 -45 -5 -28 -6
-27 60 0 59 0 32 -11 31 -11 10 -18 10 -18 -6 -31 -6 -31 70 0 71 0 11 20 11
21 -3 42 -3 42 93 -2 92 -3 0 13 -1 12 -22 75 -22 75 -9 13 -8 14 -25 -5 -25
-5 -19 19 -19 19 0 28 0 29 20 18 20 18 45 -13 45 -13 15 13 15 12 0 103 0
102 -46 7 -47 6 -43 0 -43 0 -6 -10z"/>
</g>
</svg>
