<?xml version="1.0" standalone="no"?>
<!DOCTYPE svg PUBLIC "-//W3C//DTD SVG 20010904//EN"
 "http://www.w3.org/TR/2001/REC-SVG-20010904/DTD/svg10.dtd">
<svg version="1.0" xmlns="http://www.w3.org/2000/svg"
 width="77.000000pt" height="53.000000pt" viewBox="0 0 77.000000 53.000000"
 preserveAspectRatio="xMidYMid meet">
<metadata>
Created by potrace 1.16, written by Peter Selinger 2001-2019
</metadata>
<g transform="translate(0.000000,53.000000) scale(0.100000,-0.100000)"
fill="#000000" stroke="none">
<path d="M555 520 l-80 -5 3 -50 3 -50 -23 -27 -23 -28 -30 -5 -30 -6 -24 22
-23 22 6 50 7 50 2 11 2 11 -103 3 -104 3 4 -103 3 -103 -62 3 -61 4 -12 -21
-11 -22 6 -19 6 -20 31 -16 31 -16 41 5 41 6 14 -9 14 -8 -6 -60 -5 -61 -16
-32 -16 -32 4 -5 5 -4 85 -5 85 -6 -6 55 -6 55 24 17 23 16 33 0 32 0 24 -9
25 -10 -5 -23 -5 -24 14 -11 13 -10 70 -16 70 -15 6 4 6 3 -8 48 -8 48 0 46
-1 47 13 10 12 10 43 -11 42 -11 21 21 22 21 -7 25 -6 25 -15 6 -15 5 -25 -11
-26 -12 -17 18 -17 17 -5 97 -5 97 -80 -5z"/>
</g>
</svg>
