<?xml version="1.0" standalone="no"?>
<!DOCTYPE svg PUBLIC "-//W3C//DTD SVG 20010904//EN"
 "http://www.w3.org/TR/2001/REC-SVG-20010904/DTD/svg10.dtd">
<svg version="1.0" xmlns="http://www.w3.org/2000/svg"
 width="70.000000pt" height="53.000000pt" viewBox="0 0 70.000000 53.000000"
 preserveAspectRatio="xMidYMid meet">
<metadata>
Created by potrace 1.16, written by Peter Selinger 2001-2019
</metadata>
<g transform="translate(0.000000,53.000000) scale(0.100000,-0.100000)"
fill="#000000" stroke="none">
<path d="M100 521 l-75 -6 -7 -80 -8 -80 4 -11 4 -10 59 4 59 4 17 -17 17 -16
0 -29 0 -28 -22 -14 -23 -15 -24 -6 -23 -6 -18 11 -17 11 -16 -6 -16 -6 -7
-25 -6 -26 12 -82 11 -83 95 3 95 3 6 15 6 15 -14 41 -13 41 23 18 23 19 28 0
29 0 15 -15 15 -15 -6 -34 -5 -34 18 -6 19 -6 79 -15 79 -15 8 6 9 5 0 73 0
74 14 11 14 12 45 -12 45 -11 21 11 21 12 6 23 6 24 -4 28 -3 29 -30 -2 -30
-2 -33 -3 -32 -2 -17 17 -17 17 -4 90 -4 90 -70 0 -69 0 -20 -11 -20 -10 6
-20 6 -19 -6 -18 -5 -19 -26 -11 -25 -12 -32 0 -33 0 -23 16 -24 17 6 53 6 54
-12 -2 -12 -2 -75 -5z"/>
</g>
</svg>
