<?xml version="1.0" standalone="no"?>
<!DOCTYPE svg PUBLIC "-//W3C//DTD SVG 20010904//EN"
 "http://www.w3.org/TR/2001/REC-SVG-20010904/DTD/svg10.dtd">
<svg version="1.0" xmlns="http://www.w3.org/2000/svg"
 width="72.000000pt" height="55.000000pt" viewBox="0 0 72.000000 55.000000"
 preserveAspectRatio="xMidYMid meet">
<metadata>
Created by potrace 1.16, written by Peter Selinger 2001-2019
</metadata>
<g transform="translate(0.000000,55.000000) scale(0.100000,-0.100000)"
fill="#000000" stroke="none">
<path d="M100 541 l-75 -6 -8 -89 -8 -89 5 -13 5 -14 59 6 58 6 17 -16 17 -17
0 -19 0 -18 -25 -16 -25 -17 -50 7 -49 6 -13 -26 -12 -27 12 -97 12 -96 3 -1
2 -1 105 5 105 6 -1 40 0 40 -8 17 -8 17 26 16 26 17 25 -6 25 -6 0 -45 0 -44
38 -10 37 -9 67 -12 67 -12 10 7 11 6 0 73 0 72 11 11 11 11 31 -9 32 -9 22 0
23 0 21 21 20 20 -3 52 -3 52 -66 -3 -66 -3 -13 16 -14 17 -4 89 -4 89 -80 0
-79 0 -21 -11 -20 -11 5 -27 6 -27 -7 -10 -7 -11 -22 -12 -22 -11 -23 0 -24 0
-23 16 -23 17 7 53 6 54 -23 -2 -23 -2 -75 -5z"/>
</g>
</svg>
