<?xml version="1.0" standalone="no"?>
<!DOCTYPE svg PUBLIC "-//W3C//DTD SVG 20010904//EN"
 "http://www.w3.org/TR/2001/REC-SVG-20010904/DTD/svg10.dtd">
<svg version="1.0" xmlns="http://www.w3.org/2000/svg"
 width="81.000000pt" height="68.000000pt" viewBox="0 0 81.000000 68.000000"
 preserveAspectRatio="xMidYMid meet">
<metadata>
Created by potrace 1.16, written by Peter Selinger 2001-2019
</metadata>
<g transform="translate(0.000000,68.000000) scale(0.100000,-0.100000)"
fill="#000000" stroke="none">
<path d="M235 671 l-90 -6 0 -100 0 -100 -20 2 -20 3 -39 1 -40 1 -13 -18 -14
-19 5 -33 5 -34 12 -15 13 -15 60 4 61 3 -3 -95 -2 -95 97 0 98 0 -3 -48 -4
-48 16 -24 15 -23 20 -7 20 -6 30 16 30 15 10 18 10 18 -10 15 -9 14 0 7 0 7
38 10 37 11 58 11 58 11 -7 16 -7 17 -19 54 -19 53 3 47 3 46 20 -4 20 -3 46
0 47 0 28 14 29 13 3 26 3 26 -14 12 -15 12 -26 -12 -26 -12 -26 13 -26 14
-10 20 -11 20 -1 73 -1 74 -100 -3 -100 -3 3 -66 4 -66 -17 -16 -16 -17 -23 0
-23 0 -18 19 -17 20 3 68 4 68 -15 0 -15 1 -90 -5z"/>
</g>
</svg>
