<?xml version="1.0" standalone="no"?>
<!DOCTYPE svg PUBLIC "-//W3C//DTD SVG 20010904//EN"
 "http://www.w3.org/TR/2001/REC-SVG-20010904/DTD/svg10.dtd">
<svg version="1.0" xmlns="http://www.w3.org/2000/svg"
 width="66.000000pt" height="64.000000pt" viewBox="0 0 66.000000 64.000000"
 preserveAspectRatio="xMidYMid meet">
<metadata>
Created by potrace 1.16, written by Peter Selinger 2001-2019
</metadata>
<g transform="translate(0.000000,64.000000) scale(0.100000,-0.100000)"
fill="#000000" stroke="none">
<path d="M342 627 l-12 -14 11 -32 12 -33 -17 -16 -17 -17 -88 -3 -88 -4 -6
-65 -7 -66 -16 -24 -16 -25 -43 6 -43 7 -6 -16 -6 -17 0 -34 0 -34 25 -16 25
-17 39 7 39 6 6 -31 6 -32 0 -76 0 -77 75 7 75 6 20 18 20 18 0 39 0 38 48 0
48 0 12 -12 11 -11 -9 -17 -9 -17 12 -16 12 -16 95 -14 95 -14 4 3 3 3 -12
100 -12 100 -14 12 -13 11 -29 -7 -29 -6 -12 15 -12 15 3 38 3 38 29 -3 29 -3
24 5 23 6 15 30 15 29 0 56 0 56 -32 13 -33 14 -59 12 -60 12 -13 14 -14 14 3
22 3 23 -51 3 -51 3 -11 -14z"/>
</g>
</svg>
