<?xml version="1.0" standalone="no"?>
<!DOCTYPE svg PUBLIC "-//W3C//DTD SVG 20010904//EN"
 "http://www.w3.org/TR/2001/REC-SVG-20010904/DTD/svg10.dtd">
<svg version="1.0" xmlns="http://www.w3.org/2000/svg"
 width="84.000000pt" height="59.000000pt" viewBox="0 0 84.000000 59.000000"
 preserveAspectRatio="xMidYMid meet">
<metadata>
Created by potrace 1.16, written by Peter Selinger 2001-2019
</metadata>
<g transform="translate(0.000000,59.000000) scale(0.100000,-0.100000)"
fill="#000000" stroke="none">
<path d="M519 585 l-7 -6 10 -39 10 -40 -6 -35 -7 -35 -29 -15 -29 -15 -41 0
-41 0 -20 10 -20 11 3 51 3 52 -25 13 -25 13 -60 -2 -60 -3 3 -82 4 -81 -56 0
-56 1 -25 -17 -26 -17 -10 -26 -10 -26 13 -41 13 -41 44 0 44 0 7 -20 8 -20
17 -67 17 -68 88 0 89 0 16 16 16 17 -6 39 -7 39 18 20 17 19 27 0 27 0 17
-39 18 -38 -4 -54 -3 -54 45 -3 45 -3 60 18 60 19 13 93 13 94 16 15 15 16 27
-10 26 -11 13 5 13 4 10 25 10 26 -6 18 -6 19 -20 11 -20 10 -35 -13 -36 -13
-19 24 -19 23 0 90 0 89 -37 16 -38 16 -40 4 -40 5 -6 -7z"/>
</g>
</svg>
