<?xml version="1.0" standalone="no"?>
<!DOCTYPE svg PUBLIC "-//W3C//DTD SVG 20010904//EN"
 "http://www.w3.org/TR/2001/REC-SVG-20010904/DTD/svg10.dtd">
<svg version="1.0" xmlns="http://www.w3.org/2000/svg"
 width="70.000000pt" height="73.000000pt" viewBox="0 0 70.000000 73.000000"
 preserveAspectRatio="xMidYMid meet">
<metadata>
Created by potrace 1.16, written by Peter Selinger 2001-2019
</metadata>
<g transform="translate(0.000000,73.000000) scale(0.100000,-0.100000)"
fill="#000000" stroke="none">
<path d="M442 717 l-13 -15 12 -46 11 -46 -6 -25 -6 -24 -21 -20 -21 -20 -13
5 -13 5 -12 28 -11 28 -1 19 -1 19 7 33 8 32 -116 0 -116 0 0 -89 0 -89 -13
-10 -13 -11 -36 5 -35 6 -17 -23 -16 -23 0 -28 0 -28 23 -14 22 -14 27 -6 27
-6 27 10 27 11 9 -13 8 -13 0 -31 0 -31 -15 -43 -15 -43 0 -23 0 -24 49 0 50
0 24 -9 24 -9 6 -15 6 -15 -11 -36 -11 -36 18 -20 18 -20 63 0 64 0 20 17 21
18 9 37 10 37 -9 40 -9 41 31 0 30 0 54 -17 53 -17 14 20 15 19 10 42 11 42 0
50 0 50 -20 6 -19 6 -34 -6 -35 -7 -30 16 -30 16 -5 12 -4 13 9 18 10 19 59
-7 59 -7 6 16 6 17 -8 97 -9 96 -48 18 -48 18 -52 6 -53 6 -12 -15z"/>
</g>
</svg>
