<?xml version="1.0" standalone="no"?>
<!DOCTYPE svg PUBLIC "-//W3C//DTD SVG 20010904//EN"
 "http://www.w3.org/TR/2001/REC-SVG-20010904/DTD/svg10.dtd">
<svg version="1.0" xmlns="http://www.w3.org/2000/svg"
 width="69.000000pt" height="55.000000pt" viewBox="0 0 69.000000 55.000000"
 preserveAspectRatio="xMidYMid meet">
<metadata>
Created by potrace 1.16, written by Peter Selinger 2001-2019
</metadata>
<g transform="translate(0.000000,55.000000) scale(0.100000,-0.100000)"
fill="#000000" stroke="none">
<path d="M336 541 l-8 -12 7 -39 7 -39 -11 -20 -11 -21 -21 -11 -21 -11 -23 6
-24 6 6 49 5 48 -23 17 -23 16 -87 0 -87 0 -4 -82 -4 -83 4 -18 5 -18 52 6 52
7 22 -28 23 -29 -6 -30 -6 -30 -17 -13 -17 -12 -63 6 -63 7 0 -56 0 -55 12
-51 11 -51 56 0 56 0 37 10 37 11 16 22 15 21 0 38 0 38 16 0 15 0 20 -11 20
-10 -6 -43 -7 -42 16 -13 15 -13 114 -5 114 -6 7 74 7 74 5 21 5 20 47 0 47
-1 9 48 10 49 -15 41 -14 42 -62 3 -61 3 5 78 6 78 -34 7 -34 7 -71 6 -71 6
-7 -12z"/>
</g>
</svg>
