<?xml version="1.0" standalone="no"?>
<!DOCTYPE svg PUBLIC "-//W3C//DTD SVG 20010904//EN"
 "http://www.w3.org/TR/2001/REC-SVG-20010904/DTD/svg10.dtd">
<svg version="1.0" xmlns="http://www.w3.org/2000/svg"
 width="67.000000pt" height="53.000000pt" viewBox="0 0 67.000000 53.000000"
 preserveAspectRatio="xMidYMid meet">
<metadata>
Created by potrace 1.16, written by Peter Selinger 2001-2019
</metadata>
<g transform="translate(0.000000,53.000000) scale(0.100000,-0.100000)"
fill="#000000" stroke="none">
<path d="M338 525 l-7 -7 6 -48 6 -48 -26 -26 -26 -26 -29 0 -28 0 -18 13 -19
14 12 21 11 21 0 20 0 20 -22 15 -22 16 -77 0 -77 0 -4 -74 -3 -74 3 -15 3
-15 53 5 53 5 22 -28 23 -29 -5 -40 -6 -39 -18 -14 -18 -13 -63 6 -62 7 0 -45
0 -45 12 -51 11 -51 46 0 46 0 38 11 37 10 16 24 15 24 -3 33 -3 32 18 4 19 4
24 -6 23 -6 11 -20 10 -19 -12 -26 -12 -26 16 -15 15 -15 107 -6 107 -6 -2 9
-3 9 7 60 8 60 5 27 6 28 46 -3 47 -2 9 45 8 45 -16 38 -16 39 -60 -4 -61 -3
7 81 7 81 -31 6 -31 6 -63 7 -63 6 -7 -7z"/>
</g>
</svg>
