<?xml version="1.0" standalone="no"?>
<!DOCTYPE svg PUBLIC "-//W3C//DTD SVG 20010904//EN"
 "http://www.w3.org/TR/2001/REC-SVG-20010904/DTD/svg10.dtd">
<svg version="1.0" xmlns="http://www.w3.org/2000/svg"
 width="67.000000pt" height="55.000000pt" viewBox="0 0 67.000000 55.000000"
 preserveAspectRatio="xMidYMid meet">
<metadata>
Created by potrace 1.16, written by Peter Selinger 2001-2019
</metadata>
<g transform="translate(0.000000,55.000000) scale(0.100000,-0.100000)"
fill="#000000" stroke="none">
<path d="M140 455 l0 -95 -52 5 -53 6 -14 -9 -13 -10 -5 -44 -5 -44 17 -14 16
-14 32 0 32 0 31 7 32 8 6 -25 6 -25 -16 -81 -17 -81 10 -10 9 -9 97 -7 97 -6
0 9 0 9 -10 40 -9 40 15 22 14 23 25 0 25 0 15 -24 16 -25 -10 -20 -11 -20 0
-20 0 -20 22 -12 22 -12 76 6 76 6 28 11 28 10 -7 23 -7 22 -20 75 -20 75 -10
12 -9 12 -27 3 -27 3 -3 27 -3 27 53 3 53 3 12 25 13 25 0 93 0 92 -13 0 -13
0 -11 -11 -11 -11 -79 -22 -78 -22 0 -32 0 -32 -46 0 -47 0 -11 14 -12 14 7
40 6 40 -20 11 -21 11 -90 0 -91 0 0 -95z"/>
</g>
</svg>
