<?xml version="1.0" standalone="no"?>
<!DOCTYPE svg PUBLIC "-//W3C//DTD SVG 20010904//EN"
 "http://www.w3.org/TR/2001/REC-SVG-20010904/DTD/svg10.dtd">
<svg version="1.0" xmlns="http://www.w3.org/2000/svg"
 width="65.000000pt" height="53.000000pt" viewBox="0 0 65.000000 53.000000"
 preserveAspectRatio="xMidYMid meet">
<metadata>
Created by potrace 1.16, written by Peter Selinger 2001-2019
</metadata>
<g transform="translate(0.000000,53.000000) scale(0.100000,-0.100000)"
fill="#000000" stroke="none">
<path d="M140 436 l0 -94 -12 -5 -13 -4 -28 10 -27 9 -25 -6 -24 -6 -7 -36 -7
-36 16 -15 15 -15 23 0 24 -1 42 8 42 7 6 -33 6 -34 -15 -75 -16 -74 8 -8 8
-8 86 -6 86 -7 -10 47 -10 47 16 24 16 25 35 0 35 0 16 -26 17 -26 -13 -36
-13 -35 19 -15 19 -14 71 6 71 6 27 10 27 10 -10 18 -10 18 -16 69 -16 69 -11
13 -12 14 -23 -5 -23 -6 -6 24 -6 24 4 23 3 24 50 0 49 0 13 25 13 25 0 84 0
83 -15 -12 -15 -13 -78 -21 -77 -22 3 -32 2 -32 -59 0 -59 0 -12 15 -13 15 7
40 6 39 -19 11 -20 10 -80 0 -81 0 0 -94z"/>
</g>
</svg>
