<?xml version="1.0" standalone="no"?>
<!DOCTYPE svg PUBLIC "-//W3C//DTD SVG 20010904//EN"
 "http://www.w3.org/TR/2001/REC-SVG-20010904/DTD/svg10.dtd">
<svg version="1.0" xmlns="http://www.w3.org/2000/svg"
 width="76.000000pt" height="53.000000pt" viewBox="0 0 76.000000 53.000000"
 preserveAspectRatio="xMidYMid meet">
<metadata>
Created by potrace 1.16, written by Peter Selinger 2001-2019
</metadata>
<g transform="translate(0.000000,53.000000) scale(0.100000,-0.100000)"
fill="#000000" stroke="none">
<path d="M130 448 l0 -83 -13 -25 -13 -25 -49 0 -50 0 -3 -24 -4 -23 6 -24 6
-24 23 6 23 5 11 -13 11 -13 22 -80 21 -80 0 -15 1 -15 83 6 82 5 28 18 27 18
-4 56 -3 57 38 3 39 3 20 -18 20 -18 -5 -62 -6 -63 21 -11 22 -12 82 13 81 12
-1 11 -1 12 24 70 24 70 10 13 11 13 17 -4 18 -5 5 15 6 15 0 39 0 39 -21 21
-21 21 -46 -4 -47 -3 0 90 0 90 -70 -3 -70 -3 -23 -5 -23 -5 6 -33 7 -33 -17
-16 -16 -17 -47 0 -47 0 -15 10 -15 9 13 21 13 21 -6 18 -5 18 -26 11 -25 12
-64 0 -65 0 0 -82z"/>
</g>
</svg>
