<?xml version="1.0" standalone="no"?>
<!DOCTYPE svg PUBLIC "-//W3C//DTD SVG 20010904//EN"
 "http://www.w3.org/TR/2001/REC-SVG-20010904/DTD/svg10.dtd">
<svg version="1.0" xmlns="http://www.w3.org/2000/svg"
 width="79.000000pt" height="68.000000pt" viewBox="0 0 79.000000 68.000000"
 preserveAspectRatio="xMidYMid meet">
<metadata>
Created by potrace 1.16, written by Peter Selinger 2001-2019
</metadata>
<g transform="translate(0.000000,68.000000) scale(0.100000,-0.100000)"
fill="#000000" stroke="none">
<path d="M130 611 l0 -68 -21 -28 -22 -27 -44 7 -44 6 3 -68 3 -68 32 2 31 3
11 -33 10 -32 18 -83 18 -83 20 6 20 6 63 6 62 6 -6 -29 -5 -29 13 -40 13 -39
25 -13 25 -13 45 0 46 0 23 16 23 17 -5 39 -5 39 21 8 22 8 57 7 58 7 4 8 5 7
7 92 7 92 14 12 15 12 8 -14 8 -13 30 12 29 12 12 25 11 25 0 20 0 20 -11 20
-11 21 -48 -7 -48 -7 -11 21 -11 20 0 76 0 77 -81 -7 -81 -7 -26 -8 -27 -7 3
-43 3 -43 -20 -18 -20 -19 -18 0 -18 1 -17 13 -17 13 11 31 12 31 -12 25 -12
26 -26 10 -25 10 -75 0 -74 0 0 -69z"/>
</g>
</svg>
