<?xml version="1.0" standalone="no"?>
<!DOCTYPE svg PUBLIC "-//W3C//DTD SVG 20010904//EN"
 "http://www.w3.org/TR/2001/REC-SVG-20010904/DTD/svg10.dtd">
<svg version="1.0" xmlns="http://www.w3.org/2000/svg"
 width="53.000000pt" height="68.000000pt" viewBox="0 0 53.000000 68.000000"
 preserveAspectRatio="xMidYMid meet">
<metadata>
Created by potrace 1.16, written by Peter Selinger 2001-2019
</metadata>
<g transform="translate(0.000000,68.000000) scale(0.100000,-0.100000)"
fill="#000000" stroke="none">
<path d="M0 582 l0 -98 14 -19 14 -19 39 13 40 13 22 -18 21 -18 0 -27 0 -27
-16 -13 -17 -14 -28 3 -28 3 -7 -28 -6 -28 -15 -58 -16 -58 -8 -5 -9 -5 0 -20
0 -21 27 6 28 6 65 2 65 2 12 -7 12 -8 -9 -25 -10 -25 0 -28 0 -28 18 -16 19
-17 39 0 39 0 24 19 24 18 -5 36 -4 37 16 4 15 5 45 6 45 6 34 11 33 10 -6 30
-6 31 0 228 0 229 -62 -1 -63 -1 -30 -7 -30 -6 -1 -45 0 -45 -2 -12 -2 -12
-29 -16 -30 -15 -26 10 -25 10 -9 23 -9 23 11 43 11 42 -14 9 -15 10 -97 0
-98 0 0 -98z"/>
</g>
</svg>
