<?xml version="1.0" standalone="no"?>
<!DOCTYPE svg PUBLIC "-//W3C//DTD SVG 20010904//EN"
 "http://www.w3.org/TR/2001/REC-SVG-20010904/DTD/svg10.dtd">
<svg version="1.0" xmlns="http://www.w3.org/2000/svg"
 width="51.000000pt" height="66.000000pt" viewBox="0 0 51.000000 66.000000"
 preserveAspectRatio="xMidYMid meet">
<metadata>
Created by potrace 1.16, written by Peter Selinger 2001-2019
</metadata>
<g transform="translate(0.000000,66.000000) scale(0.100000,-0.100000)"
fill="#000000" stroke="none">
<path d="M0 572 l0 -88 13 -18 14 -19 21 12 21 11 20 0 21 0 20 -17 20 -17 0
-37 0 -36 -19 -17 -19 -17 -25 6 -26 7 -7 -29 -6 -28 -15 -58 -16 -58 -8 -5
-9 -5 0 -8 0 -7 67 7 68 8 33 -6 32 -5 5 -8 5 -9 -12 -45 -12 -45 19 -21 18
-20 29 0 29 0 25 17 26 17 -6 37 -6 38 17 5 18 5 45 6 45 6 33 11 33 10 -5 15
-6 15 0 234 0 234 -52 -1 -53 -1 -30 -7 -30 -6 3 -47 4 -46 -21 -21 -20 -20
-24 -6 -23 -6 -27 10 -27 11 -11 27 -11 28 12 39 12 39 -14 8 -13 9 -87 0 -88
0 0 -88z"/>
</g>
</svg>
