<?xml version="1.0" standalone="no"?>
<!DOCTYPE svg PUBLIC "-//W3C//DTD SVG 20010904//EN"
 "http://www.w3.org/TR/2001/REC-SVG-20010904/DTD/svg10.dtd">
<svg version="1.0" xmlns="http://www.w3.org/2000/svg"
 width="70.000000pt" height="84.000000pt" viewBox="0 0 70.000000 84.000000"
 preserveAspectRatio="xMidYMid meet">
<metadata>
Created by potrace 1.16, written by Peter Selinger 2001-2019
</metadata>
<g transform="translate(0.000000,84.000000) scale(0.100000,-0.100000)"
fill="#000000" stroke="none">
<path d="M217 828 l-29 -10 4 -72 3 -71 -75 -3 -75 -2 -24 -6 -24 -5 5 -70 5
-71 22 -21 21 -21 40 11 41 10 9 -18 10 -18 -1 -33 -1 -33 -7 -25 -7 -24 -28
-1 -29 0 -8 -15 -8 -15 -20 -65 -19 -64 4 -8 5 -8 69 0 68 0 15 -6 15 -5 -5
-58 -5 -58 27 -21 28 -22 29 0 29 0 25 25 26 26 -4 46 -3 47 25 7 25 7 68 1
67 1 0 73 0 72 6 23 7 23 43 -7 44 -6 23 6 24 6 11 25 12 26 0 23 0 23 -20 18
-20 18 -75 -6 -75 -5 5 36 4 37 6 62 6 61 -19 6 -20 7 -87 14 -88 14 -10 10
-10 10 11 26 12 26 0 9 0 10 -20 20 -20 20 -17 -1 -18 -1 -28 -10z"/>
</g>
</svg>
