<?xml version="1.0" standalone="no"?>
<!DOCTYPE svg PUBLIC "-//W3C//DTD SVG 20010904//EN"
 "http://www.w3.org/TR/2001/REC-SVG-20010904/DTD/svg10.dtd">
<svg version="1.0" xmlns="http://www.w3.org/2000/svg"
 width="65.000000pt" height="55.000000pt" viewBox="0 0 65.000000 55.000000"
 preserveAspectRatio="xMidYMid meet">
<metadata>
Created by potrace 1.16, written by Peter Selinger 2001-2019
</metadata>
<g transform="translate(0.000000,55.000000) scale(0.100000,-0.100000)"
fill="#000000" stroke="none">
<path d="M203 543 l-73 -4 0 -93 0 -93 -45 10 -45 10 -20 -18 -20 -18 0 -54 0
-53 20 -20 20 -20 13 0 12 0 15 10 14 9 13 -11 13 -10 0 -93 0 -92 83 4 82 4
31 5 31 4 13 24 13 24 -5 31 -5 31 20 0 20 0 18 -16 17 -16 -5 -34 -6 -34 13
-15 12 -15 72 1 71 1 25 7 25 7 -2 93 -3 92 -6 11 -6 10 -34 -7 -35 -6 -29 30
-30 29 0 15 0 15 19 23 19 23 27 -12 27 -13 20 7 19 6 10 25 9 24 0 79 0 79
-52 6 -53 7 -40 -4 -40 -3 0 -45 0 -45 -8 -21 -7 -21 -26 -11 -25 -12 -21 0
-21 0 -18 22 -19 21 0 11 0 11 11 39 11 39 -14 8 -13 9 -20 -2 -20 -2 -72 -3z"/>
</g>
</svg>
