<?xml version="1.0" standalone="no"?>
<!DOCTYPE svg PUBLIC "-//W3C//DTD SVG 20010904//EN"
 "http://www.w3.org/TR/2001/REC-SVG-20010904/DTD/svg10.dtd">
<svg version="1.0" xmlns="http://www.w3.org/2000/svg"
 width="58.000000pt" height="53.000000pt" viewBox="0 0 58.000000 53.000000"
 preserveAspectRatio="xMidYMid meet">
<metadata>
Created by potrace 1.16, written by Peter Selinger 2001-2019
</metadata>
<g transform="translate(0.000000,53.000000) scale(0.100000,-0.100000)"
fill="#000000" stroke="none">
<path d="M93 523 l-53 -4 0 -72 0 -72 -6 -21 -6 -21 59 1 59 1 27 -18 27 -17
0 -29 0 -29 -27 -17 -26 -18 -74 6 -73 5 0 -36 0 -37 23 -70 22 -70 92 5 93 5
17 17 17 17 -13 27 -12 26 16 24 15 24 33 0 33 0 22 -16 23 -16 -12 -14 -12
-15 19 -18 19 -18 60 -13 60 -12 15 -1 14 -2 15 29 14 30 1 55 1 56 -15 -4
-15 -4 -21 -4 -22 -5 -36 17 -37 18 -14 26 -13 26 8 44 8 43 11 11 11 11 25
-14 26 -14 17 10 17 11 12 34 12 34 0 43 1 42 -92 0 -93 0 -14 -9 -13 -9 12
-38 13 -38 -24 -19 -24 -19 -44 6 -44 6 -14 18 -14 17 5 48 5 47 -32 -2 -32
-2 -52 -3z"/>
</g>
</svg>
