<?xml version="1.0" standalone="no"?>
<!DOCTYPE svg PUBLIC "-//W3C//DTD SVG 20010904//EN"
 "http://www.w3.org/TR/2001/REC-SVG-20010904/DTD/svg10.dtd">
<svg version="1.0" xmlns="http://www.w3.org/2000/svg"
 width="60.000000pt" height="55.000000pt" viewBox="0 0 60.000000 55.000000"
 preserveAspectRatio="xMidYMid meet">
<metadata>
Created by potrace 1.16, written by Peter Selinger 2001-2019
</metadata>
<g transform="translate(0.000000,55.000000) scale(0.100000,-0.100000)"
fill="#000000" stroke="none">
<path d="M93 543 l-53 -4 0 -67 0 -67 -6 -37 -7 -38 60 3 59 2 27 -18 27 -17
0 -19 0 -19 -27 -17 -26 -17 -74 6 -73 7 0 -46 0 -47 22 -72 22 -72 91 4 90 4
25 12 25 12 0 48 0 49 17 10 17 11 28 -10 28 -10 -3 -25 -3 -25 18 -16 18 -15
60 -13 60 -13 25 -1 24 -1 14 29 15 29 5 62 5 62 -12 8 -12 7 -28 -11 -27 -12
-27 10 -26 10 -21 21 -20 20 0 38 0 38 13 19 14 18 7 -11 7 -12 29 0 30 0 16
25 17 26 5 69 5 70 -104 0 -104 0 -15 -10 -14 -9 11 -41 11 -41 -24 -15 -23
-16 -33 7 -33 8 -12 16 -13 16 6 48 6 47 -44 -2 -43 -2 -52 -3z"/>
</g>
</svg>
