<?xml version="1.0" standalone="no"?>
<!DOCTYPE svg PUBLIC "-//W3C//DTD SVG 20010904//EN"
 "http://www.w3.org/TR/2001/REC-SVG-20010904/DTD/svg10.dtd">
<svg version="1.0" xmlns="http://www.w3.org/2000/svg"
 width="58.000000pt" height="67.000000pt" viewBox="0 0 58.000000 67.000000"
 preserveAspectRatio="xMidYMid meet">
<metadata>
Created by potrace 1.16, written by Peter Selinger 2001-2019
</metadata>
<g transform="translate(0.000000,67.000000) scale(0.100000,-0.100000)"
fill="#000000" stroke="none">
<path d="M23 575 l-2 -95 10 0 10 0 19 10 19 10 28 -11 28 -10 23 -21 22 -21
0 -28 0 -28 -34 -26 -35 -27 -57 8 -57 7 7 -74 7 -74 -1 -29 -1 -29 96 6 95 6
0 -30 0 -30 14 -34 14 -33 20 -11 21 -11 26 0 26 0 20 10 19 11 16 31 16 31
-5 39 -5 38 9 5 8 6 65 -12 65 -12 15 12 14 12 11 64 12 65 -7 25 -6 26 -58
-7 -57 -6 -33 29 -33 29 7 37 7 37 17 9 18 10 15 -10 14 -9 32 0 32 0 11 19
10 20 0 80 0 81 -97 0 -98 0 -13 -9 -14 -8 7 -46 7 -46 -27 -25 -27 -25 -28
14 -28 14 -6 16 -6 17 6 38 6 38 -20 11 -21 11 -83 0 -83 0 -2 -95z"/>
</g>
</svg>
