<?xml version="1.0" standalone="no"?>
<!DOCTYPE svg PUBLIC "-//W3C//DTD SVG 20010904//EN"
 "http://www.w3.org/TR/2001/REC-SVG-20010904/DTD/svg10.dtd">
<svg version="1.0" xmlns="http://www.w3.org/2000/svg"
 width="69.000000pt" height="67.000000pt" viewBox="0 0 69.000000 67.000000"
 preserveAspectRatio="xMidYMid meet">
<metadata>
Created by potrace 1.16, written by Peter Selinger 2001-2019
</metadata>
<g transform="translate(0.000000,67.000000) scale(0.100000,-0.100000)"
fill="#000000" stroke="none">
<path d="M164 600 l-1 -69 -17 -26 -18 -27 -56 4 -55 3 -8 -28 -8 -29 11 -23
11 -24 28 -11 28 -12 40 7 41 7 10 -26 9 -26 -6 -80 -6 -80 64 0 64 0 35 -18
35 -17 1 -50 1 -50 2 -12 1 -13 35 0 36 0 29 15 30 16 2 12 1 12 1 30 1 30 60
14 60 13 28 11 27 12 2 70 1 70 -2 30 -3 30 -8 9 -9 9 -42 -11 -43 -11 -18 10
-18 9 -10 20 -11 20 13 28 14 27 19 -2 20 -2 31 -7 32 -6 16 23 16 23 0 79 0
79 -27 -6 -28 -6 -55 -10 -55 -11 -23 -9 -22 -10 6 -26 7 -26 -14 -9 -14 -9
-33 0 -33 0 -22 11 -22 12 -7 11 -8 11 0 31 0 30 12 12 12 12 -95 0 -94 0 -1
-70z"/>
</g>
</svg>
