<?xml version="1.0" standalone="no"?>
<!DOCTYPE svg PUBLIC "-//W3C//DTD SVG 20010904//EN"
 "http://www.w3.org/TR/2001/REC-SVG-20010904/DTD/svg10.dtd">
<svg version="1.0" xmlns="http://www.w3.org/2000/svg"
 width="71.000000pt" height="69.000000pt" viewBox="0 0 71.000000 69.000000"
 preserveAspectRatio="xMidYMid meet">
<metadata>
Created by potrace 1.16, written by Peter Selinger 2001-2019
</metadata>
<g transform="translate(0.000000,69.000000) scale(0.100000,-0.100000)"
fill="#000000" stroke="none">
<path d="M164 621 l0 -69 -18 -26 -17 -27 -56 3 -56 3 -9 -34 -9 -34 11 -28
12 -27 29 -12 29 -13 41 6 40 5 8 -21 8 -22 -5 -83 -5 -82 64 0 64 0 35 -18
35 -17 -2 -40 -2 -40 5 -22 4 -23 46 0 45 0 29 15 30 15 6 24 5 23 -3 19 -3
19 60 14 60 13 26 11 27 11 4 85 5 85 -7 31 -6 30 -58 -3 -58 -2 -14 11 -14
11 0 23 0 23 13 10 13 11 14 -9 15 -10 32 0 32 0 15 22 16 22 0 89 0 89 -32
-5 -33 -5 -60 -11 -60 -12 -24 -10 -23 -10 6 -29 5 -30 -24 -6 -25 -6 -24 6
-25 6 -15 16 -16 15 0 24 0 24 10 6 10 6 0 15 0 14 -102 0 -103 0 -1 -69z"/>
</g>
</svg>
