<?xml version="1.0" standalone="no"?>
<!DOCTYPE svg PUBLIC "-//W3C//DTD SVG 20010904//EN"
 "http://www.w3.org/TR/2001/REC-SVG-20010904/DTD/svg10.dtd">
<svg version="1.0" xmlns="http://www.w3.org/2000/svg"
 width="51.000000pt" height="55.000000pt" viewBox="0 0 51.000000 55.000000"
 preserveAspectRatio="xMidYMid meet">
<metadata>
Created by potrace 1.16, written by Peter Selinger 2001-2019
</metadata>
<g transform="translate(0.000000,55.000000) scale(0.100000,-0.100000)"
fill="#000000" stroke="none">
<path d="M72 543 l-72 -4 0 -50 0 -50 14 -34 15 -35 21 0 21 0 20 11 20 10 20
-22 19 -22 0 -41 0 -42 -16 -22 -16 -23 -46 3 -46 3 -7 -40 -7 -40 -4 -58 -5
-58 96 3 96 3 -3 62 -4 61 20 11 21 11 34 0 34 0 16 -18 17 -19 0 -24 0 -24
-10 -34 -10 -34 11 -14 11 -13 35 0 34 0 45 11 46 12 9 24 9 24 0 68 0 69 -13
10 -13 11 -14 -9 -15 -10 -22 0 -23 0 -20 20 -20 20 0 48 0 47 8 12 8 13 34
-10 34 -10 22 14 21 15 6 37 6 37 -6 44 -6 44 -91 -3 -91 -3 3 -47 4 -46 -21
-21 -21 -21 -30 0 -30 0 -20 20 -19 19 -7 26 -7 26 11 24 11 23 -6 6 -6 6 -16
-2 -16 -2 -73 -3z"/>
</g>
</svg>
