<?xml version="1.0" standalone="no"?>
<!DOCTYPE svg PUBLIC "-//W3C//DTD SVG 20010904//EN"
 "http://www.w3.org/TR/2001/REC-SVG-20010904/DTD/svg10.dtd">
<svg version="1.0" xmlns="http://www.w3.org/2000/svg"
 width="52.000000pt" height="67.000000pt" viewBox="0 0 52.000000 67.000000"
 preserveAspectRatio="xMidYMid meet">
<metadata>
Created by potrace 1.16, written by Peter Selinger 2001-2019
</metadata>
<g transform="translate(0.000000,67.000000) scale(0.100000,-0.100000)"
fill="#000000" stroke="none">
<path d="M0 598 l0 -74 14 -19 14 -19 41 14 41 13 25 -11 24 -11 11 -40 10
-39 -9 -25 -10 -26 -22 -12 -22 -11 -53 6 -54 6 -5 -23 -6 -22 3 -70 3 -70 75
-6 75 -5 21 -12 22 -11 5 -15 6 -14 -11 -35 -11 -36 16 -15 16 -16 30 0 31 0
20 20 20 20 0 24 0 25 -9 25 -10 24 14 12 14 11 89 -3 88 -3 -4 55 -4 55 -7
40 -7 40 -15 -1 -14 -1 -21 -7 -20 -6 -20 14 -19 14 0 57 0 57 20 15 20 15 51
-5 52 -5 -5 41 -4 42 -5 43 -5 42 -83 0 -84 0 -10 -13 -11 -13 9 -14 10 -15 0
-21 0 -21 -18 -16 -19 -17 -50 0 -51 0 -16 6 -15 6 6 47 5 47 -16 13 -16 14
-70 5 -70 5 0 -75z"/>
</g>
</svg>
