<?xml version="1.0" standalone="no"?>
<!DOCTYPE svg PUBLIC "-//W3C//DTD SVG 20010904//EN"
 "http://www.w3.org/TR/2001/REC-SVG-20010904/DTD/svg10.dtd">
<svg version="1.0" xmlns="http://www.w3.org/2000/svg"
 width="67.000000pt" height="54.000000pt" viewBox="0 0 67.000000 54.000000"
 preserveAspectRatio="xMidYMid meet">
<metadata>
Created by potrace 1.16, written by Peter Selinger 2001-2019
</metadata>
<g transform="translate(0.000000,54.000000) scale(0.100000,-0.100000)"
fill="#000000" stroke="none">
<path d="M150 465 l0 -74 -12 -27 -12 -26 -49 6 -49 7 -14 -12 -14 -11 0 -44
0 -43 30 -16 29 -15 30 0 30 0 25 10 26 9 10 -19 10 -19 -16 -71 -16 -70 -9
-5 -9 -6 0 -17 0 -17 121 -3 122 -3 -7 23 -8 23 -5 21 -5 22 20 46 21 46 14 0
14 0 27 -21 26 -20 -6 -54 -7 -53 19 -5 19 -6 83 -7 82 -7 0 85 0 85 -6 33 -7
32 -40 -6 -40 -7 -23 16 -24 15 0 24 0 24 6 15 5 14 44 -4 43 -5 17 25 16 26
6 75 6 76 -74 -1 -74 -1 -25 -7 -25 -7 0 -53 0 -53 -24 -19 -23 -19 -18 0 -17
0 -28 22 -27 21 6 57 7 58 -16 6 -17 6 -84 0 -84 0 0 -75z"/>
</g>
</svg>
