<?xml version="1.0" standalone="no"?>
<!DOCTYPE svg PUBLIC "-//W3C//DTD SVG 20010904//EN"
 "http://www.w3.org/TR/2001/REC-SVG-20010904/DTD/svg10.dtd">
<svg version="1.0" xmlns="http://www.w3.org/2000/svg"
 width="65.000000pt" height="52.000000pt" viewBox="0 0 65.000000 52.000000"
 preserveAspectRatio="xMidYMid meet">
<metadata>
Created by potrace 1.16, written by Peter Selinger 2001-2019
</metadata>
<g transform="translate(0.000000,52.000000) scale(0.100000,-0.100000)"
fill="#000000" stroke="none">
<path d="M150 445 l0 -74 -11 -25 -11 -24 -20 -5 -19 -5 -30 10 -29 10 -15
-12 -15 -12 0 -34 0 -34 35 -17 36 -17 47 13 46 12 13 -17 13 -18 0 -13 0 -14
-16 -69 -16 -70 -9 -5 -9 -6 0 -7 0 -7 111 -3 111 -4 -11 20 -11 21 0 28 0 28
20 42 19 43 24 0 24 0 28 -21 27 -22 -7 -53 -6 -52 18 -5 18 -6 73 -6 72 -7 0
75 0 74 -6 32 -6 31 -39 -6 -39 -7 -25 17 -25 16 0 34 0 34 6 17 6 16 43 -7
43 -6 16 25 16 24 7 67 6 66 -64 -1 -64 -1 -25 -7 -25 -7 3 -47 4 -46 -26 -26
-25 -25 -29 0 -29 0 -28 22 -27 21 5 58 5 58 -15 5 -15 6 -74 0 -74 0 0 -75z"/>
</g>
</svg>
