<?xml version="1.0" standalone="no"?>
<!DOCTYPE svg PUBLIC "-//W3C//DTD SVG 20010904//EN"
 "http://www.w3.org/TR/2001/REC-SVG-20010904/DTD/svg10.dtd">
<svg version="1.0" xmlns="http://www.w3.org/2000/svg"
 width="65.000000pt" height="67.000000pt" viewBox="0 0 65.000000 67.000000"
 preserveAspectRatio="xMidYMid meet">
<metadata>
Created by potrace 1.16, written by Peter Selinger 2001-2019
</metadata>
<g transform="translate(0.000000,67.000000) scale(0.100000,-0.100000)"
fill="#000000" stroke="none">
<path d="M140 610 l0 -61 -15 -29 -15 -30 -23 -6 -24 -5 -29 3 -29 3 -3 -38
-3 -38 12 -15 12 -15 29 6 29 7 13 -12 14 -11 13 -104 12 -105 77 0 78 0 12
-14 12 -15 -8 -57 -7 -56 14 -9 14 -9 51 0 50 0 22 20 22 21 0 22 0 22 -9 32
-9 32 14 12 15 12 74 -6 74 -7 5 9 6 9 2 81 3 80 -11 11 -11 11 -28 -11 -28
-11 -34 12 -33 11 -10 18 -10 19 0 30 0 31 20 20 20 20 15 0 14 0 27 -12 26
-12 19 23 19 23 0 70 0 70 -17 -7 -18 -6 -55 -15 -54 -14 -16 0 -16 0 -19 -14
-19 -14 13 -16 14 -16 -18 -20 -18 -20 -33 0 -33 0 -21 27 -22 28 6 25 5 25 3
20 3 20 -92 3 -93 3 0 -61z"/>
</g>
</svg>
