<?xml version="1.0" standalone="no"?>
<!DOCTYPE svg PUBLIC "-//W3C//DTD SVG 20010904//EN"
 "http://www.w3.org/TR/2001/REC-SVG-20010904/DTD/svg10.dtd">
<svg version="1.0" xmlns="http://www.w3.org/2000/svg"
 width="67.000000pt" height="69.000000pt" viewBox="0 0 67.000000 69.000000"
 preserveAspectRatio="xMidYMid meet">
<metadata>
Created by potrace 1.16, written by Peter Selinger 2001-2019
</metadata>
<g transform="translate(0.000000,69.000000) scale(0.100000,-0.100000)"
fill="#000000" stroke="none">
<path d="M140 630 l0 -61 -15 -29 -15 -30 -23 -4 -22 -4 -30 1 -30 2 -3 -48
-3 -49 12 -15 13 -15 32 5 33 6 10 -12 9 -12 13 -103 12 -102 77 0 76 0 12
-12 11 -11 -6 -60 -6 -59 14 -9 14 -9 61 0 60 0 23 21 23 21 -4 62 -3 61 85 0
85 0 7 65 7 65 -5 38 -6 38 -14 6 -14 5 -28 -10 -28 -10 -32 14 -31 13 -7 25
-6 25 7 20 6 21 20 10 19 11 19 -11 20 -10 20 0 20 0 15 22 16 22 0 79 0 79
-22 -5 -23 -5 -70 -17 -70 -17 -24 -9 -23 -10 5 -28 6 -29 -14 -12 -14 -12
-22 4 -22 3 -20 27 -20 27 13 30 12 31 -6 15 -5 15 -101 0 -100 0 0 -60z"/>
</g>
</svg>
