<?xml version="1.0" standalone="no"?>
<!DOCTYPE svg PUBLIC "-//W3C//DTD SVG 20010904//EN"
 "http://www.w3.org/TR/2001/REC-SVG-20010904/DTD/svg10.dtd">
<svg version="1.0" xmlns="http://www.w3.org/2000/svg"
 width="80.000000pt" height="68.000000pt" viewBox="0 0 80.000000 68.000000"
 preserveAspectRatio="xMidYMid meet">
<metadata>
Created by potrace 1.16, written by Peter Selinger 2001-2019
</metadata>
<g transform="translate(0.000000,68.000000) scale(0.100000,-0.100000)"
fill="#000000" stroke="none">
<path d="M133 612 l6 -69 -9 -37 -8 -38 -6 -5 -6 -6 -41 12 -40 12 -15 -12
-14 -11 0 -43 0 -43 6 -16 6 -16 23 0 23 0 12 -38 11 -37 22 -58 22 -57 101 0
102 0 -5 -44 -5 -44 21 -31 22 -31 50 0 50 0 20 11 20 10 -3 37 -3 36 70 19
70 18 9 9 9 9 -12 90 -13 89 12 21 11 21 9 0 9 0 7 -11 6 -11 36 7 35 6 23 16
24 15 0 38 0 39 -16 15 -15 16 -64 0 -63 0 6 85 5 85 -6 0 -5 0 -89 -21 -88
-20 -19 -6 -18 -5 5 -33 5 -33 -15 -6 -15 -6 -32 0 -32 0 -20 15 -21 14 10 46
11 47 -15 9 -14 9 -84 0 -84 0 6 -68z"/>
</g>
</svg>
