<?xml version="1.0" standalone="no"?>
<!DOCTYPE svg PUBLIC "-//W3C//DTD SVG 20010904//EN"
 "http://www.w3.org/TR/2001/REC-SVG-20010904/DTD/svg10.dtd">
<svg version="1.0" xmlns="http://www.w3.org/2000/svg"
 width="78.000000pt" height="66.000000pt" viewBox="0 0 78.000000 66.000000"
 preserveAspectRatio="xMidYMid meet">
<metadata>
Created by potrace 1.16, written by Peter Selinger 2001-2019
</metadata>
<g transform="translate(0.000000,66.000000) scale(0.100000,-0.100000)"
fill="#000000" stroke="none">
<path d="M133 578 l2 -83 -8 -27 -7 -28 -28 1 -27 0 -20 8 -20 9 -12 -10 -13
-10 0 -37 0 -36 8 -10 7 -10 13 -1 12 -1 9 -1 9 -2 12 -37 11 -38 22 -57 22
-58 102 0 102 0 7 -11 6 -11 -11 -11 -11 -11 0 -24 0 -24 21 -29 20 -29 40 0
40 0 20 11 20 10 -3 37 -3 36 70 19 70 18 8 8 8 8 -12 87 -12 86 11 25 12 25
19 0 20 0 6 -10 6 -10 27 7 27 6 23 15 22 14 0 28 0 29 -17 16 -16 17 -61 -4
-61 -3 4 86 3 87 -97 -23 -96 -23 -7 -6 -6 -7 12 -19 12 -19 -16 -16 -15 -15
-49 0 -48 0 -22 18 -22 18 12 43 12 44 -14 8 -13 9 -72 0 -73 0 3 -82z"/>
</g>
</svg>
