<?xml version="1.0" standalone="no"?>
<!DOCTYPE svg PUBLIC "-//W3C//DTD SVG 20010904//EN"
 "http://www.w3.org/TR/2001/REC-SVG-20010904/DTD/svg10.dtd">
<svg version="1.0" xmlns="http://www.w3.org/2000/svg"
 width="78.000000pt" height="66.000000pt" viewBox="0 0 78.000000 66.000000"
 preserveAspectRatio="xMidYMid meet">
<metadata>
Created by potrace 1.16, written by Peter Selinger 2001-2019
</metadata>
<g transform="translate(0.000000,66.000000) scale(0.100000,-0.100000)"
fill="#000000" stroke="none">
<path d="M130 571 l0 -90 -12 -8 -13 -8 -50 0 -50 0 0 -60 0 -60 44 0 44 0 9
-30 8 -30 2 -81 2 -81 104 5 104 5 -11 -21 -11 -21 0 -19 0 -19 21 -27 20 -26
46 0 46 0 19 22 19 22 -3 41 -3 40 90 5 90 5 -1 30 -1 30 -11 50 -10 50 4 7 5
8 37 -6 37 -6 35 24 35 24 3 57 3 56 -12 22 -11 22 -55 -6 -55 -6 2 67 3 67
-2 13 -1 12 -15 0 -16 0 -22 -14 -22 -14 -52 -12 -51 -12 -18 -13 -18 -13 12
-26 11 -26 -19 -10 -19 -10 -34 0 -35 0 -12 15 -12 15 7 56 7 57 -14 8 -13 9
-92 0 -93 0 0 -89z"/>
</g>
</svg>
