<?xml version="1.0" standalone="no"?>
<!DOCTYPE svg PUBLIC "-//W3C//DTD SVG 20010904//EN"
 "http://www.w3.org/TR/2001/REC-SVG-20010904/DTD/svg10.dtd">
<svg version="1.0" xmlns="http://www.w3.org/2000/svg"
 width="76.000000pt" height="64.000000pt" viewBox="0 0 76.000000 64.000000"
 preserveAspectRatio="xMidYMid meet">
<metadata>
Created by potrace 1.16, written by Peter Selinger 2001-2019
</metadata>
<g transform="translate(0.000000,64.000000) scale(0.100000,-0.100000)"
fill="#000000" stroke="none">
<path d="M130 551 l0 -89 -14 -11 -13 -11 -49 2 -49 3 0 -50 0 -50 44 0 44 0
9 -30 8 -30 2 -80 3 -80 104 3 104 4 -7 -24 -7 -23 -5 -15 -5 -16 21 -27 21
-27 36 0 36 0 18 22 19 21 0 22 0 21 -10 10 -11 11 14 11 13 11 84 3 85 3 -1
20 -2 20 -11 54 -11 55 6 19 6 18 15 -5 15 -6 22 -6 22 -5 34 23 35 24 3 46 3
47 -11 22 -12 21 -36 -5 -37 -5 -15 -3 -15 -4 -1 78 -2 78 -5 5 -5 6 -24 -15
-23 -15 -35 -7 -35 -7 -33 -14 -32 -13 12 -27 12 -26 -19 -14 -19 -14 -47 0
-47 0 -12 15 -13 15 6 59 6 59 -15 6 -16 6 -79 0 -79 0 0 -89z"/>
</g>
</svg>
