<?xml version="1.0" standalone="no"?>
<!DOCTYPE svg PUBLIC "-//W3C//DTD SVG 20010904//EN"
 "http://www.w3.org/TR/2001/REC-SVG-20010904/DTD/svg10.dtd">
<svg version="1.0" xmlns="http://www.w3.org/2000/svg"
 width="52.000000pt" height="52.000000pt" viewBox="0 0 52.000000 52.000000"
 preserveAspectRatio="xMidYMid meet">
<metadata>
Created by potrace 1.16, written by Peter Selinger 2001-2019
</metadata>
<g transform="translate(0.000000,52.000000) scale(0.100000,-0.100000)"
fill="#000000" stroke="none">
<path d="M0 264 l0 -259 99 -3 99 -3 -9 45 -8 46 6 17 6 18 15 18 15 17 32 0
33 0 12 -15 13 -16 -12 -26 -12 -26 15 -15 14 -15 75 -13 74 -12 18 -4 19 -3
8 40 9 40 -3 50 -3 50 -15 -1 -15 -1 -42 -7 -42 -8 -26 26 -25 25 0 36 0 35
20 20 20 20 19 0 20 0 28 -11 27 -10 13 17 13 18 0 76 0 77 -81 -23 -81 -24
-8 -5 -9 -5 6 -34 5 -33 -23 -6 -24 -7 -46 0 -45 0 -19 14 -18 13 13 47 13 47
-12 12 -12 12 -84 4 -85 3 0 -258z"/>
</g>
</svg>
