<?xml version="1.0" standalone="no"?>
<!DOCTYPE svg PUBLIC "-//W3C//DTD SVG 20010904//EN"
 "http://www.w3.org/TR/2001/REC-SVG-20010904/DTD/svg10.dtd">
<svg version="1.0" xmlns="http://www.w3.org/2000/svg"
 width="54.000000pt" height="54.000000pt" viewBox="0 0 54.000000 54.000000"
 preserveAspectRatio="xMidYMid meet">
<metadata>
Created by potrace 1.16, written by Peter Selinger 2001-2019
</metadata>
<g transform="translate(0.000000,54.000000) scale(0.100000,-0.100000)"
fill="#000000" stroke="none">
<path d="M0 273 l0 -268 111 -3 111 -3 -7 30 -6 30 -1 30 -1 31 18 20 18 20
22 0 21 0 11 -11 11 -11 -11 -29 -11 -29 16 -16 16 -17 79 -14 78 -14 25 -2
24 -2 7 30 7 30 1 68 1 68 -13 5 -14 5 -44 -10 -44 -10 -22 15 -23 14 -6 24
-6 25 7 20 6 21 20 10 19 11 41 -13 41 -12 14 19 14 19 0 88 0 88 -5 0 -5 0
-86 -25 -86 -25 -10 -6 -10 -6 6 -33 6 -33 -22 -6 -23 -6 -36 0 -35 0 -18 13
-17 13 10 27 11 28 0 25 0 24 -26 10 -25 10 -80 0 -79 0 0 -267z"/>
</g>
</svg>
