<?xml version="1.0" standalone="no"?>
<!DOCTYPE svg PUBLIC "-//W3C//DTD SVG 20010904//EN"
 "http://www.w3.org/TR/2001/REC-SVG-20010904/DTD/svg10.dtd">
<svg version="1.0" xmlns="http://www.w3.org/2000/svg"
 width="53.000000pt" height="69.000000pt" viewBox="0 0 53.000000 69.000000"
 preserveAspectRatio="xMidYMid meet">
<metadata>
Created by potrace 1.16, written by Peter Selinger 2001-2019
</metadata>
<g transform="translate(0.000000,69.000000) scale(0.100000,-0.100000)"
fill="#000000" stroke="none">
<path d="M10 594 l0 -95 11 -20 11 -21 46 4 47 3 0 -30 0 -29 -24 -12 -24 -12
-23 10 -23 11 -15 -6 -16 -6 0 -84 0 -85 6 -31 6 -31 74 0 73 0 25 -10 25 -9
-6 -51 -6 -50 18 -20 18 -20 34 0 33 0 21 21 20 20 -2 57 -3 57 95 5 94 5 3
80 3 80 -15 20 -14 19 -26 -12 -27 -12 -14 0 -13 0 -32 31 -31 32 3 31 3 31
68 -4 67 -3 15 36 15 35 0 76 0 75 -6 0 -6 0 -47 -15 -46 -15 -44 -11 -43 -10
5 -35 6 -34 -16 -16 -16 -16 -23 -9 -24 -8 -17 6 -18 6 -18 15 -18 16 7 58 7
58 -27 10 -27 10 -75 0 -74 0 0 -96z"/>
</g>
</svg>
