<?xml version="1.0" standalone="no"?>
<!DOCTYPE svg PUBLIC "-//W3C//DTD SVG 20010904//EN"
 "http://www.w3.org/TR/2001/REC-SVG-20010904/DTD/svg10.dtd">
<svg version="1.0" xmlns="http://www.w3.org/2000/svg"
 width="51.000000pt" height="56.000000pt" viewBox="0 0 51.000000 56.000000"
 preserveAspectRatio="xMidYMid meet">
<metadata>
Created by potrace 1.16, written by Peter Selinger 2001-2019
</metadata>
<g transform="translate(0.000000,56.000000) scale(0.100000,-0.100000)"
fill="#000000" stroke="none">
<path d="M2 463 l3 -98 20 3 20 2 43 3 43 2 9 -15 10 -15 0 -37 0 -37 -11 -25
-11 -24 -20 -5 -20 -6 -26 10 -25 10 -10 -10 -10 -10 -7 -78 -8 -78 3 -3 3 -4
80 -5 80 -6 15 6 14 5 -9 57 -8 56 12 27 13 27 37 3 38 3 25 -25 25 -25 0 -38
0 -38 -9 -37 -9 -36 11 -11 11 -11 27 0 27 0 51 17 51 16 0 12 0 12 -20 78
-20 78 -6 6 -6 6 -41 0 -42 0 -13 41 -13 41 10 26 10 26 26 17 25 17 55 -1 55
0 0 26 0 27 -7 54 -6 53 -89 -4 -88 -4 -10 -10 -10 -10 11 -38 10 -37 -16 -25
-15 -24 -35 0 -35 0 -21 21 -22 22 6 58 5 59 -94 0 -95 0 3 -97z"/>
</g>
</svg>
