<?xml version="1.0" standalone="no"?>
<!DOCTYPE svg PUBLIC "-//W3C//DTD SVG 20010904//EN"
 "http://www.w3.org/TR/2001/REC-SVG-20010904/DTD/svg10.dtd">
<svg version="1.0" xmlns="http://www.w3.org/2000/svg"
 width="51.000000pt" height="66.000000pt" viewBox="0 0 51.000000 66.000000"
 preserveAspectRatio="xMidYMid meet">
<metadata>
Created by potrace 1.16, written by Peter Selinger 2001-2019
</metadata>
<g transform="translate(0.000000,66.000000) scale(0.100000,-0.100000)"
fill="#000000" stroke="none">
<path d="M355 651 l-5 -10 6 -40 6 -40 -25 -25 -26 -26 -49 0 -49 0 -17 19
-18 20 7 31 7 31 -12 14 -12 15 -79 0 -79 0 0 -32 0 -33 -6 -50 -6 -50 61 3
61 4 16 -39 16 -38 -8 -45 -9 -45 -48 2 -47 3 -1 -8 0 -7 -13 -83 -12 -83 5
-4 4 -5 69 0 68 0 20 -20 20 -20 0 -11 0 -10 -11 -20 -10 -20 12 -15 11 -14
39 0 39 0 15 24 16 23 0 34 0 34 -3 20 -3 20 40 3 40 4 53 -12 54 -12 4 5 4 4
-15 69 -15 69 -6 23 -5 23 -43 -6 -43 -7 -17 27 -18 28 5 41 6 40 18 13 17 13
16 -6 15 -7 31 -4 32 -5 16 23 16 23 0 68 0 67 -37 10 -38 11 -37 0 -37 0 -6
-9z"/>
</g>
</svg>
