<?xml version="1.0" standalone="no"?>
<!DOCTYPE svg PUBLIC "-//W3C//DTD SVG 20010904//EN"
 "http://www.w3.org/TR/2001/REC-SVG-20010904/DTD/svg10.dtd">
<svg version="1.0" xmlns="http://www.w3.org/2000/svg"
 width="84.000000pt" height="67.000000pt" viewBox="0 0 84.000000 67.000000"
 preserveAspectRatio="xMidYMid meet">
<metadata>
Created by potrace 1.16, written by Peter Selinger 2001-2019
</metadata>
<g transform="translate(0.000000,67.000000) scale(0.100000,-0.100000)"
fill="#000000" stroke="none">
<path d="M377 664 l-5 -6 5 -53 6 -53 -28 -18 -28 -18 -81 -6 -81 -5 2 -87 1
-88 -49 0 -50 0 -29 -15 -29 -15 -6 -20 -6 -20 6 -20 6 -20 20 -10 19 -11 21
12 21 11 10 -10 9 -9 19 -91 18 -91 6 -9 5 -9 85 -2 84 -2 27 7 27 7 -7 67 -7
68 25 17 26 16 19 -10 19 -10 12 -15 12 -14 -13 -21 -13 -21 15 -14 15 -13 69
-17 69 -17 28 -15 28 -14 10 37 9 38 7 45 6 45 6 18 5 18 36 -6 37 -6 18 13
17 13 6 36 6 36 -18 17 -18 18 -40 -6 -41 -6 -19 -3 -20 -2 -7 25 -7 25 6 79
5 79 -30 -6 -30 -6 -50 -7 -50 -6 -21 11 -22 12 7 59 6 60 -18 20 -18 20 -37
0 -37 0 -6 -6z"/>
</g>
</svg>
