<?xml version="1.0" standalone="no"?>
<!DOCTYPE svg PUBLIC "-//W3C//DTD SVG 20010904//EN"
 "http://www.w3.org/TR/2001/REC-SVG-20010904/DTD/svg10.dtd">
<svg version="1.0" xmlns="http://www.w3.org/2000/svg"
 width="58.000000pt" height="69.000000pt" viewBox="0 0 58.000000 69.000000"
 preserveAspectRatio="xMidYMid meet">
<metadata>
Created by potrace 1.16, written by Peter Selinger 2001-2019
</metadata>
<g transform="translate(0.000000,69.000000) scale(0.100000,-0.100000)"
fill="#000000" stroke="none">
<path d="M249 669 l-21 -21 6 -24 6 -24 5 -22 6 -23 -28 -12 -27 -13 -87 0
-87 0 -7 -99 -7 -100 7 -10 6 -11 62 6 62 6 20 -16 20 -15 -11 -18 -11 -18
-38 -13 -38 -13 -11 11 -10 10 -27 0 -27 0 -6 -16 -6 -16 0 -47 0 -48 10 -54
10 -53 13 -8 12 -8 40 0 40 0 40 10 40 9 18 22 18 22 -3 40 -3 40 26 7 27 8
26 -5 27 -6 -5 -26 -6 -26 8 -12 8 -12 87 -26 87 -25 24 0 24 0 7 62 7 63 -4
50 -3 50 -66 -3 -66 -2 -13 15 -12 15 6 15 5 15 55 -6 54 -7 11 21 11 21 0
100 0 100 -107 3 -108 3 3 67 4 66 -20 11 -21 11 -20 0 -21 0 -21 -21z"/>
</g>
</svg>
