<?xml version="1.0" standalone="no"?>
<!DOCTYPE svg PUBLIC "-//W3C//DTD SVG 20010904//EN"
 "http://www.w3.org/TR/2001/REC-SVG-20010904/DTD/svg10.dtd">
<svg version="1.0" xmlns="http://www.w3.org/2000/svg"
 width="56.000000pt" height="67.000000pt" viewBox="0 0 56.000000 67.000000"
 preserveAspectRatio="xMidYMid meet">
<metadata>
Created by potrace 1.16, written by Peter Selinger 2001-2019
</metadata>
<g transform="translate(0.000000,67.000000) scale(0.100000,-0.100000)"
fill="#000000" stroke="none">
<path d="M251 651 l-20 -20 10 -33 9 -33 0 -15 0 -15 -27 -12 -27 -13 -87 0
-86 0 -7 -90 -7 -90 5 -9 6 -9 58 5 59 5 21 -11 22 -12 0 -24 0 -25 -22 -14
-23 -15 -36 -6 -37 -7 -6 11 -7 11 -19 0 -20 0 -6 -26 -7 -26 7 -59 6 -60 6
-24 6 -24 20 -7 20 -6 55 7 56 7 24 24 25 25 -6 24 -6 23 -6 15 -6 16 41 11
40 11 28 -7 28 -7 7 -4 7 -4 -9 -23 -8 -23 7 -11 7 -11 87 -26 87 -25 14 0 14
0 7 62 7 63 -4 40 -3 40 -63 -3 -63 -4 -15 12 -14 12 0 23 0 23 13 10 12 10
44 -11 43 -12 14 20 14 19 0 93 0 92 -107 3 -108 3 3 67 3 67 -20 10 -20 11
-10 0 -11 0 -19 -19z"/>
</g>
</svg>
