<?xml version="1.0" standalone="no"?>
<!DOCTYPE svg PUBLIC "-//W3C//DTD SVG 20010904//EN"
 "http://www.w3.org/TR/2001/REC-SVG-20010904/DTD/svg10.dtd">
<svg version="1.0" xmlns="http://www.w3.org/2000/svg"
 width="70.000000pt" height="83.000000pt" viewBox="0 0 70.000000 83.000000"
 preserveAspectRatio="xMidYMid meet">
<metadata>
Created by potrace 1.16, written by Peter Selinger 2001-2019
</metadata>
<g transform="translate(0.000000,83.000000) scale(0.100000,-0.100000)"
fill="#000000" stroke="none">
<path d="M231 814 l-24 -17 6 -53 5 -52 -15 -6 -15 -6 -89 0 -89 0 -2 -57 -2
-58 2 -39 3 -40 12 -14 11 -14 53 4 53 5 7 -25 6 -24 -20 -26 -20 -27 -37 3
-37 4 -14 -12 -15 -12 0 -94 0 -94 65 0 66 0 33 -14 34 -14 -5 -46 -6 -46 18
-20 18 -20 42 0 41 0 16 12 15 13 17 25 16 24 0 49 0 49 90 -8 89 -7 -6 51 -6
50 7 44 6 43 43 -3 42 -4 28 22 27 21 0 44 0 44 -12 27 -12 26 -53 -5 -53 -6
-10 19 -10 19 0 58 0 58 -8 11 -7 12 -35 14 -35 15 -39 7 -38 7 -19 12 -18 11
6 27 5 27 -10 6 -10 6 -44 6 -43 5 -24 -17z"/>
</g>
</svg>
