<?xml version="1.0" standalone="no"?>
<!DOCTYPE svg PUBLIC "-//W3C//DTD SVG 20010904//EN"
 "http://www.w3.org/TR/2001/REC-SVG-20010904/DTD/svg10.dtd">
<svg version="1.0" xmlns="http://www.w3.org/2000/svg"
 width="68.000000pt" height="81.000000pt" viewBox="0 0 68.000000 81.000000"
 preserveAspectRatio="xMidYMid meet">
<metadata>
Created by potrace 1.16, written by Peter Selinger 2001-2019
</metadata>
<g transform="translate(0.000000,81.000000) scale(0.100000,-0.100000)"
fill="#000000" stroke="none">
<path d="M231 794 l-23 -17 6 -50 7 -50 -13 -8 -13 -9 -92 0 -93 0 -2 -57 -1
-58 2 -30 3 -30 10 -12 10 -13 30 0 29 0 19 10 19 10 11 -19 10 -20 0 -24 0
-24 -21 -28 -22 -27 -34 7 -35 6 -14 -12 -14 -11 0 -84 0 -84 65 0 66 0 35
-15 35 -15 -7 -45 -6 -46 17 -19 18 -20 28 0 27 0 16 6 16 6 21 34 21 34 -4
43 -3 42 90 -3 90 -2 -4 51 -3 51 7 44 6 43 42 -5 42 -6 28 22 27 21 0 34 0
34 -12 26 -12 27 -52 -7 -53 -6 -10 20 -11 20 0 58 0 58 -8 11 -7 12 -36 15
-36 15 -39 6 -39 7 -19 14 -18 14 6 25 6 25 -8 4 -7 5 -35 7 -35 6 -24 -17z"/>
</g>
</svg>
