<?xml version="1.0" standalone="no"?>
<!DOCTYPE svg PUBLIC "-//W3C//DTD SVG 20010904//EN"
 "http://www.w3.org/TR/2001/REC-SVG-20010904/DTD/svg10.dtd">
<svg version="1.0" xmlns="http://www.w3.org/2000/svg"
 width="70.000000pt" height="82.000000pt" viewBox="0 0 70.000000 82.000000"
 preserveAspectRatio="xMidYMid meet">
<metadata>
Created by potrace 1.16, written by Peter Selinger 2001-2019
</metadata>
<g transform="translate(0.000000,82.000000) scale(0.100000,-0.100000)"
fill="#000000" stroke="none">
<path d="M377 814 l-6 -7 10 -19 10 -19 -3 -26 -3 -26 -28 -21 -28 -21 -87 -3
-87 -4 6 -66 5 -67 -4 -16 -4 -16 -37 10 -37 10 -26 -6 -26 -7 -17 -36 -17
-37 5 -34 6 -35 12 -15 13 -15 55 4 55 3 7 -25 7 -25 1 -65 1 -65 107 0 108 0
-2 -11 -2 -11 -7 -50 -6 -50 23 -22 24 -22 30 6 30 5 23 28 23 27 -3 50 -3 50
65 3 65 2 23 5 22 5 -10 20 -10 19 -15 68 -16 68 -6 19 -5 18 -34 -5 -34 -6
-15 15 -15 15 0 29 0 30 26 17 26 17 59 -10 58 -10 4 11 3 10 -9 84 -9 83 -29
-6 -28 -5 -66 -7 -65 -7 -16 13 -15 14 6 48 7 49 -16 24 -16 25 -29 0 -28 0
-6 -6z"/>
</g>
</svg>
