<?xml version="1.0" standalone="no"?>
<!DOCTYPE svg PUBLIC "-//W3C//DTD SVG 20010904//EN"
 "http://www.w3.org/TR/2001/REC-SVG-20010904/DTD/svg10.dtd">
<svg version="1.0" xmlns="http://www.w3.org/2000/svg"
 width="72.000000pt" height="84.000000pt" viewBox="0 0 72.000000 84.000000"
 preserveAspectRatio="xMidYMid meet">
<metadata>
Created by potrace 1.16, written by Peter Selinger 2001-2019
</metadata>
<g transform="translate(0.000000,84.000000) scale(0.100000,-0.100000)"
fill="#000000" stroke="none">
<path d="M375 830 l-6 -10 12 -34 13 -35 -15 -17 -14 -17 -32 -14 -32 -13 -74
0 -74 0 5 -79 4 -79 -40 5 -41 5 -24 -6 -25 -6 -17 -36 -17 -37 5 -43 5 -44
13 -16 13 -15 55 2 55 3 7 -25 7 -24 1 -65 1 -66 105 4 106 4 -7 -64 -6 -65
23 -22 24 -23 39 5 39 6 24 28 24 28 -2 50 -3 50 81 5 81 5 7 6 6 7 -21 61
-20 60 0 13 0 13 -11 38 -10 37 -44 0 -45 0 -6 27 -7 26 24 20 23 19 41 -7 40
-6 21 -5 21 -5 6 14 5 14 -10 89 -10 89 -3 3 -4 4 -90 -12 -91 -13 -14 12 -15
13 6 48 6 49 -17 26 -16 25 -40 0 -39 0 -6 -10z"/>
</g>
</svg>
