<?xml version="1.0" standalone="no"?>
<!DOCTYPE svg PUBLIC "-//W3C//DTD SVG 20010904//EN"
 "http://www.w3.org/TR/2001/REC-SVG-20010904/DTD/svg10.dtd">
<svg version="1.0" xmlns="http://www.w3.org/2000/svg"
 width="58.000000pt" height="79.000000pt" viewBox="0 0 58.000000 79.000000"
 preserveAspectRatio="xMidYMid meet">
<metadata>
Created by potrace 1.16, written by Peter Selinger 2001-2019
</metadata>
<g transform="translate(0.000000,79.000000) scale(0.100000,-0.100000)"
fill="#000000" stroke="none">
<path d="M219 783 l-1 -8 -2 -50 -1 -50 -35 -17 -35 -18 -61 0 -61 0 -7 -37
-6 -38 0 -40 1 -40 13 -18 14 -17 28 10 28 11 22 -5 23 -6 15 -16 16 -15 0
-33 0 -33 -19 -17 -18 -17 -32 -9 -33 -9 -18 11 -17 11 -18 -7 -18 -6 5 -81 5
-81 14 -9 14 -9 85 0 85 0 13 -8 13 -9 -11 -27 -10 -27 0 -15 0 -14 20 -20 20
-20 25 0 26 0 30 16 31 16 -6 33 -7 33 11 7 11 7 72 9 71 9 16 5 16 5 17 53
17 54 0 40 0 41 -15 6 -15 5 -26 -9 -25 -10 -26 0 -25 0 -34 16 -33 16 -6 19
-6 19 6 19 6 19 31 11 30 11 44 -11 45 -12 7 8 7 7 -3 91 -3 92 -7 7 -8 8 -57
-11 -58 -10 -42 3 -42 3 3 66 3 67 -16 16 -16 16 -40 0 -39 0 -1 -7z"/>
</g>
</svg>
