<?xml version="1.0" standalone="no"?>
<!DOCTYPE svg PUBLIC "-//W3C//DTD SVG 20010904//EN"
 "http://www.w3.org/TR/2001/REC-SVG-20010904/DTD/svg10.dtd">
<svg version="1.0" xmlns="http://www.w3.org/2000/svg"
 width="60.000000pt" height="81.000000pt" viewBox="0 0 60.000000 81.000000"
 preserveAspectRatio="xMidYMid meet">
<metadata>
Created by potrace 1.16, written by Peter Selinger 2001-2019
</metadata>
<g transform="translate(0.000000,81.000000) scale(0.100000,-0.100000)"
fill="#000000" stroke="none">
<path d="M218 803 l-1 -8 -1 -50 -1 -50 -35 -17 -35 -18 -61 0 -61 0 -7 -37
-6 -38 0 -50 1 -50 14 -19 15 -19 36 11 37 11 21 -11 21 -11 7 -11 8 -11 0
-21 0 -21 -21 -19 -21 -19 -62 0 -61 0 0 -92 0 -92 8 -8 9 -8 96 -5 97 -5 -3
-47 -4 -46 21 -21 21 -21 35 0 36 0 30 16 30 15 -2 34 -3 34 6 6 6 7 73 9 73
9 16 5 16 5 17 53 17 54 0 50 0 51 -17 6 -17 7 -46 -12 -46 -12 -36 17 -36 18
-6 14 -5 14 5 14 6 15 25 8 26 9 48 -10 48 -10 8 8 8 8 -3 101 -2 101 -9 9 -8
8 -85 -12 -84 -12 -17 6 -16 6 6 64 6 63 -17 17 -17 17 -50 0 -49 0 -2 -7z"/>
</g>
</svg>
