<?xml version="1.0" standalone="no"?>
<!DOCTYPE svg PUBLIC "-//W3C//DTD SVG 20010904//EN"
 "http://www.w3.org/TR/2001/REC-SVG-20010904/DTD/svg10.dtd">
<svg version="1.0" xmlns="http://www.w3.org/2000/svg"
 width="70.000000pt" height="84.000000pt" viewBox="0 0 70.000000 84.000000"
 preserveAspectRatio="xMidYMid meet">
<metadata>
Created by potrace 1.16, written by Peter Selinger 2001-2019
</metadata>
<g transform="translate(0.000000,84.000000) scale(0.100000,-0.100000)"
fill="#000000" stroke="none">
<path d="M342 833 l-24 -5 7 -21 7 -22 5 -26 5 -27 -23 -16 -23 -16 -78 0 -78
0 0 -90 0 -90 -58 0 -58 0 -12 -12 -12 -12 0 -41 0 -41 16 -22 16 -23 72 2 71
2 3 -17 4 -17 -21 -69 -21 -68 0 -11 0 -11 69 0 70 0 26 -10 27 -10 -7 -23 -8
-22 0 -32 -1 -33 18 -19 18 -20 29 -6 29 -7 29 7 28 6 23 21 22 21 -4 33 -4
34 35 10 36 10 15 0 15 0 41 19 41 19 7 90 7 90 -13 21 -13 22 -61 -7 -62 -6
-22 22 -21 21 3 37 3 37 20 -2 20 -3 41 -6 42 -6 21 21 21 21 0 85 0 84 -32 5
-33 5 -61 5 -61 5 -16 7 -17 6 6 38 6 37 -23 17 -23 16 -31 -1 -30 -2 -23 -4z"/>
</g>
</svg>
