<?xml version="1.0" standalone="no"?>
<!DOCTYPE svg PUBLIC "-//W3C//DTD SVG 20010904//EN"
 "http://www.w3.org/TR/2001/REC-SVG-20010904/DTD/svg10.dtd">
<svg version="1.0" xmlns="http://www.w3.org/2000/svg"
 width="66.000000pt" height="68.000000pt" viewBox="0 0 66.000000 68.000000"
 preserveAspectRatio="xMidYMid meet">
<metadata>
Created by potrace 1.16, written by Peter Selinger 2001-2019
</metadata>
<g transform="translate(0.000000,68.000000) scale(0.100000,-0.100000)"
fill="#000000" stroke="none">
<path d="M236 664 l-16 -15 -6 -25 -6 -25 5 -32 5 -32 8 -19 7 -19 -106 8
-105 7 -6 -59 -6 -58 -5 -42 -4 -41 74 5 75 6 20 -18 20 -18 0 -23 0 -23 -12
-26 -11 -25 -24 -6 -23 -6 -44 6 -43 7 -7 -23 -6 -23 0 -74 0 -73 85 3 84 4
17 17 17 16 -12 33 -11 32 12 14 11 14 51 -3 51 -3 -3 -23 -3 -22 13 -13 13
-13 82 -20 82 -20 5 11 4 11 -14 55 -15 54 3 25 3 25 51 -3 50 -4 33 31 32 30
-6 38 -7 38 -3 12 -4 11 -39 -5 -39 -5 -17 23 -16 23 0 69 0 68 -7 -4 -8 -4
-77 8 -77 7 -21 7 -22 7 7 45 7 45 -23 24 -22 24 -18 0 -18 0 -15 -16z"/>
</g>
</svg>
