<?xml version="1.0" standalone="no"?>
<!DOCTYPE svg PUBLIC "-//W3C//DTD SVG 20010904//EN"
 "http://www.w3.org/TR/2001/REC-SVG-20010904/DTD/svg10.dtd">
<svg version="1.0" xmlns="http://www.w3.org/2000/svg"
 width="68.000000pt" height="70.000000pt" viewBox="0 0 68.000000 70.000000"
 preserveAspectRatio="xMidYMid meet">
<metadata>
Created by potrace 1.16, written by Peter Selinger 2001-2019
</metadata>
<g transform="translate(0.000000,70.000000) scale(0.100000,-0.100000)"
fill="#000000" stroke="none">
<path d="M236 684 l-16 -15 -6 -26 -7 -25 6 -49 6 -50 -99 7 -98 7 -6 -57 -6
-56 -6 -55 -6 -56 79 7 78 6 19 -20 18 -21 -6 -25 -6 -25 -17 -16 -16 -17 -57
7 -57 7 -6 -24 -7 -23 0 -82 0 -83 83 0 82 0 25 13 25 13 0 49 0 50 43 3 42 3
0 -26 0 -26 13 -13 12 -13 70 -16 70 -16 22 -7 21 -6 6 20 6 19 -15 59 -15 58
0 13 0 13 54 0 54 0 32 30 32 30 -7 52 -7 53 -5 8 -5 8 -38 -6 -38 -6 -16 23
-16 22 0 67 0 66 -87 6 -88 5 -17 7 -17 7 6 44 6 45 -23 24 -23 25 -28 0 -28
0 -15 -16z"/>
</g>
</svg>
