<?xml version="1.0" standalone="no"?>
<!DOCTYPE svg PUBLIC "-//W3C//DTD SVG 20010904//EN"
 "http://www.w3.org/TR/2001/REC-SVG-20010904/DTD/svg10.dtd">
<svg version="1.0" xmlns="http://www.w3.org/2000/svg"
 width="85.000000pt" height="83.000000pt" viewBox="0 0 85.000000 83.000000"
 preserveAspectRatio="xMidYMid meet">
<metadata>
Created by potrace 1.16, written by Peter Selinger 2001-2019
</metadata>
<g transform="translate(0.000000,83.000000) scale(0.100000,-0.100000)"
fill="#000000" stroke="none">
<path d="M365 816 l-18 -13 6 -56 6 -57 -22 -15 -21 -15 -88 0 -88 0 6 -94 7
-95 -21 6 -22 5 -35 -6 -36 -7 -20 -20 -19 -19 0 -29 0 -30 16 -16 17 -16 35
3 36 3 6 -26 7 -25 8 -77 7 -77 78 0 78 0 15 -5 14 -6 -10 -46 -11 -46 23 -18
23 -19 58 0 59 0 15 16 16 15 0 13 0 12 -11 11 -12 12 39 9 39 10 58 13 58 12
16 12 16 12 -21 56 -22 57 -2 40 -3 41 75 2 76 2 28 19 29 18 -6 50 -6 50 -13
15 -12 15 -63 -5 -62 -5 -5 15 -6 15 0 56 0 57 -8 12 -8 12 -64 16 -65 16 -32
10 -32 10 6 44 6 44 -27 11 -27 10 -23 0 -22 0 -19 -14z"/>
</g>
</svg>
