<?xml version="1.0" standalone="no"?>
<!DOCTYPE svg PUBLIC "-//W3C//DTD SVG 20010904//EN"
 "http://www.w3.org/TR/2001/REC-SVG-20010904/DTD/svg10.dtd">
<svg version="1.0" xmlns="http://www.w3.org/2000/svg"
 width="83.000000pt" height="81.000000pt" viewBox="0 0 83.000000 81.000000"
 preserveAspectRatio="xMidYMid meet">
<metadata>
Created by potrace 1.16, written by Peter Selinger 2001-2019
</metadata>
<g transform="translate(0.000000,81.000000) scale(0.100000,-0.100000)"
fill="#000000" stroke="none">
<path d="M366 799 l-18 -11 6 -58 7 -58 -23 -16 -22 -16 -87 0 -87 0 5 -96 6
-96 -31 7 -32 7 -35 -12 -35 -12 -10 -18 -10 -19 0 -15 0 -15 17 -16 16 -17
33 6 32 7 6 -10 6 -10 11 -83 11 -83 1 -12 0 -13 81 0 81 0 13 -9 14 -8 -12
-44 -12 -43 22 -18 22 -18 48 0 49 0 15 15 16 16 -13 20 -12 20 13 8 13 8 82
17 82 18 17 9 16 9 -19 51 -20 51 -2 51 -2 51 75 0 76 1 28 18 28 19 -6 41 -7
41 -12 14 -11 14 -62 -6 -62 -6 -6 16 -6 16 0 56 0 57 -8 12 -8 12 -64 16 -65
16 -33 11 -34 10 7 44 6 44 -26 10 -26 10 -12 0 -12 -1 -19 -10z"/>
</g>
</svg>
