<?xml version="1.0" standalone="no"?>
<!DOCTYPE svg PUBLIC "-//W3C//DTD SVG 20010904//EN"
 "http://www.w3.org/TR/2001/REC-SVG-20010904/DTD/svg10.dtd">
<svg version="1.0" xmlns="http://www.w3.org/2000/svg"
 width="67.000000pt" height="81.000000pt" viewBox="0 0 67.000000 81.000000"
 preserveAspectRatio="xMidYMid meet">
<metadata>
Created by potrace 1.16, written by Peter Selinger 2001-2019
</metadata>
<g transform="translate(0.000000,81.000000) scale(0.100000,-0.100000)"
fill="#000000" stroke="none">
<path d="M212 798 l-12 -12 0 -22 0 -21 11 -32 11 -31 -12 -15 -12 -14 -96 -3
-97 -3 -3 -246 -2 -247 84 -3 85 -4 12 -12 12 -12 -13 -47 -13 -47 18 -13 19
-14 45 0 46 0 24 7 23 6 -5 34 -6 34 22 9 22 9 73 21 74 21 -7 17 -7 17 -19
58 -19 59 0 16 0 17 9 13 8 13 27 -12 27 -13 44 12 45 12 20 17 20 17 0 23 0
23 -21 21 -22 22 -59 -6 -60 -5 4 90 4 90 -20 -5 -21 -5 -68 -17 -67 -18 -26
12 -26 12 8 22 8 22 -1 47 0 47 -17 25 -16 26 -23 0 -23 0 -12 -12z"/>
</g>
</svg>
