<?xml version="1.0" standalone="no"?>
<!DOCTYPE svg PUBLIC "-//W3C//DTD SVG 20010904//EN"
 "http://www.w3.org/TR/2001/REC-SVG-20010904/DTD/svg10.dtd">
<svg version="1.0" xmlns="http://www.w3.org/2000/svg"
 width="69.000000pt" height="83.000000pt" viewBox="0 0 69.000000 83.000000"
 preserveAspectRatio="xMidYMid meet">
<metadata>
Created by potrace 1.16, written by Peter Selinger 2001-2019
</metadata>
<g transform="translate(0.000000,83.000000) scale(0.100000,-0.100000)"
fill="#000000" stroke="none">
<path d="M212 818 l-12 -12 0 -32 0 -33 9 -25 10 -24 -13 -11 -12 -10 -95 -3
-94 -3 -3 -257 -2 -258 69 0 70 0 26 -10 27 -10 -7 -18 -7 -17 -5 -34 -6 -34
18 -13 19 -14 55 0 56 0 23 6 22 6 0 39 0 38 43 11 42 11 48 15 47 16 0 9 0 9
-26 76 -25 76 5 13 5 13 39 -5 40 -5 37 12 38 12 18 16 19 16 0 33 0 33 -21
21 -21 21 -60 -4 -61 -3 6 89 6 88 -32 -5 -32 -4 -62 -17 -62 -17 -21 11 -20
11 11 21 11 21 -5 50 -6 50 -16 23 -15 24 -33 0 -33 0 -12 -12z"/>
</g>
</svg>
