<?xml version="1.0" standalone="no"?>
<!DOCTYPE svg PUBLIC "-//W3C//DTD SVG 20010904//EN"
 "http://www.w3.org/TR/2001/REC-SVG-20010904/DTD/svg10.dtd">
<svg version="1.0" xmlns="http://www.w3.org/2000/svg"
 width="56.000000pt" height="67.000000pt" viewBox="0 0 56.000000 67.000000"
 preserveAspectRatio="xMidYMid meet">
<metadata>
Created by potrace 1.16, written by Peter Selinger 2001-2019
</metadata>
<g transform="translate(0.000000,67.000000) scale(0.100000,-0.100000)"
fill="#000000" stroke="none">
<path d="M226 652 l-16 -19 2 -48 3 -49 -25 -13 -25 -13 -80 0 -80 0 -3 -108
-3 -108 61 10 62 10 26 -15 27 -15 3 -15 3 -14 -15 -20 -15 -20 -19 12 -20 12
-20 -6 -21 -5 -17 -77 -17 -76 -9 -18 -9 -18 6 -19 6 -20 88 0 87 0 19 14 20
14 -13 37 -14 36 17 25 16 25 42 -3 42 -3 0 -40 0 -40 85 -23 85 -23 20 -5 21
-6 1 19 2 18 7 79 7 78 -51 -7 -50 -7 -31 16 -30 16 -11 19 -10 20 0 24 0 25
15 12 15 12 51 -12 52 -13 14 19 13 18 0 50 0 51 -10 36 -10 37 -68 6 -67 7
-28 5 -27 6 -10 18 -10 18 11 31 11 31 -12 15 -12 15 -33 0 -32 0 -17 -18z"/>
</g>
</svg>
