<?xml version="1.0" standalone="no"?>
<!DOCTYPE svg PUBLIC "-//W3C//DTD SVG 20010904//EN"
 "http://www.w3.org/TR/2001/REC-SVG-20010904/DTD/svg10.dtd">
<svg version="1.0" xmlns="http://www.w3.org/2000/svg"
 width="71.000000pt" height="63.000000pt" viewBox="0 0 71.000000 63.000000"
 preserveAspectRatio="xMidYMid meet">
<metadata>
Created by potrace 1.16, written by Peter Selinger 2001-2019
</metadata>
<g transform="translate(0.000000,63.000000) scale(0.100000,-0.100000)"
fill="#000000" stroke="none">
<path d="M255 621 l-5 -10 10 -6 10 -6 0 -22 -1 -22 -15 -20 -15 -20 -93 -3
-94 -4 -6 -30 -6 -31 0 -62 0 -63 59 5 58 6 22 -22 21 -21 0 -23 0 -23 -20
-17 -20 -17 -45 -12 -44 -12 -27 13 -27 12 -8 -13 -9 -13 0 -16 0 -17 20 -65
20 -65 15 -12 15 -13 75 5 74 5 17 14 16 13 -4 48 -5 48 40 0 40 0 18 -16 18
-16 -11 -24 -11 -24 19 -15 19 -14 45 -1 45 -1 48 -8 47 -8 1 56 0 56 7 40 8
40 45 -3 45 -3 22 21 22 21 0 32 0 33 -16 22 -15 22 -19 0 -19 0 -6 -10 -6
-10 -18 0 -18 0 -17 19 -18 20 0 75 1 76 -89 -7 -89 -6 -16 13 -17 14 7 34 6
34 -17 19 -17 19 -33 0 -33 0 -6 -9z"/>
</g>
</svg>
