<?xml version="1.0" standalone="no"?>
<!DOCTYPE svg PUBLIC "-//W3C//DTD SVG 20010904//EN"
 "http://www.w3.org/TR/2001/REC-SVG-20010904/DTD/svg10.dtd">
<svg version="1.0" xmlns="http://www.w3.org/2000/svg"
 width="73.000000pt" height="65.000000pt" viewBox="0 0 73.000000 65.000000"
 preserveAspectRatio="xMidYMid meet">
<metadata>
Created by potrace 1.16, written by Peter Selinger 2001-2019
</metadata>
<g transform="translate(0.000000,65.000000) scale(0.100000,-0.100000)"
fill="#000000" stroke="none">
<path d="M254 635 l-6 -15 12 -15 13 -16 -13 -23 -12 -24 -22 -6 -21 -6 -76 0
-76 0 -7 -31 -6 -32 0 -74 0 -74 54 6 54 7 20 -11 21 -11 6 -21 7 -21 -19 -17
-19 -18 -37 -12 -37 -12 -35 12 -36 13 -9 -14 -10 -15 0 -26 0 -27 20 -65 20
-65 15 -12 15 -13 84 5 85 4 15 13 16 13 0 49 0 49 28 0 28 0 11 -11 11 -11
-5 -32 -5 -32 24 -11 23 -11 74 -6 74 -6 24 -6 23 -6 1 58 0 59 7 40 7 40 45
-3 45 -3 23 21 22 21 0 42 0 43 -16 22 -15 22 -28 0 -27 0 -12 -12 -12 -12
-20 19 -20 18 0 79 0 80 -90 -8 -90 -7 -14 12 -15 12 6 35 6 34 -18 20 -18 20
-44 0 -44 0 -5 -15z"/>
</g>
</svg>
