<?xml version="1.0" standalone="no"?>
<!DOCTYPE svg PUBLIC "-//W3C//DTD SVG 20010904//EN"
 "http://www.w3.org/TR/2001/REC-SVG-20010904/DTD/svg10.dtd">
<svg version="1.0" xmlns="http://www.w3.org/2000/svg"
 width="66.000000pt" height="79.000000pt" viewBox="0 0 66.000000 79.000000"
 preserveAspectRatio="xMidYMid meet">
<metadata>
Created by potrace 1.16, written by Peter Selinger 2001-2019
</metadata>
<g transform="translate(0.000000,79.000000) scale(0.100000,-0.100000)"
fill="#000000" stroke="none">
<path d="M203 778 l-8 -13 0 -45 0 -45 -91 -3 -92 -3 -6 -22 -6 -22 0 -57 0
-56 6 -15 5 -15 62 5 62 5 19 -21 19 -21 -1 -37 -2 -37 -19 -20 -20 -20 -25
12 -24 11 -10 -12 -10 -12 -16 -65 -17 -65 -9 -9 -10 -10 0 -7 0 -6 75 -5 74
-5 17 -14 16 -13 -5 -36 -5 -35 -7 -16 -6 -16 16 -17 16 -16 39 0 39 0 16 17
17 17 -6 42 -5 43 17 5 17 5 45 6 45 7 37 9 37 10 10 37 9 37 7 58 6 57 20 10
19 11 21 -11 21 -12 18 17 18 16 5 26 5 25 -20 20 -20 20 -21 -6 -22 -7 -32
-6 -32 -5 -7 26 -6 26 3 85 4 85 -95 -6 -95 -5 -18 15 -19 15 13 35 13 35 -13
15 -13 16 -34 0 -33 0 -8 -12z"/>
</g>
</svg>
