<?xml version="1.0" standalone="no"?>
<!DOCTYPE svg PUBLIC "-//W3C//DTD SVG 20010904//EN"
 "http://www.w3.org/TR/2001/REC-SVG-20010904/DTD/svg10.dtd">
<svg version="1.0" xmlns="http://www.w3.org/2000/svg"
 width="68.000000pt" height="81.000000pt" viewBox="0 0 68.000000 81.000000"
 preserveAspectRatio="xMidYMid meet">
<metadata>
Created by potrace 1.16, written by Peter Selinger 2001-2019
</metadata>
<g transform="translate(0.000000,81.000000) scale(0.100000,-0.100000)"
fill="#000000" stroke="none">
<path d="M201 796 l-12 -14 3 -43 3 -44 -91 -3 -92 -3 -6 -22 -6 -22 0 -67 0
-66 6 -17 6 -16 59 7 60 7 19 -18 20 -18 0 -30 0 -30 -16 -18 -16 -18 -24 11
-23 11 -15 -12 -15 -13 -11 -51 -10 -52 -15 -29 -15 -28 0 -13 0 -12 76 -5 75
-5 16 -16 16 -16 -11 -39 -12 -39 0 -11 0 -11 16 -15 15 -16 49 0 49 0 16 17
17 16 -4 44 -3 43 15 4 15 5 73 11 72 12 15 14 14 14 6 48 6 47 8 40 7 40 40
-3 41 -2 15 17 16 18 7 32 6 32 -20 20 -21 21 -19 0 -18 0 -33 -11 -32 -12
-10 14 -9 14 4 98 4 99 -93 -7 -92 -7 -21 14 -20 14 10 14 9 15 0 26 0 25 -12
12 -12 12 -42 0 -42 0 -11 -14z"/>
</g>
</svg>
