<?xml version="1.0" standalone="no"?>
<!DOCTYPE svg PUBLIC "-//W3C//DTD SVG 20010904//EN"
 "http://www.w3.org/TR/2001/REC-SVG-20010904/DTD/svg10.dtd">
<svg version="1.0" xmlns="http://www.w3.org/2000/svg"
 width="56.000000pt" height="79.000000pt" viewBox="0 0 56.000000 79.000000"
 preserveAspectRatio="xMidYMid meet">
<metadata>
Created by potrace 1.16, written by Peter Selinger 2001-2019
</metadata>
<g transform="translate(0.000000,79.000000) scale(0.100000,-0.100000)"
fill="#000000" stroke="none">
<path d="M240 770 l-21 -21 2 -42 3 -42 -92 3 -92 3 0 -78 0 -78 9 -13 8 -14
43 13 43 13 18 -23 19 -23 0 -39 0 -38 -25 -26 -24 -27 -63 4 -63 3 2 -43 2
-44 17 -44 17 -44 94 0 95 0 -7 -29 -6 -29 11 -41 11 -41 25 -17 26 -16 26 9
27 10 0 39 0 40 40 12 40 12 63 18 64 18 -6 35 -7 35 -10 59 -10 60 -6 9 -5 9
-42 -6 -42 -7 -19 21 -20 22 0 38 0 37 15 18 14 17 51 -6 50 -6 20 -2 20 -3 3
86 3 86 -13 11 -13 10 -95 19 -95 18 0 35 0 35 -42 3 -42 3 -21 -21z"/>
</g>
</svg>
