<?xml version="1.0" standalone="no"?>
<!DOCTYPE svg PUBLIC "-//W3C//DTD SVG 20010904//EN"
 "http://www.w3.org/TR/2001/REC-SVG-20010904/DTD/svg10.dtd">
<svg version="1.0" xmlns="http://www.w3.org/2000/svg"
 width="71.000000pt" height="72.000000pt" viewBox="0 0 71.000000 72.000000"
 preserveAspectRatio="xMidYMid meet">
<metadata>
Created by potrace 1.16, written by Peter Selinger 2001-2019
</metadata>
<g transform="translate(0.000000,72.000000) scale(0.100000,-0.100000)"
fill="#000000" stroke="none">
<path d="M325 711 l-7 -12 7 -44 6 -44 -12 -23 -12 -23 -13 -12 -13 -13 -18 0
-19 0 -11 11 -10 10 4 44 5 43 -21 11 -21 12 -93 -3 -92 -3 -3 -87 -3 -88 11
-21 12 -21 46 4 47 3 3 -30 3 -30 -29 -11 -28 -11 -23 -79 -22 -79 -6 -32 -5
-33 104 0 105 0 -9 -47 -10 -48 11 -27 11 -28 48 0 49 0 24 26 24 26 -1 64 -1
64 22 0 22 0 49 -15 49 -15 22 0 22 0 11 58 12 57 9 37 9 37 35 -6 34 -5 25
27 26 28 0 51 0 51 -9 13 -8 14 -66 -7 -65 -7 -11 20 -11 21 0 64 0 65 -51 22
-52 22 -52 5 -52 6 -8 -12z"/>
</g>
</svg>
