<?xml version="1.0" standalone="no"?>
<!DOCTYPE svg PUBLIC "-//W3C//DTD SVG 20010904//EN"
 "http://www.w3.org/TR/2001/REC-SVG-20010904/DTD/svg10.dtd">
<svg version="1.0" xmlns="http://www.w3.org/2000/svg"
 width="57.000000pt" height="57.000000pt" viewBox="0 0 57.000000 57.000000"
 preserveAspectRatio="xMidYMid meet">
<metadata>
Created by potrace 1.16, written by Peter Selinger 2001-2019
</metadata>
<g transform="translate(0.000000,57.000000) scale(0.100000,-0.100000)"
fill="#000000" stroke="none">
<path d="M345 506 l7 -63 -16 -30 -15 -31 -16 -6 -17 -6 -32 0 -33 0 -18 20
-17 19 7 67 7 67 -93 -6 -92 -7 -5 -5 -5 -4 0 -81 0 -81 18 -19 18 -20 27 0
26 0 13 13 12 12 20 -24 19 -23 0 -24 0 -24 -20 -18 -21 -17 -47 0 -46 0 -8
-40 -7 -40 0 -68 -1 -68 98 3 97 3 -1 25 0 25 -8 22 -7 22 20 20 21 21 28 0
28 0 20 -14 19 -14 0 -43 0 -43 30 -7 30 -7 78 -5 77 -4 0 19 0 20 16 54 15
53 -3 38 -3 38 -71 -3 -72 -4 -16 23 -16 23 0 22 0 22 15 12 15 13 55 -7 55
-6 0 105 0 106 -42 19 -43 20 -53 0 -54 0 7 -64z"/>
</g>
</svg>
