<?xml version="1.0" standalone="no"?>
<!DOCTYPE svg PUBLIC "-//W3C//DTD SVG 20010904//EN"
 "http://www.w3.org/TR/2001/REC-SVG-20010904/DTD/svg10.dtd">
<svg version="1.0" xmlns="http://www.w3.org/2000/svg"
 width="87.000000pt" height="80.000000pt" viewBox="0 0 87.000000 80.000000"
 preserveAspectRatio="xMidYMid meet">
<metadata>
Created by potrace 1.16, written by Peter Selinger 2001-2019
</metadata>
<g transform="translate(0.000000,80.000000) scale(0.100000,-0.100000)"
fill="#000000" stroke="none">
<path d="M395 776 l-16 -24 12 -26 13 -27 -17 -17 -17 -17 -78 -3 -77 -3 -22
-4 -21 -5 5 -59 6 -59 -7 -26 -6 -25 -26 9 -25 10 -37 0 -37 -1 -18 -13 -18
-14 -6 -36 -6 -37 34 -30 34 -31 47 6 48 5 6 -25 6 -24 -4 -70 -4 -70 92 0 92
0 16 -6 15 -6 -6 -59 -6 -59 13 -15 12 -15 47 0 47 0 19 14 19 14 -12 26 -11
26 17 9 17 9 45 11 45 12 36 17 36 16 17 38 16 38 10 47 11 47 10 13 11 12 24
-11 25 -12 20 20 19 20 2 37 1 37 -19 21 -19 21 -63 -5 -62 -5 -6 25 -7 25 5
68 5 69 -36 15 -37 14 -46 7 -47 7 -17 19 -17 19 12 14 12 14 -23 16 -22 16
-33 0 -33 0 -15 -24z"/>
</g>
</svg>
