<?xml version="1.0" standalone="no"?>
<!DOCTYPE svg PUBLIC "-//W3C//DTD SVG 20010904//EN"
 "http://www.w3.org/TR/2001/REC-SVG-20010904/DTD/svg10.dtd">
<svg version="1.0" xmlns="http://www.w3.org/2000/svg"
 width="89.000000pt" height="82.000000pt" viewBox="0 0 89.000000 82.000000"
 preserveAspectRatio="xMidYMid meet">
<metadata>
Created by potrace 1.16, written by Peter Selinger 2001-2019
</metadata>
<g transform="translate(0.000000,82.000000) scale(0.100000,-0.100000)"
fill="#000000" stroke="none">
<path d="M393 794 l-17 -26 11 -29 11 -28 -15 -13 -16 -13 -76 -3 -76 -3 -22
-4 -22 -5 2 -77 2 -78 -65 3 -65 2 -19 -14 -18 -15 -6 -46 -5 -46 34 -30 34
-30 48 3 48 3 6 -24 6 -23 -6 -69 -6 -69 94 0 93 0 14 -5 14 -6 -4 -59 -4 -60
12 -15 12 -15 57 0 57 0 19 13 18 14 -6 31 -6 32 57 15 57 16 36 17 36 16 14
31 13 30 16 60 16 60 35 -3 35 -3 18 20 17 19 2 45 2 45 -20 22 -19 22 -64 -4
-63 -3 -6 24 -6 23 7 68 6 68 -38 15 -37 15 -45 7 -45 7 -12 10 -13 10 6 23 6
23 -23 16 -23 16 -43 0 -43 0 -17 -26z"/>
</g>
</svg>
