<?xml version="1.0" standalone="no"?>
<!DOCTYPE svg PUBLIC "-//W3C//DTD SVG 20010904//EN"
 "http://www.w3.org/TR/2001/REC-SVG-20010904/DTD/svg10.dtd">
<svg version="1.0" xmlns="http://www.w3.org/2000/svg"
 width="71.000000pt" height="66.000000pt" viewBox="0 0 71.000000 66.000000"
 preserveAspectRatio="xMidYMid meet">
<metadata>
Created by potrace 1.16, written by Peter Selinger 2001-2019
</metadata>
<g transform="translate(0.000000,66.000000) scale(0.100000,-0.100000)"
fill="#000000" stroke="none">
<path d="M384 645 l-7 -16 6 -51 6 -50 -109 4 -110 3 -5 -14 -6 -15 7 -66 6
-65 -62 0 -62 0 -24 -28 -24 -28 0 -39 0 -39 26 -28 26 -28 74 0 74 0 1 -10 1
-10 -2 -25 -2 -25 -21 -48 -20 -49 14 -9 14 -10 96 3 95 3 19 18 18 18 -13 42
-12 41 18 13 18 13 17 0 17 0 16 -6 16 -6 -6 -10 -6 -9 6 -24 6 -24 43 -11 42
-10 54 -22 53 -21 9 14 9 14 -5 20 -5 20 -16 75 -16 75 -11 13 -11 13 -39 -3
-39 -2 -7 14 -8 15 8 31 9 30 58 -4 58 -4 13 16 13 15 5 60 6 59 -7 26 -6 26
-109 -7 -108 -6 -6 10 -6 10 11 30 11 29 -14 30 -14 29 -38 3 -37 3 -6 -16z"/>
</g>
</svg>
