<?xml version="1.0" standalone="no"?>
<!DOCTYPE svg PUBLIC "-//W3C//DTD SVG 20010904//EN"
 "http://www.w3.org/TR/2001/REC-SVG-20010904/DTD/svg10.dtd">
<svg version="1.0" xmlns="http://www.w3.org/2000/svg"
 width="69.000000pt" height="64.000000pt" viewBox="0 0 69.000000 64.000000"
 preserveAspectRatio="xMidYMid meet">
<metadata>
Created by potrace 1.16, written by Peter Selinger 2001-2019
</metadata>
<g transform="translate(0.000000,64.000000) scale(0.100000,-0.100000)"
fill="#000000" stroke="none">
<path d="M385 630 l-7 -12 7 -54 7 -55 -111 3 -111 3 -4 -12 -5 -12 6 -69 6
-70 -63 1 -62 2 -24 -28 -24 -28 0 -29 0 -29 26 -28 26 -28 74 1 73 0 6 -13 5
-14 -10 -46 -11 -45 -14 -29 -15 -29 25 -6 25 -6 73 4 74 3 15 16 16 16 -11
42 -12 43 20 14 19 14 25 0 26 0 22 -6 23 -6 -10 -18 -10 -19 6 -15 6 -16 42
-10 41 -10 48 -19 47 -19 1 11 1 12 -1 9 -2 9 -16 76 -15 76 -11 13 -11 14
-38 -6 -37 -6 -11 20 -11 20 11 39 10 39 15 6 14 5 6 -9 6 -10 38 0 39 0 11
14 12 14 6 50 6 50 -7 25 -6 25 -110 -6 -110 -5 -6 17 -7 17 12 25 11 26 -12
26 -13 27 -27 3 -26 3 -7 -11z"/>
</g>
</svg>
