<?xml version="1.0" standalone="no"?>
<!DOCTYPE svg PUBLIC "-//W3C//DTD SVG 20010904//EN"
 "http://www.w3.org/TR/2001/REC-SVG-20010904/DTD/svg10.dtd">
<svg version="1.0" xmlns="http://www.w3.org/2000/svg"
 width="55.000000pt" height="82.000000pt" viewBox="0 0 55.000000 82.000000"
 preserveAspectRatio="xMidYMid meet">
<metadata>
Created by potrace 1.16, written by Peter Selinger 2001-2019
</metadata>
<g transform="translate(0.000000,82.000000) scale(0.100000,-0.100000)"
fill="#000000" stroke="none">
<path d="M204 795 l-16 -25 7 -46 6 -46 -91 8 -92 7 -9 -14 -9 -14 0 -92 0
-91 6 -16 6 -16 32 1 31 0 20 8 20 8 18 -9 17 -9 0 -23 0 -24 -14 -11 -13 -11
-29 6 -29 5 -17 -13 -17 -13 -10 -75 -11 -75 -6 -23 -7 -23 108 2 108 2 -2
-68 -2 -67 17 -19 17 -19 33 0 33 0 16 16 16 17 -2 66 -3 66 97 3 97 3 0 12 0
12 -19 92 -19 92 -7 11 -7 11 -38 -6 -38 -7 -11 21 -11 20 6 16 6 16 29 14 28
15 51 0 50 0 -6 98 -7 97 -2 3 -3 3 -81 -12 -81 -12 -25 11 -26 12 11 19 10
20 0 23 0 24 -16 22 -15 22 -44 0 -45 0 -16 -25z"/>
</g>
</svg>
