<?xml version="1.0" standalone="no"?>
<!DOCTYPE svg PUBLIC "-//W3C//DTD SVG 20010904//EN"
 "http://www.w3.org/TR/2001/REC-SVG-20010904/DTD/svg10.dtd">
<svg version="1.0" xmlns="http://www.w3.org/2000/svg"
 width="65.000000pt" height="52.000000pt" viewBox="0 0 65.000000 52.000000"
 preserveAspectRatio="xMidYMid meet">
<metadata>
Created by potrace 1.16, written by Peter Selinger 2001-2019
</metadata>
<g transform="translate(0.000000,52.000000) scale(0.100000,-0.100000)"
fill="#000000" stroke="none">
<path d="M197 513 l-59 -4 7 -74 7 -74 -5 -23 -6 -23 -45 3 -44 4 -21 -11 -21
-12 -6 -23 -6 -24 12 -22 12 -22 59 6 58 7 7 -26 6 -25 -4 -68 -5 -67 -8 -18
-7 -17 95 0 95 0 12 14 11 15 -3 42 -3 43 26 15 27 15 42 -13 42 -12 -6 -24
-6 -23 -6 -16 -6 -16 24 -10 23 -10 72 -8 72 -8 4 10 4 11 -8 60 -7 60 -1 20
-2 20 -14 19 -15 19 -26 -12 -26 -12 -25 16 -24 16 3 37 3 37 20 -3 20 -3 25
-6 26 -5 24 20 25 20 3 91 4 91 -9 0 -9 0 -11 -11 -12 -12 -83 -21 -83 -21 0
-25 0 -25 -52 -3 -51 -3 -7 21 -7 22 7 44 6 44 -43 -2 -43 -2 -58 -3z"/>
</g>
</svg>
