<?xml version="1.0" standalone="no"?>
<!DOCTYPE svg PUBLIC "-//W3C//DTD SVG 20010904//EN"
 "http://www.w3.org/TR/2001/REC-SVG-20010904/DTD/svg10.dtd">
<svg version="1.0" xmlns="http://www.w3.org/2000/svg"
 width="70.000000pt" height="65.000000pt" viewBox="0 0 70.000000 65.000000"
 preserveAspectRatio="xMidYMid meet">
<metadata>
Created by potrace 1.16, written by Peter Selinger 2001-2019
</metadata>
<g transform="translate(0.000000,65.000000) scale(0.100000,-0.100000)"
fill="#000000" stroke="none">
<path d="M213 643 l-62 -4 5 -82 6 -82 -14 -19 -15 -19 -52 13 -51 12 -15 -12
-15 -12 0 -25 0 -24 10 -20 11 -19 30 -16 31 -16 50 7 51 7 -6 -73 -6 -74 -3
-20 -3 -20 63 -7 64 -7 15 -13 15 -12 -5 -47 -6 -47 15 -6 16 -6 52 0 53 0 16
18 17 19 0 19 0 19 -10 15 -9 14 11 13 10 13 91 0 90 0 -6 6 -6 7 14 27 14 28
11 45 10 46 -5 14 -6 13 -73 0 -74 -1 -26 28 -26 28 0 29 0 29 24 28 24 28 62
-2 63 -1 -7 76 -6 75 -3 3 -2 2 -65 -9 -65 -9 -22 -5 -22 -5 2 -37 2 -37 -32
-9 -32 -10 -25 7 -25 6 -12 21 -11 22 13 23 13 24 -10 9 -9 9 -35 4 -35 4 -62
-3z"/>
</g>
</svg>
