<?xml version="1.0" standalone="no"?>
<!DOCTYPE svg PUBLIC "-//W3C//DTD SVG 20010904//EN"
 "http://www.w3.org/TR/2001/REC-SVG-20010904/DTD/svg10.dtd">
<svg version="1.0" xmlns="http://www.w3.org/2000/svg"
 width="72.000000pt" height="67.000000pt" viewBox="0 0 72.000000 67.000000"
 preserveAspectRatio="xMidYMid meet">
<metadata>
Created by potrace 1.16, written by Peter Selinger 2001-2019
</metadata>
<g transform="translate(0.000000,67.000000) scale(0.100000,-0.100000)"
fill="#000000" stroke="none">
<path d="M212 663 l-63 -4 6 -82 7 -82 -14 -17 -13 -16 -52 11 -52 11 -15 -13
-16 -13 0 -35 0 -34 10 -20 11 -19 31 -16 32 -16 49 6 50 5 -7 -67 -7 -67 -2
-25 -2 -25 63 -7 64 -7 15 -12 15 -13 -7 -44 -7 -45 14 -8 13 -9 66 0 66 0 17
19 18 20 -4 43 -3 43 90 3 90 3 14 42 13 42 10 40 9 39 -5 22 -6 23 -74 -2
-74 -2 -26 28 -26 28 0 19 0 19 24 27 23 28 63 -2 63 -2 -6 86 -6 87 -4 3 -4
4 -79 -10 -79 -11 -19 -6 -18 -5 5 -34 6 -35 -27 -10 -26 -10 -23 6 -22 5 -11
20 -10 19 10 6 10 6 0 24 0 24 -7 4 -8 5 -45 4 -45 5 -63 -4z"/>
</g>
</svg>
