<?xml version="1.0" standalone="no"?>
<!DOCTYPE svg PUBLIC "-//W3C//DTD SVG 20010904//EN"
 "http://www.w3.org/TR/2001/REC-SVG-20010904/DTD/svg10.dtd">
<svg version="1.0" xmlns="http://www.w3.org/2000/svg"
 width="67.000000pt" height="52.000000pt" viewBox="0 0 67.000000 52.000000"
 preserveAspectRatio="xMidYMid meet">
<metadata>
Created by potrace 1.16, written by Peter Selinger 2001-2019
</metadata>
<g transform="translate(0.000000,52.000000) scale(0.100000,-0.100000)"
fill="#000000" stroke="none">
<path d="M55 513 l-50 -4 6 -85 5 -86 15 -9 14 -9 50 2 50 3 3 -40 3 -41 -9
-24 -9 -25 -34 0 -34 0 -20 -80 -21 -80 -7 -11 -7 -12 16 -6 16 -6 68 0 69 0
25 10 26 10 -6 69 -7 70 27 7 27 7 25 -12 24 -11 0 -20 0 -21 -11 -21 -11 -20
14 -15 15 -14 94 -14 94 -15 15 0 16 0 1 18 1 17 18 60 17 60 10 13 10 13 26
-3 25 -3 7 25 7 25 1 33 1 33 -10 18 -9 18 -41 -10 -40 -11 -21 21 -22 21 -5
72 -5 71 -16 -7 -16 -7 -75 -21 -75 -22 0 -29 0 -30 -51 -3 -51 -3 -13 16 -13
16 10 45 10 45 -18 9 -18 10 -43 -2 -43 -2 -50 -3z"/>
</g>
</svg>
