<?xml version="1.0" standalone="no"?>
<!DOCTYPE svg PUBLIC "-//W3C//DTD SVG 20010904//EN"
 "http://www.w3.org/TR/2001/REC-SVG-20010904/DTD/svg10.dtd">
<svg version="1.0" xmlns="http://www.w3.org/2000/svg"
 width="54.000000pt" height="54.000000pt" viewBox="0 0 54.000000 54.000000"
 preserveAspectRatio="xMidYMid meet">
<metadata>
Created by potrace 1.16, written by Peter Selinger 2001-2019
</metadata>
<g transform="translate(0.000000,54.000000) scale(0.100000,-0.100000)"
fill="#000000" stroke="none">
<path d="M48 533 l-48 -4 0 -65 0 -65 11 -20 10 -20 53 6 52 7 12 -27 12 -26
0 -34 0 -34 -27 -21 -28 -22 -41 6 -42 5 -6 -31 -6 -31 0 -56 0 -56 9 -13 8
-13 84 3 84 3 -3 67 -4 66 21 11 20 11 24 0 24 0 22 -24 22 -24 -3 -57 -3 -58
26 -7 25 -7 79 11 78 11 4 25 4 25 9 58 9 59 -6 30 -6 30 -59 -7 -59 -7 -20
18 -19 17 0 23 0 23 17 16 17 17 35 -5 36 -6 24 -7 24 -7 -7 94 -8 94 -1 2 -2
1 -80 -26 -80 -27 -12 -8 -12 -8 11 -25 12 -26 -19 -14 -19 -14 -51 0 -51 0
-21 15 -22 16 -6 33 -7 33 10 37 10 36 -36 -2 -37 -2 -47 -3z"/>
</g>
</svg>
