<?xml version="1.0" standalone="no"?>
<!DOCTYPE svg PUBLIC "-//W3C//DTD SVG 20010904//EN"
 "http://www.w3.org/TR/2001/REC-SVG-20010904/DTD/svg10.dtd">
<svg version="1.0" xmlns="http://www.w3.org/2000/svg"
 width="67.000000pt" height="67.000000pt" viewBox="0 0 67.000000 67.000000"
 preserveAspectRatio="xMidYMid meet">
<metadata>
Created by potrace 1.16, written by Peter Selinger 2001-2019
</metadata>
<g transform="translate(0.000000,67.000000) scale(0.100000,-0.100000)"
fill="#000000" stroke="none">
<path d="M166 580 l10 -85 -3 -10 -4 -11 -58 10 -59 10 -26 -17 -26 -17 0 -30
0 -29 15 -15 15 -15 35 6 34 5 7 -28 7 -29 19 -70 19 -70 0 -15 1 -15 78 0 79
0 12 -12 11 -11 -12 -53 -13 -52 19 -14 18 -13 41 0 41 0 23 16 23 16 -4 77
-3 76 38 3 38 3 51 -15 52 -15 6 4 7 4 -9 58 -9 58 -7 40 -7 40 -25 -2 -25 -2
-22 5 -23 4 -6 24 -6 24 11 20 11 20 35 12 35 12 30 -7 30 -7 0 59 0 58 -6 36
-6 35 -74 -10 -73 -11 -11 -11 -11 -11 10 -26 11 -27 -9 -24 -9 -23 -17 -7
-17 -6 -44 0 -45 0 -6 16 -6 16 11 35 11 35 -9 24 -9 23 -23 5 -23 5 -80 3
-80 3 11 -85z"/>
</g>
</svg>
