<?xml version="1.0" standalone="no"?>
<!DOCTYPE svg PUBLIC "-//W3C//DTD SVG 20010904//EN"
 "http://www.w3.org/TR/2001/REC-SVG-20010904/DTD/svg10.dtd">
<svg version="1.0" xmlns="http://www.w3.org/2000/svg"
 width="69.000000pt" height="69.000000pt" viewBox="0 0 69.000000 69.000000"
 preserveAspectRatio="xMidYMid meet">
<metadata>
Created by potrace 1.16, written by Peter Selinger 2001-2019
</metadata>
<g transform="translate(0.000000,69.000000) scale(0.100000,-0.100000)"
fill="#000000" stroke="none">
<path d="M154 665 l6 -22 6 -71 7 -72 -61 6 -61 7 -26 -17 -25 -16 0 -40 0
-39 17 -16 16 -17 33 7 33 6 10 -38 9 -38 18 -75 18 -75 77 0 78 0 10 -10 9
-10 -11 -54 -11 -53 19 -14 19 -14 51 0 51 0 22 16 23 16 -2 77 -2 76 23 3 24
4 64 -17 63 -18 10 10 9 9 -11 64 -10 65 -7 40 -7 40 -35 1 -35 1 -11 2 -12 1
-6 16 -6 15 10 19 10 18 30 10 30 11 36 -6 37 -6 -5 102 -5 101 -4 4 -4 5 -80
-11 -80 -11 -13 -10 -12 -10 6 -47 6 -48 -20 -11 -21 -11 -35 0 -35 0 -6 10
-6 10 11 37 12 38 -11 27 -10 27 -23 5 -23 5 -93 4 -94 5 6 -23z"/>
</g>
</svg>
