<?xml version="1.0" standalone="no"?>
<!DOCTYPE svg PUBLIC "-//W3C//DTD SVG 20010904//EN"
 "http://www.w3.org/TR/2001/REC-SVG-20010904/DTD/svg10.dtd">
<svg version="1.0" xmlns="http://www.w3.org/2000/svg"
 width="70.000000pt" height="71.000000pt" viewBox="0 0 70.000000 71.000000"
 preserveAspectRatio="xMidYMid meet">
<metadata>
Created by potrace 1.16, written by Peter Selinger 2001-2019
</metadata>
<g transform="translate(0.000000,71.000000) scale(0.100000,-0.100000)"
fill="#000000" stroke="none">
<path d="M331 696 l-13 -16 12 -29 12 -29 -17 -31 -16 -32 -23 -10 -23 -11
-23 12 -22 12 -14 33 -14 34 6 30 7 31 -34 0 -34 0 -67 -7 -68 -6 0 -77 0 -76
13 -19 14 -18 66 5 66 6 5 -15 6 -15 0 -27 0 -28 -25 -27 -24 -26 -26 12 -26
11 -11 -11 -11 -11 -18 -83 -19 -83 0 -17 0 -18 88 0 87 0 -3 -59 -4 -59 21
-21 21 -21 45 0 45 0 15 24 16 25 -6 44 -7 44 32 7 33 6 68 0 69 0 0 74 0 73
6 30 6 29 58 -1 58 0 21 19 21 19 0 33 0 33 -10 25 -9 25 -27 7 -27 7 -35 -13
-35 -13 -14 19 -13 18 0 72 0 73 -37 11 -38 10 -55 6 -56 6 -13 -16z"/>
</g>
</svg>
