<?xml version="1.0" standalone="no"?>
<!DOCTYPE svg PUBLIC "-//W3C//DTD SVG 20010904//EN"
 "http://www.w3.org/TR/2001/REC-SVG-20010904/DTD/svg10.dtd">
<svg version="1.0" xmlns="http://www.w3.org/2000/svg"
 width="69.000000pt" height="55.000000pt" viewBox="0 0 69.000000 55.000000"
 preserveAspectRatio="xMidYMid meet">
<metadata>
Created by potrace 1.16, written by Peter Selinger 2001-2019
</metadata>
<g transform="translate(0.000000,55.000000) scale(0.100000,-0.100000)"
fill="#000000" stroke="none">
<path d="M290 543 l-35 -3 -43 -6 -43 -5 3 -99 3 -99 -7 -7 -7 -7 -45 12 -44
11 -30 -11 -31 -11 -6 -19 -6 -19 6 -19 6 -19 33 -16 34 -16 25 0 26 0 25 10
26 9 15 -5 15 -6 0 -41 0 -40 -17 -53 -17 -54 5 -4 4 -5 70 -1 70 -2 11 1 12
1 -5 44 -5 43 17 27 18 27 19 10 19 10 17 -5 18 -6 18 -31 18 -31 -6 -42 -7
-43 16 -13 17 -14 86 13 87 12 3 4 3 3 -19 39 -20 38 -7 35 -7 35 -15 23 -15
24 -19 -5 -19 -5 0 52 0 53 19 17 20 18 39 -7 39 -6 7 17 7 18 -7 78 -7 79
-16 -5 -16 -5 -63 -10 -62 -10 -11 -6 -10 -7 6 -38 6 -38 -23 -16 -22 -16 -36
0 -35 0 -25 13 -25 13 -12 34 -12 35 6 38 6 37 -4 -2 -4 -1 -35 -4z"/>
</g>
</svg>
