<?xml version="1.0" standalone="no"?>
<!DOCTYPE svg PUBLIC "-//W3C//DTD SVG 20010904//EN"
 "http://www.w3.org/TR/2001/REC-SVG-20010904/DTD/svg10.dtd">
<svg version="1.0" xmlns="http://www.w3.org/2000/svg"
 width="81.000000pt" height="66.000000pt" viewBox="0 0 81.000000 66.000000"
 preserveAspectRatio="xMidYMid meet">
<metadata>
Created by potrace 1.16, written by Peter Selinger 2001-2019
</metadata>
<g transform="translate(0.000000,66.000000) scale(0.100000,-0.100000)"
fill="#000000" stroke="none">
<path d="M223 652 l-53 -3 0 -75 0 -74 -20 -20 -20 -20 -28 7 -27 7 -35 1 -35
0 -3 -44 -3 -44 6 -24 6 -24 36 -15 36 -16 40 11 41 10 13 -17 13 -17 -7 -55
-7 -55 0 -25 -1 -25 45 -3 45 -2 32 -5 32 -6 15 -15 15 -14 -11 -30 -10 -30
12 -15 12 -15 45 0 44 0 20 10 19 11 16 31 16 31 -4 38 -4 39 27 0 26 0 49
-15 49 -15 15 0 15 0 22 73 22 72 7 29 7 29 28 11 29 10 0 47 0 47 -15 12 -15
12 -31 -13 -32 -13 -13 19 -14 19 0 82 0 82 -22 6 -23 6 -73 0 -73 0 -6 -16
-6 -17 12 -18 11 -19 -14 -29 -15 -29 -16 -6 -17 -6 -23 0 -23 0 -10 13 -10
12 9 20 8 20 0 22 1 22 -17 9 -18 9 -45 4 -45 5 -52 -4z"/>
</g>
</svg>
