<?xml version="1.0" standalone="no"?>
<!DOCTYPE svg PUBLIC "-//W3C//DTD SVG 20010904//EN"
 "http://www.w3.org/TR/2001/REC-SVG-20010904/DTD/svg10.dtd">
<svg version="1.0" xmlns="http://www.w3.org/2000/svg"
 width="84.000000pt" height="54.000000pt" viewBox="0 0 84.000000 54.000000"
 preserveAspectRatio="xMidYMid meet">
<metadata>
Created by potrace 1.16, written by Peter Selinger 2001-2019
</metadata>
<g transform="translate(0.000000,54.000000) scale(0.100000,-0.100000)"
fill="#000000" stroke="none">
<path d="M218 533 l-66 -4 -4 -90 -3 -91 -24 -20 -25 -19 -20 6 -21 7 -25 2
-25 1 -3 -47 -3 -47 26 -17 27 -18 28 11 27 10 12 -19 12 -20 6 -90 6 -90 99
4 100 3 15 20 15 20 -5 37 -5 36 25 5 25 5 27 -7 26 -7 3 -24 4 -23 13 -13 13
-13 76 -16 76 -16 11 7 11 6 -7 68 -7 68 11 19 10 20 53 -5 53 -4 28 22 27 21
0 44 0 43 -15 12 -15 13 -56 -6 -56 -6 -14 6 -14 5 0 94 0 94 -97 0 -98 0 -14
-9 -14 -9 7 -47 7 -47 -17 -19 -17 -19 -27 0 -28 0 -12 15 -13 15 7 65 7 65
-38 -2 -38 -2 -67 -3z"/>
</g>
</svg>
