<?xml version="1.0" standalone="no"?>
<!DOCTYPE svg PUBLIC "-//W3C//DTD SVG 20010904//EN"
 "http://www.w3.org/TR/2001/REC-SVG-20010904/DTD/svg10.dtd">
<svg version="1.0" xmlns="http://www.w3.org/2000/svg"
 width="82.000000pt" height="52.000000pt" viewBox="0 0 82.000000 52.000000"
 preserveAspectRatio="xMidYMid meet">
<metadata>
Created by potrace 1.16, written by Peter Selinger 2001-2019
</metadata>
<g transform="translate(0.000000,52.000000) scale(0.100000,-0.100000)"
fill="#000000" stroke="none">
<path d="M218 513 l-66 -4 -4 -90 -3 -91 -25 -20 -24 -20 -26 5 -25 6 -20 3
-20 3 -3 -37 -3 -37 24 -16 25 -16 26 12 26 12 15 -19 14 -19 7 -65 7 -65 0
-28 0 -29 89 4 90 3 14 20 15 20 -4 20 -4 20 -4 14 -4 14 33 9 32 9 41 -11 40
-11 -6 -20 -6 -19 14 -15 15 -14 69 -15 68 -14 8 5 7 4 -6 68 -7 68 12 21 12
22 52 -6 52 -6 28 22 28 22 -3 36 -3 35 -17 11 -17 10 -52 -11 -53 -10 -13 13
-13 13 0 90 0 91 -84 0 -84 0 -16 -6 -16 -6 6 -49 7 -50 -18 -19 -18 -20 -37
0 -38 0 -12 15 -13 15 5 65 6 65 -27 -2 -26 -2 -67 -3z"/>
</g>
</svg>
