<?xml version="1.0" standalone="no"?>
<!DOCTYPE svg PUBLIC "-//W3C//DTD SVG 20010904//EN"
 "http://www.w3.org/TR/2001/REC-SVG-20010904/DTD/svg10.dtd">
<svg version="1.0" xmlns="http://www.w3.org/2000/svg"
 width="82.000000pt" height="66.000000pt" viewBox="0 0 82.000000 66.000000"
 preserveAspectRatio="xMidYMid meet">
<metadata>
Created by potrace 1.16, written by Peter Selinger 2001-2019
</metadata>
<g transform="translate(0.000000,66.000000) scale(0.100000,-0.100000)"
fill="#000000" stroke="none">
<path d="M165 587 l0 -74 -14 -16 -13 -17 -27 0 -27 0 -11 11 -11 11 -21 -7
-21 -6 -11 -42 -11 -42 9 -25 9 -25 39 0 40 0 12 -8 11 -7 18 -100 19 -100 88
0 88 0 19 -10 20 -10 -7 -45 -6 -45 13 -15 12 -15 38 0 39 0 21 27 22 28 -4
43 -3 44 96 -4 96 -4 24 96 24 95 33 -3 32 -3 10 27 11 28 -3 50 -3 51 -57 0
-56 0 -9 8 -8 9 -4 79 -3 80 -40 -6 -41 -7 -46 -12 -46 -11 -2 -30 -1 -30 -1
-12 -1 -12 -30 -16 -29 -15 -26 0 -25 0 -1 13 0 12 -2 50 -2 50 -35 17 -35 18
-75 0 -76 0 1 -73z"/>
</g>
</svg>
