<?xml version="1.0" standalone="no"?>
<!DOCTYPE svg PUBLIC "-//W3C//DTD SVG 20010904//EN"
 "http://www.w3.org/TR/2001/REC-SVG-20010904/DTD/svg10.dtd">
<svg version="1.0" xmlns="http://www.w3.org/2000/svg"
 width="75.000000pt" height="71.000000pt" viewBox="0 0 75.000000 71.000000"
 preserveAspectRatio="xMidYMid meet">
<metadata>
Created by potrace 1.16, written by Peter Selinger 2001-2019
</metadata>
<g transform="translate(0.000000,71.000000) scale(0.100000,-0.100000)"
fill="#000000" stroke="none">
<path d="M281 694 l-24 -17 7 -68 6 -68 -36 -7 -36 -7 -70 5 -70 5 -10 -22
-10 -23 7 -68 7 -67 26 -24 26 -24 46 3 45 3 0 -20 0 -20 -27 -13 -28 -13 -37
0 -38 1 -30 2 -30 3 1 -75 0 -75 22 -50 22 -50 125 -3 125 -3 0 23 0 23 -9 14
-10 15 15 28 15 28 29 0 30 0 0 -24 0 -24 13 -10 12 -11 65 -16 65 -16 29 -6
28 -6 9 14 9 14 1 45 1 45 7 25 7 24 46 -3 45 -2 22 27 21 27 0 47 0 48 -14
11 -15 12 -68 -2 -68 -2 3 91 3 91 -29 15 -29 15 -69 17 -69 17 -13 10 -13 10
11 11 10 10 0 17 0 18 -26 20 -27 21 -16 0 -17 0 -23 -16z"/>
</g>
</svg>
