<?xml version="1.0" standalone="no"?>
<!DOCTYPE svg PUBLIC "-//W3C//DTD SVG 20010904//EN"
 "http://www.w3.org/TR/2001/REC-SVG-20010904/DTD/svg10.dtd">
<svg version="1.0" xmlns="http://www.w3.org/2000/svg"
 width="73.000000pt" height="69.000000pt" viewBox="0 0 73.000000 69.000000"
 preserveAspectRatio="xMidYMid meet">
<metadata>
Created by potrace 1.16, written by Peter Selinger 2001-2019
</metadata>
<g transform="translate(0.000000,69.000000) scale(0.100000,-0.100000)"
fill="#000000" stroke="none">
<path d="M281 674 l-23 -16 7 -68 7 -67 -28 -7 -27 -7 -80 2 -80 2 -9 -17 -10
-17 7 -61 7 -61 26 -24 25 -23 14 0 14 0 20 11 20 10 15 -12 15 -12 -3 -26 -3
-26 -29 -13 -28 -14 -47 0 -46 0 -20 3 -20 4 1 -65 1 -65 22 -50 22 -50 114
-3 115 -3 0 10 0 10 -11 24 -11 24 16 32 17 31 45 0 45 0 -6 -20 -7 -21 12
-14 11 -14 32 -6 32 -6 53 -16 54 -16 9 14 9 14 1 45 1 45 7 25 7 25 46 -3 45
-3 22 27 21 27 0 37 0 38 -15 12 -15 12 -67 -3 -68 -4 0 93 0 93 -25 14 -25
14 -70 17 -70 16 -15 14 -15 14 14 22 14 22 -27 23 -27 23 -7 0 -8 0 -23 -16z"/>
</g>
</svg>
