<?xml version="1.0" standalone="no"?>
<!DOCTYPE svg PUBLIC "-//W3C//DTD SVG 20010904//EN"
 "http://www.w3.org/TR/2001/REC-SVG-20010904/DTD/svg10.dtd">
<svg version="1.0" xmlns="http://www.w3.org/2000/svg"
 width="59.000000pt" height="84.000000pt" viewBox="0 0 59.000000 84.000000"
 preserveAspectRatio="xMidYMid meet">
<metadata>
Created by potrace 1.16, written by Peter Selinger 2001-2019
</metadata>
<g transform="translate(0.000000,84.000000) scale(0.100000,-0.100000)"
fill="#000000" stroke="none">
<path d="M221 831 l-14 -9 5 -67 6 -66 -27 -10 -26 -11 -80 4 -80 3 1 -88 1
-88 20 -27 20 -27 48 -1 47 -1 8 -13 9 -14 -10 -17 -9 -17 -37 4 -38 5 -14
-10 -14 -9 -12 -84 -13 -83 -7 -29 -8 -29 107 6 106 7 0 -64 0 -65 16 -15 15
-16 58 0 59 0 12 15 13 15 -6 40 -5 40 7 5 8 4 74 12 73 11 13 17 12 16 16 67
15 67 0 24 0 23 -14 19 -14 19 -50 -13 -50 -12 -31 16 -31 16 0 22 0 23 11 11
12 12 25 -10 25 -10 27 6 27 6 12 25 11 25 0 83 0 84 -87 12 -88 11 -25 8 -25
8 3 51 4 50 -20 11 -21 11 -28 0 -28 0 -14 -9z"/>
</g>
</svg>
