<?xml version="1.0" standalone="no"?>
<!DOCTYPE svg PUBLIC "-//W3C//DTD SVG 20010904//EN"
 "http://www.w3.org/TR/2001/REC-SVG-20010904/DTD/svg10.dtd">
<svg version="1.0" xmlns="http://www.w3.org/2000/svg"
 width="54.000000pt" height="68.000000pt" viewBox="0 0 54.000000 68.000000"
 preserveAspectRatio="xMidYMid meet">
<metadata>
Created by potrace 1.16, written by Peter Selinger 2001-2019
</metadata>
<g transform="translate(0.000000,68.000000) scale(0.100000,-0.100000)"
fill="#000000" stroke="none">
<path d="M220 660 l-20 -20 0 -19 0 -18 11 -32 11 -31 -13 -16 -12 -15 -91 2
-91 2 0 -91 0 -92 17 -17 18 -17 32 2 33 3 30 2 30 2 3 -29 4 -28 -6 -24 -6
-23 -21 -12 -21 -11 -46 12 -45 11 -13 -13 -13 -13 -1 -75 -1 -75 0 -10 1 -10
106 -3 107 -4 -8 19 -8 18 -4 30 -5 30 21 19 20 18 36 0 37 0 11 -12 12 -11 0
-47 0 -47 95 0 95 0 -3 78 -4 78 -7 27 -8 27 -44 0 -44 0 0 50 0 50 49 -3 49
-2 13 11 14 11 0 88 0 87 -37 11 -38 10 -57 12 -56 11 -12 14 -11 14 11 20 11
21 -10 19 -10 19 -17 6 -16 6 -29 0 -29 0 -20 -20z"/>
</g>
</svg>
