<?xml version="1.0" standalone="no"?>
<!DOCTYPE svg PUBLIC "-//W3C//DTD SVG 20010904//EN"
 "http://www.w3.org/TR/2001/REC-SVG-20010904/DTD/svg10.dtd">
<svg version="1.0" xmlns="http://www.w3.org/2000/svg"
 width="74.000000pt" height="68.000000pt" viewBox="0 0 74.000000 68.000000"
 preserveAspectRatio="xMidYMid meet">
<metadata>
Created by potrace 1.16, written by Peter Selinger 2001-2019
</metadata>
<g transform="translate(0.000000,68.000000) scale(0.100000,-0.100000)"
fill="#000000" stroke="none">
<path d="M255 666 l-20 -14 13 -46 12 -45 -6 -15 -5 -14 -29 -12 -28 -12 -71
4 -71 3 -5 -13 -5 -14 0 -81 0 -82 8 -11 7 -12 52 11 52 11 15 -13 16 -13 0
-19 0 -18 -32 -17 -31 -16 -57 6 -58 7 -6 -26 -7 -26 7 -37 6 -37 13 -47 14
-48 -7 -1 -7 -2 55 -7 55 -8 53 -1 52 -1 0 8 -1 7 -8 44 -9 43 19 19 19 19 33
0 32 0 21 -6 21 -6 -4 -22 -5 -22 14 -11 13 -11 70 -19 70 -20 19 -8 18 -8 -8
44 -8 44 -1 40 0 40 66 -3 66 -4 27 24 26 23 6 32 6 32 -26 26 -27 27 -62 -4
-62 -3 -3 97 -3 96 -30 -15 -30 -15 -63 -11 -63 -10 -16 6 -16 6 6 79 6 79
-22 22 -21 21 -18 0 -18 0 -19 -14z"/>
</g>
</svg>
