<?xml version="1.0" standalone="no"?>
<!DOCTYPE svg PUBLIC "-//W3C//DTD SVG 20010904//EN"
 "http://www.w3.org/TR/2001/REC-SVG-20010904/DTD/svg10.dtd">
<svg version="1.0" xmlns="http://www.w3.org/2000/svg"
 width="63.000000pt" height="52.000000pt" viewBox="0 0 63.000000 52.000000"
 preserveAspectRatio="xMidYMid meet">
<metadata>
Created by potrace 1.16, written by Peter Selinger 2001-2019
</metadata>
<g transform="translate(0.000000,52.000000) scale(0.100000,-0.100000)"
fill="#000000" stroke="none">
<path d="M158 513 l-26 -4 -4 -90 -3 -90 -15 -9 -15 -10 -28 6 -28 6 -20 -18
-19 -17 0 -33 0 -33 10 -6 10 -6 21 12 21 11 15 -14 14 -14 10 -70 10 -69 10
-32 11 -33 83 0 83 0 12 15 12 15 -11 31 -11 32 0 18 0 19 20 20 20 20 29 0
29 0 16 -6 17 -6 10 -19 10 -19 -12 -21 -11 -21 14 -14 13 -13 73 -16 74 -15
9 6 9 5 0 69 0 68 -6 16 -6 15 -46 -5 -47 -6 -34 31 -34 30 6 37 6 36 18 14
18 13 37 1 37 0 25 -10 26 -9 6 25 6 25 -4 54 -5 55 -4 5 -5 5 -74 -16 -75
-15 -6 -11 -7 -11 11 -18 12 -19 -20 -14 -20 -15 -47 -1 -47 0 -27 25 -27 25
6 39 5 40 -15 5 -15 6 -41 -1 -42 -2 -27 -4z"/>
</g>
</svg>
