<?xml version="1.0" standalone="no"?>
<!DOCTYPE svg PUBLIC "-//W3C//DTD SVG 20010904//EN"
 "http://www.w3.org/TR/2001/REC-SVG-20010904/DTD/svg10.dtd">
<svg version="1.0" xmlns="http://www.w3.org/2000/svg"
 width="66.000000pt" height="56.000000pt" viewBox="0 0 66.000000 56.000000"
 preserveAspectRatio="xMidYMid meet">
<metadata>
Created by potrace 1.16, written by Peter Selinger 2001-2019
</metadata>
<g transform="translate(0.000000,56.000000) scale(0.100000,-0.100000)"
fill="#000000" stroke="none">
<path d="M44 553 l-31 -4 -6 -72 -6 -73 8 -29 8 -30 19 2 19 3 41 6 40 6 18
-18 18 -17 -6 -36 -6 -36 -17 -13 -18 -13 -37 6 -37 7 -5 -24 -5 -23 -11 -59
-10 -60 0 -18 0 -19 103 3 102 3 -4 15 -3 15 -6 39 -5 39 18 14 19 13 19 0 19
0 30 -30 30 -31 -6 -53 -7 -54 25 -6 25 -6 45 10 45 10 25 11 26 12 0 8 0 7
-12 4 -11 4 -5 82 -5 82 18 6 18 7 17 -11 18 -11 33 9 32 9 18 17 19 17 0 33
0 33 -16 15 -15 16 -23 6 -22 5 -28 -11 -28 -10 -15 17 -14 18 5 78 5 78 -17
-5 -17 -5 -70 -11 -70 -11 -18 -5 -17 -5 6 -40 7 -39 -13 -15 -12 -15 -23 0
-23 0 -17 6 -16 6 -14 29 -15 28 0 46 0 45 -52 -2 -53 -1 -31 -4z"/>
</g>
</svg>
