<?xml version="1.0" standalone="no"?>
<!DOCTYPE svg PUBLIC "-//W3C//DTD SVG 20010904//EN"
 "http://www.w3.org/TR/2001/REC-SVG-20010904/DTD/svg10.dtd">
<svg version="1.0" xmlns="http://www.w3.org/2000/svg"
 width="80.000000pt" height="57.000000pt" viewBox="0 0 80.000000 57.000000"
 preserveAspectRatio="xMidYMid meet">
<metadata>
Created by potrace 1.16, written by Peter Selinger 2001-2019
</metadata>
<g transform="translate(0.000000,57.000000) scale(0.100000,-0.100000)"
fill="#000000" stroke="none">
<path d="M114 536 l5 -31 6 -48 6 -47 -6 -19 -6 -19 -40 5 -39 6 -20 -18 -20
-18 0 -64 0 -64 22 3 22 3 13 -25 13 -25 10 -40 10 -40 21 -34 20 -34 75 6 75
6 24 15 24 16 3 52 3 53 34 3 33 3 24 -22 24 -23 -2 -65 -3 -66 55 -3 55 -3
40 14 40 14 -1 34 -1 34 -7 70 -7 70 10 14 9 15 16 -13 16 -14 43 7 42 7 23
15 22 14 0 35 0 34 -21 11 -20 11 -62 -2 -62 -2 4 98 3 98 -33 -6 -34 -6 -67
-7 -67 -6 -17 -12 -16 -12 12 -43 11 -43 -12 -14 -12 -15 -46 3 -46 3 0 71 0
72 -7 7 -6 6 -96 3 -96 2 4 -30z"/>
</g>
</svg>
