<?xml version="1.0" standalone="no"?>
<!DOCTYPE svg PUBLIC "-//W3C//DTD SVG 20010904//EN"
 "http://www.w3.org/TR/2001/REC-SVG-20010904/DTD/svg10.dtd">
<svg version="1.0" xmlns="http://www.w3.org/2000/svg"
 width="78.000000pt" height="55.000000pt" viewBox="0 0 78.000000 55.000000"
 preserveAspectRatio="xMidYMid meet">
<metadata>
Created by potrace 1.16, written by Peter Selinger 2001-2019
</metadata>
<g transform="translate(0.000000,55.000000) scale(0.100000,-0.100000)"
fill="#000000" stroke="none">
<path d="M166 542 l-48 -3 6 -77 7 -78 -7 -18 -7 -17 -39 6 -39 7 -20 -18 -19
-17 0 -52 0 -52 22 1 22 1 13 -25 13 -25 10 -40 10 -40 21 -34 20 -34 66 6 66
7 25 16 24 16 -4 49 -5 48 14 6 15 5 37 0 38 0 22 -24 23 -24 -4 -64 -3 -63
45 -3 45 -3 40 14 40 14 -1 24 -1 24 -8 67 -8 66 7 26 6 26 20 0 19 0 7 -11 6
-11 37 7 36 6 23 15 22 14 0 25 0 24 -21 12 -21 11 -62 -4 -61 -3 3 98 4 99
-19 -5 -18 -5 -70 -7 -70 -7 -16 -9 -16 -8 10 -45 10 -45 -13 -16 -12 -15 -54
0 -54 0 -9 23 -9 24 10 47 10 48 -8 8 -9 7 -35 4 -35 4 -49 -3z"/>
</g>
</svg>
