<?xml version="1.0" standalone="no"?>
<!DOCTYPE svg PUBLIC "-//W3C//DTD SVG 20010904//EN"
 "http://www.w3.org/TR/2001/REC-SVG-20010904/DTD/svg10.dtd">
<svg version="1.0" xmlns="http://www.w3.org/2000/svg"
 width="74.000000pt" height="69.000000pt" viewBox="0 0 74.000000 69.000000"
 preserveAspectRatio="xMidYMid meet">
<metadata>
Created by potrace 1.16, written by Peter Selinger 2001-2019
</metadata>
<g transform="translate(0.000000,69.000000) scale(0.100000,-0.100000)"
fill="#000000" stroke="none">
<path d="M164 658 l6 -33 2 -53 3 -53 -63 -2 -64 -2 -24 -28 -24 -28 0 -24 0
-24 30 -16 30 -15 43 -6 44 -6 21 11 21 11 11 -20 10 -19 -16 -73 -16 -73 -5
-22 -5 -23 89 0 90 0 -10 -52 -9 -53 11 -27 11 -28 64 0 64 0 26 31 26 31 0
64 0 64 28 0 27 -1 40 -14 40 -15 20 0 21 0 17 64 17 64 0 45 0 45 -14 11 -13
11 -51 -11 -51 -12 -25 17 -26 16 0 20 0 20 25 16 24 16 36 -12 36 -12 14 6
15 5 0 43 0 43 -7 68 -6 67 -269 0 -269 0 5 -32z"/>
</g>
</svg>
