<?xml version="1.0" standalone="no"?>
<!DOCTYPE svg PUBLIC "-//W3C//DTD SVG 20010904//EN"
 "http://www.w3.org/TR/2001/REC-SVG-20010904/DTD/svg10.dtd">
<svg version="1.0" xmlns="http://www.w3.org/2000/svg"
 width="54.000000pt" height="80.000000pt" viewBox="0 0 54.000000 80.000000"
 preserveAspectRatio="xMidYMid meet">
<metadata>
Created by potrace 1.16, written by Peter Selinger 2001-2019
</metadata>
<g transform="translate(0.000000,80.000000) scale(0.100000,-0.100000)"
fill="#000000" stroke="none">
<path d="M212 791 l-13 -8 6 -35 7 -34 -18 -15 -17 -14 -86 -5 -86 -5 0 -103
0 -104 20 -14 20 -15 40 3 40 3 3 -18 4 -19 -6 -24 -6 -24 -25 0 -25 0 -10
-22 -9 -23 -16 -57 -15 -57 -10 -6 -10 -6 0 -21 0 -21 85 7 85 7 0 -46 0 -46
15 -28 14 -29 16 -6 17 -6 49 0 49 0 21 21 21 21 -3 76 -3 77 33 -3 33 -2 49
-22 50 -21 2 4 3 4 -5 110 -6 110 -47 0 -47 0 -20 22 -21 22 0 19 0 18 13 17
12 18 33 -12 32 -11 24 15 23 16 7 32 6 31 0 59 0 58 -42 5 -43 5 -48 6 -49 6
7 40 7 39 -27 10 -26 10 -47 0 -47 0 -13 -9z"/>
</g>
</svg>
