<?xml version="1.0" standalone="no"?>
<!DOCTYPE svg PUBLIC "-//W3C//DTD SVG 20010904//EN"
 "http://www.w3.org/TR/2001/REC-SVG-20010904/DTD/svg10.dtd">
<svg version="1.0" xmlns="http://www.w3.org/2000/svg"
 width="52.000000pt" height="78.000000pt" viewBox="0 0 52.000000 78.000000"
 preserveAspectRatio="xMidYMid meet">
<metadata>
Created by potrace 1.16, written by Peter Selinger 2001-2019
</metadata>
<g transform="translate(0.000000,78.000000) scale(0.100000,-0.100000)"
fill="#000000" stroke="none">
<path d="M214 774 l-12 -5 5 -37 5 -38 -17 -14 -18 -15 -86 -5 -86 -5 -3 -65
-3 -65 6 -33 6 -33 25 -11 24 -11 24 11 24 10 11 -11 11 -11 0 -31 0 -30 -6
-21 -6 -21 -23 5 -24 4 -10 -23 -10 -24 -16 -57 -15 -57 -10 -6 -10 -6 0 -10
0 -11 90 8 89 7 -6 -36 -5 -36 6 -26 7 -26 19 -19 20 -20 45 0 45 0 21 21 22
22 -6 74 -6 74 16 6 15 6 51 -15 52 -15 18 -8 18 -7 -3 98 -3 99 -45 -3 -45
-3 -23 25 -22 26 0 28 0 28 14 19 14 19 36 -11 36 -11 21 17 22 17 5 76 5 76
-44 6 -44 5 -47 6 -46 6 -6 15 -6 15 11 21 11 20 -11 11 -10 10 -53 3 -53 3
-11 -5z"/>
</g>
</svg>
