<?xml version="1.0" standalone="no"?>
<!DOCTYPE svg PUBLIC "-//W3C//DTD SVG 20010904//EN"
 "http://www.w3.org/TR/2001/REC-SVG-20010904/DTD/svg10.dtd">
<svg version="1.0" xmlns="http://www.w3.org/2000/svg"
 width="81.000000pt" height="55.000000pt" viewBox="0 0 81.000000 55.000000"
 preserveAspectRatio="xMidYMid meet">
<metadata>
Created by potrace 1.16, written by Peter Selinger 2001-2019
</metadata>
<g transform="translate(0.000000,55.000000) scale(0.100000,-0.100000)"
fill="#000000" stroke="none">
<path d="M456 542 l-4 -7 10 -45 10 -45 -14 -40 -13 -40 -27 -3 -27 -3 -21 21
-22 22 4 61 3 62 -22 -1 -23 0 -76 -2 -76 -2 8 -111 7 -112 -29 8 -29 8 -23 0
-23 -1 -29 -12 -29 -12 -5 -15 -6 -15 13 -26 12 -27 34 -11 33 -11 50 10 50
10 9 -14 9 -14 0 -23 0 -22 -20 -57 -20 -57 0 -4 0 -4 74 4 74 3 20 18 20 18
4 23 5 23 -8 21 -8 22 48 0 48 0 17 -19 17 -19 -10 -7 -11 -6 0 -20 0 -19 23
-9 22 -8 65 -7 64 -7 17 -10 17 -9 16 43 15 42 15 59 15 59 11 11 11 11 9 -15
9 -14 20 18 21 19 0 44 0 43 -21 21 -22 22 -52 -6 -53 -5 1 81 2 81 -55 17
-55 18 -47 0 -47 1 -5 -8z"/>
</g>
</svg>
