<?xml version="1.0" standalone="no"?>
<!DOCTYPE svg PUBLIC "-//W3C//DTD SVG 20010904//EN"
 "http://www.w3.org/TR/2001/REC-SVG-20010904/DTD/svg10.dtd">
<svg version="1.0" xmlns="http://www.w3.org/2000/svg"
 width="83.000000pt" height="57.000000pt" viewBox="0 0 83.000000 57.000000"
 preserveAspectRatio="xMidYMid meet">
<metadata>
Created by potrace 1.16, written by Peter Selinger 2001-2019
</metadata>
<g transform="translate(0.000000,57.000000) scale(0.100000,-0.100000)"
fill="#000000" stroke="none">
<path d="M454 556 l-5 -14 10 -40 11 -40 -12 -38 -13 -39 -17 -3 -17 -3 -21
21 -22 22 4 61 3 62 -32 -1 -33 0 -76 -2 -77 -2 8 -110 7 -110 -30 11 -30 10
-41 -11 -40 -11 -16 -16 -17 -16 6 -30 6 -30 11 -13 11 -14 36 -9 35 -10 45
10 45 10 9 -13 8 -13 0 -13 0 -12 -20 -57 -20 -57 0 -14 0 -14 85 3 84 4 22
22 22 21 1 41 1 41 32 0 32 0 7 -12 8 -13 -3 -32 -3 -33 24 -9 23 -8 63 -7 64
-7 25 -12 24 -11 10 15 9 14 15 50 14 50 11 42 10 41 20 -5 21 -6 19 18 20 18
0 54 0 53 -21 21 -21 21 -52 -4 -52 -3 1 80 0 79 -55 17 -55 18 -58 0 -58 1
-5 -14z"/>
</g>
</svg>
