<?xml version="1.0" standalone="no"?>
<!DOCTYPE svg PUBLIC "-//W3C//DTD SVG 20010904//EN"
 "http://www.w3.org/TR/2001/REC-SVG-20010904/DTD/svg10.dtd">
<svg version="1.0" xmlns="http://www.w3.org/2000/svg"
 width="68.000000pt" height="69.000000pt" viewBox="0 0 68.000000 69.000000"
 preserveAspectRatio="xMidYMid meet">
<metadata>
Created by potrace 1.16, written by Peter Selinger 2001-2019
</metadata>
<g transform="translate(0.000000,69.000000) scale(0.100000,-0.100000)"
fill="#000000" stroke="none">
<path d="M437 630 l6 -59 -17 -26 -16 -25 -49 0 -49 0 -10 13 -10 12 11 44 12
43 -20 14 -19 14 -72 0 -72 0 5 -57 5 -58 -11 -43 -12 -43 -25 -11 -24 -11
-24 11 -24 10 -11 -11 -11 -11 0 -24 0 -23 11 -21 11 -20 40 6 40 7 14 -12 14
-11 0 -94 0 -93 103 -3 102 -3 -3 -62 -3 -62 20 -10 20 -11 25 0 26 0 20 20
20 20 -11 21 -11 21 14 13 13 12 84 17 84 16 2 2 2 3 22 92 22 93 -11 20 -10
19 -26 -9 -25 -10 -27 0 -28 0 -22 16 -22 15 0 40 0 39 21 21 21 21 47 -4 46
-5 -6 79 -7 79 -5 5 -5 5 -53 15 -54 14 -42 0 -43 0 7 -60z"/>
</g>
</svg>
