<?xml version="1.0" standalone="no"?>
<!DOCTYPE svg PUBLIC "-//W3C//DTD SVG 20010904//EN"
 "http://www.w3.org/TR/2001/REC-SVG-20010904/DTD/svg10.dtd">
<svg version="1.0" xmlns="http://www.w3.org/2000/svg"
 width="51.000000pt" height="66.000000pt" viewBox="0 0 51.000000 66.000000"
 preserveAspectRatio="xMidYMid meet">
<metadata>
Created by potrace 1.16, written by Peter Selinger 2001-2019
</metadata>
<g transform="translate(0.000000,66.000000) scale(0.100000,-0.100000)"
fill="#000000" stroke="none">
<path d="M0 394 l0 -260 57 7 58 7 32 1 32 1 -6 -49 -6 -49 26 -26 26 -26 33
0 34 0 23 16 23 17 -6 27 -5 28 12 10 12 10 75 11 74 12 7 11 7 10 -2 89 -1
88 -11 11 -10 10 -33 -11 -32 -11 -19 17 -20 18 0 53 0 53 21 11 20 11 29 -10
29 -10 13 16 13 16 3 73 4 72 -53 7 -54 7 -35 -4 -35 -3 3 -51 4 -52 -16 -29
-15 -30 -30 -12 -30 -13 -27 14 -27 13 -11 17 -10 17 12 47 13 47 -11 11 -10
10 -90 6 -90 5 0 -261z"/>
</g>
</svg>
