<?xml version="1.0" standalone="no"?>
<!DOCTYPE svg PUBLIC "-//W3C//DTD SVG 20010904//EN"
 "http://www.w3.org/TR/2001/REC-SVG-20010904/DTD/svg10.dtd">
<svg version="1.0" xmlns="http://www.w3.org/2000/svg"
 width="53.000000pt" height="68.000000pt" viewBox="0 0 53.000000 68.000000"
 preserveAspectRatio="xMidYMid meet">
<metadata>
Created by potrace 1.16, written by Peter Selinger 2001-2019
</metadata>
<g transform="translate(0.000000,68.000000) scale(0.100000,-0.100000)"
fill="#000000" stroke="none">
<path d="M0 402 l0 -274 28 6 27 5 60 6 60 6 -3 -50 -4 -50 26 -26 25 -25 43
0 44 0 21 15 22 15 3 38 3 37 80 13 80 13 7 12 8 12 -3 97 -2 97 -12 12 -13
13 -34 -11 -35 -11 -15 17 -16 18 0 41 0 41 17 9 16 10 30 -10 29 -11 16 17
17 17 3 84 4 83 -54 7 -53 7 -45 -4 -45 -3 3 -49 3 -49 -12 -29 -12 -29 -26
-13 -26 -14 -20 8 -21 8 -13 16 -14 17 12 38 11 38 0 17 0 16 -22 9 -23 8 -87
5 -88 4 0 -274z"/>
</g>
</svg>
