<?xml version="1.0" standalone="no"?>
<!DOCTYPE svg PUBLIC "-//W3C//DTD SVG 20010904//EN"
 "http://www.w3.org/TR/2001/REC-SVG-20010904/DTD/svg10.dtd">
<svg version="1.0" xmlns="http://www.w3.org/2000/svg"
 width="67.000000pt" height="65.000000pt" viewBox="0 0 67.000000 65.000000"
 preserveAspectRatio="xMidYMid meet">
<metadata>
Created by potrace 1.16, written by Peter Selinger 2001-2019
</metadata>
<g transform="translate(0.000000,65.000000) scale(0.100000,-0.100000)"
fill="#000000" stroke="none">
<path d="M88 643 l-78 -4 0 -47 0 -47 -6 -37 -6 -37 55 6 54 6 22 -22 21 -21
0 -43 0 -44 -21 -19 -20 -18 -9 14 -9 15 -11 -11 -11 -11 -24 -92 -25 -92 0
-6 0 -6 78 5 77 5 11 -4 12 -4 -11 -35 -11 -35 21 -27 20 -27 50 -3 50 -3 23
19 24 20 -12 15 -12 14 12 10 13 10 77 17 77 17 0 17 0 17 21 90 21 90 10 10
9 9 30 -11 30 -11 15 15 15 14 0 25 0 25 -34 14 -34 14 -52 -6 -53 -6 7 102 8
102 -24 -6 -23 -5 -69 -10 -69 -11 -9 -5 -8 -5 6 -41 7 -41 -18 -14 -19 -13
-21 0 -22 0 -19 21 -19 21 1 64 1 64 -21 -2 -21 -2 -77 -3z"/>
</g>
</svg>
