<?xml version="1.0" standalone="no"?>
<!DOCTYPE svg PUBLIC "-//W3C//DTD SVG 20010904//EN"
 "http://www.w3.org/TR/2001/REC-SVG-20010904/DTD/svg10.dtd">
<svg version="1.0" xmlns="http://www.w3.org/2000/svg"
 width="69.000000pt" height="67.000000pt" viewBox="0 0 69.000000 67.000000"
 preserveAspectRatio="xMidYMid meet">
<metadata>
Created by potrace 1.16, written by Peter Selinger 2001-2019
</metadata>
<g transform="translate(0.000000,67.000000) scale(0.100000,-0.100000)"
fill="#000000" stroke="none">
<path d="M88 663 l-78 -4 0 -42 0 -42 -7 -53 -6 -54 55 7 56 7 21 -21 21 -21
0 -34 0 -35 -12 -8 -13 -7 -22 2 -21 3 -7 -11 -7 -11 -24 -90 -24 -90 0 -16 0
-15 83 3 82 3 -3 -40 -3 -40 21 -27 21 -27 58 0 57 0 22 16 23 16 -3 26 -3 26
81 18 80 19 19 92 18 92 9 24 8 23 18 -7 17 -7 16 -5 16 -5 17 17 16 16 0 35
0 35 -36 15 -37 15 -49 -6 -50 -7 7 101 8 101 -7 0 -6 0 -97 -16 -97 -15 -9
-6 -9 -5 7 -44 6 -44 -26 -12 -26 -12 -22 23 -22 22 2 64 2 65 -32 -2 -32 -2
-77 -3z"/>
</g>
</svg>
