<?xml version="1.0" standalone="no"?>
<!DOCTYPE svg PUBLIC "-//W3C//DTD SVG 20010904//EN"
 "http://www.w3.org/TR/2001/REC-SVG-20010904/DTD/svg10.dtd">
<svg version="1.0" xmlns="http://www.w3.org/2000/svg"
 width="63.000000pt" height="56.000000pt" viewBox="0 0 63.000000 56.000000"
 preserveAspectRatio="xMidYMid meet">
<metadata>
Created by potrace 1.16, written by Peter Selinger 2001-2019
</metadata>
<g transform="translate(0.000000,56.000000) scale(0.100000,-0.100000)"
fill="#000000" stroke="none">
<path d="M342 553 l-22 -4 6 -53 6 -53 -30 -21 -30 -22 -29 0 -28 0 -15 10
-15 9 0 58 0 57 -25 7 -25 7 -67 1 -68 1 0 -74 0 -75 10 -25 9 -25 27 -7 26
-7 33 10 32 10 17 -9 16 -9 0 -38 0 -38 -25 -27 -26 -28 -15 6 -16 6 -23 6
-23 6 -10 -34 -10 -33 -6 -45 -5 -46 -6 -16 -6 -16 86 -7 87 -8 14 15 15 15
-9 24 -9 24 9 32 9 33 23 15 24 16 27 -7 26 -6 15 -24 16 -23 -4 -62 -3 -61
15 -10 16 -10 57 12 57 11 14 15 15 14 6 57 6 58 5 34 5 34 44 -7 45 -6 10 20
10 19 0 38 0 38 -10 15 -9 15 -53 0 -52 0 -8 35 -7 35 6 58 6 57 -40 0 -40 0
-29 4 -29 4 -23 -5z"/>
</g>
</svg>
