<?xml version="1.0" standalone="no"?>
<!DOCTYPE svg PUBLIC "-//W3C//DTD SVG 20010904//EN"
 "http://www.w3.org/TR/2001/REC-SVG-20010904/DTD/svg10.dtd">
<svg version="1.0" xmlns="http://www.w3.org/2000/svg"
 width="70.000000pt" height="68.000000pt" viewBox="0 0 70.000000 68.000000"
 preserveAspectRatio="xMidYMid meet">
<metadata>
Created by potrace 1.16, written by Peter Selinger 2001-2019
</metadata>
<g transform="translate(0.000000,68.000000) scale(0.100000,-0.100000)"
fill="#000000" stroke="none">
<path d="M94 673 l-82 -4 -7 -105 -7 -105 5 -5 4 -5 44 10 43 10 18 -10 18
-10 0 -48 0 -48 -24 4 -24 5 -10 -19 -10 -18 -11 -56 -12 -56 -14 -19 -14 -19
-1 -19 0 -19 85 7 86 7 -6 -48 -7 -48 11 -27 11 -28 72 0 73 1 19 14 19 14 -6
30 -6 31 27 6 27 6 59 14 60 15 5 4 4 5 -13 68 -12 67 3 20 4 19 60 -2 60 -2
25 19 25 20 0 64 0 64 -15 18 -14 17 -57 -6 -57 -7 -6 16 -6 17 0 58 0 59 -10
6 -11 7 -47 -11 -47 -11 -55 -13 -55 -12 -1 -30 0 -31 -8 -12 -7 -12 -34 0
-34 0 -6 21 -7 21 7 54 6 54 -28 -2 -28 -2 -81 -3z"/>
</g>
</svg>
