<?xml version="1.0" standalone="no"?>
<!DOCTYPE svg PUBLIC "-//W3C//DTD SVG 20010904//EN"
 "http://www.w3.org/TR/2001/REC-SVG-20010904/DTD/svg10.dtd">
<svg version="1.0" xmlns="http://www.w3.org/2000/svg"
 width="68.000000pt" height="66.000000pt" viewBox="0 0 68.000000 66.000000"
 preserveAspectRatio="xMidYMid meet">
<metadata>
Created by potrace 1.16, written by Peter Selinger 2001-2019
</metadata>
<g transform="translate(0.000000,66.000000) scale(0.100000,-0.100000)"
fill="#000000" stroke="none">
<path d="M93 653 l-83 -4 0 -32 0 -32 -6 -67 -7 -66 46 10 46 9 20 -11 21 -11
0 -60 0 -61 -25 6 -24 6 -9 -17 -10 -18 -11 -56 -12 -56 -14 -19 -14 -19 -1
-8 0 -9 86 7 87 8 -7 -51 -6 -50 10 -26 10 -26 62 0 63 1 18 13 17 13 -6 31
-6 31 28 6 29 7 59 14 60 15 4 4 4 3 -12 54 -12 53 4 35 3 35 60 -3 60 -3 25
20 25 20 0 55 0 55 -17 17 -17 18 -46 -11 -46 -10 -15 14 -14 14 0 64 0 64 -8
5 -8 4 -39 -9 -40 -9 -55 -13 -55 -12 0 -35 0 -35 -25 -11 -25 -12 -28 5 -27
5 -6 25 -7 25 6 49 6 49 -17 -2 -17 -2 -82 -3z"/>
</g>
</svg>
