<?xml version="1.0" standalone="no"?>
<!DOCTYPE svg PUBLIC "-//W3C//DTD SVG 20010904//EN"
 "http://www.w3.org/TR/2001/REC-SVG-20010904/DTD/svg10.dtd">
<svg version="1.0" xmlns="http://www.w3.org/2000/svg"
 width="58.000000pt" height="68.000000pt" viewBox="0 0 58.000000 68.000000"
 preserveAspectRatio="xMidYMid meet">
<metadata>
Created by potrace 1.16, written by Peter Selinger 2001-2019
</metadata>
<g transform="translate(0.000000,68.000000) scale(0.100000,-0.100000)"
fill="#000000" stroke="none">
<path d="M366 672 l-5 -9 10 -37 10 -37 -11 -35 -12 -36 -32 -13 -31 -13 -35
6 -34 5 -13 12 -12 13 12 31 12 32 -11 17 -11 17 -24 6 -24 7 -57 1 -58 1 0
-86 0 -85 23 7 22 8 29 -2 29 -1 24 -16 24 -16 9 -25 10 -25 0 -19 0 -18 -32
-32 -32 -32 -67 4 -68 5 -5 -14 -6 -15 6 -26 6 -27 15 -49 16 -49 91 6 91 5
11 -4 11 -5 -5 -48 -4 -49 25 -17 26 -17 22 4 22 3 21 28 21 29 -1 54 0 54 33
0 32 0 56 -21 56 -21 3 4 2 3 12 53 12 54 0 55 0 55 -74 -7 -73 -7 -22 11 -21
12 0 35 0 35 14 5 14 5 38 -10 37 -10 19 10 19 10 10 27 10 27 3 78 2 78 -12
-5 -12 -5 -51 20 -51 19 -30 0 -29 0 -5 -8z"/>
</g>
</svg>
