<?xml version="1.0" standalone="no"?>
<!DOCTYPE svg PUBLIC "-//W3C//DTD SVG 20010904//EN"
 "http://www.w3.org/TR/2001/REC-SVG-20010904/DTD/svg10.dtd">
<svg version="1.0" xmlns="http://www.w3.org/2000/svg"
 width="54.000000pt" height="73.000000pt" viewBox="0 0 54.000000 73.000000"
 preserveAspectRatio="xMidYMid meet">
<metadata>
Created by potrace 1.16, written by Peter Selinger 2001-2019
</metadata>
<g transform="translate(0.000000,73.000000) scale(0.100000,-0.100000)"
fill="#000000" stroke="none">
<path d="M344 717 l-5 -14 10 -43 10 -44 -11 -20 -11 -21 -11 -7 -11 -8 -42 0
-42 0 -16 17 -17 17 5 52 5 52 -104 -1 -104 -2 0 -76 0 -76 11 -31 11 -31 19
-6 20 -7 52 4 52 3 3 -33 3 -33 -16 -25 -16 -25 -34 7 -34 6 -14 -14 -14 -14
-17 -80 -16 -81 0 -11 0 -12 73 0 72 0 25 -13 25 -13 -3 -48 -4 -47 18 -20 17
-19 38 0 39 0 16 25 16 25 -4 60 -4 60 16 5 17 5 73 -10 74 -10 9 9 9 9 -10
34 -11 33 -11 60 -12 60 -11 13 -11 13 -22 -5 -22 -6 -6 16 -6 16 0 33 0 33 6
15 6 15 34 -5 34 -6 19 17 19 17 7 57 6 57 -10 26 -10 27 -47 16 -48 16 -38 0
-39 0 -5 -13z"/>
</g>
</svg>
