<?xml version="1.0" standalone="no"?>
<!DOCTYPE svg PUBLIC "-//W3C//DTD SVG 20010904//EN"
 "http://www.w3.org/TR/2001/REC-SVG-20010904/DTD/svg10.dtd">
<svg version="1.0" xmlns="http://www.w3.org/2000/svg"
 width="52.000000pt" height="71.000000pt" viewBox="0 0 52.000000 71.000000"
 preserveAspectRatio="xMidYMid meet">
<metadata>
Created by potrace 1.16, written by Peter Selinger 2001-2019
</metadata>
<g transform="translate(0.000000,71.000000) scale(0.100000,-0.100000)"
fill="#000000" stroke="none">
<path d="M346 702 l-5 -8 10 -43 10 -43 -6 -19 -6 -19 -15 -15 -15 -15 -54 0
-54 0 -16 17 -17 16 4 52 3 53 -92 -2 -93 -1 0 -66 0 -66 11 -32 11 -31 26 -7
26 -6 37 10 38 10 11 -11 10 -10 0 -42 0 -43 -23 -26 -22 -27 -27 12 -27 13
-15 -15 -14 -15 -10 -54 -10 -54 -7 -28 -7 -27 73 0 74 0 25 -13 25 -13 -3
-49 -2 -48 16 -19 17 -18 28 0 29 0 16 25 17 26 -6 58 -6 59 16 6 17 7 70 -8
71 -8 10 0 10 0 -3 14 -3 14 -16 76 -15 76 -10 13 -11 12 -14 -12 -15 -12 -14
19 -14 19 0 50 0 51 9 13 8 13 34 -6 35 -6 16 18 16 18 6 46 7 46 -10 25 -10
26 -47 16 -48 16 -27 0 -28 0 -5 -8z"/>
</g>
</svg>
