<?xml version="1.0" standalone="no"?>
<!DOCTYPE svg PUBLIC "-//W3C//DTD SVG 20010904//EN"
 "http://www.w3.org/TR/2001/REC-SVG-20010904/DTD/svg10.dtd">
<svg version="1.0" xmlns="http://www.w3.org/2000/svg"
 width="56.000000pt" height="72.000000pt" viewBox="0 0 56.000000 72.000000"
 preserveAspectRatio="xMidYMid meet">
<metadata>
Created by potrace 1.16, written by Peter Selinger 2001-2019
</metadata>
<g transform="translate(0.000000,72.000000) scale(0.100000,-0.100000)"
fill="#000000" stroke="none">
<path d="M350 711 l-15 -10 12 -32 12 -32 -13 -31 -13 -31 -21 -19 -21 -18
-26 6 -26 7 -20 32 -20 32 5 43 6 43 -93 -7 -92 -6 -10 -10 -10 -9 1 -78 2
-78 12 -23 12 -23 53 6 53 5 11 -11 11 -11 0 -27 0 -27 -5 -14 -6 -14 -29 4
-30 4 -14 -12 -15 -11 -10 -50 -11 -49 -15 -36 -15 -36 0 -15 0 -15 75 7 74 7
18 -6 18 -6 -3 -50 -4 -51 16 -23 15 -24 30 -7 31 -6 20 6 20 6 15 29 15 29 0
52 0 52 106 -6 106 -7 -7 23 -7 22 -5 85 -5 85 -10 18 -10 19 -46 -4 -47 -3
-3 26 -3 25 20 18 20 18 36 -13 36 -13 9 14 10 15 0 93 0 93 -35 15 -35 14
-58 6 -57 5 -15 -10z"/>
</g>
</svg>
