<?xml version="1.0" standalone="no"?>
<!DOCTYPE svg PUBLIC "-//W3C//DTD SVG 20010904//EN"
 "http://www.w3.org/TR/2001/REC-SVG-20010904/DTD/svg10.dtd">
<svg version="1.0" xmlns="http://www.w3.org/2000/svg"
 width="54.000000pt" height="70.000000pt" viewBox="0 0 54.000000 70.000000"
 preserveAspectRatio="xMidYMid meet">
<metadata>
Created by potrace 1.16, written by Peter Selinger 2001-2019
</metadata>
<g transform="translate(0.000000,70.000000) scale(0.100000,-0.100000)"
fill="#000000" stroke="none">
<path d="M351 692 l-13 -9 12 -22 11 -22 -6 -30 -7 -29 -25 -30 -25 -30 -25 0
-24 0 -20 10 -19 11 -16 31 -16 31 4 38 3 38 -80 -6 -80 -6 -10 -9 -10 -9 2
-69 1 -68 12 -22 12 -22 50 6 50 7 14 -12 14 -11 0 -42 0 -41 -9 -13 -8 -13
-27 7 -26 6 -14 -12 -15 -11 -10 -50 -11 -49 -15 -36 -15 -36 0 -5 0 -4 69 7
70 6 25 -6 25 -6 -6 -48 -5 -49 11 -22 12 -22 26 -10 26 -10 18 6 19 6 16 31
16 30 -4 47 -3 46 106 -1 107 -1 -9 31 -9 31 0 63 0 63 -11 20 -10 20 -47 -3
-47 -3 -3 33 -3 34 17 19 17 19 19 0 19 0 21 -11 21 -11 8 13 9 14 0 83 0 83
-33 14 -34 14 -49 6 -49 6 -14 -9z"/>
</g>
</svg>
