<?xml version="1.0" standalone="no"?>
<!DOCTYPE svg PUBLIC "-//W3C//DTD SVG 20010904//EN"
 "http://www.w3.org/TR/2001/REC-SVG-20010904/DTD/svg10.dtd">
<svg version="1.0" xmlns="http://www.w3.org/2000/svg"
 width="54.000000pt" height="66.000000pt" viewBox="0 0 54.000000 66.000000"
 preserveAspectRatio="xMidYMid meet">
<metadata>
Created by potrace 1.16, written by Peter Selinger 2001-2019
</metadata>
<g transform="translate(0.000000,66.000000) scale(0.100000,-0.100000)"
fill="#000000" stroke="none">
<path d="M238 654 l-8 -7 0 -32 0 -31 -13 -18 -13 -17 -39 -9 -40 -10 -52 0
-52 0 -7 -11 -6 -11 -5 -62 -5 -61 15 -38 16 -37 20 0 20 0 27 10 27 11 23
-16 24 -15 0 -19 0 -19 -14 -11 -14 -11 -54 6 -55 6 -11 -28 -11 -29 -4 -87
-3 -87 15 -6 16 -7 114 -5 114 -6 -8 34 -8 34 -1 29 -1 29 18 11 17 11 28 -15
27 -16 0 -44 0 -44 25 -7 25 -7 72 -1 72 -1 5 8 4 8 -6 101 -7 102 -12 12 -12
12 -42 -12 -41 -12 -19 17 -19 17 0 17 0 18 14 11 14 11 26 -10 27 -10 26 6
25 7 14 33 14 33 0 77 0 76 -42 -8 -43 -9 -55 0 -55 0 3 55 3 55 -9 14 -10 13
-43 5 -44 5 -7 -8z"/>
</g>
</svg>
