<?xml version="1.0" standalone="no"?>
<!DOCTYPE svg PUBLIC "-//W3C//DTD SVG 20010904//EN"
 "http://www.w3.org/TR/2001/REC-SVG-20010904/DTD/svg10.dtd">
<svg version="1.0" xmlns="http://www.w3.org/2000/svg"
 width="52.000000pt" height="80.000000pt" viewBox="0 0 52.000000 80.000000"
 preserveAspectRatio="xMidYMid meet">
<metadata>
Created by potrace 1.16, written by Peter Selinger 2001-2019
</metadata>
<g transform="translate(0.000000,80.000000) scale(0.100000,-0.100000)"
fill="#000000" stroke="none">
<path d="M203 790 l-23 -9 0 -15 0 -15 10 -27 11 -27 -11 -11 -11 -11 -87 -5
-87 -5 -3 -50 -3 -50 11 -38 11 -38 24 -11 23 -10 32 10 31 11 13 -5 14 -5 12
-28 11 -28 -15 -36 -15 -36 -23 -6 -24 -6 -28 10 -27 11 -17 -17 -17 -17 -4
-78 -3 -78 88 0 89 0 13 -9 14 -8 -12 -39 -12 -39 11 -28 11 -27 27 -11 27
-10 23 6 24 6 20 20 21 21 -4 46 -3 47 30 6 30 7 59 1 58 1 -6 16 -6 16 0 239
0 239 -26 -10 -25 -10 -61 0 -60 0 7 58 7 58 -15 12 -15 13 -48 4 -49 5 -22
-10z"/>
</g>
</svg>
