<?xml version="1.0" standalone="no"?>
<!DOCTYPE svg PUBLIC "-//W3C//DTD SVG 20010904//EN"
 "http://www.w3.org/TR/2001/REC-SVG-20010904/DTD/svg10.dtd">
<svg version="1.0" xmlns="http://www.w3.org/2000/svg"
 width="54.000000pt" height="82.000000pt" viewBox="0 0 54.000000 82.000000"
 preserveAspectRatio="xMidYMid meet">
<metadata>
Created by potrace 1.16, written by Peter Selinger 2001-2019
</metadata>
<g transform="translate(0.000000,82.000000) scale(0.100000,-0.100000)"
fill="#000000" stroke="none">
<path d="M201 810 l-24 -10 7 -50 7 -49 -23 -6 -23 -5 -70 -2 -70 -3 -3 -60
-3 -60 11 -37 11 -38 20 -11 21 -11 47 7 47 6 11 -23 11 -24 -13 -31 -13 -30
-15 -6 -15 -6 -35 11 -36 11 -18 -18 -18 -19 -3 -88 -4 -88 85 0 85 0 15 -6
15 -6 -10 -29 -10 -30 6 -31 6 -31 11 -13 11 -13 34 -7 34 -6 31 12 30 13 10
19 10 19 -3 42 -3 42 30 6 30 7 59 1 59 1 -7 31 -6 31 0 235 0 235 -22 -7 -23
-7 -62 -5 -63 -5 6 59 6 59 -15 13 -16 13 -58 4 -58 4 -24 -10z"/>
</g>
</svg>
