<?xml version="1.0" standalone="no"?>
<!DOCTYPE svg PUBLIC "-//W3C//DTD SVG 20010904//EN"
 "http://www.w3.org/TR/2001/REC-SVG-20010904/DTD/svg10.dtd">
<svg version="1.0" xmlns="http://www.w3.org/2000/svg"
 width="82.000000pt" height="70.000000pt" viewBox="0 0 82.000000 70.000000"
 preserveAspectRatio="xMidYMid meet">
<metadata>
Created by potrace 1.16, written by Peter Selinger 2001-2019
</metadata>
<g transform="translate(0.000000,70.000000) scale(0.100000,-0.100000)"
fill="#000000" stroke="none">
<path d="M485 689 l-7 -11 7 -53 6 -53 -27 -21 -27 -21 -23 0 -23 0 -22 23
-21 22 6 53 6 52 -114 0 -115 0 2 -97 2 -98 -37 3 -38 3 -19 -6 -19 -6 -11
-31 -11 -31 10 -37 10 -38 16 -6 16 -6 23 6 23 6 5 -19 6 -18 7 -60 7 -60 7
-21 8 -20 89 3 88 4 12 -9 13 -8 -12 -32 -13 -33 15 -27 16 -27 27 -9 26 -10
38 10 38 9 1 35 0 35 25 7 24 7 76 22 76 21 12 50 11 50 0 16 0 17 10 36 10
36 30 -5 31 -4 19 17 20 18 0 47 0 46 -20 22 -21 22 -56 0 -56 0 5 83 6 84
-63 11 -62 12 -31 0 -31 0 -6 -11z"/>
</g>
</svg>
