<?xml version="1.0" standalone="no"?>
<!DOCTYPE svg PUBLIC "-//W3C//DTD SVG 20010904//EN"
 "http://www.w3.org/TR/2001/REC-SVG-20010904/DTD/svg10.dtd">
<svg version="1.0" xmlns="http://www.w3.org/2000/svg"
 width="64.000000pt" height="53.000000pt" viewBox="0 0 64.000000 53.000000"
 preserveAspectRatio="xMidYMid meet">
<metadata>
Created by potrace 1.16, written by Peter Selinger 2001-2019
</metadata>
<g transform="translate(0.000000,53.000000) scale(0.100000,-0.100000)"
fill="#000000" stroke="none">
<path d="M336 522 l-5 -8 9 -40 9 -39 -6 -25 -6 -25 -15 -17 -15 -18 -43 0
-43 0 -16 17 -17 17 4 67 5 68 -91 -6 -91 -6 -7 -11 -8 -11 0 -75 0 -75 54 3
54 4 21 -23 21 -23 0 -36 0 -37 -19 -17 -20 -18 -29 7 -30 6 -7 -19 -6 -20 -8
-54 -9 -53 -7 -27 -7 -28 78 0 79 0 25 20 25 19 0 43 0 43 23 3 23 4 26 -17
25 -17 -7 -35 -6 -35 12 -14 11 -14 105 0 104 0 -4 8 -5 7 15 90 14 90 8 8 9
9 22 -12 21 -11 15 12 14 11 0 49 0 49 -20 20 -20 20 -10 0 -9 0 -26 -12 -26
-12 -10 15 -10 14 5 76 5 75 -58 12 -57 12 -32 0 -31 0 -5 -8z"/>
</g>
</svg>
