<?xml version="1.0" standalone="no"?>
<!DOCTYPE svg PUBLIC "-//W3C//DTD SVG 20010904//EN"
 "http://www.w3.org/TR/2001/REC-SVG-20010904/DTD/svg10.dtd">
<svg version="1.0" xmlns="http://www.w3.org/2000/svg"
 width="53.000000pt" height="72.000000pt" viewBox="0 0 53.000000 72.000000"
 preserveAspectRatio="xMidYMid meet">
<metadata>
Created by potrace 1.16, written by Peter Selinger 2001-2019
</metadata>
<g transform="translate(0.000000,72.000000) scale(0.100000,-0.100000)"
fill="#000000" stroke="none">
<path d="M324 706 l-5 -14 9 -34 9 -33 -8 -29 -8 -28 -17 -19 -17 -19 -21 0
-22 0 -23 16 -23 16 7 59 7 59 -27 10 -26 10 -62 0 -62 0 -14 -9 -13 -8 -5
-66 -6 -65 7 -26 6 -26 21 0 20 0 19 10 20 10 20 -20 21 -21 -3 -42 -3 -42
-37 3 -36 3 -6 -9 -5 -8 -16 -99 -16 -98 8 -8 8 -7 72 -4 72 -4 20 -18 20 -19
-9 -18 -10 -18 0 -25 0 -26 20 -20 20 -20 40 0 40 0 17 27 18 27 -1 69 -2 70
62 -8 61 -7 30 -1 30 -2 -3 105 -4 105 -13 14 -13 13 -37 -12 -36 -12 -30 12
-29 13 -6 21 -5 22 10 26 10 26 58 -5 58 -5 19 21 19 21 5 78 4 78 -52 12 -52
12 -49 0 -50 0 -5 -14z"/>
</g>
</svg>
