<?xml version="1.0" standalone="no"?>
<!DOCTYPE svg PUBLIC "-//W3C//DTD SVG 20010904//EN"
 "http://www.w3.org/TR/2001/REC-SVG-20010904/DTD/svg10.dtd">
<svg version="1.0" xmlns="http://www.w3.org/2000/svg"
 width="51.000000pt" height="70.000000pt" viewBox="0 0 51.000000 70.000000"
 preserveAspectRatio="xMidYMid meet">
<metadata>
Created by potrace 1.16, written by Peter Selinger 2001-2019
</metadata>
<g transform="translate(0.000000,70.000000) scale(0.100000,-0.100000)"
fill="#000000" stroke="none">
<path d="M326 691 l-5 -8 9 -34 10 -33 -10 -34 -9 -34 -17 -19 -17 -19 -31 0
-32 0 -23 16 -24 17 7 59 6 59 -26 9 -25 10 -52 0 -52 0 -13 -9 -13 -8 -6 -56
-6 -55 7 -27 7 -27 19 6 20 6 19 6 19 6 21 -21 21 -21 0 -49 0 -49 -14 -11
-15 -12 -21 11 -22 12 -9 -9 -8 -8 -14 -90 -15 -90 7 -6 6 -7 73 -4 72 -4 22
-21 21 -22 -13 -31 -13 -31 11 -24 11 -24 25 -7 24 -6 19 4 18 3 19 39 19 38
-11 47 -10 46 5 9 6 8 66 -6 66 -6 24 -2 25 -3 -3 95 -3 95 -9 11 -9 11 -39
-10 -38 -10 -32 13 -31 13 -6 24 -7 24 10 32 9 32 60 -3 60 -3 18 20 19 20 5
69 4 68 -52 12 -52 12 -38 0 -39 0 -5 -9z"/>
</g>
</svg>
