<?xml version="1.0" standalone="no"?>
<!DOCTYPE svg PUBLIC "-//W3C//DTD SVG 20010904//EN"
 "http://www.w3.org/TR/2001/REC-SVG-20010904/DTD/svg10.dtd">
<svg version="1.0" xmlns="http://www.w3.org/2000/svg"
 width="53.000000pt" height="55.000000pt" viewBox="0 0 53.000000 55.000000"
 preserveAspectRatio="xMidYMid meet">
<metadata>
Created by potrace 1.16, written by Peter Selinger 2001-2019
</metadata>
<g transform="translate(0.000000,55.000000) scale(0.100000,-0.100000)"
fill="#000000" stroke="none">
<path d="M347 544 l-6 -6 6 -47 5 -47 -32 -27 -32 -27 -29 0 -30 0 -20 11 -20
10 6 43 7 42 -17 14 -17 14 -73 1 -73 0 -5 -5 -5 -5 -3 -80 -4 -80 13 3 14 3
43 6 43 5 21 -21 21 -21 0 -39 0 -39 -26 -17 -27 -17 -42 6 -43 5 -6 -15 -6
-16 0 -83 0 -84 10 -6 11 -7 73 -7 74 -7 9 3 9 3 -4 61 -4 60 17 19 18 20 36
0 37 0 22 -15 22 -16 -12 -19 -12 -20 12 -12 12 -12 75 -21 75 -22 0 9 0 9 12
-7 11 -7 -6 18 -7 18 -11 46 -11 46 -11 23 -11 23 -35 -6 -34 -6 -8 13 -9 13
0 48 0 47 13 2 12 2 65 1 65 0 3 60 3 60 -9 40 -8 40 -49 12 -50 11 -31 1 -31
1 -6 -6z"/>
</g>
</svg>
