<?xml version="1.0" standalone="no"?>
<!DOCTYPE svg PUBLIC "-//W3C//DTD SVG 20010904//EN"
 "http://www.w3.org/TR/2001/REC-SVG-20010904/DTD/svg10.dtd">
<svg version="1.0" xmlns="http://www.w3.org/2000/svg"
 width="56.000000pt" height="78.000000pt" viewBox="0 0 56.000000 78.000000"
 preserveAspectRatio="xMidYMid meet">
<metadata>
Created by potrace 1.16, written by Peter Selinger 2001-2019
</metadata>
<g transform="translate(0.000000,78.000000) scale(0.100000,-0.100000)"
fill="#000000" stroke="none">
<path d="M200 767 l-25 -13 3 -20 4 -19 5 -34 5 -33 -13 -9 -14 -9 -82 0 -83
0 0 -98 0 -97 63 0 62 0 3 -44 3 -45 -12 -24 -13 -24 -28 6 -27 5 -7 -11 -7
-11 -12 -71 -13 -71 5 -9 5 -8 74 7 73 7 -5 -49 -5 -48 14 -17 14 -18 44 -6
44 -6 24 19 24 19 -13 38 -12 37 7 7 7 7 101 5 102 5 19 38 18 39 6 64 5 64
-15 5 -15 6 -44 -10 -44 -10 -25 12 -25 12 -3 29 -4 28 6 24 6 23 31 -9 32 -9
19 10 19 10 9 25 10 25 0 59 0 58 -32 15 -33 15 -65 17 -65 17 -7 11 -7 12 5
22 6 23 -27 10 -26 10 -22 0 -22 0 -25 -13z"/>
</g>
</svg>
