<?xml version="1.0" standalone="no"?>
<!DOCTYPE svg PUBLIC "-//W3C//DTD SVG 20010904//EN"
 "http://www.w3.org/TR/2001/REC-SVG-20010904/DTD/svg10.dtd">
<svg version="1.0" xmlns="http://www.w3.org/2000/svg"
 width="51.000000pt" height="76.000000pt" viewBox="0 0 51.000000 76.000000"
 preserveAspectRatio="xMidYMid meet">
<metadata>
Created by potrace 1.16, written by Peter Selinger 2001-2019
</metadata>
<g transform="translate(0.000000,76.000000) scale(0.100000,-0.100000)"
fill="#000000" stroke="none">
<path d="M195 746 l-18 -13 6 -56 7 -56 -92 -3 -93 -3 -3 -252 -2 -251 17 3
18 4 79 5 79 6 -7 -46 -6 -46 10 -19 11 -19 47 0 48 0 22 20 22 21 6 23 6 24
-11 20 -11 21 11 6 10 7 67 -4 67 -3 -4 15 -4 15 -20 60 -20 60 -10 13 -10 12
-14 -11 -13 -12 -7 7 -7 7 -4 64 -4 65 12 15 12 15 18 -10 19 -10 29 0 30 0
11 31 11 32 0 58 0 58 -18 10 -17 9 -80 17 -80 16 -15 15 -15 14 12 19 12 18
-12 12 -11 11 -36 0 -36 0 -19 -14z"/>
</g>
</svg>
