<?xml version="1.0" standalone="no"?>
<!DOCTYPE svg PUBLIC "-//W3C//DTD SVG 20010904//EN"
 "http://www.w3.org/TR/2001/REC-SVG-20010904/DTD/svg10.dtd">
<svg version="1.0" xmlns="http://www.w3.org/2000/svg"
 width="66.000000pt" height="80.000000pt" viewBox="0 0 66.000000 80.000000"
 preserveAspectRatio="xMidYMid meet">
<metadata>
Created by potrace 1.16, written by Peter Selinger 2001-2019
</metadata>
<g transform="translate(0.000000,80.000000) scale(0.100000,-0.100000)"
fill="#000000" stroke="none">
<path d="M342 792 l-13 -9 11 -28 11 -29 -6 -23 -6 -24 -25 -9 -25 -10 -75 0
-74 0 0 -95 0 -95 -23 -5 -23 -6 -28 11 -29 11 -18 -17 -19 -17 0 -24 0 -24
11 -20 11 -21 31 -13 31 -13 28 10 28 10 16 -6 17 -6 -6 -63 -7 -62 -6 -27 -6
-28 66 0 67 0 20 -10 19 -11 -6 -38 -6 -38 11 -20 10 -20 30 -12 29 -13 26 17
26 17 6 24 6 24 -6 35 -7 34 24 7 25 6 80 -4 81 -3 6 82 7 81 -9 29 -10 28
-29 -3 -29 -3 -24 0 -23 -1 -21 21 -21 20 12 27 13 26 27 -7 27 -8 20 1 20 1
18 22 17 21 0 84 0 84 -72 1 -73 1 -25 7 -25 7 1 25 1 24 7 15 6 16 -13 18
-13 18 -45 4 -44 5 -13 -9z"/>
</g>
</svg>
