<?xml version="1.0" standalone="no"?>
<!DOCTYPE svg PUBLIC "-//W3C//DTD SVG 20010904//EN"
 "http://www.w3.org/TR/2001/REC-SVG-20010904/DTD/svg10.dtd">
<svg version="1.0" xmlns="http://www.w3.org/2000/svg"
 width="68.000000pt" height="82.000000pt" viewBox="0 0 68.000000 82.000000"
 preserveAspectRatio="xMidYMid meet">
<metadata>
Created by potrace 1.16, written by Peter Selinger 2001-2019
</metadata>
<g transform="translate(0.000000,82.000000) scale(0.100000,-0.100000)"
fill="#000000" stroke="none">
<path d="M341 811 l-15 -10 11 -36 12 -37 -6 -15 -6 -15 -24 -9 -24 -9 -75 0
-74 0 0 -94 0 -94 -14 -5 -14 -6 -36 11 -36 11 -20 -18 -20 -18 0 -36 0 -37
15 -21 15 -21 34 -12 33 -11 27 11 28 10 10 -6 10 -7 -5 -46 -6 -46 -7 -42 -7
-43 69 0 69 0 15 -10 15 -9 -3 -35 -3 -36 6 -20 6 -20 29 -15 29 -15 19 0 19
0 27 25 28 26 -4 50 -3 50 23 6 23 5 79 -4 78 -5 8 85 7 86 -9 35 -9 36 -56 0
-56 0 -16 14 -17 13 10 19 10 18 26 -9 25 -10 25 6 24 6 15 21 15 21 0 93 0
93 -72 1 -73 1 -25 7 -25 7 2 15 2 14 6 25 6 25 -14 19 -14 19 -54 4 -54 4
-14 -10z"/>
</g>
</svg>
