<?xml version="1.0" standalone="no"?>
<!DOCTYPE svg PUBLIC "-//W3C//DTD SVG 20010904//EN"
 "http://www.w3.org/TR/2001/REC-SVG-20010904/DTD/svg10.dtd">
<svg version="1.0" xmlns="http://www.w3.org/2000/svg"
 width="58.000000pt" height="77.000000pt" viewBox="0 0 58.000000 77.000000"
 preserveAspectRatio="xMidYMid meet">
<metadata>
Created by potrace 1.16, written by Peter Selinger 2001-2019
</metadata>
<g transform="translate(0.000000,77.000000) scale(0.100000,-0.100000)"
fill="#000000" stroke="none">
<path d="M263 740 l6 -30 -5 -15 -6 -16 -29 -14 -28 -15 -75 0 -74 0 -7 -62
-6 -63 9 -30 9 -30 45 2 46 1 11 -24 11 -25 0 -18 0 -19 -25 -16 -26 -17 -57
3 -57 3 -3 -39 -3 -38 20 -68 21 -68 0 -17 0 -17 23 6 22 7 61 6 62 6 -5 -27
-5 -26 11 -29 12 -28 25 -12 25 -11 47 0 48 0 22 16 23 16 -3 42 -3 41 85 5
85 5 -1 20 -2 20 -11 75 -12 75 -12 23 -11 24 -37 -6 -37 -6 -5 21 -6 21 9 22
8 22 16 13 16 13 30 -12 30 -12 15 6 15 5 0 101 0 101 -52 -8 -53 -8 -60 0
-60 0 3 44 4 44 -13 24 -12 23 -40 0 -39 0 5 -30z"/>
</g>
</svg>
