<?xml version="1.0" standalone="no"?>
<!DOCTYPE svg PUBLIC "-//W3C//DTD SVG 20010904//EN"
 "http://www.w3.org/TR/2001/REC-SVG-20010904/DTD/svg10.dtd">
<svg version="1.0" xmlns="http://www.w3.org/2000/svg"
 width="56.000000pt" height="75.000000pt" viewBox="0 0 56.000000 75.000000"
 preserveAspectRatio="xMidYMid meet">
<metadata>
Created by potrace 1.16, written by Peter Selinger 2001-2019
</metadata>
<g transform="translate(0.000000,75.000000) scale(0.100000,-0.100000)"
fill="#000000" stroke="none">
<path d="M266 726 l6 -25 -7 -20 -6 -21 -29 -15 -29 -15 -74 0 -75 0 -6 -52
-6 -53 8 -30 9 -30 45 3 45 3 11 -26 12 -26 0 -28 0 -29 -26 -17 -26 -17 -57
4 -56 3 1 -50 2 -50 21 -57 22 -57 69 6 68 6 16 -6 16 -7 -11 -19 -12 -19 12
-30 12 -29 25 -12 25 -11 37 0 38 0 22 16 23 16 -3 41 -3 42 85 5 85 5 -3 14
-3 14 -11 76 -11 77 -13 19 -14 18 -26 -12 -27 -12 -11 11 -11 11 0 38 0 39
20 22 20 22 25 -5 25 -6 20 -3 20 -3 3 92 3 91 -43 -6 -43 -7 -70 0 -70 0 2
45 3 45 -12 23 -11 22 -29 0 -28 0 6 -24z"/>
</g>
</svg>
