<?xml version="1.0" standalone="no"?>
<!DOCTYPE svg PUBLIC "-//W3C//DTD SVG 20010904//EN"
 "http://www.w3.org/TR/2001/REC-SVG-20010904/DTD/svg10.dtd">
<svg version="1.0" xmlns="http://www.w3.org/2000/svg"
 width="79.000000pt" height="66.000000pt" viewBox="0 0 79.000000 66.000000"
 preserveAspectRatio="xMidYMid meet">
<metadata>
Created by potrace 1.16, written by Peter Selinger 2001-2019
</metadata>
<g transform="translate(0.000000,66.000000) scale(0.100000,-0.100000)"
fill="#000000" stroke="none">
<path d="M150 560 l0 -101 -15 -5 -15 -6 -31 12 -30 13 -24 -11 -24 -11 -7
-27 -7 -27 24 -20 24 -19 40 7 40 6 20 2 19 2 10 -28 10 -28 -16 -77 -16 -77
5 -7 4 -8 79 0 79 0 5 -8 4 -8 -11 -42 -11 -42 21 -21 20 -21 47 0 47 0 21 24
20 23 -6 40 -5 41 -6 17 -7 16 27 7 26 6 56 -11 55 -11 8 5 8 5 -19 61 -19 61
0 23 0 23 6 16 6 16 14 0 14 0 19 -12 19 -12 45 18 45 17 12 14 11 13 -6 36
-7 35 -49 -6 -49 -6 -15 13 -15 12 0 80 0 79 -22 -12 -21 -11 -61 -17 -61 -16
0 -35 0 -34 -25 -13 -25 -13 -30 0 -30 0 -12 8 -12 8 -15 34 -14 34 9 25 10
24 -5 14 -5 13 -91 0 -90 0 0 -100z"/>
</g>
</svg>
