<?xml version="1.0" standalone="no"?>
<!DOCTYPE svg PUBLIC "-//W3C//DTD SVG 20010904//EN"
 "http://www.w3.org/TR/2001/REC-SVG-20010904/DTD/svg10.dtd">
<svg version="1.0" xmlns="http://www.w3.org/2000/svg"
 width="67.000000pt" height="54.000000pt" viewBox="0 0 67.000000 54.000000"
 preserveAspectRatio="xMidYMid meet">
<metadata>
Created by potrace 1.16, written by Peter Selinger 2001-2019
</metadata>
<g transform="translate(0.000000,54.000000) scale(0.100000,-0.100000)"
fill="#000000" stroke="none">
<path d="M0 451 l0 -89 6 -15 5 -14 44 5 45 5 15 -13 15 -12 0 -27 0 -26 -13
-25 -13 -25 -27 3 -26 3 -6 -23 -5 -23 -15 -69 -15 -69 4 -4 4 -5 81 -5 81 -6
-6 34 -5 34 -4 21 -4 20 15 22 15 22 39 0 40 0 14 -22 14 -23 7 -24 7 -23 -12
-24 -13 -23 13 -16 12 -15 39 0 38 0 53 12 53 12 5 -1 5 -1 -3 78 -4 78 11 21
12 22 47 -7 47 -6 28 27 27 28 0 31 0 32 -12 17 -13 17 -36 -11 -36 -11 -27
18 -28 17 -9 24 -9 24 0 60 0 60 -87 -3 -88 -3 3 -41 3 -41 -26 -32 -27 -31
-23 0 -23 0 -23 19 -24 19 1 56 0 56 -93 0 -93 0 0 -89z"/>
</g>
</svg>
