<?xml version="1.0" standalone="no"?>
<!DOCTYPE svg PUBLIC "-//W3C//DTD SVG 20010904//EN"
 "http://www.w3.org/TR/2001/REC-SVG-20010904/DTD/svg10.dtd">
<svg version="1.0" xmlns="http://www.w3.org/2000/svg"
 width="86.000000pt" height="53.000000pt" viewBox="0 0 86.000000 53.000000"
 preserveAspectRatio="xMidYMid meet">
<metadata>
Created by potrace 1.16, written by Peter Selinger 2001-2019
</metadata>
<g transform="translate(0.000000,53.000000) scale(0.100000,-0.100000)"
fill="#000000" stroke="none">
<path d="M165 437 l0 -94 -13 -15 -12 -15 -45 10 -45 10 -25 -11 -25 -12 0
-43 0 -44 20 -18 19 -18 50 7 50 6 8 -12 8 -13 5 -85 5 -85 89 -3 89 -3 19 18
20 18 -6 42 -5 41 15 6 16 6 22 0 22 0 12 -12 12 -12 0 -38 0 -37 38 -10 37
-9 65 -5 66 -6 11 7 10 7 9 90 9 90 45 -3 46 -3 28 26 29 26 -6 51 -6 50 -12
14 -11 14 -69 0 -69 0 0 75 0 75 -22 -1 -23 0 -88 -13 -87 -12 -12 -12 -11
-11 10 -25 11 -24 -11 -11 -11 -11 -21 0 -21 0 -19 14 -18 13 11 46 12 46 0 5
0 6 -113 0 -113 0 1 -93z"/>
</g>
</svg>
