<?xml version="1.0" standalone="no"?>
<!DOCTYPE svg PUBLIC "-//W3C//DTD SVG 20010904//EN"
 "http://www.w3.org/TR/2001/REC-SVG-20010904/DTD/svg10.dtd">
<svg version="1.0" xmlns="http://www.w3.org/2000/svg"
 width="84.000000pt" height="51.000000pt" viewBox="0 0 84.000000 51.000000"
 preserveAspectRatio="xMidYMid meet">
<metadata>
Created by potrace 1.16, written by Peter Selinger 2001-2019
</metadata>
<g transform="translate(0.000000,51.000000) scale(0.100000,-0.100000)"
fill="#000000" stroke="none">
<path d="M165 415 l0 -94 -16 -16 -16 -16 -45 11 -46 12 -21 -11 -21 -12 0
-33 0 -33 19 -17 19 -17 50 7 49 6 9 -13 9 -14 5 -85 5 -85 81 -3 80 -3 19 21
19 21 -12 32 -12 32 17 13 17 12 20 1 21 1 15 -2 15 -2 17 -15 16 -15 -5 -33
-5 -34 38 -10 39 -10 55 -2 55 -1 11 1 12 1 7 88 7 87 10 12 10 13 18 -10 19
-10 19 0 19 0 28 26 27 25 -6 42 -7 41 -12 14 -11 14 -68 -4 -68 -4 0 79 0 79
-32 -5 -33 -6 -60 -7 -60 -7 -17 -8 -17 -9 11 -25 11 -24 -13 -16 -12 -15 -32
0 -32 0 -19 14 -19 14 10 51 11 51 -101 0 -101 0 0 -95z"/>
</g>
</svg>
