<?xml version="1.0" standalone="no"?>
<!DOCTYPE svg PUBLIC "-//W3C//DTD SVG 20010904//EN"
 "http://www.w3.org/TR/2001/REC-SVG-20010904/DTD/svg10.dtd">
<svg version="1.0" xmlns="http://www.w3.org/2000/svg"
 width="54.000000pt" height="53.000000pt" viewBox="0 0 54.000000 53.000000"
 preserveAspectRatio="xMidYMid meet">
<metadata>
Created by potrace 1.16, written by Peter Selinger 2001-2019
</metadata>
<g transform="translate(0.000000,53.000000) scale(0.100000,-0.100000)"
fill="#000000" stroke="none">
<path d="M3 509 l7 -24 0 -72 0 -72 65 6 65 6 14 -12 14 -11 6 -30 5 -30 -5
-14 -6 -15 -25 -16 -25 -17 -29 12 -29 12 -14 -11 -13 -11 -7 -83 -7 -82 -6
-23 -5 -22 81 0 82 0 29 15 29 15 6 33 6 32 -10 28 -11 28 25 11 25 11 19 -17
19 -18 -5 -34 -6 -34 13 -14 12 -15 46 -6 47 -7 58 -15 58 -16 2 4 2 4 -3 259
-3 258 -32 -6 -32 -7 -60 -10 -60 -10 -18 -5 -19 -6 5 -31 4 -31 -13 -13 -13
-13 -23 0 -24 0 -12 12 -11 11 5 41 6 42 -17 14 -17 14 -101 4 -100 4 6 -23z"/>
</g>
</svg>
