<?xml version="1.0" standalone="no"?>
<!DOCTYPE svg PUBLIC "-//W3C//DTD SVG 20010904//EN"
 "http://www.w3.org/TR/2001/REC-SVG-20010904/DTD/svg10.dtd">
<svg version="1.0" xmlns="http://www.w3.org/2000/svg"
 width="52.000000pt" height="51.000000pt" viewBox="0 0 52.000000 51.000000"
 preserveAspectRatio="xMidYMid meet">
<metadata>
Created by potrace 1.16, written by Peter Selinger 2001-2019
</metadata>
<g transform="translate(0.000000,51.000000) scale(0.100000,-0.100000)"
fill="#000000" stroke="none">
<path d="M8 428 l3 -84 68 4 67 4 11 -14 12 -14 7 -41 6 -42 -27 -25 -28 -26
-19 0 -19 0 -19 10 -19 10 -8 -12 -8 -13 -10 -92 -11 -93 69 0 68 0 28 15 29
14 6 24 6 25 -12 32 -11 33 18 14 19 13 21 0 22 0 17 -19 17 -19 -6 -34 -7
-34 14 -12 14 -11 67 -11 66 -10 27 -10 27 -11 1 3 1 3 -3 248 -3 249 -15 -6
-15 -6 -67 -10 -67 -11 -18 -5 -18 -6 6 -29 7 -29 -16 -15 -15 -15 -35 0 -35
0 -14 21 -15 20 11 30 11 29 -17 17 -17 17 -87 4 -88 4 3 -84z"/>
</g>
</svg>
