<?xml version="1.0" standalone="no"?>
<!DOCTYPE svg PUBLIC "-//W3C//DTD SVG 20010904//EN"
 "http://www.w3.org/TR/2001/REC-SVG-20010904/DTD/svg10.dtd">
<svg version="1.0" xmlns="http://www.w3.org/2000/svg"
 width="68.000000pt" height="68.000000pt" viewBox="0 0 68.000000 68.000000"
 preserveAspectRatio="xMidYMid meet">
<metadata>
Created by potrace 1.16, written by Peter Selinger 2001-2019
</metadata>
<g transform="translate(0.000000,68.000000) scale(0.100000,-0.100000)"
fill="#000000" stroke="none">
<path d="M392 665 l-20 -15 -12 -36 -12 -35 12 -30 13 -30 -8 -7 -7 -7 -101 0
-102 0 -3 -50 -2 -50 -5 -22 -5 -22 -20 -11 -21 -11 -34 12 -34 13 -15 -13
-16 -13 0 -54 0 -53 20 -11 20 -11 47 3 48 3 8 -60 8 -60 -3 -48 -3 -47 75 0
75 0 25 13 25 13 -3 64 -2 64 12 8 13 8 42 0 42 0 28 -24 27 -24 -14 -16 -13
-17 19 -18 19 -18 60 -16 60 -16 18 -7 18 -6 -7 68 -6 69 -10 39 -9 38 -34 -5
-34 -6 -11 14 -11 14 3 33 3 33 47 -3 46 -4 12 22 12 22 4 71 5 72 -8 12 -8
12 -55 -19 -55 -19 -52 -1 -52 0 -6 10 -6 10 11 54 11 54 -14 35 -15 35 -9 5
-10 6 -21 -14z"/>
</g>
</svg>
