<?xml version="1.0" standalone="no"?>
<!DOCTYPE svg PUBLIC "-//W3C//DTD SVG 20010904//EN"
 "http://www.w3.org/TR/2001/REC-SVG-20010904/DTD/svg10.dtd">
<svg version="1.0" xmlns="http://www.w3.org/2000/svg"
 width="68.000000pt" height="70.000000pt" viewBox="0 0 68.000000 70.000000"
 preserveAspectRatio="xMidYMid meet">
<metadata>
Created by potrace 1.16, written by Peter Selinger 2001-2019
</metadata>
<g transform="translate(0.000000,70.000000) scale(0.100000,-0.100000)"
fill="#000000" stroke="none">
<path d="M376 687 l-19 -14 12 -35 12 -35 -10 -25 -9 -25 -30 -12 -30 -13 -69
4 -69 3 -1 -77 0 -77 -18 -27 -17 -26 -50 6 -50 7 -14 -12 -14 -11 0 -47 1
-46 14 -18 14 -19 33 1 33 1 19 2 20 3 7 -25 8 -25 8 -60 8 -60 80 -3 80 -3
18 13 17 13 -12 38 -12 37 13 13 12 12 58 0 59 -1 17 -14 17 -14 -7 -58 -7
-58 60 0 59 0 32 11 31 11 0 254 0 253 -52 15 -53 14 -47 7 -46 6 -12 14 -12
14 7 31 7 31 -18 20 -17 19 -22 0 -21 0 -18 -13z"/>
</g>
</svg>
