<?xml version="1.0" standalone="no"?>
<!DOCTYPE svg PUBLIC "-//W3C//DTD SVG 20010904//EN"
 "http://www.w3.org/TR/2001/REC-SVG-20010904/DTD/svg10.dtd">
<svg version="1.0" xmlns="http://www.w3.org/2000/svg"
 width="70.000000pt" height="72.000000pt" viewBox="0 0 70.000000 72.000000"
 preserveAspectRatio="xMidYMid meet">
<metadata>
Created by potrace 1.16, written by Peter Selinger 2001-2019
</metadata>
<g transform="translate(0.000000,72.000000) scale(0.100000,-0.100000)"
fill="#000000" stroke="none">
<path d="M375 706 l-20 -14 11 -40 10 -39 -7 -20 -7 -20 -31 -13 -32 -13 -68
5 -69 5 0 -78 0 -79 -16 -25 -17 -26 -49 7 -50 7 -15 -13 -15 -12 0 -57 1 -56
14 -20 15 -19 55 1 55 1 4 -21 4 -22 9 -60 8 -60 90 -3 90 -3 20 15 19 14 -12
38 -12 38 11 11 10 10 49 -1 49 0 15 -13 15 -13 -6 -59 -6 -59 70 0 70 0 32
11 31 11 0 263 0 263 -32 11 -31 11 -66 11 -65 10 -12 10 -13 10 6 35 6 34
-18 20 -18 20 -32 0 -31 0 -19 -14z"/>
</g>
</svg>
