<?xml version="1.0" standalone="no"?>
<!DOCTYPE svg PUBLIC "-//W3C//DTD SVG 20010904//EN"
 "http://www.w3.org/TR/2001/REC-SVG-20010904/DTD/svg10.dtd">
<svg version="1.0" xmlns="http://www.w3.org/2000/svg"
 width="66.000000pt" height="53.000000pt" viewBox="0 0 66.000000 53.000000"
 preserveAspectRatio="xMidYMid meet">
<metadata>
Created by potrace 1.16, written by Peter Selinger 2001-2019
</metadata>
<g transform="translate(0.000000,53.000000) scale(0.100000,-0.100000)"
fill="#000000" stroke="none">
<path d="M327 519 l-18 -11 12 -14 12 -14 -6 -34 -5 -34 -18 -21 -18 -21 -19
0 -18 0 -25 25 -26 26 4 47 3 47 -93 3 -92 3 0 -75 0 -75 14 -14 15 -14 46 10
46 11 17 -18 17 -17 0 -55 0 -55 -25 -20 -25 -20 -60 3 -60 3 -3 -35 -4 -35
11 -51 12 -51 52 -7 52 -6 49 0 48 0 -7 17 -7 18 -5 31 -5 31 16 31 16 32 27
6 26 7 16 -10 16 -11 -2 -46 -3 -45 18 -10 17 -9 70 -11 70 -12 27 -5 26 -6
17 79 17 78 5 18 5 18 26 -3 26 -3 13 25 13 25 0 26 0 27 -15 12 -15 13 -45
-5 -44 -5 -5 14 -6 15 0 83 0 84 -7 4 -8 5 -85 6 -85 6 -18 -11z"/>
</g>
</svg>
