<?xml version="1.0" standalone="no"?>
<!DOCTYPE svg PUBLIC "-//W3C//DTD SVG 20010904//EN"
 "http://www.w3.org/TR/2001/REC-SVG-20010904/DTD/svg10.dtd">
<svg version="1.0" xmlns="http://www.w3.org/2000/svg"
 width="77.000000pt" height="66.000000pt" viewBox="0 0 77.000000 66.000000"
 preserveAspectRatio="xMidYMid meet">
<metadata>
Created by potrace 1.16, written by Peter Selinger 2001-2019
</metadata>
<g transform="translate(0.000000,66.000000) scale(0.100000,-0.100000)"
fill="#000000" stroke="none">
<path d="M130 593 l0 -68 -19 -24 -18 -24 -41 6 -40 7 -6 -16 -6 -16 0 -51 0
-52 10 -15 9 -15 22 14 23 13 12 -16 12 -17 6 -47 7 -47 15 -47 15 -47 82 -3
82 -3 -3 -48 -3 -49 12 -14 11 -14 59 0 59 0 20 20 19 19 7 26 6 25 -4 40 -4
40 28 0 28 0 52 -20 53 -20 6 0 5 0 16 33 15 32 7 35 7 35 11 28 11 28 20 -7
19 -6 9 13 9 14 0 58 0 58 -44 -6 -44 -7 -16 23 -16 23 0 83 0 83 -11 0 -10 0
-21 -11 -21 -11 -61 -17 -61 -16 0 -28 -1 -28 -14 -9 -15 -10 -35 0 -36 0 -11
11 -11 11 11 28 11 29 -18 20 -19 21 -36 10 -36 10 -62 0 -63 0 0 -67z"/>
</g>
</svg>
