<?xml version="1.0" standalone="no"?>
<!DOCTYPE svg PUBLIC "-//W3C//DTD SVG 20010904//EN"
 "http://www.w3.org/TR/2001/REC-SVG-20010904/DTD/svg10.dtd">
<svg version="1.0" xmlns="http://www.w3.org/2000/svg"
 width="81.000000pt" height="55.000000pt" viewBox="0 0 81.000000 55.000000"
 preserveAspectRatio="xMidYMid meet">
<metadata>
Created by potrace 1.16, written by Peter Selinger 2001-2019
</metadata>
<g transform="translate(0.000000,55.000000) scale(0.100000,-0.100000)"
fill="#000000" stroke="none">
<path d="M160 446 l0 -105 -32 10 -33 9 -32 -6 -32 -6 -16 -18 -16 -18 3 -33
3 -32 28 -21 28 -21 57 0 57 0 -1 -45 0 -45 -5 -45 -4 -44 30 -7 30 -7 84 -1
84 -1 -6 44 -6 45 18 22 19 23 25 -11 26 -12 -6 -50 -6 -49 23 -12 23 -12 71
7 70 7 18 9 18 10 0 78 0 79 14 11 13 11 17 -6 16 -6 23 6 24 6 11 25 12 26 0
24 0 24 -26 20 -27 21 -45 0 -45 0 5 95 5 95 -18 0 -18 0 -6 -10 -6 -10 -57
-15 -57 -16 -22 -9 -23 -10 0 -19 0 -18 -28 -6 -28 -6 -41 6 -42 5 10 25 9 24
0 24 0 24 -19 11 -20 10 -75 0 -76 0 0 -104z"/>
</g>
</svg>
