<?xml version="1.0" standalone="no"?>
<!DOCTYPE svg PUBLIC "-//W3C//DTD SVG 20010904//EN"
 "http://www.w3.org/TR/2001/REC-SVG-20010904/DTD/svg10.dtd">
<svg version="1.0" xmlns="http://www.w3.org/2000/svg"
 width="66.000000pt" height="57.000000pt" viewBox="0 0 66.000000 57.000000"
 preserveAspectRatio="xMidYMid meet">
<metadata>
Created by potrace 1.16, written by Peter Selinger 2001-2019
</metadata>
<g transform="translate(0.000000,57.000000) scale(0.100000,-0.100000)"
fill="#000000" stroke="none">
<path d="M467 564 l-6 -7 5 -56 6 -57 -27 -32 -27 -32 -44 0 -44 0 -9 24 -9
23 9 39 9 39 0 18 0 17 -100 0 -99 0 -3 -92 -3 -93 -45 3 -46 3 -17 -19 -18
-20 3 -43 3 -44 47 0 46 0 9 -8 8 -9 6 -92 6 -93 7 -11 7 -12 82 0 83 0 23 16
24 17 -6 53 -6 54 26 0 25 0 29 -17 29 -17 2 -11 1 -10 1 -45 1 -45 92 0 92 0
6 7 7 6 5 101 6 101 -17 6 -17 7 -23 -12 -22 -12 -24 10 -25 10 -16 13 -15 13
-7 18 -7 18 26 26 26 26 60 -7 61 -6 -7 102 -6 102 -13 8 -12 8 -35 10 -35 10
-41 0 -41 0 -6 -6z"/>
</g>
</svg>
