<?xml version="1.0" standalone="no"?>
<!DOCTYPE svg PUBLIC "-//W3C//DTD SVG 20010904//EN"
 "http://www.w3.org/TR/2001/REC-SVG-20010904/DTD/svg10.dtd">
<svg version="1.0" xmlns="http://www.w3.org/2000/svg"
 width="64.000000pt" height="55.000000pt" viewBox="0 0 64.000000 55.000000"
 preserveAspectRatio="xMidYMid meet">
<metadata>
Created by potrace 1.16, written by Peter Selinger 2001-2019
</metadata>
<g transform="translate(0.000000,55.000000) scale(0.100000,-0.100000)"
fill="#000000" stroke="none">
<path d="M469 543 l-1 -8 2 -56 2 -56 -27 -31 -27 -32 -54 0 -54 0 -11 27 -10
27 11 48 10 49 0 4 0 5 -90 0 -90 0 0 -87 0 -88 -9 -14 -8 -13 -21 11 -21 11
-19 0 -19 0 -17 -19 -17 -19 3 -34 3 -33 47 3 47 3 9 -18 10 -18 4 -85 4 -86
8 -12 7 -12 72 0 73 0 23 16 23 17 -5 36 -5 36 -3 15 -4 15 35 3 35 4 33 -18
32 -17 5 -21 5 -21 -3 -35 -2 -35 82 0 82 1 6 6 6 6 6 89 6 90 -12 7 -12 8
-14 -12 -15 -12 -32 6 -33 7 -22 18 -22 18 -6 26 -7 26 27 27 26 26 61 -4 61
-4 -7 90 -7 90 -12 8 -12 8 -35 10 -35 10 -32 0 -33 0 -1 -7z"/>
</g>
</svg>
