<?xml version="1.0" standalone="no"?>
<!DOCTYPE svg PUBLIC "-//W3C//DTD SVG 20010904//EN"
 "http://www.w3.org/TR/2001/REC-SVG-20010904/DTD/svg10.dtd">
<svg version="1.0" xmlns="http://www.w3.org/2000/svg"
 width="83.000000pt" height="52.000000pt" viewBox="0 0 83.000000 52.000000"
 preserveAspectRatio="xMidYMid meet">
<metadata>
Created by potrace 1.16, written by Peter Selinger 2001-2019
</metadata>
<g transform="translate(0.000000,52.000000) scale(0.100000,-0.100000)"
fill="#000000" stroke="none">
<path d="M191 513 l-24 -5 7 -93 7 -93 -58 1 -58 1 -33 -18 -33 -17 3 -32 3
-31 27 -15 27 -15 42 11 42 11 13 -5 12 -4 7 -27 6 -26 -6 -72 -7 -71 58 -7
59 -6 30 8 30 9 -3 66 -3 66 20 10 20 11 33 0 34 0 22 -16 22 -15 -6 -38 -6
-37 14 -11 13 -11 66 -11 66 -11 20 0 21 0 -9 38 -9 37 0 52 0 52 55 -6 54 -6
31 33 30 32 0 28 0 29 -10 27 -11 27 -64 -5 -64 -6 -6 16 -6 17 7 62 6 63 -4
0 -4 0 -60 -10 -59 -10 -33 -6 -33 -5 7 -34 6 -33 -31 -16 -30 -16 -46 0 -46
0 -5 14 -6 14 12 22 11 21 -6 19 -6 20 -18 9 -18 10 -49 5 -49 4 -24 -5z"/>
</g>
</svg>
