<?xml version="1.0" standalone="no"?>
<!DOCTYPE svg PUBLIC "-//W3C//DTD SVG 20010904//EN"
 "http://www.w3.org/TR/2001/REC-SVG-20010904/DTD/svg10.dtd">
<svg version="1.0" xmlns="http://www.w3.org/2000/svg"
 width="68.000000pt" height="52.000000pt" viewBox="0 0 68.000000 52.000000"
 preserveAspectRatio="xMidYMid meet">
<metadata>
Created by potrace 1.16, written by Peter Selinger 2001-2019
</metadata>
<g transform="translate(0.000000,52.000000) scale(0.100000,-0.100000)"
fill="#000000" stroke="none">
<path d="M49 513 l-27 -4 -6 -62 -7 -62 6 -17 6 -16 64 6 64 5 11 -27 10 -27
0 -29 0 -28 -30 -32 -31 -33 -54 6 -55 6 0 -52 0 -52 9 -38 9 -39 5 -4 4 -5
103 -6 103 -6 -7 19 -8 19 -5 37 -6 38 13 29 12 29 21 6 22 5 18 -18 18 -18 1
-19 0 -19 -7 -31 -7 -32 33 -10 34 -10 73 -6 72 -5 0 12 0 12 -15 49 -15 49 0
33 0 32 6 16 6 16 52 -6 51 -6 38 15 37 16 7 16 6 17 -16 15 -16 16 -57 -12
-56 -13 -10 10 -11 11 1 101 1 101 -17 -5 -17 -5 -64 -10 -64 -10 -10 -10 -9
-9 14 -21 13 -21 -21 -20 -20 -21 -42 -2 -42 -1 -21 20 -20 21 0 29 0 29 3 20
3 20 -65 1 -65 1 -26 -4z"/>
</g>
</svg>
