<?xml version="1.0" standalone="no"?>
<!DOCTYPE svg PUBLIC "-//W3C//DTD SVG 20010904//EN"
 "http://www.w3.org/TR/2001/REC-SVG-20010904/DTD/svg10.dtd">
<svg version="1.0" xmlns="http://www.w3.org/2000/svg"
 width="81.000000pt" height="52.000000pt" viewBox="0 0 81.000000 52.000000"
 preserveAspectRatio="xMidYMid meet">
<metadata>
Created by potrace 1.16, written by Peter Selinger 2001-2019
</metadata>
<g transform="translate(0.000000,52.000000) scale(0.100000,-0.100000)"
fill="#000000" stroke="none">
<path d="M164 512 l-11 -7 1 -95 1 -95 -65 0 -65 -1 -12 -2 -13 -2 0 -47 0
-48 9 -13 8 -13 35 6 35 7 8 -19 8 -18 17 -65 18 -65 -5 -11 -4 -12 84 -7 84
-7 19 4 19 4 -1 19 -1 20 -7 32 -7 32 25 26 25 25 34 0 33 0 20 -14 19 -15 0
-42 0 -43 35 -7 35 -7 48 -10 49 -10 -6 22 -7 21 -15 59 -16 59 13 24 13 24
21 -7 20 -7 37 0 38 1 32 19 33 19 2 15 3 14 -9 15 -10 14 -43 1 -43 0 -30 -5
-30 -5 3 106 3 107 -53 6 -53 6 -30 -8 -30 -9 3 -19 3 -19 5 -36 6 -37 -21
-21 -21 -21 -40 0 -40 0 -16 25 -16 25 4 54 5 55 -21 5 -21 6 -70 0 -70 0 -11
-8z"/>
</g>
</svg>
