<?xml version="1.0" standalone="no"?>
<!DOCTYPE svg PUBLIC "-//W3C//DTD SVG 20010904//EN"
 "http://www.w3.org/TR/2001/REC-SVG-20010904/DTD/svg10.dtd">
<svg version="1.0" xmlns="http://www.w3.org/2000/svg"
 width="81.000000pt" height="54.000000pt" viewBox="0 0 81.000000 54.000000"
 preserveAspectRatio="xMidYMid meet">
<metadata>
Created by potrace 1.16, written by Peter Selinger 2001-2019
</metadata>
<g transform="translate(0.000000,54.000000) scale(0.100000,-0.100000)"
fill="#000000" stroke="none">
<path d="M143 533 l-13 -5 0 -61 0 -62 -13 -25 -13 -25 -47 2 -47 1 -6 -22 -5
-23 3 -39 3 -39 28 -13 28 -13 47 10 46 10 9 -6 10 -6 -6 -54 -6 -54 -20 -43
-21 -42 0 -11 0 -10 121 -2 122 -2 -7 57 -6 56 11 14 11 14 14 0 13 0 15 -29
15 -28 -10 -10 -11 -11 4 -28 3 -29 107 -3 107 -3 15 23 15 23 16 74 15 73 6
9 5 9 39 -6 38 -6 17 31 16 32 -3 32 -3 32 -30 0 -30 -1 -22 -8 -23 -7 -24 26
-25 27 -6 53 -7 53 7 31 7 32 -109 -3 -108 -3 3 -62 3 -62 -26 -17 -25 -16
-26 6 -27 7 6 70 6 70 -25 9 -25 10 -72 -1 -72 -1 -12 -5z"/>
</g>
</svg>
