<?xml version="1.0" standalone="no"?>
<!DOCTYPE svg PUBLIC "-//W3C//DTD SVG 20010904//EN"
 "http://www.w3.org/TR/2001/REC-SVG-20010904/DTD/svg10.dtd">
<svg version="1.0" xmlns="http://www.w3.org/2000/svg"
 width="67.000000pt" height="63.000000pt" viewBox="0 0 67.000000 63.000000"
 preserveAspectRatio="xMidYMid meet">
<metadata>
Created by potrace 1.16, written by Peter Selinger 2001-2019
</metadata>
<g transform="translate(0.000000,63.000000) scale(0.100000,-0.100000)"
fill="#000000" stroke="none">
<path d="M48 623 l-27 -4 -5 -32 -5 -32 -5 -50 -4 -50 53 0 54 0 28 -21 28
-21 3 -45 3 -45 -16 -13 -17 -14 -18 12 -18 11 -10 -12 -9 -12 -24 -75 -23
-75 -4 -12 -3 -13 60 0 60 0 25 -12 26 -11 5 -18 6 -18 -13 -21 -13 -21 15 -9
15 -10 47 0 47 0 16 17 17 16 -6 32 -6 33 16 6 16 6 63 0 63 0 15 6 15 5 -15
30 -15 30 -5 39 -5 39 6 25 6 25 64 -6 64 -6 26 26 26 26 0 36 0 36 -17 6 -16
6 -49 -10 -50 -10 -15 24 -16 23 5 81 5 80 -26 -5 -26 -5 -50 -6 -50 -6 -28
-5 -28 -6 6 -29 7 -30 -12 -14 -12 -15 -54 0 -54 0 -1 13 -1 12 -2 44 -1 45
-25 7 -25 7 -30 0 -30 -1 -27 -4z"/>
</g>
</svg>
