<?xml version="1.0" standalone="no"?>
<!DOCTYPE svg PUBLIC "-//W3C//DTD SVG 20010904//EN"
 "http://www.w3.org/TR/2001/REC-SVG-20010904/DTD/svg10.dtd">
<svg version="1.0" xmlns="http://www.w3.org/2000/svg"
 width="69.000000pt" height="65.000000pt" viewBox="0 0 69.000000 65.000000"
 preserveAspectRatio="xMidYMid meet">
<metadata>
Created by potrace 1.16, written by Peter Selinger 2001-2019
</metadata>
<g transform="translate(0.000000,65.000000) scale(0.100000,-0.100000)"
fill="#000000" stroke="none">
<path d="M48 643 l-27 -4 -5 -32 -5 -32 -6 -61 -6 -62 55 2 54 1 29 -21 28
-21 3 -32 3 -32 -11 -14 -12 -14 -19 12 -19 12 -13 -15 -14 -15 -26 -83 -27
-83 0 -15 0 -14 60 0 59 0 25 -11 25 -12 5 -13 5 -13 -9 -6 -10 -6 0 -24 0
-23 16 -6 16 -6 53 0 54 0 16 17 17 16 -4 33 -4 33 14 6 14 5 66 0 67 0 14 9
14 9 -17 35 -16 35 -6 31 -6 30 6 24 5 23 65 -4 65 -4 26 26 26 26 -3 48 -3
47 -68 0 -68 0 -11 19 -11 19 6 79 6 78 -12 0 -12 0 -70 -10 -70 -10 -34 -6
-33 -5 5 -33 5 -34 -11 -11 -11 -11 -43 0 -43 0 0 54 0 55 -11 6 -10 7 -57 3
-57 3 -27 -5z"/>
</g>
</svg>
