<?xml version="1.0" standalone="no"?>
<!DOCTYPE svg PUBLIC "-//W3C//DTD SVG 20010904//EN"
 "http://www.w3.org/TR/2001/REC-SVG-20010904/DTD/svg10.dtd">
<svg version="1.0" xmlns="http://www.w3.org/2000/svg"
 width="68.000000pt" height="65.000000pt" viewBox="0 0 68.000000 65.000000"
 preserveAspectRatio="xMidYMid meet">
<metadata>
Created by potrace 1.16, written by Peter Selinger 2001-2019
</metadata>
<g transform="translate(0.000000,65.000000) scale(0.100000,-0.100000)"
fill="#000000" stroke="none">
<path d="M507 638 l-18 -13 11 -32 12 -32 -14 -28 -13 -28 -37 -9 -38 -9 -26
11 -26 12 7 49 7 49 -19 10 -18 10 -47 7 -46 7 -31 -7 -30 -6 -3 -102 -3 -102
-53 3 -53 4 -29 -12 -29 -12 -5 -13 -5 -13 18 -16 19 -17 35 -6 36 -5 32 11
32 11 13 -11 14 -11 0 -52 0 -52 -14 -52 -13 -52 95 0 96 0 -12 -12 -12 -12 0
-30 0 -31 8 -11 7 -11 22 -12 22 -11 33 0 33 0 14 9 14 9 -7 26 -6 25 17 9 18
10 45 7 45 6 34 11 33 10 -5 27 -5 26 -8 62 -7 63 -12 16 -12 17 -19 -11 -20
-11 -12 8 -13 8 -8 29 -8 29 10 28 9 27 21 5 22 6 35 -3 35 -3 0 92 0 92 -5 4
-5 4 -70 7 -70 7 -18 -13z"/>
</g>
</svg>
