<?xml version="1.0" standalone="no"?>
<!DOCTYPE svg PUBLIC "-//W3C//DTD SVG 20010904//EN"
 "http://www.w3.org/TR/2001/REC-SVG-20010904/DTD/svg10.dtd">
<svg version="1.0" xmlns="http://www.w3.org/2000/svg"
 width="53.000000pt" height="52.000000pt" viewBox="0 0 53.000000 52.000000"
 preserveAspectRatio="xMidYMid meet">
<metadata>
Created by potrace 1.16, written by Peter Selinger 2001-2019
</metadata>
<g transform="translate(0.000000,52.000000) scale(0.100000,-0.100000)"
fill="#000000" stroke="none">
<path d="M41 511 l-14 -9 -5 -54 -4 -53 12 -44 11 -43 22 7 22 7 19 -1 19 0
15 -15 15 -14 0 -28 0 -28 -28 -24 -28 -23 -46 3 -46 3 -2 -35 -3 -35 13 -55
12 -54 40 -9 40 -8 42 4 43 5 14 11 13 11 -10 40 -11 40 16 16 17 17 48 4 48
5 20 -15 19 -15 -11 -36 -11 -36 15 -15 14 -15 37 0 37 0 38 -6 37 -7 0 71 0
71 -10 25 -10 26 -38 -6 -38 -6 -12 27 -12 26 0 28 0 28 25 27 25 28 38 -4 37
-3 3 81 3 81 -23 7 -23 6 -67 0 -66 0 -17 -6 -16 -6 7 -45 6 -44 -17 -19 -18
-20 -29 0 -28 0 -21 21 -21 21 5 43 6 43 -15 6 -16 6 -61 0 -62 0 -14 -9z"/>
</g>
</svg>
