<?xml version="1.0" standalone="no"?>
<!DOCTYPE svg PUBLIC "-//W3C//DTD SVG 20010904//EN"
 "http://www.w3.org/TR/2001/REC-SVG-20010904/DTD/svg10.dtd">
<svg version="1.0" xmlns="http://www.w3.org/2000/svg"
 width="68.000000pt" height="67.000000pt" viewBox="0 0 68.000000 67.000000"
 preserveAspectRatio="xMidYMid meet">
<metadata>
Created by potrace 1.16, written by Peter Selinger 2001-2019
</metadata>
<g transform="translate(0.000000,67.000000) scale(0.100000,-0.100000)"
fill="#000000" stroke="none">
<path d="M378 642 l4 -29 -25 -29 -25 -29 -80 -3 -79 -4 -6 -62 -6 -63 -12
-27 -12 -26 -21 -5 -21 -4 -39 2 -39 2 -9 -28 -10 -28 6 -24 6 -24 23 -24 22
-23 19 -7 19 -7 14 11 14 12 10 -10 11 -11 10 -81 11 -81 64 0 64 0 34 15 35
14 10 25 9 25 -11 32 -11 32 18 14 19 13 28 0 27 0 17 -32 16 -31 -6 -68 -7
-68 25 -7 26 -6 76 17 76 17 -5 21 -6 22 -16 65 -16 65 -11 12 -10 13 -19 -10
-19 -10 -20 12 -20 13 -10 35 -10 34 16 24 16 25 63 -6 64 -5 5 15 6 15 0 88
0 87 -37 7 -38 6 -41 0 -40 0 -20 14 -19 15 12 20 13 20 -27 20 -26 21 -42 0
-42 0 5 -28z"/>
</g>
</svg>
