<?xml version="1.0" standalone="no"?>
<!DOCTYPE svg PUBLIC "-//W3C//DTD SVG 20010904//EN"
 "http://www.w3.org/TR/2001/REC-SVG-20010904/DTD/svg10.dtd">
<svg version="1.0" xmlns="http://www.w3.org/2000/svg"
 width="69.000000pt" height="71.000000pt" viewBox="0 0 69.000000 71.000000"
 preserveAspectRatio="xMidYMid meet">
<metadata>
Created by potrace 1.16, written by Peter Selinger 2001-2019
</metadata>
<g transform="translate(0.000000,71.000000) scale(0.100000,-0.100000)"
fill="#000000" stroke="none">
<path d="M380 690 l-19 -19 -7 -26 -6 -25 6 -24 6 -24 6 -17 7 -17 -104 3
-104 4 -5 -77 -5 -77 -15 -15 -15 -15 -47 11 -47 11 -16 -13 -15 -12 0 -43 0
-43 6 -17 6 -16 30 -15 30 -16 52 4 51 3 -1 -67 -1 -67 -12 -14 -12 -15 8 -5
8 -5 110 -3 110 -4 -3 65 -3 65 14 19 14 19 17 -6 17 -7 15 -37 16 -37 -5 -30
-5 -31 -4 -19 -3 -20 27 -10 26 -9 79 19 78 19 -2 20 -2 20 -23 65 -23 65 -8
13 -9 13 -26 -3 -27 -3 -9 46 -9 46 14 29 15 29 67 -2 67 -1 0 51 0 52 -6 37
-6 37 -47 10 -46 10 -45 7 -45 6 -18 10 -19 10 7 39 7 40 -12 14 -12 15 -24 0
-24 0 -20 -20z"/>
</g>
</svg>
