<?xml version="1.0" standalone="no"?>
<!DOCTYPE svg PUBLIC "-//W3C//DTD SVG 20010904//EN"
 "http://www.w3.org/TR/2001/REC-SVG-20010904/DTD/svg10.dtd">
<svg version="1.0" xmlns="http://www.w3.org/2000/svg"
 width="71.000000pt" height="73.000000pt" viewBox="0 0 71.000000 73.000000"
 preserveAspectRatio="xMidYMid meet">
<metadata>
Created by potrace 1.16, written by Peter Selinger 2001-2019
</metadata>
<g transform="translate(0.000000,73.000000) scale(0.100000,-0.100000)"
fill="#000000" stroke="none">
<path d="M380 710 l-19 -19 -7 -26 -6 -26 6 -40 6 -41 -97 4 -98 3 -5 -75 -5
-75 -8 -13 -9 -13 -54 7 -54 6 -15 -12 -15 -12 0 -53 0 -53 6 -17 6 -16 30
-15 30 -15 51 2 52 3 0 -51 -1 -51 -14 -26 -14 -26 10 -9 9 -9 120 -3 120 -4
-3 62 -4 61 12 22 11 21 14 -11 14 -12 12 -35 11 -36 -13 -39 -13 -40 19 -14
19 -14 35 1 36 0 65 17 65 17 -2 30 -1 30 -24 65 -23 65 -8 13 -8 12 -28 0
-29 0 -6 35 -7 35 13 28 14 27 67 -3 67 -2 0 62 0 63 -6 37 -6 37 -47 10 -46
10 -45 7 -45 6 -17 9 -16 9 5 40 6 40 -13 15 -12 15 -34 0 -34 0 -20 -20z"/>
</g>
</svg>
