<?xml version="1.0" standalone="no"?>
<!DOCTYPE svg PUBLIC "-//W3C//DTD SVG 20010904//EN"
 "http://www.w3.org/TR/2001/REC-SVG-20010904/DTD/svg10.dtd">
<svg version="1.0" xmlns="http://www.w3.org/2000/svg"
 width="53.000000pt" height="67.000000pt" viewBox="0 0 53.000000 67.000000"
 preserveAspectRatio="xMidYMid meet">
<metadata>
Created by potrace 1.16, written by Peter Selinger 2001-2019
</metadata>
<g transform="translate(0.000000,67.000000) scale(0.100000,-0.100000)"
fill="#000000" stroke="none">
<path d="M218 645 l-11 -25 12 -41 13 -41 -11 -11 -11 -11 -99 2 -98 3 -7 -23
-6 -23 0 -31 0 -31 6 -32 7 -32 17 -9 17 -9 36 11 37 11 19 -17 20 -18 6 -28
6 -29 -11 -21 -11 -21 -56 3 -56 3 -7 -27 -8 -26 -3 -79 -4 -78 98 -8 98 -9 6
5 5 5 -12 23 -12 22 11 38 12 38 15 16 15 15 28 0 28 0 22 -24 22 -23 -7 -40
-6 -39 14 -11 13 -11 83 -4 83 -3 -5 50 -5 50 -6 57 -6 57 -13 10 -13 11 -29
-12 -30 -11 -30 14 -29 14 -3 33 -3 33 63 -7 63 -6 20 15 20 15 3 94 4 94 -99
0 -98 -1 3 53 4 54 -23 24 -22 24 -34 0 -33 0 -12 -25z"/>
</g>
</svg>
