<?xml version="1.0" standalone="no"?>
<!DOCTYPE svg PUBLIC "-//W3C//DTD SVG 20010904//EN"
 "http://www.w3.org/TR/2001/REC-SVG-20010904/DTD/svg10.dtd">
<svg version="1.0" xmlns="http://www.w3.org/2000/svg"
 width="55.000000pt" height="69.000000pt" viewBox="0 0 55.000000 69.000000"
 preserveAspectRatio="xMidYMid meet">
<metadata>
Created by potrace 1.16, written by Peter Selinger 2001-2019
</metadata>
<g transform="translate(0.000000,69.000000) scale(0.100000,-0.100000)"
fill="#000000" stroke="none">
<path d="M220 671 l-10 -20 0 -25 0 -25 10 -25 9 -25 -10 -7 -11 -6 -98 1 -98
2 -6 -23 -6 -23 0 -41 0 -41 6 -33 7 -32 23 -10 22 -10 33 11 32 11 15 -12 14
-12 9 -24 9 -24 -9 -16 -10 -17 -57 0 -57 0 -8 -27 -7 -27 -4 -88 -3 -88 108
-9 108 -9 6 7 7 7 -11 30 -12 31 16 39 15 39 25 6 24 6 23 -21 23 -22 -4 -42
-5 -43 13 -11 14 -11 93 -4 92 -4 0 15 -1 16 -9 100 -10 99 -15 15 -15 15 -32
-12 -31 -12 -26 13 -26 12 -3 21 -3 22 63 -5 63 -5 20 15 20 15 3 105 4 106
-99 -2 -98 -2 3 53 4 54 -23 24 -22 24 -43 0 -43 0 -11 -19z"/>
</g>
</svg>
