<?xml version="1.0" standalone="no"?>
<!DOCTYPE svg PUBLIC "-//W3C//DTD SVG 20010904//EN"
 "http://www.w3.org/TR/2001/REC-SVG-20010904/DTD/svg10.dtd">
<svg version="1.0" xmlns="http://www.w3.org/2000/svg"
 width="70.000000pt" height="82.000000pt" viewBox="0 0 70.000000 82.000000"
 preserveAspectRatio="xMidYMid meet">
<metadata>
Created by potrace 1.16, written by Peter Selinger 2001-2019
</metadata>
<g transform="translate(0.000000,82.000000) scale(0.100000,-0.100000)"
fill="#000000" stroke="none">
<path d="M372 804 l-9 -16 10 -43 10 -43 -6 -16 -6 -16 -101 0 -100 0 0 -42 0
-43 -10 -39 -9 -39 -15 -16 -16 -15 -31 11 -32 12 -17 -9 -18 -10 -10 -29 -11
-30 8 -28 7 -28 27 -15 27 -15 19 12 19 12 11 -12 10 -13 11 -69 11 -70 5 -16
5 -17 82 5 82 5 28 -11 28 -11 -6 -21 -7 -21 -1 -45 0 -45 14 -9 14 -9 25 0
26 0 23 16 23 16 -4 62 -3 61 102 0 102 0 6 70 7 70 -4 35 -3 35 -63 -3 -63
-4 -14 12 -15 12 0 38 0 38 15 12 16 13 32 -9 32 -10 17 4 16 3 11 31 11 31 0
61 0 61 -8 11 -7 11 -92 18 -93 18 -11 13 -10 13 12 22 12 23 -23 18 -22 18
-34 0 -33 0 -9 -16z"/>
</g>
</svg>
