<?xml version="1.0" standalone="no"?>
<!DOCTYPE svg PUBLIC "-//W3C//DTD SVG 20010904//EN"
 "http://www.w3.org/TR/2001/REC-SVG-20010904/DTD/svg10.dtd">
<svg version="1.0" xmlns="http://www.w3.org/2000/svg"
 width="72.000000pt" height="84.000000pt" viewBox="0 0 72.000000 84.000000"
 preserveAspectRatio="xMidYMid meet">
<metadata>
Created by potrace 1.16, written by Peter Selinger 2001-2019
</metadata>
<g transform="translate(0.000000,84.000000) scale(0.100000,-0.100000)"
fill="#000000" stroke="none">
<path d="M370 820 l-11 -20 11 -41 11 -41 -5 -14 -5 -14 -101 0 -100 0 0 -42
0 -43 -10 -39 -9 -39 -14 -14 -15 -15 -22 12 -22 12 -25 -7 -24 -6 -15 -35
-15 -35 7 -35 6 -35 24 -16 24 -15 30 4 31 5 4 -7 4 -7 11 -69 11 -69 5 -18 6
-18 68 7 69 6 35 -6 35 -7 -2 -70 -2 -70 15 -9 15 -10 35 0 36 0 23 16 23 16
-4 62 -3 61 102 0 102 0 6 70 7 70 -4 45 -3 45 -63 -3 -64 -3 -14 12 -14 11 0
28 0 28 14 11 14 11 26 -10 27 -10 24 6 24 6 10 30 11 31 0 71 0 71 -8 11 -7
11 -95 19 -95 19 3 37 3 36 -23 16 -22 16 -43 0 -42 0 -11 -20z"/>
</g>
</svg>
