<?xml version="1.0" standalone="no"?>
<!DOCTYPE svg PUBLIC "-//W3C//DTD SVG 20010904//EN"
 "http://www.w3.org/TR/2001/REC-SVG-20010904/DTD/svg10.dtd">
<svg version="1.0" xmlns="http://www.w3.org/2000/svg"
 width="81.000000pt" height="68.000000pt" viewBox="0 0 81.000000 68.000000"
 preserveAspectRatio="xMidYMid meet">
<metadata>
Created by potrace 1.16, written by Peter Selinger 2001-2019
</metadata>
<g transform="translate(0.000000,68.000000) scale(0.100000,-0.100000)"
fill="#000000" stroke="none">
<path d="M353 670 l-22 -9 -17 -26 -17 -26 12 -38 11 -38 0 -8 0 -8 -96 7 -97
7 7 -90 7 -89 -13 -9 -13 -8 -55 0 -55 0 -3 -43 -3 -43 12 -15 13 -15 46 6 46
6 14 -16 13 -15 -7 -92 -7 -91 79 6 79 5 21 11 21 11 8 22 7 23 1 25 0 25 39
-1 38 -1 9 -14 9 -14 -2 -55 -3 -55 40 -3 40 -4 66 12 66 11 -14 52 -14 52 3
40 3 40 52 -3 53 -4 34 22 35 21 7 21 6 20 -12 24 -13 23 -27 6 -27 6 -44 -10
-43 -10 -6 5 -5 6 3 98 2 98 -55 21 -56 21 -15 0 -15 0 -36 15 -35 15 5 30 6
29 -7 4 -7 4 -25 6 -25 5 -22 -8z"/>
</g>
</svg>
