<?xml version="1.0" standalone="no"?>
<!DOCTYPE svg PUBLIC "-//W3C//DTD SVG 20010904//EN"
 "http://www.w3.org/TR/2001/REC-SVG-20010904/DTD/svg10.dtd">
<svg version="1.0" xmlns="http://www.w3.org/2000/svg"
 width="82.000000pt" height="66.000000pt" viewBox="0 0 82.000000 66.000000"
 preserveAspectRatio="xMidYMid meet">
<metadata>
Created by potrace 1.16, written by Peter Selinger 2001-2019
</metadata>
<g transform="translate(0.000000,66.000000) scale(0.100000,-0.100000)"
fill="#000000" stroke="none">
<path d="M394 635 l-26 -26 4 -47 3 -47 -102 3 -103 2 0 -69 0 -70 -10 -27
-11 -27 -54 7 -55 6 -21 -21 -21 -21 5 -35 6 -35 18 -20 18 -20 37 6 37 6 9
-17 9 -18 7 -45 7 -45 9 -35 9 -35 97 5 96 6 15 19 14 20 -5 25 -5 25 -6 17
-7 17 26 7 26 6 35 -6 35 -7 10 -18 9 -18 -12 -32 -11 -31 12 -12 12 -12 83
-4 83 -4 16 15 16 16 22 83 22 83 9 9 8 9 15 -12 15 -13 11 7 10 6 0 62 0 62
-8 11 -7 10 -16 6 -17 6 -38 -8 -38 -9 -5 4 -4 5 2 76 2 77 -23 -7 -23 -7 -61
-11 -61 -11 -17 6 -17 7 6 44 7 43 -16 31 -16 31 -19 11 -20 10 -6 0 -6 0 -25
-25z"/>
</g>
</svg>
