<?xml version="1.0" standalone="no"?>
<!DOCTYPE svg PUBLIC "-//W3C//DTD SVG 20010904//EN"
 "http://www.w3.org/TR/2001/REC-SVG-20010904/DTD/svg10.dtd">
<svg version="1.0" xmlns="http://www.w3.org/2000/svg"
 width="69.000000pt" height="81.000000pt" viewBox="0 0 69.000000 81.000000"
 preserveAspectRatio="xMidYMid meet">
<metadata>
Created by potrace 1.16, written by Peter Selinger 2001-2019
</metadata>
<g transform="translate(0.000000,81.000000) scale(0.100000,-0.100000)"
fill="#000000" stroke="none">
<path d="M216 794 l-16 -15 0 -14 0 -14 10 -6 10 -6 0 -18 0 -19 -16 -13 -17
-14 -86 -5 -86 -5 -3 -60 -3 -59 5 -22 6 -23 16 -15 15 -16 45 0 44 0 0 -34 0
-35 -12 -7 -13 -8 -31 3 -31 2 -10 -13 -11 -13 -11 -90 -10 -90 -7 -23 -7 -24
100 7 101 7 -1 -51 -1 -52 22 -22 23 -22 50 2 50 1 21 18 20 19 -5 31 -5 32
21 6 22 5 67 7 66 7 16 51 15 51 7 40 7 40 8 16 8 16 25 -4 24 -5 17 32 16 31
-6 29 -6 29 -16 13 -16 13 -46 -2 -46 -2 -6 11 -7 10 6 63 5 63 -7 25 -6 25
-22 5 -23 5 -74 16 -75 16 -13 11 -13 11 6 25 7 25 -14 9 -14 9 -37 0 -37 0
-15 -16z"/>
</g>
</svg>
