<?xml version="1.0" standalone="no"?>
<!DOCTYPE svg PUBLIC "-//W3C//DTD SVG 20010904//EN"
 "http://www.w3.org/TR/2001/REC-SVG-20010904/DTD/svg10.dtd">
<svg version="1.0" xmlns="http://www.w3.org/2000/svg"
 width="70.000000pt" height="67.000000pt" viewBox="0 0 70.000000 67.000000"
 preserveAspectRatio="xMidYMid meet">
<metadata>
Created by potrace 1.16, written by Peter Selinger 2001-2019
</metadata>
<g transform="translate(0.000000,67.000000) scale(0.100000,-0.100000)"
fill="#000000" stroke="none">
<path d="M243 655 l-21 -15 10 -28 11 -28 -7 -28 -7 -27 -25 -9 -25 -10 -75 0
-74 0 0 -86 0 -85 11 -20 11 -21 49 7 49 7 0 -41 0 -41 -25 -16 -24 -16 -39 7
-39 6 -13 -16 -14 -17 13 -71 14 -72 0 -18 1 -18 111 3 110 3 -3 63 -4 63 12
15 12 14 27 0 27 0 18 -13 19 -14 -13 -23 -13 -24 23 -18 22 -18 17 0 16 0 73
-21 72 -22 5 5 6 5 13 86 14 86 7 11 7 11 30 -6 29 -7 20 18 19 17 0 42 0 41
-13 18 -14 19 -29 0 -29 1 -32 -8 -32 -7 -3 83 -3 83 -17 -3 -17 -3 -64 -7
-63 -8 -33 9 -33 8 7 22 8 22 0 30 1 30 -15 30 -14 30 -20 3 -20 3 -22 -16z"/>
</g>
</svg>
