<?xml version="1.0" standalone="no"?>
<!DOCTYPE svg PUBLIC "-//W3C//DTD SVG 20010904//EN"
 "http://www.w3.org/TR/2001/REC-SVG-20010904/DTD/svg10.dtd">
<svg version="1.0" xmlns="http://www.w3.org/2000/svg"
 width="87.000000pt" height="83.000000pt" viewBox="0 0 87.000000 83.000000"
 preserveAspectRatio="xMidYMid meet">
<metadata>
Created by potrace 1.16, written by Peter Selinger 2001-2019
</metadata>
<g transform="translate(0.000000,83.000000) scale(0.100000,-0.100000)"
fill="#000000" stroke="none">
<path d="M376 808 l-16 -22 0 -31 0 -30 9 -32 10 -33 -106 7 -106 6 5 -40 6
-41 -9 -48 -9 -49 -18 -18 -18 -18 -28 11 -27 10 -19 0 -19 0 -16 -17 -17 -17
5 -49 4 -50 19 -14 19 -14 37 3 37 2 5 -5 6 -5 16 -79 16 -79 14 -14 14 -14
35 12 35 12 43 -7 42 -7 17 -9 17 -9 -6 -49 -6 -49 23 -12 23 -12 44 5 45 5
17 16 16 17 -1 52 -1 52 10 6 9 6 87 -5 88 -5 7 74 6 74 8 30 8 29 49 -3 48
-3 8 14 9 13 0 37 0 37 -26 20 -27 21 -53 0 -54 0 0 86 0 87 -52 -8 -53 -8
-60 -1 -60 -1 3 20 3 20 5 35 6 36 -15 37 -16 37 -40 0 -40 0 -15 -22z"/>
</g>
</svg>
