<?xml version="1.0" standalone="no"?>
<!DOCTYPE svg PUBLIC "-//W3C//DTD SVG 20010904//EN"
 "http://www.w3.org/TR/2001/REC-SVG-20010904/DTD/svg10.dtd">
<svg version="1.0" xmlns="http://www.w3.org/2000/svg"
 width="68.000000pt" height="79.000000pt" viewBox="0 0 68.000000 79.000000"
 preserveAspectRatio="xMidYMid meet">
<metadata>
Created by potrace 1.16, written by Peter Selinger 2001-2019
</metadata>
<g transform="translate(0.000000,79.000000) scale(0.100000,-0.100000)"
fill="#000000" stroke="none">
<path d="M371 781 l-14 -9 13 -45 12 -45 -21 -24 -22 -23 -92 -5 -92 -5 -6
-75 -5 -75 -12 -22 -13 -23 -19 0 -19 0 -25 11 -25 12 -16 -13 -15 -12 0 -43
0 -42 21 -28 22 -27 33 6 32 7 6 -18 5 -18 11 -65 10 -65 0 -9 0 -8 63 6 62 6
30 -8 30 -9 1 -44 2 -44 1 -12 1 -13 54 0 54 0 12 15 12 14 -7 30 -6 30 33 6
33 5 69 10 68 9 5 5 5 5 -20 53 -20 53 -17 48 -17 49 -33 -6 -32 -6 -7 31 -6
32 16 25 16 25 52 -6 51 -5 15 -4 15 -3 -3 100 -4 100 -3 4 -4 3 -47 -16 -48
-16 -49 0 -49 0 6 54 7 54 -15 35 -14 35 -20 11 -21 11 -13 0 -13 0 -14 -9z"/>
</g>
</svg>
