<?xml version="1.0" standalone="no"?>
<!DOCTYPE svg PUBLIC "-//W3C//DTD SVG 20010904//EN"
 "http://www.w3.org/TR/2001/REC-SVG-20010904/DTD/svg10.dtd">
<svg version="1.0" xmlns="http://www.w3.org/2000/svg"
 width="70.000000pt" height="82.000000pt" viewBox="0 0 70.000000 82.000000"
 preserveAspectRatio="xMidYMid meet">
<metadata>
Created by potrace 1.16, written by Peter Selinger 2001-2019
</metadata>
<g transform="translate(0.000000,82.000000) scale(0.100000,-0.100000)"
fill="#000000" stroke="none">
<path d="M376 797 l-26 -26 -2 -23 -1 -23 -1 -35 -1 -35 -94 3 -94 4 6 -105 7
-106 -69 6 -69 6 -17 -26 -17 -26 7 -42 7 -41 34 5 33 6 16 -47 17 -47 21 -57
21 -57 77 6 77 6 25 -6 25 -7 -6 -45 -5 -45 18 -20 18 -20 34 0 33 0 21 33 20
32 -3 48 -3 47 39 0 40 0 58 -16 59 -17 4 5 5 5 7 96 6 96 -14 17 -13 16 -47
-5 -47 -6 -12 14 -11 14 3 33 3 33 56 -3 56 -3 12 15 12 15 -7 96 -7 97 -21
-6 -21 -5 -58 -16 -58 -16 -13 11 -14 11 5 62 5 62 -18 23 -19 23 -37 5 -37 6
-25 -25z"/>
</g>
</svg>
