<?xml version="1.0" standalone="no"?>
<!DOCTYPE svg PUBLIC "-//W3C//DTD SVG 20010904//EN"
 "http://www.w3.org/TR/2001/REC-SVG-20010904/DTD/svg10.dtd">
<svg version="1.0" xmlns="http://www.w3.org/2000/svg"
 width="53.000000pt" height="72.000000pt" viewBox="0 0 53.000000 72.000000"
 preserveAspectRatio="xMidYMid meet">
<metadata>
Created by potrace 1.16, written by Peter Selinger 2001-2019
</metadata>
<g transform="translate(0.000000,72.000000) scale(0.100000,-0.100000)"
fill="#000000" stroke="none">
<path d="M345 710 l-6 -9 7 -48 6 -48 -20 -23 -20 -23 -34 -5 -33 -6 -28 22
-29 23 7 48 7 49 -24 1 -23 2 -70 -3 -70 -2 -7 -12 -8 -11 0 -55 0 -55 10 -37
11 -37 20 -6 20 -7 30 12 30 13 14 -19 14 -19 1 -28 0 -28 -11 -20 -10 -20
-54 6 -54 7 -6 -33 -6 -34 3 -70 3 -70 67 -2 68 -2 19 -11 20 -10 -6 -50 -6
-50 18 -20 18 -20 42 0 41 0 18 13 17 13 9 39 9 40 -8 37 -9 37 17 6 17 5 54
-10 53 -10 24 0 25 0 -7 73 -7 72 -9 24 -9 23 -36 -7 -36 -6 -23 25 -23 25 -6
19 -7 19 11 27 10 27 35 -7 35 -6 23 6 24 6 12 27 13 28 5 71 6 71 -48 17 -49
16 -42 0 -43 0 -6 -10z"/>
</g>
</svg>
