<?xml version="1.0" standalone="no"?>
<!DOCTYPE svg PUBLIC "-//W3C//DTD SVG 20010904//EN"
 "http://www.w3.org/TR/2001/REC-SVG-20010904/DTD/svg10.dtd">
<svg version="1.0" xmlns="http://www.w3.org/2000/svg"
 width="51.000000pt" height="70.000000pt" viewBox="0 0 51.000000 70.000000"
 preserveAspectRatio="xMidYMid meet">
<metadata>
Created by potrace 1.16, written by Peter Selinger 2001-2019
</metadata>
<g transform="translate(0.000000,70.000000) scale(0.100000,-0.100000)"
fill="#000000" stroke="none">
<path d="M347 694 l-5 -6 5 -51 5 -52 -21 -24 -20 -23 -43 -5 -43 -5 -29 23
-28 22 5 49 6 48 -22 1 -22 1 -60 -2 -60 -2 -7 -11 -8 -12 0 -45 0 -45 10 -37
10 -36 16 -6 15 -6 19 10 19 10 17 0 17 0 13 -17 13 -18 1 -38 0 -38 -11 -21
-11 -21 -54 7 -53 6 -6 -32 -6 -33 3 -60 3 -59 67 -3 68 -2 21 -11 21 -12 -7
-49 -7 -50 18 -20 17 -19 34 0 33 0 20 20 20 20 1 28 1 27 0 5 0 5 -6 37 -7
36 21 7 21 7 70 -12 70 -12 5 5 5 5 -10 72 -10 73 -10 10 -10 10 -14 -12 -14
-11 -19 7 -19 7 -22 23 -23 24 -6 24 -6 24 10 28 9 28 39 -2 39 -2 21 4 21 5
12 26 12 27 6 62 6 62 -48 17 -49 16 -31 0 -32 0 -6 -6z"/>
</g>
</svg>
