<?xml version="1.0" standalone="no"?>
<!DOCTYPE svg PUBLIC "-//W3C//DTD SVG 20010904//EN"
 "http://www.w3.org/TR/2001/REC-SVG-20010904/DTD/svg10.dtd">
<svg version="1.0" xmlns="http://www.w3.org/2000/svg"
 width="68.000000pt" height="69.000000pt" viewBox="0 0 68.000000 69.000000"
 preserveAspectRatio="xMidYMid meet">
<metadata>
Created by potrace 1.16, written by Peter Selinger 2001-2019
</metadata>
<g transform="translate(0.000000,69.000000) scale(0.100000,-0.100000)"
fill="#000000" stroke="none">
<path d="M205 676 l-18 -13 6 -61 7 -61 -13 -8 -12 -7 -80 -1 -80 0 -6 -30 -7
-30 -1 -78 -1 -79 59 7 59 7 18 -27 17 -27 -9 -26 -10 -27 -41 3 -41 4 -6 -10
-6 -10 -15 -88 -16 -88 5 -13 5 -13 98 0 98 0 14 9 14 9 -7 51 -7 50 23 15 23
15 28 -6 27 -5 0 -32 0 -31 18 -11 18 -11 34 -7 35 -8 43 -15 42 -16 7 7 6 6
-12 69 -12 69 12 20 12 19 38 -10 38 -9 25 6 25 6 11 39 10 38 -6 32 -6 31
-10 0 -9 0 -17 -9 -17 -9 -22 9 -22 8 -13 23 -13 23 -5 80 -5 80 -80 15 -80
15 -13 8 -12 8 6 38 6 38 -23 17 -23 16 -46 0 -46 0 -19 -14z"/>
</g>
</svg>
