<?xml version="1.0" standalone="no"?>
<!DOCTYPE svg PUBLIC "-//W3C//DTD SVG 20010904//EN"
 "http://www.w3.org/TR/2001/REC-SVG-20010904/DTD/svg10.dtd">
<svg version="1.0" xmlns="http://www.w3.org/2000/svg"
 width="66.000000pt" height="67.000000pt" viewBox="0 0 66.000000 67.000000"
 preserveAspectRatio="xMidYMid meet">
<metadata>
Created by potrace 1.16, written by Peter Selinger 2001-2019
</metadata>
<g transform="translate(0.000000,67.000000) scale(0.100000,-0.100000)"
fill="#000000" stroke="none">
<path d="M206 659 l-18 -11 7 -63 6 -63 -13 -8 -13 -9 -80 0 -80 0 -6 -30 -7
-30 -1 -67 -1 -68 59 6 58 7 17 -24 16 -23 0 -26 0 -26 -15 -21 -15 -21 -30
11 -30 11 -10 -10 -10 -10 -14 -84 -15 -84 5 -8 5 -8 87 0 87 0 13 9 13 8 -7
50 -6 51 26 17 26 17 37 -9 38 -9 -3 -28 -3 -28 18 -13 18 -14 39 -7 39 -6 35
-15 35 -14 -7 33 -7 33 -5 45 -5 45 15 18 14 18 42 -11 41 -11 19 6 19 6 10
33 9 34 -5 26 -5 26 -19 -10 -19 -10 -25 6 -26 6 -17 26 -17 26 -5 80 -5 81
-80 15 -80 15 -14 9 -13 9 6 38 6 38 -22 15 -22 16 -36 0 -35 -1 -19 -10z"/>
</g>
</svg>
