<?xml version="1.0" standalone="no"?>
<!DOCTYPE svg PUBLIC "-//W3C//DTD SVG 20010904//EN"
 "http://www.w3.org/TR/2001/REC-SVG-20010904/DTD/svg10.dtd">
<svg version="1.0" xmlns="http://www.w3.org/2000/svg"
 width="58.000000pt" height="69.000000pt" viewBox="0 0 58.000000 69.000000"
 preserveAspectRatio="xMidYMid meet">
<metadata>
Created by potrace 1.16, written by Peter Selinger 2001-2019
</metadata>
<g transform="translate(0.000000,69.000000) scale(0.100000,-0.100000)"
fill="#000000" stroke="none">
<path d="M215 673 l-17 -16 4 -72 3 -71 -60 4 -60 4 -17 9 -17 9 -14 0 -14 0
-7 -102 -6 -102 14 -14 14 -15 33 12 32 11 26 0 27 0 12 -12 12 -12 0 -21 0
-22 -18 -16 -17 -16 -29 -11 -29 -11 -11 11 -10 10 -21 0 -21 0 -12 -12 -12
-12 0 -42 0 -41 6 -62 7 -61 101 0 102 0 28 13 28 12 -7 57 -6 57 19 10 18 10
15 -9 14 -9 0 -68 0 -68 121 -3 121 -3 7 89 7 89 -11 28 -11 28 -46 -7 -46 -6
-19 17 -18 16 0 13 0 13 23 21 22 21 49 -7 49 -6 -5 102 -5 103 -18 13 -18 13
-76 16 -76 16 -15 8 -15 8 3 41 4 40 -21 11 -20 11 -40 0 -40 0 -16 -17z"/>
</g>
</svg>
