<?xml version="1.0" standalone="no"?>
<!DOCTYPE svg PUBLIC "-//W3C//DTD SVG 20010904//EN"
 "http://www.w3.org/TR/2001/REC-SVG-20010904/DTD/svg10.dtd">
<svg version="1.0" xmlns="http://www.w3.org/2000/svg"
 width="56.000000pt" height="67.000000pt" viewBox="0 0 56.000000 67.000000"
 preserveAspectRatio="xMidYMid meet">
<metadata>
Created by potrace 1.16, written by Peter Selinger 2001-2019
</metadata>
<g transform="translate(0.000000,67.000000) scale(0.100000,-0.100000)"
fill="#000000" stroke="none">
<path d="M214 653 l-17 -17 6 -72 5 -73 -71 6 -72 6 -17 8 -17 9 -4 0 -4 0 -6
-92 -6 -92 10 -13 11 -12 24 10 25 9 38 0 37 0 12 -12 12 -12 0 -31 0 -32 -18
-16 -18 -17 -33 -11 -33 -12 -23 13 -24 13 -17 -14 -17 -14 8 -75 7 -75 1 -17
1 -18 91 0 91 0 27 13 27 12 0 15 0 15 -9 33 -10 33 20 20 19 19 11 0 10 0 20
-11 20 -10 -3 -67 -3 -67 110 -3 111 -3 1 28 2 28 6 51 6 50 -11 28 -10 27
-45 -7 -46 -6 -19 17 -20 18 0 23 0 23 22 21 22 20 20 1 21 1 10 -2 10 -2 19
-6 19 -5 -5 93 -6 94 -17 12 -18 13 -76 16 -76 16 -15 8 -15 8 0 42 0 41 -15
10 -15 10 -32 0 -32 0 -17 -17z"/>
</g>
</svg>
