<?xml version="1.0" standalone="no"?>
<!DOCTYPE svg PUBLIC "-//W3C//DTD SVG 20010904//EN"
 "http://www.w3.org/TR/2001/REC-SVG-20010904/DTD/svg10.dtd">
<svg version="1.0" xmlns="http://www.w3.org/2000/svg"
 width="70.000000pt" height="82.000000pt" viewBox="0 0 70.000000 82.000000"
 preserveAspectRatio="xMidYMid meet">
<metadata>
Created by potrace 1.16, written by Peter Selinger 2001-2019
</metadata>
<g transform="translate(0.000000,82.000000) scale(0.100000,-0.100000)"
fill="#000000" stroke="none">
<path d="M346 804 l-16 -15 0 -22 0 -22 9 -38 9 -37 -24 -6 -24 -6 -65 7 -65
7 0 -86 0 -85 -11 -25 -12 -25 -65 2 -66 2 -10 -29 -11 -28 30 -25 29 -25 42
5 43 4 10 -30 11 -30 0 -78 0 -79 91 0 90 0 19 -10 18 -10 -10 -34 -11 -34 6
-16 6 -16 27 -10 26 -10 39 10 39 11 16 31 16 31 -5 35 -6 34 67 -5 67 -5 23
-7 24 -8 -6 79 -7 79 -5 32 -5 33 -24 6 -23 6 -20 -11 -19 -10 -7 6 -6 6 0 38
0 38 15 15 15 15 30 -11 30 -10 15 12 15 12 0 105 0 105 -42 -9 -43 -8 -65 0
-65 0 3 50 3 50 -20 33 -21 32 -44 0 -45 0 -15 -16z"/>
</g>
</svg>
