<?xml version="1.0" standalone="no"?>
<!DOCTYPE svg PUBLIC "-//W3C//DTD SVG 20010904//EN"
 "http://www.w3.org/TR/2001/REC-SVG-20010904/DTD/svg10.dtd">
<svg version="1.0" xmlns="http://www.w3.org/2000/svg"
 width="85.000000pt" height="80.000000pt" viewBox="0 0 85.000000 80.000000"
 preserveAspectRatio="xMidYMid meet">
<metadata>
Created by potrace 1.16, written by Peter Selinger 2001-2019
</metadata>
<g transform="translate(0.000000,80.000000) scale(0.100000,-0.100000)"
fill="#000000" stroke="none">
<path d="M384 775 l-17 -26 6 -49 6 -49 -32 -6 -32 -5 -75 2 -75 3 -5 -83 -5
-84 -19 -13 -19 -14 -18 9 -18 10 -27 0 -27 0 -13 -17 -13 -18 -1 -48 0 -48
26 -25 25 -26 34 6 33 7 5 -18 5 -18 7 -40 6 -40 10 -38 10 -39 24 6 23 6 77
1 77 1 10 -10 10 -10 -11 -6 -11 -7 0 -25 0 -24 20 -20 20 -20 34 0 35 0 26
10 27 10 -4 35 -4 34 15 6 15 6 78 6 77 6 5 14 5 13 11 85 11 85 4 13 5 12 42
-3 41 -4 14 18 13 18 0 35 -1 36 -14 19 -15 19 -42 -12 -42 -13 -18 22 -18 22
0 73 0 73 -12 10 -13 10 -30 5 -30 6 -58 11 -58 12 6 39 7 40 -12 14 -12 15
-44 0 -44 0 -16 -25z"/>
</g>
</svg>
