<?xml version="1.0" standalone="no"?>
<!DOCTYPE svg PUBLIC "-//W3C//DTD SVG 20010904//EN"
 "http://www.w3.org/TR/2001/REC-SVG-20010904/DTD/svg10.dtd">
<svg version="1.0" xmlns="http://www.w3.org/2000/svg"
 width="70.000000pt" height="81.000000pt" viewBox="0 0 70.000000 81.000000"
 preserveAspectRatio="xMidYMid meet">
<metadata>
Created by potrace 1.16, written by Peter Selinger 2001-2019
</metadata>
<g transform="translate(0.000000,81.000000) scale(0.100000,-0.100000)"
fill="#000000" stroke="none">
<path d="M222 803 l-12 -5 -15 -28 -15 -29 0 -47 0 -47 -84 6 -83 7 -7 -77 -6
-76 0 -34 0 -34 55 6 56 7 19 -17 20 -18 0 -17 0 -17 -23 -21 -23 -22 -39 3
-39 2 -8 -40 -7 -40 0 -67 -1 -68 84 0 85 0 16 -16 17 -17 -7 -21 -7 -21 -2
-25 -1 -25 85 0 85 0 -1 37 -1 38 16 4 16 5 50 11 50 11 26 11 27 12 12 75 12
75 4 11 5 11 32 -4 32 -4 28 26 27 25 0 51 0 50 -27 11 -28 11 -49 -7 -49 -6
-7 11 -7 12 5 91 5 90 -24 -7 -24 -7 -52 -11 -52 -10 -25 6 -26 6 7 28 8 27 0
37 -1 37 -19 20 -18 21 -41 -1 -41 -1 -13 -5z"/>
</g>
</svg>
