<?xml version="1.0" standalone="no"?>
<!DOCTYPE svg PUBLIC "-//W3C//DTD SVG 20010904//EN"
 "http://www.w3.org/TR/2001/REC-SVG-20010904/DTD/svg10.dtd">
<svg version="1.0" xmlns="http://www.w3.org/2000/svg"
 width="58.000000pt" height="70.000000pt" viewBox="0 0 58.000000 70.000000"
 preserveAspectRatio="xMidYMid meet">
<metadata>
Created by potrace 1.16, written by Peter Selinger 2001-2019
</metadata>
<g transform="translate(0.000000,70.000000) scale(0.100000,-0.100000)"
fill="#000000" stroke="none">
<path d="M207 682 l-17 -19 0 -63 0 -63 -89 7 -88 6 -6 -92 -7 -93 6 -22 6
-23 3 0 2 0 52 10 51 9 25 -9 25 -10 0 -28 0 -28 -12 -15 -13 -15 -17 -13 -16
-12 -21 13 -21 12 -11 -11 -12 -12 -13 -68 -13 -68 -1 -29 0 -28 84 3 85 4 28
21 28 22 0 51 -1 51 18 0 17 0 15 -22 16 -22 -6 -51 -6 -51 16 -13 16 -14 79
7 79 6 30 11 30 10 16 58 16 57 0 46 0 46 -17 6 -16 7 -42 -7 -42 -6 -29 25
-28 25 13 16 14 17 56 -3 56 -3 -1 112 -2 112 -13 13 -14 13 -75 19 -75 19
-12 9 -12 10 12 20 12 19 -24 20 -23 19 -48 0 -47 0 -16 -18z"/>
</g>
</svg>
