<?xml version="1.0" standalone="no"?>
<!DOCTYPE svg PUBLIC "-//W3C//DTD SVG 20010904//EN"
 "http://www.w3.org/TR/2001/REC-SVG-20010904/DTD/svg10.dtd">
<svg version="1.0" xmlns="http://www.w3.org/2000/svg"
 width="56.000000pt" height="68.000000pt" viewBox="0 0 56.000000 68.000000"
 preserveAspectRatio="xMidYMid meet">
<metadata>
Created by potrace 1.16, written by Peter Selinger 2001-2019
</metadata>
<g transform="translate(0.000000,68.000000) scale(0.100000,-0.100000)"
fill="#000000" stroke="none">
<path d="M205 660 l-17 -19 4 -61 4 -60 -10 -1 -11 -1 -35 1 -35 1 -46 6 -46
5 -6 -84 -6 -84 5 -20 5 -20 52 9 53 9 27 -10 27 -11 0 -40 0 -41 -26 -24 -27
-25 -16 0 -17 0 -11 11 -11 11 -10 -18 -9 -19 -12 -66 -11 -66 0 -12 0 -13 74
4 75 3 28 21 28 21 -1 34 0 34 -5 15 -4 15 32 3 32 3 16 -25 17 -25 -7 -49 -6
-48 15 -13 16 -14 70 7 71 7 28 10 29 10 16 58 16 57 0 36 0 36 -12 5 -13 5
-45 -5 -45 -5 -27 22 -28 21 0 19 0 18 15 12 14 12 53 -4 53 -3 -2 102 -1 103
-14 13 -13 13 -10 2 -10 1 -65 17 -65 17 -15 14 -15 13 13 20 12 19 -22 16
-22 15 -37 0 -36 0 -18 -20z"/>
</g>
</svg>
