<?xml version="1.0" standalone="no"?>
<!DOCTYPE svg PUBLIC "-//W3C//DTD SVG 20010904//EN"
 "http://www.w3.org/TR/2001/REC-SVG-20010904/DTD/svg10.dtd">
<svg version="1.0" xmlns="http://www.w3.org/2000/svg"
 width="52.000000pt" height="66.000000pt" viewBox="0 0 52.000000 66.000000"
 preserveAspectRatio="xMidYMid meet">
<metadata>
Created by potrace 1.16, written by Peter Selinger 2001-2019
</metadata>
<g transform="translate(0.000000,66.000000) scale(0.100000,-0.100000)"
fill="#000000" stroke="none">
<path d="M18 654 l-18 -5 0 -90 0 -90 16 -6 15 -6 25 12 25 11 19 -10 18 -10
11 -32 11 -32 -6 -32 -6 -32 -34 5 -33 6 -10 -24 -9 -24 -16 -70 -16 -70 0
-12 0 -13 90 0 90 0 -6 -39 -6 -40 25 -25 26 -26 32 0 31 0 29 20 28 21 6 32
6 32 -10 28 -11 27 37 0 36 0 39 -12 39 -11 10 10 10 10 -22 84 -22 84 -10 13
-10 13 -35 -3 -36 -3 -10 27 -10 27 14 26 14 26 12 -5 13 -5 34 -6 35 -7 21
21 21 21 0 85 0 85 -12 0 -13 -1 -80 -27 -80 -27 -3 -22 -3 -23 -23 -6 -23 -5
-39 3 -39 3 -3 43 -3 42 -22 14 -22 15 -60 5 -60 5 -17 -5z"/>
</g>
</svg>
