<?xml version="1.0" standalone="no"?>
<!DOCTYPE svg PUBLIC "-//W3C//DTD SVG 20010904//EN"
 "http://www.w3.org/TR/2001/REC-SVG-20010904/DTD/svg10.dtd">
<svg version="1.0" xmlns="http://www.w3.org/2000/svg"
 width="82.000000pt" height="52.000000pt" viewBox="0 0 82.000000 52.000000"
 preserveAspectRatio="xMidYMid meet">
<metadata>
Created by potrace 1.16, written by Peter Selinger 2001-2019
</metadata>
<g transform="translate(0.000000,52.000000) scale(0.100000,-0.100000)"
fill="#000000" stroke="none">
<path d="M170 513 l-25 -4 3 -77 4 -77 -19 -17 -18 -17 -43 12 -44 12 -14 -20
-14 -19 0 -38 0 -39 25 -24 24 -25 15 0 15 0 25 11 25 12 17 -14 17 -14 -7
-81 -6 -81 57 -6 56 -6 29 6 30 6 5 15 6 15 -13 35 -13 35 19 14 18 13 37 0
38 0 26 -22 25 -23 -12 -32 -12 -33 12 -12 13 -13 89 0 88 0 4 81 3 80 17 17
17 17 27 -11 28 -10 24 6 23 6 15 36 15 36 -11 28 -12 28 -14 5 -14 5 -27 -10
-27 -10 -24 6 -23 6 -15 34 -14 34 0 61 0 61 -17 -5 -18 -5 -70 -11 -70 -11
-8 -8 -7 -7 11 -31 10 -32 -11 -20 -11 -21 -49 0 -50 0 -20 20 -20 20 0 31 0
30 11 21 11 21 -13 8 -14 9 -55 -2 -55 -1 -25 -4z"/>
</g>
</svg>
