<?xml version="1.0" standalone="no"?>
<!DOCTYPE svg PUBLIC "-//W3C//DTD SVG 20010904//EN"
 "http://www.w3.org/TR/2001/REC-SVG-20010904/DTD/svg10.dtd">
<svg version="1.0" xmlns="http://www.w3.org/2000/svg"
 width="84.000000pt" height="54.000000pt" viewBox="0 0 84.000000 54.000000"
 preserveAspectRatio="xMidYMid meet">
<metadata>
Created by potrace 1.16, written by Peter Selinger 2001-2019
</metadata>
<g transform="translate(0.000000,54.000000) scale(0.100000,-0.100000)"
fill="#000000" stroke="none">
<path d="M168 533 l-26 -4 5 -74 6 -75 -13 -15 -12 -15 -53 6 -53 7 -11 -21
-11 -21 0 -46 0 -46 25 -24 24 -25 26 0 26 0 19 10 18 10 12 -15 12 -15 -7
-78 -7 -79 69 -7 68 -6 30 8 30 8 3 32 3 31 -11 20 -10 20 19 11 20 10 23 0
24 0 22 -15 22 -16 -6 -43 -6 -43 13 -9 14 -9 97 -1 96 -1 4 84 3 84 15 9 15
9 36 -5 36 -6 21 11 21 11 12 40 12 39 -13 31 -13 30 -21 6 -22 5 -28 -10 -27
-11 -19 10 -18 10 -11 31 -11 32 0 58 0 59 -5 0 -5 0 -92 -16 -93 -16 -9 -9
-10 -9 11 -33 10 -34 -9 -17 -9 -16 -39 0 -40 0 -20 20 -20 20 0 17 0 17 12
33 12 34 -14 9 -15 10 -65 -2 -65 -1 -27 -4z"/>
</g>
</svg>
