<?xml version="1.0" standalone="no"?>
<!DOCTYPE svg PUBLIC "-//W3C//DTD SVG 20010904//EN"
 "http://www.w3.org/TR/2001/REC-SVG-20010904/DTD/svg10.dtd">
<svg version="1.0" xmlns="http://www.w3.org/2000/svg"
 width="69.000000pt" height="84.000000pt" viewBox="0 0 69.000000 84.000000"
 preserveAspectRatio="xMidYMid meet">
<metadata>
Created by potrace 1.16, written by Peter Selinger 2001-2019
</metadata>
<g transform="translate(0.000000,84.000000) scale(0.100000,-0.100000)"
fill="#000000" stroke="none">
<path d="M268 833 l-16 -4 -12 -30 -13 -29 6 -38 5 -37 8 -19 7 -19 -99 6 -99
6 -15 6 -15 5 5 -83 5 -83 17 -26 17 -26 26 -6 25 -6 19 10 19 10 5 -26 5 -26
-9 -34 -10 -33 -19 -6 -19 -6 -41 11 -42 11 -14 -18 -15 -18 6 -50 5 -50 10
-36 10 -35 57 7 58 7 32 1 31 1 -10 -36 -10 -37 7 -33 6 -33 22 -16 21 -15 51
0 51 0 19 14 19 14 -11 25 -12 25 12 10 12 10 72 21 73 22 8 17 9 17 6 84 7
85 9 9 10 10 14 -12 14 -11 19 6 19 7 23 20 22 20 0 27 0 27 -20 18 -20 18
-56 -6 -56 -6 7 98 7 98 -47 7 -48 6 -37 0 -37 0 -32 11 -33 12 7 31 7 31 0
19 -1 18 -17 19 -17 19 -6 -1 -6 -1 -17 -5z"/>
</g>
</svg>
