<?xml version="1.0" standalone="no"?>
<!DOCTYPE svg PUBLIC "-//W3C//DTD SVG 20010904//EN"
 "http://www.w3.org/TR/2001/REC-SVG-20010904/DTD/svg10.dtd">
<svg version="1.0" xmlns="http://www.w3.org/2000/svg"
 width="53.000000pt" height="67.000000pt" viewBox="0 0 53.000000 67.000000"
 preserveAspectRatio="xMidYMid meet">
<metadata>
Created by potrace 1.16, written by Peter Selinger 2001-2019
</metadata>
<g transform="translate(0.000000,67.000000) scale(0.100000,-0.100000)"
fill="#000000" stroke="none">
<path d="M223 644 l-26 -26 7 -60 6 -61 -99 6 -99 5 -6 -21 -6 -22 0 -72 0
-71 6 -16 6 -16 53 6 53 7 16 -24 15 -24 -6 -23 -5 -23 -18 6 -17 5 -14 -16
-14 -17 -26 -76 -25 -76 -5 -15 -4 -15 74 -3 73 -3 24 16 24 15 0 31 0 30 -10
19 -10 18 40 7 41 7 24 -16 25 -16 0 -11 0 -10 -11 -21 -12 -21 18 -13 17 -13
57 -6 56 -5 38 -4 37 -4 -6 9 -5 9 8 0 9 0 -4 67 -3 68 -11 33 -10 33 -42 -6
-43 -7 -28 24 -28 24 12 23 12 22 63 -6 62 -7 12 27 12 26 0 80 0 80 -33 14
-33 14 -65 11 -64 11 -20 15 -20 14 13 20 12 20 -9 19 -10 19 -17 6 -16 6 -9
0 -10 0 -26 -26z"/>
</g>
</svg>
