<?xml version="1.0" standalone="no"?>
<!DOCTYPE svg PUBLIC "-//W3C//DTD SVG 20010904//EN"
 "http://www.w3.org/TR/2001/REC-SVG-20010904/DTD/svg10.dtd">
<svg version="1.0" xmlns="http://www.w3.org/2000/svg"
 width="55.000000pt" height="69.000000pt" viewBox="0 0 55.000000 69.000000"
 preserveAspectRatio="xMidYMid meet">
<metadata>
Created by potrace 1.16, written by Peter Selinger 2001-2019
</metadata>
<g transform="translate(0.000000,69.000000) scale(0.100000,-0.100000)"
fill="#000000" stroke="none">
<path d="M223 664 l-25 -25 4 -61 4 -61 -97 7 -97 6 -6 -23 -6 -22 0 -85 0
-85 9 -14 9 -14 47 7 46 7 15 -12 14 -11 0 -19 0 -19 -19 0 -19 0 -13 -17 -14
-16 -28 -81 -28 -81 -2 -20 -2 -20 84 -3 83 -3 25 16 25 17 -4 48 -3 49 24 6
23 6 24 -16 24 -16 -10 -19 -10 -19 0 -15 0 -15 20 -11 20 -10 97 -10 97 -9 7
11 7 11 -5 76 -5 76 -10 34 -10 33 -43 -6 -44 -5 -22 18 -22 18 6 16 6 16 63
-6 64 -5 12 26 12 27 0 90 0 90 -33 14 -32 13 -65 12 -64 12 -19 13 -18 13 10
7 11 6 0 20 0 19 -20 20 -20 20 -25 0 -26 0 -26 -26z"/>
</g>
</svg>
