<?xml version="1.0" standalone="no"?>
<!DOCTYPE svg PUBLIC "-//W3C//DTD SVG 20010904//EN"
 "http://www.w3.org/TR/2001/REC-SVG-20010904/DTD/svg10.dtd">
<svg version="1.0" xmlns="http://www.w3.org/2000/svg"
 width="83.000000pt" height="67.000000pt" viewBox="0 0 83.000000 67.000000"
 preserveAspectRatio="xMidYMid meet">
<metadata>
Created by potrace 1.16, written by Peter Selinger 2001-2019
</metadata>
<g transform="translate(0.000000,67.000000) scale(0.100000,-0.100000)"
fill="#000000" stroke="none">
<path d="M344 645 l-25 -26 3 -37 3 -37 -94 3 -94 4 7 -86 7 -86 -48 0 -48 -1
-16 -12 -16 -12 -11 -22 -12 -22 0 -24 0 -24 24 -22 25 -23 40 4 41 4 6 -34 7
-34 -5 -69 -5 -69 115 0 115 0 -7 56 -6 56 11 14 11 14 33 0 33 0 21 -17 22
-18 -1 -20 0 -20 -3 -34 -2 -34 16 -10 15 -10 87 8 86 7 5 31 5 32 8 70 8 69
46 -2 47 -3 16 23 16 22 0 52 0 51 -20 23 -21 24 -33 -12 -32 -12 -8 0 -7 0
-15 35 -14 34 0 46 0 45 -18 0 -17 0 -69 -14 -69 -15 -18 9 -18 10 6 53 5 53
-17 17 -16 17 -40 0 -40 0 -25 -25z"/>
</g>
</svg>
