<?xml version="1.0" standalone="no"?>
<!DOCTYPE svg PUBLIC "-//W3C//DTD SVG 20010904//EN"
 "http://www.w3.org/TR/2001/REC-SVG-20010904/DTD/svg10.dtd">
<svg version="1.0" xmlns="http://www.w3.org/2000/svg"
 width="67.000000pt" height="77.000000pt" viewBox="0 0 67.000000 77.000000"
 preserveAspectRatio="xMidYMid meet">
<metadata>
Created by potrace 1.16, written by Peter Selinger 2001-2019
</metadata>
<g transform="translate(0.000000,77.000000) scale(0.100000,-0.100000)"
fill="#000000" stroke="none">
<path d="M219 748 l8 -21 -5 -23 -4 -23 -20 -18 -20 -18 -83 -3 -83 -4 -7 -82
-7 -83 4 -19 3 -19 67 3 67 4 6 -25 7 -25 -12 -22 -12 -22 -42 6 -43 7 -11
-14 -11 -13 -7 -107 -7 -106 38 10 38 11 53 -7 53 -6 11 -14 12 -14 -7 -40 -7
-39 21 -11 20 -11 30 0 29 0 32 27 32 27 -5 48 -6 49 16 6 17 7 72 -15 73 -15
11 22 12 21 22 79 22 79 24 0 25 0 14 9 13 9 -4 54 -5 55 -14 9 -14 9 -25 -6
-25 -7 -25 -1 -25 -1 -3 82 -3 83 -17 9 -18 10 -64 7 -65 7 -22 8 -23 9 0 19
0 20 11 6 10 7 -17 19 -17 19 -48 0 -48 0 8 -22z"/>
</g>
</svg>
