<?xml version="1.0" standalone="no"?>
<!DOCTYPE svg PUBLIC "-//W3C//DTD SVG 20010904//EN"
 "http://www.w3.org/TR/2001/REC-SVG-20010904/DTD/svg10.dtd">
<svg version="1.0" xmlns="http://www.w3.org/2000/svg"
 width="80.000000pt" height="78.000000pt" viewBox="0 0 80.000000 78.000000"
 preserveAspectRatio="xMidYMid meet">
<metadata>
Created by potrace 1.16, written by Peter Selinger 2001-2019
</metadata>
<g transform="translate(0.000000,78.000000) scale(0.100000,-0.100000)"
fill="#000000" stroke="none">
<path d="M394 755 l-16 -24 7 -42 7 -42 -111 6 -111 7 0 -44 0 -43 -6 -32 -7
-32 -23 -16 -23 -15 -35 12 -36 11 -20 -6 -20 -6 0 -50 0 -49 21 -25 22 -24
54 -12 55 -13 19 13 20 12 9 -6 10 -6 0 -29 0 -30 -20 -52 -20 -53 0 -4 0 -4
99 6 98 5 -5 -67 -4 -67 17 -17 16 -17 43 0 43 0 18 20 19 21 -2 47 -1 47 -3
20 -3 20 50 -1 50 0 35 -5 35 -4 5 97 5 97 13 13 12 12 21 -12 21 -13 24 16
24 15 0 33 0 33 -13 18 -14 19 -37 -14 -38 -14 -15 20 -15 20 5 78 5 79 -21
-5 -22 -6 -56 -6 -57 -7 -22 12 -22 12 7 48 7 48 -21 11 -20 11 -20 0 -21 0
-16 -25z"/>
</g>
</svg>
