<?xml version="1.0" standalone="no"?>
<!DOCTYPE svg PUBLIC "-//W3C//DTD SVG 20010904//EN"
 "http://www.w3.org/TR/2001/REC-SVG-20010904/DTD/svg10.dtd">
<svg version="1.0" xmlns="http://www.w3.org/2000/svg"
 width="70.000000pt" height="66.000000pt" viewBox="0 0 70.000000 66.000000"
 preserveAspectRatio="xMidYMid meet">
<metadata>
Created by potrace 1.16, written by Peter Selinger 2001-2019
</metadata>
<g transform="translate(0.000000,66.000000) scale(0.100000,-0.100000)"
fill="#000000" stroke="none">
<path d="M233 652 l-13 -8 3 -39 2 -39 -25 -13 -25 -13 -74 0 -73 0 3 -86 4
-86 24 -19 23 -19 34 0 33 0 7 12 7 11 14 -18 13 -19 0 -23 0 -24 -17 -26 -17
-25 -72 6 -72 7 -5 -28 -5 -28 11 -85 11 -86 90 4 91 3 13 4 12 4 0 30 0 30
-11 28 -10 27 17 13 18 13 35 0 36 0 15 -10 15 -9 0 -58 0 -58 30 -6 30 -7 71
-1 72 -1 11 14 12 14 14 78 15 79 5 16 5 16 24 -4 24 -5 21 11 21 12 0 47 -1
47 -13 18 -13 17 -20 0 -19 0 -13 -12 -12 -13 -25 28 -24 28 0 69 0 68 -47 11
-48 10 -59 11 -60 10 -4 0 -4 0 6 26 7 26 -12 14 -11 14 -42 0 -41 0 -12 -8z"/>
</g>
</svg>
