<?xml version="1.0" standalone="no"?>
<!DOCTYPE svg PUBLIC "-//W3C//DTD SVG 20010904//EN"
 "http://www.w3.org/TR/2001/REC-SVG-20010904/DTD/svg10.dtd">
<svg version="1.0" xmlns="http://www.w3.org/2000/svg"
 width="67.000000pt" height="67.000000pt" viewBox="0 0 67.000000 67.000000"
 preserveAspectRatio="xMidYMid meet">
<metadata>
Created by potrace 1.16, written by Peter Selinger 2001-2019
</metadata>
<g transform="translate(0.000000,67.000000) scale(0.100000,-0.100000)"
fill="#000000" stroke="none">
<path d="M334 621 l7 -50 -20 -10 -20 -11 -75 0 -76 0 0 -69 0 -68 -11 -32
-11 -33 -50 7 -49 7 -14 -12 -15 -12 0 -48 0 -48 15 -12 14 -12 63 4 63 3 -3
-103 -2 -102 78 0 79 0 23 20 22 19 -4 23 -5 23 -7 17 -8 16 21 21 21 21 30 0
30 0 16 -25 16 -25 -11 -46 -12 -46 6 -19 6 -19 67 0 67 0 38 11 37 10 0 17 0
17 -10 65 -11 65 -5 19 -6 18 -34 -5 -34 -6 -20 26 -20 26 0 32 0 33 13 10 13
11 14 -9 15 -10 33 0 33 0 15 35 14 34 0 77 0 76 -22 -5 -23 -6 -62 -11 -62
-12 -25 6 -26 6 7 45 6 44 -17 26 -16 25 -52 0 -51 0 7 -49z"/>
</g>
</svg>
