<?xml version="1.0" standalone="no"?>
<!DOCTYPE svg PUBLIC "-//W3C//DTD SVG 20010904//EN"
 "http://www.w3.org/TR/2001/REC-SVG-20010904/DTD/svg10.dtd">
<svg version="1.0" xmlns="http://www.w3.org/2000/svg"
 width="56.000000pt" height="55.000000pt" viewBox="0 0 56.000000 55.000000"
 preserveAspectRatio="xMidYMid meet">
<metadata>
Created by potrace 1.16, written by Peter Selinger 2001-2019
</metadata>
<g transform="translate(0.000000,55.000000) scale(0.100000,-0.100000)"
fill="#000000" stroke="none">
<path d="M386 507 l7 -46 -13 -31 -13 -31 -18 -9 -18 -10 -44 0 -45 0 -12 15
-12 15 10 42 11 42 -12 8 -12 8 -81 0 -82 0 -6 -31 -6 -31 0 -39 0 -38 12 -26
12 -26 14 6 14 5 24 6 24 6 24 -15 23 -16 6 -27 5 -26 -19 -19 -18 -18 -28 -7
-27 -7 -40 11 -41 11 -13 -17 -13 -17 6 -40 6 -40 16 -50 16 -50 11 -7 11 -8
75 0 75 0 22 6 22 6 5 13 5 13 -11 36 -11 35 13 16 12 15 38 0 38 0 15 -6 14
-5 -4 -24 -5 -23 19 -10 18 -9 50 -12 50 -12 23 -15 22 -14 0 7 0 8 -14 71
-13 71 -7 12 -7 11 -37 -6 -37 -6 -18 20 -18 20 -6 35 -5 35 21 21 21 21 55
-6 54 -7 11 27 10 27 0 70 0 70 -37 16 -38 16 -52 5 -53 4 6 -45z"/>
</g>
</svg>
