<?xml version="1.0" standalone="no"?>
<!DOCTYPE svg PUBLIC "-//W3C//DTD SVG 20010904//EN"
 "http://www.w3.org/TR/2001/REC-SVG-20010904/DTD/svg10.dtd">
<svg version="1.0" xmlns="http://www.w3.org/2000/svg"
 width="68.000000pt" height="60.000000pt" viewBox="0 0 68.000000 60.000000"
 preserveAspectRatio="xMidYMid meet">
<metadata>
Created by potrace 1.16, written by Peter Selinger 2001-2019
</metadata>
<g transform="translate(0.000000,60.000000) scale(0.100000,-0.100000)"
fill="#000000" stroke="none">
<path d="M374 559 l6 -44 -17 -34 -18 -35 -16 -10 -17 -10 -27 18 -27 18 6 48
6 48 -15 6 -16 6 -104 -7 -105 -6 0 -94 0 -94 11 -21 11 -20 61 4 62 3 3 -28
3 -28 -16 -25 -16 -25 -74 7 -75 7 0 -54 0 -53 12 -53 13 -53 119 0 119 0 -7
58 -7 58 24 22 24 22 17 -19 17 -19 8 -28 7 -29 -10 -28 -11 -28 11 -17 11
-17 29 -4 29 -3 67 12 67 12 11 13 11 14 -17 80 -17 80 12 15 12 14 39 -5 40
-6 25 17 25 16 0 52 0 51 -50 -6 -50 -6 -10 19 -10 19 0 86 0 86 -37 16 -38
16 -59 5 -59 5 7 -44z"/>
</g>
</svg>
