<?xml version="1.0" standalone="no"?>
<!DOCTYPE svg PUBLIC "-//W3C//DTD SVG 20010904//EN"
 "http://www.w3.org/TR/2001/REC-SVG-20010904/DTD/svg10.dtd">
<svg version="1.0" xmlns="http://www.w3.org/2000/svg"
 width="82.000000pt" height="67.000000pt" viewBox="0 0 82.000000 67.000000"
 preserveAspectRatio="xMidYMid meet">
<metadata>
Created by potrace 1.16, written by Peter Selinger 2001-2019
</metadata>
<g transform="translate(0.000000,67.000000) scale(0.100000,-0.100000)"
fill="#000000" stroke="none">
<path d="M326 648 l-16 -22 7 -54 6 -55 -87 8 -87 7 7 -89 7 -89 -65 4 -64 4
-13 -16 -13 -15 -5 -38 -5 -38 9 -35 9 -35 25 0 24 0 11 -7 12 -8 6 -27 6 -28
23 -57 22 -58 124 0 124 0 -9 33 -8 32 0 50 -1 50 23 3 23 4 14 -12 14 -11 -6
-35 -6 -34 12 -14 12 -14 67 -12 67 -13 34 -13 34 -14 17 5 17 5 12 53 12 54
10 36 10 37 33 0 34 0 6 16 6 16 0 56 0 57 -9 13 -8 13 -51 -7 -52 -7 -10 27
-10 27 0 59 0 59 -9 5 -9 6 -58 -15 -58 -15 -32 0 -32 0 -11 14 -12 14 12 7
11 8 -5 39 -5 39 -16 24 -16 25 -50 0 -49 0 -15 -22z"/>
</g>
</svg>
