<?xml version="1.0" standalone="no"?>
<!DOCTYPE svg PUBLIC "-//W3C//DTD SVG 20010904//EN"
 "http://www.w3.org/TR/2001/REC-SVG-20010904/DTD/svg10.dtd">
<svg version="1.0" xmlns="http://www.w3.org/2000/svg"
 width="63.000000pt" height="80.000000pt" viewBox="0 0 63.000000 80.000000"
 preserveAspectRatio="xMidYMid meet">
<metadata>
Created by potrace 1.16, written by Peter Selinger 2001-2019
</metadata>
<g transform="translate(0.000000,80.000000) scale(0.100000,-0.100000)"
fill="#000000" stroke="none">
<path d="M343 788 l-32 -8 -5 -9 -5 -8 11 -31 12 -31 -19 -20 -18 -21 -81 0
-81 0 -1 -83 0 -82 -13 -23 -13 -24 -46 4 -47 3 -3 -33 -3 -33 11 -14 11 -14
34 6 33 5 11 -38 11 -39 0 -26 0 -26 6 -46 7 -46 81 5 81 5 14 -9 13 -9 -11
-21 -11 -21 0 -30 0 -31 20 -20 20 -20 50 0 49 0 11 21 11 20 -10 32 -11 31 7
7 8 8 75 12 75 12 18 1 17 0 -5 15 -6 14 -6 61 -6 61 -9 18 -9 18 -22 -7 -22
-7 -28 1 -29 1 -14 18 -13 18 -1 46 0 47 14 11 14 12 50 -7 50 -6 17 25 17 26
1 71 2 71 -15 9 -15 10 -45 0 -45 0 -39 11 -38 11 5 33 5 33 -16 15 -17 14
-15 5 -15 5 -32 -9z"/>
</g>
</svg>
