<?xml version="1.0" standalone="no"?>
<!DOCTYPE svg PUBLIC "-//W3C//DTD SVG 20010904//EN"
 "http://www.w3.org/TR/2001/REC-SVG-20010904/DTD/svg10.dtd">
<svg version="1.0" xmlns="http://www.w3.org/2000/svg"
 width="70.000000pt" height="79.000000pt" viewBox="0 0 70.000000 79.000000"
 preserveAspectRatio="xMidYMid meet">
<metadata>
Created by potrace 1.16, written by Peter Selinger 2001-2019
</metadata>
<g transform="translate(0.000000,79.000000) scale(0.100000,-0.100000)"
fill="#000000" stroke="none">
<path d="M226 774 l-17 -17 2 -41 3 -42 -8 -13 -8 -12 -90 7 -90 7 -9 -14 -9
-14 0 -63 0 -63 16 -31 16 -30 49 6 49 7 10 -26 10 -25 -10 -24 -9 -24 -45 5
-45 5 -5 -23 -6 -24 -9 -70 -10 -70 -6 -20 -5 -20 9 -14 10 -15 26 12 26 12
49 0 48 0 14 -5 13 -5 -3 -44 -4 -44 21 -21 21 -21 38 0 39 0 18 20 18 20 -5
45 -6 45 24 6 25 6 62 -5 62 -5 21 -7 20 -6 2 83 2 83 8 30 9 30 56 -3 57 -4
11 25 12 25 -7 35 -6 34 -19 17 -19 17 -52 -3 -53 -3 -9 30 -9 30 6 59 6 59
-23 -7 -23 -7 -62 -11 -61 -12 -15 12 -14 12 10 40 11 40 -20 27 -21 28 -40 3
-41 3 -16 -17z"/>
</g>
</svg>
