<?xml version="1.0" standalone="no"?>
<!DOCTYPE svg PUBLIC "-//W3C//DTD SVG 20010904//EN"
 "http://www.w3.org/TR/2001/REC-SVG-20010904/DTD/svg10.dtd">
<svg version="1.0" xmlns="http://www.w3.org/2000/svg"
 width="68.000000pt" height="77.000000pt" viewBox="0 0 68.000000 77.000000"
 preserveAspectRatio="xMidYMid meet">
<metadata>
Created by potrace 1.16, written by Peter Selinger 2001-2019
</metadata>
<g transform="translate(0.000000,77.000000) scale(0.100000,-0.100000)"
fill="#000000" stroke="none">
<path d="M225 754 l-17 -18 6 -42 5 -42 -14 -12 -15 -12 -86 7 -87 7 -8 -13
-9 -14 0 -53 0 -53 16 -31 16 -30 31 7 32 7 15 1 14 2 14 -29 14 -28 -9 -32
-9 -31 -47 3 -46 3 -5 -23 -6 -23 -9 -70 -9 -70 -2 -10 -2 -10 1 -13 1 -13 19
11 20 10 60 0 59 0 16 -6 15 -6 -6 -43 -5 -43 21 -21 21 -21 28 0 29 0 18 20
17 19 -6 44 -7 45 16 6 17 6 68 0 69 0 23 -9 23 -9 3 82 2 81 9 30 8 30 56 -3
56 -3 11 21 11 21 -6 29 -6 28 -20 18 -19 17 -37 -11 -36 -11 -18 9 -18 10 -7
45 -6 46 6 38 6 38 -52 -13 -52 -14 -37 0 -37 0 -12 15 -12 14 12 37 12 36
-19 27 -20 26 -30 3 -30 3 -18 -17z"/>
</g>
</svg>
