<?xml version="1.0" standalone="no"?>
<!DOCTYPE svg PUBLIC "-//W3C//DTD SVG 20010904//EN"
 "http://www.w3.org/TR/2001/REC-SVG-20010904/DTD/svg10.dtd">
<svg version="1.0" xmlns="http://www.w3.org/2000/svg"
 width="82.000000pt" height="59.000000pt" viewBox="0 0 82.000000 59.000000"
 preserveAspectRatio="xMidYMid meet">
<metadata>
Created by potrace 1.16, written by Peter Selinger 2001-2019
</metadata>
<g transform="translate(0.000000,59.000000) scale(0.100000,-0.100000)"
fill="#000000" stroke="none">
<path d="M461 581 l-14 -9 12 -60 11 -59 -9 -24 -9 -24 -25 -14 -25 -14 -36 7
-36 7 -6 25 -7 26 7 55 7 56 -68 -6 -68 -7 -27 0 -28 0 0 -90 0 -89 -48 6 -47
5 -20 -22 -20 -22 0 -49 0 -48 13 -13 12 -12 29 10 28 11 11 -17 10 -17 13
-95 12 -95 71 4 71 5 31 9 32 10 12 29 12 30 -6 34 -6 34 22 6 23 5 24 -24 25
-24 -13 -24 -13 -25 7 -21 6 -21 22 -4 22 -5 93 -5 92 -5 0 22 0 22 -15 49
-15 49 0 23 0 23 48 -6 49 -5 37 17 37 18 10 20 11 20 -4 54 -5 55 -14 9 -14
10 -57 -6 -58 -6 0 73 0 73 -8 11 -7 11 -50 16 -50 16 -40 6 -40 6 -14 -10z"/>
</g>
</svg>
