<?xml version="1.0" standalone="no"?>
<!DOCTYPE svg PUBLIC "-//W3C//DTD SVG 20010904//EN"
 "http://www.w3.org/TR/2001/REC-SVG-20010904/DTD/svg10.dtd">
<svg version="1.0" xmlns="http://www.w3.org/2000/svg"
 width="80.000000pt" height="57.000000pt" viewBox="0 0 80.000000 57.000000"
 preserveAspectRatio="xMidYMid meet">
<metadata>
Created by potrace 1.16, written by Peter Selinger 2001-2019
</metadata>
<g transform="translate(0.000000,57.000000) scale(0.100000,-0.100000)"
fill="#000000" stroke="none">
<path d="M462 562 l-13 -9 11 -49 11 -49 -6 -32 -6 -31 -26 -17 -26 -17 -45 5
-44 5 -10 13 -9 14 3 69 4 68 -51 -6 -50 -6 -32 0 -32 0 -3 -92 -3 -93 -20 3
-20 3 -25 6 -25 5 -20 -22 -20 -22 0 -39 0 -38 11 -11 11 -11 27 12 26 12 14
-18 13 -19 13 -80 12 -81 0 -15 0 -15 76 6 77 6 17 7 16 7 12 29 12 29 -11 31
-10 31 25 9 25 10 13 0 13 0 21 -23 22 -23 0 -20 0 -20 -10 -10 -11 -11 7 -16
6 -17 22 -5 21 -4 83 -4 82 -4 0 11 0 11 -15 49 -15 49 0 32 0 32 6 6 6 5 29
-10 30 -10 33 6 34 6 27 26 27 25 -4 51 -5 50 -14 9 -14 10 -35 -6 -35 -5 -20
-3 -20 -2 -5 82 -5 81 -5 5 -5 4 -50 16 -50 16 -30 5 -30 6 -13 -8z"/>
</g>
</svg>
