<?xml version="1.0" standalone="no"?>
<!DOCTYPE svg PUBLIC "-//W3C//DTD SVG 20010904//EN"
 "http://www.w3.org/TR/2001/REC-SVG-20010904/DTD/svg10.dtd">
<svg version="1.0" xmlns="http://www.w3.org/2000/svg"
 width="82.000000pt" height="52.000000pt" viewBox="0 0 82.000000 52.000000"
 preserveAspectRatio="xMidYMid meet">
<metadata>
Created by potrace 1.16, written by Peter Selinger 2001-2019
</metadata>
<g transform="translate(0.000000,52.000000) scale(0.100000,-0.100000)"
fill="#000000" stroke="none">
<path d="M253 512 l-73 -3 0 -73 0 -72 -14 -19 -14 -19 -49 12 -49 13 -17 -7
-17 -6 -5 -22 -4 -21 -3 -15 -2 -15 7 -27 7 -28 30 -15 30 -16 53 3 52 3 0
-70 0 -70 -9 -24 -8 -24 90 5 91 4 21 19 20 18 0 23 0 23 -10 25 -9 26 5 15 6
15 42 0 43 0 22 -24 23 -25 -6 -44 -7 -44 13 -10 13 -11 76 -4 76 -3 1 10 1
10 11 75 10 75 6 23 5 23 46 -3 47 -3 9 31 9 32 -14 28 -14 29 -14 -2 -15 -1
-32 -7 -31 -7 -17 32 -17 33 4 61 4 62 -56 -9 -55 -8 -30 -8 -30 -7 3 -20 4
-19 0 -25 0 -24 -27 -23 -26 -23 -28 0 -29 0 -11 14 -12 14 -6 35 -5 36 10 30
11 31 -7 3 -7 4 -25 4 -25 4 -72 -3z"/>
</g>
</svg>
