<?xml version="1.0" standalone="no"?>
<!DOCTYPE svg PUBLIC "-//W3C//DTD SVG 20010904//EN"
 "http://www.w3.org/TR/2001/REC-SVG-20010904/DTD/svg10.dtd">
<svg version="1.0" xmlns="http://www.w3.org/2000/svg"
 width="84.000000pt" height="54.000000pt" viewBox="0 0 84.000000 54.000000"
 preserveAspectRatio="xMidYMid meet">
<metadata>
Created by potrace 1.16, written by Peter Selinger 2001-2019
</metadata>
<g transform="translate(0.000000,54.000000) scale(0.100000,-0.100000)"
fill="#000000" stroke="none">
<path d="M253 533 l-73 -4 0 -73 0 -72 -13 -19 -14 -18 -33 11 -33 12 -21 0
-21 0 -13 -9 -13 -8 -9 -39 -9 -39 10 -33 11 -32 30 -16 30 -16 52 4 51 3 -1
-60 0 -60 -9 -34 -8 -33 101 4 101 4 21 19 22 20 -6 63 -7 62 34 0 34 0 21
-23 22 -23 -6 -45 -6 -45 13 -11 14 -10 88 -6 87 -5 0 8 0 9 10 78 10 78 5 22
5 23 45 -7 44 -6 12 29 11 29 -6 33 -5 34 -12 15 -13 15 -25 -5 -26 -6 -17 -6
-17 -7 -17 33 -17 33 6 64 6 64 -23 -6 -23 -6 -66 -9 -66 -9 -11 -7 -11 -7 6
-42 7 -43 -28 -22 -28 -22 -20 3 -21 3 -14 30 -14 29 12 45 12 44 -8 8 -8 7
-35 5 -35 4 -72 -4z"/>
</g>
</svg>
