<?xml version="1.0" standalone="no"?>
<!DOCTYPE svg PUBLIC "-//W3C//DTD SVG 20010904//EN"
 "http://www.w3.org/TR/2001/REC-SVG-20010904/DTD/svg10.dtd">
<svg version="1.0" xmlns="http://www.w3.org/2000/svg"
 width="57.000000pt" height="68.000000pt" viewBox="0 0 57.000000 68.000000"
 preserveAspectRatio="xMidYMid meet">
<metadata>
Created by potrace 1.16, written by Peter Selinger 2001-2019
</metadata>
<g transform="translate(0.000000,68.000000) scale(0.100000,-0.100000)"
fill="#000000" stroke="none">
<path d="M0 569 l0 -108 53 6 53 5 29 -24 28 -25 -7 -27 -7 -28 -48 7 -49 7
-5 -9 -6 -9 -15 -97 -16 -97 0 -14 0 -13 90 5 90 5 0 -55 0 -54 20 -22 21 -22
43 0 43 0 28 22 27 21 -5 59 -5 59 14 6 15 6 66 -17 66 -16 2 2 2 3 22 58 21
58 0 40 0 40 -16 6 -15 6 -23 -12 -23 -13 -44 12 -44 12 -22 23 -23 24 0 39 0
40 13 5 14 5 40 -11 41 -11 25 17 24 16 7 32 6 32 0 55 0 55 -46 -7 -47 -6
-56 0 -57 0 -19 -14 -19 -13 13 -32 13 -31 -12 -16 -13 -15 -26 3 -26 3 2 25
2 25 -5 22 -4 23 -28 14 -27 14 -87 4 -88 4 0 -107z"/>
</g>
</svg>
