<?xml version="1.0" standalone="no"?>
<!DOCTYPE svg PUBLIC "-//W3C//DTD SVG 20010904//EN"
 "http://www.w3.org/TR/2001/REC-SVG-20010904/DTD/svg10.dtd">
<svg version="1.0" xmlns="http://www.w3.org/2000/svg"
 width="54.000000pt" height="70.000000pt" viewBox="0 0 54.000000 70.000000"
 preserveAspectRatio="xMidYMid meet">
<metadata>
Created by potrace 1.16, written by Peter Selinger 2001-2019
</metadata>
<g transform="translate(0.000000,70.000000) scale(0.100000,-0.100000)"
fill="#000000" stroke="none">
<path d="M0 597 l0 -98 17 -6 16 -6 38 10 38 10 12 -8 13 -7 0 -49 1 -48 -34
-5 -35 -5 -28 -95 -27 -95 -1 -16 0 -16 69 5 69 5 26 -7 26 -6 0 -58 0 -58 16
-22 15 -22 50 0 49 0 21 21 22 22 -6 57 -6 58 25 5 26 5 65 -6 66 -5 -6 24 -6
24 -7 92 -7 93 -13 11 -14 12 -40 -7 -39 -6 -10 18 -10 19 6 21 5 22 44 0 44
0 20 20 20 20 0 80 0 80 -14 0 -14 0 -73 -16 -74 -17 -13 -10 -13 -11 5 -22 6
-23 -20 -11 -21 -11 -36 3 -36 3 -19 25 -19 25 12 33 11 33 -7 7 -7 7 -99 0
-99 0 0 -98z"/>
</g>
</svg>
