<?xml version="1.0" standalone="no"?>
<!DOCTYPE svg PUBLIC "-//W3C//DTD SVG 20010904//EN"
 "http://www.w3.org/TR/2001/REC-SVG-20010904/DTD/svg10.dtd">
<svg version="1.0" xmlns="http://www.w3.org/2000/svg"
 width="52.000000pt" height="68.000000pt" viewBox="0 0 52.000000 68.000000"
 preserveAspectRatio="xMidYMid meet">
<metadata>
Created by potrace 1.16, written by Peter Selinger 2001-2019
</metadata>
<g transform="translate(0.000000,68.000000) scale(0.100000,-0.100000)"
fill="#000000" stroke="none">
<path d="M2 585 l3 -90 25 1 25 1 25 7 25 6 14 -9 14 -9 5 -55 4 -54 -13 -9
-14 -9 -24 0 -25 0 -27 -95 -28 -95 -1 -5 0 -5 66 3 66 4 32 -6 33 -6 -5 -55
-4 -55 16 -25 16 -25 40 0 40 0 21 21 21 21 -6 37 -5 36 -3 19 -3 19 30 8 30
9 60 -6 60 -6 -10 103 -10 104 -8 13 -9 13 -43 -7 -43 -6 -12 21 -11 21 6 33
6 32 44 -3 43 -4 21 21 21 21 0 71 0 71 -23 -6 -22 -5 -55 -12 -55 -11 -13
-10 -12 -11 12 -14 12 -15 -24 -20 -23 -19 -50 3 -50 3 -20 27 -21 27 11 36
11 35 -11 1 -12 2 -83 1 -83 1 3 -90z"/>
</g>
</svg>
