<?xml version="1.0" standalone="no"?>
<!DOCTYPE svg PUBLIC "-//W3C//DTD SVG 20010904//EN"
 "http://www.w3.org/TR/2001/REC-SVG-20010904/DTD/svg10.dtd">
<svg version="1.0" xmlns="http://www.w3.org/2000/svg"
 width="81.000000pt" height="53.000000pt" viewBox="0 0 81.000000 53.000000"
 preserveAspectRatio="xMidYMid meet">
<metadata>
Created by potrace 1.16, written by Peter Selinger 2001-2019
</metadata>
<g transform="translate(0.000000,53.000000) scale(0.100000,-0.100000)"
fill="#000000" stroke="none">
<path d="M140 448 l0 -78 -21 -21 -21 -21 -43 4 -44 3 -6 -32 -6 -33 11 -21
12 -21 43 6 43 7 9 -13 8 -13 10 -100 10 -100 85 -6 85 -7 21 5 22 5 -5 61 -5
62 19 24 19 24 23 -8 23 -7 18 -41 18 -40 -11 -19 -12 -18 11 -18 11 -17 82
-3 81 -3 9 23 10 23 6 77 7 77 14 12 14 11 41 -10 41 -10 19 19 19 19 0 16 0
15 -10 20 -11 19 -29 15 -29 15 -25 0 -25 0 -6 -10 -6 -10 -15 0 -14 0 0 91 0
91 -32 -6 -33 -5 -45 -7 -45 -7 -17 -9 -17 -8 5 -29 6 -28 -23 -17 -23 -16
-33 0 -33 0 -20 20 -20 20 0 16 0 15 11 20 10 20 -11 14 -11 14 -85 3 -84 3 0
-77z"/>
</g>
</svg>
