<?xml version="1.0" standalone="no"?>
<!DOCTYPE svg PUBLIC "-//W3C//DTD SVG 20010904//EN"
 "http://www.w3.org/TR/2001/REC-SVG-20010904/DTD/svg10.dtd">
<svg version="1.0" xmlns="http://www.w3.org/2000/svg"
 width="64.000000pt" height="67.000000pt" viewBox="0 0 64.000000 67.000000"
 preserveAspectRatio="xMidYMid meet">
<metadata>
Created by potrace 1.16, written by Peter Selinger 2001-2019
</metadata>
<g transform="translate(0.000000,67.000000) scale(0.100000,-0.100000)"
fill="#000000" stroke="none">
<path d="M333 662 l-13 -8 10 -34 10 -35 0 -21 0 -21 -19 -22 -20 -23 -47 0
-47 0 -20 21 -21 21 11 42 11 42 -4 8 -5 8 -85 0 -84 0 0 -69 0 -68 21 -27 20
-26 15 0 14 0 20 12 20 13 14 -20 15 -20 1 -37 0 -37 -20 -11 -20 -10 -24 6
-24 6 -6 -19 -6 -18 -15 -79 -15 -80 -10 -10 -10 -10 0 -7 0 -8 33 10 32 10
49 -7 48 -6 20 -20 20 -20 -7 -21 -7 -22 -1 -20 -2 -20 47 -3 47 -3 31 16 32
17 -6 33 -6 33 22 5 23 6 57 6 57 7 11 13 10 13 13 97 12 98 17 11 18 11 19
-12 19 -12 16 18 16 18 0 41 0 42 -42 0 -43 0 -11 8 -11 7 -12 22 -11 22 0 64
0 64 -64 11 -63 12 -19 0 -19 0 -12 -8z"/>
</g>
</svg>
