<?xml version="1.0" standalone="no"?>
<!DOCTYPE svg PUBLIC "-//W3C//DTD SVG 20010904//EN"
 "http://www.w3.org/TR/2001/REC-SVG-20010904/DTD/svg10.dtd">
<svg version="1.0" xmlns="http://www.w3.org/2000/svg"
 width="66.000000pt" height="54.000000pt" viewBox="0 0 66.000000 54.000000"
 preserveAspectRatio="xMidYMid meet">
<metadata>
Created by potrace 1.16, written by Peter Selinger 2001-2019
</metadata>
<g transform="translate(0.000000,54.000000) scale(0.100000,-0.100000)"
fill="#000000" stroke="none">
<path d="M367 478 l6 -65 -27 -26 -27 -27 -39 0 -39 0 -15 16 -16 15 -6 25 -6
25 6 41 7 41 -92 -7 -93 -7 -8 -5 -8 -5 0 -90 0 -89 14 0 15 0 6 10 6 10 25 0
25 0 29 -15 29 -15 11 -19 10 -20 0 -15 0 -16 -19 -19 -19 -19 -41 10 -41 10
-14 -11 -14 -12 -7 -77 -6 -77 -9 -22 -10 -23 115 0 115 0 -6 71 -7 71 14 9
14 9 25 0 26 0 22 -16 23 -16 -7 -33 -6 -33 19 -10 18 -9 65 -13 65 -12 16 -8
15 -9 13 22 14 21 21 81 21 80 20 0 20 0 13 8 12 8 0 37 0 37 -10 15 -10 15
-42 0 -42 0 -13 25 -13 25 0 66 0 66 -27 12 -28 13 -57 5 -58 6 7 -65z"/>
</g>
</svg>
