<?xml version="1.0" standalone="no"?>
<!DOCTYPE svg PUBLIC "-//W3C//DTD SVG 20010904//EN"
 "http://www.w3.org/TR/2001/REC-SVG-20010904/DTD/svg10.dtd">
<svg version="1.0" xmlns="http://www.w3.org/2000/svg"
 width="68.000000pt" height="56.000000pt" viewBox="0 0 68.000000 56.000000"
 preserveAspectRatio="xMidYMid meet">
<metadata>
Created by potrace 1.16, written by Peter Selinger 2001-2019
</metadata>
<g transform="translate(0.000000,56.000000) scale(0.100000,-0.100000)"
fill="#000000" stroke="none">
<path d="M365 498 l7 -65 -26 -27 -27 -26 -27 0 -27 0 -11 8 -11 7 -12 23 -13
24 7 50 7 51 -102 -7 -102 -6 -9 -6 -9 -5 0 -100 0 -99 20 0 20 0 19 12 19 11
32 -13 32 -13 14 -23 15 -23 -11 -21 -11 -21 -53 6 -52 7 -11 -14 -11 -13 -10
-85 -10 -85 -7 -23 -7 -22 127 0 127 0 -7 75 -7 74 26 7 26 6 23 -15 23 -15
-4 -35 -4 -35 12 -7 12 -8 77 -17 76 -18 20 -7 20 -6 16 28 16 28 18 73 17 72
22 0 22 0 12 12 12 12 0 44 0 43 -11 20 -11 21 -41 -4 -41 -3 -13 25 -13 25 0
66 0 66 -27 13 -28 12 -68 6 -69 5 7 -65z"/>
</g>
</svg>
