<?xml version="1.0" standalone="no"?>
<!DOCTYPE svg PUBLIC "-//W3C//DTD SVG 20010904//EN"
 "http://www.w3.org/TR/2001/REC-SVG-20010904/DTD/svg10.dtd">
<svg version="1.0" xmlns="http://www.w3.org/2000/svg"
 width="53.000000pt" height="54.000000pt" viewBox="0 0 53.000000 54.000000"
 preserveAspectRatio="xMidYMid meet">
<metadata>
Created by potrace 1.16, written by Peter Selinger 2001-2019
</metadata>
<g transform="translate(0.000000,54.000000) scale(0.100000,-0.100000)"
fill="#000000" stroke="none">
<path d="M326 532 l-6 -10 11 -29 10 -28 -6 -35 -7 -34 -14 -28 -15 -28 -30 0
-30 0 -25 17 -26 17 6 57 7 58 -21 11 -20 11 -73 -3 -72 -3 -3 -24 -4 -24 7
-44 6 -43 22 -20 21 -20 32 0 33 0 7 12 7 11 14 -18 13 -19 0 -37 0 -37 -15
-12 -14 -12 -68 4 -68 3 1 -110 1 -110 79 -3 79 -3 22 6 23 5 0 31 0 30 -11
21 -11 20 14 15 14 14 35 5 34 6 29 -11 28 -11 -6 -23 -5 -22 7 -11 7 -12 79
-21 79 -22 4 5 5 4 -12 73 -11 73 -10 13 -11 12 -19 -12 -19 -12 -27 15 -27
15 -7 28 -8 28 11 30 10 29 18 10 17 9 32 -12 31 -11 16 15 15 16 9 39 10 39
0 42 0 42 -37 11 -38 11 -61 6 -61 6 -7 -11z"/>
</g>
</svg>
