<?xml version="1.0" standalone="no"?>
<!DOCTYPE svg PUBLIC "-//W3C//DTD SVG 20010904//EN"
 "http://www.w3.org/TR/2001/REC-SVG-20010904/DTD/svg10.dtd">
<svg version="1.0" xmlns="http://www.w3.org/2000/svg"
 width="51.000000pt" height="53.000000pt" viewBox="0 0 51.000000 53.000000"
 preserveAspectRatio="xMidYMid meet">
<metadata>
Created by potrace 1.16, written by Peter Selinger 2001-2019
</metadata>
<g transform="translate(0.000000,53.000000) scale(0.100000,-0.100000)"
fill="#000000" stroke="none">
<path d="M313 524 l-13 -6 7 -58 6 -59 -17 -26 -16 -25 -29 0 -28 0 -17 18
-16 19 2 48 3 49 -25 13 -25 13 -72 0 -73 0 0 -86 0 -86 32 8 33 8 29 -1 29 0
14 -19 13 -18 0 -41 0 -42 -19 -17 -20 -18 -30 7 -31 7 -9 -24 -9 -24 -7 -60
-8 -59 -8 -22 -9 -23 63 0 62 0 36 10 36 10 11 25 12 25 -11 27 -10 27 17 13
18 13 16 0 16 0 22 -16 22 -15 -11 -21 -11 -20 14 -14 13 -13 88 -19 88 -19
-6 40 -7 40 -12 46 -11 46 -38 -3 -37 -3 -19 11 -20 10 -7 34 -6 34 6 20 7 20
15 6 16 6 40 -12 39 -11 19 19 20 19 10 54 10 55 -6 32 -6 32 -21 5 -22 5 -65
6 -65 5 -12 -5z"/>
</g>
</svg>
