<?xml version="1.0" standalone="no"?>
<!DOCTYPE svg PUBLIC "-//W3C//DTD SVG 20010904//EN"
 "http://www.w3.org/TR/2001/REC-SVG-20010904/DTD/svg10.dtd">
<svg version="1.0" xmlns="http://www.w3.org/2000/svg"
 width="71.000000pt" height="74.000000pt" viewBox="0 0 71.000000 74.000000"
 preserveAspectRatio="xMidYMid meet">
<metadata>
Created by potrace 1.16, written by Peter Selinger 2001-2019
</metadata>
<g transform="translate(0.000000,74.000000) scale(0.100000,-0.100000)"
fill="#000000" stroke="none">
<path d="M507 734 l-6 -7 5 -56 6 -56 -18 -16 -19 -16 -26 -6 -25 -6 -23 16
-23 16 6 55 7 55 -83 -6 -83 -7 -34 0 -34 0 7 -90 8 -90 -62 0 -61 0 -26 -26
-25 -25 5 -35 6 -35 23 -19 23 -19 32 -7 33 -6 26 6 27 7 -8 -102 -7 -102 24
7 23 7 75 6 75 6 -3 -59 -3 -59 13 -25 13 -25 27 -9 26 -9 25 16 25 16 12 51
12 52 -5 39 -5 39 28 0 28 0 64 -20 63 -20 7 0 6 0 11 31 11 32 0 76 0 76 -9
14 -9 14 -55 -7 -56 -7 -11 20 -11 21 11 20 11 20 24 6 25 6 34 -6 34 -6 6 16
6 16 0 41 0 42 -6 52 -7 53 -54 20 -54 20 -38 0 -38 0 -6 -6z"/>
</g>
</svg>
