<?xml version="1.0" standalone="no"?>
<!DOCTYPE svg PUBLIC "-//W3C//DTD SVG 20010904//EN"
 "http://www.w3.org/TR/2001/REC-SVG-20010904/DTD/svg10.dtd">
<svg version="1.0" xmlns="http://www.w3.org/2000/svg"
 width="69.000000pt" height="72.000000pt" viewBox="0 0 69.000000 72.000000"
 preserveAspectRatio="xMidYMid meet">
<metadata>
Created by potrace 1.16, written by Peter Selinger 2001-2019
</metadata>
<g transform="translate(0.000000,72.000000) scale(0.100000,-0.100000)"
fill="#000000" stroke="none">
<path d="M506 712 l-5 -8 9 -38 8 -39 -8 -21 -8 -22 -13 -11 -14 -11 -33 -7
-33 -7 -26 17 -25 17 4 55 5 56 -66 -7 -66 -6 -38 0 -38 0 7 -93 6 -93 -60 4
-61 4 -26 -26 -27 -27 7 -26 6 -26 22 -18 22 -18 33 -7 32 -6 15 12 14 12 12
-8 12 -7 -7 -97 -6 -98 38 9 37 9 63 0 62 0 -6 -40 -6 -39 6 -36 7 -35 24 -16
25 -16 24 16 24 15 13 57 13 56 -11 28 -11 29 6 5 5 6 38 0 37 0 61 -19 60
-19 10 31 11 30 0 63 0 62 -6 17 -6 16 -58 -7 -58 -6 -12 22 -12 22 6 24 6 23
21 12 21 11 44 -4 45 -3 6 23 5 23 -7 74 -7 74 -54 21 -55 20 -29 0 -29 0 -5
-8z"/>
</g>
</svg>
