<?xml version="1.0" standalone="no"?>
<!DOCTYPE svg PUBLIC "-//W3C//DTD SVG 20010904//EN"
 "http://www.w3.org/TR/2001/REC-SVG-20010904/DTD/svg10.dtd">
<svg version="1.0" xmlns="http://www.w3.org/2000/svg"
 width="50.000000pt" height="63.000000pt" viewBox="0 0 50.000000 63.000000"
 preserveAspectRatio="xMidYMid meet">
<metadata>
Created by potrace 1.16, written by Peter Selinger 2001-2019
</metadata>
<g transform="translate(0.000000,63.000000) scale(0.100000,-0.100000)"
fill="#000000" stroke="none">
<path d="M0 566 l0 -65 9 -24 9 -24 22 -6 21 -5 31 10 30 11 9 -14 9 -14 0
-50 0 -50 -9 -14 -9 -14 -25 7 -26 6 -7 -11 -7 -11 -19 -72 -19 -71 -3 -15 -4
-15 60 -2 59 -2 24 -15 24 -16 3 -42 3 -43 45 -3 45 -3 32 6 33 6 -3 22 -2 22
75 25 75 25 9 27 9 26 -9 89 -9 88 -47 -3 -48 -3 -20 11 -20 11 0 53 0 54 16
13 15 13 33 -12 33 -12 17 6 17 6 9 19 10 18 0 55 0 56 -7 -1 -8 0 -80 -17
-80 -18 2 -31 3 -32 -42 -12 -42 -11 -38 11 -38 12 0 7 0 8 11 11 11 11 -7 22
-7 22 -34 14 -33 14 -56 0 -55 0 0 -64z"/>
</g>
</svg>
