<?xml version="1.0" standalone="no"?>
<!DOCTYPE svg PUBLIC "-//W3C//DTD SVG 20010904//EN"
 "http://www.w3.org/TR/2001/REC-SVG-20010904/DTD/svg10.dtd">
<svg version="1.0" xmlns="http://www.w3.org/2000/svg"
 width="79.000000pt" height="82.000000pt" viewBox="0 0 79.000000 82.000000"
 preserveAspectRatio="xMidYMid meet">
<metadata>
Created by potrace 1.16, written by Peter Selinger 2001-2019
</metadata>
<g transform="translate(0.000000,82.000000) scale(0.100000,-0.100000)"
fill="#000000" stroke="none">
<path d="M346 805 l-5 -15 9 -26 10 -25 0 -23 0 -23 -20 -18 -21 -19 -89 -4
-90 -4 0 -58 0 -57 -11 -32 -11 -31 -30 0 -29 0 -19 10 -18 10 -12 -15 -12
-15 4 -65 4 -64 7 -7 7 -7 13 12 14 11 10 -12 10 -13 22 -65 22 -65 1 -12 1
-13 14 0 13 0 0 -8 0 -7 88 6 87 6 12 -4 11 -4 -9 -32 -9 -32 0 -21 0 -21 19
-21 18 -22 31 0 31 0 25 11 25 12 11 27 11 27 -3 39 -3 39 86 -2 86 -2 -14 61
-14 61 3 31 3 31 46 -3 46 -3 28 23 28 24 0 28 0 28 -15 14 -15 15 -19 0 -19
1 -22 -7 -22 -7 -11 43 -12 44 4 53 5 53 -18 10 -18 9 -64 0 -65 0 -11 14 -12
14 7 41 7 42 -23 24 -23 25 -43 0 -42 0 -6 -15z"/>
</g>
</svg>
