<?xml version="1.0" standalone="no"?>
<!DOCTYPE svg PUBLIC "-//W3C//DTD SVG 20010904//EN"
 "http://www.w3.org/TR/2001/REC-SVG-20010904/DTD/svg10.dtd">
<svg version="1.0" xmlns="http://www.w3.org/2000/svg"
 width="72.000000pt" height="67.000000pt" viewBox="0 0 72.000000 67.000000"
 preserveAspectRatio="xMidYMid meet">
<metadata>
Created by potrace 1.16, written by Peter Selinger 2001-2019
</metadata>
<g transform="translate(0.000000,67.000000) scale(0.100000,-0.100000)"
fill="#000000" stroke="none">
<path d="M284 645 l-17 -26 6 -59 5 -60 -16 -1 -17 -2 -96 3 -96 2 -7 -101 -8
-100 6 -10 6 -9 42 10 43 9 32 -6 32 -6 7 -21 7 -22 -23 -18 -22 -18 -40 -11
-40 -10 -30 12 -29 12 -14 -19 -15 -19 6 -35 5 -35 16 -52 17 -53 88 0 89 0
30 16 31 15 -4 45 -3 44 17 6 18 5 27 -13 28 -14 -3 -44 -3 -43 13 -9 13 -8
96 0 96 0 -19 56 -19 56 3 37 3 36 20 -3 20 -4 42 -1 42 -2 23 23 23 23 0 45
0 45 -15 9 -15 10 -55 -2 -55 -3 -3 87 -3 87 -91 3 -91 3 -11 17 -11 18 12 18
11 19 -18 40 -18 40 -17 6 -17 7 -9 0 -9 0 -16 -25z"/>
</g>
</svg>
