<?xml version="1.0" standalone="no"?>
<!DOCTYPE svg PUBLIC "-//W3C//DTD SVG 20010904//EN"
 "http://www.w3.org/TR/2001/REC-SVG-20010904/DTD/svg10.dtd">
<svg version="1.0" xmlns="http://www.w3.org/2000/svg"
 width="83.000000pt" height="71.000000pt" viewBox="0 0 83.000000 71.000000"
 preserveAspectRatio="xMidYMid meet">
<metadata>
Created by potrace 1.16, written by Peter Selinger 2001-2019
</metadata>
<g transform="translate(0.000000,71.000000) scale(0.100000,-0.100000)"
fill="#000000" stroke="none">
<path d="M363 694 l-6 -15 5 -70 5 -69 -108 0 -109 0 0 -82 0 -83 -8 -12 -8
-12 -37 11 -37 11 -24 -11 -25 -11 -7 -36 -7 -37 12 -24 11 -24 32 -21 33 -20
48 4 47 4 0 -27 0 -27 -15 -49 -15 -49 0 -6 0 -7 28 -10 27 -10 78 -7 78 -6
-7 74 -6 73 17 17 16 17 20 0 20 0 19 -10 19 -10 -6 -35 -6 -35 12 -14 12 -14
47 -7 47 -7 59 -19 59 -20 8 8 9 9 16 69 16 70 8 21 8 20 35 -4 35 -4 8 47 7
47 -12 39 -12 39 -21 11 -21 11 -40 -6 -40 -7 5 84 4 85 -65 15 -66 16 -37 6
-37 7 -11 13 -11 13 12 20 13 20 -17 26 -17 26 -46 0 -45 0 -6 -16z"/>
</g>
</svg>
