<?xml version="1.0" standalone="no"?>
<!DOCTYPE svg PUBLIC "-//W3C//DTD SVG 20010904//EN"
 "http://www.w3.org/TR/2001/REC-SVG-20010904/DTD/svg10.dtd">
<svg version="1.0" xmlns="http://www.w3.org/2000/svg"
 width="82.000000pt" height="67.000000pt" viewBox="0 0 82.000000 67.000000"
 preserveAspectRatio="xMidYMid meet">
<metadata>
Created by potrace 1.16, written by Peter Selinger 2001-2019
</metadata>
<g transform="translate(0.000000,67.000000) scale(0.100000,-0.100000)"
fill="#000000" stroke="none">
<path d="M168 574 l-3 -96 -20 -15 -20 -15 -63 6 -63 7 3 -33 3 -33 29 -14 30
-14 30 11 30 12 13 -13 12 -12 6 -60 6 -60 5 -43 6 -44 33 6 33 7 42 -7 41 -7
14 -21 14 -22 -11 -38 -12 -38 23 -19 23 -19 44 0 45 0 25 17 26 17 -6 37 -6
38 37 10 38 11 43 10 42 11 0 18 0 18 -14 39 -13 39 -7 45 -7 45 13 17 13 17
41 -11 40 -11 27 7 28 7 18 18 19 19 -5 26 -6 27 -23 16 -24 15 -24 -6 -24 -6
-15 -5 -14 -6 -13 31 -13 31 6 59 5 59 -16 -10 -17 -10 -65 -22 -65 -22 0 -35
0 -34 -25 -13 -25 -13 -25 0 -26 0 -22 16 -22 15 0 15 0 14 12 19 12 20 -12
25 -12 26 -26 10 -25 10 -69 0 -68 0 -4 -96z"/>
</g>
</svg>
