<?xml version="1.0" standalone="no"?>
<!DOCTYPE svg PUBLIC "-//W3C//DTD SVG 20010904//EN"
 "http://www.w3.org/TR/2001/REC-SVG-20010904/DTD/svg10.dtd">
<svg version="1.0" xmlns="http://www.w3.org/2000/svg"
 width="68.000000pt" height="65.000000pt" viewBox="0 0 68.000000 65.000000"
 preserveAspectRatio="xMidYMid meet">
<metadata>
Created by potrace 1.16, written by Peter Selinger 2001-2019
</metadata>
<g transform="translate(0.000000,65.000000) scale(0.100000,-0.100000)"
fill="#000000" stroke="none">
<path d="M8 568 l-4 -83 4 -12 4 -13 55 7 55 6 9 -14 9 -14 0 -51 0 -52 -32 2
-31 1 -29 -95 -29 -95 -5 -17 -6 -17 81 2 80 2 17 -16 16 -17 -13 -36 -13 -37
14 -10 15 -9 80 2 80 3 3 28 3 27 17 9 17 8 53 13 52 12 11 20 10 19 -15 46
-16 47 0 38 0 38 74 -6 74 -7 16 26 17 25 -3 49 -3 48 -63 0 -63 0 -9 15 -10
15 0 88 0 89 -27 -6 -28 -5 -58 -7 -57 -6 -8 -12 -7 -11 0 -35 0 -35 -43 -15
-43 -15 -27 16 -27 15 2 20 1 19 7 21 7 21 -17 17 -16 16 -89 0 -88 0 -4 -82z"/>
</g>
</svg>
