<?xml version="1.0" standalone="no"?>
<!DOCTYPE svg PUBLIC "-//W3C//DTD SVG 20010904//EN"
 "http://www.w3.org/TR/2001/REC-SVG-20010904/DTD/svg10.dtd">
<svg version="1.0" xmlns="http://www.w3.org/2000/svg"
 width="65.000000pt" height="51.000000pt" viewBox="0 0 65.000000 51.000000"
 preserveAspectRatio="xMidYMid meet">
<metadata>
Created by potrace 1.16, written by Peter Selinger 2001-2019
</metadata>
<g transform="translate(0.000000,51.000000) scale(0.100000,-0.100000)"
fill="#000000" stroke="none">
<path d="M8 448 l-2 -63 1 -33 0 -33 4 -4 5 -4 35 8 35 8 22 -8 22 -8 10 -26
10 -26 -15 -30 -16 -29 -7 0 -8 0 -10 10 -11 11 -12 -15 -13 -15 -18 -78 -17
-78 -8 -17 -7 -18 111 0 111 0 0 8 0 7 -10 43 -10 43 6 25 6 25 20 10 20 11
20 -19 20 -18 -6 -58 -7 -57 26 -10 26 -10 83 0 83 0 7 102 7 102 11 14 11 13
43 -7 42 -6 12 22 12 22 -7 25 -6 25 -67 -4 -67 -3 2 95 2 96 -87 -29 -87 -28
-9 -9 -9 -9 13 -16 13 -16 -19 -14 -19 -15 -45 3 -45 2 3 57 3 57 -30 15 -30
16 -76 0 -75 0 -2 -62z"/>
</g>
</svg>
