<?xml version="1.0" standalone="no"?>
<!DOCTYPE svg PUBLIC "-//W3C//DTD SVG 20010904//EN"
 "http://www.w3.org/TR/2001/REC-SVG-20010904/DTD/svg10.dtd">
<svg version="1.0" xmlns="http://www.w3.org/2000/svg"
 width="66.000000pt" height="51.000000pt" viewBox="0 0 66.000000 51.000000"
 preserveAspectRatio="xMidYMid meet">
<metadata>
Created by potrace 1.16, written by Peter Selinger 2001-2019
</metadata>
<g transform="translate(0.000000,51.000000) scale(0.100000,-0.100000)"
fill="#000000" stroke="none">
<path d="M0 443 l0 -68 13 -25 13 -25 42 0 42 0 10 -15 10 -15 0 -37 0 -37
-12 -8 -13 -8 -20 0 -20 0 -22 -84 -22 -84 -11 -11 -10 -10 0 -8 0 -8 91 0 90
0 20 11 20 10 -7 56 -7 55 14 9 14 9 33 0 33 0 19 -10 18 -10 -11 -30 -11 -30
11 -11 11 -11 65 -14 65 -13 13 -3 14 -3 0 105 0 105 68 -3 68 -4 14 12 15 12
0 37 0 37 -13 19 -14 18 -7 -11 -7 -12 -32 0 -32 1 -18 13 -18 14 -9 33 -10
34 0 39 0 38 -12 -5 -13 -4 -73 -13 -72 -13 -11 -13 -10 -13 11 -20 10 -21
-20 -20 -20 -20 -26 0 -25 0 -20 11 -20 10 3 62 3 62 -102 3 -103 3 0 -68z"/>
</g>
</svg>
