<?xml version="1.0" standalone="no"?>
<!DOCTYPE svg PUBLIC "-//W3C//DTD SVG 20010904//EN"
 "http://www.w3.org/TR/2001/REC-SVG-20010904/DTD/svg10.dtd">
<svg version="1.0" xmlns="http://www.w3.org/2000/svg"
 width="71.000000pt" height="69.000000pt" viewBox="0 0 71.000000 69.000000"
 preserveAspectRatio="xMidYMid meet">
<metadata>
Created by potrace 1.16, written by Peter Selinger 2001-2019
</metadata>
<g transform="translate(0.000000,69.000000) scale(0.100000,-0.100000)"
fill="#000000" stroke="none">
<path d="M497 683 l-7 -7 6 -61 6 -62 -23 -17 -23 -16 -41 0 -40 0 3 49 4 49
-23 16 -23 16 -83 0 -83 0 0 -69 0 -69 -19 -23 -19 -24 -36 13 -36 13 -21 -6
-20 -7 -10 -25 -9 -24 0 -37 0 -37 19 -24 18 -24 41 6 41 5 5 -16 4 -17 17
-77 16 -77 20 -6 20 -7 72 7 72 7 0 -53 0 -53 25 -14 25 -13 54 4 54 4 19 24
20 23 -6 28 -5 28 22 5 22 5 60 2 60 3 3 80 3 80 -6 34 -6 33 -43 -6 -42 -7
-23 25 -23 24 13 24 12 23 16 12 16 12 49 1 49 0 -7 93 -7 92 -7 7 -7 7 -60
15 -59 16 -31 0 -32 0 -6 -7z"/>
</g>
</svg>
