<?xml version="1.0" standalone="no"?>
<!DOCTYPE svg PUBLIC "-//W3C//DTD SVG 20010904//EN"
 "http://www.w3.org/TR/2001/REC-SVG-20010904/DTD/svg10.dtd">
<svg version="1.0" xmlns="http://www.w3.org/2000/svg"
 width="67.000000pt" height="67.000000pt" viewBox="0 0 67.000000 67.000000"
 preserveAspectRatio="xMidYMid meet">
<metadata>
Created by potrace 1.16, written by Peter Selinger 2001-2019
</metadata>
<g transform="translate(0.000000,67.000000) scale(0.100000,-0.100000)"
fill="#000000" stroke="none">
<path d="M360 650 l-12 -22 4 -61 3 -62 -108 4 -109 4 7 -102 8 -101 -9 0 -9
0 -33 9 -33 10 -25 -9 -24 -10 -11 -23 -11 -24 16 -36 15 -37 45 6 45 7 5 -24
5 -24 5 -64 4 -63 10 -10 9 -9 77 -1 77 0 20 18 21 19 -7 43 -6 43 12 15 11
14 28 0 28 0 12 -15 12 -15 -11 0 -11 0 0 -25 0 -24 58 -16 57 -16 53 -18 52
-19 16 54 15 53 -3 38 -3 38 -15 -4 -15 -4 -26 -4 -26 -5 -32 16 -31 16 -16
25 -16 24 7 31 7 30 19 10 19 11 41 -12 41 -13 9 15 9 14 0 81 0 80 -81 -20
-80 -19 -27 9 -27 10 3 20 4 19 4 35 5 35 -18 35 -18 35 -17 3 -17 3 -11 -21z"/>
</g>
</svg>
