<?xml version="1.0" standalone="no"?>
<!DOCTYPE svg PUBLIC "-//W3C//DTD SVG 20010904//EN"
 "http://www.w3.org/TR/2001/REC-SVG-20010904/DTD/svg10.dtd">
<svg version="1.0" xmlns="http://www.w3.org/2000/svg"
 width="78.000000pt" height="66.000000pt" viewBox="0 0 78.000000 66.000000"
 preserveAspectRatio="xMidYMid meet">
<metadata>
Created by potrace 1.16, written by Peter Selinger 2001-2019
</metadata>
<g transform="translate(0.000000,66.000000) scale(0.100000,-0.100000)"
fill="#000000" stroke="none">
<path d="M356 645 l-15 -16 -12 -38 -11 -38 11 -21 11 -21 0 -6 0 -6 -102 3
-103 3 -5 -80 -5 -80 -37 3 -38 4 -25 -28 -25 -27 0 -28 0 -28 12 -26 12 -27
38 6 38 6 10 -26 10 -25 0 -68 0 -68 46 -7 47 -6 59 0 59 0 -7 45 -6 45 6 25
6 25 25 16 24 16 21 -7 20 -6 10 -19 10 -20 -12 -20 -13 -20 20 -14 20 -15 64
-11 65 -11 32 -14 32 -13 6 45 6 46 0 33 0 33 9 25 10 25 31 -12 32 -12 19 24
19 23 0 33 0 33 -15 12 -15 13 -56 -6 -56 -6 3 97 4 97 -80 3 -79 3 -14 11
-14 12 6 39 7 40 -22 23 -22 24 -28 0 -28 0 -15 -15z"/>
</g>
</svg>
