<?xml version="1.0" standalone="no"?>
<!DOCTYPE svg PUBLIC "-//W3C//DTD SVG 20010904//EN"
 "http://www.w3.org/TR/2001/REC-SVG-20010904/DTD/svg10.dtd">
<svg version="1.0" xmlns="http://www.w3.org/2000/svg"
 width="55.000000pt" height="67.000000pt" viewBox="0 0 55.000000 67.000000"
 preserveAspectRatio="xMidYMid meet">
<metadata>
Created by potrace 1.16, written by Peter Selinger 2001-2019
</metadata>
<g transform="translate(0.000000,67.000000) scale(0.100000,-0.100000)"
fill="#000000" stroke="none">
<path d="M226 657 l-17 -13 10 -27 11 -27 -12 -25 -11 -25 -36 -10 -36 -10
-62 0 -63 0 0 -34 0 -33 -6 -59 -6 -59 64 0 64 0 27 -18 27 -17 0 -36 0 -35
-16 -17 -16 -16 -29 11 -29 11 -7 -11 -8 -12 -21 -70 -21 -70 -8 -17 -7 -18
84 0 84 0 23 16 23 17 -5 48 -6 49 28 0 28 0 19 -21 19 -21 0 -51 0 -52 19 -3
19 -4 83 7 83 7 11 31 12 32 5 75 6 75 -15 13 -15 12 -32 -11 -32 -11 -36 5
-35 6 -19 17 -18 16 5 13 5 13 29 12 29 12 53 -4 53 -3 3 95 2 95 -8 13 -8 12
-95 21 -94 20 -13 13 -14 14 11 20 11 21 -22 15 -22 16 -16 0 -16 0 -18 -13z"/>
</g>
</svg>
