<?xml version="1.0" standalone="no"?>
<!DOCTYPE svg PUBLIC "-//W3C//DTD SVG 20010904//EN"
 "http://www.w3.org/TR/2001/REC-SVG-20010904/DTD/svg10.dtd">
<svg version="1.0" xmlns="http://www.w3.org/2000/svg"
 width="57.000000pt" height="69.000000pt" viewBox="0 0 57.000000 69.000000"
 preserveAspectRatio="xMidYMid meet">
<metadata>
Created by potrace 1.16, written by Peter Selinger 2001-2019
</metadata>
<g transform="translate(0.000000,69.000000) scale(0.100000,-0.100000)"
fill="#000000" stroke="none">
<path d="M227 679 l-19 -11 7 -34 6 -35 -6 -19 -6 -19 -37 -11 -37 -10 -62 0
-63 0 0 -28 0 -29 -6 -76 -7 -76 54 5 54 5 35 -18 35 -18 3 -28 3 -27 -15 -15
-15 -15 -26 12 -26 11 -11 -11 -12 -12 -23 -77 -24 -78 -6 -22 -5 -23 94 0 94
0 23 16 23 16 -4 49 -3 49 16 0 16 0 19 -21 19 -21 0 -52 0 -51 30 -3 30 -4
82 7 82 7 11 31 12 32 5 85 6 85 -16 14 -16 13 -49 -12 -48 -13 -29 14 -29 14
-3 11 -4 11 29 12 28 12 55 -3 54 -3 3 105 2 105 -8 13 -8 12 -94 20 -93 21
-9 5 -9 6 6 28 6 28 -23 16 -22 16 -26 0 -25 -1 -18 -10z"/>
</g>
</svg>
