<?xml version="1.0" standalone="no"?>
<!DOCTYPE svg PUBLIC "-//W3C//DTD SVG 20010904//EN"
 "http://www.w3.org/TR/2001/REC-SVG-20010904/DTD/svg10.dtd">
<svg version="1.0" xmlns="http://www.w3.org/2000/svg"
 width="82.000000pt" height="67.000000pt" viewBox="0 0 82.000000 67.000000"
 preserveAspectRatio="xMidYMid meet">
<metadata>
Created by potrace 1.16, written by Peter Selinger 2001-2019
</metadata>
<g transform="translate(0.000000,67.000000) scale(0.100000,-0.100000)"
fill="#000000" stroke="none">
<path d="M350 656 l-12 -15 4 -63 3 -63 -102 -3 -103 -3 0 -84 0 -85 -21 -21
-21 -21 -44 5 -44 5 -6 -25 -7 -25 17 -16 17 -17 52 2 52 2 25 3 25 3 3 -46 3
-47 -21 -62 -21 -62 4 -4 4 -4 74 -6 74 -6 29 11 28 11 -7 18 -8 17 -5 28 -4
27 16 25 16 25 33 0 33 0 12 -12 11 -11 -6 -43 -5 -42 58 -12 59 -11 30 -6 30
-5 13 -10 12 -10 19 43 20 44 12 50 12 50 9 11 9 12 28 -11 29 -11 16 16 16
17 0 35 0 36 -27 17 -27 18 -63 0 -64 0 7 96 7 95 -74 22 -74 22 -16 0 -17 0
-22 18 -23 18 13 24 13 23 -19 14 -18 13 -27 0 -27 0 -12 -14z"/>
</g>
</svg>
