<?xml version="1.0" standalone="no"?>
<!DOCTYPE svg PUBLIC "-//W3C//DTD SVG 20010904//EN"
 "http://www.w3.org/TR/2001/REC-SVG-20010904/DTD/svg10.dtd">
<svg version="1.0" xmlns="http://www.w3.org/2000/svg"
 width="84.000000pt" height="69.000000pt" viewBox="0 0 84.000000 69.000000"
 preserveAspectRatio="xMidYMid meet">
<metadata>
Created by potrace 1.16, written by Peter Selinger 2001-2019
</metadata>
<g transform="translate(0.000000,69.000000) scale(0.100000,-0.100000)"
fill="#000000" stroke="none">
<path d="M350 675 l-12 -15 3 -62 4 -63 -102 -3 -103 -3 0 -84 0 -85 -21 -21
-21 -21 -44 7 -43 6 -7 -25 -6 -24 4 -18 3 -18 25 -14 25 -13 50 5 50 4 15 4
15 3 3 -36 3 -36 -20 -61 -21 -61 0 -15 0 -14 66 -7 65 -7 41 5 40 5 11 11 10
10 -13 40 -13 40 17 26 16 25 25 0 24 0 7 -12 8 -12 -3 -42 -2 -42 58 -12 58
-11 30 -6 29 -6 19 -11 18 -11 15 20 15 20 20 70 21 70 3 12 4 12 35 -6 35 -5
15 15 16 16 0 45 0 46 -26 17 -27 17 -63 4 -62 4 5 92 6 92 -79 22 -79 23 -25
7 -25 8 3 36 3 37 -20 10 -20 11 -34 0 -35 0 -12 -15z"/>
</g>
</svg>
