<?xml version="1.0" standalone="no"?>
<!DOCTYPE svg PUBLIC "-//W3C//DTD SVG 20010904//EN"
 "http://www.w3.org/TR/2001/REC-SVG-20010904/DTD/svg10.dtd">
<svg version="1.0" xmlns="http://www.w3.org/2000/svg"
 width="84.000000pt" height="54.000000pt" viewBox="0 0 84.000000 54.000000"
 preserveAspectRatio="xMidYMid meet">
<metadata>
Created by potrace 1.16, written by Peter Selinger 2001-2019
</metadata>
<g transform="translate(0.000000,54.000000) scale(0.100000,-0.100000)"
fill="#000000" stroke="none">
<path d="M168 460 l-3 -81 -15 -10 -15 -9 -46 6 -46 6 -22 -28 -21 -27 0 -36
0 -36 9 -14 9 -13 40 7 40 6 10 -33 10 -33 7 -30 7 -30 20 -47 20 -48 89 0 89
0 12 24 11 25 -11 42 -10 41 5 14 5 13 29 6 30 7 24 -16 25 -16 2 -13 1 -12 1
-60 1 -60 112 -1 111 -1 5 26 4 26 18 65 17 65 10 12 10 12 30 -6 30 -6 9 14
9 14 0 51 0 52 -15 12 -15 13 -50 -7 -49 -7 -12 22 -11 22 0 78 0 77 -61 -5
-62 -5 -37 -9 -38 -10 0 -19 0 -19 10 -6 9 -6 -6 -15 -5 -15 -29 -14 -28 -15
-29 0 -28 0 -18 13 -17 13 10 27 11 28 0 14 0 14 -16 15 -15 16 -84 0 -83 0
-4 -80z"/>
</g>
</svg>
