<?xml version="1.0" standalone="no"?>
<!DOCTYPE svg PUBLIC "-//W3C//DTD SVG 20010904//EN"
 "http://www.w3.org/TR/2001/REC-SVG-20010904/DTD/svg10.dtd">
<svg version="1.0" xmlns="http://www.w3.org/2000/svg"
 width="82.000000pt" height="52.000000pt" viewBox="0 0 82.000000 52.000000"
 preserveAspectRatio="xMidYMid meet">
<metadata>
Created by potrace 1.16, written by Peter Selinger 2001-2019
</metadata>
<g transform="translate(0.000000,52.000000) scale(0.100000,-0.100000)"
fill="#000000" stroke="none">
<path d="M170 458 l0 -63 -6 -21 -6 -22 -23 -10 -24 -11 -32 11 -32 11 -24
-27 -23 -27 0 -24 0 -23 6 -16 6 -15 43 6 43 5 10 -33 10 -34 7 -30 7 -30 20
-47 20 -48 79 0 78 0 11 20 11 20 -11 41 -11 40 6 18 6 19 22 6 22 6 21 0 22
0 23 -19 24 -19 0 -69 0 -68 45 -3 45 -4 52 7 52 6 19 52 19 52 7 36 7 37 14
12 15 12 26 -6 27 -7 8 13 9 13 0 41 0 42 -14 11 -14 12 -50 -7 -50 -6 -12 23
-13 23 0 76 -1 76 -70 -7 -71 -7 -17 -7 -18 -7 0 -7 0 -7 11 -11 11 -11 -7
-21 -6 -21 -29 -15 -29 -15 -36 0 -36 0 -21 11 -20 11 5 26 6 27 6 16 6 16
-16 17 -16 16 -75 0 -74 0 0 -62z"/>
</g>
</svg>
