<?xml version="1.0" standalone="no"?>
<!DOCTYPE svg PUBLIC "-//W3C//DTD SVG 20010904//EN"
 "http://www.w3.org/TR/2001/REC-SVG-20010904/DTD/svg10.dtd">
<svg version="1.0" xmlns="http://www.w3.org/2000/svg"
 width="56.000000pt" height="81.000000pt" viewBox="0 0 56.000000 81.000000"
 preserveAspectRatio="xMidYMid meet">
<metadata>
Created by potrace 1.16, written by Peter Selinger 2001-2019
</metadata>
<g transform="translate(0.000000,81.000000) scale(0.100000,-0.100000)"
fill="#000000" stroke="none">
<path d="M260 768 l-20 -43 0 -28 0 -28 11 -21 11 -21 -103 5 -104 6 -12 -5
-13 -5 0 -89 0 -88 68 2 67 2 3 -47 3 -47 -25 -16 -25 -17 -54 7 -55 7 -7 -22
-7 -22 6 -36 7 -37 11 -47 11 -47 75 0 74 0 23 -15 23 -15 7 -20 6 -20 -11
-22 -12 -22 13 -8 14 -9 36 0 37 0 13 17 14 16 0 51 0 51 -5 20 -5 20 35 3 35
3 62 -19 62 -20 5 14 6 14 -16 62 -16 62 -12 18 -11 19 -27 -5 -28 -5 -10 19
-10 19 0 45 0 45 17 16 16 17 31 -7 31 -8 25 -1 25 -1 0 85 0 85 -90 12 -90
11 -3 1 -3 1 6 54 7 53 -27 22 -28 21 -24 0 -24 0 -19 -42z"/>
</g>
</svg>
