<?xml version="1.0" standalone="no"?>
<!DOCTYPE svg PUBLIC "-//W3C//DTD SVG 20010904//EN"
 "http://www.w3.org/TR/2001/REC-SVG-20010904/DTD/svg10.dtd">
<svg version="1.0" xmlns="http://www.w3.org/2000/svg"
 width="58.000000pt" height="83.000000pt" viewBox="0 0 58.000000 83.000000"
 preserveAspectRatio="xMidYMid meet">
<metadata>
Created by potrace 1.16, written by Peter Selinger 2001-2019
</metadata>
<g transform="translate(0.000000,83.000000) scale(0.100000,-0.100000)"
fill="#000000" stroke="none">
<path d="M259 784 l-21 -46 4 -45 3 -46 -91 7 -92 6 -16 -6 -16 -6 0 -100 0
-99 68 3 67 3 3 -37 3 -36 -22 -16 -22 -15 -58 6 -58 6 -7 -27 -6 -27 6 -42 6
-42 12 -47 12 -48 78 0 79 0 24 -24 24 -24 -12 -31 -12 -32 15 -9 15 -10 46 0
47 0 13 17 14 16 0 74 0 73 21 0 22 0 67 -21 68 -21 8 14 9 13 0 12 0 11 -16
63 -16 63 -11 18 -12 18 -31 0 -32 0 -6 16 -6 16 0 33 0 34 16 16 16 16 22 -8
21 -7 35 -1 35 0 0 95 0 95 -90 12 -90 11 -2 1 -2 1 6 53 5 54 -27 21 -28 22
-34 0 -34 0 -20 -46z"/>
</g>
</svg>
