<?xml version="1.0" standalone="no"?>
<!DOCTYPE svg PUBLIC "-//W3C//DTD SVG 20010904//EN"
 "http://www.w3.org/TR/2001/REC-SVG-20010904/DTD/svg10.dtd">
<svg version="1.0" xmlns="http://www.w3.org/2000/svg"
 width="68.000000pt" height="68.000000pt" viewBox="0 0 68.000000 68.000000"
 preserveAspectRatio="xMidYMid meet">
<metadata>
Created by potrace 1.16, written by Peter Selinger 2001-2019
</metadata>
<g transform="translate(0.000000,68.000000) scale(0.100000,-0.100000)"
fill="#000000" stroke="none">
<path d="M201 671 l-13 -9 7 -59 7 -59 -18 -15 -17 -14 -81 -5 -81 -5 -3 -98
-3 -97 69 6 68 7 17 -17 17 -17 0 -23 0 -22 -14 -19 -14 -19 -28 12 -27 13
-16 -16 -16 -15 -21 -83 -21 -82 -7 -17 -8 -18 94 0 94 0 19 14 18 13 -11 44
-12 44 19 25 18 25 21 3 20 3 16 -22 15 -23 -10 -12 -10 -13 10 -20 11 -20 57
-11 58 -12 49 -19 50 -19 2 3 3 3 7 82 7 82 12 16 12 17 18 -10 18 -11 28 10
27 9 12 30 13 29 -6 36 -6 36 -6 6 -5 5 -41 -12 -41 -12 -22 15 -23 15 -7 32
-6 32 0 43 0 44 -7 0 -8 0 -74 -15 -74 -16 -28 6 -28 6 6 83 6 82 -17 17 -17
17 -32 0 -32 0 -14 -9z"/>
</g>
</svg>
