<?xml version="1.0" standalone="no"?>
<!DOCTYPE svg PUBLIC "-//W3C//DTD SVG 20010904//EN"
 "http://www.w3.org/TR/2001/REC-SVG-20010904/DTD/svg10.dtd">
<svg version="1.0" xmlns="http://www.w3.org/2000/svg"
 width="60.000000pt" height="72.000000pt" viewBox="0 0 60.000000 72.000000"
 preserveAspectRatio="xMidYMid meet">
<metadata>
Created by potrace 1.16, written by Peter Selinger 2001-2019
</metadata>
<g transform="translate(0.000000,72.000000) scale(0.100000,-0.100000)"
fill="#000000" stroke="none">
<path d="M260 707 l-25 -13 0 -54 0 -55 -8 -12 -8 -13 -85 0 -84 0 0 -83 0
-84 18 -16 19 -17 50 0 51 0 7 -29 6 -30 -12 -23 -12 -23 -16 -13 -16 -12 -70
2 -70 3 -3 -43 -3 -43 17 -52 17 -52 12 -11 11 -12 89 9 88 8 26 19 26 19 0
57 0 56 32 0 33 0 16 -26 17 -25 -12 -55 -13 -55 12 -14 12 -15 34 0 34 0 69
12 69 12 6 59 6 60 0 46 0 46 -9 14 -9 14 -51 -6 -51 -6 -16 24 -16 25 16 25
17 26 26 10 26 10 28 -6 27 -6 7 11 7 11 -7 89 -7 89 -47 15 -46 15 -57 11
-58 11 -5 9 -6 9 13 21 13 21 -28 25 -28 24 -27 0 -27 0 -25 -13z"/>
</g>
</svg>
