<?xml version="1.0" standalone="no"?>
<!DOCTYPE svg PUBLIC "-//W3C//DTD SVG 20010904//EN"
 "http://www.w3.org/TR/2001/REC-SVG-20010904/DTD/svg10.dtd">
<svg version="1.0" xmlns="http://www.w3.org/2000/svg"
 width="52.000000pt" height="70.000000pt" viewBox="0 0 52.000000 70.000000"
 preserveAspectRatio="xMidYMid meet">
<metadata>
Created by potrace 1.16, written by Peter Selinger 2001-2019
</metadata>
<g transform="translate(0.000000,70.000000) scale(0.100000,-0.100000)"
fill="#000000" stroke="none">
<path d="M208 690 l-17 -10 6 -54 6 -54 -31 -16 -31 -16 -68 0 -69 0 7 -77 8
-78 22 -18 23 -18 20 6 21 5 26 6 26 6 6 -24 7 -23 0 -22 0 -22 -11 -25 -12
-25 -27 -9 -27 -10 -18 11 -18 10 -14 -19 -13 -18 0 -30 0 -31 -7 -53 -6 -53
104 3 104 3 -3 62 -3 62 20 20 21 21 22 -9 23 -8 17 -30 18 -30 1 -24 2 -24
-7 -25 -7 -26 24 -13 24 -13 58 11 58 11 13 11 14 11 0 244 0 243 -10 6 -11 6
-57 5 -57 5 -24 5 -23 5 7 44 6 45 -25 25 -25 25 -38 0 -38 -1 -17 -9z"/>
</g>
</svg>
