<?xml version="1.0" standalone="no"?>
<!DOCTYPE svg PUBLIC "-//W3C//DTD SVG 20010904//EN"
 "http://www.w3.org/TR/2001/REC-SVG-20010904/DTD/svg10.dtd">
<svg version="1.0" xmlns="http://www.w3.org/2000/svg"
 width="67.000000pt" height="70.000000pt" viewBox="0 0 67.000000 70.000000"
 preserveAspectRatio="xMidYMid meet">
<metadata>
Created by potrace 1.16, written by Peter Selinger 2001-2019
</metadata>
<g transform="translate(0.000000,70.000000) scale(0.100000,-0.100000)"
fill="#000000" stroke="none">
<path d="M208 683 l-15 -18 -6 -18 -6 -17 8 -46 9 -46 -97 4 -96 3 -3 -252 -2
-253 77 0 78 1 18 13 17 13 0 22 0 22 -10 19 -10 20 20 20 20 20 29 0 30 0 15
-16 16 -15 0 -32 0 -32 -9 -31 -9 -31 10 -16 9 -17 37 0 37 0 73 22 73 21 -7
16 -6 16 -14 50 -14 50 0 32 0 32 10 6 11 7 14 -12 15 -12 37 7 37 7 27 14 28
14 6 20 6 20 -6 20 -6 20 -20 11 -20 10 -15 -11 -14 -12 -24 6 -23 6 -14 32
-14 33 1 62 0 62 -40 10 -41 10 -53 7 -53 7 -20 16 -21 16 13 27 12 27 -13 16
-12 15 -33 0 -32 0 -15 -17z"/>
</g>
</svg>
