<?xml version="1.0" standalone="no"?>
<!DOCTYPE svg PUBLIC "-//W3C//DTD SVG 20010904//EN"
 "http://www.w3.org/TR/2001/REC-SVG-20010904/DTD/svg10.dtd">
<svg version="1.0" xmlns="http://www.w3.org/2000/svg"
 width="57.000000pt" height="66.000000pt" viewBox="0 0 57.000000 66.000000"
 preserveAspectRatio="xMidYMid meet">
<metadata>
Created by potrace 1.16, written by Peter Selinger 2001-2019
</metadata>
<g transform="translate(0.000000,66.000000) scale(0.100000,-0.100000)"
fill="#000000" stroke="none">
<path d="M38 654 l-8 -7 0 -88 0 -88 10 -6 10 -6 41 12 41 13 15 -20 14 -19
-3 -40 -3 -39 -33 -22 -32 -22 -36 11 -35 11 -10 -15 -10 -14 6 -45 5 -45 12
-51 12 -52 56 5 56 5 33 -17 33 -17 -7 -34 -6 -34 15 -15 15 -15 56 0 56 0 20
11 21 11 -4 46 -3 46 35 9 35 9 57 -5 56 -5 7 82 7 81 -4 25 -3 25 -65 0 -64
0 -14 29 -14 28 11 25 11 25 63 -4 62 -3 3 108 3 107 -12 0 -12 0 -81 -15 -81
-16 -24 -5 -23 -5 6 -43 7 -44 -16 -16 -16 -16 -24 0 -23 0 -16 6 -16 6 6 62
6 62 -17 14 -16 14 -82 4 -82 4 -7 -8z"/>
</g>
</svg>
