<?xml version="1.0" standalone="no"?>
<!DOCTYPE svg PUBLIC "-//W3C//DTD SVG 20010904//EN"
 "http://www.w3.org/TR/2001/REC-SVG-20010904/DTD/svg10.dtd">
<svg version="1.0" xmlns="http://www.w3.org/2000/svg"
 width="55.000000pt" height="64.000000pt" viewBox="0 0 55.000000 64.000000"
 preserveAspectRatio="xMidYMid meet">
<metadata>
Created by potrace 1.16, written by Peter Selinger 2001-2019
</metadata>
<g transform="translate(0.000000,64.000000) scale(0.100000,-0.100000)"
fill="#000000" stroke="none">
<path d="M37 634 l-5 -9 2 -80 1 -80 15 3 15 4 34 5 34 6 13 -18 14 -19 0 -46
0 -47 -17 -15 -18 -15 -23 -12 -23 -12 -32 10 -31 11 -8 -12 -8 -13 5 -35 6
-35 11 -50 11 -50 54 3 54 4 31 -13 30 -12 8 -21 8 -21 -10 -18 -9 -17 15 -15
15 -15 46 0 46 0 20 11 20 10 -3 46 -3 46 34 9 35 10 57 -4 58 -3 6 82 7 83
-5 15 -6 15 -58 -6 -59 -6 -12 15 -13 15 -5 34 -5 33 14 19 13 18 40 -1 39 -1
20 -3 20 -2 3 99 3 98 -28 -7 -28 -7 -55 -9 -55 -10 -22 -4 -23 -5 6 -43 6
-43 -17 -17 -16 -17 -39 0 -39 0 -16 16 -16 17 6 16 7 16 5 35 5 36 -16 13
-17 14 -73 5 -73 4 -6 -8z"/>
</g>
</svg>
