<?xml version="1.0" standalone="no"?>
<!DOCTYPE svg PUBLIC "-//W3C//DTD SVG 20010904//EN"
 "http://www.w3.org/TR/2001/REC-SVG-20010904/DTD/svg10.dtd">
<svg version="1.0" xmlns="http://www.w3.org/2000/svg"
 width="81.000000pt" height="69.000000pt" viewBox="0 0 81.000000 69.000000"
 preserveAspectRatio="xMidYMid meet">
<metadata>
Created by potrace 1.16, written by Peter Selinger 2001-2019
</metadata>
<g transform="translate(0.000000,69.000000) scale(0.100000,-0.100000)"
fill="#000000" stroke="none">
<path d="M150 596 l0 -94 -5 -14 -6 -14 -50 10 -50 10 -17 -10 -17 -11 -3 -45
-3 -45 20 -24 19 -24 33 12 33 13 9 -9 10 -10 10 -92 11 -92 91 6 91 5 0 -67
-1 -68 14 -16 13 -17 59 0 58 0 6 21 7 20 -6 24 -6 24 57 16 58 17 33 10 32
10 10 18 10 19 0 74 0 75 13 10 13 11 14 -9 15 -10 22 0 22 0 20 26 21 27 0
32 0 32 -19 17 -19 17 -41 -2 -41 -3 -11 11 -10 10 0 93 0 92 -77 -7 -77 -8
-24 -9 -24 -8 6 -35 6 -35 -31 -16 -30 -16 -24 6 -23 6 -10 19 -10 18 11 37
12 37 -15 10 -14 9 -97 0 -98 0 0 -94z"/>
</g>
</svg>
