<?xml version="1.0" standalone="no"?>
<!DOCTYPE svg PUBLIC "-//W3C//DTD SVG 20010904//EN"
 "http://www.w3.org/TR/2001/REC-SVG-20010904/DTD/svg10.dtd">
<svg version="1.0" xmlns="http://www.w3.org/2000/svg"
 width="79.000000pt" height="67.000000pt" viewBox="0 0 79.000000 67.000000"
 preserveAspectRatio="xMidYMid meet">
<metadata>
Created by potrace 1.16, written by Peter Selinger 2001-2019
</metadata>
<g transform="translate(0.000000,67.000000) scale(0.100000,-0.100000)"
fill="#000000" stroke="none">
<path d="M150 573 l0 -98 -8 -13 -8 -12 -52 11 -51 12 -16 -13 -15 -12 0 -33
0 -33 17 -21 18 -21 32 12 33 12 11 -11 12 -12 10 -92 11 -92 92 7 93 6 -2
-68 -2 -69 14 -16 13 -17 48 0 48 0 6 15 5 15 -5 30 -6 29 58 16 59 17 33 10
32 10 10 18 10 19 0 74 0 75 15 12 15 12 31 -13 32 -13 23 28 24 27 0 23 0 23
-20 18 -19 17 -34 -6 -33 -6 -18 13 -18 13 0 92 0 92 -66 -6 -67 -7 -23 -8
-23 -9 7 -34 6 -34 -31 -16 -30 -16 -26 0 -25 0 -20 20 -20 20 0 14 0 15 10
27 11 27 -13 9 -13 8 -87 0 -88 0 0 -97z"/>
</g>
</svg>
