<?xml version="1.0" standalone="no"?>
<!DOCTYPE svg PUBLIC "-//W3C//DTD SVG 20010904//EN"
 "http://www.w3.org/TR/2001/REC-SVG-20010904/DTD/svg10.dtd">
<svg version="1.0" xmlns="http://www.w3.org/2000/svg"
 width="70.000000pt" height="57.000000pt" viewBox="0 0 70.000000 57.000000"
 preserveAspectRatio="xMidYMid meet">
<metadata>
Created by potrace 1.16, written by Peter Selinger 2001-2019
</metadata>
<g transform="translate(0.000000,57.000000) scale(0.100000,-0.100000)"
fill="#000000" stroke="none">
<path d="M22 463 l3 -108 68 0 69 0 19 -24 19 -24 -6 -21 -6 -21 -19 -20 -20
-20 -72 0 -72 0 1 -55 2 -55 3 -41 2 -40 86 4 86 4 24 15 24 15 -7 63 -6 63
16 6 16 6 18 0 19 0 17 -17 16 -17 -6 -82 -7 -83 35 -6 35 -7 77 16 77 15 4 5
5 5 9 86 9 86 10 19 10 18 30 -11 31 -12 27 15 27 16 3 56 3 56 -18 17 -17 18
-68 -7 -68 -6 6 81 7 82 -29 -6 -29 -5 -71 -20 -72 -19 -12 -8 -12 -7 6 -34 7
-33 -21 -11 -21 -11 -24 15 -24 16 -10 35 -10 36 6 34 6 35 -107 0 -107 0 3
-107z"/>
</g>
</svg>
