<?xml version="1.0" standalone="no"?>
<!DOCTYPE svg PUBLIC "-//W3C//DTD SVG 20010904//EN"
 "http://www.w3.org/TR/2001/REC-SVG-20010904/DTD/svg10.dtd">
<svg version="1.0" xmlns="http://www.w3.org/2000/svg"
 width="71.000000pt" height="83.000000pt" viewBox="0 0 71.000000 83.000000"
 preserveAspectRatio="xMidYMid meet">
<metadata>
Created by potrace 1.16, written by Peter Selinger 2001-2019
</metadata>
<g transform="translate(0.000000,83.000000) scale(0.100000,-0.100000)"
fill="#000000" stroke="none">
<path d="M379 813 l-14 -16 2 -75 3 -74 -98 3 -97 4 -5 -87 -5 -87 -17 -17
-17 -17 -39 12 -39 13 -18 -3 -19 -4 -7 -30 -8 -29 5 -22 6 -23 20 -18 20 -18
77 0 76 0 -2 -36 -2 -36 -16 -44 -16 -44 -6 -18 -6 -19 99 7 99 7 2 -42 1 -43
20 -26 19 -26 57 -3 56 -3 16 15 15 16 -3 17 -3 17 88 30 88 29 -7 86 -7 86
-7 25 -7 25 -47 0 -48 1 -24 27 -24 28 10 19 10 18 35 -9 36 -10 21 7 22 7 16
15 15 16 3 98 4 98 -21 0 -21 0 0 -9 0 -8 -55 -17 -54 -18 -18 4 -18 3 4 82 3
82 -25 25 -26 26 -44 0 -45 0 -13 -17z"/>
</g>
</svg>
