<?xml version="1.0" standalone="no"?>
<!DOCTYPE svg PUBLIC "-//W3C//DTD SVG 20010904//EN"
 "http://www.w3.org/TR/2001/REC-SVG-20010904/DTD/svg10.dtd">
<svg version="1.0" xmlns="http://www.w3.org/2000/svg"
 width="58.000000pt" height="69.000000pt" viewBox="0 0 58.000000 69.000000"
 preserveAspectRatio="xMidYMid meet">
<metadata>
Created by potrace 1.16, written by Peter Selinger 2001-2019
</metadata>
<g transform="translate(0.000000,69.000000) scale(0.100000,-0.100000)"
fill="#000000" stroke="none">
<path d="M253 680 l-23 -9 0 -10 0 -10 10 -25 10 -26 -12 -24 -11 -25 -16 -7
-16 -7 -75 -6 -74 -6 -7 -25 -7 -25 -1 -86 -1 -87 16 -6 15 -6 45 11 45 12 25
-11 24 -12 0 -15 0 -15 -32 -20 -33 -21 -62 7 -62 6 -6 -33 -6 -34 15 -74 16
-74 5 -5 6 -6 87 -1 88 0 26 17 27 18 3 42 3 43 24 3 23 4 24 -6 24 -6 0 -30
0 -29 38 -10 37 -10 58 -16 58 -16 9 6 10 6 0 88 0 89 -15 12 -16 13 -32 -10
-33 -10 -21 10 -22 10 -11 32 -11 33 6 24 6 25 55 -5 55 -5 20 21 19 21 0 79
0 80 -31 6 -31 6 -63 0 -63 0 -16 6 -15 6 6 44 6 45 -23 24 -23 25 -26 -1 -26
0 -22 -9z"/>
</g>
</svg>
