<?xml version="1.0" standalone="no"?>
<!DOCTYPE svg PUBLIC "-//W3C//DTD SVG 20010904//EN"
 "http://www.w3.org/TR/2001/REC-SVG-20010904/DTD/svg10.dtd">
<svg version="1.0" xmlns="http://www.w3.org/2000/svg"
 width="81.000000pt" height="69.000000pt" viewBox="0 0 81.000000 69.000000"
 preserveAspectRatio="xMidYMid meet">
<metadata>
Created by potrace 1.16, written by Peter Selinger 2001-2019
</metadata>
<g transform="translate(0.000000,69.000000) scale(0.100000,-0.100000)"
fill="#000000" stroke="none">
<path d="M152 683 l-24 -5 4 -91 3 -92 -57 3 -58 4 -10 -27 -10 -26 0 -39 0
-38 6 -16 6 -16 23 0 23 0 23 -68 22 -67 15 -22 14 -23 87 0 86 0 0 -67 0 -67
38 -15 38 -14 37 9 37 9 0 58 -1 57 16 4 15 5 75 6 75 7 7 12 8 11 1 70 1 70
7 25 7 25 53 -3 52 -4 20 18 19 17 0 54 0 54 -15 6 -16 5 -46 -12 -45 -13 -19
24 -19 24 0 73 0 72 -72 0 -73 0 -38 -9 -39 -9 -5 -6 -6 -6 11 -37 11 -36 -11
-21 -11 -21 -11 -7 -11 -8 -26 0 -27 0 -11 13 -10 13 6 51 6 51 -24 15 -24 15
-55 5 -55 5 -23 -5z"/>
</g>
</svg>
