<?xml version="1.0" standalone="no"?>
<!DOCTYPE svg PUBLIC "-//W3C//DTD SVG 20010904//EN"
 "http://www.w3.org/TR/2001/REC-SVG-20010904/DTD/svg10.dtd">
<svg version="1.0" xmlns="http://www.w3.org/2000/svg"
 width="79.000000pt" height="67.000000pt" viewBox="0 0 79.000000 67.000000"
 preserveAspectRatio="xMidYMid meet">
<metadata>
Created by potrace 1.16, written by Peter Selinger 2001-2019
</metadata>
<g transform="translate(0.000000,67.000000) scale(0.100000,-0.100000)"
fill="#000000" stroke="none">
<path d="M152 663 l-23 -5 3 -91 3 -92 -57 3 -58 4 -10 -27 -10 -26 0 -29 0
-28 6 -16 6 -16 23 0 23 0 23 -68 22 -67 15 -23 14 -22 89 0 88 0 -6 -65 -6
-65 38 -16 39 -16 30 9 31 9 -2 57 -2 56 17 5 17 5 75 6 75 7 7 12 8 11 1 70
1 70 7 25 7 25 55 -3 55 -3 18 20 17 19 -3 43 -3 44 -20 -2 -20 -1 -39 -8 -39
-7 -18 24 -19 24 0 73 0 72 -62 0 -63 0 -38 -9 -39 -9 -4 -5 -5 -4 11 -29 11
-28 -5 -22 -6 -23 -16 -15 -15 -16 -38 0 -39 0 -12 15 -12 14 7 50 7 49 -24
15 -23 15 -45 5 -45 4 -23 -4z"/>
</g>
</svg>
