<?xml version="1.0" standalone="no"?>
<!DOCTYPE svg PUBLIC "-//W3C//DTD SVG 20010904//EN"
 "http://www.w3.org/TR/2001/REC-SVG-20010904/DTD/svg10.dtd">
<svg version="1.0" xmlns="http://www.w3.org/2000/svg"
 width="56.000000pt" height="63.000000pt" viewBox="0 0 56.000000 63.000000"
 preserveAspectRatio="xMidYMid meet">
<metadata>
Created by potrace 1.16, written by Peter Selinger 2001-2019
</metadata>
<g transform="translate(0.000000,63.000000) scale(0.100000,-0.100000)"
fill="#000000" stroke="none">
<path d="M40 621 l-35 -6 1 -73 0 -73 15 -14 14 -15 37 12 37 11 15 -12 15
-13 7 -32 6 -33 -16 -38 -16 -38 -45 6 -46 5 -9 -19 -10 -18 0 -75 0 -76 73 0
73 0 18 -13 17 -13 -10 -27 -11 -27 20 -20 20 -20 50 0 51 0 5 15 6 15 -12 15
-12 15 23 8 24 9 40 7 40 7 46 11 45 11 23 49 22 48 -3 43 -3 42 -75 -3 -76
-4 -22 19 -23 18 -5 35 -6 35 11 28 11 28 19 -11 20 -10 28 0 28 0 24 19 24
18 5 76 5 76 -34 6 -34 6 -75 -3 -75 -3 3 -25 2 -25 2 -28 1 -29 -14 -9 -14
-9 -37 0 -37 0 -26 12 -25 11 0 34 0 34 10 20 11 19 -53 -1 -53 -2 -35 -6z"/>
</g>
</svg>
