<?xml version="1.0" standalone="no"?>
<!DOCTYPE svg PUBLIC "-//W3C//DTD SVG 20010904//EN"
 "http://www.w3.org/TR/2001/REC-SVG-20010904/DTD/svg10.dtd">
<svg version="1.0" xmlns="http://www.w3.org/2000/svg"
 width="82.000000pt" height="55.000000pt" viewBox="0 0 82.000000 55.000000"
 preserveAspectRatio="xMidYMid meet">
<metadata>
Created by potrace 1.16, written by Peter Selinger 2001-2019
</metadata>
<g transform="translate(0.000000,55.000000) scale(0.100000,-0.100000)"
fill="#000000" stroke="none">
<path d="M184 542 l-11 -7 -5 -74 -6 -74 -23 -18 -24 -19 -28 0 -28 0 -20 10
-19 11 -11 -28 -11 -28 6 -35 5 -35 23 -18 22 -19 76 4 75 3 3 -42 3 -41 -17
-39 -18 -38 -4 -9 -4 -8 87 3 87 4 20 25 19 24 -6 33 -6 33 36 0 37 0 29 -30
30 -30 -6 -44 -7 -43 29 -5 29 -4 54 11 55 10 -1 30 -1 30 -13 78 -14 78 16
16 16 16 33 -12 33 -11 32 6 33 6 16 18 15 17 -5 16 -6 15 -29 12 -29 12 -32
-11 -32 -11 -14 12 -15 12 4 91 3 91 -45 -9 -45 -9 -35 -7 -35 -7 0 -36 0 -36
-7 -7 -7 -7 -44 -5 -44 -5 -21 11 -20 11 -7 28 -6 29 10 25 10 26 -15 6 -16 6
-71 0 -72 0 -11 -8z"/>
</g>
</svg>
