<?xml version="1.0" standalone="no"?>
<!DOCTYPE svg PUBLIC "-//W3C//DTD SVG 20010904//EN"
 "http://www.w3.org/TR/2001/REC-SVG-20010904/DTD/svg10.dtd">
<svg version="1.0" xmlns="http://www.w3.org/2000/svg"
 width="79.000000pt" height="70.000000pt" viewBox="0 0 79.000000 70.000000"
 preserveAspectRatio="xMidYMid meet">
<metadata>
Created by potrace 1.16, written by Peter Selinger 2001-2019
</metadata>
<g transform="translate(0.000000,70.000000) scale(0.100000,-0.100000)"
fill="#000000" stroke="none">
<path d="M316 684 l-16 -15 0 -17 0 -17 9 -32 9 -32 -19 -17 -19 -17 -73 -1
-72 -1 -3 -60 -2 -60 -5 -23 -6 -23 -50 7 -51 7 -9 -14 -9 -14 0 -56 0 -56 19
-17 19 -18 28 4 27 3 8 -25 8 -25 6 -76 6 -76 111 -7 110 -7 6 5 5 6 -12 38
-13 38 16 37 15 37 23 11 24 10 26 -10 26 -10 -5 -19 -5 -20 11 -20 11 -20 57
-20 58 -20 31 -12 31 -13 15 6 15 5 12 77 11 77 5 8 5 8 19 -5 19 -5 21 12 22
11 -3 67 -3 67 -54 0 -55 0 -8 30 -8 30 7 68 6 67 -7 0 -6 0 -92 16 -93 16
-11 9 -12 10 5 39 6 40 -13 15 -12 15 -54 0 -53 0 -15 -16z"/>
</g>
</svg>
