<?xml version="1.0" standalone="no"?>
<!DOCTYPE svg PUBLIC "-//W3C//DTD SVG 20010904//EN"
 "http://www.w3.org/TR/2001/REC-SVG-20010904/DTD/svg10.dtd">
<svg version="1.0" xmlns="http://www.w3.org/2000/svg"
 width="84.000000pt" height="69.000000pt" viewBox="0 0 84.000000 69.000000"
 preserveAspectRatio="xMidYMid meet">
<metadata>
Created by potrace 1.16, written by Peter Selinger 2001-2019
</metadata>
<g transform="translate(0.000000,69.000000) scale(0.100000,-0.100000)"
fill="#000000" stroke="none">
<path d="M370 675 l-13 -15 5 -45 5 -45 -12 -17 -13 -18 -91 2 -91 2 0 -79 0
-78 -5 -14 -6 -14 -58 4 -58 4 -17 -23 -16 -23 0 -28 0 -27 22 -20 22 -21 31
-6 31 -5 28 3 28 3 11 -17 11 -17 -12 -63 -12 -63 -5 -25 -6 -25 127 -3 126
-3 -5 23 -6 23 -6 40 -7 41 16 13 16 13 24 -6 24 -6 -11 -30 -11 -30 15 -15
15 -15 79 -14 80 -14 27 -7 27 -7 5 24 5 23 8 80 8 80 47 -3 46 -4 21 21 21
21 0 29 0 30 -10 25 -9 25 -26 7 -25 6 -14 -11 -13 -11 -15 5 -15 6 -12 25
-11 25 0 60 0 59 -22 9 -23 9 -65 7 -65 7 -18 13 -18 13 10 7 11 6 0 20 0 20
-25 24 -24 25 -34 0 -35 0 -12 -15z"/>
</g>
</svg>
