<?xml version="1.0" standalone="no"?>
<!DOCTYPE svg PUBLIC "-//W3C//DTD SVG 20010904//EN"
 "http://www.w3.org/TR/2001/REC-SVG-20010904/DTD/svg10.dtd">
<svg version="1.0" xmlns="http://www.w3.org/2000/svg"
 width="68.000000pt" height="67.000000pt" viewBox="0 0 68.000000 67.000000"
 preserveAspectRatio="xMidYMid meet">
<metadata>
Created by potrace 1.16, written by Peter Selinger 2001-2019
</metadata>
<g transform="translate(0.000000,67.000000) scale(0.100000,-0.100000)"
fill="#000000" stroke="none">
<path d="M153 663 l-22 -4 -3 -87 -3 -87 -56 3 -56 3 -7 -23 -6 -23 0 -33 0
-33 11 -22 12 -22 11 -8 11 -7 33 5 32 6 1 -3 1 -3 11 -90 12 -90 91 1 91 2
-1 -55 0 -55 23 -19 23 -19 30 0 29 0 21 11 20 11 -6 29 -5 29 17 8 17 9 85
14 85 13 6 9 6 9 7 92 7 93 -13 27 -12 28 -36 -6 -35 -6 -21 -6 -20 -5 -25 20
-24 21 23 20 23 19 24 -11 24 -11 26 7 26 7 9 25 10 25 0 85 0 84 -17 0 -18 0
-70 -17 -70 -16 -12 -9 -12 -9 -3 -27 -3 -26 -30 -8 -30 -8 -27 6 -27 5 6 44
5 43 -23 15 -24 15 -65 5 -65 5 -22 -5z"/>
</g>
</svg>
