<?xml version="1.0" standalone="no"?>
<!DOCTYPE svg PUBLIC "-//W3C//DTD SVG 20010904//EN"
 "http://www.w3.org/TR/2001/REC-SVG-20010904/DTD/svg10.dtd">
<svg version="1.0" xmlns="http://www.w3.org/2000/svg"
 width="81.000000pt" height="52.000000pt" viewBox="0 0 81.000000 52.000000"
 preserveAspectRatio="xMidYMid meet">
<metadata>
Created by potrace 1.16, written by Peter Selinger 2001-2019
</metadata>
<g transform="translate(0.000000,52.000000) scale(0.100000,-0.100000)"
fill="#000000" stroke="none">
<path d="M188 513 l-28 -4 0 -79 0 -79 -9 -24 -10 -25 -19 -6 -20 -7 -25 12
-26 12 -26 -17 -25 -16 0 -20 0 -20 25 -16 25 -16 29 5 29 6 24 6 25 6 12 -29
12 -30 -8 -76 -9 -77 8 -5 8 -5 68 -6 68 -6 21 12 21 11 -11 35 -10 35 11 24
11 25 36 7 35 6 26 -17 26 -17 -7 -43 -6 -44 21 -11 20 -11 78 3 77 3 18 90
18 90 13 13 13 13 27 -13 28 -12 15 19 15 20 -5 49 -4 48 -12 8 -12 7 -41 -11
-40 -11 -19 24 -19 23 0 70 0 70 -15 -6 -15 -5 -52 -7 -53 -6 -33 -10 -33 -10
6 -17 7 -16 5 -17 5 -18 -16 -25 -16 -25 -39 0 -38 0 -16 18 -17 19 0 26 0 26
9 25 10 24 -14 12 -14 12 -58 3 -58 3 -27 -5z"/>
</g>
</svg>
