<?xml version="1.0" standalone="no"?>
<!DOCTYPE svg PUBLIC "-//W3C//DTD SVG 20010904//EN"
 "http://www.w3.org/TR/2001/REC-SVG-20010904/DTD/svg10.dtd">
<svg version="1.0" xmlns="http://www.w3.org/2000/svg"
 width="83.000000pt" height="54.000000pt" viewBox="0 0 83.000000 54.000000"
 preserveAspectRatio="xMidYMid meet">
<metadata>
Created by potrace 1.16, written by Peter Selinger 2001-2019
</metadata>
<g transform="translate(0.000000,54.000000) scale(0.100000,-0.100000)"
fill="#000000" stroke="none">
<path d="M188 534 l-26 -5 -4 -95 -3 -96 -18 -13 -18 -13 -30 11 -30 12 -27
-16 -27 -15 0 -34 0 -34 27 -15 26 -15 51 10 50 10 11 -25 10 -26 -9 -75 -10
-75 9 -9 8 -8 84 -5 83 -5 19 14 19 15 -12 36 -12 36 10 19 10 20 27 6 26 7
24 -16 24 -15 -6 -44 -6 -44 18 -10 19 -10 91 -4 91 -4 13 80 13 81 8 23 9 22
39 -6 39 -6 11 20 11 21 0 38 0 38 -6 22 -6 22 -16 6 -15 6 -35 -12 -36 -12
-18 23 -18 22 0 70 0 70 -37 -7 -38 -7 -55 -8 -55 -8 -17 -7 -18 -7 0 -15 0
-14 11 -20 10 -20 -16 -25 -15 -24 -29 0 -28 0 -18 20 -19 21 12 46 13 46 -15
15 -14 15 -69 2 -68 3 -27 -4z"/>
</g>
</svg>
