<?xml version="1.0" standalone="no"?>
<!DOCTYPE svg PUBLIC "-//W3C//DTD SVG 20010904//EN"
 "http://www.w3.org/TR/2001/REC-SVG-20010904/DTD/svg10.dtd">
<svg version="1.0" xmlns="http://www.w3.org/2000/svg"
 width="83.000000pt" height="66.000000pt" viewBox="0 0 83.000000 66.000000"
 preserveAspectRatio="xMidYMid meet">
<metadata>
Created by potrace 1.16, written by Peter Selinger 2001-2019
</metadata>
<g transform="translate(0.000000,66.000000) scale(0.100000,-0.100000)"
fill="#000000" stroke="none">
<path d="M147 587 l5 -72 -9 -35 -10 -35 -52 3 -52 4 -15 -12 -14 -12 0 -30 0
-29 35 -15 34 -14 30 0 30 0 6 11 7 10 15 -21 16 -22 -12 -68 -11 -69 0 -25 0
-26 83 0 83 0 18 -13 19 -14 -12 -21 -11 -21 0 -19 0 -20 30 -12 30 -12 34 6
34 7 12 14 13 15 -6 55 -6 55 38 0 37 0 59 -15 58 -16 7 8 6 8 23 97 23 97 11
4 12 4 17 -11 18 -11 22 23 23 22 0 41 0 40 -15 10 -15 10 -73 -4 -72 -4 6
103 7 104 -95 0 -96 0 -13 -16 -13 -16 13 -19 12 -20 -7 -22 -6 -22 -21 -22
-20 -23 -22 0 -21 0 -22 16 -23 16 11 13 11 14 -3 27 -3 27 -25 19 -25 18 -77
5 -76 4 5 -72z"/>
</g>
</svg>
