<?xml version="1.0" standalone="no"?>
<!DOCTYPE svg PUBLIC "-//W3C//DTD SVG 20010904//EN"
 "http://www.w3.org/TR/2001/REC-SVG-20010904/DTD/svg10.dtd">
<svg version="1.0" xmlns="http://www.w3.org/2000/svg"
 width="81.000000pt" height="64.000000pt" viewBox="0 0 81.000000 64.000000"
 preserveAspectRatio="xMidYMid meet">
<metadata>
Created by potrace 1.16, written by Peter Selinger 2001-2019
</metadata>
<g transform="translate(0.000000,64.000000) scale(0.100000,-0.100000)"
fill="#000000" stroke="none">
<path d="M148 565 l4 -70 -9 -35 -10 -35 -58 0 -58 0 -10 -16 -10 -16 6 -16 6
-16 41 -12 40 -12 25 13 25 14 15 -20 16 -19 -5 -50 -5 -50 -7 -47 -7 -48 85
0 84 0 19 -14 20 -14 -14 -37 -13 -37 13 -9 14 -9 22 -6 22 -6 28 14 28 14 -2
62 -3 62 45 0 44 0 48 -10 48 -11 9 -2 9 -2 3 20 3 20 21 82 22 82 20 7 19 6
13 -11 13 -11 18 20 18 20 0 31 0 31 -14 9 -14 10 -73 -5 -74 -6 7 104 7 103
-82 2 -82 2 -14 -12 -14 -12 11 -13 11 -14 -6 -32 -6 -32 -22 -23 -21 -23 -33
0 -32 0 -23 19 -24 19 14 25 14 26 -6 15 -6 15 -24 16 -25 16 -63 2 -64 3 3
-71z"/>
</g>
</svg>
