<?xml version="1.0" standalone="no"?>
<!DOCTYPE svg PUBLIC "-//W3C//DTD SVG 20010904//EN"
 "http://www.w3.org/TR/2001/REC-SVG-20010904/DTD/svg10.dtd">
<svg version="1.0" xmlns="http://www.w3.org/2000/svg"
 width="77.000000pt" height="65.000000pt" viewBox="0 0 77.000000 65.000000"
 preserveAspectRatio="xMidYMid meet">
<metadata>
Created by potrace 1.16, written by Peter Selinger 2001-2019
</metadata>
<g transform="translate(0.000000,65.000000) scale(0.100000,-0.100000)"
fill="#000000" stroke="none">
<path d="M172 643 l-32 -4 2 -92 3 -92 -10 1 -10 2 -38 6 -37 7 -25 -25 -25
-25 0 -24 0 -23 11 -11 12 -12 17 11 17 11 16 -6 15 -6 12 -58 11 -58 15 -53
15 -54 72 2 72 2 11 -1 12 -1 -5 -44 -5 -45 27 -25 28 -26 36 0 36 1 18 14 19
14 -7 29 -6 30 32 11 32 11 18 0 18 0 49 11 50 10 5 22 6 22 23 65 23 65 9 13
8 14 25 -5 24 -4 -3 55 -3 56 -27 16 -27 15 -33 -13 -32 -12 -8 13 -9 12 7 88
6 88 -83 -3 -84 -3 3 -41 3 -41 -23 -27 -23 -26 -31 -6 -32 -6 -21 21 -21 21
0 19 0 20 10 6 10 6 0 18 0 19 -14 11 -13 11 -59 4 -59 4 -33 -5z"/>
</g>
</svg>
