<?xml version="1.0" standalone="no"?>
<!DOCTYPE svg PUBLIC "-//W3C//DTD SVG 20010904//EN"
 "http://www.w3.org/TR/2001/REC-SVG-20010904/DTD/svg10.dtd">
<svg version="1.0" xmlns="http://www.w3.org/2000/svg"
 width="79.000000pt" height="67.000000pt" viewBox="0 0 79.000000 67.000000"
 preserveAspectRatio="xMidYMid meet">
<metadata>
Created by potrace 1.16, written by Peter Selinger 2001-2019
</metadata>
<g transform="translate(0.000000,67.000000) scale(0.100000,-0.100000)"
fill="#000000" stroke="none">
<path d="M171 663 l-33 -4 7 -91 7 -90 -51 7 -50 7 -26 -26 -25 -25 0 -34 0
-35 16 -13 16 -13 19 12 20 13 9 -6 9 -5 11 -58 11 -57 15 -53 15 -52 79 0 80
0 0 -45 0 -46 26 -24 27 -25 46 0 46 1 19 14 18 14 -4 30 -4 30 29 11 30 10
18 0 18 0 49 11 50 10 5 22 6 22 23 65 23 65 8 13 8 12 25 -6 24 -6 0 66 0 66
-25 16 -24 16 -43 -4 -43 -3 4 93 3 93 -93 -3 -94 -3 0 -46 0 -46 -15 -17 -14
-18 -23 -9 -23 -8 -15 5 -16 6 -10 20 -11 20 11 11 11 11 0 27 0 27 -14 11
-14 12 -69 4 -68 3 -34 -5z"/>
</g>
</svg>
