<?xml version="1.0" standalone="no"?>
<!DOCTYPE svg PUBLIC "-//W3C//DTD SVG 20010904//EN"
 "http://www.w3.org/TR/2001/REC-SVG-20010904/DTD/svg10.dtd">
<svg version="1.0" xmlns="http://www.w3.org/2000/svg"
 width="57.000000pt" height="66.000000pt" viewBox="0 0 57.000000 66.000000"
 preserveAspectRatio="xMidYMid meet">
<metadata>
Created by potrace 1.16, written by Peter Selinger 2001-2019
</metadata>
<g transform="translate(0.000000,66.000000) scale(0.100000,-0.100000)"
fill="#000000" stroke="none">
<path d="M220 651 l-25 -8 3 -13 3 -14 5 -25 5 -26 -15 -20 -14 -20 -86 -4
-86 -3 0 -87 0 -86 9 -14 9 -14 61 13 61 13 14 -12 14 -12 5 -25 4 -25 -26
-20 -26 -21 -53 6 -52 6 -10 -24 -9 -24 -1 -83 -1 -84 0 -10 1 -10 91 5 92 5
11 17 11 17 -12 31 -11 30 21 15 21 15 32 0 31 0 17 -18 16 -19 -5 -29 -6 -29
9 -12 8 -13 85 -4 84 -3 15 -7 16 -6 17 77 17 78 0 30 0 30 -10 15 -9 14 -36
-13 -35 -12 -38 18 -37 18 0 45 0 45 15 -2 15 -2 27 -7 27 -6 22 21 22 20 5
74 4 73 -91 -15 -92 -15 -17 11 -17 11 3 54 3 55 -27 22 -27 21 -16 -1 -16 -1
-25 -7z"/>
</g>
</svg>
