<?xml version="1.0" standalone="no"?>
<!DOCTYPE svg PUBLIC "-//W3C//DTD SVG 20010904//EN"
 "http://www.w3.org/TR/2001/REC-SVG-20010904/DTD/svg10.dtd">
<svg version="1.0" xmlns="http://www.w3.org/2000/svg"
 width="53.000000pt" height="65.000000pt" viewBox="0 0 53.000000 65.000000"
 preserveAspectRatio="xMidYMid meet">
<metadata>
Created by potrace 1.16, written by Peter Selinger 2001-2019
</metadata>
<g transform="translate(0.000000,65.000000) scale(0.100000,-0.100000)"
fill="#000000" stroke="none">
<path d="M214 625 l-26 -26 4 -47 3 -47 -95 0 -95 0 -3 -84 -3 -84 9 -9 9 -9
46 12 45 13 15 -12 15 -12 6 -30 6 -30 -10 -25 -10 -25 -39 6 -39 6 -11 -38
-11 -39 0 -15 0 -16 -14 -52 -13 -52 21 -6 21 -5 80 3 80 3 -3 47 -4 46 21 21
21 21 19 0 19 0 15 -6 14 -5 -4 -23 -5 -22 14 -11 13 -11 84 -21 85 -21 13 0
14 0 -10 18 -9 17 -12 62 -13 63 -12 17 -13 17 -26 -12 -26 -11 -10 19 -10 19
0 31 0 31 25 25 26 26 17 -8 17 -7 26 -4 27 -5 7 32 7 32 -7 64 -7 64 -84 0
-85 0 -20 11 -21 11 7 38 7 38 -21 21 -21 21 -20 0 -21 0 -25 -25z"/>
</g>
</svg>
