<?xml version="1.0" standalone="no"?>
<!DOCTYPE svg PUBLIC "-//W3C//DTD SVG 20010904//EN"
 "http://www.w3.org/TR/2001/REC-SVG-20010904/DTD/svg10.dtd">
<svg version="1.0" xmlns="http://www.w3.org/2000/svg"
 width="69.000000pt" height="82.000000pt" viewBox="0 0 69.000000 82.000000"
 preserveAspectRatio="xMidYMid meet">
<metadata>
Created by potrace 1.16, written by Peter Selinger 2001-2019
</metadata>
<g transform="translate(0.000000,82.000000) scale(0.100000,-0.100000)"
fill="#000000" stroke="none">
<path d="M211 804 l-23 -16 4 -55 3 -55 -92 6 -93 7 0 -93 0 -94 16 -23 16
-23 45 4 46 3 10 -17 11 -16 -13 -16 -13 -16 -53 6 -52 6 -9 -13 -9 -14 0
-108 -1 -108 7 -10 6 -11 35 10 36 10 41 -8 41 -7 14 -12 15 -13 -6 -49 -6
-49 13 -15 12 -15 47 0 46 0 11 8 11 7 12 23 12 23 -3 41 -3 42 40 9 40 9 61
-5 60 -4 35 111 36 111 34 0 34 0 3 47 3 47 -26 17 -25 17 -40 -6 -39 -5 -12
14 -11 14 4 89 4 89 -80 17 -81 17 -12 10 -13 10 6 24 6 24 -27 10 -26 10 -42
0 -43 0 -23 -16z"/>
</g>
</svg>
