<?xml version="1.0" standalone="no"?>
<!DOCTYPE svg PUBLIC "-//W3C//DTD SVG 20010904//EN"
 "http://www.w3.org/TR/2001/REC-SVG-20010904/DTD/svg10.dtd">
<svg version="1.0" xmlns="http://www.w3.org/2000/svg"
 width="67.000000pt" height="82.000000pt" viewBox="0 0 67.000000 82.000000"
 preserveAspectRatio="xMidYMid meet">
<metadata>
Created by potrace 1.16, written by Peter Selinger 2001-2019
</metadata>
<g transform="translate(0.000000,82.000000) scale(0.100000,-0.100000)"
fill="#000000" stroke="none">
<path d="M365 813 l-20 -5 -19 -17 -18 -16 5 -49 4 -49 -91 7 -91 7 0 -85 0
-85 -20 -21 -21 -20 -31 12 -31 12 -16 -13 -16 -13 0 -48 0 -47 20 -18 19 -18
50 7 49 6 6 -17 7 -17 -7 -84 -7 -85 54 6 54 6 35 -12 35 -13 -3 -19 -3 -20
-5 -35 -6 -36 16 -13 16 -14 56 -1 56 0 19 24 20 25 -5 69 -5 69 52 -6 52 -7
43 -6 44 -7 -7 76 -7 75 -7 34 -7 33 -44 1 -45 2 -12 1 -12 1 -11 19 -10 20 6
15 6 15 55 -2 55 -2 20 26 20 27 5 85 6 86 -24 5 -24 6 -80 2 -80 3 3 46 3 45
-13 11 -13 11 -30 5 -30 5 -20 -5z"/>
</g>
</svg>
