<?xml version="1.0" standalone="no"?>
<!DOCTYPE svg PUBLIC "-//W3C//DTD SVG 20010904//EN"
 "http://www.w3.org/TR/2001/REC-SVG-20010904/DTD/svg10.dtd">
<svg version="1.0" xmlns="http://www.w3.org/2000/svg"
 width="65.000000pt" height="80.000000pt" viewBox="0 0 65.000000 80.000000"
 preserveAspectRatio="xMidYMid meet">
<metadata>
Created by potrace 1.16, written by Peter Selinger 2001-2019
</metadata>
<g transform="translate(0.000000,80.000000) scale(0.100000,-0.100000)"
fill="#000000" stroke="none">
<path d="M365 792 l-20 -4 -18 -16 -19 -17 5 -30 4 -30 8 -19 8 -19 -99 6 -99
6 0 -84 0 -84 -22 -23 -23 -22 -32 12 -31 12 -14 -11 -13 -11 0 -38 0 -37 20
-18 21 -19 42 12 42 11 13 -17 14 -17 -7 -88 -7 -88 44 6 44 7 42 -11 41 -12
7 -10 6 -11 -12 -44 -13 -45 15 -16 15 -15 48 0 47 -1 20 24 19 24 -5 50 -4
50 -4 15 -3 15 55 0 55 0 43 -9 43 -8 -7 64 -6 63 -7 35 -7 35 -53 0 -53 0
-14 19 -14 20 0 17 0 18 16 16 17 16 16 -7 16 -7 29 -1 29 -1 19 26 19 25 6
77 6 76 -24 5 -24 6 -80 2 -80 3 0 45 0 45 -7 11 -8 12 -22 4 -23 4 -20 -4z"/>
</g>
</svg>
