<?xml version="1.0" standalone="no"?>
<!DOCTYPE svg PUBLIC "-//W3C//DTD SVG 20010904//EN"
 "http://www.w3.org/TR/2001/REC-SVG-20010904/DTD/svg10.dtd">
<svg version="1.0" xmlns="http://www.w3.org/2000/svg"
 width="83.000000pt" height="66.000000pt" viewBox="0 0 83.000000 66.000000"
 preserveAspectRatio="xMidYMid meet">
<metadata>
Created by potrace 1.16, written by Peter Selinger 2001-2019
</metadata>
<g transform="translate(0.000000,66.000000) scale(0.100000,-0.100000)"
fill="#000000" stroke="none">
<path d="M330 640 l-20 -20 0 -7 1 -8 8 -44 9 -43 -96 7 -95 7 7 -70 7 -70 -7
-27 -7 -27 -21 7 -21 7 -22 5 -22 5 -25 -25 -26 -26 0 -44 0 -43 14 -19 14
-19 26 12 26 11 9 -17 9 -17 12 -60 13 -60 1 -25 1 -25 92 -3 92 -3 35 15 36
15 0 50 0 51 19 0 20 0 14 -15 15 -15 -11 -30 -12 -31 11 -17 11 -17 105 -3
106 -3 15 38 15 38 12 60 12 60 10 12 10 13 38 -6 38 -6 11 20 11 21 0 30 0
30 -17 16 -17 17 -68 -4 -68 -5 0 98 0 98 -18 10 -17 9 -65 17 -65 17 -12 10
-13 10 6 23 5 22 -23 7 -23 6 -42 0 -43 0 -20 -20z"/>
</g>
</svg>
