<?xml version="1.0" standalone="no"?>
<!DOCTYPE svg PUBLIC "-//W3C//DTD SVG 20010904//EN"
 "http://www.w3.org/TR/2001/REC-SVG-20010904/DTD/svg10.dtd">
<svg version="1.0" xmlns="http://www.w3.org/2000/svg"
 width="83.000000pt" height="67.000000pt" viewBox="0 0 83.000000 67.000000"
 preserveAspectRatio="xMidYMid meet">
<metadata>
Created by potrace 1.16, written by Peter Selinger 2001-2019
</metadata>
<g transform="translate(0.000000,67.000000) scale(0.100000,-0.100000)"
fill="#000000" stroke="none">
<path d="M330 632 l0 -39 -21 -19 -20 -18 -69 -4 -69 -4 -3 -87 -3 -86 -25 1
-25 1 -31 8 -31 7 -16 -17 -17 -16 0 -45 0 -45 10 -19 10 -19 28 5 27 5 11
-19 12 -18 16 -63 16 -63 -5 -9 -6 -9 12 -12 11 -13 90 3 89 3 6 15 5 14 -11
32 -11 32 12 12 13 12 32 7 32 6 21 -33 20 -33 -2 -50 -3 -50 43 -3 43 -3 73
21 73 22 0 12 -1 11 8 60 9 60 8 24 9 23 18 -7 17 -8 24 2 25 1 20 22 21 23 0
43 0 43 -15 9 -15 10 -15 -7 -15 -6 -36 -5 -37 -4 -16 23 -16 23 0 77 0 77
-27 6 -28 6 -75 10 -75 10 -12 17 -12 16 9 17 9 17 -11 11 -12 12 -48 0 -48 0
0 -38z"/>
</g>
</svg>
