<?xml version="1.0" standalone="no"?>
<!DOCTYPE svg PUBLIC "-//W3C//DTD SVG 20010904//EN"
 "http://www.w3.org/TR/2001/REC-SVG-20010904/DTD/svg10.dtd">
<svg version="1.0" xmlns="http://www.w3.org/2000/svg"
 width="69.000000pt" height="79.000000pt" viewBox="0 0 69.000000 79.000000"
 preserveAspectRatio="xMidYMid meet">
<metadata>
Created by potrace 1.16, written by Peter Selinger 2001-2019
</metadata>
<g transform="translate(0.000000,79.000000) scale(0.100000,-0.100000)"
fill="#000000" stroke="none">
<path d="M366 771 l-18 -20 7 -39 6 -39 -16 -17 -16 -16 -79 0 -78 0 -4 -88
-3 -88 -15 -15 -15 -15 -17 -6 -17 -7 -37 11 -38 10 -13 -18 -13 -18 0 -14 0
-14 30 -30 30 -30 39 7 39 6 7 -10 6 -11 9 -88 10 -87 0 0 0 -1 75 -1 75 -1
26 -17 26 -17 -5 -21 -4 -22 -8 -17 -7 -18 28 -11 29 -10 42 6 41 6 11 13 11
13 -5 15 -6 15 13 10 13 10 77 18 77 18 6 51 6 51 -3 65 -3 65 -62 -3 -62 -3
-11 20 -11 21 11 19 10 19 34 12 35 11 20 -10 20 -11 10 0 11 0 0 68 0 67 -6
36 -6 36 -61 -19 -62 -19 -45 3 -45 3 3 54 4 54 -18 38 -17 39 -27 0 -27 0
-17 -19z"/>
</g>
</svg>
