<?xml version="1.0" standalone="no"?>
<!DOCTYPE svg PUBLIC "-//W3C//DTD SVG 20010904//EN"
 "http://www.w3.org/TR/2001/REC-SVG-20010904/DTD/svg10.dtd">
<svg version="1.0" xmlns="http://www.w3.org/2000/svg"
 width="71.000000pt" height="68.000000pt" viewBox="0 0 71.000000 68.000000"
 preserveAspectRatio="xMidYMid meet">
<metadata>
Created by potrace 1.16, written by Peter Selinger 2001-2019
</metadata>
<g transform="translate(0.000000,68.000000) scale(0.100000,-0.100000)"
fill="#000000" stroke="none">
<path d="M191 671 l-13 -9 7 -31 6 -31 -6 -20 -6 -20 -29 -15 -29 -15 -61 0
-60 0 0 -99 0 -99 15 -12 15 -13 38 7 38 6 22 -16 22 -15 0 -24 0 -24 -37 -3
-37 -3 -27 -89 -28 -89 -10 -10 -11 -11 0 -18 0 -19 118 3 117 3 0 59 0 59 20
7 20 7 25 -7 24 -6 7 -33 7 -32 5 -6 6 -5 82 -19 82 -19 18 5 19 6 0 53 0 53
6 31 6 30 52 -5 53 -5 21 27 22 28 0 41 0 42 -14 19 -13 18 -61 -6 -61 -7 -11
20 -10 19 0 77 0 76 -27 -6 -28 -6 -66 -12 -66 -11 -15 5 -15 6 5 71 5 71 -13
15 -12 15 -52 0 -51 0 -14 -9z"/>
</g>
</svg>
