<?xml version="1.0" standalone="no"?>
<!DOCTYPE svg PUBLIC "-//W3C//DTD SVG 20010904//EN"
 "http://www.w3.org/TR/2001/REC-SVG-20010904/DTD/svg10.dtd">
<svg version="1.0" xmlns="http://www.w3.org/2000/svg"
 width="57.000000pt" height="83.000000pt" viewBox="0 0 57.000000 83.000000"
 preserveAspectRatio="xMidYMid meet">
<metadata>
Created by potrace 1.16, written by Peter Selinger 2001-2019
</metadata>
<g transform="translate(0.000000,83.000000) scale(0.100000,-0.100000)"
fill="#000000" stroke="none">
<path d="M211 814 l-23 -16 6 -37 6 -36 3 -20 2 -20 -95 -5 -95 -5 0 -103 0
-104 20 -14 20 -15 25 4 25 4 16 7 16 7 23 -19 22 -18 -16 -16 -16 -17 -54 6
-55 6 -6 -24 -5 -24 -9 -80 -9 -80 -7 -23 -7 -23 89 3 90 3 15 -13 15 -12 -10
-39 -10 -38 6 -17 6 -16 26 -10 26 -10 38 0 38 0 28 22 27 21 -4 69 -4 68 30
0 30 0 58 -16 59 -17 4 5 4 4 7 94 6 95 -15 19 -15 20 -42 -13 -42 -12 -19 17
-20 18 3 30 3 31 45 -3 46 -3 18 20 19 21 5 76 5 75 -13 24 -12 23 -67 12 -66
12 -38 9 -38 10 6 33 7 33 -17 16 -16 17 -37 0 -38 0 -23 -16z"/>
</g>
</svg>
