<?xml version="1.0" standalone="no"?>
<!DOCTYPE svg PUBLIC "-//W3C//DTD SVG 20010904//EN"
 "http://www.w3.org/TR/2001/REC-SVG-20010904/DTD/svg10.dtd">
<svg version="1.0" xmlns="http://www.w3.org/2000/svg"
 width="55.000000pt" height="81.000000pt" viewBox="0 0 55.000000 81.000000"
 preserveAspectRatio="xMidYMid meet">
<metadata>
Created by potrace 1.16, written by Peter Selinger 2001-2019
</metadata>
<g transform="translate(0.000000,81.000000) scale(0.100000,-0.100000)"
fill="#000000" stroke="none">
<path d="M209 791 l-23 -18 13 -41 14 -41 -6 -15 -6 -15 -93 -3 -93 -3 -3 -65
-3 -65 6 -32 6 -33 20 -10 20 -11 33 12 34 12 26 -17 26 -16 0 -15 0 -14 -16
-16 -17 -16 -52 6 -52 7 -6 -16 -7 -17 -6 -82 -7 -82 -9 -17 -9 -18 90 3 90 2
16 -16 17 -16 -13 -42 -12 -42 15 -16 16 -15 43 -5 44 -5 29 23 29 23 -6 68
-6 68 43 0 43 0 48 -15 49 -14 2 2 3 2 6 85 7 85 -14 17 -13 17 -42 -11 -42
-12 -21 19 -20 18 0 37 0 38 13 11 14 11 31 -12 32 -12 21 21 21 21 5 66 6 67
-13 24 -12 23 -67 12 -66 12 -39 10 -38 9 5 35 6 34 -15 15 -15 15 -29 0 -28
0 -23 -19z"/>
</g>
</svg>
