<?xml version="1.0" standalone="no"?>
<!DOCTYPE svg PUBLIC "-//W3C//DTD SVG 20010904//EN"
 "http://www.w3.org/TR/2001/REC-SVG-20010904/DTD/svg10.dtd">
<svg version="1.0" xmlns="http://www.w3.org/2000/svg"
 width="59.000000pt" height="80.000000pt" viewBox="0 0 59.000000 80.000000"
 preserveAspectRatio="xMidYMid meet">
<metadata>
Created by potrace 1.16, written by Peter Selinger 2001-2019
</metadata>
<g transform="translate(0.000000,80.000000) scale(0.100000,-0.100000)"
fill="#000000" stroke="none">
<path d="M230 780 l-20 -20 0 -18 0 -17 9 -33 10 -32 -26 -6 -25 -7 -68 6 -68
6 -7 -36 -6 -35 6 -31 6 -32 11 -28 11 -27 23 -6 24 -6 14 12 15 11 20 -10 20
-11 6 -20 6 -20 -6 -20 -6 -20 -28 -14 -27 -14 -37 -7 -37 -7 -15 12 -14 12
-11 -7 -10 -6 0 -32 0 -32 11 -40 10 -40 11 -27 10 -28 89 7 88 6 -9 -33 -10
-34 10 -38 11 -38 19 -10 19 -10 38 0 39 0 22 16 23 16 -3 36 -3 36 75 18 75
19 12 1 11 1 21 64 21 63 0 23 0 22 -8 11 -7 12 -72 -2 -71 -1 -26 24 -26 24
0 29 0 28 27 11 28 10 35 -6 35 -6 23 -6 22 -5 0 110 0 111 -57 6 -58 6 -48 5
-47 6 -11 20 -10 19 11 14 11 14 -10 19 -10 20 -17 6 -16 6 -19 0 -19 0 -20
-20z"/>
</g>
</svg>
