<?xml version="1.0" standalone="no"?>
<!DOCTYPE svg PUBLIC "-//W3C//DTD SVG 20010904//EN"
 "http://www.w3.org/TR/2001/REC-SVG-20010904/DTD/svg10.dtd">
<svg version="1.0" xmlns="http://www.w3.org/2000/svg"
 width="61.000000pt" height="82.000000pt" viewBox="0 0 61.000000 82.000000"
 preserveAspectRatio="xMidYMid meet">
<metadata>
Created by potrace 1.16, written by Peter Selinger 2001-2019
</metadata>
<g transform="translate(0.000000,82.000000) scale(0.100000,-0.100000)"
fill="#000000" stroke="none">
<path d="M229 799 l-21 -21 4 -51 3 -52 -87 2 -87 2 -6 -44 -7 -43 7 -34 6
-33 11 -27 10 -27 20 -7 20 -6 33 6 34 7 10 -20 11 -20 -6 -16 -6 -16 -27 -13
-26 -13 -27 -7 -28 -6 -19 11 -18 12 -17 -6 -16 -6 0 -43 0 -43 11 -40 10 -40
11 -28 11 -29 85 8 84 7 -7 -31 -6 -30 11 -41 11 -41 19 -10 19 -10 48 0 49 0
22 16 23 16 -3 36 -3 37 87 19 86 19 21 64 21 63 0 33 0 32 -8 12 -8 13 -71
-3 -71 -2 -26 24 -26 24 0 19 0 18 25 10 26 10 42 -10 42 -10 18 0 17 0 0 119
0 120 -57 6 -58 5 -50 8 -50 7 0 43 0 44 -19 14 -20 14 -33 0 -33 0 -21 -21z"/>
</g>
</svg>
