<?xml version="1.0" standalone="no"?>
<!DOCTYPE svg PUBLIC "-//W3C//DTD SVG 20010904//EN"
 "http://www.w3.org/TR/2001/REC-SVG-20010904/DTD/svg10.dtd">
<svg version="1.0" xmlns="http://www.w3.org/2000/svg"
 width="58.000000pt" height="85.000000pt" viewBox="0 0 58.000000 85.000000"
 preserveAspectRatio="xMidYMid meet">
<metadata>
Created by potrace 1.16, written by Peter Selinger 2001-2019
</metadata>
<g transform="translate(0.000000,85.000000) scale(0.100000,-0.100000)"
fill="#000000" stroke="none">
<path d="M255 837 l-18 -14 6 -49 7 -49 -10 -15 -9 -15 -93 -5 -93 -5 -3 -82
-3 -83 11 -21 12 -21 51 4 51 3 10 -27 10 -28 -24 -25 -25 -26 -62 7 -62 6 -7
-26 -6 -27 13 -79 12 -79 21 -5 21 -6 53 0 53 0 34 -14 34 -14 -6 -58 -6 -57
18 -13 19 -14 56 0 57 0 17 19 16 18 -2 34 -3 33 63 18 64 17 25 16 25 17 -6
26 -5 27 -12 70 -12 70 -10 13 -11 14 -34 -4 -34 -4 -9 25 -10 24 5 14 5 13
44 -6 45 -6 21 21 21 21 0 104 0 104 -47 20 -48 20 -37 7 -37 7 -11 14 -12 13
7 21 7 21 -12 14 -12 15 -52 0 -52 0 -19 -13z"/>
</g>
</svg>
