<?xml version="1.0" standalone="no"?>
<!DOCTYPE svg PUBLIC "-//W3C//DTD SVG 20010904//EN"
 "http://www.w3.org/TR/2001/REC-SVG-20010904/DTD/svg10.dtd">
<svg version="1.0" xmlns="http://www.w3.org/2000/svg"
 width="56.000000pt" height="83.000000pt" viewBox="0 0 56.000000 83.000000"
 preserveAspectRatio="xMidYMid meet">
<metadata>
Created by potrace 1.16, written by Peter Selinger 2001-2019
</metadata>
<g transform="translate(0.000000,83.000000) scale(0.100000,-0.100000)"
fill="#000000" stroke="none">
<path d="M255 816 l-19 -14 10 -45 11 -44 -14 -19 -14 -19 -92 -5 -92 -5 -3
-72 -3 -73 12 -21 11 -21 48 6 49 7 10 -20 11 -20 0 -24 0 -24 -25 -23 -24
-23 -60 7 -60 7 -7 -25 -6 -24 13 -59 13 -58 1 -10 0 -10 15 -7 15 -7 58 0 58
-1 35 -15 35 -14 -7 -60 -6 -59 20 -11 21 -11 44 0 44 0 17 19 18 19 -12 22
-11 21 11 14 12 14 54 12 54 12 31 19 31 19 -6 15 -6 16 -12 72 -11 71 -10 13
-10 13 -35 -3 -35 -3 -9 28 -10 28 6 25 7 26 17 -7 17 -6 26 -6 27 -5 21 21
21 21 0 94 0 94 -47 20 -48 20 -35 7 -35 7 -13 11 -13 10 3 26 2 26 -7 13 -8
12 -43 0 -42 0 -19 -14z"/>
</g>
</svg>
