<?xml version="1.0" standalone="no"?>
<!DOCTYPE svg PUBLIC "-//W3C//DTD SVG 20010904//EN"
 "http://www.w3.org/TR/2001/REC-SVG-20010904/DTD/svg10.dtd">
<svg version="1.0" xmlns="http://www.w3.org/2000/svg"
 width="69.000000pt" height="81.000000pt" viewBox="0 0 69.000000 81.000000"
 preserveAspectRatio="xMidYMid meet">
<metadata>
Created by potrace 1.16, written by Peter Selinger 2001-2019
</metadata>
<g transform="translate(0.000000,81.000000) scale(0.100000,-0.100000)"
fill="#000000" stroke="none">
<path d="M367 799 l-19 -11 6 -46 6 -47 -9 -15 -10 -15 -86 1 -85 0 0 -92 0
-93 -20 -11 -20 -11 -19 11 -20 10 -24 0 -24 0 -22 -24 -23 -24 6 -20 7 -20
35 -17 36 -17 61 4 62 3 3 -41 3 -42 -19 -56 -19 -56 5 -5 5 -5 66 0 66 0 25
-13 25 -13 0 -59 0 -59 25 -7 25 -7 25 6 25 5 19 16 18 16 -6 42 -5 42 9 6 10
6 88 9 87 10 3 0 3 0 -10 19 -11 19 -6 58 -7 59 -9 24 -8 23 -31 -6 -31 -6
-19 11 -20 10 -10 26 -10 26 6 18 6 19 58 -6 58 -7 17 24 16 23 0 81 0 80 -8
11 -7 10 -75 13 -75 12 -28 11 -29 11 6 30 6 30 -11 13 -11 14 -32 0 -31 -1
-18 -10z"/>
</g>
</svg>
