<?xml version="1.0" standalone="no"?>
<!DOCTYPE svg PUBLIC "-//W3C//DTD SVG 20010904//EN"
 "http://www.w3.org/TR/2001/REC-SVG-20010904/DTD/svg10.dtd">
<svg version="1.0" xmlns="http://www.w3.org/2000/svg"
 width="71.000000pt" height="83.000000pt" viewBox="0 0 71.000000 83.000000"
 preserveAspectRatio="xMidYMid meet">
<metadata>
Created by potrace 1.16, written by Peter Selinger 2001-2019
</metadata>
<g transform="translate(0.000000,83.000000) scale(0.100000,-0.100000)"
fill="#000000" stroke="none">
<path d="M365 816 l-18 -13 6 -44 6 -44 -9 -15 -9 -15 -85 2 -85 1 -3 -96 -3
-97 -58 3 -59 4 -24 -23 -24 -22 0 -23 0 -23 17 -16 16 -17 26 -10 26 -9 60 3
60 3 3 -31 3 -31 -21 -62 -21 -62 6 -10 6 -9 67 0 67 0 25 -13 25 -13 0 -59 0
-58 30 -9 30 -8 30 6 30 6 18 16 18 16 -2 43 -3 42 6 6 6 6 87 9 87 9 6 5 5 5
-12 28 -11 28 -9 67 -9 67 -7 11 -7 11 -39 -3 -39 -2 -14 15 -14 14 -2 15 -2
15 1 11 1 10 59 -4 58 -4 17 23 16 23 0 91 0 90 -8 11 -7 10 -75 13 -75 12
-27 11 -27 10 6 29 5 29 -12 15 -12 15 -42 0 -42 0 -19 -14z"/>
</g>
</svg>
