<?xml version="1.0" standalone="no"?>
<!DOCTYPE svg PUBLIC "-//W3C//DTD SVG 20010904//EN"
 "http://www.w3.org/TR/2001/REC-SVG-20010904/DTD/svg10.dtd">
<svg version="1.0" xmlns="http://www.w3.org/2000/svg"
 width="70.000000pt" height="81.000000pt" viewBox="0 0 70.000000 81.000000"
 preserveAspectRatio="xMidYMid meet">
<metadata>
Created by potrace 1.16, written by Peter Selinger 2001-2019
</metadata>
<g transform="translate(0.000000,81.000000) scale(0.100000,-0.100000)"
fill="#000000" stroke="none">
<path d="M367 799 l-17 -10 10 -19 10 -19 0 -24 0 -24 -19 -17 -19 -17 -96 3
-96 3 0 -103 0 -102 -55 6 -55 7 -15 -13 -15 -12 0 -29 0 -28 21 -20 22 -20
28 -6 28 -6 22 11 22 12 9 -13 9 -14 -6 -69 -6 -69 -9 -23 -10 -24 88 0 88 0
23 -16 23 -16 -4 -62 -3 -61 34 -3 34 -3 23 5 23 6 11 19 10 20 -10 27 -11 27
10 10 10 10 78 14 78 15 13 0 13 1 -4 11 -4 11 13 27 14 27 11 51 11 51 -11
13 -12 14 -33 -10 -34 -11 -34 7 -35 6 -21 25 -22 25 0 24 0 23 21 27 22 28
51 -4 51 -3 3 87 3 87 -46 5 -45 6 -47 6 -48 5 -18 6 -19 5 7 43 6 44 -20 10
-20 11 -8 0 -8 -1 -18 -10z"/>
</g>
</svg>
