<?xml version="1.0" standalone="no"?>
<!DOCTYPE svg PUBLIC "-//W3C//DTD SVG 20010904//EN"
 "http://www.w3.org/TR/2001/REC-SVG-20010904/DTD/svg10.dtd">
<svg version="1.0" xmlns="http://www.w3.org/2000/svg"
 width="89.000000pt" height="69.000000pt" viewBox="0 0 89.000000 69.000000"
 preserveAspectRatio="xMidYMid meet">
<metadata>
Created by potrace 1.16, written by Peter Selinger 2001-2019
</metadata>
<g transform="translate(0.000000,69.000000) scale(0.100000,-0.100000)"
fill="#000000" stroke="none">
<path d="M385 676 l-18 -13 6 -56 7 -56 -43 -6 -42 -7 -60 4 -60 3 -5 -82 -5
-82 -18 -18 -18 -18 -62 0 -62 0 -3 -38 -3 -39 15 -23 15 -23 26 -6 27 -7 13
11 13 11 10 -33 10 -33 18 -73 18 -72 95 0 96 1 18 14 19 13 -3 49 -3 48 40 3
40 3 19 -21 18 -20 -11 -26 -12 -25 0 -19 0 -19 22 -12 21 -12 67 7 67 6 31 6
31 6 6 67 7 66 7 35 7 35 20 -2 19 -3 33 5 32 6 20 21 20 22 0 17 0 18 -22 21
-23 21 -62 -3 -63 -3 -5 13 -5 14 0 85 0 86 -42 -8 -43 -8 -55 -1 -55 -1 3 42
4 41 -16 31 -16 30 -19 11 -20 10 -23 0 -24 0 -19 -14z"/>
</g>
</svg>
