<?xml version="1.0" standalone="no"?>
<!DOCTYPE svg PUBLIC "-//W3C//DTD SVG 20010904//EN"
 "http://www.w3.org/TR/2001/REC-SVG-20010904/DTD/svg10.dtd">
<svg version="1.0" xmlns="http://www.w3.org/2000/svg"
 width="87.000000pt" height="67.000000pt" viewBox="0 0 87.000000 67.000000"
 preserveAspectRatio="xMidYMid meet">
<metadata>
Created by potrace 1.16, written by Peter Selinger 2001-2019
</metadata>
<g transform="translate(0.000000,67.000000) scale(0.100000,-0.100000)"
fill="#000000" stroke="none">
<path d="M387 659 l-19 -11 7 -58 7 -58 -42 -7 -41 -7 -62 4 -62 3 -5 -81 -5
-82 -19 -21 -20 -21 -60 2 -61 3 -3 -27 -3 -27 11 -21 11 -21 22 -8 22 -8 17
11 17 10 7 -6 7 -7 24 -88 24 -88 1 -12 1 -13 86 0 86 1 18 14 19 14 -4 48 -3
48 49 3 48 3 19 -17 19 -17 0 -18 0 -18 -12 -27 -12 -26 19 -15 20 -15 63 6
63 7 28 5 29 6 6 57 7 56 5 41 6 41 8 12 7 13 22 -12 22 -11 32 10 32 11 12
20 13 19 -6 14 -5 14 -24 13 -24 13 -55 -6 -54 -5 -6 15 -6 15 0 85 0 85 -27
-6 -28 -7 -63 -6 -62 -5 -15 12 -14 12 11 23 11 24 -7 26 -7 27 -24 24 -24 24
-18 0 -18 -1 -18 -10z"/>
</g>
</svg>
