<?xml version="1.0" standalone="no"?>
<!DOCTYPE svg PUBLIC "-//W3C//DTD SVG 20010904//EN"
 "http://www.w3.org/TR/2001/REC-SVG-20010904/DTD/svg10.dtd">
<svg version="1.0" xmlns="http://www.w3.org/2000/svg"
 width="56.000000pt" height="66.000000pt" viewBox="0 0 56.000000 66.000000"
 preserveAspectRatio="xMidYMid meet">
<metadata>
Created by potrace 1.16, written by Peter Selinger 2001-2019
</metadata>
<g transform="translate(0.000000,66.000000) scale(0.100000,-0.100000)"
fill="#000000" stroke="none">
<path d="M258 653 l-17 -4 -7 -21 -6 -20 7 -45 7 -46 -101 7 -101 8 0 -90 0
-90 6 -16 6 -16 16 0 16 0 32 12 33 12 16 -14 17 -14 8 -21 8 -20 -9 -17 -9
-17 -40 -11 -40 -11 -41 12 -41 13 -9 -15 -10 -14 5 -48 5 -48 17 -59 17 -60
96 0 97 0 23 16 23 16 -4 37 -5 36 -4 15 -4 15 27 3 28 3 24 -24 25 -25 -12
-32 -12 -32 19 -14 20 -14 82 0 83 0 6 9 5 10 -19 63 -19 63 -12 44 -11 43
-39 -6 -39 -6 -17 24 -16 25 4 18 4 18 60 -3 61 -4 22 28 21 27 0 84 0 85 -32
-6 -33 -6 -70 -6 -71 -7 1 63 0 62 -24 19 -23 19 -17 -1 -16 -1 -17 -5z"/>
</g>
</svg>
