<?xml version="1.0" standalone="no"?>
<!DOCTYPE svg PUBLIC "-//W3C//DTD SVG 20010904//EN"
 "http://www.w3.org/TR/2001/REC-SVG-20010904/DTD/svg10.dtd">
<svg version="1.0" xmlns="http://www.w3.org/2000/svg"
 width="52.000000pt" height="64.000000pt" viewBox="0 0 52.000000 64.000000"
 preserveAspectRatio="xMidYMid meet">
<metadata>
Created by potrace 1.16, written by Peter Selinger 2001-2019
</metadata>
<g transform="translate(0.000000,64.000000) scale(0.100000,-0.100000)"
fill="#000000" stroke="none">
<path d="M211 627 l-25 -12 3 -10 2 -10 5 -22 6 -22 -18 -18 -18 -18 -70 -1
-71 -1 -14 -2 -13 -1 4 -81 3 -81 20 -14 20 -15 39 7 38 6 9 -13 9 -14 0 -37
0 -36 -6 -16 -6 -16 -22 5 -21 5 -13 -8 -13 -9 -20 -74 -20 -74 -5 -20 -5 -20
100 3 101 3 -6 63 -7 63 22 22 21 21 33 0 33 0 19 -14 19 -14 -12 -26 -11 -26
5 -15 6 -15 42 -11 41 -10 30 -9 30 -8 18 -7 18 -8 -6 74 -7 74 -10 32 -10 33
-4 0 -4 0 -20 -12 -19 -12 -20 18 -21 19 0 46 0 46 9 13 8 14 48 -7 47 -8 9
14 9 14 0 71 0 72 -37 -9 -38 -9 -43 0 -43 0 -15 15 -15 15 12 21 11 22 -11
23 -11 24 -26 10 -25 10 -22 0 -22 0 -24 -13z"/>
</g>
</svg>
