<?xml version="1.0" standalone="no"?>
<!DOCTYPE svg PUBLIC "-//W3C//DTD SVG 20010904//EN"
 "http://www.w3.org/TR/2001/REC-SVG-20010904/DTD/svg10.dtd">
<svg version="1.0" xmlns="http://www.w3.org/2000/svg"
 width="82.000000pt" height="66.000000pt" viewBox="0 0 82.000000 66.000000"
 preserveAspectRatio="xMidYMid meet">
<metadata>
Created by potrace 1.16, written by Peter Selinger 2001-2019
</metadata>
<g transform="translate(0.000000,66.000000) scale(0.100000,-0.100000)"
fill="#000000" stroke="none">
<path d="M343 625 l6 -34 -19 -23 -18 -22 -88 -6 -89 -5 -5 -90 -5 -90 -8 -13
-8 -12 -39 6 -39 6 -17 -16 -16 -17 4 -51 5 -51 19 -14 19 -14 59 2 60 3 3
-11 4 -11 -21 -61 -20 -60 0 -18 0 -18 99 0 99 0 7 7 7 7 -12 35 -11 35 16 31
16 31 24 11 25 11 21 -19 21 -19 9 -24 9 -23 -11 -14 -11 -14 6 -24 6 -24 31
-7 31 -7 79 7 79 7 0 13 0 14 -11 28 -10 28 -9 44 -8 44 4 12 5 11 62 -4 62
-4 28 22 27 21 0 39 0 38 -17 13 -16 14 -59 0 -59 -1 -6 24 -5 23 6 70 7 69
-16 6 -15 6 -15 -12 -15 -12 -65 -6 -65 -5 6 46 7 46 -31 30 -30 31 -48 0 -47
0 6 -35z"/>
</g>
</svg>
