<?xml version="1.0" standalone="no"?>
<!DOCTYPE svg PUBLIC "-//W3C//DTD SVG 20010904//EN"
 "http://www.w3.org/TR/2001/REC-SVG-20010904/DTD/svg10.dtd">
<svg version="1.0" xmlns="http://www.w3.org/2000/svg"
 width="85.000000pt" height="69.000000pt" viewBox="0 0 85.000000 69.000000"
 preserveAspectRatio="xMidYMid meet">
<metadata>
Created by potrace 1.16, written by Peter Selinger 2001-2019
</metadata>
<g transform="translate(0.000000,69.000000) scale(0.100000,-0.100000)"
fill="#000000" stroke="none">
<path d="M370 663 l-22 -28 5 -47 4 -48 -33 -6 -32 -6 -69 4 -68 3 -5 -85 -5
-84 -51 3 -51 2 -22 -27 -21 -27 0 -34 0 -34 25 -27 25 -27 73 -1 72 0 -3 -35
-4 -34 -21 -48 -20 -49 13 -8 14 -9 71 -6 70 -7 30 4 30 3 0 48 1 47 22 23 22
22 18 -11 17 -11 0 -59 0 -59 118 -1 117 -2 0 18 0 17 -20 79 -20 79 4 12 5
13 43 -6 43 -6 42 11 43 12 11 21 11 20 -6 31 -6 31 -17 18 -16 18 -36 0 -36
0 -15 -10 -14 -9 -8 12 -8 12 0 85 0 85 -77 23 -78 23 -23 10 -23 9 6 21 7 20
-18 20 -17 19 -38 0 -38 0 -21 -27z"/>
</g>
</svg>
