<?xml version="1.0" standalone="no"?>
<!DOCTYPE svg PUBLIC "-//W3C//DTD SVG 20010904//EN"
 "http://www.w3.org/TR/2001/REC-SVG-20010904/DTD/svg10.dtd">
<svg version="1.0" xmlns="http://www.w3.org/2000/svg"
 width="66.000000pt" height="65.000000pt" viewBox="0 0 66.000000 65.000000"
 preserveAspectRatio="xMidYMid meet">
<metadata>
Created by potrace 1.16, written by Peter Selinger 2001-2019
</metadata>
<g transform="translate(0.000000,65.000000) scale(0.100000,-0.100000)"
fill="#000000" stroke="none">
<path d="M226 635 l-16 -17 6 -48 6 -48 -36 -12 -37 -12 -70 7 -69 7 0 -66 0
-65 12 -26 11 -25 24 -6 23 -6 14 12 15 11 20 -10 20 -11 6 -34 7 -34 -11 -21
-12 -21 -22 -5 -22 -5 -35 3 -34 2 -7 -50 -7 -50 -5 -52 -4 -53 84 0 84 0 15
15 16 15 -12 35 -12 36 12 14 12 15 45 0 44 0 19 -10 19 -10 -5 -28 -6 -28 14
-12 15 -12 71 -10 72 -10 12 -2 13 -3 0 85 0 85 42 -3 42 -3 31 31 30 31 0 20
0 20 -10 19 -10 20 -20 10 -19 10 -27 -12 -26 -12 -14 19 -14 19 0 79 0 80
-42 -7 -43 -7 -60 -6 -61 -5 -11 13 -11 14 11 43 11 43 -15 27 -15 27 -21 3
-21 3 -16 -16z"/>
</g>
</svg>
