<?xml version="1.0" standalone="no"?>
<!DOCTYPE svg PUBLIC "-//W3C//DTD SVG 20010904//EN"
 "http://www.w3.org/TR/2001/REC-SVG-20010904/DTD/svg10.dtd">
<svg version="1.0" xmlns="http://www.w3.org/2000/svg"
 width="68.000000pt" height="67.000000pt" viewBox="0 0 68.000000 67.000000"
 preserveAspectRatio="xMidYMid meet">
<metadata>
Created by potrace 1.16, written by Peter Selinger 2001-2019
</metadata>
<g transform="translate(0.000000,67.000000) scale(0.100000,-0.100000)"
fill="#000000" stroke="none">
<path d="M225 653 l-17 -17 6 -47 6 -47 -32 -11 -32 -11 -73 6 -73 7 0 -76 0
-76 12 -25 11 -26 19 -6 20 -6 34 7 34 6 11 -28 10 -27 -10 -23 -11 -23 -12
-2 -13 -1 -45 -1 -44 -1 -7 -50 -7 -50 -6 -62 -6 -63 96 0 95 0 16 16 17 16
-11 39 -10 38 11 11 10 10 32 0 32 0 16 -6 16 -6 0 -33 0 -33 13 -11 14 -11
74 -11 74 -11 20 -2 20 -1 0 85 0 84 42 -3 42 -2 31 31 30 31 0 35 0 35 -25
24 -24 25 -16 0 -16 0 -19 -10 -19 -10 -11 19 -10 20 0 77 0 77 -62 -8 -63 -8
-45 -1 -45 -1 3 58 4 58 -16 24 -16 25 -30 0 -29 0 -16 -17z"/>
</g>
</svg>
