<?xml version="1.0" standalone="no"?>
<!DOCTYPE svg PUBLIC "-//W3C//DTD SVG 20010904//EN"
 "http://www.w3.org/TR/2001/REC-SVG-20010904/DTD/svg10.dtd">
<svg version="1.0" xmlns="http://www.w3.org/2000/svg"
 width="59.000000pt" height="80.000000pt" viewBox="0 0 59.000000 80.000000"
 preserveAspectRatio="xMidYMid meet">
<metadata>
Created by potrace 1.16, written by Peter Selinger 2001-2019
</metadata>
<g transform="translate(0.000000,80.000000) scale(0.100000,-0.100000)"
fill="#000000" stroke="none">
<path d="M213 790 l-23 -9 0 -25 0 -25 10 -26 10 -26 -36 -15 -35 -15 -62 3
-61 3 -7 -30 -7 -30 -1 -65 -1 -65 9 -14 9 -15 40 12 39 12 20 0 20 0 16 -18
17 -19 0 -20 0 -21 -31 -26 -31 -26 -8 0 -9 0 -6 10 -6 10 -24 0 -24 0 -11
-19 -10 -20 0 -94 0 -94 68 5 69 4 36 -17 35 -17 7 -15 6 -16 -11 -11 -10 -10
0 -18 0 -18 26 -6 25 -6 46 5 47 5 14 18 13 19 -5 32 -5 32 17 5 17 4 76 7 76
6 17 68 17 67 -3 44 -3 45 -63 -3 -62 -3 -34 16 -34 17 -6 13 -5 13 25 23 24
22 38 -12 39 -13 22 11 22 12 -3 102 -3 102 -71 -3 -72 -4 -20 6 -20 7 5 57 5
58 -26 12 -27 12 -42 -1 -42 0 -22 -9z"/>
</g>
</svg>
