<?xml version="1.0" standalone="no"?>
<!DOCTYPE svg PUBLIC "-//W3C//DTD SVG 20010904//EN"
 "http://www.w3.org/TR/2001/REC-SVG-20010904/DTD/svg10.dtd">
<svg version="1.0" xmlns="http://www.w3.org/2000/svg"
 width="57.000000pt" height="78.000000pt" viewBox="0 0 57.000000 78.000000"
 preserveAspectRatio="xMidYMid meet">
<metadata>
Created by potrace 1.16, written by Peter Selinger 2001-2019
</metadata>
<g transform="translate(0.000000,78.000000) scale(0.100000,-0.100000)"
fill="#000000" stroke="none">
<path d="M211 769 l-23 -9 6 -28 6 -27 6 -23 6 -22 -37 -16 -38 -16 -61 4 -61
3 -6 -30 -7 -30 -1 -55 -1 -55 8 -13 9 -13 27 11 27 10 33 0 33 0 16 -18 17
-19 0 -30 0 -31 -31 -26 -31 -26 -14 0 -14 0 -21 13 -20 12 -15 -19 -14 -20 0
-85 0 -86 69 3 70 4 35 -17 36 -17 6 -24 6 -24 -13 -16 -13 -16 15 -9 14 -9
32 0 32 0 24 9 25 10 7 21 7 21 -13 16 -13 15 19 14 19 14 40 1 41 0 45 7 45
7 -4 5 -3 5 17 57 16 57 -3 38 -3 38 -62 -3 -61 -4 -36 17 -35 17 -7 20 -6 20
23 24 22 24 24 0 24 0 20 -10 19 -11 20 11 21 11 -3 92 -3 92 -72 -3 -72 -4
-21 7 -21 7 7 57 6 57 -26 12 -27 12 -32 -1 -32 0 -24 -10z"/>
</g>
</svg>
