<?xml version="1.0" standalone="no"?>
<!DOCTYPE svg PUBLIC "-//W3C//DTD SVG 20010904//EN"
 "http://www.w3.org/TR/2001/REC-SVG-20010904/DTD/svg10.dtd">
<svg version="1.0" xmlns="http://www.w3.org/2000/svg"
 width="78.000000pt" height="51.000000pt" viewBox="0 0 78.000000 51.000000"
 preserveAspectRatio="xMidYMid meet">
<metadata>
Created by potrace 1.16, written by Peter Selinger 2001-2019
</metadata>
<g transform="translate(0.000000,51.000000) scale(0.100000,-0.100000)"
fill="#000000" stroke="none">
<path d="M155 499 l7 -11 -7 -63 -6 -64 -24 -27 -23 -27 -45 5 -46 5 -5 -14
-6 -15 0 -32 0 -32 16 -23 17 -23 57 6 57 7 13 -16 13 -15 -7 -80 -7 -80 78 0
78 0 12 8 12 7 -10 47 -10 47 11 20 11 21 43 0 44 0 11 -13 11 -13 -11 -11
-11 -11 11 -20 11 -21 57 -11 57 -12 39 -14 40 -14 14 11 13 12 16 56 15 56
10 24 10 23 24 -4 23 -5 6 21 6 21 0 30 0 31 -12 12 -11 11 -19 -10 -20 -11
-24 6 -25 7 -9 25 -10 25 0 80 0 79 -74 0 -74 0 -16 -6 -15 -6 6 -57 6 -58
-19 -21 -18 -22 -53 0 -52 0 -15 16 -16 15 0 15 0 15 11 46 12 45 -14 9 -14 9
-78 0 -78 0 6 -11z"/>
</g>
</svg>
