<?xml version="1.0" standalone="no"?>
<!DOCTYPE svg PUBLIC "-//W3C//DTD SVG 20010904//EN"
 "http://www.w3.org/TR/2001/REC-SVG-20010904/DTD/svg10.dtd">
<svg version="1.0" xmlns="http://www.w3.org/2000/svg"
 width="70.000000pt" height="68.000000pt" viewBox="0 0 70.000000 68.000000"
 preserveAspectRatio="xMidYMid meet">
<metadata>
Created by potrace 1.16, written by Peter Selinger 2001-2019
</metadata>
<g transform="translate(0.000000,68.000000) scale(0.100000,-0.100000)"
fill="#000000" stroke="none">
<path d="M495 673 l-20 -5 -9 -9 -10 -9 13 -24 13 -24 -18 -27 -17 -27 -25 -9
-25 -10 -23 16 -24 16 6 40 7 41 -14 9 -14 9 -99 0 -99 0 6 -84 7 -83 -52 -5
-52 -5 -23 -27 -23 -27 0 -27 0 -28 16 -23 17 -23 53 6 53 6 6 -21 7 -20 -7
-85 -8 -86 65 7 64 7 40 -11 41 -11 -5 -51 -5 -51 14 -9 14 -9 33 0 33 0 25
25 25 25 -3 32 -3 32 30 7 30 7 57 1 57 1 15 28 14 28 13 60 12 60 -7 28 -7
28 -37 -8 -37 -8 -37 0 -37 0 -21 19 -21 19 3 30 3 31 20 -3 20 -4 41 -5 42
-5 16 23 16 23 0 93 0 92 -32 5 -33 5 -40 4 -40 4 -20 -4z"/>
</g>
</svg>
