<?xml version="1.0" standalone="no"?>
<!DOCTYPE svg PUBLIC "-//W3C//DTD SVG 20010904//EN"
 "http://www.w3.org/TR/2001/REC-SVG-20010904/DTD/svg10.dtd">
<svg version="1.0" xmlns="http://www.w3.org/2000/svg"
 width="68.000000pt" height="70.000000pt" viewBox="0 0 68.000000 70.000000"
 preserveAspectRatio="xMidYMid meet">
<metadata>
Created by potrace 1.16, written by Peter Selinger 2001-2019
</metadata>
<g transform="translate(0.000000,70.000000) scale(0.100000,-0.100000)"
fill="#000000" stroke="none">
<path d="M183 693 l-43 -4 7 -105 6 -105 -26 12 -27 12 -40 -12 -41 -12 -11
-25 -11 -24 12 -26 11 -26 63 4 62 3 -1 -114 -2 -113 62 6 61 6 30 -8 30 -9
-4 -57 -3 -57 18 -20 17 -19 48 0 49 0 16 25 17 25 -6 36 -6 35 22 8 23 9 77
7 77 7 0 97 0 96 -7 24 -6 23 -55 -5 -55 -6 -18 9 -17 9 -6 16 -5 15 9 25 10
25 53 -6 54 -6 20 10 20 11 7 47 6 46 -6 53 -7 54 -71 -6 -71 -5 -37 -9 -38
-10 0 -14 0 -14 10 -25 9 -25 -22 -16 -21 -15 -28 0 -27 0 -16 17 -17 17 6 58
7 58 -63 -2 -63 -1 -42 -4z"/>
</g>
</svg>
