<?xml version="1.0" standalone="no"?>
<!DOCTYPE svg PUBLIC "-//W3C//DTD SVG 20010904//EN"
 "http://www.w3.org/TR/2001/REC-SVG-20010904/DTD/svg10.dtd">
<svg version="1.0" xmlns="http://www.w3.org/2000/svg"
 width="77.000000pt" height="53.000000pt" viewBox="0 0 77.000000 53.000000"
 preserveAspectRatio="xMidYMid meet">
<metadata>
Created by potrace 1.16, written by Peter Selinger 2001-2019
</metadata>
<g transform="translate(0.000000,53.000000) scale(0.100000,-0.100000)"
fill="#000000" stroke="none">
<path d="M194 523 l-51 -4 -5 -75 -5 -75 -22 -20 -22 -21 -27 6 -27 7 -15 2
-15 2 0 -45 0 -45 37 -18 38 -18 35 12 36 13 9 -14 10 -15 0 -35 0 -36 -15
-57 -15 -58 0 -9 0 -10 55 0 56 0 33 14 33 14 7 25 6 26 -10 26 -10 26 28 10
27 10 31 -6 32 -6 12 -14 12 -14 -4 -53 -3 -53 94 -3 93 -3 -6 28 -6 28 -11
54 -11 54 7 24 6 25 55 -7 55 -7 25 17 25 16 -3 47 -3 47 -67 -2 -68 -2 0 90
0 90 -52 -7 -53 -7 -25 -7 -25 -7 3 -43 3 -42 -12 -14 -11 -14 -49 0 -48 0
-16 17 -17 17 4 63 4 63 -46 -2 -45 -2 -51 -3z"/>
</g>
</svg>
