<?xml version="1.0" standalone="no"?>
<!DOCTYPE svg PUBLIC "-//W3C//DTD SVG 20010904//EN"
 "http://www.w3.org/TR/2001/REC-SVG-20010904/DTD/svg10.dtd">
<svg version="1.0" xmlns="http://www.w3.org/2000/svg"
 width="79.000000pt" height="55.000000pt" viewBox="0 0 79.000000 55.000000"
 preserveAspectRatio="xMidYMid meet">
<metadata>
Created by potrace 1.16, written by Peter Selinger 2001-2019
</metadata>
<g transform="translate(0.000000,55.000000) scale(0.100000,-0.100000)"
fill="#000000" stroke="none">
<path d="M194 543 l-51 -4 -5 -75 -5 -75 -22 -20 -22 -21 -29 12 -30 12 -15
-6 -15 -5 0 -50 0 -51 26 -17 27 -17 36 0 36 0 17 8 17 8 7 -27 6 -26 -12 -57
-12 -57 -5 -32 -5 -33 66 0 67 0 33 14 34 14 7 30 6 29 -6 25 -7 25 27 7 26 7
27 -13 27 -14 0 -59 0 -60 105 -6 105 -5 3 2 4 3 -15 53 -15 53 -6 36 -6 36 6
17 6 16 54 -6 53 -7 26 17 26 17 -3 57 -3 57 -67 -1 -68 -1 0 90 0 89 -61 -7
-61 -7 -26 -7 -27 -8 0 -44 0 -44 -8 -12 -8 -13 -39 0 -39 0 -17 17 -17 17 6
63 6 63 -57 -2 -57 -2 -51 -3z"/>
</g>
</svg>
