<?xml version="1.0" standalone="no"?>
<!DOCTYPE svg PUBLIC "-//W3C//DTD SVG 20010904//EN"
 "http://www.w3.org/TR/2001/REC-SVG-20010904/DTD/svg10.dtd">
<svg version="1.0" xmlns="http://www.w3.org/2000/svg"
 width="65.000000pt" height="68.000000pt" viewBox="0 0 65.000000 68.000000"
 preserveAspectRatio="xMidYMid meet">
<metadata>
Created by potrace 1.16, written by Peter Selinger 2001-2019
</metadata>
<g transform="translate(0.000000,68.000000) scale(0.100000,-0.100000)"
fill="#000000" stroke="none">
<path d="M321 666 l-12 -15 10 -38 11 -38 0 -12 0 -12 -22 -21 -22 -20 -37 0
-37 0 -17 6 -16 6 7 59 7 59 -13 15 -12 15 -84 0 -84 0 0 -88 0 -88 16 -23 17
-24 63 6 62 6 6 -24 6 -23 -7 -19 -7 -18 -17 -19 -17 -18 -40 7 -40 6 -6 -9
-6 -10 -15 -87 -15 -86 6 -10 6 -11 73 7 73 7 19 -6 20 -6 -5 -54 -4 -54 30
-16 31 -16 14 0 14 0 28 26 27 25 -4 65 -4 64 26 0 25 0 55 -15 55 -15 26 0
26 0 11 43 12 42 10 41 10 41 29 -5 28 -4 6 24 7 23 0 65 0 65 -9 14 -9 13
-40 -7 -40 -7 -11 21 -11 20 0 64 0 64 -52 7 -53 6 -46 0 -47 0 -11 -14z"/>
</g>
</svg>
