<?xml version="1.0" standalone="no"?>
<!DOCTYPE svg PUBLIC "-//W3C//DTD SVG 20010904//EN"
 "http://www.w3.org/TR/2001/REC-SVG-20010904/DTD/svg10.dtd">
<svg version="1.0" xmlns="http://www.w3.org/2000/svg"
 width="63.000000pt" height="66.000000pt" viewBox="0 0 63.000000 66.000000"
 preserveAspectRatio="xMidYMid meet">
<metadata>
Created by potrace 1.16, written by Peter Selinger 2001-2019
</metadata>
<g transform="translate(0.000000,66.000000) scale(0.100000,-0.100000)"
fill="#000000" stroke="none">
<path d="M323 649 l-11 -11 9 -31 9 -32 0 -22 0 -22 -22 -21 -22 -20 -50 0
-51 0 -14 9 -14 9 7 56 8 57 -12 15 -12 14 -74 0 -74 0 0 -78 0 -78 16 -23 16
-23 37 4 36 5 15 6 15 7 15 -10 15 -9 0 -43 0 -43 -21 -23 -20 -22 -25 -1 -24
-2 -16 7 -17 7 -6 -10 -6 -10 -14 -78 -14 -78 5 -8 4 -7 69 6 68 7 26 -7 26
-6 -6 -54 -7 -54 32 -16 31 -16 25 16 25 16 6 25 6 24 -6 50 -7 49 38 0 38 0
55 -15 55 -15 16 0 16 0 11 43 12 42 10 43 11 43 28 -6 28 -6 7 23 6 23 0 52
0 51 -6 16 -6 16 -41 -7 -40 -6 -14 18 -13 19 0 67 0 66 -52 7 -53 6 -35 0
-36 0 -11 -11z"/>
</g>
</svg>
