<?xml version="1.0" standalone="no"?>
<!DOCTYPE svg PUBLIC "-//W3C//DTD SVG 20010904//EN"
 "http://www.w3.org/TR/2001/REC-SVG-20010904/DTD/svg10.dtd">
<svg version="1.0" xmlns="http://www.w3.org/2000/svg"
 width="55.000000pt" height="54.000000pt" viewBox="0 0 55.000000 54.000000"
 preserveAspectRatio="xMidYMid meet">
<metadata>
Created by potrace 1.16, written by Peter Selinger 2001-2019
</metadata>
<g transform="translate(0.000000,54.000000) scale(0.100000,-0.100000)"
fill="#000000" stroke="none">
<path d="M301 531 l-15 -10 12 -37 11 -37 -10 -19 -10 -18 -44 0 -45 0 0 31 0
30 -10 19 -10 18 -31 11 -32 11 -58 0 -59 0 0 -78 0 -78 13 -18 14 -18 41 4
42 3 5 -13 5 -14 0 -41 0 -42 -6 -21 -5 -20 -29 4 -29 4 -10 -43 -11 -44 -10
-36 -10 -36 0 -22 0 -21 83 0 83 0 19 14 18 13 -6 34 -7 34 -2 20 -3 20 34 3
34 3 23 -5 23 -6 3 -43 3 -42 98 -19 99 -19 16 17 16 16 4 96 5 97 -65 -6 -65
-6 -22 15 -21 15 0 24 0 24 17 16 16 17 57 -7 57 -7 7 18 7 19 -7 86 -6 86
-52 7 -51 6 -55 0 -55 0 -14 -9z"/>
</g>
</svg>
