<?xml version="1.0" standalone="no"?>
<!DOCTYPE svg PUBLIC "-//W3C//DTD SVG 20010904//EN"
 "http://www.w3.org/TR/2001/REC-SVG-20010904/DTD/svg10.dtd">
<svg version="1.0" xmlns="http://www.w3.org/2000/svg"
 width="53.000000pt" height="52.000000pt" viewBox="0 0 53.000000 52.000000"
 preserveAspectRatio="xMidYMid meet">
<metadata>
Created by potrace 1.16, written by Peter Selinger 2001-2019
</metadata>
<g transform="translate(0.000000,52.000000) scale(0.100000,-0.100000)"
fill="#000000" stroke="none">
<path d="M302 512 l-12 -8 11 -33 11 -33 -11 -24 -11 -24 -60 0 -60 0 6 24 6
25 -7 21 -7 22 -34 14 -33 14 -51 0 -50 0 0 -68 0 -68 13 -19 14 -18 40 6 41
7 6 -16 6 -16 0 -51 0 -52 -6 -23 -7 -23 -28 6 -28 6 -11 -43 -10 -43 -10 -36
-10 -36 0 -12 0 -11 73 0 73 0 19 14 18 13 -12 46 -13 45 7 11 6 11 52 0 52 0
15 -10 15 -9 0 -38 0 -38 90 -18 89 -17 15 15 15 14 4 87 5 87 -63 -7 -62 -7
-24 16 -24 15 0 35 0 34 17 17 17 16 57 -6 57 -5 6 15 6 16 -6 78 -7 78 -51 6
-51 6 -45 0 -45 0 -13 -8z"/>
</g>
</svg>
