<?xml version="1.0" standalone="no"?>
<!DOCTYPE svg PUBLIC "-//W3C//DTD SVG 20010904//EN"
 "http://www.w3.org/TR/2001/REC-SVG-20010904/DTD/svg10.dtd">
<svg version="1.0" xmlns="http://www.w3.org/2000/svg"
 width="57.000000pt" height="68.000000pt" viewBox="0 0 57.000000 68.000000"
 preserveAspectRatio="xMidYMid meet">
<metadata>
Created by potrace 1.16, written by Peter Selinger 2001-2019
</metadata>
<g transform="translate(0.000000,68.000000) scale(0.100000,-0.100000)"
fill="#000000" stroke="none">
<path d="M253 645 l-17 -36 11 -30 12 -31 -109 7 -108 7 -12 -22 -12 -23 4
-69 5 -69 19 -20 18 -20 40 3 41 3 3 -30 4 -29 -17 -12 -16 -12 -32 9 -32 9
-18 0 -17 0 -12 -25 -11 -25 13 -100 12 -100 102 0 101 0 14 9 13 9 -10 48
-10 48 9 19 10 18 37 -3 36 -3 23 -33 22 -33 -6 -49 -6 -48 31 -7 31 -6 77 12
76 13 -4 97 -4 96 -16 17 -17 16 -13 0 -14 0 -11 -11 -11 -11 -31 16 -30 16
-11 20 -11 20 11 20 11 20 22 5 22 6 50 -3 50 -3 3 90 3 90 -5 20 -5 21 -33
11 -33 12 -50 11 -49 11 -12 10 -11 9 5 25 4 25 -56 0 -56 0 -17 -35z"/>
</g>
</svg>
