<?xml version="1.0" standalone="no"?>
<!DOCTYPE svg PUBLIC "-//W3C//DTD SVG 20010904//EN"
 "http://www.w3.org/TR/2001/REC-SVG-20010904/DTD/svg10.dtd">
<svg version="1.0" xmlns="http://www.w3.org/2000/svg"
 width="55.000000pt" height="66.000000pt" viewBox="0 0 55.000000 66.000000"
 preserveAspectRatio="xMidYMid meet">
<metadata>
Created by potrace 1.16, written by Peter Selinger 2001-2019
</metadata>
<g transform="translate(0.000000,66.000000) scale(0.100000,-0.100000)"
fill="#000000" stroke="none">
<path d="M254 629 l-16 -32 11 -24 11 -24 0 -11 0 -11 -109 8 -109 7 -12 -23
-12 -22 5 -60 5 -60 21 -20 20 -21 27 12 26 13 14 -12 14 -11 0 -39 0 -38 -20
-11 -20 -11 -42 12 -42 11 -13 -18 -13 -18 0 -15 0 -16 12 -82 11 -83 91 0 91
0 12 8 12 7 -10 47 -10 47 11 21 11 21 47 -3 46 -3 24 -35 23 -35 -6 -46 -7
-46 27 -7 27 -7 57 12 56 12 14 0 13 0 -4 87 -4 87 -17 17 -16 17 -20 -13 -20
-12 -36 17 -35 17 -12 25 -11 25 11 25 11 24 33 9 33 9 33 -9 32 -9 10 6 10 6
0 87 0 87 -8 11 -7 10 -30 12 -30 12 -50 10 -49 11 -14 11 -13 12 6 23 5 23
-45 0 -44 0 -17 -31z"/>
</g>
</svg>
