<?xml version="1.0" standalone="no"?>
<!DOCTYPE svg PUBLIC "-//W3C//DTD SVG 20010904//EN"
 "http://www.w3.org/TR/2001/REC-SVG-20010904/DTD/svg10.dtd">
<svg version="1.0" xmlns="http://www.w3.org/2000/svg"
 width="84.000000pt" height="60.000000pt" viewBox="0 0 84.000000 60.000000"
 preserveAspectRatio="xMidYMid meet">
<metadata>
Created by potrace 1.16, written by Peter Selinger 2001-2019
</metadata>
<g transform="translate(0.000000,60.000000) scale(0.100000,-0.100000)"
fill="#000000" stroke="none">
<path d="M511 591 l-13 -9 7 -40 7 -41 -12 -23 -12 -23 -21 -22 -20 -23 -29 0
-29 0 -20 11 -20 10 7 49 7 50 -13 15 -12 15 -84 0 -84 0 0 -108 0 -108 -57 9
-58 9 -27 -11 -28 -11 0 -38 0 -39 26 -24 26 -24 74 1 74 0 6 -19 6 -19 -22
-69 -23 -70 4 -3 4 -3 100 -6 100 -7 13 9 14 8 -11 39 -11 39 0 22 0 22 16 15
15 16 14 0 14 0 16 -17 17 -16 -7 -58 -7 -58 7 -20 6 -21 44 0 45 0 71 12 71
12 -7 77 -7 77 7 21 6 20 47 -6 47 -5 20 22 20 22 0 58 0 58 -20 22 -20 22
-54 -4 -53 -5 6 81 7 82 -78 17 -78 17 -10 0 -10 0 -14 -9z"/>
</g>
</svg>
