<?xml version="1.0" standalone="no"?>
<!DOCTYPE svg PUBLIC "-//W3C//DTD SVG 20010904//EN"
 "http://www.w3.org/TR/2001/REC-SVG-20010904/DTD/svg10.dtd">
<svg version="1.0" xmlns="http://www.w3.org/2000/svg"
 width="82.000000pt" height="58.000000pt" viewBox="0 0 82.000000 58.000000"
 preserveAspectRatio="xMidYMid meet">
<metadata>
Created by potrace 1.16, written by Peter Selinger 2001-2019
</metadata>
<g transform="translate(0.000000,58.000000) scale(0.100000,-0.100000)"
fill="#000000" stroke="none">
<path d="M512 573 l-13 -5 7 -34 6 -34 -6 -24 -6 -24 -26 -31 -26 -31 -40 0
-39 0 -21 11 -20 11 6 50 7 50 -12 14 -11 14 -74 0 -74 0 0 -111 0 -111 -22 5
-23 6 -35 6 -35 6 -28 -10 -27 -11 0 -28 0 -29 26 -24 26 -24 74 2 74 2 6 -26
7 -25 -15 -52 -15 -51 -7 -16 -7 -16 93 -5 92 -6 12 5 12 4 -9 32 -9 32 0 32
0 32 16 15 15 16 24 0 24 0 16 -17 17 -17 -6 -62 -6 -62 6 -16 6 -16 42 0 42
0 54 14 55 14 7 -5 8 -4 -6 84 -7 83 11 21 11 20 41 -10 40 -11 22 22 22 21 0
50 0 50 -20 22 -19 21 -54 -6 -54 -7 6 84 6 83 -57 13 -57 13 -20 3 -20 4 -13
-6z"/>
</g>
</svg>
