<?xml version="1.0" standalone="no"?>
<!DOCTYPE svg PUBLIC "-//W3C//DTD SVG 20010904//EN"
 "http://www.w3.org/TR/2001/REC-SVG-20010904/DTD/svg10.dtd">
<svg version="1.0" xmlns="http://www.w3.org/2000/svg"
 width="70.000000pt" height="69.000000pt" viewBox="0 0 70.000000 69.000000"
 preserveAspectRatio="xMidYMid meet">
<metadata>
Created by potrace 1.16, written by Peter Selinger 2001-2019
</metadata>
<g transform="translate(0.000000,69.000000) scale(0.100000,-0.100000)"
fill="#000000" stroke="none">
<path d="M485 679 l-7 -10 12 -29 12 -30 -6 -25 -7 -26 -19 -19 -20 -20 -29 0
-29 0 -6 16 -6 15 10 19 10 19 0 25 0 25 -19 11 -20 10 -95 0 -96 0 0 -93 0
-94 -6 -5 -5 -6 -33 9 -34 9 -38 -12 -39 -13 -9 -26 -9 -26 7 -27 7 -27 32
-19 32 -20 37 2 37 2 8 -7 7 -7 4 -84 4 -84 58 0 58 0 22 -12 22 -12 -7 -37
-6 -38 13 -10 13 -10 46 -7 46 -7 27 11 27 10 16 37 15 37 -5 38 -5 38 28 0
27 0 44 -15 44 -16 23 6 24 6 -6 23 -6 23 -10 73 -10 73 -12 15 -12 14 -39 -5
-38 -5 -8 21 -8 22 5 15 5 15 9 11 8 11 46 -10 46 -11 14 19 14 19 0 92 0 91
-58 17 -58 16 -47 0 -46 0 -6 -11z"/>
</g>
</svg>
