<?xml version="1.0" standalone="no"?>
<!DOCTYPE svg PUBLIC "-//W3C//DTD SVG 20010904//EN"
 "http://www.w3.org/TR/2001/REC-SVG-20010904/DTD/svg10.dtd">
<svg version="1.0" xmlns="http://www.w3.org/2000/svg"
 width="81.000000pt" height="80.000000pt" viewBox="0 0 81.000000 80.000000"
 preserveAspectRatio="xMidYMid meet">
<metadata>
Created by potrace 1.16, written by Peter Selinger 2001-2019
</metadata>
<g transform="translate(0.000000,80.000000) scale(0.100000,-0.100000)"
fill="#000000" stroke="none">
<path d="M368 789 l-18 -10 7 -44 6 -44 -16 -15 -15 -16 -25 -9 -25 -10 -69
-2 -69 -2 4 -83 5 -84 -44 6 -44 6 -26 -21 -27 -21 -5 -27 -5 -27 10 -21 10
-22 30 -17 30 -18 39 6 39 6 6 -24 6 -25 -11 -51 -11 -51 0 -14 0 -15 84 0 84
0 10 -12 10 -13 -9 -20 -8 -20 0 -27 -1 -27 19 -11 20 -10 36 0 37 0 30 21 30
22 -6 37 -6 38 31 6 32 6 47 0 48 0 15 6 14 5 -9 50 -9 50 3 37 3 37 39 -3 39
-3 24 6 24 6 15 35 15 36 -6 28 -6 29 -13 10 -13 11 -32 -11 -33 -12 -20 21
-21 20 -5 77 -5 77 -41 18 -41 18 -40 8 -40 7 -18 9 -19 10 7 37 6 38 -23 7
-23 6 -20 0 -20 -1 -17 -10z"/>
</g>
</svg>
