<?xml version="1.0" standalone="no"?>
<!DOCTYPE svg PUBLIC "-//W3C//DTD SVG 20010904//EN"
 "http://www.w3.org/TR/2001/REC-SVG-20010904/DTD/svg10.dtd">
<svg version="1.0" xmlns="http://www.w3.org/2000/svg"
 width="67.000000pt" height="56.000000pt" viewBox="0 0 67.000000 56.000000"
 preserveAspectRatio="xMidYMid meet">
<metadata>
Created by potrace 1.16, written by Peter Selinger 2001-2019
</metadata>
<g transform="translate(0.000000,56.000000) scale(0.100000,-0.100000)"
fill="#000000" stroke="none">
<path d="M345 550 l-6 -10 6 -53 7 -53 -26 -17 -25 -17 -35 0 -34 0 -16 6 -16
6 6 49 7 49 -13 15 -12 15 -94 0 -94 0 0 -72 0 -73 13 -25 12 -25 27 -3 27 -3
22 12 23 12 18 -23 19 -23 -3 -36 -3 -36 -48 2 -47 3 -9 -23 -9 -22 -17 -89
-16 -89 9 -9 8 -8 114 -7 113 -6 -7 24 -7 24 -6 50 -5 51 16 13 16 13 34 -6
34 -7 -4 -37 -5 -37 8 -11 8 -12 80 -21 80 -22 21 -5 22 -6 12 74 12 73 9 35
8 35 43 0 43 0 0 70 0 70 -55 0 -54 0 -14 25 -13 25 4 61 4 61 -49 12 -50 11
-43 0 -44 0 -6 -10z"/>
</g>
</svg>
