<?xml version="1.0" standalone="no"?>
<!DOCTYPE svg PUBLIC "-//W3C//DTD SVG 20010904//EN"
 "http://www.w3.org/TR/2001/REC-SVG-20010904/DTD/svg10.dtd">
<svg version="1.0" xmlns="http://www.w3.org/2000/svg"
 width="65.000000pt" height="54.000000pt" viewBox="0 0 65.000000 54.000000"
 preserveAspectRatio="xMidYMid meet">
<metadata>
Created by potrace 1.16, written by Peter Selinger 2001-2019
</metadata>
<g transform="translate(0.000000,54.000000) scale(0.100000,-0.100000)"
fill="#000000" stroke="none">
<path d="M348 535 l-7 -8 6 -56 5 -57 -26 -18 -27 -17 -38 -1 -38 0 -23 7 -22
7 6 50 7 50 -12 14 -11 14 -85 0 -85 0 4 -75 3 -75 17 -17 17 -16 42 13 42 14
18 -23 19 -23 0 -44 0 -43 -19 -11 -20 -10 -27 10 -27 11 -10 -10 -10 -10 -13
-73 -13 -73 -3 -25 -3 -25 50 -7 50 -6 57 -1 57 -1 -10 32 -9 33 0 40 0 41 12
12 12 12 25 0 26 0 23 -6 23 -7 -5 -36 -6 -36 7 -11 8 -12 75 -19 75 -20 16
-7 17 -7 12 73 12 73 9 37 9 37 43 -2 42 -2 0 60 0 60 -55 0 -54 0 -13 25 -13
25 0 57 0 57 -21 12 -22 11 -56 5 -56 5 -7 -7z"/>
</g>
</svg>
