<?xml version="1.0" standalone="no"?>
<!DOCTYPE svg PUBLIC "-//W3C//DTD SVG 20010904//EN"
 "http://www.w3.org/TR/2001/REC-SVG-20010904/DTD/svg10.dtd">
<svg version="1.0" xmlns="http://www.w3.org/2000/svg"
 width="70.000000pt" height="56.000000pt" viewBox="0 0 70.000000 56.000000"
 preserveAspectRatio="xMidYMid meet">
<metadata>
Created by potrace 1.16, written by Peter Selinger 2001-2019
</metadata>
<g transform="translate(0.000000,56.000000) scale(0.100000,-0.100000)"
fill="#000000" stroke="none">
<path d="M382 552 l-13 -9 7 -41 6 -41 -6 -24 -6 -24 -25 -11 -26 -12 -33 0
-34 0 -20 18 -21 17 -2 20 -3 20 8 29 7 29 -13 8 -13 9 -77 0 -77 0 -7 -56 -6
-55 5 -45 5 -45 3 -4 4 -4 41 11 40 11 29 -14 30 -14 3 -31 3 -32 -28 -22 -28
-22 -62 5 -61 6 -6 -16 -6 -16 6 -36 6 -36 15 -47 15 -48 93 0 93 0 16 6 15 6
-10 25 -9 24 0 32 0 33 16 22 15 22 19 0 19 0 15 -22 16 -22 0 -31 0 -30 -10
-35 -10 -35 17 -13 18 -14 55 7 55 6 38 10 37 10 0 82 0 83 14 20 15 19 20
-12 21 -13 14 0 14 0 31 26 31 26 0 32 0 33 -18 16 -19 17 -31 0 -31 0 -27
-10 -27 -11 -9 13 -9 13 5 86 6 86 -57 12 -56 11 -16 0 -16 0 -13 -8z"/>
</g>
</svg>
