<?xml version="1.0" standalone="no"?>
<!DOCTYPE svg PUBLIC "-//W3C//DTD SVG 20010904//EN"
 "http://www.w3.org/TR/2001/REC-SVG-20010904/DTD/svg10.dtd">
<svg version="1.0" xmlns="http://www.w3.org/2000/svg"
 width="82.000000pt" height="64.000000pt" viewBox="0 0 82.000000 64.000000"
 preserveAspectRatio="xMidYMid meet">
<metadata>
Created by potrace 1.16, written by Peter Selinger 2001-2019
</metadata>
<g transform="translate(0.000000,64.000000) scale(0.100000,-0.100000)"
fill="#000000" stroke="none">
<path d="M175 615 l-4 -20 -4 -63 -3 -63 -15 -14 -14 -15 -39 11 -39 11 -23
-11 -23 -10 -7 -36 -7 -37 22 -21 22 -22 70 0 70 0 5 -22 6 -23 -11 -65 -12
-65 -5 -15 -6 -15 92 0 91 0 21 -11 20 -11 -6 -30 -6 -30 10 -19 11 -19 40 0
40 0 21 11 20 11 -6 29 -5 28 9 6 10 6 62 10 63 9 25 5 25 6 0 99 0 99 12 12
12 12 15 -12 15 -13 20 7 19 6 17 25 16 25 -7 34 -6 35 -8 5 -9 5 -25 -11 -26
-12 -25 11 -25 12 0 78 0 79 -7 6 -6 7 -13 -11 -14 -11 -87 -22 -88 -22 0 -34
0 -34 -28 -10 -28 -10 -27 15 -27 15 -3 26 -3 27 10 19 10 18 -9 15 -9 14 -91
5 -91 5 -4 -20z"/>
</g>
</svg>
