<?xml version="1.0" standalone="no"?>
<!DOCTYPE svg PUBLIC "-//W3C//DTD SVG 20010904//EN"
 "http://www.w3.org/TR/2001/REC-SVG-20010904/DTD/svg10.dtd">
<svg version="1.0" xmlns="http://www.w3.org/2000/svg"
 width="84.000000pt" height="66.000000pt" viewBox="0 0 84.000000 66.000000"
 preserveAspectRatio="xMidYMid meet">
<metadata>
Created by potrace 1.16, written by Peter Selinger 2001-2019
</metadata>
<g transform="translate(0.000000,66.000000) scale(0.100000,-0.100000)"
fill="#000000" stroke="none">
<path d="M176 645 l-6 -17 0 -53 0 -54 -10 -26 -10 -26 -53 6 -52 6 -19 -13
-18 -14 -5 -45 -5 -44 22 -20 22 -20 69 0 70 0 5 -20 5 -21 -15 -74 -16 -75 0
-7 0 -8 91 0 90 0 19 -10 19 -10 -5 -29 -6 -29 11 -21 12 -21 50 0 50 0 20 10
19 11 0 34 0 34 33 5 32 6 59 10 60 10 2 0 2 0 -5 59 -6 59 7 45 7 46 34 -6
34 -5 26 28 27 29 -6 45 -6 44 -10 10 -10 10 -31 -11 -32 -12 -18 10 -19 10 0
80 0 80 -15 5 -15 6 -15 -12 -15 -12 -87 -22 -88 -22 -1 -34 0 -33 -22 -10
-21 -10 -27 18 -26 17 5 21 5 22 7 21 7 21 -17 17 -16 16 -72 0 -72 0 -21 6
-21 6 -7 -17z"/>
</g>
</svg>
