<?xml version="1.0" standalone="no"?>
<!DOCTYPE svg PUBLIC "-//W3C//DTD SVG 20010904//EN"
 "http://www.w3.org/TR/2001/REC-SVG-20010904/DTD/svg10.dtd">
<svg version="1.0" xmlns="http://www.w3.org/2000/svg"
 width="82.000000pt" height="53.000000pt" viewBox="0 0 82.000000 53.000000"
 preserveAspectRatio="xMidYMid meet">
<metadata>
Created by potrace 1.16, written by Peter Selinger 2001-2019
</metadata>
<g transform="translate(0.000000,53.000000) scale(0.100000,-0.100000)"
fill="#000000" stroke="none">
<path d="M235 523 l-60 -4 -7 -12 -8 -12 2 -80 2 -81 -8 -12 -8 -13 -21 7 -22
7 -35 -1 -35 -2 -17 -22 -17 -23 5 -25 6 -25 25 -22 24 -23 24 0 24 0 7 12 7
11 14 -18 13 -19 0 -37 0 -36 6 -44 6 -44 89 3 89 3 10 19 10 19 -10 26 -10
26 0 19 0 19 16 15 15 16 43 0 42 0 19 -13 18 -14 -11 -31 -11 -32 22 -15 21
-15 16 0 16 0 54 -14 55 -14 3 3 3 3 -15 60 -16 60 0 35 0 36 11 6 11 7 41
-12 42 -11 26 10 26 9 17 17 17 17 -7 22 -6 21 -16 18 -15 17 -24 0 -24 0 -21
-11 -20 -11 -10 10 -10 10 1 87 2 87 -15 -5 -14 -6 -63 -11 -64 -12 -28 -10
-28 -11 7 -16 6 -16 2 -14 1 -15 -28 -10 -28 -10 -26 14 -27 15 -7 27 -7 27 8
36 8 35 -37 -2 -36 -2 -60 -3z"/>
</g>
</svg>
