<?xml version="1.0" standalone="no"?>
<!DOCTYPE svg PUBLIC "-//W3C//DTD SVG 20010904//EN"
 "http://www.w3.org/TR/2001/REC-SVG-20010904/DTD/svg10.dtd">
<svg version="1.0" xmlns="http://www.w3.org/2000/svg"
 width="84.000000pt" height="55.000000pt" viewBox="0 0 84.000000 55.000000"
 preserveAspectRatio="xMidYMid meet">
<metadata>
Created by potrace 1.16, written by Peter Selinger 2001-2019
</metadata>
<g transform="translate(0.000000,55.000000) scale(0.100000,-0.100000)"
fill="#000000" stroke="none">
<path d="M235 543 l-60 -4 -7 -12 -8 -12 1 -60 1 -60 -1 -26 -1 -27 -61 1 -61
0 -19 -24 -19 -24 5 -35 6 -35 26 -23 26 -24 38 4 39 3 5 -13 5 -14 0 -32 0
-33 6 -45 6 -44 97 4 96 4 13 16 13 17 -5 25 -6 25 -6 21 -6 21 17 17 16 16
30 0 30 0 19 -10 19 -10 -11 -32 -11 -31 21 -17 21 -18 48 -7 47 -7 39 -15 38
-16 5 5 5 5 -21 74 -20 74 0 27 0 27 9 5 9 6 31 -11 32 -11 32 6 33 6 23 21
23 22 -6 30 -6 31 -18 19 -17 19 -52 -5 -53 -6 0 90 0 89 -7 0 -8 0 -90 -19
-90 -19 -18 -7 -19 -8 6 -33 7 -32 -21 -7 -21 -7 -26 17 -26 17 6 59 5 59 -46
-2 -47 -2 -60 -3z"/>
</g>
</svg>
