<?xml version="1.0" standalone="no"?>
<!DOCTYPE svg PUBLIC "-//W3C//DTD SVG 20010904//EN"
 "http://www.w3.org/TR/2001/REC-SVG-20010904/DTD/svg10.dtd">
<svg version="1.0" xmlns="http://www.w3.org/2000/svg"
 width="82.000000pt" height="67.000000pt" viewBox="0 0 82.000000 67.000000"
 preserveAspectRatio="xMidYMid meet">
<metadata>
Created by potrace 1.16, written by Peter Selinger 2001-2019
</metadata>
<g transform="translate(0.000000,67.000000) scale(0.100000,-0.100000)"
fill="#000000" stroke="none">
<path d="M205 661 l-70 -6 3 -92 4 -92 -56 6 -56 6 -15 -13 -15 -12 0 -54 0
-54 32 -20 33 -20 20 7 20 6 15 1 15 1 0 -65 0 -65 -8 -22 -8 -23 86 0 86 0
25 -25 26 -26 -7 -17 -8 -17 -1 -20 -1 -19 28 -14 28 -13 28 6 28 6 23 21 22
21 -5 39 -5 38 20 11 20 11 69 -4 69 -3 0 80 0 80 9 14 9 14 29 -10 29 -10 34
11 34 11 13 25 13 25 0 24 0 24 -26 24 -27 25 -61 -4 -61 -3 4 89 3 89 -23 -6
-24 -6 -45 -6 -45 -7 -33 -10 -33 -10 6 -30 7 -29 -19 -14 -18 -14 -36 -1 -36
0 -28 26 -27 25 4 44 5 44 -14 5 -15 6 -1 -2 -2 -2 -70 -5z"/>
</g>
</svg>
