<?xml version="1.0" standalone="no"?>
<!DOCTYPE svg PUBLIC "-//W3C//DTD SVG 20010904//EN"
 "http://www.w3.org/TR/2001/REC-SVG-20010904/DTD/svg10.dtd">
<svg version="1.0" xmlns="http://www.w3.org/2000/svg"
 width="88.000000pt" height="69.000000pt" viewBox="0 0 88.000000 69.000000"
 preserveAspectRatio="xMidYMid meet">
<metadata>
Created by potrace 1.16, written by Peter Selinger 2001-2019
</metadata>
<g transform="translate(0.000000,69.000000) scale(0.100000,-0.100000)"
fill="#000000" stroke="none">
<path d="M234 683 l-71 -4 4 -72 5 -72 -11 -28 -11 -28 -60 7 -60 7 -15 -13
-15 -12 0 -43 0 -43 31 -26 31 -26 24 -6 24 -6 45 4 45 3 3 -10 4 -10 -14 -55
-14 -55 -2 -20 -2 -20 85 -3 84 -3 13 -11 13 -10 -6 -53 -7 -53 21 -11 21 -11
49 0 50 0 23 19 24 19 0 64 0 63 35 0 35 -1 40 -7 40 -7 12 8 12 7 13 80 13
80 46 -3 46 -4 22 28 21 27 0 41 -1 41 -12 16 -12 16 -24 13 -25 13 -52 1 -53
0 6 83 6 83 -12 0 -12 0 -22 -15 -22 -14 -65 -17 -65 -16 -13 -11 -14 -11 5
-22 4 -22 -21 -6 -21 -6 -16 0 -16 0 -28 26 -27 25 6 43 7 43 -23 7 -23 6 -15
-2 -15 -2 -71 -3z"/>
</g>
</svg>
