<?xml version="1.0" standalone="no"?>
<!DOCTYPE svg PUBLIC "-//W3C//DTD SVG 20010904//EN"
 "http://www.w3.org/TR/2001/REC-SVG-20010904/DTD/svg10.dtd">
<svg version="1.0" xmlns="http://www.w3.org/2000/svg"
 width="86.000000pt" height="67.000000pt" viewBox="0 0 86.000000 67.000000"
 preserveAspectRatio="xMidYMid meet">
<metadata>
Created by potrace 1.16, written by Peter Selinger 2001-2019
</metadata>
<g transform="translate(0.000000,67.000000) scale(0.100000,-0.100000)"
fill="#000000" stroke="none">
<path d="M235 661 l-70 -6 0 -88 0 -89 -17 -12 -17 -13 -50 10 -50 11 -15 -13
-16 -13 0 -33 0 -33 31 -26 31 -26 24 -6 25 -7 44 6 44 6 5 -17 6 -17 -14 -55
-13 -55 -4 -15 -4 -15 86 -3 87 -3 15 -17 16 -17 -12 -43 -12 -44 20 -14 19
-14 41 0 41 0 21 15 21 15 6 28 6 27 -10 34 -10 35 13 9 12 8 56 -5 56 -5 14
-6 14 -5 12 8 12 7 13 80 13 80 46 -3 47 -3 21 27 21 27 0 31 -1 31 -12 16
-12 16 -24 13 -25 13 -53 -1 -54 0 7 85 7 85 -24 -15 -24 -16 -65 -17 -65 -16
-12 -10 -13 -10 6 -23 5 -22 -23 -7 -23 -6 -26 0 -26 0 -28 26 -27 25 4 44 5
43 -21 6 -21 6 -5 -2 -5 -2 -70 -5z"/>
</g>
</svg>
