<?xml version="1.0" standalone="no"?>
<!DOCTYPE svg PUBLIC "-//W3C//DTD SVG 20010904//EN"
 "http://www.w3.org/TR/2001/REC-SVG-20010904/DTD/svg10.dtd">
<svg version="1.0" xmlns="http://www.w3.org/2000/svg"
 width="58.000000pt" height="79.000000pt" viewBox="0 0 58.000000 79.000000"
 preserveAspectRatio="xMidYMid meet">
<metadata>
Created by potrace 1.16, written by Peter Selinger 2001-2019
</metadata>
<g transform="translate(0.000000,79.000000) scale(0.100000,-0.100000)"
fill="#000000" stroke="none">
<path d="M254 776 l-6 -14 12 -21 11 -21 -25 -25 -25 -25 -91 0 -90 0 0 -87 0
-88 13 -25 13 -25 53 -1 53 -1 9 -15 8 -15 -25 -24 -26 -24 -56 -1 -57 -1 -12
-1 -13 -2 0 -48 0 -48 21 -62 21 -62 87 0 87 0 11 -11 12 -12 -10 -24 -9 -24
6 -25 6 -25 18 -9 19 -10 50 0 50 0 26 10 27 10 -4 42 -3 43 45 8 45 8 38 10
37 10 0 261 0 261 -40 -7 -40 -6 -40 -6 -40 -7 -15 13 -15 12 11 20 11 20 -6
24 -7 25 -19 19 -20 20 -50 0 -51 0 -5 -14z"/>
</g>
</svg>
