<?xml version="1.0" standalone="no"?>
<!DOCTYPE svg PUBLIC "-//W3C//DTD SVG 20010904//EN"
 "http://www.w3.org/TR/2001/REC-SVG-20010904/DTD/svg10.dtd">
<svg version="1.0" xmlns="http://www.w3.org/2000/svg"
 width="56.000000pt" height="77.000000pt" viewBox="0 0 56.000000 77.000000"
 preserveAspectRatio="xMidYMid meet">
<metadata>
Created by potrace 1.16, written by Peter Selinger 2001-2019
</metadata>
<g transform="translate(0.000000,77.000000) scale(0.100000,-0.100000)"
fill="#000000" stroke="none">
<path d="M256 762 l-5 -8 10 -14 9 -15 0 -13 0 -13 -25 -24 -24 -25 -91 0 -90
0 0 -77 0 -78 13 -25 13 -25 53 0 54 0 10 -23 11 -23 -27 -27 -27 -27 -58 -1
-57 -2 -12 -1 -13 -1 0 -38 0 -38 21 -62 21 -62 88 0 88 0 11 -14 12 -14 -8
-29 -7 -28 3 -15 2 -15 17 -12 16 -13 42 0 43 0 26 10 25 10 -2 42 -3 42 45 9
45 8 38 10 37 10 0 251 0 250 -27 -6 -28 -6 -55 -6 -56 -6 -13 16 -14 17 12
25 11 25 -15 28 -14 29 -16 6 -17 6 -33 0 -34 0 -5 -8z"/>
</g>
</svg>
