<?xml version="1.0" standalone="no"?>
<!DOCTYPE svg PUBLIC "-//W3C//DTD SVG 20010904//EN"
 "http://www.w3.org/TR/2001/REC-SVG-20010904/DTD/svg10.dtd">
<svg version="1.0" xmlns="http://www.w3.org/2000/svg"
 width="70.000000pt" height="74.000000pt" viewBox="0 0 70.000000 74.000000"
 preserveAspectRatio="xMidYMid meet">
<metadata>
Created by potrace 1.16, written by Peter Selinger 2001-2019
</metadata>
<g transform="translate(0.000000,74.000000) scale(0.100000,-0.100000)"
fill="#000000" stroke="none">
<path d="M313 724 l-6 -15 12 -12 11 -11 0 -23 0 -24 -14 -34 -15 -35 -33 0
-34 0 1 52 0 52 -25 13 -25 13 -85 -2 -85 -3 0 -95 0 -95 50 0 50 -1 13 -7 12
-8 0 -43 0 -43 -18 -16 -18 -16 -37 11 -36 11 -16 -13 -16 -13 2 -100 2 -100
94 6 93 5 0 -51 0 -52 13 -25 13 -25 27 -13 28 -13 30 6 30 7 17 26 17 26 2
74 2 74 5 5 5 5 70 -21 69 -21 17 0 17 0 -7 90 -7 90 56 0 57 0 24 25 25 24 0
39 0 40 -15 12 -14 12 -58 -4 -58 -3 -5 97 -5 96 -5 5 -5 4 -61 16 -60 17 -47
0 -48 0 -6 -16z"/>
</g>
</svg>
