<?xml version="1.0" standalone="no"?>
<!DOCTYPE svg PUBLIC "-//W3C//DTD SVG 20010904//EN"
 "http://www.w3.org/TR/2001/REC-SVG-20010904/DTD/svg10.dtd">
<svg version="1.0" xmlns="http://www.w3.org/2000/svg"
 width="66.000000pt" height="71.000000pt" viewBox="0 0 66.000000 71.000000"
 preserveAspectRatio="xMidYMid meet">
<metadata>
Created by potrace 1.16, written by Peter Selinger 2001-2019
</metadata>
<g transform="translate(0.000000,71.000000) scale(0.100000,-0.100000)"
fill="#000000" stroke="none">
<path d="M358 704 l-8 -7 6 -53 7 -52 -26 -26 -26 -26 -51 0 -51 0 -15 14 -14
15 0 16 0 16 11 21 12 21 -19 14 -18 13 -80 0 -81 0 3 -82 2 -83 5 -22 5 -22
55 6 56 6 24 -13 24 -13 5 -14 6 -14 -13 -19 -12 -20 -32 -11 -32 -10 -22 11
-22 12 -7 -13 -8 -12 -6 -41 -5 -41 -7 -58 -6 -57 93 2 94 3 13 -8 12 -8 -11
-21 -11 -21 5 -41 6 -40 17 -13 18 -13 36 0 36 0 19 14 19 14 -12 27 -13 28 8
7 8 7 73 22 73 22 5 12 4 13 -20 58 -20 59 0 39 0 38 13 1 12 1 57 2 58 1 27
27 27 27 -11 23 -10 23 -54 0 -53 0 -13 25 -13 25 0 78 0 78 -34 14 -34 14
-39 7 -38 6 -7 -8z"/>
</g>
</svg>
