<?xml version="1.0" standalone="no"?>
<!DOCTYPE svg PUBLIC "-//W3C//DTD SVG 20010904//EN"
 "http://www.w3.org/TR/2001/REC-SVG-20010904/DTD/svg10.dtd">
<svg version="1.0" xmlns="http://www.w3.org/2000/svg"
 width="81.000000pt" height="65.000000pt" viewBox="0 0 81.000000 65.000000"
 preserveAspectRatio="xMidYMid meet">
<metadata>
Created by potrace 1.16, written by Peter Selinger 2001-2019
</metadata>
<g transform="translate(0.000000,65.000000) scale(0.100000,-0.100000)"
fill="#000000" stroke="none">
<path d="M453 588 l2 -62 -28 -14 -28 -14 -22 6 -22 6 -14 9 -13 9 13 37 14
37 -20 14 -19 14 -94 0 -95 0 6 -63 6 -63 -9 -38 -8 -38 -6 -6 -7 -6 -42 12
-42 11 -12 -16 -13 -17 0 -25 1 -26 13 -18 14 -19 22 12 22 12 10 -10 11 -11
14 -78 14 -78 1 -24 0 -24 79 6 79 5 20 -5 19 -5 -6 -43 -5 -42 23 -17 23 -16
32 0 33 0 21 27 21 28 -3 45 -3 45 31 3 31 3 67 -15 67 -16 7 0 7 0 2 23 2 22
14 78 14 78 10 10 10 10 27 -11 27 -10 20 10 19 11 0 43 0 44 -19 23 -18 23
-42 -14 -42 -13 -16 16 -17 16 -5 73 -6 73 -45 12 -45 11 -52 1 -53 1 3 -62z"/>
</g>
</svg>
