<?xml version="1.0" standalone="no"?>
<!DOCTYPE svg PUBLIC "-//W3C//DTD SVG 20010904//EN"
 "http://www.w3.org/TR/2001/REC-SVG-20010904/DTD/svg10.dtd">
<svg version="1.0" xmlns="http://www.w3.org/2000/svg"
 width="81.000000pt" height="54.000000pt" viewBox="0 0 81.000000 54.000000"
 preserveAspectRatio="xMidYMid meet">
<metadata>
Created by potrace 1.16, written by Peter Selinger 2001-2019
</metadata>
<g transform="translate(0.000000,54.000000) scale(0.100000,-0.100000)"
fill="#000000" stroke="none">
<path d="M156 486 l7 -54 -7 -36 -7 -36 -63 6 -64 7 -11 -21 -11 -21 0 -41 0
-41 26 -26 26 -26 53 6 54 5 6 -19 6 -19 -6 -58 -6 -57 -5 -27 -5 -26 63 4 63
5 31 5 31 4 23 20 22 19 -3 46 -3 47 17 10 18 9 28 -6 28 -6 -1 -42 -1 -41 25
-7 25 -8 65 -21 65 -21 18 -6 17 -5 0 99 0 99 13 18 13 18 22 -13 21 -13 28
20 28 21 3 35 3 35 -20 24 -19 24 -33 -12 -33 -13 -16 15 -15 15 -3 75 -4 75
-8 0 -8 0 -59 -14 -58 -14 -29 -7 -28 -6 4 -35 4 -35 -18 -10 -19 -10 -42 3
-42 3 3 52 3 52 -30 15 -30 16 -81 0 -80 0 6 -54z"/>
</g>
</svg>
