<?xml version="1.0" standalone="no"?>
<!DOCTYPE svg PUBLIC "-//W3C//DTD SVG 20010904//EN"
 "http://www.w3.org/TR/2001/REC-SVG-20010904/DTD/svg10.dtd">
<svg version="1.0" xmlns="http://www.w3.org/2000/svg"
 width="79.000000pt" height="52.000000pt" viewBox="0 0 79.000000 52.000000"
 preserveAspectRatio="xMidYMid meet">
<metadata>
Created by potrace 1.16, written by Peter Selinger 2001-2019
</metadata>
<g transform="translate(0.000000,52.000000) scale(0.100000,-0.100000)"
fill="#000000" stroke="none">
<path d="M158 465 l4 -54 -6 -37 -7 -36 -64 7 -64 6 -10 -20 -11 -20 0 -31 0
-31 26 -26 25 -25 54 7 53 6 7 -20 6 -21 -7 -80 -7 -80 61 0 61 0 26 10 27 10
15 16 16 15 -7 45 -6 45 24 11 24 11 36 -7 36 -7 -2 -41 -3 -42 25 -7 25 -8
65 -19 65 -20 7 11 8 12 0 78 0 78 10 20 11 19 17 0 18 0 10 -10 11 -11 26 21
27 21 0 24 0 23 -17 21 -18 21 -32 -12 -33 -12 -17 17 -18 17 -3 76 -4 75 -16
-6 -15 -6 -46 -9 -46 -10 -24 -6 -23 -5 6 -34 7 -34 -20 -10 -20 -11 -50 0
-50 0 -11 20 -11 20 11 19 10 20 0 15 0 15 -30 16 -29 15 -69 0 -69 0 5 -55z"/>
</g>
</svg>
