<?xml version="1.0" standalone="no"?>
<!DOCTYPE svg PUBLIC "-//W3C//DTD SVG 20010904//EN"
 "http://www.w3.org/TR/2001/REC-SVG-20010904/DTD/svg10.dtd">
<svg version="1.0" xmlns="http://www.w3.org/2000/svg"
 width="83.000000pt" height="52.000000pt" viewBox="0 0 83.000000 52.000000"
 preserveAspectRatio="xMidYMid meet">
<metadata>
Created by potrace 1.16, written by Peter Selinger 2001-2019
</metadata>
<g transform="translate(0.000000,52.000000) scale(0.100000,-0.100000)"
fill="#000000" stroke="none">
<path d="M173 434 l1 -86 -20 -15 -19 -14 -57 6 -58 7 -10 -27 -10 -26 0 -15
0 -14 21 -21 21 -21 57 7 58 7 6 -24 7 -23 0 -82 0 -83 109 0 110 0 5 9 5 8
-11 31 -12 31 10 28 9 28 36 3 37 3 17 -17 17 -17 -6 -41 -6 -41 8 -12 7 -11
87 -4 86 -3 0 15 0 15 11 75 12 75 11 28 11 27 51 -2 51 -3 3 24 4 23 -6 24
-6 23 -18 10 -18 9 -43 -11 -43 -12 -14 20 -14 19 0 78 0 78 -89 0 -89 0 -10
-12 -10 -13 9 -20 8 -20 0 -27 1 -28 -20 -20 -20 -20 -31 0 -30 0 -16 16 -16
15 11 36 11 36 -9 17 -10 18 -31 11 -32 11 -62 0 -63 0 1 -86z"/>
</g>
</svg>
