<?xml version="1.0" standalone="no"?>
<!DOCTYPE svg PUBLIC "-//W3C//DTD SVG 20010904//EN"
 "http://www.w3.org/TR/2001/REC-SVG-20010904/DTD/svg10.dtd">
<svg version="1.0" xmlns="http://www.w3.org/2000/svg"
 width="70.000000pt" height="54.000000pt" viewBox="0 0 70.000000 54.000000"
 preserveAspectRatio="xMidYMid meet">
<metadata>
Created by potrace 1.16, written by Peter Selinger 2001-2019
</metadata>
<g transform="translate(0.000000,54.000000) scale(0.100000,-0.100000)"
fill="#000000" stroke="none">
<path d="M10 454 l0 -85 11 -21 11 -21 64 7 63 6 11 -19 10 -20 0 -19 0 -19
-21 -27 -20 -26 -53 6 -53 6 -7 -32 -6 -32 0 -54 0 -54 -10 0 -10 0 0 -20 0
-20 68 0 67 0 37 10 38 11 11 21 11 21 -6 48 -7 49 36 0 35 0 20 -32 20 -33
-7 -15 -7 -15 0 -35 -1 -35 98 0 99 0 12 17 13 18 7 84 6 84 6 16 6 16 52 -6
52 -6 17 17 17 16 0 24 0 24 -22 15 -22 16 -24 0 -23 0 -18 -10 -18 -9 -19 14
-19 13 -4 92 -3 92 -22 -6 -21 -6 -65 -18 -65 -18 0 -37 0 -38 -15 -9 -15 -10
-32 0 -32 0 -20 29 -21 29 0 11 0 11 12 19 11 18 -6 17 -6 16 -111 0 -110 0 0
-86z"/>
</g>
</svg>
