<?xml version="1.0" standalone="no"?>
<!DOCTYPE svg PUBLIC "-//W3C//DTD SVG 20010904//EN"
 "http://www.w3.org/TR/2001/REC-SVG-20010904/DTD/svg10.dtd">
<svg version="1.0" xmlns="http://www.w3.org/2000/svg"
 width="70.000000pt" height="66.000000pt" viewBox="0 0 70.000000 66.000000"
 preserveAspectRatio="xMidYMid meet">
<metadata>
Created by potrace 1.16, written by Peter Selinger 2001-2019
</metadata>
<g transform="translate(0.000000,66.000000) scale(0.100000,-0.100000)"
fill="#000000" stroke="none">
<path d="M578 653 l-86 -4 -13 -15 -13 -16 12 -19 12 -19 0 -8 0 -9 -19 -21
-18 -22 -26 0 -26 0 -20 26 -21 26 10 18 10 19 0 20 0 21 -104 0 -103 0 -6
-81 -5 -82 -20 -26 -20 -26 -18 2 -19 2 -26 6 -26 7 -16 -17 -17 -16 0 -30 0
-29 21 -21 21 -21 44 6 43 5 5 -8 6 -9 11 -101 12 -101 33 6 34 6 12 1 13 0
28 -1 27 -2 20 -20 20 -20 -11 -24 -12 -25 6 -15 6 -16 66 0 66 0 25 28 26 27
-5 37 -5 36 20 5 19 5 62 -9 62 -9 9 0 9 0 -7 92 -7 92 -12 14 -11 14 -43 -6
-42 -6 -16 22 -15 22 0 32 0 32 15 12 15 13 33 -6 32 -6 33 -7 32 -6 0 100 0
100 -6 16 -6 16 -12 -2 -11 -2 -87 -3z"/>
</g>
</svg>
