<?xml version="1.0" standalone="no"?>
<!DOCTYPE svg PUBLIC "-//W3C//DTD SVG 20010904//EN"
 "http://www.w3.org/TR/2001/REC-SVG-20010904/DTD/svg10.dtd">
<svg version="1.0" xmlns="http://www.w3.org/2000/svg"
 width="68.000000pt" height="64.000000pt" viewBox="0 0 68.000000 64.000000"
 preserveAspectRatio="xMidYMid meet">
<metadata>
Created by potrace 1.16, written by Peter Selinger 2001-2019
</metadata>
<g transform="translate(0.000000,64.000000) scale(0.100000,-0.100000)"
fill="#000000" stroke="none">
<path d="M580 632 l-84 -3 -13 -11 -14 -11 11 -11 10 -10 0 -21 0 -22 -19 -21
-18 -22 -36 0 -36 0 -21 27 -21 27 5 18 6 18 6 20 6 20 -94 0 -95 0 -6 -81 -5
-82 -20 -26 -19 -26 -29 1 -29 1 -16 7 -16 7 -17 -16 -16 -16 0 -20 0 -19 21
-21 20 -20 43 6 44 7 6 -10 6 -10 11 -100 12 -99 38 8 39 9 42 -9 42 -10 14
-18 13 -18 -6 -20 -6 -20 -2 -15 -2 -15 58 -3 57 -3 25 27 25 27 0 14 0 14
-10 20 -11 19 27 10 27 11 46 -6 46 -6 24 -5 24 -5 -8 83 -7 83 -10 13 -11 13
-42 -7 -43 -6 -16 23 -16 23 0 42 0 42 15 12 15 13 48 -6 47 -6 18 -6 17 -7 0
93 0 94 -8 10 -7 10 -85 -3z"/>
</g>
</svg>
