<?xml version="1.0" standalone="no"?>
<!DOCTYPE svg PUBLIC "-//W3C//DTD SVG 20010904//EN"
 "http://www.w3.org/TR/2001/REC-SVG-20010904/DTD/svg10.dtd">
<svg version="1.0" xmlns="http://www.w3.org/2000/svg"
 width="85.000000pt" height="65.000000pt" viewBox="0 0 85.000000 65.000000"
 preserveAspectRatio="xMidYMid meet">
<metadata>
Created by potrace 1.16, written by Peter Selinger 2001-2019
</metadata>
<g transform="translate(0.000000,65.000000) scale(0.100000,-0.100000)"
fill="#000000" stroke="none">
<path d="M160 555 l0 -94 -65 6 -65 6 -15 -13 -15 -12 0 -52 0 -52 16 -23 17
-23 43 5 44 5 9 -12 9 -11 7 -84 8 -83 81 7 81 6 -3 -53 -4 -54 27 -12 26 -12
47 0 47 0 15 10 15 9 -1 38 -1 38 -4 15 -4 15 98 0 97 0 6 17 5 16 -21 61 -20
60 0 18 0 18 68 0 67 1 32 17 33 17 6 24 6 24 -11 21 -11 20 -42 12 -42 11
-34 -6 -34 -5 4 94 4 94 -14 6 -14 5 -66 -1 -67 -1 -25 -7 -25 -7 0 -47 0 -48
-15 -9 -15 -10 -42 0 -43 0 -1 13 -2 12 -2 20 -2 20 -1 17 -2 17 -30 16 -29
15 -66 0 -65 0 0 -95z"/>
</g>
</svg>
