<?xml version="1.0" standalone="no"?>
<!DOCTYPE svg PUBLIC "-//W3C//DTD SVG 20010904//EN"
 "http://www.w3.org/TR/2001/REC-SVG-20010904/DTD/svg10.dtd">
<svg version="1.0" xmlns="http://www.w3.org/2000/svg"
 width="69.000000pt" height="66.000000pt" viewBox="0 0 69.000000 66.000000"
 preserveAspectRatio="xMidYMid meet">
<metadata>
Created by potrace 1.16, written by Peter Selinger 2001-2019
</metadata>
<g transform="translate(0.000000,66.000000) scale(0.100000,-0.100000)"
fill="#000000" stroke="none">
<path d="M46 645 l-6 -17 0 -93 0 -94 58 1 57 2 23 -12 22 -13 0 -19 0 -19
-32 -18 -33 -17 -67 1 -68 1 0 -37 0 -38 15 -49 15 -49 0 -22 0 -21 102 1 101
2 1 -53 1 -54 20 -15 20 -15 58 4 59 4 9 15 9 14 -2 29 -3 30 30 7 30 7 48 7
47 6 0 30 0 30 -11 69 -10 69 10 19 11 20 40 -10 41 -11 25 11 24 12 0 49 0
49 -16 13 -16 13 -28 -11 -29 -11 -18 20 -18 20 0 74 1 74 -11 0 -10 0 -75
-14 -75 -15 -18 -7 -18 -6 3 -36 3 -35 -32 -19 -32 -19 -26 25 -26 26 3 53 3
52 -101 3 -102 3 -6 -16z"/>
</g>
</svg>
