<?xml version="1.0" standalone="no"?>
<!DOCTYPE svg PUBLIC "-//W3C//DTD SVG 20010904//EN"
 "http://www.w3.org/TR/2001/REC-SVG-20010904/DTD/svg10.dtd">
<svg version="1.0" xmlns="http://www.w3.org/2000/svg"
 width="67.000000pt" height="64.000000pt" viewBox="0 0 67.000000 64.000000"
 preserveAspectRatio="xMidYMid meet">
<metadata>
Created by potrace 1.16, written by Peter Selinger 2001-2019
</metadata>
<g transform="translate(0.000000,64.000000) scale(0.100000,-0.100000)"
fill="#000000" stroke="none">
<path d="M46 625 l-6 -17 0 -85 0 -85 35 6 35 7 40 -11 40 -11 10 -19 11 -20
-10 -19 -10 -18 -33 -14 -33 -14 -62 1 -63 1 0 -31 1 -31 18 -54 19 -54 -5
-13 -4 -12 84 5 85 6 26 -7 25 -6 -10 -27 -10 -26 6 -29 7 -28 20 -11 21 -11
44 5 44 5 7 7 7 7 0 36 0 36 30 7 30 7 49 7 49 7 -7 51 -6 52 -6 50 -6 50 14
18 14 19 42 -11 42 -12 20 11 20 11 0 38 0 39 -14 11 -14 12 -26 -13 -27 -12
-22 22 -22 23 0 74 0 75 0 0 0 0 -75 -14 -75 -15 -17 -6 -18 -7 0 -7 0 -6 9
-14 10 -15 -10 -18 -10 -18 -30 -15 -30 -16 -20 6 -20 7 -15 23 -16 24 4 48 3
48 -91 3 -92 3 -6 -16z"/>
</g>
</svg>
