<?xml version="1.0" standalone="no"?>
<!DOCTYPE svg PUBLIC "-//W3C//DTD SVG 20010904//EN"
 "http://www.w3.org/TR/2001/REC-SVG-20010904/DTD/svg10.dtd">
<svg version="1.0" xmlns="http://www.w3.org/2000/svg"
 width="68.000000pt" height="69.000000pt" viewBox="0 0 68.000000 69.000000"
 preserveAspectRatio="xMidYMid meet">
<metadata>
Created by potrace 1.16, written by Peter Selinger 2001-2019
</metadata>
<g transform="translate(0.000000,69.000000) scale(0.100000,-0.100000)"
fill="#000000" stroke="none">
<path d="M201 683 l-54 -4 5 -82 6 -82 -4 -11 -4 -10 -58 4 -58 4 -17 -17 -17
-16 0 -44 0 -45 25 -16 25 -17 62 7 61 7 -5 -76 -5 -76 -12 -12 -11 -11 0 -18
0 -17 95 2 94 2 18 -17 17 -18 -12 -12 -12 -12 0 -28 0 -28 21 -21 21 -21 42
5 41 6 22 26 23 26 0 46 0 46 85 -5 85 -4 0 16 0 16 -11 11 -10 10 -15 84 -14
84 -15 14 -14 15 -24 -13 -24 -13 -22 11 -21 12 -6 23 -6 24 17 26 17 25 34
11 35 12 30 -12 30 -13 7 8 7 7 -3 86 -3 86 -4 4 -4 5 -103 1 -103 1 3 -58 3
-58 -12 -15 -11 -14 -28 0 -27 0 -28 26 -28 25 6 44 6 43 -15 6 -16 6 -26 -2
-27 -2 -54 -3z"/>
</g>
</svg>
