<?xml version="1.0" standalone="no"?>
<!DOCTYPE svg PUBLIC "-//W3C//DTD SVG 20010904//EN"
 "http://www.w3.org/TR/2001/REC-SVG-20010904/DTD/svg10.dtd">
<svg version="1.0" xmlns="http://www.w3.org/2000/svg"
 width="69.000000pt" height="54.000000pt" viewBox="0 0 69.000000 54.000000"
 preserveAspectRatio="xMidYMid meet">
<metadata>
Created by potrace 1.16, written by Peter Selinger 2001-2019
</metadata>
<g transform="translate(0.000000,54.000000) scale(0.100000,-0.100000)"
fill="#000000" stroke="none">
<path d="M208 533 l-58 -4 0 -80 0 -80 -10 -18 -9 -18 -45 10 -45 10 -15 -12
-15 -13 -6 -32 -6 -31 11 -29 10 -29 40 6 39 5 10 -12 11 -13 9 -68 10 -68 -6
-28 -5 -29 94 0 94 0 19 14 18 13 -7 57 -6 56 26 11 27 10 34 -12 33 -11 10
-17 9 -18 -5 -34 -5 -34 10 -14 9 -14 87 -5 86 -5 10 10 9 9 -20 85 -21 84 -7
30 -8 30 -29 3 -30 4 -9 8 -9 9 18 27 17 26 48 -6 49 -6 6 10 7 11 -8 99 -7
100 -18 0 -18 0 -6 -10 -6 -10 -57 -16 -57 -16 -33 -10 -33 -10 1 -31 2 -32
-1 -12 -1 -13 -39 0 -39 0 -13 17 -14 16 3 69 2 68 -42 -2 -43 -2 -57 -3z"/>
</g>
</svg>
