<?xml version="1.0" standalone="no"?>
<!DOCTYPE svg PUBLIC "-//W3C//DTD SVG 20010904//EN"
 "http://www.w3.org/TR/2001/REC-SVG-20010904/DTD/svg10.dtd">
<svg version="1.0" xmlns="http://www.w3.org/2000/svg"
 width="78.000000pt" height="66.000000pt" viewBox="0 0 78.000000 66.000000"
 preserveAspectRatio="xMidYMid meet">
<metadata>
Created by potrace 1.16, written by Peter Selinger 2001-2019
</metadata>
<g transform="translate(0.000000,66.000000) scale(0.100000,-0.100000)"
fill="#000000" stroke="none">
<path d="M191 653 l-64 -4 6 -95 6 -94 -54 0 -54 0 -15 -22 -16 -22 0 -26 0
-25 9 -14 9 -14 26 7 26 6 9 -22 8 -23 19 -98 19 -98 20 6 20 5 71 6 71 7 6
-42 5 -42 16 -24 16 -25 58 0 58 0 12 12 12 12 0 18 0 19 13 3 12 4 73 22 72
23 1 16 0 16 28 85 28 85 32 3 31 3 0 58 0 58 -20 18 -19 18 -40 -7 -40 -6 -6
11 -7 11 1 83 1 84 -42 6 -43 6 -50 -3 -50 -3 3 -57 4 -57 -26 -26 -25 -25
-20 0 -21 0 -15 24 -16 24 -2 34 -1 33 8 28 8 27 -53 -2 -54 -2 -64 -3z"/>
</g>
</svg>
