<?xml version="1.0" standalone="no"?>
<!DOCTYPE svg PUBLIC "-//W3C//DTD SVG 20010904//EN"
 "http://www.w3.org/TR/2001/REC-SVG-20010904/DTD/svg10.dtd">
<svg version="1.0" xmlns="http://www.w3.org/2000/svg"
 width="76.000000pt" height="64.000000pt" viewBox="0 0 76.000000 64.000000"
 preserveAspectRatio="xMidYMid meet">
<metadata>
Created by potrace 1.16, written by Peter Selinger 2001-2019
</metadata>
<g transform="translate(0.000000,64.000000) scale(0.100000,-0.100000)"
fill="#000000" stroke="none">
<path d="M192 633 l-64 -4 4 -97 3 -97 -52 3 -51 4 -17 -26 -17 -26 6 -25 6
-24 29 5 29 6 5 -9 6 -10 22 -94 21 -94 0 -17 -1 -17 13 5 12 5 85 7 86 8 -1
-41 -1 -41 18 -27 17 -27 50 0 49 0 8 13 7 12 1 14 0 14 15 8 15 7 72 22 72
22 0 17 0 16 29 85 29 85 32 3 31 3 0 48 0 48 -19 17 -18 17 -40 -7 -40 -6 -9
13 -8 13 2 82 2 83 -43 6 -42 7 -40 -4 -40 -3 3 -57 4 -57 -26 -26 -25 -25
-30 0 -31 0 -14 23 -15 22 -6 35 -6 35 10 28 11 27 -43 -2 -42 -2 -63 -3z"/>
</g>
</svg>
