<?xml version="1.0" standalone="no"?>
<!DOCTYPE svg PUBLIC "-//W3C//DTD SVG 20010904//EN"
 "http://www.w3.org/TR/2001/REC-SVG-20010904/DTD/svg10.dtd">
<svg version="1.0" xmlns="http://www.w3.org/2000/svg"
 width="68.000000pt" height="65.000000pt" viewBox="0 0 68.000000 65.000000"
 preserveAspectRatio="xMidYMid meet">
<metadata>
Created by potrace 1.16, written by Peter Selinger 2001-2019
</metadata>
<g transform="translate(0.000000,65.000000) scale(0.100000,-0.100000)"
fill="#000000" stroke="none">
<path d="M6 619 l-6 -31 0 -60 0 -60 53 6 53 7 18 -20 19 -21 0 -41 0 -41 -21
-20 -20 -20 -38 12 -37 13 -14 -19 -13 -18 0 -55 0 -56 6 -38 7 -38 81 3 80 3
-3 -42 -2 -42 11 -20 11 -21 64 0 64 0 22 31 22 31 -6 49 -6 49 23 0 22 0 53
-16 53 -15 6 6 6 6 -14 47 -13 47 -1 35 -1 35 70 -3 70 -3 22 21 23 21 6 24 6
25 -7 45 -6 46 -50 -7 -50 -7 -19 18 -20 18 0 74 0 74 -107 -3 -108 -3 3 -57
3 -57 -20 -20 -21 -21 -13 0 -14 0 -18 20 -19 21 12 33 12 33 -6 17 -7 18 -24
9 -24 9 -83 0 -83 0 -7 -31z"/>
</g>
</svg>
