<?xml version="1.0" standalone="no"?>
<!DOCTYPE svg PUBLIC "-//W3C//DTD SVG 20010904//EN"
 "http://www.w3.org/TR/2001/REC-SVG-20010904/DTD/svg10.dtd">
<svg version="1.0" xmlns="http://www.w3.org/2000/svg"
 width="70.000000pt" height="70.000000pt" viewBox="0 0 70.000000 70.000000"
 preserveAspectRatio="xMidYMid meet">
<metadata>
Created by potrace 1.16, written by Peter Selinger 2001-2019
</metadata>
<g transform="translate(0.000000,70.000000) scale(0.100000,-0.100000)"
fill="#000000" stroke="none">
<path d="M198 693 l-18 -4 -6 -25 -6 -25 9 -38 10 -38 -9 -17 -9 -16 -84 0
-85 0 0 -75 0 -74 11 -25 11 -24 22 -6 21 -6 43 0 43 0 -3 -42 -3 -43 -37 3
-38 4 -9 -24 -9 -23 -26 -83 -26 -83 0 -8 0 -8 48 -6 47 -6 48 8 48 8 14 19
14 19 1 38 0 37 38 0 38 0 19 -14 19 -13 0 -39 1 -38 25 -7 25 -7 81 -1 80 -1
16 48 17 47 15 55 15 55 43 0 43 0 3 47 3 47 -26 17 -25 17 -50 -5 -50 -5 -7
26 -7 26 0 70 -1 70 -100 0 -100 0 3 62 4 62 -26 26 -25 25 -38 -1 -38 -1 -17
-5z"/>
</g>
</svg>
