<?xml version="1.0" standalone="no"?>
<!DOCTYPE svg PUBLIC "-//W3C//DTD SVG 20010904//EN"
 "http://www.w3.org/TR/2001/REC-SVG-20010904/DTD/svg10.dtd">
<svg version="1.0" xmlns="http://www.w3.org/2000/svg"
 width="68.000000pt" height="68.000000pt" viewBox="0 0 68.000000 68.000000"
 preserveAspectRatio="xMidYMid meet">
<metadata>
Created by potrace 1.16, written by Peter Selinger 2001-2019
</metadata>
<g transform="translate(0.000000,68.000000) scale(0.100000,-0.100000)"
fill="#000000" stroke="none">
<path d="M198 673 l-17 -4 -6 -19 -6 -19 11 -40 11 -41 -11 -20 -11 -20 -84 0
-85 0 0 -65 0 -64 12 -25 11 -26 31 -6 32 -5 28 3 29 3 8 -28 7 -27 -7 -28 -8
-27 -36 3 -37 3 -9 -23 -10 -23 -21 -70 -21 -70 -5 -11 -5 -11 38 -5 39 -6 47
8 48 7 14 19 15 19 -3 37 -3 38 51 0 51 0 20 -14 19 -15 0 -37 0 -38 25 -7 25
-7 71 -1 70 -1 16 48 17 47 15 57 16 57 43 -2 42 -2 3 37 3 37 -26 17 -25 17
-49 -7 -49 -6 -8 22 -8 23 0 75 -1 75 -100 0 -100 0 0 68 0 69 -24 19 -23 19
-27 -1 -26 -1 -17 -5z"/>
</g>
</svg>
