<?xml version="1.0" standalone="no"?>
<!DOCTYPE svg PUBLIC "-//W3C//DTD SVG 20010904//EN"
 "http://www.w3.org/TR/2001/REC-SVG-20010904/DTD/svg10.dtd">
<svg version="1.0" xmlns="http://www.w3.org/2000/svg"
 width="70.000000pt" height="81.000000pt" viewBox="0 0 70.000000 81.000000"
 preserveAspectRatio="xMidYMid meet">
<metadata>
Created by potrace 1.16, written by Peter Selinger 2001-2019
</metadata>
<g transform="translate(0.000000,81.000000) scale(0.100000,-0.100000)"
fill="#000000" stroke="none">
<path d="M375 793 l-17 -16 4 -66 3 -65 -100 -1 -100 0 -5 -72 -5 -72 -11 -11
-12 -12 -20 11 -21 11 -24 0 -24 0 -16 -18 -16 -18 -6 -40 -7 -40 15 -36 15
-35 26 -7 26 -6 20 10 19 10 5 -18 6 -17 10 -74 10 -73 6 -9 5 -8 44 6 43 6
47 -7 46 -7 20 -20 19 -19 -11 -24 -12 -25 6 -15 6 -16 63 0 63 0 12 8 12 7 3
40 3 40 70 11 70 11 18 8 17 7 0 7 0 6 -19 50 -19 50 -7 44 -7 43 -20 20 -20
20 -33 -6 -33 -7 -7 21 -6 20 13 27 14 28 54 -3 55 -2 15 10 15 9 4 86 3 85
-14 5 -14 6 -59 -16 -59 -15 -32 0 -32 0 -5 13 -5 12 5 66 6 65 -17 17 -17 17
-34 0 -34 0 -16 -17z"/>
</g>
</svg>
