<?xml version="1.0" standalone="no"?>
<!DOCTYPE svg PUBLIC "-//W3C//DTD SVG 20010904//EN"
 "http://www.w3.org/TR/2001/REC-SVG-20010904/DTD/svg10.dtd">
<svg version="1.0" xmlns="http://www.w3.org/2000/svg"
 width="74.000000pt" height="69.000000pt" viewBox="0 0 74.000000 69.000000"
 preserveAspectRatio="xMidYMid meet">
<metadata>
Created by potrace 1.16, written by Peter Selinger 2001-2019
</metadata>
<g transform="translate(0.000000,69.000000) scale(0.100000,-0.100000)"
fill="#000000" stroke="none">
<path d="M262 634 l3 -56 -26 -20 -27 -20 -78 -7 -78 -6 -8 -33 -9 -33 3 -57
3 -57 54 0 53 0 15 -22 15 -22 -7 -31 -7 -31 -23 -15 -23 -15 -49 7 -49 6 -14
-17 -14 -16 11 -57 11 -57 8 -30 7 -30 10 -6 9 -7 105 2 105 2 15 19 14 20 -5
46 -6 46 16 14 16 13 26 -15 27 -15 -3 -40 -3 -40 23 -11 23 -12 70 -10 70
-10 23 -7 22 -6 0 15 0 15 11 4 10 3 23 80 22 80 32 -3 32 -3 11 28 11 28 -5
43 -5 43 -21 20 -22 20 -47 -2 -47 -3 -5 79 -5 80 -25 -1 -25 -1 -57 -13 -57
-13 -16 7 -16 6 7 64 7 65 -17 26 -16 25 -55 0 -55 0 2 -56z"/>
</g>
</svg>
