<?xml version="1.0" standalone="no"?>
<!DOCTYPE svg PUBLIC "-//W3C//DTD SVG 20010904//EN"
 "http://www.w3.org/TR/2001/REC-SVG-20010904/DTD/svg10.dtd">
<svg version="1.0" xmlns="http://www.w3.org/2000/svg"
 width="64.000000pt" height="81.000000pt" viewBox="0 0 64.000000 81.000000"
 preserveAspectRatio="xMidYMid meet">
<metadata>
Created by potrace 1.16, written by Peter Selinger 2001-2019
</metadata>
<g transform="translate(0.000000,81.000000) scale(0.100000,-0.100000)"
fill="#000000" stroke="none">
<path d="M190 790 l-20 -20 10 -20 10 -19 0 -22 0 -22 -17 -13 -18 -13 -77 -1
-78 0 0 -250 0 -250 58 0 57 0 35 -18 35 -17 -3 -53 -3 -52 26 -10 26 -10 24
0 24 0 31 30 31 31 -3 41 -3 41 34 9 35 10 58 -4 59 -3 18 60 19 60 7 35 7 35
10 12 10 13 24 -6 24 -6 0 48 0 49 -9 14 -9 14 -57 -7 -58 -7 6 96 5 95 -6 0
-7 0 -63 -20 -64 -20 -38 0 -39 0 -9 17 -10 16 9 31 9 31 0 32 0 32 -16 15
-15 16 -30 0 -29 0 -20 -20z"/>
</g>
</svg>
