<?xml version="1.0" standalone="no"?>
<!DOCTYPE svg PUBLIC "-//W3C//DTD SVG 20010904//EN"
 "http://www.w3.org/TR/2001/REC-SVG-20010904/DTD/svg10.dtd">
<svg version="1.0" xmlns="http://www.w3.org/2000/svg"
 width="66.000000pt" height="83.000000pt" viewBox="0 0 66.000000 83.000000"
 preserveAspectRatio="xMidYMid meet">
<metadata>
Created by potrace 1.16, written by Peter Selinger 2001-2019
</metadata>
<g transform="translate(0.000000,83.000000) scale(0.100000,-0.100000)"
fill="#000000" stroke="none">
<path d="M202 823 l-12 -5 -11 -19 -10 -20 12 -34 13 -35 -20 -15 -19 -14 -77
-1 -78 0 0 -260 0 -260 58 0 57 0 35 -18 35 -17 -3 -52 -4 -53 27 -10 26 -10
34 0 34 0 31 30 31 31 -3 41 -3 42 35 9 35 9 58 -5 57 -5 20 66 19 67 9 35 8
35 32 3 32 3 0 57 0 57 -9 14 -9 14 -57 -5 -58 -5 7 94 6 93 -16 0 -16 0 -68
-21 -68 -20 -29 3 -28 3 3 76 4 76 -17 16 -16 17 -37 -1 -37 -1 -13 -5z"/>
</g>
</svg>
