<?xml version="1.0" standalone="no"?>
<!DOCTYPE svg PUBLIC "-//W3C//DTD SVG 20010904//EN"
 "http://www.w3.org/TR/2001/REC-SVG-20010904/DTD/svg10.dtd">
<svg version="1.0" xmlns="http://www.w3.org/2000/svg"
 width="83.000000pt" height="81.000000pt" viewBox="0 0 83.000000 81.000000"
 preserveAspectRatio="xMidYMid meet">
<metadata>
Created by potrace 1.16, written by Peter Selinger 2001-2019
</metadata>
<g transform="translate(0.000000,81.000000) scale(0.100000,-0.100000)"
fill="#000000" stroke="none">
<path d="M351 800 l-23 -10 7 -27 7 -28 0 -5 0 -5 -1 -18 -1 -18 -35 -15 -34
-14 -53 0 -53 0 -10 -8 -10 -7 -1 -56 -1 -56 -12 -21 -11 -21 -21 -6 -21 -7
-11 11 -11 11 -18 0 -17 0 -11 -19 -10 -20 0 -49 0 -49 26 -26 26 -27 34 -6
34 -6 30 4 30 5 0 -31 0 -31 -20 -44 -20 -43 0 -8 0 -8 80 -4 80 -3 22 -22 22
-23 -12 -12 -12 -12 0 -19 0 -20 18 -13 17 -13 57 -1 57 0 26 10 27 10 -4 37
-3 37 30 8 30 7 58 12 59 11 -5 21 -5 22 -16 40 -15 40 -1 30 0 30 69 -3 69
-4 21 30 21 30 0 41 0 42 -26 26 -26 25 -39 -5 -40 -5 -11 26 -10 27 5 57 5
57 -101 3 -102 3 3 56 4 55 -16 13 -16 13 -43 4 -42 4 -24 -10z"/>
</g>
</svg>
