<?xml version="1.0" standalone="no"?>
<!DOCTYPE svg PUBLIC "-//W3C//DTD SVG 20010904//EN"
 "http://www.w3.org/TR/2001/REC-SVG-20010904/DTD/svg10.dtd">
<svg version="1.0" xmlns="http://www.w3.org/2000/svg"
 width="81.000000pt" height="79.000000pt" viewBox="0 0 81.000000 79.000000"
 preserveAspectRatio="xMidYMid meet">
<metadata>
Created by potrace 1.16, written by Peter Selinger 2001-2019
</metadata>
<g transform="translate(0.000000,79.000000) scale(0.100000,-0.100000)"
fill="#000000" stroke="none">
<path d="M353 780 l-23 -9 10 -26 10 -26 -6 -26 -7 -25 -33 -14 -33 -14 -53 0
-53 0 -10 -8 -10 -7 -2 -57 -2 -57 -11 -20 -11 -21 -26 -6 -26 -7 -20 13 -21
12 -13 -18 -13 -18 0 -42 0 -41 26 -26 26 -27 33 -6 33 -6 31 7 31 7 0 -44 0
-43 -20 -42 -19 -43 67 0 67 0 24 -13 24 -12 11 -17 10 -17 -14 -25 -14 -26
20 -15 19 -14 47 -1 47 0 26 10 27 10 -6 34 -7 34 10 6 9 6 77 15 78 15 4 4 4
4 -16 33 -17 32 -5 57 -6 58 70 -5 70 -5 21 30 22 30 0 31 0 32 -25 24 -24 25
-16 0 -16 0 -19 -10 -18 -10 -13 16 -13 16 -5 71 -6 72 -95 5 -95 5 3 56 3 55
-14 13 -15 12 -34 4 -33 5 -22 -10z"/>
</g>
</svg>
