<?xml version="1.0" standalone="no"?>
<!DOCTYPE svg PUBLIC "-//W3C//DTD SVG 20010904//EN"
 "http://www.w3.org/TR/2001/REC-SVG-20010904/DTD/svg10.dtd">
<svg version="1.0" xmlns="http://www.w3.org/2000/svg"
 width="58.000000pt" height="82.000000pt" viewBox="0 0 58.000000 82.000000"
 preserveAspectRatio="xMidYMid meet">
<metadata>
Created by potrace 1.16, written by Peter Selinger 2001-2019
</metadata>
<g transform="translate(0.000000,82.000000) scale(0.100000,-0.100000)"
fill="#000000" stroke="none">
<path d="M230 801 l-11 -21 3 -52 3 -53 -90 -3 -89 -3 -8 -12 -8 -12 0 -91 0
-92 15 -12 16 -13 35 11 36 11 24 -11 24 -11 0 -12 0 -13 -13 -10 -12 -10 -25
-3 -25 -3 -38 8 -37 8 -16 -13 -16 -13 6 -66 6 -65 13 -50 13 -50 76 3 76 4
21 -7 20 -6 -9 -25 -10 -24 7 -30 6 -31 21 -14 20 -15 43 0 42 0 26 12 25 11
6 24 6 24 -5 44 -4 44 17 6 18 6 67 -16 66 -15 5 0 5 0 -6 88 -6 87 -5 24 -5
23 -45 -5 -46 -5 -14 33 -13 32 8 29 8 29 42 -3 43 -4 19 18 19 17 0 78 0 78
-9 5 -9 6 -64 -15 -63 -14 -22 5 -22 6 6 47 5 46 -24 35 -24 35 -56 3 -57 3
-11 -20z"/>
</g>
</svg>
