<?xml version="1.0" standalone="no"?>
<!DOCTYPE svg PUBLIC "-//W3C//DTD SVG 20010904//EN"
 "http://www.w3.org/TR/2001/REC-SVG-20010904/DTD/svg10.dtd">
<svg version="1.0" xmlns="http://www.w3.org/2000/svg"
 width="67.000000pt" height="80.000000pt" viewBox="0 0 67.000000 80.000000"
 preserveAspectRatio="xMidYMid meet">
<metadata>
Created by potrace 1.16, written by Peter Selinger 2001-2019
</metadata>
<g transform="translate(0.000000,80.000000) scale(0.100000,-0.100000)"
fill="#000000" stroke="none">
<path d="M225 791 l-30 -6 1 -10 0 -10 8 -36 8 -37 -11 -21 -11 -20 -38 -11
-37 -10 -57 0 -58 0 0 -76 0 -75 16 -16 16 -16 36 13 35 13 14 -19 13 -18 0
-46 0 -46 -11 -11 -12 -12 -27 5 -26 6 -12 -14 -12 -15 -10 -70 -10 -70 -6
-17 -6 -16 98 0 99 0 14 -9 15 -10 -12 -26 -12 -26 0 -14 0 -14 16 -15 15 -16
39 0 40 0 16 25 16 24 -7 30 -6 30 23 5 23 5 72 3 72 4 5 5 5 5 15 94 16 94
10 10 10 10 12 -12 12 -12 17 0 18 0 15 16 16 15 0 28 0 28 -17 15 -18 16 -22
6 -22 7 -22 -12 -22 -12 -14 19 -13 18 0 82 0 82 -99 -5 -98 -6 -8 13 -7 12
12 38 13 39 -19 32 -19 32 -20 7 -20 6 -30 -5z"/>
</g>
</svg>
