<?xml version="1.0" standalone="no"?>
<!DOCTYPE svg PUBLIC "-//W3C//DTD SVG 20010904//EN"
 "http://www.w3.org/TR/2001/REC-SVG-20010904/DTD/svg10.dtd">
<svg version="1.0" xmlns="http://www.w3.org/2000/svg"
 width="71.000000pt" height="70.000000pt" viewBox="0 0 71.000000 70.000000"
 preserveAspectRatio="xMidYMid meet">
<metadata>
Created by potrace 1.16, written by Peter Selinger 2001-2019
</metadata>
<g transform="translate(0.000000,70.000000) scale(0.100000,-0.100000)"
fill="#000000" stroke="none">
<path d="M245 687 l-18 -14 7 -29 7 -29 5 -20 5 -20 -15 -20 -14 -20 -97 0
-96 0 -6 -25 -7 -25 0 -75 -1 -75 40 2 40 2 22 -5 23 -4 15 -29 14 -29 -20
-26 -21 -27 -59 7 -58 6 -7 -27 -7 -27 7 -71 6 -71 11 -13 11 -13 103 0 102 0
18 20 18 20 -5 44 -5 45 11 4 11 4 17 -8 16 -9 -5 -41 -6 -41 14 -8 13 -9 66
-6 65 -6 44 -10 43 -10 14 18 13 18 10 30 10 30 11 42 11 42 28 -5 28 -6 16
17 17 16 0 54 0 53 -26 17 -25 16 -47 -2 -47 -3 -3 94 -3 94 -10 12 -10 12
-72 22 -72 22 -23 9 -24 9 7 29 6 29 -23 16 -22 16 -26 0 -26 0 -19 -13z"/>
</g>
</svg>
