<?xml version="1.0" standalone="no"?>
<!DOCTYPE svg PUBLIC "-//W3C//DTD SVG 20010904//EN"
 "http://www.w3.org/TR/2001/REC-SVG-20010904/DTD/svg10.dtd">
<svg version="1.0" xmlns="http://www.w3.org/2000/svg"
 width="70.000000pt" height="82.000000pt" viewBox="0 0 70.000000 82.000000"
 preserveAspectRatio="xMidYMid meet">
<metadata>
Created by potrace 1.16, written by Peter Selinger 2001-2019
</metadata>
<g transform="translate(0.000000,82.000000) scale(0.100000,-0.100000)"
fill="#000000" stroke="none">
<path d="M361 794 l-21 -27 0 -11 0 -11 10 -35 10 -35 -17 -12 -17 -13 -93 0
-92 0 1 -85 2 -85 -10 -10 -11 -11 -27 11 -27 10 -24 0 -24 0 -11 -19 -10 -20
0 -40 0 -40 17 -16 16 -17 69 4 68 4 0 -41 0 -40 -15 -55 -15 -55 0 -7 0 -8
79 0 79 0 16 -6 15 -6 -6 -43 -6 -44 16 -15 16 -16 61 0 61 0 26 26 25 25 -4
55 -5 55 9 5 9 6 70 -22 70 -23 10 10 11 11 5 80 6 80 -7 26 -6 26 -28 0 -27
0 -14 -9 -15 -10 -27 14 -27 14 -6 16 -6 16 11 20 10 20 49 -7 50 -7 15 13 15
12 0 94 0 94 -23 15 -23 15 -90 23 -89 23 0 35 0 36 -14 16 -13 17 -28 0 -29
0 -20 -26z"/>
</g>
</svg>
