<?xml version="1.0" standalone="no"?>
<!DOCTYPE svg PUBLIC "-//W3C//DTD SVG 20010904//EN"
 "http://www.w3.org/TR/2001/REC-SVG-20010904/DTD/svg10.dtd">
<svg version="1.0" xmlns="http://www.w3.org/2000/svg"
 width="84.000000pt" height="67.000000pt" viewBox="0 0 84.000000 67.000000"
 preserveAspectRatio="xMidYMid meet">
<metadata>
Created by potrace 1.16, written by Peter Selinger 2001-2019
</metadata>
<g transform="translate(0.000000,67.000000) scale(0.100000,-0.100000)"
fill="#000000" stroke="none">
<path d="M369 649 l-21 -21 4 -46 3 -47 -97 0 -98 0 2 -98 2 -97 -17 -17 -16
-16 -39 11 -39 12 -17 0 -16 0 -12 -25 -11 -25 12 -39 11 -39 48 1 47 2 17
-70 17 -69 -10 -12 -9 -12 22 -6 23 -6 97 -7 97 -6 -10 44 -10 43 5 22 6 22
22 5 21 6 19 -10 19 -10 10 -26 10 -26 -7 -44 -6 -43 54 0 55 0 56 11 57 12 0
11 0 11 -20 53 -20 52 0 46 0 45 38 -8 37 -7 42 1 41 1 26 17 26 17 0 34 0 34
-26 16 -25 17 -47 -11 -47 -10 -12 10 -13 10 0 83 0 83 -14 11 -13 11 -84 21
-84 21 -13 11 -14 11 5 22 4 23 -14 5 -15 6 -19 0 -19 0 -21 -21z"/>
</g>
</svg>
