<?xml version="1.0" standalone="no"?>
<!DOCTYPE svg PUBLIC "-//W3C//DTD SVG 20010904//EN"
 "http://www.w3.org/TR/2001/REC-SVG-20010904/DTD/svg10.dtd">
<svg version="1.0" xmlns="http://www.w3.org/2000/svg"
 width="56.000000pt" height="78.000000pt" viewBox="0 0 56.000000 78.000000"
 preserveAspectRatio="xMidYMid meet">
<metadata>
Created by potrace 1.16, written by Peter Selinger 2001-2019
</metadata>
<g transform="translate(0.000000,78.000000) scale(0.100000,-0.100000)"
fill="#000000" stroke="none">
<path d="M213 765 l-21 -15 11 -30 12 -31 -11 -17 -11 -17 -89 -5 -89 -5 -7
-55 -6 -55 -1 -42 -1 -43 73 6 72 5 14 -10 14 -9 0 -31 0 -31 -18 -20 -18 -20
-13 11 -13 11 -19 -6 -20 -7 -21 -82 -22 -82 -2 -15 -2 -15 80 -3 79 -3 14
-11 13 -11 -7 -53 -6 -52 22 -7 23 -7 38 0 38 1 26 17 27 17 -4 61 -3 61 50 0
50 0 28 -8 28 -8 19 43 20 43 0 43 0 43 -34 -7 -34 -6 -30 7 -31 6 -25 26 -26
26 0 41 0 42 13 18 13 18 21 -12 20 -13 26 7 26 6 11 19 10 19 5 53 6 54 -10
14 -9 14 -88 4 -88 3 -8 13 -9 12 6 29 5 29 -16 19 -17 18 -31 0 -32 0 -21
-15z"/>
</g>
</svg>
