<?xml version="1.0" standalone="no"?>
<!DOCTYPE svg PUBLIC "-//W3C//DTD SVG 20010904//EN"
 "http://www.w3.org/TR/2001/REC-SVG-20010904/DTD/svg10.dtd">
<svg version="1.0" xmlns="http://www.w3.org/2000/svg"
 width="58.000000pt" height="80.000000pt" viewBox="0 0 58.000000 80.000000"
 preserveAspectRatio="xMidYMid meet">
<metadata>
Created by potrace 1.16, written by Peter Selinger 2001-2019
</metadata>
<g transform="translate(0.000000,80.000000) scale(0.100000,-0.100000)"
fill="#000000" stroke="none">
<path d="M209 781 l-23 -18 13 -32 13 -31 -12 -15 -12 -15 -84 0 -83 0 -5 -8
-5 -8 -7 -103 -7 -104 66 7 66 8 21 -7 20 -6 0 -29 0 -29 -12 -8 -13 -7 -25 2
-25 2 -12 -7 -11 -8 -22 -80 -22 -80 -1 -25 -2 -25 80 -3 79 -3 12 -10 12 -10
-5 -53 -6 -54 24 -8 24 -7 46 0 46 1 27 18 28 17 -4 61 -3 61 29 3 28 4 50
-17 50 -16 2 3 2 3 17 50 17 50 0 49 0 48 -43 -6 -44 -7 -25 10 -26 10 -21 22
-21 23 0 27 0 27 6 15 5 14 43 -4 44 -5 20 20 20 20 7 56 7 56 -6 24 -6 24
-22 5 -23 6 -69 0 -69 0 -8 13 -8 12 6 28 6 29 -18 19 -18 20 -42 0 -43 0 -23
-19z"/>
</g>
</svg>
