<?xml version="1.0" standalone="no"?>
<!DOCTYPE svg PUBLIC "-//W3C//DTD SVG 20010904//EN"
 "http://www.w3.org/TR/2001/REC-SVG-20010904/DTD/svg10.dtd">
<svg version="1.0" xmlns="http://www.w3.org/2000/svg"
 width="69.000000pt" height="66.000000pt" viewBox="0 0 69.000000 66.000000"
 preserveAspectRatio="xMidYMid meet">
<metadata>
Created by potrace 1.16, written by Peter Selinger 2001-2019
</metadata>
<g transform="translate(0.000000,66.000000) scale(0.100000,-0.100000)"
fill="#000000" stroke="none">
<path d="M363 653 l-22 -4 -11 -14 -12 -14 8 -33 8 -33 1 -10 0 -10 -90 -5
-90 -5 -6 -73 -7 -72 -16 -24 -15 -24 -39 5 -39 5 -17 -23 -16 -23 0 -21 0
-20 20 -33 21 -33 52 2 52 3 3 -97 3 -96 85 3 86 3 21 21 21 21 -11 46 -10 46
14 15 14 14 33 0 32 0 12 -12 11 -11 -5 -41 -6 -42 14 -11 13 -12 103 -17 103
-17 5 6 5 5 -10 58 -11 58 0 32 0 32 -18 22 -19 23 -34 -12 -34 -12 -23 27
-23 26 14 22 15 21 68 0 69 0 3 108 3 107 -12 0 -11 0 -68 -21 -68 -20 -34 3
-33 3 3 50 3 50 -20 33 -21 32 -22 -1 -23 -2 -22 -4z"/>
</g>
</svg>
