<?xml version="1.0" standalone="no"?>
<!DOCTYPE svg PUBLIC "-//W3C//DTD SVG 20010904//EN"
 "http://www.w3.org/TR/2001/REC-SVG-20010904/DTD/svg10.dtd">
<svg version="1.0" xmlns="http://www.w3.org/2000/svg"
 width="57.000000pt" height="66.000000pt" viewBox="0 0 57.000000 66.000000"
 preserveAspectRatio="xMidYMid meet">
<metadata>
Created by potrace 1.16, written by Peter Selinger 2001-2019
</metadata>
<g transform="translate(0.000000,66.000000) scale(0.100000,-0.100000)"
fill="#000000" stroke="none">
<path d="M258 610 l4 -50 -36 -15 -35 -15 -76 0 -75 0 0 -84 0 -84 13 -10 12
-10 47 10 47 11 25 -17 26 -16 0 -34 0 -34 -26 -17 -26 -17 -41 -1 -42 -1 -37
7 -38 8 0 -43 0 -43 21 -62 22 -61 21 -6 21 -6 46 0 46 0 33 6 32 7 -7 58 -7
59 26 11 26 12 25 -11 25 -12 17 -35 17 -36 -11 -29 -11 -28 11 -11 11 -11 49
0 50 0 38 12 39 11 11 36 11 36 5 72 6 72 -70 -6 -69 -6 -17 17 -17 17 0 33 0
32 14 19 13 18 46 -12 45 -13 10 6 9 6 6 37 7 38 -7 53 -6 52 -92 0 -93 0 -12
15 -13 16 12 25 11 25 0 9 0 9 -16 15 -15 16 -32 0 -32 0 3 -50z"/>
</g>
</svg>
