<?xml version="1.0" standalone="no"?>
<!DOCTYPE svg PUBLIC "-//W3C//DTD SVG 20010904//EN"
 "http://www.w3.org/TR/2001/REC-SVG-20010904/DTD/svg10.dtd">
<svg version="1.0" xmlns="http://www.w3.org/2000/svg"
 width="54.000000pt" height="57.000000pt" viewBox="0 0 54.000000 57.000000"
 preserveAspectRatio="xMidYMid meet">
<metadata>
Created by potrace 1.16, written by Peter Selinger 2001-2019
</metadata>
<g transform="translate(0.000000,57.000000) scale(0.100000,-0.100000)"
fill="#000000" stroke="none">
<path d="M327 564 l-5 -6 10 -30 10 -29 -5 -40 -5 -40 -12 -14 -12 -15 -37 0
-36 0 -14 9 -13 8 12 22 11 22 -6 20 -7 20 -22 14 -23 15 -61 1 -60 1 -11 -7
-11 -6 0 -57 0 -57 13 -25 14 -25 14 4 14 4 22 4 22 5 25 -25 26 -26 0 -32 0
-31 -22 -30 -21 -30 -70 5 -70 5 6 -58 5 -57 16 -30 15 -31 46 -6 46 -7 31 7
32 6 15 15 15 15 -11 29 -11 28 12 9 11 10 23 7 24 7 34 -7 34 -6 16 -25 17
-25 -12 -25 -11 -25 16 -16 15 -16 71 6 71 6 9 9 9 9 -3 89 -3 89 -55 0 -55 0
-19 36 -20 37 18 27 17 27 39 -7 39 -7 17 27 17 27 5 77 4 77 -73 22 -74 22
-31 0 -31 0 -6 -6z"/>
</g>
</svg>
