<?xml version="1.0" standalone="no"?>
<!DOCTYPE svg PUBLIC "-//W3C//DTD SVG 20010904//EN"
 "http://www.w3.org/TR/2001/REC-SVG-20010904/DTD/svg10.dtd">
<svg version="1.0" xmlns="http://www.w3.org/2000/svg"
 width="82.000000pt" height="56.000000pt" viewBox="0 0 82.000000 56.000000"
 preserveAspectRatio="xMidYMid meet">
<metadata>
Created by potrace 1.16, written by Peter Selinger 2001-2019
</metadata>
<g transform="translate(0.000000,56.000000) scale(0.100000,-0.100000)"
fill="#000000" stroke="none">
<path d="M485 550 l-6 -10 12 -39 12 -39 -22 -31 -22 -31 -44 0 -44 0 -8 13
-8 12 0 50 0 50 -30 3 -30 4 -61 -7 -62 -6 -4 -80 -3 -80 -15 -9 -15 -10 -20
7 -20 7 -28 0 -28 -1 -16 -16 -15 -15 -5 -43 -4 -44 10 -15 10 -15 43 0 43 0
13 -45 12 -45 18 -55 17 -55 98 -3 98 -3 16 16 16 16 -6 60 -5 59 33 0 34 0
15 -22 16 -22 -10 -10 -10 -10 0 -22 0 -22 14 -11 14 -12 89 -9 88 -9 9 9 9 9
-16 43 -15 43 -6 28 -7 29 10 12 11 13 52 -5 53 -4 24 19 23 19 5 47 6 47 -18
26 -17 26 -51 -4 -52 -3 3 86 3 86 -59 17 -58 16 -42 0 -41 0 -6 -10z"/>
</g>
</svg>
