<?xml version="1.0" standalone="no"?>
<!DOCTYPE svg PUBLIC "-//W3C//DTD SVG 20010904//EN"
 "http://www.w3.org/TR/2001/REC-SVG-20010904/DTD/svg10.dtd">
<svg version="1.0" xmlns="http://www.w3.org/2000/svg"
 width="54.000000pt" height="68.000000pt" viewBox="0 0 54.000000 68.000000"
 preserveAspectRatio="xMidYMid meet">
<metadata>
Created by potrace 1.16, written by Peter Selinger 2001-2019
</metadata>
<g transform="translate(0.000000,68.000000) scale(0.100000,-0.100000)"
fill="#000000" stroke="none">
<path d="M210 660 l-11 -20 13 -41 12 -41 -19 -14 -19 -14 -93 0 -93 0 0 -102
0 -103 9 -14 9 -13 36 13 37 13 27 -16 27 -17 3 -21 4 -22 -7 -25 -6 -25 -34
6 -34 7 -9 -18 -10 -18 -7 -35 -7 -35 -20 -43 -20 -43 6 -7 7 -6 69 -4 70 -4
36 7 36 6 -6 48 -6 48 21 26 20 27 18 0 17 0 12 -12 12 -12 0 -28 0 -28 23 -9
22 -9 68 -21 68 -21 16 15 15 15 -19 78 -18 77 -48 0 -47 0 -11 32 -10 32 11
21 12 22 21 -7 22 -6 35 -6 36 -5 14 17 14 17 -1 94 -1 93 -7 10 -6 11 -77 0
-77 0 -12 8 -12 8 9 14 10 15 0 28 0 28 -25 24 -24 25 -45 0 -45 0 -11 -20z"/>
</g>
</svg>
