<?xml version="1.0" standalone="no"?>
<!DOCTYPE svg PUBLIC "-//W3C//DTD SVG 20010904//EN"
 "http://www.w3.org/TR/2001/REC-SVG-20010904/DTD/svg10.dtd">
<svg version="1.0" xmlns="http://www.w3.org/2000/svg"
 width="55.000000pt" height="81.000000pt" viewBox="0 0 55.000000 81.000000"
 preserveAspectRatio="xMidYMid meet">
<metadata>
Created by potrace 1.16, written by Peter Selinger 2001-2019
</metadata>
<g transform="translate(0.000000,81.000000) scale(0.100000,-0.100000)"
fill="#000000" stroke="none">
<path d="M229 789 l-11 -21 5 -27 6 -26 3 -20 3 -20 -115 -5 -115 -5 -3 -66
-3 -66 20 -24 19 -24 40 11 41 11 12 -7 12 -8 4 -48 5 -49 -15 -20 -15 -19
-28 12 -27 13 -13 -13 -13 -13 -19 -92 -18 -93 56 0 57 0 31 -11 31 -11 7 -20
6 -20 -7 -35 -6 -35 20 -19 20 -19 46 0 45 0 21 21 21 21 -6 58 -7 58 16 6 17
6 77 0 78 0 11 78 12 77 0 20 -1 20 -14 19 -15 20 -25 -14 -25 -13 -40 12 -41
12 -6 16 -6 16 10 16 10 16 59 0 58 0 7 25 7 25 1 71 1 72 -16 6 -16 6 -78 0
-78 0 -6 16 -6 16 6 37 6 38 -17 16 -16 17 -34 0 -34 0 -12 -21z"/>
</g>
</svg>
