<?xml version="1.0" standalone="no"?>
<!DOCTYPE svg PUBLIC "-//W3C//DTD SVG 20010904//EN"
 "http://www.w3.org/TR/2001/REC-SVG-20010904/DTD/svg10.dtd">
<svg version="1.0" xmlns="http://www.w3.org/2000/svg"
 width="54.000000pt" height="78.000000pt" viewBox="0 0 54.000000 78.000000"
 preserveAspectRatio="xMidYMid meet">
<metadata>
Created by potrace 1.16, written by Peter Selinger 2001-2019
</metadata>
<g transform="translate(0.000000,78.000000) scale(0.100000,-0.100000)"
fill="#000000" stroke="none">
<path d="M195 769 l-7 -11 13 -45 12 -46 -19 -14 -19 -14 -82 3 -82 3 -6 -50
-7 -50 4 -40 3 -40 46 3 47 3 21 -27 21 -27 0 -13 0 -13 -11 -25 -11 -24 -34
5 -34 6 -5 -14 -5 -14 -14 -85 -14 -85 5 -8 4 -7 83 0 82 0 18 -13 17 -12 -9
-25 -10 -25 14 -27 15 -28 17 -2 17 -1 30 2 30 3 13 11 14 11 -6 37 -6 37 15
6 16 6 80 6 81 7 -7 21 -6 21 -20 89 -20 89 -5 9 -5 8 -19 0 -19 0 -6 -10 -7
-11 -14 12 -14 11 0 25 0 24 25 25 25 25 37 -7 38 -6 10 -2 10 -1 -3 90 -2 89
-8 8 -8 8 -90 18 -89 17 0 38 0 38 -15 9 -15 10 -52 0 -52 0 -6 -11z"/>
</g>
</svg>
