<?xml version="1.0" standalone="no"?>
<!DOCTYPE svg PUBLIC "-//W3C//DTD SVG 20010904//EN"
 "http://www.w3.org/TR/2001/REC-SVG-20010904/DTD/svg10.dtd">
<svg version="1.0" xmlns="http://www.w3.org/2000/svg"
 width="56.000000pt" height="80.000000pt" viewBox="0 0 56.000000 80.000000"
 preserveAspectRatio="xMidYMid meet">
<metadata>
Created by potrace 1.16, written by Peter Selinger 2001-2019
</metadata>
<g transform="translate(0.000000,80.000000) scale(0.100000,-0.100000)"
fill="#000000" stroke="none">
<path d="M193 783 l-6 -16 11 -41 11 -41 -17 -13 -17 -14 -82 5 -82 5 -6 -52
-6 -51 3 -50 3 -50 49 0 49 0 19 -26 20 -27 -11 -21 -12 -21 -34 0 -34 0 -5
-8 -5 -8 -16 -98 -15 -97 5 -10 6 -9 82 0 82 0 14 -9 14 -9 -7 -26 -6 -26 14
-29 15 -28 23 -6 23 -6 37 6 38 5 11 14 11 14 -4 35 -4 34 13 6 14 5 80 6 81
7 -5 26 -5 26 -21 94 -22 94 -5 9 -6 9 -36 -3 -37 -3 -3 17 -3 18 24 24 25 24
41 -9 42 -9 11 6 11 7 -7 96 -7 96 -7 7 -8 8 -90 18 -89 17 3 37 3 37 -20 10
-20 11 -61 0 -61 0 -6 -17z"/>
</g>
</svg>
