<?xml version="1.0" standalone="no"?>
<!DOCTYPE svg PUBLIC "-//W3C//DTD SVG 20010904//EN"
 "http://www.w3.org/TR/2001/REC-SVG-20010904/DTD/svg10.dtd">
<svg version="1.0" xmlns="http://www.w3.org/2000/svg"
 width="67.000000pt" height="80.000000pt" viewBox="0 0 67.000000 80.000000"
 preserveAspectRatio="xMidYMid meet">
<metadata>
Created by potrace 1.16, written by Peter Selinger 2001-2019
</metadata>
<g transform="translate(0.000000,80.000000) scale(0.100000,-0.100000)"
fill="#000000" stroke="none">
<path d="M242 789 l-24 -9 4 -58 3 -57 -105 -5 -105 -5 -3 -77 -3 -77 17 -27
18 -26 45 5 46 4 15 4 15 4 3 -36 3 -36 -17 -14 -17 -14 -55 0 -55 0 -8 -30
-7 -30 -4 -83 -5 -83 81 1 81 1 13 0 12 -1 0 -45 0 -46 26 -24 27 -25 36 0 36
0 22 6 22 6 3 31 3 30 25 7 25 7 58 17 58 17 10 26 9 25 10 71 10 70 11 14 11
13 24 -6 24 -6 15 12 15 12 0 55 0 54 -10 20 -11 19 -20 0 -20 0 -20 -10 -19
-11 -15 15 -15 15 0 80 0 80 -37 10 -38 10 -38 7 -38 6 -13 14 -13 13 4 25 5
24 -38 11 -39 11 -15 -1 -15 0 -23 -10z"/>
</g>
</svg>
