<?xml version="1.0" standalone="no"?>
<!DOCTYPE svg PUBLIC "-//W3C//DTD SVG 20010904//EN"
 "http://www.w3.org/TR/2001/REC-SVG-20010904/DTD/svg10.dtd">
<svg version="1.0" xmlns="http://www.w3.org/2000/svg"
 width="65.000000pt" height="78.000000pt" viewBox="0 0 65.000000 78.000000"
 preserveAspectRatio="xMidYMid meet">
<metadata>
Created by potrace 1.16, written by Peter Selinger 2001-2019
</metadata>
<g transform="translate(0.000000,78.000000) scale(0.100000,-0.100000)"
fill="#000000" stroke="none">
<path d="M242 769 l-24 -9 4 -57 3 -58 -105 -5 -105 -5 -3 -67 -3 -67 17 -27
18 -26 40 7 41 6 20 2 20 2 3 -44 3 -43 -18 -20 -18 -20 -51 7 -52 6 -8 -12
-7 -12 -6 -94 -6 -95 80 2 80 3 16 -2 17 -1 -5 -44 -5 -45 27 -25 28 -26 26 0
26 0 23 6 23 7 -5 22 -6 23 13 10 13 11 48 11 48 10 33 14 33 14 10 48 11 49
6 47 6 46 14 12 15 12 22 -5 22 -6 13 11 13 10 0 47 0 47 -13 18 -14 19 -35
-13 -36 -13 -16 16 -16 16 0 80 0 80 -37 10 -38 10 -38 7 -38 6 -15 16 -15 15
5 23 6 23 -37 10 -38 11 -5 -1 -5 0 -23 -10z"/>
</g>
</svg>
