<?xml version="1.0" standalone="no"?>
<!DOCTYPE svg PUBLIC "-//W3C//DTD SVG 20010904//EN"
 "http://www.w3.org/TR/2001/REC-SVG-20010904/DTD/svg10.dtd">
<svg version="1.0" xmlns="http://www.w3.org/2000/svg"
 width="68.000000pt" height="69.000000pt" viewBox="0 0 68.000000 69.000000"
 preserveAspectRatio="xMidYMid meet">
<metadata>
Created by potrace 1.16, written by Peter Selinger 2001-2019
</metadata>
<g transform="translate(0.000000,69.000000) scale(0.100000,-0.100000)"
fill="#000000" stroke="none">
<path d="M215 677 l-18 -14 11 -32 11 -32 -9 -24 -9 -24 -23 -12 -23 -13 -75
-5 -75 -6 2 -68 1 -68 17 -26 17 -25 43 5 44 4 5 -14 6 -15 0 -28 0 -28 -15
-12 -15 -12 -31 13 -32 13 -12 -18 -13 -17 -7 -90 -7 -91 9 -9 10 -10 98 -10
99 -9 3 4 4 3 -11 27 -10 27 0 27 0 28 16 22 15 22 29 0 29 0 14 -15 15 -15
-11 -31 -12 -31 18 -13 17 -12 88 -12 88 -11 10 0 10 0 -7 64 -8 64 8 28 8 29
38 -3 38 -3 22 5 22 6 11 25 12 26 0 20 0 20 -26 26 -25 25 -50 -4 -49 -5 -6
24 -6 24 4 59 4 60 -12 0 -12 0 -71 -16 -71 -16 -26 6 -25 7 7 68 6 68 -16 31
-17 32 -27 0 -28 0 -19 -13z"/>
</g>
</svg>
