<?xml version="1.0" standalone="no"?>
<!DOCTYPE svg PUBLIC "-//W3C//DTD SVG 20010904//EN"
 "http://www.w3.org/TR/2001/REC-SVG-20010904/DTD/svg10.dtd">
<svg version="1.0" xmlns="http://www.w3.org/2000/svg"
 width="53.000000pt" height="66.000000pt" viewBox="0 0 53.000000 66.000000"
 preserveAspectRatio="xMidYMid meet">
<metadata>
Created by potrace 1.16, written by Peter Selinger 2001-2019
</metadata>
<g transform="translate(0.000000,66.000000) scale(0.100000,-0.100000)"
fill="#000000" stroke="none">
<path d="M328 654 l-6 -6 9 -31 9 -32 0 -30 0 -30 -19 -24 -19 -24 -47 1 -48
0 -15 15 -15 16 13 45 12 44 -6 11 -7 10 -41 11 -41 12 -48 -7 -49 -7 0 -85 0
-84 44 6 45 7 30 -22 31 -21 0 -44 0 -45 -26 -16 -25 -17 -36 11 -36 11 -8 -5
-8 -5 -5 -32 -5 -32 -3 -65 -4 -65 76 3 75 2 25 -13 25 -12 3 -29 4 -28 -10
-10 -10 -10 5 -14 5 -14 45 0 44 0 15 35 14 34 0 35 0 35 -10 6 -10 6 5 10 6
9 38 0 38 0 49 -15 49 -15 18 0 18 0 -10 19 -10 19 -19 68 -19 68 -16 10 -17
11 -19 -12 -20 -13 -16 16 -15 15 0 49 0 48 6 16 6 15 63 -6 63 -6 11 21 11
21 6 45 7 45 -7 24 -6 24 -57 12 -56 11 -37 0 -37 0 -5 -6z"/>
</g>
</svg>
