<?xml version="1.0" standalone="no"?>
<!DOCTYPE svg PUBLIC "-//W3C//DTD SVG 20010904//EN"
 "http://www.w3.org/TR/2001/REC-SVG-20010904/DTD/svg10.dtd">
<svg version="1.0" xmlns="http://www.w3.org/2000/svg"
 width="82.000000pt" height="65.000000pt" viewBox="0 0 82.000000 65.000000"
 preserveAspectRatio="xMidYMid meet">
<metadata>
Created by potrace 1.16, written by Peter Selinger 2001-2019
</metadata>
<g transform="translate(0.000000,65.000000) scale(0.100000,-0.100000)"
fill="#000000" stroke="none">
<path d="M502 640 l-23 -10 11 -19 10 -20 0 -14 0 -14 -25 -27 -25 -27 -57 3
-58 3 2 15 2 15 6 20 6 20 -13 18 -14 18 -39 9 -40 9 -36 -5 -36 -6 -5 -62 -5
-62 -13 -24 -12 -23 -63 6 -63 6 -6 -15 -6 -16 0 -48 0 -49 15 -15 16 -16 20
13 19 12 16 -10 16 -11 25 -79 24 -80 0 -15 1 -15 81 3 82 2 25 -13 25 -13 -2
-29 -1 -30 -4 -20 -3 -20 56 -3 56 -3 24 20 24 19 -12 33 -13 33 10 10 10 10
85 1 85 0 0 78 0 78 10 18 9 19 46 -5 45 -6 16 38 16 38 -6 33 -7 32 -15 13
-15 12 -37 -11 -37 -12 -15 15 -15 15 0 75 0 74 -25 5 -25 5 -50 5 -50 5 -23
-9z"/>
</g>
</svg>
