<?xml version="1.0" standalone="no"?>
<!DOCTYPE svg PUBLIC "-//W3C//DTD SVG 20010904//EN"
 "http://www.w3.org/TR/2001/REC-SVG-20010904/DTD/svg10.dtd">
<svg version="1.0" xmlns="http://www.w3.org/2000/svg"
 width="84.000000pt" height="67.000000pt" viewBox="0 0 84.000000 67.000000"
 preserveAspectRatio="xMidYMid meet">
<metadata>
Created by potrace 1.16, written by Peter Selinger 2001-2019
</metadata>
<g transform="translate(0.000000,67.000000) scale(0.100000,-0.100000)"
fill="#000000" stroke="none">
<path d="M501 660 l-23 -10 5 -18 5 -17 6 -16 7 -15 -25 -27 -25 -27 -46 0
-45 0 6 38 5 37 -13 18 -14 18 -43 10 -44 10 -42 -7 -42 -6 -5 -62 -5 -62 -13
-23 -12 -23 -60 6 -61 7 -8 -13 -9 -13 0 -62 0 -62 16 -15 15 -16 13 0 12 0
12 12 12 12 12 -12 12 -12 22 -77 23 -78 1 -15 0 -15 95 0 94 0 17 -17 17 -17
-13 -30 -12 -31 6 -15 5 -15 63 0 64 0 23 16 23 17 -6 42 -5 43 49 7 50 7 40
-7 40 -7 0 80 0 80 6 16 6 16 50 0 49 0 15 35 14 34 0 28 0 28 -13 25 -13 25
-54 0 -54 0 -9 35 -9 35 5 47 6 46 -22 5 -22 5 -65 6 -65 6 -24 -10z"/>
</g>
</svg>
