<?xml version="1.0" standalone="no"?>
<!DOCTYPE svg PUBLIC "-//W3C//DTD SVG 20010904//EN"
 "http://www.w3.org/TR/2001/REC-SVG-20010904/DTD/svg10.dtd">
<svg version="1.0" xmlns="http://www.w3.org/2000/svg"
 width="83.000000pt" height="71.000000pt" viewBox="0 0 83.000000 71.000000"
 preserveAspectRatio="xMidYMid meet">
<metadata>
Created by potrace 1.16, written by Peter Selinger 2001-2019
</metadata>
<g transform="translate(0.000000,71.000000) scale(0.100000,-0.100000)"
fill="#000000" stroke="none">
<path d="M315 703 l-30 -3 -62 -6 -63 -6 0 -62 0 -63 -11 -32 -11 -31 -18 -10
-17 -9 -36 11 -35 11 -16 -6 -16 -6 0 -39 0 -39 20 -18 20 -18 45 5 45 6 6
-27 6 -26 4 -15 4 -16 1 -71 1 -71 64 6 63 5 30 -13 30 -12 4 -12 5 -13 -11
-42 -11 -42 10 -17 11 -17 56 -3 56 -3 17 26 17 25 -6 46 -5 45 25 10 24 9 69
0 69 0 6 9 5 10 -11 69 -12 70 7 25 6 25 58 -5 59 -5 21 27 22 28 0 19 0 19
-15 29 -15 29 -20 6 -20 6 -43 -2 -42 -3 3 83 3 84 -23 -6 -23 -6 -64 -19 -65
-19 -7 -14 -8 -14 -5 -17 -5 -18 -40 0 -41 0 -17 26 -17 27 2 43 2 44 -13 -1
-12 -2 -30 -4z"/>
</g>
</svg>
