<?xml version="1.0" standalone="no"?>
<!DOCTYPE svg PUBLIC "-//W3C//DTD SVG 20010904//EN"
 "http://www.w3.org/TR/2001/REC-SVG-20010904/DTD/svg10.dtd">
<svg version="1.0" xmlns="http://www.w3.org/2000/svg"
 width="53.000000pt" height="68.000000pt" viewBox="0 0 53.000000 68.000000"
 preserveAspectRatio="xMidYMid meet">
<metadata>
Created by potrace 1.16, written by Peter Selinger 2001-2019
</metadata>
<g transform="translate(0.000000,68.000000) scale(0.100000,-0.100000)"
fill="#000000" stroke="none">
<path d="M44 673 l-32 -4 -6 -37 -6 -37 0 -69 0 -68 56 7 57 7 8 -14 9 -13 0
-36 0 -36 -23 4 -23 5 -10 -14 -11 -13 -21 -85 -22 -85 0 -17 0 -18 74 0 74 0
15 -6 15 -6 -5 -52 -6 -53 24 -17 23 -16 29 0 28 0 20 11 20 10 -3 32 -3 31
89 22 88 22 11 11 10 10 -12 90 -11 90 -7 17 -6 16 -44 -7 -43 -6 -14 33 -14
33 5 27 5 27 18 16 18 17 21 -11 20 -11 25 0 25 0 11 19 10 20 0 77 0 76 -22
-7 -23 -7 -70 -17 -70 -17 0 -38 0 -38 -19 -14 -20 -14 -33 0 -33 0 -20 20
-20 20 -1 23 -1 22 0 5 0 5 7 33 7 32 -69 -2 -68 -1 -31 -4z"/>
</g>
</svg>
