<?xml version="1.0" standalone="no"?>
<!DOCTYPE svg PUBLIC "-//W3C//DTD SVG 20010904//EN"
 "http://www.w3.org/TR/2001/REC-SVG-20010904/DTD/svg10.dtd">
<svg version="1.0" xmlns="http://www.w3.org/2000/svg"
 width="67.000000pt" height="69.000000pt" viewBox="0 0 67.000000 69.000000"
 preserveAspectRatio="xMidYMid meet">
<metadata>
Created by potrace 1.16, written by Peter Selinger 2001-2019
</metadata>
<g transform="translate(0.000000,69.000000) scale(0.100000,-0.100000)"
fill="#000000" stroke="none">
<path d="M158 683 l-28 -4 0 -75 0 -75 -16 -31 -16 -30 -43 5 -43 6 -6 -15 -6
-16 0 -23 0 -24 12 -27 12 -26 38 5 38 5 10 -18 10 -19 0 -43 0 -43 6 -38 7
-37 82 0 83 0 17 -6 16 -6 -7 -59 -7 -59 13 -15 12 -15 40 0 39 0 22 11 22 12
7 11 8 11 0 31 0 32 13 5 14 5 76 13 76 13 5 12 4 12 -9 78 -10 79 -5 23 -4
22 -44 0 -44 0 -12 29 -12 30 6 28 7 28 57 0 57 0 3 93 3 92 -18 0 -18 -1 -79
-27 -80 -28 -8 -32 -9 -32 -39 0 -39 0 -20 26 -21 27 0 43 0 44 -72 -1 -73 -2
-27 -4z"/>
</g>
</svg>
