<?xml version="1.0" standalone="no"?>
<!DOCTYPE svg PUBLIC "-//W3C//DTD SVG 20010904//EN"
 "http://www.w3.org/TR/2001/REC-SVG-20010904/DTD/svg10.dtd">
<svg version="1.0" xmlns="http://www.w3.org/2000/svg"
 width="82.000000pt" height="70.000000pt" viewBox="0 0 82.000000 70.000000"
 preserveAspectRatio="xMidYMid meet">
<metadata>
Created by potrace 1.16, written by Peter Selinger 2001-2019
</metadata>
<g transform="translate(0.000000,70.000000) scale(0.100000,-0.100000)"
fill="#000000" stroke="none">
<path d="M475 641 l7 -59 -11 -20 -11 -21 -20 -6 -19 -6 -21 11 -22 12 7 50 7
50 -13 9 -14 9 -51 0 -51 0 -46 -6 -46 -7 -3 -96 -3 -96 -66 3 -67 4 -16 -23
-16 -23 0 -22 0 -21 22 -28 21 -27 43 6 44 6 8 -18 9 -17 7 -67 7 -68 5 -15 6
-15 68 0 67 0 31 -11 31 -11 7 -20 6 -20 -11 -11 -11 -11 0 -18 0 -17 19 -11
20 -10 34 0 35 0 12 15 13 15 -6 35 -6 34 18 6 17 5 74 10 75 9 16 1 16 0 7
78 6 77 9 30 8 30 35 -3 35 -2 11 25 12 26 0 23 0 23 -21 27 -22 28 -46 -4
-46 -3 2 91 3 92 -65 16 -64 16 -47 0 -46 0 7 -59z"/>
</g>
</svg>
