<?xml version="1.0" standalone="no"?>
<!DOCTYPE svg PUBLIC "-//W3C//DTD SVG 20010904//EN"
 "http://www.w3.org/TR/2001/REC-SVG-20010904/DTD/svg10.dtd">
<svg version="1.0" xmlns="http://www.w3.org/2000/svg"
 width="56.000000pt" height="71.000000pt" viewBox="0 0 56.000000 71.000000"
 preserveAspectRatio="xMidYMid meet">
<metadata>
Created by potrace 1.16, written by Peter Selinger 2001-2019
</metadata>
<g transform="translate(0.000000,71.000000) scale(0.100000,-0.100000)"
fill="#000000" stroke="none">
<path d="M320 700 l-14 -9 12 -34 12 -33 -16 -53 -15 -52 -16 -6 -15 -6 -27 9
-26 10 3 55 4 54 -21 19 -20 18 -76 0 -77 0 -8 -8 -9 -9 -6 -90 -6 -90 10 -15
10 -14 36 13 36 13 24 -16 25 -16 0 -40 0 -40 -24 0 -25 0 -8 -12 -8 -13 -23
-65 -23 -65 -6 -27 -5 -28 72 0 71 0 20 -10 19 -11 -6 -39 -7 -40 17 -25 16
-25 55 0 54 0 21 23 21 22 -3 50 -3 50 93 3 92 3 0 12 0 13 -14 19 -13 20 -22
68 -23 67 -24 0 -24 0 -6 26 -7 25 10 32 9 32 59 0 60 0 -2 84 -1 84 -6 22 -6
22 -75 16 -76 17 -27 0 -27 0 -15 -10z"/>
</g>
</svg>
