<?xml version="1.0" standalone="no"?>
<!DOCTYPE svg PUBLIC "-//W3C//DTD SVG 20010904//EN"
 "http://www.w3.org/TR/2001/REC-SVG-20010904/DTD/svg10.dtd">
<svg version="1.0" xmlns="http://www.w3.org/2000/svg"
 width="76.000000pt" height="55.000000pt" viewBox="0 0 76.000000 55.000000"
 preserveAspectRatio="xMidYMid meet">
<metadata>
Created by potrace 1.16, written by Peter Selinger 2001-2019
</metadata>
<g transform="translate(0.000000,55.000000) scale(0.100000,-0.100000)"
fill="#000000" stroke="none">
<path d="M458 545 l-7 -8 10 -19 11 -20 -6 -33 -7 -34 -18 -23 -19 -23 -53 2
-53 2 -14 15 -14 14 11 21 12 21 -11 20 -11 20 -24 5 -25 5 -25 5 -25 5 -25
-6 -25 -6 0 -73 0 -72 -21 -18 -20 -19 -31 12 -31 12 -13 -11 -12 -10 -6 -34
-7 -34 16 -36 15 -37 41 7 41 7 9 -13 9 -14 0 -51 0 -51 6 -31 6 -31 44 -7 44
-6 33 6 34 6 17 13 18 13 -13 42 -12 43 10 10 11 11 41 5 41 6 31 -13 31 -13
-6 -57 -7 -58 16 -6 17 -6 58 0 58 0 14 5 14 6 -4 87 -4 88 15 13 16 12 22
-11 21 -12 27 19 26 20 3 54 3 54 -47 -4 -48 -3 -13 18 -13 18 0 73 0 74 -37
16 -38 16 -50 5 -50 4 -7 -7z"/>
</g>
</svg>
