<?xml version="1.0" standalone="no"?>
<!DOCTYPE svg PUBLIC "-//W3C//DTD SVG 20010904//EN"
 "http://www.w3.org/TR/2001/REC-SVG-20010904/DTD/svg10.dtd">
<svg version="1.0" xmlns="http://www.w3.org/2000/svg"
 width="78.000000pt" height="57.000000pt" viewBox="0 0 78.000000 57.000000"
 preserveAspectRatio="xMidYMid meet">
<metadata>
Created by potrace 1.16, written by Peter Selinger 2001-2019
</metadata>
<g transform="translate(0.000000,57.000000) scale(0.100000,-0.100000)"
fill="#000000" stroke="none">
<path d="M455 560 l-7 -11 12 -28 11 -28 -15 -37 -15 -36 -22 -8 -22 -8 -36 5
-36 6 0 43 0 44 -18 13 -17 12 -50 7 -49 7 -26 -7 -25 -6 0 -73 0 -72 -18 -16
-18 -17 -31 12 -31 12 -16 -13 -15 -13 -6 -42 -7 -42 16 -39 16 -38 45 6 45 7
4 -23 5 -22 4 -68 5 -68 5 -6 6 -5 63 -5 63 -5 39 16 39 16 -7 33 -6 32 -2 20
-3 20 37 9 36 9 32 -13 31 -13 -7 -55 -7 -54 14 -9 14 -9 75 0 75 0 11 8 11 7
-1 90 -1 90 41 0 42 0 21 19 21 19 0 63 0 64 -46 -7 -47 -6 -13 18 -14 19 0
73 0 74 -37 16 -38 16 -61 5 -61 4 -8 -12z"/>
</g>
</svg>
