<?xml version="1.0" standalone="no"?>
<!DOCTYPE svg PUBLIC "-//W3C//DTD SVG 20010904//EN"
 "http://www.w3.org/TR/2001/REC-SVG-20010904/DTD/svg10.dtd">
<svg version="1.0" xmlns="http://www.w3.org/2000/svg"
 width="66.000000pt" height="66.000000pt" viewBox="0 0 66.000000 66.000000"
 preserveAspectRatio="xMidYMid meet">
<metadata>
Created by potrace 1.16, written by Peter Selinger 2001-2019
</metadata>
<g transform="translate(0.000000,66.000000) scale(0.100000,-0.100000)"
fill="#000000" stroke="none">
<path d="M337 593 l6 -69 -29 -23 -29 -23 -44 5 -43 5 -16 15 -15 16 12 41 12
41 -11 14 -10 13 -31 6 -31 6 -54 -6 -54 -7 0 -81 0 -82 13 -18 14 -19 22 12
22 12 22 -7 22 -6 18 -16 17 -15 0 -28 0 -28 -16 -15 -15 -16 -18 0 -17 0 -12
12 -12 12 -10 -10 -10 -10 -15 -90 -15 -89 0 -7 0 -8 49 0 48 0 32 -11 33 -12
8 -21 7 -21 -9 -24 -9 -24 5 -5 5 -4 45 -5 46 -6 31 13 31 13 -6 26 -7 26 -2
14 -2 15 25 7 25 7 67 1 68 1 4 23 5 22 3 72 4 73 10 10 10 10 36 -12 37 -11
25 17 26 16 0 45 0 44 -31 21 -30 22 -45 -7 -44 -6 0 86 0 85 -27 11 -28 11
-62 5 -62 6 6 -70z"/>
</g>
</svg>
