<?xml version="1.0" standalone="no"?>
<!DOCTYPE svg PUBLIC "-//W3C//DTD SVG 20010904//EN"
 "http://www.w3.org/TR/2001/REC-SVG-20010904/DTD/svg10.dtd">
<svg version="1.0" xmlns="http://www.w3.org/2000/svg"
 width="68.000000pt" height="68.000000pt" viewBox="0 0 68.000000 68.000000"
 preserveAspectRatio="xMidYMid meet">
<metadata>
Created by potrace 1.16, written by Peter Selinger 2001-2019
</metadata>
<g transform="translate(0.000000,68.000000) scale(0.100000,-0.100000)"
fill="#000000" stroke="none">
<path d="M335 613 l7 -70 -28 -22 -29 -23 -34 6 -35 5 -12 13 -13 13 11 42 12
41 -12 15 -13 15 -35 6 -34 7 -60 -7 -60 -7 0 -91 0 -92 13 -19 14 -18 29 8
29 8 15 -2 15 -3 19 -18 19 -18 -7 -25 -6 -25 -17 -6 -16 -7 -11 11 -10 10
-17 0 -18 0 -6 -10 -6 -10 -14 -87 -15 -88 0 -17 0 -18 50 0 51 0 35 -15 36
-15 -6 -44 -7 -43 23 -7 23 -6 42 0 42 0 27 12 26 12 -6 42 -5 42 31 6 31 6
57 0 58 0 6 16 6 16 0 61 0 62 6 23 7 23 43 -7 44 -6 25 16 25 16 0 55 0 54
-31 22 -31 21 -44 -5 -44 -5 0 84 0 84 -27 11 -28 11 -73 6 -73 5 6 -70z"/>
</g>
</svg>
