<?xml version="1.0" standalone="no"?>
<!DOCTYPE svg PUBLIC "-//W3C//DTD SVG 20010904//EN"
 "http://www.w3.org/TR/2001/REC-SVG-20010904/DTD/svg10.dtd">
<svg version="1.0" xmlns="http://www.w3.org/2000/svg"
 width="64.000000pt" height="80.000000pt" viewBox="0 0 64.000000 80.000000"
 preserveAspectRatio="xMidYMid meet">
<metadata>
Created by potrace 1.16, written by Peter Selinger 2001-2019
</metadata>
<g transform="translate(0.000000,80.000000) scale(0.100000,-0.100000)"
fill="#000000" stroke="none">
<path d="M214 775 l-16 -25 4 -37 5 -38 4 -15 4 -15 -105 0 -105 0 0 -245 0
-245 108 -3 107 -3 -11 -21 -11 -21 5 -39 5 -39 13 -15 13 -16 45 5 45 5 14
18 14 19 -6 52 -6 52 20 6 21 7 74 -7 73 -7 -1 13 -1 14 8 72 8 72 13 18 13
17 15 -13 16 -12 20 20 21 21 0 40 0 39 -19 11 -20 10 -26 -10 -26 -10 -9 0
-8 0 -13 37 -12 36 6 66 5 67 -71 3 -71 3 -34 14 -34 14 7 17 7 18 5 15 4 15
-21 23 -21 22 -29 0 -30 0 -16 -25z"/>
</g>
</svg>
