<?xml version="1.0" standalone="no"?>
<!DOCTYPE svg PUBLIC "-//W3C//DTD SVG 20010904//EN"
 "http://www.w3.org/TR/2001/REC-SVG-20010904/DTD/svg10.dtd">
<svg version="1.0" xmlns="http://www.w3.org/2000/svg"
 width="66.000000pt" height="70.000000pt" viewBox="0 0 66.000000 70.000000"
 preserveAspectRatio="xMidYMid meet">
<metadata>
Created by potrace 1.16, written by Peter Selinger 2001-2019
</metadata>
<g transform="translate(0.000000,70.000000) scale(0.100000,-0.100000)"
fill="#000000" stroke="none">
<path d="M7 694 l-7 -7 0 -66 0 -66 13 -25 13 -25 54 -1 55 -1 0 -49 0 -49
-42 3 -41 3 -6 -18 -6 -18 -15 -85 -15 -85 0 -18 0 -17 95 6 95 7 0 -76 0 -77
25 -16 25 -16 25 6 25 6 16 32 17 32 1 55 0 54 97 -6 96 -6 17 52 16 52 10 43
11 42 12 1 12 1 19 -2 19 -2 8 14 9 13 0 50 0 50 -9 14 -9 14 -40 -6 -41 -5
-18 13 -18 13 -3 81 -4 81 -2 0 -1 0 -78 -15 -79 -15 -10 -6 -10 -7 5 -34 6
-34 -25 -9 -25 -10 -37 0 -37 1 -18 13 -18 14 10 7 11 6 0 28 0 28 -21 19 -21
19 -77 3 -76 4 -8 -8z"/>
</g>
</svg>
