<?xml version="1.0" standalone="no"?>
<!DOCTYPE svg PUBLIC "-//W3C//DTD SVG 20010904//EN"
 "http://www.w3.org/TR/2001/REC-SVG-20010904/DTD/svg10.dtd">
<svg version="1.0" xmlns="http://www.w3.org/2000/svg"
 width="71.000000pt" height="57.000000pt" viewBox="0 0 71.000000 57.000000"
 preserveAspectRatio="xMidYMid meet">
<metadata>
Created by potrace 1.16, written by Peter Selinger 2001-2019
</metadata>
<g transform="translate(0.000000,57.000000) scale(0.100000,-0.100000)"
fill="#000000" stroke="none">
<path d="M5 505 l-7 -66 7 -39 7 -39 14 -12 14 -11 30 12 30 12 15 -6 16 -6
-3 -47 -3 -48 -31 2 -32 3 -10 -13 -11 -13 -12 -75 -11 -74 -9 -9 -9 -10 0
-19 0 -19 23 6 22 6 73 0 73 0 25 27 26 28 -5 37 -5 37 15 6 16 5 21 -6 21 -6
18 -16 18 -16 -7 -63 -6 -62 26 -7 27 -6 40 6 40 6 39 18 40 17 0 12 0 11 -20
47 -20 47 -6 37 -6 38 73 -1 74 0 31 17 32 16 6 17 6 17 -6 36 -7 36 -9 18 -9
17 -29 0 -29 0 -27 -10 -26 -10 -14 11 -14 11 0 74 0 74 -27 0 -28 -1 -75 -9
-74 -10 -19 -6 -19 -6 5 -39 5 -38 -14 -12 -14 -11 -25 6 -24 6 5 30 6 29 -6
25 -6 24 -31 11 -32 11 -77 0 -78 0 -7 -65z"/>
</g>
</svg>
