<?xml version="1.0" standalone="no"?>
<!DOCTYPE svg PUBLIC "-//W3C//DTD SVG 20010904//EN"
 "http://www.w3.org/TR/2001/REC-SVG-20010904/DTD/svg10.dtd">
<svg version="1.0" xmlns="http://www.w3.org/2000/svg"
 width="69.000000pt" height="55.000000pt" viewBox="0 0 69.000000 55.000000"
 preserveAspectRatio="xMidYMid meet">
<metadata>
Created by potrace 1.16, written by Peter Selinger 2001-2019
</metadata>
<g transform="translate(0.000000,55.000000) scale(0.100000,-0.100000)"
fill="#000000" stroke="none">
<path d="M6 487 l-7 -64 7 -29 7 -29 9 -12 10 -13 20 11 19 10 27 -3 27 -3 3
-57 3 -57 -21 -11 -21 -11 -13 10 -13 11 -11 -13 -11 -13 -12 -75 -11 -74 -9
-9 -9 -10 0 -5 0 -6 91 5 90 5 19 25 20 25 0 13 0 13 -10 19 -10 19 21 11 21
12 33 -6 32 -6 18 -20 18 -19 -7 -60 -7 -59 21 -7 22 -7 36 7 35 7 39 16 38
17 -6 15 -6 15 -20 54 -19 54 3 31 3 31 20 -3 20 -3 50 -1 51 -1 31 16 31 16
5 14 5 15 -8 37 -8 37 -11 11 -11 11 -50 -13 -51 -13 -14 12 -15 12 0 74 0 74
-17 0 -18 -1 -75 -9 -74 -10 -19 -6 -19 -6 7 -35 6 -35 -12 -14 -11 -14 -27 0
-27 0 -18 13 -18 13 12 21 13 20 -6 25 -7 26 -31 11 -32 11 -67 0 -68 0 -6
-63z"/>
</g>
</svg>
