<?xml version="1.0" standalone="no"?>
<!DOCTYPE svg PUBLIC "-//W3C//DTD SVG 20010904//EN"
 "http://www.w3.org/TR/2001/REC-SVG-20010904/DTD/svg10.dtd">
<svg version="1.0" xmlns="http://www.w3.org/2000/svg"
 width="70.000000pt" height="68.000000pt" viewBox="0 0 70.000000 68.000000"
 preserveAspectRatio="xMidYMid meet">
<metadata>
Created by potrace 1.16, written by Peter Selinger 2001-2019
</metadata>
<g transform="translate(0.000000,68.000000) scale(0.100000,-0.100000)"
fill="#000000" stroke="none">
<path d="M6 584 l-6 -95 6 -10 6 -10 57 7 58 6 27 -25 28 -26 -7 -31 -7 -31
-24 -15 -24 -16 -46 7 -47 7 -8 -14 -9 -13 0 -87 0 -87 83 -3 82 -3 -3 -58 -4
-58 12 -14 12 -15 58 0 59 0 21 27 22 28 -4 65 -3 65 18 3 18 4 71 -22 71 -21
9 13 8 13 -5 25 -5 25 -6 61 -7 61 75 -5 75 -4 17 23 16 23 0 41 -1 40 -14 19
-14 18 -50 -7 -51 -7 -15 36 -15 35 0 61 0 60 -99 0 -99 0 -12 -15 -13 -16 12
-25 11 -25 0 -13 0 -12 -20 -22 -21 -22 -34 0 -35 0 -15 23 -15 23 13 33 12
33 -24 19 -23 19 -83 0 -82 0 -7 -96z"/>
</g>
</svg>
