<?xml version="1.0" standalone="no"?>
<!DOCTYPE svg PUBLIC "-//W3C//DTD SVG 20010904//EN"
 "http://www.w3.org/TR/2001/REC-SVG-20010904/DTD/svg10.dtd">
<svg version="1.0" xmlns="http://www.w3.org/2000/svg"
 width="68.000000pt" height="66.000000pt" viewBox="0 0 68.000000 66.000000"
 preserveAspectRatio="xMidYMid meet">
<metadata>
Created by potrace 1.16, written by Peter Selinger 2001-2019
</metadata>
<g transform="translate(0.000000,66.000000) scale(0.100000,-0.100000)"
fill="#000000" stroke="none">
<path d="M7 573 l-6 -86 4 -8 5 -7 58 5 58 5 27 -24 27 -25 0 -24 0 -24 -13
-25 -13 -25 -34 -11 -34 -11 -29 10 -29 10 -9 -14 -9 -14 0 -77 0 -78 78 0 78
0 10 -10 10 -10 -10 -49 -10 -50 13 -15 13 -16 48 0 49 0 21 27 22 28 -4 65
-3 65 30 3 30 3 62 -19 62 -20 5 14 5 13 -10 33 -9 33 0 52 0 53 73 -6 74 -7
16 24 17 23 0 31 -1 30 -14 19 -15 19 -36 -11 -37 -11 -17 9 -18 10 -11 31
-11 32 0 58 0 59 -89 0 -89 0 -10 -13 -11 -13 9 -14 10 -15 0 -26 0 -25 -20
-22 -21 -22 -44 0 -45 0 -17 26 -17 26 12 32 12 31 -21 18 -21 17 -73 0 -72 0
-6 -87z"/>
</g>
</svg>
