<?xml version="1.0" standalone="no"?>
<!DOCTYPE svg PUBLIC "-//W3C//DTD SVG 20010904//EN"
 "http://www.w3.org/TR/2001/REC-SVG-20010904/DTD/svg10.dtd">
<svg version="1.0" xmlns="http://www.w3.org/2000/svg"
 width="58.000000pt" height="66.000000pt" viewBox="0 0 58.000000 66.000000"
 preserveAspectRatio="xMidYMid meet">
<metadata>
Created by potrace 1.16, written by Peter Selinger 2001-2019
</metadata>
<g transform="translate(0.000000,66.000000) scale(0.100000,-0.100000)"
fill="#000000" stroke="none">
<path d="M20 590 l0 -71 14 -34 15 -34 23 -6 24 -6 28 11 28 10 14 -17 13 -18
1 -20 0 -21 -16 -23 -17 -23 -73 7 -74 7 0 -50 0 -49 6 -62 7 -61 79 0 79 0
22 -11 22 -12 6 -10 6 -9 -11 -30 -11 -30 19 -14 20 -14 37 0 37 0 32 32 32
31 -4 54 -3 53 30 0 30 0 44 -20 43 -20 13 0 12 0 17 80 18 79 -7 21 -7 21
-53 -6 -53 -7 -23 12 -24 12 -22 21 -23 20 0 23 0 22 15 12 15 12 44 -11 45
-11 16 6 17 7 9 24 9 24 0 81 0 81 -96 -7 -96 -7 -15 -6 -15 -6 7 -53 6 -54
-26 -10 -26 -10 -36 15 -35 15 7 65 7 65 -101 0 -101 0 0 -70z"/>
</g>
</svg>
