<?xml version="1.0" standalone="no"?>
<!DOCTYPE svg PUBLIC "-//W3C//DTD SVG 20010904//EN"
 "http://www.w3.org/TR/2001/REC-SVG-20010904/DTD/svg10.dtd">
<svg version="1.0" xmlns="http://www.w3.org/2000/svg"
 width="56.000000pt" height="64.000000pt" viewBox="0 0 56.000000 64.000000"
 preserveAspectRatio="xMidYMid meet">
<metadata>
Created by potrace 1.16, written by Peter Selinger 2001-2019
</metadata>
<g transform="translate(0.000000,64.000000) scale(0.100000,-0.100000)"
fill="#000000" stroke="none">
<path d="M20 581 l0 -58 11 -32 11 -31 18 -10 17 -9 37 11 36 11 15 -19 14
-19 1 -30 0 -31 -17 -23 -16 -24 -75 7 -75 6 7 -78 7 -77 1 -22 0 -23 79 0 78
0 25 -12 26 -11 5 -18 6 -18 -12 -22 -12 -22 19 -14 18 -13 27 0 27 0 32 32
32 32 -5 53 -6 53 42 0 42 0 44 -20 43 -20 2 0 3 0 1 13 1 12 15 60 16 60 -6
17 -5 17 -44 -6 -44 -6 -25 7 -24 6 -31 26 -31 26 0 33 0 33 16 13 15 13 50
-11 50 -10 17 13 17 12 4 88 3 87 -83 -7 -84 -7 -17 -5 -17 -5 2 -56 2 -57
-31 -9 -30 -9 -39 16 -38 16 6 65 6 65 -89 0 -90 0 0 -59z"/>
</g>
</svg>
