<?xml version="1.0" standalone="no"?>
<!DOCTYPE svg PUBLIC "-//W3C//DTD SVG 20010904//EN"
 "http://www.w3.org/TR/2001/REC-SVG-20010904/DTD/svg10.dtd">
<svg version="1.0" xmlns="http://www.w3.org/2000/svg"
 width="53.000000pt" height="64.000000pt" viewBox="0 0 53.000000 64.000000"
 preserveAspectRatio="xMidYMid meet">
<metadata>
Created by potrace 1.16, written by Peter Selinger 2001-2019
</metadata>
<g transform="translate(0.000000,64.000000) scale(0.100000,-0.100000)"
fill="#000000" stroke="none">
<path d="M0 383 l0 -258 88 3 88 3 12 -14 12 -14 -12 -31 -12 -31 19 -20 18
-21 37 0 37 0 12 24 13 24 -3 58 -4 59 38 3 38 3 55 -16 55 -16 8 6 9 5 12 70
12 71 -6 22 -5 22 -70 0 -70 0 -22 22 -22 21 7 37 7 36 23 10 23 11 39 -11 39
-11 15 15 15 16 3 79 4 80 -63 -1 -64 -1 -25 -7 -25 -7 3 -42 3 -41 -31 -31
-31 -30 -24 0 -24 0 -26 10 -26 10 3 52 3 53 -35 17 -35 18 -57 0 -58 0 0
-257z"/>
</g>
</svg>
