<?xml version="1.0" standalone="no"?>
<!DOCTYPE svg PUBLIC "-//W3C//DTD SVG 20010904//EN"
 "http://www.w3.org/TR/2001/REC-SVG-20010904/DTD/svg10.dtd">
<svg version="1.0" xmlns="http://www.w3.org/2000/svg"
 width="51.000000pt" height="66.000000pt" viewBox="0 0 51.000000 66.000000"
 preserveAspectRatio="xMidYMid meet">
<metadata>
Created by potrace 1.16, written by Peter Selinger 2001-2019
</metadata>
<g transform="translate(0.000000,66.000000) scale(0.100000,-0.100000)"
fill="#000000" stroke="none">
<path d="M0 575 l0 -85 25 -12 25 -11 26 12 25 11 9 -5 8 -5 6 -35 7 -34 -16
-25 -17 -25 -19 -6 -20 -7 -15 13 -15 12 -12 -12 -12 -12 0 -97 0 -97 93 4 93
3 -7 -59 -6 -60 11 -22 12 -21 40 0 40 0 15 15 15 14 -13 20 -12 20 6 6 6 6
103 30 104 30 4 5 5 4 -17 13 -17 12 -28 85 -27 85 -20 0 -20 0 -12 12 -13 12
0 43 1 43 13 17 13 17 31 -11 32 -12 21 21 22 21 5 72 5 72 -29 -6 -29 -5 -50
-7 -50 -7 -12 -9 -12 -10 6 -30 6 -30 -14 -9 -14 -9 -52 0 -52 0 -6 10 -6 10
12 21 11 22 -10 23 -11 23 -38 10 -38 11 -57 0 -58 0 0 -85z"/>
</g>
</svg>
