<?xml version="1.0" standalone="no"?>
<!DOCTYPE svg PUBLIC "-//W3C//DTD SVG 20010904//EN"
 "http://www.w3.org/TR/2001/REC-SVG-20010904/DTD/svg10.dtd">
<svg version="1.0" xmlns="http://www.w3.org/2000/svg"
 width="52.000000pt" height="67.000000pt" viewBox="0 0 52.000000 67.000000"
 preserveAspectRatio="xMidYMid meet">
<metadata>
Created by potrace 1.16, written by Peter Selinger 2001-2019
</metadata>
<g transform="translate(0.000000,67.000000) scale(0.100000,-0.100000)"
fill="#000000" stroke="none">
<path d="M10 587 l0 -83 14 -19 14 -19 26 12 27 12 19 -10 20 -10 10 -20 10
-19 0 -20 0 -20 -30 -31 -31 -31 -42 3 -42 3 0 -90 0 -90 71 9 72 9 16 -6 17
-7 -11 -21 -12 -21 6 -33 6 -33 25 -26 24 -26 39 0 39 0 18 21 19 20 -11 29
-11 29 12 10 11 9 88 17 87 18 -6 81 -7 81 -9 19 -10 18 -11 -11 -11 -11 -22
0 -23 0 -24 23 -25 22 -6 25 -5 25 17 23 18 23 39 0 40 -1 19 -2 20 -3 6 30 6
30 -4 68 -4 68 -17 -6 -16 -6 -50 -10 -50 -10 -23 -10 -23 -9 6 -20 6 -20 -6
-18 -5 -19 -26 -11 -25 -12 -28 0 -29 0 -13 16 -13 15 11 52 11 52 -16 13 -16
12 -88 0 -88 0 0 -83z"/>
</g>
</svg>
