<?xml version="1.0" standalone="no"?>
<!DOCTYPE svg PUBLIC "-//W3C//DTD SVG 20010904//EN"
 "http://www.w3.org/TR/2001/REC-SVG-20010904/DTD/svg10.dtd">
<svg version="1.0" xmlns="http://www.w3.org/2000/svg"
 width="67.000000pt" height="52.000000pt" viewBox="0 0 67.000000 52.000000"
 preserveAspectRatio="xMidYMid meet">
<metadata>
Created by potrace 1.16, written by Peter Selinger 2001-2019
</metadata>
<g transform="translate(0.000000,52.000000) scale(0.100000,-0.100000)"
fill="#000000" stroke="none">
<path d="M160 432 l0 -89 -18 -16 -19 -17 -27 0 -27 0 -18 9 -17 10 -10 -7
-10 -7 -7 -17 -6 -18 5 -15 6 -14 35 -12 34 -11 44 7 44 6 7 -27 7 -26 -6 -74
-7 -73 -2 -13 -3 -12 94 -9 94 -8 9 9 8 8 -10 34 -10 35 6 20 6 20 16 18 15
17 17 0 18 0 22 -18 23 -18 -13 -23 -12 -23 14 -14 14 -14 83 -15 84 -15 7 5
7 4 -13 63 -14 63 0 21 0 20 -13 18 -14 19 -22 -13 -23 -12 -14 19 -13 18 -1
26 0 25 13 17 12 16 42 -11 42 -12 7 6 6 6 8 38 9 38 -6 63 -6 63 -68 0 -67 0
-17 -6 -16 -6 7 -58 6 -58 -21 -21 -21 -21 -45 0 -46 0 -20 19 -20 19 6 35 7
35 -6 20 -7 20 -31 11 -31 11 -53 0 -54 0 0 -88z"/>
</g>
</svg>
