<?xml version="1.0" standalone="no"?>
<!DOCTYPE svg PUBLIC "-//W3C//DTD SVG 20010904//EN"
 "http://www.w3.org/TR/2001/REC-SVG-20010904/DTD/svg10.dtd">
<svg version="1.0" xmlns="http://www.w3.org/2000/svg"
 width="69.000000pt" height="54.000000pt" viewBox="0 0 69.000000 54.000000"
 preserveAspectRatio="xMidYMid meet">
<metadata>
Created by potrace 1.16, written by Peter Selinger 2001-2019
</metadata>
<g transform="translate(0.000000,54.000000) scale(0.100000,-0.100000)"
fill="#000000" stroke="none">
<path d="M160 452 l0 -89 -18 -16 -19 -17 -17 0 -17 0 -20 11 -20 10 -18 -6
-19 -6 -6 -25 -7 -26 6 -18 6 -19 36 -12 35 -11 44 5 44 5 6 -25 7 -25 -7 -61
-7 -62 -2 -25 -2 -25 99 -8 99 -8 14 6 15 5 -7 38 -8 37 1 19 1 19 19 20 20
19 21 -12 22 -11 -6 -33 -7 -32 15 -13 15 -12 92 -16 92 -15 9 9 8 8 -15 85
-16 85 -9 24 -10 23 -28 -5 -29 -6 -12 14 -12 15 6 25 6 25 55 -6 54 -7 6 29
7 29 4 14 5 14 -7 74 -7 73 -81 0 -81 0 -14 -9 -14 -9 7 -55 7 -56 -20 -20
-21 -21 -35 0 -35 0 -19 16 -19 17 5 33 5 33 -6 24 -6 25 -31 11 -32 11 -63 0
-64 0 0 -88z"/>
</g>
</svg>
