<?xml version="1.0" standalone="no"?>
<!DOCTYPE svg PUBLIC "-//W3C//DTD SVG 20010904//EN"
 "http://www.w3.org/TR/2001/REC-SVG-20010904/DTD/svg10.dtd">
<svg version="1.0" xmlns="http://www.w3.org/2000/svg"
 width="79.000000pt" height="65.000000pt" viewBox="0 0 79.000000 65.000000"
 preserveAspectRatio="xMidYMid meet">
<metadata>
Created by potrace 1.16, written by Peter Selinger 2001-2019
</metadata>
<g transform="translate(0.000000,65.000000) scale(0.100000,-0.100000)"
fill="#000000" stroke="none">
<path d="M345 640 l-7 -11 7 -51 7 -50 -13 -9 -14 -9 -86 0 -86 0 5 -95 5 -96
-66 7 -65 7 -17 -27 -17 -26 7 -27 7 -28 11 -13 11 -14 22 -8 22 -9 37 12 36
11 10 -15 10 -14 -5 -81 -6 -81 38 -6 37 -6 38 6 38 6 15 23 15 23 -10 35 -9
36 18 10 19 10 40 0 40 0 15 -15 16 -16 -12 -18 -12 -19 15 -14 14 -15 75 -17
74 -16 7 7 7 8 -15 62 -15 62 6 26 7 26 60 -7 60 -7 24 23 25 23 0 24 0 24
-11 20 -10 20 -49 -7 -48 -6 -11 20 -11 21 0 75 0 76 -79 0 -79 0 -22 18 -23
18 12 22 11 21 0 20 0 20 -19 11 -20 10 -40 0 -40 0 -6 -10z"/>
</g>
</svg>
