<?xml version="1.0" standalone="no"?>
<!DOCTYPE svg PUBLIC "-//W3C//DTD SVG 20010904//EN"
 "http://www.w3.org/TR/2001/REC-SVG-20010904/DTD/svg10.dtd">
<svg version="1.0" xmlns="http://www.w3.org/2000/svg"
 width="80.000000pt" height="52.000000pt" viewBox="0 0 80.000000 52.000000"
 preserveAspectRatio="xMidYMid meet">
<metadata>
Created by potrace 1.16, written by Peter Selinger 2001-2019
</metadata>
<g transform="translate(0.000000,52.000000) scale(0.100000,-0.100000)"
fill="#000000" stroke="none">
<path d="M513 514 l-13 -6 6 -38 6 -39 -6 -25 -6 -25 -40 -12 -40 -12 -32 9
-33 10 0 54 0 55 -35 12 -35 12 -57 0 -58 1 0 -97 0 -98 -9 -13 -8 -13 -51 7
-52 7 -25 -17 -25 -16 0 -20 0 -20 29 -32 30 -33 20 12 20 13 15 -6 15 -6 5
-16 5 -17 7 -50 7 -50 8 -22 9 -23 75 0 75 0 21 21 20 20 -3 42 -3 42 34 3 34
3 23 -5 23 -6 -2 -27 -2 -28 45 -13 45 -13 50 -15 50 -15 13 -6 12 -5 1 49 0
48 8 52 7 53 7 7 7 6 25 -13 25 -13 20 18 20 18 0 36 -1 36 -14 18 -14 19 -39
-7 -40 -6 -7 11 -7 11 1 79 1 79 -8 5 -7 4 -70 6 -70 6 -12 -6z"/>
</g>
</svg>
