<?xml version="1.0" standalone="no"?>
<!DOCTYPE svg PUBLIC "-//W3C//DTD SVG 20010904//EN"
 "http://www.w3.org/TR/2001/REC-SVG-20010904/DTD/svg10.dtd">
<svg version="1.0" xmlns="http://www.w3.org/2000/svg"
 width="82.000000pt" height="54.000000pt" viewBox="0 0 82.000000 54.000000"
 preserveAspectRatio="xMidYMid meet">
<metadata>
Created by potrace 1.16, written by Peter Selinger 2001-2019
</metadata>
<g transform="translate(0.000000,54.000000) scale(0.100000,-0.100000)"
fill="#000000" stroke="none">
<path d="M511 531 l-13 -9 7 -40 7 -41 -7 -20 -6 -21 -37 -11 -37 -10 -25 9
-25 9 0 54 0 54 -35 12 -35 12 -67 0 -68 1 0 -94 0 -94 -6 -15 -6 -15 -53 5
-54 6 -26 -17 -25 -16 0 -29 0 -29 27 -32 26 -32 38 6 38 6 5 -17 5 -18 7 -50
7 -50 8 -22 9 -23 85 0 85 0 20 20 20 20 0 46 0 45 37 -3 38 -3 5 -30 5 -30
45 -13 45 -12 62 -20 62 -20 9 0 9 0 7 92 7 92 8 14 8 15 7 -12 7 -11 23 0 23
0 16 18 17 19 0 44 -1 44 -14 18 -14 19 -43 -4 -43 -3 -5 90 -5 90 -45 7 -45
7 -40 0 -40 1 -14 -9z"/>
</g>
</svg>
