<?xml version="1.0" standalone="no"?>
<!DOCTYPE svg PUBLIC "-//W3C//DTD SVG 20010904//EN"
 "http://www.w3.org/TR/2001/REC-SVG-20010904/DTD/svg10.dtd">
<svg version="1.0" xmlns="http://www.w3.org/2000/svg"
 width="67.000000pt" height="67.000000pt" viewBox="0 0 67.000000 67.000000"
 preserveAspectRatio="xMidYMid meet">
<metadata>
Created by potrace 1.16, written by Peter Selinger 2001-2019
</metadata>
<g transform="translate(0.000000,67.000000) scale(0.100000,-0.100000)"
fill="#000000" stroke="none">
<path d="M153 569 l6 -101 -58 7 -59 7 -22 -12 -21 -11 3 -51 3 -51 27 -20 27
-20 28 -1 28 0 22 7 22 8 7 -27 7 -28 -12 -58 -12 -58 7 -11 7 -11 82 7 83 7
-5 -59 -5 -59 17 -17 16 -17 39 0 38 0 23 19 24 19 0 51 0 52 20 4 20 5 75 -2
75 -3 0 105 0 105 -49 -2 -49 -1 -12 12 -12 12 -7 22 -7 22 6 30 6 29 42 -5
42 -6 20 15 20 15 4 82 3 83 -28 -7 -29 -6 -60 -11 -60 -12 -13 -10 -13 -10 6
-37 6 -37 -25 -16 -25 -17 -34 0 -33 0 -18 13 -17 13 -1 29 -1 30 8 43 7 42
-98 0 -97 0 6 -101z"/>
</g>
</svg>
