<?xml version="1.0" standalone="no"?>
<!DOCTYPE svg PUBLIC "-//W3C//DTD SVG 20010904//EN"
 "http://www.w3.org/TR/2001/REC-SVG-20010904/DTD/svg10.dtd">
<svg version="1.0" xmlns="http://www.w3.org/2000/svg"
 width="57.000000pt" height="57.000000pt" viewBox="0 0 57.000000 57.000000"
 preserveAspectRatio="xMidYMid meet">
<metadata>
Created by potrace 1.16, written by Peter Selinger 2001-2019
</metadata>
<g transform="translate(0.000000,57.000000) scale(0.100000,-0.100000)"
fill="#000000" stroke="none">
<path d="M8 504 l-4 -68 6 -35 6 -36 44 1 45 1 12 -16 12 -16 1 -26 0 -26 -19
-17 -19 -17 -7 10 -6 11 -24 0 -24 0 -5 -17 -5 -18 -6 -70 -6 -70 -4 -30 -5
-31 102 4 103 4 14 11 13 11 -5 53 -6 53 20 10 19 11 19 -10 19 -10 16 -42 17
-41 -11 -13 -11 -14 3 -28 3 -28 50 -3 50 -3 62 16 62 17 10 49 11 49 6 54 6
53 -12 22 -11 22 -63 -6 -63 -7 -22 11 -21 12 0 23 0 23 18 16 17 16 43 -12
43 -11 17 10 17 11 3 98 3 98 -101 -6 -101 -6 -10 -7 -11 -7 6 -49 7 -50 -17
-19 -17 -19 -36 0 -36 1 -17 13 -17 13 6 50 6 51 -27 17 -27 18 -68 5 -69 5
-4 -69z"/>
</g>
</svg>
