<?xml version="1.0" standalone="no"?>
<!DOCTYPE svg PUBLIC "-//W3C//DTD SVG 20010904//EN"
 "http://www.w3.org/TR/2001/REC-SVG-20010904/DTD/svg10.dtd">
<svg version="1.0" xmlns="http://www.w3.org/2000/svg"
 width="66.000000pt" height="52.000000pt" viewBox="0 0 66.000000 52.000000"
 preserveAspectRatio="xMidYMid meet">
<metadata>
Created by potrace 1.16, written by Peter Selinger 2001-2019
</metadata>
<g transform="translate(0.000000,52.000000) scale(0.100000,-0.100000)"
fill="#000000" stroke="none">
<path d="M158 432 l3 -88 -15 -14 -16 -13 -45 13 -45 13 -20 -18 -20 -18 0
-33 0 -33 19 -11 20 -10 23 -2 23 -1 42 7 43 8 11 -26 12 -25 -16 -83 -15 -83
2 -2 2 -3 90 -2 89 -3 -4 15 -5 15 -4 41 -4 41 17 16 16 17 39 0 38 0 16 -6
17 -6 -12 -14 -11 -13 4 -17 3 -18 95 -27 95 -27 7 4 8 5 -1 52 -1 52 -7 30
-7 30 -41 -3 -42 -3 -20 20 -21 21 0 39 0 40 10 6 10 6 28 1 27 1 33 -7 32 -8
0 102 0 102 -17 -7 -18 -7 -60 -9 -59 -10 -13 -10 -12 -11 11 -23 11 -24 -13
-16 -12 -15 -53 0 -54 0 -20 26 -21 27 0 13 0 14 13 20 12 21 -15 9 -15 10
-85 0 -85 0 3 -88z"/>
</g>
</svg>
