<?xml version="1.0" standalone="no"?>
<!DOCTYPE svg PUBLIC "-//W3C//DTD SVG 20010904//EN"
 "http://www.w3.org/TR/2001/REC-SVG-20010904/DTD/svg10.dtd">
<svg version="1.0" xmlns="http://www.w3.org/2000/svg"
 width="55.000000pt" height="70.000000pt" viewBox="0 0 55.000000 70.000000"
 preserveAspectRatio="xMidYMid meet">
<metadata>
Created by potrace 1.16, written by Peter Selinger 2001-2019
</metadata>
<g transform="translate(0.000000,70.000000) scale(0.100000,-0.100000)"
fill="#000000" stroke="none">
<path d="M335 690 l-6 -10 7 -22 6 -22 0 -45 -1 -46 -26 -22 -26 -23 -23 0
-22 0 -23 21 -23 21 7 52 7 51 2 10 1 10 -85 3 -85 3 -20 -5 -20 -5 1 -88 1
-88 2 -10 1 -10 50 3 51 4 24 -16 25 -16 0 -33 0 -33 -15 -22 -16 -22 -19 12
-20 13 -15 -15 -15 -15 -20 -79 -20 -79 0 -5 0 -5 96 6 95 5 -7 -67 -6 -67 17
-17 16 -17 40 0 40 0 30 16 30 15 -3 37 -3 36 25 8 25 7 59 18 59 18 3 30 2
30 6 50 7 50 -9 14 -10 14 -28 -10 -29 -9 -23 4 -22 3 -15 29 -15 29 0 28 0
28 6 23 7 23 45 -3 46 -3 13 25 13 25 0 55 0 55 -9 13 -8 13 -48 14 -48 15
-38 0 -38 0 -6 -10z"/>
</g>
</svg>
