<?xml version="1.0" standalone="no"?>
<!DOCTYPE svg PUBLIC "-//W3C//DTD SVG 20010904//EN"
 "http://www.w3.org/TR/2001/REC-SVG-20010904/DTD/svg10.dtd">
<svg version="1.0" xmlns="http://www.w3.org/2000/svg"
 width="70.000000pt" height="58.000000pt" viewBox="0 0 70.000000 58.000000"
 preserveAspectRatio="xMidYMid meet">
<metadata>
Created by potrace 1.16, written by Peter Selinger 2001-2019
</metadata>
<g transform="translate(0.000000,58.000000) scale(0.100000,-0.100000)"
fill="#000000" stroke="none">
<path d="M495 570 l-7 -11 7 -38 6 -38 -14 -36 -15 -35 -21 -11 -21 -11 -20
20 -21 21 5 17 5 17 6 43 7 42 -116 0 -116 0 -2 -12 -2 -13 0 -90 -1 -90 -72
3 -71 4 -17 -25 -16 -25 7 -39 7 -38 15 -18 16 -18 61 2 60 2 0 -86 0 -87 10
-3 10 -4 97 6 97 6 18 17 17 18 -1 50 -1 50 14 0 14 0 20 -20 20 -20 1 -12 2
-13 -3 -42 -2 -42 36 -6 35 -7 73 8 73 9 3 267 2 266 -69 16 -70 16 -30 0 -30
0 -6 -10z"/>
</g>
</svg>
