<?xml version="1.0" standalone="no"?>
<!DOCTYPE svg PUBLIC "-//W3C//DTD SVG 20010904//EN"
 "http://www.w3.org/TR/2001/REC-SVG-20010904/DTD/svg10.dtd">
<svg version="1.0" xmlns="http://www.w3.org/2000/svg"
 width="55.000000pt" height="84.000000pt" viewBox="0 0 55.000000 84.000000"
 preserveAspectRatio="xMidYMid meet">
<metadata>
Created by potrace 1.16, written by Peter Selinger 2001-2019
</metadata>
<g transform="translate(0.000000,84.000000) scale(0.100000,-0.100000)"
fill="#000000" stroke="none">
<path d="M190 820 l-11 -20 3 -52 3 -53 -93 -3 -92 -3 0 -78 0 -78 10 -30 11
-30 24 -13 23 -13 36 7 36 7 0 -26 0 -26 -11 -20 -10 -20 -47 7 -48 6 -12 -26
-12 -27 0 -85 0 -85 33 5 32 5 71 6 72 6 4 -72 4 -71 23 -19 23 -19 17 0 17 0
23 22 23 21 -5 48 -6 48 27 5 27 5 72 6 72 7 6 17 5 18 -14 39 -13 39 -8 42
-7 42 -14 12 -14 12 -35 -6 -35 -6 -10 19 -10 19 0 23 0 24 14 19 14 19 49 -3
50 -2 18 27 18 28 5 72 4 71 -44 17 -45 18 -69 16 -69 17 2 30 2 29 -11 13
-10 13 -54 0 -53 0 -11 -20z"/>
</g>
</svg>
