<?xml version="1.0" standalone="no"?>
<!DOCTYPE svg PUBLIC "-//W3C//DTD SVG 20010904//EN"
 "http://www.w3.org/TR/2001/REC-SVG-20010904/DTD/svg10.dtd">
<svg version="1.0" xmlns="http://www.w3.org/2000/svg"
 width="85.000000pt" height="84.000000pt" viewBox="0 0 85.000000 84.000000"
 preserveAspectRatio="xMidYMid meet">
<metadata>
Created by potrace 1.16, written by Peter Selinger 2001-2019
</metadata>
<g transform="translate(0.000000,84.000000) scale(0.100000,-0.100000)"
fill="#000000" stroke="none">
<path d="M350 827 l-25 -13 2 -24 2 -25 6 -31 7 -30 -18 -15 -17 -14 -76 -5
-76 -5 -2 -80 -2 -80 0 -15 -1 -15 -60 3 -61 4 -14 -12 -15 -12 0 -44 0 -44
33 -20 32 -21 40 3 40 3 3 -93 3 -92 62 -1 62 0 35 -12 35 -12 0 -55 0 -55 36
-9 36 -9 36 7 36 7 17 16 16 16 -4 54 -3 53 18 6 18 6 42 -7 42 -6 28 -5 27
-6 1 64 0 63 7 40 7 39 53 -3 54 -3 19 18 19 17 0 43 0 43 -31 22 -31 22 -55
-6 -55 -6 3 87 4 87 -20 -2 -20 -2 -56 -17 -57 -17 -26 7 -26 6 7 28 8 27 0
47 0 47 -24 25 -24 26 -36 0 -36 0 -25 -13z"/>
</g>
</svg>
