<?xml version="1.0" standalone="no"?>
<!DOCTYPE svg PUBLIC "-//W3C//DTD SVG 20010904//EN"
 "http://www.w3.org/TR/2001/REC-SVG-20010904/DTD/svg10.dtd">
<svg version="1.0" xmlns="http://www.w3.org/2000/svg"
 width="83.000000pt" height="82.000000pt" viewBox="0 0 83.000000 82.000000"
 preserveAspectRatio="xMidYMid meet">
<metadata>
Created by potrace 1.16, written by Peter Selinger 2001-2019
</metadata>
<g transform="translate(0.000000,82.000000) scale(0.100000,-0.100000)"
fill="#000000" stroke="none">
<path d="M350 807 l-25 -13 3 -20 4 -19 5 -36 5 -35 -18 -15 -17 -14 -76 -5
-76 -5 -1 -80 -2 -80 -1 -17 -1 -16 -60 5 -60 6 -15 -13 -15 -12 0 -34 0 -34
33 -20 32 -20 22 0 22 0 6 10 7 11 14 -12 14 -11 0 -89 0 -89 63 -1 62 0 35
-12 35 -12 0 -55 0 -54 33 -10 32 -9 40 12 40 12 6 25 6 25 -6 39 -6 40 25 6
25 6 65 -9 65 -9 1 60 0 61 7 40 8 40 52 -3 53 -4 20 18 19 17 0 33 0 33 -31
21 -30 22 -56 -7 -56 -7 5 86 6 85 -4 4 -4 4 -53 -18 -52 -18 -35 -1 -35 0
-14 9 -14 9 13 50 12 51 -7 23 -7 23 -21 23 -20 22 -26 0 -26 0 -25 -13z"/>
</g>
</svg>
