<?xml version="1.0" standalone="no"?>
<!DOCTYPE svg PUBLIC "-//W3C//DTD SVG 20010904//EN"
 "http://www.w3.org/TR/2001/REC-SVG-20010904/DTD/svg10.dtd">
<svg version="1.0" xmlns="http://www.w3.org/2000/svg"
 width="82.000000pt" height="83.000000pt" viewBox="0 0 82.000000 83.000000"
 preserveAspectRatio="xMidYMid meet">
<metadata>
Created by potrace 1.16, written by Peter Selinger 2001-2019
</metadata>
<g transform="translate(0.000000,83.000000) scale(0.100000,-0.100000)"
fill="#000000" stroke="none">
<path d="M359 809 l-22 -22 7 -63 6 -63 -97 -3 -98 -3 -5 -70 -6 -70 -8 -13
-7 -12 -30 0 -30 0 -20 11 -21 11 -14 -19 -13 -18 -1 -45 0 -45 6 -20 5 -21
20 -12 19 -12 21 11 21 11 10 -10 11 -11 12 -73 13 -73 -4 -6 -3 -6 85 -6 85
-5 20 -17 19 -18 0 -19 0 -19 -10 -19 -10 -19 17 -21 17 -20 43 0 43 0 16 25
16 25 -3 72 -4 73 45 -2 45 -2 58 -20 57 -20 1 62 1 62 7 30 7 30 43 -3 43 -4
24 23 24 22 0 37 0 36 -12 12 -12 12 -24 0 -23 0 -21 -11 -20 -11 -21 21 -21
21 0 84 0 85 -35 15 -36 15 -45 11 -45 11 -17 5 -16 5 -6 14 -5 15 11 26 12
26 -19 14 -19 14 -33 0 -33 0 -21 -21z"/>
</g>
</svg>
