<?xml version="1.0" standalone="no"?>
<!DOCTYPE svg PUBLIC "-//W3C//DTD SVG 20010904//EN"
 "http://www.w3.org/TR/2001/REC-SVG-20010904/DTD/svg10.dtd">
<svg version="1.0" xmlns="http://www.w3.org/2000/svg"
 width="55.000000pt" height="84.000000pt" viewBox="0 0 55.000000 84.000000"
 preserveAspectRatio="xMidYMid meet">
<metadata>
Created by potrace 1.16, written by Peter Selinger 2001-2019
</metadata>
<g transform="translate(0.000000,84.000000) scale(0.100000,-0.100000)"
fill="#000000" stroke="none">
<path d="M223 825 l-21 -15 -12 -36 -12 -36 5 -38 5 -39 -88 6 -87 6 -7 -47
-7 -47 6 -54 7 -54 19 -17 19 -17 40 13 39 13 16 -13 15 -12 0 -28 0 -27 -21
-19 -21 -19 -46 0 -47 0 -6 -30 -7 -30 -1 -67 -1 -68 61 0 60 0 18 -10 19 -9
-5 -43 -5 -43 21 -19 20 -18 46 -6 45 -5 20 18 20 18 0 38 0 38 33 6 32 5 70
11 70 10 10 10 9 9 -12 20 -12 20 0 54 0 55 -12 26 -11 26 -38 -3 -38 -2 -6 6
-6 5 -8 31 -9 30 12 23 12 24 29 -1 30 0 34 -8 34 -8 -7 96 -6 95 -6 14 -5 14
-47 21 -47 20 -40 14 -40 14 0 34 0 34 -25 13 -25 13 -30 0 -31 0 -21 -15z"/>
</g>
</svg>
