<?xml version="1.0" standalone="no"?>
<!DOCTYPE svg PUBLIC "-//W3C//DTD SVG 20010904//EN"
 "http://www.w3.org/TR/2001/REC-SVG-20010904/DTD/svg10.dtd">
<svg version="1.0" xmlns="http://www.w3.org/2000/svg"
 width="67.000000pt" height="68.000000pt" viewBox="0 0 67.000000 68.000000"
 preserveAspectRatio="xMidYMid meet">
<metadata>
Created by potrace 1.16, written by Peter Selinger 2001-2019
</metadata>
<g transform="translate(0.000000,68.000000) scale(0.100000,-0.100000)"
fill="#000000" stroke="none">
<path d="M236 658 l-16 -22 0 -33 0 -32 10 -25 9 -26 -22 -5 -22 -5 -90 -3
-90 -2 -9 -45 -8 -45 11 -42 12 -43 26 -6 27 -7 30 11 30 12 11 -11 10 -10 0
-50 0 -51 -20 -14 -20 -15 -47 6 -48 7 -6 -16 -6 -16 -2 -80 -1 -80 33 -6 34
-7 44 7 44 6 21 12 21 13 -6 42 -6 42 33 6 33 6 39 -3 40 -3 5 -30 5 -30 65
-17 65 -17 17 -11 18 -10 14 0 15 0 17 78 17 77 9 12 10 12 23 -11 24 -11 16
13 15 12 0 73 0 73 -14 11 -14 12 -20 -12 -21 -13 -25 12 -26 12 -10 26 -10
25 0 44 0 44 -7 4 -8 4 -78 -15 -79 -15 -26 9 -27 10 3 20 2 19 6 47 7 47 -17
26 -16 25 -20 0 -19 0 -15 -22z"/>
</g>
</svg>
