<?xml version="1.0" standalone="no"?>
<!DOCTYPE svg PUBLIC "-//W3C//DTD SVG 20010904//EN"
 "http://www.w3.org/TR/2001/REC-SVG-20010904/DTD/svg10.dtd">
<svg version="1.0" xmlns="http://www.w3.org/2000/svg"
 width="57.000000pt" height="85.000000pt" viewBox="0 0 57.000000 85.000000"
 preserveAspectRatio="xMidYMid meet">
<metadata>
Created by potrace 1.16, written by Peter Selinger 2001-2019
</metadata>
<g transform="translate(0.000000,85.000000) scale(0.100000,-0.100000)"
fill="#000000" stroke="none">
<path d="M215 834 l-16 -17 3 -61 3 -61 -90 -5 -90 -5 -3 -60 -3 -59 5 -22 6
-23 16 -16 17 -16 51 2 51 3 3 -23 4 -23 -6 -24 -7 -25 -31 -18 -31 -19 -23
10 -24 11 -26 -12 -27 -12 6 -80 5 -80 12 -14 12 -15 68 0 68 0 14 -5 15 -6
-5 -54 -4 -54 25 -25 26 -26 45 0 45 0 33 30 32 30 1 48 1 47 81 5 81 5 7 7 7
7 -10 33 -11 33 -6 72 -7 72 -19 17 -19 17 -24 -11 -24 -10 -11 11 -11 11 0
20 0 21 8 11 7 11 55 -1 54 -1 7 39 6 38 -5 68 -5 68 -76 17 -76 16 -23 10
-22 9 6 39 6 39 -20 11 -21 11 -50 0 -50 0 -16 -16z"/>
</g>
</svg>
