<?xml version="1.0" standalone="no"?>
<!DOCTYPE svg PUBLIC "-//W3C//DTD SVG 20010904//EN"
 "http://www.w3.org/TR/2001/REC-SVG-20010904/DTD/svg10.dtd">
<svg version="1.0" xmlns="http://www.w3.org/2000/svg"
 width="55.000000pt" height="83.000000pt" viewBox="0 0 55.000000 83.000000"
 preserveAspectRatio="xMidYMid meet">
<metadata>
Created by potrace 1.16, written by Peter Selinger 2001-2019
</metadata>
<g transform="translate(0.000000,83.000000) scale(0.100000,-0.100000)"
fill="#000000" stroke="none">
<path d="M216 814 l-16 -15 0 -19 0 -19 10 -26 10 -26 -10 -19 -10 -19 -88 -3
-87 -3 -3 -49 -3 -50 5 -22 6 -23 16 -15 15 -16 32 0 32 0 15 10 14 9 8 -12 8
-12 0 -40 0 -41 -15 -20 -14 -21 -30 -12 -29 -13 -21 12 -21 11 -21 -12 -22
-11 6 -70 6 -70 12 -14 11 -14 68 0 68 0 16 -6 16 -6 -6 -53 -7 -53 26 -26 26
-26 35 0 35 0 29 28 30 27 6 22 7 22 -10 19 -10 19 11 11 12 12 67 0 67 0 16
6 15 6 -8 21 -8 22 -7 75 -8 75 -15 17 -15 17 -24 -11 -23 -11 -16 13 -15 12
0 32 0 31 8 12 8 13 54 -3 54 -2 6 35 6 35 -7 65 -6 65 -1 -7 -2 -7 -32 13
-33 14 -45 7 -45 7 -22 14 -22 14 11 31 11 32 -18 14 -19 13 -42 0 -43 0 -15
-16z"/>
</g>
</svg>
