<?xml version="1.0" standalone="no"?>
<!DOCTYPE svg PUBLIC "-//W3C//DTD SVG 20010904//EN"
 "http://www.w3.org/TR/2001/REC-SVG-20010904/DTD/svg10.dtd">
<svg version="1.0" xmlns="http://www.w3.org/2000/svg"
 width="81.000000pt" height="85.000000pt" viewBox="0 0 81.000000 85.000000"
 preserveAspectRatio="xMidYMid meet">
<metadata>
Created by potrace 1.16, written by Peter Selinger 2001-2019
</metadata>
<g transform="translate(0.000000,85.000000) scale(0.100000,-0.100000)"
fill="#000000" stroke="none">
<path d="M350 835 l-13 -15 5 -71 5 -70 -112 7 -112 7 0 -69 1 -69 -13 -23
-13 -24 -39 7 -39 7 -10 -27 -10 -26 0 -34 0 -34 12 -25 11 -26 19 -6 19 -6
42 4 42 3 -4 -50 -4 -50 -1 -35 -1 -35 93 -3 94 -3 -7 -63 -7 -63 23 -22 23
-21 32 0 33 0 26 23 27 23 0 59 0 60 -3 15 -4 15 28 3 27 3 54 -15 54 -16 25
0 24 0 7 80 6 79 6 16 6 15 44 0 43 0 11 20 11 21 -3 57 -3 57 -60 0 -60 0
-12 35 -12 35 0 52 -1 52 -19 11 -20 10 -68 16 -68 16 -6 10 -7 11 5 37 5 37
-23 6 -24 7 -36 0 -37 0 -12 -15z"/>
</g>
</svg>
