<?xml version="1.0" standalone="no"?>
<!DOCTYPE svg PUBLIC "-//W3C//DTD SVG 20010904//EN"
 "http://www.w3.org/TR/2001/REC-SVG-20010904/DTD/svg10.dtd">
<svg version="1.0" xmlns="http://www.w3.org/2000/svg"
 width="79.000000pt" height="83.000000pt" viewBox="0 0 79.000000 83.000000"
 preserveAspectRatio="xMidYMid meet">
<metadata>
Created by potrace 1.16, written by Peter Selinger 2001-2019
</metadata>
<g transform="translate(0.000000,83.000000) scale(0.100000,-0.100000)"
fill="#000000" stroke="none">
<path d="M352 818 l-12 -12 0 -41 0 -40 10 -34 9 -34 -117 7 -117 7 -1 -69 0
-70 -18 -26 -17 -27 -22 7 -22 7 -15 1 -15 1 -9 -36 -9 -36 7 -26 6 -26 16
-16 17 -16 51 3 51 3 -1 -40 -1 -40 -4 -45 -4 -45 95 -5 95 -5 -1 -10 -2 -10
-7 -51 -7 -52 23 -21 23 -21 22 0 23 0 26 23 26 22 -1 50 0 50 -3 25 -2 25 38
3 38 3 53 -15 54 -16 15 0 15 0 -1 13 -2 12 9 70 8 70 9 17 9 16 39 -5 39 -5
12 21 11 22 -3 47 -3 47 -60 0 -60 0 -12 35 -12 35 0 53 -1 53 -32 13 -33 14
-57 11 -56 12 -6 16 -6 16 6 32 6 32 -24 6 -23 7 -25 0 -26 0 -12 -12z"/>
</g>
</svg>
