<?xml version="1.0" standalone="no"?>
<!DOCTYPE svg PUBLIC "-//W3C//DTD SVG 20010904//EN"
 "http://www.w3.org/TR/2001/REC-SVG-20010904/DTD/svg10.dtd">
<svg version="1.0" xmlns="http://www.w3.org/2000/svg"
 width="67.000000pt" height="66.000000pt" viewBox="0 0 67.000000 66.000000"
 preserveAspectRatio="xMidYMid meet">
<metadata>
Created by potrace 1.16, written by Peter Selinger 2001-2019
</metadata>
<g transform="translate(0.000000,66.000000) scale(0.100000,-0.100000)"
fill="#000000" stroke="none">
<path d="M10 566 l0 -94 13 -10 13 -11 14 9 15 10 36 0 35 0 12 -12 12 -12 0
-28 0 -29 -26 -26 -25 -25 -50 4 -50 5 -5 -9 -6 -10 7 -91 6 -92 80 3 80 4 16
-13 15 -13 -6 -47 -6 -46 6 -17 6 -16 43 0 44 0 26 10 26 10 6 16 6 17 -10 28
-11 28 12 10 11 9 55 6 55 7 28 2 27 1 25 50 25 50 0 14 0 15 12 39 11 38 36
-2 36 -3 3 57 3 57 -21 21 -20 20 -26 0 -25 0 -19 -10 -19 -10 -11 21 -12 21
4 64 3 65 -23 6 -24 6 -61 -7 -61 -6 -8 -8 -8 -8 13 -33 12 -33 -24 -19 -24
-20 -56 3 -56 3 3 20 4 20 1 30 2 29 -25 13 -25 13 -77 0 -78 0 0 -94z"/>
</g>
</svg>
