<?xml version="1.0" standalone="no"?>
<!DOCTYPE svg PUBLIC "-//W3C//DTD SVG 20010904//EN"
 "http://www.w3.org/TR/2001/REC-SVG-20010904/DTD/svg10.dtd">
<svg version="1.0" xmlns="http://www.w3.org/2000/svg"
 width="55.000000pt" height="68.000000pt" viewBox="0 0 55.000000 68.000000"
 preserveAspectRatio="xMidYMid meet">
<metadata>
Created by potrace 1.16, written by Peter Selinger 2001-2019
</metadata>
<g transform="translate(0.000000,68.000000) scale(0.100000,-0.100000)"
fill="#000000" stroke="none">
<path d="M6 664 l-6 -16 0 -54 0 -55 10 -20 11 -19 19 10 19 10 25 0 26 0 20
-20 21 -21 -3 -57 -3 -57 -36 3 -36 3 -12 -48 -13 -48 -15 -42 -15 -43 -9 -5
-9 -6 0 -8 0 -8 58 9 57 8 37 -6 38 -6 4 -7 5 -7 -11 -47 -10 -48 16 -24 16
-25 24 -6 25 -6 21 7 21 7 16 34 17 34 -10 60 -10 61 5 4 4 5 37 0 37 0 55
-19 56 -19 22 68 22 68 -4 18 -3 19 -60 -3 -60 -3 -18 13 -18 14 -6 41 -5 42
15 16 16 15 40 -6 41 -6 10 26 10 27 0 76 0 75 -22 -6 -23 -6 -73 -15 -73 -14
-10 -6 -10 -7 12 -14 11 -14 -6 -15 -5 -15 -51 0 -50 0 -20 20 -20 20 11 27
10 27 -17 13 -18 13 -72 0 -72 0 -6 -16z"/>
</g>
</svg>
