<?xml version="1.0" standalone="no"?>
<!DOCTYPE svg PUBLIC "-//W3C//DTD SVG 20010904//EN"
 "http://www.w3.org/TR/2001/REC-SVG-20010904/DTD/svg10.dtd">
<svg version="1.0" xmlns="http://www.w3.org/2000/svg"
 width="68.000000pt" height="64.000000pt" viewBox="0 0 68.000000 64.000000"
 preserveAspectRatio="xMidYMid meet">
<metadata>
Created by potrace 1.16, written by Peter Selinger 2001-2019
</metadata>
<g transform="translate(0.000000,64.000000) scale(0.100000,-0.100000)"
fill="#000000" stroke="none">
<path d="M160 552 l0 -88 -16 -23 -17 -24 -58 7 -58 6 -6 -19 -6 -18 10 -26
10 -26 20 -10 19 -11 31 6 31 6 8 -23 9 -24 7 -59 6 -58 11 -20 10 -19 90 7
89 7 -6 -58 -7 -58 18 -13 19 -14 31 0 31 0 23 16 23 16 -7 48 -6 47 31 6 31
7 59 -7 59 -6 10 25 10 25 6 69 6 69 -9 14 -9 13 -22 -12 -22 -11 -28 6 -28 6
-22 20 -21 20 0 28 0 29 15 12 15 13 55 -7 55 -6 0 97 0 98 -87 -5 -88 -6 -13
-8 -13 -8 7 -44 6 -44 -16 -25 -16 -25 -44 0 -44 0 -12 15 -13 16 12 40 12 40
-6 18 -5 18 -26 11 -25 12 -64 0 -65 0 0 -88z"/>
</g>
</svg>
