<?xml version="1.0" standalone="no"?>
<!DOCTYPE svg PUBLIC "-//W3C//DTD SVG 20010904//EN"
 "http://www.w3.org/TR/2001/REC-SVG-20010904/DTD/svg10.dtd">
<svg version="1.0" xmlns="http://www.w3.org/2000/svg"
 width="68.000000pt" height="56.000000pt" viewBox="0 0 68.000000 56.000000"
 preserveAspectRatio="xMidYMid meet">
<metadata>
Created by potrace 1.16, written by Peter Selinger 2001-2019
</metadata>
<g transform="translate(0.000000,56.000000) scale(0.100000,-0.100000)"
fill="#000000" stroke="none">
<path d="M10 528 l0 -33 -7 -83 -6 -83 51 7 52 7 25 -17 25 -16 0 -20 0 -20
-20 -20 -20 -20 -20 10 -19 10 -16 0 -15 0 -9 -22 -8 -23 -5 -88 -6 -87 102 0
102 0 19 14 18 13 -6 47 -7 46 25 0 25 0 14 -23 15 -23 -11 -36 -11 -36 6 -16
6 -16 61 0 61 0 44 11 44 11 5 14 5 14 -16 63 -17 63 7 17 6 17 39 -6 39 -6
31 16 31 16 15 22 16 22 0 24 0 24 -30 30 -31 30 -49 -4 -48 -5 5 94 6 93 -80
0 -80 0 -33 -6 -32 -7 5 -42 6 -42 -15 -21 -15 -22 -26 0 -26 0 -17 15 -17 16
4 43 5 43 -32 12 -33 11 -68 0 -69 0 0 -32z"/>
</g>
</svg>
