<?xml version="1.0" standalone="no"?>
<!DOCTYPE svg PUBLIC "-//W3C//DTD SVG 20010904//EN"
 "http://www.w3.org/TR/2001/REC-SVG-20010904/DTD/svg10.dtd">
<svg version="1.0" xmlns="http://www.w3.org/2000/svg"
 width="66.000000pt" height="54.000000pt" viewBox="0 0 66.000000 54.000000"
 preserveAspectRatio="xMidYMid meet">
<metadata>
Created by potrace 1.16, written by Peter Selinger 2001-2019
</metadata>
<g transform="translate(0.000000,54.000000) scale(0.100000,-0.100000)"
fill="#000000" stroke="none">
<path d="M10 503 l0 -38 -6 -66 -7 -66 52 5 51 5 25 -17 25 -16 0 -30 0 -30
-21 -21 -21 -21 -16 5 -17 5 -17 7 -18 7 -9 -23 -9 -24 -3 -78 -4 -77 88 0 88
0 20 10 19 11 0 20 0 20 -9 18 -10 17 9 13 8 14 28 0 28 0 19 -24 19 -23 -7
-31 -7 -30 -2 -20 -1 -20 50 -3 49 -3 46 11 45 11 6 11 6 10 -13 46 -14 45 0
33 0 33 17 9 17 10 22 -10 23 -11 31 13 31 13 19 25 20 25 0 14 0 15 -30 30
-31 30 -32 -4 -32 -5 -15 -4 -15 -4 4 98 3 97 -70 0 -69 0 -32 -6 -32 -7 6
-39 7 -39 -16 -24 -16 -25 -39 0 -38 0 -17 19 -17 18 7 40 6 40 -32 12 -33 11
-58 0 -59 0 0 -37z"/>
</g>
</svg>
