<?xml version="1.0" standalone="no"?>
<!DOCTYPE svg PUBLIC "-//W3C//DTD SVG 20010904//EN"
 "http://www.w3.org/TR/2001/REC-SVG-20010904/DTD/svg10.dtd">
<svg version="1.0" xmlns="http://www.w3.org/2000/svg"
 width="53.000000pt" height="68.000000pt" viewBox="0 0 53.000000 68.000000"
 preserveAspectRatio="xMidYMid meet">
<metadata>
Created by potrace 1.16, written by Peter Selinger 2001-2019
</metadata>
<g transform="translate(0.000000,68.000000) scale(0.100000,-0.100000)"
fill="#000000" stroke="none">
<path d="M4 634 l-7 -46 6 -58 5 -59 7 -11 7 -11 53 6 53 7 12 -22 11 -21 -6
-29 -6 -29 -15 -12 -15 -12 -24 13 -24 13 -14 -12 -14 -11 -7 -53 -6 -52 -6
-42 -6 -43 73 0 74 0 25 -13 25 -13 -3 -46 -3 -46 16 -16 16 -16 34 0 34 0 36
35 37 34 -4 61 -3 60 27 0 28 0 40 -16 40 -16 15 6 15 5 0 79 0 78 -14 19 -13
19 -32 -14 -32 -13 -19 18 -20 18 0 51 0 52 52 -1 52 0 13 25 13 25 0 78 0 77
-87 0 -88 0 -13 -9 -14 -8 7 -56 7 -55 -21 -21 -21 -21 -38 0 -38 0 -19 14
-19 14 12 39 12 40 0 22 0 21 -26 10 -25 10 -74 0 -74 0 -7 -46z"/>
</g>
</svg>
