<?xml version="1.0" standalone="no"?>
<!DOCTYPE svg PUBLIC "-//W3C//DTD SVG 20010904//EN"
 "http://www.w3.org/TR/2001/REC-SVG-20010904/DTD/svg10.dtd">
<svg version="1.0" xmlns="http://www.w3.org/2000/svg"
 width="53.000000pt" height="54.000000pt" viewBox="0 0 53.000000 54.000000"
 preserveAspectRatio="xMidYMid meet">
<metadata>
Created by potrace 1.16, written by Peter Selinger 2001-2019
</metadata>
<g transform="translate(0.000000,54.000000) scale(0.100000,-0.100000)"
fill="#000000" stroke="none">
<path d="M10 513 l0 -28 -7 -68 -6 -69 56 7 57 7 25 -16 25 -16 0 -51 0 -50
-10 -20 -11 -19 -19 12 -20 12 -12 -12 -12 -12 -24 -68 -23 -67 -6 -22 -5 -21
43 -7 44 -6 70 3 70 3 -1 20 -1 20 -7 35 -7 36 18 22 18 23 20 -15 20 -14 0
-59 0 -58 114 -3 113 -3 -6 28 -6 28 -11 75 -11 74 -9 19 -10 18 -37 -3 -37
-3 -3 33 -3 32 13 1 13 1 30 -2 31 -1 19 21 19 21 4 91 5 91 -24 -7 -24 -7
-55 -10 -55 -11 -18 -10 -19 -10 6 -33 6 -33 -16 -6 -16 -6 -58 0 -58 0 -11
14 -12 14 12 47 12 47 -14 9 -14 9 -82 0 -83 0 0 -27z"/>
</g>
</svg>
