<?xml version="1.0" standalone="no"?>
<!DOCTYPE svg PUBLIC "-//W3C//DTD SVG 20010904//EN"
 "http://www.w3.org/TR/2001/REC-SVG-20010904/DTD/svg10.dtd">
<svg version="1.0" xmlns="http://www.w3.org/2000/svg"
 width="51.000000pt" height="52.000000pt" viewBox="0 0 51.000000 52.000000"
 preserveAspectRatio="xMidYMid meet">
<metadata>
Created by potrace 1.16, written by Peter Selinger 2001-2019
</metadata>
<g transform="translate(0.000000,52.000000) scale(0.100000,-0.100000)"
fill="#000000" stroke="none">
<path d="M10 488 l0 -33 -6 -52 -7 -52 56 6 56 6 26 -17 25 -16 0 -63 0 -63
-14 -20 -15 -19 -20 12 -20 13 -8 -13 -8 -12 -21 -60 -21 -60 -7 -16 -7 -16
32 -7 31 -6 68 0 67 0 5 5 5 5 -10 49 -11 49 17 26 17 26 13 0 13 0 20 -14 19
-14 0 -59 0 -58 104 -3 103 -3 -6 17 -7 17 -10 76 -11 75 -9 18 -10 18 -5 0
-5 0 -20 -11 -20 -10 -15 12 -14 11 0 35 0 34 16 16 15 16 12 -12 11 -11 16 0
17 0 18 20 18 20 5 80 5 80 -24 -8 -24 -9 -46 -7 -46 -7 -19 -13 -18 -14 12
-15 12 -14 -6 -16 -6 -16 -21 -7 -21 -7 -60 1 -59 1 -15 15 -16 15 11 48 11
48 -11 7 -12 8 -72 0 -73 0 0 -32z"/>
</g>
</svg>
