<?xml version="1.0" standalone="no"?>
<!DOCTYPE svg PUBLIC "-//W3C//DTD SVG 20010904//EN"
 "http://www.w3.org/TR/2001/REC-SVG-20010904/DTD/svg10.dtd">
<svg version="1.0" xmlns="http://www.w3.org/2000/svg"
 width="65.000000pt" height="67.000000pt" viewBox="0 0 65.000000 67.000000"
 preserveAspectRatio="xMidYMid meet">
<metadata>
Created by potrace 1.16, written by Peter Selinger 2001-2019
</metadata>
<g transform="translate(0.000000,67.000000) scale(0.100000,-0.100000)"
fill="#000000" stroke="none">
<path d="M144 608 l1 -65 -14 -27 -15 -27 -25 -6 -25 -6 -27 11 -28 10 -7 -33
-6 -33 4 -17 3 -18 26 -20 27 -19 36 12 37 12 16 -6 16 -7 -6 -105 -7 -106 94
7 94 7 -8 -40 -7 -40 5 -31 4 -32 21 -14 21 -15 21 0 21 0 23 22 23 21 -6 65
-7 64 93 -3 93 -4 0 85 0 85 -60 -3 -60 -4 -16 19 -16 18 -6 31 -6 31 15 22
15 21 42 -1 42 0 20 -8 20 -9 13 10 12 10 0 57 0 56 -6 38 -7 37 -71 0 -72 0
-20 -14 -19 -15 13 -12 12 -13 0 -13 0 -13 -20 -20 -20 -20 -51 0 -51 0 7 49
7 49 -23 12 -22 12 -82 6 -81 5 0 -65z"/>
</g>
</svg>
