<?xml version="1.0" standalone="no"?>
<!DOCTYPE svg PUBLIC "-//W3C//DTD SVG 20010904//EN"
 "http://www.w3.org/TR/2001/REC-SVG-20010904/DTD/svg10.dtd">
<svg version="1.0" xmlns="http://www.w3.org/2000/svg"
 width="72.000000pt" height="84.000000pt" viewBox="0 0 72.000000 84.000000"
 preserveAspectRatio="xMidYMid meet">
<metadata>
Created by potrace 1.16, written by Peter Selinger 2001-2019
</metadata>
<g transform="translate(0.000000,84.000000) scale(0.100000,-0.100000)"
fill="#000000" stroke="none">
<path d="M398 829 l-15 -9 -13 -29 -12 -30 12 -36 12 -37 -11 -11 -11 -11
-103 -1 -102 0 -5 -75 -5 -75 -9 -13 -8 -14 -49 7 -50 7 -14 -12 -15 -12 0
-42 0 -41 9 -14 9 -14 30 6 30 6 10 -12 10 -12 6 -35 7 -35 20 -67 21 -66 31
9 32 10 47 -7 47 -6 12 -14 11 -14 -11 -31 -10 -30 14 -23 15 -23 26 -11 25
-12 18 0 18 0 26 20 26 21 7 35 7 36 -12 24 -11 25 26 9 26 10 71 -9 72 -8 6
3 6 3 19 58 18 58 0 50 1 50 -56 -3 -56 -3 -37 15 -36 15 0 19 0 20 14 11 13
11 46 -6 45 -6 12 22 12 22 1 72 2 71 -8 13 -8 12 -70 0 -70 0 -20 11 -20 10
6 43 7 44 -11 20 -11 20 -28 10 -29 10 -15 -9z"/>
</g>
</svg>
