<?xml version="1.0" standalone="no"?>
<!DOCTYPE svg PUBLIC "-//W3C//DTD SVG 20010904//EN"
 "http://www.w3.org/TR/2001/REC-SVG-20010904/DTD/svg10.dtd">
<svg version="1.0" xmlns="http://www.w3.org/2000/svg"
 width="74.000000pt" height="86.000000pt" viewBox="0 0 74.000000 86.000000"
 preserveAspectRatio="xMidYMid meet">
<metadata>
Created by potrace 1.16, written by Peter Selinger 2001-2019
</metadata>
<g transform="translate(0.000000,86.000000) scale(0.100000,-0.100000)"
fill="#000000" stroke="none">
<path d="M390 840 l-19 -19 -7 -27 -7 -26 11 -34 10 -34 -11 -7 -12 -7 -100 0
-100 -1 -5 -75 -5 -75 -8 -12 -8 -12 -49 6 -50 6 -15 -13 -15 -12 0 -52 0 -51
8 -12 7 -12 40 -3 39 -3 9 -40 8 -40 21 -68 21 -68 31 8 31 8 43 -2 44 -2 13
-11 14 -11 -11 -30 -11 -31 14 -25 13 -25 28 -14 27 -14 30 0 30 0 28 24 28
24 0 61 0 60 17 5 18 4 71 -9 71 -9 8 5 7 4 19 58 18 58 1 60 0 60 -55 -2 -55
-3 -32 11 -33 10 -6 10 -6 10 11 13 11 13 49 -5 49 -4 12 22 12 22 1 77 2 76
-7 18 -7 17 -71 0 -71 0 -19 10 -19 10 6 34 5 35 -6 26 -7 26 -34 15 -34 14
-11 0 -10 0 -20 -20z"/>
</g>
</svg>
