<?xml version="1.0" standalone="no"?>
<!DOCTYPE svg PUBLIC "-//W3C//DTD SVG 20010904//EN"
 "http://www.w3.org/TR/2001/REC-SVG-20010904/DTD/svg10.dtd">
<svg version="1.0" xmlns="http://www.w3.org/2000/svg"
 width="77.000000pt" height="52.000000pt" viewBox="0 0 77.000000 52.000000"
 preserveAspectRatio="xMidYMid meet">
<metadata>
Created by potrace 1.16, written by Peter Selinger 2001-2019
</metadata>
<g transform="translate(0.000000,52.000000) scale(0.100000,-0.100000)"
fill="#000000" stroke="none">
<path d="M128 428 l-3 -93 -15 2 -15 2 -22 6 -22 7 -26 -26 -26 -26 3 -32 3
-31 26 -20 27 -19 21 11 21 12 15 -15 15 -15 0 -89 0 -89 53 -7 52 -6 40 0 41
0 11 11 11 11 -5 54 -6 54 18 20 18 20 17 0 18 0 11 -14 12 -14 -7 -40 -6 -40
33 -10 34 -10 50 -7 50 -7 33 -14 33 -13 -7 69 -6 69 6 25 6 26 40 -6 40 -6
25 23 25 24 0 37 0 37 -21 12 -22 11 -53 -4 -54 -5 5 21 4 21 6 78 6 77 -8 0
-8 0 -92 -14 -92 -14 -10 -6 -10 -6 6 -33 5 -32 -21 -19 -21 -19 -36 6 -36 6
-20 18 -20 18 7 42 6 42 -20 10 -20 11 -60 0 -60 0 -3 -92z"/>
</g>
</svg>
