<?xml version="1.0" standalone="no"?>
<!DOCTYPE svg PUBLIC "-//W3C//DTD SVG 20010904//EN"
 "http://www.w3.org/TR/2001/REC-SVG-20010904/DTD/svg10.dtd">
<svg version="1.0" xmlns="http://www.w3.org/2000/svg"
 width="79.000000pt" height="54.000000pt" viewBox="0 0 79.000000 54.000000"
 preserveAspectRatio="xMidYMid meet">
<metadata>
Created by potrace 1.16, written by Peter Selinger 2001-2019
</metadata>
<g transform="translate(0.000000,54.000000) scale(0.100000,-0.100000)"
fill="#000000" stroke="none">
<path d="M130 450 l0 -90 -39 6 -40 6 -25 -25 -26 -26 0 -40 0 -40 27 -21 28
-21 24 4 25 5 13 -5 13 -5 0 -93 0 -92 53 -7 52 -6 51 0 52 0 11 14 11 14 -6
53 -6 54 21 19 21 19 14 -12 14 -11 -5 -44 -5 -44 33 -10 34 -10 50 -7 50 -7
34 -14 33 -14 10 0 10 0 -7 75 -7 74 6 18 6 19 40 -4 40 -4 25 23 25 24 0 47
0 47 -19 11 -20 10 -52 0 -52 0 7 95 7 95 -18 0 -18 0 -92 -14 -92 -14 -12 -7
-11 -7 6 -32 6 -33 -19 -18 -20 -17 -28 7 -28 7 -17 15 -18 16 7 40 6 40 -18
14 -19 13 -73 0 -73 0 0 -90z"/>
</g>
</svg>
