<?xml version="1.0" standalone="no"?>
<!DOCTYPE svg PUBLIC "-//W3C//DTD SVG 20010904//EN"
 "http://www.w3.org/TR/2001/REC-SVG-20010904/DTD/svg10.dtd">
<svg version="1.0" xmlns="http://www.w3.org/2000/svg"
 width="53.000000pt" height="52.000000pt" viewBox="0 0 53.000000 52.000000"
 preserveAspectRatio="xMidYMid meet">
<metadata>
Created by potrace 1.16, written by Peter Selinger 2001-2019
</metadata>
<g transform="translate(0.000000,52.000000) scale(0.100000,-0.100000)"
fill="#000000" stroke="none">
<path d="M16 443 l-7 -78 -4 -26 -4 -26 53 5 53 4 22 -11 21 -12 0 -37 0 -37
-25 -24 -25 -23 -40 6 -40 6 -6 -26 -7 -26 7 -61 6 -60 4 -5 4 -4 101 -5 101
-6 -6 44 -6 45 15 37 16 37 19 0 19 0 18 -20 18 -20 -6 -43 -6 -44 11 -11 12
-12 82 0 82 0 15 6 15 6 -13 31 -13 32 -12 60 -12 60 -11 13 -11 14 -29 -6
-30 -6 -13 11 -14 11 0 19 0 18 16 16 17 16 51 -6 52 -7 12 27 12 26 0 84 0
85 -84 0 -84 0 -10 -13 -11 -13 9 -14 10 -15 0 -33 0 -33 -25 -24 -24 -25 -35
0 -35 0 -15 22 -16 22 1 31 0 30 8 20 9 20 -10 13 -10 12 -93 0 -93 0 -6 -77z"/>
</g>
</svg>
