<?xml version="1.0" standalone="no"?>
<!DOCTYPE svg PUBLIC "-//W3C//DTD SVG 20010904//EN"
 "http://www.w3.org/TR/2001/REC-SVG-20010904/DTD/svg10.dtd">
<svg version="1.0" xmlns="http://www.w3.org/2000/svg"
 width="55.000000pt" height="54.000000pt" viewBox="0 0 55.000000 54.000000"
 preserveAspectRatio="xMidYMid meet">
<metadata>
Created by potrace 1.16, written by Peter Selinger 2001-2019
</metadata>
<g transform="translate(0.000000,54.000000) scale(0.100000,-0.100000)"
fill="#000000" stroke="none">
<path d="M15 463 l-6 -78 -5 -38 -6 -37 55 6 54 6 21 -11 22 -12 0 -27 0 -27
-24 -23 -24 -23 -41 7 -40 6 -7 -27 -7 -27 6 -70 6 -70 5 -5 5 -5 112 -6 112
-5 -7 46 -7 45 15 36 15 36 9 0 9 0 17 -19 18 -20 -7 -41 -7 -41 12 -14 12
-15 97 0 96 0 14 9 14 9 -15 39 -16 38 -12 60 -12 60 -11 13 -10 13 -31 -2
-31 -3 -13 8 -12 7 0 9 0 9 15 15 15 15 53 -6 53 -5 12 26 12 27 0 94 0 95
-94 0 -94 0 -12 -15 -13 -16 12 -25 11 -25 0 -20 0 -20 -25 -24 -24 -25 -25 0
-26 0 -17 26 -17 26 12 45 13 45 -12 14 -11 14 -103 0 -103 0 -7 -77z"/>
</g>
</svg>
