<?xml version="1.0" standalone="no"?>
<!DOCTYPE svg PUBLIC "-//W3C//DTD SVG 20010904//EN"
 "http://www.w3.org/TR/2001/REC-SVG-20010904/DTD/svg10.dtd">
<svg version="1.0" xmlns="http://www.w3.org/2000/svg"
 width="68.000000pt" height="65.000000pt" viewBox="0 0 68.000000 65.000000"
 preserveAspectRatio="xMidYMid meet">
<metadata>
Created by potrace 1.16, written by Peter Selinger 2001-2019
</metadata>
<g transform="translate(0.000000,65.000000) scale(0.100000,-0.100000)"
fill="#000000" stroke="none">
<path d="M160 566 l0 -85 -12 -25 -11 -26 -52 6 -51 6 -17 -17 -17 -16 0 -28
0 -29 15 -12 15 -12 29 5 29 6 10 -12 10 -12 12 -60 12 -60 15 -38 15 -37 65
0 64 0 20 -10 19 -11 0 -24 0 -24 -10 -6 -10 -6 0 -20 0 -19 79 0 79 0 16 26
17 25 -3 32 -3 32 88 3 87 3 0 19 0 19 -9 5 -9 6 -17 65 -18 65 -13 11 -14 11
-19 -5 -19 -5 -6 37 -6 37 11 37 10 36 9 6 10 6 34 -12 35 -13 15 13 16 13 0
85 0 85 -17 -5 -18 -6 -80 -24 -80 -23 2 -44 2 -44 -12 -8 -12 -8 -31 0 -30 0
-17 13 -17 12 11 58 12 58 -12 12 -12 12 -104 3 -105 4 0 -86z"/>
</g>
</svg>
