<?xml version="1.0" standalone="no"?>
<!DOCTYPE svg PUBLIC "-//W3C//DTD SVG 20010904//EN"
 "http://www.w3.org/TR/2001/REC-SVG-20010904/DTD/svg10.dtd">
<svg version="1.0" xmlns="http://www.w3.org/2000/svg"
 width="80.000000pt" height="51.000000pt" viewBox="0 0 80.000000 51.000000"
 preserveAspectRatio="xMidYMid meet">
<metadata>
Created by potrace 1.16, written by Peter Selinger 2001-2019
</metadata>
<g transform="translate(0.000000,51.000000) scale(0.100000,-0.100000)"
fill="#000000" stroke="none">
<path d="M150 411 l0 -99 -15 -12 -15 -12 -46 7 -45 6 -15 -12 -14 -11 0 -29
0 -29 19 -19 20 -20 31 12 32 12 13 -18 12 -17 7 -63 7 -62 6 -22 5 -23 87 0
87 0 19 14 18 13 -6 38 -6 39 11 13 10 13 55 0 55 0 -12 -16 -13 -15 16 -17
17 -16 63 -22 62 -21 17 -7 16 -7 -9 42 -10 42 -1 52 -1 51 7 12 7 12 60 -7
59 -6 20 18 20 18 0 18 0 18 -11 25 -12 25 -14 5 -14 6 -19 -10 -19 -10 -15 0
-15 0 -15 16 -16 15 0 75 0 75 -52 -6 -53 -6 -32 -5 -32 -5 -7 -10 -6 -10 12
-14 11 -14 -11 -20 -10 -21 -20 -10 -19 -10 -35 0 -35 0 -12 21 -11 21 11 11
11 11 0 24 0 23 -35 15 -34 14 -71 0 -70 0 0 -99z"/>
</g>
</svg>
