<?xml version="1.0" standalone="no"?>
<!DOCTYPE svg PUBLIC "-//W3C//DTD SVG 20010904//EN"
 "http://www.w3.org/TR/2001/REC-SVG-20010904/DTD/svg10.dtd">
<svg version="1.0" xmlns="http://www.w3.org/2000/svg"
 width="82.000000pt" height="53.000000pt" viewBox="0 0 82.000000 53.000000"
 preserveAspectRatio="xMidYMid meet">
<metadata>
Created by potrace 1.16, written by Peter Selinger 2001-2019
</metadata>
<g transform="translate(0.000000,53.000000) scale(0.100000,-0.100000)"
fill="#000000" stroke="none">
<path d="M150 431 l0 -99 -14 -11 -13 -11 -46 6 -47 7 -15 -13 -15 -12 0 -39
0 -39 20 -20 20 -20 11 0 10 0 21 11 21 12 12 -17 12 -16 7 -63 7 -62 6 -23 5
-22 95 0 94 0 20 11 20 10 -2 43 -3 42 8 12 7 12 35 0 34 0 0 -19 0 -19 16
-13 17 -14 66 -23 66 -23 23 -6 23 -6 -8 39 -8 39 0 65 0 65 63 -3 63 -4 20
18 19 17 0 28 0 28 -12 26 -11 25 -23 6 -22 6 -20 -11 -21 -11 -5 0 -5 0 -15
16 -16 15 0 75 0 75 -77 -7 -78 -7 -24 -9 -23 -8 6 -35 7 -34 -25 -16 -25 -16
-28 3 -28 3 3 53 4 52 -36 15 -35 15 -81 0 -80 0 0 -99z"/>
</g>
</svg>
