<?xml version="1.0" standalone="no"?>
<!DOCTYPE svg PUBLIC "-//W3C//DTD SVG 20010904//EN"
 "http://www.w3.org/TR/2001/REC-SVG-20010904/DTD/svg10.dtd">
<svg version="1.0" xmlns="http://www.w3.org/2000/svg"
 width="84.000000pt" height="83.000000pt" viewBox="0 0 84.000000 83.000000"
 preserveAspectRatio="xMidYMid meet">
<metadata>
Created by potrace 1.16, written by Peter Selinger 2001-2019
</metadata>
<g transform="translate(0.000000,83.000000) scale(0.100000,-0.100000)"
fill="#000000" stroke="none">
<path d="M365 820 l-6 -9 7 -50 7 -51 -27 -10 -27 -10 -81 0 -80 0 2 -77 2
-78 -1 -11 -1 -11 -43 9 -42 10 -28 -11 -27 -11 -10 -25 -10 -26 0 -33 0 -32
13 -19 14 -18 41 7 41 6 9 -37 9 -38 14 -60 14 -60 95 -5 95 -5 11 -7 10 -7
-10 -62 -10 -61 19 -14 19 -14 50 0 51 0 13 9 14 8 -3 44 -4 44 65 17 65 18
36 17 36 17 12 46 12 45 10 37 10 37 28 -5 28 -6 16 17 17 16 0 68 0 67 -13
18 -13 18 -66 -4 -67 -3 6 82 6 81 -39 11 -39 11 -70 12 -70 13 3 34 2 33 -11
14 -11 14 -44 0 -43 0 -6 -10z"/>
</g>
</svg>
