<?xml version="1.0" standalone="no"?>
<!DOCTYPE svg PUBLIC "-//W3C//DTD SVG 20010904//EN"
 "http://www.w3.org/TR/2001/REC-SVG-20010904/DTD/svg10.dtd">
<svg version="1.0" xmlns="http://www.w3.org/2000/svg"
 width="82.000000pt" height="81.000000pt" viewBox="0 0 82.000000 81.000000"
 preserveAspectRatio="xMidYMid meet">
<metadata>
Created by potrace 1.16, written by Peter Selinger 2001-2019
</metadata>
<g transform="translate(0.000000,81.000000) scale(0.100000,-0.100000)"
fill="#000000" stroke="none">
<path d="M364 797 l-5 -14 10 -25 10 -26 -6 -22 -6 -22 -24 -9 -24 -9 -81 0
-81 0 6 -79 5 -78 -8 -12 -7 -13 -42 12 -41 11 -28 -13 -27 -13 -9 -37 -9 -38
11 -25 12 -26 44 6 45 7 9 -38 9 -39 14 -60 14 -60 97 -5 97 -5 11 -11 10 -10
-12 -58 -11 -59 18 -13 19 -14 40 0 41 0 13 9 14 8 -4 44 -3 43 75 22 75 21
25 14 25 15 4 14 4 15 18 64 19 65 10 10 10 10 12 -12 12 -12 7 0 8 0 15 16
16 15 0 58 0 57 -13 19 -14 18 -67 -5 -67 -6 7 83 7 83 -34 10 -34 11 -72 11
-72 12 -11 13 -11 14 11 21 11 21 -12 15 -11 14 -35 0 -34 0 -5 -13z"/>
</g>
</svg>
