<?xml version="1.0" standalone="no"?>
<!DOCTYPE svg PUBLIC "-//W3C//DTD SVG 20010904//EN"
 "http://www.w3.org/TR/2001/REC-SVG-20010904/DTD/svg10.dtd">
<svg version="1.0" xmlns="http://www.w3.org/2000/svg"
 width="73.000000pt" height="67.000000pt" viewBox="0 0 73.000000 67.000000"
 preserveAspectRatio="xMidYMid meet">
<metadata>
Created by potrace 1.16, written by Peter Selinger 2001-2019
</metadata>
<g transform="translate(0.000000,67.000000) scale(0.100000,-0.100000)"
fill="#000000" stroke="none">
<path d="M385 658 l-20 -11 -8 -11 -7 -11 2 -50 3 -50 -70 3 -70 3 -28 5 -27
6 0 -90 0 -90 -17 -21 -18 -20 -43 12 -43 11 -17 -10 -17 -11 -3 -53 -3 -52
18 -20 18 -20 54 4 55 3 7 -25 7 -25 1 -67 1 -68 126 0 126 0 -6 33 -7 32 -1
24 0 23 21 22 21 21 28 -16 27 -15 -3 -20 -3 -19 -6 -27 -5 -26 18 -10 19 -9
96 -5 97 -5 12 71 12 71 -4 40 -3 40 -71 0 -71 0 -17 14 -17 14 3 21 3 21 45
-3 46 -3 22 18 22 18 10 54 10 54 0 43 0 43 -9 5 -9 6 -70 -17 -71 -17 -15 13
-15 12 6 33 5 33 -16 32 -17 32 -25 9 -25 10 -22 0 -22 -1 -20 -11z"/>
</g>
</svg>
