<?xml version="1.0" standalone="no"?>
<!DOCTYPE svg PUBLIC "-//W3C//DTD SVG 20010904//EN"
 "http://www.w3.org/TR/2001/REC-SVG-20010904/DTD/svg10.dtd">
<svg version="1.0" xmlns="http://www.w3.org/2000/svg"
 width="69.000000pt" height="67.000000pt" viewBox="0 0 69.000000 67.000000"
 preserveAspectRatio="xMidYMid meet">
<metadata>
Created by potrace 1.16, written by Peter Selinger 2001-2019
</metadata>
<g transform="translate(0.000000,67.000000) scale(0.100000,-0.100000)"
fill="#000000" stroke="none">
<path d="M229 644 l-23 -25 -1 -47 -1 -47 -40 -3 -40 -3 -56 9 -57 9 -6 -14
-5 -15 0 -71 0 -72 9 -13 8 -13 19 -1 19 -1 27 7 26 8 22 -22 21 -21 -3 -47
-3 -46 -34 -1 -35 0 -26 -75 -27 -75 -7 -16 -7 -16 23 -7 23 -6 71 0 72 0 12
15 13 16 -12 40 -12 41 15 23 15 23 20 7 20 6 21 -11 20 -11 16 -30 16 -31 -7
-48 -7 -48 22 -7 22 -7 57 8 56 8 15 1 15 0 6 9 7 9 -10 29 -10 29 -2 71 -1
72 66 1 65 0 27 18 27 17 0 34 0 34 -15 12 -15 12 -70 -4 -69 -4 -3 86 -3 85
-105 0 -105 0 3 57 3 56 -23 16 -22 16 -6 0 -7 0 -24 -26z"/>
</g>
</svg>
