<?xml version="1.0" standalone="no"?>
<!DOCTYPE svg PUBLIC "-//W3C//DTD SVG 20010904//EN"
 "http://www.w3.org/TR/2001/REC-SVG-20010904/DTD/svg10.dtd">
<svg version="1.0" xmlns="http://www.w3.org/2000/svg"
 width="71.000000pt" height="69.000000pt" viewBox="0 0 71.000000 69.000000"
 preserveAspectRatio="xMidYMid meet">
<metadata>
Created by potrace 1.16, written by Peter Selinger 2001-2019
</metadata>
<g transform="translate(0.000000,69.000000) scale(0.100000,-0.100000)"
fill="#000000" stroke="none">
<path d="M230 665 l-23 -24 -5 -51 -5 -50 -31 0 -31 0 -60 10 -59 10 -8 -13
-8 -12 0 -85 0 -85 8 -11 7 -11 21 -7 21 -7 27 11 26 10 20 -20 20 -20 0 -34
0 -35 -37 -3 -37 -3 -29 -80 -28 -80 -6 -22 -5 -22 33 -6 34 -6 74 3 74 3 11
17 10 17 -11 42 -11 42 24 24 24 24 20 -11 20 -11 15 -28 14 -29 -6 -50 -6
-51 27 -7 28 -7 56 8 57 7 22 -1 21 -1 6 17 7 16 -11 33 -12 34 -1 60 -2 61
66 2 66 3 27 17 26 17 0 43 0 43 -12 12 -12 12 -73 0 -72 0 -3 83 -3 82 -105
0 -105 0 3 56 4 57 -23 16 -23 16 -16 0 -17 0 -23 -25z"/>
</g>
</svg>
