<?xml version="1.0" standalone="no"?>
<!DOCTYPE svg PUBLIC "-//W3C//DTD SVG 20010904//EN"
 "http://www.w3.org/TR/2001/REC-SVG-20010904/DTD/svg10.dtd">
<svg version="1.0" xmlns="http://www.w3.org/2000/svg"
 width="73.000000pt" height="79.000000pt" viewBox="0 0 73.000000 79.000000"
 preserveAspectRatio="xMidYMid meet">
<metadata>
Created by potrace 1.16, written by Peter Selinger 2001-2019
</metadata>
<g transform="translate(0.000000,79.000000) scale(0.100000,-0.100000)"
fill="#000000" stroke="none">
<path d="M209 774 l-13 -16 10 -37 10 -37 -12 -12 -13 -12 -81 0 -80 0 0 -89
0 -90 10 -6 10 -6 41 12 41 13 14 -19 14 -19 0 -46 0 -47 -20 -18 -21 -19 -46
12 -46 13 -11 -11 -11 -11 2 -54 2 -53 11 -41 11 -41 82 0 82 0 14 -9 13 -8
-11 -7 -11 -7 0 -28 0 -28 21 -27 20 -26 64 0 63 0 11 14 12 15 -3 32 -3 33
40 8 40 9 53 11 52 11 0 7 0 7 -10 54 -10 54 5 27 6 27 50 -6 50 -6 25 13 24
13 10 38 11 38 -7 26 -7 26 -26 11 -26 10 -47 -6 -46 -5 -6 15 -6 16 0 78 0
78 -13 11 -14 11 -73 10 -73 10 -13 11 -13 11 5 28 6 28 -20 11 -21 11 -54 0
-55 0 -13 -16z"/>
</g>
</svg>
