<?xml version="1.0" standalone="no"?>
<!DOCTYPE svg PUBLIC "-//W3C//DTD SVG 20010904//EN"
 "http://www.w3.org/TR/2001/REC-SVG-20010904/DTD/svg10.dtd">
<svg version="1.0" xmlns="http://www.w3.org/2000/svg"
 width="71.000000pt" height="77.000000pt" viewBox="0 0 71.000000 77.000000"
 preserveAspectRatio="xMidYMid meet">
<metadata>
Created by potrace 1.16, written by Peter Selinger 2001-2019
</metadata>
<g transform="translate(0.000000,77.000000) scale(0.100000,-0.100000)"
fill="#000000" stroke="none">
<path d="M210 755 l-12 -14 12 -36 12 -35 -16 -15 -15 -15 -81 0 -81 0 3 -82
3 -83 15 3 15 4 34 5 34 6 13 -18 14 -19 0 -56 0 -57 -18 -16 -19 -17 -26 0
-26 0 -26 10 -26 10 -8 -23 -9 -22 9 -53 8 -53 6 -19 6 -20 82 0 82 0 15 -10
15 -9 -12 -21 -13 -20 0 -14 0 -13 21 -27 20 -26 54 0 53 0 12 15 13 16 -11
24 -11 23 12 10 12 10 40 7 40 6 48 12 47 11 -4 15 -5 16 -6 42 -7 43 7 31 7
31 50 -7 50 -7 24 13 24 12 9 35 10 34 -9 23 -9 24 -35 7 -35 6 -31 -10 -30
-11 -10 19 -10 19 0 79 0 80 -13 11 -14 11 -73 10 -73 10 -15 12 -14 12 6 28
5 28 -19 10 -19 10 -44 0 -45 0 -12 -15z"/>
</g>
</svg>
