<?xml version="1.0" standalone="no"?>
<!DOCTYPE svg PUBLIC "-//W3C//DTD SVG 20010904//EN"
 "http://www.w3.org/TR/2001/REC-SVG-20010904/DTD/svg10.dtd">
<svg version="1.0" xmlns="http://www.w3.org/2000/svg"
 width="79.000000pt" height="67.000000pt" viewBox="0 0 79.000000 67.000000"
 preserveAspectRatio="xMidYMid meet">
<metadata>
Created by potrace 1.16, written by Peter Selinger 2001-2019
</metadata>
<g transform="translate(0.000000,67.000000) scale(0.100000,-0.100000)"
fill="#000000" stroke="none">
<path d="M336 649 l-26 -20 0 -18 0 -17 11 -11 12 -12 -6 -15 -6 -16 -96 0
-95 0 1 -84 2 -84 -8 -12 -8 -12 -50 6 -50 7 -8 -13 -9 -13 0 -31 0 -32 15
-12 16 -13 23 11 24 11 15 -17 15 -17 11 -90 12 -90 1 -12 1 -13 68 0 68 0 27
12 26 12 -5 49 -4 48 18 9 18 10 25 0 26 0 16 -25 17 -25 -7 -48 -6 -47 9 -14
9 -14 59 5 58 6 41 12 40 12 17 57 16 56 6 25 6 25 14 19 15 19 27 -12 27 -12
13 17 13 18 0 44 0 43 -10 20 -11 19 -20 -11 -21 -11 -33 6 -33 7 -16 33 -16
34 0 51 0 51 -7 0 -8 0 -49 -15 -49 -15 -42 0 -41 0 -10 10 -10 10 10 49 10
49 -17 26 -17 26 -19 0 -18 0 -27 -21z"/>
</g>
</svg>
