<?xml version="1.0" standalone="no"?>
<!DOCTYPE svg PUBLIC "-//W3C//DTD SVG 20010904//EN"
 "http://www.w3.org/TR/2001/REC-SVG-20010904/DTD/svg10.dtd">
<svg version="1.0" xmlns="http://www.w3.org/2000/svg"
 width="81.000000pt" height="69.000000pt" viewBox="0 0 81.000000 69.000000"
 preserveAspectRatio="xMidYMid meet">
<metadata>
Created by potrace 1.16, written by Peter Selinger 2001-2019
</metadata>
<g transform="translate(0.000000,69.000000) scale(0.100000,-0.100000)"
fill="#000000" stroke="none">
<path d="M336 669 l-26 -20 0 -29 0 -29 10 -6 10 -6 -5 -10 -6 -9 -94 0 -94 0
-3 -92 -3 -93 -54 3 -54 4 -8 -14 -9 -13 0 -41 0 -42 15 -12 15 -12 29 5 29 6
10 -12 10 -12 6 -60 7 -60 6 -42 5 -43 79 0 78 0 26 12 25 11 0 53 0 54 27 6
26 7 20 -24 19 -23 -7 -43 -6 -43 6 -21 7 -22 77 6 76 6 37 12 36 12 5 21 5
21 16 55 15 55 12 21 11 21 30 -11 30 -11 14 19 14 20 0 56 0 56 -14 19 -14
19 -26 -12 -27 -12 -24 6 -24 6 -15 33 -16 33 0 51 0 51 -16 0 -16 0 -54 -16
-54 -15 -32 3 -33 3 3 58 4 58 -16 24 -16 25 -29 0 -28 0 -27 -21z"/>
</g>
</svg>
