<?xml version="1.0" standalone="no"?>
<!DOCTYPE svg PUBLIC "-//W3C//DTD SVG 20010904//EN"
 "http://www.w3.org/TR/2001/REC-SVG-20010904/DTD/svg10.dtd">
<svg version="1.0" xmlns="http://www.w3.org/2000/svg"
 width="73.000000pt" height="85.000000pt" viewBox="0 0 73.000000 85.000000"
 preserveAspectRatio="xMidYMid meet">
<metadata>
Created by potrace 1.16, written by Peter Selinger 2001-2019
</metadata>
<g transform="translate(0.000000,85.000000) scale(0.100000,-0.100000)"
fill="#000000" stroke="none">
<path d="M267 839 l-17 -10 -16 -30 -16 -31 4 -41 3 -42 -71 3 -72 4 -22 -7
-23 -7 6 -79 6 -79 15 -29 15 -29 16 -6 17 -6 39 0 39 0 0 -16 0 -15 -10 -18
-9 -18 -29 -12 -30 -12 -42 11 -42 11 -15 -13 -15 -12 4 -51 4 -51 19 -46 19
-46 71 5 70 5 29 -11 28 -11 -7 -18 -7 -17 -6 -44 -5 -44 18 -14 19 -13 58 0
58 0 21 21 21 21 -4 59 -4 60 20 4 21 5 65 2 65 3 2 79 2 78 5 14 5 13 48 -5
48 -6 20 15 20 15 0 61 0 60 -13 13 -12 12 -35 -13 -35 -12 -20 6 -19 6 -11
37 -10 37 7 54 6 54 -72 -7 -72 -6 -22 5 -23 6 0 54 1 53 -24 26 -24 26 -31 0
-31 -1 -18 -10z"/>
</g>
</svg>
