<?xml version="1.0" standalone="no"?>
<!DOCTYPE svg PUBLIC "-//W3C//DTD SVG 20010904//EN"
 "http://www.w3.org/TR/2001/REC-SVG-20010904/DTD/svg10.dtd">
<svg version="1.0" xmlns="http://www.w3.org/2000/svg"
 width="71.000000pt" height="83.000000pt" viewBox="0 0 71.000000 83.000000"
 preserveAspectRatio="xMidYMid meet">
<metadata>
Created by potrace 1.16, written by Peter Selinger 2001-2019
</metadata>
<g transform="translate(0.000000,83.000000) scale(0.100000,-0.100000)"
fill="#000000" stroke="none">
<path d="M255 806 l-24 -24 -7 -26 -6 -26 10 -29 10 -29 -15 -7 -16 -6 -58 7
-58 6 -27 -6 -27 -7 7 -70 6 -71 15 -28 14 -28 16 -6 17 -6 22 0 22 0 11 11
12 12 7 -27 6 -26 -6 -25 -7 -26 -34 -16 -35 -16 -45 10 -45 10 -11 -13 -12
-14 6 -40 5 -40 18 -43 17 -42 71 3 71 4 29 -11 28 -11 -6 -28 -6 -27 -7 -34
-6 -34 18 -13 19 -14 48 0 48 0 21 21 22 22 -7 58 -6 59 23 5 22 5 65 2 65 3
1 77 1 76 7 17 6 17 48 -7 47 -6 20 15 20 14 0 51 0 50 -10 10 -11 11 -30 -12
-30 -11 -27 7 -26 6 -11 41 -12 42 7 50 7 50 -66 -8 -66 -7 -29 7 -29 6 -6 16
-6 16 11 13 11 14 -7 27 -6 28 -21 23 -21 22 -24 0 -24 0 -24 -24z"/>
</g>
</svg>
