<?xml version="1.0" standalone="no"?>
<!DOCTYPE svg PUBLIC "-//W3C//DTD SVG 20010904//EN"
 "http://www.w3.org/TR/2001/REC-SVG-20010904/DTD/svg10.dtd">
<svg version="1.0" xmlns="http://www.w3.org/2000/svg"
 width="69.000000pt" height="66.000000pt" viewBox="0 0 69.000000 66.000000"
 preserveAspectRatio="xMidYMid meet">
<metadata>
Created by potrace 1.16, written by Peter Selinger 2001-2019
</metadata>
<g transform="translate(0.000000,66.000000) scale(0.100000,-0.100000)"
fill="#000000" stroke="none">
<path d="M224 639 l-19 -21 2 -36 2 -37 3 -20 3 -20 -107 4 -108 3 0 -57 0
-57 16 -34 16 -33 33 -7 33 -6 21 11 20 11 11 -19 10 -20 0 -43 0 -44 -13 -18
-13 -17 -27 12 -27 12 -14 -19 -15 -19 -16 -60 -16 -60 -6 -22 -5 -23 71 0 72
0 36 15 36 15 -7 55 -6 55 27 6 27 7 25 -15 26 -14 -1 -15 -2 -14 -7 -17 -7
-16 20 -11 19 -10 59 -10 59 -10 36 -7 35 -6 -14 75 -15 75 7 27 7 27 27 -8
27 -7 35 1 35 2 25 19 25 18 3 24 3 24 -14 19 -15 20 -38 -1 -39 0 -19 -4 -20
-4 -13 25 -13 25 0 71 0 72 -17 7 -18 7 -80 14 -79 14 -14 14 -14 14 12 23 13
23 -23 18 -22 18 -18 0 -17 0 -19 -21z"/>
</g>
</svg>
