<?xml version="1.0" standalone="no"?>
<!DOCTYPE svg PUBLIC "-//W3C//DTD SVG 20010904//EN"
 "http://www.w3.org/TR/2001/REC-SVG-20010904/DTD/svg10.dtd">
<svg version="1.0" xmlns="http://www.w3.org/2000/svg"
 width="65.000000pt" height="81.000000pt" viewBox="0 0 65.000000 81.000000"
 preserveAspectRatio="xMidYMid meet">
<metadata>
Created by potrace 1.16, written by Peter Selinger 2001-2019
</metadata>
<g transform="translate(0.000000,81.000000) scale(0.100000,-0.100000)"
fill="#000000" stroke="none">
<path d="M219 794 l-13 -15 10 -61 11 -61 -107 7 -107 6 -7 -37 -6 -38 0 -53
0 -53 54 6 55 7 30 -22 31 -21 0 -33 0 -33 -19 -17 -20 -18 -53 4 -52 3 -8
-40 -7 -40 0 -56 -1 -56 60 -6 61 -5 25 -17 26 -17 -7 -49 -7 -50 18 -14 19
-14 46 -1 46 0 18 20 18 19 -7 51 -7 50 13 5 13 5 85 8 85 7 -2 20 -3 20 -9
55 -9 55 9 22 8 23 26 -10 26 -10 28 0 28 0 16 18 17 19 0 54 0 55 -14 19 -13
18 -34 -6 -34 -5 -15 -4 -15 -3 -3 82 -3 82 -18 6 -18 5 -84 15 -83 15 -14 13
-13 14 12 27 13 27 -15 10 -14 9 -26 0 -27 0 -13 -16z"/>
</g>
</svg>
