<?xml version="1.0" standalone="no"?>
<!DOCTYPE svg PUBLIC "-//W3C//DTD SVG 20010904//EN"
 "http://www.w3.org/TR/2001/REC-SVG-20010904/DTD/svg10.dtd">
<svg version="1.0" xmlns="http://www.w3.org/2000/svg"
 width="66.000000pt" height="81.000000pt" viewBox="0 0 66.000000 81.000000"
 preserveAspectRatio="xMidYMid meet">
<metadata>
Created by potrace 1.16, written by Peter Selinger 2001-2019
</metadata>
<g transform="translate(0.000000,81.000000) scale(0.100000,-0.100000)"
fill="#000000" stroke="none">
<path d="M347 800 l-17 -11 10 -19 10 -19 0 -14 0 -14 -25 -27 -24 -26 -81 0
-82 0 7 -93 7 -94 -49 10 -50 10 -17 -6 -16 -6 -10 -27 -10 -26 10 -38 10 -38
15 -6 15 -5 28 5 28 6 12 -27 12 -26 0 -57 0 -58 12 -12 12 -12 87 0 87 0 10
-12 10 -13 -9 -20 -8 -20 0 -30 -1 -31 16 -22 15 -22 35 0 35 0 24 25 25 24 0
33 0 33 -10 15 -9 14 11 13 10 13 83 0 82 0 -15 63 -15 62 -9 39 -9 38 -45 -7
-44 -6 -12 26 -11 25 9 38 9 37 27 13 28 13 41 -11 42 -12 8 13 7 12 -5 76 -6
76 -3 4 -3 4 -33 -16 -33 -15 -37 -7 -36 -7 -21 7 -21 6 6 62 6 62 -20 18 -20
18 -33 5 -34 4 -18 -10z"/>
</g>
</svg>
