<?xml version="1.0" standalone="no"?>
<!DOCTYPE svg PUBLIC "-//W3C//DTD SVG 20010904//EN"
 "http://www.w3.org/TR/2001/REC-SVG-20010904/DTD/svg10.dtd">
<svg version="1.0" xmlns="http://www.w3.org/2000/svg"
 width="68.000000pt" height="79.000000pt" viewBox="0 0 68.000000 79.000000"
 preserveAspectRatio="xMidYMid meet">
<metadata>
Created by potrace 1.16, written by Peter Selinger 2001-2019
</metadata>
<g transform="translate(0.000000,79.000000) scale(0.100000,-0.100000)"
fill="#000000" stroke="none">
<path d="M341 766 l-23 -24 0 -34 1 -33 3 -20 3 -20 -90 0 -90 0 -3 -82 -3
-81 -14 -12 -14 -12 -35 13 -35 13 -15 -13 -15 -13 -7 -33 -6 -33 12 -21 11
-22 25 -9 25 -10 21 11 21 12 14 -19 14 -19 -1 -80 -2 -80 1 -11 1 -11 43 8
42 8 48 1 47 0 0 -55 0 -54 31 -17 31 -16 34 6 33 7 21 27 21 26 -3 41 -3 40
55 0 55 0 31 -7 32 -7 11 42 12 42 -3 50 -3 50 -65 -3 -65 -4 -28 26 -27 25 0
26 0 26 37 15 37 16 25 -5 26 -5 21 -7 21 -7 7 18 7 17 -7 98 -7 97 -78 26
-78 26 -15 0 -15 0 -11 21 -12 21 7 15 6 16 -13 9 -13 8 -36 0 -36 0 -22 -24z"/>
</g>
</svg>
