<?xml version="1.0" standalone="no"?>
<!DOCTYPE svg PUBLIC "-//W3C//DTD SVG 20010904//EN"
 "http://www.w3.org/TR/2001/REC-SVG-20010904/DTD/svg10.dtd">
<svg version="1.0" xmlns="http://www.w3.org/2000/svg"
 width="70.000000pt" height="81.000000pt" viewBox="0 0 70.000000 81.000000"
 preserveAspectRatio="xMidYMid meet">
<metadata>
Created by potrace 1.16, written by Peter Selinger 2001-2019
</metadata>
<g transform="translate(0.000000,81.000000) scale(0.100000,-0.100000)"
fill="#000000" stroke="none">
<path d="M340 785 l-24 -26 0 -55 1 -55 -86 3 -86 3 -3 -80 -3 -79 -11 -13
-10 -13 -18 10 -19 10 -24 0 -25 0 -12 -15 -12 -15 -5 -43 -5 -42 20 -25 20
-25 46 1 46 1 7 -25 6 -24 -6 -67 -6 -67 8 -12 7 -12 54 10 53 10 33 0 34 0 0
-55 0 -54 32 -17 31 -16 41 5 41 6 22 26 23 26 0 46 0 46 53 -6 52 -6 31 -6
31 -7 12 44 12 43 -3 60 -3 60 -66 -3 -65 -3 -27 25 -27 25 0 16 0 16 37 16
38 15 31 -11 30 -11 16 0 16 0 7 18 6 17 -7 107 -6 106 -79 26 -78 26 -15 0
-15 0 -9 16 -9 17 5 19 5 20 -14 9 -14 9 -46 0 -46 0 -23 -25z"/>
</g>
</svg>
