<?xml version="1.0" standalone="no"?>
<!DOCTYPE svg PUBLIC "-//W3C//DTD SVG 20010904//EN"
 "http://www.w3.org/TR/2001/REC-SVG-20010904/DTD/svg10.dtd">
<svg version="1.0" xmlns="http://www.w3.org/2000/svg"
 width="60.000000pt" height="68.000000pt" viewBox="0 0 60.000000 68.000000"
 preserveAspectRatio="xMidYMid meet">
<metadata>
Created by potrace 1.16, written by Peter Selinger 2001-2019
</metadata>
<g transform="translate(0.000000,68.000000) scale(0.100000,-0.100000)"
fill="#000000" stroke="none">
<path d="M214 667 l-5 -14 11 -27 10 -27 0 -13 0 -12 -14 -20 -14 -19 -89 -5
-88 -5 -3 -80 -2 -80 13 -25 12 -25 60 -5 60 -5 3 -25 2 -25 -10 -15 -9 -15
-73 0 -73 0 1 -95 0 -96 7 -17 6 -17 93 0 93 0 25 13 25 12 3 52 3 51 17 4 17
5 13 -4 12 -5 0 -23 0 -23 13 -10 12 -10 65 -16 65 -17 38 -16 37 -16 14 19
14 19 12 55 12 55 -4 45 -3 45 -27 3 -27 3 -20 -11 -21 -10 -32 13 -33 14 -12
14 -12 15 6 22 5 22 45 0 44 0 19 10 19 10 11 38 10 37 0 51 0 52 -27 11 -28
11 -74 10 -73 10 -8 5 -8 5 5 39 5 38 -23 17 -23 16 -49 0 -48 0 -5 -13z"/>
</g>
</svg>
