<?xml version="1.0" standalone="no"?>
<!DOCTYPE svg PUBLIC "-//W3C//DTD SVG 20010904//EN"
 "http://www.w3.org/TR/2001/REC-SVG-20010904/DTD/svg10.dtd">
<svg version="1.0" xmlns="http://www.w3.org/2000/svg"
 width="58.000000pt" height="66.000000pt" viewBox="0 0 58.000000 66.000000"
 preserveAspectRatio="xMidYMid meet">
<metadata>
Created by potrace 1.16, written by Peter Selinger 2001-2019
</metadata>
<g transform="translate(0.000000,66.000000) scale(0.100000,-0.100000)"
fill="#000000" stroke="none">
<path d="M217 654 l-6 -6 10 -25 9 -24 0 -23 0 -22 -14 -20 -14 -19 -89 -5
-88 -5 -3 -70 -2 -70 13 -25 13 -25 54 0 55 0 7 -10 8 -10 0 -32 0 -32 -16
-16 -17 -17 -66 4 -66 3 0 -70 1 -70 5 -30 6 -30 84 -3 84 -2 25 13 25 13 0
49 0 50 25 7 24 7 22 -5 22 -6 -5 -19 -5 -19 11 -14 12 -14 72 -17 72 -18 26
-13 26 -13 11 22 11 22 10 40 11 40 0 43 0 43 -15 5 -15 6 -30 -12 -29 -12
-34 11 -35 12 -17 19 -18 20 9 32 10 33 41 -3 41 -4 21 11 20 11 11 38 10 37
0 41 0 42 -27 11 -28 11 -74 10 -73 10 -10 6 -9 6 6 38 6 38 -23 16 -22 16
-37 0 -36 0 -6 -6z"/>
</g>
</svg>
