<?xml version="1.0" standalone="no"?>
<!DOCTYPE svg PUBLIC "-//W3C//DTD SVG 20010904//EN"
 "http://www.w3.org/TR/2001/REC-SVG-20010904/DTD/svg10.dtd">
<svg version="1.0" xmlns="http://www.w3.org/2000/svg"
 width="78.000000pt" height="70.000000pt" viewBox="0 0 78.000000 70.000000"
 preserveAspectRatio="xMidYMid meet">
<metadata>
Created by potrace 1.16, written by Peter Selinger 2001-2019
</metadata>
<g transform="translate(0.000000,70.000000) scale(0.100000,-0.100000)"
fill="#000000" stroke="none">
<path d="M353 663 l-15 -37 6 -45 6 -44 -105 6 -105 6 0 -77 0 -77 -9 -14 -9
-14 -43 11 -44 12 -17 -21 -18 -21 0 -25 0 -24 11 -21 11 -20 53 7 53 6 8 -13
9 -13 0 -100 0 -100 86 -3 86 -3 13 16 14 16 -13 36 -13 35 13 13 14 14 27 6
26 7 20 -20 21 -21 10 -36 10 -37 -11 -18 -11 -17 6 -17 6 -16 40 0 41 0 64
21 65 22 -10 20 -11 20 -5 79 -6 79 56 -7 57 -7 14 12 14 12 6 33 6 32 -11 32
-11 32 -7 0 -7 0 -11 -11 -12 -12 -24 6 -24 7 -11 25 -12 26 0 67 0 67 -95 -3
-96 -4 -14 12 -14 12 6 44 6 44 -18 20 -18 20 -19 0 -19 0 -16 -37z"/>
</g>
</svg>
