<?xml version="1.0" standalone="no"?>
<!DOCTYPE svg PUBLIC "-//W3C//DTD SVG 20010904//EN"
 "http://www.w3.org/TR/2001/REC-SVG-20010904/DTD/svg10.dtd">
<svg version="1.0" xmlns="http://www.w3.org/2000/svg"
 width="80.000000pt" height="72.000000pt" viewBox="0 0 80.000000 72.000000"
 preserveAspectRatio="xMidYMid meet">
<metadata>
Created by potrace 1.16, written by Peter Selinger 2001-2019
</metadata>
<g transform="translate(0.000000,72.000000) scale(0.100000,-0.100000)"
fill="#000000" stroke="none">
<path d="M354 683 l-16 -37 4 -44 3 -45 -102 7 -103 7 0 -78 0 -78 -8 -12 -8
-12 -43 11 -44 11 -19 -22 -18 -23 0 -37 0 -37 14 -19 13 -18 51 6 51 6 8 -12
7 -12 1 -100 0 -100 94 -3 93 -3 15 13 15 12 -5 30 -4 31 -4 14 -4 14 24 13
25 13 17 -10 18 -9 8 -22 8 -23 0 -55 0 -55 49 -3 50 -3 69 22 69 22 -7 21 -6
21 -9 35 -10 35 0 41 0 41 55 -5 55 -4 14 11 14 12 7 39 7 40 -12 35 -12 35
-17 0 -17 0 -10 -10 -11 -11 -15 6 -15 6 -12 25 -11 25 0 68 0 68 -99 -5 -98
-5 -9 14 -8 13 3 44 3 44 -18 19 -17 19 -29 0 -29 0 -15 -37z"/>
</g>
</svg>
