<?xml version="1.0" standalone="no"?>
<!DOCTYPE svg PUBLIC "-//W3C//DTD SVG 20010904//EN"
 "http://www.w3.org/TR/2001/REC-SVG-20010904/DTD/svg10.dtd">
<svg version="1.0" xmlns="http://www.w3.org/2000/svg"
 width="67.000000pt" height="84.000000pt" viewBox="0 0 67.000000 84.000000"
 preserveAspectRatio="xMidYMid meet">
<metadata>
Created by potrace 1.16, written by Peter Selinger 2001-2019
</metadata>
<g transform="translate(0.000000,84.000000) scale(0.100000,-0.100000)"
fill="#000000" stroke="none">
<path d="M214 815 l-17 -26 7 -56 7 -56 -106 6 -105 7 0 -81 0 -80 11 -21 11
-20 59 6 59 7 11 -28 10 -28 -5 -28 -6 -28 -16 -16 -16 -16 -35 12 -35 13 -14
-13 -13 -14 -10 -89 -11 -90 6 -5 5 -6 67 -1 67 0 20 -11 19 -11 1 -69 0 -68
57 -3 57 -3 16 32 17 31 -4 50 -3 49 24 6 23 6 73 -6 73 -7 10 13 11 12 7 55
7 55 7 19 7 20 39 0 39 1 13 40 14 40 -6 48 -5 47 -7 11 -7 12 -53 -6 -54 -6
-5 22 -5 22 -2 60 -3 60 -105 5 -105 5 3 52 4 51 -21 21 -21 21 -25 0 -25 0
-16 -25z"/>
</g>
</svg>
