<?xml version="1.0" standalone="no"?>
<!DOCTYPE svg PUBLIC "-//W3C//DTD SVG 20010904//EN"
 "http://www.w3.org/TR/2001/REC-SVG-20010904/DTD/svg10.dtd">
<svg version="1.0" xmlns="http://www.w3.org/2000/svg"
 width="63.000000pt" height="65.000000pt" viewBox="0 0 63.000000 65.000000"
 preserveAspectRatio="xMidYMid meet">
<metadata>
Created by potrace 1.16, written by Peter Selinger 2001-2019
</metadata>
<g transform="translate(0.000000,65.000000) scale(0.100000,-0.100000)"
fill="#000000" stroke="none">
<path d="M315 633 l-17 -16 4 -41 4 -41 5 -15 4 -15 -92 3 -93 3 0 -74 0 -74
-21 -18 -20 -19 -32 12 -31 12 -10 -10 -10 -10 0 -48 -1 -49 14 -17 15 -18 34
7 34 6 14 -12 14 -11 0 -95 0 -95 90 4 89 3 13 13 12 12 -11 40 -10 41 18 9
18 10 40 0 40 0 13 -28 13 -27 80 -27 80 -26 7 4 8 5 0 73 0 72 -13 18 -14 19
-21 -12 -21 -11 -25 10 -25 9 -11 22 -12 21 6 33 7 33 15 13 15 13 35 -13 35
-13 14 12 15 12 0 85 0 84 -34 14 -33 14 -67 17 -68 17 -5 15 -6 15 11 17 11
18 -15 6 -16 6 -38 0 -39 0 -16 -17z"/>
</g>
</svg>
