<?xml version="1.0" standalone="no"?>
<!DOCTYPE svg PUBLIC "-//W3C//DTD SVG 20010904//EN"
 "http://www.w3.org/TR/2001/REC-SVG-20010904/DTD/svg10.dtd">
<svg version="1.0" xmlns="http://www.w3.org/2000/svg"
 width="65.000000pt" height="67.000000pt" viewBox="0 0 65.000000 67.000000"
 preserveAspectRatio="xMidYMid meet">
<metadata>
Created by potrace 1.16, written by Peter Selinger 2001-2019
</metadata>
<g transform="translate(0.000000,67.000000) scale(0.100000,-0.100000)"
fill="#000000" stroke="none">
<path d="M315 653 l-17 -17 4 -58 4 -59 -88 7 -88 7 0 -75 0 -75 -18 -16 -18
-17 -32 12 -32 12 -10 -10 -11 -11 -5 -49 -5 -49 13 -25 14 -25 39 0 40 0 13
-8 12 -8 0 -95 0 -94 84 0 85 0 27 10 27 11 -6 48 -6 49 15 6 16 6 28 0 29 0
13 -27 13 -28 84 -28 84 -28 13 5 14 5 0 83 0 83 -10 15 -9 15 -48 0 -47 0
-14 26 -15 25 14 30 15 29 14 -2 15 -2 28 -7 27 -6 15 12 15 12 0 95 0 94 -32
14 -33 13 -65 17 -65 17 -8 8 -9 8 14 21 13 22 -15 9 -15 10 -52 0 -52 0 -16
-17z"/>
</g>
</svg>
