<?xml version="1.0" standalone="no"?>
<!DOCTYPE svg PUBLIC "-//W3C//DTD SVG 20010904//EN"
 "http://www.w3.org/TR/2001/REC-SVG-20010904/DTD/svg10.dtd">
<svg version="1.0" xmlns="http://www.w3.org/2000/svg"
 width="56.000000pt" height="85.000000pt" viewBox="0 0 56.000000 85.000000"
 preserveAspectRatio="xMidYMid meet">
<metadata>
Created by potrace 1.16, written by Peter Selinger 2001-2019
</metadata>
<g transform="translate(0.000000,85.000000) scale(0.100000,-0.100000)"
fill="#000000" stroke="none">
<path d="M236 831 l-18 -19 3 -54 2 -54 -8 -13 -8 -13 -92 7 -93 7 -11 -20
-11 -21 0 -63 0 -63 7 -24 6 -23 68 6 67 7 7 -12 8 -12 0 -38 0 -39 -12 -14
-12 -14 -35 11 -35 11 -15 -16 -16 -16 -13 -73 -14 -74 -7 -24 -7 -24 76 7 76
7 23 -6 24 -6 -4 -57 -4 -57 14 -19 14 -18 45 -5 44 -4 29 24 30 24 0 49 1 49
10 7 10 8 85 0 85 0 0 113 0 112 -9 14 -9 13 -54 -6 -53 -6 -12 25 -11 25 12
26 11 26 51 -7 51 -7 9 13 9 14 0 83 0 83 -32 14 -33 13 -50 7 -50 7 -32 10
-33 10 6 39 7 39 -13 15 -12 15 -28 0 -27 0 -17 -19z"/>
</g>
</svg>
