<?xml version="1.0" standalone="no"?>
<!DOCTYPE svg PUBLIC "-//W3C//DTD SVG 20010904//EN"
 "http://www.w3.org/TR/2001/REC-SVG-20010904/DTD/svg10.dtd">
<svg version="1.0" xmlns="http://www.w3.org/2000/svg"
 width="54.000000pt" height="83.000000pt" viewBox="0 0 54.000000 83.000000"
 preserveAspectRatio="xMidYMid meet">
<metadata>
Created by potrace 1.16, written by Peter Selinger 2001-2019
</metadata>
<g transform="translate(0.000000,83.000000) scale(0.100000,-0.100000)"
fill="#000000" stroke="none">
<path d="M235 810 l-18 -20 6 -54 5 -55 -14 -12 -14 -12 -90 7 -89 7 -10 -20
-11 -20 0 -53 0 -53 7 -24 6 -23 41 5 42 6 15 6 15 5 19 -14 19 -14 0 -51 0
-51 -16 -16 -16 -17 -34 12 -33 12 -17 -22 -18 -21 0 -27 0 -27 -14 -53 -14
-53 69 7 68 7 30 -7 31 -6 -6 -57 -6 -57 14 -18 13 -17 35 -6 35 -5 30 25 30
24 0 49 -1 48 11 7 10 8 85 0 85 0 0 103 0 102 -9 13 -8 13 -53 -6 -53 -7 -11
20 -11 21 0 24 0 25 18 21 17 21 44 -12 43 -11 9 14 9 14 0 73 0 73 -32 14
-33 13 -50 7 -50 7 -34 10 -33 10 6 40 7 40 -12 14 -11 14 -18 0 -17 0 -18
-20z"/>
</g>
</svg>
