<?xml version="1.0" standalone="no"?>
<!DOCTYPE svg PUBLIC "-//W3C//DTD SVG 20010904//EN"
 "http://www.w3.org/TR/2001/REC-SVG-20010904/DTD/svg10.dtd">
<svg version="1.0" xmlns="http://www.w3.org/2000/svg"
 width="73.000000pt" height="67.000000pt" viewBox="0 0 73.000000 67.000000"
 preserveAspectRatio="xMidYMid meet">
<metadata>
Created by potrace 1.16, written by Peter Selinger 2001-2019
</metadata>
<g transform="translate(0.000000,67.000000) scale(0.100000,-0.100000)"
fill="#000000" stroke="none">
<path d="M264 647 l-27 -23 0 -30 0 -29 8 -22 7 -23 -27 -10 -26 -10 -68 6
-68 7 -7 -12 -7 -11 -8 -93 -7 -92 9 -6 9 -6 39 8 40 9 19 -10 20 -11 0 -29 0
-30 -26 -17 -26 -17 -46 13 -46 12 -14 -18 -13 -18 6 -35 6 -35 16 -58 16 -58
96 3 96 3 -1 20 0 20 -8 37 -7 37 21 21 20 20 43 0 43 0 22 -16 23 -16 -7 -55
-7 -55 14 -9 14 -9 88 0 88 0 -4 8 -4 7 8 79 9 79 11 13 11 14 18 -10 19 -10
21 0 21 0 16 15 15 16 5 37 5 37 -11 29 -11 29 -60 -7 -59 -7 -10 20 -11 20 0
70 0 70 -52 15 -53 16 -58 15 -59 16 7 39 7 38 -21 11 -20 11 -15 0 -15 0 -27
-23z"/>
</g>
</svg>
