<?xml version="1.0" standalone="no"?>
<!DOCTYPE svg PUBLIC "-//W3C//DTD SVG 20010904//EN"
 "http://www.w3.org/TR/2001/REC-SVG-20010904/DTD/svg10.dtd">
<svg version="1.0" xmlns="http://www.w3.org/2000/svg"
 width="75.000000pt" height="69.000000pt" viewBox="0 0 75.000000 69.000000"
 preserveAspectRatio="xMidYMid meet">
<metadata>
Created by potrace 1.16, written by Peter Selinger 2001-2019
</metadata>
<g transform="translate(0.000000,69.000000) scale(0.100000,-0.100000)"
fill="#000000" stroke="none">
<path d="M267 670 l-26 -21 -7 -33 -6 -34 11 -20 11 -21 -12 -8 -13 -8 -85 0
-84 0 -7 -35 -7 -35 -5 -77 -5 -77 16 -5 17 -5 36 8 36 8 17 -9 16 -9 0 -19 0
-20 -24 -15 -23 -16 -48 13 -47 13 -15 -20 -15 -20 6 -45 6 -45 16 -57 17 -58
104 0 104 0 5 15 6 14 -10 47 -10 46 19 19 19 19 33 0 33 0 21 -15 22 -15 -6
-56 -6 -56 14 -9 14 -9 98 0 97 0 1 63 1 62 7 30 6 30 47 -3 48 -4 16 17 17
17 4 46 5 47 -11 29 -12 29 -59 -6 -60 -5 -10 18 -10 19 0 70 0 70 -52 15 -53
16 -57 15 -57 15 6 37 6 36 -18 13 -19 14 -27 0 -26 0 -26 -20z"/>
</g>
</svg>
