<?xml version="1.0" standalone="no"?>
<!DOCTYPE svg PUBLIC "-//W3C//DTD SVG 20010904//EN"
 "http://www.w3.org/TR/2001/REC-SVG-20010904/DTD/svg10.dtd">
<svg version="1.0" xmlns="http://www.w3.org/2000/svg"
 width="85.000000pt" height="69.000000pt" viewBox="0 0 85.000000 69.000000"
 preserveAspectRatio="xMidYMid meet">
<metadata>
Created by potrace 1.16, written by Peter Selinger 2001-2019
</metadata>
<g transform="translate(0.000000,69.000000) scale(0.100000,-0.100000)"
fill="#000000" stroke="none">
<path d="M372 674 l-22 -15 0 -30 0 -30 11 -20 10 -20 -12 -15 -11 -14 -104 0
-104 0 0 -94 0 -94 -14 -11 -14 -12 -7 11 -6 10 -27 0 -28 0 -22 -16 -23 -16
3 -40 3 -41 28 -21 29 -21 59 0 59 1 0 -17 0 -17 -21 -67 -21 -68 14 -8 13 -9
83 0 83 0 19 10 18 9 6 25 6 25 -11 28 -10 27 17 13 18 13 17 0 17 0 23 -19
23 -19 1 -53 0 -54 106 -3 107 -3 6 68 7 68 6 32 5 31 32 -5 33 -5 31 16 31
16 7 35 6 35 -16 25 -16 24 -35 7 -36 6 -38 -6 -38 -6 5 94 5 93 -44 11 -44
10 -57 7 -57 7 -16 12 -16 11 12 33 11 33 -17 19 -18 20 -21 0 -22 0 -22 -16z"/>
</g>
</svg>
