<?xml version="1.0" standalone="no"?>
<!DOCTYPE svg PUBLIC "-//W3C//DTD SVG 20010904//EN"
 "http://www.w3.org/TR/2001/REC-SVG-20010904/DTD/svg10.dtd">
<svg version="1.0" xmlns="http://www.w3.org/2000/svg"
 width="53.000000pt" height="67.000000pt" viewBox="0 0 53.000000 67.000000"
 preserveAspectRatio="xMidYMid meet">
<metadata>
Created by potrace 1.16, written by Peter Selinger 2001-2019
</metadata>
<g transform="translate(0.000000,67.000000) scale(0.100000,-0.100000)"
fill="#000000" stroke="none">
<path d="M227 659 l-19 -11 7 -49 7 -50 -12 -14 -12 -15 -90 0 -89 0 -7 -17
-6 -18 -1 -78 0 -78 15 -9 15 -9 57 6 57 6 12 -26 12 -26 -14 -38 -15 -38 -39
0 -39 0 -22 -75 -21 -75 -8 -18 -7 -17 66 -2 66 -2 28 0 27 -1 -3 52 -4 51 11
21 11 20 36 7 36 7 20 -20 20 -21 -11 -20 -11 -21 0 -15 0 -14 33 -10 32 -10
67 -6 68 -7 15 -5 15 -6 0 95 0 95 -14 11 -14 12 -34 -6 -34 -7 -15 18 -14 17
1 49 0 48 10 10 10 10 31 -12 32 -12 20 19 21 18 0 69 0 68 -7 0 -8 0 -49 -15
-49 -15 -44 0 -44 0 -6 16 -6 15 13 24 13 24 -17 46 -18 45 -18 10 -19 10 -13
0 -13 -1 -18 -10z"/>
</g>
</svg>
