<?xml version="1.0" standalone="no"?>
<!DOCTYPE svg PUBLIC "-//W3C//DTD SVG 20010904//EN"
 "http://www.w3.org/TR/2001/REC-SVG-20010904/DTD/svg10.dtd">
<svg version="1.0" xmlns="http://www.w3.org/2000/svg"
 width="69.000000pt" height="70.000000pt" viewBox="0 0 69.000000 70.000000"
 preserveAspectRatio="xMidYMid meet">
<metadata>
Created by potrace 1.16, written by Peter Selinger 2001-2019
</metadata>
<g transform="translate(0.000000,70.000000) scale(0.100000,-0.100000)"
fill="#000000" stroke="none">
<path d="M357 689 l-19 -11 4 -61 3 -62 -96 -3 -95 -3 4 -89 4 -90 -61 6 -61
7 -20 -18 -20 -18 0 -46 0 -47 16 -23 17 -23 44 5 44 5 9 -22 8 -21 9 -70 8
-70 30 -6 30 -7 75 -1 75 -1 13 9 14 8 -12 39 -12 39 4 30 3 30 35 3 35 3 20
-15 20 -14 -3 -39 -3 -38 -2 -35 -2 -35 50 -3 50 -3 58 12 57 12 0 18 0 18 -9
5 -9 6 -17 67 -17 68 -11 28 -10 28 -45 -3 -44 -3 -9 22 -8 22 18 22 18 22 47
-12 47 -11 18 9 18 10 7 32 6 32 0 74 0 75 -27 -5 -28 -5 -56 -13 -56 -12 -17
6 -17 7 7 65 7 65 -18 20 -18 20 -46 0 -46 -1 -18 -10z"/>
</g>
</svg>
