<?xml version="1.0" standalone="no"?>
<!DOCTYPE svg PUBLIC "-//W3C//DTD SVG 20010904//EN"
 "http://www.w3.org/TR/2001/REC-SVG-20010904/DTD/svg10.dtd">
<svg version="1.0" xmlns="http://www.w3.org/2000/svg"
 width="67.000000pt" height="68.000000pt" viewBox="0 0 67.000000 68.000000"
 preserveAspectRatio="xMidYMid meet">
<metadata>
Created by potrace 1.16, written by Peter Selinger 2001-2019
</metadata>
<g transform="translate(0.000000,68.000000) scale(0.100000,-0.100000)"
fill="#000000" stroke="none">
<path d="M357 669 l-19 -11 4 -61 3 -62 -95 -5 -95 -5 0 -90 0 -90 -13 3 -14
3 -44 6 -44 6 -20 -18 -20 -18 0 -36 0 -37 16 -23 16 -23 44 7 44 6 9 -23 10
-23 6 -67 7 -68 9 -6 10 -6 73 -5 74 -6 25 7 26 6 -10 29 -10 29 3 43 3 44 45
3 45 3 20 -15 20 -14 -2 -49 -3 -48 -2 -25 -3 -25 40 -3 40 -4 58 13 57 12 0
8 0 8 -9 5 -9 6 -17 67 -17 68 -10 28 -10 27 -15 0 -14 0 -18 -10 -18 -9 -16
12 -16 12 -6 26 -6 25 19 24 20 24 51 -10 52 -11 16 12 17 12 4 92 4 91 -8 0
-9 0 -49 -15 -49 -15 -37 0 -38 0 -11 13 -11 14 10 34 10 34 0 26 0 26 -18 16
-19 17 -34 0 -34 -1 -18 -10z"/>
</g>
</svg>
