<?xml version="1.0" standalone="no"?>
<!DOCTYPE svg PUBLIC "-//W3C//DTD SVG 20010904//EN"
 "http://www.w3.org/TR/2001/REC-SVG-20010904/DTD/svg10.dtd">
<svg version="1.0" xmlns="http://www.w3.org/2000/svg"
 width="79.000000pt" height="70.000000pt" viewBox="0 0 79.000000 70.000000"
 preserveAspectRatio="xMidYMid meet">
<metadata>
Created by potrace 1.16, written by Peter Selinger 2001-2019
</metadata>
<g transform="translate(0.000000,70.000000) scale(0.100000,-0.100000)"
fill="#000000" stroke="none">
<path d="M465 647 l7 -54 -32 -31 -32 -32 -16 0 -17 0 -13 9 -13 8 6 26 7 26
-6 19 -6 19 -26 11 -25 12 -84 0 -85 0 0 -89 0 -90 -16 -16 -17 -16 -14 5 -15
6 -22 6 -22 5 -13 -15 -12 -14 3 -54 3 -53 27 -3 27 -3 26 -87 27 -87 3 -11 3
-11 74 5 73 4 38 -15 37 -16 0 -11 0 -10 -12 -19 -12 -20 12 -25 12 -26 50 0
51 0 26 26 25 25 -5 29 -6 29 27 5 27 5 66 6 66 6 6 82 6 82 6 15 5 15 38 -3
38 -4 12 27 12 26 0 42 0 42 -6 22 -6 23 -46 -3 -46 -2 -13 25 -13 25 0 56 0
57 -49 21 -50 21 -51 0 -51 0 6 -53z"/>
</g>
</svg>
