<?xml version="1.0" standalone="no"?>
<!DOCTYPE svg PUBLIC "-//W3C//DTD SVG 20010904//EN"
 "http://www.w3.org/TR/2001/REC-SVG-20010904/DTD/svg10.dtd">
<svg version="1.0" xmlns="http://www.w3.org/2000/svg"
 width="77.000000pt" height="68.000000pt" viewBox="0 0 77.000000 68.000000"
 preserveAspectRatio="xMidYMid meet">
<metadata>
Created by potrace 1.16, written by Peter Selinger 2001-2019
</metadata>
<g transform="translate(0.000000,68.000000) scale(0.100000,-0.100000)"
fill="#000000" stroke="none">
<path d="M467 627 l5 -53 -32 -32 -32 -32 -27 0 -27 0 -18 13 -19 14 12 22 12
22 -6 18 -5 18 -26 11 -25 12 -74 0 -75 0 0 -89 0 -90 -16 -15 -15 -16 -14 0
-14 0 -25 9 -24 10 -12 -14 -11 -14 3 -43 3 -43 27 -3 27 -3 26 -87 27 -87 2
-9 2 -9 76 2 76 2 36 -15 36 -15 0 -23 0 -24 -11 -11 -11 -11 11 -21 12 -21
35 0 35 0 19 10 20 10 10 21 11 20 -11 14 -12 14 6 10 6 9 28 6 27 5 66 6 66
6 6 82 6 82 6 17 7 18 37 -6 38 -6 13 31 13 31 -6 46 -5 45 -4 5 -5 5 -24 -9
-24 -9 -23 8 -22 8 -10 26 -10 26 0 53 0 54 -49 21 -50 21 -40 0 -40 0 6 -53z"/>
</g>
</svg>
