<?xml version="1.0" standalone="no"?>
<!DOCTYPE svg PUBLIC "-//W3C//DTD SVG 20010904//EN"
 "http://www.w3.org/TR/2001/REC-SVG-20010904/DTD/svg10.dtd">
<svg version="1.0" xmlns="http://www.w3.org/2000/svg"
 width="81.000000pt" height="59.000000pt" viewBox="0 0 81.000000 59.000000"
 preserveAspectRatio="xMidYMid meet">
<metadata>
Created by potrace 1.16, written by Peter Selinger 2001-2019
</metadata>
<g transform="translate(0.000000,59.000000) scale(0.100000,-0.100000)"
fill="#000000" stroke="none">
<path d="M456 581 l-6 -9 11 -56 12 -55 -13 -31 -13 -31 -19 -10 -19 -10 -20
6 -20 7 -14 21 -14 22 11 48 10 49 -12 11 -11 12 -89 -2 -89 -1 -10 -7 -11 -6
0 -73 0 -73 -49 5 -48 4 -22 -11 -21 -12 0 -58 0 -58 19 -18 20 -17 45 4 46 3
6 -34 7 -33 -6 -69 -6 -68 32 -6 32 -6 85 3 85 3 -3 56 -3 56 15 13 16 12 15
-6 15 -5 11 -28 10 -27 -11 -27 -12 -28 7 -20 6 -21 64 0 64 0 51 11 50 11 0
19 0 20 -16 30 -15 31 -2 41 -2 42 57 -3 56 -4 30 16 30 15 6 16 6 17 0 31 0
32 -10 15 -9 14 -24 -13 -25 -13 -21 7 -21 6 -16 32 -17 31 -2 75 -2 75 -49
17 -49 17 -52 1 -52 1 -5 -9z"/>
</g>
</svg>
