<?xml version="1.0" standalone="no"?>
<!DOCTYPE svg PUBLIC "-//W3C//DTD SVG 20010904//EN"
 "http://www.w3.org/TR/2001/REC-SVG-20010904/DTD/svg10.dtd">
<svg version="1.0" xmlns="http://www.w3.org/2000/svg"
 width="57.000000pt" height="68.000000pt" viewBox="0 0 57.000000 68.000000"
 preserveAspectRatio="xMidYMid meet">
<metadata>
Created by potrace 1.16, written by Peter Selinger 2001-2019
</metadata>
<g transform="translate(0.000000,68.000000) scale(0.100000,-0.100000)"
fill="#000000" stroke="none">
<path d="M335 671 l-5 -10 6 -38 6 -38 -22 -28 -21 -27 -23 0 -22 0 -22 16
-23 16 6 42 7 43 -24 6 -23 7 -78 -7 -79 -6 4 -93 3 -93 17 -18 18 -17 34 12
34 12 25 -9 25 -10 7 -22 8 -23 -29 -24 -28 -24 -63 6 -62 7 -7 -27 -7 -27 11
-75 12 -74 6 -9 5 -9 79 0 78 0 16 -6 15 -6 -6 -43 -5 -43 25 -17 25 -16 48 3
48 3 6 25 6 25 74 25 75 25 21 12 21 12 2 43 3 43 2 55 1 55 -50 1 -50 1 -11
1 -12 2 -12 29 -12 30 7 31 7 31 38 -6 39 -7 15 24 16 24 6 60 6 59 -10 26
-10 26 -58 11 -57 12 -38 0 -38 0 -6 -9z"/>
</g>
</svg>
