<?xml version="1.0" standalone="no"?>
<!DOCTYPE svg PUBLIC "-//W3C//DTD SVG 20010904//EN"
 "http://www.w3.org/TR/2001/REC-SVG-20010904/DTD/svg10.dtd">
<svg version="1.0" xmlns="http://www.w3.org/2000/svg"
 width="51.000000pt" height="53.000000pt" viewBox="0 0 51.000000 53.000000"
 preserveAspectRatio="xMidYMid meet">
<metadata>
Created by potrace 1.16, written by Peter Selinger 2001-2019
</metadata>
<g transform="translate(0.000000,53.000000) scale(0.100000,-0.100000)"
fill="#000000" stroke="none">
<path d="M329 520 l-24 -6 3 -20 4 -19 -1 -33 -1 -33 -15 -28 -14 -29 -17 -6
-17 -6 -24 15 -24 16 2 72 2 72 -39 3 -39 4 -63 -7 -62 -7 1 -51 0 -52 12 -35
12 -35 60 0 60 0 3 -47 3 -47 -11 -22 -12 -21 -39 5 -39 5 -9 -16 -9 -17 -7
-65 -8 -65 -3 -24 -2 -23 74 4 74 3 16 17 16 16 -13 37 -14 37 28 24 28 24 24
0 24 0 28 -24 27 -24 -13 -16 -14 -17 17 -17 17 -17 80 -16 80 -15 4 5 3 6
-13 73 -12 73 -11 11 -10 10 -21 -11 -21 -11 -19 12 -20 12 -5 21 -6 20 0 45
1 45 13 18 14 19 21 -11 20 -11 31 0 30 0 10 26 10 25 0 59 0 59 -42 5 -43 5
-36 3 -35 4 -25 -6z"/>
</g>
</svg>
