<?xml version="1.0" standalone="no"?>
<!DOCTYPE svg PUBLIC "-//W3C//DTD SVG 20010904//EN"
 "http://www.w3.org/TR/2001/REC-SVG-20010904/DTD/svg10.dtd">
<svg version="1.0" xmlns="http://www.w3.org/2000/svg"
 width="68.000000pt" height="53.000000pt" viewBox="0 0 68.000000 53.000000"
 preserveAspectRatio="xMidYMid meet">
<metadata>
Created by potrace 1.16, written by Peter Selinger 2001-2019
</metadata>
<g transform="translate(0.000000,53.000000) scale(0.100000,-0.100000)"
fill="#000000" stroke="none">
<path d="M343 523 l-13 -9 10 -35 10 -34 -6 -27 -6 -28 -21 -15 -21 -15 -41 0
-41 0 -19 14 -20 14 12 44 12 43 -16 18 -16 17 -84 0 -83 0 0 -54 0 -55 10
-26 10 -26 22 -8 23 -8 24 9 24 9 5 -5 4 -5 5 -45 6 -46 -13 -31 -13 -31 -38
6 -37 6 -7 -18 -6 -17 -6 -82 -6 -83 106 0 106 0 5 9 5 8 -11 31 -12 31 10 28
9 28 27 3 26 3 22 -23 21 -23 -7 -39 -6 -38 13 -9 14 -9 87 0 87 0 -2 98 -2
97 60 -3 60 -4 28 22 27 21 0 29 0 28 -27 18 -28 18 -62 1 -63 0 1 30 0 30 7
66 8 67 -21 0 -20 -1 -60 7 -60 7 -12 -8z"/>
</g>
</svg>
