<?xml version="1.0" standalone="no"?>
<!DOCTYPE svg PUBLIC "-//W3C//DTD SVG 20010904//EN"
 "http://www.w3.org/TR/2001/REC-SVG-20010904/DTD/svg10.dtd">
<svg version="1.0" xmlns="http://www.w3.org/2000/svg"
 width="71.000000pt" height="57.000000pt" viewBox="0 0 71.000000 57.000000"
 preserveAspectRatio="xMidYMid meet">
<metadata>
Created by potrace 1.16, written by Peter Selinger 2001-2019
</metadata>
<g transform="translate(0.000000,57.000000) scale(0.100000,-0.100000)"
fill="#000000" stroke="none">
<path d="M203 563 l-33 -4 0 -72 0 -72 -9 -14 -10 -15 -73 0 -73 -1 -3 -66 -3
-65 22 -28 22 -28 43 4 43 3 11 -48 10 -48 0 -14 0 -14 12 -26 11 -25 119 0
119 0 5 15 6 15 -9 39 -10 38 9 17 9 16 18 0 19 0 13 -17 14 -16 0 -66 0 -66
60 1 60 1 51 8 51 7 -5 107 -4 106 -14 14 -13 15 -25 -13 -25 -14 -33 20 -33
19 -3 23 -4 22 13 16 13 15 62 -6 62 -6 5 19 5 20 -5 85 -6 86 -12 0 -11 0
-45 -14 -44 -15 -58 -16 -58 -16 1 -27 2 -27 -1 -12 -1 -13 -35 0 -34 0 -11
20 -11 20 7 60 7 60 -79 -2 -79 -1 -32 -4z"/>
</g>
</svg>
