<?xml version="1.0" standalone="no"?>
<!DOCTYPE svg PUBLIC "-//W3C//DTD SVG 20010904//EN"
 "http://www.w3.org/TR/2001/REC-SVG-20010904/DTD/svg10.dtd">
<svg version="1.0" xmlns="http://www.w3.org/2000/svg"
 width="69.000000pt" height="67.000000pt" viewBox="0 0 69.000000 67.000000"
 preserveAspectRatio="xMidYMid meet">
<metadata>
Created by potrace 1.16, written by Peter Selinger 2001-2019
</metadata>
<g transform="translate(0.000000,67.000000) scale(0.100000,-0.100000)"
fill="#000000" stroke="none">
<path d="M335 660 l-7 -11 7 -40 7 -40 -19 -14 -18 -14 -79 -1 -79 0 6 -47 5
-48 -8 -43 -7 -43 -8 -7 -7 -7 -61 0 -62 0 -3 -48 -3 -49 12 -15 13 -15 55 4
55 3 9 -35 9 -35 -5 -71 -5 -72 106 -4 107 -4 12 12 12 12 -9 53 -8 54 14 22
14 23 18 0 18 0 22 -15 22 -16 -6 -43 -6 -43 10 -7 10 -6 88 -15 87 -16 9 13
8 13 -4 20 -5 20 -17 60 -16 60 -16 18 -15 17 -34 -6 -33 -6 -9 23 -9 24 10
18 9 17 25 16 25 17 23 -13 23 -12 19 4 18 3 13 25 13 25 0 70 0 70 -9 13 -8
14 -80 -12 -81 -12 -21 11 -21 12 10 19 10 19 0 29 0 29 -18 16 -19 17 -56 0
-56 0 -6 -10z"/>
</g>
</svg>
