<?xml version="1.0" standalone="no"?>
<!DOCTYPE svg PUBLIC "-//W3C//DTD SVG 20010904//EN"
 "http://www.w3.org/TR/2001/REC-SVG-20010904/DTD/svg10.dtd">
<svg version="1.0" xmlns="http://www.w3.org/2000/svg"
 width="67.000000pt" height="65.000000pt" viewBox="0 0 67.000000 65.000000"
 preserveAspectRatio="xMidYMid meet">
<metadata>
Created by potrace 1.16, written by Peter Selinger 2001-2019
</metadata>
<g transform="translate(0.000000,65.000000) scale(0.100000,-0.100000)"
fill="#000000" stroke="none">
<path d="M337 644 l-6 -7 6 -44 6 -44 -19 -14 -19 -14 -79 -1 -78 0 6 -42 6
-43 -9 -49 -9 -49 -13 -8 -14 -9 -55 2 -55 3 -3 -38 -3 -38 12 -15 12 -15 55
3 55 3 10 -35 9 -35 -4 -72 -3 -72 95 -3 95 -3 11 9 10 10 -8 54 -9 54 16 24
15 24 28 0 28 0 23 -16 23 -16 -7 -43 -6 -43 10 -6 10 -6 78 -14 78 -13 7 11
8 11 -7 15 -6 15 -14 55 -15 55 -15 17 -15 17 -26 -10 -25 -10 -13 13 -13 13
-6 27 -7 27 30 31 30 30 21 0 21 0 20 -12 20 -13 17 18 18 17 3 73 3 72 -8 12
-8 12 -78 -11 -77 -11 -26 12 -26 12 7 22 7 22 5 23 5 23 -17 19 -18 20 -47 0
-47 0 -6 -6z"/>
</g>
</svg>
