<?xml version="1.0" standalone="no"?>
<!DOCTYPE svg PUBLIC "-//W3C//DTD SVG 20010904//EN"
 "http://www.w3.org/TR/2001/REC-SVG-20010904/DTD/svg10.dtd">
<svg version="1.0" xmlns="http://www.w3.org/2000/svg"
 width="69.000000pt" height="58.000000pt" viewBox="0 0 69.000000 58.000000"
 preserveAspectRatio="xMidYMid meet">
<metadata>
Created by potrace 1.16, written by Peter Selinger 2001-2019
</metadata>
<g transform="translate(0.000000,58.000000) scale(0.100000,-0.100000)"
fill="#000000" stroke="none">
<path d="M478 573 l-1 -8 -1 -70 -1 -71 -18 -27 -17 -27 -29 0 -28 0 -19 21
-19 21 1 65 1 66 -75 -7 -75 -6 -21 0 -22 0 1 -57 0 -58 -8 -38 -8 -37 -25
-16 -24 -16 -30 12 -30 12 -15 -12 -15 -12 0 -38 0 -37 19 -18 20 -17 68 3 68
4 -1 -45 -1 -45 -8 -59 -8 -59 79 5 79 5 23 14 23 14 -3 60 -3 60 38 3 39 3
22 -14 22 -15 -4 -34 -4 -34 14 -11 13 -11 81 -16 81 -16 6 0 7 0 -1 28 0 27
-22 85 -22 85 -35 5 -35 5 -3 23 -4 23 12 14 12 14 43 -6 43 -5 16 30 16 31 0
73 0 73 -8 11 -7 12 -69 21 -68 21 -29 0 -29 0 -2 -7z"/>
</g>
</svg>
