<?xml version="1.0" standalone="no"?>
<!DOCTYPE svg PUBLIC "-//W3C//DTD SVG 20010904//EN"
 "http://www.w3.org/TR/2001/REC-SVG-20010904/DTD/svg10.dtd">
<svg version="1.0" xmlns="http://www.w3.org/2000/svg"
 width="67.000000pt" height="56.000000pt" viewBox="0 0 67.000000 56.000000"
 preserveAspectRatio="xMidYMid meet">
<metadata>
Created by potrace 1.16, written by Peter Selinger 2001-2019
</metadata>
<g transform="translate(0.000000,56.000000) scale(0.100000,-0.100000)"
fill="#000000" stroke="none">
<path d="M478 554 l-6 -5 5 -57 5 -57 -15 -38 -16 -37 -26 -10 -27 -10 -26 12
-26 13 -14 25 -13 25 4 54 4 54 -60 -7 -60 -6 -26 0 -26 0 -2 -73 -1 -72 -11
-28 -11 -27 -26 -12 -25 -12 -29 11 -28 11 -11 -11 -11 -11 0 -26 0 -27 19
-17 19 -17 69 3 68 3 0 -55 -1 -55 -8 -49 -9 -49 69 5 69 5 23 14 23 14 -3 60
-3 60 48 3 49 3 24 -16 25 -16 -6 -33 -7 -32 14 -11 13 -11 75 -15 75 -15 4 4
4 4 -24 98 -24 97 -33 0 -32 0 -8 25 -9 25 7 20 8 21 15 13 16 12 20 -10 20
-11 15 0 15 0 16 30 15 29 0 63 0 63 -8 11 -7 12 -69 21 -68 21 -17 0 -18 0
-5 -6z"/>
</g>
</svg>
