<?xml version="1.0" standalone="no"?>
<!DOCTYPE svg PUBLIC "-//W3C//DTD SVG 20010904//EN"
 "http://www.w3.org/TR/2001/REC-SVG-20010904/DTD/svg10.dtd">
<svg version="1.0" xmlns="http://www.w3.org/2000/svg"
 width="66.000000pt" height="55.000000pt" viewBox="0 0 66.000000 55.000000"
 preserveAspectRatio="xMidYMid meet">
<metadata>
Created by potrace 1.16, written by Peter Selinger 2001-2019
</metadata>
<g transform="translate(0.000000,55.000000) scale(0.100000,-0.100000)"
fill="#000000" stroke="none">
<path d="M307 544 l-5 -6 5 -54 6 -55 -13 -24 -13 -25 -37 0 -37 0 -18 21 -19
20 12 31 12 31 -12 14 -11 14 -86 -3 -86 -3 -3 -252 -2 -253 106 0 106 0 -7
17 -6 18 -6 46 -5 47 21 21 21 21 18 0 19 0 15 -17 15 -18 6 -17 6 -17 -9 -6
-10 -6 0 -18 0 -18 23 -11 22 -11 85 -11 84 -12 7 -4 7 -4 5 33 6 32 7 60 6
60 9 15 8 15 48 0 48 0 3 47 3 47 -21 11 -21 11 -56 -7 -55 -7 3 97 4 97 -64
19 -63 20 -37 0 -38 0 -6 -6z"/>
</g>
</svg>
