<?xml version="1.0" standalone="no"?>
<!DOCTYPE svg PUBLIC "-//W3C//DTD SVG 20010904//EN"
 "http://www.w3.org/TR/2001/REC-SVG-20010904/DTD/svg10.dtd">
<svg version="1.0" xmlns="http://www.w3.org/2000/svg"
 width="58.000000pt" height="57.000000pt" viewBox="0 0 58.000000 57.000000"
 preserveAspectRatio="xMidYMid meet">
<metadata>
Created by potrace 1.16, written by Peter Selinger 2001-2019
</metadata>
<g transform="translate(0.000000,57.000000) scale(0.100000,-0.100000)"
fill="#000000" stroke="none">
<path d="M365 560 l-6 -10 6 -57 7 -58 -22 -27 -21 -28 -39 0 -38 0 -12 15
-12 15 11 46 12 46 -12 14 -11 14 -89 0 -88 0 -7 -11 -6 -11 0 -88 0 -88 12
-22 12 -22 36 7 37 7 20 1 20 2 3 -23 3 -22 -47 -22 -48 -21 -18 12 -18 11
-19 0 -19 0 -6 -16 -6 -16 0 -47 0 -47 17 -50 16 -49 11 -7 11 -8 90 0 90 0
13 8 13 9 -13 47 -12 47 10 17 11 17 54 0 54 0 -3 -25 -3 -25 13 -17 13 -16
65 -17 65 -17 23 -5 22 -5 0 20 0 21 -26 80 -26 80 -26 3 -27 3 0 40 0 40 46
-3 46 -3 17 16 16 16 0 99 0 99 -66 21 -66 20 -38 0 -39 0 -6 -10z"/>
</g>
</svg>
