<?xml version="1.0" standalone="no"?>
<!DOCTYPE svg PUBLIC "-//W3C//DTD SVG 20010904//EN"
 "http://www.w3.org/TR/2001/REC-SVG-20010904/DTD/svg10.dtd">
<svg version="1.0" xmlns="http://www.w3.org/2000/svg"
 width="86.000000pt" height="81.000000pt" viewBox="0 0 86.000000 81.000000"
 preserveAspectRatio="xMidYMid meet">
<metadata>
Created by potrace 1.16, written by Peter Selinger 2001-2019
</metadata>
<g transform="translate(0.000000,81.000000) scale(0.100000,-0.100000)"
fill="#000000" stroke="none">
<path d="M380 795 l-13 -15 6 -45 6 -44 -12 -8 -12 -8 -90 -5 -90 -5 -3 -90
-3 -90 -57 3 -57 4 -28 -22 -27 -21 0 -33 0 -33 19 -22 20 -23 33 4 33 3 25
-98 25 -98 96 3 97 3 4 -54 5 -54 28 -25 29 -24 44 5 44 5 10 13 9 14 -4 33
-3 32 35 9 36 9 40 7 40 6 16 5 17 5 27 87 27 87 8 20 7 20 38 0 39 0 8 33 9
32 -9 33 -9 32 -29 -2 -29 -2 -31 5 -31 4 -11 26 -12 25 0 64 0 65 -69 0 -70
0 -25 10 -25 9 6 48 5 49 -26 12 -27 12 -38 0 -39 0 -12 -15z"/>
</g>
</svg>
