<?xml version="1.0" standalone="no"?>
<!DOCTYPE svg PUBLIC "-//W3C//DTD SVG 20010904//EN"
 "http://www.w3.org/TR/2001/REC-SVG-20010904/DTD/svg10.dtd">
<svg version="1.0" xmlns="http://www.w3.org/2000/svg"
 width="51.000000pt" height="67.000000pt" viewBox="0 0 51.000000 67.000000"
 preserveAspectRatio="xMidYMid meet">
<metadata>
Created by potrace 1.16, written by Peter Selinger 2001-2019
</metadata>
<g transform="translate(0.000000,67.000000) scale(0.100000,-0.100000)"
fill="#000000" stroke="none">
<path d="M6 654 l-6 -16 0 -80 0 -80 54 6 55 7 21 -11 21 -11 -3 -47 -3 -47
-48 0 -48 0 -8 -15 -9 -15 -6 -60 -7 -60 -5 -28 -6 -27 87 0 86 0 -7 -22 -6
-21 -1 -50 -1 -49 19 -14 19 -14 45 0 46 0 21 18 21 17 7 19 6 19 -11 13 -11
14 11 14 12 14 47 6 47 7 33 11 33 10 -6 17 -7 16 -4 15 -3 15 -11 57 -11 57
-43 -5 -43 -6 -22 28 -22 28 3 55 3 56 73 0 73 0 9 15 10 15 0 71 0 71 -80
-13 -80 -13 -10 -6 -9 -6 5 -28 6 -29 -20 -11 -21 -11 -40 0 -40 0 -11 19 -10
19 6 30 6 30 -20 11 -21 11 -79 0 -80 0 -6 -16z"/>
</g>
</svg>
