<?xml version="1.0" standalone="no"?>
<!DOCTYPE svg PUBLIC "-//W3C//DTD SVG 20010904//EN"
 "http://www.w3.org/TR/2001/REC-SVG-20010904/DTD/svg10.dtd">
<svg version="1.0" xmlns="http://www.w3.org/2000/svg"
 width="53.000000pt" height="69.000000pt" viewBox="0 0 53.000000 69.000000"
 preserveAspectRatio="xMidYMid meet">
<metadata>
Created by potrace 1.16, written by Peter Selinger 2001-2019
</metadata>
<g transform="translate(0.000000,69.000000) scale(0.100000,-0.100000)"
fill="#000000" stroke="none">
<path d="M6 674 l-6 -16 0 -90 0 -91 59 6 58 6 17 -12 18 -13 -4 -34 -3 -35
-47 3 -47 3 -9 -18 -9 -18 -7 -55 -6 -55 -6 -42 -6 -43 80 0 80 0 -1 -71 -2
-71 19 -14 20 -14 55 0 56 0 24 19 25 19 1 43 1 44 45 7 44 8 38 11 37 10 0
11 0 12 -10 30 -10 31 -11 58 -11 59 -43 -6 -43 -7 -21 27 -22 28 3 45 3 46
73 0 72 0 10 15 10 15 0 83 0 84 -27 -6 -28 -6 -63 -9 -62 -10 -11 -7 -11 -6
6 -29 5 -29 -19 -10 -19 -10 -30 0 -30 0 -7 12 -8 12 3 37 2 38 -20 10 -20 11
-89 0 -90 0 -6 -16z"/>
</g>
</svg>
