<?xml version="1.0" standalone="no"?>
<!DOCTYPE svg PUBLIC "-//W3C//DTD SVG 20010904//EN"
 "http://www.w3.org/TR/2001/REC-SVG-20010904/DTD/svg10.dtd">
<svg version="1.0" xmlns="http://www.w3.org/2000/svg"
 width="68.000000pt" height="53.000000pt" viewBox="0 0 68.000000 53.000000"
 preserveAspectRatio="xMidYMid meet">
<metadata>
Created by potrace 1.16, written by Peter Selinger 2001-2019
</metadata>
<g transform="translate(0.000000,53.000000) scale(0.100000,-0.100000)"
fill="#000000" stroke="none">
<path d="M10 503 l0 -28 -7 -68 -6 -68 68 7 68 7 14 -18 13 -19 0 -42 0 -42
-6 -16 -6 -16 -34 6 -33 6 -10 -23 -9 -24 -21 -68 -21 -67 0 -16 0 -15 103 3
102 3 -2 35 -3 35 0 19 -1 20 24 24 25 24 28 -14 29 -14 -4 -15 -4 -14 -4 -26
-5 -25 14 -12 14 -11 88 -11 88 -11 6 6 6 6 -13 47 -14 47 -4 27 -5 28 6 26 7
27 12 -12 11 -11 30 0 31 0 42 20 42 19 6 24 7 25 -12 21 -11 21 -29 0 -29 0
-25 -10 -26 -9 -10 19 -10 19 0 90 0 91 -76 0 -75 0 -20 -11 -21 -11 7 -37 6
-38 -17 -17 -17 -18 -24 -9 -25 -9 -26 13 -27 13 4 15 4 14 4 22 5 22 -25 25
-26 26 -86 0 -85 0 0 -27z"/>
</g>
</svg>
