<?xml version="1.0" standalone="no"?>
<!DOCTYPE svg PUBLIC "-//W3C//DTD SVG 20010904//EN"
 "http://www.w3.org/TR/2001/REC-SVG-20010904/DTD/svg10.dtd">
<svg version="1.0" xmlns="http://www.w3.org/2000/svg"
 width="68.000000pt" height="53.000000pt" viewBox="0 0 68.000000 53.000000"
 preserveAspectRatio="xMidYMid meet">
<metadata>
Created by potrace 1.16, written by Peter Selinger 2001-2019
</metadata>
<g transform="translate(0.000000,53.000000) scale(0.100000,-0.100000)"
fill="#000000" stroke="none">
<path d="M2 454 l3 -76 25 -20 24 -19 40 3 41 3 3 -63 3 -64 -11 -13 -12 -14
-24 11 -25 12 -13 -15 -14 -14 -16 -70 -15 -70 -7 -23 -7 -23 104 3 104 3 -1
25 -2 25 -6 20 -7 20 21 23 21 22 29 0 29 0 10 -19 10 -18 -12 -32 -12 -32 11
-17 11 -17 94 -3 94 -3 21 5 21 6 16 57 16 58 11 43 11 43 34 -7 33 -6 11 20
11 21 0 35 0 36 -20 20 -20 20 -61 0 -61 0 7 91 7 91 -88 -7 -89 -7 -17 -10
-18 -9 0 -17 0 -18 10 -10 10 -10 -13 -19 -14 -18 -44 -1 -44 -1 3 24 4 23 -6
23 -6 23 -34 16 -34 16 -77 0 -77 0 4 -76z"/>
</g>
</svg>
