<?xml version="1.0" standalone="no"?>
<!DOCTYPE svg PUBLIC "-//W3C//DTD SVG 20010904//EN"
 "http://www.w3.org/TR/2001/REC-SVG-20010904/DTD/svg10.dtd">
<svg version="1.0" xmlns="http://www.w3.org/2000/svg"
 width="51.000000pt" height="65.000000pt" viewBox="0 0 51.000000 65.000000"
 preserveAspectRatio="xMidYMid meet">
<metadata>
Created by potrace 1.16, written by Peter Selinger 2001-2019
</metadata>
<g transform="translate(0.000000,65.000000) scale(0.100000,-0.100000)"
fill="#000000" stroke="none">
<path d="M6 598 l-6 -53 0 -41 0 -40 59 4 59 4 21 -21 21 -21 0 -28 0 -28 -13
-18 -14 -19 -22 13 -23 12 -9 -9 -10 -10 -24 -92 -25 -92 0 -5 0 -4 68 0 67 0
12 -8 11 -7 -11 -48 -11 -48 16 -15 15 -15 59 -1 60 -1 21 7 21 7 6 16 6 16
-12 14 -12 15 18 14 19 13 46 7 46 7 21 8 21 7 -13 54 -12 53 -6 35 -6 35 -9
13 -8 14 -21 -13 -21 -13 -20 18 -21 19 -5 31 -6 31 10 27 10 27 26 7 26 7 26
-12 25 -12 14 12 14 11 0 83 0 82 -57 -5 -58 -4 -30 -7 -30 -8 3 -44 3 -45
-18 -16 -18 -15 -25 -5 -25 -6 -25 7 -25 7 0 59 0 59 -25 13 -25 13 -71 0 -71
0 -7 -52z"/>
</g>
</svg>
