<?xml version="1.0" standalone="no"?>
<!DOCTYPE svg PUBLIC "-//W3C//DTD SVG 20010904//EN"
 "http://www.w3.org/TR/2001/REC-SVG-20010904/DTD/svg10.dtd">
<svg version="1.0" xmlns="http://www.w3.org/2000/svg"
 width="68.000000pt" height="57.000000pt" viewBox="0 0 68.000000 57.000000"
 preserveAspectRatio="xMidYMid meet">
<metadata>
Created by potrace 1.16, written by Peter Selinger 2001-2019
</metadata>
<g transform="translate(0.000000,57.000000) scale(0.100000,-0.100000)"
fill="#000000" stroke="none">
<path d="M48 563 l-38 -4 0 -98 0 -97 13 -18 13 -18 40 12 39 12 28 -11 27
-11 0 -34 0 -35 -22 -21 -22 -21 -57 7 -57 6 -7 -31 -7 -32 7 -58 7 -57 8 -14
8 -13 77 6 77 6 20 17 19 18 -2 48 -3 48 11 11 10 10 33 -3 33 -3 20 -26 19
-27 -13 -50 -12 -51 12 -15 13 -16 29 0 29 0 70 12 70 12 0 21 0 21 -11 11
-10 10 -2 64 -2 64 43 -3 42 -2 30 15 29 15 11 19 10 20 0 48 0 48 -9 14 -9
14 -31 -13 -31 -12 -23 6 -24 6 -11 25 -12 26 0 54 0 55 -19 0 -19 0 -78 -16
-79 -16 -14 -14 -15 -13 13 -27 12 -27 -17 -18 -17 -19 -29 0 -28 0 -20 20
-21 21 -10 26 -10 27 12 27 11 28 -7 10 -6 11 -52 -2 -52 -1 -37 -4z"/>
</g>
</svg>
