<?xml version="1.0" standalone="no"?>
<!DOCTYPE svg PUBLIC "-//W3C//DTD SVG 20010904//EN"
 "http://www.w3.org/TR/2001/REC-SVG-20010904/DTD/svg10.dtd">
<svg version="1.0" xmlns="http://www.w3.org/2000/svg"
 width="66.000000pt" height="55.000000pt" viewBox="0 0 66.000000 55.000000"
 preserveAspectRatio="xMidYMid meet">
<metadata>
Created by potrace 1.16, written by Peter Selinger 2001-2019
</metadata>
<g transform="translate(0.000000,55.000000) scale(0.100000,-0.100000)"
fill="#000000" stroke="none">
<path d="M48 543 l-38 -4 0 -85 0 -85 10 -19 10 -19 30 11 31 10 35 -6 35 -7
9 -24 9 -23 -10 -34 -9 -35 -24 -12 -24 -13 -50 7 -50 7 -7 -31 -7 -31 7 -43
6 -42 6 -19 5 -19 70 6 70 6 20 18 20 18 -5 47 -6 46 14 12 14 12 37 1 37 1
23 -28 24 -27 0 -23 0 -23 -11 -32 -12 -33 17 -16 16 -16 67 13 68 13 18 1 17
1 0 11 0 11 -10 10 -11 11 -6 70 -6 71 22 11 21 12 21 -11 21 -12 29 13 30 12
14 21 15 20 0 41 0 40 -8 12 -8 12 -14 -9 -15 -10 -30 0 -30 0 -11 8 -11 7
-12 22 -11 22 0 55 0 56 -9 0 -9 0 -78 -16 -79 -16 -11 -9 -12 -10 11 -29 11
-29 -19 -20 -18 -21 -39 0 -39 0 -24 26 -25 26 -6 33 -6 33 11 20 10 19 -6 7
-6 6 -41 -2 -41 -1 -37 -4z"/>
</g>
</svg>
