<?xml version="1.0" standalone="no"?>
<!DOCTYPE svg PUBLIC "-//W3C//DTD SVG 20010904//EN"
 "http://www.w3.org/TR/2001/REC-SVG-20010904/DTD/svg10.dtd">
<svg version="1.0" xmlns="http://www.w3.org/2000/svg"
 width="51.000000pt" height="65.000000pt" viewBox="0 0 51.000000 65.000000"
 preserveAspectRatio="xMidYMid meet">
<metadata>
Created by potrace 1.16, written by Peter Selinger 2001-2019
</metadata>
<g transform="translate(0.000000,65.000000) scale(0.100000,-0.100000)"
fill="#000000" stroke="none">
<path d="M58 643 l-48 -4 0 -27 0 -27 -6 -65 -6 -65 63 0 64 -1 28 -18 27 -18
0 -28 0 -29 -27 -21 -28 -22 -60 4 -60 3 -3 -30 -4 -30 7 -62 7 -63 57 0 58 0
33 -11 32 -12 -6 -40 -7 -40 17 -18 17 -19 38 0 39 0 16 25 16 24 -7 39 -6 39
32 7 32 6 68 0 69 0 -1 63 -1 62 -7 25 -7 25 -53 -3 -53 -4 -19 18 -19 17 0
42 0 43 15 12 15 13 47 -13 46 -13 19 22 18 23 0 85 0 86 -37 -7 -38 -6 -51 0
-50 0 -17 -12 -17 -13 12 -31 12 -32 -17 -26 -17 -26 -35 0 -34 0 -11 21 -12
21 4 59 3 59 -50 -2 -50 -2 -47 -3z"/>
</g>
</svg>
