<?xml version="1.0" standalone="no"?>
<!DOCTYPE svg PUBLIC "-//W3C//DTD SVG 20010904//EN"
 "http://www.w3.org/TR/2001/REC-SVG-20010904/DTD/svg10.dtd">
<svg version="1.0" xmlns="http://www.w3.org/2000/svg"
 width="84.000000pt" height="68.000000pt" viewBox="0 0 84.000000 68.000000"
 preserveAspectRatio="xMidYMid meet">
<metadata>
Created by potrace 1.16, written by Peter Selinger 2001-2019
</metadata>
<g transform="translate(0.000000,68.000000) scale(0.100000,-0.100000)"
fill="#000000" stroke="none">
<path d="M203 673 l-53 -4 0 -83 0 -84 -14 -11 -14 -12 -25 12 -26 12 -26 -7
-26 -7 -10 -27 -10 -27 6 -31 5 -31 21 -19 20 -18 19 12 20 12 4 0 5 0 10 -37
11 -38 10 -57 11 -58 69 0 69 0 26 -12 25 -11 0 -16 0 -16 -11 -38 -10 -38 11
-14 12 -14 35 -7 35 -7 23 11 24 11 12 41 13 42 -11 41 -11 41 4 8 5 8 43 0
42 0 53 -16 53 -16 9 9 8 8 -10 46 -10 47 3 48 3 49 65 -3 65 -4 26 24 26 24
-5 32 -4 31 -20 17 -19 18 -37 -2 -37 -2 -20 -3 -20 -2 -3 81 -3 81 -71 6 -70
6 -30 -6 -29 -6 6 -47 7 -48 -23 -16 -23 -16 -31 0 -31 0 -19 14 -18 13 7 57
6 56 -47 -2 -48 -2 -52 -3z"/>
</g>
</svg>
