<?xml version="1.0" standalone="no"?>
<!DOCTYPE svg PUBLIC "-//W3C//DTD SVG 20010904//EN"
 "http://www.w3.org/TR/2001/REC-SVG-20010904/DTD/svg10.dtd">
<svg version="1.0" xmlns="http://www.w3.org/2000/svg"
 width="84.000000pt" height="64.000000pt" viewBox="0 0 84.000000 64.000000"
 preserveAspectRatio="xMidYMid meet">
<metadata>
Created by potrace 1.16, written by Peter Selinger 2001-2019
</metadata>
<g transform="translate(0.000000,64.000000) scale(0.100000,-0.100000)"
fill="#000000" stroke="none">
<path d="M235 633 l-60 -4 0 -84 0 -84 -18 -18 -17 -18 -20 13 -20 12 -21 0
-21 0 -30 -30 -30 -31 7 -27 6 -27 13 -13 13 -13 25 10 26 10 15 -17 15 -17
17 -60 17 -60 0 -21 0 -21 92 -5 92 -5 23 -12 23 -13 -7 -49 -7 -49 51 0 51 0
20 20 20 20 0 13 0 13 -12 13 -13 12 20 15 20 15 78 -3 77 -3 3 9 3 9 -18 51
-17 51 -1 30 0 30 8 13 8 12 32 -11 33 -11 35 6 35 7 20 20 19 19 0 50 0 50
-23 11 -23 11 -52 -10 -51 -9 -6 5 -5 5 0 79 0 80 -12 -6 -13 -5 -70 -22 -70
-22 -8 -7 -8 -7 13 -28 12 -27 -19 -14 -19 -14 -36 0 -36 0 -18 13 -17 13 -6
40 -5 41 11 21 11 21 -8 5 -9 5 -39 4 -39 4 -60 -4z"/>
</g>
</svg>
