<?xml version="1.0" standalone="no"?>
<!DOCTYPE svg PUBLIC "-//W3C//DTD SVG 20010904//EN"
 "http://www.w3.org/TR/2001/REC-SVG-20010904/DTD/svg10.dtd">
<svg version="1.0" xmlns="http://www.w3.org/2000/svg"
 width="86.000000pt" height="66.000000pt" viewBox="0 0 86.000000 66.000000"
 preserveAspectRatio="xMidYMid meet">
<metadata>
Created by potrace 1.16, written by Peter Selinger 2001-2019
</metadata>
<g transform="translate(0.000000,66.000000) scale(0.100000,-0.100000)"
fill="#000000" stroke="none">
<path d="M235 653 l-61 -4 1 -83 0 -83 -14 -17 -14 -17 -11 11 -10 10 -34 0
-34 0 -30 -30 -30 -31 5 -35 6 -36 12 -15 13 -15 31 6 32 6 11 -12 10 -13 16
-63 16 -64 0 -17 0 -18 93 -5 93 -5 21 -12 22 -11 -6 -50 -6 -50 62 0 61 0 21
21 21 21 -5 34 -6 34 25 6 26 7 63 -5 64 -6 5 15 6 14 -21 61 -20 61 3 21 3
21 47 -3 48 -4 35 12 35 12 10 18 10 19 0 55 0 55 -21 12 -21 11 -59 -7 -59
-7 0 81 0 81 -12 -1 -13 0 -85 -29 -85 -28 1 -23 1 -24 4 -14 4 -15 -27 -10
-28 -10 -27 10 -26 9 -10 29 -10 29 13 35 12 34 -9 9 -10 10 -49 3 -49 3 -60
-4z"/>
</g>
</svg>
