<?xml version="1.0" standalone="no"?>
<!DOCTYPE svg PUBLIC "-//W3C//DTD SVG 20010904//EN"
 "http://www.w3.org/TR/2001/REC-SVG-20010904/DTD/svg10.dtd">
<svg version="1.0" xmlns="http://www.w3.org/2000/svg"
 width="86.000000pt" height="81.000000pt" viewBox="0 0 86.000000 81.000000"
 preserveAspectRatio="xMidYMid meet">
<metadata>
Created by potrace 1.16, written by Peter Selinger 2001-2019
</metadata>
<g transform="translate(0.000000,81.000000) scale(0.100000,-0.100000)"
fill="#000000" stroke="none">
<path d="M365 800 l-6 -10 13 -41 12 -42 -23 -18 -23 -19 -84 0 -84 0 0 -72 0
-73 -9 -14 -10 -15 -26 12 -26 12 -25 0 -25 0 -24 -26 -25 -27 0 -48 0 -48 23
-21 22 -22 43 5 42 5 5 -22 5 -21 11 -65 11 -65 11 -7 12 -8 57 0 57 0 28 -11
28 -10 7 -12 7 -12 -6 -52 -6 -53 65 0 65 0 28 26 28 25 -6 54 -5 53 12 5 13
5 76 -11 76 -11 5 5 4 4 -7 70 -7 69 4 23 4 23 50 0 49 0 24 26 25 27 0 28 0
29 -20 20 -20 20 -21 0 -20 0 -21 -11 -20 -11 -11 11 -12 12 -5 87 -5 87 -90
0 -90 0 3 45 2 45 -7 11 -8 10 -25 17 -24 17 -48 0 -47 0 -6 -10z"/>
</g>
</svg>
