<?xml version="1.0" standalone="no"?>
<!DOCTYPE svg PUBLIC "-//W3C//DTD SVG 20010904//EN"
 "http://www.w3.org/TR/2001/REC-SVG-20010904/DTD/svg10.dtd">
<svg version="1.0" xmlns="http://www.w3.org/2000/svg"
 width="84.000000pt" height="79.000000pt" viewBox="0 0 84.000000 79.000000"
 preserveAspectRatio="xMidYMid meet">
<metadata>
Created by potrace 1.16, written by Peter Selinger 2001-2019
</metadata>
<g transform="translate(0.000000,79.000000) scale(0.100000,-0.100000)"
fill="#000000" stroke="none">
<path d="M367 784 l-6 -6 10 -25 9 -24 0 -24 0 -24 -22 -15 -22 -16 -83 0 -83
0 0 -72 0 -73 -9 -14 -9 -14 -26 7 -26 6 -24 6 -25 6 -25 -27 -26 -28 0 -38 0
-38 22 -21 22 -20 19 0 18 0 20 10 19 11 9 -23 10 -23 11 -70 11 -70 12 -7 12
-8 56 0 56 0 31 -11 31 -11 6 -19 6 -19 -7 -45 -6 -45 54 0 55 0 28 26 27 25
-7 54 -6 53 20 7 20 6 58 -10 57 -11 16 0 16 0 -7 69 -8 70 8 28 8 28 46 -3
46 -4 26 28 25 27 0 14 0 14 -10 18 -9 19 -17 6 -17 6 -33 -12 -34 -12 -12 12
-13 13 -5 87 -5 87 -90 0 -90 0 2 35 3 35 -5 20 -4 20 -30 18 -29 17 -34 0
-35 0 -6 -6z"/>
</g>
</svg>
