<?xml version="1.0" standalone="no"?>
<!DOCTYPE svg PUBLIC "-//W3C//DTD SVG 20010904//EN"
 "http://www.w3.org/TR/2001/REC-SVG-20010904/DTD/svg10.dtd">
<svg version="1.0" xmlns="http://www.w3.org/2000/svg"
 width="79.000000pt" height="67.000000pt" viewBox="0 0 79.000000 67.000000"
 preserveAspectRatio="xMidYMid meet">
<metadata>
Created by potrace 1.16, written by Peter Selinger 2001-2019
</metadata>
<g transform="translate(0.000000,67.000000) scale(0.100000,-0.100000)"
fill="#000000" stroke="none">
<path d="M323 646 l-28 -24 14 -37 13 -37 -16 -17 -17 -16 -82 0 -82 0 3 -65
3 -65 -14 -25 -13 -25 -46 3 -45 3 -7 -23 -6 -23 0 -28 0 -28 15 -29 15 -29
22 -3 23 -4 29 9 28 10 10 -14 9 -14 -7 -50 -6 -50 -2 -25 -1 -24 45 -8 45 -9
49 7 50 6 12 12 12 13 -11 48 -11 48 23 18 23 19 17 0 17 0 22 -16 22 -15 -6
-48 -6 -48 14 -6 15 -5 69 -7 69 -8 23 -8 22 -9 0 8 0 7 19 93 19 94 10 10 10
10 20 -13 20 -13 17 18 18 17 -1 46 -1 46 -11 11 -11 11 -47 0 -47 0 -13 40
-14 40 6 46 5 46 -52 11 -52 12 -42 6 -42 6 -17 19 -17 19 14 16 13 16 -27 24
-28 24 -24 0 -24 0 -28 -24z"/>
</g>
</svg>
