<?xml version="1.0" standalone="no"?>
<!DOCTYPE svg PUBLIC "-//W3C//DTD SVG 20010904//EN"
 "http://www.w3.org/TR/2001/REC-SVG-20010904/DTD/svg10.dtd">
<svg version="1.0" xmlns="http://www.w3.org/2000/svg"
 width="81.000000pt" height="69.000000pt" viewBox="0 0 81.000000 69.000000"
 preserveAspectRatio="xMidYMid meet">
<metadata>
Created by potrace 1.16, written by Peter Selinger 2001-2019
</metadata>
<g transform="translate(0.000000,69.000000) scale(0.100000,-0.100000)"
fill="#000000" stroke="none">
<path d="M325 669 l-27 -22 4 -31 5 -31 4 -14 4 -14 -25 -14 -25 -14 -72 5
-72 4 5 -66 5 -67 -13 -25 -13 -24 -46 3 -46 2 -7 -23 -6 -23 0 -38 0 -38 15
-28 14 -28 31 -6 30 -7 24 10 24 9 7 -17 6 -17 -12 -63 -13 -62 12 -12 13 -13
93 0 93 0 18 18 17 18 -11 44 -11 44 0 5 0 6 25 16 25 16 24 -15 23 -16 -5
-49 -4 -50 18 -5 19 -6 60 -6 60 -7 33 -10 33 -10 4 4 3 3 16 80 16 80 5 22 5
22 30 -5 29 -6 18 17 17 18 -1 54 -1 54 -13 15 -13 15 -45 -3 -46 -3 -12 35
-13 35 6 51 5 51 -53 11 -53 11 -40 7 -40 7 -12 9 -12 10 5 27 6 28 -27 22
-28 21 -32 0 -32 0 -28 -21z"/>
</g>
</svg>
