<?xml version="1.0" standalone="no"?>
<!DOCTYPE svg PUBLIC "-//W3C//DTD SVG 20010904//EN"
 "http://www.w3.org/TR/2001/REC-SVG-20010904/DTD/svg10.dtd">
<svg version="1.0" xmlns="http://www.w3.org/2000/svg"
 width="82.000000pt" height="79.000000pt" viewBox="0 0 82.000000 79.000000"
 preserveAspectRatio="xMidYMid meet">
<metadata>
Created by potrace 1.16, written by Peter Selinger 2001-2019
</metadata>
<g transform="translate(0.000000,79.000000) scale(0.100000,-0.100000)"
fill="#000000" stroke="none">
<path d="M361 766 l-24 -25 1 -28 1 -28 3 -25 3 -25 -103 0 -102 0 0 -76 0
-77 -13 -11 -14 -11 -30 12 -30 11 -16 -6 -16 -6 -11 -41 -11 -41 7 -45 7 -46
22 6 23 6 10 -13 10 -12 17 -60 17 -59 13 -19 13 -19 93 -2 92 -1 10 -17 11
-17 -13 -24 -13 -25 6 -11 7 -10 41 -12 41 -11 23 10 22 11 -1 18 -2 18 60 19
60 18 41 15 42 15 6 30 6 31 0 46 0 46 7 23 6 24 44 -7 44 -6 25 16 24 15 0
40 0 40 -25 16 -24 16 -58 -4 -58 -3 4 96 3 97 -53 6 -54 7 -42 6 -42 5 -12
14 -11 14 12 31 13 30 -14 14 -14 15 -30 6 -30 6 -24 -26z"/>
</g>
</svg>
