<?xml version="1.0" standalone="no"?>
<!DOCTYPE svg PUBLIC "-//W3C//DTD SVG 20010904//EN"
 "http://www.w3.org/TR/2001/REC-SVG-20010904/DTD/svg10.dtd">
<svg version="1.0" xmlns="http://www.w3.org/2000/svg"
 width="84.000000pt" height="81.000000pt" viewBox="0 0 84.000000 81.000000"
 preserveAspectRatio="xMidYMid meet">
<metadata>
Created by potrace 1.16, written by Peter Selinger 2001-2019
</metadata>
<g transform="translate(0.000000,81.000000) scale(0.100000,-0.100000)"
fill="#000000" stroke="none">
<path d="M360 786 l-24 -27 0 -37 0 -37 4 -15 5 -15 -102 1 -102 0 -3 -80 -3
-81 -55 0 -55 0 -14 -43 -13 -43 7 -54 6 -54 32 -3 31 -3 19 -65 19 -65 14
-20 14 -20 88 3 88 4 14 -17 13 -16 -11 -11 -12 -12 0 -23 0 -22 19 -10 18
-10 40 -7 40 -6 22 11 21 12 0 19 0 19 58 17 57 16 41 15 42 15 6 30 6 31 0
46 0 46 6 22 6 22 44 -6 43 -6 26 17 25 16 0 50 0 49 -22 15 -22 16 -61 0 -61
0 4 95 4 95 -9 0 -9 0 -84 11 -84 10 -13 11 -13 10 10 18 10 19 0 19 0 20 -15
12 -14 12 -38 5 -38 5 -25 -26z"/>
</g>
</svg>
