<?xml version="1.0" standalone="no"?>
<!DOCTYPE svg PUBLIC "-//W3C//DTD SVG 20010904//EN"
 "http://www.w3.org/TR/2001/REC-SVG-20010904/DTD/svg10.dtd">
<svg version="1.0" xmlns="http://www.w3.org/2000/svg"
 width="79.000000pt" height="68.000000pt" viewBox="0 0 79.000000 68.000000"
 preserveAspectRatio="xMidYMid meet">
<metadata>
Created by potrace 1.16, written by Peter Selinger 2001-2019
</metadata>
<g transform="translate(0.000000,68.000000) scale(0.100000,-0.100000)"
fill="#000000" stroke="none">
<path d="M329 664 l-13 -15 12 -33 12 -33 -5 -14 -5 -14 -22 -14 -22 -13 -83
-6 -83 -5 0 -74 0 -74 -16 -30 -15 -30 -42 3 -42 3 -3 -48 -3 -49 16 -25 16
-24 52 3 52 3 -3 -88 -3 -87 85 0 85 0 16 16 17 17 -4 46 -3 46 30 3 30 3 20
-15 20 -14 0 -49 0 -48 104 -3 104 -3 -7 33 -6 33 -15 54 -14 53 9 19 10 18
26 -9 25 -10 30 0 30 0 28 15 29 14 6 16 6 17 0 18 0 19 -27 21 -28 22 -52 -4
-53 -3 3 105 2 105 -70 18 -70 19 -24 9 -23 10 6 25 7 26 -17 19 -17 19 -42 0
-43 0 -13 -16z"/>
</g>
</svg>
