<?xml version="1.0" standalone="no"?>
<!DOCTYPE svg PUBLIC "-//W3C//DTD SVG 20010904//EN"
 "http://www.w3.org/TR/2001/REC-SVG-20010904/DTD/svg10.dtd">
<svg version="1.0" xmlns="http://www.w3.org/2000/svg"
 width="53.000000pt" height="66.000000pt" viewBox="0 0 53.000000 66.000000"
 preserveAspectRatio="xMidYMid meet">
<metadata>
Created by potrace 1.16, written by Peter Selinger 2001-2019
</metadata>
<g transform="translate(0.000000,66.000000) scale(0.100000,-0.100000)"
fill="#000000" stroke="none">
<path d="M30 573 l5 -88 10 2 10 1 48 6 47 7 20 -11 20 -11 0 -49 0 -50 -19
-19 -20 -20 -35 -7 -35 -6 -33 11 -32 11 -8 -12 -9 -13 5 -46 5 -47 15 -36 15
-36 101 0 101 0 -5 -17 -5 -18 -6 -42 -7 -41 21 -21 21 -21 13 0 13 0 21 15
21 15 12 36 12 36 -6 39 -6 40 15 5 16 6 57 -11 57 -11 23 -6 22 -6 0 250 0
250 -32 -8 -33 -9 -45 -8 -45 -9 3 -42 2 -42 -25 -10 -26 -10 -43 0 -42 0 -16
13 -17 12 -2 15 -3 15 7 28 8 29 -12 14 -11 14 -87 0 -86 0 5 -87z"/>
</g>
</svg>
