<?xml version="1.0" standalone="no"?>
<!DOCTYPE svg PUBLIC "-//W3C//DTD SVG 20010904//EN"
 "http://www.w3.org/TR/2001/REC-SVG-20010904/DTD/svg10.dtd">
<svg version="1.0" xmlns="http://www.w3.org/2000/svg"
 width="55.000000pt" height="68.000000pt" viewBox="0 0 55.000000 68.000000"
 preserveAspectRatio="xMidYMid meet">
<metadata>
Created by potrace 1.16, written by Peter Selinger 2001-2019
</metadata>
<g transform="translate(0.000000,68.000000) scale(0.100000,-0.100000)"
fill="#000000" stroke="none">
<path d="M28 588 l4 -93 7 -8 7 -7 53 10 53 10 19 -10 19 -11 0 -35 0 -35 -10
-19 -10 -18 -34 -12 -35 -11 -41 12 -42 13 -9 -15 -10 -14 4 -55 5 -55 15 -38
16 -37 96 0 97 0 -7 -59 -7 -59 21 -21 21 -21 23 0 23 0 21 15 21 15 12 35 12
35 -3 42 -3 42 11 3 11 4 67 -16 66 -15 15 0 14 0 0 261 0 261 -22 -6 -23 -7
-59 -10 -60 -10 -9 -6 -9 -6 5 -39 5 -39 -25 -10 -24 -9 -30 0 -30 0 -21 11
-20 11 7 45 6 44 -12 15 -11 14 -97 0 -97 0 4 -92z"/>
</g>
</svg>
