<?xml version="1.0" standalone="no"?>
<!DOCTYPE svg PUBLIC "-//W3C//DTD SVG 20010904//EN"
 "http://www.w3.org/TR/2001/REC-SVG-20010904/DTD/svg10.dtd">
<svg version="1.0" xmlns="http://www.w3.org/2000/svg"
 width="66.000000pt" height="81.000000pt" viewBox="0 0 66.000000 81.000000"
 preserveAspectRatio="xMidYMid meet">
<metadata>
Created by potrace 1.16, written by Peter Selinger 2001-2019
</metadata>
<g transform="translate(0.000000,81.000000) scale(0.100000,-0.100000)"
fill="#000000" stroke="none">
<path d="M360 790 l-11 -20 11 -40 11 -40 -6 -10 -6 -10 -110 0 -109 0 0 -54
0 -55 -10 -25 -9 -25 -24 -6 -23 -6 -28 11 -29 11 -6 -6 -5 -6 -1 -58 0 -57
17 -18 18 -17 47 3 48 3 0 -98 0 -97 78 0 78 0 21 -11 20 -11 -6 -58 -7 -57
25 -17 25 -16 43 0 43 0 14 9 13 9 -1 23 -1 24 -3 24 -2 24 25 7 25 8 68 17
68 18 -6 16 -6 16 -10 55 -10 55 -4 21 -5 22 -15 6 -16 6 -20 -13 -20 -12 -30
33 -29 32 0 20 0 20 25 16 25 17 52 -7 51 -7 8 13 9 13 0 87 0 87 -8 5 -8 5
-58 -15 -58 -15 -36 3 -37 3 3 59 2 59 -15 23 -15 24 -30 0 -29 0 -11 -20z"/>
</g>
</svg>
