<?xml version="1.0" standalone="no"?>
<!DOCTYPE svg PUBLIC "-//W3C//DTD SVG 20010904//EN"
 "http://www.w3.org/TR/2001/REC-SVG-20010904/DTD/svg10.dtd">
<svg version="1.0" xmlns="http://www.w3.org/2000/svg"
 width="68.000000pt" height="83.000000pt" viewBox="0 0 68.000000 83.000000"
 preserveAspectRatio="xMidYMid meet">
<metadata>
Created by potrace 1.16, written by Peter Selinger 2001-2019
</metadata>
<g transform="translate(0.000000,83.000000) scale(0.100000,-0.100000)"
fill="#000000" stroke="none">
<path d="M358 806 l-11 -25 10 -40 11 -40 -6 -6 -5 -5 -108 0 -107 0 -4 -71
-4 -71 -19 -14 -19 -14 -16 5 -15 6 -27 6 -26 5 -7 -46 -7 -47 6 -30 6 -30 15
-15 15 -16 48 4 47 3 0 -97 0 -98 78 0 78 0 20 -11 20 -10 -7 -58 -6 -57 26
-17 25 -17 53 0 53 0 14 9 15 10 -1 33 0 33 -4 14 -4 13 25 8 25 8 68 17 69
18 -7 31 -7 31 -13 69 -12 68 -14 9 -14 9 -15 0 -16 0 -11 -11 -10 -10 -27 31
-26 32 0 9 0 9 24 15 24 16 52 -7 52 -7 9 14 9 14 0 97 0 97 -11 6 -10 7 -69
-17 -68 -17 -23 4 -24 3 3 58 4 58 -16 24 -16 25 -40 0 -40 0 -12 -24z"/>
</g>
</svg>
