<?xml version="1.0" standalone="no"?>
<!DOCTYPE svg PUBLIC "-//W3C//DTD SVG 20010904//EN"
 "http://www.w3.org/TR/2001/REC-SVG-20010904/DTD/svg10.dtd">
<svg version="1.0" xmlns="http://www.w3.org/2000/svg"
 width="77.000000pt" height="68.000000pt" viewBox="0 0 77.000000 68.000000"
 preserveAspectRatio="xMidYMid meet">
<metadata>
Created by potrace 1.16, written by Peter Selinger 2001-2019
</metadata>
<g transform="translate(0.000000,68.000000) scale(0.100000,-0.100000)"
fill="#000000" stroke="none">
<path d="M329 670 l-16 -9 5 -49 4 -49 -30 -12 -30 -13 -72 4 -72 3 7 -87 6
-88 -45 6 -46 7 -20 -18 -20 -18 0 -32 0 -31 14 -19 13 -18 34 -1 34 -1 22 8
22 8 7 -27 7 -28 -15 -79 -15 -79 15 -6 15 -5 86 -1 86 -1 -3 61 -4 60 14 11
13 11 20 3 20 3 21 -7 22 -8 13 -31 12 -31 -10 -40 -11 -40 13 -14 14 -13 32
0 33 0 57 16 58 16 -1 17 0 16 16 88 15 87 6 11 7 10 41 -3 42 -3 3 51 3 51
-16 13 -17 14 -44 -12 -44 -12 -10 0 -10 0 0 91 0 90 -22 -7 -23 -7 -35 -8
-35 -9 -41 0 -42 0 -6 15 -6 15 7 45 6 44 -17 26 -16 25 -28 0 -27 -1 -16 -9z"/>
</g>
</svg>
