<?xml version="1.0" standalone="no"?>
<!DOCTYPE svg PUBLIC "-//W3C//DTD SVG 20010904//EN"
 "http://www.w3.org/TR/2001/REC-SVG-20010904/DTD/svg10.dtd">
<svg version="1.0" xmlns="http://www.w3.org/2000/svg"
 width="71.000000pt" height="67.000000pt" viewBox="0 0 71.000000 67.000000"
 preserveAspectRatio="xMidYMid meet">
<metadata>
Created by potrace 1.16, written by Peter Selinger 2001-2019
</metadata>
<g transform="translate(0.000000,67.000000) scale(0.100000,-0.100000)"
fill="#000000" stroke="none">
<path d="M259 648 l-11 -21 5 -49 6 -48 -114 0 -115 0 0 -84 0 -85 17 -16 17
-17 46 6 47 6 13 -30 13 -31 -19 -20 -19 -21 -61 7 -62 6 -8 -13 -8 -13 0 -52
1 -53 13 -59 12 -58 114 1 114 2 12 12 12 12 -11 42 -11 42 14 28 15 28 19 0
20 0 20 -20 21 -21 -7 -48 -6 -49 18 -10 19 -10 87 -4 87 -4 5 20 6 21 0 55 0
55 6 22 6 23 38 -6 38 -6 21 21 21 21 0 39 0 40 -22 15 -22 16 -53 0 -52 0 6
95 6 95 -86 0 -85 0 -16 6 -15 6 5 41 6 42 -22 23 -21 22 -34 0 -34 0 -12 -22z"/>
</g>
</svg>
