<?xml version="1.0" standalone="no"?>
<!DOCTYPE svg PUBLIC "-//W3C//DTD SVG 20010904//EN"
 "http://www.w3.org/TR/2001/REC-SVG-20010904/DTD/svg10.dtd">
<svg version="1.0" xmlns="http://www.w3.org/2000/svg"
 width="81.000000pt" height="81.000000pt" viewBox="0 0 81.000000 81.000000"
 preserveAspectRatio="xMidYMid meet">
<metadata>
Created by potrace 1.16, written by Peter Selinger 2001-2019
</metadata>
<g transform="translate(0.000000,81.000000) scale(0.100000,-0.100000)"
fill="#000000" stroke="none">
<path d="M341 796 l-13 -15 3 -53 3 -53 -98 -3 -98 -3 4 -82 4 -83 -57 4 -56
4 -17 -23 -16 -23 0 -34 0 -33 11 -21 11 -20 29 6 29 5 9 -18 10 -18 11 -66
10 -66 10 -27 10 -27 81 7 80 7 -6 -24 -6 -24 10 -41 11 -40 25 -16 24 -16 35
0 35 0 16 17 17 17 -5 69 -4 69 13 5 13 5 68 -15 68 -15 21 -7 21 -7 8 19 8
18 11 74 11 75 45 0 44 1 13 25 13 25 0 36 0 35 -14 19 -14 20 -39 -1 -38 -1
-14 -4 -14 -4 -9 30 -9 30 6 69 5 69 -47 -7 -48 -7 -68 -6 -67 -6 5 54 6 54
-13 25 -13 25 -36 3 -36 3 -12 -15z"/>
</g>
</svg>
