<?xml version="1.0" standalone="no"?>
<!DOCTYPE svg PUBLIC "-//W3C//DTD SVG 20010904//EN"
 "http://www.w3.org/TR/2001/REC-SVG-20010904/DTD/svg10.dtd">
<svg version="1.0" xmlns="http://www.w3.org/2000/svg"
 width="79.000000pt" height="79.000000pt" viewBox="0 0 79.000000 79.000000"
 preserveAspectRatio="xMidYMid meet">
<metadata>
Created by potrace 1.16, written by Peter Selinger 2001-2019
</metadata>
<g transform="translate(0.000000,79.000000) scale(0.100000,-0.100000)"
fill="#000000" stroke="none">
<path d="M340 775 l-12 -14 4 -53 3 -53 -99 -3 -99 -3 6 -89 7 -89 -26 9 -25
10 -34 0 -34 0 -15 -22 -16 -22 0 -24 0 -23 10 -19 10 -19 29 5 29 6 11 -19
10 -20 11 -66 10 -66 10 -26 10 -26 82 7 81 7 -6 -30 -6 -31 10 -35 9 -35 25
-16 24 -16 25 0 25 0 16 17 17 16 -4 71 -3 71 62 -2 62 -3 40 -13 40 -14 10
26 10 26 6 62 7 62 13 11 13 11 7 -11 6 -10 23 0 24 0 12 15 12 14 5 38 5 38
-15 19 -14 19 -29 -1 -29 -2 -24 -2 -24 -3 -10 35 -9 35 5 63 5 64 -32 -6 -31
-6 -81 -6 -81 -7 -6 17 -7 17 11 21 11 20 -6 31 -6 30 -11 14 -11 13 -23 0
-23 0 -12 -15z"/>
</g>
</svg>
