<?xml version="1.0" standalone="no"?>
<!DOCTYPE svg PUBLIC "-//W3C//DTD SVG 20010904//EN"
 "http://www.w3.org/TR/2001/REC-SVG-20010904/DTD/svg10.dtd">
<svg version="1.0" xmlns="http://www.w3.org/2000/svg"
 width="72.000000pt" height="67.000000pt" viewBox="0 0 72.000000 67.000000"
 preserveAspectRatio="xMidYMid meet">
<metadata>
Created by potrace 1.16, written by Peter Selinger 2001-2019
</metadata>
<g transform="translate(0.000000,67.000000) scale(0.100000,-0.100000)"
fill="#000000" stroke="none">
<path d="M230 648 l-22 -23 6 -49 5 -48 -93 4 -94 4 -6 -36 -6 -35 0 -48 0
-48 14 -34 15 -35 21 0 21 0 19 10 19 10 25 -11 25 -12 5 -13 5 -14 -5 -14 -5
-13 -25 -11 -24 -12 -51 12 -51 12 -15 -20 -15 -19 6 -65 6 -65 10 -35 10 -35
97 0 98 0 13 8 12 8 0 20 0 20 -9 17 -9 17 9 22 8 22 25 16 25 16 19 -10 20
-11 -5 -39 -5 -40 58 -16 59 -15 51 -15 51 -15 15 0 15 0 17 38 16 37 13 45
13 45 31 -3 32 -3 10 20 11 20 0 70 0 71 -25 16 -24 16 -55 -4 -55 -3 6 81 6
80 -97 -4 -96 -4 -14 11 -14 12 11 29 11 29 -10 28 -9 28 -52 3 -51 3 -22 -23z"/>
</g>
</svg>
