<?xml version="1.0" standalone="no"?>
<!DOCTYPE svg PUBLIC "-//W3C//DTD SVG 20010904//EN"
 "http://www.w3.org/TR/2001/REC-SVG-20010904/DTD/svg10.dtd">
<svg version="1.0" xmlns="http://www.w3.org/2000/svg"
 width="70.000000pt" height="65.000000pt" viewBox="0 0 70.000000 65.000000"
 preserveAspectRatio="xMidYMid meet">
<metadata>
Created by potrace 1.16, written by Peter Selinger 2001-2019
</metadata>
<g transform="translate(0.000000,65.000000) scale(0.100000,-0.100000)"
fill="#000000" stroke="none">
<path d="M230 628 l-21 -23 5 -25 5 -25 3 -20 3 -20 -95 0 -95 0 -6 -25 -7
-25 -1 -48 -1 -48 14 -34 15 -35 10 0 10 0 25 11 25 12 30 -13 30 -12 6 -19 6
-19 -6 -19 -6 -19 -29 -12 -30 -12 -47 11 -47 12 -14 -18 -14 -18 7 -55 6 -55
9 -35 9 -35 90 0 90 0 12 12 12 12 -12 30 -13 30 14 27 13 28 27 15 26 15 27
-12 27 -12 -7 -40 -7 -39 59 -16 58 -15 53 -16 54 -16 3 4 2 3 16 30 15 30 12
45 12 45 10 12 10 12 19 -12 20 -12 15 19 14 20 0 63 0 63 -25 16 -26 17 -55
-6 -55 -6 7 82 6 82 -99 -3 -100 -3 -12 15 -13 16 12 30 13 31 -11 24 -12 25
-39 0 -40 0 -21 -22z"/>
</g>
</svg>
