<?xml version="1.0" standalone="no"?>
<!DOCTYPE svg PUBLIC "-//W3C//DTD SVG 20010904//EN"
 "http://www.w3.org/TR/2001/REC-SVG-20010904/DTD/svg10.dtd">
<svg version="1.0" xmlns="http://www.w3.org/2000/svg"
 width="80.000000pt" height="77.000000pt" viewBox="0 0 80.000000 77.000000"
 preserveAspectRatio="xMidYMid meet">
<metadata>
Created by potrace 1.16, written by Peter Selinger 2001-2019
</metadata>
<g transform="translate(0.000000,77.000000) scale(0.100000,-0.100000)"
fill="#000000" stroke="none">
<path d="M328 763 l-17 -4 5 -42 6 -42 -27 -15 -28 -15 -69 0 -68 0 0 -65 0
-65 -13 -25 -13 -25 -52 2 -52 2 0 -63 0 -63 18 -16 19 -17 17 0 17 0 19 10
19 10 12 -21 11 -22 -4 -73 -3 -74 71 0 71 0 32 -11 31 -11 10 -18 10 -19 -12
-27 -12 -26 19 -14 19 -14 41 0 41 0 19 14 19 14 -13 15 -12 16 23 14 23 15
52 12 51 12 15 11 15 12 -14 65 -14 65 0 26 0 25 13 18 13 17 47 -12 47 -11
30 12 29 12 6 19 6 19 -6 19 -6 19 -30 12 -30 13 -25 -12 -25 -11 -10 0 -10 0
-16 38 -15 37 6 71 5 71 -22 12 -22 11 -65 18 -65 17 -5 30 -5 30 -55 2 -55 1
-17 -5z"/>
</g>
</svg>
