<?xml version="1.0" standalone="no"?>
<!DOCTYPE svg PUBLIC "-//W3C//DTD SVG 20010904//EN"
 "http://www.w3.org/TR/2001/REC-SVG-20010904/DTD/svg10.dtd">
<svg version="1.0" xmlns="http://www.w3.org/2000/svg"
 width="82.000000pt" height="79.000000pt" viewBox="0 0 82.000000 79.000000"
 preserveAspectRatio="xMidYMid meet">
<metadata>
Created by potrace 1.16, written by Peter Selinger 2001-2019
</metadata>
<g transform="translate(0.000000,79.000000) scale(0.100000,-0.100000)"
fill="#000000" stroke="none">
<path d="M327 783 l-19 -5 6 -42 7 -42 -27 -15 -27 -14 -69 1 -68 1 0 -66 0
-66 -13 -25 -13 -25 -52 3 -52 3 0 -74 0 -74 20 -18 20 -18 40 6 40 5 6 -25 7
-25 -6 -64 -6 -64 75 0 75 0 35 -15 35 -15 -6 -44 -7 -44 20 -11 21 -11 48 0
49 0 19 14 18 13 -6 22 -5 22 21 9 22 9 57 16 57 15 6 10 6 9 -17 82 -16 81
10 23 10 22 50 -10 50 -10 31 13 31 13 6 23 6 24 -6 23 -6 24 -25 11 -26 12
-20 0 -20 0 -20 -11 -20 -10 -15 38 -16 37 7 71 6 71 -23 12 -23 12 -65 18
-65 17 -5 30 -5 30 -65 2 -65 1 -18 -5z"/>
</g>
</svg>
