<?xml version="1.0" standalone="no"?>
<!DOCTYPE svg PUBLIC "-//W3C//DTD SVG 20010904//EN"
 "http://www.w3.org/TR/2001/REC-SVG-20010904/DTD/svg10.dtd">
<svg version="1.0" xmlns="http://www.w3.org/2000/svg"
 width="66.000000pt" height="79.000000pt" viewBox="0 0 66.000000 79.000000"
 preserveAspectRatio="xMidYMid meet">
<metadata>
Created by potrace 1.16, written by Peter Selinger 2001-2019
</metadata>
<g transform="translate(0.000000,79.000000) scale(0.100000,-0.100000)"
fill="#000000" stroke="none">
<path d="M223 783 l-13 -5 6 -54 7 -54 -36 -15 -36 -15 -76 0 -75 0 0 -90 0
-90 10 0 10 0 44 12 44 12 17 -14 16 -13 -3 -51 -3 -51 -42 3 -41 3 -7 -10 -6
-11 -13 -82 -14 -83 -3 -15 -4 -15 76 -5 76 -6 26 -17 27 -17 4 -23 5 -22 -2
-25 -2 -25 38 -3 38 -3 16 12 15 13 9 24 9 24 -12 15 -12 15 19 14 19 14 65 2
66 1 19 1 18 1 14 27 14 27 16 63 16 63 8 15 9 15 28 0 28 0 3 37 3 37 -22 22
-21 21 -43 -5 -43 -6 -6 15 -6 16 0 82 0 83 -52 11 -53 11 -42 6 -41 6 -17 13
-18 13 13 23 13 24 -23 18 -22 18 -22 -1 -21 -1 -12 -5z"/>
</g>
</svg>
