<?xml version="1.0" standalone="no"?>
<!DOCTYPE svg PUBLIC "-//W3C//DTD SVG 20010904//EN"
 "http://www.w3.org/TR/2001/REC-SVG-20010904/DTD/svg10.dtd">
<svg version="1.0" xmlns="http://www.w3.org/2000/svg"
 width="73.000000pt" height="67.000000pt" viewBox="0 0 73.000000 67.000000"
 preserveAspectRatio="xMidYMid meet">
<metadata>
Created by potrace 1.16, written by Peter Selinger 2001-2019
</metadata>
<g transform="translate(0.000000,67.000000) scale(0.100000,-0.100000)"
fill="#000000" stroke="none">
<path d="M266 651 l-17 -19 -6 -34 -5 -35 11 -22 12 -21 -114 0 -114 0 -7 -96
-7 -97 9 -9 10 -10 35 13 35 12 26 -16 25 -17 10 -18 10 -19 -15 -22 -15 -21
-29 -15 -29 -15 -24 11 -24 11 -22 -11 -21 -12 0 -36 0 -37 12 -58 12 -58 96
0 96 0 22 16 22 15 0 50 0 49 43 0 43 0 11 -11 11 -11 -5 -32 -5 -33 17 -16
16 -17 38 0 38 0 48 -7 48 -6 -8 86 -7 86 7 20 6 20 63 -6 63 -6 22 22 21 21
0 35 0 35 -20 20 -20 20 -14 0 -15 0 -25 -10 -26 -9 -14 5 -15 6 -10 30 -11
31 0 63 0 64 -76 0 -75 0 -20 10 -19 11 10 19 10 19 0 25 0 25 -22 15 -22 16
-32 0 -31 0 -17 -19z"/>
</g>
</svg>
