<?xml version="1.0" standalone="no"?>
<!DOCTYPE svg PUBLIC "-//W3C//DTD SVG 20010904//EN"
 "http://www.w3.org/TR/2001/REC-SVG-20010904/DTD/svg10.dtd">
<svg version="1.0" xmlns="http://www.w3.org/2000/svg"
 width="71.000000pt" height="65.000000pt" viewBox="0 0 71.000000 65.000000"
 preserveAspectRatio="xMidYMid meet">
<metadata>
Created by potrace 1.16, written by Peter Selinger 2001-2019
</metadata>
<g transform="translate(0.000000,65.000000) scale(0.100000,-0.100000)"
fill="#000000" stroke="none">
<path d="M265 630 l-19 -20 1 -33 0 -32 8 -22 7 -23 -114 0 -115 0 -7 -86 -6
-86 5 -8 5 -8 30 11 29 11 27 -9 27 -10 21 -28 21 -28 -15 -26 -15 -27 -34
-20 -34 -19 -27 10 -27 10 -17 -9 -16 -9 0 -33 0 -33 14 -46 14 -46 -6 -5 -5
-6 89 0 90 0 23 16 23 17 -5 44 -5 43 11 7 10 6 44 -1 44 0 15 -13 16 -13 -7
-32 -6 -32 16 -16 16 -16 43 0 44 0 32 -6 32 -7 -7 81 -7 81 6 26 7 27 63 -7
64 -7 21 21 21 21 0 21 0 20 -10 18 -9 19 -16 6 -15 5 -27 -10 -27 -10 -22 5
-22 6 -11 31 -11 32 0 63 0 64 -78 0 -78 0 -18 13 -19 14 14 37 14 38 -24 19
-23 19 -23 0 -22 0 -18 -20z"/>
</g>
</svg>
