<?xml version="1.0" standalone="no"?>
<!DOCTYPE svg PUBLIC "-//W3C//DTD SVG 20010904//EN"
 "http://www.w3.org/TR/2001/REC-SVG-20010904/DTD/svg10.dtd">
<svg version="1.0" xmlns="http://www.w3.org/2000/svg"
 width="53.000000pt" height="79.000000pt" viewBox="0 0 53.000000 79.000000"
 preserveAspectRatio="xMidYMid meet">
<metadata>
Created by potrace 1.16, written by Peter Selinger 2001-2019
</metadata>
<g transform="translate(0.000000,79.000000) scale(0.100000,-0.100000)"
fill="#000000" stroke="none">
<path d="M216 774 l-16 -15 0 -14 0 -14 12 -26 12 -26 -15 -10 -14 -9 -91 0
-92 0 -6 -22 -6 -23 0 -56 0 -56 11 -32 11 -31 52 2 51 3 3 -27 3 -27 -11 -20
-10 -20 -30 5 -29 6 -10 -23 -10 -24 -10 -78 -11 -79 6 -10 7 -10 73 4 74 5 0
-43 0 -42 26 -31 26 -31 44 0 44 0 21 21 21 21 -6 40 -6 39 -3 12 -2 12 90 0
90 0 -2 20 -1 20 -24 85 -23 85 -35 -1 -35 0 -17 20 -18 19 0 13 0 13 28 21
27 22 58 -7 57 -6 0 106 0 105 -18 0 -18 0 -9 -9 -10 -10 -58 -15 -58 -15 -14
5 -14 6 6 67 6 68 -24 17 -23 16 -33 0 -32 0 -15 -16z"/>
</g>
</svg>
