<?xml version="1.0" standalone="no"?>
<!DOCTYPE svg PUBLIC "-//W3C//DTD SVG 20010904//EN"
 "http://www.w3.org/TR/2001/REC-SVG-20010904/DTD/svg10.dtd">
<svg version="1.0" xmlns="http://www.w3.org/2000/svg"
 width="68.000000pt" height="81.000000pt" viewBox="0 0 68.000000 81.000000"
 preserveAspectRatio="xMidYMid meet">
<metadata>
Created by potrace 1.16, written by Peter Selinger 2001-2019
</metadata>
<g transform="translate(0.000000,81.000000) scale(0.100000,-0.100000)"
fill="#000000" stroke="none">
<path d="M220 795 l-13 -16 2 -32 1 -32 3 -20 2 -20 -105 0 -105 0 -3 -250 -2
-251 92 4 93 4 -3 -66 -4 -65 26 -26 25 -25 21 0 21 0 28 15 28 14 12 30 13
29 -4 54 -3 53 45 -1 45 0 42 -8 41 -8 -15 43 -15 44 -5 62 -6 62 55 -6 55 -6
37 13 36 12 10 18 10 19 -7 18 -6 18 -9 12 -10 12 -23 -11 -24 -11 -25 7 -26
6 -15 30 -16 30 -2 60 -2 61 -23 6 -23 6 -46 -7 -46 -6 -40 11 -39 10 5 27 6
27 6 16 6 16 -16 17 -16 16 -28 0 -29 0 -12 -15z"/>
</g>
</svg>
