<?xml version="1.0" standalone="no"?>
<!DOCTYPE svg PUBLIC "-//W3C//DTD SVG 20010904//EN"
 "http://www.w3.org/TR/2001/REC-SVG-20010904/DTD/svg10.dtd">
<svg version="1.0" xmlns="http://www.w3.org/2000/svg"
 width="70.000000pt" height="83.000000pt" viewBox="0 0 70.000000 83.000000"
 preserveAspectRatio="xMidYMid meet">
<metadata>
Created by potrace 1.16, written by Peter Selinger 2001-2019
</metadata>
<g transform="translate(0.000000,83.000000) scale(0.100000,-0.100000)"
fill="#000000" stroke="none">
<path d="M219 813 l-14 -16 2 -54 3 -55 -103 4 -102 3 -3 -262 -2 -262 90 6
90 6 0 -67 0 -67 25 -24 24 -25 31 0 31 0 28 15 28 14 13 30 12 30 -4 53 -3
53 35 -1 35 -1 54 -8 54 -8 -6 19 -6 19 -15 55 -16 55 0 30 0 30 52 -4 51 -3
39 11 38 12 11 20 10 20 -6 29 -6 29 -15 12 -15 12 -25 -12 -26 -12 -19 6 -19
6 -16 30 -15 30 -1 60 -1 59 -24 6 -24 6 -51 -4 -52 -5 -34 9 -34 9 7 17 6 17
6 26 5 26 -17 16 -16 17 -38 0 -39 0 -13 -17z"/>
</g>
</svg>
