<?xml version="1.0" standalone="no"?>
<!DOCTYPE svg PUBLIC "-//W3C//DTD SVG 20010904//EN"
 "http://www.w3.org/TR/2001/REC-SVG-20010904/DTD/svg10.dtd">
<svg version="1.0" xmlns="http://www.w3.org/2000/svg"
 width="70.000000pt" height="65.000000pt" viewBox="0 0 70.000000 65.000000"
 preserveAspectRatio="xMidYMid meet">
<metadata>
Created by potrace 1.16, written by Peter Selinger 2001-2019
</metadata>
<g transform="translate(0.000000,65.000000) scale(0.100000,-0.100000)"
fill="#000000" stroke="none">
<path d="M229 643 l-1 -8 2 -37 1 -37 -20 -20 -21 -21 -74 0 -75 0 -7 -11 -7
-12 0 -51 0 -51 7 -23 8 -23 21 -8 21 -8 35 8 35 8 8 -12 8 -12 0 -42 0 -43
-20 -20 -20 -20 -24 0 -25 0 -25 10 -26 9 -16 -6 -16 -6 6 -76 6 -76 2 -15 1
-14 10 -11 10 -10 86 5 86 6 14 8 13 9 -5 48 -6 49 19 10 19 10 33 0 34 0 23
-16 23 -16 -7 -44 -6 -44 26 -10 26 -10 64 0 63 0 16 43 15 42 13 50 14 50 39
0 39 0 15 38 14 38 -12 26 -12 26 -57 -6 -57 -6 -15 9 -15 9 0 98 0 98 -55 17
-55 18 -45 12 -45 13 1 25 1 25 -11 7 -11 8 -42 0 -43 0 -1 -7z"/>
</g>
</svg>
