<?xml version="1.0" standalone="no"?>
<!DOCTYPE svg PUBLIC "-//W3C//DTD SVG 20010904//EN"
 "http://www.w3.org/TR/2001/REC-SVG-20010904/DTD/svg10.dtd">
<svg version="1.0" xmlns="http://www.w3.org/2000/svg"
 width="72.000000pt" height="67.000000pt" viewBox="0 0 72.000000 67.000000"
 preserveAspectRatio="xMidYMid meet">
<metadata>
Created by potrace 1.16, written by Peter Selinger 2001-2019
</metadata>
<g transform="translate(0.000000,67.000000) scale(0.100000,-0.100000)"
fill="#000000" stroke="none">
<path d="M227 663 l-7 -6 6 -36 5 -36 -14 -20 -15 -20 -83 -5 -83 -5 -8 -35
-7 -35 6 -47 6 -48 12 -17 13 -17 53 -1 54 0 3 -24 4 -23 -6 -24 -6 -23 -22
-12 -21 -11 -39 11 -39 12 -21 -7 -21 -6 6 -99 6 -100 13 -13 13 -13 95 7 95
6 13 8 13 8 -2 50 -3 49 15 10 14 9 25 0 26 0 22 -15 22 -16 -7 -44 -6 -44 24
-9 24 -9 83 -5 82 -5 0 16 1 16 22 80 23 80 39 0 40 0 14 42 15 42 -10 28 -10
28 -67 1 -67 0 -7 8 -8 7 0 97 0 97 -55 17 -55 18 -45 12 -45 13 3 24 4 24
-14 8 -13 9 -51 0 -51 0 -6 -7z"/>
</g>
</svg>
