<?xml version="1.0" standalone="no"?>
<!DOCTYPE svg PUBLIC "-//W3C//DTD SVG 20010904//EN"
 "http://www.w3.org/TR/2001/REC-SVG-20010904/DTD/svg10.dtd">
<svg version="1.0" xmlns="http://www.w3.org/2000/svg"
 width="53.000000pt" height="78.000000pt" viewBox="0 0 53.000000 78.000000"
 preserveAspectRatio="xMidYMid meet">
<metadata>
Created by potrace 1.16, written by Peter Selinger 2001-2019
</metadata>
<g transform="translate(0.000000,78.000000) scale(0.100000,-0.100000)"
fill="#000000" stroke="none">
<path d="M220 765 l-12 -14 7 -40 6 -39 -13 -8 -13 -9 -95 -5 -95 -5 -3 -101
-3 -102 16 -6 16 -6 45 12 44 12 28 -27 27 -27 -11 -18 -12 -17 -29 3 -30 3
-12 -15 -12 -14 -18 -64 -18 -64 -17 -32 -16 -31 0 -15 0 -15 68 1 69 0 24
-12 24 -13 7 -10 6 -10 -10 -23 -11 -23 6 -15 6 -16 71 0 71 0 20 11 20 10 -3
32 -3 31 35 7 35 7 45 9 45 8 -2 25 -2 25 -23 85 -23 85 -9 13 -8 14 -33 -6
-33 -6 -6 16 -6 16 0 28 0 28 14 11 13 11 48 -7 48 -6 13 18 14 19 0 87 0 87
-47 19 -48 20 -30 8 -30 7 -12 10 -13 10 6 24 6 24 -65 0 -65 0 -12 -15z"/>
</g>
</svg>
