<?xml version="1.0" standalone="no"?>
<!DOCTYPE svg PUBLIC "-//W3C//DTD SVG 20010904//EN"
 "http://www.w3.org/TR/2001/REC-SVG-20010904/DTD/svg10.dtd">
<svg version="1.0" xmlns="http://www.w3.org/2000/svg"
 width="51.000000pt" height="76.000000pt" viewBox="0 0 51.000000 76.000000"
 preserveAspectRatio="xMidYMid meet">
<metadata>
Created by potrace 1.16, written by Peter Selinger 2001-2019
</metadata>
<g transform="translate(0.000000,76.000000) scale(0.100000,-0.100000)"
fill="#000000" stroke="none">
<path d="M222 748 l-11 -11 6 -42 5 -42 -13 -9 -14 -9 -95 -5 -95 -5 -3 -89
-3 -89 12 -8 12 -7 24 9 24 9 28 0 28 0 21 -23 22 -23 0 -21 0 -20 -20 -18
-20 -18 -15 13 -16 13 -15 -14 -14 -15 -19 -65 -18 -65 -17 -32 -16 -31 0 -4
0 -4 63 0 64 1 31 -13 31 -13 6 -19 6 -18 -11 -21 -11 -20 6 -10 6 -10 62 0
62 0 15 10 15 9 0 33 0 32 35 7 35 7 45 9 45 9 -2 14 -3 15 -22 85 -23 85 -8
12 -8 12 -30 -6 -31 -6 -9 14 -9 14 0 41 0 42 15 12 14 12 50 -7 49 -7 11 21
11 20 0 74 0 75 -47 20 -48 20 -31 6 -32 7 -17 19 -18 20 13 15 12 15 -54 0
-54 0 -12 -12z"/>
</g>
</svg>
