<?xml version="1.0" standalone="no"?>
<!DOCTYPE svg PUBLIC "-//W3C//DTD SVG 20010904//EN"
 "http://www.w3.org/TR/2001/REC-SVG-20010904/DTD/svg10.dtd">
<svg version="1.0" xmlns="http://www.w3.org/2000/svg"
 width="82.000000pt" height="66.000000pt" viewBox="0 0 82.000000 66.000000"
 preserveAspectRatio="xMidYMid meet">
<metadata>
Created by potrace 1.16, written by Peter Selinger 2001-2019
</metadata>
<g transform="translate(0.000000,66.000000) scale(0.100000,-0.100000)"
fill="#000000" stroke="none">
<path d="M368 653 l-17 -4 -6 -18 -6 -19 13 -27 12 -27 -19 -14 -19 -14 -92 0
-92 0 0 -83 1 -83 -12 -22 -12 -23 -45 7 -44 6 -15 -12 -15 -12 0 -30 0 -29
37 -15 36 -16 56 4 56 3 -1 -45 -2 -45 -21 -60 -21 -59 0 -8 0 -8 110 0 111 0
6 16 6 17 -13 34 -12 35 19 27 20 26 21 3 21 3 20 -20 20 -20 -6 -48 -5 -49
26 -12 27 -12 74 0 75 0 0 23 0 22 -10 63 -9 64 9 23 8 22 50 -5 49 -4 31 16
32 17 0 28 0 29 -40 16 -40 16 -46 0 -46 0 7 97 8 96 -49 -8 -49 -8 -55 -1
-55 -1 4 15 3 15 5 35 5 35 -18 22 -19 22 -25 5 -25 4 -17 -5z"/>
</g>
</svg>
