<?xml version="1.0" standalone="no"?>
<!DOCTYPE svg PUBLIC "-//W3C//DTD SVG 20010904//EN"
 "http://www.w3.org/TR/2001/REC-SVG-20010904/DTD/svg10.dtd">
<svg version="1.0" xmlns="http://www.w3.org/2000/svg"
 width="86.000000pt" height="68.000000pt" viewBox="0 0 86.000000 68.000000"
 preserveAspectRatio="xMidYMid meet">
<metadata>
Created by potrace 1.16, written by Peter Selinger 2001-2019
</metadata>
<g transform="translate(0.000000,68.000000) scale(0.100000,-0.100000)"
fill="#000000" stroke="none">
<path d="M369 659 l-21 -21 5 -48 6 -48 -15 -6 -16 -6 -39 5 -39 5 -42 5 -41
6 6 -103 6 -103 -7 -12 -8 -12 -14 9 -15 10 -33 0 -33 0 -34 -14 -35 -15 0
-36 0 -36 27 -25 28 -26 65 4 65 3 3 -43 3 -43 -16 -50 -17 -50 3 -3 4 -2 117
5 116 6 7 7 7 6 -13 57 -12 56 15 16 16 16 26 -7 26 -6 0 -34 0 -34 13 -9 12
-9 83 -24 83 -23 10 10 11 11 -16 46 -16 47 0 22 0 22 8 13 8 12 32 -11 33
-11 36 7 36 6 30 30 30 30 -6 41 -5 41 -14 9 -13 9 -73 -3 -74 -3 8 93 7 94
-29 -6 -29 -5 -45 -6 -45 -6 -17 13 -17 13 10 42 11 43 -16 25 -16 25 -55 0
-55 0 -21 -21z"/>
</g>
</svg>
