<?xml version="1.0" standalone="no"?>
<!DOCTYPE svg PUBLIC "-//W3C//DTD SVG 20010904//EN"
 "http://www.w3.org/TR/2001/REC-SVG-20010904/DTD/svg10.dtd">
<svg version="1.0" xmlns="http://www.w3.org/2000/svg"
 width="84.000000pt" height="66.000000pt" viewBox="0 0 84.000000 66.000000"
 preserveAspectRatio="xMidYMid meet">
<metadata>
Created by potrace 1.16, written by Peter Selinger 2001-2019
</metadata>
<g transform="translate(0.000000,66.000000) scale(0.100000,-0.100000)"
fill="#000000" stroke="none">
<path d="M369 639 l-21 -21 5 -26 4 -27 8 -17 7 -18 -24 -10 -23 -11 -79 9
-78 8 6 -100 6 -101 -9 -14 -9 -13 -36 13 -37 13 -42 -14 -42 -15 -3 -27 -3
-28 28 -26 28 -26 65 4 65 3 0 -65 -1 -65 -8 -28 -8 -27 98 0 99 0 11 8 12 7
-11 53 -11 53 10 17 11 17 26 3 26 3 20 -11 20 -10 -5 -29 -6 -29 13 -8 14 -9
75 -22 75 -21 6 4 7 4 -14 37 -13 38 0 35 -1 35 9 14 9 14 44 -12 45 -13 36
15 35 15 17 26 17 25 -7 31 -7 30 -25 6 -25 7 -60 -7 -61 -6 7 93 7 94 -48 -8
-48 -8 -26 0 -25 -1 -19 14 -18 13 11 44 11 44 -15 22 -14 23 -45 0 -45 0 -21
-21z"/>
</g>
</svg>
