<?xml version="1.0" standalone="no"?>
<!DOCTYPE svg PUBLIC "-//W3C//DTD SVG 20010904//EN"
 "http://www.w3.org/TR/2001/REC-SVG-20010904/DTD/svg10.dtd">
<svg version="1.0" xmlns="http://www.w3.org/2000/svg"
 width="57.000000pt" height="68.000000pt" viewBox="0 0 57.000000 68.000000"
 preserveAspectRatio="xMidYMid meet">
<metadata>
Created by potrace 1.16, written by Peter Selinger 2001-2019
</metadata>
<g transform="translate(0.000000,68.000000) scale(0.100000,-0.100000)"
fill="#000000" stroke="none">
<path d="M250 671 l-25 -7 3 -46 3 -46 -23 -16 -22 -16 -86 0 -85 0 0 -113 0
-112 40 3 40 2 43 -16 42 -16 0 -9 0 -8 -30 -16 -30 -16 -50 7 -50 7 -11 -29
-11 -29 12 -95 12 -96 101 4 102 4 19 10 18 10 -5 26 -5 27 -7 22 -7 22 26 26
26 26 19 -11 20 -10 -6 -49 -5 -48 8 -6 9 -5 93 -16 93 -16 16 15 15 16 -20
47 -19 47 -8 30 -7 30 -10 12 -10 13 -29 0 -29 0 -10 26 -10 25 9 18 10 18 14
12 15 12 47 -13 47 -13 14 20 14 19 0 75 0 76 -6 23 -6 22 -22 -1 -21 -2 -55
2 -55 1 -14 9 -15 10 2 39 3 39 -13 10 -13 11 -40 5 -40 5 -25 -7z"/>
</g>
</svg>
