<?xml version="1.0" standalone="no"?>
<!DOCTYPE svg PUBLIC "-//W3C//DTD SVG 20010904//EN"
 "http://www.w3.org/TR/2001/REC-SVG-20010904/DTD/svg10.dtd">
<svg version="1.0" xmlns="http://www.w3.org/2000/svg"
 width="55.000000pt" height="66.000000pt" viewBox="0 0 55.000000 66.000000"
 preserveAspectRatio="xMidYMid meet">
<metadata>
Created by potrace 1.16, written by Peter Selinger 2001-2019
</metadata>
<g transform="translate(0.000000,66.000000) scale(0.100000,-0.100000)"
fill="#000000" stroke="none">
<path d="M250 651 l-25 -7 3 -46 4 -46 -23 -16 -23 -16 -86 0 -85 0 0 -103 0
-102 41 3 40 3 42 -16 42 -17 0 -19 0 -18 -32 -17 -31 -16 -49 6 -48 7 -10
-27 -10 -26 11 -86 11 -87 99 5 98 5 12 12 12 12 -13 30 -12 31 6 25 6 25 26
16 25 17 25 -12 26 -11 -7 -50 -7 -50 14 -5 13 -5 80 -13 79 -14 12 11 12 11
-13 25 -13 25 -12 45 -12 45 -11 13 -11 14 -28 -6 -27 -5 -12 39 -12 39 17 26
17 26 15 6 16 6 41 -13 41 -12 13 18 13 18 -1 70 0 71 -7 15 -7 15 -22 1 -23
0 -54 2 -55 2 -16 16 -16 16 6 32 7 32 -14 11 -13 10 -30 5 -30 5 -25 -6z"/>
</g>
</svg>
