<?xml version="1.0" standalone="no"?>
<!DOCTYPE svg PUBLIC "-//W3C//DTD SVG 20010904//EN"
 "http://www.w3.org/TR/2001/REC-SVG-20010904/DTD/svg10.dtd">
<svg version="1.0" xmlns="http://www.w3.org/2000/svg"
 width="55.000000pt" height="68.000000pt" viewBox="0 0 55.000000 68.000000"
 preserveAspectRatio="xMidYMid meet">
<metadata>
Created by potrace 1.16, written by Peter Selinger 2001-2019
</metadata>
<g transform="translate(0.000000,68.000000) scale(0.100000,-0.100000)"
fill="#000000" stroke="none">
<path d="M210 660 l-20 -20 0 -13 0 -13 10 -10 11 -11 -7 -17 -7 -18 -24 -9
-24 -9 -70 0 -69 0 0 -82 0 -83 9 -13 8 -14 54 4 53 3 8 -35 9 -36 -13 -39
-13 -40 -38 3 -37 4 -9 -24 -8 -23 -7 -57 -7 -58 -10 -5 -9 -6 0 -18 0 -18 83
4 82 4 23 5 23 5 -3 52 -3 52 33 10 33 11 29 -4 29 -4 3 -31 3 -31 50 -14 50
-13 47 -21 48 -21 6 5 6 6 1 106 2 105 -13 12 -12 13 -42 -11 -42 -11 -17 8
-17 9 -5 20 -5 19 8 12 8 13 71 -7 71 -7 0 48 0 48 -7 68 -6 67 -21 0 -21 0
-49 -15 -49 -15 -33 0 -33 0 -6 9 -5 10 11 24 12 25 -7 34 -6 34 -21 22 -20
22 -29 0 -30 0 -20 -20z"/>
</g>
</svg>
