<?xml version="1.0" standalone="no"?>
<!DOCTYPE svg PUBLIC "-//W3C//DTD SVG 20010904//EN"
 "http://www.w3.org/TR/2001/REC-SVG-20010904/DTD/svg10.dtd">
<svg version="1.0" xmlns="http://www.w3.org/2000/svg"
 width="70.000000pt" height="60.000000pt" viewBox="0 0 70.000000 60.000000"
 preserveAspectRatio="xMidYMid meet">
<metadata>
Created by potrace 1.16, written by Peter Selinger 2001-2019
</metadata>
<g transform="translate(0.000000,60.000000) scale(0.100000,-0.100000)"
fill="#000000" stroke="none">
<path d="M440 590 l-14 -9 12 -35 13 -35 -10 -37 -10 -36 -17 -19 -17 -19 -8
0 -8 0 -25 9 -25 10 11 29 11 28 -7 27 -6 27 -30 15 -29 15 -72 0 -72 0 6 -92
5 -93 -47 3 -46 4 -28 -22 -27 -21 0 -29 0 -28 17 -13 16 -14 51 0 51 0 5
-105 5 -105 40 -7 40 -7 48 6 48 6 11 20 10 20 -5 49 -6 48 39 0 39 0 21 -27
22 -28 -7 -54 -7 -54 14 -8 13 -9 40 0 40 0 53 14 54 15 13 18 14 18 10 61 11
61 0 24 0 25 -14 19 -14 19 -37 -11 -38 -12 -27 14 -27 14 -6 22 -6 21 6 14 5
14 43 0 42 0 18 20 17 19 5 65 6 64 -6 25 -7 24 -75 16 -76 17 -27 0 -27 0
-15 -10z"/>
</g>
</svg>
