<?xml version="1.0" standalone="no"?>
<!DOCTYPE svg PUBLIC "-//W3C//DTD SVG 20010904//EN"
 "http://www.w3.org/TR/2001/REC-SVG-20010904/DTD/svg10.dtd">
<svg version="1.0" xmlns="http://www.w3.org/2000/svg"
 width="68.000000pt" height="58.000000pt" viewBox="0 0 68.000000 58.000000"
 preserveAspectRatio="xMidYMid meet">
<metadata>
Created by potrace 1.16, written by Peter Selinger 2001-2019
</metadata>
<g transform="translate(0.000000,58.000000) scale(0.100000,-0.100000)"
fill="#000000" stroke="none">
<path d="M441 571 l-13 -8 12 -23 12 -22 -7 -44 -6 -44 -23 -27 -22 -26 -38 7
-37 7 -5 14 -6 13 12 22 12 22 -6 24 -6 24 -30 15 -29 15 -62 0 -62 0 7 -95 6
-94 -47 5 -48 6 -28 -22 -28 -22 3 -22 3 -21 29 -13 28 -14 25 11 25 12 14
-12 14 -11 0 -99 0 -98 11 -7 11 -6 66 0 65 0 14 18 15 19 -5 35 -5 35 -3 15
-4 15 49 3 48 3 19 -17 19 -17 9 -33 9 -34 -11 -30 -12 -31 15 -9 15 -10 30 0
30 0 53 14 54 15 13 18 14 18 10 61 11 61 0 14 0 15 -13 17 -12 18 -33 -12
-33 -11 -30 12 -31 13 -9 25 -10 25 6 26 6 26 42 -3 42 -4 18 20 18 20 6 55 6
55 -6 25 -7 24 -75 16 -76 17 -17 0 -17 0 -14 -9z"/>
</g>
</svg>
