<?xml version="1.0" standalone="no"?>
<!DOCTYPE svg PUBLIC "-//W3C//DTD SVG 20010904//EN"
 "http://www.w3.org/TR/2001/REC-SVG-20010904/DTD/svg10.dtd">
<svg version="1.0" xmlns="http://www.w3.org/2000/svg"
 width="54.000000pt" height="58.000000pt" viewBox="0 0 54.000000 58.000000"
 preserveAspectRatio="xMidYMid meet">
<metadata>
Created by potrace 1.16, written by Peter Selinger 2001-2019
</metadata>
<g transform="translate(0.000000,58.000000) scale(0.100000,-0.100000)"
fill="#000000" stroke="none">
<path d="M356 523 l5 -58 -18 -35 -18 -35 -27 -9 -26 -9 -27 17 -27 18 4 61 3
62 -101 3 -102 3 -7 -74 -6 -74 6 -37 7 -36 13 0 14 0 25 10 26 10 25 -10 24
-9 7 -26 6 -25 -17 -26 -17 -26 -53 7 -53 6 -8 -13 -8 -13 3 -70 3 -70 1 -17
1 -18 103 0 103 0 21 21 21 21 -6 15 -6 15 -6 24 -6 24 40 0 40 0 27 -32 26
-31 -6 -21 -7 -21 -1 -20 -2 -20 40 -3 40 -4 53 13 53 13 -6 50 -6 51 -5 47
-6 47 -14 12 -15 12 -25 -12 -25 -11 -9 0 -10 0 -20 20 -20 20 0 30 0 29 19
11 20 10 6 -10 6 -10 38 0 39 0 16 25 16 24 0 83 0 83 -55 23 -55 22 -40 0
-40 0 6 -57z"/>
</g>
</svg>
