<?xml version="1.0" standalone="no"?>
<!DOCTYPE svg PUBLIC "-//W3C//DTD SVG 20010904//EN"
 "http://www.w3.org/TR/2001/REC-SVG-20010904/DTD/svg10.dtd">
<svg version="1.0" xmlns="http://www.w3.org/2000/svg"
 width="57.000000pt" height="74.000000pt" viewBox="0 0 57.000000 74.000000"
 preserveAspectRatio="xMidYMid meet">
<metadata>
Created by potrace 1.16, written by Peter Selinger 2001-2019
</metadata>
<g transform="translate(0.000000,74.000000) scale(0.100000,-0.100000)"
fill="#000000" stroke="none">
<path d="M345 731 l-7 -12 7 -48 6 -48 -14 -36 -15 -35 -20 -11 -21 -11 -19 0
-19 0 -22 24 -23 25 7 49 7 50 -21 11 -20 11 -79 0 -79 0 -7 -31 -6 -31 0 -79
0 -78 55 6 55 6 16 -14 16 -13 -6 -44 -6 -44 -5 -9 -6 -9 -19 13 -20 12 -14
-15 -14 -15 -16 -70 -17 -70 -2 -20 -2 -20 81 3 81 2 -1 -58 -1 -58 18 -27 17
-26 34 -6 34 -7 20 6 19 6 13 25 13 25 -11 25 -11 24 8 6 9 5 73 15 74 16 17
5 18 5 21 47 21 47 2 55 1 55 -40 -2 -40 -2 -43 11 -43 11 -19 25 -20 25 0 16
1 16 13 17 13 17 32 -12 32 -12 27 16 27 15 12 34 12 35 0 61 1 62 -42 17 -42
16 -47 6 -46 5 -8 -11z"/>
</g>
</svg>
