<?xml version="1.0" standalone="no"?>
<!DOCTYPE svg PUBLIC "-//W3C//DTD SVG 20010904//EN"
 "http://www.w3.org/TR/2001/REC-SVG-20010904/DTD/svg10.dtd">
<svg version="1.0" xmlns="http://www.w3.org/2000/svg"
 width="55.000000pt" height="71.000000pt" viewBox="0 0 55.000000 71.000000"
 preserveAspectRatio="xMidYMid meet">
<metadata>
Created by potrace 1.16, written by Peter Selinger 2001-2019
</metadata>
<g transform="translate(0.000000,71.000000) scale(0.100000,-0.100000)"
fill="#000000" stroke="none">
<path d="M334 695 l-6 -15 6 -25 6 -25 -14 -35 -15 -35 -25 -11 -25 -12 -31
13 -32 13 7 21 7 21 5 26 5 26 -17 16 -16 17 -95 0 -94 0 0 -93 0 -93 16 -23
17 -23 43 6 44 6 10 -20 11 -20 -9 -32 -9 -33 -44 3 -45 3 -12 -23 -11 -23 -3
-80 -3 -80 95 3 95 3 -3 -73 -4 -72 18 -13 18 -13 37 0 38 0 21 27 22 28 -4
64 -3 64 70 -6 70 -6 23 -7 22 -6 0 21 0 21 -14 37 -15 38 -16 59 -16 58 -30
-4 -29 -5 -7 25 -6 25 10 16 10 16 24 13 24 13 48 -6 49 -6 -6 38 -5 38 -6 67
-6 67 -50 10 -50 11 -45 0 -45 0 -5 -15z"/>
</g>
</svg>
