<?xml version="1.0" standalone="no"?>
<!DOCTYPE svg PUBLIC "-//W3C//DTD SVG 20010904//EN"
 "http://www.w3.org/TR/2001/REC-SVG-20010904/DTD/svg10.dtd">
<svg version="1.0" xmlns="http://www.w3.org/2000/svg"
 width="53.000000pt" height="69.000000pt" viewBox="0 0 53.000000 69.000000"
 preserveAspectRatio="xMidYMid meet">
<metadata>
Created by potrace 1.16, written by Peter Selinger 2001-2019
</metadata>
<g transform="translate(0.000000,69.000000) scale(0.100000,-0.100000)"
fill="#000000" stroke="none">
<path d="M335 680 l-6 -9 7 -25 6 -25 -12 -35 -12 -36 -21 -15 -21 -15 -23 0
-22 0 -26 12 -27 12 5 25 5 26 7 21 7 21 -17 17 -16 16 -85 0 -84 0 0 -84 0
-84 19 -23 19 -23 36 11 37 11 15 -24 16 -23 -7 -41 -7 -40 -16 -9 -15 -9 -30
11 -30 10 -11 -19 -11 -19 -6 -70 -5 -70 4 -8 4 -8 93 7 93 7 -6 -73 -5 -73
18 -14 19 -13 27 0 28 0 21 27 22 28 -5 64 -5 64 88 -6 88 -6 6 6 5 5 -14 37
-14 36 -16 58 -16 59 -26 -7 -26 -6 -8 13 -9 13 0 31 0 31 21 19 21 19 58 0
59 0 -4 25 -4 25 -6 67 -6 67 -50 10 -50 11 -34 0 -34 0 -6 -10z"/>
</g>
</svg>
