<?xml version="1.0" standalone="no"?>
<!DOCTYPE svg PUBLIC "-//W3C//DTD SVG 20010904//EN"
 "http://www.w3.org/TR/2001/REC-SVG-20010904/DTD/svg10.dtd">
<svg version="1.0" xmlns="http://www.w3.org/2000/svg"
 width="78.000000pt" height="66.000000pt" viewBox="0 0 78.000000 66.000000"
 preserveAspectRatio="xMidYMid meet">
<metadata>
Created by potrace 1.16, written by Peter Selinger 2001-2019
</metadata>
<g transform="translate(0.000000,66.000000) scale(0.100000,-0.100000)"
fill="#000000" stroke="none">
<path d="M478 650 l-16 -10 10 -28 11 -28 -7 -27 -7 -28 -20 -20 -20 -20 -45
3 -45 3 -17 28 -17 27 13 20 12 20 0 15 0 14 -19 11 -20 10 -79 0 -80 0 5 -79
6 -79 -7 -26 -6 -26 -39 6 -38 6 -21 -11 -21 -11 -6 -20 -7 -21 15 -23 15 -23
32 -13 31 -13 26 12 25 12 15 -13 15 -12 -5 -53 -6 -53 -15 -32 -16 -31 0 -4
0 -3 86 0 85 0 21 -11 20 -11 -6 -38 -6 -39 16 -15 15 -16 18 0 18 0 32 11 31
11 11 19 10 19 -11 21 -12 21 6 5 6 6 47 8 48 8 43 0 43 1 -15 27 -14 28 -11
43 -12 43 6 18 5 18 53 -5 53 -4 32 30 32 30 0 27 0 26 -15 29 -15 29 -33 9
-32 9 -26 -7 -26 -8 5 79 5 79 -24 9 -24 9 -50 6 -50 6 -17 -10z"/>
</g>
</svg>
