<?xml version="1.0" standalone="no"?>
<!DOCTYPE svg PUBLIC "-//W3C//DTD SVG 20010904//EN"
 "http://www.w3.org/TR/2001/REC-SVG-20010904/DTD/svg10.dtd">
<svg version="1.0" xmlns="http://www.w3.org/2000/svg"
 width="86.000000pt" height="66.000000pt" viewBox="0 0 86.000000 66.000000"
 preserveAspectRatio="xMidYMid meet">
<metadata>
Created by potrace 1.16, written by Peter Selinger 2001-2019
</metadata>
<g transform="translate(0.000000,66.000000) scale(0.100000,-0.100000)"
fill="#000000" stroke="none">
<path d="M511 652 l-13 -10 7 -23 8 -24 -1 -34 -2 -34 -21 -23 -21 -22 -16 -4
-17 -5 -33 9 -33 9 -15 35 -15 36 7 45 7 45 -69 -7 -69 -6 -20 -4 -20 -4 0
-76 0 -76 -15 -9 -15 -10 -20 6 -20 5 -41 6 -42 5 -12 -36 -12 -36 7 -38 6
-37 14 -19 14 -19 45 5 46 6 9 -12 9 -11 8 -65 8 -65 -1 -14 -1 -14 99 7 99 6
0 -35 0 -36 15 -29 15 -30 26 -6 26 -7 34 16 33 16 12 39 11 39 -11 22 -12 21
6 10 6 10 32 0 32 -1 53 -18 53 -18 5 9 6 9 14 86 14 87 9 9 10 10 15 -13 16
-12 24 6 25 6 15 16 16 15 0 34 0 34 -21 19 -20 20 -27 5 -27 5 -41 -7 -42 -8
4 36 3 36 4 47 5 48 -37 9 -36 10 -50 6 -50 6 -14 -9z"/>
</g>
</svg>
