<?xml version="1.0" standalone="no"?>
<!DOCTYPE svg PUBLIC "-//W3C//DTD SVG 20010904//EN"
 "http://www.w3.org/TR/2001/REC-SVG-20010904/DTD/svg10.dtd">
<svg version="1.0" xmlns="http://www.w3.org/2000/svg"
 width="56.000000pt" height="56.000000pt" viewBox="0 0 56.000000 56.000000"
 preserveAspectRatio="xMidYMid meet">
<metadata>
Created by potrace 1.16, written by Peter Selinger 2001-2019
</metadata>
<g transform="translate(0.000000,56.000000) scale(0.100000,-0.100000)"
fill="#000000" stroke="none">
<path d="M326 547 l-18 -13 12 -41 12 -40 -17 -27 -17 -26 -37 0 -37 0 -23 21
-22 21 7 54 6 54 -88 -6 -89 -7 -3 -2 -3 -3 -6 -92 -6 -93 42 7 42 6 24 -24
25 -25 0 -36 0 -35 -20 -20 -20 -20 -25 12 -24 11 -16 -13 -16 -13 3 -91 3
-91 85 -3 85 -3 24 6 24 6 -7 64 -6 64 21 11 21 12 18 -17 19 -17 10 -29 10
-29 -10 -5 -9 -6 0 -24 0 -24 20 -11 20 -11 99 3 99 3 12 95 12 95 -11 28 -11
29 -65 -7 -66 -7 -19 17 -20 18 0 12 0 12 25 23 25 23 40 -13 40 -13 20 18 20
18 0 92 0 92 -82 11 -83 12 -16 0 -15 0 -18 -13z"/>
</g>
</svg>
