<?xml version="1.0" standalone="no"?>
<!DOCTYPE svg PUBLIC "-//W3C//DTD SVG 20010904//EN"
 "http://www.w3.org/TR/2001/REC-SVG-20010904/DTD/svg10.dtd">
<svg version="1.0" xmlns="http://www.w3.org/2000/svg"
 width="68.000000pt" height="69.000000pt" viewBox="0 0 68.000000 69.000000"
 preserveAspectRatio="xMidYMid meet">
<metadata>
Created by potrace 1.16, written by Peter Selinger 2001-2019
</metadata>
<g transform="translate(0.000000,69.000000) scale(0.100000,-0.100000)"
fill="#000000" stroke="none">
<path d="M343 683 l-33 -4 0 -11 0 -12 12 -33 12 -33 -17 -17 -16 -17 -86 2
-86 2 6 -88 7 -87 3 -12 4 -13 -52 0 -52 -1 -16 -12 -16 -12 -7 -21 -7 -21 10
-26 10 -25 22 -4 21 -3 22 -75 22 -75 13 -30 14 -31 96 4 95 5 14 13 14 14 -3
47 -3 46 24 9 25 9 22 -6 23 -5 16 -24 15 -24 -12 -40 -12 -40 6 -16 6 -16 59
0 58 0 52 15 52 16 0 9 0 9 -10 26 -10 26 -10 65 -11 66 -14 15 -15 14 -30 -3
-31 -3 -9 15 -10 15 0 20 0 20 47 -3 48 -3 18 13 18 14 9 39 10 40 0 70 0 70
-77 23 -78 23 -15 8 -15 8 -3 25 -3 26 -37 6 -37 6 -20 -2 -20 -1 -32 -4z"/>
</g>
</svg>
