<?xml version="1.0" standalone="no"?>
<!DOCTYPE svg PUBLIC "-//W3C//DTD SVG 20010904//EN"
 "http://www.w3.org/TR/2001/REC-SVG-20010904/DTD/svg10.dtd">
<svg version="1.0" xmlns="http://www.w3.org/2000/svg"
 width="66.000000pt" height="67.000000pt" viewBox="0 0 66.000000 67.000000"
 preserveAspectRatio="xMidYMid meet">
<metadata>
Created by potrace 1.16, written by Peter Selinger 2001-2019
</metadata>
<g transform="translate(0.000000,67.000000) scale(0.100000,-0.100000)"
fill="#000000" stroke="none">
<path d="M342 663 l-34 -4 8 -17 7 -17 4 -31 5 -30 -18 -14 -17 -15 -84 2 -84
2 6 -62 6 -62 5 -40 5 -40 -47 4 -46 3 -23 -12 -23 -12 -5 -17 -4 -17 9 -23 8
-23 14 5 15 6 9 -12 8 -12 17 -63 17 -62 16 -38 16 -37 86 3 85 4 13 13 14 14
0 28 0 29 -10 10 -11 11 15 12 15 13 40 5 39 5 27 -27 27 -26 -7 -37 -7 -37
-1 -20 -2 -20 48 -3 48 -3 54 16 54 15 -9 25 -10 26 -10 65 -11 66 -14 15 -15
15 -29 -7 -30 -6 -10 20 -11 20 0 30 0 30 9 6 10 5 6 -10 6 -10 33 0 32 0 18
13 17 13 9 39 10 40 0 52 0 51 -32 20 -33 20 -50 13 -50 12 -18 15 -17 15 5
17 5 17 -37 7 -38 6 -10 -2 -10 -1 -33 -4z"/>
</g>
</svg>
