<?xml version="1.0" standalone="no"?>
<!DOCTYPE svg PUBLIC "-//W3C//DTD SVG 20010904//EN"
 "http://www.w3.org/TR/2001/REC-SVG-20010904/DTD/svg10.dtd">
<svg version="1.0" xmlns="http://www.w3.org/2000/svg"
 width="82.000000pt" height="66.000000pt" viewBox="0 0 82.000000 66.000000"
 preserveAspectRatio="xMidYMid meet">
<metadata>
Created by potrace 1.16, written by Peter Selinger 2001-2019
</metadata>
<g transform="translate(0.000000,66.000000) scale(0.100000,-0.100000)"
fill="#000000" stroke="none">
<path d="M355 646 l-18 -13 6 -53 6 -53 -104 6 -105 5 0 -82 0 -81 -13 -25
-13 -25 -54 0 -55 0 -3 -33 -3 -34 17 -19 17 -19 40 -11 39 -10 29 10 29 10 9
-18 10 -17 -10 -45 -10 -44 -20 -33 -19 -33 0 -12 0 -13 108 4 107 4 14 11 13
11 -6 52 -6 53 16 15 15 16 10 0 9 0 21 -21 21 -21 -7 -16 -7 -17 -5 -32 -6
-33 27 -10 27 -10 101 0 100 0 -7 22 -6 23 -9 35 -10 35 0 47 0 46 60 -5 59
-6 26 17 25 16 0 38 0 38 -14 19 -13 18 -55 -6 -56 -7 -6 16 -6 16 0 82 0 83
-86 6 -86 6 -14 12 -14 12 11 13 11 13 -6 19 -6 19 -26 11 -25 12 -28 0 -27 0
-19 -14z"/>
</g>
</svg>
