<?xml version="1.0" standalone="no"?>
<!DOCTYPE svg PUBLIC "-//W3C//DTD SVG 20010904//EN"
 "http://www.w3.org/TR/2001/REC-SVG-20010904/DTD/svg10.dtd">
<svg version="1.0" xmlns="http://www.w3.org/2000/svg"
 width="80.000000pt" height="64.000000pt" viewBox="0 0 80.000000 64.000000"
 preserveAspectRatio="xMidYMid meet">
<metadata>
Created by potrace 1.16, written by Peter Selinger 2001-2019
</metadata>
<g transform="translate(0.000000,64.000000) scale(0.100000,-0.100000)"
fill="#000000" stroke="none">
<path d="M355 626 l-18 -13 6 -34 5 -34 4 -15 3 -15 -108 0 -107 0 0 -80 0
-80 -13 -25 -13 -25 -54 -1 -55 -1 -3 -22 -4 -23 18 -19 17 -19 34 -9 34 -10
31 11 31 11 14 -19 14 -19 -7 -40 -6 -40 -21 -45 -21 -45 -3 -5 -3 -5 97 3 98
3 13 11 13 11 -6 52 -7 52 17 16 16 17 20 0 19 0 21 -21 21 -21 -6 -27 -6 -26
-6 -22 -6 -23 27 -10 26 -10 90 0 90 0 -12 22 -11 21 -6 84 -5 84 61 -7 62 -7
25 17 25 16 0 26 0 25 -10 20 -11 19 -24 0 -24 0 -25 -10 -25 -9 -16 15 -15
15 0 88 0 88 -87 6 -87 6 -15 16 -16 15 12 19 11 18 -6 10 -7 10 -22 12 -22
11 -18 0 -19 0 -19 -14z"/>
</g>
</svg>
