<?xml version="1.0" standalone="no"?>
<!DOCTYPE svg PUBLIC "-//W3C//DTD SVG 20010904//EN"
 "http://www.w3.org/TR/2001/REC-SVG-20010904/DTD/svg10.dtd">
<svg version="1.0" xmlns="http://www.w3.org/2000/svg"
 width="66.000000pt" height="76.000000pt" viewBox="0 0 66.000000 76.000000"
 preserveAspectRatio="xMidYMid meet">
<metadata>
Created by potrace 1.16, written by Peter Selinger 2001-2019
</metadata>
<g transform="translate(0.000000,76.000000) scale(0.100000,-0.100000)"
fill="#000000" stroke="none">
<path d="M230 740 l-19 -19 -7 -27 -7 -27 11 -17 11 -18 -6 -6 -7 -6 -65 5
-66 6 -38 5 -38 4 3 -87 3 -88 51 3 52 3 21 -27 21 -27 0 -19 0 -19 -10 -19
-10 -19 -28 5 -28 6 -12 -14 -12 -14 -14 -70 -15 -69 -11 -29 -11 -29 96 7 95
7 0 -40 0 -40 23 -27 23 -26 27 0 27 -1 16 14 16 13 -6 37 -6 37 23 6 22 6 50
1 50 0 40 7 40 7 4 15 4 15 15 65 15 65 9 12 10 12 19 -12 19 -11 11 11 12 12
1 57 1 58 -25 12 -25 12 -44 -8 -44 -8 5 97 5 98 -46 20 -46 21 -35 7 -35 7
-23 15 -23 14 6 20 6 19 -40 0 -41 0 -20 -20z"/>
</g>
</svg>
