<?xml version="1.0" standalone="no"?>
<!DOCTYPE svg PUBLIC "-//W3C//DTD SVG 20010904//EN"
 "http://www.w3.org/TR/2001/REC-SVG-20010904/DTD/svg10.dtd">
<svg version="1.0" xmlns="http://www.w3.org/2000/svg"
 width="80.000000pt" height="82.000000pt" viewBox="0 0 80.000000 82.000000"
 preserveAspectRatio="xMidYMid meet">
<metadata>
Created by potrace 1.16, written by Peter Selinger 2001-2019
</metadata>
<g transform="translate(0.000000,82.000000) scale(0.100000,-0.100000)"
fill="#000000" stroke="none">
<path d="M350 811 l-25 -7 1 -20 1 -19 7 -15 6 -16 -14 -19 -14 -20 -86 -4
-86 -3 0 -78 0 -78 -6 -16 -6 -16 -19 0 -18 0 -26 12 -26 12 -16 -16 -16 -16
-1 -56 0 -56 22 -22 22 -22 40 10 40 11 11 -13 11 -13 -5 -58 -5 -58 -7 -27
-7 -28 43 5 44 4 61 5 61 5 -5 -68 -4 -68 11 -21 12 -22 35 0 35 0 19 10 18
10 11 31 11 32 0 50 0 49 98 -7 97 -7 0 98 0 98 43 -3 44 -3 19 18 19 17 0 54
0 54 -11 20 -10 20 -42 -3 -41 -3 -13 25 -13 25 0 53 0 52 -24 9 -23 9 -57 11
-56 10 -13 13 -13 12 4 22 4 22 -38 11 -39 11 -20 -1 -20 -1 -25 -7z"/>
</g>
</svg>
