<?xml version="1.0" standalone="no"?>
<!DOCTYPE svg PUBLIC "-//W3C//DTD SVG 20010904//EN"
 "http://www.w3.org/TR/2001/REC-SVG-20010904/DTD/svg10.dtd">
<svg version="1.0" xmlns="http://www.w3.org/2000/svg"
 width="78.000000pt" height="80.000000pt" viewBox="0 0 78.000000 80.000000"
 preserveAspectRatio="xMidYMid meet">
<metadata>
Created by potrace 1.16, written by Peter Selinger 2001-2019
</metadata>
<g transform="translate(0.000000,80.000000) scale(0.100000,-0.100000)"
fill="#000000" stroke="none">
<path d="M350 791 l-25 -8 4 -14 4 -14 4 -20 4 -20 -15 -20 -14 -20 -86 -4
-86 -3 0 -78 0 -78 -6 -16 -6 -16 -30 0 -29 0 -19 10 -18 10 -12 -15 -12 -14
0 -46 -1 -46 20 -21 21 -20 36 12 37 12 15 -13 15 -13 -3 -70 -4 -71 -8 -18
-8 -17 13 4 14 4 93 6 92 6 -6 -68 -7 -69 12 -21 12 -22 25 0 25 0 19 10 18
10 12 35 12 35 -4 43 -3 42 100 -2 100 -3 0 98 0 97 43 -3 44 -4 19 18 19 17
0 46 0 46 -10 15 -9 15 -43 0 -42 0 -13 25 -13 25 0 53 0 52 -24 9 -23 9 -57
11 -57 10 -15 16 -15 15 6 19 6 20 -38 10 -38 11 -10 -1 -10 -1 -25 -7z"/>
</g>
</svg>
