<?xml version="1.0" standalone="no"?>
<!DOCTYPE svg PUBLIC "-//W3C//DTD SVG 20010904//EN"
 "http://www.w3.org/TR/2001/REC-SVG-20010904/DTD/svg10.dtd">
<svg version="1.0" xmlns="http://www.w3.org/2000/svg"
 width="81.000000pt" height="52.000000pt" viewBox="0 0 81.000000 52.000000"
 preserveAspectRatio="xMidYMid meet">
<metadata>
Created by potrace 1.16, written by Peter Selinger 2001-2019
</metadata>
<g transform="translate(0.000000,52.000000) scale(0.100000,-0.100000)"
fill="#000000" stroke="none">
<path d="M224 513 l-70 -4 4 -29 4 -30 -7 -46 -6 -45 -21 -21 -20 -20 -46 4
-46 3 -10 -33 -9 -32 18 -20 17 -19 35 -12 34 -11 29 12 30 12 15 -6 15 -5 0
-41 0 -41 -11 -47 -12 -47 -8 -9 -9 -10 0 -8 0 -8 89 0 89 0 16 6 16 6 0 23 0
24 -10 26 -10 26 10 20 11 19 38 0 39 0 12 -15 13 -16 -12 -25 -11 -25 10 -19
10 -19 52 -6 53 -6 40 -2 40 -2 -3 90 -4 90 14 18 14 18 27 -10 28 -11 23 0
22 0 18 13 19 14 0 28 0 28 -19 15 -19 14 -52 -5 -53 -6 -7 12 -8 12 3 81 3
81 -71 -18 -71 -18 -9 -6 -9 -5 6 -34 5 -34 -30 -16 -31 -16 -40 0 -40 0 -16
17 -17 17 6 68 7 68 -23 -2 -23 -2 -71 -3z"/>
</g>
</svg>
