<?xml version="1.0" standalone="no"?>
<!DOCTYPE svg PUBLIC "-//W3C//DTD SVG 20010904//EN"
 "http://www.w3.org/TR/2001/REC-SVG-20010904/DTD/svg10.dtd">
<svg version="1.0" xmlns="http://www.w3.org/2000/svg"
 width="54.000000pt" height="67.000000pt" viewBox="0 0 54.000000 67.000000"
 preserveAspectRatio="xMidYMid meet">
<metadata>
Created by potrace 1.16, written by Peter Selinger 2001-2019
</metadata>
<g transform="translate(0.000000,67.000000) scale(0.100000,-0.100000)"
fill="#000000" stroke="none">
<path d="M57 663 l-58 -4 3 -112 3 -112 65 3 66 3 19 -21 19 -21 -17 -16 -16
-17 -38 0 -38 -1 -12 -40 -12 -40 -21 -68 -20 -68 5 -10 6 -9 83 6 83 7 -4
-50 -5 -51 21 -21 21 -21 46 0 45 0 20 10 19 11 0 34 0 34 18 5 17 5 65 11 65
10 7 0 7 0 5 18 6 17 -15 79 -15 78 -6 10 -6 10 -44 -7 -43 -6 -11 21 -11 21
-1 41 0 40 13 9 14 8 41 -6 42 -5 19 19 20 20 7 57 7 56 -6 29 -6 29 -31 6
-30 6 -75 0 -75 0 7 -64 6 -64 -22 -21 -23 -21 -11 0 -11 0 -23 16 -23 17 4
68 5 69 -56 -2 -56 -2 -58 -3z"/>
</g>
</svg>
