<?xml version="1.0" standalone="no"?>
<!DOCTYPE svg PUBLIC "-//W3C//DTD SVG 20010904//EN"
 "http://www.w3.org/TR/2001/REC-SVG-20010904/DTD/svg10.dtd">
<svg version="1.0" xmlns="http://www.w3.org/2000/svg"
 width="69.000000pt" height="52.000000pt" viewBox="0 0 69.000000 52.000000"
 preserveAspectRatio="xMidYMid meet">
<metadata>
Created by potrace 1.16, written by Peter Selinger 2001-2019
</metadata>
<g transform="translate(0.000000,52.000000) scale(0.100000,-0.100000)"
fill="#000000" stroke="none">
<path d="M45 470 l-7 -50 7 -40 7 -40 15 -15 14 -15 19 10 19 10 24 0 25 0 12
-30 12 -30 -13 -16 -13 -15 -30 -16 -30 -15 -53 5 -53 6 0 -37 1 -37 18 -54
19 -54 -4 -12 -5 -12 101 -7 100 -7 10 6 9 6 -9 25 -10 25 0 29 0 29 16 15 15
16 32 0 32 0 22 -6 21 -6 -5 -33 -5 -34 28 -6 29 -7 53 -14 53 -15 9 6 9 5
-10 33 -9 32 0 51 0 52 15 6 15 5 26 -9 25 -10 25 0 24 0 20 20 20 20 0 43 0
42 -8 12 -8 12 -35 -8 -35 -8 -21 8 -21 8 -8 23 -7 23 0 58 1 58 -22 -7 -21
-7 -65 -16 -65 -16 2 -25 3 -25 1 -24 2 -23 -14 -9 -14 -9 -43 0 -43 0 -25 16
-25 17 7 57 6 58 -20 11 -21 11 -69 0 -70 0 -7 -50z"/>
</g>
</svg>
