<?xml version="1.0" standalone="no"?>
<!DOCTYPE svg PUBLIC "-//W3C//DTD SVG 20010904//EN"
 "http://www.w3.org/TR/2001/REC-SVG-20010904/DTD/svg10.dtd">
<svg version="1.0" xmlns="http://www.w3.org/2000/svg"
 width="81.000000pt" height="65.000000pt" viewBox="0 0 81.000000 65.000000"
 preserveAspectRatio="xMidYMid meet">
<metadata>
Created by potrace 1.16, written by Peter Selinger 2001-2019
</metadata>
<g transform="translate(0.000000,65.000000) scale(0.100000,-0.100000)"
fill="#000000" stroke="none">
<path d="M145 567 l6 -83 -6 -26 -7 -27 -63 6 -64 6 -7 -27 -6 -26 12 -31 13
-31 31 5 30 4 12 -12 12 -11 6 -45 7 -44 11 -53 11 -53 58 7 58 6 25 -6 26 -6
-7 -47 -6 -46 18 -13 19 -14 52 0 53 0 16 17 17 16 -4 66 -3 66 30 -2 30 -2
58 -17 58 -17 10 10 10 10 -11 44 -11 45 3 44 3 45 66 -3 66 -4 16 17 17 16 0
42 0 42 -8 12 -7 11 -54 -1 -55 -2 -13 25 -13 25 0 72 0 72 -87 -6 -88 -6 -18
-9 -19 -10 7 -37 6 -37 -20 -18 -19 -17 -29 3 -28 3 3 32 3 32 -11 21 -12 22
-33 14 -34 14 -72 0 -71 0 7 -83z"/>
</g>
</svg>
