<?xml version="1.0" standalone="no"?>
<!DOCTYPE svg PUBLIC "-//W3C//DTD SVG 20010904//EN"
 "http://www.w3.org/TR/2001/REC-SVG-20010904/DTD/svg10.dtd">
<svg version="1.0" xmlns="http://www.w3.org/2000/svg"
 width="79.000000pt" height="63.000000pt" viewBox="0 0 79.000000 63.000000"
 preserveAspectRatio="xMidYMid meet">
<metadata>
Created by potrace 1.16, written by Peter Selinger 2001-2019
</metadata>
<g transform="translate(0.000000,63.000000) scale(0.100000,-0.100000)"
fill="#000000" stroke="none">
<path d="M145 555 l7 -75 -6 -36 -7 -35 -64 6 -63 7 -6 -20 -7 -20 12 -26 13
-27 28 6 28 7 14 -14 14 -14 6 -45 7 -44 11 -51 11 -51 67 5 67 4 20 -10 20
-11 -11 -42 -11 -41 20 -14 19 -14 42 0 43 0 16 17 17 17 -5 45 -6 46 -6 17
-7 17 25 6 25 7 64 -17 63 -17 15 -1 15 -2 -5 25 -5 25 0 70 0 70 66 -3 66 -4
17 17 16 16 0 32 0 32 -8 10 -7 10 -55 0 -54 0 -13 25 -13 25 0 74 0 73 -22
-6 -23 -6 -56 0 -55 0 -19 -14 -19 -14 12 -15 12 -15 -9 -24 -9 -24 -15 -13
-16 -12 -38 3 -38 3 3 33 2 33 -11 20 -11 21 -33 14 -34 14 -62 0 -61 0 7 -75z"/>
</g>
</svg>
