<?xml version="1.0" standalone="no"?>
<!DOCTYPE svg PUBLIC "-//W3C//DTD SVG 20010904//EN"
 "http://www.w3.org/TR/2001/REC-SVG-20010904/DTD/svg10.dtd">
<svg version="1.0" xmlns="http://www.w3.org/2000/svg"
 width="81.000000pt" height="69.000000pt" viewBox="0 0 81.000000 69.000000"
 preserveAspectRatio="xMidYMid meet">
<metadata>
Created by potrace 1.16, written by Peter Selinger 2001-2019
</metadata>
<g transform="translate(0.000000,69.000000) scale(0.100000,-0.100000)"
fill="#000000" stroke="none">
<path d="M130 600 l0 -90 -54 6 -54 7 -11 -21 -11 -21 0 -36 0 -36 11 -21 11
-20 48 6 48 6 6 -16 6 -16 0 -95 0 -95 65 7 65 7 35 -6 35 -7 -6 -54 -7 -53 7
-26 6 -26 50 0 50 0 20 20 19 19 7 26 6 25 -4 30 -4 29 14 6 14 5 69 0 69 0
10 25 9 24 7 53 7 53 9 18 9 18 43 -6 42 -7 14 17 15 18 0 59 0 60 -20 15 -20
14 -27 -5 -28 -6 -29 -6 -30 -6 -7 37 -7 37 7 55 6 55 -22 -5 -23 -6 -85 -24
-85 -24 -5 -34 -5 -34 -30 -3 -30 -2 -14 9 -13 9 11 34 12 35 -7 17 -7 18 -24
9 -24 9 -85 0 -84 0 0 -90z"/>
</g>
</svg>
