<?xml version="1.0" standalone="no"?>
<!DOCTYPE svg PUBLIC "-//W3C//DTD SVG 20010904//EN"
 "http://www.w3.org/TR/2001/REC-SVG-20010904/DTD/svg10.dtd">
<svg version="1.0" xmlns="http://www.w3.org/2000/svg"
 width="55.000000pt" height="56.000000pt" viewBox="0 0 55.000000 56.000000"
 preserveAspectRatio="xMidYMid meet">
<metadata>
Created by potrace 1.16, written by Peter Selinger 2001-2019
</metadata>
<g transform="translate(0.000000,56.000000) scale(0.100000,-0.100000)"
fill="#000000" stroke="none">
<path d="M20 485 l0 -74 12 -26 11 -25 24 -6 23 -6 21 5 20 5 9 -23 9 -23 -6
-23 -6 -24 -10 -13 -11 -14 -58 7 -58 7 0 -64 0 -63 9 -39 9 -38 9 -8 8 -8 94
-7 94 -7 -6 30 -6 30 -6 25 -7 25 21 21 21 21 30 0 29 0 11 -21 11 -20 -12
-50 -13 -49 20 -15 19 -14 27 -1 26 0 78 15 77 15 5 5 6 5 -22 63 -21 62 -7
37 -6 37 -12 10 -11 9 -35 4 -35 3 -3 23 -4 23 12 14 12 15 53 -6 53 -7 11 22
12 21 -3 93 -3 92 -101 3 -101 3 -13 -16 -13 -15 10 -23 10 -22 -15 -22 -14
-23 -52 0 -51 0 4 47 3 47 -18 13 -18 13 -78 0 -78 0 0 -75z"/>
</g>
</svg>
