<?xml version="1.0" standalone="no"?>
<!DOCTYPE svg PUBLIC "-//W3C//DTD SVG 20010904//EN"
 "http://www.w3.org/TR/2001/REC-SVG-20010904/DTD/svg10.dtd">
<svg version="1.0" xmlns="http://www.w3.org/2000/svg"
 width="69.000000pt" height="56.000000pt" viewBox="0 0 69.000000 56.000000"
 preserveAspectRatio="xMidYMid meet">
<metadata>
Created by potrace 1.16, written by Peter Selinger 2001-2019
</metadata>
<g transform="translate(0.000000,56.000000) scale(0.100000,-0.100000)"
fill="#000000" stroke="none">
<path d="M478 555 l-7 -8 10 -19 11 -20 -6 -34 -7 -33 -30 -31 -31 -30 -19 0
-20 0 -20 11 -20 10 3 47 3 46 -25 13 -25 13 -76 0 -75 0 7 -57 7 -58 1 -52 1
-51 -74 5 -74 6 -6 -20 -7 -20 10 -26 10 -25 21 -7 20 -6 36 11 36 12 11 -11
12 -12 -2 -98 -2 -98 67 -7 67 -6 37 0 37 0 -6 49 -5 49 21 21 22 22 37 -3 36
-3 6 -25 6 -25 79 -28 80 -27 9 -3 9 -2 19 60 19 60 -3 30 -3 30 -20 -4 -20
-4 -37 0 -38 -1 -27 21 -28 20 0 34 0 33 27 15 26 15 26 -13 25 -14 16 13 15
12 0 94 0 93 -31 17 -31 16 -52 5 -51 5 -7 -7z"/>
</g>
</svg>
