<?xml version="1.0" standalone="no"?>
<!DOCTYPE svg PUBLIC "-//W3C//DTD SVG 20010904//EN"
 "http://www.w3.org/TR/2001/REC-SVG-20010904/DTD/svg10.dtd">
<svg version="1.0" xmlns="http://www.w3.org/2000/svg"
 width="71.000000pt" height="58.000000pt" viewBox="0 0 71.000000 58.000000"
 preserveAspectRatio="xMidYMid meet">
<metadata>
Created by potrace 1.16, written by Peter Selinger 2001-2019
</metadata>
<g transform="translate(0.000000,58.000000) scale(0.100000,-0.100000)"
fill="#000000" stroke="none">
<path d="M475 571 l-7 -12 12 -29 12 -28 -17 -36 -17 -35 -25 -16 -25 -17 -22
10 -21 9 0 49 0 48 -25 13 -25 13 -89 0 -88 0 5 -22 6 -23 7 -85 6 -86 -75 4
-75 4 -7 -21 -6 -21 6 -31 7 -30 25 -12 24 -11 40 11 39 10 8 -11 7 -11 -1
-66 -1 -67 -7 -33 -6 -34 121 -3 121 -3 -7 50 -7 49 22 22 21 21 27 -3 26 -3
6 -25 6 -25 79 -28 80 -28 19 -2 20 -2 18 60 19 60 -3 40 -3 40 -30 -3 -30 -3
-28 -1 -28 -1 -27 20 -27 20 -3 21 -3 21 26 17 26 17 12 -12 11 -11 21 0 21 0
12 12 12 12 0 103 0 102 -32 17 -32 17 -62 5 -61 5 -8 -12z"/>
</g>
</svg>
