<?xml version="1.0" standalone="no"?>
<!DOCTYPE svg PUBLIC "-//W3C//DTD SVG 20010904//EN"
 "http://www.w3.org/TR/2001/REC-SVG-20010904/DTD/svg10.dtd">
<svg version="1.0" xmlns="http://www.w3.org/2000/svg"
 width="69.000000pt" height="67.000000pt" viewBox="0 0 69.000000 67.000000"
 preserveAspectRatio="xMidYMid meet">
<metadata>
Created by potrace 1.16, written by Peter Selinger 2001-2019
</metadata>
<g transform="translate(0.000000,67.000000) scale(0.100000,-0.100000)"
fill="#000000" stroke="none">
<path d="M318 664 l-8 -7 6 -67 7 -66 -17 -17 -17 -17 -25 0 -25 0 -24 16 -25
16 -9 35 -10 35 6 31 6 30 -69 -6 -69 -7 -24 0 -23 0 4 -69 4 -70 19 -21 19
-21 41 3 40 3 3 -58 3 -59 -19 6 -19 7 -15 -23 -15 -23 -12 -50 -12 -50 -19
-42 -19 -43 72 0 73 0 23 -16 23 -17 -5 -48 -6 -49 57 0 58 0 17 21 18 21 -10
31 -11 31 10 10 11 11 93 3 93 4 21 46 21 47 12 43 12 42 13 11 13 10 19 -10
19 -10 16 17 15 17 7 26 6 26 -17 18 -17 17 -76 -4 -76 -3 4 107 3 107 -38 10
-39 10 -55 7 -55 6 -7 -8z"/>
</g>
</svg>
