<?xml version="1.0" standalone="no"?>
<!DOCTYPE svg PUBLIC "-//W3C//DTD SVG 20010904//EN"
 "http://www.w3.org/TR/2001/REC-SVG-20010904/DTD/svg10.dtd">
<svg version="1.0" xmlns="http://www.w3.org/2000/svg"
 width="71.000000pt" height="69.000000pt" viewBox="0 0 71.000000 69.000000"
 preserveAspectRatio="xMidYMid meet">
<metadata>
Created by potrace 1.16, written by Peter Selinger 2001-2019
</metadata>
<g transform="translate(0.000000,69.000000) scale(0.100000,-0.100000)"
fill="#000000" stroke="none">
<path d="M316 681 l-8 -12 7 -63 7 -63 -17 -16 -16 -17 -18 0 -18 0 -27 25
-26 24 -1 23 -1 23 2 33 2 32 -34 0 -33 0 -68 -7 -69 -6 4 -78 3 -77 19 -21
19 -21 44 0 43 0 0 -39 0 -40 -21 -3 -20 -3 -14 -25 -13 -25 -26 -80 -27 -80
-5 -18 -6 -17 74 0 74 0 23 -16 23 -16 -7 -49 -7 -49 69 0 69 0 17 21 18 21
-6 38 -6 37 23 7 23 6 76 0 76 0 13 28 13 27 22 65 22 65 30 -2 30 -3 17 19
17 19 5 34 6 35 -17 17 -18 17 -76 -2 -76 -2 3 106 4 106 -39 10 -38 11 -66 6
-66 7 -7 -12z"/>
</g>
</svg>
