<?xml version="1.0" standalone="no"?>
<!DOCTYPE svg PUBLIC "-//W3C//DTD SVG 20010904//EN"
 "http://www.w3.org/TR/2001/REC-SVG-20010904/DTD/svg10.dtd">
<svg version="1.0" xmlns="http://www.w3.org/2000/svg"
 width="82.000000pt" height="71.000000pt" viewBox="0 0 82.000000 71.000000"
 preserveAspectRatio="xMidYMid meet">
<metadata>
Created by potrace 1.16, written by Peter Selinger 2001-2019
</metadata>
<g transform="translate(0.000000,71.000000) scale(0.100000,-0.100000)"
fill="#000000" stroke="none">
<path d="M495 700 l-6 -10 11 -40 11 -41 -6 -20 -7 -20 -24 -15 -24 -16 -25 6
-25 6 -15 30 -15 29 11 25 12 25 -6 15 -6 16 -106 0 -105 0 0 -77 0 -78 -6
-23 -6 -22 -48 6 -47 6 -31 -16 -32 -17 0 -47 0 -48 14 -19 13 -18 36 6 37 6
16 -57 16 -57 16 -43 17 -43 25 6 25 6 61 6 62 5 -5 -66 -6 -66 18 -20 18 -20
57 0 57 0 21 23 22 23 0 41 0 41 15 5 14 6 74 7 73 6 28 92 28 91 11 23 10 22
24 0 24 0 -3 68 -3 67 -41 -3 -41 -2 -19 21 -18 20 -4 70 -4 69 -37 10 -36 10
-57 0 -57 0 -6 -10z"/>
</g>
</svg>
