<?xml version="1.0" standalone="no"?>
<!DOCTYPE svg PUBLIC "-//W3C//DTD SVG 20010904//EN"
 "http://www.w3.org/TR/2001/REC-SVG-20010904/DTD/svg10.dtd">
<svg version="1.0" xmlns="http://www.w3.org/2000/svg"
 width="80.000000pt" height="69.000000pt" viewBox="0 0 80.000000 69.000000"
 preserveAspectRatio="xMidYMid meet">
<metadata>
Created by potrace 1.16, written by Peter Selinger 2001-2019
</metadata>
<g transform="translate(0.000000,69.000000) scale(0.100000,-0.100000)"
fill="#000000" stroke="none">
<path d="M498 685 l-5 -5 10 -49 11 -49 -17 -26 -17 -26 -25 -6 -25 -6 -25 6
-26 7 -16 34 -16 34 11 26 12 26 -5 10 -6 9 -95 0 -94 0 0 -79 0 -80 -9 -24
-10 -25 -41 10 -42 11 -34 -16 -34 -17 0 -38 0 -38 14 -20 14 -19 31 12 31 11
9 -16 9 -17 12 -45 11 -45 17 -43 17 -42 15 7 15 6 73 5 73 4 -7 -66 -7 -66
18 -20 18 -20 47 0 47 0 23 25 23 24 -6 36 -6 35 17 9 17 9 68 7 69 8 18 30
19 30 17 66 18 66 14 23 15 23 19 -7 19 -6 -3 59 -3 58 -40 -3 -41 -3 -19 21
-19 21 -4 70 -4 69 -37 10 -36 10 -46 0 -46 0 -5 -5z"/>
</g>
</svg>
