<?xml version="1.0" standalone="no"?>
<!DOCTYPE svg PUBLIC "-//W3C//DTD SVG 20010904//EN"
 "http://www.w3.org/TR/2001/REC-SVG-20010904/DTD/svg10.dtd">
<svg version="1.0" xmlns="http://www.w3.org/2000/svg"
 width="71.000000pt" height="54.000000pt" viewBox="0 0 71.000000 54.000000"
 preserveAspectRatio="xMidYMid meet">
<metadata>
Created by potrace 1.16, written by Peter Selinger 2001-2019
</metadata>
<g transform="translate(0.000000,54.000000) scale(0.100000,-0.100000)"
fill="#000000" stroke="none">
<path d="M76 533 l-49 -4 7 -76 7 -76 15 -28 14 -29 24 -6 24 -6 33 4 34 3 3
-28 3 -27 -37 -16 -38 -16 -58 6 -58 7 0 -53 0 -53 11 -40 10 -40 11 -29 11
-28 97 4 98 4 16 14 17 14 -3 45 -2 46 37 3 37 3 0 -26 0 -25 23 -10 22 -9 67
-20 67 -21 21 0 20 0 0 13 -1 12 -19 55 -19 55 -1 25 0 25 57 -3 58 -3 35 23
35 24 3 18 4 18 -13 30 -12 30 -54 -5 -53 -6 -10 40 -11 40 7 58 6 58 -68 6
-69 7 -36 0 -35 0 -19 -14 -19 -14 12 -24 13 -24 -10 -26 -10 -27 -20 -10 -20
-11 -15 0 -15 0 -16 16 -16 16 7 59 7 59 -59 -2 -59 -2 -49 -3z"/>
</g>
</svg>
