<?xml version="1.0" standalone="no"?>
<!DOCTYPE svg PUBLIC "-//W3C//DTD SVG 20010904//EN"
 "http://www.w3.org/TR/2001/REC-SVG-20010904/DTD/svg10.dtd">
<svg version="1.0" xmlns="http://www.w3.org/2000/svg"
 width="83.000000pt" height="56.000000pt" viewBox="0 0 83.000000 56.000000"
 preserveAspectRatio="xMidYMid meet">
<metadata>
Created by potrace 1.16, written by Peter Selinger 2001-2019
</metadata>
<g transform="translate(0.000000,56.000000) scale(0.100000,-0.100000)"
fill="#000000" stroke="none">
<path d="M493 553 l-13 -5 6 -68 7 -67 -22 -22 -21 -21 -23 0 -24 0 -16 18
-17 18 7 51 6 51 -19 10 -19 9 -49 7 -48 6 -39 -6 -39 -7 0 -79 0 -80 -45 7
-46 6 -29 -6 -28 -6 -11 -31 -11 -31 0 -29 0 -29 27 -25 27 -25 56 2 55 3 0
-96 0 -96 29 -6 28 -6 67 1 66 1 25 7 25 7 0 56 0 57 11 11 12 12 28 -4 29 -3
3 -42 3 -43 42 -11 42 -11 63 -19 62 -19 3 0 2 0 2 99 1 99 11 20 11 20 30
-11 31 -12 17 11 17 11 3 33 3 33 -6 24 -6 24 -43 -6 -44 -7 -18 27 -18 27 -1
71 -1 72 -65 12 -64 12 -30 0 -30 -1 -12 -5z"/>
</g>
</svg>
