<?xml version="1.0" standalone="no"?>
<!DOCTYPE svg PUBLIC "-//W3C//DTD SVG 20010904//EN"
 "http://www.w3.org/TR/2001/REC-SVG-20010904/DTD/svg10.dtd">
<svg version="1.0" xmlns="http://www.w3.org/2000/svg"
 width="67.000000pt" height="67.000000pt" viewBox="0 0 67.000000 67.000000"
 preserveAspectRatio="xMidYMid meet">
<metadata>
Created by potrace 1.16, written by Peter Selinger 2001-2019
</metadata>
<g transform="translate(0.000000,67.000000) scale(0.100000,-0.100000)"
fill="#000000" stroke="none">
<path d="M353 659 l-23 -8 10 -26 10 -26 0 -24 0 -25 -25 -16 -25 -17 -49 5
-49 5 -18 17 -17 17 12 12 11 11 0 28 0 27 -19 11 -20 10 -65 0 -65 0 -5 -9
-6 -9 -5 -83 -6 -84 10 -14 9 -15 42 13 41 12 15 -12 14 -11 0 -30 0 -29 -10
-20 -11 -19 -19 10 -19 10 -15 -6 -15 -6 -5 -26 -5 -27 -7 -55 -6 -55 -9 -22
-9 -23 86 0 85 0 21 -11 20 -11 -6 -42 -7 -41 15 -20 14 -20 40 0 40 0 22 20
22 20 -4 65 -3 65 29 3 29 4 46 -12 46 -11 16 -5 16 -5 28 88 28 88 10 13 10
12 26 -2 26 -3 9 36 9 36 -14 29 -15 29 -47 -3 -48 -4 -14 12 -15 12 0 87 0
86 -73 2 -72 1 -22 -9z"/>
</g>
</svg>
