<?xml version="1.0" standalone="no"?>
<!DOCTYPE svg PUBLIC "-//W3C//DTD SVG 20010904//EN"
 "http://www.w3.org/TR/2001/REC-SVG-20010904/DTD/svg10.dtd">
<svg version="1.0" xmlns="http://www.w3.org/2000/svg"
 width="69.000000pt" height="69.000000pt" viewBox="0 0 69.000000 69.000000"
 preserveAspectRatio="xMidYMid meet">
<metadata>
Created by potrace 1.16, written by Peter Selinger 2001-2019
</metadata>
<g transform="translate(0.000000,69.000000) scale(0.100000,-0.100000)"
fill="#000000" stroke="none">
<path d="M351 679 l-23 -9 6 -23 6 -22 6 -27 6 -26 -26 -17 -26 -18 -41 6 -41
5 -6 6 -6 6 3 50 2 49 -20 10 -20 11 -75 0 -75 0 -5 -8 -5 -9 -7 -80 -7 -81 7
-27 7 -27 37 5 37 5 13 3 14 4 10 -16 11 -16 -7 -26 -6 -26 -28 5 -27 5 -13
-9 -13 -8 -14 -90 -14 -89 -7 -23 -6 -22 86 0 87 0 19 -10 20 -10 -6 -43 -6
-42 15 -20 15 -20 50 0 50 0 22 20 22 20 -4 65 -3 65 21 3 22 3 60 -15 60 -16
10 0 10 0 28 88 27 87 9 11 8 11 25 -5 25 -4 11 28 11 29 -5 38 -5 38 -13 15
-13 16 -44 -7 -43 -6 -15 12 -14 11 0 87 0 86 -83 2 -82 1 -24 -9z"/>
</g>
</svg>
