<?xml version="1.0" standalone="no"?>
<!DOCTYPE svg PUBLIC "-//W3C//DTD SVG 20010904//EN"
 "http://www.w3.org/TR/2001/REC-SVG-20010904/DTD/svg10.dtd">
<svg version="1.0" xmlns="http://www.w3.org/2000/svg"
 width="65.000000pt" height="53.000000pt" viewBox="0 0 65.000000 53.000000"
 preserveAspectRatio="xMidYMid meet">
<metadata>
Created by potrace 1.16, written by Peter Selinger 2001-2019
</metadata>
<g transform="translate(0.000000,53.000000) scale(0.100000,-0.100000)"
fill="#000000" stroke="none">
<path d="M198 523 l-68 -4 0 -83 0 -82 -12 -17 -13 -17 -38 12 -37 12 -11 -11
-10 -10 -6 -36 -6 -37 16 -24 16 -24 31 11 30 11 11 -11 10 -10 9 -89 8 -89
-4 -10 -4 -10 95 -2 96 -3 -6 34 -7 34 16 30 15 30 16 6 17 6 24 0 25 0 20
-11 21 -11 -7 -38 -7 -38 21 -11 20 -11 55 0 55 0 25 -10 26 -10 -6 88 -7 87
-9 23 -8 24 -39 -7 -39 -7 -21 21 -21 21 0 18 0 17 9 14 8 13 64 -3 64 -4 9
47 9 48 -9 57 -9 58 -49 8 -49 8 -51 -3 -51 -3 3 -48 4 -49 -12 -29 -13 -29
-25 -7 -26 -6 -25 14 -25 14 -8 33 -9 33 10 34 9 34 -15 5 -15 6 -11 -2 -12
-2 -67 -3z"/>
</g>
</svg>
