<?xml version="1.0" standalone="no"?>
<!DOCTYPE svg PUBLIC "-//W3C//DTD SVG 20010904//EN"
 "http://www.w3.org/TR/2001/REC-SVG-20010904/DTD/svg10.dtd">
<svg version="1.0" xmlns="http://www.w3.org/2000/svg"
 width="67.000000pt" height="55.000000pt" viewBox="0 0 67.000000 55.000000"
 preserveAspectRatio="xMidYMid meet">
<metadata>
Created by potrace 1.16, written by Peter Selinger 2001-2019
</metadata>
<g transform="translate(0.000000,55.000000) scale(0.100000,-0.100000)"
fill="#000000" stroke="none">
<path d="M198 543 l-68 -4 0 -79 0 -78 -6 -16 -6 -16 -49 6 -49 7 -10 -27 -10
-27 0 -34 0 -33 19 -23 19 -23 27 12 26 12 9 -5 8 -5 6 -32 6 -33 1 -70 1 -70
105 -2 106 -3 -6 36 -6 37 15 28 14 29 26 6 25 7 24 -11 23 -11 -5 -39 -5 -39
13 -9 14 -9 75 -6 75 -7 23 -7 23 -8 -7 99 -7 99 -9 24 -8 24 -41 -6 -41 -5
-19 19 -19 19 0 8 0 7 9 13 8 13 63 -3 63 -3 10 35 9 35 -5 74 -6 74 -10 10
-10 10 -103 1 -103 1 3 -50 2 -50 -11 -27 -11 -27 -20 -6 -19 -7 -23 16 -23
15 -6 27 -5 26 10 36 10 35 -14 8 -13 9 -25 -2 -25 -2 -67 -3z"/>
</g>
</svg>
