<?xml version="1.0" standalone="no"?>
<!DOCTYPE svg PUBLIC "-//W3C//DTD SVG 20010904//EN"
 "http://www.w3.org/TR/2001/REC-SVG-20010904/DTD/svg10.dtd">
<svg version="1.0" xmlns="http://www.w3.org/2000/svg"
 width="68.000000pt" height="52.000000pt" viewBox="0 0 68.000000 52.000000"
 preserveAspectRatio="xMidYMid meet">
<metadata>
Created by potrace 1.16, written by Peter Selinger 2001-2019
</metadata>
<g transform="translate(0.000000,52.000000) scale(0.100000,-0.100000)"
fill="#000000" stroke="none">
<path d="M140 439 l0 -80 -11 -20 -10 -20 -57 3 -57 3 -3 -33 -3 -33 12 -16
13 -15 52 6 52 6 12 -15 13 -16 -7 -95 -6 -94 13 -6 13 -5 75 -2 74 -2 -3 51
-4 52 23 16 23 16 37 0 37 0 16 -6 16 -6 0 -24 0 -23 18 -9 17 -10 35 -7 35
-7 36 -18 36 -17 23 71 22 71 -4 35 -3 35 -15 -4 -15 -3 -55 -5 -55 -4 -25 13
-25 14 -3 23 -4 23 19 20 18 20 62 -4 63 -4 0 99 0 99 -17 -7 -18 -6 -75 -16
-75 -15 -13 -13 -14 -13 11 -20 11 -21 0 -5 0 -5 -16 -15 -15 -16 -45 0 -44 0
-20 20 -20 20 0 28 0 27 9 33 10 32 -85 0 -84 0 0 -81z"/>
</g>
</svg>
