<?xml version="1.0" standalone="no"?>
<!DOCTYPE svg PUBLIC "-//W3C//DTD SVG 20010904//EN"
 "http://www.w3.org/TR/2001/REC-SVG-20010904/DTD/svg10.dtd">
<svg version="1.0" xmlns="http://www.w3.org/2000/svg"
 width="85.000000pt" height="66.000000pt" viewBox="0 0 85.000000 66.000000"
 preserveAspectRatio="xMidYMid meet">
<metadata>
Created by potrace 1.16, written by Peter Selinger 2001-2019
</metadata>
<g transform="translate(0.000000,66.000000) scale(0.100000,-0.100000)"
fill="#000000" stroke="none">
<path d="M160 576 l0 -87 -16 -24 -16 -25 -27 0 -27 0 -12 12 -11 11 -26 -11
-25 -12 0 -40 0 -40 20 -20 20 -20 23 0 22 0 15 10 14 9 13 -10 12 -10 6 -57
6 -57 5 -36 5 -37 76 -4 75 -3 18 -23 19 -23 -6 -33 -5 -33 23 -6 24 -7 33 0
33 0 20 11 20 10 -2 46 -3 46 19 8 20 8 85 0 85 1 18 38 18 37 12 50 13 50 35
3 34 3 12 16 13 17 0 51 0 51 -14 19 -13 18 -55 -6 -56 -5 -11 11 -11 11 0 78
0 78 -18 0 -19 0 -7 -7 -7 -8 -77 -25 -76 -25 -6 -25 -6 -25 -59 0 -60 0 3 40
3 40 -15 20 -14 20 -86 4 -86 3 0 -86z"/>
</g>
</svg>
