<?xml version="1.0" standalone="no"?>
<!DOCTYPE svg PUBLIC "-//W3C//DTD SVG 20010904//EN"
 "http://www.w3.org/TR/2001/REC-SVG-20010904/DTD/svg10.dtd">
<svg version="1.0" xmlns="http://www.w3.org/2000/svg"
 width="65.000000pt" height="66.000000pt" viewBox="0 0 65.000000 66.000000"
 preserveAspectRatio="xMidYMid meet">
<metadata>
Created by potrace 1.16, written by Peter Selinger 2001-2019
</metadata>
<g transform="translate(0.000000,66.000000) scale(0.100000,-0.100000)"
fill="#000000" stroke="none">
<path d="M473 653 l-22 -4 6 -49 6 -49 -13 -31 -13 -31 -18 -9 -18 -10 -28 0
-28 1 -17 13 -18 13 0 18 0 18 12 40 12 39 -19 14 -19 14 -76 0 -76 0 4 -35 4
-35 -7 -56 -7 -56 -19 -19 -19 -19 -34 0 -35 0 -6 10 -6 10 -10 -5 -9 -6 0
-30 0 -30 11 -20 10 -20 30 6 29 7 15 -15 14 -15 11 -66 10 -65 10 -26 10 -25
63 0 63 0 23 -16 23 -17 -6 -39 -6 -38 27 -11 28 -11 44 5 45 5 14 18 14 19
-6 53 -6 53 16 6 16 6 69 -15 69 -15 6 21 5 21 -3 229 -3 230 -25 6 -25 7 -50
5 -50 4 -22 -3z"/>
</g>
</svg>
