<?xml version="1.0" standalone="no"?>
<!DOCTYPE svg PUBLIC "-//W3C//DTD SVG 20010904//EN"
 "http://www.w3.org/TR/2001/REC-SVG-20010904/DTD/svg10.dtd">
<svg version="1.0" xmlns="http://www.w3.org/2000/svg"
 width="67.000000pt" height="68.000000pt" viewBox="0 0 67.000000 68.000000"
 preserveAspectRatio="xMidYMid meet">
<metadata>
Created by potrace 1.16, written by Peter Selinger 2001-2019
</metadata>
<g transform="translate(0.000000,68.000000) scale(0.100000,-0.100000)"
fill="#000000" stroke="none">
<path d="M472 673 l-23 -5 6 -52 7 -53 -16 -31 -16 -32 -26 -6 -26 -7 -25 14
-25 13 6 26 6 25 7 34 6 34 -18 13 -19 14 -85 0 -86 0 0 -83 -1 -82 -12 -22
-13 -23 -25 -6 -26 -7 -23 13 -23 12 -11 -6 -11 -7 0 -43 0 -42 13 -19 14 -18
28 5 29 6 12 -13 13 -13 11 -66 10 -65 10 -26 10 -25 63 0 63 0 22 -16 22 -15
-6 -39 -6 -40 28 -11 29 -11 54 5 54 4 14 19 15 19 -5 53 -4 54 12 4 12 5 68
-16 68 -16 9 13 8 13 -3 249 -2 250 -25 6 -25 7 -60 5 -60 5 -23 -4z"/>
</g>
</svg>
