<?xml version="1.0" standalone="no"?>
<!DOCTYPE svg PUBLIC "-//W3C//DTD SVG 20010904//EN"
 "http://www.w3.org/TR/2001/REC-SVG-20010904/DTD/svg10.dtd">
<svg version="1.0" xmlns="http://www.w3.org/2000/svg"
 width="68.000000pt" height="57.000000pt" viewBox="0 0 68.000000 57.000000"
 preserveAspectRatio="xMidYMid meet">
<metadata>
Created by potrace 1.16, written by Peter Selinger 2001-2019
</metadata>
<g transform="translate(0.000000,57.000000) scale(0.100000,-0.100000)"
fill="#000000" stroke="none">
<path d="M78 563 l-68 -4 0 -92 0 -92 7 -24 6 -23 61 6 61 7 19 -14 18 -14 -6
-20 -7 -21 -35 -17 -36 -17 -28 12 -29 12 -10 -6 -10 -7 -5 -32 -5 -32 -4 -81
-5 -80 92 4 91 4 19 17 18 16 -5 48 -6 47 38 0 38 0 22 -24 22 -23 0 -19 -1
-19 -2 -29 -3 -30 35 -8 35 -9 65 13 65 13 12 26 13 26 15 73 15 74 11 12 11
13 28 -5 28 -6 11 20 11 21 0 29 0 29 -21 27 -22 28 -51 -4 -51 -3 -3 88 -3
88 -102 -3 -102 -3 0 -51 0 -52 -19 -21 -19 -21 -16 0 -16 0 -34 21 -34 20 6
60 7 59 -28 -2 -27 -2 -67 -3z"/>
</g>
</svg>
