<?xml version="1.0" standalone="no"?>
<!DOCTYPE svg PUBLIC "-//W3C//DTD SVG 20010904//EN"
 "http://www.w3.org/TR/2001/REC-SVG-20010904/DTD/svg10.dtd">
<svg version="1.0" xmlns="http://www.w3.org/2000/svg"
 width="68.000000pt" height="65.000000pt" viewBox="0 0 68.000000 65.000000"
 preserveAspectRatio="xMidYMid meet">
<metadata>
Created by potrace 1.16, written by Peter Selinger 2001-2019
</metadata>
<g transform="translate(0.000000,65.000000) scale(0.100000,-0.100000)"
fill="#000000" stroke="none">
<path d="M499 645 l-7 -6 5 -37 4 -37 -20 -32 -21 -33 -40 0 -40 0 -21 21 -21
21 7 44 6 43 -23 6 -23 6 -70 -3 -70 -3 0 -95 0 -95 -61 3 -62 4 -21 -11 -21
-12 0 -25 0 -25 10 -19 10 -18 28 -7 29 -6 28 11 29 11 14 -18 13 -18 -1 -85
-1 -85 0 -11 1 -11 48 8 47 8 48 0 48 1 -7 -49 -6 -49 21 -21 21 -21 38 0 39
0 16 18 17 19 0 19 0 20 -10 10 -11 11 15 12 14 12 84 7 83 7 0 10 -1 10 -8
65 -8 65 -9 11 -9 12 -46 -6 -45 -5 -14 19 -14 19 -6 37 -7 38 12 36 12 36 42
-5 41 -6 20 -5 20 -6 15 10 15 9 0 75 0 74 -7 7 -6 7 -79 5 -78 5 -6 -7z"/>
</g>
</svg>
