<?xml version="1.0" standalone="no"?>
<!DOCTYPE svg PUBLIC "-//W3C//DTD SVG 20010904//EN"
 "http://www.w3.org/TR/2001/REC-SVG-20010904/DTD/svg10.dtd">
<svg version="1.0" xmlns="http://www.w3.org/2000/svg"
 width="71.000000pt" height="81.000000pt" viewBox="0 0 71.000000 81.000000"
 preserveAspectRatio="xMidYMid meet">
<metadata>
Created by potrace 1.16, written by Peter Selinger 2001-2019
</metadata>
<g transform="translate(0.000000,81.000000) scale(0.100000,-0.100000)"
fill="#000000" stroke="none">
<path d="M251 801 l-14 -9 7 -34 6 -34 -14 -19 -14 -20 -94 -3 -94 -4 4 -96 3
-97 5 -14 4 -13 56 7 55 7 25 -16 24 -16 0 -15 0 -14 -27 -21 -27 -21 -76 3
-75 3 1 -70 1 -70 17 -37 16 -38 73 0 72 0 35 -18 35 -17 -3 -52 -4 -51 20
-11 21 -11 29 0 29 0 17 19 18 19 -3 43 -4 43 35 8 35 7 66 3 66 2 -5 73 -5
73 13 30 13 31 16 -7 16 -7 22 -4 21 -5 21 21 21 21 0 50 0 51 -16 6 -15 6
-25 -12 -25 -11 -19 12 -20 13 -10 29 -10 29 0 70 0 69 -22 -6 -23 -6 -57 -11
-58 -12 -14 12 -15 13 10 26 10 25 -6 29 -7 28 -21 15 -21 15 -41 0 -40 0 -14
-9z"/>
</g>
</svg>
