<?xml version="1.0" standalone="no"?>
<!DOCTYPE svg PUBLIC "-//W3C//DTD SVG 20010904//EN"
 "http://www.w3.org/TR/2001/REC-SVG-20010904/DTD/svg10.dtd">
<svg version="1.0" xmlns="http://www.w3.org/2000/svg"
 width="69.000000pt" height="79.000000pt" viewBox="0 0 69.000000 79.000000"
 preserveAspectRatio="xMidYMid meet">
<metadata>
Created by potrace 1.16, written by Peter Selinger 2001-2019
</metadata>
<g transform="translate(0.000000,79.000000) scale(0.100000,-0.100000)"
fill="#000000" stroke="none">
<path d="M253 783 l-13 -5 6 -36 5 -37 -14 -20 -15 -20 -94 -3 -93 -4 5 -96 5
-97 57 3 56 4 21 -11 21 -11 10 -21 11 -20 -31 -30 -31 -31 -77 3 -77 4 1 -60
2 -60 16 -37 16 -38 73 0 72 0 35 -18 35 -17 -3 -52 -3 -52 20 -10 20 -11 19
0 19 0 17 19 18 19 -4 43 -3 43 40 7 40 8 58 6 57 6 0 74 0 74 12 26 12 27 20
-5 21 -4 17 -7 16 -8 21 21 21 21 0 39 0 40 -9 6 -10 5 -25 -12 -26 -11 -25
13 -24 13 -11 30 -10 30 0 67 0 66 -75 -15 -76 -16 -17 12 -17 11 3 23 2 24 2
29 1 29 -22 19 -23 18 -32 -1 -31 -1 -12 -5z"/>
</g>
</svg>
