<?xml version="1.0" standalone="no"?>
<!DOCTYPE svg PUBLIC "-//W3C//DTD SVG 20010904//EN"
 "http://www.w3.org/TR/2001/REC-SVG-20010904/DTD/svg10.dtd">
<svg version="1.0" xmlns="http://www.w3.org/2000/svg"
 width="58.000000pt" height="84.000000pt" viewBox="0 0 58.000000 84.000000"
 preserveAspectRatio="xMidYMid meet">
<metadata>
Created by potrace 1.16, written by Peter Selinger 2001-2019
</metadata>
<g transform="translate(0.000000,84.000000) scale(0.100000,-0.100000)"
fill="#000000" stroke="none">
<path d="M235 815 l-25 -24 0 -20 0 -20 12 -27 12 -26 -19 -14 -19 -14 -87 0
-88 0 -4 -7 -5 -8 -3 -90 -4 -90 41 3 40 3 27 -21 27 -21 0 -19 0 -18 -6 -15
-6 -15 -33 5 -33 5 -11 -38 -11 -39 0 -15 0 -16 -14 -52 -13 -52 62 0 62 0 32
-11 31 -11 10 -18 10 -19 -12 -25 -11 -26 11 -24 11 -24 32 -7 31 -7 21 20 20
21 1 33 1 33 -8 22 -8 21 18 6 18 5 93 3 92 3 20 53 20 52 6 53 6 53 -15 12
-15 13 -47 -12 -46 -12 -39 12 -38 11 -6 16 -6 15 10 20 11 19 23 6 24 6 21
-12 22 -11 20 6 20 7 10 25 9 24 0 62 -1 62 -13 17 -13 17 -94 17 -94 16 -8 5
-9 5 7 48 7 48 -21 11 -20 11 -11 0 -11 0 -24 -25z"/>
</g>
</svg>
