<?xml version="1.0" standalone="no"?>
<!DOCTYPE svg PUBLIC "-//W3C//DTD SVG 20010904//EN"
 "http://www.w3.org/TR/2001/REC-SVG-20010904/DTD/svg10.dtd">
<svg version="1.0" xmlns="http://www.w3.org/2000/svg"
 width="60.000000pt" height="86.000000pt" viewBox="0 0 60.000000 86.000000"
 preserveAspectRatio="xMidYMid meet">
<metadata>
Created by potrace 1.16, written by Peter Selinger 2001-2019
</metadata>
<g transform="translate(0.000000,86.000000) scale(0.100000,-0.100000)"
fill="#000000" stroke="none">
<path d="M235 835 l-25 -24 0 -31 0 -31 10 -19 10 -19 -19 -11 -20 -10 -86 0
-86 0 -4 -12 -4 -13 -3 -95 -3 -95 47 0 47 0 22 -22 22 -21 -6 -16 -6 -16 -35
0 -35 0 -5 -17 -6 -18 -14 -75 -15 -75 -7 -23 -6 -22 66 0 67 0 35 -15 35 -14
-6 -48 -6 -48 13 -18 14 -18 39 -6 40 -5 20 22 20 22 0 53 0 54 6 5 5 5 97 2
96 1 21 56 21 56 6 61 5 60 -16 14 -17 14 -52 -12 -53 -11 -32 11 -32 11 0 19
0 18 19 11 20 10 25 -11 25 -12 26 7 26 7 9 25 10 25 0 72 -1 72 -13 17 -13
17 -94 17 -94 16 -7 4 -7 5 6 46 6 46 -18 13 -19 14 -23 0 -24 0 -24 -25z"/>
</g>
</svg>
