<?xml version="1.0" standalone="no"?>
<!DOCTYPE svg PUBLIC "-//W3C//DTD SVG 20010904//EN"
 "http://www.w3.org/TR/2001/REC-SVG-20010904/DTD/svg10.dtd">
<svg version="1.0" xmlns="http://www.w3.org/2000/svg"
 width="67.000000pt" height="70.000000pt" viewBox="0 0 67.000000 70.000000"
 preserveAspectRatio="xMidYMid meet">
<metadata>
Created by potrace 1.16, written by Peter Selinger 2001-2019
</metadata>
<g transform="translate(0.000000,70.000000) scale(0.100000,-0.100000)"
fill="#000000" stroke="none">
<path d="M338 689 l-18 -10 0 -34 0 -34 10 -27 10 -26 -12 -15 -12 -15 -92 4
-92 4 -5 -63 -5 -63 -17 -26 -17 -26 -30 6 -31 6 -13 -11 -14 -11 0 -55 0 -55
30 -30 31 -30 39 4 40 4 0 -41 0 -40 -11 -44 -10 -44 5 -5 5 -4 91 0 92 0 16
16 17 16 0 53 0 52 35 0 35 0 3 -37 3 -36 12 -11 12 -10 104 -21 103 -21 6 5
5 5 -12 78 -12 78 -12 23 -11 23 -40 -3 -40 -3 -10 29 -11 28 24 19 24 20 45
-7 44 -7 9 14 9 14 0 102 0 103 -22 4 -23 5 -70 6 -70 6 -17 5 -18 5 7 59 6
59 -27 11 -27 10 -27 0 -27 -1 -17 -10z"/>
</g>
</svg>
