<?xml version="1.0" standalone="no"?>
<!DOCTYPE svg PUBLIC "-//W3C//DTD SVG 20010904//EN"
 "http://www.w3.org/TR/2001/REC-SVG-20010904/DTD/svg10.dtd">
<svg version="1.0" xmlns="http://www.w3.org/2000/svg"
 width="56.000000pt" height="81.000000pt" viewBox="0 0 56.000000 81.000000"
 preserveAspectRatio="xMidYMid meet">
<metadata>
Created by potrace 1.16, written by Peter Selinger 2001-2019
</metadata>
<g transform="translate(0.000000,81.000000) scale(0.100000,-0.100000)"
fill="#000000" stroke="none">
<path d="M230 795 l-12 -14 4 -63 3 -63 -105 -5 -105 -5 -7 -55 -6 -55 -1 -54
-1 -53 27 5 28 5 21 7 21 7 29 -26 29 -25 -15 -28 -16 -28 -44 0 -43 0 -8 -26
-7 -27 -3 -78 -4 -79 79 -6 78 -5 13 -18 13 -17 -11 -35 -11 -35 15 -10 14 -9
67 0 66 0 16 6 16 6 0 23 0 23 72 22 72 22 21 14 20 14 -3 98 -4 97 -11 14
-11 13 -49 -6 -49 -7 -19 17 -19 17 0 18 0 17 6 16 6 15 46 -5 47 -5 25 20 25
20 3 88 4 89 -14 11 -13 11 -80 23 -80 23 -12 9 -12 9 5 28 6 28 -20 11 -21
11 -34 0 -35 0 -12 -15z"/>
</g>
</svg>
