<?xml version="1.0" standalone="no"?>
<!DOCTYPE svg PUBLIC "-//W3C//DTD SVG 20010904//EN"
 "http://www.w3.org/TR/2001/REC-SVG-20010904/DTD/svg10.dtd">
<svg version="1.0" xmlns="http://www.w3.org/2000/svg"
 width="65.000000pt" height="81.000000pt" viewBox="0 0 65.000000 81.000000"
 preserveAspectRatio="xMidYMid meet">
<metadata>
Created by potrace 1.16, written by Peter Selinger 2001-2019
</metadata>
<g transform="translate(0.000000,81.000000) scale(0.100000,-0.100000)"
fill="#000000" stroke="none">
<path d="M230 783 l-22 -28 7 -30 6 -30 2 -20 2 -20 -106 -3 -106 -3 -7 -78
-6 -78 6 -32 7 -32 16 6 16 7 31 5 31 5 31 -16 32 -17 0 -14 0 -14 -12 -25
-11 -26 -18 -5 -18 -6 -35 10 -35 9 -12 -15 -13 -14 -4 -85 -5 -84 87 0 87 0
20 -10 19 -11 0 -14 0 -15 -12 -20 -13 -20 17 -27 17 -28 45 -3 45 -3 20 20
20 20 7 28 7 27 -11 28 -11 29 23 10 23 11 58 -11 59 -11 8 8 8 8 15 80 15 79
6 19 6 18 33 -5 33 -5 6 15 6 15 0 18 0 19 -27 21 -27 21 -40 -3 -41 -3 4 98
3 97 -65 0 -66 0 -26 12 -26 12 6 47 7 47 -21 21 -21 21 -29 0 -30 0 -21 -27z"/>
</g>
</svg>
