<?xml version="1.0" standalone="no"?>
<!DOCTYPE svg PUBLIC "-//W3C//DTD SVG 20010904//EN"
 "http://www.w3.org/TR/2001/REC-SVG-20010904/DTD/svg10.dtd">
<svg version="1.0" xmlns="http://www.w3.org/2000/svg"
 width="73.000000pt" height="81.000000pt" viewBox="0 0 73.000000 81.000000"
 preserveAspectRatio="xMidYMid meet">
<metadata>
Created by potrace 1.16, written by Peter Selinger 2001-2019
</metadata>
<g transform="translate(0.000000,81.000000) scale(0.100000,-0.100000)"
fill="#000000" stroke="none">
<path d="M359 789 l-21 -21 7 -46 7 -47 1 -10 2 -10 -94 -3 -94 -3 6 -87 5
-87 -72 3 -73 4 -16 -17 -17 -16 0 -49 0 -49 17 -16 16 -17 25 -9 25 -10 45 7
45 7 -5 -92 -4 -91 80 0 81 0 25 -13 25 -13 -3 -42 -4 -42 29 -11 28 -11 40 5
39 6 14 18 13 18 -3 30 -3 30 30 6 30 7 61 1 61 1 11 51 12 51 0 69 0 70 -16
6 -17 6 -29 -11 -30 -11 -40 16 -39 16 3 20 3 20 60 1 59 1 13 25 13 25 0 88
0 87 -79 0 -79 0 -17 6 -16 6 7 58 6 57 -23 17 -23 16 -53 0 -53 0 -21 -21z"/>
</g>
</svg>
