<?xml version="1.0" standalone="no"?>
<!DOCTYPE svg PUBLIC "-//W3C//DTD SVG 20010904//EN"
 "http://www.w3.org/TR/2001/REC-SVG-20010904/DTD/svg10.dtd">
<svg version="1.0" xmlns="http://www.w3.org/2000/svg"
 width="71.000000pt" height="79.000000pt" viewBox="0 0 71.000000 79.000000"
 preserveAspectRatio="xMidYMid meet">
<metadata>
Created by potrace 1.16, written by Peter Selinger 2001-2019
</metadata>
<g transform="translate(0.000000,79.000000) scale(0.100000,-0.100000)"
fill="#000000" stroke="none">
<path d="M360 770 l-21 -21 7 -37 8 -37 0 -20 1 -20 -94 -3 -94 -3 7 -89 7
-89 -74 6 -73 6 -17 -17 -17 -17 0 -39 0 -39 17 -16 16 -17 25 -9 24 -9 36 10
36 10 9 -9 9 -9 -4 -86 -3 -86 80 0 80 0 25 -13 25 -13 -3 -42 -2 -42 27 -11
28 -10 32 6 33 6 9 18 10 18 -2 29 -2 28 30 7 30 7 61 1 61 1 11 51 12 51 0
58 0 59 -11 6 -10 7 -30 -12 -29 -13 -44 17 -44 17 -6 16 -6 16 15 24 16 24
14 -11 14 -11 38 3 38 3 12 25 13 25 0 78 0 77 -82 0 -83 0 -14 9 -14 9 7 55
7 55 -23 16 -22 16 -43 0 -43 0 -20 -20z"/>
</g>
</svg>
