<?xml version="1.0" standalone="no"?>
<!DOCTYPE svg PUBLIC "-//W3C//DTD SVG 20010904//EN"
 "http://www.w3.org/TR/2001/REC-SVG-20010904/DTD/svg10.dtd">
<svg version="1.0" xmlns="http://www.w3.org/2000/svg"
 width="70.000000pt" height="68.000000pt" viewBox="0 0 70.000000 68.000000"
 preserveAspectRatio="xMidYMid meet">
<metadata>
Created by potrace 1.16, written by Peter Selinger 2001-2019
</metadata>
<g transform="translate(0.000000,68.000000) scale(0.100000,-0.100000)"
fill="#000000" stroke="none">
<path d="M150 594 l0 -85 -10 -19 -10 -19 -50 6 -50 6 -15 -13 -15 -12 0 -43
0 -43 15 -12 15 -12 24 6 24 6 9 -13 10 -12 18 -70 17 -70 5 -26 5 -25 88 4
88 4 22 -22 22 -22 -8 -16 -7 -17 -5 -23 -5 -23 19 -14 19 -14 33 -1 33 0 34
14 34 14 3 33 3 33 50 13 50 12 36 18 37 18 7 92 7 92 -7 22 -7 22 -59 -7 -59
-6 -20 20 -20 20 0 13 0 13 16 22 16 23 57 -7 58 -6 7 27 7 26 -7 75 -7 74
-10 0 -11 0 -65 -21 -66 -21 -35 -12 -35 -12 -4 -19 -3 -20 -12 -7 -11 -7 -25
6 -25 6 -19 9 -18 10 11 11 11 11 0 26 0 26 -12 12 -12 12 -93 0 -93 0 0 -86z"/>
</g>
</svg>
