<?xml version="1.0" standalone="no"?>
<!DOCTYPE svg PUBLIC "-//W3C//DTD SVG 20010904//EN"
 "http://www.w3.org/TR/2001/REC-SVG-20010904/DTD/svg10.dtd">
<svg version="1.0" xmlns="http://www.w3.org/2000/svg"
 width="84.000000pt" height="69.000000pt" viewBox="0 0 84.000000 69.000000"
 preserveAspectRatio="xMidYMid meet">
<metadata>
Created by potrace 1.16, written by Peter Selinger 2001-2019
</metadata>
<g transform="translate(0.000000,69.000000) scale(0.100000,-0.100000)"
fill="#000000" stroke="none">
<path d="M152 613 l5 -78 -4 -17 -4 -16 -58 5 -58 6 -17 -24 -16 -23 0 -33 0
-33 21 -21 22 -22 58 7 59 6 6 -24 6 -24 -11 -73 -12 -72 7 -6 6 -6 76 0 76 0
-3 -55 -2 -56 21 -27 21 -27 58 0 58 0 18 20 18 20 -6 44 -6 44 15 6 15 6 78
6 79 7 5 26 5 26 22 65 21 65 10 23 9 22 25 -6 26 -6 19 17 20 18 0 32 0 32
-25 23 -24 23 -61 -6 -60 -7 0 90 0 90 -8 0 -8 0 -45 -14 -44 -14 -43 -11 -43
-12 3 -30 3 -30 -15 -9 -15 -10 -40 0 -40 0 -12 19 -12 19 10 37 10 36 -12 15
-11 14 -101 0 -100 0 5 -77z"/>
</g>
</svg>
