<?xml version="1.0" standalone="no"?>
<!DOCTYPE svg PUBLIC "-//W3C//DTD SVG 20010904//EN"
 "http://www.w3.org/TR/2001/REC-SVG-20010904/DTD/svg10.dtd">
<svg version="1.0" xmlns="http://www.w3.org/2000/svg"
 width="81.000000pt" height="68.000000pt" viewBox="0 0 81.000000 68.000000"
 preserveAspectRatio="xMidYMid meet">
<metadata>
Created by potrace 1.16, written by Peter Selinger 2001-2019
</metadata>
<g transform="translate(0.000000,68.000000) scale(0.100000,-0.100000)"
fill="#000000" stroke="none">
<path d="M170 597 l0 -83 -14 -19 -14 -19 -49 12 -49 13 -16 -6 -17 -7 -6 -39
-7 -40 17 -26 17 -25 44 6 44 6 9 -18 9 -17 8 -60 8 -60 -2 -32 -2 -33 74 1
74 1 21 -11 21 -12 -6 -53 -6 -53 32 -12 33 -11 36 0 36 0 25 13 25 13 0 34 1
35 64 16 65 17 18 7 17 7 0 17 0 18 -20 77 -20 78 10 19 10 18 26 -9 25 -10
27 0 28 0 22 16 22 15 0 39 0 39 -20 11 -21 11 -46 -7 -46 -7 7 103 6 102 -17
-5 -18 -6 -69 -20 -68 -20 -15 -12 -14 -13 5 -22 6 -22 -16 -6 -16 -6 -24 0
-25 0 -20 10 -19 11 11 20 11 21 -7 25 -6 24 -34 15 -34 14 -76 0 -75 0 0 -83z"/>
</g>
</svg>
