<?xml version="1.0" standalone="no"?>
<!DOCTYPE svg PUBLIC "-//W3C//DTD SVG 20010904//EN"
 "http://www.w3.org/TR/2001/REC-SVG-20010904/DTD/svg10.dtd">
<svg version="1.0" xmlns="http://www.w3.org/2000/svg"
 width="79.000000pt" height="66.000000pt" viewBox="0 0 79.000000 66.000000"
 preserveAspectRatio="xMidYMid meet">
<metadata>
Created by potrace 1.16, written by Peter Selinger 2001-2019
</metadata>
<g transform="translate(0.000000,66.000000) scale(0.100000,-0.100000)"
fill="#000000" stroke="none">
<path d="M170 579 l0 -80 -10 -20 -11 -19 -29 0 -29 0 -25 10 -26 9 -14 -5
-14 -5 -6 -31 -6 -31 15 -24 16 -24 44 7 44 6 10 -23 10 -24 11 -72 10 -71 -6
-16 -6 -15 74 1 74 1 23 -12 23 -13 -7 -53 -6 -54 39 -12 40 -12 35 7 35 7 13
15 13 16 -12 18 -11 18 12 11 13 10 49 11 50 10 28 11 27 11 0 8 0 7 -20 78
-20 78 0 12 0 11 13 18 13 17 46 -12 46 -13 26 17 26 17 0 30 0 29 -20 11 -19
10 -38 -8 -38 -9 -12 4 -12 4 4 27 4 27 5 71 6 71 -53 -18 -52 -18 -15 -1 -16
0 -22 -16 -23 -16 13 -15 12 -15 -19 -14 -19 -14 -41 0 -41 0 -19 14 -19 14
12 26 12 27 -10 19 -10 18 -31 11 -32 11 -63 0 -64 0 0 -81z"/>
</g>
</svg>
