<?xml version="1.0" standalone="no"?>
<!DOCTYPE svg PUBLIC "-//W3C//DTD SVG 20010904//EN"
 "http://www.w3.org/TR/2001/REC-SVG-20010904/DTD/svg10.dtd">
<svg version="1.0" xmlns="http://www.w3.org/2000/svg"
 width="67.000000pt" height="55.000000pt" viewBox="0 0 67.000000 55.000000"
 preserveAspectRatio="xMidYMid meet">
<metadata>
Created by potrace 1.16, written by Peter Selinger 2001-2019
</metadata>
<g transform="translate(0.000000,55.000000) scale(0.100000,-0.100000)"
fill="#000000" stroke="none">
<path d="M445 540 l-6 -10 7 -12 7 -11 -1 -35 -1 -35 -16 -23 -15 -24 -39 0
-39 0 -11 14 -12 15 10 20 11 20 0 10 0 11 -20 20 -20 20 -75 0 -75 0 0 -80 0
-79 -12 -27 -12 -26 -52 6 -52 6 -12 -14 -11 -15 3 -28 3 -28 39 -19 39 -19
48 12 48 13 11 -7 10 -6 0 -37 -1 -37 -19 -55 -19 -55 7 -6 7 -7 72 -4 73 -4
4 11 4 10 -5 60 -5 60 17 15 18 15 43 0 43 0 23 -22 22 -22 -11 -35 -10 -34 7
-12 7 -12 74 -9 74 -8 22 -1 23 0 -9 22 -8 23 -7 64 -7 63 -12 19 -12 19 -15
0 -16 0 -11 -11 -11 -11 -26 25 -26 26 0 15 0 15 22 15 22 16 33 0 32 0 25
-10 26 -10 0 54 0 53 -6 59 -6 60 -64 12 -63 12 -40 0 -40 0 -6 -10z"/>
</g>
</svg>
