<?xml version="1.0" standalone="no"?>
<!DOCTYPE svg PUBLIC "-//W3C//DTD SVG 20010904//EN"
 "http://www.w3.org/TR/2001/REC-SVG-20010904/DTD/svg10.dtd">
<svg version="1.0" xmlns="http://www.w3.org/2000/svg"
 width="55.000000pt" height="66.000000pt" viewBox="0 0 55.000000 66.000000"
 preserveAspectRatio="xMidYMid meet">
<metadata>
Created by potrace 1.16, written by Peter Selinger 2001-2019
</metadata>
<g transform="translate(0.000000,66.000000) scale(0.100000,-0.100000)"
fill="#000000" stroke="none">
<path d="M40 598 l0 -63 -6 -22 -6 -22 28 8 29 8 32 -9 33 -9 15 -29 15 -29 0
-26 0 -27 -32 -30 -32 -30 -53 4 -53 5 -5 -18 -6 -18 12 -43 11 -43 15 -29 15
-28 92 7 92 7 -4 -66 -4 -65 15 -16 16 -15 24 0 24 0 18 20 17 19 5 44 5 44
-11 21 -11 21 19 10 18 10 64 -11 64 -11 20 -1 20 -1 3 85 3 85 -13 18 -14 18
-29 -11 -28 -11 -29 6 -28 7 -10 18 -10 19 0 25 0 25 21 12 21 11 62 -4 61 -3
3 55 3 55 -6 41 -6 41 -82 -4 -82 -4 -23 -5 -23 -5 8 -22 8 -22 -1 -33 -1 -33
-20 -21 -21 -20 -31 7 -32 7 -11 24 -11 24 11 26 12 25 -10 19 -10 18 -31 11
-32 11 -58 0 -59 0 0 -62z"/>
</g>
</svg>
