<?xml version="1.0" standalone="no"?>
<!DOCTYPE svg PUBLIC "-//W3C//DTD SVG 20010904//EN"
 "http://www.w3.org/TR/2001/REC-SVG-20010904/DTD/svg10.dtd">
<svg version="1.0" xmlns="http://www.w3.org/2000/svg"
 width="57.000000pt" height="68.000000pt" viewBox="0 0 57.000000 68.000000"
 preserveAspectRatio="xMidYMid meet">
<metadata>
Created by potrace 1.16, written by Peter Selinger 2001-2019
</metadata>
<g transform="translate(0.000000,68.000000) scale(0.100000,-0.100000)"
fill="#000000" stroke="none">
<path d="M40 623 l0 -58 -7 -38 -6 -38 37 6 36 7 25 -6 25 -6 16 -31 16 -31
-6 -23 -6 -24 -31 -22 -30 -21 -49 6 -49 7 -7 -26 -6 -25 11 -47 12 -46 16
-30 15 -30 89 6 89 7 0 -66 0 -65 14 -15 15 -14 34 0 34 0 19 21 19 21 0 67 0
66 8 6 8 6 57 -10 57 -10 30 -1 30 -1 3 95 3 95 -15 20 -14 19 -37 -11 -37
-12 -24 9 -23 9 -7 27 -7 27 19 14 19 14 65 -3 65 -3 3 65 3 65 -6 42 -6 42
-92 -5 -92 -5 -24 -5 -23 -5 7 -32 8 -32 -1 -24 0 -23 -19 -20 -19 -19 -26 10
-25 9 -7 17 -6 16 11 21 11 20 -7 25 -6 24 -34 15 -34 14 -71 0 -70 0 0 -57z"/>
</g>
</svg>
