<?xml version="1.0" standalone="no"?>
<!DOCTYPE svg PUBLIC "-//W3C//DTD SVG 20010904//EN"
 "http://www.w3.org/TR/2001/REC-SVG-20010904/DTD/svg10.dtd">
<svg version="1.0" xmlns="http://www.w3.org/2000/svg"
 width="81.000000pt" height="70.000000pt" viewBox="0 0 81.000000 70.000000"
 preserveAspectRatio="xMidYMid meet">
<metadata>
Created by potrace 1.16, written by Peter Selinger 2001-2019
</metadata>
<g transform="translate(0.000000,70.000000) scale(0.100000,-0.100000)"
fill="#000000" stroke="none">
<path d="M170 617 l0 -83 -11 -11 -12 -12 -49 6 -49 6 -24 -23 -25 -23 0 -32
0 -32 19 -17 20 -18 67 4 67 3 8 -22 8 -21 -9 -64 -10 -63 0 -22 0 -23 78 -1
77 0 20 -8 20 -8 0 -64 0 -63 27 -14 28 -13 40 11 40 11 16 24 16 24 -4 28 -3
27 40 9 40 8 41 10 42 11 11 76 11 77 6 33 5 34 34 -6 34 -7 10 20 11 20 0 39
0 40 -16 13 -16 13 -41 -11 -42 -11 -8 11 -8 12 7 88 6 87 -68 -1 -69 -1 -30
-7 -30 -6 -2 -30 -1 -30 -1 -13 -1 -12 -27 -11 -26 -10 -26 9 -26 9 0 43 0 44
-25 13 -25 13 -82 0 -83 0 0 -83z"/>
</g>
</svg>
