<?xml version="1.0" standalone="no"?>
<!DOCTYPE svg PUBLIC "-//W3C//DTD SVG 20010904//EN"
 "http://www.w3.org/TR/2001/REC-SVG-20010904/DTD/svg10.dtd">
<svg version="1.0" xmlns="http://www.w3.org/2000/svg"
 width="79.000000pt" height="68.000000pt" viewBox="0 0 79.000000 68.000000"
 preserveAspectRatio="xMidYMid meet">
<metadata>
Created by potrace 1.16, written by Peter Selinger 2001-2019
</metadata>
<g transform="translate(0.000000,68.000000) scale(0.100000,-0.100000)"
fill="#000000" stroke="none">
<path d="M170 597 l0 -84 -19 -17 -19 -18 -21 11 -20 11 -24 0 -24 0 -21 -23
-22 -23 0 -21 0 -20 20 -18 20 -18 65 6 66 6 10 -26 10 -26 -11 -74 -10 -74 0
-10 0 -9 74 0 75 0 26 -10 27 -10 -7 -58 -7 -58 17 -14 16 -13 30 1 31 1 23
15 23 15 7 22 7 21 -13 8 -13 8 13 15 12 15 42 7 42 7 36 10 36 10 1 12 0 11
12 65 11 65 5 32 5 31 15 6 15 6 19 -10 19 -10 11 19 10 20 0 29 0 30 -14 11
-15 12 -41 -12 -42 -13 -9 15 -10 14 6 88 6 87 -58 -1 -58 -1 -30 -7 -30 -7 2
-28 2 -29 -10 -18 -9 -18 -33 -6 -32 -6 -28 10 -27 11 2 42 3 42 -25 13 -25
13 -72 0 -73 0 0 -83z"/>
</g>
</svg>
