<?xml version="1.0" standalone="no"?>
<!DOCTYPE svg PUBLIC "-//W3C//DTD SVG 20010904//EN"
 "http://www.w3.org/TR/2001/REC-SVG-20010904/DTD/svg10.dtd">
<svg version="1.0" xmlns="http://www.w3.org/2000/svg"
 width="82.000000pt" height="54.000000pt" viewBox="0 0 82.000000 54.000000"
 preserveAspectRatio="xMidYMid meet">
<metadata>
Created by potrace 1.16, written by Peter Selinger 2001-2019
</metadata>
<g transform="translate(0.000000,54.000000) scale(0.100000,-0.100000)"
fill="#000000" stroke="none">
<path d="M154 463 l7 -78 -9 -30 -8 -30 -64 3 -63 4 -8 -14 -9 -13 0 -27 0
-28 21 -21 21 -21 39 5 39 5 7 -10 6 -11 8 -90 9 -90 3 -3 3 -3 94 -3 95 -3
-2 30 -3 30 11 26 10 26 26 12 25 12 14 -12 14 -12 -6 -48 -6 -47 38 -12 39
-11 85 8 85 8 -4 50 -4 50 -1 34 -1 35 53 -3 53 -3 24 24 25 23 0 47 0 48 -25
16 -25 16 -40 -4 -40 -3 -5 13 -5 14 0 84 0 84 -14 0 -15 0 -6 -9 -5 -9 -48
-16 -47 -15 -44 -11 -43 -11 5 -35 6 -34 -19 -10 -19 -10 -33 0 -33 1 -18 13
-18 14 -1 19 -1 18 8 37 7 36 -20 11 -21 11 -76 0 -77 0 6 -77z"/>
</g>
</svg>
