<?xml version="1.0" standalone="no"?>
<!DOCTYPE svg PUBLIC "-//W3C//DTD SVG 20010904//EN"
 "http://www.w3.org/TR/2001/REC-SVG-20010904/DTD/svg10.dtd">
<svg version="1.0" xmlns="http://www.w3.org/2000/svg"
 width="80.000000pt" height="52.000000pt" viewBox="0 0 80.000000 52.000000"
 preserveAspectRatio="xMidYMid meet">
<metadata>
Created by potrace 1.16, written by Peter Selinger 2001-2019
</metadata>
<g transform="translate(0.000000,52.000000) scale(0.100000,-0.100000)"
fill="#000000" stroke="none">
<path d="M155 443 l6 -78 -9 -30 -9 -30 -63 4 -63 3 -8 -13 -9 -14 0 -17 0
-18 21 -21 21 -21 38 7 38 6 7 -12 8 -12 8 -90 9 -90 2 -3 3 -3 85 -3 85 -3
-3 28 -4 29 12 28 12 28 30 13 30 12 17 -10 16 -11 -2 -50 -2 -51 32 -10 32
-11 80 8 80 7 -4 40 -5 40 0 45 -1 45 53 -3 52 -4 25 24 25 23 0 37 0 38 -25
16 -25 17 -39 -7 -39 -6 -6 16 -6 16 0 84 0 84 -22 -14 -23 -14 -35 -10 -35
-11 -43 -11 -43 -11 7 -34 6 -33 -20 -11 -21 -11 -43 0 -43 1 -16 12 -16 12
-6 20 -7 20 10 35 10 35 -17 13 -17 12 -68 0 -68 0 5 -77z"/>
</g>
</svg>
