<?xml version="1.0" standalone="no"?>
<!DOCTYPE svg PUBLIC "-//W3C//DTD SVG 20010904//EN"
 "http://www.w3.org/TR/2001/REC-SVG-20010904/DTD/svg10.dtd">
<svg version="1.0" xmlns="http://www.w3.org/2000/svg"
 width="71.000000pt" height="54.000000pt" viewBox="0 0 71.000000 54.000000"
 preserveAspectRatio="xMidYMid meet">
<metadata>
Created by potrace 1.16, written by Peter Selinger 2001-2019
</metadata>
<g transform="translate(0.000000,54.000000) scale(0.100000,-0.100000)"
fill="#000000" stroke="none">
<path d="M20 443 l0 -98 9 -14 9 -14 37 7 37 7 24 -16 24 -15 0 -28 0 -27 -24
-23 -25 -23 -53 3 -53 3 -4 -30 -3 -30 12 -66 11 -66 76 -7 76 -6 34 0 35 0
-7 50 -7 51 12 14 12 15 24 0 24 0 0 -29 0 -29 13 -10 13 -11 75 -12 74 -11
33 -15 33 -16 3 4 3 4 20 65 21 65 7 32 7 33 11 7 12 8 34 0 34 0 10 28 9 28
-6 24 -6 25 -31 16 -31 16 -49 -4 -49 -3 -1 10 -2 10 3 83 2 82 -13 0 -13 0
-88 -11 -88 -12 -17 -12 -17 -13 11 -24 11 -24 -10 -17 -9 -17 -24 0 -24 0
-14 20 -14 20 11 41 10 40 -14 9 -15 10 -102 0 -103 0 0 -97z"/>
</g>
</svg>
