<?xml version="1.0" standalone="no"?>
<!DOCTYPE svg PUBLIC "-//W3C//DTD SVG 20010904//EN"
 "http://www.w3.org/TR/2001/REC-SVG-20010904/DTD/svg10.dtd">
<svg version="1.0" xmlns="http://www.w3.org/2000/svg"
 width="69.000000pt" height="52.000000pt" viewBox="0 0 69.000000 52.000000"
 preserveAspectRatio="xMidYMid meet">
<metadata>
Created by potrace 1.16, written by Peter Selinger 2001-2019
</metadata>
<g transform="translate(0.000000,52.000000) scale(0.100000,-0.100000)"
fill="#000000" stroke="none">
<path d="M20 436 l0 -84 6 -16 6 -16 39 6 39 7 25 -17 25 -16 0 -38 0 -37 -25
-23 -25 -24 -52 4 -53 3 -3 -20 -4 -20 12 -66 11 -67 95 -7 95 -7 5 5 5 5 -9
35 -10 35 12 24 12 23 39 0 40 0 -3 -26 -3 -26 13 -10 13 -11 89 -15 89 -16
10 -10 11 -11 13 38 13 37 16 60 16 60 11 13 11 14 33 -7 33 -6 10 27 11 27
-6 18 -6 19 -31 16 -32 16 -47 -5 -48 -6 -4 12 -5 12 6 84 5 83 -39 -6 -39 -5
-50 -7 -50 -7 -18 -9 -17 -9 10 -20 11 -20 -6 -20 -7 -20 -25 -10 -24 -9 -19
10 -20 10 -10 21 -11 20 12 36 11 35 -13 9 -14 9 -92 0 -93 0 0 -84z"/>
</g>
</svg>
