<?xml version="1.0" standalone="no"?>
<!DOCTYPE svg PUBLIC "-//W3C//DTD SVG 20010904//EN"
 "http://www.w3.org/TR/2001/REC-SVG-20010904/DTD/svg10.dtd">
<svg version="1.0" xmlns="http://www.w3.org/2000/svg"
 width="81.000000pt" height="67.000000pt" viewBox="0 0 81.000000 67.000000"
 preserveAspectRatio="xMidYMid meet">
<metadata>
Created by potrace 1.16, written by Peter Selinger 2001-2019
</metadata>
<g transform="translate(0.000000,67.000000) scale(0.100000,-0.100000)"
fill="#000000" stroke="none">
<path d="M371 653 l-22 -18 0 -20 0 -20 7 -31 6 -32 -23 -16 -23 -16 -78 0
-78 0 0 -81 0 -80 -11 -20 -10 -20 -61 3 -61 3 -8 -27 -7 -26 7 -34 7 -33 20
1 19 1 15 4 15 4 18 -60 18 -60 14 -32 14 -32 266 -3 265 -3 5 13 5 14 0 49 0
50 11 20 10 20 19 -6 19 -6 20 11 20 10 10 36 10 35 -11 30 -10 29 -22 6 -23
5 -29 -3 -29 -3 -3 80 -2 80 -5 12 -4 11 -38 -14 -38 -13 -50 0 -50 -1 -14 9
-14 9 13 32 13 31 -13 42 -12 42 -16 18 -15 17 -22 0 -23 0 -21 -17z"/>
</g>
</svg>
