<?xml version="1.0" standalone="no"?>
<!DOCTYPE svg PUBLIC "-//W3C//DTD SVG 20010904//EN"
 "http://www.w3.org/TR/2001/REC-SVG-20010904/DTD/svg10.dtd">
<svg version="1.0" xmlns="http://www.w3.org/2000/svg"
 width="64.000000pt" height="68.000000pt" viewBox="0 0 64.000000 68.000000"
 preserveAspectRatio="xMidYMid meet">
<metadata>
Created by potrace 1.16, written by Peter Selinger 2001-2019
</metadata>
<g transform="translate(0.000000,68.000000) scale(0.100000,-0.100000)"
fill="#000000" stroke="none">
<path d="M0 597 l0 -85 14 -11 14 -11 55 6 55 7 11 -21 11 -21 0 -36 0 -36
-11 -21 -11 -20 -28 6 -28 5 -10 -12 -9 -12 -12 -52 -13 -51 -13 -19 -14 -18
-1 -12 0 -13 64 0 65 0 24 -9 25 -10 7 -21 7 -22 -11 -11 -11 -11 0 -22 0 -23
26 -20 27 -21 19 0 19 0 20 11 20 10 10 26 9 25 -11 40 -11 41 14 9 13 8 87
-2 87 -3 -1 15 -1 15 2 65 2 65 14 19 14 18 29 -10 29 -10 15 9 16 9 7 40 7
41 -16 23 -15 24 -37 -11 -36 -11 -19 23 -19 23 0 77 0 77 -81 -19 -81 -20 5
-23 4 -23 -7 -12 -8 -12 -49 -4 -48 -5 -25 20 -25 20 11 31 12 30 -16 13 -15
13 -89 3 -88 4 0 -85z"/>
</g>
</svg>
