<?xml version="1.0" standalone="no"?>
<!DOCTYPE svg PUBLIC "-//W3C//DTD SVG 20010904//EN"
 "http://www.w3.org/TR/2001/REC-SVG-20010904/DTD/svg10.dtd">
<svg version="1.0" xmlns="http://www.w3.org/2000/svg"
 width="82.000000pt" height="55.000000pt" viewBox="0 0 82.000000 55.000000"
 preserveAspectRatio="xMidYMid meet">
<metadata>
Created by potrace 1.16, written by Peter Selinger 2001-2019
</metadata>
<g transform="translate(0.000000,55.000000) scale(0.100000,-0.100000)"
fill="#000000" stroke="none">
<path d="M140 481 l0 -68 -11 -32 -11 -31 -20 -11 -19 -11 -40 7 -39 7 0 -54
0 -53 8 -12 7 -11 34 1 35 2 25 -100 25 -101 91 4 90 4 19 10 19 10 -7 54 -6
53 19 11 20 10 18 0 19 0 20 -14 19 -15 0 -68 0 -68 60 -3 60 -4 51 12 51 11
21 67 21 67 9 34 8 35 39 0 40 1 3 39 3 39 -5 23 -6 24 -32 16 -31 16 -43 -5
-44 -4 7 90 6 90 -29 -7 -29 -7 -80 -15 -80 -15 -15 -15 -15 -14 13 -20 12
-20 -9 -19 -10 -19 -17 -6 -16 -6 -23 0 -23 0 -21 18 -22 17 13 49 13 48 -20
14 -19 14 -78 0 -78 0 0 -69z"/>
</g>
</svg>
