<?xml version="1.0" standalone="no"?>
<!DOCTYPE svg PUBLIC "-//W3C//DTD SVG 20010904//EN"
 "http://www.w3.org/TR/2001/REC-SVG-20010904/DTD/svg10.dtd">
<svg version="1.0" xmlns="http://www.w3.org/2000/svg"
 width="54.000000pt" height="51.000000pt" viewBox="0 0 54.000000 51.000000"
 preserveAspectRatio="xMidYMid meet">
<metadata>
Created by potrace 1.16, written by Peter Selinger 2001-2019
</metadata>
<g transform="translate(0.000000,51.000000) scale(0.100000,-0.100000)"
fill="#000000" stroke="none">
<path d="M10 481 l0 -28 -7 -62 -6 -63 45 7 45 7 32 -16 31 -16 6 -24 6 -24
-4 -28 -3 -29 -39 0 -40 0 -17 -65 -17 -65 -11 -28 -11 -28 0 -10 0 -9 79 0
79 0 12 15 12 15 -12 29 -12 29 12 22 11 21 25 9 25 10 24 -6 24 -6 6 -19 6
-18 -11 -21 -11 -20 11 -19 10 -20 57 -6 58 -5 38 -4 39 -4 15 36 15 37 2 65
1 65 -65 -3 -65 -3 -22 21 -23 21 0 18 0 17 21 23 21 23 37 -7 36 -6 18 -5 17
-5 0 101 0 101 -28 -15 -29 -15 -49 -12 -49 -11 -23 -15 -23 -14 13 -16 12
-15 -23 -19 -23 -19 -27 0 -27 0 -18 13 -19 14 13 35 13 35 -6 17 -7 17 -35
14 -34 15 -66 0 -65 0 0 -29z"/>
</g>
</svg>
