<?xml version="1.0" standalone="no"?>
<!DOCTYPE svg PUBLIC "-//W3C//DTD SVG 20010904//EN"
 "http://www.w3.org/TR/2001/REC-SVG-20010904/DTD/svg10.dtd">
<svg version="1.0" xmlns="http://www.w3.org/2000/svg"
 width="55.000000pt" height="66.000000pt" viewBox="0 0 55.000000 66.000000"
 preserveAspectRatio="xMidYMid meet">
<metadata>
Created by potrace 1.16, written by Peter Selinger 2001-2019
</metadata>
<g transform="translate(0.000000,66.000000) scale(0.100000,-0.100000)"
fill="#000000" stroke="none">
<path d="M10 576 l0 -85 9 -24 10 -25 21 -7 21 -7 29 12 28 12 20 -11 20 -10
4 -19 5 -18 -8 -22 -8 -22 -28 -11 -28 -10 -38 12 -38 12 -8 -9 -9 -9 -4 -108
-5 -107 31 4 31 5 56 6 56 6 5 -46 6 -46 23 -25 22 -24 42 0 42 0 28 26 28 25
-6 55 -6 54 8 4 7 5 69 -16 68 -15 12 16 12 16 7 68 7 68 -10 27 -11 27 -6 0
-7 0 -40 -12 -39 -12 -14 19 -14 19 0 26 0 26 11 11 11 11 36 -5 35 -6 13 18
14 19 0 93 0 93 -93 0 -93 0 -19 -14 -19 -14 13 -26 14 -25 -16 -25 -16 -24
-20 -7 -20 -6 -36 15 -36 16 7 46 7 46 -14 9 -14 9 -82 0 -83 0 0 -84z"/>
</g>
</svg>
