<?xml version="1.0" standalone="no"?>
<!DOCTYPE svg PUBLIC "-//W3C//DTD SVG 20010904//EN"
 "http://www.w3.org/TR/2001/REC-SVG-20010904/DTD/svg10.dtd">
<svg version="1.0" xmlns="http://www.w3.org/2000/svg"
 width="59.000000pt" height="70.000000pt" viewBox="0 0 59.000000 70.000000"
 preserveAspectRatio="xMidYMid meet">
<metadata>
Created by potrace 1.16, written by Peter Selinger 2001-2019
</metadata>
<g transform="translate(0.000000,70.000000) scale(0.100000,-0.100000)"
fill="#000000" stroke="none">
<path d="M255 683 l-17 -17 5 -58 5 -58 -98 6 -99 7 -6 -37 -7 -37 6 -62 7
-61 11 -19 10 -19 60 4 59 4 10 -18 10 -18 -25 -25 -25 -25 -18 -2 -18 -1 -60
-1 -60 -1 0 -60 1 -60 21 -46 20 -46 98 -2 97 -2 20 7 20 6 -7 57 -6 57 20 24
20 25 23 -23 23 -23 -1 -72 -2 -72 12 -7 11 -8 46 0 45 0 50 15 49 15 12 8 12
7 -9 93 -9 93 -12 16 -13 15 -36 -6 -37 -6 -22 24 -23 24 11 20 10 20 17 6 17
7 33 -11 33 -11 21 11 20 11 0 94 0 93 -6 16 -6 16 -67 19 -66 19 -28 7 -28 6
6 33 7 33 -24 6 -23 7 -42 0 -42 0 -16 -17z"/>
</g>
</svg>
