<?xml version="1.0" standalone="no"?>
<!DOCTYPE svg PUBLIC "-//W3C//DTD SVG 20010904//EN"
 "http://www.w3.org/TR/2001/REC-SVG-20010904/DTD/svg10.dtd">
<svg version="1.0" xmlns="http://www.w3.org/2000/svg"
 width="57.000000pt" height="68.000000pt" viewBox="0 0 57.000000 68.000000"
 preserveAspectRatio="xMidYMid meet">
<metadata>
Created by potrace 1.16, written by Peter Selinger 2001-2019
</metadata>
<g transform="translate(0.000000,68.000000) scale(0.100000,-0.100000)"
fill="#000000" stroke="none">
<path d="M255 663 l-17 -17 5 -40 5 -41 3 -15 4 -15 -102 3 -101 4 -7 -32 -7
-32 7 -57 7 -56 10 -19 10 -19 59 7 58 6 11 -21 11 -20 -6 -20 -7 -20 -26 -17
-26 -17 -71 0 -70 0 -2 -40 -3 -40 23 -54 22 -55 95 -3 95 -4 14 10 14 9 -10
41 -11 40 17 33 16 33 21 3 20 3 20 -22 19 -21 0 -72 -1 -71 11 -7 10 -8 36 0
35 0 50 15 49 15 11 7 11 8 -8 84 -7 84 -16 16 -16 16 -20 -13 -20 -12 -18 9
-17 9 -19 21 -18 20 6 26 7 26 24 11 25 11 34 -10 33 -10 17 9 16 9 0 84 0 83
-6 16 -6 16 -67 19 -66 19 -29 7 -28 6 5 34 5 33 -21 6 -22 6 -32 0 -32 0 -16
-17z"/>
</g>
</svg>
