<?xml version="1.0" standalone="no"?>
<!DOCTYPE svg PUBLIC "-//W3C//DTD SVG 20010904//EN"
 "http://www.w3.org/TR/2001/REC-SVG-20010904/DTD/svg10.dtd">
<svg version="1.0" xmlns="http://www.w3.org/2000/svg"
 width="66.000000pt" height="65.000000pt" viewBox="0 0 66.000000 65.000000"
 preserveAspectRatio="xMidYMid meet">
<metadata>
Created by potrace 1.16, written by Peter Selinger 2001-2019
</metadata>
<g transform="translate(0.000000,65.000000) scale(0.100000,-0.100000)"
fill="#000000" stroke="none">
<path d="M358 639 l-17 -9 6 -50 6 -49 -27 -11 -27 -10 -70 0 -69 0 0 -95 0
-94 -16 -9 -17 -9 -33 10 -34 10 -25 -11 -24 -11 -7 -26 -6 -26 18 -20 19 -21
17 -9 18 -9 20 12 20 13 16 -16 16 -16 7 -81 7 -81 8 -8 8 -8 101 0 102 0 -4
15 -3 15 -5 37 -6 37 26 12 26 12 25 -7 25 -6 15 -16 16 -15 -12 -19 -12 -18
13 -15 12 -16 64 -6 65 -7 13 5 14 5 -17 69 -17 68 -7 29 -7 28 -35 -7 -36 -6
-14 12 -14 11 0 37 0 38 23 21 23 22 23 0 22 0 19 -10 19 -10 15 22 16 22 0
73 0 73 -64 0 -65 0 -26 10 -26 10 6 44 7 44 -23 16 -23 16 -36 0 -35 -1 -17
-10z"/>
</g>
</svg>
