<?xml version="1.0" standalone="no"?>
<!DOCTYPE svg PUBLIC "-//W3C//DTD SVG 20010904//EN"
 "http://www.w3.org/TR/2001/REC-SVG-20010904/DTD/svg10.dtd">
<svg version="1.0" xmlns="http://www.w3.org/2000/svg"
 width="53.000000pt" height="65.000000pt" viewBox="0 0 53.000000 65.000000"
 preserveAspectRatio="xMidYMid meet">
<metadata>
Created by potrace 1.16, written by Peter Selinger 2001-2019
</metadata>
<g transform="translate(0.000000,65.000000) scale(0.100000,-0.100000)"
fill="#000000" stroke="none">
<path d="M245 642 l-20 -7 0 -50 0 -49 -25 -13 -25 -13 -82 0 -83 0 -2 -55 -2
-55 0 -27 -1 -28 41 3 40 3 41 -16 42 -17 9 -26 9 -27 -8 -21 -8 -22 -21 -15
-22 -16 -24 11 -24 11 -14 -19 -15 -19 -11 -64 -11 -65 -10 -17 -9 -17 63 -7
62 -7 55 4 55 3 -4 30 -5 30 0 40 -1 40 31 3 31 3 13 -16 14 -17 -11 -29 -11
-29 14 -14 14 -14 77 -7 78 -8 23 -8 22 -9 0 10 0 9 -9 6 -10 5 -17 78 -17 77
-8 17 -9 17 -29 -10 -30 -10 -20 11 -21 11 0 33 0 33 19 17 20 18 58 -4 58 -3
9 36 9 36 -7 65 -7 66 -27 11 -27 10 -65 16 -65 17 -13 11 -14 11 5 22 4 22
-21 6 -21 6 -5 -1 -5 -1 -20 -6z"/>
</g>
</svg>
