<?xml version="1.0" standalone="no"?>
<!DOCTYPE svg PUBLIC "-//W3C//DTD SVG 20010904//EN"
 "http://www.w3.org/TR/2001/REC-SVG-20010904/DTD/svg10.dtd">
<svg version="1.0" xmlns="http://www.w3.org/2000/svg"
 width="55.000000pt" height="67.000000pt" viewBox="0 0 55.000000 67.000000"
 preserveAspectRatio="xMidYMid meet">
<metadata>
Created by potrace 1.16, written by Peter Selinger 2001-2019
</metadata>
<g transform="translate(0.000000,67.000000) scale(0.100000,-0.100000)"
fill="#000000" stroke="none">
<path d="M244 663 l-22 -4 2 -52 1 -51 -25 -13 -25 -13 -81 0 -81 0 -7 -86 -6
-86 6 -9 6 -10 38 6 37 6 39 -16 38 -16 8 -12 8 -12 0 -21 0 -21 -18 -16 -18
-16 -35 5 -35 6 -12 -24 -12 -23 -14 -65 -14 -65 -7 -22 -7 -21 64 -7 63 -6
65 3 65 3 -1 25 -1 25 -8 42 -8 43 18 6 18 7 16 -10 16 -11 -2 -13 -2 -14 -5
-20 -6 -20 9 -15 10 -14 88 -12 88 -11 28 -8 27 -7 0 20 0 21 -10 6 -9 6 -17
80 -18 80 -11 16 -12 16 -30 -10 -30 -11 -16 10 -17 9 0 23 0 23 19 17 19 18
56 -7 56 -7 10 27 10 26 0 43 0 43 -6 46 -7 46 -26 10 -26 10 -65 16 -65 17
-12 10 -13 10 6 23 5 22 -23 7 -23 6 -15 -1 -15 -2 -21 -4z"/>
</g>
</svg>
