<?xml version="1.0" standalone="no"?>
<!DOCTYPE svg PUBLIC "-//W3C//DTD SVG 20010904//EN"
 "http://www.w3.org/TR/2001/REC-SVG-20010904/DTD/svg10.dtd">
<svg version="1.0" xmlns="http://www.w3.org/2000/svg"
 width="67.000000pt" height="80.000000pt" viewBox="0 0 67.000000 80.000000"
 preserveAspectRatio="xMidYMid meet">
<metadata>
Created by potrace 1.16, written by Peter Selinger 2001-2019
</metadata>
<g transform="translate(0.000000,80.000000) scale(0.100000,-0.100000)"
fill="#000000" stroke="none">
<path d="M199 779 l-21 -21 6 -38 6 -38 6 -17 6 -16 -91 7 -91 7 0 -75 0 -74
13 -18 14 -19 36 12 36 12 23 -12 23 -12 7 -11 8 -11 0 -36 0 -36 -19 -18 -20
-17 -68 3 -68 4 0 -60 1 -60 7 -37 8 -38 68 0 67 0 18 -13 17 -13 -13 -48 -13
-48 24 -19 23 -19 39 0 39 0 20 20 20 20 0 18 0 18 -10 10 -11 11 14 11 13 11
73 12 73 11 27 11 26 12 0 87 0 87 10 10 11 11 38 -12 38 -12 19 23 19 23 0
38 0 37 -20 18 -19 18 -57 -5 -56 -5 7 83 7 82 -9 5 -8 5 -70 -14 -70 -13 -20
0 -20 0 -18 13 -18 14 13 45 12 46 -12 25 -12 26 -40 0 -40 0 -21 -21z"/>
</g>
</svg>
