<?xml version="1.0" standalone="no"?>
<!DOCTYPE svg PUBLIC "-//W3C//DTD SVG 20010904//EN"
 "http://www.w3.org/TR/2001/REC-SVG-20010904/DTD/svg10.dtd">
<svg version="1.0" xmlns="http://www.w3.org/2000/svg"
 width="69.000000pt" height="82.000000pt" viewBox="0 0 69.000000 82.000000"
 preserveAspectRatio="xMidYMid meet">
<metadata>
Created by potrace 1.16, written by Peter Selinger 2001-2019
</metadata>
<g transform="translate(0.000000,82.000000) scale(0.100000,-0.100000)"
fill="#000000" stroke="none">
<path d="M199 799 l-21 -21 6 -53 6 -53 -85 6 -85 5 0 -85 0 -84 14 -19 14
-20 40 11 40 11 19 -10 18 -10 7 -11 8 -11 0 -26 0 -26 -19 -17 -19 -17 -69 3
-68 3 0 -70 1 -70 7 -37 8 -38 65 0 65 0 19 -10 19 -10 -9 -26 -10 -25 0 -29
0 -29 22 -15 22 -16 48 0 48 0 21 21 20 20 -2 34 -3 34 5 5 5 5 69 11 70 11
31 11 32 11 -5 58 -6 57 7 36 7 37 48 -7 48 -6 17 23 16 23 0 47 0 46 -18 16
-19 17 -57 0 -56 0 6 79 7 78 -11 7 -11 7 -85 -16 -85 -16 -19 12 -20 13 9 23
9 24 0 30 0 30 -10 20 -11 19 -49 0 -50 0 -21 -21z"/>
</g>
</svg>
