<?xml version="1.0" standalone="no"?>
<!DOCTYPE svg PUBLIC "-//W3C//DTD SVG 20010904//EN"
 "http://www.w3.org/TR/2001/REC-SVG-20010904/DTD/svg10.dtd">
<svg version="1.0" xmlns="http://www.w3.org/2000/svg"
 width="81.000000pt" height="65.000000pt" viewBox="0 0 81.000000 65.000000"
 preserveAspectRatio="xMidYMid meet">
<metadata>
Created by potrace 1.16, written by Peter Selinger 2001-2019
</metadata>
<g transform="translate(0.000000,65.000000) scale(0.100000,-0.100000)"
fill="#000000" stroke="none">
<path d="M353 639 l-33 -9 -10 -19 -10 -19 11 -32 11 -31 -7 -7 -7 -7 -86 -5
-87 -5 -3 -88 -3 -88 -17 5 -17 5 -28 7 -28 6 -19 -17 -20 -18 0 -57 0 -56 14
-20 15 -19 20 12 19 12 11 -13 10 -12 11 -55 11 -54 10 -25 10 -26 98 1 98 0
17 14 17 14 -7 54 -6 53 31 0 31 0 20 -20 21 -21 -7 -35 -7 -36 14 -9 14 -9
85 0 86 0 12 12 12 12 0 52 0 53 10 25 10 26 37 -6 38 -5 18 13 17 13 9 33 10
32 -24 28 -23 27 -62 0 -62 0 6 85 7 85 -8 11 -8 11 -24 13 -24 12 -61 17 -61
16 -3 33 -3 32 -17 0 -17 0 -20 4 -20 5 -32 -10z"/>
</g>
</svg>
