<?xml version="1.0" standalone="no"?>
<!DOCTYPE svg PUBLIC "-//W3C//DTD SVG 20010904//EN"
 "http://www.w3.org/TR/2001/REC-SVG-20010904/DTD/svg10.dtd">
<svg version="1.0" xmlns="http://www.w3.org/2000/svg"
 width="83.000000pt" height="67.000000pt" viewBox="0 0 83.000000 67.000000"
 preserveAspectRatio="xMidYMid meet">
<metadata>
Created by potrace 1.16, written by Peter Selinger 2001-2019
</metadata>
<g transform="translate(0.000000,67.000000) scale(0.100000,-0.100000)"
fill="#000000" stroke="none">
<path d="M352 659 l-33 -10 -11 -24 -10 -23 10 -31 11 -31 -22 -5 -22 -5 -70
-2 -70 -3 -3 -83 -3 -83 -45 7 -45 6 -19 -17 -20 -18 0 -64 0 -64 11 -20 10
-20 32 3 32 3 13 -60 14 -60 10 -27 10 -26 108 1 108 2 17 15 17 14 -6 53 -6
53 18 0 18 0 19 -14 19 -14 -2 -42 -3 -43 13 -8 13 -9 95 0 96 0 12 12 12 12
1 55 0 56 8 20 8 20 36 -3 36 -3 20 10 20 11 11 41 11 41 -16 24 -16 25 -25 9
-25 10 -45 0 -45 0 7 69 6 70 -6 24 -6 24 -37 16 -38 16 -50 13 -50 14 -3 31
-3 31 -37 6 -37 6 -10 -1 -10 -1 -33 -9z"/>
</g>
</svg>
