<?xml version="1.0" standalone="no"?>
<!DOCTYPE svg PUBLIC "-//W3C//DTD SVG 20010904//EN"
 "http://www.w3.org/TR/2001/REC-SVG-20010904/DTD/svg10.dtd">
<svg version="1.0" xmlns="http://www.w3.org/2000/svg"
 width="69.000000pt" height="82.000000pt" viewBox="0 0 69.000000 82.000000"
 preserveAspectRatio="xMidYMid meet">
<metadata>
Created by potrace 1.16, written by Peter Selinger 2001-2019
</metadata>
<g transform="translate(0.000000,82.000000) scale(0.100000,-0.100000)"
fill="#000000" stroke="none">
<path d="M373 810 l-22 -9 -7 -24 -6 -25 4 -43 3 -44 -90 0 -90 0 -5 -76 -5
-76 -14 -16 -13 -17 -18 10 -19 10 -24 0 -24 0 -21 -23 -22 -23 0 -36 0 -36
14 -11 14 -12 36 6 35 7 9 -39 10 -38 13 -55 13 -55 -2 -7 -2 -8 77 0 78 0 25
-13 25 -13 0 -64 0 -63 30 -9 30 -8 37 6 37 6 11 13 10 13 -2 33 -3 33 50 13
50 14 43 16 43 15 -7 17 -7 16 -19 75 -20 75 -16 13 -17 13 -18 -5 -17 -4 -10
18 -10 19 0 31 0 31 26 25 25 26 22 -7 22 -7 23 -5 22 -5 1 23 1 24 -2 65 -2
65 -11 7 -11 7 -66 6 -65 6 -37 10 -38 10 0 15 0 15 11 20 11 21 -18 19 -17
19 -21 -1 -21 0 -22 -9z"/>
</g>
</svg>
