<?xml version="1.0" standalone="no"?>
<!DOCTYPE svg PUBLIC "-//W3C//DTD SVG 20010904//EN"
 "http://www.w3.org/TR/2001/REC-SVG-20010904/DTD/svg10.dtd">
<svg version="1.0" xmlns="http://www.w3.org/2000/svg"
 width="86.000000pt" height="80.000000pt" viewBox="0 0 86.000000 80.000000"
 preserveAspectRatio="xMidYMid meet">
<metadata>
Created by potrace 1.16, written by Peter Selinger 2001-2019
</metadata>
<g transform="translate(0.000000,80.000000) scale(0.100000,-0.100000)"
fill="#000000" stroke="none">
<path d="M390 787 l-25 -12 -9 -28 -10 -28 11 -29 11 -29 -6 -5 -5 -6 -98 0
-97 0 -4 -81 -3 -80 -25 -20 -25 -19 -17 5 -18 5 -19 6 -18 6 -17 -17 -16 -16
0 -43 0 -43 18 -15 17 -16 21 -6 21 -7 28 11 27 10 14 -11 13 -11 3 -86 3 -87
85 -5 85 -5 12 -8 11 -7 -5 -39 -5 -39 26 -17 26 -17 56 4 56 5 9 14 9 14 -5
22 -5 22 72 16 73 16 19 14 19 14 -11 28 -11 28 -11 56 -11 56 6 14 5 14 76
-3 76 -4 19 18 19 17 0 36 0 36 -10 15 -9 15 -73 0 -73 0 -5 90 -5 90 -40 -4
-40 -4 -60 -1 -60 -1 3 61 4 61 -27 22 -28 21 -11 0 -11 0 -25 -13z"/>
</g>
</svg>
