<?xml version="1.0" standalone="no"?>
<!DOCTYPE svg PUBLIC "-//W3C//DTD SVG 20010904//EN"
 "http://www.w3.org/TR/2001/REC-SVG-20010904/DTD/svg10.dtd">
<svg version="1.0" xmlns="http://www.w3.org/2000/svg"
 width="84.000000pt" height="78.000000pt" viewBox="0 0 84.000000 78.000000"
 preserveAspectRatio="xMidYMid meet">
<metadata>
Created by potrace 1.16, written by Peter Selinger 2001-2019
</metadata>
<g transform="translate(0.000000,78.000000) scale(0.100000,-0.100000)"
fill="#000000" stroke="none">
<path d="M392 769 l-22 -8 -11 -25 -12 -25 13 -30 12 -30 -7 -10 -6 -11 -100
0 -99 0 0 -64 0 -65 -9 -23 -9 -23 -26 -15 -27 -14 -30 11 -29 11 -15 -15 -15
-14 0 -33 0 -33 17 -16 18 -15 15 -3 15 -3 33 8 33 8 14 -12 14 -12 3 -86 3
-87 86 -5 86 -5 16 -13 15 -13 -12 -30 -11 -31 25 -20 25 -20 48 5 49 4 8 12
7 12 -4 24 -5 23 72 16 71 16 19 12 19 12 -8 15 -8 16 -13 67 -12 66 6 20 6
19 75 -5 75 -5 20 18 20 18 0 23 0 22 -6 16 -6 15 -33 7 -32 6 -39 -11 -38
-10 -5 5 -6 6 -5 91 -5 92 -30 -5 -30 -4 -70 -1 -70 0 3 58 3 58 -12 15 -12
15 -16 8 -16 9 -23 -9z"/>
</g>
</svg>
