<?xml version="1.0" standalone="no"?>
<!DOCTYPE svg PUBLIC "-//W3C//DTD SVG 20010904//EN"
 "http://www.w3.org/TR/2001/REC-SVG-20010904/DTD/svg10.dtd">
<svg version="1.0" xmlns="http://www.w3.org/2000/svg"
 width="71.000000pt" height="82.000000pt" viewBox="0 0 71.000000 82.000000"
 preserveAspectRatio="xMidYMid meet">
<metadata>
Created by potrace 1.16, written by Peter Selinger 2001-2019
</metadata>
<g transform="translate(0.000000,82.000000) scale(0.100000,-0.100000)"
fill="#000000" stroke="none">
<path d="M369 799 l-11 -21 13 -45 12 -45 -14 -9 -14 -9 -98 0 -99 0 7 -72 7
-73 -10 -26 -10 -26 -56 5 -57 5 -19 -18 -20 -18 0 -43 0 -43 21 -12 21 -11
34 6 33 7 10 -38 9 -38 12 -52 12 -52 13 -11 14 -12 76 4 75 3 0 -58 0 -57 33
-20 32 -20 36 0 36 0 22 24 23 24 -4 49 -3 48 99 3 98 3 -5 22 -5 22 -20 77
-20 76 -6 11 -7 11 -28 0 -29 0 -5 26 -5 26 7 27 8 26 51 -3 50 -4 11 20 11
21 0 74 0 75 -13 10 -13 11 -89 11 -89 11 -8 6 -9 5 6 39 7 40 -12 14 -12 15
-49 0 -48 0 -12 -21z"/>
</g>
</svg>
