<?xml version="1.0" standalone="no"?>
<!DOCTYPE svg PUBLIC "-//W3C//DTD SVG 20010904//EN"
 "http://www.w3.org/TR/2001/REC-SVG-20010904/DTD/svg10.dtd">
<svg version="1.0" xmlns="http://www.w3.org/2000/svg"
 width="69.000000pt" height="80.000000pt" viewBox="0 0 69.000000 80.000000"
 preserveAspectRatio="xMidYMid meet">
<metadata>
Created by potrace 1.16, written by Peter Selinger 2001-2019
</metadata>
<g transform="translate(0.000000,80.000000) scale(0.100000,-0.100000)"
fill="#000000" stroke="none">
<path d="M370 781 l-10 -20 10 -26 10 -26 0 -24 0 -23 -16 -6 -16 -6 -94 0
-94 0 6 -72 6 -73 -11 -28 -11 -27 -55 6 -55 7 -20 -18 -20 -18 0 -33 0 -33
21 -11 20 -11 30 10 29 10 9 -17 8 -17 17 -77 17 -76 15 -13 14 -12 78 6 78 5
-4 -59 -4 -58 33 -20 34 -21 26 0 26 0 22 24 22 24 -3 48 -3 49 98 3 99 3 -7
17 -7 17 -18 72 -18 71 -7 12 -7 11 -26 -3 -25 -3 -9 30 -8 30 6 32 6 32 13
11 14 11 20 -10 20 -11 20 0 20 0 11 19 10 20 0 64 0 65 -13 10 -13 11 -84 10
-84 11 -8 0 -7 0 -11 19 -10 20 11 25 12 25 -13 16 -12 15 -39 0 -38 0 -11
-19z"/>
</g>
</svg>
