<?xml version="1.0" standalone="no"?>
<!DOCTYPE svg PUBLIC "-//W3C//DTD SVG 20010904//EN"
 "http://www.w3.org/TR/2001/REC-SVG-20010904/DTD/svg10.dtd">
<svg version="1.0" xmlns="http://www.w3.org/2000/svg"
 width="72.000000pt" height="83.000000pt" viewBox="0 0 72.000000 83.000000"
 preserveAspectRatio="xMidYMid meet">
<metadata>
Created by potrace 1.16, written by Peter Selinger 2001-2019
</metadata>
<g transform="translate(0.000000,83.000000) scale(0.100000,-0.100000)"
fill="#000000" stroke="none">
<path d="M356 819 l-18 -11 7 -53 6 -54 -22 -12 -23 -12 -84 6 -85 5 6 -89 6
-89 -40 0 -40 0 -28 -15 -29 -14 -6 -16 -6 -17 0 -28 0 -29 26 -20 27 -21 50
0 50 0 -7 -99 -7 -99 60 5 59 6 25 -7 25 -6 -1 -60 -2 -59 20 -15 20 -15 56
-1 55 0 18 13 19 14 -5 31 -5 32 41 11 41 10 45 15 45 15 17 12 16 13 17 78
16 79 -12 34 -11 35 -47 -6 -46 -6 -23 16 -23 16 3 31 3 32 57 -3 56 -4 7 32
7 32 -7 74 -7 73 -91 3 -92 3 3 47 4 47 -26 26 -25 25 -38 0 -38 -1 -19 -10z"/>
</g>
</svg>
