<?xml version="1.0" standalone="no"?>
<!DOCTYPE svg PUBLIC "-//W3C//DTD SVG 20010904//EN"
 "http://www.w3.org/TR/2001/REC-SVG-20010904/DTD/svg10.dtd">
<svg version="1.0" xmlns="http://www.w3.org/2000/svg"
 width="70.000000pt" height="81.000000pt" viewBox="0 0 70.000000 81.000000"
 preserveAspectRatio="xMidYMid meet">
<metadata>
Created by potrace 1.16, written by Peter Selinger 2001-2019
</metadata>
<g transform="translate(0.000000,81.000000) scale(0.100000,-0.100000)"
fill="#000000" stroke="none">
<path d="M355 796 l-19 -14 10 -34 11 -34 -8 -22 -8 -21 -26 -7 -25 -6 -76 4
-76 4 6 -93 7 -92 -35 6 -36 6 -30 -13 -31 -13 -9 -18 -10 -18 0 -20 0 -20 27
-21 28 -21 45 3 45 3 -2 -100 -1 -100 71 3 72 3 18 -13 17 -13 -10 -35 -10
-35 7 -20 6 -20 16 -12 16 -12 43 -1 43 0 21 11 20 11 -6 33 -7 34 43 11 43
11 45 15 45 15 17 12 16 13 15 73 15 72 -10 30 -10 30 -44 -7 -44 -6 -25 16
-25 16 0 39 0 39 14 11 14 11 26 -10 27 -10 19 0 18 0 7 30 7 30 -7 65 -7 64
-92 3 -91 3 0 53 0 54 -24 19 -23 19 -27 0 -27 0 -19 -14z"/>
</g>
</svg>
