<?xml version="1.0" standalone="no"?>
<!DOCTYPE svg PUBLIC "-//W3C//DTD SVG 20010904//EN"
 "http://www.w3.org/TR/2001/REC-SVG-20010904/DTD/svg10.dtd">
<svg version="1.0" xmlns="http://www.w3.org/2000/svg"
 width="87.000000pt" height="80.000000pt" viewBox="0 0 87.000000 80.000000"
 preserveAspectRatio="xMidYMid meet">
<metadata>
Created by potrace 1.16, written by Peter Selinger 2001-2019
</metadata>
<g transform="translate(0.000000,80.000000) scale(0.100000,-0.100000)"
fill="#000000" stroke="none">
<path d="M381 791 l-14 -9 7 -45 7 -45 -13 -8 -13 -9 -90 -5 -90 -5 -3 -95 -3
-95 -68 3 -69 4 -16 -23 -16 -23 0 -33 0 -33 25 -16 25 -16 67 3 68 4 -1 -35
-1 -35 -8 -66 -7 -66 80 5 81 4 27 -6 26 -7 -6 -47 -6 -47 16 -24 17 -23 53 4
53 5 16 13 17 14 -4 63 -4 63 17 5 17 6 67 -16 66 -15 5 0 4 0 0 18 0 18 -10
10 -11 11 -6 71 -6 72 12 14 12 14 33 -10 34 -11 36 7 36 7 17 25 16 25 -9 37
-9 37 -68 0 -68 0 -11 19 -10 19 0 73 1 74 -14 0 -14 0 -5 -9 -5 -8 -62 -17
-62 -18 -13 14 -13 13 9 39 9 40 -6 28 -6 29 -18 9 -18 10 -43 0 -43 0 -14 -9z"/>
</g>
</svg>
