<?xml version="1.0" standalone="no"?>
<!DOCTYPE svg PUBLIC "-//W3C//DTD SVG 20010904//EN"
 "http://www.w3.org/TR/2001/REC-SVG-20010904/DTD/svg10.dtd">
<svg version="1.0" xmlns="http://www.w3.org/2000/svg"
 width="73.000000pt" height="72.000000pt" viewBox="0 0 73.000000 72.000000"
 preserveAspectRatio="xMidYMid meet">
<metadata>
Created by potrace 1.16, written by Peter Selinger 2001-2019
</metadata>
<g transform="translate(0.000000,72.000000) scale(0.100000,-0.100000)"
fill="#000000" stroke="none">
<path d="M331 711 l-14 -9 12 -45 11 -46 0 -15 0 -15 -16 -15 -15 -16 -33 0
-32 0 -18 13 -19 14 13 38 13 38 -19 14 -18 13 -60 0 -61 0 -22 -6 -23 -6 0
-97 0 -96 9 -14 9 -14 46 12 46 11 25 -6 25 -6 6 -25 6 -24 -18 -21 -19 -20
-77 5 -78 6 -6 -26 -7 -25 13 -72 12 -71 10 -17 9 -18 74 0 74 0 15 -16 16
-15 -10 -19 -10 -19 0 -29 0 -29 25 -11 26 -12 32 0 33 0 21 15 21 15 12 35
12 35 -4 32 -3 33 27 3 28 3 61 -16 62 -15 3 2 2 3 16 80 16 80 11 22 12 21
23 -10 23 -11 26 17 26 17 10 26 10 26 -11 33 -11 32 -40 16 -39 16 -43 0 -43
0 4 83 4 83 -56 17 -56 18 -47 5 -48 5 -14 -10z"/>
</g>
</svg>
