<?xml version="1.0" standalone="no"?>
<!DOCTYPE svg PUBLIC "-//W3C//DTD SVG 20010904//EN"
 "http://www.w3.org/TR/2001/REC-SVG-20010904/DTD/svg10.dtd">
<svg version="1.0" xmlns="http://www.w3.org/2000/svg"
 width="52.000000pt" height="69.000000pt" viewBox="0 0 52.000000 69.000000"
 preserveAspectRatio="xMidYMid meet">
<metadata>
Created by potrace 1.16, written by Peter Selinger 2001-2019
</metadata>
<g transform="translate(0.000000,69.000000) scale(0.100000,-0.100000)"
fill="#000000" stroke="none">
<path d="M347 683 l-7 -7 6 -48 7 -48 -13 -30 -13 -31 -28 -14 -28 -15 -21 0
-21 0 -25 25 -26 26 4 64 3 65 -70 0 -70 0 -23 -6 -22 -6 0 -248 0 -248 85 -3
86 -4 8 -14 8 -13 -10 -34 -10 -34 11 -24 11 -25 35 -7 35 -6 38 9 38 9 0 34
0 34 40 14 40 14 43 15 42 15 0 18 0 19 -8 5 -9 5 -23 78 -22 78 -13 13 -13
14 -22 -12 -22 -12 -9 9 -10 10 -5 35 -6 36 22 22 22 22 27 -6 26 -6 20 -5 20
-5 15 9 14 10 6 94 5 94 -56 12 -55 11 -25 0 -26 0 -6 -7z"/>
</g>
</svg>
