<?xml version="1.0" standalone="no"?>
<!DOCTYPE svg PUBLIC "-//W3C//DTD SVG 20010904//EN"
 "http://www.w3.org/TR/2001/REC-SVG-20010904/DTD/svg10.dtd">
<svg version="1.0" xmlns="http://www.w3.org/2000/svg"
 width="54.000000pt" height="71.000000pt" viewBox="0 0 54.000000 71.000000"
 preserveAspectRatio="xMidYMid meet">
<metadata>
Created by potrace 1.16, written by Peter Selinger 2001-2019
</metadata>
<g transform="translate(0.000000,71.000000) scale(0.100000,-0.100000)"
fill="#000000" stroke="none">
<path d="M345 700 l-7 -11 7 -48 7 -49 -16 -30 -15 -29 -30 -13 -31 -12 -25
16 -25 16 -6 26 -7 26 6 49 6 49 -82 0 -82 0 -23 -6 -22 -6 0 -259 0 -259 68
0 67 0 22 -6 23 -6 -6 -52 -6 -51 14 -19 14 -18 45 -5 44 -5 35 9 35 9 3 36 3
37 37 11 37 11 43 15 42 16 0 28 0 29 -8 5 -9 5 -23 78 -23 78 -10 13 -11 14
-32 -6 -32 -6 -6 24 -6 24 6 16 6 17 18 9 18 10 31 -11 31 -11 25 6 24 6 5 33
5 32 4 76 4 76 -57 11 -56 12 -37 0 -36 0 -6 -10z"/>
</g>
</svg>
