<?xml version="1.0" standalone="no"?>
<!DOCTYPE svg PUBLIC "-//W3C//DTD SVG 20010904//EN"
 "http://www.w3.org/TR/2001/REC-SVG-20010904/DTD/svg10.dtd">
<svg version="1.0" xmlns="http://www.w3.org/2000/svg"
 width="79.000000pt" height="68.000000pt" viewBox="0 0 79.000000 68.000000"
 preserveAspectRatio="xMidYMid meet">
<metadata>
Created by potrace 1.16, written by Peter Selinger 2001-2019
</metadata>
<g transform="translate(0.000000,68.000000) scale(0.100000,-0.100000)"
fill="#000000" stroke="none">
<path d="M489 675 l-7 -6 5 -37 5 -37 -21 -27 -22 -27 -33 -7 -34 -6 -31 16
-31 17 0 54 0 55 -39 0 -38 0 -47 -6 -46 -7 2 -98 3 -97 -7 -7 -7 -7 -51 11
-51 11 -20 -10 -19 -11 0 -24 0 -23 6 -16 6 -15 25 12 25 11 13 -18 13 -18 12
-51 12 -52 20 -47 20 -47 97 -3 96 -3 -3 -62 -4 -61 27 -18 27 -17 26 9 27 9
18 35 18 35 -5 57 -6 58 43 0 42 0 44 -20 43 -20 7 0 7 0 2 69 3 69 8 29 8 28
41 -3 41 -2 15 22 16 22 0 22 0 23 -27 21 -28 22 -25 -5 -25 -5 -24 -8 -23 -7
7 100 7 101 -11 6 -11 7 -67 6 -68 5 -6 -7z"/>
</g>
</svg>
