<?xml version="1.0" standalone="no"?>
<!DOCTYPE svg PUBLIC "-//W3C//DTD SVG 20010904//EN"
 "http://www.w3.org/TR/2001/REC-SVG-20010904/DTD/svg10.dtd">
<svg version="1.0" xmlns="http://www.w3.org/2000/svg"
 width="81.000000pt" height="70.000000pt" viewBox="0 0 81.000000 70.000000"
 preserveAspectRatio="xMidYMid meet">
<metadata>
Created by potrace 1.16, written by Peter Selinger 2001-2019
</metadata>
<g transform="translate(0.000000,70.000000) scale(0.100000,-0.100000)"
fill="#000000" stroke="none">
<path d="M486 692 l-7 -12 6 -33 6 -33 -20 -26 -21 -26 -25 -6 -25 -6 -30 15
-30 16 0 54 0 55 -49 0 -48 0 -47 -6 -47 -7 3 -98 3 -98 -5 -5 -5 -5 -49 11
-48 10 -24 -11 -24 -11 0 -37 0 -38 9 -14 10 -15 25 12 26 11 9 -17 9 -17 17
-63 16 -63 16 -34 16 -34 96 -3 95 -3 -3 -61 -2 -62 23 -16 22 -16 29 0 28 0
24 24 24 24 7 37 6 36 -5 40 -5 39 31 0 32 0 44 -20 43 -20 19 0 19 0 1 73 1
72 7 25 7 25 41 -3 41 -4 16 23 16 23 0 32 0 33 -26 20 -27 21 -29 0 -29 0
-20 -11 -20 -10 7 99 7 99 -12 8 -12 7 -78 5 -78 6 -7 -11z"/>
</g>
</svg>
