<?xml version="1.0" standalone="no"?>
<!DOCTYPE svg PUBLIC "-//W3C//DTD SVG 20010904//EN"
 "http://www.w3.org/TR/2001/REC-SVG-20010904/DTD/svg10.dtd">
<svg version="1.0" xmlns="http://www.w3.org/2000/svg"
 width="68.000000pt" height="70.000000pt" viewBox="0 0 68.000000 70.000000"
 preserveAspectRatio="xMidYMid meet">
<metadata>
Created by potrace 1.16, written by Peter Selinger 2001-2019
</metadata>
<g transform="translate(0.000000,70.000000) scale(0.100000,-0.100000)"
fill="#000000" stroke="none">
<path d="M32 689 l-34 -10 4 -90 3 -91 25 -20 24 -20 39 6 38 6 -3 -32 -3 -33
-47 3 -47 3 -9 -18 -10 -18 -4 -102 -4 -103 81 0 80 0 14 -9 15 -10 -3 -51 -3
-52 23 -24 22 -24 44 0 44 0 24 24 24 24 7 37 6 36 -5 40 -5 40 13 5 12 5 63
-21 63 -21 13 5 14 5 0 75 0 74 6 15 6 15 34 -5 34 -6 19 17 19 17 6 30 6 29
-7 31 -6 31 -37 -6 -37 -6 -19 21 -19 21 -4 79 -3 79 -92 0 -91 0 -14 -9 -14
-9 7 -36 7 -35 -15 -30 -15 -29 -16 -6 -17 -6 -24 0 -24 0 -6 25 -6 25 11 47
12 46 -11 11 -11 11 -82 2 -82 2 -33 -10z"/>
</g>
</svg>
