<?xml version="1.0" standalone="no"?>
<!DOCTYPE svg PUBLIC "-//W3C//DTD SVG 20010904//EN"
 "http://www.w3.org/TR/2001/REC-SVG-20010904/DTD/svg10.dtd">
<svg version="1.0" xmlns="http://www.w3.org/2000/svg"
 width="65.000000pt" height="53.000000pt" viewBox="0 0 65.000000 53.000000"
 preserveAspectRatio="xMidYMid meet">
<metadata>
Created by potrace 1.16, written by Peter Selinger 2001-2019
</metadata>
<g transform="translate(0.000000,53.000000) scale(0.100000,-0.100000)"
fill="#000000" stroke="none">
<path d="M39 523 l-27 -4 -5 -26 -5 -26 8 -64 8 -64 18 -21 19 -20 37 4 38 4
0 -37 0 -36 -20 -18 -20 -19 -12 12 -12 12 -18 0 -17 0 -11 -19 -10 -20 0 -90
0 -91 88 0 88 0 22 20 22 21 0 44 0 45 26 0 25 0 20 -10 19 -11 0 -28 0 -29
13 -10 13 -11 59 -10 60 -10 33 -7 32 -6 0 94 0 94 13 18 13 18 21 -13 21 -13
26 17 26 17 0 51 0 50 -27 -2 -28 -2 -20 7 -21 7 -12 29 -13 29 0 60 -1 61
-86 0 -87 0 -12 -8 -12 -7 2 -49 2 -48 -30 -24 -30 -24 -25 5 -25 6 -13 17
-13 17 6 56 7 56 -24 6 -23 7 -50 -2 -50 -1 -26 -4z"/>
</g>
</svg>
