<?xml version="1.0" standalone="no"?>
<!DOCTYPE svg PUBLIC "-//W3C//DTD SVG 20010904//EN"
 "http://www.w3.org/TR/2001/REC-SVG-20010904/DTD/svg10.dtd">
<svg version="1.0" xmlns="http://www.w3.org/2000/svg"
 width="63.000000pt" height="51.000000pt" viewBox="0 0 63.000000 51.000000"
 preserveAspectRatio="xMidYMid meet">
<metadata>
Created by potrace 1.16, written by Peter Selinger 2001-2019
</metadata>
<g transform="translate(0.000000,51.000000) scale(0.100000,-0.100000)"
fill="#000000" stroke="none">
<path d="M38 503 l-27 -4 -3 -22 -3 -22 6 -58 7 -58 18 -20 19 -21 37 6 38 6
2 -22 1 -23 -2 -25 -2 -25 -16 -17 -16 -18 -17 0 -16 0 -13 13 -12 12 -15 -19
-14 -20 0 -83 0 -83 78 0 78 0 23 21 23 22 -5 43 -5 44 42 0 42 0 20 -15 21
-14 -4 -24 -5 -23 14 -12 14 -11 66 -11 67 -10 15 -6 16 -6 0 92 0 91 10 20
11 19 17 0 18 0 10 -10 10 -10 22 16 22 15 0 40 0 40 -20 -6 -20 -6 -29 12
-28 12 -12 28 -12 27 -2 61 -1 61 -76 0 -75 0 -10 -8 -11 -7 1 -48 0 -49 -30
-24 -30 -25 -35 5 -35 6 -13 17 -14 18 6 56 5 57 -22 6 -22 6 -40 -2 -40 -1
-27 -4z"/>
</g>
</svg>
