<?xml version="1.0" standalone="no"?>
<!DOCTYPE svg PUBLIC "-//W3C//DTD SVG 20010904//EN"
 "http://www.w3.org/TR/2001/REC-SVG-20010904/DTD/svg10.dtd">
<svg version="1.0" xmlns="http://www.w3.org/2000/svg"
 width="70.000000pt" height="83.000000pt" viewBox="0 0 70.000000 83.000000"
 preserveAspectRatio="xMidYMid meet">
<metadata>
Created by potrace 1.16, written by Peter Selinger 2001-2019
</metadata>
<g transform="translate(0.000000,83.000000) scale(0.100000,-0.100000)"
fill="#000000" stroke="none">
<path d="M370 803 l-21 -28 3 -45 3 -45 -73 3 -74 4 -24 -6 -24 -6 6 -38 6
-38 -11 -42 -12 -42 -56 6 -56 7 -18 -24 -19 -24 0 -37 0 -37 23 -21 22 -21
65 3 65 3 0 -100 0 -100 82 -5 82 -5 11 -11 11 -11 -11 -27 -10 -27 0 -31 0
-31 18 -13 17 -13 43 -1 42 0 20 20 19 19 7 26 6 25 -4 44 -3 45 20 3 20 3 50
-6 50 -7 28 -7 27 -7 0 266 0 266 -25 10 -26 10 -66 10 -67 11 -13 10 -12 11
6 30 6 30 -14 9 -14 9 -42 0 -42 0 -21 -27z"/>
</g>
</svg>
