<?xml version="1.0" standalone="no"?>
<!DOCTYPE svg PUBLIC "-//W3C//DTD SVG 20010904//EN"
 "http://www.w3.org/TR/2001/REC-SVG-20010904/DTD/svg10.dtd">
<svg version="1.0" xmlns="http://www.w3.org/2000/svg"
 width="68.000000pt" height="81.000000pt" viewBox="0 0 68.000000 81.000000"
 preserveAspectRatio="xMidYMid meet">
<metadata>
Created by potrace 1.16, written by Peter Selinger 2001-2019
</metadata>
<g transform="translate(0.000000,81.000000) scale(0.100000,-0.100000)"
fill="#000000" stroke="none">
<path d="M336 797 l-19 -14 13 -37 12 -38 -11 -11 -12 -12 -89 -3 -90 -4 0
-90 0 -90 -17 7 -18 8 -27 4 -27 5 -25 -25 -26 -26 0 -44 0 -43 13 -18 14 -19
14 5 14 5 17 -8 17 -9 11 -57 12 -58 14 -34 14 -33 80 4 79 3 -2 -68 -2 -69
19 -14 20 -14 58 0 58 0 16 25 16 24 -4 51 -3 50 13 5 14 5 84 0 84 0 0 12 0
13 -19 50 -20 50 -18 60 -18 60 -35 1 -35 0 -4 19 -3 19 16 12 17 12 37 -9 37
-9 21 0 22 0 6 32 6 31 -6 79 -7 78 -11 16 -12 16 -79 26 -80 27 -13 28 -13
27 -53 0 -52 0 -18 -13z"/>
</g>
</svg>
