<?xml version="1.0" standalone="no"?>
<!DOCTYPE svg PUBLIC "-//W3C//DTD SVG 20010904//EN"
 "http://www.w3.org/TR/2001/REC-SVG-20010904/DTD/svg10.dtd">
<svg version="1.0" xmlns="http://www.w3.org/2000/svg"
 width="54.000000pt" height="81.000000pt" viewBox="0 0 54.000000 81.000000"
 preserveAspectRatio="xMidYMid meet">
<metadata>
Created by potrace 1.16, written by Peter Selinger 2001-2019
</metadata>
<g transform="translate(0.000000,81.000000) scale(0.100000,-0.100000)"
fill="#000000" stroke="none">
<path d="M230 790 l-22 -22 4 -50 3 -50 -101 7 -101 7 -6 -77 -7 -78 0 -27 0
-27 59 1 59 1 21 -19 21 -19 0 -24 0 -23 -20 -20 -20 -20 -40 6 -40 6 -10 -26
-10 -27 0 -54 0 -54 -10 -6 -10 -6 0 -20 0 -21 27 6 28 5 65 3 64 3 1 -64 1
-63 23 -19 23 -19 32 0 31 0 11 8 11 7 12 23 12 23 -2 52 -3 52 96 -3 97 -2 6
52 6 53 -3 55 -3 55 -46 -3 -47 -3 -27 24 -28 23 7 22 7 22 31 16 30 15 40 -6
40 -7 -7 103 -7 104 -8 9 -9 9 -77 26 -78 26 -6 25 -6 25 -46 3 -47 3 -21 -21z"/>
</g>
</svg>
