<?xml version="1.0" standalone="no"?>
<!DOCTYPE svg PUBLIC "-//W3C//DTD SVG 20010904//EN"
 "http://www.w3.org/TR/2001/REC-SVG-20010904/DTD/svg10.dtd">
<svg version="1.0" xmlns="http://www.w3.org/2000/svg"
 width="69.000000pt" height="72.000000pt" viewBox="0 0 69.000000 72.000000"
 preserveAspectRatio="xMidYMid meet">
<metadata>
Created by potrace 1.16, written by Peter Selinger 2001-2019
</metadata>
<g transform="translate(0.000000,72.000000) scale(0.100000,-0.100000)"
fill="#000000" stroke="none">
<path d="M498 714 l-6 -6 5 -72 6 -73 -22 -22 -21 -21 -45 0 -45 0 -20 20 -19
19 -7 26 -6 26 5 35 6 34 -33 0 -33 0 -45 -6 -45 -6 -5 -63 -5 -62 -19 -28
-18 -27 -48 5 -48 6 -15 -22 -15 -21 0 -34 0 -33 11 -20 11 -21 37 7 38 6 10
-13 11 -13 7 -35 7 -35 15 -50 15 -50 90 3 91 3 8 -8 9 -9 -12 -30 -11 -30 7
-27 7 -28 19 -19 20 -20 24 0 25 0 20 26 20 26 7 36 7 36 -11 28 -10 28 19 11
19 10 62 -11 62 -12 16 -7 15 -8 10 3 10 4 -3 104 -3 105 -14 11 -13 11 -25
-12 -25 -11 -28 14 -29 13 -3 21 -3 22 28 22 28 22 49 -6 49 -5 -7 52 -6 52 0
46 0 46 -12 1 -13 1 -55 20 -55 20 -21 1 -21 0 -5 -6z"/>
</g>
</svg>
