<?xml version="1.0" standalone="no"?>
<!DOCTYPE svg PUBLIC "-//W3C//DTD SVG 20010904//EN"
 "http://www.w3.org/TR/2001/REC-SVG-20010904/DTD/svg10.dtd">
<svg version="1.0" xmlns="http://www.w3.org/2000/svg"
 width="81.000000pt" height="70.000000pt" viewBox="0 0 81.000000 70.000000"
 preserveAspectRatio="xMidYMid meet">
<metadata>
Created by potrace 1.16, written by Peter Selinger 2001-2019
</metadata>
<g transform="translate(0.000000,70.000000) scale(0.100000,-0.100000)"
fill="#000000" stroke="none">
<path d="M178 693 l-18 -4 0 -60 0 -60 -15 -34 -14 -35 -16 -6 -15 -6 -31 12
-30 13 -15 -15 -15 -14 -6 -36 -5 -37 27 -26 27 -27 39 5 39 5 10 -18 10 -19
0 -86 0 -86 33 5 32 5 52 6 53 6 -6 -43 -6 -44 15 -36 15 -37 40 -11 40 -10
24 9 23 9 16 18 16 19 6 32 6 31 -9 31 -8 30 18 6 18 6 73 -16 73 -15 8 13 8
12 10 35 10 35 0 20 0 20 10 36 10 36 31 -5 31 -5 9 14 9 14 0 46 0 47 -14 12
-15 12 -42 -3 -42 -3 -8 19 -8 20 0 72 -1 72 -8 5 -8 5 -85 -13 -85 -12 -13
-8 -13 -8 7 -35 6 -35 -22 -24 -22 -24 -37 0 -37 0 -17 19 -18 20 7 65 7 66
-73 -1 -74 -1 -17 -5z"/>
</g>
</svg>
