<?xml version="1.0" standalone="no"?>
<!DOCTYPE svg PUBLIC "-//W3C//DTD SVG 20010904//EN"
 "http://www.w3.org/TR/2001/REC-SVG-20010904/DTD/svg10.dtd">
<svg version="1.0" xmlns="http://www.w3.org/2000/svg"
 width="79.000000pt" height="68.000000pt" viewBox="0 0 79.000000 68.000000"
 preserveAspectRatio="xMidYMid meet">
<metadata>
Created by potrace 1.16, written by Peter Selinger 2001-2019
</metadata>
<g transform="translate(0.000000,68.000000) scale(0.100000,-0.100000)"
fill="#000000" stroke="none">
<path d="M178 673 l-18 -4 0 -62 0 -62 -18 -35 -17 -35 -27 -3 -27 -3 -19 10
-20 11 -10 -13 -10 -12 -7 -27 -7 -27 26 -26 27 -27 39 7 38 7 11 -21 11 -20
0 -85 0 -85 13 4 12 3 74 7 73 6 -6 -44 -7 -45 15 -36 15 -35 33 -9 33 -9 17
5 16 4 21 22 20 22 2 29 2 30 -7 32 -7 32 25 7 25 6 70 -14 70 -14 10 23 11
23 10 65 10 64 6 16 7 16 30 -7 29 -6 9 13 9 14 0 36 0 37 -15 12 -15 13 -40
-7 -40 -6 -10 26 -10 25 0 68 0 68 -5 5 -5 5 -78 -12 -77 -11 -12 -7 -12 -7 6
-36 6 -35 -23 -24 -23 -25 -47 0 -47 0 -18 20 -18 20 7 65 7 65 -63 -1 -63 -1
-17 -5z"/>
</g>
</svg>
