<?xml version="1.0" standalone="no"?>
<!DOCTYPE svg PUBLIC "-//W3C//DTD SVG 20010904//EN"
 "http://www.w3.org/TR/2001/REC-SVG-20010904/DTD/svg10.dtd">
<svg version="1.0" xmlns="http://www.w3.org/2000/svg"
 width="68.000000pt" height="67.000000pt" viewBox="0 0 68.000000 67.000000"
 preserveAspectRatio="xMidYMid meet">
<metadata>
Created by potrace 1.16, written by Peter Selinger 2001-2019
</metadata>
<g transform="translate(0.000000,67.000000) scale(0.100000,-0.100000)"
fill="#000000" stroke="none">
<path d="M178 663 l-28 -4 0 -89 0 -88 -6 -15 -5 -14 -44 5 -45 5 -25 -17 -25
-16 0 -38 0 -38 14 -19 13 -18 35 6 36 5 10 -21 11 -22 12 -77 12 -77 51 5 51
5 31 3 30 4 -4 -52 -4 -53 23 -22 23 -21 57 0 57 0 17 27 17 26 -5 48 -6 47
14 6 14 5 66 -10 66 -11 15 6 14 5 0 96 0 96 -14 5 -14 5 -35 -9 -35 -10 -28
15 -29 14 -7 12 -8 12 0 27 0 27 17 16 17 17 74 -6 74 -7 -7 98 -7 98 -4 4 -4
5 -33 -16 -33 -16 -56 -11 -56 -12 -13 -15 -13 -16 12 -18 11 -18 -12 -10 -12
-10 -27 -7 -27 -7 -35 12 -34 11 5 53 6 54 -19 10 -19 10 -50 5 -50 5 -27 -5z"/>
</g>
</svg>
