<?xml version="1.0" standalone="no"?>
<!DOCTYPE svg PUBLIC "-//W3C//DTD SVG 20010904//EN"
 "http://www.w3.org/TR/2001/REC-SVG-20010904/DTD/svg10.dtd">
<svg version="1.0" xmlns="http://www.w3.org/2000/svg"
 width="80.000000pt" height="68.000000pt" viewBox="0 0 80.000000 68.000000"
 preserveAspectRatio="xMidYMid meet">
<metadata>
Created by potrace 1.16, written by Peter Selinger 2001-2019
</metadata>
<g transform="translate(0.000000,68.000000) scale(0.100000,-0.100000)"
fill="#000000" stroke="none">
<path d="M138 673 l-18 -4 3 -89 2 -88 -7 -7 -6 -6 -41 12 -40 12 -16 -13 -15
-12 0 -49 0 -49 25 -16 25 -17 45 6 45 5 6 -25 6 -24 -6 -40 -6 -39 -6 -40 -7
-40 86 0 85 0 15 -6 15 -6 -10 -29 -10 -29 6 -25 6 -25 25 -16 24 -16 31 7 30
7 11 20 11 20 -6 29 -5 28 17 5 17 5 50 6 50 6 41 10 41 11 9 81 9 82 40 -3
40 -3 23 21 22 21 0 63 0 64 -16 13 -15 13 -34 -13 -34 -12 -20 11 -20 10 -6
33 -5 32 -2 50 -3 50 -75 -4 -75 -3 -24 -9 -23 -9 6 -31 6 -31 -11 -19 -10
-20 -25 -9 -25 -10 -21 11 -20 11 -14 34 -15 35 7 35 6 34 -88 -1 -89 -1 -17
-5z"/>
</g>
</svg>
