<?xml version="1.0" standalone="no"?>
<!DOCTYPE svg PUBLIC "-//W3C//DTD SVG 20010904//EN"
 "http://www.w3.org/TR/2001/REC-SVG-20010904/DTD/svg10.dtd">
<svg version="1.0" xmlns="http://www.w3.org/2000/svg"
 width="66.000000pt" height="55.000000pt" viewBox="0 0 66.000000 55.000000"
 preserveAspectRatio="xMidYMid meet">
<metadata>
Created by potrace 1.16, written by Peter Selinger 2001-2019
</metadata>
<g transform="translate(0.000000,55.000000) scale(0.100000,-0.100000)"
fill="#000000" stroke="none">
<path d="M42 542 l-44 -3 4 -90 3 -91 20 -14 20 -15 50 3 50 3 3 -34 3 -34 -5
-21 -5 -21 -20 -12 -20 -13 -26 12 -26 12 -14 -15 -15 -14 -6 -87 -7 -86 29
-5 29 -6 78 -7 77 -6 0 13 0 14 -10 35 -10 34 16 24 15 23 37 -3 37 -3 3 -35
3 -35 8 -8 7 -7 90 -15 89 -15 18 0 17 0 0 64 0 63 6 32 6 31 37 -6 37 -6 14
17 13 16 5 52 4 52 -11 29 -12 29 -44 -6 -44 -6 -8 12 -8 12 -5 65 -5 65 -85
-3 -85 -2 -24 -6 -23 -5 6 -50 7 -49 -19 -21 -20 -20 -48 3 -49 3 3 66 4 65
-14 11 -13 10 -40 5 -40 4 -43 -4z"/>
</g>
</svg>
