<?xml version="1.0" standalone="no"?>
<!DOCTYPE svg PUBLIC "-//W3C//DTD SVG 20010904//EN"
 "http://www.w3.org/TR/2001/REC-SVG-20010904/DTD/svg10.dtd">
<svg version="1.0" xmlns="http://www.w3.org/2000/svg"
 width="69.000000pt" height="52.000000pt" viewBox="0 0 69.000000 52.000000"
 preserveAspectRatio="xMidYMid meet">
<metadata>
Created by potrace 1.16, written by Peter Selinger 2001-2019
</metadata>
<g transform="translate(0.000000,52.000000) scale(0.100000,-0.100000)"
fill="#000000" stroke="none">
<path d="M39 513 l-27 -4 -6 -68 -7 -67 10 -26 10 -26 39 10 40 10 29 -14 28
-13 3 -54 3 -53 -18 -20 -18 -20 -47 6 -47 6 -4 -7 -5 -8 -3 -74 -4 -74 30 -9
30 -9 58 7 58 6 14 22 14 21 -11 48 -11 48 12 12 12 12 46 -2 46 -2 11 -11 11
-11 0 -47 0 -47 50 -13 50 -12 45 -3 45 -2 6 72 7 71 6 11 7 10 48 -6 48 -5
21 23 22 23 0 37 0 37 -16 12 -15 13 -50 -1 -50 -1 -19 -6 -18 -6 -4 18 -5 18
5 76 5 76 -9 5 -9 6 -80 -12 -80 -12 -11 -7 -11 -7 10 -39 11 -40 -19 -21 -18
-20 -48 0 -48 0 -21 27 -22 28 4 55 3 55 -55 1 -55 1 -26 -4z"/>
</g>
</svg>
