<?xml version="1.0" standalone="no"?>
<!DOCTYPE svg PUBLIC "-//W3C//DTD SVG 20010904//EN"
 "http://www.w3.org/TR/2001/REC-SVG-20010904/DTD/svg10.dtd">
<svg version="1.0" xmlns="http://www.w3.org/2000/svg"
 width="71.000000pt" height="54.000000pt" viewBox="0 0 71.000000 54.000000"
 preserveAspectRatio="xMidYMid meet">
<metadata>
Created by potrace 1.16, written by Peter Selinger 2001-2019
</metadata>
<g transform="translate(0.000000,54.000000) scale(0.100000,-0.100000)"
fill="#000000" stroke="none">
<path d="M38 533 l-26 -4 -7 -77 -7 -77 11 -28 11 -29 33 8 32 8 23 -1 22 -1
15 -12 15 -12 0 -43 0 -43 -17 -13 -16 -14 -51 0 -51 0 -8 -79 -8 -80 5 -12 5
-12 40 -7 40 -7 56 7 56 7 16 24 15 24 -11 47 -12 46 10 10 10 10 37 -1 38 -2
10 -10 11 -11 0 -47 0 -47 50 -13 50 -13 55 -2 55 -2 7 73 6 73 6 7 6 6 49 -3
49 -2 21 22 21 23 0 47 0 47 -16 13 -17 14 -68 -2 -69 -2 -1 12 -1 12 2 77 2
78 -14 5 -13 5 -88 -14 -88 -13 -11 -11 -10 -10 12 -37 12 -36 -18 -20 -17
-19 -38 0 -38 0 -21 27 -21 27 3 55 3 56 -65 1 -65 1 -27 -4z"/>
</g>
</svg>
