<?xml version="1.0" standalone="no"?>
<!DOCTYPE svg PUBLIC "-//W3C//DTD SVG 20010904//EN"
 "http://www.w3.org/TR/2001/REC-SVG-20010904/DTD/svg10.dtd">
<svg version="1.0" xmlns="http://www.w3.org/2000/svg"
 width="53.000000pt" height="67.000000pt" viewBox="0 0 53.000000 67.000000"
 preserveAspectRatio="xMidYMid meet">
<metadata>
Created by potrace 1.16, written by Peter Selinger 2001-2019
</metadata>
<g transform="translate(0.000000,67.000000) scale(0.100000,-0.100000)"
fill="#000000" stroke="none">
<path d="M34 664 l-21 -5 -6 -89 -6 -88 6 -20 5 -21 69 6 69 6 15 -13 15 -12
0 -27 -1 -26 -15 -20 -15 -20 -56 0 -57 0 -7 -25 -7 -25 -1 -52 -1 -52 -10 -6
-10 -6 0 -18 0 -19 64 5 64 6 25 -7 24 -6 -5 -50 -5 -50 36 -15 36 -15 31 0
31 0 25 26 26 25 -4 39 -3 40 13 5 14 5 74 0 74 0 0 24 0 23 -9 29 -9 29 -12
57 -11 57 -37 3 -37 3 -3 32 -3 32 11 21 11 20 38 -6 38 -6 17 23 16 23 0 79
0 79 -27 -7 -28 -7 -59 -9 -60 -10 -8 -5 -9 -6 3 -29 3 -30 -15 -9 -15 -10
-53 0 -54 0 7 30 6 30 -5 18 -6 19 -24 11 -23 10 -54 5 -54 5 -21 -4z"/>
</g>
</svg>
