<?xml version="1.0" standalone="no"?>
<!DOCTYPE svg PUBLIC "-//W3C//DTD SVG 20010904//EN"
 "http://www.w3.org/TR/2001/REC-SVG-20010904/DTD/svg10.dtd">
<svg version="1.0" xmlns="http://www.w3.org/2000/svg"
 width="70.000000pt" height="67.000000pt" viewBox="0 0 70.000000 67.000000"
 preserveAspectRatio="xMidYMid meet">
<metadata>
Created by potrace 1.16, written by Peter Selinger 2001-2019
</metadata>
<g transform="translate(0.000000,67.000000) scale(0.100000,-0.100000)"
fill="#000000" stroke="none">
<path d="M205 663 l-40 -4 0 -90 0 -91 -18 -13 -18 -13 -28 11 -27 10 -27 -7
-26 -6 -12 -21 -11 -21 6 -24 6 -23 41 -12 41 -13 49 10 49 11 11 -13 11 -13
-7 -43 -7 -43 -19 -50 -19 -50 0 -7 0 -8 74 0 74 0 15 -6 14 -5 -4 -43 -5 -44
21 -21 21 -21 50 0 50 0 20 33 20 32 0 44 0 44 68 -6 67 -6 23 -7 22 -6 0 99
0 99 -14 19 -13 18 -37 -6 -38 -6 -24 24 -24 24 9 23 8 23 54 0 54 0 17 35 18
35 0 66 0 67 -16 6 -16 6 -76 0 -77 0 -14 -9 -14 -9 7 -35 6 -34 -19 -24 -19
-24 -47 1 -46 1 -10 10 -11 11 11 20 11 21 0 30 0 30 -9 5 -8 6 -54 4 -54 4
-40 -5z"/>
</g>
</svg>
