<?xml version="1.0" standalone="no"?>
<!DOCTYPE svg PUBLIC "-//W3C//DTD SVG 20010904//EN"
 "http://www.w3.org/TR/2001/REC-SVG-20010904/DTD/svg10.dtd">
<svg version="1.0" xmlns="http://www.w3.org/2000/svg"
 width="54.000000pt" height="57.000000pt" viewBox="0 0 54.000000 57.000000"
 preserveAspectRatio="xMidYMid meet">
<metadata>
Created by potrace 1.16, written by Peter Selinger 2001-2019
</metadata>
<g transform="translate(0.000000,57.000000) scale(0.100000,-0.100000)"
fill="#000000" stroke="none">
<path d="M305 559 l-7 -10 12 -29 12 -29 -12 -50 -12 -50 -13 -11 -14 -12 -18
4 -17 3 -14 25 -13 25 6 58 6 57 -68 0 -68 0 -38 -6 -37 -7 0 -83 0 -83 10
-25 10 -26 25 0 26 0 19 10 20 10 20 -20 20 -20 0 -9 0 -8 -25 -27 -25 -27
-47 3 -46 3 -8 -30 -8 -29 6 -74 6 -74 26 -10 26 -10 63 7 63 7 19 21 20 21 0
38 0 38 29 0 30 0 3 -28 3 -27 45 -13 45 -13 64 -20 64 -20 8 13 9 13 0 81 0
80 -14 20 -14 19 -30 -11 -30 -11 -10 6 -11 6 -10 26 -10 27 16 22 16 22 48
-6 48 -7 6 34 7 34 -9 79 -8 78 -55 18 -55 17 -52 0 -52 1 -6 -11z"/>
</g>
</svg>
