<?xml version="1.0" standalone="no"?>
<!DOCTYPE svg PUBLIC "-//W3C//DTD SVG 20010904//EN"
 "http://www.w3.org/TR/2001/REC-SVG-20010904/DTD/svg10.dtd">
<svg version="1.0" xmlns="http://www.w3.org/2000/svg"
 width="52.000000pt" height="55.000000pt" viewBox="0 0 52.000000 55.000000"
 preserveAspectRatio="xMidYMid meet">
<metadata>
Created by potrace 1.16, written by Peter Selinger 2001-2019
</metadata>
<g transform="translate(0.000000,55.000000) scale(0.100000,-0.100000)"
fill="#000000" stroke="none">
<path d="M308 544 l-6 -5 11 -29 11 -28 -13 -56 -13 -57 -24 -15 -24 -16 -25
16 -24 16 -7 35 -6 36 6 39 6 40 -57 0 -58 0 -38 -6 -37 -7 0 -73 0 -73 10
-26 10 -27 23 5 22 5 22 7 21 7 21 -21 21 -21 0 -19 0 -18 -25 -27 -26 -28
-46 4 -46 3 -8 -27 -7 -26 6 -67 5 -67 25 -9 26 -10 54 7 54 6 20 22 20 21 -5
38 -5 37 47 0 47 0 -1 -27 0 -28 45 -13 45 -13 57 -18 57 -17 6 14 5 14 0 67
0 67 -13 18 -14 19 -22 -12 -22 -12 -19 6 -19 6 -11 35 -12 35 17 26 17 25 49
-4 49 -5 5 31 6 31 -8 70 -8 69 -55 18 -55 17 -41 0 -41 1 -5 -6z"/>
</g>
</svg>
