<?xml version="1.0" standalone="no"?>
<!DOCTYPE svg PUBLIC "-//W3C//DTD SVG 20010904//EN"
 "http://www.w3.org/TR/2001/REC-SVG-20010904/DTD/svg10.dtd">
<svg version="1.0" xmlns="http://www.w3.org/2000/svg"
 width="83.000000pt" height="70.000000pt" viewBox="0 0 83.000000 70.000000"
 preserveAspectRatio="xMidYMid meet">
<metadata>
Created by potrace 1.16, written by Peter Selinger 2001-2019
</metadata>
<g transform="translate(0.000000,70.000000) scale(0.100000,-0.100000)"
fill="#000000" stroke="none">
<path d="M362 688 l-11 -11 6 -43 6 -44 -13 -15 -12 -15 -84 0 -84 0 0 -83 0
-82 -64 0 -65 0 -20 -22 -21 -22 0 -55 0 -55 22 -21 22 -20 16 0 16 0 11 11
11 11 15 -48 14 -49 14 -48 13 -47 114 0 113 0 20 10 19 11 0 25 0 25 -10 19
-10 19 19 11 20 10 11 0 11 0 23 -24 24 -23 -11 -41 -11 -42 11 -11 12 -12 54
0 53 0 50 12 49 12 0 87 0 87 37 -3 37 -3 20 20 21 21 0 55 0 56 -26 25 -25
26 -41 -4 -40 -4 7 77 6 78 -18 10 -19 9 -83 16 -84 16 -13 11 -14 11 6 24 6
24 -12 15 -12 15 -47 0 -47 0 -12 -12z"/>
</g>
</svg>
