<?xml version="1.0" standalone="no"?>
<!DOCTYPE svg PUBLIC "-//W3C//DTD SVG 20010904//EN"
 "http://www.w3.org/TR/2001/REC-SVG-20010904/DTD/svg10.dtd">
<svg version="1.0" xmlns="http://www.w3.org/2000/svg"
 width="81.000000pt" height="68.000000pt" viewBox="0 0 81.000000 68.000000"
 preserveAspectRatio="xMidYMid meet">
<metadata>
Created by potrace 1.16, written by Peter Selinger 2001-2019
</metadata>
<g transform="translate(0.000000,68.000000) scale(0.100000,-0.100000)"
fill="#000000" stroke="none">
<path d="M363 669 l-11 -11 8 -30 9 -29 -9 -24 -9 -23 -11 -7 -11 -7 -79 0
-79 0 -3 -86 -3 -87 -15 4 -15 5 -47 0 -47 1 -20 -22 -21 -22 0 -45 0 -45 22
-21 22 -20 7 0 8 0 6 10 6 10 14 0 14 0 16 -58 16 -57 12 -30 12 -30 -3 -8 -2
-7 108 0 108 0 19 14 20 14 -14 38 -14 37 19 14 18 13 19 0 18 0 19 -10 20
-10 10 -21 11 -20 -11 -35 -12 -36 10 -10 10 -10 47 0 46 0 47 12 47 11 -3 80
-4 80 12 14 12 15 18 -10 19 -10 10 0 11 0 20 20 20 20 0 45 0 46 -26 26 -25
25 -41 -6 -41 -7 6 80 6 81 -17 9 -18 9 -83 16 -84 16 -14 12 -15 12 6 26 5
27 -12 12 -11 11 -36 0 -36 0 -11 -11z"/>
</g>
</svg>
