<?xml version="1.0" standalone="no"?>
<!DOCTYPE svg PUBLIC "-//W3C//DTD SVG 20010904//EN"
 "http://www.w3.org/TR/2001/REC-SVG-20010904/DTD/svg10.dtd">
<svg version="1.0" xmlns="http://www.w3.org/2000/svg"
 width="86.000000pt" height="81.000000pt" viewBox="0 0 86.000000 81.000000"
 preserveAspectRatio="xMidYMid meet">
<metadata>
Created by potrace 1.16, written by Peter Selinger 2001-2019
</metadata>
<g transform="translate(0.000000,81.000000) scale(0.100000,-0.100000)"
fill="#000000" stroke="none">
<path d="M375 766 l7 -43 -24 -23 -23 -22 -82 4 -83 4 0 -50 0 -51 -10 -37
-11 -37 -21 -15 -21 -15 -18 9 -18 10 -22 0 -22 0 -13 -17 -13 -18 -1 -36 0
-36 19 -25 20 -24 41 -13 42 -12 41 2 42 3 -2 -37 -2 -37 -16 -29 -15 -30 0
-24 0 -24 80 5 80 5 13 -12 14 -11 -5 -52 -5 -51 18 -14 19 -13 43 0 43 0 21
21 20 20 -2 67 -3 67 32 3 32 3 54 -15 54 -16 17 6 16 7 -6 26 -7 26 -12 60
-13 60 4 15 4 15 57 -3 57 -3 33 20 32 21 0 19 0 20 -10 27 -11 27 -49 -6 -50
-6 -15 22 -15 21 0 73 0 72 -19 10 -18 10 -69 11 -68 11 -13 11 -13 10 6 23 6
23 -23 16 -23 16 -54 0 -53 0 6 -44z"/>
</g>
</svg>
