<?xml version="1.0" standalone="no"?>
<!DOCTYPE svg PUBLIC "-//W3C//DTD SVG 20010904//EN"
 "http://www.w3.org/TR/2001/REC-SVG-20010904/DTD/svg10.dtd">
<svg version="1.0" xmlns="http://www.w3.org/2000/svg"
 width="84.000000pt" height="79.000000pt" viewBox="0 0 84.000000 79.000000"
 preserveAspectRatio="xMidYMid meet">
<metadata>
Created by potrace 1.16, written by Peter Selinger 2001-2019
</metadata>
<g transform="translate(0.000000,79.000000) scale(0.100000,-0.100000)"
fill="#000000" stroke="none">
<path d="M377 746 l5 -43 -23 -22 -24 -22 -83 3 -82 3 0 -50 0 -50 -11 -38
-10 -37 -24 -16 -24 -16 -35 13 -36 13 -15 -20 -14 -19 -1 -26 0 -26 20 -25
19 -25 43 -12 44 -12 39 3 40 3 3 -26 3 -26 -16 -44 -17 -44 -5 -20 -4 -20 81
3 81 4 14 -12 15 -12 -6 -53 -7 -53 21 -11 21 -11 30 0 31 0 21 21 21 21 -4
66 -3 67 43 3 43 3 47 -14 48 -13 12 4 12 4 -4 6 -4 7 -16 75 -15 76 5 21 6
21 52 -5 52 -5 33 16 32 17 5 13 5 13 -11 27 -10 28 -49 -7 -49 -7 -16 23 -16
23 0 73 0 72 -19 10 -18 10 -69 11 -68 11 -14 11 -14 12 5 23 4 24 -21 14 -20
15 -42 0 -42 0 5 -44z"/>
</g>
</svg>
