<?xml version="1.0" standalone="no"?>
<!DOCTYPE svg PUBLIC "-//W3C//DTD SVG 20010904//EN"
 "http://www.w3.org/TR/2001/REC-SVG-20010904/DTD/svg10.dtd">
<svg version="1.0" xmlns="http://www.w3.org/2000/svg"
 width="57.000000pt" height="78.000000pt" viewBox="0 0 57.000000 78.000000"
 preserveAspectRatio="xMidYMid meet">
<metadata>
Created by potrace 1.16, written by Peter Selinger 2001-2019
</metadata>
<g transform="translate(0.000000,78.000000) scale(0.100000,-0.100000)"
fill="#000000" stroke="none">
<path d="M250 766 l-11 -15 3 -43 3 -43 -35 -12 -35 -13 -67 6 -68 5 0 -88 0
-89 16 -23 16 -23 50 4 50 3 9 -23 9 -23 -33 -20 -32 -20 -57 6 -56 6 -7 -29
-6 -29 16 -74 15 -74 0 -21 0 -21 73 5 74 4 22 -11 22 -12 -6 -30 -7 -30 18
-20 17 -19 49 0 48 0 21 21 21 21 -4 55 -5 55 13 5 12 5 62 -16 62 -16 25 0
25 0 -6 17 -5 18 -24 84 -23 83 -17 10 -17 9 -23 -3 -22 -3 -3 33 -3 32 41 0
41 0 19 10 18 10 11 31 11 32 0 73 0 74 -17 0 -18 0 -54 -21 -54 -20 -31 3
-31 3 3 55 3 55 -20 33 -21 32 -34 0 -34 0 -12 -14z"/>
</g>
</svg>
