<?xml version="1.0" standalone="no"?>
<!DOCTYPE svg PUBLIC "-//W3C//DTD SVG 20010904//EN"
 "http://www.w3.org/TR/2001/REC-SVG-20010904/DTD/svg10.dtd">
<svg version="1.0" xmlns="http://www.w3.org/2000/svg"
 width="70.000000pt" height="83.000000pt" viewBox="0 0 70.000000 83.000000"
 preserveAspectRatio="xMidYMid meet">
<metadata>
Created by potrace 1.16, written by Peter Selinger 2001-2019
</metadata>
<g transform="translate(0.000000,83.000000) scale(0.100000,-0.100000)"
fill="#000000" stroke="none">
<path d="M336 823 l-18 -5 4 -49 5 -49 -15 -12 -15 -13 -89 2 -88 1 0 -80 0
-79 -10 -19 -10 -19 -35 6 -35 6 -15 -13 -15 -12 0 -47 0 -47 14 -19 13 -18
51 6 50 6 5 -20 5 -19 -7 -53 -7 -53 -8 -12 -7 -12 5 -18 6 -18 85 4 85 4 6
-16 6 -16 -11 -29 -12 -28 6 -25 6 -24 29 -17 28 -17 46 0 47 0 25 25 25 25
-2 63 -3 62 60 0 59 -1 25 -7 25 -8 19 43 18 43 5 60 5 61 -17 14 -17 14 -30
-12 -31 -11 -28 14 -28 15 -11 20 -10 20 21 21 21 21 40 -7 40 -7 9 13 9 14 0
71 0 71 -6 33 -7 32 -21 -7 -21 -7 -57 -16 -56 -16 -16 13 -16 13 11 20 10 19
-6 29 -6 29 -31 26 -30 25 -31 -1 -32 -1 -19 -5z"/>
</g>
</svg>
