<?xml version="1.0" standalone="no"?>
<!DOCTYPE svg PUBLIC "-//W3C//DTD SVG 20010904//EN"
 "http://www.w3.org/TR/2001/REC-SVG-20010904/DTD/svg10.dtd">
<svg version="1.0" xmlns="http://www.w3.org/2000/svg"
 width="52.000000pt" height="64.000000pt" viewBox="0 0 52.000000 64.000000"
 preserveAspectRatio="xMidYMid meet">
<metadata>
Created by potrace 1.16, written by Peter Selinger 2001-2019
</metadata>
<g transform="translate(0.000000,64.000000) scale(0.100000,-0.100000)"
fill="#000000" stroke="none">
<path d="M0 566 l0 -75 10 -25 10 -26 40 6 40 7 15 -13 15 -12 0 -37 0 -36 -9
-14 -9 -13 -30 7 -31 6 -9 -38 -9 -38 -10 -50 -10 -50 -7 -15 -6 -15 77 3 78
2 24 -12 24 -13 11 -17 11 -18 -13 -20 -12 -20 0 -14 0 -14 16 -6 16 -6 24 0
25 0 35 15 36 15 -6 34 -7 35 38 10 38 9 46 6 46 7 1 12 1 12 7 83 7 83 -41
-7 -41 -6 -31 30 -30 30 0 46 0 45 12 7 13 8 32 -3 32 -2 16 25 17 25 5 62 6
61 -96 -3 -96 -4 -11 -11 -10 -10 11 -31 10 -31 -18 -21 -17 -21 -58 0 -57 0
6 49 5 48 -23 17 -23 16 -68 0 -68 0 0 -74z"/>
</g>
</svg>
