<?xml version="1.0" standalone="no"?>
<!DOCTYPE svg PUBLIC "-//W3C//DTD SVG 20010904//EN"
 "http://www.w3.org/TR/2001/REC-SVG-20010904/DTD/svg10.dtd">
<svg version="1.0" xmlns="http://www.w3.org/2000/svg"
 width="84.000000pt" height="71.000000pt" viewBox="0 0 84.000000 71.000000"
 preserveAspectRatio="xMidYMid meet">
<metadata>
Created by potrace 1.16, written by Peter Selinger 2001-2019
</metadata>
<g transform="translate(0.000000,71.000000) scale(0.100000,-0.100000)"
fill="#000000" stroke="none">
<path d="M371 699 l-24 -9 7 -39 6 -39 5 -14 6 -15 -19 -23 -19 -24 -89 0 -89
-1 -3 -103 -3 -103 -17 5 -17 5 -36 6 -37 7 -21 -23 -21 -23 0 -17 0 -18 23
-21 22 -21 65 3 65 3 -1 -65 -2 -65 -15 -38 -16 -37 82 0 83 0 23 16 23 16 -6
32 -7 31 0 20 0 20 22 17 21 18 23 0 22 0 15 -17 16 -18 12 -42 13 -42 -13
-31 -13 -32 14 -9 14 -10 67 4 67 4 25 17 25 16 3 92 3 93 20 -4 20 -4 42 -1
43 0 17 17 17 17 0 36 0 36 -20 15 -19 14 -25 -4 -25 -4 -15 -7 -16 -6 -19 14
-19 14 -4 73 -3 74 -4 21 -5 22 -67 12 -68 13 -24 9 -23 8 6 44 7 43 -13 10
-13 10 -35 6 -35 6 -24 -10z"/>
</g>
</svg>
