<?xml version="1.0" standalone="no"?>
<!DOCTYPE svg PUBLIC "-//W3C//DTD SVG 20010904//EN"
 "http://www.w3.org/TR/2001/REC-SVG-20010904/DTD/svg10.dtd">
<svg version="1.0" xmlns="http://www.w3.org/2000/svg"
 width="86.000000pt" height="73.000000pt" viewBox="0 0 86.000000 73.000000"
 preserveAspectRatio="xMidYMid meet">
<metadata>
Created by potrace 1.16, written by Peter Selinger 2001-2019
</metadata>
<g transform="translate(0.000000,73.000000) scale(0.100000,-0.100000)"
fill="#000000" stroke="none">
<path d="M371 720 l-23 -10 6 -63 7 -64 -16 -13 -16 -13 -87 -1 -87 -1 -3 -98
-3 -98 -53 6 -53 7 -22 -23 -21 -23 0 -27 0 -28 22 -21 22 -20 68 0 68 0 0
-28 0 -28 -14 -49 -14 -50 -7 -22 -7 -23 94 0 94 0 23 16 23 16 -4 56 -3 56
27 15 27 15 19 -17 19 -17 12 -40 12 -40 -11 -19 -10 -20 0 -20 0 -21 26 -6
26 -7 64 6 64 5 25 16 25 16 0 88 0 87 65 0 64 0 18 18 18 18 0 45 0 46 -20
15 -20 15 -53 -6 -52 -6 -10 26 -10 25 0 67 0 67 -8 11 -7 12 -78 16 -79 16
-9 5 -8 6 5 42 6 43 -13 11 -14 11 -45 6 -45 6 -24 -10z"/>
</g>
</svg>
