<?xml version="1.0" standalone="no"?>
<!DOCTYPE svg PUBLIC "-//W3C//DTD SVG 20010904//EN"
 "http://www.w3.org/TR/2001/REC-SVG-20010904/DTD/svg10.dtd">
<svg version="1.0" xmlns="http://www.w3.org/2000/svg"
 width="75.000000pt" height="70.000000pt" viewBox="0 0 75.000000 70.000000"
 preserveAspectRatio="xMidYMid meet">
<metadata>
Created by potrace 1.16, written by Peter Selinger 2001-2019
</metadata>
<g transform="translate(0.000000,70.000000) scale(0.100000,-0.100000)"
fill="#000000" stroke="none">
<path d="M382 687 l-11 -13 -11 -28 -10 -28 10 -36 10 -36 -13 -8 -12 -9 -90
3 -90 3 -3 -97 -3 -98 -63 0 -63 0 -17 -19 -17 -19 3 -33 3 -34 25 -13 25 -13
73 5 72 4 0 -27 0 -28 -20 -58 -20 -58 0 -21 0 -21 83 1 82 2 34 1 34 1 -7 48
-6 47 16 23 15 22 13 0 14 0 13 -17 14 -16 0 -56 0 -56 82 -3 82 -3 33 9 33 8
17 31 18 30 11 57 12 57 -12 25 -11 25 -58 -6 -57 -7 -27 22 -28 21 0 14 0 14
57 3 58 3 12 25 13 25 0 94 0 93 -22 -5 -23 -6 -60 -17 -60 -17 -25 6 -25 6 0
75 0 74 -19 21 -19 21 -27 0 -28 0 -10 -13z"/>
</g>
</svg>
