<?xml version="1.0" standalone="no"?>
<!DOCTYPE svg PUBLIC "-//W3C//DTD SVG 20010904//EN"
 "http://www.w3.org/TR/2001/REC-SVG-20010904/DTD/svg10.dtd">
<svg version="1.0" xmlns="http://www.w3.org/2000/svg"
 width="73.000000pt" height="68.000000pt" viewBox="0 0 73.000000 68.000000"
 preserveAspectRatio="xMidYMid meet">
<metadata>
Created by potrace 1.16, written by Peter Selinger 2001-2019
</metadata>
<g transform="translate(0.000000,68.000000) scale(0.100000,-0.100000)"
fill="#000000" stroke="none">
<path d="M375 656 l-16 -24 -1 -19 -1 -18 7 -37 8 -36 -22 -7 -22 -7 -82 3
-81 4 -3 -100 -3 -101 -62 4 -62 4 -18 -20 -19 -20 4 -23 3 -23 25 -14 25 -13
55 4 55 5 15 3 15 4 3 -38 3 -39 -20 -61 -21 -61 0 -10 0 -11 101 2 101 2 6 6
6 6 -12 31 -12 32 18 30 18 31 23 3 23 4 19 -18 20 -18 -3 -56 -3 -55 60 -3
60 -3 43 6 43 6 19 32 20 31 10 53 11 52 -11 21 -12 22 -26 -8 -27 -7 -30 1
-30 2 -25 18 -25 19 0 28 0 28 55 1 54 1 13 25 13 25 0 84 0 83 -17 -7 -18 -7
-44 -14 -44 -14 -36 0 -36 0 -10 8 -11 7 1 71 0 72 -19 21 -19 21 -18 0 -19 0
-15 -24z"/>
</g>
</svg>
