<?xml version="1.0" standalone="no"?>
<!DOCTYPE svg PUBLIC "-//W3C//DTD SVG 20010904//EN"
 "http://www.w3.org/TR/2001/REC-SVG-20010904/DTD/svg10.dtd">
<svg version="1.0" xmlns="http://www.w3.org/2000/svg"
 width="488.000000pt" height="624.000000pt" viewBox="0 0 488.000000 624.000000"
 preserveAspectRatio="xMidYMid meet">
<metadata>
Created by potrace 1.16, written by Peter Selinger 2001-2019
</metadata>
<g transform="translate(0.000000,624.000000) scale(0.100000,-0.100000)"
fill="#000000" stroke="none">
<path d="M0 3859 l0 -2381 23 5 22 6 135 11 135 11 355 29 355 29 215 12 215
12 150 -6 150 -6 35 -11 35 -10 15 -10 14 -9 -21 -23 -21 -23 -31 -135 -30
-135 -16 -98 -16 -99 -9 -131 -10 -130 10 -116 9 -116 20 -76 20 -76 33 -69
33 -69 64 -67 64 -68 71 -35 71 -35 60 -15 60 -16 100 -6 100 -6 86 12 87 11
72 25 72 25 66 37 66 36 91 91 90 91 33 57 34 57 33 78 34 78 20 77 20 77 12
103 12 103 -6 130 -6 130 -21 110 -22 110 -35 100 -35 100 -15 57 -16 58 17
45 17 44 30 25 29 24 57 23 58 22 110 5 110 4 115 -17 114 -16 131 -34 130
-33 129 -48 129 -47 146 -73 146 -72 85 -56 85 -56 11 0 12 0 6 32 5 33 40
320 40 320 16 155 16 155 6 210 6 210 -11 95 -12 95 -15 60 -16 60 -32 55 -33
55 -39 22 -40 23 -71 0 -71 0 -44 -15 -43 -15 -33 -26 -33 -25 -53 -24 -52
-24 -70 -11 -70 -11 -65 6 -65 7 -93 23 -92 24 -93 45 -92 45 -66 53 -66 53
-47 55 -47 55 -37 75 -37 75 1 155 0 155 25 64 25 63 39 49 40 49 60 30 60 30
65 17 65 17 145 -1 145 -1 110 -17 110 -16 170 -35 170 -36 36 -24 35 -24 38
0 37 0 18 10 18 9 21 48 21 49 12 89 12 90 -6 320 -6 320 -25 365 -25 365 -7
173 -7 172 -2373 0 -2374 0 0 -2381z"/>
</g>
</svg>
