<?xml version="1.0" standalone="no"?>
<!DOCTYPE svg PUBLIC "-//W3C//DTD SVG 20010904//EN"
 "http://www.w3.org/TR/2001/REC-SVG-20010904/DTD/svg10.dtd">
<svg version="1.0" xmlns="http://www.w3.org/2000/svg"
 width="658.000000pt" height="478.000000pt" viewBox="0 0 658.000000 478.000000"
 preserveAspectRatio="xMidYMid meet">
<metadata>
Created by potrace 1.16, written by Peter Selinger 2001-2019
</metadata>
<g transform="translate(0.000000,478.000000) scale(0.100000,-0.100000)"
fill="#000000" stroke="none">
<path d="M1596 4713 l3 -68 12 -413 12 -412 -7 -128 -7 -127 -15 -104 -15
-104 -23 -73 -23 -72 -37 -65 -36 -65 -47 -42 -48 -42 -41 -18 -41 -19 -44
-10 -44 -11 -56 0 -56 0 -84 15 -84 14 -75 26 -75 26 -100 29 -100 29 -95 17
-95 16 -71 -5 -71 -5 -51 -22 -51 -22 -30 -35 -31 -36 -19 -51 -19 -51 -13
-75 -13 -75 -1 -245 0 -245 18 -84 18 -85 24 -58 23 -57 33 -45 32 -45 41 -28
41 -27 71 -4 71 -4 53 23 54 23 45 35 46 35 58 18 59 18 21 0 22 0 36 -10 36
-10 45 -40 45 -39 36 -68 35 -68 26 -76 25 -75 86 -335 86 -334 48 -145 49
-145 42 -100 42 -100 50 -95 50 -95 64 -96 63 -96 88 -6 88 -6 316 -12 315
-12 220 11 219 12 105 15 105 15 103 26 103 25 69 28 69 28 54 36 54 36 37 42
38 42 19 43 20 43 5 63 6 63 -16 75 -16 74 -30 36 -30 35 -26 55 -26 55 -5 37
-5 37 6 44 7 44 35 59 36 59 49 39 50 38 67 29 67 28 70 12 70 12 165 -6 165
-7 95 -14 95 -15 70 -21 69 -22 33 -33 33 -33 0 -24 0 -25 -29 -39 -28 -39
-26 -24 -26 -24 -18 -51 -17 -51 -1 -70 0 -70 30 -48 30 -48 50 -33 50 -33 65
-26 65 -26 75 -20 75 -21 260 -55 260 -56 117 -29 117 -30 98 -31 98 -31 113
-49 113 -48 86 -51 87 -51 21 5 22 6 10 52 10 53 61 300 61 300 25 165 25 165
17 140 16 140 1 190 0 190 -12 65 -13 64 -15 46 -15 45 -30 44 -30 43 -42 19
-41 19 -52 0 -53 0 -92 -31 -93 -31 -115 -28 -115 -29 -110 -16 -109 -17 -146
4 -145 5 -78 27 -79 26 -51 34 -52 33 -37 41 -37 41 -20 38 -19 39 -17 58 -17
59 4 186 5 186 18 75 18 75 27 55 28 55 38 39 39 39 50 23 50 24 55 11 55 12
135 -6 135 -5 85 -17 85 -16 130 -31 129 -31 45 -23 44 -24 62 0 61 0 37 33
36 32 20 45 20 45 18 85 18 85 0 355 0 355 -18 280 -19 280 -6 105 -7 105
-2371 3 -2371 2 3 -67z"/>
</g>
</svg>
