<?xml version="1.0" standalone="no"?>
<!DOCTYPE svg PUBLIC "-//W3C//DTD SVG 20010904//EN"
 "http://www.w3.org/TR/2001/REC-SVG-20010904/DTD/svg10.dtd">
<svg version="1.0" xmlns="http://www.w3.org/2000/svg"
 width="656.000000pt" height="476.000000pt" viewBox="0 0 656.000000 476.000000"
 preserveAspectRatio="xMidYMid meet">
<metadata>
Created by potrace 1.16, written by Peter Selinger 2001-2019
</metadata>
<g transform="translate(0.000000,476.000000) scale(0.100000,-0.100000)"
fill="#000000" stroke="none">
<path d="M1603 4498 l8 -263 2 -335 2 -335 -18 -114 -18 -114 -23 -72 -23 -73
-37 -65 -36 -65 -47 -42 -48 -42 -41 -18 -41 -19 -44 -10 -44 -11 -66 0 -66 0
-84 15 -84 14 -75 26 -75 26 -100 29 -100 29 -95 17 -95 16 -62 -6 -62 -5 -50
-22 -50 -21 -30 -35 -31 -36 -19 -51 -19 -51 -13 -75 -13 -75 -1 -235 0 -235
18 -84 18 -85 24 -58 23 -57 33 -45 32 -45 41 -28 41 -27 61 -4 60 -4 54 23
54 23 45 35 46 35 58 18 59 18 31 0 32 0 36 -10 36 -10 45 -40 45 -39 36 -68
35 -68 26 -76 25 -75 86 -335 86 -334 48 -145 49 -145 42 -100 42 -100 50 -95
50 -95 63 -96 64 -96 93 -6 93 -6 302 -12 302 -12 218 12 218 11 105 15 105
15 103 26 103 25 69 28 69 28 54 36 54 36 37 42 38 42 19 42 18 42 7 54 6 54
-16 75 -16 74 -30 36 -30 35 -26 55 -27 55 -5 47 -4 47 6 44 7 44 35 59 36 59
49 39 50 38 67 29 67 28 70 12 70 12 175 -6 175 -6 95 -15 95 -15 70 -21 69
-22 33 -33 33 -33 0 -34 0 -35 -29 -39 -28 -39 -26 -24 -26 -24 -18 -51 -17
-51 -1 -60 0 -60 30 -48 30 -48 50 -33 50 -33 65 -26 65 -26 75 -20 75 -21
260 -55 260 -56 117 -29 117 -30 98 -31 98 -31 113 -49 113 -48 85 -50 84 -50
14 5 13 5 10 52 10 52 61 300 61 300 25 165 25 165 17 140 16 140 1 180 0 180
-12 65 -13 64 -15 46 -15 45 -30 44 -30 43 -42 19 -41 19 -42 0 -43 0 -92 -31
-93 -31 -115 -28 -115 -29 -104 -16 -104 -16 -123 0 -122 0 -63 11 -62 11 -56
21 -56 21 -50 32 -50 32 -37 41 -37 41 -20 38 -19 39 -17 58 -17 59 4 196 5
196 18 75 18 75 27 55 28 55 38 39 39 39 50 23 50 24 55 11 55 12 145 -6 145
-5 85 -17 85 -16 130 -31 129 -31 45 -23 44 -24 52 0 51 0 37 33 36 32 20 45
20 45 18 85 18 85 0 345 0 345 -18 280 -19 280 -6 105 -7 105 -2360 3 -2360 2
8 -262z"/>
</g>
</svg>
