<?xml version="1.0" standalone="no"?>
<!DOCTYPE svg PUBLIC "-//W3C//DTD SVG 20010904//EN"
 "http://www.w3.org/TR/2001/REC-SVG-20010904/DTD/svg10.dtd">
<svg version="1.0" xmlns="http://www.w3.org/2000/svg"
 width="619.000000pt" height="511.000000pt" viewBox="0 0 619.000000 511.000000"
 preserveAspectRatio="xMidYMid meet">
<metadata>
Created by potrace 1.16, written by Peter Selinger 2001-2019
</metadata>
<g transform="translate(0.000000,511.000000) scale(0.100000,-0.100000)"
fill="#000000" stroke="none">
<path d="M1424 4928 l7 -183 25 -370 26 -370 5 -295 6 -295 -12 -90 -12 -89
-21 -49 -21 -48 -18 -9 -18 -10 -17 0 -18 0 -35 24 -36 25 -200 40 -200 40
-85 12 -85 12 -160 0 -160 1 -65 -17 -65 -17 -60 -30 -60 -30 -40 -49 -39 -49
-23 -62 -24 -63 -8 -111 -8 -111 8 -68 8 -69 35 -71 35 -72 47 -55 47 -55 66
-53 66 -53 92 -45 93 -45 95 -24 96 -25 77 -6 77 -6 75 11 75 12 52 24 53 24
33 25 33 26 43 15 44 15 51 0 51 0 40 -23 39 -22 33 -55 32 -55 16 -60 15 -60
11 -90 12 -90 -6 -195 -6 -195 -16 -155 -15 -155 -45 -353 -45 -353 0 -8 0 -8
263 -7 262 -7 265 -15 265 -14 305 -7 305 -6 108 12 108 12 67 21 67 20 37 38
38 38 0 63 0 64 -29 60 -29 60 -30 120 -30 120 -16 85 -15 85 -11 105 -12 105
7 89 7 88 14 57 15 56 24 52 23 52 41 43 40 44 49 27 48 26 59 16 59 15 56 0
56 0 59 -15 58 -16 57 -30 56 -30 52 -45 52 -46 45 -63 45 -63 40 -84 39 -84
26 -99 26 -99 11 -123 12 -123 -12 -112 -12 -113 -16 -75 -16 -75 -23 -70 -23
-70 -26 -70 -26 -70 0 -68 0 -68 14 -27 14 -27 29 -27 28 -27 45 -20 45 -20
69 -12 69 -12 181 6 181 5 125 21 125 21 182 45 182 45 158 51 158 51 110 43
110 43 43 18 42 19 0 8 0 9 -64 96 -64 97 -50 95 -50 95 -42 100 -42 100 -49
145 -48 145 -86 334 -86 335 -25 75 -26 76 -35 68 -36 68 -45 39 -45 40 -36
10 -36 10 -42 0 -41 0 -60 -19 -60 -18 -38 -31 -39 -31 -58 -27 -59 -26 -51 4
-52 4 -41 28 -41 27 -32 45 -33 45 -23 57 -24 58 -18 85 -18 84 0 225 1 225
13 75 13 75 19 51 19 51 31 36 30 35 48 21 49 21 53 6 54 6 95 -16 95 -17 100
-29 100 -29 75 -26 75 -26 84 -14 84 -15 76 0 76 0 44 11 44 10 41 19 41 18
48 42 47 42 36 65 37 65 23 73 23 72 18 114 18 114 -2 345 -2 345 -8 260 -8
260 -2374 3 -2374 2 7 -182z"/>
</g>
</svg>
