<?xml version="1.0" standalone="no"?>
<!DOCTYPE svg PUBLIC "-//W3C//DTD SVG 20010904//EN"
 "http://www.w3.org/TR/2001/REC-SVG-20010904/DTD/svg10.dtd">
<svg version="1.0" xmlns="http://www.w3.org/2000/svg"
 width="662.000000pt" height="516.000000pt" viewBox="0 0 662.000000 516.000000"
 preserveAspectRatio="xMidYMid meet">
<metadata>
Created by potrace 1.16, written by Peter Selinger 2001-2019
</metadata>
<g transform="translate(0.000000,516.000000) scale(0.100000,-0.100000)"
fill="#000000" stroke="none">
<path d="M4554 5146 l-61 -14 -40 -20 -40 -21 -31 -35 -31 -35 -7 -46 -6 -46
15 -57 15 -57 41 -115 40 -115 18 -85 18 -85 0 -200 0 -200 -23 -105 -24 -105
-39 -100 -39 -100 -48 -75 -49 -75 -53 -53 -54 -53 -56 -34 -57 -34 -58 -16
-59 -15 -62 0 -62 0 -79 15 -78 15 -62 30 -62 31 -41 46 -40 46 -15 50 -15 51
0 30 0 31 15 65 16 65 49 100 49 100 21 102 20 101 0 79 0 79 -15 57 -15 58
-21 41 -21 41 -46 49 -46 49 -60 34 -61 33 -65 22 -65 22 -95 18 -95 19 -155
12 -155 12 -315 -7 -315 -6 -264 -7 -264 -6 6 -141 7 -141 11 -288 11 -288
-11 -167 -11 -168 -16 -94 -16 -94 -25 -76 -24 -75 -41 -67 -40 -67 -37 -34
-37 -33 -45 -22 -45 -22 -58 -11 -57 -10 -75 11 -76 12 -53 18 -53 18 -24 16
-25 16 -84 32 -84 32 -115 0 -115 1 -59 -24 -59 -23 -66 -67 -67 -66 -31 -65
-31 -65 -16 -48 -16 -48 -15 -86 -15 -86 0 -123 0 -123 25 -80 26 -80 49 -75
50 -74 56 -51 56 -52 45 -30 44 -31 92 -43 92 -44 85 -23 85 -22 135 0 135 0
59 22 59 22 35 27 35 27 56 23 56 23 39 0 40 0 44 -22 45 -21 31 -44 31 -44
17 -45 18 -45 15 -87 16 -87 6 -155 6 -155 -12 -195 -12 -195 -19 -250 -19
-250 -6 -103 -7 -102 2377 2 2377 3 29 80 28 80 55 175 55 175 40 150 41 150
29 140 30 140 22 145 22 145 1 185 1 185 -19 73 -19 74 -31 45 -31 46 -35 19
-35 19 -85 -4 -85 -4 -101 -46 -102 -47 -78 -22 -79 -21 -140 -1 -140 0 -78
22 -78 22 -59 24 -59 24 -53 35 -53 36 -52 52 -52 52 -33 61 -33 61 1 175 1
175 21 95 22 95 37 75 36 75 52 51 52 52 51 26 52 26 54 14 54 14 79 7 78 7
105 -12 105 -11 110 -23 110 -24 80 -21 80 -22 23 -34 22 -35 30 0 30 0 0 73
0 73 -30 269 -29 270 -16 180 -15 180 -10 170 -10 170 0 188 0 187 -19 0 -18
0 -108 51 -109 51 -160 63 -161 63 -134 41 -134 41 -116 30 -116 29 -120 21
-120 22 -165 4 -165 4 -61 -14z"/>
</g>
</svg>
