<?xml version="1.0" standalone="no"?>
<!DOCTYPE svg PUBLIC "-//W3C//DTD SVG 20010904//EN"
 "http://www.w3.org/TR/2001/REC-SVG-20010904/DTD/svg10.dtd">
<svg version="1.0" xmlns="http://www.w3.org/2000/svg"
 width="660.000000pt" height="514.000000pt" viewBox="0 0 660.000000 514.000000"
 preserveAspectRatio="xMidYMid meet">
<metadata>
Created by potrace 1.16, written by Peter Selinger 2001-2019
</metadata>
<g transform="translate(0.000000,514.000000) scale(0.100000,-0.100000)"
fill="#000000" stroke="none">
<path d="M4554 5126 l-61 -14 -40 -20 -40 -21 -31 -35 -31 -35 -6 -43 -6 -43
15 -50 14 -50 41 -115 40 -115 18 -85 18 -85 0 -210 0 -210 -23 -105 -24 -105
-39 -100 -39 -100 -48 -75 -49 -75 -53 -53 -54 -53 -56 -34 -57 -34 -58 -16
-59 -15 -72 0 -72 0 -79 15 -78 15 -62 30 -62 31 -41 46 -40 46 -15 50 -15 51
0 40 0 41 15 65 16 65 49 100 49 100 21 102 20 101 0 69 0 69 -15 57 -15 58
-21 41 -21 41 -46 49 -46 49 -60 34 -61 33 -65 22 -65 22 -95 18 -95 19 -155
12 -155 12 -305 -7 -305 -6 -264 -7 -264 -6 6 -126 7 -126 11 -301 12 -301
-12 -169 -11 -170 -16 -94 -16 -94 -25 -76 -24 -75 -41 -67 -40 -67 -37 -34
-37 -33 -46 -22 -45 -23 -62 -10 -62 -11 -79 11 -80 12 -54 19 -54 18 -24 16
-25 16 -84 32 -84 32 -105 0 -105 1 -59 -24 -59 -23 -66 -67 -67 -66 -31 -65
-31 -65 -16 -48 -16 -48 -15 -86 -15 -86 0 -113 0 -113 25 -80 26 -80 49 -75
50 -74 56 -51 56 -52 45 -30 44 -31 92 -43 92 -44 85 -23 85 -22 125 0 125 1
59 21 59 22 35 27 35 27 56 23 56 23 49 0 50 0 44 -22 45 -21 31 -44 31 -44
17 -45 18 -45 16 -87 15 -87 6 -165 6 -165 -12 -195 -12 -195 -19 -250 -18
-250 -7 -93 -7 -92 2367 2 2367 3 29 80 28 80 55 175 55 175 40 150 41 150 29
140 30 140 22 145 22 145 1 175 1 175 -19 73 -19 74 -31 45 -31 46 -35 19 -35
19 -75 -4 -75 -4 -101 -47 -102 -46 -78 -22 -79 -22 -150 0 -150 -1 -78 23
-78 22 -59 24 -59 24 -53 35 -53 36 -52 52 -52 52 -33 61 -33 61 1 185 1 185
21 95 22 95 37 75 36 75 52 51 52 52 51 26 52 26 55 15 55 14 83 7 82 6 110
-11 110 -12 110 -23 110 -24 80 -21 80 -22 23 -34 22 -35 20 0 20 0 0 63 0 63
-30 269 -29 270 -16 180 -15 180 -10 170 -10 170 0 188 0 188 -9 -5 -9 -6
-116 56 -116 55 -163 63 -162 64 -134 41 -134 41 -116 30 -116 29 -120 21
-120 22 -155 4 -155 4 -61 -14z"/>
</g>
</svg>
