<?xml version="1.0" standalone="no"?>
<!DOCTYPE svg PUBLIC "-//W3C//DTD SVG 20010904//EN"
 "http://www.w3.org/TR/2001/REC-SVG-20010904/DTD/svg10.dtd">
<svg version="1.0" xmlns="http://www.w3.org/2000/svg"
 width="631.000000pt" height="478.000000pt" viewBox="0 0 631.000000 478.000000"
 preserveAspectRatio="xMidYMid meet">
<metadata>
Created by potrace 1.16, written by Peter Selinger 2001-2019
</metadata>
<g transform="translate(0.000000,478.000000) scale(0.100000,-0.100000)"
fill="#000000" stroke="none">
<path d="M2260 4773 l-55 -3 -280 -15 -280 -15 -232 -7 -233 -6 0 -191 0 -191
10 -170 10 -170 15 -180 16 -180 29 -270 30 -269 0 -53 0 -53 -10 0 -10 0 -22
35 -23 34 -80 22 -80 21 -110 24 -110 23 -110 12 -110 11 -91 -6 -90 -6 -57
-15 -57 -15 -52 -26 -51 -26 -52 -52 -52 -51 -36 -75 -37 -75 -22 -95 -21 -95
-1 -195 -1 -195 33 -61 33 -61 52 -52 52 -52 53 -36 53 -35 59 -24 59 -24 78
-22 78 -23 160 1 160 0 79 22 78 22 102 46 101 47 65 4 65 4 35 -19 35 -19 31
-46 31 -45 19 -74 19 -73 -1 -165 -1 -165 -22 -145 -22 -145 -30 -140 -29
-140 -45 -165 -44 -165 -49 -155 -49 -155 -32 -88 -31 -89 0 -9 0 -9 2368 2
2367 3 56 140 57 141 55 164 56 165 41 150 41 150 28 140 29 140 17 134 17
135 -5 140 -5 141 -21 68 -22 67 -37 39 -37 39 -44 12 -45 12 -45 -7 -46 -7
-35 -15 -35 -14 -130 -34 -130 -33 -130 -23 -130 -22 -150 0 -150 0 -89 22
-89 21 -66 32 -66 31 -66 66 -65 66 -23 50 -24 50 -14 50 -13 50 -1 90 -1 90
13 50 12 50 19 44 19 45 49 65 48 66 49 37 49 37 74 35 75 36 80 20 80 21 105
6 105 6 102 -12 102 -12 99 -24 99 -24 63 -22 64 -22 24 -29 25 -29 26 3 26 3
7 40 7 40 -5 100 -5 100 -29 345 -29 345 -11 150 -10 150 -10 215 -10 215 0
118 0 119 -27 -6 -28 -6 -85 -10 -85 -9 -165 -10 -165 -10 -235 -6 -235 -6
-180 -10 -180 -9 -80 -11 -80 -10 -79 -20 -79 -20 -57 -29 -57 -29 -30 -35
-31 -34 -10 -49 -11 -48 10 -50 9 -50 45 -111 45 -111 21 -79 21 -79 0 -100 1
-100 -22 -56 -22 -57 -40 -46 -41 -46 -61 -34 -62 -34 -50 -15 -50 -16 -61
-11 -61 -10 -114 -1 -114 -1 -64 21 -64 22 -56 36 -56 35 -57 60 -58 60 -45
72 -45 73 -31 84 -31 84 -14 73 -14 74 0 63 0 64 11 53 12 53 23 50 23 50 21
23 21 22 29 63 30 62 0 40 0 40 -19 31 -19 32 -54 26 -53 26 -100 15 -100 15
-220 -2 -220 -2 -55 -3z"/>
</g>
</svg>
