<?xml version="1.0" standalone="no"?>
<!DOCTYPE svg PUBLIC "-//W3C//DTD SVG 20010904//EN"
 "http://www.w3.org/TR/2001/REC-SVG-20010904/DTD/svg10.dtd">
<svg version="1.0" xmlns="http://www.w3.org/2000/svg"
 width="629.000000pt" height="476.000000pt" viewBox="0 0 629.000000 476.000000"
 preserveAspectRatio="xMidYMid meet">
<metadata>
Created by potrace 1.16, written by Peter Selinger 2001-2019
</metadata>
<g transform="translate(0.000000,476.000000) scale(0.100000,-0.100000)"
fill="#000000" stroke="none">
<path d="M2260 4753 l-55 -3 -280 -15 -280 -15 -232 -7 -233 -6 0 -181 0 -181
10 -170 10 -170 15 -180 16 -180 29 -270 30 -269 0 -63 0 -63 -20 0 -20 0 -22
35 -23 34 -80 22 -80 21 -110 24 -110 23 -110 12 -110 11 -82 -6 -83 -7 -55
-14 -55 -15 -52 -26 -51 -26 -52 -52 -52 -51 -36 -75 -37 -75 -22 -95 -21 -95
-1 -185 -1 -185 33 -61 33 -61 52 -52 52 -52 53 -36 53 -35 59 -24 59 -24 78
-22 78 -23 150 1 150 0 79 22 78 22 102 46 101 47 75 4 75 4 35 -19 35 -19 31
-46 31 -45 19 -74 19 -73 -1 -175 -1 -175 -22 -145 -22 -145 -30 -140 -29
-140 -45 -165 -44 -165 -49 -155 -49 -155 -31 -88 -31 -87 2357 2 2357 3 56
140 57 141 55 164 56 165 41 150 41 150 28 140 29 140 17 135 17 134 -5 131
-5 130 -21 68 -22 67 -37 39 -37 39 -44 12 -45 12 -55 -15 -56 -15 -85 -26
-85 -27 -145 -29 -145 -30 -120 -10 -120 -11 -90 6 -90 7 -84 19 -84 19 -66
32 -66 31 -65 66 -66 66 -26 55 -25 55 -13 53 -12 54 0 88 0 88 12 54 13 53
19 44 19 45 49 65 48 66 49 37 49 37 74 35 75 36 80 20 80 21 115 6 115 6 102
-12 102 -12 99 -24 99 -24 63 -22 62 -21 28 -31 27 -30 15 5 15 6 6 45 6 44
-9 144 -10 144 -25 285 -24 285 -11 150 -10 150 -10 215 -10 215 0 115 0 116
-95 -12 -95 -12 -177 -11 -178 -10 -225 -6 -225 -6 -190 -10 -190 -10 -75 -10
-75 -10 -79 -20 -79 -20 -56 -29 -56 -28 -29 -31 -29 -30 -12 -47 -12 -47 9
-46 8 -46 45 -111 45 -111 21 -79 21 -79 1 -110 0 -110 -22 -57 -22 -57 -44
-49 -44 -49 -73 -36 -73 -37 -60 -15 -60 -16 -120 -8 -119 -9 -63 9 -62 9 -43
17 -43 16 -55 35 -55 34 -57 60 -58 60 -45 72 -45 73 -31 84 -31 84 -14 73
-14 74 0 73 0 74 11 53 12 53 23 50 23 50 21 23 21 22 29 63 30 62 0 30 0 30
-19 31 -19 32 -54 26 -53 26 -100 15 -100 15 -210 -2 -210 -2 -55 -3z"/>
</g>
</svg>
