<?xml version="1.0" standalone="no"?>
<!DOCTYPE svg PUBLIC "-//W3C//DTD SVG 20010904//EN"
 "http://www.w3.org/TR/2001/REC-SVG-20010904/DTD/svg10.dtd">
<svg version="1.0" xmlns="http://www.w3.org/2000/svg"
 width="613.000000pt" height="608.000000pt" viewBox="0 0 613.000000 608.000000"
 preserveAspectRatio="xMidYMid meet">
<metadata>
Created by potrace 1.16, written by Peter Selinger 2001-2019
</metadata>
<g transform="translate(0.000000,608.000000) scale(0.100000,-0.100000)"
fill="#000000" stroke="none">
<path d="M1395 6038 l5 -43 15 -255 15 -255 11 -190 11 -190 -5 -255 -5 -255
-17 -75 -17 -75 -19 -45 -20 -45 -36 -32 -37 -33 -41 0 -42 0 -44 24 -45 23
-129 31 -130 31 -85 17 -85 16 -155 5 -155 5 -55 -11 -55 -11 -50 -24 -50 -23
-39 -39 -38 -39 -28 -55 -27 -55 -18 -75 -18 -75 -5 -206 -4 -206 17 -59 17
-58 19 -39 20 -38 37 -41 37 -41 50 -32 50 -32 56 -21 56 -21 64 -11 64 -12
130 0 130 1 105 16 105 16 115 29 115 28 93 31 92 31 33 0 32 0 41 -19 42 -19
30 -43 30 -44 15 -45 15 -46 13 -64 12 -65 -1 -170 0 -170 -16 -140 -17 -140
-25 -165 -25 -165 -61 -300 -61 -300 -10 -52 -10 -53 -9 0 -8 0 0 -24 0 -25
53 5 52 4 270 10 270 11 300 19 300 20 160 0 160 0 57 -14 57 -13 25 -17 26
-16 6 -25 6 -24 -26 -53 -25 -53 -35 -48 -35 -47 -20 -55 -21 -55 -11 -73 -11
-72 6 -75 7 -75 15 -65 15 -65 49 -100 49 -100 50 -58 50 -58 50 -42 49 -42
56 -34 56 -33 83 -29 84 -29 101 -10 101 -11 88 11 87 11 66 26 65 26 52 33
53 34 59 60 60 61 46 73 45 73 26 64 26 64 25 95 24 95 6 140 6 140 -12 87
-12 87 -19 76 -19 75 -41 101 -41 101 -5 42 -5 41 23 45 23 45 34 23 35 23 55
17 56 17 150 -1 150 -1 95 -17 95 -17 130 -34 130 -34 115 -39 115 -39 111
-46 112 -46 109 -54 109 -55 52 -31 53 -31 14 0 15 0 0 2370 0 2370 -2370 0
-2370 0 5 -42z"/>
</g>
</svg>
