<?xml version="1.0" standalone="no"?>
<!DOCTYPE svg PUBLIC "-//W3C//DTD SVG 20010904//EN"
 "http://www.w3.org/TR/2001/REC-SVG-20010904/DTD/svg10.dtd">
<svg version="1.0" xmlns="http://www.w3.org/2000/svg"
 width="608.000000pt" height="528.000000pt" viewBox="0 0 608.000000 528.000000"
 preserveAspectRatio="xMidYMid meet">
<metadata>
Created by potrace 1.16, written by Peter Selinger 2001-2019
</metadata>
<g transform="translate(0.000000,528.000000) scale(0.100000,-0.100000)"
fill="#000000" stroke="none">
<path d="M4474 5266 l-61 -14 -41 -21 -40 -20 -20 -26 -21 -26 -12 -36 -12
-36 6 -51 5 -51 41 -103 42 -102 19 -75 19 -76 12 -87 12 -87 -6 -120 -6 -120
-24 -95 -25 -95 -26 -64 -26 -64 -45 -73 -46 -73 -60 -61 -59 -60 -53 -34 -52
-33 -65 -26 -66 -26 -78 -10 -79 -9 -90 9 -90 9 -84 29 -83 29 -56 33 -56 34
-49 42 -50 42 -49 58 -50 58 -39 75 -39 75 -20 60 -21 60 -11 87 -12 87 11 70
11 71 21 55 20 55 35 47 34 48 25 50 25 50 0 38 0 38 -24 24 -23 23 -39 13
-39 12 -195 4 -195 4 -315 -20 -315 -21 -300 -11 -300 -12 -5 -4 -4 -4 32
-397 32 -397 11 -160 11 -160 -5 -230 -4 -230 -16 -51 -17 -51 -20 -18 -20
-18 -23 12 -22 11 -55 41 -55 40 -70 22 -70 22 -155 -1 -155 -1 -80 -21 -80
-22 -100 -49 -100 -48 -51 -39 -51 -39 -39 -35 -39 -36 -43 -58 -44 -57 -33
-72 -34 -72 -16 -60 -16 -60 -1 -105 -1 -105 13 -45 12 -45 29 -58 29 -58 46
-60 47 -59 66 -54 66 -53 75 -41 75 -41 55 -20 55 -20 65 -16 65 -17 85 -1 85
0 45 12 45 13 43 45 43 44 42 15 42 15 50 1 51 1 29 -16 30 -15 27 -29 27 -28
25 -55 25 -55 16 -80 17 -80 5 -155 6 -155 -12 -175 -12 -175 -40 -408 -41
-408 4 -4 3 -4 300 -25 300 -25 160 -11 160 -11 235 0 235 0 75 11 75 11 39
11 39 12 35 33 35 33 -6 37 -6 37 -19 26 -18 25 -26 65 -26 65 -23 90 -24 90
1 175 0 175 27 89 28 88 39 77 40 76 53 63 54 62 59 47 59 46 80 38 80 37 60
16 60 15 92 11 91 10 101 -10 101 -11 87 -25 86 -25 72 -33 73 -34 58 -43 59
-43 44 -45 44 -46 32 -50 33 -50 16 -48 16 -48 0 -17 0 -17 -19 -32 -20 -31
-35 -13 -35 -13 -17 -40 -16 -41 -5 -57 -6 -58 13 -47 14 -47 39 -39 39 -39
82 -38 81 -38 100 -25 100 -26 260 -51 260 -52 116 -28 115 -29 104 -36 103
-36 86 -44 86 -44 30 -20 30 -21 23 0 22 0 0 2368 0 2367 -23 11 -22 11 -145
76 -145 76 -115 47 -115 47 -100 34 -100 35 -125 34 -125 35 -110 20 -110 21
-155 4 -155 4 -61 -14z"/>
</g>
</svg>
