<?xml version="1.0" standalone="no"?>
<!DOCTYPE svg PUBLIC "-//W3C//DTD SVG 20010904//EN"
 "http://www.w3.org/TR/2001/REC-SVG-20010904/DTD/svg10.dtd">
<svg version="1.0" xmlns="http://www.w3.org/2000/svg"
 width="606.000000pt" height="526.000000pt" viewBox="0 0 606.000000 526.000000"
 preserveAspectRatio="xMidYMid meet">
<metadata>
Created by potrace 1.16, written by Peter Selinger 2001-2019
</metadata>
<g transform="translate(0.000000,526.000000) scale(0.100000,-0.100000)"
fill="#000000" stroke="none">
<path d="M4474 5246 l-61 -14 -41 -21 -40 -20 -20 -26 -21 -26 -12 -36 -11
-35 5 -43 6 -43 41 -101 41 -101 19 -75 19 -76 12 -87 12 -87 -6 -130 -6 -130
-24 -95 -25 -95 -26 -64 -26 -64 -45 -73 -46 -73 -60 -61 -59 -60 -53 -34 -52
-33 -65 -26 -65 -26 -84 -10 -83 -11 -96 10 -95 10 -84 29 -83 29 -56 33 -56
34 -49 42 -50 42 -50 58 -50 58 -49 100 -49 100 -17 70 -17 70 -1 105 0 105
18 60 18 59 24 46 24 45 35 48 35 49 11 38 12 38 -7 26 -6 26 -26 16 -25 17
-57 13 -57 14 -170 0 -170 0 -300 -20 -300 -20 -305 -11 -305 -12 -4 -3 -4 -4
31 -382 32 -383 11 -167 11 -168 -4 -237 -5 -238 -16 -48 -16 -49 -17 -19 -17
-19 -21 0 -21 0 -60 45 -60 45 -50 19 -51 19 -62 12 -63 13 -112 -6 -112 -5
-80 -21 -80 -21 -100 -49 -100 -48 -51 -39 -51 -39 -39 -35 -39 -36 -43 -58
-44 -57 -33 -72 -34 -72 -16 -60 -16 -60 0 -95 -1 -95 12 -45 12 -45 29 -58
29 -58 46 -60 47 -59 66 -54 66 -53 75 -41 75 -41 55 -20 55 -20 65 -16 65
-17 75 0 75 -1 45 13 45 12 43 45 43 44 42 15 42 16 60 1 60 0 30 -15 30 -16
27 -29 27 -28 25 -55 25 -55 16 -80 17 -80 5 -160 6 -160 -12 -185 -12 -185
-40 -394 -39 -394 3 -3 2 -3 300 -25 300 -25 159 -11 158 -11 227 0 226 0 75
11 75 11 39 11 39 12 35 33 34 33 -6 27 -7 28 -18 25 -17 25 -26 65 -26 65
-23 90 -24 90 1 185 0 185 27 89 28 88 39 77 40 76 53 63 54 62 59 47 59 46
80 38 80 37 60 16 61 15 96 11 96 11 106 -11 106 -11 87 -25 86 -25 72 -33 73
-34 58 -43 59 -43 44 -45 44 -46 32 -50 33 -50 16 -48 16 -48 0 -27 0 -27 -19
-32 -20 -31 -35 -13 -35 -13 -16 -40 -16 -40 -6 -48 -6 -48 13 -47 14 -47 39
-39 39 -39 82 -38 81 -38 100 -25 100 -26 260 -51 260 -52 116 -28 115 -29
104 -36 103 -36 86 -44 86 -44 30 -20 30 -21 13 0 12 0 0 2358 0 2357 -23 11
-22 11 -145 76 -145 76 -115 47 -115 47 -100 34 -100 35 -125 34 -125 35 -110
20 -110 20 -145 5 -145 4 -61 -14z"/>
</g>
</svg>
