<?xml version="1.0" standalone="no"?>
<!DOCTYPE svg PUBLIC "-//W3C//DTD SVG 20010904//EN"
 "http://www.w3.org/TR/2001/REC-SVG-20010904/DTD/svg10.dtd">
<svg version="1.0" xmlns="http://www.w3.org/2000/svg"
 width="489.000000pt" height="738.000000pt" viewBox="0 0 489.000000 738.000000"
 preserveAspectRatio="xMidYMid meet">
<metadata>
Created by potrace 1.16, written by Peter Selinger 2001-2019
</metadata>
<g transform="translate(0.000000,738.000000) scale(0.100000,-0.100000)"
fill="#000000" stroke="none">
<path d="M2265 7366 l-60 -14 -58 -26 -58 -25 -49 -38 -48 -38 -36 -59 -35
-59 -7 -44 -6 -44 4 -57 5 -57 27 -55 26 -55 30 -35 30 -36 16 -74 15 -75 -6
-45 -7 -45 -18 -41 -18 -41 -38 -42 -37 -42 -54 -36 -54 -36 -69 -28 -69 -28
-103 -25 -103 -26 -106 -15 -105 -14 -190 -12 -189 -11 -210 6 -210 6 -208 12
-209 11 -9 -14 -9 -14 0 -100 0 -100 -16 -260 -16 -260 -1 -285 -1 -285 18
-118 17 -117 19 -63 20 -62 30 -52 30 -52 33 -25 32 -25 44 -10 44 -10 56 10
56 10 60 34 60 34 45 22 45 22 50 13 50 14 66 0 67 0 63 -20 64 -19 50 -32 50
-31 57 -61 58 -60 40 -81 40 -81 21 -80 21 -80 0 -130 0 -130 -16 -70 -15 -70
-20 -59 -21 -58 -21 -37 -22 -36 -25 -27 -26 -28 -18 0 -17 0 -11 19 -10 20
-8 38 -8 38 -49 17 -50 17 -58 1 -58 0 -38 -19 -38 -20 -32 -36 -31 -36 -30
-59 -30 -59 -25 -76 -26 -76 -85 -347 -85 -347 -40 -135 -41 -135 -55 -140
-55 -140 -45 -90 -45 -90 -54 -91 -54 -91 0 -13 0 -13 252 7 253 6 250 15 250
15 270 6 270 6 105 -16 105 -16 53 -26 54 -26 19 -32 19 -31 0 -20 0 -20 -30
-62 -29 -63 -21 -22 -21 -23 -23 -50 -23 -50 -12 -53 -11 -53 0 -84 0 -83 14
-74 14 -73 31 -84 31 -84 45 -73 45 -72 58 -60 57 -60 55 -34 55 -35 43 -16
43 -17 66 -10 67 -9 125 9 126 9 60 16 60 15 73 37 73 36 44 49 44 49 22 57
22 57 0 120 -1 120 -21 79 -21 79 -46 114 -46 114 -5 39 -5 39 6 36 7 35 31
36 31 35 57 29 57 29 79 20 79 20 80 10 80 11 180 9 180 10 240 6 240 6 155
10 155 9 102 11 103 12 10 12 11 13 39 389 39 388 12 185 12 185 -6 170 -5
170 -17 80 -16 80 -25 55 -25 55 -27 28 -27 29 -30 16 -30 16 -70 -1 -70 -1
-42 -15 -42 -16 -43 -44 -43 -45 -45 -12 -45 -12 -66 0 -67 1 -63 16 -64 16
-55 20 -55 20 -75 41 -75 41 -66 53 -66 54 -47 59 -46 60 -29 58 -29 58 -12
44 -11 43 0 87 1 86 15 60 16 60 34 72 33 72 44 57 43 58 39 36 39 35 51 39
51 39 100 48 100 49 80 21 80 20 102 6 102 6 63 -12 62 -13 51 -19 50 -19 60
-45 60 -45 31 0 31 0 17 19 17 19 16 49 16 48 5 245 4 245 -11 175 -12 175
-29 365 -30 365 -5 20 -4 21 -98 56 -98 56 -105 45 -105 44 -98 32 -98 31
-117 30 -117 29 -260 56 -260 55 -75 21 -75 20 -65 26 -65 26 -50 33 -50 33
-30 47 -29 48 0 50 0 51 17 51 18 51 26 24 26 24 28 39 29 39 0 45 0 44 -33
33 -33 33 -69 22 -70 21 -95 15 -95 15 -205 4 -205 5 -60 -14z"/>
</g>
</svg>
