<?xml version="1.0" standalone="no"?>
<!DOCTYPE svg PUBLIC "-//W3C//DTD SVG 20010904//EN"
 "http://www.w3.org/TR/2001/REC-SVG-20010904/DTD/svg10.dtd">
<svg version="1.0" xmlns="http://www.w3.org/2000/svg"
 width="487.000000pt" height="736.000000pt" viewBox="0 0 487.000000 736.000000"
 preserveAspectRatio="xMidYMid meet">
<metadata>
Created by potrace 1.16, written by Peter Selinger 2001-2019
</metadata>
<g transform="translate(0.000000,736.000000) scale(0.100000,-0.100000)"
fill="#000000" stroke="none">
<path d="M2265 7346 l-60 -14 -58 -26 -58 -25 -49 -38 -48 -38 -36 -59 -35
-59 -7 -44 -6 -44 4 -47 5 -47 27 -55 26 -55 30 -35 30 -36 16 -74 16 -75 -6
-54 -7 -54 -18 -42 -19 -42 -38 -42 -37 -42 -54 -36 -54 -36 -69 -28 -69 -28
-103 -25 -103 -26 -106 -15 -105 -14 -190 -12 -189 -11 -225 6 -225 6 -194 11
-193 11 -9 -13 -9 -14 0 -100 0 -100 -16 -260 -16 -260 -1 -275 0 -275 17
-118 17 -117 19 -63 20 -62 30 -52 30 -52 33 -25 32 -25 40 -9 40 -9 55 12 55
11 55 31 55 32 45 22 45 22 50 13 50 14 76 0 77 0 63 -20 64 -19 50 -32 50
-31 57 -61 58 -60 40 -81 40 -81 21 -80 21 -80 1 -135 0 -135 -12 -60 -12 -60
-21 -65 -20 -65 -25 -45 -26 -45 -25 -27 -26 -28 -28 0 -27 0 -11 19 -10 20
-8 38 -8 38 -49 17 -50 17 -48 1 -48 0 -38 -19 -38 -20 -32 -36 -31 -36 -30
-59 -30 -59 -25 -76 -26 -76 -85 -347 -85 -347 -40 -135 -41 -135 -55 -140
-55 -140 -50 -99 -50 -100 -45 -75 -46 -76 -5 -9 -5 -9 244 7 244 6 250 15
250 15 280 6 280 6 105 -16 105 -16 53 -26 54 -26 19 -32 19 -31 0 -30 0 -30
-30 -62 -29 -63 -21 -22 -21 -23 -23 -50 -23 -50 -12 -53 -11 -53 0 -74 0 -73
14 -74 14 -73 31 -84 31 -84 45 -73 45 -72 58 -60 57 -60 55 -34 55 -35 43
-16 43 -17 62 -9 63 -9 119 9 120 8 60 16 60 15 73 37 73 36 44 49 44 49 22
57 22 57 0 110 -1 110 -21 79 -21 79 -45 111 -45 111 -8 46 -9 46 12 47 12 47
29 30 29 31 56 28 56 29 79 20 79 20 80 10 80 11 180 9 180 10 240 6 240 6
155 10 155 9 102 11 103 12 10 12 11 13 39 389 39 388 12 185 12 185 -6 160
-5 160 -17 80 -16 80 -25 55 -25 55 -27 28 -27 29 -30 16 -30 15 -60 0 -60 -1
-42 -16 -42 -15 -43 -44 -43 -45 -45 -12 -45 -13 -75 1 -75 0 -65 17 -65 16
-55 20 -55 20 -75 41 -75 41 -66 53 -66 54 -47 59 -46 60 -29 58 -29 58 -12
45 -12 45 1 95 0 95 16 60 16 60 34 72 33 72 44 57 43 58 39 36 39 35 51 39
51 39 100 48 100 49 80 21 80 21 112 5 112 6 63 -13 62 -12 51 -19 50 -19 60
-45 60 -45 21 0 21 0 17 19 17 19 16 49 16 48 5 234 4 235 -11 175 -12 176
-29 365 -30 365 -5 20 -4 21 -98 56 -98 56 -105 45 -105 44 -98 32 -98 31
-117 30 -117 29 -260 56 -260 55 -75 21 -75 20 -65 26 -65 26 -50 33 -50 33
-30 48 -30 48 0 60 1 60 17 51 18 51 26 24 26 24 28 39 29 39 0 35 0 34 -33
33 -33 33 -69 22 -70 21 -95 15 -95 15 -195 4 -195 5 -60 -14z"/>
</g>
</svg>
