<?xml version="1.0" standalone="no"?>
<!DOCTYPE svg PUBLIC "-//W3C//DTD SVG 20010904//EN"
 "http://www.w3.org/TR/2001/REC-SVG-20010904/DTD/svg10.dtd">
<svg version="1.0" xmlns="http://www.w3.org/2000/svg"
 width="610.000000pt" height="538.000000pt" viewBox="0 0 610.000000 538.000000"
 preserveAspectRatio="xMidYMid meet">
<metadata>
Created by potrace 1.16, written by Peter Selinger 2001-2019
</metadata>
<g transform="translate(0.000000,538.000000) scale(0.100000,-0.100000)"
fill="#000000" stroke="none">
<path d="M3263 5365 l-53 -15 -37 -19 -38 -19 -17 -19 -17 -19 -16 -37 -15
-36 0 -33 0 -34 14 -49 14 -50 35 -100 35 -100 22 -110 21 -110 6 -110 6 -110
-12 -103 -12 -103 -20 -77 -20 -77 -34 -78 -33 -78 -34 -57 -33 -57 -90 -91
-91 -91 -66 -36 -66 -37 -72 -25 -72 -25 -87 -11 -86 -12 -80 7 -80 6 -60 15
-60 15 -71 35 -71 35 -64 68 -64 67 -33 69 -33 69 -20 76 -20 76 -8 106 -9
106 9 120 8 119 16 100 16 99 30 135 31 135 19 21 19 20 0 26 0 25 -26 12 -27
12 -71 9 -71 9 -155 1 -155 0 -239 -15 -238 -15 -367 -30 -366 -30 -75 -7 -75
-8 0 -2365 0 -2365 140 -8 140 -7 475 -3 475 -2 115 18 115 18 94 31 94 31 51
35 51 35 39 36 38 36 25 39 25 39 20 56 20 56 5 110 5 110 -11 75 -11 75 -17
73 -17 74 -43 30 -43 29 -16 24 -15 23 13 21 12 20 46 20 45 19 70 15 70 16
140 12 140 12 120 -6 120 -6 82 -20 82 -20 63 -30 63 -31 49 -37 50 -38 42
-63 43 -62 21 -66 20 -66 0 -78 0 -79 -15 -69 -14 -69 -30 -79 -30 -79 -27
-65 -28 -65 0 -76 -1 -75 27 -42 28 -41 45 -27 46 -27 72 -19 72 -20 170 -5
171 -6 134 12 135 12 171 24 171 25 159 29 159 30 132 27 132 27 8 16 8 16 0
705 1 705 18 110 18 110 19 57 19 57 30 47 29 47 35 25 35 24 44 5 44 5 56
-16 56 -16 13 -13 13 -12 50 -32 50 -31 54 -16 55 -16 76 0 77 0 77 20 77 19
70 37 70 37 75 70 75 70 39 66 40 67 21 84 21 84 -4 66 -5 67 -33 62 -34 63
-60 54 -61 54 -91 45 -90 44 -92 25 -92 25 -96 12 -96 12 -127 -6 -126 -5 -85
-17 -85 -17 -105 -35 -104 -35 -14 -19 -13 -19 -10 0 -10 0 -16 38 -16 37 -5
131 -5 130 12 230 12 229 25 315 24 315 20 265 20 265 0 45 0 45 -83 53 -82
54 -146 72 -146 73 -129 47 -129 48 -130 33 -130 33 -106 16 -107 16 -118 -1
-119 0 -52 -14z"/>
</g>
</svg>
