<?xml version="1.0" standalone="no"?>
<!DOCTYPE svg PUBLIC "-//W3C//DTD SVG 20010904//EN"
 "http://www.w3.org/TR/2001/REC-SVG-20010904/DTD/svg10.dtd">
<svg version="1.0" xmlns="http://www.w3.org/2000/svg"
 width="608.000000pt" height="536.000000pt" viewBox="0 0 608.000000 536.000000"
 preserveAspectRatio="xMidYMid meet">
<metadata>
Created by potrace 1.16, written by Peter Selinger 2001-2019
</metadata>
<g transform="translate(0.000000,536.000000) scale(0.100000,-0.100000)"
fill="#000000" stroke="none">
<path d="M3261 5344 l-55 -15 -40 -22 -40 -22 -23 -34 -23 -33 -6 -35 -6 -34
15 -57 15 -57 35 -100 35 -100 22 -110 21 -110 6 -120 6 -120 -12 -103 -12
-103 -20 -77 -20 -77 -34 -78 -33 -78 -34 -57 -33 -57 -90 -91 -91 -91 -66
-36 -66 -37 -72 -25 -72 -25 -87 -11 -86 -12 -90 6 -90 6 -60 16 -60 15 -71
35 -71 35 -64 68 -64 67 -33 69 -33 69 -20 76 -20 76 -9 111 -9 111 9 125 9
126 16 98 16 99 30 135 31 135 19 21 19 20 0 16 0 15 -26 12 -27 12 -71 9 -71
9 -145 1 -145 0 -239 -15 -238 -15 -367 -30 -366 -30 -75 -7 -75 -8 0 -2355 0
-2355 140 -8 140 -7 465 -3 465 -2 115 18 115 18 94 31 94 31 51 35 51 35 39
36 38 36 25 39 25 39 20 56 20 56 5 100 5 100 -11 75 -11 75 -17 73 -17 73
-48 35 -49 34 -11 25 -11 25 13 24 13 25 46 19 46 20 70 15 70 16 140 12 140
12 130 -6 130 -6 82 -20 82 -20 63 -30 63 -31 49 -37 50 -38 42 -63 43 -62 21
-66 20 -66 0 -88 0 -89 -15 -69 -14 -69 -30 -79 -30 -79 -27 -65 -27 -65 -1
-66 -1 -65 27 -42 28 -41 45 -27 46 -27 72 -19 72 -20 160 -5 160 -6 135 12
135 12 171 24 171 25 159 29 159 30 132 27 132 27 8 16 8 16 0 705 0 705 18
110 19 110 19 57 19 57 30 47 29 47 36 25 35 25 54 5 53 4 56 -16 56 -16 13
-13 13 -12 50 -32 50 -31 54 -16 55 -16 66 0 67 0 77 20 77 19 70 37 70 37 75
70 75 70 39 66 40 67 21 84 21 84 -5 57 -5 57 -33 62 -33 62 -60 54 -61 54
-91 45 -90 44 -92 25 -92 25 -96 12 -97 12 -116 -6 -116 -6 -85 -16 -85 -17
-105 -35 -104 -35 -14 -19 -13 -19 -20 0 -20 0 -16 38 -16 37 -5 141 -5 141
12 229 12 229 25 315 24 315 20 265 20 265 0 35 0 35 -83 53 -82 54 -146 72
-146 73 -129 47 -129 48 -130 33 -130 33 -106 16 -107 16 -108 -1 -109 0 -54
-15z"/>
</g>
</svg>
