<?xml version="1.0" standalone="no"?>
<!DOCTYPE svg PUBLIC "-//W3C//DTD SVG 20010904//EN"
 "http://www.w3.org/TR/2001/REC-SVG-20010904/DTD/svg10.dtd">
<svg version="1.0" xmlns="http://www.w3.org/2000/svg"
 width="607.000000pt" height="624.000000pt" viewBox="0 0 607.000000 624.000000"
 preserveAspectRatio="xMidYMid meet">
<metadata>
Created by potrace 1.16, written by Peter Selinger 2001-2019
</metadata>
<g transform="translate(0.000000,624.000000) scale(0.100000,-0.100000)"
fill="#000000" stroke="none">
<path d="M3572 6229 l-72 -8 -63 -17 -62 -16 -80 -37 -80 -38 -59 -46 -59 -47
-54 -62 -53 -63 -40 -76 -39 -77 -28 -88 -27 -89 -1 -195 0 -195 24 -90 23
-90 26 -65 25 -65 13 -15 13 -15 10 -29 11 -28 -33 -32 -34 -32 -39 -12 -39
-11 -75 -11 -75 -11 -218 0 -218 1 -157 10 -157 11 -294 24 -293 25 -24 6 -24
6 0 -133 0 -134 10 -215 10 -215 10 -150 11 -150 30 -346 30 -347 2 -111 2
-110 -11 -11 -11 -11 -25 29 -24 29 -64 22 -63 22 -99 24 -99 24 -102 12 -102
12 -125 -6 -125 -6 -80 -20 -80 -21 -90 -44 -90 -45 -50 -48 -50 -48 -37 -55
-38 -55 -21 -59 -20 -59 -9 -78 -9 -79 9 -77 9 -78 9 -30 9 -30 24 -50 23 -50
65 -66 66 -66 66 -31 66 -32 84 -19 84 -20 95 -6 95 -7 125 11 125 11 145 30
145 29 85 27 85 26 49 14 50 14 40 -11 41 -11 37 -39 37 -39 22 -67 21 -68 5
-120 6 -120 -17 -135 -18 -135 -29 -140 -28 -140 -41 -150 -41 -150 -51 -150
-50 -150 -64 -163 -65 -163 6 -9 6 -10 2370 0 2369 0 0 2373 -1 2372 -32 16
-32 17 -95 50 -95 50 -104 36 -105 37 -115 29 -116 28 -260 52 -260 51 -100
26 -100 25 -81 38 -82 38 -39 39 -39 39 -13 47 -14 47 7 40 6 40 15 38 16 38
35 13 35 13 20 31 19 32 0 37 0 37 -16 48 -16 48 -33 50 -32 50 -44 46 -44 45
-59 43 -58 43 -73 34 -72 33 -86 25 -87 25 -101 11 -101 10 -37 -1 -36 -2 -73
-8z"/>
</g>
</svg>
