<?xml version="1.0" standalone="no"?>
<!DOCTYPE svg PUBLIC "-//W3C//DTD SVG 20010904//EN"
 "http://www.w3.org/TR/2001/REC-SVG-20010904/DTD/svg10.dtd">
<svg version="1.0" xmlns="http://www.w3.org/2000/svg"
 width="605.000000pt" height="622.000000pt" viewBox="0 0 605.000000 622.000000"
 preserveAspectRatio="xMidYMid meet">
<metadata>
Created by potrace 1.16, written by Peter Selinger 2001-2019
</metadata>
<g transform="translate(0.000000,622.000000) scale(0.100000,-0.100000)"
fill="#000000" stroke="none">
<path d="M3572 6209 l-72 -8 -63 -17 -62 -16 -80 -37 -80 -38 -59 -46 -59 -47
-54 -62 -53 -63 -40 -76 -39 -77 -28 -88 -27 -89 0 -185 -1 -185 24 -90 23
-90 26 -65 26 -65 17 -25 18 -25 7 -28 6 -27 -34 -33 -35 -33 -39 -12 -39 -11
-75 -11 -75 -11 -226 0 -227 0 -158 11 -159 11 -299 25 -300 25 -8 5 -8 5 0
-123 0 -123 10 -215 10 -215 10 -150 11 -150 24 -285 25 -285 10 -144 9 -144
-6 -44 -6 -45 -15 -6 -15 -5 -27 30 -28 31 -62 21 -63 22 -99 24 -99 24 -102
12 -102 12 -115 -6 -115 -6 -80 -21 -80 -20 -75 -36 -74 -35 -49 -37 -49 -37
-48 -66 -49 -65 -19 -45 -19 -44 -13 -53 -12 -54 0 -88 0 -88 12 -54 13 -53
25 -55 26 -55 66 -66 65 -66 66 -31 66 -32 84 -19 84 -19 90 -7 90 -6 120 11
120 10 145 30 145 29 85 27 85 26 56 15 55 15 45 -12 44 -12 37 -39 37 -39 22
-67 21 -68 5 -130 5 -131 -17 -134 -17 -135 -29 -140 -28 -140 -41 -150 -41
-150 -56 -165 -56 -165 -57 -142 -57 -143 5 -5 5 -5 2359 0 2358 0 0 2363 -1
2362 -32 16 -32 17 -95 50 -95 50 -104 36 -105 37 -115 29 -116 28 -260 52
-260 51 -100 26 -100 25 -81 38 -82 38 -39 39 -39 39 -14 47 -13 47 6 48 6 48
16 40 16 40 35 13 35 13 20 31 19 32 0 27 0 27 -16 48 -16 48 -33 50 -32 50
-44 46 -44 45 -59 43 -58 43 -73 34 -72 33 -86 25 -87 25 -101 11 -101 10 -27
-1 -26 -2 -73 -8z"/>
</g>
</svg>
