<?xml version="1.0" standalone="no"?>
<!DOCTYPE svg PUBLIC "-//W3C//DTD SVG 20010904//EN"
 "http://www.w3.org/TR/2001/REC-SVG-20010904/DTD/svg10.dtd">
<svg version="1.0" xmlns="http://www.w3.org/2000/svg"
 width="482.000000pt" height="590.000000pt" viewBox="0 0 482.000000 590.000000"
 preserveAspectRatio="xMidYMid meet">
<metadata>
Created by potrace 1.16, written by Peter Selinger 2001-2019
</metadata>
<g transform="translate(0.000000,590.000000) scale(0.100000,-0.100000)"
fill="#000000" stroke="none">
<path d="M2095 5889 l-99 -9 -83 -20 -83 -20 -33 -16 -32 -17 -12 -16 -12 -16
-1 -25 0 -26 15 -22 16 -22 42 -29 43 -29 17 -74 17 -73 11 -75 11 -75 -5 -90
-6 -90 -19 -56 -20 -56 -25 -39 -25 -39 -38 -36 -39 -36 -51 -35 -51 -35 -94
-31 -94 -31 -105 -16 -105 -16 -215 -6 -215 -6 -380 12 -380 12 -23 6 -22 5 0
-2371 0 -2371 2374 0 2374 0 6 83 6 82 20 260 19 260 12 200 12 200 -6 170 -6
170 -15 87 -16 87 -18 45 -17 45 -31 44 -31 44 -45 21 -44 22 -60 0 -59 0 -56
-23 -56 -23 -35 -27 -35 -27 -59 -22 -59 -21 -115 -1 -115 0 -85 23 -85 22
-92 44 -92 43 -44 31 -45 30 -56 52 -56 51 -50 74 -49 75 -26 80 -25 80 0 103
0 103 15 86 15 86 16 48 16 48 31 65 31 65 67 66 66 67 59 23 59 23 90 1 90 0
55 -19 55 -18 80 -39 80 -38 57 -15 57 -15 68 -6 68 -7 59 11 60 11 45 22 45
22 37 33 37 34 40 67 41 67 24 75 25 76 16 94 16 95 12 173 11 174 -12 311
-12 312 -6 123 -6 124 -26 -6 -26 -5 -200 -41 -200 -41 -175 -29 -175 -28
-140 -18 -140 -18 -225 0 -225 0 -72 21 -72 20 -46 27 -45 27 -28 41 -27 41 1
56 1 56 27 65 27 65 30 79 30 79 14 69 15 69 0 99 0 98 -20 66 -21 66 -43 62
-42 63 -50 38 -49 37 -63 31 -63 30 -82 20 -82 21 -180 3 -180 4 -100 -10z"/>
</g>
</svg>
