<?xml version="1.0" standalone="no"?>
<!DOCTYPE svg PUBLIC "-//W3C//DTD SVG 20010904//EN"
 "http://www.w3.org/TR/2001/REC-SVG-20010904/DTD/svg10.dtd">
<svg version="1.0" xmlns="http://www.w3.org/2000/svg"
 width="480.000000pt" height="588.000000pt" viewBox="0 0 480.000000 588.000000"
 preserveAspectRatio="xMidYMid meet">
<metadata>
Created by potrace 1.16, written by Peter Selinger 2001-2019
</metadata>
<g transform="translate(0.000000,588.000000) scale(0.100000,-0.100000)"
fill="#000000" stroke="none">
<path d="M2100 5870 l-95 -9 -75 -17 -75 -16 -46 -20 -46 -19 -13 -25 -13 -24
11 -25 11 -25 49 -34 48 -35 17 -73 17 -73 11 -75 11 -75 -5 -100 -5 -100 -20
-56 -20 -56 -25 -39 -25 -39 -38 -36 -39 -36 -51 -35 -51 -35 -94 -31 -94 -31
-115 -18 -115 -18 -460 2 -460 2 -148 8 -147 8 0 -2357 0 -2358 2364 0 2364 0
6 83 6 82 20 260 19 260 12 195 12 195 -6 165 -6 165 -15 87 -16 87 -18 45
-17 45 -31 44 -31 44 -45 21 -44 22 -50 0 -49 0 -56 -23 -56 -23 -35 -27 -35
-27 -59 -22 -59 -21 -125 -1 -125 0 -85 22 -85 23 -92 44 -92 43 -44 31 -45
30 -56 52 -56 51 -50 74 -49 75 -26 80 -25 80 0 113 0 113 15 86 15 86 16 48
16 48 31 65 31 65 67 66 66 67 59 23 59 24 105 -1 105 0 84 -32 84 -32 25 -16
24 -16 54 -18 54 -19 80 -12 79 -11 62 11 62 10 45 23 46 22 37 33 37 34 40
67 41 67 24 75 25 76 16 94 16 94 11 170 12 169 -12 301 -11 301 -7 128 -6
127 -16 -5 -16 -5 -200 -40 -200 -41 -175 -29 -175 -28 -140 -18 -140 -19
-235 1 -235 0 -72 21 -72 20 -46 27 -45 27 -28 41 -27 42 1 65 1 66 27 65 27
65 30 79 30 79 14 69 15 69 0 89 0 88 -20 66 -21 66 -43 62 -42 63 -50 38 -49
37 -63 31 -63 30 -82 20 -82 21 -170 3 -170 4 -95 -9z"/>
</g>
</svg>
