<svg baseProfile="full" height="1417" preserveAspectRatio="none" shape-rendering="geometricPrecision" version="1.1" viewBox="0,0,1890,1417" width="1890" xmlns="http://www.w3.org/2000/svg" xmlns:ev="http://www.w3.org/2001/xml-events" xmlns:xlink="http://www.w3.org/1999/xlink"><title>Jigsaw puzzle piece clips</title><desc>Created with the piecemaker. Piece count: 12</desc><defs /><g><g><rect fill="white" height="1417" width="1890" x="0" y="0" /></g></g><g><g><path d="M 0 0  L 472.500000 0  c -0.0,74.56057463297245 23.625,227.23928583873177 -13.536760523235529,194.17595250539844&#10;c -114.71616672118046,-28.339999999999996 -128.04701513867283,0 -128.04701513867283,41.990714161268215&#10;c 0,52.96701843725279 86.60485116219813,81.3070184372528 113.97829750769536,52.96701843725279&#10;c 61.425000000000004,-28.339999999999996 37.800000000000004,99.19 27.605478154213003,183.19964822941387 c 0.0,41.069365034818475 -23.625,233.73456089021226 -1.5671380142623135,200.67122755687893&#10;c 66.38527154657142,-28.339999999999996 137.55456938732326,0 137.55456938732326,35.495439109787725&#10;c 0,48.947202319419574 -64.66041819937118,77.28720231941958 -92.49743519243614,48.947202319419574&#10;c -61.425000000000004,-28.339999999999996 -37.800000000000004,99.19 -43.489996180624786,187.21946434724708 c -0.0,63.09561468346364 23.625,207.72276449729395 -68.22301464433644,174.65943116396062&#10;c -48.30460492496782,-28.339999999999996 -83.23806719078013,0 -83.23806719078013,61.50723550270604&#10;c 0,59.67710406941106 88.30188554513735,88.01710406941106 116.6116053922209,59.67710406941106&#10;c 61.425000000000004,-28.339999999999996 37.800000000000004,99.19 34.84947644289568,176.4895625972556 L 0 1417 " fill="none" stroke="black" stroke-width="0.1" style="vector-effect:non-scaling-stroke;" /></g><g><path d="M 0 0  L 945.000000 0  c -0.0,96.04103618911861 23.625,210.7440827955826 -77.90710860665563,177.68074946224928&#10;c -79.75474890167136,-28.339999999999996 -81.5334677852975,0 -81.5334677852975,58.485917204417376&#10;c 0,48.52742619911439 22.900109551154195,76.86742619911439 55.76572698576295,48.52742619911439&#10;c 61.425000000000004,-28.339999999999996 37.800000000000004,99.19 103.67484940619018,187.63924046755227 c 0.0,63.104905529317264 -23.625,212.09006743794205 41.2177762774862,179.02673410460872&#10;c 38.283352051553294,-28.339999999999996 85.89453978288267,0 85.89453978288267,57.139932562057936&#10;c 0,40.7656052803633 -22.773111341990433,69.1056052803633 -24.967199950646872,40.7656052803633&#10;c -61.425000000000004,-28.339999999999996 -37.800000000000004,99.19 -102.145116109722,195.40106138630335 c -0.0,124.48490738301153 23.625,198.88756196147105 3.7971730915594395,165.82422862813772&#10;c -98.8033398780954,-28.339999999999996 -121.74962126055095,0 -121.74962126055095,70.34243803852894&#10;c 0,38.31818480207434 65.02817804186165,66.65818480207435 116.45357987789866,38.31818480207434&#10;c 61.425000000000004,-28.339999999999996 37.800000000000004,99.19 1.4988682910928475,197.84848186459232 L 0 1417 " fill="none" stroke="black" stroke-width="0.1" style="vector-effect:non-scaling-stroke;" /></g><g><path d="M 0 0  L 1417.500000 0  c -0.0,59.81647425872232 23.625,207.14368150445347 -27.96971893857922,174.08034817112014&#10;c -104.408465438996,-28.339999999999996 -112.47049044746309,0 -112.47049044746309,62.08631849554652&#10;c 0,37.36951627199997 33.37182700062452,65.70951627199997 124.78898534789104,37.36951627199997&#10;c 61.425000000000004,-28.339999999999996 37.800000000000004,99.19 15.65122403815127,198.7971503946667 c -0.0,33.73143465937889 23.625,200.7530001960119 -8.119321456201963,167.68966686267856&#10;c -35.487476316903596,-28.339999999999996 -125.51234566950944,0 -125.51234566950944,68.4769998039881&#10;c 0,56.469363845488346 90.94142439777077,84.80936384548835 102.44824162828009,56.469363845488346&#10;c 61.425000000000004,-28.339999999999996 37.800000000000004,99.19 31.183425497431315,179.6973028211783 c -0.0,122.82470105147173 23.625,220.17189082891034 0.5677238226276975,187.108557495577&#10;c -77.90083794492585,-28.339999999999996 -132.06826768082806,0 -132.06826768082806,49.058109171089654&#10;c 0,42.91809133938128 38.093066889440394,71.25809133938128 134.27747569822324,42.91809133938128&#10;c 61.425000000000004,-28.339999999999996 37.800000000000004,99.19 -2.7769318400228826,193.24857532728538 L 0 1417 " fill="none" stroke="black" stroke-width="0.1" style="vector-effect:non-scaling-stroke;" /></g></g><g><g><path d="M 0 0  L 0 472.333333  c 30.500385963435544,0.0 215.23553487224143,-23.616666666666667 182.16053487224144,2.1106811161406465&#10;c -28.349999999999998,105.41047233101553 0,146.94938237527535 54.08946512775856,146.94938237527535&#10;c 74.40121234508024,0 102.75121234508023,-83.23313344075042 74.40121234508024,-157.17496940799387&#10;c -28.349999999999998,-61.403333333333336 99.225,-37.78666666666667 161.84878765491976,8.114905916577868 c 114.8615398337685,-0.0 234.80250457385114,23.616666666666667 201.72750457385115,-28.584548170215335&#10;c -28.349999999999998,-99.02641097204159 0,-123.35710169459088 34.52249542614885,-123.35710169459088&#10;c 52.50728273455701,0 80.857282734557,78.77930018669777 52.50728273455701,150.66354402288232&#10;c -28.349999999999998,61.403333333333336 99.225,37.78666666666667 183.742717265443,1.2781058419238889 c 27.9709398770568,-0.0 230.68033125259177,23.616666666666667 197.60533125259178,-62.45129161887503&#10;c -28.349999999999998,-31.054489550493205 0,-63.45986792587664 38.64466874740822,-63.45986792587664&#10;c 60.581282075053934,0 88.93128207505393,10.692834986206515 60.581282075053934,35.37018344183137&#10;c -28.349999999999998,61.403333333333336 99.225,37.78666666666667 175.66871792494607,90.5409761029203 c 112.35706048606659,0.0 200.2817039812477,-23.616666666666667 167.20670398124767,20.854357190673014&#10;c -28.349999999999998,35.110448927494 0,111.91288105986398 69.04329601875233,111.91288105986398&#10;c 60.82087693084242,0 89.17087693084241,-79.97979160853238 60.82087693084242,-141.81264682834004&#10;c -28.349999999999998,-61.403333333333336 99.225,-37.78666666666667 175.42912306915758,9.045408577803045 L 1890 0 " fill="none" stroke="black" stroke-width="0.1" style="vector-effect:non-scaling-stroke;" /></g><g><path d="M 0 0  L 0 944.666667  c 103.12150538293828,-0.0 217.8311628464619,23.616666666666667 184.7561628464619,-90.62665078527714&#10;c -28.349999999999998,-16.670059144719705 0,-26.514338339592996 51.493837153538095,-26.514338339592996&#10;c 58.62253825265503,0 86.97253825265503,36.63840978761711 58.62253825265503,96.31852990113849&#10;c -28.349999999999998,61.403333333333336 99.225,37.78666666666667 177.62746174734497,20.82245922373164 c 110.2774529340093,0.0 233.76213715164755,-23.616666666666667 200.68713715164753,82.6047124477128&#10;c -28.349999999999998,46.353225966742066 0,65.36201528189109 35.56286284835247,65.36201528189109&#10;c 50.91656080503918,0 79.26656080503918,-87.55671098996531 50.91656080503918,-154.13386118255113&#10;c -28.349999999999998,-61.403333333333336 99.225,-37.78666666666667 185.33343919496082,6.16713345294724 c 106.00134678242038,0.0 218.74870719590427,-23.616666666666667 185.67370719590429,28.35997497793531&#10;c -28.349999999999998,28.730010824535807 0,109.03371082242265 50.576292804095715,109.03371082242265&#10;c 51.718928964414204,0 80.0689289644142,-22.217484912933575 51.718928964414204,-86.02493502411365&#10;c -28.349999999999998,-61.403333333333336 99.225,-37.78666666666667 184.5310710355858,-51.36875077624431 c 27.3519324888024,-0.0 195.33389967958112,23.616666666666667 162.25889967958113,-13.814525170803922&#10;c -28.349999999999998,-64.8943408387222 0,-136.01480084525798 73.99110032041887,-136.01480084525798&#10;c 72.87533355595798,0 101.22533355595797,63.14511416910597 72.87533355595798,65.76661452450163&#10;c -28.349999999999998,61.403333333333336 99.225,37.78666666666667 163.37466644404202,84.06271149156028 L 1890 0 " fill="none" stroke="black" stroke-width="0.1" style="vector-effect:non-scaling-stroke;" /></g></g></svg>