<?xml version="1.0" standalone="no"?>
<!DOCTYPE svg PUBLIC "-//W3C//DTD SVG 20010904//EN"
 "http://www.w3.org/TR/2001/REC-SVG-20010904/DTD/svg10.dtd">
<svg version="1.0" xmlns="http://www.w3.org/2000/svg"
 width="122.000000pt" height="117.000000pt" viewBox="0 0 122.000000 117.000000"
 preserveAspectRatio="xMidYMid meet">
<metadata>
Created by potrace 1.16, written by Peter Selinger 2001-2019
</metadata>
<g transform="translate(0.000000,117.000000) scale(0.100000,-0.100000)"
fill="#000000" stroke="none">
<path d="M0 720 l0 -449 103 7 102 7 65 0 65 0 -3 -15 -4 -15 -5 -51 -6 -51
17 -51 17 -51 30 -26 31 -25 47 0 48 0 17 19 18 20 14 38 13 38 1 56 0 56 -12
33 -11 33 19 14 19 15 70 -6 70 -5 99 -21 99 -20 6 6 6 5 6 152 5 152 8 17 8
18 18 0 19 0 7 -11 7 -12 58 6 58 5 33 23 33 22 12 15 13 16 0 53 0 54 -15 28
-14 29 -16 6 -17 6 -27 0 -27 0 -11 -11 -12 -12 -41 -1 -42 -1 -24 28 -23 27
-10 38 -11 37 0 103 0 102 -465 0 -465 0 0 -450z"/>
</g>
</svg>
