<?xml version="1.0" standalone="no"?>
<!DOCTYPE svg PUBLIC "-//W3C//DTD SVG 20010904//EN"
 "http://www.w3.org/TR/2001/REC-SVG-20010904/DTD/svg10.dtd">
<svg version="1.0" xmlns="http://www.w3.org/2000/svg"
 width="120.000000pt" height="115.000000pt" viewBox="0 0 120.000000 115.000000"
 preserveAspectRatio="xMidYMid meet">
<metadata>
Created by potrace 1.16, written by Peter Selinger 2001-2019
</metadata>
<g transform="translate(0.000000,115.000000) scale(0.100000,-0.100000)"
fill="#000000" stroke="none">
<path d="M0 709 l0 -441 37 6 38 5 116 7 116 6 20 -6 20 -7 -13 -37 -13 -37
-1 -31 0 -30 16 -47 16 -47 30 -25 30 -25 37 0 38 0 17 19 18 20 14 38 13 38
1 48 0 48 -16 37 -15 37 23 19 23 18 85 -6 85 -6 87 -19 86 -18 6 30 6 29 0
113 0 112 11 31 10 30 16 6 16 6 25 -16 25 -16 44 6 45 6 31 21 32 22 13 15
12 16 0 43 0 44 -15 29 -15 30 -26 6 -26 7 -25 -14 -26 -14 -44 0 -45 0 -23
28 -24 27 -10 38 -11 37 0 103 0 102 -455 0 -455 0 0 -441z"/>
</g>
</svg>
