<?xml version="1.0" standalone="no"?>
<!DOCTYPE svg PUBLIC "-//W3C//DTD SVG 20010904//EN"
 "http://www.w3.org/TR/2001/REC-SVG-20010904/DTD/svg10.dtd">
<svg version="1.0" xmlns="http://www.w3.org/2000/svg"
 width="147.000000pt" height="112.000000pt" viewBox="0 0 147.000000 112.000000"
 preserveAspectRatio="xMidYMid meet">
<metadata>
Created by potrace 1.16, written by Peter Selinger 2001-2019
</metadata>
<g transform="translate(0.000000,112.000000) scale(0.100000,-0.100000)"
fill="#000000" stroke="none">
<path d="M254 1088 l6 -33 10 -134 10 -135 0 -21 0 -22 -67 15 -68 14 -47 -5
-47 -4 -25 -17 -26 -16 0 -51 0 -50 15 -29 15 -30 30 -15 29 -15 21 0 21 0 24
16 25 16 15 -12 14 -12 10 -31 10 -32 11 -110 12 -110 -1 -29 -2 -28 23 8 23
8 120 3 120 4 40 -13 40 -14 -4 -19 -3 -20 -5 -52 -5 -52 25 -25 25 -25 36 -6
36 -7 46 7 45 6 35 34 34 33 0 29 0 29 -15 21 -16 22 27 17 26 18 133 4 133 5
11 7 11 6 -26 98 -26 98 -1 54 -1 54 12 12 12 12 24 -14 25 -13 70 5 70 5 44
26 44 26 14 17 14 17 -1 56 0 56 -7 27 -7 28 -26 6 -26 7 -59 -17 -59 -16 -23
0 -24 0 -16 18 -17 19 -9 49 -9 49 5 103 6 102 -472 0 -472 0 5 -32z"/>
</g>
</svg>
