<?xml version="1.0" standalone="no"?>
<!DOCTYPE svg PUBLIC "-//W3C//DTD SVG 20010904//EN"
 "http://www.w3.org/TR/2001/REC-SVG-20010904/DTD/svg10.dtd">
<svg version="1.0" xmlns="http://www.w3.org/2000/svg"
 width="145.000000pt" height="110.000000pt" viewBox="0 0 145.000000 110.000000"
 preserveAspectRatio="xMidYMid meet">
<metadata>
Created by potrace 1.16, written by Peter Selinger 2001-2019
</metadata>
<g transform="translate(0.000000,110.000000) scale(0.100000,-0.100000)"
fill="#000000" stroke="none">
<path d="M261 1028 l7 -73 7 -119 8 -119 -24 7 -24 6 -76 12 -75 12 -40 -20
-39 -19 -3 -42 -3 -42 16 -31 16 -31 34 -16 34 -16 34 18 34 18 17 -6 17 -7
13 -32 14 -33 12 -115 13 -115 0 -27 0 -27 18 9 18 10 128 -1 128 0 35 -12 35
-12 -2 -25 -3 -25 -6 -43 -6 -42 16 -24 15 -24 36 -12 36 -12 45 7 45 6 35 34
34 33 0 17 0 17 -17 29 -17 29 16 16 16 16 44 9 43 8 97 1 96 0 15 6 14 5 -19
67 -18 67 -10 65 -10 65 8 30 8 30 19 3 18 4 23 -12 23 -13 61 6 60 5 43 25
44 26 13 16 14 17 0 46 0 47 -7 27 -7 28 -23 5 -22 6 -50 -16 -50 -15 -36 0
-36 0 -16 18 -17 18 -10 53 -10 53 7 99 6 99 -459 0 -460 0 7 -72z"/>
</g>
</svg>
