<?xml version="1.0" standalone="no"?>
<!DOCTYPE svg PUBLIC "-//W3C//DTD SVG 20010904//EN"
 "http://www.w3.org/TR/2001/REC-SVG-20010904/DTD/svg10.dtd">
<svg version="1.0" xmlns="http://www.w3.org/2000/svg"
 width="120.000000pt" height="92.000000pt" viewBox="0 0 120.000000 92.000000"
 preserveAspectRatio="xMidYMid meet">
<metadata>
Created by potrace 1.16, written by Peter Selinger 2001-2019
</metadata>
<g transform="translate(0.000000,92.000000) scale(0.100000,-0.100000)"
fill="#000000" stroke="none">
<path d="M33 913 l-21 -4 -7 -124 -7 -124 6 -55 7 -55 13 -10 13 -11 65 17 65
17 39 -15 39 -15 14 -26 15 -27 -9 -27 -10 -27 -27 -20 -28 -21 -35 17 -36 17
-25 0 -25 0 -14 -32 -13 -33 -11 -105 -10 -105 -7 -61 -6 -60 123 -12 124 -12
38 0 38 0 5 13 5 13 -16 37 -16 38 11 40 11 41 37 40 37 39 42 6 43 6 30 -13
31 -13 14 -28 15 -27 -15 -49 -15 -48 0 -33 0 -32 28 -11 27 -11 164 5 163 6
4 4 5 4 -31 92 -31 91 -6 63 -6 64 12 21 12 22 25 -16 25 -17 64 6 63 6 46 21
45 22 17 25 16 26 -5 39 -5 39 -16 23 -15 24 -46 22 -47 23 -70 -5 -70 -5 8
142 7 142 -14 9 -14 9 -140 3 -140 4 -29 -11 -28 -11 6 -40 6 -40 6 -37 6 -38
-24 -35 -24 -35 -39 -13 -39 -13 -27 6 -26 6 -22 20 -21 20 -6 24 -6 25 18 76
17 76 -14 9 -14 9 -160 -2 -160 -1 -22 -4z"/>
</g>
</svg>
