<?xml version="1.0" standalone="no"?>
<!DOCTYPE svg PUBLIC "-//W3C//DTD SVG 20010904//EN"
 "http://www.w3.org/TR/2001/REC-SVG-20010904/DTD/svg10.dtd">
<svg version="1.0" xmlns="http://www.w3.org/2000/svg"
 width="118.000000pt" height="90.000000pt" viewBox="0 0 118.000000 90.000000"
 preserveAspectRatio="xMidYMid meet">
<metadata>
Created by potrace 1.16, written by Peter Selinger 2001-2019
</metadata>
<g transform="translate(0.000000,90.000000) scale(0.100000,-0.100000)"
fill="#000000" stroke="none">
<path d="M33 893 l-21 -4 -7 -123 -7 -123 7 -44 7 -44 9 -11 9 -11 57 15 58
15 39 -7 38 -7 24 -24 24 -24 0 -36 0 -37 -29 -29 -29 -29 -24 0 -23 1 -25 14
-25 14 -18 1 -18 0 -14 -32 -13 -33 -12 -115 -11 -115 -6 -41 -5 -41 140 -13
141 -13 14 6 15 6 -15 43 -16 43 12 44 12 43 38 41 38 40 55 5 55 4 30 -15 30
-16 13 -30 12 -30 -16 -54 -16 -55 0 -21 0 -21 26 -10 25 -10 83 0 83 0 74 6
74 7 -28 86 -29 86 -5 75 -5 75 15 20 15 19 34 -18 35 -19 54 7 54 7 43 22 43
22 17 27 16 26 -13 41 -12 41 -40 27 -40 26 -54 5 -53 4 -31 -15 -31 -15 -3 6
-3 7 9 143 10 143 -12 12 -12 12 -132 3 -132 4 -29 -11 -28 -11 6 -33 7 -32 6
-38 5 -38 -12 -30 -13 -30 -24 -19 -24 -19 -44 -6 -43 -7 -35 17 -34 16 -12
25 -11 25 0 27 0 28 15 59 16 58 -13 9 -13 8 -150 -2 -150 -1 -22 -4z"/>
</g>
</svg>
