<?xml version="1.0" standalone="no"?>
<!DOCTYPE svg PUBLIC "-//W3C//DTD SVG 20010904//EN"
 "http://www.w3.org/TR/2001/REC-SVG-20010904/DTD/svg10.dtd">
<svg version="1.0" xmlns="http://www.w3.org/2000/svg"
 width="102.000000pt" height="117.000000pt" viewBox="0 0 102.000000 117.000000"
 preserveAspectRatio="xMidYMid meet">
<metadata>
Created by potrace 1.16, written by Peter Selinger 2001-2019
</metadata>
<g transform="translate(0.000000,117.000000) scale(0.100000,-0.100000)"
fill="#000000" stroke="none">
<path d="M464 1151 l-32 -19 -16 -23 -16 -23 0 -29 0 -28 16 -24 15 -24 -3
-27 -3 -27 -35 -18 -35 -19 -131 0 -131 0 -7 -31 -6 -32 0 -78 0 -78 11 -52
11 -52 26 -24 25 -23 44 0 44 0 29 15 29 15 20 -26 21 -27 0 -24 0 -24 -27
-25 -26 -24 -50 -15 -51 -15 -30 0 -31 1 -19 14 -20 15 -26 0 -27 0 -16 -18
-17 -19 0 -54 0 -55 15 -56 15 -57 27 -71 27 -70 141 0 140 0 38 11 37 10 25
25 25 25 0 38 0 39 -15 36 -15 36 10 20 10 19 22 15 22 16 31 0 30 0 33 -20
33 -20 6 -17 7 -17 -12 -4 -12 -4 0 -39 0 -39 23 -14 22 -15 109 -26 109 -27
43 -20 42 -21 16 6 16 6 0 437 0 436 -17 -6 -18 -5 -90 -32 -90 -31 -52 -2
-52 -1 -15 15 -15 15 15 50 15 50 -4 57 -5 57 -23 41 -24 42 -27 14 -27 14
-48 0 -48 0 -31 -19z"/>
</g>
</svg>
