<?xml version="1.0" standalone="no"?>
<!DOCTYPE svg PUBLIC "-//W3C//DTD SVG 20010904//EN"
 "http://www.w3.org/TR/2001/REC-SVG-20010904/DTD/svg10.dtd">
<svg version="1.0" xmlns="http://www.w3.org/2000/svg"
 width="100.000000pt" height="116.000000pt" viewBox="0 0 100.000000 116.000000"
 preserveAspectRatio="xMidYMid meet">
<metadata>
Created by potrace 1.16, written by Peter Selinger 2001-2019
</metadata>
<g transform="translate(0.000000,116.000000) scale(0.100000,-0.100000)"
fill="#000000" stroke="none">
<path d="M74 1152 l-11 -7 -10 -160 -11 -160 9 -9 8 -9 37 18 37 17 44 -5 43
-5 39 -25 39 -26 12 -35 11 -35 -16 -25 -16 -24 -43 -20 -42 -20 -47 -7 -47
-7 -25 16 -24 16 -20 0 -20 0 -12 -22 -12 -22 6 -80 5 -81 28 -85 29 -85 106
3 107 3 41 -11 41 -11 10 -20 11 -20 -15 -31 -16 -31 0 -36 0 -36 8 -13 9 -13
37 -20 38 -20 57 -2 57 -1 28 26 28 26 5 46 6 46 -11 0 -10 0 -6 15 -5 15 28
14 28 15 129 16 128 16 43 11 43 10 0 13 0 12 -19 44 -19 44 -17 85 -16 85
-10 33 -11 32 -18 10 -19 10 -26 0 -26 0 -19 -10 -18 -10 -12 15 -12 14 -5 39
-5 39 16 31 16 30 35 12 36 12 51 -17 51 -16 23 5 23 6 7 37 7 37 -7 150 -7
150 -2 2 -2 1 -153 -7 -152 -8 -25 -16 -25 -16 0 -23 1 -22 14 -19 15 -20 0
-9 0 -9 -34 -33 -34 -33 -40 -7 -39 -6 -36 14 -35 15 -12 22 -12 22 7 32 6 31
2 35 2 35 -35 12 -35 12 -140 0 -140 1 -11 -8z"/>
</g>
</svg>
