<?xml version="1.0" standalone="no"?>
<!DOCTYPE svg PUBLIC "-//W3C//DTD SVG 20010904//EN"
 "http://www.w3.org/TR/2001/REC-SVG-20010904/DTD/svg10.dtd">
<svg version="1.0" xmlns="http://www.w3.org/2000/svg"
 width="98.000000pt" height="114.000000pt" viewBox="0 0 98.000000 114.000000"
 preserveAspectRatio="xMidYMid meet">
<metadata>
Created by potrace 1.16, written by Peter Selinger 2001-2019
</metadata>
<g transform="translate(0.000000,114.000000) scale(0.100000,-0.100000)"
fill="#000000" stroke="none">
<path d="M74 1132 l-11 -7 -10 -150 -9 -150 3 -7 3 -6 31 15 31 15 53 -4 54
-5 40 -26 40 -27 12 -41 13 -41 -16 -26 -17 -27 -43 -22 -43 -22 -54 -7 -54
-7 -35 19 -34 18 -15 -19 -15 -20 5 -75 5 -75 28 -85 29 -85 130 0 130 0 22
-13 23 -13 6 -24 6 -24 -16 -32 -16 -32 0 -26 0 -26 8 -13 9 -13 37 -20 37
-19 48 -1 48 -2 26 23 27 23 6 33 6 33 -16 16 -16 16 0 14 0 14 29 15 28 15
129 16 128 16 43 11 43 10 0 5 0 4 -16 31 -16 30 -24 115 -24 115 -11 19 -10
19 -24 6 -25 6 -31 -12 -30 -13 -16 16 -16 16 -5 49 -4 49 16 31 16 31 39 12
40 12 38 -11 38 -11 20 -5 20 -6 14 9 14 9 5 50 4 51 -7 123 -7 123 -86 -3
-87 -2 -62 -6 -63 -6 -22 -18 -23 -18 18 -30 17 -30 0 -17 0 -17 -34 -33 -35
-34 -45 -6 -45 -7 -36 12 -36 12 -15 24 -16 24 6 42 6 43 3 25 2 25 -35 12
-35 12 -130 0 -130 1 -11 -8z"/>
</g>
</svg>
