<?xml version="1.0" standalone="no"?>
<!DOCTYPE svg PUBLIC "-//W3C//DTD SVG 20010904//EN"
 "http://www.w3.org/TR/2001/REC-SVG-20010904/DTD/svg10.dtd">
<svg version="1.0" xmlns="http://www.w3.org/2000/svg"
 width="146.000000pt" height="112.000000pt" viewBox="0 0 146.000000 112.000000"
 preserveAspectRatio="xMidYMid meet">
<metadata>
Created by potrace 1.16, written by Peter Selinger 2001-2019
</metadata>
<g transform="translate(0.000000,112.000000) scale(0.100000,-0.100000)"
fill="#000000" stroke="none">
<path d="M268 1114 l-17 -5 2 -170 2 -170 -13 -8 -14 -8 -36 13 -37 13 -31 1
-31 0 -32 -11 -32 -11 -14 -29 -15 -28 0 -48 0 -48 13 -25 13 -25 29 1 30 2
22 7 21 7 20 -20 20 -20 12 -59 11 -58 20 -75 20 -75 6 -28 5 -27 37 7 36 8
81 -1 81 -2 47 -20 46 -21 12 -26 12 -27 -17 -30 -17 -30 0 -23 0 -23 31 -11
32 -11 59 0 60 0 35 17 35 16 26 40 27 40 0 66 0 66 -9 17 -8 18 26 11 25 12
56 -11 55 -11 65 -27 66 -26 16 6 16 6 -7 63 -6 62 -7 72 -6 72 13 31 12 30 2
0 1 0 40 -15 40 -14 35 -1 35 0 39 11 40 11 28 30 28 30 0 63 0 62 -10 30 -11
30 -25 12 -25 11 -33 0 -32 0 -53 -16 -52 -15 -14 11 -14 12 -12 35 -11 36 4
104 5 103 -24 6 -23 6 -131 -9 -130 -9 -22 -22 -22 -22 19 -34 18 -35 -6 -27
-7 -28 -27 -24 -26 -25 -33 -13 -32 -14 -26 0 -26 0 -38 20 -38 19 -17 36 -17
36 15 31 16 31 0 28 0 29 -27 17 -26 18 -131 2 -131 2 -17 -5z"/>
</g>
</svg>
