<?xml version="1.0" standalone="no"?>
<!DOCTYPE svg PUBLIC "-//W3C//DTD SVG 20010904//EN"
 "http://www.w3.org/TR/2001/REC-SVG-20010904/DTD/svg10.dtd">
<svg version="1.0" xmlns="http://www.w3.org/2000/svg"
 width="98.000000pt" height="114.000000pt" viewBox="0 0 98.000000 114.000000"
 preserveAspectRatio="xMidYMid meet">
<metadata>
Created by potrace 1.16, written by Peter Selinger 2001-2019
</metadata>
<g transform="translate(0.000000,114.000000) scale(0.100000,-0.100000)"
fill="#000000" stroke="none">
<path d="M373 1130 l-23 -9 0 -29 0 -30 15 -35 15 -36 0 -28 0 -29 -22 -19
-23 -20 -146 -3 -147 -3 -6 -142 -6 -142 8 -34 7 -34 17 -10 16 -11 41 18 40
18 35 -6 35 -7 25 -30 26 -31 0 -24 0 -25 -27 -26 -28 -26 -32 -13 -32 -14
-35 0 -35 0 -6 10 -6 10 -28 0 -29 0 -12 -15 -13 -15 6 -98 5 -97 18 -72 18
-73 120 0 121 0 37 11 38 10 27 24 28 23 0 54 0 53 -8 22 -8 23 28 11 28 11
48 -5 49 -4 19 -20 20 -20 -17 -35 -17 -36 6 -24 7 -25 25 -11 24 -11 128 -16
128 -16 35 -9 35 -10 8 0 7 0 0 24 0 25 -11 28 -11 28 -29 134 -29 134 -16 19
-17 18 -29 0 -29 0 -29 -15 -29 -15 -20 26 -21 27 0 19 0 20 28 28 29 28 42
13 43 13 41 -13 42 -12 15 -5 15 -4 15 9 15 10 3 103 4 102 -7 74 -7 74 -116
-9 -117 -8 -50 0 -50 1 -26 7 -27 7 -6 16 -6 16 15 46 16 46 -7 40 -6 39 -24
24 -23 23 -73 -1 -73 0 -22 -9z"/>
</g>
</svg>
