<?xml version="1.0" standalone="no"?>
<!DOCTYPE svg PUBLIC "-//W3C//DTD SVG 20010904//EN"
 "http://www.w3.org/TR/2001/REC-SVG-20010904/DTD/svg10.dtd">
<svg version="1.0" xmlns="http://www.w3.org/2000/svg"
 width="115.000000pt" height="94.000000pt" viewBox="0 0 115.000000 94.000000"
 preserveAspectRatio="xMidYMid meet">
<metadata>
Created by potrace 1.16, written by Peter Selinger 2001-2019
</metadata>
<g transform="translate(0.000000,94.000000) scale(0.100000,-0.100000)"
fill="#000000" stroke="none">
<path d="M32 933 l-32 -4 0 -142 0 -142 10 -37 11 -38 19 -10 19 -10 31 0 32
0 29 17 29 17 36 -19 36 -19 10 -22 11 -22 -7 -36 -7 -35 -29 -30 -30 -29 -35
-12 -36 -12 -24 16 -24 16 -26 0 -26 0 -15 -35 -15 -36 3 -132 3 -132 172 0
173 0 25 27 25 27 0 35 0 36 -16 40 -17 41 11 25 12 24 35 17 34 16 26 -11 25
-12 20 -32 20 -33 0 -41 0 -40 -16 -47 -16 -47 6 -24 6 -23 25 -11 26 -12 52
0 52 0 62 9 61 9 55 12 54 11 11 37 11 37 15 119 16 119 15 24 15 23 11 0 10
0 31 -16 30 -16 22 6 23 6 11 25 12 26 0 92 0 92 -10 15 -9 15 -30 -18 -29
-17 -37 0 -37 0 -28 28 -28 29 -11 39 -11 39 0 93 0 92 -82 -6 -83 -5 -69 -9
-69 -9 -20 -20 -20 -20 17 -45 17 -46 -6 -19 -6 -19 -26 -17 -26 -17 -58 -5
-59 -6 -45 18 -46 17 -16 24 -15 24 16 25 16 24 0 39 0 39 -21 19 -21 19 -117
1 -116 2 -33 -5z"/>
</g>
</svg>
