<?xml version="1.0" standalone="no"?>
<!DOCTYPE svg PUBLIC "-//W3C//DTD SVG 20010904//EN"
 "http://www.w3.org/TR/2001/REC-SVG-20010904/DTD/svg10.dtd">
<svg version="1.0" xmlns="http://www.w3.org/2000/svg"
 width="121.000000pt" height="115.000000pt" viewBox="0 0 121.000000 115.000000"
 preserveAspectRatio="xMidYMid meet">
<metadata>
Created by potrace 1.16, written by Peter Selinger 2001-2019
</metadata>
<g transform="translate(0.000000,115.000000) scale(0.100000,-0.100000)"
fill="#000000" stroke="none">
<path d="M59 1144 l-27 -5 -7 -175 -7 -175 5 -5 5 -5 46 15 47 16 24 0 25 0
40 -16 41 -16 14 -29 15 -28 0 -16 0 -16 -15 -29 -15 -28 -36 -12 -36 -12 -70
18 -70 18 -19 -23 -19 -23 0 -57 0 -56 17 -118 17 -119 111 7 110 7 41 -11 42
-11 12 -15 13 -16 -18 -53 -18 -52 10 -30 9 -29 44 -23 45 -23 67 4 67 4 27
17 26 18 -5 41 -5 42 -7 21 -7 21 29 11 28 12 100 15 100 16 43 11 44 11 -5
31 -5 31 -26 62 -26 62 -10 51 -10 51 15 30 16 29 7 0 8 0 23 -16 23 -17 53 6
52 5 52 22 51 23 26 30 26 31 -4 78 -3 77 -18 18 -17 18 -49 -18 -49 -17 -26
0 -26 0 -21 21 -21 21 -14 34 -14 33 0 99 0 99 -112 7 -113 7 -49 -10 -48 -9
-16 -15 -15 -16 17 -59 16 -58 0 -17 0 -16 -26 -28 -26 -28 -90 -4 -89 -3 -19
17 -19 17 14 29 15 28 0 54 0 54 -17 15 -18 15 -24 13 -25 13 -110 3 -111 2
-26 -4z"/>
</g>
</svg>
