<?xml version="1.0" standalone="no"?>
<!DOCTYPE svg PUBLIC "-//W3C//DTD SVG 20010904//EN"
 "http://www.w3.org/TR/2001/REC-SVG-20010904/DTD/svg10.dtd">
<svg version="1.0" xmlns="http://www.w3.org/2000/svg"
 width="119.000000pt" height="113.000000pt" viewBox="0 0 119.000000 113.000000"
 preserveAspectRatio="xMidYMid meet">
<metadata>
Created by potrace 1.16, written by Peter Selinger 2001-2019
</metadata>
<g transform="translate(0.000000,113.000000) scale(0.100000,-0.100000)"
fill="#000000" stroke="none">
<path d="M59 1124 l-26 -5 -6 -127 -7 -127 0 -41 0 -42 38 14 37 13 37 1 38 0
40 -16 41 -16 14 -29 15 -28 0 -26 0 -26 -15 -29 -15 -29 -41 -13 -42 -12 -66
17 -66 18 -17 -22 -18 -21 0 -47 0 -46 17 -116 17 -117 136 2 136 1 27 -18 27
-17 0 -22 0 -22 -16 -41 -15 -41 10 -27 11 -28 47 -21 46 -20 54 5 55 6 24 16
24 15 0 26 0 25 -14 28 -15 27 7 11 7 10 20 10 20 11 105 17 105 16 43 11 44
11 -5 21 -5 21 -27 63 -26 63 -10 58 -11 59 16 31 17 31 17 0 18 0 23 -16 23
-16 44 6 45 6 50 21 49 22 26 30 26 31 -4 68 -4 68 -15 16 -16 15 -38 -15 -37
-16 -39 0 -39 0 -21 21 -21 21 -14 34 -14 33 0 99 0 99 -107 6 -108 7 -43 -9
-44 -9 -14 -13 -13 -14 14 -49 15 -49 0 -28 0 -28 -26 -28 -26 -28 -102 -3
-101 -4 -19 21 -19 21 16 36 17 35 0 43 0 43 -18 15 -17 15 -24 13 -24 12
-101 3 -101 3 -26 -4z"/>
</g>
</svg>
