<?xml version="1.0" standalone="no"?>
<!DOCTYPE svg PUBLIC "-//W3C//DTD SVG 20010904//EN"
 "http://www.w3.org/TR/2001/REC-SVG-20010904/DTD/svg10.dtd">
<svg version="1.0" xmlns="http://www.w3.org/2000/svg"
 width="118.000000pt" height="147.000000pt" viewBox="0 0 118.000000 147.000000"
 preserveAspectRatio="xMidYMid meet">
<metadata>
Created by potrace 1.16, written by Peter Selinger 2001-2019
</metadata>
<g transform="translate(0.000000,147.000000) scale(0.100000,-0.100000)"
fill="#000000" stroke="none">
<path d="M403 1450 l-32 -19 -7 -26 -6 -25 5 -28 6 -27 12 -41 12 -41 -26 -29
-27 -29 -170 -3 -170 -3 0 -138 0 -138 11 -31 10 -31 24 -15 24 -16 41 0 41 0
36 15 37 16 19 -19 19 -19 5 -40 5 -40 -15 -28 -15 -29 -49 3 -49 2 -11 -13
-11 -13 -31 -110 -31 -110 -30 -59 -30 -59 0 -8 0 -7 178 1 177 2 -2 -25 -2
-25 -7 -62 -7 -61 23 -47 23 -47 36 -15 35 -15 60 7 59 6 23 16 24 15 0 39 0
38 -11 25 -12 25 12 15 13 15 76 16 77 16 84 26 83 26 -5 41 -5 41 -16 70 -16
70 0 56 0 57 15 12 16 13 11 -11 12 -12 53 0 54 0 32 14 32 13 28 26 27 26 0
45 0 46 -29 32 -29 33 -64 -1 -63 -1 -24 -4 -25 -4 -8 35 -8 35 7 133 6 132
-21 0 -21 0 -68 -14 -68 -15 -76 -7 -76 -6 -24 12 -24 13 -7 10 -6 10 14 40
14 40 0 59 0 59 -15 29 -15 29 -22 15 -22 16 -36 0 -35 0 -32 -20z"/>
</g>
</svg>
