<?xml version="1.0" standalone="no"?>
<!DOCTYPE svg PUBLIC "-//W3C//DTD SVG 20010904//EN"
 "http://www.w3.org/TR/2001/REC-SVG-20010904/DTD/svg10.dtd">
<svg version="1.0" xmlns="http://www.w3.org/2000/svg"
 width="116.000000pt" height="145.000000pt" viewBox="0 0 116.000000 145.000000"
 preserveAspectRatio="xMidYMid meet">
<metadata>
Created by potrace 1.16, written by Peter Selinger 2001-2019
</metadata>
<g transform="translate(0.000000,145.000000) scale(0.100000,-0.100000)"
fill="#000000" stroke="none">
<path d="M403 1430 l-32 -19 -7 -27 -7 -27 17 -46 16 -46 0 -23 0 -23 -25 -27
-25 -27 -170 -3 -170 -3 0 -128 0 -128 11 -31 10 -31 24 -15 24 -16 28 0 28 0
48 17 47 17 22 -21 21 -22 4 -53 4 -53 -20 -32 -21 -33 -10 0 -10 0 0 10 0 10
-34 0 -34 0 -10 -12 -10 -13 -31 -110 -31 -110 -29 -56 -28 -57 171 5 171 4
12 -8 11 -8 -14 -55 -14 -54 0 -30 0 -30 21 -44 22 -44 35 -15 35 -14 51 7 51
6 22 15 23 15 0 28 0 28 -15 35 -14 35 18 16 18 16 94 20 94 20 63 22 64 22
-6 31 -5 30 -16 74 -16 74 3 65 3 65 17 11 18 11 20 -13 20 -12 40 0 41 0 32
14 32 13 28 26 27 26 0 35 0 36 -28 31 -28 31 -45 5 -46 5 -33 -17 -32 -17
-17 17 -16 16 2 159 2 160 -9 0 -9 0 -70 -15 -69 -14 -81 -7 -80 -7 -30 13
-30 12 -6 17 -5 18 15 43 15 43 0 49 0 49 -15 29 -15 29 -22 15 -22 16 -26 0
-25 0 -32 -20z"/>
</g>
</svg>
