<?xml version="1.0" standalone="no"?>
<!DOCTYPE svg PUBLIC "-//W3C//DTD SVG 20010904//EN"
 "http://www.w3.org/TR/2001/REC-SVG-20010904/DTD/svg10.dtd">
<svg version="1.0" xmlns="http://www.w3.org/2000/svg"
 width="96.000000pt" height="116.000000pt" viewBox="0 0 96.000000 116.000000"
 preserveAspectRatio="xMidYMid meet">
<metadata>
Created by potrace 1.16, written by Peter Selinger 2001-2019
</metadata>
<g transform="translate(0.000000,116.000000) scale(0.100000,-0.100000)"
fill="#000000" stroke="none">
<path d="M10 1048 l0 -113 11 -37 10 -38 24 -27 23 -28 60 0 60 1 15 13 16 13
21 -7 20 -6 15 -29 15 -29 0 -34 0 -33 -12 -16 -13 -15 -30 -21 -31 -20 -36
-7 -36 -7 -26 17 -26 17 -24 -6 -24 -6 -8 -17 -8 -18 -7 -150 -7 -150 -7 -24
-8 -24 24 8 24 8 143 4 143 5 23 -6 23 -6 -13 -52 -14 -52 0 -38 0 -37 11 -25
12 -25 35 -17 35 -16 50 5 50 6 23 16 24 15 16 31 16 31 -5 52 -4 51 -8 22 -7
23 28 11 29 11 140 -4 140 -3 -1 30 -1 30 -13 115 -12 115 -16 35 -17 35 -28
3 -28 3 -25 -16 -24 -15 -30 15 -30 15 -15 31 -16 30 3 32 3 32 38 19 39 19
71 -13 72 -13 29 -5 29 -5 -8 129 -7 129 -7 70 -6 70 -462 3 -463 2 0 -112z"/>
</g>
</svg>
