<?xml version="1.0" standalone="no"?>
<!DOCTYPE svg PUBLIC "-//W3C//DTD SVG 20010904//EN"
 "http://www.w3.org/TR/2001/REC-SVG-20010904/DTD/svg10.dtd">
<svg version="1.0" xmlns="http://www.w3.org/2000/svg"
 width="118.000000pt" height="90.000000pt" viewBox="0 0 118.000000 90.000000"
 preserveAspectRatio="xMidYMid meet">
<metadata>
Created by potrace 1.16, written by Peter Selinger 2001-2019
</metadata>
<g transform="translate(0.000000,90.000000) scale(0.100000,-0.100000)"
fill="#000000" stroke="none">
<path d="M16 891 l-6 -8 -2 -151 -2 -150 13 -16 13 -16 22 0 21 1 25 14 25 14
32 1 32 0 16 -17 17 -16 9 -24 9 -24 0 -34 0 -34 -34 -35 -33 -36 -35 0 -34 0
-11 11 -11 11 -28 -4 -29 -3 -13 -25 -13 -25 6 -154 5 -154 6 -8 5 -9 102 0
103 0 59 15 60 15 28 30 27 30 0 48 0 48 -12 12 -11 11 27 11 27 10 32 0 32 0
20 -6 20 -5 -3 -40 -4 -40 18 -14 19 -14 109 -26 109 -26 62 -24 62 -25 18 0
18 0 -6 122 -6 123 9 39 8 38 11 11 11 11 12 -12 12 -12 50 0 49 0 33 25 33
25 10 35 9 35 -8 58 -8 57 -7 17 -7 17 -23 15 -24 16 -12 0 -11 0 -33 -16 -34
-16 -23 4 -23 3 -14 29 -14 29 2 94 1 95 6 24 6 24 -465 0 -466 0 -5 -9z"/>
</g>
</svg>
