<?xml version="1.0" standalone="no"?>
<!DOCTYPE svg PUBLIC "-//W3C//DTD SVG 20010904//EN"
 "http://www.w3.org/TR/2001/REC-SVG-20010904/DTD/svg10.dtd">
<svg version="1.0" xmlns="http://www.w3.org/2000/svg"
 width="145.000000pt" height="117.000000pt" viewBox="0 0 145.000000 117.000000"
 preserveAspectRatio="xMidYMid meet">
<metadata>
Created by potrace 1.16, written by Peter Selinger 2001-2019
</metadata>
<g transform="translate(0.000000,117.000000) scale(0.100000,-0.100000)"
fill="#000000" stroke="none">
<path d="M610 1158 l-25 -13 -3 -29 -4 -29 17 -59 16 -58 -13 -28 -13 -27 -40
-20 -40 -20 -115 -1 -115 -2 0 -153 0 -154 -20 4 -20 4 -83 1 -84 1 -34 -37
-34 -38 0 -60 0 -61 15 -29 15 -30 25 -6 24 -6 53 4 53 4 17 8 17 8 17 -26 17
-27 8 -137 7 -137 1 -2 1 -3 470 0 470 0 0 5 0 5 -25 74 -25 75 -6 58 -6 58
14 17 13 18 40 -15 40 -14 35 -1 36 0 44 22 45 23 17 35 18 35 0 40 0 40 -18
35 -19 35 -34 17 -34 18 -40 0 -40 0 -39 -9 -38 -9 5 27 6 28 7 125 7 125 -11
7 -11 6 -113 6 -113 6 -52 9 -53 10 -9 16 -9 16 14 33 14 33 0 46 0 45 -29 32
-29 33 -89 3 -88 3 -25 -13z"/>
</g>
</svg>
