<?xml version="1.0" standalone="no"?>
<!DOCTYPE svg PUBLIC "-//W3C//DTD SVG 20010904//EN"
 "http://www.w3.org/TR/2001/REC-SVG-20010904/DTD/svg10.dtd">
<svg version="1.0" xmlns="http://www.w3.org/2000/svg"
 width="118.000000pt" height="118.000000pt" viewBox="0 0 118.000000 118.000000"
 preserveAspectRatio="xMidYMid meet">
<metadata>
Created by potrace 1.16, written by Peter Selinger 2001-2019
</metadata>
<g transform="translate(0.000000,118.000000) scale(0.100000,-0.100000)"
fill="#000000" stroke="none">
<path d="M682 1168 l-23 -12 -20 -37 -19 -38 0 -38 0 -39 16 -22 16 -23 -6
-23 -6 -23 -27 -14 -28 -14 -165 -1 -165 -1 0 -69 0 -69 8 -97 8 -98 -33 8
-33 7 -78 0 -79 0 -25 -30 -24 -30 3 -72 3 -72 20 -16 20 -16 45 5 45 5 26 7
27 6 11 -34 11 -33 10 -105 10 -105 6 -30 7 -30 11 -7 11 -8 458 0 457 0 0
444 0 443 -52 7 -53 6 -55 0 -55 0 -59 10 -60 10 -14 14 -15 14 17 41 16 41 0
30 0 29 -12 25 -11 26 -23 15 -23 15 -38 5 -38 5 -23 -12z"/>
</g>
</svg>
