<?xml version="1.0" standalone="no"?>
<!DOCTYPE svg PUBLIC "-//W3C//DTD SVG 20010904//EN"
 "http://www.w3.org/TR/2001/REC-SVG-20010904/DTD/svg10.dtd">
<svg version="1.0" xmlns="http://www.w3.org/2000/svg"
 width="143.000000pt" height="115.000000pt" viewBox="0 0 143.000000 115.000000"
 preserveAspectRatio="xMidYMid meet">
<metadata>
Created by potrace 1.16, written by Peter Selinger 2001-2019
</metadata>
<g transform="translate(0.000000,115.000000) scale(0.100000,-0.100000)"
fill="#000000" stroke="none">
<path d="M643 1141 l-41 -7 -16 -13 -16 -13 0 -25 0 -24 12 -22 11 -22 8 -34
8 -35 -15 -27 -14 -28 -43 -12 -42 -11 -115 3 -115 4 0 -175 0 -175 -20 3 -20
3 -96 6 -95 5 -18 -27 -18 -28 4 -71 5 -71 17 -32 17 -33 39 0 40 0 20 12 20
13 15 -16 16 -16 16 -84 15 -84 14 -52 15 -53 479 0 480 0 20 40 20 40 21 87
21 88 13 33 14 32 15 0 15 0 6 -10 6 -10 19 0 19 0 11 20 11 20 6 64 6 64 -22
46 -22 45 -37 23 -37 23 -67 0 -66 0 6 55 7 55 0 80 0 80 -160 6 -160 5 -27
18 -28 18 0 4 0 5 15 36 15 35 0 37 0 37 -16 23 -17 23 -33 14 -33 14 -33 -1
-33 -2 -42 -6z"/>
</g>
</svg>
