<?xml version="1.0" standalone="no"?>
<!DOCTYPE svg PUBLIC "-//W3C//DTD SVG 20010904//EN"
 "http://www.w3.org/TR/2001/REC-SVG-20010904/DTD/svg10.dtd">
<svg version="1.0" xmlns="http://www.w3.org/2000/svg"
 width="121.000000pt" height="111.000000pt" viewBox="0 0 121.000000 111.000000"
 preserveAspectRatio="xMidYMid meet">
<metadata>
Created by potrace 1.16, written by Peter Selinger 2001-2019
</metadata>
<g transform="translate(0.000000,111.000000) scale(0.100000,-0.100000)"
fill="#000000" stroke="none">
<path d="M714 1100 l-21 -8 -22 -28 -21 -27 0 -34 0 -34 15 -35 14 -34 -5 -15
-6 -14 -31 -6 -32 -6 -158 3 -157 3 0 -165 0 -165 -9 -14 -9 -14 -59 16 -59
17 -47 0 -46 0 -25 -22 -25 -23 -2 -30 -2 -30 1 -21 2 -21 27 -28 28 -28 40
-18 40 -17 48 -7 48 -7 41 18 40 18 15 -19 15 -20 -5 -65 -5 -65 -26 -74 -26
-74 0 -1 0 -1 456 3 455 2 -5 18 -5 17 -10 60 -10 60 -6 57 -6 57 -20 25 -20
26 -15 0 -15 0 -30 -16 -30 -15 -18 6 -19 6 -12 28 -11 29 -1 66 0 66 12 29
12 29 20 5 20 6 40 -15 41 -14 28 0 29 0 20 32 20 33 0 128 0 127 -14 0 -15 0
-73 -15 -73 -16 -71 -2 -71 -2 -27 15 -28 14 6 26 5 25 12 50 12 51 -14 29
-14 28 -25 18 -25 17 -30 6 -30 5 -21 -9z"/>
</g>
</svg>
