<?xml version="1.0" standalone="no"?>
<!DOCTYPE svg PUBLIC "-//W3C//DTD SVG 20010904//EN"
 "http://www.w3.org/TR/2001/REC-SVG-20010904/DTD/svg10.dtd">
<svg version="1.0" xmlns="http://www.w3.org/2000/svg"
 width="125.000000pt" height="94.000000pt" viewBox="0 0 125.000000 94.000000"
 preserveAspectRatio="xMidYMid meet">
<metadata>
Created by potrace 1.16, written by Peter Selinger 2001-2019
</metadata>
<g transform="translate(0.000000,94.000000) scale(0.100000,-0.100000)"
fill="#000000" stroke="none">
<path d="M663 929 l-33 -10 0 -34 0 -34 10 -6 10 -6 0 -27 0 -27 -20 -33 -20
-32 -32 -20 -33 -20 -36 0 -36 0 -26 24 -26 24 -7 28 -7 28 10 45 11 46 7 24
8 23 -84 -7 -84 -8 -120 -6 -120 -6 -13 -174 -13 -173 5 -15 6 -16 33 7 32 6
44 9 45 9 50 -13 51 -13 23 -28 24 -27 -6 -36 -5 -36 -32 -29 -32 -28 -61 5
-61 6 -52 7 -51 6 -12 -22 -12 -23 5 -106 5 -106 12 -54 12 -53 162 3 161 4
35 20 35 21 3 39 3 39 -12 23 -12 23 11 24 11 25 38 11 39 12 40 -11 41 -11
18 -20 18 -20 -11 0 -12 0 0 -40 0 -39 28 -15 27 -14 96 -16 96 -16 43 -15 43
-15 15 0 15 0 -6 48 -5 47 -16 70 -16 70 0 50 0 50 9 14 10 15 51 -12 52 -12
67 0 68 0 34 23 34 23 3 59 3 60 -6 31 -5 32 -25 26 -24 26 -34 0 -34 0 -32
-16 -32 -16 -24 6 -25 6 -17 27 -18 27 -5 116 -5 115 -65 16 -65 16 -70 6 -70
6 -32 -10z"/>
</g>
</svg>
