<?xml version="1.0" standalone="no"?>
<!DOCTYPE svg PUBLIC "-//W3C//DTD SVG 20010904//EN"
 "http://www.w3.org/TR/2001/REC-SVG-20010904/DTD/svg10.dtd">
<svg version="1.0" xmlns="http://www.w3.org/2000/svg"
 width="116.000000pt" height="117.000000pt" viewBox="0 0 116.000000 117.000000"
 preserveAspectRatio="xMidYMid meet">
<metadata>
Created by potrace 1.16, written by Peter Selinger 2001-2019
</metadata>
<g transform="translate(0.000000,117.000000) scale(0.100000,-0.100000)"
fill="#000000" stroke="none">
<path d="M220 1160 l-65 -8 -71 -1 -72 -1 -6 -16 -6 -16 0 -73 0 -74 11 -53
12 -52 27 -28 28 -28 30 0 30 0 35 15 36 15 16 0 15 0 20 -32 20 -33 0 -55 0
-55 -20 -33 -20 -32 -27 -13 -26 -12 -5 13 -4 12 -28 0 -29 0 -15 -15 -15 -15
-16 -78 -16 -77 -20 -63 -19 -62 0 -17 0 -16 114 6 113 7 29 6 29 6 -3 -62 -4
-62 7 -35 6 -34 38 -39 37 -38 37 -7 37 -7 33 6 33 6 27 28 27 29 10 34 10 34
0 36 0 36 -14 41 -14 40 11 11 11 11 55 0 56 0 60 -15 61 -14 48 -16 48 -17 9
9 8 8 15 90 15 90 6 57 6 57 19 23 19 23 12 -12 13 -13 32 0 33 0 20 26 20 25
7 45 6 44 -13 31 -12 31 -33 14 -33 14 -28 0 -28 -1 -37 -13 -37 -13 -8 21 -8
21 3 158 3 157 -18 0 -18 0 -42 -10 -43 -10 -112 -16 -113 -15 -22 -15 -23
-14 0 -29 0 -29 16 -6 16 -6 -27 -28 -27 -27 -78 0 -78 0 -22 20 -22 20 5 75
6 75 7 23 6 22 -28 -2 -29 -1 -65 -7z"/>
</g>
</svg>
