<?xml version="1.0" standalone="no"?>
<!DOCTYPE svg PUBLIC "-//W3C//DTD SVG 20010904//EN"
 "http://www.w3.org/TR/2001/REC-SVG-20010904/DTD/svg10.dtd">
<svg version="1.0" xmlns="http://www.w3.org/2000/svg"
 width="114.000000pt" height="115.000000pt" viewBox="0 0 114.000000 115.000000"
 preserveAspectRatio="xMidYMid meet">
<metadata>
Created by potrace 1.16, written by Peter Selinger 2001-2019
</metadata>
<g transform="translate(0.000000,115.000000) scale(0.100000,-0.100000)"
fill="#000000" stroke="none">
<path d="M220 1140 l-65 -8 -72 -1 -73 -1 -6 -26 -7 -26 6 -83 5 -84 18 -38
19 -38 27 -15 27 -14 48 17 48 17 23 0 22 0 20 -32 20 -33 0 -63 0 -63 -15
-29 -15 -28 -29 -21 -29 -21 -5 0 -6 0 -16 16 -16 16 -24 -6 -25 -6 -14 -53
-14 -52 -20 -80 -20 -80 -7 -24 -8 -24 99 6 100 7 46 6 46 6 -5 -60 -6 -60 7
-35 6 -34 31 -36 31 -36 35 -11 34 -12 34 6 33 7 31 34 30 34 7 47 7 47 -18
55 -17 54 15 15 15 15 64 -1 65 -1 89 -23 89 -24 14 -4 14 -4 8 30 9 30 16
120 15 120 15 23 14 22 20 0 19 0 6 -10 6 -10 24 0 24 0 19 25 20 26 7 38 6
39 -15 31 -16 30 -39 12 -40 12 -51 -17 -52 -17 -5 5 -5 4 -9 39 -9 38 7 138
6 137 -9 0 -9 0 -42 -10 -43 -10 -112 -16 -113 -15 -22 -15 -23 -14 0 -19 0
-19 15 -6 15 -5 0 -13 0 -13 -27 -25 -26 -25 -87 0 -88 0 -21 19 -21 19 0 61
0 61 9 38 9 37 -17 -2 -16 -1 -65 -7z"/>
</g>
</svg>
