<?xml version="1.0" standalone="no"?>
<!DOCTYPE svg PUBLIC "-//W3C//DTD SVG 20010904//EN"
 "http://www.w3.org/TR/2001/REC-SVG-20010904/DTD/svg10.dtd">
<svg version="1.0" xmlns="http://www.w3.org/2000/svg"
 width="121.000000pt" height="116.000000pt" viewBox="0 0 121.000000 116.000000"
 preserveAspectRatio="xMidYMid meet">
<metadata>
Created by potrace 1.16, written by Peter Selinger 2001-2019
</metadata>
<g transform="translate(0.000000,116.000000) scale(0.100000,-0.100000)"
fill="#000000" stroke="none">
<path d="M280 1150 l-65 -8 -82 -1 -83 -1 0 -115 0 -116 14 -34 14 -33 20 -11
21 -11 31 0 32 0 34 16 35 17 23 -11 23 -10 17 -36 17 -36 -3 -52 -3 -52 -34
-23 -34 -23 -51 0 -51 0 -55 15 -55 15 -7 0 -7 0 -15 -16 -16 -15 0 -72 0 -72
16 -70 15 -70 6 -38 6 -37 88 0 88 0 53 -11 53 -12 32 -32 33 -33 0 -25 0 -25
-17 -31 -18 -31 11 -17 11 -17 34 -9 34 -9 72 4 72 5 26 17 27 18 -5 26 -5 27
-7 21 -7 21 29 11 28 12 95 19 96 20 49 19 50 20 5 173 6 174 14 23 15 22 22
0 23 0 0 -10 0 -10 44 0 43 0 34 23 34 23 3 44 3 45 -11 36 -12 36 -32 18 -31
19 -50 -1 -50 -1 -28 -11 -28 -11 -10 28 -10 27 6 95 6 95 6 29 5 29 -38 -6
-39 -7 -95 -11 -95 -11 -32 -14 -33 -13 0 -26 0 -26 16 -24 15 -24 -10 -19
-11 -20 -31 -11 -32 -11 -62 0 -62 0 -26 24 -25 23 -17 33 -17 32 5 47 4 46 8
23 7 22 -28 -2 -29 -1 -65 -7z"/>
</g>
</svg>
