<?xml version="1.0" standalone="no"?>
<!DOCTYPE svg PUBLIC "-//W3C//DTD SVG 20010904//EN"
 "http://www.w3.org/TR/2001/REC-SVG-20010904/DTD/svg10.dtd">
<svg version="1.0" xmlns="http://www.w3.org/2000/svg"
 width="100.000000pt" height="101.000000pt" viewBox="0 0 100.000000 101.000000"
 preserveAspectRatio="xMidYMid meet">
<metadata>
Created by potrace 1.16, written by Peter Selinger 2001-2019
</metadata>
<g transform="translate(0.000000,101.000000) scale(0.100000,-0.100000)"
fill="#000000" stroke="none">
<path d="M648 999 l-27 -10 -6 -20 -7 -20 16 -24 16 -24 0 -32 0 -33 -21 -43
-21 -44 -25 -16 -24 -16 -38 11 -38 12 -17 19 -17 19 -6 34 -5 35 17 58 16 58
-11 11 -11 11 -147 -2 -147 -3 -26 -5 -26 -6 -7 -61 -6 -61 0 -109 0 -109 15
-6 16 -5 43 12 44 12 36 1 36 1 21 -20 20 -20 6 -37 5 -36 -6 -25 -6 -26 -34
-34 -33 -34 -43 -12 -44 -12 -57 17 -58 18 -15 -6 -15 -6 -7 -36 -6 -36 11
-56 11 -56 25 -55 25 -54 0 -19 0 -19 148 0 147 0 35 19 35 18 3 44 4 44 -18
32 -17 32 17 26 17 26 32 19 32 20 28 0 28 0 27 -14 27 -14 22 -39 21 -38 7
-33 7 -34 -18 -69 -18 -70 10 -17 11 -17 38 -10 37 -9 77 16 76 16 58 22 57
21 0 453 0 452 -85 12 -86 13 -77 4 -77 5 -27 -11z"/>
</g>
</svg>
