<?xml version="1.0" standalone="no"?>
<!DOCTYPE svg PUBLIC "-//W3C//DTD SVG 20010904//EN"
 "http://www.w3.org/TR/2001/REC-SVG-20010904/DTD/svg10.dtd">
<svg version="1.0" xmlns="http://www.w3.org/2000/svg"
 width="98.000000pt" height="99.000000pt" viewBox="0 0 98.000000 99.000000"
 preserveAspectRatio="xMidYMid meet">
<metadata>
Created by potrace 1.16, written by Peter Selinger 2001-2019
</metadata>
<g transform="translate(0.000000,99.000000) scale(0.100000,-0.100000)"
fill="#000000" stroke="none">
<path d="M650 980 l-24 -11 -8 -12 -7 -12 14 -22 15 -22 0 -44 0 -44 -23 -44
-24 -44 -24 -14 -25 -14 -37 7 -37 7 -26 23 -27 22 -4 50 -4 49 14 48 15 47
-11 8 -12 7 -135 -3 -135 -2 -26 -5 -26 -6 -7 -61 -6 -61 0 -98 0 -98 10 -6
10 -6 36 11 35 12 49 2 49 1 22 -21 21 -22 5 -45 5 -46 -6 -25 -6 -26 -33 -34
-33 -34 -40 -11 -39 -11 -21 0 -21 0 -44 15 -43 16 -13 -5 -12 -5 -6 -34 -7
-35 16 -61 16 -61 25 -50 26 -51 -6 -9 -6 -10 138 0 138 0 35 19 35 18 3 37 3
38 -15 23 -16 24 0 19 0 19 21 27 21 26 28 15 29 15 36 0 36 0 27 -14 27 -14
22 -39 22 -39 7 -43 7 -42 -18 -65 -17 -64 12 -15 12 -14 34 -7 34 -6 67 15
68 15 58 22 57 21 0 443 0 442 -82 12 -83 12 -70 5 -70 5 -25 -10z"/>
</g>
</svg>
