<?xml version="1.0" standalone="no"?>
<!DOCTYPE svg PUBLIC "-//W3C//DTD SVG 20010904//EN"
 "http://www.w3.org/TR/2001/REC-SVG-20010904/DTD/svg10.dtd">
<svg version="1.0" xmlns="http://www.w3.org/2000/svg"
 width="116.000000pt" height="86.000000pt" viewBox="0 0 116.000000 86.000000"
 preserveAspectRatio="xMidYMid meet">
<metadata>
Created by potrace 1.16, written by Peter Selinger 2001-2019
</metadata>
<g transform="translate(0.000000,86.000000) scale(0.100000,-0.100000)"
fill="#000000" stroke="none">
<path d="M26 788 l-7 -73 -7 -97 -7 -97 76 6 76 6 46 -7 47 -7 35 -33 35 -33
0 -24 0 -24 -23 -21 -22 -21 -20 -10 -20 -10 -36 -7 -37 -6 -47 15 -47 16 -13
-5 -14 -5 -11 -42 -11 -42 7 -133 7 -134 454 0 453 0 9 22 9 23 16 125 17 125
15 23 14 22 17 0 16 0 19 -17 19 -17 17 10 17 10 17 35 18 34 0 33 0 33 -14
34 -14 34 -41 11 -41 11 -61 -11 -61 -11 -5 5 -6 5 12 133 11 133 0 28 0 27
-154 0 -154 0 -22 -18 -22 -18 16 -38 16 -38 0 -40 0 -39 -11 -22 -12 -21 -23
-25 -24 -25 -69 -4 -69 -4 -22 22 -22 22 6 77 7 76 2 30 2 29 -30 16 -30 15
-146 3 -146 4 -7 -74z"/>
</g>
</svg>
