<?xml version="1.0" standalone="no"?>
<!DOCTYPE svg PUBLIC "-//W3C//DTD SVG 20010904//EN"
 "http://www.w3.org/TR/2001/REC-SVG-20010904/DTD/svg10.dtd">
<svg version="1.0" xmlns="http://www.w3.org/2000/svg"
 width="118.000000pt" height="88.000000pt" viewBox="0 0 118.000000 88.000000"
 preserveAspectRatio="xMidYMid meet">
<metadata>
Created by potrace 1.16, written by Peter Selinger 2001-2019
</metadata>
<g transform="translate(0.000000,88.000000) scale(0.100000,-0.100000)"
fill="#000000" stroke="none">
<path d="M30 863 l0 -20 -10 -109 -10 -109 -4 -51 -4 -51 117 1 117 1 37 -27
36 -28 6 -21 7 -21 -32 -29 -31 -29 -27 -6 -27 -6 -13 -4 -13 -4 -45 16 -45
15 -22 -3 -22 -3 -13 -40 -14 -40 7 -147 7 -148 464 0 464 0 9 23 9 22 16 125
17 125 15 23 14 22 9 0 9 0 12 -16 13 -15 25 3 25 3 20 27 20 27 5 53 4 54
-15 36 -15 37 -44 11 -43 12 -60 -10 -60 -10 -3 3 -4 4 11 119 11 120 0 41 0
41 -164 0 -164 0 -23 -19 -24 -19 18 -50 17 -50 0 -26 0 -27 -11 -22 -12 -21
-23 -25 -23 -25 -59 -4 -60 -4 -22 22 -23 23 8 66 7 66 1 40 2 40 -30 15 -30
15 -157 3 -158 4 0 -19z"/>
</g>
</svg>
