<?xml version="1.0" standalone="no"?>
<!DOCTYPE svg PUBLIC "-//W3C//DTD SVG 20010904//EN"
 "http://www.w3.org/TR/2001/REC-SVG-20010904/DTD/svg10.dtd">
<svg version="1.0" xmlns="http://www.w3.org/2000/svg"
 width="92.000000pt" height="86.000000pt" viewBox="0 0 92.000000 86.000000"
 preserveAspectRatio="xMidYMid meet">
<metadata>
Created by potrace 1.16, written by Peter Selinger 2001-2019
</metadata>
<g transform="translate(0.000000,86.000000) scale(0.100000,-0.100000)"
fill="#000000" stroke="none">
<path d="M11 701 l-13 -162 5 -5 5 -5 61 11 61 11 41 -11 41 -11 14 -34 14
-34 0 -33 0 -33 -18 -34 -17 -35 -17 -10 -17 -10 -19 17 -19 17 -16 0 -17 0
-14 -22 -15 -23 -17 -125 -16 -125 -9 -23 -9 -22 446 0 446 0 -6 38 -6 37 -10
109 -10 109 -15 24 -15 23 -20 0 -19 0 -5 -9 -6 -9 -25 -6 -26 -7 -38 11 -39
10 -31 29 -31 29 0 50 0 51 16 15 15 16 17 0 17 -1 40 -14 40 -15 40 0 40 0
21 18 22 17 18 35 17 35 5 128 5 127 -4 0 -4 0 -51 -19 -51 -20 -89 -16 -89
-17 -32 -13 -33 -14 0 -25 0 -26 10 0 10 0 0 -24 0 -24 -34 -21 -33 -21 -66 0
-65 0 -22 18 -22 18 16 38 16 38 0 25 0 24 -11 21 -11 20 -46 21 -47 20 -121
5 -121 5 -12 -162z"/>
</g>
</svg>
