<?xml version="1.0" standalone="no"?>
<!DOCTYPE svg PUBLIC "-//W3C//DTD SVG 20010904//EN"
 "http://www.w3.org/TR/2001/REC-SVG-20010904/DTD/svg10.dtd">
<svg version="1.0" xmlns="http://www.w3.org/2000/svg"
 width="105.000000pt" height="86.000000pt" viewBox="0 0 105.000000 86.000000"
 preserveAspectRatio="xMidYMid meet">
<metadata>
Created by potrace 1.16, written by Peter Selinger 2001-2019
</metadata>
<g transform="translate(0.000000,86.000000) scale(0.100000,-0.100000)"
fill="#000000" stroke="none">
<path d="M90 743 l0 -118 10 -36 10 -35 26 -25 26 -24 44 1 45 1 11 11 12 12
26 0 27 0 11 -25 12 -26 0 -46 0 -46 -19 -31 -20 -31 -31 -18 -31 -19 -52 -4
-52 -5 -54 14 -55 15 -13 -5 -12 -5 -6 -31 -6 -32 11 -50 11 -50 31 -68 31
-67 455 2 455 3 25 70 24 70 5 65 5 65 -15 20 -15 19 -40 -18 -41 -18 -48 7
-48 7 -40 17 -40 18 -27 28 -28 28 -2 21 -1 21 2 30 2 30 25 23 25 22 46 0 47
0 59 -17 59 -16 9 14 9 14 0 162 0 163 -52 -21 -52 -20 -95 -20 -96 -19 -27
-11 -27 -11 -5 -14 -5 -14 17 -30 17 -31 -23 -19 -23 -19 -45 -7 -46 -7 -51 6
-51 7 -14 14 -15 15 16 25 17 25 0 37 0 36 -33 33 -32 32 -53 12 -53 11 -84 0
-85 0 0 -117z"/>
</g>
</svg>
