<?xml version="1.0" standalone="no"?>
<!DOCTYPE svg PUBLIC "-//W3C//DTD SVG 20010904//EN"
 "http://www.w3.org/TR/2001/REC-SVG-20010904/DTD/svg10.dtd">
<svg version="1.0" xmlns="http://www.w3.org/2000/svg"
 width="122.000000pt" height="93.000000pt" viewBox="0 0 122.000000 93.000000"
 preserveAspectRatio="xMidYMid meet">
<metadata>
Created by potrace 1.16, written by Peter Selinger 2001-2019
</metadata>
<g transform="translate(0.000000,93.000000) scale(0.100000,-0.100000)"
fill="#000000" stroke="none">
<path d="M908 922 l-27 -3 -11 -14 -11 -14 17 -54 17 -54 -7 -47 -7 -47 -30
-34 -31 -34 -33 -7 -34 -6 -34 12 -35 11 -31 36 -31 36 -6 34 -7 35 6 60 5 60
-46 -6 -47 -7 -110 -6 -110 -6 -1 -131 0 -131 -18 -35 -18 -35 -22 -17 -21
-18 -40 0 -40 0 -40 15 -40 14 -17 1 -17 0 -15 -16 -16 -15 0 -51 0 -50 31
-29 31 -29 39 -10 38 -11 26 7 25 6 6 9 5 9 19 0 20 0 15 -23 15 -24 11 -114
11 -114 1 -35 2 -35 449 3 450 3 2 2 3 3 -13 49 -14 50 -15 83 -16 83 -12 15
-11 14 -24 0 -23 0 -6 -10 -6 -10 -34 0 -34 0 -17 32 -17 32 -5 62 -4 61 18
28 18 28 85 -7 86 -7 30 -2 30 -2 -1 172 0 173 -6 5 -6 6 -70 20 -70 19 -63 8
-64 7 -27 -3z"/>
</g>
</svg>
