<?xml version="1.0" standalone="no"?>
<!DOCTYPE svg PUBLIC "-//W3C//DTD SVG 20010904//EN"
 "http://www.w3.org/TR/2001/REC-SVG-20010904/DTD/svg10.dtd">
<svg version="1.0" xmlns="http://www.w3.org/2000/svg"
 width="124.000000pt" height="95.000000pt" viewBox="0 0 124.000000 95.000000"
 preserveAspectRatio="xMidYMid meet">
<metadata>
Created by potrace 1.16, written by Peter Selinger 2001-2019
</metadata>
<g transform="translate(0.000000,95.000000) scale(0.100000,-0.100000)"
fill="#000000" stroke="none">
<path d="M906 941 l-29 -6 -10 -17 -11 -17 18 -56 18 -57 -7 -40 -7 -40 -29
-33 -29 -33 -26 -6 -26 -7 -33 11 -33 11 -31 36 -31 36 -6 34 -6 34 6 61 7 61
-58 -7 -58 -6 -110 -6 -110 -7 0 -131 -1 -131 -18 -35 -18 -35 -22 -17 -21
-18 -30 0 -30 0 -40 15 -40 14 -27 1 -27 0 -15 -16 -16 -15 0 -61 0 -60 31
-29 31 -28 36 -11 37 -10 20 0 20 0 29 15 28 15 4 0 4 0 15 -23 15 -24 11
-109 10 -109 1 -40 1 -40 461 3 460 3 4 4 4 4 -15 63 -16 63 -15 78 -15 79
-12 14 -11 14 -34 0 -33 0 -6 -10 -6 -10 -24 0 -24 0 -17 31 -16 31 -5 53 -5
52 18 28 18 28 80 -8 81 -7 35 -1 35 -2 -1 183 0 183 -13 9 -13 8 -92 20 -91
21 -45 4 -45 4 -29 -6z"/>
</g>
</svg>
