<?xml version="1.0" standalone="no"?>
<!DOCTYPE svg PUBLIC "-//W3C//DTD SVG 20010904//EN"
 "http://www.w3.org/TR/2001/REC-SVG-20010904/DTD/svg10.dtd">
<svg version="1.0" xmlns="http://www.w3.org/2000/svg"
 width="96.000000pt" height="90.000000pt" viewBox="0 0 96.000000 90.000000"
 preserveAspectRatio="xMidYMid meet">
<metadata>
Created by potrace 1.16, written by Peter Selinger 2001-2019
</metadata>
<g transform="translate(0.000000,90.000000) scale(0.100000,-0.100000)"
fill="#000000" stroke="none">
<path d="M572 890 l-22 -10 -6 -15 -6 -15 16 -47 16 -47 0 -35 -1 -36 -12 -16
-12 -16 -22 -11 -22 -12 -63 0 -64 0 -19 14 -18 13 16 42 17 41 0 16 0 16 -16
33 -16 33 -41 18 -42 17 -127 5 -128 4 0 -441 0 -441 469 0 469 0 8 98 8 97 1
55 0 55 -8 27 -7 28 -26 6 -26 7 -57 -18 -58 -17 -37 17 -37 18 -16 30 -15 30
5 39 5 40 6 5 6 6 14 -12 15 -13 60 -5 59 -6 35 22 35 22 12 32 11 32 5 85 6
85 -9 55 -8 55 -90 12 -90 11 -75 1 -75 0 -23 -9z"/>
</g>
</svg>
