<?xml version="1.0" standalone="no"?>
<!DOCTYPE svg PUBLIC "-//W3C//DTD SVG 20010904//EN"
 "http://www.w3.org/TR/2001/REC-SVG-20010904/DTD/svg10.dtd">
<svg version="1.0" xmlns="http://www.w3.org/2000/svg"
 width="94.000000pt" height="88.000000pt" viewBox="0 0 94.000000 88.000000"
 preserveAspectRatio="xMidYMid meet">
<metadata>
Created by potrace 1.16, written by Peter Selinger 2001-2019
</metadata>
<g transform="translate(0.000000,88.000000) scale(0.100000,-0.100000)"
fill="#000000" stroke="none">
<path d="M574 870 l-22 -9 -6 -9 -6 -10 15 -42 15 -43 0 -46 -1 -46 -12 -16
-12 -16 -22 -11 -22 -12 -71 0 -71 0 -20 10 -19 11 0 17 0 16 16 42 16 42 -17
35 -17 35 -41 18 -42 17 -117 5 -118 4 0 -431 0 -431 459 0 459 0 8 98 8 97 0
45 0 45 -7 27 -7 28 -23 5 -22 6 -44 -16 -44 -15 -19 0 -20 0 -34 16 -35 17
-14 28 -15 28 0 33 0 33 6 23 6 22 17 0 17 0 10 -10 11 -11 50 -6 51 -6 35 22
35 22 12 32 11 32 5 75 6 75 -9 55 -8 55 -90 12 -90 11 -65 1 -65 0 -21 -9z"/>
</g>
</svg>
