<?xml version="1.0" standalone="no"?>
<!DOCTYPE svg PUBLIC "-//W3C//DTD SVG 20010904//EN"
 "http://www.w3.org/TR/2001/REC-SVG-20010904/DTD/svg10.dtd">
<svg version="1.0" xmlns="http://www.w3.org/2000/svg"
 width="146.000000pt" height="87.000000pt" viewBox="0 0 146.000000 87.000000"
 preserveAspectRatio="xMidYMid meet">
<metadata>
Created by potrace 1.16, written by Peter Selinger 2001-2019
</metadata>
<g transform="translate(0.000000,87.000000) scale(0.100000,-0.100000)"
fill="#000000" stroke="none">
<path d="M349 863 l-86 -4 1 -127 1 -127 -13 -37 -13 -37 -35 -22 -36 -22 -51
6 -50 6 -11 11 -10 10 -17 0 -17 0 -6 -22 -6 -23 0 -33 0 -33 15 -28 14 -28
35 -17 34 -16 20 0 19 0 44 15 44 16 22 -6 23 -5 7 -28 7 -27 1 -40 0 -40 -8
-103 -9 -102 453 0 452 0 -7 134 -7 133 11 42 11 42 14 5 13 5 47 -16 47 -15
37 6 36 7 20 10 20 10 22 21 23 21 0 24 0 24 -35 33 -35 33 -47 7 -46 7 -76
-6 -76 -6 7 97 7 97 7 72 6 73 -44 -25 -44 -24 -123 -30 -123 -29 -16 -16 -16
-16 17 -35 17 -36 0 -18 0 -18 -21 -19 -20 -18 -65 -4 -64 -4 -39 39 -39 39
-12 44 -12 43 4 51 4 51 8 18 8 17 -78 -2 -79 -2 -86 -3z"/>
</g>
</svg>
