<?xml version="1.0" standalone="no"?>
<!DOCTYPE svg PUBLIC "-//W3C//DTD SVG 20010904//EN"
 "http://www.w3.org/TR/2001/REC-SVG-20010904/DTD/svg10.dtd">
<svg version="1.0" xmlns="http://www.w3.org/2000/svg"
 width="117.000000pt" height="90.000000pt" viewBox="0 0 117.000000 90.000000"
 preserveAspectRatio="xMidYMid meet">
<metadata>
Created by potrace 1.16, written by Peter Selinger 2001-2019
</metadata>
<g transform="translate(0.000000,90.000000) scale(0.100000,-0.100000)"
fill="#000000" stroke="none">
<path d="M325 893 l-80 -4 3 -132 3 -132 -20 -32 -21 -33 -19 0 -18 0 -44 15
-43 16 -27 -6 -27 -6 -13 -31 -12 -30 0 -74 1 -74 12 -30 13 -30 24 -6 25 -7
36 18 36 17 22 -25 22 -26 6 -53 7 -53 11 -71 10 -72 7 -10 7 -11 462 -3 463
-3 -6 20 -7 20 -7 132 -8 132 -18 27 -17 26 -36 -6 -37 -7 -32 -5 -33 -6 -25
6 -25 6 -15 30 -15 29 0 41 0 40 33 36 33 36 47 5 47 6 45 -18 46 -17 14 12
15 12 0 107 0 106 -7 53 -6 53 -81 -6 -81 -6 -74 -10 -74 -9 -14 -11 -13 -11
0 -29 0 -28 10 -6 10 -6 0 -24 0 -23 -34 -30 -34 -30 -41 -7 -41 -7 -35 22
-35 22 -16 30 -16 31 6 41 7 41 2 29 2 30 -25 7 -25 7 -75 -1 -75 -1 -80 -3z"/>
</g>
</svg>
