<?xml version="1.0" standalone="no"?>
<!DOCTYPE svg PUBLIC "-//W3C//DTD SVG 20010904//EN"
 "http://www.w3.org/TR/2001/REC-SVG-20010904/DTD/svg10.dtd">
<svg version="1.0" xmlns="http://www.w3.org/2000/svg"
 width="116.000000pt" height="92.000000pt" viewBox="0 0 116.000000 92.000000"
 preserveAspectRatio="xMidYMid meet">
<metadata>
Created by potrace 1.16, written by Peter Selinger 2001-2019
</metadata>
<g transform="translate(0.000000,92.000000) scale(0.100000,-0.100000)"
fill="#000000" stroke="none">
<path d="M571 909 l-23 -9 7 -33 7 -32 5 -57 5 -57 -26 -24 -26 -25 -31 -6
-32 -6 -38 10 -38 10 -20 26 -20 25 -6 30 -7 30 22 41 22 42 -18 13 -18 13
-125 -1 -126 0 -40 -7 -40 -7 -3 -88 -3 -87 11 -42 12 -41 28 -29 28 -28 49 0
49 0 21 15 21 15 6 -16 6 -16 0 -78 0 -79 -11 -25 -12 -25 -14 -5 -14 -6 -29
15 -29 15 -20 0 -21 0 -15 -23 -15 -24 -15 -119 -16 -119 -9 -29 -10 -30 9 -9
9 -9 143 4 144 3 23 20 22 19 0 39 0 38 -15 36 -15 35 0 19 0 19 26 10 25 10
57 0 58 0 21 -15 22 -16 11 -39 10 -38 -16 -47 -16 -47 6 -24 6 -24 28 -7 27
-8 80 1 80 1 78 7 77 8 21 40 21 40 29 129 29 129 12 20 13 20 32 0 33 0 0
-10 0 -10 15 0 15 0 21 33 20 32 -6 29 -5 30 -16 18 -17 18 -32 6 -33 6 -61
-16 -61 -16 -16 7 -17 6 4 181 4 181 -90 12 -90 11 -65 1 -65 0 -24 -10z"/>
</g>
</svg>
