<?xml version="1.0" standalone="no"?>
<!DOCTYPE svg PUBLIC "-//W3C//DTD SVG 20010904//EN"
 "http://www.w3.org/TR/2001/REC-SVG-20010904/DTD/svg10.dtd">
<svg version="1.0" xmlns="http://www.w3.org/2000/svg"
 width="97.000000pt" height="115.000000pt" viewBox="0 0 97.000000 115.000000"
 preserveAspectRatio="xMidYMid meet">
<metadata>
Created by potrace 1.16, written by Peter Selinger 2001-2019
</metadata>
<g transform="translate(0.000000,115.000000) scale(0.100000,-0.100000)"
fill="#000000" stroke="none">
<path d="M56 1063 l-7 -88 10 -53 11 -53 10 -19 10 -20 20 -10 19 -10 53 0 54
0 12 12 13 13 9 -15 10 -15 0 -68 0 -69 -17 -28 -17 -29 -31 -17 -31 -16 -42
6 -42 6 -40 6 -40 6 -11 -28 -11 -29 6 -60 6 -59 21 -76 20 -75 7 -12 7 -11
134 8 135 8 34 -5 34 -6 -7 -21 -6 -21 -5 -65 -5 -65 13 -25 13 -25 35 -17 35
-18 38 0 38 0 25 25 25 25 15 35 14 34 0 55 0 55 -10 6 -10 6 0 14 0 13 35 12
35 12 87 -12 88 -11 58 -6 57 -6 0 447 0 446 -454 0 -453 0 -7 -87z"/>
</g>
</svg>
