<?xml version="1.0" standalone="no"?>
<!DOCTYPE svg PUBLIC "-//W3C//DTD SVG 20010904//EN"
 "http://www.w3.org/TR/2001/REC-SVG-20010904/DTD/svg10.dtd">
<svg version="1.0" xmlns="http://www.w3.org/2000/svg"
 width="95.000000pt" height="113.000000pt" viewBox="0 0 95.000000 113.000000"
 preserveAspectRatio="xMidYMid meet">
<metadata>
Created by potrace 1.16, written by Peter Selinger 2001-2019
</metadata>
<g transform="translate(0.000000,113.000000) scale(0.100000,-0.100000)"
fill="#000000" stroke="none">
<path d="M56 1052 l-6 -78 10 -52 10 -53 10 -19 10 -20 20 -10 19 -10 41 0 41
0 24 16 24 15 10 -20 11 -20 0 -76 0 -77 -17 -28 -17 -29 -31 -17 -31 -16 -49
5 -50 6 -32 6 -33 7 -11 -28 -11 -29 10 -70 11 -70 21 -68 21 -68 27 5 27 6
135 2 135 3 12 -7 11 -8 -15 -47 -14 -48 4 -49 4 -50 27 -22 26 -23 37 -7 37
-7 25 14 24 14 24 44 23 44 0 44 0 44 -15 23 -16 24 16 15 16 16 33 7 34 6 88
-11 89 -12 48 -6 47 -6 0 437 0 436 -444 0 -443 0 -7 -78z"/>
</g>
</svg>
