<?xml version="1.0" standalone="no"?>
<!DOCTYPE svg PUBLIC "-//W3C//DTD SVG 20010904//EN"
 "http://www.w3.org/TR/2001/REC-SVG-20010904/DTD/svg10.dtd">
<svg version="1.0" xmlns="http://www.w3.org/2000/svg"
 width="144.000000pt" height="99.000000pt" viewBox="0 0 144.000000 99.000000"
 preserveAspectRatio="xMidYMid meet">
<metadata>
Created by potrace 1.16, written by Peter Selinger 2001-2019
</metadata>
<g transform="translate(0.000000,99.000000) scale(0.100000,-0.100000)"
fill="#000000" stroke="none">
<path d="M400 983 l-65 -3 -32 -5 -33 -6 0 -137 0 -137 -18 -35 -17 -35 -24
-3 -24 -4 -52 17 -52 16 -25 -10 -26 -10 -16 -23 -16 -22 0 -51 0 -50 20 -32
19 -32 27 -7 27 -7 29 18 30 17 20 -19 19 -19 15 -85 16 -84 19 -67 19 -66 0
-14 0 -13 177 3 176 4 25 16 24 15 -5 36 -5 36 -13 44 -14 43 24 19 23 19 34
0 33 0 24 -11 24 -11 22 -38 21 -38 0 -30 0 -29 -15 -43 -15 -43 0 -23 0 -23
22 -12 21 -11 77 4 76 4 97 34 97 33 0 36 0 36 -15 90 -15 90 0 40 0 41 15 21
15 21 46 -14 47 -14 32 0 32 0 32 11 32 11 14 29 15 28 0 36 0 36 -15 28 -14
29 -41 16 -40 16 -43 0 -42 0 -33 -9 -33 -10 7 168 7 168 -139 6 -139 7 -37
-6 -37 -6 -18 -20 -17 -19 18 -33 18 -34 -6 -19 -6 -20 -33 -35 -32 -36 -23
-7 -23 -7 -29 12 -28 11 -18 34 -18 34 12 59 12 58 0 17 0 17 -92 -2 -93 -2
-65 -3z"/>
</g>
</svg>
