<?xml version="1.0" standalone="no"?>
<!DOCTYPE svg PUBLIC "-//W3C//DTD SVG 20010904//EN"
 "http://www.w3.org/TR/2001/REC-SVG-20010904/DTD/svg10.dtd">
<svg version="1.0" xmlns="http://www.w3.org/2000/svg"
 width="142.000000pt" height="97.000000pt" viewBox="0 0 142.000000 97.000000"
 preserveAspectRatio="xMidYMid meet">
<metadata>
Created by potrace 1.16, written by Peter Selinger 2001-2019
</metadata>
<g transform="translate(0.000000,97.000000) scale(0.100000,-0.100000)"
fill="#000000" stroke="none">
<path d="M400 963 l-65 -3 -32 -5 -33 -6 0 -137 0 -137 -18 -35 -17 -35 -37
-3 -37 -3 -42 14 -42 14 -19 -5 -18 -4 -20 -26 -20 -25 0 -41 0 -41 19 -32 20
-31 20 -7 21 -6 22 15 22 16 17 0 16 0 17 -19 17 -19 16 -83 15 -84 21 -70 21
-70 -2 -10 -2 -10 166 3 166 3 24 16 24 15 0 18 0 18 -15 35 -15 36 0 30 0 30
22 15 22 16 43 0 42 0 24 -11 24 -11 22 -38 21 -38 0 -37 0 -38 -17 -55 -17
-54 19 -15 20 -15 71 5 71 4 97 33 96 33 0 26 0 26 -15 90 -15 90 0 51 0 52
18 21 17 22 66 -18 66 -17 42 12 41 13 15 29 15 29 0 26 0 26 -15 28 -14 29
-41 16 -40 16 -38 0 -37 -1 -39 -14 -38 -13 7 173 7 172 -88 4 -89 4 -72 -1
-73 -1 -20 -18 -20 -18 15 -23 15 -23 0 -23 0 -23 -18 -25 -17 -26 -20 -22
-19 -22 -33 -6 -33 -6 -28 11 -28 12 -18 31 -19 30 7 52 6 51 6 28 6 27 -83
-2 -84 -2 -65 -3z"/>
</g>
</svg>
