<?xml version="1.0" standalone="no"?>
<!DOCTYPE svg PUBLIC "-//W3C//DTD SVG 20010904//EN"
 "http://www.w3.org/TR/2001/REC-SVG-20010904/DTD/svg10.dtd">
<svg version="1.0" xmlns="http://www.w3.org/2000/svg"
 width="110.000000pt" height="138.000000pt" viewBox="0 0 110.000000 138.000000"
 preserveAspectRatio="xMidYMid meet">
<metadata>
Created by potrace 1.16, written by Peter Selinger 2001-2019
</metadata>
<g transform="translate(0.000000,138.000000) scale(0.100000,-0.100000)"
fill="#000000" stroke="none">
<path d="M468 1368 l-28 -10 0 -18 0 -18 15 -12 15 -12 0 -29 0 -29 -27 -30
-28 -30 -60 -15 -59 -15 -103 0 -103 0 0 -110 0 -111 14 -33 14 -34 21 -21 21
-21 47 0 47 0 33 12 33 12 12 -12 12 -12 4 -58 4 -58 -26 -31 -26 -30 -47 -21
-48 -20 -37 -7 -37 -7 -23 16 -22 16 -28 0 -27 0 -17 -31 -16 -32 7 -56 7 -56
23 -60 23 -60 13 -32 13 -31 135 1 136 0 43 -18 43 -17 14 -29 15 -28 -16 -40
-15 -39 3 -33 3 -34 25 -12 25 -13 63 0 64 0 29 29 29 29 0 37 0 36 -15 29
-15 29 24 16 24 16 139 15 138 14 31 6 30 6 28 83 28 83 5 60 6 60 -7 26 -6
25 -21 11 -20 11 -67 -17 -67 -17 -37 7 -36 7 -27 21 -27 21 -14 33 -14 33 9
23 9 23 18 17 19 16 25 7 25 6 50 -16 50 -15 23 0 23 0 16 38 16 37 -6 140 -6
140 -6 17 -6 16 -52 22 -51 22 -119 29 -118 30 -20 12 -19 12 0 17 0 17 10 6
10 6 0 18 0 19 -31 6 -31 6 -52 -1 -51 -1 -27 -10z"/>
</g>
</svg>
