<?xml version="1.0" standalone="no"?>
<!DOCTYPE svg PUBLIC "-//W3C//DTD SVG 20010904//EN"
 "http://www.w3.org/TR/2001/REC-SVG-20010904/DTD/svg10.dtd">
<svg version="1.0" xmlns="http://www.w3.org/2000/svg"
 width="108.000000pt" height="136.000000pt" viewBox="0 0 108.000000 136.000000"
 preserveAspectRatio="xMidYMid meet">
<metadata>
Created by potrace 1.16, written by Peter Selinger 2001-2019
</metadata>
<g transform="translate(0.000000,136.000000) scale(0.100000,-0.100000)"
fill="#000000" stroke="none">
<path d="M468 1349 l-28 -11 0 -8 0 -8 15 -12 15 -12 0 -39 0 -39 -27 -30 -28
-30 -60 -15 -59 -15 -103 0 -103 0 0 -100 0 -101 14 -33 14 -34 21 -21 21 -21
39 0 39 0 37 16 38 15 16 -15 15 -16 4 -68 4 -68 -26 -31 -26 -30 -49 -22 -50
-21 -45 -6 -44 -6 -23 16 -23 16 -18 0 -17 0 -16 -31 -16 -30 7 -47 7 -47 22
-60 23 -60 13 -31 12 -31 136 0 136 1 46 -21 45 -20 14 -32 13 -31 -17 -45
-17 -44 3 -23 3 -22 25 -13 25 -13 53 0 54 0 29 29 29 29 0 29 -1 28 -14 25
-14 25 -1 12 0 13 24 15 24 16 139 15 138 14 31 6 30 6 27 81 28 82 6 52 6 51
-7 26 -6 25 -19 10 -18 10 -48 -14 -48 -15 -41 0 -41 0 -34 18 -35 17 -20 28
-21 28 0 39 0 39 24 25 24 26 33 6 32 6 55 -16 55 -16 12 0 11 0 16 38 16 37
-6 130 -6 131 -6 16 -6 16 -52 22 -51 22 -119 29 -118 30 -20 12 -19 12 0 25
0 26 12 12 12 12 -7 6 -6 7 -68 3 -68 4 -27 -11z"/>
</g>
</svg>
