<?xml version="1.0" standalone="no"?>
<!DOCTYPE svg PUBLIC "-//W3C//DTD SVG 20010904//EN"
 "http://www.w3.org/TR/2001/REC-SVG-20010904/DTD/svg10.dtd">
<svg version="1.0" xmlns="http://www.w3.org/2000/svg"
 width="143.000000pt" height="133.000000pt" viewBox="0 0 143.000000 133.000000"
 preserveAspectRatio="xMidYMid meet">
<metadata>
Created by potrace 1.16, written by Peter Selinger 2001-2019
</metadata>
<g transform="translate(0.000000,133.000000) scale(0.100000,-0.100000)"
fill="#000000" stroke="none">
<path d="M630 1317 l-25 -12 -3 -28 -3 -27 10 0 11 0 0 -39 0 -39 -30 -25 -29
-25 -51 -11 -51 -11 -95 0 -95 0 7 -142 7 -143 -17 -39 -16 -38 -17 7 -18 6
-46 11 -46 11 -35 -7 -35 -6 -24 -26 -24 -26 0 -48 0 -49 21 -28 20 -28 35
-17 34 -18 47 0 46 0 52 12 52 12 15 -20 15 -19 -6 -57 -6 -57 -25 -72 -25
-72 0 -20 0 -19 103 7 102 6 45 -10 45 -10 17 -20 16 -21 -6 -22 -6 -23 -13
-14 -14 -13 3 -21 3 -20 27 -20 26 -20 69 -4 68 -5 40 14 40 13 10 28 10 29
-19 13 -18 14 7 11 7 11 25 10 25 9 101 15 100 15 44 11 43 11 6 22 5 22 -30
64 -30 64 -11 51 -11 52 10 26 10 26 42 -14 42 -15 31 0 31 0 39 11 40 11 33
34 33 34 6 25 6 26 -4 55 -5 55 -22 22 -22 22 -62 -2 -62 -1 -28 -11 -28 -11
-6 16 -6 16 7 155 6 155 -27 -6 -28 -6 -135 -3 -135 -2 -23 13 -24 14 5 16 5
17 12 46 13 45 -7 27 -6 27 -30 15 -29 15 -68 0 -68 0 -25 -13z"/>
</g>
</svg>
