<?xml version="1.0" standalone="no"?>
<!DOCTYPE svg PUBLIC "-//W3C//DTD SVG 20010904//EN"
 "http://www.w3.org/TR/2001/REC-SVG-20010904/DTD/svg10.dtd">
<svg version="1.0" xmlns="http://www.w3.org/2000/svg"
 width="141.000000pt" height="131.000000pt" viewBox="0 0 141.000000 131.000000"
 preserveAspectRatio="xMidYMid meet">
<metadata>
Created by potrace 1.16, written by Peter Selinger 2001-2019
</metadata>
<g transform="translate(0.000000,131.000000) scale(0.100000,-0.100000)"
fill="#000000" stroke="none">
<path d="M632 1300 l-22 -10 -7 -17 -7 -17 12 -4 12 -4 0 -48 0 -48 -30 -25
-29 -25 -51 -11 -51 -11 -95 0 -94 0 6 -142 7 -143 -16 -37 -16 -38 -11 0 -12
0 -55 16 -55 16 -32 -6 -33 -6 -24 -26 -24 -25 0 -39 0 -39 21 -28 20 -28 35
-17 34 -18 41 0 41 0 48 15 48 14 18 -10 19 -10 6 -25 7 -26 -7 -54 -6 -55
-25 -71 -25 -71 0 -10 0 -9 89 7 90 7 52 -7 52 -7 24 -24 24 -25 -6 -31 -7
-32 -15 -14 -14 -14 4 -11 3 -11 25 -18 25 -19 55 -6 54 -5 42 11 43 12 11 21
12 21 -18 13 -17 12 4 19 3 18 26 12 26 12 103 16 103 15 43 11 43 11 5 15 6
14 -25 50 -25 49 -16 61 -16 61 7 35 6 34 12 5 13 5 43 -16 44 -15 21 0 21 0
39 11 40 11 33 34 33 34 6 26 6 25 -5 46 -5 45 -21 22 -22 21 -49 -1 -49 -2
-35 -12 -36 -11 -11 7 -12 7 6 161 5 161 -116 -8 -117 -8 -49 6 -49 6 -19 10
-18 10 0 18 0 17 16 47 16 47 -6 25 -6 25 -30 15 -29 15 -58 -1 -58 0 -23 -9z"/>
</g>
</svg>
