<?xml version="1.0" standalone="no"?>
<!DOCTYPE svg PUBLIC "-//W3C//DTD SVG 20010904//EN"
 "http://www.w3.org/TR/2001/REC-SVG-20010904/DTD/svg10.dtd">
<svg version="1.0" xmlns="http://www.w3.org/2000/svg"
 width="95.000000pt" height="119.000000pt" viewBox="0 0 95.000000 119.000000"
 preserveAspectRatio="xMidYMid meet">
<metadata>
Created by potrace 1.16, written by Peter Selinger 2001-2019
</metadata>
<g transform="translate(0.000000,119.000000) scale(0.100000,-0.100000)"
fill="#000000" stroke="none">
<path d="M612 1179 l-33 -10 -6 -15 -5 -15 16 -58 16 -57 0 -28 0 -28 -16 -34
-17 -35 -28 -14 -28 -15 -34 0 -34 0 -25 20 -25 19 -13 31 -13 31 7 62 6 62 6
34 7 34 -162 -7 -162 -7 -28 -5 -28 -6 -7 -75 -6 -76 0 -113 0 -113 20 -6 21
-7 64 17 64 16 25 -7 25 -6 14 -16 15 -17 6 -20 6 -20 -22 -35 -21 -35 -4 13
-5 12 -41 0 -42 0 -13 -20 -12 -20 -29 -129 -29 -129 -21 -40 -21 -41 0 -11 0
-11 163 7 162 6 27 -11 27 -10 -15 -38 -16 -37 4 -55 5 -54 32 -29 31 -28 61
0 60 0 24 26 25 27 0 39 0 39 -14 34 -14 34 11 9 12 9 20 7 20 8 154 8 153 8
9 9 10 10 -25 79 -25 79 -15 84 -15 83 -17 19 -17 19 -27 0 -26 0 -19 -14 -20
-14 -17 9 -18 10 -15 29 -15 29 0 29 0 29 21 28 22 27 36 -7 36 -7 60 -1 60
-2 17 35 18 35 0 147 0 147 -37 10 -38 10 -60 10 -60 10 -55 5 -55 5 -33 -10z"/>
</g>
</svg>
