<?xml version="1.0" standalone="no"?>
<!DOCTYPE svg PUBLIC "-//W3C//DTD SVG 20010904//EN"
 "http://www.w3.org/TR/2001/REC-SVG-20010904/DTD/svg10.dtd">
<svg version="1.0" xmlns="http://www.w3.org/2000/svg"
 width="93.000000pt" height="117.000000pt" viewBox="0 0 93.000000 117.000000"
 preserveAspectRatio="xMidYMid meet">
<metadata>
Created by potrace 1.16, written by Peter Selinger 2001-2019
</metadata>
<g transform="translate(0.000000,117.000000) scale(0.100000,-0.100000)"
fill="#000000" stroke="none">
<path d="M613 1159 l-32 -9 -6 -10 -6 -10 16 -52 15 -52 0 -39 0 -39 -16 -34
-17 -35 -28 -14 -28 -15 -44 0 -44 0 -25 20 -25 19 -13 31 -13 30 6 73 6 72 7
24 7 24 -153 -7 -153 -7 -27 -6 -27 -5 -7 -75 -6 -76 0 -102 0 -103 15 -6 15
-6 61 16 61 16 33 -6 32 -6 17 -18 16 -18 5 -30 6 -29 -20 -32 -21 -33 -15 0
-15 0 0 10 0 10 -33 0 -32 0 -13 -20 -12 -20 -29 -129 -29 -129 -21 -40 -20
-40 179 2 179 1 12 -12 11 -11 -17 -46 -18 -46 6 -42 6 -43 31 -28 30 -27 51
0 50 0 24 26 25 27 0 29 0 29 -15 36 -16 37 5 13 5 13 28 11 28 11 152 8 152
8 10 6 9 6 -18 49 -19 48 -16 94 -16 94 -12 24 -12 24 -17 11 -18 11 -34 -19
-34 -18 -21 11 -21 12 -15 29 -15 29 0 39 0 39 20 25 20 26 18 4 19 5 42 -14
42 -14 37 3 37 3 17 35 18 35 0 137 0 137 -37 10 -38 10 -65 10 -65 10 -40 4
-40 5 -32 -9z"/>
</g>
</svg>
