<?xml version="1.0" standalone="no"?>
<!DOCTYPE svg PUBLIC "-//W3C//DTD SVG 20010904//EN"
 "http://www.w3.org/TR/2001/REC-SVG-20010904/DTD/svg10.dtd">
<svg version="1.0" xmlns="http://www.w3.org/2000/svg"
 width="126.000000pt" height="114.000000pt" viewBox="0 0 126.000000 114.000000"
 preserveAspectRatio="xMidYMid meet">
<metadata>
Created by potrace 1.16, written by Peter Selinger 2001-2019
</metadata>
<g transform="translate(0.000000,114.000000) scale(0.100000,-0.100000)"
fill="#000000" stroke="none">
<path d="M57 1041 l-7 -99 10 -53 10 -53 17 -18 16 -18 36 0 36 0 50 15 50 16
22 -6 23 -5 7 -28 7 -27 0 -47 0 -46 -14 -17 -13 -16 -44 -26 -43 -25 -60 -5
-61 -6 -23 13 -23 12 -18 -4 -19 -3 -8 -30 -8 -30 6 -45 6 -45 14 -60 15 -60
9 -30 10 -30 138 0 138 0 27 -18 27 -17 0 -25 0 -24 -9 -6 -9 -5 -7 -30 -6
-29 17 -36 17 -36 38 -19 38 -20 36 0 36 0 32 14 33 13 28 26 28 26 5 39 5 39
-16 25 -16 25 20 18 20 18 113 9 112 9 30 -4 31 -5 23 51 24 50 23 95 23 94
12 14 11 14 14 0 13 0 34 -16 34 -16 26 16 25 17 16 34 16 33 0 54 0 53 -18
21 -17 22 -22 11 -22 11 -24 0 -24 0 -32 -16 -32 -16 -31 13 -31 13 -20 45
-21 46 -1 122 0 123 -451 0 -451 0 -6 -99z"/>
</g>
</svg>
