<?xml version="1.0" standalone="no"?>
<!DOCTYPE svg PUBLIC "-//W3C//DTD SVG 20010904//EN"
 "http://www.w3.org/TR/2001/REC-SVG-20010904/DTD/svg10.dtd">
<svg version="1.0" xmlns="http://www.w3.org/2000/svg"
 width="119.000000pt" height="119.000000pt" viewBox="0 0 119.000000 119.000000"
 preserveAspectRatio="xMidYMid meet">
<metadata>
Created by potrace 1.16, written by Peter Selinger 2001-2019
</metadata>
<g transform="translate(0.000000,119.000000) scale(0.100000,-0.100000)"
fill="#000000" stroke="none">
<path d="M382 1174 l-22 -15 0 -39 0 -40 17 -41 16 -42 -24 -18 -24 -19 -160
0 -161 0 -12 -12 -12 -12 0 -130 0 -131 11 -37 10 -38 25 -6 24 -6 33 6 32 7
36 5 36 6 32 -16 31 -16 15 -29 15 -30 -6 -30 -6 -31 -24 -25 -23 -25 -22 0
-22 0 -53 17 -53 16 -24 -16 -25 -16 -6 -33 -6 -33 -10 -129 -11 -129 10 -10
9 -9 150 4 151 3 28 21 28 21 3 43 3 43 -10 10 -11 11 0 13 0 12 30 16 29 15
30 0 29 0 26 -30 25 -31 12 -42 11 -41 -16 -27 -16 -27 0 -25 0 -26 22 -15 22
-16 56 0 55 1 60 13 60 13 65 18 65 18 5 4 5 5 1 136 0 137 8 18 9 19 31 -7
31 -6 38 -6 38 -5 29 12 29 12 15 33 16 33 0 59 0 60 -22 20 -23 21 -22 11
-22 11 -38 0 -39 0 -23 -17 -24 -16 -19 22 -18 23 0 154 0 154 -16 0 -16 0
-86 -31 -87 -30 -65 -6 -65 -5 -18 14 -18 13 16 44 15 44 0 49 0 50 -21 38
-22 38 -24 11 -24 11 -52 0 -53 0 -22 -16z"/>
</g>
</svg>
