<?xml version="1.0" standalone="no"?>
<!DOCTYPE svg PUBLIC "-//W3C//DTD SVG 20010904//EN"
 "http://www.w3.org/TR/2001/REC-SVG-20010904/DTD/svg10.dtd">
<svg version="1.0" xmlns="http://www.w3.org/2000/svg"
 width="117.000000pt" height="117.000000pt" viewBox="0 0 117.000000 117.000000"
 preserveAspectRatio="xMidYMid meet">
<metadata>
Created by potrace 1.16, written by Peter Selinger 2001-2019
</metadata>
<g transform="translate(0.000000,117.000000) scale(0.100000,-0.100000)"
fill="#000000" stroke="none">
<path d="M382 1154 l-22 -15 0 -30 0 -30 15 -36 15 -35 0 -18 0 -18 -25 -16
-24 -16 -159 0 -158 0 -12 -12 -12 -12 0 -120 0 -121 11 -37 10 -38 26 -6 26
-7 36 13 36 13 32 -1 33 -1 30 -16 30 -15 16 -31 15 -31 -6 -38 -7 -39 -23
-25 -24 -26 -34 0 -34 0 -43 15 -43 15 -22 -14 -23 -15 -6 -33 -6 -33 -10
-120 -9 -120 8 -8 9 -9 140 4 141 3 28 21 28 21 3 33 3 33 -10 10 -11 11 0 23
0 22 28 14 27 14 34 7 33 6 33 -33 33 -33 11 -39 11 -40 0 -20 -1 -20 -14 -19
-15 -20 0 -17 0 -18 22 -15 22 -16 46 0 45 1 60 13 60 13 68 19 67 18 1 16 1
15 2 125 2 125 8 17 8 16 14 6 15 6 36 -15 35 -15 24 0 23 0 25 11 25 12 16
32 15 33 0 49 0 50 -22 20 -23 21 -22 11 -22 11 -28 0 -29 0 -20 -15 -19 -14
-17 -1 -17 0 -15 22 -16 22 0 153 0 153 -6 0 -6 0 -86 -31 -87 -31 -75 -5 -75
-5 -20 15 -19 15 17 54 17 55 0 38 0 37 -21 38 -22 38 -24 11 -24 11 -42 0
-43 0 -22 -16z"/>
</g>
</svg>
