<?xml version="1.0" standalone="no"?>
<!DOCTYPE svg PUBLIC "-//W3C//DTD SVG 20010904//EN"
 "http://www.w3.org/TR/2001/REC-SVG-20010904/DTD/svg10.dtd">
<svg version="1.0" xmlns="http://www.w3.org/2000/svg"
 width="146.000000pt" height="92.000000pt" viewBox="0 0 146.000000 92.000000"
 preserveAspectRatio="xMidYMid meet">
<metadata>
Created by potrace 1.16, written by Peter Selinger 2001-2019
</metadata>
<g transform="translate(0.000000,92.000000) scale(0.100000,-0.100000)"
fill="#000000" stroke="none">
<path d="M293 913 l-41 -4 1 -127 2 -127 -13 -23 -13 -22 -24 -16 -25 -16 -53
17 -54 17 -24 -4 -23 -3 -13 -25 -13 -25 0 -68 0 -68 14 -28 15 -27 26 -12 26
-12 38 0 38 0 44 15 43 16 20 -21 21 -21 -2 -72 -2 -72 -16 -73 -15 -73 0 -10
0 -11 168 4 167 3 25 15 25 15 12 15 12 15 5 30 6 31 -9 47 -8 47 32 6 32 6
40 -11 40 -11 18 -20 17 -19 -6 -38 -6 -38 -6 -47 -7 -48 29 -11 29 -11 130 7
130 7 28 -1 27 0 0 22 0 22 -15 95 -15 95 0 56 0 55 13 17 12 17 74 -15 74
-16 43 7 43 6 27 25 26 24 -4 65 -4 65 -27 25 -26 24 -26 10 -26 10 -37 0 -38
0 -53 -14 -53 -14 7 161 7 160 -41 -7 -41 -6 -136 -15 -136 -14 -24 -16 -24
-15 0 -23 1 -22 14 -25 14 -25 1 -18 0 -19 -30 -30 -31 -30 -55 4 -55 5 -17
16 -16 17 17 47 17 48 0 18 0 18 -15 28 -14 29 -41 16 -40 16 -98 4 -97 4 -42
-5z"/>
</g>
</svg>
