<?xml version="1.0" standalone="no"?>
<!DOCTYPE svg PUBLIC "-//W3C//DTD SVG 20010904//EN"
 "http://www.w3.org/TR/2001/REC-SVG-20010904/DTD/svg10.dtd">
<svg version="1.0" xmlns="http://www.w3.org/2000/svg"
 width="144.000000pt" height="90.000000pt" viewBox="0 0 144.000000 90.000000"
 preserveAspectRatio="xMidYMid meet">
<metadata>
Created by potrace 1.16, written by Peter Selinger 2001-2019
</metadata>
<g transform="translate(0.000000,90.000000) scale(0.100000,-0.100000)"
fill="#000000" stroke="none">
<path d="M294 893 l-41 -4 1 -129 1 -128 -21 -29 -21 -28 -25 -9 -25 -9 -56
18 -56 17 -16 -6 -15 -5 -10 -26 -10 -26 0 -55 0 -55 14 -28 15 -27 26 -12 26
-12 26 0 26 0 54 17 54 17 22 -22 22 -23 -2 -78 -1 -79 -12 -59 -11 -58 -6
-18 -5 -19 159 4 158 4 27 15 27 14 13 24 13 24 -2 50 -2 49 -12 14 -12 14 7
8 8 7 67 0 67 0 27 -18 28 -18 9 -24 9 -24 -14 -48 -15 -48 0 -23 0 -22 28
-11 27 -11 120 7 120 7 28 2 27 1 0 10 0 10 -15 95 -15 95 0 66 0 65 13 19 14
18 80 -16 80 -16 36 6 37 6 26 24 26 24 -4 56 -5 56 -32 28 -33 28 -35 7 -34
6 -52 -10 -52 -11 -24 -7 -24 -7 7 162 8 163 -29 -6 -28 -6 -138 -14 -139 -15
-24 -16 -24 -15 0 -13 1 -12 14 -25 14 -25 1 -28 0 -29 -29 -29 -29 -29 -54 0
-53 0 -25 13 -25 13 -3 22 -3 23 17 44 17 45 -13 31 -14 32 -41 18 -40 18 -90
4 -90 5 -41 -5z"/>
</g>
</svg>
