<?xml version="1.0" standalone="no"?>
<!DOCTYPE svg PUBLIC "-//W3C//DTD SVG 20010904//EN"
 "http://www.w3.org/TR/2001/REC-SVG-20010904/DTD/svg10.dtd">
<svg version="1.0" xmlns="http://www.w3.org/2000/svg"
 width="117.000000pt" height="138.000000pt" viewBox="0 0 117.000000 138.000000"
 preserveAspectRatio="xMidYMid meet">
<metadata>
Created by potrace 1.16, written by Peter Selinger 2001-2019
</metadata>
<g transform="translate(0.000000,138.000000) scale(0.100000,-0.100000)"
fill="#000000" stroke="none">
<path d="M369 1357 l-34 -23 -9 -27 -10 -28 13 -32 13 -32 5 -21 5 -22 -36
-12 -35 -11 -138 3 -138 3 -3 -436 -2 -435 62 7 63 7 111 7 112 7 -15 -53 -14
-54 6 -49 6 -49 20 -38 19 -39 32 -16 32 -16 59 5 58 5 20 18 19 17 0 31 -1
31 -14 25 -14 25 -1 12 0 13 23 15 23 15 99 20 100 20 48 16 49 16 -6 17 -5
16 -31 87 -30 86 -6 60 -6 59 12 23 12 22 46 -6 47 -7 57 -6 57 -5 35 6 34 6
26 27 26 26 0 56 0 57 -15 21 -16 22 -34 7 -35 6 -70 -16 -70 -15 -15 5 -14 6
-7 20 -6 19 7 139 7 138 -68 -25 -69 -25 -87 -5 -88 -6 -15 13 -15 12 0 18 0
18 17 30 17 29 -13 44 -13 44 -38 37 -38 38 -44 0 -45 0 -34 -23z"/>
</g>
</svg>
