<?xml version="1.0" standalone="no"?>
<!DOCTYPE svg PUBLIC "-//W3C//DTD SVG 20010904//EN"
 "http://www.w3.org/TR/2001/REC-SVG-20010904/DTD/svg10.dtd">
<svg version="1.0" xmlns="http://www.w3.org/2000/svg"
 width="118.000000pt" height="113.000000pt" viewBox="0 0 118.000000 113.000000"
 preserveAspectRatio="xMidYMid meet">
<metadata>
Created by potrace 1.16, written by Peter Selinger 2001-2019
</metadata>
<g transform="translate(0.000000,113.000000) scale(0.100000,-0.100000)"
fill="#000000" stroke="none">
<path d="M84 1123 l-51 -4 -7 -106 -6 -106 0 -55 0 -54 23 6 22 7 52 11 52 10
34 -6 35 -7 33 -28 32 -28 5 -56 4 -56 -26 -24 -26 -24 -37 -6 -36 -6 -80 16
-80 16 -14 -18 -13 -19 0 -65 0 -66 15 -95 15 -95 0 -7 0 -8 108 0 107 0 37
-11 38 -10 26 -22 25 -22 6 -41 5 -40 -17 -18 -18 -17 11 -23 10 -22 40 -12
39 -12 33 0 32 0 36 17 37 17 17 21 17 20 1 23 0 23 -15 23 -15 23 6 16 6 16
31 10 32 10 120 11 120 12 9 8 8 8 -26 65 -26 64 -15 59 -15 58 0 47 0 46 18
16 19 17 14 0 15 0 20 -15 19 -14 41 -1 40 0 51 15 50 15 26 24 27 25 0 35 0
35 -24 28 -24 28 -36 -18 -37 -17 -33 0 -33 0 -26 24 -25 23 -12 59 -12 59 4
91 5 91 -42 -13 -43 -12 -107 -16 -108 -16 -26 -13 -26 -12 -3 -18 -4 -19 17
-12 18 -13 -12 -21 -11 -21 -43 -12 -42 -11 -54 5 -55 6 -25 19 -25 18 -3 11
-4 11 14 14 15 14 6 30 7 31 -18 22 -18 22 -40 9 -40 10 -60 -2 -60 -2 -51 -3z"/>
</g>
</svg>
