<?xml version="1.0" standalone="no"?>
<!DOCTYPE svg PUBLIC "-//W3C//DTD SVG 20010904//EN"
 "http://www.w3.org/TR/2001/REC-SVG-20010904/DTD/svg10.dtd">
<svg version="1.0" xmlns="http://www.w3.org/2000/svg"
 width="118.000000pt" height="124.000000pt" viewBox="0 0 118.000000 124.000000"
 preserveAspectRatio="xMidYMid meet">
<metadata>
Created by potrace 1.16, written by Peter Selinger 2001-2019
</metadata>
<g transform="translate(0.000000,124.000000) scale(0.100000,-0.100000)"
fill="#000000" stroke="none">
<path d="M839 1221 l-23 -19 18 -40 19 -41 -6 -37 -6 -37 -25 -37 -24 -37 -35
-16 -35 -17 -40 0 -39 0 -32 11 -31 11 0 6 1 7 14 19 15 20 0 36 0 36 -15 21
-15 21 -47 19 -48 18 -105 0 -105 0 -17 -7 -18 -7 0 -137 0 -136 -16 -33 -16
-33 -14 -6 -15 -6 -36 15 -35 15 -38 0 -38 0 -16 -25 -16 -24 0 -69 0 -69 11
-32 11 -31 33 0 34 0 6 10 6 10 14 0 14 0 14 -27 14 -28 17 -80 17 -80 17 -47
16 -48 8 0 8 0 0 -15 0 -15 43 7 42 8 80 -1 80 -1 38 -16 37 -16 6 -16 7 -16
-14 -42 -14 -41 1 -39 1 -39 22 -21 22 -22 82 -3 82 -4 29 23 29 22 23 51 24
51 0 58 0 57 -12 20 -13 21 15 9 15 10 50 0 50 0 83 -20 83 -20 20 0 19 0 0
14 0 13 -13 39 -14 39 -12 80 -13 80 -20 33 -20 32 -24 0 -24 0 -41 -17 -42
-16 -23 26 -22 26 -7 55 -7 55 9 28 9 28 27 13 26 13 73 -16 73 -15 25 0 26 0
12 12 12 12 0 172 0 171 -58 26 -57 26 -60 16 -59 15 -42 0 -42 0 -23 -19z"/>
</g>
</svg>
