<?xml version="1.0" standalone="no"?>
<!DOCTYPE svg PUBLIC "-//W3C//DTD SVG 20010904//EN"
 "http://www.w3.org/TR/2001/REC-SVG-20010904/DTD/svg10.dtd">
<svg version="1.0" xmlns="http://www.w3.org/2000/svg"
 width="116.000000pt" height="122.000000pt" viewBox="0 0 116.000000 122.000000"
 preserveAspectRatio="xMidYMid meet">
<metadata>
Created by potrace 1.16, written by Peter Selinger 2001-2019
</metadata>
<g transform="translate(0.000000,122.000000) scale(0.100000,-0.100000)"
fill="#000000" stroke="none">
<path d="M842 1204 l-22 -15 16 -31 16 -31 -4 -48 -5 -49 -26 -38 -25 -39 -35
-16 -35 -17 -50 0 -49 0 -32 11 -31 11 0 16 1 17 14 19 15 20 0 26 0 26 -15
21 -15 21 -47 18 -48 19 -95 0 -95 0 -17 -7 -18 -7 0 -137 0 -136 -16 -34 -16
-34 -23 -6 -22 -5 -38 15 -37 16 -28 0 -28 0 -16 -25 -16 -24 0 -59 0 -59 11
-32 11 -31 23 0 24 0 6 10 6 10 24 0 24 0 14 -27 14 -28 17 -80 17 -80 17 -47
16 -48 8 0 8 0 0 -13 0 -13 71 10 72 9 69 -11 69 -10 24 -16 25 -16 0 -31 0
-30 -11 -20 -10 -20 -1 -41 0 -40 21 -21 21 -22 73 -3 72 -4 29 23 29 22 23
51 24 51 0 52 0 52 -10 6 -10 6 0 24 0 24 23 7 22 7 46 -1 46 -1 92 -21 92
-22 5 4 4 5 -13 39 -14 39 -12 80 -13 80 -20 33 -20 32 -11 0 -12 0 -46 -16
-47 -17 -15 6 -16 6 -16 24 -15 24 -6 64 -6 64 11 28 11 27 27 11 28 11 92
-18 92 -17 16 13 15 12 0 163 0 162 -58 26 -57 26 -60 16 -59 15 -31 0 -31 0
-22 -16z"/>
</g>
</svg>
