<?xml version="1.0" standalone="no"?>
<!DOCTYPE svg PUBLIC "-//W3C//DTD SVG 20010904//EN"
 "http://www.w3.org/TR/2001/REC-SVG-20010904/DTD/svg10.dtd">
<svg version="1.0" xmlns="http://www.w3.org/2000/svg"
 width="99.000000pt" height="145.000000pt" viewBox="0 0 99.000000 145.000000"
 preserveAspectRatio="xMidYMid meet">
<metadata>
Created by potrace 1.16, written by Peter Selinger 2001-2019
</metadata>
<g transform="translate(0.000000,145.000000) scale(0.100000,-0.100000)"
fill="#000000" stroke="none">
<path d="M439 1421 l-29 -29 0 -27 0 -26 15 -36 15 -35 0 -19 0 -18 -25 -25
-25 -25 -37 -10 -38 -11 -127 0 -127 0 -7 -35 -6 -35 4 -105 3 -104 21 -28 21
-28 38 -3 38 -3 10 10 11 11 16 0 17 0 16 -18 16 -17 12 -46 12 -46 -19 -39
-19 -39 -29 -14 -29 -13 -58 16 -59 16 -18 0 -18 0 -17 -20 -17 -20 0 -61 0
-60 22 -97 22 -97 9 -10 10 -10 117 4 118 3 45 -20 45 -20 6 -20 7 -21 -16
-36 -15 -37 0 -32 0 -32 13 -18 13 -17 39 -9 40 -10 40 0 41 0 22 16 22 15 15
29 15 29 0 27 0 27 -16 18 -16 17 24 16 24 15 134 20 135 20 38 7 37 7 0 451
0 451 -53 23 -52 22 -105 26 -105 25 -22 15 -23 14 0 20 0 20 9 0 10 0 6 20 6
19 -11 21 -11 21 -32 19 -32 20 -53 0 -54 0 -29 -29z"/>
</g>
</svg>
