<?xml version="1.0" standalone="no"?>
<!DOCTYPE svg PUBLIC "-//W3C//DTD SVG 20010904//EN"
 "http://www.w3.org/TR/2001/REC-SVG-20010904/DTD/svg10.dtd">
<svg version="1.0" xmlns="http://www.w3.org/2000/svg"
 width="97.000000pt" height="143.000000pt" viewBox="0 0 97.000000 143.000000"
 preserveAspectRatio="xMidYMid meet">
<metadata>
Created by potrace 1.16, written by Peter Selinger 2001-2019
</metadata>
<g transform="translate(0.000000,143.000000) scale(0.100000,-0.100000)"
fill="#000000" stroke="none">
<path d="M439 1401 l-29 -29 0 -17 0 -16 15 -36 15 -35 0 -29 0 -28 -25 -25
-25 -25 -37 -10 -38 -11 -127 0 -127 0 -7 -35 -6 -36 4 -94 4 -95 20 -27 21
-28 26 -3 26 -3 26 17 26 17 27 -20 27 -20 14 -45 14 -45 -7 -36 -7 -35 -20
-26 -20 -25 -33 -7 -33 -6 -62 18 -62 17 -19 -21 -20 -21 0 -53 0 -53 20 -80
21 -80 2 -15 2 -15 9 -10 8 -10 119 3 118 3 45 -20 45 -20 7 -26 6 -26 -16
-42 -16 -43 0 -22 0 -22 19 -19 19 -19 57 -7 57 -7 24 11 24 11 20 32 20 33 0
21 0 22 -15 12 -15 12 0 14 0 14 23 15 23 14 134 20 135 20 38 7 37 7 0 441 0
441 -53 23 -52 22 -105 26 -105 25 -22 15 -23 14 0 26 0 25 15 15 15 15 -11
20 -10 20 -32 19 -32 20 -43 0 -44 0 -29 -29z"/>
</g>
</svg>
