<?xml version="1.0" standalone="no"?>
<!DOCTYPE svg PUBLIC "-//W3C//DTD SVG 20010904//EN"
 "http://www.w3.org/TR/2001/REC-SVG-20010904/DTD/svg10.dtd">
<svg version="1.0" xmlns="http://www.w3.org/2000/svg"
 width="145.000000pt" height="89.000000pt" viewBox="0 0 145.000000 89.000000"
 preserveAspectRatio="xMidYMid meet">
<metadata>
Created by potrace 1.16, written by Peter Selinger 2001-2019
</metadata>
<g transform="translate(0.000000,89.000000) scale(0.100000,-0.100000)"
fill="#000000" stroke="none">
<path d="M323 883 l-33 -4 0 -163 0 -164 -15 -12 -16 -13 -92 17 -92 18 -28
-11 -27 -11 -11 -27 -11 -28 6 -64 6 -64 15 -24 16 -24 16 -6 15 -6 47 17 46
16 12 0 11 0 20 -33 20 -32 11 -70 11 -70 17 -60 16 -60 111 2 111 2 46 1 47
0 23 19 24 20 -21 59 -21 59 12 23 12 23 24 13 24 13 61 1 62 0 23 -19 24 -19
-18 -48 -17 -49 0 -12 0 -13 24 -16 25 -16 151 -14 151 -14 11 -3 11 -2 28 55
29 55 31 110 31 110 10 13 10 12 34 0 34 0 0 -10 0 -10 10 0 10 0 21 33 20 32
-4 53 -4 53 -21 22 -22 21 -47 -17 -48 -17 -28 0 -28 0 -24 16 -24 15 -10 31
-11 31 0 130 0 129 -147 -4 -148 -4 -22 -12 -23 -13 0 -17 1 -17 14 -19 15
-20 0 -24 0 -23 -10 -20 -11 -19 -32 -17 -32 -17 -99 2 -99 1 -11 11 -10 10
17 29 17 29 0 22 0 21 -16 30 -15 31 -42 18 -42 18 -65 5 -65 4 -32 -4z"/>
</g>
</svg>
