<?xml version="1.0" standalone="no"?>
<!DOCTYPE svg PUBLIC "-//W3C//DTD SVG 20010904//EN"
 "http://www.w3.org/TR/2001/REC-SVG-20010904/DTD/svg10.dtd">
<svg version="1.0" xmlns="http://www.w3.org/2000/svg"
 width="149.000000pt" height="91.000000pt" viewBox="0 0 149.000000 91.000000"
 preserveAspectRatio="xMidYMid meet">
<metadata>
Created by potrace 1.16, written by Peter Selinger 2001-2019
</metadata>
<g transform="translate(0.000000,91.000000) scale(0.100000,-0.100000)"
fill="#000000" stroke="none">
<path d="M328 903 l-48 -4 7 -133 6 -132 -7 -38 -7 -38 -22 7 -22 7 -53 5 -53
6 -44 -18 -45 -17 -20 -25 -20 -26 0 -37 0 -37 21 -27 20 -26 19 0 19 0 36 17
36 17 19 -20 20 -20 30 -134 30 -135 12 -45 11 -45 111 3 111 2 52 11 51 10
26 26 26 26 0 46 0 47 -14 19 -14 20 10 18 9 18 32 19 32 20 33 0 32 0 20 -20
20 -20 0 -16 0 -16 -17 -47 -16 -48 6 -16 6 -16 29 -15 29 -15 134 -17 134
-16 40 -14 40 -14 6 0 5 0 2 90 2 90 10 73 11 72 14 15 15 14 45 -12 45 -12
41 0 40 0 24 26 24 26 7 45 7 45 -16 34 -16 33 -28 14 -28 14 -33 6 -32 7 -46
-16 -45 -15 -19 6 -20 6 -11 42 -11 42 4 127 4 127 -131 -5 -130 -6 -54 -9
-54 -9 -13 -11 -14 -11 0 -18 0 -18 15 -35 15 -36 0 -19 0 -19 -25 -27 -24
-26 -40 0 -39 0 -31 26 -30 25 -7 35 -6 35 16 42 16 43 0 17 0 17 -26 10 -25
10 -117 -2 -117 -2 -47 -3z"/>
</g>
</svg>
