<?xml version="1.0" standalone="no"?>
<!DOCTYPE svg PUBLIC "-//W3C//DTD SVG 20010904//EN"
 "http://www.w3.org/TR/2001/REC-SVG-20010904/DTD/svg10.dtd">
<svg version="1.0" xmlns="http://www.w3.org/2000/svg"
 width="147.000000pt" height="89.000000pt" viewBox="0 0 147.000000 89.000000"
 preserveAspectRatio="xMidYMid meet">
<metadata>
Created by potrace 1.16, written by Peter Selinger 2001-2019
</metadata>
<g transform="translate(0.000000,89.000000) scale(0.100000,-0.100000)"
fill="#000000" stroke="none">
<path d="M330 883 l-46 -4 1 -165 0 -165 -14 -8 -14 -9 -33 14 -33 14 -38 0
-38 0 -41 -19 -41 -19 -17 -23 -16 -23 0 -28 0 -27 24 -28 24 -28 36 18 37 17
18 0 18 0 17 -18 16 -19 30 -134 30 -134 12 -45 13 -45 130 6 130 6 27 11 26
11 21 22 21 23 0 36 0 36 -16 23 -16 23 11 24 11 24 32 20 33 20 43 0 42 0 20
-20 20 -20 0 -29 0 -29 -16 -37 -15 -37 5 -14 5 -13 29 -15 29 -15 134 -17
134 -16 38 -13 38 -13 -5 13 -5 14 10 118 9 118 6 33 6 33 23 15 22 14 43 -15
43 -15 34 0 34 0 24 26 23 25 7 39 6 38 -15 31 -16 31 -30 15 -30 16 -33 1
-32 1 -36 -13 -36 -13 -26 7 -26 6 -11 42 -12 41 4 127 3 128 -120 -5 -120 -5
-55 -9 -54 -9 -15 -14 -14 -14 17 -41 16 -41 0 -29 0 -28 -25 -27 -24 -26 -50
0 -51 0 -30 28 -31 27 -6 43 -6 42 18 46 17 46 -11 11 -12 12 -122 1 -122 1
-45 -4z"/>
</g>
</svg>
