<?xml version="1.0" standalone="no"?>
<!DOCTYPE svg PUBLIC "-//W3C//DTD SVG 20010904//EN"
 "http://www.w3.org/TR/2001/REC-SVG-20010904/DTD/svg10.dtd">
<svg version="1.0" xmlns="http://www.w3.org/2000/svg"
 width="97.000000pt" height="91.000000pt" viewBox="0 0 97.000000 91.000000"
 preserveAspectRatio="xMidYMid meet">
<metadata>
Created by potrace 1.16, written by Peter Selinger 2001-2019
</metadata>
<g transform="translate(0.000000,91.000000) scale(0.100000,-0.100000)"
fill="#000000" stroke="none">
<path d="M48 903 l-48 -4 0 -167 0 -168 16 -22 15 -22 24 0 23 0 29 17 29 16
26 -6 26 -7 31 -26 31 -26 0 -40 0 -40 -16 -33 -15 -33 -31 -13 -30 -12 -48
17 -49 18 -20 -7 -19 -6 -8 -17 -8 -17 -2 -150 -2 -150 170 -3 170 -3 14 12
14 11 0 20 0 19 -16 25 -17 25 12 39 11 38 35 31 36 31 32 0 33 0 20 -14 19
-15 -12 -20 -13 -21 0 -28 0 -28 28 -16 27 -16 115 -21 115 -21 58 -21 58 -20
13 10 13 11 14 78 13 77 0 76 1 77 -20 22 -20 22 -30 -5 -30 -4 -46 -13 -46
-13 -32 13 -32 13 -16 30 -15 30 4 59 4 59 16 15 15 16 47 -16 47 -16 30 0 31
0 28 28 28 28 7 63 7 63 -7 84 -7 84 -13 0 -14 0 -27 -10 -28 -11 -120 -20
-121 -20 -27 -10 -27 -11 -6 -19 -6 -18 15 -30 16 -30 0 -15 0 -16 -23 -15
-23 -15 -46 -6 -45 -6 -47 20 -46 21 -9 23 -9 23 14 34 14 33 0 34 0 34 -27
17 -27 18 -100 1 -101 1 -47 -4z"/>
</g>
</svg>
