<?xml version="1.0" standalone="no"?>
<!DOCTYPE svg PUBLIC "-//W3C//DTD SVG 20010904//EN"
 "http://www.w3.org/TR/2001/REC-SVG-20010904/DTD/svg10.dtd">
<svg version="1.0" xmlns="http://www.w3.org/2000/svg"
 width="95.000000pt" height="89.000000pt" viewBox="0 0 95.000000 89.000000"
 preserveAspectRatio="xMidYMid meet">
<metadata>
Created by potrace 1.16, written by Peter Selinger 2001-2019
</metadata>
<g transform="translate(0.000000,89.000000) scale(0.100000,-0.100000)"
fill="#000000" stroke="none">
<path d="M48 883 l-48 -4 0 -157 0 -158 16 -22 15 -22 17 0 17 1 19 14 20 15
29 0 28 0 22 -11 22 -11 23 -21 22 -20 0 -50 0 -49 -15 -33 -16 -32 -25 -12
-25 -11 -23 0 -24 0 -35 15 -36 15 -15 -6 -14 -6 -8 -16 -8 -17 -1 -140 -2
-140 162 -3 161 -4 14 16 13 17 -18 33 -18 33 7 38 8 39 38 38 38 38 46 0 46
0 20 -20 20 -20 0 -9 0 -9 -15 -12 -15 -12 0 -23 0 -22 33 -17 32 -17 125 -23
126 -24 36 -15 37 -15 9 11 9 12 13 68 13 69 1 73 1 74 -22 23 -22 22 -54 -17
-54 -17 -27 0 -27 0 -28 14 -27 15 -12 26 -12 26 0 54 0 54 10 26 10 26 15 5
16 6 56 -17 56 -18 25 9 25 9 21 28 21 28 -1 124 0 124 -5 5 -5 5 -44 -13 -45
-14 -110 -17 -110 -17 -20 -10 -20 -11 -7 -10 -7 -11 15 -27 14 -28 0 -25 0
-26 -24 -15 -24 -16 -55 -6 -54 -5 -46 20 -47 21 -11 28 -10 27 15 41 16 41 0
22 0 22 -26 17 -27 17 -91 2 -91 1 -47 -4z"/>
</g>
</svg>
