<?xml version="1.0" standalone="no"?>
<!DOCTYPE svg PUBLIC "-//W3C//DTD SVG 20010904//EN"
 "http://www.w3.org/TR/2001/REC-SVG-20010904/DTD/svg10.dtd">
<svg version="1.0" xmlns="http://www.w3.org/2000/svg"
 width="127.000000pt" height="143.000000pt" viewBox="0 0 127.000000 143.000000"
 preserveAspectRatio="xMidYMid meet">
<metadata>
Created by potrace 1.16, written by Peter Selinger 2001-2019
</metadata>
<g transform="translate(0.000000,143.000000) scale(0.100000,-0.100000)"
fill="#000000" stroke="none">
<path d="M682 1410 l-32 -20 -11 -24 -11 -24 16 -23 16 -23 0 -36 0 -36 -21
-23 -21 -22 -26 -11 -27 -11 -130 -6 -130 -6 0 -157 0 -157 -15 -16 -16 -15
-34 10 -35 10 -63 0 -63 0 -29 -15 -29 -15 -11 -19 -10 -20 0 -30 0 -29 6 -16
6 -15 49 -32 50 -32 70 -5 70 -5 39 13 39 13 16 -13 15 -12 0 -52 0 -52 -15
-57 -15 -57 -17 -38 -17 -37 -4 -7 -4 -8 125 1 124 1 45 -20 46 -20 7 -22 7
-23 -17 -52 -18 -52 7 -27 7 -27 32 -19 32 -20 56 0 55 0 36 33 36 32 17 34
17 33 5 53 6 53 -19 32 -19 31 19 15 20 14 56 0 57 0 79 -21 79 -21 24 -6 24
-5 -5 9 -6 9 24 105 24 105 0 58 0 57 -20 20 -19 19 -48 -14 -48 -15 -46 0
-46 0 -34 12 -34 11 -27 19 -28 19 0 38 0 38 23 34 22 34 35 17 35 18 31 0 32
0 35 -15 36 -15 20 0 20 0 10 38 10 37 -7 115 -7 115 -36 12 -35 11 -133 17
-134 16 -29 15 -29 15 -5 13 -5 14 15 37 16 37 0 29 0 29 -20 20 -20 20 -42 0
-43 0 -33 -20z"/>
</g>
</svg>
