<?xml version="1.0" standalone="no"?>
<!DOCTYPE svg PUBLIC "-//W3C//DTD SVG 20010904//EN"
 "http://www.w3.org/TR/2001/REC-SVG-20010904/DTD/svg10.dtd">
<svg version="1.0" xmlns="http://www.w3.org/2000/svg"
 width="117.000000pt" height="98.000000pt" viewBox="0 0 117.000000 98.000000"
 preserveAspectRatio="xMidYMid meet">
<metadata>
Created by potrace 1.16, written by Peter Selinger 2001-2019
</metadata>
<g transform="translate(0.000000,98.000000) scale(0.100000,-0.100000)"
fill="#000000" stroke="none">
<path d="M865 975 l-10 -3 -27 -6 -28 -6 0 -35 0 -34 10 -6 10 -6 0 -42 0 -42
-24 -51 -23 -51 -29 -22 -29 -23 -62 4 -62 4 -21 19 -22 20 6 45 7 45 5 47 6
46 -26 17 -25 17 -68 10 -68 11 -78 -7 -77 -8 1 -153 0 -154 -16 -25 -17 -26
-18 0 -17 0 -43 15 -43 15 -26 0 -27 0 -12 -12 -12 -12 0 -97 0 -98 10 -25 10
-26 15 0 16 0 26 17 26 17 22 -26 23 -26 16 -79 17 -78 14 -40 15 -41 0 -15 0
-16 124 -7 123 -7 39 7 39 7 18 9 17 9 0 32 0 31 -16 43 -17 44 12 25 11 25
35 15 34 14 41 0 41 0 27 -14 27 -14 25 -27 25 -26 -2 -42 -1 -42 -7 -37 -7
-37 17 -17 17 -17 48 -5 49 -4 100 12 100 12 9 12 9 11 12 85 11 85 0 73 0 73
-10 20 -11 19 -25 0 -25 0 -30 -15 -30 -16 -34 7 -35 6 -36 32 -36 32 0 41 1
42 16 31 16 31 27 11 27 10 46 -16 47 -16 20 0 21 0 15 22 16 22 0 152 0 151
-97 21 -98 21 -40 5 -40 5 -10 -4z"/>
</g>
</svg>
