<?xml version="1.0" standalone="no"?>
<!DOCTYPE svg PUBLIC "-//W3C//DTD SVG 20010904//EN"
 "http://www.w3.org/TR/2001/REC-SVG-20010904/DTD/svg10.dtd">
<svg version="1.0" xmlns="http://www.w3.org/2000/svg"
 width="115.000000pt" height="96.000000pt" viewBox="0 0 115.000000 96.000000"
 preserveAspectRatio="xMidYMid meet">
<metadata>
Created by potrace 1.16, written by Peter Selinger 2001-2019
</metadata>
<g transform="translate(0.000000,96.000000) scale(0.100000,-0.100000)"
fill="#000000" stroke="none">
<path d="M865 955 l-10 -3 -27 -6 -28 -6 0 -25 0 -24 10 -6 10 -6 0 -52 0 -52
-24 -51 -23 -51 -29 -22 -29 -23 -72 4 -73 3 -21 22 -21 21 0 40 1 41 10 20
11 20 0 30 0 31 -24 15 -23 16 -62 10 -62 11 -75 -7 -74 -7 1 -152 2 -153 -18
-27 -18 -28 -36 5 -36 4 -47 13 -46 14 -17 -14 -17 -14 4 -102 3 -103 12 -12
11 -11 23 16 23 16 17 0 18 0 19 -25 20 -25 16 -78 16 -77 20 -49 19 -49 -4
-7 -4 -7 114 -7 115 -7 38 7 37 7 18 9 19 10 -5 31 -5 32 -13 42 -13 42 12 26
12 26 35 15 34 14 51 0 51 0 27 -14 27 -14 25 -27 25 -27 -1 -51 -1 -52 -8
-27 -7 -27 16 -17 17 -16 39 -5 39 -5 100 12 100 12 9 12 9 11 12 85 11 85 0
63 0 63 -10 20 -11 19 -15 0 -15 0 -31 -16 -31 -16 -43 7 -43 6 -37 33 -38 34
1 50 1 51 19 33 19 32 33 10 33 9 55 -18 55 -19 19 23 19 23 0 143 0 142 -97
21 -98 21 -30 4 -30 5 -10 -3z"/>
</g>
</svg>
