<?xml version="1.0" standalone="no"?>
<!DOCTYPE svg PUBLIC "-//W3C//DTD SVG 20010904//EN"
 "http://www.w3.org/TR/2001/REC-SVG-20010904/DTD/svg10.dtd">
<svg version="1.0" xmlns="http://www.w3.org/2000/svg"
 width="117.000000pt" height="116.000000pt" viewBox="0 0 117.000000 116.000000"
 preserveAspectRatio="xMidYMid meet">
<metadata>
Created by potrace 1.16, written by Peter Selinger 2001-2019
</metadata>
<g transform="translate(0.000000,116.000000) scale(0.100000,-0.100000)"
fill="#000000" stroke="none">
<path d="M608 1144 l-27 -14 -12 -40 -12 -40 10 -53 10 -52 8 -17 7 -18 -28
-11 -29 -11 -155 4 -155 3 -6 -110 -5 -110 -18 -38 -19 -38 -21 -14 -20 -15
-33 0 -32 0 -6 10 -6 10 -24 0 -23 0 -6 -16 -6 -16 0 -68 0 -69 11 -28 10 -28
21 -22 21 -23 38 0 38 0 6 10 6 10 10 0 10 0 14 -34 14 -33 7 -130 7 -130 98
-7 98 -7 53 7 53 7 28 15 27 16 0 36 0 36 -14 19 -14 20 10 18 10 19 41 19 42
19 35 0 35 0 32 -19 31 -20 7 -20 6 -20 -15 -30 -16 -30 0 -19 0 -19 21 -19
21 -19 169 -3 169 -4 6 16 6 16 -21 52 -20 53 -17 77 -16 78 -20 26 -21 26
-31 -5 -31 -4 -16 -7 -16 -7 -7 23 -6 23 0 76 0 77 15 12 15 12 47 -16 47 -16
37 0 37 0 18 27 18 28 -2 145 -2 145 -5 25 -6 25 -127 24 -127 24 -53 14 -53
14 -6 15 -6 16 17 34 16 35 0 19 0 19 -22 15 -22 16 -66 0 -65 -1 -27 -15z"/>
</g>
</svg>
