<?xml version="1.0" standalone="no"?>
<!DOCTYPE svg PUBLIC "-//W3C//DTD SVG 20010904//EN"
 "http://www.w3.org/TR/2001/REC-SVG-20010904/DTD/svg10.dtd">
<svg version="1.0" xmlns="http://www.w3.org/2000/svg"
 width="124.000000pt" height="120.000000pt" viewBox="0 0 124.000000 120.000000"
 preserveAspectRatio="xMidYMid meet">
<metadata>
Created by potrace 1.16, written by Peter Selinger 2001-2019
</metadata>
<g transform="translate(0.000000,120.000000) scale(0.100000,-0.100000)"
fill="#000000" stroke="none">
<path d="M135 1188 l-110 -8 -13 -5 -12 -4 2 -438 3 -438 172 3 171 4 20 -11
19 -10 -14 -63 -15 -63 4 -59 4 -59 23 -18 23 -19 50 0 51 0 33 36 34 35 0 39
0 39 -10 6 -10 6 0 13 0 13 25 11 24 11 88 16 88 16 73 21 72 21 0 22 0 22
-20 77 -20 78 -6 61 -6 62 15 19 14 19 33 -11 33 -12 69 0 69 0 50 21 50 22
14 28 15 28 0 26 0 26 -24 24 -24 24 -56 16 -57 17 -82 -3 -82 -3 1 34 1 35 8
128 7 127 -20 0 -19 0 -40 -14 -40 -14 -103 -21 -104 -21 -23 -15 -23 -15 0
-23 1 -22 14 -25 14 -25 1 -21 0 -21 -19 -17 -18 -17 -50 -5 -49 -6 -32 16
-32 16 -19 38 -19 37 -6 40 -7 40 16 58 15 58 0 4 0 5 -62 -1 -63 -2 -110 -9z"/>
</g>
</svg>
