<?xml version="1.0" standalone="no"?>
<!DOCTYPE svg PUBLIC "-//W3C//DTD SVG 20010904//EN"
 "http://www.w3.org/TR/2001/REC-SVG-20010904/DTD/svg10.dtd">
<svg version="1.0" xmlns="http://www.w3.org/2000/svg"
 width="122.000000pt" height="118.000000pt" viewBox="0 0 122.000000 118.000000"
 preserveAspectRatio="xMidYMid meet">
<metadata>
Created by potrace 1.16, written by Peter Selinger 2001-2019
</metadata>
<g transform="translate(0.000000,118.000000) scale(0.100000,-0.100000)"
fill="#000000" stroke="none">
<path d="M135 1168 l-110 -8 -13 -5 -12 -4 2 -428 3 -428 175 3 175 4 18 -14
18 -13 -17 -70 -16 -70 5 -49 4 -50 23 -18 22 -18 40 0 41 0 33 36 34 35 0 25
0 25 -15 22 -14 22 7 11 7 11 21 11 20 11 90 16 89 16 73 21 74 21 -5 26 -5
26 -21 95 -21 95 0 41 0 40 14 19 14 20 46 -13 46 -12 58 0 57 0 51 24 51 23
13 32 13 32 -12 25 -11 25 -48 21 -47 21 -72 5 -71 5 -31 -11 -30 -11 -6 18
-5 17 10 120 10 119 0 34 0 33 -22 -6 -23 -7 -75 -19 -75 -19 -57 -11 -57 -11
-23 -19 -23 -18 18 -36 17 -37 0 -28 0 -28 -19 -17 -20 -18 -58 -5 -59 -5 -32
16 -32 16 -19 39 -20 38 -6 49 -6 49 14 53 14 52 -51 -1 -51 -2 -110 -9z"/>
</g>
</svg>
