<?xml version="1.0" standalone="no"?>
<!DOCTYPE svg PUBLIC "-//W3C//DTD SVG 20010904//EN"
 "http://www.w3.org/TR/2001/REC-SVG-20010904/DTD/svg10.dtd">
<svg version="1.0" xmlns="http://www.w3.org/2000/svg"
 width="100.000000pt" height="114.000000pt" viewBox="0 0 100.000000 114.000000"
 preserveAspectRatio="xMidYMid meet">
<metadata>
Created by potrace 1.16, written by Peter Selinger 2001-2019
</metadata>
<g transform="translate(0.000000,114.000000) scale(0.100000,-0.100000)"
fill="#000000" stroke="none">
<path d="M382 1130 l-22 -10 -6 -15 -6 -15 17 -36 16 -35 -6 -28 -6 -29 -19
-17 -19 -17 -38 -14 -38 -13 -117 -1 -117 0 -5 -9 -5 -8 -7 -134 -6 -134 11
-27 11 -28 32 0 33 0 39 14 39 14 30 -9 30 -9 23 -21 23 -22 12 -34 11 -33
-19 -33 -19 -32 -27 -9 -27 -10 -33 12 -33 12 -31 0 -31 0 -17 -27 -18 -26 -8
-111 -8 -111 -6 -60 -7 -60 206 -3 206 -4 0 19 0 18 -15 40 -14 40 -1 48 0 48
14 34 14 33 20 11 21 11 30 0 30 0 27 -23 27 -24 -16 -24 -17 -23 0 -28 0 -28
23 -14 22 -14 116 -30 116 -30 48 -23 47 -22 17 10 16 10 24 64 23 64 5 85 6
85 -17 14 -16 13 -32 -7 -33 -8 -75 -1 -75 -1 -53 34 -52 33 -6 24 -6 24 6 25
7 26 32 19 32 20 53 0 53 0 45 -11 46 -12 15 16 16 16 4 98 4 98 -8 74 -8 75
-29 7 -29 8 -130 16 -130 16 -21 11 -21 11 -7 10 -7 11 15 27 14 28 0 24 0 24
-21 19 -21 19 -71 2 -72 3 -23 -10z"/>
</g>
</svg>
