<?xml version="1.0" standalone="no"?>
<!DOCTYPE svg PUBLIC "-//W3C//DTD SVG 20010904//EN"
 "http://www.w3.org/TR/2001/REC-SVG-20010904/DTD/svg10.dtd">
<svg version="1.0" xmlns="http://www.w3.org/2000/svg"
 width="98.000000pt" height="112.000000pt" viewBox="0 0 98.000000 112.000000"
 preserveAspectRatio="xMidYMid meet">
<metadata>
Created by potrace 1.16, written by Peter Selinger 2001-2019
</metadata>
<g transform="translate(0.000000,112.000000) scale(0.100000,-0.100000)"
fill="#000000" stroke="none">
<path d="M384 1110 l-22 -9 -6 -9 -6 -10 16 -32 16 -32 -5 -35 -6 -35 -12 -15
-13 -14 -30 -17 -31 -16 -135 -6 -135 -5 -9 -118 -9 -119 9 -36 9 -37 22 -3
22 -3 46 16 47 15 38 -10 39 -10 25 -30 25 -31 7 -34 6 -35 -19 -32 -19 -33
-34 -11 -35 -12 -34 14 -33 14 -23 0 -23 0 -17 -27 -17 -26 -9 -116 -8 -116
-6 -45 -6 -45 195 -4 196 -3 0 8 0 9 -15 40 -14 40 -1 58 0 58 14 34 14 33 20
11 21 11 39 0 39 0 27 -21 26 -20 0 -17 -1 -17 -14 -19 -15 -20 0 -18 0 -18
23 -14 22 -14 117 -31 117 -30 42 -20 42 -21 13 11 13 10 21 62 21 62 6 75 6
75 -17 14 -17 14 -39 -13 -39 -13 -70 5 -70 5 -50 32 -49 32 -6 15 -6 16 0 29
0 30 10 20 11 19 29 15 29 15 63 0 63 0 35 -10 34 -10 14 14 14 14 5 89 4 88
-8 74 -8 75 -29 7 -29 8 -129 16 -128 16 -25 11 -25 11 -5 17 -6 18 18 36 17
37 -10 17 -11 17 -24 12 -24 13 -50 -1 -50 0 -21 -9z"/>
</g>
</svg>
