<?xml version="1.0" standalone="no"?>
<!DOCTYPE svg PUBLIC "-//W3C//DTD SVG 20010904//EN"
 "http://www.w3.org/TR/2001/REC-SVG-20010904/DTD/svg10.dtd">
<svg version="1.0" xmlns="http://www.w3.org/2000/svg"
 width="97.000000pt" height="117.000000pt" viewBox="0 0 97.000000 117.000000"
 preserveAspectRatio="xMidYMid meet">
<metadata>
Created by potrace 1.16, written by Peter Selinger 2001-2019
</metadata>
<g transform="translate(0.000000,117.000000) scale(0.100000,-0.100000)"
fill="#000000" stroke="none">
<path d="M89 1163 l-36 -4 -12 -168 -12 -168 7 -17 7 -17 26 8 26 8 75 0 75
-1 47 -21 46 -21 11 -21 12 -21 -15 -28 -15 -29 -52 -23 -53 -22 -60 6 -61 6
-42 6 -41 6 -12 -23 -13 -23 6 -71 5 -72 23 -92 23 -93 189 8 190 7 -7 -24 -8
-24 -5 -62 -5 -61 12 -36 11 -36 26 -20 26 -20 27 0 27 0 20 23 21 22 16 33
17 33 11 78 12 79 -18 27 -18 27 12 12 11 11 57 -2 57 -2 85 -26 85 -26 26 -6
27 -5 5 9 5 8 -12 140 -12 140 -12 23 -13 22 -24 0 -25 0 -20 -12 -20 -13 -17
11 -17 11 -20 26 -19 26 -5 55 -4 55 6 27 7 27 12 -12 11 -11 54 0 54 0 28 30
27 29 12 45 11 45 0 95 0 96 -13 0 -14 0 -57 -20 -57 -19 -102 -22 -102 -21
-22 -14 -23 -14 0 -25 0 -25 13 -21 12 -20 -20 -15 -20 -16 -69 4 -68 4 -29
32 -29 32 0 33 0 33 16 48 17 48 -14 9 -14 9 -125 -2 -125 -1 -36 -4z"/>
</g>
</svg>
