<?xml version="1.0" standalone="no"?>
<!DOCTYPE svg PUBLIC "-//W3C//DTD SVG 20010904//EN"
 "http://www.w3.org/TR/2001/REC-SVG-20010904/DTD/svg10.dtd">
<svg version="1.0" xmlns="http://www.w3.org/2000/svg"
 width="95.000000pt" height="115.000000pt" viewBox="0 0 95.000000 115.000000"
 preserveAspectRatio="xMidYMid meet">
<metadata>
Created by potrace 1.16, written by Peter Selinger 2001-2019
</metadata>
<g transform="translate(0.000000,115.000000) scale(0.100000,-0.100000)"
fill="#000000" stroke="none">
<path d="M89 1143 l-36 -4 -11 -159 -12 -159 6 -15 6 -14 30 10 30 11 71 -5
72 -5 47 -21 48 -21 11 -25 12 -25 -13 -32 -13 -32 -51 -23 -51 -24 -57 0 -58
0 -46 12 -46 13 -15 -20 -15 -20 5 -67 6 -67 22 -91 22 -91 178 7 177 7 16 -6
15 -6 -16 -46 -15 -46 4 -55 5 -55 20 -27 20 -27 26 -9 26 -10 22 20 21 19 19
37 19 36 11 71 12 70 -17 25 -16 25 0 16 0 15 28 11 27 11 73 -11 73 -11 76
-25 76 -26 7 8 6 8 -11 130 -11 130 -12 23 -13 22 -19 0 -19 0 -6 -10 -6 -10
-28 0 -28 0 -21 23 -21 22 -10 28 -11 28 0 62 0 62 10 15 9 15 21 -12 20 -13
41 0 41 0 28 30 27 29 12 45 11 45 0 85 0 86 -3 0 -4 0 -57 -20 -57 -19 -102
-22 -102 -21 -22 -14 -23 -14 0 -16 0 -15 17 -26 17 -26 -24 -19 -25 -20 -78
4 -79 3 -29 33 -29 32 0 44 0 43 14 41 15 40 -16 6 -15 6 -111 -2 -112 -1 -36
-4z"/>
</g>
</svg>
