<?xml version="1.0" standalone="no"?>
<!DOCTYPE svg PUBLIC "-//W3C//DTD SVG 20010904//EN"
 "http://www.w3.org/TR/2001/REC-SVG-20010904/DTD/svg10.dtd">
<svg version="1.0" xmlns="http://www.w3.org/2000/svg"
 width="118.000000pt" height="141.000000pt" viewBox="0 0 118.000000 141.000000"
 preserveAspectRatio="xMidYMid meet">
<metadata>
Created by potrace 1.16, written by Peter Selinger 2001-2019
</metadata>
<g transform="translate(0.000000,141.000000) scale(0.100000,-0.100000)"
fill="#000000" stroke="none">
<path d="M619 1383 l-32 -27 -13 -33 -14 -32 0 -33 0 -34 15 -21 15 -21 -15
-12 -15 -12 -144 7 -144 7 -20 -6 -20 -7 5 -103 6 -103 -7 -38 -7 -37 -27 7
-27 6 -57 6 -57 5 -24 -26 -24 -26 -7 -38 -6 -37 0 -37 0 -38 41 -29 41 -30
46 -7 46 -7 30 17 30 17 13 -17 13 -18 0 -65 0 -66 -15 -100 -14 -100 -1 -8 0
-7 148 6 148 7 37 -7 37 -7 -10 -19 -10 -19 0 -63 0 -63 19 -41 19 -41 23 -17
23 -16 46 0 45 1 26 22 26 22 12 22 11 22 0 33 0 34 -12 12 -12 12 16 16 15
15 114 20 114 19 53 11 52 12 0 24 0 24 -16 31 -16 30 -24 116 -25 116 -12 26
-12 25 -37 3 -37 3 -21 -11 -21 -11 -18 6 -18 5 -11 26 -12 25 0 48 0 49 18
22 18 22 54 -16 54 -16 23 0 24 0 28 15 28 14 16 33 15 33 7 67 7 68 -6 63 -7
62 -57 17 -57 17 -115 21 -115 22 -27 16 -28 16 0 12 0 12 15 12 15 12 0 19 0
19 -20 20 -20 20 -54 0 -54 0 -33 -27z"/>
</g>
</svg>
