<?xml version="1.0" standalone="no"?>
<!DOCTYPE svg PUBLIC "-//W3C//DTD SVG 20010904//EN"
 "http://www.w3.org/TR/2001/REC-SVG-20010904/DTD/svg10.dtd">
<svg version="1.0" xmlns="http://www.w3.org/2000/svg"
 width="141.000000pt" height="138.000000pt" viewBox="0 0 141.000000 138.000000"
 preserveAspectRatio="xMidYMid meet">
<metadata>
Created by potrace 1.16, written by Peter Selinger 2001-2019
</metadata>
<g transform="translate(0.000000,138.000000) scale(0.100000,-0.100000)"
fill="#000000" stroke="none">
<path d="M629 1365 l-26 -14 -12 -29 -12 -29 21 -53 21 -53 -16 -16 -16 -16
-162 -5 -162 -5 -5 -142 -5 -142 -16 -16 -15 -16 -37 16 -36 15 -30 0 -30 0
-25 -10 -25 -9 -17 -33 -17 -33 -1 -58 -1 -57 33 -31 33 -31 32 -9 32 -9 28 0
28 0 31 16 32 16 13 -18 13 -18 0 -60 0 -61 -10 -65 -10 -65 -6 -34 -5 -34
123 5 123 6 47 -8 48 -7 19 -17 19 -18 -14 -40 -14 -41 0 -48 0 -48 26 -20 27
-21 59 0 59 0 22 11 22 12 8 11 7 11 11 38 10 39 -12 71 -11 72 -2 19 -1 19
33 9 33 9 87 -16 87 -16 52 -15 53 -15 10 6 10 6 0 119 0 119 10 26 10 27 28
-6 27 -7 50 -6 50 -5 20 22 20 22 3 103 4 103 -21 21 -21 21 -41 0 -40 0 -45
-11 -45 -12 -7 8 -7 7 3 163 4 163 -19 6 -20 6 -147 14 -147 14 -25 16 -24 16
0 6 0 5 15 36 15 35 0 24 0 23 -22 15 -22 16 -71 0 -70 -1 -26 -14z"/>
</g>
</svg>
