<?xml version="1.0" standalone="no"?>
<!DOCTYPE svg PUBLIC "-//W3C//DTD SVG 20010904//EN"
 "http://www.w3.org/TR/2001/REC-SVG-20010904/DTD/svg10.dtd">
<svg version="1.0" xmlns="http://www.w3.org/2000/svg"
 width="139.000000pt" height="136.000000pt" viewBox="0 0 139.000000 136.000000"
 preserveAspectRatio="xMidYMid meet">
<metadata>
Created by potrace 1.16, written by Peter Selinger 2001-2019
</metadata>
<g transform="translate(0.000000,136.000000) scale(0.100000,-0.100000)"
fill="#000000" stroke="none">
<path d="M631 1346 l-24 -13 -12 -23 -12 -23 21 -59 21 -59 -24 -20 -23 -19
-52 0 -51 -1 -105 -2 -105 -2 -5 -142 -5 -142 -17 -17 -17 -18 -55 19 -54 18
-33 -9 -33 -10 -19 -32 -19 -33 -1 -51 -1 -50 38 -34 37 -33 43 -6 43 -7 31
16 31 16 15 0 15 0 11 -19 10 -20 0 -68 0 -68 -14 -89 -13 -89 121 6 121 5 48
-7 49 -8 20 -21 21 -20 -17 -48 -16 -48 0 -37 0 -38 26 -20 27 -21 48 0 48 0
25 11 25 12 13 31 13 31 -2 48 -1 47 -12 50 -12 50 5 14 6 14 40 7 39 6 89
-16 88 -16 48 -14 48 -14 4 12 4 12 3 128 3 129 18 13 19 13 40 -14 41 -14 27
0 27 0 19 21 19 21 3 93 4 93 -21 21 -21 21 -33 0 -34 0 -49 -15 -49 -14 -10
10 -10 10 3 164 4 163 -20 6 -19 6 -147 14 -147 14 -25 16 -24 16 0 13 0 12
17 49 18 48 -24 19 -23 19 -62 0 -61 -1 -24 -13z"/>
</g>
</svg>
