<?xml version="1.0" standalone="no"?>
<!DOCTYPE svg PUBLIC "-//W3C//DTD SVG 20010904//EN"
 "http://www.w3.org/TR/2001/REC-SVG-20010904/DTD/svg10.dtd">
<svg version="1.0" xmlns="http://www.w3.org/2000/svg"
 width="144.000000pt" height="116.000000pt" viewBox="0 0 144.000000 116.000000"
 preserveAspectRatio="xMidYMid meet">
<metadata>
Created by potrace 1.16, written by Peter Selinger 2001-2019
</metadata>
<g transform="translate(0.000000,116.000000) scale(0.100000,-0.100000)"
fill="#000000" stroke="none">
<path d="M673 1154 l-23 -5 0 -18 0 -17 10 -10 11 -11 1 -44 0 -45 -12 -20
-12 -19 -26 -15 -27 -14 -156 -4 -155 -4 0 -111 0 -112 -18 -38 -19 -38 -29
-15 -29 -15 -54 15 -53 16 -25 0 -26 0 -15 -22 -16 -22 0 -68 0 -67 11 -25 12
-25 27 -11 27 -11 36 17 35 17 16 -6 16 -6 11 -28 10 -28 20 -95 19 -95 22
-57 22 -56 117 -7 117 -7 44 7 43 7 18 10 17 9 0 44 0 44 -10 6 -10 6 0 24 0
24 25 19 25 20 35 6 35 7 39 -11 39 -10 31 -35 31 -36 0 -29 0 -29 -10 -6 -10
-6 0 -38 0 -37 12 -12 12 -12 80 0 81 0 82 17 81 17 6 29 6 29 1 72 0 71 8 48
8 48 15 15 14 14 33 -16 32 -16 30 6 30 6 15 14 14 14 10 27 10 26 0 65 0 65
-14 33 -14 33 -35 16 -35 17 -44 0 -43 0 -32 -9 -33 -9 8 76 7 77 0 70 0 70
-70 -5 -70 -5 -92 0 -92 0 -12 12 -12 12 17 63 18 63 -11 27 -10 27 -26 17
-25 16 -63 3 -62 3 -22 -4z"/>
</g>
</svg>
