<?xml version="1.0" standalone="no"?>
<!DOCTYPE svg PUBLIC "-//W3C//DTD SVG 20010904//EN"
 "http://www.w3.org/TR/2001/REC-SVG-20010904/DTD/svg10.dtd">
<svg version="1.0" xmlns="http://www.w3.org/2000/svg"
 width="122.000000pt" height="111.000000pt" viewBox="0 0 122.000000 111.000000"
 preserveAspectRatio="xMidYMid meet">
<metadata>
Created by potrace 1.16, written by Peter Selinger 2001-2019
</metadata>
<g transform="translate(0.000000,111.000000) scale(0.100000,-0.100000)"
fill="#000000" stroke="none">
<path d="M705 1101 l-30 -8 -22 -12 -23 -12 0 -22 0 -23 11 -11 10 -10 -3 -33
-3 -33 -28 -21 -28 -21 -146 -3 -146 -4 6 -119 5 -120 -9 -34 -10 -35 -20 0
-20 0 -36 15 -35 15 -32 0 -31 0 -35 -18 -35 -17 -22 -34 -23 -34 0 -38 0 -38
28 -19 27 -19 34 -11 34 -12 46 0 46 0 48 15 48 14 19 -19 20 -20 0 -57 0 -58
-24 -105 -24 -105 8 -8 8 -9 139 4 140 3 26 25 27 25 0 36 0 36 -15 43 -15 43
0 13 0 13 15 14 14 15 45 6 44 7 36 -15 35 -14 21 -43 22 -42 -5 -36 -4 -36
-13 -31 -14 -32 18 -18 19 -18 41 -5 40 -6 124 6 123 7 7 6 6 7 12 87 13 87 0
78 1 78 -10 20 -11 19 -15 0 -15 0 -24 -16 -24 -16 -40 7 -40 7 -41 29 -40 29
0 28 0 27 6 37 7 38 23 25 23 25 36 0 36 0 35 -15 34 -14 14 5 14 5 6 22 6 22
0 95 0 95 -7 23 -6 24 -16 -5 -16 -5 -80 -21 -80 -22 -67 -6 -67 -6 -26 17
-25 16 0 18 0 18 15 20 14 19 1 20 0 20 -11 40 -11 39 -33 33 -33 33 -8 -1 -9
-1 -30 -7z"/>
</g>
</svg>
