<?xml version="1.0" standalone="no"?>
<!DOCTYPE svg PUBLIC "-//W3C//DTD SVG 20010904//EN"
 "http://www.w3.org/TR/2001/REC-SVG-20010904/DTD/svg10.dtd">
<svg version="1.0" xmlns="http://www.w3.org/2000/svg"
 width="122.000000pt" height="111.000000pt" viewBox="0 0 122.000000 111.000000"
 preserveAspectRatio="xMidYMid meet">
<metadata>
Created by potrace 1.16, written by Peter Selinger 2001-2019
</metadata>
<g transform="translate(0.000000,111.000000) scale(0.100000,-0.100000)"
fill="#000000" stroke="none">
<path d="M304 998 l0 -113 -21 -46 -20 -45 -30 -13 -30 -12 -61 15 -60 16 -25
0 -26 0 -15 -22 -16 -22 0 -53 0 -52 17 -35 16 -35 28 -12 28 -11 43 6 43 6
37 6 38 6 11 -28 11 -29 9 -100 8 -100 6 -46 6 -45 162 4 162 4 18 -14 19 -14
-22 -42 -22 -41 7 -30 6 -30 20 -25 20 -26 38 -10 38 -10 32 6 31 6 26 25 26
24 -5 57 -5 57 -7 32 -7 33 27 10 26 10 52 0 53 0 84 -11 84 -10 22 5 22 6 -8
32 -9 33 -16 123 -16 123 -11 25 -11 24 -23 6 -22 6 -30 -16 -31 -16 -26 0
-27 0 -29 29 -29 29 0 35 0 35 19 23 19 23 54 -1 55 -1 43 -12 43 -11 22 5 23
6 8 17 9 18 0 162 0 163 -455 0 -455 0 -1 -112z"/>
</g>
</svg>
