<?xml version="1.0" standalone="no"?>
<!DOCTYPE svg PUBLIC "-//W3C//DTD SVG 20010904//EN"
 "http://www.w3.org/TR/2001/REC-SVG-20010904/DTD/svg10.dtd">
<svg version="1.0" xmlns="http://www.w3.org/2000/svg"
 width="143.000000pt" height="93.000000pt" viewBox="0 0 143.000000 93.000000"
 preserveAspectRatio="xMidYMid meet">
<metadata>
Created by potrace 1.16, written by Peter Selinger 2001-2019
</metadata>
<g transform="translate(0.000000,93.000000) scale(0.100000,-0.100000)"
fill="#000000" stroke="none">
<path d="M816 917 l-18 -13 17 -52 18 -53 -6 -40 -5 -41 -28 -29 -28 -29 -49
0 -49 0 -33 33 -33 33 -7 37 -7 37 16 25 16 24 0 10 0 9 -31 11 -32 11 -76 0
-76 0 -67 -7 -68 -6 2 -131 1 -131 -17 -32 -16 -33 -27 -6 -27 -7 -45 13 -46
13 -35 1 -34 1 -13 -25 -13 -25 0 -50 0 -50 10 -36 10 -37 14 -11 14 -11 30
17 30 17 24 -16 25 -16 27 -99 27 -98 27 -57 27 -58 70 -2 70 -3 69 3 70 3 33
14 33 14 11 28 10 27 -20 52 -19 51 11 23 12 23 28 21 29 21 49 -1 49 0 20
-19 20 -18 -15 -23 -15 -23 0 -30 0 -30 18 -10 18 -10 125 -31 124 -31 44 -20
44 -19 12 0 12 0 -19 78 -19 77 -2 77 -2 77 16 16 15 15 43 -15 44 -15 40 0
40 0 33 21 34 21 15 21 15 21 0 46 0 45 -18 35 -17 35 -29 14 -30 14 -54 -19
-55 -18 -22 27 -23 26 -8 57 -7 56 5 68 5 68 -6 9 -6 9 -110 22 -110 22 -56 0
-55 0 -18 -13z"/>
</g>
</svg>
