<?xml version="1.0" standalone="no"?>
<!DOCTYPE svg PUBLIC "-//W3C//DTD SVG 20010904//EN"
 "http://www.w3.org/TR/2001/REC-SVG-20010904/DTD/svg10.dtd">
<svg version="1.0" xmlns="http://www.w3.org/2000/svg"
 width="102.000000pt" height="143.000000pt" viewBox="0 0 102.000000 143.000000"
 preserveAspectRatio="xMidYMid meet">
<metadata>
Created by potrace 1.16, written by Peter Selinger 2001-2019
</metadata>
<g transform="translate(0.000000,143.000000) scale(0.100000,-0.100000)"
fill="#000000" stroke="none">
<path d="M375 1406 l-24 -24 -6 -36 -7 -36 12 -81 11 -82 -9 -9 -10 -10 -151
12 -151 11 -21 -6 -21 -7 4 -131 4 -132 17 -32 17 -33 27 -6 26 -7 54 18 54
18 34 -16 35 -17 21 -32 20 -33 -4 -53 -4 -53 -21 -21 -21 -22 -26 12 -26 12
-32 0 -33 0 -16 -27 -16 -28 -22 -80 -22 -80 -29 -54 -29 -55 0 -13 0 -13 137
3 138 2 23 -13 24 -14 -7 -21 -6 -22 -6 -57 -6 -56 7 -26 6 -26 30 -15 29 -15
67 0 67 0 24 26 25 27 9 24 9 24 0 68 0 68 -11 33 -12 32 14 10 14 9 75 -5 75
-4 85 -27 85 -26 20 -5 20 -5 23 54 23 53 14 49 15 48 0 51 0 51 -6 23 -6 22
-23 6 -23 6 -55 -18 -54 -17 -44 7 -44 7 -39 22 -40 22 -19 33 -19 32 6 25 6
25 38 24 37 25 40 9 40 8 35 -9 35 -9 32 -5 31 -5 7 22 7 23 -7 153 -7 154
-22 0 -23 0 -77 -20 -78 -20 -61 -5 -62 -6 -24 19 -24 20 16 35 17 35 0 34 0
35 -14 48 -15 48 -32 33 -33 34 -58 0 -59 0 -24 -24z"/>
</g>
</svg>
