<?xml version="1.0" standalone="no"?>
<!DOCTYPE svg PUBLIC "-//W3C//DTD SVG 20010904//EN"
 "http://www.w3.org/TR/2001/REC-SVG-20010904/DTD/svg10.dtd">
<svg version="1.0" xmlns="http://www.w3.org/2000/svg"
 width="128.000000pt" height="138.000000pt" viewBox="0 0 128.000000 138.000000"
 preserveAspectRatio="xMidYMid meet">
<metadata>
Created by potrace 1.16, written by Peter Selinger 2001-2019
</metadata>
<g transform="translate(0.000000,138.000000) scale(0.100000,-0.100000)"
fill="#000000" stroke="none">
<path d="M679 1351 l-29 -29 0 -49 1 -48 14 -40 15 -40 0 -18 0 -17 -27 -11
-28 -11 -164 7 -163 6 6 -158 7 -158 -10 -15 -10 -14 -38 14 -38 13 -45 0 -45
-1 -37 -15 -38 -16 -25 -25 -25 -25 0 -28 0 -28 20 -32 19 -32 42 -21 42 -22
52 -5 52 -6 50 17 50 17 16 -7 16 -6 7 -35 7 -35 -6 -49 -6 -48 -26 -63 -26
-63 -6 -12 -5 -13 160 1 160 1 24 -13 23 -12 7 -10 6 -10 -14 -41 -15 -41 -1
-32 -1 -33 18 -20 18 -20 53 0 53 0 25 10 25 9 16 31 16 32 -18 50 -18 50 19
14 19 13 41 5 41 6 124 2 125 3 24 60 25 60 13 50 14 50 0 62 0 62 -20 11 -20
11 -59 -16 -59 -15 -36 0 -37 0 -34 14 -34 14 -15 31 -16 30 0 26 0 26 14 34
15 34 24 6 25 7 30 -16 31 -16 25 0 25 0 25 23 26 22 10 54 10 54 0 52 0 52
-6 47 -7 46 -148 0 -148 0 -25 10 -26 10 0 24 0 24 14 33 14 32 -8 28 -8 28
-18 29 -17 29 -27 17 -28 16 -32 0 -32 0 -29 -29z"/>
</g>
</svg>
