<?xml version="1.0" standalone="no"?>
<!DOCTYPE svg PUBLIC "-//W3C//DTD SVG 20010904//EN"
 "http://www.w3.org/TR/2001/REC-SVG-20010904/DTD/svg10.dtd">
<svg version="1.0" xmlns="http://www.w3.org/2000/svg"
 width="119.000000pt" height="91.000000pt" viewBox="0 0 119.000000 91.000000"
 preserveAspectRatio="xMidYMid meet">
<metadata>
Created by potrace 1.16, written by Peter Selinger 2001-2019
</metadata>
<g transform="translate(0.000000,91.000000) scale(0.100000,-0.100000)"
fill="#000000" stroke="none">
<path d="M54 903 l-42 -4 -7 -155 -7 -155 6 -6 6 -6 39 11 38 12 37 0 36 0 32
-29 32 -28 4 -59 4 -59 -21 -26 -21 -27 -25 -6 -25 -6 -30 15 -29 15 -26 0
-26 0 -15 -37 -16 -37 7 -155 7 -156 177 -3 177 -3 27 10 27 11 0 27 0 28 -15
40 -14 40 -1 38 0 39 29 29 29 29 22 0 22 0 28 -17 28 -16 22 -39 22 -39 -7
-32 -6 -32 -6 -42 -5 -43 27 -10 26 -10 150 0 150 0 5 13 5 13 -15 69 -15 70
-6 61 -7 61 17 32 17 33 26 -6 27 -7 68 -6 68 -6 25 14 26 13 14 28 14 27 0
61 0 60 -20 20 -20 20 -48 0 -49 0 -47 -14 -46 -14 -14 13 -14 14 -7 47 -7 46
8 111 7 110 -34 -6 -34 -7 -139 -24 -138 -25 -19 -17 -19 -17 0 -15 0 -15 16
-18 16 -18 -6 -27 -7 -26 -32 -29 -31 -29 -26 0 -26 0 -23 16 -23 17 -19 41
-19 41 0 43 0 44 17 29 17 29 -12 12 -13 13 -142 1 -142 1 -41 -4z"/>
</g>
</svg>
