<?xml version="1.0" standalone="no"?>
<!DOCTYPE svg PUBLIC "-//W3C//DTD SVG 20010904//EN"
 "http://www.w3.org/TR/2001/REC-SVG-20010904/DTD/svg10.dtd">
<svg version="1.0" xmlns="http://www.w3.org/2000/svg"
 width="92.000000pt" height="116.000000pt" viewBox="0 0 92.000000 116.000000"
 preserveAspectRatio="xMidYMid meet">
<metadata>
Created by potrace 1.16, written by Peter Selinger 2001-2019
</metadata>
<g transform="translate(0.000000,116.000000) scale(0.100000,-0.100000)"
fill="#000000" stroke="none">
<path d="M0 1065 l0 -94 11 -53 12 -52 27 -28 28 -28 43 0 43 0 34 12 34 13
19 -24 19 -23 0 -55 0 -54 -12 -22 -11 -22 -24 -22 -24 -23 -29 0 -29 0 -6 10
-6 10 -34 0 -34 0 -11 -21 -12 -21 -15 -145 -15 -145 5 -4 4 -4 144 7 144 8
31 -3 31 -3 -8 -42 -8 -42 -1 -77 0 -78 21 -21 21 -21 83 4 84 3 28 21 28 21
3 28 4 28 -13 7 -12 8 6 16 6 15 73 21 73 22 52 15 51 15 31 19 31 19 0 174 0
175 -12 26 -12 27 -38 -6 -38 -6 -40 -6 -41 -6 -19 17 -20 18 -6 34 -7 35 12
39 12 39 17 -9 17 -9 46 -7 46 -7 31 16 30 15 11 32 11 32 0 139 0 140 -153
-4 -154 -3 -17 -14 -18 -15 6 -35 5 -36 6 -50 7 -50 -26 -25 -27 -24 -66 -4
-67 -5 -32 18 -33 18 -5 14 -6 14 15 36 15 35 0 32 0 33 -22 20 -23 20 -34 12
-34 11 -128 0 -129 0 0 -95z"/>
</g>
</svg>
