<?xml version="1.0" standalone="no"?>
<!DOCTYPE svg PUBLIC "-//W3C//DTD SVG 20010904//EN"
 "http://www.w3.org/TR/2001/REC-SVG-20010904/DTD/svg10.dtd">
<svg version="1.0" xmlns="http://www.w3.org/2000/svg"
 width="124.000000pt" height="147.000000pt" viewBox="0 0 124.000000 147.000000"
 preserveAspectRatio="xMidYMid meet">
<metadata>
Created by potrace 1.16, written by Peter Selinger 2001-2019
</metadata>
<g transform="translate(0.000000,147.000000) scale(0.100000,-0.100000)"
fill="#000000" stroke="none">
<path d="M662 1454 l-22 -15 0 -43 0 -43 14 -46 14 -47 -5 -20 -5 -19 -23 -15
-22 -15 -39 -7 -39 -8 -120 0 -120 -1 -5 -125 -5 -125 -9 -15 -9 -15 -20 -22
-20 -23 -38 0 -38 0 -36 17 -35 17 -28 -10 -27 -9 -13 -40 -14 -40 5 -65 4
-65 23 -38 22 -37 25 -6 25 -7 23 13 23 12 11 -6 10 -7 32 -102 31 -102 26
-42 26 -41 130 -4 131 -3 37 -18 36 -18 12 -29 12 -29 -16 -47 -16 -48 0 -32
0 -32 25 -16 24 -16 65 0 65 0 24 11 24 11 21 37 21 38 7 54 6 54 -11 43 -12
43 -5 14 -5 13 35 12 36 11 73 -11 73 -11 55 -14 54 -15 29 0 28 0 -7 23 -7
22 -9 105 -8 105 -5 28 -6 28 -14 15 -15 14 -31 0 -31 0 -20 -11 -20 -10 -18
6 -19 6 -16 40 -16 39 0 46 0 45 15 34 14 35 17 7 17 6 51 -17 52 -18 24 4 25
3 14 29 13 28 -7 134 -7 134 -12 0 -11 0 -75 -31 -75 -32 -60 -4 -60 -5 -18
14 -17 13 16 67 17 68 -12 57 -11 58 -18 25 -19 25 -33 23 -33 22 -61 0 -62 0
-22 -16z"/>
</g>
</svg>
