<?xml version="1.0" standalone="no"?>
<!DOCTYPE svg PUBLIC "-//W3C//DTD SVG 20010904//EN"
 "http://www.w3.org/TR/2001/REC-SVG-20010904/DTD/svg10.dtd">
<svg version="1.0" xmlns="http://www.w3.org/2000/svg"
 width="122.000000pt" height="145.000000pt" viewBox="0 0 122.000000 145.000000"
 preserveAspectRatio="xMidYMid meet">
<metadata>
Created by potrace 1.16, written by Peter Selinger 2001-2019
</metadata>
<g transform="translate(0.000000,145.000000) scale(0.100000,-0.100000)"
fill="#000000" stroke="none">
<path d="M662 1434 l-22 -15 0 -33 0 -32 15 -52 16 -51 -7 -25 -6 -25 -22 -14
-21 -14 -35 -9 -35 -8 -125 0 -125 -1 -5 -125 -5 -125 -9 -15 -9 -15 -20 -22
-20 -23 -49 0 -49 0 -31 16 -31 16 -23 -11 -23 -10 -12 -43 -11 -43 5 -50 5
-51 22 -36 21 -37 20 -6 20 -7 19 17 18 17 21 -11 20 -11 32 -103 31 -102 26
-42 26 -41 130 -4 131 -3 37 -18 36 -18 13 -31 12 -31 -13 -46 -13 -46 -5 -29
-5 -29 24 -18 24 -19 57 0 57 0 24 11 24 11 21 37 20 36 7 47 7 46 -16 55 -16
55 0 10 0 10 36 12 36 12 56 -7 57 -6 83 -20 84 -19 14 0 15 0 -11 19 -10 20
0 58 -1 58 -8 67 -9 67 -15 16 -16 15 -20 0 -20 0 -25 -11 -25 -12 -24 7 -25
6 -16 40 -16 40 0 58 0 57 18 35 17 35 28 3 28 3 49 -17 48 -17 16 6 16 6 11
28 11 28 -7 123 -7 123 -12 -5 -11 -4 -65 -28 -65 -27 -70 -4 -70 -5 -19 15
-20 15 18 72 17 72 -11 54 -11 54 -26 30 -25 31 -29 14 -28 15 -48 0 -49 0
-22 -16z"/>
</g>
</svg>
