<?xml version="1.0" standalone="no"?>
<!DOCTYPE svg PUBLIC "-//W3C//DTD SVG 20010904//EN"
 "http://www.w3.org/TR/2001/REC-SVG-20010904/DTD/svg10.dtd">
<svg version="1.0" xmlns="http://www.w3.org/2000/svg"
 width="92.000000pt" height="112.000000pt" viewBox="0 0 92.000000 112.000000"
 preserveAspectRatio="xMidYMid meet">
<metadata>
Created by potrace 1.16, written by Peter Selinger 2001-2019
</metadata>
<g transform="translate(0.000000,112.000000) scale(0.100000,-0.100000)"
fill="#000000" stroke="none">
<path d="M2 988 l4 -133 19 -32 19 -32 28 -12 28 -11 49 16 50 16 28 0 28 0
11 -8 11 -7 12 -22 11 -22 0 -43 0 -43 -20 -32 -19 -32 -38 -19 -38 -20 -32
-7 -32 -6 -30 17 -29 17 -15 -6 -16 -6 -10 -38 -10 -38 -3 -120 -3 -120 136 0
137 0 21 -19 21 -19 0 -28 0 -27 -17 -30 -17 -30 12 -27 12 -26 47 -21 46 -20
72 4 71 5 27 18 27 17 7 26 6 25 -16 43 -15 42 18 17 18 16 63 9 64 9 83 3 84
3 -6 50 -7 50 -8 100 -9 100 -11 29 -11 28 -43 -6 -42 -6 -38 -6 -38 -6 -28
11 -28 12 -16 35 -17 35 0 52 0 53 16 22 15 22 26 0 25 0 60 -16 61 -15 30 12
30 13 17 40 18 41 7 61 7 62 -7 56 -7 56 -455 0 -455 0 4 -132z"/>
</g>
</svg>
