<?xml version="1.0" standalone="no"?>
<!DOCTYPE svg PUBLIC "-//W3C//DTD SVG 20010904//EN"
 "http://www.w3.org/TR/2001/REC-SVG-20010904/DTD/svg10.dtd">
<svg version="1.0" xmlns="http://www.w3.org/2000/svg"
 width="121.000000pt" height="116.000000pt" viewBox="0 0 121.000000 116.000000"
 preserveAspectRatio="xMidYMid meet">
<metadata>
Created by potrace 1.16, written by Peter Selinger 2001-2019
</metadata>
<g transform="translate(0.000000,116.000000) scale(0.100000,-0.100000)"
fill="#000000" stroke="none">
<path d="M49 1153 l-36 -4 -6 -159 -7 -159 10 -25 10 -26 12 0 13 0 49 15 49
15 24 0 23 0 20 -20 20 -20 0 -72 0 -73 -13 -24 -12 -24 -17 -11 -17 -10 -55
17 -56 18 -19 -11 -20 -10 -5 -33 -5 -32 -4 -125 -3 -125 114 4 113 3 44 -12
44 -12 22 -24 22 -24 -18 -53 -18 -54 6 -25 7 -25 33 -17 33 -18 86 3 86 4 26
24 26 24 0 52 0 52 -11 32 -12 33 17 16 17 17 144 3 144 4 6 41 6 42 8 116 9
116 17 26 17 27 13 0 13 0 36 -15 37 -16 40 11 40 11 19 32 20 32 0 28 0 28
-14 33 -14 33 -26 20 -26 21 -36 7 -36 6 -54 -17 -55 -17 -12 12 -12 12 3 145
2 144 -14 0 -14 0 -37 -16 -37 -15 -111 -25 -112 -24 -19 -20 -19 -19 16 -43
17 -44 0 -16 0 -16 -22 -14 -23 -15 -43 -7 -42 -6 -34 14 -33 14 -22 44 -21
44 0 19 0 19 16 64 16 64 -13 9 -14 9 -140 -2 -140 -1 -36 -4z"/>
</g>
</svg>
