<?xml version="1.0" standalone="no"?>
<!DOCTYPE svg PUBLIC "-//W3C//DTD SVG 20010904//EN"
 "http://www.w3.org/TR/2001/REC-SVG-20010904/DTD/svg10.dtd">
<svg version="1.0" xmlns="http://www.w3.org/2000/svg"
 width="119.000000pt" height="114.000000pt" viewBox="0 0 119.000000 114.000000"
 preserveAspectRatio="xMidYMid meet">
<metadata>
Created by potrace 1.16, written by Peter Selinger 2001-2019
</metadata>
<g transform="translate(0.000000,114.000000) scale(0.100000,-0.100000)"
fill="#000000" stroke="none">
<path d="M48 1133 l-38 -4 -2 -107 -3 -107 0 -57 0 -57 10 -10 10 -10 49 14
49 15 34 0 33 0 21 -21 21 -21 -4 -93 -3 -93 -19 -21 -19 -21 -27 0 -27 0 -40
14 -39 14 -17 -9 -16 -10 -5 -32 -6 -32 -2 -115 -3 -115 115 3 115 3 40 -11
40 -12 23 -21 22 -20 0 -23 0 -22 -16 -37 -15 -38 5 -22 6 -22 33 -17 33 -18
76 3 77 4 25 24 26 24 0 39 0 38 -12 45 -12 45 17 18 18 17 144 3 144 4 6 41
6 42 8 116 9 116 17 26 17 27 23 0 23 0 33 -14 34 -14 35 12 34 11 19 33 19
32 -6 35 -7 34 -25 31 -25 30 -39 10 -39 10 -43 -15 -43 -15 -23 0 -22 0 -11
28 -11 27 7 128 6 127 -4 0 -5 0 -37 -16 -37 -15 -111 -25 -111 -24 -17 -16
-18 -16 14 -35 15 -35 0 -28 0 -28 -23 -15 -22 -15 -51 -6 -51 -7 -35 14 -35
15 -22 44 -21 44 0 30 0 30 14 54 14 55 -11 7 -12 8 -130 -2 -130 -1 -37 -4z"/>
</g>
</svg>
