<?xml version="1.0" standalone="no"?>
<!DOCTYPE svg PUBLIC "-//W3C//DTD SVG 20010904//EN"
 "http://www.w3.org/TR/2001/REC-SVG-20010904/DTD/svg10.dtd">
<svg version="1.0" xmlns="http://www.w3.org/2000/svg"
 width="115.000000pt" height="119.000000pt" viewBox="0 0 115.000000 119.000000"
 preserveAspectRatio="xMidYMid meet">
<metadata>
Created by potrace 1.16, written by Peter Selinger 2001-2019
</metadata>
<g transform="translate(0.000000,119.000000) scale(0.100000,-0.100000)"
fill="#000000" stroke="none">
<path d="M783 1180 l-23 -9 0 -26 0 -26 16 -24 15 -23 -11 -63 -12 -63 -18
-35 -18 -36 -21 -19 -20 -19 -27 17 -26 18 -14 33 -14 34 0 34 0 34 15 44 16
43 -5 13 -5 13 -113 -1 -113 -1 -90 -7 -90 -6 -2 -85 -1 -85 -6 -37 -6 -38
-17 -35 -16 -34 -33 -16 -32 -15 -15 0 -16 0 -15 16 -16 15 -18 -3 -17 -3 -9
-52 -9 -51 8 -48 7 -47 38 -39 39 -38 51 0 50 0 20 12 20 12 11 -11 11 -11 5
-38 5 -39 -21 -100 -20 -99 12 -8 12 -8 155 6 155 5 13 -9 13 -9 -11 -27 -10
-27 0 -49 0 -49 24 -28 24 -28 84 -3 83 -3 25 13 25 14 3 23 4 23 -11 11 -11
11 0 8 0 7 28 14 27 14 70 13 70 13 62 19 63 19 9 17 9 18 -9 82 -9 82 -9 81
-9 80 -18 20 -17 19 -16 0 -17 0 -23 -16 -23 -16 -30 6 -31 6 -34 26 -34 26
-8 22 -9 21 9 55 8 54 19 18 18 19 37 -16 36 -15 55 0 55 0 28 24 28 24 3 136
4 135 -39 16 -38 16 -70 20 -70 19 -65 5 -65 5 -22 -10z"/>
</g>
</svg>
