<?xml version="1.0" standalone="no"?>
<!DOCTYPE svg PUBLIC "-//W3C//DTD SVG 20010904//EN"
 "http://www.w3.org/TR/2001/REC-SVG-20010904/DTD/svg10.dtd">
<svg version="1.0" xmlns="http://www.w3.org/2000/svg"
 width="113.000000pt" height="117.000000pt" viewBox="0 0 113.000000 117.000000"
 preserveAspectRatio="xMidYMid meet">
<metadata>
Created by potrace 1.16, written by Peter Selinger 2001-2019
</metadata>
<g transform="translate(0.000000,117.000000) scale(0.100000,-0.100000)"
fill="#000000" stroke="none">
<path d="M783 1160 l-23 -9 0 -16 0 -16 16 -25 17 -25 -12 -70 -11 -71 -19
-36 -19 -37 -21 -19 -22 -20 -26 10 -26 9 -20 27 -20 27 -5 55 -4 55 15 45 15
44 -6 6 -5 6 -101 -1 -101 -1 -90 -7 -90 -6 -1 -87 -2 -88 -7 -36 -6 -36 -16
-34 -16 -33 -33 -16 -32 -15 -25 0 -26 0 -15 16 -16 15 -9 -6 -10 -5 -6 -53
-7 -53 11 -40 11 -40 36 -32 36 -32 43 0 44 0 6 10 6 10 25 0 24 0 10 -26 10
-25 0 -37 0 -37 -18 -87 -18 -88 10 -4 11 -4 150 6 151 5 21 -12 22 -11 -15
-35 -14 -34 0 -40 0 -40 24 -28 24 -28 86 0 85 0 18 18 18 17 -13 20 -12 20 0
15 0 14 28 14 27 14 70 13 70 13 62 19 62 19 9 15 8 14 -8 78 -9 77 -8 79 -9
79 -20 20 -21 20 -27 -18 -27 -17 -39 5 -39 5 -35 27 -35 27 -10 25 -9 25 10
61 10 61 20 20 20 20 47 -17 48 -17 42 0 42 0 28 24 28 24 3 126 4 125 -39 16
-38 16 -68 19 -69 19 -56 5 -57 6 -22 -10z"/>
</g>
</svg>
