<?xml version="1.0" standalone="no"?>
<!DOCTYPE svg PUBLIC "-//W3C//DTD SVG 20010904//EN"
 "http://www.w3.org/TR/2001/REC-SVG-20010904/DTD/svg10.dtd">
<svg version="1.0" xmlns="http://www.w3.org/2000/svg"
 width="116.000000pt" height="111.000000pt" viewBox="0 0 116.000000 111.000000"
 preserveAspectRatio="xMidYMid meet">
<metadata>
Created by potrace 1.16, written by Peter Selinger 2001-2019
</metadata>
<g transform="translate(0.000000,111.000000) scale(0.100000,-0.100000)"
fill="#000000" stroke="none">
<path d="M11 949 l-13 -160 5 -5 5 -5 46 15 47 16 25 0 26 0 35 -17 35 -16 14
-33 14 -33 0 -45 0 -45 -10 -26 -10 -27 -13 -12 -12 -12 -16 -6 -17 -6 -27 14
-27 14 -24 0 -24 0 -14 -23 -15 -22 -6 -85 -6 -85 -5 -63 -5 -63 139 7 138 7
37 -12 37 -13 -15 -21 -15 -21 0 -29 0 -28 14 -33 14 -33 27 -21 28 -22 56 0
57 0 29 30 28 30 5 52 4 53 -15 43 -15 42 18 10 19 10 45 0 45 0 100 -21 100
-22 17 7 16 6 -5 23 -6 22 -20 80 -21 80 0 43 0 43 18 18 17 19 61 -16 62 -16
38 9 37 10 21 28 21 28 0 62 0 62 -15 30 -15 29 -27 16 -27 15 -35 -19 -35
-19 -15 6 -15 6 -18 28 -18 27 0 129 0 129 -27 -6 -27 -5 -113 -11 -113 -11
-33 -10 -32 -11 -6 -24 -6 -24 16 -25 16 -24 0 -13 -1 -13 -17 -20 -17 -21
-37 -17 -36 -17 -25 0 -24 0 -34 11 -34 12 -12 14 -12 15 16 16 15 16 -5 50
-4 50 -27 22 -26 23 -38 10 -37 11 -116 0 -115 0 -13 -161z"/>
</g>
</svg>
