<?xml version="1.0" standalone="no"?>
<!DOCTYPE svg PUBLIC "-//W3C//DTD SVG 20010904//EN"
 "http://www.w3.org/TR/2001/REC-SVG-20010904/DTD/svg10.dtd">
<svg version="1.0" xmlns="http://www.w3.org/2000/svg"
 width="114.000000pt" height="109.000000pt" viewBox="0 0 114.000000 109.000000"
 preserveAspectRatio="xMidYMid meet">
<metadata>
Created by potrace 1.16, written by Peter Selinger 2001-2019
</metadata>
<g transform="translate(0.000000,109.000000) scale(0.100000,-0.100000)"
fill="#000000" stroke="none">
<path d="M16 994 l-7 -97 -6 -58 -6 -58 39 14 39 14 38 1 39 0 35 -17 35 -16
14 -33 14 -33 0 -55 0 -55 -10 -26 -10 -27 -13 -12 -13 -13 -22 -7 -22 -7 -32
15 -31 16 -13 0 -14 0 -15 -23 -15 -23 -5 -95 -6 -94 -4 -42 -5 -43 138 7 138
6 37 -12 37 -13 0 -9 0 -10 -16 -24 -16 -25 7 -37 7 -37 33 -33 33 -33 49 0
49 0 28 29 28 29 5 41 6 40 -18 53 -17 52 18 13 18 13 58 0 58 0 96 -21 96
-21 10 10 10 10 -10 18 -10 19 -16 72 -16 72 0 51 0 51 20 21 19 21 62 -17 62
-18 33 6 33 7 20 25 20 26 7 35 7 36 -14 45 -14 45 -27 20 -27 20 -26 -17 -26
-17 -26 3 -26 3 -21 28 -21 28 0 130 0 129 -15 -5 -15 -4 -115 -11 -115 -11
-32 -10 -31 -10 -6 -16 -6 -16 15 -23 15 -23 0 -23 -1 -23 -17 -20 -17 -21
-37 -17 -36 -17 -32 0 -33 0 -39 12 -40 12 -10 22 -11 23 18 17 17 18 -5 40
-6 41 -25 22 -26 22 -38 10 -37 11 -106 0 -106 0 -7 -96z"/>
</g>
</svg>
