<?xml version="1.0" standalone="no"?>
<!DOCTYPE svg PUBLIC "-//W3C//DTD SVG 20010904//EN"
 "http://www.w3.org/TR/2001/REC-SVG-20010904/DTD/svg10.dtd">
<svg version="1.0" xmlns="http://www.w3.org/2000/svg"
 width="120.000000pt" height="100.000000pt" viewBox="0 0 120.000000 100.000000"
 preserveAspectRatio="xMidYMid meet">
<metadata>
Created by potrace 1.16, written by Peter Selinger 2001-2019
</metadata>
<g transform="translate(0.000000,100.000000) scale(0.100000,-0.100000)"
fill="#000000" stroke="none">
<path d="M572 993 l-23 -5 -6 -15 -6 -16 12 -63 13 -63 1 -34 1 -34 -13 -30
-12 -30 -25 -12 -25 -11 -38 0 -38 0 -28 21 -27 22 5 36 4 36 14 48 13 47 -21
21 -21 22 -54 8 -53 9 -117 -7 -118 -6 -6 -35 -7 -35 6 -79 6 -79 13 -41 12
-40 29 -29 29 -29 58 0 58 0 5 13 5 12 18 -18 19 -17 0 -60 0 -60 -30 -26 -30
-25 -20 4 -20 4 -48 14 -47 13 -16 -16 -16 -16 -8 -83 -9 -84 -4 -90 -4 -90
173 -3 173 -3 21 11 20 11 0 24 0 24 -17 36 -17 35 10 27 9 26 38 20 37 19 27
-7 27 -6 33 -35 32 -35 7 -33 6 -34 -11 -20 -11 -21 0 -31 0 -30 28 -11 27
-11 80 5 80 5 83 22 82 22 0 7 0 6 14 132 15 132 11 20 11 21 8 0 8 0 31 -16
31 -15 38 10 38 10 17 20 16 19 11 21 11 20 0 73 0 74 -16 23 -16 23 -42 -6
-41 -5 -37 -7 -37 -6 -29 29 -29 29 -12 52 -11 53 0 78 0 79 -12 10 -13 10
-65 15 -65 16 -59 10 -60 11 -30 -1 -31 -2 -23 -4z"/>
</g>
</svg>
