<?xml version="1.0" standalone="no"?>
<!DOCTYPE svg PUBLIC "-//W3C//DTD SVG 20010904//EN"
 "http://www.w3.org/TR/2001/REC-SVG-20010904/DTD/svg10.dtd">
<svg version="1.0" xmlns="http://www.w3.org/2000/svg"
 width="139.000000pt" height="124.000000pt" viewBox="0 0 139.000000 124.000000"
 preserveAspectRatio="xMidYMid meet">
<metadata>
Created by potrace 1.16, written by Peter Selinger 2001-2019
</metadata>
<g transform="translate(0.000000,124.000000) scale(0.100000,-0.100000)"
fill="#000000" stroke="none">
<path d="M637 1229 l-19 -11 -14 -34 -14 -33 0 -58 1 -58 14 -40 15 -40 0 -9
0 -9 -192 4 -193 4 -5 -140 -5 -140 -12 -21 -12 -21 -29 -12 -28 -12 -40 10
-39 10 -21 6 -22 7 -12 -37 -12 -37 5 -45 5 -44 18 -20 19 -21 50 5 50 5 31 7
30 7 12 -27 12 -26 0 -162 0 -162 128 1 127 0 35 8 35 9 21 14 22 14 6 25 7
25 -16 51 -15 52 0 32 0 33 22 15 22 16 49 0 48 0 28 -15 29 -14 25 -31 26
-30 11 -54 11 -54 -17 -72 -18 -72 19 -14 19 -14 53 0 54 0 62 21 62 21 35 19
35 20 -3 131 -3 132 5 22 6 23 16 15 15 16 29 -15 29 -15 33 0 34 0 22 16 22
15 15 29 15 29 0 49 0 49 -21 27 -20 26 -17 0 -17 -1 -19 -14 -20 -15 -36 0
-37 0 -24 26 -24 26 -3 147 -3 148 -55 27 -55 27 -117 30 -117 31 -22 14 -23
14 0 18 0 18 15 20 14 19 1 17 0 17 -26 20 -27 21 -41 0 -41 -1 -18 -10z"/>
</g>
</svg>
