<?xml version="1.0" standalone="no"?>
<!DOCTYPE svg PUBLIC "-//W3C//DTD SVG 20010904//EN"
 "http://www.w3.org/TR/2001/REC-SVG-20010904/DTD/svg10.dtd">
<svg version="1.0" xmlns="http://www.w3.org/2000/svg"
 width="118.000000pt" height="115.000000pt" viewBox="0 0 118.000000 115.000000"
 preserveAspectRatio="xMidYMid meet">
<metadata>
Created by potrace 1.16, written by Peter Selinger 2001-2019
</metadata>
<g transform="translate(0.000000,115.000000) scale(0.100000,-0.100000)"
fill="#000000" stroke="none">
<path d="M588 1140 l-18 -11 0 -20 0 -20 16 -25 17 -25 -7 -44 -6 -45 -16 -33
-16 -32 -36 -32 -36 -33 -45 0 -46 0 -32 20 -32 19 -6 24 -6 24 15 38 16 37 0
25 0 24 -10 19 -10 18 -42 16 -43 15 -60 3 -60 2 -63 -2 -63 -2 3 -159 3 -159
24 -26 24 -26 47 0 46 0 23 17 24 16 24 -27 23 -27 0 -40 0 -40 -15 -29 -15
-29 -22 -15 -22 -16 -24 0 -23 0 -30 16 -30 15 -18 -6 -19 -6 -11 -27 -12 -28
3 -144 3 -145 167 3 167 4 -9 -34 -10 -33 0 -47 0 -46 6 -17 6 -16 29 -14 28
-15 61 0 62 0 30 32 30 32 -5 71 -5 70 -7 27 -7 28 28 10 28 11 71 -12 70 -11
88 -29 89 -29 4 0 4 0 0 26 0 25 10 20 11 19 24 112 25 113 23 17 22 17 23
-15 23 -15 22 3 21 3 19 33 19 32 5 58 5 57 -11 43 -12 42 -22 0 -22 0 -40
-14 -40 -15 -25 6 -25 6 -27 29 -28 29 -7 27 -8 27 0 108 0 108 -65 20 -65 21
-90 4 -90 5 -17 -11z"/>
</g>
</svg>
