<?xml version="1.0" standalone="no"?>
<!DOCTYPE svg PUBLIC "-//W3C//DTD SVG 20010904//EN"
 "http://www.w3.org/TR/2001/REC-SVG-20010904/DTD/svg10.dtd">
<svg version="1.0" xmlns="http://www.w3.org/2000/svg"
 width="116.000000pt" height="113.000000pt" viewBox="0 0 116.000000 113.000000"
 preserveAspectRatio="xMidYMid meet">
<metadata>
Created by potrace 1.16, written by Peter Selinger 2001-2019
</metadata>
<g transform="translate(0.000000,113.000000) scale(0.100000,-0.100000)"
fill="#000000" stroke="none">
<path d="M585 1117 l-20 -16 19 -31 19 -32 -6 -53 -5 -53 -17 -33 -17 -34 -36
-32 -36 -33 -55 0 -56 0 -32 20 -32 19 -7 27 -7 27 18 52 17 52 -7 23 -7 22
-41 18 -42 18 -55 3 -55 2 -63 -1 -63 -2 3 -149 3 -149 24 -26 24 -26 37 0 36
0 20 15 19 14 17 1 17 0 20 -26 21 -27 0 -49 0 -49 -15 -29 -15 -29 -22 -15
-22 -16 -34 0 -33 0 -29 15 -29 15 -15 -16 -16 -15 -5 -22 -6 -22 3 -130 3
-130 172 4 171 3 -13 -38 -14 -39 -1 -42 0 -41 6 -17 6 -16 29 -14 28 -15 51
0 52 0 29 31 29 31 0 48 0 47 -15 43 -15 43 11 13 10 13 30 6 30 7 70 -12 71
-12 76 -24 76 -23 8 12 7 11 20 66 20 65 16 77 16 76 26 18 26 17 35 -19 34
-18 19 23 19 23 10 36 10 37 0 30 0 30 -11 38 -10 37 -12 0 -12 0 -44 -16 -44
-15 -31 7 -31 6 -27 30 -28 29 -7 27 -8 27 0 108 0 108 -65 20 -65 21 -80 5
-80 5 -20 -15z"/>
</g>
</svg>
