<?xml version="1.0" standalone="no"?>
<!DOCTYPE svg PUBLIC "-//W3C//DTD SVG 20010904//EN"
 "http://www.w3.org/TR/2001/REC-SVG-20010904/DTD/svg10.dtd">
<svg version="1.0" xmlns="http://www.w3.org/2000/svg"
 width="128.000000pt" height="137.000000pt" viewBox="0 0 128.000000 137.000000"
 preserveAspectRatio="xMidYMid meet">
<metadata>
Created by potrace 1.16, written by Peter Selinger 2001-2019
</metadata>
<g transform="translate(0.000000,137.000000) scale(0.100000,-0.100000)"
fill="#000000" stroke="none">
<path d="M443 1355 l-31 -13 -11 -21 -11 -20 0 -28 0 -28 17 -48 17 -47 -11
-11 -11 -11 -38 -9 -39 -9 -117 7 -118 6 0 -4 0 -4 -10 -120 -10 -120 7 -48 6
-47 22 -6 23 -6 20 11 20 11 71 6 70 7 29 -12 29 -12 12 -25 11 -25 0 -30 0
-31 -16 -34 -17 -35 -46 -27 -45 -26 -66 0 -65 1 -54 8 -54 8 -14 -18 -13 -19
0 -41 0 -41 15 -59 16 -60 27 -49 28 -49 153 -1 153 -1 24 -28 24 -28 0 -17 0
-17 -15 -29 -15 -28 0 -24 0 -24 27 -11 27 -10 66 -2 67 -2 18 15 18 15 14 32
13 32 0 31 0 31 -15 29 -15 29 22 13 23 13 107 -2 108 -3 62 -10 62 -10 8 13
8 12 0 80 1 80 8 73 9 72 12 14 11 15 41 -15 41 -14 32 0 32 0 29 25 29 25 0
78 0 79 -14 16 -13 17 -29 0 -29 0 0 -10 0 -10 -39 0 -39 0 -30 29 -29 30 -14
48 -14 48 0 98 0 97 -6 0 -5 0 -105 -16 -104 -16 -42 5 -42 4 -16 17 -17 17
12 29 13 30 -5 50 -5 51 -24 25 -24 26 -27 14 -27 14 -63 0 -63 -1 -32 -14z"/>
</g>
</svg>
