<?xml version="1.0" standalone="no"?>
<!DOCTYPE svg PUBLIC "-//W3C//DTD SVG 20010904//EN"
 "http://www.w3.org/TR/2001/REC-SVG-20010904/DTD/svg10.dtd">
<svg version="1.0" xmlns="http://www.w3.org/2000/svg"
 width="126.000000pt" height="135.000000pt" viewBox="0 0 126.000000 135.000000"
 preserveAspectRatio="xMidYMid meet">
<metadata>
Created by potrace 1.16, written by Peter Selinger 2001-2019
</metadata>
<g transform="translate(0.000000,135.000000) scale(0.100000,-0.100000)"
fill="#000000" stroke="none">
<path d="M440 1332 l-35 -17 -10 -28 -9 -28 17 -48 17 -49 0 -20 0 -21 -22
-13 -23 -13 -142 2 -143 2 -1 -7 0 -7 -9 -110 -8 -110 5 -42 6 -42 14 -5 14
-6 20 10 19 11 79 6 80 6 29 -12 29 -12 12 -25 11 -25 0 -40 0 -41 -16 -34
-17 -35 -46 -27 -46 -27 -75 1 -75 1 -47 8 -47 8 -13 -27 -12 -27 12 -67 11
-67 33 -63 33 -63 153 -2 154 -2 24 -28 24 -28 0 -27 0 -27 -15 -29 -15 -28 0
-14 0 -14 26 -10 26 -10 61 -2 60 -2 23 27 23 27 7 36 6 35 -17 40 -18 40 10
10 11 11 42 9 43 10 135 -11 135 -11 7 -4 8 -5 6 16 6 16 0 76 1 77 8 74 9 73
15 15 15 15 48 -16 48 -16 21 0 22 0 29 25 29 25 0 68 0 69 -14 16 -13 17 -19
0 -19 0 0 -10 0 -10 -49 0 -49 0 -30 29 -29 30 -14 48 -14 48 0 98 0 98 -20
-5 -20 -5 -89 -12 -89 -11 -43 5 -43 4 -17 17 -16 17 7 27 8 27 1 52 1 51 -25
27 -25 27 -27 14 -27 14 -53 0 -53 0 -35 -18z"/>
</g>
</svg>
