<?xml version="1.0" standalone="no"?>
<!DOCTYPE svg PUBLIC "-//W3C//DTD SVG 20010904//EN"
 "http://www.w3.org/TR/2001/REC-SVG-20010904/DTD/svg10.dtd">
<svg version="1.0" xmlns="http://www.w3.org/2000/svg"
 width="151.000000pt" height="117.000000pt" viewBox="0 0 151.000000 117.000000"
 preserveAspectRatio="xMidYMid meet">
<metadata>
Created by potrace 1.16, written by Peter Selinger 2001-2019
</metadata>
<g transform="translate(0.000000,117.000000) scale(0.100000,-0.100000)"
fill="#000000" stroke="none">
<path d="M663 1150 l-43 -19 -11 -25 -11 -24 16 -23 16 -23 0 -26 0 -26 -32
-19 -33 -20 -132 2 -131 1 -4 -125 -3 -125 -28 -24 -28 -24 -42 0 -42 0 -48
17 -47 17 -20 -20 -20 -20 -10 -61 -10 -61 9 -25 10 -25 35 -27 35 -27 39 -5
39 -5 27 17 26 17 16 -13 16 -13 8 -21 8 -21 12 -135 13 -134 0 -11 0 -12 126
-7 126 -7 30 8 30 7 13 10 12 9 0 27 0 26 -15 50 -16 50 5 21 6 21 25 11 26
12 59 0 59 0 21 -29 20 -30 16 -64 16 -65 -16 -33 -16 -32 0 -23 0 -22 35 -12
35 -12 72 12 73 11 86 25 86 26 -34 67 -34 66 -11 67 -12 67 12 27 13 27 47
-8 47 -8 75 -1 75 -1 46 27 46 27 17 35 16 34 0 41 0 40 -11 25 -12 25 -29 12
-29 12 -80 -6 -79 -6 -19 -11 -20 -10 -14 6 -14 5 -7 45 -6 44 5 43 4 42 6 72
5 71 -165 4 -164 3 -22 22 -22 22 18 40 17 40 -6 26 -7 26 -32 19 -32 20 -45
0 -45 0 -42 -20z"/>
</g>
</svg>
