<?xml version="1.0" standalone="no"?>
<!DOCTYPE svg PUBLIC "-//W3C//DTD SVG 20010904//EN"
 "http://www.w3.org/TR/2001/REC-SVG-20010904/DTD/svg10.dtd">
<svg version="1.0" xmlns="http://www.w3.org/2000/svg"
 width="99.000000pt" height="136.000000pt" viewBox="0 0 99.000000 136.000000"
 preserveAspectRatio="xMidYMid meet">
<metadata>
Created by potrace 1.16, written by Peter Selinger 2001-2019
</metadata>
<g transform="translate(0.000000,136.000000) scale(0.100000,-0.100000)"
fill="#000000" stroke="none">
<path d="M436 1350 l-28 -9 -18 -16 -18 -16 -6 -25 -7 -25 16 -31 15 -31 0
-18 0 -18 -22 -13 -23 -13 -150 0 -150 0 -8 -75 -8 -75 4 -85 5 -85 7 -18 7
-17 23 -6 22 -6 54 16 53 16 28 0 28 0 20 -20 20 -20 0 -40 0 -41 -14 -27 -14
-28 -26 -13 -25 -14 -48 7 -48 7 -47 6 -46 5 -16 -30 -16 -31 0 -48 1 -48 14
-80 15 -80 0 -28 0 -28 162 3 163 3 23 -13 23 -13 -15 -24 -16 -24 0 -42 0
-42 21 -34 21 -33 31 -16 30 -16 49 4 49 5 26 24 26 24 18 40 19 40 0 29 0 29
-15 17 -16 17 17 14 17 14 154 -2 153 -3 0 21 0 22 -19 31 -20 31 -31 110 -31
110 -22 18 -21 19 -26 -5 -25 -6 -20 -3 -19 -3 -14 40 -14 40 5 53 4 53 16 16
17 17 53 -17 54 -17 31 0 30 0 17 6 16 6 16 32 17 31 -2 134 -1 134 -9 9 -8 8
-81 -20 -81 -21 -68 3 -67 3 -10 16 -10 17 17 36 17 37 -6 30 -7 30 -30 34
-30 35 -36 10 -37 10 -35 -1 -35 -1 -29 -8z"/>
</g>
</svg>
