<?xml version="1.0" standalone="no"?>
<!DOCTYPE svg PUBLIC "-//W3C//DTD SVG 20010904//EN"
 "http://www.w3.org/TR/2001/REC-SVG-20010904/DTD/svg10.dtd">
<svg version="1.0" xmlns="http://www.w3.org/2000/svg"
 width="97.000000pt" height="134.000000pt" viewBox="0 0 97.000000 134.000000"
 preserveAspectRatio="xMidYMid meet">
<metadata>
Created by potrace 1.16, written by Peter Selinger 2001-2019
</metadata>
<g transform="translate(0.000000,134.000000) scale(0.100000,-0.100000)"
fill="#000000" stroke="none">
<path d="M436 1330 l-28 -9 -18 -16 -18 -16 -5 -19 -5 -19 14 -27 14 -26 0
-29 0 -28 -22 -13 -23 -13 -150 0 -150 0 -8 -75 -8 -75 4 -75 5 -75 7 -17 7
-17 16 -5 17 -6 49 15 49 15 39 0 38 0 20 -20 20 -20 0 -50 0 -51 -14 -27 -14
-28 -26 -13 -25 -14 -58 7 -58 7 -37 5 -36 6 -16 -30 -16 -31 0 -34 0 -34 16
-89 16 -89 1 -24 2 -24 135 7 135 6 39 -9 38 -9 12 -12 11 -11 -18 -30 -17
-31 0 -30 0 -31 21 -34 21 -33 31 -16 30 -16 41 5 41 6 32 35 32 34 12 40 12
40 -7 14 -6 13 -12 17 -13 18 18 17 18 18 154 -2 155 -2 0 9 0 9 -23 44 -24
44 -28 102 -28 102 -25 17 -24 16 -30 -17 -30 -17 -14 11 -14 11 -10 37 -10
36 0 50 0 50 13 25 13 25 34 -1 35 -1 46 -13 45 -13 27 7 27 6 16 33 17 32 -1
123 -2 123 -4 8 -5 8 -68 -18 -68 -18 -81 0 -80 -1 -12 12 -12 12 0 21 0 22
15 30 15 31 -10 28 -11 29 -27 28 -26 27 -35 10 -36 10 -25 -1 -25 -1 -29 -8z"/>
</g>
</svg>
