<?xml version="1.0" standalone="no"?>
<!DOCTYPE svg PUBLIC "-//W3C//DTD SVG 20010904//EN"
 "http://www.w3.org/TR/2001/REC-SVG-20010904/DTD/svg10.dtd">
<svg version="1.0" xmlns="http://www.w3.org/2000/svg"
 width="126.000000pt" height="115.000000pt" viewBox="0 0 126.000000 115.000000"
 preserveAspectRatio="xMidYMid meet">
<metadata>
Created by potrace 1.16, written by Peter Selinger 2001-2019
</metadata>
<g transform="translate(0.000000,115.000000) scale(0.100000,-0.100000)"
fill="#000000" stroke="none">
<path d="M298 1143 l-1 -8 -1 -155 -1 -155 -9 -18 -8 -17 -23 -6 -22 -5 -43
11 -43 12 -55 1 -54 1 -19 -23 -19 -23 0 -35 0 -35 29 -29 29 -29 27 0 26 0
31 16 30 16 22 -6 23 -6 11 -24 11 -25 16 -123 16 -123 8 -32 9 -32 -11 -4
-12 -4 5 -6 6 -6 114 9 115 10 69 0 68 0 -7 -22 -6 -23 -6 -72 -6 -73 13 -30
13 -31 25 -19 25 -20 44 0 44 0 28 15 28 14 17 35 16 34 0 39 0 39 -15 52 -16
52 6 10 6 9 34 10 34 9 78 -9 78 -10 57 -13 57 -13 17 35 16 34 19 92 19 91 0
32 0 32 -12 26 -12 27 -40 -6 -41 -6 -68 -6 -67 -7 -45 17 -45 18 -15 21 -15
21 0 32 0 31 11 32 11 31 19 11 19 10 29 -16 30 -15 49 0 49 0 27 21 27 22 11
26 11 26 6 123 6 122 -452 0 -453 0 -2 -7z"/>
</g>
</svg>
