<?xml version="1.0" standalone="no"?>
<!DOCTYPE svg PUBLIC "-//W3C//DTD SVG 20010904//EN"
 "http://www.w3.org/TR/2001/REC-SVG-20010904/DTD/svg10.dtd">
<svg version="1.0" xmlns="http://www.w3.org/2000/svg"
 width="148.000000pt" height="136.000000pt" viewBox="0 0 148.000000 136.000000"
 preserveAspectRatio="xMidYMid meet">
<metadata>
Created by potrace 1.16, written by Peter Selinger 2001-2019
</metadata>
<g transform="translate(0.000000,136.000000) scale(0.100000,-0.100000)"
fill="#000000" stroke="none">
<path d="M592 1348 l-22 -11 -6 -21 -5 -21 16 -50 15 -50 0 -26 0 -27 -17 -13
-16 -14 -152 2 -151 3 7 -68 7 -67 4 -105 3 -105 -15 4 -15 4 -70 4 -70 4 -34
-18 -35 -18 -20 -27 -20 -28 10 -27 9 -28 45 -23 45 -23 60 4 60 5 29 7 29 8
14 -18 13 -19 0 -50 0 -51 -20 -95 -20 -95 -6 -25 -6 -25 119 3 118 3 37 -11
38 -11 10 -20 11 -20 -16 -43 -17 -43 4 -28 3 -28 28 -21 28 -20 69 -4 69 -4
34 21 35 21 16 34 16 34 0 19 0 18 -15 29 -15 28 0 14 0 13 23 13 22 13 156
-3 156 -2 21 72 21 73 11 65 12 64 14 28 15 28 18 0 19 0 13 -16 13 -16 30 6
30 6 38 41 38 41 0 51 0 52 -18 35 -17 35 -35 18 -35 18 -80 -5 -80 -6 -27 -6
-28 -6 0 48 0 49 10 90 9 89 -4 5 -5 4 -87 -26 -88 -26 -73 -11 -72 -12 -35
12 -35 12 0 22 0 23 16 32 16 33 -16 65 -16 64 -20 30 -21 29 -62 -1 -62 0
-23 -11z"/>
</g>
</svg>
