<?xml version="1.0" standalone="no"?>
<!DOCTYPE svg PUBLIC "-//W3C//DTD SVG 20010904//EN"
 "http://www.w3.org/TR/2001/REC-SVG-20010904/DTD/svg10.dtd">
<svg version="1.0" xmlns="http://www.w3.org/2000/svg"
 width="117.000000pt" height="112.000000pt" viewBox="0 0 117.000000 112.000000"
 preserveAspectRatio="xMidYMid meet">
<metadata>
Created by potrace 1.16, written by Peter Selinger 2001-2019
</metadata>
<g transform="translate(0.000000,112.000000) scale(0.100000,-0.100000)"
fill="#000000" stroke="none">
<path d="M322 1113 l-73 -4 7 -92 6 -92 -11 -60 -11 -60 -26 -23 -27 -24 -21
5 -21 5 -31 13 -30 12 -28 -7 -27 -7 -15 -34 -14 -34 0 -36 0 -36 16 -30 15
-31 34 -14 34 -14 48 0 48 0 51 14 51 13 17 -9 16 -9 0 -52 0 -52 -14 -50 -14
-50 -21 -53 -21 -53 0 -13 0 -14 133 -4 132 -3 35 -21 35 -20 15 -27 15 -27
-17 -31 -18 -31 0 -18 0 -19 19 -11 20 -10 60 0 59 0 30 30 30 29 16 48 16 47
0 47 0 48 -10 6 -10 6 0 10 0 9 26 10 25 10 77 -16 77 -16 61 -24 61 -24 12 0
13 0 -4 153 -3 154 -14 17 -15 18 -35 -6 -36 -5 -35 -6 -35 -7 -20 22 -20 22
-3 83 -4 83 17 36 17 36 12 0 11 -1 25 -14 25 -14 47 -1 47 0 11 19 10 20 0
139 0 140 -125 7 -126 7 -41 -6 -42 -7 -13 -11 -13 -10 0 -21 0 -20 16 -18 16
-18 -12 -36 -12 -37 -30 -34 -30 -33 -33 -7 -33 -6 -30 16 -30 16 -21 33 -21
34 0 24 1 24 14 19 15 20 0 23 0 22 -22 12 -22 12 -91 2 -90 2 -73 -4z"/>
</g>
</svg>
