<?xml version="1.0" standalone="no"?>
<!DOCTYPE svg PUBLIC "-//W3C//DTD SVG 20010904//EN"
 "http://www.w3.org/TR/2001/REC-SVG-20010904/DTD/svg10.dtd">
<svg version="1.0" xmlns="http://www.w3.org/2000/svg"
 width="115.000000pt" height="110.000000pt" viewBox="0 0 115.000000 110.000000"
 preserveAspectRatio="xMidYMid meet">
<metadata>
Created by potrace 1.16, written by Peter Selinger 2001-2019
</metadata>
<g transform="translate(0.000000,110.000000) scale(0.100000,-0.100000)"
fill="#000000" stroke="none">
<path d="M323 1093 l-72 -4 5 -92 6 -92 -11 -60 -11 -60 -25 -22 -26 -23 -25
0 -25 0 -31 16 -30 16 -25 -7 -24 -6 -15 -34 -14 -34 0 -26 0 -26 16 -30 15
-31 34 -14 34 -14 37 0 36 0 59 15 59 16 20 -11 20 -11 0 -62 0 -62 -14 -50
-14 -50 -21 -53 -21 -53 0 -3 0 -4 133 -4 132 -4 32 -17 32 -17 15 -22 16 -22
0 -24 0 -24 -17 -30 -18 -29 19 -15 20 -14 52 0 52 0 30 30 30 29 16 48 16 47
0 34 0 35 -16 19 -17 18 12 14 12 15 28 6 28 6 78 -16 79 -17 46 -18 45 -17
18 -8 19 -8 -4 145 -3 145 -14 17 -15 18 -30 -7 -31 -6 -40 -5 -40 -6 -20 22
-20 22 -3 93 -4 93 17 36 17 36 22 0 21 -1 25 -14 25 -14 37 -1 37 0 11 19 10
20 0 129 0 130 -124 7 -125 7 -37 -8 -37 -9 -11 -17 -10 -17 17 -19 17 -19 0
-19 0 -19 -19 -40 -18 -40 -26 -23 -25 -24 -39 -5 -40 -5 -30 16 -31 16 -21
33 -21 34 0 31 0 30 17 31 18 30 -11 11 -12 12 -38 9 -39 9 -55 -2 -55 -2 -72
-3z"/>
</g>
</svg>
