<?xml version="1.0" standalone="no"?>
<!DOCTYPE svg PUBLIC "-//W3C//DTD SVG 20010904//EN"
 "http://www.w3.org/TR/2001/REC-SVG-20010904/DTD/svg10.dtd">
<svg version="1.0" xmlns="http://www.w3.org/2000/svg"
 width="120.000000pt" height="138.000000pt" viewBox="0 0 120.000000 138.000000"
 preserveAspectRatio="xMidYMid meet">
<metadata>
Created by potrace 1.16, written by Peter Selinger 2001-2019
</metadata>
<g transform="translate(0.000000,138.000000) scale(0.100000,-0.100000)"
fill="#000000" stroke="none">
<path d="M401 1363 l-34 -17 -14 -35 -15 -35 21 -51 21 -50 -17 -13 -18 -14
-160 7 -160 6 -14 -10 -14 -9 5 -123 5 -124 20 -45 20 -45 21 -18 21 -19 58 5
58 5 25 4 24 3 14 -29 14 -29 -12 -40 -12 -39 -25 -24 -26 -24 -23 0 -23 0 -6
10 -6 10 -44 0 -44 0 -11 -20 -11 -20 -9 -77 -9 -78 -7 -84 -6 -84 23 6 24 7
153 6 153 7 -8 -29 -8 -29 1 -43 2 -43 16 -43 17 -43 25 -24 26 -24 43 0 44 0
28 21 28 21 -1 54 -1 54 -4 20 -4 19 25 13 25 12 90 11 90 10 73 12 72 11 0
22 0 22 -22 49 -21 49 -13 50 -14 50 0 36 0 37 14 11 14 11 26 -10 27 -10 76
0 75 0 32 15 32 15 17 29 17 29 0 52 0 52 -21 29 -20 29 -61 0 -61 0 -39 -12
-40 -12 -9 15 -9 14 0 163 0 162 -10 0 -10 0 -73 -20 -72 -20 -65 -6 -65 -6
-29 11 -28 11 7 23 8 22 4 45 4 45 -19 35 -19 35 -33 23 -33 22 -36 0 -36 0
-34 -17z"/>
</g>
</svg>
