<?xml version="1.0" standalone="no"?>
<!DOCTYPE svg PUBLIC "-//W3C//DTD SVG 20010904//EN"
 "http://www.w3.org/TR/2001/REC-SVG-20010904/DTD/svg10.dtd">
<svg version="1.0" xmlns="http://www.w3.org/2000/svg"
 width="96.000000pt" height="118.000000pt" viewBox="0 0 96.000000 118.000000"
 preserveAspectRatio="xMidYMid meet">
<metadata>
Created by potrace 1.16, written by Peter Selinger 2001-2019
</metadata>
<g transform="translate(0.000000,118.000000) scale(0.100000,-0.100000)"
fill="#000000" stroke="none">
<path d="M405 1162 l-30 -19 -13 -15 -13 -16 -5 -34 -6 -33 21 -44 20 -45 -10
-18 -9 -17 -41 -11 -40 -11 -132 3 -132 3 -3 -114 -3 -113 22 -44 21 -44 21
-11 20 -11 68 4 67 5 6 -21 6 -21 0 -63 0 -63 -15 -29 -15 -29 -18 -5 -19 -6
-36 15 -36 15 -18 0 -19 0 -19 -22 -19 -23 -7 -115 -8 -115 -6 -31 -5 -32 17
-7 18 -6 153 -11 152 -10 25 6 25 6 0 23 0 23 -10 10 -11 11 -6 50 -6 51 22
45 22 45 39 16 40 16 27 -11 28 -10 22 -21 21 -20 12 -28 12 -28 -16 -30 -16
-31 0 -24 0 -24 20 -18 20 -18 127 -8 128 -8 45 -1 45 0 3 156 3 156 -12 29
-12 29 -25 7 -25 6 -34 -18 -34 -19 -47 13 -47 12 -22 15 -23 14 -16 25 -16
25 6 25 6 25 31 35 31 34 33 7 34 6 51 -17 51 -17 24 16 25 16 0 4 0 3 10 54
11 54 -7 98 -7 98 -151 -7 -151 -7 -37 16 -38 16 0 11 0 12 16 53 15 54 -11
41 -11 41 -32 19 -32 20 -40 0 -40 0 -30 -18z"/>
</g>
</svg>
