<?xml version="1.0" standalone="no"?>
<!DOCTYPE svg PUBLIC "-//W3C//DTD SVG 20010904//EN"
 "http://www.w3.org/TR/2001/REC-SVG-20010904/DTD/svg10.dtd">
<svg version="1.0" xmlns="http://www.w3.org/2000/svg"
 width="145.000000pt" height="97.000000pt" viewBox="0 0 145.000000 97.000000"
 preserveAspectRatio="xMidYMid meet">
<metadata>
Created by potrace 1.16, written by Peter Selinger 2001-2019
</metadata>
<g transform="translate(0.000000,97.000000) scale(0.100000,-0.100000)"
fill="#000000" stroke="none">
<path d="M782 960 l-22 -10 -6 -15 -6 -15 16 -47 16 -47 0 -37 0 -37 -29 -31
-29 -31 -42 0 -41 0 -29 15 -30 15 -6 27 -7 27 10 45 11 46 8 24 7 24 -189 -7
-189 -7 -1 -2 -2 -2 10 -114 10 -115 -7 -32 -6 -32 -14 -12 -14 -12 -44 17
-44 16 -39 -3 -39 -3 -17 -35 -18 -35 0 -68 0 -68 15 -36 16 -37 12 -8 12 -8
24 0 25 0 32 12 32 11 17 -17 17 -17 9 -67 8 -67 1 -61 0 -60 14 -20 14 -19
174 0 174 0 17 17 17 17 0 13 0 13 -17 66 -17 67 17 25 16 25 35 6 35 7 28 -6
28 -7 28 -10 28 -11 -10 -10 -11 -11 0 -33 0 -33 19 -19 18 -18 111 -26 111
-26 40 -21 40 -20 9 0 9 0 31 58 30 57 22 80 22 80 16 27 16 28 13 0 12 0 35
-17 35 -16 26 17 26 17 9 25 10 25 0 57 0 57 -20 32 -19 32 -30 16 -30 15 -34
0 -35 0 -36 -15 -36 -15 -19 9 -18 10 -14 33 -14 33 0 123 0 123 -80 24 -80
24 -59 10 -60 11 -30 -1 -31 0 -23 -9z"/>
</g>
</svg>
