<?xml version="1.0" standalone="no"?>
<!DOCTYPE svg PUBLIC "-//W3C//DTD SVG 20010904//EN"
 "http://www.w3.org/TR/2001/REC-SVG-20010904/DTD/svg10.dtd">
<svg version="1.0" xmlns="http://www.w3.org/2000/svg"
 width="121.000000pt" height="99.000000pt" viewBox="0 0 121.000000 99.000000"
 preserveAspectRatio="xMidYMid meet">
<metadata>
Created by potrace 1.16, written by Peter Selinger 2001-2019
</metadata>
<g transform="translate(0.000000,99.000000) scale(0.100000,-0.100000)"
fill="#000000" stroke="none">
<path d="M584 981 l-31 -8 -11 -7 -12 -7 0 -20 0 -20 16 -31 16 -31 -11 -37
-11 -37 -20 -18 -19 -17 -66 4 -65 4 -10 10 -11 11 16 29 15 29 0 37 0 37 -24
28 -24 28 -155 3 -154 3 -6 -39 -7 -39 -6 -118 -7 -118 44 7 44 6 65 6 65 5
35 -18 35 -18 17 -35 18 -35 0 -42 0 -41 -37 -40 -38 -40 -21 -6 -21 -6 -13
15 -12 15 -29 0 -29 0 -15 -32 -15 -33 -20 -95 -19 -95 -13 -42 -12 -42 6 -7
7 -6 188 -5 188 -6 14 16 13 16 -18 47 -18 46 0 50 -1 50 28 24 28 24 17 0 17
0 33 -20 33 -21 21 -46 20 -46 -6 -46 -6 -46 -6 -36 -6 -37 11 -21 12 -21 68
0 67 0 55 16 54 16 47 20 47 20 6 66 6 67 9 82 9 83 11 20 11 20 24 0 24 0 6
-10 6 -10 40 0 40 0 24 16 24 16 17 44 17 44 -6 40 -5 41 -13 15 -13 16 -38
-6 -38 -6 -40 -6 -41 -6 -21 18 -21 19 -20 45 -20 45 -5 121 -5 122 -56 5 -56
6 -100 5 -100 5 -31 -8z"/>
</g>
</svg>
