<?xml version="1.0" standalone="no"?>
<!DOCTYPE svg PUBLIC "-//W3C//DTD SVG 20010904//EN"
 "http://www.w3.org/TR/2001/REC-SVG-20010904/DTD/svg10.dtd">
<svg version="1.0" xmlns="http://www.w3.org/2000/svg"
 width="97.000000pt" height="91.000000pt" viewBox="0 0 97.000000 91.000000"
 preserveAspectRatio="xMidYMid meet">
<metadata>
Created by potrace 1.16, written by Peter Selinger 2001-2019
</metadata>
<g transform="translate(0.000000,91.000000) scale(0.100000,-0.100000)"
fill="#000000" stroke="none">
<path d="M245 899 l-110 -6 -32 -2 -33 -1 0 -163 0 -163 13 -17 12 -18 44 16
44 15 53 0 53 0 20 -29 21 -29 0 -42 0 -42 -17 -29 -17 -29 -32 -15 -32 -15
-62 0 -63 0 -38 11 -38 12 -16 -13 -15 -12 0 -47 0 -46 11 -40 10 -40 27 -66
26 -67 41 -5 41 -6 133 -7 134 -7 -7 29 -7 29 -6 28 -5 28 16 43 16 43 28 25
27 26 20 2 20 2 21 -1 21 -1 27 -26 26 -27 0 -33 0 -33 -17 -37 -18 -36 30
-25 29 -25 153 4 152 4 6 6 6 6 -24 39 -25 38 -32 102 -31 103 -20 11 -21 11
-18 -17 -19 -17 -20 7 -20 6 -21 37 -22 36 -5 51 -5 50 11 43 12 43 23 10 23
11 31 -16 31 -16 49 0 49 0 21 23 21 22 10 28 11 28 0 108 0 108 -48 -24 -47
-23 -95 -26 -95 -25 -22 -15 -23 -14 0 -10 0 -9 16 -15 15 -16 -3 -16 -3 -17
-28 -21 -28 -21 -73 -3 -74 -4 -21 21 -21 21 0 64 0 63 10 53 10 53 -2 2 -3 2
-40 5 -40 4 -110 -7z"/>
</g>
</svg>
