<?xml version="1.0" standalone="no"?>
<!DOCTYPE svg PUBLIC "-//W3C//DTD SVG 20010904//EN"
 "http://www.w3.org/TR/2001/REC-SVG-20010904/DTD/svg10.dtd">
<svg version="1.0" xmlns="http://www.w3.org/2000/svg"
 width="100.000000pt" height="95.000000pt" viewBox="0 0 100.000000 95.000000"
 preserveAspectRatio="xMidYMid meet">
<metadata>
Created by potrace 1.16, written by Peter Selinger 2001-2019
</metadata>
<g transform="translate(0.000000,95.000000) scale(0.100000,-0.100000)"
fill="#000000" stroke="none">
<path d="M103 943 l-53 -4 0 -133 0 -134 19 -23 19 -23 40 18 41 18 35 -6 36
-7 25 -23 25 -23 15 -36 15 -36 0 -22 0 -22 -35 -33 -35 -33 -52 -10 -53 -11
-40 11 -40 10 -22 6 -21 5 -12 -23 -13 -23 6 -67 6 -68 22 -89 22 -90 96 -6
96 -7 66 10 67 9 21 11 21 11 10 20 10 19 0 26 0 26 -16 30 -15 31 5 14 5 14
54 0 54 0 27 -21 26 -21 15 -28 15 -29 0 -45 0 -45 -10 -6 -10 -6 0 -28 0 -29
15 -12 15 -13 83 6 82 5 81 26 81 26 22 97 23 98 5 71 6 70 -13 23 -12 23 -31
-7 -32 -7 -60 -4 -60 -5 -45 23 -45 23 -9 28 -10 27 20 28 20 27 35 17 34 18
57 0 57 0 25 -10 25 -9 6 10 6 9 -11 158 -12 157 -2 2 -2 3 -50 -19 -49 -19
-90 -17 -90 -18 -27 -14 -28 -14 0 -14 0 -15 12 -20 13 -20 -18 -17 -18 -18
-85 0 -86 0 -24 28 -24 28 0 40 0 40 14 34 15 35 -19 10 -19 10 -108 -2 -108
-2 -52 -3z"/>
</g>
</svg>
