<?xml version="1.0" standalone="no"?>
<!DOCTYPE svg PUBLIC "-//W3C//DTD SVG 20010904//EN"
 "http://www.w3.org/TR/2001/REC-SVG-20010904/DTD/svg10.dtd">
<svg version="1.0" xmlns="http://www.w3.org/2000/svg"
 width="124.000000pt" height="112.000000pt" viewBox="0 0 124.000000 112.000000"
 preserveAspectRatio="xMidYMid meet">
<metadata>
Created by potrace 1.16, written by Peter Selinger 2001-2019
</metadata>
<g transform="translate(0.000000,112.000000) scale(0.100000,-0.100000)"
fill="#000000" stroke="none">
<path d="M307 1113 l-7 -6 0 -94 0 -94 -11 -45 -11 -44 -30 -25 -30 -25 -39 0
-40 0 -31 16 -30 16 -25 -7 -24 -6 -15 -34 -14 -34 0 -41 0 -41 11 -21 11 -20
41 -19 42 -19 62 0 61 0 52 12 51 12 10 -15 9 -14 7 -24 6 -24 -20 -102 -21
-103 -16 -33 -16 -32 0 -15 0 -14 53 6 52 6 134 6 134 7 -7 -19 -8 -19 -5 -59
-6 -59 18 -33 17 -33 29 -12 29 -12 41 6 41 5 21 23 22 23 17 25 18 26 0 35 0
36 -12 12 -11 11 12 14 12 15 42 6 42 6 110 -9 110 -8 16 4 16 5 7 136 7 137
-13 40 -13 40 -38 3 -38 3 -15 -11 -14 -12 -35 6 -34 7 -32 26 -31 26 -9 24
-9 24 14 34 14 33 26 17 26 17 36 -17 35 -17 37 9 37 8 20 40 20 40 3 129 4
129 -13 8 -14 9 -446 0 -446 0 -6 -7z"/>
</g>
</svg>
