<?xml version="1.0" standalone="no"?>
<!DOCTYPE svg PUBLIC "-//W3C//DTD SVG 20010904//EN"
 "http://www.w3.org/TR/2001/REC-SVG-20010904/DTD/svg10.dtd">
<svg version="1.0" xmlns="http://www.w3.org/2000/svg"
 width="102.000000pt" height="135.000000pt" viewBox="0 0 102.000000 135.000000"
 preserveAspectRatio="xMidYMid meet">
<metadata>
Created by potrace 1.16, written by Peter Selinger 2001-2019
</metadata>
<g transform="translate(0.000000,135.000000) scale(0.100000,-0.100000)"
fill="#000000" stroke="none">
<path d="M433 1343 l-23 -4 -15 -22 -15 -21 0 -25 0 -25 16 -57 16 -58 -18
-18 -18 -18 -177 1 -177 0 -6 -27 -5 -27 -7 -155 -7 -154 11 -7 10 -6 28 10
28 11 57 0 56 1 40 -11 40 -11 27 -21 26 -20 0 -22 0 -22 -19 -31 -19 -31 -31
-13 -31 -13 -45 17 -45 17 -18 -5 -19 -6 -11 -25 -11 -24 -11 -88 -12 -88 -9
-40 -10 -40 -6 -19 -5 -19 138 6 139 6 34 7 33 7 -11 -21 -11 -21 0 -53 0 -53
21 -35 21 -35 21 -17 22 -18 73 0 73 0 34 14 34 15 7 25 6 26 -16 25 -16 24 0
16 0 16 33 13 32 14 65 7 65 6 62 11 61 10 36 109 37 109 1 65 1 64 -13 16
-12 15 -27 0 -27 0 -11 -11 -11 -11 -51 0 -51 1 -44 19 -44 20 -17 26 -17 26
7 47 7 48 14 22 14 22 32 6 33 6 50 -15 50 -14 21 -7 21 -7 7 18 7 17 -7 143
-7 143 -56 24 -56 25 -99 22 -98 22 -19 19 -19 19 0 24 0 25 10 6 10 6 0 13 0
13 -25 11 -26 12 -52 4 -52 4 -22 -5z"/>
</g>
</svg>
