<?xml version="1.0" standalone="no"?>
<!DOCTYPE svg PUBLIC "-//W3C//DTD SVG 20010904//EN"
 "http://www.w3.org/TR/2001/REC-SVG-20010904/DTD/svg10.dtd">
<svg version="1.0" xmlns="http://www.w3.org/2000/svg"
 width="121.000000pt" height="89.000000pt" viewBox="0 0 121.000000 89.000000"
 preserveAspectRatio="xMidYMid meet">
<metadata>
Created by potrace 1.16, written by Peter Selinger 2001-2019
</metadata>
<g transform="translate(0.000000,89.000000) scale(0.100000,-0.100000)"
fill="#000000" stroke="none">
<path d="M904 881 l-31 -8 -11 -7 -12 -7 0 -13 0 -14 15 -28 15 -29 0 -18 0
-19 -16 -34 -16 -34 -35 -21 -34 -21 -69 4 -69 4 -28 20 -28 21 -3 28 -4 28
17 43 16 43 -10 19 -11 20 -31 11 -32 11 -120 0 -119 0 8 -102 8 -103 1 -50 0
-50 -20 4 -20 4 -65 0 -65 1 -52 -27 -53 -27 -15 -30 -15 -29 0 -39 0 -39 23
-34 23 -34 21 -3 22 -3 31 16 31 16 17 -5 17 -6 13 -20 12 -20 15 -73 14 -72
23 -71 22 -72 66 -6 65 -6 110 0 110 0 14 9 14 9 -16 59 -17 59 0 42 0 41 22
15 22 16 61 0 60 0 37 -10 37 -11 6 -9 6 -10 -15 -16 -16 -15 0 -14 0 -14 20
-19 20 -18 92 -24 93 -23 50 -23 50 -23 7 7 8 8 11 105 12 105 -7 36 -7 36
-15 12 -15 13 -33 -18 -34 -18 -44 12 -45 13 -37 33 -38 33 -5 39 -5 39 15 37
16 37 18 0 18 -1 19 -14 20 -15 28 0 29 0 29 15 30 15 17 33 17 32 4 133 4
132 -48 0 -49 0 -80 5 -80 4 -31 -8z"/>
</g>
</svg>
