<?xml version="1.0" standalone="no"?>
<!DOCTYPE svg PUBLIC "-//W3C//DTD SVG 20010904//EN"
 "http://www.w3.org/TR/2001/REC-SVG-20010904/DTD/svg10.dtd">
<svg version="1.0" xmlns="http://www.w3.org/2000/svg"
 width="91.000000pt" height="110.000000pt" viewBox="0 0 91.000000 110.000000"
 preserveAspectRatio="xMidYMid meet">
<metadata>
Created by potrace 1.16, written by Peter Selinger 2001-2019
</metadata>
<g transform="translate(0.000000,110.000000) scale(0.100000,-0.100000)"
fill="#000000" stroke="none">
<path d="M74 1093 l-62 -4 -6 -37 -6 -37 0 -87 0 -87 12 -26 11 -25 27 0 26 0
47 16 47 16 25 -6 24 -6 20 -29 21 -28 6 -54 6 -54 -11 -43 -12 -43 -20 -20
-19 -19 -30 0 -30 0 -45 12 -45 12 -16 -16 -16 -16 -10 -133 -9 -133 6 -14 6
-15 119 7 120 7 29 5 29 6 -9 -38 -9 -39 0 -61 0 -61 21 -19 21 -19 88 0 87 0
26 25 27 25 0 13 0 13 -15 5 -15 6 0 19 0 19 23 14 22 15 110 15 111 15 53 12
52 11 -6 16 -7 17 -7 120 -8 120 -12 24 -13 23 -31 -7 -32 -6 -40 -5 -40 -6
-19 21 -18 20 -5 65 -6 64 7 36 7 36 17 0 18 0 11 -11 11 -11 35 -1 35 -1 26
17 26 17 15 30 15 29 11 75 11 76 -7 56 -7 56 -31 -6 -31 -6 -125 -16 -126
-15 -25 -12 -25 -13 2 -24 3 -25 6 -43 6 -43 -17 -19 -17 -19 -34 -11 -33 -11
-28 13 -27 13 -22 33 -22 33 -11 48 -10 49 8 28 9 29 7 18 7 17 -113 -2 -114
-2 -61 -3z"/>
</g>
</svg>
