<?xml version="1.0" standalone="no"?>
<!DOCTYPE svg PUBLIC "-//W3C//DTD SVG 20010904//EN"
 "http://www.w3.org/TR/2001/REC-SVG-20010904/DTD/svg10.dtd">
<svg version="1.0" xmlns="http://www.w3.org/2000/svg"
 width="141.000000pt" height="97.000000pt" viewBox="0 0 141.000000 97.000000"
 preserveAspectRatio="xMidYMid meet">
<metadata>
Created by potrace 1.16, written by Peter Selinger 2001-2019
</metadata>
<g transform="translate(0.000000,97.000000) scale(0.100000,-0.100000)"
fill="#000000" stroke="none">
<path d="M363 962 l-103 -3 0 -140 0 -141 -16 -34 -16 -34 -8 -5 -8 -5 -42 15
-43 15 -24 0 -24 0 -29 -15 -28 -15 -12 -36 -12 -36 5 -35 6 -35 16 -24 15
-24 40 0 40 0 45 12 45 12 18 -17 17 -18 0 -168 0 -168 40 1 40 0 166 -8 166
-9 7 12 7 11 -17 70 -17 70 6 42 6 43 26 22 26 23 9 0 8 0 32 -26 31 -27 19
-37 19 -38 7 -40 6 -40 -16 -23 -16 -23 0 -27 0 -27 27 -17 26 -18 76 6 76 6
65 20 65 21 20 0 20 0 0 169 0 170 21 19 21 20 32 -14 33 -14 33 0 33 0 31 31
31 31 0 62 0 62 -12 12 -12 12 -24 0 -24 0 -49 -17 -48 -17 -26 24 -25 24 -10
35 -10 36 0 131 0 130 -147 -4 -148 -4 -35 -12 -35 -11 -3 -25 -3 -26 15 -34
14 -35 -14 -28 -15 -28 -25 -9 -25 -10 -43 0 -43 0 -16 18 -17 19 0 25 0 25
15 43 15 43 -5 18 -6 17 -27 10 -27 10 -65 4 -65 3 -102 -3z"/>
</g>
</svg>
