<?xml version="1.0" standalone="no"?>
<!DOCTYPE svg PUBLIC "-//W3C//DTD SVG 20010904//EN"
 "http://www.w3.org/TR/2001/REC-SVG-20010904/DTD/svg10.dtd">
<svg version="1.0" xmlns="http://www.w3.org/2000/svg"
 width="117.000000pt" height="109.000000pt" viewBox="0 0 117.000000 109.000000"
 preserveAspectRatio="xMidYMid meet">
<metadata>
Created by potrace 1.16, written by Peter Selinger 2001-2019
</metadata>
<g transform="translate(0.000000,109.000000) scale(0.100000,-0.100000)"
fill="#000000" stroke="none">
<path d="M604 1076 l-5 -14 15 -31 16 -30 0 -26 0 -26 -11 -21 -11 -20 -36
-16 -37 -16 -150 0 -150 -1 0 -140 0 -140 -17 -31 -17 -31 -21 -6 -21 -5 -44
15 -44 14 -28 -3 -27 -3 -8 -35 -7 -35 5 -55 6 -56 14 -19 14 -19 12 12 12 12
18 0 18 0 14 -23 15 -22 22 -90 22 -90 22 -51 23 -51 18 -8 19 -8 180 -4 180
-4 14 10 15 9 -17 52 -17 52 0 39 0 39 25 16 26 17 55 -6 56 -6 25 -16 25 -17
-6 -34 -6 -34 -6 -35 -6 -35 33 -14 34 -13 138 -7 137 -7 0 15 0 14 -15 36
-16 37 -19 94 -19 94 -13 21 -13 20 -17 6 -17 5 -31 -16 -31 -16 -22 3 -21 3
-23 34 -23 34 0 39 0 39 15 29 15 30 51 26 51 25 48 6 48 6 33 -12 33 -11 9 9
9 9 -12 141 -13 141 -6 0 -6 0 -80 -26 -80 -26 -82 -5 -83 -6 -15 13 -15 12 0
29 0 28 10 6 10 6 0 45 0 45 -15 29 -15 28 -26 21 -27 21 -54 0 -54 0 -5 -14z"/>
</g>
</svg>
