<?xml version="1.0" standalone="no"?>
<!DOCTYPE svg PUBLIC "-//W3C//DTD SVG 20010904//EN"
 "http://www.w3.org/TR/2001/REC-SVG-20010904/DTD/svg10.dtd">
<svg version="1.0" xmlns="http://www.w3.org/2000/svg"
 width="116.000000pt" height="123.000000pt" viewBox="0 0 116.000000 123.000000"
 preserveAspectRatio="xMidYMid meet">
<metadata>
Created by potrace 1.16, written by Peter Selinger 2001-2019
</metadata>
<g transform="translate(0.000000,123.000000) scale(0.100000,-0.100000)"
fill="#000000" stroke="none">
<path d="M580 1218 l-25 -14 -3 -20 -3 -21 16 -13 15 -12 0 -27 0 -27 -16 -47
-16 -48 -30 -29 -30 -30 -39 0 -40 0 -20 10 -19 11 15 22 15 21 0 36 0 36 -16
22 -15 22 -32 17 -32 17 -150 1 -150 0 -3 -125 -3 -125 6 -42 6 -43 25 -30 26
-30 34 0 34 0 40 16 40 16 15 -12 15 -12 0 -43 0 -43 -32 -32 -31 -32 -21 6
-21 5 -41 12 -41 12 -24 -22 -24 -22 -3 -170 -4 -169 129 0 128 0 36 -10 35
-10 22 -20 22 -21 0 -32 0 -32 -15 -29 -15 -28 0 -23 0 -23 17 -13 16 -14 86
0 86 0 29 15 29 15 20 27 20 27 0 73 0 73 -11 40 -12 39 11 11 10 10 47 -2 47
-1 70 -27 70 -27 22 -5 23 -5 5 13 5 14 8 125 8 125 19 22 18 22 35 -15 34
-14 23 0 23 0 17 6 16 6 14 29 15 28 0 85 0 85 -10 26 -10 27 -28 -7 -27 -7
-36 -5 -37 -5 -20 11 -20 11 -21 43 -21 43 0 106 0 106 -47 20 -48 20 -60 16
-60 15 -55 6 -55 6 -25 -13z"/>
</g>
</svg>
