<?xml version="1.0" standalone="no"?>
<!DOCTYPE svg PUBLIC "-//W3C//DTD SVG 20010904//EN"
 "http://www.w3.org/TR/2001/REC-SVG-20010904/DTD/svg10.dtd">
<svg version="1.0" xmlns="http://www.w3.org/2000/svg"
 width="114.000000pt" height="121.000000pt" viewBox="0 0 114.000000 121.000000"
 preserveAspectRatio="xMidYMid meet">
<metadata>
Created by potrace 1.16, written by Peter Selinger 2001-2019
</metadata>
<g transform="translate(0.000000,121.000000) scale(0.100000,-0.100000)"
fill="#000000" stroke="none">
<path d="M584 1200 l-22 -9 -7 -11 -7 -11 16 -18 16 -18 0 -35 0 -34 -16 -47
-16 -48 -30 -29 -30 -30 -52 0 -52 0 -20 14 -19 15 18 29 17 30 0 24 0 24 -16
22 -15 22 -32 17 -32 17 -140 1 -140 0 -3 -115 -3 -115 6 -42 6 -43 25 -30 26
-30 21 0 22 0 48 17 48 17 17 -10 17 -11 3 -55 3 -56 -31 -31 -32 -31 -21 0
-21 0 -42 16 -43 16 -23 -21 -23 -22 -3 -160 -4 -159 129 0 128 0 36 -10 35
-10 22 -20 22 -21 0 -40 0 -41 -17 -35 -16 -35 10 -17 10 -16 52 -9 52 -9 53
12 53 12 23 24 22 24 8 43 8 43 -8 50 -9 50 -7 32 -6 33 28 11 29 11 57 -10
56 -10 63 -26 64 -25 7 7 7 7 9 131 8 131 22 23 21 23 46 -17 46 -18 24 6 25
6 15 30 15 29 0 75 0 75 -10 26 -10 27 -18 -8 -17 -8 -46 -4 -47 -4 -20 11
-20 11 -21 43 -21 43 0 106 0 106 -47 20 -48 20 -60 15 -60 16 -45 5 -45 6
-21 -10z"/>
</g>
</svg>
