<?xml version="1.0" standalone="no"?>
<!DOCTYPE svg PUBLIC "-//W3C//DTD SVG 20010904//EN"
 "http://www.w3.org/TR/2001/REC-SVG-20010904/DTD/svg10.dtd">
<svg version="1.0" xmlns="http://www.w3.org/2000/svg"
 width="120.000000pt" height="114.000000pt" viewBox="0 0 120.000000 114.000000"
 preserveAspectRatio="xMidYMid meet">
<metadata>
Created by potrace 1.16, written by Peter Selinger 2001-2019
</metadata>
<g transform="translate(0.000000,114.000000) scale(0.100000,-0.100000)"
fill="#000000" stroke="none">
<path d="M568 1129 l-28 -11 0 -10 0 -10 16 -55 16 -55 -7 -46 -7 -47 -20 -36
-21 -37 -24 -11 -24 -11 -57 0 -57 0 -24 19 -24 18 5 29 5 29 13 46 13 46 -12
31 -13 31 -36 18 -37 17 -124 4 -123 4 4 -128 4 -129 17 -33 18 -33 34 -16 33
-16 44 13 43 12 36 5 36 5 17 -27 18 -27 5 -34 6 -34 -18 -26 -17 -26 -41 -19
-42 -19 -33 0 -33 0 -35 15 -34 14 -15 -5 -14 -6 -10 -31 -10 -32 -3 -145 -3
-145 95 0 95 0 91 7 92 8 -14 -38 -13 -37 -1 -43 0 -43 11 -22 11 -22 22 -17
21 -18 45 0 45 0 32 20 32 19 16 24 16 25 8 30 9 30 -14 27 -14 27 0 19 0 18
39 11 39 10 75 -10 75 -11 33 -9 34 -10 7 0 7 0 11 38 10 37 15 105 15 105 11
27 11 27 19 6 19 6 45 -17 45 -17 31 13 31 13 19 31 19 31 0 22 0 22 -26 20
-27 21 -40 11 -40 11 -56 -1 -57 0 -28 -11 -28 -10 -10 6 -11 7 7 154 7 155 5
28 6 28 -88 21 -89 20 -65 5 -65 6 -27 -11z"/>
</g>
</svg>
