<?xml version="1.0" standalone="no"?>
<!DOCTYPE svg PUBLIC "-//W3C//DTD SVG 20010904//EN"
 "http://www.w3.org/TR/2001/REC-SVG-20010904/DTD/svg10.dtd">
<svg version="1.0" xmlns="http://www.w3.org/2000/svg"
 width="143.000000pt" height="133.000000pt" viewBox="0 0 143.000000 133.000000"
 preserveAspectRatio="xMidYMid meet">
<metadata>
Created by potrace 1.16, written by Peter Selinger 2001-2019
</metadata>
<g transform="translate(0.000000,133.000000) scale(0.100000,-0.100000)"
fill="#000000" stroke="none">
<path d="M613 1322 l-12 -7 -10 -26 -10 -27 16 -67 15 -67 -12 -11 -11 -12
-127 2 -127 2 -43 6 -42 6 0 -63 1 -63 9 -95 9 -95 -12 -7 -11 -7 -18 10 -18
10 -64 6 -64 6 -26 -7 -26 -6 -15 -30 -15 -29 0 -51 0 -51 14 -34 14 -33 21
-11 21 -12 29 16 30 15 24 0 25 0 15 -33 15 -32 12 -100 11 -100 9 -36 10 -36
123 -5 122 -5 47 -20 46 -21 11 -20 11 -21 0 -24 0 -25 -16 -38 -16 -38 22
-18 22 -18 65 0 66 0 33 21 34 21 0 24 0 24 -10 0 -10 0 0 25 0 24 20 11 21
11 114 24 114 23 50 23 50 23 20 66 20 65 16 77 16 78 15 15 15 15 20 0 19 0
0 -9 0 -9 16 -6 16 -6 29 21 29 21 15 28 15 29 0 63 0 63 -20 33 -20 32 -22 0
-23 0 -48 -17 -48 -17 -27 14 -27 15 -20 40 -20 40 0 106 0 106 -65 26 -65 27
-108 25 -108 25 -25 16 -24 16 0 18 0 19 15 14 14 15 -15 6 -16 6 -66 0 -67 0
-12 -8z"/>
</g>
</svg>
