<?xml version="1.0" standalone="no"?>
<!DOCTYPE svg PUBLIC "-//W3C//DTD SVG 20010904//EN"
 "http://www.w3.org/TR/2001/REC-SVG-20010904/DTD/svg10.dtd">
<svg version="1.0" xmlns="http://www.w3.org/2000/svg"
 width="119.000000pt" height="140.000000pt" viewBox="0 0 119.000000 140.000000"
 preserveAspectRatio="xMidYMid meet">
<metadata>
Created by potrace 1.16, written by Peter Selinger 2001-2019
</metadata>
<g transform="translate(0.000000,140.000000) scale(0.100000,-0.100000)"
fill="#000000" stroke="none">
<path d="M414 1386 l-31 -14 -12 -30 -13 -30 17 -32 16 -31 -3 -41 -3 -41 -25
-18 -25 -19 -60 -11 -60 -11 -107 6 -108 6 0 -434 0 -434 118 -4 117 -5 42
-17 41 -18 17 -35 17 -35 -16 -42 -16 -42 0 -16 0 -17 19 -11 20 -10 71 0 71
0 22 12 22 11 12 16 12 16 1 46 0 46 -15 44 -15 43 15 15 15 15 68 4 67 3 103
-13 103 -14 4 21 4 20 6 115 7 115 13 33 14 32 20 0 20 0 6 -9 5 -9 29 -7 28
-6 40 17 39 17 22 33 22 34 0 47 0 48 -13 25 -12 25 -30 3 -30 4 -57 -18 -58
-17 -26 11 -25 12 -15 35 -14 34 0 137 0 136 -17 -8 -18 -8 -155 -3 -155 -4
-25 14 -25 13 1 24 1 25 14 32 13 33 -12 47 -12 48 -30 28 -30 27 -8 0 -7 -1
-31 -13z"/>
</g>
</svg>
