<?xml version="1.0" standalone="no"?>
<!DOCTYPE svg PUBLIC "-//W3C//DTD SVG 20010904//EN"
 "http://www.w3.org/TR/2001/REC-SVG-20010904/DTD/svg10.dtd">
<svg version="1.0" xmlns="http://www.w3.org/2000/svg"
 width="122.000000pt" height="115.000000pt" viewBox="0 0 122.000000 115.000000"
 preserveAspectRatio="xMidYMid meet">
<metadata>
Created by potrace 1.16, written by Peter Selinger 2001-2019
</metadata>
<g transform="translate(0.000000,115.000000) scale(0.100000,-0.100000)"
fill="#000000" stroke="none">
<path d="M395 1141 l-20 -9 -18 -20 -19 -20 -5 -39 -5 -38 11 -45 10 -44 -4
-4 -3 -4 -151 12 -151 12 -14 -11 -14 -12 -7 -127 -7 -127 11 -29 11 -28 33 6
32 6 44 7 44 6 32 -17 32 -18 13 -37 12 -37 -4 -24 -3 -24 -34 -23 -34 -23
-23 0 -24 0 0 10 0 10 -43 0 -42 0 -15 -22 -14 -23 -6 -175 -5 -175 10 -7 10
-8 170 0 170 0 23 6 22 6 6 22 5 21 -16 37 -15 37 0 26 0 25 28 31 29 32 33
-1 34 -1 25 -19 26 -19 13 -27 14 -28 -12 -41 -12 -42 -5 -35 -5 -36 28 -14
27 -15 74 1 73 1 87 18 88 17 -3 142 -4 143 11 22 12 21 24 0 24 0 6 -10 6
-10 51 0 51 0 34 21 33 21 16 30 16 31 -4 77 -3 78 -19 21 -19 21 -19 0 -19 0
-49 -16 -49 -16 -27 9 -28 9 -20 28 -21 27 -4 124 -3 124 -172 -2 -171 -2 -22
13 -23 13 0 14 0 13 17 30 17 29 -12 40 -12 40 -25 11 -26 12 -47 -1 -47 0
-20 -8z"/>
</g>
</svg>
