<?xml version="1.0" standalone="no"?>
<!DOCTYPE svg PUBLIC "-//W3C//DTD SVG 20010904//EN"
 "http://www.w3.org/TR/2001/REC-SVG-20010904/DTD/svg10.dtd">
<svg version="1.0" xmlns="http://www.w3.org/2000/svg"
 width="120.000000pt" height="113.000000pt" viewBox="0 0 120.000000 113.000000"
 preserveAspectRatio="xMidYMid meet">
<metadata>
Created by potrace 1.16, written by Peter Selinger 2001-2019
</metadata>
<g transform="translate(0.000000,113.000000) scale(0.100000,-0.100000)"
fill="#000000" stroke="none">
<path d="M395 1121 l-20 -9 -20 -22 -20 -22 0 -41 0 -42 9 -49 9 -48 -19 5
-19 6 -139 11 -139 12 -13 -14 -14 -13 -2 -132 -3 -132 12 -11 11 -12 36 12
35 11 40 1 39 0 30 -17 30 -18 12 -36 12 -36 -4 -35 -3 -34 -34 -23 -34 -23
-33 0 -34 0 0 10 0 10 -33 0 -32 0 -15 -22 -14 -23 -6 -167 -5 -168 13 -5 14
-5 156 0 157 0 22 6 22 6 5 14 5 14 -14 34 -15 35 0 36 0 35 29 32 29 33 42
-1 42 -1 26 -20 27 -20 14 -28 14 -29 -12 -51 -12 -50 -5 -25 -6 -26 28 -14
27 -15 66 2 65 1 85 17 86 16 -3 144 -3 144 11 20 11 21 34 0 34 0 6 -10 6
-10 41 0 41 0 34 21 33 21 16 30 16 31 -4 69 -4 68 -21 22 -22 21 -57 -18 -57
-18 -35 9 -35 9 -21 28 -21 28 -4 124 -3 123 -172 -2 -171 -1 -22 13 -23 13 0
25 0 25 16 24 16 24 -11 34 -12 34 -25 12 -25 11 -37 -1 -37 0 -20 -8z"/>
</g>
</svg>
