<?xml version="1.0" standalone="no"?>
<!DOCTYPE svg PUBLIC "-//W3C//DTD SVG 20010904//EN"
 "http://www.w3.org/TR/2001/REC-SVG-20010904/DTD/svg10.dtd">
<svg version="1.0" xmlns="http://www.w3.org/2000/svg"
 width="116.000000pt" height="120.000000pt" viewBox="0 0 116.000000 120.000000"
 preserveAspectRatio="xMidYMid meet">
<metadata>
Created by potrace 1.16, written by Peter Selinger 2001-2019
</metadata>
<g transform="translate(0.000000,120.000000) scale(0.100000,-0.100000)"
fill="#000000" stroke="none">
<path d="M428 1184 l-37 -16 -22 -45 -22 -45 6 -57 5 -58 13 -22 14 -22 -15
-9 -15 -10 -30 0 -30 1 -125 9 -126 9 -14 6 -15 5 0 -42 0 -43 -8 -110 -8
-110 13 -17 13 -17 55 15 55 15 38 -7 38 -6 29 -25 29 -24 10 -33 9 -34 -5
-25 -5 -26 -19 -17 -18 -16 -23 5 -23 5 -32 13 -33 13 -18 -19 -18 -20 -7 -19
-7 -19 -16 -101 -15 -101 -13 -50 -13 -51 13 -12 13 -12 158 -2 158 -3 -3 20
-3 20 -6 80 -5 80 19 24 19 24 47 7 47 7 22 -11 22 -11 23 -34 23 -34 11 -41
11 -41 -18 -32 -17 -33 11 -24 10 -23 37 -7 36 -7 47 6 47 6 97 16 96 16 6 41
6 41 9 116 10 115 12 28 13 28 28 -6 28 -6 31 -6 31 -7 24 28 24 28 0 37 0 37
-22 21 -23 21 -28 10 -28 11 -47 0 -48 0 -22 -16 -22 -15 0 48 0 49 11 133 10
133 -3 3 -3 3 -158 10 -159 9 -21 22 -21 21 13 32 13 33 5 25 4 25 -20 32 -20
32 -24 15 -23 16 -30 5 -29 5 -37 -16z"/>
</g>
</svg>
