<?xml version="1.0" standalone="no"?>
<!DOCTYPE svg PUBLIC "-//W3C//DTD SVG 20010904//EN"
 "http://www.w3.org/TR/2001/REC-SVG-20010904/DTD/svg10.dtd">
<svg version="1.0" xmlns="http://www.w3.org/2000/svg"
 width="122.000000pt" height="98.000000pt" viewBox="0 0 122.000000 98.000000"
 preserveAspectRatio="xMidYMid meet">
<metadata>
Created by potrace 1.16, written by Peter Selinger 2001-2019
</metadata>
<g transform="translate(0.000000,98.000000) scale(0.100000,-0.100000)"
fill="#000000" stroke="none">
<path d="M641 969 l-24 -9 7 -43 7 -42 7 -45 8 -45 -7 -38 -6 -37 -23 -24 -22
-25 -48 -11 -48 -12 -46 7 -45 7 -11 13 -10 12 15 29 15 29 0 52 0 52 -22 21
-22 20 -35 10 -36 10 -132 0 -133 0 0 -145 0 -145 16 -40 16 -41 19 -9 18 -10
50 0 50 0 6 10 6 10 24 0 24 0 16 -30 15 -29 0 -25 0 -25 -16 -33 -15 -33 -36
-23 -35 -23 -28 -1 -29 -1 -29 12 -30 13 -23 -4 -24 -3 -14 -30 -14 -30 11
-100 11 -100 12 -32 11 -33 88 0 89 0 50 11 50 10 25 20 25 20 7 35 7 36 -18
65 -18 65 17 16 17 17 80 0 81 0 29 -33 29 -32 0 -25 0 -25 -16 -40 -16 -40 6
-25 7 -26 27 -10 27 -11 137 -9 137 -8 24 -6 25 -7 4 39 5 38 17 100 17 100
10 43 10 44 18 20 19 20 30 -16 31 -16 29 0 29 0 15 18 15 17 7 28 7 28 -11
39 -10 39 -30 24 -29 25 -40 7 -40 7 -57 -12 -57 -12 -9 14 -9 13 5 65 5 65 7
82 7 83 -54 24 -54 25 -60 16 -59 15 -31 -1 -30 0 -24 -10z"/>
</g>
</svg>
