<?xml version="1.0" standalone="no"?>
<!DOCTYPE svg PUBLIC "-//W3C//DTD SVG 20010904//EN"
 "http://www.w3.org/TR/2001/REC-SVG-20010904/DTD/svg10.dtd">
<svg version="1.0" xmlns="http://www.w3.org/2000/svg"
 width="120.000000pt" height="96.000000pt" viewBox="0 0 120.000000 96.000000"
 preserveAspectRatio="xMidYMid meet">
<metadata>
Created by potrace 1.16, written by Peter Selinger 2001-2019
</metadata>
<g transform="translate(0.000000,96.000000) scale(0.100000,-0.100000)"
fill="#000000" stroke="none">
<path d="M641 949 l-23 -9 6 -33 7 -32 9 -50 8 -50 -8 -43 -8 -43 -22 -24 -23
-24 -53 -12 -53 -12 -52 9 -52 9 -10 16 -10 17 16 35 17 35 0 41 0 40 -22 21
-22 20 -35 10 -36 10 -122 0 -123 0 0 -135 0 -135 16 -40 16 -41 19 -9 18 -10
36 0 36 0 22 15 22 14 23 -6 23 -6 14 -28 15 -28 0 -35 0 -35 -16 -34 -16 -34
-32 -19 -31 -19 -25 -7 -25 -8 -52 16 -53 17 -15 -13 -14 -12 -7 -32 -6 -32
11 -80 11 -79 11 -34 11 -33 107 4 107 4 39 20 40 19 14 30 14 29 -18 72 -18
72 6 16 6 16 28 11 28 11 74 -4 73 -3 29 -33 29 -32 0 -35 0 -35 -16 -39 -16
-39 11 -20 11 -20 50 -11 51 -11 72 -1 72 0 52 -8 51 -7 0 15 -1 16 15 70 16
70 7 55 7 55 9 39 10 38 20 21 19 21 33 -13 32 -13 23 -5 23 -5 18 16 19 17 5
26 5 25 -9 34 -10 33 -29 24 -29 25 -38 6 -38 7 -55 -15 -55 -15 -13 17 -14
17 7 90 6 90 6 57 6 58 -54 24 -54 25 -60 16 -59 15 -21 -1 -20 0 -24 -10z"/>
</g>
</svg>
