<?xml version="1.0" standalone="no"?>
<!DOCTYPE svg PUBLIC "-//W3C//DTD SVG 20010904//EN"
 "http://www.w3.org/TR/2001/REC-SVG-20010904/DTD/svg10.dtd">
<svg version="1.0" xmlns="http://www.w3.org/2000/svg"
 width="120.000000pt" height="141.000000pt" viewBox="0 0 120.000000 141.000000"
 preserveAspectRatio="xMidYMid meet">
<metadata>
Created by potrace 1.16, written by Peter Selinger 2001-2019
</metadata>
<g transform="translate(0.000000,141.000000) scale(0.100000,-0.100000)"
fill="#000000" stroke="none">
<path d="M413 1386 l-28 -24 0 -79 0 -78 9 -44 8 -44 -148 9 -149 8 -50 1 -50
0 -3 -95 -3 -95 6 -43 6 -42 22 -26 23 -26 44 -5 45 -5 45 16 45 15 19 -19 20
-19 4 -59 4 -59 -16 -30 -16 -31 -33 -21 -34 -21 -31 0 -31 0 -6 10 -6 10 -44
0 -44 0 -11 -20 -11 -20 3 -147 3 -148 165 0 165 0 13 -8 12 -8 -10 -19 -10
-19 0 -51 0 -51 15 -29 15 -28 33 -21 34 -21 34 0 34 0 34 10 34 10 29 27 28
27 0 41 0 41 -12 12 -11 11 12 15 12 14 32 6 32 6 120 10 119 10 8 8 8 8 -15
62 -16 62 -2 70 -2 69 15 15 15 15 45 -15 44 -15 34 6 34 6 33 22 34 22 15 33
16 33 0 45 0 45 -15 29 -15 28 -30 7 -31 7 -24 -16 -24 -16 -26 0 -26 0 -18
10 -19 9 -16 41 -16 40 0 126 0 125 -14 5 -14 5 -81 -25 -80 -25 -63 -6 -63
-6 -24 19 -25 20 18 27 18 28 -5 57 -5 56 -20 41 -21 40 -31 27 -32 26 -28 0
-29 0 -28 -24z"/>
</g>
</svg>
