<?xml version="1.0" standalone="no"?>
<!DOCTYPE svg PUBLIC "-//W3C//DTD SVG 20010904//EN"
 "http://www.w3.org/TR/2001/REC-SVG-20010904/DTD/svg10.dtd">
<svg version="1.0" xmlns="http://www.w3.org/2000/svg"
 width="118.000000pt" height="139.000000pt" viewBox="0 0 118.000000 139.000000"
 preserveAspectRatio="xMidYMid meet">
<metadata>
Created by potrace 1.16, written by Peter Selinger 2001-2019
</metadata>
<g transform="translate(0.000000,139.000000) scale(0.100000,-0.100000)"
fill="#000000" stroke="none">
<path d="M414 1367 l-28 -24 -3 -59 -4 -59 15 -55 15 -55 -10 -9 -9 -10 -187
12 -188 11 -9 -9 -8 -8 3 -115 4 -116 21 -28 21 -28 35 -9 35 -9 57 18 57 18
22 -21 21 -22 4 -68 4 -69 -16 -31 -16 -30 -33 -21 -34 -21 -41 0 -41 0 -6 10
-6 10 -34 0 -34 0 -11 -20 -11 -20 3 -137 3 -138 167 0 167 0 12 -12 12 -12
-11 -26 -12 -26 0 -42 0 -42 18 -30 19 -30 35 -19 35 -19 47 7 47 7 34 31 35
30 0 29 0 29 -12 20 -13 20 11 17 11 17 27 7 27 8 126 10 125 11 8 5 7 4 -14
53 -14 53 -2 82 -2 82 17 17 17 17 53 -16 53 -17 25 8 25 7 31 19 32 19 16 34
16 34 0 35 0 35 -15 28 -14 28 -23 6 -23 6 -22 -14 -22 -15 -36 0 -36 0 -18
10 -19 9 -16 41 -16 40 0 125 0 124 -8 5 -8 5 -77 -24 -77 -25 -69 -6 -68 -7
-26 18 -27 17 0 17 0 17 16 23 17 23 -6 48 -6 49 -20 39 -20 39 -31 27 -32 26
-18 0 -19 0 -27 -23z"/>
</g>
</svg>
