<?xml version="1.0" standalone="no"?>
<!DOCTYPE svg PUBLIC "-//W3C//DTD SVG 20010904//EN"
 "http://www.w3.org/TR/2001/REC-SVG-20010904/DTD/svg10.dtd">
<svg version="1.0" xmlns="http://www.w3.org/2000/svg"
 width="92.000000pt" height="113.000000pt" viewBox="0 0 92.000000 113.000000"
 preserveAspectRatio="xMidYMid meet">
<metadata>
Created by potrace 1.16, written by Peter Selinger 2001-2019
</metadata>
<g transform="translate(0.000000,113.000000) scale(0.100000,-0.100000)"
fill="#000000" stroke="none">
<path d="M382 1110 l-32 -20 -10 -24 -9 -24 6 -23 6 -23 14 -26 13 -25 0 -16
0 -16 -21 -19 -21 -19 -153 1 -153 1 -6 -61 -6 -61 -6 -124 -7 -124 24 16 23
17 48 0 47 0 28 -11 28 -10 23 -21 22 -21 0 -37 0 -37 -24 -28 -24 -28 -31 7
-31 6 -28 6 -28 6 -13 -28 -12 -28 -10 -115 -9 -116 -5 -36 -6 -36 23 -7 23
-6 120 0 120 0 37 10 37 11 16 15 15 15 0 27 -1 27 -14 19 -15 20 0 28 0 29
19 37 19 38 26 12 26 12 30 -6 30 -6 24 -23 25 -23 7 -28 7 -27 -18 -53 -18
-52 6 -16 6 -16 27 -10 26 -10 146 -10 145 -10 1 3 1 2 -3 432 -2 432 -38 11
-37 10 -115 16 -115 16 -32 13 -33 14 0 26 0 26 16 24 15 24 -10 20 -11 20
-22 15 -22 16 -46 0 -45 0 -33 -20z"/>
</g>
</svg>
