<?xml version="1.0" standalone="no"?>
<!DOCTYPE svg PUBLIC "-//W3C//DTD SVG 20010904//EN"
 "http://www.w3.org/TR/2001/REC-SVG-20010904/DTD/svg10.dtd">
<svg version="1.0" xmlns="http://www.w3.org/2000/svg"
 width="123.000000pt" height="142.000000pt" viewBox="0 0 123.000000 142.000000"
 preserveAspectRatio="xMidYMid meet">
<metadata>
Created by potrace 1.16, written by Peter Selinger 2001-2019
</metadata>
<g transform="translate(0.000000,142.000000) scale(0.100000,-0.100000)"
fill="#000000" stroke="none">
<path d="M642 1404 l-22 -15 0 -53 0 -53 15 -49 14 -48 -12 -9 -12 -8 -177 5
-178 5 0 -134 0 -135 -16 -40 -16 -41 -19 -9 -18 -10 -33 0 -33 1 -19 14 -20
15 -20 0 -21 0 -24 -19 -24 -18 -5 -51 -4 -51 27 -25 27 -25 56 -12 56 -11 67
11 67 11 16 6 16 6 10 -28 11 -28 -16 -79 -16 -78 -24 -68 -25 -68 0 -11 0
-10 153 -4 152 -3 30 -15 30 -16 -3 -24 -3 -25 -5 -81 -6 -82 22 -22 22 -22
79 4 79 3 24 26 23 25 12 21 11 22 0 47 0 48 -12 34 -13 34 20 14 19 14 153 0
153 0 0 13 0 12 -10 34 -9 33 -11 102 -11 101 -16 33 -16 34 -46 -6 -46 -6
-25 -3 -25 -2 -17 35 -18 35 0 43 0 43 15 29 15 30 26 6 26 7 55 -7 55 -6 19
-11 20 -10 21 7 20 6 -6 46 -6 46 -7 128 -6 128 -10 0 -11 0 -42 21 -42 20
-94 25 -93 24 -22 12 -22 11 -5 13 -5 13 15 16 15 15 -3 18 -3 17 -35 12 -35
12 -75 0 -76 1 -22 -16z"/>
</g>
</svg>
