<?xml version="1.0" standalone="no"?>
<!DOCTYPE svg PUBLIC "-//W3C//DTD SVG 20010904//EN"
 "http://www.w3.org/TR/2001/REC-SVG-20010904/DTD/svg10.dtd">
<svg version="1.0" xmlns="http://www.w3.org/2000/svg"
 width="100.000000pt" height="140.000000pt" viewBox="0 0 100.000000 140.000000"
 preserveAspectRatio="xMidYMid meet">
<metadata>
Created by potrace 1.16, written by Peter Selinger 2001-2019
</metadata>
<g transform="translate(0.000000,140.000000) scale(0.100000,-0.100000)"
fill="#000000" stroke="none">
<path d="M393 1385 l-23 -16 0 -52 1 -52 14 -40 14 -39 -12 -9 -12 -8 -187 4
-188 5 0 -142 0 -141 18 -35 17 -35 28 -9 27 -10 48 13 47 14 31 4 30 5 14
-16 13 -17 5 -48 4 -48 -23 -35 -23 -35 -39 -17 -39 -17 -30 16 -31 15 -24 0
-24 0 -13 -33 -14 -32 -6 -110 -7 -110 -5 -34 -5 -34 158 7 159 7 -4 -68 -4
-68 12 -45 12 -44 39 -39 39 -39 74 4 74 3 21 19 21 19 0 29 0 29 -15 29 -15
29 22 15 23 14 112 26 112 25 39 20 39 20 31 93 31 93 11 68 12 67 -6 36 -7
35 -15 6 -14 5 -80 -16 -80 -16 -49 11 -50 10 -26 25 -27 25 6 32 6 32 23 17
22 17 22 -15 22 -14 51 0 51 0 18 10 19 9 16 41 16 40 0 144 0 143 -77 7 -76
6 -59 0 -59 0 -35 15 -36 15 7 27 7 28 5 42 5 41 -26 18 -27 17 -67 4 -67 5
-22 -17z"/>
</g>
</svg>
