<?xml version="1.0" standalone="no"?>
<!DOCTYPE svg PUBLIC "-//W3C//DTD SVG 20010904//EN"
 "http://www.w3.org/TR/2001/REC-SVG-20010904/DTD/svg10.dtd">
<svg version="1.0" xmlns="http://www.w3.org/2000/svg"
 width="98.000000pt" height="138.000000pt" viewBox="0 0 98.000000 138.000000"
 preserveAspectRatio="xMidYMid meet">
<metadata>
Created by potrace 1.16, written by Peter Selinger 2001-2019
</metadata>
<g transform="translate(0.000000,138.000000) scale(0.100000,-0.100000)"
fill="#000000" stroke="none">
<path d="M393 1365 l-23 -16 0 -38 0 -39 17 -52 17 -52 -15 -9 -14 -10 -187 4
-188 3 0 -128 0 -129 14 -34 15 -35 25 -12 26 -11 58 17 57 18 30 -4 30 -3 12
-25 13 -25 0 -48 0 -47 -22 -34 -22 -33 -39 -17 -40 -17 -28 6 -29 7 -5 9 -6
9 -20 0 -20 0 -14 -33 -13 -32 -9 -134 -8 -133 164 7 164 7 -8 -18 -9 -19 -4
-51 -4 -51 12 -43 12 -44 39 -39 39 -39 64 4 65 4 20 18 21 19 0 18 0 18 -17
36 -17 35 16 16 16 16 121 29 121 29 39 19 38 20 31 93 31 93 11 63 11 64 -6
29 -7 29 -8 5 -9 6 -80 -16 -80 -17 -55 12 -54 11 -26 24 -26 24 0 25 0 25 9
23 9 23 25 14 26 14 25 -17 25 -16 41 0 41 0 18 10 19 9 16 41 16 40 0 134 0
133 -77 7 -76 6 -59 0 -59 0 -35 15 -36 15 6 35 6 35 6 34 6 34 -26 17 -25 17
-58 5 -58 5 -22 -17z"/>
</g>
</svg>
