<svg baseProfile="full" height="3648" preserveAspectRatio="none" shape-rendering="geometricPrecision" version="1.1" viewBox="0,0,5472,3648" width="5472" xmlns="http://www.w3.org/2000/svg" xmlns:ev="http://www.w3.org/2001/xml-events" xmlns:xlink="http://www.w3.org/1999/xlink"><title>Jigsaw puzzle piece clips</title><desc>Created with the piecemaker. Piece count: 12</desc><defs /><g><g><rect fill="white" height="3648" width="5472" x="0" y="0" /></g></g><g><g><path d="M 0 0  L 1368.000000 0  c -0.0,73.50471768688669 68.4,500.7345077850726 -87.33793216970007,415.6145077850726&#10;c -71.58446032330063,-72.96 -338.79554217614077,0 -338.79554217614077,192.3854922149274&#10;c 0,189.56991817556127 232.26187164284988,262.52991817556125 318.4168155179867,189.56991817556127&#10;c 177.84,-72.96 109.44,255.35999999999999 107.71665882785413,418.43008182443873 c -0.0,170.703803382579 68.4,565.0340533073697 -190.6033793603392,479.9140533073698&#10;c -98.04280639335403,-72.96 -148.7220715034553,0 -148.7220715034553,128.08594669263022&#10;c 0,117.96973363656434 44.40653108385592,190.92973363656432 58.85059917116325,117.96973363656434&#10;c 177.84,-72.96 109.44,255.35999999999999 280.47485169263126,490.03026636343566 c 0.0,256.0151832732254 -68.4,594.0072174972154 80.6020331721595,508.8872174972153&#10;c 280.26964174566115,-72.96 283.2560640384312,0 283.2560640384312,99.11278250278468&#10;c 0,173.68157014496762 -176.54972786740737,246.6415701449676 -175.02238453421404,173.68157014496762&#10;c -177.84,-72.96 -109.44,255.35999999999999 -188.83571267637666,434.3184298550324 L 0 3648 " fill="none" stroke="black" stroke-width="0.1" style="vector-effect:non-scaling-stroke;" /></g><g><path d="M 0 0  L 2736.000000 0  c 0.0,199.412247473955 -68.4,552.9829362773952 233.2493933198308,467.8629362773952&#10;c 64.72849948295915,-72.96 184.056272910899,0 184.056272910899,140.1370637226048&#10;c 0,161.31995116249743 -42.87055693170153,234.2799511624974 -192.27418138331652,161.31995116249743&#10;c -177.84,-72.96 -109.44,255.35999999999999 -225.03148484741328,446.68004883750257 c -0.0,327.2767692898534 68.4,515.4500198256117 -86.11029279912674,430.3300198256116&#10;c -215.79470752907656,-72.96 -310.8893280140124,0 -310.8893280140124,177.6699801743884&#10;c 0,172.55027424975242 48.50655742977258,245.5102742497524 197.0223028076007,172.55027424975242&#10;c 177.84,-72.96 109.44,255.35999999999999 199.97731800553842,435.4497257502476 c 0.0,288.8202900342443 -68.4,548.26212971465 144.76665197878495,463.14212971465&#10;c 230.46793301671676,-72.96 318.4249053178862,0 318.4249053178862,144.85787028534997&#10;c 0,148.3267920408083 -87.94295173619793,221.28679204080828 -188.04514461146647,148.3267920408083&#10;c -177.84,-72.96 -109.44,255.35999999999999 -275.14641268520467,459.6732079591917 L 0 3648 " fill="none" stroke="black" stroke-width="0.1" style="vector-effect:non-scaling-stroke;" /></g><g><path d="M 0 0  L 4104.000000 0  c -0.0,275.1938497044573 68.4,516.9531131204665 -121.83258314421641,431.83311312046646&#10;c -142.25478805032927,-72.96 -318.5581460683918,0 -318.5581460683918,176.16688687953354&#10;c 0,143.2253770352496 173.61462231065653,216.1853770352496 370.3933424683876,143.2253770352496&#10;c 177.84,-72.96 109.44,255.35999999999999 69.99738674422065,464.7746229647504 c -0.0,243.34315704936031 68.4,534.2184481787824 -173.8949373763801,449.09844817878246&#10;c -55.27126563645078,-72.96 -169.27983473588048,0 -169.27983473588048,158.90155182121754&#10;c 0,168.56906332792346 310.62491827751865,241.52906332792344 319.3917338015898,168.56906332792346&#10;c 177.84,-72.96 109.44,255.35999999999999 23.783038310670804,439.43093667207654 c 0.0,245.81601580410407 -68.4,555.3668490445979 46.19573233381133,470.24684904459787&#10;c 195.92787934870898,-72.96 293.0243373601812,0 293.0243373601812,137.75315095540213&#10;c 0,138.54830881361568 -180.56638585130216,211.50830881361566 -213.06660493097885,138.54830881361568&#10;c -177.84,-72.96 -109.44,255.35999999999999 -126.15346476301372,469.4516911863843 L 0 3648 " fill="none" stroke="black" stroke-width="0.1" style="vector-effect:non-scaling-stroke;" /></g></g><g><g><path d="M 0 0  L 0 1216.000000  c 156.17439587626293,0.0 661.3571021063335,-60.800000000000004 565.5971021063335,91.25907098965921&#10;c -82.08,218.25185825982075 0,237.98763192863544 118.40289789366648,237.98763192863544&#10;c 124.82134881003003,0 206.90134881003002,-79.00305713002207 124.82134881003003,-276.2919046309334&#10;c -82.08,-158.08 287.28,-97.28 559.17865118997,-52.95479828736126 c 174.9069519051541,-0.0 617.9724379598575,60.800000000000004 522.2124379598575,-203.96584417005832&#10;c -82.08,-24.873463447397153 0,-109.53626270228838 161.78756204014246,-109.53626270228838&#10;c 166.41414994574302,0 248.494149945743,43.24497908845515 166.41414994574302,47.927088273824836&#10;c -82.08,158.08 287.28,97.28 517.585850054257,265.57501859852186 c 102.92274516079387,-0.0 569.2388078225,60.800000000000004 473.47880782249996,20.693744856737176&#10;c -82.08,-219.41538138718104 0,-381.46353457954774 210.52119217750004,-381.46353457954774&#10;c 105.94214217600131,0 188.0221421760013,307.91933667661414 105.94214217600131,312.5788886289272&#10;c -82.08,158.08 287.28,97.28 578.0578578239987,48.19090109388338 c 104.70193031736063,0.0 638.1295111201349,-60.800000000000004 542.3695111201349,48.073445530802886&#10;c -82.08,131.96374846926065 0,266.42586688866373 141.63048887986508,266.42586688866373&#10;c 145.3807937529291,0 227.46079375292908,-25.06825955212492 145.3807937529291,-114.61257729831598&#10;c -82.08,-158.08 287.28,-97.28 538.6192062470709,-199.88673512115062 L 5472 0 " fill="none" stroke="black" stroke-width="0.1" style="vector-effect:non-scaling-stroke;" /></g><g><path d="M 0 0  L 0 2432.000000  c 143.76071748832774,0.0 568.5738390059819,-60.800000000000004 472.8138390059819,75.09561909604682&#10;c -82.08,233.95439072036527 0,236.37439785005333 211.1861609940181,236.37439785005333&#10;c 205.28764836203686,0 287.36764836203685,-181.85023246815166 205.28764836203686,-213.08949510519898&#10;c -82.08,-158.08 287.28,-97.28 478.71235163796314,-98.38052184090117 c 310.0309373114965,-0.0 672.4449576377565,60.800000000000004 576.6849576377565,-78.94083350393359&#10;c -82.08,-108.67149188992047 0,-277.0028205061809 107.3150423622435,-277.0028205061809&#10;c 167.7171774155072,0 249.79717741550718,87.14278623852199 167.7171774155072,108.96200601959899&#10;c -82.08,158.08 287.28,97.28 516.2828225844928,246.98164799051554 c 175.0255848645096,-0.0 663.0175737469285,60.800000000000004 567.2575737469285,-181.82783890650836&#10;c -82.08,-117.26045707046275 0,-125.38342561498109 116.74242625307147,-125.38342561498109&#10;c 151.32927950213707,0 233.40927950213705,295.6374413911197 151.32927950213707,328.025942856746&#10;c -82.08,158.08 287.28,97.28 532.6707204978629,-20.81467833525653 c 171.7497189358598,-0.0 661.8392338851035,60.800000000000004 566.0792338851035,-164.96052970767695&#10;c -82.08,-62.544128234151884 0,-130.95980274200483 117.92076611489654,-130.95980274200483&#10;c 172.6109699206853,0 254.6909699206853,38.20687423447992 172.6109699206853,54.13924108131346&#10;c -82.08,158.08 287.28,97.28 511.3890300793147,241.78109136836832 L 5472 0 " fill="none" stroke="black" stroke-width="0.1" style="vector-effect:non-scaling-stroke;" /></g></g></svg>