<?xml version="1.0" encoding="utf-8"?>
<svg baseProfile="full" height="0" version="1.1" width="0" xmlns="http://www.w3.org/2000/svg" xmlns:ev="http://www.w3.org/2001/xml-events" xmlns:xlink="http://www.w3.org/1999/xlink"><defs><clipPath id="piece-mask-100-0" shape-rendering="crispEdges"><path d="M2185 3855 l-60 -13 -55 -25 -55 -25 -39 -38 -39 -38 -13 -33 -14 -32 0 -34 0 -33 24 -44 25 -45 22 -45 22 -45 1 -75 1 -75 -13 -37 -14 -38 -47 -49 -47 -50 -55 -26 -56 -25 -77 -20 -77 -19 -107 -12 -107 -11 -285 4 -285 3 3 -247 3 -246 -11 -119 -11 -118 -16 -65 -16 -65 -27 -61 -27 -61 -38 -41 -37 -41 -55 -27 -55 -27 -72 0 -71 0 -45 12 -45 13 -69 34 -69 34 -45 0 -45 0 -28 -31 -28 -32 -12 -56 -12 -56 -1 -190 -1 -190 23 -72 22 -72 33 -42 32 -42 50 -31 50 -31 95 0 95 0 91 43 91 42 32 0 33 0 30 -18 30 -17 25 -49 24 -48 15 -72 14 -71 10 -370 9 -370 7 -87 6 -88 1505 0 1504 0 -29 43 -29 42 -30 60 -30 60 -26 70 -26 70 -20 70 -20 70 -45 195 -44 195 -23 60 -22 60 -24 37 -25 37 -33 15 -33 16 -35 0 -34 0 -31 -11 -31 -11 -26 -34 -27 -35 -21 3 -21 3 -18 31 -19 32 -15 68 -14 69 -7 161 -6 160 13 55 13 54 23 45 22 46 33 32 32 32 44 16 43 17 58 -5 58 -6 79 -40 80 -41 48 -12 48 -12 41 6 40 5 34 33 33 32 16 46 16 46 11 110 12 110 -12 320 -12 320 0 118 0 117 -127 0 -128 0 -301 -11 -300 -12 -120 11 -120 12 -54 16 -54 16 -39 39 -39 39 4 58 5 57 30 65 31 65 12 43 11 44 0 77 0 78 -21 55 -20 55 -30 45 -29 44 -47 33 -46 33 -45 14 -46 14 -61 -1 -61 -1 -60 -13z" transform="translate(0.000000,387.000000) scale(0.100000,-0.100000)"/></clipPath><clipPath id="piece-mask-100-1" shape-rendering="crispEdges"><path d="M2065 3776 l-70 -14 -60 -22 -60 -23 -47 -47 -48 -47 0 -32 0 -31 36 -40 37 -41 19 -67 19 -67 5 -95 6 -95 -24 -45 -23 -45 -46 -31 -46 -31 -64 -14 -64 -14 -433 3 -432 3 0 -118 0 -118 12 -320 12 -320 -12 -110 -11 -110 -16 -46 -16 -46 -33 -32 -34 -33 -40 -5 -41 -6 -48 12 -48 12 -80 41 -79 40 -58 6 -58 5 -43 -17 -44 -16 -32 -32 -33 -32 -22 -46 -23 -45 -13 -54 -13 -55 6 -160 7 -161 14 -69 15 -68 19 -32 18 -31 21 -3 21 -3 27 35 26 34 31 11 31 11 34 0 35 0 33 -16 33 -15 25 -37 24 -37 22 -60 23 -60 44 -195 45 -195 20 -70 20 -70 26 -70 26 -70 30 -60 30 -60 29 -42 29 -43 1501 0 1500 0 -7 18 -7 17 -18 52 -19 53 -20 93 -20 93 -35 259 -36 260 -15 60 -16 60 -25 52 -25 53 -29 20 -28 20 -50 0 -49 0 -29 -10 -29 -10 -17 -30 -17 -29 -24 -6 -25 -7 -31 16 -31 17 -34 52 -35 52 -21 63 -21 64 -11 104 -12 104 11 87 11 88 21 58 20 59 26 45 27 45 46 29 47 30 30 -5 30 -6 30 -34 30 -35 62 -12 61 -13 54 12 54 13 36 30 37 29 30 53 30 52 20 75 20 75 11 85 10 84 0 176 0 175 -7 142 -6 142 -11 4 -12 5 -124 -29 -125 -29 -110 -19 -110 -20 -104 -12 -103 -11 -122 5 -121 5 -38 13 -38 13 -37 32 -37 32 0 58 0 59 37 75 37 75 10 60 9 60 -9 60 -9 60 -35 70 -34 70 -31 32 -30 32 -45 31 -45 31 -67 26 -68 26 -130 3 -130 3 -70 -13z" transform="translate(0.000000,379.000000) scale(0.100000,-0.100000)"/></clipPath><clipPath id="piece-mask-100-2" shape-rendering="crispEdges"><path d="M5 3862 l10 -7 -7 -205 -7 -205 9 -136 10 -136 19 -75 20 -76 26 -52 26 -52 41 -44 40 -44 56 -27 55 -27 85 -4 85 -5 69 13 69 12 29 24 28 24 37 16 37 15 28 -6 27 -6 25 -27 26 -27 20 -40 20 -40 17 -75 17 -75 5 -130 6 -130 -17 -65 -16 -65 -28 -40 -28 -39 -43 -31 -43 -30 -67 0 -67 0 -89 44 -90 44 -40 4 -40 4 -32 -20 -31 -20 -26 -44 -26 -44 -20 -79 -21 -79 -24 -180 -25 -180 -21 -130 -20 -130 -29 -120 -29 -120 -20 -57 -20 -58 8 -4 8 -5 309 2 309 2 98 -22 98 -22 64 -29 63 -30 42 -42 42 -42 20 -44 19 -45 6 -68 6 -68 -17 -75 -17 -76 -20 -18 -21 -19 -14 -27 -14 -27 0 -26 0 -27 16 -28 17 -27 41 -27 41 -27 62 -19 62 -19 87 -12 87 -11 91 4 91 5 60 23 60 23 61 61 60 61 14 48 13 49 -9 26 -9 27 -32 20 -31 20 -12 41 -12 42 7 31 6 30 21 27 22 27 52 23 52 23 59 15 59 16 245 40 244 41 95 20 95 21 95 30 95 30 53 25 52 25 -6 10 -6 10 -9 451 -8 452 -15 76 -14 76 -20 44 -19 44 -26 23 -25 24 -40 5 -40 5 -98 -31 -99 -31 -65 -14 -65 -14 -62 -6 -63 -7 -62 11 -62 12 -47 23 -47 24 -36 43 -36 42 -20 64 -20 64 0 122 0 121 15 65 16 65 32 47 32 48 45 19 45 18 43 7 43 6 85 -10 85 -11 122 -36 122 -36 54 -5 55 -4 37 11 38 11 40 46 40 46 21 55 20 54 15 95 16 96 1 156 1 157 -7 210 -7 210 -5 18 -5 17 -1507 0 -1507 0 10 -8z" transform="translate(0.000000,387.000000) scale(0.100000,-0.100000)"/></clipPath><clipPath id="piece-mask-100-3" shape-rendering="crispEdges"><path d="M942 3007 l-213 -10 6 -15 6 -16 6 -295 6 -296 -12 -102 -12 -102 -20 -73 -20 -73 -30 -52 -30 -53 -37 -29 -36 -30 -54 -13 -54 -12 -61 13 -62 12 -30 35 -30 34 -30 6 -30 5 -47 -30 -46 -29 -27 -45 -26 -45 -20 -59 -21 -58 -11 -88 -11 -87 12 -104 11 -104 21 -64 21 -63 35 -52 34 -52 31 -17 31 -16 25 7 24 6 17 29 17 30 29 10 29 10 49 0 50 0 28 -20 29 -20 25 -53 25 -52 16 -60 15 -60 36 -260 35 -260 23 -106 24 -106 24 -59 23 -59 1498 -3 1497 -2 0 1496 0 1497 -62 -7 -63 -7 -350 -9 -350 -10 -90 -14 -90 -14 -55 -21 -55 -21 -24 -35 -23 -35 0 -39 1 -39 27 -63 26 -64 16 -50 16 -50 0 -105 1 -105 -24 -59 -24 -59 -54 -54 -54 -55 -53 -23 -53 -23 -58 -11 -59 -11 -66 0 -66 0 -59 11 -60 11 -30 15 -30 15 -24 27 -24 26 -13 30 -13 31 -6 60 -7 60 12 93 12 92 30 112 30 112 11 48 11 48 -23 44 -24 45 -46 29 -46 29 -50 15 -50 16 -55 10 -55 11 -125 10 -125 10 -115 -2 -115 -2 -213 -9z" transform="translate(0.000000,302.000000) scale(0.100000,-0.100000)"/></clipPath><clipPath id="piece-mask-100-4" shape-rendering="crispEdges"><path d="M165 3852 l10 -7 -6 -150 -7 -150 -1 -165 -1 -165 15 -96 14 -96 21 -55 21 -56 34 -45 34 -45 48 -23 47 -23 60 1 61 1 45 12 45 12 25 23 25 23 23 11 23 12 55 0 54 0 38 -12 37 -12 42 -28 41 -29 41 -47 42 -48 30 -63 30 -62 16 -83 15 -82 -5 -68 -6 -69 -29 -61 -29 -62 -62 -62 -61 -62 -59 -35 -58 -36 -64 -29 -64 -30 -90 -26 -90 -27 -95 -5 -95 -5 -43 11 -43 12 -11 24 -11 24 -30 11 -30 10 -29 0 -29 0 -28 -15 -29 -14 -23 -48 -24 -48 -3 -128 -4 -128 17 -102 16 -102 25 -100 24 -100 48 -142 47 -143 11 4 11 4 404 7 404 7 59 -11 60 -11 44 -21 44 -22 19 -31 18 -30 6 -41 6 -40 -20 -79 -21 -78 -34 -39 -35 -38 -7 -35 -6 -36 7 -37 7 -37 18 -37 19 -36 46 -51 45 -50 70 -36 69 -37 77 -19 77 -20 91 0 92 0 59 15 59 16 35 21 36 22 21 20 21 21 19 35 19 35 -1 90 -1 90 -27 70 -28 70 -20 55 -20 55 11 37 11 37 31 25 30 25 62 20 63 19 89 11 90 11 255 10 255 10 140 12 140 12 33 1 32 0 -5 13 -5 14 0 1494 0 1494 -1502 0 -1503 0 10 -8z" transform="translate(0.000000,386.000000) scale(0.100000,-0.100000)"/></clipPath><clipPath id="piece-mask-100-5" shape-rendering="crispEdges"><path d="M1484 4130 l-51 -7 -39 -13 -39 -12 -42 -26 -42 -26 -23 -41 -23 -40 0 -95 0 -95 49 -140 49 -140 1 -90 1 -90 -19 -35 -19 -35 -21 -23 -21 -23 -47 -25 -48 -24 -67 -18 -68 -17 -461 3 -461 2 -6 -235 -7 -235 -6 -232 -7 -233 12 -74 12 -75 20 -45 20 -45 21 -20 21 -20 52 -4 51 -4 90 30 89 31 115 22 115 23 110 0 110 0 35 -16 35 -16 27 -29 27 -28 17 -40 17 -40 5 -107 5 -107 -7 -34 -6 -35 -35 -45 -34 -45 -68 -45 -68 -44 -67 -27 -66 -26 -64 -17 -63 -18 -120 0 -120 0 -30 18 -30 17 -28 22 -27 22 -65 4 -65 4 -34 -35 -34 -36 -17 -48 -17 -48 -5 -141 -5 -142 11 -133 12 -134 35 -252 34 -252 6 -14 5 -14 402 -7 402 -7 70 10 70 11 36 10 36 10 42 31 43 30 20 47 21 46 -6 90 -6 91 -19 67 -19 67 -37 41 -36 40 0 31 0 32 47 47 48 47 60 23 60 22 85 15 85 15 115 -4 115 -5 68 -26 67 -26 45 -31 45 -31 30 -32 31 -32 34 -70 35 -70 9 -60 9 -60 -9 -60 -10 -60 -37 -75 -37 -75 0 -59 0 -58 37 -32 37 -32 38 -13 38 -13 118 -5 118 -5 112 12 112 12 100 18 100 19 120 27 120 27 15 1 15 1 10 10 10 10 23 40 23 40 44 90 44 91 41 122 41 123 59 247 58 247 22 57 21 56 22 33 22 32 27 20 26 20 47 -1 48 -1 68 -42 68 -41 40 -5 40 -5 34 6 34 6 35 33 35 32 21 36 21 35 16 65 15 64 0 74 0 75 -22 45 -22 46 -51 51 -52 50 -74 36 -74 37 -65 17 -65 17 -85 0 -85 1 -41 -12 -41 -12 -37 -29 -37 -29 -39 -7 -40 -7 -37 19 -38 18 -22 33 -22 34 -19 51 -20 52 -16 95 -16 95 -7 153 -6 152 13 255 13 256 -6 6 -6 6 -123 -56 -123 -56 -100 -37 -100 -36 -130 -33 -130 -33 -93 -12 -92 -13 -81 6 -81 5 -46 24 -47 24 -20 37 -20 36 19 68 18 68 24 107 23 108 12 117 12 117 -7 90 -6 91 -15 63 -15 63 -27 57 -26 56 -41 44 -40 43 -44 26 -44 26 -57 13 -56 14 -50 -1 -50 -1 -51 -8z" transform="translate(0.000000,414.000000) scale(0.100000,-0.100000)"/></clipPath><clipPath id="piece-mask-100-6" shape-rendering="crispEdges"><path d="M1849 4185 l-47 -15 -32 -30 -32 -30 4 -52 5 -53 27 -75 28 -75 14 -65 14 -65 0 -105 0 -105 -15 -63 -15 -62 -30 -60 -31 -61 -40 -40 -41 -41 -55 -25 -55 -26 -197 6 -196 5 -54 17 -53 16 -25 26 -26 25 5 66 5 67 32 67 31 67 11 52 11 52 -4 76 -5 76 -20 40 -21 40 -39 36 -38 35 -28 18 -29 18 -56 19 -57 20 -40 9 -40 9 -105 11 -105 12 -252 -7 -253 -7 0 -1502 0 -1501 72 2 73 3 191 10 192 11 225 0 226 0 68 -11 68 -11 59 -16 59 -16 40 -38 40 -38 -6 -36 -6 -36 -31 -50 -31 -51 -16 -61 -16 -62 6 -105 6 -105 16 -60 17 -60 38 -80 37 -80 34 -37 34 -36 35 -21 35 -21 33 0 33 0 28 14 27 14 41 45 42 45 34 69 34 68 27 80 26 80 20 90 21 90 6 136 6 136 -13 51 -12 51 -22 23 -23 23 -12 22 -11 22 0 44 0 44 20 26 20 25 48 19 47 18 145 -1 145 -1 135 -26 135 -26 140 -40 140 -40 130 -45 129 -46 12 0 11 0 27 59 26 59 16 43 15 44 29 115 29 115 41 245 42 245 25 78 26 78 37 42 38 42 53 0 54 0 75 -39 75 -39 67 -5 67 -5 31 13 31 13 33 39 34 39 23 72 24 72 0 195 0 195 -14 47 -14 48 -32 35 -33 34 -27 7 -27 7 -86 -6 -87 -5 -121 -40 -120 -41 -51 -7 -50 -6 -54 15 -54 16 -37 38 -37 38 -26 57 -26 56 -17 74 -17 73 2 390 2 389 6 33 6 33 -14 0 -15 0 -158 46 -159 45 -130 29 -130 29 -90 17 -90 16 -165 4 -165 4 -46 -15z" transform="translate(0.000000,420.000000) scale(0.100000,-0.100000)"/></clipPath><clipPath id="piece-mask-100-7" shape-rendering="crispEdges"><path d="M1877 3210 l-38 -10 -29 -15 -29 -15 -15 -22 -16 -22 0 -44 0 -43 11 -22 12 -22 23 -23 22 -23 12 -51 13 -51 -6 -136 -6 -136 -21 -90 -20 -90 -26 -80 -27 -80 -34 -68 -34 -69 -42 -45 -41 -45 -27 -14 -28 -14 -33 0 -33 0 -35 21 -35 21 -34 36 -34 37 -37 80 -38 80 -17 60 -16 60 -6 105 -6 105 16 62 16 61 31 51 31 50 6 36 6 36 -40 38 -40 38 -59 16 -59 16 -68 11 -68 11 -226 0 -225 0 -192 -11 -191 -10 -70 -3 -70 -2 -3 -1492 -2 -1493 1496 0 1496 0 -6 88 -7 87 -9 370 -10 370 -14 71 -15 72 -24 48 -25 49 -30 18 -30 17 -33 0 -32 0 -91 -43 -91 -42 -95 0 -95 0 -50 31 -50 31 -32 42 -33 42 -22 72 -23 72 1 190 1 190 12 56 12 56 28 32 28 31 45 0 45 0 69 -34 69 -34 45 -13 45 -12 71 0 72 0 55 27 55 27 37 41 38 41 27 61 27 61 16 65 16 65 11 115 11 115 -7 250 -7 250 4 4 4 4 -125 44 -125 45 -154 44 -153 44 -137 26 -136 26 -130 4 -130 3 -38 -9z" transform="translate(0.000000,322.000000) scale(0.100000,-0.100000)"/></clipPath><clipPath id="piece-mask-100-8" shape-rendering="crispEdges"><path d="M1007 3233 l4 -58 8 -235 8 -235 -8 -130 -7 -130 -16 -75 -16 -75 -25 -51 -26 -52 -39 -36 -39 -35 -35 -6 -35 -7 -48 4 -48 5 -122 36 -122 36 -85 11 -85 10 -43 -6 -43 -7 -45 -18 -45 -19 -32 -48 -32 -47 -16 -65 -15 -65 0 -121 0 -122 20 -64 20 -64 36 -42 36 -43 47 -24 47 -23 62 -12 62 -11 63 7 62 6 65 14 65 14 99 31 98 31 40 -5 40 -5 25 -24 26 -23 19 -44 20 -44 14 -76 15 -76 10 -455 10 -455 1 -11 1 -12 388 -7 387 -7 73 7 74 7 63 14 62 14 48 24 47 25 21 23 21 23 19 35 19 35 -1 90 -1 90 -49 140 -49 140 0 95 0 95 23 40 23 41 42 26 42 26 52 15 52 16 78 6 79 7 60 -12 59 -12 39 -20 39 -20 47 -44 47 -44 31 -63 31 -63 15 -65 16 -64 6 -91 7 -90 -12 -117 -12 -117 -23 -108 -24 -107 -18 -68 -19 -68 20 -36 20 -37 47 -24 46 -24 81 -5 81 -6 92 13 93 12 130 33 130 33 100 37 100 36 127 57 128 57 0 15 0 15 -41 114 -40 115 -29 115 -29 116 -16 102 -17 102 4 128 3 128 24 48 23 48 29 14 28 15 29 0 29 0 30 -10 30 -11 11 -24 11 -24 43 -12 43 -11 95 5 95 5 90 27 90 26 64 30 64 29 58 36 59 35 61 62 62 62 29 62 29 61 6 69 5 68 -15 82 -16 83 -30 62 -30 63 -42 48 -41 47 -41 29 -42 28 -37 12 -38 12 -54 0 -55 0 -23 -12 -23 -11 -25 -23 -25 -23 -45 -12 -45 -12 -61 -1 -60 -1 -47 23 -48 23 -34 45 -34 45 -21 56 -21 55 -14 96 -15 96 1 165 1 165 7 150 6 150 -10 7 -10 8 -1491 0 -1490 0 3 -57z" transform="translate(0.000000,329.000000) scale(0.100000,-0.100000)"/></clipPath><clipPath id="piece-mask-100-9" shape-rendering="crispEdges"><path d="M163 3033 l-142 -4 -6 -32 -6 -33 -2 -389 -2 -390 17 -73 17 -74 26 -56 26 -57 37 -38 37 -38 54 -16 54 -15 50 6 51 7 120 41 121 40 87 5 86 6 27 -7 27 -7 33 -34 32 -35 14 -48 14 -47 0 -195 0 -195 -24 -72 -23 -72 -34 -39 -33 -39 -31 -13 -31 -13 -67 5 -67 5 -75 39 -75 39 -54 0 -53 0 -38 -42 -37 -42 -26 -78 -25 -78 -42 -245 -41 -245 -29 -115 -29 -116 -24 -65 -25 -65 -21 -42 -21 -41 0 -3 0 -3 288 -3 287 -4 107 11 107 12 77 19 77 20 56 25 55 26 47 50 47 49 14 38 13 37 -1 75 -1 75 -22 45 -22 45 -25 45 -24 44 0 33 0 34 14 32 13 33 39 38 39 38 55 25 55 25 65 14 65 14 56 0 56 0 46 -14 45 -14 46 -33 47 -33 29 -44 30 -45 20 -55 21 -55 0 -78 0 -77 -11 -44 -12 -43 -31 -65 -30 -65 -5 -57 -4 -58 39 -39 39 -39 54 -16 54 -16 120 -12 120 -11 300 12 301 11 124 0 123 0 -6 15 -6 16 -34 252 -35 252 -12 134 -11 133 5 142 5 141 17 48 17 48 34 36 34 35 65 -4 65 -4 27 -22 28 -22 30 -17 30 -18 120 0 120 0 63 18 64 17 66 26 67 27 68 44 68 45 34 45 35 45 6 35 7 34 -5 107 -5 107 -17 40 -17 40 -27 28 -27 29 -35 16 -35 16 -110 0 -110 0 -115 -23 -115 -22 -89 -31 -90 -30 -51 4 -52 4 -21 20 -21 20 -20 45 -20 45 -12 75 -12 74 7 235 6 235 7 232 6 231 -94 -35 -94 -35 -111 -29 -111 -28 -274 -46 -274 -46 -58 -15 -59 -15 -52 -23 -52 -23 -22 -27 -21 -27 -6 -30 -7 -31 12 -42 12 -41 31 -20 32 -20 9 -27 9 -26 -13 -49 -14 -48 -60 -61 -61 -61 -60 -23 -60 -23 -91 -5 -91 -4 -87 11 -87 12 -62 19 -62 19 -41 27 -41 27 -17 27 -16 28 0 27 0 26 14 27 14 27 21 19 20 18 17 76 17 75 -6 68 -6 68 -19 45 -20 44 -42 42 -42 42 -63 30 -64 29 -93 20 -93 20 -180 3 -180 3 -142 -4z" transform="translate(0.000000,304.000000) scale(0.100000,-0.100000)"/></clipPath><clipPath id="piece-mask-100-10" shape-rendering="crispEdges"><path d="M0 2370 l0 -1500 308 3 307 2 78 -13 78 -14 68 -23 69 -23 28 -18 29 -18 38 -35 39 -36 21 -40 20 -40 5 -76 4 -76 -11 -52 -11 -52 -31 -67 -32 -67 -5 -67 -5 -66 26 -25 25 -26 53 -16 54 -17 196 -5 197 -6 55 26 55 25 41 41 40 40 31 61 30 60 15 62 15 63 0 105 0 105 -14 65 -14 65 -28 75 -27 75 -5 53 -4 52 32 30 32 30 56 16 56 17 155 -6 156 -5 90 -16 90 -17 130 -29 130 -29 159 -45 158 -46 21 0 20 0 -6 6 -5 6 19 56 20 57 29 120 29 120 20 130 21 130 25 180 24 180 21 79 20 79 26 44 26 44 31 20 32 20 40 -4 40 -4 90 -44 89 -44 67 0 67 0 43 30 43 31 28 39 28 40 16 65 17 65 -6 130 -5 130 -17 75 -17 75 -20 40 -20 40 -26 27 -25 27 -27 6 -28 6 -37 -15 -37 -16 -28 -24 -29 -24 -69 -12 -69 -13 -85 5 -85 4 -55 27 -56 27 -40 44 -41 44 -26 52 -26 52 -20 76 -19 75 -10 136 -9 136 7 205 7 205 -10 7 -10 8 -1492 0 -1493 0 0 -1500z" transform="translate(0.000000,387.000000) scale(0.100000,-0.100000)"/></clipPath><clipPath id="piece-mask-100-11" shape-rendering="crispEdges"><path d="M220 3990 l-195 -6 -1 -2 -1 -2 -13 -270 -13 -269 6 -148 7 -148 16 -95 16 -95 20 -52 19 -51 22 -34 22 -33 38 -18 37 -19 40 7 39 7 37 29 37 29 41 12 41 12 85 -1 85 0 65 -17 65 -17 74 -37 74 -36 52 -50 51 -51 22 -46 22 -45 0 -75 0 -74 -15 -64 -16 -65 -21 -35 -21 -36 -35 -32 -35 -33 -34 -6 -34 -6 -40 5 -40 5 -68 41 -68 42 -48 1 -47 1 -26 -20 -27 -20 -22 -32 -22 -33 -21 -56 -22 -57 -58 -247 -59 -247 -41 -123 -41 -122 -44 -91 -44 -90 -22 -37 -23 -38 7 -6 7 -7 292 13 293 12 147 -11 147 -11 68 -14 68 -15 42 -15 41 -14 40 -27 40 -26 23 -44 23 -44 -11 -48 -11 -48 -30 -112 -30 -112 -12 -92 -12 -93 7 -60 6 -60 13 -31 13 -30 24 -26 24 -27 30 -15 30 -15 60 -11 59 -11 66 0 66 0 59 11 58 11 53 23 53 23 54 55 54 54 24 59 24 59 -1 105 0 105 -16 50 -16 50 -26 64 -27 63 -1 39 0 39 23 35 24 35 55 21 55 21 90 14 90 14 350 10 350 9 63 7 63 7 -5 14 -6 15 0 1485 0 1485 -42 -6 -43 -6 -115 -10 -115 -10 -268 -10 -268 -11 -82 -10 -82 -9 -67 -20 -67 -20 -30 -26 -31 -25 -11 -37 -11 -37 20 -55 20 -55 28 -70 27 -70 1 -90 1 -90 -19 -35 -19 -35 -21 -21 -21 -20 -36 -22 -35 -21 -59 -16 -59 -15 -92 0 -91 0 -77 20 -77 19 -69 37 -70 36 -45 50 -46 51 -19 36 -18 37 -7 37 -7 37 6 36 7 35 35 38 34 39 21 78 20 79 -6 40 -6 41 -18 30 -19 31 -44 21 -44 22 -53 10 -54 10 -226 -2 -226 -2 -195 -6z" transform="translate(0.000000,400.000000) scale(0.100000,-0.100000)"/></clipPath></defs></svg>