<?xml version="1.0" standalone="no"?>
<!DOCTYPE svg PUBLIC "-//W3C//DTD SVG 20010904//EN"
 "http://www.w3.org/TR/2001/REC-SVG-20010904/DTD/svg10.dtd">
<svg version="1.0" xmlns="http://www.w3.org/2000/svg"
 width="33.000000pt" height="40.000000pt" viewBox="0 0 33.000000 40.000000"
 preserveAspectRatio="xMidYMid meet">
<metadata>
Created by potrace 1.16, written by Peter Selinger 2001-2019
</metadata>
<g transform="translate(0.000000,40.000000) scale(0.100000,-0.100000)"
fill="#000000" stroke="none">
<path d="M7 393 l-7 -6 0 -42 0 -41 13 -19 14 -18 26 5 27 5 0 -29 0 -28 -24
-9 -23 -9 -12 -46 -11 -45 0 -22 0 -21 45 6 45 7 0 -30 0 -30 19 -11 20 -10
25 0 25 0 11 19 10 20 0 22 0 22 49 -6 49 -6 6 16 6 16 -11 36 -11 36 -8 15
-7 15 -24 5 -24 6 0 19 0 20 37 3 38 3 4 22 5 22 5 48 6 47 -159 0 -158 0 -6
-7z"/>
</g>
</svg>
