<?xml version="1.0" standalone="no"?>
<!DOCTYPE svg PUBLIC "-//W3C//DTD SVG 20010904//EN"
 "http://www.w3.org/TR/2001/REC-SVG-20010904/DTD/svg10.dtd">
<svg version="1.0" xmlns="http://www.w3.org/2000/svg"
 width="31.000000pt" height="38.000000pt" viewBox="0 0 31.000000 38.000000"
 preserveAspectRatio="xMidYMid meet">
<metadata>
Created by potrace 1.16, written by Peter Selinger 2001-2019
</metadata>
<g transform="translate(0.000000,38.000000) scale(0.100000,-0.100000)"
fill="#000000" stroke="none">
<path d="M7 373 l-7 -6 0 -29 0 -29 11 -20 10 -20 30 6 29 7 0 -41 0 -40 -12
-8 -13 -8 -10 0 -9 0 -12 -40 -12 -40 -1 -17 -1 -18 44 6 45 7 3 -34 3 -34 28
-10 29 -10 14 20 15 20 -6 23 -6 24 56 -4 55 -3 3 10 4 10 -10 30 -10 30 -7
15 -7 15 -16 0 -16 0 -11 11 -12 12 4 23 3 24 37 3 38 3 4 22 5 22 4 38 3 37
-146 0 -147 0 -6 -7z"/>
</g>
</svg>
