<?xml version="1.0" standalone="no"?>
<!DOCTYPE svg PUBLIC "-//W3C//DTD SVG 20010904//EN"
 "http://www.w3.org/TR/2001/REC-SVG-20010904/DTD/svg10.dtd">
<svg version="1.0" xmlns="http://www.w3.org/2000/svg"
 width="43.000000pt" height="32.000000pt" viewBox="0 0 43.000000 32.000000"
 preserveAspectRatio="xMidYMid meet">
<metadata>
Created by potrace 1.16, written by Peter Selinger 2001-2019
</metadata>
<g transform="translate(0.000000,32.000000) scale(0.100000,-0.100000)"
fill="#000000" stroke="none">
<path d="M100 274 l0 -45 -12 -12 -13 -12 -35 0 -35 0 0 -30 0 -30 26 3 25 3
19 -63 18 -63 -1 -10 -2 -11 43 4 42 3 23 5 23 5 -3 41 -2 42 12 4 13 4 15
-13 16 -13 -7 -33 -6 -32 23 -5 23 -5 47 -3 47 -3 15 49 16 48 0 25 0 25 -33
-6 -33 -6 -32 11 -32 11 0 13 0 13 14 11 14 12 35 -6 35 -7 4 61 3 61 -152 0
-153 0 0 -46z"/>
</g>
</svg>
