<?xml version="1.0" standalone="no"?>
<!DOCTYPE svg PUBLIC "-//W3C//DTD SVG 20010904//EN"
 "http://www.w3.org/TR/2001/REC-SVG-20010904/DTD/svg10.dtd">
<svg version="1.0" xmlns="http://www.w3.org/2000/svg"
 width="44.000000pt" height="51.000000pt" viewBox="0 0 44.000000 51.000000"
 preserveAspectRatio="xMidYMid meet">
<metadata>
Created by potrace 1.16, written by Peter Selinger 2001-2019
</metadata>
<g transform="translate(0.000000,51.000000) scale(0.100000,-0.100000)"
fill="#000000" stroke="none">
<path d="M165 500 l-6 -10 3 -28 3 -27 -65 -5 -65 -5 -3 -58 -3 -59 12 -14 11
-14 40 0 40 0 -4 -12 -5 -13 -61 -3 -62 -3 0 -31 0 -31 12 -38 11 -39 31 0 31
0 23 -6 22 -6 0 -43 0 -43 35 -6 34 -7 25 17 25 16 7 34 6 34 -6 15 -5 15 8 0
8 0 31 -11 32 -11 16 16 16 16 -11 32 -11 31 0 13 0 14 31 0 30 0 20 10 19 11
0 30 0 30 -14 15 -15 14 -23 -2 -23 -3 -3 47 -3 46 -42 7 -42 6 -17 5 -17 5 6
15 5 14 -12 15 -12 15 -29 0 -28 0 -6 -10z"/>
</g>
</svg>
