<?xml version="1.0" standalone="no"?>
<!DOCTYPE svg PUBLIC "-//W3C//DTD SVG 20010904//EN"
 "http://www.w3.org/TR/2001/REC-SVG-20010904/DTD/svg10.dtd">
<svg version="1.0" xmlns="http://www.w3.org/2000/svg"
 width="45.000000pt" height="41.000000pt" viewBox="0 0 45.000000 41.000000"
 preserveAspectRatio="xMidYMid meet">
<metadata>
Created by potrace 1.16, written by Peter Selinger 2001-2019
</metadata>
<g transform="translate(0.000000,41.000000) scale(0.100000,-0.100000)"
fill="#000000" stroke="none">
<path d="M210 390 l-20 -20 6 -27 7 -26 -62 6 -61 5 0 -49 0 -49 -28 0 -28 0
-12 -12 -12 -12 0 -21 0 -22 20 -18 19 -17 26 4 25 5 0 -36 0 -36 -10 -15 -9
-15 17 -7 17 -7 42 0 41 -1 5 13 4 12 -8 16 -9 17 15 12 14 12 23 -4 23 -3 -2
-42 -2 -42 19 -6 19 -6 41 11 40 11 10 -6 10 -6 -1 23 -1 23 12 45 12 45 19
17 19 16 0 24 0 23 -32 0 -33 0 -3 53 -3 52 -23 0 -23 0 -32 6 -32 7 3 25 3
25 -23 8 -22 9 -20 -20z"/>
</g>
</svg>
