<?xml version="1.0" standalone="no"?>
<!DOCTYPE svg PUBLIC "-//W3C//DTD SVG 20010904//EN"
 "http://www.w3.org/TR/2001/REC-SVG-20010904/DTD/svg10.dtd">
<svg version="1.0" xmlns="http://www.w3.org/2000/svg"
 width="47.000000pt" height="43.000000pt" viewBox="0 0 47.000000 43.000000"
 preserveAspectRatio="xMidYMid meet">
<metadata>
Created by potrace 1.16, written by Peter Selinger 2001-2019
</metadata>
<g transform="translate(0.000000,43.000000) scale(0.100000,-0.100000)"
fill="#000000" stroke="none">
<path d="M209 409 l-21 -21 5 -25 5 -25 -59 6 -59 7 0 -51 0 -50 -28 0 -28 0
-12 -12 -12 -12 0 -31 0 -32 18 -16 19 -17 27 0 28 0 -5 -27 -5 -28 -7 -21 -7
-21 24 -6 23 -7 48 0 47 0 2 13 1 12 1 25 1 25 20 0 20 0 -3 -42 -3 -41 21 -7
21 -7 42 8 42 8 15 -2 15 -2 13 67 12 68 20 17 20 16 0 36 0 36 -32 -2 -33 -3
-3 53 -3 52 -23 0 -23 0 -32 6 -31 6 6 24 6 24 -27 10 -26 10 -10 0 -9 0 -21
-21z"/>
</g>
</svg>
