<?xml version="1.0" standalone="no"?>
<!DOCTYPE svg PUBLIC "-//W3C//DTD SVG 20010904//EN"
 "http://www.w3.org/TR/2001/REC-SVG-20010904/DTD/svg10.dtd">
<svg version="1.0" xmlns="http://www.w3.org/2000/svg"
 width="33.000000pt" height="41.000000pt" viewBox="0 0 33.000000 41.000000"
 preserveAspectRatio="xMidYMid meet">
<metadata>
Created by potrace 1.16, written by Peter Selinger 2001-2019
</metadata>
<g transform="translate(0.000000,41.000000) scale(0.100000,-0.100000)"
fill="#000000" stroke="none">
<path d="M136 394 l-16 -15 0 -31 0 -31 -54 7 -54 6 -6 -23 -6 -22 0 -30 0
-30 8 -11 7 -12 39 2 38 1 12 -18 11 -18 -20 -12 -20 -12 -25 0 -25 0 -6 -30
-7 -30 -1 -42 -1 -43 70 0 70 0 -2 42 -3 42 18 4 17 3 0 -20 0 -20 20 -11 21
-11 49 -6 50 -6 -1 19 -1 19 -17 50 -18 50 -22 3 -22 4 3 16 3 16 40 0 40 1 3
68 3 67 -29 0 -29 0 -32 6 -31 7 0 23 0 23 -19 11 -20 10 -10 0 -10 0 -15 -16z"/>
</g>
</svg>
