<?xml version="1.0" standalone="no"?>
<!DOCTYPE svg PUBLIC "-//W3C//DTD SVG 20010904//EN"
 "http://www.w3.org/TR/2001/REC-SVG-20010904/DTD/svg10.dtd">
<svg version="1.0" xmlns="http://www.w3.org/2000/svg"
 width="31.000000pt" height="39.000000pt" viewBox="0 0 31.000000 39.000000"
 preserveAspectRatio="xMidYMid meet">
<metadata>
Created by potrace 1.16, written by Peter Selinger 2001-2019
</metadata>
<g transform="translate(0.000000,39.000000) scale(0.100000,-0.100000)"
fill="#000000" stroke="none">
<path d="M135 374 l-16 -17 3 -26 3 -26 -57 0 -58 1 -6 -32 -6 -32 6 -19 6
-19 35 4 35 4 15 -12 15 -12 0 -23 0 -22 -23 -12 -24 -13 -19 4 -18 3 -7 -30
-7 -30 -1 -32 -1 -33 59 0 60 0 -6 36 -6 37 17 12 17 13 20 -5 20 -5 -6 -19
-6 -18 19 -10 19 -10 43 -7 42 -7 -7 24 -8 24 -12 35 -12 35 -22 3 -22 4 3 26
3 27 40 0 40 0 3 58 3 57 -29 0 -29 0 -32 6 -31 7 0 23 0 23 -19 11 -20 10
-16 -16z"/>
</g>
</svg>
