<?xml version="1.0" standalone="no"?>
<!DOCTYPE svg PUBLIC "-//W3C//DTD SVG 20010904//EN"
 "http://www.w3.org/TR/2001/REC-SVG-20010904/DTD/svg10.dtd">
<svg version="1.0" xmlns="http://www.w3.org/2000/svg"
 width="43.000000pt" height="38.000000pt" viewBox="0 0 43.000000 38.000000"
 preserveAspectRatio="xMidYMid meet">
<metadata>
Created by potrace 1.16, written by Peter Selinger 2001-2019
</metadata>
<g transform="translate(0.000000,38.000000) scale(0.100000,-0.100000)"
fill="#000000" stroke="none">
<path d="M144 362 l6 -19 -6 -17 -6 -16 -54 0 -54 0 0 -55 0 -55 24 -6 23 -5
19 3 19 3 3 -30 4 -29 -16 -12 -16 -11 -47 5 -46 5 7 -54 7 -54 4 -4 5 -4 50
-5 50 -5 15 13 16 13 -6 28 -6 28 21 11 22 12 14 -6 14 -5 0 -25 0 -26 28 -6
27 -6 29 -9 28 -9 -6 23 -7 22 -6 37 -5 37 63 3 64 3 0 25 0 25 -33 -3 -33 -4
-15 12 -14 12 0 49 0 49 -57 -2 -58 -3 -5 40 -5 40 -33 3 -34 3 6 -19z"/>
</g>
</svg>
