<?xml version="1.0" standalone="no"?>
<!DOCTYPE svg PUBLIC "-//W3C//DTD SVG 20010904//EN"
 "http://www.w3.org/TR/2001/REC-SVG-20010904/DTD/svg10.dtd">
<svg version="1.0" xmlns="http://www.w3.org/2000/svg"
 width="48.000000pt" height="38.000000pt" viewBox="0 0 48.000000 38.000000"
 preserveAspectRatio="xMidYMid meet">
<metadata>
Created by potrace 1.16, written by Peter Selinger 2001-2019
</metadata>
<g transform="translate(0.000000,38.000000) scale(0.100000,-0.100000)"
fill="#000000" stroke="none">
<path d="M221 362 l-9 -18 1 -19 2 -20 -62 2 -62 1 -3 -46 -3 -47 -42 -3 -43
-3 0 -40 0 -39 13 -1 12 -1 15 -2 14 -1 9 -35 9 -35 10 -27 10 -27 56 3 56 4
13 18 14 19 -5 18 -4 17 16 0 17 0 12 -8 11 -7 4 -30 3 -30 52 -3 52 -3 -6 28
-7 28 0 40 -1 40 38 -3 38 -4 15 12 14 13 -11 13 -11 14 -34 0 -34 0 0 60 0
60 -61 -7 -62 -6 6 29 5 29 -9 17 -10 18 -14 0 -14 0 -10 -18z"/>
</g>
</svg>
