<?xml version="1.0" standalone="no"?>
<!DOCTYPE svg PUBLIC "-//W3C//DTD SVG 20010904//EN"
 "http://www.w3.org/TR/2001/REC-SVG-20010904/DTD/svg10.dtd">
<svg version="1.0" xmlns="http://www.w3.org/2000/svg"
 width="50.000000pt" height="42.000000pt" viewBox="0 0 50.000000 42.000000"
 preserveAspectRatio="xMidYMid meet">
<metadata>
Created by potrace 1.16, written by Peter Selinger 2001-2019
</metadata>
<g transform="translate(0.000000,42.000000) scale(0.100000,-0.100000)"
fill="#000000" stroke="none">
<path d="M210 405 l-12 -15 6 -30 6 -30 -23 -1 -22 -1 -37 2 -37 1 -3 -53 -3
-53 -40 -5 -40 -5 -3 -37 -3 -37 28 -3 27 -3 8 -40 8 -40 11 -27 11 -28 70 0
69 0 -3 35 -2 35 12 12 12 12 0 -24 0 -25 9 -13 8 -13 77 -6 76 -6 -2 29 -2
29 2 33 2 33 11 -6 10 -7 23 6 24 6 6 23 5 23 -8 29 -8 30 -26 0 -27 1 -9 9
-10 10 -3 35 -3 35 -55 0 -55 0 -3 35 -4 35 -10 12 -10 13 -23 0 -23 0 -12
-15z"/>
</g>
</svg>
