<?xml version="1.0" standalone="no"?>
<!DOCTYPE svg PUBLIC "-//W3C//DTD SVG 20010904//EN"
 "http://www.w3.org/TR/2001/REC-SVG-20010904/DTD/svg10.dtd">
<svg version="1.0" xmlns="http://www.w3.org/2000/svg"
 width="50.000000pt" height="42.000000pt" viewBox="0 0 50.000000 42.000000"
 preserveAspectRatio="xMidYMid meet">
<metadata>
Created by potrace 1.16, written by Peter Selinger 2001-2019
</metadata>
<g transform="translate(0.000000,42.000000) scale(0.100000,-0.100000)"
fill="#000000" stroke="none">
<path d="M230 375 l0 -45 -32 -1 -33 -2 -35 -1 -35 -1 -3 -46 -3 -45 -30 4
-29 4 -15 -12 -15 -12 0 -29 0 -28 19 -11 20 -10 37 0 37 0 -7 -39 -6 -39 -6
-15 -5 -14 23 -7 23 -6 44 0 44 0 -6 36 -6 35 6 15 5 14 23 0 24 0 8 -13 8
-12 0 -45 0 -45 38 1 38 1 24 13 23 12 -14 34 -14 33 0 20 0 19 39 -5 38 -5
22 11 21 12 0 33 0 34 -14 11 -14 11 -33 -2 -34 -3 -3 42 -3 43 -17 9 -17 8
-48 7 -48 7 3 22 2 22 -7 13 -8 12 -15 0 -14 0 0 -45z"/>
</g>
</svg>
