<?xml version="1.0" standalone="no"?>
<!DOCTYPE svg PUBLIC "-//W3C//DTD SVG 20010904//EN"
 "http://www.w3.org/TR/2001/REC-SVG-20010904/DTD/svg10.dtd">
<svg version="1.0" xmlns="http://www.w3.org/2000/svg"
 width="52.000000pt" height="44.000000pt" viewBox="0 0 52.000000 44.000000"
 preserveAspectRatio="xMidYMid meet">
<metadata>
Created by potrace 1.16, written by Peter Selinger 2001-2019
</metadata>
<g transform="translate(0.000000,44.000000) scale(0.100000,-0.100000)"
fill="#000000" stroke="none">
<path d="M230 395 l0 -44 -67 -3 -68 -3 -3 -42 -3 -43 -33 0 -32 0 -12 -12
-12 -12 0 -38 0 -37 19 -11 20 -10 36 0 37 0 -6 -26 -7 -26 -5 -28 -6 -27 24
-6 23 -7 53 0 54 0 -2 38 -2 37 1 13 1 12 14 0 15 0 7 -12 8 -12 -3 -43 -2
-43 16 -6 15 -6 43 6 42 7 19 14 19 14 -17 41 -16 40 0 5 0 5 41 0 40 0 20 10
19 11 0 43 0 44 -14 12 -15 12 -33 -4 -33 -3 -3 42 -3 43 -17 9 -17 8 -48 7
-48 7 6 20 7 20 -12 14 -12 15 -24 0 -24 0 0 -45z"/>
</g>
</svg>
