<?xml version="1.0" standalone="no"?>
<!DOCTYPE svg PUBLIC "-//W3C//DTD SVG 20010904//EN"
 "http://www.w3.org/TR/2001/REC-SVG-20010904/DTD/svg10.dtd">
<svg version="1.0" xmlns="http://www.w3.org/2000/svg"
 width="34.000000pt" height="51.000000pt" viewBox="0 0 34.000000 51.000000"
 preserveAspectRatio="xMidYMid meet">
<metadata>
Created by potrace 1.16, written by Peter Selinger 2001-2019
</metadata>
<g transform="translate(0.000000,51.000000) scale(0.100000,-0.100000)"
fill="#000000" stroke="none">
<path d="M125 491 l-6 -19 7 -26 6 -26 -13 -1 -14 -1 -49 2 -49 2 5 -58 5 -57
18 -13 19 -14 28 0 28 0 0 -9 0 -10 -22 -7 -23 -8 -33 3 -32 3 1 -76 1 -76 43
0 43 0 16 -6 16 -6 0 -28 0 -28 6 -16 6 -16 38 0 38 0 16 25 16 24 0 30 0 30
50 -6 50 -6 0 157 0 157 -57 -3 -58 -3 3 38 4 38 -12 14 -12 15 -39 0 -38 0
-6 -19z"/>
</g>
</svg>
