<?xml version="1.0" standalone="no"?>
<!DOCTYPE svg PUBLIC "-//W3C//DTD SVG 20010904//EN"
 "http://www.w3.org/TR/2001/REC-SVG-20010904/DTD/svg10.dtd">
<svg version="1.0" xmlns="http://www.w3.org/2000/svg"
 width="42.000000pt" height="40.000000pt" viewBox="0 0 42.000000 40.000000"
 preserveAspectRatio="xMidYMid meet">
<metadata>
Created by potrace 1.16, written by Peter Selinger 2001-2019
</metadata>
<g transform="translate(0.000000,40.000000) scale(0.100000,-0.100000)"
fill="#000000" stroke="none">
<path d="M84 349 l0 -51 -19 -14 -18 -14 -24 6 -23 6 0 -31 0 -30 21 -11 20
-11 27 3 27 3 -1 -30 0 -30 -8 -37 -8 -37 48 -3 49 -3 -3 -24 -2 -25 12 -8 13
-8 36 0 35 0 12 12 12 12 0 34 0 34 23 -5 22 -6 36 -6 36 -7 7 32 6 33 0 38 0
38 -42 3 -43 3 -3 18 -3 17 30 0 30 0 11 20 11 21 -3 52 -3 52 -161 3 -160 2
0 -51z"/>
</g>
</svg>
