<?xml version="1.0" standalone="no"?>
<!DOCTYPE svg PUBLIC "-//W3C//DTD SVG 20010904//EN"
 "http://www.w3.org/TR/2001/REC-SVG-20010904/DTD/svg10.dtd">
<svg version="1.0" xmlns="http://www.w3.org/2000/svg"
 width="42.000000pt" height="41.000000pt" viewBox="0 0 42.000000 41.000000"
 preserveAspectRatio="xMidYMid meet">
<metadata>
Created by potrace 1.16, written by Peter Selinger 2001-2019
</metadata>
<g transform="translate(0.000000,41.000000) scale(0.100000,-0.100000)"
fill="#000000" stroke="none">
<path d="M219 403 l-1 -8 2 -36 1 -36 -23 -7 -23 -6 -37 0 -38 0 0 -50 0 -49
-30 6 -31 6 -19 -18 -20 -18 0 -18 0 -18 20 -11 21 -11 21 7 20 6 9 -13 9 -14
0 -55 0 -55 56 5 57 5 2 33 3 32 12 15 12 15 24 0 23 0 10 -18 9 -17 -5 -26
-5 -25 15 -12 14 -12 45 6 45 6 -4 52 -5 51 -4 13 -4 13 -22 -2 -23 -3 -12 7
-13 8 0 19 0 19 17 10 17 9 22 -8 22 -9 6 15 6 16 0 43 0 44 -71 -6 -70 -6 6
35 7 36 -11 21 -12 21 -24 0 -25 0 -1 -7z"/>
</g>
</svg>
