<?xml version="1.0" standalone="no"?>
<!DOCTYPE svg PUBLIC "-//W3C//DTD SVG 20010904//EN"
 "http://www.w3.org/TR/2001/REC-SVG-20010904/DTD/svg10.dtd">
<svg version="1.0" xmlns="http://www.w3.org/2000/svg"
 width="43.000000pt" height="42.000000pt" viewBox="0 0 43.000000 42.000000"
 preserveAspectRatio="xMidYMid meet">
<metadata>
Created by potrace 1.16, written by Peter Selinger 2001-2019
</metadata>
<g transform="translate(0.000000,42.000000) scale(0.100000,-0.100000)"
fill="#000000" stroke="none">
<path d="M141 411 l-14 -9 6 -30 6 -29 -12 -12 -11 -11 -58 0 -58 0 0 -58 0
-58 12 -12 12 -12 29 0 28 0 -3 -17 -3 -18 -27 -3 -27 -3 -7 -34 -6 -33 -1
-33 -2 -34 47 -3 47 -3 21 11 20 11 0 39 0 40 19 0 20 0 7 -12 8 -12 6 -36 5
-35 68 -3 68 -3 -7 38 -6 38 -2 10 -1 9 43 6 42 6 11 11 10 10 -3 39 -3 39
-45 5 -45 5 -3 54 -3 53 -35 -6 -34 -6 -34 -6 -34 -6 5 39 5 40 -11 22 -12 21
-12 0 -12 0 -14 -9z"/>
</g>
</svg>
