<?xml version="1.0" standalone="no"?>
<!DOCTYPE svg PUBLIC "-//W3C//DTD SVG 20010904//EN"
 "http://www.w3.org/TR/2001/REC-SVG-20010904/DTD/svg10.dtd">
<svg version="1.0" xmlns="http://www.w3.org/2000/svg"
 width="41.000000pt" height="40.000000pt" viewBox="0 0 41.000000 40.000000"
 preserveAspectRatio="xMidYMid meet">
<metadata>
Created by potrace 1.16, written by Peter Selinger 2001-2019
</metadata>
<g transform="translate(0.000000,40.000000) scale(0.100000,-0.100000)"
fill="#000000" stroke="none">
<path d="M142 391 l-13 -8 7 -27 6 -26 -12 -15 -12 -15 -59 0 -59 0 0 -48 0
-48 12 -12 12 -12 28 0 28 0 0 -19 0 -19 -6 -16 -6 -16 -23 6 -24 6 -6 -34 -5
-33 -3 -25 -2 -25 37 -3 37 -3 21 11 21 11 -3 37 -3 37 29 3 28 4 11 -11 10
-10 6 -38 6 -38 57 -3 56 -3 -9 38 -8 38 4 16 5 16 29 -5 29 -4 21 12 22 11
-3 32 -3 32 -45 5 -45 5 -3 54 -3 53 -22 -6 -22 -7 -48 -6 -49 -6 7 44 6 44
-13 17 -13 18 -13 -9z"/>
</g>
</svg>
