<?xml version="1.0" standalone="no"?>
<!DOCTYPE svg PUBLIC "-//W3C//DTD SVG 20010904//EN"
 "http://www.w3.org/TR/2001/REC-SVG-20010904/DTD/svg10.dtd">
<svg version="1.0" xmlns="http://www.w3.org/2000/svg"
 width="34.000000pt" height="42.000000pt" viewBox="0 0 34.000000 42.000000"
 preserveAspectRatio="xMidYMid meet">
<metadata>
Created by potrace 1.16, written by Peter Selinger 2001-2019
</metadata>
<g transform="translate(0.000000,42.000000) scale(0.100000,-0.100000)"
fill="#000000" stroke="none">
<path d="M135 409 l-7 -10 6 -22 5 -22 -8 -14 -9 -14 -57 -5 -56 -5 3 -61 3
-61 45 -5 45 -5 3 -22 3 -22 -21 -11 -21 -11 -29 6 -29 6 -6 -23 -6 -23 8 -40
9 -40 47 -3 46 -3 20 10 20 11 3 27 3 28 10 0 10 0 3 -22 3 -23 27 -6 27 -5
42 -10 42 -9 5 0 6 0 0 39 0 39 -6 31 -6 31 -33 0 -33 0 -6 16 -6 16 0 3 0 4
43 3 42 3 9 43 9 43 -11 24 -11 24 -51 -6 -50 -6 0 41 0 41 -16 15 -15 16 -24
0 -24 0 -6 -11z"/>
</g>
</svg>
