<?xml version="1.0" standalone="no"?>
<!DOCTYPE svg PUBLIC "-//W3C//DTD SVG 20010904//EN"
 "http://www.w3.org/TR/2001/REC-SVG-20010904/DTD/svg10.dtd">
<svg version="1.0" xmlns="http://www.w3.org/2000/svg"
 width="42.000000pt" height="41.000000pt" viewBox="0 0 42.000000 41.000000"
 preserveAspectRatio="xMidYMid meet">
<metadata>
Created by potrace 1.16, written by Peter Selinger 2001-2019
</metadata>
<g transform="translate(0.000000,41.000000) scale(0.100000,-0.100000)"
fill="#000000" stroke="none">
<path d="M224 377 l6 -33 -12 -17 -13 -16 -50 -3 -50 -3 -3 -20 -3 -20 -5 -23
-5 -23 -32 2 -32 3 -13 -8 -12 -7 0 -24 0 -25 24 -16 25 -15 23 3 23 3 3 -65
3 -65 57 5 57 5 0 40 0 40 28 3 27 3 1 -13 2 -13 1 -30 1 -30 59 -3 59 -3 8 8
8 8 -15 52 -15 52 -22 3 -22 3 -3 23 -4 24 18 19 18 20 28 -6 28 -7 0 31 0 30
-10 25 -10 26 -40 0 -41 0 -20 11 -20 10 6 20 7 20 -12 14 -12 15 -25 0 -25 0
6 -33z"/>
</g>
</svg>
