<?xml version="1.0" standalone="no"?>
<!DOCTYPE svg PUBLIC "-//W3C//DTD SVG 20010904//EN"
 "http://www.w3.org/TR/2001/REC-SVG-20010904/DTD/svg10.dtd">
<svg version="1.0" xmlns="http://www.w3.org/2000/svg"
 width="44.000000pt" height="43.000000pt" viewBox="0 0 44.000000 43.000000"
 preserveAspectRatio="xMidYMid meet">
<metadata>
Created by potrace 1.16, written by Peter Selinger 2001-2019
</metadata>
<g transform="translate(0.000000,43.000000) scale(0.100000,-0.100000)"
fill="#000000" stroke="none">
<path d="M222 390 l2 -40 -10 -9 -9 -10 -50 -3 -50 -3 -3 -20 -3 -20 -5 -24
-5 -23 -31 6 -31 6 -13 -11 -14 -11 0 -34 0 -33 22 -15 22 -16 28 0 28 0 0
-64 0 -65 58 6 57 5 13 4 14 4 -4 37 -3 38 17 3 17 3 3 -43 3 -43 73 -3 72 -3
6 14 5 15 -16 56 -16 56 -20 0 -20 0 -6 15 -5 16 16 18 16 18 30 -5 30 -4 0
40 0 41 -10 25 -10 26 -39 0 -39 0 -16 6 -16 6 0 27 0 27 -12 12 -12 12 -33 0
-34 0 3 -40z"/>
</g>
</svg>
