<?xml version="1.0" standalone="no"?>
<!DOCTYPE svg PUBLIC "-//W3C//DTD SVG 20010904//EN"
 "http://www.w3.org/TR/2001/REC-SVG-20010904/DTD/svg10.dtd">
<svg version="1.0" xmlns="http://www.w3.org/2000/svg"
 width="40.000000pt" height="47.000000pt" viewBox="0 0 40.000000 47.000000"
 preserveAspectRatio="xMidYMid meet">
<metadata>
Created by potrace 1.16, written by Peter Selinger 2001-2019
</metadata>
<g transform="translate(0.000000,47.000000) scale(0.100000,-0.100000)"
fill="#000000" stroke="none">
<path d="M134 431 l6 -40 -12 -8 -13 -8 -55 -5 -55 -5 -3 -54 -3 -54 29 6 30
6 17 -13 18 -13 -6 -17 -6 -16 -26 0 -25 0 -9 -23 -9 -24 -3 -44 -4 -44 58 -3
58 -3 -1 -22 -2 -22 1 -12 1 -13 45 0 46 0 -3 16 -3 17 50 16 50 16 0 55 0 54
34 2 35 2 13 18 13 18 0 22 0 22 -15 12 -15 12 -31 -4 -30 -5 6 48 7 48 -24 5
-23 6 -40 2 -40 3 -5 40 -5 40 -29 3 -29 4 7 -41z"/>
</g>
</svg>
