<?xml version="1.0" standalone="no"?>
<!DOCTYPE svg PUBLIC "-//W3C//DTD SVG 20010904//EN"
 "http://www.w3.org/TR/2001/REC-SVG-20010904/DTD/svg10.dtd">
<svg version="1.0" xmlns="http://www.w3.org/2000/svg"
 width="35.000000pt" height="35.000000pt" viewBox="0 0 35.000000 35.000000"
 preserveAspectRatio="xMidYMid meet">
<metadata>
Created by potrace 1.16, written by Peter Selinger 2001-2019
</metadata>
<g transform="translate(0.000000,35.000000) scale(0.100000,-0.100000)"
fill="#000000" stroke="none">
<path d="M20 311 l0 -40 10 -25 10 -26 30 0 31 0 -3 -22 -3 -23 -48 -3 -48 -3
4 -74 4 -75 4 -4 4 -3 75 6 75 6 0 30 1 30 7 12 8 12 14 -5 14 -6 3 -46 3 -47
24 -3 24 -4 32 6 33 7 7 17 6 17 6 64 6 64 -37 -6 -37 -6 -15 6 -14 5 0 29 0
29 34 0 34 0 11 31 11 32 0 23 0 24 -10 0 -10 0 -59 -16 -59 -17 -5 -18 -5
-19 -16 6 -16 6 0 34 0 34 -70 0 -70 0 0 -39z"/>
</g>
</svg>
