<?xml version="1.0" standalone="no"?>
<!DOCTYPE svg PUBLIC "-//W3C//DTD SVG 20010904//EN"
 "http://www.w3.org/TR/2001/REC-SVG-20010904/DTD/svg10.dtd">
<svg version="1.0" xmlns="http://www.w3.org/2000/svg"
 width="42.000000pt" height="41.000000pt" viewBox="0 0 42.000000 41.000000"
 preserveAspectRatio="xMidYMid meet">
<metadata>
Created by potrace 1.16, written by Peter Selinger 2001-2019
</metadata>
<g transform="translate(0.000000,41.000000) scale(0.100000,-0.100000)"
fill="#000000" stroke="none">
<path d="M88 355 l-5 -57 -14 -9 -14 -8 -22 5 -22 6 -7 -26 -6 -27 18 -20 18
-20 36 3 35 3 -1 -20 -1 -20 -8 -42 -7 -42 46 1 47 1 6 -7 7 -6 0 -33 1 -32
47 -3 46 -3 4 22 3 22 49 16 49 16 13 45 14 45 0 34 0 34 -41 -7 -40 -6 -15
14 -14 15 0 13 0 14 11 11 11 11 34 -5 34 -6 0 57 0 56 -65 0 -66 0 -3 -12 -4
-13 -6 -27 -6 -28 -20 0 -19 0 -7 12 -8 12 0 31 -1 30 -51 3 -51 3 -5 -56z"/>
</g>
</svg>
