<?xml version="1.0" standalone="no"?>
<!DOCTYPE svg PUBLIC "-//W3C//DTD SVG 20010904//EN"
 "http://www.w3.org/TR/2001/REC-SVG-20010904/DTD/svg10.dtd">
<svg version="1.0" xmlns="http://www.w3.org/2000/svg"
 width="42.000000pt" height="43.000000pt" viewBox="0 0 42.000000 43.000000"
 preserveAspectRatio="xMidYMid meet">
<metadata>
Created by potrace 1.16, written by Peter Selinger 2001-2019
</metadata>
<g transform="translate(0.000000,43.000000) scale(0.100000,-0.100000)"
fill="#000000" stroke="none">
<path d="M132 421 l-13 -8 6 -25 6 -24 -13 -12 -14 -11 -49 -8 -50 -8 0 -155
0 -155 49 -3 50 -3 24 6 23 6 -3 37 -3 37 10 0 10 0 3 -38 3 -38 12 -4 12 -3
67 -5 67 -5 3 62 3 61 40 5 40 5 3 42 3 41 -23 16 -22 16 -27 0 -27 0 5 39 5
40 -63 3 -64 3 0 38 0 38 -15 9 -15 10 -15 0 -15 0 -13 -9z"/>
</g>
</svg>
