<?xml version="1.0" standalone="no"?>
<!DOCTYPE svg PUBLIC "-//W3C//DTD SVG 20010904//EN"
 "http://www.w3.org/TR/2001/REC-SVG-20010904/DTD/svg10.dtd">
<svg version="1.0" xmlns="http://www.w3.org/2000/svg"
 width="51.000000pt" height="33.000000pt" viewBox="0 0 51.000000 33.000000"
 preserveAspectRatio="xMidYMid meet">
<metadata>
Created by potrace 1.16, written by Peter Selinger 2001-2019
</metadata>
<g transform="translate(0.000000,33.000000) scale(0.100000,-0.100000)"
fill="#000000" stroke="none">
<path d="M107 323 l-7 -6 0 -53 0 -53 -35 6 -35 6 -15 -13 -15 -12 0 -23 0
-23 36 -12 36 -12 29 6 29 6 0 -18 -1 -17 -14 -40 -15 -40 0 -12 0 -13 58 0
57 1 18 14 19 13 -3 24 -3 23 7 3 7 2 10 0 10 0 0 -34 0 -34 16 -6 16 -6 48 0
49 0 11 19 10 20 0 30 0 30 27 3 28 3 13 28 13 28 -6 30 -7 31 -30 -4 -29 -5
-11 20 -10 20 6 38 6 39 -158 0 -159 0 -6 -7z"/>
</g>
</svg>
