<?xml version="1.0" standalone="no"?>
<!DOCTYPE svg PUBLIC "-//W3C//DTD SVG 20010904//EN"
 "http://www.w3.org/TR/2001/REC-SVG-20010904/DTD/svg10.dtd">
<svg version="1.0" xmlns="http://www.w3.org/2000/svg"
 width="34.000000pt" height="42.000000pt" viewBox="0 0 34.000000 42.000000"
 preserveAspectRatio="xMidYMid meet">
<metadata>
Created by potrace 1.16, written by Peter Selinger 2001-2019
</metadata>
<g transform="translate(0.000000,42.000000) scale(0.100000,-0.100000)"
fill="#000000" stroke="none">
<path d="M0 256 l0 -166 55 0 55 0 0 -33 0 -33 12 -12 12 -12 28 0 27 0 11 19
10 20 0 31 0 31 52 -3 53 -3 13 43 14 42 -6 15 -5 15 -41 0 -41 0 -15 14 -14
15 0 13 0 14 12 12 12 12 38 0 38 0 0 55 0 55 -44 0 -44 0 -16 -6 -16 -6 0
-23 0 -24 -20 -6 -20 -6 -10 6 -10 6 0 35 0 34 -47 0 -48 0 -22 6 -23 6 0
-166z"/>
</g>
</svg>
