<?xml version="1.0" standalone="no"?>
<!DOCTYPE svg PUBLIC "-//W3C//DTD SVG 20010904//EN"
 "http://www.w3.org/TR/2001/REC-SVG-20010904/DTD/svg10.dtd">
<svg version="1.0" xmlns="http://www.w3.org/2000/svg"
 width="50.000000pt" height="32.000000pt" viewBox="0 0 50.000000 32.000000"
 preserveAspectRatio="xMidYMid meet">
<metadata>
Created by potrace 1.16, written by Peter Selinger 2001-2019
</metadata>
<g transform="translate(0.000000,32.000000) scale(0.100000,-0.100000)"
fill="#000000" stroke="none">
<path d="M400 311 l0 -10 -47 -3 -48 -3 0 -30 0 -30 -35 0 -35 0 0 28 0 28
-15 9 -15 10 -47 0 -48 0 0 -59 0 -58 -25 5 -25 4 -24 -6 -25 -6 -6 -19 -5
-18 6 -16 6 -16 31 -3 31 -3 12 -47 12 -47 -5 -5 -5 -5 34 -6 34 -6 39 3 40 3
0 45 0 45 30 0 30 0 -3 -23 -3 -22 3 0 3 0 55 -20 55 -20 2 0 2 0 3 57 3 58
28 -3 29 -3 14 12 14 11 0 19 0 19 -24 6 -24 6 -23 -4 -24 -3 -3 32 -3 32 10
36 9 35 -9 0 -9 0 0 -9z"/>
</g>
</svg>
