<?xml version="1.0" standalone="no"?>
<!DOCTYPE svg PUBLIC "-//W3C//DTD SVG 20010904//EN"
 "http://www.w3.org/TR/2001/REC-SVG-20010904/DTD/svg10.dtd">
<svg version="1.0" xmlns="http://www.w3.org/2000/svg"
 width="52.000000pt" height="34.000000pt" viewBox="0 0 52.000000 34.000000"
 preserveAspectRatio="xMidYMid meet">
<metadata>
Created by potrace 1.16, written by Peter Selinger 2001-2019
</metadata>
<g transform="translate(0.000000,34.000000) scale(0.100000,-0.100000)"
fill="#000000" stroke="none">
<path d="M400 331 l0 -10 -47 -3 -48 -3 0 -30 -1 -30 -24 0 -25 0 3 27 3 27
-20 10 -20 11 -55 0 -56 0 0 -55 0 -55 -39 0 -40 0 -15 -16 -16 -15 0 -22 0
-22 8 -12 7 -11 30 -4 30 -3 9 -52 10 -53 30 -6 31 -5 50 3 50 3 0 45 0 45 18
3 17 3 0 -25 0 -26 3 0 2 0 55 -20 55 -20 12 0 13 0 0 55 0 55 33 0 33 0 12
12 12 12 0 27 0 27 -16 6 -16 6 -35 0 -36 0 7 43 6 42 6 23 6 22 -21 0 -21 0
0 -9z"/>
</g>
</svg>
