<?xml version="1.0" standalone="no"?>
<!DOCTYPE svg PUBLIC "-//W3C//DTD SVG 20010904//EN"
 "http://www.w3.org/TR/2001/REC-SVG-20010904/DTD/svg10.dtd">
<svg version="1.0" xmlns="http://www.w3.org/2000/svg"
 width="31.000000pt" height="34.000000pt" viewBox="0 0 31.000000 34.000000"
 preserveAspectRatio="xMidYMid meet">
<metadata>
Created by potrace 1.16, written by Peter Selinger 2001-2019
</metadata>
<g transform="translate(0.000000,34.000000) scale(0.100000,-0.100000)"
fill="#000000" stroke="none">
<path d="M180 332 l-9 -3 5 -29 6 -28 -21 -11 -21 -11 -20 12 -21 13 3 25 3
25 -52 3 -53 3 0 -39 0 -40 15 -12 14 -12 20 7 19 6 7 -11 6 -10 1 -31 1 -31
-14 -9 -14 -8 -22 6 -23 5 -2 -33 -2 -34 -1 -32 -2 -33 38 0 38 0 14 14 14 15
-4 24 -5 25 22 7 22 7 15 -15 15 -15 1 -38 2 -39 42 3 43 2 23 9 23 9 0 64 -1
63 -36 -3 -36 -3 -13 16 -13 16 17 17 17 17 27 0 27 0 3 60 3 60 -56 0 -55 0
-10 -3z"/>
</g>
</svg>
