<?xml version="1.0" standalone="no"?>
<!DOCTYPE svg PUBLIC "-//W3C//DTD SVG 20010904//EN"
 "http://www.w3.org/TR/2001/REC-SVG-20010904/DTD/svg10.dtd">
<svg version="1.0" xmlns="http://www.w3.org/2000/svg"
 width="33.000000pt" height="36.000000pt" viewBox="0 0 33.000000 36.000000"
 preserveAspectRatio="xMidYMid meet">
<metadata>
Created by potrace 1.16, written by Peter Selinger 2001-2019
</metadata>
<g transform="translate(0.000000,36.000000) scale(0.100000,-0.100000)"
fill="#000000" stroke="none">
<path d="M179 349 l-12 -7 7 -25 6 -26 -10 -6 -10 -6 -19 6 -20 6 2 27 2 27
-62 3 -63 3 0 -49 0 -48 12 -12 12 -12 28 0 28 0 0 -30 0 -30 -34 0 -33 0 -7
-46 -6 -47 0 -28 0 -29 49 0 50 0 16 16 16 17 -5 22 -6 23 14 5 15 6 10 -12
10 -12 3 -40 3 -40 51 2 50 2 27 10 28 11 -3 72 -3 73 -40 0 -40 0 0 15 0 15
35 5 35 5 3 71 3 70 -66 0 -65 0 -11 -7z"/>
</g>
</svg>
