<?xml version="1.0" standalone="no"?>
<!DOCTYPE svg PUBLIC "-//W3C//DTD SVG 20010904//EN"
 "http://www.w3.org/TR/2001/REC-SVG-20010904/DTD/svg10.dtd">
<svg version="1.0" xmlns="http://www.w3.org/2000/svg"
 width="50.000000pt" height="33.000000pt" viewBox="0 0 50.000000 33.000000"
 preserveAspectRatio="xMidYMid meet">
<metadata>
Created by potrace 1.16, written by Peter Selinger 2001-2019
</metadata>
<g transform="translate(0.000000,33.000000) scale(0.100000,-0.100000)"
fill="#000000" stroke="none">
<path d="M92 275 l5 -54 -46 -3 -46 -3 -3 -30 -4 -29 18 -13 18 -13 44 0 44 0
-6 -27 -6 -28 -7 -37 -6 -38 49 0 49 0 14 9 14 9 -6 31 -7 31 23 0 22 0 12 -8
11 -7 4 -30 3 -30 64 -3 64 -3 -6 38 -7 38 -6 25 -5 25 39 0 39 0 17 14 17 14
-3 31 -3 31 -42 3 -43 3 0 56 0 55 -22 -7 -23 -7 -47 -10 -48 -11 0 -24 0 -24
-14 -5 -14 -5 -20 17 -21 17 6 29 6 28 -63 0 -62 0 4 -55z"/>
</g>
</svg>
