<?xml version="1.0" standalone="no"?>
<!DOCTYPE svg PUBLIC "-//W3C//DTD SVG 20010904//EN"
 "http://www.w3.org/TR/2001/REC-SVG-20010904/DTD/svg10.dtd">
<svg version="1.0" xmlns="http://www.w3.org/2000/svg"
 width="42.000000pt" height="33.000000pt" viewBox="0 0 42.000000 33.000000"
 preserveAspectRatio="xMidYMid meet">
<metadata>
Created by potrace 1.16, written by Peter Selinger 2001-2019
</metadata>
<g transform="translate(0.000000,33.000000) scale(0.100000,-0.100000)"
fill="#000000" stroke="none">
<path d="M20 276 l0 -55 43 -3 42 -3 3 -21 3 -21 -17 -13 -16 -14 -39 1 -39 2
0 -21 0 -21 12 -39 11 -38 23 -6 23 -6 28 9 28 10 3 36 3 37 29 0 30 0 15 -23
15 -24 -6 -31 -6 -32 30 0 31 0 25 10 26 10 0 55 0 55 31 0 30 0 20 10 19 11
0 33 0 34 -14 11 -14 12 -26 -7 -26 -6 -10 28 -11 28 5 19 4 18 -46 -7 -47 -7
-18 -9 -18 -9 6 -10 6 -9 -6 -20 -6 -20 -25 0 -24 0 -9 23 -9 23 5 27 5 27
-61 0 -61 0 0 -54z"/>
</g>
</svg>
