<?xml version="1.0" standalone="no"?>
<!DOCTYPE svg PUBLIC "-//W3C//DTD SVG 20010904//EN"
 "http://www.w3.org/TR/2001/REC-SVG-20010904/DTD/svg10.dtd">
<svg version="1.0" xmlns="http://www.w3.org/2000/svg"
 width="44.000000pt" height="35.000000pt" viewBox="0 0 44.000000 35.000000"
 preserveAspectRatio="xMidYMid meet">
<metadata>
Created by potrace 1.16, written by Peter Selinger 2001-2019
</metadata>
<g transform="translate(0.000000,35.000000) scale(0.100000,-0.100000)"
fill="#000000" stroke="none">
<path d="M20 285 l0 -65 39 0 40 0 6 -10 7 -11 -12 -14 -12 -15 -44 0 -44 0 0
-31 0 -32 12 -39 11 -38 25 -7 25 -6 36 9 36 9 3 38 3 37 18 0 19 0 13 -16 13
-16 -2 -39 -3 -39 40 0 40 0 25 10 26 10 0 55 0 55 31 0 30 0 20 10 19 11 0
43 0 44 -15 12 -15 12 -26 -5 -25 -5 -9 23 -9 23 6 22 6 23 -59 -8 -59 -7 -18
-10 -19 -10 5 -18 5 -18 -8 -12 -8 -13 -16 6 -16 6 0 46 0 45 -70 0 -70 0 0
-65z"/>
</g>
</svg>
