<?xml version="1.0" standalone="no"?>
<!DOCTYPE svg PUBLIC "-//W3C//DTD SVG 20010904//EN"
 "http://www.w3.org/TR/2001/REC-SVG-20010904/DTD/svg10.dtd">
<svg version="1.0" xmlns="http://www.w3.org/2000/svg"
 width="41.000000pt" height="33.000000pt" viewBox="0 0 41.000000 33.000000"
 preserveAspectRatio="xMidYMid meet">
<metadata>
Created by potrace 1.16, written by Peter Selinger 2001-2019
</metadata>
<g transform="translate(0.000000,33.000000) scale(0.100000,-0.100000)"
fill="#000000" stroke="none">
<path d="M4 304 l-7 -25 10 -32 9 -32 30 -1 30 0 12 -8 12 -7 0 -24 0 -24 -19
-11 -20 -10 -30 0 -31 0 0 -66 0 -67 60 6 61 5 15 13 15 12 -3 31 -3 31 13 -1
12 -1 10 -1 10 -2 0 -24 0 -25 9 -5 9 -6 48 -7 47 -6 -7 53 -7 53 41 -7 41 -6
20 10 20 11 -3 42 -3 42 -30 1 -30 1 -12 1 -13 2 0 50 0 50 -37 0 -38 0 -23
-6 -23 -7 3 -21 2 -21 -7 -12 -8 -13 -25 0 -24 0 0 29 0 30 -16 15 -15 16 -50
0 -49 0 -6 -26z"/>
</g>
</svg>
