<?xml version="1.0" standalone="no"?>
<!DOCTYPE svg PUBLIC "-//W3C//DTD SVG 20010904//EN"
 "http://www.w3.org/TR/2001/REC-SVG-20010904/DTD/svg10.dtd">
<svg version="1.0" xmlns="http://www.w3.org/2000/svg"
 width="39.000000pt" height="31.000000pt" viewBox="0 0 39.000000 31.000000"
 preserveAspectRatio="xMidYMid meet">
<metadata>
Created by potrace 1.16, written by Peter Selinger 2001-2019
</metadata>
<g transform="translate(0.000000,31.000000) scale(0.100000,-0.100000)"
fill="#000000" stroke="none">
<path d="M5 287 l-6 -23 11 -28 10 -28 26 6 26 7 14 -12 14 -11 0 -34 0 -33
-19 -11 -20 -10 -30 0 -31 0 0 -56 0 -57 51 6 51 6 15 12 14 12 -6 29 -7 28
17 6 16 7 24 -11 23 -11 -5 -19 -5 -20 9 -5 8 -5 38 -7 38 -7 -7 52 -7 53 46
-5 47 -5 16 11 16 12 -4 29 -3 30 -19 -3 -19 -3 -23 5 -24 6 0 50 0 50 -27 0
-28 0 -22 -6 -23 -6 6 -22 5 -22 -15 -13 -15 -12 -33 3 -33 3 0 33 0 33 -15 9
-15 10 -37 0 -38 0 -5 -23z"/>
</g>
</svg>
