<?xml version="1.0" standalone="no"?>
<!DOCTYPE svg PUBLIC "-//W3C//DTD SVG 20010904//EN"
 "http://www.w3.org/TR/2001/REC-SVG-20010904/DTD/svg10.dtd">
<svg version="1.0" xmlns="http://www.w3.org/2000/svg"
 width="40.000000pt" height="41.000000pt" viewBox="0 0 40.000000 41.000000"
 preserveAspectRatio="xMidYMid meet">
<metadata>
Created by potrace 1.16, written by Peter Selinger 2001-2019
</metadata>
<g transform="translate(0.000000,41.000000) scale(0.100000,-0.100000)"
fill="#000000" stroke="none">
<path d="M276 403 l-5 -6 5 -41 6 -41 -21 -19 -20 -19 -31 13 -30 12 0 39 0
39 -45 0 -44 0 -3 -62 -3 -63 -42 3 -43 3 0 -25 0 -25 12 -8 13 -7 35 -1 35 0
-2 -57 -2 -58 55 0 54 0 -2 -28 -2 -28 8 -12 7 -12 18 0 17 0 12 12 12 12 0
33 0 33 28 0 27 0 34 -10 34 -9 -7 61 -7 62 -5 8 -5 7 -28 -5 -29 -6 -11 19
-10 20 15 21 15 22 32 -3 32 -2 5 56 5 57 -20 0 -20 0 -37 10 -37 10 -5 -5z"/>
</g>
</svg>
