<?xml version="1.0" standalone="no"?>
<!DOCTYPE svg PUBLIC "-//W3C//DTD SVG 20010904//EN"
 "http://www.w3.org/TR/2001/REC-SVG-20010904/DTD/svg10.dtd">
<svg version="1.0" xmlns="http://www.w3.org/2000/svg"
 width="42.000000pt" height="43.000000pt" viewBox="0 0 42.000000 43.000000"
 preserveAspectRatio="xMidYMid meet">
<metadata>
Created by potrace 1.16, written by Peter Selinger 2001-2019
</metadata>
<g transform="translate(0.000000,43.000000) scale(0.100000,-0.100000)"
fill="#000000" stroke="none">
<path d="M275 420 l-7 -11 7 -36 6 -35 -16 -18 -17 -19 -24 11 -24 11 0 39 0
38 -55 0 -54 0 -3 -62 -3 -63 -42 3 -43 4 0 -36 0 -35 20 -11 20 -11 28 3 27
3 -3 -57 -3 -58 56 0 56 0 -6 -20 -6 -19 11 -21 11 -20 27 0 28 0 12 12 12 12
0 34 0 35 38 -7 37 -6 24 -7 24 -6 -7 73 -6 73 -6 9 -6 10 -30 -6 -29 -6 -5
15 -6 15 11 13 11 14 30 -5 30 -4 4 13 4 14 5 56 5 57 -44 6 -44 6 -24 6 -24
6 -7 -12z"/>
</g>
</svg>
