<?xml version="1.0" standalone="no"?>
<!DOCTYPE svg PUBLIC "-//W3C//DTD SVG 20010904//EN"
 "http://www.w3.org/TR/2001/REC-SVG-20010904/DTD/svg10.dtd">
<svg version="1.0" xmlns="http://www.w3.org/2000/svg"
 width="33.000000pt" height="40.000000pt" viewBox="0 0 33.000000 40.000000"
 preserveAspectRatio="xMidYMid meet">
<metadata>
Created by potrace 1.16, written by Peter Selinger 2001-2019
</metadata>
<g transform="translate(0.000000,40.000000) scale(0.100000,-0.100000)"
fill="#000000" stroke="none">
<path d="M219 393 l-1 -8 2 -18 1 -18 -16 -25 -16 -25 -27 3 -27 3 0 30 0 30
-10 7 -10 8 -52 0 -52 0 -6 -44 -7 -44 4 -18 3 -19 24 3 23 4 24 -6 24 -6 0
-19 0 -19 -14 -11 -14 -12 -29 3 -28 3 -3 -53 -3 -52 13 -4 13 -4 40 -8 40 -9
0 -30 0 -30 35 -3 34 -4 13 17 12 17 -6 31 -6 30 55 -6 55 -7 5 5 5 5 -12 58
-11 57 -26 -2 -26 -2 -6 16 -6 16 11 14 12 14 29 -6 28 -7 8 21 7 20 -3 48 -4
49 -16 0 -17 0 -32 8 -33 8 -1 -9z"/>
</g>
</svg>
