<?xml version="1.0" standalone="no"?>
<!DOCTYPE svg PUBLIC "-//W3C//DTD SVG 20010904//EN"
 "http://www.w3.org/TR/2001/REC-SVG-20010904/DTD/svg10.dtd">
<svg version="1.0" xmlns="http://www.w3.org/2000/svg"
 width="35.000000pt" height="42.000000pt" viewBox="0 0 35.000000 42.000000"
 preserveAspectRatio="xMidYMid meet">
<metadata>
Created by potrace 1.16, written by Peter Selinger 2001-2019
</metadata>
<g transform="translate(0.000000,42.000000) scale(0.100000,-0.100000)"
fill="#000000" stroke="none">
<path d="M216 411 l-7 -11 6 -19 5 -18 -18 -23 -19 -23 -18 6 -17 7 7 27 6 26
-13 8 -13 9 -62 0 -62 0 -6 -43 -7 -43 4 -30 3 -29 42 0 41 0 8 -8 8 -7 -13
-13 -12 -12 -32 0 -32 0 -3 -63 -3 -62 13 -4 13 -4 40 -8 39 -9 1 -30 0 -30
47 -3 47 -3 11 21 12 22 -7 25 -6 25 55 -7 56 -7 4 13 5 14 -12 60 -13 60 -27
3 -28 3 4 12 4 12 31 -3 32 -3 9 23 8 23 -5 58 -4 57 -22 0 -21 0 -36 6 -36 6
-7 -11z"/>
</g>
</svg>
