<?xml version="1.0" standalone="no"?>
<!DOCTYPE svg PUBLIC "-//W3C//DTD SVG 20010904//EN"
 "http://www.w3.org/TR/2001/REC-SVG-20010904/DTD/svg10.dtd">
<svg version="1.0" xmlns="http://www.w3.org/2000/svg"
 width="41.000000pt" height="34.000000pt" viewBox="0 0 41.000000 34.000000"
 preserveAspectRatio="xMidYMid meet">
<metadata>
Created by potrace 1.16, written by Peter Selinger 2001-2019
</metadata>
<g transform="translate(0.000000,34.000000) scale(0.100000,-0.100000)"
fill="#000000" stroke="none">
<path d="M309 333 l-1 -8 1 -35 1 -35 -8 -13 -9 -13 -30 -1 -30 -1 -12 7 -12
8 3 36 3 37 -55 0 -55 0 -3 -47 -3 -48 -30 0 -29 0 -19 -19 -20 -20 6 -20 5
-21 12 -1 11 -2 20 -1 19 -1 8 -45 8 -45 -4 -12 -5 -11 13 -5 13 -5 52 2 52 1
9 15 10 15 -6 19 -6 18 13 9 14 9 7 0 7 0 16 -16 16 -16 -6 -29 -7 -29 16 -6
16 -6 46 7 46 6 -7 17 -7 17 -12 45 -11 45 -15 1 -15 2 -12 1 -13 1 0 39 0 40
43 3 42 3 3 46 3 47 -32 11 -32 11 -13 0 -14 0 -1 -7z"/>
</g>
</svg>
