<?xml version="1.0" standalone="no"?>
<!DOCTYPE svg PUBLIC "-//W3C//DTD SVG 20010904//EN"
 "http://www.w3.org/TR/2001/REC-SVG-20010904/DTD/svg10.dtd">
<svg version="1.0" xmlns="http://www.w3.org/2000/svg"
 width="48.000000pt" height="33.000000pt" viewBox="0 0 48.000000 33.000000"
 preserveAspectRatio="xMidYMid meet">
<metadata>
Created by potrace 1.16, written by Peter Selinger 2001-2019
</metadata>
<g transform="translate(0.000000,33.000000) scale(0.100000,-0.100000)"
fill="#000000" stroke="none">
<path d="M287 285 l6 -45 -13 -15 -12 -15 -29 0 -28 0 -12 21 -11 21 6 30 6
29 -53 -3 -52 -3 -6 -42 -5 -43 -8 -7 -7 -7 -34 2 -35 3 0 -31 0 -31 10 -20
11 -19 46 0 46 0 -6 -43 -6 -42 8 -13 8 -13 54 3 54 3 0 32 0 31 7 7 7 7 27
-6 26 -7 -4 -22 -4 -23 12 -12 13 -12 52 0 51 0 -5 14 -5 14 15 51 15 52 21
-3 22 -3 3 28 3 28 -11 14 -11 13 -19 -5 -20 -5 -15 12 -15 12 0 43 0 43 -31
11 -32 11 -23 0 -24 0 7 -45z"/>
</g>
</svg>
