<?xml version="1.0" standalone="no"?>
<!DOCTYPE svg PUBLIC "-//W3C//DTD SVG 20010904//EN"
 "http://www.w3.org/TR/2001/REC-SVG-20010904/DTD/svg10.dtd">
<svg version="1.0" xmlns="http://www.w3.org/2000/svg"
 width="45.000000pt" height="40.000000pt" viewBox="0 0 45.000000 40.000000"
 preserveAspectRatio="xMidYMid meet">
<metadata>
Created by potrace 1.16, written by Peter Selinger 2001-2019
</metadata>
<g transform="translate(0.000000,40.000000) scale(0.100000,-0.100000)"
fill="#000000" stroke="none">
<path d="M78 356 l4 -44 -12 -22 -11 -21 -27 3 -27 3 0 -30 0 -30 44 -3 44 -3
-7 -61 -6 -61 38 6 37 6 21 -5 21 -5 -1 -42 -1 -42 22 -3 22 -3 11 22 12 21
-4 29 -5 29 63 0 63 0 -2 53 -2 52 27 -3 27 -3 10 20 11 20 0 20 0 21 -25 0
-24 0 -11 19 -10 20 0 40 0 41 -153 0 -152 0 3 -44z"/>
</g>
</svg>
