<?xml version="1.0" standalone="no"?>
<!DOCTYPE svg PUBLIC "-//W3C//DTD SVG 20010904//EN"
 "http://www.w3.org/TR/2001/REC-SVG-20010904/DTD/svg10.dtd">
<svg version="1.0" xmlns="http://www.w3.org/2000/svg"
 width="47.000000pt" height="39.000000pt" viewBox="0 0 47.000000 39.000000"
 preserveAspectRatio="xMidYMid meet">
<metadata>
Created by potrace 1.16, written by Peter Selinger 2001-2019
</metadata>
<g transform="translate(0.000000,39.000000) scale(0.100000,-0.100000)"
fill="#000000" stroke="none">
<path d="M211 376 l-12 -14 3 -29 3 -28 -58 -3 -58 -3 5 -27 6 -27 -8 -30 -9
-30 -35 0 -36 0 -7 -7 -7 -7 6 -26 6 -25 34 0 33 0 7 -31 6 -32 0 -28 0 -29
44 0 44 0 12 14 12 15 -4 28 -3 28 18 3 19 4 24 -6 25 -7 -2 -12 -1 -12 1 -12
1 -13 18 0 17 -1 38 -13 38 -14 14 22 14 21 7 29 7 29 19 5 19 5 -3 46 -3 46
-32 -1 -33 -2 -2 17 -1 16 -1 35 -1 34 -30 8 -30 7 -27 6 -27 5 -3 28 -3 27
-26 3 -26 3 -12 -15z"/>
</g>
</svg>
