<?xml version="1.0" standalone="no"?>
<!DOCTYPE svg PUBLIC "-//W3C//DTD SVG 20010904//EN"
 "http://www.w3.org/TR/2001/REC-SVG-20010904/DTD/svg10.dtd">
<svg version="1.0" xmlns="http://www.w3.org/2000/svg"
 width="48.000000pt" height="41.000000pt" viewBox="0 0 48.000000 41.000000"
 preserveAspectRatio="xMidYMid meet">
<metadata>
Created by potrace 1.16, written by Peter Selinger 2001-2019
</metadata>
<g transform="translate(0.000000,41.000000) scale(0.100000,-0.100000)"
fill="#000000" stroke="none">
<path d="M210 395 l-12 -15 6 -30 6 -30 -63 -1 -62 -1 -8 1 -9 2 7 -29 6 -29
-7 -27 -7 -28 -21 6 -21 5 -13 -8 -14 -8 4 -29 3 -29 22 1 22 0 5 -25 5 -26 6
-43 7 -43 15 5 15 6 54 0 55 0 -3 35 -2 35 13 12 12 13 15 -19 14 -19 -6 -39
-7 -38 44 0 44 0 25 13 25 13 3 24 2 25 5 31 5 31 38 -1 37 -1 0 40 0 40 -30
1 -31 0 -12 8 -12 7 0 48 0 49 -37 6 -38 7 -32 10 -32 10 -3 21 -3 21 -11 4
-11 4 -13 -16z"/>
</g>
</svg>
