<?xml version="1.0" standalone="no"?>
<!DOCTYPE svg PUBLIC "-//W3C//DTD SVG 20010904//EN"
 "http://www.w3.org/TR/2001/REC-SVG-20010904/DTD/svg10.dtd">
<svg version="1.0" xmlns="http://www.w3.org/2000/svg"
 width="50.000000pt" height="43.000000pt" viewBox="0 0 50.000000 43.000000"
 preserveAspectRatio="xMidYMid meet">
<metadata>
Created by potrace 1.16, written by Peter Selinger 2001-2019
</metadata>
<g transform="translate(0.000000,43.000000) scale(0.100000,-0.100000)"
fill="#000000" stroke="none">
<path d="M212 418 l-12 -12 0 -33 0 -33 -66 0 -67 0 6 -34 6 -35 -6 -20 -5
-21 -10 6 -9 6 -25 -6 -25 -7 3 -42 3 -42 22 -3 22 -3 5 -17 4 -17 7 -49 7
-48 30 6 31 6 48 0 49 0 0 40 0 40 10 0 10 0 1 -12 1 -13 -2 -37 -2 -38 54 0
53 0 25 13 25 12 3 30 2 30 5 22 5 22 38 3 37 3 0 50 0 50 -40 5 -40 5 -3 51
-3 52 -37 6 -37 7 -32 10 -32 10 -3 22 -3 22 -20 3 -20 3 -13 -13z"/>
</g>
</svg>
