<?xml version="1.0" standalone="no"?>
<!DOCTYPE svg PUBLIC "-//W3C//DTD SVG 20010904//EN"
 "http://www.w3.org/TR/2001/REC-SVG-20010904/DTD/svg10.dtd">
<svg version="1.0" xmlns="http://www.w3.org/2000/svg"
 width="40.000000pt" height="40.000000pt" viewBox="0 0 40.000000 40.000000"
 preserveAspectRatio="xMidYMid meet">
<metadata>
Created by potrace 1.16, written by Peter Selinger 2001-2019
</metadata>
<g transform="translate(0.000000,40.000000) scale(0.100000,-0.100000)"
fill="#000000" stroke="none">
<path d="M221 391 l-13 -9 7 -30 6 -31 -23 -5 -23 -6 -40 -2 -40 -3 -3 -35 -3
-35 -10 -10 -10 -10 -32 0 -32 0 -3 -33 -3 -34 17 -20 18 -19 23 6 23 5 2 -37
1 -38 1 -15 1 -15 58 0 58 1 10 14 10 15 -5 27 -5 26 16 6 17 7 15 -16 16 -16
0 -37 0 -37 53 1 54 2 9 9 10 10 -14 59 -13 59 -22 -1 -22 -1 0 33 0 33 33 3
32 3 0 45 0 45 -64 3 -63 3 5 33 5 34 -11 11 -11 11 -10 0 -11 0 -14 -9z"/>
</g>
</svg>
