<?xml version="1.0" standalone="no"?>
<!DOCTYPE svg PUBLIC "-//W3C//DTD SVG 20010904//EN"
 "http://www.w3.org/TR/2001/REC-SVG-20010904/DTD/svg10.dtd">
<svg version="1.0" xmlns="http://www.w3.org/2000/svg"
 width="42.000000pt" height="42.000000pt" viewBox="0 0 42.000000 42.000000"
 preserveAspectRatio="xMidYMid meet">
<metadata>
Created by potrace 1.16, written by Peter Selinger 2001-2019
</metadata>
<g transform="translate(0.000000,42.000000) scale(0.100000,-0.100000)"
fill="#000000" stroke="none">
<path d="M221 411 l-14 -9 5 -31 5 -31 -21 -5 -21 -5 -40 -2 -40 -3 -5 -40 -5
-40 -40 -5 -40 -5 -3 -44 -3 -43 17 -19 17 -19 23 0 23 0 3 -48 3 -47 68 0 68
0 9 15 10 15 0 28 0 27 9 0 10 0 7 -11 7 -12 1 -36 1 -36 63 1 63 1 11 11 11
11 -14 68 -14 68 -22 3 -23 3 0 19 0 19 33 3 32 3 0 55 0 55 -63 3 -63 3 6 30
7 30 -12 14 -12 15 -22 0 -21 0 -14 -9z"/>
</g>
</svg>
