<?xml version="1.0" standalone="no"?>
<!DOCTYPE svg PUBLIC "-//W3C//DTD SVG 20010904//EN"
 "http://www.w3.org/TR/2001/REC-SVG-20010904/DTD/svg10.dtd">
<svg version="1.0" xmlns="http://www.w3.org/2000/svg"
 width="36.000000pt" height="40.000000pt" viewBox="0 0 36.000000 40.000000"
 preserveAspectRatio="xMidYMid meet">
<metadata>
Created by potrace 1.16, written by Peter Selinger 2001-2019
</metadata>
<g transform="translate(0.000000,40.000000) scale(0.100000,-0.100000)"
fill="#000000" stroke="none">
<path d="M144 385 l-6 -14 7 -11 7 -11 -12 -14 -12 -15 -55 0 -54 0 3 -67 3
-68 39 -5 39 -5 -18 -15 -18 -15 -27 3 -27 3 -7 -16 -6 -16 7 -59 6 -60 78 0
79 0 0 34 0 35 9 6 10 5 3 -27 3 -27 25 -6 25 -7 52 -7 52 -7 6 34 6 33 -3 39
-3 40 -38 3 -38 3 -6 16 -6 15 14 9 14 9 33 -6 32 -6 0 43 0 44 -7 23 -6 24
-36 -8 -36 -7 -25 -1 -25 -1 3 33 4 33 -12 15 -12 14 -30 0 -29 0 -5 -15z"/>
</g>
</svg>
