<?xml version="1.0" standalone="no"?>
<!DOCTYPE svg PUBLIC "-//W3C//DTD SVG 20010904//EN"
 "http://www.w3.org/TR/2001/REC-SVG-20010904/DTD/svg10.dtd">
<svg version="1.0" xmlns="http://www.w3.org/2000/svg"
 width="34.000000pt" height="38.000000pt" viewBox="0 0 34.000000 38.000000"
 preserveAspectRatio="xMidYMid meet">
<metadata>
Created by potrace 1.16, written by Peter Selinger 2001-2019
</metadata>
<g transform="translate(0.000000,38.000000) scale(0.100000,-0.100000)"
fill="#000000" stroke="none">
<path d="M149 373 l-1 -8 2 -18 1 -18 -11 -15 -12 -14 -55 0 -54 0 3 -57 3
-58 38 -3 37 -3 0 -13 0 -13 -19 -17 -19 -17 -24 6 -25 6 -6 -15 -6 -16 8 -45
8 -44 -5 -6 -5 -5 71 0 71 0 3 38 3 37 20 0 20 0 0 -24 0 -25 30 -7 30 -7 37
-5 37 -6 6 33 7 33 -4 29 -3 29 -40 5 -40 5 -3 27 -3 27 25 7 25 6 22 -7 22
-7 -5 51 -5 51 -4 4 -4 4 -47 -10 -46 -11 -17 7 -17 6 7 30 7 31 -12 14 -12
15 -19 0 -19 0 -1 -7z"/>
</g>
</svg>
