<?xml version="1.0" standalone="no"?>
<!DOCTYPE svg PUBLIC "-//W3C//DTD SVG 20010904//EN"
 "http://www.w3.org/TR/2001/REC-SVG-20010904/DTD/svg10.dtd">
<svg version="1.0" xmlns="http://www.w3.org/2000/svg"
 width="41.000000pt" height="39.000000pt" viewBox="0 0 41.000000 39.000000"
 preserveAspectRatio="xMidYMid meet">
<metadata>
Created by potrace 1.16, written by Peter Selinger 2001-2019
</metadata>
<g transform="translate(0.000000,39.000000) scale(0.100000,-0.100000)"
fill="#000000" stroke="none">
<path d="M140 375 l-12 -14 6 -10 6 -9 -6 -16 -6 -16 -64 0 -64 0 0 -34 0 -35
10 -27 10 -27 35 6 34 6 12 -15 12 -15 -12 -25 -11 -25 -37 3 -38 3 -3 -60 -3
-60 67 5 68 5 0 40 1 40 17 3 18 3 9 -24 9 -24 46 -12 45 -11 10 0 11 0 -6 44
-7 44 42 -5 41 -6 15 13 15 12 0 45 0 44 -42 -3 -43 -3 -3 49 -3 48 -22 -7
-22 -7 -44 -5 -44 -5 6 36 6 36 -15 15 -15 15 -8 0 -9 0 -12 -15z"/>
</g>
</svg>
