<?xml version="1.0" standalone="no"?>
<!DOCTYPE svg PUBLIC "-//W3C//DTD SVG 20010904//EN"
 "http://www.w3.org/TR/2001/REC-SVG-20010904/DTD/svg10.dtd">
<svg version="1.0" xmlns="http://www.w3.org/2000/svg"
 width="43.000000pt" height="41.000000pt" viewBox="0 0 43.000000 41.000000"
 preserveAspectRatio="xMidYMid meet">
<metadata>
Created by potrace 1.16, written by Peter Selinger 2001-2019
</metadata>
<g transform="translate(0.000000,41.000000) scale(0.100000,-0.100000)"
fill="#000000" stroke="none">
<path d="M142 398 l-12 -12 0 -28 0 -28 -65 0 -65 0 0 -44 0 -45 10 -25 10
-26 39 0 40 0 5 -8 5 -8 -9 -14 -9 -15 -38 0 -38 0 -3 -71 -3 -72 68 5 68 5
13 4 13 4 -6 34 -7 34 11 6 11 7 9 -24 9 -24 46 -12 45 -11 22 0 22 0 -7 40
-6 40 43 0 43 0 12 12 12 12 0 54 0 54 -42 -4 -43 -3 -3 49 -3 48 -32 -6 -32
-7 -33 -6 -33 -5 6 34 7 35 -17 16 -16 17 -18 0 -17 0 -12 -12z"/>
</g>
</svg>
