<?xml version="1.0" standalone="no"?>
<!DOCTYPE svg PUBLIC "-//W3C//DTD SVG 20010904//EN"
 "http://www.w3.org/TR/2001/REC-SVG-20010904/DTD/svg10.dtd">
<svg version="1.0" xmlns="http://www.w3.org/2000/svg"
 width="41.000000pt" height="38.000000pt" viewBox="0 0 41.000000 38.000000"
 preserveAspectRatio="xMidYMid meet">
<metadata>
Created by potrace 1.16, written by Peter Selinger 2001-2019
</metadata>
<g transform="translate(0.000000,38.000000) scale(0.100000,-0.100000)"
fill="#000000" stroke="none">
<path d="M135 368 l-4 -13 -3 -25 -3 -25 -53 -3 -53 -3 3 -47 3 -47 43 3 42 3
0 -44 0 -45 -15 -12 -15 -13 -40 6 -40 5 3 -54 2 -54 40 0 41 0 22 16 23 16
-3 26 -3 27 35 0 35 0 -3 -16 -2 -16 14 -12 14 -12 50 -6 50 -6 -5 46 -5 45
35 -1 35 -1 17 14 16 13 -3 31 -3 31 -30 1 -31 0 -12 8 -12 7 0 47 0 47 -66
-3 -67 -4 6 30 6 29 -12 12 -11 11 -18 0 -19 0 -4 -12z"/>
</g>
</svg>
