<?xml version="1.0" standalone="no"?>
<!DOCTYPE svg PUBLIC "-//W3C//DTD SVG 20010904//EN"
 "http://www.w3.org/TR/2001/REC-SVG-20010904/DTD/svg10.dtd">
<svg version="1.0" xmlns="http://www.w3.org/2000/svg"
 width="38.000000pt" height="40.000000pt" viewBox="0 0 38.000000 40.000000"
 preserveAspectRatio="xMidYMid meet">
<metadata>
Created by potrace 1.16, written by Peter Selinger 2001-2019
</metadata>
<g transform="translate(0.000000,40.000000) scale(0.100000,-0.100000)"
fill="#000000" stroke="none">
<path d="M220 385 l-13 -16 -1 -27 -1 -27 -60 -5 -60 -5 -5 -40 -5 -40 -29 0
-30 -1 -7 -27 -7 -27 7 -27 8 -28 24 0 24 0 7 -44 7 -44 -5 -8 -5 -9 70 0 71
0 0 34 0 35 9 5 9 6 17 -6 16 -7 -3 -36 -3 -36 29 -3 29 -4 34 7 33 6 0 52 0
52 -9 14 -9 13 -20 -6 -21 -7 -21 11 -20 11 0 18 0 18 20 18 19 18 31 -6 30
-6 0 48 0 49 -52 -2 -53 -1 0 34 0 33 -21 14 -21 15 -13 -16z"/>
</g>
</svg>
