<?xml version="1.0" standalone="no"?>
<!DOCTYPE svg PUBLIC "-//W3C//DTD SVG 20010904//EN"
 "http://www.w3.org/TR/2001/REC-SVG-20010904/DTD/svg10.dtd">
<svg version="1.0" xmlns="http://www.w3.org/2000/svg"
 width="40.000000pt" height="42.000000pt" viewBox="0 0 40.000000 42.000000"
 preserveAspectRatio="xMidYMid meet">
<metadata>
Created by potrace 1.16, written by Peter Selinger 2001-2019
</metadata>
<g transform="translate(0.000000,42.000000) scale(0.100000,-0.100000)"
fill="#000000" stroke="none">
<path d="M215 396 l-16 -24 3 -19 3 -18 -60 -5 -60 -5 -5 -40 -5 -40 -29 0
-30 0 -8 -33 -9 -32 9 -33 8 -32 27 -3 27 -3 1 -32 1 -32 -1 -17 -2 -18 80 0
81 0 0 35 0 35 15 0 14 0 -2 -37 -2 -38 40 -3 39 -3 33 6 33 6 0 62 0 62 -9
14 -9 14 -26 -5 -26 -5 -17 12 -18 13 19 21 19 21 34 -6 33 -6 0 61 0 62 -52
-3 -53 -3 3 31 3 32 -23 16 -22 16 -13 0 -13 0 -15 -24z"/>
</g>
</svg>
