<?xml version="1.0" standalone="no"?>
<!DOCTYPE svg PUBLIC "-//W3C//DTD SVG 20010904//EN"
 "http://www.w3.org/TR/2001/REC-SVG-20010904/DTD/svg10.dtd">
<svg version="1.0" xmlns="http://www.w3.org/2000/svg"
 width="34.000000pt" height="40.000000pt" viewBox="0 0 34.000000 40.000000"
 preserveAspectRatio="xMidYMid meet">
<metadata>
Created by potrace 1.16, written by Peter Selinger 2001-2019
</metadata>
<g transform="translate(0.000000,40.000000) scale(0.100000,-0.100000)"
fill="#000000" stroke="none">
<path d="M134 388 l-8 -13 2 -21 3 -21 -13 -11 -14 -11 -49 -3 -50 -3 -3 -39
-3 -39 13 -8 13 -9 23 0 22 0 0 -33 0 -32 -22 -10 -21 -10 -13 -50 -13 -50 -1
-10 0 -10 62 5 63 5 5 35 5 35 28 3 27 3 0 -21 0 -20 26 -10 25 -10 38 -6 38
-6 12 45 13 45 -4 18 -4 19 -31 -2 -32 -3 -26 10 -26 10 3 23 3 22 45 1 45 1
-2 48 -1 48 -14 8 -13 9 -45 0 -45 0 -13 9 -13 8 3 29 3 28 -17 4 -16 3 -8
-13z"/>
</g>
</svg>
