<?xml version="1.0" standalone="no"?>
<!DOCTYPE svg PUBLIC "-//W3C//DTD SVG 20010904//EN"
 "http://www.w3.org/TR/2001/REC-SVG-20010904/DTD/svg10.dtd">
<svg version="1.0" xmlns="http://www.w3.org/2000/svg"
 width="36.000000pt" height="42.000000pt" viewBox="0 0 36.000000 42.000000"
 preserveAspectRatio="xMidYMid meet">
<metadata>
Created by potrace 1.16, written by Peter Selinger 2001-2019
</metadata>
<g transform="translate(0.000000,42.000000) scale(0.100000,-0.100000)"
fill="#000000" stroke="none">
<path d="M131 406 l-13 -15 6 -19 6 -19 -13 -11 -13 -11 -49 -3 -50 -3 -3 -49
-3 -49 13 -8 13 -9 23 0 22 0 0 -23 0 -22 -22 -10 -21 -10 -13 -50 -13 -50 -1
-22 0 -21 63 5 62 5 12 3 12 4 3 33 3 33 18 3 17 3 0 -21 0 -20 28 -11 27 -10
46 -6 46 -5 12 44 13 45 -4 29 -3 29 -48 1 -48 1 -10 10 -11 11 7 12 7 11 41
-3 42 -3 -1 59 -1 58 -14 9 -14 9 -45 0 -45 0 -11 8 -11 7 1 30 1 30 -26 3
-26 3 -12 -15z"/>
</g>
</svg>
