<?xml version="1.0" standalone="no"?>
<!DOCTYPE svg PUBLIC "-//W3C//DTD SVG 20010904//EN"
 "http://www.w3.org/TR/2001/REC-SVG-20010904/DTD/svg10.dtd">
<svg version="1.0" xmlns="http://www.w3.org/2000/svg"
 width="42.000000pt" height="48.000000pt" viewBox="0 0 42.000000 48.000000"
 preserveAspectRatio="xMidYMid meet">
<metadata>
Created by potrace 1.16, written by Peter Selinger 2001-2019
</metadata>
<g transform="translate(0.000000,48.000000) scale(0.100000,-0.100000)"
fill="#000000" stroke="none">
<path d="M220 460 l-11 -21 3 -22 3 -22 -65 -5 -65 -5 3 -47 3 -48 -29 6 -29
6 -16 -17 -17 -16 0 -18 0 -19 15 -12 14 -12 11 7 10 6 9 -23 9 -24 3 -39 4
-40 55 -5 55 -5 0 -30 0 -30 8 -12 8 -13 37 0 37 0 13 9 14 8 -4 18 -3 18 40
14 40 14 19 19 19 19 5 56 5 56 -36 -6 -35 -7 -21 7 -21 6 0 30 0 31 30 -7 31
-7 14 12 15 12 0 45 0 44 -22 -7 -23 -8 -35 -1 -35 0 -3 45 -3 45 -12 7 -12 8
-12 0 -12 0 -11 -20z"/>
</g>
</svg>
