<?xml version="1.0" standalone="no"?>
<!DOCTYPE svg PUBLIC "-//W3C//DTD SVG 20010904//EN"
 "http://www.w3.org/TR/2001/REC-SVG-20010904/DTD/svg10.dtd">
<svg version="1.0" xmlns="http://www.w3.org/2000/svg"
 width="35.000000pt" height="33.000000pt" viewBox="0 0 35.000000 33.000000"
 preserveAspectRatio="xMidYMid meet">
<metadata>
Created by potrace 1.16, written by Peter Selinger 2001-2019
</metadata>
<g transform="translate(0.000000,33.000000) scale(0.100000,-0.100000)"
fill="#000000" stroke="none">
<path d="M7 323 l-7 -6 0 -47 0 -46 13 -19 14 -18 26 5 27 5 0 -28 0 -28 -13
-8 -12 -7 -23 3 -22 2 0 -28 0 -28 -6 -38 -7 -37 57 0 57 0 20 10 19 11 0 30
0 30 18 -3 17 -3 3 -27 3 -27 27 -5 27 -5 42 -6 41 -6 11 54 12 54 -7 16 -6
17 -32 0 -32 0 -12 12 -12 12 0 8 0 8 30 0 29 0 10 38 11 37 0 22 0 21 -6 16
-6 16 -152 0 -153 0 -6 -7z"/>
</g>
</svg>
