<?xml version="1.0" standalone="no"?>
<!DOCTYPE svg PUBLIC "-//W3C//DTD SVG 20010904//EN"
 "http://www.w3.org/TR/2001/REC-SVG-20010904/DTD/svg10.dtd">
<svg version="1.0" xmlns="http://www.w3.org/2000/svg"
 width="33.000000pt" height="31.000000pt" viewBox="0 0 33.000000 31.000000"
 preserveAspectRatio="xMidYMid meet">
<metadata>
Created by potrace 1.16, written by Peter Selinger 2001-2019
</metadata>
<g transform="translate(0.000000,31.000000) scale(0.100000,-0.100000)"
fill="#000000" stroke="none">
<path d="M7 303 l-7 -6 0 -34 0 -34 11 -20 10 -20 28 6 28 6 6 -22 6 -23 -12
-26 -13 -25 -27 2 -27 2 0 -32 0 -32 -6 -23 -6 -22 49 0 49 0 19 13 18 14 -5
27 -5 27 31 -3 31 -3 3 -27 3 -27 37 -6 37 -6 22 -5 21 -4 10 47 10 46 -5 14
-5 13 -32 0 -32 0 -12 12 -12 12 0 18 0 18 30 0 29 0 11 41 11 42 -5 23 -6 24
-144 0 -143 0 -6 -7z"/>
</g>
</svg>
