<?xml version="1.0" standalone="no"?>
<!DOCTYPE svg PUBLIC "-//W3C//DTD SVG 20010904//EN"
 "http://www.w3.org/TR/2001/REC-SVG-20010904/DTD/svg10.dtd">
<svg version="1.0" xmlns="http://www.w3.org/2000/svg"
 width="48.000000pt" height="32.000000pt" viewBox="0 0 48.000000 32.000000"
 preserveAspectRatio="xMidYMid meet">
<metadata>
Created by potrace 1.16, written by Peter Selinger 2001-2019
</metadata>
<g transform="translate(0.000000,32.000000) scale(0.100000,-0.100000)"
fill="#000000" stroke="none">
<path d="M88 263 l-3 -58 -40 0 -40 0 -3 -27 -3 -26 23 -4 23 -3 20 -68 20
-68 60 3 60 3 -3 26 -3 26 16 13 17 14 16 -11 17 -10 5 -34 5 -34 22 -3 21 -3
41 11 41 11 0 39 0 38 6 16 6 16 10 -6 9 -6 25 6 24 6 0 38 0 37 -9 14 -9 14
-26 -7 -25 -6 -11 19 -10 20 0 26 0 27 -47 -7 -48 -7 -10 -6 -10 -7 0 -24 0
-24 -17 -11 -18 -11 -17 11 -18 11 -3 34 -4 34 -11 7 -12 8 -42 0 -42 0 -3
-57z"/>
</g>
</svg>
