<?xml version="1.0" standalone="no"?>
<!DOCTYPE svg PUBLIC "-//W3C//DTD SVG 20010904//EN"
 "http://www.w3.org/TR/2001/REC-SVG-20010904/DTD/svg10.dtd">
<svg version="1.0" xmlns="http://www.w3.org/2000/svg"
 width="31.000000pt" height="33.000000pt" viewBox="0 0 31.000000 33.000000"
 preserveAspectRatio="xMidYMid meet">
<metadata>
Created by potrace 1.16, written by Peter Selinger 2001-2019
</metadata>
<g transform="translate(0.000000,33.000000) scale(0.100000,-0.100000)"
fill="#000000" stroke="none">
<path d="M0 299 l0 -30 10 -20 11 -19 25 6 26 7 9 -14 9 -14 0 -37 0 -38 -24
-6 -25 -6 -9 6 -10 6 -6 -16 -6 -16 0 -44 0 -44 28 0 27 0 23 6 22 6 8 32 8
31 18 3 17 4 15 -13 15 -12 -3 -36 -3 -36 32 -3 32 -3 31 16 31 16 -3 67 -3
67 -37 -3 -38 -4 0 15 0 15 15 12 15 12 25 -4 25 -5 0 52 0 53 -15 6 -15 5
-12 -3 -13 -4 -28 -6 -27 -6 6 -23 5 -23 -15 -13 -15 -12 -38 3 -38 3 3 38 3
37 -26 10 -26 10 -30 0 -29 0 0 -31z"/>
</g>
</svg>
