<?xml version="1.0" standalone="no"?>
<!DOCTYPE svg PUBLIC "-//W3C//DTD SVG 20010904//EN"
 "http://www.w3.org/TR/2001/REC-SVG-20010904/DTD/svg10.dtd">
<svg version="1.0" xmlns="http://www.w3.org/2000/svg"
 width="33.000000pt" height="35.000000pt" viewBox="0 0 33.000000 35.000000"
 preserveAspectRatio="xMidYMid meet">
<metadata>
Created by potrace 1.16, written by Peter Selinger 2001-2019
</metadata>
<g transform="translate(0.000000,35.000000) scale(0.100000,-0.100000)"
fill="#000000" stroke="none">
<path d="M0 309 l0 -40 11 -21 11 -20 28 6 28 5 6 -15 6 -16 0 -23 0 -23 -15
-6 -15 -5 -16 6 -16 6 -9 -14 -9 -14 0 -57 0 -58 38 0 37 0 23 6 23 7 6 29 6
28 9 6 10 6 11 -11 12 -12 0 -37 0 -37 42 -3 42 -3 31 16 31 16 -3 77 -3 77
-39 -2 -38 -3 13 16 12 15 29 -6 28 -7 0 66 0 65 -20 6 -20 6 -17 -4 -18 -5
-29 -7 -28 -6 5 -24 4 -25 -13 -11 -13 -10 -28 3 -28 3 3 37 4 38 -27 10 -26
10 -40 0 -39 0 0 -41z"/>
</g>
</svg>
