<?xml version="1.0" standalone="no"?>
<!DOCTYPE svg PUBLIC "-//W3C//DTD SVG 20010904//EN"
 "http://www.w3.org/TR/2001/REC-SVG-20010904/DTD/svg10.dtd">
<svg version="1.0" xmlns="http://www.w3.org/2000/svg"
 width="39.000000pt" height="33.000000pt" viewBox="0 0 39.000000 33.000000"
 preserveAspectRatio="xMidYMid meet">
<metadata>
Created by potrace 1.16, written by Peter Selinger 2001-2019
</metadata>
<g transform="translate(0.000000,33.000000) scale(0.100000,-0.100000)"
fill="#000000" stroke="none">
<path d="M77 270 l6 -60 -30 0 -29 0 -12 -12 -12 -12 0 -23 0 -23 40 0 40 0 0
-70 0 -70 66 0 65 0 -3 41 -3 42 12 4 13 5 4 -14 4 -13 6 -28 6 -27 65 0 64 0
4 8 4 7 -4 58 -5 57 -33 0 -33 0 -11 14 -11 13 6 17 6 16 12 1 11 1 24 -2 24
-2 8 14 9 13 0 49 0 48 -47 -7 -46 -7 -25 -9 -24 -9 5 -20 5 -20 -10 -6 -9 -6
-25 6 -25 7 6 31 7 30 -13 9 -14 9 -52 0 -53 0 7 -60z"/>
</g>
</svg>
