<?xml version="1.0" standalone="no"?>
<!DOCTYPE svg PUBLIC "-//W3C//DTD SVG 20010904//EN"
 "http://www.w3.org/TR/2001/REC-SVG-20010904/DTD/svg10.dtd">
<svg version="1.0" xmlns="http://www.w3.org/2000/svg"
 width="37.000000pt" height="31.000000pt" viewBox="0 0 37.000000 31.000000"
 preserveAspectRatio="xMidYMid meet">
<metadata>
Created by potrace 1.16, written by Peter Selinger 2001-2019
</metadata>
<g transform="translate(0.000000,31.000000) scale(0.100000,-0.100000)"
fill="#000000" stroke="none">
<path d="M78 246 l4 -64 -26 5 -26 5 -15 -12 -15 -12 0 -15 0 -15 38 4 37 3 3
-73 3 -72 55 0 54 0 -6 39 -6 39 19 11 20 10 11 -11 12 -12 0 -17 0 -17 6 -16
6 -16 52 0 53 0 4 4 4 4 -4 52 -3 52 -22 -6 -22 -5 -22 15 -22 15 0 19 0 19
16 16 17 16 25 -6 25 -6 8 13 9 13 0 38 0 38 -37 -7 -38 -7 -20 -7 -20 -7 0
-24 0 -24 -18 -3 -19 -4 -25 7 -25 6 5 34 5 33 -15 6 -15 6 -37 0 -37 0 4 -64z"/>
</g>
</svg>
