<?xml version="1.0" standalone="no"?>
<!DOCTYPE svg PUBLIC "-//W3C//DTD SVG 20010904//EN"
 "http://www.w3.org/TR/2001/REC-SVG-20010904/DTD/svg10.dtd">
<svg version="1.0" xmlns="http://www.w3.org/2000/svg"
 width="50.000000pt" height="42.000000pt" viewBox="0 0 50.000000 42.000000"
 preserveAspectRatio="xMidYMid meet">
<metadata>
Created by potrace 1.16, written by Peter Selinger 2001-2019
</metadata>
<g transform="translate(0.000000,42.000000) scale(0.100000,-0.100000)"
fill="#000000" stroke="none">
<path d="M74 358 l1 -63 -32 3 -33 2 -6 -25 -6 -25 12 -15 12 -15 24 0 23 0 5
-32 6 -33 2 -25 3 -25 53 -3 52 -3 0 -38 0 -37 12 -12 12 -12 22 0 22 0 16 6
16 6 0 33 0 32 31 7 31 6 24 0 23 0 6 10 6 10 -15 49 -14 49 5 5 5 5 33 -5 32
-5 22 11 21 12 0 34 0 35 -25 16 -25 16 -25 -4 -25 -5 0 43 0 44 -12 0 -11 0
-54 -17 -55 -17 5 -23 4 -22 -14 -5 -14 -6 -20 10 -19 11 6 39 7 40 -75 0 -75
0 1 -62z"/>
</g>
</svg>
