<?xml version="1.0" standalone="no"?>
<!DOCTYPE svg PUBLIC "-//W3C//DTD SVG 20010904//EN"
 "http://www.w3.org/TR/2001/REC-SVG-20010904/DTD/svg10.dtd">
<svg version="1.0" xmlns="http://www.w3.org/2000/svg"
 width="32.000000pt" height="39.000000pt" viewBox="0 0 32.000000 39.000000"
 preserveAspectRatio="xMidYMid meet">
<metadata>
Created by potrace 1.16, written by Peter Selinger 2001-2019
</metadata>
<g transform="translate(0.000000,39.000000) scale(0.100000,-0.100000)"
fill="#000000" stroke="none">
<path d="M20 340 l0 -52 26 6 26 7 24 -16 24 -15 0 -25 0 -24 -19 -10 -19 -11
-39 3 -38 2 2 -32 3 -31 10 -26 10 -26 50 0 50 0 0 -29 0 -29 6 -16 6 -16 23
0 24 0 15 16 16 15 0 36 0 36 41 -6 40 -5 5 11 4 12 -8 45 -8 45 -19 1 -20 1
-11 2 -12 1 -5 21 -6 20 20 20 19 19 30 0 30 0 0 50 0 50 -59 0 -60 0 -3 -37
-3 -38 -33 -3 -34 -3 6 18 6 19 -13 18 -13 18 -47 5 -47 6 0 -53z"/>
</g>
</svg>
