<?xml version="1.0" standalone="no"?>
<!DOCTYPE svg PUBLIC "-//W3C//DTD SVG 20010904//EN"
 "http://www.w3.org/TR/2001/REC-SVG-20010904/DTD/svg10.dtd">
<svg version="1.0" xmlns="http://www.w3.org/2000/svg"
 width="34.000000pt" height="41.000000pt" viewBox="0 0 34.000000 41.000000"
 preserveAspectRatio="xMidYMid meet">
<metadata>
Created by potrace 1.16, written by Peter Selinger 2001-2019
</metadata>
<g transform="translate(0.000000,41.000000) scale(0.100000,-0.100000)"
fill="#000000" stroke="none">
<path d="M20 350 l0 -61 34 3 34 2 16 -13 16 -13 0 -14 0 -13 -12 -7 -13 -8
-45 -1 -45 0 2 -40 1 -40 11 -27 11 -28 50 0 50 0 0 -29 0 -29 6 -16 6 -16 33
0 34 0 15 16 16 15 0 36 0 35 40 -7 40 -7 6 16 6 15 -9 53 -8 53 -33 3 -32 3
0 19 0 19 19 11 20 10 25 0 26 0 0 60 0 60 -69 0 -70 0 -3 -37 -3 -38 -16 -3
-16 -3 -6 31 -7 30 -25 10 -26 10 -40 0 -39 0 0 -60z"/>
</g>
</svg>
