<?xml version="1.0" standalone="no"?>
<!DOCTYPE svg PUBLIC "-//W3C//DTD SVG 20010904//EN"
 "http://www.w3.org/TR/2001/REC-SVG-20010904/DTD/svg10.dtd">
<svg version="1.0" xmlns="http://www.w3.org/2000/svg"
 width="34.000000pt" height="33.000000pt" viewBox="0 0 34.000000 33.000000"
 preserveAspectRatio="xMidYMid meet">
<metadata>
Created by potrace 1.16, written by Peter Selinger 2001-2019
</metadata>
<g transform="translate(0.000000,33.000000) scale(0.100000,-0.100000)"
fill="#000000" stroke="none">
<path d="M20 275 l0 -56 12 -3 13 -4 28 -6 27 -6 0 -15 0 -14 -21 -11 -20 -11
-30 6 -29 7 2 -76 2 -75 21 -5 20 -6 58 0 57 0 -2 28 -2 28 8 12 7 12 9 0 9 0
3 -32 3 -33 63 -3 62 -3 5 13 5 13 -13 50 -13 50 -31 3 -31 3 -6 14 -5 14 16
17 16 16 39 -6 38 -6 0 65 0 65 -6 0 -6 0 -54 -16 -54 -15 0 -24 0 -24 -21 -6
-20 -7 -20 18 -20 18 6 33 6 33 -66 0 -65 0 0 -55z"/>
</g>
</svg>
