<?xml version="1.0" standalone="no"?>
<!DOCTYPE svg PUBLIC "-//W3C//DTD SVG 20010904//EN"
 "http://www.w3.org/TR/2001/REC-SVG-20010904/DTD/svg10.dtd">
<svg version="1.0" xmlns="http://www.w3.org/2000/svg"
 width="47.000000pt" height="38.000000pt" viewBox="0 0 47.000000 38.000000"
 preserveAspectRatio="xMidYMid meet">
<metadata>
Created by potrace 1.16, written by Peter Selinger 2001-2019
</metadata>
<g transform="translate(0.000000,38.000000) scale(0.100000,-0.100000)"
fill="#000000" stroke="none">
<path d="M91 326 l2 -53 -7 -12 -8 -12 -27 6 -28 6 -12 -14 -11 -14 6 -16 6
-16 26 2 26 2 8 -40 8 -40 5 -22 5 -22 48 -3 47 -3 -3 -22 -3 -21 23 -16 22
-16 14 0 13 0 13 13 13 12 -4 12 -4 12 23 6 23 5 35 3 35 2 12 23 13 24 10 38
11 39 14 -5 14 -6 7 27 7 26 -12 26 -12 25 -29 -6 -30 -5 0 49 0 50 -42 0 -43
0 -21 -6 -22 -6 6 -20 5 -21 -18 -13 -18 -13 -18 10 -19 10 0 34 0 35 -55 0
-56 0 2 -54z"/>
</g>
</svg>
