<?xml version="1.0" standalone="no"?>
<!DOCTYPE svg PUBLIC "-//W3C//DTD SVG 20010904//EN"
 "http://www.w3.org/TR/2001/REC-SVG-20010904/DTD/svg10.dtd">
<svg version="1.0" xmlns="http://www.w3.org/2000/svg"
 width="33.000000pt" height="33.000000pt" viewBox="0 0 33.000000 33.000000"
 preserveAspectRatio="xMidYMid meet">
<metadata>
Created by potrace 1.16, written by Peter Selinger 2001-2019
</metadata>
<g transform="translate(0.000000,33.000000) scale(0.100000,-0.100000)"
fill="#000000" stroke="none">
<path d="M0 264 l0 -66 30 5 30 6 11 -20 11 -21 -6 -14 -5 -14 -15 0 -15 0
-12 -42 -11 -43 -10 -12 -10 -13 6 -15 6 -16 62 3 63 3 3 38 3 37 9 0 8 0 16
-6 16 -6 0 -19 0 -18 19 -11 20 -10 40 0 40 0 11 19 10 20 0 46 0 47 -28 -7
-28 -6 -19 21 -19 21 10 17 11 17 32 3 31 3 0 59 0 59 -57 -6 -58 -5 -14 -4
-13 -4 6 -24 6 -25 -15 -15 -16 -15 -14 5 -15 6 0 38 0 38 -16 6 -16 6 -49 0
-49 0 0 -66z"/>
</g>
</svg>
