<?xml version="1.0" standalone="no"?>
<!DOCTYPE svg PUBLIC "-//W3C//DTD SVG 20010904//EN"
 "http://www.w3.org/TR/2001/REC-SVG-20010904/DTD/svg10.dtd">
<svg version="1.0" xmlns="http://www.w3.org/2000/svg"
 width="32.000000pt" height="38.000000pt" viewBox="0 0 32.000000 38.000000"
 preserveAspectRatio="xMidYMid meet">
<metadata>
Created by potrace 1.16, written by Peter Selinger 2001-2019
</metadata>
<g transform="translate(0.000000,38.000000) scale(0.100000,-0.100000)"
fill="#000000" stroke="none">
<path d="M20 336 l0 -44 -5 -14 -5 -13 47 0 48 0 3 -27 3 -27 -22 -11 -21 -12
-29 4 -28 4 -5 -12 -4 -12 8 -37 8 -37 9 -9 8 -8 40 -3 40 -3 -2 -20 -1 -19 9
-18 10 -18 38 0 39 0 5 19 4 19 52 13 52 13 -7 15 -7 16 -4 25 -4 25 -5 22 -4
22 -28 3 -27 3 -3 23 -4 23 12 15 12 14 34 0 34 0 0 19 0 19 -6 31 -6 31 -27
0 -26 0 -22 -6 -22 -6 5 -13 6 -13 -21 -21 -21 -21 -10 0 -11 0 -25 26 -26 25
5 20 5 19 -49 0 -49 0 0 -44z"/>
</g>
</svg>
