<?xml version="1.0" standalone="no"?>
<!DOCTYPE svg PUBLIC "-//W3C//DTD SVG 20010904//EN"
 "http://www.w3.org/TR/2001/REC-SVG-20010904/DTD/svg10.dtd">
<svg version="1.0" xmlns="http://www.w3.org/2000/svg"
 width="34.000000pt" height="40.000000pt" viewBox="0 0 34.000000 40.000000"
 preserveAspectRatio="xMidYMid meet">
<metadata>
Created by potrace 1.16, written by Peter Selinger 2001-2019
</metadata>
<g transform="translate(0.000000,40.000000) scale(0.100000,-0.100000)"
fill="#000000" stroke="none">
<path d="M20 361 l0 -38 -6 -32 -6 -31 46 6 46 7 6 -18 7 -18 -19 -14 -19 -14
-31 6 -32 5 -6 -16 -6 -17 6 -36 7 -36 9 -18 9 -17 39 0 40 0 0 -21 0 -20 10
-20 11 -19 48 0 49 0 5 19 4 19 53 13 52 13 -6 21 -5 20 -6 30 -6 30 -5 23 -4
22 -26 0 -25 0 -5 15 -6 15 12 15 12 15 34 0 34 0 0 29 0 29 -6 31 -6 31 -37
0 -36 0 -22 -6 -22 -6 -3 -27 -3 -26 -22 -3 -21 -3 -15 21 -15 21 5 20 5 19
-61 0 -61 0 0 -39z"/>
</g>
</svg>
