<?xml version="1.0" standalone="no"?>
<!DOCTYPE svg PUBLIC "-//W3C//DTD SVG 20010904//EN"
 "http://www.w3.org/TR/2001/REC-SVG-20010904/DTD/svg10.dtd">
<svg version="1.0" xmlns="http://www.w3.org/2000/svg"
 width="32.000000pt" height="40.000000pt" viewBox="0 0 32.000000 40.000000"
 preserveAspectRatio="xMidYMid meet">
<metadata>
Created by potrace 1.16, written by Peter Selinger 2001-2019
</metadata>
<g transform="translate(0.000000,40.000000) scale(0.100000,-0.100000)"
fill="#000000" stroke="none">
<path d="M10 359 l0 -40 10 -20 11 -19 24 0 25 0 0 -21 0 -20 -11 -20 -10 -20
-27 3 -27 3 0 -60 0 -60 50 0 50 0 -2 -37 -2 -38 23 -6 24 -6 23 4 24 3 0 33
0 32 15 4 15 4 46 7 46 6 -27 67 -27 67 -17 -1 -17 -2 3 32 3 31 20 -2 20 -3
14 9 14 9 7 51 6 51 -153 0 -153 0 0 -41z"/>
</g>
</svg>
