<?xml version="1.0" standalone="no"?>
<!DOCTYPE svg PUBLIC "-//W3C//DTD SVG 20010904//EN"
 "http://www.w3.org/TR/2001/REC-SVG-20010904/DTD/svg10.dtd">
<svg version="1.0" xmlns="http://www.w3.org/2000/svg"
 width="35.000000pt" height="42.000000pt" viewBox="0 0 35.000000 42.000000"
 preserveAspectRatio="xMidYMid meet">
<metadata>
Created by potrace 1.16, written by Peter Selinger 2001-2019
</metadata>
<g transform="translate(0.000000,42.000000) scale(0.100000,-0.100000)"
fill="#000000" stroke="none">
<path d="M214 389 l6 -31 -11 -19 -10 -20 -27 3 -27 3 2 35 1 35 -11 7 -12 8
-30 0 -30 0 -23 -6 -22 -6 0 -53 0 -53 13 -10 13 -11 29 2 29 2 4 -18 4 -18
-12 -14 -12 -15 -38 0 -38 0 -5 -57 -4 -58 4 -7 4 -8 53 0 53 0 -5 -28 -4 -28
15 -13 16 -12 43 3 43 3 5 30 5 30 53 3 53 3 -3 82 -3 82 -33 3 -33 3 4 12 4
12 34 0 34 0 3 71 3 71 -38 7 -38 6 -34 0 -33 0 6 -31z"/>
</g>
</svg>
