<?xml version="1.0" standalone="no"?>
<!DOCTYPE svg PUBLIC "-//W3C//DTD SVG 20010904//EN"
 "http://www.w3.org/TR/2001/REC-SVG-20010904/DTD/svg10.dtd">
<svg version="1.0" xmlns="http://www.w3.org/2000/svg"
 width="41.000000pt" height="42.000000pt" viewBox="0 0 41.000000 42.000000"
 preserveAspectRatio="xMidYMid meet">
<metadata>
Created by potrace 1.16, written by Peter Selinger 2001-2019
</metadata>
<g transform="translate(0.000000,42.000000) scale(0.100000,-0.100000)"
fill="#000000" stroke="none">
<path d="M87 365 l5 -56 -6 -15 -6 -15 -19 10 -19 11 -24 -19 -23 -20 13 -12
12 -13 28 -1 27 0 3 -67 3 -68 51 0 51 0 -6 -34 -5 -34 17 -16 18 -16 21 0 21
0 12 21 11 22 -5 34 -6 34 13 5 13 5 44 -10 44 -10 14 14 15 14 0 48 1 48 -31
1 -31 1 -26 7 -27 6 0 25 0 24 12 8 13 7 35 1 35 0 3 51 3 51 -47 7 -47 6 -19
0 -19 0 6 -34 7 -34 -22 -22 -21 -21 -22 14 -22 14 -3 38 -3 37 -40 -4 -39 -4
0 8 0 8 -9 0 -8 0 4 -55z"/>
</g>
</svg>
