<?xml version="1.0" standalone="no"?>
<!DOCTYPE svg PUBLIC "-//W3C//DTD SVG 20010904//EN"
 "http://www.w3.org/TR/2001/REC-SVG-20010904/DTD/svg10.dtd">
<svg version="1.0" xmlns="http://www.w3.org/2000/svg"
 width="43.000000pt" height="44.000000pt" viewBox="0 0 43.000000 44.000000"
 preserveAspectRatio="xMidYMid meet">
<metadata>
Created by potrace 1.16, written by Peter Selinger 2001-2019
</metadata>
<g transform="translate(0.000000,44.000000) scale(0.100000,-0.100000)"
fill="#000000" stroke="none">
<path d="M85 375 l8 -67 -22 7 -22 7 -24 -16 -25 -16 0 -19 0 -19 14 -11 13
-11 24 2 24 3 3 -67 3 -68 50 0 51 0 -7 -31 -7 -30 18 -20 17 -19 33 0 33 0
11 19 10 20 0 40 0 41 33 -7 32 -7 25 -1 24 0 13 25 13 25 -2 45 -3 45 -52 5
-52 5 -7 7 -6 7 5 15 6 15 43 3 43 3 3 61 3 61 -47 7 -47 6 -30 0 -30 0 6 -34
5 -34 -13 -19 -14 -18 -18 11 -18 11 -3 37 -3 36 -28 0 -28 0 -33 6 -32 7 7
-68z"/>
</g>
</svg>
