<?xml version="1.0" standalone="no"?>
<!DOCTYPE svg PUBLIC "-//W3C//DTD SVG 20010904//EN"
 "http://www.w3.org/TR/2001/REC-SVG-20010904/DTD/svg10.dtd">
<svg version="1.0" xmlns="http://www.w3.org/2000/svg"
 width="46.000000pt" height="42.000000pt" viewBox="0 0 46.000000 42.000000"
 preserveAspectRatio="xMidYMid meet">
<metadata>
Created by potrace 1.16, written by Peter Selinger 2001-2019
</metadata>
<g transform="translate(0.000000,42.000000) scale(0.100000,-0.100000)"
fill="#000000" stroke="none">
<path d="M280 387 l0 -36 -16 -15 -15 -16 -18 0 -17 0 -12 12 -12 12 0 34 0
34 -42 -3 -43 -3 -5 -51 -5 -50 -35 0 -35 -1 -13 -7 -12 -8 0 -24 0 -25 27 -6
26 -7 31 -1 31 -1 3 -33 3 -32 -15 -32 -16 -31 0 -1 0 -1 56 3 57 4 -6 -34 -5
-33 10 -17 9 -18 24 0 24 0 15 16 16 15 6 25 6 24 -4 25 -5 25 21 0 21 0 27
-14 26 -14 12 47 12 46 4 13 4 14 20 5 20 5 0 34 0 34 -19 0 -19 0 -16 6 -16
6 0 43 0 44 -9 5 -9 6 -46 6 -46 7 0 -36z"/>
</g>
</svg>
