<?xml version="1.0" standalone="no"?>
<!DOCTYPE svg PUBLIC "-//W3C//DTD SVG 20010904//EN"
 "http://www.w3.org/TR/2001/REC-SVG-20010904/DTD/svg10.dtd">
<svg version="1.0" xmlns="http://www.w3.org/2000/svg"
 width="30.000000pt" height="33.000000pt" viewBox="0 0 30.000000 33.000000"
 preserveAspectRatio="xMidYMid meet">
<metadata>
Created by potrace 1.16, written by Peter Selinger 2001-2019
</metadata>
<g transform="translate(0.000000,33.000000) scale(0.100000,-0.100000)"
fill="#000000" stroke="none">
<path d="M209 323 l-1 -8 2 -28 2 -29 -18 -19 -17 -19 -27 0 -28 0 -12 15 -12
15 4 30 5 30 -23 6 -22 6 -23 -4 -23 -3 -8 -30 -7 -29 5 -22 6 -22 31 2 32 1
3 -47 3 -48 -16 0 -16 0 -6 -18 -6 -17 -15 -35 -16 -35 -3 -5 -3 -6 42 4 43 4
13 10 12 10 0 30 0 29 38 -3 37 -3 0 -25 0 -25 8 -12 8 -13 50 0 50 0 -3 63
-3 62 -23 -3 -23 -3 -25 15 -24 16 0 25 0 24 12 8 13 7 29 -3 29 -3 8 14 9 13
0 36 0 37 -31 6 -31 6 -14 0 -14 0 -1 -7z"/>
</g>
</svg>
