<?xml version="1.0" standalone="no"?>
<!DOCTYPE svg PUBLIC "-//W3C//DTD SVG 20010904//EN"
 "http://www.w3.org/TR/2001/REC-SVG-20010904/DTD/svg10.dtd">
<svg version="1.0" xmlns="http://www.w3.org/2000/svg"
 width="46.000000pt" height="33.000000pt" viewBox="0 0 46.000000 33.000000"
 preserveAspectRatio="xMidYMid meet">
<metadata>
Created by potrace 1.16, written by Peter Selinger 2001-2019
</metadata>
<g transform="translate(0.000000,33.000000) scale(0.100000,-0.100000)"
fill="#000000" stroke="none">
<path d="M255 322 l-10 -7 0 -35 0 -35 -44 -3 -44 -3 6 31 7 31 -27 10 -27 10
-23 -5 -22 -6 -3 -48 -3 -47 -32 -3 -33 -3 0 -33 0 -33 22 1 22 1 13 -55 12
-55 -4 -15 -5 -15 53 0 52 0 7 10 7 10 -5 21 -5 21 16 17 16 16 13 0 13 0 16
-18 16 -18 -5 -21 -6 -22 25 -6 24 -6 34 3 34 3 3 59 3 58 28 -5 29 -6 17 12
17 13 -4 29 -3 30 -42 3 -43 3 0 49 0 49 -7 4 -8 4 -45 7 -45 6 -10 -8z"/>
</g>
</svg>
