<?xml version="1.0" standalone="no"?>
<!DOCTYPE svg PUBLIC "-//W3C//DTD SVG 20010904//EN"
 "http://www.w3.org/TR/2001/REC-SVG-20010904/DTD/svg10.dtd">
<svg version="1.0" xmlns="http://www.w3.org/2000/svg"
 width="48.000000pt" height="35.000000pt" viewBox="0 0 48.000000 35.000000"
 preserveAspectRatio="xMidYMid meet">
<metadata>
Created by potrace 1.16, written by Peter Selinger 2001-2019
</metadata>
<g transform="translate(0.000000,35.000000) scale(0.100000,-0.100000)"
fill="#000000" stroke="none">
<path d="M253 343 l-11 -8 1 -35 2 -35 -32 -3 -31 -3 1 32 2 33 -32 9 -32 10
-25 -7 -25 -6 -3 -48 -3 -47 -32 -3 -33 -3 0 -45 0 -45 22 3 21 3 9 -30 9 -30
0 -40 1 -40 64 0 65 0 5 22 6 22 -6 10 -6 9 16 17 16 16 14 -12 14 -11 0 -29
0 -29 23 -5 24 -6 44 3 44 3 3 58 3 57 24 -6 23 -6 22 12 21 11 -3 42 -3 42
-42 3 -43 3 0 49 0 49 -7 4 -8 5 -55 6 -55 7 -12 -8z"/>
</g>
</svg>
