<?xml version="1.0" standalone="no"?>
<!DOCTYPE svg PUBLIC "-//W3C//DTD SVG 20010904//EN"
 "http://www.w3.org/TR/2001/REC-SVG-20010904/DTD/svg10.dtd">
<svg version="1.0" xmlns="http://www.w3.org/2000/svg"
 width="32.000000pt" height="33.000000pt" viewBox="0 0 32.000000 33.000000"
 preserveAspectRatio="xMidYMid meet">
<metadata>
Created by potrace 1.16, written by Peter Selinger 2001-2019
</metadata>
<g transform="translate(0.000000,33.000000) scale(0.100000,-0.100000)"
fill="#000000" stroke="none">
<path d="M22 322 l-13 -9 -6 -53 -6 -53 27 7 28 7 25 -16 24 -16 -3 -22 -3
-22 -35 2 -35 1 -7 -11 -8 -12 0 -63 0 -63 68 3 67 3 -3 37 -3 36 11 7 11 7
13 -12 14 -11 -5 -19 -5 -20 12 -15 12 -15 55 0 54 0 5 13 5 14 -8 49 -9 49
-24 0 -25 0 -3 42 -3 42 33 3 33 3 3 53 3 52 -23 0 -23 0 -38 -7 -39 -6 5 -23
4 -24 -11 -16 -12 -16 -29 4 -30 3 -5 40 -5 39 -25 7 -25 7 -15 1 -15 1 -13
-8z"/>
</g>
</svg>
