<?xml version="1.0" standalone="no"?>
<!DOCTYPE svg PUBLIC "-//W3C//DTD SVG 20010904//EN"
 "http://www.w3.org/TR/2001/REC-SVG-20010904/DTD/svg10.dtd">
<svg version="1.0" xmlns="http://www.w3.org/2000/svg"
 width="30.000000pt" height="31.000000pt" viewBox="0 0 30.000000 31.000000"
 preserveAspectRatio="xMidYMid meet">
<metadata>
Created by potrace 1.16, written by Peter Selinger 2001-2019
</metadata>
<g transform="translate(0.000000,31.000000) scale(0.100000,-0.100000)"
fill="#000000" stroke="none">
<path d="M23 302 l-12 -8 -7 -41 -6 -41 26 5 26 5 26 -16 25 -17 -3 -32 -3
-32 -35 0 -35 0 -7 -10 -8 -10 0 -53 0 -53 57 3 57 3 0 40 1 40 18 3 18 4 15
-13 15 -13 -5 -20 -5 -20 11 -13 10 -13 44 0 43 0 5 9 5 8 -7 44 -7 44 -24 0
-24 0 -8 28 -7 27 7 27 7 27 30 1 29 0 3 44 3 44 -38 -6 -38 -7 -13 0 -13 0 6
-20 6 -19 -11 -21 -11 -21 -42 3 -42 3 -3 35 -3 35 -7 6 -7 6 -25 6 -25 6 -12
-7z"/>
</g>
</svg>
