<?xml version="1.0" standalone="no"?>
<!DOCTYPE svg PUBLIC "-//W3C//DTD SVG 20010904//EN"
 "http://www.w3.org/TR/2001/REC-SVG-20010904/DTD/svg10.dtd">
<svg version="1.0" xmlns="http://www.w3.org/2000/svg"
 width="39.000000pt" height="38.000000pt" viewBox="0 0 39.000000 38.000000"
 preserveAspectRatio="xMidYMid meet">
<metadata>
Created by potrace 1.16, written by Peter Selinger 2001-2019
</metadata>
<g transform="translate(0.000000,38.000000) scale(0.100000,-0.100000)"
fill="#000000" stroke="none">
<path d="M217 374 l-7 -7 7 -25 6 -24 -14 -9 -14 -9 -52 0 -52 0 2 -52 2 -51
-45 -1 -45 -1 -3 -22 -3 -23 26 -10 26 -10 32 3 32 2 3 -23 4 -23 -16 -45 -15
-44 65 0 64 0 -6 24 -6 25 7 20 6 21 19 0 19 0 7 -12 7 -11 -1 -34 -1 -34 52
3 52 3 -4 40 -3 39 -9 24 -9 23 -10 -6 -11 -7 -14 12 -15 12 0 19 0 18 17 16
16 17 30 -6 29 -6 -7 53 -7 52 -4 4 -3 4 -53 11 -53 12 -10 22 -10 22 -11 0
-11 0 -6 -6z"/>
</g>
</svg>
