<?xml version="1.0" standalone="no"?>
<!DOCTYPE svg PUBLIC "-//W3C//DTD SVG 20010904//EN"
 "http://www.w3.org/TR/2001/REC-SVG-20010904/DTD/svg10.dtd">
<svg version="1.0" xmlns="http://www.w3.org/2000/svg"
 width="34.000000pt" height="38.000000pt" viewBox="0 0 34.000000 38.000000"
 preserveAspectRatio="xMidYMid meet">
<metadata>
Created by potrace 1.16, written by Peter Selinger 2001-2019
</metadata>
<g transform="translate(0.000000,38.000000) scale(0.100000,-0.100000)"
fill="#000000" stroke="none">
<path d="M135 357 l-6 -23 3 -15 3 -14 -58 -3 -57 -3 0 -12 0 -12 -6 -36 -6
-36 31 5 31 4 15 -12 15 -12 0 -22 0 -22 -13 -18 -13 -18 -35 -2 -34 -2 1 -17
1 -17 1 -35 2 -36 68 3 67 3 -3 31 -3 31 16 13 15 13 7 -7 7 -7 1 -26 0 -27
61 -11 61 -11 11 12 11 12 7 51 7 51 -14 1 -14 2 -35 1 -35 1 -3 22 -3 23 30
0 30 0 11 20 11 21 -3 37 -3 37 -60 5 -60 5 0 35 0 35 -27 3 -27 3 -6 -24z"/>
</g>
</svg>
