<?xml version="1.0" standalone="no"?>
<!DOCTYPE svg PUBLIC "-//W3C//DTD SVG 20010904//EN"
 "http://www.w3.org/TR/2001/REC-SVG-20010904/DTD/svg10.dtd">
<svg version="1.0" xmlns="http://www.w3.org/2000/svg"
 width="41.000000pt" height="49.000000pt" viewBox="0 0 41.000000 49.000000"
 preserveAspectRatio="xMidYMid meet">
<metadata>
Created by potrace 1.16, written by Peter Selinger 2001-2019
</metadata>
<g transform="translate(0.000000,49.000000) scale(0.100000,-0.100000)"
fill="#000000" stroke="none">
<path d="M185 478 l-4 -13 2 -25 2 -25 -52 -3 -53 -3 0 -40 0 -40 -10 -20 -11
-19 -30 0 -30 0 3 -32 3 -33 48 -3 49 -3 -7 -42 -7 -42 -9 -3 -9 -4 0 -25 0
-25 33 7 32 7 23 5 22 5 0 -36 0 -36 24 -16 25 -16 23 4 23 3 3 37 3 37 55 7
56 7 4 12 5 13 -13 53 -13 54 -22 3 -21 3 -6 14 -5 14 12 8 12 8 30 0 30 0 1
71 1 72 -61 8 -61 9 -3 28 -3 27 -45 0 -45 0 -4 -12z"/>
</g>
</svg>
