<?xml version="1.0" standalone="no"?>
<!DOCTYPE svg PUBLIC "-//W3C//DTD SVG 20010904//EN"
 "http://www.w3.org/TR/2001/REC-SVG-20010904/DTD/svg10.dtd">
<svg version="1.0" xmlns="http://www.w3.org/2000/svg"
 width="40.000000pt" height="38.000000pt" viewBox="0 0 40.000000 38.000000"
 preserveAspectRatio="xMidYMid meet">
<metadata>
Created by potrace 1.16, written by Peter Selinger 2001-2019
</metadata>
<g transform="translate(0.000000,38.000000) scale(0.100000,-0.100000)"
fill="#000000" stroke="none">
<path d="M207 374 l-7 -7 6 -23 6 -22 -20 -11 -21 -11 -30 0 -29 0 -16 -6 -15
-6 6 -14 5 -14 -6 -24 -6 -24 -31 2 -32 1 -8 -30 -8 -29 15 -24 16 -24 35 5
35 6 -4 -57 -3 -57 58 -3 58 -3 -6 34 -7 34 17 16 16 17 7 0 7 0 15 -10 14 -9
1 -33 0 -33 45 -5 45 -5 15 3 15 3 -5 52 -5 52 -35 5 -35 5 0 35 0 35 34 -3
34 -3 9 13 8 13 0 53 0 53 -8 -5 -8 -5 -53 16 -53 15 -5 19 -5 19 -27 0 -28 0
-6 -6z"/>
</g>
</svg>
