<?xml version="1.0" standalone="no"?>
<!DOCTYPE svg PUBLIC "-//W3C//DTD SVG 20010904//EN"
 "http://www.w3.org/TR/2001/REC-SVG-20010904/DTD/svg10.dtd">
<svg version="1.0" xmlns="http://www.w3.org/2000/svg"
 width="42.000000pt" height="40.000000pt" viewBox="0 0 42.000000 40.000000"
 preserveAspectRatio="xMidYMid meet">
<metadata>
Created by potrace 1.16, written by Peter Selinger 2001-2019
</metadata>
<g transform="translate(0.000000,40.000000) scale(0.100000,-0.100000)"
fill="#000000" stroke="none">
<path d="M204 385 l-6 -15 6 -15 5 -15 -19 -10 -19 -10 -33 0 -33 0 -12 -8
-12 -8 2 -29 2 -30 -35 -5 -34 -5 -9 -38 -9 -37 16 -25 16 -25 35 0 34 0 -2
-52 -2 -53 69 -3 69 -3 -5 33 -5 33 4 13 5 12 19 0 19 0 0 -34 0 -35 9 -5 9
-6 60 -2 60 -3 5 5 5 5 -6 60 -7 60 -35 5 -35 5 0 25 0 25 34 -3 34 -4 8 14 9
13 0 63 0 62 -22 0 -23 0 -39 11 -38 11 -5 19 -5 19 -39 0 -40 0 -5 -15z"/>
</g>
</svg>
