<?xml version="1.0" standalone="no"?>
<!DOCTYPE svg PUBLIC "-//W3C//DTD SVG 20010904//EN"
 "http://www.w3.org/TR/2001/REC-SVG-20010904/DTD/svg10.dtd">
<svg version="1.0" xmlns="http://www.w3.org/2000/svg"
 width="48.000000pt" height="34.000000pt" viewBox="0 0 48.000000 34.000000"
 preserveAspectRatio="xMidYMid meet">
<metadata>
Created by potrace 1.16, written by Peter Selinger 2001-2019
</metadata>
<g transform="translate(0.000000,34.000000) scale(0.100000,-0.100000)"
fill="#000000" stroke="none">
<path d="M73 311 l6 -29 -10 -36 -10 -36 -29 0 -30 0 0 -28 0 -28 12 -12 12
-12 34 0 35 0 -7 -60 -7 -60 55 0 54 0 16 6 16 6 0 34 0 34 9 0 10 0 8 -12 8
-13 0 -30 0 -30 44 -3 44 -3 29 12 30 12 -6 21 -6 21 -6 36 -6 36 30 -5 30 -4
21 11 21 12 0 32 0 33 -12 12 -12 12 -33 0 -32 0 6 50 6 50 -168 0 -167 0 5
-29z"/>
</g>
</svg>
