<?xml version="1.0" standalone="no"?>
<!DOCTYPE svg PUBLIC "-//W3C//DTD SVG 20010904//EN"
 "http://www.w3.org/TR/2001/REC-SVG-20010904/DTD/svg10.dtd">
<svg version="1.0" xmlns="http://www.w3.org/2000/svg"
 width="33.000000pt" height="49.000000pt" viewBox="0 0 33.000000 49.000000"
 preserveAspectRatio="xMidYMid meet">
<metadata>
Created by potrace 1.16, written by Peter Selinger 2001-2019
</metadata>
<g transform="translate(0.000000,49.000000) scale(0.100000,-0.100000)"
fill="#000000" stroke="none">
<path d="M141 474 l-21 -15 0 -39 0 -39 -57 -3 -58 -3 0 -59 0 -60 35 0 35 -1
3 -27 3 -28 -24 0 -24 0 -10 -50 -10 -50 9 0 9 0 -5 -9 -6 -9 41 0 40 -1 15
-12 14 -12 -2 -26 -3 -26 40 0 39 0 6 24 6 25 46 12 47 12 5 -6 6 -5 0 10 0
10 -12 57 -11 57 -26 -3 -26 -2 -13 7 -12 8 0 20 0 19 24 10 25 9 28 -2 28 -2
-3 55 -4 55 -8 8 -7 8 -49 13 -49 12 0 29 -1 28 -21 8 -21 8 -21 -15z"/>
</g>
</svg>
