<?xml version="1.0" standalone="no"?>
<!DOCTYPE svg PUBLIC "-//W3C//DTD SVG 20010904//EN"
 "http://www.w3.org/TR/2001/REC-SVG-20010904/DTD/svg10.dtd">
<svg version="1.0" xmlns="http://www.w3.org/2000/svg"
 width="52.000000pt" height="43.000000pt" viewBox="0 0 52.000000 43.000000"
 preserveAspectRatio="xMidYMid meet">
<metadata>
Created by potrace 1.16, written by Peter Selinger 2001-2019
</metadata>
<g transform="translate(0.000000,43.000000) scale(0.100000,-0.100000)"
fill="#000000" stroke="none">
<path d="M222 421 l-14 -8 4 -34 3 -33 -25 -13 -25 -13 -33 6 -34 7 4 -64 3
-64 -26 3 -25 3 -27 -10 -27 -11 0 -29 0 -29 14 -11 14 -12 25 6 24 6 12 -60
12 -61 57 0 57 0 14 9 14 9 -6 30 -6 30 13 5 14 6 6 -6 6 -6 0 -39 0 -39 73 3
72 3 3 57 3 58 27 0 28 0 22 16 22 15 0 34 0 34 -21 11 -21 12 -24 -6 -24 -6
-4 22 -5 23 -3 25 -3 24 -30 8 -30 7 -26 5 -26 6 4 24 5 24 -23 16 -23 16 -16
0 -15 0 -13 -9z"/>
</g>
</svg>
