<?xml version="1.0" standalone="no"?>
<!DOCTYPE svg PUBLIC "-//W3C//DTD SVG 20010904//EN"
 "http://www.w3.org/TR/2001/REC-SVG-20010904/DTD/svg10.dtd">
<svg version="1.0" xmlns="http://www.w3.org/2000/svg"
 width="50.000000pt" height="41.000000pt" viewBox="0 0 50.000000 41.000000"
 preserveAspectRatio="xMidYMid meet">
<metadata>
Created by potrace 1.16, written by Peter Selinger 2001-2019
</metadata>
<g transform="translate(0.000000,41.000000) scale(0.100000,-0.100000)"
fill="#000000" stroke="none">
<path d="M222 403 l-13 -5 6 -32 7 -32 -18 -15 -17 -14 -44 0 -45 0 4 -60 3
-60 -28 2 -28 2 -25 -9 -24 -10 0 -19 0 -20 12 -8 13 -7 26 2 26 3 12 -60 12
-61 44 0 43 0 16 6 16 6 -6 33 -6 33 22 7 21 7 14 -12 14 -11 -6 -35 -6 -35
64 3 64 3 5 60 5 60 23 -3 23 -3 25 15 24 16 0 25 0 24 -18 10 -17 9 -27 -5
-27 -5 -5 23 -5 24 -3 25 -3 24 -30 8 -30 7 -28 6 -29 6 6 24 6 24 -22 15 -22
16 -6 -1 -5 -1 -13 -5z"/>
</g>
</svg>
