<?xml version="1.0" standalone="no"?>
<!DOCTYPE svg PUBLIC "-//W3C//DTD SVG 20010904//EN"
 "http://www.w3.org/TR/2001/REC-SVG-20010904/DTD/svg10.dtd">
<svg version="1.0" xmlns="http://www.w3.org/2000/svg"
 width="41.000000pt" height="39.000000pt" viewBox="0 0 41.000000 39.000000"
 preserveAspectRatio="xMidYMid meet">
<metadata>
Created by potrace 1.16, written by Peter Selinger 2001-2019
</metadata>
<g transform="translate(0.000000,39.000000) scale(0.100000,-0.100000)"
fill="#000000" stroke="none">
<path d="M22 343 l3 -48 34 3 33 2 14 -11 14 -11 0 -34 0 -33 -21 -12 -22 -11
-38 5 -39 5 0 -19 0 -20 14 -34 15 -35 33 0 33 0 23 -7 24 -6 -6 -28 -5 -29
19 -10 19 -10 9 0 10 0 12 30 12 30 -5 26 -5 26 60 -6 61 -7 -6 15 -6 15 -7
35 -6 36 37 0 36 0 20 10 19 11 0 24 0 24 -11 7 -12 7 -26 1 -26 1 -3 51 -3
51 -52 -4 -52 -5 -14 -4 -13 -4 6 -16 6 -15 -10 -20 -11 -19 -24 0 -24 0 -11
21 -12 21 6 24 6 24 -55 0 -56 0 3 -47z"/>
</g>
</svg>
