<?xml version="1.0" standalone="no"?>
<!DOCTYPE svg PUBLIC "-//W3C//DTD SVG 20010904//EN"
 "http://www.w3.org/TR/2001/REC-SVG-20010904/DTD/svg10.dtd">
<svg version="1.0" xmlns="http://www.w3.org/2000/svg"
 width="35.000000pt" height="33.000000pt" viewBox="0 0 35.000000 33.000000"
 preserveAspectRatio="xMidYMid meet">
<metadata>
Created by potrace 1.16, written by Peter Selinger 2001-2019
</metadata>
<g transform="translate(0.000000,33.000000) scale(0.100000,-0.100000)"
fill="#000000" stroke="none">
<path d="M32 268 l3 -63 33 -3 33 -3 6 -16 6 -16 -18 -13 -19 -14 -38 0 -38 0
0 -19 0 -19 12 -51 11 -51 64 0 63 0 0 38 0 38 12 12 12 12 17 0 18 0 3 -32 3
-32 54 -13 54 -14 13 5 14 5 0 53 0 53 -6 23 -7 23 -31 -3 -31 -3 0 10 0 10
38 -3 37 -4 0 71 0 71 -15 0 -15 0 -60 -17 -60 -16 0 -24 0 -24 -27 3 -27 3 0
40 -1 40 -58 3 -58 3 3 -63z"/>
</g>
</svg>
