<?xml version="1.0" standalone="no"?>
<!DOCTYPE svg PUBLIC "-//W3C//DTD SVG 20010904//EN"
 "http://www.w3.org/TR/2001/REC-SVG-20010904/DTD/svg10.dtd">
<svg version="1.0" xmlns="http://www.w3.org/2000/svg"
 width="41.000000pt" height="31.000000pt" viewBox="0 0 41.000000 31.000000"
 preserveAspectRatio="xMidYMid meet">
<metadata>
Created by potrace 1.16, written by Peter Selinger 2001-2019
</metadata>
<g transform="translate(0.000000,31.000000) scale(0.100000,-0.100000)"
fill="#000000" stroke="none">
<path d="M100 244 l0 -66 -38 7 -39 6 -11 -14 -12 -14 14 -13 15 -12 30 7 30
6 7 -36 6 -36 -5 -38 -5 -38 48 1 48 2 17 14 17 14 -6 32 -6 32 16 6 17 6 24
-15 23 -16 -6 -24 -6 -24 29 -6 28 -6 31 -8 32 -8 6 36 6 36 0 18 0 17 -45 0
-44 0 -11 19 -10 20 0 31 0 31 36 -3 35 -2 9 14 10 15 0 38 0 37 -50 0 -50 0
0 -30 0 -29 -19 -11 -20 -10 -15 0 -15 0 -14 28 -14 27 4 13 5 12 -51 0 -51 0
0 -66z"/>
</g>
</svg>
