<?xml version="1.0" standalone="no"?>
<!DOCTYPE svg PUBLIC "-//W3C//DTD SVG 20010904//EN"
 "http://www.w3.org/TR/2001/REC-SVG-20010904/DTD/svg10.dtd">
<svg version="1.0" xmlns="http://www.w3.org/2000/svg"
 width="43.000000pt" height="33.000000pt" viewBox="0 0 43.000000 33.000000"
 preserveAspectRatio="xMidYMid meet">
<metadata>
Created by potrace 1.16, written by Peter Selinger 2001-2019
</metadata>
<g transform="translate(0.000000,33.000000) scale(0.100000,-0.100000)"
fill="#000000" stroke="none">
<path d="M16 293 l-6 -38 0 -27 0 -27 36 2 36 2 12 -18 11 -18 -18 -14 -19
-13 -34 5 -34 6 0 -39 0 -39 11 -38 10 -37 75 0 75 0 -3 36 -3 37 13 4 12 5 0
-25 0 -24 65 -16 65 -16 15 5 15 6 11 44 11 43 27 3 26 3 3 34 3 34 -6 24 -6
24 -37 -3 -37 -3 -3 58 -3 57 -158 0 -158 0 -7 -37z"/>
</g>
</svg>
