<?xml version="1.0" standalone="no"?>
<!DOCTYPE svg PUBLIC "-//W3C//DTD SVG 20010904//EN"
 "http://www.w3.org/TR/2001/REC-SVG-20010904/DTD/svg10.dtd">
<svg version="1.0" xmlns="http://www.w3.org/2000/svg"
 width="41.000000pt" height="31.000000pt" viewBox="0 0 41.000000 31.000000"
 preserveAspectRatio="xMidYMid meet">
<metadata>
Created by potrace 1.16, written by Peter Selinger 2001-2019
</metadata>
<g transform="translate(0.000000,31.000000) scale(0.100000,-0.100000)"
fill="#000000" stroke="none">
<path d="M16 273 l-6 -38 0 -16 0 -16 30 5 30 4 15 -12 15 -12 0 -24 0 -23
-21 -11 -20 -11 -30 6 -29 7 0 -29 0 -28 11 -38 10 -37 64 0 64 0 -6 33 -5 33
16 13 15 13 11 -7 10 -6 0 -23 0 -23 60 -15 60 -14 10 6 10 6 13 44 13 45 24
0 25 0 3 24 4 23 -6 24 -7 25 -37 -3 -37 -3 -3 58 -3 57 -148 0 -148 0 -7 -37z"/>
</g>
</svg>
