<?xml version="1.0" standalone="no"?>
<!DOCTYPE svg PUBLIC "-//W3C//DTD SVG 20010904//EN"
 "http://www.w3.org/TR/2001/REC-SVG-20010904/DTD/svg10.dtd">
<svg version="1.0" xmlns="http://www.w3.org/2000/svg"
 width="41.000000pt" height="48.000000pt" viewBox="0 0 41.000000 48.000000"
 preserveAspectRatio="xMidYMid meet">
<metadata>
Created by potrace 1.16, written by Peter Selinger 2001-2019
</metadata>
<g transform="translate(0.000000,48.000000) scale(0.100000,-0.100000)"
fill="#000000" stroke="none">
<path d="M217 466 l-6 -15 6 -37 6 -37 -66 5 -66 6 -3 -47 -3 -46 -28 3 -29 3
-14 -12 -14 -11 0 -29 0 -28 11 -6 10 -7 35 0 35 0 6 -15 6 -15 -10 -44 -10
-44 11 -1 11 0 43 -4 44 -3 6 -7 7 -7 0 -26 0 -26 28 -10 28 -10 17 10 17 11
0 14 0 14 53 14 52 14 0 62 0 63 -16 6 -16 6 -9 -6 -10 -6 -14 12 -15 12 0 23
0 23 13 10 13 11 30 -2 29 -2 3 53 3 52 -8 0 -9 0 -10 -10 -11 -11 -44 -2 -44
-2 0 45 0 45 -8 13 -8 12 -24 0 -23 0 -5 -14z"/>
</g>
</svg>
