<?xml version="1.0" standalone="no"?>
<!DOCTYPE svg PUBLIC "-//W3C//DTD SVG 20010904//EN"
 "http://www.w3.org/TR/2001/REC-SVG-20010904/DTD/svg10.dtd">
<svg version="1.0" xmlns="http://www.w3.org/2000/svg"
 width="31.000000pt" height="40.000000pt" viewBox="0 0 31.000000 40.000000"
 preserveAspectRatio="xMidYMid meet">
<metadata>
Created by potrace 1.16, written by Peter Selinger 2001-2019
</metadata>
<g transform="translate(0.000000,40.000000) scale(0.100000,-0.100000)"
fill="#000000" stroke="none">
<path d="M120 365 l0 -35 -27 -11 -26 -10 -31 3 -31 3 -3 -33 -3 -33 16 -26
17 -25 29 4 29 5 0 -26 0 -26 -8 -10 -7 -10 -20 0 -20 0 -11 -45 -12 -45 -7
-17 -7 -18 38 0 39 0 23 6 23 7 -3 41 -3 41 27 3 27 3 11 -21 12 -22 -7 -34
-6 -34 45 0 44 0 16 6 16 6 0 42 0 41 -6 22 -6 22 -35 -2 -35 -2 -11 16 -10
16 7 26 6 27 50 0 50 0 0 45 0 45 -26 -10 -25 -10 -31 0 -30 0 6 32 6 31 -15
24 -15 23 -30 0 -30 0 0 -35z"/>
</g>
</svg>
