<?xml version="1.0" standalone="no"?>
<!DOCTYPE svg PUBLIC "-//W3C//DTD SVG 20010904//EN"
 "http://www.w3.org/TR/2001/REC-SVG-20010904/DTD/svg10.dtd">
<svg version="1.0" xmlns="http://www.w3.org/2000/svg"
 width="33.000000pt" height="42.000000pt" viewBox="0 0 33.000000 42.000000"
 preserveAspectRatio="xMidYMid meet">
<metadata>
Created by potrace 1.16, written by Peter Selinger 2001-2019
</metadata>
<g transform="translate(0.000000,42.000000) scale(0.100000,-0.100000)"
fill="#000000" stroke="none">
<path d="M120 386 l0 -35 -12 -7 -13 -8 -45 -1 -45 0 -3 -43 -3 -44 16 -24 15
-24 31 0 30 0 -3 -17 -3 -17 -25 -6 -25 -6 -13 -49 -14 -50 -5 -22 -5 -23 48
0 49 0 23 6 22 6 0 44 0 44 15 0 14 0 10 -19 10 -18 -6 -37 -6 -36 56 0 55 0
16 6 16 6 0 52 0 51 -7 24 -6 23 -33 -5 -33 -6 -11 14 -12 14 7 21 6 20 50 0
49 0 0 56 0 56 -22 -6 -23 -7 -33 -6 -32 -6 6 32 6 31 -16 25 -16 25 -40 0
-40 0 0 -34z"/>
</g>
</svg>
