<?xml version="1.0" standalone="no"?>
<!DOCTYPE svg PUBLIC "-//W3C//DTD SVG 20010904//EN"
 "http://www.w3.org/TR/2001/REC-SVG-20010904/DTD/svg10.dtd">
<svg version="1.0" xmlns="http://www.w3.org/2000/svg"
 width="42.000000pt" height="49.000000pt" viewBox="0 0 42.000000 49.000000"
 preserveAspectRatio="xMidYMid meet">
<metadata>
Created by potrace 1.16, written by Peter Selinger 2001-2019
</metadata>
<g transform="translate(0.000000,49.000000) scale(0.100000,-0.100000)"
fill="#000000" stroke="none">
<path d="M143 483 l-13 -5 0 -33 0 -33 -29 -7 -28 -6 -25 6 -24 6 -13 -15 -12
-14 3 -59 3 -58 25 -2 25 -1 13 -1 12 -1 0 -10 0 -10 -30 0 -30 0 -4 -22 -5
-23 -5 -52 -5 -53 23 -6 24 -6 18 2 19 2 17 -1 17 -1 3 -37 3 -38 39 -3 39 -3
8 13 9 13 0 21 0 21 38 6 37 6 23 -5 22 -6 0 60 0 61 38 3 37 3 3 44 3 44 -13
8 -13 9 -27 0 -27 0 -3 48 -3 47 -60 0 -60 0 3 31 3 31 -16 17 -16 16 -17 -1
-17 -1 -12 -5z"/>
</g>
</svg>
