<?xml version="1.0" standalone="no"?>
<!DOCTYPE svg PUBLIC "-//W3C//DTD SVG 20010904//EN"
 "http://www.w3.org/TR/2001/REC-SVG-20010904/DTD/svg10.dtd">
<svg version="1.0" xmlns="http://www.w3.org/2000/svg"
 width="50.000000pt" height="47.000000pt" viewBox="0 0 50.000000 47.000000"
 preserveAspectRatio="xMidYMid meet">
<metadata>
Created by potrace 1.16, written by Peter Selinger 2001-2019
</metadata>
<g transform="translate(0.000000,47.000000) scale(0.100000,-0.100000)"
fill="#000000" stroke="none">
<path d="M216 454 l-6 -16 0 -30 0 -30 -66 4 -66 4 7 -58 7 -58 -35 0 -35 0
-12 -15 -12 -14 4 -18 3 -18 30 0 30 -1 10 -67 10 -67 15 10 15 10 38 0 37 0
0 -23 0 -24 20 -23 21 -24 27 10 27 10 -2 22 -3 21 33 6 32 6 23 2 23 1 -3 56
-3 55 32 -3 32 -3 26 25 25 25 0 15 0 15 -16 16 -16 16 -34 -7 -33 -6 -5 23
-5 24 -3 25 -3 25 -55 0 -55 0 -2 33 -1 33 -12 14 -12 15 -13 0 -13 0 -6 -16z"/>
</g>
</svg>
