<?xml version="1.0" standalone="no"?>
<!DOCTYPE svg PUBLIC "-//W3C//DTD SVG 20010904//EN"
 "http://www.w3.org/TR/2001/REC-SVG-20010904/DTD/svg10.dtd">
<svg version="1.0" xmlns="http://www.w3.org/2000/svg"
 width="52.000000pt" height="49.000000pt" viewBox="0 0 52.000000 49.000000"
 preserveAspectRatio="xMidYMid meet">
<metadata>
Created by potrace 1.16, written by Peter Selinger 2001-2019
</metadata>
<g transform="translate(0.000000,49.000000) scale(0.100000,-0.100000)"
fill="#000000" stroke="none">
<path d="M216 474 l-6 -16 0 -30 0 -31 -66 6 -67 7 6 -60 7 -60 -34 0 -34 0
-11 -14 -12 -15 3 -28 3 -28 31 -3 32 -3 7 -65 7 -66 21 7 22 7 33 5 32 5 0
-24 0 -25 19 -21 18 -22 22 0 22 0 20 10 19 11 0 18 0 19 16 6 16 6 35 0 36 0
-6 55 -6 55 35 0 35 0 24 25 25 24 0 25 0 25 -17 16 -16 17 -34 -5 -33 -6 -5
22 -4 22 -3 25 -3 25 -54 0 -53 0 -3 33 -3 32 -12 15 -12 15 -23 0 -23 0 -6
-16z"/>
</g>
</svg>
