<?xml version="1.0" standalone="no"?>
<!DOCTYPE svg PUBLIC "-//W3C//DTD SVG 20010904//EN"
 "http://www.w3.org/TR/2001/REC-SVG-20010904/DTD/svg10.dtd">
<svg version="1.0" xmlns="http://www.w3.org/2000/svg"
 width="40.000000pt" height="39.000000pt" viewBox="0 0 40.000000 39.000000"
 preserveAspectRatio="xMidYMid meet">
<metadata>
Created by potrace 1.16, written by Peter Selinger 2001-2019
</metadata>
<g transform="translate(0.000000,39.000000) scale(0.100000,-0.100000)"
fill="#000000" stroke="none">
<path d="M140 370 l-10 -20 6 -26 7 -26 -67 4 -66 3 0 -40 0 -40 9 -14 9 -13
30 6 30 7 16 -16 16 -16 0 -15 0 -15 -26 -26 -25 -25 -30 4 -30 5 -5 -9 -5 -8
7 -45 6 -45 45 0 44 0 20 10 19 11 -6 40 -7 41 29 -4 29 -3 5 -40 5 -40 55 0
55 0 3 48 3 47 35 0 34 0 12 25 12 26 -10 27 -10 27 -32 -3 -32 -2 0 49 0 48
-62 7 -62 6 -8 13 -8 12 0 23 0 22 -15 0 -14 0 -11 -20z"/>
</g>
</svg>
