<?xml version="1.0" standalone="no"?>
<!DOCTYPE svg PUBLIC "-//W3C//DTD SVG 20010904//EN"
 "http://www.w3.org/TR/2001/REC-SVG-20010904/DTD/svg10.dtd">
<svg version="1.0" xmlns="http://www.w3.org/2000/svg"
 width="42.000000pt" height="41.000000pt" viewBox="0 0 42.000000 41.000000"
 preserveAspectRatio="xMidYMid meet">
<metadata>
Created by potrace 1.16, written by Peter Selinger 2001-2019
</metadata>
<g transform="translate(0.000000,41.000000) scale(0.100000,-0.100000)"
fill="#000000" stroke="none">
<path d="M139 389 l-11 -21 5 -25 5 -26 -64 6 -64 5 0 -52 0 -51 9 -13 8 -13
37 3 37 2 9 -14 9 -14 -10 -18 -9 -18 -20 -10 -20 -10 -24 6 -24 6 -7 -12 -7
-12 7 -54 6 -54 55 0 55 0 21 11 20 11 -6 40 -6 40 17 -4 18 -3 5 -40 5 -40
65 0 65 0 3 48 3 47 34 0 34 0 11 19 10 20 0 28 0 29 -13 19 -14 18 -26 -5
-27 -5 0 47 0 47 -62 7 -62 6 -8 13 -8 12 0 23 0 22 -25 0 -24 0 -12 -21z"/>
</g>
</svg>
