<?xml version="1.0" standalone="no"?>
<!DOCTYPE svg PUBLIC "-//W3C//DTD SVG 20010904//EN"
 "http://www.w3.org/TR/2001/REC-SVG-20010904/DTD/svg10.dtd">
<svg version="1.0" xmlns="http://www.w3.org/2000/svg"
 width="34.000000pt" height="40.000000pt" viewBox="0 0 34.000000 40.000000"
 preserveAspectRatio="xMidYMid meet">
<metadata>
Created by potrace 1.16, written by Peter Selinger 2001-2019
</metadata>
<g transform="translate(0.000000,40.000000) scale(0.100000,-0.100000)"
fill="#000000" stroke="none">
<path d="M131 391 l-14 -9 6 -21 5 -21 -15 -15 -14 -15 -40 0 -39 0 0 -45 0
-45 32 2 32 3 10 -27 10 -27 -12 -26 -12 -25 -35 0 -35 0 0 -39 0 -39 -6 -17
-7 -16 69 3 69 3 -3 14 -3 15 6 23 6 24 27 -3 27 -3 0 -35 0 -35 62 -5 62 -5
11 41 12 41 -4 24 -3 24 -31 -3 -31 -3 -12 15 -12 15 3 28 3 28 33 -3 32 -4 0
52 0 51 -37 -7 -38 -8 -25 0 -25 -1 -2 38 -1 38 -12 14 -12 15 -12 0 -11 0
-14 -9z"/>
</g>
</svg>
