<?xml version="1.0" standalone="no"?>
<!DOCTYPE svg PUBLIC "-//W3C//DTD SVG 20010904//EN"
 "http://www.w3.org/TR/2001/REC-SVG-20010904/DTD/svg10.dtd">
<svg version="1.0" xmlns="http://www.w3.org/2000/svg"
 width="35.000000pt" height="44.000000pt" viewBox="0 0 35.000000 44.000000"
 preserveAspectRatio="xMidYMid meet">
<metadata>
Created by potrace 1.16, written by Peter Selinger 2001-2019
</metadata>
<g transform="translate(0.000000,44.000000) scale(0.100000,-0.100000)"
fill="#000000" stroke="none">
<path d="M145 430 l-7 -11 4 -37 3 -37 -68 2 -67 1 0 -51 0 -52 6 -22 6 -23
29 0 29 0 0 -9 0 -10 -37 -3 -38 -3 -3 -24 -4 -25 7 -53 6 -53 74 0 73 0 6 16
6 16 0 19 0 19 15 0 15 0 0 -45 0 -45 42 0 42 0 33 12 33 12 0 13 0 12 -10 23
-9 23 -11 43 -11 42 -24 0 -25 0 0 15 0 15 35 0 34 0 11 19 10 20 0 54 0 55
-42 6 -43 7 -20 12 -20 12 0 20 0 20 -37 3 -36 3 -7 -11z"/>
</g>
</svg>
