<?xml version="1.0" standalone="no"?>
<!DOCTYPE svg PUBLIC "-//W3C//DTD SVG 20010904//EN"
 "http://www.w3.org/TR/2001/REC-SVG-20010904/DTD/svg10.dtd">
<svg version="1.0" xmlns="http://www.w3.org/2000/svg"
 width="33.000000pt" height="42.000000pt" viewBox="0 0 33.000000 42.000000"
 preserveAspectRatio="xMidYMid meet">
<metadata>
Created by potrace 1.16, written by Peter Selinger 2001-2019
</metadata>
<g transform="translate(0.000000,42.000000) scale(0.100000,-0.100000)"
fill="#000000" stroke="none">
<path d="M145 408 l-4 -13 2 -35 2 -35 -68 0 -67 0 0 -40 0 -40 6 -22 6 -23
29 0 28 0 7 -12 7 -11 -18 -13 -18 -14 -24 6 -23 6 -6 -16 -6 -16 7 -55 6 -55
64 0 63 0 6 16 6 16 -6 9 -6 10 12 14 12 15 9 0 8 0 15 -15 15 -15 -6 -35 -6
-35 36 0 36 0 28 12 28 12 3 2 3 1 -10 24 -10 24 -11 44 -11 43 -24 -4 -23 -5
-5 17 -5 18 9 13 8 14 30 -3 30 -3 10 20 11 20 0 46 0 46 -9 -5 -8 -5 -54 19
-54 20 -3 0 -3 0 3 23 3 22 -28 3 -27 3 -5 -13z"/>
</g>
</svg>
