<?xml version="1.0" standalone="no"?>
<!DOCTYPE svg PUBLIC "-//W3C//DTD SVG 20010904//EN"
 "http://www.w3.org/TR/2001/REC-SVG-20010904/DTD/svg10.dtd">
<svg version="1.0" xmlns="http://www.w3.org/2000/svg"
 width="32.000000pt" height="41.000000pt" viewBox="0 0 32.000000 41.000000"
 preserveAspectRatio="xMidYMid meet">
<metadata>
Created by potrace 1.16, written by Peter Selinger 2001-2019
</metadata>
<g transform="translate(0.000000,41.000000) scale(0.100000,-0.100000)"
fill="#000000" stroke="none">
<path d="M135 396 l-18 -13 7 -37 7 -37 -63 2 -63 3 0 -50 0 -49 30 0 30 0 13
-8 12 -8 0 -24 0 -24 -12 -8 -13 -7 -26 2 -26 3 -7 -47 -6 -47 0 -21 0 -21 62
5 63 5 -3 31 -3 31 15 12 15 13 23 -4 23 -3 3 -27 3 -28 27 -6 27 -5 22 -5 21
-4 4 12 5 13 -11 35 -10 35 -9 12 -8 12 -13 -5 -13 -5 -5 19 -6 20 8 13 8 12
36 -1 36 -1 0 64 0 65 -64 0 -64 0 -6 16 -6 16 0 18 0 18 -13 11 -14 11 -18
-14z"/>
</g>
</svg>
