<?xml version="1.0" standalone="no"?>
<!DOCTYPE svg PUBLIC "-//W3C//DTD SVG 20010904//EN"
 "http://www.w3.org/TR/2001/REC-SVG-20010904/DTD/svg10.dtd">
<svg version="1.0" xmlns="http://www.w3.org/2000/svg"
 width="34.000000pt" height="43.000000pt" viewBox="0 0 34.000000 43.000000"
 preserveAspectRatio="xMidYMid meet">
<metadata>
Created by potrace 1.16, written by Peter Selinger 2001-2019
</metadata>
<g transform="translate(0.000000,43.000000) scale(0.100000,-0.100000)"
fill="#000000" stroke="none">
<path d="M136 417 l-19 -14 5 -37 4 -38 -60 4 -61 3 0 -60 0 -60 40 -5 40 -5
0 -20 0 -20 -36 -3 -36 -3 -7 -46 -6 -46 0 -32 0 -33 63 5 62 5 14 4 13 4 -5
29 -6 29 14 12 15 12 15 -6 15 -5 0 -25 0 -25 18 -5 17 -5 42 -6 41 -6 6 18 6
18 -14 45 -13 45 -21 10 -22 10 0 12 0 13 40 0 40 0 0 75 0 75 -65 0 -65 0 -5
28 -6 27 -8 15 -8 15 -14 3 -14 3 -19 -14z"/>
</g>
</svg>
