<?xml version="1.0" standalone="no"?>
<!DOCTYPE svg PUBLIC "-//W3C//DTD SVG 20010904//EN"
 "http://www.w3.org/TR/2001/REC-SVG-20010904/DTD/svg10.dtd">
<svg version="1.0" xmlns="http://www.w3.org/2000/svg"
 width="49.000000pt" height="51.000000pt" viewBox="0 0 49.000000 51.000000"
 preserveAspectRatio="xMidYMid meet">
<metadata>
Created by potrace 1.16, written by Peter Selinger 2001-2019
</metadata>
<g transform="translate(0.000000,51.000000) scale(0.100000,-0.100000)"
fill="#000000" stroke="none">
<path d="M215 493 l-17 -16 4 -34 4 -33 -58 0 -58 0 0 -61 0 -61 -16 6 -16 6
-23 -6 -24 -6 -5 -15 -6 -15 6 -23 6 -24 21 -3 22 -3 11 -55 10 -55 50 0 49 0
3 -35 4 -35 10 -12 10 -13 38 0 37 0 16 18 17 19 0 36 0 37 44 -6 45 -7 6 24
5 24 8 40 8 39 29 1 30 0 3 23 4 24 -18 20 -19 20 -32 -4 -33 -4 6 53 7 52
-64 3 -64 3 3 27 3 27 -11 20 -11 21 -14 0 -14 0 -16 -17z"/>
</g>
</svg>
