<?xml version="1.0" standalone="no"?>
<!DOCTYPE svg PUBLIC "-//W3C//DTD SVG 20010904//EN"
 "http://www.w3.org/TR/2001/REC-SVG-20010904/DTD/svg10.dtd">
<svg version="1.0" xmlns="http://www.w3.org/2000/svg"
 width="32.000000pt" height="33.000000pt" viewBox="0 0 32.000000 33.000000"
 preserveAspectRatio="xMidYMid meet">
<metadata>
Created by potrace 1.16, written by Peter Selinger 2001-2019
</metadata>
<g transform="translate(0.000000,33.000000) scale(0.100000,-0.100000)"
fill="#000000" stroke="none">
<path d="M2 263 l3 -68 38 1 37 1 6 -23 6 -23 -4 -13 -5 -13 -23 0 -23 0 -18
-55 -18 -55 -1 -7 0 -8 71 0 70 0 -3 42 -3 43 23 3 22 3 0 -20 0 -20 20 -11
21 -11 51 -6 51 -6 -7 39 -7 39 -5 27 -5 27 -27 3 -27 3 0 15 0 15 38 3 38 3
-3 67 -3 67 -158 3 -158 3 3 -68z"/>
</g>
</svg>
