<?xml version="1.0" standalone="no"?>
<!DOCTYPE svg PUBLIC "-//W3C//DTD SVG 20010904//EN"
 "http://www.w3.org/TR/2001/REC-SVG-20010904/DTD/svg10.dtd">
<svg version="1.0" xmlns="http://www.w3.org/2000/svg"
 width="51.000000pt" height="42.000000pt" viewBox="0 0 51.000000 42.000000"
 preserveAspectRatio="xMidYMid meet">
<metadata>
Created by potrace 1.16, written by Peter Selinger 2001-2019
</metadata>
<g transform="translate(0.000000,42.000000) scale(0.100000,-0.100000)"
fill="#000000" stroke="none">
<path d="M222 408 l-12 -12 0 -28 0 -28 -55 0 -55 0 0 -55 0 -54 -29 5 -29 6
-21 -11 -21 -12 0 -29 0 -30 25 0 24 0 9 -17 9 -18 14 -52 13 -53 67 0 67 0
12 15 12 15 -4 30 -5 30 8 0 7 0 5 -14 5 -14 -5 -41 -6 -41 36 0 35 0 50 12
50 11 -5 54 -6 53 22 0 22 0 24 16 25 16 0 32 0 31 -9 15 -10 14 -35 0 -36 0
0 49 0 49 -32 -8 -33 -8 -25 0 -25 -1 -3 30 -4 30 -10 13 -10 12 -22 0 -22 0
-12 -12z"/>
</g>
</svg>
