<?xml version="1.0" standalone="no"?>
<!DOCTYPE svg PUBLIC "-//W3C//DTD SVG 20010904//EN"
 "http://www.w3.org/TR/2001/REC-SVG-20010904/DTD/svg10.dtd">
<svg version="1.0" xmlns="http://www.w3.org/2000/svg"
 width="49.000000pt" height="40.000000pt" viewBox="0 0 49.000000 40.000000"
 preserveAspectRatio="xMidYMid meet">
<metadata>
Created by potrace 1.16, written by Peter Selinger 2001-2019
</metadata>
<g transform="translate(0.000000,40.000000) scale(0.100000,-0.100000)"
fill="#000000" stroke="none">
<path d="M220 386 l-11 -15 3 -23 3 -23 -57 -3 -58 -3 0 -56 0 -55 -31 6 -31
6 -19 -10 -19 -11 0 -19 0 -20 25 0 24 0 9 -17 9 -18 14 -52 13 -53 57 0 57 0
12 15 12 14 -7 29 -6 29 15 6 16 6 11 -20 11 -20 -7 -40 -7 -39 25 0 25 0 49
11 48 11 -3 60 -4 60 21 -7 20 -6 26 17 25 16 0 22 0 21 -9 14 -9 14 -36 -1
-36 -1 0 48 0 48 -44 -10 -44 -10 -16 6 -16 6 0 29 0 28 -12 12 -12 12 -12 0
-12 0 -12 -14z"/>
</g>
</svg>
