<?xml version="1.0" standalone="no"?>
<!DOCTYPE svg PUBLIC "-//W3C//DTD SVG 20010904//EN"
 "http://www.w3.org/TR/2001/REC-SVG-20010904/DTD/svg10.dtd">
<svg version="1.0" xmlns="http://www.w3.org/2000/svg"
 width="38.000000pt" height="39.000000pt" viewBox="0 0 38.000000 39.000000"
 preserveAspectRatio="xMidYMid meet">
<metadata>
Created by potrace 1.16, written by Peter Selinger 2001-2019
</metadata>
<g transform="translate(0.000000,39.000000) scale(0.100000,-0.100000)"
fill="#000000" stroke="none">
<path d="M127 383 l-4 -8 -7 -27 -6 -27 -35 -7 -35 -6 -20 5 -20 5 0 -49 0
-48 36 1 36 1 9 -14 9 -14 0 -21 0 -22 -25 -16 -26 -17 -20 6 -20 7 3 -59 3
-58 53 0 53 1 10 14 9 15 -2 30 -3 29 16 4 17 3 16 -17 17 -17 -3 -36 -3 -36
50 0 50 0 9 68 8 68 27 -3 26 -2 13 7 12 8 0 24 0 24 -12 8 -13 8 -30 0 -30 0
-3 48 -3 47 -20 -11 -20 -10 -32 3 -32 3 3 33 3 33 -12 15 -11 14 -19 0 -18 0
-4 -7z"/>
</g>
</svg>
