<?xml version="1.0" standalone="no"?>
<!DOCTYPE svg PUBLIC "-//W3C//DTD SVG 20010904//EN"
 "http://www.w3.org/TR/2001/REC-SVG-20010904/DTD/svg10.dtd">
<svg version="1.0" xmlns="http://www.w3.org/2000/svg"
 width="32.000000pt" height="50.000000pt" viewBox="0 0 32.000000 50.000000"
 preserveAspectRatio="xMidYMid meet">
<metadata>
Created by potrace 1.16, written by Peter Selinger 2001-2019
</metadata>
<g transform="translate(0.000000,50.000000) scale(0.100000,-0.100000)"
fill="#000000" stroke="none">
<path d="M123 480 l5 -19 -13 -17 -13 -18 -51 0 -51 0 0 -69 0 -69 27 6 28 6
13 -9 14 -8 -4 -24 -3 -24 -37 3 -38 3 0 -71 0 -72 28 2 27 2 18 -1 17 -1 0
-40 0 -39 19 -11 20 -10 25 0 26 0 20 20 20 20 0 30 0 30 46 0 46 0 -7 68 -7
67 -5 8 -5 9 -23 -6 -24 -6 -6 10 -7 11 12 14 12 15 34 0 34 0 0 28 0 27 -6
37 -6 37 -52 3 -51 3 -3 30 -4 30 -11 7 -12 8 -29 0 -28 0 5 -20z"/>
</g>
</svg>
