<?xml version="1.0" standalone="no"?>
<!DOCTYPE svg PUBLIC "-//W3C//DTD SVG 20010904//EN"
 "http://www.w3.org/TR/2001/REC-SVG-20010904/DTD/svg10.dtd">
<svg version="1.0" xmlns="http://www.w3.org/2000/svg"
 width="30.000000pt" height="48.000000pt" viewBox="0 0 30.000000 48.000000"
 preserveAspectRatio="xMidYMid meet">
<metadata>
Created by potrace 1.16, written by Peter Selinger 2001-2019
</metadata>
<g transform="translate(0.000000,48.000000) scale(0.100000,-0.100000)"
fill="#000000" stroke="none">
<path d="M126 463 l5 -18 -14 -19 -14 -19 -51 -1 -52 -1 0 -57 0 -57 15 5 15
6 26 -6 25 -7 -3 -37 -3 -37 -37 1 -38 1 0 -59 0 -60 24 6 25 6 25 -10 26 -9
-7 -32 -6 -32 18 -14 19 -13 18 0 18 0 21 21 20 20 -3 27 -3 27 48 3 48 3 -7
57 -7 57 -4 5 -4 4 -27 1 -27 0 -3 18 -4 18 12 14 12 15 34 0 34 0 0 18 0 17
-6 37 -6 37 -52 3 -51 3 -3 30 -4 30 -11 7 -12 8 -17 0 -16 0 4 -17z"/>
</g>
</svg>
