<?xml version="1.0" standalone="no"?>
<!DOCTYPE svg PUBLIC "-//W3C//DTD SVG 20010904//EN"
 "http://www.w3.org/TR/2001/REC-SVG-20010904/DTD/svg10.dtd">
<svg version="1.0" xmlns="http://www.w3.org/2000/svg"
 width="36.000000pt" height="47.000000pt" viewBox="0 0 36.000000 47.000000"
 preserveAspectRatio="xMidYMid meet">
<metadata>
Created by potrace 1.16, written by Peter Selinger 2001-2019
</metadata>
<g transform="translate(0.000000,47.000000) scale(0.100000,-0.100000)"
fill="#000000" stroke="none">
<path d="M136 454 l-6 -16 0 -24 0 -24 -45 0 -45 0 0 10 0 10 -15 0 -15 0 0
-49 0 -49 6 -16 6 -16 39 0 40 0 6 -16 6 -16 -17 -16 -16 -16 -33 -1 -32 0 -7
-75 -6 -75 4 -4 4 -4 24 11 24 11 21 -6 21 -5 0 -35 0 -34 53 3 52 3 5 40 5
40 16 -1 16 -1 46 -7 45 -7 12 53 12 54 -4 19 -3 20 -35 0 -35 0 -12 8 -13 8
0 10 0 9 23 0 22 0 14 9 15 9 4 61 4 61 -55 0 -55 0 -6 16 -6 16 0 18 0 18
-16 6 -16 6 -23 0 -23 0 -6 -16z"/>
</g>
</svg>
