<?xml version="1.0" standalone="no"?>
<!DOCTYPE svg PUBLIC "-//W3C//DTD SVG 20010904//EN"
 "http://www.w3.org/TR/2001/REC-SVG-20010904/DTD/svg10.dtd">
<svg version="1.0" xmlns="http://www.w3.org/2000/svg"
 width="47.000000pt" height="36.000000pt" viewBox="0 0 47.000000 36.000000"
 preserveAspectRatio="xMidYMid meet">
<metadata>
Created by potrace 1.16, written by Peter Selinger 2001-2019
</metadata>
<g transform="translate(0.000000,36.000000) scale(0.100000,-0.100000)"
fill="#000000" stroke="none">
<path d="M264 333 l7 -26 -11 -28 -12 -28 -14 6 -14 5 0 33 0 33 -22 6 -23 6
-42 0 -42 0 -3 -52 -3 -53 -28 3 -28 4 -15 -12 -14 -12 0 -32 0 -32 12 -12 12
-12 28 0 28 0 0 -65 0 -64 53 6 52 6 18 9 17 9 0 29 0 30 20 0 20 0 0 -15 0
-14 18 -9 17 -9 48 -13 49 -13 8 13 8 13 7 44 6 43 25 0 25 0 -3 38 -3 37 -39
3 -39 3 7 68 6 68 -38 7 -37 6 -34 0 -33 0 6 -27z"/>
</g>
</svg>
