<?xml version="1.0" standalone="no"?>
<!DOCTYPE svg PUBLIC "-//W3C//DTD SVG 20010904//EN"
 "http://www.w3.org/TR/2001/REC-SVG-20010904/DTD/svg10.dtd">
<svg version="1.0" xmlns="http://www.w3.org/2000/svg"
 width="49.000000pt" height="41.000000pt" viewBox="0 0 49.000000 41.000000"
 preserveAspectRatio="xMidYMid meet">
<metadata>
Created by potrace 1.16, written by Peter Selinger 2001-2019
</metadata>
<g transform="translate(0.000000,41.000000) scale(0.100000,-0.100000)"
fill="#000000" stroke="none">
<path d="M192 375 l4 -36 -23 -5 -23 -6 -27 6 -26 7 -8 -13 -9 -13 0 -42 0
-42 -38 -3 -37 -3 -3 -45 -3 -44 17 -13 18 -13 23 0 23 0 0 -54 0 -54 63 5 62
5 13 3 12 4 0 30 0 30 11 7 11 6 11 -11 11 -11 0 -32 1 -33 29 -3 29 -4 32 6
33 6 10 28 10 27 9 35 9 35 19 -3 18 -4 8 14 9 13 0 38 0 39 -29 -7 -29 -6
-16 23 -16 22 0 33 0 32 -47 3 -48 3 -3 30 -4 30 -11 7 -12 8 -44 0 -43 0 4
-35z"/>
</g>
</svg>
