<?xml version="1.0" standalone="no"?>
<!DOCTYPE svg PUBLIC "-//W3C//DTD SVG 20010904//EN"
 "http://www.w3.org/TR/2001/REC-SVG-20010904/DTD/svg10.dtd">
<svg version="1.0" xmlns="http://www.w3.org/2000/svg"
 width="47.000000pt" height="39.000000pt" viewBox="0 0 47.000000 39.000000"
 preserveAspectRatio="xMidYMid meet">
<metadata>
Created by potrace 1.16, written by Peter Selinger 2001-2019
</metadata>
<g transform="translate(0.000000,39.000000) scale(0.100000,-0.100000)"
fill="#000000" stroke="none">
<path d="M194 355 l7 -34 -26 -7 -25 -6 -30 4 -29 4 -6 -14 -5 -14 0 -41 0
-42 -37 0 -38 0 -3 -37 -3 -37 21 -11 20 -11 18 3 17 3 3 -55 3 -55 62 5 62 5
1 28 1 28 14 15 15 14 22 -16 22 -15 -3 -32 -2 -31 18 -4 19 -4 33 6 33 6 10
28 10 27 9 35 9 35 19 0 20 0 7 10 8 10 0 26 0 26 -29 -5 -29 -4 -16 23 -16
23 0 33 0 32 -47 3 -48 3 -3 30 -4 30 -11 7 -12 8 -34 0 -33 0 6 -35z"/>
</g>
</svg>
