<?xml version="1.0" standalone="no"?>
<!DOCTYPE svg PUBLIC "-//W3C//DTD SVG 20010904//EN"
 "http://www.w3.org/TR/2001/REC-SVG-20010904/DTD/svg10.dtd">
<svg version="1.0" xmlns="http://www.w3.org/2000/svg"
 width="40.000000pt" height="48.000000pt" viewBox="0 0 40.000000 48.000000"
 preserveAspectRatio="xMidYMid meet">
<metadata>
Created by potrace 1.16, written by Peter Selinger 2001-2019
</metadata>
<g transform="translate(0.000000,48.000000) scale(0.100000,-0.100000)"
fill="#000000" stroke="none">
<path d="M131 461 l-11 -20 0 -22 0 -22 -60 6 -60 7 0 -75 0 -75 52 0 52 0
-10 -9 -9 -10 -35 -3 -35 -3 -8 -53 -9 -54 6 -24 6 -24 55 6 54 7 3 -44 3 -44
45 0 45 0 3 27 3 26 47 9 47 8 0 70 0 70 22 -3 22 -3 21 11 21 11 -3 22 -3 22
-31 3 -32 3 -6 22 -6 22 0 42 0 42 -57 3 -57 3 -1 30 0 30 -32 3 -32 3 -10
-20z"/>
</g>
</svg>
