<?xml version="1.0" standalone="no"?>
<!DOCTYPE svg PUBLIC "-//W3C//DTD SVG 20010904//EN"
 "http://www.w3.org/TR/2001/REC-SVG-20010904/DTD/svg10.dtd">
<svg version="1.0" xmlns="http://www.w3.org/2000/svg"
 width="38.000000pt" height="46.000000pt" viewBox="0 0 38.000000 46.000000"
 preserveAspectRatio="xMidYMid meet">
<metadata>
Created by potrace 1.16, written by Peter Selinger 2001-2019
</metadata>
<g transform="translate(0.000000,46.000000) scale(0.100000,-0.100000)"
fill="#000000" stroke="none">
<path d="M130 440 l-11 -21 7 -21 6 -20 -66 4 -66 4 0 -64 0 -64 33 2 32 2 18
-1 17 -1 0 -14 0 -15 -11 -7 -12 -7 -31 -1 -30 -1 -8 -45 -8 -45 5 -21 5 -21
54 5 55 4 3 -43 3 -44 35 0 35 0 3 27 3 26 47 9 47 8 0 70 0 70 32 0 33 1 11
11 11 11 -6 11 -7 11 -28 0 -29 0 -6 23 -6 22 0 42 0 42 -57 3 -58 3 0 30 0
30 -22 3 -22 3 -11 -21z"/>
</g>
</svg>
