<?xml version="1.0" standalone="no"?>
<!DOCTYPE svg PUBLIC "-//W3C//DTD SVG 20010904//EN"
 "http://www.w3.org/TR/2001/REC-SVG-20010904/DTD/svg10.dtd">
<svg version="1.0" xmlns="http://www.w3.org/2000/svg"
 width="42.000000pt" height="49.000000pt" viewBox="0 0 42.000000 49.000000"
 preserveAspectRatio="xMidYMid meet">
<metadata>
Created by potrace 1.16, written by Peter Selinger 2001-2019
</metadata>
<g transform="translate(0.000000,49.000000) scale(0.100000,-0.100000)"
fill="#000000" stroke="none">
<path d="M124 477 l-5 -13 3 -24 3 -25 -55 1 -55 1 -7 -11 -8 -11 0 -42 0 -42
16 -16 16 -16 29 6 29 7 0 -26 0 -25 -22 -3 -21 -3 -20 -57 -19 -58 15 -14 15
-15 36 6 36 6 0 -36 0 -37 25 -16 26 -17 24 11 24 11 7 26 6 25 -5 20 -5 20
68 -6 69 -7 -6 56 -6 56 34 3 34 3 8 25 9 25 -11 28 -11 27 -36 0 -36 0 7 50
7 50 -42 0 -41 0 -20 10 -19 11 0 18 0 19 -16 6 -16 6 -29 0 -30 0 -5 -13z"/>
</g>
</svg>
