<?xml version="1.0" standalone="no"?>
<!DOCTYPE svg PUBLIC "-//W3C//DTD SVG 20010904//EN"
 "http://www.w3.org/TR/2001/REC-SVG-20010904/DTD/svg10.dtd">
<svg version="1.0" xmlns="http://www.w3.org/2000/svg"
 width="40.000000pt" height="47.000000pt" viewBox="0 0 40.000000 47.000000"
 preserveAspectRatio="xMidYMid meet">
<metadata>
Created by potrace 1.16, written by Peter Selinger 2001-2019
</metadata>
<g transform="translate(0.000000,47.000000) scale(0.100000,-0.100000)"
fill="#000000" stroke="none">
<path d="M129 463 l-2 -8 -1 -30 -1 -30 -55 0 -55 0 -7 -10 -8 -10 0 -30 0
-30 10 -15 9 -14 35 2 36 3 0 -35 0 -35 -22 -3 -21 -3 -17 -50 -17 -50 10 -10
10 -10 38 3 38 4 3 -37 3 -38 22 -14 22 -14 21 21 22 22 -7 35 -6 35 68 -7 68
-7 -3 56 -4 56 31 0 30 0 11 19 10 20 -10 26 -10 27 -36 -4 -36 -4 5 53 6 53
-40 0 -40 0 -20 10 -19 11 0 18 0 19 -16 6 -16 6 -19 0 -19 0 -1 -7z"/>
</g>
</svg>
