<?xml version="1.0" standalone="no"?>
<!DOCTYPE svg PUBLIC "-//W3C//DTD SVG 20010904//EN"
 "http://www.w3.org/TR/2001/REC-SVG-20010904/DTD/svg10.dtd">
<svg version="1.0" xmlns="http://www.w3.org/2000/svg"
 width="31.000000pt" height="46.000000pt" viewBox="0 0 31.000000 46.000000"
 preserveAspectRatio="xMidYMid meet">
<metadata>
Created by potrace 1.16, written by Peter Selinger 2001-2019
</metadata>
<g transform="translate(0.000000,46.000000) scale(0.100000,-0.100000)"
fill="#000000" stroke="none">
<path d="M113 449 l-12 -12 9 -17 9 -16 -8 -13 -9 -13 -45 3 -46 4 -5 -20 -6
-20 0 -30 0 -31 35 4 35 4 10 -27 10 -26 -10 -20 -11 -19 -29 0 -30 0 0 -44 0
-44 5 -14 5 -13 40 3 40 4 0 -34 0 -34 12 -12 12 -12 17 0 18 0 15 16 16 15 0
36 0 36 44 -6 44 -6 14 -3 13 -3 3 44 3 44 -6 24 -6 24 -32 -6 -33 -7 -12 15
-12 14 6 17 6 16 44 0 44 0 0 49 0 50 -10 6 -10 6 -40 -11 -41 -11 -19 6 -19
6 2 42 2 42 -25 3 -25 3 -12 -12z"/>
</g>
</svg>
