<?xml version="1.0" standalone="no"?>
<!DOCTYPE svg PUBLIC "-//W3C//DTD SVG 20010904//EN"
 "http://www.w3.org/TR/2001/REC-SVG-20010904/DTD/svg10.dtd">
<svg version="1.0" xmlns="http://www.w3.org/2000/svg"
 width="33.000000pt" height="48.000000pt" viewBox="0 0 33.000000 48.000000"
 preserveAspectRatio="xMidYMid meet">
<metadata>
Created by potrace 1.16, written by Peter Selinger 2001-2019
</metadata>
<g transform="translate(0.000000,48.000000) scale(0.100000,-0.100000)"
fill="#000000" stroke="none">
<path d="M111 466 l-12 -14 7 -28 7 -27 -51 6 -50 6 -6 -22 -6 -22 0 -42 0
-42 38 2 37 2 0 -30 0 -30 -32 -3 -33 -3 0 -54 0 -53 6 -16 6 -16 39 6 39 7 0
-35 0 -34 12 -12 12 -12 27 0 28 0 15 16 16 15 0 36 0 35 38 -7 37 -8 20 -1
20 -1 3 54 3 55 -6 24 -6 23 -37 -3 -36 -3 -4 18 -3 17 45 0 46 0 0 60 0 61
-15 5 -15 6 -42 -10 -42 -11 -10 7 -11 7 0 40 0 40 -36 3 -36 3 -12 -15z"/>
</g>
</svg>
