<?xml version="1.0" standalone="no"?>
<!DOCTYPE svg PUBLIC "-//W3C//DTD SVG 20010904//EN"
 "http://www.w3.org/TR/2001/REC-SVG-20010904/DTD/svg10.dtd">
<svg version="1.0" xmlns="http://www.w3.org/2000/svg"
 width="42.000000pt" height="43.000000pt" viewBox="0 0 42.000000 43.000000"
 preserveAspectRatio="xMidYMid meet">
<metadata>
Created by potrace 1.16, written by Peter Selinger 2001-2019
</metadata>
<g transform="translate(0.000000,43.000000) scale(0.100000,-0.100000)"
fill="#000000" stroke="none">
<path d="M77 370 l6 -60 -30 6 -29 6 -13 -16 -12 -15 3 -28 3 -28 27 -3 27 -3
6 -32 5 -32 -2 -30 -3 -30 55 -5 55 -5 3 -40 3 -40 12 -7 12 -8 27 0 28 0 15
24 16 25 -3 33 -3 33 15 -1 15 -1 42 -6 42 -7 11 41 11 40 -3 37 -3 37 -38 1
-38 1 -12 12 -11 11 25 0 25 0 18 13 18 14 2 59 1 59 -167 3 -166 2 5 -60z"/>
</g>
</svg>
