<?xml version="1.0" standalone="no"?>
<!DOCTYPE svg PUBLIC "-//W3C//DTD SVG 20010904//EN"
 "http://www.w3.org/TR/2001/REC-SVG-20010904/DTD/svg10.dtd">
<svg version="1.0" xmlns="http://www.w3.org/2000/svg"
 width="40.000000pt" height="41.000000pt" viewBox="0 0 40.000000 41.000000"
 preserveAspectRatio="xMidYMid meet">
<metadata>
Created by potrace 1.16, written by Peter Selinger 2001-2019
</metadata>
<g transform="translate(0.000000,41.000000) scale(0.100000,-0.100000)"
fill="#000000" stroke="none">
<path d="M78 349 l4 -61 -32 4 -32 3 -11 -16 -10 -16 6 -17 6 -16 25 0 25 0 6
-37 7 -38 5 -17 4 -18 -12 0 -13 0 10 -9 9 -10 50 -3 50 -3 3 -42 3 -43 26 -6
26 -7 19 23 18 23 -6 33 -6 34 14 5 13 5 48 -9 47 -8 11 39 10 40 -3 26 -3 27
-29 -2 -29 -2 -18 10 -19 10 0 18 0 18 23 -4 22 -4 18 13 18 14 2 49 2 50
-155 3 -155 3 3 -62z"/>
</g>
</svg>
