<?xml version="1.0" standalone="no"?>
<!DOCTYPE svg PUBLIC "-//W3C//DTD SVG 20010904//EN"
 "http://www.w3.org/TR/2001/REC-SVG-20010904/DTD/svg10.dtd">
<svg version="1.0" xmlns="http://www.w3.org/2000/svg"
 width="38.000000pt" height="39.000000pt" viewBox="0 0 38.000000 39.000000"
 preserveAspectRatio="xMidYMid meet">
<metadata>
Created by potrace 1.16, written by Peter Selinger 2001-2019
</metadata>
<g transform="translate(0.000000,39.000000) scale(0.100000,-0.100000)"
fill="#000000" stroke="none">
<path d="M279 384 l-1 -9 2 -22 1 -22 -17 -25 -16 -26 -28 0 -29 0 -6 20 -6
20 6 19 6 20 -20 10 -20 11 -36 0 -37 0 7 -50 7 -49 -14 -18 -13 -18 -30 0
-30 0 0 -15 0 -15 30 -5 29 -5 7 -25 7 -25 1 -43 1 -43 34 6 34 7 21 -12 22
-11 -6 -10 -6 -9 6 -20 6 -20 40 0 39 0 0 20 0 21 13 3 12 4 40 10 40 11 -3
153 -4 153 -2 2 -2 2 -42 7 -42 7 -1 -9z"/>
</g>
</svg>
