<?xml version="1.0" standalone="no"?>
<!DOCTYPE svg PUBLIC "-//W3C//DTD SVG 20010904//EN"
 "http://www.w3.org/TR/2001/REC-SVG-20010904/DTD/svg10.dtd">
<svg version="1.0" xmlns="http://www.w3.org/2000/svg"
 width="40.000000pt" height="41.000000pt" viewBox="0 0 40.000000 41.000000"
 preserveAspectRatio="xMidYMid meet">
<metadata>
Created by potrace 1.16, written by Peter Selinger 2001-2019
</metadata>
<g transform="translate(0.000000,41.000000) scale(0.100000,-0.100000)"
fill="#000000" stroke="none">
<path d="M276 401 l-7 -11 6 -20 6 -19 -17 -26 -16 -25 -18 0 -18 0 -5 14 -6
14 6 23 6 22 -18 13 -19 14 -49 0 -50 0 7 -54 6 -54 -13 -10 -12 -10 -30 -4
-30 -3 0 -25 0 -25 30 -5 29 -5 7 -25 7 -25 1 -44 1 -44 36 6 35 6 15 -6 14
-5 0 -18 0 -18 6 -16 6 -16 49 0 49 0 0 20 0 21 13 3 12 4 40 11 40 10 -4 163
-3 163 -3 3 -2 3 -50 6 -50 5 -7 -11z"/>
</g>
</svg>
