<?xml version="1.0" standalone="no"?>
<!DOCTYPE svg PUBLIC "-//W3C//DTD SVG 20010904//EN"
 "http://www.w3.org/TR/2001/REC-SVG-20010904/DTD/svg10.dtd">
<svg version="1.0" xmlns="http://www.w3.org/2000/svg"
 width="29.000000pt" height="40.000000pt" viewBox="0 0 29.000000 40.000000"
 preserveAspectRatio="xMidYMid meet">
<metadata>
Created by potrace 1.16, written by Peter Selinger 2001-2019
</metadata>
<g transform="translate(0.000000,40.000000) scale(0.100000,-0.100000)"
fill="#000000" stroke="none">
<path d="M0 352 l0 -48 11 -11 12 -12 22 9 23 9 13 -15 12 -15 -9 -27 -10 -27
-27 0 -27 1 -5 -31 -5 -30 -1 -20 -1 -20 1 -13 1 -13 8 5 9 5 29 -8 29 -7 5
-40 5 -39 42 -3 42 -3 11 21 11 21 -6 18 -6 19 51 7 51 7 -3 52 -3 51 -17 -3
-18 -3 -20 11 -21 11 3 37 3 37 38 0 37 0 0 53 0 53 -47 -3 -48 -3 -5 -35 -5
-35 -28 -3 -28 -3 -15 12 -14 11 0 34 0 34 -50 0 -50 0 0 -48z"/>
</g>
</svg>
