<?xml version="1.0" standalone="no"?>
<!DOCTYPE svg PUBLIC "-//W3C//DTD SVG 20010904//EN"
 "http://www.w3.org/TR/2001/REC-SVG-20010904/DTD/svg10.dtd">
<svg version="1.0" xmlns="http://www.w3.org/2000/svg"
 width="47.000000pt" height="39.000000pt" viewBox="0 0 47.000000 39.000000"
 preserveAspectRatio="xMidYMid meet">
<metadata>
Created by potrace 1.16, written by Peter Selinger 2001-2019
</metadata>
<g transform="translate(0.000000,39.000000) scale(0.100000,-0.100000)"
fill="#000000" stroke="none">
<path d="M90 348 l-1 -43 -14 -19 -14 -18 -30 4 -31 5 0 -23 0 -22 15 -12 14
-12 33 -1 33 -2 -2 -63 -2 -63 34 7 33 6 19 -6 18 -6 0 -37 0 -38 37 -3 37 -3
11 22 12 21 -6 29 -5 29 32 -1 32 0 20 -8 20 -8 21 61 21 61 21 3 22 3 0 35 0
35 -36 -3 -35 -2 -9 14 -10 15 0 38 0 38 -37 -6 -38 -7 -18 -5 -18 -5 4 -11 4
-12 -13 -12 -13 -13 -13 0 -14 0 -22 16 -23 16 3 21 3 22 -47 3 -48 3 0 -43z"/>
</g>
</svg>
