<?xml version="1.0" standalone="no"?>
<!DOCTYPE svg PUBLIC "-//W3C//DTD SVG 20010904//EN"
 "http://www.w3.org/TR/2001/REC-SVG-20010904/DTD/svg10.dtd">
<svg version="1.0" xmlns="http://www.w3.org/2000/svg"
 width="49.000000pt" height="41.000000pt" viewBox="0 0 49.000000 41.000000"
 preserveAspectRatio="xMidYMid meet">
<metadata>
Created by potrace 1.16, written by Peter Selinger 2001-2019
</metadata>
<g transform="translate(0.000000,41.000000) scale(0.100000,-0.100000)"
fill="#000000" stroke="none">
<path d="M90 368 l-1 -43 -14 -18 -14 -19 -30 7 -31 7 0 -35 0 -35 15 -12 15
-12 32 -3 33 -3 -3 -61 -3 -62 48 3 48 3 5 -40 5 -40 45 -3 44 -3 13 17 13 18
0 34 0 35 28 -7 27 -6 20 -5 21 -6 20 63 20 63 22 3 22 3 0 45 0 44 -39 0 -39
0 -6 16 -6 16 0 35 0 35 -47 -6 -48 -7 -17 -5 -16 -5 -6 -24 -6 -25 -8 0 -8 0
-19 14 -20 14 0 24 0 23 -57 3 -58 3 0 -43z"/>
</g>
</svg>
