<?xml version="1.0" standalone="no"?>
<!DOCTYPE svg PUBLIC "-//W3C//DTD SVG 20010904//EN"
 "http://www.w3.org/TR/2001/REC-SVG-20010904/DTD/svg10.dtd">
<svg version="1.0" xmlns="http://www.w3.org/2000/svg"
 width="42.000000pt" height="34.000000pt" viewBox="0 0 42.000000 34.000000"
 preserveAspectRatio="xMidYMid meet">
<metadata>
Created by potrace 1.16, written by Peter Selinger 2001-2019
</metadata>
<g transform="translate(0.000000,34.000000) scale(0.100000,-0.100000)"
fill="#000000" stroke="none">
<path d="M100 280 l0 -60 -45 0 -45 0 -6 -25 -6 -25 13 -16 13 -16 33 4 34 4
6 -24 5 -23 -6 -49 -6 -48 62 5 63 6 13 10 12 9 0 29 0 28 10 6 10 6 0 -35 0
-36 23 -4 22 -5 52 -5 51 -5 6 15 6 15 -16 52 -16 52 -4 12 -3 13 -26 0 -25 0
0 10 0 10 28 0 29 0 16 18 17 19 0 51 0 52 -37 -1 -38 -1 -30 -7 -30 -6 0 -30
0 -30 -22 -3 -21 -3 -16 23 -16 22 0 23 0 23 -55 0 -55 0 0 -60z"/>
</g>
</svg>
