<?xml version="1.0" standalone="no"?>
<!DOCTYPE svg PUBLIC "-//W3C//DTD SVG 20010904//EN"
 "http://www.w3.org/TR/2001/REC-SVG-20010904/DTD/svg10.dtd">
<svg version="1.0" xmlns="http://www.w3.org/2000/svg"
 width="40.000000pt" height="32.000000pt" viewBox="0 0 40.000000 32.000000"
 preserveAspectRatio="xMidYMid meet">
<metadata>
Created by potrace 1.16, written by Peter Selinger 2001-2019
</metadata>
<g transform="translate(0.000000,32.000000) scale(0.100000,-0.100000)"
fill="#000000" stroke="none">
<path d="M100 260 l0 -60 -44 0 -44 0 -6 -16 -6 -17 12 -14 12 -15 33 7 32 6
7 -26 6 -26 -4 -47 -5 -47 51 4 51 3 13 11 14 11 -5 23 -4 23 13 11 14 11 15
-6 15 -5 -6 -30 -6 -30 23 -5 24 -5 42 -3 43 -4 3 10 3 9 -14 46 -14 46 -4 13
-3 12 -26 0 -25 0 0 25 0 25 25 -6 26 -6 19 17 20 18 0 44 0 43 -27 -1 -28 -1
-30 -7 -29 -6 -1 -30 0 -30 -32 -3 -31 -3 -16 23 -16 22 0 23 0 23 -45 0 -45
0 0 -60z"/>
</g>
</svg>
