<?xml version="1.0" standalone="no"?>
<!DOCTYPE svg PUBLIC "-//W3C//DTD SVG 20010904//EN"
 "http://www.w3.org/TR/2001/REC-SVG-20010904/DTD/svg10.dtd">
<svg version="1.0" xmlns="http://www.w3.org/2000/svg"
 width="40.000000pt" height="33.000000pt" viewBox="0 0 40.000000 33.000000"
 preserveAspectRatio="xMidYMid meet">
<metadata>
Created by potrace 1.16, written by Peter Selinger 2001-2019
</metadata>
<g transform="translate(0.000000,33.000000) scale(0.100000,-0.100000)"
fill="#000000" stroke="none">
<path d="M188 301 l4 -29 -11 -21 -12 -21 -17 0 -18 0 -12 12 -12 12 0 33 0
33 -55 0 -55 0 0 -159 0 -158 52 9 53 10 13 11 14 11 -4 28 -4 27 13 5 13 5
15 -5 15 -6 1 -12 1 -11 1 -30 2 -30 66 -3 66 -3 1 38 2 38 5 25 6 26 26 -1
27 0 10 27 9 27 -12 15 -13 15 -23 -9 -22 -9 -12 12 -11 11 0 47 0 46 -37 7
-38 6 -26 0 -26 0 5 -29z"/>
</g>
</svg>
