<?xml version="1.0" standalone="no"?>
<!DOCTYPE svg PUBLIC "-//W3C//DTD SVG 20010904//EN"
 "http://www.w3.org/TR/2001/REC-SVG-20010904/DTD/svg10.dtd">
<svg version="1.0" xmlns="http://www.w3.org/2000/svg"
 width="41.000000pt" height="32.000000pt" viewBox="0 0 41.000000 32.000000"
 preserveAspectRatio="xMidYMid meet">
<metadata>
Created by potrace 1.16, written by Peter Selinger 2001-2019
</metadata>
<g transform="translate(0.000000,32.000000) scale(0.100000,-0.100000)"
fill="#000000" stroke="none">
<path d="M283 292 l6 -30 -12 -17 -13 -17 -34 4 -35 3 3 28 3 27 -26 10 -26
10 -25 0 -24 0 0 -41 0 -40 -11 -20 -10 -20 -30 3 -30 3 -8 -14 -9 -13 5 -18
5 -17 23 5 24 4 11 -43 11 -44 11 -28 11 -28 51 3 51 3 5 35 5 35 18 3 18 4
14 -12 14 -12 -6 -29 -5 -29 61 0 61 0 11 27 10 27 -3 35 -3 36 -33 2 -33 1
-14 12 -15 12 0 22 0 23 31 -5 30 -4 14 18 14 19 1 45 0 45 -61 3 -62 3 6 -29z"/>
</g>
</svg>
