<?xml version="1.0" standalone="no"?>
<!DOCTYPE svg PUBLIC "-//W3C//DTD SVG 20010904//EN"
 "http://www.w3.org/TR/2001/REC-SVG-20010904/DTD/svg10.dtd">
<svg version="1.0" xmlns="http://www.w3.org/2000/svg"
 width="37.000000pt" height="32.000000pt" viewBox="0 0 37.000000 32.000000"
 preserveAspectRatio="xMidYMid meet">
<metadata>
Created by potrace 1.16, written by Peter Selinger 2001-2019
</metadata>
<g transform="translate(0.000000,32.000000) scale(0.100000,-0.100000)"
fill="#000000" stroke="none">
<path d="M267 314 l-7 -7 0 -34 0 -33 -20 -20 -20 -20 -17 7 -18 6 -13 10 -13
10 3 36 3 36 -47 3 -48 3 0 -56 0 -57 -32 4 -33 3 -3 -28 -3 -28 12 -15 12
-15 31 3 31 3 0 -40 -1 -40 -8 -23 -8 -23 54 3 53 3 0 35 1 35 36 3 37 3 3
-28 3 -28 45 -7 44 -8 9 9 9 9 1 48 2 49 -33 2 -33 1 -15 6 -14 5 0 29 0 30
14 11 14 12 29 -3 28 -3 3 48 3 47 -14 0 -14 0 -29 6 -29 6 -8 -8z"/>
</g>
</svg>
