<?xml version="1.0" standalone="no"?>
<!DOCTYPE svg PUBLIC "-//W3C//DTD SVG 20010904//EN"
 "http://www.w3.org/TR/2001/REC-SVG-20010904/DTD/svg10.dtd">
<svg version="1.0" xmlns="http://www.w3.org/2000/svg"
 width="42.000000pt" height="34.000000pt" viewBox="0 0 42.000000 34.000000"
 preserveAspectRatio="xMidYMid meet">
<metadata>
Created by potrace 1.16, written by Peter Selinger 2001-2019
</metadata>
<g transform="translate(0.000000,34.000000) scale(0.100000,-0.100000)"
fill="#000000" stroke="none">
<path d="M27 333 l-7 -6 0 -58 0 -57 47 1 47 2 4 -18 4 -18 -12 -14 -12 -15
-49 0 -49 0 0 -24 0 -23 6 -47 7 -46 43 0 43 0 25 10 26 10 0 30 0 30 19 0 20
0 7 -11 7 -12 1 -31 1 -31 49 -3 50 -3 22 12 23 12 11 46 11 47 22 9 22 10 3
54 3 53 -31 -4 -31 -5 -10 20 -11 19 7 34 6 34 -159 0 -159 0 -6 -7z"/>
</g>
</svg>
