<?xml version="1.0" standalone="no"?>
<!DOCTYPE svg PUBLIC "-//W3C//DTD SVG 20010904//EN"
 "http://www.w3.org/TR/2001/REC-SVG-20010904/DTD/svg10.dtd">
<svg version="1.0" xmlns="http://www.w3.org/2000/svg"
 width="40.000000pt" height="32.000000pt" viewBox="0 0 40.000000 32.000000"
 preserveAspectRatio="xMidYMid meet">
<metadata>
Created by potrace 1.16, written by Peter Selinger 2001-2019
</metadata>
<g transform="translate(0.000000,32.000000) scale(0.100000,-0.100000)"
fill="#000000" stroke="none">
<path d="M27 313 l-7 -6 0 -46 0 -46 47 0 48 0 3 -28 3 -28 -12 -15 -11 -14
-51 0 -50 0 7 -46 6 -47 0 -13 0 -14 34 0 35 0 26 10 27 10 -4 30 -5 30 33 0
33 0 11 -19 10 -20 -3 -23 -2 -23 45 -2 45 -3 16 13 17 12 14 50 14 50 9 0 10
0 13 8 12 8 0 40 0 41 -29 -7 -30 -6 -11 21 -12 22 4 34 4 34 -146 0 -147 0
-6 -7z"/>
</g>
</svg>
