<?xml version="1.0" standalone="no"?>
<!DOCTYPE svg PUBLIC "-//W3C//DTD SVG 20010904//EN"
 "http://www.w3.org/TR/2001/REC-SVG-20010904/DTD/svg10.dtd">
<svg version="1.0" xmlns="http://www.w3.org/2000/svg"
 width="41.000000pt" height="34.000000pt" viewBox="0 0 41.000000 34.000000"
 preserveAspectRatio="xMidYMid meet">
<metadata>
Created by potrace 1.16, written by Peter Selinger 2001-2019
</metadata>
<g transform="translate(0.000000,34.000000) scale(0.100000,-0.100000)"
fill="#000000" stroke="none">
<path d="M87 333 l-7 -6 0 -43 0 -43 -12 -8 -13 -8 -25 0 -25 0 -3 -37 -3 -37
25 -7 25 -6 19 6 20 7 5 -15 6 -15 -6 -36 -6 -35 -8 -6 -9 -5 0 -19 0 -19 58
6 57 6 23 8 22 9 0 34 0 35 13 -5 13 -5 -1 -26 0 -27 25 -7 25 -7 48 -1 47 -1
0 13 0 12 -18 60 -18 60 -23 3 -22 4 3 16 3 17 37 -3 37 -3 7 25 6 26 -6 45
-7 45 -153 0 -153 0 -6 -7z"/>
</g>
</svg>
