<?xml version="1.0" standalone="no"?>
<!DOCTYPE svg PUBLIC "-//W3C//DTD SVG 20010904//EN"
 "http://www.w3.org/TR/2001/REC-SVG-20010904/DTD/svg10.dtd">
<svg version="1.0" xmlns="http://www.w3.org/2000/svg"
 width="39.000000pt" height="32.000000pt" viewBox="0 0 39.000000 32.000000"
 preserveAspectRatio="xMidYMid meet">
<metadata>
Created by potrace 1.16, written by Peter Selinger 2001-2019
</metadata>
<g transform="translate(0.000000,32.000000) scale(0.100000,-0.100000)"
fill="#000000" stroke="none">
<path d="M87 313 l-7 -6 0 -42 0 -43 -14 -12 -15 -11 -23 3 -23 3 -3 -24 -4
-24 14 -8 13 -9 31 6 31 6 7 -18 7 -17 -7 -44 -6 -43 -9 -6 -9 -5 0 -8 0 -7
59 7 59 7 12 7 12 7 -4 30 -5 29 9 5 8 5 20 -6 21 -7 -3 -26 -3 -26 25 -7 25
-7 38 -1 38 -1 -6 19 -5 18 -13 44 -13 44 -22 3 -23 4 3 26 3 27 37 -3 36 -3
7 21 7 21 -7 39 -7 40 -142 0 -143 0 -6 -7z"/>
</g>
</svg>
