<?xml version="1.0" standalone="no"?>
<!DOCTYPE svg PUBLIC "-//W3C//DTD SVG 20010904//EN"
 "http://www.w3.org/TR/2001/REC-SVG-20010904/DTD/svg10.dtd">
<svg version="1.0" xmlns="http://www.w3.org/2000/svg"
 width="32.000000pt" height="41.000000pt" viewBox="0 0 32.000000 41.000000"
 preserveAspectRatio="xMidYMid meet">
<metadata>
Created by potrace 1.16, written by Peter Selinger 2001-2019
</metadata>
<g transform="translate(0.000000,41.000000) scale(0.100000,-0.100000)"
fill="#000000" stroke="none">
<path d="M27 403 l-28 -4 3 -57 3 -57 43 -3 43 -3 6 -15 5 -14 -12 -15 -12
-15 -39 0 -39 0 0 -70 0 -70 45 0 45 0 0 -34 0 -34 16 -6 16 -6 38 0 38 0 6
16 6 16 0 34 0 35 45 -7 45 -6 5 13 4 14 -7 55 -7 55 -29 0 -29 0 -5 13 -4 13
13 15 13 16 33 -7 34 -6 -7 63 -7 63 -4 5 -5 5 -61 0 -62 0 -1 -25 -1 -25 -2
-12 -1 -13 -14 0 -15 0 -15 16 -16 15 0 25 0 24 -27 -1 -28 -2 -28 -4z"/>
</g>
</svg>
