<?xml version="1.0" standalone="no"?>
<!DOCTYPE svg PUBLIC "-//W3C//DTD SVG 20010904//EN"
 "http://www.w3.org/TR/2001/REC-SVG-20010904/DTD/svg10.dtd">
<svg version="1.0" xmlns="http://www.w3.org/2000/svg"
 width="30.000000pt" height="39.000000pt" viewBox="0 0 30.000000 39.000000"
 preserveAspectRatio="xMidYMid meet">
<metadata>
Created by potrace 1.16, written by Peter Selinger 2001-2019
</metadata>
<g transform="translate(0.000000,39.000000) scale(0.100000,-0.100000)"
fill="#000000" stroke="none">
<path d="M27 383 l-28 -4 3 -47 3 -47 35 0 35 0 13 -8 12 -8 0 -23 0 -22 -12
-12 -12 -12 -38 0 -38 0 0 -60 0 -60 48 0 49 0 -5 -31 -5 -31 14 -9 14 -9 32
0 33 0 6 25 6 25 -6 26 -7 27 50 -6 50 -6 4 7 4 7 -6 50 -6 49 -30 1 -30 0 -3
23 -4 23 13 15 13 16 32 -4 33 -4 -6 51 -6 50 -4 5 -4 4 -52 1 -52 0 3 -14 3
-15 -6 -23 -5 -23 -24 0 -25 0 -15 16 -16 15 0 25 0 24 -17 -1 -18 -2 -28 -4z"/>
</g>
</svg>
