<?xml version="1.0" standalone="no"?>
<!DOCTYPE svg PUBLIC "-//W3C//DTD SVG 20010904//EN"
 "http://www.w3.org/TR/2001/REC-SVG-20010904/DTD/svg10.dtd">
<svg version="1.0" xmlns="http://www.w3.org/2000/svg"
 width="47.000000pt" height="33.000000pt" viewBox="0 0 47.000000 33.000000"
 preserveAspectRatio="xMidYMid meet">
<metadata>
Created by potrace 1.16, written by Peter Selinger 2001-2019
</metadata>
<g transform="translate(0.000000,33.000000) scale(0.100000,-0.100000)"
fill="#000000" stroke="none">
<path d="M113 323 l-43 -4 0 -47 -1 -47 -13 -17 -13 -17 -21 6 -22 5 0 -40 0
-41 27 -3 28 -3 10 -55 11 -55 47 -3 46 -3 21 11 20 11 0 24 0 24 10 6 10 6 9
-24 10 -25 33 -7 33 -6 27 -11 27 -10 15 14 15 15 3 34 3 34 27 3 28 3 6 23 6
24 -4 28 -3 29 -37 3 -38 3 0 61 0 60 -25 -6 -25 -6 -46 -7 -45 -6 3 -25 3
-25 -17 -11 -18 -11 -17 11 -18 11 -3 37 -3 36 -12 -2 -12 -1 -42 -4z"/>
</g>
</svg>
