<?xml version="1.0" standalone="no"?>
<!DOCTYPE svg PUBLIC "-//W3C//DTD SVG 20010904//EN"
 "http://www.w3.org/TR/2001/REC-SVG-20010904/DTD/svg10.dtd">
<svg version="1.0" xmlns="http://www.w3.org/2000/svg"
 width="30.000000pt" height="41.000000pt" viewBox="0 0 30.000000 41.000000"
 preserveAspectRatio="xMidYMid meet">
<metadata>
Created by potrace 1.16, written by Peter Selinger 2001-2019
</metadata>
<g transform="translate(0.000000,41.000000) scale(0.100000,-0.100000)"
fill="#000000" stroke="none">
<path d="M49 402 l-37 -3 -6 -31 -6 -31 0 -23 0 -24 38 2 39 1 11 -7 12 -7 0
-24 0 -23 -16 -6 -16 -6 -23 0 -22 0 -7 -37 -6 -38 0 -22 0 -23 58 0 57 0 0
-47 0 -48 24 0 25 0 8 30 8 30 -6 27 -6 28 31 0 30 0 26 -10 26 -10 -7 38 -7
37 -8 23 -9 23 -9 -5 -9 -6 -12 15 -12 14 4 23 3 23 35 5 35 5 3 52 3 52 -38
-5 -38 -6 -14 -4 -13 -4 6 -23 5 -22 -8 -13 -8 -13 -44 3 -44 3 -3 40 -3 40
-7 5 -7 5 -36 -3z"/>
</g>
</svg>
