<?xml version="1.0" standalone="no"?>
<!DOCTYPE svg PUBLIC "-//W3C//DTD SVG 20010904//EN"
 "http://www.w3.org/TR/2001/REC-SVG-20010904/DTD/svg10.dtd">
<svg version="1.0" xmlns="http://www.w3.org/2000/svg"
 width="47.000000pt" height="34.000000pt" viewBox="0 0 47.000000 34.000000"
 preserveAspectRatio="xMidYMid meet">
<metadata>
Created by potrace 1.16, written by Peter Selinger 2001-2019
</metadata>
<g transform="translate(0.000000,34.000000) scale(0.100000,-0.100000)"
fill="#000000" stroke="none">
<path d="M122 333 l-43 -4 7 -55 6 -54 -27 0 -26 0 -20 -10 -19 -11 0 -30 0
-29 24 -9 23 -9 12 -44 11 -43 8 -12 8 -13 65 -2 64 -3 0 37 0 37 12 12 11 11
11 -6 11 -7 0 -24 0 -24 20 -11 21 -11 42 3 42 3 3 52 3 53 34 0 35 0 6 24 6
24 -4 23 -3 24 -30 -1 -30 -1 -7 11 -8 11 0 38 0 37 -17 0 -18 0 -38 -7 -39
-6 -8 -22 -9 -23 -11 -7 -12 -7 -16 16 -17 17 0 27 0 27 -20 1 -20 1 -43 -4z"/>
</g>
</svg>
