<?xml version="1.0" standalone="no"?>
<!DOCTYPE svg PUBLIC "-//W3C//DTD SVG 20010904//EN"
 "http://www.w3.org/TR/2001/REC-SVG-20010904/DTD/svg10.dtd">
<svg version="1.0" xmlns="http://www.w3.org/2000/svg"
 width="38.000000pt" height="32.000000pt" viewBox="0 0 38.000000 32.000000"
 preserveAspectRatio="xMidYMid meet">
<metadata>
Created by potrace 1.16, written by Peter Selinger 2001-2019
</metadata>
<g transform="translate(0.000000,32.000000) scale(0.100000,-0.100000)"
fill="#000000" stroke="none">
<path d="M32 313 l-32 -4 0 -45 0 -46 43 4 42 3 3 -42 3 -42 -24 -6 -24 -6
-19 3 -19 3 -3 -63 -3 -62 54 0 55 0 12 15 12 15 -5 20 -5 20 23 0 24 0 8 -12
7 -13 -2 -22 -3 -21 60 -4 60 -3 5 20 6 20 0 30 0 30 8 10 7 10 13 1 12 1 9 2
10 1 6 19 6 18 -10 27 -11 26 -30 0 -30 0 0 45 0 46 -37 -6 -38 -7 -16 -4 -16
-4 1 -22 1 -21 -29 -8 -28 -8 -20 12 -19 12 3 33 4 32 -21 -2 -20 -1 -33 -4z"/>
</g>
</svg>
