<?xml version="1.0" standalone="no"?>
<!DOCTYPE svg PUBLIC "-//W3C//DTD SVG 20010904//EN"
 "http://www.w3.org/TR/2001/REC-SVG-20010904/DTD/svg10.dtd">
<svg version="1.0" xmlns="http://www.w3.org/2000/svg"
 width="40.000000pt" height="31.000000pt" viewBox="0 0 40.000000 31.000000"
 preserveAspectRatio="xMidYMid meet">
<metadata>
Created by potrace 1.16, written by Peter Selinger 2001-2019
</metadata>
<g transform="translate(0.000000,31.000000) scale(0.100000,-0.100000)"
fill="#000000" stroke="none">
<path d="M82 262 l1 -49 -7 -11 -7 -12 -35 0 -34 0 0 -39 0 -40 38 -3 37 -3 3
-52 3 -53 160 0 159 0 0 55 0 55 -39 0 -40 0 -6 20 -7 21 12 14 12 15 34 0 34
0 0 60 0 60 -15 0 -14 0 -50 -11 -50 -10 -3 -27 -3 -27 -30 0 -30 0 3 34 3 34
-13 9 -13 8 -52 0 -52 0 1 -48z"/>
</g>
</svg>
