<?xml version="1.0" standalone="no"?>
<!DOCTYPE svg PUBLIC "-//W3C//DTD SVG 20010904//EN"
 "http://www.w3.org/TR/2001/REC-SVG-20010904/DTD/svg10.dtd">
<svg version="1.0" xmlns="http://www.w3.org/2000/svg"
 width="38.000000pt" height="29.000000pt" viewBox="0 0 38.000000 29.000000"
 preserveAspectRatio="xMidYMid meet">
<metadata>
Created by potrace 1.16, written by Peter Selinger 2001-2019
</metadata>
<g transform="translate(0.000000,29.000000) scale(0.100000,-0.100000)"
fill="#000000" stroke="none">
<path d="M84 248 l1 -43 -7 -17 -7 -18 -36 0 -35 0 0 -29 0 -30 38 -3 37 -3 3
-52 3 -53 150 0 149 0 0 45 0 45 -40 0 -40 0 -6 27 -7 26 10 16 10 16 37 3 36
3 0 50 0 49 -5 0 -4 0 -51 -11 -51 -11 6 -17 5 -18 -14 -12 -15 -12 -33 3 -33
3 1 35 0 35 -10 7 -11 8 -41 0 -41 0 1 -42z"/>
</g>
</svg>
