<?xml version="1.0" standalone="no"?>
<!DOCTYPE svg PUBLIC "-//W3C//DTD SVG 20010904//EN"
 "http://www.w3.org/TR/2001/REC-SVG-20010904/DTD/svg10.dtd">
<svg version="1.0" xmlns="http://www.w3.org/2000/svg"
 width="30.000000pt" height="29.000000pt" viewBox="0 0 30.000000 29.000000"
 preserveAspectRatio="xMidYMid meet">
<metadata>
Created by potrace 1.16, written by Peter Selinger 2001-2019
</metadata>
<g transform="translate(0.000000,29.000000) scale(0.100000,-0.100000)"
fill="#000000" stroke="none">
<path d="M0 240 l0 -50 35 0 35 0 11 -24 11 -23 -11 -22 -12 -21 -12 -1 -12
-1 -17 1 -18 2 0 -13 0 -13 -6 -38 -7 -37 152 0 152 0 -3 48 -3 47 -30 3 -30
4 -13 11 -13 10 3 26 3 26 40 5 40 5 0 50 0 50 -55 0 -55 0 0 -33 0 -33 -15
-9 -15 -10 -20 2 -20 3 3 33 2 32 -26 10 -25 10 -35 0 -34 0 0 -50z"/>
</g>
</svg>
