<?xml version="1.0" standalone="no"?>
<!DOCTYPE svg PUBLIC "-//W3C//DTD SVG 20010904//EN"
 "http://www.w3.org/TR/2001/REC-SVG-20010904/DTD/svg10.dtd">
<svg version="1.0" xmlns="http://www.w3.org/2000/svg"
 width="52.000000pt" height="32.000000pt" viewBox="0 0 52.000000 32.000000"
 preserveAspectRatio="xMidYMid meet">
<metadata>
Created by potrace 1.16, written by Peter Selinger 2001-2019
</metadata>
<g transform="translate(0.000000,32.000000) scale(0.100000,-0.100000)"
fill="#000000" stroke="none">
<path d="M98 253 l-3 -68 -27 3 -28 3 -20 -11 -20 -11 0 -19 0 -20 26 -16 25
-17 37 -3 37 -2 -1 -18 -1 -19 -8 -27 -7 -28 157 0 157 0 -7 50 -7 50 19 0 18
0 38 11 37 10 0 32 0 33 -12 12 -12 12 -38 0 -38 0 0 45 0 45 -10 0 -9 0 -57
-17 -57 -18 -5 -18 -5 -18 -21 3 -21 3 -3 32 -3 32 -37 6 -37 6 -27 5 -27 5
-3 -68z"/>
</g>
</svg>
