<?xml version="1.0" standalone="no"?>
<!DOCTYPE svg PUBLIC "-//W3C//DTD SVG 20010904//EN"
 "http://www.w3.org/TR/2001/REC-SVG-20010904/DTD/svg10.dtd">
<svg version="1.0" xmlns="http://www.w3.org/2000/svg"
 width="38.000000pt" height="29.000000pt" viewBox="0 0 38.000000 29.000000"
 preserveAspectRatio="xMidYMid meet">
<metadata>
Created by potrace 1.16, written by Peter Selinger 2001-2019
</metadata>
<g transform="translate(0.000000,29.000000) scale(0.100000,-0.100000)"
fill="#000000" stroke="none">
<path d="M82 233 l3 -58 -30 -3 -30 -4 -12 -10 -13 -10 0 -13 0 -13 16 2 16 1
9 -15 8 -15 13 -45 13 -45 143 -3 144 -3 -7 33 -6 33 -6 18 -5 18 -13 -4 -13
-5 -11 11 -11 11 0 21 0 21 16 23 16 23 24 -5 24 -4 5 8 5 8 -6 40 -7 41 -53
0 -54 0 0 -34 0 -35 -21 -6 -21 -7 -24 13 -24 13 6 19 6 19 -13 9 -14 9 -38 0
-38 0 3 -57z"/>
</g>
</svg>
