<?xml version="1.0" standalone="no"?>
<!DOCTYPE svg PUBLIC "-//W3C//DTD SVG 20010904//EN"
 "http://www.w3.org/TR/2001/REC-SVG-20010904/DTD/svg10.dtd">
<svg version="1.0" xmlns="http://www.w3.org/2000/svg"
 width="32.000000pt" height="31.000000pt" viewBox="0 0 32.000000 31.000000"
 preserveAspectRatio="xMidYMid meet">
<metadata>
Created by potrace 1.16, written by Peter Selinger 2001-2019
</metadata>
<g transform="translate(0.000000,31.000000) scale(0.100000,-0.100000)"
fill="#000000" stroke="none">
<path d="M7 303 l-7 -6 0 -41 0 -41 8 -12 7 -11 30 -4 30 -3 3 -18 4 -19 -17
-12 -18 -13 -23 5 -24 4 0 -66 0 -66 155 0 156 0 -3 62 -3 63 -35 5 -35 5 0
25 0 25 43 3 42 3 0 55 0 54 -7 0 -8 0 -50 -18 -50 -18 1 -22 1 -22 -24 -6
-23 -6 -16 13 -16 13 6 32 6 32 -16 6 -16 6 -47 0 -48 0 -6 -7z"/>
</g>
</svg>
