<?xml version="1.0" standalone="no"?>
<!DOCTYPE svg PUBLIC "-//W3C//DTD SVG 20010904//EN"
 "http://www.w3.org/TR/2001/REC-SVG-20010904/DTD/svg10.dtd">
<svg version="1.0" xmlns="http://www.w3.org/2000/svg"
 width="49.000000pt" height="31.000000pt" viewBox="0 0 49.000000 31.000000"
 preserveAspectRatio="xMidYMid meet">
<metadata>
Created by potrace 1.16, written by Peter Selinger 2001-2019
</metadata>
<g transform="translate(0.000000,31.000000) scale(0.100000,-0.100000)"
fill="#000000" stroke="none">
<path d="M80 281 l0 -30 -10 -25 -10 -26 -30 0 -31 0 3 -42 3 -43 44 -3 44 -3
-7 -55 -6 -54 155 0 155 0 6 27 6 28 7 29 7 29 27 2 28 1 10 14 9 15 -6 25 -6
25 -11 8 -12 8 -39 -6 -38 -6 7 57 7 57 -47 -7 -48 -6 -13 0 -14 0 0 -39 0
-39 -16 -6 -16 -6 -8 0 -9 0 -15 15 -15 15 6 35 6 35 -62 0 -61 0 0 -29z"/>
</g>
</svg>
