<?xml version="1.0" standalone="no"?>
<!DOCTYPE svg PUBLIC "-//W3C//DTD SVG 20010904//EN"
 "http://www.w3.org/TR/2001/REC-SVG-20010904/DTD/svg10.dtd">
<svg version="1.0" xmlns="http://www.w3.org/2000/svg"
 width="41.000000pt" height="32.000000pt" viewBox="0 0 41.000000 32.000000"
 preserveAspectRatio="xMidYMid meet">
<metadata>
Created by potrace 1.16, written by Peter Selinger 2001-2019
</metadata>
<g transform="translate(0.000000,32.000000) scale(0.100000,-0.100000)"
fill="#000000" stroke="none">
<path d="M201 310 l-12 -7 7 -16 6 -17 -6 -26 -7 -25 -42 3 -42 3 3 37 3 36
-51 4 -50 3 -5 -13 -5 -14 0 -24 0 -25 15 -29 16 -30 24 0 25 0 0 -7 0 -8 -8
-12 -7 -12 -19 2 -19 2 -8 -30 -7 -30 -5 -37 -6 -38 66 0 65 0 -5 22 -6 21 10
19 10 18 19 0 20 0 0 -24 0 -23 63 -16 62 -15 6 4 7 4 7 55 6 55 24 0 23 0 16
6 16 6 0 23 0 24 -12 7 -11 7 -40 -1 -40 -2 7 55 6 54 -37 6 -38 6 -16 3 -17
4 -11 -8z"/>
</g>
</svg>
