<?xml version="1.0" standalone="no"?>
<!DOCTYPE svg PUBLIC "-//W3C//DTD SVG 20010904//EN"
 "http://www.w3.org/TR/2001/REC-SVG-20010904/DTD/svg10.dtd">
<svg version="1.0" xmlns="http://www.w3.org/2000/svg"
 width="32.000000pt" height="31.000000pt" viewBox="0 0 32.000000 31.000000"
 preserveAspectRatio="xMidYMid meet">
<metadata>
Created by potrace 1.16, written by Peter Selinger 2001-2019
</metadata>
<g transform="translate(0.000000,31.000000) scale(0.100000,-0.100000)"
fill="#000000" stroke="none">
<path d="M0 250 l0 -60 35 0 34 0 10 -18 9 -18 -9 -17 -10 -17 -28 0 -28 0 -7
-37 -6 -38 0 -22 0 -23 160 0 161 0 -3 57 -3 58 -32 3 -32 3 -11 14 -12 15 5
14 6 15 38 3 38 3 0 60 0 60 -65 0 -65 0 -1 -33 -1 -34 -14 -9 -14 -9 -10 4
-10 3 3 31 3 32 -26 10 -26 10 -45 0 -44 0 0 -60z"/>
</g>
</svg>
