<?xml version="1.0" standalone="no"?>
<!DOCTYPE svg PUBLIC "-//W3C//DTD SVG 20010904//EN"
 "http://www.w3.org/TR/2001/REC-SVG-20010904/DTD/svg10.dtd">
<svg version="1.0" xmlns="http://www.w3.org/2000/svg"
 width="33.000000pt" height="31.000000pt" viewBox="0 0 33.000000 31.000000"
 preserveAspectRatio="xMidYMid meet">
<metadata>
Created by potrace 1.16, written by Peter Selinger 2001-2019
</metadata>
<g transform="translate(0.000000,31.000000) scale(0.100000,-0.100000)"
fill="#000000" stroke="none">
<path d="M0 250 l0 -60 34 0 35 0 6 -20 6 -20 -6 -11 -7 -11 -26 7 -25 6 -8
-13 -9 -13 0 -57 0 -58 165 0 166 0 -3 62 -3 63 -25 3 -25 3 -24 5 -24 5 12
12 11 11 38 1 37 0 3 44 3 44 -6 24 -6 24 -62 -3 -62 -3 0 -28 -1 -29 -17 -10
-18 -9 -22 3 -22 3 0 40 0 40 -57 3 -58 3 0 -61z"/>
</g>
</svg>
