<?xml version="1.0" standalone="no"?>
<!DOCTYPE svg PUBLIC "-//W3C//DTD SVG 20010904//EN"
 "http://www.w3.org/TR/2001/REC-SVG-20010904/DTD/svg10.dtd">
<svg version="1.0" xmlns="http://www.w3.org/2000/svg"
 width="47.000000pt" height="29.000000pt" viewBox="0 0 47.000000 29.000000"
 preserveAspectRatio="xMidYMid meet">
<metadata>
Created by potrace 1.16, written by Peter Selinger 2001-2019
</metadata>
<g transform="translate(0.000000,29.000000) scale(0.100000,-0.100000)"
fill="#000000" stroke="none">
<path d="M80 261 l0 -30 -10 -25 -10 -26 -30 0 -31 0 3 -32 3 -33 44 -3 43 -3
-4 -55 -5 -54 143 0 144 0 6 28 6 27 7 30 7 30 28 1 28 1 8 13 8 13 -6 16 -6
16 -10 7 -11 7 -39 -6 -39 -6 6 58 6 57 -31 -6 -30 -6 -19 0 -19 0 0 -39 0
-39 -16 -6 -16 -6 -18 0 -19 0 -16 17 -17 16 7 34 6 33 -51 0 -50 0 0 -29z"/>
</g>
</svg>
