<?xml version="1.0" standalone="no"?>
<!DOCTYPE svg PUBLIC "-//W3C//DTD SVG 20010904//EN"
 "http://www.w3.org/TR/2001/REC-SVG-20010904/DTD/svg10.dtd">
<svg version="1.0" xmlns="http://www.w3.org/2000/svg"
 width="46.000000pt" height="29.000000pt" viewBox="0 0 46.000000 29.000000"
 preserveAspectRatio="xMidYMid meet">
<metadata>
Created by potrace 1.16, written by Peter Selinger 2001-2019
</metadata>
<g transform="translate(0.000000,29.000000) scale(0.100000,-0.100000)"
fill="#000000" stroke="none">
<path d="M93 225 l6 -65 -38 0 -39 0 -11 -14 -11 -13 6 -16 6 -16 12 5 13 5
10 -13 11 -13 11 -42 12 -43 148 0 148 0 -1 57 -1 58 32 3 32 3 11 14 12 14
-7 11 -6 10 -21 0 -21 0 -13 18 -13 17 -1 38 0 38 -47 -3 -48 -3 0 -25 0 -24
-26 -10 -27 -9 -16 6 -16 6 0 36 0 35 -56 0 -57 0 6 -65z"/>
</g>
</svg>
