<?xml version="1.0" standalone="no"?>
<!DOCTYPE svg PUBLIC "-//W3C//DTD SVG 20010904//EN"
 "http://www.w3.org/TR/2001/REC-SVG-20010904/DTD/svg10.dtd">
<svg version="1.0" xmlns="http://www.w3.org/2000/svg"
 width="48.000000pt" height="31.000000pt" viewBox="0 0 48.000000 31.000000"
 preserveAspectRatio="xMidYMid meet">
<metadata>
Created by potrace 1.16, written by Peter Selinger 2001-2019
</metadata>
<g transform="translate(0.000000,31.000000) scale(0.100000,-0.100000)"
fill="#000000" stroke="none">
<path d="M92 245 l4 -65 -37 0 -37 0 -12 -15 -12 -15 6 -24 6 -25 22 -3 22 -3
14 -47 13 -48 160 0 159 0 -2 57 -3 58 34 5 34 5 10 16 10 16 -6 17 -6 16 -22
0 -22 0 -13 18 -13 17 -1 38 0 38 -57 -3 -58 -3 0 -23 0 -24 -18 -10 -18 -10
-15 6 -14 5 0 36 0 35 -66 0 -66 0 4 -65z"/>
</g>
</svg>
