<?xml version="1.0" standalone="no"?>
<!DOCTYPE svg PUBLIC "-//W3C//DTD SVG 20010904//EN"
 "http://www.w3.org/TR/2001/REC-SVG-20010904/DTD/svg10.dtd">
<svg version="1.0" xmlns="http://www.w3.org/2000/svg"
 width="37.000000pt" height="29.000000pt" viewBox="0 0 37.000000 29.000000"
 preserveAspectRatio="xMidYMid meet">
<metadata>
Created by potrace 1.16, written by Peter Selinger 2001-2019
</metadata>
<g transform="translate(0.000000,29.000000) scale(0.100000,-0.100000)"
fill="#000000" stroke="none">
<path d="M2 233 l3 -58 29 0 29 0 11 -17 11 -18 -17 -27 -17 -28 -21 2 -20 3
0 -29 0 -29 -6 -16 -6 -16 150 0 150 0 7 33 6 32 5 28 6 27 24 0 25 0 -3 23
-3 22 -27 -3 -26 -3 -8 13 -9 13 -5 45 -5 46 -46 -13 -47 -14 5 -18 5 -18 -26
-7 -26 -6 -26 6 -26 7 5 33 5 32 -15 6 -15 6 -39 0 -40 0 3 -57z"/>
</g>
</svg>
