<?xml version="1.0" standalone="no"?>
<!DOCTYPE svg PUBLIC "-//W3C//DTD SVG 20010904//EN"
 "http://www.w3.org/TR/2001/REC-SVG-20010904/DTD/svg10.dtd">
<svg version="1.0" xmlns="http://www.w3.org/2000/svg"
 width="48.000000pt" height="29.000000pt" viewBox="0 0 48.000000 29.000000"
 preserveAspectRatio="xMidYMid meet">
<metadata>
Created by potrace 1.16, written by Peter Selinger 2001-2019
</metadata>
<g transform="translate(0.000000,29.000000) scale(0.100000,-0.100000)"
fill="#000000" stroke="none">
<path d="M88 238 l-3 -53 -40 -5 -40 -5 -3 -26 -3 -26 13 -10 13 -11 30 -4 30
-3 3 -48 3 -47 150 0 149 0 0 49 0 50 13 8 12 8 30 0 30 0 0 25 0 25 -37 -3
-38 -4 -10 27 -10 26 0 40 0 39 -55 0 -55 0 0 -34 0 -34 -16 -6 -16 -6 -18 0
-19 0 -10 18 -9 18 1 19 2 20 -47 3 -47 3 -3 -53z"/>
</g>
</svg>
