<?xml version="1.0" standalone="no"?>
<!DOCTYPE svg PUBLIC "-//W3C//DTD SVG 20010904//EN"
 "http://www.w3.org/TR/2001/REC-SVG-20010904/DTD/svg10.dtd">
<svg version="1.0" xmlns="http://www.w3.org/2000/svg"
 width="53.000000pt" height="41.000000pt" viewBox="0 0 53.000000 41.000000"
 preserveAspectRatio="xMidYMid meet">
<metadata>
Created by potrace 1.16, written by Peter Selinger 2001-2019
</metadata>
<g transform="translate(0.000000,41.000000) scale(0.100000,-0.100000)"
fill="#000000" stroke="none">
<path d="M145 401 l-40 -6 -3 -42 -3 -43 -44 0 -43 0 -6 -16 -6 -16 0 -32 0
-32 12 -16 13 -16 20 -4 19 -3 15 -48 15 -47 50 0 51 0 12 -8 11 -7 4 -30 3
-30 36 -3 37 -3 16 16 16 16 0 25 0 24 54 0 54 0 7 55 6 55 24 0 24 0 15 16
16 15 0 25 0 25 -11 20 -10 20 -37 -3 -37 -3 -3 43 -3 43 -12 4 -12 5 -55 -13
-55 -13 2 -26 2 -26 -16 -6 -16 -6 -13 11 -14 11 0 33 0 33 -16 6 -16 6 -11
-1 -12 -2 -40 -6z"/>
</g>
</svg>
