<?xml version="1.0" standalone="no"?>
<!DOCTYPE svg PUBLIC "-//W3C//DTD SVG 20010904//EN"
 "http://www.w3.org/TR/2001/REC-SVG-20010904/DTD/svg10.dtd">
<svg version="1.0" xmlns="http://www.w3.org/2000/svg"
 width="41.000000pt" height="29.000000pt" viewBox="0 0 41.000000 29.000000"
 preserveAspectRatio="xMidYMid meet">
<metadata>
Created by potrace 1.16, written by Peter Selinger 2001-2019
</metadata>
<g transform="translate(0.000000,29.000000) scale(0.100000,-0.100000)"
fill="#000000" stroke="none">
<path d="M20 237 l0 -53 35 4 35 4 15 -12 15 -12 0 -24 0 -23 -39 -11 -39 -10
-15 6 -15 5 -5 -8 -6 -9 11 -47 10 -47 142 0 142 0 -4 60 -4 61 41 -7 41 -7
15 13 15 12 0 20 0 20 -25 -6 -25 -6 -20 12 -20 13 0 52 0 53 -61 0 -62 0 7
-39 6 -40 -16 -15 -15 -16 -10 0 -10 0 -21 11 -20 11 7 35 6 36 -13 8 -13 9
-42 0 -43 0 0 -53z"/>
</g>
</svg>
