<?xml version="1.0" standalone="no"?>
<!DOCTYPE svg PUBLIC "-//W3C//DTD SVG 20010904//EN"
 "http://www.w3.org/TR/2001/REC-SVG-20010904/DTD/svg10.dtd">
<svg version="1.0" xmlns="http://www.w3.org/2000/svg"
 width="50.000000pt" height="31.000000pt" viewBox="0 0 50.000000 31.000000"
 preserveAspectRatio="xMidYMid meet">
<metadata>
Created by potrace 1.16, written by Peter Selinger 2001-2019
</metadata>
<g transform="translate(0.000000,31.000000) scale(0.100000,-0.100000)"
fill="#000000" stroke="none">
<path d="M88 258 l-3 -53 -40 -5 -40 -5 -3 -33 -3 -33 11 -14 11 -14 32 -3 32
-3 3 -48 3 -47 159 0 159 0 3 52 3 53 40 5 40 5 0 35 0 35 -38 -3 -37 -3 -10
26 -10 26 0 40 0 39 -65 0 -65 0 0 -34 0 -35 -21 -6 -21 -7 -8 9 -8 8 -4 30
-3 30 -57 3 -57 3 -3 -53z"/>
</g>
</svg>
