<?xml version="1.0" standalone="no"?>
<!DOCTYPE svg PUBLIC "-//W3C//DTD SVG 20010904//EN"
 "http://www.w3.org/TR/2001/REC-SVG-20010904/DTD/svg10.dtd">
<svg version="1.0" xmlns="http://www.w3.org/2000/svg"
 width="49.000000pt" height="41.000000pt" viewBox="0 0 49.000000 41.000000"
 preserveAspectRatio="xMidYMid meet">
<metadata>
Created by potrace 1.16, written by Peter Selinger 2001-2019
</metadata>
<g transform="translate(0.000000,41.000000) scale(0.100000,-0.100000)"
fill="#000000" stroke="none">
<path d="M90 369 l0 -37 -6 -15 -5 -14 -23 4 -23 5 -17 -17 -17 -18 3 -31 3
-31 26 -12 26 -13 12 -55 12 -55 55 0 54 0 0 -28 0 -28 12 -12 12 -12 44 0 44
0 5 20 5 19 49 16 49 17 0 16 -1 17 -8 44 -9 45 4 11 5 11 29 -4 30 -4 15 12
15 12 0 34 0 34 -40 0 -40 0 0 49 0 49 -16 6 -16 6 -44 0 -44 0 0 -34 0 -34
-16 -6 -16 -6 -14 0 -15 0 -12 12 -13 12 4 27 4 28 -61 -2 -61 -1 0 -37z"/>
</g>
</svg>
