<?xml version="1.0" standalone="no"?>
<!DOCTYPE svg PUBLIC "-//W3C//DTD SVG 20010904//EN"
 "http://www.w3.org/TR/2001/REC-SVG-20010904/DTD/svg10.dtd">
<svg version="1.0" xmlns="http://www.w3.org/2000/svg"
 width="47.000000pt" height="39.000000pt" viewBox="0 0 47.000000 39.000000"
 preserveAspectRatio="xMidYMid meet">
<metadata>
Created by potrace 1.16, written by Peter Selinger 2001-2019
</metadata>
<g transform="translate(0.000000,39.000000) scale(0.100000,-0.100000)"
fill="#000000" stroke="none">
<path d="M90 345 l0 -40 -9 -14 -9 -13 -20 6 -20 7 -16 -16 -16 -16 0 -18 0
-19 15 -12 14 -12 10 6 10 7 10 -38 10 -38 7 -27 6 -28 59 0 59 0 -6 -28 -6
-28 15 -13 16 -12 33 3 33 3 -1 16 -1 16 53 17 54 17 0 3 0 3 -10 53 -10 54 6
18 6 19 29 -6 30 -7 14 12 15 12 0 24 0 24 -40 0 -40 0 0 49 0 49 -16 6 -16 6
-34 0 -34 0 0 -34 0 -34 -16 -6 -16 -6 -25 0 -24 0 -15 15 -15 14 7 25 6 25
-51 -2 -51 -2 0 -40z"/>
</g>
</svg>
