<?xml version="1.0" standalone="no"?>
<!DOCTYPE svg PUBLIC "-//W3C//DTD SVG 20010904//EN"
 "http://www.w3.org/TR/2001/REC-SVG-20010904/DTD/svg10.dtd">
<svg version="1.0" xmlns="http://www.w3.org/2000/svg"
 width="41.000000pt" height="41.000000pt" viewBox="0 0 41.000000 41.000000"
 preserveAspectRatio="xMidYMid meet">
<metadata>
Created by potrace 1.16, written by Peter Selinger 2001-2019
</metadata>
<g transform="translate(0.000000,41.000000) scale(0.100000,-0.100000)"
fill="#000000" stroke="none">
<path d="M216 403 l-18 -5 5 -28 6 -28 -14 -18 -13 -19 -29 10 -28 10 -3 38
-3 37 -60 0 -60 0 3 -52 3 -53 35 -5 35 -5 0 -40 0 -40 -26 -3 -27 -3 -6 -31
-6 -30 0 -29 0 -29 49 0 50 0 3 -37 3 -38 45 0 45 0 3 26 3 27 41 5 41 5 9 14
8 13 -5 20 -6 20 -6 33 -6 32 31 -6 31 -6 25 6 24 6 7 27 6 27 -17 13 -18 13
-33 0 -33 0 0 60 0 60 -17 0 -18 0 -20 4 -20 4 -19 -5z"/>
</g>
</svg>
