<?xml version="1.0" standalone="no"?>
<!DOCTYPE svg PUBLIC "-//W3C//DTD SVG 20010904//EN"
 "http://www.w3.org/TR/2001/REC-SVG-20010904/DTD/svg10.dtd">
<svg version="1.0" xmlns="http://www.w3.org/2000/svg"
 width="35.000000pt" height="47.000000pt" viewBox="0 0 35.000000 47.000000"
 preserveAspectRatio="xMidYMid meet">
<metadata>
Created by potrace 1.16, written by Peter Selinger 2001-2019
</metadata>
<g transform="translate(0.000000,47.000000) scale(0.100000,-0.100000)"
fill="#000000" stroke="none">
<path d="M159 463 l-1 -8 -1 -25 -2 -25 -65 -5 -65 -5 1 -46 0 -47 16 -16 17
-16 20 0 21 0 0 -8 0 -8 -14 -19 -14 -19 -36 2 -36 3 0 -23 0 -23 6 -38 7 -37
68 0 69 0 -6 -39 -6 -39 22 -12 22 -12 25 7 25 6 -6 23 -6 23 56 17 55 17 7
17 6 17 1 50 0 50 -34 -3 -34 -4 -8 14 -9 13 0 24 0 23 19 -5 18 -4 16 8 15 9
7 30 6 30 -5 18 -6 19 -43 -7 -42 -8 -18 10 -19 10 6 14 6 15 -10 20 -11 19
-19 0 -20 0 -1 -7z"/>
</g>
</svg>
