<?xml version="1.0" standalone="no"?>
<!DOCTYPE svg PUBLIC "-//W3C//DTD SVG 20010904//EN"
 "http://www.w3.org/TR/2001/REC-SVG-20010904/DTD/svg10.dtd">
<svg version="1.0" xmlns="http://www.w3.org/2000/svg"
 width="40.000000pt" height="47.000000pt" viewBox="0 0 40.000000 47.000000"
 preserveAspectRatio="xMidYMid meet">
<metadata>
Created by potrace 1.16, written by Peter Selinger 2001-2019
</metadata>
<g transform="translate(0.000000,47.000000) scale(0.100000,-0.100000)"
fill="#000000" stroke="none">
<path d="M221 453 l-9 -19 1 -19 2 -20 -62 3 -63 4 0 -41 0 -40 -13 -8 -12 -8
-30 0 -30 0 -3 -33 -3 -33 12 -15 12 -15 29 6 28 7 1 -44 1 -43 6 -20 7 -20
55 0 55 0 -3 -38 -3 -37 22 -8 22 -9 24 5 23 4 6 24 6 24 -5 26 -5 26 14 5 14
5 29 -10 29 -10 6 13 5 14 -17 53 -17 53 -22 3 -23 3 0 9 0 9 22 15 21 15 17
-9 17 -9 7 6 6 6 0 58 0 57 -64 7 -65 7 -3 27 -3 26 -17 3 -17 3 -10 -18z"/>
</g>
</svg>
