<?xml version="1.0" standalone="no"?>
<!DOCTYPE svg PUBLIC "-//W3C//DTD SVG 20010904//EN"
 "http://www.w3.org/TR/2001/REC-SVG-20010904/DTD/svg10.dtd">
<svg version="1.0" xmlns="http://www.w3.org/2000/svg"
 width="42.000000pt" height="49.000000pt" viewBox="0 0 42.000000 49.000000"
 preserveAspectRatio="xMidYMid meet">
<metadata>
Created by potrace 1.16, written by Peter Selinger 2001-2019
</metadata>
<g transform="translate(0.000000,49.000000) scale(0.100000,-0.100000)"
fill="#000000" stroke="none">
<path d="M221 471 l-11 -20 0 -19 0 -20 -59 5 -60 6 -3 -44 -3 -44 -40 -5 -40
-5 -3 -43 -3 -43 12 -16 13 -15 28 4 28 5 0 -32 0 -32 6 -30 6 -30 56 1 57 1
-3 -37 -4 -38 27 -10 26 -10 27 7 27 6 7 11 8 11 0 44 0 43 16 -6 16 -6 23 -6
23 -6 7 21 6 20 -16 56 -17 56 -21 9 -22 8 15 5 15 6 25 -2 25 -2 3 72 3 71
-65 7 -65 7 -3 27 -3 26 -27 3 -27 3 -10 -20z"/>
</g>
</svg>
