<?xml version="1.0" standalone="no"?>
<!DOCTYPE svg PUBLIC "-//W3C//DTD SVG 20010904//EN"
 "http://www.w3.org/TR/2001/REC-SVG-20010904/DTD/svg10.dtd">
<svg version="1.0" xmlns="http://www.w3.org/2000/svg"
 width="42.000000pt" height="43.000000pt" viewBox="0 0 42.000000 43.000000"
 preserveAspectRatio="xMidYMid meet">
<metadata>
Created by potrace 1.16, written by Peter Selinger 2001-2019
</metadata>
<g transform="translate(0.000000,43.000000) scale(0.100000,-0.100000)"
fill="#000000" stroke="none">
<path d="M231 421 l-13 -9 6 -18 5 -19 -19 -25 -20 -25 -15 20 -16 20 7 29 6
29 -47 -6 -48 -7 -29 0 -29 0 3 -72 3 -73 40 -6 40 -5 -15 -7 -15 -6 -35 -3
-35 -3 -4 -25 -3 -25 12 -52 11 -52 50 6 49 6 0 -29 0 -30 20 -17 20 -17 31 0
31 0 11 30 12 30 36 6 36 6 13 8 13 8 -15 49 -15 48 4 10 4 11 32 -4 32 -4 18
20 18 20 -3 34 -3 33 -25 1 -26 0 -12 8 -12 7 0 44 0 44 -17 5 -18 5 -30 5
-30 6 -14 -9z"/>
</g>
</svg>
