<?xml version="1.0" standalone="no"?>
<!DOCTYPE svg PUBLIC "-//W3C//DTD SVG 20010904//EN"
 "http://www.w3.org/TR/2001/REC-SVG-20010904/DTD/svg10.dtd">
<svg version="1.0" xmlns="http://www.w3.org/2000/svg"
 width="39.000000pt" height="32.000000pt" viewBox="0 0 39.000000 32.000000"
 preserveAspectRatio="xMidYMid meet">
<metadata>
Created by potrace 1.16, written by Peter Selinger 2001-2019
</metadata>
<g transform="translate(0.000000,32.000000) scale(0.100000,-0.100000)"
fill="#000000" stroke="none">
<path d="M260 277 l0 -43 -13 -18 -13 -18 -20 4 -19 3 -1 45 0 45 -57 3 -57 3
0 -66 0 -66 -38 3 -37 3 -3 -32 -3 -33 25 0 26 0 6 -27 6 -28 10 -28 11 -28
61 3 61 3 0 35 0 35 18 3 18 4 13 -12 14 -11 -5 -18 -5 -19 19 -5 18 -6 45 -6
45 -7 3 60 3 60 -13 8 -13 8 -28 -3 -27 -3 -6 17 -7 17 14 9 14 9 33 -5 32 -6
0 46 0 46 -10 19 -10 18 -31 11 -32 11 -23 0 -24 0 0 -43z"/>
</g>
</svg>
