<?xml version="1.0" standalone="no"?>
<!DOCTYPE svg PUBLIC "-//W3C//DTD SVG 20010904//EN"
 "http://www.w3.org/TR/2001/REC-SVG-20010904/DTD/svg10.dtd">
<svg version="1.0" xmlns="http://www.w3.org/2000/svg"
 width="30.000000pt" height="34.000000pt" viewBox="0 0 30.000000 34.000000"
 preserveAspectRatio="xMidYMid meet">
<metadata>
Created by potrace 1.16, written by Peter Selinger 2001-2019
</metadata>
<g transform="translate(0.000000,34.000000) scale(0.100000,-0.100000)"
fill="#000000" stroke="none">
<path d="M194 317 l6 -27 -15 -36 -14 -35 -38 3 -38 3 0 45 0 45 -47 3 -48 3
0 -38 0 -38 8 -13 9 -13 16 7 17 6 15 -12 15 -12 0 -28 0 -28 -12 -10 -13 -10
-25 -4 -25 -3 -3 -51 -3 -51 41 -6 40 -5 19 5 19 5 -8 29 -9 30 6 15 5 14 28
0 28 0 11 -14 12 -14 -6 -36 -7 -36 16 -6 16 -6 43 6 42 6 0 159 0 159 -15 0
-15 0 -39 8 -39 7 7 -26z"/>
</g>
</svg>
