<?xml version="1.0" standalone="no"?>
<!DOCTYPE svg PUBLIC "-//W3C//DTD SVG 20010904//EN"
 "http://www.w3.org/TR/2001/REC-SVG-20010904/DTD/svg10.dtd">
<svg version="1.0" xmlns="http://www.w3.org/2000/svg"
 width="34.000000pt" height="50.000000pt" viewBox="0 0 34.000000 50.000000"
 preserveAspectRatio="xMidYMid meet">
<metadata>
Created by potrace 1.16, written by Peter Selinger 2001-2019
</metadata>
<g transform="translate(0.000000,50.000000) scale(0.100000,-0.100000)"
fill="#000000" stroke="none">
<path d="M118 463 l-3 -38 -52 -3 -53 -3 0 -65 0 -64 29 0 29 0 16 -6 16 -6 0
-14 0 -13 -19 -11 -20 -10 -30 0 -31 0 0 -34 0 -34 6 -31 6 -31 44 0 44 0 0
-31 0 -30 10 -20 11 -19 38 0 39 0 12 15 12 15 -4 45 -3 45 12 0 13 0 40 -16
41 -17 10 10 10 10 -3 64 -3 64 -35 0 -35 0 -12 8 -13 8 0 18 0 17 33 -3 32
-4 13 9 13 9 6 52 6 53 -14 9 -14 9 -45 0 -45 0 -13 8 -13 9 7 16 6 17 -12 15
-12 15 -34 0 -33 0 -3 -37z"/>
</g>
</svg>
