<?xml version="1.0" standalone="no"?>
<!DOCTYPE svg PUBLIC "-//W3C//DTD SVG 20010904//EN"
 "http://www.w3.org/TR/2001/REC-SVG-20010904/DTD/svg10.dtd">
<svg version="1.0" xmlns="http://www.w3.org/2000/svg"
 width="32.000000pt" height="48.000000pt" viewBox="0 0 32.000000 48.000000"
 preserveAspectRatio="xMidYMid meet">
<metadata>
Created by potrace 1.16, written by Peter Selinger 2001-2019
</metadata>
<g transform="translate(0.000000,48.000000) scale(0.100000,-0.100000)"
fill="#000000" stroke="none">
<path d="M118 443 l-3 -38 -52 -3 -53 -3 0 -55 0 -54 29 0 29 0 16 -6 16 -6 0
-24 0 -23 -19 -11 -20 -10 -30 0 -31 0 0 -24 0 -23 6 -32 7 -31 48 0 49 0 -6
-29 -6 -29 11 -21 12 -21 28 0 29 0 12 15 13 15 -6 45 -7 45 26 0 25 0 35 -15
35 -14 5 13 5 14 -3 48 -3 49 -37 -3 -37 -3 -16 24 -15 24 6 17 7 17 24 -6 25
-6 18 6 19 6 7 46 7 45 -14 9 -14 9 -45 0 -45 0 -13 9 -14 8 3 19 4 19 -8 13
-8 12 -24 0 -24 0 -3 -37z"/>
</g>
</svg>
