<?xml version="1.0" standalone="no"?>
<!DOCTYPE svg PUBLIC "-//W3C//DTD SVG 20010904//EN"
 "http://www.w3.org/TR/2001/REC-SVG-20010904/DTD/svg10.dtd">
<svg version="1.0" xmlns="http://www.w3.org/2000/svg"
 width="53.000000pt" height="41.000000pt" viewBox="0 0 53.000000 41.000000"
 preserveAspectRatio="xMidYMid meet">
<metadata>
Created by potrace 1.16, written by Peter Selinger 2001-2019
</metadata>
<g transform="translate(0.000000,41.000000) scale(0.100000,-0.100000)"
fill="#000000" stroke="none">
<path d="M215 398 l-6 -14 3 -24 3 -25 -51 -3 -51 -3 -6 -51 -6 -51 -12 -8
-12 -7 -33 5 -33 5 -7 -26 -6 -26 16 -25 16 -25 40 0 40 0 0 -55 0 -54 34 -6
33 -7 24 4 24 3 1 39 1 39 18 13 18 13 7 -4 7 -5 6 -27 6 -28 60 -18 60 -19
10 7 11 6 0 45 0 44 33 0 34 0 16 18 17 19 0 24 0 25 -12 12 -12 12 -44 0 -43
0 6 54 7 55 -58 3 -59 3 -5 35 -5 35 -43 3 -42 3 -5 -13z"/>
</g>
</svg>
