<?xml version="1.0" standalone="no"?>
<!DOCTYPE svg PUBLIC "-//W3C//DTD SVG 20010904//EN"
 "http://www.w3.org/TR/2001/REC-SVG-20010904/DTD/svg10.dtd">
<svg version="1.0" xmlns="http://www.w3.org/2000/svg"
 width="51.000000pt" height="39.000000pt" viewBox="0 0 51.000000 39.000000"
 preserveAspectRatio="xMidYMid meet">
<metadata>
Created by potrace 1.16, written by Peter Selinger 2001-2019
</metadata>
<g transform="translate(0.000000,39.000000) scale(0.100000,-0.100000)"
fill="#000000" stroke="none">
<path d="M219 383 l-2 -8 -1 -30 -1 -30 -51 -3 -51 -3 -6 -51 -6 -51 -13 -9
-13 -8 -31 5 -32 5 -6 -16 -6 -17 15 -24 16 -24 37 3 37 3 3 -57 3 -57 34 -7
35 -6 16 6 16 6 -7 29 -6 30 21 21 21 21 16 -3 17 -3 8 -30 7 -31 48 -14 48
-14 10 0 10 -1 5 50 5 50 28 -3 29 -4 19 18 19 17 0 17 0 18 -14 12 -15 12
-38 -3 -38 -4 2 58 2 57 -54 0 -54 0 -8 13 -8 12 0 25 0 25 -32 3 -33 3 -1 -8z"/>
</g>
</svg>
