<?xml version="1.0" standalone="no"?>
<!DOCTYPE svg PUBLIC "-//W3C//DTD SVG 20010904//EN"
 "http://www.w3.org/TR/2001/REC-SVG-20010904/DTD/svg10.dtd">
<svg version="1.0" xmlns="http://www.w3.org/2000/svg"
 width="33.000000pt" height="48.000000pt" viewBox="0 0 33.000000 48.000000"
 preserveAspectRatio="xMidYMid meet">
<metadata>
Created by potrace 1.16, written by Peter Selinger 2001-2019
</metadata>
<g transform="translate(0.000000,48.000000) scale(0.100000,-0.100000)"
fill="#000000" stroke="none">
<path d="M125 469 l-7 -10 6 -24 6 -23 -16 -6 -16 -6 -43 0 -44 0 -6 -44 -7
-45 4 -13 5 -13 37 3 37 4 15 -12 14 -12 0 -18 0 -17 -20 -18 -19 -17 -26 5
-27 5 -3 -12 -3 -11 -5 -45 -4 -45 48 3 49 4 0 -40 0 -40 30 -12 31 -13 20 19
20 18 -3 46 -3 45 30 -4 30 -3 17 -9 17 -9 15 6 15 6 7 45 7 45 -14 9 -14 9
-13 -5 -13 -5 -20 11 -20 10 3 27 3 27 30 0 30 0 3 59 3 58 -54 -6 -54 -7 -12
15 -13 15 5 13 4 13 -9 18 -9 17 -19 0 -19 0 -6 -11z"/>
</g>
</svg>
