<?xml version="1.0" standalone="no"?>
<!DOCTYPE svg PUBLIC "-//W3C//DTD SVG 20010904//EN"
 "http://www.w3.org/TR/2001/REC-SVG-20010904/DTD/svg10.dtd">
<svg version="1.0" xmlns="http://www.w3.org/2000/svg"
 width="47.000000pt" height="49.000000pt" viewBox="0 0 47.000000 49.000000"
 preserveAspectRatio="xMidYMid meet">
<metadata>
Created by potrace 1.16, written by Peter Selinger 2001-2019
</metadata>
<g transform="translate(0.000000,49.000000) scale(0.100000,-0.100000)"
fill="#000000" stroke="none">
<path d="M203 483 l-13 -5 0 -34 0 -34 -60 0 -60 0 0 -54 0 -55 -32 -3 -33 -3
-3 -35 -4 -34 18 -13 18 -13 28 0 28 0 -6 -55 -7 -55 35 0 34 0 11 -11 11 -11
-5 -35 -6 -34 54 3 54 3 9 38 10 37 36 0 36 0 17 12 16 13 3 45 3 45 25 3 25
4 13 10 12 10 0 38 0 38 -12 10 -13 10 -25 4 -25 3 -3 42 -3 42 -47 6 -47 7
-18 5 -18 5 7 20 6 20 -13 9 -14 9 -15 -1 -15 -1 -12 -5z"/>
</g>
</svg>
