<?xml version="1.0" standalone="no"?>
<!DOCTYPE svg PUBLIC "-//W3C//DTD SVG 20010904//EN"
 "http://www.w3.org/TR/2001/REC-SVG-20010904/DTD/svg10.dtd">
<svg version="1.0" xmlns="http://www.w3.org/2000/svg"
 width="42.000000pt" height="40.000000pt" viewBox="0 0 42.000000 40.000000"
 preserveAspectRatio="xMidYMid meet">
<metadata>
Created by potrace 1.16, written by Peter Selinger 2001-2019
</metadata>
<g transform="translate(0.000000,40.000000) scale(0.100000,-0.100000)"
fill="#000000" stroke="none">
<path d="M84 353 l6 -48 -8 -11 -7 -10 -35 0 -35 1 -3 -37 -3 -38 21 0 20 0
11 -27 10 -28 6 -46 5 -47 51 2 51 1 0 -30 1 -30 34 -3 34 -3 23 5 23 6 3 38
3 37 46 -3 47 -4 7 12 7 11 -18 65 -17 64 -18 0 -19 0 0 10 0 10 23 -5 23 -6
16 18 15 18 6 63 5 62 -170 0 -171 0 7 -47z"/>
</g>
</svg>
