<?xml version="1.0" standalone="no"?>
<!DOCTYPE svg PUBLIC "-//W3C//DTD SVG 20010904//EN"
 "http://www.w3.org/TR/2001/REC-SVG-20010904/DTD/svg10.dtd">
<svg version="1.0" xmlns="http://www.w3.org/2000/svg"
 width="40.000000pt" height="38.000000pt" viewBox="0 0 40.000000 38.000000"
 preserveAspectRatio="xMidYMid meet">
<metadata>
Created by potrace 1.16, written by Peter Selinger 2001-2019
</metadata>
<g transform="translate(0.000000,38.000000) scale(0.100000,-0.100000)"
fill="#000000" stroke="none">
<path d="M85 340 l7 -39 -7 -21 -7 -21 -36 3 -37 3 -3 -27 -3 -26 22 -4 23 -3
17 -59 18 -58 -5 -12 -4 -11 52 0 53 0 0 -30 0 -30 24 -3 23 -4 23 6 24 6 3
38 3 37 50 0 50 0 0 10 0 10 -14 53 -13 52 -19 0 -19 0 0 21 0 21 25 -4 24 -5
15 16 14 16 4 53 3 52 -158 0 -159 0 7 -40z"/>
</g>
</svg>
