<?xml version="1.0" standalone="no"?>
<!DOCTYPE svg PUBLIC "-//W3C//DTD SVG 20010904//EN"
 "http://www.w3.org/TR/2001/REC-SVG-20010904/DTD/svg10.dtd">
<svg version="1.0" xmlns="http://www.w3.org/2000/svg"
 width="40.000000pt" height="40.000000pt" viewBox="0 0 40.000000 40.000000"
 preserveAspectRatio="xMidYMid meet">
<metadata>
Created by potrace 1.16, written by Peter Selinger 2001-2019
</metadata>
<g transform="translate(0.000000,40.000000) scale(0.100000,-0.100000)"
fill="#000000" stroke="none">
<path d="M88 349 l-3 -52 -34 -2 -34 -3 -8 -13 -9 -14 0 -25 0 -25 9 -13 8
-14 24 4 24 3 9 -62 9 -61 53 5 53 6 3 -39 3 -39 33 -3 33 -3 15 12 14 11 0
29 0 29 51 0 52 0 -7 38 -6 37 -10 38 -11 37 -19 0 -19 0 -5 9 -6 9 6 16 6 16
33 0 33 0 6 16 6 16 0 45 0 45 -32 -7 -33 -6 -27 -5 -28 -6 0 -24 0 -25 -32 3
-33 3 0 30 0 30 -62 3 -62 3 -3 -52z"/>
</g>
</svg>
