<?xml version="1.0" standalone="no"?>
<!DOCTYPE svg PUBLIC "-//W3C//DTD SVG 20010904//EN"
 "http://www.w3.org/TR/2001/REC-SVG-20010904/DTD/svg10.dtd">
<svg version="1.0" xmlns="http://www.w3.org/2000/svg"
 width="38.000000pt" height="38.000000pt" viewBox="0 0 38.000000 38.000000"
 preserveAspectRatio="xMidYMid meet">
<metadata>
Created by potrace 1.16, written by Peter Selinger 2001-2019
</metadata>
<g transform="translate(0.000000,38.000000) scale(0.100000,-0.100000)"
fill="#000000" stroke="none">
<path d="M88 328 l-3 -53 -20 -1 -20 -2 -17 -1 -17 -1 -6 -20 -6 -20 6 -19 6
-20 27 2 27 2 10 -60 10 -60 56 3 56 3 -1 -38 -1 -38 23 -3 23 -4 15 12 14 12
0 29 0 29 13 1 12 2 39 -3 39 -2 -7 29 -7 28 -10 38 -10 38 -10 -7 -10 -6 -14
12 -15 12 0 19 0 18 16 16 16 16 20 -7 20 -6 9 13 9 14 0 36 0 36 -42 -8 -43
-8 -8 -1 -8 0 2 -12 1 -13 -1 -13 -1 -13 -42 3 -43 3 0 30 -1 30 -51 3 -52 3
-3 -53z"/>
</g>
</svg>
