<?xml version="1.0" standalone="no"?>
<!DOCTYPE svg PUBLIC "-//W3C//DTD SVG 20010904//EN"
 "http://www.w3.org/TR/2001/REC-SVG-20010904/DTD/svg10.dtd">
<svg version="1.0" xmlns="http://www.w3.org/2000/svg"
 width="40.000000pt" height="32.000000pt" viewBox="0 0 40.000000 32.000000"
 preserveAspectRatio="xMidYMid meet">
<metadata>
Created by potrace 1.16, written by Peter Selinger 2001-2019
</metadata>
<g transform="translate(0.000000,32.000000) scale(0.100000,-0.100000)"
fill="#000000" stroke="none">
<path d="M10 255 l0 -65 34 0 35 0 6 -11 7 -10 -6 -25 -7 -25 -21 7 -20 6 -9
-13 -9 -14 0 -32 0 -33 -10 0 -10 0 0 -20 0 -20 63 0 62 1 19 14 19 14 -6 31
-6 30 14 0 14 0 3 -27 3 -28 45 -12 45 -12 22 -6 21 -7 5 19 5 18 7 48 6 47
24 0 23 0 6 16 6 16 0 14 0 14 -25 0 -24 0 -16 30 -15 29 0 36 0 35 -47 0 -48
0 -12 -8 -11 -7 -4 -30 -3 -30 -27 -3 -28 -3 0 34 0 35 -16 6 -16 6 -49 0 -49
0 0 -65z"/>
</g>
</svg>
