<?xml version="1.0" standalone="no"?>
<!DOCTYPE svg PUBLIC "-//W3C//DTD SVG 20010904//EN"
 "http://www.w3.org/TR/2001/REC-SVG-20010904/DTD/svg10.dtd">
<svg version="1.0" xmlns="http://www.w3.org/2000/svg"
 width="38.000000pt" height="30.000000pt" viewBox="0 0 38.000000 30.000000"
 preserveAspectRatio="xMidYMid meet">
<metadata>
Created by potrace 1.16, written by Peter Selinger 2001-2019
</metadata>
<g transform="translate(0.000000,30.000000) scale(0.100000,-0.100000)"
fill="#000000" stroke="none">
<path d="M10 246 l0 -55 37 -3 38 -3 3 -18 4 -19 -7 -25 -6 -25 -24 4 -24 5
-5 -14 -6 -15 0 -29 0 -29 -10 0 -10 0 0 -10 0 -10 53 0 52 1 18 13 17 13 -6
32 -7 33 29 -4 29 -3 0 -25 0 -25 47 -12 47 -11 10 -7 10 -6 5 23 4 23 9 45 9
45 19 -2 20 -2 7 12 8 12 0 8 0 7 -25 0 -24 0 -16 30 -15 29 0 36 0 35 -37 0
-38 0 -14 -9 -13 -9 6 -19 6 -20 -14 -12 -15 -12 -33 3 -33 3 3 29 3 29 -13 8
-13 9 -42 0 -43 0 0 -54z"/>
</g>
</svg>
