<?xml version="1.0" standalone="no"?>
<!DOCTYPE svg PUBLIC "-//W3C//DTD SVG 20010904//EN"
 "http://www.w3.org/TR/2001/REC-SVG-20010904/DTD/svg10.dtd">
<svg version="1.0" xmlns="http://www.w3.org/2000/svg"
 width="49.000000pt" height="33.000000pt" viewBox="0 0 49.000000 33.000000"
 preserveAspectRatio="xMidYMid meet">
<metadata>
Created by potrace 1.16, written by Peter Selinger 2001-2019
</metadata>
<g transform="translate(0.000000,33.000000) scale(0.100000,-0.100000)"
fill="#000000" stroke="none">
<path d="M90 270 l0 -60 -42 2 -43 3 -3 -38 -3 -37 27 -10 27 -11 28 6 27 6 5
-8 5 -8 -14 -40 -14 -40 0 -12 0 -13 53 0 53 0 12 12 12 12 0 24 0 23 23 -3
22 -3 5 -35 5 -35 60 0 60 0 -1 30 -1 30 -4 40 -4 39 35 -2 35 -3 20 15 20 14
-10 29 -10 28 -35 5 -35 5 -3 48 -3 47 -70 0 -70 0 6 -33 7 -33 -15 -13 -15
-12 -9 13 -8 13 0 30 0 30 -67 3 -68 3 0 -61z"/>
</g>
</svg>
