<?xml version="1.0" standalone="no"?>
<!DOCTYPE svg PUBLIC "-//W3C//DTD SVG 20010904//EN"
 "http://www.w3.org/TR/2001/REC-SVG-20010904/DTD/svg10.dtd">
<svg version="1.0" xmlns="http://www.w3.org/2000/svg"
 width="40.000000pt" height="48.000000pt" viewBox="0 0 40.000000 48.000000"
 preserveAspectRatio="xMidYMid meet">
<metadata>
Created by potrace 1.16, written by Peter Selinger 2001-2019
</metadata>
<g transform="translate(0.000000,48.000000) scale(0.100000,-0.100000)"
fill="#000000" stroke="none">
<path d="M149 470 l-13 -9 1 -40 2 -41 -12 -1 -12 -2 -55 -1 -55 -1 0 -60 0
-60 45 0 45 0 2 -15 3 -15 -9 -13 -8 -14 -34 -7 -34 -7 -5 -52 -6 -52 48 0 47
0 8 -12 7 -13 -2 -22 -3 -22 25 -7 26 -6 26 17 26 17 -6 30 -6 31 63 -7 64 -6
14 52 15 53 17 -1 17 -2 6 23 6 23 -4 23 -3 24 -29 -3 -29 -3 -8 13 -9 13 0
42 0 42 -37 6 -38 6 -23 5 -23 5 3 31 3 31 -21 7 -21 8 -14 -8z"/>
</g>
</svg>
