<?xml version="1.0" standalone="no"?>
<!DOCTYPE svg PUBLIC "-//W3C//DTD SVG 20010904//EN"
 "http://www.w3.org/TR/2001/REC-SVG-20010904/DTD/svg10.dtd">
<svg version="1.0" xmlns="http://www.w3.org/2000/svg"
 width="42.000000pt" height="50.000000pt" viewBox="0 0 42.000000 50.000000"
 preserveAspectRatio="xMidYMid meet">
<metadata>
Created by potrace 1.16, written by Peter Selinger 2001-2019
</metadata>
<g transform="translate(0.000000,50.000000) scale(0.100000,-0.100000)"
fill="#000000" stroke="none">
<path d="M150 490 l-15 -9 0 -40 0 -41 -10 -1 -10 0 -55 -2 -55 -2 0 -70 0
-70 42 3 42 2 5 -9 6 -9 -16 -16 -15 -16 -25 0 -25 0 -3 -12 -4 -13 -6 -52 -5
-52 52 -3 52 -3 3 -30 4 -30 11 -7 12 -8 25 0 26 0 22 16 22 15 0 30 0 30 59
-7 58 -6 13 51 12 51 19 0 19 0 6 24 5 23 -3 34 -3 34 -30 -1 -30 -1 -7 11 -8
11 0 42 0 42 -37 6 -38 6 -23 5 -23 5 6 29 7 30 -27 10 -26 10 -7 0 -7 0 -15
-10z"/>
</g>
</svg>
