<?xml version="1.0" standalone="no"?>
<!DOCTYPE svg PUBLIC "-//W3C//DTD SVG 20010904//EN"
 "http://www.w3.org/TR/2001/REC-SVG-20010904/DTD/svg10.dtd">
<svg version="1.0" xmlns="http://www.w3.org/2000/svg"
 width="35.000000pt" height="40.000000pt" viewBox="0 0 35.000000 40.000000"
 preserveAspectRatio="xMidYMid meet">
<metadata>
Created by potrace 1.16, written by Peter Selinger 2001-2019
</metadata>
<g transform="translate(0.000000,40.000000) scale(0.100000,-0.100000)"
fill="#000000" stroke="none">
<path d="M143 388 l-8 -13 0 -30 0 -30 -61 -3 -61 -3 -6 -46 -5 -47 4 -11 5
-11 32 4 33 4 13 -16 13 -15 -4 -18 -4 -18 -26 3 -26 2 -5 -15 -6 -15 -7 -50
-7 -51 59 3 59 3 0 28 0 28 16 9 16 9 21 -15 21 -15 -6 -30 -6 -30 63 2 62 2
9 26 10 25 2 36 2 35 -37 1 -37 1 -16 13 -15 12 0 14 0 13 21 12 21 11 19 -5
19 -5 6 23 5 22 -3 34 -3 34 -45 14 -45 14 -23 9 -24 8 6 17 7 16 -13 9 -13 8
-12 0 -12 0 -8 -12z"/>
</g>
</svg>
