<?xml version="1.0" standalone="no"?>
<!DOCTYPE svg PUBLIC "-//W3C//DTD SVG 20010904//EN"
 "http://www.w3.org/TR/2001/REC-SVG-20010904/DTD/svg10.dtd">
<svg version="1.0" xmlns="http://www.w3.org/2000/svg"
 width="37.000000pt" height="42.000000pt" viewBox="0 0 37.000000 42.000000"
 preserveAspectRatio="xMidYMid meet">
<metadata>
Created by potrace 1.16, written by Peter Selinger 2001-2019
</metadata>
<g transform="translate(0.000000,42.000000) scale(0.100000,-0.100000)"
fill="#000000" stroke="none">
<path d="M141 406 l-12 -14 3 -29 3 -28 -61 -3 -61 -3 -7 -54 -6 -53 6 -17 7
-16 29 6 29 7 14 -12 15 -12 0 -9 0 -9 -29 0 -29 0 -6 -17 -7 -16 -6 -59 -6
-59 69 3 69 3 3 33 3 33 17 -3 17 -3 3 -38 3 -37 70 0 69 0 11 28 11 27 1 45
2 45 -40 3 -40 3 -13 12 -14 11 18 13 17 13 23 -6 23 -6 6 24 6 25 -3 43 -3
44 -35 12 -35 13 -27 5 -28 6 0 24 0 24 -16 6 -16 6 -18 0 -18 0 -11 -14z"/>
</g>
</svg>
