<?xml version="1.0" standalone="no"?>
<!DOCTYPE svg PUBLIC "-//W3C//DTD SVG 20010904//EN"
 "http://www.w3.org/TR/2001/REC-SVG-20010904/DTD/svg10.dtd">
<svg version="1.0" xmlns="http://www.w3.org/2000/svg"
 width="40.000000pt" height="47.000000pt" viewBox="0 0 40.000000 47.000000"
 preserveAspectRatio="xMidYMid meet">
<metadata>
Created by potrace 1.16, written by Peter Selinger 2001-2019
</metadata>
<g transform="translate(0.000000,47.000000) scale(0.100000,-0.100000)"
fill="#000000" stroke="none">
<path d="M214 439 l6 -32 -17 -13 -18 -13 -52 -1 -52 0 -3 -52 -3 -53 -26 3
-26 3 -12 -15 -13 -15 4 -23 3 -23 20 0 20 0 14 -62 14 -62 61 -3 61 -3 0 -25
0 -25 8 -13 8 -12 33 0 34 0 11 14 12 14 -7 26 -6 26 52 0 52 0 -5 14 -6 15
-11 40 -11 41 -12 1 -12 1 -11 -1 -12 -1 -6 24 -6 24 6 17 7 17 30 -6 30 -6
13 11 14 11 0 39 0 38 -16 15 -15 16 -27 6 -27 6 -25 7 -25 8 0 24 0 24 -29 3
-29 4 7 -33z"/>
</g>
</svg>
