<?xml version="1.0" standalone="no"?>
<!DOCTYPE svg PUBLIC "-//W3C//DTD SVG 20010904//EN"
 "http://www.w3.org/TR/2001/REC-SVG-20010904/DTD/svg10.dtd">
<svg version="1.0" xmlns="http://www.w3.org/2000/svg"
 width="40.000000pt" height="33.000000pt" viewBox="0 0 40.000000 33.000000"
 preserveAspectRatio="xMidYMid meet">
<metadata>
Created by potrace 1.16, written by Peter Selinger 2001-2019
</metadata>
<g transform="translate(0.000000,33.000000) scale(0.100000,-0.100000)"
fill="#000000" stroke="none">
<path d="M133 323 l-33 -4 0 -50 0 -49 -45 0 -46 0 -6 -16 -6 -17 10 -16 10
-16 31 0 31 0 12 -12 12 -12 -5 -58 -4 -58 61 5 60 5 -1 32 -2 32 20 7 20 6
12 -12 11 -11 0 -37 0 -37 35 -3 36 -3 23 9 24 9 -2 149 -2 149 -5 4 -4 5 -48
0 -47 1 3 -36 3 -36 -16 -17 -16 -16 -13 0 -12 0 -19 14 -20 14 1 41 1 41 -16
-2 -16 -1 -32 -4z"/>
</g>
</svg>
