<?xml version="1.0" standalone="no"?>
<!DOCTYPE svg PUBLIC "-//W3C//DTD SVG 20010904//EN"
 "http://www.w3.org/TR/2001/REC-SVG-20010904/DTD/svg10.dtd">
<svg version="1.0" xmlns="http://www.w3.org/2000/svg"
 width="31.000000pt" height="41.000000pt" viewBox="0 0 31.000000 41.000000"
 preserveAspectRatio="xMidYMid meet">
<metadata>
Created by potrace 1.16, written by Peter Selinger 2001-2019
</metadata>
<g transform="translate(0.000000,41.000000) scale(0.100000,-0.100000)"
fill="#000000" stroke="none">
<path d="M2 348 l3 -63 35 -1 35 0 0 -25 0 -24 -26 3 -27 3 -11 -66 -12 -66 6
-9 6 -10 44 0 44 0 3 -42 3 -43 42 -3 42 -3 11 22 12 21 -6 31 -6 30 50 -7 50
-7 0 19 0 18 -16 48 -16 48 -19 -5 -19 -5 -11 20 -11 20 6 24 6 24 45 0 45 0
0 55 0 55 -47 0 -48 0 -23 -6 -23 -7 2 -21 1 -21 -1 -12 -1 -13 -25 0 -25 0 6
24 5 23 -16 17 -16 16 -50 0 -50 0 3 -62z"/>
</g>
</svg>
