<?xml version="1.0" standalone="no"?>
<!DOCTYPE svg PUBLIC "-//W3C//DTD SVG 20010904//EN"
 "http://www.w3.org/TR/2001/REC-SVG-20010904/DTD/svg10.dtd">
<svg version="1.0" xmlns="http://www.w3.org/2000/svg"
 width="29.000000pt" height="39.000000pt" viewBox="0 0 29.000000 39.000000"
 preserveAspectRatio="xMidYMid meet">
<metadata>
Created by potrace 1.16, written by Peter Selinger 2001-2019
</metadata>
<g transform="translate(0.000000,39.000000) scale(0.100000,-0.100000)"
fill="#000000" stroke="none">
<path d="M2 338 l3 -53 35 0 35 0 0 -35 0 -35 -27 2 -27 2 -8 -52 -8 -52 0
-10 0 -10 50 -5 50 -5 0 -40 0 -40 32 -3 32 -3 10 20 11 19 -7 33 -6 32 51 -5
52 -5 0 7 0 6 -15 45 -16 46 -21 -1 -22 -1 -10 26 -9 26 7 27 6 26 45 0 45 0
0 45 0 45 -37 0 -38 0 -23 -6 -23 -7 6 -15 5 -15 -5 -18 -6 -19 -36 0 -35 0 5
26 4 25 -14 15 -14 14 -40 0 -40 0 3 -52z"/>
</g>
</svg>
