<?xml version="1.0" standalone="no"?>
<!DOCTYPE svg PUBLIC "-//W3C//DTD SVG 20010904//EN"
 "http://www.w3.org/TR/2001/REC-SVG-20010904/DTD/svg10.dtd">
<svg version="1.0" xmlns="http://www.w3.org/2000/svg"
 width="31.000000pt" height="38.000000pt" viewBox="0 0 31.000000 38.000000"
 preserveAspectRatio="xMidYMid meet">
<metadata>
Created by potrace 1.16, written by Peter Selinger 2001-2019
</metadata>
<g transform="translate(0.000000,38.000000) scale(0.100000,-0.100000)"
fill="#000000" stroke="none">
<path d="M2 333 l3 -48 37 3 37 3 10 -20 11 -20 0 -15 0 -15 -16 -15 -15 -16
-23 0 -23 0 -7 -37 -6 -38 0 -17 0 -18 44 0 45 0 3 -37 3 -38 32 -3 33 -3 20
19 21 20 -3 18 -3 19 49 3 48 3 -6 52 -7 51 -6 9 -5 9 -23 -6 -24 -6 -6 20 -6
20 6 20 6 20 17 1 17 1 20 2 20 1 3 44 3 44 -9 9 -10 10 -55 -7 -55 -7 1 -27
2 -26 -28 -3 -28 -3 -15 12 -15 13 6 23 5 23 -55 0 -56 0 3 -47z"/>
</g>
</svg>
