<?xml version="1.0" standalone="no"?>
<!DOCTYPE svg PUBLIC "-//W3C//DTD SVG 20010904//EN"
 "http://www.w3.org/TR/2001/REC-SVG-20010904/DTD/svg10.dtd">
<svg version="1.0" xmlns="http://www.w3.org/2000/svg"
 width="51.000000pt" height="42.000000pt" viewBox="0 0 51.000000 42.000000"
 preserveAspectRatio="xMidYMid meet">
<metadata>
Created by potrace 1.16, written by Peter Selinger 2001-2019
</metadata>
<g transform="translate(0.000000,42.000000) scale(0.100000,-0.100000)"
fill="#000000" stroke="none">
<path d="M85 388 l7 -33 5 -24 6 -23 -31 7 -31 6 -21 -11 -21 -11 3 -37 3 -37
25 -4 25 -3 7 -12 7 -11 7 -56 6 -57 52 2 51 1 -2 -23 -3 -23 10 -20 11 -19
44 0 44 0 3 38 3 37 25 3 25 2 38 11 37 10 12 44 12 45 17 0 18 0 15 16 16 15
0 40 0 39 -44 0 -44 0 -7 30 -7 30 7 30 7 30 -172 0 -172 0 7 -32z"/>
</g>
</svg>
