<?xml version="1.0" standalone="no"?>
<!DOCTYPE svg PUBLIC "-//W3C//DTD SVG 20010904//EN"
 "http://www.w3.org/TR/2001/REC-SVG-20010904/DTD/svg10.dtd">
<svg version="1.0" xmlns="http://www.w3.org/2000/svg"
 width="40.000000pt" height="33.000000pt" viewBox="0 0 40.000000 33.000000"
 preserveAspectRatio="xMidYMid meet">
<metadata>
Created by potrace 1.16, written by Peter Selinger 2001-2019
</metadata>
<g transform="translate(0.000000,33.000000) scale(0.100000,-0.100000)"
fill="#000000" stroke="none">
<path d="M270 291 l0 -40 -21 -11 -21 -12 -25 7 -24 6 3 37 3 37 -47 3 -48 3
0 -59 0 -59 -6 -6 -7 -6 -17 9 -17 9 -21 -15 -22 -15 0 -9 0 -9 23 -3 22 -3
17 -50 16 -50 -4 -17 -5 -16 55 -7 56 -7 16 6 16 6 -6 16 -6 15 10 20 11 19
14 0 14 0 10 -18 9 -17 -5 -29 -6 -29 63 6 63 7 4 4 4 3 -17 63 -18 62 -23 -5
-23 -4 -5 17 -5 17 6 18 7 17 34 -5 34 -6 8 23 9 22 -5 45 -5 44 -59 3 -59 3
0 -40z"/>
</g>
</svg>
