<?xml version="1.0" standalone="no"?>
<!DOCTYPE svg PUBLIC "-//W3C//DTD SVG 20010904//EN"
 "http://www.w3.org/TR/2001/REC-SVG-20010904/DTD/svg10.dtd">
<svg version="1.0" xmlns="http://www.w3.org/2000/svg"
 width="44.000000pt" height="42.000000pt" viewBox="0 0 44.000000 42.000000"
 preserveAspectRatio="xMidYMid meet">
<metadata>
Created by potrace 1.16, written by Peter Selinger 2001-2019
</metadata>
<g transform="translate(0.000000,42.000000) scale(0.100000,-0.100000)"
fill="#000000" stroke="none">
<path d="M17 355 l5 -60 4 -14 4 -13 31 6 30 6 6 -16 6 -16 -14 -9 -14 -9 -33
0 -33 0 -6 -16 -6 -16 12 -54 12 -54 37 0 37 0 10 -8 10 -7 0 -35 0 -35 52 -3
52 -3 11 21 12 22 -6 23 -6 24 52 3 53 3 3 52 3 53 30 0 30 0 20 10 19 11 0
33 0 34 -14 11 -14 12 -26 -7 -26 -6 -10 27 -10 26 0 25 0 24 -12 0 -13 0 -50
-18 -49 -18 -6 -24 -6 -25 -22 -3 -23 -4 -16 13 -15 13 5 41 6 41 -63 0 -64
-1 5 -60z"/>
</g>
</svg>
