<?xml version="1.0" standalone="no"?>
<!DOCTYPE svg PUBLIC "-//W3C//DTD SVG 20010904//EN"
 "http://www.w3.org/TR/2001/REC-SVG-20010904/DTD/svg10.dtd">
<svg version="1.0" xmlns="http://www.w3.org/2000/svg"
 width="41.000000pt" height="40.000000pt" viewBox="0 0 41.000000 40.000000"
 preserveAspectRatio="xMidYMid meet">
<metadata>
Created by potrace 1.16, written by Peter Selinger 2001-2019
</metadata>
<g transform="translate(0.000000,40.000000) scale(0.100000,-0.100000)"
fill="#000000" stroke="none">
<path d="M90 344 l0 -56 -29 7 -29 6 -16 -16 -16 -16 0 -27 0 -27 8 -12 7 -11
30 -4 30 -3 3 -30 2 -30 5 -22 5 -22 53 -3 52 -3 5 -35 5 -35 37 -3 36 -3 16
23 16 22 0 27 0 27 41 -10 40 -11 11 11 10 10 -8 59 -9 58 -37 3 -36 3 -6 15
-6 16 6 10 7 10 37 -6 38 -6 6 16 6 16 0 49 0 49 -16 0 -16 0 -54 -16 -54 -15
0 -20 0 -19 -24 0 -24 0 -6 16 -6 16 6 24 6 24 -66 0 -66 0 0 -56z"/>
</g>
</svg>
