<?xml version="1.0" standalone="no"?>
<!DOCTYPE svg PUBLIC "-//W3C//DTD SVG 20010904//EN"
 "http://www.w3.org/TR/2001/REC-SVG-20010904/DTD/svg10.dtd">
<svg version="1.0" xmlns="http://www.w3.org/2000/svg"
 width="42.000000pt" height="41.000000pt" viewBox="0 0 42.000000 41.000000"
 preserveAspectRatio="xMidYMid meet">
<metadata>
Created by potrace 1.16, written by Peter Selinger 2001-2019
</metadata>
<g transform="translate(0.000000,41.000000) scale(0.100000,-0.100000)"
fill="#000000" stroke="none">
<path d="M98 358 l-3 -53 -29 2 -29 2 -18 -10 -19 -10 0 -29 0 -29 16 -16 17
-16 26 3 26 3 9 -58 8 -57 54 0 54 0 0 -35 0 -35 24 -11 23 -11 22 11 21 12 0
23 0 24 16 6 16 6 39 0 39 0 0 48 0 47 -6 22 -6 22 -26 3 -25 3 -11 18 -11 18
15 9 14 9 27 -6 27 -5 7 30 6 30 -7 36 -6 36 -5 0 -4 0 -49 -16 -48 -16 -5
-19 -5 -19 -22 0 -21 0 -20 10 -19 11 0 29 0 30 -54 0 -55 0 -3 -52z"/>
</g>
</svg>
