<?xml version="1.0" standalone="no"?>
<!DOCTYPE svg PUBLIC "-//W3C//DTD SVG 20010904//EN"
 "http://www.w3.org/TR/2001/REC-SVG-20010904/DTD/svg10.dtd">
<svg version="1.0" xmlns="http://www.w3.org/2000/svg"
 width="31.000000pt" height="40.000000pt" viewBox="0 0 31.000000 40.000000"
 preserveAspectRatio="xMidYMid meet">
<metadata>
Created by potrace 1.16, written by Peter Selinger 2001-2019
</metadata>
<g transform="translate(0.000000,40.000000) scale(0.100000,-0.100000)"
fill="#000000" stroke="none">
<path d="M2 348 l3 -53 37 2 38 2 6 -25 7 -26 -13 -24 -13 -24 -15 2 -14 3
-14 -45 -14 -45 0 -7 0 -8 38 0 37 0 12 -8 11 -7 4 -34 3 -34 18 -11 17 -11
18 11 17 11 0 24 0 24 10 7 9 7 47 6 47 7 7 44 6 44 -6 20 -7 21 -32 -7 -33
-6 -16 17 -17 16 0 14 0 14 12 7 12 7 35 1 36 1 3 53 3 52 -40 0 -39 0 -16 -6
-16 -6 6 -24 6 -24 -12 -15 -12 -15 -33 0 -33 0 -15 23 -15 23 5 27 5 27 -46
0 -47 0 3 -52z"/>
</g>
</svg>
