<?xml version="1.0" standalone="no"?>
<!DOCTYPE svg PUBLIC "-//W3C//DTD SVG 20010904//EN"
 "http://www.w3.org/TR/2001/REC-SVG-20010904/DTD/svg10.dtd">
<svg version="1.0" xmlns="http://www.w3.org/2000/svg"
 width="40.000000pt" height="31.000000pt" viewBox="0 0 40.000000 31.000000"
 preserveAspectRatio="xMidYMid meet">
<metadata>
Created by potrace 1.16, written by Peter Selinger 2001-2019
</metadata>
<g transform="translate(0.000000,31.000000) scale(0.100000,-0.100000)"
fill="#000000" stroke="none">
<path d="M78 303 l-48 -4 0 -49 0 -49 12 -8 13 -8 25 0 25 0 3 -30 4 -29 -18
-13 -18 -13 -38 0 -38 0 0 -15 0 -16 14 -34 15 -35 49 0 49 0 18 20 18 19 -6
21 -5 20 9 5 9 6 19 -11 20 -10 3 -27 3 -28 47 -9 48 -9 4 4 4 4 -10 47 -11
46 6 16 6 16 41 0 41 0 6 15 5 16 -6 7 -7 6 -32 1 -32 0 -3 58 -3 59 -42 -7
-42 -7 -7 -4 -6 -4 5 -20 5 -20 -27 -10 -28 -11 -19 7 -19 6 -9 23 -9 23 6 21
5 21 -3 -2 -4 -2 -47 -3z"/>
</g>
</svg>
