<?xml version="1.0" standalone="no"?>
<!DOCTYPE svg PUBLIC "-//W3C//DTD SVG 20010904//EN"
 "http://www.w3.org/TR/2001/REC-SVG-20010904/DTD/svg10.dtd">
<svg version="1.0" xmlns="http://www.w3.org/2000/svg"
 width="42.000000pt" height="33.000000pt" viewBox="0 0 42.000000 33.000000"
 preserveAspectRatio="xMidYMid meet">
<metadata>
Created by potrace 1.16, written by Peter Selinger 2001-2019
</metadata>
<g transform="translate(0.000000,33.000000) scale(0.100000,-0.100000)"
fill="#000000" stroke="none">
<path d="M78 323 l-48 -4 0 -58 0 -59 14 -12 15 -11 23 3 23 3 3 -19 4 -20
-18 -13 -18 -13 -38 0 -38 0 0 -25 0 -26 14 -34 15 -35 59 0 59 0 16 18 17 19
0 22 0 23 13 -4 12 -5 5 -28 5 -29 25 -7 25 -7 39 -1 38 -1 -8 38 -7 37 -1 25
-1 25 45 5 45 5 3 27 3 27 -24 6 -23 6 -15 -3 -14 -3 -3 58 -3 57 -27 -1 -27
-1 -30 -7 -30 -6 0 -24 0 -24 -20 -7 -20 -7 -17 9 -18 9 0 39 0 40 -12 -2 -13
-2 -47 -3z"/>
</g>
</svg>
