<?xml version="1.0" standalone="no"?>
<!DOCTYPE svg PUBLIC "-//W3C//DTD SVG 20010904//EN"
 "http://www.w3.org/TR/2001/REC-SVG-20010904/DTD/svg10.dtd">
<svg version="1.0" xmlns="http://www.w3.org/2000/svg"
 width="49.000000pt" height="43.000000pt" viewBox="0 0 49.000000 43.000000"
 preserveAspectRatio="xMidYMid meet">
<metadata>
Created by potrace 1.16, written by Peter Selinger 2001-2019
</metadata>
<g transform="translate(0.000000,43.000000) scale(0.100000,-0.100000)"
fill="#000000" stroke="none">
<path d="M86 361 l6 -70 -21 6 -21 5 -25 -6 -26 -7 3 -27 3 -27 40 -5 40 -5 0
-60 0 -60 48 -3 47 -3 0 -33 0 -33 18 -16 19 -17 29 0 30 0 16 13 16 12 4 19
3 19 40 11 39 11 11 65 10 65 30 3 30 4 7 11 8 12 0 26 0 27 -15 12 -15 13
-35 -6 -35 -6 0 55 0 55 -62 -3 -63 -3 -1 -33 -1 -33 -11 -11 -11 -11 -15 6
-16 6 0 30 0 30 -17 9 -18 9 -48 7 -48 6 7 -69z"/>
</g>
</svg>
