<?xml version="1.0" standalone="no"?>
<!DOCTYPE svg PUBLIC "-//W3C//DTD SVG 20010904//EN"
 "http://www.w3.org/TR/2001/REC-SVG-20010904/DTD/svg10.dtd">
<svg version="1.0" xmlns="http://www.w3.org/2000/svg"
 width="39.000000pt" height="41.000000pt" viewBox="0 0 39.000000 41.000000"
 preserveAspectRatio="xMidYMid meet">
<metadata>
Created by potrace 1.16, written by Peter Selinger 2001-2019
</metadata>
<g transform="translate(0.000000,41.000000) scale(0.100000,-0.100000)"
fill="#000000" stroke="none">
<path d="M275 387 l7 -25 -12 -21 -11 -21 -18 0 -19 0 -12 15 -12 15 5 25 4
26 -61 -3 -61 -3 -1 -40 0 -40 -2 -18 -2 -18 -20 6 -20 6 -20 -6 -20 -6 0 -23
0 -22 12 -12 12 -12 22 0 22 0 6 -22 6 -23 0 -35 0 -36 35 4 35 4 25 -6 25 -6
0 -40 0 -39 19 -6 18 -5 17 6 16 6 6 22 5 22 -3 15 -3 14 53 3 52 3 0 66 0 65
-29 -5 -28 -6 -12 12 -11 11 0 29 0 29 26 -5 25 -4 14 13 13 14 7 40 7 41 -5
5 -5 5 -57 6 -56 6 6 -26z"/>
</g>
</svg>
