<?xml version="1.0" standalone="no"?>
<!DOCTYPE svg PUBLIC "-//W3C//DTD SVG 20010904//EN"
 "http://www.w3.org/TR/2001/REC-SVG-20010904/DTD/svg10.dtd">
<svg version="1.0" xmlns="http://www.w3.org/2000/svg"
 width="44.000000pt" height="34.000000pt" viewBox="0 0 44.000000 34.000000"
 preserveAspectRatio="xMidYMid meet">
<metadata>
Created by potrace 1.16, written by Peter Selinger 2001-2019
</metadata>
<g transform="translate(0.000000,34.000000) scale(0.100000,-0.100000)"
fill="#000000" stroke="none">
<path d="M213 310 l6 -30 -23 -15 -23 -15 -17 6 -17 6 7 20 6 19 -12 14 -12
15 -49 0 -49 0 0 -52 0 -53 10 -15 9 -15 38 0 38 0 3 -16 3 -17 -16 -16 -16
-16 -50 0 -49 0 0 -25 0 -25 13 -41 12 -40 70 3 70 3 0 32 1 32 6 7 7 6 16 -5
15 -6 0 -24 0 -25 31 -6 32 -6 42 0 43 0 13 50 13 50 14 0 15 0 13 17 13 18 1
30 0 30 -9 13 -8 14 -34 -4 -34 -3 -3 51 -3 52 -31 6 -30 6 -40 0 -40 0 5 -30z"/>
</g>
</svg>
