<?xml version="1.0" standalone="no"?>
<!DOCTYPE svg PUBLIC "-//W3C//DTD SVG 20010904//EN"
 "http://www.w3.org/TR/2001/REC-SVG-20010904/DTD/svg10.dtd">
<svg version="1.0" xmlns="http://www.w3.org/2000/svg"
 width="42.000000pt" height="32.000000pt" viewBox="0 0 42.000000 32.000000"
 preserveAspectRatio="xMidYMid meet">
<metadata>
Created by potrace 1.16, written by Peter Selinger 2001-2019
</metadata>
<g transform="translate(0.000000,32.000000) scale(0.100000,-0.100000)"
fill="#000000" stroke="none">
<path d="M216 291 l6 -29 -26 -17 -26 -17 -26 6 -25 7 3 22 2 22 -7 13 -8 12
-40 0 -39 0 0 -42 0 -43 9 -14 9 -14 39 -1 38 -1 3 -26 3 -26 -16 -17 -16 -16
-50 0 -49 0 0 -17 0 -18 13 -35 12 -35 60 0 60 0 -3 26 -3 26 16 17 16 16 20
-10 19 -11 0 -23 0 -24 31 -6 31 -6 33 0 32 0 15 53 15 52 15 -3 15 -2 13 24
13 24 -7 26 -6 25 -38 -2 -37 -2 -3 51 -3 52 -31 6 -30 6 -29 0 -28 0 5 -29z"/>
</g>
</svg>
