<?xml version="1.0" standalone="no"?>
<!DOCTYPE svg PUBLIC "-//W3C//DTD SVG 20010904//EN"
 "http://www.w3.org/TR/2001/REC-SVG-20010904/DTD/svg10.dtd">
<svg version="1.0" xmlns="http://www.w3.org/2000/svg"
 width="48.000000pt" height="41.000000pt" viewBox="0 0 48.000000 41.000000"
 preserveAspectRatio="xMidYMid meet">
<metadata>
Created by potrace 1.16, written by Peter Selinger 2001-2019
</metadata>
<g transform="translate(0.000000,41.000000) scale(0.100000,-0.100000)"
fill="#000000" stroke="none">
<path d="M87 404 l-7 -7 0 -47 0 -46 -12 -12 -12 -12 -28 0 -28 0 0 -30 0 -30
19 0 19 0 11 -44 11 -45 0 -26 0 -26 53 2 52 3 -3 -26 -3 -25 17 -17 16 -17
47 3 46 3 3 21 3 20 59 18 60 18 0 27 0 26 6 36 6 37 29 6 29 6 0 34 0 34 -15
12 -15 12 -24 -4 -25 -5 -3 51 -3 51 -151 3 -150 3 -7 -7z"/>
</g>
</svg>
