<?xml version="1.0" standalone="no"?>
<!DOCTYPE svg PUBLIC "-//W3C//DTD SVG 20010904//EN"
 "http://www.w3.org/TR/2001/REC-SVG-20010904/DTD/svg10.dtd">
<svg version="1.0" xmlns="http://www.w3.org/2000/svg"
 width="46.000000pt" height="39.000000pt" viewBox="0 0 46.000000 39.000000"
 preserveAspectRatio="xMidYMid meet">
<metadata>
Created by potrace 1.16, written by Peter Selinger 2001-2019
</metadata>
<g transform="translate(0.000000,39.000000) scale(0.100000,-0.100000)"
fill="#000000" stroke="none">
<path d="M87 384 l-7 -7 0 -47 0 -48 -16 -13 -17 -14 -23 3 -24 3 0 -20 0 -21
19 0 19 0 13 -52 14 -53 -3 -19 -2 -19 47 5 48 6 12 -5 13 -5 -10 -18 -10 -19
6 -15 6 -16 23 -6 23 -6 23 4 24 3 3 21 3 20 58 18 59 17 -1 12 -1 12 8 51 8
52 29 6 29 6 0 24 0 24 -14 11 -14 12 -25 -7 -26 -6 -3 54 -3 53 -141 3 -140
3 -7 -7z"/>
</g>
</svg>
