<?xml version="1.0" standalone="no"?>
<!DOCTYPE svg PUBLIC "-//W3C//DTD SVG 20010904//EN"
 "http://www.w3.org/TR/2001/REC-SVG-20010904/DTD/svg10.dtd">
<svg version="1.0" xmlns="http://www.w3.org/2000/svg"
 width="40.000000pt" height="46.000000pt" viewBox="0 0 40.000000 46.000000"
 preserveAspectRatio="xMidYMid meet">
<metadata>
Created by potrace 1.16, written by Peter Selinger 2001-2019
</metadata>
<g transform="translate(0.000000,46.000000) scale(0.100000,-0.100000)"
fill="#000000" stroke="none">
<path d="M138 423 l-3 -38 -62 -3 -61 -3 -4 -50 -3 -49 3 -10 4 -10 9 6 10 6
23 -6 24 -6 5 -14 6 -14 -6 -21 -5 -21 -24 6 -23 6 -5 -24 -5 -23 -6 -37 -6
-38 51 0 50 0 0 -30 0 -29 19 -11 20 -10 31 0 32 0 5 20 5 20 27 7 26 6 27 13
27 14 7 38 7 37 8 15 8 15 18 0 18 0 3 43 3 44 -30 -7 -31 -7 -10 27 -10 26 0
28 0 29 -15 12 -14 12 -43 12 -43 13 -10 21 -10 22 -22 0 -22 0 -3 -37z"/>
</g>
</svg>
