<?xml version="1.0" standalone="no"?>
<!DOCTYPE svg PUBLIC "-//W3C//DTD SVG 20010904//EN"
 "http://www.w3.org/TR/2001/REC-SVG-20010904/DTD/svg10.dtd">
<svg version="1.0" xmlns="http://www.w3.org/2000/svg"
 width="36.000000pt" height="40.000000pt" viewBox="0 0 36.000000 40.000000"
 preserveAspectRatio="xMidYMid meet">
<metadata>
Created by potrace 1.16, written by Peter Selinger 2001-2019
</metadata>
<g transform="translate(0.000000,40.000000) scale(0.100000,-0.100000)"
fill="#000000" stroke="none">
<path d="M135 388 l-4 -13 -3 -25 -3 -25 -40 -3 -40 -2 -22 -5 -23 -5 0 -59 0
-59 14 -11 14 -11 32 2 33 3 5 -14 4 -13 -29 6 -30 7 -12 -15 -12 -15 -2 -63
-2 -63 53 -3 54 -3 14 12 15 12 -3 31 -3 31 23 3 22 3 0 -24 0 -25 13 -9 12
-9 53 -13 53 -13 13 11 14 11 6 41 6 40 -11 20 -10 20 -28 -6 -29 -6 -16 16
-16 16 0 13 0 13 24 -4 24 -5 21 21 21 21 0 44 0 45 -12 8 -13 8 -45 10 -45
10 0 25 0 25 -43 3 -42 3 -5 -13z"/>
</g>
</svg>
