<?xml version="1.0" standalone="no"?>
<!DOCTYPE svg PUBLIC "-//W3C//DTD SVG 20010904//EN"
 "http://www.w3.org/TR/2001/REC-SVG-20010904/DTD/svg10.dtd">
<svg version="1.0" xmlns="http://www.w3.org/2000/svg"
 width="31.000000pt" height="50.000000pt" viewBox="0 0 31.000000 50.000000"
 preserveAspectRatio="xMidYMid meet">
<metadata>
Created by potrace 1.16, written by Peter Selinger 2001-2019
</metadata>
<g transform="translate(0.000000,50.000000) scale(0.100000,-0.100000)"
fill="#000000" stroke="none">
<path d="M121 491 l-14 -9 6 -21 5 -21 -18 -10 -19 -10 -40 0 -41 0 0 -49 0
-49 6 -16 6 -16 34 0 34 0 0 -25 0 -25 -24 -9 -23 -9 -12 -46 -11 -45 0 -15 0
-16 40 0 40 0 -6 -24 -6 -24 17 -26 17 -26 43 0 43 0 10 12 10 13 4 30 3 30
43 3 42 3 -1 12 -1 12 -16 65 -17 65 -22 3 -23 3 0 14 0 14 13 8 12 8 25 0 25
0 3 62 3 62 -18 9 -18 9 -38 7 -38 7 -9 25 -10 24 -22 0 -23 0 -14 -9z"/>
</g>
</svg>
