<?xml version="1.0" standalone="no"?>
<!DOCTYPE svg PUBLIC "-//W3C//DTD SVG 20010904//EN"
 "http://www.w3.org/TR/2001/REC-SVG-20010904/DTD/svg10.dtd">
<svg version="1.0" xmlns="http://www.w3.org/2000/svg"
 width="50.000000pt" height="41.000000pt" viewBox="0 0 50.000000 41.000000"
 preserveAspectRatio="xMidYMid meet">
<metadata>
Created by potrace 1.16, written by Peter Selinger 2001-2019
</metadata>
<g transform="translate(0.000000,41.000000) scale(0.100000,-0.100000)"
fill="#000000" stroke="none">
<path d="M209 389 l-11 -21 5 -19 5 -19 -59 0 -60 0 7 -49 6 -48 -13 -9 -14
-8 -31 3 -32 2 -7 -21 -6 -20 6 -30 7 -30 23 0 24 0 10 -38 11 -37 0 -22 0
-21 63 5 62 5 14 4 14 4 -7 39 -6 39 17 6 16 7 11 -11 10 -10 -2 -35 -3 -34
48 -6 48 -6 25 -5 25 -4 18 35 17 36 0 15 0 14 25 10 25 10 0 49 0 49 -16 6
-16 6 -30 0 -30 0 7 55 6 55 -20 0 -20 0 -51 11 -50 11 0 24 0 24 -30 0 -29 0
-12 -21z"/>
</g>
</svg>
