<?xml version="1.0" standalone="no"?>
<!DOCTYPE svg PUBLIC "-//W3C//DTD SVG 20010904//EN"
 "http://www.w3.org/TR/2001/REC-SVG-20010904/DTD/svg10.dtd">
<svg version="1.0" xmlns="http://www.w3.org/2000/svg"
 width="33.000000pt" height="47.000000pt" viewBox="0 0 33.000000 47.000000"
 preserveAspectRatio="xMidYMid meet">
<metadata>
Created by potrace 1.16, written by Peter Selinger 2001-2019
</metadata>
<g transform="translate(0.000000,47.000000) scale(0.100000,-0.100000)"
fill="#000000" stroke="none">
<path d="M130 437 l0 -35 -16 -6 -16 -6 -44 0 -44 0 0 -22 0 -23 6 -22 6 -23
44 0 44 0 0 -40 0 -39 -21 -12 -21 -11 -29 6 -28 5 -5 -17 -5 -17 7 -40 7 -40
48 -3 47 -3 0 -35 0 -34 26 -12 26 -12 16 11 17 10 0 23 0 23 10 3 10 3 55 11
55 10 -1 53 -1 52 -1 14 -2 13 -24 -6 -24 -6 -23 19 -24 20 13 12 12 13 33 1
32 0 0 55 0 55 -60 5 -60 5 -5 35 -5 35 -27 3 -28 3 0 -34z"/>
</g>
</svg>
