<?xml version="1.0" standalone="no"?>
<!DOCTYPE svg PUBLIC "-//W3C//DTD SVG 20010904//EN"
 "http://www.w3.org/TR/2001/REC-SVG-20010904/DTD/svg10.dtd">
<svg version="1.0" xmlns="http://www.w3.org/2000/svg"
 width="35.000000pt" height="49.000000pt" viewBox="0 0 35.000000 49.000000"
 preserveAspectRatio="xMidYMid meet">
<metadata>
Created by potrace 1.16, written by Peter Selinger 2001-2019
</metadata>
<g transform="translate(0.000000,49.000000) scale(0.100000,-0.100000)"
fill="#000000" stroke="none">
<path d="M130 457 l0 -35 -16 -6 -16 -6 -44 0 -44 0 0 -32 0 -33 6 -22 6 -23
44 0 44 0 0 -30 0 -29 -19 -11 -19 -10 -31 6 -30 6 -6 -23 -5 -24 8 -45 7 -45
48 -3 47 -3 0 -34 0 -34 19 -11 20 -10 23 0 24 0 12 12 12 12 0 23 0 23 15 0
14 0 49 10 48 11 1 52 1 52 -4 22 -4 22 -37 3 -36 3 -4 12 -4 12 38 3 38 3 0
65 0 65 -60 5 -60 5 -5 35 -5 35 -37 3 -38 3 0 -34z"/>
</g>
</svg>
