<?xml version="1.0" standalone="no"?>
<!DOCTYPE svg PUBLIC "-//W3C//DTD SVG 20010904//EN"
 "http://www.w3.org/TR/2001/REC-SVG-20010904/DTD/svg10.dtd">
<svg version="1.0" xmlns="http://www.w3.org/2000/svg"
 width="42.000000pt" height="41.000000pt" viewBox="0 0 42.000000 41.000000"
 preserveAspectRatio="xMidYMid meet">
<metadata>
Created by potrace 1.16, written by Peter Selinger 2001-2019
</metadata>
<g transform="translate(0.000000,41.000000) scale(0.100000,-0.100000)"
fill="#000000" stroke="none">
<path d="M141 396 l-12 -15 3 -33 3 -33 -60 0 -60 0 -3 -52 -3 -51 33 1 33 2
0 -30 0 -30 -28 0 -28 0 -9 -16 -9 -15 6 -55 5 -54 67 5 66 5 0 30 1 30 21 3
22 3 10 -20 11 -20 -6 -15 -6 -14 20 -11 19 -10 19 4 19 4 26 5 26 6 -8 45 -8
45 5 15 6 14 28 -5 28 -6 21 11 21 12 0 39 0 40 -44 0 -44 0 -6 23 -6 22 0 21
0 22 -16 6 -16 6 -24 0 -25 0 -20 11 -21 11 6 15 6 16 -11 13 -11 14 -18 0
-18 0 -11 -14z"/>
</g>
</svg>
