<?xml version="1.0" standalone="no"?>
<!DOCTYPE svg PUBLIC "-//W3C//DTD SVG 20010904//EN"
 "http://www.w3.org/TR/2001/REC-SVG-20010904/DTD/svg10.dtd">
<svg version="1.0" xmlns="http://www.w3.org/2000/svg"
 width="43.000000pt" height="51.000000pt" viewBox="0 0 43.000000 51.000000"
 preserveAspectRatio="xMidYMid meet">
<metadata>
Created by potrace 1.16, written by Peter Selinger 2001-2019
</metadata>
<g transform="translate(0.000000,51.000000) scale(0.100000,-0.100000)"
fill="#000000" stroke="none">
<path d="M146 494 l-16 -15 0 -32 0 -32 -55 3 -55 4 -7 -19 -7 -18 -1 -55 0
-55 41 -1 41 -1 11 -7 11 -7 -5 -13 -5 -13 -22 4 -23 5 -11 -24 -12 -23 -11
-37 -11 -38 6 -10 6 -10 45 0 44 0 0 -38 0 -38 12 -12 12 -12 41 0 41 0 12 12
12 12 0 18 0 18 28 6 27 7 27 13 26 14 7 32 6 33 5 17 5 17 27 3 27 3 3 39 3
39 -5 24 -6 23 -40 0 -40 0 0 45 0 45 -54 0 -55 0 -8 13 -8 12 3 18 3 18 -11
15 -12 14 -19 0 -18 0 -15 -16z"/>
</g>
</svg>
