<?xml version="1.0" standalone="no"?>
<!DOCTYPE svg PUBLIC "-//W3C//DTD SVG 20010904//EN"
 "http://www.w3.org/TR/2001/REC-SVG-20010904/DTD/svg10.dtd">
<svg version="1.0" xmlns="http://www.w3.org/2000/svg"
 width="42.000000pt" height="39.000000pt" viewBox="0 0 42.000000 39.000000"
 preserveAspectRatio="xMidYMid meet">
<metadata>
Created by potrace 1.16, written by Peter Selinger 2001-2019
</metadata>
<g transform="translate(0.000000,39.000000) scale(0.100000,-0.100000)"
fill="#000000" stroke="none">
<path d="M204 378 l-8 -12 0 -31 -1 -30 -54 -5 -54 -5 -4 -34 -3 -34 -10 -13
-11 -12 -20 5 -21 6 -9 -14 -9 -14 0 -22 0 -22 23 -21 22 -21 28 5 27 6 0 -30
0 -29 -10 -25 -10 -26 54 0 54 0 16 6 16 6 0 38 0 39 10 6 11 7 14 -12 14 -11
3 -22 3 -22 55 -18 55 -17 12 16 12 17 7 43 6 43 -7 11 -7 11 -32 -6 -32 -7
-13 16 -13 15 7 21 7 21 19 -6 20 -7 14 12 15 12 0 39 0 38 -10 6 -11 7 -47
11 -47 12 0 20 -1 20 -7 13 -8 12 -29 0 -29 0 -7 -12z"/>
</g>
</svg>
