<?xml version="1.0" standalone="no"?>
<!DOCTYPE svg PUBLIC "-//W3C//DTD SVG 20010904//EN"
 "http://www.w3.org/TR/2001/REC-SVG-20010904/DTD/svg10.dtd">
<svg version="1.0" xmlns="http://www.w3.org/2000/svg"
 width="39.000000pt" height="48.000000pt" viewBox="0 0 39.000000 48.000000"
 preserveAspectRatio="xMidYMid meet">
<metadata>
Created by potrace 1.16, written by Peter Selinger 2001-2019
</metadata>
<g transform="translate(0.000000,48.000000) scale(0.100000,-0.100000)"
fill="#000000" stroke="none">
<path d="M207 469 l-18 -10 7 -35 6 -34 -61 0 -61 0 0 -44 0 -44 -15 -12 -14
-12 -20 7 -19 6 -7 -21 -7 -21 13 -15 13 -16 33 7 33 6 7 -17 6 -16 -10 -42
-10 -41 -7 -15 -6 -15 60 3 60 4 -6 -16 -6 -16 6 -24 6 -25 20 -6 19 -6 22 11
21 12 -5 19 -5 18 17 5 16 5 43 6 43 7 -3 11 -3 12 -19 58 -20 57 -18 0 -18 0
0 19 0 20 22 15 22 15 24 -6 25 -6 -7 54 -7 54 -12 7 -12 8 -28 0 -28 0 -20
10 -19 11 6 24 6 25 -10 0 -10 0 -14 5 -13 4 -18 -10z"/>
</g>
</svg>
