<?xml version="1.0" standalone="no"?>
<!DOCTYPE svg PUBLIC "-//W3C//DTD SVG 20010904//EN"
 "http://www.w3.org/TR/2001/REC-SVG-20010904/DTD/svg10.dtd">
<svg version="1.0" xmlns="http://www.w3.org/2000/svg"
 width="33.000000pt" height="33.000000pt" viewBox="0 0 33.000000 33.000000"
 preserveAspectRatio="xMidYMid meet">
<metadata>
Created by potrace 1.16, written by Peter Selinger 2001-2019
</metadata>
<g transform="translate(0.000000,33.000000) scale(0.100000,-0.100000)"
fill="#000000" stroke="none">
<path d="M3 315 l-5 -16 4 -50 5 -51 14 -9 14 -9 33 6 32 6 0 -18 0 -19 -8
-11 -7 -12 -23 -3 -24 -4 -18 -55 -19 -55 -1 -8 0 -8 68 3 67 3 0 30 1 30 7
13 8 12 10 0 9 0 0 -24 0 -24 13 -10 13 -11 68 -7 68 -7 -4 14 -4 14 -19 63
-18 62 -29 0 -29 0 3 18 4 17 33 -2 34 -1 14 13 13 14 0 55 0 56 -160 0 -161
0 -6 -15z"/>
</g>
</svg>
