<?xml version="1.0" standalone="no"?>
<!DOCTYPE svg PUBLIC "-//W3C//DTD SVG 20010904//EN"
 "http://www.w3.org/TR/2001/REC-SVG-20010904/DTD/svg10.dtd">
<svg version="1.0" xmlns="http://www.w3.org/2000/svg"
 width="31.000000pt" height="31.000000pt" viewBox="0 0 31.000000 31.000000"
 preserveAspectRatio="xMidYMid meet">
<metadata>
Created by potrace 1.16, written by Peter Selinger 2001-2019
</metadata>
<g transform="translate(0.000000,31.000000) scale(0.100000,-0.100000)"
fill="#000000" stroke="none">
<path d="M3 295 l-6 -16 6 -40 5 -41 6 -6 7 -6 39 2 40 3 0 -28 0 -28 -9 -14
-9 -14 -22 -1 -21 -1 -18 -53 -18 -53 56 3 56 3 -3 22 -3 22 11 21 11 21 22
-3 22 -3 -2 -22 -2 -21 12 -10 12 -10 56 -7 56 -7 -21 66 -21 67 -25 -3 -25
-3 0 30 0 30 35 0 35 0 13 12 12 12 0 45 0 46 -150 0 -151 0 -6 -15z"/>
</g>
</svg>
