<?xml version="1.0" standalone="no"?>
<!DOCTYPE svg PUBLIC "-//W3C//DTD SVG 20010904//EN"
 "http://www.w3.org/TR/2001/REC-SVG-20010904/DTD/svg10.dtd">
<svg version="1.0" xmlns="http://www.w3.org/2000/svg"
 width="40.000000pt" height="41.000000pt" viewBox="0 0 40.000000 41.000000"
 preserveAspectRatio="xMidYMid meet">
<metadata>
Created by potrace 1.16, written by Peter Selinger 2001-2019
</metadata>
<g transform="translate(0.000000,41.000000) scale(0.100000,-0.100000)"
fill="#000000" stroke="none">
<path d="M90 374 l0 -35 -10 -20 -11 -19 -34 0 -35 0 0 -34 0 -35 16 -16 17
-16 23 5 24 6 1 -32 1 -33 7 -25 7 -25 44 -5 45 -5 0 -40 0 -40 47 -3 47 -3 7
25 6 25 55 16 55 16 -5 22 -6 22 -11 48 -12 49 -23 -4 -22 -5 -13 21 -13 20
23 18 23 19 29 -6 28 -7 0 62 0 62 -47 -6 -48 -7 -18 -6 -19 -5 5 -19 5 -19
-18 -10 -19 -10 -16 16 -16 16 6 29 7 29 -66 0 -66 0 0 -36z"/>
</g>
</svg>
