<?xml version="1.0" standalone="no"?>
<!DOCTYPE svg PUBLIC "-//W3C//DTD SVG 20010904//EN"
 "http://www.w3.org/TR/2001/REC-SVG-20010904/DTD/svg10.dtd">
<svg version="1.0" xmlns="http://www.w3.org/2000/svg"
 width="32.000000pt" height="43.000000pt" viewBox="0 0 32.000000 43.000000"
 preserveAspectRatio="xMidYMid meet">
<metadata>
Created by potrace 1.16, written by Peter Selinger 2001-2019
</metadata>
<g transform="translate(0.000000,43.000000) scale(0.100000,-0.100000)"
fill="#000000" stroke="none">
<path d="M132 414 l-21 -15 6 -30 6 -31 -14 -9 -14 -9 -47 6 -48 7 0 -50 0
-51 14 -11 15 -12 33 3 33 3 0 -24 0 -25 -31 -8 -31 -8 -15 -55 -16 -56 19 -9
18 -10 21 0 21 0 20 11 21 11 -7 38 -6 38 19 6 19 6 17 -6 16 -6 6 -24 6 -24
-4 -25 -5 -25 13 -10 12 -11 54 13 53 13 -4 44 -3 44 -9 24 -9 24 -19 -6 -18
-5 -12 14 -13 15 9 13 8 13 30 0 30 0 3 57 3 57 -63 3 -63 3 3 42 4 41 -20 11
-19 10 -21 -15z"/>
</g>
</svg>
