<?xml version="1.0" standalone="no"?>
<!DOCTYPE svg PUBLIC "-//W3C//DTD SVG 20010904//EN"
 "http://www.w3.org/TR/2001/REC-SVG-20010904/DTD/svg10.dtd">
<svg version="1.0" xmlns="http://www.w3.org/2000/svg"
 width="33.000000pt" height="49.000000pt" viewBox="0 0 33.000000 49.000000"
 preserveAspectRatio="xMidYMid meet">
<metadata>
Created by potrace 1.16, written by Peter Selinger 2001-2019
</metadata>
<g transform="translate(0.000000,49.000000) scale(0.100000,-0.100000)"
fill="#000000" stroke="none">
<path d="M135 476 l-20 -14 0 -39 0 -38 -55 0 -55 0 -3 -38 -3 -38 12 -16 13
-15 23 5 23 4 11 -13 10 -13 -3 -28 -3 -28 -22 3 -21 3 -16 -53 -15 -53 7 -7
7 -7 40 -3 40 -3 -2 -29 -2 -30 11 -13 10 -13 28 0 28 0 8 18 8 17 0 20 1 20
62 3 62 3 6 54 7 53 -7 12 -7 12 -27 -5 -26 -5 -17 9 -18 10 0 25 0 25 43 -3
42 -3 3 58 3 58 -43 19 -43 20 -17 0 -17 0 -9 32 -8 33 -15 3 -14 3 -20 -15z"/>
</g>
</svg>
