<?xml version="1.0" standalone="no"?>
<!DOCTYPE svg PUBLIC "-//W3C//DTD SVG 20010904//EN"
 "http://www.w3.org/TR/2001/REC-SVG-20010904/DTD/svg10.dtd">
<svg version="1.0" xmlns="http://www.w3.org/2000/svg"
 width="52.000000pt" height="49.000000pt" viewBox="0 0 52.000000 49.000000"
 preserveAspectRatio="xMidYMid meet">
<metadata>
Created by potrace 1.16, written by Peter Selinger 2001-2019
</metadata>
<g transform="translate(0.000000,49.000000) scale(0.100000,-0.100000)"
fill="#000000" stroke="none">
<path d="M210 476 l-12 -15 4 -33 3 -33 -69 4 -69 3 7 -27 7 -27 6 -29 6 -29
-36 0 -35 0 -11 -14 -12 -15 3 -33 3 -33 25 -4 25 -3 7 -12 8 -11 0 -27 0 -26
6 -16 6 -16 64 0 64 0 0 -35 0 -35 24 -6 25 -6 20 7 21 6 0 14 0 14 59 16 59
17 6 59 7 59 27 0 27 1 18 13 17 13 0 30 0 31 -13 10 -12 11 -40 3 -40 3 3 43
2 42 -60 0 -60 0 0 40 0 39 -19 11 -20 10 -19 0 -20 0 -12 -14z"/>
</g>
</svg>
