<?xml version="1.0" standalone="no"?>
<!DOCTYPE svg PUBLIC "-//W3C//DTD SVG 20010904//EN"
 "http://www.w3.org/TR/2001/REC-SVG-20010904/DTD/svg10.dtd">
<svg version="1.0" xmlns="http://www.w3.org/2000/svg"
 width="50.000000pt" height="47.000000pt" viewBox="0 0 50.000000 47.000000"
 preserveAspectRatio="xMidYMid meet">
<metadata>
Created by potrace 1.16, written by Peter Selinger 2001-2019
</metadata>
<g transform="translate(0.000000,47.000000) scale(0.100000,-0.100000)"
fill="#000000" stroke="none">
<path d="M211 456 l-11 -14 2 -33 3 -34 -67 3 -67 3 10 -33 9 -33 0 -22 0 -23
-34 0 -34 0 -12 -14 -12 -15 4 -23 3 -23 25 -4 25 -3 7 -12 8 -11 0 -27 0 -26
6 -16 6 -16 64 0 64 0 0 -34 0 -34 16 -6 17 -6 18 5 18 6 -5 13 -5 13 64 17
64 17 9 62 9 62 19 -3 19 -4 24 13 23 12 0 22 0 23 -15 12 -15 12 -35 -4 -36
-4 -5 23 -6 23 6 25 6 25 -60 0 -60 0 0 40 0 39 -19 11 -20 10 -9 0 -10 0 -11
-14z"/>
</g>
</svg>
