<?xml version="1.0" standalone="no"?>
<!DOCTYPE svg PUBLIC "-//W3C//DTD SVG 20010904//EN"
 "http://www.w3.org/TR/2001/REC-SVG-20010904/DTD/svg10.dtd">
<svg version="1.0" xmlns="http://www.w3.org/2000/svg"
 width="42.000000pt" height="42.000000pt" viewBox="0 0 42.000000 42.000000"
 preserveAspectRatio="xMidYMid meet">
<metadata>
Created by potrace 1.16, written by Peter Selinger 2001-2019
</metadata>
<g transform="translate(0.000000,42.000000) scale(0.100000,-0.100000)"
fill="#000000" stroke="none">
<path d="M94 363 l1 -58 -35 0 -35 0 -13 -8 -12 -8 0 -24 0 -24 17 -16 16 -17
33 4 33 4 5 -13 6 -13 -7 -45 -6 -45 34 -1 34 0 20 -8 20 -8 0 -39 0 -39 48
-3 49 -3 13 11 14 11 3 27 3 27 43 3 42 3 0 9 0 10 -21 64 -21 65 -22 3 -21 3
0 30 0 30 23 -3 23 -3 15 11 14 12 0 54 0 54 -56 0 -56 0 4 -30 5 -30 -13 -11
-13 -11 -23 4 -23 3 -5 35 -5 35 -66 3 -66 3 1 -58z"/>
</g>
</svg>
