<?xml version="1.0" standalone="no"?>
<!DOCTYPE svg PUBLIC "-//W3C//DTD SVG 20010904//EN"
 "http://www.w3.org/TR/2001/REC-SVG-20010904/DTD/svg10.dtd">
<svg version="1.0" xmlns="http://www.w3.org/2000/svg"
 width="39.000000pt" height="40.000000pt" viewBox="0 0 39.000000 40.000000"
 preserveAspectRatio="xMidYMid meet">
<metadata>
Created by potrace 1.16, written by Peter Selinger 2001-2019
</metadata>
<g transform="translate(0.000000,40.000000) scale(0.100000,-0.100000)"
fill="#000000" stroke="none">
<path d="M74 370 l6 -30 -10 -25 -10 -25 -30 0 -30 0 0 -29 0 -29 6 -16 6 -16
40 0 40 0 -7 -60 -7 -60 25 0 26 0 25 -10 26 -10 0 -30 0 -31 43 3 42 3 3 38
3 37 61 0 61 0 -7 37 -6 38 0 34 0 33 -30 -4 -30 -5 -11 13 -11 13 4 23 3 23
28 -3 29 -3 14 12 14 11 0 49 0 49 -7 0 -8 -1 -60 -12 -60 -13 0 -22 -1 -22
-11 -11 -11 -11 -21 11 -21 12 0 34 0 35 -61 0 -61 0 6 -30z"/>
</g>
</svg>
