<?xml version="1.0" standalone="no"?>
<!DOCTYPE svg PUBLIC "-//W3C//DTD SVG 20010904//EN"
 "http://www.w3.org/TR/2001/REC-SVG-20010904/DTD/svg10.dtd">
<svg version="1.0" xmlns="http://www.w3.org/2000/svg"
 width="37.000000pt" height="38.000000pt" viewBox="0 0 37.000000 38.000000"
 preserveAspectRatio="xMidYMid meet">
<metadata>
Created by potrace 1.16, written by Peter Selinger 2001-2019
</metadata>
<g transform="translate(0.000000,38.000000) scale(0.100000,-0.100000)"
fill="#000000" stroke="none">
<path d="M75 334 l0 -46 -18 -13 -18 -13 -19 5 -20 5 0 -23 0 -24 9 -13 8 -14
34 4 34 3 -2 -61 -1 -62 41 -5 41 -6 13 -17 13 -18 -6 -19 -6 -18 34 3 33 3 3
38 3 37 61 0 60 0 -6 23 -6 22 0 38 0 39 -28 -7 -29 -6 -12 15 -12 15 3 33 3
33 30 0 30 0 13 8 12 8 0 38 0 38 -57 -11 -58 -12 0 -23 0 -24 -17 -10 -16
-11 -26 12 -26 12 0 35 0 35 -47 0 -48 0 0 -46z"/>
</g>
</svg>
