<?xml version="1.0" standalone="no"?>
<!DOCTYPE svg PUBLIC "-//W3C//DTD SVG 20010904//EN"
 "http://www.w3.org/TR/2001/REC-SVG-20010904/DTD/svg10.dtd">
<svg version="1.0" xmlns="http://www.w3.org/2000/svg"
 width="49.000000pt" height="31.000000pt" viewBox="0 0 49.000000 31.000000"
 preserveAspectRatio="xMidYMid meet">
<metadata>
Created by potrace 1.16, written by Peter Selinger 2001-2019
</metadata>
<g transform="translate(0.000000,31.000000) scale(0.100000,-0.100000)"
fill="#000000" stroke="none">
<path d="M93 269 l5 -42 -8 -23 -9 -23 -35 6 -34 5 -6 -19 -6 -20 5 -15 6 -15
23 4 22 5 17 -61 17 -61 54 0 54 0 11 14 12 14 -3 29 -3 28 24 3 24 4 -6 -31
-6 -30 9 -6 8 -5 49 -9 48 -10 15 -5 15 -6 0 62 0 63 34 0 33 0 14 20 14 21
-16 22 -16 23 -36 -3 -37 -3 -3 48 -3 48 -17 -5 -17 -4 -28 -6 -28 -7 2 -17 1
-17 -1 -12 -1 -13 -49 0 -50 0 -3 43 -3 42 -49 3 -49 3 6 -42z"/>
</g>
</svg>
