<?xml version="1.0" standalone="no"?>
<!DOCTYPE svg PUBLIC "-//W3C//DTD SVG 20010904//EN"
 "http://www.w3.org/TR/2001/REC-SVG-20010904/DTD/svg10.dtd">
<svg version="1.0" xmlns="http://www.w3.org/2000/svg"
 width="38.000000pt" height="31.000000pt" viewBox="0 0 38.000000 31.000000"
 preserveAspectRatio="xMidYMid meet">
<metadata>
Created by potrace 1.16, written by Peter Selinger 2001-2019
</metadata>
<g transform="translate(0.000000,31.000000) scale(0.100000,-0.100000)"
fill="#000000" stroke="none">
<path d="M10 281 l0 -30 10 -26 10 -26 28 2 27 3 13 -7 12 -8 0 -24 0 -24 -21
-12 -21 -11 -29 6 -29 6 0 -49 0 -49 -5 -14 -5 -13 37 1 38 2 33 1 32 1 0 45
0 45 14 0 15 0 8 -13 7 -12 -2 -21 -3 -22 58 -10 58 -10 7 4 6 4 7 60 7 60 11
2 12 1 15 1 15 1 0 20 0 20 -35 0 -35 1 -3 57 -3 57 -4 0 -4 0 -51 -11 -50
-11 2 -16 3 -17 -24 -3 -23 -4 -24 6 -23 6 5 15 6 15 -12 15 -12 15 -39 0 -39
0 0 -29z"/>
</g>
</svg>
