<?xml version="1.0" standalone="no"?>
<!DOCTYPE svg PUBLIC "-//W3C//DTD SVG 20010904//EN"
 "http://www.w3.org/TR/2001/REC-SVG-20010904/DTD/svg10.dtd">
<svg version="1.0" xmlns="http://www.w3.org/2000/svg"
 width="34.000000pt" height="33.000000pt" viewBox="0 0 34.000000 33.000000"
 preserveAspectRatio="xMidYMid meet">
<metadata>
Created by potrace 1.16, written by Peter Selinger 2001-2019
</metadata>
<g transform="translate(0.000000,33.000000) scale(0.100000,-0.100000)"
fill="#000000" stroke="none">
<path d="M4 308 l6 -23 0 -43 0 -44 28 3 27 3 13 -7 12 -8 0 -15 0 -14 -28 -6
-29 -6 -12 -64 -12 -65 6 -9 6 -10 60 0 61 0 -4 36 -3 37 17 10 16 11 16 -13
15 -12 -6 -15 -5 -14 12 -15 12 -15 59 0 59 0 0 63 0 62 -9 14 -9 14 -31 -6
-30 -6 -7 10 -6 11 11 11 11 11 40 -2 40 -3 -2 71 -2 70 -169 0 -169 0 6 -22z"/>
</g>
</svg>
