<?xml version="1.0" standalone="no"?>
<!DOCTYPE svg PUBLIC "-//W3C//DTD SVG 20010904//EN"
 "http://www.w3.org/TR/2001/REC-SVG-20010904/DTD/svg10.dtd">
<svg version="1.0" xmlns="http://www.w3.org/2000/svg"
 width="32.000000pt" height="31.000000pt" viewBox="0 0 32.000000 31.000000"
 preserveAspectRatio="xMidYMid meet">
<metadata>
Created by potrace 1.16, written by Peter Selinger 2001-2019
</metadata>
<g transform="translate(0.000000,31.000000) scale(0.100000,-0.100000)"
fill="#000000" stroke="none">
<path d="M8 254 l4 -56 25 7 25 6 14 -12 14 -11 0 -24 0 -24 -29 -6 -28 -6
-10 -56 -11 -57 5 -8 4 -7 51 0 50 0 -6 31 -6 32 11 13 11 14 23 0 23 0 12
-15 12 -15 -5 -14 -5 -14 11 -11 11 -11 48 0 48 0 0 53 0 52 -8 12 -7 11 -35
-1 -35 -2 -3 22 -3 22 20 10 19 11 31 -6 31 -7 -2 62 -3 61 -155 0 -155 0 3
-56z"/>
</g>
</svg>
