<?xml version="1.0" standalone="no"?>
<!DOCTYPE svg PUBLIC "-//W3C//DTD SVG 20010904//EN"
 "http://www.w3.org/TR/2001/REC-SVG-20010904/DTD/svg10.dtd">
<svg version="1.0" xmlns="http://www.w3.org/2000/svg"
 width="50.000000pt" height="40.000000pt" viewBox="0 0 50.000000 40.000000"
 preserveAspectRatio="xMidYMid meet">
<metadata>
Created by potrace 1.16, written by Peter Selinger 2001-2019
</metadata>
<g transform="translate(0.000000,40.000000) scale(0.100000,-0.100000)"
fill="#000000" stroke="none">
<path d="M214 376 l6 -24 -13 -10 -13 -11 -54 -3 -55 -3 -3 -52 -3 -52 -31 -3
-31 -3 -11 -17 -10 -17 10 -28 9 -28 26 -3 27 -3 4 -55 5 -54 4 -4 4 -3 75 6
75 6 0 25 0 25 10 4 10 5 5 -30 5 -29 67 -3 67 -3 12 43 13 43 9 12 9 13 23 0
23 0 6 16 6 16 0 19 0 19 -26 10 -25 10 -30 0 -30 0 7 60 7 60 -57 0 -57 0 6
20 7 21 -12 14 -12 15 -35 0 -35 0 6 -24z"/>
</g>
</svg>
