<?xml version="1.0" standalone="no"?>
<!DOCTYPE svg PUBLIC "-//W3C//DTD SVG 20010904//EN"
 "http://www.w3.org/TR/2001/REC-SVG-20010904/DTD/svg10.dtd">
<svg version="1.0" xmlns="http://www.w3.org/2000/svg"
 width="48.000000pt" height="38.000000pt" viewBox="0 0 48.000000 38.000000"
 preserveAspectRatio="xMidYMid meet">
<metadata>
Created by potrace 1.16, written by Peter Selinger 2001-2019
</metadata>
<g transform="translate(0.000000,38.000000) scale(0.100000,-0.100000)"
fill="#000000" stroke="none">
<path d="M217 357 l5 -23 -14 -12 -14 -11 -54 -3 -55 -3 -5 -55 -5 -55 -26 3
-26 3 -13 -16 -13 -16 12 -25 12 -26 24 6 25 6 0 -42 0 -43 6 -20 5 -20 67 5
67 5 -3 28 -3 27 15 6 16 6 15 -12 14 -12 -2 -21 -2 -22 57 -3 56 -3 12 38 11
38 11 22 11 23 23 -6 22 -6 7 22 7 22 -11 11 -11 11 -42 1 -43 1 2 62 3 62
-56 0 -55 0 2 23 3 22 -7 13 -8 12 -23 0 -23 0 4 -23z"/>
</g>
</svg>
