<?xml version="1.0" standalone="no"?>
<!DOCTYPE svg PUBLIC "-//W3C//DTD SVG 20010904//EN"
 "http://www.w3.org/TR/2001/REC-SVG-20010904/DTD/svg10.dtd">
<svg version="1.0" xmlns="http://www.w3.org/2000/svg"
 width="40.000000pt" height="43.000000pt" viewBox="0 0 40.000000 43.000000"
 preserveAspectRatio="xMidYMid meet">
<metadata>
Created by potrace 1.16, written by Peter Selinger 2001-2019
</metadata>
<g transform="translate(0.000000,43.000000) scale(0.100000,-0.100000)"
fill="#000000" stroke="none">
<path d="M194 396 l6 -33 -6 -17 -6 -16 -22 0 -21 0 -14 9 -13 9 7 31 7 31
-62 0 -61 0 3 -57 3 -58 40 0 40 0 0 -30 0 -30 -30 -5 -29 -5 -8 -44 -8 -45
-10 -10 -10 -10 0 -17 0 -18 55 6 55 6 0 -29 0 -29 8 -11 7 -10 18 -7 19 -7
25 6 24 7 9 21 8 22 50 12 49 13 1 46 1 45 6 18 5 17 24 -4 23 -5 6 24 7 23 0
12 0 12 -16 15 -15 16 -25 0 -24 0 0 55 0 55 -26 10 -25 10 -41 0 -40 0 6 -34z"/>
</g>
</svg>
