<?xml version="1.0" standalone="no"?>
<!DOCTYPE svg PUBLIC "-//W3C//DTD SVG 20010904//EN"
 "http://www.w3.org/TR/2001/REC-SVG-20010904/DTD/svg10.dtd">
<svg version="1.0" xmlns="http://www.w3.org/2000/svg"
 width="40.000000pt" height="34.000000pt" viewBox="0 0 40.000000 34.000000"
 preserveAspectRatio="xMidYMid meet">
<metadata>
Created by potrace 1.16, written by Peter Selinger 2001-2019
</metadata>
<g transform="translate(0.000000,34.000000) scale(0.100000,-0.100000)"
fill="#000000" stroke="none">
<path d="M184 313 l6 -28 -8 -30 -8 -30 -25 0 -24 0 0 48 0 47 -56 0 -57 0 -6
-16 -6 -16 0 -34 0 -34 29 0 29 0 16 -6 16 -6 0 -39 0 -39 -25 -10 -25 -10 0
-18 0 -18 -15 -20 -14 -19 -1 -7 0 -8 49 0 49 0 11 14 12 14 -6 25 -6 24 16 7
16 6 20 -11 21 -11 -7 -39 -7 -39 19 -1 18 -2 35 3 35 2 11 9 12 10 7 44 6 45
20 0 20 0 20 10 19 11 0 28 0 29 -14 11 -14 12 -29 -3 -28 -3 -3 51 -3 51 -38
12 -38 11 -27 0 -28 0 6 -27z"/>
</g>
</svg>
