<?xml version="1.0" standalone="no"?>
<!DOCTYPE svg PUBLIC "-//W3C//DTD SVG 20010904//EN"
 "http://www.w3.org/TR/2001/REC-SVG-20010904/DTD/svg10.dtd">
<svg version="1.0" xmlns="http://www.w3.org/2000/svg"
 width="48.000000pt" height="40.000000pt" viewBox="0 0 48.000000 40.000000"
 preserveAspectRatio="xMidYMid meet">
<metadata>
Created by potrace 1.16, written by Peter Selinger 2001-2019
</metadata>
<g transform="translate(0.000000,40.000000) scale(0.100000,-0.100000)"
fill="#000000" stroke="none">
<path d="M197 393 l-18 -5 3 -21 2 -22 -7 -12 -8 -13 -46 0 -46 0 7 -54 6 -54
-20 5 -20 5 -25 -16 -25 -16 0 -30 0 -30 20 0 20 0 0 -10 0 -9 21 -56 20 -55
69 0 69 0 3 37 3 36 10 4 10 3 10 -21 10 -21 55 -19 55 -18 23 -1 22 0 0 28 0
27 6 23 6 22 10 0 9 0 15 14 14 15 0 26 0 26 -10 20 -11 19 -29 0 -30 0 0 49
0 50 -57 -2 -58 -2 3 27 3 26 -23 16 -22 16 -16 -1 -15 -1 -18 -5z"/>
</g>
</svg>
