<?xml version="1.0" standalone="no"?>
<!DOCTYPE svg PUBLIC "-//W3C//DTD SVG 20010904//EN"
 "http://www.w3.org/TR/2001/REC-SVG-20010904/DTD/svg10.dtd">
<svg version="1.0" xmlns="http://www.w3.org/2000/svg"
 width="34.000000pt" height="39.000000pt" viewBox="0 0 34.000000 39.000000"
 preserveAspectRatio="xMidYMid meet">
<metadata>
Created by potrace 1.16, written by Peter Selinger 2001-2019
</metadata>
<g transform="translate(0.000000,39.000000) scale(0.100000,-0.100000)"
fill="#000000" stroke="none">
<path d="M151 373 l-9 -19 1 -19 2 -20 -65 -5 -65 -5 -3 -31 -3 -30 10 -26 10
-27 33 -3 33 -3 0 -20 0 -20 -49 3 -49 2 6 -71 6 -71 3 -2 3 -3 60 6 60 6 0
35 0 35 35 0 35 0 0 -25 0 -25 8 -12 8 -13 57 0 57 0 -5 62 -5 63 -36 -3 -36
-3 -13 16 -12 15 6 15 6 16 36 -7 36 -7 9 14 9 14 0 54 0 53 -17 -7 -18 -8
-52 -4 -51 -5 1 48 2 48 -17 4 -17 3 -10 -18z"/>
</g>
</svg>
