<?xml version="1.0" standalone="no"?>
<!DOCTYPE svg PUBLIC "-//W3C//DTD SVG 20010904//EN"
 "http://www.w3.org/TR/2001/REC-SVG-20010904/DTD/svg10.dtd">
<svg version="1.0" xmlns="http://www.w3.org/2000/svg"
 width="45.000000pt" height="41.000000pt" viewBox="0 0 45.000000 41.000000"
 preserveAspectRatio="xMidYMid meet">
<metadata>
Created by potrace 1.16, written by Peter Selinger 2001-2019
</metadata>
<g transform="translate(0.000000,41.000000) scale(0.100000,-0.100000)"
fill="#000000" stroke="none">
<path d="M235 398 l-6 -14 3 -24 3 -25 -67 -3 -68 -3 0 -49 0 -50 -40 0 -39 0
-11 -20 -11 -21 3 -27 3 -27 30 -9 30 -9 12 -3 13 -3 0 -39 0 -40 13 -10 12
-10 45 -3 45 -2 23 1 22 2 0 35 0 35 15 0 15 0 0 -24 0 -24 13 -5 14 -5 65 -7
65 -7 6 38 7 39 0 44 0 44 -36 -6 -35 -6 -15 6 -14 5 0 8 0 7 27 -5 26 -5 14
18 13 19 0 52 0 53 -11 7 -11 6 -51 7 -52 6 -5 30 -5 30 -28 3 -27 3 -5 -13z"/>
</g>
</svg>
