<?xml version="1.0" standalone="no"?>
<!DOCTYPE svg PUBLIC "-//W3C//DTD SVG 20010904//EN"
 "http://www.w3.org/TR/2001/REC-SVG-20010904/DTD/svg10.dtd">
<svg version="1.0" xmlns="http://www.w3.org/2000/svg"
 width="42.000000pt" height="40.000000pt" viewBox="0 0 42.000000 40.000000"
 preserveAspectRatio="xMidYMid meet">
<metadata>
Created by potrace 1.16, written by Peter Selinger 2001-2019
</metadata>
<g transform="translate(0.000000,40.000000) scale(0.100000,-0.100000)"
fill="#000000" stroke="none">
<path d="M95 390 l-6 -9 7 -52 7 -52 -32 6 -33 7 -19 -11 -20 -10 3 -22 3 -22
37 2 38 2 6 -25 6 -25 -4 -49 -5 -48 24 9 24 9 25 0 24 0 0 -45 0 -45 24 -6
24 -6 19 4 18 3 0 25 0 24 66 19 66 19 12 38 11 37 0 32 0 33 -29 -7 -30 -6
-20 11 -21 11 0 14 0 15 19 0 20 0 15 16 16 15 0 50 0 49 -144 0 -145 0 -6
-10z"/>
</g>
</svg>
