<?xml version="1.0" standalone="no"?>
<!DOCTYPE svg PUBLIC "-//W3C//DTD SVG 20010904//EN"
 "http://www.w3.org/TR/2001/REC-SVG-20010904/DTD/svg10.dtd">
<svg version="1.0" xmlns="http://www.w3.org/2000/svg"
 width="34.000000pt" height="33.000000pt" viewBox="0 0 34.000000 33.000000"
 preserveAspectRatio="xMidYMid meet">
<metadata>
Created by potrace 1.16, written by Peter Selinger 2001-2019
</metadata>
<g transform="translate(0.000000,33.000000) scale(0.100000,-0.100000)"
fill="#000000" stroke="none">
<path d="M7 323 l-7 -6 0 -160 0 -159 23 6 22 6 48 0 48 0 -3 38 -3 37 20 3
20 3 10 -22 10 -22 55 -18 55 -18 7 -1 6 0 11 31 11 32 0 37 0 38 -51 -2 -51
-1 -12 18 -11 18 19 14 19 15 40 -7 40 -6 -6 24 -7 24 0 43 0 42 -60 0 -60 0
0 -34 0 -34 -14 -12 -15 -12 -23 4 -23 3 3 26 3 26 -16 17 -16 16 -43 0 -43 0
-6 -7z"/>
</g>
</svg>
