<?xml version="1.0" standalone="no"?>
<!DOCTYPE svg PUBLIC "-//W3C//DTD SVG 20010904//EN"
 "http://www.w3.org/TR/2001/REC-SVG-20010904/DTD/svg10.dtd">
<svg version="1.0" xmlns="http://www.w3.org/2000/svg"
 width="32.000000pt" height="31.000000pt" viewBox="0 0 32.000000 31.000000"
 preserveAspectRatio="xMidYMid meet">
<metadata>
Created by potrace 1.16, written by Peter Selinger 2001-2019
</metadata>
<g transform="translate(0.000000,31.000000) scale(0.100000,-0.100000)"
fill="#000000" stroke="none">
<path d="M7 303 l-7 -6 0 -146 0 -146 59 3 58 4 -1 36 -1 37 37 3 38 3 -6 -14
-5 -14 13 -10 13 -10 47 -15 47 -15 11 30 10 30 0 26 0 26 -45 -3 -45 -4 -15
12 -15 12 0 24 0 23 21 12 21 11 32 -6 31 -6 -3 55 -4 55 -49 0 -49 0 0 -34 0
-34 -14 -11 -15 -12 -33 3 -33 3 0 33 -1 33 -14 9 -15 10 -31 0 -31 0 -6 -7z"/>
</g>
</svg>
