<?xml version="1.0" standalone="no"?>
<!DOCTYPE svg PUBLIC "-//W3C//DTD SVG 20010904//EN"
 "http://www.w3.org/TR/2001/REC-SVG-20010904/DTD/svg10.dtd">
<svg version="1.0" xmlns="http://www.w3.org/2000/svg"
 width="46.000000pt" height="38.000000pt" viewBox="0 0 46.000000 38.000000"
 preserveAspectRatio="xMidYMid meet">
<metadata>
Created by potrace 1.16, written by Peter Selinger 2001-2019
</metadata>
<g transform="translate(0.000000,38.000000) scale(0.100000,-0.100000)"
fill="#000000" stroke="none">
<path d="M70 331 l0 -49 -15 -12 -15 -12 -21 5 -20 5 3 -31 3 -32 32 -3 32 -3
3 -57 3 -57 56 2 56 2 -4 -24 -5 -23 11 -21 12 -21 18 0 19 0 17 26 17 26 -5
19 -5 19 11 1 12 1 5 0 5 0 41 -7 41 -6 12 60 12 61 23 0 24 0 6 15 5 15 -5
15 -6 16 -19 9 -18 10 -20 0 -21 0 0 51 0 50 -52 -3 -51 -3 -2 -28 -1 -28 -14
-10 -15 -9 -25 2 -25 3 0 28 0 28 -15 9 -15 10 -42 0 -43 0 0 -49z"/>
</g>
</svg>
