<?xml version="1.0" standalone="no"?>
<!DOCTYPE svg PUBLIC "-//W3C//DTD SVG 20010904//EN"
 "http://www.w3.org/TR/2001/REC-SVG-20010904/DTD/svg10.dtd">
<svg version="1.0" xmlns="http://www.w3.org/2000/svg"
 width="31.000000pt" height="30.000000pt" viewBox="0 0 31.000000 30.000000"
 preserveAspectRatio="xMidYMid meet">
<metadata>
Created by potrace 1.16, written by Peter Selinger 2001-2019
</metadata>
<g transform="translate(0.000000,30.000000) scale(0.100000,-0.100000)"
fill="#000000" stroke="none">
<path d="M0 250 l0 -50 19 0 19 0 16 -6 17 -6 9 -18 10 -19 -6 -15 -6 -16 -23
0 -23 0 -11 -50 -11 -51 0 -9 0 -10 56 0 55 0 -1 23 -2 22 1 11 1 12 15 6 15
5 14 -5 15 -6 -5 -12 -5 -13 13 -10 13 -11 48 -10 47 -10 5 8 4 7 7 41 7 42
-40 0 -40 0 -17 19 -17 19 3 29 3 28 31 -3 31 -3 11 14 11 13 7 43 7 42 -49
-3 -49 -3 3 -19 3 -18 -21 -20 -20 -19 -33 3 -32 3 -3 38 -3 37 -50 0 -49 0 0
-50z"/>
</g>
</svg>
