<?xml version="1.0" standalone="no"?>
<!DOCTYPE svg PUBLIC "-//W3C//DTD SVG 20010904//EN"
 "http://www.w3.org/TR/2001/REC-SVG-20010904/DTD/svg10.dtd">
<svg version="1.0" xmlns="http://www.w3.org/2000/svg"
 width="38.000000pt" height="30.000000pt" viewBox="0 0 38.000000 30.000000"
 preserveAspectRatio="xMidYMid meet">
<metadata>
Created by potrace 1.16, written by Peter Selinger 2001-2019
</metadata>
<g transform="translate(0.000000,30.000000) scale(0.100000,-0.100000)"
fill="#000000" stroke="none">
<path d="M0 258 l0 -43 9 -14 9 -14 24 -2 23 -2 3 -37 3 -38 -19 -5 -20 -5 -6
-26 -6 -27 -6 -23 -7 -23 54 3 54 3 3 38 3 37 22 0 22 0 14 -9 14 -9 -6 -9 -6
-9 8 -13 9 -13 41 -8 42 -8 -7 32 -8 31 0 25 -1 25 55 5 55 5 0 25 0 25 -42
-2 -43 -2 0 60 0 60 -22 -7 -23 -7 -30 -11 -30 -11 0 -15 0 -15 -33 -3 -33 -3
-16 12 -15 13 6 28 6 28 -50 0 -50 0 0 -42z"/>
</g>
</svg>
