<?xml version="1.0" standalone="no"?>
<!DOCTYPE svg PUBLIC "-//W3C//DTD SVG 20010904//EN"
 "http://www.w3.org/TR/2001/REC-SVG-20010904/DTD/svg10.dtd">
<svg version="1.0" xmlns="http://www.w3.org/2000/svg"
 width="40.000000pt" height="41.000000pt" viewBox="0 0 40.000000 41.000000"
 preserveAspectRatio="xMidYMid meet">
<metadata>
Created by potrace 1.16, written by Peter Selinger 2001-2019
</metadata>
<g transform="translate(0.000000,41.000000) scale(0.100000,-0.100000)"
fill="#000000" stroke="none">
<path d="M0 344 l0 -66 31 6 32 6 13 -11 14 -11 0 -14 0 -13 -16 -15 -15 -16
-25 0 -24 0 0 -60 0 -60 31 0 30 0 20 -10 19 -11 -6 -25 -7 -26 14 -9 14 -9
32 0 32 0 11 19 10 20 0 25 0 26 51 0 50 0 -3 67 -3 68 36 -3 36 -3 12 15 13
16 -6 25 -6 25 -42 0 -41 0 6 56 6 56 -32 -7 -32 -7 -35 -7 -35 -6 -3 -28 -3
-28 -22 3 -22 3 0 35 0 35 -67 3 -68 3 0 -67z"/>
</g>
</svg>
