<?xml version="1.0" standalone="no"?>
<!DOCTYPE svg PUBLIC "-//W3C//DTD SVG 20010904//EN"
 "http://www.w3.org/TR/2001/REC-SVG-20010904/DTD/svg10.dtd">
<svg version="1.0" xmlns="http://www.w3.org/2000/svg"
 width="43.000000pt" height="41.000000pt" viewBox="0 0 43.000000 41.000000"
 preserveAspectRatio="xMidYMid meet">
<metadata>
Created by potrace 1.16, written by Peter Selinger 2001-2019
</metadata>
<g transform="translate(0.000000,41.000000) scale(0.100000,-0.100000)"
fill="#000000" stroke="none">
<path d="M80 400 l-45 -5 -3 -62 -3 -62 43 2 43 2 0 -25 0 -25 -50 -3 -50 -3
-9 -9 -8 -8 12 -51 12 -50 66 -3 66 -3 0 -45 1 -45 19 -3 20 -4 13 18 13 18 0
43 0 43 25 0 26 0 34 -14 33 -14 6 15 6 15 0 39 0 39 24 0 25 0 15 16 16 15 0
23 0 24 -15 12 -15 12 -30 -6 -30 -5 0 55 0 55 -17 -4 -18 -5 -37 -6 -37 -7
-3 -27 -3 -27 -33 -3 -33 -3 -14 11 -14 12 -3 31 -3 32 -45 -5z"/>
</g>
</svg>
