<?xml version="1.0" standalone="no"?>
<!DOCTYPE svg PUBLIC "-//W3C//DTD SVG 20010904//EN"
 "http://www.w3.org/TR/2001/REC-SVG-20010904/DTD/svg10.dtd">
<svg version="1.0" xmlns="http://www.w3.org/2000/svg"
 width="45.000000pt" height="43.000000pt" viewBox="0 0 45.000000 43.000000"
 preserveAspectRatio="xMidYMid meet">
<metadata>
Created by potrace 1.16, written by Peter Selinger 2001-2019
</metadata>
<g transform="translate(0.000000,43.000000) scale(0.100000,-0.100000)"
fill="#000000" stroke="none">
<path d="M80 421 l-45 -6 -3 -73 -3 -73 43 3 43 3 0 -15 0 -15 -53 -3 -53 -3
-6 -15 -6 -16 12 -54 12 -54 64 0 64 0 3 -47 3 -48 30 -3 29 -4 13 18 13 18 0
43 0 43 15 0 15 0 41 -16 41 -17 9 14 9 14 0 43 0 42 24 0 25 0 15 16 16 15 0
33 0 32 -12 12 -12 12 -33 0 -33 0 0 51 0 51 -37 -6 -38 -7 -27 -5 -27 -5 -3
-27 -3 -27 -23 -3 -23 -4 -15 12 -14 12 0 34 0 34 -12 -2 -13 -1 -45 -6z"/>
</g>
</svg>
