<?xml version="1.0" standalone="no"?>
<!DOCTYPE svg PUBLIC "-//W3C//DTD SVG 20010904//EN"
 "http://www.w3.org/TR/2001/REC-SVG-20010904/DTD/svg10.dtd">
<svg version="1.0" xmlns="http://www.w3.org/2000/svg"
 width="42.000000pt" height="40.000000pt" viewBox="0 0 42.000000 40.000000"
 preserveAspectRatio="xMidYMid meet">
<metadata>
Created by potrace 1.16, written by Peter Selinger 2001-2019
</metadata>
<g transform="translate(0.000000,40.000000) scale(0.100000,-0.100000)"
fill="#000000" stroke="none">
<path d="M90 335 l0 -60 -42 0 -43 0 -3 -28 -3 -27 16 -16 16 -16 40 0 41 1
-4 -32 -5 -32 -4 -15 -4 -15 50 -5 50 -5 3 -42 3 -43 50 0 49 0 1 13 1 12 -1
17 -2 17 23 6 23 5 25 3 25 2 10 9 10 9 3 64 3 64 -48 -3 -48 -3 -3 22 -3 22
20 11 21 10 25 -6 25 -6 0 60 0 60 -31 6 -31 6 -34 0 -33 0 5 -28 6 -29 -17
-16 -16 -17 -14 0 -14 0 -15 22 -16 22 0 22 0 21 -55 -1 -55 -1 0 -60z"/>
</g>
</svg>
