<?xml version="1.0" standalone="no"?>
<!DOCTYPE svg PUBLIC "-//W3C//DTD SVG 20010904//EN"
 "http://www.w3.org/TR/2001/REC-SVG-20010904/DTD/svg10.dtd">
<svg version="1.0" xmlns="http://www.w3.org/2000/svg"
 width="44.000000pt" height="42.000000pt" viewBox="0 0 44.000000 42.000000"
 preserveAspectRatio="xMidYMid meet">
<metadata>
Created by potrace 1.16, written by Peter Selinger 2001-2019
</metadata>
<g transform="translate(0.000000,42.000000) scale(0.100000,-0.100000)"
fill="#000000" stroke="none">
<path d="M90 358 l0 -57 -42 -3 -43 -3 -3 -38 -3 -37 16 -16 16 -17 40 -1 40
-1 -6 -25 -6 -25 -2 -20 -2 -20 50 -5 50 -5 3 -42 3 -43 59 0 59 0 6 20 6 20
-5 9 -6 9 16 6 16 6 30 0 29 0 13 13 13 13 2 73 2 74 -46 -5 -45 -6 -6 10 -6
10 11 11 11 11 35 -2 35 -3 0 69 0 70 -31 6 -31 6 -45 0 -45 0 5 -30 6 -29
-16 -17 -17 -16 -18 22 -18 22 0 23 0 23 -65 -2 -65 -1 0 -57z"/>
</g>
</svg>
