<?xml version="1.0" standalone="no"?>
<!DOCTYPE svg PUBLIC "-//W3C//DTD SVG 20010904//EN"
 "http://www.w3.org/TR/2001/REC-SVG-20010904/DTD/svg10.dtd">
<svg version="1.0" xmlns="http://www.w3.org/2000/svg"
 width="41.000000pt" height="33.000000pt" viewBox="0 0 41.000000 33.000000"
 preserveAspectRatio="xMidYMid meet">
<metadata>
Created by potrace 1.16, written by Peter Selinger 2001-2019
</metadata>
<g transform="translate(0.000000,33.000000) scale(0.100000,-0.100000)"
fill="#000000" stroke="none">
<path d="M6 274 l6 -59 4 -14 4 -13 25 6 24 6 11 -19 10 -20 0 -9 0 -9 -24
-11 -24 -10 -12 -52 -12 -52 9 -9 10 -10 49 3 49 3 3 38 3 38 17 -3 17 -3 3
-30 4 -30 11 -7 12 -8 58 0 58 0 -7 68 -6 68 48 0 49 -1 0 30 0 30 -33 3 -33
3 -10 25 -9 25 0 34 0 33 -16 6 -16 6 -49 0 -50 0 6 -34 7 -34 -11 -7 -11 -6
-20 6 -20 6 0 30 0 29 -47 0 -48 0 -22 6 -22 6 5 -58z"/>
</g>
</svg>
