<?xml version="1.0" standalone="no"?>
<!DOCTYPE svg PUBLIC "-//W3C//DTD SVG 20010904//EN"
 "http://www.w3.org/TR/2001/REC-SVG-20010904/DTD/svg10.dtd">
<svg version="1.0" xmlns="http://www.w3.org/2000/svg"
 width="40.000000pt" height="31.000000pt" viewBox="0 0 40.000000 31.000000"
 preserveAspectRatio="xMidYMid meet">
<metadata>
Created by potrace 1.16, written by Peter Selinger 2001-2019
</metadata>
<g transform="translate(0.000000,31.000000) scale(0.100000,-0.100000)"
fill="#000000" stroke="none">
<path d="M70 261 l0 -50 -16 -15 -15 -16 -20 0 -19 0 0 -15 0 -14 21 -11 20
-11 31 6 31 7 -6 -48 -6 -49 -6 -22 -7 -23 39 0 39 0 19 13 18 14 -6 31 -6 32
24 6 24 6 10 -6 10 -7 -5 -29 -6 -29 38 -6 39 -7 28 -8 28 -9 8 22 8 22 8 42
7 42 -26 7 -25 6 -9 -6 -9 -5 -18 13 -18 13 8 12 7 13 23 -6 23 -6 11 14 12
14 -3 54 -3 53 -152 3 -153 3 0 -50z"/>
</g>
</svg>
