<?xml version="1.0" standalone="no"?>
<!DOCTYPE svg PUBLIC "-//W3C//DTD SVG 20010904//EN"
 "http://www.w3.org/TR/2001/REC-SVG-20010904/DTD/svg10.dtd">
<svg version="1.0" xmlns="http://www.w3.org/2000/svg"
 width="31.000000pt" height="37.000000pt" viewBox="0 0 31.000000 37.000000"
 preserveAspectRatio="xMidYMid meet">
<metadata>
Created by potrace 1.16, written by Peter Selinger 2001-2019
</metadata>
<g transform="translate(0.000000,37.000000) scale(0.100000,-0.100000)"
fill="#000000" stroke="none">
<path d="M0 323 l0 -49 40 4 39 4 6 -25 7 -25 -4 -28 -3 -29 -27 -3 -27 -3 -5
-17 -5 -17 -6 -33 -7 -32 35 0 35 0 12 -15 12 -15 -6 -15 -5 -15 23 -6 24 -6
23 4 24 3 -3 17 -3 17 59 11 59 12 1 11 1 12 7 48 7 47 -29 -6 -29 -5 -22 21
-23 21 0 22 0 22 9 14 9 14 21 -6 20 -5 10 12 9 11 4 30 3 29 -18 4 -19 4 -34
-6 -34 -7 3 -22 2 -22 -47 -3 -48 -3 -1 13 -1 13 -2 20 -1 20 -47 3 -48 3 0
-48z"/>
</g>
</svg>
