<?xml version="1.0" standalone="no"?>
<!DOCTYPE svg PUBLIC "-//W3C//DTD SVG 20010904//EN"
 "http://www.w3.org/TR/2001/REC-SVG-20010904/DTD/svg10.dtd">
<svg version="1.0" xmlns="http://www.w3.org/2000/svg"
 width="39.000000pt" height="31.000000pt" viewBox="0 0 39.000000 31.000000"
 preserveAspectRatio="xMidYMid meet">
<metadata>
Created by potrace 1.16, written by Peter Selinger 2001-2019
</metadata>
<g transform="translate(0.000000,31.000000) scale(0.100000,-0.100000)"
fill="#000000" stroke="none">
<path d="M100 258 l0 -53 -9 -14 -9 -14 -36 7 -36 7 -6 -16 -6 -15 12 -15 13
-16 36 3 36 3 5 -60 5 -60 34 -3 34 -3 22 5 23 6 -2 32 -1 32 19 4 20 4 12
-16 12 -17 -5 -18 -4 -17 15 -13 15 -12 45 6 44 7 -4 37 -5 36 -4 21 -5 21
-22 -4 -23 -4 -20 14 -20 15 11 29 10 28 39 0 40 0 3 53 3 52 -61 0 -61 0 6
-20 6 -20 -6 -20 -6 -20 -41 0 -40 0 6 26 7 26 -12 14 -11 14 -39 0 -39 0 0
-52z"/>
</g>
</svg>
