<?xml version="1.0" standalone="no"?>
<!DOCTYPE svg PUBLIC "-//W3C//DTD SVG 20010904//EN"
 "http://www.w3.org/TR/2001/REC-SVG-20010904/DTD/svg10.dtd">
<svg version="1.0" xmlns="http://www.w3.org/2000/svg"
 width="41.000000pt" height="33.000000pt" viewBox="0 0 41.000000 33.000000"
 preserveAspectRatio="xMidYMid meet">
<metadata>
Created by potrace 1.16, written by Peter Selinger 2001-2019
</metadata>
<g transform="translate(0.000000,33.000000) scale(0.100000,-0.100000)"
fill="#000000" stroke="none">
<path d="M100 278 l0 -53 -8 -11 -7 -12 -40 2 -40 1 -3 -23 -4 -23 13 -15 12
-15 36 3 36 3 5 -60 5 -60 44 -3 44 -3 24 6 24 6 -3 32 -3 32 15 0 15 0 3 -32
3 -32 15 -11 14 -12 55 7 56 7 -6 46 -6 47 -5 23 -5 24 -23 -6 -23 -6 -18 14
-18 13 11 19 11 19 38 0 38 0 3 63 3 62 -72 0 -71 0 5 -27 5 -27 -5 -13 -5
-13 -28 0 -27 0 5 25 4 25 -12 15 -12 15 -49 0 -49 0 0 -52z"/>
</g>
</svg>
