<?xml version="1.0" standalone="no"?>
<!DOCTYPE svg PUBLIC "-//W3C//DTD SVG 20010904//EN"
 "http://www.w3.org/TR/2001/REC-SVG-20010904/DTD/svg10.dtd">
<svg version="1.0" xmlns="http://www.w3.org/2000/svg"
 width="48.000000pt" height="49.000000pt" viewBox="0 0 48.000000 49.000000"
 preserveAspectRatio="xMidYMid meet">
<metadata>
Created by potrace 1.16, written by Peter Selinger 2001-2019
</metadata>
<g transform="translate(0.000000,49.000000) scale(0.100000,-0.100000)"
fill="#000000" stroke="none">
<path d="M212 481 l-13 -8 3 -39 3 -39 -60 -5 -60 -5 -3 -40 -3 -40 -10 -10
-10 -10 -27 0 -27 0 0 -40 0 -40 22 -3 22 -3 16 -55 16 -54 43 0 44 0 15 -6
15 -6 -5 -33 -5 -34 25 -6 25 -7 19 4 18 3 0 25 0 25 50 12 49 12 12 5 12 5
-12 43 -13 43 4 11 3 10 30 -4 29 -4 21 20 22 20 -4 28 -3 29 -37 -2 -38 -2
-2 17 -1 17 -1 35 -1 35 -15 2 -15 2 -49 6 -48 7 6 30 6 31 -11 13 -11 14 -17
0 -16 0 -13 -9z"/>
</g>
</svg>
