<?xml version="1.0" standalone="no"?>
<!DOCTYPE svg PUBLIC "-//W3C//DTD SVG 20010904//EN"
 "http://www.w3.org/TR/2001/REC-SVG-20010904/DTD/svg10.dtd">
<svg version="1.0" xmlns="http://www.w3.org/2000/svg"
 width="35.000000pt" height="51.000000pt" viewBox="0 0 35.000000 51.000000"
 preserveAspectRatio="xMidYMid meet">
<metadata>
Created by potrace 1.16, written by Peter Selinger 2001-2019
</metadata>
<g transform="translate(0.000000,51.000000) scale(0.100000,-0.100000)"
fill="#000000" stroke="none">
<path d="M147 503 l-7 -6 0 -38 0 -39 -22 -5 -23 -5 -45 -2 -45 -3 0 -70 0
-70 32 2 32 3 5 -9 6 -9 -29 -5 -28 -6 -7 -53 -7 -53 -6 -22 -5 -23 56 0 56 0
0 -26 0 -25 10 -20 11 -19 34 0 34 0 11 19 10 20 0 20 0 21 43 0 42 0 23 7 24
6 -6 21 -7 21 -6 48 -6 47 -32 0 -33 0 -6 16 -6 16 0 9 0 9 35 0 34 0 11 20
11 21 -3 42 -3 42 -60 20 -60 20 -3 20 -4 20 -10 13 -10 12 -18 0 -17 0 -6 -7z"/>
</g>
</svg>
