<?xml version="1.0" standalone="no"?>
<!DOCTYPE svg PUBLIC "-//W3C//DTD SVG 20010904//EN"
 "http://www.w3.org/TR/2001/REC-SVG-20010904/DTD/svg10.dtd">
<svg version="1.0" xmlns="http://www.w3.org/2000/svg"
 width="33.000000pt" height="49.000000pt" viewBox="0 0 33.000000 49.000000"
 preserveAspectRatio="xMidYMid meet">
<metadata>
Created by potrace 1.16, written by Peter Selinger 2001-2019
</metadata>
<g transform="translate(0.000000,49.000000) scale(0.100000,-0.100000)"
fill="#000000" stroke="none">
<path d="M147 483 l-7 -6 0 -38 0 -39 -22 -5 -23 -5 -45 -2 -45 -3 0 -59 0
-60 35 0 35 -1 0 -19 0 -19 -22 -2 -23 -2 -4 -4 -3 -4 -10 -62 -10 -63 59 0
58 0 -6 -24 -6 -24 12 -21 11 -21 24 0 24 0 10 18 9 18 -1 19 -2 20 35 3 35 2
32 5 31 6 -9 32 -9 32 0 29 0 28 -26 -5 -25 -4 -15 14 -14 14 0 25 0 24 35 0
34 0 11 20 11 21 -3 32 -3 32 -60 20 -60 20 -3 20 -4 20 -10 13 -10 12 -8 0
-7 0 -6 -7z"/>
</g>
</svg>
