<?xml version="1.0" standalone="no"?>
<!DOCTYPE svg PUBLIC "-//W3C//DTD SVG 20010904//EN"
 "http://www.w3.org/TR/2001/REC-SVG-20010904/DTD/svg10.dtd">
<svg version="1.0" xmlns="http://www.w3.org/2000/svg"
 width="45.000000pt" height="50.000000pt" viewBox="0 0 45.000000 50.000000"
 preserveAspectRatio="xMidYMid meet">
<metadata>
Created by potrace 1.16, written by Peter Selinger 2001-2019
</metadata>
<g transform="translate(0.000000,50.000000) scale(0.100000,-0.100000)"
fill="#000000" stroke="none">
<path d="M231 486 l-12 -14 3 -29 3 -28 -63 -3 -64 -3 6 -24 6 -24 -10 -25
-10 -26 -35 0 -35 0 -11 -27 -11 -28 9 -25 8 -25 30 -5 29 -5 8 -35 9 -35 11
-22 11 -22 41 5 41 5 14 -10 14 -9 1 -34 1 -33 43 -3 43 -3 15 12 14 11 0 23
0 23 16 6 16 6 23 0 23 0 16 6 15 6 -5 46 -5 47 -5 23 -5 23 -36 -3 -37 -3 -4
19 -4 19 14 9 13 8 33 -5 32 -6 0 71 0 70 -12 0 -13 0 -38 -9 -37 -9 -7 12 -7
11 2 22 3 22 -11 20 -11 21 -33 0 -34 0 -11 -14z"/>
</g>
</svg>
