<?xml version="1.0" standalone="no"?>
<!DOCTYPE svg PUBLIC "-//W3C//DTD SVG 20010904//EN"
 "http://www.w3.org/TR/2001/REC-SVG-20010904/DTD/svg10.dtd">
<svg version="1.0" xmlns="http://www.w3.org/2000/svg"
 width="32.000000pt" height="47.000000pt" viewBox="0 0 32.000000 47.000000"
 preserveAspectRatio="xMidYMid meet">
<metadata>
Created by potrace 1.16, written by Peter Selinger 2001-2019
</metadata>
<g transform="translate(0.000000,47.000000) scale(0.100000,-0.100000)"
fill="#000000" stroke="none">
<path d="M145 459 l-7 -10 6 -24 6 -24 -18 -10 -19 -10 -56 -2 -57 -2 0 -55 0
-54 38 7 39 6 12 -15 13 -16 -6 -24 -6 -25 -32 -3 -32 -3 -12 -58 -11 -57 51
0 51 0 15 -10 15 -9 0 -28 0 -28 35 0 35 0 0 30 0 30 44 3 43 3 12 11 11 11
-3 41 -4 41 -11 13 -10 12 -20 -6 -19 -6 -9 13 -9 14 0 15 0 15 10 15 9 14 36
-2 36 -3 -3 53 -3 53 -40 19 -40 19 -15 7 -15 7 -3 22 -3 21 -24 0 -24 0 -6
-11z"/>
</g>
</svg>
