<?xml version="1.0" standalone="no"?>
<!DOCTYPE svg PUBLIC "-//W3C//DTD SVG 20010904//EN"
 "http://www.w3.org/TR/2001/REC-SVG-20010904/DTD/svg10.dtd">
<svg version="1.0" xmlns="http://www.w3.org/2000/svg"
 width="47.000000pt" height="31.000000pt" viewBox="0 0 47.000000 31.000000"
 preserveAspectRatio="xMidYMid meet">
<metadata>
Created by potrace 1.16, written by Peter Selinger 2001-2019
</metadata>
<g transform="translate(0.000000,31.000000) scale(0.100000,-0.100000)"
fill="#000000" stroke="none">
<path d="M88 275 l4 -35 -6 -24 -6 -24 -19 5 -19 5 -21 -11 -21 -12 0 -13 0
-14 15 -12 16 -13 37 -1 37 -1 -1 -25 0 -25 -8 -31 -7 -32 44 -6 44 -7 16 7
16 6 3 41 3 42 14 0 15 0 8 -31 8 -31 47 -7 48 -6 10 -3 10 -2 5 50 5 49 34 7
34 7 8 14 9 13 -3 15 -2 15 -45 0 -45 0 -3 64 -3 63 -31 -6 -30 -6 -20 0 -20
0 6 -15 6 -16 -13 -19 -12 -20 -20 0 -20 0 -13 9 -14 8 3 19 4 19 -8 13 -8 12
-48 0 -47 0 4 -35z"/>
</g>
</svg>
