<?xml version="1.0" standalone="no"?>
<!DOCTYPE svg PUBLIC "-//W3C//DTD SVG 20010904//EN"
 "http://www.w3.org/TR/2001/REC-SVG-20010904/DTD/svg10.dtd">
<svg version="1.0" xmlns="http://www.w3.org/2000/svg"
 width="36.000000pt" height="38.000000pt" viewBox="0 0 36.000000 38.000000"
 preserveAspectRatio="xMidYMid meet">
<metadata>
Created by potrace 1.16, written by Peter Selinger 2001-2019
</metadata>
<g transform="translate(0.000000,38.000000) scale(0.100000,-0.100000)"
fill="#000000" stroke="none">
<path d="M2 328 l3 -53 28 3 29 3 14 -12 14 -11 0 -29 0 -28 -19 -11 -20 -10
-19 0 -19 0 -7 -31 -6 -32 0 -19 0 -20 55 4 55 5 0 -33 0 -33 20 -11 20 -10
25 6 25 6 0 18 0 18 46 11 47 12 -6 57 -6 57 9 15 9 15 28 0 28 0 0 30 0 30
-32 -1 -33 -2 0 49 0 49 -2 0 -3 0 -45 -14 -45 -13 -3 -22 -3 -21 -32 0 -32 0
-14 9 -14 9 7 25 6 25 -16 6 -16 6 -39 0 -40 0 3 -52z"/>
</g>
</svg>
