<?xml version="1.0" standalone="no"?>
<!DOCTYPE svg PUBLIC "-//W3C//DTD SVG 20010904//EN"
 "http://www.w3.org/TR/2001/REC-SVG-20010904/DTD/svg10.dtd">
<svg version="1.0" xmlns="http://www.w3.org/2000/svg"
 width="38.000000pt" height="40.000000pt" viewBox="0 0 38.000000 40.000000"
 preserveAspectRatio="xMidYMid meet">
<metadata>
Created by potrace 1.16, written by Peter Selinger 2001-2019
</metadata>
<g transform="translate(0.000000,40.000000) scale(0.100000,-0.100000)"
fill="#000000" stroke="none">
<path d="M2 338 l3 -63 30 0 30 0 13 -8 12 -8 0 -19 0 -19 -19 -11 -20 -10
-19 0 -19 0 -7 -31 -6 -32 0 -28 0 -29 55 0 55 0 0 -30 0 -29 21 -12 21 -11
34 7 34 6 0 18 0 19 46 11 46 12 -2 57 -2 57 1 12 1 12 33 3 32 3 0 40 0 40
-32 3 -33 3 0 45 0 44 -12 0 -13 0 -45 -14 -45 -13 -3 -22 -3 -21 -19 0 -18 0
-16 6 -16 6 6 25 7 25 -14 9 -14 9 -53 0 -53 0 3 -62z"/>
</g>
</svg>
