<?xml version="1.0" standalone="no"?>
<!DOCTYPE svg PUBLIC "-//W3C//DTD SVG 20010904//EN"
 "http://www.w3.org/TR/2001/REC-SVG-20010904/DTD/svg10.dtd">
<svg version="1.0" xmlns="http://www.w3.org/2000/svg"
 width="42.000000pt" height="41.000000pt" viewBox="0 0 42.000000 41.000000"
 preserveAspectRatio="xMidYMid meet">
<metadata>
Created by potrace 1.16, written by Peter Selinger 2001-2019
</metadata>
<g transform="translate(0.000000,41.000000) scale(0.100000,-0.100000)"
fill="#000000" stroke="none">
<path d="M88 358 l-3 -53 -37 -3 -38 -3 -6 -24 -6 -23 4 -18 3 -18 24 -6 25
-6 9 -29 8 -30 0 -27 0 -28 55 0 54 0 0 -40 0 -40 26 -6 27 -7 26 9 26 9 3 43
3 43 53 -6 52 -7 12 27 12 26 0 34 0 35 -41 0 -40 0 -15 15 -15 15 3 18 4 17
42 -2 42 -2 0 70 0 69 -60 0 -60 0 0 -33 0 -33 -12 -12 -12 -12 -23 0 -23 0 0
39 0 39 -16 6 -16 6 -43 0 -44 0 -3 -52z"/>
</g>
</svg>
