<?xml version="1.0" standalone="no"?>
<!DOCTYPE svg PUBLIC "-//W3C//DTD SVG 20010904//EN"
 "http://www.w3.org/TR/2001/REC-SVG-20010904/DTD/svg10.dtd">
<svg version="1.0" xmlns="http://www.w3.org/2000/svg"
 width="40.000000pt" height="39.000000pt" viewBox="0 0 40.000000 39.000000"
 preserveAspectRatio="xMidYMid meet">
<metadata>
Created by potrace 1.16, written by Peter Selinger 2001-2019
</metadata>
<g transform="translate(0.000000,39.000000) scale(0.100000,-0.100000)"
fill="#000000" stroke="none">
<path d="M90 341 l0 -50 -12 -8 -13 -7 -27 3 -27 2 -7 -25 -6 -25 6 -10 7 -10
13 5 13 5 10 -13 9 -13 13 -43 12 -42 -6 -10 -6 -9 58 -3 58 -3 -3 -37 -3 -37
24 -6 25 -7 21 12 21 11 0 41 0 41 53 -7 54 -6 11 26 12 25 0 24 0 24 -40 -1
-39 0 -16 16 -16 16 3 27 3 28 43 0 42 0 0 58 0 57 -50 0 -50 0 0 -33 0 -33
-12 -12 -12 -12 -33 0 -33 0 -1 13 -1 12 2 24 2 24 -14 8 -13 9 -37 0 -38 0 0
-49z"/>
</g>
</svg>
