<?xml version="1.0" standalone="no"?>
<!DOCTYPE svg PUBLIC "-//W3C//DTD SVG 20010904//EN"
 "http://www.w3.org/TR/2001/REC-SVG-20010904/DTD/svg10.dtd">
<svg version="1.0" xmlns="http://www.w3.org/2000/svg"
 width="38.000000pt" height="30.000000pt" viewBox="0 0 38.000000 30.000000"
 preserveAspectRatio="xMidYMid meet">
<metadata>
Created by potrace 1.16, written by Peter Selinger 2001-2019
</metadata>
<g transform="translate(0.000000,30.000000) scale(0.100000,-0.100000)"
fill="#000000" stroke="none">
<path d="M90 239 l0 -61 -25 6 -25 6 -21 -10 -20 -11 3 -22 3 -22 49 3 48 3
-3 -63 -4 -63 38 -3 38 -3 15 12 15 13 -5 22 -6 23 21 6 21 7 11 -11 11 -11 1
-23 0 -22 59 -7 60 -8 1 3 1 2 -4 57 -4 58 -24 -6 -23 -6 -12 26 -12 25 13 16
13 16 26 -3 26 -3 3 53 3 52 -5 0 -5 0 -51 -11 -51 -11 5 -13 4 -13 -11 -11
-11 -11 -25 0 -26 0 -13 9 -14 8 4 29 3 29 -47 3 -48 3 0 -62z"/>
</g>
</svg>
