<?xml version="1.0" standalone="no"?>
<!DOCTYPE svg PUBLIC "-//W3C//DTD SVG 20010904//EN"
 "http://www.w3.org/TR/2001/REC-SVG-20010904/DTD/svg10.dtd">
<svg version="1.0" xmlns="http://www.w3.org/2000/svg"
 width="50.000000pt" height="34.000000pt" viewBox="0 0 50.000000 34.000000"
 preserveAspectRatio="xMidYMid meet">
<metadata>
Created by potrace 1.16, written by Peter Selinger 2001-2019
</metadata>
<g transform="translate(0.000000,34.000000) scale(0.100000,-0.100000)"
fill="#000000" stroke="none">
<path d="M74 278 l1 -63 -35 -5 -35 -5 -3 -22 -3 -22 21 -11 21 -11 17 5 17 6
12 -8 13 -8 -16 -63 -16 -62 4 -4 4 -5 58 10 58 9 14 12 14 11 0 24 0 24 8 0
7 0 10 -22 10 -22 50 -14 50 -13 21 -6 22 -5 10 34 10 33 6 27 6 26 20 -5 20
-5 15 12 15 12 0 33 0 33 -15 12 -15 12 -24 -6 -25 -6 -11 19 -10 20 0 40 0
41 -163 0 -164 0 1 -62z"/>
</g>
</svg>
