<?xml version="1.0" standalone="no"?>
<!DOCTYPE svg PUBLIC "-//W3C//DTD SVG 20010904//EN"
 "http://www.w3.org/TR/2001/REC-SVG-20010904/DTD/svg10.dtd">
<svg version="1.0" xmlns="http://www.w3.org/2000/svg"
 width="48.000000pt" height="32.000000pt" viewBox="0 0 48.000000 32.000000"
 preserveAspectRatio="xMidYMid meet">
<metadata>
Created by potrace 1.16, written by Peter Selinger 2001-2019
</metadata>
<g transform="translate(0.000000,32.000000) scale(0.100000,-0.100000)"
fill="#000000" stroke="none">
<path d="M78 265 l4 -56 -12 -14 -12 -15 -23 6 -23 6 -7 -13 -8 -12 16 -12 17
-12 23 4 22 3 14 -9 13 -9 -10 -48 -11 -49 -6 -16 -6 -16 51 8 52 8 14 12 14
11 0 24 0 24 18 0 17 0 10 -22 10 -22 45 -12 45 -12 16 -7 17 -6 10 33 10 33
7 29 6 28 21 -6 22 -5 13 11 13 10 0 23 0 23 -13 10 -13 11 -24 -6 -23 -6 -13
18 -14 19 0 43 0 43 -152 0 -153 0 3 -55z"/>
</g>
</svg>
