<?xml version="1.0" standalone="no"?>
<!DOCTYPE svg PUBLIC "-//W3C//DTD SVG 20010904//EN"
 "http://www.w3.org/TR/2001/REC-SVG-20010904/DTD/svg10.dtd">
<svg version="1.0" xmlns="http://www.w3.org/2000/svg"
 width="39.000000pt" height="46.000000pt" viewBox="0 0 39.000000 46.000000"
 preserveAspectRatio="xMidYMid meet">
<metadata>
Created by potrace 1.16, written by Peter Selinger 2001-2019
</metadata>
<g transform="translate(0.000000,46.000000) scale(0.100000,-0.100000)"
fill="#000000" stroke="none">
<path d="M114 445 l-6 -15 6 -25 6 -24 -57 -3 -58 -3 0 -145 0 -145 58 -3 57
-3 0 -35 0 -35 16 -6 16 -6 27 9 26 10 -2 19 -2 20 12 7 12 8 36 0 36 0 5 6 6
6 -14 33 -14 34 0 16 0 15 38 0 38 0 18 13 18 13 -4 29 -3 30 -25 0 -25 0 -12
8 -13 8 0 55 0 54 -7 -2 -8 -2 -45 13 -45 13 -13 11 -13 10 5 14 5 13 -35 0
-35 0 -5 -15z"/>
</g>
</svg>
