<?xml version="1.0" standalone="no"?>
<!DOCTYPE svg PUBLIC "-//W3C//DTD SVG 20010904//EN"
 "http://www.w3.org/TR/2001/REC-SVG-20010904/DTD/svg10.dtd">
<svg version="1.0" xmlns="http://www.w3.org/2000/svg"
 width="36.000000pt" height="50.000000pt" viewBox="0 0 36.000000 50.000000"
 preserveAspectRatio="xMidYMid meet">
<metadata>
Created by potrace 1.16, written by Peter Selinger 2001-2019
</metadata>
<g transform="translate(0.000000,50.000000) scale(0.100000,-0.100000)"
fill="#000000" stroke="none">
<path d="M165 484 l-16 -17 5 -23 6 -24 -65 0 -65 0 0 -53 0 -53 12 -12 12
-12 28 0 28 0 0 -12 0 -11 -16 -18 -16 -17 -33 5 -34 5 -7 -26 -6 -26 13 -42
14 -43 68 -3 67 -3 -5 -22 -6 -23 10 -27 11 -27 34 0 34 0 6 16 6 16 0 18 0
19 18 4 17 5 38 7 37 6 0 15 0 14 -10 18 -10 17 -10 43 -11 43 -27 -3 -27 -3
0 30 0 30 38 3 38 3 9 25 10 25 0 29 0 29 -12 8 -13 8 -45 10 -45 10 -4 20 -3
20 -12 7 -11 8 -17 0 -17 0 -16 -16z"/>
</g>
</svg>
