<?xml version="1.0" standalone="no"?>
<!DOCTYPE svg PUBLIC "-//W3C//DTD SVG 20010904//EN"
 "http://www.w3.org/TR/2001/REC-SVG-20010904/DTD/svg10.dtd">
<svg version="1.0" xmlns="http://www.w3.org/2000/svg"
 width="34.000000pt" height="48.000000pt" viewBox="0 0 34.000000 48.000000"
 preserveAspectRatio="xMidYMid meet">
<metadata>
Created by potrace 1.16, written by Peter Selinger 2001-2019
</metadata>
<g transform="translate(0.000000,48.000000) scale(0.100000,-0.100000)"
fill="#000000" stroke="none">
<path d="M167 466 l-14 -15 4 -25 5 -26 -66 0 -66 0 0 -44 0 -44 14 -11 13
-11 24 2 24 3 3 -23 4 -24 -18 -20 -18 -19 -32 6 -32 6 -6 -19 -6 -19 12 -39
13 -39 69 -3 68 -3 -5 -26 -5 -27 9 -23 9 -23 24 0 25 0 6 20 6 20 -6 10 -6
10 23 9 23 10 38 6 37 6 0 5 0 4 -10 18 -10 17 -10 41 -10 41 -24 -4 -24 -5
-11 20 -11 21 10 25 9 25 38 3 38 3 9 37 9 37 -12 14 -12 15 -44 6 -43 7 -12
14 -12 14 6 10 6 9 -16 6 -16 6 -3 0 -4 0 -14 -14z"/>
</g>
</svg>
