<?xml version="1.0" standalone="no"?>
<!DOCTYPE svg PUBLIC "-//W3C//DTD SVG 20010904//EN"
 "http://www.w3.org/TR/2001/REC-SVG-20010904/DTD/svg10.dtd">
<svg version="1.0" xmlns="http://www.w3.org/2000/svg"
 width="42.000000pt" height="42.000000pt" viewBox="0 0 42.000000 42.000000"
 preserveAspectRatio="xMidYMid meet">
<metadata>
Created by potrace 1.16, written by Peter Selinger 2001-2019
</metadata>
<g transform="translate(0.000000,42.000000) scale(0.100000,-0.100000)"
fill="#000000" stroke="none">
<path d="M218 383 l-3 -38 -57 -3 -58 -3 0 -54 0 -55 -34 0 -35 0 -15 -16 -16
-15 0 -9 0 -9 10 -25 9 -25 38 -3 38 -3 5 -50 5 -50 54 -3 54 -3 8 13 9 13 0
23 0 23 18 -3 17 -3 3 -35 3 -35 9 -9 8 -8 66 7 66 7 0 18 0 19 -9 23 -10 23
-5 28 -6 27 -26 0 -25 0 3 22 3 23 38 -3 37 -4 0 76 0 75 -37 6 -38 7 -17 5
-18 4 0 24 0 23 -16 6 -16 6 -28 0 -29 0 -3 -37z"/>
</g>
</svg>
