<?xml version="1.0" standalone="no"?>
<!DOCTYPE svg PUBLIC "-//W3C//DTD SVG 20010904//EN"
 "http://www.w3.org/TR/2001/REC-SVG-20010904/DTD/svg10.dtd">
<svg version="1.0" xmlns="http://www.w3.org/2000/svg"
 width="39.000000pt" height="47.000000pt" viewBox="0 0 39.000000 47.000000"
 preserveAspectRatio="xMidYMid meet">
<metadata>
Created by potrace 1.16, written by Peter Selinger 2001-2019
</metadata>
<g transform="translate(0.000000,47.000000) scale(0.100000,-0.100000)"
fill="#000000" stroke="none">
<path d="M130 460 l-15 -9 0 -28 0 -28 -57 -3 -58 -3 0 -50 0 -49 24 6 24 6
22 -12 21 -11 -3 -37 -3 -37 -21 2 -22 2 -11 -43 -11 -43 -6 -17 -6 -16 45 0
45 0 -5 -19 -5 -20 26 -25 25 -26 11 0 10 0 21 21 21 21 -6 13 -5 13 22 6 22
6 21 0 22 0 6 16 6 16 0 50 0 50 33 -6 34 -6 17 19 18 20 -7 20 -6 21 -29 0
-29 0 -15 16 -16 15 0 37 0 37 -56 -3 -56 -4 4 32 3 32 -20 14 -20 13 -15 -9z"/>
</g>
</svg>
