<?xml version="1.0" standalone="no"?>
<!DOCTYPE svg PUBLIC "-//W3C//DTD SVG 20010904//EN"
 "http://www.w3.org/TR/2001/REC-SVG-20010904/DTD/svg10.dtd">
<svg version="1.0" xmlns="http://www.w3.org/2000/svg"
 width="41.000000pt" height="49.000000pt" viewBox="0 0 41.000000 49.000000"
 preserveAspectRatio="xMidYMid meet">
<metadata>
Created by potrace 1.16, written by Peter Selinger 2001-2019
</metadata>
<g transform="translate(0.000000,49.000000) scale(0.100000,-0.100000)"
fill="#000000" stroke="none">
<path d="M127 479 l-18 -11 3 -26 3 -27 -57 -3 -58 -3 0 -61 0 -60 27 5 28 5
17 -9 18 -10 0 -24 0 -25 -23 0 -24 0 -16 -60 -17 -60 0 -10 0 -10 39 0 39 0
5 -30 6 -29 26 -17 25 -16 25 6 26 7 12 27 12 27 10 7 10 8 26 0 27 0 6 16 6
16 0 49 0 49 30 -7 31 -6 19 18 20 18 0 18 0 17 -6 16 -6 16 -28 0 -29 0 -15
16 -16 15 0 39 0 39 -55 -6 -55 -6 6 30 6 30 -23 17 -23 16 -11 0 -10 -1 -18
-10z"/>
</g>
</svg>
