<?xml version="1.0" standalone="no"?>
<!DOCTYPE svg PUBLIC "-//W3C//DTD SVG 20010904//EN"
 "http://www.w3.org/TR/2001/REC-SVG-20010904/DTD/svg10.dtd">
<svg version="1.0" xmlns="http://www.w3.org/2000/svg"
 width="42.000000pt" height="41.000000pt" viewBox="0 0 42.000000 41.000000"
 preserveAspectRatio="xMidYMid meet">
<metadata>
Created by potrace 1.16, written by Peter Selinger 2001-2019
</metadata>
<g transform="translate(0.000000,41.000000) scale(0.100000,-0.100000)"
fill="#000000" stroke="none">
<path d="M132 401 l-14 -8 3 -19 4 -19 -8 -12 -8 -13 -49 0 -50 0 -6 -23 -5
-24 3 -39 3 -39 37 0 37 0 12 -12 12 -12 -6 -15 -6 -15 -38 -3 -38 -3 0 -65 0
-64 35 -8 35 -8 38 6 38 6 -2 32 -3 31 8 13 8 13 14 -12 15 -12 -7 -30 -6 -29
13 -9 14 -9 50 0 50 0 13 9 14 8 -11 39 -11 39 0 10 0 10 41 1 41 1 9 14 9 14
-2 45 -3 45 -43 3 -44 3 7 40 7 39 -16 6 -16 6 -53 7 -52 6 3 18 3 18 -12 15
-11 14 -22 0 -21 0 -13 -9z"/>
</g>
</svg>
