<?xml version="1.0" standalone="no"?>
<!DOCTYPE svg PUBLIC "-//W3C//DTD SVG 20010904//EN"
 "http://www.w3.org/TR/2001/REC-SVG-20010904/DTD/svg10.dtd">
<svg version="1.0" xmlns="http://www.w3.org/2000/svg"
 width="50.000000pt" height="46.000000pt" viewBox="0 0 50.000000 46.000000"
 preserveAspectRatio="xMidYMid meet">
<metadata>
Created by potrace 1.16, written by Peter Selinger 2001-2019
</metadata>
<g transform="translate(0.000000,46.000000) scale(0.100000,-0.100000)"
fill="#000000" stroke="none">
<path d="M234 448 l-8 -12 2 -28 2 -27 -62 -3 -63 -3 -3 -51 -3 -51 -24 5 -25
4 -25 -16 -25 -16 0 -18 1 -17 14 -18 14 -19 19 6 20 7 7 -33 6 -33 10 -25 9
-25 56 3 56 4 -4 -14 -5 -13 14 -28 14 -27 15 0 15 0 20 10 19 11 0 30 0 31
55 -4 55 -3 -6 58 -7 57 32 0 32 0 20 10 19 11 0 23 0 24 -16 6 -16 6 -29 0
-29 0 0 54 0 54 -47 17 -48 17 -13 4 -14 4 -5 20 -5 20 -19 0 -18 0 -7 -12z"/>
</g>
</svg>
