<?xml version="1.0" standalone="no"?>
<!DOCTYPE svg PUBLIC "-//W3C//DTD SVG 20010904//EN"
 "http://www.w3.org/TR/2001/REC-SVG-20010904/DTD/svg10.dtd">
<svg version="1.0" xmlns="http://www.w3.org/2000/svg"
 width="49.000000pt" height="42.000000pt" viewBox="0 0 49.000000 42.000000"
 preserveAspectRatio="xMidYMid meet">
<metadata>
Created by potrace 1.16, written by Peter Selinger 2001-2019
</metadata>
<g transform="translate(0.000000,42.000000) scale(0.100000,-0.100000)"
fill="#000000" stroke="none">
<path d="M205 408 l-4 -13 -3 -30 -3 -30 -48 -3 -48 -3 -4 -12 -4 -12 -11 -42
-11 -43 -34 0 -35 0 0 -39 0 -39 15 -12 15 -12 25 6 25 6 0 -59 0 -59 31 -6
32 -6 43 0 43 0 3 37 3 38 23 3 22 3 0 -29 0 -30 43 -7 42 -6 28 -5 29 -6 -3
57 -3 58 35 11 34 11 3 43 3 42 -35 0 -36 0 0 54 0 53 -47 12 -48 12 -15 8
-15 8 0 24 0 24 -43 3 -42 3 -5 -13z"/>
</g>
</svg>
