<?xml version="1.0" standalone="no"?>
<!DOCTYPE svg PUBLIC "-//W3C//DTD SVG 20010904//EN"
 "http://www.w3.org/TR/2001/REC-SVG-20010904/DTD/svg10.dtd">
<svg version="1.0" xmlns="http://www.w3.org/2000/svg"
 width="40.000000pt" height="42.000000pt" viewBox="0 0 40.000000 42.000000"
 preserveAspectRatio="xMidYMid meet">
<metadata>
Created by potrace 1.16, written by Peter Selinger 2001-2019
</metadata>
<g transform="translate(0.000000,42.000000) scale(0.100000,-0.100000)"
fill="#000000" stroke="none">
<path d="M142 408 l-11 -14 6 -23 6 -23 -14 -9 -14 -9 -53 0 -53 0 3 -57 3
-58 33 3 32 3 0 -30 0 -30 -19 -11 -20 -10 -14 6 -14 5 -6 -14 -5 -13 5 -47 6
-47 42 0 43 0 10 13 11 13 -2 30 -2 29 23 3 23 4 16 -13 15 -13 -5 -48 -6 -48
35 0 35 0 34 14 35 15 16 60 17 60 21 -2 21 -2 3 37 3 37 -21 11 -22 12 -24
-6 -24 -6 0 49 0 49 -44 -5 -45 -5 -25 6 -25 6 5 28 5 27 -13 18 -14 19 -12
-14z"/>
</g>
</svg>
