<?xml version="1.0" standalone="no"?>
<!DOCTYPE svg PUBLIC "-//W3C//DTD SVG 20010904//EN"
 "http://www.w3.org/TR/2001/REC-SVG-20010904/DTD/svg10.dtd">
<svg version="1.0" xmlns="http://www.w3.org/2000/svg"
 width="45.000000pt" height="42.000000pt" viewBox="0 0 45.000000 42.000000"
 preserveAspectRatio="xMidYMid meet">
<metadata>
Created by potrace 1.16, written by Peter Selinger 2001-2019
</metadata>
<g transform="translate(0.000000,42.000000) scale(0.100000,-0.100000)"
fill="#000000" stroke="none">
<path d="M157 414 l-7 -7 0 -39 0 -38 -12 -1 -13 -2 -55 -1 -55 -1 -3 -46 -3
-47 16 -16 16 -16 29 0 28 0 5 -14 6 -15 -16 -12 -15 -13 -33 3 -33 2 -4 -68
-5 -68 2 -2 1 -3 75 -2 74 -3 0 35 0 35 8 13 8 12 20 -10 19 -11 0 -39 0 -40
66 0 66 0 -5 33 -5 32 -7 22 -7 23 50 0 51 0 16 16 16 16 -3 37 -3 36 -40 3
-40 3 -7 12 -8 12 0 41 0 42 -44 11 -45 11 -20 0 -20 0 -9 33 -8 32 -20 3 -20
3 -7 -7z"/>
</g>
</svg>
