<?xml version="1.0" standalone="no"?>
<!DOCTYPE svg PUBLIC "-//W3C//DTD SVG 20010904//EN"
 "http://www.w3.org/TR/2001/REC-SVG-20010904/DTD/svg10.dtd">
<svg version="1.0" xmlns="http://www.w3.org/2000/svg"
 width="43.000000pt" height="42.000000pt" viewBox="0 0 43.000000 42.000000"
 preserveAspectRatio="xMidYMid meet">
<metadata>
Created by potrace 1.16, written by Peter Selinger 2001-2019
</metadata>
<g transform="translate(0.000000,42.000000) scale(0.100000,-0.100000)"
fill="#000000" stroke="none">
<path d="M152 411 l-14 -8 3 -24 3 -24 -7 -12 -8 -13 -48 0 -48 0 -7 -40 -6
-40 6 -26 6 -25 36 3 36 3 4 -18 4 -19 -21 -20 -22 -19 -28 6 -29 6 -6 -18 -6
-19 13 -44 13 -44 33 -8 33 -9 32 3 31 3 1 28 1 28 11 11 11 11 15 -6 16 -6 0
-20 0 -20 8 -5 9 -5 66 -7 66 -7 -6 51 -6 51 21 -6 20 -5 21 21 21 21 0 26 0
27 -22 18 -21 19 -22 0 -22 0 5 55 4 55 -15 0 -16 0 -6 -10 -6 -10 -44 0 -44
0 6 36 6 37 -18 13 -19 14 -15 0 -16 0 -13 -9z"/>
</g>
</svg>
