<?xml version="1.0" standalone="no"?>
<!DOCTYPE svg PUBLIC "-//W3C//DTD SVG 20010904//EN"
 "http://www.w3.org/TR/2001/REC-SVG-20010904/DTD/svg10.dtd">
<svg version="1.0" xmlns="http://www.w3.org/2000/svg"
 width="43.000000pt" height="42.000000pt" viewBox="0 0 43.000000 42.000000"
 preserveAspectRatio="xMidYMid meet">
<metadata>
Created by potrace 1.16, written by Peter Selinger 2001-2019
</metadata>
<g transform="translate(0.000000,42.000000) scale(0.100000,-0.100000)"
fill="#000000" stroke="none">
<path d="M97 414 l-7 -7 0 -41 0 -41 -8 -12 -7 -11 -35 -4 -35 -3 0 -39 0 -39
15 -8 15 -8 16 -5 17 -5 7 -50 7 -50 51 -3 52 -3 -3 -34 -4 -34 14 -8 13 -9
35 0 36 0 12 12 12 12 0 38 0 38 59 0 59 0 6 54 7 55 -11 21 -11 21 -22 -1
-22 -2 -12 1 -13 1 0 10 0 10 35 0 34 0 6 33 6 33 -3 39 -3 40 -156 3 -155 2
-7 -6z"/>
</g>
</svg>
