<?xml version="1.0" standalone="no"?>
<!DOCTYPE svg PUBLIC "-//W3C//DTD SVG 20010904//EN"
 "http://www.w3.org/TR/2001/REC-SVG-20010904/DTD/svg10.dtd">
<svg version="1.0" xmlns="http://www.w3.org/2000/svg"
 width="51.000000pt" height="41.000000pt" viewBox="0 0 51.000000 41.000000"
 preserveAspectRatio="xMidYMid meet">
<metadata>
Created by potrace 1.16, written by Peter Selinger 2001-2019
</metadata>
<g transform="translate(0.000000,41.000000) scale(0.100000,-0.100000)"
fill="#000000" stroke="none">
<path d="M87 403 l-7 -6 0 -36 0 -36 -9 -14 -9 -14 -29 -1 -28 -1 -3 -42 -3
-43 19 0 18 0 25 -62 24 -63 25 -3 25 -3 23 -5 23 -5 -6 -20 -7 -20 12 -14 12
-15 37 0 36 0 12 8 12 7 10 28 11 27 27 0 28 0 23 6 23 7 -5 26 -5 26 -7 39
-7 39 18 -7 18 -6 34 6 35 7 10 23 11 24 -11 25 -12 25 -39 0 -39 0 -6 25 -6
25 6 25 6 25 -159 0 -160 0 -6 -7z"/>
</g>
</svg>
