<?xml version="1.0" standalone="no"?>
<!DOCTYPE svg PUBLIC "-//W3C//DTD SVG 20010904//EN"
 "http://www.w3.org/TR/2001/REC-SVG-20010904/DTD/svg10.dtd">
<svg version="1.0" xmlns="http://www.w3.org/2000/svg"
 width="40.000000pt" height="31.000000pt" viewBox="0 0 40.000000 31.000000"
 preserveAspectRatio="xMidYMid meet">
<metadata>
Created by potrace 1.16, written by Peter Selinger 2001-2019
</metadata>
<g transform="translate(0.000000,31.000000) scale(0.100000,-0.100000)"
fill="#000000" stroke="none">
<path d="M23 303 l-23 -4 0 -44 0 -44 12 -7 12 -8 31 0 30 -1 0 -40 0 -40 -37
1 -36 1 -6 -21 -6 -21 0 -37 0 -38 44 0 44 0 6 16 6 16 0 19 0 19 25 6 25 6
15 -12 15 -12 -6 -10 -6 -9 12 -14 12 -15 38 0 38 0 16 6 15 6 -10 25 -9 24 0
30 0 31 31 -7 30 -7 30 12 29 12 0 15 0 14 -11 20 -10 20 -37 -3 -37 -3 -5 45
-5 45 -20 3 -20 3 -40 -9 -40 -9 3 -12 3 -13 -7 -20 -6 -19 -31 3 -32 3 0 34
0 34 -20 8 -20 8 -10 -1 -10 -1 -22 -4z"/>
</g>
</svg>
