<?xml version="1.0" standalone="no"?>
<!DOCTYPE svg PUBLIC "-//W3C//DTD SVG 20010904//EN"
 "http://www.w3.org/TR/2001/REC-SVG-20010904/DTD/svg10.dtd">
<svg version="1.0" xmlns="http://www.w3.org/2000/svg"
 width="42.000000pt" height="33.000000pt" viewBox="0 0 42.000000 33.000000"
 preserveAspectRatio="xMidYMid meet">
<metadata>
Created by potrace 1.16, written by Peter Selinger 2001-2019
</metadata>
<g transform="translate(0.000000,33.000000) scale(0.100000,-0.100000)"
fill="#000000" stroke="none">
<path d="M23 323 l-23 -4 0 -53 0 -54 13 -10 13 -11 30 2 29 2 0 -30 0 -30
-36 3 -37 3 -6 -23 -6 -23 0 -47 0 -48 54 0 54 0 6 16 6 16 0 18 0 18 16 6 16
6 9 -6 9 -5 0 -18 0 -17 12 -12 12 -12 50 0 51 0 14 9 14 9 -12 32 -11 33 0
17 0 17 30 -5 30 -4 30 12 30 12 0 25 0 24 -10 20 -11 19 -39 0 -40 0 0 40 0
41 -16 6 -16 6 -57 -9 -56 -9 -1 -20 -2 -20 -1 -13 -1 -13 -22 3 -23 3 3 33 3
32 -26 10 -26 10 -17 -1 -17 -2 -22 -4z"/>
</g>
</svg>
