<?xml version="1.0" standalone="no"?>
<!DOCTYPE svg PUBLIC "-//W3C//DTD SVG 20010904//EN"
 "http://www.w3.org/TR/2001/REC-SVG-20010904/DTD/svg10.dtd">
<svg version="1.0" xmlns="http://www.w3.org/2000/svg"
 width="43.000000pt" height="34.000000pt" viewBox="0 0 43.000000 34.000000"
 preserveAspectRatio="xMidYMid meet">
<metadata>
Created by potrace 1.16, written by Peter Selinger 2001-2019
</metadata>
<g transform="translate(0.000000,34.000000) scale(0.100000,-0.100000)"
fill="#000000" stroke="none">
<path d="M37 333 l-18 -5 3 -56 3 -57 38 0 38 0 9 -15 10 -15 0 -6 0 -6 -24
-11 -25 -11 -35 6 -36 6 2 -77 1 -76 66 0 66 0 14 9 13 9 -6 19 -6 20 14 12
14 12 8 -13 8 -13 -3 -27 -2 -26 21 -7 21 -7 58 7 58 7 14 46 15 47 19 4 20 3
7 12 8 11 0 41 0 42 -16 6 -16 6 -28 0 -29 0 -3 48 -3 47 -60 0 -60 0 -1 -25
-1 -25 -2 -12 -1 -12 -20 -11 -20 -11 -20 11 -21 11 7 34 6 35 -27 10 -26 10
-17 -1 -17 -1 -18 -5z"/>
</g>
</svg>
