<?xml version="1.0" standalone="no"?>
<!DOCTYPE svg PUBLIC "-//W3C//DTD SVG 20010904//EN"
 "http://www.w3.org/TR/2001/REC-SVG-20010904/DTD/svg10.dtd">
<svg version="1.0" xmlns="http://www.w3.org/2000/svg"
 width="41.000000pt" height="32.000000pt" viewBox="0 0 41.000000 32.000000"
 preserveAspectRatio="xMidYMid meet">
<metadata>
Created by potrace 1.16, written by Peter Selinger 2001-2019
</metadata>
<g transform="translate(0.000000,32.000000) scale(0.100000,-0.100000)"
fill="#000000" stroke="none">
<path d="M37 313 l-18 -5 3 -46 3 -47 37 3 37 3 10 -20 11 -20 0 -14 0 -15
-29 -12 -30 -12 -30 7 -31 7 0 -31 0 -30 10 -25 10 -26 -10 0 -10 0 0 -10 0
-10 58 0 57 0 10 8 10 7 0 24 0 24 17 10 16 11 17 -14 16 -13 -6 -27 -6 -27
18 -7 17 -7 52 6 51 7 17 54 17 53 15 -6 16 -6 9 14 9 14 0 32 0 33 -25 6 -25
6 -20 -5 -19 -5 -3 52 -3 51 -50 0 -50 0 3 -27 3 -27 -20 -20 -21 -21 -18 0
-18 0 -19 13 -18 14 6 32 7 32 -26 9 -25 10 -7 -1 -7 -1 -18 -5z"/>
</g>
</svg>
