<?xml version="1.0" standalone="no"?>
<!DOCTYPE svg PUBLIC "-//W3C//DTD SVG 20010904//EN"
 "http://www.w3.org/TR/2001/REC-SVG-20010904/DTD/svg10.dtd">
<svg version="1.0" xmlns="http://www.w3.org/2000/svg"
 width="38.000000pt" height="32.000000pt" viewBox="0 0 38.000000 32.000000"
 preserveAspectRatio="xMidYMid meet">
<metadata>
Created by potrace 1.16, written by Peter Selinger 2001-2019
</metadata>
<g transform="translate(0.000000,32.000000) scale(0.100000,-0.100000)"
fill="#000000" stroke="none">
<path d="M108 312 l-18 -3 0 -42 0 -42 -8 -13 -9 -13 -34 3 -34 3 0 -35 0 -35
30 -3 30 -4 7 -6 7 -7 2 -55 2 -55 56 5 56 5 0 45 0 45 35 0 35 0 3 -27 3 -27
47 -14 47 -14 6 6 6 6 -5 42 -4 43 -22 -6 -22 -5 -18 19 -17 20 3 34 3 33 30
0 30 0 13 8 12 8 0 39 0 38 -47 -12 -47 -12 -6 -25 -6 -24 -39 0 -40 0 3 26 2
26 -12 10 -13 10 -25 5 -25 4 -17 -4z"/>
</g>
</svg>
