<?xml version="1.0" standalone="no"?>
<!DOCTYPE svg PUBLIC "-//W3C//DTD SVG 20010904//EN"
 "http://www.w3.org/TR/2001/REC-SVG-20010904/DTD/svg10.dtd">
<svg version="1.0" xmlns="http://www.w3.org/2000/svg"
 width="40.000000pt" height="33.000000pt" viewBox="0 0 40.000000 33.000000"
 preserveAspectRatio="xMidYMid meet">
<metadata>
Created by potrace 1.16, written by Peter Selinger 2001-2019
</metadata>
<g transform="translate(0.000000,33.000000) scale(0.100000,-0.100000)"
fill="#000000" stroke="none">
<path d="M33 323 l-23 -4 0 -49 0 -49 43 -3 42 -3 3 -30 4 -29 -17 -13 -17
-12 -28 6 -28 5 -4 -63 -4 -64 1 -1 0 -1 55 6 55 6 0 29 1 29 17 11 17 11 17
-11 18 -11 0 -31 0 -31 11 -11 10 -10 50 9 49 9 5 -5 5 -5 10 59 11 58 21 -3
22 -3 11 21 11 21 -3 32 -3 32 -41 3 -41 3 5 46 5 46 -19 -7 -19 -8 -47 -14
-46 -14 5 -21 6 -20 -39 3 -39 3 0 34 0 35 -25 7 -25 7 -10 0 -10 -1 -22 -4z"/>
</g>
</svg>
