<?xml version="1.0" standalone="no"?>
<!DOCTYPE svg PUBLIC "-//W3C//DTD SVG 20010904//EN"
 "http://www.w3.org/TR/2001/REC-SVG-20010904/DTD/svg10.dtd">
<svg version="1.0" xmlns="http://www.w3.org/2000/svg"
 width="42.000000pt" height="35.000000pt" viewBox="0 0 42.000000 35.000000"
 preserveAspectRatio="xMidYMid meet">
<metadata>
Created by potrace 1.16, written by Peter Selinger 2001-2019
</metadata>
<g transform="translate(0.000000,35.000000) scale(0.100000,-0.100000)"
fill="#000000" stroke="none">
<path d="M33 343 l-23 -4 0 -59 0 -59 43 -3 42 -3 0 -25 0 -25 -41 -3 -41 -3
-6 -72 -5 -72 2 -2 2 -2 64 7 65 7 3 30 4 30 8 9 9 9 15 -12 15 -13 -5 -27 -6
-27 14 -12 15 -12 66 7 66 6 7 53 6 54 24 0 23 0 11 20 11 21 -3 42 -3 42 -37
3 -38 3 0 45 0 44 -10 0 -11 0 -65 -21 -66 -21 5 -20 5 -19 -26 3 -27 3 3 32
3 31 -9 6 -9 5 -39 5 -39 4 -22 -5z"/>
</g>
</svg>
