<?xml version="1.0" standalone="no"?>
<!DOCTYPE svg PUBLIC "-//W3C//DTD SVG 20010904//EN"
 "http://www.w3.org/TR/2001/REC-SVG-20010904/DTD/svg10.dtd">
<svg version="1.0" xmlns="http://www.w3.org/2000/svg"
 width="47.000000pt" height="32.000000pt" viewBox="0 0 47.000000 32.000000"
 preserveAspectRatio="xMidYMid meet">
<metadata>
Created by potrace 1.16, written by Peter Selinger 2001-2019
</metadata>
<g transform="translate(0.000000,32.000000) scale(0.100000,-0.100000)"
fill="#000000" stroke="none">
<path d="M103 313 l-13 -5 0 -43 0 -43 -6 -16 -6 -15 -22 9 -22 8 -17 -9 -17
-10 0 -19 0 -19 12 -7 12 -8 26 0 25 -1 3 -40 2 -40 5 -23 6 -23 52 3 52 3 -3
37 -3 37 22 12 23 12 18 -23 19 -23 -3 -31 -3 -31 40 -3 40 -2 25 13 25 12 11
45 11 45 14 0 14 0 13 12 12 12 0 29 0 30 -6 16 -6 15 -21 -8 -22 -8 -12 4
-13 5 0 44 0 44 -29 0 -28 0 -32 -6 -31 -6 6 -23 5 -22 -17 -17 -17 -17 -26 3
-26 3 -3 48 -3 47 -37 -1 -37 -1 -12 -5z"/>
</g>
</svg>
