<?xml version="1.0" standalone="no"?>
<!DOCTYPE svg PUBLIC "-//W3C//DTD SVG 20010904//EN"
 "http://www.w3.org/TR/2001/REC-SVG-20010904/DTD/svg10.dtd">
<svg version="1.0" xmlns="http://www.w3.org/2000/svg"
 width="37.000000pt" height="39.000000pt" viewBox="0 0 37.000000 39.000000"
 preserveAspectRatio="xMidYMid meet">
<metadata>
Created by potrace 1.16, written by Peter Selinger 2001-2019
</metadata>
<g transform="translate(0.000000,39.000000) scale(0.100000,-0.100000)"
fill="#000000" stroke="none">
<path d="M18 383 l-18 -4 0 -44 0 -43 13 -5 12 -4 22 8 21 8 6 -15 6 -16 0
-30 0 -29 -12 -12 -13 -12 -14 0 -14 0 -13 -50 -13 -50 -1 -2 0 -2 48 -3 47
-3 0 -27 -1 -28 26 -8 25 -9 25 7 25 6 0 19 0 19 40 8 39 9 7 10 6 11 -8 44
-8 44 6 16 6 15 25 -6 24 -6 19 17 19 17 0 13 0 13 -37 3 -38 3 -5 60 -5 60
-29 3 -28 4 -22 -6 -21 -5 0 -33 0 -33 -35 0 -35 0 0 30 0 29 -25 7 -25 7 -15
0 -15 0 -17 -5z"/>
</g>
</svg>
