<?xml version="1.0" standalone="no"?>
<!DOCTYPE svg PUBLIC "-//W3C//DTD SVG 20010904//EN"
 "http://www.w3.org/TR/2001/REC-SVG-20010904/DTD/svg10.dtd">
<svg version="1.0" xmlns="http://www.w3.org/2000/svg"
 width="50.000000pt" height="33.000000pt" viewBox="0 0 50.000000 33.000000"
 preserveAspectRatio="xMidYMid meet">
<metadata>
Created by potrace 1.16, written by Peter Selinger 2001-2019
</metadata>
<g transform="translate(0.000000,33.000000) scale(0.100000,-0.100000)"
fill="#000000" stroke="none">
<path d="M92 321 l-14 -8 7 -47 7 -46 -33 0 -34 0 -13 -9 -13 -8 3 -34 3 -34
40 -5 40 -5 -2 -62 -3 -63 76 0 76 0 -2 28 -2 27 1 13 1 14 13 -5 12 -4 -3
-25 -3 -26 8 -5 8 -5 67 -7 67 -6 3 57 3 58 40 0 39 1 10 28 10 28 -11 17 -10
17 -38 0 -38 0 -8 20 -8 20 0 39 -1 38 -22 -5 -23 -6 -37 -6 -37 -7 -3 -27 -3
-26 -25 0 -25 0 -3 43 -3 42 -52 0 -52 0 -13 -9z"/>
</g>
</svg>
