<?xml version="1.0" standalone="no"?>
<!DOCTYPE svg PUBLIC "-//W3C//DTD SVG 20010904//EN"
 "http://www.w3.org/TR/2001/REC-SVG-20010904/DTD/svg10.dtd">
<svg version="1.0" xmlns="http://www.w3.org/2000/svg"
 width="40.000000pt" height="35.000000pt" viewBox="0 0 40.000000 35.000000"
 preserveAspectRatio="xMidYMid meet">
<metadata>
Created by potrace 1.16, written by Peter Selinger 2001-2019
</metadata>
<g transform="translate(0.000000,35.000000) scale(0.100000,-0.100000)"
fill="#000000" stroke="none">
<path d="M92 341 l-14 -8 7 -45 7 -45 -29 4 -28 5 -18 -20 -18 -20 3 -34 3
-33 22 -3 22 -3 17 -60 17 -59 63 0 63 0 11 21 12 21 -6 13 -5 14 9 6 9 6 9
-18 10 -18 -5 -32 -5 -33 45 0 46 0 26 10 27 10 -6 48 -7 47 -5 28 -6 28 -21
-3 -22 -3 -3 23 -3 22 35 0 34 0 7 31 7 31 -7 34 -6 35 -57 -3 -57 -3 0 -25 0
-25 -8 -12 -8 -13 -19 0 -19 0 -6 19 -6 19 7 26 6 26 -58 0 -59 0 -13 -9z"/>
</g>
</svg>
