<?xml version="1.0" standalone="no"?>
<!DOCTYPE svg PUBLIC "-//W3C//DTD SVG 20010904//EN"
 "http://www.w3.org/TR/2001/REC-SVG-20010904/DTD/svg10.dtd">
<svg version="1.0" xmlns="http://www.w3.org/2000/svg"
 width="38.000000pt" height="33.000000pt" viewBox="0 0 38.000000 33.000000"
 preserveAspectRatio="xMidYMid meet">
<metadata>
Created by potrace 1.16, written by Peter Selinger 2001-2019
</metadata>
<g transform="translate(0.000000,33.000000) scale(0.100000,-0.100000)"
fill="#000000" stroke="none">
<path d="M93 324 l-12 -5 6 -51 6 -50 -30 6 -29 7 -18 -20 -18 -19 4 -24 3
-23 22 -3 22 -3 17 -60 17 -59 53 0 53 0 9 16 9 17 -4 18 -5 19 17 7 18 6 14
-19 14 -19 -6 -32 -6 -33 35 0 35 0 26 10 26 10 -6 37 -6 38 -5 26 -5 25 -22
0 -22 -1 -3 29 -4 29 14 8 13 8 21 -5 22 -6 7 30 6 29 -7 27 -6 27 -47 -3 -46
-3 3 -27 3 -27 -24 -16 -24 -15 -17 6 -16 6 -6 24 -6 24 5 20 5 20 -46 -1 -47
-1 -12 -4z"/>
</g>
</svg>
