<?xml version="1.0" standalone="no"?>
<!DOCTYPE svg PUBLIC "-//W3C//DTD SVG 20010904//EN"
 "http://www.w3.org/TR/2001/REC-SVG-20010904/DTD/svg10.dtd">
<svg version="1.0" xmlns="http://www.w3.org/2000/svg"
 width="51.000000pt" height="41.000000pt" viewBox="0 0 51.000000 41.000000"
 preserveAspectRatio="xMidYMid meet">
<metadata>
Created by potrace 1.16, written by Peter Selinger 2001-2019
</metadata>
<g transform="translate(0.000000,41.000000) scale(0.100000,-0.100000)"
fill="#000000" stroke="none">
<path d="M96 394 l-6 -16 0 -33 0 -34 -12 -7 -12 -8 -31 0 -30 -1 -3 -42 -3
-42 23 -5 23 -5 20 -3 20 -4 -1 -57 -1 -57 58 0 58 0 3 -32 3 -32 29 -7 29 -8
27 6 28 5 5 17 4 16 48 13 47 13 -7 27 -7 27 -5 37 -5 37 35 -6 35 -5 21 21
21 21 0 18 0 19 -18 16 -19 17 -33 0 -33 0 7 46 6 46 -46 -7 -47 -7 -12 -4
-13 -5 -5 -20 -5 -19 -31 0 -31 0 0 30 0 31 -12 3 -13 4 -52 6 -51 5 -6 -15z"/>
</g>
</svg>
