<?xml version="1.0" standalone="no"?>
<!DOCTYPE svg PUBLIC "-//W3C//DTD SVG 20010904//EN"
 "http://www.w3.org/TR/2001/REC-SVG-20010904/DTD/svg10.dtd">
<svg version="1.0" xmlns="http://www.w3.org/2000/svg"
 width="40.000000pt" height="34.000000pt" viewBox="0 0 40.000000 34.000000"
 preserveAspectRatio="xMidYMid meet">
<metadata>
Created by potrace 1.16, written by Peter Selinger 2001-2019
</metadata>
<g transform="translate(0.000000,34.000000) scale(0.100000,-0.100000)"
fill="#000000" stroke="none">
<path d="M80 304 l0 -35 -10 -20 -11 -19 -30 0 -30 0 3 -37 3 -38 27 -3 27 -3
5 -27 5 -27 7 -38 6 -38 67 3 66 3 3 30 3 30 5 14 4 13 15 -12 15 -13 -2 -41
-3 -41 29 -3 30 -4 43 7 43 6 0 80 0 80 -37 -3 -38 -3 -3 21 -3 21 30 -5 31
-4 10 27 10 26 0 41 0 40 -46 -7 -47 -7 -13 -5 -14 -5 0 -24 0 -24 -25 -6 -25
-6 -16 13 -16 13 7 33 6 33 -66 0 -65 0 0 -36z"/>
</g>
</svg>
