<?xml version="1.0" standalone="no"?>
<!DOCTYPE svg PUBLIC "-//W3C//DTD SVG 20010904//EN"
 "http://www.w3.org/TR/2001/REC-SVG-20010904/DTD/svg10.dtd">
<svg version="1.0" xmlns="http://www.w3.org/2000/svg"
 width="37.000000pt" height="38.000000pt" viewBox="0 0 37.000000 38.000000"
 preserveAspectRatio="xMidYMid meet">
<metadata>
Created by potrace 1.16, written by Peter Selinger 2001-2019
</metadata>
<g transform="translate(0.000000,38.000000) scale(0.100000,-0.100000)"
fill="#000000" stroke="none">
<path d="M80 335 l0 -46 -11 -20 -10 -20 -30 6 -29 7 0 -21 0 -20 19 -11 19
-10 33 7 32 6 -5 -49 -5 -49 -4 -14 -4 -15 44 -8 45 -8 8 -12 8 -13 -5 -22 -5
-23 34 0 34 0 11 14 12 15 -3 18 -3 18 40 3 40 3 12 10 12 10 -5 37 -5 37 -4
21 -5 21 -23 -4 -23 -5 -14 17 -14 17 11 16 10 17 34 0 34 0 3 58 3 57 -23 0
-23 0 -36 -6 -37 -6 2 -32 1 -31 -35 0 -35 0 0 35 -1 35 -52 3 -52 3 0 -46z"/>
</g>
</svg>
