<?xml version="1.0" standalone="no"?>
<!DOCTYPE svg PUBLIC "-//W3C//DTD SVG 20010904//EN"
 "http://www.w3.org/TR/2001/REC-SVG-20010904/DTD/svg10.dtd">
<svg version="1.0" xmlns="http://www.w3.org/2000/svg"
 width="35.000000pt" height="35.000000pt" viewBox="0 0 35.000000 35.000000"
 preserveAspectRatio="xMidYMid meet">
<metadata>
Created by potrace 1.16, written by Peter Selinger 2001-2019
</metadata>
<g transform="translate(0.000000,35.000000) scale(0.100000,-0.100000)"
fill="#000000" stroke="none">
<path d="M20 308 l0 -43 6 -22 6 -23 34 0 34 0 0 -20 0 -19 -20 -11 -20 -10
-24 6 -24 6 -7 -12 -7 -12 12 -59 13 -60 66 3 66 3 -1 30 -1 30 10 7 10 6 14
-5 13 -5 0 -44 0 -45 16 -6 16 -6 53 12 53 12 6 60 7 59 -6 10 -6 10 -34 0
-35 0 -6 26 -7 25 9 9 9 8 30 4 30 3 3 58 3 57 -61 0 -60 0 0 -39 0 -39 -16
-6 -16 -6 -17 0 -18 0 5 32 5 31 -19 14 -18 13 -53 0 -53 0 0 -42z"/>
</g>
</svg>
