<?xml version="1.0" standalone="no"?>
<!DOCTYPE svg PUBLIC "-//W3C//DTD SVG 20010904//EN"
 "http://www.w3.org/TR/2001/REC-SVG-20010904/DTD/svg10.dtd">
<svg version="1.0" xmlns="http://www.w3.org/2000/svg"
 width="32.000000pt" height="35.000000pt" viewBox="0 0 32.000000 35.000000"
 preserveAspectRatio="xMidYMid meet">
<metadata>
Created by potrace 1.16, written by Peter Selinger 2001-2019
</metadata>
<g transform="translate(0.000000,35.000000) scale(0.100000,-0.100000)"
fill="#000000" stroke="none">
<path d="M6 317 l-6 -35 10 -26 10 -27 23 1 22 2 13 -1 13 -1 -3 -27 -3 -28
-31 -3 -32 -3 -6 -22 -6 -22 0 -48 0 -48 63 3 62 3 3 30 4 30 8 9 9 9 16 -13
17 -14 -6 -31 -6 -32 15 -13 16 -13 54 12 55 12 0 75 0 74 -34 0 -34 0 -12 15
-12 14 7 11 7 11 28 -6 29 -6 10 20 11 20 0 51 0 51 -62 -3 -63 -3 -1 -30 -1
-30 -1 -11 -2 -12 -16 -6 -15 -6 -20 11 -20 10 3 37 3 37 -56 3 -57 3 -6 -34z"/>
</g>
</svg>
