<?xml version="1.0" standalone="no"?>
<!DOCTYPE svg PUBLIC "-//W3C//DTD SVG 20010904//EN"
 "http://www.w3.org/TR/2001/REC-SVG-20010904/DTD/svg10.dtd">
<svg version="1.0" xmlns="http://www.w3.org/2000/svg"
 width="42.000000pt" height="41.000000pt" viewBox="0 0 42.000000 41.000000"
 preserveAspectRatio="xMidYMid meet">
<metadata>
Created by potrace 1.16, written by Peter Selinger 2001-2019
</metadata>
<g transform="translate(0.000000,41.000000) scale(0.100000,-0.100000)"
fill="#000000" stroke="none">
<path d="M210 379 l0 -30 -10 -20 -11 -19 -26 0 -25 0 5 30 6 30 -5 15 -6 15
-64 0 -64 0 0 -64 0 -64 15 -6 15 -5 30 6 30 6 0 -15 0 -14 -12 -12 -12 -12
-28 0 -29 0 -3 -12 -4 -13 -5 -58 -6 -57 60 0 59 0 0 -19 0 -19 6 -16 6 -15
34 -7 34 -6 15 12 15 12 0 19 0 18 53 6 54 7 14 61 14 62 23 3 22 3 6 25 6 24
-6 26 -7 26 -34 -5 -33 -5 -6 15 -6 15 0 38 0 38 -22 6 -23 6 -37 0 -38 0 0
-31z"/>
</g>
</svg>
