<?xml version="1.0" standalone="no"?>
<!DOCTYPE svg PUBLIC "-//W3C//DTD SVG 20010904//EN"
 "http://www.w3.org/TR/2001/REC-SVG-20010904/DTD/svg10.dtd">
<svg version="1.0" xmlns="http://www.w3.org/2000/svg"
 width="42.000000pt" height="40.000000pt" viewBox="0 0 42.000000 40.000000"
 preserveAspectRatio="xMidYMid meet">
<metadata>
Created by potrace 1.16, written by Peter Selinger 2001-2019
</metadata>
<g transform="translate(0.000000,40.000000) scale(0.100000,-0.100000)"
fill="#000000" stroke="none">
<path d="M53 393 l-33 -4 0 -40 0 -40 12 -13 13 -12 35 1 35 0 3 -21 3 -22
-16 -16 -16 -16 -45 0 -44 0 0 -22 0 -23 6 -37 7 -38 60 0 60 0 -7 -31 -6 -32
11 -13 11 -14 34 0 33 0 9 17 9 18 -4 12 -5 13 14 4 13 4 41 11 41 11 1 42 2
42 6 19 6 19 34 -6 33 -7 7 26 7 26 -11 11 -11 11 -41 -1 -40 -2 0 56 0 56
-32 -7 -33 -8 -23 -8 -23 -9 2 -12 2 -13 -7 -17 -8 -18 -19 0 -18 0 -11 19
-10 20 0 35 0 36 -27 -2 -28 -1 -32 -4z"/>
</g>
</svg>
