<?xml version="1.0" standalone="no"?>
<!DOCTYPE svg PUBLIC "-//W3C//DTD SVG 20010904//EN"
 "http://www.w3.org/TR/2001/REC-SVG-20010904/DTD/svg10.dtd">
<svg version="1.0" xmlns="http://www.w3.org/2000/svg"
 width="44.000000pt" height="42.000000pt" viewBox="0 0 44.000000 42.000000"
 preserveAspectRatio="xMidYMid meet">
<metadata>
Created by potrace 1.16, written by Peter Selinger 2001-2019
</metadata>
<g transform="translate(0.000000,42.000000) scale(0.100000,-0.100000)"
fill="#000000" stroke="none">
<path d="M53 413 l-33 -4 0 -50 0 -50 14 -15 15 -14 32 2 32 3 4 -11 4 -12
-16 -16 -16 -16 -45 0 -44 0 0 -32 0 -33 6 -38 7 -37 58 0 58 0 -6 -33 -5 -33
15 -13 16 -12 43 3 43 3 10 33 9 32 17 0 16 0 32 11 31 11 0 43 0 43 6 16 6
15 30 -6 30 -6 9 14 9 14 0 28 0 27 -26 10 -25 10 -25 -6 -24 -6 0 57 0 58
-39 -7 -40 -6 -25 -10 -26 -10 0 -17 0 -18 -10 -15 -10 -15 -15 19 -15 20 0
38 0 38 -37 -2 -38 -1 -32 -4z"/>
</g>
</svg>
