<?xml version="1.0" standalone="no"?>
<!DOCTYPE svg PUBLIC "-//W3C//DTD SVG 20010904//EN"
 "http://www.w3.org/TR/2001/REC-SVG-20010904/DTD/svg10.dtd">
<svg version="1.0" xmlns="http://www.w3.org/2000/svg"
 width="32.000000pt" height="32.000000pt" viewBox="0 0 32.000000 32.000000"
 preserveAspectRatio="xMidYMid meet">
<metadata>
Created by potrace 1.16, written by Peter Selinger 2001-2019
</metadata>
<g transform="translate(0.000000,32.000000) scale(0.100000,-0.100000)"
fill="#000000" stroke="none">
<path d="M265 311 l-50 -6 3 -32 3 -33 -27 -11 -28 -10 -24 11 -24 11 6 34 7
35 -56 0 -55 0 0 -39 0 -40 12 -7 13 -8 32 3 32 2 7 -26 7 -26 -12 -25 -11
-24 -51 0 -52 0 8 -38 7 -37 0 -20 0 -20 57 3 56 4 12 10 12 9 3 27 3 27 25
-3 24 -2 7 -11 6 -10 -4 -23 -5 -23 21 -6 21 -5 28 7 27 8 -3 24 -3 24 -9 36
-10 37 -18 -2 -17 -1 -3 23 -4 23 12 15 12 14 29 0 29 0 0 55 0 55 -2 -2 -3
-1 -50 -6z"/>
</g>
</svg>
