<?xml version="1.0" standalone="no"?>
<!DOCTYPE svg PUBLIC "-//W3C//DTD SVG 20010904//EN"
 "http://www.w3.org/TR/2001/REC-SVG-20010904/DTD/svg10.dtd">
<svg version="1.0" xmlns="http://www.w3.org/2000/svg"
 width="32.000000pt" height="40.000000pt" viewBox="0 0 32.000000 40.000000"
 preserveAspectRatio="xMidYMid meet">
<metadata>
Created by potrace 1.16, written by Peter Selinger 2001-2019
</metadata>
<g transform="translate(0.000000,40.000000) scale(0.100000,-0.100000)"
fill="#000000" stroke="none">
<path d="M198 367 l4 -35 -20 -20 -19 -19 -31 5 -32 4 -1 12 -1 11 2 33 2 32
-45 0 -44 0 -7 -31 -6 -31 0 -19 0 -19 36 0 35 0 20 -10 19 -11 0 -24 0 -24
-20 -11 -20 -11 -10 6 -10 6 -9 -24 -10 -25 -6 -36 -7 -36 51 0 51 0 -6 -30
-6 -30 12 -15 12 -15 23 0 22 0 18 20 17 19 -4 26 -5 25 11 1 11 2 45 -2 45
-2 3 41 3 42 -7 20 -6 20 -21 -6 -21 -5 -13 11 -13 10 0 19 0 19 25 0 24 0 11
19 10 20 0 38 0 38 -8 11 -7 10 -51 3 -50 2 4 -34z"/>
</g>
</svg>
