<?xml version="1.0" standalone="no"?>
<!DOCTYPE svg PUBLIC "-//W3C//DTD SVG 20010904//EN"
 "http://www.w3.org/TR/2001/REC-SVG-20010904/DTD/svg10.dtd">
<svg version="1.0" xmlns="http://www.w3.org/2000/svg"
 width="40.000000pt" height="40.000000pt" viewBox="0 0 40.000000 40.000000"
 preserveAspectRatio="xMidYMid meet">
<metadata>
Created by potrace 1.16, written by Peter Selinger 2001-2019
</metadata>
<g transform="translate(0.000000,40.000000) scale(0.100000,-0.100000)"
fill="#000000" stroke="none">
<path d="M14 385 l-6 -15 6 -35 7 -35 12 -1 12 -1 27 2 27 1 11 -20 11 -21
-11 -20 -11 -20 -22 -2 -22 -1 -29 2 -29 3 8 -59 7 -58 5 -7 4 -8 43 0 44 0
10 -13 11 -13 -2 -30 -2 -29 26 -3 25 -3 11 23 10 23 -4 32 -5 33 28 0 29 0
32 -9 31 -9 11 26 10 27 3 25 3 25 27 3 28 3 6 24 6 23 -4 23 -3 24 -37 -3
-38 -4 0 56 0 56 -150 0 -151 0 -5 -15z"/>
</g>
</svg>
