<?xml version="1.0" standalone="no"?>
<!DOCTYPE svg PUBLIC "-//W3C//DTD SVG 20010904//EN"
 "http://www.w3.org/TR/2001/REC-SVG-20010904/DTD/svg10.dtd">
<svg version="1.0" xmlns="http://www.w3.org/2000/svg"
 width="34.000000pt" height="48.000000pt" viewBox="0 0 34.000000 48.000000"
 preserveAspectRatio="xMidYMid meet">
<metadata>
Created by potrace 1.16, written by Peter Selinger 2001-2019
</metadata>
<g transform="translate(0.000000,48.000000) scale(0.100000,-0.100000)"
fill="#000000" stroke="none">
<path d="M129 473 l-1 -8 2 -31 1 -32 -13 -8 -13 -8 -45 -6 -45 -5 0 -50 0
-50 30 0 30 -1 3 -17 4 -18 -12 -14 -12 -14 -29 6 -30 6 2 -72 2 -71 59 0 58
0 -6 -25 -6 -25 12 -15 12 -15 28 0 28 0 16 6 16 6 0 28 0 27 51 6 52 6 4 4 3
4 7 66 6 66 -46 -2 -46 -2 -13 13 -13 13 20 15 20 15 34 -6 34 -6 -7 47 -6 47
0 13 0 13 -52 3 -53 3 -5 35 -6 36 -8 12 -7 12 -30 0 -29 0 -1 -7z"/>
</g>
</svg>
