<?xml version="1.0" standalone="no"?>
<!DOCTYPE svg PUBLIC "-//W3C//DTD SVG 20010904//EN"
 "http://www.w3.org/TR/2001/REC-SVG-20010904/DTD/svg10.dtd">
<svg version="1.0" xmlns="http://www.w3.org/2000/svg"
 width="40.000000pt" height="47.000000pt" viewBox="0 0 40.000000 47.000000"
 preserveAspectRatio="xMidYMid meet">
<metadata>
Created by potrace 1.16, written by Peter Selinger 2001-2019
</metadata>
<g transform="translate(0.000000,47.000000) scale(0.100000,-0.100000)"
fill="#000000" stroke="none">
<path d="M135 453 l-17 -16 7 -34 6 -35 -60 4 -61 3 -5 -13 -5 -14 0 -27 0
-27 14 -19 13 -18 37 6 37 6 -3 -37 -3 -37 -31 -3 -31 -3 -12 -51 -11 -52 7
-7 8 -8 45 -3 45 -3 0 -30 0 -30 29 -3 28 -4 24 6 23 6 -5 14 -5 14 18 6 18 5
38 7 39 7 -2 46 -3 46 2 18 1 17 24 -6 23 -5 17 16 16 16 0 18 0 18 -18 16
-19 17 -27 0 -28 0 6 34 6 33 -5 15 -6 15 -51 2 -51 1 -9 6 -10 6 6 23 6 24
-16 15 -15 16 -9 0 -9 0 -16 -17z"/>
</g>
</svg>
