<?xml version="1.0" standalone="no"?>
<!DOCTYPE svg PUBLIC "-//W3C//DTD SVG 20010904//EN"
 "http://www.w3.org/TR/2001/REC-SVG-20010904/DTD/svg10.dtd">
<svg version="1.0" xmlns="http://www.w3.org/2000/svg"
 width="33.000000pt" height="40.000000pt" viewBox="0 0 33.000000 40.000000"
 preserveAspectRatio="xMidYMid meet">
<metadata>
Created by potrace 1.16, written by Peter Selinger 2001-2019
</metadata>
<g transform="translate(0.000000,40.000000) scale(0.100000,-0.100000)"
fill="#000000" stroke="none">
<path d="M115 390 l-7 -11 4 -37 3 -37 -52 -3 -53 -3 0 -13 0 -14 -6 -31 -6
-31 29 0 30 0 16 -18 17 -19 0 -16 0 -16 -16 -16 -17 -16 -22 5 -23 6 -4 -18
-4 -17 4 -42 4 -43 54 0 53 0 10 18 10 19 -6 22 -6 22 34 -3 34 -3 -3 -22 -3
-22 28 -6 28 -7 29 -9 30 -9 7 11 7 12 6 39 7 40 -12 14 -11 14 -23 -6 -23 -6
-21 12 -21 11 0 19 0 19 23 8 22 7 25 1 25 0 -3 45 -2 45 -5 12 -4 12 -55 16
-55 16 -3 27 -3 27 -32 3 -31 3 -7 -11z"/>
</g>
</svg>
