<?xml version="1.0" standalone="no"?>
<!DOCTYPE svg PUBLIC "-//W3C//DTD SVG 20010904//EN"
 "http://www.w3.org/TR/2001/REC-SVG-20010904/DTD/svg10.dtd">
<svg version="1.0" xmlns="http://www.w3.org/2000/svg"
 width="50.000000pt" height="45.000000pt" viewBox="0 0 50.000000 45.000000"
 preserveAspectRatio="xMidYMid meet">
<metadata>
Created by potrace 1.16, written by Peter Selinger 2001-2019
</metadata>
<g transform="translate(0.000000,45.000000) scale(0.100000,-0.100000)"
fill="#000000" stroke="none">
<path d="M211 441 l-14 -9 6 -24 6 -23 -8 -14 -9 -14 -52 -5 -52 -5 4 -51 3
-51 -19 3 -18 3 -29 -11 -29 -12 0 -29 0 -28 13 -8 12 -7 40 -6 40 -5 -1 -15
-1 -15 -8 -43 -7 -43 64 3 63 3 3 25 3 25 5 15 5 15 14 -18 13 -19 -5 -33 -5
-33 21 -7 20 -6 61 12 60 12 0 26 0 26 -9 33 -10 32 39 0 39 0 15 16 16 15 0
25 0 24 -20 20 -20 20 -24 0 -25 0 -3 43 -3 42 -60 0 -60 0 3 28 4 28 -16 25
-16 24 -18 0 -17 0 -14 -9z"/>
</g>
</svg>
