<?xml version="1.0" standalone="no"?>
<!DOCTYPE svg PUBLIC "-//W3C//DTD SVG 20010904//EN"
 "http://www.w3.org/TR/2001/REC-SVG-20010904/DTD/svg10.dtd">
<svg version="1.0" xmlns="http://www.w3.org/2000/svg"
 width="48.000000pt" height="43.000000pt" viewBox="0 0 48.000000 43.000000"
 preserveAspectRatio="xMidYMid meet">
<metadata>
Created by potrace 1.16, written by Peter Selinger 2001-2019
</metadata>
<g transform="translate(0.000000,43.000000) scale(0.100000,-0.100000)"
fill="#000000" stroke="none">
<path d="M213 424 l-12 -5 5 -27 5 -27 -10 -14 -9 -14 -52 -5 -51 -5 3 -51 3
-51 -25 0 -25 -1 -22 -7 -23 -8 0 -19 0 -19 21 -11 21 -12 23 6 23 6 12 -15
12 -14 -7 -33 -6 -33 -6 -18 -5 -18 54 3 53 3 -1 32 -2 32 21 7 20 6 14 -18
14 -19 -6 -31 -5 -32 15 -6 15 -5 56 11 56 11 -7 41 -8 41 -1 20 -1 20 36 -3
36 -3 17 16 16 16 0 15 0 14 -21 21 -21 21 -23 -5 -24 -4 -3 46 -3 46 -60 0
-60 0 0 36 0 36 -14 16 -13 17 -7 -1 -6 -1 -12 -4z"/>
</g>
</svg>
