<?xml version="1.0" standalone="no"?>
<!DOCTYPE svg PUBLIC "-//W3C//DTD SVG 20010904//EN"
 "http://www.w3.org/TR/2001/REC-SVG-20010904/DTD/svg10.dtd">
<svg version="1.0" xmlns="http://www.w3.org/2000/svg"
 width="33.000000pt" height="42.000000pt" viewBox="0 0 33.000000 42.000000"
 preserveAspectRatio="xMidYMid meet">
<metadata>
Created by potrace 1.16, written by Peter Selinger 2001-2019
</metadata>
<g transform="translate(0.000000,42.000000) scale(0.100000,-0.100000)"
fill="#000000" stroke="none">
<path d="M124 405 l-6 -15 6 -25 6 -25 -25 -6 -26 -6 -39 6 -40 6 0 -170 0
-170 48 7 47 6 23 8 22 9 0 31 0 31 13 -4 12 -5 3 -26 3 -26 17 -5 17 -5 63
-6 62 -7 0 14 -1 13 -12 45 -12 45 -9 13 -8 13 -26 -3 -27 -3 0 25 0 25 45 5
45 5 0 60 0 60 -65 5 -65 5 3 28 3 29 -12 14 -11 14 -25 0 -24 0 -5 -15z"/>
</g>
</svg>
