<?xml version="1.0" standalone="no"?>
<!DOCTYPE svg PUBLIC "-//W3C//DTD SVG 20010904//EN"
 "http://www.w3.org/TR/2001/REC-SVG-20010904/DTD/svg10.dtd">
<svg version="1.0" xmlns="http://www.w3.org/2000/svg"
 width="31.000000pt" height="40.000000pt" viewBox="0 0 31.000000 40.000000"
 preserveAspectRatio="xMidYMid meet">
<metadata>
Created by potrace 1.16, written by Peter Selinger 2001-2019
</metadata>
<g transform="translate(0.000000,40.000000) scale(0.100000,-0.100000)"
fill="#000000" stroke="none">
<path d="M127 393 l-7 -7 6 -32 6 -33 -26 -7 -26 -6 -40 4 -40 4 0 -157 0
-156 50 8 50 8 10 6 10 6 0 30 0 29 14 0 14 0 16 -6 16 -6 -6 -24 -6 -23 24
-5 23 -5 49 -6 49 -7 -7 19 -8 18 -5 33 -6 32 -11 8 -11 7 -25 0 -25 0 -3 29
-4 28 11 11 10 10 38 1 38 1 0 50 0 50 -65 5 -65 5 0 30 0 30 -8 13 -8 12 -13
0 -13 0 -6 -7z"/>
</g>
</svg>
