<?xml version="1.0" standalone="no"?>
<!DOCTYPE svg PUBLIC "-//W3C//DTD SVG 20010904//EN"
 "http://www.w3.org/TR/2001/REC-SVG-20010904/DTD/svg10.dtd">
<svg version="1.0" xmlns="http://www.w3.org/2000/svg"
 width="41.000000pt" height="39.000000pt" viewBox="0 0 41.000000 39.000000"
 preserveAspectRatio="xMidYMid meet">
<metadata>
Created by potrace 1.16, written by Peter Selinger 2001-2019
</metadata>
<g transform="translate(0.000000,39.000000) scale(0.100000,-0.100000)"
fill="#000000" stroke="none">
<path d="M215 380 l-6 -10 3 -33 3 -32 -57 -3 -57 -3 -3 -52 -3 -52 -38 -1
-38 -1 -10 -10 -11 -11 4 -28 3 -29 29 0 29 0 7 -15 8 -15 11 -43 12 -42 53 0
54 0 10 13 11 13 -2 29 -2 29 19 4 19 4 8 -13 8 -14 -6 -23 -6 -24 14 -9 14
-9 37 0 36 0 15 5 14 6 -13 50 -13 49 -6 10 -6 10 -15 0 -14 0 0 24 0 24 15
12 14 12 19 -6 20 -7 5 14 5 15 -5 41 -6 41 -52 0 -53 0 -11 14 -11 13 6 17 6
16 -12 15 -12 15 -19 0 -18 0 -6 -10z"/>
</g>
</svg>
