<?xml version="1.0" standalone="no"?>
<!DOCTYPE svg PUBLIC "-//W3C//DTD SVG 20010904//EN"
 "http://www.w3.org/TR/2001/REC-SVG-20010904/DTD/svg10.dtd">
<svg version="1.0" xmlns="http://www.w3.org/2000/svg"
 width="40.000000pt" height="38.000000pt" viewBox="0 0 40.000000 38.000000"
 preserveAspectRatio="xMidYMid meet">
<metadata>
Created by potrace 1.16, written by Peter Selinger 2001-2019
</metadata>
<g transform="translate(0.000000,38.000000) scale(0.100000,-0.100000)"
fill="#000000" stroke="none">
<path d="M24 372 l-11 -7 -5 -42 -6 -42 42 -3 41 -3 3 -32 3 -32 -11 -21 -12
-22 -19 5 -19 5 -4 -6 -3 -7 -7 -47 -7 -47 48 -3 48 -3 0 -28 -1 -28 24 -6 23
-6 26 12 25 12 -4 29 -5 30 49 0 48 0 0 13 0 12 -10 40 -9 40 10 10 10 10 40
1 40 0 15 16 15 15 -15 16 -16 16 -35 -6 -34 -5 -3 58 -3 59 -55 0 -55 0 3
-39 4 -39 -14 -8 -13 -9 -21 0 -22 0 -6 16 -6 17 6 33 6 34 -43 0 -44 0 -11
-8z"/>
</g>
</svg>
