<?xml version="1.0" standalone="no"?>
<!DOCTYPE svg PUBLIC "-//W3C//DTD SVG 20010904//EN"
 "http://www.w3.org/TR/2001/REC-SVG-20010904/DTD/svg10.dtd">
<svg version="1.0" xmlns="http://www.w3.org/2000/svg"
 width="29.000000pt" height="40.000000pt" viewBox="0 0 29.000000 40.000000"
 preserveAspectRatio="xMidYMid meet">
<metadata>
Created by potrace 1.16, written by Peter Selinger 2001-2019
</metadata>
<g transform="translate(0.000000,40.000000) scale(0.100000,-0.100000)"
fill="#000000" stroke="none">
<path d="M18 393 l-18 -4 0 -44 0 -44 33 6 34 5 16 -17 17 -16 0 -29 0 -29
-17 -16 -16 -17 -34 5 -34 6 3 -52 3 -52 49 3 49 3 -7 -16 -6 -16 15 -35 14
-34 28 0 29 0 12 12 12 12 0 44 0 45 45 -6 45 -7 0 144 0 143 -47 -12 -48 -12
-3 -22 -3 -21 -39 0 -39 0 -6 20 -6 20 6 9 6 10 -20 10 -20 11 -18 -1 -18 -1
-17 -5z"/>
</g>
</svg>
