<?xml version="1.0" standalone="no"?>
<!DOCTYPE svg PUBLIC "-//W3C//DTD SVG 20010904//EN"
 "http://www.w3.org/TR/2001/REC-SVG-20010904/DTD/svg10.dtd">
<svg version="1.0" xmlns="http://www.w3.org/2000/svg"
 width="31.000000pt" height="42.000000pt" viewBox="0 0 31.000000 42.000000"
 preserveAspectRatio="xMidYMid meet">
<metadata>
Created by potrace 1.16, written by Peter Selinger 2001-2019
</metadata>
<g transform="translate(0.000000,42.000000) scale(0.100000,-0.100000)"
fill="#000000" stroke="none">
<path d="M18 413 l-18 -4 0 -56 0 -55 34 6 34 7 16 -16 16 -16 0 -19 0 -19
-16 -16 -16 -16 -34 7 -35 6 3 -63 3 -64 40 1 41 0 14 -45 15 -46 38 -3 38 -3
15 12 14 11 0 45 0 44 45 -7 45 -6 0 156 0 156 -7 0 -8 -1 -50 -13 -50 -13 -3
-22 -3 -21 -30 0 -29 0 -1 13 -1 12 1 17 2 17 -20 10 -20 11 -28 -1 -28 -1
-17 -5z"/>
</g>
</svg>
