<?xml version="1.0" standalone="no"?>
<!DOCTYPE svg PUBLIC "-//W3C//DTD SVG 20010904//EN"
 "http://www.w3.org/TR/2001/REC-SVG-20010904/DTD/svg10.dtd">
<svg version="1.0" xmlns="http://www.w3.org/2000/svg"
 width="42.000000pt" height="51.000000pt" viewBox="0 0 42.000000 51.000000"
 preserveAspectRatio="xMidYMid meet">
<metadata>
Created by potrace 1.16, written by Peter Selinger 2001-2019
</metadata>
<g transform="translate(0.000000,51.000000) scale(0.100000,-0.100000)"
fill="#000000" stroke="none">
<path d="M131 496 l-12 -14 -6 -36 -5 -35 -52 -3 -51 -3 -3 -49 -3 -50 6 -23
6 -24 32 3 32 3 0 -15 0 -15 -25 -3 -25 -4 -6 -6 -7 -7 -6 -63 -7 -62 56 0 55
0 0 -33 0 -33 12 -12 12 -12 32 0 32 0 16 6 16 6 0 23 0 24 18 5 17 5 32 6 31
6 10 27 11 27 6 33 7 32 23 0 24 0 7 35 6 35 -6 25 -6 25 -34 0 -34 0 -6 23
-6 22 0 24 0 24 -45 -5 -45 -6 -9 12 -10 12 5 21 6 21 -11 21 -12 21 -33 0
-34 0 -11 -14z"/>
</g>
</svg>
