<?xml version="1.0" standalone="no"?>
<!DOCTYPE svg PUBLIC "-//W3C//DTD SVG 20010904//EN"
 "http://www.w3.org/TR/2001/REC-SVG-20010904/DTD/svg10.dtd">
<svg version="1.0" xmlns="http://www.w3.org/2000/svg"
 width="38.000000pt" height="47.000000pt" viewBox="0 0 38.000000 47.000000"
 preserveAspectRatio="xMidYMid meet">
<metadata>
Created by potrace 1.16, written by Peter Selinger 2001-2019
</metadata>
<g transform="translate(0.000000,47.000000) scale(0.100000,-0.100000)"
fill="#000000" stroke="none">
<path d="M127 459 l-18 -11 3 -36 3 -37 -50 -3 -50 -3 -9 -9 -9 -9 7 -35 7
-36 34 0 34 0 6 -20 6 -20 -6 -31 -7 -30 -21 3 -22 3 -11 -45 -12 -45 -6 -16
-7 -15 36 4 35 4 25 -6 26 -7 -3 -27 -3 -27 23 -3 23 -4 15 13 15 12 -7 40 -6
40 33 -7 34 -7 32 -6 31 -5 -14 41 -14 42 5 9 5 9 32 -1 31 -1 13 18 14 19 0
23 0 23 -12 1 -13 2 -20 1 -20 1 -3 57 -3 57 -29 -10 -28 -10 -34 3 -33 3 3
28 3 29 -16 24 -15 24 -8 0 -7 -1 -18 -10z"/>
</g>
</svg>
