<?xml version="1.0" standalone="no"?>
<!DOCTYPE svg PUBLIC "-//W3C//DTD SVG 20010904//EN"
 "http://www.w3.org/TR/2001/REC-SVG-20010904/DTD/svg10.dtd">
<svg version="1.0" xmlns="http://www.w3.org/2000/svg"
 width="41.000000pt" height="34.000000pt" viewBox="0 0 41.000000 34.000000"
 preserveAspectRatio="xMidYMid meet">
<metadata>
Created by potrace 1.16, written by Peter Selinger 2001-2019
</metadata>
<g transform="translate(0.000000,34.000000) scale(0.100000,-0.100000)"
fill="#000000" stroke="none">
<path d="M100 275 l0 -66 -32 6 -33 6 -20 -14 -20 -15 10 -29 10 -28 30 -3 30
-4 8 -7 8 -8 0 -55 1 -56 62 5 61 5 13 16 12 16 0 24 0 23 18 -3 17 -3 3 -37
3 -37 21 -6 20 -7 44 7 44 6 0 165 0 164 -155 0 -155 0 0 -65z"/>
</g>
</svg>
