<?xml version="1.0" standalone="no"?>
<!DOCTYPE svg PUBLIC "-//W3C//DTD SVG 20010904//EN"
 "http://www.w3.org/TR/2001/REC-SVG-20010904/DTD/svg10.dtd">
<svg version="1.0" xmlns="http://www.w3.org/2000/svg"
 width="39.000000pt" height="32.000000pt" viewBox="0 0 39.000000 32.000000"
 preserveAspectRatio="xMidYMid meet">
<metadata>
Created by potrace 1.16, written by Peter Selinger 2001-2019
</metadata>
<g transform="translate(0.000000,32.000000) scale(0.100000,-0.100000)"
fill="#000000" stroke="none">
<path d="M100 254 l0 -67 -34 6 -34 5 -17 -12 -18 -13 12 -21 12 -22 29 0 29
0 5 -9 6 -9 3 -54 2 -53 53 3 52 4 11 20 11 20 -5 19 -5 19 29 0 28 0 10 -18
10 -19 -5 -20 -6 -21 21 -7 20 -6 36 7 35 6 0 154 0 154 -145 0 -145 0 0 -66z"/>
</g>
</svg>
