<?xml version="1.0" standalone="no"?>
<!DOCTYPE svg PUBLIC "-//W3C//DTD SVG 20010904//EN"
 "http://www.w3.org/TR/2001/REC-SVG-20010904/DTD/svg10.dtd">
<svg version="1.0" xmlns="http://www.w3.org/2000/svg"
 width="49.000000pt" height="42.000000pt" viewBox="0 0 49.000000 42.000000"
 preserveAspectRatio="xMidYMid meet">
<metadata>
Created by potrace 1.16, written by Peter Selinger 2001-2019
</metadata>
<g transform="translate(0.000000,42.000000) scale(0.100000,-0.100000)"
fill="#000000" stroke="none">
<path d="M80 386 l0 -35 -10 -25 -10 -26 -30 0 -30 0 0 -28 0 -27 22 -10 22
-10 15 -60 16 -60 46 -3 45 -3 -4 -28 -4 -29 11 -21 12 -21 49 0 49 0 6 19 6
19 -3 13 -3 12 45 12 45 11 -2 67 -2 67 44 0 44 0 16 16 16 17 -3 31 -3 31
-25 3 -25 3 -22 4 -23 5 0 46 0 46 -62 -7 -63 -7 -8 -5 -9 -5 6 -21 5 -21 -10
-12 -10 -13 -15 6 -14 5 0 39 0 39 -65 0 -65 0 0 -34z"/>
</g>
</svg>
