<?xml version="1.0" standalone="no"?>
<!DOCTYPE svg PUBLIC "-//W3C//DTD SVG 20010904//EN"
 "http://www.w3.org/TR/2001/REC-SVG-20010904/DTD/svg10.dtd">
<svg version="1.0" xmlns="http://www.w3.org/2000/svg"
 width="42.000000pt" height="34.000000pt" viewBox="0 0 42.000000 34.000000"
 preserveAspectRatio="xMidYMid meet">
<metadata>
Created by potrace 1.16, written by Peter Selinger 2001-2019
</metadata>
<g transform="translate(0.000000,34.000000) scale(0.100000,-0.100000)"
fill="#000000" stroke="none">
<path d="M100 296 l0 -44 -6 -16 -6 -16 -39 0 -40 0 -5 -15 -6 -15 6 -25 6
-25 29 0 29 0 5 -14 5 -13 7 -47 7 -46 75 0 76 0 -6 34 -5 34 12 5 13 5 14 -9
14 -8 0 -38 0 -38 29 -3 29 -4 34 7 33 6 0 52 0 52 -6 23 -6 22 -27 -2 -26 -3
0 35 0 35 38 3 37 3 0 37 0 37 -9 14 -9 14 -59 -9 -58 -9 2 -27 2 -27 -20 -6
-19 -6 -9 5 -8 6 5 26 5 27 -18 14 -19 13 -53 0 -53 0 0 -44z"/>
</g>
</svg>
