<?xml version="1.0" standalone="no"?>
<!DOCTYPE svg PUBLIC "-//W3C//DTD SVG 20010904//EN"
 "http://www.w3.org/TR/2001/REC-SVG-20010904/DTD/svg10.dtd">
<svg version="1.0" xmlns="http://www.w3.org/2000/svg"
 width="40.000000pt" height="32.000000pt" viewBox="0 0 40.000000 32.000000"
 preserveAspectRatio="xMidYMid meet">
<metadata>
Created by potrace 1.16, written by Peter Selinger 2001-2019
</metadata>
<g transform="translate(0.000000,32.000000) scale(0.100000,-0.100000)"
fill="#000000" stroke="none">
<path d="M100 276 l0 -44 -6 -16 -6 -16 -38 0 -39 0 -6 -10 -6 -10 6 -21 7
-21 24 6 23 6 10 -17 9 -18 7 -47 7 -48 65 0 64 0 -6 34 -7 34 21 7 20 6 21
-11 21 -11 -3 -37 -3 -36 18 -4 19 -4 34 7 34 6 -1 47 0 47 -7 15 -7 15 -25 0
-25 0 0 45 0 45 38 3 37 3 0 27 0 27 -9 14 -9 14 -48 -9 -49 -9 3 -27 3 -27
-25 -7 -26 -6 -16 6 -16 6 7 29 6 30 -20 10 -20 11 -40 0 -41 0 0 -44z"/>
</g>
</svg>
