<?xml version="1.0" standalone="no"?>
<!DOCTYPE svg PUBLIC "-//W3C//DTD SVG 20010904//EN"
 "http://www.w3.org/TR/2001/REC-SVG-20010904/DTD/svg10.dtd">
<svg version="1.0" xmlns="http://www.w3.org/2000/svg"
 width="46.000000pt" height="37.000000pt" viewBox="0 0 46.000000 37.000000"
 preserveAspectRatio="xMidYMid meet">
<metadata>
Created by potrace 1.16, written by Peter Selinger 2001-2019
</metadata>
<g transform="translate(0.000000,37.000000) scale(0.100000,-0.100000)"
fill="#000000" stroke="none">
<path d="M70 324 l0 -45 -10 -20 -11 -19 -24 0 -25 0 0 -19 0 -19 13 -10 13
-11 22 5 21 6 6 -25 7 -25 -4 -33 -3 -34 42 -3 42 -3 3 -32 3 -32 43 -3 43 -3
14 11 13 11 -5 19 -5 20 34 0 34 0 21 15 22 15 3 48 3 47 17 -3 18 -3 20 11
20 11 0 22 0 22 -9 14 -9 14 -36 -6 -36 -6 0 51 0 50 -52 -7 -53 -7 -8 -5 -8
-5 6 -18 6 -18 -27 -6 -26 -7 -20 7 -20 6 5 34 6 34 -55 0 -54 0 0 -46z"/>
</g>
</svg>
