<?xml version="1.0" standalone="no"?>
<!DOCTYPE svg PUBLIC "-//W3C//DTD SVG 20010904//EN"
 "http://www.w3.org/TR/2001/REC-SVG-20010904/DTD/svg10.dtd">
<svg version="1.0" xmlns="http://www.w3.org/2000/svg"
 width="48.000000pt" height="39.000000pt" viewBox="0 0 48.000000 39.000000"
 preserveAspectRatio="xMidYMid meet">
<metadata>
Created by potrace 1.16, written by Peter Selinger 2001-2019
</metadata>
<g transform="translate(0.000000,39.000000) scale(0.100000,-0.100000)"
fill="#000000" stroke="none">
<path d="M70 344 l0 -45 -10 -20 -11 -19 -24 0 -25 0 0 -29 0 -29 15 -12 15
-12 20 5 20 5 5 -21 5 -22 -3 -35 -2 -35 42 -3 42 -3 3 -32 3 -32 53 -3 54 -3
15 12 14 13 -4 18 -5 18 32 0 32 0 22 16 22 15 0 45 0 44 21 0 20 0 20 10 19
11 0 29 0 28 -6 16 -6 16 -39 0 -39 0 0 46 0 47 -62 -7 -62 -7 -8 -5 -8 -5 0
-19 0 -18 -15 -6 -15 -5 -15 5 -15 6 6 34 6 34 -66 0 -66 0 0 -46z"/>
</g>
</svg>
