<?xml version="1.0" standalone="no"?>
<!DOCTYPE svg PUBLIC "-//W3C//DTD SVG 20010904//EN"
 "http://www.w3.org/TR/2001/REC-SVG-20010904/DTD/svg10.dtd">
<svg version="1.0" xmlns="http://www.w3.org/2000/svg"
 width="31.000000pt" height="31.000000pt" viewBox="0 0 31.000000 31.000000"
 preserveAspectRatio="xMidYMid meet">
<metadata>
Created by potrace 1.16, written by Peter Selinger 2001-2019
</metadata>
<g transform="translate(0.000000,31.000000) scale(0.100000,-0.100000)"
fill="#000000" stroke="none">
<path d="M10 256 l0 -55 36 6 36 6 9 -14 9 -14 0 -22 0 -22 -20 -11 -20 -11
-18 3 -17 3 -3 -45 -3 -45 -10 -10 -9 -9 0 -6 0 -6 37 3 38 4 23 5 22 4 0 36
0 35 16 6 17 6 16 -10 16 -10 0 -39 0 -39 37 -3 37 -3 21 11 20 11 0 44 0 43
-6 16 -6 15 -14 -6 -14 -5 -26 6 -25 7 3 32 3 32 31 -2 32 -3 9 13 10 12 6 33
7 33 -16 6 -15 6 -32 -10 -32 -9 3 -16 2 -16 -25 -16 -26 -17 -19 6 -19 6 -6
20 -6 19 6 20 6 20 -60 0 -61 0 0 -54z"/>
</g>
</svg>
