<?xml version="1.0" standalone="no"?>
<!DOCTYPE svg PUBLIC "-//W3C//DTD SVG 20010904//EN"
 "http://www.w3.org/TR/2001/REC-SVG-20010904/DTD/svg10.dtd">
<svg version="1.0" xmlns="http://www.w3.org/2000/svg"
 width="40.000000pt" height="41.000000pt" viewBox="0 0 40.000000 41.000000"
 preserveAspectRatio="xMidYMid meet">
<metadata>
Created by potrace 1.16, written by Peter Selinger 2001-2019
</metadata>
<g transform="translate(0.000000,41.000000) scale(0.100000,-0.100000)"
fill="#000000" stroke="none">
<path d="M75 355 l6 -55 -24 0 -25 0 -16 -6 -16 -6 0 -28 0 -28 15 -12 15 -12
36 4 36 4 -5 -25 -5 -26 -7 -38 -8 -37 52 0 51 0 0 -32 0 -33 9 -13 8 -13 49
3 49 3 3 30 4 30 11 7 12 8 31 0 32 0 6 16 6 16 0 64 0 64 -33 0 -34 0 -7 7
-6 7 32 10 32 11 7 25 7 25 1 36 1 37 -13 5 -14 5 -54 -6 -54 -7 0 -20 -1 -20
-7 -13 -8 -12 -28 0 -28 0 5 31 5 31 -14 9 -14 9 -54 0 -53 0 7 -55z"/>
</g>
</svg>
