<?xml version="1.0" standalone="no"?>
<!DOCTYPE svg PUBLIC "-//W3C//DTD SVG 20010904//EN"
 "http://www.w3.org/TR/2001/REC-SVG-20010904/DTD/svg10.dtd">
<svg version="1.0" xmlns="http://www.w3.org/2000/svg"
 width="39.000000pt" height="40.000000pt" viewBox="0 0 39.000000 40.000000"
 preserveAspectRatio="xMidYMid meet">
<metadata>
Created by potrace 1.16, written by Peter Selinger 2001-2019
</metadata>
<g transform="translate(0.000000,40.000000) scale(0.100000,-0.100000)"
fill="#000000" stroke="none">
<path d="M77 348 l-7 -53 -15 -11 -16 -12 -20 5 -20 6 3 -34 3 -34 39 -3 39
-3 -6 -65 -5 -64 34 0 33 0 25 -9 24 -10 -5 -20 -5 -19 21 -12 21 -11 35 7 34
6 3 21 3 22 44 7 44 7 3 4 4 4 -13 64 -13 64 -29 5 -30 5 -3 28 -3 27 45 0 46
0 0 65 0 65 -9 0 -9 0 -51 -12 -51 -11 0 -22 0 -23 -15 -12 -15 -12 -15 6 -15
5 0 41 0 40 -64 0 -63 0 -6 -52z"/>
</g>
</svg>
