<?xml version="1.0" standalone="no"?>
<!DOCTYPE svg PUBLIC "-//W3C//DTD SVG 20010904//EN"
 "http://www.w3.org/TR/2001/REC-SVG-20010904/DTD/svg10.dtd">
<svg version="1.0" xmlns="http://www.w3.org/2000/svg"
 width="47.000000pt" height="39.000000pt" viewBox="0 0 47.000000 39.000000"
 preserveAspectRatio="xMidYMid meet">
<metadata>
Created by potrace 1.16, written by Peter Selinger 2001-2019
</metadata>
<g transform="translate(0.000000,39.000000) scale(0.100000,-0.100000)"
fill="#000000" stroke="none">
<path d="M90 338 l0 -53 -8 -13 -9 -13 -34 3 -34 3 0 -20 0 -20 25 0 25 0 13
-8 12 -8 0 -34 0 -34 10 -25 10 -26 30 0 31 0 21 -11 20 -11 -7 -34 -6 -34 39
0 40 0 12 15 12 15 -5 19 -5 20 15 5 15 6 31 0 32 0 10 8 10 7 0 55 0 55 17
-3 18 -3 20 11 21 11 -3 37 -3 37 -37 -1 -38 -1 0 44 0 44 -47 -7 -48 -6 -15
-8 -15 -9 0 -18 0 -18 -30 0 -30 0 0 35 0 35 -57 3 -58 3 0 -53z"/>
</g>
</svg>
