<?xml version="1.0" standalone="no"?>
<!DOCTYPE svg PUBLIC "-//W3C//DTD SVG 20010904//EN"
 "http://www.w3.org/TR/2001/REC-SVG-20010904/DTD/svg10.dtd">
<svg version="1.0" xmlns="http://www.w3.org/2000/svg"
 width="41.000000pt" height="32.000000pt" viewBox="0 0 41.000000 32.000000"
 preserveAspectRatio="xMidYMid meet">
<metadata>
Created by potrace 1.16, written by Peter Selinger 2001-2019
</metadata>
<g transform="translate(0.000000,32.000000) scale(0.100000,-0.100000)"
fill="#000000" stroke="none">
<path d="M0 260 l0 -61 38 3 37 3 3 -24 4 -23 -11 -11 -10 -10 -28 -1 -28 -1
0 -65 0 -65 69 -3 69 -3 -6 34 -5 35 10 10 10 10 14 -5 14 -5 0 -28 0 -29 8
-4 7 -5 69 -7 69 -8 -6 24 -7 24 -6 37 -6 37 48 3 49 3 0 40 0 40 -30 3 -30 4
-7 11 -8 12 0 38 0 37 -18 0 -18 0 -52 -15 -52 -16 0 -19 0 -19 -11 -6 -10 -7
-25 6 -24 6 0 34 0 34 -16 6 -16 6 -44 0 -44 0 0 -60z"/>
</g>
</svg>
