<?xml version="1.0" standalone="no"?>
<!DOCTYPE svg PUBLIC "-//W3C//DTD SVG 20010904//EN"
 "http://www.w3.org/TR/2001/REC-SVG-20010904/DTD/svg10.dtd">
<svg version="1.0" xmlns="http://www.w3.org/2000/svg"
 width="40.000000pt" height="31.000000pt" viewBox="0 0 40.000000 31.000000"
 preserveAspectRatio="xMidYMid meet">
<metadata>
Created by potrace 1.16, written by Peter Selinger 2001-2019
</metadata>
<g transform="translate(0.000000,31.000000) scale(0.100000,-0.100000)"
fill="#000000" stroke="none">
<path d="M20 265 l0 -45 13 -1 12 -1 19 2 19 2 8 -14 9 -13 0 -22 0 -22 -17
-16 -16 -17 -35 6 -35 5 7 -47 7 -47 0 -15 1 -16 51 6 52 6 13 8 13 8 -3 31
-3 32 18 3 18 4 15 -13 15 -13 -5 -22 -6 -23 20 -11 21 -11 37 3 37 3 5 55 5
55 26 0 26 0 16 14 17 13 0 25 0 25 -32 -2 -33 -2 -12 1 -13 1 0 56 0 56 -16
-6 -16 -6 -29 0 -29 0 0 -29 0 -29 -16 -6 -16 -6 -28 0 -28 0 -12 15 -12 15 6
25 6 25 -50 0 -50 0 0 -45z"/>
</g>
</svg>
