<?xml version="1.0" standalone="no"?>
<!DOCTYPE svg PUBLIC "-//W3C//DTD SVG 20010904//EN"
 "http://www.w3.org/TR/2001/REC-SVG-20010904/DTD/svg10.dtd">
<svg version="1.0" xmlns="http://www.w3.org/2000/svg"
 width="42.000000pt" height="33.000000pt" viewBox="0 0 42.000000 33.000000"
 preserveAspectRatio="xMidYMid meet">
<metadata>
Created by potrace 1.16, written by Peter Selinger 2001-2019
</metadata>
<g transform="translate(0.000000,33.000000) scale(0.100000,-0.100000)"
fill="#000000" stroke="none">
<path d="M10 265 l0 -65 40 0 40 0 0 -22 0 -23 -8 -11 -7 -12 -25 -3 -25 -4
-7 -35 -7 -35 -7 -28 -7 -28 69 3 69 3 0 45 0 45 18 3 17 3 0 -35 0 -36 28 -5
27 -6 42 -10 42 -9 10 0 11 0 0 50 0 50 23 0 23 0 22 16 22 15 0 38 0 37 -12
12 -12 12 -33 0 -33 0 0 50 0 50 -160 0 -160 0 0 -65z"/>
</g>
</svg>
