<?xml version="1.0" standalone="no"?>
<!DOCTYPE svg PUBLIC "-//W3C//DTD SVG 20010904//EN"
 "http://www.w3.org/TR/2001/REC-SVG-20010904/DTD/svg10.dtd">
<svg version="1.0" xmlns="http://www.w3.org/2000/svg"
 width="41.000000pt" height="41.000000pt" viewBox="0 0 41.000000 41.000000"
 preserveAspectRatio="xMidYMid meet">
<metadata>
Created by potrace 1.16, written by Peter Selinger 2001-2019
</metadata>
<g transform="translate(0.000000,41.000000) scale(0.100000,-0.100000)"
fill="#000000" stroke="none">
<path d="M199 403 l-1 -8 2 -23 2 -23 -12 -15 -12 -14 -50 0 -49 0 7 -57 7
-56 -32 6 -31 6 -15 -5 -15 -6 0 -29 0 -28 21 -12 21 -11 24 5 24 4 0 -58 0
-59 46 0 45 0 20 10 19 11 0 29 0 30 19 0 20 0 15 -22 15 -22 -5 -22 -6 -22
11 -7 11 -6 53 11 52 10 -5 68 -5 67 -35 1 -35 1 -12 1 -13 2 0 20 0 19 19 10
18 10 29 -2 29 -2 3 47 3 47 -23 15 -23 15 -37 6 -38 7 -1 12 -1 11 1 9 2 9
-13 8 -13 9 -27 0 -28 0 -1 -7z"/>
</g>
</svg>
