<?xml version="1.0" standalone="no"?>
<!DOCTYPE svg PUBLIC "-//W3C//DTD SVG 20010904//EN"
 "http://www.w3.org/TR/2001/REC-SVG-20010904/DTD/svg10.dtd">
<svg version="1.0" xmlns="http://www.w3.org/2000/svg"
 width="43.000000pt" height="43.000000pt" viewBox="0 0 43.000000 43.000000"
 preserveAspectRatio="xMidYMid meet">
<metadata>
Created by potrace 1.16, written by Peter Selinger 2001-2019
</metadata>
<g transform="translate(0.000000,43.000000) scale(0.100000,-0.100000)"
fill="#000000" stroke="none">
<path d="M195 420 l-6 -10 6 -21 7 -20 -12 -14 -12 -15 -51 0 -50 0 7 -56 6
-55 -21 6 -20 7 -25 -6 -24 -6 0 -40 0 -39 19 -11 20 -10 25 0 26 0 0 -55 0
-55 56 0 55 0 20 10 19 11 0 29 0 30 8 0 8 0 12 -12 12 -12 0 -33 0 -34 16 -6
15 -6 56 12 56 11 2 2 2 3 -6 75 -6 75 -43 1 -42 1 -7 7 -7 6 12 12 11 11 38
1 38 1 3 57 3 57 -23 15 -23 15 -37 6 -38 7 0 23 0 23 -16 6 -16 6 -33 0 -34
0 -6 -10z"/>
</g>
</svg>
