<?xml version="1.0" standalone="no"?>
<!DOCTYPE svg PUBLIC "-//W3C//DTD SVG 20010904//EN"
 "http://www.w3.org/TR/2001/REC-SVG-20010904/DTD/svg10.dtd">
<svg version="1.0" xmlns="http://www.w3.org/2000/svg"
 width="44.000000pt" height="51.000000pt" viewBox="0 0 44.000000 51.000000"
 preserveAspectRatio="xMidYMid meet">
<metadata>
Created by potrace 1.16, written by Peter Selinger 2001-2019
</metadata>
<g transform="translate(0.000000,51.000000) scale(0.100000,-0.100000)"
fill="#000000" stroke="none">
<path d="M214 496 l-5 -13 3 -29 3 -29 -55 -5 -55 -5 -3 -52 -3 -53 -34 0 -33
0 -16 -6 -16 -6 0 -37 0 -37 12 -12 12 -12 21 0 21 0 13 -51 14 -52 63 6 64 6
0 -35 0 -35 10 -20 11 -19 26 0 26 0 13 17 13 18 1 17 0 17 54 12 54 12 6 21
6 21 0 58 0 58 -39 -3 -39 -2 -16 14 -16 13 5 5 5 5 43 1 42 1 3 71 3 71 -68
-1 -68 -1 2 20 3 20 -5 23 -5 22 -36 0 -35 0 -5 -14z"/>
</g>
</svg>
