<?xml version="1.0" standalone="no"?>
<!DOCTYPE svg PUBLIC "-//W3C//DTD SVG 20010904//EN"
 "http://www.w3.org/TR/2001/REC-SVG-20010904/DTD/svg10.dtd">
<svg version="1.0" xmlns="http://www.w3.org/2000/svg"
 width="42.000000pt" height="50.000000pt" viewBox="0 0 42.000000 50.000000"
 preserveAspectRatio="xMidYMid meet">
<metadata>
Created by potrace 1.16, written by Peter Selinger 2001-2019
</metadata>
<g transform="translate(0.000000,50.000000) scale(0.100000,-0.100000)"
fill="#000000" stroke="none">
<path d="M220 480 l-10 -20 6 -25 6 -25 -55 0 -55 0 -16 -6 -15 -6 6 -48 6
-49 -44 -3 -44 -3 -3 -24 -4 -23 6 -24 6 -24 46 0 46 0 -5 -22 -5 -23 -7 -32
-7 -33 59 0 59 0 -4 -35 -4 -34 26 -12 26 -12 32 9 33 10 3 37 3 37 42 0 42 0
12 8 13 8 -10 57 -9 57 -6 10 -6 10 -35 0 -34 0 0 14 0 14 13 10 12 10 35 4
35 3 3 63 3 62 -9 0 -10 0 -28 -15 -29 -15 -33 0 -33 0 6 34 7 34 -11 21 -12
21 -19 0 -19 0 -11 -20z"/>
</g>
</svg>
