<?xml version="1.0" standalone="no"?>
<!DOCTYPE svg PUBLIC "-//W3C//DTD SVG 20010904//EN"
 "http://www.w3.org/TR/2001/REC-SVG-20010904/DTD/svg10.dtd">
<svg version="1.0" xmlns="http://www.w3.org/2000/svg"
 width="49.000000pt" height="51.000000pt" viewBox="0 0 49.000000 51.000000"
 preserveAspectRatio="xMidYMid meet">
<metadata>
Created by potrace 1.16, written by Peter Selinger 2001-2019
</metadata>
<g transform="translate(0.000000,51.000000) scale(0.100000,-0.100000)"
fill="#000000" stroke="none">
<path d="M222 498 l-12 -12 0 -33 0 -33 -65 0 -65 0 0 -34 0 -34 -6 -16 -6
-16 -28 0 -28 0 -6 -16 -6 -16 0 -28 0 -28 25 -16 24 -16 21 0 21 0 -6 -55 -7
-54 52 6 53 6 -6 -34 -7 -34 8 -11 7 -11 37 -7 37 -7 21 21 20 20 0 36 0 37
43 -6 42 -6 14 8 13 9 -7 41 -7 41 26 0 26 0 20 20 20 20 0 28 0 28 -12 12
-12 12 -28 0 -28 0 0 44 0 44 -12 10 -13 10 -55 9 -55 8 0 30 0 30 -20 3 -20
3 -13 -13z"/>
</g>
</svg>
