<?xml version="1.0" standalone="no"?>
<!DOCTYPE svg PUBLIC "-//W3C//DTD SVG 20010904//EN"
 "http://www.w3.org/TR/2001/REC-SVG-20010904/DTD/svg10.dtd">
<svg version="1.0" xmlns="http://www.w3.org/2000/svg"
 width="47.000000pt" height="49.000000pt" viewBox="0 0 47.000000 49.000000"
 preserveAspectRatio="xMidYMid meet">
<metadata>
Created by potrace 1.16, written by Peter Selinger 2001-2019
</metadata>
<g transform="translate(0.000000,49.000000) scale(0.100000,-0.100000)"
fill="#000000" stroke="none">
<path d="M221 476 l-13 -15 4 -28 3 -28 -67 -3 -68 -3 0 -35 0 -35 -11 -20
-10 -20 -21 7 -20 6 -9 -13 -9 -14 0 -21 0 -22 25 -16 24 -16 23 3 23 2 -1
-15 -1 -15 -7 -40 -7 -40 51 4 52 3 -2 -33 -2 -34 1 -11 1 -12 32 -4 31 -5 19
19 20 20 -4 35 -4 35 48 -4 48 -3 0 8 0 8 10 -6 9 -6 -6 51 -6 51 26 -6 25 -7
21 21 21 21 0 18 0 18 -12 12 -12 12 -32 0 -32 0 5 43 5 43 -13 11 -14 11 -55
9 -55 8 0 29 -1 30 -10 3 -11 4 -12 -15z"/>
</g>
</svg>
