<?xml version="1.0" standalone="no"?>
<!DOCTYPE svg PUBLIC "-//W3C//DTD SVG 20010904//EN"
 "http://www.w3.org/TR/2001/REC-SVG-20010904/DTD/svg10.dtd">
<svg version="1.0" xmlns="http://www.w3.org/2000/svg"
 width="42.000000pt" height="48.000000pt" viewBox="0 0 42.000000 48.000000"
 preserveAspectRatio="xMidYMid meet">
<metadata>
Created by potrace 1.16, written by Peter Selinger 2001-2019
</metadata>
<g transform="translate(0.000000,48.000000) scale(0.100000,-0.100000)"
fill="#000000" stroke="none">
<path d="M220 460 l-10 -20 6 -25 6 -25 -70 0 -71 0 -3 -52 -3 -53 -25 -1 -25
-1 -13 -2 -13 -1 3 -32 3 -33 30 0 30 -1 6 -29 7 -30 1 -35 1 -35 44 3 44 4
22 -12 22 -12 -7 -34 -6 -34 30 0 29 0 16 6 16 6 0 40 0 40 54 -4 54 -3 11 36
11 36 0 33 0 33 -29 -6 -28 -6 -22 15 -21 15 0 18 0 18 31 -5 31 -5 9 14 9 14
0 43 0 43 -15 5 -15 6 -53 7 -52 7 3 23 2 24 -11 13 -11 14 -9 0 -8 0 -11 -20z"/>
</g>
</svg>
