<?xml version="1.0" standalone="no"?>
<!DOCTYPE svg PUBLIC "-//W3C//DTD SVG 20010904//EN"
 "http://www.w3.org/TR/2001/REC-SVG-20010904/DTD/svg10.dtd">
<svg version="1.0" xmlns="http://www.w3.org/2000/svg"
 width="46.000000pt" height="47.000000pt" viewBox="0 0 46.000000 47.000000"
 preserveAspectRatio="xMidYMid meet">
<metadata>
Created by potrace 1.16, written by Peter Selinger 2001-2019
</metadata>
<g transform="translate(0.000000,47.000000) scale(0.100000,-0.100000)"
fill="#000000" stroke="none">
<path d="M205 460 l-6 -10 3 -33 3 -32 -62 -3 -63 -3 0 -47 0 -47 -9 -14 -9
-14 -31 5 -31 5 0 -18 0 -18 21 -15 22 -15 30 6 30 6 -5 -49 -6 -49 -7 -17 -7
-17 44 -3 43 -3 0 -25 0 -25 8 -12 8 -13 29 0 29 0 11 19 10 20 0 32 0 32 33
-6 32 -6 31 -6 32 -7 -11 45 -10 45 6 16 7 16 25 -6 25 -6 15 12 15 12 0 27 0
26 -9 14 -9 14 -31 -5 -31 -5 0 44 0 44 -14 14 -14 14 -47 12 -47 12 -9 23 -9
24 -14 0 -15 0 -6 -10z"/>
</g>
</svg>
