<?xml version="1.0" standalone="no"?>
<!DOCTYPE svg PUBLIC "-//W3C//DTD SVG 20010904//EN"
 "http://www.w3.org/TR/2001/REC-SVG-20010904/DTD/svg10.dtd">
<svg version="1.0" xmlns="http://www.w3.org/2000/svg"
 width="31.000000pt" height="39.000000pt" viewBox="0 0 31.000000 39.000000"
 preserveAspectRatio="xMidYMid meet">
<metadata>
Created by potrace 1.16, written by Peter Selinger 2001-2019
</metadata>
<g transform="translate(0.000000,39.000000) scale(0.100000,-0.100000)"
fill="#000000" stroke="none">
<path d="M119 383 l-1 -8 1 -22 2 -21 -23 -16 -22 -16 -33 0 -33 0 0 -48 0
-49 31 5 31 5 9 -14 9 -14 0 -26 0 -27 -14 -11 -14 -12 -29 3 -28 3 1 -41 0
-40 7 -18 7 -17 47 3 48 3 1 40 0 40 18 3 17 4 14 -12 15 -12 -6 -24 -6 -23
24 -6 23 -5 45 -2 45 -3 3 24 4 24 -7 34 -6 35 -29 -6 -29 -5 -16 15 -15 15 0
14 0 13 6 16 6 15 29 -6 29 -5 15 12 15 12 0 43 0 43 -12 10 -13 10 -42 7 -42
7 -11 13 -11 13 3 13 3 14 -32 3 -33 3 -1 -8z"/>
</g>
</svg>
