<?xml version="1.0" standalone="no"?>
<!DOCTYPE svg PUBLIC "-//W3C//DTD SVG 20010904//EN"
 "http://www.w3.org/TR/2001/REC-SVG-20010904/DTD/svg10.dtd">
<svg version="1.0" xmlns="http://www.w3.org/2000/svg"
 width="50.000000pt" height="47.000000pt" viewBox="0 0 50.000000 47.000000"
 preserveAspectRatio="xMidYMid meet">
<metadata>
Created by potrace 1.16, written by Peter Selinger 2001-2019
</metadata>
<g transform="translate(0.000000,47.000000) scale(0.100000,-0.100000)"
fill="#000000" stroke="none">
<path d="M214 446 l-6 -25 7 -21 7 -22 -71 4 -71 3 0 -54 0 -53 -29 5 -28 6
-12 -12 -11 -11 0 -23 0 -22 20 -11 20 -11 18 3 17 3 0 -60 0 -60 65 -5 65 -5
0 -35 0 -35 30 0 30 0 0 18 0 18 15 9 15 8 48 6 47 7 0 33 0 34 6 31 6 31 24
-6 23 -6 20 7 20 6 6 20 6 19 -6 21 -7 20 -39 -2 -40 -3 -9 14 -10 15 0 38 0
37 -60 0 -59 0 1 33 1 34 -7 11 -7 12 -19 0 -20 0 -6 -24z"/>
</g>
</svg>
