<?xml version="1.0" standalone="no"?>
<!DOCTYPE svg PUBLIC "-//W3C//DTD SVG 20010904//EN"
 "http://www.w3.org/TR/2001/REC-SVG-20010904/DTD/svg10.dtd">
<svg version="1.0" xmlns="http://www.w3.org/2000/svg"
 width="52.000000pt" height="49.000000pt" viewBox="0 0 52.000000 49.000000"
 preserveAspectRatio="xMidYMid meet">
<metadata>
Created by potrace 1.16, written by Peter Selinger 2001-2019
</metadata>
<g transform="translate(0.000000,49.000000) scale(0.100000,-0.100000)"
fill="#000000" stroke="none">
<path d="M216 474 l-6 -16 0 -30 0 -31 -65 5 -65 6 0 -54 0 -54 -25 6 -25 6
-15 -12 -15 -12 0 -34 0 -33 19 -11 20 -10 22 0 22 0 -6 -60 -5 -59 66 -3 66
-3 1 -35 0 -35 40 0 40 0 3 22 3 22 17 5 17 5 43 6 42 7 0 36 0 37 6 22 6 23
33 0 34 0 15 16 16 15 0 24 0 23 -6 16 -6 16 -43 0 -43 0 -6 16 -6 16 0 34 0
34 -61 0 -60 0 6 19 6 18 -10 27 -11 26 -29 0 -29 0 -6 -16z"/>
</g>
</svg>
