<?xml version="1.0" standalone="no"?>
<!DOCTYPE svg PUBLIC "-//W3C//DTD SVG 20010904//EN"
 "http://www.w3.org/TR/2001/REC-SVG-20010904/DTD/svg10.dtd">
<svg version="1.0" xmlns="http://www.w3.org/2000/svg"
 width="50.000000pt" height="41.000000pt" viewBox="0 0 50.000000 41.000000"
 preserveAspectRatio="xMidYMid meet">
<metadata>
Created by potrace 1.16, written by Peter Selinger 2001-2019
</metadata>
<g transform="translate(0.000000,41.000000) scale(0.100000,-0.100000)"
fill="#000000" stroke="none">
<path d="M223 404 l-12 -5 6 -31 6 -31 -18 -14 -19 -13 -49 0 -48 0 7 -46 7
-46 -19 2 -19 2 -17 -1 -18 -1 -16 -25 -17 -26 11 -24 12 -25 35 0 35 0 0 -57
0 -58 62 5 63 5 -3 18 -3 19 16 18 17 19 13 -6 14 -5 3 -31 3 -32 44 -3 44 -3
23 5 22 6 -9 41 -9 40 5 9 6 9 28 -5 29 -6 21 21 21 21 0 24 0 24 -16 6 -16 6
-35 0 -36 0 5 45 6 45 -13 10 -12 10 -53 10 -53 10 -4 0 -4 0 3 33 3 32 -20 2
-20 2 -12 -5z"/>
</g>
</svg>
