<?xml version="1.0" standalone="no"?>
<!DOCTYPE svg PUBLIC "-//W3C//DTD SVG 20010904//EN"
 "http://www.w3.org/TR/2001/REC-SVG-20010904/DTD/svg10.dtd">
<svg version="1.0" xmlns="http://www.w3.org/2000/svg"
 width="49.000000pt" height="39.000000pt" viewBox="0 0 49.000000 39.000000"
 preserveAspectRatio="xMidYMid meet">
<metadata>
Created by potrace 1.16, written by Peter Selinger 2001-2019
</metadata>
<g transform="translate(0.000000,39.000000) scale(0.100000,-0.100000)"
fill="#000000" stroke="none">
<path d="M227 383 l-7 -6 0 -33 0 -34 -22 -5 -23 -5 -35 -2 -35 -3 -5 -55 -5
-55 -45 0 -44 0 -4 -18 -4 -19 7 -25 6 -25 24 5 25 4 17 -53 17 -54 50 0 51 0
13 9 14 8 -3 29 -3 29 7 13 8 12 23 0 24 0 10 -13 10 -12 4 -35 3 -35 55 -3
55 -3 0 52 0 52 28 1 28 2 9 14 10 15 0 17 0 17 -22 15 -22 16 -18 0 -18 0 0
49 0 49 -62 -1 -63 -2 0 35 0 35 -8 13 -8 12 -18 0 -18 0 -6 -7z"/>
</g>
</svg>
