<?xml version="1.0" standalone="no"?>
<!DOCTYPE svg PUBLIC "-//W3C//DTD SVG 20010904//EN"
 "http://www.w3.org/TR/2001/REC-SVG-20010904/DTD/svg10.dtd">
<svg version="1.0" xmlns="http://www.w3.org/2000/svg"
 width="33.000000pt" height="50.000000pt" viewBox="0 0 33.000000 50.000000"
 preserveAspectRatio="xMidYMid meet">
<metadata>
Created by potrace 1.16, written by Peter Selinger 2001-2019
</metadata>
<g transform="translate(0.000000,50.000000) scale(0.100000,-0.100000)"
fill="#000000" stroke="none">
<path d="M123 493 l-13 -5 0 -34 0 -34 -55 0 -55 0 0 -51 0 -50 11 -20 10 -20
37 3 37 3 0 -20 0 -20 -27 3 -27 3 -9 -18 -10 -18 -7 -57 -7 -58 33 0 34 0 13
-8 13 -9 -7 -16 -6 -17 16 -25 16 -25 34 0 34 0 12 15 13 15 6 33 7 32 53 3
53 3 -7 22 -7 22 -12 50 -12 50 -22 10 -22 10 0 7 0 8 24 0 24 0 12 15 13 16
5 51 5 51 -44 -7 -44 -6 -19 -3 -19 -2 -2 43 -1 43 -15 10 -14 9 -20 -1 -20
-1 -12 -5z"/>
</g>
</svg>
