<?xml version="1.0" standalone="no"?>
<!DOCTYPE svg PUBLIC "-//W3C//DTD SVG 20010904//EN"
 "http://www.w3.org/TR/2001/REC-SVG-20010904/DTD/svg10.dtd">
<svg version="1.0" xmlns="http://www.w3.org/2000/svg"
 width="31.000000pt" height="48.000000pt" viewBox="0 0 31.000000 48.000000"
 preserveAspectRatio="xMidYMid meet">
<metadata>
Created by potrace 1.16, written by Peter Selinger 2001-2019
</metadata>
<g transform="translate(0.000000,48.000000) scale(0.100000,-0.100000)"
fill="#000000" stroke="none">
<path d="M122 471 l-13 -8 3 -29 3 -29 -58 -3 -57 -3 0 -42 0 -42 10 -15 9
-15 38 0 38 0 0 -30 0 -30 -28 0 -29 -1 -8 -14 -8 -15 -6 -47 -7 -48 33 0 33
0 14 -9 14 -9 -5 -20 -6 -21 15 -20 14 -21 24 0 25 0 16 25 16 25 -6 17 -7 16
13 9 13 8 46 0 47 0 -14 38 -13 37 -1 21 0 22 -15 12 -14 12 -11 -7 -10 -6 0
29 0 29 23 -4 23 -5 13 16 13 15 5 42 6 42 -39 -8 -39 -8 -25 -1 -25 -1 -1 43
-1 44 -14 9 -14 9 -10 0 -10 0 -13 -9z"/>
</g>
</svg>
