<?xml version="1.0" standalone="no"?>
<!DOCTYPE svg PUBLIC "-//W3C//DTD SVG 20010904//EN"
 "http://www.w3.org/TR/2001/REC-SVG-20010904/DTD/svg10.dtd">
<svg version="1.0" xmlns="http://www.w3.org/2000/svg"
 width="39.000000pt" height="47.000000pt" viewBox="0 0 39.000000 47.000000"
 preserveAspectRatio="xMidYMid meet">
<metadata>
Created by potrace 1.16, written by Peter Selinger 2001-2019
</metadata>
<g transform="translate(0.000000,47.000000) scale(0.100000,-0.100000)"
fill="#000000" stroke="none">
<path d="M200 455 l-12 -15 6 -25 6 -25 -60 0 -60 0 0 -32 0 -33 -13 -25 -13
-25 -27 0 -27 1 0 -28 0 -27 13 5 14 5 10 -13 10 -13 8 -40 7 -40 9 -17 10
-18 39 0 39 0 15 -15 15 -16 -9 -23 -9 -24 6 -6 6 -6 28 0 28 0 12 21 11 21
-4 30 -5 31 66 -7 66 -6 -3 48 -3 47 -5 23 -5 23 -27 -6 -27 -6 -19 14 -20 14
23 12 22 12 30 -6 29 -7 0 65 0 65 -47 17 -48 17 -13 4 -14 4 -5 20 -5 20 -18
0 -18 0 -12 -15z"/>
</g>
</svg>
