<?xml version="1.0" standalone="no"?>
<!DOCTYPE svg PUBLIC "-//W3C//DTD SVG 20010904//EN"
 "http://www.w3.org/TR/2001/REC-SVG-20010904/DTD/svg10.dtd">
<svg version="1.0" xmlns="http://www.w3.org/2000/svg"
 width="41.000000pt" height="49.000000pt" viewBox="0 0 41.000000 49.000000"
 preserveAspectRatio="xMidYMid meet">
<metadata>
Created by potrace 1.16, written by Peter Selinger 2001-2019
</metadata>
<g transform="translate(0.000000,49.000000) scale(0.100000,-0.100000)"
fill="#000000" stroke="none">
<path d="M202 478 l-12 -12 0 -28 0 -28 -55 0 -55 0 0 -32 0 -33 -13 -25 -13
-25 -27 3 -27 3 0 -40 0 -40 22 -3 22 -3 14 -68 15 -67 33 6 32 6 21 -7 22 -7
-3 -36 -3 -37 40 -3 39 -3 13 17 13 18 0 34 0 34 64 -7 65 -7 -5 58 -5 59 -5
23 -5 23 -27 -1 -27 -2 -15 1 -15 1 14 9 14 9 34 -5 33 -6 0 76 0 75 -47 17
-48 17 -13 4 -14 4 -5 20 -5 20 -27 0 -27 0 -12 -12z"/>
</g>
</svg>
