<?xml version="1.0" standalone="no"?>
<!DOCTYPE svg PUBLIC "-//W3C//DTD SVG 20010904//EN"
 "http://www.w3.org/TR/2001/REC-SVG-20010904/DTD/svg10.dtd">
<svg version="1.0" xmlns="http://www.w3.org/2000/svg"
 width="32.000000pt" height="46.000000pt" viewBox="0 0 32.000000 46.000000"
 preserveAspectRatio="xMidYMid meet">
<metadata>
Created by potrace 1.16, written by Peter Selinger 2001-2019
</metadata>
<g transform="translate(0.000000,46.000000) scale(0.100000,-0.100000)"
fill="#000000" stroke="none">
<path d="M135 429 l7 -31 -13 -9 -14 -9 -55 0 -55 0 4 -52 3 -53 11 -13 10
-13 31 3 31 3 0 -20 0 -20 -22 3 -22 3 -11 -43 -12 -43 -8 -22 -9 -21 6 -6 6
-6 33 0 33 0 26 -10 26 -10 -6 -19 -6 -20 21 -11 20 -11 21 11 20 11 -3 32 -3
32 52 -2 52 -2 6 33 7 33 -4 29 -3 29 -22 -3 -22 -3 -21 11 -20 11 0 14 0 14
19 11 20 10 19 0 20 0 6 16 6 16 -6 38 -6 38 -60 6 -59 7 3 32 3 32 -33 3 -34
3 7 -32z"/>
</g>
</svg>
