<?xml version="1.0" standalone="no"?>
<!DOCTYPE svg PUBLIC "-//W3C//DTD SVG 20010904//EN"
 "http://www.w3.org/TR/2001/REC-SVG-20010904/DTD/svg10.dtd">
<svg version="1.0" xmlns="http://www.w3.org/2000/svg"
 width="34.000000pt" height="48.000000pt" viewBox="0 0 34.000000 48.000000"
 preserveAspectRatio="xMidYMid meet">
<metadata>
Created by potrace 1.16, written by Peter Selinger 2001-2019
</metadata>
<g transform="translate(0.000000,48.000000) scale(0.100000,-0.100000)"
fill="#000000" stroke="none">
<path d="M133 446 l5 -34 -15 -6 -15 -6 -53 0 -53 0 5 -62 6 -63 10 -12 9 -13
37 -1 36 -2 -27 -4 -28 -4 -11 -42 -11 -42 -10 -27 -10 -27 7 -10 6 -11 32 0
32 0 23 -6 22 -6 0 -24 0 -24 25 -12 25 -11 25 11 25 12 0 35 0 36 49 -7 50
-6 6 34 6 34 -3 39 -3 40 -30 0 -30 1 -14 8 -14 9 18 14 19 13 22 0 23 0 6 20
6 20 -6 44 -7 44 -58 6 -58 7 2 32 1 32 -44 3 -44 3 6 -35z"/>
</g>
</svg>
