<?xml version="1.0" standalone="no"?>
<!DOCTYPE svg PUBLIC "-//W3C//DTD SVG 20010904//EN"
 "http://www.w3.org/TR/2001/REC-SVG-20010904/DTD/svg10.dtd">
<svg version="1.0" xmlns="http://www.w3.org/2000/svg"
 width="43.000000pt" height="43.000000pt" viewBox="0 0 43.000000 43.000000"
 preserveAspectRatio="xMidYMid meet">
<metadata>
Created by potrace 1.16, written by Peter Selinger 2001-2019
</metadata>
<g transform="translate(0.000000,43.000000) scale(0.100000,-0.100000)"
fill="#000000" stroke="none">
<path d="M125 420 l-6 -10 6 -31 7 -31 -13 -9 -14 -9 -52 0 -53 0 0 -42 0 -43
6 -22 6 -23 34 0 34 0 0 -10 0 -10 -2 -7 -3 -7 -25 0 -24 -1 -8 -40 -9 -40 3
-35 3 -35 46 -9 46 -9 27 7 27 7 -3 32 -3 32 13 -1 12 -1 10 -2 10 -1 0 -35 0
-35 66 0 67 0 -6 42 -6 43 -6 20 -6 20 44 -3 44 -4 16 17 17 16 0 28 0 29 -15
12 -15 12 -24 -6 -24 -6 -6 16 -6 16 0 31 0 32 -8 11 -7 11 -55 9 -55 9 -5 35
-5 35 -37 3 -36 3 -7 -11z"/>
</g>
</svg>
