<?xml version="1.0" standalone="no"?>
<!DOCTYPE svg PUBLIC "-//W3C//DTD SVG 20010904//EN"
 "http://www.w3.org/TR/2001/REC-SVG-20010904/DTD/svg10.dtd">
<svg version="1.0" xmlns="http://www.w3.org/2000/svg"
 width="41.000000pt" height="41.000000pt" viewBox="0 0 41.000000 41.000000"
 preserveAspectRatio="xMidYMid meet">
<metadata>
Created by potrace 1.16, written by Peter Selinger 2001-2019
</metadata>
<g transform="translate(0.000000,41.000000) scale(0.100000,-0.100000)"
fill="#000000" stroke="none">
<path d="M128 405 l-6 -6 5 -39 5 -38 -18 -6 -19 -5 -47 -3 -48 -2 0 -30 0
-31 7 -23 6 -24 29 4 29 5 10 -19 11 -20 -6 -14 -6 -15 -27 3 -28 3 -9 -52 -9
-52 6 -14 6 -15 40 -7 40 -7 21 7 20 6 -3 32 -2 32 21 3 22 3 16 -16 16 -16
-6 -25 -6 -24 57 0 57 0 -5 27 -5 28 -7 37 -8 38 45 -6 44 -6 17 17 17 16 0
18 0 19 -13 10 -13 11 -23 -6 -23 -6 -9 14 -9 14 0 35 0 35 -8 11 -7 11 -55 9
-55 9 -5 35 -5 35 -25 3 -26 3 -6 -6z"/>
</g>
</svg>
