<?xml version="1.0" standalone="no"?>
<!DOCTYPE svg PUBLIC "-//W3C//DTD SVG 20010904//EN"
 "http://www.w3.org/TR/2001/REC-SVG-20010904/DTD/svg10.dtd">
<svg version="1.0" xmlns="http://www.w3.org/2000/svg"
 width="50.000000pt" height="49.000000pt" viewBox="0 0 50.000000 49.000000"
 preserveAspectRatio="xMidYMid meet">
<metadata>
Created by potrace 1.16, written by Peter Selinger 2001-2019
</metadata>
<g transform="translate(0.000000,49.000000) scale(0.100000,-0.100000)"
fill="#000000" stroke="none">
<path d="M223 478 l-8 -13 0 -30 0 -30 -60 -5 -60 -5 3 -52 3 -53 -31 0 -31 0
-20 -10 -19 -11 0 -19 0 -19 19 -11 20 -10 15 6 15 6 5 -34 6 -33 2 -25 3 -25
60 -5 60 -5 0 -38 1 -38 14 -10 15 -9 25 2 25 3 3 43 3 42 42 1 42 1 20 6 20
7 3 25 3 25 10 35 9 36 27 -1 28 0 0 30 0 30 -39 0 -39 0 -9 25 -9 25 4 27 3
27 -65 -2 -66 -2 3 38 4 38 -12 14 -12 15 -14 0 -13 0 -8 -12z"/>
</g>
</svg>
