<?xml version="1.0" standalone="no"?>
<!DOCTYPE svg PUBLIC "-//W3C//DTD SVG 20010904//EN"
 "http://www.w3.org/TR/2001/REC-SVG-20010904/DTD/svg10.dtd">
<svg version="1.0" xmlns="http://www.w3.org/2000/svg"
 width="52.000000pt" height="51.000000pt" viewBox="0 0 52.000000 51.000000"
 preserveAspectRatio="xMidYMid meet">
<metadata>
Created by potrace 1.16, written by Peter Selinger 2001-2019
</metadata>
<g transform="translate(0.000000,51.000000) scale(0.100000,-0.100000)"
fill="#000000" stroke="none">
<path d="M221 496 l-12 -14 3 -29 3 -28 -60 -5 -60 -5 2 -52 2 -53 -32 0 -33
0 -18 -13 -18 -13 4 -29 3 -30 30 -10 30 -10 7 -10 8 -10 0 -42 0 -42 63 -3
62 -3 -3 -31 -3 -32 17 -16 16 -17 37 3 36 3 3 43 3 42 33 0 33 0 32 6 31 6 1
32 1 31 7 25 7 25 29 5 30 5 0 40 0 40 -42 3 -41 3 -6 25 -6 24 6 26 7 27 -67
-7 -66 -8 0 44 0 44 -12 12 -12 12 -22 0 -22 0 -11 -14z"/>
</g>
</svg>
