<?xml version="1.0" standalone="no"?>
<!DOCTYPE svg PUBLIC "-//W3C//DTD SVG 20010904//EN"
 "http://www.w3.org/TR/2001/REC-SVG-20010904/DTD/svg10.dtd">
<svg version="1.0" xmlns="http://www.w3.org/2000/svg"
 width="43.000000pt" height="49.000000pt" viewBox="0 0 43.000000 49.000000"
 preserveAspectRatio="xMidYMid meet">
<metadata>
Created by potrace 1.16, written by Peter Selinger 2001-2019
</metadata>
<g transform="translate(0.000000,49.000000) scale(0.100000,-0.100000)"
fill="#000000" stroke="none">
<path d="M134 476 l-5 -13 3 -29 3 -29 -68 -3 -68 -3 3 -62 3 -62 38 -3 37 -3
0 -15 0 -14 -20 0 -19 0 -11 -37 -10 -38 -7 -43 -6 -42 57 0 56 0 0 -21 0 -20
10 -20 11 -19 25 0 25 0 15 14 14 15 0 26 0 27 57 -4 57 -3 9 40 8 40 5 22 4
22 33 3 32 3 0 40 0 40 -42 3 -43 3 -5 22 -5 22 -2 30 -3 30 -55 0 -55 0 3 33
3 33 -12 15 -11 14 -30 0 -29 0 -5 -14z"/>
</g>
</svg>
