<?xml version="1.0" standalone="no"?>
<!DOCTYPE svg PUBLIC "-//W3C//DTD SVG 20010904//EN"
 "http://www.w3.org/TR/2001/REC-SVG-20010904/DTD/svg10.dtd">
<svg version="1.0" xmlns="http://www.w3.org/2000/svg"
 width="51.000000pt" height="42.000000pt" viewBox="0 0 51.000000 42.000000"
 preserveAspectRatio="xMidYMid meet">
<metadata>
Created by potrace 1.16, written by Peter Selinger 2001-2019
</metadata>
<g transform="translate(0.000000,42.000000) scale(0.100000,-0.100000)"
fill="#000000" stroke="none">
<path d="M207 402 l-17 -19 0 -29 0 -30 -52 1 -53 0 -1 -40 -2 -40 -1 -12 -1
-13 -21 0 -20 0 -20 -10 -19 -11 0 -24 0 -24 19 -11 20 -10 26 0 27 0 -4 -57
-3 -57 55 -9 55 -8 22 12 22 12 -6 45 -6 45 14 -5 14 -5 3 -41 3 -42 23 -6 22
-5 50 3 49 3 -1 48 0 47 31 0 31 0 22 16 22 15 0 28 0 28 -18 16 -19 17 -32 0
-33 0 7 46 7 46 -60 -7 -59 -7 -6 42 -5 41 -12 14 -12 15 -23 0 -22 0 -16 -18z"/>
</g>
</svg>
