<?xml version="1.0" standalone="no"?>
<!DOCTYPE svg PUBLIC "-//W3C//DTD SVG 20010904//EN"
 "http://www.w3.org/TR/2001/REC-SVG-20010904/DTD/svg10.dtd">
<svg version="1.0" xmlns="http://www.w3.org/2000/svg"
 width="43.000000pt" height="34.000000pt" viewBox="0 0 43.000000 34.000000"
 preserveAspectRatio="xMidYMid meet">
<metadata>
Created by potrace 1.16, written by Peter Selinger 2001-2019
</metadata>
<g transform="translate(0.000000,34.000000) scale(0.100000,-0.100000)"
fill="#000000" stroke="none">
<path d="M12 278 l3 -63 30 0 30 0 13 -8 12 -8 0 -19 0 -19 -22 -15 -22 -15
-23 5 -23 6 -1 -8 -2 -9 -1 -62 -2 -62 51 6 50 5 25 12 25 11 3 28 3 27 8 0 9
0 4 -18 5 -18 69 -23 68 -22 13 17 13 18 0 17 0 17 6 16 6 16 24 0 24 0 11 27
10 27 -3 25 -3 26 -45 5 -45 5 -5 55 -5 55 -158 3 -158 3 3 -63z"/>
</g>
</svg>
