<?xml version="1.0" standalone="no"?>
<!DOCTYPE svg PUBLIC "-//W3C//DTD SVG 20010904//EN"
 "http://www.w3.org/TR/2001/REC-SVG-20010904/DTD/svg10.dtd">
<svg version="1.0" xmlns="http://www.w3.org/2000/svg"
 width="41.000000pt" height="32.000000pt" viewBox="0 0 41.000000 32.000000"
 preserveAspectRatio="xMidYMid meet">
<metadata>
Created by potrace 1.16, written by Peter Selinger 2001-2019
</metadata>
<g transform="translate(0.000000,32.000000) scale(0.100000,-0.100000)"
fill="#000000" stroke="none">
<path d="M12 268 l3 -53 28 3 29 3 14 -12 14 -11 0 -29 0 -29 -25 -16 -25 -16
-19 5 -20 5 -4 -12 -4 -11 5 -42 4 -43 37 0 36 0 25 13 25 13 0 27 -1 27 29 0
28 0 -3 -17 -3 -17 63 -22 63 -21 8 16 8 16 7 38 7 37 24 -6 25 -6 10 28 11
27 -3 16 -3 16 -38 1 -37 0 -10 10 -9 9 -3 50 -3 50 -148 3 -148 3 3 -53z"/>
</g>
</svg>
