<?xml version="1.0" standalone="no"?>
<!DOCTYPE svg PUBLIC "-//W3C//DTD SVG 20010904//EN"
 "http://www.w3.org/TR/2001/REC-SVG-20010904/DTD/svg10.dtd">
<svg version="1.0" xmlns="http://www.w3.org/2000/svg"
 width="41.000000pt" height="38.000000pt" viewBox="0 0 41.000000 38.000000"
 preserveAspectRatio="xMidYMid meet">
<metadata>
Created by potrace 1.16, written by Peter Selinger 2001-2019
</metadata>
<g transform="translate(0.000000,38.000000) scale(0.100000,-0.100000)"
fill="#000000" stroke="none">
<path d="M223 365 l-5 -16 5 -6 6 -6 -10 -18 -10 -19 -54 0 -54 0 -3 -57 -3
-58 -45 0 -45 0 -3 -17 -3 -16 23 -16 23 -16 34 6 34 7 -5 -67 -4 -66 53 0 53
0 0 29 0 29 15 12 14 12 18 -4 18 -3 3 -28 3 -27 22 -4 22 -5 32 -4 32 -3 11
29 10 30 0 23 0 24 -45 0 -45 0 -6 25 -6 25 6 15 5 15 41 0 40 0 0 39 0 39 -6
16 -6 15 -25 -10 -24 -9 -35 0 -36 0 7 29 6 30 -11 20 -11 21 -15 0 -15 0 -6
-15z"/>
</g>
</svg>
