<?xml version="1.0" standalone="no"?>
<!DOCTYPE svg PUBLIC "-//W3C//DTD SVG 20010904//EN"
 "http://www.w3.org/TR/2001/REC-SVG-20010904/DTD/svg10.dtd">
<svg version="1.0" xmlns="http://www.w3.org/2000/svg"
 width="48.000000pt" height="41.000000pt" viewBox="0 0 48.000000 41.000000"
 preserveAspectRatio="xMidYMid meet">
<metadata>
Created by potrace 1.16, written by Peter Selinger 2001-2019
</metadata>
<g transform="translate(0.000000,41.000000) scale(0.100000,-0.100000)"
fill="#000000" stroke="none">
<path d="M213 403 l-13 -5 0 -18 0 -18 -6 -16 -6 -16 -44 0 -43 0 -3 -47 -3
-48 -35 -3 -35 -4 -12 -10 -13 -10 0 -23 0 -23 14 -5 14 -6 21 6 21 5 10 -26
10 -27 1 -42 2 -43 49 6 50 7 9 14 9 14 0 18 0 18 15 5 15 6 16 -13 16 -13 -6
-37 -6 -38 17 -5 18 -5 35 9 35 9 21 6 22 7 -5 19 -5 19 6 35 7 36 20 -6 20
-7 14 12 15 12 0 22 0 22 -12 12 -12 12 -33 0 -34 0 7 51 7 51 -14 9 -14 9
-41 0 -42 0 -12 15 -13 15 6 7 7 6 -11 14 -11 13 -17 -1 -16 -1 -12 -5z"/>
</g>
</svg>
