<?xml version="1.0" standalone="no"?>
<!DOCTYPE svg PUBLIC "-//W3C//DTD SVG 20010904//EN"
 "http://www.w3.org/TR/2001/REC-SVG-20010904/DTD/svg10.dtd">
<svg version="1.0" xmlns="http://www.w3.org/2000/svg"
 width="32.000000pt" height="38.000000pt" viewBox="0 0 32.000000 38.000000"
 preserveAspectRatio="xMidYMid meet">
<metadata>
Created by potrace 1.16, written by Peter Selinger 2001-2019
</metadata>
<g transform="translate(0.000000,38.000000) scale(0.100000,-0.100000)"
fill="#000000" stroke="none">
<path d="M130 365 l-12 -15 5 -19 5 -20 -15 -5 -15 -6 -44 0 -44 0 0 -24 0
-23 -6 -32 -7 -31 35 0 34 0 12 -12 12 -12 0 -22 0 -22 -15 -12 -14 -12 -20 7
-20 6 -6 -35 -7 -34 4 -19 3 -18 59 -3 58 -3 -5 33 -5 33 10 17 9 18 14 0 14
0 8 -12 7 -13 1 -30 0 -30 55 -7 55 -6 13 10 13 11 -3 51 -3 51 -29 -2 -29 -2
-19 10 -19 10 3 22 3 22 28 -3 29 -3 14 12 14 11 0 50 0 50 -45 -6 -45 -7 -21
6 -21 7 7 25 6 25 -12 14 -11 14 -13 0 -13 0 -12 -15z"/>
</g>
</svg>
