<?xml version="1.0" standalone="no"?>
<!DOCTYPE svg PUBLIC "-//W3C//DTD SVG 20010904//EN"
 "http://www.w3.org/TR/2001/REC-SVG-20010904/DTD/svg10.dtd">
<svg version="1.0" xmlns="http://www.w3.org/2000/svg"
 width="48.000000pt" height="47.000000pt" viewBox="0 0 48.000000 47.000000"
 preserveAspectRatio="xMidYMid meet">
<metadata>
Created by potrace 1.16, written by Peter Selinger 2001-2019
</metadata>
<g transform="translate(0.000000,47.000000) scale(0.100000,-0.100000)"
fill="#000000" stroke="none">
<path d="M194 458 l-8 -12 0 -26 -1 -25 -47 -3 -48 -3 0 -42 0 -42 -9 -13 -8
-13 -37 6 -36 7 0 -25 0 -25 14 -11 13 -11 30 6 30 6 5 -20 5 -19 -5 -52 -5
-51 56 0 56 0 3 -42 3 -43 23 -3 23 -4 15 12 14 12 0 23 0 22 55 12 54 12 -7
32 -6 32 -1 30 0 30 26 -3 25 -3 28 11 27 10 -3 28 -3 27 -47 3 -47 3 5 43 6
43 -8 6 -9 5 -49 -9 -49 -9 -13 11 -14 11 6 24 6 24 -12 15 -12 15 -19 0 -18
0 -7 -12z"/>
</g>
</svg>
