<?xml version="1.0" standalone="no"?>
<!DOCTYPE svg PUBLIC "-//W3C//DTD SVG 20010904//EN"
 "http://www.w3.org/TR/2001/REC-SVG-20010904/DTD/svg10.dtd">
<svg version="1.0" xmlns="http://www.w3.org/2000/svg"
 width="43.000000pt" height="40.000000pt" viewBox="0 0 43.000000 40.000000"
 preserveAspectRatio="xMidYMid meet">
<metadata>
Created by potrace 1.16, written by Peter Selinger 2001-2019
</metadata>
<g transform="translate(0.000000,40.000000) scale(0.100000,-0.100000)"
fill="#000000" stroke="none">
<path d="M213 370 l6 -30 -19 -10 -19 -10 -50 0 -51 0 0 -50 0 -50 -18 0 -18
0 -22 -16 -22 -15 0 -25 0 -25 10 -20 11 -19 24 0 25 0 1 -32 1 -33 -1 -18 -2
-17 70 0 70 0 11 21 12 21 -6 23 -6 23 13 5 14 5 11 -7 10 -6 4 -35 3 -35 55
-7 55 -7 17 5 17 5 6 43 7 42 -4 30 -3 29 -42 -3 -43 -2 -1 10 -2 10 -1 12 -1
12 34 0 34 1 8 28 8 28 -6 35 -6 35 -41 -6 -41 -7 -5 0 -5 0 -12 1 -12 1 5 30
6 30 -12 15 -12 15 -35 0 -35 0 5 -30z"/>
</g>
</svg>
