<?xml version="1.0" standalone="no"?>
<!DOCTYPE svg PUBLIC "-//W3C//DTD SVG 20010904//EN"
 "http://www.w3.org/TR/2001/REC-SVG-20010904/DTD/svg10.dtd">
<svg version="1.0" xmlns="http://www.w3.org/2000/svg"
 width="41.000000pt" height="45.000000pt" viewBox="0 0 41.000000 45.000000"
 preserveAspectRatio="xMidYMid meet">
<metadata>
Created by potrace 1.16, written by Peter Selinger 2001-2019
</metadata>
<g transform="translate(0.000000,45.000000) scale(0.100000,-0.100000)"
fill="#000000" stroke="none">
<path d="M225 421 l7 -32 -12 -29 -12 -29 -19 -6 -19 -6 -10 6 -10 6 0 45 0
44 -54 0 -54 0 -16 -6 -16 -6 0 -40 0 -39 10 -20 11 -19 39 0 40 0 0 -14 0
-14 -15 -12 -16 -13 -37 -1 -37 -1 -1 -65 -2 -65 11 -7 11 -7 48 6 48 6 0 -41
0 -41 19 -11 20 -10 25 0 25 0 15 16 16 15 0 35 0 34 51 0 52 0 -7 49 -6 48 5
16 6 15 20 -5 19 -5 15 12 15 12 0 34 0 34 -29 0 -29 0 -6 16 -6 16 0 38 0 38
-15 12 -15 12 -46 6 -46 5 7 -32z"/>
</g>
</svg>
