<?xml version="1.0" standalone="no"?>
<!DOCTYPE svg PUBLIC "-//W3C//DTD SVG 20010904//EN"
 "http://www.w3.org/TR/2001/REC-SVG-20010904/DTD/svg10.dtd">
<svg version="1.0" xmlns="http://www.w3.org/2000/svg"
 width="39.000000pt" height="43.000000pt" viewBox="0 0 39.000000 43.000000"
 preserveAspectRatio="xMidYMid meet">
<metadata>
Created by potrace 1.16, written by Peter Selinger 2001-2019
</metadata>
<g transform="translate(0.000000,43.000000) scale(0.100000,-0.100000)"
fill="#000000" stroke="none">
<path d="M227 406 l5 -26 -6 -24 -6 -25 -16 -15 -15 -16 -24 0 -24 0 -9 18
-10 17 5 33 5 32 -45 0 -45 0 -16 -6 -16 -6 0 -30 0 -29 11 -20 10 -20 37 3
37 3 3 -26 3 -26 -17 -14 -17 -14 -36 0 -36 0 0 -57 0 -58 10 -1 10 0 50 -2
50 -2 -3 -37 -3 -37 20 -10 20 -11 15 0 15 0 16 16 16 17 -3 31 -3 31 53 3 53
3 -6 44 -7 43 7 22 7 22 21 -6 21 -5 13 11 13 10 0 25 0 25 -25 -6 -24 -6 -11
19 -10 20 0 39 0 40 -14 11 -14 12 -35 6 -35 5 5 -26z"/>
</g>
</svg>
