<?xml version="1.0" standalone="no"?>
<!DOCTYPE svg PUBLIC "-//W3C//DTD SVG 20010904//EN"
 "http://www.w3.org/TR/2001/REC-SVG-20010904/DTD/svg10.dtd">
<svg version="1.0" xmlns="http://www.w3.org/2000/svg"
 width="33.000000pt" height="41.000000pt" viewBox="0 0 33.000000 41.000000"
 preserveAspectRatio="xMidYMid meet">
<metadata>
Created by potrace 1.16, written by Peter Selinger 2001-2019
</metadata>
<g transform="translate(0.000000,41.000000) scale(0.100000,-0.100000)"
fill="#000000" stroke="none">
<path d="M145 398 l-4 -13 -3 -25 -3 -25 -60 -5 -60 -5 -3 -47 -3 -47 11 -22
12 -21 24 5 25 4 -3 -16 -3 -16 -33 -3 -32 -3 -6 -25 -6 -24 6 -54 7 -54 57 5
57 5 14 4 13 4 -4 25 -5 25 12 17 12 16 17 -6 16 -6 0 -35 0 -35 33 -6 34 -7
29 4 29 3 0 70 0 70 -28 1 -28 1 -11 11 -11 11 6 15 6 16 36 0 35 0 0 64 0 63
-52 14 -53 14 -3 23 -3 22 -35 0 -35 0 -4 -12z"/>
</g>
</svg>
