<?xml version="1.0" standalone="no"?>
<!DOCTYPE svg PUBLIC "-//W3C//DTD SVG 20010904//EN"
 "http://www.w3.org/TR/2001/REC-SVG-20010904/DTD/svg10.dtd">
<svg version="1.0" xmlns="http://www.w3.org/2000/svg"
 width="31.000000pt" height="39.000000pt" viewBox="0 0 31.000000 39.000000"
 preserveAspectRatio="xMidYMid meet">
<metadata>
Created by potrace 1.16, written by Peter Selinger 2001-2019
</metadata>
<g transform="translate(0.000000,39.000000) scale(0.100000,-0.100000)"
fill="#000000" stroke="none">
<path d="M145 378 l-4 -13 -3 -25 -3 -25 -60 -5 -60 -5 -3 -37 -3 -37 11 -21
11 -20 24 6 25 6 0 -25 0 -25 -13 -10 -13 -11 -21 5 -21 6 -7 -22 -7 -21 7
-47 6 -47 57 5 57 5 -2 23 -3 23 11 20 10 20 27 -3 27 -3 3 -37 3 -37 34 -7
33 -6 19 4 18 3 0 60 0 60 -17 -3 -18 -3 -20 11 -20 11 0 22 0 23 11 11 12 12
28 -6 29 -5 0 54 0 55 -52 14 -53 14 -3 23 -3 22 -25 0 -25 0 -4 -12z"/>
</g>
</svg>
