<?xml version="1.0" standalone="no"?>
<!DOCTYPE svg PUBLIC "-//W3C//DTD SVG 20010904//EN"
 "http://www.w3.org/TR/2001/REC-SVG-20010904/DTD/svg10.dtd">
<svg version="1.0" xmlns="http://www.w3.org/2000/svg"
 width="42.000000pt" height="49.000000pt" viewBox="0 0 42.000000 49.000000"
 preserveAspectRatio="xMidYMid meet">
<metadata>
Created by potrace 1.16, written by Peter Selinger 2001-2019
</metadata>
<g transform="translate(0.000000,49.000000) scale(0.100000,-0.100000)"
fill="#000000" stroke="none">
<path d="M200 463 l0 -29 -12 -12 -12 -12 -37 0 -38 0 -3 -52 -3 -53 -27 3
-27 3 -20 -11 -21 -11 0 -29 0 -30 23 -5 22 -6 25 3 25 3 5 -65 5 -65 53 -3
52 -3 0 -39 0 -40 27 -6 26 -7 16 10 16 10 3 30 3 31 45 5 45 5 6 6 7 6 -15
58 -15 57 -20 0 -19 1 -13 7 -12 8 0 19 0 18 16 6 16 6 40 0 41 0 -7 31 -6 32
0 33 0 33 -52 3 -53 3 -5 35 -5 35 -47 3 -48 3 0 -28z"/>
</g>
</svg>
