<?xml version="1.0" standalone="no"?>
<!DOCTYPE svg PUBLIC "-//W3C//DTD SVG 20010904//EN"
 "http://www.w3.org/TR/2001/REC-SVG-20010904/DTD/svg10.dtd">
<svg version="1.0" xmlns="http://www.w3.org/2000/svg"
 width="40.000000pt" height="47.000000pt" viewBox="0 0 40.000000 47.000000"
 preserveAspectRatio="xMidYMid meet">
<metadata>
Created by potrace 1.16, written by Peter Selinger 2001-2019
</metadata>
<g transform="translate(0.000000,47.000000) scale(0.100000,-0.100000)"
fill="#000000" stroke="none">
<path d="M200 443 l0 -29 -12 -12 -12 -12 -37 0 -38 0 -3 -52 -3 -53 -29 2
-29 2 -18 -10 -19 -10 0 -19 0 -20 13 -2 12 -1 35 -1 35 -1 5 -65 5 -65 53 -3
52 -3 0 -39 0 -39 20 -6 21 -7 15 13 15 12 -3 26 -3 26 48 7 49 7 5 4 4 5 -14
48 -14 49 -17 -3 -17 -3 -15 12 -14 11 0 28 0 28 16 6 16 6 40 0 40 0 -6 16
-6 16 0 39 0 39 -49 0 -50 0 -8 13 -8 12 0 25 0 25 -37 3 -38 3 0 -28z"/>
</g>
</svg>
