<?xml version="1.0" standalone="no"?>
<!DOCTYPE svg PUBLIC "-//W3C//DTD SVG 20010904//EN"
 "http://www.w3.org/TR/2001/REC-SVG-20010904/DTD/svg10.dtd">
<svg version="1.0" xmlns="http://www.w3.org/2000/svg"
 width="43.000000pt" height="41.000000pt" viewBox="0 0 43.000000 41.000000"
 preserveAspectRatio="xMidYMid meet">
<metadata>
Created by potrace 1.16, written by Peter Selinger 2001-2019
</metadata>
<g transform="translate(0.000000,41.000000) scale(0.100000,-0.100000)"
fill="#000000" stroke="none">
<path d="M7 348 l6 -63 10 -13 10 -12 32 6 33 6 6 -10 6 -10 -9 -25 -10 -25
-24 5 -25 5 -11 -52 -11 -51 0 -14 0 -15 45 0 45 0 0 -28 0 -28 12 -12 12 -12
38 0 38 0 0 29 0 29 28 6 27 5 38 7 39 7 -7 24 -6 25 -6 29 -5 29 31 -6 31 -6
25 16 26 17 -3 42 -3 42 -45 5 -45 5 -3 53 -3 52 -164 0 -163 0 5 -62z"/>
</g>
</svg>
