<?xml version="1.0" standalone="no"?>
<!DOCTYPE svg PUBLIC "-//W3C//DTD SVG 20010904//EN"
 "http://www.w3.org/TR/2001/REC-SVG-20010904/DTD/svg10.dtd">
<svg version="1.0" xmlns="http://www.w3.org/2000/svg"
 width="50.000000pt" height="42.000000pt" viewBox="0 0 50.000000 42.000000"
 preserveAspectRatio="xMidYMid meet">
<metadata>
Created by potrace 1.16, written by Peter Selinger 2001-2019
</metadata>
<g transform="translate(0.000000,42.000000) scale(0.100000,-0.100000)"
fill="#000000" stroke="none">
<path d="M127 413 l-38 -4 7 -60 7 -59 -40 0 -41 0 -12 -14 -12 -15 4 -23 3
-22 25 -6 25 -6 15 -61 14 -61 58 6 58 5 0 -31 0 -31 16 -15 15 -16 20 0 20 0
24 16 25 16 0 18 0 18 23 6 22 6 21 0 20 0 13 64 13 65 31 3 32 3 3 48 3 49
-40 -7 -39 -7 -11 21 -11 20 0 35 0 35 -34 6 -34 7 -18 -4 -19 -3 -6 -39 -6
-39 -18 -13 -17 -13 -14 14 -14 13 3 39 2 38 -30 1 -30 1 -38 -4z"/>
</g>
</svg>
