<?xml version="1.0" standalone="no"?>
<!DOCTYPE svg PUBLIC "-//W3C//DTD SVG 20010904//EN"
 "http://www.w3.org/TR/2001/REC-SVG-20010904/DTD/svg10.dtd">
<svg version="1.0" xmlns="http://www.w3.org/2000/svg"
 width="48.000000pt" height="40.000000pt" viewBox="0 0 48.000000 40.000000"
 preserveAspectRatio="xMidYMid meet">
<metadata>
Created by potrace 1.16, written by Peter Selinger 2001-2019
</metadata>
<g transform="translate(0.000000,40.000000) scale(0.100000,-0.100000)"
fill="#000000" stroke="none">
<path d="M129 393 l-36 -4 1 -62 1 -62 -36 3 -36 3 -12 -15 -13 -16 5 -14 6
-14 22 -4 22 -3 18 -55 18 -55 1 -2 0 -3 61 0 60 0 -6 -20 -6 -20 6 -19 6 -20
19 -6 19 -6 26 17 26 17 -5 14 -6 14 26 9 25 10 23 0 22 0 13 64 13 65 31 3
32 3 3 37 3 37 -37 -6 -37 -6 -13 18 -14 19 0 37 0 38 -34 7 -35 6 -10 -7 -11
-6 0 -30 0 -29 -20 -20 -20 -20 -11 0 -10 0 -15 15 -16 15 4 38 3 37 -20 1
-20 1 -36 -4z"/>
</g>
</svg>
