<?xml version="1.0" standalone="no"?>
<!DOCTYPE svg PUBLIC "-//W3C//DTD SVG 20010904//EN"
 "http://www.w3.org/TR/2001/REC-SVG-20010904/DTD/svg10.dtd">
<svg version="1.0" xmlns="http://www.w3.org/2000/svg"
 width="32.000000pt" height="31.000000pt" viewBox="0 0 32.000000 31.000000"
 preserveAspectRatio="xMidYMid meet">
<metadata>
Created by potrace 1.16, written by Peter Selinger 2001-2019
</metadata>
<g transform="translate(0.000000,31.000000) scale(0.100000,-0.100000)"
fill="#000000" stroke="none">
<path d="M208 280 l4 -29 -25 -12 -26 -12 -23 6 -24 6 1 28 0 28 -47 3 -48 3
0 -28 0 -28 -6 -22 -6 -22 48 -3 49 -3 3 -27 3 -28 -27 -10 -28 -11 -25 3 -26
3 1 -36 1 -36 7 -27 7 -27 57 3 57 3 1 33 0 32 12 12 11 11 16 -13 17 -14 -4
-21 -4 -21 12 -12 13 -12 45 0 45 0 5 9 5 8 -7 44 -7 44 -25 0 -24 0 -11 29
-10 28 25 20 24 20 22 -5 21 -4 -4 46 -5 46 -3 13 -4 12 -49 0 -49 0 5 -30z"/>
</g>
</svg>
