<?xml version="1.0" standalone="no"?>
<!DOCTYPE svg PUBLIC "-//W3C//DTD SVG 20010904//EN"
 "http://www.w3.org/TR/2001/REC-SVG-20010904/DTD/svg10.dtd">
<svg version="1.0" xmlns="http://www.w3.org/2000/svg"
 width="34.000000pt" height="33.000000pt" viewBox="0 0 34.000000 33.000000"
 preserveAspectRatio="xMidYMid meet">
<metadata>
Created by potrace 1.16, written by Peter Selinger 2001-2019
</metadata>
<g transform="translate(0.000000,33.000000) scale(0.100000,-0.100000)"
fill="#000000" stroke="none">
<path d="M205 301 l6 -30 -21 -11 -22 -12 -13 6 -14 5 -3 28 -3 28 -57 3 -58
3 0 -23 0 -23 -6 -37 -7 -38 47 0 47 0 6 -16 6 -15 -12 -12 -11 -11 -42 0 -43
-1 1 -45 0 -45 7 -28 8 -28 67 3 67 3 3 38 3 38 12 -4 12 -4 -3 -22 -2 -22 14
-15 15 -14 56 0 56 0 5 13 5 14 -8 49 -9 49 -23 0 -23 0 -10 19 -11 19 23 19
22 18 24 -6 24 -6 -6 58 -6 59 -4 13 -3 12 -61 0 -62 0 7 -29z"/>
</g>
</svg>
