<?xml version="1.0" standalone="no"?>
<!DOCTYPE svg PUBLIC "-//W3C//DTD SVG 20010904//EN"
 "http://www.w3.org/TR/2001/REC-SVG-20010904/DTD/svg10.dtd">
<svg version="1.0" xmlns="http://www.w3.org/2000/svg"
 width="41.000000pt" height="38.000000pt" viewBox="0 0 41.000000 38.000000"
 preserveAspectRatio="xMidYMid meet">
<metadata>
Created by potrace 1.16, written by Peter Selinger 2001-2019
</metadata>
<g transform="translate(0.000000,38.000000) scale(0.100000,-0.100000)"
fill="#000000" stroke="none">
<path d="M32 328 l3 -53 20 -1 20 -1 13 -2 12 -1 0 -23 0 -23 -13 -18 -13 -18
-34 -1 -35 -2 3 -25 2 -25 11 -27 11 -27 51 -3 51 -3 1 -35 0 -35 35 0 35 0
-1 32 -2 32 53 6 53 7 9 -5 9 -6 2 57 2 56 8 7 7 7 30 4 30 3 3 27 3 27 -25 7
-26 6 -17 -6 -16 -7 -8 13 -8 12 6 47 5 47 -48 -13 -49 -12 0 -19 0 -18 -25
-6 -25 -7 -25 9 -26 8 1 28 0 27 -48 3 -48 3 3 -53z"/>
</g>
</svg>
