<?xml version="1.0" standalone="no"?>
<!DOCTYPE svg PUBLIC "-//W3C//DTD SVG 20010904//EN"
 "http://www.w3.org/TR/2001/REC-SVG-20010904/DTD/svg10.dtd">
<svg version="1.0" xmlns="http://www.w3.org/2000/svg"
 width="47.000000pt" height="40.000000pt" viewBox="0 0 47.000000 40.000000"
 preserveAspectRatio="xMidYMid meet">
<metadata>
Created by potrace 1.16, written by Peter Selinger 2001-2019
</metadata>
<g transform="translate(0.000000,40.000000) scale(0.100000,-0.100000)"
fill="#000000" stroke="none">
<path d="M100 356 l0 -44 -15 -12 -15 -12 -29 5 -29 6 -6 -15 -6 -16 0 -13 0
-14 15 -15 16 -15 29 5 29 6 7 -36 6 -37 -5 -27 -6 -27 60 3 59 4 -6 -30 -6
-30 11 -21 12 -21 22 0 23 0 19 14 18 13 -1 36 -1 36 42 3 42 3 -4 15 -4 15
-5 47 -5 48 46 -6 46 -7 7 27 6 26 -12 15 -11 14 -15 -6 -14 -5 -15 12 -15 12
0 44 0 43 -37 -5 -38 -6 -12 -3 -12 -4 -3 -28 -3 -28 -33 -3 -33 -3 -15 12
-15 12 6 29 7 28 -51 0 -51 0 0 -44z"/>
</g>
</svg>
