<?xml version="1.0" standalone="no"?>
<!DOCTYPE svg PUBLIC "-//W3C//DTD SVG 20010904//EN"
 "http://www.w3.org/TR/2001/REC-SVG-20010904/DTD/svg10.dtd">
<svg version="1.0" xmlns="http://www.w3.org/2000/svg"
 width="49.000000pt" height="42.000000pt" viewBox="0 0 49.000000 42.000000"
 preserveAspectRatio="xMidYMid meet">
<metadata>
Created by potrace 1.16, written by Peter Selinger 2001-2019
</metadata>
<g transform="translate(0.000000,42.000000) scale(0.100000,-0.100000)"
fill="#000000" stroke="none">
<path d="M100 376 l0 -44 -14 -11 -14 -12 -27 7 -27 7 -9 -14 -9 -14 0 -27 0
-27 17 -16 16 -17 28 6 28 5 6 -29 6 -28 -6 -36 -7 -35 56 6 56 6 0 -32 0 -32
10 -20 11 -19 32 0 33 0 19 14 19 14 0 35 0 36 40 3 41 3 -2 20 -2 20 -6 40
-7 41 42 -4 42 -4 9 13 9 14 0 26 0 27 -15 12 -15 12 -14 -5 -14 -5 -11 11
-11 11 0 43 0 44 -52 -7 -53 -6 -7 -7 -6 -6 -4 -25 -3 -25 -23 -3 -23 -4 -13
11 -13 11 5 30 4 30 -61 0 -61 0 0 -44z"/>
</g>
</svg>
