<?xml version="1.0" standalone="no"?>
<!DOCTYPE svg PUBLIC "-//W3C//DTD SVG 20010904//EN"
 "http://www.w3.org/TR/2001/REC-SVG-20010904/DTD/svg10.dtd">
<svg version="1.0" xmlns="http://www.w3.org/2000/svg"
 width="39.000000pt" height="41.000000pt" viewBox="0 0 39.000000 41.000000"
 preserveAspectRatio="xMidYMid meet">
<metadata>
Created by potrace 1.16, written by Peter Selinger 2001-2019
</metadata>
<g transform="translate(0.000000,41.000000) scale(0.100000,-0.100000)"
fill="#000000" stroke="none">
<path d="M0 365 l0 -46 11 -20 10 -20 36 7 35 7 9 -14 9 -14 0 -7 0 -7 -16
-16 -16 -16 -33 7 -32 6 -7 -32 -6 -32 0 -39 0 -39 34 0 34 0 16 -6 15 -6 -5
-28 -6 -28 21 -12 22 -11 37 3 37 3 12 26 13 27 44 11 45 11 -6 69 -6 69 39
-2 39 -1 3 43 3 42 -31 0 -30 0 -10 26 -10 25 0 26 0 26 -28 -6 -27 -6 -29
-10 -28 -11 5 -20 5 -20 -23 -6 -23 -6 -19 4 -18 3 -5 40 -5 40 -57 3 -58 3 0
-46z"/>
</g>
</svg>
