<?xml version="1.0" standalone="no"?>
<!DOCTYPE svg PUBLIC "-//W3C//DTD SVG 20010904//EN"
 "http://www.w3.org/TR/2001/REC-SVG-20010904/DTD/svg10.dtd">
<svg version="1.0" xmlns="http://www.w3.org/2000/svg"
 width="50.000000pt" height="41.000000pt" viewBox="0 0 50.000000 41.000000"
 preserveAspectRatio="xMidYMid meet">
<metadata>
Created by potrace 1.16, written by Peter Selinger 2001-2019
</metadata>
<g transform="translate(0.000000,41.000000) scale(0.100000,-0.100000)"
fill="#000000" stroke="none">
<path d="M90 361 l0 -50 -12 -8 -13 -8 -30 0 -30 0 -3 -32 -3 -32 21 -11 21
-11 27 3 27 3 -2 -62 -1 -63 41 0 42 0 14 -9 15 -10 0 -33 1 -33 24 -3 23 -4
24 6 24 6 0 29 0 29 48 6 47 7 18 5 17 5 0 23 0 24 6 31 7 31 17 0 18 0 11 14
12 15 -3 43 -3 43 -37 3 -38 3 -6 41 -7 40 -38 -6 -38 -6 -27 -10 -26 -10 4
-18 5 -18 -13 -12 -13 -12 -20 0 -20 0 -7 12 -7 12 -1 35 -1 36 -57 3 -58 3 0
-50z"/>
</g>
</svg>
