<?xml version="1.0" standalone="no"?>
<!DOCTYPE svg PUBLIC "-//W3C//DTD SVG 20010904//EN"
 "http://www.w3.org/TR/2001/REC-SVG-20010904/DTD/svg10.dtd">
<svg version="1.0" xmlns="http://www.w3.org/2000/svg"
 width="44.000000pt" height="35.000000pt" viewBox="0 0 44.000000 35.000000"
 preserveAspectRatio="xMidYMid meet">
<metadata>
Created by potrace 1.16, written by Peter Selinger 2001-2019
</metadata>
<g transform="translate(0.000000,35.000000) scale(0.100000,-0.100000)"
fill="#000000" stroke="none">
<path d="M216 341 l-7 -11 6 -32 6 -33 -15 -20 -15 -20 -18 11 -18 11 -3 42
-3 42 -62 -3 -62 -3 -3 -48 -3 -49 12 -14 11 -14 24 0 23 0 5 -9 6 -9 -6 -17
-6 -16 -44 7 -44 6 0 -38 0 -39 6 -38 7 -37 73 0 74 0 0 39 0 40 9 6 10 5 8
-12 8 -13 0 -35 0 -35 58 -3 59 -3 14 12 14 12 -2 51 -3 51 28 -3 28 -4 25 17
25 16 -3 37 -3 37 -37 -3 -37 -3 -11 22 -12 21 6 33 6 33 -15 5 -15 6 -49 7
-48 6 -7 -11z"/>
</g>
</svg>
