<?xml version="1.0" standalone="no"?>
<!DOCTYPE svg PUBLIC "-//W3C//DTD SVG 20010904//EN"
 "http://www.w3.org/TR/2001/REC-SVG-20010904/DTD/svg10.dtd">
<svg version="1.0" xmlns="http://www.w3.org/2000/svg"
 width="39.000000pt" height="35.000000pt" viewBox="0 0 39.000000 35.000000"
 preserveAspectRatio="xMidYMid meet">
<metadata>
Created by potrace 1.16, written by Peter Selinger 2001-2019
</metadata>
<g transform="translate(0.000000,35.000000) scale(0.100000,-0.100000)"
fill="#000000" stroke="none">
<path d="M280 307 l0 -43 -12 -12 -12 -12 -18 0 -17 0 -11 19 -10 20 0 30 0
31 -22 0 -23 0 -37 -6 -37 -6 -3 -51 -3 -51 -35 -1 -35 0 -3 -18 -4 -19 6 -24
6 -24 47 0 46 0 -7 -43 -6 -42 -6 -23 -7 -23 69 3 69 3 0 35 0 35 25 0 25 0
-3 -32 -3 -32 20 -10 19 -11 46 6 46 7 0 162 0 163 -22 6 -23 6 -32 0 -33 0 0
-43z"/>
</g>
</svg>
