<?xml version="1.0" standalone="no"?>
<!DOCTYPE svg PUBLIC "-//W3C//DTD SVG 20010904//EN"
 "http://www.w3.org/TR/2001/REC-SVG-20010904/DTD/svg10.dtd">
<svg version="1.0" xmlns="http://www.w3.org/2000/svg"
 width="40.000000pt" height="41.000000pt" viewBox="0 0 40.000000 41.000000"
 preserveAspectRatio="xMidYMid meet">
<metadata>
Created by potrace 1.16, written by Peter Selinger 2001-2019
</metadata>
<g transform="translate(0.000000,41.000000) scale(0.100000,-0.100000)"
fill="#000000" stroke="none">
<path d="M65 403 l-20 -4 -23 -5 -22 -4 0 -35 0 -34 10 -25 10 -26 30 0 31 0
-3 -22 -3 -23 -37 3 -38 4 0 -65 0 -65 6 -16 6 -15 49 6 49 6 0 -26 0 -25 6
-16 6 -16 44 0 44 0 9 23 9 23 51 13 51 13 -7 74 -6 74 30 -6 29 -6 13 16 12
15 -3 28 -3 28 -30 0 -30 0 -3 53 -3 52 -5 0 -6 0 -53 -15 -53 -16 -5 -20 -6
-20 -28 3 -28 3 2 31 3 32 -23 6 -22 6 -10 -1 -10 -1 -20 -5z"/>
</g>
</svg>
