<?xml version="1.0" standalone="no"?>
<!DOCTYPE svg PUBLIC "-//W3C//DTD SVG 20010904//EN"
 "http://www.w3.org/TR/2001/REC-SVG-20010904/DTD/svg10.dtd">
<svg version="1.0" xmlns="http://www.w3.org/2000/svg"
 width="32.000000pt" height="39.000000pt" viewBox="0 0 32.000000 39.000000"
 preserveAspectRatio="xMidYMid meet">
<metadata>
Created by potrace 1.16, written by Peter Selinger 2001-2019
</metadata>
<g transform="translate(0.000000,39.000000) scale(0.100000,-0.100000)"
fill="#000000" stroke="none">
<path d="M37 383 l-27 -4 0 -34 0 -33 -6 -16 -6 -16 34 0 34 0 12 -12 12 -12
0 -18 0 -18 -21 -21 -21 -21 -24 6 -24 6 2 -57 3 -58 57 3 57 4 -6 -35 -5 -35
20 -6 20 -7 26 7 25 6 -2 21 -2 21 50 9 50 8 7 7 7 7 -18 55 -18 55 -22 3 -22
4 -6 14 -5 14 13 16 12 15 36 -3 36 -3 3 45 3 45 -14 19 -14 19 -54 -9 -54 -9
3 -33 4 -32 -16 -6 -16 -6 -25 16 -25 16 0 35 0 35 -22 -1 -23 -2 -28 -4z"/>
</g>
</svg>
