<?xml version="1.0" standalone="no"?>
<!DOCTYPE svg PUBLIC "-//W3C//DTD SVG 20010904//EN"
 "http://www.w3.org/TR/2001/REC-SVG-20010904/DTD/svg10.dtd">
<svg version="1.0" xmlns="http://www.w3.org/2000/svg"
 width="34.000000pt" height="41.000000pt" viewBox="0 0 34.000000 41.000000"
 preserveAspectRatio="xMidYMid meet">
<metadata>
Created by potrace 1.16, written by Peter Selinger 2001-2019
</metadata>
<g transform="translate(0.000000,41.000000) scale(0.100000,-0.100000)"
fill="#000000" stroke="none">
<path d="M37 403 l-27 -4 0 -28 0 -28 -6 -32 -6 -31 35 0 35 0 11 -14 12 -15
-11 -20 -11 -21 -12 -1 -12 -1 -22 2 -23 1 1 -69 1 -70 54 5 54 6 0 -36 0 -36
21 -6 21 -7 34 7 34 6 0 23 0 23 50 7 49 7 7 10 6 10 -18 61 -18 60 -13 4 -13
4 -17 5 -16 6 12 12 12 12 37 0 37 0 3 52 3 52 -12 22 -11 22 -60 -7 -60 -6
-9 -6 -10 -6 6 -28 6 -28 -9 -6 -9 -5 -21 15 -22 15 0 35 0 34 -32 -1 -33 -2
-28 -4z"/>
</g>
</svg>
