<?xml version="1.0" standalone="no"?>
<!DOCTYPE svg PUBLIC "-//W3C//DTD SVG 20010904//EN"
 "http://www.w3.org/TR/2001/REC-SVG-20010904/DTD/svg10.dtd">
<svg version="1.0" xmlns="http://www.w3.org/2000/svg"
 width="35.000000pt" height="42.000000pt" viewBox="0 0 35.000000 42.000000"
 preserveAspectRatio="xMidYMid meet">
<metadata>
Created by potrace 1.16, written by Peter Selinger 2001-2019
</metadata>
<g transform="translate(0.000000,42.000000) scale(0.100000,-0.100000)"
fill="#000000" stroke="none">
<path d="M12 358 l3 -63 45 -5 45 -5 3 -21 3 -21 -16 -13 -17 -14 -40 3 -41 2
6 -55 6 -55 6 -11 6 -10 37 0 37 0 12 -8 11 -7 -1 -35 -2 -35 45 0 45 0 9 44
9 43 59 -5 59 -5 -6 71 -7 72 -3 13 -4 12 -31 0 -30 0 0 9 0 10 12 7 13 8 34
-3 34 -3 -6 24 -7 23 0 48 0 47 -165 0 -166 0 3 -62z"/>
</g>
</svg>
