<?xml version="1.0" standalone="no"?>
<!DOCTYPE svg PUBLIC "-//W3C//DTD SVG 20010904//EN"
 "http://www.w3.org/TR/2001/REC-SVG-20010904/DTD/svg10.dtd">
<svg version="1.0" xmlns="http://www.w3.org/2000/svg"
 width="42.000000pt" height="51.000000pt" viewBox="0 0 42.000000 51.000000"
 preserveAspectRatio="xMidYMid meet">
<metadata>
Created by potrace 1.16, written by Peter Selinger 2001-2019
</metadata>
<g transform="translate(0.000000,51.000000) scale(0.100000,-0.100000)"
fill="#000000" stroke="none">
<path d="M210 496 l-12 -16 4 -30 5 -30 -55 0 -54 0 4 -52 3 -53 -36 3 -36 3
-17 -17 -17 -17 3 -26 3 -26 27 -3 27 -3 11 -37 10 -37 0 -27 0 -28 60 0 60 0
0 -38 0 -38 12 -12 12 -12 32 0 32 0 16 6 16 6 0 28 0 28 51 12 51 13 -6 59
-7 60 -9 24 -10 24 -25 0 -25 0 0 15 0 15 30 0 29 0 11 19 10 20 0 46 0 47
-42 -8 -43 -8 -24 0 -24 -1 -1 50 -1 50 -31 3 -31 3 -13 -15z"/>
</g>
</svg>
