<?xml version="1.0" standalone="no"?>
<!DOCTYPE svg PUBLIC "-//W3C//DTD SVG 20010904//EN"
 "http://www.w3.org/TR/2001/REC-SVG-20010904/DTD/svg10.dtd">
<svg version="1.0" xmlns="http://www.w3.org/2000/svg"
 width="42.000000pt" height="47.000000pt" viewBox="0 0 42.000000 47.000000"
 preserveAspectRatio="xMidYMid meet">
<metadata>
Created by potrace 1.16, written by Peter Selinger 2001-2019
</metadata>
<g transform="translate(0.000000,47.000000) scale(0.100000,-0.100000)"
fill="#000000" stroke="none">
<path d="M129 463 l-1 -8 -1 -35 -2 -35 -57 -3 -58 -3 0 -42 0 -43 16 -23 17
-23 29 6 29 6 -3 -23 -3 -22 -25 -1 -26 0 -10 -7 -11 -7 -6 -42 -5 -43 -7 -17
-7 -17 59 -3 58 -3 -3 -29 -4 -29 14 -8 13 -9 30 0 30 0 14 9 14 9 -6 16 -7
17 13 3 12 4 46 12 45 12 3 51 2 51 7 10 7 11 35 0 35 0 3 28 3 28 -12 15 -13
16 -37 -4 -38 -3 -3 45 -3 45 -45 8 -45 9 -24 4 -23 5 6 21 5 22 -11 13 -10
13 -19 0 -19 0 -1 -7z"/>
</g>
</svg>
