<?xml version="1.0" standalone="no"?>
<!DOCTYPE svg PUBLIC "-//W3C//DTD SVG 20010904//EN"
 "http://www.w3.org/TR/2001/REC-SVG-20010904/DTD/svg10.dtd">
<svg version="1.0" xmlns="http://www.w3.org/2000/svg"
 width="47.000000pt" height="41.000000pt" viewBox="0 0 47.000000 41.000000"
 preserveAspectRatio="xMidYMid meet">
<metadata>
Created by potrace 1.16, written by Peter Selinger 2001-2019
</metadata>
<g transform="translate(0.000000,41.000000) scale(0.100000,-0.100000)"
fill="#000000" stroke="none">
<path d="M193 399 l-11 -11 5 -34 6 -34 -63 0 -63 0 6 -33 5 -33 -5 -25 -5
-25 -29 4 -29 4 -6 -17 -7 -16 11 -25 12 -24 31 0 30 0 -2 -50 -3 -50 5 -3 4
-4 48 -7 47 -7 0 34 0 34 18 16 19 17 10 0 11 0 12 -15 13 -16 2 -37 1 -37 18
-3 18 -4 44 7 44 6 0 42 0 42 6 23 7 23 14 -5 14 -6 20 10 19 11 0 34 0 34
-19 6 -18 5 -16 -5 -15 -6 -7 12 -8 12 -1 36 -1 36 -70 0 -70 0 3 33 3 33 -12
15 -11 14 -12 0 -12 0 -11 -11z"/>
</g>
</svg>
