<?xml version="1.0" standalone="no"?>
<!DOCTYPE svg PUBLIC "-//W3C//DTD SVG 20010904//EN"
 "http://www.w3.org/TR/2001/REC-SVG-20010904/DTD/svg10.dtd">
<svg version="1.0" xmlns="http://www.w3.org/2000/svg"
 width="49.000000pt" height="43.000000pt" viewBox="0 0 49.000000 43.000000"
 preserveAspectRatio="xMidYMid meet">
<metadata>
Created by potrace 1.16, written by Peter Selinger 2001-2019
</metadata>
<g transform="translate(0.000000,43.000000) scale(0.100000,-0.100000)"
fill="#000000" stroke="none">
<path d="M190 415 l-12 -14 7 -31 7 -30 -62 0 -62 0 2 -37 2 -38 -1 -17 -1
-17 -32 -3 -33 -3 -3 -27 -3 -27 11 -21 11 -20 31 0 31 0 -6 -50 -6 -49 7 -5
7 -4 58 -7 57 -7 0 34 0 35 19 17 18 17 13 -15 12 -15 1 -38 2 -38 29 -3 30
-4 43 7 43 6 0 47 0 47 8 10 7 10 30 10 30 10 3 44 3 44 -13 8 -13 9 -27 0
-27 0 -3 43 -3 42 -67 -3 -68 -4 0 39 0 39 -12 12 -12 12 -22 0 -22 0 -12 -15z"/>
</g>
</svg>
