<?xml version="1.0" standalone="no"?>
<!DOCTYPE svg PUBLIC "-//W3C//DTD SVG 20010904//EN"
 "http://www.w3.org/TR/2001/REC-SVG-20010904/DTD/svg10.dtd">
<svg version="1.0" xmlns="http://www.w3.org/2000/svg"
 width="41.000000pt" height="49.000000pt" viewBox="0 0 41.000000 49.000000"
 preserveAspectRatio="xMidYMid meet">
<metadata>
Created by potrace 1.16, written by Peter Selinger 2001-2019
</metadata>
<g transform="translate(0.000000,49.000000) scale(0.100000,-0.100000)"
fill="#000000" stroke="none">
<path d="M211 471 l-11 -20 3 -23 2 -23 -55 -5 -55 -5 -5 -47 -6 -47 -7 -7 -7
-8 -33 0 -32 -1 -3 -21 -3 -21 16 -13 16 -13 30 0 29 0 0 -61 0 -61 60 3 60 4
0 -41 0 -41 24 -12 25 -11 15 6 16 6 0 24 0 24 45 13 45 13 0 8 0 9 15 0 15 0
-10 26 -10 25 0 34 0 34 -12 8 -13 8 -25 0 -25 0 0 20 0 20 34 -3 34 -3 9 13
8 13 0 53 0 52 -37 0 -38 0 -22 6 -22 6 -3 37 -3 36 -27 3 -27 3 -10 -20z"/>
</g>
</svg>
