<?xml version="1.0" standalone="no"?>
<!DOCTYPE svg PUBLIC "-//W3C//DTD SVG 20010904//EN"
 "http://www.w3.org/TR/2001/REC-SVG-20010904/DTD/svg10.dtd">
<svg version="1.0" xmlns="http://www.w3.org/2000/svg"
 width="49.000000pt" height="49.000000pt" viewBox="0 0 49.000000 49.000000"
 preserveAspectRatio="xMidYMid meet">
<metadata>
Created by potrace 1.16, written by Peter Selinger 2001-2019
</metadata>
<g transform="translate(0.000000,49.000000) scale(0.100000,-0.100000)"
fill="#000000" stroke="none">
<path d="M222 477 l-11 -13 2 -30 2 -29 -62 -3 -63 -3 0 -54 0 -55 -46 0 -45
0 3 -47 3 -48 32 -9 32 -10 6 -48 7 -48 31 0 32 0 23 -6 22 -6 0 -34 0 -34 50
0 49 0 12 21 11 21 -5 25 -5 25 37 -5 36 -6 23 -7 22 -6 0 24 0 24 15 52 16
52 19 0 20 0 0 29 0 29 -12 10 -13 10 -25 4 -25 3 -3 48 -3 47 -54 0 -55 0 -5
28 -6 27 -8 15 -8 15 -20 3 -20 3 -11 -14z"/>
</g>
</svg>
