<?xml version="1.0" standalone="no"?>
<!DOCTYPE svg PUBLIC "-//W3C//DTD SVG 20010904//EN"
 "http://www.w3.org/TR/2001/REC-SVG-20010904/DTD/svg10.dtd">
<svg version="1.0" xmlns="http://www.w3.org/2000/svg"
 width="32.000000pt" height="50.000000pt" viewBox="0 0 32.000000 50.000000"
 preserveAspectRatio="xMidYMid meet">
<metadata>
Created by potrace 1.16, written by Peter Selinger 2001-2019
</metadata>
<g transform="translate(0.000000,50.000000) scale(0.100000,-0.100000)"
fill="#000000" stroke="none">
<path d="M120 471 l0 -30 -11 -6 -10 -7 -47 -7 -47 -6 -3 -162 -2 -162 55 6
55 6 0 -35 0 -35 18 -16 19 -17 20 0 21 0 16 25 17 26 -3 22 -3 22 50 5 50 5
3 63 3 62 -29 0 -28 0 -18 13 -18 13 3 20 4 19 43 3 42 3 0 58 0 59 -22 6 -23
6 -27 0 -26 0 -15 6 -15 5 6 21 5 20 -14 9 -14 9 -27 0 -28 0 0 -29z"/>
</g>
</svg>
