<?xml version="1.0" standalone="no"?>
<!DOCTYPE svg PUBLIC "-//W3C//DTD SVG 20010904//EN"
 "http://www.w3.org/TR/2001/REC-SVG-20010904/DTD/svg10.dtd">
<svg version="1.0" xmlns="http://www.w3.org/2000/svg"
 width="30.000000pt" height="48.000000pt" viewBox="0 0 30.000000 48.000000"
 preserveAspectRatio="xMidYMid meet">
<metadata>
Created by potrace 1.16, written by Peter Selinger 2001-2019
</metadata>
<g transform="translate(0.000000,48.000000) scale(0.100000,-0.100000)"
fill="#000000" stroke="none">
<path d="M120 451 l0 -30 -11 -6 -10 -7 -47 -7 -47 -6 -3 -152 -3 -151 18 3
18 4 38 5 37 5 0 -38 0 -38 18 -16 19 -17 11 0 11 0 13 23 13 22 0 25 0 25 50
5 50 5 3 53 3 52 -29 0 -28 0 -18 13 -18 13 4 29 3 30 43 3 42 3 0 48 0 49
-22 6 -23 6 -30 0 -30 0 -14 9 -14 9 7 18 7 17 -13 9 -13 8 -17 0 -18 0 0 -29z"/>
</g>
</svg>
