<?xml version="1.0" standalone="no"?>
<!DOCTYPE svg PUBLIC "-//W3C//DTD SVG 20010904//EN"
 "http://www.w3.org/TR/2001/REC-SVG-20010904/DTD/svg10.dtd">
<svg version="1.0" xmlns="http://www.w3.org/2000/svg"
 width="34.000000pt" height="32.000000pt" viewBox="0 0 34.000000 32.000000"
 preserveAspectRatio="xMidYMid meet">
<metadata>
Created by potrace 1.16, written by Peter Selinger 2001-2019
</metadata>
<g transform="translate(0.000000,32.000000) scale(0.100000,-0.100000)"
fill="#000000" stroke="none">
<path d="M2 269 l5 -51 14 -9 14 -9 25 2 25 3 0 -30 0 -29 -24 -6 -25 -6 -13
-53 -14 -54 5 -14 6 -14 57 3 58 3 0 33 0 32 22 0 23 0 0 -24 0 -25 8 -4 7 -4
62 -7 61 -7 12 55 11 56 -6 11 -7 11 -23 -4 -23 -5 -22 17 -22 17 6 20 7 21
21 -6 21 -5 13 18 14 19 0 49 0 48 -12 -3 -13 -4 -49 -13 -49 -14 -5 -19 -4
-18 -29 0 -29 0 0 35 0 35 -66 0 -67 0 5 -51z"/>
</g>
</svg>
