<?xml version="1.0" standalone="no"?>
<!DOCTYPE svg PUBLIC "-//W3C//DTD SVG 20010904//EN"
 "http://www.w3.org/TR/2001/REC-SVG-20010904/DTD/svg10.dtd">
<svg version="1.0" xmlns="http://www.w3.org/2000/svg"
 width="32.000000pt" height="30.000000pt" viewBox="0 0 32.000000 30.000000"
 preserveAspectRatio="xMidYMid meet">
<metadata>
Created by potrace 1.16, written by Peter Selinger 2001-2019
</metadata>
<g transform="translate(0.000000,30.000000) scale(0.100000,-0.100000)"
fill="#000000" stroke="none">
<path d="M3 259 l5 -41 7 -6 6 -6 32 -1 32 0 3 -34 3 -34 -11 -11 -11 -11 -16
0 -17 0 -12 -50 -13 -50 8 -8 8 -8 44 3 44 3 -3 32 -2 33 35 0 35 0 0 -25 0
-26 13 -3 12 -4 47 -6 47 -5 10 46 10 47 -6 9 -5 8 -18 -6 -19 -6 -26 17 -25
16 0 22 0 21 9 14 9 13 20 -6 21 -7 10 20 11 20 0 34 0 34 -52 -17 -53 -17 3
-17 3 -16 -46 0 -45 0 -1 13 -1 12 2 23 1 22 -57 0 -57 0 6 -41z"/>
</g>
</svg>
