<?xml version="1.0" standalone="no"?>
<!DOCTYPE svg PUBLIC "-//W3C//DTD SVG 20010904//EN"
 "http://www.w3.org/TR/2001/REC-SVG-20010904/DTD/svg10.dtd">
<svg version="1.0" xmlns="http://www.w3.org/2000/svg"
 width="35.000000pt" height="51.000000pt" viewBox="0 0 35.000000 51.000000"
 preserveAspectRatio="xMidYMid meet">
<metadata>
Created by potrace 1.16, written by Peter Selinger 2001-2019
</metadata>
<g transform="translate(0.000000,51.000000) scale(0.100000,-0.100000)"
fill="#000000" stroke="none">
<path d="M150 489 l-11 -20 6 -30 7 -29 -67 0 -66 0 3 -67 3 -68 39 -1 40 0 3
-11 4 -11 -22 -15 -21 -15 -34 5 -34 6 0 -40 0 -40 6 -31 6 -31 62 -3 61 -3 5
-40 5 -40 42 -3 42 -3 11 22 12 21 -4 30 -5 30 50 -6 50 -7 -7 57 -6 56 -11
20 -11 20 -23 -5 -24 -4 -5 13 -5 12 6 6 6 6 38 0 37 0 6 16 6 16 0 58 0 57
-56 2 -56 1 -8 5 -8 5 5 19 5 19 -11 21 -12 21 -24 0 -24 0 -11 -21z"/>
</g>
</svg>
