<?xml version="1.0" standalone="no"?>
<!DOCTYPE svg PUBLIC "-//W3C//DTD SVG 20010904//EN"
 "http://www.w3.org/TR/2001/REC-SVG-20010904/DTD/svg10.dtd">
<svg version="1.0" xmlns="http://www.w3.org/2000/svg"
 width="37.000000pt" height="50.000000pt" viewBox="0 0 37.000000 50.000000"
 preserveAspectRatio="xMidYMid meet">
<metadata>
Created by potrace 1.16, written by Peter Selinger 2001-2019
</metadata>
<g transform="translate(0.000000,50.000000) scale(0.100000,-0.100000)"
fill="#000000" stroke="none">
<path d="M143 492 l-12 -7 -3 -40 -3 -40 -56 -3 -57 -3 -4 -51 -5 -52 14 -14
14 -14 16 6 16 6 13 -11 14 -11 0 -9 0 -9 -20 0 -19 0 -21 -71 -22 -72 14 -8
13 -9 47 0 47 0 3 -37 3 -38 32 -3 32 -3 20 20 21 21 0 26 0 26 28 -5 27 -5
20 -6 20 -6 12 8 12 8 7 73 7 74 -43 -6 -44 -6 -18 10 -18 10 0 10 0 10 21 -6
20 -7 25 6 24 6 0 70 0 69 -32 5 -33 6 -25 2 -25 3 0 33 0 33 -15 9 -15 10
-20 0 -20 0 -12 -8z"/>
</g>
</svg>
