<?xml version="1.0" standalone="no"?>
<!DOCTYPE svg PUBLIC "-//W3C//DTD SVG 20010904//EN"
 "http://www.w3.org/TR/2001/REC-SVG-20010904/DTD/svg10.dtd">
<svg version="1.0" xmlns="http://www.w3.org/2000/svg"
 width="38.000000pt" height="40.000000pt" viewBox="0 0 38.000000 40.000000"
 preserveAspectRatio="xMidYMid meet">
<metadata>
Created by potrace 1.16, written by Peter Selinger 2001-2019
</metadata>
<g transform="translate(0.000000,40.000000) scale(0.100000,-0.100000)"
fill="#000000" stroke="none">
<path d="M82 339 l3 -60 -31 6 -31 5 -12 -14 -13 -15 4 -18 3 -18 30 0 30 0 3
-35 2 -35 6 -32 5 -33 43 0 44 0 11 -14 12 -14 -3 -29 -3 -28 23 -3 23 -4 15
12 14 12 0 45 0 44 59 -7 59 -6 -18 53 -18 54 -21 10 -22 10 3 25 3 25 23 -3
23 -3 15 11 14 12 0 54 0 54 -151 0 -151 0 4 -61z"/>
</g>
</svg>
