<?xml version="1.0" standalone="no"?>
<!DOCTYPE svg PUBLIC "-//W3C//DTD SVG 20010904//EN"
 "http://www.w3.org/TR/2001/REC-SVG-20010904/DTD/svg10.dtd">
<svg version="1.0" xmlns="http://www.w3.org/2000/svg"
 width="35.000000pt" height="41.000000pt" viewBox="0 0 35.000000 41.000000"
 preserveAspectRatio="xMidYMid meet">
<metadata>
Created by potrace 1.16, written by Peter Selinger 2001-2019
</metadata>
<g transform="translate(0.000000,41.000000) scale(0.100000,-0.100000)"
fill="#000000" stroke="none">
<path d="M112 401 l-13 -8 3 -29 3 -29 -52 -3 -53 -3 0 -60 0 -61 31 7 30 7
20 -18 19 -17 0 -17 0 -18 -17 -8 -18 -7 -30 -1 -30 -1 -3 -63 -3 -62 76 0 75
0 0 36 0 36 13 -5 12 -4 0 -34 0 -34 45 -3 45 -3 31 5 31 6 11 39 12 38 0 38
0 38 -39 -7 -39 -6 -12 15 -13 15 6 7 7 6 32 1 33 1 0 57 0 57 -8 7 -7 7 -53
-9 -54 -10 -10 3 -9 3 4 29 4 29 -11 21 -12 21 -22 0 -22 0 -13 -9z"/>
</g>
</svg>
