<?xml version="1.0" standalone="no"?>
<!DOCTYPE svg PUBLIC "-//W3C//DTD SVG 20010904//EN"
 "http://www.w3.org/TR/2001/REC-SVG-20010904/DTD/svg10.dtd">
<svg version="1.0" xmlns="http://www.w3.org/2000/svg"
 width="33.000000pt" height="39.000000pt" viewBox="0 0 33.000000 39.000000"
 preserveAspectRatio="xMidYMid meet">
<metadata>
Created by potrace 1.16, written by Peter Selinger 2001-2019
</metadata>
<g transform="translate(0.000000,39.000000) scale(0.100000,-0.100000)"
fill="#000000" stroke="none">
<path d="M114 382 l-11 -7 1 -30 1 -30 -52 -3 -53 -3 0 -48 0 -48 30 5 31 4
19 -17 20 -18 0 -27 0 -27 -22 -12 -23 -12 -25 3 -25 3 -3 -52 -3 -53 66 0 66
0 -1 23 -2 22 1 13 1 13 23 -3 22 -3 0 -35 0 -35 34 -3 35 -4 31 6 32 6 11 39
12 38 0 27 0 27 -35 -7 -35 -6 -15 12 -15 12 0 19 0 19 13 2 12 1 25 1 25 1
-1 47 0 48 -6 6 -7 6 -50 -11 -50 -11 -16 6 -16 7 6 28 6 28 -11 20 -11 21
-12 0 -12 0 -11 -8z"/>
</g>
</svg>
