<?xml version="1.0" standalone="no"?>
<!DOCTYPE svg PUBLIC "-//W3C//DTD SVG 20010904//EN"
 "http://www.w3.org/TR/2001/REC-SVG-20010904/DTD/svg10.dtd">
<svg version="1.0" xmlns="http://www.w3.org/2000/svg"
 width="41.000000pt" height="48.000000pt" viewBox="0 0 41.000000 48.000000"
 preserveAspectRatio="xMidYMid meet">
<metadata>
Created by potrace 1.16, written by Peter Selinger 2001-2019
</metadata>
<g transform="translate(0.000000,48.000000) scale(0.100000,-0.100000)"
fill="#000000" stroke="none">
<path d="M207 474 l-7 -7 0 -34 0 -33 -55 0 -55 0 0 -60 0 -60 -12 -1 -13 -1
-33 2 -32 2 0 -31 0 -30 21 -12 22 -11 40 5 39 5 -7 -36 -7 -37 -2 -25 -1 -25
25 -3 25 -3 23 -4 22 -5 0 -35 0 -35 43 0 42 0 11 8 10 7 6 15 6 15 47 13 47
13 -6 31 -6 31 0 133 0 134 -49 0 -50 0 -3 38 -3 37 -40 3 -41 3 -7 -7z"/>
</g>
</svg>
