<?xml version="1.0" standalone="no"?>
<!DOCTYPE svg PUBLIC "-//W3C//DTD SVG 20010904//EN"
 "http://www.w3.org/TR/2001/REC-SVG-20010904/DTD/svg10.dtd">
<svg version="1.0" xmlns="http://www.w3.org/2000/svg"
 width="43.000000pt" height="45.000000pt" viewBox="0 0 43.000000 45.000000"
 preserveAspectRatio="xMidYMid meet">
<metadata>
Created by potrace 1.16, written by Peter Selinger 2001-2019
</metadata>
<g transform="translate(0.000000,45.000000) scale(0.100000,-0.100000)"
fill="#000000" stroke="none">
<path d="M263 411 l5 -39 -11 -11 -11 -11 -13 0 -13 0 0 30 0 30 -23 5 -24 6
-44 -3 -44 -3 -7 -47 -6 -47 -6 -9 -5 -9 -31 5 -31 4 3 -43 3 -44 39 -3 39 -3
-6 -60 -5 -59 54 0 54 0 0 -44 0 -44 16 -6 16 -6 28 0 29 0 11 21 11 20 -3 37
-2 37 19 -2 20 -2 46 -7 46 -6 6 38 7 39 0 38 0 38 -38 -2 -38 -3 -12 8 -12 7
0 8 0 8 27 -5 26 -5 14 18 13 19 0 61 0 61 -58 12 -58 12 -18 0 -19 0 6 -39z"/>
</g>
</svg>
