<?xml version="1.0" standalone="no"?>
<!DOCTYPE svg PUBLIC "-//W3C//DTD SVG 20010904//EN"
 "http://www.w3.org/TR/2001/REC-SVG-20010904/DTD/svg10.dtd">
<svg version="1.0" xmlns="http://www.w3.org/2000/svg"
 width="49.000000pt" height="35.000000pt" viewBox="0 0 49.000000 35.000000"
 preserveAspectRatio="xMidYMid meet">
<metadata>
Created by potrace 1.16, written by Peter Selinger 2001-2019
</metadata>
<g transform="translate(0.000000,35.000000) scale(0.100000,-0.100000)"
fill="#000000" stroke="none">
<path d="M270 317 l0 -33 -13 -18 -13 -18 -20 4 -19 3 -5 35 -5 35 -55 0 -55
0 -5 -45 -5 -45 -35 -5 -35 -5 -3 -29 -4 -28 6 -24 6 -24 38 -6 38 -6 -4 -56
-5 -55 24 6 24 7 54 0 54 0 -6 29 -6 29 15 13 14 12 3 -4 2 -4 11 -19 10 -20
53 -14 52 -15 10 10 10 10 7 49 7 49 35 5 35 5 3 34 3 34 -30 -6 -30 -6 -16
22 -15 21 0 43 0 42 -37 10 -38 11 -27 0 -28 0 0 -33z"/>
</g>
</svg>
