<?xml version="1.0" standalone="no"?>
<!DOCTYPE svg PUBLIC "-//W3C//DTD SVG 20010904//EN"
 "http://www.w3.org/TR/2001/REC-SVG-20010904/DTD/svg10.dtd">
<svg version="1.0" xmlns="http://www.w3.org/2000/svg"
 width="47.000000pt" height="33.000000pt" viewBox="0 0 47.000000 33.000000"
 preserveAspectRatio="xMidYMid meet">
<metadata>
Created by potrace 1.16, written by Peter Selinger 2001-2019
</metadata>
<g transform="translate(0.000000,33.000000) scale(0.100000,-0.100000)"
fill="#000000" stroke="none">
<path d="M270 299 l0 -30 -10 -20 -11 -19 -29 0 -29 0 -8 13 -8 12 0 25 0 25
-45 0 -45 0 -5 -45 -5 -45 -35 -5 -35 -5 -3 -30 -2 -30 9 -14 9 -13 33 -2 34
-2 -3 -54 -3 -55 65 3 66 4 -6 24 -6 24 12 15 12 15 17 0 16 0 10 -22 10 -21
45 -13 45 -13 8 8 9 9 5 46 6 46 11 7 10 7 26 0 25 1 3 22 3 23 -29 -6 -29 -6
-17 23 -16 23 0 43 0 42 -37 10 -38 11 -17 0 -18 0 0 -31z"/>
</g>
</svg>
