<?xml version="1.0" standalone="no"?>
<!DOCTYPE svg PUBLIC "-//W3C//DTD SVG 20010904//EN"
 "http://www.w3.org/TR/2001/REC-SVG-20010904/DTD/svg10.dtd">
<svg version="1.0" xmlns="http://www.w3.org/2000/svg"
 width="47.000000pt" height="40.000000pt" viewBox="0 0 47.000000 40.000000"
 preserveAspectRatio="xMidYMid meet">
<metadata>
Created by potrace 1.16, written by Peter Selinger 2001-2019
</metadata>
<g transform="translate(0.000000,40.000000) scale(0.100000,-0.100000)"
fill="#000000" stroke="none">
<path d="M207 393 l-7 -6 0 -16 0 -16 -9 -14 -10 -15 -48 -5 -48 -6 -3 -47 -3
-48 -28 0 -29 0 -12 -14 -12 -15 4 -23 3 -23 17 1 18 2 10 -37 9 -36 3 -25 3
-25 7 -5 7 -5 58 5 58 5 0 30 1 30 29 0 30 0 3 -35 3 -35 9 -8 8 -9 46 7 46 7
-6 65 -7 65 32 -7 32 -7 25 17 25 16 -3 22 -3 22 -40 0 -40 0 -3 58 -3 57 -17
-9 -17 -8 -32 -6 -33 -6 -15 5 -15 6 6 34 6 34 -12 15 -12 15 -13 0 -12 0 -6
-7z"/>
</g>
</svg>
