<?xml version="1.0" standalone="no"?>
<!DOCTYPE svg PUBLIC "-//W3C//DTD SVG 20010904//EN"
 "http://www.w3.org/TR/2001/REC-SVG-20010904/DTD/svg10.dtd">
<svg version="1.0" xmlns="http://www.w3.org/2000/svg"
 width="43.000000pt" height="39.000000pt" viewBox="0 0 43.000000 39.000000"
 preserveAspectRatio="xMidYMid meet">
<metadata>
Created by potrace 1.16, written by Peter Selinger 2001-2019
</metadata>
<g transform="translate(0.000000,39.000000) scale(0.100000,-0.100000)"
fill="#000000" stroke="none">
<path d="M153 369 l6 -22 -10 -19 -10 -18 -53 0 -54 0 -11 -14 -12 -15 3 -38
3 -38 28 3 29 4 19 -18 19 -17 0 -9 0 -8 -20 -20 -21 -21 -34 7 -35 6 0 -40 0
-41 10 -23 11 -23 64 3 64 4 -2 36 -2 37 23 3 22 3 0 -20 0 -20 58 -17 57 -16
10 -2 10 -1 5 50 5 50 25 -3 25 -3 23 12 22 12 0 27 0 27 -20 18 -19 17 -31
-4 -30 -5 0 48 0 47 -32 10 -33 10 -28 6 -28 7 3 22 3 22 -34 3 -34 3 6 -22z"/>
</g>
</svg>
