<?xml version="1.0" standalone="no"?>
<!DOCTYPE svg PUBLIC "-//W3C//DTD SVG 20010904//EN"
 "http://www.w3.org/TR/2001/REC-SVG-20010904/DTD/svg10.dtd">
<svg version="1.0" xmlns="http://www.w3.org/2000/svg"
 width="48.000000pt" height="33.000000pt" viewBox="0 0 48.000000 33.000000"
 preserveAspectRatio="xMidYMid meet">
<metadata>
Created by potrace 1.16, written by Peter Selinger 2001-2019
</metadata>
<g transform="translate(0.000000,33.000000) scale(0.100000,-0.100000)"
fill="#000000" stroke="none">
<path d="M88 300 l4 -30 -7 -36 -6 -36 -34 4 -34 4 -5 -13 -5 -12 16 -16 16
-16 23 5 23 6 11 -20 11 -20 -6 -38 -7 -37 -4 -16 -4 -16 50 8 50 8 10 6 10 6
0 35 0 34 25 0 24 0 11 -19 10 -20 0 -37 0 -37 46 6 46 5 14 13 13 14 8 55 8
54 35 0 35 1 0 35 0 35 -47 3 -48 3 0 12 1 12 8 43 8 42 -157 0 -157 0 5 -30z"/>
</g>
</svg>
