<?xml version="1.0" standalone="no"?>
<!DOCTYPE svg PUBLIC "-//W3C//DTD SVG 20010904//EN"
 "http://www.w3.org/TR/2001/REC-SVG-20010904/DTD/svg10.dtd">
<svg version="1.0" xmlns="http://www.w3.org/2000/svg"
 width="34.000000pt" height="49.000000pt" viewBox="0 0 34.000000 49.000000"
 preserveAspectRatio="xMidYMid meet">
<metadata>
Created by potrace 1.16, written by Peter Selinger 2001-2019
</metadata>
<g transform="translate(0.000000,49.000000) scale(0.100000,-0.100000)"
fill="#000000" stroke="none">
<path d="M138 453 l-3 -38 -65 0 -65 0 -3 -45 -2 -45 13 -25 13 -25 29 -6 30
-7 -10 -2 -10 -2 -24 2 -24 2 -8 -14 -9 -13 0 -71 0 -71 58 1 57 1 5 -45 5
-45 33 -3 33 -3 15 12 15 12 -3 31 -3 31 52 3 52 3 7 21 6 20 -7 54 -6 54 -32
8 -32 8 0 15 0 14 32 -3 32 -3 10 20 11 20 0 51 0 52 -37 -7 -38 -8 -20 -1
-20 -1 -5 40 -5 40 -37 3 -37 3 -3 -38z"/>
</g>
</svg>
