<?xml version="1.0" standalone="no"?>
<!DOCTYPE svg PUBLIC "-//W3C//DTD SVG 20010904//EN"
 "http://www.w3.org/TR/2001/REC-SVG-20010904/DTD/svg10.dtd">
<svg version="1.0" xmlns="http://www.w3.org/2000/svg"
 width="41.000000pt" height="39.000000pt" viewBox="0 0 41.000000 39.000000"
 preserveAspectRatio="xMidYMid meet">
<metadata>
Created by potrace 1.16, written by Peter Selinger 2001-2019
</metadata>
<g transform="translate(0.000000,39.000000) scale(0.100000,-0.100000)"
fill="#000000" stroke="none">
<path d="M115 378 l-4 -13 2 -20 2 -20 -51 -3 -52 -3 -6 -22 -6 -22 0 -35 0
-35 9 -14 9 -14 16 6 16 6 15 -5 15 -6 0 -19 0 -19 -24 0 -25 0 -4 -7 -5 -8
-7 -62 -7 -63 66 0 65 0 12 21 11 21 -5 19 -5 19 14 0 14 0 0 -25 0 -25 23 -9
22 -8 47 -7 46 -7 8 13 8 13 6 45 5 45 33 3 33 3 -3 42 -3 42 -42 3 -41 3 5
56 6 55 -44 -8 -44 -7 -20 -1 -20 -1 -5 40 -5 40 -38 3 -37 3 -5 -13z"/>
</g>
</svg>
