<?xml version="1.0" standalone="no"?>
<!DOCTYPE svg PUBLIC "-//W3C//DTD SVG 20010904//EN"
 "http://www.w3.org/TR/2001/REC-SVG-20010904/DTD/svg10.dtd">
<svg version="1.0" xmlns="http://www.w3.org/2000/svg"
 width="45.000000pt" height="40.000000pt" viewBox="0 0 45.000000 40.000000"
 preserveAspectRatio="xMidYMid meet">
<metadata>
Created by potrace 1.16, written by Peter Selinger 2001-2019
</metadata>
<g transform="translate(0.000000,40.000000) scale(0.100000,-0.100000)"
fill="#000000" stroke="none">
<path d="M226 382 l-6 -19 6 -17 6 -16 -67 0 -67 0 4 -53 4 -52 -39 0 -39 0
-14 -20 -14 -19 0 -10 0 -11 10 -15 9 -14 28 -1 28 -2 11 -57 12 -57 5 -5 5
-5 58 -2 59 -2 1 38 0 37 12 12 11 11 16 -13 15 -12 0 -34 0 -34 55 -2 55 -1
17 -1 16 -1 13 35 12 35 1 44 1 44 -38 -6 -39 -5 -16 10 -17 9 0 9 0 10 34 0
34 0 6 16 6 16 0 54 0 54 -59 -7 -60 -6 -3 39 -3 39 -32 3 -31 3 -6 -19z"/>
</g>
</svg>
