<?xml version="1.0" standalone="no"?>
<!DOCTYPE svg PUBLIC "-//W3C//DTD SVG 20010904//EN"
 "http://www.w3.org/TR/2001/REC-SVG-20010904/DTD/svg10.dtd">
<svg version="1.0" xmlns="http://www.w3.org/2000/svg"
 width="43.000000pt" height="38.000000pt" viewBox="0 0 43.000000 38.000000"
 preserveAspectRatio="xMidYMid meet">
<metadata>
Created by potrace 1.16, written by Peter Selinger 2001-2019
</metadata>
<g transform="translate(0.000000,38.000000) scale(0.100000,-0.100000)"
fill="#000000" stroke="none">
<path d="M229 368 l-1 -13 2 -22 1 -23 -67 0 -67 0 7 -56 6 -55 -27 2 -28 2
-17 -1 -17 -2 -10 -18 -10 -18 9 -14 8 -13 29 -1 28 -1 11 -58 12 -58 4 -5 4
-4 50 -2 49 -3 0 35 0 35 8 13 8 12 18 0 19 0 13 -16 13 -16 -2 -28 -2 -28 61
-4 61 -3 10 25 10 25 6 44 5 44 -36 -7 -37 -7 -20 11 -21 11 3 22 3 22 29 -3
29 -4 8 14 9 13 0 45 0 45 -62 0 -63 0 0 35 0 35 -22 3 -23 3 -1 -13z"/>
</g>
</svg>
