<?xml version="1.0" standalone="no"?>
<!DOCTYPE svg PUBLIC "-//W3C//DTD SVG 20010904//EN"
 "http://www.w3.org/TR/2001/REC-SVG-20010904/DTD/svg10.dtd">
<svg version="1.0" xmlns="http://www.w3.org/2000/svg"
 width="46.000000pt" height="43.000000pt" viewBox="0 0 46.000000 43.000000"
 preserveAspectRatio="xMidYMid meet">
<metadata>
Created by potrace 1.16, written by Peter Selinger 2001-2019
</metadata>
<g transform="translate(0.000000,43.000000) scale(0.100000,-0.100000)"
fill="#000000" stroke="none">
<path d="M234 416 l-6 -16 6 -24 6 -24 -19 -23 -20 -24 -18 11 -18 11 -3 37
-3 36 -65 0 -64 0 0 -64 0 -64 16 -6 16 -6 19 0 19 0 0 -14 0 -15 -12 -7 -13
-8 -31 3 -31 2 -6 -15 -6 -14 6 -56 6 -56 11 -2 11 -1 45 -1 45 -1 3 -31 3
-32 34 -6 35 -7 20 11 20 11 0 35 0 36 64 -7 64 -7 12 50 12 51 31 3 32 3 3
48 3 49 -12 14 -12 15 -29 -3 -29 -3 -9 15 -10 15 0 28 0 28 -13 13 -13 13
-47 7 -47 7 -6 -15z"/>
</g>
</svg>
