<?xml version="1.0" standalone="no"?>
<!DOCTYPE svg PUBLIC "-//W3C//DTD SVG 20010904//EN"
 "http://www.w3.org/TR/2001/REC-SVG-20010904/DTD/svg10.dtd">
<svg version="1.0" xmlns="http://www.w3.org/2000/svg"
 width="40.000000pt" height="35.000000pt" viewBox="0 0 40.000000 35.000000"
 preserveAspectRatio="xMidYMid meet">
<metadata>
Created by potrace 1.16, written by Peter Selinger 2001-2019
</metadata>
<g transform="translate(0.000000,35.000000) scale(0.100000,-0.100000)"
fill="#000000" stroke="none">
<path d="M185 339 l-7 -10 6 -33 6 -32 -13 -18 -14 -18 -22 7 -23 7 6 44 6 44
-65 0 -65 0 0 -44 0 -45 10 -26 10 -26 37 3 38 3 0 -20 0 -20 -27 3 -27 3 -10
-38 -10 -38 -3 -34 -3 -34 34 -9 35 -10 33 7 33 6 0 35 0 35 17 -3 17 -3 0
-35 1 -35 45 -3 45 -3 31 6 32 5 12 45 13 45 18 0 19 0 0 70 0 70 -35 0 -35 0
0 44 0 44 -50 11 -51 11 -19 0 -19 0 -6 -11z"/>
</g>
</svg>
