<?xml version="1.0" standalone="no"?>
<!DOCTYPE svg PUBLIC "-//W3C//DTD SVG 20010904//EN"
 "http://www.w3.org/TR/2001/REC-SVG-20010904/DTD/svg10.dtd">
<svg version="1.0" xmlns="http://www.w3.org/2000/svg"
 width="33.000000pt" height="35.000000pt" viewBox="0 0 33.000000 35.000000"
 preserveAspectRatio="xMidYMid meet">
<metadata>
Created by potrace 1.16, written by Peter Selinger 2001-2019
</metadata>
<g transform="translate(0.000000,35.000000) scale(0.100000,-0.100000)"
fill="#000000" stroke="none">
<path d="M211 341 l-13 -9 6 -20 7 -21 -21 -21 -21 -21 -12 4 -12 4 3 35 3 36
-68 4 -68 5 -7 -11 -8 -11 0 -48 0 -48 10 -20 11 -19 30 0 31 0 -5 -12 -4 -13
-34 0 -34 0 -3 -79 -3 -79 23 7 23 6 49 0 49 0 -6 34 -5 34 15 6 15 6 9 -6 9
-5 0 -19 0 -19 38 -10 38 -11 31 -6 31 -6 5 18 6 19 -12 60 -13 59 -24 7 -25
7 25 1 26 1 12 12 12 12 0 58 0 57 -18 10 -17 9 -35 6 -35 6 -14 -9z"/>
</g>
</svg>
