<?xml version="1.0" standalone="no"?>
<!DOCTYPE svg PUBLIC "-//W3C//DTD SVG 20010904//EN"
 "http://www.w3.org/TR/2001/REC-SVG-20010904/DTD/svg10.dtd">
<svg version="1.0" xmlns="http://www.w3.org/2000/svg"
 width="31.000000pt" height="33.000000pt" viewBox="0 0 31.000000 33.000000"
 preserveAspectRatio="xMidYMid meet">
<metadata>
Created by potrace 1.16, written by Peter Selinger 2001-2019
</metadata>
<g transform="translate(0.000000,33.000000) scale(0.100000,-0.100000)"
fill="#000000" stroke="none">
<path d="M214 324 l-11 -5 4 -23 5 -24 -22 -22 -21 -21 -22 3 -22 3 1 37 1 36
-58 4 -59 3 -5 -13 -5 -14 0 -34 0 -35 11 -20 10 -20 27 3 27 3 0 -25 0 -25
-35 0 -35 0 -3 -65 -3 -65 61 3 61 4 -7 33 -6 33 21 7 21 6 19 -6 19 -6 -5
-19 -5 -19 44 -11 43 -11 19 -6 19 -5 -7 11 -7 11 9 0 9 0 -11 58 -12 57 -19
0 -20 0 -7 10 -8 10 0 11 0 11 25 -5 25 -4 15 12 15 12 0 49 0 48 -17 9 -18 9
-25 6 -25 5 -11 -4z"/>
</g>
</svg>
