<?xml version="1.0" standalone="no"?>
<!DOCTYPE svg PUBLIC "-//W3C//DTD SVG 20010904//EN"
 "http://www.w3.org/TR/2001/REC-SVG-20010904/DTD/svg10.dtd">
<svg version="1.0" xmlns="http://www.w3.org/2000/svg"
 width="41.000000pt" height="41.000000pt" viewBox="0 0 41.000000 41.000000"
 preserveAspectRatio="xMidYMid meet">
<metadata>
Created by potrace 1.16, written by Peter Selinger 2001-2019
</metadata>
<g transform="translate(0.000000,41.000000) scale(0.100000,-0.100000)"
fill="#000000" stroke="none">
<path d="M135 398 l-4 -13 -3 -25 -3 -25 -51 -3 -52 -3 -6 -22 -6 -22 0 -31 0
-31 30 5 31 4 19 -17 20 -18 0 -18 0 -19 -24 -16 -25 -16 -28 4 -28 3 1 -53 1
-54 56 -4 56 -4 8 13 7 12 -2 26 -3 26 15 13 16 12 16 -13 16 -13 -5 -43 -4
-42 15 -6 15 -6 53 12 53 12 3 61 3 61 23 -2 23 -3 20 10 19 11 0 19 0 19 -21
12 -21 11 -24 -5 -24 -4 0 53 0 54 -12 0 -13 0 -38 -11 -38 -10 -13 10 -13 11
5 30 4 30 -12 15 -12 15 -20 0 -19 0 -4 -12z"/>
</g>
</svg>
