<?xml version="1.0" standalone="no"?>
<!DOCTYPE svg PUBLIC "-//W3C//DTD SVG 20010904//EN"
 "http://www.w3.org/TR/2001/REC-SVG-20010904/DTD/svg10.dtd">
<svg version="1.0" xmlns="http://www.w3.org/2000/svg"
 width="42.000000pt" height="49.000000pt" viewBox="0 0 42.000000 49.000000"
 preserveAspectRatio="xMidYMid meet">
<metadata>
Created by potrace 1.16, written by Peter Selinger 2001-2019
</metadata>
<g transform="translate(0.000000,49.000000) scale(0.100000,-0.100000)"
fill="#000000" stroke="none">
<path d="M157 484 l-7 -7 0 -22 0 -23 -13 -10 -13 -11 -54 -3 -55 -3 0 -65 0
-65 37 -3 37 -3 -5 -13 -5 -13 -22 4 -22 3 -11 -7 -11 -8 -6 -72 -6 -72 62 -3
62 -3 5 -40 5 -40 32 -3 32 -3 21 11 20 11 0 24 0 24 54 6 55 7 8 62 8 61 28
3 27 3 0 39 0 40 -27 6 -28 6 -13 4 -13 4 3 47 3 48 -58 3 -57 3 5 22 5 22 -8
12 -8 13 -30 6 -29 6 -8 -8z"/>
</g>
</svg>
