<?xml version="1.0" standalone="no"?>
<!DOCTYPE svg PUBLIC "-//W3C//DTD SVG 20010904//EN"
 "http://www.w3.org/TR/2001/REC-SVG-20010904/DTD/svg10.dtd">
<svg version="1.0" xmlns="http://www.w3.org/2000/svg"
 width="42.000000pt" height="39.000000pt" viewBox="0 0 42.000000 39.000000"
 preserveAspectRatio="xMidYMid meet">
<metadata>
Created by potrace 1.16, written by Peter Selinger 2001-2019
</metadata>
<g transform="translate(0.000000,39.000000) scale(0.100000,-0.100000)"
fill="#000000" stroke="none">
<path d="M141 381 l-13 -9 7 -31 7 -31 -66 0 -66 0 0 -60 0 -60 13 -2 12 -1
25 -1 25 -1 0 -25 0 -25 -30 0 -30 0 -6 -51 -7 -52 -6 -10 -6 -10 55 -7 54 -6
13 8 13 8 0 30 0 30 27 3 26 3 4 -22 3 -23 55 -12 55 -13 15 -1 15 0 3 40 2
39 9 23 8 22 29 1 29 0 3 23 4 23 -13 15 -13 16 -28 -6 -28 -5 -10 19 -10 19
0 30 0 30 -57 -2 -58 -2 3 37 3 37 -20 10 -20 11 -8 0 -8 0 -14 -9z"/>
</g>
</svg>
