<?xml version="1.0" standalone="no"?>
<!DOCTYPE svg PUBLIC "-//W3C//DTD SVG 20010904//EN"
 "http://www.w3.org/TR/2001/REC-SVG-20010904/DTD/svg10.dtd">
<svg version="1.0" xmlns="http://www.w3.org/2000/svg"
 width="33.000000pt" height="46.000000pt" viewBox="0 0 33.000000 46.000000"
 preserveAspectRatio="xMidYMid meet">
<metadata>
Created by potrace 1.16, written by Peter Selinger 2001-2019
</metadata>
<g transform="translate(0.000000,46.000000) scale(0.100000,-0.100000)"
fill="#000000" stroke="none">
<path d="M135 450 l-6 -10 6 -30 6 -29 -62 -3 -63 -3 -9 -32 -10 -32 7 -26 7
-27 27 5 27 5 17 -9 18 -10 0 -24 0 -24 -27 -3 -26 -3 -17 -52 -17 -53 5 -5 5
-5 39 0 39 0 19 -10 19 -10 -6 -17 -6 -16 18 -13 18 -13 29 15 29 15 -6 20 -6
19 41 0 41 0 13 13 12 12 -10 55 -11 55 -28 1 -29 1 -8 13 -9 14 10 18 10 18
17 2 17 1 29 -2 29 -3 -7 32 -6 33 0 27 0 27 -12 0 -13 0 -57 17 -58 17 0 19
0 20 -19 0 -20 0 -6 -10z"/>
</g>
</svg>
