<?xml version="1.0" standalone="no"?>
<!DOCTYPE svg PUBLIC "-//W3C//DTD SVG 20010904//EN"
 "http://www.w3.org/TR/2001/REC-SVG-20010904/DTD/svg10.dtd">
<svg version="1.0" xmlns="http://www.w3.org/2000/svg"
 width="34.000000pt" height="41.000000pt" viewBox="0 0 34.000000 41.000000"
 preserveAspectRatio="xMidYMid meet">
<metadata>
Created by potrace 1.16, written by Peter Selinger 2001-2019
</metadata>
<g transform="translate(0.000000,41.000000) scale(0.100000,-0.100000)"
fill="#000000" stroke="none">
<path d="M120 395 l-12 -15 6 -30 6 -30 -61 0 -60 0 3 -67 3 -68 38 -3 37 -3
0 -19 0 -19 -22 -3 -23 -3 -17 -50 -16 -50 -1 -17 -1 -18 69 0 69 0 12 15 12
15 -5 21 -5 20 11 -4 11 -3 1 -30 0 -29 78 -3 77 -3 0 13 0 13 -18 60 -18 60
-23 3 -22 4 4 11 4 12 32 -3 31 -2 10 26 10 26 -6 37 -6 36 -4 17 -5 17 -47 3
-47 3 -3 25 -4 25 -10 13 -10 12 -33 0 -33 0 -12 -15z"/>
</g>
</svg>
