<?xml version="1.0" standalone="no"?>
<!DOCTYPE svg PUBLIC "-//W3C//DTD SVG 20010904//EN"
 "http://www.w3.org/TR/2001/REC-SVG-20010904/DTD/svg10.dtd">
<svg version="1.0" xmlns="http://www.w3.org/2000/svg"
 width="32.000000pt" height="39.000000pt" viewBox="0 0 32.000000 39.000000"
 preserveAspectRatio="xMidYMid meet">
<metadata>
Created by potrace 1.16, written by Peter Selinger 2001-2019
</metadata>
<g transform="translate(0.000000,39.000000) scale(0.100000,-0.100000)"
fill="#000000" stroke="none">
<path d="M121 376 l-11 -13 6 -32 7 -31 -62 0 -62 0 3 -57 3 -58 38 1 37 1 0
-33 0 -33 -22 -3 -23 -3 -17 -50 -16 -50 -1 -7 -1 -8 59 0 59 0 10 13 11 13
-5 21 -6 21 12 7 11 7 15 -13 14 -12 -2 -26 -3 -26 68 -3 69 -3 -6 19 -6 19
-13 44 -13 44 -19 3 -20 4 -9 9 -9 8 13 16 14 17 29 -5 29 -4 8 23 9 22 -4 18
-4 19 -6 28 -5 27 -43 0 -43 0 -11 11 -11 11 5 14 5 14 -12 15 -12 15 -23 0
-23 0 -11 -14z"/>
</g>
</svg>
