<?xml version="1.0" standalone="no"?>
<!DOCTYPE svg PUBLIC "-//W3C//DTD SVG 20010904//EN"
 "http://www.w3.org/TR/2001/REC-SVG-20010904/DTD/svg10.dtd">
<svg version="1.0" xmlns="http://www.w3.org/2000/svg"
 width="42.000000pt" height="47.000000pt" viewBox="0 0 42.000000 47.000000"
 preserveAspectRatio="xMidYMid meet">
<metadata>
Created by potrace 1.16, written by Peter Selinger 2001-2019
</metadata>
<g transform="translate(0.000000,47.000000) scale(0.100000,-0.100000)"
fill="#000000" stroke="none">
<path d="M222 457 l-12 -14 6 -31 6 -31 -33 -6 -34 -6 -28 10 -28 11 -2 0 -3
0 4 -40 4 -40 -16 -25 -16 -24 -26 2 -26 2 -11 -17 -11 -17 19 -21 20 -22 28
5 27 4 5 -21 5 -21 2 -35 3 -35 55 -5 55 -5 0 -29 0 -29 16 -10 16 -10 26 7
26 6 3 23 3 22 56 8 56 9 -4 56 -4 57 -5 13 -4 13 -17 -3 -18 -3 -12 8 -13 8
0 20 0 20 19 -6 19 -6 16 16 16 16 0 49 0 48 -32 7 -33 7 -38 9 -38 10 3 27 3
27 -21 3 -21 3 -11 -14z"/>
</g>
</svg>
