<?xml version="1.0" standalone="no"?>
<!DOCTYPE svg PUBLIC "-//W3C//DTD SVG 20010904//EN"
 "http://www.w3.org/TR/2001/REC-SVG-20010904/DTD/svg10.dtd">
<svg version="1.0" xmlns="http://www.w3.org/2000/svg"
 width="41.000000pt" height="42.000000pt" viewBox="0 0 41.000000 42.000000"
 preserveAspectRatio="xMidYMid meet">
<metadata>
Created by potrace 1.16, written by Peter Selinger 2001-2019
</metadata>
<g transform="translate(0.000000,42.000000) scale(0.100000,-0.100000)"
fill="#000000" stroke="none">
<path d="M201 401 l-11 -20 0 -31 0 -31 -55 6 -55 7 0 -46 0 -46 -24 0 -25 0
-16 -16 -16 -16 3 -47 3 -46 35 -5 35 -5 -2 -53 -2 -52 79 0 80 0 0 28 0 27
10 15 9 14 7 -7 8 -8 1 -27 0 -27 60 -3 60 -2 13 8 12 8 -16 67 -17 66 -31 3
-31 3 0 14 0 14 45 1 45 1 3 73 3 72 -18 0 -18 0 -37 10 -37 11 -3 27 -3 27
-42 3 -42 3 -10 -20z"/>
</g>
</svg>
