<?xml version="1.0" standalone="no"?>
<!DOCTYPE svg PUBLIC "-//W3C//DTD SVG 20010904//EN"
 "http://www.w3.org/TR/2001/REC-SVG-20010904/DTD/svg10.dtd">
<svg version="1.0" xmlns="http://www.w3.org/2000/svg"
 width="39.000000pt" height="40.000000pt" viewBox="0 0 39.000000 40.000000"
 preserveAspectRatio="xMidYMid meet">
<metadata>
Created by potrace 1.16, written by Peter Selinger 2001-2019
</metadata>
<g transform="translate(0.000000,40.000000) scale(0.100000,-0.100000)"
fill="#000000" stroke="none">
<path d="M200 381 l-11 -21 3 -28 3 -27 -57 2 -57 2 -3 -47 -3 -47 -28 0 -28
-1 -10 -14 -9 -15 2 -35 3 -35 35 -5 35 -5 0 -52 -1 -53 68 0 68 0 0 28 0 27
9 13 8 14 19 -4 19 -3 0 -30 0 -30 39 -3 39 -3 22 5 22 6 -15 61 -15 61 -24
-5 -23 -4 -11 13 -11 13 4 18 3 18 45 0 45 0 3 61 3 62 -43 6 -43 7 -14 8 -14
9 -1 23 -1 24 -32 3 -32 3 -11 -20z"/>
</g>
</svg>
