<?xml version="1.0" standalone="no"?>
<!DOCTYPE svg PUBLIC "-//W3C//DTD SVG 20010904//EN"
 "http://www.w3.org/TR/2001/REC-SVG-20010904/DTD/svg10.dtd">
<svg version="1.0" xmlns="http://www.w3.org/2000/svg"
 width="34.000000pt" height="48.000000pt" viewBox="0 0 34.000000 48.000000"
 preserveAspectRatio="xMidYMid meet">
<metadata>
Created by potrace 1.16, written by Peter Selinger 2001-2019
</metadata>
<g transform="translate(0.000000,48.000000) scale(0.100000,-0.100000)"
fill="#000000" stroke="none">
<path d="M125 469 l-7 -10 6 -25 6 -24 -23 -9 -23 -9 -27 5 -27 5 -15 -12 -15
-12 0 -47 0 -46 9 -14 9 -14 31 5 30 4 5 -11 4 -12 -6 -10 -7 -9 -15 -6 -15
-5 -18 -58 -17 -57 5 -9 6 -9 50 0 50 0 3 -12 4 -13 6 -28 6 -27 31 0 30 0 20
10 19 11 0 19 0 19 50 7 50 7 -5 51 -6 51 -5 23 -5 24 -26 -7 -25 -6 -19 17
-19 17 10 12 10 12 24 -4 24 -5 16 23 16 23 0 47 0 47 -42 7 -43 6 -17 5 -17
5 6 15 5 14 -12 15 -12 15 -34 0 -33 0 -6 -11z"/>
</g>
</svg>
