<?xml version="1.0" standalone="no"?>
<!DOCTYPE svg PUBLIC "-//W3C//DTD SVG 20010904//EN"
 "http://www.w3.org/TR/2001/REC-SVG-20010904/DTD/svg10.dtd">
<svg version="1.0" xmlns="http://www.w3.org/2000/svg"
 width="42.000000pt" height="41.000000pt" viewBox="0 0 42.000000 41.000000"
 preserveAspectRatio="xMidYMid meet">
<metadata>
Created by potrace 1.16, written by Peter Selinger 2001-2019
</metadata>
<g transform="translate(0.000000,41.000000) scale(0.100000,-0.100000)"
fill="#000000" stroke="none">
<path d="M207 403 l-7 -6 0 -34 0 -33 -22 -1 -23 -2 -37 2 -37 3 -3 -54 -3
-53 -37 -3 -38 -3 0 -39 0 -39 19 -11 20 -10 35 0 35 0 -15 -50 -15 -50 6 -10
6 -10 45 0 45 0 20 10 19 11 0 35 0 35 22 -3 23 -3 5 -30 5 -30 58 -9 59 -8
10 10 11 11 -13 65 -12 66 -29 0 -29 0 0 15 0 15 39 0 39 0 6 16 6 16 0 49 0
49 -17 0 -18 0 -39 -11 -39 -11 -7 12 -7 11 4 24 5 23 -11 21 -12 21 -33 0
-33 0 -6 -7z"/>
</g>
</svg>
