<?xml version="1.0" standalone="no"?>
<!DOCTYPE svg PUBLIC "-//W3C//DTD SVG 20010904//EN"
 "http://www.w3.org/TR/2001/REC-SVG-20010904/DTD/svg10.dtd">
<svg version="1.0" xmlns="http://www.w3.org/2000/svg"
 width="40.000000pt" height="39.000000pt" viewBox="0 0 40.000000 39.000000"
 preserveAspectRatio="xMidYMid meet">
<metadata>
Created by potrace 1.16, written by Peter Selinger 2001-2019
</metadata>
<g transform="translate(0.000000,39.000000) scale(0.100000,-0.100000)"
fill="#000000" stroke="none">
<path d="M205 380 l-6 -10 5 -18 6 -17 -10 -15 -9 -14 -55 0 -56 1 0 -46 0
-47 -11 -11 -12 -12 -28 6 -29 6 0 -31 0 -31 21 -12 21 -11 30 4 30 5 4 -11 4
-11 -14 -47 -14 -47 6 -5 5 -6 34 0 34 0 20 11 20 10 -3 32 -3 32 35 0 35 0 5
-30 5 -30 49 -8 49 -8 9 9 8 8 -11 57 -12 57 -28 0 -27 0 -5 13 -4 12 9 17 8
17 31 -6 31 -6 9 14 9 14 0 44 0 43 -22 -6 -23 -6 -36 -6 -36 -6 -7 17 -6 18
5 18 6 18 -11 21 -11 20 -24 0 -24 0 -6 -10z"/>
</g>
</svg>
