<?xml version="1.0" standalone="no"?>
<!DOCTYPE svg PUBLIC "-//W3C//DTD SVG 20010904//EN"
 "http://www.w3.org/TR/2001/REC-SVG-20010904/DTD/svg10.dtd">
<svg version="1.0" xmlns="http://www.w3.org/2000/svg"
 width="42.000000pt" height="39.000000pt" viewBox="0 0 42.000000 39.000000"
 preserveAspectRatio="xMidYMid meet">
<metadata>
Created by potrace 1.16, written by Peter Selinger 2001-2019
</metadata>
<g transform="translate(0.000000,39.000000) scale(0.100000,-0.100000)"
fill="#000000" stroke="none">
<path d="M201 355 l3 -35 -11 -11 -11 -11 -41 4 -41 4 0 -46 0 -45 -9 -14 -9
-14 -31 6 -31 6 -8 -17 -9 -17 4 -12 5 -13 27 0 28 0 11 -55 11 -55 -5 -15 -6
-15 68 0 69 0 0 42 0 43 30 0 30 0 0 -30 0 -30 52 -9 53 -9 14 12 14 11 6 39
6 39 -6 16 -6 16 -37 -6 -37 -6 -13 16 -13 16 6 16 6 16 37 -4 38 -3 0 60 0
60 -40 8 -40 9 -15 7 -15 8 -3 27 -3 26 -40 0 -41 0 3 -35z"/>
</g>
</svg>
