<?xml version="1.0" standalone="no"?>
<!DOCTYPE svg PUBLIC "-//W3C//DTD SVG 20010904//EN"
 "http://www.w3.org/TR/2001/REC-SVG-20010904/DTD/svg10.dtd">
<svg version="1.0" xmlns="http://www.w3.org/2000/svg"
 width="41.000000pt" height="43.000000pt" viewBox="0 0 41.000000 43.000000"
 preserveAspectRatio="xMidYMid meet">
<metadata>
Created by potrace 1.16, written by Peter Selinger 2001-2019
</metadata>
<g transform="translate(0.000000,43.000000) scale(0.100000,-0.100000)"
fill="#000000" stroke="none">
<path d="M201 402 l3 -27 -7 -13 -8 -12 -50 0 -49 0 0 -59 0 -60 -42 -3 -43
-3 -3 -23 -4 -23 13 -15 13 -16 38 4 38 3 3 -10 4 -10 -4 -33 -5 -32 -9 -6 -9
-5 0 -24 0 -24 58 6 57 6 23 8 22 9 0 36 0 37 8 -7 7 -8 0 -46 0 -47 74 3 75
2 3 4 3 3 -12 72 -12 71 -32 0 -32 0 -6 16 -6 17 11 13 11 14 34 0 34 0 0 60
0 60 -61 0 -61 0 5 30 6 30 -5 15 -6 15 -40 0 -40 0 3 -28z"/>
</g>
</svg>
