<?xml version="1.0" standalone="no"?>
<!DOCTYPE svg PUBLIC "-//W3C//DTD SVG 20010904//EN"
 "http://www.w3.org/TR/2001/REC-SVG-20010904/DTD/svg10.dtd">
<svg version="1.0" xmlns="http://www.w3.org/2000/svg"
 width="39.000000pt" height="41.000000pt" viewBox="0 0 39.000000 41.000000"
 preserveAspectRatio="xMidYMid meet">
<metadata>
Created by potrace 1.16, written by Peter Selinger 2001-2019
</metadata>
<g transform="translate(0.000000,41.000000) scale(0.100000,-0.100000)"
fill="#000000" stroke="none">
<path d="M204 384 l7 -26 -12 -14 -11 -14 -49 0 -48 0 -3 -62 -3 -63 -38 3
-37 4 -6 -16 -6 -16 13 -16 13 -16 37 6 37 6 6 -16 6 -16 -6 -39 -7 -39 -8 -6
-9 -5 0 -13 0 -12 59 7 59 7 12 7 12 8 -5 33 -6 34 11 6 11 7 14 -19 14 -19
-3 -40 -3 -40 35 1 35 1 33 4 32 4 -5 12 -4 13 -7 51 -7 50 -23 -5 -23 -6 -15
16 -16 15 0 18 0 19 15 12 16 13 29 -1 30 -1 0 50 0 49 -61 0 -61 0 2 33 2 32
-1 13 -1 12 -31 0 -31 0 6 -26z"/>
</g>
</svg>
