<?xml version="1.0" standalone="no"?>
<!DOCTYPE svg PUBLIC "-//W3C//DTD SVG 20010904//EN"
 "http://www.w3.org/TR/2001/REC-SVG-20010904/DTD/svg10.dtd">
<svg version="1.0" xmlns="http://www.w3.org/2000/svg"
 width="50.000000pt" height="48.000000pt" viewBox="0 0 50.000000 48.000000"
 preserveAspectRatio="xMidYMid meet">
<metadata>
Created by potrace 1.16, written by Peter Selinger 2001-2019
</metadata>
<g transform="translate(0.000000,48.000000) scale(0.100000,-0.100000)"
fill="#000000" stroke="none">
<path d="M227 469 l-17 -10 6 -25 6 -24 -12 -15 -12 -15 -57 0 -56 0 3 -54 4
-55 -31 1 -30 1 -16 -13 -15 -12 0 -19 0 -18 16 -15 15 -16 23 6 24 6 6 -56 7
-56 50 0 49 0 0 -28 0 -28 12 -12 12 -12 24 0 23 0 20 10 19 11 0 24 0 25 53
0 52 0 0 62 0 63 27 -3 28 -3 21 11 20 11 -3 27 -3 27 -39 0 -39 0 -8 20 -8
20 0 33 -1 32 -57 -2 -58 -3 -1 30 -1 30 -2 17 -1 17 -18 10 -18 9 -17 -9z"/>
</g>
</svg>
