<?xml version="1.0" standalone="no"?>
<!DOCTYPE svg PUBLIC "-//W3C//DTD SVG 20010904//EN"
 "http://www.w3.org/TR/2001/REC-SVG-20010904/DTD/svg10.dtd">
<svg version="1.0" xmlns="http://www.w3.org/2000/svg"
 width="52.000000pt" height="50.000000pt" viewBox="0 0 52.000000 50.000000"
 preserveAspectRatio="xMidYMid meet">
<metadata>
Created by potrace 1.16, written by Peter Selinger 2001-2019
</metadata>
<g transform="translate(0.000000,50.000000) scale(0.100000,-0.100000)"
fill="#000000" stroke="none">
<path d="M225 486 l-18 -13 6 -23 6 -24 -11 -13 -10 -13 -59 0 -58 0 6 -52 5
-53 -31 -1 -30 -1 -16 -13 -15 -12 0 -29 0 -28 17 -16 16 -17 23 5 22 4 7 -54
6 -53 50 0 49 0 0 -28 0 -28 12 -12 12 -12 34 0 33 0 20 10 19 11 0 24 0 25
55 0 55 0 -7 60 -6 60 35 0 34 0 18 13 18 13 -4 34 -3 35 -41 3 -42 3 -6 22
-6 22 0 28 0 29 -57 -4 -57 -3 -1 44 -1 43 -19 14 -19 14 -11 0 -11 0 -19 -14z"/>
</g>
</svg>
