<?xml version="1.0" standalone="no"?>
<!DOCTYPE svg PUBLIC "-//W3C//DTD SVG 20010904//EN"
 "http://www.w3.org/TR/2001/REC-SVG-20010904/DTD/svg10.dtd">
<svg version="1.0" xmlns="http://www.w3.org/2000/svg"
 width="33.000000pt" height="43.000000pt" viewBox="0 0 33.000000 43.000000"
 preserveAspectRatio="xMidYMid meet">
<metadata>
Created by potrace 1.16, written by Peter Selinger 2001-2019
</metadata>
<g transform="translate(0.000000,43.000000) scale(0.100000,-0.100000)"
fill="#000000" stroke="none">
<path d="M124 416 l-5 -13 3 -29 3 -29 -62 -3 -63 -3 0 -59 0 -59 16 -15 15
-16 25 0 25 0 -6 -10 -6 -10 -24 0 -23 0 -5 -14 -6 -14 -7 -73 -7 -72 24 6 24
7 42 0 42 0 15 16 16 15 0 29 0 29 14 -5 14 -5 5 -28 6 -28 43 -6 43 -7 23 -6
23 -7 -3 74 -3 74 -37 3 -36 3 -12 15 -12 14 8 1 9 1 40 2 40 1 3 72 3 72 -63
3 -63 3 3 26 3 26 -16 17 -16 16 -25 0 -25 0 -5 -14z"/>
</g>
</svg>
