<?xml version="1.0" standalone="no"?>
<!DOCTYPE svg PUBLIC "-//W3C//DTD SVG 20010904//EN"
 "http://www.w3.org/TR/2001/REC-SVG-20010904/DTD/svg10.dtd">
<svg version="1.0" xmlns="http://www.w3.org/2000/svg"
 width="32.000000pt" height="42.000000pt" viewBox="0 0 32.000000 42.000000"
 preserveAspectRatio="xMidYMid meet">
<metadata>
Created by potrace 1.16, written by Peter Selinger 2001-2019
</metadata>
<g transform="translate(0.000000,42.000000) scale(0.100000,-0.100000)"
fill="#000000" stroke="none">
<path d="M143 409 l-11 -11 5 -33 5 -33 -19 -6 -19 -6 -52 4 -52 5 0 -34 0
-34 10 -26 10 -27 35 6 35 7 7 -17 6 -17 -10 -16 -10 -16 -34 0 -34 0 -5 -64
-5 -63 13 -5 13 -5 46 5 45 5 9 13 9 14 0 23 0 23 23 -3 22 -3 5 -45 5 -45 25
1 25 2 37 3 38 4 0 74 0 73 -25 -4 -25 -5 -17 13 -18 13 10 10 10 9 30 4 30 3
0 60 0 60 -55 5 -55 5 0 33 0 33 -15 9 -15 10 -10 0 -11 0 -11 -11z"/>
</g>
</svg>
