<?xml version="1.0" standalone="no"?>
<!DOCTYPE svg PUBLIC "-//W3C//DTD SVG 20010904//EN"
 "http://www.w3.org/TR/2001/REC-SVG-20010904/DTD/svg10.dtd">
<svg version="1.0" xmlns="http://www.w3.org/2000/svg"
 width="34.000000pt" height="44.000000pt" viewBox="0 0 34.000000 44.000000"
 preserveAspectRatio="xMidYMid meet">
<metadata>
Created by potrace 1.16, written by Peter Selinger 2001-2019
</metadata>
<g transform="translate(0.000000,44.000000) scale(0.100000,-0.100000)"
fill="#000000" stroke="none">
<path d="M140 425 l-12 -15 6 -26 7 -27 -13 -8 -13 -8 -57 6 -58 6 0 -46 0
-46 10 -26 10 -27 37 4 36 3 4 -12 4 -11 -13 -9 -13 -8 -30 0 -30 0 -6 -70 -7
-70 8 -9 9 -9 61 5 62 4 9 15 9 14 0 23 0 24 13 -4 12 -5 3 -39 3 -39 8 -8 8
-8 66 7 67 7 0 83 0 84 -35 0 -35 0 0 9 0 10 33 3 32 3 0 70 0 70 -55 5 -55 5
3 32 3 32 -20 10 -20 11 -19 0 -20 0 -12 -15z"/>
</g>
</svg>
