<?xml version="1.0" standalone="no"?>
<!DOCTYPE svg PUBLIC "-//W3C//DTD SVG 20010904//EN"
 "http://www.w3.org/TR/2001/REC-SVG-20010904/DTD/svg10.dtd">
<svg version="1.0" xmlns="http://www.w3.org/2000/svg"
 width="44.000000pt" height="42.000000pt" viewBox="0 0 44.000000 42.000000"
 preserveAspectRatio="xMidYMid meet">
<metadata>
Created by potrace 1.16, written by Peter Selinger 2001-2019
</metadata>
<g transform="translate(0.000000,42.000000) scale(0.100000,-0.100000)"
fill="#000000" stroke="none">
<path d="M146 407 l-19 -14 5 -36 4 -37 -62 0 -62 0 -6 -22 -6 -23 0 -44 0
-44 34 6 34 5 19 -13 18 -13 -8 -9 -9 -8 -41 0 -42 0 -3 -78 -3 -78 78 3 78 3
3 38 3 37 9 0 8 0 6 -24 6 -23 52 -12 53 -12 22 -6 22 -5 3 48 3 49 39 5 40 5
9 34 9 35 -11 23 -11 23 -40 0 -40 0 0 49 0 50 -12 8 -13 8 -45 15 -45 15 -4
20 -3 20 -12 7 -11 8 -16 0 -15 0 -18 -13z"/>
</g>
</svg>
