<?xml version="1.0" standalone="no"?>
<!DOCTYPE svg PUBLIC "-//W3C//DTD SVG 20010904//EN"
 "http://www.w3.org/TR/2001/REC-SVG-20010904/DTD/svg10.dtd">
<svg version="1.0" xmlns="http://www.w3.org/2000/svg"
 width="42.000000pt" height="40.000000pt" viewBox="0 0 42.000000 40.000000"
 preserveAspectRatio="xMidYMid meet">
<metadata>
Created by potrace 1.16, written by Peter Selinger 2001-2019
</metadata>
<g transform="translate(0.000000,40.000000) scale(0.100000,-0.100000)"
fill="#000000" stroke="none">
<path d="M145 387 l-18 -14 7 -36 7 -37 -64 0 -65 0 -6 -22 -6 -23 0 -33 0
-33 33 6 33 6 24 -19 24 -20 -13 -16 -14 -17 -41 3 -41 3 -1 -68 0 -68 65 3
66 3 3 35 4 35 10 6 11 7 13 -5 13 -5 -5 -11 -4 -12 8 -11 7 -11 45 -11 45
-10 18 -7 17 -7 0 43 0 44 8 11 7 10 34 0 34 -1 8 29 8 29 -10 19 -10 19 -37
-3 -37 -3 -3 50 -3 50 -10 10 -10 10 -47 15 -47 15 -4 20 -3 20 -12 7 -11 8
-6 0 -5 0 -19 -13z"/>
</g>
</svg>
