<?xml version="1.0" standalone="no"?>
<!DOCTYPE svg PUBLIC "-//W3C//DTD SVG 20010904//EN"
 "http://www.w3.org/TR/2001/REC-SVG-20010904/DTD/svg10.dtd">
<svg version="1.0" xmlns="http://www.w3.org/2000/svg"
 width="32.000000pt" height="33.000000pt" viewBox="0 0 32.000000 33.000000"
 preserveAspectRatio="xMidYMid meet">
<metadata>
Created by potrace 1.16, written by Peter Selinger 2001-2019
</metadata>
<g transform="translate(0.000000,33.000000) scale(0.100000,-0.100000)"
fill="#000000" stroke="none">
<path d="M0 287 l0 -43 13 -19 14 -18 26 5 27 5 11 -13 10 -13 -3 -28 -3 -28
-30 0 -30 0 -14 -57 -15 -57 7 -7 6 -7 58 -1 58 -1 -3 43 -3 42 15 6 16 6 15
-12 15 -12 -6 -10 -6 -9 6 -25 7 -25 57 3 57 3 -2 35 -3 35 -5 33 -6 32 -29 0
-29 0 -7 12 -7 11 18 14 19 13 34 0 35 0 -6 56 -6 56 -5 5 -5 5 -50 -12 -51
-12 0 -29 0 -29 -25 -6 -25 -6 -15 12 -15 12 0 39 0 39 -60 0 -60 0 0 -43z"/>
</g>
</svg>
