<?xml version="1.0" standalone="no"?>
<!DOCTYPE svg PUBLIC "-//W3C//DTD SVG 20010904//EN"
 "http://www.w3.org/TR/2001/REC-SVG-20010904/DTD/svg10.dtd">
<svg version="1.0" xmlns="http://www.w3.org/2000/svg"
 width="30.000000pt" height="31.000000pt" viewBox="0 0 30.000000 31.000000"
 preserveAspectRatio="xMidYMid meet">
<metadata>
Created by potrace 1.16, written by Peter Selinger 2001-2019
</metadata>
<g transform="translate(0.000000,31.000000) scale(0.100000,-0.100000)"
fill="#000000" stroke="none">
<path d="M0 279 l0 -30 11 -20 10 -20 28 6 28 6 12 -15 12 -15 -3 -38 -3 -38
-30 0 -30 -1 -13 -48 -14 -48 5 -5 5 -5 48 -1 47 -2 1 45 1 45 23 3 23 4 15
-13 15 -13 -5 -20 -5 -21 8 -13 8 -13 44 3 44 3 -3 25 -2 25 -6 33 -5 34 -15
-6 -15 -6 -20 10 -19 11 0 19 0 19 19 11 20 10 32 0 32 0 -7 47 -6 46 -3 3 -3
3 -42 -11 -42 -10 0 -28 0 -28 -16 -6 -16 -6 -22 0 -22 0 -12 12 -12 12 0 38
0 38 -50 0 -50 0 0 -31z"/>
</g>
</svg>
