<?xml version="1.0" standalone="no"?>
<!DOCTYPE svg PUBLIC "-//W3C//DTD SVG 20010904//EN"
 "http://www.w3.org/TR/2001/REC-SVG-20010904/DTD/svg10.dtd">
<svg version="1.0" xmlns="http://www.w3.org/2000/svg"
 width="48.000000pt" height="31.000000pt" viewBox="0 0 48.000000 31.000000"
 preserveAspectRatio="xMidYMid meet">
<metadata>
Created by potrace 1.16, written by Peter Selinger 2001-2019
</metadata>
<g transform="translate(0.000000,31.000000) scale(0.100000,-0.100000)"
fill="#000000" stroke="none">
<path d="M100 245 l0 -67 -29 7 -30 6 -22 -12 -23 -12 20 -14 19 -14 27 6 27
6 5 -23 6 -23 2 -45 3 -44 35 -8 35 -7 23 6 22 5 0 43 0 44 10 6 11 7 14 -12
15 -12 -6 -24 -6 -24 23 -8 24 -9 42 -6 41 -5 10 27 10 26 11 43 12 43 22 -3
22 -3 0 20 0 20 -28 -3 -28 -4 -15 12 -14 12 0 50 0 50 -42 -7 -43 -7 -7 -4
-7 -5 6 -15 6 -16 -14 -9 -14 -9 -30 0 -30 0 -13 9 -14 8 4 29 3 29 -47 3 -48
3 0 -66z"/>
</g>
</svg>
