<?xml version="1.0" standalone="no"?>
<!DOCTYPE svg PUBLIC "-//W3C//DTD SVG 20010904//EN"
 "http://www.w3.org/TR/2001/REC-SVG-20010904/DTD/svg10.dtd">
<svg version="1.0" xmlns="http://www.w3.org/2000/svg"
 width="41.000000pt" height="32.000000pt" viewBox="0 0 41.000000 32.000000"
 preserveAspectRatio="xMidYMid meet">
<metadata>
Created by potrace 1.16, written by Peter Selinger 2001-2019
</metadata>
<g transform="translate(0.000000,32.000000) scale(0.100000,-0.100000)"
fill="#000000" stroke="none">
<path d="M10 256 l0 -64 34 1 34 1 16 -13 16 -13 0 -9 0 -8 -22 -12 -22 -12
-31 -1 -30 -1 2 -48 1 -48 6 -15 6 -15 62 3 63 3 3 33 3 32 20 0 19 0 0 -14 0
-14 13 -11 14 -11 49 -2 49 -3 5 45 5 45 32 3 33 3 11 20 10 20 -3 27 -3 27
-35 -2 -35 -1 -7 11 -8 12 0 43 0 42 -47 0 -48 0 -14 -9 -14 -9 7 -17 6 -18
-11 -13 -11 -14 -27 0 -28 0 5 32 5 31 -19 14 -18 13 -48 0 -48 0 0 -64z"/>
</g>
</svg>
