<?xml version="1.0" standalone="no"?>
<!DOCTYPE svg PUBLIC "-//W3C//DTD SVG 20010904//EN"
 "http://www.w3.org/TR/2001/REC-SVG-20010904/DTD/svg10.dtd">
<svg version="1.0" xmlns="http://www.w3.org/2000/svg"
 width="39.000000pt" height="30.000000pt" viewBox="0 0 39.000000 30.000000"
 preserveAspectRatio="xMidYMid meet">
<metadata>
Created by potrace 1.16, written by Peter Selinger 2001-2019
</metadata>
<g transform="translate(0.000000,30.000000) scale(0.100000,-0.100000)"
fill="#000000" stroke="none">
<path d="M10 248 l0 -53 34 -1 35 0 15 -13 16 -13 0 -19 0 -18 -29 -16 -30
-15 -23 3 -23 2 2 -40 3 -40 5 -13 5 -13 52 3 53 3 0 33 0 32 37 0 37 0 -5
-13 -5 -14 13 -11 13 -11 40 -3 40 -3 3 30 2 30 5 22 5 22 30 -5 29 -6 12 25
12 26 -6 15 -6 16 -32 -7 -31 -6 -9 14 -9 14 0 43 0 42 -34 0 -34 0 -15 -6
-15 -5 5 -20 5 -19 -12 -15 -12 -15 -40 0 -39 0 6 34 7 34 -20 11 -21 11 -35
0 -36 0 0 -52z"/>
</g>
</svg>
