<?xml version="1.0" standalone="no"?>
<!DOCTYPE svg PUBLIC "-//W3C//DTD SVG 20010904//EN"
 "http://www.w3.org/TR/2001/REC-SVG-20010904/DTD/svg10.dtd">
<svg version="1.0" xmlns="http://www.w3.org/2000/svg"
 width="39.000000pt" height="34.000000pt" viewBox="0 0 39.000000 34.000000"
 preserveAspectRatio="xMidYMid meet">
<metadata>
Created by potrace 1.16, written by Peter Selinger 2001-2019
</metadata>
<g transform="translate(0.000000,34.000000) scale(0.100000,-0.100000)"
fill="#000000" stroke="none">
<path d="M50 331 l-45 -6 -3 -161 -2 -160 75 -2 75 -2 0 45 0 45 19 0 20 0 -6
-35 -5 -34 24 -6 25 -6 39 3 39 3 -3 57 -4 58 31 -6 31 -6 15 12 15 12 0 34 0
34 -19 0 -19 0 -16 6 -16 6 0 55 0 54 -62 -3 -63 -3 -5 -35 -6 -36 -8 -12 -8
-13 -19 17 -19 17 0 39 0 38 -17 -2 -18 -1 -45 -6z"/>
</g>
</svg>
