<?xml version="1.0" standalone="no"?>
<!DOCTYPE svg PUBLIC "-//W3C//DTD SVG 20010904//EN"
 "http://www.w3.org/TR/2001/REC-SVG-20010904/DTD/svg10.dtd">
<svg version="1.0" xmlns="http://www.w3.org/2000/svg"
 width="39.000000pt" height="31.000000pt" viewBox="0 0 39.000000 31.000000"
 preserveAspectRatio="xMidYMid meet">
<metadata>
Created by potrace 1.16, written by Peter Selinger 2001-2019
</metadata>
<g transform="translate(0.000000,31.000000) scale(0.100000,-0.100000)"
fill="#000000" stroke="none">
<path d="M207 271 l6 -41 -13 -15 -12 -15 -24 0 -23 0 -16 16 -16 16 3 32 3
31 -56 3 -56 3 7 -51 7 -52 14 -9 14 -9 23 0 23 0 -3 -27 -3 -28 -22 2 -21 2
-10 -12 -9 -12 -6 -53 -6 -53 57 3 57 3 1 39 0 40 16 9 15 10 18 -7 17 -6 -6
-24 -6 -25 12 -8 13 -8 47 -11 47 -11 6 14 5 15 0 48 0 48 14 5 14 6 20 -6 20
-5 7 22 7 22 -7 6 -7 7 -31 0 -32 0 -5 61 -5 60 -52 3 -51 2 5 -40z"/>
</g>
</svg>
