<?xml version="1.0" standalone="no"?>
<!DOCTYPE svg PUBLIC "-//W3C//DTD SVG 20010904//EN"
 "http://www.w3.org/TR/2001/REC-SVG-20010904/DTD/svg10.dtd">
<svg version="1.0" xmlns="http://www.w3.org/2000/svg"
 width="41.000000pt" height="43.000000pt" viewBox="0 0 41.000000 43.000000"
 preserveAspectRatio="xMidYMid meet">
<metadata>
Created by potrace 1.16, written by Peter Selinger 2001-2019
</metadata>
<g transform="translate(0.000000,43.000000) scale(0.100000,-0.100000)"
fill="#000000" stroke="none">
<path d="M10 368 l0 -64 12 -12 12 -12 33 0 33 0 0 -14 0 -15 -12 -7 -12 -7
-35 -1 -36 -1 -3 -68 -3 -67 53 0 53 0 12 -8 12 -7 3 -40 3 -40 33 -3 34 -3
19 17 19 17 0 29 0 28 33 0 32 0 23 6 23 7 -5 22 -6 23 6 31 7 31 18 0 18 0
11 19 10 20 0 28 0 28 -9 14 -9 14 -18 -7 -17 -7 -9 13 -8 13 0 36 0 36 -50 6
-51 6 -15 -6 -15 -6 6 -26 6 -27 -21 -19 -21 -19 -17 11 -17 11 3 36 3 36 -39
0 -39 0 -32 6 -31 7 0 -65z"/>
</g>
</svg>
