<?xml version="1.0" standalone="no"?>
<!DOCTYPE svg PUBLIC "-//W3C//DTD SVG 20010904//EN"
 "http://www.w3.org/TR/2001/REC-SVG-20010904/DTD/svg10.dtd">
<svg version="1.0" xmlns="http://www.w3.org/2000/svg"
 width="39.000000pt" height="41.000000pt" viewBox="0 0 39.000000 41.000000"
 preserveAspectRatio="xMidYMid meet">
<metadata>
Created by potrace 1.16, written by Peter Selinger 2001-2019
</metadata>
<g transform="translate(0.000000,41.000000) scale(0.100000,-0.100000)"
fill="#000000" stroke="none">
<path d="M10 357 l0 -55 15 -12 15 -12 30 6 30 6 0 -30 0 -29 -12 -8 -13 -8
-35 0 -35 0 -3 -58 -3 -57 53 0 53 0 15 -10 15 -9 0 -38 0 -38 23 -3 24 -4 19
18 19 17 -2 26 -3 26 25 3 25 2 33 6 33 5 -7 10 -6 10 7 50 7 50 19 -6 19 -6
11 25 12 25 -7 24 -6 25 -21 -5 -21 -6 -9 14 -9 14 0 36 0 37 -42 4 -43 5 -11
-4 -11 -4 5 -25 4 -25 -17 -19 -18 -20 -22 0 -23 0 -12 15 -12 15 6 30 6 30
-44 0 -44 0 -16 6 -16 6 0 -55z"/>
</g>
</svg>
