<?xml version="1.0" standalone="no"?>
<!DOCTYPE svg PUBLIC "-//W3C//DTD SVG 20010904//EN"
 "http://www.w3.org/TR/2001/REC-SVG-20010904/DTD/svg10.dtd">
<svg version="1.0" xmlns="http://www.w3.org/2000/svg"
 width="41.000000pt" height="47.000000pt" viewBox="0 0 41.000000 47.000000"
 preserveAspectRatio="xMidYMid meet">
<metadata>
Created by potrace 1.16, written by Peter Selinger 2001-2019
</metadata>
<g transform="translate(0.000000,47.000000) scale(0.100000,-0.100000)"
fill="#000000" stroke="none">
<path d="M141 461 l-13 -9 4 -35 4 -36 -61 -3 -60 -3 -3 -54 -3 -53 35 6 35 7
10 -20 11 -20 0 -5 0 -5 -15 -15 -15 -15 -35 6 -35 6 0 -62 0 -61 25 -6 25 -6
30 4 30 5 -2 -28 -2 -27 13 -16 13 -16 28 0 28 0 12 15 12 14 -6 19 -7 20 56
7 55 6 7 12 7 12 6 45 5 45 35 0 35 0 3 28 3 28 -12 16 -13 15 -33 -5 -33 -6
0 44 0 43 -6 16 -6 16 -49 6 -49 7 -11 14 -12 13 6 7 7 6 -11 14 -11 13 -12 0
-11 0 -14 -9z"/>
</g>
</svg>
