<?xml version="1.0" standalone="no"?>
<!DOCTYPE svg PUBLIC "-//W3C//DTD SVG 20010904//EN"
 "http://www.w3.org/TR/2001/REC-SVG-20010904/DTD/svg10.dtd">
<svg version="1.0" xmlns="http://www.w3.org/2000/svg"
 width="48.000000pt" height="33.000000pt" viewBox="0 0 48.000000 33.000000"
 preserveAspectRatio="xMidYMid meet">
<metadata>
Created by potrace 1.16, written by Peter Selinger 2001-2019
</metadata>
<g transform="translate(0.000000,33.000000) scale(0.100000,-0.100000)"
fill="#000000" stroke="none">
<path d="M286 301 l6 -28 -16 -32 -17 -31 -29 0 -30 0 -16 25 -16 25 5 25 4
26 -51 -3 -51 -3 -3 -53 -3 -53 -26 3 -25 3 -12 -17 -11 -18 11 -17 11 -18 29
-3 29 -3 12 -4 11 -4 -12 -55 -13 -55 14 -5 15 -6 31 0 32 0 23 6 22 6 0 35 0
34 28 -3 27 -3 -3 -22 -3 -22 28 -6 28 -6 32 -8 32 -9 5 15 6 15 0 50 0 50 30
-7 31 -7 14 12 15 12 0 19 0 18 -17 16 -16 17 -35 -7 -34 -6 3 50 4 51 -32 15
-31 15 -21 0 -20 0 5 -29z"/>
</g>
</svg>
