<?xml version="1.0" standalone="no"?>
<!DOCTYPE svg PUBLIC "-//W3C//DTD SVG 20010904//EN"
 "http://www.w3.org/TR/2001/REC-SVG-20010904/DTD/svg10.dtd">
<svg version="1.0" xmlns="http://www.w3.org/2000/svg"
 width="38.000000pt" height="34.000000pt" viewBox="0 0 38.000000 34.000000"
 preserveAspectRatio="xMidYMid meet">
<metadata>
Created by potrace 1.16, written by Peter Selinger 2001-2019
</metadata>
<g transform="translate(0.000000,34.000000) scale(0.100000,-0.100000)"
fill="#000000" stroke="none">
<path d="M286 333 l-6 -6 0 -32 0 -32 -20 -18 -19 -17 -26 6 -25 6 0 30 0 30
-26 10 -25 10 -29 0 -29 0 -3 -62 -3 -63 -30 -3 -30 -4 -10 -9 -10 -10 18 -13
17 -13 25 5 25 4 0 -72 0 -73 51 5 51 5 9 14 9 14 -4 23 -4 24 16 5 15 6 19
-23 19 -23 -7 -30 -6 -30 56 5 57 5 9 9 9 9 -19 55 -18 55 -21 10 -22 10 3 20
3 20 38 -3 37 -4 0 61 0 60 -17 9 -18 9 -26 6 -26 7 -7 -7z"/>
</g>
</svg>
