<?xml version="1.0" standalone="no"?>
<!DOCTYPE svg PUBLIC "-//W3C//DTD SVG 20010904//EN"
 "http://www.w3.org/TR/2001/REC-SVG-20010904/DTD/svg10.dtd">
<svg version="1.0" xmlns="http://www.w3.org/2000/svg"
 width="48.000000pt" height="33.000000pt" viewBox="0 0 48.000000 33.000000"
 preserveAspectRatio="xMidYMid meet">
<metadata>
Created by potrace 1.16, written by Peter Selinger 2001-2019
</metadata>
<g transform="translate(0.000000,33.000000) scale(0.100000,-0.100000)"
fill="#000000" stroke="none">
<path d="M297 324 l-6 -6 6 -14 5 -14 -6 -25 -6 -24 -21 -11 -20 -11 -29 6
-29 6 6 34 5 34 -25 6 -25 7 -28 -4 -29 -3 -3 -35 -2 -35 -6 -24 -5 -23 -28 5
-28 6 -12 -12 -11 -11 0 -17 0 -17 16 -13 16 -13 39 1 39 2 0 -17 0 -17 -9
-38 -9 -37 22 -6 23 -5 39 3 39 3 -3 37 -3 36 20 7 20 6 21 -11 20 -11 -6 -24
-6 -25 13 -4 14 -4 53 -5 52 -4 -2 11 -1 11 13 49 13 49 18 4 18 5 6 15 5 16
-6 19 -6 19 -33 -7 -34 -6 -7 27 -6 26 5 33 5 33 -38 12 -37 11 -10 0 -10 0
-6 -6z"/>
</g>
</svg>
