<?xml version="1.0" standalone="no"?>
<!DOCTYPE svg PUBLIC "-//W3C//DTD SVG 20010904//EN"
 "http://www.w3.org/TR/2001/REC-SVG-20010904/DTD/svg10.dtd">
<svg version="1.0" xmlns="http://www.w3.org/2000/svg"
 width="50.000000pt" height="35.000000pt" viewBox="0 0 50.000000 35.000000"
 preserveAspectRatio="xMidYMid meet">
<metadata>
Created by potrace 1.16, written by Peter Selinger 2001-2019
</metadata>
<g transform="translate(0.000000,35.000000) scale(0.100000,-0.100000)"
fill="#000000" stroke="none">
<path d="M295 340 l-6 -10 6 -19 5 -18 -6 -17 -6 -17 -18 -9 -19 -10 -15 6
-16 6 0 34 0 34 -23 6 -24 5 -39 -3 -39 -3 -3 -35 -2 -35 -5 -23 -5 -22 -25 6
-25 6 -15 -12 -15 -12 0 -28 0 -28 16 -13 17 -14 39 0 39 0 -7 -30 -6 -30 -5
-22 -5 -22 24 -6 24 -6 50 3 49 3 -3 34 -3 34 12 8 12 7 14 -5 13 -5 0 -29 0
-30 13 -3 12 -4 61 -6 60 -5 13 60 12 61 20 5 19 5 6 23 6 24 -7 21 -7 22 -34
-5 -33 -6 -6 20 -7 20 7 38 6 37 -39 12 -39 12 -21 0 -21 0 -6 -10z"/>
</g>
</svg>
