<?xml version="1.0" standalone="no"?>
<!DOCTYPE svg PUBLIC "-//W3C//DTD SVG 20010904//EN"
 "http://www.w3.org/TR/2001/REC-SVG-20010904/DTD/svg10.dtd">
<svg version="1.0" xmlns="http://www.w3.org/2000/svg"
 width="48.000000pt" height="33.000000pt" viewBox="0 0 48.000000 33.000000"
 preserveAspectRatio="xMidYMid meet">
<metadata>
Created by potrace 1.16, written by Peter Selinger 2001-2019
</metadata>
<g transform="translate(0.000000,33.000000) scale(0.100000,-0.100000)"
fill="#000000" stroke="none">
<path d="M298 290 l4 -40 -12 -15 -12 -15 -29 0 -28 0 -11 19 -10 20 3 23 2
23 -52 5 -53 6 -5 -14 -5 -14 0 -31 0 -32 -8 -10 -7 -10 -35 0 -35 0 0 -45 0
-45 43 -3 43 -3 -2 -52 -3 -52 59 0 60 0 -3 37 -3 37 25 7 24 6 21 -11 20 -11
-5 -15 -6 -15 23 -8 24 -9 33 -6 33 -7 -6 10 -6 10 8 0 8 0 0 37 0 38 28 -3
29 -3 14 12 14 11 0 29 0 28 -11 6 -10 7 -34 1 -33 1 5 52 6 52 -31 16 -31 16
-23 0 -24 0 4 -40z"/>
</g>
</svg>
