<?xml version="1.0" standalone="no"?>
<!DOCTYPE svg PUBLIC "-//W3C//DTD SVG 20010904//EN"
 "http://www.w3.org/TR/2001/REC-SVG-20010904/DTD/svg10.dtd">
<svg version="1.0" xmlns="http://www.w3.org/2000/svg"
 width="35.000000pt" height="37.000000pt" viewBox="0 0 35.000000 37.000000"
 preserveAspectRatio="xMidYMid meet">
<metadata>
Created by potrace 1.16, written by Peter Selinger 2001-2019
</metadata>
<g transform="translate(0.000000,37.000000) scale(0.100000,-0.100000)"
fill="#000000" stroke="none">
<path d="M210 331 l0 -39 -27 -17 -26 -18 -16 10 -16 10 3 37 4 36 -61 0 -61
0 0 -32 0 -33 -6 -37 -7 -38 42 0 42 0 6 -16 6 -17 -10 -16 -10 -16 -34 0 -34
0 -3 -68 -3 -67 43 5 43 6 33 5 32 5 0 34 0 35 9 0 10 0 8 -12 7 -13 1 -35 0
-35 41 -3 40 -3 27 10 26 10 16 56 16 55 -3 18 -4 17 -32 -3 -33 -2 -19 10
-20 11 0 20 0 19 25 -6 25 -6 15 12 15 12 0 59 0 58 -19 11 -20 10 -35 0 -36
0 0 -39z"/>
</g>
</svg>
