<?xml version="1.0" standalone="no"?>
<!DOCTYPE svg PUBLIC "-//W3C//DTD SVG 20010904//EN"
 "http://www.w3.org/TR/2001/REC-SVG-20010904/DTD/svg10.dtd">
<svg version="1.0" xmlns="http://www.w3.org/2000/svg"
 width="53.000000pt" height="47.000000pt" viewBox="0 0 53.000000 47.000000"
 preserveAspectRatio="xMidYMid meet">
<metadata>
Created by potrace 1.16, written by Peter Selinger 2001-2019
</metadata>
<g transform="translate(0.000000,47.000000) scale(0.100000,-0.100000)"
fill="#000000" stroke="none">
<path d="M235 460 l-6 -10 6 -19 6 -19 -13 -8 -12 -8 -55 0 -56 -1 2 -52 2
-53 -39 0 -39 0 -15 -16 -16 -15 0 -18 0 -17 13 -18 13 -17 43 -6 43 -6 -6
-48 -7 -49 38 0 38 0 22 -6 21 -6 -5 -34 -6 -34 51 0 51 0 11 19 10 20 0 20 0
21 56 0 56 0 -7 22 -7 23 -5 32 -5 33 51 0 51 0 6 25 6 25 -6 26 -7 26 -34 -5
-35 -6 -5 22 -5 22 -2 35 -3 35 -58 6 -59 7 -8 8 -8 9 -4 20 -3 20 -27 3 -26
3 -7 -11z"/>
</g>
</svg>
