<?xml version="1.0" standalone="no"?>
<!DOCTYPE svg PUBLIC "-//W3C//DTD SVG 20010904//EN"
 "http://www.w3.org/TR/2001/REC-SVG-20010904/DTD/svg10.dtd">
<svg version="1.0" xmlns="http://www.w3.org/2000/svg"
 width="51.000000pt" height="45.000000pt" viewBox="0 0 51.000000 45.000000"
 preserveAspectRatio="xMidYMid meet">
<metadata>
Created by potrace 1.16, written by Peter Selinger 2001-2019
</metadata>
<g transform="translate(0.000000,45.000000) scale(0.100000,-0.100000)"
fill="#000000" stroke="none">
<path d="M239 443 l-1 -8 1 -22 2 -21 -12 -8 -13 -8 -56 -1 -55 -2 3 -56 4
-55 -39 5 -39 5 -17 -17 -17 -16 0 -8 0 -7 14 -19 14 -20 42 0 42 0 -4 -52 -5
-53 36 0 36 0 23 -7 24 -6 -7 -33 -6 -34 40 0 40 0 11 20 11 21 -6 19 -6 20
13 1 13 2 48 -3 49 -2 -10 19 -10 18 -4 35 -3 35 52 3 52 3 6 20 6 19 -6 20
-7 21 -33 -7 -34 -6 -7 26 -6 27 -2 32 -2 32 -58 6 -58 7 -8 8 -8 9 -4 20 -3
20 -18 3 -17 3 -1 -8z"/>
</g>
</svg>
