<?xml version="1.0" standalone="no"?>
<!DOCTYPE svg PUBLIC "-//W3C//DTD SVG 20010904//EN"
 "http://www.w3.org/TR/2001/REC-SVG-20010904/DTD/svg10.dtd">
<svg version="1.0" xmlns="http://www.w3.org/2000/svg"
 width="42.000000pt" height="38.000000pt" viewBox="0 0 42.000000 38.000000"
 preserveAspectRatio="xMidYMid meet">
<metadata>
Created by potrace 1.16, written by Peter Selinger 2001-2019
</metadata>
<g transform="translate(0.000000,38.000000) scale(0.100000,-0.100000)"
fill="#000000" stroke="none">
<path d="M167 373 l-7 -6 0 -34 0 -33 -53 0 -53 0 -11 11 -12 12 -6 -25 -6
-25 3 -39 3 -39 43 -3 42 -3 0 -19 0 -19 -20 -11 -21 -11 -32 3 -32 3 -3 -31
-3 -32 15 -36 15 -36 35 0 35 0 25 10 26 10 0 30 0 30 24 0 24 0 16 -6 16 -6
-6 -24 -6 -23 25 -6 25 -7 28 4 29 3 3 57 3 57 42 3 42 3 0 25 0 25 -35 0 -34
0 -13 25 -14 25 3 38 4 37 -53 0 -53 0 -2 13 -1 12 -1 10 -2 10 -7 13 -8 12
-13 0 -13 0 -6 -7z"/>
</g>
</svg>
