<?xml version="1.0" standalone="no"?>
<!DOCTYPE svg PUBLIC "-//W3C//DTD SVG 20010904//EN"
 "http://www.w3.org/TR/2001/REC-SVG-20010904/DTD/svg10.dtd">
<svg version="1.0" xmlns="http://www.w3.org/2000/svg"
 width="44.000000pt" height="40.000000pt" viewBox="0 0 44.000000 40.000000"
 preserveAspectRatio="xMidYMid meet">
<metadata>
Created by potrace 1.16, written by Peter Selinger 2001-2019
</metadata>
<g transform="translate(0.000000,40.000000) scale(0.100000,-0.100000)"
fill="#000000" stroke="none">
<path d="M167 393 l-7 -6 0 -34 0 -33 -40 0 -40 0 -20 13 -21 12 -9 -15 -10
-15 2 -60 3 -60 43 -3 42 -3 0 -9 0 -9 -12 -8 -13 -8 -40 0 -40 0 -3 -42 -3
-41 15 -36 15 -36 45 0 45 0 25 10 26 10 0 30 0 31 23 -3 22 -3 3 -27 3 -28
23 -6 23 -5 39 3 39 3 3 57 3 57 42 3 42 3 0 35 0 35 -38 3 -38 3 -10 27 -10
27 6 32 6 33 -56 0 -55 0 0 23 0 23 -12 12 -12 12 -21 0 -22 0 -6 -7z"/>
</g>
</svg>
