<?xml version="1.0" standalone="no"?>
<!DOCTYPE svg PUBLIC "-//W3C//DTD SVG 20010904//EN"
 "http://www.w3.org/TR/2001/REC-SVG-20010904/DTD/svg10.dtd">
<svg version="1.0" xmlns="http://www.w3.org/2000/svg"
 width="43.000000pt" height="38.000000pt" viewBox="0 0 43.000000 38.000000"
 preserveAspectRatio="xMidYMid meet">
<metadata>
Created by potrace 1.16, written by Peter Selinger 2001-2019
</metadata>
<g transform="translate(0.000000,38.000000) scale(0.100000,-0.100000)"
fill="#000000" stroke="none">
<path d="M218 348 l-3 -33 -57 -3 -58 -3 0 -44 0 -44 -16 -16 -16 -16 -20 6
-19 7 -14 -12 -15 -12 0 -19 0 -18 16 -16 17 -16 23 5 23 6 5 -17 5 -18 3 -38
2 -38 21 -5 22 -5 44 3 44 3 1 23 1 24 16 15 16 16 16 -13 15 -13 -2 -26 -3
-26 66 -3 66 -3 7 32 6 32 0 33 0 33 -42 3 -43 3 -3 33 -3 32 24 0 25 0 10 13
10 12 7 37 7 37 -44 11 -43 11 -25 7 -25 8 0 19 0 20 -32 3 -32 3 -3 -33z"/>
</g>
</svg>
