<?xml version="1.0" standalone="no"?>
<!DOCTYPE svg PUBLIC "-//W3C//DTD SVG 20010904//EN"
 "http://www.w3.org/TR/2001/REC-SVG-20010904/DTD/svg10.dtd">
<svg version="1.0" xmlns="http://www.w3.org/2000/svg"
 width="53.000000pt" height="43.000000pt" viewBox="0 0 53.000000 43.000000"
 preserveAspectRatio="xMidYMid meet">
<metadata>
Created by potrace 1.16, written by Peter Selinger 2001-2019
</metadata>
<g transform="translate(0.000000,43.000000) scale(0.100000,-0.100000)"
fill="#000000" stroke="none">
<path d="M215 420 l-6 -10 3 -38 3 -37 -57 -3 -58 -3 0 -34 0 -33 -6 -16 -6
-16 -32 0 -32 0 -12 -12 -12 -12 0 -28 0 -27 22 -21 22 -20 39 0 39 0 -7 -18
-7 -17 -5 -37 -6 -37 54 6 54 6 18 9 17 9 0 34 0 35 19 0 20 0 3 -27 3 -27 50
-14 50 -13 23 -6 22 -5 0 45 0 45 6 16 6 16 33 0 33 0 11 14 12 15 -3 38 -3
38 -47 -1 -48 0 0 42 0 42 -12 10 -13 10 -40 7 -40 7 -16 4 -17 5 2 32 1 32
-37 3 -36 3 -7 -11z"/>
</g>
</svg>
