<?xml version="1.0" standalone="no"?>
<!DOCTYPE svg PUBLIC "-//W3C//DTD SVG 20010904//EN"
 "http://www.w3.org/TR/2001/REC-SVG-20010904/DTD/svg10.dtd">
<svg version="1.0" xmlns="http://www.w3.org/2000/svg"
 width="29.000000pt" height="31.000000pt" viewBox="0 0 29.000000 31.000000"
 preserveAspectRatio="xMidYMid meet">
<metadata>
Created by potrace 1.16, written by Peter Selinger 2001-2019
</metadata>
<g transform="translate(0.000000,31.000000) scale(0.100000,-0.100000)"
fill="#000000" stroke="none">
<path d="M0 273 l0 -38 9 -14 9 -14 21 6 21 5 6 -25 7 -24 -12 -25 -11 -25
-19 6 -19 6 -7 -52 -7 -51 8 -8 9 -9 45 -3 45 -3 0 35 0 35 8 12 8 13 18 0 18
0 17 -19 18 -20 -7 -11 -7 -11 12 -14 12 -15 39 0 39 0 0 8 0 8 -15 46 -16 45
-24 -5 -24 -4 -6 25 -7 25 4 19 4 18 44 0 45 0 3 59 3 59 -16 -7 -17 -6 -30 0
-30 0 5 -20 5 -19 -13 -11 -14 -11 -43 3 -43 3 -3 33 -3 32 -45 0 -44 0 0 -37z"/>
</g>
</svg>
