<?xml version="1.0" standalone="no"?>
<!DOCTYPE svg PUBLIC "-//W3C//DTD SVG 20010904//EN"
 "http://www.w3.org/TR/2001/REC-SVG-20010904/DTD/svg10.dtd">
<svg version="1.0" xmlns="http://www.w3.org/2000/svg"
 width="31.000000pt" height="33.000000pt" viewBox="0 0 31.000000 33.000000"
 preserveAspectRatio="xMidYMid meet">
<metadata>
Created by potrace 1.16, written by Peter Selinger 2001-2019
</metadata>
<g transform="translate(0.000000,33.000000) scale(0.100000,-0.100000)"
fill="#000000" stroke="none">
<path d="M0 286 l0 -44 6 -16 6 -16 23 0 24 0 6 -10 6 -10 -6 -20 -6 -20 -24
0 -24 0 -6 -55 -7 -55 5 -14 6 -14 50 -7 50 -7 11 7 11 7 -3 34 -2 34 11 11
12 12 16 -13 15 -12 0 -22 0 -22 12 -12 12 -12 48 0 48 0 0 18 0 18 -16 48
-16 48 -24 -6 -24 -6 -6 25 -6 26 7 7 7 7 41 0 42 0 3 69 3 69 -32 -7 -31 -6
-24 0 -23 0 -3 -27 -3 -28 -40 0 -40 0 -3 33 -3 32 -55 0 -54 0 0 -44z"/>
</g>
</svg>
