<?xml version="1.0" standalone="no"?>
<!DOCTYPE svg PUBLIC "-//W3C//DTD SVG 20010904//EN"
 "http://www.w3.org/TR/2001/REC-SVG-20010904/DTD/svg10.dtd">
<svg version="1.0" xmlns="http://www.w3.org/2000/svg"
 width="41.000000pt" height="41.000000pt" viewBox="0 0 41.000000 41.000000"
 preserveAspectRatio="xMidYMid meet">
<metadata>
Created by potrace 1.16, written by Peter Selinger 2001-2019
</metadata>
<g transform="translate(0.000000,41.000000) scale(0.100000,-0.100000)"
fill="#000000" stroke="none">
<path d="M0 350 l0 -60 18 0 18 0 22 -16 22 -15 0 -7 0 -7 -9 -14 -9 -14 -29
-1 -28 -1 0 -60 0 -60 47 -3 47 -3 -6 -30 -5 -29 12 -15 12 -15 37 0 37 0 17
13 17 12 9 30 8 30 44 -1 45 -2 14 62 15 61 28 3 27 3 0 34 0 34 -21 11 -21
12 -23 -6 -23 -6 -6 16 -6 16 6 39 7 39 -13 0 -12 0 -54 -16 -54 -15 0 -15 0
-15 -32 3 -33 3 -3 33 -3 32 -60 0 -59 0 0 -60z"/>
</g>
</svg>
