<?xml version="1.0" standalone="no"?>
<!DOCTYPE svg PUBLIC "-//W3C//DTD SVG 20010904//EN"
 "http://www.w3.org/TR/2001/REC-SVG-20010904/DTD/svg10.dtd">
<svg version="1.0" xmlns="http://www.w3.org/2000/svg"
 width="39.000000pt" height="39.000000pt" viewBox="0 0 39.000000 39.000000"
 preserveAspectRatio="xMidYMid meet">
<metadata>
Created by potrace 1.16, written by Peter Selinger 2001-2019
</metadata>
<g transform="translate(0.000000,39.000000) scale(0.100000,-0.100000)"
fill="#000000" stroke="none">
<path d="M0 340 l0 -50 18 0 18 0 22 -16 22 -15 0 -17 0 -17 -10 -15 -9 -14
-28 -2 -28 -1 0 -49 0 -49 49 -3 48 -3 -6 -31 -6 -31 11 -13 11 -14 29 0 29 0
21 21 21 21 -5 19 -5 19 24 6 24 6 30 -4 31 -5 -4 10 -3 10 16 51 17 51 26 3
27 3 0 24 0 24 -18 10 -17 9 -27 -5 -26 -5 -7 22 -7 22 7 35 6 36 -15 -6 -15
-6 -40 -11 -40 -11 5 -13 5 -13 -23 -5 -23 -4 -25 6 -25 6 -3 32 -3 32 -50 0
-49 0 0 -50z"/>
</g>
</svg>
