<?xml version="1.0" standalone="no"?>
<!DOCTYPE svg PUBLIC "-//W3C//DTD SVG 20010904//EN"
 "http://www.w3.org/TR/2001/REC-SVG-20010904/DTD/svg10.dtd">
<svg version="1.0" xmlns="http://www.w3.org/2000/svg"
 width="48.000000pt" height="33.000000pt" viewBox="0 0 48.000000 33.000000"
 preserveAspectRatio="xMidYMid meet">
<metadata>
Created by potrace 1.16, written by Peter Selinger 2001-2019
</metadata>
<g transform="translate(0.000000,33.000000) scale(0.100000,-0.100000)"
fill="#000000" stroke="none">
<path d="M80 283 l0 -48 -9 -13 -8 -14 -29 4 -29 3 -3 -22 -3 -22 21 -11 20
-11 37 7 36 7 -6 -44 -6 -44 -7 -23 -6 -22 50 0 51 0 11 21 12 21 -6 14 -6 15
15 5 15 6 16 -13 15 -12 -3 -41 -3 -41 25 -3 25 -3 40 14 40 14 8 51 9 52 19
0 20 0 20 10 19 11 0 29 0 29 -16 15 -15 16 -35 0 -34 0 0 40 0 40 -27 0 -28
0 -21 -6 -22 -6 2 -31 1 -32 -39 -3 -39 -3 -8 13 -9 13 0 33 0 32 -55 0 -55 0
0 -47z"/>
</g>
</svg>
