<?xml version="1.0" standalone="no"?>
<!DOCTYPE svg PUBLIC "-//W3C//DTD SVG 20010904//EN"
 "http://www.w3.org/TR/2001/REC-SVG-20010904/DTD/svg10.dtd">
<svg version="1.0" xmlns="http://www.w3.org/2000/svg"
 width="50.000000pt" height="35.000000pt" viewBox="0 0 50.000000 35.000000"
 preserveAspectRatio="xMidYMid meet">
<metadata>
Created by potrace 1.16, written by Peter Selinger 2001-2019
</metadata>
<g transform="translate(0.000000,35.000000) scale(0.100000,-0.100000)"
fill="#000000" stroke="none">
<path d="M80 303 l0 -48 -8 -12 -8 -12 -29 2 -30 2 -3 -32 -3 -32 22 -11 22
-12 34 5 35 6 -5 -27 -5 -27 -7 -38 -8 -37 61 0 61 0 11 19 10 20 0 22 0 23
13 -13 12 -12 0 -42 0 -42 35 -3 35 -3 40 14 40 14 8 51 9 52 19 0 20 0 20 10
19 11 0 39 0 39 -16 15 -15 16 -35 0 -34 0 0 40 0 40 -37 0 -38 0 -23 -6 -23
-7 3 -31 3 -31 -29 -3 -29 -4 -8 14 -9 13 0 33 0 32 -65 0 -65 0 0 -47z"/>
</g>
</svg>
