<?xml version="1.0" standalone="no"?>
<!DOCTYPE svg PUBLIC "-//W3C//DTD SVG 20010904//EN"
 "http://www.w3.org/TR/2001/REC-SVG-20010904/DTD/svg10.dtd">
<svg version="1.0" xmlns="http://www.w3.org/2000/svg"
 width="32.000000pt" height="40.000000pt" viewBox="0 0 32.000000 40.000000"
 preserveAspectRatio="xMidYMid meet">
<metadata>
Created by potrace 1.16, written by Peter Selinger 2001-2019
</metadata>
<g transform="translate(0.000000,40.000000) scale(0.100000,-0.100000)"
fill="#000000" stroke="none">
<path d="M0 345 l0 -55 34 0 35 0 15 -16 16 -15 0 -19 0 -19 -19 -11 -20 -10
-19 0 -20 0 -6 -31 -6 -32 0 -28 0 -29 31 0 30 0 19 -10 18 -10 -5 -18 -4 -18
25 -14 25 -13 33 9 33 10 3 27 3 27 44 0 43 0 5 14 5 13 -5 63 -6 62 -24 -5
-24 -4 -9 18 -10 18 0 15 0 15 38 3 37 3 3 54 3 53 -53 -7 -53 -7 -7 -5 -8 -4
0 -20 0 -19 -30 0 -30 0 0 25 0 25 -26 10 -25 10 -45 0 -44 0 0 -55z"/>
</g>
</svg>
