<?xml version="1.0" standalone="no"?>
<!DOCTYPE svg PUBLIC "-//W3C//DTD SVG 20010904//EN"
 "http://www.w3.org/TR/2001/REC-SVG-20010904/DTD/svg10.dtd">
<svg version="1.0" xmlns="http://www.w3.org/2000/svg"
 width="30.000000pt" height="38.000000pt" viewBox="0 0 30.000000 38.000000"
 preserveAspectRatio="xMidYMid meet">
<metadata>
Created by potrace 1.16, written by Peter Selinger 2001-2019
</metadata>
<g transform="translate(0.000000,38.000000) scale(0.100000,-0.100000)"
fill="#000000" stroke="none">
<path d="M0 335 l0 -45 34 0 35 0 15 -16 16 -15 0 -29 0 -29 -19 -11 -20 -10
-19 0 -20 0 -6 -31 -6 -32 0 -18 0 -19 33 0 33 0 19 -14 18 -13 -6 -15 -5 -15
22 -12 22 -12 28 10 27 11 -3 22 -3 23 47 3 46 3 4 12 4 12 -4 52 -4 53 -23
-6 -23 -6 -12 22 -11 21 3 27 3 27 35 0 35 0 3 43 3 43 -38 -6 -38 -7 -12 -3
-13 -4 0 -20 0 -19 -27 -5 -28 -5 -16 9 -17 9 5 20 5 20 -27 10 -26 10 -35 0
-34 0 0 -45z"/>
</g>
</svg>
