<?xml version="1.0" standalone="no"?>
<!DOCTYPE svg PUBLIC "-//W3C//DTD SVG 20010904//EN"
 "http://www.w3.org/TR/2001/REC-SVG-20010904/DTD/svg10.dtd">
<svg version="1.0" xmlns="http://www.w3.org/2000/svg"
 width="38.000000pt" height="32.000000pt" viewBox="0 0 38.000000 32.000000"
 preserveAspectRatio="xMidYMid meet">
<metadata>
Created by potrace 1.16, written by Peter Selinger 2001-2019
</metadata>
<g transform="translate(0.000000,32.000000) scale(0.100000,-0.100000)"
fill="#000000" stroke="none">
<path d="M80 266 l0 -54 -15 -12 -15 -12 -25 4 -25 5 0 -11 0 -11 8 -10 7 -10
20 0 19 0 8 -35 8 -35 1 -35 1 -35 47 3 46 3 23 5 22 4 0 40 0 39 10 6 9 6 16
-25 16 -25 -3 -33 -3 -33 60 -1 60 0 -3 135 -3 136 -2 15 -2 16 -48 -14 -49
-14 6 -13 5 -13 -15 -6 -16 -6 -29 0 -29 0 0 34 0 34 -16 6 -16 6 -39 0 -39 0
0 -54z"/>
</g>
</svg>
