<?xml version="1.0" standalone="no"?>
<!DOCTYPE svg PUBLIC "-//W3C//DTD SVG 20010904//EN"
 "http://www.w3.org/TR/2001/REC-SVG-20010904/DTD/svg10.dtd">
<svg version="1.0" xmlns="http://www.w3.org/2000/svg"
 width="40.000000pt" height="34.000000pt" viewBox="0 0 40.000000 34.000000"
 preserveAspectRatio="xMidYMid meet">
<metadata>
Created by potrace 1.16, written by Peter Selinger 2001-2019
</metadata>
<g transform="translate(0.000000,34.000000) scale(0.100000,-0.100000)"
fill="#000000" stroke="none">
<path d="M80 286 l0 -54 -14 -11 -14 -12 -26 7 -26 6 0 -23 0 -24 9 -13 8 -14
19 4 18 3 7 -30 7 -30 1 -42 1 -42 58 5 57 5 23 5 22 4 0 42 0 42 13 -13 12
-12 0 -42 0 -42 71 -3 71 -3 -5 163 -4 163 -3 3 -3 3 -55 -16 -55 -16 -5 -19
-5 -20 -26 0 -26 0 0 34 0 34 -16 6 -16 6 -49 0 -49 0 0 -54z"/>
</g>
</svg>
