<?xml version="1.0" standalone="no"?>
<!DOCTYPE svg PUBLIC "-//W3C//DTD SVG 20010904//EN"
 "http://www.w3.org/TR/2001/REC-SVG-20010904/DTD/svg10.dtd">
<svg version="1.0" xmlns="http://www.w3.org/2000/svg"
 width="35.000000pt" height="42.000000pt" viewBox="0 0 35.000000 42.000000"
 preserveAspectRatio="xMidYMid meet">
<metadata>
Created by potrace 1.16, written by Peter Selinger 2001-2019
</metadata>
<g transform="translate(0.000000,42.000000) scale(0.100000,-0.100000)"
fill="#000000" stroke="none">
<path d="M147 413 l-7 -6 0 -44 0 -43 -17 -1 -18 -1 -47 2 -47 1 -6 -44 -7
-44 4 -24 3 -24 34 3 33 2 14 -11 14 -11 0 -14 0 -14 -24 0 -25 0 -8 -12 -8
-13 -12 -45 -12 -45 -1 -12 0 -13 63 0 63 0 12 12 12 12 0 24 0 24 12 -4 12
-4 8 -32 9 -32 63 0 64 0 11 14 12 14 -3 64 -3 63 -38 -2 -38 -3 3 18 3 17 32
-3 31 -3 7 10 6 11 -7 60 -7 60 -36 5 -36 6 -30 7 -30 8 3 23 3 22 -11 15 -12
14 -18 0 -17 0 -6 -7z"/>
</g>
</svg>
