<?xml version="1.0" standalone="no"?>
<!DOCTYPE svg PUBLIC "-//W3C//DTD SVG 20010904//EN"
 "http://www.w3.org/TR/2001/REC-SVG-20010904/DTD/svg10.dtd">
<svg version="1.0" xmlns="http://www.w3.org/2000/svg"
 width="42.000000pt" height="33.000000pt" viewBox="0 0 42.000000 33.000000"
 preserveAspectRatio="xMidYMid meet">
<metadata>
Created by potrace 1.16, written by Peter Selinger 2001-2019
</metadata>
<g transform="translate(0.000000,33.000000) scale(0.100000,-0.100000)"
fill="#000000" stroke="none">
<path d="M90 288 l0 -43 -9 -14 -10 -15 -33 0 -33 -1 0 -34 0 -35 33 -8 32 -9
2 -27 2 -27 0 -35 1 -35 18 1 17 1 55 1 55 2 0 34 0 35 9 5 9 6 12 -15 12 -14
-7 -11 -6 -10 6 -20 6 -20 63 0 64 0 11 14 11 13 6 45 6 45 -11 21 -12 22 -32
-3 -32 -2 -3 28 -3 27 40 -6 41 -7 0 67 0 66 -18 0 -19 0 -7 -7 -7 -8 -42 -10
-42 -11 -3 -32 -3 -32 -29 0 -29 0 -9 18 -10 17 5 33 5 32 -56 0 -56 0 0 -42z"/>
</g>
</svg>
