<?xml version="1.0" standalone="no"?>
<!DOCTYPE svg PUBLIC "-//W3C//DTD SVG 20010904//EN"
 "http://www.w3.org/TR/2001/REC-SVG-20010904/DTD/svg10.dtd">
<svg version="1.0" xmlns="http://www.w3.org/2000/svg"
 width="45.000000pt" height="31.000000pt" viewBox="0 0 45.000000 31.000000"
 preserveAspectRatio="xMidYMid meet">
<metadata>
Created by potrace 1.16, written by Peter Selinger 2001-2019
</metadata>
<g transform="translate(0.000000,31.000000) scale(0.100000,-0.100000)"
fill="#000000" stroke="none">
<path d="M80 255 l0 -55 -41 6 -40 7 3 -39 3 -39 34 -1 33 0 10 -18 10 -18 -7
-35 -6 -34 -5 -12 -4 -12 62 5 63 5 0 35 0 35 25 0 25 0 1 -40 0 -40 57 -3 57
-3 10 26 10 26 0 34 0 34 13 8 12 8 20 0 20 0 3 28 3 27 -25 0 -25 0 -15 16
-16 15 0 41 0 40 -42 -7 -43 -7 -8 -5 -8 -5 4 -11 4 -12 -9 -17 -9 -18 -33 0
-34 0 -11 14 -11 13 6 32 7 31 -52 0 -51 0 0 -55z"/>
</g>
</svg>
