<?xml version="1.0" standalone="no"?>
<!DOCTYPE svg PUBLIC "-//W3C//DTD SVG 20010904//EN"
 "http://www.w3.org/TR/2001/REC-SVG-20010904/DTD/svg10.dtd">
<svg version="1.0" xmlns="http://www.w3.org/2000/svg"
 width="52.000000pt" height="49.000000pt" viewBox="0 0 52.000000 49.000000"
 preserveAspectRatio="xMidYMid meet">
<metadata>
Created by potrace 1.16, written by Peter Selinger 2001-2019
</metadata>
<g transform="translate(0.000000,49.000000) scale(0.100000,-0.100000)"
fill="#000000" stroke="none">
<path d="M221 471 l-11 -20 0 -27 0 -27 -60 6 -60 5 0 -46 0 -47 -9 -13 -8
-13 -28 7 -27 7 -9 -14 -9 -14 0 -22 0 -22 22 -21 22 -20 34 0 33 0 -4 -17 -5
-18 -7 -29 -6 -29 13 -8 13 -9 41 0 41 0 -1 -37 -1 -38 49 -3 49 -3 8 13 9 13
0 34 0 34 51 -6 52 -6 -6 64 -5 65 7 1 6 0 39 4 40 4 15 15 15 15 -12 25 -11
25 -43 3 -43 3 1 52 2 51 -57 9 -56 8 -5 30 -5 30 -32 3 -32 3 -10 -20z"/>
</g>
</svg>
