<?xml version="1.0" standalone="no"?>
<!DOCTYPE svg PUBLIC "-//W3C//DTD SVG 20010904//EN"
 "http://www.w3.org/TR/2001/REC-SVG-20010904/DTD/svg10.dtd">
<svg version="1.0" xmlns="http://www.w3.org/2000/svg"
 width="50.000000pt" height="47.000000pt" viewBox="0 0 50.000000 47.000000"
 preserveAspectRatio="xMidYMid meet">
<metadata>
Created by potrace 1.16, written by Peter Selinger 2001-2019
</metadata>
<g transform="translate(0.000000,47.000000) scale(0.100000,-0.100000)"
fill="#000000" stroke="none">
<path d="M220 450 l-11 -21 3 -22 3 -22 -63 0 -62 0 0 -45 0 -45 -9 -14 -9
-14 -30 6 -30 6 -6 -15 -6 -16 0 -8 0 -9 22 -21 23 -21 28 5 28 6 5 -13 5 -14
-9 -41 -10 -41 15 -5 15 -6 39 0 40 0 -3 -37 -3 -38 42 -3 42 -3 7 25 6 26 -6
17 -7 16 11 7 11 7 46 -7 45 -7 -6 63 -6 63 17 4 18 4 29 2 29 1 13 11 14 11
-10 18 -10 19 -43 3 -42 3 0 52 0 52 -53 7 -52 6 -8 12 -7 11 0 20 0 20 -22 3
-22 3 -11 -21z"/>
</g>
</svg>
