<?xml version="1.0" standalone="no"?>
<!DOCTYPE svg PUBLIC "-//W3C//DTD SVG 20010904//EN"
 "http://www.w3.org/TR/2001/REC-SVG-20010904/DTD/svg10.dtd">
<svg version="1.0" xmlns="http://www.w3.org/2000/svg"
 width="33.000000pt" height="40.000000pt" viewBox="0 0 33.000000 40.000000"
 preserveAspectRatio="xMidYMid meet">
<metadata>
Created by potrace 1.16, written by Peter Selinger 2001-2019
</metadata>
<g transform="translate(0.000000,40.000000) scale(0.100000,-0.100000)"
fill="#000000" stroke="none">
<path d="M12 348 l3 -53 33 3 33 3 15 -12 14 -11 0 -19 0 -18 -19 -11 -20 -10
-35 0 -36 0 0 -27 0 -28 6 -36 6 -36 22 4 22 5 35 -9 34 -9 0 -36 0 -36 7 -7
7 -7 35 6 35 7 3 21 3 22 48 15 47 15 -2 10 -1 11 7 45 8 45 1 10 2 10 -39 5
-39 5 -11 18 -11 17 11 18 12 17 26 -3 26 -3 0 50 0 49 -47 -12 -48 -12 0 -19
0 -19 -25 -14 -25 -14 -27 11 -28 11 0 40 0 40 -46 0 -45 0 3 -52z"/>
</g>
</svg>
