<?xml version="1.0" standalone="no"?>
<!DOCTYPE svg PUBLIC "-//W3C//DTD SVG 20010904//EN"
 "http://www.w3.org/TR/2001/REC-SVG-20010904/DTD/svg10.dtd">
<svg version="1.0" xmlns="http://www.w3.org/2000/svg"
 width="40.000000pt" height="39.000000pt" viewBox="0 0 40.000000 39.000000"
 preserveAspectRatio="xMidYMid meet">
<metadata>
Created by potrace 1.16, written by Peter Selinger 2001-2019
</metadata>
<g transform="translate(0.000000,39.000000) scale(0.100000,-0.100000)"
fill="#000000" stroke="none">
<path d="M98 328 l-3 -63 -43 3 -42 2 -7 -16 -6 -16 17 -16 16 -16 33 -1 32 0
3 -58 3 -57 27 0 27 0 25 -13 25 -14 -3 -12 -3 -13 6 -19 6 -19 33 0 34 0 12
15 12 15 -5 20 -5 19 34 7 34 6 18 -4 18 -5 2 61 3 61 -42 0 -41 0 -14 20 -14
19 0 7 0 8 17 16 17 17 38 -5 38 -5 0 23 0 23 -6 31 -7 32 -56 -3 -56 -3 3
-31 3 -31 -15 -6 -14 -6 -29 8 -28 8 0 34 -1 34 -46 3 -47 3 -3 -63z"/>
</g>
</svg>
