<?xml version="1.0" standalone="no"?>
<!DOCTYPE svg PUBLIC "-//W3C//DTD SVG 20010904//EN"
 "http://www.w3.org/TR/2001/REC-SVG-20010904/DTD/svg10.dtd">
<svg version="1.0" xmlns="http://www.w3.org/2000/svg"
 width="42.000000pt" height="41.000000pt" viewBox="0 0 42.000000 41.000000"
 preserveAspectRatio="xMidYMid meet">
<metadata>
Created by potrace 1.16, written by Peter Selinger 2001-2019
</metadata>
<g transform="translate(0.000000,41.000000) scale(0.100000,-0.100000)"
fill="#000000" stroke="none">
<path d="M98 348 l-3 -63 -45 0 -45 0 -3 -27 -3 -27 25 -16 25 -16 23 3 23 3
3 -57 3 -58 24 0 24 0 25 -10 26 -10 0 -19 0 -19 6 -16 6 -16 42 0 42 0 12 12
12 12 0 22 0 23 20 6 20 6 30 -6 30 -7 0 77 0 77 -27 -5 -27 -5 -23 9 -23 9 0
19 0 19 16 6 17 6 33 -6 34 -6 0 35 0 35 -6 31 -7 32 -66 -3 -66 -3 3 -33 2
-33 -32 3 -33 3 0 35 0 35 -57 3 -57 3 -3 -63z"/>
</g>
</svg>
