<?xml version="1.0" standalone="no"?>
<!DOCTYPE svg PUBLIC "-//W3C//DTD SVG 20010904//EN"
 "http://www.w3.org/TR/2001/REC-SVG-20010904/DTD/svg10.dtd">
<svg version="1.0" xmlns="http://www.w3.org/2000/svg"
 width="40.000000pt" height="33.000000pt" viewBox="0 0 40.000000 33.000000"
 preserveAspectRatio="xMidYMid meet">
<metadata>
Created by potrace 1.16, written by Peter Selinger 2001-2019
</metadata>
<g transform="translate(0.000000,33.000000) scale(0.100000,-0.100000)"
fill="#000000" stroke="none">
<path d="M28 313 l-1 -18 1 -20 2 -20 5 -24 6 -23 34 6 33 7 7 -21 6 -20 -6
-19 -6 -20 -52 -3 -52 -3 3 -30 3 -30 11 -28 10 -27 25 0 24 0 31 16 30 16 -4
28 -4 29 15 6 15 6 14 -15 14 -14 0 -41 -1 -41 10 -5 9 -6 55 11 55 11 0 58 0
59 14 11 13 11 15 -5 15 -6 12 15 13 15 -4 13 -5 13 -34 0 -34 0 -3 57 -3 57
-12 -4 -12 -4 -41 -10 -41 -11 1 -22 1 -23 -37 -3 -37 -3 -11 20 -10 21 6 25
6 25 -51 0 -51 0 -2 -17z"/>
</g>
</svg>
