<?xml version="1.0" standalone="no"?>
<!DOCTYPE svg PUBLIC "-//W3C//DTD SVG 20010904//EN"
 "http://www.w3.org/TR/2001/REC-SVG-20010904/DTD/svg10.dtd">
<svg version="1.0" xmlns="http://www.w3.org/2000/svg"
 width="42.000000pt" height="35.000000pt" viewBox="0 0 42.000000 35.000000"
 preserveAspectRatio="xMidYMid meet">
<metadata>
Created by potrace 1.16, written by Peter Selinger 2001-2019
</metadata>
<g transform="translate(0.000000,35.000000) scale(0.100000,-0.100000)"
fill="#000000" stroke="none">
<path d="M26 325 l-6 -25 6 -27 6 -28 5 -18 5 -19 34 4 33 4 5 -13 5 -13 -5
-15 -6 -14 -51 -3 -52 -3 2 -40 3 -40 11 -28 11 -27 35 0 34 0 29 15 30 16 0
30 0 31 13 -4 12 -5 5 -49 5 -49 17 -3 18 -3 54 11 55 11 3 62 3 62 25 3 25 4
13 11 13 10 -3 26 -3 26 -35 0 -35 0 -3 58 -3 59 -27 -7 -27 -6 -38 -10 -38
-10 3 -22 3 -22 -24 -3 -23 -4 -11 11 -11 11 2 35 3 35 -60 0 -59 0 -6 -25z"/>
</g>
</svg>
