<?xml version="1.0" standalone="no"?>
<!DOCTYPE svg PUBLIC "-//W3C//DTD SVG 20010904//EN"
 "http://www.w3.org/TR/2001/REC-SVG-20010904/DTD/svg10.dtd">
<svg version="1.0" xmlns="http://www.w3.org/2000/svg"
 width="33.000000pt" height="39.000000pt" viewBox="0 0 33.000000 39.000000"
 preserveAspectRatio="xMidYMid meet">
<metadata>
Created by potrace 1.16, written by Peter Selinger 2001-2019
</metadata>
<g transform="translate(0.000000,39.000000) scale(0.100000,-0.100000)"
fill="#000000" stroke="none">
<path d="M2 333 l3 -58 25 -3 25 -3 23 -5 23 -5 -3 -27 -3 -27 -35 -5 -35 -5
-6 -30 -7 -30 -1 -21 -1 -21 32 -7 31 -6 13 -11 14 -11 -6 -23 -6 -23 32 -7
32 -7 16 16 16 16 1 27 0 28 55 0 55 0 13 17 12 17 3 38 2 38 -42 1 -42 1 -16
13 -15 12 0 19 0 18 12 8 13 7 35 1 35 0 3 53 3 53 -38 -7 -38 -7 -20 -7 -20
-7 0 -19 0 -19 -28 -3 -28 -3 -15 12 -15 13 5 22 6 22 -16 6 -16 6 -44 0 -45
0 3 -57z"/>
</g>
</svg>
