<?xml version="1.0" standalone="no"?>
<!DOCTYPE svg PUBLIC "-//W3C//DTD SVG 20010904//EN"
 "http://www.w3.org/TR/2001/REC-SVG-20010904/DTD/svg10.dtd">
<svg version="1.0" xmlns="http://www.w3.org/2000/svg"
 width="35.000000pt" height="41.000000pt" viewBox="0 0 35.000000 41.000000"
 preserveAspectRatio="xMidYMid meet">
<metadata>
Created by potrace 1.16, written by Peter Selinger 2001-2019
</metadata>
<g transform="translate(0.000000,41.000000) scale(0.100000,-0.100000)"
fill="#000000" stroke="none">
<path d="M2 343 l3 -68 42 -6 43 -5 6 -7 6 -6 -5 -16 -6 -15 -30 0 -30 0 -5
-9 -6 -8 -6 -55 -6 -54 38 -9 39 -10 3 -31 3 -32 22 -6 22 -6 22 0 22 0 15 22
16 22 0 25 0 24 54 -6 54 -5 12 24 13 24 1 42 1 43 -47 3 -46 3 -13 15 -12 15
9 9 9 9 40 3 40 3 3 64 3 63 -47 -7 -47 -7 -24 -9 -23 -9 0 -20 0 -20 -19 0
-20 0 -8 13 -8 12 4 19 3 19 -14 8 -13 9 -58 0 -58 0 3 -67z"/>
</g>
</svg>
