<?xml version="1.0" standalone="no"?>
<!DOCTYPE svg PUBLIC "-//W3C//DTD SVG 20010904//EN"
 "http://www.w3.org/TR/2001/REC-SVG-20010904/DTD/svg10.dtd">
<svg version="1.0" xmlns="http://www.w3.org/2000/svg"
 width="50.000000pt" height="42.000000pt" viewBox="0 0 50.000000 42.000000"
 preserveAspectRatio="xMidYMid meet">
<metadata>
Created by potrace 1.16, written by Peter Selinger 2001-2019
</metadata>
<g transform="translate(0.000000,42.000000) scale(0.100000,-0.100000)"
fill="#000000" stroke="none">
<path d="M94 363 l1 -58 -27 3 -28 3 -20 -11 -20 -11 0 -28 0 -29 16 -13 16
-13 41 -1 42 -2 -1 -14 -2 -14 -7 -37 -7 -38 46 0 46 0 0 -34 0 -35 16 -15 15
-16 23 0 22 0 22 20 22 21 0 34 0 33 48 -1 47 -2 3 58 3 57 33 0 34 0 11 14
12 15 -3 28 -3 28 -39 0 -39 0 -8 20 -8 20 0 33 -1 33 -57 -7 -58 -6 -8 -5 -8
-5 2 -21 1 -22 -1 -12 -1 -13 -24 0 -24 0 -11 14 -12 14 7 36 6 36 -60 0 -59
0 1 -57z"/>
</g>
</svg>
