<?xml version="1.0" standalone="no"?>
<!DOCTYPE svg PUBLIC "-//W3C//DTD SVG 20010904//EN"
 "http://www.w3.org/TR/2001/REC-SVG-20010904/DTD/svg10.dtd">
<svg version="1.0" xmlns="http://www.w3.org/2000/svg"
 width="48.000000pt" height="40.000000pt" viewBox="0 0 48.000000 40.000000"
 preserveAspectRatio="xMidYMid meet">
<metadata>
Created by potrace 1.16, written by Peter Selinger 2001-2019
</metadata>
<g transform="translate(0.000000,40.000000) scale(0.100000,-0.100000)"
fill="#000000" stroke="none">
<path d="M95 343 l0 -58 -35 0 -35 -1 -13 -7 -12 -8 0 -18 0 -19 15 -12 16
-13 42 -1 42 -1 0 -25 -1 -25 -7 -27 -7 -28 45 0 45 0 0 -34 0 -35 16 -15 15
-16 13 0 12 0 22 20 22 21 0 35 0 35 48 -3 47 -3 5 60 5 60 34 0 34 0 10 16
10 16 -6 17 -7 17 -35 -7 -35 -6 -10 27 -10 26 0 30 0 29 -42 -6 -43 -6 -14
-4 -13 -4 6 -16 6 -17 -5 -18 -6 -19 -33 0 -34 0 -12 15 -13 15 6 35 6 35 -47
0 -47 0 0 -57z"/>
</g>
</svg>
