<?xml version="1.0" standalone="no"?>
<!DOCTYPE svg PUBLIC "-//W3C//DTD SVG 20010904//EN"
 "http://www.w3.org/TR/2001/REC-SVG-20010904/DTD/svg10.dtd">
<svg version="1.0" xmlns="http://www.w3.org/2000/svg"
 width="48.000000pt" height="35.000000pt" viewBox="0 0 48.000000 35.000000"
 preserveAspectRatio="xMidYMid meet">
<metadata>
Created by potrace 1.16, written by Peter Selinger 2001-2019
</metadata>
<g transform="translate(0.000000,35.000000) scale(0.100000,-0.100000)"
fill="#000000" stroke="none">
<path d="M80 285 l0 -64 -37 2 -38 2 -3 -30 -3 -30 23 -10 23 -10 15 -62 15
-63 43 0 43 0 34 14 35 15 0 36 0 36 11 -7 11 -6 -6 -43 -7 -42 14 -11 14 -12
66 7 67 6 0 12 0 13 -15 35 -15 36 0 21 0 20 36 0 35 0 20 10 19 11 0 29 0 29
-42 3 -43 3 -3 58 -3 58 -62 -3 -62 -3 0 -40 0 -40 -25 0 -25 0 3 32 3 32 -20
10 -20 11 -50 0 -51 0 0 -65z"/>
</g>
</svg>
