<?xml version="1.0" standalone="no"?>
<!DOCTYPE svg PUBLIC "-//W3C//DTD SVG 20010904//EN"
 "http://www.w3.org/TR/2001/REC-SVG-20010904/DTD/svg10.dtd">
<svg version="1.0" xmlns="http://www.w3.org/2000/svg"
 width="46.000000pt" height="33.000000pt" viewBox="0 0 46.000000 33.000000"
 preserveAspectRatio="xMidYMid meet">
<metadata>
Created by potrace 1.16, written by Peter Selinger 2001-2019
</metadata>
<g transform="translate(0.000000,33.000000) scale(0.100000,-0.100000)"
fill="#000000" stroke="none">
<path d="M80 264 l0 -66 -37 4 -38 3 -3 -20 -3 -20 22 -10 21 -10 18 -55 18
-54 -4 -8 -5 -8 36 0 36 0 36 15 36 15 -6 34 -5 34 13 6 14 5 12 -15 12 -14
-6 -40 -5 -39 13 -11 12 -10 49 9 49 9 7 -4 8 -5 0 4 0 5 -16 37 -15 37 3 32
3 31 32 -3 32 -3 21 11 20 11 0 19 0 19 -42 3 -43 3 -3 58 -3 58 -52 -3 -52
-3 0 -40 0 -40 -35 0 -35 0 0 33 0 33 -15 9 -15 10 -42 0 -43 0 0 -66z"/>
</g>
</svg>
