<?xml version="1.0" standalone="no"?>
<!DOCTYPE svg PUBLIC "-//W3C//DTD SVG 20010904//EN"
 "http://www.w3.org/TR/2001/REC-SVG-20010904/DTD/svg10.dtd">
<svg version="1.0" xmlns="http://www.w3.org/2000/svg"
 width="41.000000pt" height="39.000000pt" viewBox="0 0 41.000000 39.000000"
 preserveAspectRatio="xMidYMid meet">
<metadata>
Created by potrace 1.16, written by Peter Selinger 2001-2019
</metadata>
<g transform="translate(0.000000,39.000000) scale(0.100000,-0.100000)"
fill="#000000" stroke="none">
<path d="M15 372 l-5 -14 0 -31 0 -32 6 -23 7 -23 31 3 31 3 0 -30 0 -30 -40
-5 -40 -5 -3 -23 -3 -22 10 -33 11 -32 62 3 63 3 0 -38 0 -38 30 0 30 0 0 25
0 25 55 8 55 8 13 4 13 5 -15 22 -14 23 -4 30 -3 30 45 3 45 3 7 12 8 12 0 29
0 28 -24 -6 -25 -6 -15 16 -16 15 0 43 0 43 -50 7 -51 7 -9 -6 -9 -6 5 -28 6
-29 -11 -21 -12 -21 -28 0 -29 0 -12 15 -12 14 7 30 6 30 -23 5 -23 5 -32 4
-32 3 -6 -14z"/>
</g>
</svg>
