<?xml version="1.0" standalone="no"?>
<!DOCTYPE svg PUBLIC "-//W3C//DTD SVG 20010904//EN"
 "http://www.w3.org/TR/2001/REC-SVG-20010904/DTD/svg10.dtd">
<svg version="1.0" xmlns="http://www.w3.org/2000/svg"
 width="39.000000pt" height="43.000000pt" viewBox="0 0 39.000000 43.000000"
 preserveAspectRatio="xMidYMid meet">
<metadata>
Created by potrace 1.16, written by Peter Selinger 2001-2019
</metadata>
<g transform="translate(0.000000,43.000000) scale(0.100000,-0.100000)"
fill="#000000" stroke="none">
<path d="M258 388 l-3 -43 -20 0 -20 0 -3 38 -3 37 -63 0 -63 0 -7 -42 -7 -42
-11 -13 -10 -13 -25 0 -24 0 3 -42 3 -43 44 -3 43 -3 -6 -60 -7 -59 38 -1 38
0 15 -7 15 -7 0 -40 0 -40 34 -3 34 -3 10 10 10 10 6 38 6 38 50 5 50 5 0 55
0 55 -33 3 -33 3 -6 15 -5 14 6 24 6 25 33 3 32 3 3 56 3 56 -38 7 -38 6 -27
0 -27 0 -3 -42z"/>
</g>
</svg>
