<?xml version="1.0" standalone="no"?>
<!DOCTYPE svg PUBLIC "-//W3C//DTD SVG 20010904//EN"
 "http://www.w3.org/TR/2001/REC-SVG-20010904/DTD/svg10.dtd">
<svg version="1.0" xmlns="http://www.w3.org/2000/svg"
 width="37.000000pt" height="41.000000pt" viewBox="0 0 37.000000 41.000000"
 preserveAspectRatio="xMidYMid meet">
<metadata>
Created by potrace 1.16, written by Peter Selinger 2001-2019
</metadata>
<g transform="translate(0.000000,41.000000) scale(0.100000,-0.100000)"
fill="#000000" stroke="none">
<path d="M258 368 l-3 -43 -30 0 -30 0 -3 38 -3 37 -53 0 -53 0 -7 -42 -7 -42
-11 -13 -10 -13 -25 0 -24 0 3 -32 3 -33 44 -3 44 -3 -6 -60 -5 -59 31 0 32 0
22 -6 22 -6 -2 -41 -2 -42 27 -3 27 -3 11 22 12 21 -5 24 -4 24 21 5 21 5 35
2 35 3 0 45 0 45 -35 5 -35 5 -3 35 -2 35 9 15 10 14 28 1 28 0 3 46 3 46 -38
7 -38 6 -17 0 -17 0 -3 -42z"/>
</g>
</svg>
