<?xml version="1.0" standalone="no"?>
<!DOCTYPE svg PUBLIC "-//W3C//DTD SVG 20010904//EN"
 "http://www.w3.org/TR/2001/REC-SVG-20010904/DTD/svg10.dtd">
<svg version="1.0" xmlns="http://www.w3.org/2000/svg"
 width="43.000000pt" height="35.000000pt" viewBox="0 0 43.000000 35.000000"
 preserveAspectRatio="xMidYMid meet">
<metadata>
Created by potrace 1.16, written by Peter Selinger 2001-2019
</metadata>
<g transform="translate(0.000000,35.000000) scale(0.100000,-0.100000)"
fill="#000000" stroke="none">
<path d="M12 283 l3 -68 45 0 45 0 3 -17 3 -17 -23 -13 -23 -13 -30 0 -30 0
-3 -68 -3 -67 50 0 50 0 26 10 27 10 -4 31 -5 30 21 -3 21 -3 3 -40 3 -40 8
-8 8 -8 63 7 62 7 -6 68 -7 69 36 0 36 0 20 10 19 11 0 27 0 28 -12 12 -12 12
-38 0 -38 0 0 45 0 45 -32 -1 -33 0 -40 -7 -40 -7 0 -25 0 -25 -20 0 -20 0 -3
38 -3 37 -65 0 -65 0 3 -67z"/>
</g>
</svg>
