<?xml version="1.0" standalone="no"?>
<!DOCTYPE svg PUBLIC "-//W3C//DTD SVG 20010904//EN"
 "http://www.w3.org/TR/2001/REC-SVG-20010904/DTD/svg10.dtd">
<svg version="1.0" xmlns="http://www.w3.org/2000/svg"
 width="43.000000pt" height="41.000000pt" viewBox="0 0 43.000000 41.000000"
 preserveAspectRatio="xMidYMid meet">
<metadata>
Created by potrace 1.16, written by Peter Selinger 2001-2019
</metadata>
<g transform="translate(0.000000,41.000000) scale(0.100000,-0.100000)"
fill="#000000" stroke="none">
<path d="M121 396 l-12 -14 3 -29 3 -28 -57 1 -58 1 0 -163 0 -164 65 0 65 0
0 45 0 45 11 0 10 0 20 -10 19 -11 0 -35 0 -35 68 3 67 3 -1 20 -1 20 -8 28
-7 27 35 0 34 0 27 21 26 20 0 25 0 25 -11 20 -10 20 -37 -3 -37 -3 -3 46 -3
47 -27 11 -27 10 -42 11 -43 11 0 24 0 25 -29 0 -29 0 -11 -14z"/>
</g>
</svg>
