<?xml version="1.0" standalone="no"?>
<!DOCTYPE svg PUBLIC "-//W3C//DTD SVG 20010904//EN"
 "http://www.w3.org/TR/2001/REC-SVG-20010904/DTD/svg10.dtd">
<svg version="1.0" xmlns="http://www.w3.org/2000/svg"
 width="41.000000pt" height="39.000000pt" viewBox="0 0 41.000000 39.000000"
 preserveAspectRatio="xMidYMid meet">
<metadata>
Created by potrace 1.16, written by Peter Selinger 2001-2019
</metadata>
<g transform="translate(0.000000,39.000000) scale(0.100000,-0.100000)"
fill="#000000" stroke="none">
<path d="M123 378 l-8 -13 0 -30 0 -30 -58 0 -57 0 0 -152 0 -153 56 0 56 0
-4 43 -3 42 22 3 22 3 20 -11 21 -11 0 -35 0 -35 58 3 57 3 -4 15 -3 15 -5 37
-6 37 35 -5 35 -6 29 25 29 25 -11 28 -10 29 -39 0 -40 0 -3 46 -3 47 -27 11
-27 10 -42 11 -43 11 0 24 0 25 -19 0 -20 0 -8 -12z"/>
</g>
</svg>
