<?xml version="1.0" standalone="no"?>
<!DOCTYPE svg PUBLIC "-//W3C//DTD SVG 20010904//EN"
 "http://www.w3.org/TR/2001/REC-SVG-20010904/DTD/svg10.dtd">
<svg version="1.0" xmlns="http://www.w3.org/2000/svg"
 width="31.000000pt" height="49.000000pt" viewBox="0 0 31.000000 49.000000"
 preserveAspectRatio="xMidYMid meet">
<metadata>
Created by potrace 1.16, written by Peter Selinger 2001-2019
</metadata>
<g transform="translate(0.000000,49.000000) scale(0.100000,-0.100000)"
fill="#000000" stroke="none">
<path d="M147 484 l-7 -7 0 -38 0 -39 -22 -5 -23 -5 -45 -2 -45 -3 0 -60 0
-60 35 -1 35 -1 13 -2 13 -1 -3 -22 -3 -23 -35 0 -35 0 -13 -8 -12 -8 0 -57 0
-57 55 3 54 4 -6 -37 -6 -37 14 -9 14 -9 22 0 23 0 21 21 21 21 -4 35 -4 35
35 -5 36 -5 18 -7 18 -7 -3 143 -3 144 -60 0 -60 0 3 36 3 35 -18 23 -18 22
-8 -7z"/>
</g>
</svg>
