<?xml version="1.0" standalone="no"?>
<!DOCTYPE svg PUBLIC "-//W3C//DTD SVG 20010904//EN"
 "http://www.w3.org/TR/2001/REC-SVG-20010904/DTD/svg10.dtd">
<svg version="1.0" xmlns="http://www.w3.org/2000/svg"
 width="50.000000pt" height="49.000000pt" viewBox="0 0 50.000000 49.000000"
 preserveAspectRatio="xMidYMid meet">
<metadata>
Created by potrace 1.16, written by Peter Selinger 2001-2019
</metadata>
<g transform="translate(0.000000,49.000000) scale(0.100000,-0.100000)"
fill="#000000" stroke="none">
<path d="M215 480 l-6 -10 3 -38 3 -37 -63 3 -62 3 0 -39 0 -40 -15 -12 -14
-12 -19 6 -19 6 -12 -14 -12 -15 3 -38 3 -38 30 0 30 0 7 -15 7 -15 0 -31 1
-32 16 -6 16 -6 39 0 39 0 0 -40 0 -40 28 -11 27 -11 25 14 25 14 0 19 0 19
46 12 47 11 11 7 11 7 -9 18 -10 17 -3 39 -3 38 44 3 44 2 14 15 15 15 -7 22
-7 21 -32 -2 -31 -3 -13 8 -12 7 0 50 0 49 -54 0 -54 0 -6 15 -5 15 5 15 6 15
-12 15 -12 15 -24 0 -23 0 -6 -10z"/>
</g>
</svg>
