<?xml version="1.0" standalone="no"?>
<!DOCTYPE svg PUBLIC "-//W3C//DTD SVG 20010904//EN"
 "http://www.w3.org/TR/2001/REC-SVG-20010904/DTD/svg10.dtd">
<svg version="1.0" xmlns="http://www.w3.org/2000/svg"
 width="52.000000pt" height="51.000000pt" viewBox="0 0 52.000000 51.000000"
 preserveAspectRatio="xMidYMid meet">
<metadata>
Created by potrace 1.16, written by Peter Selinger 2001-2019
</metadata>
<g transform="translate(0.000000,51.000000) scale(0.100000,-0.100000)"
fill="#000000" stroke="none">
<path d="M217 503 l-7 -6 0 -44 0 -43 -60 7 -60 6 0 -41 0 -41 -12 -8 -13 -7
-21 2 -21 3 -12 -15 -12 -14 3 -49 3 -48 30 -3 30 -4 7 -11 8 -12 0 -31 0 -32
16 -6 16 -6 38 0 39 0 3 -42 3 -43 37 -9 37 -9 25 17 26 16 0 19 0 19 37 7 38
7 18 10 19 10 -7 21 -7 22 -7 30 -7 30 50 10 49 10 10 16 10 16 -7 26 -6 26
-43 3 -42 3 -3 53 -3 52 -55 0 -54 0 0 33 0 33 -12 12 -12 12 -31 0 -32 0 -6
-7z"/>
</g>
</svg>
