<?xml version="1.0" standalone="no"?>
<!DOCTYPE svg PUBLIC "-//W3C//DTD SVG 20010904//EN"
 "http://www.w3.org/TR/2001/REC-SVG-20010904/DTD/svg10.dtd">
<svg version="1.0" xmlns="http://www.w3.org/2000/svg"
 width="41.000000pt" height="41.000000pt" viewBox="0 0 41.000000 41.000000"
 preserveAspectRatio="xMidYMid meet">
<metadata>
Created by potrace 1.16, written by Peter Selinger 2001-2019
</metadata>
<g transform="translate(0.000000,41.000000) scale(0.100000,-0.100000)"
fill="#000000" stroke="none">
<path d="M122 402 l-13 -9 7 -28 7 -27 -14 -9 -14 -9 -47 0 -48 0 0 -58 0 -58
12 -12 12 -12 33 0 33 0 0 -15 0 -15 -19 0 -20 0 -8 -12 -8 -13 -17 -50 -17
-50 -1 -13 0 -13 72 3 73 3 1 40 0 40 7 -2 7 -3 9 0 10 0 3 -37 3 -38 77 -3
76 -3 13 57 13 57 18 5 18 4 7 26 6 25 -10 16 -10 16 -32 3 -31 3 0 55 0 54
-60 0 -61 0 -3 13 -3 12 -9 30 -9 30 -25 3 -25 2 -13 -8z"/>
</g>
</svg>
