<?xml version="1.0" standalone="no"?>
<!DOCTYPE svg PUBLIC "-//W3C//DTD SVG 20010904//EN"
 "http://www.w3.org/TR/2001/REC-SVG-20010904/DTD/svg10.dtd">
<svg version="1.0" xmlns="http://www.w3.org/2000/svg"
 width="39.000000pt" height="39.000000pt" viewBox="0 0 39.000000 39.000000"
 preserveAspectRatio="xMidYMid meet">
<metadata>
Created by potrace 1.16, written by Peter Selinger 2001-2019
</metadata>
<g transform="translate(0.000000,39.000000) scale(0.100000,-0.100000)"
fill="#000000" stroke="none">
<path d="M124 384 l-10 -4 4 -31 5 -31 -14 -9 -14 -9 -47 0 -48 0 0 -49 0 -49
15 -12 15 -12 31 6 30 6 -3 -33 -3 -32 -16 3 -16 2 -10 -12 -9 -13 -13 -40
-12 -40 -6 -13 -5 -13 63 3 64 3 0 40 0 40 15 2 15 3 15 -9 14 -10 1 -33 0
-33 67 -3 66 -3 13 57 13 57 18 5 17 4 6 20 7 19 -12 14 -12 15 -29 0 -29 0 0
55 0 55 -59 0 -59 0 -12 15 -12 14 7 10 6 11 -11 20 -11 20 -12 -1 -12 -1 -11
-4z"/>
</g>
</svg>
