<?xml version="1.0" standalone="no"?>
<!DOCTYPE svg PUBLIC "-//W3C//DTD SVG 20010904//EN"
 "http://www.w3.org/TR/2001/REC-SVG-20010904/DTD/svg10.dtd">
<svg version="1.0" xmlns="http://www.w3.org/2000/svg"
 width="41.000000pt" height="42.000000pt" viewBox="0 0 41.000000 42.000000"
 preserveAspectRatio="xMidYMid meet">
<metadata>
Created by potrace 1.16, written by Peter Selinger 2001-2019
</metadata>
<g transform="translate(0.000000,42.000000) scale(0.100000,-0.100000)"
fill="#000000" stroke="none">
<path d="M212 407 l-10 -12 -4 -35 -3 -35 -52 3 -53 4 0 -56 0 -56 -39 0 -40
0 -6 -21 -7 -20 6 -24 6 -24 33 -3 32 -3 3 -61 3 -60 57 -2 57 -2 18 6 17 5 0
39 0 39 8 5 8 5 11 -7 11 -7 4 -35 3 -35 65 0 65 0 -2 20 -1 20 -9 45 -9 45
-27 13 -27 13 0 10 0 9 34 0 34 0 6 16 6 16 0 50 0 51 -42 -7 -43 -6 -20 -3
-20 -2 -3 45 -3 45 -11 12 -10 13 -18 0 -18 0 -10 -13z"/>
</g>
</svg>
