<?xml version="1.0" standalone="no"?>
<!DOCTYPE svg PUBLIC "-//W3C//DTD SVG 20010904//EN"
 "http://www.w3.org/TR/2001/REC-SVG-20010904/DTD/svg10.dtd">
<svg version="1.0" xmlns="http://www.w3.org/2000/svg"
 width="39.000000pt" height="40.000000pt" viewBox="0 0 39.000000 40.000000"
 preserveAspectRatio="xMidYMid meet">
<metadata>
Created by potrace 1.16, written by Peter Selinger 2001-2019
</metadata>
<g transform="translate(0.000000,40.000000) scale(0.100000,-0.100000)"
fill="#000000" stroke="none">
<path d="M210 385 l-12 -15 4 -25 5 -25 -13 -11 -13 -10 -45 6 -45 7 -3 -58
-3 -59 -37 3 -36 3 -6 -19 -6 -19 6 -17 7 -18 23 5 24 4 9 -11 10 -12 3 -49 3
-49 38 -9 37 -9 26 6 26 7 -5 34 -6 34 15 12 14 12 23 -10 22 -10 0 -34 0 -34
44 -3 43 -3 13 5 13 4 -10 44 -10 43 -8 15 -7 15 -14 0 -14 0 -7 10 -8 10 0
18 0 17 34 0 34 0 6 16 6 16 0 39 0 39 -12 0 -13 0 -38 -11 -38 -10 -18 6 -19
6 5 39 6 40 -13 15 -12 15 -8 0 -8 0 -12 -15z"/>
</g>
</svg>
