<?xml version="1.0" standalone="no"?>
<!DOCTYPE svg PUBLIC "-//W3C//DTD SVG 20010904//EN"
 "http://www.w3.org/TR/2001/REC-SVG-20010904/DTD/svg10.dtd">
<svg version="1.0" xmlns="http://www.w3.org/2000/svg"
 width="52.000000pt" height="49.000000pt" viewBox="0 0 52.000000 49.000000"
 preserveAspectRatio="xMidYMid meet">
<metadata>
Created by potrace 1.16, written by Peter Selinger 2001-2019
</metadata>
<g transform="translate(0.000000,49.000000) scale(0.100000,-0.100000)"
fill="#000000" stroke="none">
<path d="M228 478 l-1 -13 -1 -30 -1 -30 -67 -3 -67 -3 -3 -52 -3 -52 -36 -3
-37 -3 -6 -22 -6 -22 0 -7 0 -8 20 -20 20 -20 39 0 40 0 -10 -32 -9 -33 0 -26
0 -27 59 5 60 6 3 -39 3 -39 40 0 40 0 3 42 3 42 63 -6 63 -6 7 52 7 51 24 0
24 0 11 19 10 20 0 29 0 30 -14 11 -14 12 -29 -3 -28 -3 -3 52 -3 52 -67 -2
-67 -2 2 25 2 25 -5 23 -4 22 -30 0 -30 0 -2 -12z"/>
</g>
</svg>
