<?xml version="1.0" standalone="no"?>
<!DOCTYPE svg PUBLIC "-//W3C//DTD SVG 20010904//EN"
 "http://www.w3.org/TR/2001/REC-SVG-20010904/DTD/svg10.dtd">
<svg version="1.0" xmlns="http://www.w3.org/2000/svg"
 width="41.000000pt" height="50.000000pt" viewBox="0 0 41.000000 50.000000"
 preserveAspectRatio="xMidYMid meet">
<metadata>
Created by potrace 1.16, written by Peter Selinger 2001-2019
</metadata>
<g transform="translate(0.000000,50.000000) scale(0.100000,-0.100000)"
fill="#000000" stroke="none">
<path d="M221 456 l4 -44 -17 -11 -16 -10 -52 8 -52 8 7 -52 6 -53 -35 1 -36
1 -9 -10 -9 -9 -6 -21 -6 -21 19 -22 19 -22 19 3 18 3 5 -40 6 -40 7 -12 8
-13 49 0 49 0 -6 -35 -6 -35 13 -15 12 -15 34 0 34 0 2 13 1 12 1 25 1 25 25
3 25 2 35 10 35 9 -4 53 -3 53 -9 11 -9 11 -24 -4 -23 -5 -7 18 -6 17 6 19 6
19 36 -3 37 -3 0 55 0 55 -45 3 -45 2 -24 6 -23 5 5 27 5 27 -9 17 -10 18 -20
0 -21 0 3 -44z"/>
</g>
</svg>
