<?xml version="1.0" standalone="no"?>
<!DOCTYPE svg PUBLIC "-//W3C//DTD SVG 20010904//EN"
 "http://www.w3.org/TR/2001/REC-SVG-20010904/DTD/svg10.dtd">
<svg version="1.0" xmlns="http://www.w3.org/2000/svg"
 width="50.000000pt" height="43.000000pt" viewBox="0 0 50.000000 43.000000"
 preserveAspectRatio="xMidYMid meet">
<metadata>
Created by potrace 1.16, written by Peter Selinger 2001-2019
</metadata>
<g transform="translate(0.000000,43.000000) scale(0.100000,-0.100000)"
fill="#000000" stroke="none">
<path d="M205 420 l-6 -10 3 -38 3 -37 -57 -3 -57 -3 -3 -47 -3 -47 -40 -5
-40 -5 -3 -44 -3 -44 10 -10 11 -11 49 1 49 1 -5 -17 -5 -16 -10 -27 -10 -27
16 -16 16 -16 57 3 58 3 -2 29 -2 29 10 18 10 19 14 0 15 0 0 -34 0 -34 14 -5
15 -6 60 -7 61 -7 0 51 0 51 27 3 28 3 9 26 9 26 -7 28 -7 27 -25 -5 -25 -4
-9 18 -10 18 0 40 0 41 -29 0 -29 0 -31 6 -31 6 6 25 6 24 -17 19 -18 20 -33
0 -33 0 -6 -10z"/>
</g>
</svg>
