<?xml version="1.0" standalone="no"?>
<!DOCTYPE svg PUBLIC "-//W3C//DTD SVG 20010904//EN"
 "http://www.w3.org/TR/2001/REC-SVG-20010904/DTD/svg10.dtd">
<svg version="1.0" xmlns="http://www.w3.org/2000/svg"
 width="39.000000pt" height="49.000000pt" viewBox="0 0 39.000000 49.000000"
 preserveAspectRatio="xMidYMid meet">
<metadata>
Created by potrace 1.16, written by Peter Selinger 2001-2019
</metadata>
<g transform="translate(0.000000,49.000000) scale(0.100000,-0.100000)"
fill="#000000" stroke="none">
<path d="M194 479 l-7 -13 -1 -35 -1 -36 -57 -3 -58 -3 0 -39 0 -38 -6 -16 -6
-16 -29 0 -29 0 0 -34 0 -34 18 -4 18 -5 13 -57 12 -56 60 0 59 0 0 -33 0 -33
12 -12 12 -12 22 0 22 0 12 15 12 14 -7 20 -6 20 36 7 35 6 25 -4 24 -5 4 10
3 11 -14 45 -15 46 -8 23 -9 23 -17 -3 -18 -3 0 20 0 20 32 -2 32 -3 11 20 11
21 -3 42 -3 42 -62 15 -62 16 -8 8 -8 8 0 26 0 27 -22 3 -21 3 -8 -12z"/>
</g>
</svg>
