<?xml version="1.0" standalone="no"?>
<!DOCTYPE svg PUBLIC "-//W3C//DTD SVG 20010904//EN"
 "http://www.w3.org/TR/2001/REC-SVG-20010904/DTD/svg10.dtd">
<svg version="1.0" xmlns="http://www.w3.org/2000/svg"
 width="52.000000pt" height="50.000000pt" viewBox="0 0 52.000000 50.000000"
 preserveAspectRatio="xMidYMid meet">
<metadata>
Created by potrace 1.16, written by Peter Selinger 2001-2019
</metadata>
<g transform="translate(0.000000,50.000000) scale(0.100000,-0.100000)"
fill="#000000" stroke="none">
<path d="M231 486 l-12 -15 3 -33 3 -33 -62 1 -63 1 0 -59 0 -58 -36 0 -35 0
-15 -14 -14 -15 0 -29 0 -30 16 -6 16 -6 35 0 36 0 -6 -55 -6 -55 60 0 59 0 0
-28 0 -28 12 -12 12 -12 29 0 28 0 20 10 19 11 0 29 0 30 55 0 54 0 -6 50 -6
50 32 0 32 0 15 14 14 15 0 38 0 38 -9 14 -9 14 -31 -5 -30 -4 -6 14 -5 14 0
34 0 34 -49 0 -49 0 -16 6 -16 6 0 32 0 32 -12 12 -12 12 -17 0 -17 0 -11 -14z"/>
</g>
</svg>
