<?xml version="1.0" standalone="no"?>
<!DOCTYPE svg PUBLIC "-//W3C//DTD SVG 20010904//EN"
 "http://www.w3.org/TR/2001/REC-SVG-20010904/DTD/svg10.dtd">
<svg version="1.0" xmlns="http://www.w3.org/2000/svg"
 width="50.000000pt" height="48.000000pt" viewBox="0 0 50.000000 48.000000"
 preserveAspectRatio="xMidYMid meet">
<metadata>
Created by potrace 1.16, written by Peter Selinger 2001-2019
</metadata>
<g transform="translate(0.000000,48.000000) scale(0.100000,-0.100000)"
fill="#000000" stroke="none">
<path d="M233 468 l-8 -13 0 -35 0 -35 -63 0 -64 0 4 -58 3 -57 -38 0 -38 0
-15 -14 -14 -15 0 -20 0 -21 24 -6 24 -6 23 4 24 3 0 -58 0 -57 57 0 57 0 3
-31 3 -32 17 -11 17 -10 28 10 28 9 3 33 3 32 52 0 52 0 -3 53 -4 54 31 -5 30
-4 16 15 15 16 0 28 0 28 -9 14 -9 14 -27 -7 -28 -7 -8 13 -9 13 0 38 0 37
-51 0 -50 0 -20 10 -19 11 6 25 6 24 -12 15 -12 15 -9 0 -8 0 -8 -12z"/>
</g>
</svg>
