<?xml version="1.0" standalone="no"?>
<!DOCTYPE svg PUBLIC "-//W3C//DTD SVG 20010904//EN"
 "http://www.w3.org/TR/2001/REC-SVG-20010904/DTD/svg10.dtd">
<svg version="1.0" xmlns="http://www.w3.org/2000/svg"
 width="41.000000pt" height="39.000000pt" viewBox="0 0 41.000000 39.000000"
 preserveAspectRatio="xMidYMid meet">
<metadata>
Created by potrace 1.16, written by Peter Selinger 2001-2019
</metadata>
<g transform="translate(0.000000,39.000000) scale(0.100000,-0.100000)"
fill="#000000" stroke="none">
<path d="M215 382 l-10 -7 0 -30 0 -30 -60 0 -60 0 0 -55 0 -55 -42 2 -43 2 0
-39 0 -38 16 -6 16 -6 35 0 35 0 -4 -49 -3 -49 17 -11 18 -11 50 0 50 0 0 35
0 36 15 5 15 6 15 -12 14 -11 -4 -12 -5 -12 8 -11 7 -12 58 -3 58 -4 -3 60 -3
60 -31 -2 -32 -3 -12 15 -12 14 4 23 3 23 33 0 33 0 9 15 10 15 0 39 0 38 -27
-6 -28 -7 -42 -6 -43 -6 0 45 0 44 -12 12 -12 12 -10 0 -11 0 -10 -8z"/>
</g>
</svg>
