<?xml version="1.0" standalone="no"?>
<!DOCTYPE svg PUBLIC "-//W3C//DTD SVG 20010904//EN"
 "http://www.w3.org/TR/2001/REC-SVG-20010904/DTD/svg10.dtd">
<svg version="1.0" xmlns="http://www.w3.org/2000/svg"
 width="43.000000pt" height="41.000000pt" viewBox="0 0 43.000000 41.000000"
 preserveAspectRatio="xMidYMid meet">
<metadata>
Created by potrace 1.16, written by Peter Selinger 2001-2019
</metadata>
<g transform="translate(0.000000,41.000000) scale(0.100000,-0.100000)"
fill="#000000" stroke="none">
<path d="M213 402 l-12 -8 2 -29 2 -30 -61 2 -61 1 1 -56 1 -57 -42 3 -43 3 0
-49 0 -50 16 -6 16 -6 35 0 36 0 -6 -48 -6 -48 20 -12 19 -12 59 0 60 0 3 38
3 37 9 0 10 0 8 -32 9 -33 47 0 47 0 23 -6 23 -7 -3 74 -3 74 -33 1 -32 0 -11
11 -12 12 6 14 5 15 28 -6 27 -5 14 18 13 19 0 49 0 50 -37 -7 -38 -6 -32 -6
-33 -6 0 44 0 44 -12 12 -12 12 -21 0 -20 0 -12 -8z"/>
</g>
</svg>
