<?xml version="1.0" standalone="no"?>
<!DOCTYPE svg PUBLIC "-//W3C//DTD SVG 20010904//EN"
 "http://www.w3.org/TR/2001/REC-SVG-20010904/DTD/svg10.dtd">
<svg version="1.0" xmlns="http://www.w3.org/2000/svg"
 width="41.000000pt" height="39.000000pt" viewBox="0 0 41.000000 39.000000"
 preserveAspectRatio="xMidYMid meet">
<metadata>
Created by potrace 1.16, written by Peter Selinger 2001-2019
</metadata>
<g transform="translate(0.000000,39.000000) scale(0.100000,-0.100000)"
fill="#000000" stroke="none">
<path d="M133 378 l-7 -13 3 -27 3 -28 -50 0 -50 0 -16 -6 -16 -6 0 -49 0 -49
13 -1 12 -1 22 2 22 1 11 -21 11 -21 -15 -23 -15 -23 -25 4 -25 5 -7 -26 -6
-26 6 -33 6 -33 48 1 48 1 12 8 13 8 -3 31 -3 32 23 3 23 4 14 -12 13 -11 -5
-19 -5 -19 26 -6 26 -5 24 -5 24 -5 15 6 15 5 -9 32 -9 32 0 21 0 22 38 -5 37
-5 18 20 19 21 -7 21 -7 21 -36 -3 -37 -3 -5 54 -5 55 -62 -3 -63 -2 -1 13 -1
13 2 18 1 18 -11 15 -12 14 -14 0 -13 0 -8 -12z"/>
</g>
</svg>
