<?xml version="1.0" standalone="no"?>
<!DOCTYPE svg PUBLIC "-//W3C//DTD SVG 20010904//EN"
 "http://www.w3.org/TR/2001/REC-SVG-20010904/DTD/svg10.dtd">
<svg version="1.0" xmlns="http://www.w3.org/2000/svg"
 width="43.000000pt" height="41.000000pt" viewBox="0 0 43.000000 41.000000"
 preserveAspectRatio="xMidYMid meet">
<metadata>
Created by potrace 1.16, written by Peter Selinger 2001-2019
</metadata>
<g transform="translate(0.000000,41.000000) scale(0.100000,-0.100000)"
fill="#000000" stroke="none">
<path d="M131 396 l-12 -14 7 -26 6 -26 -50 0 -50 0 -16 -6 -16 -6 0 -59 0
-59 13 -2 12 -1 25 -1 25 -1 0 -25 0 -25 -30 -3 -30 -4 -7 -11 -8 -12 0 -35 0
-35 6 -21 6 -21 44 -1 45 -1 24 9 25 10 0 35 0 36 18 -3 17 -3 3 -27 3 -27 17
-5 17 -5 45 -6 45 -6 13 9 14 9 -11 39 -11 39 0 8 0 7 38 0 39 0 16 18 17 19
0 15 0 16 -6 16 -6 16 -39 0 -38 0 -3 53 -3 52 -62 -4 -63 -3 0 34 0 34 -12
12 -12 12 -22 0 -22 0 -11 -14z"/>
</g>
</svg>
