<?xml version="1.0" standalone="no"?>
<!DOCTYPE svg PUBLIC "-//W3C//DTD SVG 20010904//EN"
 "http://www.w3.org/TR/2001/REC-SVG-20010904/DTD/svg10.dtd">
<svg version="1.0" xmlns="http://www.w3.org/2000/svg"
 width="41.000000pt" height="48.000000pt" viewBox="0 0 41.000000 48.000000"
 preserveAspectRatio="xMidYMid meet">
<metadata>
Created by potrace 1.16, written by Peter Selinger 2001-2019
</metadata>
<g transform="translate(0.000000,48.000000) scale(0.100000,-0.100000)"
fill="#000000" stroke="none">
<path d="M234 457 l6 -24 -13 -16 -12 -16 -55 -3 -55 -3 -6 -37 -6 -37 -13
-16 -14 -16 -23 6 -23 5 -11 -23 -11 -24 17 -33 17 -32 29 6 29 6 0 -44 0 -44
16 -6 16 -6 31 0 32 0 13 -9 13 -8 -7 -27 -6 -26 12 -15 12 -15 29 0 28 0 11
20 11 21 -3 32 -3 32 50 0 50 0 0 55 0 55 -24 -3 -23 -4 -24 6 -24 6 0 21 0
20 14 15 15 14 38 0 38 0 -3 55 -4 55 -26 6 -27 5 -30 7 -30 8 0 24 0 25 -29
3 -29 4 7 -25z"/>
</g>
</svg>
