<?xml version="1.0" standalone="no"?>
<!DOCTYPE svg PUBLIC "-//W3C//DTD SVG 20010904//EN"
 "http://www.w3.org/TR/2001/REC-SVG-20010904/DTD/svg10.dtd">
<svg version="1.0" xmlns="http://www.w3.org/2000/svg"
 width="49.000000pt" height="43.000000pt" viewBox="0 0 49.000000 43.000000"
 preserveAspectRatio="xMidYMid meet">
<metadata>
Created by potrace 1.16, written by Peter Selinger 2001-2019
</metadata>
<g transform="translate(0.000000,43.000000) scale(0.100000,-0.100000)"
fill="#000000" stroke="none">
<path d="M203 415 l-5 -16 5 -6 6 -6 -10 -18 -10 -19 -55 0 -56 0 4 -57 3 -56
-40 -1 -40 -1 0 -45 0 -45 30 -3 30 -4 7 -11 8 -12 0 -42 0 -41 29 -7 29 -6
36 7 36 6 6 24 6 23 -7 11 -6 10 17 7 17 6 13 -17 13 -18 -6 -14 -5 -14 6 -25
6 -25 26 0 25 0 45 11 44 11 0 54 0 54 29 0 29 0 11 14 12 15 -3 38 -3 38 -40
5 -40 5 -3 49 -3 48 -37 -7 -37 -7 -25 -2 -25 -1 3 38 4 38 -12 15 -12 14 -25
0 -24 0 -6 -15z"/>
</g>
</svg>
