<?xml version="1.0" standalone="no"?>
<!DOCTYPE svg PUBLIC "-//W3C//DTD SVG 20010904//EN"
 "http://www.w3.org/TR/2001/REC-SVG-20010904/DTD/svg10.dtd">
<svg version="1.0" xmlns="http://www.w3.org/2000/svg"
 width="47.000000pt" height="41.000000pt" viewBox="0 0 47.000000 41.000000"
 preserveAspectRatio="xMidYMid meet">
<metadata>
Created by potrace 1.16, written by Peter Selinger 2001-2019
</metadata>
<g transform="translate(0.000000,41.000000) scale(0.100000,-0.100000)"
fill="#000000" stroke="none">
<path d="M207 404 l-6 -6 5 -13 6 -13 -12 -21 -11 -21 -54 0 -55 0 2 -57 3
-58 -40 0 -40 0 0 -35 0 -35 30 -3 30 -4 7 -11 8 -12 0 -41 0 -42 24 -6 24 -6
31 6 31 7 1 11 2 11 1 25 1 25 27 3 27 3 11 -20 10 -21 -5 -22 -5 -23 9 -14 9
-15 56 13 56 12 0 55 0 54 29 0 29 0 11 14 12 15 -3 28 -3 28 -35 -1 -35 0 -7
10 -8 11 0 44 0 43 -27 -8 -28 -8 -35 0 -35 -1 3 38 3 39 -12 14 -11 14 -13 0
-12 0 -6 -6z"/>
</g>
</svg>
