<?xml version="1.0" standalone="no"?>
<!DOCTYPE svg PUBLIC "-//W3C//DTD SVG 20010904//EN"
 "http://www.w3.org/TR/2001/REC-SVG-20010904/DTD/svg10.dtd">
<svg version="1.0" xmlns="http://www.w3.org/2000/svg"
 width="48.000000pt" height="40.000000pt" viewBox="0 0 48.000000 40.000000"
 preserveAspectRatio="xMidYMid meet">
<metadata>
Created by potrace 1.16, written by Peter Selinger 2001-2019
</metadata>
<g transform="translate(0.000000,40.000000) scale(0.100000,-0.100000)"
fill="#000000" stroke="none">
<path d="M201 391 l-13 -9 7 -30 6 -31 -58 -3 -58 -3 -5 -55 -5 -55 -29 3 -29
4 -8 -14 -9 -13 0 -27 0 -28 24 0 25 0 11 -55 11 -55 58 0 59 0 12 15 12 15
-6 24 -6 25 19 10 18 10 19 -13 18 -14 -1 -41 -2 -40 10 -7 10 -6 45 7 44 6 0
59 0 59 13 8 12 8 35 0 35 0 3 23 3 22 -13 1 -13 2 -35 1 -35 1 -3 62 -3 62
-42 11 -42 11 -18 6 -19 5 5 18 5 19 -15 5 -15 6 -11 0 -12 0 -14 -9z"/>
</g>
</svg>
