<?xml version="1.0" standalone="no"?>
<!DOCTYPE svg PUBLIC "-//W3C//DTD SVG 20010904//EN"
 "http://www.w3.org/TR/2001/REC-SVG-20010904/DTD/svg10.dtd">
<svg version="1.0" xmlns="http://www.w3.org/2000/svg"
 width="34.000000pt" height="48.000000pt" viewBox="0 0 34.000000 48.000000"
 preserveAspectRatio="xMidYMid meet">
<metadata>
Created by potrace 1.16, written by Peter Selinger 2001-2019
</metadata>
<g transform="translate(0.000000,48.000000) scale(0.100000,-0.100000)"
fill="#000000" stroke="none">
<path d="M153 468 l-8 -13 0 -35 0 -35 -58 3 -58 4 3 -54 3 -53 33 -1 34 -1 9
-14 9 -14 0 -12 0 -12 -22 -13 -23 -12 -35 0 -35 -1 1 -25 1 -25 4 -25 4 -25
15 -7 15 -7 42 0 42 -1 3 -42 3 -43 38 -3 38 -3 14 11 14 11 3 27 3 27 42 3
42 3 7 44 6 45 -5 13 -5 14 -31 -5 -31 -4 -9 25 -10 25 8 29 8 28 31 -3 32 -3
0 50 0 51 -44 0 -44 0 -12 15 -12 14 7 11 7 11 -18 20 -17 19 -18 0 -18 0 -8
-12z"/>
</g>
</svg>
