<?xml version="1.0" standalone="no"?>
<!DOCTYPE svg PUBLIC "-//W3C//DTD SVG 20010904//EN"
 "http://www.w3.org/TR/2001/REC-SVG-20010904/DTD/svg10.dtd">
<svg version="1.0" xmlns="http://www.w3.org/2000/svg"
 width="36.000000pt" height="50.000000pt" viewBox="0 0 36.000000 50.000000"
 preserveAspectRatio="xMidYMid meet">
<metadata>
Created by potrace 1.16, written by Peter Selinger 2001-2019
</metadata>
<g transform="translate(0.000000,50.000000) scale(0.100000,-0.100000)"
fill="#000000" stroke="none">
<path d="M151 486 l-12 -15 3 -33 3 -33 -58 3 -58 4 3 -64 3 -63 37 -3 36 -3
6 -14 5 -14 -12 -8 -12 -7 -45 -6 -45 -5 3 -59 3 -60 4 -5 5 -4 54 -5 55 -4 3
-42 3 -41 48 -3 49 -3 13 11 14 11 3 27 3 27 42 3 42 3 6 43 7 43 -4 24 -3 24
-35 0 -35 0 -3 38 -3 37 35 0 36 0 0 59 0 60 -47 3 -48 3 -3 25 -4 25 -15 18
-16 17 -27 0 -28 0 -11 -14z"/>
</g>
</svg>
