<?xml version="1.0" standalone="no"?>
<!DOCTYPE svg PUBLIC "-//W3C//DTD SVG 20010904//EN"
 "http://www.w3.org/TR/2001/REC-SVG-20010904/DTD/svg10.dtd">
<svg version="1.0" xmlns="http://www.w3.org/2000/svg"
 width="33.000000pt" height="41.000000pt" viewBox="0 0 33.000000 41.000000"
 preserveAspectRatio="xMidYMid meet">
<metadata>
Created by potrace 1.16, written by Peter Selinger 2001-2019
</metadata>
<g transform="translate(0.000000,41.000000) scale(0.100000,-0.100000)"
fill="#000000" stroke="none">
<path d="M129 398 l-1 -13 2 -34 2 -33 -64 3 -63 4 -3 -146 -3 -147 23 -5 23
-6 35 8 35 7 0 45 0 44 22 3 22 3 11 -21 11 -21 -3 -42 -3 -42 32 -3 32 -3 43
20 43 20 -6 1 -6 0 8 45 8 45 -5 15 -6 15 -37 -6 -37 -6 -13 16 -13 15 4 18 4
18 42 -3 43 -3 -3 58 -3 58 -40 3 -40 2 -23 5 -23 6 7 34 6 35 -31 0 -31 0 -1
-12z"/>
</g>
</svg>
