<?xml version="1.0" standalone="no"?>
<!DOCTYPE svg PUBLIC "-//W3C//DTD SVG 20010904//EN"
 "http://www.w3.org/TR/2001/REC-SVG-20010904/DTD/svg10.dtd">
<svg version="1.0" xmlns="http://www.w3.org/2000/svg"
 width="43.000000pt" height="41.000000pt" viewBox="0 0 43.000000 41.000000"
 preserveAspectRatio="xMidYMid meet">
<metadata>
Created by potrace 1.16, written by Peter Selinger 2001-2019
</metadata>
<g transform="translate(0.000000,41.000000) scale(0.100000,-0.100000)"
fill="#000000" stroke="none">
<path d="M134 387 l6 -24 -14 -18 -13 -18 -58 -5 -58 -5 6 -58 5 -58 7 -10 6
-11 30 0 30 0 -3 -17 -3 -18 -25 -3 -25 -4 -12 -10 -13 -10 0 -59 0 -59 58 0
57 1 17 13 18 13 0 22 0 21 15 0 15 0 0 -19 0 -20 8 -5 9 -5 68 -11 68 -11 5
6 6 5 5 43 6 42 30 3 30 4 7 11 8 12 0 41 0 42 -16 6 -16 6 -29 0 -29 0 0 50
0 50 -44 0 -44 0 -16 6 -16 6 0 27 0 27 -12 12 -12 12 -34 0 -34 0 6 -23z"/>
</g>
</svg>
