<?xml version="1.0" standalone="no"?>
<!DOCTYPE svg PUBLIC "-//W3C//DTD SVG 20010904//EN"
 "http://www.w3.org/TR/2001/REC-SVG-20010904/DTD/svg10.dtd">
<svg version="1.0" xmlns="http://www.w3.org/2000/svg"
 width="41.000000pt" height="39.000000pt" viewBox="0 0 41.000000 39.000000"
 preserveAspectRatio="xMidYMid meet">
<metadata>
Created by potrace 1.16, written by Peter Selinger 2001-2019
</metadata>
<g transform="translate(0.000000,39.000000) scale(0.100000,-0.100000)"
fill="#000000" stroke="none">
<path d="M137 368 l4 -23 -14 -19 -14 -19 -58 -5 -57 -5 5 -49 6 -48 6 -10 6
-10 30 0 30 0 -3 -27 -3 -28 -25 -3 -25 -4 -12 -10 -13 -10 0 -49 0 -49 48 0
47 1 18 13 17 13 0 22 0 21 29 0 29 0 -5 -19 -5 -19 10 -5 9 -6 59 -10 59 -9
7 12 8 11 0 27 0 26 6 16 6 16 25 -6 25 -7 9 14 9 14 0 32 0 32 -20 6 -20 6
-9 -5 -9 -6 -16 6 -16 6 0 49 0 49 -46 0 -45 0 -20 11 -20 10 6 20 7 20 -12
14 -12 15 -23 0 -22 0 4 -22z"/>
</g>
</svg>
