<?xml version="1.0" standalone="no"?>
<!DOCTYPE svg PUBLIC "-//W3C//DTD SVG 20010904//EN"
 "http://www.w3.org/TR/2001/REC-SVG-20010904/DTD/svg10.dtd">
<svg version="1.0" xmlns="http://www.w3.org/2000/svg"
 width="49.000000pt" height="42.000000pt" viewBox="0 0 49.000000 42.000000"
 preserveAspectRatio="xMidYMid meet">
<metadata>
Created by potrace 1.16, written by Peter Selinger 2001-2019
</metadata>
<g transform="translate(0.000000,42.000000) scale(0.100000,-0.100000)"
fill="#000000" stroke="none">
<path d="M265 391 l6 -30 -11 -20 -11 -21 -20 0 -21 0 7 29 6 29 -17 16 -16
17 -52 -3 -51 -3 -3 -52 -3 -52 -37 -3 -37 -3 0 -55 0 -55 22 -3 21 -3 7 -42
7 -42 11 -7 10 -6 53 5 52 6 -5 -26 -5 -25 12 -21 11 -22 47 3 46 3 6 25 6 24
41 11 42 10 5 6 5 5 14 55 14 54 29 5 29 5 3 33 3 33 -12 15 -11 14 -40 0 -39
0 6 54 7 53 -24 6 -23 7 -48 0 -49 0 7 -29z"/>
</g>
</svg>
