<?xml version="1.0" standalone="no"?>
<!DOCTYPE svg PUBLIC "-//W3C//DTD SVG 20010904//EN"
 "http://www.w3.org/TR/2001/REC-SVG-20010904/DTD/svg10.dtd">
<svg version="1.0" xmlns="http://www.w3.org/2000/svg"
 width="47.000000pt" height="40.000000pt" viewBox="0 0 47.000000 40.000000"
 preserveAspectRatio="xMidYMid meet">
<metadata>
Created by potrace 1.16, written by Peter Selinger 2001-2019
</metadata>
<g transform="translate(0.000000,40.000000) scale(0.100000,-0.100000)"
fill="#000000" stroke="none">
<path d="M268 371 l4 -29 -11 -21 -12 -21 -28 0 -28 0 -6 6 -6 6 9 24 9 23
-16 16 -15 16 -42 -3 -41 -3 -5 -55 -5 -55 -35 0 -35 0 0 -45 0 -45 20 0 20 0
9 -45 9 -45 4 -4 3 -4 61 2 61 2 -6 -26 -6 -25 10 -21 11 -20 37 3 37 3 -1 23
-1 22 41 11 41 10 11 4 11 3 12 49 12 48 8 15 8 15 24 0 24 0 3 23 4 23 -13
15 -12 15 -36 -3 -36 -3 2 57 2 56 -22 6 -22 6 -36 0 -36 0 5 -29z"/>
</g>
</svg>
