<?xml version="1.0" standalone="no"?>
<!DOCTYPE svg PUBLIC "-//W3C//DTD SVG 20010904//EN"
 "http://www.w3.org/TR/2001/REC-SVG-20010904/DTD/svg10.dtd">
<svg version="1.0" xmlns="http://www.w3.org/2000/svg"
 width="38.000000pt" height="39.000000pt" viewBox="0 0 38.000000 39.000000"
 preserveAspectRatio="xMidYMid meet">
<metadata>
Created by potrace 1.16, written by Peter Selinger 2001-2019
</metadata>
<g transform="translate(0.000000,39.000000) scale(0.100000,-0.100000)"
fill="#000000" stroke="none">
<path d="M269 384 l-1 -9 2 -27 1 -27 -20 -11 -21 -11 -20 11 -21 11 6 20 6
19 -26 10 -26 10 -36 0 -35 0 4 -57 3 -58 -32 2 -32 3 -10 -18 -10 -18 8 -13
8 -13 34 4 34 3 0 -68 0 -67 42 0 41 0 16 -6 16 -6 -6 -22 -5 -22 15 -13 15
-12 28 3 28 3 0 19 0 19 25 8 25 7 28 7 29 6 -8 17 -7 17 -6 40 -6 40 -18 -3
-19 -3 -19 22 -19 22 6 21 6 21 9 9 9 10 36 -1 36 -1 -7 46 -7 47 -2 2 -3 3
-46 6 -47 7 -1 -9z"/>
</g>
</svg>
