<?xml version="1.0" standalone="no"?>
<!DOCTYPE svg PUBLIC "-//W3C//DTD SVG 20010904//EN"
 "http://www.w3.org/TR/2001/REC-SVG-20010904/DTD/svg10.dtd">
<svg version="1.0" xmlns="http://www.w3.org/2000/svg"
 width="40.000000pt" height="40.000000pt" viewBox="0 0 40.000000 40.000000"
 preserveAspectRatio="xMidYMid meet">
<metadata>
Created by potrace 1.16, written by Peter Selinger 2001-2019
</metadata>
<g transform="translate(0.000000,40.000000) scale(0.100000,-0.100000)"
fill="#000000" stroke="none">
<path d="M300 390 l0 -10 -46 0 -45 0 6 -19 6 -20 -29 -15 -29 -15 -18 13 -18
13 6 16 6 17 -19 10 -19 10 -40 0 -40 0 -11 -20 -11 -21 3 -41 3 -42 35 -1 35
0 3 -27 3 -28 -14 0 -14 0 -20 -55 -21 -55 22 -5 21 -5 35 -2 35 -3 -2 -23 -3
-23 10 -20 11 -19 28 0 29 0 12 15 12 15 -4 41 -4 41 31 -5 30 -4 17 -7 17 -8
3 59 3 58 33 1 33 1 10 10 11 11 -4 23 -3 23 -40 0 -40 1 0 63 0 62 -7 0 -8 0
0 -10z"/>
</g>
</svg>
