<?xml version="1.0" standalone="no"?>
<!DOCTYPE svg PUBLIC "-//W3C//DTD SVG 20010904//EN"
 "http://www.w3.org/TR/2001/REC-SVG-20010904/DTD/svg10.dtd">
<svg version="1.0" xmlns="http://www.w3.org/2000/svg"
 width="42.000000pt" height="42.000000pt" viewBox="0 0 42.000000 42.000000"
 preserveAspectRatio="xMidYMid meet">
<metadata>
Created by potrace 1.16, written by Peter Selinger 2001-2019
</metadata>
<g transform="translate(0.000000,42.000000) scale(0.100000,-0.100000)"
fill="#000000" stroke="none">
<path d="M300 410 l0 -10 -45 0 -45 0 0 -24 0 -25 -20 -6 -20 -6 -9 6 -10 6 6
16 6 16 -18 13 -19 14 -53 0 -52 0 -11 -20 -11 -21 3 -52 3 -52 35 0 35 0 3
-17 3 -18 -14 0 -14 0 -23 -61 -22 -62 13 -8 14 -9 43 0 42 0 0 -26 0 -25 10
-20 11 -19 37 0 38 0 12 12 12 12 0 44 0 44 23 -7 22 -7 22 -5 22 -5 3 58 3
59 23 -2 23 -3 20 11 20 10 -3 37 -3 37 -40 0 -40 0 1 63 1 62 -19 0 -18 0 0
-10z"/>
</g>
</svg>
