<?xml version="1.0" standalone="no"?>
<!DOCTYPE svg PUBLIC "-//W3C//DTD SVG 20010904//EN"
 "http://www.w3.org/TR/2001/REC-SVG-20010904/DTD/svg10.dtd">
<svg version="1.0" xmlns="http://www.w3.org/2000/svg"
 width="33.000000pt" height="32.000000pt" viewBox="0 0 33.000000 32.000000"
 preserveAspectRatio="xMidYMid meet">
<metadata>
Created by potrace 1.16, written by Peter Selinger 2001-2019
</metadata>
<g transform="translate(0.000000,32.000000) scale(0.100000,-0.100000)"
fill="#000000" stroke="none">
<path d="M218 286 l4 -34 -20 -11 -21 -11 -15 6 -16 6 0 34 0 34 -59 0 -60 0
-6 -44 -7 -45 7 -11 7 -12 25 7 25 6 14 -12 14 -11 0 -23 0 -23 -14 -11 -14
-12 -35 6 -35 7 -6 -20 -6 -19 6 -19 6 -19 9 -25 9 -25 53 4 52 3 13 11 13 10
-6 29 -7 28 31 0 31 0 1 -12 1 -13 -2 -32 -2 -33 56 0 56 0 0 10 0 9 -11 51
-11 50 -24 0 -24 0 0 28 0 27 9 13 8 14 29 -4 29 -3 3 56 3 56 -23 7 -23 6
-35 0 -36 0 4 -34z"/>
</g>
</svg>
