<?xml version="1.0" standalone="no"?>
<!DOCTYPE svg PUBLIC "-//W3C//DTD SVG 20010904//EN"
 "http://www.w3.org/TR/2001/REC-SVG-20010904/DTD/svg10.dtd">
<svg version="1.0" xmlns="http://www.w3.org/2000/svg"
 width="36.000000pt" height="42.000000pt" viewBox="0 0 36.000000 42.000000"
 preserveAspectRatio="xMidYMid meet">
<metadata>
Created by potrace 1.16, written by Peter Selinger 2001-2019
</metadata>
<g transform="translate(0.000000,42.000000) scale(0.100000,-0.100000)"
fill="#000000" stroke="none">
<path d="M20 362 l0 -60 14 -11 13 -11 30 6 30 6 6 -15 6 -16 -14 -11 -13 -11
-44 -2 -43 -2 2 -48 3 -48 10 -20 11 -19 39 0 40 0 0 -28 0 -28 16 -22 15 -22
39 0 39 0 16 30 15 29 0 31 0 31 22 -6 23 -7 10 -9 9 -9 11 0 11 0 12 45 12
45 0 21 0 21 -30 -4 -31 -5 -25 24 -25 23 11 20 11 20 32 -3 32 -2 3 64 3 64
-32 -7 -31 -6 -34 0 -34 0 0 -39 0 -40 -10 -6 -10 -6 -20 6 -19 6 -3 42 -3 42
-62 3 -63 3 0 -59z"/>
</g>
</svg>
