<?xml version="1.0" standalone="no"?>
<!DOCTYPE svg PUBLIC "-//W3C//DTD SVG 20010904//EN"
 "http://www.w3.org/TR/2001/REC-SVG-20010904/DTD/svg10.dtd">
<svg version="1.0" xmlns="http://www.w3.org/2000/svg"
 width="34.000000pt" height="40.000000pt" viewBox="0 0 34.000000 40.000000"
 preserveAspectRatio="xMidYMid meet">
<metadata>
Created by potrace 1.16, written by Peter Selinger 2001-2019
</metadata>
<g transform="translate(0.000000,40.000000) scale(0.100000,-0.100000)"
fill="#000000" stroke="none">
<path d="M20 351 l0 -50 12 -7 13 -8 31 3 32 2 7 -21 7 -22 -15 -15 -14 -15
-44 -2 -44 -3 3 -38 3 -39 10 -18 10 -18 43 0 43 0 -5 -25 -4 -25 16 -25 16
-25 30 0 29 0 17 31 16 32 -6 28 -6 29 23 0 22 0 26 -14 26 -13 11 44 12 43 0
11 0 11 -25 -6 -25 -6 -25 16 -24 16 -6 19 -6 18 11 21 11 21 32 -3 32 -3 3
54 3 54 -16 -7 -17 -6 -38 0 -39 0 -3 -42 -3 -43 -25 -3 -25 -2 -15 9 -14 10
-1 38 0 38 -52 3 -53 3 0 -50z"/>
</g>
</svg>
