<?xml version="1.0" standalone="no"?>
<!DOCTYPE svg PUBLIC "-//W3C//DTD SVG 20010904//EN"
 "http://www.w3.org/TR/2001/REC-SVG-20010904/DTD/svg10.dtd">
<svg version="1.0" xmlns="http://www.w3.org/2000/svg"
 width="31.000000pt" height="39.000000pt" viewBox="0 0 31.000000 39.000000"
 preserveAspectRatio="xMidYMid meet">
<metadata>
Created by potrace 1.16, written by Peter Selinger 2001-2019
</metadata>
<g transform="translate(0.000000,39.000000) scale(0.100000,-0.100000)"
fill="#000000" stroke="none">
<path d="M0 335 l0 -55 29 0 29 0 12 -15 12 -14 -7 -19 -6 -20 -18 -5 -18 -4
-6 -31 -6 -30 -6 -25 -7 -26 43 -3 43 -3 1 -34 0 -34 28 -8 29 -8 14 6 15 6
-3 31 -3 31 63 3 62 3 0 7 0 7 -9 35 -9 35 -6 27 -6 27 -32 3 -33 3 -3 18 -4
18 13 15 13 16 43 -7 43 -6 0 38 0 39 -13 18 -13 17 -49 -3 -50 -3 3 -23 2
-23 -14 -15 -15 -14 -15 0 -15 0 -11 19 -10 20 0 20 0 21 -55 0 -55 0 0 -55z"/>
</g>
</svg>
