<?xml version="1.0" standalone="no"?>
<!DOCTYPE svg PUBLIC "-//W3C//DTD SVG 20010904//EN"
 "http://www.w3.org/TR/2001/REC-SVG-20010904/DTD/svg10.dtd">
<svg version="1.0" xmlns="http://www.w3.org/2000/svg"
 width="40.000000pt" height="46.000000pt" viewBox="0 0 40.000000 46.000000"
 preserveAspectRatio="xMidYMid meet">
<metadata>
Created by potrace 1.16, written by Peter Selinger 2001-2019
</metadata>
<g transform="translate(0.000000,46.000000) scale(0.100000,-0.100000)"
fill="#000000" stroke="none">
<path d="M215 428 l0 -33 -62 -3 -63 -3 0 -52 0 -52 -42 0 -43 0 0 -45 0 -45
43 -3 42 -3 1 -12 1 -12 -2 -40 -1 -40 45 3 44 4 19 -10 18 -11 0 -33 0 -33
35 0 35 0 0 40 0 40 56 0 56 0 2 58 2 57 -35 0 -34 0 -16 6 -16 6 0 38 0 39
43 -2 42 -2 0 55 0 55 -40 10 -40 10 -13 9 -13 8 5 14 5 14 -37 0 -37 0 0 -32z"/>
</g>
</svg>
