<?xml version="1.0" standalone="no"?>
<!DOCTYPE svg PUBLIC "-//W3C//DTD SVG 20010904//EN"
 "http://www.w3.org/TR/2001/REC-SVG-20010904/DTD/svg10.dtd">
<svg version="1.0" xmlns="http://www.w3.org/2000/svg"
 width="41.000000pt" height="39.000000pt" viewBox="0 0 41.000000 39.000000"
 preserveAspectRatio="xMidYMid meet">
<metadata>
Created by potrace 1.16, written by Peter Selinger 2001-2019
</metadata>
<g transform="translate(0.000000,39.000000) scale(0.100000,-0.100000)"
fill="#000000" stroke="none">
<path d="M205 380 l-6 -9 7 -25 6 -24 -22 -7 -21 -7 -39 7 -40 7 0 -44 0 -43
-10 -15 -9 -15 -33 0 -33 0 -3 -23 -4 -23 12 -14 12 -15 32 3 31 2 5 -60 5
-60 34 -3 34 -3 24 6 25 6 -6 25 -7 26 17 25 16 25 16 -16 16 -15 0 -42 1 -42
13 -5 13 -4 43 6 43 7 17 51 16 50 0 9 0 9 -51 -2 -50 -1 -10 10 -10 10 3 34
3 34 30 1 31 0 12 8 12 7 0 40 0 39 -56 0 -56 0 6 24 6 25 -16 15 -15 16 -19
0 -19 0 -6 -10z"/>
</g>
</svg>
