<?xml version="1.0" standalone="no"?>
<!DOCTYPE svg PUBLIC "-//W3C//DTD SVG 20010904//EN"
 "http://www.w3.org/TR/2001/REC-SVG-20010904/DTD/svg10.dtd">
<svg version="1.0" xmlns="http://www.w3.org/2000/svg"
 width="43.000000pt" height="41.000000pt" viewBox="0 0 43.000000 41.000000"
 preserveAspectRatio="xMidYMid meet">
<metadata>
Created by potrace 1.16, written by Peter Selinger 2001-2019
</metadata>
<g transform="translate(0.000000,41.000000) scale(0.100000,-0.100000)"
fill="#000000" stroke="none">
<path d="M204 395 l-6 -15 5 -20 5 -19 -14 -5 -14 -6 -45 7 -45 6 0 -44 0 -44
-9 -14 -10 -15 -33 0 -33 -1 -3 -33 -3 -33 12 -15 12 -15 31 3 31 3 5 -60 5
-60 44 -3 44 -3 24 6 24 6 -3 34 -2 35 12 12 11 11 7 -17 7 -18 1 -37 1 -36
24 -3 24 -4 42 7 42 6 17 51 16 50 0 19 0 18 -57 3 -58 3 0 30 0 30 29 -2 30
-2 13 11 13 10 0 49 0 49 -54 0 -53 0 4 23 5 24 -17 16 -16 17 -30 0 -30 0 -5
-15z"/>
</g>
</svg>
