<?xml version="1.0" standalone="no"?>
<!DOCTYPE svg PUBLIC "-//W3C//DTD SVG 20010904//EN"
 "http://www.w3.org/TR/2001/REC-SVG-20010904/DTD/svg10.dtd">
<svg version="1.0" xmlns="http://www.w3.org/2000/svg"
 width="32.000000pt" height="38.000000pt" viewBox="0 0 32.000000 38.000000"
 preserveAspectRatio="xMidYMid meet">
<metadata>
Created by potrace 1.16, written by Peter Selinger 2001-2019
</metadata>
<g transform="translate(0.000000,38.000000) scale(0.100000,-0.100000)"
fill="#000000" stroke="none">
<path d="M114 365 l-6 -15 5 -20 5 -19 -19 -6 -20 -7 -39 7 -40 7 0 -39 0 -38
9 -13 8 -13 28 7 27 7 9 -14 9 -14 0 -28 0 -28 -15 -16 -16 -15 -30 4 -30 5 3
-51 3 -51 50 0 50 0 3 33 3 33 32 -3 32 -3 -3 -18 -3 -17 23 -9 23 -9 41 -9
41 -9 11 54 12 55 -5 8 -5 8 -34 -6 -34 -5 -20 20 -21 21 6 21 6 22 27 -5 27
-6 12 12 11 11 0 48 0 47 -37 10 -38 9 -20 4 -20 3 -3 23 -3 22 -25 0 -25 0
-5 -15z"/>
</g>
</svg>
