<?xml version="1.0" standalone="no"?>
<!DOCTYPE svg PUBLIC "-//W3C//DTD SVG 20010904//EN"
 "http://www.w3.org/TR/2001/REC-SVG-20010904/DTD/svg10.dtd">
<svg version="1.0" xmlns="http://www.w3.org/2000/svg"
 width="34.000000pt" height="40.000000pt" viewBox="0 0 34.000000 40.000000"
 preserveAspectRatio="xMidYMid meet">
<metadata>
Created by potrace 1.16, written by Peter Selinger 2001-2019
</metadata>
<g transform="translate(0.000000,40.000000) scale(0.100000,-0.100000)"
fill="#000000" stroke="none">
<path d="M115 388 l-4 -13 -3 -25 -3 -25 -52 3 -53 3 0 -48 0 -48 9 -14 9 -14
30 6 30 6 6 -15 6 -16 0 -15 0 -14 -15 -15 -15 -16 -31 7 -30 7 3 -64 3 -63
60 0 60 0 3 33 3 32 20 0 19 0 0 -19 0 -20 12 -7 11 -7 36 -7 36 -7 26 -7 25
-7 13 65 13 65 -7 11 -7 12 -30 -6 -30 -6 -19 10 -19 11 0 20 0 19 25 -6 25
-6 15 12 15 12 0 59 0 58 -37 10 -38 9 -20 4 -20 3 -3 23 -3 22 -35 0 -35 0
-4 -12z"/>
</g>
</svg>
