<?xml version="1.0" standalone="no"?>
<!DOCTYPE svg PUBLIC "-//W3C//DTD SVG 20010904//EN"
 "http://www.w3.org/TR/2001/REC-SVG-20010904/DTD/svg10.dtd">
<svg version="1.0" xmlns="http://www.w3.org/2000/svg"
 width="34.000000pt" height="41.000000pt" viewBox="0 0 34.000000 41.000000"
 preserveAspectRatio="xMidYMid meet">
<metadata>
Created by potrace 1.16, written by Peter Selinger 2001-2019
</metadata>
<g transform="translate(0.000000,41.000000) scale(0.100000,-0.100000)"
fill="#000000" stroke="none">
<path d="M145 400 l-6 -9 7 -24 6 -25 -13 -7 -12 -8 -56 -6 -56 -6 0 -55 0
-55 45 -5 45 -5 0 -15 0 -15 -40 -5 -40 -5 -6 -50 -7 -50 -7 -27 -7 -28 82 0
83 0 -6 29 -6 29 15 13 14 12 3 -4 2 -4 11 -19 10 -19 47 -14 48 -14 15 16 15
15 -13 47 -14 48 -24 4 -25 3 -7 12 -8 11 0 8 0 7 34 0 34 0 16 6 16 6 0 53 0
53 -6 16 -6 16 -23 0 -23 0 -31 6 -31 7 0 27 0 28 -16 6 -16 6 -18 0 -19 0 -6
-10z"/>
</g>
</svg>
