<?xml version="1.0" standalone="no"?>
<!DOCTYPE svg PUBLIC "-//W3C//DTD SVG 20010904//EN"
 "http://www.w3.org/TR/2001/REC-SVG-20010904/DTD/svg10.dtd">
<svg version="1.0" xmlns="http://www.w3.org/2000/svg"
 width="40.000000pt" height="42.000000pt" viewBox="0 0 40.000000 42.000000"
 preserveAspectRatio="xMidYMid meet">
<metadata>
Created by potrace 1.16, written by Peter Selinger 2001-2019
</metadata>
<g transform="translate(0.000000,42.000000) scale(0.100000,-0.100000)"
fill="#000000" stroke="none">
<path d="M86 376 l6 -44 -10 -18 -10 -18 -33 0 -34 -1 0 -30 0 -30 22 -3 23
-3 6 -27 5 -27 13 -35 12 -35 57 -3 57 -3 0 -37 0 -38 12 -12 12 -12 22 0 23
0 15 16 16 15 0 35 0 34 51 0 51 0 -6 23 -6 22 0 39 0 39 -30 -6 -30 -6 -14
27 -13 27 4 13 5 12 28 0 29 0 15 22 16 22 0 38 0 38 -32 -1 -33 -1 -30 -7
-30 -6 0 -23 0 -24 -18 -10 -18 -10 -15 6 -16 6 7 31 7 31 -13 9 -14 9 -57 0
-58 0 6 -44z"/>
</g>
</svg>
