<?xml version="1.0" standalone="no"?>
<!DOCTYPE svg PUBLIC "-//W3C//DTD SVG 20010904//EN"
 "http://www.w3.org/TR/2001/REC-SVG-20010904/DTD/svg10.dtd">
<svg version="1.0" xmlns="http://www.w3.org/2000/svg"
 width="38.000000pt" height="40.000000pt" viewBox="0 0 38.000000 40.000000"
 preserveAspectRatio="xMidYMid meet">
<metadata>
Created by potrace 1.16, written by Peter Selinger 2001-2019
</metadata>
<g transform="translate(0.000000,40.000000) scale(0.100000,-0.100000)"
fill="#000000" stroke="none">
<path d="M88 356 l4 -44 -11 -21 -12 -21 -32 3 -32 2 0 -20 0 -20 18 3 17 3 9
-23 8 -23 14 -45 14 -45 58 -3 57 -3 0 -38 0 -39 15 -12 14 -12 20 7 21 6 6
25 6 24 -5 20 -5 20 51 0 52 0 -3 50 -4 49 -28 -6 -28 -5 -17 32 -17 33 11 24
11 23 24 -6 24 -6 16 23 16 23 0 28 0 28 -22 -1 -23 -1 -30 -7 -30 -6 0 -25 0
-24 -26 -10 -27 -9 -17 7 -18 6 6 34 5 34 -15 6 -15 6 -41 0 -42 0 3 -44z"/>
</g>
</svg>
