<?xml version="1.0" standalone="no"?>
<!DOCTYPE svg PUBLIC "-//W3C//DTD SVG 20010904//EN"
 "http://www.w3.org/TR/2001/REC-SVG-20010904/DTD/svg10.dtd">
<svg version="1.0" xmlns="http://www.w3.org/2000/svg"
 width="40.000000pt" height="33.000000pt" viewBox="0 0 40.000000 33.000000"
 preserveAspectRatio="xMidYMid meet">
<metadata>
Created by potrace 1.16, written by Peter Selinger 2001-2019
</metadata>
<g transform="translate(0.000000,33.000000) scale(0.100000,-0.100000)"
fill="#000000" stroke="none">
<path d="M2 268 l3 -63 38 -3 38 -3 5 -14 6 -14 -10 -18 -10 -18 -23 0 -23 0
-14 -55 -13 -54 18 -14 18 -13 45 3 45 3 0 35 1 35 7 13 8 12 18 0 19 0 5 -30
6 -29 42 -11 41 -11 15 5 15 6 -8 32 -7 33 -1 15 -1 15 27 -3 28 -3 30 16 30
16 0 22 0 22 -10 15 -9 15 -33 0 -33 0 -3 52 -3 52 -47 -5 -47 -6 -14 -4 -13
-4 4 -25 5 -24 -18 -17 -18 -16 -16 6 -16 6 6 34 7 34 -20 11 -21 11 -51 0
-51 0 3 -62z"/>
</g>
</svg>
