<?xml version="1.0" standalone="no"?>
<!DOCTYPE svg PUBLIC "-//W3C//DTD SVG 20010904//EN"
 "http://www.w3.org/TR/2001/REC-SVG-20010904/DTD/svg10.dtd">
<svg version="1.0" xmlns="http://www.w3.org/2000/svg"
 width="38.000000pt" height="31.000000pt" viewBox="0 0 38.000000 31.000000"
 preserveAspectRatio="xMidYMid meet">
<metadata>
Created by potrace 1.16, written by Peter Selinger 2001-2019
</metadata>
<g transform="translate(0.000000,31.000000) scale(0.100000,-0.100000)"
fill="#000000" stroke="none">
<path d="M2 258 l3 -53 34 0 34 0 10 -17 11 -17 -10 -28 -10 -28 -24 0 -24 0
-12 -48 -12 -47 19 -11 20 -10 32 3 32 3 -3 27 -3 28 11 21 11 20 32 -3 32 -3
1 -15 2 -15 1 -12 1 -12 37 -10 36 -10 8 4 7 5 -10 36 -9 36 5 15 6 15 27 -5
28 -5 27 14 28 15 0 12 0 12 -9 14 -9 14 -34 1 -33 1 -3 50 -3 51 -47 -6 -47
-5 3 -26 2 -26 -19 -17 -19 -18 -24 4 -23 3 0 38 0 38 -15 9 -15 10 -43 0 -43
0 3 -52z"/>
</g>
</svg>
