<?xml version="1.0" standalone="no"?>
<!DOCTYPE svg PUBLIC "-//W3C//DTD SVG 20010904//EN"
 "http://www.w3.org/TR/2001/REC-SVG-20010904/DTD/svg10.dtd">
<svg version="1.0" xmlns="http://www.w3.org/2000/svg"
 width="43.000000pt" height="44.000000pt" viewBox="0 0 43.000000 44.000000"
 preserveAspectRatio="xMidYMid meet">
<metadata>
Created by potrace 1.16, written by Peter Selinger 2001-2019
</metadata>
<g transform="translate(0.000000,44.000000) scale(0.100000,-0.100000)"
fill="#000000" stroke="none">
<path d="M113 425 l-5 -16 5 -29 6 -29 -10 -7 -10 -6 -50 0 -49 1 0 -170 0
-171 32 7 33 6 33 10 32 11 0 29 0 29 19 0 20 0 3 -28 3 -27 63 -8 63 -9 15 6
15 6 -7 45 -6 45 33 0 34 0 23 18 24 18 -4 35 -3 34 -47 3 -48 3 0 55 0 54
-13 0 -14 0 -31 -16 -32 -15 -22 3 -23 3 3 42 3 42 -11 20 -11 21 -30 0 -30 0
-6 -15z"/>
</g>
</svg>
