<?xml version="1.0" standalone="no"?>
<!DOCTYPE svg PUBLIC "-//W3C//DTD SVG 20010904//EN"
 "http://www.w3.org/TR/2001/REC-SVG-20010904/DTD/svg10.dtd">
<svg version="1.0" xmlns="http://www.w3.org/2000/svg"
 width="35.000000pt" height="41.000000pt" viewBox="0 0 35.000000 41.000000"
 preserveAspectRatio="xMidYMid meet">
<metadata>
Created by potrace 1.16, written by Peter Selinger 2001-2019
</metadata>
<g transform="translate(0.000000,41.000000) scale(0.100000,-0.100000)"
fill="#000000" stroke="none">
<path d="M146 387 l-17 -25 6 -25 7 -25 -21 -7 -21 -6 -38 1 -37 2 -12 -1 -13
-1 0 -32 0 -33 13 -25 13 -25 34 0 35 0 0 -25 0 -25 -42 -3 -41 -3 -4 -59 -3
-60 13 -5 14 -5 31 0 32 0 22 6 22 6 3 32 3 31 25 0 25 0 -3 -24 -2 -25 12 -8
13 -8 57 0 56 0 12 50 12 49 -6 10 -6 10 -40 -1 -40 0 -16 12 -15 13 3 26 3
25 40 0 40 1 3 47 3 48 -63 -3 -63 -2 -1 43 0 43 -16 15 -16 16 -16 -25z"/>
</g>
</svg>
