<?xml version="1.0" standalone="no"?>
<!DOCTYPE svg PUBLIC "-//W3C//DTD SVG 20010904//EN"
 "http://www.w3.org/TR/2001/REC-SVG-20010904/DTD/svg10.dtd">
<svg version="1.0" xmlns="http://www.w3.org/2000/svg"
 width="37.000000pt" height="43.000000pt" viewBox="0 0 37.000000 43.000000"
 preserveAspectRatio="xMidYMid meet">
<metadata>
Created by potrace 1.16, written by Peter Selinger 2001-2019
</metadata>
<g transform="translate(0.000000,43.000000) scale(0.100000,-0.100000)"
fill="#000000" stroke="none">
<path d="M144 405 l-16 -25 4 -25 5 -25 -24 -6 -24 -6 -29 6 -30 5 -15 -5 -15
-6 0 -42 0 -41 13 -25 13 -25 34 0 35 0 0 -15 0 -15 -41 -3 -42 -3 -4 -67 -5
-67 11 -7 11 -8 45 0 45 0 22 6 22 6 3 31 3 30 13 5 12 4 0 -30 0 -30 16 -6
16 -6 63 0 64 0 12 54 12 54 -6 16 -6 16 -44 0 -43 0 -12 12 -12 12 0 12 0 13
43 3 42 3 3 58 3 59 -61 -4 -62 -3 -2 42 -2 41 -13 16 -13 16 -14 0 -14 0 -16
-25z"/>
</g>
</svg>
