<?xml version="1.0" standalone="no"?>
<!DOCTYPE svg PUBLIC "-//W3C//DTD SVG 20010904//EN"
 "http://www.w3.org/TR/2001/REC-SVG-20010904/DTD/svg10.dtd">
<svg version="1.0" xmlns="http://www.w3.org/2000/svg"
 width="40.000000pt" height="31.000000pt" viewBox="0 0 40.000000 31.000000"
 preserveAspectRatio="xMidYMid meet">
<metadata>
Created by potrace 1.16, written by Peter Selinger 2001-2019
</metadata>
<g transform="translate(0.000000,31.000000) scale(0.100000,-0.100000)"
fill="#000000" stroke="none">
<path d="M107 254 l6 -56 -45 7 -44 7 -13 -16 -13 -15 4 -18 3 -18 33 -3 32
-3 6 -27 6 -27 9 -37 10 -38 24 -6 25 -6 37 9 38 9 0 29 1 30 19 0 20 0 3 -23
4 -23 24 -10 25 -9 30 0 29 0 -1 23 -1 22 -7 25 -7 25 -19 0 -20 0 0 45 0 45
38 0 37 0 0 58 0 57 -42 0 -43 0 -13 -8 -13 -9 7 -16 6 -17 -16 -25 -16 -25
-25 0 -24 0 -14 21 -15 20 6 21 5 20 -14 9 -14 9 -37 0 -37 0 6 -56z"/>
</g>
</svg>
