<?xml version="1.0" standalone="no"?>
<!DOCTYPE svg PUBLIC "-//W3C//DTD SVG 20010904//EN"
 "http://www.w3.org/TR/2001/REC-SVG-20010904/DTD/svg10.dtd">
<svg version="1.0" xmlns="http://www.w3.org/2000/svg"
 width="40.000000pt" height="41.000000pt" viewBox="0 0 40.000000 41.000000"
 preserveAspectRatio="xMidYMid meet">
<metadata>
Created by potrace 1.16, written by Peter Selinger 2001-2019
</metadata>
<g transform="translate(0.000000,41.000000) scale(0.100000,-0.100000)"
fill="#000000" stroke="none">
<path d="M80 366 l0 -44 -6 -16 -6 -16 -34 0 -34 0 0 -27 0 -28 8 -11 7 -12
20 -3 20 -4 9 -63 9 -62 31 5 31 6 28 -10 27 -11 0 -29 0 -29 16 -6 16 -6 22
0 23 0 16 18 17 19 0 32 0 33 44 -6 43 -7 6 47 5 48 -5 12 -5 13 -41 3 -42 3
0 35 0 35 43 -2 42 -2 0 64 0 64 -52 -5 -53 -6 -13 -4 -12 -3 2 -33 3 -33 -35
0 -35 0 0 40 0 40 -57 3 -58 3 0 -45z"/>
</g>
</svg>
