<?xml version="1.0" standalone="no"?>
<!DOCTYPE svg PUBLIC "-//W3C//DTD SVG 20010904//EN"
 "http://www.w3.org/TR/2001/REC-SVG-20010904/DTD/svg10.dtd">
<svg version="1.0" xmlns="http://www.w3.org/2000/svg"
 width="38.000000pt" height="39.000000pt" viewBox="0 0 38.000000 39.000000"
 preserveAspectRatio="xMidYMid meet">
<metadata>
Created by potrace 1.16, written by Peter Selinger 2001-2019
</metadata>
<g transform="translate(0.000000,39.000000) scale(0.100000,-0.100000)"
fill="#000000" stroke="none">
<path d="M80 346 l0 -44 -6 -16 -6 -16 -34 0 -34 0 0 -14 0 -14 6 -16 6 -15
12 5 13 5 10 -13 10 -13 7 -40 8 -40 0 -15 0 -16 31 4 32 4 28 -11 27 -11 0
-30 0 -30 25 -6 26 -6 19 17 19 17 3 37 3 36 17 -1 17 -2 25 -6 24 -6 4 41 4
40 -6 9 -5 9 -40 3 -40 3 0 45 0 45 43 0 42 0 0 50 0 51 -52 -6 -52 -5 -1 -35
0 -35 -45 0 -45 0 -1 40 0 40 -47 3 -47 3 0 -45z"/>
</g>
</svg>
