<?xml version="1.0" standalone="no"?>
<!DOCTYPE svg PUBLIC "-//W3C//DTD SVG 20010904//EN"
 "http://www.w3.org/TR/2001/REC-SVG-20010904/DTD/svg10.dtd">
<svg version="1.0" xmlns="http://www.w3.org/2000/svg"
 width="43.000000pt" height="41.000000pt" viewBox="0 0 43.000000 41.000000"
 preserveAspectRatio="xMidYMid meet">
<metadata>
Created by potrace 1.16, written by Peter Selinger 2001-2019
</metadata>
<g transform="translate(0.000000,41.000000) scale(0.100000,-0.100000)"
fill="#000000" stroke="none">
<path d="M20 346 l0 -64 15 -12 14 -12 20 7 19 6 7 -11 6 -10 -6 -20 -6 -20
-45 0 -44 0 0 -24 0 -23 6 -47 7 -48 21 6 21 6 28 6 27 7 0 -35 0 -34 12 -12
12 -12 36 0 36 0 12 12 12 12 0 38 0 38 19 0 18 0 33 -11 32 -12 9 14 9 14 0
42 0 42 38 3 37 3 0 50 0 50 -37 3 -37 3 -6 28 -6 28 7 27 6 26 -166 0 -166 0
0 -64z"/>
</g>
</svg>
