<?xml version="1.0" standalone="no"?>
<!DOCTYPE svg PUBLIC "-//W3C//DTD SVG 20010904//EN"
 "http://www.w3.org/TR/2001/REC-SVG-20010904/DTD/svg10.dtd">
<svg version="1.0" xmlns="http://www.w3.org/2000/svg"
 width="41.000000pt" height="39.000000pt" viewBox="0 0 41.000000 39.000000"
 preserveAspectRatio="xMidYMid meet">
<metadata>
Created by potrace 1.16, written by Peter Selinger 2001-2019
</metadata>
<g transform="translate(0.000000,39.000000) scale(0.100000,-0.100000)"
fill="#000000" stroke="none">
<path d="M20 336 l0 -54 13 -10 13 -11 14 9 14 9 13 -11 13 -10 0 -18 0 -18
-6 -16 -6 -16 -45 0 -45 0 6 -37 7 -38 0 -22 1 -22 25 10 24 9 28 0 28 0 -5
-30 -4 -30 12 -15 12 -15 27 0 27 0 12 12 12 12 0 37 0 38 9 5 9 6 46 -14 46
-14 5 21 5 22 2 35 3 34 35 1 35 0 0 40 0 40 -34 0 -34 0 -9 25 -9 25 3 33 4
32 -153 0 -153 0 0 -54z"/>
</g>
</svg>
