<?xml version="1.0" standalone="no"?>
<!DOCTYPE svg PUBLIC "-//W3C//DTD SVG 20010904//EN"
 "http://www.w3.org/TR/2001/REC-SVG-20010904/DTD/svg10.dtd">
<svg version="1.0" xmlns="http://www.w3.org/2000/svg"
 width="41.000000pt" height="42.000000pt" viewBox="0 0 41.000000 42.000000"
 preserveAspectRatio="xMidYMid meet">
<metadata>
Created by potrace 1.16, written by Peter Selinger 2001-2019
</metadata>
<g transform="translate(0.000000,42.000000) scale(0.100000,-0.100000)"
fill="#000000" stroke="none">
<path d="M183 370 l2 -51 -15 -9 -15 -10 -15 3 -15 3 3 41 3 40 -22 6 -23 6
-43 -6 -43 -6 0 -58 0 -59 23 -5 23 -6 10 2 9 1 13 -1 12 -1 0 -19 0 -19 -6
-16 -6 -15 -28 5 -28 6 -5 -18 -5 -19 -7 -49 -7 -49 46 5 46 6 0 -24 0 -23 16
-15 15 -16 34 0 33 0 6 16 6 16 0 25 0 26 50 -7 50 -7 6 16 6 15 7 53 6 52 22
-3 22 -3 21 11 21 11 -3 32 -3 32 -45 5 -45 5 -3 51 -3 51 -38 12 -38 11 -26
0 -25 0 1 -50z"/>
</g>
</svg>
