<?xml version="1.0" standalone="no"?>
<!DOCTYPE svg PUBLIC "-//W3C//DTD SVG 20010904//EN"
 "http://www.w3.org/TR/2001/REC-SVG-20010904/DTD/svg10.dtd">
<svg version="1.0" xmlns="http://www.w3.org/2000/svg"
 width="42.000000pt" height="48.000000pt" viewBox="0 0 42.000000 48.000000"
 preserveAspectRatio="xMidYMid meet">
<metadata>
Created by potrace 1.16, written by Peter Selinger 2001-2019
</metadata>
<g transform="translate(0.000000,48.000000) scale(0.100000,-0.100000)"
fill="#000000" stroke="none">
<path d="M132 462 l3 -19 -14 -16 -13 -17 -43 0 -43 0 -11 -14 -12 -15 3 -43
3 -43 35 -5 35 -5 3 -17 3 -18 -25 0 -26 0 -4 -22 -5 -23 -5 -31 -5 -32 -6
-25 -7 -26 64 -3 63 -3 5 -40 5 -40 36 -3 36 -3 13 30 12 31 -5 21 -6 21 37
-5 37 -5 22 -7 22 -7 3 58 3 59 35 5 35 5 0 45 0 45 -37 3 -38 3 0 48 0 49
-13 11 -14 11 -53 12 -53 12 -5 18 -4 18 -35 0 -34 0 3 -18z"/>
</g>
</svg>
