<?xml version="1.0" standalone="no"?>
<!DOCTYPE svg PUBLIC "-//W3C//DTD SVG 20010904//EN"
 "http://www.w3.org/TR/2001/REC-SVG-20010904/DTD/svg10.dtd">
<svg version="1.0" xmlns="http://www.w3.org/2000/svg"
 width="40.000000pt" height="38.000000pt" viewBox="0 0 40.000000 38.000000"
 preserveAspectRatio="xMidYMid meet">
<metadata>
Created by potrace 1.16, written by Peter Selinger 2001-2019
</metadata>
<g transform="translate(0.000000,38.000000) scale(0.100000,-0.100000)"
fill="#000000" stroke="none">
<path d="M125 348 l0 -33 -63 -3 -63 -3 3 -52 3 -52 22 2 23 3 25 -10 26 -10
-3 -32 -3 -33 -25 0 -24 0 -13 -45 -13 -44 -10 -10 -10 -10 0 -6 0 -5 63 0 62
0 -3 34 -4 34 13 8 13 8 18 -10 18 -10 -3 -32 -2 -32 47 -3 48 -3 17 10 18 10
0 58 0 58 33 -3 33 -4 15 12 14 12 0 23 0 23 -13 10 -13 11 -30 -2 -29 -2 -3
30 -2 30 -5 21 -5 21 -56 18 -56 17 -5 14 -5 14 -27 0 -26 0 0 -32z"/>
</g>
</svg>
