<?xml version="1.0" standalone="no"?>
<!DOCTYPE svg PUBLIC "-//W3C//DTD SVG 20010904//EN"
 "http://www.w3.org/TR/2001/REC-SVG-20010904/DTD/svg10.dtd">
<svg version="1.0" xmlns="http://www.w3.org/2000/svg"
 width="39.000000pt" height="34.000000pt" viewBox="0 0 39.000000 34.000000"
 preserveAspectRatio="xMidYMid meet">
<metadata>
Created by potrace 1.16, written by Peter Selinger 2001-2019
</metadata>
<g transform="translate(0.000000,34.000000) scale(0.100000,-0.100000)"
fill="#000000" stroke="none">
<path d="M194 333 l-12 -4 5 -39 5 -38 -21 -12 -22 -11 -15 12 -14 11 0 36 0
35 -50 -6 -50 -6 -10 -6 -10 -6 0 -45 0 -44 45 0 45 0 6 -27 7 -26 -10 -16
-10 -16 -31 -3 -31 -3 -6 -37 -6 -37 -4 -20 -4 -20 62 5 62 5 1 35 1 35 2 13
1 12 24 0 25 0 7 -12 8 -12 0 -25 1 -24 53 -12 53 -12 -7 53 -6 54 30 -6 30
-6 22 22 21 21 -3 22 -3 22 -35 5 -35 5 -5 55 -5 55 -12 2 -12 3 -38 8 -38 9
-11 -4z"/>
</g>
</svg>
