<?xml version="1.0" standalone="no"?>
<!DOCTYPE svg PUBLIC "-//W3C//DTD SVG 20010904//EN"
 "http://www.w3.org/TR/2001/REC-SVG-20010904/DTD/svg10.dtd">
<svg version="1.0" xmlns="http://www.w3.org/2000/svg"
 width="41.000000pt" height="43.000000pt" viewBox="0 0 41.000000 43.000000"
 preserveAspectRatio="xMidYMid meet">
<metadata>
Created by potrace 1.16, written by Peter Selinger 2001-2019
</metadata>
<g transform="translate(0.000000,43.000000) scale(0.100000,-0.100000)"
fill="#000000" stroke="none">
<path d="M190 391 l0 -42 -10 -20 -11 -19 -19 0 -20 0 0 45 0 45 -60 0 -61 0
3 -57 3 -58 34 -1 34 0 11 -16 10 -16 -14 -16 -13 -17 -36 3 -36 3 -3 -29 -4
-30 7 -43 6 -43 29 0 28 0 16 -6 16 -6 0 -22 0 -22 12 -12 12 -12 38 0 38 0
10 24 9 24 49 12 50 11 12 47 12 47 7 25 8 25 24 0 24 0 3 27 3 27 -22 11 -21
12 -24 -5 -24 -4 0 58 0 58 -20 11 -19 10 -46 6 -45 7 0 -42z"/>
</g>
</svg>
