<?xml version="1.0" standalone="no"?>
<!DOCTYPE svg PUBLIC "-//W3C//DTD SVG 20010904//EN"
 "http://www.w3.org/TR/2001/REC-SVG-20010904/DTD/svg10.dtd">
<svg version="1.0" xmlns="http://www.w3.org/2000/svg"
 width="39.000000pt" height="41.000000pt" viewBox="0 0 39.000000 41.000000"
 preserveAspectRatio="xMidYMid meet">
<metadata>
Created by potrace 1.16, written by Peter Selinger 2001-2019
</metadata>
<g transform="translate(0.000000,41.000000) scale(0.100000,-0.100000)"
fill="#000000" stroke="none">
<path d="M190 370 l0 -41 -10 -20 -11 -19 -29 0 -30 0 0 45 0 45 -51 0 -50 0
3 -47 3 -48 29 2 30 2 13 -11 13 -10 0 -23 0 -23 -14 -12 -15 -12 -33 4 -33 3
-3 -19 -4 -18 7 -44 6 -44 34 0 34 0 16 -16 16 -17 -5 -13 -5 -13 14 -11 14
-11 28 3 28 3 -1 18 -2 18 58 16 58 16 12 46 12 46 7 25 8 25 24 0 24 0 3 17
3 17 -20 11 -21 10 -25 -6 -25 -6 0 61 0 60 -18 10 -17 9 -38 7 -37 7 0 -42z"/>
</g>
</svg>
