<?xml version="1.0" standalone="no"?>
<!DOCTYPE svg PUBLIC "-//W3C//DTD SVG 20010904//EN"
 "http://www.w3.org/TR/2001/REC-SVG-20010904/DTD/svg10.dtd">
<svg version="1.0" xmlns="http://www.w3.org/2000/svg"
 width="40.000000pt" height="34.000000pt" viewBox="0 0 40.000000 34.000000"
 preserveAspectRatio="xMidYMid meet">
<metadata>
Created by potrace 1.16, written by Peter Selinger 2001-2019
</metadata>
<g transform="translate(0.000000,34.000000) scale(0.100000,-0.100000)"
fill="#000000" stroke="none">
<path d="M278 334 l-8 -7 0 -32 0 -33 -15 -12 -15 -12 -15 6 -15 5 0 36 0 35
-60 0 -60 0 0 -55 0 -55 -39 0 -40 0 -6 -20 -6 -20 6 -20 6 -20 51 0 51 0 -6
-32 -6 -33 -7 -32 -6 -33 72 0 72 0 -2 33 -2 32 1 13 1 12 15 0 15 0 0 -25 0
-24 56 -17 55 -16 15 6 14 5 0 67 0 66 -25 -4 -25 -5 -17 12 -17 13 12 14 12
15 30 -5 30 -4 0 65 0 66 -8 5 -8 5 -50 6 -49 7 -7 -8z"/>
</g>
</svg>
