<?xml version="1.0" standalone="no"?>
<!DOCTYPE svg PUBLIC "-//W3C//DTD SVG 20010904//EN"
 "http://www.w3.org/TR/2001/REC-SVG-20010904/DTD/svg10.dtd">
<svg version="1.0" xmlns="http://www.w3.org/2000/svg"
 width="41.000000pt" height="41.000000pt" viewBox="0 0 41.000000 41.000000"
 preserveAspectRatio="xMidYMid meet">
<metadata>
Created by potrace 1.16, written by Peter Selinger 2001-2019
</metadata>
<g transform="translate(0.000000,41.000000) scale(0.100000,-0.100000)"
fill="#000000" stroke="none">
<path d="M185 400 l-6 -10 3 -33 3 -32 -57 -3 -58 -3 0 -40 0 -40 -10 -20 -11
-19 -25 0 -25 0 3 -37 3 -38 39 -3 38 -3 -6 -60 -7 -59 51 0 51 0 20 10 19 11
0 34 0 35 10 0 10 0 4 -22 5 -23 3 -20 3 -20 65 -3 65 -2 15 9 15 10 0 63 0
63 -35 0 -35 1 -13 7 -12 8 0 13 0 13 38 -1 37 -1 0 65 0 65 -60 0 -60 0 3 23
3 23 -15 25 -16 24 -25 0 -24 0 -6 -10z"/>
</g>
</svg>
