<?xml version="1.0" standalone="no"?>
<!DOCTYPE svg PUBLIC "-//W3C//DTD SVG 20010904//EN"
 "http://www.w3.org/TR/2001/REC-SVG-20010904/DTD/svg10.dtd">
<svg version="1.0" xmlns="http://www.w3.org/2000/svg"
 width="39.000000pt" height="39.000000pt" viewBox="0 0 39.000000 39.000000"
 preserveAspectRatio="xMidYMid meet">
<metadata>
Created by potrace 1.16, written by Peter Selinger 2001-2019
</metadata>
<g transform="translate(0.000000,39.000000) scale(0.100000,-0.100000)"
fill="#000000" stroke="none">
<path d="M185 378 l-5 -13 3 -30 2 -30 -57 -3 -58 -3 0 -40 0 -40 -10 -20 -11
-19 -25 0 -25 0 3 -27 3 -28 35 0 35 0 -1 -62 -1 -63 39 0 39 0 20 11 20 10
-3 32 -3 32 22 3 21 3 8 -23 8 -23 0 -20 1 -20 55 -3 55 -2 15 9 14 10 1 53 0
53 -27 -3 -28 -3 -20 11 -20 11 0 25 0 25 38 -3 37 -3 0 55 0 55 -60 0 -60 0
0 31 -1 32 -13 16 -13 16 -15 0 -14 0 -4 -12z"/>
</g>
</svg>
