<?xml version="1.0" standalone="no"?>
<!DOCTYPE svg PUBLIC "-//W3C//DTD SVG 20010904//EN"
 "http://www.w3.org/TR/2001/REC-SVG-20010904/DTD/svg10.dtd">
<svg version="1.0" xmlns="http://www.w3.org/2000/svg"
 width="43.000000pt" height="49.000000pt" viewBox="0 0 43.000000 49.000000"
 preserveAspectRatio="xMidYMid meet">
<metadata>
Created by potrace 1.16, written by Peter Selinger 2001-2019
</metadata>
<g transform="translate(0.000000,49.000000) scale(0.100000,-0.100000)"
fill="#000000" stroke="none">
<path d="M127 479 l-18 -11 3 -26 3 -27 -52 -3 -53 -3 0 -60 0 -59 35 0 36 0
6 -16 6 -15 -12 -25 -11 -24 -25 6 -25 6 -4 -13 -4 -14 -6 -56 -6 -56 63 1 62
1 -3 -34 -4 -34 14 -8 13 -9 30 0 31 0 12 12 12 12 0 43 0 44 51 -7 52 -7 -5
52 -5 51 31 0 31 0 23 18 24 18 -4 35 -3 34 -30 1 -31 0 -11 7 -12 7 -7 45 -6
45 -17 0 -17 0 -10 -9 -9 -10 -30 -3 -30 -3 -3 40 -3 40 -11 12 -10 13 -22 0
-21 -1 -18 -10z"/>
</g>
</svg>
