<?xml version="1.0" standalone="no"?>
<!DOCTYPE svg PUBLIC "-//W3C//DTD SVG 20010904//EN"
 "http://www.w3.org/TR/2001/REC-SVG-20010904/DTD/svg10.dtd">
<svg version="1.0" xmlns="http://www.w3.org/2000/svg"
 width="50.000000pt" height="43.000000pt" viewBox="0 0 50.000000 43.000000"
 preserveAspectRatio="xMidYMid meet">
<metadata>
Created by potrace 1.16, written by Peter Selinger 2001-2019
</metadata>
<g transform="translate(0.000000,43.000000) scale(0.100000,-0.100000)"
fill="#000000" stroke="none">
<path d="M195 420 l-6 -10 6 -30 7 -30 -61 0 -60 0 -3 -57 -3 -58 -37 3 -38 4
0 -36 0 -35 19 -11 20 -10 32 0 32 0 -6 -37 -6 -38 -6 -21 -7 -21 66 -8 65 -7
11 7 10 6 -2 27 -2 28 8 13 9 13 7 -12 8 -13 -5 -38 -6 -39 18 -7 18 -6 55 11
54 11 14 18 14 18 11 42 11 42 27 3 26 3 3 43 3 42 -26 10 -26 10 -25 0 -24 0
0 49 0 49 -16 6 -16 6 -32 0 -32 0 -16 13 -16 12 -4 20 -3 20 -32 3 -31 3 -7
-11z"/>
</g>
</svg>
