<?xml version="1.0" standalone="no"?>
<!DOCTYPE svg PUBLIC "-//W3C//DTD SVG 20010904//EN"
 "http://www.w3.org/TR/2001/REC-SVG-20010904/DTD/svg10.dtd">
<svg version="1.0" xmlns="http://www.w3.org/2000/svg"
 width="43.000000pt" height="42.000000pt" viewBox="0 0 43.000000 42.000000"
 preserveAspectRatio="xMidYMid meet">
<metadata>
Created by potrace 1.16, written by Peter Selinger 2001-2019
</metadata>
<g transform="translate(0.000000,42.000000) scale(0.100000,-0.100000)"
fill="#000000" stroke="none">
<path d="M14 396 l6 -21 0 -47 0 -48 34 0 34 0 16 -6 16 -6 0 -9 0 -9 -20 -20
-20 -20 -42 6 -41 7 6 -54 7 -54 0 -17 0 -16 60 5 60 6 0 -35 0 -34 12 -12 12
-12 22 0 22 0 16 6 16 6 0 28 0 27 31 7 31 6 23 0 23 0 11 33 10 32 3 25 3 24
25 6 25 6 9 27 10 27 -10 28 -9 27 -38 9 -37 10 0 37 0 37 -16 6 -16 6 -55 0
-55 0 4 -25 5 -25 -12 -16 -12 -17 -21 12 -22 12 0 29 0 30 -66 -1 -66 -1 6
-22z"/>
</g>
</svg>
