<?xml version="1.0" standalone="no"?>
<!DOCTYPE svg PUBLIC "-//W3C//DTD SVG 20010904//EN"
 "http://www.w3.org/TR/2001/REC-SVG-20010904/DTD/svg10.dtd">
<svg version="1.0" xmlns="http://www.w3.org/2000/svg"
 width="37.000000pt" height="48.000000pt" viewBox="0 0 37.000000 48.000000"
 preserveAspectRatio="xMidYMid meet">
<metadata>
Created by potrace 1.16, written by Peter Selinger 2001-2019
</metadata>
<g transform="translate(0.000000,48.000000) scale(0.100000,-0.100000)"
fill="#000000" stroke="none">
<path d="M145 468 l-4 -13 -3 -25 -3 -25 -60 0 -60 0 -3 -62 -3 -62 25 -7 25
-6 9 6 10 6 12 -15 12 -14 -7 -11 -6 -10 -34 0 -35 0 -4 -22 -5 -23 -5 -47 -6
-48 60 0 60 0 0 -28 0 -29 18 -16 19 -17 30 0 30 0 18 20 17 19 -6 27 -7 27
54 -6 54 -5 12 38 11 37 0 43 0 42 -42 -2 -43 -3 -12 2 -13 1 0 15 0 15 13 1
12 1 33 -2 32 -2 0 66 0 65 -28 15 -28 14 -38 7 -37 7 -12 19 -12 19 -23 0
-23 0 -4 -12z"/>
</g>
</svg>
