<?xml version="1.0" standalone="no"?>
<!DOCTYPE svg PUBLIC "-//W3C//DTD SVG 20010904//EN"
 "http://www.w3.org/TR/2001/REC-SVG-20010904/DTD/svg10.dtd">
<svg version="1.0" xmlns="http://www.w3.org/2000/svg"
 width="51.000000pt" height="47.000000pt" viewBox="0 0 51.000000 47.000000"
 preserveAspectRatio="xMidYMid meet">
<metadata>
Created by potrace 1.16, written by Peter Selinger 2001-2019
</metadata>
<g transform="translate(0.000000,47.000000) scale(0.100000,-0.100000)"
fill="#000000" stroke="none">
<path d="M220 436 l0 -35 -57 -3 -58 -3 -3 -52 -3 -53 -30 0 -30 0 -20 -10
-19 -11 0 -24 0 -24 17 -16 16 -17 44 4 44 3 -5 -25 -6 -25 -7 -37 -6 -38 47
6 46 7 0 -26 0 -26 22 -15 22 -16 31 0 30 1 18 13 17 13 0 33 0 33 41 -7 41
-6 -7 64 -7 65 35 -6 34 -5 22 12 22 11 -3 32 -3 32 -25 3 -25 3 -22 4 -22 5
6 55 6 55 -39 0 -39 0 -11 8 -12 7 -3 20 -4 20 -48 3 -47 3 0 -35z"/>
</g>
</svg>
