<?xml version="1.0" standalone="no"?>
<!DOCTYPE svg PUBLIC "-//W3C//DTD SVG 20010904//EN"
 "http://www.w3.org/TR/2001/REC-SVG-20010904/DTD/svg10.dtd">
<svg version="1.0" xmlns="http://www.w3.org/2000/svg"
 width="40.000000pt" height="36.000000pt" viewBox="0 0 40.000000 36.000000"
 preserveAspectRatio="xMidYMid meet">
<metadata>
Created by potrace 1.16, written by Peter Selinger 2001-2019
</metadata>
<g transform="translate(0.000000,36.000000) scale(0.100000,-0.100000)"
fill="#000000" stroke="none">
<path d="M204 329 l6 -31 -10 -19 -11 -19 -29 0 -30 0 0 30 0 30 -26 10 -25
10 -40 0 -40 0 3 -72 3 -73 38 2 37 2 0 -17 0 -17 -21 -10 -22 -10 -19 -53
-20 -54 10 -10 11 -11 71 -5 72 -5 -7 41 -6 40 10 6 10 7 9 -18 10 -18 -5 -33
-5 -32 45 0 45 0 31 6 31 7 1 46 1 46 7 25 7 25 27 -3 27 -3 0 35 0 35 -20 11
-21 11 -19 -6 -20 -6 0 56 0 55 -26 10 -25 10 -36 0 -35 0 6 -31z"/>
</g>
</svg>
