<?xml version="1.0" standalone="no"?>
<!DOCTYPE svg PUBLIC "-//W3C//DTD SVG 20010904//EN"
 "http://www.w3.org/TR/2001/REC-SVG-20010904/DTD/svg10.dtd">
<svg version="1.0" xmlns="http://www.w3.org/2000/svg"
 width="42.000000pt" height="42.000000pt" viewBox="0 0 42.000000 42.000000"
 preserveAspectRatio="xMidYMid meet">
<metadata>
Created by potrace 1.16, written by Peter Selinger 2001-2019
</metadata>
<g transform="translate(0.000000,42.000000) scale(0.100000,-0.100000)"
fill="#000000" stroke="none">
<path d="M220 405 l-13 -15 -6 -33 -7 -32 -49 0 -50 0 -3 -47 -3 -47 -42 -3
-42 -3 -3 -40 -3 -39 17 -13 18 -13 23 0 23 0 0 -49 0 -49 29 -11 28 -12 49 3
49 3 1 35 1 35 1 13 2 13 17 -3 18 -3 0 -25 0 -25 52 -14 52 -14 15 6 16 6 0
62 0 62 -29 -6 -29 -6 -17 13 -18 13 7 28 7 28 46 -7 45 -6 -6 31 -6 32 0 28
0 28 -52 3 -53 3 -3 30 -4 30 -10 13 -10 12 -23 0 -23 0 -12 -15z"/>
</g>
</svg>
