<?xml version="1.0" standalone="no"?>
<!DOCTYPE svg PUBLIC "-//W3C//DTD SVG 20010904//EN"
 "http://www.w3.org/TR/2001/REC-SVG-20010904/DTD/svg10.dtd">
<svg version="1.0" xmlns="http://www.w3.org/2000/svg"
 width="40.000000pt" height="40.000000pt" viewBox="0 0 40.000000 40.000000"
 preserveAspectRatio="xMidYMid meet">
<metadata>
Created by potrace 1.16, written by Peter Selinger 2001-2019
</metadata>
<g transform="translate(0.000000,40.000000) scale(0.100000,-0.100000)"
fill="#000000" stroke="none">
<path d="M214 375 l-16 -25 5 -20 5 -20 -11 -2 -12 -2 -45 0 -45 -1 -5 -49 -5
-50 -40 0 -40 -1 -3 -32 -3 -32 21 -11 20 -11 18 3 17 3 3 -51 3 -52 28 -12
28 -11 39 3 39 3 -3 25 -3 25 6 23 6 23 27 -3 27 -3 0 -25 0 -24 45 -13 45
-13 13 5 12 4 0 51 0 50 -24 -6 -24 -6 -21 12 -21 11 0 27 0 27 9 14 9 13 41
-4 41 -4 -5 14 -5 14 0 33 0 34 -52 3 -53 3 -3 30 -4 30 -10 13 -10 12 -14 0
-14 0 -16 -25z"/>
</g>
</svg>
