<?xml version="1.0" standalone="no"?>
<!DOCTYPE svg PUBLIC "-//W3C//DTD SVG 20010904//EN"
 "http://www.w3.org/TR/2001/REC-SVG-20010904/DTD/svg10.dtd">
<svg version="1.0" xmlns="http://www.w3.org/2000/svg"
 width="47.000000pt" height="47.000000pt" viewBox="0 0 47.000000 47.000000"
 preserveAspectRatio="xMidYMid meet">
<metadata>
Created by potrace 1.16, written by Peter Selinger 2001-2019
</metadata>
<g transform="translate(0.000000,47.000000) scale(0.100000,-0.100000)"
fill="#000000" stroke="none">
<path d="M219 460 l-13 -9 -1 -33 0 -33 -60 0 -60 0 -5 -45 -5 -45 -25 0 -25
0 -12 -12 -13 -12 0 -21 0 -21 10 -20 11 -19 24 0 25 0 0 -32 0 -33 6 -21 5
-20 30 4 29 4 26 -6 26 -7 -6 -34 -7 -34 36 -7 35 -6 16 13 15 12 -3 26 -3 26
40 3 40 2 20 5 20 4 3 53 3 52 5 7 4 7 18 -5 18 -4 13 15 13 15 -4 23 -3 23
-38 0 -37 0 0 53 0 54 -32 -8 -33 -8 -30 0 -30 -1 2 25 2 25 -4 21 -5 22 -13
5 -14 5 -14 -8z"/>
</g>
</svg>
