<?xml version="1.0" standalone="no"?>
<!DOCTYPE svg PUBLIC "-//W3C//DTD SVG 20010904//EN"
 "http://www.w3.org/TR/2001/REC-SVG-20010904/DTD/svg10.dtd">
<svg version="1.0" xmlns="http://www.w3.org/2000/svg"
 width="49.000000pt" height="49.000000pt" viewBox="0 0 49.000000 49.000000"
 preserveAspectRatio="xMidYMid meet">
<metadata>
Created by potrace 1.16, written by Peter Selinger 2001-2019
</metadata>
<g transform="translate(0.000000,49.000000) scale(0.100000,-0.100000)"
fill="#000000" stroke="none">
<path d="M215 474 l-16 -17 3 -26 3 -26 -60 0 -60 0 -5 -45 -5 -45 -23 3 -23
2 -15 -14 -14 -15 0 -31 0 -31 10 -20 11 -19 24 0 25 0 0 -32 0 -33 6 -23 6
-22 33 6 33 6 20 -7 21 -6 -6 -33 -5 -33 23 -6 24 -7 25 0 26 0 12 12 12 12 0
28 0 28 44 0 44 0 16 6 16 6 0 54 0 54 24 0 24 0 11 14 12 15 -3 33 -3 33 -37
3 -38 3 0 51 0 51 -42 -8 -43 -8 -20 -1 -20 -1 3 36 3 36 -16 17 -16 16 -14 0
-14 0 -16 -16z"/>
</g>
</svg>
