<?xml version="1.0" standalone="no"?>
<!DOCTYPE svg PUBLIC "-//W3C//DTD SVG 20010904//EN"
 "http://www.w3.org/TR/2001/REC-SVG-20010904/DTD/svg10.dtd">
<svg version="1.0" xmlns="http://www.w3.org/2000/svg"
 width="34.000000pt" height="46.000000pt" viewBox="0 0 34.000000 46.000000"
 preserveAspectRatio="xMidYMid meet">
<metadata>
Created by potrace 1.16, written by Peter Selinger 2001-2019
</metadata>
<g transform="translate(0.000000,46.000000) scale(0.100000,-0.100000)"
fill="#000000" stroke="none">
<path d="M145 448 l-4 -13 2 -25 2 -25 -60 -5 -60 -5 -3 -41 -3 -42 17 -17 17
-17 24 5 23 4 0 -23 0 -23 -21 -11 -21 -12 -23 6 -24 6 -6 -11 -7 -11 7 -54 6
-54 68 0 68 0 -5 -25 -4 -25 12 -15 12 -15 27 0 26 0 14 9 13 9 -6 20 -7 20
38 6 38 7 16 5 15 4 -21 68 -22 67 -17 3 -16 3 0 19 0 19 12 7 12 8 26 0 25 1
3 47 3 48 -63 -3 -63 -2 3 33 3 33 -12 15 -11 14 -25 0 -24 0 -4 -12z"/>
</g>
</svg>
