<?xml version="1.0" standalone="no"?>
<!DOCTYPE svg PUBLIC "-//W3C//DTD SVG 20010904//EN"
 "http://www.w3.org/TR/2001/REC-SVG-20010904/DTD/svg10.dtd">
<svg version="1.0" xmlns="http://www.w3.org/2000/svg"
 width="36.000000pt" height="48.000000pt" viewBox="0 0 36.000000 48.000000"
 preserveAspectRatio="xMidYMid meet">
<metadata>
Created by potrace 1.16, written by Peter Selinger 2001-2019
</metadata>
<g transform="translate(0.000000,48.000000) scale(0.100000,-0.100000)"
fill="#000000" stroke="none">
<path d="M145 470 l-6 -10 3 -28 3 -27 -60 -5 -60 -5 -3 -51 -3 -52 16 -16 16
-16 25 0 24 0 0 -9 0 -10 -12 -8 -13 -7 -35 -1 -35 0 -3 -19 -4 -19 7 -53 6
-54 65 0 64 0 0 -28 0 -28 12 -12 12 -12 32 0 32 0 16 6 16 6 0 24 0 24 39 6
38 6 12 7 12 8 -24 74 -24 74 -17 3 -17 4 4 11 4 12 34 5 34 5 3 59 3 59 -60
-7 -61 -7 0 39 0 38 -12 12 -12 12 -32 0 -33 0 -6 -10z"/>
</g>
</svg>
