<?xml version="1.0" standalone="no"?>
<!DOCTYPE svg PUBLIC "-//W3C//DTD SVG 20010904//EN"
 "http://www.w3.org/TR/2001/REC-SVG-20010904/DTD/svg10.dtd">
<svg version="1.0" xmlns="http://www.w3.org/2000/svg"
 width="51.000000pt" height="48.000000pt" viewBox="0 0 51.000000 48.000000"
 preserveAspectRatio="xMidYMid meet">
<metadata>
Created by potrace 1.16, written by Peter Selinger 2001-2019
</metadata>
<g transform="translate(0.000000,48.000000) scale(0.100000,-0.100000)"
fill="#000000" stroke="none">
<path d="M222 468 l-12 -12 0 -28 0 -28 -12 -1 -13 -1 -45 -2 -45 -1 -5 -50
-5 -50 -37 -3 -37 -3 -6 -20 -7 -20 6 -25 6 -24 25 -6 24 -6 12 -59 11 -58 59
6 59 6 0 -31 0 -31 19 -11 20 -10 28 0 29 0 12 12 12 12 0 34 0 34 25 -6 25
-6 26 -6 26 -7 -7 62 -7 61 32 0 31 0 20 10 19 11 0 29 0 28 -6 16 -6 16 -39
0 -39 0 0 50 0 49 -37 6 -38 6 -22 5 -21 4 5 21 6 21 -14 9 -14 9 -25 0 -26 0
-12 -12z"/>
</g>
</svg>
