<?xml version="1.0" standalone="no"?>
<!DOCTYPE svg PUBLIC "-//W3C//DTD SVG 20010904//EN"
 "http://www.w3.org/TR/2001/REC-SVG-20010904/DTD/svg10.dtd">
<svg version="1.0" xmlns="http://www.w3.org/2000/svg"
 width="49.000000pt" height="43.000000pt" viewBox="0 0 49.000000 43.000000"
 preserveAspectRatio="xMidYMid meet">
<metadata>
Created by potrace 1.16, written by Peter Selinger 2001-2019
</metadata>
<g transform="translate(0.000000,43.000000) scale(0.100000,-0.100000)"
fill="#000000" stroke="none">
<path d="M292 389 l2 -40 -15 -10 -14 -9 -12 0 -12 0 -15 16 -16 15 0 30 0 29
-24 0 -23 0 -31 -6 -30 -6 5 -53 6 -53 -40 5 -39 5 -17 -17 -17 -16 0 -20 0
-19 21 -21 21 -21 23 5 24 4 5 -14 6 -15 0 -44 0 -44 50 0 50 0 0 -35 0 -34
19 -11 20 -10 35 0 35 0 11 19 10 20 0 25 0 26 40 0 40 0 0 49 0 49 13 10 12
10 25 4 25 3 3 38 3 37 -30 0 -30 0 -6 10 -6 11 -6 53 -6 54 -21 6 -21 6 -38
0 -38 0 3 -41z"/>
</g>
</svg>
