<?xml version="1.0" standalone="no"?>
<!DOCTYPE svg PUBLIC "-//W3C//DTD SVG 20010904//EN"
 "http://www.w3.org/TR/2001/REC-SVG-20010904/DTD/svg10.dtd">
<svg version="1.0" xmlns="http://www.w3.org/2000/svg"
 width="39.000000pt" height="31.000000pt" viewBox="0 0 39.000000 31.000000"
 preserveAspectRatio="xMidYMid meet">
<metadata>
Created by potrace 1.16, written by Peter Selinger 2001-2019
</metadata>
<g transform="translate(0.000000,31.000000) scale(0.100000,-0.100000)"
fill="#000000" stroke="none">
<path d="M133 303 l-43 -4 0 -49 0 -50 -24 -6 -23 -5 -19 3 -19 3 -3 -27 -3
-28 13 -1 13 -2 25 -1 25 -1 9 -68 8 -67 48 0 49 0 16 16 16 16 -6 29 -7 29
27 0 28 0 -6 -30 -6 -29 9 -6 10 -6 50 -8 50 -8 0 27 0 28 -6 31 -6 31 -30 0
-29 0 3 43 3 42 43 3 43 3 -7 37 -7 37 -1 2 -2 2 -53 -15 -52 -16 5 -14 5 -14
-34 0 -35 0 -6 25 -6 25 6 15 5 15 -17 -2 -17 -1 -42 -4z"/>
</g>
</svg>
