<?xml version="1.0" standalone="no"?>
<!DOCTYPE svg PUBLIC "-//W3C//DTD SVG 20010904//EN"
 "http://www.w3.org/TR/2001/REC-SVG-20010904/DTD/svg10.dtd">
<svg version="1.0" xmlns="http://www.w3.org/2000/svg"
 width="32.000000pt" height="34.000000pt" viewBox="0 0 32.000000 34.000000"
 preserveAspectRatio="xMidYMid meet">
<metadata>
Created by potrace 1.16, written by Peter Selinger 2001-2019
</metadata>
<g transform="translate(0.000000,34.000000) scale(0.100000,-0.100000)"
fill="#000000" stroke="none">
<path d="M48 333 l-48 -4 0 -42 0 -42 10 -15 9 -15 38 0 38 0 3 -26 3 -27 -28
-9 -28 -10 -18 -57 -17 -58 5 -9 6 -9 55 0 54 0 11 26 10 27 -6 18 -6 19 8 0
9 0 11 -11 11 -11 -5 -14 -5 -14 6 -25 6 -25 48 0 48 0 18 13 19 14 -9 58 -9
59 -25 6 -25 6 0 24 0 25 27 -3 27 -3 10 20 11 20 0 44 0 45 -16 6 -16 6 -50
0 -50 0 5 -29 6 -29 -13 -17 -12 -17 -20 4 -19 3 -5 40 -5 40 -15 1 -15 1 -47
-4z"/>
</g>
</svg>
