<?xml version="1.0" standalone="no"?>
<!DOCTYPE svg PUBLIC "-//W3C//DTD SVG 20010904//EN"
 "http://www.w3.org/TR/2001/REC-SVG-20010904/DTD/svg10.dtd">
<svg version="1.0" xmlns="http://www.w3.org/2000/svg"
 width="47.000000pt" height="33.000000pt" viewBox="0 0 47.000000 33.000000"
 preserveAspectRatio="xMidYMid meet">
<metadata>
Created by potrace 1.16, written by Peter Selinger 2001-2019
</metadata>
<g transform="translate(0.000000,33.000000) scale(0.100000,-0.100000)"
fill="#000000" stroke="none">
<path d="M102 323 l-33 -4 6 -54 7 -54 -38 -3 -39 -3 -3 -22 -3 -22 11 -20 11
-21 36 0 36 0 -7 -32 -7 -33 -6 -27 -5 -28 63 0 64 0 12 8 12 7 3 40 3 40 15
0 15 0 3 -37 3 -38 20 -11 20 -10 47 3 47 3 8 45 9 45 4 23 4 22 26 -6 25 -6
-3 43 -3 44 -35 5 -35 5 2 46 3 47 -43 6 -44 7 -17 -7 -18 -7 6 -32 7 -33 -16
-16 -16 -16 -13 0 -13 0 -16 18 -17 19 0 36 0 37 -32 -2 -33 -1 -33 -4z"/>
</g>
</svg>
