<?xml version="1.0" standalone="no"?>
<!DOCTYPE svg PUBLIC "-//W3C//DTD SVG 20010904//EN"
 "http://www.w3.org/TR/2001/REC-SVG-20010904/DTD/svg10.dtd">
<svg version="1.0" xmlns="http://www.w3.org/2000/svg"
 width="38.000000pt" height="40.000000pt" viewBox="0 0 38.000000 40.000000"
 preserveAspectRatio="xMidYMid meet">
<metadata>
Created by potrace 1.16, written by Peter Selinger 2001-2019
</metadata>
<g transform="translate(0.000000,40.000000) scale(0.100000,-0.100000)"
fill="#000000" stroke="none">
<path d="M27 393 l-27 -4 0 -58 0 -58 37 1 38 1 0 -35 0 -35 -30 0 -30 0 -7
-10 -8 -10 0 -47 0 -48 45 0 45 0 0 -34 0 -34 14 -11 15 -12 28 3 28 3 0 35 0
35 10 7 10 8 47 0 47 0 3 62 3 63 20 3 20 3 23 5 23 5 -3 22 -3 22 -42 -3 -43
-2 0 55 0 55 -27 -6 -28 -7 -25 -7 -25 -7 3 -23 4 -23 -14 -8 -13 -9 -21 0
-21 0 -16 18 -17 19 0 36 0 37 -17 -1 -18 -2 -28 -4z"/>
</g>
</svg>
