<?xml version="1.0" standalone="no"?>
<!DOCTYPE svg PUBLIC "-//W3C//DTD SVG 20010904//EN"
 "http://www.w3.org/TR/2001/REC-SVG-20010904/DTD/svg10.dtd">
<svg version="1.0" xmlns="http://www.w3.org/2000/svg"
 width="49.000000pt" height="42.000000pt" viewBox="0 0 49.000000 42.000000"
 preserveAspectRatio="xMidYMid meet">
<metadata>
Created by potrace 1.16, written by Peter Selinger 2001-2019
</metadata>
<g transform="translate(0.000000,42.000000) scale(0.100000,-0.100000)"
fill="#000000" stroke="none">
<path d="M108 413 l-28 -4 0 -61 0 -60 -26 6 -26 7 -14 -12 -14 -11 0 -22 0
-22 12 -12 12 -12 23 0 22 0 7 -60 6 -59 52 -3 51 -3 -3 -26 -3 -25 20 -18 21
-19 36 6 37 6 9 13 8 13 -4 17 -4 16 48 7 48 7 6 36 6 37 10 35 10 36 27 -1
28 0 3 28 3 28 -12 15 -13 15 -24 -6 -24 -6 -14 12 -14 11 0 39 0 39 -22 0
-23 0 -38 -11 -38 -10 3 -22 3 -22 -40 0 -40 0 2 43 2 42 -32 -1 -32 -2 -27
-4z"/>
</g>
</svg>
