<?xml version="1.0" standalone="no"?>
<!DOCTYPE svg PUBLIC "-//W3C//DTD SVG 20010904//EN"
 "http://www.w3.org/TR/2001/REC-SVG-20010904/DTD/svg10.dtd">
<svg version="1.0" xmlns="http://www.w3.org/2000/svg"
 width="47.000000pt" height="40.000000pt" viewBox="0 0 47.000000 40.000000"
 preserveAspectRatio="xMidYMid meet">
<metadata>
Created by potrace 1.16, written by Peter Selinger 2001-2019
</metadata>
<g transform="translate(0.000000,40.000000) scale(0.100000,-0.100000)"
fill="#000000" stroke="none">
<path d="M107 393 l-28 -4 1 -37 2 -37 -1 -23 -1 -24 -31 4 -32 3 -10 -17 -11
-16 13 -16 13 -16 24 0 23 0 7 -60 6 -59 52 -3 51 -3 0 -27 0 -27 16 -17 17
-16 31 7 31 7 1 11 1 12 -1 16 -2 17 51 7 51 7 -5 5 -4 5 8 26 9 27 11 43 11
44 25 -6 24 -6 7 16 6 17 -10 16 -10 16 -27 -3 -27 -4 -15 12 -14 12 0 39 0
39 -12 0 -13 0 -36 -10 -36 -10 1 -22 1 -23 -50 0 -50 0 0 43 0 42 -20 -1 -20
-2 -28 -4z"/>
</g>
</svg>
