<?xml version="1.0" standalone="no"?>
<!DOCTYPE svg PUBLIC "-//W3C//DTD SVG 20010904//EN"
 "http://www.w3.org/TR/2001/REC-SVG-20010904/DTD/svg10.dtd">
<svg version="1.0" xmlns="http://www.w3.org/2000/svg"
 width="50.000000pt" height="34.000000pt" viewBox="0 0 50.000000 34.000000"
 preserveAspectRatio="xMidYMid meet">
<metadata>
Created by potrace 1.16, written by Peter Selinger 2001-2019
</metadata>
<g transform="translate(0.000000,34.000000) scale(0.100000,-0.100000)"
fill="#000000" stroke="none">
<path d="M276 332 l-6 -11 6 -39 6 -40 -20 -11 -20 -11 -11 14 -11 14 2 33 3
34 -67 3 -68 3 0 -49 0 -50 -14 -11 -14 -12 -25 6 -25 7 -7 -21 -6 -21 6 -20
6 -20 24 0 23 0 7 -33 6 -32 10 -32 11 -33 54 0 55 0 20 10 19 11 1 37 2 37 4
-27 4 -27 32 -10 33 -11 39 -3 40 -2 5 60 5 60 33 -3 33 -4 15 12 14 12 0 25
0 25 -41 -3 -40 -3 -9 14 -10 15 0 47 0 47 -10 6 -10 6 -48 6 -49 5 -7 -10z"/>
</g>
</svg>
