<?xml version="1.0" standalone="no"?>
<!DOCTYPE svg PUBLIC "-//W3C//DTD SVG 20010904//EN"
 "http://www.w3.org/TR/2001/REC-SVG-20010904/DTD/svg10.dtd">
<svg version="1.0" xmlns="http://www.w3.org/2000/svg"
 width="40.000000pt" height="39.000000pt" viewBox="0 0 40.000000 39.000000"
 preserveAspectRatio="xMidYMid meet">
<metadata>
Created by potrace 1.16, written by Peter Selinger 2001-2019
</metadata>
<g transform="translate(0.000000,39.000000) scale(0.100000,-0.100000)"
fill="#000000" stroke="none">
<path d="M267 351 l5 -39 -21 -21 -22 -22 -22 3 -22 3 0 35 0 35 -8 13 -8 12
-45 0 -44 0 0 -46 0 -45 -11 -21 -11 -20 -29 6 -29 5 0 -23 0 -24 19 5 20 5
10 -39 11 -38 6 -35 6 -35 51 0 52 0 0 -20 1 -20 7 -13 8 -12 27 0 28 0 17 20
17 20 17 0 18 1 35 17 35 17 4 20 5 20 0 35 1 35 -36 -3 -36 -2 -17 19 -18 20
4 18 3 18 27 -3 26 -3 16 23 16 22 0 42 0 41 -37 7 -38 6 -22 0 -21 0 5 -39z"/>
</g>
</svg>
