<?xml version="1.0" standalone="no"?>
<!DOCTYPE svg PUBLIC "-//W3C//DTD SVG 20010904//EN"
 "http://www.w3.org/TR/2001/REC-SVG-20010904/DTD/svg10.dtd">
<svg version="1.0" xmlns="http://www.w3.org/2000/svg"
 width="42.000000pt" height="41.000000pt" viewBox="0 0 42.000000 41.000000"
 preserveAspectRatio="xMidYMid meet">
<metadata>
Created by potrace 1.16, written by Peter Selinger 2001-2019
</metadata>
<g transform="translate(0.000000,41.000000) scale(0.100000,-0.100000)"
fill="#000000" stroke="none">
<path d="M265 371 l7 -39 -22 -22 -21 -21 -12 4 -12 4 3 33 2 32 -11 14 -11
14 -54 0 -54 0 0 -46 0 -45 -10 -19 -10 -19 -30 6 -30 6 0 -38 0 -37 20 5 20
5 10 -36 10 -37 6 -36 6 -37 52 2 51 1 -3 -18 -3 -18 12 -15 11 -14 37 0 37 0
17 20 17 20 15 0 15 0 39 17 40 17 7 53 6 53 -6 16 -6 17 -34 -6 -34 -5 -16
17 -16 18 0 6 0 7 29 0 30 0 15 22 16 22 0 52 0 51 -37 7 -38 6 -33 0 -34 0 7
-39z"/>
</g>
</svg>
