<?xml version="1.0" standalone="no"?>
<!DOCTYPE svg PUBLIC "-//W3C//DTD SVG 20010904//EN"
 "http://www.w3.org/TR/2001/REC-SVG-20010904/DTD/svg10.dtd">
<svg version="1.0" xmlns="http://www.w3.org/2000/svg"
 width="41.000000pt" height="43.000000pt" viewBox="0 0 41.000000 43.000000"
 preserveAspectRatio="xMidYMid meet">
<metadata>
Created by potrace 1.16, written by Peter Selinger 2001-2019
</metadata>
<g transform="translate(0.000000,43.000000) scale(0.100000,-0.100000)"
fill="#000000" stroke="none">
<path d="M280 380 l0 -51 -15 -5 -15 -6 -26 6 -26 7 6 39 6 39 -10 6 -11 7
-49 -7 -50 -7 0 -37 0 -37 -14 -20 -14 -19 -29 0 -28 0 -3 -28 -3 -29 17 -19
18 -20 36 3 35 3 -1 -25 -2 -25 -3 -30 -4 -30 25 -3 25 -3 23 -5 23 -5 -6 -29
-7 -30 28 -10 27 -11 29 6 28 7 0 22 0 23 61 13 61 13 -6 76 -7 75 -5 8 -5 8
-35 0 -34 0 0 15 0 15 29 0 29 0 16 6 16 6 0 54 0 53 -22 15 -22 16 -43 0 -43
0 0 -50z"/>
</g>
</svg>
