<?xml version="1.0" standalone="no"?>
<!DOCTYPE svg PUBLIC "-//W3C//DTD SVG 20010904//EN"
 "http://www.w3.org/TR/2001/REC-SVG-20010904/DTD/svg10.dtd">
<svg version="1.0" xmlns="http://www.w3.org/2000/svg"
 width="40.000000pt" height="42.000000pt" viewBox="0 0 40.000000 42.000000"
 preserveAspectRatio="xMidYMid meet">
<metadata>
Created by potrace 1.16, written by Peter Selinger 2001-2019
</metadata>
<g transform="translate(0.000000,42.000000) scale(0.100000,-0.100000)"
fill="#000000" stroke="none">
<path d="M280 376 l0 -47 -15 -5 -15 -6 -15 12 -15 12 0 34 0 34 -19 0 -18 0
-47 -6 -47 -7 3 -51 3 -51 -47 -3 -48 -3 0 -39 0 -39 26 -3 27 -3 13 -45 14
-45 0 -23 0 -23 35 7 35 6 24 -6 25 -6 3 -33 3 -32 32 -3 32 -3 21 11 20 11 0
36 0 36 45 -6 45 -7 0 160 0 159 -10 6 -10 6 -50 6 -50 6 0 -47z"/>
</g>
</svg>
