<?xml version="1.0" standalone="no"?>
<!DOCTYPE svg PUBLIC "-//W3C//DTD SVG 20010904//EN"
 "http://www.w3.org/TR/2001/REC-SVG-20010904/DTD/svg10.dtd">
<svg version="1.0" xmlns="http://www.w3.org/2000/svg"
 width="38.000000pt" height="40.000000pt" viewBox="0 0 38.000000 40.000000"
 preserveAspectRatio="xMidYMid meet">
<metadata>
Created by potrace 1.16, written by Peter Selinger 2001-2019
</metadata>
<g transform="translate(0.000000,40.000000) scale(0.100000,-0.100000)"
fill="#000000" stroke="none">
<path d="M278 354 l-3 -49 -23 -3 -23 -4 -15 12 -14 12 0 36 0 35 -37 -7 -38
-6 -18 0 -19 0 7 -40 7 -39 -6 -19 -7 -19 -44 5 -45 5 0 -32 0 -32 19 6 18 5
10 -12 9 -13 18 -58 17 -57 42 0 42 0 15 -10 15 -9 0 -28 0 -28 22 -3 22 -3
21 11 22 12 -4 35 -4 35 48 -4 48 -3 0 147 0 147 -8 5 -9 5 -41 7 -41 6 -3
-48z"/>
</g>
</svg>
