<?xml version="1.0" standalone="no"?>
<!DOCTYPE svg PUBLIC "-//W3C//DTD SVG 20010904//EN"
 "http://www.w3.org/TR/2001/REC-SVG-20010904/DTD/svg10.dtd">
<svg version="1.0" xmlns="http://www.w3.org/2000/svg"
 width="40.000000pt" height="40.000000pt" viewBox="0 0 40.000000 40.000000"
 preserveAspectRatio="xMidYMid meet">
<metadata>
Created by potrace 1.16, written by Peter Selinger 2001-2019
</metadata>
<g transform="translate(0.000000,40.000000) scale(0.100000,-0.100000)"
fill="#000000" stroke="none">
<path d="M186 362 l6 -38 -16 -13 -16 -13 -22 5 -23 6 0 38 0 38 -57 3 -58 3
0 -56 0 -56 18 2 17 1 17 -1 17 -1 11 -20 11 -20 -11 -19 -10 -19 -19 5 -20 5
-6 -28 -6 -29 -9 -36 -10 -36 0 -7 0 -6 50 0 50 0 0 -24 0 -24 14 -11 15 -12
38 3 38 3 3 27 3 27 54 6 54 7 3 67 3 66 24 -3 24 -2 13 11 14 11 0 23 0 23
-14 11 -14 12 -29 -3 -28 -3 1 58 1 57 -68 0 -69 0 6 -38z"/>
</g>
</svg>
