<?xml version="1.0" standalone="no"?>
<!DOCTYPE svg PUBLIC "-//W3C//DTD SVG 20010904//EN"
 "http://www.w3.org/TR/2001/REC-SVG-20010904/DTD/svg10.dtd">
<svg version="1.0" xmlns="http://www.w3.org/2000/svg"
 width="38.000000pt" height="38.000000pt" viewBox="0 0 38.000000 38.000000"
 preserveAspectRatio="xMidYMid meet">
<metadata>
Created by potrace 1.16, written by Peter Selinger 2001-2019
</metadata>
<g transform="translate(0.000000,38.000000) scale(0.100000,-0.100000)"
fill="#000000" stroke="none">
<path d="M188 345 l4 -35 -12 -15 -12 -15 -27 0 -26 0 -12 8 -11 7 1 35 2 35
-47 3 -48 3 0 -45 0 -45 13 5 14 5 26 -10 26 -10 7 -25 6 -24 -12 -22 -12 -22
-19 5 -19 5 -5 -26 -6 -27 -8 -32 -9 -33 54 0 54 0 -5 -23 -6 -23 15 -13 15
-12 28 3 28 3 -2 27 -2 26 59 7 59 7 3 66 3 67 29 0 29 1 11 17 11 16 -13 13
-13 13 -32 0 -32 0 0 58 0 57 -55 0 -56 0 4 -35z"/>
</g>
</svg>
