<?xml version="1.0" standalone="no"?>
<!DOCTYPE svg PUBLIC "-//W3C//DTD SVG 20010904//EN"
 "http://www.w3.org/TR/2001/REC-SVG-20010904/DTD/svg10.dtd">
<svg version="1.0" xmlns="http://www.w3.org/2000/svg"
 width="31.000000pt" height="41.000000pt" viewBox="0 0 31.000000 41.000000"
 preserveAspectRatio="xMidYMid meet">
<metadata>
Created by potrace 1.16, written by Peter Selinger 2001-2019
</metadata>
<g transform="translate(0.000000,41.000000) scale(0.100000,-0.100000)"
fill="#000000" stroke="none">
<path d="M0 355 l0 -50 8 -11 7 -11 30 1 30 1 0 -30 0 -30 -19 0 -20 0 -6 -25
-7 -25 -7 -37 -7 -38 36 0 36 0 20 -11 20 -10 -3 -37 -3 -37 30 0 30 0 0 35 0
35 15 7 15 7 46 0 47 1 6 16 6 16 0 43 0 44 -12 8 -13 8 -30 0 -30 0 -3 28 -3
27 36 0 35 0 10 26 10 25 0 29 0 28 -37 -4 -38 -4 -23 -5 -24 -6 6 -16 6 -16
-11 -13 -11 -14 -32 0 -31 0 -14 9 -14 9 7 25 6 25 -13 10 -12 10 -37 4 -38 4
0 -51z"/>
</g>
</svg>
