<?xml version="1.0" standalone="no"?>
<!DOCTYPE svg PUBLIC "-//W3C//DTD SVG 20010904//EN"
 "http://www.w3.org/TR/2001/REC-SVG-20010904/DTD/svg10.dtd">
<svg version="1.0" xmlns="http://www.w3.org/2000/svg"
 width="52.000000pt" height="34.000000pt" viewBox="0 0 52.000000 34.000000"
 preserveAspectRatio="xMidYMid meet">
<metadata>
Created by potrace 1.16, written by Peter Selinger 2001-2019
</metadata>
<g transform="translate(0.000000,34.000000) scale(0.100000,-0.100000)"
fill="#000000" stroke="none">
<path d="M98 288 l-3 -53 -37 0 -37 0 -11 -11 -11 -11 3 -34 3 -34 30 0 30 -1
12 -39 11 -40 1 -26 1 -27 68 5 67 5 14 4 14 4 -6 35 -6 35 11 6 10 6 11 -11
11 -11 1 -43 0 -42 35 -3 35 -4 38 12 39 11 -5 17 -5 17 -10 33 -11 32 49 0
49 0 11 19 10 20 0 35 0 36 -45 0 -45 0 -2 23 -1 22 2 24 2 24 -13 8 -13 9
-52 0 -53 0 0 -35 0 -34 -18 -10 -19 -10 -20 5 -20 6 5 24 4 24 -12 15 -12 15
-54 0 -53 0 -3 -52z"/>
</g>
</svg>
