<?xml version="1.0" standalone="no"?>
<!DOCTYPE svg PUBLIC "-//W3C//DTD SVG 20010904//EN"
 "http://www.w3.org/TR/2001/REC-SVG-20010904/DTD/svg10.dtd">
<svg version="1.0" xmlns="http://www.w3.org/2000/svg"
 width="50.000000pt" height="32.000000pt" viewBox="0 0 50.000000 32.000000"
 preserveAspectRatio="xMidYMid meet">
<metadata>
Created by potrace 1.16, written by Peter Selinger 2001-2019
</metadata>
<g transform="translate(0.000000,32.000000) scale(0.100000,-0.100000)"
fill="#000000" stroke="none">
<path d="M98 268 l-3 -53 -38 -1 -37 0 -11 -11 -11 -11 4 -23 3 -24 29 0 30 0
16 -55 17 -55 -4 -10 -3 -10 67 5 68 5 0 40 0 40 22 3 22 3 10 -20 11 -20 -2
-33 -3 -33 25 -3 24 -4 37 11 37 11 -15 41 -14 42 4 10 3 11 46 -3 47 -2 10
20 11 20 0 27 0 27 -33 -6 -34 -5 -12 8 -13 7 -1 44 -2 44 -10 7 -10 8 -42 0
-43 0 0 -35 0 -34 -21 -11 -20 -11 -30 6 -31 7 7 25 6 25 -12 14 -11 14 -44 0
-43 0 -3 -52z"/>
</g>
</svg>
