<?xml version="1.0" standalone="no"?>
<!DOCTYPE svg PUBLIC "-//W3C//DTD SVG 20010904//EN"
 "http://www.w3.org/TR/2001/REC-SVG-20010904/DTD/svg10.dtd">
<svg version="1.0" xmlns="http://www.w3.org/2000/svg"
 width="43.000000pt" height="33.000000pt" viewBox="0 0 43.000000 33.000000"
 preserveAspectRatio="xMidYMid meet">
<metadata>
Created by potrace 1.16, written by Peter Selinger 2001-2019
</metadata>
<g transform="translate(0.000000,33.000000) scale(0.100000,-0.100000)"
fill="#000000" stroke="none">
<path d="M30 265 l0 -65 44 0 45 0 6 -10 7 -11 -12 -14 -12 -15 -56 0 -55 0 8
-43 7 -42 5 -32 5 -31 71 1 72 2 3 32 3 32 15 12 14 12 11 -31 10 -31 51 -10
50 -11 9 6 9 5 0 39 0 38 6 15 5 15 19 -5 18 -5 21 11 21 12 0 27 0 28 -12 12
-12 12 -33 0 -33 0 0 55 0 55 -66 0 -66 0 6 -34 6 -33 -15 -13 -15 -12 -15 6
-15 5 6 30 6 29 -20 11 -21 11 -50 0 -51 0 0 -65z"/>
</g>
</svg>
