<?xml version="1.0" standalone="no"?>
<!DOCTYPE svg PUBLIC "-//W3C//DTD SVG 20010904//EN"
 "http://www.w3.org/TR/2001/REC-SVG-20010904/DTD/svg10.dtd">
<svg version="1.0" xmlns="http://www.w3.org/2000/svg"
 width="31.000000pt" height="40.000000pt" viewBox="0 0 31.000000 40.000000"
 preserveAspectRatio="xMidYMid meet">
<metadata>
Created by potrace 1.16, written by Peter Selinger 2001-2019
</metadata>
<g transform="translate(0.000000,40.000000) scale(0.100000,-0.100000)"
fill="#000000" stroke="none">
<path d="M196 376 l6 -24 -12 -22 -11 -21 -32 3 -32 3 -3 38 -3 37 -55 0 -54
0 0 -47 0 -48 10 -15 9 -15 33 0 33 0 0 -20 0 -20 -30 -5 -29 -5 -12 -58 -12
-59 12 -3 11 -3 44 -5 44 -5 8 -14 8 -13 -5 -21 -6 -22 22 -7 22 -7 15 15 15
14 1 44 2 44 30 -4 30 -3 15 -8 15 -7 11 4 12 4 -17 57 -17 57 -30 0 -29 0 -3
24 -4 23 11 11 11 11 37 0 38 1 3 51 3 51 -38 7 -38 6 -23 0 -22 0 6 -24z"/>
</g>
</svg>
