<?xml version="1.0" standalone="no"?>
<!DOCTYPE svg PUBLIC "-//W3C//DTD SVG 20010904//EN"
 "http://www.w3.org/TR/2001/REC-SVG-20010904/DTD/svg10.dtd">
<svg version="1.0" xmlns="http://www.w3.org/2000/svg"
 width="33.000000pt" height="42.000000pt" viewBox="0 0 33.000000 42.000000"
 preserveAspectRatio="xMidYMid meet">
<metadata>
Created by potrace 1.16, written by Peter Selinger 2001-2019
</metadata>
<g transform="translate(0.000000,42.000000) scale(0.100000,-0.100000)"
fill="#000000" stroke="none">
<path d="M193 391 l6 -29 -13 -17 -12 -17 -20 3 -19 4 -3 38 -3 37 -65 0 -64
0 0 -56 0 -55 11 -20 10 -20 27 2 27 3 4 -9 5 -10 -29 -5 -29 -5 -13 -60 -12
-60 4 -12 4 -13 33 0 33 0 23 -6 22 -6 0 -33 0 -33 16 -6 16 -6 18 0 18 0 12
15 12 14 1 41 2 41 25 -4 25 -5 20 -6 20 -6 13 8 14 9 -19 64 -19 64 -33 3
-32 3 3 17 3 17 45 5 45 5 3 61 3 61 -38 7 -38 6 -34 0 -33 0 5 -29z"/>
</g>
</svg>
