<?xml version="1.0" standalone="no"?>
<!DOCTYPE svg PUBLIC "-//W3C//DTD SVG 20010904//EN"
 "http://www.w3.org/TR/2001/REC-SVG-20010904/DTD/svg10.dtd">
<svg version="1.0" xmlns="http://www.w3.org/2000/svg"
 width="40.000000pt" height="41.000000pt" viewBox="0 0 40.000000 41.000000"
 preserveAspectRatio="xMidYMid meet">
<metadata>
Created by potrace 1.16, written by Peter Selinger 2001-2019
</metadata>
<g transform="translate(0.000000,41.000000) scale(0.100000,-0.100000)"
fill="#000000" stroke="none">
<path d="M133 403 l-43 -4 0 -60 0 -59 -24 6 -25 6 -20 -7 -21 -6 0 -34 0 -34
21 -6 21 -7 35 7 36 6 -6 -38 -7 -38 -6 -27 -6 -28 40 0 40 0 16 -6 16 -6 0
-34 0 -34 29 0 30 0 15 16 16 15 0 30 0 29 57 -6 56 -7 -6 33 -7 32 0 29 0 28
-27 3 -28 3 -9 27 -10 28 7 6 6 6 33 7 33 7 3 53 3 53 -57 -7 -57 -7 -14 -5
-14 -6 3 -21 2 -21 -7 -12 -8 -13 -9 0 -9 0 -16 30 -15 30 6 25 6 25 -18 -2
-19 -1 -42 -4z"/>
</g>
</svg>
