<?xml version="1.0" standalone="no"?>
<!DOCTYPE svg PUBLIC "-//W3C//DTD SVG 20010904//EN"
 "http://www.w3.org/TR/2001/REC-SVG-20010904/DTD/svg10.dtd">
<svg version="1.0" xmlns="http://www.w3.org/2000/svg"
 width="38.000000pt" height="39.000000pt" viewBox="0 0 38.000000 39.000000"
 preserveAspectRatio="xMidYMid meet">
<metadata>
Created by potrace 1.16, written by Peter Selinger 2001-2019
</metadata>
<g transform="translate(0.000000,39.000000) scale(0.100000,-0.100000)"
fill="#000000" stroke="none">
<path d="M133 383 l-43 -4 0 -61 0 -60 -30 5 -30 6 -15 -5 -15 -6 0 -23 0 -23
16 -6 16 -6 40 7 41 6 -5 -49 -6 -49 -7 -17 -7 -18 40 0 40 0 16 -6 16 -6 0
-34 0 -34 19 0 20 0 16 17 17 16 -6 30 -6 30 61 -7 62 -7 -7 16 -6 17 0 34 0
34 -25 0 -24 0 -11 19 -10 20 0 21 0 21 13 12 12 12 25 0 25 0 3 43 3 44 -43
-7 -43 -6 -18 -6 -18 -5 6 -19 7 -20 -12 -14 -12 -15 -19 0 -18 0 -17 31 -16
32 5 23 4 24 -6 -2 -6 -1 -42 -4z"/>
</g>
</svg>
