<?xml version="1.0" standalone="no"?>
<!DOCTYPE svg PUBLIC "-//W3C//DTD SVG 20010904//EN"
 "http://www.w3.org/TR/2001/REC-SVG-20010904/DTD/svg10.dtd">
<svg version="1.0" xmlns="http://www.w3.org/2000/svg"
 width="51.000000pt" height="43.000000pt" viewBox="0 0 51.000000 43.000000"
 preserveAspectRatio="xMidYMid meet">
<metadata>
Created by potrace 1.16, written by Peter Selinger 2001-2019
</metadata>
<g transform="translate(0.000000,43.000000) scale(0.100000,-0.100000)"
fill="#000000" stroke="none">
<path d="M150 421 l-45 -6 -3 -52 -3 -53 -34 0 -33 0 -16 -6 -16 -6 0 -38 0
-38 15 -12 15 -12 19 5 18 4 12 -53 12 -53 62 -3 62 -3 -3 -37 -3 -37 22 -11
22 -12 38 11 39 12 0 25 0 25 13 4 12 3 38 7 37 6 0 19 0 19 -10 6 -10 6 0 40
0 39 23 -5 23 -6 27 10 27 11 0 33 0 34 -25 11 -26 12 -19 0 -20 0 0 45 0 45
-20 0 -19 0 -51 -11 -50 -11 0 -20 0 -19 -17 3 -18 3 -3 38 -3 37 -22 -2 -22
-1 -45 -6z"/>
</g>
</svg>
