<?xml version="1.0" standalone="no"?>
<!DOCTYPE svg PUBLIC "-//W3C//DTD SVG 20010904//EN"
 "http://www.w3.org/TR/2001/REC-SVG-20010904/DTD/svg10.dtd">
<svg version="1.0" xmlns="http://www.w3.org/2000/svg"
 width="40.000000pt" height="48.000000pt" viewBox="0 0 40.000000 48.000000"
 preserveAspectRatio="xMidYMid meet">
<metadata>
Created by potrace 1.16, written by Peter Selinger 2001-2019
</metadata>
<g transform="translate(0.000000,48.000000) scale(0.100000,-0.100000)"
fill="#000000" stroke="none">
<path d="M135 464 l-16 -16 7 -34 6 -34 -66 0 -66 0 0 -44 0 -44 15 -12 15
-12 25 6 25 6 9 -22 9 -23 -10 -18 -9 -18 -34 7 -33 6 -7 -45 -7 -45 4 -18 3
-19 52 -3 51 -3 -2 -32 -1 -31 28 -10 28 -10 17 11 17 11 -3 15 -3 15 53 12
53 11 12 7 12 7 8 50 9 50 22 -2 22 -3 12 24 11 25 -7 25 -6 26 -40 0 -40 0 0
49 0 49 -27 10 -28 11 -38 11 -39 12 6 23 6 23 -16 6 -16 6 -3 0 -4 0 -16 -16z"/>
</g>
</svg>
