<?xml version="1.0" standalone="no"?>
<!DOCTYPE svg PUBLIC "-//W3C//DTD SVG 20010904//EN"
 "http://www.w3.org/TR/2001/REC-SVG-20010904/DTD/svg10.dtd">
<svg version="1.0" xmlns="http://www.w3.org/2000/svg"
 width="42.000000pt" height="50.000000pt" viewBox="0 0 42.000000 50.000000"
 preserveAspectRatio="xMidYMid meet">
<metadata>
Created by potrace 1.16, written by Peter Selinger 2001-2019
</metadata>
<g transform="translate(0.000000,50.000000) scale(0.100000,-0.100000)"
fill="#000000" stroke="none">
<path d="M135 483 l-17 -16 5 -34 6 -33 -65 0 -64 0 0 -53 0 -53 12 -12 12
-12 34 0 33 0 -3 -22 -3 -23 -37 3 -37 3 -6 -43 -7 -44 4 -30 3 -29 48 -3 47
-3 0 -29 0 -29 20 -11 21 -11 32 3 32 3 10 23 10 23 25 5 25 6 32 10 32 9 7
50 7 49 23 0 23 0 11 19 10 20 0 25 0 24 -6 16 -6 16 -39 0 -39 0 0 49 0 49
-27 10 -28 11 -36 11 -37 11 5 20 6 21 -14 9 -14 9 -17 0 -17 0 -16 -17z"/>
</g>
</svg>
