<?xml version="1.0" standalone="no"?>
<!DOCTYPE svg PUBLIC "-//W3C//DTD SVG 20010904//EN"
 "http://www.w3.org/TR/2001/REC-SVG-20010904/DTD/svg10.dtd">
<svg version="1.0" xmlns="http://www.w3.org/2000/svg"
 width="39.000000pt" height="50.000000pt" viewBox="0 0 39.000000 50.000000"
 preserveAspectRatio="xMidYMid meet">
<metadata>
Created by potrace 1.16, written by Peter Selinger 2001-2019
</metadata>
<g transform="translate(0.000000,50.000000) scale(0.100000,-0.100000)"
fill="#000000" stroke="none">
<path d="M221 486 l-10 -12 6 -24 6 -23 -18 -13 -19 -14 -54 0 -54 0 4 -45 3
-45 -26 0 -27 0 -12 -15 -13 -15 1 -25 0 -26 6 -6 6 -6 23 -2 22 -2 8 -59 8
-59 43 3 44 4 21 -11 20 -11 -5 -29 -6 -29 19 -11 20 -10 23 16 22 16 -5 34
-6 35 60 -4 59 -3 0 40 0 40 -6 23 -7 23 -25 -6 -25 -6 -8 13 -9 13 0 23 0 22
28 0 28 0 12 12 12 12 0 52 0 52 -37 6 -38 7 -33 11 -34 10 6 23 6 23 -14 5
-15 6 -10 -13z"/>
</g>
</svg>
