<?xml version="1.0" standalone="no"?>
<!DOCTYPE svg PUBLIC "-//W3C//DTD SVG 20010904//EN"
 "http://www.w3.org/TR/2001/REC-SVG-20010904/DTD/svg10.dtd">
<svg version="1.0" xmlns="http://www.w3.org/2000/svg"
 width="41.000000pt" height="52.000000pt" viewBox="0 0 41.000000 52.000000"
 preserveAspectRatio="xMidYMid meet">
<metadata>
Created by potrace 1.16, written by Peter Selinger 2001-2019
</metadata>
<g transform="translate(0.000000,52.000000) scale(0.100000,-0.100000)"
fill="#000000" stroke="none">
<path d="M220 505 l-12 -15 6 -24 6 -25 -19 -11 -20 -10 -50 0 -51 0 0 -44 0
-45 -27 -3 -28 -3 -13 -27 -13 -27 7 -26 6 -26 28 -6 28 -5 6 -59 7 -60 34 7
35 6 25 -6 25 -6 0 -35 0 -35 25 -12 24 -11 26 17 25 16 0 37 0 36 55 -6 55
-6 0 52 0 52 -7 23 -6 24 -28 -4 -28 -4 -6 14 -5 14 0 9 0 9 28 0 28 0 12 12
12 12 0 62 0 62 -37 6 -38 7 -31 10 -32 10 5 20 6 21 -14 9 -14 9 -11 0 -12 0
-12 -15z"/>
</g>
</svg>
