<?xml version="1.0" standalone="no"?>
<!DOCTYPE svg PUBLIC "-//W3C//DTD SVG 20010904//EN"
 "http://www.w3.org/TR/2001/REC-SVG-20010904/DTD/svg10.dtd">
<svg version="1.0" xmlns="http://www.w3.org/2000/svg"
 width="48.000000pt" height="41.000000pt" viewBox="0 0 48.000000 41.000000"
 preserveAspectRatio="xMidYMid meet">
<metadata>
Created by potrace 1.16, written by Peter Selinger 2001-2019
</metadata>
<g transform="translate(0.000000,41.000000) scale(0.100000,-0.100000)"
fill="#000000" stroke="none">
<path d="M204 395 l-6 -15 4 -35 4 -34 -13 -5 -12 -5 -51 6 -50 6 0 -50 0 -49
-12 -12 -12 -12 -28 0 -28 0 0 -22 0 -23 9 -13 8 -13 25 6 25 6 7 -23 6 -23 0
-36 0 -36 49 -7 48 -6 16 6 16 6 -6 29 -5 29 16 6 16 6 18 -20 17 -20 45 -11
45 -12 15 -2 15 -2 3 35 2 35 6 23 5 23 19 -6 19 -6 21 11 20 11 0 24 0 25
-24 6 -25 6 -20 -7 -20 -6 -7 36 -6 35 5 20 5 20 -11 1 -12 1 -55 2 -55 1 3
33 2 33 -10 19 -11 20 -15 0 -15 0 -5 -15z"/>
</g>
</svg>
