<?xml version="1.0" standalone="no"?>
<!DOCTYPE svg PUBLIC "-//W3C//DTD SVG 20010904//EN"
 "http://www.w3.org/TR/2001/REC-SVG-20010904/DTD/svg10.dtd">
<svg version="1.0" xmlns="http://www.w3.org/2000/svg"
 width="50.000000pt" height="43.000000pt" viewBox="0 0 50.000000 43.000000"
 preserveAspectRatio="xMidYMid meet">
<metadata>
Created by potrace 1.16, written by Peter Selinger 2001-2019
</metadata>
<g transform="translate(0.000000,43.000000) scale(0.100000,-0.100000)"
fill="#000000" stroke="none">
<path d="M205 418 l-4 -13 -3 -40 -3 -40 -57 3 -58 4 0 -49 0 -49 -12 -12 -12
-12 -28 0 -28 0 0 -32 0 -33 9 -14 9 -14 25 5 25 5 6 -21 6 -21 0 -36 0 -37
55 -7 55 -6 21 6 21 7 -5 28 -6 28 6 5 5 6 17 -18 16 -19 45 -12 45 -12 25 -1
25 -2 5 50 5 49 31 7 31 6 11 7 12 7 0 34 0 33 -16 6 -16 6 -28 0 -29 0 -6 20
-6 20 6 30 7 30 -14 2 -13 1 -55 1 -55 1 3 32 3 32 -11 20 -11 21 -25 0 -25 0
-4 -12z"/>
</g>
</svg>
