<?xml version="1.0" standalone="no"?>
<!DOCTYPE svg PUBLIC "-//W3C//DTD SVG 20010904//EN"
 "http://www.w3.org/TR/2001/REC-SVG-20010904/DTD/svg10.dtd">
<svg version="1.0" xmlns="http://www.w3.org/2000/svg"
 width="35.000000pt" height="43.000000pt" viewBox="0 0 35.000000 43.000000"
 preserveAspectRatio="xMidYMid meet">
<metadata>
Created by potrace 1.16, written by Peter Selinger 2001-2019
</metadata>
<g transform="translate(0.000000,43.000000) scale(0.100000,-0.100000)"
fill="#000000" stroke="none">
<path d="M146 408 l-5 -23 2 -25 2 -25 -45 -3 -45 -2 -24 -6 -24 -5 7 -46 6
-46 11 -13 11 -14 24 0 24 0 0 -17 0 -18 -8 -11 -7 -10 -35 0 -35 1 1 -67 1
-68 4 -4 4 -4 80 6 80 7 -1 32 -2 33 19 0 19 0 0 -24 0 -25 18 -4 17 -5 39 -7
39 -6 8 13 9 13 0 41 0 40 -12 16 -13 17 -25 3 -25 3 0 15 0 15 20 3 20 3 23
5 22 4 0 59 0 59 -12 10 -13 10 -45 9 -45 9 3 23 2 24 -11 13 -11 14 -34 0
-34 0 -4 -22z"/>
</g>
</svg>
