<?xml version="1.0" standalone="no"?>
<!DOCTYPE svg PUBLIC "-//W3C//DTD SVG 20010904//EN"
 "http://www.w3.org/TR/2001/REC-SVG-20010904/DTD/svg10.dtd">
<svg version="1.0" xmlns="http://www.w3.org/2000/svg"
 width="48.000000pt" height="50.000000pt" viewBox="0 0 48.000000 50.000000"
 preserveAspectRatio="xMidYMid meet">
<metadata>
Created by potrace 1.16, written by Peter Selinger 2001-2019
</metadata>
<g transform="translate(0.000000,50.000000) scale(0.100000,-0.100000)"
fill="#000000" stroke="none">
<path d="M203 466 l6 -36 -15 -15 -15 -15 -45 0 -44 0 0 -55 0 -55 -23 -5 -23
-6 -13 3 -13 3 -11 -18 -12 -17 11 -18 11 -17 21 3 21 3 11 -22 12 -22 -5 -38
-5 -39 68 0 69 0 -6 -35 -6 -35 13 -15 12 -15 14 0 14 0 21 21 20 20 -6 19 -6
18 8 5 8 5 45 3 45 3 12 16 11 16 11 40 11 41 22 -1 23 -1 0 45 0 45 -34 -3
-34 -4 -8 14 -9 13 0 38 0 37 -26 10 -25 10 -32 0 -32 0 -11 8 -10 7 0 35 1
35 -29 3 -29 4 6 -36z"/>
</g>
</svg>
