<?xml version="1.0" standalone="no"?>
<!DOCTYPE svg PUBLIC "-//W3C//DTD SVG 20010904//EN"
 "http://www.w3.org/TR/2001/REC-SVG-20010904/DTD/svg10.dtd">
<svg version="1.0" xmlns="http://www.w3.org/2000/svg"
 width="42.000000pt" height="50.000000pt" viewBox="0 0 42.000000 50.000000"
 preserveAspectRatio="xMidYMid meet">
<metadata>
Created by potrace 1.16, written by Peter Selinger 2001-2019
</metadata>
<g transform="translate(0.000000,50.000000) scale(0.100000,-0.100000)"
fill="#000000" stroke="none">
<path d="M210 485 l-12 -14 7 -30 6 -30 -23 -5 -23 -6 -40 -2 -40 -3 2 -47 3
-48 -33 0 -33 0 -12 -12 -12 -12 0 -38 0 -38 34 0 34 0 7 -64 6 -64 60 5 59 6
0 -30 0 -29 12 -12 12 -12 24 0 23 0 20 10 19 11 0 13 0 14 50 12 50 12 5 8 5
7 -7 67 -6 66 -32 0 -33 0 -6 16 -6 16 6 9 5 9 22 0 22 0 14 9 14 9 5 56 4 56
-46 0 -47 0 -19 10 -18 10 5 19 5 19 -11 21 -12 21 -28 0 -29 0 -12 -15z"/>
</g>
</svg>
