<?xml version="1.0" standalone="no"?>
<!DOCTYPE svg PUBLIC "-//W3C//DTD SVG 20010904//EN"
 "http://www.w3.org/TR/2001/REC-SVG-20010904/DTD/svg10.dtd">
<svg version="1.0" xmlns="http://www.w3.org/2000/svg"
 width="40.000000pt" height="48.000000pt" viewBox="0 0 40.000000 48.000000"
 preserveAspectRatio="xMidYMid meet">
<metadata>
Created by potrace 1.16, written by Peter Selinger 2001-2019
</metadata>
<g transform="translate(0.000000,48.000000) scale(0.100000,-0.100000)"
fill="#000000" stroke="none">
<path d="M213 469 l-11 -11 5 -34 5 -33 -23 -5 -24 -6 -40 -2 -40 -3 3 -47 4
-48 -34 0 -34 0 -12 -12 -12 -12 0 -28 0 -28 34 0 34 0 6 -63 7 -62 62 0 62 0
-3 -26 -3 -26 15 -12 16 -13 26 6 26 7 5 18 5 19 51 13 52 14 -1 18 -1 17 -1
46 -2 45 -22 -1 -23 -2 -12 1 -12 1 -6 20 -6 20 6 20 6 20 22 -5 22 -5 14 9
13 9 5 46 6 46 -50 0 -49 0 -19 14 -18 13 6 17 7 17 -10 20 -11 19 -17 0 -18
0 -11 -11z"/>
</g>
</svg>
