<?xml version="1.0" standalone="no"?>
<!DOCTYPE svg PUBLIC "-//W3C//DTD SVG 20010904//EN"
 "http://www.w3.org/TR/2001/REC-SVG-20010904/DTD/svg10.dtd">
<svg version="1.0" xmlns="http://www.w3.org/2000/svg"
 width="34.000000pt" height="33.000000pt" viewBox="0 0 34.000000 33.000000"
 preserveAspectRatio="xMidYMid meet">
<metadata>
Created by potrace 1.16, written by Peter Selinger 2001-2019
</metadata>
<g transform="translate(0.000000,33.000000) scale(0.100000,-0.100000)"
fill="#000000" stroke="none">
<path d="M22 268 l3 -63 34 -5 34 -5 4 -12 4 -12 -20 -20 -21 -21 -31 7 -32 6
7 -69 7 -68 2 -2 2 -2 63 7 64 8 9 14 9 14 -5 33 -6 34 18 -4 18 -4 -3 -36 -3
-36 18 -5 18 -5 58 -7 57 -6 0 60 0 61 -29 0 -29 0 -6 16 -6 16 0 29 0 29 41
0 41 0 -7 53 -7 52 -4 4 -3 3 -57 -7 -56 -7 5 -24 4 -24 -12 -17 -13 -17 -27
12 -27 13 6 34 7 35 -66 0 -66 0 3 -62z"/>
</g>
</svg>
