<?xml version="1.0" standalone="no"?>
<!DOCTYPE svg PUBLIC "-//W3C//DTD SVG 20010904//EN"
 "http://www.w3.org/TR/2001/REC-SVG-20010904/DTD/svg10.dtd">
<svg version="1.0" xmlns="http://www.w3.org/2000/svg"
 width="41.000000pt" height="31.000000pt" viewBox="0 0 41.000000 31.000000"
 preserveAspectRatio="xMidYMid meet">
<metadata>
Created by potrace 1.16, written by Peter Selinger 2001-2019
</metadata>
<g transform="translate(0.000000,31.000000) scale(0.100000,-0.100000)"
fill="#000000" stroke="none">
<path d="M14 269 l7 -43 11 -13 10 -13 32 3 31 2 3 -26 3 -26 -26 -17 -25 -17
-28 3 -27 3 3 -55 4 -55 1 -2 2 -1 60 -4 60 -3 -3 14 -3 15 6 23 5 23 25 0 24
0 -5 -13 -5 -13 23 -12 23 -11 32 -6 32 -6 -2 53 -2 53 45 1 45 0 11 2 12 2 5
20 5 20 -5 19 -5 19 -33 -5 -33 -5 -12 22 -12 23 -1 31 -1 32 -58 -19 -58 -19
0 -19 0 -19 -21 0 -20 0 -20 11 -20 10 3 27 3 27 -54 3 -54 3 7 -42z"/>
</g>
</svg>
