<?xml version="1.0" standalone="no"?>
<!DOCTYPE svg PUBLIC "-//W3C//DTD SVG 20010904//EN"
 "http://www.w3.org/TR/2001/REC-SVG-20010904/DTD/svg10.dtd">
<svg version="1.0" xmlns="http://www.w3.org/2000/svg"
 width="43.000000pt" height="33.000000pt" viewBox="0 0 43.000000 33.000000"
 preserveAspectRatio="xMidYMid meet">
<metadata>
Created by potrace 1.16, written by Peter Selinger 2001-2019
</metadata>
<g transform="translate(0.000000,33.000000) scale(0.100000,-0.100000)"
fill="#000000" stroke="none">
<path d="M13 279 l6 -51 12 -15 12 -14 31 3 31 3 3 -17 3 -17 -23 -13 -23 -13
-30 0 -30 0 3 -65 3 -65 3 -2 2 -2 69 -3 70 -3 1 25 1 25 2 13 1 12 10 0 10 0
0 -13 0 -12 19 -12 18 -11 47 -7 48 -8 -4 54 -3 54 35 -3 35 -3 21 5 22 6 6
25 6 25 -6 26 -7 26 -33 -6 -33 -7 -10 20 -11 20 0 35 0 36 -5 0 -6 0 -64 -21
-65 -21 0 -19 0 -19 -12 0 -13 0 -15 10 -14 9 -1 28 0 28 -64 3 -64 3 6 -52z"/>
</g>
</svg>
