<?xml version="1.0" standalone="no"?>
<!DOCTYPE svg PUBLIC "-//W3C//DTD SVG 20010904//EN"
 "http://www.w3.org/TR/2001/REC-SVG-20010904/DTD/svg10.dtd">
<svg version="1.0" xmlns="http://www.w3.org/2000/svg"
 width="39.000000pt" height="39.000000pt" viewBox="0 0 39.000000 39.000000"
 preserveAspectRatio="xMidYMid meet">
<metadata>
Created by potrace 1.16, written by Peter Selinger 2001-2019
</metadata>
<g transform="translate(0.000000,39.000000) scale(0.100000,-0.100000)"
fill="#000000" stroke="none">
<path d="M80 346 l0 -45 -12 -7 -12 -8 -26 0 -25 -1 -3 -28 -3 -28 12 -15 12
-14 35 6 35 7 -5 -62 -4 -61 59 0 59 0 -7 -39 -6 -39 11 -7 11 -7 25 6 25 7
-3 32 -3 32 35 3 35 2 22 5 22 5 10 38 11 37 0 27 0 27 -34 -6 -34 -5 -12 22
-12 22 6 14 5 14 36 0 35 0 0 38 0 37 -9 14 -9 13 -18 -5 -19 -5 -27 -6 -27
-6 -3 -23 -3 -22 -33 -3 -33 -3 -16 12 -15 13 6 28 6 28 -50 0 -50 0 0 -44z"/>
</g>
</svg>
