<?xml version="1.0" standalone="no"?>
<!DOCTYPE svg PUBLIC "-//W3C//DTD SVG 20010904//EN"
 "http://www.w3.org/TR/2001/REC-SVG-20010904/DTD/svg10.dtd">
<svg version="1.0" xmlns="http://www.w3.org/2000/svg"
 width="41.000000pt" height="41.000000pt" viewBox="0 0 41.000000 41.000000"
 preserveAspectRatio="xMidYMid meet">
<metadata>
Created by potrace 1.16, written by Peter Selinger 2001-2019
</metadata>
<g transform="translate(0.000000,41.000000) scale(0.100000,-0.100000)"
fill="#000000" stroke="none">
<path d="M78 363 l-3 -48 -35 -5 -35 -5 -3 -38 -3 -38 12 -16 13 -15 34 6 35
5 -6 -59 -7 -60 59 0 58 0 -1 -42 -1 -42 18 -4 19 -4 24 6 24 6 0 35 0 35 59
0 58 0 7 52 6 53 0 29 0 28 -34 -6 -35 -7 -10 19 -10 19 6 7 6 6 34 0 33 0 0
48 0 47 -9 13 -8 14 -45 -7 -45 -7 -10 -6 -11 -7 -3 -20 -4 -20 -23 -3 -23 -4
-14 12 -14 12 6 29 6 29 -61 0 -61 0 -3 -47z"/>
</g>
</svg>
