<?xml version="1.0" standalone="no"?>
<!DOCTYPE svg PUBLIC "-//W3C//DTD SVG 20010904//EN"
 "http://www.w3.org/TR/2001/REC-SVG-20010904/DTD/svg10.dtd">
<svg version="1.0" xmlns="http://www.w3.org/2000/svg"
 width="51.000000pt" height="41.000000pt" viewBox="0 0 51.000000 41.000000"
 preserveAspectRatio="xMidYMid meet">
<metadata>
Created by potrace 1.16, written by Peter Selinger 2001-2019
</metadata>
<g transform="translate(0.000000,41.000000) scale(0.100000,-0.100000)"
fill="#000000" stroke="none">
<path d="M100 366 l0 -45 -12 -8 -13 -8 -35 0 -35 0 -3 -38 -3 -37 28 -11 28
-10 27 4 28 4 5 -16 5 -16 -10 -35 -10 -35 0 -12 0 -12 48 -3 47 -3 3 -30 4
-30 10 -13 10 -12 33 0 33 0 6 16 6 16 0 35 0 35 38 -7 37 -6 20 -5 20 -5 15
63 15 63 22 -3 23 -3 11 25 12 25 -7 26 -7 27 -29 -6 -29 -5 -16 15 -15 15 0
41 0 41 -52 -7 -52 -7 -9 -6 -9 -5 6 -23 6 -23 -21 -5 -21 -6 -14 6 -14 5 0
27 0 27 -12 12 -12 12 -53 0 -53 0 0 -44z"/>
</g>
</svg>
