<?xml version="1.0" standalone="no"?>
<!DOCTYPE svg PUBLIC "-//W3C//DTD SVG 20010904//EN"
 "http://www.w3.org/TR/2001/REC-SVG-20010904/DTD/svg10.dtd">
<svg version="1.0" xmlns="http://www.w3.org/2000/svg"
 width="49.000000pt" height="39.000000pt" viewBox="0 0 49.000000 39.000000"
 preserveAspectRatio="xMidYMid meet">
<metadata>
Created by potrace 1.16, written by Peter Selinger 2001-2019
</metadata>
<g transform="translate(0.000000,39.000000) scale(0.100000,-0.100000)"
fill="#000000" stroke="none">
<path d="M100 346 l0 -44 -14 -11 -14 -11 -33 2 -34 3 -3 -27 -3 -28 27 -10
27 -11 28 6 28 6 7 -25 6 -25 -6 -20 -6 -21 -6 -20 -5 -20 44 0 45 0 11 -14
11 -13 -6 -17 -6 -16 12 -15 12 -15 24 0 24 0 6 24 6 25 -7 20 -6 21 16 6 16
6 50 -9 50 -10 -4 10 -3 10 17 51 16 51 22 0 23 0 9 18 10 17 -6 20 -6 19 -28
-5 -28 -6 -16 17 -17 16 0 41 0 40 -42 -7 -43 -7 -6 -4 -6 -4 4 -24 5 -24 -30
-7 -31 -6 -21 11 -21 11 6 20 7 20 -12 14 -12 15 -44 0 -44 0 0 -44z"/>
</g>
</svg>
