<?xml version="1.0" standalone="no"?>
<!DOCTYPE svg PUBLIC "-//W3C//DTD SVG 20010904//EN"
 "http://www.w3.org/TR/2001/REC-SVG-20010904/DTD/svg10.dtd">
<svg version="1.0" xmlns="http://www.w3.org/2000/svg"
 width="41.000000pt" height="30.000000pt" viewBox="0 0 41.000000 30.000000"
 preserveAspectRatio="xMidYMid meet">
<metadata>
Created by potrace 1.16, written by Peter Selinger 2001-2019
</metadata>
<g transform="translate(0.000000,30.000000) scale(0.100000,-0.100000)"
fill="#000000" stroke="none">
<path d="M85 251 l0 -49 -8 -8 -8 -8 -32 -1 -32 0 -3 -21 -3 -22 17 -17 17
-17 35 7 35 6 -6 -60 -5 -61 38 0 38 0 16 6 16 6 0 30 0 29 33 -3 32 -3 -3
-21 -3 -22 14 -5 14 -5 58 -7 58 -8 -6 10 -6 9 10 43 10 43 -12 14 -11 13 -28
-5 -28 -6 -21 11 -21 12 0 14 0 14 19 10 18 10 34 -5 34 -6 -3 56 -4 56 -9 0
-10 0 -44 -11 -43 -11 -5 -19 -5 -18 -26 -7 -26 -6 -16 13 -15 12 3 26 3 26
-55 3 -55 3 0 -50z"/>
</g>
</svg>
