<?xml version="1.0" standalone="no"?>
<!DOCTYPE svg PUBLIC "-//W3C//DTD SVG 20010904//EN"
 "http://www.w3.org/TR/2001/REC-SVG-20010904/DTD/svg10.dtd">
<svg version="1.0" xmlns="http://www.w3.org/2000/svg"
 width="47.000000pt" height="30.000000pt" viewBox="0 0 47.000000 30.000000"
 preserveAspectRatio="xMidYMid meet">
<metadata>
Created by potrace 1.16, written by Peter Selinger 2001-2019
</metadata>
<g transform="translate(0.000000,30.000000) scale(0.100000,-0.100000)"
fill="#000000" stroke="none">
<path d="M102 239 l3 -61 -34 6 -34 5 -18 -10 -19 -10 0 -14 0 -14 21 -12 21
-11 28 6 28 5 11 -13 12 -14 -10 -43 -10 -44 8 -8 8 -8 54 3 54 3 -3 30 -4 30
-1 10 -2 10 33 3 33 3 -6 -24 -6 -24 60 -20 60 -19 6 45 6 46 8 15 8 15 24 0
24 0 0 25 0 25 -35 0 -35 0 -3 64 -3 63 -31 -6 -30 -6 -25 0 -25 0 6 -16 6
-15 -10 -20 -11 -19 -28 0 -28 0 -6 6 -6 7 9 18 10 18 -16 15 -15 16 -46 0
-45 0 4 -61z"/>
</g>
</svg>
