<?xml version="1.0" standalone="no"?>
<!DOCTYPE svg PUBLIC "-//W3C//DTD SVG 20010904//EN"
 "http://www.w3.org/TR/2001/REC-SVG-20010904/DTD/svg10.dtd">
<svg version="1.0" xmlns="http://www.w3.org/2000/svg"
 width="42.000000pt" height="42.000000pt" viewBox="0 0 42.000000 42.000000"
 preserveAspectRatio="xMidYMid meet">
<metadata>
Created by potrace 1.16, written by Peter Selinger 2001-2019
</metadata>
<g transform="translate(0.000000,42.000000) scale(0.100000,-0.100000)"
fill="#000000" stroke="none">
<path d="M85 387 l6 -32 -10 -28 -11 -27 -35 0 -36 0 3 -37 3 -38 40 -5 40 -5
-1 -57 -1 -58 28 0 28 0 25 -10 26 -9 -6 -30 -6 -29 20 -11 21 -11 25 0 25 0
15 22 16 22 0 39 0 39 23 -6 22 -6 26 -6 25 -6 12 40 12 39 0 33 0 32 -44 -6
-44 -7 -17 17 -17 18 18 13 19 14 33 -6 32 -6 0 66 0 65 -9 0 -9 0 -51 -12
-51 -11 0 -23 0 -22 -15 -6 -15 -5 -15 5 -15 6 0 39 0 39 -70 0 -71 0 6 -33z"/>
</g>
</svg>
