<?xml version="1.0" standalone="no"?>
<!DOCTYPE svg PUBLIC "-//W3C//DTD SVG 20010904//EN"
 "http://www.w3.org/TR/2001/REC-SVG-20010904/DTD/svg10.dtd">
<svg version="1.0" xmlns="http://www.w3.org/2000/svg"
 width="42.000000pt" height="31.000000pt" viewBox="0 0 42.000000 31.000000"
 preserveAspectRatio="xMidYMid meet">
<metadata>
Created by potrace 1.16, written by Peter Selinger 2001-2019
</metadata>
<g transform="translate(0.000000,31.000000) scale(0.100000,-0.100000)"
fill="#000000" stroke="none">
<path d="M95 257 l7 -55 -45 5 -46 5 -7 -27 -7 -28 10 -16 11 -16 25 3 25 2 6
-30 6 -30 6 -30 6 -30 59 0 59 0 6 24 6 25 -7 11 -7 11 33 -3 34 -3 0 -35 0
-35 44 -3 44 -3 22 5 22 6 1 12 1 13 7 49 7 48 -31 -7 -31 -6 -30 16 -31 16 0
14 0 15 23 5 22 6 25 -3 25 -3 3 59 3 59 -57 -7 -57 -6 -8 -6 -9 -5 0 -29 0
-29 -11 -6 -10 -7 -25 6 -25 7 3 42 3 42 -58 3 -59 3 7 -54z"/>
</g>
</svg>
