<?xml version="1.0" standalone="no"?>
<!DOCTYPE svg PUBLIC "-//W3C//DTD SVG 20010904//EN"
 "http://www.w3.org/TR/2001/REC-SVG-20010904/DTD/svg10.dtd">
<svg version="1.0" xmlns="http://www.w3.org/2000/svg"
 width="44.000000pt" height="33.000000pt" viewBox="0 0 44.000000 33.000000"
 preserveAspectRatio="xMidYMid meet">
<metadata>
Created by potrace 1.16, written by Peter Selinger 2001-2019
</metadata>
<g transform="translate(0.000000,33.000000) scale(0.100000,-0.100000)"
fill="#000000" stroke="none">
<path d="M93 280 l6 -50 -43 0 -44 0 -6 -16 -6 -16 0 -28 0 -28 15 -12 15 -12
19 5 20 5 5 -29 6 -29 6 -30 6 -30 68 0 68 0 6 16 6 16 0 20 0 19 17 -3 17 -3
0 -35 1 -35 65 -3 65 -2 13 8 12 8 7 69 6 68 -34 -5 -34 -6 -28 15 -29 14 7 7
7 7 41 0 42 0 3 69 3 69 -66 -6 -66 -6 -9 -6 -10 -6 0 -29 0 -29 -9 -5 -9 -6
-17 6 -16 7 3 41 3 41 -69 3 -69 3 6 -51z"/>
</g>
</svg>
