<?xml version="1.0" standalone="no"?>
<!DOCTYPE svg PUBLIC "-//W3C//DTD SVG 20010904//EN"
 "http://www.w3.org/TR/2001/REC-SVG-20010904/DTD/svg10.dtd">
<svg version="1.0" xmlns="http://www.w3.org/2000/svg"
 width="39.000000pt" height="32.000000pt" viewBox="0 0 39.000000 32.000000"
 preserveAspectRatio="xMidYMid meet">
<metadata>
Created by potrace 1.16, written by Peter Selinger 2001-2019
</metadata>
<g transform="translate(0.000000,32.000000) scale(0.100000,-0.100000)"
fill="#000000" stroke="none">
<path d="M98 258 l-3 -63 -25 3 -25 3 -22 -6 -23 -5 0 -15 0 -14 31 -16 30
-16 30 6 29 7 0 -31 0 -30 -10 -26 -10 -26 23 -8 22 -8 38 5 38 4 -3 34 -2 34
10 10 11 11 17 -16 16 -16 1 -17 1 -17 -2 -24 -2 -24 51 5 51 5 6 6 6 6 -13
58 -14 58 -12 1 -13 2 -9 1 -10 1 -6 19 -5 18 6 18 7 17 27 -5 27 -6 12 12 11
11 0 49 0 48 -22 -7 -23 -7 -35 -7 -35 -6 3 -21 3 -22 -25 -7 -25 -6 -10 7
-11 6 0 29 0 28 -16 6 -16 6 -38 0 -39 0 -3 -62z"/>
</g>
</svg>
