<?xml version="1.0" standalone="no"?>
<!DOCTYPE svg PUBLIC "-//W3C//DTD SVG 20010904//EN"
 "http://www.w3.org/TR/2001/REC-SVG-20010904/DTD/svg10.dtd">
<svg version="1.0" xmlns="http://www.w3.org/2000/svg"
 width="42.000000pt" height="42.000000pt" viewBox="0 0 42.000000 42.000000"
 preserveAspectRatio="xMidYMid meet">
<metadata>
Created by potrace 1.16, written by Peter Selinger 2001-2019
</metadata>
<g transform="translate(0.000000,42.000000) scale(0.100000,-0.100000)"
fill="#000000" stroke="none">
<path d="M10 360 l0 -60 39 0 40 0 7 -22 6 -21 -18 -14 -18 -13 -33 0 -33 0 0
-42 0 -43 6 -22 6 -23 44 0 43 0 8 -13 8 -12 0 -35 0 -35 38 -3 38 -3 15 12
14 11 0 19 0 18 55 16 55 15 9 18 9 17 7 38 7 37 18 0 18 0 11 14 12 15 -3 43
-3 43 -40 0 -40 0 -3 48 -3 47 -17 0 -17 0 -50 -13 -50 -13 -3 -20 -4 -19 -8
-8 -8 -9 -22 12 -22 12 7 34 6 34 -66 0 -65 0 0 -60z"/>
</g>
</svg>
