<?xml version="1.0" standalone="no"?>
<!DOCTYPE svg PUBLIC "-//W3C//DTD SVG 20010904//EN"
 "http://www.w3.org/TR/2001/REC-SVG-20010904/DTD/svg10.dtd">
<svg version="1.0" xmlns="http://www.w3.org/2000/svg"
 width="40.000000pt" height="40.000000pt" viewBox="0 0 40.000000 40.000000"
 preserveAspectRatio="xMidYMid meet">
<metadata>
Created by potrace 1.16, written by Peter Selinger 2001-2019
</metadata>
<g transform="translate(0.000000,40.000000) scale(0.100000,-0.100000)"
fill="#000000" stroke="none">
<path d="M10 350 l0 -50 39 0 39 0 6 -16 6 -16 0 -18 0 -19 -19 -11 -20 -10
-30 0 -31 0 0 -32 0 -33 6 -22 6 -23 43 0 43 0 11 -14 11 -14 -2 -33 -3 -34
28 -3 28 -3 15 12 14 12 -2 16 -3 16 54 17 55 18 9 9 8 8 13 49 12 49 17 0 16
0 11 11 11 11 -3 34 -3 34 -40 0 -40 0 -3 48 -3 47 -7 0 -7 0 -50 -13 -50 -13
0 -19 0 -18 -17 -10 -16 -11 -27 12 -27 13 4 34 4 35 -53 0 -53 0 0 -50z"/>
</g>
</svg>
