<?xml version="1.0" standalone="no"?>
<!DOCTYPE svg PUBLIC "-//W3C//DTD SVG 20010904//EN"
 "http://www.w3.org/TR/2001/REC-SVG-20010904/DTD/svg10.dtd">
<svg version="1.0" xmlns="http://www.w3.org/2000/svg"
 width="37.000000pt" height="31.000000pt" viewBox="0 0 37.000000 31.000000"
 preserveAspectRatio="xMidYMid meet">
<metadata>
Created by potrace 1.16, written by Peter Selinger 2001-2019
</metadata>
<g transform="translate(0.000000,31.000000) scale(0.100000,-0.100000)"
fill="#000000" stroke="none">
<path d="M0 253 l0 -58 37 0 38 0 3 -23 4 -23 -13 -15 -12 -15 -21 3 -21 3 -6
-50 -6 -50 10 -13 10 -13 51 3 51 3 -2 25 -2 25 5 23 5 23 27 -3 27 -3 -3 -26
-3 -26 45 -12 45 -11 5 0 5 0 -2 58 -2 57 27 -3 28 -3 20 11 20 11 0 23 0 23
-23 -4 -24 -5 -16 17 -17 16 0 40 0 40 -17 -5 -18 -5 -27 -7 -28 -6 0 -14 0
-14 -27 -11 -27 -10 -23 10 -23 11 -6 30 -6 30 -44 0 -44 0 0 -57z"/>
</g>
</svg>
