<?xml version="1.0" standalone="no"?>
<!DOCTYPE svg PUBLIC "-//W3C//DTD SVG 20010904//EN"
 "http://www.w3.org/TR/2001/REC-SVG-20010904/DTD/svg10.dtd">
<svg version="1.0" xmlns="http://www.w3.org/2000/svg"
 width="39.000000pt" height="33.000000pt" viewBox="0 0 39.000000 33.000000"
 preserveAspectRatio="xMidYMid meet">
<metadata>
Created by potrace 1.16, written by Peter Selinger 2001-2019
</metadata>
<g transform="translate(0.000000,33.000000) scale(0.100000,-0.100000)"
fill="#000000" stroke="none">
<path d="M0 260 l0 -71 35 7 35 6 6 -17 7 -16 -12 -12 -11 -11 -23 -1 -22 0
-7 -59 -8 -59 12 -14 11 -14 61 3 61 3 1 35 1 35 2 13 1 12 15 0 15 0 0 -29 0
-29 44 -11 45 -11 17 0 16 0 -7 55 -6 55 31 0 31 0 20 10 19 11 0 35 0 36 -24
-6 -25 -6 -15 16 -16 15 0 40 0 39 -11 0 -10 0 -45 -11 -44 -11 0 -15 0 -14
-22 -8 -23 -9 -18 10 -18 9 -6 30 -5 29 -54 0 -54 0 0 -70z"/>
</g>
</svg>
