<?xml version="1.0" standalone="no"?>
<!DOCTYPE svg PUBLIC "-//W3C//DTD SVG 20010904//EN"
 "http://www.w3.org/TR/2001/REC-SVG-20010904/DTD/svg10.dtd">
<svg version="1.0" xmlns="http://www.w3.org/2000/svg"
 width="36.000000pt" height="31.000000pt" viewBox="0 0 36.000000 31.000000"
 preserveAspectRatio="xMidYMid meet">
<metadata>
Created by potrace 1.16, written by Peter Selinger 2001-2019
</metadata>
<g transform="translate(0.000000,31.000000) scale(0.100000,-0.100000)"
fill="#000000" stroke="none">
<path d="M0 261 l0 -50 13 -8 12 -7 22 2 21 3 7 -20 6 -19 -7 -27 -7 -27 -18
5 -19 5 -6 -26 -6 -27 -8 -27 -8 -27 39 -6 40 -7 15 13 16 13 -5 23 -4 23 13
11 13 11 23 -4 23 -3 3 -32 3 -32 44 -7 44 -6 10 7 11 6 0 54 0 54 12 8 13 7
20 1 20 0 3 21 3 21 -27 -5 -26 -5 -9 14 -9 14 0 50 0 51 -47 -6 -48 -5 0 -29
-1 -28 -19 -14 -19 -14 -12 0 -12 0 -12 15 -13 15 6 35 6 35 -60 0 -59 0 0
-49z"/>
</g>
</svg>
