<?xml version="1.0" standalone="no"?>
<!DOCTYPE svg PUBLIC "-//W3C//DTD SVG 20010904//EN"
 "http://www.w3.org/TR/2001/REC-SVG-20010904/DTD/svg10.dtd">
<svg version="1.0" xmlns="http://www.w3.org/2000/svg"
 width="38.000000pt" height="33.000000pt" viewBox="0 0 38.000000 33.000000"
 preserveAspectRatio="xMidYMid meet">
<metadata>
Created by potrace 1.16, written by Peter Selinger 2001-2019
</metadata>
<g transform="translate(0.000000,33.000000) scale(0.100000,-0.100000)"
fill="#000000" stroke="none">
<path d="M0 271 l0 -59 15 -12 14 -12 19 6 20 7 5 -15 6 -14 -6 -20 -5 -20
-18 5 -19 5 -6 -28 -7 -29 -10 -33 -10 -33 5 -5 4 -5 49 -5 50 -6 11 13 11 14
4 30 3 30 20 0 20 0 3 -32 3 -32 43 -6 44 -7 18 4 19 3 5 60 5 60 30 5 30 5 3
34 3 34 -27 -7 -27 -7 -8 13 -9 13 0 52 0 53 -47 -6 -48 -6 -12 -4 -13 -3 0
-30 0 -30 -19 -10 -19 -11 -12 14 -11 14 7 36 6 36 -71 0 -71 0 0 -59z"/>
</g>
</svg>
