<?xml version="1.0" standalone="no"?>
<!DOCTYPE svg PUBLIC "-//W3C//DTD SVG 20010904//EN"
 "http://www.w3.org/TR/2001/REC-SVG-20010904/DTD/svg10.dtd">
<svg version="1.0" xmlns="http://www.w3.org/2000/svg"
 width="33.000000pt" height="40.000000pt" viewBox="0 0 33.000000 40.000000"
 preserveAspectRatio="xMidYMid meet">
<metadata>
Created by potrace 1.16, written by Peter Selinger 2001-2019
</metadata>
<g transform="translate(0.000000,40.000000) scale(0.100000,-0.100000)"
fill="#000000" stroke="none">
<path d="M16 369 l-6 -31 0 -35 0 -35 26 6 26 7 26 -17 26 -17 -23 -18 -23
-19 -34 0 -34 0 0 -24 0 -23 6 -46 6 -45 46 1 46 2 0 -35 1 -35 53 -3 52 -3 9
24 10 25 41 7 41 7 6 14 6 15 -13 59 -13 59 -31 3 -31 3 -3 22 -3 22 23 5 23
5 25 -2 25 -2 3 63 3 62 -28 -1 -28 -1 -30 -7 -30 -6 0 -25 0 -25 -24 -3 -23
-4 -23 6 -22 6 5 26 5 26 -14 9 -14 9 -41 0 -41 0 -7 -31z"/>
</g>
</svg>
