<?xml version="1.0" standalone="no"?>
<!DOCTYPE svg PUBLIC "-//W3C//DTD SVG 20010904//EN"
 "http://www.w3.org/TR/2001/REC-SVG-20010904/DTD/svg10.dtd">
<svg version="1.0" xmlns="http://www.w3.org/2000/svg"
 width="48.000000pt" height="40.000000pt" viewBox="0 0 48.000000 40.000000"
 preserveAspectRatio="xMidYMid meet">
<metadata>
Created by potrace 1.16, written by Peter Selinger 2001-2019
</metadata>
<g transform="translate(0.000000,40.000000) scale(0.100000,-0.100000)"
fill="#000000" stroke="none">
<path d="M90 357 l0 -45 -5 -14 -6 -14 -33 4 -33 4 -7 -25 -6 -25 6 -16 6 -16
45 0 45 0 -4 -63 -3 -62 25 -3 25 -3 22 -4 22 -5 -6 -35 -6 -35 51 0 51 0 16
17 17 16 -4 34 -4 35 23 -6 23 -6 24 -6 24 -6 20 54 19 53 22 10 21 10 0 37 0
38 -40 0 -40 0 0 56 0 56 -52 -7 -53 -7 -7 -5 -8 -4 0 -20 0 -19 -9 0 -9 0
-16 -6 -16 -6 0 23 0 24 -9 14 -9 15 -61 4 -61 4 0 -45z"/>
</g>
</svg>
