<?xml version="1.0" standalone="no"?>
<!DOCTYPE svg PUBLIC "-//W3C//DTD SVG 20010904//EN"
 "http://www.w3.org/TR/2001/REC-SVG-20010904/DTD/svg10.dtd">
<svg version="1.0" xmlns="http://www.w3.org/2000/svg"
 width="46.000000pt" height="38.000000pt" viewBox="0 0 46.000000 38.000000"
 preserveAspectRatio="xMidYMid meet">
<metadata>
Created by potrace 1.16, written by Peter Selinger 2001-2019
</metadata>
<g transform="translate(0.000000,38.000000) scale(0.100000,-0.100000)"
fill="#000000" stroke="none">
<path d="M90 337 l0 -45 -6 -16 -6 -16 -33 6 -32 6 -5 -20 -6 -20 8 -12 7 -12
39 4 39 3 0 -65 0 -65 25 -3 25 -3 24 -5 23 -5 -6 -34 -7 -35 40 0 40 0 16 17
17 16 -6 33 -7 32 8 5 8 5 40 -13 39 -14 4 3 3 4 18 48 18 49 22 10 21 10 0
28 0 29 -37 -4 -38 -3 -3 58 -3 57 -42 -6 -42 -7 -5 -4 -5 -4 0 -17 0 -16 -33
-10 -34 -9 -8 13 -8 13 4 11 4 11 -9 14 -9 14 -51 5 -51 5 0 -46z"/>
</g>
</svg>
