<?xml version="1.0" standalone="no"?>
<!DOCTYPE svg PUBLIC "-//W3C//DTD SVG 20010904//EN"
 "http://www.w3.org/TR/2001/REC-SVG-20010904/DTD/svg10.dtd">
<svg version="1.0" xmlns="http://www.w3.org/2000/svg"
 width="35.000000pt" height="35.000000pt" viewBox="0 0 35.000000 35.000000"
 preserveAspectRatio="xMidYMid meet">
<metadata>
Created by potrace 1.16, written by Peter Selinger 2001-2019
</metadata>
<g transform="translate(0.000000,35.000000) scale(0.100000,-0.100000)"
fill="#000000" stroke="none">
<path d="M196 341 l-7 -10 3 -36 2 -35 -15 -15 -15 -16 -17 6 -16 7 -3 41 -3
42 -58 3 -58 3 3 -63 3 -63 40 0 40 0 0 -35 0 -35 -37 3 -37 3 -5 -23 -5 -23
-5 -47 -5 -46 57 5 57 6 18 9 17 9 0 29 0 29 9 5 9 6 16 -6 15 -6 -5 -28 -6
-28 9 -5 10 -6 65 -7 66 -7 7 73 7 72 -13 9 -14 9 -33 0 -33 0 3 17 4 18 37
-3 37 -3 0 64 0 65 -13 5 -14 5 -55 7 -56 7 -6 -11z"/>
</g>
</svg>
