<?xml version="1.0" standalone="no"?>
<!DOCTYPE svg PUBLIC "-//W3C//DTD SVG 20010904//EN"
 "http://www.w3.org/TR/2001/REC-SVG-20010904/DTD/svg10.dtd">
<svg version="1.0" xmlns="http://www.w3.org/2000/svg"
 width="32.000000pt" height="47.000000pt" viewBox="0 0 32.000000 47.000000"
 preserveAspectRatio="xMidYMid meet">
<metadata>
Created by potrace 1.16, written by Peter Selinger 2001-2019
</metadata>
<g transform="translate(0.000000,47.000000) scale(0.100000,-0.100000)"
fill="#000000" stroke="none">
<path d="M135 457 l-18 -14 7 -26 6 -27 -25 -6 -25 -6 -35 4 -34 4 -7 -43 -6
-43 5 -14 6 -14 36 1 36 1 10 -14 9 -15 -2 -25 -3 -25 -34 0 -34 0 -12 -58
-11 -57 32 0 33 0 25 -10 26 -10 0 -30 0 -30 40 0 39 0 12 21 11 21 -6 31 -6
30 37 -6 38 -5 15 -3 15 -4 3 37 3 37 -11 20 -11 21 -22 -3 -22 -2 -3 28 -3
27 23 0 24 0 12 12 12 12 0 53 0 52 -37 10 -38 11 -15 0 -16 0 -11 11 -11 11
5 15 6 15 -14 9 -14 9 -11 0 -10 0 -19 -13z"/>
</g>
</svg>
