<?xml version="1.0" standalone="no"?>
<!DOCTYPE svg PUBLIC "-//W3C//DTD SVG 20010904//EN"
 "http://www.w3.org/TR/2001/REC-SVG-20010904/DTD/svg10.dtd">
<svg version="1.0" xmlns="http://www.w3.org/2000/svg"
 width="34.000000pt" height="49.000000pt" viewBox="0 0 34.000000 49.000000"
 preserveAspectRatio="xMidYMid meet">
<metadata>
Created by potrace 1.16, written by Peter Selinger 2001-2019
</metadata>
<g transform="translate(0.000000,49.000000) scale(0.100000,-0.100000)"
fill="#000000" stroke="none">
<path d="M138 478 l-17 -13 -3 -30 -3 -30 -52 1 -52 2 -6 -43 -7 -42 4 -24 3
-24 42 -3 42 -3 6 -20 7 -21 -7 -6 -7 -7 -30 0 -31 0 -13 -60 -13 -60 0 -7 -1
-8 34 0 35 0 25 -10 26 -10 0 -30 0 -30 50 0 49 0 11 19 10 20 0 31 0 32 28
-7 27 -8 20 -1 20 -1 3 47 3 47 -11 21 -11 20 -24 0 -25 0 0 15 0 15 23 0 23
0 12 12 12 12 0 63 0 62 -37 10 -38 9 -20 4 -20 3 -4 25 -3 25 -12 7 -11 8
-21 0 -20 0 -16 -12z"/>
</g>
</svg>
