<?xml version="1.0" standalone="no"?>
<!DOCTYPE svg PUBLIC "-//W3C//DTD SVG 20010904//EN"
 "http://www.w3.org/TR/2001/REC-SVG-20010904/DTD/svg10.dtd">
<svg version="1.0" xmlns="http://www.w3.org/2000/svg"
 width="36.000000pt" height="42.000000pt" viewBox="0 0 36.000000 42.000000"
 preserveAspectRatio="xMidYMid meet">
<metadata>
Created by potrace 1.16, written by Peter Selinger 2001-2019
</metadata>
<g transform="translate(0.000000,42.000000) scale(0.100000,-0.100000)"
fill="#000000" stroke="none">
<path d="M155 410 l-6 -9 7 -24 6 -25 -14 -8 -13 -9 -50 -5 -50 -5 -9 -36 -9
-36 7 -27 6 -26 40 0 40 0 0 -9 0 -10 -12 -8 -13 -8 -40 0 -40 0 2 -74 2 -74
6 -5 5 -5 61 -3 61 -4 20 11 20 11 -6 23 -6 23 15 12 14 12 11 -7 10 -6 0 -24
0 -25 23 -4 22 -5 37 -6 36 -6 7 21 6 20 -16 50 -17 50 -24 0 -24 0 0 13 0 13
11 11 11 11 34 -5 34 -6 0 75 0 75 -60 12 -61 12 7 21 6 20 -13 9 -14 9 -32 0
-32 0 -6 -10z"/>
</g>
</svg>
