<?xml version="1.0" standalone="no"?>
<!DOCTYPE svg PUBLIC "-//W3C//DTD SVG 20010904//EN"
 "http://www.w3.org/TR/2001/REC-SVG-20010904/DTD/svg10.dtd">
<svg version="1.0" xmlns="http://www.w3.org/2000/svg"
 width="34.000000pt" height="40.000000pt" viewBox="0 0 34.000000 40.000000"
 preserveAspectRatio="xMidYMid meet">
<metadata>
Created by potrace 1.16, written by Peter Selinger 2001-2019
</metadata>
<g transform="translate(0.000000,40.000000) scale(0.100000,-0.100000)"
fill="#000000" stroke="none">
<path d="M159 393 l-1 -8 2 -27 1 -26 -13 -8 -13 -9 -49 -5 -49 -5 -10 -28 -9
-28 7 -26 6 -25 35 5 35 6 6 -16 6 -16 -10 -16 -10 -16 -44 0 -44 0 1 -40 2
-40 3 -27 4 -28 5 0 5 -1 50 -3 50 -4 16 9 16 8 -4 24 -5 23 16 13 16 13 25
-6 25 -6 -6 -25 -6 -24 24 -5 23 -5 27 -4 27 -4 5 13 5 13 -16 46 -15 46 -22
-3 -21 -3 -3 23 -4 23 13 15 13 16 33 -7 33 -6 0 64 0 64 -61 12 -61 12 4 24
5 24 -14 5 -15 6 -19 0 -19 0 -1 -7z"/>
</g>
</svg>
