<?xml version="1.0" standalone="no"?>
<!DOCTYPE svg PUBLIC "-//W3C//DTD SVG 20010904//EN"
 "http://www.w3.org/TR/2001/REC-SVG-20010904/DTD/svg10.dtd">
<svg version="1.0" xmlns="http://www.w3.org/2000/svg"
 width="42.000000pt" height="50.000000pt" viewBox="0 0 42.000000 50.000000"
 preserveAspectRatio="xMidYMid meet">
<metadata>
Created by potrace 1.16, written by Peter Selinger 2001-2019
</metadata>
<g transform="translate(0.000000,50.000000) scale(0.100000,-0.100000)"
fill="#000000" stroke="none">
<path d="M205 490 l-6 -9 7 -25 6 -24 -20 -11 -21 -11 -40 0 -41 0 0 -58 0
-58 -33 4 -33 4 -13 -15 -12 -16 3 -33 3 -33 22 1 22 1 11 -30 10 -30 0 -28 0
-29 60 0 60 0 0 -35 0 -34 19 -11 20 -10 23 0 24 0 12 12 12 12 0 16 0 17 55
12 54 12 6 32 6 32 -3 50 -3 50 -38 1 -38 1 -11 11 -11 11 44 -2 44 -2 3 76 3
76 -63 -1 -63 -1 3 14 3 14 -12 29 -11 28 -29 0 -28 0 -6 -10z"/>
</g>
</svg>
