<?xml version="1.0" standalone="no"?>
<!DOCTYPE svg PUBLIC "-//W3C//DTD SVG 20010904//EN"
 "http://www.w3.org/TR/2001/REC-SVG-20010904/DTD/svg10.dtd">
<svg version="1.0" xmlns="http://www.w3.org/2000/svg"
 width="40.000000pt" height="48.000000pt" viewBox="0 0 40.000000 48.000000"
 preserveAspectRatio="xMidYMid meet">
<metadata>
Created by potrace 1.16, written by Peter Selinger 2001-2019
</metadata>
<g transform="translate(0.000000,48.000000) scale(0.100000,-0.100000)"
fill="#000000" stroke="none">
<path d="M209 473 l-1 -8 2 -27 1 -27 -20 -10 -20 -11 -40 0 -41 0 0 -60 0
-61 -33 6 -33 7 -13 -16 -13 -15 4 -23 3 -23 21 3 22 3 15 -46 16 -46 -6 -14
-5 -15 64 0 64 0 -4 -35 -4 -34 27 -13 27 -12 16 11 17 10 0 19 0 18 57 14 57
14 6 32 6 32 -3 39 -3 40 -29 -2 -29 -2 -18 10 -19 10 0 15 0 15 43 -3 42 -3
3 65 3 65 -63 0 -63 0 -1 20 0 20 -8 23 -7 22 -20 0 -19 0 -1 -7z"/>
</g>
</svg>
