<?xml version="1.0" standalone="no"?>
<!DOCTYPE svg PUBLIC "-//W3C//DTD SVG 20010904//EN"
 "http://www.w3.org/TR/2001/REC-SVG-20010904/DTD/svg10.dtd">
<svg version="1.0" xmlns="http://www.w3.org/2000/svg"
 width="40.000000pt" height="48.000000pt" viewBox="0 0 40.000000 48.000000"
 preserveAspectRatio="xMidYMid meet">
<metadata>
Created by potrace 1.16, written by Peter Selinger 2001-2019
</metadata>
<g transform="translate(0.000000,48.000000) scale(0.100000,-0.100000)"
fill="#000000" stroke="none">
<path d="M119 473 l-2 -8 -1 -30 -1 -30 -58 -3 -58 -3 3 -147 3 -147 52 -3 52
-3 3 -42 3 -42 27 -9 27 -10 21 19 20 18 -5 18 -6 17 18 6 18 5 37 7 38 6 -6
24 -6 24 7 46 7 46 33 -6 34 -7 9 18 10 18 -9 22 -8 23 -29 -6 -28 -6 -11 14
-12 13 -3 45 -3 45 -60 15 -60 15 -3 23 -3 22 -25 0 -24 0 -1 -7z"/>
</g>
</svg>
