<?xml version="1.0" standalone="no"?>
<!DOCTYPE svg PUBLIC "-//W3C//DTD SVG 20010904//EN"
 "http://www.w3.org/TR/2001/REC-SVG-20010904/DTD/svg10.dtd">
<svg version="1.0" xmlns="http://www.w3.org/2000/svg"
 width="42.000000pt" height="50.000000pt" viewBox="0 0 42.000000 50.000000"
 preserveAspectRatio="xMidYMid meet">
<metadata>
Created by potrace 1.16, written by Peter Selinger 2001-2019
</metadata>
<g transform="translate(0.000000,50.000000) scale(0.100000,-0.100000)"
fill="#000000" stroke="none">
<path d="M114 487 l-5 -13 3 -24 3 -25 -58 -3 -58 -3 3 -157 3 -157 53 -3 52
-3 0 -39 0 -39 19 -11 20 -10 24 0 24 0 15 18 16 17 4 20 3 20 49 9 48 8 -7
34 -6 34 7 34 6 34 34 -5 33 -6 11 25 11 24 -11 28 -10 28 -29 -5 -29 -6 -10
12 -11 12 -3 45 -3 45 -60 15 -60 15 -3 23 -3 22 -35 0 -35 0 -5 -13z"/>
</g>
</svg>
