<?xml version="1.0" standalone="no"?>
<!DOCTYPE svg PUBLIC "-//W3C//DTD SVG 20010904//EN"
 "http://www.w3.org/TR/2001/REC-SVG-20010904/DTD/svg10.dtd">
<svg version="1.0" xmlns="http://www.w3.org/2000/svg"
 width="35.000000pt" height="48.000000pt" viewBox="0 0 35.000000 48.000000"
 preserveAspectRatio="xMidYMid meet">
<metadata>
Created by potrace 1.16, written by Peter Selinger 2001-2019
</metadata>
<g transform="translate(0.000000,48.000000) scale(0.100000,-0.100000)"
fill="#000000" stroke="none">
<path d="M140 440 l0 -40 -59 0 -59 0 -6 -22 -6 -23 0 -40 0 -40 9 -13 8 -14
24 3 24 3 0 -9 0 -10 -25 -1 -25 -1 -12 -1 -13 -2 0 -29 0 -28 6 -47 7 -46 48
0 47 0 14 -5 14 -6 -4 -29 -4 -29 26 -7 25 -6 28 9 28 10 5 33 5 34 49 -3 48
-3 -7 64 -7 63 -5 8 -4 7 -25 0 -24 0 0 23 0 23 12 12 12 12 26 0 25 0 0 60 0
60 -17 0 -16 0 -4 -10 -3 -9 -35 -3 -35 -3 -3 35 -4 35 -10 12 -10 13 -34 0
-34 0 0 -40z"/>
</g>
</svg>
