<?xml version="1.0" standalone="no"?>
<!DOCTYPE svg PUBLIC "-//W3C//DTD SVG 20010904//EN"
 "http://www.w3.org/TR/2001/REC-SVG-20010904/DTD/svg10.dtd">
<svg version="1.0" xmlns="http://www.w3.org/2000/svg"
 width="33.000000pt" height="46.000000pt" viewBox="0 0 33.000000 46.000000"
 preserveAspectRatio="xMidYMid meet">
<metadata>
Created by potrace 1.16, written by Peter Selinger 2001-2019
</metadata>
<g transform="translate(0.000000,46.000000) scale(0.100000,-0.100000)"
fill="#000000" stroke="none">
<path d="M140 433 l2 -28 -1 -12 -1 -13 -59 0 -59 0 -6 -22 -6 -23 0 -30 0
-30 8 -12 8 -12 29 2 30 2 0 -20 0 -20 -38 -1 -37 -1 -6 -6 -6 -6 7 -60 7 -61
51 0 52 0 13 -9 13 -8 -6 -26 -7 -25 20 -6 19 -7 28 11 27 10 -4 30 -4 29 12
5 12 4 42 -5 42 -6 -7 49 -6 49 -4 12 -4 13 -13 -5 -13 -5 -14 9 -13 9 0 26 0
26 12 15 12 15 27 0 26 0 0 50 0 50 -7 0 -8 0 0 -9 0 -9 -40 -7 -41 -7 -13 11
-13 11 5 25 4 25 -12 15 -12 15 -25 0 -25 0 2 -27z"/>
</g>
</svg>
