<?xml version="1.0" standalone="no"?>
<!DOCTYPE svg PUBLIC "-//W3C//DTD SVG 20010904//EN"
 "http://www.w3.org/TR/2001/REC-SVG-20010904/DTD/svg10.dtd">
<svg version="1.0" xmlns="http://www.w3.org/2000/svg"
 width="41.000000pt" height="51.000000pt" viewBox="0 0 41.000000 51.000000"
 preserveAspectRatio="xMidYMid meet">
<metadata>
Created by potrace 1.16, written by Peter Selinger 2001-2019
</metadata>
<g transform="translate(0.000000,51.000000) scale(0.100000,-0.100000)"
fill="#000000" stroke="none">
<path d="M207 503 l-7 -7 6 -31 6 -31 -14 -12 -14 -11 -54 -3 -55 -3 -3 -52
-3 -52 -32 -3 -32 -3 -3 -37 -3 -36 23 -16 22 -16 28 0 28 0 0 -5 0 -6 -15
-36 -15 -35 0 -9 0 -9 63 0 62 0 2 -37 2 -36 13 -8 13 -9 23 0 23 0 20 10 19
11 0 18 0 19 50 12 51 12 -3 82 -3 81 -25 2 -25 1 -12 1 -13 1 0 10 0 10 34 0
34 0 6 16 6 16 0 48 0 49 -11 7 -11 7 -52 11 -51 12 3 22 3 23 -11 15 -12 14
-28 0 -27 0 -6 -7z"/>
</g>
</svg>
