<?xml version="1.0" standalone="no"?>
<!DOCTYPE svg PUBLIC "-//W3C//DTD SVG 20010904//EN"
 "http://www.w3.org/TR/2001/REC-SVG-20010904/DTD/svg10.dtd">
<svg version="1.0" xmlns="http://www.w3.org/2000/svg"
 width="42.000000pt" height="49.000000pt" viewBox="0 0 42.000000 49.000000"
 preserveAspectRatio="xMidYMid meet">
<metadata>
Created by potrace 1.16, written by Peter Selinger 2001-2019
</metadata>
<g transform="translate(0.000000,49.000000) scale(0.100000,-0.100000)"
fill="#000000" stroke="none">
<path d="M132 455 l2 -34 -8 -8 -8 -8 -56 -5 -57 -5 0 -70 0 -70 34 -5 34 -5
5 -12 4 -13 -21 0 -21 0 -9 -23 -8 -22 -12 -36 -11 -35 0 -12 0 -12 49 0 48 0
6 -29 6 -30 22 -11 21 -12 35 7 35 6 5 18 5 19 51 13 52 14 3 58 3 57 34 0 33
0 7 30 6 30 -7 22 -7 23 -11 7 -11 8 -27 0 -28 0 0 44 0 44 -27 6 -28 5 -37 6
-38 6 0 34 0 35 -35 0 -36 0 3 -35z"/>
</g>
</svg>
