<?xml version="1.0" standalone="no"?>
<!DOCTYPE svg PUBLIC "-//W3C//DTD SVG 20010904//EN"
 "http://www.w3.org/TR/2001/REC-SVG-20010904/DTD/svg10.dtd">
<svg version="1.0" xmlns="http://www.w3.org/2000/svg"
 width="43.000000pt" height="42.000000pt" viewBox="0 0 43.000000 42.000000"
 preserveAspectRatio="xMidYMid meet">
<metadata>
Created by potrace 1.16, written by Peter Selinger 2001-2019
</metadata>
<g transform="translate(0.000000,42.000000) scale(0.100000,-0.100000)"
fill="#000000" stroke="none">
<path d="M198 378 l-3 -43 -60 -5 -60 -5 -3 -42 -3 -43 -22 0 -22 0 -13 -9
-13 -8 3 -49 3 -49 28 -3 27 -3 2 -27 1 -27 -2 -26 -2 -26 76 -7 75 -7 11 6
10 7 -3 32 -2 32 8 12 7 12 10 0 9 0 0 -30 0 -30 28 -6 27 -5 43 -16 43 -15 4
4 4 4 12 45 12 45 -7 27 -7 28 -37 -3 -37 -3 -3 22 -3 22 33 3 33 3 0 65 0 65
-62 -3 -63 -3 -1 13 -1 13 2 23 2 23 -12 15 -12 14 -29 0 -28 0 -3 -42z"/>
</g>
</svg>
