<?xml version="1.0" standalone="no"?>
<!DOCTYPE svg PUBLIC "-//W3C//DTD SVG 20010904//EN"
 "http://www.w3.org/TR/2001/REC-SVG-20010904/DTD/svg10.dtd">
<svg version="1.0" xmlns="http://www.w3.org/2000/svg"
 width="48.000000pt" height="47.000000pt" viewBox="0 0 48.000000 47.000000"
 preserveAspectRatio="xMidYMid meet">
<metadata>
Created by potrace 1.16, written by Peter Selinger 2001-2019
</metadata>
<g transform="translate(0.000000,47.000000) scale(0.100000,-0.100000)"
fill="#000000" stroke="none">
<path d="M203 459 l-11 -11 5 -34 6 -34 -61 0 -61 0 -3 -57 -3 -58 -20 -1 -20
-2 -11 -1 -12 -1 -6 -16 -6 -15 11 -21 11 -20 34 5 34 6 6 -24 6 -25 -11 -31
-11 -32 0 -3 0 -4 33 0 32 0 13 -9 13 -8 -6 -26 -7 -26 25 -6 24 -6 34 3 34 3
0 25 0 25 52 9 52 9 6 46 7 46 4 16 5 17 18 -5 19 -5 21 11 21 12 0 24 0 24
-21 11 -20 11 -30 -6 -29 -7 0 51 0 50 -19 11 -20 10 -29 0 -30 0 -10 13 -10
12 -4 25 -3 25 -20 3 -20 3 -12 -12z"/>
</g>
</svg>
