<?xml version="1.0" standalone="no"?>
<!DOCTYPE svg PUBLIC "-//W3C//DTD SVG 20010904//EN"
 "http://www.w3.org/TR/2001/REC-SVG-20010904/DTD/svg10.dtd">
<svg version="1.0" xmlns="http://www.w3.org/2000/svg"
 width="49.000000pt" height="34.000000pt" viewBox="0 0 49.000000 34.000000"
 preserveAspectRatio="xMidYMid meet">
<metadata>
Created by potrace 1.16, written by Peter Selinger 2001-2019
</metadata>
<g transform="translate(0.000000,34.000000) scale(0.100000,-0.100000)"
fill="#000000" stroke="none">
<path d="M264 308 l6 -35 -14 -12 -15 -13 -18 4 -18 3 -5 30 -5 30 -53 3 -52
3 0 -50 0 -51 -35 0 -34 0 -11 -20 -11 -21 6 -19 6 -20 17 -2 17 -1 15 -3 15
-2 12 -1 12 -1 -6 -65 -6 -65 72 0 71 0 0 41 0 41 13 -4 12 -5 3 -26 3 -26 17
-5 17 -5 63 -6 62 -7 0 25 0 25 6 31 7 31 18 0 18 0 11 19 10 20 0 25 0 25
-22 15 -22 16 -23 0 -23 0 6 43 6 44 -18 7 -17 7 -60 6 -60 6 7 -35z"/>
</g>
</svg>
