<?xml version="1.0" standalone="no"?>
<!DOCTYPE svg PUBLIC "-//W3C//DTD SVG 20010904//EN"
 "http://www.w3.org/TR/2001/REC-SVG-20010904/DTD/svg10.dtd">
<svg version="1.0" xmlns="http://www.w3.org/2000/svg"
 width="47.000000pt" height="32.000000pt" viewBox="0 0 47.000000 32.000000"
 preserveAspectRatio="xMidYMid meet">
<metadata>
Created by potrace 1.16, written by Peter Selinger 2001-2019
</metadata>
<g transform="translate(0.000000,32.000000) scale(0.100000,-0.100000)"
fill="#000000" stroke="none">
<path d="M266 291 l6 -31 -12 -15 -12 -15 -27 0 -26 0 -10 8 -10 7 0 25 0 25
-42 3 -43 3 0 -55 0 -55 -34 6 -34 5 -10 -19 -11 -19 8 -13 8 -13 34 -2 34 -3
8 -2 9 -1 -7 -65 -7 -65 62 0 63 0 -6 35 -6 35 10 6 10 6 25 -6 24 -6 -6 -25
-6 -24 24 -5 23 -5 45 -6 46 -6 2 28 2 28 8 30 8 30 19 0 19 0 11 29 10 28
-24 19 -23 19 -25 0 -25 0 6 44 7 44 -15 5 -16 6 -50 7 -50 7 6 -32z"/>
</g>
</svg>
