<?xml version="1.0" standalone="no"?>
<!DOCTYPE svg PUBLIC "-//W3C//DTD SVG 20010904//EN"
 "http://www.w3.org/TR/2001/REC-SVG-20010904/DTD/svg10.dtd">
<svg version="1.0" xmlns="http://www.w3.org/2000/svg"
 width="43.000000pt" height="38.000000pt" viewBox="0 0 43.000000 38.000000"
 preserveAspectRatio="xMidYMid meet">
<metadata>
Created by potrace 1.16, written by Peter Selinger 2001-2019
</metadata>
<g transform="translate(0.000000,38.000000) scale(0.100000,-0.100000)"
fill="#000000" stroke="none">
<path d="M155 357 l-6 -23 3 -15 3 -14 -67 3 -68 4 0 -61 0 -61 31 2 31 3 11
-17 11 -16 -14 -17 -13 -16 -39 6 -38 7 0 -40 0 -39 10 -29 10 -29 53 1 52 1
12 1 13 2 -6 28 -6 27 20 19 21 18 21 -7 21 -7 -4 -12 -5 -13 7 -12 8 -12 34
-9 34 -8 18 -7 17 -7 0 28 0 29 6 38 7 37 27 -2 28 -2 16 13 16 14 -12 14 -12
15 -33 -5 -33 -6 -11 20 -10 20 2 47 3 47 -44 11 -45 10 -18 8 -18 9 5 13 5
14 -24 0 -25 0 -5 -23z"/>
</g>
</svg>
