<?xml version="1.0" standalone="no"?>
<!DOCTYPE svg PUBLIC "-//W3C//DTD SVG 20010904//EN"
 "http://www.w3.org/TR/2001/REC-SVG-20010904/DTD/svg10.dtd">
<svg version="1.0" xmlns="http://www.w3.org/2000/svg"
 width="45.000000pt" height="40.000000pt" viewBox="0 0 45.000000 40.000000"
 preserveAspectRatio="xMidYMid meet">
<metadata>
Created by potrace 1.16, written by Peter Selinger 2001-2019
</metadata>
<g transform="translate(0.000000,40.000000) scale(0.100000,-0.100000)"
fill="#000000" stroke="none">
<path d="M156 384 l-6 -16 0 -23 0 -23 -65 6 -65 5 0 -72 0 -73 28 3 27 3 13
-8 13 -8 -11 -13 -11 -13 -39 5 -40 6 0 -50 0 -50 10 -30 11 -29 52 -1 52 -1
24 4 23 5 -5 28 -6 29 19 17 20 18 11 -32 11 -31 26 -6 27 -5 23 -10 23 -9 14
0 15 0 0 28 0 27 6 37 7 38 21 -6 22 -5 25 20 24 20 -11 18 -11 18 -41 3 -42
3 -6 23 -5 23 3 38 3 39 -50 11 -50 11 -10 22 -10 22 -31 0 -32 0 -6 -16z"/>
</g>
</svg>
