<?xml version="1.0" standalone="no"?>
<!DOCTYPE svg PUBLIC "-//W3C//DTD SVG 20010904//EN"
 "http://www.w3.org/TR/2001/REC-SVG-20010904/DTD/svg10.dtd">
<svg version="1.0" xmlns="http://www.w3.org/2000/svg"
 width="39.000000pt" height="33.000000pt" viewBox="0 0 39.000000 33.000000"
 preserveAspectRatio="xMidYMid meet">
<metadata>
Created by potrace 1.16, written by Peter Selinger 2001-2019
</metadata>
<g transform="translate(0.000000,33.000000) scale(0.100000,-0.100000)"
fill="#000000" stroke="none">
<path d="M215 284 l0 -47 -16 -10 -16 -10 -26 7 -26 6 2 38 2 37 -60 0 -60 0
-3 -52 -3 -53 13 -1 13 -2 25 -1 25 -1 3 -24 4 -23 -11 -11 -11 -11 -33 -1
-32 0 -3 -19 -4 -18 6 -42 6 -41 63 5 62 5 0 38 0 38 17 10 16 9 17 -6 16 -7
-5 -22 -6 -23 13 -10 12 -10 42 -7 41 -6 -5 61 -6 62 40 -6 40 -7 13 16 14 17
-11 16 -11 17 -32 -3 -32 -2 4 64 3 65 -29 5 -28 6 -22 0 -21 0 0 -46z"/>
</g>
</svg>
