<?xml version="1.0" standalone="no"?>
<!DOCTYPE svg PUBLIC "-//W3C//DTD SVG 20010904//EN"
 "http://www.w3.org/TR/2001/REC-SVG-20010904/DTD/svg10.dtd">
<svg version="1.0" xmlns="http://www.w3.org/2000/svg"
 width="50.000000pt" height="42.000000pt" viewBox="0 0 50.000000 42.000000"
 preserveAspectRatio="xMidYMid meet">
<metadata>
Created by potrace 1.16, written by Peter Selinger 2001-2019
</metadata>
<g transform="translate(0.000000,42.000000) scale(0.100000,-0.100000)"
fill="#000000" stroke="none">
<path d="M282 411 l-14 -8 3 -24 3 -24 -8 -23 -8 -23 -16 3 -17 4 3 28 3 28
-12 14 -11 14 -58 0 -57 0 -6 -46 -5 -46 -12 -8 -12 -8 -20 6 -20 5 -9 -14 -9
-14 0 -27 0 -27 16 -16 17 -16 23 5 24 6 1 -47 1 -48 -2 -18 -1 -18 35 7 36 6
25 -6 25 -6 -2 -33 -3 -32 45 0 45 0 9 31 9 31 51 9 51 9 -1 25 -1 25 -4 29
-4 28 37 3 37 2 16 13 16 13 -3 41 -3 41 -42 3 -43 3 0 39 0 39 -17 9 -18 9
-40 6 -40 6 -13 -8z"/>
</g>
</svg>
