<?xml version="1.0" standalone="no"?>
<!DOCTYPE svg PUBLIC "-//W3C//DTD SVG 20010904//EN"
 "http://www.w3.org/TR/2001/REC-SVG-20010904/DTD/svg10.dtd">
<svg version="1.0" xmlns="http://www.w3.org/2000/svg"
 width="51.000000pt" height="42.000000pt" viewBox="0 0 51.000000 42.000000"
 preserveAspectRatio="xMidYMid meet">
<metadata>
Created by potrace 1.16, written by Peter Selinger 2001-2019
</metadata>
<g transform="translate(0.000000,42.000000) scale(0.100000,-0.100000)"
fill="#000000" stroke="none">
<path d="M313 391 l6 -29 -14 -12 -14 -11 -28 3 -27 3 -1 30 0 30 -67 3 -67 3
-3 -53 -3 -53 -39 0 -39 0 -10 -28 -9 -28 16 -24 16 -25 30 0 30 0 2 -27 2
-28 -2 -27 -2 -28 54 0 55 0 8 -12 7 -13 -3 -27 -2 -27 36 -7 37 -7 24 12 24
11 0 36 0 37 54 -7 54 -6 -1 68 -2 67 26 -3 26 -2 12 14 12 15 -3 28 -3 28
-30 2 -30 1 -12 1 -12 1 -3 58 -3 57 -54 3 -54 3 6 -30z"/>
</g>
</svg>
