<?xml version="1.0" standalone="no"?>
<!DOCTYPE svg PUBLIC "-//W3C//DTD SVG 20010904//EN"
 "http://www.w3.org/TR/2001/REC-SVG-20010904/DTD/svg10.dtd">
<svg version="1.0" xmlns="http://www.w3.org/2000/svg"
 width="49.000000pt" height="40.000000pt" viewBox="0 0 49.000000 40.000000"
 preserveAspectRatio="xMidYMid meet">
<metadata>
Created by potrace 1.16, written by Peter Selinger 2001-2019
</metadata>
<g transform="translate(0.000000,40.000000) scale(0.100000,-0.100000)"
fill="#000000" stroke="none">
<path d="M316 373 l6 -29 -15 -13 -16 -12 -38 3 -38 3 0 30 0 30 -57 3 -57 3
-3 -53 -3 -53 -39 0 -39 0 -8 -21 -8 -22 16 -21 15 -22 26 3 26 3 8 -40 9 -40
-5 -17 -4 -18 53 0 53 0 11 -14 12 -14 -6 -25 -7 -25 31 -7 30 -6 20 11 21 11
0 36 0 35 53 -4 52 -4 0 65 0 66 29 0 29 1 10 16 10 15 -6 17 -7 18 -27 -6
-28 -6 -12 8 -12 7 -3 55 -3 55 -42 3 -43 3 6 -28z"/>
</g>
</svg>
