<?xml version="1.0" standalone="no"?>
<!DOCTYPE svg PUBLIC "-//W3C//DTD SVG 20010904//EN"
 "http://www.w3.org/TR/2001/REC-SVG-20010904/DTD/svg10.dtd">
<svg version="1.0" xmlns="http://www.w3.org/2000/svg"
 width="37.000000pt" height="38.000000pt" viewBox="0 0 37.000000 38.000000"
 preserveAspectRatio="xMidYMid meet">
<metadata>
Created by potrace 1.16, written by Peter Selinger 2001-2019
</metadata>
<g transform="translate(0.000000,38.000000) scale(0.100000,-0.100000)"
fill="#000000" stroke="none">
<path d="M0 317 l0 -59 29 7 30 6 20 -11 21 -11 0 -24 0 -24 -21 -12 -21 -11
-19 5 -19 5 -4 -21 -5 -22 -6 -39 -6 -39 55 6 55 5 3 -36 3 -37 30 0 30 0 -1
17 -2 17 58 12 58 11 -1 62 -2 61 32 0 33 1 11 11 11 11 -4 23 -3 24 -25 1
-25 1 -12 2 -13 1 0 55 0 55 -50 0 -50 0 0 -35 0 -35 -26 -12 -26 -12 -16 11
-17 10 0 34 -1 34 -52 5 -52 6 0 -59z"/>
</g>
</svg>
