<?xml version="1.0" standalone="no"?>
<!DOCTYPE svg PUBLIC "-//W3C//DTD SVG 20010904//EN"
 "http://www.w3.org/TR/2001/REC-SVG-20010904/DTD/svg10.dtd">
<svg version="1.0" xmlns="http://www.w3.org/2000/svg"
 width="40.000000pt" height="46.000000pt" viewBox="0 0 40.000000 46.000000"
 preserveAspectRatio="xMidYMid meet">
<metadata>
Created by potrace 1.16, written by Peter Selinger 2001-2019
</metadata>
<g transform="translate(0.000000,46.000000) scale(0.100000,-0.100000)"
fill="#000000" stroke="none">
<path d="M143 449 l-12 -12 6 -28 5 -28 -68 -3 -69 -3 -3 -42 -3 -42 10 -20
11 -20 33 6 33 5 12 -15 12 -14 -16 -14 -16 -13 -28 2 -27 2 -7 -37 -6 -38 0
-30 0 -30 55 0 56 0 9 -15 10 -15 -4 -11 -4 -11 8 -13 8 -13 34 9 33 10 0 19
0 18 10 3 10 2 39 7 38 6 -4 5 -4 4 11 57 12 58 34 0 34 0 3 25 2 25 -9 14 -9
14 -38 1 -39 1 0 55 0 55 -57 19 -58 18 0 19 0 19 -18 0 -18 0 -11 -11z"/>
</g>
</svg>
