<?xml version="1.0" standalone="no"?>
<!DOCTYPE svg PUBLIC "-//W3C//DTD SVG 20010904//EN"
 "http://www.w3.org/TR/2001/REC-SVG-20010904/DTD/svg10.dtd">
<svg version="1.0" xmlns="http://www.w3.org/2000/svg"
 width="42.000000pt" height="48.000000pt" viewBox="0 0 42.000000 48.000000"
 preserveAspectRatio="xMidYMid meet">
<metadata>
Created by potrace 1.16, written by Peter Selinger 2001-2019
</metadata>
<g transform="translate(0.000000,48.000000) scale(0.100000,-0.100000)"
fill="#000000" stroke="none">
<path d="M140 465 l-12 -15 6 -24 6 -25 -67 -3 -68 -3 -3 -52 -3 -52 11 -21
11 -21 32 3 32 3 5 -10 5 -10 -36 -3 -37 -3 -6 -37 -6 -37 0 -43 0 -44 30 7
30 7 30 -7 30 -7 0 -18 0 -18 6 -16 6 -16 23 0 24 0 25 10 26 10 0 20 0 20 23
0 22 0 22 6 21 6 7 58 7 59 36 3 37 3 3 35 2 35 -9 14 -9 14 -39 2 -38 3 0 53
0 54 -57 19 -58 18 0 19 0 19 -29 0 -29 0 -12 -15z"/>
</g>
</svg>
