<?xml version="1.0" standalone="no"?>
<!DOCTYPE svg PUBLIC "-//W3C//DTD SVG 20010904//EN"
 "http://www.w3.org/TR/2001/REC-SVG-20010904/DTD/svg10.dtd">
<svg version="1.0" xmlns="http://www.w3.org/2000/svg"
 width="42.000000pt" height="48.000000pt" viewBox="0 0 42.000000 48.000000"
 preserveAspectRatio="xMidYMid meet">
<metadata>
Created by potrace 1.16, written by Peter Selinger 2001-2019
</metadata>
<g transform="translate(0.000000,48.000000) scale(0.100000,-0.100000)"
fill="#000000" stroke="none">
<path d="M220 461 l-10 -20 0 -24 0 -25 -59 5 -60 6 -3 -64 -3 -64 -43 3 -42
4 0 -26 0 -25 21 -11 20 -11 27 3 27 3 -2 -68 -1 -67 42 0 42 0 16 -13 17 -12
3 -25 3 -25 39 0 39 0 11 20 11 20 9 7 9 6 44 7 44 6 -6 42 -7 42 -7 35 -7 35
-32 3 -33 3 4 12 4 12 42 -3 41 -3 0 72 0 72 -47 -8 -48 -7 -20 -2 -20 -1 3
29 3 29 -6 24 -5 23 -25 0 -24 0 -11 -19z"/>
</g>
</svg>
