<?xml version="1.0" standalone="no"?>
<!DOCTYPE svg PUBLIC "-//W3C//DTD SVG 20010904//EN"
 "http://www.w3.org/TR/2001/REC-SVG-20010904/DTD/svg10.dtd">
<svg version="1.0" xmlns="http://www.w3.org/2000/svg"
 width="41.000000pt" height="48.000000pt" viewBox="0 0 41.000000 48.000000"
 preserveAspectRatio="xMidYMid meet">
<metadata>
Created by potrace 1.16, written by Peter Selinger 2001-2019
</metadata>
<g transform="translate(0.000000,48.000000) scale(0.100000,-0.100000)"
fill="#000000" stroke="none">
<path d="M213 473 l-13 -5 0 -38 0 -39 -55 6 -55 6 0 -64 0 -64 -42 0 -43 0 0
-35 0 -35 30 0 30 -1 10 -59 10 -60 50 -5 49 -5 1 -35 0 -35 50 0 49 0 6 25 6
25 57 9 57 8 0 12 0 11 -18 60 -18 60 -22 10 -22 10 0 12 0 13 34 0 34 0 6 16
6 16 0 54 0 53 -67 -2 -68 -2 3 32 3 32 -20 10 -20 11 -8 -1 -8 -1 -12 -5z"/>
</g>
</svg>
