<?xml version="1.0" standalone="no"?>
<!DOCTYPE svg PUBLIC "-//W3C//DTD SVG 20010904//EN"
 "http://www.w3.org/TR/2001/REC-SVG-20010904/DTD/svg10.dtd">
<svg version="1.0" xmlns="http://www.w3.org/2000/svg"
 width="36.000000pt" height="43.000000pt" viewBox="0 0 36.000000 43.000000"
 preserveAspectRatio="xMidYMid meet">
<metadata>
Created by potrace 1.16, written by Peter Selinger 2001-2019
</metadata>
<g transform="translate(0.000000,43.000000) scale(0.100000,-0.100000)"
fill="#000000" stroke="none">
<path d="M200 389 l0 -44 -9 -14 -9 -14 -15 6 -15 5 5 26 5 26 -12 15 -12 15
-64 0 -64 0 0 -59 0 -59 14 -12 15 -11 23 3 23 3 0 -20 0 -20 -26 3 -26 2 -10
-12 -10 -13 -6 -63 -7 -62 55 0 54 0 8 -12 8 -13 -3 -18 -3 -18 11 -15 12 -14
32 0 31 0 11 8 11 7 12 22 11 22 0 21 0 22 44 -6 43 -7 13 44 12 45 -4 18 -4
19 -29 -3 -30 -2 -22 11 -22 12 -6 15 -5 15 11 13 11 13 28 -5 28 -6 11 20 11
21 0 45 0 45 -11 6 -10 7 -60 5 -59 6 0 -44z"/>
</g>
</svg>
