<?xml version="1.0" standalone="no"?>
<!DOCTYPE svg PUBLIC "-//W3C//DTD SVG 20010904//EN"
 "http://www.w3.org/TR/2001/REC-SVG-20010904/DTD/svg10.dtd">
<svg version="1.0" xmlns="http://www.w3.org/2000/svg"
 width="29.000000pt" height="38.000000pt" viewBox="0 0 29.000000 38.000000"
 preserveAspectRatio="xMidYMid meet">
<metadata>
Created by potrace 1.16, written by Peter Selinger 2001-2019
</metadata>
<g transform="translate(0.000000,38.000000) scale(0.100000,-0.100000)"
fill="#000000" stroke="none">
<path d="M0 331 l0 -51 40 0 40 0 6 -26 7 -25 -12 -25 -11 -25 -19 6 -19 6 -5
-8 -4 -8 -7 -47 -7 -48 45 0 45 0 3 -37 3 -38 32 -3 32 -3 11 21 12 22 -7 25
-6 26 51 -6 51 -6 5 14 6 13 -9 44 -9 43 -26 -3 -26 -3 -15 22 -16 21 8 22 8
21 39 0 39 0 3 53 3 52 -35 0 -34 0 -14 -5 -14 -6 4 -28 4 -29 -22 -12 -22
-12 -23 6 -24 6 -3 38 -3 37 -52 3 -53 3 0 -50z"/>
</g>
</svg>
