<?xml version="1.0" standalone="no"?>
<!DOCTYPE svg PUBLIC "-//W3C//DTD SVG 20010904//EN"
 "http://www.w3.org/TR/2001/REC-SVG-20010904/DTD/svg10.dtd">
<svg version="1.0" xmlns="http://www.w3.org/2000/svg"
 width="31.000000pt" height="40.000000pt" viewBox="0 0 31.000000 40.000000"
 preserveAspectRatio="xMidYMid meet">
<metadata>
Created by potrace 1.16, written by Peter Selinger 2001-2019
</metadata>
<g transform="translate(0.000000,40.000000) scale(0.100000,-0.100000)"
fill="#000000" stroke="none">
<path d="M0 340 l0 -60 39 0 40 0 6 -19 5 -18 -6 -17 -6 -16 -23 0 -24 0 -4
-7 -5 -8 -7 -57 -7 -58 45 0 46 0 3 -37 3 -38 40 -3 39 -3 13 17 13 18 0 29 0
28 45 -7 45 -6 6 16 7 17 -9 52 -9 52 -27 0 -27 0 -11 11 -12 12 4 18 3 18 40
0 40 1 3 63 3 62 -48 0 -48 0 -13 -9 -13 -8 6 -26 7 -25 -20 -11 -21 -11 -15
6 -15 6 -3 36 -3 37 -62 3 -63 3 0 -61z"/>
</g>
</svg>
