<?xml version="1.0" standalone="no"?>
<!DOCTYPE svg PUBLIC "-//W3C//DTD SVG 20010904//EN"
 "http://www.w3.org/TR/2001/REC-SVG-20010904/DTD/svg10.dtd">
<svg version="1.0" xmlns="http://www.w3.org/2000/svg"
 width="43.000000pt" height="42.000000pt" viewBox="0 0 43.000000 42.000000"
 preserveAspectRatio="xMidYMid meet">
<metadata>
Created by potrace 1.16, written by Peter Selinger 2001-2019
</metadata>
<g transform="translate(0.000000,42.000000) scale(0.100000,-0.100000)"
fill="#000000" stroke="none">
<path d="M6 405 l-6 -17 0 -31 0 -32 7 -23 6 -24 28 6 29 5 15 -5 15 -6 0 -13
0 -14 -12 -7 -12 -8 -28 2 -28 2 -4 -22 -5 -23 -6 -52 -6 -52 51 6 50 6 0 -22
0 -22 15 -29 16 -30 28 0 29 0 10 13 10 12 4 25 3 25 57 9 58 8 5 37 6 36 4
21 5 21 23 -4 24 -5 16 17 17 16 0 30 0 30 -10 20 -11 19 -43 0 -44 0 6 45 5
45 -16 0 -15 0 -28 -15 -29 -15 -17 0 -17 0 -20 -21 -19 -21 -19 4 -18 3 -5
30 -5 30 -56 3 -57 3 -6 -16z"/>
</g>
</svg>
