<?xml version="1.0" standalone="no"?>
<!DOCTYPE svg PUBLIC "-//W3C//DTD SVG 20010904//EN"
 "http://www.w3.org/TR/2001/REC-SVG-20010904/DTD/svg10.dtd">
<svg version="1.0" xmlns="http://www.w3.org/2000/svg"
 width="40.000000pt" height="35.000000pt" viewBox="0 0 40.000000 35.000000"
 preserveAspectRatio="xMidYMid meet">
<metadata>
Created by potrace 1.16, written by Peter Selinger 2001-2019
</metadata>
<g transform="translate(0.000000,35.000000) scale(0.100000,-0.100000)"
fill="#000000" stroke="none">
<path d="M6 313 l-6 -38 0 -17 0 -18 45 0 44 0 11 -20 11 -21 -6 -19 -6 -20
-34 0 -34 0 -4 -17 -5 -18 -7 -47 -6 -46 55 -7 56 -7 15 6 15 5 0 36 0 35 15
0 15 0 1 -12 2 -13 1 -35 1 -35 20 -3 19 -4 52 11 52 12 7 48 6 47 7 11 7 11
20 3 20 4 3 28 3 28 -12 15 -12 15 -26 -3 -26 -3 -3 58 -3 57 -17 0 -17 0 -50
-14 -50 -13 1 -21 1 -22 -29 0 -28 0 0 34 0 34 -16 6 -16 6 -43 0 -42 0 -7
-37z"/>
</g>
</svg>
