<?xml version="1.0" standalone="no"?>
<!DOCTYPE svg PUBLIC "-//W3C//DTD SVG 20010904//EN"
 "http://www.w3.org/TR/2001/REC-SVG-20010904/DTD/svg10.dtd">
<svg version="1.0" xmlns="http://www.w3.org/2000/svg"
 width="38.000000pt" height="33.000000pt" viewBox="0 0 38.000000 33.000000"
 preserveAspectRatio="xMidYMid meet">
<metadata>
Created by potrace 1.16, written by Peter Selinger 2001-2019
</metadata>
<g transform="translate(0.000000,33.000000) scale(0.100000,-0.100000)"
fill="#000000" stroke="none">
<path d="M10 316 l0 -13 -6 -32 -6 -31 45 0 46 0 11 -19 10 -20 0 -20 0 -20
-16 -15 -15 -16 -24 6 -24 6 -5 -24 -5 -23 -5 -32 -5 -31 49 -7 49 -7 11 7 12
7 -6 23 -6 24 15 15 16 15 14 -5 14 -6 6 -18 6 -18 -7 -26 -6 -26 16 -6 16 -6
50 12 50 12 -5 8 -4 7 11 34 11 34 9 23 8 24 16 -6 15 -6 6 17 6 16 -10 16
-10 16 -29 0 -29 0 -3 58 -3 57 -7 0 -7 0 -50 -13 -50 -14 3 -20 3 -20 -22 -6
-21 -6 -23 9 -23 9 6 26 5 27 -14 9 -14 9 -37 0 -38 0 0 -14z"/>
</g>
</svg>
