<?xml version="1.0" standalone="no"?>
<!DOCTYPE svg PUBLIC "-//W3C//DTD SVG 20010904//EN"
 "http://www.w3.org/TR/2001/REC-SVG-20010904/DTD/svg10.dtd">
<svg version="1.0" xmlns="http://www.w3.org/2000/svg"
 width="41.000000pt" height="38.000000pt" viewBox="0 0 41.000000 38.000000"
 preserveAspectRatio="xMidYMid meet">
<metadata>
Created by potrace 1.16, written by Peter Selinger 2001-2019
</metadata>
<g transform="translate(0.000000,38.000000) scale(0.100000,-0.100000)"
fill="#000000" stroke="none">
<path d="M20 332 l0 -49 43 1 42 1 3 -31 3 -31 -16 -13 -17 -14 -34 1 -34 1
-5 -8 -5 -8 11 -51 11 -51 53 0 53 0 -5 -19 -5 -19 11 -21 12 -21 29 0 30 0 0
20 0 21 13 3 12 4 48 12 47 13 -2 11 -2 11 8 35 7 35 11 23 12 22 17 -5 18 -6
10 19 10 19 -16 22 -15 23 -34 -7 -34 -6 0 56 0 55 -47 0 -48 0 -10 -8 -10 -7
0 -35 0 -35 -28 -3 -28 -3 -15 12 -14 11 0 34 0 34 -45 0 -45 0 0 -48z"/>
</g>
</svg>
