<?xml version="1.0" standalone="no"?>
<!DOCTYPE svg PUBLIC "-//W3C//DTD SVG 20010904//EN"
 "http://www.w3.org/TR/2001/REC-SVG-20010904/DTD/svg10.dtd">
<svg version="1.0" xmlns="http://www.w3.org/2000/svg"
 width="43.000000pt" height="40.000000pt" viewBox="0 0 43.000000 40.000000"
 preserveAspectRatio="xMidYMid meet">
<metadata>
Created by potrace 1.16, written by Peter Selinger 2001-2019
</metadata>
<g transform="translate(0.000000,40.000000) scale(0.100000,-0.100000)"
fill="#000000" stroke="none">
<path d="M20 340 l0 -60 42 2 42 3 4 -18 4 -18 -12 -14 -12 -15 -40 0 -39 0
-5 -14 -6 -15 12 -55 11 -56 50 0 49 0 0 -21 0 -20 10 -20 11 -19 39 0 40 0 0
20 0 21 13 3 12 4 46 12 47 12 6 51 7 52 11 12 10 13 19 0 19 0 12 25 11 24
-17 27 -18 26 -34 -4 -34 -4 0 53 0 53 -57 0 -58 0 -12 -8 -11 -7 1 -35 2 -34
-18 -4 -18 -4 -14 12 -15 12 0 34 0 34 -55 0 -55 0 0 -60z"/>
</g>
</svg>
