<?xml version="1.0" standalone="no"?>
<!DOCTYPE svg PUBLIC "-//W3C//DTD SVG 20010904//EN"
 "http://www.w3.org/TR/2001/REC-SVG-20010904/DTD/svg10.dtd">
<svg version="1.0" xmlns="http://www.w3.org/2000/svg"
 width="35.000000pt" height="42.000000pt" viewBox="0 0 35.000000 42.000000"
 preserveAspectRatio="xMidYMid meet">
<metadata>
Created by potrace 1.16, written by Peter Selinger 2001-2019
</metadata>
<g transform="translate(0.000000,42.000000) scale(0.100000,-0.100000)"
fill="#000000" stroke="none">
<path d="M0 348 l0 -71 34 6 34 5 11 -11 11 -11 0 -13 0 -13 -23 0 -24 0 -10
-22 -11 -23 -12 -43 -11 -44 5 -6 6 -6 43 -5 42 -6 3 -37 3 -38 23 -6 23 -5
33 3 33 3 8 15 8 15 5 18 5 17 43 0 43 0 13 53 12 53 0 17 0 17 -28 0 -28 0
-22 16 -22 15 0 15 0 14 19 0 19 0 16 6 16 6 0 59 0 59 -34 0 -34 0 -31 -6
-32 -7 3 -31 3 -31 -18 -3 -18 -4 -14 12 -15 12 6 22 5 22 -13 11 -13 10 -57
6 -58 6 0 -71z"/>
</g>
</svg>
