<?xml version="1.0" standalone="no"?>
<!DOCTYPE svg PUBLIC "-//W3C//DTD SVG 20010904//EN"
 "http://www.w3.org/TR/2001/REC-SVG-20010904/DTD/svg10.dtd">
<svg version="1.0" xmlns="http://www.w3.org/2000/svg"
 width="46.000000pt" height="31.000000pt" viewBox="0 0 46.000000 31.000000"
 preserveAspectRatio="xMidYMid meet">
<metadata>
Created by potrace 1.16, written by Peter Selinger 2001-2019
</metadata>
<g transform="translate(0.000000,31.000000) scale(0.100000,-0.100000)"
fill="#000000" stroke="none">
<path d="M256 302 l-6 -10 6 -16 6 -16 -6 -25 -6 -25 -24 0 -24 0 -12 15 -12
15 6 16 6 17 -11 13 -11 14 -44 0 -44 0 0 -44 0 -44 -6 -16 -6 -16 -34 0 -34
0 0 -20 0 -20 13 -2 12 -1 25 -1 25 -1 3 -67 3 -68 54 0 55 0 0 36 0 35 38 -3
37 -3 -3 -17 -3 -17 18 -9 18 -10 30 -2 30 -2 12 1 12 1 -10 32 -9 33 0 22 0
22 29 -5 29 -6 21 11 21 12 0 25 0 24 -25 10 -25 9 -15 -5 -15 -6 0 50 0 51
-8 5 -8 5 -51 7 -50 6 -7 -10z"/>
</g>
</svg>
