<?xml version="1.0" standalone="no"?>
<!DOCTYPE svg PUBLIC "-//W3C//DTD SVG 20010904//EN"
 "http://www.w3.org/TR/2001/REC-SVG-20010904/DTD/svg10.dtd">
<svg version="1.0" xmlns="http://www.w3.org/2000/svg"
 width="42.000000pt" height="33.000000pt" viewBox="0 0 42.000000 33.000000"
 preserveAspectRatio="xMidYMid meet">
<metadata>
Created by potrace 1.16, written by Peter Selinger 2001-2019
</metadata>
<g transform="translate(0.000000,33.000000) scale(0.100000,-0.100000)"
fill="#000000" stroke="none">
<path d="M295 296 l7 -34 -22 -12 -22 -12 -13 5 -13 5 5 25 5 25 -21 12 -22
11 -52 -3 -52 -3 -3 -48 -3 -47 -24 6 -23 6 -21 -12 -21 -11 0 -43 0 -43 25
-11 26 -12 21 0 21 0 -7 -50 -7 -51 73 3 73 3 3 33 3 32 23 0 24 0 4 -18 5
-17 62 -19 62 -18 2 3 2 4 -5 160 -5 160 -58 3 -58 3 6 -35z"/>
</g>
</svg>
