<?xml version="1.0" standalone="no"?>
<!DOCTYPE svg PUBLIC "-//W3C//DTD SVG 20010904//EN"
 "http://www.w3.org/TR/2001/REC-SVG-20010904/DTD/svg10.dtd">
<svg version="1.0" xmlns="http://www.w3.org/2000/svg"
 width="40.000000pt" height="31.000000pt" viewBox="0 0 40.000000 31.000000"
 preserveAspectRatio="xMidYMid meet">
<metadata>
Created by potrace 1.16, written by Peter Selinger 2001-2019
</metadata>
<g transform="translate(0.000000,31.000000) scale(0.100000,-0.100000)"
fill="#000000" stroke="none">
<path d="M298 276 l4 -34 -22 -12 -21 -11 -22 3 -22 3 0 28 0 28 -18 10 -17
10 -43 -3 -42 -3 -3 -49 -3 -48 -27 5 -27 5 -17 -9 -18 -10 0 -34 0 -34 23 -8
22 -8 20 0 20 0 0 -53 -1 -53 61 3 60 3 0 30 0 30 36 3 36 3 5 -19 5 -19 44
-12 44 -12 10 -5 10 -4 -5 152 -5 153 -46 3 -45 3 4 -35z"/>
</g>
</svg>
