<?xml version="1.0" standalone="no"?>
<!DOCTYPE svg PUBLIC "-//W3C//DTD SVG 20010904//EN"
 "http://www.w3.org/TR/2001/REC-SVG-20010904/DTD/svg10.dtd">
<svg version="1.0" xmlns="http://www.w3.org/2000/svg"
 width="35.000000pt" height="34.000000pt" viewBox="0 0 35.000000 34.000000"
 preserveAspectRatio="xMidYMid meet">
<metadata>
Created by potrace 1.16, written by Peter Selinger 2001-2019
</metadata>
<g transform="translate(0.000000,34.000000) scale(0.100000,-0.100000)"
fill="#000000" stroke="none">
<path d="M200 297 l0 -43 -12 -12 -12 -12 -13 0 -13 0 0 33 0 33 -12 12 -12
12 -47 0 -47 0 -16 -6 -16 -6 0 -54 0 -54 21 0 20 0 20 -10 19 -11 0 -9 0 -10
-40 0 -40 0 0 -74 0 -74 16 -6 16 -6 48 0 48 0 16 6 16 6 0 34 0 34 15 0 15 0
0 -24 0 -24 14 -5 15 -6 61 -7 62 -7 -7 64 -7 64 -5 8 -5 8 -31 -3 -32 -3 0
25 0 25 48 3 47 3 0 27 0 27 -10 36 -10 36 -46 7 -47 6 -18 0 -19 0 0 -43z"/>
</g>
</svg>
