<?xml version="1.0" standalone="no"?>
<!DOCTYPE svg PUBLIC "-//W3C//DTD SVG 20010904//EN"
 "http://www.w3.org/TR/2001/REC-SVG-20010904/DTD/svg10.dtd">
<svg version="1.0" xmlns="http://www.w3.org/2000/svg"
 width="33.000000pt" height="32.000000pt" viewBox="0 0 33.000000 32.000000"
 preserveAspectRatio="xMidYMid meet">
<metadata>
Created by potrace 1.16, written by Peter Selinger 2001-2019
</metadata>
<g transform="translate(0.000000,32.000000) scale(0.100000,-0.100000)"
fill="#000000" stroke="none">
<path d="M200 278 l0 -46 -14 -12 -15 -12 -23 4 -23 3 3 28 3 29 -12 14 -11
14 -38 0 -38 0 -16 -6 -16 -6 0 -44 0 -44 21 0 20 0 20 -10 19 -11 0 -18 0
-19 -13 -5 -13 -5 -27 5 -27 5 0 -65 0 -65 16 -6 16 -6 41 0 42 0 13 9 13 8
-3 29 -3 29 30 0 30 0 -3 -22 -3 -21 18 -6 18 -5 48 -7 49 -7 -7 49 -6 49 -4
12 -4 13 -30 -6 -29 -6 -11 21 -12 21 11 20 11 20 44 0 45 0 0 18 0 17 -11 38
-10 37 -17 0 -17 0 -37 6 -38 7 0 -45z"/>
</g>
</svg>
