<?xml version="1.0" standalone="no"?>
<!DOCTYPE svg PUBLIC "-//W3C//DTD SVG 20010904//EN"
 "http://www.w3.org/TR/2001/REC-SVG-20010904/DTD/svg10.dtd">
<svg version="1.0" xmlns="http://www.w3.org/2000/svg"
 width="40.000000pt" height="43.000000pt" viewBox="0 0 40.000000 43.000000"
 preserveAspectRatio="xMidYMid meet">
<metadata>
Created by potrace 1.16, written by Peter Selinger 2001-2019
</metadata>
<g transform="translate(0.000000,43.000000) scale(0.100000,-0.100000)"
fill="#000000" stroke="none">
<path d="M150 420 l-15 -9 0 -38 0 -38 -60 -5 -60 -5 -6 -42 -5 -43 7 -11 7
-12 11 8 12 7 30 -12 29 -12 0 -24 0 -24 -23 -9 -23 -9 -27 5 -27 5 0 -49 0
-49 12 -12 12 -12 52 0 52 0 11 14 12 14 -3 28 -3 27 11 4 12 4 16 -16 16 -16
0 -45 0 -44 33 0 32 0 34 18 35 17 15 50 16 50 15 0 15 0 3 33 3 34 -18 20
-17 19 -23 -4 -23 -4 0 42 0 43 -12 10 -13 10 -40 7 -40 8 -13 10 -12 10 6 20
6 19 -13 9 -14 9 -5 0 -5 0 -15 -10z"/>
</g>
</svg>
