<?xml version="1.0" standalone="no"?>
<!DOCTYPE svg PUBLIC "-//W3C//DTD SVG 20010904//EN"
 "http://www.w3.org/TR/2001/REC-SVG-20010904/DTD/svg10.dtd">
<svg version="1.0" xmlns="http://www.w3.org/2000/svg"
 width="42.000000pt" height="45.000000pt" viewBox="0 0 42.000000 45.000000"
 preserveAspectRatio="xMidYMid meet">
<metadata>
Created by potrace 1.16, written by Peter Selinger 2001-2019
</metadata>
<g transform="translate(0.000000,45.000000) scale(0.100000,-0.100000)"
fill="#000000" stroke="none">
<path d="M147 439 l-18 -11 3 -36 3 -37 -60 -5 -60 -5 -7 -45 -6 -45 5 -18 5
-18 21 2 22 3 23 -8 23 -8 -3 -16 -3 -17 -48 -3 -47 -3 0 -58 0 -57 12 -12 12
-12 61 0 61 0 12 12 12 12 0 28 0 28 9 0 9 0 6 -16 6 -16 0 -39 0 -39 43 0 42
0 35 18 35 17 13 46 13 47 19 5 20 5 0 45 0 44 -18 16 -19 17 -21 0 -22 0 0
39 0 39 -12 10 -13 10 -45 9 -45 9 -3 29 -4 30 -11 7 -12 8 -15 0 -15 -1 -18
-10z"/>
</g>
</svg>
