<?xml version="1.0" standalone="no"?>
<!DOCTYPE svg PUBLIC "-//W3C//DTD SVG 20010904//EN"
 "http://www.w3.org/TR/2001/REC-SVG-20010904/DTD/svg10.dtd">
<svg version="1.0" xmlns="http://www.w3.org/2000/svg"
 width="35.000000pt" height="45.000000pt" viewBox="0 0 35.000000 45.000000"
 preserveAspectRatio="xMidYMid meet">
<metadata>
Created by potrace 1.16, written by Peter Selinger 2001-2019
</metadata>
<g transform="translate(0.000000,45.000000) scale(0.100000,-0.100000)"
fill="#000000" stroke="none">
<path d="M140 435 l-12 -15 4 -34 4 -35 -66 -3 -65 -3 -3 -62 -3 -62 37 -3 37
-3 5 -12 4 -13 -26 0 -25 0 -5 -8 -5 -8 -10 -64 -11 -64 9 -9 9 -9 66 -5 67
-6 -7 41 -7 42 17 6 16 6 15 -12 15 -12 0 -44 0 -44 34 0 33 0 32 11 32 11 10
25 9 24 0 51 0 51 -35 -6 -35 -6 -15 16 -16 15 4 12 4 11 24 -3 24 -2 14 9 13
9 5 46 6 46 -13 15 -13 15 -48 -6 -49 -7 0 34 0 35 -16 22 -15 22 -18 0 -19 0
-12 -15z"/>
</g>
</svg>
