<?xml version="1.0" standalone="no"?>
<!DOCTYPE svg PUBLIC "-//W3C//DTD SVG 20010904//EN"
 "http://www.w3.org/TR/2001/REC-SVG-20010904/DTD/svg10.dtd">
<svg version="1.0" xmlns="http://www.w3.org/2000/svg"
 width="33.000000pt" height="43.000000pt" viewBox="0 0 33.000000 43.000000"
 preserveAspectRatio="xMidYMid meet">
<metadata>
Created by potrace 1.16, written by Peter Selinger 2001-2019
</metadata>
<g transform="translate(0.000000,43.000000) scale(0.100000,-0.100000)"
fill="#000000" stroke="none">
<path d="M140 415 l-12 -15 6 -34 7 -35 -68 -3 -68 -3 -3 -53 -3 -52 28 2 29
2 12 -8 12 -7 0 -25 0 -24 -24 6 -24 6 -6 -10 -5 -9 -9 -57 -9 -57 9 -5 9 -5
52 -6 52 -5 0 43 0 44 23 3 23 4 15 -12 14 -12 0 -44 0 -44 24 0 23 0 32 11
32 11 10 25 9 24 0 40 0 40 -33 -6 -34 -7 -17 17 -17 17 3 22 3 21 32 0 32 1
6 6 6 6 6 36 6 36 -12 14 -11 14 -46 -6 -46 -5 -9 14 -9 14 6 18 6 18 -16 24
-16 25 -9 0 -9 0 -12 -15z"/>
</g>
</svg>
