<?xml version="1.0" standalone="no"?>
<!DOCTYPE svg PUBLIC "-//W3C//DTD SVG 20010904//EN"
 "http://www.w3.org/TR/2001/REC-SVG-20010904/DTD/svg10.dtd">
<svg version="1.0" xmlns="http://www.w3.org/2000/svg"
 width="52.000000pt" height="50.000000pt" viewBox="0 0 52.000000 50.000000"
 preserveAspectRatio="xMidYMid meet">
<metadata>
Created by potrace 1.16, written by Peter Selinger 2001-2019
</metadata>
<g transform="translate(0.000000,50.000000) scale(0.100000,-0.100000)"
fill="#000000" stroke="none">
<path d="M229 484 l-14 -17 0 -39 0 -39 -32 5 -33 6 -35 6 -34 6 6 -51 6 -51
-41 0 -40 0 -6 -16 -6 -16 0 -33 0 -34 19 -11 20 -10 27 0 27 0 -5 -47 -6 -48
5 -11 4 -12 62 5 62 5 0 -38 0 -39 40 -3 39 -3 13 17 13 18 0 29 0 30 28 -7
27 -6 22 -6 22 -6 3 63 3 64 25 3 25 3 23 4 22 5 0 30 0 29 -19 11 -20 10 -30
0 -31 0 0 55 0 54 -42 11 -43 10 -15 9 -15 8 3 23 4 23 -14 8 -13 9 -21 0 -22
0 -13 -16z"/>
</g>
</svg>
