<?xml version="1.0" standalone="no"?>
<!DOCTYPE svg PUBLIC "-//W3C//DTD SVG 20010904//EN"
 "http://www.w3.org/TR/2001/REC-SVG-20010904/DTD/svg10.dtd">
<svg version="1.0" xmlns="http://www.w3.org/2000/svg"
 width="43.000000pt" height="49.000000pt" viewBox="0 0 43.000000 49.000000"
 preserveAspectRatio="xMidYMid meet">
<metadata>
Created by potrace 1.16, written by Peter Selinger 2001-2019
</metadata>
<g transform="translate(0.000000,49.000000) scale(0.100000,-0.100000)"
fill="#000000" stroke="none">
<path d="M136 468 l-16 -22 0 -28 0 -28 -7 0 -8 0 -39 11 -39 11 -8 -14 -9
-13 0 -52 0 -51 6 -16 6 -16 30 0 29 0 -5 -9 -6 -9 -18 5 -18 4 -11 -13 -10
-13 -6 -68 -5 -67 64 0 64 0 0 -27 0 -28 9 -13 8 -13 39 3 39 3 3 33 3 32 53
0 53 0 9 67 9 68 38 3 38 3 -3 37 -3 37 -45 5 -45 5 -5 55 -5 54 -47 14 -48
13 0 24 0 23 -16 6 -16 6 -23 0 -24 0 -15 -22z"/>
</g>
</svg>
