<?xml version="1.0" standalone="no"?>
<!DOCTYPE svg PUBLIC "-//W3C//DTD SVG 20010904//EN"
 "http://www.w3.org/TR/2001/REC-SVG-20010904/DTD/svg10.dtd">
<svg version="1.0" xmlns="http://www.w3.org/2000/svg"
 width="34.000000pt" height="40.000000pt" viewBox="0 0 34.000000 40.000000"
 preserveAspectRatio="xMidYMid meet">
<metadata>
Created by potrace 1.16, written by Peter Selinger 2001-2019
</metadata>
<g transform="translate(0.000000,40.000000) scale(0.100000,-0.100000)"
fill="#000000" stroke="none">
<path d="M141 382 l-9 -17 5 -27 5 -27 -58 -3 -59 -3 -9 -43 -9 -42 7 -7 6 -7
43 -5 42 -6 3 -22 3 -22 -21 -11 -20 -11 -37 7 -36 7 6 -62 5 -63 4 -3 3 -3
64 -8 64 -7 -7 28 -7 27 12 14 11 14 25 0 25 0 -5 -19 -5 -19 7 -10 6 -10 60
-4 60 -3 -2 25 -3 25 -5 33 -6 33 -26 -3 -25 -3 -11 16 -10 16 7 28 7 27 45
-5 44 -5 0 17 0 16 -6 38 -7 37 -31 1 -31 1 -25 7 -25 7 -1 25 -1 26 -7 12 -7
11 -24 0 -24 0 -10 -18z"/>
</g>
</svg>
