<?xml version="1.0" standalone="no"?>
<!DOCTYPE svg PUBLIC "-//W3C//DTD SVG 20010904//EN"
 "http://www.w3.org/TR/2001/REC-SVG-20010904/DTD/svg10.dtd">
<svg version="1.0" xmlns="http://www.w3.org/2000/svg"
 width="36.000000pt" height="42.000000pt" viewBox="0 0 36.000000 42.000000"
 preserveAspectRatio="xMidYMid meet">
<metadata>
Created by potrace 1.16, written by Peter Selinger 2001-2019
</metadata>
<g transform="translate(0.000000,42.000000) scale(0.100000,-0.100000)"
fill="#000000" stroke="none">
<path d="M140 399 l-12 -21 6 -24 6 -24 -54 0 -55 0 -5 -9 -6 -9 -7 -47 -6
-47 14 -9 14 -9 32 0 32 0 7 -12 7 -11 -17 -12 -17 -13 -41 6 -41 5 5 -72 5
-72 5 -4 4 -5 73 -6 73 -7 -3 29 -3 29 7 13 8 12 14 0 13 0 -4 -17 -4 -18 8
-12 8 -12 69 -3 70 -3 -2 34 -1 33 -7 34 -6 34 -29 0 -29 0 -6 10 -6 10 6 21
7 21 44 -7 44 -6 0 28 0 28 -6 38 -7 37 -31 1 -31 1 -25 7 -25 7 3 17 3 17
-11 20 -11 20 -34 0 -34 0 -11 -21z"/>
</g>
</svg>
