<?xml version="1.0" standalone="no"?>
<!DOCTYPE svg PUBLIC "-//W3C//DTD SVG 20010904//EN"
 "http://www.w3.org/TR/2001/REC-SVG-20010904/DTD/svg10.dtd">
<svg version="1.0" xmlns="http://www.w3.org/2000/svg"
 width="47.000000pt" height="40.000000pt" viewBox="0 0 47.000000 40.000000"
 preserveAspectRatio="xMidYMid meet">
<metadata>
Created by potrace 1.16, written by Peter Selinger 2001-2019
</metadata>
<g transform="translate(0.000000,40.000000) scale(0.100000,-0.100000)"
fill="#000000" stroke="none">
<path d="M80 351 l0 -50 -12 -7 -12 -8 -26 0 -25 -1 0 -40 0 -40 39 2 39 3 -6
-70 -6 -71 34 7 35 6 24 -6 25 -6 3 -32 3 -33 18 -3 19 -4 24 6 24 6 0 24 0
23 41 6 42 5 9 14 9 13 -7 30 -7 30 -1 30 -1 29 41 -2 40 -3 13 15 12 15 -3
28 -3 28 -35 -2 -35 -1 -7 11 -7 12 6 42 6 43 -9 0 -9 -1 -55 -13 -55 -12 -3
-26 -3 -26 -15 -6 -14 -5 -15 5 -15 6 0 33 0 33 -16 6 -16 6 -44 0 -44 0 0
-49z"/>
</g>
</svg>
