<?xml version="1.0" standalone="no"?>
<!DOCTYPE svg PUBLIC "-//W3C//DTD SVG 20010904//EN"
 "http://www.w3.org/TR/2001/REC-SVG-20010904/DTD/svg10.dtd">
<svg version="1.0" xmlns="http://www.w3.org/2000/svg"
 width="41.000000pt" height="33.000000pt" viewBox="0 0 41.000000 33.000000"
 preserveAspectRatio="xMidYMid meet">
<metadata>
Created by potrace 1.16, written by Peter Selinger 2001-2019
</metadata>
<g transform="translate(0.000000,33.000000) scale(0.100000,-0.100000)"
fill="#000000" stroke="none">
<path d="M100 275 l0 -55 -40 0 -40 0 -12 -25 -11 -25 11 -24 11 -24 23 -4 22
-3 17 -49 18 -48 3 -4 4 -3 67 -7 67 -7 0 45 0 46 13 11 14 11 6 -7 7 -6 0
-22 0 -23 15 -12 14 -12 48 -1 48 -2 0 55 0 55 -20 3 -20 3 -23 5 -23 5 3 27
3 27 43 3 42 3 0 61 0 61 -46 -7 -47 -6 -18 0 -19 0 0 -29 0 -29 -6 -16 -6
-16 -13 0 -14 0 -15 15 -15 15 6 35 6 35 -62 0 -61 0 0 -55z"/>
</g>
</svg>
