<?xml version="1.0" standalone="no"?>
<!DOCTYPE svg PUBLIC "-//W3C//DTD SVG 20010904//EN"
 "http://www.w3.org/TR/2001/REC-SVG-20010904/DTD/svg10.dtd">
<svg version="1.0" xmlns="http://www.w3.org/2000/svg"
 width="39.000000pt" height="31.000000pt" viewBox="0 0 39.000000 31.000000"
 preserveAspectRatio="xMidYMid meet">
<metadata>
Created by potrace 1.16, written by Peter Selinger 2001-2019
</metadata>
<g transform="translate(0.000000,31.000000) scale(0.100000,-0.100000)"
fill="#000000" stroke="none">
<path d="M98 253 l-3 -58 -37 3 -37 3 -11 -20 -11 -21 11 -20 11 -21 18 6 18
6 13 -33 12 -33 10 -27 10 -28 13 0 12 0 46 -6 46 -7 -2 42 -1 41 16 16 16 16
21 -7 21 -6 -6 -23 -5 -22 14 -12 14 -12 39 -3 39 -2 0 45 0 45 -20 0 -20 0
-22 8 -23 8 0 34 0 34 18 10 17 9 28 -5 27 -5 0 52 0 53 -31 -7 -31 -6 -25 0
-24 0 2 -17 3 -18 -7 -27 -7 -28 -24 0 -25 0 -16 17 -17 16 7 34 6 33 -50 0
-50 0 -3 -57z"/>
</g>
</svg>
