<?xml version="1.0" standalone="no"?>
<!DOCTYPE svg PUBLIC "-//W3C//DTD SVG 20010904//EN"
 "http://www.w3.org/TR/2001/REC-SVG-20010904/DTD/svg10.dtd">
<svg version="1.0" xmlns="http://www.w3.org/2000/svg"
 width="41.000000pt" height="40.000000pt" viewBox="0 0 41.000000 40.000000"
 preserveAspectRatio="xMidYMid meet">
<metadata>
Created by potrace 1.16, written by Peter Selinger 2001-2019
</metadata>
<g transform="translate(0.000000,40.000000) scale(0.100000,-0.100000)"
fill="#000000" stroke="none">
<path d="M17 393 l-5 -8 -7 -57 -7 -57 48 -3 49 -3 0 -25 0 -25 -35 0 -35 0
-6 -40 -6 -40 -7 -36 -8 -36 58 1 58 1 0 -30 1 -30 38 -3 38 -3 15 12 14 11 0
40 0 40 18 -7 17 -7 39 -5 39 -6 -7 26 -6 27 -6 25 -6 25 45 0 45 0 6 16 6 16
0 28 0 28 -14 11 -13 11 -24 -2 -24 -3 -3 58 -3 57 -154 0 -154 0 -4 -7z"/>
</g>
</svg>
