<?xml version="1.0" standalone="no"?>
<!DOCTYPE svg PUBLIC "-//W3C//DTD SVG 20010904//EN"
 "http://www.w3.org/TR/2001/REC-SVG-20010904/DTD/svg10.dtd">
<svg version="1.0" xmlns="http://www.w3.org/2000/svg"
 width="39.000000pt" height="38.000000pt" viewBox="0 0 39.000000 38.000000"
 preserveAspectRatio="xMidYMid meet">
<metadata>
Created by potrace 1.16, written by Peter Selinger 2001-2019
</metadata>
<g transform="translate(0.000000,38.000000) scale(0.100000,-0.100000)"
fill="#000000" stroke="none">
<path d="M17 373 l-4 -8 -7 -47 -7 -47 48 -3 48 -3 0 -35 0 -35 -35 -1 -35 0
-6 -46 -7 -46 -6 -19 -6 -18 58 0 57 0 0 -30 0 -30 28 -3 28 -3 15 12 14 11 0
40 0 40 33 -7 32 -7 24 -6 24 -5 -8 19 -8 19 -5 33 -4 32 45 0 45 0 6 16 6 16
0 18 0 18 -13 10 -13 11 -14 -9 -14 -9 -13 11 -13 10 0 54 0 54 -144 0 -145 0
-4 -7z"/>
</g>
</svg>
