<?xml version="1.0" standalone="no"?>
<!DOCTYPE svg PUBLIC "-//W3C//DTD SVG 20010904//EN"
 "http://www.w3.org/TR/2001/REC-SVG-20010904/DTD/svg10.dtd">
<svg version="1.0" xmlns="http://www.w3.org/2000/svg"
 width="39.000000pt" height="41.000000pt" viewBox="0 0 39.000000 41.000000"
 preserveAspectRatio="xMidYMid meet">
<metadata>
Created by potrace 1.16, written by Peter Selinger 2001-2019
</metadata>
<g transform="translate(0.000000,41.000000) scale(0.100000,-0.100000)"
fill="#000000" stroke="none">
<path d="M205 400 l-6 -10 6 -21 7 -20 -19 -14 -18 -14 -47 -1 -48 0 0 -55 0
-55 -21 0 -20 0 -20 -10 -19 -11 0 -24 0 -25 20 0 21 0 3 -12 4 -13 17 -48 17
-48 56 3 56 3 1 34 0 34 17 10 16 11 17 -14 17 -14 -5 -39 -5 -38 15 -6 16 -6
46 12 45 12 3 2 2 2 -18 55 -18 55 -21 10 -22 10 0 21 0 22 15 12 15 12 30 -4
30 -5 0 22 0 23 -6 31 -6 31 -43 0 -43 0 -16 6 -16 6 0 33 0 33 -16 6 -16 6
-8 0 -9 0 -6 -10z"/>
</g>
</svg>
