<?xml version="1.0" standalone="no"?>
<!DOCTYPE svg PUBLIC "-//W3C//DTD SVG 20010904//EN"
 "http://www.w3.org/TR/2001/REC-SVG-20010904/DTD/svg10.dtd">
<svg version="1.0" xmlns="http://www.w3.org/2000/svg"
 width="43.000000pt" height="35.000000pt" viewBox="0 0 43.000000 35.000000"
 preserveAspectRatio="xMidYMid meet">
<metadata>
Created by potrace 1.16, written by Peter Selinger 2001-2019
</metadata>
<g transform="translate(0.000000,35.000000) scale(0.100000,-0.100000)"
fill="#000000" stroke="none">
<path d="M98 293 l-3 -58 -45 0 -45 0 -3 -28 -3 -28 12 -15 13 -15 22 5 22 6
11 -51 11 -50 0 -26 0 -25 23 6 22 6 48 0 47 0 0 39 0 40 9 5 9 6 12 -15 12
-15 -6 -26 -7 -26 12 -14 11 -14 23 0 23 0 52 12 51 12 -6 45 -6 46 -5 28 -6
27 -29 0 -29 0 0 24 0 25 33 3 32 3 3 58 3 58 -58 -3 -58 -3 -3 -27 -3 -27
-14 -11 -14 -11 -28 3 -28 3 -3 43 -3 42 -54 0 -54 0 -3 -57z"/>
</g>
</svg>
