<?xml version="1.0" standalone="no"?>
<!DOCTYPE svg PUBLIC "-//W3C//DTD SVG 20010904//EN"
 "http://www.w3.org/TR/2001/REC-SVG-20010904/DTD/svg10.dtd">
<svg version="1.0" xmlns="http://www.w3.org/2000/svg"
 width="46.000000pt" height="40.000000pt" viewBox="0 0 46.000000 40.000000"
 preserveAspectRatio="xMidYMid meet">
<metadata>
Created by potrace 1.16, written by Peter Selinger 2001-2019
</metadata>
<g transform="translate(0.000000,40.000000) scale(0.100000,-0.100000)"
fill="#000000" stroke="none">
<path d="M68 348 l-3 -53 -30 0 -30 -1 0 -39 0 -40 27 3 27 3 5 -33 6 -33 2
-25 3 -25 48 -7 49 -7 6 -6 6 -5 0 -32 1 -31 17 -10 16 -11 17 14 16 14 -3 40
-3 41 21 3 20 3 41 -9 42 -10 10 27 10 26 3 25 3 25 19 -2 19 -1 14 14 14 14
-3 42 -3 43 -35 0 -35 0 -9 43 -10 42 -15 -4 -16 -5 -43 -11 -43 -11 3 -17 3
-17 -30 -3 -29 -4 -13 18 -13 18 0 23 0 23 -49 0 -50 0 -3 -52z"/>
</g>
</svg>
