<?xml version="1.0" standalone="no"?>
<!DOCTYPE svg PUBLIC "-//W3C//DTD SVG 20010904//EN"
 "http://www.w3.org/TR/2001/REC-SVG-20010904/DTD/svg10.dtd">
<svg version="1.0" xmlns="http://www.w3.org/2000/svg"
 width="32.000000pt" height="42.000000pt" viewBox="0 0 32.000000 42.000000"
 preserveAspectRatio="xMidYMid meet">
<metadata>
Created by potrace 1.16, written by Peter Selinger 2001-2019
</metadata>
<g transform="translate(0.000000,42.000000) scale(0.100000,-0.100000)"
fill="#000000" stroke="none">
<path d="M0 386 l0 -35 10 -25 10 -26 35 0 35 0 0 -35 0 -35 -30 -7 -30 -6 -4
-6 -4 -6 -7 -52 -7 -53 51 0 51 0 0 -31 0 -30 10 -20 11 -19 32 0 33 0 12 12
12 12 0 37 0 38 48 3 47 3 3 57 3 57 -43 3 -43 3 0 35 0 35 35 -2 35 -1 7 11
8 12 0 48 0 47 -12 0 -13 0 -50 -19 -50 -19 -3 -20 -3 -21 -20 -6 -20 -7 -13
12 -14 11 5 39 6 40 -67 0 -66 0 0 -34z"/>
</g>
</svg>
