<?xml version="1.0" standalone="no"?>
<!DOCTYPE svg PUBLIC "-//W3C//DTD SVG 20010904//EN"
 "http://www.w3.org/TR/2001/REC-SVG-20010904/DTD/svg10.dtd">
<svg version="1.0" xmlns="http://www.w3.org/2000/svg"
 width="51.000000pt" height="42.000000pt" viewBox="0 0 51.000000 42.000000"
 preserveAspectRatio="xMidYMid meet">
<metadata>
Created by potrace 1.16, written by Peter Selinger 2001-2019
</metadata>
<g transform="translate(0.000000,42.000000) scale(0.100000,-0.100000)"
fill="#000000" stroke="none">
<path d="M243 413 l-12 -4 6 -35 6 -34 -36 -15 -36 -15 -35 0 -35 0 -3 -47 -3
-48 -38 2 -38 2 -11 -24 -11 -24 17 -26 17 -26 27 3 26 3 8 -45 8 -45 -5 -12
-4 -13 70 0 70 0 -6 34 -7 34 22 7 22 7 16 -16 16 -16 1 -27 0 -28 58 -1 57 0
0 64 0 64 22 -5 21 -6 29 15 28 15 0 19 0 19 -19 10 -18 10 -29 -2 -29 -2 -3
45 -3 45 -7 7 -7 7 -49 -10 -49 -9 -12 10 -13 10 5 43 5 43 -13 11 -14 10 -12
-4z"/>
</g>
</svg>
