<?xml version="1.0" standalone="no"?>
<!DOCTYPE svg PUBLIC "-//W3C//DTD SVG 20010904//EN"
 "http://www.w3.org/TR/2001/REC-SVG-20010904/DTD/svg10.dtd">
<svg version="1.0" xmlns="http://www.w3.org/2000/svg"
 width="40.000000pt" height="42.000000pt" viewBox="0 0 40.000000 42.000000"
 preserveAspectRatio="xMidYMid meet">
<metadata>
Created by potrace 1.16, written by Peter Selinger 2001-2019
</metadata>
<g transform="translate(0.000000,42.000000) scale(0.100000,-0.100000)"
fill="#000000" stroke="none">
<path d="M204 414 l-10 -4 4 -29 4 -29 -33 -17 -32 -17 -31 5 -32 5 3 -31 4
-32 -14 -25 -13 -25 -27 2 -27 2 0 -45 0 -44 29 0 30 0 6 -55 7 -55 50 0 49 0
20 11 20 10 -3 37 -3 37 25 0 25 0 3 -50 3 -50 8 -8 8 -8 59 11 59 12 -3 51
-4 52 -9 10 -10 10 -37 0 -37 0 -3 32 -3 32 21 11 21 11 30 -6 29 -7 0 55 0
54 -56 -14 -56 -15 -13 6 -14 5 1 41 0 40 -12 15 -12 15 -7 -1 -6 -1 -11 -4z"/>
</g>
</svg>
