<?xml version="1.0" standalone="no"?>
<!DOCTYPE svg PUBLIC "-//W3C//DTD SVG 20010904//EN"
 "http://www.w3.org/TR/2001/REC-SVG-20010904/DTD/svg10.dtd">
<svg version="1.0" xmlns="http://www.w3.org/2000/svg"
 width="33.000000pt" height="41.000000pt" viewBox="0 0 33.000000 41.000000"
 preserveAspectRatio="xMidYMid meet">
<metadata>
Created by potrace 1.16, written by Peter Selinger 2001-2019
</metadata>
<g transform="translate(0.000000,41.000000) scale(0.100000,-0.100000)"
fill="#000000" stroke="none">
<path d="M147 404 l-5 -6 5 -34 6 -34 -27 -10 -27 -10 -40 0 -40 0 -8 -21 -7
-22 6 -36 6 -36 36 3 36 3 6 -16 5 -15 -5 -15 -6 -14 -21 -7 -22 -8 -20 0 -20
-1 -3 -29 -4 -29 6 -31 6 -31 58 3 58 4 -4 32 -4 33 17 16 16 17 14 0 14 0 11
-20 10 -20 -6 -23 -5 -24 23 -7 23 -6 46 0 46 0 -8 38 -9 37 -5 28 -6 28 -19
-6 -19 -6 -11 21 -11 21 6 18 5 18 23 -4 23 -5 13 15 12 16 -3 38 -3 38 -30
-4 -30 -5 -35 0 -35 -1 3 37 3 37 -11 20 -11 21 -8 0 -8 0 -6 -6z"/>
</g>
</svg>
