<?xml version="1.0" standalone="no"?>
<!DOCTYPE svg PUBLIC "-//W3C//DTD SVG 20010904//EN"
 "http://www.w3.org/TR/2001/REC-SVG-20010904/DTD/svg10.dtd">
<svg version="1.0" xmlns="http://www.w3.org/2000/svg"
 width="40.000000pt" height="38.000000pt" viewBox="0 0 40.000000 38.000000"
 preserveAspectRatio="xMidYMid meet">
<metadata>
Created by potrace 1.16, written by Peter Selinger 2001-2019
</metadata>
<g transform="translate(0.000000,38.000000) scale(0.100000,-0.100000)"
fill="#000000" stroke="none">
<path d="M97 320 l6 -61 -40 7 -39 6 -13 -16 -13 -15 4 -18 3 -18 26 -3 26 -3
12 -47 12 -47 2 -16 1 -17 38 5 37 5 23 -5 23 -6 0 -33 0 -33 30 0 30 0 0 32
0 33 33 6 32 6 25 -4 24 -5 5 12 4 12 7 46 7 46 -40 -2 -40 -1 -16 13 -16 13
0 18 0 18 13 10 13 11 23 -6 23 -6 9 14 9 14 0 48 0 47 -32 0 -33 0 -23 -6
-23 -7 6 -29 7 -29 -12 -14 -12 -15 -14 0 -13 0 -15 16 -16 15 0 35 0 34 -54
0 -54 0 5 -60z"/>
</g>
</svg>
