<?xml version="1.0" standalone="no"?>
<!DOCTYPE svg PUBLIC "-//W3C//DTD SVG 20010904//EN"
 "http://www.w3.org/TR/2001/REC-SVG-20010904/DTD/svg10.dtd">
<svg version="1.0" xmlns="http://www.w3.org/2000/svg"
 width="42.000000pt" height="40.000000pt" viewBox="0 0 42.000000 40.000000"
 preserveAspectRatio="xMidYMid meet">
<metadata>
Created by potrace 1.16, written by Peter Selinger 2001-2019
</metadata>
<g transform="translate(0.000000,40.000000) scale(0.100000,-0.100000)"
fill="#000000" stroke="none">
<path d="M96 342 l6 -58 -39 4 -39 4 -13 -16 -12 -15 3 -28 3 -28 27 -3 26 -3
13 -64 12 -64 56 2 56 2 5 -35 5 -35 40 0 40 0 3 32 3 32 20 6 21 7 33 -6 33
-6 6 16 6 16 6 54 7 54 -45 0 -46 0 -12 15 -12 14 7 11 6 10 34 0 33 0 6 16 6
16 0 54 0 54 -42 0 -43 0 -24 -7 -23 -6 5 -33 6 -33 -14 -11 -13 -11 -16 16
-16 16 0 35 0 34 -65 0 -66 0 7 -58z"/>
</g>
</svg>
