<?xml version="1.0" standalone="no"?>
<!DOCTYPE svg PUBLIC "-//W3C//DTD SVG 20010904//EN"
 "http://www.w3.org/TR/2001/REC-SVG-20010904/DTD/svg10.dtd">
<svg version="1.0" xmlns="http://www.w3.org/2000/svg"
 width="48.000000pt" height="40.000000pt" viewBox="0 0 48.000000 40.000000"
 preserveAspectRatio="xMidYMid meet">
<metadata>
Created by potrace 1.16, written by Peter Selinger 2001-2019
</metadata>
<g transform="translate(0.000000,40.000000) scale(0.100000,-0.100000)"
fill="#000000" stroke="none">
<path d="M70 356 l0 -44 -6 -16 -6 -16 -29 0 -29 0 0 -29 0 -29 14 -11 15 -12
18 3 18 3 5 -60 5 -59 35 -11 35 -10 13 -8 12 -8 0 -25 0 -24 44 0 45 0 15 22
16 22 0 24 0 25 28 -7 27 -6 23 -6 22 -6 0 61 0 61 35 0 35 0 12 25 12 26 -10
27 -9 27 -33 3 -32 3 -5 22 -4 22 -3 20 -3 20 -34 3 -35 4 -33 -7 -34 -6 3
-26 3 -26 -17 -10 -16 -11 -16 13 -16 13 0 34 0 34 -60 0 -60 0 0 -44z"/>
</g>
</svg>
