<?xml version="1.0" standalone="no"?>
<!DOCTYPE svg PUBLIC "-//W3C//DTD SVG 20010904//EN"
 "http://www.w3.org/TR/2001/REC-SVG-20010904/DTD/svg10.dtd">
<svg version="1.0" xmlns="http://www.w3.org/2000/svg"
 width="37.000000pt" height="40.000000pt" viewBox="0 0 37.000000 40.000000"
 preserveAspectRatio="xMidYMid meet">
<metadata>
Created by potrace 1.16, written by Peter Selinger 2001-2019
</metadata>
<g transform="translate(0.000000,40.000000) scale(0.100000,-0.100000)"
fill="#000000" stroke="none">
<path d="M0 366 l0 -34 6 -16 6 -16 29 0 29 0 11 -24 11 -23 -12 -23 -12 -22
-34 5 -34 6 0 -64 0 -64 15 5 15 6 36 -7 36 -6 -6 -25 -7 -26 6 -19 6 -19 33
0 33 0 12 24 13 24 -7 32 -7 33 60 -6 61 -7 -10 30 -11 29 4 23 3 23 40 5 40
5 0 30 0 30 -32 -3 -32 -3 -7 36 -6 35 4 30 5 30 -53 0 -52 0 5 -20 5 -20 -6
-24 -6 -25 -21 -6 -20 -7 -14 12 -15 12 0 39 0 39 -60 0 -60 0 0 -34z"/>
</g>
</svg>
