<?xml version="1.0" standalone="no"?>
<!DOCTYPE svg PUBLIC "-//W3C//DTD SVG 20010904//EN"
 "http://www.w3.org/TR/2001/REC-SVG-20010904/DTD/svg10.dtd">
<svg version="1.0" xmlns="http://www.w3.org/2000/svg"
 width="39.000000pt" height="42.000000pt" viewBox="0 0 39.000000 42.000000"
 preserveAspectRatio="xMidYMid meet">
<metadata>
Created by potrace 1.16, written by Peter Selinger 2001-2019
</metadata>
<g transform="translate(0.000000,42.000000) scale(0.100000,-0.100000)"
fill="#000000" stroke="none">
<path d="M0 376 l0 -44 6 -16 6 -16 29 0 28 0 10 -18 9 -18 -10 -17 -9 -18
-35 7 -34 6 0 -77 0 -77 25 6 25 6 24 -6 24 -6 -5 -19 -5 -19 6 -25 6 -25 44
0 43 0 13 24 13 24 -5 32 -5 32 60 -7 60 -7 -8 28 -8 29 -1 25 -1 25 40 5 40
5 0 40 0 40 -32 -1 -32 -2 -6 30 -7 30 6 34 7 34 -66 0 -66 0 6 -33 7 -34 -17
-17 -17 -17 -14 12 -14 11 0 39 0 39 -70 0 -70 0 0 -44z"/>
</g>
</svg>
