<?xml version="1.0" standalone="no"?>
<!DOCTYPE svg PUBLIC "-//W3C//DTD SVG 20010904//EN"
 "http://www.w3.org/TR/2001/REC-SVG-20010904/DTD/svg10.dtd">
<svg version="1.0" xmlns="http://www.w3.org/2000/svg"
 width="32.000000pt" height="38.000000pt" viewBox="0 0 32.000000 38.000000"
 preserveAspectRatio="xMidYMid meet">
<metadata>
Created by potrace 1.16, written by Peter Selinger 2001-2019
</metadata>
<g transform="translate(0.000000,38.000000) scale(0.100000,-0.100000)"
fill="#000000" stroke="none">
<path d="M30 336 l0 -45 16 -15 15 -16 25 6 24 6 0 -28 0 -29 -8 -12 -7 -12
-45 -3 -45 -3 3 -30 4 -30 14 -22 14 -23 23 0 22 0 22 -6 23 -6 -5 -22 -5 -21
8 -13 9 -13 34 3 34 3 3 37 3 37 52 3 52 3 -3 35 -3 35 -5 18 -5 17 -23 -6
-23 -5 -17 16 -16 16 0 18 0 19 15 12 14 12 19 -7 20 -6 16 16 16 16 0 45 0
44 -44 0 -45 0 -3 -32 -3 -33 -28 -9 -28 -10 -17 10 -17 11 -3 32 -3 31 -50 0
-49 0 0 -44z"/>
</g>
</svg>
