<?xml version="1.0" standalone="no"?>
<!DOCTYPE svg PUBLIC "-//W3C//DTD SVG 20010904//EN"
 "http://www.w3.org/TR/2001/REC-SVG-20010904/DTD/svg10.dtd">
<svg version="1.0" xmlns="http://www.w3.org/2000/svg"
 width="36.000000pt" height="50.000000pt" viewBox="0 0 36.000000 50.000000"
 preserveAspectRatio="xMidYMid meet">
<metadata>
Created by potrace 1.16, written by Peter Selinger 2001-2019
</metadata>
<g transform="translate(0.000000,50.000000) scale(0.100000,-0.100000)"
fill="#000000" stroke="none">
<path d="M154 477 l6 -24 -13 -16 -12 -16 -50 -3 -50 -3 -3 -42 -3 -42 11 -21
11 -20 29 0 30 0 0 -19 0 -20 -12 -7 -13 -8 -40 -1 -40 0 2 -54 3 -53 12 -15
12 -15 51 4 50 4 1 -39 0 -39 19 -14 19 -14 22 0 23 0 15 16 16 15 0 41 0 41
33 -6 32 -6 24 -7 24 -7 -6 24 -7 24 0 144 0 144 -41 -6 -41 -5 -13 4 -13 5 5
19 5 18 -11 21 -12 21 -40 0 -41 0 6 -23z"/>
</g>
</svg>
