<?xml version="1.0" standalone="no"?>
<!DOCTYPE svg PUBLIC "-//W3C//DTD SVG 20010904//EN"
 "http://www.w3.org/TR/2001/REC-SVG-20010904/DTD/svg10.dtd">
<svg version="1.0" xmlns="http://www.w3.org/2000/svg"
 width="33.000000pt" height="40.000000pt" viewBox="0 0 33.000000 40.000000"
 preserveAspectRatio="xMidYMid meet">
<metadata>
Created by potrace 1.16, written by Peter Selinger 2001-2019
</metadata>
<g transform="translate(0.000000,40.000000) scale(0.100000,-0.100000)"
fill="#000000" stroke="none">
<path d="M37 393 l-27 -4 0 -65 0 -65 33 6 32 6 20 -15 20 -15 -17 -18 -18
-17 -40 1 -40 2 1 -74 1 -74 47 5 46 6 13 4 12 3 0 -23 0 -24 6 -16 6 -16 43
0 43 0 4 18 5 17 53 14 53 14 -7 59 -6 59 -6 24 -6 25 -29 0 -29 0 0 10 0 10
28 0 28 0 12 12 12 12 0 58 0 58 -24 0 -23 0 -47 -6 -46 -7 2 -26 2 -27 -8
-12 -7 -12 -14 0 -14 0 -11 19 -10 20 0 30 0 31 -32 -1 -33 -2 -28 -4z"/>
</g>
</svg>
