<?xml version="1.0" standalone="no"?>
<!DOCTYPE svg PUBLIC "-//W3C//DTD SVG 20010904//EN"
 "http://www.w3.org/TR/2001/REC-SVG-20010904/DTD/svg10.dtd">
<svg version="1.0" xmlns="http://www.w3.org/2000/svg"
 width="41.000000pt" height="31.000000pt" viewBox="0 0 41.000000 31.000000"
 preserveAspectRatio="xMidYMid meet">
<metadata>
Created by potrace 1.16, written by Peter Selinger 2001-2019
</metadata>
<g transform="translate(0.000000,31.000000) scale(0.100000,-0.100000)"
fill="#000000" stroke="none">
<path d="M279 303 l-1 -8 2 -22 1 -22 -21 -21 -21 -21 -17 3 -17 3 0 30 -1 30
-7 13 -8 12 -50 0 -49 0 0 -43 0 -43 -13 -19 -14 -18 -31 6 -32 7 0 -24 0 -24
13 -10 12 -10 35 -4 35 -3 -3 -58 -3 -57 44 0 44 0 18 20 17 19 -5 16 -6 15
24 0 24 0 3 -16 3 -17 61 -17 60 -16 12 13 12 12 3 48 2 48 -38 2 -38 1 -15
12 -15 13 18 19 18 20 27 -4 27 -4 4 10 4 11 -6 50 -6 50 -52 3 -53 4 -1 -9z"/>
</g>
</svg>
