<?xml version="1.0" standalone="no"?>
<!DOCTYPE svg PUBLIC "-//W3C//DTD SVG 20010904//EN"
 "http://www.w3.org/TR/2001/REC-SVG-20010904/DTD/svg10.dtd">
<svg version="1.0" xmlns="http://www.w3.org/2000/svg"
 width="44.000000pt" height="33.000000pt" viewBox="0 0 44.000000 33.000000"
 preserveAspectRatio="xMidYMid meet">
<metadata>
Created by potrace 1.16, written by Peter Selinger 2001-2019
</metadata>
<g transform="translate(0.000000,33.000000) scale(0.100000,-0.100000)"
fill="#000000" stroke="none">
<path d="M100 280 l0 -50 -38 0 -38 0 -12 -12 -12 -12 0 -36 0 -37 18 -16 19
-17 42 0 43 0 -6 -25 -6 -25 -6 -25 -6 -25 81 0 81 0 -2 38 -1 39 7 12 7 11
10 -5 9 -6 0 -23 0 -24 13 -10 12 -10 59 -7 59 -8 -8 58 -7 58 -5 14 -5 13
-23 0 -24 0 -6 9 -5 10 12 7 12 8 31 0 30 1 3 66 3 66 -32 7 -31 6 -32 0 -31
0 -13 -9 -13 -8 6 -26 7 -25 -20 -11 -19 -10 -16 17 -15 17 5 28 5 27 -71 0
-71 0 0 -50z"/>
</g>
</svg>
