<?xml version="1.0" standalone="no"?>
<!DOCTYPE svg PUBLIC "-//W3C//DTD SVG 20010904//EN"
 "http://www.w3.org/TR/2001/REC-SVG-20010904/DTD/svg10.dtd">
<svg version="1.0" xmlns="http://www.w3.org/2000/svg"
 width="42.000000pt" height="31.000000pt" viewBox="0 0 42.000000 31.000000"
 preserveAspectRatio="xMidYMid meet">
<metadata>
Created by potrace 1.16, written by Peter Selinger 2001-2019
</metadata>
<g transform="translate(0.000000,31.000000) scale(0.100000,-0.100000)"
fill="#000000" stroke="none">
<path d="M100 254 l0 -53 -35 6 -35 6 -15 -13 -15 -12 0 -28 0 -27 20 -18 19
-17 40 4 41 3 4 -10 4 -11 -14 -39 -14 -40 0 -2 0 -3 69 0 68 0 -1 40 -1 39
12 12 11 11 21 -7 21 -6 -6 -23 -5 -22 13 -11 13 -10 49 -8 48 -7 -7 44 -6 43
-5 18 -5 17 -25 0 -25 0 -5 15 -6 15 12 15 12 15 32 -3 31 -2 3 57 3 57 -45 6
-44 7 -19 -6 -20 -6 5 -30 4 -29 -26 -12 -26 -12 -21 19 -21 19 6 27 6 28 -60
-1 -60 -2 0 -53z"/>
</g>
</svg>
