<?xml version="1.0" standalone="no"?>
<!DOCTYPE svg PUBLIC "-//W3C//DTD SVG 20010904//EN"
 "http://www.w3.org/TR/2001/REC-SVG-20010904/DTD/svg10.dtd">
<svg version="1.0" xmlns="http://www.w3.org/2000/svg"
 width="45.000000pt" height="31.000000pt" viewBox="0 0 45.000000 31.000000"
 preserveAspectRatio="xMidYMid meet">
<metadata>
Created by potrace 1.16, written by Peter Selinger 2001-2019
</metadata>
<g transform="translate(0.000000,31.000000) scale(0.100000,-0.100000)"
fill="#000000" stroke="none">
<path d="M104 303 l-22 -4 -5 -46 -5 -45 -13 -9 -14 -9 -23 5 -23 6 3 -38 3
-38 35 -5 35 -5 3 -58 3 -58 57 3 57 3 0 32 0 33 26 0 27 0 5 -14 6 -15 43
-13 43 -12 10 -1 10 0 5 55 5 55 32 3 31 3 6 15 6 15 -10 18 -9 18 -24 -4 -25
-5 -7 11 -7 12 0 43 0 43 -50 -12 -51 -11 -3 -19 -3 -18 -13 -8 -13 -9 -18 0
-18 0 -21 11 -20 11 7 34 6 34 -23 -1 -23 -2 -21 -4z"/>
</g>
</svg>
