<?xml version="1.0" standalone="no"?>
<!DOCTYPE svg PUBLIC "-//W3C//DTD SVG 20010904//EN"
 "http://www.w3.org/TR/2001/REC-SVG-20010904/DTD/svg10.dtd">
<svg version="1.0" xmlns="http://www.w3.org/2000/svg"
 width="32.000000pt" height="41.000000pt" viewBox="0 0 32.000000 41.000000"
 preserveAspectRatio="xMidYMid meet">
<metadata>
Created by potrace 1.16, written by Peter Selinger 2001-2019
</metadata>
<g transform="translate(0.000000,41.000000) scale(0.100000,-0.100000)"
fill="#000000" stroke="none">
<path d="M27 403 l-27 -4 0 -65 0 -65 38 3 37 3 3 -22 3 -21 -22 -4 -22 -3
-18 -65 -18 -65 -1 -9 0 -9 55 6 55 6 0 -33 0 -34 14 -11 15 -12 33 3 33 3 3
48 3 49 26 -7 25 -6 27 -5 26 -6 -3 154 -4 153 -4 4 -4 4 -56 -12 -55 -13 -9
-24 -10 -24 -10 0 -11 0 -15 15 -16 15 7 30 7 30 -39 -1 -38 -2 -28 -4z"/>
</g>
</svg>
