<?xml version="1.0" standalone="no"?>
<!DOCTYPE svg PUBLIC "-//W3C//DTD SVG 20010904//EN"
 "http://www.w3.org/TR/2001/REC-SVG-20010904/DTD/svg10.dtd">
<svg version="1.0" xmlns="http://www.w3.org/2000/svg"
 width="30.000000pt" height="39.000000pt" viewBox="0 0 30.000000 39.000000"
 preserveAspectRatio="xMidYMid meet">
<metadata>
Created by potrace 1.16, written by Peter Selinger 2001-2019
</metadata>
<g transform="translate(0.000000,39.000000) scale(0.100000,-0.100000)"
fill="#000000" stroke="none">
<path d="M27 383 l-27 -4 0 -53 0 -53 37 1 38 1 0 -35 0 -35 -19 0 -19 0 -17
-64 -18 -63 54 7 54 6 0 -34 0 -35 14 -12 15 -12 23 4 23 3 3 49 3 48 39 -6
38 -6 14 -5 13 -5 -3 146 -3 145 -32 -7 -32 -7 -23 -8 -23 -9 7 -11 7 -11 -14
-9 -14 -9 -18 0 -18 0 -16 15 -15 16 4 29 5 30 -26 -1 -26 -2 -28 -4z"/>
</g>
</svg>
