<?xml version="1.0" standalone="no"?>
<!DOCTYPE svg PUBLIC "-//W3C//DTD SVG 20010904//EN"
 "http://www.w3.org/TR/2001/REC-SVG-20010904/DTD/svg10.dtd">
<svg version="1.0" xmlns="http://www.w3.org/2000/svg"
 width="49.000000pt" height="31.000000pt" viewBox="0 0 49.000000 31.000000"
 preserveAspectRatio="xMidYMid meet">
<metadata>
Created by potrace 1.16, written by Peter Selinger 2001-2019
</metadata>
<g transform="translate(0.000000,31.000000) scale(0.100000,-0.100000)"
fill="#000000" stroke="none">
<path d="M92 265 l1 -47 -14 -9 -14 -9 -22 5 -22 5 -11 -19 -10 -20 0 -11 0
-10 25 -10 25 -10 11 -27 11 -28 1 -32 1 -33 57 0 57 0 12 14 11 15 -3 18 -3
18 8 12 8 13 14 0 14 0 15 -16 16 -15 0 -35 0 -35 48 3 47 3 -4 30 -3 30 -2
30 -1 30 25 1 25 1 18 2 17 1 20 20 20 20 -10 21 -11 20 -36 -7 -35 -7 -9 14
-9 14 0 43 0 42 -56 0 -55 0 6 -20 7 -21 -12 -14 -12 -15 -39 0 -39 0 2 33 3
32 -47 3 -46 3 0 -46z"/>
</g>
</svg>
