<?xml version="1.0" standalone="no"?>
<!DOCTYPE svg PUBLIC "-//W3C//DTD SVG 20010904//EN"
 "http://www.w3.org/TR/2001/REC-SVG-20010904/DTD/svg10.dtd">
<svg version="1.0" xmlns="http://www.w3.org/2000/svg"
 width="51.000000pt" height="33.000000pt" viewBox="0 0 51.000000 33.000000"
 preserveAspectRatio="xMidYMid meet">
<metadata>
Created by potrace 1.16, written by Peter Selinger 2001-2019
</metadata>
<g transform="translate(0.000000,33.000000) scale(0.100000,-0.100000)"
fill="#000000" stroke="none">
<path d="M90 280 l0 -50 -12 -1 -13 -1 -22 2 -22 1 -10 -20 -11 -20 0 -21 0
-20 25 -10 25 -10 10 -25 10 -26 0 -35 0 -34 68 0 68 0 12 12 12 12 0 27 0 28
9 6 9 5 16 -16 16 -15 0 -35 0 -35 58 3 57 3 -1 30 -2 30 -3 30 -4 30 22 -3
21 -3 35 15 35 14 7 21 6 20 -11 22 -12 21 -38 -6 -38 -6 -6 16 -6 16 0 39 0
39 -66 0 -65 0 2 -22 3 -23 -7 -12 -8 -13 -27 0 -27 0 0 33 0 32 -57 3 -58 3
0 -51z"/>
</g>
</svg>
