<?xml version="1.0" standalone="no"?>
<!DOCTYPE svg PUBLIC "-//W3C//DTD SVG 20010904//EN"
 "http://www.w3.org/TR/2001/REC-SVG-20010904/DTD/svg10.dtd">
<svg version="1.0" xmlns="http://www.w3.org/2000/svg"
 width="43.000000pt" height="42.000000pt" viewBox="0 0 43.000000 42.000000"
 preserveAspectRatio="xMidYMid meet">
<metadata>
Created by potrace 1.16, written by Peter Selinger 2001-2019
</metadata>
<g transform="translate(0.000000,42.000000) scale(0.100000,-0.100000)"
fill="#000000" stroke="none">
<path d="M283 395 l4 -26 -17 -21 -17 -21 -16 6 -17 6 0 30 0 30 -10 6 -11 7
-49 -7 -50 -7 0 -48 0 -48 -13 -10 -12 -10 -35 -4 -35 -3 -3 -26 -3 -26 17
-18 17 -17 24 5 24 5 10 -25 9 -24 0 -36 0 -36 44 5 45 5 3 -41 3 -41 60 0 59
0 6 24 6 25 51 14 51 14 -5 57 -5 56 -4 13 -3 12 -25 0 -24 0 -6 16 -6 16 0 4
0 4 30 0 30 0 10 26 10 25 0 44 0 44 -37 10 -38 11 -39 0 -38 0 5 -25z"/>
</g>
</svg>
