<?xml version="1.0" standalone="no"?>
<!DOCTYPE svg PUBLIC "-//W3C//DTD SVG 20010904//EN"
 "http://www.w3.org/TR/2001/REC-SVG-20010904/DTD/svg10.dtd">
<svg version="1.0" xmlns="http://www.w3.org/2000/svg"
 width="41.000000pt" height="40.000000pt" viewBox="0 0 41.000000 40.000000"
 preserveAspectRatio="xMidYMid meet">
<metadata>
Created by potrace 1.16, written by Peter Selinger 2001-2019
</metadata>
<g transform="translate(0.000000,40.000000) scale(0.100000,-0.100000)"
fill="#000000" stroke="none">
<path d="M285 380 l7 -21 -16 -24 -16 -25 -25 0 -24 0 -9 16 -9 17 4 17 5 18
-11 6 -10 6 -40 -6 -41 -7 0 -47 0 -48 -13 -10 -12 -10 -35 -4 -35 -3 -3 -16
-3 -17 16 -16 16 -16 25 6 24 6 10 -27 10 -26 0 -36 0 -35 48 7 47 6 0 -43 0
-43 50 0 50 0 -1 22 -1 23 56 16 56 15 -5 57 -5 57 -25 4 -25 3 -7 12 -8 11 0
18 0 17 30 0 30 0 10 26 10 25 0 34 0 34 -37 10 -38 11 -28 0 -28 0 6 -20z"/>
</g>
</svg>
