<?xml version="1.0" standalone="no"?>
<!DOCTYPE svg PUBLIC "-//W3C//DTD SVG 20010904//EN"
 "http://www.w3.org/TR/2001/REC-SVG-20010904/DTD/svg10.dtd">
<svg version="1.0" xmlns="http://www.w3.org/2000/svg"
 width="42.000000pt" height="34.000000pt" viewBox="0 0 42.000000 34.000000"
 preserveAspectRatio="xMidYMid meet">
<metadata>
Created by potrace 1.16, written by Peter Selinger 2001-2019
</metadata>
<g transform="translate(0.000000,34.000000) scale(0.100000,-0.100000)"
fill="#000000" stroke="none">
<path d="M23 333 l-23 -4 0 -165 0 -164 48 6 47 5 22 5 23 4 6 28 6 27 3 12 4
13 15 -6 15 -6 3 -20 3 -21 58 -19 59 -19 19 22 19 22 0 18 0 17 6 16 6 16 17
0 17 0 12 12 12 12 0 26 0 26 -12 12 -12 12 -33 0 -33 0 0 55 0 55 -37 -1 -38
-1 -30 -7 -30 -6 0 -28 0 -28 -19 -11 -19 -11 -13 17 -12 18 5 34 6 34 -49 -1
-49 -2 -22 -4z"/>
</g>
</svg>
