<?xml version="1.0" standalone="no"?>
<!DOCTYPE svg PUBLIC "-//W3C//DTD SVG 20010904//EN"
 "http://www.w3.org/TR/2001/REC-SVG-20010904/DTD/svg10.dtd">
<svg version="1.0" xmlns="http://www.w3.org/2000/svg"
 width="49.000000pt" height="41.000000pt" viewBox="0 0 49.000000 41.000000"
 preserveAspectRatio="xMidYMid meet">
<metadata>
Created by potrace 1.16, written by Peter Selinger 2001-2019
</metadata>
<g transform="translate(0.000000,41.000000) scale(0.100000,-0.100000)"
fill="#000000" stroke="none">
<path d="M274 380 l6 -32 -11 -19 -10 -20 -22 3 -22 3 3 28 4 28 -12 15 -12
14 -49 0 -49 0 0 -54 0 -54 -48 1 -47 2 -3 -42 -3 -42 28 -3 27 -3 20 -67 20
-67 43 6 43 6 0 -26 0 -25 6 -16 6 -16 44 0 43 0 11 21 11 20 -3 27 -3 27 15
-1 15 -1 42 -7 42 -8 3 64 3 63 35 5 35 5 3 27 3 28 -27 10 -27 11 -19 -7 -19
-6 3 64 3 63 -69 3 -69 3 7 -31z"/>
</g>
</svg>
