<?xml version="1.0" standalone="no"?>
<!DOCTYPE svg PUBLIC "-//W3C//DTD SVG 20010904//EN"
 "http://www.w3.org/TR/2001/REC-SVG-20010904/DTD/svg10.dtd">
<svg version="1.0" xmlns="http://www.w3.org/2000/svg"
 width="51.000000pt" height="41.000000pt" viewBox="0 0 51.000000 41.000000"
 preserveAspectRatio="xMidYMid meet">
<metadata>
Created by potrace 1.16, written by Peter Selinger 2001-2019
</metadata>
<g transform="translate(0.000000,41.000000) scale(0.100000,-0.100000)"
fill="#000000" stroke="none">
<path d="M231 401 l-14 -9 7 -27 7 -28 -13 -8 -13 -9 -58 0 -59 0 4 -47 3 -48
-45 -5 -45 -5 -3 -32 -3 -31 23 -16 22 -16 30 0 29 0 -6 -60 -7 -60 63 0 63 0
17 13 16 12 3 35 3 35 10 0 10 0 5 -40 5 -40 65 -7 65 -7 10 10 10 10 10 47
10 46 25 6 25 6 0 44 0 45 -37 3 -38 3 -1 12 -1 12 2 44 2 44 -29 -7 -28 -7
-32 -6 -33 -5 0 35 0 36 -22 15 -22 16 -11 0 -10 0 -14 -9z"/>
</g>
</svg>
