<?xml version="1.0" standalone="no"?>
<!DOCTYPE svg PUBLIC "-//W3C//DTD SVG 20010904//EN"
 "http://www.w3.org/TR/2001/REC-SVG-20010904/DTD/svg10.dtd">
<svg version="1.0" xmlns="http://www.w3.org/2000/svg"
 width="49.000000pt" height="39.000000pt" viewBox="0 0 49.000000 39.000000"
 preserveAspectRatio="xMidYMid meet">
<metadata>
Created by potrace 1.16, written by Peter Selinger 2001-2019
</metadata>
<g transform="translate(0.000000,39.000000) scale(0.100000,-0.100000)"
fill="#000000" stroke="none">
<path d="M233 383 l-12 -4 6 -31 6 -30 -14 -9 -14 -9 -58 0 -59 0 7 -39 7 -40
-9 -13 -8 -13 -40 0 -40 0 -3 -22 -3 -22 25 -17 26 -16 25 4 24 5 5 -13 5 -12
-4 -19 -4 -18 -5 -32 -5 -33 52 0 53 0 18 13 19 14 -5 31 -5 32 20 6 19 6 12
-12 11 -11 0 -32 0 -32 55 -6 55 -6 10 9 10 9 10 47 10 46 25 6 25 6 0 34 0
35 -35 0 -35 0 -7 15 -6 15 6 44 5 44 -19 -8 -19 -9 -45 0 -45 -1 0 34 0 33
-20 13 -20 13 -12 -5z"/>
</g>
</svg>
