<?xml version="1.0" standalone="no"?>
<!DOCTYPE svg PUBLIC "-//W3C//DTD SVG 20010904//EN"
 "http://www.w3.org/TR/2001/REC-SVG-20010904/DTD/svg10.dtd">
<svg version="1.0" xmlns="http://www.w3.org/2000/svg"
 width="40.000000pt" height="40.000000pt" viewBox="0 0 40.000000 40.000000"
 preserveAspectRatio="xMidYMid meet">
<metadata>
Created by potrace 1.16, written by Peter Selinger 2001-2019
</metadata>
<g transform="translate(0.000000,40.000000) scale(0.100000,-0.100000)"
fill="#000000" stroke="none">
<path d="M132 392 l-13 -9 3 -34 3 -34 -55 -3 -55 -3 -7 -12 -8 -12 0 -47 0
-48 45 0 46 0 6 -17 6 -16 -23 -19 -23 -19 -29 6 -28 7 0 -50 0 -50 5 -14 5
-13 53 4 52 3 12 10 12 9 3 27 3 27 17 3 18 3 9 -24 10 -25 56 -12 57 -12 4 5
5 5 6 55 6 56 31 3 31 3 3 22 3 22 -21 11 -22 12 -19 -5 -19 -5 0 46 0 47 -8
13 -9 13 -49 12 -49 12 0 18 0 18 -15 9 -15 10 -15 0 -15 0 -13 -8z"/>
</g>
</svg>
