<?xml version="1.0" standalone="no"?>
<!DOCTYPE svg PUBLIC "-//W3C//DTD SVG 20010904//EN"
 "http://www.w3.org/TR/2001/REC-SVG-20010904/DTD/svg10.dtd">
<svg version="1.0" xmlns="http://www.w3.org/2000/svg"
 width="35.000000pt" height="41.000000pt" viewBox="0 0 35.000000 41.000000"
 preserveAspectRatio="xMidYMid meet">
<metadata>
Created by potrace 1.16, written by Peter Selinger 2001-2019
</metadata>
<g transform="translate(0.000000,41.000000) scale(0.100000,-0.100000)"
fill="#000000" stroke="none">
<path d="M116 401 l-7 -10 7 -25 6 -24 -22 -12 -23 -12 -38 6 -39 6 0 -64 0
-65 38 -3 37 -3 0 -25 0 -24 -24 -6 -25 -6 -12 -54 -13 -55 -1 -12 0 -13 61 0
60 0 20 10 19 11 0 40 0 40 10 -6 10 -6 0 -39 0 -38 16 -6 16 -6 63 0 62 0 7
38 6 37 0 26 0 27 -16 6 -16 6 -23 0 -23 0 -6 16 -6 16 0 9 0 9 30 0 29 0 11
19 10 20 0 45 0 45 -37 10 -38 10 -25 3 -25 3 -5 30 -5 30 -42 3 -41 3 -6 -10z"/>
</g>
</svg>
