<?xml version="1.0" standalone="no"?>
<!DOCTYPE svg PUBLIC "-//W3C//DTD SVG 20010904//EN"
 "http://www.w3.org/TR/2001/REC-SVG-20010904/DTD/svg10.dtd">
<svg version="1.0" xmlns="http://www.w3.org/2000/svg"
 width="46.000000pt" height="47.000000pt" viewBox="0 0 46.000000 47.000000"
 preserveAspectRatio="xMidYMid meet">
<metadata>
Created by potrace 1.16, written by Peter Selinger 2001-2019
</metadata>
<g transform="translate(0.000000,47.000000) scale(0.100000,-0.100000)"
fill="#000000" stroke="none">
<path d="M194 456 l-6 -16 4 -30 5 -30 -59 0 -58 0 0 -36 0 -35 -11 -21 -11
-20 -29 6 -29 6 0 -30 0 -29 16 -16 17 -16 13 5 14 5 16 -6 16 -6 -7 -54 -7
-54 47 7 46 6 -6 -35 -7 -35 20 -11 21 -11 18 0 18 0 13 9 13 8 3 19 3 18 49
11 49 10 0 60 0 60 20 1 20 0 22 8 21 7 6 14 5 15 -6 16 -6 16 -33 -6 -32 -7
-7 11 -6 10 0 54 0 53 -57 9 -57 9 0 30 0 30 -28 3 -27 3 -6 -15z"/>
</g>
</svg>
