<?xml version="1.0" standalone="no"?>
<!DOCTYPE svg PUBLIC "-//W3C//DTD SVG 20010904//EN"
 "http://www.w3.org/TR/2001/REC-SVG-20010904/DTD/svg10.dtd">
<svg version="1.0" xmlns="http://www.w3.org/2000/svg"
 width="48.000000pt" height="49.000000pt" viewBox="0 0 48.000000 49.000000"
 preserveAspectRatio="xMidYMid meet">
<metadata>
Created by potrace 1.16, written by Peter Selinger 2001-2019
</metadata>
<g transform="translate(0.000000,49.000000) scale(0.100000,-0.100000)"
fill="#000000" stroke="none">
<path d="M197 484 l-7 -7 0 -39 0 -38 -55 0 -55 0 0 -36 0 -35 -10 -19 -10
-19 -30 6 -30 5 0 -40 0 -41 16 -15 15 -16 31 0 30 0 -7 -37 -6 -38 -6 -24 -6
-24 27 7 26 6 23 6 24 5 -5 -32 -5 -32 19 -14 18 -13 32 0 33 0 15 16 16 15 0
13 0 13 48 9 47 9 0 60 0 60 14 -3 14 -3 28 12 28 11 6 19 6 19 -6 21 -7 20
-36 -3 -37 -3 -3 61 -3 62 -54 7 -54 6 -3 32 -3 32 -35 3 -36 3 -7 -7z"/>
</g>
</svg>
