<?xml version="1.0" standalone="no"?>
<!DOCTYPE svg PUBLIC "-//W3C//DTD SVG 20010904//EN"
 "http://www.w3.org/TR/2001/REC-SVG-20010904/DTD/svg10.dtd">
<svg version="1.0" xmlns="http://www.w3.org/2000/svg"
 width="41.000000pt" height="47.000000pt" viewBox="0 0 41.000000 47.000000"
 preserveAspectRatio="xMidYMid meet">
<metadata>
Created by potrace 1.16, written by Peter Selinger 2001-2019
</metadata>
<g transform="translate(0.000000,47.000000) scale(0.100000,-0.100000)"
fill="#000000" stroke="none">
<path d="M110 440 l0 -29 -42 -12 -43 -11 -12 -4 -13 -3 0 -146 0 -145 61 7
60 6 -6 -34 -6 -34 14 -20 15 -20 29 11 28 10 0 29 1 30 51 10 52 10 6 7 6 6
7 49 7 48 31 1 31 1 12 7 11 7 0 23 0 24 -29 12 -29 12 -23 -4 -24 -3 0 55 0
55 -65 10 -65 11 -3 27 -3 27 -30 0 -29 0 0 -30z"/>
</g>
</svg>
