<?xml version="1.0" standalone="no"?>
<!DOCTYPE svg PUBLIC "-//W3C//DTD SVG 20010904//EN"
 "http://www.w3.org/TR/2001/REC-SVG-20010904/DTD/svg10.dtd">
<svg version="1.0" xmlns="http://www.w3.org/2000/svg"
 width="43.000000pt" height="49.000000pt" viewBox="0 0 43.000000 49.000000"
 preserveAspectRatio="xMidYMid meet">
<metadata>
Created by potrace 1.16, written by Peter Selinger 2001-2019
</metadata>
<g transform="translate(0.000000,49.000000) scale(0.100000,-0.100000)"
fill="#000000" stroke="none">
<path d="M110 460 l0 -29 -42 -12 -43 -11 -12 -4 -13 -3 0 -157 0 -156 58 7
59 7 -5 -30 -4 -30 11 -21 12 -21 25 0 25 0 20 10 19 11 0 28 0 29 50 7 50 7
6 9 6 10 7 47 7 47 23 -2 22 -3 20 10 19 11 0 33 0 33 -25 11 -26 12 -27 0
-27 0 0 52 0 53 -65 10 -65 11 -3 27 -3 27 -40 0 -39 0 0 -30z"/>
</g>
</svg>
