<?xml version="1.0" standalone="no"?>
<!DOCTYPE svg PUBLIC "-//W3C//DTD SVG 20010904//EN"
 "http://www.w3.org/TR/2001/REC-SVG-20010904/DTD/svg10.dtd">
<svg version="1.0" xmlns="http://www.w3.org/2000/svg"
 width="32.000000pt" height="40.000000pt" viewBox="0 0 32.000000 40.000000"
 preserveAspectRatio="xMidYMid meet">
<metadata>
Created by potrace 1.16, written by Peter Selinger 2001-2019
</metadata>
<g transform="translate(0.000000,40.000000) scale(0.100000,-0.100000)"
fill="#000000" stroke="none">
<path d="M140 366 l0 -35 -35 -7 -35 -6 -30 4 -30 5 -6 -22 -6 -23 4 -28 3
-29 48 -3 48 -3 -3 -37 -3 -37 -30 0 -30 0 -11 -45 -12 -45 -7 -18 -8 -18 59
3 59 3 0 35 0 35 23 3 23 4 15 -13 15 -12 -3 -36 -3 -36 32 -3 32 -3 36 17 35
16 0 48 0 48 -15 12 -14 12 -11 -7 -10 -6 -20 6 -19 6 -6 20 -6 19 5 18 6 18
35 -4 35 -4 10 27 10 26 0 24 0 24 -37 10 -38 10 -28 6 -28 6 3 22 3 22 -27 3
-28 3 0 -35z"/>
</g>
</svg>
