<?xml version="1.0" standalone="no"?>
<!DOCTYPE svg PUBLIC "-//W3C//DTD SVG 20010904//EN"
 "http://www.w3.org/TR/2001/REC-SVG-20010904/DTD/svg10.dtd">
<svg version="1.0" xmlns="http://www.w3.org/2000/svg"
 width="32.000000pt" height="43.000000pt" viewBox="0 0 32.000000 43.000000"
 preserveAspectRatio="xMidYMid meet">
<metadata>
Created by potrace 1.16, written by Peter Selinger 2001-2019
</metadata>
<g transform="translate(0.000000,43.000000) scale(0.100000,-0.100000)"
fill="#000000" stroke="none">
<path d="M125 420 l-6 -10 5 -18 6 -17 -9 -13 -8 -14 -54 -6 -54 -7 0 -70 0
-70 32 0 31 0 8 -7 7 -8 -20 0 -21 0 -22 -66 -21 -67 5 -13 5 -14 40 0 40 0
25 11 25 12 3 36 3 36 15 0 15 0 3 -35 2 -35 6 -24 5 -24 51 6 52 7 14 14 15
14 -9 59 -9 58 -28 0 -29 0 -13 19 -14 19 8 15 9 16 38 0 39 1 3 58 3 58 -59
-7 -60 -6 5 26 5 26 -16 25 -16 25 -25 0 -24 0 -6 -10z"/>
</g>
</svg>
