<?xml version="1.0" standalone="no"?>
<!DOCTYPE svg PUBLIC "-//W3C//DTD SVG 20010904//EN"
 "http://www.w3.org/TR/2001/REC-SVG-20010904/DTD/svg10.dtd">
<svg version="1.0" xmlns="http://www.w3.org/2000/svg"
 width="42.000000pt" height="40.000000pt" viewBox="0 0 42.000000 40.000000"
 preserveAspectRatio="xMidYMid meet">
<metadata>
Created by potrace 1.16, written by Peter Selinger 2001-2019
</metadata>
<g transform="translate(0.000000,40.000000) scale(0.100000,-0.100000)"
fill="#000000" stroke="none">
<path d="M152 391 l-14 -8 4 -34 3 -34 -63 0 -63 0 3 -55 3 -55 40 0 40 0 3
-27 3 -27 -24 -6 -24 -6 -29 3 -29 3 -3 -29 -4 -29 16 -42 16 -41 48 6 47 7
18 8 17 7 0 35 0 34 18 -3 17 -3 0 -35 0 -35 61 -5 61 -5 9 10 9 10 0 50 0 50
32 -3 32 -3 11 21 11 21 -6 20 -7 20 -36 -3 -37 -3 3 52 3 52 -23 6 -23 5 -40
2 -40 3 0 28 0 28 -15 9 -15 10 -10 0 -10 0 -13 -9z"/>
</g>
</svg>
