<?xml version="1.0" standalone="no"?>
<!DOCTYPE svg PUBLIC "-//W3C//DTD SVG 20010904//EN"
 "http://www.w3.org/TR/2001/REC-SVG-20010904/DTD/svg10.dtd">
<svg version="1.0" xmlns="http://www.w3.org/2000/svg"
 width="48.000000pt" height="39.000000pt" viewBox="0 0 48.000000 39.000000"
 preserveAspectRatio="xMidYMid meet">
<metadata>
Created by potrace 1.16, written by Peter Selinger 2001-2019
</metadata>
<g transform="translate(0.000000,39.000000) scale(0.100000,-0.100000)"
fill="#000000" stroke="none">
<path d="M213 379 l-11 -11 5 -34 5 -33 -58 -3 -59 -3 -3 -42 -3 -43 -33 0
-34 0 -11 -14 -12 -15 3 -33 3 -33 22 2 22 3 11 -38 10 -37 0 -16 0 -17 22 -6
23 -6 46 0 47 0 10 13 11 13 -2 30 -2 29 30 0 30 0 0 -29 0 -29 20 -7 20 -7
41 -5 41 -6 16 58 16 58 18 -2 18 -1 3 37 3 36 -23 16 -22 16 -18 0 -18 0 0
41 0 41 -26 -6 -26 -7 -29 -6 -29 -5 -13 11 -14 11 5 30 4 30 -12 15 -12 15
-12 0 -12 0 -11 -11z"/>
</g>
</svg>
