<?xml version="1.0" standalone="no"?>
<!DOCTYPE svg PUBLIC "-//W3C//DTD SVG 20010904//EN"
 "http://www.w3.org/TR/2001/REC-SVG-20010904/DTD/svg10.dtd">
<svg version="1.0" xmlns="http://www.w3.org/2000/svg"
 width="47.000000pt" height="40.000000pt" viewBox="0 0 47.000000 40.000000"
 preserveAspectRatio="xMidYMid meet">
<metadata>
Created by potrace 1.16, written by Peter Selinger 2001-2019
</metadata>
<g transform="translate(0.000000,40.000000) scale(0.100000,-0.100000)"
fill="#000000" stroke="none">
<path d="M270 361 l0 -39 -14 -11 -15 -12 -28 3 -28 3 0 30 0 30 -53 3 -52 3
0 -40 0 -39 -6 -16 -6 -16 -34 0 -34 0 0 -19 0 -19 14 -11 13 -11 24 2 24 3 3
-69 3 -68 46 7 46 7 -7 -27 -7 -26 15 -14 15 -15 24 0 25 0 16 6 16 6 0 35 0
35 44 -3 43 -4 10 10 10 11 -8 19 -8 20 0 31 -1 31 31 -5 31 -5 24 13 24 13 0
16 0 16 -10 15 -9 14 -35 -2 -36 -3 0 43 0 43 -8 11 -7 11 -34 11 -34 12 -13
0 -14 0 0 -39z"/>
</g>
</svg>
