<?xml version="1.0" standalone="no"?>
<!DOCTYPE svg PUBLIC "-//W3C//DTD SVG 20010904//EN"
 "http://www.w3.org/TR/2001/REC-SVG-20010904/DTD/svg10.dtd">
<svg version="1.0" xmlns="http://www.w3.org/2000/svg"
 width="46.000000pt" height="31.000000pt" viewBox="0 0 46.000000 31.000000"
 preserveAspectRatio="xMidYMid meet">
<metadata>
Created by potrace 1.16, written by Peter Selinger 2001-2019
</metadata>
<g transform="translate(0.000000,31.000000) scale(0.100000,-0.100000)"
fill="#000000" stroke="none">
<path d="M80 276 l0 -35 -10 -25 -10 -26 -30 0 -30 0 0 -17 0 -18 8 -11 7 -12
25 -3 25 -4 5 -55 5 -55 60 0 60 0 -3 24 -4 23 6 24 6 24 15 0 14 0 11 -21 11
-20 -6 -28 -6 -28 15 -6 15 -6 50 6 50 6 6 46 7 46 5 18 5 18 25 -3 26 -3 11
17 11 17 -13 13 -12 12 -38 1 -37 0 0 56 0 55 -52 -15 -53 -14 0 -28 0 -29
-27 -6 -26 -7 -16 10 -16 10 0 39 0 39 -47 3 -48 3 0 -35z"/>
</g>
</svg>
