<?xml version="1.0" standalone="no"?>
<!DOCTYPE svg PUBLIC "-//W3C//DTD SVG 20010904//EN"
 "http://www.w3.org/TR/2001/REC-SVG-20010904/DTD/svg10.dtd">
<svg version="1.0" xmlns="http://www.w3.org/2000/svg"
 width="48.000000pt" height="33.000000pt" viewBox="0 0 48.000000 33.000000"
 preserveAspectRatio="xMidYMid meet">
<metadata>
Created by potrace 1.16, written by Peter Selinger 2001-2019
</metadata>
<g transform="translate(0.000000,33.000000) scale(0.100000,-0.100000)"
fill="#000000" stroke="none">
<path d="M80 296 l0 -35 -10 -25 -10 -26 -30 0 -30 0 0 -27 0 -28 8 -11 7 -12
25 -3 25 -4 5 -55 5 -55 70 0 70 0 -2 25 -2 25 5 25 6 25 13 -18 13 -19 -5
-32 -5 -33 18 -7 17 -7 58 7 58 6 6 47 7 46 5 18 5 18 19 -6 20 -7 14 12 15
12 0 24 0 23 -20 11 -20 11 -28 -3 -27 -3 2 58 2 57 -5 0 -4 0 -60 -17 -60
-16 0 -28 0 -28 -21 -6 -21 -7 -11 11 -11 11 0 37 -1 38 -57 3 -58 3 0 -35z"/>
</g>
</svg>
