<?xml version="1.0" standalone="no"?>
<!DOCTYPE svg PUBLIC "-//W3C//DTD SVG 20010904//EN"
 "http://www.w3.org/TR/2001/REC-SVG-20010904/DTD/svg10.dtd">
<svg version="1.0" xmlns="http://www.w3.org/2000/svg"
 width="48.000000pt" height="41.000000pt" viewBox="0 0 48.000000 41.000000"
 preserveAspectRatio="xMidYMid meet">
<metadata>
Created by potrace 1.16, written by Peter Selinger 2001-2019
</metadata>
<g transform="translate(0.000000,41.000000) scale(0.100000,-0.100000)"
fill="#000000" stroke="none">
<path d="M210 395 l-12 -14 -1 -37 -2 -37 -55 -1 -55 -1 -6 -42 -5 -43 -8 -7
-8 -8 -26 0 -27 0 -3 -18 -4 -19 6 -24 6 -24 22 3 22 2 8 -45 8 -45 -4 -12 -5
-12 9 -3 10 -3 65 3 66 4 -3 35 -3 36 16 10 16 10 17 -6 16 -6 0 -24 0 -23 12
-12 12 -12 29 0 28 0 19 -10 19 -10 12 42 11 43 8 22 9 21 19 -5 19 -5 7 27 7
27 -12 15 -13 14 -20 -5 -20 -5 -13 11 -13 10 0 44 0 44 -61 -7 -60 -6 6 37 7
36 -16 25 -16 25 -14 0 -14 0 -12 -15z"/>
</g>
</svg>
