<?xml version="1.0" standalone="no"?>
<!DOCTYPE svg PUBLIC "-//W3C//DTD SVG 20010904//EN"
 "http://www.w3.org/TR/2001/REC-SVG-20010904/DTD/svg10.dtd">
<svg version="1.0" xmlns="http://www.w3.org/2000/svg"
 width="43.000000pt" height="40.000000pt" viewBox="0 0 43.000000 40.000000"
 preserveAspectRatio="xMidYMid meet">
<metadata>
Created by potrace 1.16, written by Peter Selinger 2001-2019
</metadata>
<g transform="translate(0.000000,40.000000) scale(0.100000,-0.100000)"
fill="#000000" stroke="none">
<path d="M151 386 l-12 -14 7 -37 7 -37 -61 4 -61 3 -5 -19 -5 -18 12 -37 13
-36 36 1 36 1 5 -18 5 -19 -5 -20 -5 -20 -12 -2 -11 -2 -45 0 -45 -1 1 -41 0
-40 7 -17 6 -17 72 0 72 0 -6 29 -6 28 12 12 11 11 18 0 18 0 0 -19 0 -20 53
-15 52 -15 10 2 10 2 1 35 2 35 1 16 1 16 29 -5 29 -4 15 22 15 21 -5 20 -5
20 -20 10 -20 11 -23 -6 -24 -6 6 50 6 51 -29 -6 -29 -7 -16 -4 -16 -4 -17 6
-18 7 7 33 6 34 -11 20 -11 20 -23 0 -24 0 -11 -14z"/>
</g>
</svg>
