<?xml version="1.0" standalone="no"?>
<!DOCTYPE svg PUBLIC "-//W3C//DTD SVG 20010904//EN"
 "http://www.w3.org/TR/2001/REC-SVG-20010904/DTD/svg10.dtd">
<svg version="1.0" xmlns="http://www.w3.org/2000/svg"
 width="45.000000pt" height="42.000000pt" viewBox="0 0 45.000000 42.000000"
 preserveAspectRatio="xMidYMid meet">
<metadata>
Created by potrace 1.16, written by Peter Selinger 2001-2019
</metadata>
<g transform="translate(0.000000,42.000000) scale(0.100000,-0.100000)"
fill="#000000" stroke="none">
<path d="M150 405 l-13 -15 6 -36 6 -37 -59 6 -59 5 -6 -27 -6 -27 13 -40 13
-39 38 -3 37 -3 0 -25 0 -24 -12 -1 -13 -1 -45 -2 -45 -1 0 -50 1 -50 7 -18 6
-17 80 0 80 0 3 37 3 36 13 5 12 4 0 -20 0 -19 66 -22 65 -21 10 5 9 6 0 50 0
49 30 0 30 0 15 24 16 24 -7 26 -6 27 -18 9 -19 10 -20 0 -21 0 0 46 0 46 -42
-7 -43 -7 -5 0 -5 0 -12 1 -12 1 6 34 5 33 -11 22 -12 21 -33 0 -34 0 -12 -15z"/>
</g>
</svg>
