<?xml version="1.0" standalone="no"?>
<!DOCTYPE svg PUBLIC "-//W3C//DTD SVG 20010904//EN"
 "http://www.w3.org/TR/2001/REC-SVG-20010904/DTD/svg10.dtd">
<svg version="1.0" xmlns="http://www.w3.org/2000/svg"
 width="34.000000pt" height="42.000000pt" viewBox="0 0 34.000000 42.000000"
 preserveAspectRatio="xMidYMid meet">
<metadata>
Created by potrace 1.16, written by Peter Selinger 2001-2019
</metadata>
<g transform="translate(0.000000,42.000000) scale(0.100000,-0.100000)"
fill="#000000" stroke="none">
<path d="M141 406 l-12 -14 7 -26 6 -26 -27 -10 -26 -10 -40 0 -39 0 0 -22 0
-23 -7 -39 -6 -39 29 6 29 5 17 -9 18 -10 0 -18 0 -19 -14 -11 -14 -12 -25 6
-24 6 -6 -21 -6 -22 6 -49 6 -49 51 0 51 0 14 9 14 9 -7 26 -6 25 17 9 18 9
11 -4 12 -4 -5 -18 -4 -17 13 -11 13 -10 59 -12 59 -13 8 13 9 14 0 58 0 59
-36 -4 -37 -3 -10 16 -10 16 6 17 7 17 20 -6 21 -7 14 12 15 12 0 50 0 50 -58
-7 -58 -7 4 36 4 36 -16 25 -16 25 -19 0 -19 0 -11 -14z"/>
</g>
</svg>
