<?xml version="1.0" standalone="no"?>
<!DOCTYPE svg PUBLIC "-//W3C//DTD SVG 20010904//EN"
 "http://www.w3.org/TR/2001/REC-SVG-20010904/DTD/svg10.dtd">
<svg version="1.0" xmlns="http://www.w3.org/2000/svg"
 width="43.000000pt" height="51.000000pt" viewBox="0 0 43.000000 51.000000"
 preserveAspectRatio="xMidYMid meet">
<metadata>
Created by potrace 1.16, written by Peter Selinger 2001-2019
</metadata>
<g transform="translate(0.000000,51.000000) scale(0.100000,-0.100000)"
fill="#000000" stroke="none">
<path d="M139 483 l-10 -28 4 -22 4 -22 -66 -3 -66 -3 -3 -69 -3 -69 41 6 40
5 6 -10 6 -9 -6 -6 -6 -6 -37 -6 -38 -6 0 -70 0 -70 50 -5 50 -5 3 -32 3 -32
14 -11 14 -11 38 3 38 3 0 32 0 32 45 6 45 6 15 2 15 2 14 53 14 52 23 0 23 0
11 19 10 20 0 26 0 26 -10 20 -11 19 -39 0 -40 0 0 38 0 37 -8 13 -9 13 -39 6
-39 6 -11 9 -12 9 5 20 6 21 -14 9 -14 9 -23 0 -22 0 -11 -27z"/>
</g>
</svg>
