<?xml version="1.0" standalone="no"?>
<!DOCTYPE svg PUBLIC "-//W3C//DTD SVG 20010904//EN"
 "http://www.w3.org/TR/2001/REC-SVG-20010904/DTD/svg10.dtd">
<svg version="1.0" xmlns="http://www.w3.org/2000/svg"
 width="41.000000pt" height="49.000000pt" viewBox="0 0 41.000000 49.000000"
 preserveAspectRatio="xMidYMid meet">
<metadata>
Created by potrace 1.16, written by Peter Selinger 2001-2019
</metadata>
<g transform="translate(0.000000,49.000000) scale(0.100000,-0.100000)"
fill="#000000" stroke="none">
<path d="M140 464 l-10 -25 6 -24 6 -24 -69 -3 -68 -3 -3 -58 -3 -57 43 2 43
3 3 -22 3 -22 -23 -5 -23 -5 -20 -3 -20 -3 0 -60 0 -60 45 -3 45 -3 11 -10 11
-9 -4 -23 -5 -23 16 -13 15 -12 28 3 28 3 -2 32 -3 32 48 6 47 6 15 2 14 2 16
55 16 55 24 0 24 0 10 27 10 27 -12 26 -12 25 -40 0 -40 0 0 38 0 37 -8 13 -9
13 -39 6 -39 6 -13 10 -13 11 5 22 6 22 -16 6 -16 6 -9 0 -9 0 -10 -26z"/>
</g>
</svg>
