<?xml version="1.0" standalone="no"?>
<!DOCTYPE svg PUBLIC "-//W3C//DTD SVG 20010904//EN"
 "http://www.w3.org/TR/2001/REC-SVG-20010904/DTD/svg10.dtd">
<svg version="1.0" xmlns="http://www.w3.org/2000/svg"
 width="35.000000pt" height="49.000000pt" viewBox="0 0 35.000000 49.000000"
 preserveAspectRatio="xMidYMid meet">
<metadata>
Created by potrace 1.16, written by Peter Selinger 2001-2019
</metadata>
<g transform="translate(0.000000,49.000000) scale(0.100000,-0.100000)"
fill="#000000" stroke="none">
<path d="M144 466 l-6 -24 4 -23 3 -24 -70 -3 -70 -3 3 -42 4 -42 11 -13 10
-13 30 3 30 3 10 -16 10 -16 -6 -17 -7 -16 -24 6 -25 6 -11 -44 -11 -43 -9
-28 -9 -27 47 0 47 0 14 -9 14 -9 -5 -26 -5 -27 18 -9 18 -10 13 0 13 0 14 9
14 9 1 23 1 23 45 9 45 9 20 19 19 19 1 52 0 53 -50 0 -50 0 0 30 0 30 32 -3
32 -3 11 21 11 21 -3 32 -3 32 -55 1 -55 1 -13 1 -14 2 7 29 6 30 -11 20 -11
21 -14 0 -15 0 -6 -24z"/>
</g>
</svg>
