<?xml version="1.0" standalone="no"?>
<!DOCTYPE svg PUBLIC "-//W3C//DTD SVG 20010904//EN"
 "http://www.w3.org/TR/2001/REC-SVG-20010904/DTD/svg10.dtd">
<svg version="1.0" xmlns="http://www.w3.org/2000/svg"
 width="41.000000pt" height="33.000000pt" viewBox="0 0 41.000000 33.000000"
 preserveAspectRatio="xMidYMid meet">
<metadata>
Created by potrace 1.16, written by Peter Selinger 2001-2019
</metadata>
<g transform="translate(0.000000,33.000000) scale(0.100000,-0.100000)"
fill="#000000" stroke="none">
<path d="M80 282 l0 -48 -12 -12 -12 -12 -29 0 -28 0 3 -32 3 -33 27 0 27 1 5
-21 5 -20 6 -48 7 -48 67 3 66 3 3 38 3 37 20 0 19 0 0 -25 0 -24 19 -11 20
-10 25 0 26 0 20 -12 19 -12 5 5 5 5 7 67 7 67 -41 0 -41 0 -11 20 -11 21 6
18 5 18 23 -4 22 -3 14 9 14 9 5 51 5 51 -34 -1 -34 -1 -30 -7 -30 -6 -1 -27
-1 -27 -13 -16 -12 -15 -12 0 -11 0 -14 9 -14 9 -1 39 -1 38 -57 3 -58 3 0
-49z"/>
</g>
</svg>
