<?xml version="1.0" standalone="no"?>
<!DOCTYPE svg PUBLIC "-//W3C//DTD SVG 20010904//EN"
 "http://www.w3.org/TR/2001/REC-SVG-20010904/DTD/svg10.dtd">
<svg version="1.0" xmlns="http://www.w3.org/2000/svg"
 width="39.000000pt" height="31.000000pt" viewBox="0 0 39.000000 31.000000"
 preserveAspectRatio="xMidYMid meet">
<metadata>
Created by potrace 1.16, written by Peter Selinger 2001-2019
</metadata>
<g transform="translate(0.000000,31.000000) scale(0.100000,-0.100000)"
fill="#000000" stroke="none">
<path d="M80 263 l0 -49 -12 -12 -12 -12 -29 0 -28 0 3 -22 3 -23 26 3 27 2 5
-22 6 -23 6 -48 7 -48 57 3 56 3 0 33 0 33 17 10 16 9 16 -6 16 -6 0 -24 0
-23 19 -11 20 -10 30 0 30 0 8 -12 7 -13 8 40 7 40 0 22 1 22 -36 -1 -37 -1
-13 18 -14 19 0 20 0 21 9 14 9 13 18 -6 19 -6 13 9 14 8 5 43 6 43 -49 -8
-49 -7 -7 -4 -7 -5 6 -14 5 -15 -16 -25 -16 -25 -23 0 -22 0 -15 10 -15 9 0
38 0 38 -47 3 -48 3 0 -48z"/>
</g>
</svg>
