<?xml version="1.0" standalone="no"?>
<!DOCTYPE svg PUBLIC "-//W3C//DTD SVG 20010904//EN"
 "http://www.w3.org/TR/2001/REC-SVG-20010904/DTD/svg10.dtd">
<svg version="1.0" xmlns="http://www.w3.org/2000/svg"
 width="48.000000pt" height="32.000000pt" viewBox="0 0 48.000000 32.000000"
 preserveAspectRatio="xMidYMid meet">
<metadata>
Created by potrace 1.16, written by Peter Selinger 2001-2019
</metadata>
<g transform="translate(0.000000,32.000000) scale(0.100000,-0.100000)"
fill="#000000" stroke="none">
<path d="M90 275 l0 -45 -20 -20 -20 -20 -25 6 -25 6 0 -16 0 -17 16 -6 16 -6
32 -1 31 -1 0 -65 0 -65 60 0 60 0 -3 38 -4 37 18 7 17 6 14 -19 14 -19 -5
-25 -5 -26 9 -13 8 -14 43 7 43 7 7 10 6 11 -13 36 -13 37 -1 23 0 22 13 1 12
2 35 -2 35 -2 20 15 20 16 -19 15 -20 15 -33 0 -33 0 0 56 0 55 -47 -7 -48 -7
-5 -4 -4 -4 -1 -22 0 -22 -43 -3 -44 -3 7 21 7 21 -12 14 -12 15 -44 0 -44 0
0 -45z"/>
</g>
</svg>
