<?xml version="1.0" standalone="no"?>
<!DOCTYPE svg PUBLIC "-//W3C//DTD SVG 20010904//EN"
 "http://www.w3.org/TR/2001/REC-SVG-20010904/DTD/svg10.dtd">
<svg version="1.0" xmlns="http://www.w3.org/2000/svg"
 width="43.000000pt" height="42.000000pt" viewBox="0 0 43.000000 42.000000"
 preserveAspectRatio="xMidYMid meet">
<metadata>
Created by potrace 1.16, written by Peter Selinger 2001-2019
</metadata>
<g transform="translate(0.000000,42.000000) scale(0.100000,-0.100000)"
fill="#000000" stroke="none">
<path d="M90 365 l0 -55 -28 0 -29 0 -16 -18 -17 -19 0 -10 0 -11 15 -12 16
-13 37 -2 37 -1 -3 -40 -3 -39 -10 -3 -9 -4 0 -25 0 -25 33 7 32 6 18 5 17 5
0 -39 0 -39 18 -16 19 -17 25 0 26 0 16 6 16 6 0 27 0 28 53 12 53 12 12 55
11 55 -6 14 -5 15 -39 -6 -40 -7 -19 18 -20 18 0 17 0 18 14 11 14 12 36 -7
36 -6 0 61 0 61 -54 0 -55 0 -3 -37 -3 -38 -40 0 -40 0 3 14 3 15 -6 23 -5 23
-55 0 -55 0 0 -55z"/>
</g>
</svg>
