<?xml version="1.0" standalone="no"?>
<!DOCTYPE svg PUBLIC "-//W3C//DTD SVG 20010904//EN"
 "http://www.w3.org/TR/2001/REC-SVG-20010904/DTD/svg10.dtd">
<svg version="1.0" xmlns="http://www.w3.org/2000/svg"
 width="40.000000pt" height="33.000000pt" viewBox="0 0 40.000000 33.000000"
 preserveAspectRatio="xMidYMid meet">
<metadata>
Created by potrace 1.16, written by Peter Selinger 2001-2019
</metadata>
<g transform="translate(0.000000,33.000000) scale(0.100000,-0.100000)"
fill="#000000" stroke="none">
<path d="M88 273 l-3 -58 -31 3 -31 3 -12 -15 -13 -15 4 -23 3 -23 27 -3 27
-3 7 -21 6 -21 0 -47 0 -47 72 5 71 5 13 10 13 10 -3 30 -3 30 13 4 12 5 0
-25 0 -25 13 -10 12 -10 48 -7 47 -7 0 21 0 22 -11 45 -11 44 -23 0 -23 0 -6
15 -5 14 15 16 16 16 34 -7 34 -6 0 66 0 67 -62 -3 -63 -3 0 -33 -1 -33 -14
-10 -15 -9 -15 3 -15 2 0 40 0 40 -62 3 -62 3 -3 -58z"/>
</g>
</svg>
