<?xml version="1.0" standalone="no"?>
<!DOCTYPE svg PUBLIC "-//W3C//DTD SVG 20010904//EN"
 "http://www.w3.org/TR/2001/REC-SVG-20010904/DTD/svg10.dtd">
<svg version="1.0" xmlns="http://www.w3.org/2000/svg"
 width="38.000000pt" height="31.000000pt" viewBox="0 0 38.000000 31.000000"
 preserveAspectRatio="xMidYMid meet">
<metadata>
Created by potrace 1.16, written by Peter Selinger 2001-2019
</metadata>
<g transform="translate(0.000000,31.000000) scale(0.100000,-0.100000)"
fill="#000000" stroke="none">
<path d="M88 253 l-3 -58 -31 2 -32 3 -12 -15 -12 -15 6 -15 5 -15 25 0 26 0
6 -27 7 -27 1 -41 1 -40 60 3 60 4 12 10 13 10 -3 32 -2 31 23 3 22 3 0 -24 0
-25 13 -9 12 -10 38 -7 37 -7 0 11 0 11 -11 45 -11 44 -23 0 -23 0 -6 16 -6
17 5 18 6 19 24 6 24 6 20 -7 21 -6 0 56 0 56 -52 -3 -53 -3 3 -26 3 -26 -17
-17 -17 -17 -26 3 -26 3 0 40 0 40 -52 3 -52 3 -3 -58z"/>
</g>
</svg>
