<?xml version="1.0" standalone="no"?>
<!DOCTYPE svg PUBLIC "-//W3C//DTD SVG 20010904//EN"
 "http://www.w3.org/TR/2001/REC-SVG-20010904/DTD/svg10.dtd">
<svg version="1.0" xmlns="http://www.w3.org/2000/svg"
 width="42.000000pt" height="42.000000pt" viewBox="0 0 42.000000 42.000000"
 preserveAspectRatio="xMidYMid meet">
<metadata>
Created by potrace 1.16, written by Peter Selinger 2001-2019
</metadata>
<g transform="translate(0.000000,42.000000) scale(0.100000,-0.100000)"
fill="#000000" stroke="none">
<path d="M142 408 l-12 -12 0 -33 0 -33 -59 0 -58 0 -7 -40 -6 -40 6 -25 6
-24 36 2 37 2 0 -25 0 -24 -25 -6 -25 -6 -10 -46 -10 -46 -7 -8 -8 -7 0 -18 0
-18 52 5 53 5 23 5 23 5 -3 26 -3 27 18 4 17 3 0 -25 0 -25 8 -4 7 -5 60 -3
60 -4 0 65 0 65 38 -3 38 -4 15 12 14 12 0 19 0 19 -25 16 -25 16 -30 -4 -31
-5 3 56 3 56 -57 14 -57 13 -3 27 -3 26 -20 3 -20 3 -13 -13z"/>
</g>
</svg>
