<?xml version="1.0" standalone="no"?>
<!DOCTYPE svg PUBLIC "-//W3C//DTD SVG 20010904//EN"
 "http://www.w3.org/TR/2001/REC-SVG-20010904/DTD/svg10.dtd">
<svg version="1.0" xmlns="http://www.w3.org/2000/svg"
 width="33.000000pt" height="41.000000pt" viewBox="0 0 33.000000 41.000000"
 preserveAspectRatio="xMidYMid meet">
<metadata>
Created by potrace 1.16, written by Peter Selinger 2001-2019
</metadata>
<g transform="translate(0.000000,41.000000) scale(0.100000,-0.100000)"
fill="#000000" stroke="none">
<path d="M146 395 l-6 -17 0 -23 0 -24 -67 -3 -68 -3 2 -54 1 -55 19 -13 18
-14 18 5 17 4 0 -23 0 -24 -16 -3 -16 -3 -19 -50 -19 -50 0 -20 0 -20 73 0 72
0 7 10 7 10 -5 36 -6 36 11 7 12 8 10 -30 10 -29 38 -12 38 -11 17 0 16 0 0
23 0 22 -11 37 -10 38 -24 0 -25 0 0 23 0 23 12 12 12 12 33 0 33 0 0 64 0 65
-54 -6 -55 -6 -3 34 -3 34 -31 3 -31 3 -7 -16z"/>
</g>
</svg>
