<?xml version="1.0" standalone="no"?>
<!DOCTYPE svg PUBLIC "-//W3C//DTD SVG 20010904//EN"
 "http://www.w3.org/TR/2001/REC-SVG-20010904/DTD/svg10.dtd">
<svg version="1.0" xmlns="http://www.w3.org/2000/svg"
 width="31.000000pt" height="39.000000pt" viewBox="0 0 31.000000 39.000000"
 preserveAspectRatio="xMidYMid meet">
<metadata>
Created by potrace 1.16, written by Peter Selinger 2001-2019
</metadata>
<g transform="translate(0.000000,39.000000) scale(0.100000,-0.100000)"
fill="#000000" stroke="none">
<path d="M146 375 l-6 -17 0 -23 0 -24 -67 -3 -68 -3 2 -45 2 -45 16 -11 16
-12 19 5 20 5 0 -35 0 -36 -16 -3 -16 -3 -19 -50 -19 -50 0 -10 0 -10 65 0 65
0 1 10 1 10 -2 36 -1 37 10 7 11 6 20 -6 19 -6 -4 -12 -5 -12 8 -11 7 -11 34
-11 34 -12 8 0 9 0 0 13 0 12 -10 37 -11 38 -22 -3 -22 -2 -3 33 -3 33 12 15
11 14 34 0 34 0 0 53 0 52 -57 0 -58 0 0 30 0 30 -21 3 -21 3 -7 -16z"/>
</g>
</svg>
