<?xml version="1.0" standalone="no"?>
<!DOCTYPE svg PUBLIC "-//W3C//DTD SVG 20010904//EN"
 "http://www.w3.org/TR/2001/REC-SVG-20010904/DTD/svg10.dtd">
<svg version="1.0" xmlns="http://www.w3.org/2000/svg"
 width="37.000000pt" height="38.000000pt" viewBox="0 0 37.000000 38.000000"
 preserveAspectRatio="xMidYMid meet">
<metadata>
Created by potrace 1.16, written by Peter Selinger 2001-2019
</metadata>
<g transform="translate(0.000000,38.000000) scale(0.100000,-0.100000)"
fill="#000000" stroke="none">
<path d="M117 374 l-6 -6 5 -28 6 -27 -24 -6 -23 -7 -37 0 -38 0 0 -54 0 -54
19 5 19 5 22 -12 21 -11 -3 -22 -3 -22 -32 -3 -33 -3 0 -27 0 -27 -6 -37 -7
-38 46 0 45 0 15 6 15 5 -5 19 -5 20 6 25 6 25 25 0 24 0 7 -12 8 -12 0 -25 1
-25 34 -8 33 -9 22 3 21 3 10 50 11 49 24 6 25 6 3 29 4 29 -16 12 -16 11 -25
-5 -25 -4 0 50 0 51 -29 -10 -30 -10 -28 3 -28 3 3 27 3 28 -11 20 -11 20 -18
0 -18 0 -6 -6z"/>
</g>
</svg>
