<?xml version="1.0" standalone="no"?>
<!DOCTYPE svg PUBLIC "-//W3C//DTD SVG 20010904//EN"
 "http://www.w3.org/TR/2001/REC-SVG-20010904/DTD/svg10.dtd">
<svg version="1.0" xmlns="http://www.w3.org/2000/svg"
 width="40.000000pt" height="46.000000pt" viewBox="0 0 40.000000 46.000000"
 preserveAspectRatio="xMidYMid meet">
<metadata>
Created by potrace 1.16, written by Peter Selinger 2001-2019
</metadata>
<g transform="translate(0.000000,46.000000) scale(0.100000,-0.100000)"
fill="#000000" stroke="none">
<path d="M229 453 l-1 -8 2 -22 1 -22 -20 -10 -20 -11 -51 0 -52 0 2 -32 2
-33 -1 -19 -1 -18 -30 5 -29 6 -17 -16 -16 -16 6 -30 6 -30 0 -9 0 -9 28 3 27
3 9 -53 9 -54 62 7 62 6 -5 -30 -4 -30 15 -16 16 -15 18 0 18 0 13 9 13 8 -3
13 -3 14 55 15 55 16 -3 157 -3 157 -57 3 -57 3 -5 30 -5 30 -18 3 -17 3 -1
-8z"/>
</g>
</svg>
