<?xml version="1.0" standalone="no"?>
<!DOCTYPE svg PUBLIC "-//W3C//DTD SVG 20010904//EN"
 "http://www.w3.org/TR/2001/REC-SVG-20010904/DTD/svg10.dtd">
<svg version="1.0" xmlns="http://www.w3.org/2000/svg"
 width="42.000000pt" height="48.000000pt" viewBox="0 0 42.000000 48.000000"
 preserveAspectRatio="xMidYMid meet">
<metadata>
Created by potrace 1.16, written by Peter Selinger 2001-2019
</metadata>
<g transform="translate(0.000000,48.000000) scale(0.100000,-0.100000)"
fill="#000000" stroke="none">
<path d="M225 470 l-6 -10 6 -19 6 -20 -20 -10 -20 -11 -50 0 -51 0 0 -50 0
-49 -28 5 -29 6 -16 -17 -17 -16 0 -18 0 -18 6 -32 7 -31 27 0 28 0 7 -51 7
-52 59 6 59 5 0 -30 0 -29 14 -15 15 -14 24 0 25 0 16 6 16 6 0 18 0 19 56 12
55 12 -5 21 -6 21 0 147 0 147 -57 3 -58 3 -5 30 -5 30 -27 3 -26 3 -7 -11z"/>
</g>
</svg>
