<?xml version="1.0" standalone="no"?>
<!DOCTYPE svg PUBLIC "-//W3C//DTD SVG 20010904//EN"
 "http://www.w3.org/TR/2001/REC-SVG-20010904/DTD/svg10.dtd">
<svg version="1.0" xmlns="http://www.w3.org/2000/svg"
 width="33.000000pt" height="41.000000pt" viewBox="0 0 33.000000 41.000000"
 preserveAspectRatio="xMidYMid meet">
<metadata>
Created by potrace 1.16, written by Peter Selinger 2001-2019
</metadata>
<g transform="translate(0.000000,41.000000) scale(0.100000,-0.100000)"
fill="#000000" stroke="none">
<path d="M211 401 l-14 -9 5 -20 5 -19 -9 -17 -9 -16 -27 0 -28 0 4 34 4 33
-24 6 -23 7 -42 0 -43 0 -5 -23 -6 -24 3 -44 3 -44 35 0 35 0 3 -22 3 -23 -30
0 -31 0 -4 -22 -5 -23 -5 -40 -5 -40 7 -12 7 -12 45 -3 45 -3 -3 -32 -4 -33
49 0 49 0 12 12 12 12 0 24 0 25 56 -6 56 -6 -5 22 -6 22 -6 48 -7 47 -29 0
-29 0 0 30 0 30 24 0 24 0 12 15 13 16 5 48 4 48 -8 5 -9 5 -45 7 -45 6 -14
-9z"/>
</g>
</svg>
