<?xml version="1.0" standalone="no"?>
<!DOCTYPE svg PUBLIC "-//W3C//DTD SVG 20010904//EN"
 "http://www.w3.org/TR/2001/REC-SVG-20010904/DTD/svg10.dtd">
<svg version="1.0" xmlns="http://www.w3.org/2000/svg"
 width="31.000000pt" height="39.000000pt" viewBox="0 0 31.000000 39.000000"
 preserveAspectRatio="xMidYMid meet">
<metadata>
Created by potrace 1.16, written by Peter Selinger 2001-2019
</metadata>
<g transform="translate(0.000000,39.000000) scale(0.100000,-0.100000)"
fill="#000000" stroke="none">
<path d="M212 381 l-13 -8 6 -16 7 -15 -12 -21 -11 -21 -40 0 -40 0 6 34 7 33
-24 6 -23 7 -32 0 -33 0 -6 -24 -5 -23 3 -34 3 -34 35 0 35 0 0 -35 0 -35 -27
3 -26 3 -6 -18 -5 -18 -1 -35 -2 -35 1 -12 1 -12 48 -3 47 -3 -3 -33 -2 -32
39 0 39 0 12 15 12 14 -7 21 -6 20 55 0 56 0 0 18 0 17 -6 38 -7 37 -28 0 -29
0 0 45 0 45 23 -5 23 -6 13 15 13 15 5 40 6 41 -14 4 -14 4 -30 5 -31 6 -12
-8z"/>
</g>
</svg>
