<?xml version="1.0" standalone="no"?>
<!DOCTYPE svg PUBLIC "-//W3C//DTD SVG 20010904//EN"
 "http://www.w3.org/TR/2001/REC-SVG-20010904/DTD/svg10.dtd">
<svg version="1.0" xmlns="http://www.w3.org/2000/svg"
 width="49.000000pt" height="42.000000pt" viewBox="0 0 49.000000 42.000000"
 preserveAspectRatio="xMidYMid meet">
<metadata>
Created by potrace 1.16, written by Peter Selinger 2001-2019
</metadata>
<g transform="translate(0.000000,42.000000) scale(0.100000,-0.100000)"
fill="#000000" stroke="none">
<path d="M85 402 l-5 -14 0 -44 0 -45 -20 6 -19 6 -21 -11 -20 -11 0 -24 0
-24 20 -11 20 -10 26 6 27 7 -5 -66 -6 -66 52 -3 51 -3 0 -38 0 -38 15 -9 15
-10 22 0 23 0 15 24 16 24 -3 19 -3 18 53 9 52 9 0 44 0 44 10 19 10 19 30 -5
30 -6 10 26 9 26 -5 14 -6 14 -32 -5 -32 -5 -12 15 -13 15 -2 44 -2 43 -25 6
-25 7 -22 1 -23 1 0 -35 0 -34 -22 -21 -22 -20 -12 0 -13 0 -15 16 -16 15 0
34 0 33 -50 4 -50 3 -5 -13z"/>
</g>
</svg>
