<?xml version="1.0" standalone="no"?>
<!DOCTYPE svg PUBLIC "-//W3C//DTD SVG 20010904//EN"
 "http://www.w3.org/TR/2001/REC-SVG-20010904/DTD/svg10.dtd">
<svg version="1.0" xmlns="http://www.w3.org/2000/svg"
 width="39.000000pt" height="39.000000pt" viewBox="0 0 39.000000 39.000000"
 preserveAspectRatio="xMidYMid meet">
<metadata>
Created by potrace 1.16, written by Peter Selinger 2001-2019
</metadata>
<g transform="translate(0.000000,39.000000) scale(0.100000,-0.100000)"
fill="#000000" stroke="none">
<path d="M189 383 l-1 -8 2 -31 1 -31 -15 -12 -15 -13 -23 4 -23 3 0 27 0 27
-10 10 -10 10 -42 7 -43 7 0 -55 0 -55 38 1 37 1 3 -36 3 -37 -17 -17 -17 -17
-24 5 -23 4 -6 -9 -6 -9 7 -45 6 -44 43 0 44 0 12 -15 12 -14 -7 -21 -7 -21
44 3 43 3 0 25 0 25 62 9 61 9 7 46 6 46 5 18 5 17 10 -6 10 -6 14 12 15 12 0
22 0 21 -9 14 -9 14 -34 -1 -33 -1 3 40 4 41 -8 8 -9 8 -52 7 -53 7 -1 -9z"/>
</g>
</svg>
