<?xml version="1.0" standalone="no"?>
<!DOCTYPE svg PUBLIC "-//W3C//DTD SVG 20010904//EN"
 "http://www.w3.org/TR/2001/REC-SVG-20010904/DTD/svg10.dtd">
<svg version="1.0" xmlns="http://www.w3.org/2000/svg"
 width="41.000000pt" height="41.000000pt" viewBox="0 0 41.000000 41.000000"
 preserveAspectRatio="xMidYMid meet">
<metadata>
Created by potrace 1.16, written by Peter Selinger 2001-2019
</metadata>
<g transform="translate(0.000000,41.000000) scale(0.100000,-0.100000)"
fill="#000000" stroke="none">
<path d="M187 404 l-7 -8 6 -31 6 -31 -16 -13 -16 -13 -14 5 -14 5 5 24 5 24
-15 12 -15 13 -51 6 -51 6 0 -67 0 -67 38 3 37 3 3 -25 2 -25 -9 -15 -10 -14
-33 -1 -33 0 -3 -19 -4 -18 7 -44 6 -44 44 0 44 0 8 -12 7 -13 -3 -23 -3 -23
54 3 53 3 3 27 3 26 59 7 59 7 7 54 6 54 27 13 26 12 3 35 2 35 -9 14 -9 14
-31 1 -31 1 0 42 0 42 -8 5 -8 5 -59 6 -60 7 -8 -8z"/>
</g>
</svg>
