<?xml version="1.0" standalone="no"?>
<!DOCTYPE svg PUBLIC "-//W3C//DTD SVG 20010904//EN"
 "http://www.w3.org/TR/2001/REC-SVG-20010904/DTD/svg10.dtd">
<svg version="1.0" xmlns="http://www.w3.org/2000/svg"
 width="41.000000pt" height="41.000000pt" viewBox="0 0 41.000000 41.000000"
 preserveAspectRatio="xMidYMid meet">
<metadata>
Created by potrace 1.16, written by Peter Selinger 2001-2019
</metadata>
<g transform="translate(0.000000,41.000000) scale(0.100000,-0.100000)"
fill="#000000" stroke="none">
<path d="M140 388 l0 -23 -9 -14 -9 -15 -62 -4 -62 -5 5 -49 6 -50 12 -14 11
-14 35 0 34 0 -3 -22 -3 -23 -32 3 -32 3 -10 -20 -11 -20 0 -60 0 -60 57 6 58
5 13 4 12 3 -6 41 -7 40 18 6 18 7 16 -10 16 -10 -3 -37 -4 -36 14 -4 13 -4
58 -5 57 -6 0 23 0 22 15 52 16 52 20 0 20 0 -3 28 -3 27 -37 3 -38 3 0 60 0
61 -42 -8 -43 -7 -15 -1 -15 -1 -5 45 -5 45 -32 3 -33 3 0 -23z"/>
</g>
</svg>
