<?xml version="1.0" standalone="no"?>
<!DOCTYPE svg PUBLIC "-//W3C//DTD SVG 20010904//EN"
 "http://www.w3.org/TR/2001/REC-SVG-20010904/DTD/svg10.dtd">
<svg version="1.0" xmlns="http://www.w3.org/2000/svg"
 width="39.000000pt" height="39.000000pt" viewBox="0 0 39.000000 39.000000"
 preserveAspectRatio="xMidYMid meet">
<metadata>
Created by potrace 1.16, written by Peter Selinger 2001-2019
</metadata>
<g transform="translate(0.000000,39.000000) scale(0.100000,-0.100000)"
fill="#000000" stroke="none">
<path d="M140 368 l0 -23 -9 -14 -9 -15 -62 -4 -62 -5 6 -40 7 -41 11 -14 12
-14 32 5 32 5 6 -14 5 -14 -9 -26 -10 -26 -30 6 -30 5 -10 -19 -10 -19 0 -48
0 -48 57 5 57 5 0 45 1 45 28 3 28 3 15 -12 15 -12 -3 -36 -3 -36 57 -5 57 -5
-2 15 -2 15 18 57 18 58 20 0 20 0 -3 18 -3 17 -35 0 -35 0 -3 62 -3 62 -32
-6 -32 -7 -25 -1 -25 0 -5 45 -5 45 -22 3 -23 3 0 -23z"/>
</g>
</svg>
