<?xml version="1.0" standalone="no"?>
<!DOCTYPE svg PUBLIC "-//W3C//DTD SVG 20010904//EN"
 "http://www.w3.org/TR/2001/REC-SVG-20010904/DTD/svg10.dtd">
<svg version="1.0" xmlns="http://www.w3.org/2000/svg"
 width="31.000000pt" height="38.000000pt" viewBox="0 0 31.000000 38.000000"
 preserveAspectRatio="xMidYMid meet">
<metadata>
Created by potrace 1.16, written by Peter Selinger 2001-2019
</metadata>
<g transform="translate(0.000000,38.000000) scale(0.100000,-0.100000)"
fill="#000000" stroke="none">
<path d="M120 350 l0 -30 -26 -10 -25 -10 -35 0 -35 0 3 -52 3 -53 29 2 29 2
18 -10 19 -10 0 -19 0 -19 -28 -15 -29 -15 -21 6 -22 5 0 -61 0 -61 48 0 47 1
18 14 19 14 -7 30 -7 31 31 0 31 0 1 -12 1 -13 -2 -19 -2 -19 14 -8 13 -9 52
0 51 0 -5 43 -4 42 -5 24 -5 23 -19 -5 -19 -5 -18 13 -17 13 14 17 14 17 33
-5 33 -6 0 65 0 64 -47 0 -48 0 -14 9 -14 9 7 18 7 17 -13 9 -13 8 -27 0 -28
0 0 -30z"/>
</g>
</svg>
