<?xml version="1.0" standalone="no"?>
<!DOCTYPE svg PUBLIC "-//W3C//DTD SVG 20010904//EN"
 "http://www.w3.org/TR/2001/REC-SVG-20010904/DTD/svg10.dtd">
<svg version="1.0" xmlns="http://www.w3.org/2000/svg"
 width="33.000000pt" height="40.000000pt" viewBox="0 0 33.000000 40.000000"
 preserveAspectRatio="xMidYMid meet">
<metadata>
Created by potrace 1.16, written by Peter Selinger 2001-2019
</metadata>
<g transform="translate(0.000000,40.000000) scale(0.100000,-0.100000)"
fill="#000000" stroke="none">
<path d="M120 370 l0 -30 -26 -10 -25 -10 -35 0 -35 0 3 -62 3 -63 38 -1 38
-1 12 -12 12 -12 -19 -15 -20 -14 -33 0 -33 0 0 -70 0 -70 58 0 57 1 19 14 18
14 -4 30 -5 31 19 0 18 0 0 -34 0 -34 16 -6 16 -6 59 0 60 0 -6 53 -6 52 -5
22 -4 23 -31 0 -31 0 5 13 4 12 37 -3 36 -3 0 76 0 75 -44 0 -44 0 -15 6 -15
5 6 21 5 20 -14 9 -14 9 -37 0 -38 0 0 -30z"/>
</g>
</svg>
