<?xml version="1.0" standalone="no"?>
<!DOCTYPE svg PUBLIC "-//W3C//DTD SVG 20010904//EN"
 "http://www.w3.org/TR/2001/REC-SVG-20010904/DTD/svg10.dtd">
<svg version="1.0" xmlns="http://www.w3.org/2000/svg"
 width="47.000000pt" height="40.000000pt" viewBox="0 0 47.000000 40.000000"
 preserveAspectRatio="xMidYMid meet">
<metadata>
Created by potrace 1.16, written by Peter Selinger 2001-2019
</metadata>
<g transform="translate(0.000000,40.000000) scale(0.100000,-0.100000)"
fill="#000000" stroke="none">
<path d="M217 394 l-7 -7 0 -28 0 -27 -22 -6 -23 -6 -37 0 -38 0 0 -59 0 -60
-33 6 -33 5 -14 -17 -14 -17 17 -13 18 -13 19 5 18 5 6 -19 6 -18 2 -56 2 -55
43 6 42 7 15 13 16 12 0 24 0 24 19 0 20 0 7 -11 7 -12 1 -36 1 -36 30 1 30 1
37 4 38 4 -3 55 -2 55 26 -3 26 -3 17 17 17 16 -3 37 -3 36 -37 -1 -38 -1 0
53 0 54 -52 0 -53 0 -13 8 -12 8 2 25 3 24 -20 3 -21 3 -7 -7z"/>
</g>
</svg>
