<?xml version="1.0" standalone="no"?>
<!DOCTYPE svg PUBLIC "-//W3C//DTD SVG 20010904//EN"
 "http://www.w3.org/TR/2001/REC-SVG-20010904/DTD/svg10.dtd">
<svg version="1.0" xmlns="http://www.w3.org/2000/svg"
 width="49.000000pt" height="42.000000pt" viewBox="0 0 49.000000 42.000000"
 preserveAspectRatio="xMidYMid meet">
<metadata>
Created by potrace 1.16, written by Peter Selinger 2001-2019
</metadata>
<g transform="translate(0.000000,42.000000) scale(0.100000,-0.100000)"
fill="#000000" stroke="none">
<path d="M217 414 l-7 -7 0 -28 0 -27 -22 -6 -23 -6 -37 0 -38 0 0 -55 0 -55
-33 0 -33 0 -12 -12 -12 -12 0 -18 0 -17 21 -11 21 -12 13 6 13 5 6 -15 6 -16
0 -59 0 -59 48 6 47 6 23 14 22 14 0 26 0 26 13 -4 12 -5 3 -39 3 -39 8 -8 8
-8 73 7 72 7 -6 53 -6 54 29 0 30 0 16 16 16 16 -3 47 -3 46 -37 3 -38 3 0 50
0 49 -52 0 -53 0 -10 8 -10 7 0 25 0 25 -30 3 -31 3 -7 -7z"/>
</g>
</svg>
