<?xml version="1.0" standalone="no"?>
<!DOCTYPE svg PUBLIC "-//W3C//DTD SVG 20010904//EN"
 "http://www.w3.org/TR/2001/REC-SVG-20010904/DTD/svg10.dtd">
<svg version="1.0" xmlns="http://www.w3.org/2000/svg"
 width="45.000000pt" height="48.000000pt" viewBox="0 0 45.000000 48.000000"
 preserveAspectRatio="xMidYMid meet">
<metadata>
Created by potrace 1.16, written by Peter Selinger 2001-2019
</metadata>
<g transform="translate(0.000000,48.000000) scale(0.100000,-0.100000)"
fill="#000000" stroke="none">
<path d="M226 458 l-16 -22 0 -18 0 -18 -59 0 -60 0 -3 -47 -3 -47 -40 0 -40
-1 -3 -38 -3 -38 12 -15 11 -14 49 0 49 0 0 -5 0 -4 -16 -47 -15 -46 6 -6 7
-7 49 2 49 2 0 -28 0 -28 18 -16 19 -17 19 0 20 0 16 12 17 13 3 30 3 30 56
-3 56 -3 12 44 13 44 -4 29 -3 29 -35 0 -35 0 -22 8 -23 8 0 10 0 9 13 1 12 2
35 1 35 1 3 68 3 67 -66 0 -65 0 0 28 0 28 -12 12 -12 12 -17 0 -18 0 -15 -22z"/>
</g>
</svg>
