<?xml version="1.0" standalone="no"?>
<!DOCTYPE svg PUBLIC "-//W3C//DTD SVG 20010904//EN"
 "http://www.w3.org/TR/2001/REC-SVG-20010904/DTD/svg10.dtd">
<svg version="1.0" xmlns="http://www.w3.org/2000/svg"
 width="43.000000pt" height="46.000000pt" viewBox="0 0 43.000000 46.000000"
 preserveAspectRatio="xMidYMid meet">
<metadata>
Created by potrace 1.16, written by Peter Selinger 2001-2019
</metadata>
<g transform="translate(0.000000,46.000000) scale(0.100000,-0.100000)"
fill="#000000" stroke="none">
<path d="M230 445 l-13 -15 -1 -23 -1 -22 -62 -3 -62 -3 -3 -47 -3 -47 -40 0
-40 0 -3 -28 -3 -28 12 -15 11 -14 49 0 49 0 0 -17 -1 -18 -13 -38 -14 -37 17
-1 16 -1 42 2 43 1 -6 -28 -6 -28 21 -19 21 -19 26 12 26 12 -4 29 -5 30 20 6
19 6 43 -6 42 -7 13 44 12 45 -4 18 -4 19 -28 -3 -29 -3 -28 12 -29 11 0 19 0
19 23 4 22 5 25 -2 25 -2 3 57 3 57 -68 3 -68 3 3 24 2 24 -11 13 -11 14 -8 0
-8 0 -12 -15z"/>
</g>
</svg>
