<?xml version="1.0" standalone="no"?>
<!DOCTYPE svg PUBLIC "-//W3C//DTD SVG 20010904//EN"
 "http://www.w3.org/TR/2001/REC-SVG-20010904/DTD/svg10.dtd">
<svg version="1.0" xmlns="http://www.w3.org/2000/svg"
 width="35.000000pt" height="35.000000pt" viewBox="0 0 35.000000 35.000000"
 preserveAspectRatio="xMidYMid meet">
<metadata>
Created by potrace 1.16, written by Peter Selinger 2001-2019
</metadata>
<g transform="translate(0.000000,35.000000) scale(0.100000,-0.100000)"
fill="#000000" stroke="none">
<path d="M215 338 l-4 -13 -3 -34 -3 -34 -18 -11 -17 -11 -18 11 -17 12 2 36
2 36 -37 0 -37 0 -22 -6 -23 -6 0 -59 0 -59 39 0 39 0 6 -16 6 -17 -17 -13
-18 -14 -38 5 -37 5 2 -75 2 -75 84 0 85 0 -6 29 -6 29 14 18 14 19 1 -36 0
-36 38 -7 37 -6 38 0 37 0 0 53 0 52 -8 12 -7 11 -35 4 -35 3 -3 19 -4 19 12
7 13 8 38 -5 39 -6 0 57 0 57 -13 14 -14 13 -39 11 -39 11 -13 0 -13 0 -4 -12z"/>
</g>
</svg>
