<?xml version="1.0" standalone="no"?>
<!DOCTYPE svg PUBLIC "-//W3C//DTD SVG 20010904//EN"
 "http://www.w3.org/TR/2001/REC-SVG-20010904/DTD/svg10.dtd">
<svg version="1.0" xmlns="http://www.w3.org/2000/svg"
 width="33.000000pt" height="33.000000pt" viewBox="0 0 33.000000 33.000000"
 preserveAspectRatio="xMidYMid meet">
<metadata>
Created by potrace 1.16, written by Peter Selinger 2001-2019
</metadata>
<g transform="translate(0.000000,33.000000) scale(0.100000,-0.100000)"
fill="#000000" stroke="none">
<path d="M217 323 l-7 -6 0 -37 0 -36 -12 -12 -12 -12 -27 0 -27 0 -12 15 -12
15 4 30 5 30 -26 0 -26 0 -22 -6 -23 -6 0 -49 0 -50 36 3 35 2 9 -14 10 -15 0
-16 0 -16 -24 -13 -24 -13 -31 5 -31 5 1 -31 0 -31 8 -20 9 -20 -10 -12 -10
-13 76 0 76 0 -6 24 -6 24 12 21 11 21 14 0 15 0 0 -34 0 -33 38 -7 37 -6 28
0 27 0 0 43 0 42 -9 14 -9 13 -20 -6 -21 -7 -20 20 -21 21 0 9 0 10 16 16 17
16 38 -6 39 -7 0 47 0 46 -13 13 -13 13 -24 7 -25 8 -16 4 -15 4 -7 -7z"/>
</g>
</svg>
