<?xml version="1.0" standalone="no"?>
<!DOCTYPE svg PUBLIC "-//W3C//DTD SVG 20010904//EN"
 "http://www.w3.org/TR/2001/REC-SVG-20010904/DTD/svg10.dtd">
<svg version="1.0" xmlns="http://www.w3.org/2000/svg"
 width="43.000000pt" height="43.000000pt" viewBox="0 0 43.000000 43.000000"
 preserveAspectRatio="xMidYMid meet">
<metadata>
Created by potrace 1.16, written by Peter Selinger 2001-2019
</metadata>
<g transform="translate(0.000000,43.000000) scale(0.100000,-0.100000)"
fill="#000000" stroke="none">
<path d="M224 416 l-5 -13 3 -29 3 -29 -60 -5 -60 -5 -3 -52 -3 -52 -47 -3
-47 -3 -3 -35 -4 -34 18 -13 18 -13 22 0 22 0 6 -16 6 -16 0 -39 0 -39 74 0
74 0 6 16 6 16 -6 24 -6 24 15 0 15 0 11 -14 12 -14 -6 -24 -6 -24 15 -14 16
-13 46 7 45 6 14 14 15 14 -17 66 -16 66 -23 6 -24 6 0 9 0 9 29 0 29 0 11 14
12 14 -3 54 -3 53 -63 3 -64 3 6 25 7 26 -6 19 -6 19 -35 0 -35 0 -5 -14z"/>
</g>
</svg>
