<?xml version="1.0" standalone="no"?>
<!DOCTYPE svg PUBLIC "-//W3C//DTD SVG 20010904//EN"
 "http://www.w3.org/TR/2001/REC-SVG-20010904/DTD/svg10.dtd">
<svg version="1.0" xmlns="http://www.w3.org/2000/svg"
 width="35.000000pt" height="42.000000pt" viewBox="0 0 35.000000 42.000000"
 preserveAspectRatio="xMidYMid meet">
<metadata>
Created by potrace 1.16, written by Peter Selinger 2001-2019
</metadata>
<g transform="translate(0.000000,42.000000) scale(0.100000,-0.100000)"
fill="#000000" stroke="none">
<path d="M140 405 l-12 -15 6 -16 6 -17 -11 -13 -11 -14 -54 0 -54 0 0 -56 0
-55 11 -21 11 -20 41 6 42 7 -13 -13 -13 -13 -37 0 -37 0 -6 -70 -6 -70 10 -6
9 -7 58 -6 57 -7 16 7 16 6 -5 43 -6 42 10 7 11 6 7 -12 8 -13 1 -40 0 -40 74
-3 74 -3 -6 48 -6 48 -11 37 -11 37 -22 4 -22 4 32 2 32 1 11 19 10 20 0 48 0
48 -10 15 -9 15 -21 -12 -20 -13 -30 0 -30 0 0 34 0 35 -16 15 -15 16 -23 0
-24 0 -12 -15z"/>
</g>
</svg>
