<?xml version="1.0" standalone="no"?>
<!DOCTYPE svg PUBLIC "-//W3C//DTD SVG 20010904//EN"
 "http://www.w3.org/TR/2001/REC-SVG-20010904/DTD/svg10.dtd">
<svg version="1.0" xmlns="http://www.w3.org/2000/svg"
 width="51.000000pt" height="43.000000pt" viewBox="0 0 51.000000 43.000000"
 preserveAspectRatio="xMidYMid meet">
<metadata>
Created by potrace 1.16, written by Peter Selinger 2001-2019
</metadata>
<g transform="translate(0.000000,43.000000) scale(0.100000,-0.100000)"
fill="#000000" stroke="none">
<path d="M216 417 l-17 -13 3 -29 3 -30 -60 -5 -60 -5 0 -40 0 -40 -40 -5 -40
-5 -3 -52 -3 -53 29 0 29 0 7 -31 6 -31 0 -29 0 -29 85 0 85 0 0 35 0 35 10 0
10 0 1 -12 1 -13 1 -30 2 -30 29 -3 30 -4 43 7 43 6 4 22 5 22 6 38 6 37 27 0
28 0 12 12 12 12 0 27 0 27 -6 16 -6 16 -44 0 -44 0 0 43 0 43 -12 12 -12 12
-29 0 -28 0 -20 10 -19 11 0 23 0 24 -16 6 -16 6 -12 0 -12 0 -18 -13z"/>
</g>
</svg>
