<?xml version="1.0" standalone="no"?>
<!DOCTYPE svg PUBLIC "-//W3C//DTD SVG 20010904//EN"
 "http://www.w3.org/TR/2001/REC-SVG-20010904/DTD/svg10.dtd">
<svg version="1.0" xmlns="http://www.w3.org/2000/svg"
 width="49.000000pt" height="41.000000pt" viewBox="0 0 49.000000 41.000000"
 preserveAspectRatio="xMidYMid meet">
<metadata>
Created by potrace 1.16, written by Peter Selinger 2001-2019
</metadata>
<g transform="translate(0.000000,41.000000) scale(0.100000,-0.100000)"
fill="#000000" stroke="none">
<path d="M220 400 l-15 -9 0 -33 0 -33 -60 -5 -60 -5 2 -42 2 -42 -42 -3 -42
-3 -3 -42 -3 -43 29 0 30 0 6 -31 6 -31 0 -29 0 -29 76 0 76 0 -4 25 -5 25 13
17 13 18 13 -13 13 -13 0 -37 0 -37 19 -3 18 -4 44 7 44 6 4 22 5 22 6 37 6
37 31 3 31 3 10 16 10 16 -7 26 -6 27 -45 0 -45 0 0 43 0 43 -12 12 -12 12
-29 0 -28 0 -20 10 -19 11 0 23 0 24 -16 6 -16 6 -1 0 -2 0 -15 -10z"/>
</g>
</svg>
