<?xml version="1.0" standalone="no"?>
<!DOCTYPE svg PUBLIC "-//W3C//DTD SVG 20010904//EN"
 "http://www.w3.org/TR/2001/REC-SVG-20010904/DTD/svg10.dtd">
<svg version="1.0" xmlns="http://www.w3.org/2000/svg"
 width="51.000000pt" height="43.000000pt" viewBox="0 0 51.000000 43.000000"
 preserveAspectRatio="xMidYMid meet">
<metadata>
Created by potrace 1.16, written by Peter Selinger 2001-2019
</metadata>
<g transform="translate(0.000000,43.000000) scale(0.100000,-0.100000)"
fill="#000000" stroke="none">
<path d="M192 388 l3 -43 -58 1 -59 1 4 -48 3 -49 -36 0 -36 0 -6 -35 -6 -35
11 -30 10 -30 29 0 29 0 0 -54 0 -54 63 5 62 6 7 11 8 11 0 23 0 22 20 0 20 0
1 -12 2 -13 1 -30 1 -30 55 0 55 1 26 7 26 7 12 55 12 55 15 0 15 0 15 15 15
15 -3 42 -3 43 -42 3 -43 3 -5 22 -4 22 -3 20 -3 20 -60 0 -60 0 3 33 4 33
-12 15 -12 14 -40 0 -39 0 3 -42z"/>
</g>
</svg>
