<?xml version="1.0" standalone="no"?>
<!DOCTYPE svg PUBLIC "-//W3C//DTD SVG 20010904//EN"
 "http://www.w3.org/TR/2001/REC-SVG-20010904/DTD/svg10.dtd">
<svg version="1.0" xmlns="http://www.w3.org/2000/svg"
 width="39.000000pt" height="48.000000pt" viewBox="0 0 39.000000 48.000000"
 preserveAspectRatio="xMidYMid meet">
<metadata>
Created by potrace 1.16, written by Peter Selinger 2001-2019
</metadata>
<g transform="translate(0.000000,48.000000) scale(0.100000,-0.100000)"
fill="#000000" stroke="none">
<path d="M135 470 l-6 -10 3 -33 3 -32 -65 -3 -65 -3 4 -47 3 -47 10 -12 10
-13 22 6 22 5 13 -14 12 -15 -7 -27 -7 -27 -18 5 -19 5 -9 -16 -9 -17 -7 -42
-7 -42 48 -3 48 -3 1 -34 0 -34 17 -10 16 -11 26 12 26 12 0 34 0 35 53 3 52
3 5 50 5 50 27 -3 27 -3 10 20 11 20 0 25 0 25 -11 7 -12 7 -28 -1 -29 -1 0
51 0 50 -16 -6 -16 -6 -40 -6 -40 -7 -9 14 -8 14 5 21 6 22 -12 21 -11 21 -14
0 -14 0 -6 -10z"/>
</g>
</svg>
