<?xml version="1.0" standalone="no"?>
<!DOCTYPE svg PUBLIC "-//W3C//DTD SVG 20010904//EN"
 "http://www.w3.org/TR/2001/REC-SVG-20010904/DTD/svg10.dtd">
<svg version="1.0" xmlns="http://www.w3.org/2000/svg"
 width="34.000000pt" height="52.000000pt" viewBox="0 0 34.000000 52.000000"
 preserveAspectRatio="xMidYMid meet">
<metadata>
Created by potrace 1.16, written by Peter Selinger 2001-2019
</metadata>
<g transform="translate(0.000000,52.000000) scale(0.100000,-0.100000)"
fill="#000000" stroke="none">
<path d="M140 500 l-11 -21 2 -17 1 -17 -1 -12 -1 -13 -65 0 -65 0 0 -70 0
-71 33 3 33 2 14 -9 15 -10 -30 -5 -30 -5 -17 -65 -17 -65 -1 -12 0 -13 53 0
53 0 -4 -33 -4 -34 17 -16 16 -17 34 0 33 0 12 35 11 35 -5 9 -6 8 60 7 60 7
0 12 0 12 -18 55 -17 55 -8 13 -8 12 -20 0 -19 0 0 16 0 16 44 -6 44 -7 7 22
7 21 -7 54 -7 55 -21 -2 -22 -2 -42 1 -43 2 0 33 0 33 -12 12 -12 12 -13 0
-12 0 -11 -20z"/>
</g>
</svg>
