<?xml version="1.0" standalone="no"?>
<!DOCTYPE svg PUBLIC "-//W3C//DTD SVG 20010904//EN"
 "http://www.w3.org/TR/2001/REC-SVG-20010904/DTD/svg10.dtd">
<svg version="1.0" xmlns="http://www.w3.org/2000/svg"
 width="35.000000pt" height="41.000000pt" viewBox="0 0 35.000000 41.000000"
 preserveAspectRatio="xMidYMid meet">
<metadata>
Created by potrace 1.16, written by Peter Selinger 2001-2019
</metadata>
<g transform="translate(0.000000,41.000000) scale(0.100000,-0.100000)"
fill="#000000" stroke="none">
<path d="M131 401 l-14 -9 5 -20 6 -20 -9 -13 -8 -13 -53 -6 -53 -5 -3 -158
-3 -158 68 3 68 3 3 38 3 37 14 0 14 0 3 -22 3 -23 65 -17 65 -17 12 -1 12 0
10 37 11 38 0 38 0 37 -50 0 -50 0 0 20 0 19 38 -2 37 -2 3 68 3 67 -3 0 -3 1
-55 18 -55 18 -4 19 -3 19 -12 7 -11 8 -20 0 -20 0 -14 -9z"/>
</g>
</svg>
