<?xml version="1.0" standalone="no"?>
<!DOCTYPE svg PUBLIC "-//W3C//DTD SVG 20010904//EN"
 "http://www.w3.org/TR/2001/REC-SVG-20010904/DTD/svg10.dtd">
<svg version="1.0" xmlns="http://www.w3.org/2000/svg"
 width="40.000000pt" height="48.000000pt" viewBox="0 0 40.000000 48.000000"
 preserveAspectRatio="xMidYMid meet">
<metadata>
Created by potrace 1.16, written by Peter Selinger 2001-2019
</metadata>
<g transform="translate(0.000000,48.000000) scale(0.100000,-0.100000)"
fill="#000000" stroke="none">
<path d="M217 473 l-7 -6 0 -28 0 -28 -12 -8 -13 -8 -50 -5 -50 -5 -3 -53 -3
-54 -26 6 -25 7 -14 -12 -14 -11 0 -19 0 -18 20 -11 21 -11 21 7 20 6 -4 -66
-4 -65 61 -3 60 -3 3 -37 3 -38 24 -6 23 -6 22 12 22 12 -4 29 -4 28 14 6 14
5 42 0 43 0 -13 42 -13 43 -6 28 -6 28 -17 -2 -17 -1 -13 1 -13 1 3 28 3 27
41 -3 41 -3 5 19 5 19 -6 39 -6 39 -60 20 -60 21 0 14 0 15 -10 7 -10 8 -11 0
-11 0 -6 -7z"/>
</g>
</svg>
