<?xml version="1.0" standalone="no"?>
<!DOCTYPE svg PUBLIC "-//W3C//DTD SVG 20010904//EN"
 "http://www.w3.org/TR/2001/REC-SVG-20010904/DTD/svg10.dtd">
<svg version="1.0" xmlns="http://www.w3.org/2000/svg"
 width="42.000000pt" height="50.000000pt" viewBox="0 0 42.000000 50.000000"
 preserveAspectRatio="xMidYMid meet">
<metadata>
Created by potrace 1.16, written by Peter Selinger 2001-2019
</metadata>
<g transform="translate(0.000000,50.000000) scale(0.100000,-0.100000)"
fill="#000000" stroke="none">
<path d="M217 493 l-7 -6 0 -28 0 -28 -12 -8 -13 -8 -50 -5 -50 -5 -3 -51 -3
-51 -25 5 -24 4 -15 -12 -15 -12 0 -29 0 -28 19 -11 20 -10 22 0 22 0 -6 -60
-7 -59 63 -3 62 -3 3 -37 3 -38 26 -6 26 -7 26 9 26 9 5 35 5 35 53 3 52 3 0
5 0 5 -14 47 -15 47 -5 28 -6 27 -30 0 -30 0 0 15 0 15 44 0 44 0 6 28 5 27
-7 40 -7 40 -58 19 -57 18 0 18 0 18 -16 6 -16 6 -17 0 -18 0 -6 -7z"/>
</g>
</svg>
