<?xml version="1.0" standalone="no"?>
<!DOCTYPE svg PUBLIC "-//W3C//DTD SVG 20010904//EN"
 "http://www.w3.org/TR/2001/REC-SVG-20010904/DTD/svg10.dtd">
<svg version="1.0" xmlns="http://www.w3.org/2000/svg"
 width="42.000000pt" height="46.000000pt" viewBox="0 0 42.000000 46.000000"
 preserveAspectRatio="xMidYMid meet">
<metadata>
Created by potrace 1.16, written by Peter Selinger 2001-2019
</metadata>
<g transform="translate(0.000000,46.000000) scale(0.100000,-0.100000)"
fill="#000000" stroke="none">
<path d="M128 430 l4 -30 -27 -10 -26 -10 -30 0 -30 0 3 -47 3 -48 40 0 39 0
10 -29 11 -28 -29 -25 -29 -25 -34 5 -33 6 0 -23 0 -23 11 -32 11 -31 38 0 39
0 14 -14 14 -15 -4 -25 -5 -26 35 0 36 0 6 19 5 18 -5 15 -6 15 23 7 23 6 44
0 43 0 -6 16 -6 16 -6 39 -7 40 41 -7 40 -6 21 21 21 21 0 19 0 19 -16 6 -16
6 -34 0 -34 0 0 53 0 53 -57 -1 -58 0 2 23 3 23 -10 20 -11 19 -33 0 -33 0 5
-30z"/>
</g>
</svg>
