<?xml version="1.0" standalone="no"?>
<!DOCTYPE svg PUBLIC "-//W3C//DTD SVG 20010904//EN"
 "http://www.w3.org/TR/2001/REC-SVG-20010904/DTD/svg10.dtd">
<svg version="1.0" xmlns="http://www.w3.org/2000/svg"
 width="49.000000pt" height="41.000000pt" viewBox="0 0 49.000000 41.000000"
 preserveAspectRatio="xMidYMid meet">
<metadata>
Created by potrace 1.16, written by Peter Selinger 2001-2019
</metadata>
<g transform="translate(0.000000,41.000000) scale(0.100000,-0.100000)"
fill="#000000" stroke="none">
<path d="M87 403 l-7 -6 0 -43 0 -42 -6 -16 -6 -16 -25 6 -25 7 -9 -14 -9 -14
0 -26 0 -27 15 -12 14 -12 32 7 32 7 -6 -61 -7 -61 50 0 50 0 0 -28 0 -28 12
-12 12 -12 31 0 32 0 13 24 13 25 -6 22 -6 22 54 -6 53 -5 10 26 10 27 9 35 9
34 29 1 30 0 3 47 3 47 -48 3 -48 3 -3 44 -3 43 -27 -5 -27 -6 -27 -10 -28
-11 0 -19 0 -19 -26 -6 -26 -7 -6 5 -5 6 -1 37 -1 37 -25 7 -25 7 -36 1 -36 1
-6 -7z"/>
</g>
</svg>
