<?xml version="1.0" standalone="no"?>
<!DOCTYPE svg PUBLIC "-//W3C//DTD SVG 20010904//EN"
 "http://www.w3.org/TR/2001/REC-SVG-20010904/DTD/svg10.dtd">
<svg version="1.0" xmlns="http://www.w3.org/2000/svg"
 width="41.000000pt" height="42.000000pt" viewBox="0 0 41.000000 42.000000"
 preserveAspectRatio="xMidYMid meet">
<metadata>
Created by potrace 1.16, written by Peter Selinger 2001-2019
</metadata>
<g transform="translate(0.000000,42.000000) scale(0.100000,-0.100000)"
fill="#000000" stroke="none">
<path d="M100 391 l0 -30 -10 -26 -10 -27 -34 6 -34 6 -6 -16 -6 -16 0 -21 0
-22 9 -14 9 -14 38 -6 39 -7 -2 -62 -1 -61 42 5 43 6 9 -13 8 -13 0 -31 1 -30
40 -3 39 -3 13 17 13 18 0 33 0 33 51 0 52 0 -7 32 -6 32 -11 39 -10 39 -20
-5 -19 -5 0 22 0 22 12 12 12 12 28 0 28 0 0 55 0 56 -57 -3 -58 -3 1 -23 1
-24 -22 -14 -22 -14 -17 6 -17 7 6 28 6 28 -20 10 -20 11 -45 0 -46 0 0 -29z"/>
</g>
</svg>
