<?xml version="1.0" standalone="no"?>
<!DOCTYPE svg PUBLIC "-//W3C//DTD SVG 20010904//EN"
 "http://www.w3.org/TR/2001/REC-SVG-20010904/DTD/svg10.dtd">
<svg version="1.0" xmlns="http://www.w3.org/2000/svg"
 width="39.000000pt" height="40.000000pt" viewBox="0 0 39.000000 40.000000"
 preserveAspectRatio="xMidYMid meet">
<metadata>
Created by potrace 1.16, written by Peter Selinger 2001-2019
</metadata>
<g transform="translate(0.000000,40.000000) scale(0.100000,-0.100000)"
fill="#000000" stroke="none">
<path d="M100 371 l0 -30 -10 -26 -10 -27 -35 4 -34 4 -6 -14 -5 -14 0 -13 0
-14 16 -16 17 -16 22 5 23 6 12 -15 12 -15 -4 -53 -4 -52 38 3 38 4 15 -12 15
-12 -3 -32 -2 -31 32 -3 32 -3 11 22 12 21 -6 29 -5 29 55 0 55 0 -5 18 -5 17
-11 42 -10 41 -20 -5 -20 -5 0 34 0 34 12 12 12 12 28 0 28 0 0 46 0 45 -47
-3 -48 -3 3 -22 3 -22 -25 -17 -26 -16 -26 6 -25 7 3 30 3 30 -15 9 -15 10
-37 0 -38 0 0 -29z"/>
</g>
</svg>
