<?xml version="1.0" standalone="no"?>
<!DOCTYPE svg PUBLIC "-//W3C//DTD SVG 20010904//EN"
 "http://www.w3.org/TR/2001/REC-SVG-20010904/DTD/svg10.dtd">
<svg version="1.0" xmlns="http://www.w3.org/2000/svg"
 width="48.000000pt" height="31.000000pt" viewBox="0 0 48.000000 31.000000"
 preserveAspectRatio="xMidYMid meet">
<metadata>
Created by potrace 1.16, written by Peter Selinger 2001-2019
</metadata>
<g transform="translate(0.000000,31.000000) scale(0.100000,-0.100000)"
fill="#000000" stroke="none">
<path d="M100 255 l0 -57 -29 7 -30 6 -21 -11 -21 -11 3 -32 3 -32 37 0 37 0
10 -10 10 -10 3 -50 3 -50 53 -3 54 -3 -4 32 -3 32 16 10 16 10 17 -6 17 -7
-6 -21 -7 -21 13 -9 14 -9 58 0 57 0 0 54 0 55 38 3 37 3 0 30 0 30 -35 5 -35
5 -5 50 -5 50 -10 -2 -10 -2 -43 -11 -43 -11 4 -12 4 -12 -9 -17 -9 -18 -34 0
-34 0 -11 21 -11 20 3 27 3 27 -47 3 -48 3 0 -56z"/>
</g>
</svg>
