<?xml version="1.0" standalone="no"?>
<!DOCTYPE svg PUBLIC "-//W3C//DTD SVG 20010904//EN"
 "http://www.w3.org/TR/2001/REC-SVG-20010904/DTD/svg10.dtd">
<svg version="1.0" xmlns="http://www.w3.org/2000/svg"
 width="32.000000pt" height="42.000000pt" viewBox="0 0 32.000000 42.000000"
 preserveAspectRatio="xMidYMid meet">
<metadata>
Created by potrace 1.16, written by Peter Selinger 2001-2019
</metadata>
<g transform="translate(0.000000,42.000000) scale(0.100000,-0.100000)"
fill="#000000" stroke="none">
<path d="M2 353 l3 -68 35 -5 35 -5 0 -20 0 -20 -37 -3 -38 -3 0 -71 0 -71 50
6 50 6 0 -30 0 -30 10 -20 11 -19 34 0 34 0 11 19 10 20 0 19 0 20 49 7 49 7
6 21 6 22 0 53 0 53 -33 -3 -33 -2 -12 8 -12 7 0 14 0 14 12 7 12 8 28 -2 28
-2 0 65 0 66 -62 -3 -63 -3 -3 -32 -3 -32 -13 -10 -13 -11 -19 7 -19 8 0 25 0
24 -25 13 -25 13 -33 0 -33 0 3 -67z"/>
</g>
</svg>
