<?xml version="1.0" standalone="no"?>
<!DOCTYPE svg PUBLIC "-//W3C//DTD SVG 20010904//EN"
 "http://www.w3.org/TR/2001/REC-SVG-20010904/DTD/svg10.dtd">
<svg version="1.0" xmlns="http://www.w3.org/2000/svg"
 width="44.000000pt" height="34.000000pt" viewBox="0 0 44.000000 34.000000"
 preserveAspectRatio="xMidYMid meet">
<metadata>
Created by potrace 1.16, written by Peter Selinger 2001-2019
</metadata>
<g transform="translate(0.000000,34.000000) scale(0.100000,-0.100000)"
fill="#000000" stroke="none">
<path d="M214 317 l5 -23 -15 -22 -15 -22 -25 0 -24 0 0 24 0 24 -12 10 -13
10 -32 7 -33 6 -20 -6 -20 -6 0 -58 0 -57 12 -12 12 -12 28 0 28 0 0 -10 0
-10 -25 0 -25 0 -10 -26 -10 -25 0 -28 0 -27 -11 -11 -12 -12 7 -16 6 -16 72
3 73 3 5 45 5 45 24 3 23 4 -7 -11 -6 -11 6 -20 6 -19 55 -16 55 -16 10 7 11
7 -6 38 -6 39 30 0 31 0 24 26 25 27 0 18 0 19 -25 16 -25 16 -25 -4 -25 -5 0
54 0 53 -26 10 -25 10 -41 0 -40 0 6 -23z"/>
</g>
</svg>
