<?xml version="1.0" standalone="no"?>
<!DOCTYPE svg PUBLIC "-//W3C//DTD SVG 20010904//EN"
 "http://www.w3.org/TR/2001/REC-SVG-20010904/DTD/svg10.dtd">
<svg version="1.0" xmlns="http://www.w3.org/2000/svg"
 width="35.000000pt" height="34.000000pt" viewBox="0 0 35.000000 34.000000"
 preserveAspectRatio="xMidYMid meet">
<metadata>
Created by potrace 1.16, written by Peter Selinger 2001-2019
</metadata>
<g transform="translate(0.000000,34.000000) scale(0.100000,-0.100000)"
fill="#000000" stroke="none">
<path d="M193 306 l6 -38 -12 -19 -12 -19 -22 0 -21 0 -5 13 -4 12 5 32 4 32
-34 6 -35 7 -24 -4 -24 -3 -3 -68 -3 -68 35 3 36 2 11 -11 11 -11 -11 -21 -12
-21 -12 -1 -12 -2 -25 -1 -25 -1 -2 -62 -2 -63 74 0 75 0 6 24 6 25 -7 10 -6
11 15 0 15 0 3 -32 3 -33 73 -3 72 -3 10 26 10 26 0 55 0 55 -51 -3 -52 -3 -4
13 -5 12 41 0 40 0 11 19 10 20 0 50 0 50 -11 7 -11 6 -66 6 -65 5 6 -37z"/>
</g>
</svg>
