<?xml version="1.0" standalone="no"?>
<!DOCTYPE svg PUBLIC "-//W3C//DTD SVG 20010904//EN"
 "http://www.w3.org/TR/2001/REC-SVG-20010904/DTD/svg10.dtd">
<svg version="1.0" xmlns="http://www.w3.org/2000/svg"
 width="38.000000pt" height="39.000000pt" viewBox="0 0 38.000000 39.000000"
 preserveAspectRatio="xMidYMid meet">
<metadata>
Created by potrace 1.16, written by Peter Selinger 2001-2019
</metadata>
<g transform="translate(0.000000,39.000000) scale(0.100000,-0.100000)"
fill="#000000" stroke="none">
<path d="M179 384 l-1 -9 2 -36 1 -35 -16 -14 -17 -14 -16 11 -17 10 -1 33 0
33 -24 9 -24 9 -31 -3 -30 -3 -3 -42 -3 -43 18 0 19 0 22 -16 23 -16 -3 -36
-3 -37 -17 1 -18 2 -15 -51 -15 -51 0 -8 0 -8 42 2 43 3 1 -26 1 -26 7 -12 7
-11 24 0 25 0 16 25 16 24 -7 22 -7 22 48 -5 49 -6 12 5 12 4 -10 25 -9 25 0
21 0 21 29 -6 28 -6 22 15 21 15 0 35 0 34 -30 0 -29 0 -11 19 -10 20 0 30 0
30 -8 5 -8 5 -52 7 -52 7 -1 -9z"/>
</g>
</svg>
