<?xml version="1.0" standalone="no"?>
<!DOCTYPE svg PUBLIC "-//W3C//DTD SVG 20010904//EN"
 "http://www.w3.org/TR/2001/REC-SVG-20010904/DTD/svg10.dtd">
<svg version="1.0" xmlns="http://www.w3.org/2000/svg"
 width="43.000000pt" height="44.000000pt" viewBox="0 0 43.000000 44.000000"
 preserveAspectRatio="xMidYMid meet">
<metadata>
Created by potrace 1.16, written by Peter Selinger 2001-2019
</metadata>
<g transform="translate(0.000000,44.000000) scale(0.100000,-0.100000)"
fill="#000000" stroke="none">
<path d="M20 391 l0 -52 10 -20 11 -19 29 0 30 0 0 -23 0 -23 -12 -12 -12 -12
-38 0 -38 0 2 -62 3 -63 60 -5 60 -5 -3 -33 -3 -33 12 -15 11 -14 28 0 28 0
16 6 16 6 0 28 0 27 53 14 52 14 -3 61 -4 62 26 -5 26 -5 26 16 25 17 -3 27
-3 27 -49 3 -49 3 7 65 7 65 -63 -3 -63 -3 0 -39 0 -39 -18 -11 -18 -11 -15
20 -15 20 6 33 6 32 -48 0 -48 0 -22 6 -23 6 0 -51z"/>
</g>
</svg>
