<?xml version="1.0" standalone="no"?>
<!DOCTYPE svg PUBLIC "-//W3C//DTD SVG 20010904//EN"
 "http://www.w3.org/TR/2001/REC-SVG-20010904/DTD/svg10.dtd">
<svg version="1.0" xmlns="http://www.w3.org/2000/svg"
 width="42.000000pt" height="49.000000pt" viewBox="0 0 42.000000 49.000000"
 preserveAspectRatio="xMidYMid meet">
<metadata>
Created by potrace 1.16, written by Peter Selinger 2001-2019
</metadata>
<g transform="translate(0.000000,49.000000) scale(0.100000,-0.100000)"
fill="#000000" stroke="none">
<path d="M140 466 l0 -24 -15 -12 -15 -12 -44 -5 -44 -5 -6 -22 -6 -21 0 -37
0 -38 34 0 34 0 16 -6 16 -6 0 -14 0 -14 -20 -20 -20 -20 -29 6 -29 6 -6 -10
-6 -10 6 -61 7 -61 36 6 36 6 17 4 17 5 3 -48 3 -48 43 -3 43 -3 15 12 14 11
0 44 0 44 40 -6 40 -7 0 62 0 62 33 -6 34 -7 16 17 17 16 0 18 0 17 -13 19
-14 18 -31 -6 -32 -6 0 54 0 54 -11 7 -11 7 -47 11 -46 12 -10 22 -10 22 -27
0 -28 0 0 -24z"/>
</g>
</svg>
