<?xml version="1.0" standalone="no"?>
<!DOCTYPE svg PUBLIC "-//W3C//DTD SVG 20010904//EN"
 "http://www.w3.org/TR/2001/REC-SVG-20010904/DTD/svg10.dtd">
<svg version="1.0" xmlns="http://www.w3.org/2000/svg"
 width="40.000000pt" height="47.000000pt" viewBox="0 0 40.000000 47.000000"
 preserveAspectRatio="xMidYMid meet">
<metadata>
Created by potrace 1.16, written by Peter Selinger 2001-2019
</metadata>
<g transform="translate(0.000000,47.000000) scale(0.100000,-0.100000)"
fill="#000000" stroke="none">
<path d="M140 446 l0 -24 -15 -12 -15 -12 -44 -5 -44 -5 -6 -22 -6 -21 0 -27
0 -28 34 0 34 0 16 -6 16 -6 0 -24 0 -24 -21 -21 -20 -20 -32 3 -32 3 2 -25 2
-25 2 -31 2 -31 41 8 41 8 12 1 12 0 3 -47 3 -48 33 -3 33 -3 16 12 15 13 -5
44 -5 44 44 -6 44 -6 0 61 0 62 35 -6 35 -6 15 15 15 15 0 5 0 5 -11 20 -10
20 -35 -7 -34 -6 0 55 0 56 -11 7 -11 7 -47 11 -46 12 -10 22 -10 22 -17 0
-18 0 0 -24z"/>
</g>
</svg>
