<?xml version="1.0" standalone="no"?>
<!DOCTYPE svg PUBLIC "-//W3C//DTD SVG 20010904//EN"
 "http://www.w3.org/TR/2001/REC-SVG-20010904/DTD/svg10.dtd">
<svg version="1.0" xmlns="http://www.w3.org/2000/svg"
 width="48.000000pt" height="42.000000pt" viewBox="0 0 48.000000 42.000000"
 preserveAspectRatio="xMidYMid meet">
<metadata>
Created by potrace 1.16, written by Peter Selinger 2001-2019
</metadata>
<g transform="translate(0.000000,42.000000) scale(0.100000,-0.100000)"
fill="#000000" stroke="none">
<path d="M98 358 l-3 -63 -24 3 -23 4 -24 -6 -24 -6 0 -29 0 -28 25 -11 26
-12 36 0 35 0 -6 -27 -6 -28 -6 -32 -6 -32 53 -3 53 -3 0 -40 1 -40 36 -3 37
-3 16 16 16 16 0 30 0 29 48 0 49 0 19 57 19 56 18 5 17 4 0 44 0 44 -29 0
-30 0 -7 11 -7 11 -1 47 -1 46 -44 3 -44 3 -24 -6 -24 -6 6 -27 6 -27 -14 -19
-14 -19 -17 6 -16 6 6 39 6 39 -23 6 -24 7 -42 0 -42 0 -3 -62z"/>
</g>
</svg>
