<?xml version="1.0" standalone="no"?>
<!DOCTYPE svg PUBLIC "-//W3C//DTD SVG 20010904//EN"
 "http://www.w3.org/TR/2001/REC-SVG-20010904/DTD/svg10.dtd">
<svg version="1.0" xmlns="http://www.w3.org/2000/svg"
 width="46.000000pt" height="40.000000pt" viewBox="0 0 46.000000 40.000000"
 preserveAspectRatio="xMidYMid meet">
<metadata>
Created by potrace 1.16, written by Peter Selinger 2001-2019
</metadata>
<g transform="translate(0.000000,40.000000) scale(0.100000,-0.100000)"
fill="#000000" stroke="none">
<path d="M98 338 l-3 -63 -25 2 -25 2 -22 -5 -23 -4 0 -19 0 -19 29 -11 28
-12 29 3 29 3 -1 -35 0 -35 -8 -27 -8 -27 54 -3 53 -3 0 -40 0 -40 26 -3 26
-3 17 17 17 17 -3 26 -3 26 51 3 51 3 19 56 19 56 18 5 17 4 0 35 0 35 -20 -5
-19 -5 -17 12 -16 12 -3 50 -3 49 -32 3 -33 3 -22 -5 -22 -6 4 -24 5 -24 -12
-21 -11 -22 -27 3 -27 3 2 42 2 41 -22 6 -22 6 -32 0 -32 0 -3 -62z"/>
</g>
</svg>
