<?xml version="1.0" standalone="no"?>
<!DOCTYPE svg PUBLIC "-//W3C//DTD SVG 20010904//EN"
 "http://www.w3.org/TR/2001/REC-SVG-20010904/DTD/svg10.dtd">
<svg version="1.0" xmlns="http://www.w3.org/2000/svg"
 width="41.000000pt" height="51.000000pt" viewBox="0 0 41.000000 51.000000"
 preserveAspectRatio="xMidYMid meet">
<metadata>
Created by potrace 1.16, written by Peter Selinger 2001-2019
</metadata>
<g transform="translate(0.000000,51.000000) scale(0.100000,-0.100000)"
fill="#000000" stroke="none">
<path d="M228 503 l-17 -4 6 -36 6 -36 -18 -13 -19 -14 -47 0 -48 0 -3 -47 -3
-48 -37 3 -37 3 -7 -24 -6 -25 4 -19 3 -18 29 0 30 -1 2 -9 3 -10 11 -55 10
-55 63 0 62 0 -3 -36 -3 -36 16 -13 16 -13 25 12 26 11 -4 48 -3 47 50 0 50 0
-3 28 -3 28 -9 25 -10 24 -25 10 -25 10 0 10 0 11 10 20 11 19 22 -5 22 -5 12
8 11 7 3 25 2 25 -1 26 -2 25 -52 3 -52 2 -9 6 -9 5 5 27 6 27 -7 10 -7 10
-15 5 -15 5 -17 -3z"/>
</g>
</svg>
