<?xml version="1.0" standalone="no"?>
<!DOCTYPE svg PUBLIC "-//W3C//DTD SVG 20010904//EN"
 "http://www.w3.org/TR/2001/REC-SVG-20010904/DTD/svg10.dtd">
<svg version="1.0" xmlns="http://www.w3.org/2000/svg"
 width="34.000000pt" height="50.000000pt" viewBox="0 0 34.000000 50.000000"
 preserveAspectRatio="xMidYMid meet">
<metadata>
Created by potrace 1.16, written by Peter Selinger 2001-2019
</metadata>
<g transform="translate(0.000000,50.000000) scale(0.100000,-0.100000)"
fill="#000000" stroke="none">
<path d="M158 495 l-6 -7 5 -33 5 -32 -13 -9 -14 -9 -55 -5 -55 -5 -3 -29 -4
-28 7 -25 6 -25 39 6 39 6 11 -20 10 -20 -20 -20 -20 -20 -18 -1 -17 -2 -25
-1 -25 -1 -3 -19 -4 -18 16 -42 16 -41 46 4 46 3 11 -11 12 -12 0 -37 0 -37
22 -3 22 -3 22 22 21 21 -5 40 -5 40 57 -6 58 -7 -20 61 -20 60 -14 0 -14 0 3
33 3 32 33 -3 32 -4 0 57 0 56 -37 -7 -38 -8 -25 0 -25 -1 -5 55 -5 55 -20 3
-21 3 -6 -6z"/>
</g>
</svg>
