<?xml version="1.0" standalone="no"?>
<!DOCTYPE svg PUBLIC "-//W3C//DTD SVG 20010904//EN"
 "http://www.w3.org/TR/2001/REC-SVG-20010904/DTD/svg10.dtd">
<svg version="1.0" xmlns="http://www.w3.org/2000/svg"
 width="40.000000pt" height="48.000000pt" viewBox="0 0 40.000000 48.000000"
 preserveAspectRatio="xMidYMid meet">
<metadata>
Created by potrace 1.16, written by Peter Selinger 2001-2019
</metadata>
<g transform="translate(0.000000,48.000000) scale(0.100000,-0.100000)"
fill="#000000" stroke="none">
<path d="M205 470 l-6 -10 3 -38 3 -37 -55 -5 -54 -5 -8 -40 -9 -39 -12 -8
-12 -8 -19 6 -18 6 -9 -13 -9 -14 0 -21 0 -20 14 -19 13 -18 38 1 37 1 -7 -59
-7 -59 34 9 33 10 27 0 28 0 0 -34 0 -34 14 -11 15 -12 22 11 21 12 -5 38 -5
39 12 4 11 4 48 -12 47 -12 -1 41 -1 41 -7 25 -7 25 -25 1 -24 1 -12 2 -13 1
0 20 0 20 26 10 25 10 25 -6 25 -6 -3 53 -3 54 -55 5 -55 5 3 34 2 33 -11 14
-11 14 -29 0 -28 0 -6 -10z"/>
</g>
</svg>
