<?xml version="1.0" standalone="no"?>
<!DOCTYPE svg PUBLIC "-//W3C//DTD SVG 20010904//EN"
 "http://www.w3.org/TR/2001/REC-SVG-20010904/DTD/svg10.dtd">
<svg version="1.0" xmlns="http://www.w3.org/2000/svg"
 width="43.000000pt" height="33.000000pt" viewBox="0 0 43.000000 33.000000"
 preserveAspectRatio="xMidYMid meet">
<metadata>
Created by potrace 1.16, written by Peter Selinger 2001-2019
</metadata>
<g transform="translate(0.000000,33.000000) scale(0.100000,-0.100000)"
fill="#000000" stroke="none">
<path d="M15 271 l-7 -60 7 -11 7 -12 33 6 33 7 5 -13 4 -13 -9 -18 -9 -18
-30 6 -29 7 -4 -14 -4 -13 -5 -62 -5 -63 61 0 62 0 24 7 23 6 -5 33 -6 34 9 0
9 0 3 -22 3 -22 35 -9 35 -8 38 -11 37 -11 5 5 6 5 6 52 6 51 27 0 28 0 11 14
12 15 -3 38 -3 38 -46 3 -46 3 5 49 5 50 -30 0 -30 0 -32 -6 -31 -6 0 -19 0
-19 -25 -12 -25 -11 -6 6 -6 6 -7 33 -7 33 -61 3 -61 3 -7 -60z"/>
</g>
</svg>
