<?xml version="1.0" standalone="no"?>
<!DOCTYPE svg PUBLIC "-//W3C//DTD SVG 20010904//EN"
 "http://www.w3.org/TR/2001/REC-SVG-20010904/DTD/svg10.dtd">
<svg version="1.0" xmlns="http://www.w3.org/2000/svg"
 width="41.000000pt" height="31.000000pt" viewBox="0 0 41.000000 31.000000"
 preserveAspectRatio="xMidYMid meet">
<metadata>
Created by potrace 1.16, written by Peter Selinger 2001-2019
</metadata>
<g transform="translate(0.000000,31.000000) scale(0.100000,-0.100000)"
fill="#000000" stroke="none">
<path d="M16 260 l-7 -51 6 -9 5 -9 34 6 34 5 7 -20 6 -21 -11 -21 -11 -21
-32 3 -32 3 -1 -51 -1 -51 -7 -12 -7 -11 53 0 53 0 23 6 22 6 -6 34 -6 34 24
0 25 0 -1 -22 -1 -22 35 -8 35 -9 29 -9 30 -10 3 3 3 3 8 55 8 54 25 -3 26 -2
12 14 12 15 -3 28 -3 28 -48 3 -48 3 7 50 7 49 -20 0 -20 0 -32 -6 -31 -6 0
-19 0 -18 -19 -11 -20 -10 -20 0 -21 0 -6 28 -6 27 -4 13 -3 12 -49 0 -49 0
-7 -50z"/>
</g>
</svg>
