<?xml version="1.0" standalone="no"?>
<!DOCTYPE svg PUBLIC "-//W3C//DTD SVG 20010904//EN"
 "http://www.w3.org/TR/2001/REC-SVG-20010904/DTD/svg10.dtd">
<svg version="1.0" xmlns="http://www.w3.org/2000/svg"
 width="50.000000pt" height="42.000000pt" viewBox="0 0 50.000000 42.000000"
 preserveAspectRatio="xMidYMid meet">
<metadata>
Created by potrace 1.16, written by Peter Selinger 2001-2019
</metadata>
<g transform="translate(0.000000,42.000000) scale(0.100000,-0.100000)"
fill="#000000" stroke="none">
<path d="M100 373 l0 -48 -10 -15 -9 -15 -38 0 -38 0 0 -35 0 -35 54 0 53 1
-6 -67 -7 -68 53 -3 53 -3 5 -40 5 -40 27 -3 27 -3 20 20 21 21 0 31 0 30 53
-3 52 -3 3 52 3 53 28 0 27 0 12 12 12 12 0 27 0 27 -6 16 -6 16 -34 0 -34 0
0 50 0 50 -32 -1 -33 0 -40 -7 -40 -7 0 -25 0 -25 -20 0 -20 0 2 38 2 37 -69
0 -70 0 0 -47z"/>
</g>
</svg>
