<?xml version="1.0" standalone="no"?>
<!DOCTYPE svg PUBLIC "-//W3C//DTD SVG 20010904//EN"
 "http://www.w3.org/TR/2001/REC-SVG-20010904/DTD/svg10.dtd">
<svg version="1.0" xmlns="http://www.w3.org/2000/svg"
 width="34.000000pt" height="43.000000pt" viewBox="0 0 34.000000 43.000000"
 preserveAspectRatio="xMidYMid meet">
<metadata>
Created by potrace 1.16, written by Peter Selinger 2001-2019
</metadata>
<g transform="translate(0.000000,43.000000) scale(0.100000,-0.100000)"
fill="#000000" stroke="none">
<path d="M135 420 l-6 -10 6 -30 6 -29 -20 -10 -20 -11 -45 0 -46 0 0 -46 0
-45 11 -21 11 -20 28 6 29 5 6 -20 7 -21 -9 -8 -8 -9 -40 -3 -40 -3 -1 -73 0
-73 20 5 21 6 53 0 52 0 0 41 0 41 13 -4 12 -5 3 -21 3 -22 17 -9 17 -8 63 -7
63 -7 -3 68 -3 68 -35 5 -35 5 -3 23 -3 22 23 0 23 0 15 10 14 9 1 53 0 53
-45 3 -45 2 -23 5 -23 6 6 18 6 18 -10 27 -11 26 -24 0 -25 0 -6 -10z"/>
</g>
</svg>
