<?xml version="1.0" standalone="no"?>
<!DOCTYPE svg PUBLIC "-//W3C//DTD SVG 20010904//EN"
 "http://www.w3.org/TR/2001/REC-SVG-20010904/DTD/svg10.dtd">
<svg version="1.0" xmlns="http://www.w3.org/2000/svg"
 width="44.000000pt" height="51.000000pt" viewBox="0 0 44.000000 51.000000"
 preserveAspectRatio="xMidYMid meet">
<metadata>
Created by potrace 1.16, written by Peter Selinger 2001-2019
</metadata>
<g transform="translate(0.000000,51.000000) scale(0.100000,-0.100000)"
fill="#000000" stroke="none">
<path d="M136 494 l-16 -15 0 -35 0 -34 -50 0 -50 0 -10 -25 -10 -25 8 -38 8
-37 32 -3 32 -3 0 -19 0 -19 -32 -3 -33 -3 -6 -65 -6 -65 4 -12 5 -11 54 5 54
6 0 -47 0 -46 40 0 39 0 11 19 10 20 0 41 0 41 23 -6 22 -7 32 -11 33 -11 14
20 15 19 10 41 11 42 24 6 25 6 6 19 6 18 -10 26 -10 25 -40 7 -41 7 0 44 0
44 -42 0 -43 0 -21 6 -21 6 4 23 5 23 -11 21 -12 21 -24 0 -24 0 -15 -16z"/>
</g>
</svg>
