<?xml version="1.0" standalone="no"?>
<!DOCTYPE svg PUBLIC "-//W3C//DTD SVG 20010904//EN"
 "http://www.w3.org/TR/2001/REC-SVG-20010904/DTD/svg10.dtd">
<svg version="1.0" xmlns="http://www.w3.org/2000/svg"
 width="38.000000pt" height="44.000000pt" viewBox="0 0 38.000000 44.000000"
 preserveAspectRatio="xMidYMid meet">
<metadata>
Created by potrace 1.16, written by Peter Selinger 2001-2019
</metadata>
<g transform="translate(0.000000,44.000000) scale(0.100000,-0.100000)"
fill="#000000" stroke="none">
<path d="M173 433 l-13 -5 0 -39 0 -39 -65 0 -65 0 0 -65 0 -65 33 0 32 0 15
-10 15 -10 -15 -10 -15 -10 -31 5 -31 5 -17 -6 -16 -6 0 -23 0 -23 12 -52 12
-51 70 3 71 3 3 32 3 31 14 6 14 5 10 -12 10 -12 3 -40 3 -40 40 1 41 0 31 14
31 14 7 63 7 63 -16 15 -15 16 -26 -7 -25 -6 -15 12 -15 13 12 14 12 14 23 -6
24 -6 14 15 15 15 0 47 0 47 -61 -7 -61 -7 6 19 7 19 -11 29 -11 29 -12 7 -12
8 -15 -1 -15 -1 -12 -5z"/>
</g>
</svg>
