<?xml version="1.0" standalone="no"?>
<!DOCTYPE svg PUBLIC "-//W3C//DTD SVG 20010904//EN"
 "http://www.w3.org/TR/2001/REC-SVG-20010904/DTD/svg10.dtd">
<svg version="1.0" xmlns="http://www.w3.org/2000/svg"
 width="42.000000pt" height="47.000000pt" viewBox="0 0 42.000000 47.000000"
 preserveAspectRatio="xMidYMid meet">
<metadata>
Created by potrace 1.16, written by Peter Selinger 2001-2019
</metadata>
<g transform="translate(0.000000,47.000000) scale(0.100000,-0.100000)"
fill="#000000" stroke="none">
<path d="M220 437 l0 -34 -25 -11 -26 -12 -34 0 -35 0 0 -41 0 -40 -12 -12
-13 -12 -29 0 -29 0 -10 -17 -11 -16 14 -17 14 -17 31 4 32 4 12 -13 11 -12
-6 -55 -7 -55 49 -3 49 -3 -3 -27 -3 -27 20 -10 20 -11 20 0 21 0 0 20 0 19
54 16 54 16 17 19 17 19 5 45 5 45 -41 -2 -41 -1 -22 21 -21 22 12 15 13 15
28 -5 28 -6 11 20 11 21 0 40 0 40 -32 5 -33 6 -40 2 -40 3 0 35 0 35 -17 3
-18 3 0 -34z"/>
</g>
</svg>
