<?xml version="1.0" standalone="no"?>
<!DOCTYPE svg PUBLIC "-//W3C//DTD SVG 20010904//EN"
 "http://www.w3.org/TR/2001/REC-SVG-20010904/DTD/svg10.dtd">
<svg version="1.0" xmlns="http://www.w3.org/2000/svg"
 width="44.000000pt" height="49.000000pt" viewBox="0 0 44.000000 49.000000"
 preserveAspectRatio="xMidYMid meet">
<metadata>
Created by potrace 1.16, written by Peter Selinger 2001-2019
</metadata>
<g transform="translate(0.000000,49.000000) scale(0.100000,-0.100000)"
fill="#000000" stroke="none">
<path d="M220 457 l0 -34 -25 -11 -26 -12 -34 0 -35 0 0 -44 0 -44 -16 -6 -16
-6 -22 0 -22 0 -12 -12 -12 -12 0 -21 0 -21 12 -12 12 -12 27 0 27 0 15 -6 15
-5 -5 -60 -6 -59 47 0 46 0 0 -30 0 -29 19 -11 20 -10 30 0 31 0 0 20 0 19 54
16 54 16 17 20 18 19 5 55 4 55 -44 0 -44 0 -12 12 -12 12 0 8 0 8 35 0 34 0
11 19 10 20 0 49 0 50 -22 6 -23 6 -47 0 -47 0 -3 38 -3 37 -27 3 -28 3 0 -34z"/>
</g>
</svg>
