<?xml version="1.0" standalone="no"?>
<!DOCTYPE svg PUBLIC "-//W3C//DTD SVG 20010904//EN"
 "http://www.w3.org/TR/2001/REC-SVG-20010904/DTD/svg10.dtd">
<svg version="1.0" xmlns="http://www.w3.org/2000/svg"
 width="33.000000pt" height="51.000000pt" viewBox="0 0 33.000000 51.000000"
 preserveAspectRatio="xMidYMid meet">
<metadata>
Created by potrace 1.16, written by Peter Selinger 2001-2019
</metadata>
<g transform="translate(0.000000,51.000000) scale(0.100000,-0.100000)"
fill="#000000" stroke="none">
<path d="M135 500 l-6 -10 2 -23 3 -22 -7 -12 -8 -13 -55 0 -54 0 0 -54 0 -54
14 -11 14 -12 26 7 26 6 6 -16 6 -16 -13 -16 -12 -15 -39 6 -38 7 0 -45 0 -44
6 -32 6 -31 49 0 49 0 0 -45 0 -44 33 -6 32 -6 28 10 27 11 0 45 0 45 50 0 50
0 0 39 0 40 -10 25 -10 26 -34 0 -34 0 -5 14 -6 14 6 6 6 6 32 0 33 0 11 14
12 14 -3 59 -3 58 -15 2 -15 2 -37 6 -37 6 -3 32 -3 32 -37 3 -36 3 -7 -11z"/>
</g>
</svg>
