<?xml version="1.0" standalone="no"?>
<!DOCTYPE svg PUBLIC "-//W3C//DTD SVG 20010904//EN"
 "http://www.w3.org/TR/2001/REC-SVG-20010904/DTD/svg10.dtd">
<svg version="1.0" xmlns="http://www.w3.org/2000/svg"
 width="43.000000pt" height="51.000000pt" viewBox="0 0 43.000000 51.000000"
 preserveAspectRatio="xMidYMid meet">
<metadata>
Created by potrace 1.16, written by Peter Selinger 2001-2019
</metadata>
<g transform="translate(0.000000,51.000000) scale(0.100000,-0.100000)"
fill="#000000" stroke="none">
<path d="M217 504 l-7 -7 0 -32 0 -32 -25 -11 -26 -12 -29 0 -30 0 0 -54 0
-53 -23 4 -22 4 -28 -10 -27 -11 0 -30 0 -30 24 -6 25 -6 11 7 10 6 6 -15 6
-16 7 -53 6 -52 53 -3 52 -3 0 -34 0 -34 19 -11 20 -10 30 0 30 0 11 19 10 20
0 20 0 20 45 6 44 7 11 13 11 13 -3 59 -3 58 -45 0 -45 0 -3 17 -3 17 43 3 43
3 3 68 3 67 -18 0 -18 0 -38 -11 -39 -10 -6 6 -7 6 -5 52 -5 52 -30 3 -31 3
-7 -7z"/>
</g>
</svg>
