<?xml version="1.0" standalone="no"?>
<!DOCTYPE svg PUBLIC "-//W3C//DTD SVG 20010904//EN"
 "http://www.w3.org/TR/2001/REC-SVG-20010904/DTD/svg10.dtd">
<svg version="1.0" xmlns="http://www.w3.org/2000/svg"
 width="38.000000pt" height="42.000000pt" viewBox="0 0 38.000000 42.000000"
 preserveAspectRatio="xMidYMid meet">
<metadata>
Created by potrace 1.16, written by Peter Selinger 2001-2019
</metadata>
<g transform="translate(0.000000,42.000000) scale(0.100000,-0.100000)"
fill="#000000" stroke="none">
<path d="M210 405 l-12 -15 5 -22 6 -22 -11 -13 -10 -13 -54 0 -54 0 0 -33 0
-33 -13 -18 -14 -19 -24 -1 -24 -1 -3 -33 -3 -33 12 -15 13 -16 23 5 23 4 6
-34 6 -33 -5 -20 -5 -20 48 0 49 0 26 10 27 10 -4 30 -5 30 15 12 14 12 20
-24 20 -24 -6 -38 -6 -38 32 0 33 0 23 6 22 6 0 64 0 63 -14 -5 -14 -6 -21 12
-21 11 0 35 0 35 23 -2 22 -3 13 7 12 8 0 49 0 50 -27 6 -28 6 -27 10 -28 10
0 23 0 23 -16 6 -16 6 -8 0 -8 0 -12 -15z"/>
</g>
</svg>
