<?xml version="1.0" standalone="no"?>
<!DOCTYPE svg PUBLIC "-//W3C//DTD SVG 20010904//EN"
 "http://www.w3.org/TR/2001/REC-SVG-20010904/DTD/svg10.dtd">
<svg version="1.0" xmlns="http://www.w3.org/2000/svg"
 width="43.000000pt" height="43.000000pt" viewBox="0 0 43.000000 43.000000"
 preserveAspectRatio="xMidYMid meet">
<metadata>
Created by potrace 1.16, written by Peter Selinger 2001-2019
</metadata>
<g transform="translate(0.000000,43.000000) scale(0.100000,-0.100000)"
fill="#000000" stroke="none">
<path d="M135 408 l-4 -23 -3 -25 -3 -25 -56 1 -57 1 -6 -53 -6 -52 6 -16 6
-16 33 6 32 6 17 -17 17 -17 -4 -12 -4 -11 -31 -3 -32 -3 -6 -27 -6 -27 -10
-34 -10 -33 13 -9 14 -9 60 2 60 3 1 35 1 35 2 9 1 8 14 -12 15 -12 3 -36 3
-37 46 -3 45 -3 28 11 27 10 -2 53 -3 52 20 -3 21 -3 26 10 27 11 0 29 0 29
-6 16 -6 16 -34 0 -34 0 -5 23 -5 22 -2 30 -3 29 -55 11 -55 10 3 24 2 24 -11
13 -11 14 -34 0 -34 0 -5 -22z"/>
</g>
</svg>
