<?xml version="1.0" standalone="no"?>
<!DOCTYPE svg PUBLIC "-//W3C//DTD SVG 20010904//EN"
 "http://www.w3.org/TR/2001/REC-SVG-20010904/DTD/svg10.dtd">
<svg version="1.0" xmlns="http://www.w3.org/2000/svg"
 width="38.000000pt" height="47.000000pt" viewBox="0 0 38.000000 47.000000"
 preserveAspectRatio="xMidYMid meet">
<metadata>
Created by potrace 1.16, written by Peter Selinger 2001-2019
</metadata>
<g transform="translate(0.000000,47.000000) scale(0.100000,-0.100000)"
fill="#000000" stroke="none">
<path d="M125 443 l0 -27 -25 -13 -25 -13 -37 0 -38 0 0 -50 0 -50 48 3 47 2
3 -28 3 -28 -12 -16 -13 -15 -32 5 -32 5 -6 -21 -6 -22 0 -42 0 -42 58 -3 57
-3 0 -34 0 -34 17 -10 16 -11 17 14 17 14 -4 34 -4 34 64 -4 64 -3 -6 28 -6
27 -6 30 -6 30 33 0 34 1 18 13 17 13 0 26 0 26 -20 11 -21 11 -19 -6 -19 -6
-3 53 -3 53 -60 21 -60 20 3 17 3 17 -28 0 -29 0 1 -27z"/>
</g>
</svg>
