<?xml version="1.0" standalone="no"?>
<!DOCTYPE svg PUBLIC "-//W3C//DTD SVG 20010904//EN"
 "http://www.w3.org/TR/2001/REC-SVG-20010904/DTD/svg10.dtd">
<svg version="1.0" xmlns="http://www.w3.org/2000/svg"
 width="31.000000pt" height="40.000000pt" viewBox="0 0 31.000000 40.000000"
 preserveAspectRatio="xMidYMid meet">
<metadata>
Created by potrace 1.16, written by Peter Selinger 2001-2019
</metadata>
<g transform="translate(0.000000,40.000000) scale(0.100000,-0.100000)"
fill="#000000" stroke="none">
<path d="M110 376 l0 -25 -22 -15 -22 -16 -34 0 -33 0 3 -47 3 -48 38 3 37 4
0 -40 0 -40 -14 -11 -13 -11 -18 6 -17 7 -9 -14 -9 -14 0 -47 0 -48 45 0 45 0
8 -2 7 -3 2 38 1 38 12 14 12 15 14 0 14 0 16 -25 16 -25 -6 -35 -7 -35 34 0
34 0 29 10 29 10 0 68 0 67 -31 1 -32 1 -16 6 -16 6 0 17 0 16 25 -6 25 -6 20
20 21 21 -3 42 -3 42 -35 -4 -35 -5 -30 0 -30 -1 -1 36 -1 36 -7 12 -7 11 -20
0 -19 0 0 -24z"/>
</g>
</svg>
