<?xml version="1.0" standalone="no"?>
<!DOCTYPE svg PUBLIC "-//W3C//DTD SVG 20010904//EN"
 "http://www.w3.org/TR/2001/REC-SVG-20010904/DTD/svg10.dtd">
<svg version="1.0" xmlns="http://www.w3.org/2000/svg"
 width="39.000000pt" height="40.000000pt" viewBox="0 0 39.000000 40.000000"
 preserveAspectRatio="xMidYMid meet">
<metadata>
Created by potrace 1.16, written by Peter Selinger 2001-2019
</metadata>
<g transform="translate(0.000000,40.000000) scale(0.100000,-0.100000)"
fill="#000000" stroke="none">
<path d="M224 366 l6 -34 -22 -6 -23 -6 -42 0 -43 0 0 -41 0 -40 -11 -21 -11
-20 -28 6 -28 5 -13 -15 -12 -15 21 -22 22 -21 41 1 41 2 -5 -42 -5 -42 -7
-17 -7 -18 57 0 57 0 -6 36 -7 36 12 14 11 14 24 0 23 0 11 -20 11 -20 -6 -34
-7 -33 16 -6 15 -6 36 6 35 6 6 23 6 24 -6 34 -6 33 -23 -4 -23 -5 -13 16 -12
15 3 33 3 33 24 1 24 1 14 19 13 18 0 33 0 33 -22 9 -23 9 -40 9 -40 8 1 23 1
22 -25 0 -24 0 6 -34z"/>
</g>
</svg>
