<?xml version="1.0" standalone="no"?>
<!DOCTYPE svg PUBLIC "-//W3C//DTD SVG 20010904//EN"
 "http://www.w3.org/TR/2001/REC-SVG-20010904/DTD/svg10.dtd">
<svg version="1.0" xmlns="http://www.w3.org/2000/svg"
 width="41.000000pt" height="42.000000pt" viewBox="0 0 41.000000 42.000000"
 preserveAspectRatio="xMidYMid meet">
<metadata>
Created by potrace 1.16, written by Peter Selinger 2001-2019
</metadata>
<g transform="translate(0.000000,42.000000) scale(0.100000,-0.100000)"
fill="#000000" stroke="none">
<path d="M222 386 l4 -35 -21 -5 -20 -6 -42 0 -43 0 0 -41 0 -40 -10 -20 -11
-19 -25 6 -24 6 -15 -12 -15 -12 0 -18 0 -17 21 -19 21 -19 40 0 40 0 -6 -30
-6 -30 -6 -27 -6 -28 67 0 67 0 -4 41 -3 42 18 11 18 11 14 -18 13 -18 -5 -38
-5 -39 20 -6 21 -7 38 7 38 7 7 11 8 11 0 35 0 35 -7 23 -6 24 -20 -6 -21 -5
-13 11 -13 10 0 24 0 24 20 0 20 0 20 20 20 20 0 45 0 45 -22 9 -23 9 -40 8
-40 9 3 23 3 22 -36 0 -37 0 4 -34z"/>
</g>
</svg>
