<?xml version="1.0" standalone="no"?>
<!DOCTYPE svg PUBLIC "-//W3C//DTD SVG 20010904//EN"
 "http://www.w3.org/TR/2001/REC-SVG-20010904/DTD/svg10.dtd">
<svg version="1.0" xmlns="http://www.w3.org/2000/svg"
 width="32.000000pt" height="48.000000pt" viewBox="0 0 32.000000 48.000000"
 preserveAspectRatio="xMidYMid meet">
<metadata>
Created by potrace 1.16, written by Peter Selinger 2001-2019
</metadata>
<g transform="translate(0.000000,48.000000) scale(0.100000,-0.100000)"
fill="#000000" stroke="none">
<path d="M131 471 l-14 -9 6 -16 6 -16 -5 -15 -6 -15 -60 0 -59 0 3 -47 3 -48
23 3 24 4 19 -18 19 -17 0 -22 0 -21 -12 -12 -12 -12 -22 0 -21 0 -7 -38 -6
-37 0 -18 0 -18 45 7 45 6 0 -39 0 -40 18 -16 19 -17 21 0 21 0 16 17 17 16
-5 33 -6 33 17 5 17 5 36 -8 37 -8 6 54 6 54 -5 10 -6 9 -33 0 -32 0 -12 12
-12 12 0 23 0 23 32 -7 31 -6 14 18 13 19 0 45 0 46 -67 0 -68 0 -1 25 0 26
-8 12 -7 12 -7 0 -7 0 -14 -9z"/>
</g>
</svg>
