<?xml version="1.0" standalone="no"?>
<!DOCTYPE svg PUBLIC "-//W3C//DTD SVG 20010904//EN"
 "http://www.w3.org/TR/2001/REC-SVG-20010904/DTD/svg10.dtd">
<svg version="1.0" xmlns="http://www.w3.org/2000/svg"
 width="51.000000pt" height="35.000000pt" viewBox="0 0 51.000000 35.000000"
 preserveAspectRatio="xMidYMid meet">
<metadata>
Created by potrace 1.16, written by Peter Selinger 2001-2019
</metadata>
<g transform="translate(0.000000,35.000000) scale(0.100000,-0.100000)"
fill="#000000" stroke="none">
<path d="M301 341 l-14 -9 5 -25 5 -24 -14 -19 -14 -19 -17 12 -17 11 3 29 3
30 -22 6 -21 6 -49 -6 -49 -6 0 -28 0 -27 -6 -16 -6 -16 -38 0 -38 0 -6 -16
-6 -16 0 -28 0 -29 19 -11 20 -10 42 0 41 0 -6 -27 -6 -28 -6 -37 -6 -37 58 6
59 6 18 9 17 9 0 29 0 29 10 6 10 6 9 -25 10 -24 56 -17 56 -16 9 6 10 6 0 60
0 60 33 -6 33 -7 13 16 12 15 -3 28 -3 28 -42 3 -43 3 0 50 0 50 -12 3 -13 4
-40 6 -40 5 -14 -8z"/>
</g>
</svg>
