<?xml version="1.0" standalone="no"?>
<!DOCTYPE svg PUBLIC "-//W3C//DTD SVG 20010904//EN"
 "http://www.w3.org/TR/2001/REC-SVG-20010904/DTD/svg10.dtd">
<svg version="1.0" xmlns="http://www.w3.org/2000/svg"
 width="33.000000pt" height="35.000000pt" viewBox="0 0 33.000000 35.000000"
 preserveAspectRatio="xMidYMid meet">
<metadata>
Created by potrace 1.16, written by Peter Selinger 2001-2019
</metadata>
<g transform="translate(0.000000,35.000000) scale(0.100000,-0.100000)"
fill="#000000" stroke="none">
<path d="M203 310 l1 -40 -17 -17 -17 -18 -18 11 -17 11 -3 43 -3 43 -56 -6
-55 -6 -5 -5 -6 -5 -5 -70 -5 -70 39 2 39 2 0 -10 0 -10 -24 3 -24 3 -8 -13
-9 -13 0 -72 0 -71 62 5 63 5 13 4 14 4 -4 37 -3 38 18 3 17 3 0 -45 0 -46 70
0 70 0 0 13 -1 12 -12 60 -13 60 -26 0 -26 0 -7 7 -7 7 6 26 7 26 37 -3 37 -3
3 61 3 61 -32 7 -31 6 -34 0 -33 0 2 -40z"/>
</g>
</svg>
