<?xml version="1.0" standalone="no"?>
<!DOCTYPE svg PUBLIC "-//W3C//DTD SVG 20010904//EN"
 "http://www.w3.org/TR/2001/REC-SVG-20010904/DTD/svg10.dtd">
<svg version="1.0" xmlns="http://www.w3.org/2000/svg"
 width="31.000000pt" height="33.000000pt" viewBox="0 0 31.000000 33.000000"
 preserveAspectRatio="xMidYMid meet">
<metadata>
Created by potrace 1.16, written by Peter Selinger 2001-2019
</metadata>
<g transform="translate(0.000000,33.000000) scale(0.100000,-0.100000)"
fill="#000000" stroke="none">
<path d="M205 291 l0 -38 -14 -17 -13 -16 -22 0 -22 0 -12 12 -12 12 0 39 0
40 -47 -7 -46 -6 -5 -4 -4 -4 -5 -62 -6 -61 24 9 24 9 23 -8 23 -9 -3 -17 -4
-18 -29 1 -30 1 -7 -11 -8 -11 0 -60 0 -60 62 5 63 5 0 40 0 40 24 3 24 4 7
-13 8 -12 -5 -34 -6 -33 62 0 61 0 -5 23 -5 22 -8 40 -8 39 -29 1 -30 0 -3 18
-4 19 6 25 7 24 37 -3 37 -3 3 51 3 51 -32 7 -31 6 -22 0 -21 0 0 -39z"/>
</g>
</svg>
