<?xml version="1.0" standalone="no"?>
<!DOCTYPE svg PUBLIC "-//W3C//DTD SVG 20010904//EN"
 "http://www.w3.org/TR/2001/REC-SVG-20010904/DTD/svg10.dtd">
<svg version="1.0" xmlns="http://www.w3.org/2000/svg"
 width="41.000000pt" height="41.000000pt" viewBox="0 0 41.000000 41.000000"
 preserveAspectRatio="xMidYMid meet">
<metadata>
Created by potrace 1.16, written by Peter Selinger 2001-2019
</metadata>
<g transform="translate(0.000000,41.000000) scale(0.100000,-0.100000)"
fill="#000000" stroke="none">
<path d="M130 375 l0 -35 -26 -10 -25 -10 -35 0 -34 0 0 -29 0 -29 -6 -30 -6
-31 48 -3 49 -3 3 -22 3 -22 -25 -7 -26 -6 -11 -44 -11 -44 -9 -6 -9 -5 0 -20
0 -19 69 0 69 0 6 16 6 16 0 30 0 31 8 -7 7 -8 0 -31 0 -32 60 -8 60 -7 22 5
22 5 12 55 12 54 21 3 21 3 0 45 0 45 -37 3 -38 3 0 49 0 48 -16 6 -16 6 -44
0 -44 0 0 28 0 28 -12 12 -12 12 -28 0 -28 0 0 -35z"/>
</g>
</svg>
