<?xml version="1.0" standalone="no"?>
<!DOCTYPE svg PUBLIC "-//W3C//DTD SVG 20010904//EN"
 "http://www.w3.org/TR/2001/REC-SVG-20010904/DTD/svg10.dtd">
<svg version="1.0" xmlns="http://www.w3.org/2000/svg"
 width="33.000000pt" height="40.000000pt" viewBox="0 0 33.000000 40.000000"
 preserveAspectRatio="xMidYMid meet">
<metadata>
Created by potrace 1.16, written by Peter Selinger 2001-2019
</metadata>
<g transform="translate(0.000000,40.000000) scale(0.100000,-0.100000)"
fill="#000000" stroke="none">
<path d="M129 393 l-2 -8 -1 -30 -1 -30 -58 -3 -58 -3 3 -51 3 -52 40 0 40 -1
3 -18 4 -18 -12 -14 -11 -14 -34 6 -33 5 -4 -67 -3 -67 4 -4 4 -4 64 0 63 0 0
35 0 36 15 5 15 6 15 -12 15 -12 0 -41 0 -40 56 6 56 6 6 5 5 6 -20 62 -19 63
-28 3 -27 3 3 32 3 32 48 -3 47 -3 0 45 0 44 -6 15 -5 15 -29 -15 -30 -14 -32
3 -33 3 3 33 3 33 -12 15 -11 14 -24 0 -24 0 -1 -7z"/>
</g>
</svg>
