<?xml version="1.0" standalone="no"?>
<!DOCTYPE svg PUBLIC "-//W3C//DTD SVG 20010904//EN"
 "http://www.w3.org/TR/2001/REC-SVG-20010904/DTD/svg10.dtd">
<svg version="1.0" xmlns="http://www.w3.org/2000/svg"
 width="35.000000pt" height="42.000000pt" viewBox="0 0 35.000000 42.000000"
 preserveAspectRatio="xMidYMid meet">
<metadata>
Created by potrace 1.16, written by Peter Selinger 2001-2019
</metadata>
<g transform="translate(0.000000,42.000000) scale(0.100000,-0.100000)"
fill="#000000" stroke="none">
<path d="M124 407 l-5 -13 3 -24 3 -25 -58 -3 -58 -3 3 -62 3 -62 40 0 40 0 0
-15 0 -15 -41 -3 -42 -3 -4 -72 -5 -72 4 -7 4 -8 75 0 74 0 0 33 0 34 7 6 6 7
14 -11 13 -11 0 -39 0 -39 39 0 38 0 32 6 31 6 0 22 -1 21 -18 55 -18 55 -27
3 -27 3 3 22 3 22 48 -3 47 -4 0 59 0 58 -9 14 -9 14 -35 -16 -35 -17 -21 0
-21 0 0 38 0 38 -12 12 -12 12 -33 0 -34 0 -5 -13z"/>
</g>
</svg>
