<?xml version="1.0" standalone="no"?>
<!DOCTYPE svg PUBLIC "-//W3C//DTD SVG 20010904//EN"
 "http://www.w3.org/TR/2001/REC-SVG-20010904/DTD/svg10.dtd">
<svg version="1.0" xmlns="http://www.w3.org/2000/svg"
 width="49.000000pt" height="39.000000pt" viewBox="0 0 49.000000 39.000000"
 preserveAspectRatio="xMidYMid meet">
<metadata>
Created by potrace 1.16, written by Peter Selinger 2001-2019
</metadata>
<g transform="translate(0.000000,39.000000) scale(0.100000,-0.100000)"
fill="#000000" stroke="none">
<path d="M221 381 l-13 -9 7 -31 7 -31 -61 0 -60 0 -3 -57 -3 -58 -30 -1 -30
-1 -11 -2 -12 -1 -6 -16 -6 -17 12 -14 12 -14 40 3 41 3 0 -63 0 -63 50 3 50
3 -2 43 -2 42 28 0 29 0 11 -14 11 -14 -2 -33 -3 -34 60 -1 60 0 0 65 0 66 34
0 33 0 15 21 14 22 -16 15 -15 16 -35 -6 -35 -6 0 55 0 54 -52 -1 -53 0 0 27
-1 26 -13 16 -13 16 -12 0 -11 0 -14 -9z"/>
</g>
</svg>
