<?xml version="1.0" standalone="no"?>
<!DOCTYPE svg PUBLIC "-//W3C//DTD SVG 20010904//EN"
 "http://www.w3.org/TR/2001/REC-SVG-20010904/DTD/svg10.dtd">
<svg version="1.0" xmlns="http://www.w3.org/2000/svg"
 width="39.000000pt" height="33.000000pt" viewBox="0 0 39.000000 33.000000"
 preserveAspectRatio="xMidYMid meet">
<metadata>
Created by potrace 1.16, written by Peter Selinger 2001-2019
</metadata>
<g transform="translate(0.000000,33.000000) scale(0.100000,-0.100000)"
fill="#000000" stroke="none">
<path d="M107 323 l-19 -5 4 -41 5 -42 -8 -21 -7 -21 -29 4 -29 5 -14 -17 -13
-16 9 -8 9 -9 19 -4 20 -3 18 -63 19 -62 55 0 56 0 -4 38 -3 37 22 3 22 3 11
-20 11 -21 -3 -28 -3 -27 36 -3 35 -3 27 10 27 11 0 55 0 55 -35 0 -35 0 -12
25 -11 24 17 26 16 25 18 1 17 1 18 -1 17 -2 0 14 0 15 -6 29 -6 30 -56 -16
-57 -17 0 -24 0 -25 -18 -3 -19 -4 -24 6 -24 6 0 45 0 45 -27 -1 -28 -1 -18
-5z"/>
</g>
</svg>
