<?xml version="1.0" standalone="no"?>
<!DOCTYPE svg PUBLIC "-//W3C//DTD SVG 20010904//EN"
 "http://www.w3.org/TR/2001/REC-SVG-20010904/DTD/svg10.dtd">
<svg version="1.0" xmlns="http://www.w3.org/2000/svg"
 width="50.000000pt" height="49.000000pt" viewBox="0 0 50.000000 49.000000"
 preserveAspectRatio="xMidYMid meet">
<metadata>
Created by potrace 1.16, written by Peter Selinger 2001-2019
</metadata>
<g transform="translate(0.000000,49.000000) scale(0.100000,-0.100000)"
fill="#000000" stroke="none">
<path d="M217 484 l-6 -6 5 -27 6 -27 -14 -11 -14 -12 -54 -3 -55 -3 -5 -55
-5 -54 -35 -1 -35 0 -3 -23 -4 -24 18 -19 18 -20 23 6 23 5 0 -55 0 -55 60 0
60 0 -6 -28 -6 -28 20 -24 20 -24 27 12 28 13 -6 49 -6 50 25 0 25 0 36 -15
36 -15 -6 56 -6 56 5 12 5 13 24 -5 25 -4 24 6 24 6 6 15 6 15 -21 21 -20 20
-32 -3 -32 -3 -3 48 -3 49 -17 -7 -17 -7 -42 -5 -43 -6 0 46 0 46 -16 15 -15
16 -8 0 -8 0 -6 -6z"/>
</g>
</svg>
