<?xml version="1.0" standalone="no"?>
<!DOCTYPE svg PUBLIC "-//W3C//DTD SVG 20010904//EN"
 "http://www.w3.org/TR/2001/REC-SVG-20010904/DTD/svg10.dtd">
<svg version="1.0" xmlns="http://www.w3.org/2000/svg"
 width="52.000000pt" height="51.000000pt" viewBox="0 0 52.000000 51.000000"
 preserveAspectRatio="xMidYMid meet">
<metadata>
Created by potrace 1.16, written by Peter Selinger 2001-2019
</metadata>
<g transform="translate(0.000000,51.000000) scale(0.100000,-0.100000)"
fill="#000000" stroke="none">
<path d="M215 499 l-7 -10 6 -23 6 -24 -13 -10 -13 -11 -54 -3 -55 -3 -3 -52
-3 -52 -37 -3 -37 -3 -3 -33 -3 -34 17 -19 17 -19 24 0 23 0 0 -50 0 -50 55 0
55 0 0 -28 0 -28 16 -22 15 -22 23 0 22 0 18 13 18 13 -3 47 -4 47 13 0 13 0
36 -15 35 -15 10 0 10 0 -4 63 -3 62 48 6 48 5 10 15 9 14 0 13 0 12 -20 20
-20 20 -35 0 -35 0 0 46 0 46 -27 -6 -28 -6 -32 -6 -33 -7 0 46 0 46 -16 15
-15 16 -19 0 -19 0 -6 -11z"/>
</g>
</svg>
