<?xml version="1.0" standalone="no"?>
<!DOCTYPE svg PUBLIC "-//W3C//DTD SVG 20010904//EN"
 "http://www.w3.org/TR/2001/REC-SVG-20010904/DTD/svg10.dtd">
<svg version="1.0" xmlns="http://www.w3.org/2000/svg"
 width="41.000000pt" height="49.000000pt" viewBox="0 0 41.000000 49.000000"
 preserveAspectRatio="xMidYMid meet">
<metadata>
Created by potrace 1.16, written by Peter Selinger 2001-2019
</metadata>
<g transform="translate(0.000000,49.000000) scale(0.100000,-0.100000)"
fill="#000000" stroke="none">
<path d="M228 484 l-6 -5 8 -34 8 -34 -6 -5 -5 -6 -64 0 -63 0 0 -50 0 -50
-34 0 -35 0 -15 -16 -16 -15 0 -18 0 -18 20 -18 19 -17 26 4 25 5 6 -23 6 -24
-4 -30 -5 -30 59 0 58 0 0 -44 0 -45 19 -6 18 -6 25 10 25 10 7 26 7 27 -6 18
-6 18 10 7 11 6 34 -10 35 -9 5 16 5 17 -8 38 -9 39 -6 5 -5 6 -22 1 -22 1
-11 18 -11 17 11 18 12 17 18 -1 19 -1 20 -4 20 -4 3 48 3 49 -12 14 -12 14
-54 16 -55 16 6 24 6 24 -28 0 -29 0 -5 -6z"/>
</g>
</svg>
