<?xml version="1.0" standalone="no"?>
<!DOCTYPE svg PUBLIC "-//W3C//DTD SVG 20010904//EN"
 "http://www.w3.org/TR/2001/REC-SVG-20010904/DTD/svg10.dtd">
<svg version="1.0" xmlns="http://www.w3.org/2000/svg"
 width="42.000000pt" height="40.000000pt" viewBox="0 0 42.000000 40.000000"
 preserveAspectRatio="xMidYMid meet">
<metadata>
Created by potrace 1.16, written by Peter Selinger 2001-2019
</metadata>
<g transform="translate(0.000000,40.000000) scale(0.100000,-0.100000)"
fill="#000000" stroke="none">
<path d="M233 387 l-7 -12 3 -32 3 -33 -34 -1 -33 -2 -35 -1 -35 -1 3 -24 4
-23 -6 -23 -6 -22 -22 4 -23 4 -22 -21 -23 -21 0 -15 0 -15 11 -20 10 -20 22
3 21 3 14 -58 14 -58 67 3 66 3 0 37 0 37 12 12 12 12 16 -6 15 -7 -6 -24 -6
-24 12 -7 12 -7 58 -12 58 -12 6 35 6 36 0 34 0 34 -38 -7 -39 -6 -18 14 -18
13 5 14 5 14 44 0 44 0 3 58 3 58 -66 -7 -66 -7 2 29 2 29 -7 22 -7 21 -14 6
-14 5 -8 -12z"/>
</g>
</svg>
