<?xml version="1.0" standalone="no"?>
<!DOCTYPE svg PUBLIC "-//W3C//DTD SVG 20010904//EN"
 "http://www.w3.org/TR/2001/REC-SVG-20010904/DTD/svg10.dtd">
<svg version="1.0" xmlns="http://www.w3.org/2000/svg"
 width="43.000000pt" height="51.000000pt" viewBox="0 0 43.000000 51.000000"
 preserveAspectRatio="xMidYMid meet">
<metadata>
Created by potrace 1.16, written by Peter Selinger 2001-2019
</metadata>
<g transform="translate(0.000000,51.000000) scale(0.100000,-0.100000)"
fill="#000000" stroke="none">
<path d="M206 495 l-6 -17 0 -35 0 -35 -57 4 -58 3 -5 -47 -6 -47 -7 -8 -8 -7
-27 -1 -27 0 -3 -37 -3 -36 23 -16 22 -16 28 0 28 0 0 -9 0 -8 -11 -32 -11
-32 6 -7 7 -6 46 -6 45 -5 3 -38 2 -39 14 -9 14 -9 27 0 27 0 11 20 10 19 3
41 2 40 13 0 13 0 36 -15 35 -15 8 0 8 0 11 31 11 32 0 43 0 43 -47 3 -48 3 0
20 0 20 35 5 35 5 3 44 3 44 -5 22 -6 22 -54 12 -55 12 -3 27 -3 27 -36 3 -36
3 -7 -16z"/>
</g>
</svg>
