<?xml version="1.0" standalone="no"?>
<!DOCTYPE svg PUBLIC "-//W3C//DTD SVG 20010904//EN"
 "http://www.w3.org/TR/2001/REC-SVG-20010904/DTD/svg10.dtd">
<svg version="1.0" xmlns="http://www.w3.org/2000/svg"
 width="40.000000pt" height="48.000000pt" viewBox="0 0 40.000000 48.000000"
 preserveAspectRatio="xMidYMid meet">
<metadata>
Created by potrace 1.16, written by Peter Selinger 2001-2019
</metadata>
<g transform="translate(0.000000,48.000000) scale(0.100000,-0.100000)"
fill="#000000" stroke="none">
<path d="M149 464 l-13 -16 -1 -26 0 -27 -60 0 -60 0 -3 -59 -3 -58 34 6 35 7
16 -17 17 -16 -12 -15 -13 -14 -40 3 -41 3 -3 -29 -4 -30 6 -40 6 -41 58 0 57
0 -3 -32 -3 -32 24 -16 24 -16 27 10 26 11 0 40 0 41 48 -1 47 -2 11 1 12 1
-1 13 -2 12 8 48 8 48 12 -4 12 -4 12 16 12 16 1 18 0 17 -30 0 -30 0 -10 26
-10 25 0 34 0 34 -55 11 -55 11 -1 10 -2 9 -1 13 -1 12 -10 7 -10 8 -11 0 -12
0 -13 -16z"/>
</g>
</svg>
