<?xml version="1.0" standalone="no"?>
<!DOCTYPE svg PUBLIC "-//W3C//DTD SVG 20010904//EN"
 "http://www.w3.org/TR/2001/REC-SVG-20010904/DTD/svg10.dtd">
<svg version="1.0" xmlns="http://www.w3.org/2000/svg"
 width="33.000000pt" height="40.000000pt" viewBox="0 0 33.000000 40.000000"
 preserveAspectRatio="xMidYMid meet">
<metadata>
Created by potrace 1.16, written by Peter Selinger 2001-2019
</metadata>
<g transform="translate(0.000000,40.000000) scale(0.100000,-0.100000)"
fill="#000000" stroke="none">
<path d="M2 338 l3 -63 40 -1 40 0 0 -29 0 -29 -24 -6 -25 -6 -13 -49 -13 -50
0 -12 0 -13 40 0 40 0 0 -21 0 -20 10 -20 11 -19 47 0 48 0 12 12 12 12 0 17
0 17 23 6 22 6 28 0 27 0 0 58 0 57 -6 22 -6 22 -37 3 -36 3 0 15 0 15 43 3
42 3 0 60 0 59 -20 0 -19 0 -50 -11 -50 -10 -3 -22 -3 -22 -20 0 -20 0 -3 25
-3 25 -17 13 -16 12 -53 0 -54 0 3 -62z"/>
</g>
</svg>
