<?xml version="1.0" standalone="no"?>
<!DOCTYPE svg PUBLIC "-//W3C//DTD SVG 20010904//EN"
 "http://www.w3.org/TR/2001/REC-SVG-20010904/DTD/svg10.dtd">
<svg version="1.0" xmlns="http://www.w3.org/2000/svg"
 width="31.000000pt" height="38.000000pt" viewBox="0 0 31.000000 38.000000"
 preserveAspectRatio="xMidYMid meet">
<metadata>
Created by potrace 1.16, written by Peter Selinger 2001-2019
</metadata>
<g transform="translate(0.000000,38.000000) scale(0.100000,-0.100000)"
fill="#000000" stroke="none">
<path d="M2 328 l3 -53 40 0 40 0 3 -34 3 -34 -11 -11 -11 -11 -16 0 -17 0 -6
-25 -7 -25 -6 -27 -7 -27 42 -3 43 -3 -2 -20 -1 -19 9 -18 10 -18 38 0 39 0
11 14 11 13 -5 15 -6 15 32 7 31 6 24 0 24 0 0 48 0 47 -6 23 -6 22 -34 0 -35
0 -6 16 -6 17 10 16 10 16 37 -3 36 -4 0 51 0 51 -10 0 -9 0 -50 -11 -50 -10
5 -13 5 -13 -15 -12 -15 -13 -23 4 -23 3 -3 25 -3 25 -17 13 -16 12 -43 0 -44
0 3 -52z"/>
</g>
</svg>
