<?xml version="1.0" standalone="no"?>
<!DOCTYPE svg PUBLIC "-//W3C//DTD SVG 20010904//EN"
 "http://www.w3.org/TR/2001/REC-SVG-20010904/DTD/svg10.dtd">
<svg version="1.0" xmlns="http://www.w3.org/2000/svg"
 width="39.000000pt" height="39.000000pt" viewBox="0 0 39.000000 39.000000"
 preserveAspectRatio="xMidYMid meet">
<metadata>
Created by potrace 1.16, written by Peter Selinger 2001-2019
</metadata>
<g transform="translate(0.000000,39.000000) scale(0.100000,-0.100000)"
fill="#000000" stroke="none">
<path d="M90 335 l0 -57 -36 4 -37 3 -10 -16 -10 -16 6 -17 6 -16 35 0 34 0 6
-22 6 -23 0 -42 0 -42 48 -3 47 -3 1 -30 1 -30 1 -12 2 -13 39 0 39 0 12 15
12 14 -6 19 -7 20 23 6 23 6 33 0 32 0 0 10 0 10 -9 0 -10 0 -3 53 -3 52 -17
-3 -18 -3 -20 11 -21 11 3 32 3 32 40 1 40 0 3 48 3 47 -48 -6 -48 -7 -7 -7
-6 -6 -4 -20 -3 -20 -40 0 -40 0 0 35 0 35 -47 3 -48 3 0 -56z"/>
</g>
</svg>
