<?xml version="1.0" standalone="no"?>
<!DOCTYPE svg PUBLIC "-//W3C//DTD SVG 20010904//EN"
 "http://www.w3.org/TR/2001/REC-SVG-20010904/DTD/svg10.dtd">
<svg version="1.0" xmlns="http://www.w3.org/2000/svg"
 width="43.000000pt" height="47.000000pt" viewBox="0 0 43.000000 47.000000"
 preserveAspectRatio="xMidYMid meet">
<metadata>
Created by potrace 1.16, written by Peter Selinger 2001-2019
</metadata>
<g transform="translate(0.000000,47.000000) scale(0.100000,-0.100000)"
fill="#000000" stroke="none">
<path d="M155 458 l-5 -13 3 -30 2 -30 -65 -5 -65 -5 -3 -64 -3 -64 30 6 31 6
15 -5 15 -6 0 -14 0 -13 -21 -11 -20 -11 -29 6 -28 6 -7 -20 -6 -21 4 -17 5
-18 6 -27 6 -28 30 0 29 0 26 -10 26 -10 -3 -27 -3 -28 45 0 45 0 0 14 0 15
63 18 62 19 0 44 0 43 6 16 6 16 29 0 29 0 12 25 11 24 -13 17 -14 16 -39 -4
-39 -4 4 53 3 52 -60 -2 -60 -2 3 33 2 33 -10 19 -11 20 -20 0 -20 0 -4 -12z"/>
</g>
</svg>
