<?xml version="1.0" standalone="no"?>
<!DOCTYPE svg PUBLIC "-//W3C//DTD SVG 20010904//EN"
 "http://www.w3.org/TR/2001/REC-SVG-20010904/DTD/svg10.dtd">
<svg version="1.0" xmlns="http://www.w3.org/2000/svg"
 width="47.000000pt" height="49.000000pt" viewBox="0 0 47.000000 49.000000"
 preserveAspectRatio="xMidYMid meet">
<metadata>
Created by potrace 1.16, written by Peter Selinger 2001-2019
</metadata>
<g transform="translate(0.000000,49.000000) scale(0.100000,-0.100000)"
fill="#000000" stroke="none">
<path d="M216 468 l-5 -23 2 -25 2 -25 -67 1 -67 1 -3 -56 -3 -56 -14 3 -15 3
-23 -6 -23 -5 0 -34 0 -34 15 -12 14 -12 20 7 20 6 5 -23 5 -23 3 -25 3 -25
50 -5 50 -5 13 -9 13 -8 -6 -19 -6 -19 6 -20 6 -20 24 0 24 0 11 21 11 20 -3
32 -3 32 35 -1 35 0 25 -5 24 -4 9 40 8 40 4 21 5 21 22 -1 23 -1 3 32 3 31
-20 7 -21 6 -11 -7 -11 -7 -9 14 -9 14 0 47 0 48 -60 17 -61 17 3 25 3 26 -27
3 -27 3 -5 -23z"/>
</g>
</svg>
