<?xml version="1.0" standalone="no"?>
<!DOCTYPE svg PUBLIC "-//W3C//DTD SVG 20010904//EN"
 "http://www.w3.org/TR/2001/REC-SVG-20010904/DTD/svg10.dtd">
<svg version="1.0" xmlns="http://www.w3.org/2000/svg"
 width="39.000000pt" height="31.000000pt" viewBox="0 0 39.000000 31.000000"
 preserveAspectRatio="xMidYMid meet">
<metadata>
Created by potrace 1.16, written by Peter Selinger 2001-2019
</metadata>
<g transform="translate(0.000000,31.000000) scale(0.100000,-0.100000)"
fill="#000000" stroke="none">
<path d="M20 262 l0 -48 33 4 32 4 19 -21 18 -20 -6 -24 -6 -24 -25 -11 -25
-12 -31 7 -32 6 7 -39 7 -39 0 -23 1 -23 15 5 15 6 54 0 55 0 -3 38 -3 37 33
3 32 3 0 -18 0 -19 50 -16 50 -16 0 65 0 65 27 -5 27 -5 13 5 13 5 0 19 0 18
-19 11 -20 10 -21 0 -22 0 4 50 3 51 -55 -3 -55 -3 -2 -29 -2 -29 -5 -14 -6
-14 -32 3 -33 3 3 34 4 34 -14 8 -13 9 -42 0 -43 0 0 -48z"/>
</g>
</svg>
