<?xml version="1.0" standalone="no"?>
<!DOCTYPE svg PUBLIC "-//W3C//DTD SVG 20010904//EN"
 "http://www.w3.org/TR/2001/REC-SVG-20010904/DTD/svg10.dtd">
<svg version="1.0" xmlns="http://www.w3.org/2000/svg"
 width="47.000000pt" height="40.000000pt" viewBox="0 0 47.000000 40.000000"
 preserveAspectRatio="xMidYMid meet">
<metadata>
Created by potrace 1.16, written by Peter Selinger 2001-2019
</metadata>
<g transform="translate(0.000000,40.000000) scale(0.100000,-0.100000)"
fill="#000000" stroke="none">
<path d="M100 353 l0 -48 -9 -13 -8 -13 -39 3 -39 3 -3 -23 -4 -23 13 -15 12
-15 36 3 36 3 3 -63 3 -62 24 6 25 6 24 -6 25 -6 -6 -35 -6 -34 28 -13 27 -12
16 11 17 11 0 26 -1 26 16 4 15 4 48 7 47 6 0 14 0 14 11 51 11 50 24 6 24 6
0 30 0 30 -26 -6 -26 -7 -14 12 -14 11 0 49 0 49 -45 0 -45 0 0 -40 0 -40 -26
-11 -27 -10 -24 16 -24 16 3 32 3 32 -52 3 -53 3 0 -48z"/>
</g>
</svg>
