<?xml version="1.0" standalone="no"?>
<!DOCTYPE svg PUBLIC "-//W3C//DTD SVG 20010904//EN"
 "http://www.w3.org/TR/2001/REC-SVG-20010904/DTD/svg10.dtd">
<svg version="1.0" xmlns="http://www.w3.org/2000/svg"
 width="45.000000pt" height="40.000000pt" viewBox="0 0 45.000000 40.000000"
 preserveAspectRatio="xMidYMid meet">
<metadata>
Created by potrace 1.16, written by Peter Selinger 2001-2019
</metadata>
<g transform="translate(0.000000,40.000000) scale(0.100000,-0.100000)"
fill="#000000" stroke="none">
<path d="M80 346 l0 -55 -12 -8 -13 -8 -25 0 -25 0 -3 -26 -3 -26 19 -5 20 -5
18 -54 18 -54 -2 -12 -3 -12 32 9 31 9 30 -6 30 -6 -6 -28 -5 -29 5 -15 6 -15
28 0 28 0 16 6 16 6 0 45 0 45 44 -4 45 -3 13 55 13 55 21 3 22 3 5 21 6 20
-6 15 -6 15 -33 -5 -34 -6 0 60 0 60 -47 -3 -48 -3 -1 -25 -1 -25 -2 -13 -1
-12 -25 -10 -25 -10 -25 10 -25 10 0 45 0 45 -45 0 -45 0 0 -54z"/>
</g>
</svg>
