<?xml version="1.0" standalone="no"?>
<!DOCTYPE svg PUBLIC "-//W3C//DTD SVG 20010904//EN"
 "http://www.w3.org/TR/2001/REC-SVG-20010904/DTD/svg10.dtd">
<svg version="1.0" xmlns="http://www.w3.org/2000/svg"
 width="38.000000pt" height="32.000000pt" viewBox="0 0 38.000000 32.000000"
 preserveAspectRatio="xMidYMid meet">
<metadata>
Created by potrace 1.16, written by Peter Selinger 2001-2019
</metadata>
<g transform="translate(0.000000,32.000000) scale(0.100000,-0.100000)"
fill="#000000" stroke="none">
<path d="M90 260 l0 -61 -34 6 -34 7 -11 -21 -12 -21 10 -19 10 -18 25 4 25 5
7 -26 6 -27 -5 -34 -5 -33 15 -6 15 -6 32 0 32 0 16 12 17 13 3 30 3 30 25 0
25 0 -2 -42 -2 -42 32 -6 32 -5 30 8 30 9 -3 34 -3 34 -4 23 -5 22 -30 0 -29
0 -6 20 -6 20 6 20 6 19 29 -5 28 -6 11 20 11 21 0 34 0 34 -47 -12 -48 -12 0
-9 0 -9 -8 -12 -8 -13 -34 0 -34 0 -7 11 -7 12 1 28 1 29 -50 0 -49 0 0 -60z"/>
</g>
</svg>
