<?xml version="1.0" standalone="no"?>
<!DOCTYPE svg PUBLIC "-//W3C//DTD SVG 20010904//EN"
 "http://www.w3.org/TR/2001/REC-SVG-20010904/DTD/svg10.dtd">
<svg version="1.0" xmlns="http://www.w3.org/2000/svg"
 width="40.000000pt" height="33.000000pt" viewBox="0 0 40.000000 33.000000"
 preserveAspectRatio="xMidYMid meet">
<metadata>
Created by potrace 1.16, written by Peter Selinger 2001-2019
</metadata>
<g transform="translate(0.000000,33.000000) scale(0.100000,-0.100000)"
fill="#000000" stroke="none">
<path d="M10 274 l0 -55 11 -20 10 -20 27 3 27 3 0 -25 0 -25 -42 -3 -43 -3 0
-33 0 -33 6 -32 7 -31 54 0 54 0 21 11 20 11 -6 39 -6 39 15 0 15 0 0 -35 0
-35 28 -5 27 -6 42 -10 42 -9 4 0 4 0 19 57 19 56 18 5 17 4 0 50 0 51 -29 -6
-29 -6 -12 29 -12 28 11 20 11 21 0 10 0 11 -52 0 -53 0 -23 -7 -24 -6 5 -25
5 -26 -5 -13 -5 -13 -18 0 -18 0 -6 15 -5 15 6 30 6 30 -72 0 -71 0 0 -56z"/>
</g>
</svg>
