<?xml version="1.0" standalone="no"?>
<!DOCTYPE svg PUBLIC "-//W3C//DTD SVG 20010904//EN"
 "http://www.w3.org/TR/2001/REC-SVG-20010904/DTD/svg10.dtd">
<svg version="1.0" xmlns="http://www.w3.org/2000/svg"
 width="39.000000pt" height="39.000000pt" viewBox="0 0 39.000000 39.000000"
 preserveAspectRatio="xMidYMid meet">
<metadata>
Created by potrace 1.16, written by Peter Selinger 2001-2019
</metadata>
<g transform="translate(0.000000,39.000000) scale(0.100000,-0.100000)"
fill="#000000" stroke="none">
<path d="M100 336 l0 -55 -41 -3 -42 -3 -11 -17 -11 -18 11 -17 11 -18 44 -5
44 -5 -1 -58 0 -57 19 6 19 6 34 -7 34 -6 0 -39 0 -40 23 0 24 0 12 24 13 23
-4 29 -3 29 42 -3 42 -2 5 8 5 9 -10 36 -10 36 -22 3 -22 3 0 50 0 50 34 -3
34 -3 9 13 8 13 0 34 0 33 -47 -7 -48 -7 -10 -6 -10 -7 0 -25 0 -25 -40 0 -40
0 2 35 1 35 -11 7 -12 8 -37 0 -38 0 0 -54z"/>
</g>
</svg>
