<?xml version="1.0" standalone="no"?>
<!DOCTYPE svg PUBLIC "-//W3C//DTD SVG 20010904//EN"
 "http://www.w3.org/TR/2001/REC-SVG-20010904/DTD/svg10.dtd">
<svg version="1.0" xmlns="http://www.w3.org/2000/svg"
 width="30.000000pt" height="32.000000pt" viewBox="0 0 30.000000 32.000000"
 preserveAspectRatio="xMidYMid meet">
<metadata>
Created by potrace 1.16, written by Peter Selinger 2001-2019
</metadata>
<g transform="translate(0.000000,32.000000) scale(0.100000,-0.100000)"
fill="#000000" stroke="none">
<path d="M215 312 l-10 -7 -2 -33 -1 -33 -12 -14 -12 -15 -24 0 -23 0 -16 16
-16 16 6 28 6 27 -23 7 -23 6 -26 0 -27 0 -4 -42 -5 -43 4 -10 3 -10 40 3 39
4 12 -26 12 -26 -13 -26 -14 -25 -36 3 -35 3 0 -55 0 -55 54 0 54 0 1 45 1 45
28 3 27 3 1 -13 1 -13 -1 -18 -2 -17 23 -9 23 -8 33 -6 32 -6 0 32 0 32 -6 23
-6 23 -20 -7 -19 -6 -20 18 -19 17 0 28 0 28 17 9 16 10 28 -8 27 -8 6 6 6 5
0 49 0 48 -24 0 -24 0 -14 5 -13 5 -10 -8z"/>
</g>
</svg>
