<?xml version="1.0" standalone="no"?>
<!DOCTYPE svg PUBLIC "-//W3C//DTD SVG 20010904//EN"
 "http://www.w3.org/TR/2001/REC-SVG-20010904/DTD/svg10.dtd">
<svg version="1.0" xmlns="http://www.w3.org/2000/svg"
 width="32.000000pt" height="34.000000pt" viewBox="0 0 32.000000 34.000000"
 preserveAspectRatio="xMidYMid meet">
<metadata>
Created by potrace 1.16, written by Peter Selinger 2001-2019
</metadata>
<g transform="translate(0.000000,34.000000) scale(0.100000,-0.100000)"
fill="#000000" stroke="none">
<path d="M214 333 l-11 -8 0 -32 0 -32 -13 -15 -12 -16 -12 0 -11 0 -15 10
-14 9 2 34 2 35 -22 6 -23 6 -36 0 -36 0 -6 -50 -6 -51 5 -14 6 -15 38 6 38 6
11 -21 11 -21 -12 -20 -13 -20 -35 2 -35 3 0 -65 0 -65 65 0 65 0 0 45 0 44
18 4 17 3 0 -31 0 -30 23 -9 22 -8 43 -8 42 -7 0 44 0 43 -7 23 -6 24 -23 -5
-23 -4 -17 18 -16 18 4 18 4 18 44 0 45 0 3 63 3 62 -19 0 -19 0 -29 5 -29 6
-11 -8z"/>
</g>
</svg>
