<?xml version="1.0" standalone="no"?>
<!DOCTYPE svg PUBLIC "-//W3C//DTD SVG 20010904//EN"
 "http://www.w3.org/TR/2001/REC-SVG-20010904/DTD/svg10.dtd">
<svg version="1.0" xmlns="http://www.w3.org/2000/svg"
 width="31.000000pt" height="33.000000pt" viewBox="0 0 31.000000 33.000000"
 preserveAspectRatio="xMidYMid meet">
<metadata>
Created by potrace 1.16, written by Peter Selinger 2001-2019
</metadata>
<g transform="translate(0.000000,33.000000) scale(0.100000,-0.100000)"
fill="#000000" stroke="none">
<path d="M10 285 l0 -40 10 -15 9 -15 28 0 28 0 3 -27 3 -27 -11 -22 -12 -21
-29 4 -30 5 -5 -8 -5 -8 7 -51 7 -50 64 0 65 0 -7 30 -7 31 12 14 12 15 9 0 8
0 16 -16 16 -16 -7 -35 -6 -34 58 3 59 2 0 161 0 160 -45 0 -45 0 -1 -41 -1
-41 -7 -11 -7 -12 -35 0 -34 0 -2 18 -1 17 -1 30 -1 30 -57 5 -58 5 0 -40z"/>
</g>
</svg>
