<?xml version="1.0" standalone="no"?>
<!DOCTYPE svg PUBLIC "-//W3C//DTD SVG 20010904//EN"
 "http://www.w3.org/TR/2001/REC-SVG-20010904/DTD/svg10.dtd">
<svg version="1.0" xmlns="http://www.w3.org/2000/svg"
 width="33.000000pt" height="35.000000pt" viewBox="0 0 33.000000 35.000000"
 preserveAspectRatio="xMidYMid meet">
<metadata>
Created by potrace 1.16, written by Peter Selinger 2001-2019
</metadata>
<g transform="translate(0.000000,35.000000) scale(0.100000,-0.100000)"
fill="#000000" stroke="none">
<path d="M10 296 l0 -52 14 -19 13 -18 22 6 22 5 6 -14 6 -15 -12 -25 -11 -26
-29 7 -29 6 -7 -11 -7 -11 7 -60 7 -59 75 0 76 0 -6 36 -6 35 15 6 15 5 6 -6
7 -7 -2 -39 -3 -40 68 0 68 0 0 174 0 173 -55 -1 -55 -1 -5 -50 -5 -50 -27 -3
-28 -3 -1 18 -1 18 2 28 2 27 -14 4 -13 4 -57 5 -58 6 0 -53z"/>
</g>
</svg>
