<?xml version="1.0" standalone="no"?>
<!DOCTYPE svg PUBLIC "-//W3C//DTD SVG 20010904//EN"
 "http://www.w3.org/TR/2001/REC-SVG-20010904/DTD/svg10.dtd">
<svg version="1.0" xmlns="http://www.w3.org/2000/svg"
 width="41.000000pt" height="41.000000pt" viewBox="0 0 41.000000 41.000000"
 preserveAspectRatio="xMidYMid meet">
<metadata>
Created by potrace 1.16, written by Peter Selinger 2001-2019
</metadata>
<g transform="translate(0.000000,41.000000) scale(0.100000,-0.100000)"
fill="#000000" stroke="none">
<path d="M39 403 l-27 -4 -6 -31 -6 -31 0 -23 0 -24 24 0 24 0 22 -18 21 -17
-6 -17 -7 -17 -21 -3 -22 -3 -12 -55 -13 -55 5 -14 5 -14 45 5 45 6 0 -33 0
-32 23 -12 23 -12 34 8 34 9 6 25 6 24 51 8 52 8 -6 50 -6 49 28 0 28 0 13 18
13 17 1 31 0 32 -14 11 -13 11 -24 -2 -24 -3 -3 35 -2 35 -5 23 -5 22 -71 0
-70 0 6 -32 6 -33 -14 -19 -14 -19 -12 7 -12 8 6 38 6 37 -23 7 -23 6 -20 -2
-20 -1 -26 -4z"/>
</g>
</svg>
