<?xml version="1.0" standalone="no"?>
<!DOCTYPE svg PUBLIC "-//W3C//DTD SVG 20010904//EN"
 "http://www.w3.org/TR/2001/REC-SVG-20010904/DTD/svg10.dtd">
<svg version="1.0" xmlns="http://www.w3.org/2000/svg"
 width="39.000000pt" height="39.000000pt" viewBox="0 0 39.000000 39.000000"
 preserveAspectRatio="xMidYMid meet">
<metadata>
Created by potrace 1.16, written by Peter Selinger 2001-2019
</metadata>
<g transform="translate(0.000000,39.000000) scale(0.100000,-0.100000)"
fill="#000000" stroke="none">
<path d="M39 383 l-27 -4 -6 -31 -6 -31 0 -13 0 -14 24 0 24 0 23 -19 24 -19
-10 -28 -11 -29 -19 0 -20 0 -11 -53 -12 -52 9 -6 9 -5 43 6 43 7 -4 -34 -3
-33 19 -12 20 -12 28 8 29 8 -1 21 -1 22 16 4 16 5 40 6 40 6 -3 55 -4 55 27
-7 26 -6 14 18 14 19 1 22 0 22 -12 7 -12 8 -26 0 -25 1 -3 35 -2 35 -5 23 -5
22 -58 0 -59 0 5 -29 4 -29 -12 -21 -11 -22 -22 3 -22 3 1 42 1 42 -21 5 -21
6 -10 -2 -10 -1 -26 -4z"/>
</g>
</svg>
