<?xml version="1.0" standalone="no"?>
<!DOCTYPE svg PUBLIC "-//W3C//DTD SVG 20010904//EN"
 "http://www.w3.org/TR/2001/REC-SVG-20010904/DTD/svg10.dtd">
<svg version="1.0" xmlns="http://www.w3.org/2000/svg"
 width="40.000000pt" height="47.000000pt" viewBox="0 0 40.000000 47.000000"
 preserveAspectRatio="xMidYMid meet">
<metadata>
Created by potrace 1.16, written by Peter Selinger 2001-2019
</metadata>
<g transform="translate(0.000000,47.000000) scale(0.100000,-0.100000)"
fill="#000000" stroke="none">
<path d="M121 456 l-12 -14 7 -27 7 -28 -62 7 -61 7 0 -55 0 -55 18 -10 17 -9
28 5 29 6 -4 -29 -3 -29 -22 3 -21 3 -7 -10 -6 -11 -13 -50 -13 -50 5 -5 5 -5
43 0 43 0 3 -47 3 -48 38 -3 37 -3 11 28 10 28 -5 29 -6 29 53 -6 54 -5 11 7
11 6 3 39 3 39 28 2 28 1 9 14 10 15 0 27 0 28 -22 5 -23 5 -20 -3 -20 -2 -5
60 -5 60 -60 3 -60 4 -6 10 -7 10 5 19 5 19 -25 0 -25 0 -11 -14z"/>
</g>
</svg>
