<?xml version="1.0" standalone="no"?>
<!DOCTYPE svg PUBLIC "-//W3C//DTD SVG 20010904//EN"
 "http://www.w3.org/TR/2001/REC-SVG-20010904/DTD/svg10.dtd">
<svg version="1.0" xmlns="http://www.w3.org/2000/svg"
 width="30.000000pt" height="39.000000pt" viewBox="0 0 30.000000 39.000000"
 preserveAspectRatio="xMidYMid meet">
<metadata>
Created by potrace 1.16, written by Peter Selinger 2001-2019
</metadata>
<g transform="translate(0.000000,39.000000) scale(0.100000,-0.100000)"
fill="#000000" stroke="none">
<path d="M125 380 l7 -11 -6 -25 -6 -24 -61 0 -60 0 3 -57 3 -58 20 2 20 3 23
-5 22 -5 0 -28 0 -27 -10 -15 -9 -14 -28 -1 -28 -2 -3 -51 -3 -52 40 0 39 0
16 6 16 6 -6 10 -6 9 6 23 6 24 16 6 15 6 20 -10 19 -11 -3 -32 -2 -32 53 -3
52 -3 0 8 0 8 -13 50 -14 50 -21 -3 -21 -3 -10 20 -11 20 0 15 0 15 23 21 22
21 23 -4 22 -4 6 23 6 22 -4 19 -3 18 -55 5 -55 5 0 35 0 35 -34 3 -33 3 7
-11z"/>
</g>
</svg>
