<?xml version="1.0" standalone="no"?>
<!DOCTYPE svg PUBLIC "-//W3C//DTD SVG 20010904//EN"
 "http://www.w3.org/TR/2001/REC-SVG-20010904/DTD/svg10.dtd">
<svg version="1.0" xmlns="http://www.w3.org/2000/svg"
 width="49.000000pt" height="37.000000pt" viewBox="0 0 49.000000 37.000000"
 preserveAspectRatio="xMidYMid meet">
<metadata>
Created by potrace 1.16, written by Peter Selinger 2001-2019
</metadata>
<g transform="translate(0.000000,37.000000) scale(0.100000,-0.100000)"
fill="#000000" stroke="none">
<path d="M277 364 l-7 -7 0 -42 0 -41 -11 -11 -11 -11 -13 4 -12 5 4 22 3 22
-9 14 -10 15 -65 4 -66 4 0 -40 0 -40 -6 -16 -6 -16 -34 0 -34 0 0 -45 0 -45
24 0 24 0 6 -31 6 -31 0 -20 0 -19 14 -15 15 -14 72 0 72 0 -6 35 -6 35 10 6
10 6 7 -6 6 -7 1 -37 0 -37 67 1 68 1 6 6 7 6 -11 53 -10 52 4 11 5 11 28 -4
29 -4 21 11 21 12 0 24 0 24 -21 6 -20 7 -25 -6 -24 -6 0 69 0 69 -37 7 -38 6
-20 5 -21 5 -7 -7z"/>
</g>
</svg>
