<?xml version="1.0" standalone="no"?>
<!DOCTYPE svg PUBLIC "-//W3C//DTD SVG 20010904//EN"
 "http://www.w3.org/TR/2001/REC-SVG-20010904/DTD/svg10.dtd">
<svg version="1.0" xmlns="http://www.w3.org/2000/svg"
 width="47.000000pt" height="35.000000pt" viewBox="0 0 47.000000 35.000000"
 preserveAspectRatio="xMidYMid meet">
<metadata>
Created by potrace 1.16, written by Peter Selinger 2001-2019
</metadata>
<g transform="translate(0.000000,35.000000) scale(0.100000,-0.100000)"
fill="#000000" stroke="none">
<path d="M279 346 l-2 -1 -2 -44 -3 -44 -15 -14 -15 -15 -22 7 -22 7 6 22 5
21 -8 14 -9 14 -56 5 -56 4 0 -45 0 -46 -14 -14 -15 -14 -25 4 -26 5 0 -36 0
-36 24 0 24 0 8 -42 8 -43 1 -10 0 -10 12 -12 12 -13 60 0 60 0 -2 37 -2 38
22 3 22 3 6 -23 5 -23 -3 -20 -2 -20 58 1 58 1 5 5 5 5 -11 48 -11 47 7 20 6
19 28 -6 29 -6 20 11 21 11 0 13 0 14 -15 6 -15 5 -30 -6 -30 -5 0 69 0 70
-12 1 -13 1 -37 9 -38 10 -1 -2z"/>
</g>
</svg>
