<?xml version="1.0" standalone="no"?>
<!DOCTYPE svg PUBLIC "-//W3C//DTD SVG 20010904//EN"
 "http://www.w3.org/TR/2001/REC-SVG-20010904/DTD/svg10.dtd">
<svg version="1.0" xmlns="http://www.w3.org/2000/svg"
 width="43.000000pt" height="35.000000pt" viewBox="0 0 43.000000 35.000000"
 preserveAspectRatio="xMidYMid meet">
<metadata>
Created by potrace 1.16, written by Peter Selinger 2001-2019
</metadata>
<g transform="translate(0.000000,35.000000) scale(0.100000,-0.100000)"
fill="#000000" stroke="none">
<path d="M230 311 l0 -39 -19 -23 -19 -24 -28 11 -29 10 3 32 3 32 -27 10 -28
11 -30 -3 -31 -3 -3 -57 -3 -57 23 -6 23 -5 20 3 20 2 3 -22 3 -23 -23 -9 -24
-9 -26 5 -25 5 -6 -16 -7 -17 11 -48 10 -49 67 2 67 1 0 35 0 35 20 3 20 2 15
-10 15 -9 0 -38 0 -38 30 2 30 1 26 4 27 3 7 69 6 68 27 -5 26 -5 13 5 13 5 0
28 0 28 -15 12 -15 12 -36 -4 -36 -4 6 48 7 49 -35 14 -35 15 -21 0 -20 0 0
-39z"/>
</g>
</svg>
