<?xml version="1.0" standalone="no"?>
<!DOCTYPE svg PUBLIC "-//W3C//DTD SVG 20010904//EN"
 "http://www.w3.org/TR/2001/REC-SVG-20010904/DTD/svg10.dtd">
<svg version="1.0" xmlns="http://www.w3.org/2000/svg"
 width="45.000000pt" height="37.000000pt" viewBox="0 0 45.000000 37.000000"
 preserveAspectRatio="xMidYMid meet">
<metadata>
Created by potrace 1.16, written by Peter Selinger 2001-2019
</metadata>
<g transform="translate(0.000000,37.000000) scale(0.100000,-0.100000)"
fill="#000000" stroke="none">
<path d="M230 331 l0 -39 -18 -22 -17 -21 -18 6 -17 7 0 34 0 34 -27 11 -27
10 -40 -3 -41 -3 -3 -64 -3 -64 13 -8 13 -9 33 0 34 0 -4 -12 -5 -13 -46 -3
-46 -3 -6 -20 -6 -19 11 -55 12 -56 76 3 77 3 1 34 0 35 10 3 9 3 15 -10 14
-9 -2 -35 -3 -34 11 -7 11 -7 58 7 59 7 6 69 7 70 20 -6 19 -6 20 6 20 6 0 38
0 37 -12 12 -12 12 -38 0 -38 0 7 45 6 45 -36 15 -36 15 -31 0 -30 0 0 -39z"/>
</g>
</svg>
