<?xml version="1.0" standalone="no"?>
<!DOCTYPE svg PUBLIC "-//W3C//DTD SVG 20010904//EN"
 "http://www.w3.org/TR/2001/REC-SVG-20010904/DTD/svg10.dtd">
<svg version="1.0" xmlns="http://www.w3.org/2000/svg"
 width="40.000000pt" height="40.000000pt" viewBox="0 0 40.000000 40.000000"
 preserveAspectRatio="xMidYMid meet">
<metadata>
Created by potrace 1.16, written by Peter Selinger 2001-2019
</metadata>
<g transform="translate(0.000000,40.000000) scale(0.100000,-0.100000)"
fill="#000000" stroke="none">
<path d="M276 373 l6 -30 -17 -16 -16 -17 -20 0 -19 0 0 34 0 34 -16 6 -16 6
-39 0 -40 0 -3 -12 -4 -13 -8 -40 -9 -40 -35 0 -35 0 -3 -27 -3 -27 11 -22 12
-21 28 6 28 5 6 -15 6 -16 0 -41 0 -42 46 0 45 -1 8 -13 9 -13 -6 -20 -5 -20
14 -9 14 -9 26 0 26 0 17 19 18 19 -4 29 -3 28 40 1 40 2 11 1 11 1 -11 58
-12 57 -34 0 -35 0 -3 23 -3 22 35 0 35 0 15 16 16 15 0 44 0 44 -9 5 -8 6
-57 6 -56 7 6 -30z"/>
</g>
</svg>
