<?xml version="1.0" standalone="no"?>
<!DOCTYPE svg PUBLIC "-//W3C//DTD SVG 20010904//EN"
 "http://www.w3.org/TR/2001/REC-SVG-20010904/DTD/svg10.dtd">
<svg version="1.0" xmlns="http://www.w3.org/2000/svg"
 width="41.000000pt" height="41.000000pt" viewBox="0 0 41.000000 41.000000"
 preserveAspectRatio="xMidYMid meet">
<metadata>
Created by potrace 1.16, written by Peter Selinger 2001-2019
</metadata>
<g transform="translate(0.000000,41.000000) scale(0.100000,-0.100000)"
fill="#000000" stroke="none">
<path d="M117 403 l-7 -6 0 -39 0 -39 -56 6 -55 7 3 -63 3 -64 28 0 28 0 9
-15 10 -15 0 -13 0 -12 -29 -6 -29 -6 -6 -37 -6 -36 0 -32 0 -33 53 0 52 0 11
8 12 7 -2 40 -1 40 20 0 20 0 3 -43 3 -42 75 0 74 0 0 60 0 60 28 0 27 0 13 9
13 8 -3 34 -3 34 -35 3 -35 4 -7 11 -8 12 0 39 0 38 -22 -5 -23 -5 -32 -7 -33
-7 0 44 0 44 -12 12 -12 12 -31 0 -32 0 -6 -7z"/>
</g>
</svg>
