<?xml version="1.0" standalone="no"?>
<!DOCTYPE svg PUBLIC "-//W3C//DTD SVG 20010904//EN"
 "http://www.w3.org/TR/2001/REC-SVG-20010904/DTD/svg10.dtd">
<svg version="1.0" xmlns="http://www.w3.org/2000/svg"
 width="39.000000pt" height="39.000000pt" viewBox="0 0 39.000000 39.000000"
 preserveAspectRatio="xMidYMid meet">
<metadata>
Created by potrace 1.16, written by Peter Selinger 2001-2019
</metadata>
<g transform="translate(0.000000,39.000000) scale(0.100000,-0.100000)"
fill="#000000" stroke="none">
<path d="M114 375 l-6 -15 4 -31 5 -32 -59 7 -59 6 3 -53 3 -52 27 3 27 3 10
-20 11 -20 0 -21 0 -20 -29 -6 -29 -6 -6 -37 -6 -36 0 -22 0 -23 39 0 39 0 16
6 16 6 -10 18 -10 19 10 25 10 26 24 0 25 0 7 -12 8 -12 -2 -33 -3 -33 65 0
64 0 -1 13 0 12 1 48 2 47 28 0 27 0 13 9 14 8 -4 24 -3 24 -35 3 -35 4 -7 11
-8 12 0 39 0 38 -17 -7 -18 -7 -37 -5 -38 -6 0 45 0 44 -12 12 -12 12 -23 0
-24 0 -5 -15z"/>
</g>
</svg>
