<?xml version="1.0" standalone="no"?>
<!DOCTYPE svg PUBLIC "-//W3C//DTD SVG 20010904//EN"
 "http://www.w3.org/TR/2001/REC-SVG-20010904/DTD/svg10.dtd">
<svg version="1.0" xmlns="http://www.w3.org/2000/svg"
 width="50.000000pt" height="43.000000pt" viewBox="0 0 50.000000 43.000000"
 preserveAspectRatio="xMidYMid meet">
<metadata>
Created by potrace 1.16, written by Peter Selinger 2001-2019
</metadata>
<g transform="translate(0.000000,43.000000) scale(0.100000,-0.100000)"
fill="#000000" stroke="none">
<path d="M217 424 l-7 -7 0 -44 0 -43 -55 0 -56 0 -3 -12 -4 -13 -11 -43 -12
-42 -23 6 -22 5 -13 -15 -12 -15 3 -38 3 -38 21 -3 20 -3 18 -59 18 -60 57 6
56 5 23 5 23 5 -3 32 -3 32 22 3 22 3 3 -28 3 -28 63 -13 63 -14 6 6 6 6 5 50
5 50 21 0 22 0 12 12 12 12 0 42 0 42 -14 11 -14 12 -26 -7 -26 -6 0 40 0 41
-12 8 -13 8 -50 5 -50 5 -5 40 -5 40 -30 3 -31 3 -7 -7z"/>
</g>
</svg>
