<?xml version="1.0" standalone="no"?>
<!DOCTYPE svg PUBLIC "-//W3C//DTD SVG 20010904//EN"
 "http://www.w3.org/TR/2001/REC-SVG-20010904/DTD/svg10.dtd">
<svg version="1.0" xmlns="http://www.w3.org/2000/svg"
 width="48.000000pt" height="41.000000pt" viewBox="0 0 48.000000 41.000000"
 preserveAspectRatio="xMidYMid meet">
<metadata>
Created by potrace 1.16, written by Peter Selinger 2001-2019
</metadata>
<g transform="translate(0.000000,41.000000) scale(0.100000,-0.100000)"
fill="#000000" stroke="none">
<path d="M214 395 l-6 -16 5 -34 6 -35 -60 0 -60 0 -3 -12 -4 -13 -12 -44 -11
-43 -25 5 -24 4 -11 -13 -10 -13 3 -28 3 -28 19 0 19 0 20 -61 19 -61 46 4 47
4 21 5 22 4 -2 32 -1 33 35 0 35 0 0 -25 0 -24 55 -13 54 -12 4 4 4 4 7 53 6
53 18 -3 18 -3 15 12 14 11 0 34 0 33 -12 8 -13 7 -27 -3 -28 -3 0 41 0 40
-19 11 -20 10 -40 0 -40 0 -7 12 -8 12 0 31 -1 30 -23 3 -22 3 -6 -16z"/>
</g>
</svg>
