<?xml version="1.0" standalone="no"?>
<!DOCTYPE svg PUBLIC "-//W3C//DTD SVG 20010904//EN"
 "http://www.w3.org/TR/2001/REC-SVG-20010904/DTD/svg10.dtd">
<svg version="1.0" xmlns="http://www.w3.org/2000/svg"
 width="44.000000pt" height="50.000000pt" viewBox="0 0 44.000000 50.000000"
 preserveAspectRatio="xMidYMid meet">
<metadata>
Created by potrace 1.16, written by Peter Selinger 2001-2019
</metadata>
<g transform="translate(0.000000,50.000000) scale(0.100000,-0.100000)"
fill="#000000" stroke="none">
<path d="M139 479 l-11 -21 4 -29 5 -29 -69 0 -68 0 0 -65 0 -65 45 0 45 0 0
-14 0 -15 -22 -3 -23 -3 -22 -65 -21 -65 -1 -14 -1 -14 55 7 55 6 0 -25 0 -25
21 -21 20 -20 42 3 42 3 3 21 3 20 49 13 48 12 18 65 17 64 19 0 19 0 15 14
14 15 0 20 0 20 -10 27 -10 27 -40 -6 -40 -5 0 45 0 45 -62 -7 -63 -7 0 40 -1
40 -13 16 -13 16 -19 0 -18 0 -12 -21z"/>
</g>
</svg>
