<?xml version="1.0" standalone="no"?>
<!DOCTYPE svg PUBLIC "-//W3C//DTD SVG 20010904//EN"
 "http://www.w3.org/TR/2001/REC-SVG-20010904/DTD/svg10.dtd">
<svg version="1.0" xmlns="http://www.w3.org/2000/svg"
 width="41.000000pt" height="49.000000pt" viewBox="0 0 41.000000 49.000000"
 preserveAspectRatio="xMidYMid meet">
<metadata>
Created by potrace 1.16, written by Peter Selinger 2001-2019
</metadata>
<g transform="translate(0.000000,49.000000) scale(0.100000,-0.100000)"
fill="#000000" stroke="none">
<path d="M205 480 l-6 -10 3 -38 3 -37 -62 -3 -62 -3 -3 -47 -3 -47 -29 3 -29
4 -8 -14 -9 -13 0 -22 0 -22 19 -11 20 -10 14 6 14 5 7 -56 6 -56 -5 -10 -6
-9 58 0 58 0 0 -42 0 -43 34 -3 34 -3 8 13 9 13 -5 12 -4 12 51 16 52 15 12 0
12 0 12 50 12 50 -5 15 -6 14 -48 3 -48 3 0 35 0 35 35 0 35 0 13 12 13 13 -6
33 -7 33 -6 11 -7 11 -55 14 -55 13 -1 20 -2 20 -1 13 -1 12 -24 0 -25 0 -6
-10z"/>
</g>
</svg>
