<?xml version="1.0" standalone="no"?>
<!DOCTYPE svg PUBLIC "-//W3C//DTD SVG 20010904//EN"
 "http://www.w3.org/TR/2001/REC-SVG-20010904/DTD/svg10.dtd">
<svg version="1.0" xmlns="http://www.w3.org/2000/svg"
 width="43.000000pt" height="51.000000pt" viewBox="0 0 43.000000 51.000000"
 preserveAspectRatio="xMidYMid meet">
<metadata>
Created by potrace 1.16, written by Peter Selinger 2001-2019
</metadata>
<g transform="translate(0.000000,51.000000) scale(0.100000,-0.100000)"
fill="#000000" stroke="none">
<path d="M207 503 l-7 -6 0 -44 0 -43 -60 0 -60 0 0 -45 0 -45 -35 0 -35 0 -6
-24 -6 -24 4 -23 3 -24 33 -10 32 -9 2 -31 2 -30 -2 -27 -2 -28 54 0 55 0 3
-42 3 -43 46 -3 47 -3 10 30 10 29 56 13 55 12 12 51 11 52 -3 19 -4 20 -50 5
-50 5 0 25 0 25 34 -2 34 -1 14 13 13 14 0 18 0 18 -10 36 -10 37 -58 14 -57
13 3 14 3 13 -6 19 -6 19 -33 0 -33 0 -6 -7z"/>
</g>
</svg>
