<?xml version="1.0" standalone="no"?>
<!DOCTYPE svg PUBLIC "-//W3C//DTD SVG 20010904//EN"
 "http://www.w3.org/TR/2001/REC-SVG-20010904/DTD/svg10.dtd">
<svg version="1.0" xmlns="http://www.w3.org/2000/svg"
 width="44.000000pt" height="43.000000pt" viewBox="0 0 44.000000 43.000000"
 preserveAspectRatio="xMidYMid meet">
<metadata>
Created by potrace 1.16, written by Peter Selinger 2001-2019
</metadata>
<g transform="translate(0.000000,43.000000) scale(0.100000,-0.100000)"
fill="#000000" stroke="none">
<path d="M220 410 l-12 -22 6 -15 6 -16 -11 -13 -11 -14 -56 0 -55 0 5 -45 6
-45 -22 -5 -21 -4 -25 -3 -25 -3 0 -45 0 -45 50 -5 50 -5 -1 -20 -1 -20 -8
-38 -7 -38 73 3 74 3 1 39 0 40 14 4 13 5 -7 -37 -7 -36 15 -16 16 -15 69 7
68 6 12 54 12 54 -6 20 -7 21 -37 -2 -37 -3 -12 8 -12 7 0 15 0 14 34 0 35 0
5 9 6 9 6 46 7 46 -17 19 -18 19 -48 12 -49 12 -3 26 -3 27 -27 3 -27 3 -11
-21z"/>
</g>
</svg>
