<?xml version="1.0" standalone="no"?>
<!DOCTYPE svg PUBLIC "-//W3C//DTD SVG 20010904//EN"
 "http://www.w3.org/TR/2001/REC-SVG-20010904/DTD/svg10.dtd">
<svg version="1.0" xmlns="http://www.w3.org/2000/svg"
 width="42.000000pt" height="41.000000pt" viewBox="0 0 42.000000 41.000000"
 preserveAspectRatio="xMidYMid meet">
<metadata>
Created by potrace 1.16, written by Peter Selinger 2001-2019
</metadata>
<g transform="translate(0.000000,41.000000) scale(0.100000,-0.100000)"
fill="#000000" stroke="none">
<path d="M222 394 l-9 -17 4 -18 5 -19 -12 -15 -12 -15 -56 0 -55 0 7 -41 6
-40 -12 -12 -13 -12 -35 0 -35 0 0 -35 0 -35 50 -5 50 -5 0 -30 -1 -30 -7 -28
-8 -28 63 3 63 3 0 37 0 37 12 12 11 11 12 -7 12 -8 -5 -36 -4 -36 13 -12 13
-13 59 6 59 7 11 48 12 49 -7 16 -6 16 -29 -6 -30 -6 -19 10 -19 11 0 24 0 24
38 3 37 3 9 43 9 42 -17 19 -18 19 -48 12 -49 12 -3 26 -3 27 -17 3 -16 3 -10
-17z"/>
</g>
</svg>
