<?xml version="1.0" standalone="no"?>
<!DOCTYPE svg PUBLIC "-//W3C//DTD SVG 20010904//EN"
 "http://www.w3.org/TR/2001/REC-SVG-20010904/DTD/svg10.dtd">
<svg version="1.0" xmlns="http://www.w3.org/2000/svg"
 width="45.000000pt" height="51.000000pt" viewBox="0 0 45.000000 51.000000"
 preserveAspectRatio="xMidYMid meet">
<metadata>
Created by potrace 1.16, written by Peter Selinger 2001-2019
</metadata>
<g transform="translate(0.000000,51.000000) scale(0.100000,-0.100000)"
fill="#000000" stroke="none">
<path d="M140 496 l-12 -15 3 -23 3 -23 -7 -12 -8 -13 -39 0 -38 0 -16 -6 -16
-6 0 -60 0 -60 28 3 27 3 23 -8 23 -8 -4 -11 -4 -12 -44 -3 -44 -3 -9 -9 -8
-8 7 -67 7 -67 56 4 57 3 3 -34 3 -34 14 -13 14 -14 25 0 25 0 11 19 10 20 0
25 0 26 65 0 65 0 0 39 0 39 6 16 6 16 23 0 24 0 15 16 16 15 0 33 0 32 -12
12 -12 12 -32 0 -32 0 -6 16 -6 16 0 29 0 30 -60 -7 -60 -7 0 34 0 35 -16 22
-15 22 -23 0 -24 0 -12 -14z"/>
</g>
</svg>
