<?xml version="1.0" standalone="no"?>
<!DOCTYPE svg PUBLIC "-//W3C//DTD SVG 20010904//EN"
 "http://www.w3.org/TR/2001/REC-SVG-20010904/DTD/svg10.dtd">
<svg version="1.0" xmlns="http://www.w3.org/2000/svg"
 width="40.000000pt" height="47.000000pt" viewBox="0 0 40.000000 47.000000"
 preserveAspectRatio="xMidYMid meet">
<metadata>
Created by potrace 1.16, written by Peter Selinger 2001-2019
</metadata>
<g transform="translate(0.000000,47.000000) scale(0.100000,-0.100000)"
fill="#000000" stroke="none">
<path d="M131 456 l-12 -14 3 -29 3 -28 -64 -3 -63 -3 5 -40 5 -41 7 -6 6 -6
27 -1 27 0 3 -29 4 -29 -13 -23 -12 -23 -21 2 -21 2 -5 -52 -5 -52 45 -3 45
-3 -3 -29 -3 -29 13 -8 13 -9 26 0 26 0 17 19 18 19 -4 24 -3 23 60 -2 60 -2
-3 54 -4 54 31 -1 30 -1 16 13 16 13 -3 36 -3 36 -42 3 -43 3 -2 22 -1 22 -1
25 -1 25 -55 3 -55 3 -14 5 -13 4 5 22 6 22 -11 13 -10 13 -8 0 -8 0 -11 -14z"/>
</g>
</svg>
