<?xml version="1.0" standalone="no"?>
<!DOCTYPE svg PUBLIC "-//W3C//DTD SVG 20010904//EN"
 "http://www.w3.org/TR/2001/REC-SVG-20010904/DTD/svg10.dtd">
<svg version="1.0" xmlns="http://www.w3.org/2000/svg"
 width="42.000000pt" height="49.000000pt" viewBox="0 0 42.000000 49.000000"
 preserveAspectRatio="xMidYMid meet">
<metadata>
Created by potrace 1.16, written by Peter Selinger 2001-2019
</metadata>
<g transform="translate(0.000000,49.000000) scale(0.100000,-0.100000)"
fill="#000000" stroke="none">
<path d="M132 478 l-12 -12 0 -33 0 -33 -61 0 -62 0 5 -51 5 -51 14 -9 14 -9
23 0 22 0 0 -23 0 -23 -12 -12 -12 -12 -18 0 -19 0 -3 -12 -4 -13 -6 -52 -5
-53 44 0 45 0 0 -34 0 -34 16 -6 16 -6 32 0 33 0 16 18 17 19 0 27 0 27 59 -7
60 -6 -6 53 -5 54 31 1 30 1 16 13 16 13 -3 46 -3 46 -42 3 -43 3 -1 22 -1 22
-1 25 -2 25 -65 5 -65 5 3 23 3 23 -11 15 -12 14 -17 0 -17 0 -12 -12z"/>
</g>
</svg>
