<?xml version="1.0" standalone="no"?>
<!DOCTYPE svg PUBLIC "-//W3C//DTD SVG 20010904//EN"
 "http://www.w3.org/TR/2001/REC-SVG-20010904/DTD/svg10.dtd">
<svg version="1.0" xmlns="http://www.w3.org/2000/svg"
 width="49.000000pt" height="40.000000pt" viewBox="0 0 49.000000 40.000000"
 preserveAspectRatio="xMidYMid meet">
<metadata>
Created by potrace 1.16, written by Peter Selinger 2001-2019
</metadata>
<g transform="translate(0.000000,40.000000) scale(0.100000,-0.100000)"
fill="#000000" stroke="none">
<path d="M217 394 l-7 -7 0 -28 0 -28 -21 -12 -21 -11 -39 4 -38 3 -3 -50 -3
-50 -30 0 -30 -1 -13 -7 -12 -8 0 -28 0 -29 15 -12 15 -12 41 4 41 4 -5 -36
-5 -35 -7 -25 -6 -25 58 5 58 5 -1 43 -1 42 28 0 28 0 8 -12 7 -13 1 -30 0
-30 60 0 60 0 -3 53 -3 52 33 0 33 1 18 13 18 14 -3 29 -3 28 -28 -3 -29 -3
-14 12 -14 11 0 46 0 45 -46 -7 -46 -6 -23 6 -24 6 2 41 2 42 -20 3 -21 3 -7
-7z"/>
</g>
</svg>
