<?xml version="1.0" standalone="no"?>
<!DOCTYPE svg PUBLIC "-//W3C//DTD SVG 20010904//EN"
 "http://www.w3.org/TR/2001/REC-SVG-20010904/DTD/svg10.dtd">
<svg version="1.0" xmlns="http://www.w3.org/2000/svg"
 width="47.000000pt" height="47.000000pt" viewBox="0 0 47.000000 47.000000"
 preserveAspectRatio="xMidYMid meet">
<metadata>
Created by potrace 1.16, written by Peter Selinger 2001-2019
</metadata>
<g transform="translate(0.000000,47.000000) scale(0.100000,-0.100000)"
fill="#000000" stroke="none">
<path d="M217 437 l5 -33 -16 -13 -16 -13 -52 -7 -53 -6 -5 -45 -5 -45 -35 0
-35 0 -3 -31 -3 -31 30 -12 30 -13 20 7 21 6 0 -26 0 -26 -15 -36 -15 -35 0
-5 0 -4 60 7 60 7 -6 -17 -6 -16 16 -25 16 -25 33 0 32 0 12 18 11 19 46 13
45 12 14 62 14 61 16 -3 17 -3 10 27 11 27 -5 14 -5 13 -25 0 -25 0 -11 19
-10 20 0 40 0 40 -29 -10 -29 -10 -34 3 -33 3 3 32 3 32 -11 21 -11 20 -19 0
-19 0 6 -33z"/>
</g>
</svg>
