<?xml version="1.0" standalone="no"?>
<!DOCTYPE svg PUBLIC "-//W3C//DTD SVG 20010904//EN"
 "http://www.w3.org/TR/2001/REC-SVG-20010904/DTD/svg10.dtd">
<svg version="1.0" xmlns="http://www.w3.org/2000/svg"
 width="42.000000pt" height="41.000000pt" viewBox="0 0 42.000000 41.000000"
 preserveAspectRatio="xMidYMid meet">
<metadata>
Created by potrace 1.16, written by Peter Selinger 2001-2019
</metadata>
<g transform="translate(0.000000,41.000000) scale(0.100000,-0.100000)"
fill="#000000" stroke="none">
<path d="M162 397 l-11 -13 6 -24 6 -23 -18 -13 -19 -14 -48 0 -48 0 0 -49 0
-50 20 -6 20 -6 19 6 20 6 11 -21 12 -22 -18 -20 -19 -20 -42 7 -43 6 -6 -15
-6 -16 17 -52 16 -53 67 3 68 3 -4 33 -4 32 16 13 15 13 18 -11 18 -10 0 -38
0 -38 22 -3 21 -3 41 11 40 10 3 48 3 47 21 -2 21 -2 12 23 13 23 -4 29 -3 29
-27 0 -27 1 -6 6 -7 6 -5 41 -6 41 -60 0 -59 0 5 29 6 28 -15 22 -15 21 -13 0
-14 0 -10 -13z"/>
</g>
</svg>
