<?xml version="1.0" standalone="no"?>
<!DOCTYPE svg PUBLIC "-//W3C//DTD SVG 20010904//EN"
 "http://www.w3.org/TR/2001/REC-SVG-20010904/DTD/svg10.dtd">
<svg version="1.0" xmlns="http://www.w3.org/2000/svg"
 width="44.000000pt" height="33.000000pt" viewBox="0 0 44.000000 33.000000"
 preserveAspectRatio="xMidYMid meet">
<metadata>
Created by potrace 1.16, written by Peter Selinger 2001-2019
</metadata>
<g transform="translate(0.000000,33.000000) scale(0.100000,-0.100000)"
fill="#000000" stroke="none">
<path d="M43 323 l-23 -4 0 -60 0 -59 28 2 28 2 12 -8 12 -7 0 -16 0 -16 -17
-13 -18 -13 -32 -1 -33 0 0 -21 0 -20 11 -46 12 -45 59 4 60 4 9 15 9 14 0 33
0 32 14 0 15 0 8 -13 8 -12 0 -30 0 -30 54 -7 54 -6 14 5 15 6 -6 21 -5 21 -7
27 -6 28 30 -6 30 -6 23 12 24 13 7 11 8 11 0 26 0 26 -18 16 -19 17 -31 0
-32 0 0 46 0 46 -47 -7 -48 -6 -22 -6 -23 -5 0 -29 0 -29 -19 0 -20 0 -8 13
-7 12 2 22 3 21 -8 5 -8 4 -35 5 -35 5 -22 -4z"/>
</g>
</svg>
