<?xml version="1.0" standalone="no"?>
<!DOCTYPE svg PUBLIC "-//W3C//DTD SVG 20010904//EN"
 "http://www.w3.org/TR/2001/REC-SVG-20010904/DTD/svg10.dtd">
<svg version="1.0" xmlns="http://www.w3.org/2000/svg"
 width="42.000000pt" height="31.000000pt" viewBox="0 0 42.000000 31.000000"
 preserveAspectRatio="xMidYMid meet">
<metadata>
Created by potrace 1.16, written by Peter Selinger 2001-2019
</metadata>
<g transform="translate(0.000000,31.000000) scale(0.100000,-0.100000)"
fill="#000000" stroke="none">
<path d="M43 302 l-23 -3 0 -50 0 -50 20 6 19 6 21 -11 20 -11 0 -26 0 -26
-17 -13 -18 -13 -32 -1 -33 0 0 -11 0 -10 11 -46 12 -45 50 5 49 4 9 14 10 14
-5 32 -5 33 28 0 29 0 11 -14 12 -14 -3 -29 -3 -28 48 -5 47 -6 0 9 0 8 12 -7
11 -7 -8 19 -8 19 -5 34 -5 34 32 -6 31 -7 25 12 25 11 6 24 6 24 -18 20 -19
21 -32 -4 -33 -4 0 49 0 49 -30 -6 -30 -6 -30 -6 -30 -6 0 -29 0 -29 -29 0
-29 0 -11 14 -11 13 2 23 3 24 -30 6 -30 5 -22 -3z"/>
</g>
</svg>
