<?xml version="1.0" standalone="no"?>
<!DOCTYPE svg PUBLIC "-//W3C//DTD SVG 20010904//EN"
 "http://www.w3.org/TR/2001/REC-SVG-20010904/DTD/svg10.dtd">
<svg version="1.0" xmlns="http://www.w3.org/2000/svg"
 width="39.000000pt" height="40.000000pt" viewBox="0 0 39.000000 40.000000"
 preserveAspectRatio="xMidYMid meet">
<metadata>
Created by potrace 1.16, written by Peter Selinger 2001-2019
</metadata>
<g transform="translate(0.000000,40.000000) scale(0.100000,-0.100000)"
fill="#000000" stroke="none">
<path d="M100 348 l0 -53 -9 -14 -9 -14 -36 7 -36 7 -6 -16 -7 -17 17 -16 16
-16 47 -6 48 -5 -1 -25 -1 -25 -8 -27 -7 -28 45 0 46 0 3 -47 3 -48 20 -3 20
-2 15 10 15 9 0 52 0 51 47 -5 47 -6 5 7 4 7 -11 48 -10 47 -24 0 -23 0 0 36
0 36 26 -5 25 -4 15 14 14 14 0 45 0 44 -50 0 -49 0 5 -30 6 -30 -12 -15 -12
-15 -23 0 -23 0 -12 15 -12 15 6 24 6 24 -16 6 -16 6 -44 0 -44 0 0 -52z"/>
</g>
</svg>
