<?xml version="1.0" standalone="no"?>
<!DOCTYPE svg PUBLIC "-//W3C//DTD SVG 20010904//EN"
 "http://www.w3.org/TR/2001/REC-SVG-20010904/DTD/svg10.dtd">
<svg version="1.0" xmlns="http://www.w3.org/2000/svg"
 width="41.000000pt" height="42.000000pt" viewBox="0 0 41.000000 42.000000"
 preserveAspectRatio="xMidYMid meet">
<metadata>
Created by potrace 1.16, written by Peter Selinger 2001-2019
</metadata>
<g transform="translate(0.000000,42.000000) scale(0.100000,-0.100000)"
fill="#000000" stroke="none">
<path d="M100 368 l0 -53 -8 -11 -7 -12 -40 2 -40 1 -3 -26 -3 -26 17 -14 16
-13 47 -6 46 -5 -3 -20 -2 -20 -6 -33 -7 -32 46 0 46 0 3 -48 3 -47 30 -3 30
-2 14 9 14 9 5 52 5 52 26 -6 26 -6 23 -6 22 -6 0 20 0 20 -12 51 -11 51 -24
0 -23 0 0 25 0 25 24 -6 23 -5 17 16 16 16 0 55 0 54 -61 0 -61 0 6 -34 6 -33
-16 -14 -16 -13 -16 11 -17 11 3 27 3 28 -13 8 -13 9 -57 0 -58 0 0 -52z"/>
</g>
</svg>
