<?xml version="1.0" standalone="no"?>
<!DOCTYPE svg PUBLIC "-//W3C//DTD SVG 20010904//EN"
 "http://www.w3.org/TR/2001/REC-SVG-20010904/DTD/svg10.dtd">
<svg version="1.0" xmlns="http://www.w3.org/2000/svg"
 width="34.000000pt" height="34.000000pt" viewBox="0 0 34.000000 34.000000"
 preserveAspectRatio="xMidYMid meet">
<metadata>
Created by potrace 1.16, written by Peter Selinger 2001-2019
</metadata>
<g transform="translate(0.000000,34.000000) scale(0.100000,-0.100000)"
fill="#000000" stroke="none">
<path d="M4 318 l6 -23 0 -48 0 -48 35 7 35 6 15 -12 15 -12 -11 -19 -10 -19
-28 0 -29 0 -6 -16 -6 -16 0 -54 0 -55 63 3 62 3 3 38 3 38 22 -3 22 -3 3 -43
3 -42 44 0 44 0 26 10 27 10 -7 23 -6 22 -13 45 -12 44 -25 6 -24 6 0 14 0 15
27 -3 26 -3 16 23 16 22 0 53 0 53 -32 0 -33 0 -37 -6 -38 -7 0 -33 0 -33 -21
-6 -21 -7 -9 13 -9 14 0 33 0 32 -71 0 -71 0 6 -22z"/>
</g>
</svg>
