<?xml version="1.0" standalone="no"?>
<!DOCTYPE svg PUBLIC "-//W3C//DTD SVG 20010904//EN"
 "http://www.w3.org/TR/2001/REC-SVG-20010904/DTD/svg10.dtd">
<svg version="1.0" xmlns="http://www.w3.org/2000/svg"
 width="48.000000pt" height="40.000000pt" viewBox="0 0 48.000000 40.000000"
 preserveAspectRatio="xMidYMid meet">
<metadata>
Created by potrace 1.16, written by Peter Selinger 2001-2019
</metadata>
<g transform="translate(0.000000,40.000000) scale(0.100000,-0.100000)"
fill="#000000" stroke="none">
<path d="M90 357 l0 -43 -14 -20 -14 -19 -29 0 -28 0 0 -25 0 -24 24 -6 25 -6
12 -46 11 -46 7 -10 6 -10 44 -6 44 -7 10 -12 10 -12 4 -30 3 -30 22 -3 22 -3
16 25 17 26 -4 36 -4 36 35 -5 36 -4 16 -7 16 -7 -1 68 -1 68 41 -3 40 -3 13
14 12 15 -17 16 -16 17 -34 -7 -34 -6 0 57 0 56 -17 -5 -18 -5 -38 -7 -38 -6
7 -20 6 -19 -12 -14 -12 -15 -22 0 -22 0 -11 11 -11 11 5 33 5 32 -23 6 -24 7
-32 0 -33 0 0 -43z"/>
</g>
</svg>
