<?xml version="1.0" standalone="no"?>
<!DOCTYPE svg PUBLIC "-//W3C//DTD SVG 20010904//EN"
 "http://www.w3.org/TR/2001/REC-SVG-20010904/DTD/svg10.dtd">
<svg version="1.0" xmlns="http://www.w3.org/2000/svg"
 width="50.000000pt" height="42.000000pt" viewBox="0 0 50.000000 42.000000"
 preserveAspectRatio="xMidYMid meet">
<metadata>
Created by potrace 1.16, written by Peter Selinger 2001-2019
</metadata>
<g transform="translate(0.000000,42.000000) scale(0.100000,-0.100000)"
fill="#000000" stroke="none">
<path d="M90 377 l0 -43 -12 -16 -13 -17 -30 -3 -30 -3 0 -35 0 -34 25 -6 25
-6 14 -60 14 -61 43 0 43 0 15 -12 15 -12 3 -32 3 -32 32 -3 31 -3 16 23 16
22 0 39 0 39 25 -6 25 -6 25 -6 26 -6 -7 66 -7 66 45 0 46 0 12 15 12 14 -7
20 -6 21 -24 6 -24 6 -20 -7 -21 -6 0 55 0 56 -8 0 -9 0 -57 -12 -58 -11 5
-23 4 -24 -13 -11 -14 -11 -15 6 -15 5 0 40 0 39 -22 6 -23 6 -42 0 -43 0 0
-43z"/>
</g>
</svg>
