<?xml version="1.0" standalone="no"?>
<!DOCTYPE svg PUBLIC "-//W3C//DTD SVG 20010904//EN"
 "http://www.w3.org/TR/2001/REC-SVG-20010904/DTD/svg10.dtd">
<svg version="1.0" xmlns="http://www.w3.org/2000/svg"
 width="30.000000pt" height="40.000000pt" viewBox="0 0 30.000000 40.000000"
 preserveAspectRatio="xMidYMid meet">
<metadata>
Created by potrace 1.16, written by Peter Selinger 2001-2019
</metadata>
<g transform="translate(0.000000,40.000000) scale(0.100000,-0.100000)"
fill="#000000" stroke="none">
<path d="M0 366 l0 -35 10 -25 10 -26 30 0 30 0 0 -17 -1 -18 -12 -16 -12 -16
-12 4 -12 4 -8 -48 -8 -48 0 -10 0 -10 40 -5 40 -5 0 -38 0 -38 15 -9 15 -10
21 0 20 0 12 12 12 12 0 48 0 48 18 0 17 -1 38 -13 37 -14 0 43 0 43 -6 16 -6
15 -28 -5 -28 -6 -12 21 -11 22 3 27 3 27 33 -3 32 -3 10 26 10 26 0 30 0 29
-51 0 -51 0 5 -29 6 -29 -18 -16 -18 -16 -20 0 -20 0 -16 18 -17 19 0 26 0 27
-50 0 -50 0 0 -34z"/>
</g>
</svg>
