<?xml version="1.0" standalone="no"?>
<!DOCTYPE svg PUBLIC "-//W3C//DTD SVG 20010904//EN"
 "http://www.w3.org/TR/2001/REC-SVG-20010904/DTD/svg10.dtd">
<svg version="1.0" xmlns="http://www.w3.org/2000/svg"
 width="39.000000pt" height="31.000000pt" viewBox="0 0 39.000000 31.000000"
 preserveAspectRatio="xMidYMid meet">
<metadata>
Created by potrace 1.16, written by Peter Selinger 2001-2019
</metadata>
<g transform="translate(0.000000,31.000000) scale(0.100000,-0.100000)"
fill="#000000" stroke="none">
<path d="M100 261 l0 -50 -16 -15 -15 -16 -35 0 -35 0 3 -22 3 -23 35 0 34 0
8 -35 8 -35 1 -31 2 -30 43 -3 43 -2 20 12 19 13 -5 31 -5 32 18 7 17 7 11
-11 11 -11 0 -37 0 -37 63 -3 62 -3 0 43 0 43 -8 13 -9 13 -16 -7 -17 -6 -15
12 -15 12 0 34 0 34 23 5 23 6 15 -3 14 -3 3 53 3 53 -53 -3 -53 -3 3 -26 3
-26 -15 -12 -16 -13 -36 6 -35 7 6 31 7 30 -13 9 -14 9 -37 0 -38 0 0 -49z"/>
</g>
</svg>
