<?xml version="1.0" standalone="no"?>
<!DOCTYPE svg PUBLIC "-//W3C//DTD SVG 20010904//EN"
 "http://www.w3.org/TR/2001/REC-SVG-20010904/DTD/svg10.dtd">
<svg version="1.0" xmlns="http://www.w3.org/2000/svg"
 width="39.000000pt" height="32.000000pt" viewBox="0 0 39.000000 32.000000"
 preserveAspectRatio="xMidYMid meet">
<metadata>
Created by potrace 1.16, written by Peter Selinger 2001-2019
</metadata>
<g transform="translate(0.000000,32.000000) scale(0.100000,-0.100000)"
fill="#000000" stroke="none">
<path d="M210 289 l0 -32 -17 -13 -18 -13 -20 -1 -21 0 -23 16 -23 16 6 24 6
24 -44 0 -43 0 -7 -37 -6 -38 0 -15 0 -16 35 4 35 4 15 -12 15 -12 0 -28 0
-28 -13 -5 -13 -5 -26 5 -25 5 -7 -56 -7 -56 6 -10 6 -10 24 0 24 0 26 10 26
10 -3 33 -3 32 30 0 30 0 -3 -32 -2 -33 22 -4 23 -5 47 -3 48 -3 -2 10 -1 10
8 40 8 40 9 18 9 18 22 -3 22 -3 3 29 4 29 -29 -6 -28 -5 -17 9 -18 10 0 53 0
54 -16 6 -16 6 -29 0 -29 0 0 -31z"/>
</g>
</svg>
