<?xml version="1.0" standalone="no"?>
<!DOCTYPE svg PUBLIC "-//W3C//DTD SVG 20010904//EN"
 "http://www.w3.org/TR/2001/REC-SVG-20010904/DTD/svg10.dtd">
<svg version="1.0" xmlns="http://www.w3.org/2000/svg"
 width="50.000000pt" height="34.000000pt" viewBox="0 0 50.000000 34.000000"
 preserveAspectRatio="xMidYMid meet">
<metadata>
Created by potrace 1.16, written by Peter Selinger 2001-2019
</metadata>
<g transform="translate(0.000000,34.000000) scale(0.100000,-0.100000)"
fill="#000000" stroke="none">
<path d="M295 331 l-7 -12 6 -23 6 -24 -15 -12 -16 -13 -24 11 -25 12 0 30 0
30 -60 0 -59 0 -3 -62 -3 -63 -45 0 -45 0 -3 -27 -3 -27 21 -11 22 -12 35 7
35 6 -7 -70 -7 -71 48 0 49 0 24 7 23 6 -5 33 -6 34 10 6 10 6 6 -6 6 -6 -1
-40 -2 -40 71 0 70 0 13 13 13 13 7 36 7 37 27 3 27 3 0 60 0 60 -37 3 -38 3
0 44 0 44 -10 6 -10 6 -48 6 -49 5 -8 -11z"/>
</g>
</svg>
