<?xml version="1.0" standalone="no"?>
<!DOCTYPE svg PUBLIC "-//W3C//DTD SVG 20010904//EN"
 "http://www.w3.org/TR/2001/REC-SVG-20010904/DTD/svg10.dtd">
<svg version="1.0" xmlns="http://www.w3.org/2000/svg"
 width="48.000000pt" height="32.000000pt" viewBox="0 0 48.000000 32.000000"
 preserveAspectRatio="xMidYMid meet">
<metadata>
Created by potrace 1.16, written by Peter Selinger 2001-2019
</metadata>
<g transform="translate(0.000000,32.000000) scale(0.100000,-0.100000)"
fill="#000000" stroke="none">
<path d="M299 314 l-2 -9 -1 -29 -1 -29 -17 -10 -17 -11 -28 10 -28 9 -3 33
-3 32 -49 0 -49 0 -3 -62 -3 -63 -44 0 -44 0 -5 -14 -5 -14 18 -13 18 -14 40
7 40 6 -6 -71 -7 -72 37 0 38 0 23 6 22 6 -6 32 -6 32 17 14 16 13 12 -12 12
-12 -1 -39 -1 -40 59 0 59 0 14 13 13 13 7 41 7 42 26 -2 27 -2 0 50 0 50 -37
-1 -38 -1 0 48 0 48 -8 5 -9 5 -41 7 -42 7 -1 -9z"/>
</g>
</svg>
