<?xml version="1.0" standalone="no"?>
<!DOCTYPE svg PUBLIC "-//W3C//DTD SVG 20010904//EN"
 "http://www.w3.org/TR/2001/REC-SVG-20010904/DTD/svg10.dtd">
<svg version="1.0" xmlns="http://www.w3.org/2000/svg"
 width="39.000000pt" height="34.000000pt" viewBox="0 0 39.000000 34.000000"
 preserveAspectRatio="xMidYMid meet">
<metadata>
Created by potrace 1.16, written by Peter Selinger 2001-2019
</metadata>
<g transform="translate(0.000000,34.000000) scale(0.100000,-0.100000)"
fill="#000000" stroke="none">
<path d="M279 333 l-1 -8 1 -17 2 -17 -11 -21 -11 -21 -32 3 -32 3 2 38 2 37
-59 0 -59 0 -3 -52 -3 -53 -27 0 -28 -1 -11 -11 -11 -11 4 -23 3 -24 49 -3 49
-3 -7 -65 -7 -64 24 0 24 0 32 11 31 11 0 34 0 35 16 6 15 6 11 -11 11 -11 2
-45 1 -45 6 -7 7 -6 43 8 43 8 10 1 10 0 7 15 7 15 0 57 1 57 -35 -1 -36 -1
-11 11 -11 11 6 15 6 16 35 0 34 0 6 24 6 24 -6 32 -7 32 -24 9 -24 9 -25 0
-24 0 -1 -7z"/>
</g>
</svg>
