<?xml version="1.0" standalone="no"?>
<!DOCTYPE svg PUBLIC "-//W3C//DTD SVG 20010904//EN"
 "http://www.w3.org/TR/2001/REC-SVG-20010904/DTD/svg10.dtd">
<svg version="1.0" xmlns="http://www.w3.org/2000/svg"
 width="36.000000pt" height="42.000000pt" viewBox="0 0 36.000000 42.000000"
 preserveAspectRatio="xMidYMid meet">
<metadata>
Created by potrace 1.16, written by Peter Selinger 2001-2019
</metadata>
<g transform="translate(0.000000,42.000000) scale(0.100000,-0.100000)"
fill="#000000" stroke="none">
<path d="M7 413 l-7 -6 0 -158 0 -158 50 6 50 6 0 -40 0 -39 12 -12 12 -12 26
0 26 0 19 14 18 13 1 39 2 39 60 -3 61 -4 12 45 13 45 -4 18 -3 19 -46 5 -47
6 -16 13 -16 14 5 6 6 5 36 -3 36 -3 8 14 9 13 0 63 0 62 -14 0 -14 0 -28 -15
-29 -15 -17 0 -16 0 -16 -6 -16 -6 0 -19 0 -19 -15 0 -15 0 -19 12 -18 11 5
20 5 19 -14 9 -14 9 -41 0 -41 0 -6 -7z"/>
</g>
</svg>
