<?xml version="1.0" standalone="no"?>
<!DOCTYPE svg PUBLIC "-//W3C//DTD SVG 20010904//EN"
 "http://www.w3.org/TR/2001/REC-SVG-20010904/DTD/svg10.dtd">
<svg version="1.0" xmlns="http://www.w3.org/2000/svg"
 width="34.000000pt" height="40.000000pt" viewBox="0 0 34.000000 40.000000"
 preserveAspectRatio="xMidYMid meet">
<metadata>
Created by potrace 1.16, written by Peter Selinger 2001-2019
</metadata>
<g transform="translate(0.000000,40.000000) scale(0.100000,-0.100000)"
fill="#000000" stroke="none">
<path d="M7 393 l-7 -6 0 -146 0 -146 52 0 53 0 -3 -33 -4 -33 12 -15 12 -14
17 0 17 0 18 13 18 13 1 40 2 39 61 -3 61 -4 13 45 12 45 -7 11 -6 11 -38 0
-39 0 -23 18 -22 19 6 17 7 17 36 -7 36 -7 9 14 9 14 0 53 0 52 -4 0 -4 0 -28
-15 -29 -15 -20 0 -20 0 -13 -9 -13 -8 3 -14 3 -14 -24 -3 -24 -4 -24 13 -24
13 5 22 6 22 -16 6 -16 6 -27 0 -28 0 -6 -7z"/>
</g>
</svg>
