<?xml version="1.0" standalone="no"?>
<!DOCTYPE svg PUBLIC "-//W3C//DTD SVG 20010904//EN"
 "http://www.w3.org/TR/2001/REC-SVG-20010904/DTD/svg10.dtd">
<svg version="1.0" xmlns="http://www.w3.org/2000/svg"
 width="33.000000pt" height="40.000000pt" viewBox="0 0 33.000000 40.000000"
 preserveAspectRatio="xMidYMid meet">
<metadata>
Created by potrace 1.16, written by Peter Selinger 2001-2019
</metadata>
<g transform="translate(0.000000,40.000000) scale(0.100000,-0.100000)"
fill="#000000" stroke="none">
<path d="M155 394 l-11 -4 4 -34 4 -34 -14 -8 -13 -9 -55 -5 -55 -5 -3 -29 -4
-28 7 -25 6 -25 30 6 30 6 5 -15 6 -15 -6 -26 -7 -26 -24 4 -24 5 -9 -6 -9 -6
-5 -57 -5 -58 53 0 52 0 16 6 16 6 0 35 0 34 28 -3 27 -3 5 -35 5 -35 60 0 60
0 3 64 3 64 -35 -6 -35 -6 -11 14 -12 14 4 18 3 18 32 -3 32 -3 10 20 11 20 0
35 0 35 -12 8 -13 8 -50 5 -50 5 0 30 0 30 -8 13 -8 12 -12 -1 -12 -1 -10 -4z"/>
</g>
</svg>
