<?xml version="1.0" standalone="no"?>
<!DOCTYPE svg PUBLIC "-//W3C//DTD SVG 20010904//EN"
 "http://www.w3.org/TR/2001/REC-SVG-20010904/DTD/svg10.dtd">
<svg version="1.0" xmlns="http://www.w3.org/2000/svg"
 width="40.000000pt" height="48.000000pt" viewBox="0 0 40.000000 48.000000"
 preserveAspectRatio="xMidYMid meet">
<metadata>
Created by potrace 1.16, written by Peter Selinger 2001-2019
</metadata>
<g transform="translate(0.000000,48.000000) scale(0.100000,-0.100000)"
fill="#000000" stroke="none">
<path d="M207 473 l-7 -6 0 -35 0 -34 -62 4 -63 4 3 -59 4 -59 -21 7 -20 6
-21 -11 -20 -11 0 -23 0 -24 26 -17 26 -17 25 7 26 6 -7 -33 -6 -33 -6 -25 -5
-25 56 3 57 4 -2 -29 -2 -28 1 -17 1 -18 25 -6 25 -6 26 16 25 17 -6 19 -6 19
28 6 28 6 25 12 25 13 9 58 9 58 -14 9 -14 9 -27 0 -27 0 -6 10 -6 10 6 20 6
20 32 -3 32 -2 3 45 3 44 -17 13 -18 13 -54 0 -53 0 1 23 2 22 -1 13 -1 12
-18 0 -19 0 -6 -7z"/>
</g>
</svg>
