<?xml version="1.0" standalone="no"?>
<!DOCTYPE svg PUBLIC "-//W3C//DTD SVG 20010904//EN"
 "http://www.w3.org/TR/2001/REC-SVG-20010904/DTD/svg10.dtd">
<svg version="1.0" xmlns="http://www.w3.org/2000/svg"
 width="42.000000pt" height="50.000000pt" viewBox="0 0 42.000000 50.000000"
 preserveAspectRatio="xMidYMid meet">
<metadata>
Created by potrace 1.16, written by Peter Selinger 2001-2019
</metadata>
<g transform="translate(0.000000,50.000000) scale(0.100000,-0.100000)"
fill="#000000" stroke="none">
<path d="M207 493 l-7 -6 0 -35 0 -35 -64 6 -64 6 5 -54 6 -55 -22 0 -22 0
-20 -10 -19 -11 0 -33 0 -34 25 -16 24 -16 27 0 26 0 -7 -17 -7 -18 -5 -37 -5
-37 55 6 55 6 -2 -42 -1 -42 15 -9 15 -10 25 0 26 0 21 15 22 15 3 22 3 22 34
7 33 7 14 14 14 14 6 63 7 63 -14 9 -14 9 -27 0 -27 0 -5 8 -5 8 7 9 7 10 30
0 30 0 3 55 3 54 -17 13 -18 13 -54 0 -54 0 6 16 6 17 -5 18 -6 19 -28 0 -28
0 -6 -7z"/>
</g>
</svg>
