<?xml version="1.0" standalone="no"?>
<!DOCTYPE svg PUBLIC "-//W3C//DTD SVG 20010904//EN"
 "http://www.w3.org/TR/2001/REC-SVG-20010904/DTD/svg10.dtd">
<svg version="1.0" xmlns="http://www.w3.org/2000/svg"
 width="50.000000pt" height="47.000000pt" viewBox="0 0 50.000000 47.000000"
 preserveAspectRatio="xMidYMid meet">
<metadata>
Created by potrace 1.16, written by Peter Selinger 2001-2019
</metadata>
<g transform="translate(0.000000,47.000000) scale(0.100000,-0.100000)"
fill="#000000" stroke="none">
<path d="M226 446 l6 -24 -23 -16 -23 -16 -45 0 -44 0 6 -33 5 -34 -7 -12 -8
-12 -16 7 -17 6 -24 -6 -25 -6 -6 -20 -6 -20 6 -31 7 -31 23 6 24 6 18 -57 18
-58 50 0 50 0 3 -30 4 -30 15 -17 16 -18 24 0 24 0 20 11 20 10 -6 29 -6 28
47 8 48 9 20 65 21 65 20 0 20 0 8 12 7 11 -6 16 -6 16 -17 2 -16 1 -27 -2
-28 -2 0 60 0 60 -17 5 -18 5 -37 7 -37 6 -12 14 -11 13 7 11 6 10 -31 0 -30
0 6 -24z"/>
</g>
</svg>
