<?xml version="1.0" standalone="no"?>
<!DOCTYPE svg PUBLIC "-//W3C//DTD SVG 20010904//EN"
 "http://www.w3.org/TR/2001/REC-SVG-20010904/DTD/svg10.dtd">
<svg version="1.0" xmlns="http://www.w3.org/2000/svg"
 width="32.000000pt" height="40.000000pt" viewBox="0 0 32.000000 40.000000"
 preserveAspectRatio="xMidYMid meet">
<metadata>
Created by potrace 1.16, written by Peter Selinger 2001-2019
</metadata>
<g transform="translate(0.000000,40.000000) scale(0.100000,-0.100000)"
fill="#000000" stroke="none">
<path d="M126 385 l-16 -16 6 -25 6 -24 -56 0 -56 0 0 -34 0 -34 6 -15 5 -14
26 5 25 5 9 -14 9 -14 0 -22 0 -22 -20 -11 -21 -11 -18 6 -19 6 -4 -13 -5 -13
6 -50 6 -50 55 0 55 0 2 35 1 35 1 13 1 12 20 0 19 0 11 -20 11 -20 -3 -35 -2
-34 7 -7 6 -6 57 7 56 7 -7 45 -7 46 -9 24 -9 23 -20 0 -20 0 0 35 0 35 34 0
34 0 6 23 6 22 0 26 0 27 -16 6 -16 6 -31 0 -32 0 -11 8 -12 7 -3 25 -4 25
-26 3 -26 3 -17 -16z"/>
</g>
</svg>
