<?xml version="1.0" standalone="no"?>
<!DOCTYPE svg PUBLIC "-//W3C//DTD SVG 20010904//EN"
 "http://www.w3.org/TR/2001/REC-SVG-20010904/DTD/svg10.dtd">
<svg version="1.0" xmlns="http://www.w3.org/2000/svg"
 width="34.000000pt" height="42.000000pt" viewBox="0 0 34.000000 42.000000"
 preserveAspectRatio="xMidYMid meet">
<metadata>
Created by potrace 1.16, written by Peter Selinger 2001-2019
</metadata>
<g transform="translate(0.000000,42.000000) scale(0.100000,-0.100000)"
fill="#000000" stroke="none">
<path d="M125 404 l-17 -17 5 -24 4 -23 -53 0 -54 0 0 -47 0 -48 9 -13 8 -13
26 6 25 7 7 -23 7 -22 -16 -12 -16 -12 -24 4 -24 5 -6 -19 -5 -18 7 -55 7 -55
65 0 65 0 3 48 3 47 9 0 9 0 11 -21 12 -21 -6 -23 -6 -23 6 -16 6 -16 32 0 31
0 39 7 38 6 -6 53 -6 53 -10 25 -10 26 -20 0 -20 0 0 25 0 25 34 0 34 0 6 23
6 22 0 36 0 37 -16 6 -16 6 -31 0 -32 0 -11 8 -12 7 -3 25 -4 25 -36 3 -37 3
-17 -17z"/>
</g>
</svg>
