<?xml version="1.0" standalone="no"?>
<!DOCTYPE svg PUBLIC "-//W3C//DTD SVG 20010904//EN"
 "http://www.w3.org/TR/2001/REC-SVG-20010904/DTD/svg10.dtd">
<svg version="1.0" xmlns="http://www.w3.org/2000/svg"
 width="40.000000pt" height="38.000000pt" viewBox="0 0 40.000000 38.000000"
 preserveAspectRatio="xMidYMid meet">
<metadata>
Created by potrace 1.16, written by Peter Selinger 2001-2019
</metadata>
<g transform="translate(0.000000,38.000000) scale(0.100000,-0.100000)"
fill="#000000" stroke="none">
<path d="M204 356 l6 -25 -17 -16 -16 -17 -49 4 -49 3 3 -45 3 -45 -28 3 -29
3 -14 -12 -14 -11 0 -38 0 -38 15 -12 15 -12 20 5 20 5 6 -24 6 -24 -4 -30 -5
-30 47 0 46 0 19 14 18 13 -6 37 -6 36 35 0 34 0 0 -32 0 -33 8 -12 7 -11 50
-2 50 -2 13 1 13 1 -3 63 -3 62 -41 -3 -40 -3 -13 15 -12 15 11 20 11 21 17 1
17 1 28 -2 27 -2 0 54 0 54 -56 18 -56 18 -5 19 -5 19 -40 0 -40 0 6 -24z"/>
</g>
</svg>
