<?xml version="1.0" standalone="no"?>
<!DOCTYPE svg PUBLIC "-//W3C//DTD SVG 20010904//EN"
 "http://www.w3.org/TR/2001/REC-SVG-20010904/DTD/svg10.dtd">
<svg version="1.0" xmlns="http://www.w3.org/2000/svg"
 width="44.000000pt" height="43.000000pt" viewBox="0 0 44.000000 43.000000"
 preserveAspectRatio="xMidYMid meet">
<metadata>
Created by potrace 1.16, written by Peter Selinger 2001-2019
</metadata>
<g transform="translate(0.000000,43.000000) scale(0.100000,-0.100000)"
fill="#000000" stroke="none">
<path d="M237 424 l-7 -7 6 -24 6 -24 -17 -19 -18 -20 -34 0 -34 0 3 32 3 32
-35 8 -36 9 -28 -10 -27 -11 3 -52 3 -53 38 3 37 4 0 -21 0 -20 -20 -11 -21
-11 -18 6 -18 5 -12 -13 -11 -14 9 -49 9 -49 -4 -7 -5 -8 51 0 51 0 21 -11 20
-11 -6 -34 -7 -33 25 -7 24 -6 21 12 21 11 0 39 0 40 13 1 12 1 47 -2 46 -1
-5 20 -5 21 6 35 7 35 33 0 33 0 13 24 13 25 -6 15 -6 16 -45 0 -45 0 -6 34
-7 34 6 20 7 20 -41 16 -40 16 -9 0 -8 0 -6 -6z"/>
</g>
</svg>
