<?xml version="1.0" standalone="no"?>
<!DOCTYPE svg PUBLIC "-//W3C//DTD SVG 20010904//EN"
 "http://www.w3.org/TR/2001/REC-SVG-20010904/DTD/svg10.dtd">
<svg version="1.0" xmlns="http://www.w3.org/2000/svg"
 width="46.000000pt" height="45.000000pt" viewBox="0 0 46.000000 45.000000"
 preserveAspectRatio="xMidYMid meet">
<metadata>
Created by potrace 1.16, written by Peter Selinger 2001-2019
</metadata>
<g transform="translate(0.000000,45.000000) scale(0.100000,-0.100000)"
fill="#000000" stroke="none">
<path d="M234 435 l-6 -15 6 -16 6 -17 -16 -18 -17 -19 -23 0 -22 0 2 33 1 32
-45 8 -45 9 -28 -11 -28 -11 3 -62 3 -63 38 2 37 2 0 -9 0 -9 -12 -7 -12 -8
-27 2 -26 2 -12 -13 -11 -14 7 -66 6 -67 49 0 49 0 19 -10 19 -10 -6 -35 -5
-34 27 -7 28 -7 26 9 26 9 3 43 3 42 61 0 60 0 -6 26 -7 27 6 28 7 29 32 0 33
0 12 24 13 23 -4 24 -3 24 -47 3 -46 3 -6 24 -6 23 6 30 6 29 -41 17 -41 16
-21 0 -20 0 -5 -15z"/>
</g>
</svg>
