<?xml version="1.0" standalone="no"?>
<!DOCTYPE svg PUBLIC "-//W3C//DTD SVG 20010904//EN"
 "http://www.w3.org/TR/2001/REC-SVG-20010904/DTD/svg10.dtd">
<svg version="1.0" xmlns="http://www.w3.org/2000/svg"
 width="38.000000pt" height="47.000000pt" viewBox="0 0 38.000000 47.000000"
 preserveAspectRatio="xMidYMid meet">
<metadata>
Created by potrace 1.16, written by Peter Selinger 2001-2019
</metadata>
<g transform="translate(0.000000,47.000000) scale(0.100000,-0.100000)"
fill="#000000" stroke="none">
<path d="M205 460 l-6 -10 2 -23 3 -22 -7 -12 -8 -13 -54 0 -54 0 -3 -47 -3
-48 -25 -3 -25 -4 -12 -10 -13 -10 0 -29 0 -29 19 0 19 0 7 -32 7 -33 14 -27
15 -28 43 0 44 0 10 -13 11 -13 -5 -22 -6 -21 26 -7 26 -6 16 13 16 13 -5 32
-6 33 12 4 12 4 53 -5 52 -5 -5 29 -4 29 -6 39 -6 38 -25 -5 -24 -4 -11 13
-11 13 7 21 6 20 34 0 35 0 6 24 6 24 -4 28 -3 28 -45 9 -45 8 -23 5 -24 5 6
23 6 24 -16 6 -16 6 -3 0 -4 0 -6 -10z"/>
</g>
</svg>
