<?xml version="1.0" standalone="no"?>
<!DOCTYPE svg PUBLIC "-//W3C//DTD SVG 20010904//EN"
 "http://www.w3.org/TR/2001/REC-SVG-20010904/DTD/svg10.dtd">
<svg version="1.0" xmlns="http://www.w3.org/2000/svg"
 width="40.000000pt" height="49.000000pt" viewBox="0 0 40.000000 49.000000"
 preserveAspectRatio="xMidYMid meet">
<metadata>
Created by potrace 1.16, written by Peter Selinger 2001-2019
</metadata>
<g transform="translate(0.000000,49.000000) scale(0.100000,-0.100000)"
fill="#000000" stroke="none">
<path d="M205 478 l-4 -13 -3 -30 -3 -30 -57 -3 -57 -3 -3 -47 -3 -47 -25 -3
-25 -4 -12 -10 -13 -10 0 -39 0 -39 18 0 19 0 18 -64 18 -64 51 2 51 1 3 -30
4 -30 11 -7 12 -8 26 0 27 0 10 13 10 12 4 35 3 34 58 -3 58 -3 -6 49 -6 48
-5 28 -6 27 -27 0 -28 0 -6 6 -6 6 6 14 5 14 34 0 34 0 6 23 5 24 -3 39 -3 38
-45 9 -45 8 -22 4 -21 5 5 21 6 21 -14 9 -14 9 -18 0 -18 0 -4 -12z"/>
</g>
</svg>
