<?xml version="1.0" standalone="no"?>
<!DOCTYPE svg PUBLIC "-//W3C//DTD SVG 20010904//EN"
 "http://www.w3.org/TR/2001/REC-SVG-20010904/DTD/svg10.dtd">
<svg version="1.0" xmlns="http://www.w3.org/2000/svg"
 width="38.000000pt" height="41.000000pt" viewBox="0 0 38.000000 41.000000"
 preserveAspectRatio="xMidYMid meet">
<metadata>
Created by potrace 1.16, written by Peter Selinger 2001-2019
</metadata>
<g transform="translate(0.000000,41.000000) scale(0.100000,-0.100000)"
fill="#000000" stroke="none">
<path d="M134 403 l-11 -4 4 -22 5 -23 -15 -12 -15 -13 -51 -6 -51 -6 0 -33 0
-33 16 -16 16 -16 20 6 19 7 14 -12 15 -12 0 -24 0 -23 -16 -16 -17 -16 -23 5
-23 6 -5 -32 -6 -33 -2 -25 -3 -25 59 -3 59 -3 -5 25 -5 26 11 16 12 15 17 -7
17 -6 1 -17 1 -16 -2 -27 -2 -28 33 0 32 0 36 11 37 11 -7 52 -6 51 5 13 4 13
19 -6 18 -6 21 11 20 11 0 22 0 22 -9 14 -9 14 -25 -5 -26 -5 -5 14 -6 15 0
33 0 34 -65 -6 -65 -6 0 45 0 46 -12 4 -13 5 -11 -4z"/>
</g>
</svg>
