<?xml version="1.0" standalone="no"?>
<!DOCTYPE svg PUBLIC "-//W3C//DTD SVG 20010904//EN"
 "http://www.w3.org/TR/2001/REC-SVG-20010904/DTD/svg10.dtd">
<svg version="1.0" xmlns="http://www.w3.org/2000/svg"
 width="40.000000pt" height="43.000000pt" viewBox="0 0 40.000000 43.000000"
 preserveAspectRatio="xMidYMid meet">
<metadata>
Created by potrace 1.16, written by Peter Selinger 2001-2019
</metadata>
<g transform="translate(0.000000,43.000000) scale(0.100000,-0.100000)"
fill="#000000" stroke="none">
<path d="M131 421 l-13 -9 6 -19 6 -20 -14 -12 -14 -12 -51 -6 -51 -6 0 -43 0
-43 17 -16 16 -17 24 5 23 4 11 -13 11 -13 -7 -21 -6 -20 -12 -1 -12 -1 -22 2
-22 1 -6 -33 -5 -33 -3 -35 -2 -35 68 -3 67 -3 0 36 0 35 15 0 15 0 0 -45 0
-45 41 0 42 0 37 11 38 12 -5 58 -6 59 22 0 22 0 20 10 19 11 0 32 0 32 -8 12
-7 11 -30 4 -30 3 -3 43 -3 43 -65 -6 -64 -7 0 45 0 45 -16 6 -16 6 -6 0 -7 0
-14 -9z"/>
</g>
</svg>
