<?xml version="1.0" standalone="no"?>
<!DOCTYPE svg PUBLIC "-//W3C//DTD SVG 20010904//EN"
 "http://www.w3.org/TR/2001/REC-SVG-20010904/DTD/svg10.dtd">
<svg version="1.0" xmlns="http://www.w3.org/2000/svg"
 width="42.000000pt" height="43.000000pt" viewBox="0 0 42.000000 43.000000"
 preserveAspectRatio="xMidYMid meet">
<metadata>
Created by potrace 1.16, written by Peter Selinger 2001-2019
</metadata>
<g transform="translate(0.000000,43.000000) scale(0.100000,-0.100000)"
fill="#000000" stroke="none">
<path d="M230 415 l-12 -15 4 -31 5 -31 -68 4 -68 5 -3 -46 -3 -46 -37 -3 -38
-3 -6 -26 -7 -26 9 -26 9 -26 35 -5 35 -5 -1 -58 -1 -58 71 3 71 3 3 42 3 43
18 0 17 0 12 -12 12 -12 0 -43 0 -43 43 0 42 0 23 6 22 6 -2 162 -3 161 -57
-3 -57 -4 6 34 5 35 -17 16 -16 17 -18 0 -19 0 -12 -15z"/>
</g>
</svg>
