<?xml version="1.0" standalone="no"?>
<!DOCTYPE svg PUBLIC "-//W3C//DTD SVG 20010904//EN"
 "http://www.w3.org/TR/2001/REC-SVG-20010904/DTD/svg10.dtd">
<svg version="1.0" xmlns="http://www.w3.org/2000/svg"
 width="35.000000pt" height="40.000000pt" viewBox="0 0 35.000000 40.000000"
 preserveAspectRatio="xMidYMid meet">
<metadata>
Created by potrace 1.16, written by Peter Selinger 2001-2019
</metadata>
<g transform="translate(0.000000,40.000000) scale(0.100000,-0.100000)"
fill="#000000" stroke="none">
<path d="M153 393 l-13 -5 0 -29 0 -29 -25 -6 -26 -6 -38 6 -39 6 -6 -16 -6
-16 0 -59 0 -58 37 2 37 2 4 -17 3 -18 -24 0 -25 0 -12 -52 -11 -53 -6 -23 -5
-23 73 3 74 3 3 37 3 38 19 0 18 0 6 -24 6 -24 50 -11 51 -11 10 0 10 0 15 35
14 34 0 37 0 36 -27 -5 -27 -5 -23 11 -24 11 3 20 3 20 35 1 35 0 3 62 3 62
-61 22 -60 22 0 13 0 14 -22 -1 -23 -1 -12 -5z"/>
</g>
</svg>
