<?xml version="1.0" standalone="no"?>
<!DOCTYPE svg PUBLIC "-//W3C//DTD SVG 20010904//EN"
 "http://www.w3.org/TR/2001/REC-SVG-20010904/DTD/svg10.dtd">
<svg version="1.0" xmlns="http://www.w3.org/2000/svg"
 width="33.000000pt" height="40.000000pt" viewBox="0 0 33.000000 40.000000"
 preserveAspectRatio="xMidYMid meet">
<metadata>
Created by potrace 1.16, written by Peter Selinger 2001-2019
</metadata>
<g transform="translate(0.000000,40.000000) scale(0.100000,-0.100000)"
fill="#000000" stroke="none">
<path d="M20 378 l0 -23 -6 -37 -6 -37 43 -3 44 -3 3 -22 3 -23 -23 -9 -24 -9
-27 5 -27 5 0 -33 0 -34 11 -38 10 -37 49 0 49 0 -5 -13 -5 -14 11 -27 10 -27
47 3 48 3 9 21 9 21 41 9 41 9 3 74 3 74 -25 -5 -25 -5 -17 18 -16 18 6 16 5
15 33 -2 33 -3 3 63 3 63 -48 -7 -48 -7 -7 -4 -8 -4 0 -24 0 -25 -25 -6 -24
-6 -12 4 -13 4 0 40 -1 39 -62 3 -63 3 0 -23z"/>
</g>
</svg>
