<?xml version="1.0" standalone="no"?>
<!DOCTYPE svg PUBLIC "-//W3C//DTD SVG 20010904//EN"
 "http://www.w3.org/TR/2001/REC-SVG-20010904/DTD/svg10.dtd">
<svg version="1.0" xmlns="http://www.w3.org/2000/svg"
 width="50.000000pt" height="40.000000pt" viewBox="0 0 50.000000 40.000000"
 preserveAspectRatio="xMidYMid meet">
<metadata>
Created by potrace 1.16, written by Peter Selinger 2001-2019
</metadata>
<g transform="translate(0.000000,40.000000) scale(0.100000,-0.100000)"
fill="#000000" stroke="none">
<path d="M98 343 l-3 -58 -20 4 -20 4 -19 1 -18 1 -12 -18 -11 -17 11 -18 11
-17 22 -1 22 -1 5 -6 6 -5 9 -39 8 -38 -5 -17 -5 -18 38 0 38 0 23 -6 23 -7
-6 -27 -6 -28 16 -16 16 -16 23 0 24 0 13 16 13 15 0 35 1 34 10 1 10 1 40 2
40 1 3 25 2 25 5 30 5 31 34 -4 34 -4 11 20 11 21 -7 18 -7 18 -10 11 -11 10
-30 0 -30 -1 -3 49 -3 48 -31 -6 -30 -6 -24 0 -23 0 5 -29 6 -29 -22 -12 -22
-12 -34 7 -34 6 6 23 6 24 -23 16 -23 16 -28 0 -27 0 -3 -57z"/>
</g>
</svg>
