<?xml version="1.0" standalone="no"?>
<!DOCTYPE svg PUBLIC "-//W3C//DTD SVG 20010904//EN"
 "http://www.w3.org/TR/2001/REC-SVG-20010904/DTD/svg10.dtd">
<svg version="1.0" xmlns="http://www.w3.org/2000/svg"
 width="40.000000pt" height="34.000000pt" viewBox="0 0 40.000000 34.000000"
 preserveAspectRatio="xMidYMid meet">
<metadata>
Created by potrace 1.16, written by Peter Selinger 2001-2019
</metadata>
<g transform="translate(0.000000,34.000000) scale(0.100000,-0.100000)"
fill="#000000" stroke="none">
<path d="M2 283 l3 -58 20 -3 20 -3 23 -5 23 -5 -3 -27 -3 -27 -36 2 -37 2 -6
-22 -6 -22 0 -48 0 -48 16 -6 16 -6 46 9 47 9 9 30 10 30 3 4 3 4 15 -13 15
-13 -6 -19 -6 -19 12 -14 12 -15 64 2 64 2 0 5 -1 6 -13 50 -13 50 4 12 5 13
22 -6 22 -5 28 10 27 11 -3 32 -3 33 -30 1 -30 1 -12 2 -13 1 0 55 0 55 -47 0
-48 0 -22 -6 -22 -6 2 -37 2 -36 -20 0 -20 0 3 37 3 37 -20 10 -20 11 -51 0
-51 0 3 -57z"/>
</g>
</svg>
