<?xml version="1.0" standalone="no"?>
<!DOCTYPE svg PUBLIC "-//W3C//DTD SVG 20010904//EN"
 "http://www.w3.org/TR/2001/REC-SVG-20010904/DTD/svg10.dtd">
<svg version="1.0" xmlns="http://www.w3.org/2000/svg"
 width="39.000000pt" height="33.000000pt" viewBox="0 0 39.000000 33.000000"
 preserveAspectRatio="xMidYMid meet">
<metadata>
Created by potrace 1.16, written by Peter Selinger 2001-2019
</metadata>
<g transform="translate(0.000000,33.000000) scale(0.100000,-0.100000)"
fill="#000000" stroke="none">
<path d="M0 276 l0 -53 38 1 37 1 0 -50 0 -50 -26 2 -27 1 -6 -30 -6 -31 0
-23 0 -24 41 0 40 0 21 11 20 11 -6 29 -5 28 9 6 10 6 21 -6 21 -7 -4 -46 -3
-47 40 1 40 1 23 4 22 3 1 8 2 8 2 10 3 10 1 45 1 45 23 -5 23 -6 18 20 17 19
-3 29 -3 28 -29 -2 -30 -2 -13 11 -13 10 0 39 0 39 -7 -1 -8 -1 -50 -16 -50
-17 3 -16 2 -16 -14 -12 -15 -12 -28 3 -28 3 3 34 2 33 -11 14 -11 14 -44 0
-44 0 0 -54z"/>
</g>
</svg>
