<?xml version="1.0" standalone="no"?>
<!DOCTYPE svg PUBLIC "-//W3C//DTD SVG 20010904//EN"
 "http://www.w3.org/TR/2001/REC-SVG-20010904/DTD/svg10.dtd">
<svg version="1.0" xmlns="http://www.w3.org/2000/svg"
 width="41.000000pt" height="35.000000pt" viewBox="0 0 41.000000 35.000000"
 preserveAspectRatio="xMidYMid meet">
<metadata>
Created by potrace 1.16, written by Peter Selinger 2001-2019
</metadata>
<g transform="translate(0.000000,35.000000) scale(0.100000,-0.100000)"
fill="#000000" stroke="none">
<path d="M0 285 l0 -66 38 3 37 3 0 -40 0 -40 -26 3 -26 3 -7 -32 -6 -32 0
-33 0 -34 51 0 50 0 20 10 19 11 0 34 0 34 15 -6 16 -5 -3 -47 -3 -46 69 2 69
1 8 14 9 13 0 48 0 47 23 0 24 0 17 19 17 19 -3 39 -3 38 -30 1 -31 0 -12 8
-12 7 0 40 0 39 -17 -1 -18 -1 -50 -16 -49 -17 -6 -25 -6 -25 -24 0 -25 0 3
33 4 33 -12 15 -12 14 -54 0 -54 0 0 -65z"/>
</g>
</svg>
