<?xml version="1.0" standalone="no"?>
<!DOCTYPE svg PUBLIC "-//W3C//DTD SVG 20010904//EN"
 "http://www.w3.org/TR/2001/REC-SVG-20010904/DTD/svg10.dtd">
<svg version="1.0" xmlns="http://www.w3.org/2000/svg"
 width="33.000000pt" height="34.000000pt" viewBox="0 0 33.000000 34.000000"
 preserveAspectRatio="xMidYMid meet">
<metadata>
Created by potrace 1.16, written by Peter Selinger 2001-2019
</metadata>
<g transform="translate(0.000000,34.000000) scale(0.100000,-0.100000)"
fill="#000000" stroke="none">
<path d="M0 287 l0 -55 14 -12 15 -12 28 4 28 3 3 -18 4 -18 -16 -18 -17 -18
-24 5 -25 4 0 -33 0 -34 -6 -38 -7 -37 54 0 54 1 17 13 18 13 0 26 0 26 11 6
10 7 7 -7 7 -7 0 -41 0 -42 37 -3 37 -3 41 11 42 11 -7 22 -6 22 -12 45 -12
45 -30 0 -30 1 0 24 0 25 30 -3 30 -2 14 9 14 9 5 56 4 56 -35 0 -34 0 -31 -6
-31 -6 -3 -27 -3 -26 -35 0 -35 0 -5 35 -5 35 -57 3 -58 3 0 -54z"/>
</g>
</svg>
