<?xml version="1.0" standalone="no"?>
<!DOCTYPE svg PUBLIC "-//W3C//DTD SVG 20010904//EN"
 "http://www.w3.org/TR/2001/REC-SVG-20010904/DTD/svg10.dtd">
<svg version="1.0" xmlns="http://www.w3.org/2000/svg"
 width="41.000000pt" height="39.000000pt" viewBox="0 0 41.000000 39.000000"
 preserveAspectRatio="xMidYMid meet">
<metadata>
Created by potrace 1.16, written by Peter Selinger 2001-2019
</metadata>
<g transform="translate(0.000000,39.000000) scale(0.100000,-0.100000)"
fill="#000000" stroke="none">
<path d="M98 340 l-5 -50 -7 -8 -8 -7 -36 0 -37 0 0 -35 0 -35 30 0 30 0 12
-47 11 -47 7 -11 6 -10 37 0 37 0 12 -8 11 -7 -1 -35 -2 -35 40 0 40 0 0 25 0
25 10 7 9 7 47 6 46 7 12 37 11 38 0 22 0 21 -25 -6 -25 -6 -26 17 -25 16 3
27 3 27 27 -3 27 -3 10 20 11 20 0 35 0 36 -27 0 -28 0 -23 -6 -23 -6 7 -20 6
-19 -12 -14 -12 -15 -39 0 -39 0 -2 13 -1 12 -1 30 -1 30 -46 3 -46 3 -5 -51z"/>
</g>
</svg>
