<?xml version="1.0" standalone="no"?>
<!DOCTYPE svg PUBLIC "-//W3C//DTD SVG 20010904//EN"
 "http://www.w3.org/TR/2001/REC-SVG-20010904/DTD/svg10.dtd">
<svg version="1.0" xmlns="http://www.w3.org/2000/svg"
 width="39.000000pt" height="33.000000pt" viewBox="0 0 39.000000 33.000000"
 preserveAspectRatio="xMidYMid meet">
<metadata>
Created by potrace 1.16, written by Peter Selinger 2001-2019
</metadata>
<g transform="translate(0.000000,33.000000) scale(0.100000,-0.100000)"
fill="#000000" stroke="none">
<path d="M5 287 l-7 -44 4 -24 3 -24 35 -5 35 -5 0 -20 0 -20 -22 -3 -23 -3
-5 -25 -5 -24 -5 -26 -6 -26 6 -19 6 -19 48 0 49 0 12 14 12 15 -4 33 -3 33
18 3 17 3 1 -13 1 -13 -2 -33 -2 -32 59 0 58 0 23 -6 22 -6 0 19 0 19 16 47
16 47 14 0 14 0 0 45 0 45 -32 -2 -33 -3 -3 53 -3 54 -42 -7 -42 -6 -17 -5
-17 -5 -3 -22 -3 -22 -22 -3 -22 -3 -21 11 -21 11 6 30 7 29 -56 0 -55 0 -6
-43z"/>
</g>
</svg>
