<?xml version="1.0" standalone="no"?>
<!DOCTYPE svg PUBLIC "-//W3C//DTD SVG 20010904//EN"
 "http://www.w3.org/TR/2001/REC-SVG-20010904/DTD/svg10.dtd">
<svg version="1.0" xmlns="http://www.w3.org/2000/svg"
 width="39.000000pt" height="31.000000pt" viewBox="0 0 39.000000 31.000000"
 preserveAspectRatio="xMidYMid meet">
<metadata>
Created by potrace 1.16, written by Peter Selinger 2001-2019
</metadata>
<g transform="translate(0.000000,31.000000) scale(0.100000,-0.100000)"
fill="#000000" stroke="none">
<path d="M80 249 l0 -61 -35 4 -35 4 -6 -19 -6 -18 16 -24 16 -24 36 6 37 6
-6 -61 -7 -62 44 0 44 0 12 15 12 14 -6 19 -6 19 14 12 15 13 18 -4 18 -4 -3
-16 -3 -16 13 -9 13 -8 45 -12 45 -12 10 -1 10 0 -3 57 -4 58 -9 11 -9 11 -24
-4 -24 -5 -7 12 -7 11 6 25 7 25 34 -7 34 -6 7 27 7 28 -9 25 -9 26 -7 -2 -8
-2 -44 0 -45 0 -3 -32 -3 -33 -29 -3 -29 -4 -8 14 -9 13 0 28 0 27 -55 0 -55
0 0 -61z"/>
</g>
</svg>
