<?xml version="1.0" standalone="no"?>
<!DOCTYPE svg PUBLIC "-//W3C//DTD SVG 20010904//EN"
 "http://www.w3.org/TR/2001/REC-SVG-20010904/DTD/svg10.dtd">
<svg version="1.0" xmlns="http://www.w3.org/2000/svg"
 width="41.000000pt" height="33.000000pt" viewBox="0 0 41.000000 33.000000"
 preserveAspectRatio="xMidYMid meet">
<metadata>
Created by potrace 1.16, written by Peter Selinger 2001-2019
</metadata>
<g transform="translate(0.000000,33.000000) scale(0.100000,-0.100000)"
fill="#000000" stroke="none">
<path d="M80 269 l0 -61 -35 6 -34 7 -7 -27 -7 -28 15 -25 14 -26 38 2 38 3
-7 -60 -7 -60 55 0 55 0 10 13 10 12 4 29 3 29 13 5 12 4 0 -21 0 -20 13 -8
12 -8 45 -12 45 -12 21 -1 22 0 -5 68 -6 67 -10 13 -11 13 -22 -5 -23 -6 -5 9
-6 9 5 14 6 14 30 -4 31 -5 9 14 9 14 0 36 0 35 -12 16 -13 16 -57 -5 -57 -5
-3 -32 -3 -31 -19 -3 -19 -4 -8 14 -9 13 0 28 0 27 -65 0 -65 0 0 -61z"/>
</g>
</svg>
