<?xml version="1.0" standalone="no"?>
<!DOCTYPE svg PUBLIC "-//W3C//DTD SVG 20010904//EN"
 "http://www.w3.org/TR/2001/REC-SVG-20010904/DTD/svg10.dtd">
<svg version="1.0" xmlns="http://www.w3.org/2000/svg"
 width="48.000000pt" height="41.000000pt" viewBox="0 0 48.000000 41.000000"
 preserveAspectRatio="xMidYMid meet">
<metadata>
Created by potrace 1.16, written by Peter Selinger 2001-2019
</metadata>
<g transform="translate(0.000000,41.000000) scale(0.100000,-0.100000)"
fill="#000000" stroke="none">
<path d="M85 376 l7 -34 -7 -22 -7 -22 -34 6 -33 7 -7 -25 -6 -25 7 -11 7 -12
24 5 24 4 9 -11 10 -12 3 -54 3 -55 25 -3 25 -3 24 -5 23 -5 -5 -26 -5 -27 5
-14 6 -14 24 -9 24 -9 18 10 18 9 13 31 12 30 -4 25 -5 25 26 0 26 -1 25 -14
25 -14 10 62 10 62 26 -3 26 -3 12 15 12 15 -3 28 -3 28 -42 -2 -43 -2 -4 22
-4 22 1 30 2 30 -53 3 -54 3 7 -20 6 -20 -20 -20 -21 -21 -23 0 -23 0 -19 13
-18 14 5 26 5 27 -49 0 -49 0 6 -34z"/>
</g>
</svg>
