<?xml version="1.0" standalone="no"?>
<!DOCTYPE svg PUBLIC "-//W3C//DTD SVG 20010904//EN"
 "http://www.w3.org/TR/2001/REC-SVG-20010904/DTD/svg10.dtd">
<svg version="1.0" xmlns="http://www.w3.org/2000/svg"
 width="50.000000pt" height="43.000000pt" viewBox="0 0 50.000000 43.000000"
 preserveAspectRatio="xMidYMid meet">
<metadata>
Created by potrace 1.16, written by Peter Selinger 2001-2019
</metadata>
<g transform="translate(0.000000,43.000000) scale(0.100000,-0.100000)"
fill="#000000" stroke="none">
<path d="M84 391 l6 -39 -6 -15 -6 -15 -33 5 -34 5 -6 -25 -7 -25 4 -19 3 -18
35 -5 35 -5 5 -60 5 -60 25 -3 25 -3 23 -5 22 -4 -6 -24 -6 -24 11 -20 10 -20
27 -6 26 -7 19 6 19 6 15 29 15 29 0 31 0 30 13 0 12 -1 25 -14 25 -14 12 -1
11 0 7 60 7 60 28 0 28 0 11 14 12 15 -3 38 -3 38 -43 0 -42 0 -1 10 -1 10 -2
40 -1 40 -62 3 -63 3 0 -31 0 -30 -24 -11 -23 -11 -22 12 -22 11 6 30 7 29
-62 0 -63 0 7 -39z"/>
</g>
</svg>
