<?xml version="1.0" standalone="no"?>
<!DOCTYPE svg PUBLIC "-//W3C//DTD SVG 20010904//EN"
 "http://www.w3.org/TR/2001/REC-SVG-20010904/DTD/svg10.dtd">
<svg version="1.0" xmlns="http://www.w3.org/2000/svg"
 width="40.000000pt" height="39.000000pt" viewBox="0 0 40.000000 39.000000"
 preserveAspectRatio="xMidYMid meet">
<metadata>
Created by potrace 1.16, written by Peter Selinger 2001-2019
</metadata>
<g transform="translate(0.000000,39.000000) scale(0.100000,-0.100000)"
fill="#000000" stroke="none">
<path d="M6 351 l-6 -39 6 -16 6 -15 41 2 42 2 3 -28 3 -28 -12 -15 -13 -16
-23 5 -23 4 -4 -6 -4 -6 -7 -52 -7 -53 51 0 51 0 0 -46 0 -45 43 3 42 3 1 40
0 40 35 3 34 2 22 5 22 5 -10 32 -9 33 0 20 0 20 41 0 41 0 13 19 14 18 -8 21
-8 22 -41 3 -41 3 6 50 6 49 -7 0 -6 0 -18 -10 -17 -10 -43 -10 -43 -11 3 -17
3 -17 -45 0 -45 0 0 35 0 35 -41 3 -41 3 -7 -40z"/>
</g>
</svg>
