<?xml version="1.0" standalone="no"?>
<!DOCTYPE svg PUBLIC "-//W3C//DTD SVG 20010904//EN"
 "http://www.w3.org/TR/2001/REC-SVG-20010904/DTD/svg10.dtd">
<svg version="1.0" xmlns="http://www.w3.org/2000/svg"
 width="42.000000pt" height="41.000000pt" viewBox="0 0 42.000000 41.000000"
 preserveAspectRatio="xMidYMid meet">
<metadata>
Created by potrace 1.16, written by Peter Selinger 2001-2019
</metadata>
<g transform="translate(0.000000,41.000000) scale(0.100000,-0.100000)"
fill="#000000" stroke="none">
<path d="M6 365 l-7 -45 6 -21 7 -21 39 6 40 6 6 -16 6 -17 -10 -16 -10 -16
-29 0 -29 0 -7 -40 -7 -40 0 -27 -1 -28 50 0 50 0 0 -46 0 -45 53 3 52 3 3 43
3 42 42 0 42 0 13 9 14 8 -11 39 -11 39 0 8 0 7 24 0 25 0 24 9 25 10 6 19 7
19 -10 27 -11 26 -37 0 -38 0 3 50 4 50 -16 0 -16 0 -18 -10 -17 -10 -42 -10
-43 -11 0 -20 0 -20 -32 3 -32 3 -1 35 0 35 -51 3 -52 3 -6 -46z"/>
</g>
</svg>
