<?xml version="1.0" standalone="no"?>
<!DOCTYPE svg PUBLIC "-//W3C//DTD SVG 20010904//EN"
 "http://www.w3.org/TR/2001/REC-SVG-20010904/DTD/svg10.dtd">
<svg version="1.0" xmlns="http://www.w3.org/2000/svg"
 width="33.000000pt" height="40.000000pt" viewBox="0 0 33.000000 40.000000"
 preserveAspectRatio="xMidYMid meet">
<metadata>
Created by potrace 1.16, written by Peter Selinger 2001-2019
</metadata>
<g transform="translate(0.000000,40.000000) scale(0.100000,-0.100000)"
fill="#000000" stroke="none">
<path d="M0 334 l0 -66 34 6 33 6 12 -14 13 -15 -4 -18 -4 -18 -31 3 -31 3 -5
-8 -4 -8 -7 -63 -7 -62 43 0 43 0 11 -8 11 -7 -1 -30 -1 -30 43 -3 43 -3 16
12 15 13 -5 23 -4 23 19 6 20 6 32 -6 33 -6 7 65 7 66 -7 10 -6 11 -28 -5 -27
-6 -22 20 -21 20 5 10 6 9 34 0 33 0 6 16 6 16 0 50 0 50 -52 -7 -53 -6 -18
-5 -18 -6 7 -35 7 -35 -29 4 -29 3 -5 40 -5 40 -57 3 -58 3 0 -67z"/>
</g>
</svg>
