<?xml version="1.0" standalone="no"?>
<!DOCTYPE svg PUBLIC "-//W3C//DTD SVG 20010904//EN"
 "http://www.w3.org/TR/2001/REC-SVG-20010904/DTD/svg10.dtd">
<svg version="1.0" xmlns="http://www.w3.org/2000/svg"
 width="40.000000pt" height="43.000000pt" viewBox="0 0 40.000000 43.000000"
 preserveAspectRatio="xMidYMid meet">
<metadata>
Created by potrace 1.16, written by Peter Selinger 2001-2019
</metadata>
<g transform="translate(0.000000,43.000000) scale(0.100000,-0.100000)"
fill="#000000" stroke="none">
<path d="M125 420 l-6 -10 3 -38 3 -37 -63 1 -63 1 3 -61 3 -61 40 0 40 0 3
-18 4 -19 -6 -22 -6 -23 -25 4 -24 5 -7 -41 -7 -41 -8 -6 -9 -5 0 -20 0 -19
76 0 77 0 -6 33 -5 34 8 14 9 14 12 -12 12 -12 -1 -41 -2 -40 43 0 42 0 38 7
39 6 -7 21 -7 21 -5 38 -5 37 27 0 26 0 15 14 14 15 0 23 0 24 -12 12 -12 12
-28 0 -28 0 6 55 7 55 -20 0 -19 0 -9 -9 -10 -9 -37 -7 -38 -7 0 45 0 45 -6
16 -6 16 -28 0 -29 0 -6 -10z"/>
</g>
</svg>
