<?xml version="1.0" standalone="no"?>
<!DOCTYPE svg PUBLIC "-//W3C//DTD SVG 20010904//EN"
 "http://www.w3.org/TR/2001/REC-SVG-20010904/DTD/svg10.dtd">
<svg version="1.0" xmlns="http://www.w3.org/2000/svg"
 width="38.000000pt" height="41.000000pt" viewBox="0 0 38.000000 41.000000"
 preserveAspectRatio="xMidYMid meet">
<metadata>
Created by potrace 1.16, written by Peter Selinger 2001-2019
</metadata>
<g transform="translate(0.000000,41.000000) scale(0.100000,-0.100000)"
fill="#000000" stroke="none">
<path d="M124 397 l-5 -13 3 -35 3 -34 -63 0 -63 0 3 -49 3 -50 40 0 40 -1 3
-29 4 -28 -7 -25 -6 -25 -24 6 -25 6 -6 -40 -7 -40 -8 -6 -9 -5 0 -10 0 -9 65
0 66 0 -6 32 -6 33 15 20 15 20 18 -18 18 -17 -1 -40 -1 -40 31 0 31 0 37 6
37 7 -10 19 -10 19 3 42 3 42 23 -3 22 -3 15 15 15 15 0 13 0 14 -12 12 -12
12 -29 0 -29 0 7 55 6 55 -8 0 -9 0 -11 -11 -11 -11 -48 -1 -49 -2 3 34 4 33
-6 24 -6 24 -21 0 -20 0 -5 -13z"/>
</g>
</svg>
