<?xml version="1.0" standalone="no"?>
<!DOCTYPE svg PUBLIC "-//W3C//DTD SVG 20010904//EN"
 "http://www.w3.org/TR/2001/REC-SVG-20010904/DTD/svg10.dtd">
<svg version="1.0" xmlns="http://www.w3.org/2000/svg"
 width="42.000000pt" height="50.000000pt" viewBox="0 0 42.000000 50.000000"
 preserveAspectRatio="xMidYMid meet">
<metadata>
Created by potrace 1.16, written by Peter Selinger 2001-2019
</metadata>
<g transform="translate(0.000000,50.000000) scale(0.100000,-0.100000)"
fill="#000000" stroke="none">
<path d="M221 486 l-12 -15 3 -33 3 -33 -65 -5 -65 -5 -5 -40 -5 -40 -23 3
-23 3 -15 -11 -14 -12 0 -35 0 -34 10 -20 11 -19 40 0 41 0 -6 -26 -7 -26 -6
-29 -5 -29 55 1 55 2 11 -7 11 -7 0 -35 0 -35 48 3 47 3 3 43 3 42 56 0 55 0
-5 18 -6 17 -19 55 -19 55 -17 3 -16 3 0 15 0 14 23 0 24 0 17 19 17 19 -3 48
-3 49 -58 11 -58 12 -7 6 -6 7 -1 27 0 27 -26 3 -26 3 -12 -15z"/>
</g>
</svg>
