<?xml version="1.0" standalone="no"?>
<!DOCTYPE svg PUBLIC "-//W3C//DTD SVG 20010904//EN"
 "http://www.w3.org/TR/2001/REC-SVG-20010904/DTD/svg10.dtd">
<svg version="1.0" xmlns="http://www.w3.org/2000/svg"
 width="48.000000pt" height="49.000000pt" viewBox="0 0 48.000000 49.000000"
 preserveAspectRatio="xMidYMid meet">
<metadata>
Created by potrace 1.16, written by Peter Selinger 2001-2019
</metadata>
<g transform="translate(0.000000,49.000000) scale(0.100000,-0.100000)"
fill="#000000" stroke="none">
<path d="M200 475 l-12 -15 4 -29 4 -30 -20 -5 -21 -6 -37 0 -38 0 0 -39 0
-39 -16 -13 -17 -14 -23 3 -24 3 0 -39 0 -40 19 -5 19 -5 7 -33 8 -34 15 -32
16 -33 44 0 44 0 -6 -35 -7 -35 54 0 55 0 6 16 6 16 0 30 0 31 38 -7 37 -6 22
-6 22 -6 3 53 3 54 25 3 25 4 13 10 12 10 0 39 0 38 -20 6 -20 6 -9 -6 -10 -6
-10 20 -11 20 0 39 0 39 -69 -5 -69 -5 5 24 4 24 -10 28 -11 27 -19 0 -19 0
-12 -15z"/>
</g>
</svg>
