<?xml version="1.0" standalone="no"?>
<!DOCTYPE svg PUBLIC "-//W3C//DTD SVG 20010904//EN"
 "http://www.w3.org/TR/2001/REC-SVG-20010904/DTD/svg10.dtd">
<svg version="1.0" xmlns="http://www.w3.org/2000/svg"
 width="46.000000pt" height="47.000000pt" viewBox="0 0 46.000000 47.000000"
 preserveAspectRatio="xMidYMid meet">
<metadata>
Created by potrace 1.16, written by Peter Selinger 2001-2019
</metadata>
<g transform="translate(0.000000,47.000000) scale(0.100000,-0.100000)"
fill="#000000" stroke="none">
<path d="M200 455 l-12 -14 7 -29 6 -29 -23 -7 -23 -6 -37 0 -38 0 0 -38 0
-39 -19 -17 -20 -18 -20 7 -21 6 0 -29 0 -30 19 -5 19 -5 7 -33 8 -34 15 -32
15 -32 40 1 39 0 8 -12 8 -13 -9 -24 -9 -23 45 0 45 0 6 24 6 25 -7 20 -6 21
33 0 33 0 33 -9 32 -10 0 47 0 47 8 13 9 13 16 -7 17 -6 15 12 15 12 0 29 0
29 -12 1 -13 1 -17 -1 -17 -2 -10 20 -11 20 0 38 0 38 -71 -3 -72 -4 7 25 6
26 -10 25 -10 26 -9 0 -9 0 -12 -15z"/>
</g>
</svg>
