<?xml version="1.0" standalone="no"?>
<!DOCTYPE svg PUBLIC "-//W3C//DTD SVG 20010904//EN"
 "http://www.w3.org/TR/2001/REC-SVG-20010904/DTD/svg10.dtd">
<svg version="1.0" xmlns="http://www.w3.org/2000/svg"
 width="39.000000pt" height="42.000000pt" viewBox="0 0 39.000000 42.000000"
 preserveAspectRatio="xMidYMid meet">
<metadata>
Created by potrace 1.16, written by Peter Selinger 2001-2019
</metadata>
<g transform="translate(0.000000,42.000000) scale(0.100000,-0.100000)"
fill="#000000" stroke="none">
<path d="M80 378 l3 -43 -2 -17 -1 -17 -37 -3 -38 -3 -3 -27 -3 -28 27 -10 27
-11 18 6 19 6 0 -65 0 -65 53 -3 52 -3 -3 -15 -3 -14 6 -33 6 -33 45 0 44 0
10 26 10 26 -2 27 -3 26 43 -3 42 -4 0 161 0 161 -37 0 -38 0 -23 -6 -23 -7 2
-21 3 -21 -12 -22 -13 -23 -13 0 -14 0 -6 16 -6 17 6 33 6 34 -72 0 -72 0 2
-42z"/>
</g>
</svg>
