<?xml version="1.0" standalone="no"?>
<!DOCTYPE svg PUBLIC "-//W3C//DTD SVG 20010904//EN"
 "http://www.w3.org/TR/2001/REC-SVG-20010904/DTD/svg10.dtd">
<svg version="1.0" xmlns="http://www.w3.org/2000/svg"
 width="42.000000pt" height="49.000000pt" viewBox="0 0 42.000000 49.000000"
 preserveAspectRatio="xMidYMid meet">
<metadata>
Created by potrace 1.16, written by Peter Selinger 2001-2019
</metadata>
<g transform="translate(0.000000,49.000000) scale(0.100000,-0.100000)"
fill="#000000" stroke="none">
<path d="M231 481 l-14 -9 6 -29 6 -29 -21 -13 -20 -12 -41 3 -42 3 -5 -50 -5
-50 -42 3 -42 3 -7 -26 -7 -26 12 -25 11 -26 38 4 37 3 5 -55 5 -55 29 3 29 3
22 -5 21 -5 -4 -40 -4 -40 25 -6 26 -7 21 7 21 7 10 25 10 26 -6 18 -6 19 56
0 56 0 -6 48 -6 47 -5 13 -4 13 -34 -7 -35 -6 -7 27 -7 26 11 11 10 10 41 -4
41 -3 5 14 5 14 -6 46 -6 46 -66 0 -67 0 2 29 2 29 -10 18 -10 19 -7 0 -7 0
-14 -9z"/>
</g>
</svg>
