<?xml version="1.0" standalone="no"?>
<!DOCTYPE svg PUBLIC "-//W3C//DTD SVG 20010904//EN"
 "http://www.w3.org/TR/2001/REC-SVG-20010904/DTD/svg10.dtd">
<svg version="1.0" xmlns="http://www.w3.org/2000/svg"
 width="44.000000pt" height="51.000000pt" viewBox="0 0 44.000000 51.000000"
 preserveAspectRatio="xMidYMid meet">
<metadata>
Created by potrace 1.16, written by Peter Selinger 2001-2019
</metadata>
<g transform="translate(0.000000,51.000000) scale(0.100000,-0.100000)"
fill="#000000" stroke="none">
<path d="M233 503 l-13 -5 0 -33 0 -33 -14 -12 -15 -11 -43 3 -43 3 -5 -50 -5
-50 -39 3 -39 4 -8 -14 -9 -13 0 -28 0 -28 10 -20 11 -19 39 0 39 0 3 -52 3
-53 45 0 45 0 3 -40 3 -40 12 -7 12 -8 28 0 28 0 20 10 19 11 6 39 7 40 49 0
50 0 -7 63 -7 62 -5 9 -6 8 -32 -5 -33 -5 -6 15 -6 15 6 10 7 10 43 -6 43 -5
6 19 6 20 -6 53 -7 53 -66 0 -67 -1 3 27 3 27 -11 20 -11 21 -17 -1 -17 -1
-12 -5z"/>
</g>
</svg>
