<?xml version="1.0" standalone="no"?>
<!DOCTYPE svg PUBLIC "-//W3C//DTD SVG 20010904//EN"
 "http://www.w3.org/TR/2001/REC-SVG-20010904/DTD/svg10.dtd">
<svg version="1.0" xmlns="http://www.w3.org/2000/svg"
 width="34.000000pt" height="50.000000pt" viewBox="0 0 34.000000 50.000000"
 preserveAspectRatio="xMidYMid meet">
<metadata>
Created by potrace 1.16, written by Peter Selinger 2001-2019
</metadata>
<g transform="translate(0.000000,50.000000) scale(0.100000,-0.100000)"
fill="#000000" stroke="none">
<path d="M124 485 l-6 -15 6 -24 6 -24 -14 -11 -14 -12 -49 3 -48 3 -3 -52 -3
-52 11 -21 11 -20 35 0 36 0 -5 -12 -4 -13 -27 3 -28 3 -14 -12 -14 -11 0 -70
0 -70 37 2 38 2 18 -1 19 -1 -7 -31 -7 -31 13 -9 14 -9 36 0 36 0 16 18 17 19
0 15 0 15 46 6 46 5 10 10 10 10 -23 62 -23 63 -18 5 -19 5 3 16 3 16 26 -3
26 -3 12 15 12 14 -3 59 -3 58 -68 3 -68 3 6 20 7 20 -6 25 -6 24 -36 0 -35 0
-5 -15z"/>
</g>
</svg>
