<?xml version="1.0" standalone="no"?>
<!DOCTYPE svg PUBLIC "-//W3C//DTD SVG 20010904//EN"
 "http://www.w3.org/TR/2001/REC-SVG-20010904/DTD/svg10.dtd">
<svg version="1.0" xmlns="http://www.w3.org/2000/svg"
 width="42.000000pt" height="42.000000pt" viewBox="0 0 42.000000 42.000000"
 preserveAspectRatio="xMidYMid meet">
<metadata>
Created by potrace 1.16, written by Peter Selinger 2001-2019
</metadata>
<g transform="translate(0.000000,42.000000) scale(0.100000,-0.100000)"
fill="#000000" stroke="none">
<path d="M119 393 l-10 -26 3 -21 3 -21 -57 2 -58 2 0 -71 0 -71 39 6 38 5 13
-8 13 -8 -7 -11 -7 -11 -29 0 -30 0 -5 -28 -6 -27 -10 -42 -9 -42 0 -10 0 -11
53 0 53 0 22 16 22 15 0 25 0 24 8 0 7 0 10 -22 10 -23 50 -12 50 -12 20 -6
21 -6 11 23 11 23 6 27 6 28 25 0 25 0 6 23 5 24 -3 39 -3 39 -42 3 -43 3 0
50 0 49 -61 0 -61 0 6 25 6 25 -10 20 -11 20 -35 0 -34 0 -11 -27z"/>
</g>
</svg>
