<?xml version="1.0" standalone="no"?>
<!DOCTYPE svg PUBLIC "-//W3C//DTD SVG 20010904//EN"
 "http://www.w3.org/TR/2001/REC-SVG-20010904/DTD/svg10.dtd">
<svg version="1.0" xmlns="http://www.w3.org/2000/svg"
 width="40.000000pt" height="40.000000pt" viewBox="0 0 40.000000 40.000000"
 preserveAspectRatio="xMidYMid meet">
<metadata>
Created by potrace 1.16, written by Peter Selinger 2001-2019
</metadata>
<g transform="translate(0.000000,40.000000) scale(0.100000,-0.100000)"
fill="#000000" stroke="none">
<path d="M2 338 l3 -63 30 -3 30 -4 9 -9 10 -9 -14 -24 -13 -25 -29 6 -29 6 3
-64 3 -64 52 -3 53 -3 0 -33 0 -34 16 -6 16 -6 22 0 23 0 16 18 17 19 0 27 0
28 44 -6 44 -7 15 16 16 16 7 35 6 35 24 9 24 10 0 50 0 50 -34 0 -34 0 -6 16
-6 16 0 35 0 35 -52 -7 -53 -6 -18 -6 -18 -5 6 -29 7 -29 -16 -6 -16 -6 -23 5
-22 6 0 38 0 38 -58 3 -58 3 3 -63z"/>
</g>
</svg>
