<?xml version="1.0" standalone="no"?>
<!DOCTYPE svg PUBLIC "-//W3C//DTD SVG 20010904//EN"
 "http://www.w3.org/TR/2001/REC-SVG-20010904/DTD/svg10.dtd">
<svg version="1.0" xmlns="http://www.w3.org/2000/svg"
 width="38.000000pt" height="38.000000pt" viewBox="0 0 38.000000 38.000000"
 preserveAspectRatio="xMidYMid meet">
<metadata>
Created by potrace 1.16, written by Peter Selinger 2001-2019
</metadata>
<g transform="translate(0.000000,38.000000) scale(0.100000,-0.100000)"
fill="#000000" stroke="none">
<path d="M2 328 l3 -53 25 -1 26 0 12 -8 12 -7 0 -22 -1 -22 -14 -19 -14 -18
-26 6 -26 7 3 -53 3 -53 55 -3 56 -3 -4 -34 -4 -34 26 -7 27 -6 20 18 20 18
-3 25 -3 26 45 1 45 2 12 1 12 1 17 55 16 56 16 -3 17 -3 3 44 3 44 -26 -5
-26 -5 -15 14 -14 14 0 40 0 40 -37 -6 -38 -6 -20 -4 -20 -4 0 -33 0 -33 -24
-3 -23 -4 -24 6 -23 6 2 38 2 37 -48 3 -48 3 3 -53z"/>
</g>
</svg>
