<?xml version="1.0" standalone="no"?>
<!DOCTYPE svg PUBLIC "-//W3C//DTD SVG 20010904//EN"
 "http://www.w3.org/TR/2001/REC-SVG-20010904/DTD/svg10.dtd">
<svg version="1.0" xmlns="http://www.w3.org/2000/svg"
 width="32.000000pt" height="39.000000pt" viewBox="0 0 32.000000 39.000000"
 preserveAspectRatio="xMidYMid meet">
<metadata>
Created by potrace 1.16, written by Peter Selinger 2001-2019
</metadata>
<g transform="translate(0.000000,39.000000) scale(0.100000,-0.100000)"
fill="#000000" stroke="none">
<path d="M132 378 l-12 -12 0 -28 0 -28 -55 0 -55 0 -6 -25 -6 -25 12 -31 13
-31 29 6 28 6 0 -40 0 -39 -16 -3 -16 -3 -19 -50 -19 -50 0 -10 0 -10 57 3 58
4 11 9 11 9 -5 29 -4 29 10 6 10 6 16 -6 16 -6 -6 -23 -5 -22 14 -6 14 -5 55
-7 56 -7 -17 63 -16 64 -23 3 -22 3 0 19 0 19 20 11 20 11 18 -3 17 -3 3 56 3
57 -68 8 -68 9 0 25 0 25 -20 3 -20 3 -13 -13z"/>
</g>
</svg>
