<?xml version="1.0" standalone="no"?>
<!DOCTYPE svg PUBLIC "-//W3C//DTD SVG 20010904//EN"
 "http://www.w3.org/TR/2001/REC-SVG-20010904/DTD/svg10.dtd">
<svg version="1.0" xmlns="http://www.w3.org/2000/svg"
 width="51.000000pt" height="39.000000pt" viewBox="0 0 51.000000 39.000000"
 preserveAspectRatio="xMidYMid meet">
<metadata>
Created by potrace 1.16, written by Peter Selinger 2001-2019
</metadata>
<g transform="translate(0.000000,39.000000) scale(0.100000,-0.100000)"
fill="#000000" stroke="none">
<path d="M229 388 l-1 -3 -2 -23 -3 -23 -11 -11 -12 -12 -50 0 -50 -1 0 -46 0
-46 -6 -5 -6 -6 -27 8 -28 8 -16 -10 -17 -9 0 -28 0 -28 19 -17 20 -18 19 6
20 7 6 -23 6 -23 0 -27 0 -26 5 -14 5 -13 58 3 57 4 13 11 14 11 -5 23 -4 23
12 17 12 16 17 -6 16 -6 0 -25 0 -24 50 -12 50 -12 6 -9 5 -9 9 0 9 0 12 55
12 55 25 -7 24 -6 9 14 9 14 0 31 0 32 -15 12 -15 12 -34 -4 -35 -4 -3 46 -3
45 -48 -3 -49 -3 -13 11 -13 11 5 19 5 20 -12 15 -12 15 -19 0 -19 0 -1 -2z"/>
</g>
</svg>
