<?xml version="1.0" standalone="no"?>
<!DOCTYPE svg PUBLIC "-//W3C//DTD SVG 20010904//EN"
 "http://www.w3.org/TR/2001/REC-SVG-20010904/DTD/svg10.dtd">
<svg version="1.0" xmlns="http://www.w3.org/2000/svg"
 width="53.000000pt" height="41.000000pt" viewBox="0 0 53.000000 41.000000"
 preserveAspectRatio="xMidYMid meet">
<metadata>
Created by potrace 1.16, written by Peter Selinger 2001-2019
</metadata>
<g transform="translate(0.000000,41.000000) scale(0.100000,-0.100000)"
fill="#000000" stroke="none">
<path d="M227 403 l-7 -6 0 -23 0 -23 -12 -7 -12 -8 -48 1 -48 1 0 -50 0 -50
-31 6 -31 6 -19 -10 -19 -11 0 -38 0 -38 18 -16 19 -17 20 0 21 0 6 -16 6 -16
0 -28 0 -28 6 -15 5 -15 67 6 67 5 12 9 12 10 3 36 3 37 10 0 10 0 3 -27 3
-26 50 -12 49 -12 6 -9 5 -9 19 0 18 0 12 50 12 50 28 0 28 0 6 16 6 16 0 37
0 37 -12 12 -12 12 -37 0 -38 0 -3 43 -3 42 -55 0 -55 0 -3 30 -4 30 -10 13
-10 12 -28 0 -27 0 -6 -7z"/>
</g>
</svg>
