<?xml version="1.0" standalone="no"?>
<!DOCTYPE svg PUBLIC "-//W3C//DTD SVG 20010904//EN"
 "http://www.w3.org/TR/2001/REC-SVG-20010904/DTD/svg10.dtd">
<svg version="1.0" xmlns="http://www.w3.org/2000/svg"
 width="41.000000pt" height="45.000000pt" viewBox="0 0 41.000000 45.000000"
 preserveAspectRatio="xMidYMid meet">
<metadata>
Created by potrace 1.16, written by Peter Selinger 2001-2019
</metadata>
<g transform="translate(0.000000,45.000000) scale(0.100000,-0.100000)"
fill="#000000" stroke="none">
<path d="M274 400 l1 -51 -15 -9 -15 -10 -10 3 -10 4 -3 46 -3 47 -65 0 -64 0
0 -41 0 -40 -10 -19 -10 -18 -20 5 -20 5 -15 -12 -15 -12 0 -27 0 -26 8 -12 7
-12 28 -10 27 -11 0 -18 0 -19 11 -33 12 -32 38 6 37 6 16 -6 15 -6 -5 -28 -6
-27 23 -22 23 -21 14 0 15 0 18 22 19 21 0 39 0 39 49 -7 48 -6 8 11 7 12 -7
61 -7 60 -29 -6 -30 -6 -6 17 -6 16 10 15 10 16 29 1 29 0 3 66 3 66 -38 7
-38 6 -31 0 -30 0 0 -50z"/>
</g>
</svg>
