<?xml version="1.0" standalone="no"?>
<!DOCTYPE svg PUBLIC "-//W3C//DTD SVG 20010904//EN"
 "http://www.w3.org/TR/2001/REC-SVG-20010904/DTD/svg10.dtd">
<svg version="1.0" xmlns="http://www.w3.org/2000/svg"
 width="34.000000pt" height="36.000000pt" viewBox="0 0 34.000000 36.000000"
 preserveAspectRatio="xMidYMid meet">
<metadata>
Created by potrace 1.16, written by Peter Selinger 2001-2019
</metadata>
<g transform="translate(0.000000,36.000000) scale(0.100000,-0.100000)"
fill="#000000" stroke="none">
<path d="M206 322 l6 -38 -19 -23 -20 -24 -11 7 -12 7 0 28 0 29 -14 11 -14
12 -51 6 -51 6 0 -67 0 -66 29 0 29 0 11 -14 12 -15 -11 -21 -12 -22 -33 6
-33 7 -7 -11 -7 -11 7 -64 7 -64 52 6 51 5 25 12 25 11 5 40 5 40 10 -15 10
-15 0 -40 0 -40 46 -3 45 -3 28 10 27 11 -3 67 -3 68 -35 0 -35 0 -13 9 -13 8
3 16 3 17 39 -3 39 -4 8 14 9 13 0 52 0 52 -30 16 -29 15 -41 0 -40 0 6 -38z"/>
</g>
</svg>
