<?xml version="1.0" standalone="no"?>
<!DOCTYPE svg PUBLIC "-//W3C//DTD SVG 20010904//EN"
 "http://www.w3.org/TR/2001/REC-SVG-20010904/DTD/svg10.dtd">
<svg version="1.0" xmlns="http://www.w3.org/2000/svg"
 width="36.000000pt" height="41.000000pt" viewBox="0 0 36.000000 41.000000"
 preserveAspectRatio="xMidYMid meet">
<metadata>
Created by potrace 1.16, written by Peter Selinger 2001-2019
</metadata>
<g transform="translate(0.000000,41.000000) scale(0.100000,-0.100000)"
fill="#000000" stroke="none">
<path d="M162 401 l-14 -8 -7 -34 -7 -34 -37 -3 -37 -3 0 10 0 11 -20 0 -21 0
3 -67 3 -68 38 -3 37 -3 0 -18 0 -17 -12 -12 -12 -12 -33 0 -34 0 -5 -15 -6
-15 7 -55 6 -55 75 0 74 0 0 34 0 35 20 6 20 6 10 -6 10 -6 0 -24 0 -23 16 -6
16 -6 43 0 44 0 6 10 6 10 6 50 6 50 -42 0 -41 0 -12 24 -11 25 6 15 6 15 32
3 33 3 8 30 8 30 -5 22 -5 22 -53 3 -52 3 3 32 3 32 -20 10 -20 11 -13 0 -13
0 -13 -9z"/>
</g>
</svg>
