<?xml version="1.0" standalone="no"?>
<!DOCTYPE svg PUBLIC "-//W3C//DTD SVG 20010904//EN"
 "http://www.w3.org/TR/2001/REC-SVG-20010904/DTD/svg10.dtd">
<svg version="1.0" xmlns="http://www.w3.org/2000/svg"
 width="32.000000pt" height="47.000000pt" viewBox="0 0 32.000000 47.000000"
 preserveAspectRatio="xMidYMid meet">
<metadata>
Created by potrace 1.16, written by Peter Selinger 2001-2019
</metadata>
<g transform="translate(0.000000,47.000000) scale(0.100000,-0.100000)"
fill="#000000" stroke="none">
<path d="M137 464 l-6 -6 6 -28 5 -28 -20 -11 -21 -11 -40 0 -41 0 0 10 0 10
-8 0 -8 0 6 -52 6 -53 8 -13 8 -13 16 2 17 1 13 -1 12 -1 0 -29 0 -29 -15 -12
-15 -12 -17 6 -16 7 -9 -13 -8 -13 0 -47 0 -47 48 -3 47 -3 0 -29 1 -29 23 -9
23 -8 31 8 32 9 -2 20 -2 21 37 7 37 7 13 10 12 10 0 60 0 61 -29 -6 -28 -6
-12 12 -11 11 0 17 0 18 16 16 16 16 29 -6 29 -7 0 26 0 25 -10 25 -9 25 -30
-10 -30 -10 -28 3 -28 3 3 44 4 44 -14 8 -13 9 -11 0 -11 0 -6 -6z"/>
</g>
</svg>
