<?xml version="1.0" standalone="no"?>
<!DOCTYPE svg PUBLIC "-//W3C//DTD SVG 20010904//EN"
 "http://www.w3.org/TR/2001/REC-SVG-20010904/DTD/svg10.dtd">
<svg version="1.0" xmlns="http://www.w3.org/2000/svg"
 width="34.000000pt" height="49.000000pt" viewBox="0 0 34.000000 49.000000"
 preserveAspectRatio="xMidYMid meet">
<metadata>
Created by potrace 1.16, written by Peter Selinger 2001-2019
</metadata>
<g transform="translate(0.000000,49.000000) scale(0.100000,-0.100000)"
fill="#000000" stroke="none">
<path d="M135 479 l-7 -10 6 -24 6 -24 -19 -11 -20 -10 -30 0 -31 0 0 10 0 10
-19 0 -20 0 6 -57 6 -58 9 -17 9 -18 29 0 30 0 0 -19 0 -20 -12 -8 -13 -8 -19
4 -19 3 -8 -14 -9 -13 0 -57 0 -57 48 -3 47 -3 -3 -28 -3 -27 28 -11 28 -11
40 9 40 8 3 22 3 22 32 6 32 7 13 10 12 10 0 69 0 68 -37 3 -36 3 -4 10 -3 10
10 15 9 14 35 -2 36 -3 0 35 0 35 -10 26 -10 27 -23 -6 -22 -7 -32 -6 -33 -6
0 51 0 50 -16 6 -16 6 -18 0 -19 0 -6 -11z"/>
</g>
</svg>
