<?xml version="1.0" standalone="no"?>
<!DOCTYPE svg PUBLIC "-//W3C//DTD SVG 20010904//EN"
 "http://www.w3.org/TR/2001/REC-SVG-20010904/DTD/svg10.dtd">
<svg version="1.0" xmlns="http://www.w3.org/2000/svg"
 width="47.000000pt" height="40.000000pt" viewBox="0 0 47.000000 40.000000"
 preserveAspectRatio="xMidYMid meet">
<metadata>
Created by potrace 1.16, written by Peter Selinger 2001-2019
</metadata>
<g transform="translate(0.000000,40.000000) scale(0.100000,-0.100000)"
fill="#000000" stroke="none">
<path d="M205 390 l-6 -10 6 -30 7 -30 -66 0 -65 0 -3 -47 -3 -48 -26 3 -26 2
-12 -14 -12 -15 3 -28 3 -28 33 1 32 2 2 -32 2 -31 1 -30 1 -30 70 0 69 0 -3
43 -2 42 15 7 16 6 11 -11 11 -11 -2 -51 -1 -50 25 0 26 0 42 11 42 10 -3 56
-4 55 22 -7 21 -7 20 24 21 23 -6 29 -6 30 -13 8 -12 7 -22 -6 -23 -5 0 46 0
45 -67 -2 -68 -2 2 20 3 20 -5 23 -5 22 -20 0 -19 0 -6 -10z"/>
</g>
</svg>
