<?xml version="1.0" standalone="no"?>
<!DOCTYPE svg PUBLIC "-//W3C//DTD SVG 20010904//EN"
 "http://www.w3.org/TR/2001/REC-SVG-20010904/DTD/svg10.dtd">
<svg version="1.0" xmlns="http://www.w3.org/2000/svg"
 width="37.000000pt" height="30.000000pt" viewBox="0 0 37.000000 30.000000"
 preserveAspectRatio="xMidYMid meet">
<metadata>
Created by potrace 1.16, written by Peter Selinger 2001-2019
</metadata>
<g transform="translate(0.000000,30.000000) scale(0.100000,-0.100000)"
fill="#000000" stroke="none">
<path d="M0 261 l0 -40 14 -14 15 -14 26 5 26 5 -3 -44 -3 -44 -17 3 -16 3
-16 -55 -16 -54 0 -6 0 -6 43 0 42 0 14 9 14 9 -7 11 -7 11 6 21 7 20 31 -3
32 -3 -2 -22 -2 -21 14 -12 14 -11 38 3 38 3 3 45 3 45 10 10 9 9 28 1 27 0 0
30 0 30 -25 0 -25 0 -12 8 -13 8 0 48 0 48 -27 -4 -28 -4 -23 -5 -24 -5 6 -14
5 -14 -15 -16 -15 -15 -29 0 -29 0 -8 13 -8 12 4 19 3 19 -14 8 -13 9 -37 0
-38 0 0 -39z"/>
</g>
</svg>
