<?xml version="1.0" standalone="no"?>
<!DOCTYPE svg PUBLIC "-//W3C//DTD SVG 20010904//EN"
 "http://www.w3.org/TR/2001/REC-SVG-20010904/DTD/svg10.dtd">
<svg version="1.0" xmlns="http://www.w3.org/2000/svg"
 width="41.000000pt" height="35.000000pt" viewBox="0 0 41.000000 35.000000"
 preserveAspectRatio="xMidYMid meet">
<metadata>
Created by potrace 1.16, written by Peter Selinger 2001-2019
</metadata>
<g transform="translate(0.000000,35.000000) scale(0.100000,-0.100000)"
fill="#000000" stroke="none">
<path d="M280 307 l0 -43 -13 -18 -13 -17 -17 7 -17 6 0 39 0 40 -12 4 -13 3
-52 7 -53 6 0 -43 0 -43 -8 -11 -7 -10 -35 0 -35 1 0 -60 0 -60 20 -4 20 -3 7
-12 8 -11 0 -29 0 -29 18 -13 17 -13 53 -1 53 0 21 11 20 11 -6 29 -6 29 25 0
25 0 0 -20 0 -20 23 -9 22 -8 43 -8 42 -7 0 72 0 72 -33 -6 -33 -6 -19 13 -18
14 6 17 6 16 35 0 35 0 11 19 10 20 0 44 0 45 -31 11 -32 11 -33 0 -34 0 0
-43z"/>
</g>
</svg>
