<?xml version="1.0" standalone="no"?>
<!DOCTYPE svg PUBLIC "-//W3C//DTD SVG 20010904//EN"
 "http://www.w3.org/TR/2001/REC-SVG-20010904/DTD/svg10.dtd">
<svg version="1.0" xmlns="http://www.w3.org/2000/svg"
 width="39.000000pt" height="33.000000pt" viewBox="0 0 39.000000 33.000000"
 preserveAspectRatio="xMidYMid meet">
<metadata>
Created by potrace 1.16, written by Peter Selinger 2001-2019
</metadata>
<g transform="translate(0.000000,33.000000) scale(0.100000,-0.100000)"
fill="#000000" stroke="none">
<path d="M282 291 l-1 -40 -11 -20 -11 -21 -17 0 -17 0 -15 9 -14 10 1 36 1
36 -11 4 -12 3 -42 5 -43 5 0 -41 0 -42 -8 -13 -9 -13 -34 3 -34 3 0 -50 0
-50 22 -3 22 -3 10 -37 10 -36 -4 -4 -5 -5 18 -13 17 -13 43 -1 43 0 19 10 19
10 -6 31 -6 30 39 -3 39 -3 -3 -18 -3 -17 23 -9 23 -8 33 -6 32 -7 0 60 0 60
-29 -6 -29 -6 -21 11 -21 12 0 23 0 24 13 10 13 11 24 -6 23 -6 13 18 14 19 0
37 0 37 -31 11 -32 11 -22 0 -23 0 0 -39z"/>
</g>
</svg>
