<?xml version="1.0" standalone="no"?>
<!DOCTYPE svg PUBLIC "-//W3C//DTD SVG 20010904//EN"
 "http://www.w3.org/TR/2001/REC-SVG-20010904/DTD/svg10.dtd">
<svg version="1.0" xmlns="http://www.w3.org/2000/svg"
 width="30.000000pt" height="40.000000pt" viewBox="0 0 30.000000 40.000000"
 preserveAspectRatio="xMidYMid meet">
<metadata>
Created by potrace 1.16, written by Peter Selinger 2001-2019
</metadata>
<g transform="translate(0.000000,40.000000) scale(0.100000,-0.100000)"
fill="#000000" stroke="none">
<path d="M197 393 l-6 -9 1 -34 1 -33 -18 -13 -19 -14 -17 0 -17 0 -12 14 -12
15 4 33 3 33 -50 0 -50 0 0 -150 0 -150 31 3 31 3 27 -11 28 -10 -6 -16 -6
-15 10 -20 11 -19 22 0 23 0 19 13 18 14 -5 26 -5 27 48 0 49 0 0 4 0 3 -9 29
-9 29 -6 27 -6 27 -14 -5 -13 -5 -17 16 -16 16 0 18 0 19 14 11 13 11 18 -6
18 -7 13 18 14 19 0 43 0 43 -19 0 -18 0 -31 6 -30 6 -5 -9z"/>
</g>
</svg>
