<?xml version="1.0" standalone="no"?>
<!DOCTYPE svg PUBLIC "-//W3C//DTD SVG 20010904//EN"
 "http://www.w3.org/TR/2001/REC-SVG-20010904/DTD/svg10.dtd">
<svg version="1.0" xmlns="http://www.w3.org/2000/svg"
 width="32.000000pt" height="42.000000pt" viewBox="0 0 32.000000 42.000000"
 preserveAspectRatio="xMidYMid meet">
<metadata>
Created by potrace 1.16, written by Peter Selinger 2001-2019
</metadata>
<g transform="translate(0.000000,42.000000) scale(0.100000,-0.100000)"
fill="#000000" stroke="none">
<path d="M197 413 l-7 -6 0 -38 0 -38 -21 -11 -20 -11 -15 12 -15 12 3 36 3
36 -60 0 -60 0 0 -160 0 -160 35 -1 35 -1 18 -1 17 -2 0 -21 0 -20 10 -20 11
-19 30 0 30 0 20 10 19 11 0 29 0 30 45 0 45 0 0 14 0 13 -9 29 -9 29 -6 28
-6 27 -24 0 -24 0 -6 16 -6 16 6 9 5 9 29 0 29 0 11 19 10 20 0 49 0 49 -46 7
-47 6 -12 0 -12 0 -6 -7z"/>
</g>
</svg>
