<?xml version="1.0" standalone="no"?>
<!DOCTYPE svg PUBLIC "-//W3C//DTD SVG 20010904//EN"
 "http://www.w3.org/TR/2001/REC-SVG-20010904/DTD/svg10.dtd">
<svg version="1.0" xmlns="http://www.w3.org/2000/svg"
 width="34.000000pt" height="35.000000pt" viewBox="0 0 34.000000 35.000000"
 preserveAspectRatio="xMidYMid meet">
<metadata>
Created by potrace 1.16, written by Peter Selinger 2001-2019
</metadata>
<g transform="translate(0.000000,35.000000) scale(0.100000,-0.100000)"
fill="#000000" stroke="none">
<path d="M215 340 l-6 -9 6 -23 6 -24 -20 -18 -20 -18 -26 6 -25 6 5 23 5 22
-9 14 -9 14 -50 5 -51 4 -6 -34 -7 -34 9 -35 9 -34 33 -3 32 -3 6 -15 5 -14
-12 -15 -13 -15 -32 6 -33 6 -6 -20 -7 -20 6 -26 5 -26 5 -25 5 -25 65 0 64 0
3 37 3 36 13 5 12 4 0 -36 0 -36 50 0 49 0 26 -12 25 -11 4 4 5 4 -7 70 -7 70
-37 -3 -37 -3 -11 21 -11 21 6 19 6 19 42 -2 42 -2 3 68 3 67 -55 0 -55 0 -6
-10z"/>
</g>
</svg>
