<?xml version="1.0" standalone="no"?>
<!DOCTYPE svg PUBLIC "-//W3C//DTD SVG 20010904//EN"
 "http://www.w3.org/TR/2001/REC-SVG-20010904/DTD/svg10.dtd">
<svg version="1.0" xmlns="http://www.w3.org/2000/svg"
 width="46.000000pt" height="39.000000pt" viewBox="0 0 46.000000 39.000000"
 preserveAspectRatio="xMidYMid meet">
<metadata>
Created by potrace 1.16, written by Peter Selinger 2001-2019
</metadata>
<g transform="translate(0.000000,39.000000) scale(0.100000,-0.100000)"
fill="#000000" stroke="none">
<path d="M259 383 l-1 -8 -1 -35 -2 -35 -32 -3 -33 -3 0 30 0 30 -10 6 -10 6
-51 6 -51 6 7 -42 7 -42 -12 -29 -12 -29 -26 2 -27 2 0 -25 0 -25 35 -5 35 -5
0 -58 0 -58 25 6 25 5 30 -8 30 -9 -3 -31 -3 -32 34 0 34 0 17 19 17 19 -3 28
-3 29 20 -1 20 -1 23 -7 22 -7 0 53 0 54 11 11 12 12 27 -5 26 -6 12 15 12 14
-6 16 -6 15 -33 -5 -33 -5 -12 22 -12 22 4 43 3 43 -35 6 -35 6 -17 0 -18 0
-1 -7z"/>
</g>
</svg>
