<?xml version="1.0" standalone="no"?>
<!DOCTYPE svg PUBLIC "-//W3C//DTD SVG 20010904//EN"
 "http://www.w3.org/TR/2001/REC-SVG-20010904/DTD/svg10.dtd">
<svg version="1.0" xmlns="http://www.w3.org/2000/svg"
 width="48.000000pt" height="41.000000pt" viewBox="0 0 48.000000 41.000000"
 preserveAspectRatio="xMidYMid meet">
<metadata>
Created by potrace 1.16, written by Peter Selinger 2001-2019
</metadata>
<g transform="translate(0.000000,41.000000) scale(0.100000,-0.100000)"
fill="#000000" stroke="none">
<path d="M258 403 l-1 -8 -1 -35 -1 -35 -22 -3 -23 -3 0 30 0 30 -11 6 -10 7
-61 6 -61 5 7 -49 6 -50 -12 -16 -13 -17 -25 -3 -25 -3 0 -35 0 -35 35 -5 35
-5 -1 -58 -1 -58 31 2 31 2 23 -2 22 -1 0 -35 0 -35 43 0 44 0 16 18 17 19 0
31 0 32 26 -10 25 -10 14 0 14 0 3 58 3 57 37 3 36 3 12 14 12 15 -6 26 -7 26
-34 -6 -34 -7 -12 22 -11 22 5 42 6 43 -37 6 -37 6 -27 0 -28 0 -2 -7z"/>
</g>
</svg>
