<?xml version="1.0" standalone="no"?>
<!DOCTYPE svg PUBLIC "-//W3C//DTD SVG 20010904//EN"
 "http://www.w3.org/TR/2001/REC-SVG-20010904/DTD/svg10.dtd">
<svg version="1.0" xmlns="http://www.w3.org/2000/svg"
 width="32.000000pt" height="40.000000pt" viewBox="0 0 32.000000 40.000000"
 preserveAspectRatio="xMidYMid meet">
<metadata>
Created by potrace 1.16, written by Peter Selinger 2001-2019
</metadata>
<g transform="translate(0.000000,40.000000) scale(0.100000,-0.100000)"
fill="#000000" stroke="none">
<path d="M256 391 l-50 -6 0 -40 -1 -40 -42 -3 -43 -3 0 45 0 46 -49 0 -49 0
-6 -22 -6 -23 0 -37 0 -37 42 -3 43 -3 3 -15 3 -15 -14 -19 -13 -18 -34 -7
-35 -7 2 -20 2 -19 3 -31 2 -30 53 4 53 4 0 -34 0 -34 12 -12 12 -12 22 0 22
0 12 15 13 15 -6 40 -5 40 23 0 24 0 24 -9 25 -10 6 15 6 16 0 31 0 32 -9 14
-9 14 -21 -6 -21 -5 -10 19 -11 19 12 21 11 21 34 -7 34 -6 0 66 0 65 -7 -2
-8 -1 -49 -6z"/>
</g>
</svg>
