<?xml version="1.0" standalone="no"?>
<!DOCTYPE svg PUBLIC "-//W3C//DTD SVG 20010904//EN"
 "http://www.w3.org/TR/2001/REC-SVG-20010904/DTD/svg10.dtd">
<svg version="1.0" xmlns="http://www.w3.org/2000/svg"
 width="34.000000pt" height="42.000000pt" viewBox="0 0 34.000000 42.000000"
 preserveAspectRatio="xMidYMid meet">
<metadata>
Created by potrace 1.16, written by Peter Selinger 2001-2019
</metadata>
<g transform="translate(0.000000,42.000000) scale(0.100000,-0.100000)"
fill="#000000" stroke="none">
<path d="M255 411 l-50 -6 0 -40 0 -40 -32 -3 -33 -3 0 45 0 46 -59 0 -59 0
-6 -22 -6 -23 0 -47 0 -48 39 0 40 0 6 -10 6 -9 -21 -21 -20 -20 -24 0 -25 0
-5 -8 -5 -8 6 -57 6 -57 53 6 54 7 0 -35 0 -34 12 -12 12 -12 31 0 31 0 12 12
12 12 0 43 0 43 9 0 8 0 33 -11 32 -12 9 14 9 14 0 42 0 41 -6 16 -6 16 -30 0
-29 0 3 23 3 22 38 -3 37 -4 0 76 0 76 -17 -2 -18 -1 -50 -6z"/>
</g>
</svg>
