<?xml version="1.0" standalone="no"?>
<!DOCTYPE svg PUBLIC "-//W3C//DTD SVG 20010904//EN"
 "http://www.w3.org/TR/2001/REC-SVG-20010904/DTD/svg10.dtd">
<svg version="1.0" xmlns="http://www.w3.org/2000/svg"
 width="42.000000pt" height="44.000000pt" viewBox="0 0 42.000000 44.000000"
 preserveAspectRatio="xMidYMid meet">
<metadata>
Created by potrace 1.16, written by Peter Selinger 2001-2019
</metadata>
<g transform="translate(0.000000,44.000000) scale(0.100000,-0.100000)"
fill="#000000" stroke="none">
<path d="M200 393 l0 -51 -15 -12 -14 -12 -21 7 -20 6 -1 12 -1 12 -1 30 -2
30 -60 0 -60 0 -3 -53 -3 -54 12 -15 13 -15 28 4 28 5 0 -18 0 -17 -24 -6 -24
-6 -11 -50 -11 -51 0 -26 0 -26 34 6 35 6 19 -6 20 -5 -5 -19 -5 -19 6 -25 7
-26 47 3 47 3 5 30 5 29 34 7 34 7 23 12 23 13 -6 48 -6 49 35 0 34 0 12 12
12 12 0 32 0 32 -14 12 -15 11 -22 -3 -23 -3 -7 25 -6 25 4 26 5 25 -27 12
-28 13 -43 6 -44 6 0 -50z"/>
</g>
</svg>
