<?xml version="1.0" standalone="no"?>
<!DOCTYPE svg PUBLIC "-//W3C//DTD SVG 20010904//EN"
 "http://www.w3.org/TR/2001/REC-SVG-20010904/DTD/svg10.dtd">
<svg version="1.0" xmlns="http://www.w3.org/2000/svg"
 width="41.000000pt" height="35.000000pt" viewBox="0 0 41.000000 35.000000"
 preserveAspectRatio="xMidYMid meet">
<metadata>
Created by potrace 1.16, written by Peter Selinger 2001-2019
</metadata>
<g transform="translate(0.000000,35.000000) scale(0.100000,-0.100000)"
fill="#000000" stroke="none">
<path d="M205 321 l6 -30 -16 -31 -16 -31 -27 3 -27 3 -3 40 -3 40 -12 7 -12
8 -47 0 -48 0 0 -65 0 -65 23 0 22 -1 18 -13 17 -13 0 -22 0 -21 -19 0 -19 0
-16 -49 -16 -50 0 -16 0 -16 68 3 67 3 0 34 0 34 12 4 12 4 3 -33 3 -33 65 -6
65 -6 12 4 12 5 -6 49 -6 49 27 0 26 0 21 21 20 20 -3 27 -3 27 -44 3 -44 3 7
54 6 54 -29 16 -30 15 -36 0 -37 0 7 -29z"/>
</g>
</svg>
