<?xml version="1.0" standalone="no"?>
<!DOCTYPE svg PUBLIC "-//W3C//DTD SVG 20010904//EN"
 "http://www.w3.org/TR/2001/REC-SVG-20010904/DTD/svg10.dtd">
<svg version="1.0" xmlns="http://www.w3.org/2000/svg"
 width="39.000000pt" height="33.000000pt" viewBox="0 0 39.000000 33.000000"
 preserveAspectRatio="xMidYMid meet">
<metadata>
Created by potrace 1.16, written by Peter Selinger 2001-2019
</metadata>
<g transform="translate(0.000000,33.000000) scale(0.100000,-0.100000)"
fill="#000000" stroke="none">
<path d="M208 305 l4 -25 -12 -30 -13 -31 -18 -9 -18 -10 -24 9 -24 9 -6 15
-6 15 6 22 6 22 -14 9 -14 9 -37 0 -38 0 0 -55 0 -55 23 0 22 -1 18 -13 17
-13 0 -32 0 -31 -19 0 -19 0 -16 -49 -16 -50 0 -6 0 -6 58 3 57 3 -3 31 -3 31
16 13 16 13 12 -12 12 -12 0 -27 0 -27 57 -5 57 -5 9 3 9 3 -8 42 -7 42 4 7 5
8 25 0 24 0 21 21 20 20 -3 17 -3 17 -44 3 -43 3 4 55 5 55 -28 15 -28 14 -24
0 -24 0 5 -25z"/>
</g>
</svg>
