<?xml version="1.0" standalone="no"?>
<!DOCTYPE svg PUBLIC "-//W3C//DTD SVG 20010904//EN"
 "http://www.w3.org/TR/2001/REC-SVG-20010904/DTD/svg10.dtd">
<svg version="1.0" xmlns="http://www.w3.org/2000/svg"
 width="50.000000pt" height="43.000000pt" viewBox="0 0 50.000000 43.000000"
 preserveAspectRatio="xMidYMid meet">
<metadata>
Created by potrace 1.16, written by Peter Selinger 2001-2019
</metadata>
<g transform="translate(0.000000,43.000000) scale(0.100000,-0.100000)"
fill="#000000" stroke="none">
<path d="M285 381 l7 -49 -21 -11 -20 -11 -15 21 -15 22 6 28 6 29 -72 0 -71
0 0 -41 0 -40 -10 -19 -10 -19 -30 5 -29 6 -7 -26 -6 -26 6 -25 6 -25 29 0 29
0 6 -16 6 -16 0 -45 0 -45 68 7 68 7 -4 -35 -4 -35 22 -12 22 -12 34 7 34 6 0
29 0 29 20 6 20 6 32 -6 31 -7 -7 61 -7 62 25 -7 24 -6 22 12 21 11 -3 42 -3
42 -30 3 -30 4 -7 11 -8 12 0 43 0 43 -35 15 -34 14 -37 0 -36 0 7 -49z"/>
</g>
</svg>
