<?xml version="1.0" standalone="no"?>
<!DOCTYPE svg PUBLIC "-//W3C//DTD SVG 20010904//EN"
 "http://www.w3.org/TR/2001/REC-SVG-20010904/DTD/svg10.dtd">
<svg version="1.0" xmlns="http://www.w3.org/2000/svg"
 width="50.000000pt" height="33.000000pt" viewBox="0 0 50.000000 33.000000"
 preserveAspectRatio="xMidYMid meet">
<metadata>
Created by potrace 1.16, written by Peter Selinger 2001-2019
</metadata>
<g transform="translate(0.000000,33.000000) scale(0.100000,-0.100000)"
fill="#000000" stroke="none">
<path d="M86 318 l-4 -13 -8 -40 -9 -40 -33 -10 -32 -9 0 -31 0 -31 13 -16 12
-16 20 -4 20 -3 3 -54 3 -53 61 4 61 4 13 19 14 19 0 23 0 23 9 0 10 0 8 -12
7 -13 -2 -22 -3 -22 21 -11 21 -11 52 3 52 3 3 52 3 53 38 0 37 0 12 12 12 12
0 37 0 38 -16 15 -15 16 -36 0 -36 0 6 45 7 45 -161 0 -160 0 -3 -12z"/>
</g>
</svg>
