<?xml version="1.0" standalone="no"?>
<!DOCTYPE svg PUBLIC "-//W3C//DTD SVG 20010904//EN"
 "http://www.w3.org/TR/2001/REC-SVG-20010904/DTD/svg10.dtd">
<svg version="1.0" xmlns="http://www.w3.org/2000/svg"
 width="36.000000pt" height="49.000000pt" viewBox="0 0 36.000000 49.000000"
 preserveAspectRatio="xMidYMid meet">
<metadata>
Created by potrace 1.16, written by Peter Selinger 2001-2019
</metadata>
<g transform="translate(0.000000,49.000000) scale(0.100000,-0.100000)"
fill="#000000" stroke="none">
<path d="M144 458 l6 -33 -9 -13 -8 -14 -54 -6 -54 -7 0 -55 0 -55 35 -5 35
-5 3 -17 3 -18 -13 -1 -13 -2 -35 -1 -35 -1 1 -55 1 -56 12 -22 12 -22 49 0
50 0 0 -19 0 -20 16 -16 16 -16 37 3 36 3 3 38 3 37 24 0 24 0 26 -12 26 -12
10 15 9 14 0 51 0 52 -14 12 -15 11 -18 -3 -18 -3 -12 8 -13 8 0 15 0 14 35 0
34 0 11 19 10 20 0 41 0 41 -14 15 -15 14 -45 0 -46 0 0 33 0 33 -12 12 -12
12 -39 0 -39 0 6 -32z"/>
</g>
</svg>
