<?xml version="1.0" standalone="no"?>
<!DOCTYPE svg PUBLIC "-//W3C//DTD SVG 20010904//EN"
 "http://www.w3.org/TR/2001/REC-SVG-20010904/DTD/svg10.dtd">
<svg version="1.0" xmlns="http://www.w3.org/2000/svg"
 width="34.000000pt" height="47.000000pt" viewBox="0 0 34.000000 47.000000"
 preserveAspectRatio="xMidYMid meet">
<metadata>
Created by potrace 1.16, written by Peter Selinger 2001-2019
</metadata>
<g transform="translate(0.000000,47.000000) scale(0.100000,-0.100000)"
fill="#000000" stroke="none">
<path d="M146 438 l5 -33 -9 -13 -9 -14 -54 -6 -54 -7 0 -45 0 -45 32 -3 33
-3 11 -21 11 -20 -12 -12 -11 -11 -42 0 -42 0 2 -46 1 -47 11 -21 12 -21 55 0
55 0 -6 -19 -6 -19 17 -16 17 -17 26 3 26 3 0 38 0 37 40 0 40 0 15 -10 14 -9
8 12 8 12 0 41 0 42 -13 10 -13 11 -20 -5 -20 -5 -13 15 -13 15 4 23 3 23 32
-3 32 -3 10 20 11 20 0 31 0 31 -12 13 -13 12 -45 3 -45 3 -8 5 -7 4 6 25 6
24 -12 15 -12 15 -29 0 -28 0 5 -32z"/>
</g>
</svg>
