<?xml version="1.0" standalone="no"?>
<!DOCTYPE svg PUBLIC "-//W3C//DTD SVG 20010904//EN"
 "http://www.w3.org/TR/2001/REC-SVG-20010904/DTD/svg10.dtd">
<svg version="1.0" xmlns="http://www.w3.org/2000/svg"
 width="40.000000pt" height="41.000000pt" viewBox="0 0 40.000000 41.000000"
 preserveAspectRatio="xMidYMid meet">
<metadata>
Created by potrace 1.16, written by Peter Selinger 2001-2019
</metadata>
<g transform="translate(0.000000,41.000000) scale(0.100000,-0.100000)"
fill="#000000" stroke="none">
<path d="M265 387 l7 -26 -7 -20 -6 -21 -44 0 -45 0 9 23 9 24 -6 10 -7 11
-20 2 -20 2 -27 -1 -28 -1 0 -54 0 -53 -25 5 -25 4 -15 -12 -15 -12 0 -20 0
-19 13 -13 12 -13 12 4 12 4 6 -28 6 -28 9 -35 9 -35 44 3 44 4 16 -17 16 -16
-6 -29 -5 -30 40 0 41 0 11 20 11 21 -3 22 -3 22 40 3 40 3 12 4 11 4 -17 58
-18 58 -16 -1 -16 -2 -7 20 -6 20 12 12 11 11 32 0 32 0 -3 55 -4 55 -8 8 -7
8 -57 6 -57 6 6 -26z"/>
</g>
</svg>
