<?xml version="1.0" standalone="no"?>
<!DOCTYPE svg PUBLIC "-//W3C//DTD SVG 20010904//EN"
 "http://www.w3.org/TR/2001/REC-SVG-20010904/DTD/svg10.dtd">
<svg version="1.0" xmlns="http://www.w3.org/2000/svg"
 width="42.000000pt" height="43.000000pt" viewBox="0 0 42.000000 43.000000"
 preserveAspectRatio="xMidYMid meet">
<metadata>
Created by potrace 1.16, written by Peter Selinger 2001-2019
</metadata>
<g transform="translate(0.000000,43.000000) scale(0.100000,-0.100000)"
fill="#000000" stroke="none">
<path d="M263 402 l6 -32 -5 -15 -6 -15 -29 0 -29 0 5 23 5 22 -8 12 -8 12
-29 3 -30 2 -27 -2 -28 -2 0 -50 0 -50 -28 0 -28 0 -12 -12 -12 -12 0 -29 0
-28 13 -13 12 -12 18 -7 17 -6 0 -24 0 -24 11 -32 11 -32 33 7 33 6 21 -7 21
-6 0 -40 0 -39 50 0 49 0 11 19 10 20 0 25 0 26 44 0 45 0 6 9 5 10 -17 61
-17 62 -25 9 -24 10 9 9 9 9 35 3 35 3 -3 65 -4 65 -8 9 -8 8 -68 6 -67 5 6
-31z"/>
</g>
</svg>
