<?xml version="1.0" standalone="no"?>
<!DOCTYPE svg PUBLIC "-//W3C//DTD SVG 20010904//EN"
 "http://www.w3.org/TR/2001/REC-SVG-20010904/DTD/svg10.dtd">
<svg version="1.0" xmlns="http://www.w3.org/2000/svg"
 width="30.000000pt" height="31.000000pt" viewBox="0 0 30.000000 31.000000"
 preserveAspectRatio="xMidYMid meet">
<metadata>
Created by potrace 1.16, written by Peter Selinger 2001-2019
</metadata>
<g transform="translate(0.000000,31.000000) scale(0.100000,-0.100000)"
fill="#000000" stroke="none">
<path d="M0 153 l0 -153 59 0 60 0 3 43 3 42 22 3 22 3 11 -20 10 -21 -6 -25
-6 -25 55 0 56 0 4 8 5 7 -5 47 -5 47 -32 3 -31 3 0 45 0 45 38 3 37 3 0 45 0
44 -49 0 -48 0 5 -27 5 -26 -18 -14 -19 -13 -23 0 -22 0 -11 19 -10 20 6 15 6
16 -27 10 -26 10 -35 -3 -34 -2 0 -152z"/>
</g>
</svg>
