<?xml version="1.0" standalone="no"?>
<!DOCTYPE svg PUBLIC "-//W3C//DTD SVG 20010904//EN"
 "http://www.w3.org/TR/2001/REC-SVG-20010904/DTD/svg10.dtd">
<svg version="1.0" xmlns="http://www.w3.org/2000/svg"
 width="42.000000pt" height="41.000000pt" viewBox="0 0 42.000000 41.000000"
 preserveAspectRatio="xMidYMid meet">
<metadata>
Created by potrace 1.16, written by Peter Selinger 2001-2019
</metadata>
<g transform="translate(0.000000,41.000000) scale(0.100000,-0.100000)"
fill="#000000" stroke="none">
<path d="M36 403 l-18 -5 4 -55 5 -55 14 -9 14 -9 23 3 22 4 0 -18 0 -19 -17
-20 -17 -20 -33 0 -33 0 0 -14 0 -13 6 -47 7 -46 58 0 59 0 0 -28 0 -28 12
-12 12 -12 30 0 31 0 13 9 13 8 8 29 7 29 40 5 39 5 13 63 14 62 23 0 24 0 6
20 6 19 -11 21 -11 20 -34 0 -35 0 0 56 0 56 -42 -7 -43 -6 -18 -6 -19 -5 6
-22 5 -21 -8 -13 -8 -14 -29 4 -29 3 -5 40 -5 39 -25 7 -25 7 -15 0 -15 0 -19
-5z"/>
</g>
</svg>
