<?xml version="1.0" standalone="no"?>
<!DOCTYPE svg PUBLIC "-//W3C//DTD SVG 20010904//EN"
 "http://www.w3.org/TR/2001/REC-SVG-20010904/DTD/svg10.dtd">
<svg version="1.0" xmlns="http://www.w3.org/2000/svg"
 width="30.000000pt" height="32.000000pt" viewBox="0 0 30.000000 32.000000"
 preserveAspectRatio="xMidYMid meet">
<metadata>
Created by potrace 1.16, written by Peter Selinger 2001-2019
</metadata>
<g transform="translate(0.000000,32.000000) scale(0.100000,-0.100000)"
fill="#000000" stroke="none">
<path d="M13 313 l-13 -5 0 -34 0 -35 10 -20 11 -19 25 0 25 0 5 -13 5 -14
-11 -27 -10 -27 -16 3 -17 3 -13 -55 -13 -55 -1 -2 0 -3 49 0 50 0 7 12 8 13
-3 32 -3 33 16 6 16 6 25 -6 25 -6 0 -44 0 -44 55 -4 55 -3 0 50 0 50 -9 14
-9 14 -17 -7 -16 -6 -20 11 -20 10 3 32 3 32 25 1 25 1 18 8 17 7 0 45 0 44
-47 -6 -48 -7 -15 -4 -16 -4 1 -26 0 -26 -17 -11 -16 -11 -27 12 -28 13 6 34
5 33 -15 6 -15 6 -21 -1 -22 -1 -12 -5z"/>
</g>
</svg>
