<?xml version="1.0" standalone="no"?>
<!DOCTYPE svg PUBLIC "-//W3C//DTD SVG 20010904//EN"
 "http://www.w3.org/TR/2001/REC-SVG-20010904/DTD/svg10.dtd">
<svg version="1.0" xmlns="http://www.w3.org/2000/svg"
 width="43.000000pt" height="34.000000pt" viewBox="0 0 43.000000 34.000000"
 preserveAspectRatio="xMidYMid meet">
<metadata>
Created by potrace 1.16, written by Peter Selinger 2001-2019
</metadata>
<g transform="translate(0.000000,34.000000) scale(0.100000,-0.100000)"
fill="#000000" stroke="none">
<path d="M108 333 l-18 -4 0 -45 0 -44 -22 -4 -23 -5 -20 -3 -20 -3 -3 -42 -3
-42 21 -11 22 -12 18 5 19 5 5 -15 6 -15 0 -44 0 -44 58 0 58 0 12 12 12 12 0
21 0 22 7 6 6 7 13 -11 13 -10 -6 -35 -6 -34 54 0 54 0 21 6 21 6 12 37 11 38
0 28 0 27 -27 -5 -27 -5 -23 15 -23 15 0 14 0 13 12 7 12 8 28 -2 28 -2 0 65
0 65 -14 0 -13 0 -29 -9 -29 -9 -28 -7 -28 -6 3 -27 3 -27 -24 -3 -24 -4 -7
13 -8 12 5 32 5 32 -23 6 -24 7 -25 -1 -25 -1 -17 -5z"/>
</g>
</svg>
