<?xml version="1.0" standalone="no"?>
<!DOCTYPE svg PUBLIC "-//W3C//DTD SVG 20010904//EN"
 "http://www.w3.org/TR/2001/REC-SVG-20010904/DTD/svg10.dtd">
<svg version="1.0" xmlns="http://www.w3.org/2000/svg"
 width="41.000000pt" height="32.000000pt" viewBox="0 0 41.000000 32.000000"
 preserveAspectRatio="xMidYMid meet">
<metadata>
Created by potrace 1.16, written by Peter Selinger 2001-2019
</metadata>
<g transform="translate(0.000000,32.000000) scale(0.100000,-0.100000)"
fill="#000000" stroke="none">
<path d="M108 313 l-18 -4 0 -44 0 -43 -17 -7 -18 -8 -25 -1 -25 -1 -3 -32 -3
-32 20 -10 20 -11 16 6 17 7 9 -14 9 -14 0 -47 0 -48 49 0 49 0 12 15 12 15
-5 20 -5 19 20 6 19 7 15 -13 16 -13 -7 -33 -6 -33 43 0 43 0 21 6 21 6 12 37
11 38 0 17 0 16 -24 -6 -24 -6 -26 17 -26 17 0 24 0 23 20 11 21 11 19 -6 20
-6 0 55 0 56 -4 0 -3 0 -29 -9 -29 -9 -27 -6 -27 -6 2 -28 2 -27 -34 -3 -34
-3 -9 13 -8 13 5 31 5 32 -22 6 -23 6 -15 -1 -15 -1 -17 -5z"/>
</g>
</svg>
