<?xml version="1.0" standalone="no"?>
<!DOCTYPE svg PUBLIC "-//W3C//DTD SVG 20010904//EN"
 "http://www.w3.org/TR/2001/REC-SVG-20010904/DTD/svg10.dtd">
<svg version="1.0" xmlns="http://www.w3.org/2000/svg"
 width="40.000000pt" height="39.000000pt" viewBox="0 0 40.000000 39.000000"
 preserveAspectRatio="xMidYMid meet">
<metadata>
Created by potrace 1.16, written by Peter Selinger 2001-2019
</metadata>
<g transform="translate(0.000000,39.000000) scale(0.100000,-0.100000)"
fill="#000000" stroke="none">
<path d="M93 382 l-12 -7 -3 -50 -3 -50 -32 2 -32 3 -6 -20 -6 -20 6 -10 6
-10 27 0 27 0 14 -9 13 -9 -7 -60 -7 -61 59 -3 58 -3 -3 -33 -3 -32 15 -6 16
-6 26 6 26 7 -4 34 -4 35 52 0 52 0 9 12 10 13 6 36 5 36 -9 14 -8 14 -33 0
-33 0 -3 23 -3 22 19 0 19 0 16 18 17 19 0 35 0 36 -6 16 -6 16 -50 0 -49 0 6
-19 6 -18 -10 -26 -10 -26 -25 -7 -25 -6 -21 7 -22 7 4 39 3 39 -13 5 -14 5
-21 0 -22 0 -12 -8z"/>
</g>
</svg>
