<?xml version="1.0" standalone="no"?>
<!DOCTYPE svg PUBLIC "-//W3C//DTD SVG 20010904//EN"
 "http://www.w3.org/TR/2001/REC-SVG-20010904/DTD/svg10.dtd">
<svg version="1.0" xmlns="http://www.w3.org/2000/svg"
 width="42.000000pt" height="41.000000pt" viewBox="0 0 42.000000 41.000000"
 preserveAspectRatio="xMidYMid meet">
<metadata>
Created by potrace 1.16, written by Peter Selinger 2001-2019
</metadata>
<g transform="translate(0.000000,41.000000) scale(0.100000,-0.100000)"
fill="#000000" stroke="none">
<path d="M93 402 l-12 -7 -3 -50 -3 -50 -32 3 -32 3 -7 -25 -6 -26 6 -15 5
-15 25 0 24 0 16 -6 16 -6 -6 -64 -7 -64 56 0 56 0 3 -37 3 -38 24 -3 23 -4
24 6 24 6 0 35 0 35 49 0 49 0 9 13 10 12 7 43 6 43 -10 20 -11 20 -31 -3 -31
-3 -4 13 -5 12 20 0 19 0 16 18 17 19 0 45 0 46 -6 16 -6 16 -60 0 -59 0 1
-22 2 -23 -1 -17 -1 -17 -20 -11 -21 -11 -20 6 -21 7 6 38 6 38 -16 6 -16 6
-31 0 -32 0 -12 -8z"/>
</g>
</svg>
