<?xml version="1.0" standalone="no"?>
<!DOCTYPE svg PUBLIC "-//W3C//DTD SVG 20010904//EN"
 "http://www.w3.org/TR/2001/REC-SVG-20010904/DTD/svg10.dtd">
<svg version="1.0" xmlns="http://www.w3.org/2000/svg"
 width="34.000000pt" height="35.000000pt" viewBox="0 0 34.000000 35.000000"
 preserveAspectRatio="xMidYMid meet">
<metadata>
Created by potrace 1.16, written by Peter Selinger 2001-2019
</metadata>
<g transform="translate(0.000000,35.000000) scale(0.100000,-0.100000)"
fill="#000000" stroke="none">
<path d="M193 304 l2 -46 -17 -11 -16 -11 -16 13 -16 13 0 34 0 34 -55 0 -54
0 -11 -21 -12 -20 7 -39 7 -39 41 -3 42 -3 3 -23 4 -23 -12 -15 -12 -14 -35 0
-34 0 3 -62 3 -63 41 -3 40 -3 27 10 27 11 0 30 0 30 14 0 15 0 3 -37 3 -38
65 -3 66 -3 12 34 12 33 0 37 0 37 -43 -6 -43 -6 -13 15 -13 16 4 18 3 18 40
5 40 5 3 61 3 62 -32 11 -32 11 -33 0 -34 0 3 -46z"/>
</g>
</svg>
