<?xml version="1.0" standalone="no"?>
<!DOCTYPE svg PUBLIC "-//W3C//DTD SVG 20010904//EN"
 "http://www.w3.org/TR/2001/REC-SVG-20010904/DTD/svg10.dtd">
<svg version="1.0" xmlns="http://www.w3.org/2000/svg"
 width="49.000000pt" height="35.000000pt" viewBox="0 0 49.000000 35.000000"
 preserveAspectRatio="xMidYMid meet">
<metadata>
Created by potrace 1.16, written by Peter Selinger 2001-2019
</metadata>
<g transform="translate(0.000000,35.000000) scale(0.100000,-0.100000)"
fill="#000000" stroke="none">
<path d="M270 311 l0 -40 -15 -15 -16 -15 -14 5 -15 6 0 38 0 38 -16 6 -16 6
-26 0 -27 0 -23 -6 -22 -6 0 -44 0 -43 -37 -3 -38 -3 0 -55 0 -55 33 -3 32 -3
1 -37 1 -37 -1 -17 -2 -18 69 0 70 0 12 15 12 15 -4 30 -5 30 18 0 18 0 8 -12
8 -13 0 -35 0 -35 66 -3 67 -3 1 61 1 61 5 10 6 9 23 0 22 0 12 12 12 12 0 16
0 17 -18 16 -19 17 -30 0 -30 0 5 54 4 53 -38 6 -39 7 -27 0 -28 0 0 -39z"/>
</g>
</svg>
