<?xml version="1.0" standalone="no"?>
<!DOCTYPE svg PUBLIC "-//W3C//DTD SVG 20010904//EN"
 "http://www.w3.org/TR/2001/REC-SVG-20010904/DTD/svg10.dtd">
<svg version="1.0" xmlns="http://www.w3.org/2000/svg"
 width="47.000000pt" height="34.000000pt" viewBox="0 0 47.000000 34.000000"
 preserveAspectRatio="xMidYMid meet">
<metadata>
Created by potrace 1.16, written by Peter Selinger 2001-2019
</metadata>
<g transform="translate(0.000000,34.000000) scale(0.100000,-0.100000)"
fill="#000000" stroke="none">
<path d="M279 333 l-1 -8 2 -27 1 -27 -11 -21 -11 -21 -32 3 -32 3 2 31 3 32
-13 10 -12 10 -25 3 -25 2 -16 -1 -15 -2 -10 -52 -9 -53 -37 -3 -38 -3 0 -24
0 -24 19 -11 19 -10 30 6 30 6 6 -19 6 -18 -10 -35 -10 -35 0 -12 0 -13 61 0
62 0 -6 29 -6 29 14 12 14 11 21 -11 21 -11 -3 -37 -3 -37 29 -3 28 -4 25 7
24 6 -3 67 -3 67 50 5 50 5 3 21 3 20 -26 12 -26 12 -25 -6 -26 -7 3 58 3 58
-20 8 -19 8 -27 0 -28 1 -1 -7z"/>
</g>
</svg>
