<?xml version="1.0" standalone="no"?>
<!DOCTYPE svg PUBLIC "-//W3C//DTD SVG 20010904//EN"
 "http://www.w3.org/TR/2001/REC-SVG-20010904/DTD/svg10.dtd">
<svg version="1.0" xmlns="http://www.w3.org/2000/svg"
 width="50.000000pt" height="40.000000pt" viewBox="0 0 50.000000 40.000000"
 preserveAspectRatio="xMidYMid meet">
<metadata>
Created by potrace 1.16, written by Peter Selinger 2001-2019
</metadata>
<g transform="translate(0.000000,40.000000) scale(0.100000,-0.100000)"
fill="#000000" stroke="none">
<path d="M212 388 l-12 -12 0 -28 0 -28 -60 0 -60 0 0 -50 0 -50 -29 0 -29 0
-11 -14 -12 -15 3 -33 3 -33 33 -3 32 -3 0 -60 0 -60 78 3 77 3 3 37 3 38 12
0 12 0 10 -21 10 -21 58 -19 58 -20 9 6 10 6 0 45 0 44 21 0 20 0 19 10 18 9
6 26 6 25 -6 26 -6 25 -30 -3 -29 -3 -9 15 -10 15 0 41 0 40 -57 15 -58 15
-10 22 -10 22 -25 0 -26 0 -12 -12z"/>
</g>
</svg>
