<?xml version="1.0" standalone="no"?>
<!DOCTYPE svg PUBLIC "-//W3C//DTD SVG 20010904//EN"
 "http://www.w3.org/TR/2001/REC-SVG-20010904/DTD/svg10.dtd">
<svg version="1.0" xmlns="http://www.w3.org/2000/svg"
 width="48.000000pt" height="38.000000pt" viewBox="0 0 48.000000 38.000000"
 preserveAspectRatio="xMidYMid meet">
<metadata>
Created by potrace 1.16, written by Peter Selinger 2001-2019
</metadata>
<g transform="translate(0.000000,38.000000) scale(0.100000,-0.100000)"
fill="#000000" stroke="none">
<path d="M210 365 l-12 -15 6 -25 6 -25 -66 0 -67 0 6 -53 5 -53 -32 4 -32 4
-13 -16 -13 -15 4 -23 3 -23 27 0 27 -1 5 -5 6 -5 2 -58 2 -57 66 3 65 3 3 37
3 38 22 0 22 0 10 -21 10 -21 53 -18 54 -17 3 11 4 11 3 40 3 40 20 1 20 1 13
2 12 1 10 24 9 24 -6 21 -6 22 -28 -6 -28 -6 -10 20 -11 20 0 38 0 39 -57 15
-58 15 -10 22 -10 22 -16 0 -17 0 -12 -15z"/>
</g>
</svg>
