<?xml version="1.0" standalone="no"?>
<!DOCTYPE svg PUBLIC "-//W3C//DTD SVG 20010904//EN"
 "http://www.w3.org/TR/2001/REC-SVG-20010904/DTD/svg10.dtd">
<svg version="1.0" xmlns="http://www.w3.org/2000/svg"
 width="30.000000pt" height="40.000000pt" viewBox="0 0 30.000000 40.000000"
 preserveAspectRatio="xMidYMid meet">
<metadata>
Created by potrace 1.16, written by Peter Selinger 2001-2019
</metadata>
<g transform="translate(0.000000,40.000000) scale(0.100000,-0.100000)"
fill="#000000" stroke="none">
<path d="M111 381 l-11 -20 0 -20 0 -21 -50 0 -50 0 0 -39 0 -39 6 -16 6 -16
34 0 35 0 6 -16 6 -17 -10 -16 -10 -16 -24 0 -24 0 -7 -40 -7 -40 0 -22 -1
-23 34 0 35 0 16 17 17 16 -6 29 -5 28 33 0 34 0 11 -14 12 -14 -3 -38 -3 -38
18 -4 19 -4 33 6 33 7 -4 37 -4 37 -6 28 -6 28 -16 -2 -17 -1 -12 1 -13 1 0
30 0 29 19 11 20 10 16 -6 17 -7 7 11 6 11 -3 45 -4 45 -51 3 -52 3 0 35 0 35
-32 3 -32 3 -10 -20z"/>
</g>
</svg>
