<?xml version="1.0" standalone="no"?>
<!DOCTYPE svg PUBLIC "-//W3C//DTD SVG 20010904//EN"
 "http://www.w3.org/TR/2001/REC-SVG-20010904/DTD/svg10.dtd">
<svg version="1.0" xmlns="http://www.w3.org/2000/svg"
 width="32.000000pt" height="42.000000pt" viewBox="0 0 32.000000 42.000000"
 preserveAspectRatio="xMidYMid meet">
<metadata>
Created by potrace 1.16, written by Peter Selinger 2001-2019
</metadata>
<g transform="translate(0.000000,42.000000) scale(0.100000,-0.100000)"
fill="#000000" stroke="none">
<path d="M111 401 l-11 -20 0 -20 0 -21 -50 0 -50 0 0 -49 0 -49 6 -16 6 -16
33 0 34 0 7 -11 6 -11 -11 -11 -11 -11 -23 -1 -22 0 -7 -40 -7 -40 0 -32 -1
-33 44 0 45 0 15 16 16 15 0 30 0 29 19 0 20 0 8 -12 8 -13 0 -40 0 -40 29 -3
29 -4 35 7 34 6 -6 52 -7 52 -6 22 -5 23 -30 0 -29 0 3 23 3 22 37 3 36 3 5
12 5 12 -6 53 -5 52 -48 0 -48 0 -3 38 -3 37 -42 3 -42 3 -10 -20z"/>
</g>
</svg>
