<?xml version="1.0" standalone="no"?>
<!DOCTYPE svg PUBLIC "-//W3C//DTD SVG 20010904//EN"
 "http://www.w3.org/TR/2001/REC-SVG-20010904/DTD/svg10.dtd">
<svg version="1.0" xmlns="http://www.w3.org/2000/svg"
 width="34.000000pt" height="47.000000pt" viewBox="0 0 34.000000 47.000000"
 preserveAspectRatio="xMidYMid meet">
<metadata>
Created by potrace 1.16, written by Peter Selinger 2001-2019
</metadata>
<g transform="translate(0.000000,47.000000) scale(0.100000,-0.100000)"
fill="#000000" stroke="none">
<path d="M160 462 l-15 -5 -7 -11 -7 -11 6 -22 5 -23 -56 0 -56 0 0 -37 0 -38
8 -12 7 -11 35 -4 35 -3 3 -27 3 -27 -21 -11 -21 -11 -34 2 -34 3 -6 -6 -7 -7
16 -55 17 -56 51 0 51 0 -6 -29 -6 -29 12 -17 13 -17 34 4 35 3 0 25 0 25 58
15 57 14 6 31 6 32 -4 29 -3 29 -43 6 -44 6 -9 14 -9 14 0 7 0 7 16 16 16 16
33 -7 33 -6 7 22 7 22 -7 34 -6 35 -17 -5 -17 -5 -37 -6 -36 -7 -5 19 -5 18
-6 26 -6 27 -12 4 -13 5 -15 -5z"/>
</g>
</svg>
