<?xml version="1.0" standalone="no"?>
<!DOCTYPE svg PUBLIC "-//W3C//DTD SVG 20010904//EN"
 "http://www.w3.org/TR/2001/REC-SVG-20010904/DTD/svg10.dtd">
<svg version="1.0" xmlns="http://www.w3.org/2000/svg"
 width="36.000000pt" height="49.000000pt" viewBox="0 0 36.000000 49.000000"
 preserveAspectRatio="xMidYMid meet">
<metadata>
Created by potrace 1.16, written by Peter Selinger 2001-2019
</metadata>
<g transform="translate(0.000000,49.000000) scale(0.100000,-0.100000)"
fill="#000000" stroke="none">
<path d="M158 483 l-18 -4 -6 -24 -6 -24 7 -10 6 -11 -55 0 -56 0 0 -44 0 -44
6 -16 6 -16 34 0 35 0 6 -16 6 -17 -19 -14 -19 -14 -40 3 -39 3 -4 -17 -3 -18
16 -55 16 -55 49 0 50 0 -6 -24 -6 -24 12 -22 11 -21 47 3 47 3 3 27 3 27 54
12 55 12 6 31 5 32 -3 39 -3 40 -25 3 -25 3 -22 4 -23 5 0 20 0 20 13 1 12 1
32 -2 32 -1 7 26 6 26 -5 36 -6 35 -5 5 -5 5 -48 -10 -48 -11 -7 12 -8 12 0
22 0 22 -16 15 -15 16 -12 -1 -12 -1 -17 -5z"/>
</g>
</svg>
