<?xml version="1.0" standalone="no"?>
<!DOCTYPE svg PUBLIC "-//W3C//DTD SVG 20010904//EN"
 "http://www.w3.org/TR/2001/REC-SVG-20010904/DTD/svg10.dtd">
<svg version="1.0" xmlns="http://www.w3.org/2000/svg"
 width="40.000000pt" height="47.000000pt" viewBox="0 0 40.000000 47.000000"
 preserveAspectRatio="xMidYMid meet">
<metadata>
Created by potrace 1.16, written by Peter Selinger 2001-2019
</metadata>
<g transform="translate(0.000000,47.000000) scale(0.100000,-0.100000)"
fill="#000000" stroke="none">
<path d="M223 463 l-13 -5 0 -29 0 -29 -22 -5 -23 -5 -35 -2 -35 -3 -5 -40 -5
-40 -30 -3 -30 -4 -12 -10 -13 -10 0 -24 0 -23 21 -12 21 -11 34 4 34 4 0 -28
0 -29 -15 -36 -15 -36 63 5 62 5 -3 -37 -4 -38 22 -12 22 -12 27 20 26 20 -1
31 -2 31 28 0 29 0 25 -10 26 -10 -4 23 -5 22 -6 38 -6 39 -21 -5 -20 -6 -13
6 -14 5 -6 29 -7 30 12 14 12 15 35 0 34 0 -3 53 -3 52 -50 17 -50 16 -14 21
-13 21 -12 -1 -11 -1 -12 -5z"/>
</g>
</svg>
