<?xml version="1.0" standalone="no"?>
<!DOCTYPE svg PUBLIC "-//W3C//DTD SVG 20010904//EN"
 "http://www.w3.org/TR/2001/REC-SVG-20010904/DTD/svg10.dtd">
<svg version="1.0" xmlns="http://www.w3.org/2000/svg"
 width="42.000000pt" height="49.000000pt" viewBox="0 0 42.000000 49.000000"
 preserveAspectRatio="xMidYMid meet">
<metadata>
Created by potrace 1.16, written by Peter Selinger 2001-2019
</metadata>
<g transform="translate(0.000000,49.000000) scale(0.100000,-0.100000)"
fill="#000000" stroke="none">
<path d="M223 483 l-13 -5 0 -29 0 -29 -22 -5 -23 -5 -35 -2 -35 -3 -5 -40 -5
-40 -30 -3 -30 -4 -12 -10 -13 -10 0 -34 0 -33 19 -11 20 -10 35 0 36 0 0 -15
0 -16 -15 -36 -15 -35 0 -9 0 -9 59 0 60 0 3 -37 3 -38 28 -9 27 -10 28 21 27
20 3 33 3 32 27 -6 27 -6 24 -6 23 -7 -6 44 -7 44 -5 28 -6 27 -33 0 -33 0 -5
22 -6 22 11 13 10 13 35 0 34 0 -3 63 -3 62 -50 17 -50 16 -14 21 -13 21 -22
-1 -21 -1 -12 -5z"/>
</g>
</svg>
