<?xml version="1.0" standalone="no"?>
<!DOCTYPE svg PUBLIC "-//W3C//DTD SVG 20010904//EN"
 "http://www.w3.org/TR/2001/REC-SVG-20010904/DTD/svg10.dtd">
<svg version="1.0" xmlns="http://www.w3.org/2000/svg"
 width="33.000000pt" height="41.000000pt" viewBox="0 0 33.000000 41.000000"
 preserveAspectRatio="xMidYMid meet">
<metadata>
Created by potrace 1.16, written by Peter Selinger 2001-2019
</metadata>
<g transform="translate(0.000000,41.000000) scale(0.100000,-0.100000)"
fill="#000000" stroke="none">
<path d="M115 398 l-4 -13 -3 -25 -3 -25 -52 -3 -53 -3 0 -44 0 -44 10 -26 10
-27 38 4 37 3 0 -20 0 -20 -31 -3 -32 -3 -11 -60 -12 -59 5 -9 6 -8 37 -6 38
-6 23 6 23 6 -6 29 -7 29 12 14 12 15 14 0 14 0 0 -24 0 -25 10 -6 10 -6 55
-15 56 -14 6 0 6 0 -7 61 -7 60 -6 15 -5 14 -23 0 -24 0 -6 10 -6 10 8 12 8
13 35 0 35 0 0 60 0 60 -65 5 -65 5 -1 25 -1 25 -1 13 -2 12 -35 0 -36 0 -4
-12z"/>
</g>
</svg>
