<?xml version="1.0" standalone="no"?>
<!DOCTYPE svg PUBLIC "-//W3C//DTD SVG 20010904//EN"
 "http://www.w3.org/TR/2001/REC-SVG-20010904/DTD/svg10.dtd">
<svg version="1.0" xmlns="http://www.w3.org/2000/svg"
 width="35.000000pt" height="42.000000pt" viewBox="0 0 35.000000 42.000000"
 preserveAspectRatio="xMidYMid meet">
<metadata>
Created by potrace 1.16, written by Peter Selinger 2001-2019
</metadata>
<g transform="translate(0.000000,42.000000) scale(0.100000,-0.100000)"
fill="#000000" stroke="none">
<path d="M135 408 l-4 -13 -3 -25 -3 -25 -57 -3 -56 -3 -7 -60 -7 -60 12 -14
13 -15 33 6 33 6 10 -6 10 -7 -6 -14 -5 -15 -34 0 -34 0 -5 -22 -5 -23 -2 -45
-3 -45 69 -3 69 -3 -6 40 -5 40 13 11 14 11 16 -25 17 -25 -7 -11 -7 -11 7
-26 6 -26 57 6 57 6 12 16 12 17 6 39 7 38 -7 11 -6 10 -33 0 -33 0 -19 21
-18 20 11 17 10 17 34 0 34 0 3 63 3 62 -48 0 -48 0 -10 8 -10 7 0 30 0 30
-38 3 -37 3 -5 -13z"/>
</g>
</svg>
