<?xml version="1.0" standalone="no"?>
<!DOCTYPE svg PUBLIC "-//W3C//DTD SVG 20010904//EN"
 "http://www.w3.org/TR/2001/REC-SVG-20010904/DTD/svg10.dtd">
<svg version="1.0" xmlns="http://www.w3.org/2000/svg"
 width="49.000000pt" height="47.000000pt" viewBox="0 0 49.000000 47.000000"
 preserveAspectRatio="xMidYMid meet">
<metadata>
Created by potrace 1.16, written by Peter Selinger 2001-2019
</metadata>
<g transform="translate(0.000000,47.000000) scale(0.100000,-0.100000)"
fill="#000000" stroke="none">
<path d="M230 441 l0 -30 -12 -8 -13 -8 -50 -5 -50 -5 -3 -35 -2 -35 -5 -22
-5 -22 -43 2 -42 2 -3 -27 -3 -27 21 -11 21 -11 22 3 22 3 3 -30 2 -30 5 -31
5 -31 43 8 42 8 13 1 12 0 0 -39 0 -39 15 -12 16 -13 25 12 25 11 -3 17 -3 16
49 13 49 13 8 8 8 8 -16 49 -16 49 10 16 10 16 49 0 49 0 0 25 0 25 -40 0 -40
0 -3 50 -3 51 -52 -1 -52 0 3 29 3 28 -17 19 -17 19 -19 0 -18 0 0 -29z"/>
</g>
</svg>
