<?xml version="1.0" standalone="no"?>
<!DOCTYPE svg PUBLIC "-//W3C//DTD SVG 20010904//EN"
 "http://www.w3.org/TR/2001/REC-SVG-20010904/DTD/svg10.dtd">
<svg version="1.0" xmlns="http://www.w3.org/2000/svg"
 width="51.000000pt" height="49.000000pt" viewBox="0 0 51.000000 49.000000"
 preserveAspectRatio="xMidYMid meet">
<metadata>
Created by potrace 1.16, written by Peter Selinger 2001-2019
</metadata>
<g transform="translate(0.000000,49.000000) scale(0.100000,-0.100000)"
fill="#000000" stroke="none">
<path d="M230 461 l0 -30 -12 -8 -13 -8 -50 -5 -50 -5 -3 -35 -2 -35 -5 -20
-4 -20 -43 0 -43 0 -3 -35 -4 -34 18 -13 18 -13 28 0 28 0 0 -37 0 -38 6 -23
6 -22 37 6 36 6 17 4 17 5 3 -42 3 -42 17 -11 17 -10 28 10 28 9 3 22 3 21 39
7 38 6 18 13 18 14 -17 53 -17 53 7 7 8 8 50 3 50 3 0 35 0 35 -40 1 -40 0 -3
52 -3 53 -50 -7 -49 -7 0 35 0 35 -18 16 -19 17 -26 0 -27 0 0 -29z"/>
</g>
</svg>
