<?xml version="1.0" standalone="no"?>
<!DOCTYPE svg PUBLIC "-//W3C//DTD SVG 20010904//EN"
 "http://www.w3.org/TR/2001/REC-SVG-20010904/DTD/svg10.dtd">
<svg version="1.0" xmlns="http://www.w3.org/2000/svg"
 width="44.000000pt" height="49.000000pt" viewBox="0 0 44.000000 49.000000"
 preserveAspectRatio="xMidYMid meet">
<metadata>
Created by potrace 1.16, written by Peter Selinger 2001-2019
</metadata>
<g transform="translate(0.000000,49.000000) scale(0.100000,-0.100000)"
fill="#000000" stroke="none">
<path d="M210 471 l-10 -20 0 -25 0 -26 -55 0 -55 0 0 -39 0 -39 -6 -16 -6
-16 -23 0 -23 0 -16 -6 -16 -6 0 -32 0 -32 12 -12 12 -12 28 0 27 0 7 -59 6
-59 51 2 51 1 0 -35 1 -35 43 -3 43 -3 15 12 14 11 0 29 0 29 59 0 58 0 7 37
6 38 0 44 0 44 -39 -6 -38 -5 -14 9 -14 9 32 0 32 0 11 19 10 20 0 55 0 55
-62 3 -63 3 3 28 4 28 -12 15 -12 14 -29 0 -28 0 -11 -19z"/>
</g>
</svg>
