<?xml version="1.0" standalone="no"?>
<!DOCTYPE svg PUBLIC "-//W3C//DTD SVG 20010904//EN"
 "http://www.w3.org/TR/2001/REC-SVG-20010904/DTD/svg10.dtd">
<svg version="1.0" xmlns="http://www.w3.org/2000/svg"
 width="37.000000pt" height="50.000000pt" viewBox="0 0 37.000000 50.000000"
 preserveAspectRatio="xMidYMid meet">
<metadata>
Created by potrace 1.16, written by Peter Selinger 2001-2019
</metadata>
<g transform="translate(0.000000,50.000000) scale(0.100000,-0.100000)"
fill="#000000" stroke="none">
<path d="M163 492 l-11 -7 1 -35 2 -35 -67 -3 -66 -3 5 -57 5 -57 4 -13 4 -14
37 4 38 3 0 -15 0 -15 -45 0 -45 0 -12 -8 -13 -8 0 -23 0 -24 16 -50 16 -50
55 5 54 6 -7 -27 -6 -27 17 -19 18 -20 23 0 22 0 16 6 16 6 0 39 0 39 64 0 64
0 -5 67 -5 68 -3 13 -4 12 -31 0 -30 0 0 18 0 18 35 -4 35 -4 0 65 0 65 -32
10 -33 10 -26 6 -26 6 4 23 5 24 -24 6 -23 7 -15 0 -15 0 -12 -8z"/>
</g>
</svg>
