<?xml version="1.0" standalone="no"?>
<!DOCTYPE svg PUBLIC "-//W3C//DTD SVG 20010904//EN"
 "http://www.w3.org/TR/2001/REC-SVG-20010904/DTD/svg10.dtd">
<svg version="1.0" xmlns="http://www.w3.org/2000/svg"
 width="35.000000pt" height="48.000000pt" viewBox="0 0 35.000000 48.000000"
 preserveAspectRatio="xMidYMid meet">
<metadata>
Created by potrace 1.16, written by Peter Selinger 2001-2019
</metadata>
<g transform="translate(0.000000,48.000000) scale(0.100000,-0.100000)"
fill="#000000" stroke="none">
<path d="M165 472 l-10 -7 0 -35 0 -35 -65 -3 -65 -3 5 -57 5 -57 40 0 40 0 0
-25 0 -25 -49 0 -49 0 -10 -16 -10 -16 17 -54 17 -54 56 4 56 3 -6 -30 -6 -30
19 -17 19 -17 26 6 25 6 0 40 0 40 63 0 62 0 -5 67 -5 68 -30 0 -30 0 -3 33
-3 33 35 -7 36 -6 0 55 0 55 -32 10 -33 10 -28 7 -29 6 6 23 6 24 -23 6 -22 6
-5 0 -5 0 -10 -8z"/>
</g>
</svg>
