<?xml version="1.0" standalone="no"?>
<!DOCTYPE svg PUBLIC "-//W3C//DTD SVG 20010904//EN"
 "http://www.w3.org/TR/2001/REC-SVG-20010904/DTD/svg10.dtd">
<svg version="1.0" xmlns="http://www.w3.org/2000/svg"
 width="43.000000pt" height="40.000000pt" viewBox="0 0 43.000000 40.000000"
 preserveAspectRatio="xMidYMid meet">
<metadata>
Created by potrace 1.16, written by Peter Selinger 2001-2019
</metadata>
<g transform="translate(0.000000,40.000000) scale(0.100000,-0.100000)"
fill="#000000" stroke="none">
<path d="M140 366 l0 -36 -25 -6 -26 -6 -39 6 -40 6 0 -64 0 -64 15 -12 15
-12 25 5 26 4 -3 -26 -3 -26 -40 0 -40 0 -3 -68 -3 -68 73 3 73 3 3 33 3 32
18 0 19 0 5 -19 5 -19 54 -12 54 -12 19 3 20 4 5 39 5 38 35 12 35 11 0 50 0
50 -40 0 -40 0 -5 50 -5 50 -62 3 -62 3 -3 37 -3 37 -32 3 -33 3 0 -35z"/>
</g>
</svg>
