<?xml version="1.0" standalone="no"?>
<!DOCTYPE svg PUBLIC "-//W3C//DTD SVG 20010904//EN"
 "http://www.w3.org/TR/2001/REC-SVG-20010904/DTD/svg10.dtd">
<svg version="1.0" xmlns="http://www.w3.org/2000/svg"
 width="41.000000pt" height="50.000000pt" viewBox="0 0 41.000000 50.000000"
 preserveAspectRatio="xMidYMid meet">
<metadata>
Created by potrace 1.16, written by Peter Selinger 2001-2019
</metadata>
<g transform="translate(0.000000,50.000000) scale(0.100000,-0.100000)"
fill="#000000" stroke="none">
<path d="M105 490 l-6 -10 7 -35 6 -35 -56 0 -56 0 0 -166 0 -166 30 7 30 6
19 -6 20 -6 3 -37 3 -37 43 -3 43 -3 15 12 14 11 0 34 0 34 60 0 60 0 0 38 0
37 6 22 6 22 27 3 26 3 0 45 0 45 -35 0 -35 1 -3 56 -3 56 -59 -5 -60 -6 0 36
0 36 -19 11 -20 10 -30 0 -30 0 -6 -10z"/>
</g>
</svg>
