<?xml version="1.0" standalone="no"?>
<!DOCTYPE svg PUBLIC "-//W3C//DTD SVG 20010904//EN"
 "http://www.w3.org/TR/2001/REC-SVG-20010904/DTD/svg10.dtd">
<svg version="1.0" xmlns="http://www.w3.org/2000/svg"
 width="39.000000pt" height="48.000000pt" viewBox="0 0 39.000000 48.000000"
 preserveAspectRatio="xMidYMid meet">
<metadata>
Created by potrace 1.16, written by Peter Selinger 2001-2019
</metadata>
<g transform="translate(0.000000,48.000000) scale(0.100000,-0.100000)"
fill="#000000" stroke="none">
<path d="M108 474 l-6 -5 5 -40 6 -39 -57 0 -56 0 0 -153 0 -153 38 4 37 3 15
-10 14 -10 1 -33 0 -33 33 -3 33 -3 15 12 14 11 0 34 0 34 59 0 59 0 -2 12 -1
13 8 52 8 52 27 -2 27 -2 0 35 0 35 -35 0 -35 0 -3 55 -3 55 -59 -3 -60 -4 0
36 0 35 -19 11 -20 10 -19 0 -19 0 -5 -6z"/>
</g>
</svg>
