<?xml version="1.0" standalone="no"?>
<!DOCTYPE svg PUBLIC "-//W3C//DTD SVG 20010904//EN"
 "http://www.w3.org/TR/2001/REC-SVG-20010904/DTD/svg10.dtd">
<svg version="1.0" xmlns="http://www.w3.org/2000/svg"
 width="41.000000pt" height="33.000000pt" viewBox="0 0 41.000000 33.000000"
 preserveAspectRatio="xMidYMid meet">
<metadata>
Created by potrace 1.16, written by Peter Selinger 2001-2019
</metadata>
<g transform="translate(0.000000,33.000000) scale(0.100000,-0.100000)"
fill="#000000" stroke="none">
<path d="M97 323 l-7 -6 0 -33 0 -32 -6 -16 -6 -16 -34 0 -34 0 -6 -27 -7 -26
10 -16 11 -16 26 2 25 2 6 -35 5 -34 5 -35 6 -35 57 0 58 0 12 12 12 12 0 33
0 33 20 0 20 0 0 -24 0 -25 9 -5 9 -6 46 -6 46 -7 0 30 0 30 -11 32 -12 33
-23 -5 -22 -4 -6 21 -6 21 0 7 0 7 16 16 16 16 33 -7 32 -6 7 17 6 17 -6 40
-7 39 -51 -6 -51 -7 -8 -5 -8 -5 3 -16 3 -17 -8 -12 -8 -13 -19 0 -19 0 -15
16 -16 15 0 30 0 29 -48 0 -49 0 -6 -7z"/>
</g>
</svg>
