<?xml version="1.0" standalone="no"?>
<!DOCTYPE svg PUBLIC "-//W3C//DTD SVG 20010904//EN"
 "http://www.w3.org/TR/2001/REC-SVG-20010904/DTD/svg10.dtd">
<svg version="1.0" xmlns="http://www.w3.org/2000/svg"
 width="39.000000pt" height="31.000000pt" viewBox="0 0 39.000000 31.000000"
 preserveAspectRatio="xMidYMid meet">
<metadata>
Created by potrace 1.16, written by Peter Selinger 2001-2019
</metadata>
<g transform="translate(0.000000,31.000000) scale(0.100000,-0.100000)"
fill="#000000" stroke="none">
<path d="M97 303 l-7 -6 0 -33 0 -32 -6 -16 -6 -16 -33 0 -34 0 -6 -20 -7 -21
11 -13 11 -13 24 4 25 5 5 -36 6 -36 5 -35 6 -35 47 0 48 0 12 12 12 12 0 33
0 33 30 0 30 0 0 -24 0 -25 8 -5 7 -4 38 -7 37 -7 0 19 0 20 -11 31 -11 32
-23 -6 -23 -6 -7 31 -6 31 6 20 6 20 24 6 24 6 19 -6 20 -7 4 13 5 13 -4 33
-5 32 -37 -6 -36 -6 -12 -3 -13 -4 6 -16 6 -15 -12 -15 -12 -15 -29 0 -28 0
-15 16 -16 15 0 30 0 29 -38 0 -39 0 -6 -7z"/>
</g>
</svg>
