<?xml version="1.0" standalone="no"?>
<!DOCTYPE svg PUBLIC "-//W3C//DTD SVG 20010904//EN"
 "http://www.w3.org/TR/2001/REC-SVG-20010904/DTD/svg10.dtd">
<svg version="1.0" xmlns="http://www.w3.org/2000/svg"
 width="29.000000pt" height="38.000000pt" viewBox="0 0 29.000000 38.000000"
 preserveAspectRatio="xMidYMid meet">
<metadata>
Created by potrace 1.16, written by Peter Selinger 2001-2019
</metadata>
<g transform="translate(0.000000,38.000000) scale(0.100000,-0.100000)"
fill="#000000" stroke="none">
<path d="M18 373 l-18 -4 0 -45 0 -44 42 2 42 3 9 -32 10 -32 -16 -16 -17 -16
-17 3 -17 3 -13 -44 -13 -44 -5 -18 -6 -19 48 3 48 2 1 -25 1 -25 1 -12 2 -13
34 0 34 0 12 14 11 15 -3 23 -3 23 48 1 47 1 5 5 6 5 -7 57 -7 57 -14 -5 -14
-6 -20 10 -19 11 0 22 0 22 9 13 8 14 29 -4 29 -3 3 48 3 49 -18 -5 -18 -5
-38 -7 -38 -6 6 -18 5 -18 -14 -12 -15 -12 -28 3 -28 3 3 32 3 31 -8 5 -8 5
-30 5 -30 5 -17 -5z"/>
</g>
</svg>
