<?xml version="1.0" standalone="no"?>
<!DOCTYPE svg PUBLIC "-//W3C//DTD SVG 20010904//EN"
 "http://www.w3.org/TR/2001/REC-SVG-20010904/DTD/svg10.dtd">
<svg version="1.0" xmlns="http://www.w3.org/2000/svg"
 width="31.000000pt" height="40.000000pt" viewBox="0 0 31.000000 40.000000"
 preserveAspectRatio="xMidYMid meet">
<metadata>
Created by potrace 1.16, written by Peter Selinger 2001-2019
</metadata>
<g transform="translate(0.000000,40.000000) scale(0.100000,-0.100000)"
fill="#000000" stroke="none">
<path d="M18 394 l-18 -5 0 -56 0 -56 41 6 40 5 10 -25 9 -24 -12 -12 -13 -12
-19 0 -20 0 -18 -60 -18 -60 0 -14 0 -14 45 6 45 7 0 -24 0 -24 6 -16 6 -16
42 0 42 0 12 12 12 12 0 29 0 30 45 -6 44 -6 6 10 7 10 -7 64 -7 65 -29 0 -28
0 -6 10 -6 10 6 20 6 20 32 -3 32 -2 3 59 3 58 -38 -6 -38 -7 -27 -5 -27 -5
-3 -27 -3 -27 -22 -3 -23 -3 0 35 0 35 -8 5 -9 5 -39 5 -39 5 -17 -5z"/>
</g>
</svg>
