<?xml version="1.0" standalone="no"?>
<!DOCTYPE svg PUBLIC "-//W3C//DTD SVG 20010904//EN"
 "http://www.w3.org/TR/2001/REC-SVG-20010904/DTD/svg10.dtd">
<svg version="1.0" xmlns="http://www.w3.org/2000/svg"
 width="38.000000pt" height="40.000000pt" viewBox="0 0 38.000000 40.000000"
 preserveAspectRatio="xMidYMid meet">
<metadata>
Created by potrace 1.16, written by Peter Selinger 2001-2019
</metadata>
<g transform="translate(0.000000,40.000000) scale(0.100000,-0.100000)"
fill="#000000" stroke="none">
<path d="M98 393 l-18 -4 0 -27 0 -27 -6 -22 -6 -23 -34 0 -34 0 0 -35 0 -35
20 0 20 0 9 -23 9 -24 7 -44 7 -44 45 4 45 3 11 -11 12 -12 0 -32 0 -32 23 -3
23 -4 15 12 14 12 0 34 0 34 51 0 51 0 -7 42 -6 43 -6 18 -5 18 -11 -4 -12 -4
-12 13 -13 13 0 19 0 20 15 12 15 12 24 -4 24 -5 4 59 3 58 -52 0 -52 0 -3
-42 -3 -43 -39 -3 -38 -3 4 31 5 30 -11 9 -11 9 -30 5 -30 5 -17 -5z"/>
</g>
</svg>
