<?xml version="1.0" standalone="no"?>
<!DOCTYPE svg PUBLIC "-//W3C//DTD SVG 20010904//EN"
 "http://www.w3.org/TR/2001/REC-SVG-20010904/DTD/svg10.dtd">
<svg version="1.0" xmlns="http://www.w3.org/2000/svg"
 width="31.000000pt" height="42.000000pt" viewBox="0 0 31.000000 42.000000"
 preserveAspectRatio="xMidYMid meet">
<metadata>
Created by potrace 1.16, written by Peter Selinger 2001-2019
</metadata>
<g transform="translate(0.000000,42.000000) scale(0.100000,-0.100000)"
fill="#000000" stroke="none">
<path d="M13 413 l-13 -5 0 -58 0 -59 43 -3 42 -3 3 -27 3 -27 -24 -6 -24 -6
-16 -53 -17 -53 0 -11 0 -11 48 -3 47 -3 -3 -28 -4 -28 12 -15 12 -14 30 0 29
0 20 10 19 11 0 29 0 30 23 4 22 5 20 3 20 3 0 65 0 65 -32 3 -33 3 -10 19
-10 19 6 16 7 16 24 -6 25 -6 14 12 14 11 0 49 0 49 -65 0 -64 0 2 -37 2 -37
-19 -4 -20 -4 -12 17 -13 17 6 29 6 29 -54 -1 -54 -1 -12 -5z"/>
</g>
</svg>
