<?xml version="1.0" standalone="no"?>
<!DOCTYPE svg PUBLIC "-//W3C//DTD SVG 20010904//EN"
 "http://www.w3.org/TR/2001/REC-SVG-20010904/DTD/svg10.dtd">
<svg version="1.0" xmlns="http://www.w3.org/2000/svg"
 width="40.000000pt" height="39.000000pt" viewBox="0 0 40.000000 39.000000"
 preserveAspectRatio="xMidYMid meet">
<metadata>
Created by potrace 1.16, written by Peter Selinger 2001-2019
</metadata>
<g transform="translate(0.000000,39.000000) scale(0.100000,-0.100000)"
fill="#000000" stroke="none">
<path d="M81 333 l3 -58 -33 0 -34 0 -10 -16 -10 -16 7 -26 6 -27 19 0 19 0
11 -44 11 -45 0 -22 0 -21 23 6 22 6 38 6 37 7 0 -42 0 -41 34 0 34 0 16 6 16
6 0 22 0 23 48 9 47 9 3 39 3 39 -6 25 -6 24 -21 -6 -22 -5 -13 11 -13 10 0
29 0 28 13 8 12 8 30 0 30 0 -3 50 -4 50 -2 3 -3 2 -52 -12 -51 -11 0 -23 0
-22 -22 -4 -23 -4 -17 4 -17 3 -3 32 -3 32 -58 3 -58 3 2 -58z"/>
</g>
</svg>
