<?xml version="1.0" standalone="no"?>
<!DOCTYPE svg PUBLIC "-//W3C//DTD SVG 20010904//EN"
 "http://www.w3.org/TR/2001/REC-SVG-20010904/DTD/svg10.dtd">
<svg version="1.0" xmlns="http://www.w3.org/2000/svg"
 width="38.000000pt" height="37.000000pt" viewBox="0 0 38.000000 37.000000"
 preserveAspectRatio="xMidYMid meet">
<metadata>
Created by potrace 1.16, written by Peter Selinger 2001-2019
</metadata>
<g transform="translate(0.000000,37.000000) scale(0.100000,-0.100000)"
fill="#000000" stroke="none">
<path d="M81 313 l4 -58 -32 0 -32 0 -11 -11 -12 -12 6 -20 7 -20 16 2 16 1
17 -55 17 -55 -4 -12 -4 -12 33 10 33 9 27 0 28 0 0 -40 0 -40 28 0 27 0 14 9
13 9 -6 19 -6 19 52 10 53 9 3 29 4 28 -6 23 -6 23 -20 -5 -20 -5 -15 12 -15
12 0 38 0 38 14 11 14 12 29 -3 28 -3 -1 13 -1 12 -1 29 -2 28 -45 -10 -44
-10 2 -20 2 -20 -32 -9 -31 -8 -23 8 -23 9 -1 29 0 29 -49 3 -48 3 3 -58z"/>
</g>
</svg>
