<?xml version="1.0" standalone="no"?>
<!DOCTYPE svg PUBLIC "-//W3C//DTD SVG 20010904//EN"
 "http://www.w3.org/TR/2001/REC-SVG-20010904/DTD/svg10.dtd">
<svg version="1.0" xmlns="http://www.w3.org/2000/svg"
 width="36.000000pt" height="41.000000pt" viewBox="0 0 36.000000 41.000000"
 preserveAspectRatio="xMidYMid meet">
<metadata>
Created by potrace 1.16, written by Peter Selinger 2001-2019
</metadata>
<g transform="translate(0.000000,41.000000) scale(0.100000,-0.100000)"
fill="#000000" stroke="none">
<path d="M154 395 l-6 -15 4 -25 5 -25 -11 -9 -12 -10 -49 -3 -50 -3 -3 -62
-3 -63 30 6 31 6 6 -16 7 -17 -12 -12 -12 -12 -37 0 -37 0 1 -30 1 -30 6 -25
6 -25 0 -7 1 -8 60 0 60 0 0 23 0 23 13 18 13 18 29 -4 30 -3 0 -35 0 -35 56
-5 57 -5 11 31 11 30 0 38 0 37 -38 -2 -38 -3 -12 8 -12 7 0 20 0 21 28 -7 29
-6 12 15 12 14 -3 49 -3 48 -52 3 -53 3 0 43 0 44 -16 6 -16 6 -19 0 -20 0 -5
-15z"/>
</g>
</svg>
