<?xml version="1.0" standalone="no"?>
<!DOCTYPE svg PUBLIC "-//W3C//DTD SVG 20010904//EN"
 "http://www.w3.org/TR/2001/REC-SVG-20010904/DTD/svg10.dtd">
<svg version="1.0" xmlns="http://www.w3.org/2000/svg"
 width="38.000000pt" height="43.000000pt" viewBox="0 0 38.000000 43.000000"
 preserveAspectRatio="xMidYMid meet">
<metadata>
Created by potrace 1.16, written by Peter Selinger 2001-2019
</metadata>
<g transform="translate(0.000000,43.000000) scale(0.100000,-0.100000)"
fill="#000000" stroke="none">
<path d="M155 418 l-4 -13 -3 -35 -3 -35 -55 -5 -55 -5 -3 -74 -3 -74 30 6 30
6 6 -9 5 -9 -11 -7 -12 -7 -36 -1 -36 -1 1 -45 0 -45 7 -27 7 -28 70 0 70 0 0
23 0 23 13 18 13 18 20 -4 19 -4 -3 -32 -3 -32 13 -4 13 -4 56 -5 56 -5 11 32
12 32 0 47 0 46 -47 3 -46 3 -4 11 -4 11 29 -5 28 -4 13 15 12 15 -3 59 -3 58
-52 3 -53 3 0 43 0 44 -16 6 -16 6 -29 0 -30 0 -4 -12z"/>
</g>
</svg>
