<?xml version="1.0" standalone="no"?>
<!DOCTYPE svg PUBLIC "-//W3C//DTD SVG 20010904//EN"
 "http://www.w3.org/TR/2001/REC-SVG-20010904/DTD/svg10.dtd">
<svg version="1.0" xmlns="http://www.w3.org/2000/svg"
 width="44.000000pt" height="40.000000pt" viewBox="0 0 44.000000 40.000000"
 preserveAspectRatio="xMidYMid meet">
<metadata>
Created by potrace 1.16, written by Peter Selinger 2001-2019
</metadata>
<g transform="translate(0.000000,40.000000) scale(0.100000,-0.100000)"
fill="#000000" stroke="none">
<path d="M93 393 l-23 -4 0 -48 0 -48 -18 -16 -19 -17 -17 0 -17 0 3 -22 3
-23 33 0 33 0 8 -14 9 -14 -5 -36 -6 -36 -8 -10 -9 -9 0 -6 0 -5 63 3 64 4 -1
-44 -1 -43 30 0 30 0 3 32 3 32 49 7 49 6 4 12 5 13 -9 48 -9 48 11 14 12 13
18 -5 18 -6 21 11 20 11 0 20 0 21 -37 -4 -38 -3 -3 58 -3 57 -42 -6 -42 -6
-12 -3 -11 -4 5 -20 5 -20 -26 -7 -26 -6 -15 6 -15 6 6 24 6 24 -9 5 -8 5 -30
5 -30 4 -22 -4z"/>
</g>
</svg>
