<?xml version="1.0" standalone="no"?>
<!DOCTYPE svg PUBLIC "-//W3C//DTD SVG 20010904//EN"
 "http://www.w3.org/TR/2001/REC-SVG-20010904/DTD/svg10.dtd">
<svg version="1.0" xmlns="http://www.w3.org/2000/svg"
 width="42.000000pt" height="40.000000pt" viewBox="0 0 42.000000 40.000000"
 preserveAspectRatio="xMidYMid meet">
<metadata>
Created by potrace 1.16, written by Peter Selinger 2001-2019
</metadata>
<g transform="translate(0.000000,40.000000) scale(0.100000,-0.100000)"
fill="#000000" stroke="none">
<path d="M30 393 l-15 -6 -7 -11 -8 -11 0 -30 0 -30 6 -22 6 -23 44 0 43 0 6
-10 6 -9 -13 -21 -13 -20 -32 0 -32 0 -6 -33 -7 -34 4 -29 3 -29 45 -5 45 -5
-3 -33 -4 -32 45 0 45 0 16 6 16 6 0 17 0 17 59 12 59 12 -5 60 -6 60 27 0 27
0 20 10 19 11 0 28 0 29 -16 6 -16 6 -29 0 -29 0 0 50 0 51 -13 5 -13 4 -54
-7 -54 -8 -6 -24 -5 -24 -16 -10 -16 -10 -17 6 -16 6 0 35 0 34 -22 6 -23 6
-15 -1 -15 -1 -15 -5z"/>
</g>
</svg>
