<?xml version="1.0" standalone="no"?>
<!DOCTYPE svg PUBLIC "-//W3C//DTD SVG 20010904//EN"
 "http://www.w3.org/TR/2001/REC-SVG-20010904/DTD/svg10.dtd">
<svg version="1.0" xmlns="http://www.w3.org/2000/svg"
 width="40.000000pt" height="34.000000pt" viewBox="0 0 40.000000 34.000000"
 preserveAspectRatio="xMidYMid meet">
<metadata>
Created by potrace 1.16, written by Peter Selinger 2001-2019
</metadata>
<g transform="translate(0.000000,34.000000) scale(0.100000,-0.100000)"
fill="#000000" stroke="none">
<path d="M28 333 l-18 -4 0 -53 0 -52 12 -12 12 -12 33 0 33 0 0 -16 0 -17
-17 -13 -18 -13 -32 -1 -33 0 2 -70 1 -69 46 6 46 5 23 14 22 14 0 31 0 30 23
-3 22 -3 3 -37 3 -38 22 -4 22 -5 48 -5 47 -6 0 18 0 18 -10 10 -10 10 -3 40
-2 39 28 -3 29 -4 19 18 19 17 0 22 0 23 -15 12 -15 12 -25 -4 -25 -5 0 53 0
54 -39 0 -39 0 -16 -6 -16 -6 0 -28 0 -28 -19 -5 -18 -4 -16 8 -16 9 6 35 6
35 -54 -1 -54 -1 -17 -5z"/>
</g>
</svg>
