<?xml version="1.0" standalone="no"?>
<!DOCTYPE svg PUBLIC "-//W3C//DTD SVG 20010904//EN"
 "http://www.w3.org/TR/2001/REC-SVG-20010904/DTD/svg10.dtd">
<svg version="1.0" xmlns="http://www.w3.org/2000/svg"
 width="33.000000pt" height="49.000000pt" viewBox="0 0 33.000000 49.000000"
 preserveAspectRatio="xMidYMid meet">
<metadata>
Created by potrace 1.16, written by Peter Selinger 2001-2019
</metadata>
<g transform="translate(0.000000,49.000000) scale(0.100000,-0.100000)"
fill="#000000" stroke="none">
<path d="M142 478 l-12 -12 0 -28 0 -28 -60 0 -60 0 0 -48 0 -48 13 -19 14
-18 27 5 27 5 -3 -31 -3 -31 -33 -3 -33 -3 -4 -12 -3 -12 -6 -58 -6 -57 37 6
38 5 25 -9 25 -9 0 -34 0 -34 50 0 50 0 3 26 3 27 45 11 44 11 0 18 -1 17 -18
55 -18 55 -22 3 -22 4 3 21 3 22 32 3 31 3 11 31 11 31 0 33 0 33 -52 3 -53 3
3 22 3 21 -23 16 -22 16 -16 0 -16 0 -12 -12z"/>
</g>
</svg>
