<?xml version="1.0" standalone="no"?>
<!DOCTYPE svg PUBLIC "-//W3C//DTD SVG 20010904//EN"
 "http://www.w3.org/TR/2001/REC-SVG-20010904/DTD/svg10.dtd">
<svg version="1.0" xmlns="http://www.w3.org/2000/svg"
 width="31.000000pt" height="47.000000pt" viewBox="0 0 31.000000 47.000000"
 preserveAspectRatio="xMidYMid meet">
<metadata>
Created by potrace 1.16, written by Peter Selinger 2001-2019
</metadata>
<g transform="translate(0.000000,47.000000) scale(0.100000,-0.100000)"
fill="#000000" stroke="none">
<path d="M140 455 l-12 -15 4 -25 5 -25 -63 0 -64 0 0 -36 0 -35 11 -20 10
-20 28 6 28 6 6 -22 6 -21 -9 -23 -8 -22 -16 -6 -16 -6 -15 5 -15 6 -4 -13 -4
-14 -5 -45 -4 -45 36 3 36 4 28 -11 28 -11 -3 -32 -3 -33 40 0 40 0 3 26 3 27
45 11 44 11 0 8 -1 7 -18 55 -18 55 -19 0 -19 0 -3 28 -3 28 10 13 11 13 24
-4 23 -5 12 33 11 32 0 23 0 23 -52 3 -53 3 0 23 0 24 -20 14 -19 14 -7 0 -7
0 -12 -15z"/>
</g>
</svg>
