<?xml version="1.0" standalone="no"?>
<!DOCTYPE svg PUBLIC "-//W3C//DTD SVG 20010904//EN"
 "http://www.w3.org/TR/2001/REC-SVG-20010904/DTD/svg10.dtd">
<svg version="1.0" xmlns="http://www.w3.org/2000/svg"
 width="48.000000pt" height="45.000000pt" viewBox="0 0 48.000000 45.000000"
 preserveAspectRatio="xMidYMid meet">
<metadata>
Created by potrace 1.16, written by Peter Selinger 2001-2019
</metadata>
<g transform="translate(0.000000,45.000000) scale(0.100000,-0.100000)"
fill="#000000" stroke="none">
<path d="M281 399 l2 -51 -14 -9 -14 -9 -22 0 -22 0 6 32 6 31 -18 14 -19 13
-53 0 -53 0 0 -45 0 -45 -28 0 -28 0 -12 -12 -12 -12 0 -41 0 -41 12 -12 12
-12 24 0 25 0 -6 -49 -6 -50 12 -4 12 -4 52 5 52 5 3 -49 3 -49 38 -3 39 -3
18 16 19 17 3 36 3 37 41 -3 41 -3 11 28 11 28 11 38 12 37 19 0 19 0 0 34 0
35 -37 3 -38 3 -3 58 -3 58 -34 15 -34 14 -26 0 -25 0 1 -51z"/>
</g>
</svg>
