<?xml version="1.0" standalone="no"?>
<!DOCTYPE svg PUBLIC "-//W3C//DTD SVG 20010904//EN"
 "http://www.w3.org/TR/2001/REC-SVG-20010904/DTD/svg10.dtd">
<svg version="1.0" xmlns="http://www.w3.org/2000/svg"
 width="39.000000pt" height="36.000000pt" viewBox="0 0 39.000000 36.000000"
 preserveAspectRatio="xMidYMid meet">
<metadata>
Created by potrace 1.16, written by Peter Selinger 2001-2019
</metadata>
<g transform="translate(0.000000,36.000000) scale(0.100000,-0.100000)"
fill="#000000" stroke="none">
<path d="M186 331 l6 -29 -11 -21 -12 -21 -24 0 -25 0 -6 24 -6 25 7 10 6 11
-60 0 -61 0 0 -49 0 -50 37 -3 38 -3 0 -35 0 -35 -22 -3 -22 -3 -10 -50 -11
-50 0 -10 0 -10 48 3 47 3 -3 38 -3 37 23 9 22 8 18 -5 18 -4 6 -25 6 -24 -6
-29 -5 -30 24 -6 24 -6 28 9 28 10 3 44 2 44 5 23 5 22 24 -6 24 -6 21 12 21
11 0 18 0 19 -14 11 -14 12 -27 -7 -27 -7 -9 14 -9 14 0 51 0 51 -39 11 -38
12 -16 0 -16 0 5 -29z"/>
</g>
</svg>
