<?xml version="1.0" standalone="no"?>
<!DOCTYPE svg PUBLIC "-//W3C//DTD SVG 20010904//EN"
 "http://www.w3.org/TR/2001/REC-SVG-20010904/DTD/svg10.dtd">
<svg version="1.0" xmlns="http://www.w3.org/2000/svg"
 width="31.000000pt" height="42.000000pt" viewBox="0 0 31.000000 42.000000"
 preserveAspectRatio="xMidYMid meet">
<metadata>
Created by potrace 1.16, written by Peter Selinger 2001-2019
</metadata>
<g transform="translate(0.000000,42.000000) scale(0.100000,-0.100000)"
fill="#000000" stroke="none">
<path d="M174 384 l7 -39 -14 -19 -14 -19 -22 13 -23 12 6 40 7 41 -38 -7 -38
-6 -22 0 -23 0 0 -60 0 -60 34 0 35 0 6 -19 5 -18 -5 -15 -6 -16 -19 5 -19 5
-6 -28 -7 -29 -9 -29 -9 -29 0 -13 0 -14 26 0 25 0 18 -10 18 -9 -4 -25 -5
-24 41 -7 40 -7 21 7 21 7 9 23 9 23 45 6 46 7 0 28 0 28 -6 47 -7 47 -30 -3
-29 -3 -12 18 -11 18 14 8 13 9 21 -6 20 -5 13 18 14 19 0 52 0 53 -11 6 -10
7 -61 6 -60 5 6 -39z"/>
</g>
</svg>
