<?xml version="1.0" standalone="no"?>
<!DOCTYPE svg PUBLIC "-//W3C//DTD SVG 20010904//EN"
 "http://www.w3.org/TR/2001/REC-SVG-20010904/DTD/svg10.dtd">
<svg version="1.0" xmlns="http://www.w3.org/2000/svg"
 width="29.000000pt" height="40.000000pt" viewBox="0 0 29.000000 40.000000"
 preserveAspectRatio="xMidYMid meet">
<metadata>
Created by potrace 1.16, written by Peter Selinger 2001-2019
</metadata>
<g transform="translate(0.000000,40.000000) scale(0.100000,-0.100000)"
fill="#000000" stroke="none">
<path d="M177 364 l5 -39 -15 -20 -15 -20 -29 11 -28 10 0 42 0 43 -20 -5 -20
-6 -27 0 -28 0 0 -51 0 -51 30 6 31 6 11 -24 11 -25 -7 -26 -7 -27 -19 5 -20
5 -6 -26 -6 -27 -9 -29 -9 -29 0 -3 0 -4 26 0 25 0 21 -11 20 -11 -6 -23 -6
-23 35 -6 35 -7 21 11 21 12 -6 13 -5 14 17 5 17 5 38 7 37 6 0 18 0 17 -6 46
-7 47 -23 -6 -24 -6 -15 12 -15 12 0 23 0 23 16 6 17 6 18 -5 18 -6 10 20 11
20 0 40 0 40 -10 6 -10 6 -49 6 -49 6 5 -39z"/>
</g>
</svg>
