<?xml version="1.0" standalone="no"?>
<!DOCTYPE svg PUBLIC "-//W3C//DTD SVG 20010904//EN"
 "http://www.w3.org/TR/2001/REC-SVG-20010904/DTD/svg10.dtd">
<svg version="1.0" xmlns="http://www.w3.org/2000/svg"
 width="37.000000pt" height="47.000000pt" viewBox="0 0 37.000000 47.000000"
 preserveAspectRatio="xMidYMid meet">
<metadata>
Created by potrace 1.16, written by Peter Selinger 2001-2019
</metadata>
<g transform="translate(0.000000,47.000000) scale(0.100000,-0.100000)"
fill="#000000" stroke="none">
<path d="M122 454 l-21 -14 -3 -28 -3 -27 -47 3 -48 3 0 -50 0 -51 45 0 45 0
6 -25 6 -25 -13 -16 -13 -16 -23 5 -23 4 -5 -21 -5 -21 -9 -44 -9 -44 59 6 59
5 -6 -10 -6 -9 6 -34 7 -33 15 -6 15 -6 20 10 19 11 -3 22 -2 22 53 9 52 9 0
56 0 56 9 14 9 13 19 -6 20 -6 12 14 13 15 -4 18 -3 18 -35 5 -35 5 -3 52 -3
52 -57 -2 -57 -2 -2 25 -1 25 -1 11 -1 12 -14 5 -14 5 -20 -14z"/>
</g>
</svg>
