<?xml version="1.0" standalone="no"?>
<!DOCTYPE svg PUBLIC "-//W3C//DTD SVG 20010904//EN"
 "http://www.w3.org/TR/2001/REC-SVG-20010904/DTD/svg10.dtd">
<svg version="1.0" xmlns="http://www.w3.org/2000/svg"
 width="41.000000pt" height="39.000000pt" viewBox="0 0 41.000000 39.000000"
 preserveAspectRatio="xMidYMid meet">
<metadata>
Created by potrace 1.16, written by Peter Selinger 2001-2019
</metadata>
<g transform="translate(0.000000,39.000000) scale(0.100000,-0.100000)"
fill="#000000" stroke="none">
<path d="M133 371 l5 -19 -9 -13 -8 -14 -58 -5 -58 -5 0 -155 0 -155 54 -3 55
-3 24 6 24 6 -7 35 -6 36 12 -4 13 -4 0 -35 1 -34 68 -3 67 -3 0 56 0 55 40 0
40 0 10 26 10 25 -6 25 -6 25 -27 -3 -26 -2 -13 7 -12 8 0 50 0 49 -41 0 -40
0 -20 10 -19 11 0 24 0 25 -36 0 -36 0 5 -19z"/>
</g>
</svg>
