<?xml version="1.0" standalone="no"?>
<!DOCTYPE svg PUBLIC "-//W3C//DTD SVG 20010904//EN"
 "http://www.w3.org/TR/2001/REC-SVG-20010904/DTD/svg10.dtd">
<svg version="1.0" xmlns="http://www.w3.org/2000/svg"
 width="42.000000pt" height="45.000000pt" viewBox="0 0 42.000000 45.000000"
 preserveAspectRatio="xMidYMid meet">
<metadata>
Created by potrace 1.16, written by Peter Selinger 2001-2019
</metadata>
<g transform="translate(0.000000,45.000000) scale(0.100000,-0.100000)"
fill="#000000" stroke="none">
<path d="M220 415 l0 -35 -60 0 -61 0 6 -34 7 -34 -7 -22 -7 -22 -33 6 -33 7
-16 -16 -16 -16 0 -7 0 -7 9 -14 9 -14 44 -6 43 -6 0 -58 -1 -57 41 0 40 0 15
-10 15 -9 0 -28 0 -28 28 -3 28 -3 15 12 14 11 0 18 0 18 44 6 44 7 16 40 16
39 0 28 0 28 -34 -4 -34 -4 -21 11 -21 12 0 23 0 24 13 10 12 10 30 4 30 3 3
46 3 47 -52 13 -52 14 -5 17 -4 18 -34 0 -34 0 0 -35z"/>
</g>
</svg>
