<?xml version="1.0" standalone="no"?>
<!DOCTYPE svg PUBLIC "-//W3C//DTD SVG 20010904//EN"
 "http://www.w3.org/TR/2001/REC-SVG-20010904/DTD/svg10.dtd">
<svg version="1.0" xmlns="http://www.w3.org/2000/svg"
 width="33.000000pt" height="40.000000pt" viewBox="0 0 33.000000 40.000000"
 preserveAspectRatio="xMidYMid meet">
<metadata>
Created by potrace 1.16, written by Peter Selinger 2001-2019
</metadata>
<g transform="translate(0.000000,40.000000) scale(0.100000,-0.100000)"
fill="#000000" stroke="none">
<path d="M127 393 l-7 -6 0 -39 0 -38 -60 0 -60 0 0 -153 0 -153 61 6 60 6 10
14 9 15 -4 17 -4 18 25 0 25 0 -6 -23 -6 -24 26 -11 25 -12 39 0 40 0 15 24
16 24 -3 39 -3 38 -39 0 -39 0 -10 16 -10 16 7 18 6 17 29 -5 29 -6 6 22 6 22
0 38 0 37 -66 0 -66 0 6 25 6 25 -10 20 -11 20 -18 0 -18 0 -6 -7z"/>
</g>
</svg>
