<?xml version="1.0" standalone="no"?>
<!DOCTYPE svg PUBLIC "-//W3C//DTD SVG 20010904//EN"
 "http://www.w3.org/TR/2001/REC-SVG-20010904/DTD/svg10.dtd">
<svg version="1.0" xmlns="http://www.w3.org/2000/svg"
 width="50.000000pt" height="42.000000pt" viewBox="0 0 50.000000 42.000000"
 preserveAspectRatio="xMidYMid meet">
<metadata>
Created by potrace 1.16, written by Peter Selinger 2001-2019
</metadata>
<g transform="translate(0.000000,42.000000) scale(0.100000,-0.100000)"
fill="#000000" stroke="none">
<path d="M193 386 l5 -34 -11 -11 -11 -11 -48 0 -48 0 0 -42 0 -43 -8 -12 -7
-11 -30 -4 -30 -3 -3 -28 -3 -28 12 -15 12 -15 36 3 36 3 -2 -35 -1 -35 -7
-27 -7 -28 60 0 61 0 16 17 17 16 -5 24 -4 24 11 -4 11 -4 0 -34 0 -34 75 -6
75 -6 4 3 4 4 5 51 5 51 11 3 11 3 26 6 27 6 6 26 7 26 -6 18 -6 19 -42 3 -42
3 -5 50 -5 50 -52 -3 -53 -3 0 38 0 39 -12 12 -12 12 -39 0 -40 0 6 -34z"/>
</g>
</svg>
