<?xml version="1.0" standalone="no"?>
<!DOCTYPE svg PUBLIC "-//W3C//DTD SVG 20010904//EN"
 "http://www.w3.org/TR/2001/REC-SVG-20010904/DTD/svg10.dtd">
<svg version="1.0" xmlns="http://www.w3.org/2000/svg"
 width="42.000000pt" height="41.000000pt" viewBox="0 0 42.000000 41.000000"
 preserveAspectRatio="xMidYMid meet">
<metadata>
Created by potrace 1.16, written by Peter Selinger 2001-2019
</metadata>
<g transform="translate(0.000000,41.000000) scale(0.100000,-0.100000)"
fill="#000000" stroke="none">
<path d="M132 398 l-12 -12 0 -33 0 -33 -60 0 -60 0 0 -44 0 -44 6 -16 6 -16
29 0 29 0 0 -30 0 -30 -25 0 -25 0 -4 -23 -5 -22 -6 -47 -6 -48 64 0 65 0 11
14 11 14 -2 32 -3 33 13 4 12 5 0 -30 0 -31 71 -22 72 -23 13 19 13 18 7 43 6
44 18 0 18 0 16 6 16 6 0 39 0 39 -22 5 -23 6 -25 -3 -25 -3 -3 53 -3 54 -57
-4 -57 -3 3 37 3 37 -20 10 -20 11 -13 0 -14 0 -12 -12z"/>
</g>
</svg>
