<?xml version="1.0" standalone="no"?>
<!DOCTYPE svg PUBLIC "-//W3C//DTD SVG 20010904//EN"
 "http://www.w3.org/TR/2001/REC-SVG-20010904/DTD/svg10.dtd">
<svg version="1.0" xmlns="http://www.w3.org/2000/svg"
 width="45.000000pt" height="41.000000pt" viewBox="0 0 45.000000 41.000000"
 preserveAspectRatio="xMidYMid meet">
<metadata>
Created by potrace 1.16, written by Peter Selinger 2001-2019
</metadata>
<g transform="translate(0.000000,41.000000) scale(0.100000,-0.100000)"
fill="#000000" stroke="none">
<path d="M142 368 l3 -43 -55 -5 -54 -5 -7 -25 -7 -25 -1 -37 -1 -38 40 2 41
1 11 -11 12 -12 -13 -12 -12 -13 -41 0 -41 0 -10 -16 -11 -17 13 -56 13 -57
71 3 72 3 5 35 5 35 20 0 20 0 -3 -29 -4 -29 14 -8 13 -9 69 0 68 0 -6 23 -7
22 -6 37 -5 37 48 3 49 3 0 40 0 40 -42 9 -42 10 -3 45 -3 46 -60 5 -60 5 3
22 3 22 -11 21 -11 20 -40 0 -39 0 2 -42z"/>
</g>
</svg>
