<?xml version="1.0" standalone="no"?>
<!DOCTYPE svg PUBLIC "-//W3C//DTD SVG 20010904//EN"
 "http://www.w3.org/TR/2001/REC-SVG-20010904/DTD/svg10.dtd">
<svg version="1.0" xmlns="http://www.w3.org/2000/svg"
 width="43.000000pt" height="39.000000pt" viewBox="0 0 43.000000 39.000000"
 preserveAspectRatio="xMidYMid meet">
<metadata>
Created by potrace 1.16, written by Peter Selinger 2001-2019
</metadata>
<g transform="translate(0.000000,39.000000) scale(0.100000,-0.100000)"
fill="#000000" stroke="none">
<path d="M144 348 l1 -43 -55 -5 -54 -5 -7 -25 -7 -25 -1 -26 -1 -26 41 1 41
1 14 -20 15 -20 -23 -18 -23 -19 -32 5 -32 6 -11 -15 -12 -14 12 -50 12 -51
62 3 61 3 5 35 5 35 30 0 30 0 -2 -30 -2 -29 12 -8 12 -8 56 0 56 0 -13 51
-14 52 8 11 7 11 45 0 45 0 0 30 0 30 -42 9 -42 10 -3 45 -3 46 -60 5 -60 5 0
30 -1 30 -7 13 -8 12 -28 0 -28 0 1 -42z"/>
</g>
</svg>
