<?xml version="1.0" standalone="no"?>
<!DOCTYPE svg PUBLIC "-//W3C//DTD SVG 20010904//EN"
 "http://www.w3.org/TR/2001/REC-SVG-20010904/DTD/svg10.dtd">
<svg version="1.0" xmlns="http://www.w3.org/2000/svg"
 width="44.000000pt" height="42.000000pt" viewBox="0 0 44.000000 42.000000"
 preserveAspectRatio="xMidYMid meet">
<metadata>
Created by potrace 1.16, written by Peter Selinger 2001-2019
</metadata>
<g transform="translate(0.000000,42.000000) scale(0.100000,-0.100000)"
fill="#000000" stroke="none">
<path d="M125 391 l6 -29 -23 -16 -22 -16 -33 0 -33 0 0 -58 0 -58 42 -10 43
-9 0 -20 0 -20 -48 2 -47 1 -5 -21 -5 -22 12 -50 13 -50 45 -7 45 -8 23 5 23
6 -6 32 -7 33 16 13 16 13 14 -11 13 -11 -4 -23 -5 -23 14 -11 13 -10 59 -6
59 -6 -7 55 -6 54 35 0 35 0 20 20 20 20 0 16 0 15 -10 20 -11 19 -39 0 -39 0
-3 53 -3 52 -35 3 -35 2 -23 5 -22 5 6 25 6 25 -12 15 -12 15 -45 0 -45 0 7
-29z"/>
</g>
</svg>
