<?xml version="1.0" standalone="no"?>
<!DOCTYPE svg PUBLIC "-//W3C//DTD SVG 20010904//EN"
 "http://www.w3.org/TR/2001/REC-SVG-20010904/DTD/svg10.dtd">
<svg version="1.0" xmlns="http://www.w3.org/2000/svg"
 width="41.000000pt" height="40.000000pt" viewBox="0 0 41.000000 40.000000"
 preserveAspectRatio="xMidYMid meet">
<metadata>
Created by potrace 1.16, written by Peter Selinger 2001-2019
</metadata>
<g transform="translate(0.000000,40.000000) scale(0.100000,-0.100000)"
fill="#000000" stroke="none">
<path d="M140 366 l0 -34 -15 -12 -15 -12 -53 4 -52 4 -3 -63 -3 -64 34 6 33
7 14 -17 13 -16 -12 -25 -11 -25 -19 6 -18 5 -11 -12 -10 -13 -3 -46 -4 -47
64 -6 64 -6 7 5 8 5 -5 40 -6 40 17 6 17 6 7 -7 7 -7 0 -36 0 -37 72 -3 72 -3
-14 35 -15 35 0 30 0 29 40 -5 40 -6 15 13 15 12 0 34 0 34 -39 0 -39 0 -6 16
-6 16 0 26 -1 27 -12 15 -12 15 -33 1 -32 2 -15 6 -15 5 0 26 0 25 -30 0 -30
0 0 -34z"/>
</g>
</svg>
