<?xml version="1.0" standalone="no"?>
<!DOCTYPE svg PUBLIC "-//W3C//DTD SVG 20010904//EN"
 "http://www.w3.org/TR/2001/REC-SVG-20010904/DTD/svg10.dtd">
<svg version="1.0" xmlns="http://www.w3.org/2000/svg"
 width="42.000000pt" height="43.000000pt" viewBox="0 0 42.000000 43.000000"
 preserveAspectRatio="xMidYMid meet">
<metadata>
Created by potrace 1.16, written by Peter Selinger 2001-2019
</metadata>
<g transform="translate(0.000000,43.000000) scale(0.100000,-0.100000)"
fill="#000000" stroke="none">
<path d="M145 408 l-4 -23 -3 -25 -3 -25 -62 -3 -62 -3 -6 -54 -7 -53 7 -12 7
-11 31 3 32 3 3 -17 3 -18 -30 0 -30 0 -5 -32 -5 -33 -6 -47 -6 -48 74 0 75 0
12 15 12 15 -6 25 -6 25 14 0 15 0 7 -12 8 -12 -2 -33 -3 -33 59 0 59 0 16 18
17 19 0 30 0 31 6 16 6 16 23 0 23 0 7 28 6 29 -11 27 -10 28 -25 -6 -25 -6
-4 22 -5 23 -3 25 -3 25 -55 1 -55 1 -11 2 -11 1 5 29 4 29 -11 21 -12 21 -19
0 -20 0 -5 -22z"/>
</g>
</svg>
