<?xml version="1.0" standalone="no"?>
<!DOCTYPE svg PUBLIC "-//W3C//DTD SVG 20010904//EN"
 "http://www.w3.org/TR/2001/REC-SVG-20010904/DTD/svg10.dtd">
<svg version="1.0" xmlns="http://www.w3.org/2000/svg"
 width="40.000000pt" height="41.000000pt" viewBox="0 0 40.000000 41.000000"
 preserveAspectRatio="xMidYMid meet">
<metadata>
Created by potrace 1.16, written by Peter Selinger 2001-2019
</metadata>
<g transform="translate(0.000000,41.000000) scale(0.100000,-0.100000)"
fill="#000000" stroke="none">
<path d="M144 385 l-6 -25 5 -20 5 -19 -15 -5 -15 -6 -53 0 -53 0 -6 -45 -7
-45 6 -11 7 -10 28 6 28 6 10 -18 10 -17 -8 -17 -9 -16 -25 4 -25 5 -5 -33 -5
-34 -5 -38 -5 -37 63 0 62 0 11 11 12 12 -6 27 -5 27 18 7 19 7 18 -22 18 -22
-6 -29 -7 -28 50 0 49 0 16 18 17 19 0 30 0 31 6 16 6 16 23 0 23 0 5 21 6 21
-9 23 -9 23 -25 -5 -25 -5 -5 23 -5 24 -3 25 -3 25 -55 1 -55 0 -13 2 -14 2 7
29 6 30 -11 20 -11 21 -9 0 -10 0 -6 -25z"/>
</g>
</svg>
