<?xml version="1.0" standalone="no"?>
<!DOCTYPE svg PUBLIC "-//W3C//DTD SVG 20010904//EN"
 "http://www.w3.org/TR/2001/REC-SVG-20010904/DTD/svg10.dtd">
<svg version="1.0" xmlns="http://www.w3.org/2000/svg"
 width="35.000000pt" height="42.000000pt" viewBox="0 0 35.000000 42.000000"
 preserveAspectRatio="xMidYMid meet">
<metadata>
Created by potrace 1.16, written by Peter Selinger 2001-2019
</metadata>
<g transform="translate(0.000000,42.000000) scale(0.100000,-0.100000)"
fill="#000000" stroke="none">
<path d="M125 381 l7 -39 -21 -11 -20 -11 -41 0 -41 0 3 -67 3 -68 33 -3 32
-3 0 -10 0 -9 -30 0 -31 0 -3 -13 -4 -12 -6 -67 -5 -68 69 0 69 0 11 20 11 21
-6 19 -6 20 29 0 30 0 6 -24 6 -24 44 -11 45 -11 16 0 16 0 -3 63 -3 62 -34 1
-35 0 -4 13 -4 13 13 9 14 9 33 -6 32 -6 0 75 0 75 -22 6 -23 6 -41 0 -42 0
-6 16 -6 16 0 29 0 29 -46 0 -46 0 7 -39z"/>
</g>
</svg>
