<?xml version="1.0" standalone="no"?>
<!DOCTYPE svg PUBLIC "-//W3C//DTD SVG 20010904//EN"
 "http://www.w3.org/TR/2001/REC-SVG-20010904/DTD/svg10.dtd">
<svg version="1.0" xmlns="http://www.w3.org/2000/svg"
 width="41.000000pt" height="45.000000pt" viewBox="0 0 41.000000 45.000000"
 preserveAspectRatio="xMidYMid meet">
<metadata>
Created by potrace 1.16, written by Peter Selinger 2001-2019
</metadata>
<g transform="translate(0.000000,45.000000) scale(0.100000,-0.100000)"
fill="#000000" stroke="none">
<path d="M134 435 l-6 -14 7 -11 7 -11 -12 -14 -12 -15 -54 0 -54 0 0 -46 0
-46 28 3 27 3 13 -7 12 -8 0 -33 0 -34 -15 -12 -15 -12 -15 6 -16 6 -4 -13 -3
-12 -6 -48 -6 -47 31 0 30 0 21 -11 20 -11 -6 -24 -6 -24 40 0 40 0 5 23 6 23
-3 15 -3 14 65 -3 65 -2 -3 66 -4 66 12 -7 11 -7 34 6 34 7 6 20 7 21 -11 11
-11 11 -38 1 -37 0 -5 50 -5 50 -65 5 -65 5 3 24 2 24 -11 13 -11 14 -10 0 -9
0 -5 -15z"/>
</g>
</svg>
