<?xml version="1.0" standalone="no"?>
<!DOCTYPE svg PUBLIC "-//W3C//DTD SVG 20010904//EN"
 "http://www.w3.org/TR/2001/REC-SVG-20010904/DTD/svg10.dtd">
<svg version="1.0" xmlns="http://www.w3.org/2000/svg"
 width="39.000000pt" height="33.000000pt" viewBox="0 0 39.000000 33.000000"
 preserveAspectRatio="xMidYMid meet">
<metadata>
Created by potrace 1.16, written by Peter Selinger 2001-2019
</metadata>
<g transform="translate(0.000000,33.000000) scale(0.100000,-0.100000)"
fill="#000000" stroke="none">
<path d="M73 280 l6 -50 -27 0 -28 0 -12 -12 -12 -12 0 -32 0 -32 15 -12 15
-12 26 6 26 7 -3 -58 -4 -57 50 -9 49 -8 23 6 24 6 -3 32 -3 32 10 0 10 0 -3
-26 -3 -26 16 -13 15 -13 52 6 51 6 9 9 9 9 -3 59 -3 59 -28 0 -28 0 -11 19
-10 18 13 9 14 9 33 -5 32 -6 0 48 0 48 -6 22 -6 23 -42 -6 -41 -5 -22 -5 -23
-4 0 -24 0 -24 -12 -4 -13 -5 -11 4 -12 4 5 20 5 19 -12 15 -12 15 -61 0 -60
0 6 -50z"/>
</g>
</svg>
