<?xml version="1.0" standalone="no"?>
<!DOCTYPE svg PUBLIC "-//W3C//DTD SVG 20010904//EN"
 "http://www.w3.org/TR/2001/REC-SVG-20010904/DTD/svg10.dtd">
<svg version="1.0" xmlns="http://www.w3.org/2000/svg"
 width="48.000000pt" height="31.000000pt" viewBox="0 0 48.000000 31.000000"
 preserveAspectRatio="xMidYMid meet">
<metadata>
Created by potrace 1.16, written by Peter Selinger 2001-2019
</metadata>
<g transform="translate(0.000000,31.000000) scale(0.100000,-0.100000)"
fill="#000000" stroke="none">
<path d="M90 262 l0 -48 -13 -19 -14 -18 -31 6 -32 7 0 -15 0 -14 20 -11 20
-11 37 7 36 7 -6 -70 -7 -70 37 -6 37 -6 12 10 13 10 -6 33 -5 32 16 13 15 13
18 -4 18 -3 0 -29 0 -30 50 -13 50 -13 11 4 10 4 -4 63 -5 62 33 -6 32 -7 24
6 24 6 0 25 0 26 -40 -7 -39 -6 -11 19 -10 20 0 40 0 41 -27 0 -28 0 -23 -6
-23 -6 5 -17 6 -16 -8 -11 -7 -10 -18 -7 -17 -6 -31 6 -30 6 3 31 3 31 -47 3
-48 3 0 -49z"/>
</g>
</svg>
