<?xml version="1.0" standalone="no"?>
<!DOCTYPE svg PUBLIC "-//W3C//DTD SVG 20010904//EN"
 "http://www.w3.org/TR/2001/REC-SVG-20010904/DTD/svg10.dtd">
<svg version="1.0" xmlns="http://www.w3.org/2000/svg"
 width="42.000000pt" height="39.000000pt" viewBox="0 0 42.000000 39.000000"
 preserveAspectRatio="xMidYMid meet">
<metadata>
Created by potrace 1.16, written by Peter Selinger 2001-2019
</metadata>
<g transform="translate(0.000000,39.000000) scale(0.100000,-0.100000)"
fill="#000000" stroke="none">
<path d="M110 349 l0 -40 -10 -20 -11 -19 -38 0 -39 0 -6 -16 -6 -15 11 -21
11 -20 51 4 52 3 0 -35 -1 -35 -8 -22 -7 -23 49 0 50 0 -5 -19 -5 -19 11 -20
11 -21 20 -6 21 -7 14 12 15 12 0 49 0 49 14 0 13 0 40 -14 40 -14 12 38 11
37 0 20 0 20 -24 -4 -24 -5 -21 11 -21 12 -6 24 -6 25 11 14 12 14 20 -5 21
-6 9 14 9 14 0 38 0 37 -50 0 -50 0 0 -24 0 -25 -16 -15 -15 -16 -15 0 -15 0
-21 11 -20 11 6 29 6 29 -50 0 -50 0 0 -41z"/>
</g>
</svg>
