<?xml version="1.0" standalone="no"?>
<!DOCTYPE svg PUBLIC "-//W3C//DTD SVG 20010904//EN"
 "http://www.w3.org/TR/2001/REC-SVG-20010904/DTD/svg10.dtd">
<svg version="1.0" xmlns="http://www.w3.org/2000/svg"
 width="52.000000pt" height="43.000000pt" viewBox="0 0 52.000000 43.000000"
 preserveAspectRatio="xMidYMid meet">
<metadata>
Created by potrace 1.16, written by Peter Selinger 2001-2019
</metadata>
<g transform="translate(0.000000,43.000000) scale(0.100000,-0.100000)"
fill="#000000" stroke="none">
<path d="M241 421 l-13 -9 6 -29 7 -30 -13 -11 -14 -11 -54 -3 -55 -3 -3 -48
-3 -49 -24 6 -24 6 -25 -10 -26 -10 0 -33 0 -33 12 -12 12 -12 49 0 49 0 -6
-28 -6 -27 -6 -33 -7 -33 69 3 69 3 5 40 5 40 20 0 20 0 -3 -31 -3 -30 23 -11
23 -11 52 -6 51 -5 6 15 6 16 0 48 0 49 38 3 37 3 3 37 3 36 -23 16 -22 16
-23 0 -22 0 -3 42 -3 42 -55 11 -55 10 3 32 3 32 -20 10 -20 11 -13 0 -13 0
-14 -9z"/>
</g>
</svg>
