<?xml version="1.0" standalone="no"?>
<!DOCTYPE svg PUBLIC "-//W3C//DTD SVG 20010904//EN"
 "http://www.w3.org/TR/2001/REC-SVG-20010904/DTD/svg10.dtd">
<svg version="1.0" xmlns="http://www.w3.org/2000/svg"
 width="49.000000pt" height="50.000000pt" viewBox="0 0 49.000000 50.000000"
 preserveAspectRatio="xMidYMid meet">
<metadata>
Created by potrace 1.16, written by Peter Selinger 2001-2019
</metadata>
<g transform="translate(0.000000,50.000000) scale(0.100000,-0.100000)"
fill="#000000" stroke="none">
<path d="M210 490 l-15 -9 3 -30 3 -30 -20 -10 -20 -11 -40 0 -41 0 0 -54 0
-55 -37 -3 -38 -3 0 -35 0 -35 37 -3 37 -3 3 -52 3 -52 50 -5 50 -5 -3 -42 -2
-43 24 -6 24 -6 23 4 24 3 3 30 4 30 11 7 10 6 44 7 43 6 0 42 0 42 6 21 5 20
30 -4 29 -4 15 12 15 12 0 23 0 23 -14 12 -15 12 -33 -4 -33 -3 -3 49 -3 48
-22 -7 -22 -7 -32 -5 -33 -5 -1 13 -1 14 2 42 1 42 -20 10 -20 11 -8 0 -8 0
-15 -10z"/>
</g>
</svg>
