<?xml version="1.0" standalone="no"?>
<!DOCTYPE svg PUBLIC "-//W3C//DTD SVG 20010904//EN"
 "http://www.w3.org/TR/2001/REC-SVG-20010904/DTD/svg10.dtd">
<svg version="1.0" xmlns="http://www.w3.org/2000/svg"
 width="44.000000pt" height="51.000000pt" viewBox="0 0 44.000000 51.000000"
 preserveAspectRatio="xMidYMid meet">
<metadata>
Created by potrace 1.16, written by Peter Selinger 2001-2019
</metadata>
<g transform="translate(0.000000,51.000000) scale(0.100000,-0.100000)"
fill="#000000" stroke="none">
<path d="M130 495 l-13 -15 6 -36 6 -37 -58 6 -59 5 -6 -45 -6 -46 0 -24 0
-25 37 7 38 6 20 -14 19 -15 -13 -16 -13 -16 -39 0 -39 0 -1 -12 -2 -13 -2
-57 -1 -58 63 0 63 0 0 -33 0 -33 12 -12 12 -12 21 0 21 0 12 12 12 12 0 38 0
39 64 -7 64 -7 7 51 7 51 31 3 32 3 9 37 9 37 -17 25 -16 26 -35 0 -35 0 0 46
0 47 -32 -7 -33 -7 -27 -6 -28 -5 0 39 0 39 -16 22 -15 22 -23 0 -24 0 -12
-15z"/>
</g>
</svg>
