<?xml version="1.0" standalone="no"?>
<!DOCTYPE svg PUBLIC "-//W3C//DTD SVG 20010904//EN"
 "http://www.w3.org/TR/2001/REC-SVG-20010904/DTD/svg10.dtd">
<svg version="1.0" xmlns="http://www.w3.org/2000/svg"
 width="37.000000pt" height="40.000000pt" viewBox="0 0 37.000000 40.000000"
 preserveAspectRatio="xMidYMid meet">
<metadata>
Created by potrace 1.16, written by Peter Selinger 2001-2019
</metadata>
<g transform="translate(0.000000,40.000000) scale(0.100000,-0.100000)"
fill="#000000" stroke="none">
<path d="M113 393 l-33 -4 0 -35 0 -35 -10 -20 -11 -19 -29 0 -30 0 0 -24 0
-24 18 -4 19 -5 18 -70 18 -70 16 3 16 3 33 5 32 6 0 -28 0 -28 16 -22 15 -22
23 0 24 0 13 16 13 16 1 40 0 40 43 -6 43 -6 -3 48 -3 47 -28 -3 -28 -4 -15
12 -14 12 0 29 0 28 17 16 16 17 34 -5 33 -6 0 49 0 48 -42 -10 -42 -9 -6 -5
-5 -5 0 -17 0 -17 -50 0 -50 0 -3 38 -3 37 -12 -2 -12 -1 -32 -4z"/>
</g>
</svg>
