<?xml version="1.0" standalone="no"?>
<!DOCTYPE svg PUBLIC "-//W3C//DTD SVG 20010904//EN"
 "http://www.w3.org/TR/2001/REC-SVG-20010904/DTD/svg10.dtd">
<svg version="1.0" xmlns="http://www.w3.org/2000/svg"
 width="45.000000pt" height="33.000000pt" viewBox="0 0 45.000000 33.000000"
 preserveAspectRatio="xMidYMid meet">
<metadata>
Created by potrace 1.16, written by Peter Selinger 2001-2019
</metadata>
<g transform="translate(0.000000,33.000000) scale(0.100000,-0.100000)"
fill="#000000" stroke="none">
<path d="M276 301 l6 -31 -12 -15 -12 -15 -34 0 -33 0 -10 18 -9 18 1 19 2 20
-46 3 -46 3 5 -30 4 -31 -6 -23 -6 -24 -29 5 -30 4 -12 -26 -12 -25 13 -16 12
-15 32 3 31 2 0 -61 0 -62 54 -6 54 -7 5 6 6 5 0 33 1 32 35 0 35 0 0 -39 0
-39 13 -5 13 -4 34 6 33 7 -5 37 -6 37 -1 35 -1 35 33 -3 33 -3 15 12 14 11 0
13 0 13 -17 -4 -18 -4 -20 15 -19 15 0 54 0 53 -53 2 -53 2 6 -30z"/>
</g>
</svg>
