<?xml version="1.0" standalone="no"?>
<!DOCTYPE svg PUBLIC "-//W3C//DTD SVG 20010904//EN"
 "http://www.w3.org/TR/2001/REC-SVG-20010904/DTD/svg10.dtd">
<svg version="1.0" xmlns="http://www.w3.org/2000/svg"
 width="50.000000pt" height="42.000000pt" viewBox="0 0 50.000000 42.000000"
 preserveAspectRatio="xMidYMid meet">
<metadata>
Created by potrace 1.16, written by Peter Selinger 2001-2019
</metadata>
<g transform="translate(0.000000,42.000000) scale(0.100000,-0.100000)"
fill="#000000" stroke="none">
<path d="M380 410 l0 -10 -24 0 -23 0 -31 -6 -31 -6 -3 -32 -3 -31 -15 0 -15
0 -3 32 -3 33 -20 10 -20 11 -52 -3 -52 -3 3 -52 3 -53 -29 0 -30 0 -16 -6
-16 -6 0 -25 0 -24 10 -20 11 -19 31 0 31 0 -6 -55 -6 -55 45 0 45 0 19 -10
18 -10 -5 -20 -5 -20 12 -15 12 -15 34 0 34 0 20 20 20 20 0 24 0 25 43 3 42
3 3 57 3 58 32 0 33 0 12 12 12 12 0 22 0 23 -17 16 -16 17 -35 -4 -34 -4 6
58 7 58 -16 0 -15 0 0 -10z"/>
</g>
</svg>
