<?xml version="1.0" standalone="no"?>
<!DOCTYPE svg PUBLIC "-//W3C//DTD SVG 20010904//EN"
 "http://www.w3.org/TR/2001/REC-SVG-20010904/DTD/svg10.dtd">
<svg version="1.0" xmlns="http://www.w3.org/2000/svg"
 width="48.000000pt" height="32.000000pt" viewBox="0 0 48.000000 32.000000"
 preserveAspectRatio="xMidYMid meet">
<metadata>
Created by potrace 1.16, written by Peter Selinger 2001-2019
</metadata>
<g transform="translate(0.000000,32.000000) scale(0.100000,-0.100000)"
fill="#000000" stroke="none">
<path d="M88 268 l-3 -53 -37 2 -38 2 -6 -24 -6 -25 11 -14 12 -14 19 5 19 5
7 -27 7 -27 1 -42 1 -42 55 4 55 3 12 4 13 4 -6 30 -6 31 16 6 17 7 11 -11 11
-11 1 -38 1 -38 26 -3 27 -3 33 9 34 8 8 40 9 39 4 23 4 22 35 0 34 0 6 20 6
20 -6 11 -7 10 -37 -2 -37 -3 -12 8 -13 8 7 54 6 54 -38 0 -39 0 -10 -8 -10
-7 0 -30 0 -30 -45 0 -45 0 0 38 0 37 -52 0 -52 0 -3 -52z"/>
</g>
</svg>
