<?xml version="1.0" standalone="no"?>
<!DOCTYPE svg PUBLIC "-//W3C//DTD SVG 20010904//EN"
 "http://www.w3.org/TR/2001/REC-SVG-20010904/DTD/svg10.dtd">
<svg version="1.0" xmlns="http://www.w3.org/2000/svg"
 width="40.000000pt" height="47.000000pt" viewBox="0 0 40.000000 47.000000"
 preserveAspectRatio="xMidYMid meet">
<metadata>
Created by potrace 1.16, written by Peter Selinger 2001-2019
</metadata>
<g transform="translate(0.000000,47.000000) scale(0.100000,-0.100000)"
fill="#000000" stroke="none">
<path d="M210 456 l-12 -15 4 -28 3 -28 -65 0 -65 0 0 -55 0 -55 -35 -5 -35
-5 -3 -23 -4 -23 12 -14 12 -14 11 2 12 2 13 -57 14 -58 48 0 48 0 16 -6 16
-6 -6 -25 -7 -25 14 -9 14 -9 32 0 32 0 3 22 3 21 50 14 50 15 3 3 3 2 -18 58
-18 57 -22 9 -23 9 0 19 0 20 19 11 20 10 23 -3 23 -2 3 40 3 40 -13 17 -13
17 -41 -11 -41 -11 -16 6 -16 6 6 35 6 36 -13 15 -12 15 -13 0 -13 0 -12 -14z"/>
</g>
</svg>
