<?xml version="1.0" standalone="no"?>
<!DOCTYPE svg PUBLIC "-//W3C//DTD SVG 20010904//EN"
 "http://www.w3.org/TR/2001/REC-SVG-20010904/DTD/svg10.dtd">
<svg version="1.0" xmlns="http://www.w3.org/2000/svg"
 width="45.000000pt" height="48.000000pt" viewBox="0 0 45.000000 48.000000"
 preserveAspectRatio="xMidYMid meet">
<metadata>
Created by potrace 1.16, written by Peter Selinger 2001-2019
</metadata>
<g transform="translate(0.000000,48.000000) scale(0.100000,-0.100000)"
fill="#000000" stroke="none">
<path d="M153 450 l6 -29 -11 -7 -11 -7 -56 -6 -56 -6 -3 -36 -3 -35 10 -27
11 -27 40 0 40 0 0 -14 0 -14 -16 -13 -16 -13 -38 2 -38 3 -6 -17 -6 -17 6
-51 7 -51 10 -7 10 -6 53 5 53 6 3 -39 3 -39 55 0 55 0 5 35 5 35 39 3 38 3
-6 37 -6 37 -3 20 -2 20 48 5 47 6 17 17 17 16 -12 25 -11 25 -35 6 -35 7 -11
-7 -10 -6 6 55 7 55 -59 3 -59 3 3 14 3 15 -6 23 -5 23 -41 0 -41 0 5 -30z"/>
</g>
</svg>
