<?xml version="1.0" standalone="no"?>
<!DOCTYPE svg PUBLIC "-//W3C//DTD SVG 20010904//EN"
 "http://www.w3.org/TR/2001/REC-SVG-20010904/DTD/svg10.dtd">
<svg version="1.0" xmlns="http://www.w3.org/2000/svg"
 width="41.000000pt" height="39.000000pt" viewBox="0 0 41.000000 39.000000"
 preserveAspectRatio="xMidYMid meet">
<metadata>
Created by potrace 1.16, written by Peter Selinger 2001-2019
</metadata>
<g transform="translate(0.000000,39.000000) scale(0.100000,-0.100000)"
fill="#000000" stroke="none">
<path d="M223 379 l-12 -12 6 -28 6 -29 -60 0 -60 0 -6 -52 -7 -53 -16 -12
-17 -13 -23 6 -22 6 -7 -12 -7 -12 11 -11 11 -11 33 -1 32 0 0 -70 0 -70 60 5
60 5 0 30 0 30 8 13 8 12 18 0 18 0 17 -19 16 -18 -6 -18 -7 -18 15 -11 15
-11 50 3 49 4 0 56 -1 57 -33 0 -33 1 -9 14 -10 15 0 15 0 15 8 12 8 12 29 -2
30 -2 3 54 3 54 -18 -9 -18 -8 -45 0 -45 -1 3 37 3 37 -20 10 -20 11 -3 0 -4
0 -11 -11z"/>
</g>
</svg>
