<?xml version="1.0" standalone="no"?>
<!DOCTYPE svg PUBLIC "-//W3C//DTD SVG 20010904//EN"
 "http://www.w3.org/TR/2001/REC-SVG-20010904/DTD/svg10.dtd">
<svg version="1.0" xmlns="http://www.w3.org/2000/svg"
 width="42.000000pt" height="40.000000pt" viewBox="0 0 42.000000 40.000000"
 preserveAspectRatio="xMidYMid meet">
<metadata>
Created by potrace 1.16, written by Peter Selinger 2001-2019
</metadata>
<g transform="translate(0.000000,40.000000) scale(0.100000,-0.100000)"
fill="#000000" stroke="none">
<path d="M210 380 l-11 -21 6 -19 6 -20 -65 0 -66 0 0 -50 0 -50 -15 0 -16 0
-24 -16 -25 -16 0 -23 0 -22 20 -18 19 -17 32 4 31 5 -6 -31 -6 -31 -6 -28 -7
-28 69 3 69 3 0 32 1 33 12 12 12 12 12 -12 12 -12 0 -32 1 -33 67 -3 67 -3 7
28 8 28 0 40 1 40 -41 -3 -41 -3 -12 15 -13 15 4 23 3 23 43 3 42 3 0 56 0 55
-22 -6 -23 -7 -36 -6 -36 -5 1 41 1 42 -15 9 -15 10 -17 0 -17 0 -11 -20z"/>
</g>
</svg>
