<?xml version="1.0" standalone="no"?>
<!DOCTYPE svg PUBLIC "-//W3C//DTD SVG 20010904//EN"
 "http://www.w3.org/TR/2001/REC-SVG-20010904/DTD/svg10.dtd">
<svg version="1.0" xmlns="http://www.w3.org/2000/svg"
 width="33.000000pt" height="42.000000pt" viewBox="0 0 33.000000 42.000000"
 preserveAspectRatio="xMidYMid meet">
<metadata>
Created by potrace 1.16, written by Peter Selinger 2001-2019
</metadata>
<g transform="translate(0.000000,42.000000) scale(0.100000,-0.100000)"
fill="#000000" stroke="none">
<path d="M178 371 l4 -48 -27 -7 -27 -7 -14 12 -14 11 0 34 0 33 -7 4 -8 4
-43 -5 -43 -4 3 -52 3 -51 40 -3 40 -3 7 -12 8 -12 -7 -20 -6 -20 -11 -8 -11
-7 -22 5 -23 5 -4 -22 -5 -23 -5 -38 -5 -37 60 0 59 0 -6 -39 -6 -39 19 -10
19 -11 12 8 12 7 10 34 10 35 -6 19 -6 19 43 -6 44 -6 21 -6 21 -7 12 45 13
45 -7 21 -7 22 -33 -7 -33 -6 -20 6 -20 7 -7 17 -6 16 16 12 16 12 40 -5 39
-6 0 49 0 49 -8 12 -7 12 -28 10 -28 11 -32 0 -32 0 3 -49z"/>
</g>
</svg>
