<?xml version="1.0" standalone="no"?>
<!DOCTYPE svg PUBLIC "-//W3C//DTD SVG 20010904//EN"
 "http://www.w3.org/TR/2001/REC-SVG-20010904/DTD/svg10.dtd">
<svg version="1.0" xmlns="http://www.w3.org/2000/svg"
 width="36.000000pt" height="44.000000pt" viewBox="0 0 36.000000 44.000000"
 preserveAspectRatio="xMidYMid meet">
<metadata>
Created by potrace 1.16, written by Peter Selinger 2001-2019
</metadata>
<g transform="translate(0.000000,44.000000) scale(0.100000,-0.100000)"
fill="#000000" stroke="none">
<path d="M138 429 l-18 -10 0 -34 0 -35 -55 0 -56 0 3 -67 3 -68 40 -5 40 -5
0 -15 0 -15 -34 -5 -34 -5 -13 -60 -13 -60 0 -7 -1 -8 75 0 75 0 0 34 0 35 11
7 11 7 8 -13 8 -13 -5 -38 -6 -39 17 -6 16 -6 45 7 45 6 27 23 27 23 4 67 4
68 -53 -4 -54 -3 0 15 0 15 43 -3 42 -4 0 71 0 71 -42 0 -43 0 -22 6 -23 6 0
27 0 27 -12 12 -12 12 -15 0 -16 -1 -17 -10z"/>
</g>
</svg>
