<?xml version="1.0" standalone="no"?>
<!DOCTYPE svg PUBLIC "-//W3C//DTD SVG 20010904//EN"
 "http://www.w3.org/TR/2001/REC-SVG-20010904/DTD/svg10.dtd">
<svg version="1.0" xmlns="http://www.w3.org/2000/svg"
 width="31.000000pt" height="41.000000pt" viewBox="0 0 31.000000 41.000000"
 preserveAspectRatio="xMidYMid meet">
<metadata>
Created by potrace 1.16, written by Peter Selinger 2001-2019
</metadata>
<g transform="translate(0.000000,41.000000) scale(0.100000,-0.100000)"
fill="#000000" stroke="none">
<path d="M119 403 l-1 -8 -1 -35 -2 -35 -57 -3 -58 -3 0 -60 0 -61 28 3 27 3
13 -7 12 -8 0 -12 0 -12 -9 -14 -9 -14 -23 -2 -24 -2 -8 -2 -8 -1 3 -52 3 -53
60 0 60 0 0 37 0 37 12 12 12 12 16 -7 17 -6 -4 -53 -3 -52 45 1 45 1 23 4 22
3 -5 14 -5 14 0 132 0 133 -52 -5 -51 -5 6 36 5 35 -14 21 -15 21 -30 0 -29 0
-1 -7z"/>
</g>
</svg>
