<?xml version="1.0" standalone="no"?>
<!DOCTYPE svg PUBLIC "-//W3C//DTD SVG 20010904//EN"
 "http://www.w3.org/TR/2001/REC-SVG-20010904/DTD/svg10.dtd">
<svg version="1.0" xmlns="http://www.w3.org/2000/svg"
 width="33.000000pt" height="43.000000pt" viewBox="0 0 33.000000 43.000000"
 preserveAspectRatio="xMidYMid meet">
<metadata>
Created by potrace 1.16, written by Peter Selinger 2001-2019
</metadata>
<g transform="translate(0.000000,43.000000) scale(0.100000,-0.100000)"
fill="#000000" stroke="none">
<path d="M118 423 l-1 -8 -1 -35 -1 -35 -57 -3 -58 -3 0 -69 0 -70 33 0 34 0
6 -6 6 -6 -6 -14 -5 -14 -22 0 -21 0 -13 -9 -13 -8 3 -59 3 -59 70 0 70 0 5
45 5 45 10 -5 10 -5 0 -50 0 -50 73 1 73 2 2 3 3 4 -4 158 -4 157 -50 -6 -50
-7 7 32 7 32 -16 24 -16 25 -40 0 -40 0 -2 -7z"/>
</g>
</svg>
