<?xml version="1.0" standalone="no"?>
<!DOCTYPE svg PUBLIC "-//W3C//DTD SVG 20010904//EN"
 "http://www.w3.org/TR/2001/REC-SVG-20010904/DTD/svg10.dtd">
<svg version="1.0" xmlns="http://www.w3.org/2000/svg"
 width="39.000000pt" height="48.000000pt" viewBox="0 0 39.000000 48.000000"
 preserveAspectRatio="xMidYMid meet">
<metadata>
Created by potrace 1.16, written by Peter Selinger 2001-2019
</metadata>
<g transform="translate(0.000000,48.000000) scale(0.100000,-0.100000)"
fill="#000000" stroke="none">
<path d="M129 468 l-2 -13 -1 -25 -1 -25 -62 -3 -63 -3 0 -45 0 -45 10 -20 11
-19 39 6 40 7 0 -32 0 -32 -27 3 -27 3 -12 -41 -12 -42 -11 -21 -12 -21 46 0
46 0 20 -11 20 -10 -7 -33 -6 -33 22 -6 22 -6 23 11 23 10 5 20 6 19 -6 36 -6
36 34 -8 34 -8 25 -1 24 -1 4 20 3 20 4 22 5 22 23 3 22 3 3 47 3 46 -19 7
-20 6 -13 -3 -14 -3 -3 46 -3 47 -27 10 -27 11 -32 6 -31 6 -6 16 -6 15 6 9 5
9 -35 0 -36 0 -1 -12z"/>
</g>
</svg>
