<?xml version="1.0" standalone="no"?>
<!DOCTYPE svg PUBLIC "-//W3C//DTD SVG 20010904//EN"
 "http://www.w3.org/TR/2001/REC-SVG-20010904/DTD/svg10.dtd">
<svg version="1.0" xmlns="http://www.w3.org/2000/svg"
 width="39.000000pt" height="38.000000pt" viewBox="0 0 39.000000 38.000000"
 preserveAspectRatio="xMidYMid meet">
<metadata>
Created by potrace 1.16, written by Peter Selinger 2001-2019
</metadata>
<g transform="translate(0.000000,38.000000) scale(0.100000,-0.100000)"
fill="#000000" stroke="none">
<path d="M204 374 l-12 -5 5 -20 5 -19 -12 -15 -12 -15 -49 0 -49 0 0 -54 0
-54 -14 -11 -14 -12 -26 7 -26 6 0 -20 0 -21 12 -7 12 -8 39 3 39 2 -4 -48 -4
-48 -8 -17 -8 -18 42 0 41 0 20 10 19 11 0 39 0 40 19 0 19 0 11 -14 12 -14
-3 -28 -3 -28 25 -7 25 -7 41 -1 41 -1 -4 53 -5 52 -2 10 -3 10 -29 0 -29 0
-3 21 -3 21 31 6 30 7 11 27 10 27 -3 30 -3 31 -69 -4 -68 -3 7 31 7 32 -12
14 -12 15 -12 -1 -11 -1 -11 -4z"/>
</g>
</svg>
