<?xml version="1.0" standalone="no"?>
<!DOCTYPE svg PUBLIC "-//W3C//DTD SVG 20010904//EN"
 "http://www.w3.org/TR/2001/REC-SVG-20010904/DTD/svg10.dtd">
<svg version="1.0" xmlns="http://www.w3.org/2000/svg"
 width="41.000000pt" height="40.000000pt" viewBox="0 0 41.000000 40.000000"
 preserveAspectRatio="xMidYMid meet">
<metadata>
Created by potrace 1.16, written by Peter Selinger 2001-2019
</metadata>
<g transform="translate(0.000000,40.000000) scale(0.100000,-0.100000)"
fill="#000000" stroke="none">
<path d="M201 391 l-14 -9 7 -17 6 -18 -11 -13 -11 -14 -49 0 -49 0 0 -54 0
-55 -12 -8 -13 -7 -27 3 -28 3 0 -31 0 -30 19 -11 19 -10 32 7 32 6 -5 -39 -5
-39 -7 -28 -7 -27 51 0 52 0 20 10 19 11 0 39 0 40 9 0 10 0 8 -13 8 -12 0
-29 0 -30 25 -7 25 -7 52 -1 53 -1 -6 62 -6 63 -4 13 -4 13 -27 -3 -26 -3 -4
11 -4 11 31 6 30 7 11 27 10 27 -3 40 -3 41 -66 -3 -66 -4 5 31 4 31 -12 15
-12 15 -22 0 -21 0 -14 -9z"/>
</g>
</svg>
