<?xml version="1.0" standalone="no"?>
<!DOCTYPE svg PUBLIC "-//W3C//DTD SVG 20010904//EN"
 "http://www.w3.org/TR/2001/REC-SVG-20010904/DTD/svg10.dtd">
<svg version="1.0" xmlns="http://www.w3.org/2000/svg"
 width="44.000000pt" height="50.000000pt" viewBox="0 0 44.000000 50.000000"
 preserveAspectRatio="xMidYMid meet">
<metadata>
Created by potrace 1.16, written by Peter Selinger 2001-2019
</metadata>
<g transform="translate(0.000000,50.000000) scale(0.100000,-0.100000)"
fill="#000000" stroke="none">
<path d="M243 492 l-11 -7 -4 -35 -3 -35 -62 -3 -62 -3 -3 -42 -3 -42 -27 3
-28 3 -20 -11 -20 -11 0 -50 0 -49 30 -6 30 -6 11 -41 10 -40 12 -18 12 -19
32 6 31 6 22 -7 22 -7 -6 -23 -6 -23 6 -16 6 -16 42 0 42 0 12 12 12 12 0 32
0 33 53 3 52 3 3 42 3 41 -9 34 -8 33 -40 0 -39 0 3 15 4 15 11 7 12 7 38 -6
37 -6 0 52 0 52 -23 23 -23 23 -47 7 -47 7 0 24 0 23 -16 6 -16 6 -6 0 -7 0
-12 -8z"/>
</g>
</svg>
