<?xml version="1.0" standalone="no"?>
<!DOCTYPE svg PUBLIC "-//W3C//DTD SVG 20010904//EN"
 "http://www.w3.org/TR/2001/REC-SVG-20010904/DTD/svg10.dtd">
<svg version="1.0" xmlns="http://www.w3.org/2000/svg"
 width="42.000000pt" height="48.000000pt" viewBox="0 0 42.000000 48.000000"
 preserveAspectRatio="xMidYMid meet">
<metadata>
Created by potrace 1.16, written by Peter Selinger 2001-2019
</metadata>
<g transform="translate(0.000000,48.000000) scale(0.100000,-0.100000)"
fill="#000000" stroke="none">
<path d="M242 471 l-10 -6 -4 -35 -3 -35 -62 -3 -62 -3 -3 -42 -3 -42 -35 0
-35 -1 -13 -7 -12 -8 0 -40 0 -39 13 -2 12 -1 15 -1 15 -1 13 -40 12 -40 11
-21 10 -20 30 4 29 4 26 -6 25 -7 -1 -27 -2 -27 1 -12 1 -13 33 0 33 0 12 12
12 12 0 32 0 33 53 3 52 3 3 31 3 32 -9 33 -8 34 -39 0 -40 0 -3 16 -3 17 17
17 17 17 39 -6 38 -6 0 40 0 41 -23 23 -23 23 -46 7 -46 7 -6 15 -6 16 5 8 5
8 -13 5 -14 5 -11 -7z"/>
</g>
</svg>
