<?xml version="1.0" standalone="no"?>
<!DOCTYPE svg PUBLIC "-//W3C//DTD SVG 20010904//EN"
 "http://www.w3.org/TR/2001/REC-SVG-20010904/DTD/svg10.dtd">
<svg version="1.0" xmlns="http://www.w3.org/2000/svg"
 width="42.000000pt" height="33.000000pt" viewBox="0 0 42.000000 33.000000"
 preserveAspectRatio="xMidYMid meet">
<metadata>
Created by potrace 1.16, written by Peter Selinger 2001-2019
</metadata>
<g transform="translate(0.000000,33.000000) scale(0.100000,-0.100000)"
fill="#000000" stroke="none">
<path d="M7 272 l5 -57 4 -13 4 -14 32 2 33 2 13 -1 12 -1 0 -19 0 -20 -32 -3
-32 -3 -12 -50 -12 -50 -7 -22 -7 -23 60 0 61 0 11 19 10 20 0 20 0 21 14 0
15 0 3 -37 3 -38 63 -3 62 -3 6 15 5 14 -9 34 -9 33 4 12 4 12 30 -6 29 -5 25
16 25 16 0 35 0 35 -40 0 -40 0 -11 27 -10 26 6 28 6 28 -34 6 -34 7 -29 -4
-29 -3 0 -27 0 -27 -17 -17 -16 -17 -26 7 -25 6 5 30 6 30 -13 4 -14 4 -52 6
-51 5 5 -57z"/>
</g>
</svg>
