<?xml version="1.0" standalone="no"?>
<!DOCTYPE svg PUBLIC "-//W3C//DTD SVG 20010904//EN"
 "http://www.w3.org/TR/2001/REC-SVG-20010904/DTD/svg10.dtd">
<svg version="1.0" xmlns="http://www.w3.org/2000/svg"
 width="40.000000pt" height="31.000000pt" viewBox="0 0 40.000000 31.000000"
 preserveAspectRatio="xMidYMid meet">
<metadata>
Created by potrace 1.16, written by Peter Selinger 2001-2019
</metadata>
<g transform="translate(0.000000,31.000000) scale(0.100000,-0.100000)"
fill="#000000" stroke="none">
<path d="M209 303 l-1 -8 2 -18 2 -19 -18 -19 -17 -19 -26 0 -26 0 -13 9 -13
8 3 29 3 29 -48 3 -48 3 3 -53 3 -53 35 -1 35 -1 13 -1 12 -2 0 -30 0 -30 -12
-1 -13 -2 -19 -1 -19 -1 -12 -50 -11 -51 -8 -12 -7 -12 50 0 50 0 10 18 9 18
-1 19 -2 20 28 3 27 3 1 -13 1 -13 1 -25 2 -25 49 -3 49 -3 8 8 9 9 -10 34
-10 35 6 18 6 19 32 -6 31 -6 23 16 22 15 0 25 0 24 -40 0 -40 0 -11 28 -10
27 3 27 4 27 -20 5 -21 6 -27 0 -28 0 -1 -7z"/>
</g>
</svg>
