<?xml version="1.0" standalone="no"?>
<!DOCTYPE svg PUBLIC "-//W3C//DTD SVG 20010904//EN"
 "http://www.w3.org/TR/2001/REC-SVG-20010904/DTD/svg10.dtd">
<svg version="1.0" xmlns="http://www.w3.org/2000/svg"
 width="35.000000pt" height="41.000000pt" viewBox="0 0 35.000000 41.000000"
 preserveAspectRatio="xMidYMid meet">
<metadata>
Created by potrace 1.16, written by Peter Selinger 2001-2019
</metadata>
<g transform="translate(0.000000,41.000000) scale(0.100000,-0.100000)"
fill="#000000" stroke="none">
<path d="M43 403 l-23 -4 0 -39 0 -38 6 -16 6 -16 39 0 39 0 0 -24 0 -24 -15
-12 -14 -12 -41 7 -40 7 0 -41 0 -42 14 -34 14 -34 49 -3 48 -3 3 -32 3 -33
25 -6 25 -7 24 11 23 11 4 23 3 23 54 3 53 3 -6 60 -7 61 -9 24 -10 24 -25 0
-25 0 0 10 0 10 29 0 29 0 10 13 11 13 7 57 7 57 -35 0 -36 0 -31 -6 -32 -7 3
-31 3 -30 -27 -10 -27 -10 -20 18 -20 18 -3 32 -3 31 -30 1 -30 2 -22 -5z"/>
</g>
</svg>
