<?xml version="1.0" standalone="no"?>
<!DOCTYPE svg PUBLIC "-//W3C//DTD SVG 20010904//EN"
 "http://www.w3.org/TR/2001/REC-SVG-20010904/DTD/svg10.dtd">
<svg version="1.0" xmlns="http://www.w3.org/2000/svg"
 width="33.000000pt" height="39.000000pt" viewBox="0 0 33.000000 39.000000"
 preserveAspectRatio="xMidYMid meet">
<metadata>
Created by potrace 1.16, written by Peter Selinger 2001-2019
</metadata>
<g transform="translate(0.000000,39.000000) scale(0.100000,-0.100000)"
fill="#000000" stroke="none">
<path d="M43 383 l-23 -4 0 -29 0 -28 6 -16 6 -16 39 0 39 0 0 -34 0 -34 -15
-12 -15 -13 -40 6 -40 5 0 -29 0 -30 14 -34 15 -35 44 0 45 0 10 -13 11 -13
-5 -21 -6 -21 21 -7 20 -6 21 11 21 11 -6 19 -6 18 18 6 18 5 43 3 43 2 -7 50
-6 51 -9 24 -9 23 -20 -5 -19 -5 -11 14 -12 13 7 11 6 10 28 0 29 0 10 13 10
12 7 48 7 47 -25 0 -25 0 -31 -6 -32 -7 6 -28 6 -28 -20 -10 -20 -11 -24 0
-24 0 -16 18 -15 17 -4 30 -3 30 -20 1 -20 2 -22 -5z"/>
</g>
</svg>
