<?xml version="1.0" standalone="no"?>
<!DOCTYPE svg PUBLIC "-//W3C//DTD SVG 20010904//EN"
 "http://www.w3.org/TR/2001/REC-SVG-20010904/DTD/svg10.dtd">
<svg version="1.0" xmlns="http://www.w3.org/2000/svg"
 width="42.000000pt" height="42.000000pt" viewBox="0 0 42.000000 42.000000"
 preserveAspectRatio="xMidYMid meet">
<metadata>
Created by potrace 1.16, written by Peter Selinger 2001-2019
</metadata>
<g transform="translate(0.000000,42.000000) scale(0.100000,-0.100000)"
fill="#000000" stroke="none">
<path d="M119 414 l-17 -5 -7 -47 -7 -47 -10 -12 -10 -13 -30 0 -29 0 -6 -16
-6 -17 10 -16 10 -16 23 0 23 0 7 -20 7 -20 7 -48 7 -47 40 0 40 0 19 -10 18
-10 -5 -20 -5 -20 12 -15 12 -15 28 0 28 0 12 15 12 15 -5 19 -5 19 30 6 30 6
24 0 23 0 6 19 5 18 -14 57 -15 56 -6 10 -6 10 -15 0 -16 0 4 12 4 12 35 0 34
1 3 63 3 62 -18 0 -18 0 -45 -14 -45 -13 -3 -22 -3 -21 -18 0 -17 0 -19 13
-18 14 -1 29 -1 29 -40 2 -40 1 -16 -4z"/>
</g>
</svg>
