<?xml version="1.0" standalone="no"?>
<!DOCTYPE svg PUBLIC "-//W3C//DTD SVG 20010904//EN"
 "http://www.w3.org/TR/2001/REC-SVG-20010904/DTD/svg10.dtd">
<svg version="1.0" xmlns="http://www.w3.org/2000/svg"
 width="42.000000pt" height="42.000000pt" viewBox="0 0 42.000000 42.000000"
 preserveAspectRatio="xMidYMid meet">
<metadata>
Created by potrace 1.16, written by Peter Selinger 2001-2019
</metadata>
<g transform="translate(0.000000,42.000000) scale(0.100000,-0.100000)"
fill="#000000" stroke="none">
<path d="M103 413 l-22 -4 -3 -52 -3 -52 -29 3 -29 4 -8 -14 -9 -13 0 -27 0
-27 16 -16 17 -16 26 3 26 3 0 -55 0 -55 43 -3 42 -3 0 -34 0 -34 19 -11 20
-10 25 0 25 0 11 19 10 20 0 37 0 37 29 -6 29 -6 25 -6 26 -7 16 57 17 56 -6
16 -6 16 -34 -6 -34 -5 -17 18 -17 18 24 13 23 13 24 -3 24 -3 -6 24 -7 23 0
43 0 42 -71 0 -71 0 5 -29 6 -29 -13 -18 -14 -18 -17 17 -17 18 7 26 6 26 -13
8 -13 9 -30 -2 -30 -1 -22 -4z"/>
</g>
</svg>
