<?xml version="1.0" standalone="no"?>
<!DOCTYPE svg PUBLIC "-//W3C//DTD SVG 20010904//EN"
 "http://www.w3.org/TR/2001/REC-SVG-20010904/DTD/svg10.dtd">
<svg version="1.0" xmlns="http://www.w3.org/2000/svg"
 width="51.000000pt" height="33.000000pt" viewBox="0 0 51.000000 33.000000"
 preserveAspectRatio="xMidYMid meet">
<metadata>
Created by potrace 1.16, written by Peter Selinger 2001-2019
</metadata>
<g transform="translate(0.000000,33.000000) scale(0.100000,-0.100000)"
fill="#000000" stroke="none">
<path d="M333 323 l-53 -4 0 -33 0 -34 -15 -12 -15 -12 -15 6 -15 6 6 25 6 25
-12 15 -12 15 -53 0 -52 0 -7 -49 -6 -49 -14 -11 -13 -11 -32 6 -31 7 0 -34 0
-34 9 -13 8 -14 18 4 19 3 12 -41 12 -42 12 -21 11 -22 62 3 62 3 0 32 0 33
27 0 28 0 0 -24 0 -24 23 -5 22 -6 46 -6 46 -7 6 24 7 23 0 28 0 28 18 5 17 6
23 11 23 11 -3 45 -3 46 -40 0 -40 0 -3 30 -2 30 -5 23 -5 22 -13 -2 -12 -2
-52 -3z"/>
</g>
</svg>
