<?xml version="1.0" standalone="no"?>
<!DOCTYPE svg PUBLIC "-//W3C//DTD SVG 20010904//EN"
 "http://www.w3.org/TR/2001/REC-SVG-20010904/DTD/svg10.dtd">
<svg version="1.0" xmlns="http://www.w3.org/2000/svg"
 width="49.000000pt" height="38.000000pt" viewBox="0 0 49.000000 38.000000"
 preserveAspectRatio="xMidYMid meet">
<metadata>
Created by potrace 1.16, written by Peter Selinger 2001-2019
</metadata>
<g transform="translate(0.000000,38.000000) scale(0.100000,-0.100000)"
fill="#000000" stroke="none">
<path d="M144 372 l-40 -3 4 -61 5 -61 -41 5 -41 6 -16 -12 -16 -12 6 -16 7
-17 20 -7 20 -6 34 6 33 7 7 -25 6 -26 -11 -31 -11 -32 0 -9 0 -10 50 7 50 7
0 -22 0 -21 10 -20 11 -19 19 0 19 0 18 18 18 18 41 12 41 12 16 37 16 38 9
30 9 30 27 -3 26 -3 0 32 0 32 -40 -7 -39 -6 -11 19 -10 20 0 45 0 46 -29 0
-29 0 -15 -6 -15 -5 5 -18 5 -18 -17 -17 -16 -16 -23 0 -24 0 -12 15 -12 15 4
24 5 24 -16 4 -16 3 -41 -3z"/>
</g>
</svg>
