<?xml version="1.0" standalone="no"?>
<!DOCTYPE svg PUBLIC "-//W3C//DTD SVG 20010904//EN"
 "http://www.w3.org/TR/2001/REC-SVG-20010904/DTD/svg10.dtd">
<svg version="1.0" xmlns="http://www.w3.org/2000/svg"
 width="51.000000pt" height="40.000000pt" viewBox="0 0 51.000000 40.000000"
 preserveAspectRatio="xMidYMid meet">
<metadata>
Created by potrace 1.16, written by Peter Selinger 2001-2019
</metadata>
<g transform="translate(0.000000,40.000000) scale(0.100000,-0.100000)"
fill="#000000" stroke="none">
<path d="M143 393 l-43 -4 7 -61 6 -61 -36 7 -37 7 -20 -11 -20 -11 0 -19 0
-19 17 -16 16 -17 44 4 43 3 5 -16 6 -16 -11 -27 -10 -27 0 -21 0 -21 50 6 50
6 0 -20 0 -20 10 -20 11 -19 29 0 29 0 18 18 18 18 41 12 40 12 16 32 15 33 7
33 8 32 29 0 29 0 0 41 0 41 -41 -3 -40 -3 -9 14 -10 15 0 48 0 47 -42 0 -43
0 -14 -9 -14 -9 6 -16 6 -15 -15 -16 -15 -15 -13 0 -14 0 -11 14 -12 14 6 25
6 24 -23 7 -23 6 -5 -2 -5 -1 -42 -4z"/>
</g>
</svg>
