<?xml version="1.0" standalone="no"?>
<!DOCTYPE svg PUBLIC "-//W3C//DTD SVG 20010904//EN"
 "http://www.w3.org/TR/2001/REC-SVG-20010904/DTD/svg10.dtd">
<svg version="1.0" xmlns="http://www.w3.org/2000/svg"
 width="43.000000pt" height="33.000000pt" viewBox="0 0 43.000000 33.000000"
 preserveAspectRatio="xMidYMid meet">
<metadata>
Created by potrace 1.16, written by Peter Selinger 2001-2019
</metadata>
<g transform="translate(0.000000,33.000000) scale(0.100000,-0.100000)"
fill="#000000" stroke="none">
<path d="M80 275 l0 -54 -37 -3 -38 -3 -3 -43 -3 -43 12 -15 11 -14 18 0 18 0
7 -50 7 -50 60 0 59 0 20 10 19 11 0 34 0 35 15 0 15 0 0 -30 0 -30 28 -6 27
-6 38 -9 38 -10 13 14 14 14 7 45 7 44 -16 13 -15 12 -22 -3 -22 -3 -10 17
-11 16 13 16 13 15 29 -6 29 -5 0 40 0 41 -10 25 -10 26 -65 0 -66 0 6 -34 7
-34 -21 -7 -21 -6 -10 6 -9 6 6 29 5 30 -13 4 -14 4 -62 5 -63 5 0 -53z"/>
</g>
</svg>
