<?xml version="1.0" standalone="no"?>
<!DOCTYPE svg PUBLIC "-//W3C//DTD SVG 20010904//EN"
 "http://www.w3.org/TR/2001/REC-SVG-20010904/DTD/svg10.dtd">
<svg version="1.0" xmlns="http://www.w3.org/2000/svg"
 width="42.000000pt" height="33.000000pt" viewBox="0 0 42.000000 33.000000"
 preserveAspectRatio="xMidYMid meet">
<metadata>
Created by potrace 1.16, written by Peter Selinger 2001-2019
</metadata>
<g transform="translate(0.000000,33.000000) scale(0.100000,-0.100000)"
fill="#000000" stroke="none">
<path d="M303 324 l-13 -6 0 -38 0 -39 -19 -11 -20 -10 -13 5 -14 6 4 31 5 31
-19 14 -18 13 -58 0 -58 0 0 -53 0 -54 -28 5 -28 4 -13 -15 -12 -16 3 -43 3
-43 26 -3 27 -3 6 -22 6 -22 0 -27 0 -28 80 0 80 0 0 35 0 35 24 0 25 0 3 -16
3 -17 45 -13 45 -14 18 0 17 0 0 39 0 40 -10 26 -10 27 -25 -4 -25 -5 -11 13
-11 13 7 12 8 11 37 -6 38 -6 6 16 6 16 0 59 0 59 -32 0 -33 0 -20 5 -20 4
-12 -5z"/>
</g>
</svg>
