<?xml version="1.0" standalone="no"?>
<!DOCTYPE svg PUBLIC "-//W3C//DTD SVG 20010904//EN"
 "http://www.w3.org/TR/2001/REC-SVG-20010904/DTD/svg10.dtd">
<svg version="1.0" xmlns="http://www.w3.org/2000/svg"
 width="52.000000pt" height="49.000000pt" viewBox="0 0 52.000000 49.000000"
 preserveAspectRatio="xMidYMid meet">
<metadata>
Created by potrace 1.16, written by Peter Selinger 2001-2019
</metadata>
<g transform="translate(0.000000,49.000000) scale(0.100000,-0.100000)"
fill="#000000" stroke="none">
<path d="M221 481 l-14 -9 7 -26 6 -25 -19 -11 -20 -10 -41 0 -41 0 6 -53 7
-53 -40 4 -39 4 -17 -17 -17 -18 3 -26 3 -26 41 -3 42 -3 6 -31 6 -31 0 -34 0
-35 50 4 50 3 0 -20 0 -21 16 -22 15 -22 24 0 24 0 15 16 16 15 0 31 0 30 64
-7 64 -7 0 41 1 41 6 10 6 10 23 0 24 0 11 14 12 15 -3 38 -3 38 -38 3 -38 3
-9 25 -10 25 0 29 0 29 -55 6 -55 7 0 33 0 33 -16 6 -16 6 -21 0 -22 0 -14 -9z"/>
</g>
</svg>
