<?xml version="1.0" standalone="no"?>
<!DOCTYPE svg PUBLIC "-//W3C//DTD SVG 20010904//EN"
 "http://www.w3.org/TR/2001/REC-SVG-20010904/DTD/svg10.dtd">
<svg version="1.0" xmlns="http://www.w3.org/2000/svg"
 width="41.000000pt" height="40.000000pt" viewBox="0 0 41.000000 40.000000"
 preserveAspectRatio="xMidYMid meet">
<metadata>
Created by potrace 1.16, written by Peter Selinger 2001-2019
</metadata>
<g transform="translate(0.000000,40.000000) scale(0.100000,-0.100000)"
fill="#000000" stroke="none">
<path d="M10 336 l0 -65 42 -3 43 -3 4 -19 3 -20 -18 -13 -18 -13 -33 0 -33 0
0 -29 0 -29 6 -31 6 -31 44 0 44 0 0 -21 0 -20 10 -20 11 -19 42 0 43 0 12 12
12 12 0 34 0 35 46 -7 46 -6 -7 65 -7 65 39 0 38 0 13 9 13 8 -3 34 -3 34 -33
-3 -32 -2 -10 26 -10 25 0 31 0 30 -22 -5 -23 -6 -37 -6 -38 -7 0 -24 0 -25
-14 -5 -15 -6 -17 10 -18 10 -1 29 0 28 -62 3 -63 3 0 -65z"/>
</g>
</svg>
