<?xml version="1.0" standalone="no"?>
<!DOCTYPE svg PUBLIC "-//W3C//DTD SVG 20010904//EN"
 "http://www.w3.org/TR/2001/REC-SVG-20010904/DTD/svg10.dtd">
<svg version="1.0" xmlns="http://www.w3.org/2000/svg"
 width="38.000000pt" height="31.000000pt" viewBox="0 0 38.000000 31.000000"
 preserveAspectRatio="xMidYMid meet">
<metadata>
Created by potrace 1.16, written by Peter Selinger 2001-2019
</metadata>
<g transform="translate(0.000000,31.000000) scale(0.100000,-0.100000)"
fill="#000000" stroke="none">
<path d="M88 253 l-3 -58 -40 0 -40 0 0 -35 0 -35 32 3 31 3 7 -19 6 -20 1
-43 0 -44 59 0 60 0 -3 35 -2 36 8 12 7 12 28 0 28 0 -4 -24 -5 -24 53 -15 53
-16 5 4 4 5 -9 42 -9 43 -15 0 -15 1 -12 7 -13 8 0 34 0 34 38 3 37 3 3 48 3
47 -9 0 -8 0 -52 -15 -51 -16 4 -12 5 -12 -9 -13 -8 -13 -34 3 -34 3 0 43 0
42 -47 0 -47 0 -3 -57z"/>
</g>
</svg>
