<?xml version="1.0" standalone="no"?>
<!DOCTYPE svg PUBLIC "-//W3C//DTD SVG 20010904//EN"
 "http://www.w3.org/TR/2001/REC-SVG-20010904/DTD/svg10.dtd">
<svg version="1.0" xmlns="http://www.w3.org/2000/svg"
 width="41.000000pt" height="34.000000pt" viewBox="0 0 41.000000 34.000000"
 preserveAspectRatio="xMidYMid meet">
<metadata>
Created by potrace 1.16, written by Peter Selinger 2001-2019
</metadata>
<g transform="translate(0.000000,34.000000) scale(0.100000,-0.100000)"
fill="#000000" stroke="none">
<path d="M12 283 l3 -58 40 -1 40 0 3 -23 4 -24 -14 -8 -13 -9 -22 0 -23 0 -4
-23 -5 -22 -5 -30 -6 -30 -6 -22 -6 -22 58 6 59 6 18 9 17 9 0 29 0 30 9 0 9
0 13 -17 14 -16 0 -31 0 -31 44 -3 45 -3 23 12 23 12 0 13 0 13 11 51 11 50
24 0 25 0 5 15 6 15 -6 25 -6 25 -44 0 -45 0 6 56 6 55 -59 -3 -59 -3 0 -30
-1 -30 -7 -13 -8 -12 -29 0 -29 0 5 28 6 29 -17 16 -16 17 -50 0 -50 0 3 -57z"/>
</g>
</svg>
