<?xml version="1.0" standalone="no"?>
<!DOCTYPE svg PUBLIC "-//W3C//DTD SVG 20010904//EN"
 "http://www.w3.org/TR/2001/REC-SVG-20010904/DTD/svg10.dtd">
<svg version="1.0" xmlns="http://www.w3.org/2000/svg"
 width="39.000000pt" height="32.000000pt" viewBox="0 0 39.000000 32.000000"
 preserveAspectRatio="xMidYMid meet">
<metadata>
Created by potrace 1.16, written by Peter Selinger 2001-2019
</metadata>
<g transform="translate(0.000000,32.000000) scale(0.100000,-0.100000)"
fill="#000000" stroke="none">
<path d="M12 273 l3 -48 40 0 40 0 3 -33 3 -34 -18 -13 -18 -14 -17 5 -17 5
-5 -23 -5 -23 -6 -37 -6 -38 41 0 41 0 20 10 19 11 0 29 0 30 18 0 19 0 17
-19 17 -19 -3 -28 -3 -29 34 -3 34 -4 23 12 22 12 7 46 7 45 9 24 9 24 19 -6
19 -6 7 11 6 10 -6 21 -7 21 -41 -4 -42 -3 3 58 3 58 -48 -3 -48 -3 3 -22 3
-22 -11 -21 -11 -20 -41 0 -40 0 5 30 6 29 -15 16 -15 15 -40 0 -40 0 3 -47z"/>
</g>
</svg>
