<?xml version="1.0" standalone="no"?>
<!DOCTYPE svg PUBLIC "-//W3C//DTD SVG 20010904//EN"
 "http://www.w3.org/TR/2001/REC-SVG-20010904/DTD/svg10.dtd">
<svg version="1.0" xmlns="http://www.w3.org/2000/svg"
 width="48.000000pt" height="33.000000pt" viewBox="0 0 48.000000 33.000000"
 preserveAspectRatio="xMidYMid meet">
<metadata>
Created by potrace 1.16, written by Peter Selinger 2001-2019
</metadata>
<g transform="translate(0.000000,33.000000) scale(0.100000,-0.100000)"
fill="#000000" stroke="none">
<path d="M90 271 l0 -60 -42 2 -43 2 0 -35 0 -35 54 0 53 1 -6 -41 -5 -40 -7
-26 -6 -27 51 -7 50 -7 11 7 10 6 0 23 0 22 12 12 12 12 12 0 13 0 3 -37 3
-38 24 -3 24 -4 44 7 43 6 0 55 0 54 24 0 25 0 15 16 16 15 0 23 0 24 -14 11
-14 12 -26 -7 -26 -6 0 61 0 61 -37 0 -38 0 -23 -6 -23 -7 6 -28 7 -29 -27
-12 -26 -11 -11 11 -12 12 0 32 -1 33 -62 3 -63 3 0 -60z"/>
</g>
</svg>
