<?xml version="1.0" standalone="no"?>
<!DOCTYPE svg PUBLIC "-//W3C//DTD SVG 20010904//EN"
 "http://www.w3.org/TR/2001/REC-SVG-20010904/DTD/svg10.dtd">
<svg version="1.0" xmlns="http://www.w3.org/2000/svg"
 width="43.000000pt" height="51.000000pt" viewBox="0 0 43.000000 51.000000"
 preserveAspectRatio="xMidYMid meet">
<metadata>
Created by potrace 1.16, written by Peter Selinger 2001-2019
</metadata>
<g transform="translate(0.000000,51.000000) scale(0.100000,-0.100000)"
fill="#000000" stroke="none">
<path d="M145 498 l-4 -13 -3 -35 -3 -35 -66 1 -67 2 5 -62 5 -61 3 -12 4 -13
36 0 35 0 0 -9 0 -9 -19 -5 -18 -4 -22 -66 -21 -66 0 -10 0 -10 57 -3 58 -3 3
-30 4 -30 10 -13 10 -12 22 0 22 0 22 16 22 15 0 30 0 29 54 0 54 0 7 60 7 60
23 0 23 0 11 14 12 15 -3 28 -3 28 -35 3 -35 4 -7 11 -8 12 0 41 0 42 -32 14
-33 15 -31 12 -30 12 0 22 1 22 -33 3 -32 3 -5 -13z"/>
</g>
</svg>
