<?xml version="1.0" standalone="no"?>
<!DOCTYPE svg PUBLIC "-//W3C//DTD SVG 20010904//EN"
 "http://www.w3.org/TR/2001/REC-SVG-20010904/DTD/svg10.dtd">
<svg version="1.0" xmlns="http://www.w3.org/2000/svg"
 width="40.000000pt" height="48.000000pt" viewBox="0 0 40.000000 48.000000"
 preserveAspectRatio="xMidYMid meet">
<metadata>
Created by potrace 1.16, written by Peter Selinger 2001-2019
</metadata>
<g transform="translate(0.000000,48.000000) scale(0.100000,-0.100000)"
fill="#000000" stroke="none">
<path d="M210 441 l0 -40 -12 -8 -13 -8 -50 -5 -50 -5 -2 -40 -1 -40 -1 -14
-1 -13 -22 5 -21 6 -19 -10 -18 -10 0 -29 0 -30 13 -1 12 -1 17 1 17 2 6 -35
7 -35 2 -26 1 -25 57 0 57 0 3 -38 3 -37 45 0 45 0 0 25 0 25 15 7 15 7 32 0
32 1 6 9 5 10 -17 62 -17 62 -18 5 -18 4 0 24 0 24 30 0 29 0 11 19 10 20 0
35 0 36 -42 1 -43 1 -25 7 -25 7 3 28 3 28 -12 14 -11 14 -19 0 -19 0 0 -39z"/>
</g>
</svg>
