<?xml version="1.0" standalone="no"?>
<!DOCTYPE svg PUBLIC "-//W3C//DTD SVG 20010904//EN"
 "http://www.w3.org/TR/2001/REC-SVG-20010904/DTD/svg10.dtd">
<svg version="1.0" xmlns="http://www.w3.org/2000/svg"
 width="42.000000pt" height="50.000000pt" viewBox="0 0 42.000000 50.000000"
 preserveAspectRatio="xMidYMid meet">
<metadata>
Created by potrace 1.16, written by Peter Selinger 2001-2019
</metadata>
<g transform="translate(0.000000,50.000000) scale(0.100000,-0.100000)"
fill="#000000" stroke="none">
<path d="M210 461 l0 -40 -12 -8 -13 -8 -50 -5 -50 -5 -3 -51 -3 -52 -18 5
-19 5 -21 -11 -21 -12 0 -39 0 -39 20 -6 20 -6 9 5 9 6 6 -23 6 -22 0 -37 0
-38 59 0 60 0 3 -37 3 -38 55 0 55 0 4 25 3 25 12 7 11 8 33 0 33 0 5 15 6 15
-18 66 -18 67 -18 5 -18 4 0 14 0 14 30 0 29 0 11 19 10 20 0 45 0 46 -34 0
-33 0 -32 6 -31 7 0 31 0 32 -12 12 -12 12 -28 0 -28 0 0 -39z"/>
</g>
</svg>
