<?xml version="1.0" standalone="no"?>
<!DOCTYPE svg PUBLIC "-//W3C//DTD SVG 20010904//EN"
 "http://www.w3.org/TR/2001/REC-SVG-20010904/DTD/svg10.dtd">
<svg version="1.0" xmlns="http://www.w3.org/2000/svg"
 width="39.000000pt" height="31.000000pt" viewBox="0 0 39.000000 31.000000"
 preserveAspectRatio="xMidYMid meet">
<metadata>
Created by potrace 1.16, written by Peter Selinger 2001-2019
</metadata>
<g transform="translate(0.000000,31.000000) scale(0.100000,-0.100000)"
fill="#000000" stroke="none">
<path d="M40 301 l-25 -7 -8 -43 -9 -43 6 -13 5 -13 39 5 40 5 7 -21 6 -21 -6
-10 -7 -11 -19 6 -19 6 -9 -24 -9 -24 -7 -47 -7 -47 58 3 59 3 0 35 0 35 12 8
12 8 26 -7 25 -6 -6 -24 -6 -23 24 -6 23 -6 30 -2 30 -2 5 60 5 60 27 0 27 0
12 13 13 12 -13 13 -12 12 -27 0 -27 0 -3 59 -3 58 -37 -6 -37 -6 -18 0 -18 0
6 -21 7 -21 -13 -9 -14 -9 -27 0 -28 0 0 40 0 40 -32 -1 -33 -1 -25 -7z"/>
</g>
</svg>
