<?xml version="1.0" standalone="no"?>
<!DOCTYPE svg PUBLIC "-//W3C//DTD SVG 20010904//EN"
 "http://www.w3.org/TR/2001/REC-SVG-20010904/DTD/svg10.dtd">
<svg version="1.0" xmlns="http://www.w3.org/2000/svg"
 width="41.000000pt" height="33.000000pt" viewBox="0 0 41.000000 33.000000"
 preserveAspectRatio="xMidYMid meet">
<metadata>
Created by potrace 1.16, written by Peter Selinger 2001-2019
</metadata>
<g transform="translate(0.000000,33.000000) scale(0.100000,-0.100000)"
fill="#000000" stroke="none">
<path d="M40 321 l-25 -7 -9 -51 -9 -52 7 -16 6 -17 39 7 38 6 6 -15 6 -16
-25 0 -24 0 -10 -26 -10 -25 -6 -55 -7 -55 69 3 69 3 5 40 5 40 8 -2 7 -3 10
0 10 0 0 -25 0 -25 27 -6 26 -7 36 -1 36 -1 5 60 5 59 29 1 29 0 11 18 11 17
-11 18 -11 17 -29 0 -29 1 -3 57 -3 57 -18 0 -18 0 -47 -6 -48 -7 5 -23 4 -23
-14 -5 -15 -6 -14 0 -14 0 0 40 0 40 -42 -1 -43 -1 -25 -7z"/>
</g>
</svg>
