<?xml version="1.0" standalone="no"?>
<!DOCTYPE svg PUBLIC "-//W3C//DTD SVG 20010904//EN"
 "http://www.w3.org/TR/2001/REC-SVG-20010904/DTD/svg10.dtd">
<svg version="1.0" xmlns="http://www.w3.org/2000/svg"
 width="39.000000pt" height="39.000000pt" viewBox="0 0 39.000000 39.000000"
 preserveAspectRatio="xMidYMid meet">
<metadata>
Created by potrace 1.16, written by Peter Selinger 2001-2019
</metadata>
<g transform="translate(0.000000,39.000000) scale(0.100000,-0.100000)"
fill="#000000" stroke="none">
<path d="M80 356 l0 -35 -10 -26 -10 -25 -30 -7 -31 -6 3 -31 3 -31 33 -3 32
-3 0 -47 0 -47 9 -14 9 -13 40 4 41 3 3 -35 3 -35 60 0 60 0 3 22 3 23 40 6
39 7 -1 36 -1 36 -7 30 -6 29 -25 6 -25 6 0 29 0 30 38 3 37 3 0 60 0 59 -10
0 -9 0 -23 -9 -23 -10 -27 -5 -28 -6 0 -25 0 -24 -19 -11 -20 -10 -15 6 -16 6
0 44 0 44 -60 0 -60 0 0 -34z"/>
</g>
</svg>
