<?xml version="1.0" standalone="no"?>
<!DOCTYPE svg PUBLIC "-//W3C//DTD SVG 20010904//EN"
 "http://www.w3.org/TR/2001/REC-SVG-20010904/DTD/svg10.dtd">
<svg version="1.0" xmlns="http://www.w3.org/2000/svg"
 width="37.000000pt" height="37.000000pt" viewBox="0 0 37.000000 37.000000"
 preserveAspectRatio="xMidYMid meet">
<metadata>
Created by potrace 1.16, written by Peter Selinger 2001-2019
</metadata>
<g transform="translate(0.000000,37.000000) scale(0.100000,-0.100000)"
fill="#000000" stroke="none">
<path d="M80 336 l0 -35 -10 -26 -10 -25 -30 -7 -31 -6 3 -21 3 -21 30 0 30 0
3 -40 2 -40 6 -24 5 -24 44 6 44 6 3 -37 3 -37 50 0 50 0 0 20 0 20 43 9 42
10 -1 25 -1 26 -7 30 -6 30 -17 0 -17 0 -11 11 -11 11 3 34 3 34 38 3 37 3 0
49 0 50 -22 -10 -23 -9 -28 -6 -28 -6 6 -19 6 -19 -25 -17 -26 -16 -25 6 -25
6 -1 18 -1 17 2 28 2 27 -51 0 -51 0 0 -34z"/>
</g>
</svg>
