<?xml version="1.0" standalone="no"?>
<!DOCTYPE svg PUBLIC "-//W3C//DTD SVG 20010904//EN"
 "http://www.w3.org/TR/2001/REC-SVG-20010904/DTD/svg10.dtd">
<svg version="1.0" xmlns="http://www.w3.org/2000/svg"
 width="49.000000pt" height="33.000000pt" viewBox="0 0 49.000000 33.000000"
 preserveAspectRatio="xMidYMid meet">
<metadata>
Created by potrace 1.16, written by Peter Selinger 2001-2019
</metadata>
<g transform="translate(0.000000,33.000000) scale(0.100000,-0.100000)"
fill="#000000" stroke="none">
<path d="M98 273 l-3 -58 -45 -5 -45 -5 -3 -28 -3 -28 12 -15 11 -14 28 0 28
0 6 -22 6 -23 0 -37 0 -38 48 6 47 5 23 5 22 4 0 29 0 29 14 5 14 6 15 -22 15
-23 50 -13 51 -13 11 7 10 6 0 37 0 37 6 22 6 23 23 -6 23 -6 12 22 12 23 -11
24 -11 24 -33 -3 -32 -3 4 54 3 54 -23 -7 -24 -6 -38 -6 -39 -7 -9 -23 -9 -24
-27 0 -28 0 0 33 0 32 -57 3 -57 3 -3 -58z"/>
</g>
</svg>
