<?xml version="1.0" standalone="no"?>
<!DOCTYPE svg PUBLIC "-//W3C//DTD SVG 20010904//EN"
 "http://www.w3.org/TR/2001/REC-SVG-20010904/DTD/svg10.dtd">
<svg version="1.0" xmlns="http://www.w3.org/2000/svg"
 width="47.000000pt" height="31.000000pt" viewBox="0 0 47.000000 31.000000"
 preserveAspectRatio="xMidYMid meet">
<metadata>
Created by potrace 1.16, written by Peter Selinger 2001-2019
</metadata>
<g transform="translate(0.000000,31.000000) scale(0.100000,-0.100000)"
fill="#000000" stroke="none">
<path d="M100 261 l0 -49 -5 -14 -5 -13 -40 3 -40 4 -7 -17 -6 -18 10 -16 10
-16 28 0 28 0 8 -20 8 -20 0 -40 1 -41 38 3 37 4 23 5 22 4 0 30 0 29 22 6 21
7 17 -23 18 -23 43 -12 43 -13 8 5 8 5 0 37 0 37 7 23 6 24 24 -5 24 -4 9 16
9 17 -9 15 -9 14 -33 0 -33 0 3 51 2 51 -52 -12 -53 -12 0 -14 0 -14 -10 -7
-10 -8 -38 0 -37 0 2 33 3 32 -47 3 -48 3 0 -50z"/>
</g>
</svg>
