<?xml version="1.0" standalone="no"?>
<!DOCTYPE svg PUBLIC "-//W3C//DTD SVG 20010904//EN"
 "http://www.w3.org/TR/2001/REC-SVG-20010904/DTD/svg10.dtd">
<svg version="1.0" xmlns="http://www.w3.org/2000/svg"
 width="45.000000pt" height="42.000000pt" viewBox="0 0 45.000000 42.000000"
 preserveAspectRatio="xMidYMid meet">
<metadata>
Created by potrace 1.16, written by Peter Selinger 2001-2019
</metadata>
<g transform="translate(0.000000,42.000000) scale(0.100000,-0.100000)"
fill="#000000" stroke="none">
<path d="M205 386 l7 -34 -20 -11 -21 -11 -36 0 -36 0 -4 -12 -3 -13 -7 -37
-6 -37 -37 -3 -37 -3 0 -45 0 -45 53 -3 54 -3 -7 -17 -6 -17 -6 -49 -6 -49 24
6 24 7 53 0 54 0 -4 37 -3 38 26 3 26 3 -4 -25 -5 -24 19 -10 18 -9 51 -7 51
-6 13 30 13 31 1 37 1 37 -55 5 -55 5 -3 18 -3 17 45 0 46 0 0 69 0 69 -27 10
-28 11 -35 9 -35 8 3 27 3 27 -51 0 -51 0 6 -34z"/>
</g>
</svg>
