<?xml version="1.0" standalone="no"?>
<!DOCTYPE svg PUBLIC "-//W3C//DTD SVG 20010904//EN"
 "http://www.w3.org/TR/2001/REC-SVG-20010904/DTD/svg10.dtd">
<svg version="1.0" xmlns="http://www.w3.org/2000/svg"
 width="43.000000pt" height="40.000000pt" viewBox="0 0 43.000000 40.000000"
 preserveAspectRatio="xMidYMid meet">
<metadata>
Created by potrace 1.16, written by Peter Selinger 2001-2019
</metadata>
<g transform="translate(0.000000,40.000000) scale(0.100000,-0.100000)"
fill="#000000" stroke="none">
<path d="M208 368 l5 -31 -19 -14 -18 -13 -38 0 -39 0 -4 -12 -3 -13 -7 -37
-6 -37 -37 -3 -37 -3 0 -35 0 -35 54 -3 53 -3 -7 -32 -6 -32 -6 -30 -5 -30 67
3 67 4 -6 33 -7 34 19 10 19 10 22 -6 22 -6 -5 -23 -6 -23 17 -9 18 -9 42 -6
41 -5 12 27 11 27 2 29 2 30 -48 1 -48 1 -10 10 -11 11 4 23 3 24 43 -3 42 -4
0 60 0 60 -27 10 -28 11 -35 9 -35 9 2 26 2 27 -38 0 -38 0 5 -32z"/>
</g>
</svg>
