<?xml version="1.0" standalone="no"?>
<!DOCTYPE svg PUBLIC "-//W3C//DTD SVG 20010904//EN"
 "http://www.w3.org/TR/2001/REC-SVG-20010904/DTD/svg10.dtd">
<svg version="1.0" xmlns="http://www.w3.org/2000/svg"
 width="47.000000pt" height="48.000000pt" viewBox="0 0 47.000000 48.000000"
 preserveAspectRatio="xMidYMid meet">
<metadata>
Created by potrace 1.16, written by Peter Selinger 2001-2019
</metadata>
<g transform="translate(0.000000,48.000000) scale(0.100000,-0.100000)"
fill="#000000" stroke="none">
<path d="M231 471 l-14 -9 6 -23 6 -23 -11 -13 -10 -13 -59 0 -59 0 0 -50 0
-50 -34 0 -34 0 -12 -15 -12 -14 7 -30 6 -29 14 -5 13 -6 20 6 21 5 6 -39 6
-38 2 -15 2 -15 48 0 47 0 0 -38 0 -37 25 -12 26 -12 27 10 27 10 0 24 0 25
46 10 45 10 -13 45 -13 44 6 18 5 18 39 -6 38 -6 12 21 11 22 -6 19 -6 20 -12
1 -12 1 -22 -2 -23 -1 0 53 0 53 -56 -4 -57 -3 7 27 7 27 -16 24 -15 24 -8 0
-7 0 -14 -9z"/>
</g>
</svg>
