<?xml version="1.0" standalone="no"?>
<!DOCTYPE svg PUBLIC "-//W3C//DTD SVG 20010904//EN"
 "http://www.w3.org/TR/2001/REC-SVG-20010904/DTD/svg10.dtd">
<svg version="1.0" xmlns="http://www.w3.org/2000/svg"
 width="34.000000pt" height="49.000000pt" viewBox="0 0 34.000000 49.000000"
 preserveAspectRatio="xMidYMid meet">
<metadata>
Created by potrace 1.16, written by Peter Selinger 2001-2019
</metadata>
<g transform="translate(0.000000,49.000000) scale(0.100000,-0.100000)"
fill="#000000" stroke="none">
<path d="M137 483 l-7 -6 0 -43 0 -42 -60 5 -60 6 0 -19 0 -19 -6 -37 -6 -37
43 -3 44 -3 3 -28 3 -28 -11 -14 -11 -14 -35 6 -34 6 0 -44 0 -44 6 -22 6 -23
42 0 41 0 12 -8 11 -7 4 -30 3 -30 40 0 40 0 3 43 3 42 65 -6 64 -7 0 72 0 71
-35 0 -36 0 -5 15 -6 15 12 15 12 15 29 0 29 0 0 23 0 22 -6 37 -6 37 -67 3
-66 3 3 19 3 19 -5 23 -6 24 -24 0 -23 0 -6 -7z"/>
</g>
</svg>
