<?xml version="1.0" standalone="no"?>
<!DOCTYPE svg PUBLIC "-//W3C//DTD SVG 20010904//EN"
 "http://www.w3.org/TR/2001/REC-SVG-20010904/DTD/svg10.dtd">
<svg version="1.0" xmlns="http://www.w3.org/2000/svg"
 width="43.000000pt" height="50.000000pt" viewBox="0 0 43.000000 50.000000"
 preserveAspectRatio="xMidYMid meet">
<metadata>
Created by potrace 1.16, written by Peter Selinger 2001-2019
</metadata>
<g transform="translate(0.000000,50.000000) scale(0.100000,-0.100000)"
fill="#000000" stroke="none">
<path d="M135 488 l-4 -13 -3 -30 -3 -30 -50 -3 -49 -3 -13 -11 -13 -10 0 -56
0 -55 35 6 35 6 15 -16 16 -15 -12 -14 -11 -14 -34 0 -34 0 0 -47 0 -48 -6
-22 -6 -22 58 -3 59 -3 0 -40 0 -40 48 -3 49 -3 14 12 14 11 0 41 0 40 38 -6
37 -6 14 8 14 9 -10 41 -11 41 32 0 32 0 22 16 22 15 0 43 0 44 -16 6 -16 6
-29 0 -29 0 0 33 0 32 -6 23 -7 23 -21 -5 -22 -5 -29 7 -29 8 -1 30 0 29 -43
3 -42 3 -5 -13z"/>
</g>
</svg>
