<?xml version="1.0" standalone="no"?>
<!DOCTYPE svg PUBLIC "-//W3C//DTD SVG 20010904//EN"
 "http://www.w3.org/TR/2001/REC-SVG-20010904/DTD/svg10.dtd">
<svg version="1.0" xmlns="http://www.w3.org/2000/svg"
 width="42.000000pt" height="42.000000pt" viewBox="0 0 42.000000 42.000000"
 preserveAspectRatio="xMidYMid meet">
<metadata>
Created by potrace 1.16, written by Peter Selinger 2001-2019
</metadata>
<g transform="translate(0.000000,42.000000) scale(0.100000,-0.100000)"
fill="#000000" stroke="none">
<path d="M130 400 l-10 -20 6 -25 6 -25 -56 0 -56 0 0 -61 0 -62 30 6 30 6 15
-5 15 -6 0 -24 0 -24 -24 -15 -24 -16 -26 7 -26 6 -6 -16 -6 -16 12 -50 12
-51 72 3 71 3 0 43 0 42 17 0 18 0 -6 -28 -6 -28 27 -12 26 -12 19 0 19 0 26
-12 26 -12 9 15 9 14 11 52 11 52 22 3 22 3 0 45 0 45 -37 3 -38 3 0 44 0 45
-22 14 -23 14 -43 12 -42 11 6 24 6 25 -41 0 -40 0 -11 -20z"/>
</g>
</svg>
