<?xml version="1.0" standalone="no"?>
<!DOCTYPE svg PUBLIC "-//W3C//DTD SVG 20010904//EN"
 "http://www.w3.org/TR/2001/REC-SVG-20010904/DTD/svg10.dtd">
<svg version="1.0" xmlns="http://www.w3.org/2000/svg"
 width="40.000000pt" height="40.000000pt" viewBox="0 0 40.000000 40.000000"
 preserveAspectRatio="xMidYMid meet">
<metadata>
Created by potrace 1.16, written by Peter Selinger 2001-2019
</metadata>
<g transform="translate(0.000000,40.000000) scale(0.100000,-0.100000)"
fill="#000000" stroke="none">
<path d="M134 388 l-8 -12 2 -36 3 -35 -56 3 -55 4 0 -52 0 -51 21 6 20 7 25
-6 24 -6 0 -35 0 -35 -25 -16 -25 -16 -25 4 -25 5 -6 -8 -5 -8 12 -46 12 -46
61 3 61 3 -1 40 -2 40 10 6 10 7 20 -6 20 -5 -6 -27 -5 -27 25 -12 25 -11 20
0 20 0 19 -10 18 -10 11 33 10 32 6 32 6 32 22 3 22 3 0 35 0 35 -37 3 -38 3
0 44 0 45 -22 14 -23 14 -44 12 -43 11 5 25 4 24 -28 0 -28 0 -7 -12z"/>
</g>
</svg>
