<?xml version="1.0" standalone="no"?>
<!DOCTYPE svg PUBLIC "-//W3C//DTD SVG 20010904//EN"
 "http://www.w3.org/TR/2001/REC-SVG-20010904/DTD/svg10.dtd">
<svg version="1.0" xmlns="http://www.w3.org/2000/svg"
 width="42.000000pt" height="42.000000pt" viewBox="0 0 42.000000 42.000000"
 preserveAspectRatio="xMidYMid meet">
<metadata>
Created by potrace 1.16, written by Peter Selinger 2001-2019
</metadata>
<g transform="translate(0.000000,42.000000) scale(0.100000,-0.100000)"
fill="#000000" stroke="none">
<path d="M131 406 l-12 -14 3 -29 3 -28 -60 -5 -60 -5 -3 -44 -3 -44 6 -24 6
-24 34 2 35 3 12 -12 13 -13 -19 -14 -19 -15 -25 7 -24 6 -9 -14 -9 -14 0 -64
0 -63 22 6 23 6 58 0 57 0 0 46 0 45 18 -3 17 -3 5 -35 5 -35 64 -13 64 -12 3
3 3 3 14 55 14 54 19 4 19 3 7 12 8 11 0 28 0 28 -11 21 -11 20 -29 -6 -29 -5
0 49 0 49 -57 3 -58 3 3 23 4 24 -18 19 -17 19 -27 0 -28 0 -11 -14z"/>
</g>
</svg>
