<?xml version="1.0" standalone="no"?>
<!DOCTYPE svg PUBLIC "-//W3C//DTD SVG 20010904//EN"
 "http://www.w3.org/TR/2001/REC-SVG-20010904/DTD/svg10.dtd">
<svg version="1.0" xmlns="http://www.w3.org/2000/svg"
 width="52.000000pt" height="45.000000pt" viewBox="0 0 52.000000 45.000000"
 preserveAspectRatio="xMidYMid meet">
<metadata>
Created by potrace 1.16, written by Peter Selinger 2001-2019
</metadata>
<g transform="translate(0.000000,45.000000) scale(0.100000,-0.100000)"
fill="#000000" stroke="none">
<path d="M231 436 l-12 -14 6 -25 7 -25 -20 -11 -21 -11 -45 0 -46 0 0 -45 0
-45 -34 0 -35 0 -15 -16 -16 -15 0 -38 0 -37 12 -12 12 -12 33 0 33 0 0 -50 0
-50 56 0 55 0 20 10 19 11 0 33 0 34 14 5 14 6 18 -13 17 -13 -6 -37 -6 -37 6
-15 5 -14 31 0 31 0 33 12 33 12 0 16 0 15 -15 48 -14 47 43 0 42 0 18 13 18
13 -4 34 -3 35 -35 3 -35 4 -7 11 -8 12 0 37 0 37 -37 10 -38 9 -27 6 -26 6 5
21 6 22 -18 13 -19 14 -17 0 -17 0 -11 -14z"/>
</g>
</svg>
