<?xml version="1.0" standalone="no"?>
<!DOCTYPE svg PUBLIC "-//W3C//DTD SVG 20010904//EN"
 "http://www.w3.org/TR/2001/REC-SVG-20010904/DTD/svg10.dtd">
<svg version="1.0" xmlns="http://www.w3.org/2000/svg"
 width="50.000000pt" height="43.000000pt" viewBox="0 0 50.000000 43.000000"
 preserveAspectRatio="xMidYMid meet">
<metadata>
Created by potrace 1.16, written by Peter Selinger 2001-2019
</metadata>
<g transform="translate(0.000000,43.000000) scale(0.100000,-0.100000)"
fill="#000000" stroke="none">
<path d="M233 418 l-7 -13 3 -27 2 -27 -20 -10 -20 -11 -45 0 -46 0 0 -49 0
-50 -33 6 -34 5 -16 -17 -17 -16 0 -28 0 -29 14 -12 15 -12 28 4 28 3 3 -52 3
-53 48 0 47 0 19 13 18 14 -5 27 -6 28 23 10 22 10 22 -12 22 -11 -1 -42 -2
-42 1 -12 1 -13 25 0 24 0 28 12 28 12 3 2 3 2 -16 57 -17 56 7 7 6 6 34 -3
34 -2 21 11 21 11 -3 27 -3 27 -35 3 -35 4 -7 11 -8 12 0 37 0 37 -37 10 -38
9 -28 6 -29 7 6 24 6 24 -19 11 -20 10 -5 0 -5 0 -8 -12z"/>
</g>
</svg>
