<?xml version="1.0" standalone="no"?>
<!DOCTYPE svg PUBLIC "-//W3C//DTD SVG 20010904//EN"
 "http://www.w3.org/TR/2001/REC-SVG-20010904/DTD/svg10.dtd">
<svg version="1.0" xmlns="http://www.w3.org/2000/svg"
 width="46.000000pt" height="42.000000pt" viewBox="0 0 46.000000 42.000000"
 preserveAspectRatio="xMidYMid meet">
<metadata>
Created by potrace 1.16, written by Peter Selinger 2001-2019
</metadata>
<g transform="translate(0.000000,42.000000) scale(0.100000,-0.100000)"
fill="#000000" stroke="none">
<path d="M165 408 l-4 -13 -3 -35 -3 -35 -62 1 -63 1 0 -69 0 -68 34 0 34 0 5
-12 4 -13 -9 -18 -9 -17 -38 6 -39 6 -7 -21 -7 -22 12 -50 12 -50 77 3 76 3 0
30 1 30 14 0 15 0 3 -32 3 -33 85 0 84 0 0 29 0 28 6 31 6 31 32 3 31 3 0 40
0 40 -39 1 -39 0 -8 20 -8 19 0 36 -1 37 -27 10 -28 11 -35 10 -36 11 1 28 0
27 -33 3 -32 3 -5 -13z"/>
</g>
</svg>
