<?xml version="1.0" standalone="no"?>
<!DOCTYPE svg PUBLIC "-//W3C//DTD SVG 20010904//EN"
 "http://www.w3.org/TR/2001/REC-SVG-20010904/DTD/svg10.dtd">
<svg version="1.0" xmlns="http://www.w3.org/2000/svg"
 width="44.000000pt" height="50.000000pt" viewBox="0 0 44.000000 50.000000"
 preserveAspectRatio="xMidYMid meet">
<metadata>
Created by potrace 1.16, written by Peter Selinger 2001-2019
</metadata>
<g transform="translate(0.000000,50.000000) scale(0.100000,-0.100000)"
fill="#000000" stroke="none">
<path d="M157 482 l-17 -19 0 -31 0 -31 -51 -3 -52 -3 -10 -16 -10 -16 7 -45
7 -46 32 -16 32 -16 -10 -1 -10 -2 -35 -1 -35 -1 3 -74 2 -75 6 -5 6 -6 61 0
62 0 -3 -26 -3 -26 15 -12 15 -12 37 3 38 3 6 25 6 25 53 9 53 9 -7 57 -7 56
34 -4 34 -4 13 15 12 15 -3 49 -3 48 -40 3 -40 3 4 46 3 46 -28 -7 -29 -6 -38
-7 -38 -6 6 37 7 36 -16 25 -16 25 -19 0 -18 0 -16 -18z"/>
</g>
</svg>
