<?xml version="1.0" standalone="no"?>
<!DOCTYPE svg PUBLIC "-//W3C//DTD SVG 20010904//EN"
 "http://www.w3.org/TR/2001/REC-SVG-20010904/DTD/svg10.dtd">
<svg version="1.0" xmlns="http://www.w3.org/2000/svg"
 width="42.000000pt" height="48.000000pt" viewBox="0 0 42.000000 48.000000"
 preserveAspectRatio="xMidYMid meet">
<metadata>
Created by potrace 1.16, written by Peter Selinger 2001-2019
</metadata>
<g transform="translate(0.000000,48.000000) scale(0.100000,-0.100000)"
fill="#000000" stroke="none">
<path d="M155 460 l-18 -19 6 -31 7 -30 -54 0 -54 0 -12 -15 -12 -14 7 -39 6
-39 24 -13 23 -12 11 6 11 7 0 -14 0 -15 -14 -11 -15 -12 -33 3 -33 3 1 -35 1
-35 4 -32 4 -33 10 -1 10 0 55 -2 55 -2 0 -27 0 -27 11 -11 12 -12 28 4 29 3
0 20 0 20 10 7 9 7 48 6 48 7 -7 60 -6 59 35 -6 34 -7 13 16 12 15 -3 38 -3
38 -42 3 -42 3 6 46 6 46 -19 -8 -19 -7 -49 -6 -49 -5 6 40 7 39 -16 22 -15
22 -8 0 -8 0 -18 -20z"/>
</g>
</svg>
