<?xml version="1.0" standalone="no"?>
<!DOCTYPE svg PUBLIC "-//W3C//DTD SVG 20010904//EN"
 "http://www.w3.org/TR/2001/REC-SVG-20010904/DTD/svg10.dtd">
<svg version="1.0" xmlns="http://www.w3.org/2000/svg"
 width="33.000000pt" height="44.000000pt" viewBox="0 0 33.000000 44.000000"
 preserveAspectRatio="xMidYMid meet">
<metadata>
Created by potrace 1.16, written by Peter Selinger 2001-2019
</metadata>
<g transform="translate(0.000000,44.000000) scale(0.100000,-0.100000)"
fill="#000000" stroke="none">
<path d="M131 427 l-11 -15 2 -33 3 -34 -63 -3 -63 -3 3 -62 3 -62 35 -5 35
-5 0 -15 0 -15 -32 -3 -33 -3 -6 -23 -5 -22 3 -50 3 -49 63 -3 64 -3 14 12 14
11 0 29 0 29 10 0 10 0 2 -12 1 -13 1 -35 1 -35 29 -3 30 -4 43 7 43 6 -2 162
-3 162 -20 -2 -20 -2 -42 -7 -42 -6 -3 58 -3 59 -26 3 -26 3 -12 -14z"/>
</g>
</svg>
