<?xml version="1.0" standalone="no"?>
<!DOCTYPE svg PUBLIC "-//W3C//DTD SVG 20010904//EN"
 "http://www.w3.org/TR/2001/REC-SVG-20010904/DTD/svg10.dtd">
<svg version="1.0" xmlns="http://www.w3.org/2000/svg"
 width="31.000000pt" height="42.000000pt" viewBox="0 0 31.000000 42.000000"
 preserveAspectRatio="xMidYMid meet">
<metadata>
Created by potrace 1.16, written by Peter Selinger 2001-2019
</metadata>
<g transform="translate(0.000000,42.000000) scale(0.100000,-0.100000)"
fill="#000000" stroke="none">
<path d="M134 408 l-9 -13 0 -35 0 -35 -63 -3 -63 -3 3 -52 3 -52 35 -5 35 -5
3 -18 4 -18 -12 -14 -12 -15 -24 6 -23 6 -6 -24 -6 -25 3 -39 3 -39 53 -3 54
-3 14 12 14 11 0 29 0 29 20 0 20 0 5 -22 6 -23 -3 -25 -3 -24 19 -4 18 -4 44
7 45 6 -3 152 -3 152 -20 -5 -20 -4 -45 -1 -45 0 0 55 0 55 -17 3 -16 3 -8
-13z"/>
</g>
</svg>
