<?xml version="1.0" standalone="no"?>
<!DOCTYPE svg PUBLIC "-//W3C//DTD SVG 20010904//EN"
 "http://www.w3.org/TR/2001/REC-SVG-20010904/DTD/svg10.dtd">
<svg version="1.0" xmlns="http://www.w3.org/2000/svg"
 width="34.000000pt" height="43.000000pt" viewBox="0 0 34.000000 43.000000"
 preserveAspectRatio="xMidYMid meet">
<metadata>
Created by potrace 1.16, written by Peter Selinger 2001-2019
</metadata>
<g transform="translate(0.000000,43.000000) scale(0.100000,-0.100000)"
fill="#000000" stroke="none">
<path d="M7 423 l-7 -6 0 -55 0 -54 34 6 34 7 16 -16 16 -16 0 -18 0 -17 -12
-12 -12 -12 -38 0 -38 0 0 -65 0 -65 53 0 53 0 -4 -40 -4 -40 28 -10 28 -11
22 12 22 11 6 22 6 21 0 33 0 33 23 -7 22 -8 35 -1 35 0 8 48 9 47 -6 26 -7
25 -32 -1 -32 -2 -12 1 -13 1 0 15 0 15 29 0 29 0 9 13 10 12 6 58 6 57 -158
0 -158 0 -6 -7z"/>
</g>
</svg>
