<?xml version="1.0" standalone="no"?>
<!DOCTYPE svg PUBLIC "-//W3C//DTD SVG 20010904//EN"
 "http://www.w3.org/TR/2001/REC-SVG-20010904/DTD/svg10.dtd">
<svg version="1.0" xmlns="http://www.w3.org/2000/svg"
 width="34.000000pt" height="40.000000pt" viewBox="0 0 34.000000 40.000000"
 preserveAspectRatio="xMidYMid meet">
<metadata>
Created by potrace 1.16, written by Peter Selinger 2001-2019
</metadata>
<g transform="translate(0.000000,40.000000) scale(0.100000,-0.100000)"
fill="#000000" stroke="none">
<path d="M105 390 l-6 -10 6 -30 7 -30 -57 0 -56 0 3 -62 3 -63 40 -3 40 -3 7
-7 7 -7 -9 -15 -9 -15 -41 1 -41 1 3 -71 3 -71 65 0 65 0 5 40 5 40 10 0 10 0
3 -20 4 -20 7 -8 7 -7 58 -15 57 -15 9 0 9 0 11 38 12 37 -4 40 -3 40 -42 0
-42 1 -7 7 -7 7 13 15 12 15 34 0 34 0 0 54 0 55 -19 6 -18 6 -27 -11 -27 -10
-25 0 -24 0 0 31 0 30 -10 20 -11 19 -29 0 -29 0 -6 -10z"/>
</g>
</svg>
