<?xml version="1.0" standalone="no"?>
<!DOCTYPE svg PUBLIC "-//W3C//DTD SVG 20010904//EN"
 "http://www.w3.org/TR/2001/REC-SVG-20010904/DTD/svg10.dtd">
<svg version="1.0" xmlns="http://www.w3.org/2000/svg"
 width="42.000000pt" height="43.000000pt" viewBox="0 0 42.000000 43.000000"
 preserveAspectRatio="xMidYMid meet">
<metadata>
Created by potrace 1.16, written by Peter Selinger 2001-2019
</metadata>
<g transform="translate(0.000000,43.000000) scale(0.100000,-0.100000)"
fill="#000000" stroke="none">
<path d="M135 418 l-4 -13 -3 -30 -3 -30 -62 1 -63 1 0 -163 0 -162 61 -7 60
-7 6 5 5 6 7 33 7 33 19 0 20 0 3 -37 3 -37 20 -6 20 -7 50 7 49 7 0 13 0 12
-15 43 -15 43 0 8 0 8 51 3 52 3 11 18 11 17 -15 28 -16 27 -36 3 -37 3 6 49
6 49 -69 3 -69 3 3 28 4 28 -12 15 -12 14 -20 0 -19 0 -4 -12z"/>
</g>
</svg>
