<?xml version="1.0" standalone="no"?>
<!DOCTYPE svg PUBLIC "-//W3C//DTD SVG 20010904//EN"
 "http://www.w3.org/TR/2001/REC-SVG-20010904/DTD/svg10.dtd">
<svg version="1.0" xmlns="http://www.w3.org/2000/svg"
 width="40.000000pt" height="41.000000pt" viewBox="0 0 40.000000 41.000000"
 preserveAspectRatio="xMidYMid meet">
<metadata>
Created by potrace 1.16, written by Peter Selinger 2001-2019
</metadata>
<g transform="translate(0.000000,41.000000) scale(0.100000,-0.100000)"
fill="#000000" stroke="none">
<path d="M134 395 l-6 -15 6 -25 6 -25 -25 -6 -25 -6 -45 4 -45 3 0 -151 0
-151 52 -7 51 -7 8 13 9 13 -5 14 -5 14 11 13 11 14 24 0 23 0 10 -18 10 -19
-5 -20 -6 -20 18 -7 17 -7 44 7 43 6 0 3 0 2 -15 43 -15 43 0 18 0 19 49 0 49
0 12 15 12 15 -16 25 -16 25 -36 0 -36 0 7 50 7 49 -69 3 -68 3 2 29 2 30 -11
13 -10 13 -10 0 -9 0 -5 -15z"/>
</g>
</svg>
