<?xml version="1.0" standalone="no"?>
<!DOCTYPE svg PUBLIC "-//W3C//DTD SVG 20010904//EN"
 "http://www.w3.org/TR/2001/REC-SVG-20010904/DTD/svg10.dtd">
<svg version="1.0" xmlns="http://www.w3.org/2000/svg"
 width="43.000000pt" height="47.000000pt" viewBox="0 0 43.000000 47.000000"
 preserveAspectRatio="xMidYMid meet">
<metadata>
Created by potrace 1.16, written by Peter Selinger 2001-2019
</metadata>
<g transform="translate(0.000000,47.000000) scale(0.100000,-0.100000)"
fill="#000000" stroke="none">
<path d="M136 442 l6 -29 -17 -16 -16 -17 -45 0 -44 0 0 -41 0 -40 10 -20 11
-19 39 0 40 0 0 -20 0 -19 -22 -12 -22 -12 -36 -1 -35 -1 -3 -31 -3 -30 10
-27 10 -26 53 -3 53 -3 5 -35 5 -35 39 1 38 1 8 13 8 13 -5 13 -5 13 24 5 23
5 38 6 37 6 0 32 0 32 6 22 6 21 26 -1 26 -2 15 27 15 26 -12 26 -12 26 -40 0
-40 0 0 39 0 40 -57 -2 -58 -2 3 38 3 39 -12 14 -11 14 -34 0 -33 0 5 -28z"/>
</g>
</svg>
