<?xml version="1.0" standalone="no"?>
<!DOCTYPE svg PUBLIC "-//W3C//DTD SVG 20010904//EN"
 "http://www.w3.org/TR/2001/REC-SVG-20010904/DTD/svg10.dtd">
<svg version="1.0" xmlns="http://www.w3.org/2000/svg"
 width="45.000000pt" height="49.000000pt" viewBox="0 0 45.000000 49.000000"
 preserveAspectRatio="xMidYMid meet">
<metadata>
Created by potrace 1.16, written by Peter Selinger 2001-2019
</metadata>
<g transform="translate(0.000000,49.000000) scale(0.100000,-0.100000)"
fill="#000000" stroke="none">
<path d="M133 460 l6 -29 -15 -16 -15 -15 -45 0 -44 0 0 -51 0 -50 10 -20 11
-19 39 0 40 0 0 -9 0 -10 -12 -8 -13 -7 -45 -6 -45 -5 -3 -41 -3 -40 10 -27
10 -26 53 -3 53 -3 5 -35 5 -35 18 -3 19 -4 33 6 33 7 11 29 10 30 28 0 28 0
23 6 22 6 0 33 0 33 6 16 6 16 24 0 23 0 15 22 16 22 0 24 0 23 -10 20 -11 19
-39 0 -40 0 0 41 0 40 -57 -3 -58 -3 4 38 3 38 -12 15 -12 14 -45 0 -45 0 5
-30z"/>
</g>
</svg>
