<?xml version="1.0" standalone="no"?>
<!DOCTYPE svg PUBLIC "-//W3C//DTD SVG 20010904//EN"
 "http://www.w3.org/TR/2001/REC-SVG-20010904/DTD/svg10.dtd">
<svg version="1.0" xmlns="http://www.w3.org/2000/svg"
 width="47.000000pt" height="39.000000pt" viewBox="0 0 47.000000 39.000000"
 preserveAspectRatio="xMidYMid meet">
<metadata>
Created by potrace 1.16, written by Peter Selinger 2001-2019
</metadata>
<g transform="translate(0.000000,39.000000) scale(0.100000,-0.100000)"
fill="#000000" stroke="none">
<path d="M210 376 l-12 -16 4 -30 5 -30 -16 -1 -16 -2 -49 3 -49 2 7 -40 6
-40 -5 -14 -6 -14 -29 4 -30 4 -8 -23 -9 -23 5 -18 4 -19 20 -10 19 -10 21 7
21 6 -5 -56 -5 -57 66 3 66 3 -2 42 -2 41 13 5 13 5 13 -8 13 -8 -6 -31 -7
-32 26 -9 25 -10 46 0 46 0 -8 33 -7 32 -5 22 -5 23 31 0 32 0 20 10 19 11 0
23 0 24 -15 12 -14 12 -20 -7 -20 -6 -7 26 -6 25 5 21 6 22 -14 13 -14 14 -33
7 -33 6 -17 9 -18 9 3 22 2 22 -26 3 -26 3 -13 -15z"/>
</g>
</svg>
