<?xml version="1.0" standalone="no"?>
<!DOCTYPE svg PUBLIC "-//W3C//DTD SVG 20010904//EN"
 "http://www.w3.org/TR/2001/REC-SVG-20010904/DTD/svg10.dtd">
<svg version="1.0" xmlns="http://www.w3.org/2000/svg"
 width="34.000000pt" height="39.000000pt" viewBox="0 0 34.000000 39.000000"
 preserveAspectRatio="xMidYMid meet">
<metadata>
Created by potrace 1.16, written by Peter Selinger 2001-2019
</metadata>
<g transform="translate(0.000000,39.000000) scale(0.100000,-0.100000)"
fill="#000000" stroke="none">
<path d="M153 382 l-11 -7 -4 -30 -3 -30 -52 -3 -53 -3 0 -12 0 -12 -6 -37 -7
-38 36 0 37 0 16 -25 16 -25 -12 -15 -12 -15 -51 0 -50 0 6 -33 5 -32 11 -28
11 -28 52 3 53 3 1 34 0 34 19 7 20 7 17 -5 18 -4 0 -29 0 -28 38 -6 37 -7 16
-4 16 -4 11 39 12 38 0 22 0 21 -48 0 -48 0 -12 12 -12 12 0 22 0 23 12 7 11
7 39 -1 38 -2 0 53 0 54 -56 12 -55 13 -6 16 -7 17 -10 7 -11 8 -5 0 -5 0 -12
-8z"/>
</g>
</svg>
