<?xml version="1.0" standalone="no"?>
<!DOCTYPE svg PUBLIC "-//W3C//DTD SVG 20010904//EN"
 "http://www.w3.org/TR/2001/REC-SVG-20010904/DTD/svg10.dtd">
<svg version="1.0" xmlns="http://www.w3.org/2000/svg"
 width="36.000000pt" height="41.000000pt" viewBox="0 0 36.000000 41.000000"
 preserveAspectRatio="xMidYMid meet">
<metadata>
Created by potrace 1.16, written by Peter Selinger 2001-2019
</metadata>
<g transform="translate(0.000000,41.000000) scale(0.100000,-0.100000)"
fill="#000000" stroke="none">
<path d="M153 402 l-11 -7 -4 -30 -3 -30 -51 -3 -52 -3 -6 -37 -6 -37 0 -22 0
-23 34 0 34 0 12 -15 12 -15 -6 -15 -5 -15 -52 0 -52 0 6 -43 5 -42 11 -28 11
-28 62 3 63 3 3 38 3 37 25 0 24 0 0 -30 0 -29 38 -6 37 -6 23 -10 23 -9 9 0
10 0 0 23 -1 22 7 52 7 53 -51 0 -50 0 -12 15 -12 15 6 15 5 15 46 0 45 0 0
63 0 64 -56 12 -55 13 -6 16 -7 17 -10 7 -11 8 -15 0 -15 0 -12 -8z"/>
</g>
</svg>
