<?xml version="1.0" standalone="no"?>
<!DOCTYPE svg PUBLIC "-//W3C//DTD SVG 20010904//EN"
 "http://www.w3.org/TR/2001/REC-SVG-20010904/DTD/svg10.dtd">
<svg version="1.0" xmlns="http://www.w3.org/2000/svg"
 width="44.000000pt" height="48.000000pt" viewBox="0 0 44.000000 48.000000"
 preserveAspectRatio="xMidYMid meet">
<metadata>
Created by potrace 1.16, written by Peter Selinger 2001-2019
</metadata>
<g transform="translate(0.000000,48.000000) scale(0.100000,-0.100000)"
fill="#000000" stroke="none">
<path d="M147 473 l-7 -6 0 -34 0 -33 -54 0 -54 0 -6 -22 -6 -23 0 -30 0 -30
9 -13 8 -14 23 4 23 3 11 -18 11 -18 -19 -15 -20 -14 -33 0 -33 0 0 -17 0 -17
12 -53 13 -53 30 6 30 5 26 -9 26 -10 -5 -32 -4 -31 58 3 59 3 3 26 3 27 45 7
44 6 0 63 0 62 34 0 34 0 16 13 16 13 0 29 0 28 -19 11 -20 10 -35 0 -35 0 6
51 6 51 -34 -8 -34 -8 -30 0 -30 -1 3 21 3 21 -10 26 -11 27 -23 0 -24 0 -6
-7z"/>
</g>
</svg>
