<?xml version="1.0" standalone="no"?>
<!DOCTYPE svg PUBLIC "-//W3C//DTD SVG 20010904//EN"
 "http://www.w3.org/TR/2001/REC-SVG-20010904/DTD/svg10.dtd">
<svg version="1.0" xmlns="http://www.w3.org/2000/svg"
 width="39.000000pt" height="41.000000pt" viewBox="0 0 39.000000 41.000000"
 preserveAspectRatio="xMidYMid meet">
<metadata>
Created by potrace 1.16, written by Peter Selinger 2001-2019
</metadata>
<g transform="translate(0.000000,41.000000) scale(0.100000,-0.100000)"
fill="#000000" stroke="none">
<path d="M142 401 l-10 -6 2 -40 1 -40 -67 -3 -68 -3 0 -54 0 -54 19 -11 20
-10 16 6 16 7 -3 -34 -3 -34 -23 0 -23 0 -9 -15 -10 -15 0 -45 0 -45 62 5 63
5 -3 42 -2 42 10 6 10 6 19 -6 20 -6 -2 -26 -2 -25 62 -18 62 -17 6 14 5 15 0
38 0 39 27 -2 27 -2 15 27 15 26 -13 16 -13 16 -29 0 -29 0 0 50 0 49 -19 11
-20 10 -20 0 -20 0 -25 11 -25 12 5 27 6 27 -20 5 -20 6 -10 -7z"/>
</g>
</svg>
