<?xml version="1.0" standalone="no"?>
<!DOCTYPE svg PUBLIC "-//W3C//DTD SVG 20010904//EN"
 "http://www.w3.org/TR/2001/REC-SVG-20010904/DTD/svg10.dtd">
<svg version="1.0" xmlns="http://www.w3.org/2000/svg"
 width="42.000000pt" height="50.000000pt" viewBox="0 0 42.000000 50.000000"
 preserveAspectRatio="xMidYMid meet">
<metadata>
Created by potrace 1.16, written by Peter Selinger 2001-2019
</metadata>
<g transform="translate(0.000000,50.000000) scale(0.100000,-0.100000)"
fill="#000000" stroke="none">
<path d="M132 490 l-24 -10 4 -37 3 -38 -53 1 -52 2 0 -69 0 -69 29 0 29 0 10
-13 11 -13 -14 -21 -14 -20 -26 4 -25 5 0 -35 0 -34 -6 -32 -6 -31 56 0 56 0
0 -35 0 -35 25 -6 25 -6 35 6 35 7 0 34 0 35 55 0 54 0 -6 50 -6 50 26 0 27 0
20 17 20 17 0 36 0 36 -12 12 -12 12 -33 0 -33 0 0 41 0 42 -32 -8 -33 -7 -20
-2 -20 -1 -5 52 -5 52 -5 5 -5 4 -25 6 -25 5 -23 -9z"/>
</g>
</svg>
