<?xml version="1.0" standalone="no"?>
<!DOCTYPE svg PUBLIC "-//W3C//DTD SVG 20010904//EN"
 "http://www.w3.org/TR/2001/REC-SVG-20010904/DTD/svg10.dtd">
<svg version="1.0" xmlns="http://www.w3.org/2000/svg"
 width="33.000000pt" height="41.000000pt" viewBox="0 0 33.000000 41.000000"
 preserveAspectRatio="xMidYMid meet">
<metadata>
Created by potrace 1.16, written by Peter Selinger 2001-2019
</metadata>
<g transform="translate(0.000000,41.000000) scale(0.100000,-0.100000)"
fill="#000000" stroke="none">
<path d="M134 398 l-8 -12 3 -38 2 -38 -66 0 -65 0 0 -48 0 -49 30 5 30 4 15
-12 15 -12 0 -27 0 -27 -21 -17 -20 -18 -22 3 -22 3 0 -50 0 -50 39 -3 39 -3
24 5 23 6 0 31 0 30 33 -3 32 -3 -3 -22 -3 -21 11 -7 10 -6 50 -8 49 -8 11 30
10 30 0 28 0 29 -38 0 -39 0 -17 19 -18 19 12 22 12 22 29 -4 29 -5 6 22 5 22
-3 34 -3 33 -55 11 -55 10 0 28 0 29 -19 14 -20 14 -7 0 -8 0 -7 -12z"/>
</g>
</svg>
