<?xml version="1.0" standalone="no"?>
<!DOCTYPE svg PUBLIC "-//W3C//DTD SVG 20010904//EN"
 "http://www.w3.org/TR/2001/REC-SVG-20010904/DTD/svg10.dtd">
<svg version="1.0" xmlns="http://www.w3.org/2000/svg"
 width="51.000000pt" height="52.000000pt" viewBox="0 0 51.000000 52.000000"
 preserveAspectRatio="xMidYMid meet">
<metadata>
Created by potrace 1.16, written by Peter Selinger 2001-2019
</metadata>
<g transform="translate(0.000000,52.000000) scale(0.100000,-0.100000)"
fill="#000000" stroke="none">
<path d="M222 508 l-11 -13 -3 -40 -3 -39 -52 3 -52 2 -3 -53 -3 -53 -32 2
-32 3 -15 -22 -16 -22 0 -13 0 -12 16 -15 15 -16 46 0 46 0 -7 -33 -6 -32 -6
-27 -6 -28 48 0 49 0 15 -10 15 -9 0 -38 0 -38 29 -3 28 -4 24 6 23 6 3 27 3
28 53 14 52 14 0 11 0 11 -15 40 -14 40 -1 13 0 12 34 0 34 0 16 6 16 6 0 38
0 38 -15 12 -15 12 -17 -6 -16 -7 -9 13 -8 13 0 37 0 37 -57 16 -58 16 -10 3
-9 2 -1 30 0 29 -31 3 -31 3 -11 -13z"/>
</g>
</svg>
