<?xml version="1.0" standalone="no"?>
<!DOCTYPE svg PUBLIC "-//W3C//DTD SVG 20010904//EN"
 "http://www.w3.org/TR/2001/REC-SVG-20010904/DTD/svg10.dtd">
<svg version="1.0" xmlns="http://www.w3.org/2000/svg"
 width="49.000000pt" height="50.000000pt" viewBox="0 0 49.000000 50.000000"
 preserveAspectRatio="xMidYMid meet">
<metadata>
Created by potrace 1.16, written by Peter Selinger 2001-2019
</metadata>
<g transform="translate(0.000000,50.000000) scale(0.100000,-0.100000)"
fill="#000000" stroke="none">
<path d="M220 485 l-12 -15 5 -29 6 -28 -11 -11 -11 -11 -48 6 -49 6 0 -50 0
-49 -11 -11 -12 -12 -22 9 -23 9 -10 -12 -9 -12 -7 -12 -6 -11 16 -16 15 -16
46 0 46 0 -6 -42 -5 -43 -7 -18 -7 -17 47 0 46 0 20 -11 20 -10 -3 -37 -3 -36
18 -4 19 -4 25 7 25 6 -5 25 -4 24 56 16 56 16 2 2 2 2 -14 39 -14 40 -1 23 0
22 34 0 34 0 16 6 16 6 0 28 0 29 -12 8 -13 8 -19 -4 -19 -3 -8 14 -9 13 0 37
0 37 -57 16 -58 16 -13 5 -13 4 3 27 3 28 -21 3 -21 3 -13 -16z"/>
</g>
</svg>
