<?xml version="1.0" standalone="no"?>
<!DOCTYPE svg PUBLIC "-//W3C//DTD SVG 20010904//EN"
 "http://www.w3.org/TR/2001/REC-SVG-20010904/DTD/svg10.dtd">
<svg version="1.0" xmlns="http://www.w3.org/2000/svg"
 width="32.000000pt" height="40.000000pt" viewBox="0 0 32.000000 40.000000"
 preserveAspectRatio="xMidYMid meet">
<metadata>
Created by potrace 1.16, written by Peter Selinger 2001-2019
</metadata>
<g transform="translate(0.000000,40.000000) scale(0.100000,-0.100000)"
fill="#000000" stroke="none">
<path d="M128 393 l-18 -4 0 -24 0 -24 -19 -11 -20 -10 -36 0 -36 0 3 -57 3
-58 35 -5 35 -5 3 -18 4 -18 -12 -14 -12 -15 -23 0 -22 0 -7 -57 -7 -56 9 -9
9 -9 64 3 64 3 6 40 5 40 7 -15 6 -15 3 -20 3 -20 60 -8 60 -7 13 5 12 4 0 64
0 65 -15 12 -15 12 -24 -6 -24 -6 -12 15 -12 14 7 11 6 10 45 0 44 0 0 59 0
59 -12 10 -13 10 -43 13 -43 13 -10 18 -10 18 -22 -1 -22 -1 -17 -5z"/>
</g>
</svg>
