<?xml version="1.0" standalone="no"?>
<!DOCTYPE svg PUBLIC "-//W3C//DTD SVG 20010904//EN"
 "http://www.w3.org/TR/2001/REC-SVG-20010904/DTD/svg10.dtd">
<svg version="1.0" xmlns="http://www.w3.org/2000/svg"
 width="30.000000pt" height="38.000000pt" viewBox="0 0 30.000000 38.000000"
 preserveAspectRatio="xMidYMid meet">
<metadata>
Created by potrace 1.16, written by Peter Selinger 2001-2019
</metadata>
<g transform="translate(0.000000,38.000000) scale(0.100000,-0.100000)"
fill="#000000" stroke="none">
<path d="M128 373 l-18 -4 0 -24 0 -24 -19 -11 -20 -10 -36 0 -36 0 3 -47 3
-48 25 0 25 0 13 -8 12 -8 0 -28 0 -27 -12 -12 -12 -12 -22 0 -21 0 -6 -47 -5
-48 7 -8 8 -8 54 3 54 3 0 35 0 35 20 0 20 0 5 -30 5 -30 55 -7 55 -6 7 4 8 5
0 54 0 54 -12 8 -13 8 -29 0 -29 0 -10 16 -10 16 6 17 6 16 46 0 45 0 0 49 0
49 -12 10 -13 10 -43 13 -43 13 -10 18 -10 18 -12 -1 -12 -1 -17 -5z"/>
</g>
</svg>
