<?xml version="1.0" standalone="no"?>
<!DOCTYPE svg PUBLIC "-//W3C//DTD SVG 20010904//EN"
 "http://www.w3.org/TR/2001/REC-SVG-20010904/DTD/svg10.dtd">
<svg version="1.0" xmlns="http://www.w3.org/2000/svg"
 width="42.000000pt" height="41.000000pt" viewBox="0 0 42.000000 41.000000"
 preserveAspectRatio="xMidYMid meet">
<metadata>
Created by potrace 1.16, written by Peter Selinger 2001-2019
</metadata>
<g transform="translate(0.000000,41.000000) scale(0.100000,-0.100000)"
fill="#000000" stroke="none">
<path d="M20 362 l0 -48 12 -16 13 -17 25 -3 25 -3 0 -20 0 -20 -47 -3 -48 -3
0 -22 0 -22 6 -51 6 -52 52 2 51 1 3 -37 3 -37 30 -6 29 -7 29 7 30 6 3 22 3
22 47 9 47 9 -6 48 -6 47 7 26 6 26 24 -6 23 -5 17 16 16 16 0 12 0 12 -10 15
-9 15 -33 0 -33 0 -3 53 -3 53 -57 -3 -57 -3 0 -30 -1 -30 -29 -3 -29 -4 -12
16 -11 16 5 25 4 25 -61 0 -61 0 0 -48z"/>
</g>
</svg>
