<?xml version="1.0" standalone="no"?>
<!DOCTYPE svg PUBLIC "-//W3C//DTD SVG 20010904//EN"
 "http://www.w3.org/TR/2001/REC-SVG-20010904/DTD/svg10.dtd">
<svg version="1.0" xmlns="http://www.w3.org/2000/svg"
 width="48.000000pt" height="42.000000pt" viewBox="0 0 48.000000 42.000000"
 preserveAspectRatio="xMidYMid meet">
<metadata>
Created by potrace 1.16, written by Peter Selinger 2001-2019
</metadata>
<g transform="translate(0.000000,42.000000) scale(0.100000,-0.100000)"
fill="#000000" stroke="none">
<path d="M206 407 l-19 -14 5 -36 4 -36 -22 -5 -22 -6 -32 7 -32 6 -9 -14 -9
-14 0 -28 0 -28 -10 -20 -11 -19 -25 0 -25 0 3 -42 3 -43 33 -3 32 -3 0 -52 0
-52 167 1 167 2 12 17 13 17 6 38 6 38 20 5 19 5 0 31 0 30 -19 11 -20 10 -20
0 -21 0 0 55 0 54 -55 16 -55 16 0 25 0 24 -26 10 -25 10 -8 0 -7 0 -18 -13z"/>
</g>
</svg>
