<?xml version="1.0" standalone="no"?>
<!DOCTYPE svg PUBLIC "-//W3C//DTD SVG 20010904//EN"
 "http://www.w3.org/TR/2001/REC-SVG-20010904/DTD/svg10.dtd">
<svg version="1.0" xmlns="http://www.w3.org/2000/svg"
 width="46.000000pt" height="40.000000pt" viewBox="0 0 46.000000 40.000000"
 preserveAspectRatio="xMidYMid meet">
<metadata>
Created by potrace 1.16, written by Peter Selinger 2001-2019
</metadata>
<g transform="translate(0.000000,40.000000) scale(0.100000,-0.100000)"
fill="#000000" stroke="none">
<path d="M205 386 l-18 -13 7 -36 7 -36 -35 -6 -34 -7 -22 7 -22 7 -9 -13 -9
-14 0 -28 0 -28 -10 -20 -11 -19 -25 0 -25 0 3 -32 3 -33 33 -3 32 -3 0 -52 0
-52 156 2 157 2 9 9 9 9 13 49 12 49 15 0 14 0 3 22 3 22 -18 10 -19 9 -19 -1
-20 -2 -3 57 -3 57 -57 18 -57 18 0 24 0 24 -22 8 -21 8 -17 -13z"/>
</g>
</svg>
