<?xml version="1.0" standalone="no"?>
<!DOCTYPE svg PUBLIC "-//W3C//DTD SVG 20010904//EN"
 "http://www.w3.org/TR/2001/REC-SVG-20010904/DTD/svg10.dtd">
<svg version="1.0" xmlns="http://www.w3.org/2000/svg"
 width="43.000000pt" height="40.000000pt" viewBox="0 0 43.000000 40.000000"
 preserveAspectRatio="xMidYMid meet">
<metadata>
Created by potrace 1.16, written by Peter Selinger 2001-2019
</metadata>
<g transform="translate(0.000000,40.000000) scale(0.100000,-0.100000)"
fill="#000000" stroke="none">
<path d="M212 388 l-12 -12 0 -39 0 -39 -57 4 -58 3 1 -42 1 -43 -28 0 -29 0
-15 -24 -16 -25 3 -33 3 -33 26 -12 26 -13 7 -40 6 -40 174 0 174 0 6 16 6 16
0 48 0 49 -42 3 -43 3 -3 22 -3 23 31 0 30 0 10 26 10 25 0 40 0 39 -18 0 -18
0 -9 -9 -10 -8 -26 -7 -26 -6 -5 45 -6 45 -12 15 -12 15 -27 0 -27 0 -12 -12z"/>
</g>
</svg>
