<?xml version="1.0" standalone="no"?>
<!DOCTYPE svg PUBLIC "-//W3C//DTD SVG 20010904//EN"
 "http://www.w3.org/TR/2001/REC-SVG-20010904/DTD/svg10.dtd">
<svg version="1.0" xmlns="http://www.w3.org/2000/svg"
 width="39.000000pt" height="38.000000pt" viewBox="0 0 39.000000 38.000000"
 preserveAspectRatio="xMidYMid meet">
<metadata>
Created by potrace 1.16, written by Peter Selinger 2001-2019
</metadata>
<g transform="translate(0.000000,38.000000) scale(0.100000,-0.100000)"
fill="#000000" stroke="none">
<path d="M128 369 l-18 -10 0 -28 0 -29 -35 -6 -35 -7 -20 11 -20 11 0 -151 0
-150 150 0 150 0 -3 47 -2 46 40 1 39 1 10 28 10 28 -11 17 -11 17 -18 -3 -19
-4 -10 -1 -10 -2 -3 57 -3 56 -69 12 -69 12 -3 26 -3 25 -10 3 -10 3 -17 -10z"/>
</g>
</svg>
