<?xml version="1.0" standalone="no"?>
<!DOCTYPE svg PUBLIC "-//W3C//DTD SVG 20010904//EN"
 "http://www.w3.org/TR/2001/REC-SVG-20010904/DTD/svg10.dtd">
<svg version="1.0" xmlns="http://www.w3.org/2000/svg"
 width="39.000000pt" height="38.000000pt" viewBox="0 0 39.000000 38.000000"
 preserveAspectRatio="xMidYMid meet">
<metadata>
Created by potrace 1.16, written by Peter Selinger 2001-2019
</metadata>
<g transform="translate(0.000000,38.000000) scale(0.100000,-0.100000)"
fill="#000000" stroke="none">
<path d="M90 333 l0 -48 -10 -15 -9 -15 -33 0 -33 0 -3 -18 -4 -18 13 -15 13
-15 45 3 46 3 0 -30 -1 -30 -7 -27 -7 -27 42 -3 43 -3 -2 -20 -1 -19 9 -18 10
-18 19 0 18 0 16 6 16 6 0 34 0 34 56 0 55 0 -6 48 -6 47 -5 13 -4 13 -17 -3
-18 -3 -12 8 -13 8 0 28 0 29 15 12 15 12 25 -4 25 -5 6 23 6 24 -6 26 -7 25
-47 -3 -47 -3 3 -32 3 -31 -30 -7 -31 -6 -20 6 -20 6 0 35 0 34 -50 0 -50 0 0
-47z"/>
</g>
</svg>
