<?xml version="1.0" standalone="no"?>
<!DOCTYPE svg PUBLIC "-//W3C//DTD SVG 20010904//EN"
 "http://www.w3.org/TR/2001/REC-SVG-20010904/DTD/svg10.dtd">
<svg version="1.0" xmlns="http://www.w3.org/2000/svg"
 width="49.000000pt" height="41.000000pt" viewBox="0 0 49.000000 41.000000"
 preserveAspectRatio="xMidYMid meet">
<metadata>
Created by potrace 1.16, written by Peter Selinger 2001-2019
</metadata>
<g transform="translate(0.000000,41.000000) scale(0.100000,-0.100000)"
fill="#000000" stroke="none">
<path d="M98 353 l-3 -58 -48 -3 -47 -3 0 -23 0 -24 13 -10 13 -11 21 5 21 6
10 -34 11 -33 3 -25 3 -25 30 -3 30 -2 23 -6 24 -5 -7 -39 -7 -38 21 -11 20
-11 10 0 10 0 15 16 16 15 -6 39 -6 39 53 3 54 3 -3 20 -3 20 -6 43 -6 42 55
0 56 0 11 14 11 13 -6 18 -7 17 -28 -6 -28 -5 -16 15 -15 15 0 43 0 42 -37 -3
-38 -4 -21 -4 -21 -5 4 -24 5 -24 -21 -11 -21 -12 -25 17 -25 16 0 29 0 29
-45 0 -44 0 -3 -57z"/>
</g>
</svg>
