<?xml version="1.0" standalone="no"?>
<!DOCTYPE svg PUBLIC "-//W3C//DTD SVG 20010904//EN"
 "http://www.w3.org/TR/2001/REC-SVG-20010904/DTD/svg10.dtd">
<svg version="1.0" xmlns="http://www.w3.org/2000/svg"
 width="48.000000pt" height="48.000000pt" viewBox="0 0 48.000000 48.000000"
 preserveAspectRatio="xMidYMid meet">
<metadata>
Created by potrace 1.16, written by Peter Selinger 2001-2019
</metadata>
<g transform="translate(0.000000,48.000000) scale(0.100000,-0.100000)"
fill="#000000" stroke="none">
<path d="M207 462 l-17 -19 0 -21 0 -22 -55 0 -54 0 6 -50 6 -50 -35 0 -34 0
-12 -12 -12 -12 0 -28 0 -28 24 -6 24 -6 23 4 24 3 -1 -35 -1 -35 -8 -32 -7
-32 53 -3 54 -3 3 -30 4 -30 11 -7 12 -8 29 0 29 0 13 18 13 17 1 18 0 17 28
2 27 1 19 -2 19 -1 13 17 13 18 7 42 6 43 24 0 24 0 0 48 0 48 -12 12 -12 12
-23 0 -23 0 -1 18 -1 17 1 9 2 10 -5 21 -6 22 -62 -1 -63 -1 -3 30 -4 30 -11
7 -12 8 -11 0 -11 0 -16 -18z"/>
</g>
</svg>
