<?xml version="1.0" standalone="no"?>
<!DOCTYPE svg PUBLIC "-//W3C//DTD SVG 20010904//EN"
 "http://www.w3.org/TR/2001/REC-SVG-20010904/DTD/svg10.dtd">
<svg version="1.0" xmlns="http://www.w3.org/2000/svg"
 width="46.000000pt" height="46.000000pt" viewBox="0 0 46.000000 46.000000"
 preserveAspectRatio="xMidYMid meet">
<metadata>
Created by potrace 1.16, written by Peter Selinger 2001-2019
</metadata>
<g transform="translate(0.000000,46.000000) scale(0.100000,-0.100000)"
fill="#000000" stroke="none">
<path d="M205 440 l-16 -18 3 -19 3 -18 -55 -3 -55 -3 3 -49 4 -50 -34 0 -34
0 -12 -12 -12 -12 0 -18 0 -18 23 -4 22 -5 25 2 25 2 0 -45 0 -45 -8 -22 -8
-23 50 0 50 0 8 -12 8 -13 -4 -19 -3 -19 14 -8 13 -9 20 0 20 0 12 20 13 19
-6 14 -5 14 47 7 46 6 8 -5 7 -4 11 22 12 22 8 40 8 40 22 -3 22 -3 0 39 0 40
-14 11 -13 11 -17 -6 -16 -6 -10 27 -11 28 6 16 5 16 -8 10 -7 10 -60 0 -60 0
-3 32 -3 31 -14 5 -13 6 -17 -19z"/>
</g>
</svg>
