<?xml version="1.0" standalone="no"?>
<!DOCTYPE svg PUBLIC "-//W3C//DTD SVG 20010904//EN"
 "http://www.w3.org/TR/2001/REC-SVG-20010904/DTD/svg10.dtd">
<svg version="1.0" xmlns="http://www.w3.org/2000/svg"
 width="44.000000pt" height="42.000000pt" viewBox="0 0 44.000000 42.000000"
 preserveAspectRatio="xMidYMid meet">
<metadata>
Created by potrace 1.16, written by Peter Selinger 2001-2019
</metadata>
<g transform="translate(0.000000,42.000000) scale(0.100000,-0.100000)"
fill="#000000" stroke="none">
<path d="M237 414 l-7 -7 0 -34 0 -34 -37 6 -38 6 -29 6 -29 5 6 -58 6 -59
-47 0 -46 0 -10 -27 -10 -28 10 -27 9 -28 30 -3 30 -4 7 -11 8 -12 0 -26 0
-27 15 -12 14 -12 68 -1 68 -2 0 40 0 40 15 -3 15 -4 7 -11 8 -12 0 -32 0 -32
21 -6 21 -7 31 6 32 7 18 13 17 13 -16 71 -16 71 -21 3 -22 3 0 15 0 15 28 3
27 3 11 20 10 20 -3 42 -3 42 -30 -4 -30 -3 -24 -2 -24 -1 -1 40 -1 40 -40 3
-41 3 -7 -7z"/>
</g>
</svg>
