<?xml version="1.0" standalone="no"?>
<!DOCTYPE svg PUBLIC "-//W3C//DTD SVG 20010904//EN"
 "http://www.w3.org/TR/2001/REC-SVG-20010904/DTD/svg10.dtd">
<svg version="1.0" xmlns="http://www.w3.org/2000/svg"
 width="42.000000pt" height="40.000000pt" viewBox="0 0 42.000000 40.000000"
 preserveAspectRatio="xMidYMid meet">
<metadata>
Created by potrace 1.16, written by Peter Selinger 2001-2019
</metadata>
<g transform="translate(0.000000,40.000000) scale(0.100000,-0.100000)"
fill="#000000" stroke="none">
<path d="M234 385 l-6 -15 5 -21 5 -20 -12 -5 -13 -5 -57 9 -58 9 7 -58 7 -59
-46 6 -45 7 -12 -27 -12 -26 12 -26 12 -26 29 5 29 6 6 -37 6 -37 8 -15 8 -15
51 -9 51 -9 15 6 15 6 -6 34 -5 34 11 7 11 7 19 -6 18 -5 11 -24 11 -24 -6
-21 -5 -20 25 -6 25 -7 36 17 36 17 -4 7 -4 6 -11 57 -12 57 -22 3 -22 3 0 25
0 25 28 3 27 3 11 20 10 20 -3 32 -3 32 -20 -4 -20 -5 -35 0 -35 -1 0 40 0 40
-33 3 -32 3 -6 -16z"/>
</g>
</svg>
