<?xml version="1.0" standalone="no"?>
<!DOCTYPE svg PUBLIC "-//W3C//DTD SVG 20010904//EN"
 "http://www.w3.org/TR/2001/REC-SVG-20010904/DTD/svg10.dtd">
<svg version="1.0" xmlns="http://www.w3.org/2000/svg"
 width="40.000000pt" height="44.000000pt" viewBox="0 0 40.000000 44.000000"
 preserveAspectRatio="xMidYMid meet">
<metadata>
Created by potrace 1.16, written by Peter Selinger 2001-2019
</metadata>
<g transform="translate(0.000000,44.000000) scale(0.100000,-0.100000)"
fill="#000000" stroke="none">
<path d="M270 393 l0 -51 -14 -11 -15 -12 -20 20 -21 21 6 25 6 25 -58 0 -59
0 -11 -8 -10 -7 -1 -37 -1 -37 -7 -10 -6 -11 -30 0 -29 0 0 -46 0 -46 20 -5
20 -5 6 -27 6 -26 10 -32 10 -33 54 6 54 7 0 -30 0 -31 27 -17 26 -18 26 9 26
9 5 30 5 30 50 5 50 5 3 68 3 67 -31 0 -31 0 -20 10 -19 11 0 19 0 19 12 7 11
7 39 -1 38 -2 0 60 0 60 -27 11 -28 11 -37 5 -38 6 0 -50z"/>
</g>
</svg>
