<?xml version="1.0" standalone="no"?>
<!DOCTYPE svg PUBLIC "-//W3C//DTD SVG 20010904//EN"
 "http://www.w3.org/TR/2001/REC-SVG-20010904/DTD/svg10.dtd">
<svg version="1.0" xmlns="http://www.w3.org/2000/svg"
 width="42.000000pt" height="42.000000pt" viewBox="0 0 42.000000 42.000000"
 preserveAspectRatio="xMidYMid meet">
<metadata>
Created by potrace 1.16, written by Peter Selinger 2001-2019
</metadata>
<g transform="translate(0.000000,42.000000) scale(0.100000,-0.100000)"
fill="#000000" stroke="none">
<path d="M294 396 l6 -25 -10 -26 -10 -26 -16 -6 -17 -6 -19 22 -18 23 0 30 0
29 -47 -6 -48 -6 -12 -4 -13 -4 0 -41 0 -40 -33 0 -33 0 -12 -12 -12 -12 0
-36 0 -37 18 -16 19 -17 32 0 32 0 -3 -47 -3 -48 48 -3 47 -3 0 -22 0 -22 8
-12 7 -11 25 -7 26 -6 27 10 27 11 0 40 0 40 10 0 10 0 40 -16 41 -17 4 4 3 4
-5 67 -6 67 -36 3 -36 3 0 25 0 25 38 3 37 3 0 65 0 64 -26 10 -25 10 -36 0
-35 0 6 -24z"/>
</g>
</svg>
