<?xml version="1.0" standalone="no"?>
<!DOCTYPE svg PUBLIC "-//W3C//DTD SVG 20010904//EN"
 "http://www.w3.org/TR/2001/REC-SVG-20010904/DTD/svg10.dtd">
<svg version="1.0" xmlns="http://www.w3.org/2000/svg"
 width="40.000000pt" height="40.000000pt" viewBox="0 0 40.000000 40.000000"
 preserveAspectRatio="xMidYMid meet">
<metadata>
Created by potrace 1.16, written by Peter Selinger 2001-2019
</metadata>
<g transform="translate(0.000000,40.000000) scale(0.100000,-0.100000)"
fill="#000000" stroke="none">
<path d="M295 361 l-1 -39 -13 -16 -13 -16 -24 0 -23 0 -15 22 -16 22 0 28 0
27 -37 -5 -38 -6 -12 -3 -12 -4 -3 -43 -3 -43 -28 3 -28 4 -15 -12 -14 -12 0
-28 0 -27 18 -16 17 -15 35 -4 35 -3 -3 -25 -3 -25 -2 -20 -2 -20 50 -5 50 -5
-3 -14 -3 -13 6 -18 6 -18 20 -5 21 -6 24 9 24 10 0 40 0 40 20 0 21 0 35 -15
36 -15 -6 16 -6 16 0 43 0 44 -37 3 -38 3 0 35 0 35 38 3 37 3 0 55 0 54 -26
10 -25 10 -22 0 -22 0 0 -39z"/>
</g>
</svg>
