<?xml version="1.0" standalone="no"?>
<!DOCTYPE svg PUBLIC "-//W3C//DTD SVG 20010904//EN"
 "http://www.w3.org/TR/2001/REC-SVG-20010904/DTD/svg10.dtd">
<svg version="1.0" xmlns="http://www.w3.org/2000/svg"
 width="41.000000pt" height="34.000000pt" viewBox="0 0 41.000000 34.000000"
 preserveAspectRatio="xMidYMid meet">
<metadata>
Created by potrace 1.16, written by Peter Selinger 2001-2019
</metadata>
<g transform="translate(0.000000,34.000000) scale(0.100000,-0.100000)"
fill="#000000" stroke="none">
<path d="M274 313 l7 -30 -10 -26 -11 -27 -20 0 -20 0 0 39 0 39 -16 6 -16 6
-55 0 -55 0 4 -50 3 -50 -26 0 -25 0 -18 -13 -18 -13 4 -34 3 -35 25 -4 25 -3
7 -12 8 -11 0 -28 0 -28 10 -20 11 -19 55 0 55 0 20 10 19 11 0 29 0 30 9 0
10 0 3 -22 3 -21 30 -9 30 -9 33 -10 33 -11 5 5 4 4 -14 57 -15 56 -6 10 -6
10 -15 0 -14 0 0 24 0 23 23 -4 23 -5 12 15 12 14 6 44 6 44 -14 18 -13 18
-59 6 -58 6 6 -30z"/>
</g>
</svg>
