<?xml version="1.0" standalone="no"?>
<!DOCTYPE svg PUBLIC "-//W3C//DTD SVG 20010904//EN"
 "http://www.w3.org/TR/2001/REC-SVG-20010904/DTD/svg10.dtd">
<svg version="1.0" xmlns="http://www.w3.org/2000/svg"
 width="39.000000pt" height="32.000000pt" viewBox="0 0 39.000000 32.000000"
 preserveAspectRatio="xMidYMid meet">
<metadata>
Created by potrace 1.16, written by Peter Selinger 2001-2019
</metadata>
<g transform="translate(0.000000,32.000000) scale(0.100000,-0.100000)"
fill="#000000" stroke="none">
<path d="M275 275 l-1 -47 -17 -13 -18 -13 -19 5 -20 5 0 38 0 38 -16 6 -16 6
-45 0 -45 0 4 -52 3 -53 -23 2 -23 3 -20 -11 -20 -10 3 -27 3 -27 25 -4 25 -3
7 -12 8 -11 0 -28 0 -28 10 -20 11 -19 45 0 45 0 20 10 19 11 0 30 0 30 23 -3
22 -3 -3 -18 -3 -17 23 -9 23 -8 33 -6 33 -7 -7 38 -7 37 -9 17 -9 18 -12 -3
-12 -2 -3 39 -3 39 24 -7 25 -6 10 13 10 12 7 35 6 35 -13 17 -13 18 -45 6
-45 6 0 -47z"/>
</g>
</svg>
