<?xml version="1.0" standalone="no"?>
<!DOCTYPE svg PUBLIC "-//W3C//DTD SVG 20010904//EN"
 "http://www.w3.org/TR/2001/REC-SVG-20010904/DTD/svg10.dtd">
<svg version="1.0" xmlns="http://www.w3.org/2000/svg"
 width="31.000000pt" height="32.000000pt" viewBox="0 0 31.000000 32.000000"
 preserveAspectRatio="xMidYMid meet">
<metadata>
Created by potrace 1.16, written by Peter Selinger 2001-2019
</metadata>
<g transform="translate(0.000000,32.000000) scale(0.100000,-0.100000)"
fill="#000000" stroke="none">
<path d="M2 265 l3 -50 18 3 19 3 24 -16 25 -16 -3 -27 -3 -27 -35 0 -35 -1
-5 -61 -5 -61 48 -6 48 -7 9 6 9 6 -1 33 -1 33 7 11 7 12 18 0 19 0 10 -12 10
-13 4 -30 3 -30 56 -3 56 -3 -9 58 -9 57 -4 5 -5 4 -32 1 -33 1 -3 22 -3 22
25 16 25 16 23 -3 23 -3 3 44 3 44 -8 8 -8 7 -47 -5 -48 -6 0 -28 0 -29 -26
-6 -27 -7 -26 10 -26 9 1 31 2 31 -50 4 -49 3 3 -50z"/>
</g>
</svg>
