<?xml version="1.0" standalone="no"?>
<!DOCTYPE svg PUBLIC "-//W3C//DTD SVG 20010904//EN"
 "http://www.w3.org/TR/2001/REC-SVG-20010904/DTD/svg10.dtd">
<svg version="1.0" xmlns="http://www.w3.org/2000/svg"
 width="33.000000pt" height="34.000000pt" viewBox="0 0 33.000000 34.000000"
 preserveAspectRatio="xMidYMid meet">
<metadata>
Created by potrace 1.16, written by Peter Selinger 2001-2019
</metadata>
<g transform="translate(0.000000,34.000000) scale(0.100000,-0.100000)"
fill="#000000" stroke="none">
<path d="M2 279 l3 -64 28 -1 28 -1 16 -16 16 -15 -6 -16 -6 -16 -33 2 -33 3
-6 -70 -6 -70 2 -2 2 -3 64 -2 64 -3 3 40 3 40 9 9 9 9 15 -12 15 -12 3 -32 3
-32 68 -3 69 -3 -6 28 -5 28 -6 42 -7 42 -17 6 -18 5 -16 -5 -15 -6 -7 11 -7
12 16 16 16 16 33 1 32 0 3 54 3 54 -9 9 -9 9 -56 -7 -57 -7 0 -28 0 -29 -24
-6 -24 -6 -21 11 -20 11 6 30 5 30 -38 0 -39 0 -23 6 -23 7 3 -64z"/>
</g>
</svg>
