<?xml version="1.0" standalone="no"?>
<!DOCTYPE svg PUBLIC "-//W3C//DTD SVG 20010904//EN"
 "http://www.w3.org/TR/2001/REC-SVG-20010904/DTD/svg10.dtd">
<svg version="1.0" xmlns="http://www.w3.org/2000/svg"
 width="40.000000pt" height="31.000000pt" viewBox="0 0 40.000000 31.000000"
 preserveAspectRatio="xMidYMid meet">
<metadata>
Created by potrace 1.16, written by Peter Selinger 2001-2019
</metadata>
<g transform="translate(0.000000,31.000000) scale(0.100000,-0.100000)"
fill="#000000" stroke="none">
<path d="M303 304 l-12 -5 6 -32 5 -32 -20 -18 -20 -18 -29 3 -28 3 -3 48 -3
47 -49 0 -49 0 -3 -52 -3 -53 -23 3 -23 3 -25 -16 -25 -16 3 -22 3 -22 33 -1
32 -1 5 -5 5 -4 7 -55 8 -54 53 -3 54 -3 -4 37 -3 37 17 10 17 11 28 -9 27
-10 1 -30 0 -30 49 -7 50 -7 8 5 8 5 0 56 0 55 -30 -5 -30 -6 -11 20 -11 21 6
23 6 23 20 -5 20 -5 15 12 15 12 0 44 0 44 -22 0 -23 0 -20 5 -20 4 -12 -5z"/>
</g>
</svg>
