<?xml version="1.0" standalone="no"?>
<!DOCTYPE svg PUBLIC "-//W3C//DTD SVG 20010904//EN"
 "http://www.w3.org/TR/2001/REC-SVG-20010904/DTD/svg10.dtd">
<svg version="1.0" xmlns="http://www.w3.org/2000/svg"
 width="35.000000pt" height="43.000000pt" viewBox="0 0 35.000000 43.000000"
 preserveAspectRatio="xMidYMid meet">
<metadata>
Created by potrace 1.16, written by Peter Selinger 2001-2019
</metadata>
<g transform="translate(0.000000,43.000000) scale(0.100000,-0.100000)"
fill="#000000" stroke="none">
<path d="M135 418 l-4 -13 -3 -30 -3 -30 -62 3 -63 4 0 -40 0 -41 9 -25 10
-25 33 -3 33 -3 0 -15 0 -15 -27 3 -28 3 -9 -23 -8 -23 -6 -52 -6 -53 27 -7
27 -7 45 0 45 -1 3 40 3 40 10 10 9 9 12 -12 11 -11 -2 -51 -1 -50 40 0 41 0
33 14 34 14 7 54 7 54 -4 25 -3 24 -40 0 -40 0 -3 17 -3 17 38 3 38 3 3 64 3
63 -68 -3 -68 -4 -5 40 -5 40 -28 3 -27 3 -5 -13z"/>
</g>
</svg>
