<?xml version="1.0" standalone="no"?>
<!DOCTYPE svg PUBLIC "-//W3C//DTD SVG 20010904//EN"
 "http://www.w3.org/TR/2001/REC-SVG-20010904/DTD/svg10.dtd">
<svg version="1.0" xmlns="http://www.w3.org/2000/svg"
 width="44.000000pt" height="49.000000pt" viewBox="0 0 44.000000 49.000000"
 preserveAspectRatio="xMidYMid meet">
<metadata>
Created by potrace 1.16, written by Peter Selinger 2001-2019
</metadata>
<g transform="translate(0.000000,49.000000) scale(0.100000,-0.100000)"
fill="#000000" stroke="none">
<path d="M141 476 l-11 -13 2 -24 3 -24 -58 -3 -57 -3 0 -47 0 -47 8 -12 7
-11 30 -4 30 -3 3 -19 4 -19 -14 -8 -13 -9 -37 0 -38 0 1 -32 0 -33 12 -35 12
-35 55 -5 55 -5 -3 -28 -3 -29 12 -14 11 -14 33 0 33 0 16 6 16 6 0 24 0 23
33 6 32 6 19 14 18 14 -15 45 -16 46 40 0 39 0 20 20 20 20 0 28 0 28 -12 12
-12 12 -37 0 -37 0 6 47 5 46 -39 -6 -39 -7 -27 -6 -28 -6 0 36 0 37 -10 20
-11 19 -23 0 -24 0 -11 -14z"/>
</g>
</svg>
