<?xml version="1.0" standalone="no"?>
<!DOCTYPE svg PUBLIC "-//W3C//DTD SVG 20010904//EN"
 "http://www.w3.org/TR/2001/REC-SVG-20010904/DTD/svg10.dtd">
<svg version="1.0" xmlns="http://www.w3.org/2000/svg"
 width="39.000000pt" height="38.000000pt" viewBox="0 0 39.000000 38.000000"
 preserveAspectRatio="xMidYMid meet">
<metadata>
Created by potrace 1.16, written by Peter Selinger 2001-2019
</metadata>
<g transform="translate(0.000000,38.000000) scale(0.100000,-0.100000)"
fill="#000000" stroke="none">
<path d="M230 351 l0 -29 -15 -12 -14 -12 -55 4 -55 3 -3 -55 -3 -55 -40 0
-40 0 -3 -25 -3 -25 15 -20 14 -20 42 1 42 1 -5 -36 -5 -36 -7 -17 -7 -18 57
0 56 0 15 15 15 15 -3 22 -3 23 25 0 24 0 6 -24 6 -25 52 -11 52 -12 0 142 0
142 -57 -1 -58 -1 3 25 3 25 -6 23 -5 22 -20 0 -20 0 0 -29z"/>
</g>
</svg>
