<?xml version="1.0" standalone="no"?>
<!DOCTYPE svg PUBLIC "-//W3C//DTD SVG 20010904//EN"
 "http://www.w3.org/TR/2001/REC-SVG-20010904/DTD/svg10.dtd">
<svg version="1.0" xmlns="http://www.w3.org/2000/svg"
 width="41.000000pt" height="40.000000pt" viewBox="0 0 41.000000 40.000000"
 preserveAspectRatio="xMidYMid meet">
<metadata>
Created by potrace 1.16, written by Peter Selinger 2001-2019
</metadata>
<g transform="translate(0.000000,40.000000) scale(0.100000,-0.100000)"
fill="#000000" stroke="none">
<path d="M230 371 l0 -29 -15 -12 -15 -13 -55 6 -54 5 -3 -56 -3 -56 -40 0
-40 -1 -3 -35 -3 -35 14 -19 15 -20 41 0 42 -1 -4 -20 -5 -20 -7 -32 -7 -33
66 0 67 0 15 14 14 15 0 26 0 27 12 -4 12 -4 6 -24 6 -24 54 -12 55 -13 8 -1
7 0 0 156 0 155 -55 -6 -55 -7 0 35 0 35 -6 16 -6 16 -29 0 -29 0 0 -29z"/>
</g>
</svg>
