<?xml version="1.0" standalone="no"?>
<!DOCTYPE svg PUBLIC "-//W3C//DTD SVG 20010904//EN"
 "http://www.w3.org/TR/2001/REC-SVG-20010904/DTD/svg10.dtd">
<svg version="1.0" xmlns="http://www.w3.org/2000/svg"
 width="33.000000pt" height="46.000000pt" viewBox="0 0 33.000000 46.000000"
 preserveAspectRatio="xMidYMid meet">
<metadata>
Created by potrace 1.16, written by Peter Selinger 2001-2019
</metadata>
<g transform="translate(0.000000,46.000000) scale(0.100000,-0.100000)"
fill="#000000" stroke="none">
<path d="M145 448 l-4 -13 2 -20 2 -20 -62 -3 -63 -3 0 -66 0 -65 34 6 33 6
12 -13 11 -14 -15 -13 -15 -12 -34 6 -34 7 -6 -19 -6 -18 9 -47 8 -46 -5 -6
-5 -5 66 0 66 0 3 -43 3 -42 27 -3 27 -3 11 22 12 22 -5 33 -6 34 8 5 9 5 45
-14 46 -14 5 15 6 15 0 39 0 40 -20 -6 -19 -6 -19 10 -20 10 -4 19 -5 18 9 23
8 23 30 -4 29 -4 6 14 5 14 -6 39 -7 39 -58 0 -58 0 -3 33 -3 32 -23 3 -22 3
-5 -13z"/>
</g>
</svg>
