<?xml version="1.0" standalone="no"?>
<!DOCTYPE svg PUBLIC "-//W3C//DTD SVG 20010904//EN"
 "http://www.w3.org/TR/2001/REC-SVG-20010904/DTD/svg10.dtd">
<svg version="1.0" xmlns="http://www.w3.org/2000/svg"
 width="44.000000pt" height="47.000000pt" viewBox="0 0 44.000000 47.000000"
 preserveAspectRatio="xMidYMid meet">
<metadata>
Created by potrace 1.16, written by Peter Selinger 2001-2019
</metadata>
<g transform="translate(0.000000,47.000000) scale(0.100000,-0.100000)"
fill="#000000" stroke="none">
<path d="M150 449 l0 -22 -17 -13 -18 -13 -47 -1 -48 0 0 -65 0 -64 29 5 29 6
20 -11 20 -11 -5 -20 -5 -19 -19 -6 -18 -6 -37 7 -37 7 7 -49 7 -49 1 -12 1
-13 11 -1 11 -1 5 0 5 -1 42 7 43 6 -7 -31 -6 -30 13 -25 13 -24 21 0 21 0 15
10 15 9 -1 51 0 50 28 0 29 0 34 -14 35 -15 0 65 0 64 38 0 38 0 12 12 12 12
0 22 0 23 -12 8 -13 8 -35 0 -35 0 -3 47 -3 48 -22 4 -22 4 -45 9 -45 8 1 23
1 22 -29 0 -28 0 0 -21z"/>
</g>
</svg>
