<?xml version="1.0" standalone="no"?>
<!DOCTYPE svg PUBLIC "-//W3C//DTD SVG 20010904//EN"
 "http://www.w3.org/TR/2001/REC-SVG-20010904/DTD/svg10.dtd">
<svg version="1.0" xmlns="http://www.w3.org/2000/svg"
 width="50.000000pt" height="37.000000pt" viewBox="0 0 50.000000 37.000000"
 preserveAspectRatio="xMidYMid meet">
<metadata>
Created by potrace 1.16, written by Peter Selinger 2001-2019
</metadata>
<g transform="translate(0.000000,37.000000) scale(0.100000,-0.100000)"
fill="#000000" stroke="none">
<path d="M224 356 l-5 -13 3 -29 3 -29 -67 1 -67 1 -3 -51 -3 -51 -40 0 -40 0
-3 -29 -4 -28 12 -12 11 -11 27 0 27 0 8 -52 9 -53 162 0 163 0 15 53 15 52
26 3 27 3 0 34 0 34 -19 6 -19 6 -26 -7 -26 -6 -1 23 -1 24 2 31 1 31 -52 16
-51 17 -13 0 -13 0 -6 16 -6 16 6 9 5 9 -26 0 -26 0 -5 -14z"/>
</g>
</svg>
