<?xml version="1.0" standalone="no"?>
<!DOCTYPE svg PUBLIC "-//W3C//DTD SVG 20010904//EN"
 "http://www.w3.org/TR/2001/REC-SVG-20010904/DTD/svg10.dtd">
<svg version="1.0" xmlns="http://www.w3.org/2000/svg"
 width="43.000000pt" height="39.000000pt" viewBox="0 0 43.000000 39.000000"
 preserveAspectRatio="xMidYMid meet">
<metadata>
Created by potrace 1.16, written by Peter Selinger 2001-2019
</metadata>
<g transform="translate(0.000000,39.000000) scale(0.100000,-0.100000)"
fill="#000000" stroke="none">
<path d="M205 379 l-7 -10 6 -24 6 -24 -12 -7 -13 -8 -50 -1 -50 0 -5 -45 -6
-45 -7 -13 -8 -12 -10 5 -9 6 -20 -6 -20 -6 0 -39 0 -38 6 -16 6 -16 19 0 20
0 3 -12 4 -13 6 -27 6 -28 174 0 174 0 6 16 6 16 0 44 0 44 -38 0 -38 0 -12
12 -12 12 0 8 0 8 30 0 29 0 11 19 10 20 0 50 0 50 -21 12 -22 11 -46 12 -46
11 -3 23 -3 22 -29 0 -29 0 -6 -11z"/>
</g>
</svg>
