<?xml version="1.0" standalone="no"?>
<!DOCTYPE svg PUBLIC "-//W3C//DTD SVG 20010904//EN"
 "http://www.w3.org/TR/2001/REC-SVG-20010904/DTD/svg10.dtd">
<svg version="1.0" xmlns="http://www.w3.org/2000/svg"
 width="43.000000pt" height="38.000000pt" viewBox="0 0 43.000000 38.000000"
 preserveAspectRatio="xMidYMid meet">
<metadata>
Created by potrace 1.16, written by Peter Selinger 2001-2019
</metadata>
<g transform="translate(0.000000,38.000000) scale(0.100000,-0.100000)"
fill="#000000" stroke="none">
<path d="M217 373 l-7 -6 0 -29 0 -28 -17 -2 -18 -2 -40 0 -40 -1 -3 -47 -3
-47 -42 -3 -42 -3 -3 -40 -3 -39 17 -13 18 -13 23 0 23 0 0 -50 0 -50 171 0
171 0 -7 23 -6 22 -11 40 -10 40 -20 17 -20 18 13 4 14 5 25 3 25 3 -3 64 -2
64 -4 4 -3 3 -54 -14 -54 -13 -11 4 -12 4 5 17 4 18 -10 27 -11 27 -23 0 -24
0 -6 -7z"/>
</g>
</svg>
