<?xml version="1.0" standalone="no"?>
<!DOCTYPE svg PUBLIC "-//W3C//DTD SVG 20010904//EN"
 "http://www.w3.org/TR/2001/REC-SVG-20010904/DTD/svg10.dtd">
<svg version="1.0" xmlns="http://www.w3.org/2000/svg"
 width="43.000000pt" height="36.000000pt" viewBox="0 0 43.000000 36.000000"
 preserveAspectRatio="xMidYMid meet">
<metadata>
Created by potrace 1.16, written by Peter Selinger 2001-2019
</metadata>
<g transform="translate(0.000000,36.000000) scale(0.100000,-0.100000)"
fill="#000000" stroke="none">
<path d="M221 346 l-11 -13 5 -15 6 -15 -16 -13 -15 -13 -45 6 -44 6 -3 -52
-3 -52 -39 0 -39 0 -11 -17 -10 -17 10 -28 9 -28 48 -3 47 -3 0 -45 0 -45 158
3 157 3 0 50 0 50 -27 -3 -28 -3 -20 11 -20 11 0 30 0 31 43 -4 42 -3 3 56 3
56 -43 12 -43 13 -23 9 -24 9 6 15 5 15 -33 0 -34 0 -11 -14z"/>
</g>
</svg>
