<?xml version="1.0" standalone="no"?>
<!DOCTYPE svg PUBLIC "-//W3C//DTD SVG 20010904//EN"
 "http://www.w3.org/TR/2001/REC-SVG-20010904/DTD/svg10.dtd">
<svg version="1.0" xmlns="http://www.w3.org/2000/svg"
 width="33.000000pt" height="39.000000pt" viewBox="0 0 33.000000 39.000000"
 preserveAspectRatio="xMidYMid meet">
<metadata>
Created by potrace 1.16, written by Peter Selinger 2001-2019
</metadata>
<g transform="translate(0.000000,39.000000) scale(0.100000,-0.100000)"
fill="#000000" stroke="none">
<path d="M142 378 l-12 -12 0 -34 0 -35 -55 6 -56 6 3 -67 3 -67 33 3 33 2 5
-14 6 -14 -12 -22 -12 -22 -34 7 -34 6 -6 -16 -6 -15 6 -45 7 -45 160 0 159 0
0 59 0 60 -32 3 -33 3 -3 23 -3 22 25 0 25 0 11 19 10 20 0 46 0 47 -37 -7
-38 -7 -15 -2 -15 -1 -3 40 -3 40 -11 12 -10 13 -22 0 -22 0 -12 -12z"/>
</g>
</svg>
