<?xml version="1.0" standalone="no"?>
<!DOCTYPE svg PUBLIC "-//W3C//DTD SVG 20010904//EN"
 "http://www.w3.org/TR/2001/REC-SVG-20010904/DTD/svg10.dtd">
<svg version="1.0" xmlns="http://www.w3.org/2000/svg"
 width="40.000000pt" height="39.000000pt" viewBox="0 0 40.000000 39.000000"
 preserveAspectRatio="xMidYMid meet">
<metadata>
Created by potrace 1.16, written by Peter Selinger 2001-2019
</metadata>
<g transform="translate(0.000000,39.000000) scale(0.100000,-0.100000)"
fill="#000000" stroke="none">
<path d="M132 377 l-12 -14 -6 -32 -7 -33 -54 7 -54 7 3 -69 3 -68 34 -5 34
-5 4 -11 4 -11 -19 -5 -18 -5 -11 -44 -11 -44 -7 -23 -7 -22 156 0 156 0 0 50
0 50 23 0 22 1 18 13 17 13 0 35 0 36 -15 12 -15 12 -20 -5 -19 -5 -6 19 -6
19 6 30 7 30 -71 0 -70 0 -3 38 -3 37 -21 3 -21 3 -11 -14z"/>
</g>
</svg>
