<?xml version="1.0" standalone="no"?>
<!DOCTYPE svg PUBLIC "-//W3C//DTD SVG 20010904//EN"
 "http://www.w3.org/TR/2001/REC-SVG-20010904/DTD/svg10.dtd">
<svg version="1.0" xmlns="http://www.w3.org/2000/svg"
 width="44.000000pt" height="39.000000pt" viewBox="0 0 44.000000 39.000000"
 preserveAspectRatio="xMidYMid meet">
<metadata>
Created by potrace 1.16, written by Peter Selinger 2001-2019
</metadata>
<g transform="translate(0.000000,39.000000) scale(0.100000,-0.100000)"
fill="#000000" stroke="none">
<path d="M173 383 l-13 -5 0 -40 0 -40 -62 4 -63 3 -3 -68 -3 -69 38 4 38 3 0
-20 0 -20 -40 -1 -40 -1 -12 -1 -13 -2 0 -27 0 -28 11 -38 10 -37 164 0 164 0
-2 58 -2 57 24 -3 23 -4 24 6 24 6 0 34 0 34 -15 12 -15 12 -30 -4 -30 -5 0
48 0 48 -57 3 -58 3 0 33 0 33 -15 9 -15 10 -10 -1 -10 -1 -12 -5z"/>
</g>
</svg>
