<?xml version="1.0" standalone="no"?>
<!DOCTYPE svg PUBLIC "-//W3C//DTD SVG 20010904//EN"
 "http://www.w3.org/TR/2001/REC-SVG-20010904/DTD/svg10.dtd">
<svg version="1.0" xmlns="http://www.w3.org/2000/svg"
 width="42.000000pt" height="37.000000pt" viewBox="0 0 42.000000 37.000000"
 preserveAspectRatio="xMidYMid meet">
<metadata>
Created by potrace 1.16, written by Peter Selinger 2001-2019
</metadata>
<g transform="translate(0.000000,37.000000) scale(0.100000,-0.100000)"
fill="#000000" stroke="none">
<path d="M171 360 l-13 -7 4 -34 3 -34 -65 0 -65 0 -3 -59 -3 -58 35 6 35 7
11 -21 11 -21 -12 -15 -13 -15 -35 1 -36 2 -12 -1 -13 -1 0 -17 0 -18 11 -37
10 -38 152 0 153 0 -1 57 0 58 25 -2 25 -2 23 5 22 4 0 24 0 24 -15 12 -14 12
-31 -7 -30 -7 0 51 0 50 -57 3 -58 3 -2 25 -1 25 -1 11 -1 12 -13 5 -14 5 -12
-8z"/>
</g>
</svg>
