<?xml version="1.0" standalone="no"?>
<!DOCTYPE svg PUBLIC "-//W3C//DTD SVG 20010904//EN"
 "http://www.w3.org/TR/2001/REC-SVG-20010904/DTD/svg10.dtd">
<svg version="1.0" xmlns="http://www.w3.org/2000/svg"
 width="42.000000pt" height="41.000000pt" viewBox="0 0 42.000000 41.000000"
 preserveAspectRatio="xMidYMid meet">
<metadata>
Created by potrace 1.16, written by Peter Selinger 2001-2019
</metadata>
<g transform="translate(0.000000,41.000000) scale(0.100000,-0.100000)"
fill="#000000" stroke="none">
<path d="M63 403 l-33 -4 0 -17 0 -17 -6 -36 -6 -35 36 4 36 4 15 -12 15 -12
0 -19 0 -19 -21 -21 -20 -20 -37 3 -37 2 2 -24 1 -25 11 -29 11 -28 53 4 53 4
-4 -28 -4 -28 6 -25 7 -26 32 3 32 3 3 42 3 41 49 7 49 7 10 -6 10 -7 3 63 3
63 23 -3 24 -4 19 18 19 17 0 18 0 18 -12 8 -13 7 -22 -2 -21 -3 -8 13 -8 13
-6 40 -6 40 -14 -4 -15 -4 -45 -12 -45 -12 3 -16 3 -17 -25 -11 -25 -12 -16
13 -15 12 0 39 0 39 -17 -2 -18 -1 -32 -4z"/>
</g>
</svg>
