<?xml version="1.0" standalone="no"?>
<!DOCTYPE svg PUBLIC "-//W3C//DTD SVG 20010904//EN"
 "http://www.w3.org/TR/2001/REC-SVG-20010904/DTD/svg10.dtd">
<svg version="1.0" xmlns="http://www.w3.org/2000/svg"
 width="39.000000pt" height="39.000000pt" viewBox="0 0 39.000000 39.000000"
 preserveAspectRatio="xMidYMid meet">
<metadata>
Created by potrace 1.16, written by Peter Selinger 2001-2019
</metadata>
<g transform="translate(0.000000,39.000000) scale(0.100000,-0.100000)"
fill="#000000" stroke="none">
<path d="M128 383 l-48 -4 0 -40 0 -40 -15 -16 -16 -15 -25 6 -25 7 3 -33 3
-33 23 3 22 3 4 -13 5 -13 11 -57 11 -58 50 0 50 0 -6 -20 -6 -19 11 -21 11
-21 42 3 42 3 0 30 0 30 46 3 46 3 12 38 11 38 0 20 0 20 -41 -1 -41 -1 -14
20 -15 20 3 25 3 25 40 0 40 0 3 49 3 48 -48 -7 -48 -7 -8 -5 -8 -5 6 -18 6
-19 -20 -10 -20 -11 -15 6 -15 6 -7 33 -6 34 7 10 6 11 -13 -2 -13 -2 -47 -3z"/>
</g>
</svg>
