<?xml version="1.0" standalone="no"?>
<!DOCTYPE svg PUBLIC "-//W3C//DTD SVG 20010904//EN"
 "http://www.w3.org/TR/2001/REC-SVG-20010904/DTD/svg10.dtd">
<svg version="1.0" xmlns="http://www.w3.org/2000/svg"
 width="47.000000pt" height="38.000000pt" viewBox="0 0 47.000000 38.000000"
 preserveAspectRatio="xMidYMid meet">
<metadata>
Created by potrace 1.16, written by Peter Selinger 2001-2019
</metadata>
<g transform="translate(0.000000,38.000000) scale(0.100000,-0.100000)"
fill="#000000" stroke="none">
<path d="M80 336 l0 -44 -15 -12 -15 -12 -20 5 -20 5 -6 -23 -6 -23 11 -21 11
-20 30 6 30 6 0 -61 0 -61 48 -3 47 -3 -3 -32 -3 -31 30 -7 31 -6 20 6 20 6 0
14 0 14 48 14 47 13 -4 25 -4 24 -1 40 -1 40 35 1 36 1 22 12 22 12 0 19 0 20
-40 0 -39 0 -11 19 -10 20 0 40 0 41 -50 0 -49 0 5 -29 6 -29 -27 -18 -27 -18
-17 11 -16 10 -1 24 0 25 -8 12 -7 12 -50 0 -49 0 0 -44z"/>
</g>
</svg>
