<?xml version="1.0" standalone="no"?>
<!DOCTYPE svg PUBLIC "-//W3C//DTD SVG 20010904//EN"
 "http://www.w3.org/TR/2001/REC-SVG-20010904/DTD/svg10.dtd">
<svg version="1.0" xmlns="http://www.w3.org/2000/svg"
 width="35.000000pt" height="33.000000pt" viewBox="0 0 35.000000 33.000000"
 preserveAspectRatio="xMidYMid meet">
<metadata>
Created by potrace 1.16, written by Peter Selinger 2001-2019
</metadata>
<g transform="translate(0.000000,33.000000) scale(0.100000,-0.100000)"
fill="#000000" stroke="none">
<path d="M4 308 l6 -23 0 -32 0 -33 40 0 39 0 11 -21 11 -20 -15 -23 -15 -23
-24 4 -24 5 -6 -24 -7 -23 0 -43 0 -43 63 3 62 3 3 33 3 32 14 0 14 0 3 -16 3
-17 74 -24 74 -24 2 3 3 3 4 60 3 60 -35 3 -35 4 -18 15 -17 16 0 17 0 18 13
10 13 11 30 -2 29 -2 3 58 3 59 -28 -5 -28 -6 -38 -6 -38 -6 3 -27 3 -27 -35
0 -35 0 -3 38 -3 37 -66 0 -65 0 6 -22z"/>
</g>
</svg>
