<?xml version="1.0" standalone="no"?>
<!DOCTYPE svg PUBLIC "-//W3C//DTD SVG 20010904//EN"
 "http://www.w3.org/TR/2001/REC-SVG-20010904/DTD/svg10.dtd">
<svg version="1.0" xmlns="http://www.w3.org/2000/svg"
 width="33.000000pt" height="31.000000pt" viewBox="0 0 33.000000 31.000000"
 preserveAspectRatio="xMidYMid meet">
<metadata>
Created by potrace 1.16, written by Peter Selinger 2001-2019
</metadata>
<g transform="translate(0.000000,31.000000) scale(0.100000,-0.100000)"
fill="#000000" stroke="none">
<path d="M8 265 l4 -45 39 0 39 0 12 -26 12 -26 -15 -26 -15 -27 -26 2 -26 1
-6 -21 -6 -22 0 -33 0 -33 53 3 52 3 0 30 0 30 31 3 32 3 -2 -17 -1 -16 66
-22 65 -21 2 30 2 30 2 20 3 20 -35 3 -35 4 -17 15 -18 16 0 27 0 28 14 12 15
12 28 -4 28 -3 3 47 3 46 -18 -3 -18 -4 -35 -6 -36 -5 1 -28 0 -27 -45 0 -45
0 -3 38 -3 37 -52 0 -52 0 3 -45z"/>
</g>
</svg>
