<?xml version="1.0" standalone="no"?>
<!DOCTYPE svg PUBLIC "-//W3C//DTD SVG 20010904//EN"
 "http://www.w3.org/TR/2001/REC-SVG-20010904/DTD/svg10.dtd">
<svg version="1.0" xmlns="http://www.w3.org/2000/svg"
 width="31.000000pt" height="38.000000pt" viewBox="0 0 31.000000 38.000000"
 preserveAspectRatio="xMidYMid meet">
<metadata>
Created by potrace 1.16, written by Peter Selinger 2001-2019
</metadata>
<g transform="translate(0.000000,38.000000) scale(0.100000,-0.100000)"
fill="#000000" stroke="none">
<path d="M2 328 l3 -53 33 3 33 4 15 -12 14 -12 0 -23 0 -23 -15 -12 -15 -12
-29 4 -30 4 -5 -20 -6 -21 0 -37 0 -38 54 0 54 0 -2 -32 -1 -32 27 -10 27 -10
22 20 21 19 -6 34 -5 34 37 -6 37 -5 18 -7 19 -8 -8 49 -7 49 -8 23 -9 22 -20
0 -20 0 0 20 0 20 23 -5 23 -6 11 13 11 13 7 42 7 43 -15 6 -16 6 -48 -14 -48
-14 0 -24 0 -25 -35 -3 -34 -4 -13 17 -12 17 6 29 6 29 -52 0 -52 0 3 -52z"/>
</g>
</svg>
