<?xml version="1.0" standalone="no"?>
<!DOCTYPE svg PUBLIC "-//W3C//DTD SVG 20010904//EN"
 "http://www.w3.org/TR/2001/REC-SVG-20010904/DTD/svg10.dtd">
<svg version="1.0" xmlns="http://www.w3.org/2000/svg"
 width="33.000000pt" height="40.000000pt" viewBox="0 0 33.000000 40.000000"
 preserveAspectRatio="xMidYMid meet">
<metadata>
Created by potrace 1.16, written by Peter Selinger 2001-2019
</metadata>
<g transform="translate(0.000000,40.000000) scale(0.100000,-0.100000)"
fill="#000000" stroke="none">
<path d="M2 338 l3 -63 39 0 39 0 10 -17 11 -16 -14 -17 -14 -17 -32 6 -32 6
-6 -22 -6 -23 0 -47 0 -48 50 0 50 0 0 -30 0 -29 19 -11 20 -10 24 0 24 0 16
18 17 19 0 32 0 33 23 -6 22 -6 29 -7 29 -6 -8 58 -7 59 -8 22 -9 22 -23 5
-23 4 26 2 27 1 10 13 11 12 7 53 7 52 -18 6 -18 7 -56 -14 -56 -14 0 -25 0
-25 -30 0 -30 0 -3 43 -3 42 -60 0 -60 0 3 -62z"/>
</g>
</svg>
