<?xml version="1.0" standalone="no"?>
<!DOCTYPE svg PUBLIC "-//W3C//DTD SVG 20010904//EN"
 "http://www.w3.org/TR/2001/REC-SVG-20010904/DTD/svg10.dtd">
<svg version="1.0" xmlns="http://www.w3.org/2000/svg"
 width="37.000000pt" height="31.000000pt" viewBox="0 0 37.000000 31.000000"
 preserveAspectRatio="xMidYMid meet">
<metadata>
Created by potrace 1.16, written by Peter Selinger 2001-2019
</metadata>
<g transform="translate(0.000000,31.000000) scale(0.100000,-0.100000)"
fill="#000000" stroke="none">
<path d="M73 260 l-1 -51 -13 -15 -13 -15 -23 6 -23 5 0 -20 0 -20 20 0 20 0
9 -23 8 -22 7 -47 7 -48 17 0 17 0 37 -6 36 -6 -5 41 -6 41 13 15 12 15 19 0
19 0 6 -25 6 -25 -6 -17 -7 -16 13 -9 13 -8 54 0 53 0 -6 16 -6 17 -11 43 -11
44 -17 -2 -16 -3 0 45 0 45 31 -2 32 -3 6 23 6 22 0 26 0 26 -50 -11 -50 -10
0 -17 0 -17 -14 -11 -15 -12 -28 3 -28 3 0 28 0 28 -15 9 -15 10 -40 0 -40 0
-2 -50z"/>
</g>
</svg>
