<?xml version="1.0" standalone="no"?>
<!DOCTYPE svg PUBLIC "-//W3C//DTD SVG 20010904//EN"
 "http://www.w3.org/TR/2001/REC-SVG-20010904/DTD/svg10.dtd">
<svg version="1.0" xmlns="http://www.w3.org/2000/svg"
 width="48.000000pt" height="41.000000pt" viewBox="0 0 48.000000 41.000000"
 preserveAspectRatio="xMidYMid meet">
<metadata>
Created by potrace 1.16, written by Peter Selinger 2001-2019
</metadata>
<g transform="translate(0.000000,41.000000) scale(0.100000,-0.100000)"
fill="#000000" stroke="none">
<path d="M128 403 l-48 -4 0 -27 0 -27 -6 -22 -6 -23 -32 3 -31 2 0 -45 0 -45
15 2 16 3 19 -61 20 -62 52 -1 52 -1 12 -12 12 -12 1 -33 1 -33 27 -3 27 -3
11 22 12 21 -4 40 -4 40 36 -6 35 -6 26 -6 26 -6 15 58 14 59 24 0 25 0 3 37
3 37 -25 7 -25 6 -20 -7 -21 -6 0 51 0 50 -26 10 -25 10 -29 0 -28 0 2 -31 1
-31 -26 -20 -27 -20 -22 12 -22 12 4 39 4 39 -11 -2 -10 -2 -47 -3z"/>
</g>
</svg>
