<?xml version="1.0" standalone="no"?>
<!DOCTYPE svg PUBLIC "-//W3C//DTD SVG 20010904//EN"
 "http://www.w3.org/TR/2001/REC-SVG-20010904/DTD/svg10.dtd">
<svg version="1.0" xmlns="http://www.w3.org/2000/svg"
 width="50.000000pt" height="43.000000pt" viewBox="0 0 50.000000 43.000000"
 preserveAspectRatio="xMidYMid meet">
<metadata>
Created by potrace 1.16, written by Peter Selinger 2001-2019
</metadata>
<g transform="translate(0.000000,43.000000) scale(0.100000,-0.100000)"
fill="#000000" stroke="none">
<path d="M128 423 l-48 -4 -1 -32 0 -32 -7 -15 -7 -15 -30 0 -30 0 -3 -53 -3
-54 20 -5 19 -5 19 -56 18 -57 36 3 36 3 26 -10 26 -10 3 -38 3 -38 35 -3 34
-4 13 18 13 18 0 44 0 44 23 -6 22 -7 37 -6 36 -5 12 55 13 56 26 3 26 3 3 44
3 44 -13 8 -13 9 -32 0 -33 0 0 45 0 45 -26 10 -25 10 -41 0 -40 0 5 -29 6
-29 -19 -17 -19 -17 -18 4 -18 4 2 42 2 42 -22 -2 -22 -2 -47 -3z"/>
</g>
</svg>
