<?xml version="1.0" standalone="no"?>
<!DOCTYPE svg PUBLIC "-//W3C//DTD SVG 20010904//EN"
 "http://www.w3.org/TR/2001/REC-SVG-20010904/DTD/svg10.dtd">
<svg version="1.0" xmlns="http://www.w3.org/2000/svg"
 width="40.000000pt" height="42.000000pt" viewBox="0 0 40.000000 42.000000"
 preserveAspectRatio="xMidYMid meet">
<metadata>
Created by potrace 1.16, written by Peter Selinger 2001-2019
</metadata>
<g transform="translate(0.000000,42.000000) scale(0.100000,-0.100000)"
fill="#000000" stroke="none">
<path d="M43 413 l-43 -4 0 -66 0 -65 32 6 33 6 13 -9 14 -8 -4 -24 -3 -24
-24 0 -25 0 -13 -50 -13 -50 0 -17 0 -18 50 0 50 0 0 -26 0 -25 10 -20 11 -19
22 0 22 0 23 6 22 6 0 24 0 23 35 7 36 6 9 18 10 18 -9 48 -9 47 4 11 4 11 38
-3 38 -4 14 17 14 17 -11 16 -11 17 -36 -1 -36 -1 0 58 0 59 -32 -1 -33 -1
-25 -7 -25 -7 0 -23 0 -23 -19 -10 -18 -10 -24 11 -24 11 0 40 0 40 -12 -2
-13 -1 -42 -4z"/>
</g>
</svg>
