<?xml version="1.0" standalone="no"?>
<!DOCTYPE svg PUBLIC "-//W3C//DTD SVG 20010904//EN"
 "http://www.w3.org/TR/2001/REC-SVG-20010904/DTD/svg10.dtd">
<svg version="1.0" xmlns="http://www.w3.org/2000/svg"
 width="40.000000pt" height="32.000000pt" viewBox="0 0 40.000000 32.000000"
 preserveAspectRatio="xMidYMid meet">
<metadata>
Created by potrace 1.16, written by Peter Selinger 2001-2019
</metadata>
<g transform="translate(0.000000,32.000000) scale(0.100000,-0.100000)"
fill="#000000" stroke="none">
<path d="M198 278 l-3 -43 -30 0 -30 0 -3 32 -3 33 -23 6 -23 5 -34 -3 -34 -3
0 -55 0 -55 38 1 37 1 0 -18 0 -17 -6 -16 -6 -16 -23 6 -23 6 -6 -10 -5 -9 -9
-57 -9 -57 71 3 71 3 -3 37 -3 36 12 8 12 7 14 -19 14 -19 -6 -32 -6 -33 60 0
60 0 11 19 10 20 1 33 0 33 8 20 8 20 29 0 29 0 0 25 0 25 -33 3 -33 3 -10 25
-9 25 0 28 0 29 -31 6 -31 6 -24 0 -23 0 -3 -42z"/>
</g>
</svg>
