<?xml version="1.0" standalone="no"?>
<!DOCTYPE svg PUBLIC "-//W3C//DTD SVG 20010904//EN"
 "http://www.w3.org/TR/2001/REC-SVG-20010904/DTD/svg10.dtd">
<svg version="1.0" xmlns="http://www.w3.org/2000/svg"
 width="42.000000pt" height="34.000000pt" viewBox="0 0 42.000000 34.000000"
 preserveAspectRatio="xMidYMid meet">
<metadata>
Created by potrace 1.16, written by Peter Selinger 2001-2019
</metadata>
<g transform="translate(0.000000,34.000000) scale(0.100000,-0.100000)"
fill="#000000" stroke="none">
<path d="M198 298 l-3 -43 -20 0 -20 0 -3 32 -3 33 -23 6 -23 5 -44 -3 -44 -3
0 -65 0 -65 38 -3 38 -3 -4 -12 -4 -12 -28 -5 -29 -5 -6 -25 -7 -25 -6 -48 -7
-48 83 3 82 3 -1 38 -1 37 8 0 7 0 5 -12 4 -13 -5 -33 -5 -32 71 0 71 0 11 19
10 20 0 28 0 28 6 22 6 22 32 3 31 3 0 35 0 35 -33 3 -33 3 -10 25 -9 25 0 28
0 29 -31 6 -31 6 -34 0 -33 0 -3 -42z"/>
</g>
</svg>
