<?xml version="1.0" standalone="no"?>
<!DOCTYPE svg PUBLIC "-//W3C//DTD SVG 20010904//EN"
 "http://www.w3.org/TR/2001/REC-SVG-20010904/DTD/svg10.dtd">
<svg version="1.0" xmlns="http://www.w3.org/2000/svg"
 width="38.000000pt" height="32.000000pt" viewBox="0 0 38.000000 32.000000"
 preserveAspectRatio="xMidYMid meet">
<metadata>
Created by potrace 1.16, written by Peter Selinger 2001-2019
</metadata>
<g transform="translate(0.000000,32.000000) scale(0.100000,-0.100000)"
fill="#000000" stroke="none">
<path d="M217 282 l5 -38 -15 -13 -16 -12 -38 3 -38 3 0 40 0 40 -49 3 -49 3
-8 -13 -9 -13 0 -42 0 -43 33 0 33 0 19 -14 18 -13 -6 -18 -7 -17 -25 6 -25 6
-9 -22 -9 -23 -6 -50 -7 -51 43 4 43 3 24 5 23 5 -6 35 -7 34 16 6 16 7 12
-12 12 -12 0 -27 0 -26 25 -7 25 -7 38 -1 37 -1 0 43 0 42 10 15 9 15 23 0 23
0 3 34 3 34 -16 -7 -16 -6 -21 11 -20 11 4 57 3 58 -52 2 -51 1 5 -38z"/>
</g>
</svg>
