<?xml version="1.0" standalone="no"?>
<!DOCTYPE svg PUBLIC "-//W3C//DTD SVG 20010904//EN"
 "http://www.w3.org/TR/2001/REC-SVG-20010904/DTD/svg10.dtd">
<svg version="1.0" xmlns="http://www.w3.org/2000/svg"
 width="38.000000pt" height="30.000000pt" viewBox="0 0 38.000000 30.000000"
 preserveAspectRatio="xMidYMid meet">
<metadata>
Created by potrace 1.16, written by Peter Selinger 2001-2019
</metadata>
<g transform="translate(0.000000,30.000000) scale(0.100000,-0.100000)"
fill="#000000" stroke="none">
<path d="M260 267 l0 -33 -12 -12 -12 -12 -34 0 -34 0 7 29 6 30 -20 10 -20
11 -30 0 -30 0 -3 -62 -3 -63 -37 -3 -38 -3 0 -18 0 -19 15 -12 15 -12 25 4
25 5 11 -13 11 -13 -7 -41 -7 -40 146 0 146 0 0 44 0 45 -47 3 -48 3 -9 28
-10 28 10 17 11 17 39 0 39 0 3 51 3 51 -23 7 -23 6 -32 0 -33 0 0 -33z"/>
</g>
</svg>
