<?xml version="1.0" standalone="no"?>
<!DOCTYPE svg PUBLIC "-//W3C//DTD SVG 20010904//EN"
 "http://www.w3.org/TR/2001/REC-SVG-20010904/DTD/svg10.dtd">
<svg version="1.0" xmlns="http://www.w3.org/2000/svg"
 width="49.000000pt" height="32.000000pt" viewBox="0 0 49.000000 32.000000"
 preserveAspectRatio="xMidYMid meet">
<metadata>
Created by potrace 1.16, written by Peter Selinger 2001-2019
</metadata>
<g transform="translate(0.000000,32.000000) scale(0.100000,-0.100000)"
fill="#000000" stroke="none">
<path d="M350 313 l-25 -4 -24 -5 -23 -5 4 -30 5 -30 -20 -14 -20 -14 -19 10
-19 10 6 31 7 30 -13 9 -14 9 -52 0 -53 0 0 -55 0 -55 -45 0 -45 0 0 -40 0
-39 19 -11 20 -10 32 0 32 0 -6 -50 -6 -50 151 0 151 0 -6 29 -6 29 -7 26 -6
26 50 0 50 0 12 16 13 15 -9 27 -10 27 -37 -1 -37 -1 0 63 0 64 -12 -1 -13 -2
-25 -4z"/>
</g>
</svg>
