<?xml version="1.0" standalone="no"?>
<!DOCTYPE svg PUBLIC "-//W3C//DTD SVG 20010904//EN"
 "http://www.w3.org/TR/2001/REC-SVG-20010904/DTD/svg10.dtd">
<svg version="1.0" xmlns="http://www.w3.org/2000/svg"
 width="47.000000pt" height="30.000000pt" viewBox="0 0 47.000000 30.000000"
 preserveAspectRatio="xMidYMid meet">
<metadata>
Created by potrace 1.16, written by Peter Selinger 2001-2019
</metadata>
<g transform="translate(0.000000,30.000000) scale(0.100000,-0.100000)"
fill="#000000" stroke="none">
<path d="M350 292 l-25 -3 -23 -5 -23 -5 6 -29 6 -29 -26 -17 -26 -17 -26 12
-26 12 6 34 5 33 -15 6 -15 6 -38 0 -39 0 -3 -57 -3 -58 -42 3 -43 4 0 -31 0
-30 20 -11 20 -11 28 3 27 3 0 -53 0 -52 139 0 138 0 -6 16 -6 16 -6 39 -7 39
14 1 14 1 36 -2 35 -1 13 15 12 15 -11 21 -11 21 -34 -7 -34 -6 -3 63 -3 64
-25 -3z"/>
</g>
</svg>
