<?xml version="1.0" standalone="no"?>
<!DOCTYPE svg PUBLIC "-//W3C//DTD SVG 20010904//EN"
 "http://www.w3.org/TR/2001/REC-SVG-20010904/DTD/svg10.dtd">
<svg version="1.0" xmlns="http://www.w3.org/2000/svg"
 width="33.000000pt" height="33.000000pt" viewBox="0 0 33.000000 33.000000"
 preserveAspectRatio="xMidYMid meet">
<metadata>
Created by potrace 1.16, written by Peter Selinger 2001-2019
</metadata>
<g transform="translate(0.000000,33.000000) scale(0.100000,-0.100000)"
fill="#000000" stroke="none">
<path d="M206 290 l7 -40 -17 -6 -16 -6 -15 12 -14 12 6 29 6 30 -74 -3 -74
-3 -3 -44 -3 -45 12 -23 12 -23 25 0 24 0 -4 -12 -5 -13 -34 -5 -34 -5 -3 -29
-4 -30 6 -40 6 -41 158 3 157 4 4 3 3 4 -8 58 -9 58 -35 5 -35 5 0 24 0 25 40
0 40 1 3 61 3 61 -23 7 -23 6 -43 0 -42 0 6 -40z"/>
</g>
</svg>
