<?xml version="1.0" standalone="no"?>
<!DOCTYPE svg PUBLIC "-//W3C//DTD SVG 20010904//EN"
 "http://www.w3.org/TR/2001/REC-SVG-20010904/DTD/svg10.dtd">
<svg version="1.0" xmlns="http://www.w3.org/2000/svg"
 width="45.000000pt" height="30.000000pt" viewBox="0 0 45.000000 30.000000"
 preserveAspectRatio="xMidYMid meet">
<metadata>
Created by potrace 1.16, written by Peter Selinger 2001-2019
</metadata>
<g transform="translate(0.000000,30.000000) scale(0.100000,-0.100000)"
fill="#000000" stroke="none">
<path d="M80 248 l0 -49 -11 -20 -10 -20 -27 3 -26 3 -4 -18 -4 -18 17 -19 17
-18 35 5 36 6 -5 -51 -5 -52 136 0 136 0 -3 56 -4 56 30 -7 30 -6 16 16 16 16
0 10 0 9 -27 6 -28 6 -12 4 -13 3 0 61 0 60 -56 0 -56 0 6 -35 7 -34 -20 -20
-21 -21 -17 7 -18 7 -7 10 -7 10 6 27 5 27 -13 8 -13 8 -43 6 -43 7 0 -49z"/>
</g>
</svg>
