<?xml version="1.0" standalone="no"?>
<!DOCTYPE svg PUBLIC "-//W3C//DTD SVG 20010904//EN"
 "http://www.w3.org/TR/2001/REC-SVG-20010904/DTD/svg10.dtd">
<svg version="1.0" xmlns="http://www.w3.org/2000/svg"
 width="41.000000pt" height="36.000000pt" viewBox="0 0 41.000000 36.000000"
 preserveAspectRatio="xMidYMid meet">
<metadata>
Created by potrace 1.16, written by Peter Selinger 2001-2019
</metadata>
<g transform="translate(0.000000,36.000000) scale(0.100000,-0.100000)"
fill="#000000" stroke="none">
<path d="M134 345 l6 -16 -13 -19 -12 -20 -47 0 -48 0 0 -53 0 -52 20 -13 20
-12 25 6 25 6 0 -20 0 -20 -15 -12 -15 -13 -40 7 -40 6 0 -44 0 -44 6 -16 6
-16 158 0 158 0 6 16 6 16 0 29 0 29 20 -3 21 -2 17 28 17 27 -11 18 -11 17
-29 0 -29 0 -5 55 -5 55 -40 3 -40 3 -21 10 -21 11 5 24 4 24 -42 0 -42 0 6
-15z"/>
</g>
</svg>
