<?xml version="1.0" standalone="no"?>
<!DOCTYPE svg PUBLIC "-//W3C//DTD SVG 20010904//EN"
 "http://www.w3.org/TR/2001/REC-SVG-20010904/DTD/svg10.dtd">
<svg version="1.0" xmlns="http://www.w3.org/2000/svg"
 width="43.000000pt" height="38.000000pt" viewBox="0 0 43.000000 38.000000"
 preserveAspectRatio="xMidYMid meet">
<metadata>
Created by potrace 1.16, written by Peter Selinger 2001-2019
</metadata>
<g transform="translate(0.000000,38.000000) scale(0.100000,-0.100000)"
fill="#000000" stroke="none">
<path d="M130 361 l0 -19 -6 -16 -6 -16 -49 0 -49 0 0 -63 0 -64 24 -13 25
-13 20 6 21 5 0 -8 0 -8 -14 -11 -14 -12 -41 7 -41 7 0 -56 0 -55 6 -16 6 -16
168 0 168 0 6 16 6 16 0 24 0 24 19 0 19 0 16 25 16 24 0 24 0 23 -12 12 -12
12 -27 0 -28 0 -3 53 -3 52 -45 3 -45 3 -12 11 -13 10 0 24 0 24 -50 0 -50 0
0 -19z"/>
</g>
</svg>
