<?xml version="1.0" standalone="no"?>
<!DOCTYPE svg PUBLIC "-//W3C//DTD SVG 20010904//EN"
 "http://www.w3.org/TR/2001/REC-SVG-20010904/DTD/svg10.dtd">
<svg version="1.0" xmlns="http://www.w3.org/2000/svg"
 width="33.000000pt" height="39.000000pt" viewBox="0 0 33.000000 39.000000"
 preserveAspectRatio="xMidYMid meet">
<metadata>
Created by potrace 1.16, written by Peter Selinger 2001-2019
</metadata>
<g transform="translate(0.000000,39.000000) scale(0.100000,-0.100000)"
fill="#000000" stroke="none">
<path d="M136 375 l-6 -17 0 -25 0 -26 -59 7 -59 7 -6 -16 -6 -17 0 -39 0 -40
10 -20 11 -19 29 0 30 0 0 -10 0 -10 -25 0 -24 0 -6 -37 -7 -38 -9 -29 -9 -29
0 -8 0 -9 165 0 165 0 0 156 0 156 -64 -7 -65 -7 -3 43 -3 44 -26 3 -26 3 -7
-16z"/>
</g>
</svg>
