<?xml version="1.0" standalone="no"?>
<!DOCTYPE svg PUBLIC "-//W3C//DTD SVG 20010904//EN"
 "http://www.w3.org/TR/2001/REC-SVG-20010904/DTD/svg10.dtd">
<svg version="1.0" xmlns="http://www.w3.org/2000/svg"
 width="31.000000pt" height="37.000000pt" viewBox="0 0 31.000000 37.000000"
 preserveAspectRatio="xMidYMid meet">
<metadata>
Created by potrace 1.16, written by Peter Selinger 2001-2019
</metadata>
<g transform="translate(0.000000,37.000000) scale(0.100000,-0.100000)"
fill="#000000" stroke="none">
<path d="M138 358 l-1 -13 -1 -25 -1 -25 -60 1 -60 0 -7 -10 -8 -11 0 -33 0
-33 11 -20 10 -20 27 3 27 3 3 -22 3 -23 -25 0 -25 0 -6 -37 -7 -38 -8 -27 -9
-28 155 0 154 0 0 145 0 145 -12 0 -13 0 -38 -9 -37 -9 -19 5 -18 4 1 42 1 41
-17 4 -18 3 -2 -13z"/>
</g>
</svg>
