<?xml version="1.0" standalone="no"?>
<!DOCTYPE svg PUBLIC "-//W3C//DTD SVG 20010904//EN"
 "http://www.w3.org/TR/2001/REC-SVG-20010904/DTD/svg10.dtd">
<svg version="1.0" xmlns="http://www.w3.org/2000/svg"
 width="31.000000pt" height="31.000000pt" viewBox="0 0 31.000000 31.000000"
 preserveAspectRatio="xMidYMid meet">
<metadata>
Created by potrace 1.16, written by Peter Selinger 2001-2019
</metadata>
<g transform="translate(0.000000,31.000000) scale(0.100000,-0.100000)"
fill="#000000" stroke="none">
<path d="M215 300 l-6 -10 6 -11 7 -10 -12 -30 -13 -29 -22 -6 -23 -6 -19 4
-18 3 -3 43 -3 43 -52 -3 -52 -3 -3 -36 -3 -35 11 -28 10 -28 38 4 37 3 0 -25
0 -25 -30 0 -30 0 -12 -8 -13 -8 0 -50 0 -49 145 0 145 0 -6 28 -6 27 -5 18
-5 18 -16 -6 -15 -6 -9 13 -8 13 0 33 0 32 13 1 12 1 17 -1 17 -2 10 20 11 20
0 39 0 40 -27 6 -28 7 -17 5 -16 5 -7 -11z"/>
</g>
</svg>
