<?xml version="1.0" standalone="no"?>
<!DOCTYPE svg PUBLIC "-//W3C//DTD SVG 20010904//EN"
 "http://www.w3.org/TR/2001/REC-SVG-20010904/DTD/svg10.dtd">
<svg version="1.0" xmlns="http://www.w3.org/2000/svg"
 width="42.000000pt" height="48.000000pt" viewBox="0 0 42.000000 48.000000"
 preserveAspectRatio="xMidYMid meet">
<metadata>
Created by potrace 1.16, written by Peter Selinger 2001-2019
</metadata>
<g transform="translate(0.000000,48.000000) scale(0.100000,-0.100000)"
fill="#000000" stroke="none">
<path d="M125 470 l-6 -10 6 -30 7 -30 -66 0 -66 0 0 -42 0 -43 13 -25 13 -25
34 0 35 0 3 -18 4 -18 -12 -14 -12 -15 -24 6 -23 6 -7 -28 -7 -27 -1 -36 -1
-36 43 -3 42 -3 0 -34 0 -35 24 -6 24 -6 27 4 28 3 11 20 11 20 9 7 9 6 44 7
43 6 0 65 0 64 33 0 32 0 13 9 13 8 -3 49 -3 49 -42 -3 -43 -2 0 44 0 44 -22
6 -23 6 -27 0 -26 0 -15 6 -15 5 6 21 5 20 -14 9 -14 9 -27 0 -27 0 -6 -10z"/>
</g>
</svg>
