<?xml version="1.0" standalone="no"?>
<!DOCTYPE svg PUBLIC "-//W3C//DTD SVG 20010904//EN"
 "http://www.w3.org/TR/2001/REC-SVG-20010904/DTD/svg10.dtd">
<svg version="1.0" xmlns="http://www.w3.org/2000/svg"
 width="40.000000pt" height="46.000000pt" viewBox="0 0 40.000000 46.000000"
 preserveAspectRatio="xMidYMid meet">
<metadata>
Created by potrace 1.16, written by Peter Selinger 2001-2019
</metadata>
<g transform="translate(0.000000,46.000000) scale(0.100000,-0.100000)"
fill="#000000" stroke="none">
<path d="M127 454 l-5 -6 5 -34 6 -34 -67 0 -66 0 0 -32 0 -33 13 -25 13 -25
34 0 35 0 3 -28 3 -28 -12 -15 -13 -16 -23 5 -23 4 -6 -21 -5 -21 -2 -30 -2
-30 45 -5 45 -5 -3 -29 -4 -29 14 -8 13 -9 25 0 26 0 11 11 11 11 -5 14 -5 13
61 12 60 11 3 67 3 66 19 -3 19 -3 24 6 24 6 -3 42 -3 42 -42 -3 -43 -4 0 45
0 45 -22 6 -23 6 -30 0 -30 0 -14 9 -14 9 7 18 7 17 -13 9 -13 8 -16 0 -16 0
-6 -6z"/>
</g>
</svg>
