<?xml version="1.0" standalone="no"?>
<!DOCTYPE svg PUBLIC "-//W3C//DTD SVG 20010904//EN"
 "http://www.w3.org/TR/2001/REC-SVG-20010904/DTD/svg10.dtd">
<svg version="1.0" xmlns="http://www.w3.org/2000/svg"
 width="32.000000pt" height="41.000000pt" viewBox="0 0 32.000000 41.000000"
 preserveAspectRatio="xMidYMid meet">
<metadata>
Created by potrace 1.16, written by Peter Selinger 2001-2019
</metadata>
<g transform="translate(0.000000,41.000000) scale(0.100000,-0.100000)"
fill="#000000" stroke="none">
<path d="M0 364 l0 -45 10 -20 11 -19 29 0 29 0 7 -11 6 -11 -16 -16 -17 -17
-27 0 -27 0 -3 -67 -3 -68 33 0 33 0 15 -10 15 -9 -4 -36 -3 -36 59 3 58 3 5
45 5 45 49 -3 48 -4 -7 54 -6 53 -5 18 -5 17 -25 0 -25 0 -6 16 -6 17 16 12
17 12 24 -4 24 -5 6 10 6 11 -6 55 -7 56 -63 0 -64 0 0 -39 0 -39 -16 -6 -17
-6 -13 11 -14 11 0 34 0 34 -60 0 -60 0 0 -46z"/>
</g>
</svg>
