<?xml version="1.0" standalone="no"?>
<!DOCTYPE svg PUBLIC "-//W3C//DTD SVG 20010904//EN"
 "http://www.w3.org/TR/2001/REC-SVG-20010904/DTD/svg10.dtd">
<svg version="1.0" xmlns="http://www.w3.org/2000/svg"
 width="35.000000pt" height="52.000000pt" viewBox="0 0 35.000000 52.000000"
 preserveAspectRatio="xMidYMid meet">
<metadata>
Created by potrace 1.16, written by Peter Selinger 2001-2019
</metadata>
<g transform="translate(0.000000,52.000000) scale(0.100000,-0.100000)"
fill="#000000" stroke="none">
<path d="M122 508 l-12 -12 0 -41 0 -42 -55 5 -55 4 0 -49 0 -49 16 -22 15
-22 25 0 24 0 0 -10 0 -10 -20 0 -20 0 -9 -23 -9 -23 -7 -57 -7 -57 37 0 36 0
18 -10 18 -9 -5 -27 -5 -27 18 -14 19 -13 26 0 26 0 12 12 12 12 0 17 0 18 59
17 59 16 7 68 7 69 -7 10 -6 11 -38 0 -38 0 -6 7 -7 6 11 14 11 13 35 0 34 0
-3 63 -3 62 -65 5 -65 5 -3 25 -3 25 -4 23 -5 22 -28 0 -28 0 -12 -12z"/>
</g>
</svg>
