<?xml version="1.0" standalone="no"?>
<!DOCTYPE svg PUBLIC "-//W3C//DTD SVG 20010904//EN"
 "http://www.w3.org/TR/2001/REC-SVG-20010904/DTD/svg10.dtd">
<svg version="1.0" xmlns="http://www.w3.org/2000/svg"
 width="47.000000pt" height="41.000000pt" viewBox="0 0 47.000000 41.000000"
 preserveAspectRatio="xMidYMid meet">
<metadata>
Created by potrace 1.16, written by Peter Selinger 2001-2019
</metadata>
<g transform="translate(0.000000,41.000000) scale(0.100000,-0.100000)"
fill="#000000" stroke="none">
<path d="M223 402 l-11 -7 2 -40 1 -40 -69 -3 -68 -3 6 -30 6 -31 -6 -24 -6
-24 -33 0 -34 0 -6 -21 -7 -20 18 -20 18 -20 20 3 21 3 3 -50 3 -50 16 -12 17
-13 32 0 32 0 12 15 12 14 -7 11 -7 11 12 14 12 15 34 0 33 0 -5 -15 -6 -15
24 -8 23 -9 36 -12 35 -11 11 0 10 0 16 60 17 59 15 -5 15 -6 0 41 0 41 -35 0
-35 0 -2 23 -1 22 -1 30 -1 30 -61 6 -60 6 -12 6 -11 7 6 34 5 33 -14 6 -15 5
-10 -6z"/>
</g>
</svg>
