<?xml version="1.0" standalone="no"?>
<!DOCTYPE svg PUBLIC "-//W3C//DTD SVG 20010904//EN"
 "http://www.w3.org/TR/2001/REC-SVG-20010904/DTD/svg10.dtd">
<svg version="1.0" xmlns="http://www.w3.org/2000/svg"
 width="44.000000pt" height="50.000000pt" viewBox="0 0 44.000000 50.000000"
 preserveAspectRatio="xMidYMid meet">
<metadata>
Created by potrace 1.16, written by Peter Selinger 2001-2019
</metadata>
<g transform="translate(0.000000,50.000000) scale(0.100000,-0.100000)"
fill="#000000" stroke="none">
<path d="M235 476 l-16 -24 3 -29 3 -28 -20 1 -20 1 -43 7 -42 8 0 -61 0 -61
-38 0 -38 0 -12 -12 -12 -12 0 -23 0 -23 20 -20 20 -20 24 0 24 0 6 -16 6 -16
0 -38 0 -38 60 5 60 6 0 -30 0 -31 14 -11 15 -12 33 3 33 3 3 43 3 43 59 -7
58 -6 -6 68 -5 69 -13 12 -13 13 -33 -2 -33 -3 0 15 0 15 47 3 47 3 7 33 6 33
-4 24 -3 24 -25 -1 -25 -2 -36 -7 -36 -7 1 52 1 52 -19 14 -20 14 -13 0 -13 0
-15 -24z"/>
</g>
</svg>
