<?xml version="1.0" standalone="no"?>
<!DOCTYPE svg PUBLIC "-//W3C//DTD SVG 20010904//EN"
 "http://www.w3.org/TR/2001/REC-SVG-20010904/DTD/svg10.dtd">
<svg version="1.0" xmlns="http://www.w3.org/2000/svg"
 width="37.000000pt" height="51.000000pt" viewBox="0 0 37.000000 51.000000"
 preserveAspectRatio="xMidYMid meet">
<metadata>
Created by potrace 1.16, written by Peter Selinger 2001-2019
</metadata>
<g transform="translate(0.000000,51.000000) scale(0.100000,-0.100000)"
fill="#000000" stroke="none">
<path d="M135 500 l-7 -11 4 -37 3 -37 -58 -3 -58 -3 -9 -25 -10 -25 0 -39 0
-39 43 -3 42 -3 0 -20 0 -20 -43 -3 -42 -3 0 -70 0 -69 48 -1 47 0 19 -8 20
-8 0 -34 1 -34 31 -3 31 -3 17 16 16 16 0 31 0 30 57 -4 58 -3 13 40 13 39 -3
31 -3 30 -44 -3 -43 -3 -14 12 -14 11 0 9 0 9 29 0 30 0 15 16 16 15 0 59 0
59 -58 16 -57 16 -12 4 -11 4 5 21 6 22 -14 9 -14 9 -22 0 -22 0 -6 -10z"/>
</g>
</svg>
