<?xml version="1.0" standalone="no"?>
<!DOCTYPE svg PUBLIC "-//W3C//DTD SVG 20010904//EN"
 "http://www.w3.org/TR/2001/REC-SVG-20010904/DTD/svg10.dtd">
<svg version="1.0" xmlns="http://www.w3.org/2000/svg"
 width="32.000000pt" height="41.000000pt" viewBox="0 0 32.000000 41.000000"
 preserveAspectRatio="xMidYMid meet">
<metadata>
Created by potrace 1.16, written by Peter Selinger 2001-2019
</metadata>
<g transform="translate(0.000000,41.000000) scale(0.100000,-0.100000)"
fill="#000000" stroke="none">
<path d="M0 355 l0 -55 34 0 35 0 15 -21 15 -21 -8 -22 -8 -21 -29 0 -29 0 -6
-30 -7 -30 -1 -32 -1 -33 40 0 40 0 0 -33 0 -33 12 -12 12 -12 38 0 37 0 11
19 10 20 0 25 0 26 51 0 51 0 -6 38 -7 37 -5 29 -6 28 -29 -6 -29 -5 -10 19
-11 20 11 21 11 20 46 -7 46 -7 -6 63 -7 63 -4 4 -4 4 -61 -7 -61 -7 0 -29 0
-29 -16 -6 -16 -6 -9 14 -9 14 0 28 0 27 -65 0 -65 0 0 -55z"/>
</g>
</svg>
