<?xml version="1.0" standalone="no"?>
<!DOCTYPE svg PUBLIC "-//W3C//DTD SVG 20010904//EN"
 "http://www.w3.org/TR/2001/REC-SVG-20010904/DTD/svg10.dtd">
<svg version="1.0" xmlns="http://www.w3.org/2000/svg"
 width="47.000000pt" height="33.000000pt" viewBox="0 0 47.000000 33.000000"
 preserveAspectRatio="xMidYMid meet">
<metadata>
Created by potrace 1.16, written by Peter Selinger 2001-2019
</metadata>
<g transform="translate(0.000000,33.000000) scale(0.100000,-0.100000)"
fill="#000000" stroke="none">
<path d="M80 292 l0 -38 -12 -16 -13 -17 -25 -3 -25 -3 0 -35 0 -35 22 -3 22
-3 10 -50 11 -50 0 -19 0 -19 53 5 52 5 24 5 23 5 -5 24 -4 25 13 11 14 11 2
-8 1 -9 1 -35 1 -35 64 0 64 0 8 15 7 15 9 50 8 50 24 -3 24 -4 8 14 9 13 0
33 0 33 -37 -3 -38 -3 -3 54 -3 53 -50 -6 -49 -7 -16 -6 -15 -5 3 -22 3 -21
-25 0 -25 0 -5 35 -5 35 -62 3 -63 3 0 -39z"/>
</g>
</svg>
