<?xml version="1.0" standalone="no"?>
<!DOCTYPE svg PUBLIC "-//W3C//DTD SVG 20010904//EN"
 "http://www.w3.org/TR/2001/REC-SVG-20010904/DTD/svg10.dtd">
<svg version="1.0" xmlns="http://www.w3.org/2000/svg"
 width="40.000000pt" height="38.000000pt" viewBox="0 0 40.000000 38.000000"
 preserveAspectRatio="xMidYMid meet">
<metadata>
Created by potrace 1.16, written by Peter Selinger 2001-2019
</metadata>
<g transform="translate(0.000000,38.000000) scale(0.100000,-0.100000)"
fill="#000000" stroke="none">
<path d="M90 336 l0 -44 -5 -14 -6 -14 -28 4 -29 4 -12 -22 -12 -22 18 -19 17
-19 40 0 40 0 -7 -54 -6 -55 37 -3 38 -3 0 -27 -1 -27 22 -12 22 -12 27 7 27
7 -4 24 -5 24 14 5 15 6 38 0 38 0 12 15 12 14 -9 53 -8 53 -30 0 -30 0 0 30
0 30 35 0 35 0 8 12 7 12 -6 41 -7 42 -45 -7 -45 -7 -13 -5 -13 -5 5 -13 6
-13 -21 -12 -21 -11 -35 7 -35 6 6 23 6 23 -20 11 -21 11 -25 0 -26 0 0 -44z"/>
</g>
</svg>
