<?xml version="1.0" standalone="no"?>
<!DOCTYPE svg PUBLIC "-//W3C//DTD SVG 20010904//EN"
 "http://www.w3.org/TR/2001/REC-SVG-20010904/DTD/svg10.dtd">
<svg version="1.0" xmlns="http://www.w3.org/2000/svg"
 width="42.000000pt" height="47.000000pt" viewBox="0 0 42.000000 47.000000"
 preserveAspectRatio="xMidYMid meet">
<metadata>
Created by potrace 1.16, written by Peter Selinger 2001-2019
</metadata>
<g transform="translate(0.000000,47.000000) scale(0.100000,-0.100000)"
fill="#000000" stroke="none">
<path d="M134 443 l-6 -28 -4 -14 -4 -14 -55 7 -55 6 0 -71 0 -71 37 4 38 3 3
-23 3 -23 -23 6 -23 6 -16 -13 -17 -13 -5 -67 -5 -67 57 -3 56 -3 -3 -14 -3
-13 6 -20 7 -19 56 3 57 3 4 20 3 20 12 7 11 8 35 0 35 0 11 8 10 7 13 59 13
58 19 5 19 5 0 38 0 38 -15 12 -14 12 -19 -6 -20 -7 -6 23 -6 23 0 27 0 28
-22 5 -23 5 -30 2 -30 3 -5 30 -5 30 -42 3 -42 3 -7 -28z"/>
</g>
</svg>
