<?xml version="1.0" standalone="no"?>
<!DOCTYPE svg PUBLIC "-//W3C//DTD SVG 20010904//EN"
 "http://www.w3.org/TR/2001/REC-SVG-20010904/DTD/svg10.dtd">
<svg version="1.0" xmlns="http://www.w3.org/2000/svg"
 width="34.000000pt" height="51.000000pt" viewBox="0 0 34.000000 51.000000"
 preserveAspectRatio="xMidYMid meet">
<metadata>
Created by potrace 1.16, written by Peter Selinger 2001-2019
</metadata>
<g transform="translate(0.000000,51.000000) scale(0.100000,-0.100000)"
fill="#000000" stroke="none">
<path d="M110 495 l-12 -14 7 -30 6 -30 -53 -3 -53 -3 -3 -19 -4 -18 7 -44 6
-43 32 -3 32 -3 0 -30 0 -30 -25 0 -24 0 -9 -49 -8 -49 5 -13 5 -13 43 -3 43
-3 3 -35 4 -35 10 -12 10 -13 33 0 33 0 16 6 16 6 0 24 0 23 38 10 38 11 16
12 16 13 -6 65 -7 65 -32 1 -31 0 -16 13 -16 13 6 10 6 9 41 -3 42 -3 3 76 3
76 -51 2 -51 1 -10 5 -9 6 6 24 6 23 -20 11 -21 11 -29 0 -30 0 -12 -15z"/>
</g>
</svg>
