<?xml version="1.0" standalone="no"?>
<!DOCTYPE svg PUBLIC "-//W3C//DTD SVG 20010904//EN"
 "http://www.w3.org/TR/2001/REC-SVG-20010904/DTD/svg10.dtd">
<svg version="1.0" xmlns="http://www.w3.org/2000/svg"
 width="32.000000pt" height="49.000000pt" viewBox="0 0 32.000000 49.000000"
 preserveAspectRatio="xMidYMid meet">
<metadata>
Created by potrace 1.16, written by Peter Selinger 2001-2019
</metadata>
<g transform="translate(0.000000,49.000000) scale(0.100000,-0.100000)"
fill="#000000" stroke="none">
<path d="M113 479 l-11 -11 5 -34 6 -34 -51 0 -51 0 -6 -11 -7 -10 7 -46 6
-45 24 6 23 6 12 -14 11 -15 -3 -33 -3 -33 -25 0 -25 0 -7 -44 -7 -44 5 -8 5
-9 34 0 33 0 14 -5 14 -6 -4 -29 -4 -30 12 -15 12 -15 27 0 26 0 14 9 14 9 -6
16 -7 17 28 10 27 11 30 13 30 13 -5 58 -5 59 -31 -2 -31 -3 -18 20 -17 19 6
16 6 17 42 -4 43 -3 3 69 3 68 -9 -6 -8 -5 -50 7 -49 7 0 28 -1 28 -14 9 -15
10 -20 0 -21 0 -11 -11z"/>
</g>
</svg>
