<?xml version="1.0" standalone="no"?>
<!DOCTYPE svg PUBLIC "-//W3C//DTD SVG 20010904//EN"
 "http://www.w3.org/TR/2001/REC-SVG-20010904/DTD/svg10.dtd">
<svg version="1.0" xmlns="http://www.w3.org/2000/svg"
 width="30.000000pt" height="47.000000pt" viewBox="0 0 30.000000 47.000000"
 preserveAspectRatio="xMidYMid meet">
<metadata>
Created by potrace 1.16, written by Peter Selinger 2001-2019
</metadata>
<g transform="translate(0.000000,47.000000) scale(0.100000,-0.100000)"
fill="#000000" stroke="none">
<path d="M135 458 l-5 -13 3 -30 2 -30 -68 -3 -68 -3 3 -57 3 -57 37 -3 36 -3
6 -15 5 -14 -5 -15 -6 -15 -28 0 -29 0 -4 -7 -5 -8 -6 -55 -7 -55 61 3 60 4 0
-36 0 -37 16 -6 16 -6 27 9 26 10 0 24 0 25 48 3 47 3 0 37 0 37 -6 21 -6 22
-18 -5 -18 -5 -20 11 -21 11 -6 20 -7 21 13 15 12 15 36 -3 36 -3 3 55 3 55
-67 -3 -66 -4 7 31 6 30 -11 20 -11 21 -10 0 -10 0 -4 -12z"/>
</g>
</svg>
