<?xml version="1.0" standalone="no"?>
<!DOCTYPE svg PUBLIC "-//W3C//DTD SVG 20010904//EN"
 "http://www.w3.org/TR/2001/REC-SVG-20010904/DTD/svg10.dtd">
<svg version="1.0" xmlns="http://www.w3.org/2000/svg"
 width="41.000000pt" height="50.000000pt" viewBox="0 0 41.000000 50.000000"
 preserveAspectRatio="xMidYMid meet">
<metadata>
Created by potrace 1.16, written by Peter Selinger 2001-2019
</metadata>
<g transform="translate(0.000000,50.000000) scale(0.100000,-0.100000)"
fill="#000000" stroke="none">
<path d="M134 485 l-6 -15 6 -24 6 -24 -16 -6 -16 -6 -38 0 -38 0 -16 -6 -16
-6 0 -58 0 -58 16 -6 16 -6 29 0 29 0 0 -20 0 -20 -30 0 -29 0 -6 -37 -6 -38
-10 -23 -9 -23 0 -9 0 -10 65 0 65 0 0 -40 0 -40 27 -6 26 -7 16 10 16 10 3
25 3 26 55 7 54 6 -6 66 -7 66 35 -7 35 -6 12 14 12 15 -3 33 -3 33 -43 3 -43
3 7 55 6 54 -38 1 -39 1 -25 7 -25 7 3 23 3 22 -11 15 -12 14 -25 0 -24 0 -5
-15z"/>
</g>
</svg>
