<?xml version="1.0" standalone="no"?>
<!DOCTYPE svg PUBLIC "-//W3C//DTD SVG 20010904//EN"
 "http://www.w3.org/TR/2001/REC-SVG-20010904/DTD/svg10.dtd">
<svg version="1.0" xmlns="http://www.w3.org/2000/svg"
 width="49.000000pt" height="47.000000pt" viewBox="0 0 49.000000 47.000000"
 preserveAspectRatio="xMidYMid meet">
<metadata>
Created by potrace 1.16, written by Peter Selinger 2001-2019
</metadata>
<g transform="translate(0.000000,47.000000) scale(0.100000,-0.100000)"
fill="#000000" stroke="none">
<path d="M224 455 l-6 -15 6 -25 6 -25 -16 -7 -16 -6 -54 10 -53 9 2 -50 2
-51 -33 3 -33 4 -15 -12 -14 -12 0 -29 0 -28 17 -16 16 -17 23 5 23 4 5 -14 6
-15 0 -39 0 -39 48 0 47 0 11 -8 10 -7 0 -35 -1 -35 33 -3 33 -3 15 12 14 12
-5 18 -6 18 60 12 59 11 9 57 8 56 30 5 30 5 3 23 4 23 -12 15 -12 14 -35 0
-35 0 4 48 3 47 -10 1 -10 2 -25 -10 -24 -9 -24 6 -24 6 5 21 6 21 -11 21 -11
21 -11 7 -11 8 -13 0 -13 0 -5 -15z"/>
</g>
</svg>
