<?xml version="1.0" standalone="no"?>
<!DOCTYPE svg PUBLIC "-//W3C//DTD SVG 20010904//EN"
 "http://www.w3.org/TR/2001/REC-SVG-20010904/DTD/svg10.dtd">
<svg version="1.0" xmlns="http://www.w3.org/2000/svg"
 width="51.000000pt" height="49.000000pt" viewBox="0 0 51.000000 49.000000"
 preserveAspectRatio="xMidYMid meet">
<metadata>
Created by potrace 1.16, written by Peter Selinger 2001-2019
</metadata>
<g transform="translate(0.000000,49.000000) scale(0.100000,-0.100000)"
fill="#000000" stroke="none">
<path d="M227 483 l-7 -6 0 -40 0 -40 -42 7 -43 7 -24 6 -24 6 7 -52 7 -51
-39 0 -38 0 -12 -12 -12 -12 0 -35 0 -36 9 -13 8 -14 34 -7 34 -7 3 -46 3 -47
52 -3 52 -3 5 -40 5 -40 43 -3 43 -3 15 12 14 11 0 19 0 18 18 5 17 5 37 6 36
7 9 56 8 57 30 5 30 5 3 33 3 33 -12 15 -11 14 -36 0 -35 0 7 49 6 50 -10 6
-11 7 -34 -16 -33 -16 -16 6 -16 6 6 10 6 9 -6 24 -6 24 -16 15 -15 16 -23 0
-23 0 -6 -7z"/>
</g>
</svg>
