<?xml version="1.0" standalone="no"?>
<!DOCTYPE svg PUBLIC "-//W3C//DTD SVG 20010904//EN"
 "http://www.w3.org/TR/2001/REC-SVG-20010904/DTD/svg10.dtd">
<svg version="1.0" xmlns="http://www.w3.org/2000/svg"
 width="41.000000pt" height="41.000000pt" viewBox="0 0 41.000000 41.000000"
 preserveAspectRatio="xMidYMid meet">
<metadata>
Created by potrace 1.16, written by Peter Selinger 2001-2019
</metadata>
<g transform="translate(0.000000,41.000000) scale(0.100000,-0.100000)"
fill="#000000" stroke="none">
<path d="M133 398 l-11 -13 -4 -25 -3 -25 -51 -3 -52 -3 -6 -22 -6 -22 0 -42
0 -43 34 0 34 0 12 -15 12 -15 -5 -14 -6 -15 -28 -3 -28 -3 -9 -59 -9 -58 14
-9 14 -9 40 0 40 0 14 9 13 9 -7 41 -7 41 26 0 26 0 0 -29 0 -30 18 -4 17 -5
48 -12 48 -13 4 5 5 4 7 55 8 54 32 3 32 3 6 20 6 19 -6 19 -6 20 -37 3 -37 3
-3 57 -3 58 -59 -7 -59 -6 -3 44 -3 44 -26 3 -26 3 -10 -13z"/>
</g>
</svg>
