<?xml version="1.0" standalone="no"?>
<!DOCTYPE svg PUBLIC "-//W3C//DTD SVG 20010904//EN"
 "http://www.w3.org/TR/2001/REC-SVG-20010904/DTD/svg10.dtd">
<svg version="1.0" xmlns="http://www.w3.org/2000/svg"
 width="49.000000pt" height="39.000000pt" viewBox="0 0 49.000000 39.000000"
 preserveAspectRatio="xMidYMid meet">
<metadata>
Created by potrace 1.16, written by Peter Selinger 2001-2019
</metadata>
<g transform="translate(0.000000,39.000000) scale(0.100000,-0.100000)"
fill="#000000" stroke="none">
<path d="M230 356 l0 -34 -16 -6 -16 -6 -49 0 -50 0 6 -21 7 -21 -7 -35 -6
-35 -45 5 -44 5 -6 -24 -6 -23 7 -11 7 -12 31 5 31 4 13 -13 13 -13 0 -49 0
-50 14 -11 14 -12 49 3 48 3 0 40 0 40 29 3 28 4 -6 -10 -6 -10 6 -16 6 -16
17 0 16 -1 38 -13 38 -14 9 21 9 22 6 38 6 37 28 0 29 0 4 17 5 18 -4 13 -5
12 -31 0 -32 0 -13 9 -14 8 3 54 3 54 -39 15 -40 15 -13 9 -13 8 5 14 5 14
-34 0 -35 0 0 -34z"/>
</g>
</svg>
