<?xml version="1.0" standalone="no"?>
<!DOCTYPE svg PUBLIC "-//W3C//DTD SVG 20010904//EN"
 "http://www.w3.org/TR/2001/REC-SVG-20010904/DTD/svg10.dtd">
<svg version="1.0" xmlns="http://www.w3.org/2000/svg"
 width="44.000000pt" height="42.000000pt" viewBox="0 0 44.000000 42.000000"
 preserveAspectRatio="xMidYMid meet">
<metadata>
Created by potrace 1.16, written by Peter Selinger 2001-2019
</metadata>
<g transform="translate(0.000000,42.000000) scale(0.100000,-0.100000)"
fill="#000000" stroke="none">
<path d="M157 413 l-7 -6 0 -45 0 -45 -60 6 -60 5 0 -58 0 -59 17 -16 16 -17
29 6 29 6 -3 -18 -3 -17 -58 -3 -57 -3 0 -28 0 -28 6 -47 7 -46 65 0 65 0 13
17 13 18 1 18 0 17 26 0 25 0 -6 -21 -7 -20 19 -14 18 -14 59 -1 59 0 -7 33
-7 32 -6 27 -5 27 48 3 49 3 3 24 4 23 -7 25 -6 25 -25 -5 -25 -4 -9 18 -10
18 0 39 0 39 -55 1 -54 0 -9 6 -9 6 5 25 4 25 -12 15 -12 15 -28 0 -27 0 -6
-7z"/>
</g>
</svg>
