<?xml version="1.0" standalone="no"?>
<!DOCTYPE svg PUBLIC "-//W3C//DTD SVG 20010904//EN"
 "http://www.w3.org/TR/2001/REC-SVG-20010904/DTD/svg10.dtd">
<svg version="1.0" xmlns="http://www.w3.org/2000/svg"
 width="42.000000pt" height="40.000000pt" viewBox="0 0 42.000000 40.000000"
 preserveAspectRatio="xMidYMid meet">
<metadata>
Created by potrace 1.16, written by Peter Selinger 2001-2019
</metadata>
<g transform="translate(0.000000,40.000000) scale(0.100000,-0.100000)"
fill="#000000" stroke="none">
<path d="M157 393 l-7 -6 0 -43 0 -42 -19 -5 -19 -5 -41 8 -41 7 0 -48 0 -48
15 -15 16 -15 28 5 28 6 7 -17 6 -18 -11 -13 -11 -14 -56 0 -55 0 7 -47 7 -48
2 -17 1 -18 56 0 55 0 12 20 13 19 -6 16 -6 15 42 0 42 0 -4 -24 -5 -23 19
-12 18 -11 46 0 46 0 -6 17 -7 17 -6 43 -6 43 47 0 47 0 5 15 6 15 -6 25 -6
25 -24 -6 -24 -6 -11 20 -11 21 0 41 0 41 -18 -5 -17 -6 -45 8 -45 8 2 29 2
29 -11 13 -10 13 -18 0 -17 0 -6 -7z"/>
</g>
</svg>
