<?xml version="1.0" standalone="no"?>
<!DOCTYPE svg PUBLIC "-//W3C//DTD SVG 20010904//EN"
 "http://www.w3.org/TR/2001/REC-SVG-20010904/DTD/svg10.dtd">
<svg version="1.0" xmlns="http://www.w3.org/2000/svg"
 width="41.000000pt" height="42.000000pt" viewBox="0 0 41.000000 42.000000"
 preserveAspectRatio="xMidYMid meet">
<metadata>
Created by potrace 1.16, written by Peter Selinger 2001-2019
</metadata>
<g transform="translate(0.000000,42.000000) scale(0.100000,-0.100000)"
fill="#000000" stroke="none">
<path d="M112 412 l-13 -9 3 -34 3 -34 -52 -3 -53 -3 0 -69 0 -69 42 2 42 2 4
-19 4 -19 -14 -8 -13 -9 -21 0 -21 0 -7 -38 -6 -37 0 -26 0 -27 16 -6 16 -6
26 0 27 0 23 6 23 7 -3 41 -3 41 22 3 22 3 3 -28 3 -28 43 -14 42 -13 26 6 26
7 -7 27 -6 27 -5 16 -5 16 39 -1 39 -1 17 14 16 13 0 27 0 27 -12 12 -12 12
-32 0 -33 0 -3 53 -3 52 -45 3 -45 3 -12 10 -12 10 -3 32 -3 32 -35 3 -35 2
-13 -8z"/>
</g>
</svg>
