<?xml version="1.0" standalone="no"?>
<!DOCTYPE svg PUBLIC "-//W3C//DTD SVG 20010904//EN"
 "http://www.w3.org/TR/2001/REC-SVG-20010904/DTD/svg10.dtd">
<svg version="1.0" xmlns="http://www.w3.org/2000/svg"
 width="49.000000pt" height="40.000000pt" viewBox="0 0 49.000000 40.000000"
 preserveAspectRatio="xMidYMid meet">
<metadata>
Created by potrace 1.16, written by Peter Selinger 2001-2019
</metadata>
<g transform="translate(0.000000,40.000000) scale(0.100000,-0.100000)"
fill="#000000" stroke="none">
<path d="M207 393 l-7 -7 6 -33 6 -33 -61 0 -61 0 0 -41 0 -40 -11 -20 -10
-20 -32 3 -32 3 -3 -23 -4 -23 13 -15 13 -15 22 5 22 6 12 -15 12 -15 -4 -45
-3 -46 60 3 60 3 0 27 1 28 11 11 12 12 17 -7 17 -6 -6 -45 -7 -45 43 1 42 1
35 12 35 13 -4 4 -4 4 7 35 7 35 5 18 5 17 23 0 24 0 12 15 12 14 -4 18 -3 18
-35 1 -35 1 -12 2 -13 1 0 58 0 59 -60 18 -60 18 0 19 0 18 -28 0 -29 0 -6 -7z"/>
</g>
</svg>
