<?xml version="1.0" standalone="no"?>
<!DOCTYPE svg PUBLIC "-//W3C//DTD SVG 20010904//EN"
 "http://www.w3.org/TR/2001/REC-SVG-20010904/DTD/svg10.dtd">
<svg version="1.0" xmlns="http://www.w3.org/2000/svg"
 width="42.000000pt" height="48.000000pt" viewBox="0 0 42.000000 48.000000"
 preserveAspectRatio="xMidYMid meet">
<metadata>
Created by potrace 1.16, written by Peter Selinger 2001-2019
</metadata>
<g transform="translate(0.000000,48.000000) scale(0.100000,-0.100000)"
fill="#000000" stroke="none">
<path d="M220 452 l0 -30 -16 -6 -16 -6 -54 0 -54 0 2 -42 3 -43 -30 -3 -30
-4 -12 -10 -13 -10 0 -38 0 -38 14 -11 15 -12 18 3 18 3 8 -62 9 -61 53 5 54
6 3 -44 3 -44 29 -3 28 -4 22 6 23 6 11 25 12 26 0 20 0 20 50 -7 50 -7 0 9
-1 9 -17 64 -17 64 -20 11 -20 11 -4 2 -4 3 11 13 12 14 30 -5 31 -4 -3 63 -3
64 -48 7 -49 7 -6 6 -6 6 -1 22 0 22 -42 3 -43 3 0 -29z"/>
</g>
</svg>
