<?xml version="1.0" standalone="no"?>
<!DOCTYPE svg PUBLIC "-//W3C//DTD SVG 20010904//EN"
 "http://www.w3.org/TR/2001/REC-SVG-20010904/DTD/svg10.dtd">
<svg version="1.0" xmlns="http://www.w3.org/2000/svg"
 width="42.000000pt" height="43.000000pt" viewBox="0 0 42.000000 43.000000"
 preserveAspectRatio="xMidYMid meet">
<metadata>
Created by potrace 1.16, written by Peter Selinger 2001-2019
</metadata>
<g transform="translate(0.000000,43.000000) scale(0.100000,-0.100000)"
fill="#000000" stroke="none">
<path d="M286 421 l-7 -11 6 -32 6 -33 -14 -19 -14 -19 -17 6 -16 6 0 41 0 40
-75 0 -75 0 0 -7 0 -8 9 -37 9 -38 -29 0 -29 0 -20 -20 -20 -20 0 -22 0 -23 9
-14 9 -13 46 -5 46 -6 -6 -53 -7 -54 34 0 34 0 15 -10 15 -9 -3 -31 -4 -30 44
0 44 0 12 12 12 12 0 34 0 34 55 -7 56 -7 -3 69 -3 68 -21 0 -22 1 -15 13 -16
12 6 15 5 14 33 0 33 0 7 29 6 29 -7 37 -6 36 -23 9 -23 9 -35 6 -35 7 -6 -11z"/>
</g>
</svg>
