<?xml version="1.0" standalone="no"?>
<!DOCTYPE svg PUBLIC "-//W3C//DTD SVG 20010904//EN"
 "http://www.w3.org/TR/2001/REC-SVG-20010904/DTD/svg10.dtd">
<svg version="1.0" xmlns="http://www.w3.org/2000/svg"
 width="40.000000pt" height="41.000000pt" viewBox="0 0 40.000000 41.000000"
 preserveAspectRatio="xMidYMid meet">
<metadata>
Created by potrace 1.16, written by Peter Selinger 2001-2019
</metadata>
<g transform="translate(0.000000,41.000000) scale(0.100000,-0.100000)"
fill="#000000" stroke="none">
<path d="M287 404 l-5 -6 5 -33 5 -32 -12 -22 -11 -22 -27 3 -27 3 -3 43 -3
42 -64 0 -63 0 9 -37 9 -38 0 -7 0 -8 -30 0 -30 0 -20 -20 -20 -20 0 -12 0
-13 10 -15 9 -14 48 -2 48 -1 -2 -19 -3 -19 -6 -37 -7 -38 32 0 32 0 20 -11
20 -10 -6 -30 -7 -29 34 0 34 0 12 12 12 12 0 34 0 35 55 -6 56 -6 -3 57 -3
57 -21 -3 -20 -3 -18 20 -18 20 7 20 6 21 34 0 33 0 6 24 6 24 -6 32 -7 32
-21 7 -21 8 -26 6 -26 7 -6 -6z"/>
</g>
</svg>
