<?xml version="1.0" standalone="no"?>
<!DOCTYPE svg PUBLIC "-//W3C//DTD SVG 20010904//EN"
 "http://www.w3.org/TR/2001/REC-SVG-20010904/DTD/svg10.dtd">
<svg version="1.0" xmlns="http://www.w3.org/2000/svg"
 width="41.000000pt" height="43.000000pt" viewBox="0 0 41.000000 43.000000"
 preserveAspectRatio="xMidYMid meet">
<metadata>
Created by potrace 1.16, written by Peter Selinger 2001-2019
</metadata>
<g transform="translate(0.000000,43.000000) scale(0.100000,-0.100000)"
fill="#000000" stroke="none">
<path d="M214 397 l6 -34 -19 -17 -19 -18 -21 11 -20 11 6 31 6 30 -69 -3 -69
-3 -8 -64 -8 -64 13 -9 13 -8 33 0 33 0 -3 -17 -3 -17 -35 0 -35 -1 -3 -67 -3
-68 50 0 50 0 3 -42 3 -43 42 -3 42 -3 21 11 20 11 0 29 0 30 49 0 49 0 7 48
6 47 6 23 5 22 24 0 24 0 0 41 0 41 -24 -6 -25 -6 -15 22 -16 22 0 38 0 38
-26 10 -25 10 -36 0 -35 0 6 -33z"/>
</g>
</svg>
