<?xml version="1.0" standalone="no"?>
<!DOCTYPE svg PUBLIC "-//W3C//DTD SVG 20010904//EN"
 "http://www.w3.org/TR/2001/REC-SVG-20010904/DTD/svg10.dtd">
<svg version="1.0" xmlns="http://www.w3.org/2000/svg"
 width="41.000000pt" height="34.000000pt" viewBox="0 0 41.000000 34.000000"
 preserveAspectRatio="xMidYMid meet">
<metadata>
Created by potrace 1.16, written by Peter Selinger 2001-2019
</metadata>
<g transform="translate(0.000000,34.000000) scale(0.100000,-0.100000)"
fill="#000000" stroke="none">
<path d="M278 301 l4 -39 -12 -21 -11 -22 -27 3 -27 3 -1 33 -1 33 -11 11 -10
10 -46 5 -46 6 0 -56 0 -56 -36 -3 -37 -3 -11 -17 -11 -17 12 -12 12 -12 38
-1 38 -1 -3 -62 -3 -61 20 -7 20 -6 35 6 35 7 3 32 3 31 24 3 25 4 13 -18 13
-17 -6 -23 -6 -22 22 -7 22 -7 32 6 33 6 13 25 13 25 1 42 1 43 -37 -3 -38 -3
-20 11 -20 11 0 19 0 19 21 11 20 11 30 -10 29 -10 0 58 0 58 -39 11 -38 12
-19 0 -20 0 4 -39z"/>
</g>
</svg>
