<?xml version="1.0" standalone="no"?>
<!DOCTYPE svg PUBLIC "-//W3C//DTD SVG 20010904//EN"
 "http://www.w3.org/TR/2001/REC-SVG-20010904/DTD/svg10.dtd">
<svg version="1.0" xmlns="http://www.w3.org/2000/svg"
 width="39.000000pt" height="49.000000pt" viewBox="0 0 39.000000 49.000000"
 preserveAspectRatio="xMidYMid meet">
<metadata>
Created by potrace 1.16, written by Peter Selinger 2001-2019
</metadata>
<g transform="translate(0.000000,49.000000) scale(0.100000,-0.100000)"
fill="#000000" stroke="none">
<path d="M134 476 l-6 -16 4 -31 5 -32 -69 6 -68 6 0 -59 0 -60 23 -4 22 -5
25 2 24 2 4 -18 4 -18 -13 -15 -13 -15 -22 5 -23 6 -7 -12 -8 -12 -6 -43 -7
-42 14 -6 15 -5 24 0 25 0 21 -11 20 -11 -5 -27 -6 -27 7 -10 7 -10 18 -7 17
-7 21 21 20 20 -7 34 -6 35 62 0 62 0 -6 16 -6 16 -6 37 -6 38 30 -5 30 -4 22
22 21 21 -3 27 -3 27 -27 -3 -27 -3 -10 20 -11 20 0 33 0 33 -67 0 -68 0 0 40
0 40 -18 3 -17 3 -6 -15z"/>
</g>
</svg>
