<?xml version="1.0" standalone="no"?>
<!DOCTYPE svg PUBLIC "-//W3C//DTD SVG 20010904//EN"
 "http://www.w3.org/TR/2001/REC-SVG-20010904/DTD/svg10.dtd">
<svg version="1.0" xmlns="http://www.w3.org/2000/svg"
 width="44.000000pt" height="48.000000pt" viewBox="0 0 44.000000 48.000000"
 preserveAspectRatio="xMidYMid meet">
<metadata>
Created by potrace 1.16, written by Peter Selinger 2001-2019
</metadata>
<g transform="translate(0.000000,48.000000) scale(0.100000,-0.100000)"
fill="#000000" stroke="none">
<path d="M240 451 l0 -30 -22 -12 -21 -11 -48 5 -48 6 -3 -52 -3 -52 -30 2
-29 2 -18 -16 -18 -16 0 -25 0 -25 18 -13 17 -13 48 -1 47 0 -7 -27 -7 -28 -1
-30 0 -29 15 -3 15 -2 38 -6 39 -6 -7 -26 -6 -26 13 -8 13 -9 38 0 39 0 5 19
5 20 32 7 31 6 28 15 28 14 -6 37 -7 37 -9 32 -10 32 -32 3 -32 3 -3 17 -3 17
48 3 48 3 3 60 3 60 -28 16 -28 16 -37 7 -37 7 -3 22 -3 22 -32 3 -33 3 0 -30z"/>
</g>
</svg>
