<?xml version="1.0" standalone="no"?>
<!DOCTYPE svg PUBLIC "-//W3C//DTD SVG 20010904//EN"
 "http://www.w3.org/TR/2001/REC-SVG-20010904/DTD/svg10.dtd">
<svg version="1.0" xmlns="http://www.w3.org/2000/svg"
 width="31.000000pt" height="41.000000pt" viewBox="0 0 31.000000 41.000000"
 preserveAspectRatio="xMidYMid meet">
<metadata>
Created by potrace 1.16, written by Peter Selinger 2001-2019
</metadata>
<g transform="translate(0.000000,41.000000) scale(0.100000,-0.100000)"
fill="#000000" stroke="none">
<path d="M139 403 l-1 -8 1 -18 2 -17 -15 -15 -15 -15 -56 0 -56 0 3 -57 3
-58 34 -1 33 0 9 -16 9 -16 -15 -15 -15 -15 -21 5 -21 6 -9 -14 -9 -14 0 -55
0 -55 67 0 68 0 0 32 0 31 7 7 7 7 17 -6 17 -6 -6 -39 -5 -39 19 -5 20 -5 47
11 47 12 3 152 3 152 -38 10 -38 9 -20 4 -19 3 -6 25 -6 25 -22 3 -22 3 -1 -8z"/>
</g>
</svg>
