<?xml version="1.0" standalone="no"?>
<!DOCTYPE svg PUBLIC "-//W3C//DTD SVG 20010904//EN"
 "http://www.w3.org/TR/2001/REC-SVG-20010904/DTD/svg10.dtd">
<svg version="1.0" xmlns="http://www.w3.org/2000/svg"
 width="40.000000pt" height="38.000000pt" viewBox="0 0 40.000000 38.000000"
 preserveAspectRatio="xMidYMid meet">
<metadata>
Created by potrace 1.16, written by Peter Selinger 2001-2019
</metadata>
<g transform="translate(0.000000,38.000000) scale(0.100000,-0.100000)"
fill="#000000" stroke="none">
<path d="M120 365 l-12 -14 6 -10 6 -9 -6 -17 -7 -16 -53 7 -54 6 0 -145 0
-146 20 -11 20 -11 35 7 35 6 0 29 0 28 20 11 20 11 10 -6 10 -6 0 -24 0 -23
58 -10 57 -10 8 5 7 4 0 40 0 40 10 19 10 19 28 -5 28 -6 14 17 14 17 -21 18
-22 17 -24 -4 -23 -5 -13 16 -14 16 6 41 5 41 -34 -7 -35 -6 -20 6 -21 7 6 21
5 20 -10 19 -10 18 -23 0 -24 0 -12 -15z"/>
</g>
</svg>
