<?xml version="1.0" standalone="no"?>
<!DOCTYPE svg PUBLIC "-//W3C//DTD SVG 20010904//EN"
 "http://www.w3.org/TR/2001/REC-SVG-20010904/DTD/svg10.dtd">
<svg version="1.0" xmlns="http://www.w3.org/2000/svg"
 width="42.000000pt" height="40.000000pt" viewBox="0 0 42.000000 40.000000"
 preserveAspectRatio="xMidYMid meet">
<metadata>
Created by potrace 1.16, written by Peter Selinger 2001-2019
</metadata>
<g transform="translate(0.000000,40.000000) scale(0.100000,-0.100000)"
fill="#000000" stroke="none">
<path d="M122 388 l-12 -12 0 -27 0 -28 -55 6 -55 6 0 -156 0 -156 21 -12 21
-11 44 7 43 6 3 32 3 32 18 3 17 3 0 -24 0 -25 65 -11 66 -12 9 6 10 6 0 39 0
38 6 16 6 16 32 0 32 0 12 12 12 12 0 18 0 18 -25 16 -24 16 -19 -6 -19 -6
-13 14 -12 15 7 42 7 42 -42 -6 -42 -5 -13 4 -13 5 5 19 5 18 -11 21 -12 21
-32 0 -33 0 -12 -12z"/>
</g>
</svg>
