<?xml version="1.0" standalone="no"?>
<!DOCTYPE svg PUBLIC "-//W3C//DTD SVG 20010904//EN"
 "http://www.w3.org/TR/2001/REC-SVG-20010904/DTD/svg10.dtd">
<svg version="1.0" xmlns="http://www.w3.org/2000/svg"
 width="38.000000pt" height="46.000000pt" viewBox="0 0 38.000000 46.000000"
 preserveAspectRatio="xMidYMid meet">
<metadata>
Created by potrace 1.16, written by Peter Selinger 2001-2019
</metadata>
<g transform="translate(0.000000,46.000000) scale(0.100000,-0.100000)"
fill="#000000" stroke="none">
<path d="M117 454 l-7 -7 7 -25 6 -24 -14 -9 -14 -9 -47 0 -48 0 0 -55 0 -55
13 -1 12 -2 35 -1 35 -1 3 -18 4 -18 -12 -14 -12 -15 -24 0 -24 0 -6 -27 -6
-28 -8 -27 -8 -26 5 -6 6 -6 32 0 33 0 11 -14 12 -14 -7 -26 -6 -26 40 0 41 0
6 20 6 20 -6 20 -6 20 69 0 69 0 0 18 -1 17 2 38 2 37 23 0 23 0 12 12 12 12
0 27 0 28 -12 8 -13 8 -25 0 -25 0 -3 51 -3 52 -47 7 -47 6 -18 5 -18 6 3 21
3 22 -25 3 -26 3 -7 -7z"/>
</g>
</svg>
