<?xml version="1.0" standalone="no"?>
<!DOCTYPE svg PUBLIC "-//W3C//DTD SVG 20010904//EN"
 "http://www.w3.org/TR/2001/REC-SVG-20010904/DTD/svg10.dtd">
<svg version="1.0" xmlns="http://www.w3.org/2000/svg"
 width="43.000000pt" height="35.000000pt" viewBox="0 0 43.000000 35.000000"
 preserveAspectRatio="xMidYMid meet">
<metadata>
Created by potrace 1.16, written by Peter Selinger 2001-2019
</metadata>
<g transform="translate(0.000000,35.000000) scale(0.100000,-0.100000)"
fill="#000000" stroke="none">
<path d="M100 291 l0 -60 -47 -3 -48 -3 -3 -23 -4 -24 18 -19 18 -20 31 3 30
3 3 -50 3 -49 11 -13 10 -13 32 0 31 0 22 6 22 6 3 32 3 31 10 0 10 0 3 -42 3
-42 20 -6 19 -6 53 11 52 11 14 9 15 9 -12 26 -12 26 0 27 0 28 -12 12 -12 12
-24 0 -23 0 3 17 3 18 38 -3 37 -4 0 76 0 76 -14 0 -15 0 -5 -9 -6 -9 -45 -11
-45 -11 0 -14 0 -14 -16 -6 -16 -6 -23 6 -23 6 2 31 1 32 -57 3 -58 3 0 -60z"/>
</g>
</svg>
