<?xml version="1.0" standalone="no"?>
<!DOCTYPE svg PUBLIC "-//W3C//DTD SVG 20010904//EN"
 "http://www.w3.org/TR/2001/REC-SVG-20010904/DTD/svg10.dtd">
<svg version="1.0" xmlns="http://www.w3.org/2000/svg"
 width="39.000000pt" height="38.000000pt" viewBox="0 0 39.000000 38.000000"
 preserveAspectRatio="xMidYMid meet">
<metadata>
Created by potrace 1.16, written by Peter Selinger 2001-2019
</metadata>
<g transform="translate(0.000000,38.000000) scale(0.100000,-0.100000)"
fill="#000000" stroke="none">
<path d="M90 314 l0 -66 -34 6 -33 6 -12 -14 -12 -15 11 -21 12 -22 15 6 16 6
13 -11 14 -11 0 -30 0 -29 10 -20 11 -19 32 0 32 0 14 -9 13 -9 -6 -19 -6 -19
24 -13 24 -13 21 7 21 6 0 36 0 35 58 -4 57 -3 -1 48 -1 47 -2 13 -1 13 -35
-4 -34 -4 -12 26 -12 25 13 16 14 17 33 -7 33 -6 0 56 0 55 -37 0 -38 0 -14
-9 -14 -9 6 -9 6 -9 -9 -13 -8 -14 -38 -1 -39 -1 -5 35 -5 35 -47 3 -48 3 0
-67z"/>
</g>
</svg>
