<?xml version="1.0" standalone="no"?>
<!DOCTYPE svg PUBLIC "-//W3C//DTD SVG 20010904//EN"
 "http://www.w3.org/TR/2001/REC-SVG-20010904/DTD/svg10.dtd">
<svg version="1.0" xmlns="http://www.w3.org/2000/svg"
 width="46.000000pt" height="33.000000pt" viewBox="0 0 46.000000 33.000000"
 preserveAspectRatio="xMidYMid meet">
<metadata>
Created by potrace 1.16, written by Peter Selinger 2001-2019
</metadata>
<g transform="translate(0.000000,33.000000) scale(0.100000,-0.100000)"
fill="#000000" stroke="none">
<path d="M80 286 l0 -45 -19 -11 -20 -10 -20 0 -21 0 0 -31 0 -31 43 4 42 3
-2 -68 -1 -67 50 0 49 0 15 15 15 15 -6 20 -6 20 21 0 21 0 6 -16 6 -16 1 -32
1 -31 30 1 30 2 30 3 30 4 0 65 0 65 32 -2 32 -3 12 22 12 21 -19 14 -18 13
-15 -5 -14 -5 -18 5 -17 6 5 56 6 55 -34 -7 -34 -6 -17 -5 -17 -5 -3 -32 -3
-32 -24 -3 -23 -4 -24 6 -24 6 2 43 3 42 -47 3 -48 3 0 -45z"/>
</g>
</svg>
