<?xml version="1.0" standalone="no"?>
<!DOCTYPE svg PUBLIC "-//W3C//DTD SVG 20010904//EN"
 "http://www.w3.org/TR/2001/REC-SVG-20010904/DTD/svg10.dtd">
<svg version="1.0" xmlns="http://www.w3.org/2000/svg"
 width="48.000000pt" height="35.000000pt" viewBox="0 0 48.000000 35.000000"
 preserveAspectRatio="xMidYMid meet">
<metadata>
Created by potrace 1.16, written by Peter Selinger 2001-2019
</metadata>
<g transform="translate(0.000000,35.000000) scale(0.100000,-0.100000)"
fill="#000000" stroke="none">
<path d="M80 306 l0 -45 -19 -11 -20 -10 -20 0 -21 0 0 -40 0 -40 46 0 46 0
-7 -65 -7 -65 62 0 61 0 15 14 14 15 0 21 0 21 10 -6 10 -6 0 -39 0 -39 10 -6
11 -7 63 7 64 7 -2 66 -1 66 35 0 34 1 10 28 11 29 -20 14 -20 15 -20 -2 -20
-1 -10 1 -10 1 4 56 3 57 -47 -8 -48 -7 -13 -5 -14 -5 0 -29 0 -30 -15 -5 -15
-6 -23 6 -24 6 1 42 1 43 -57 3 -58 3 0 -45z"/>
</g>
</svg>
