<?xml version="1.0" standalone="no"?>
<!DOCTYPE svg PUBLIC "-//W3C//DTD SVG 20010904//EN"
 "http://www.w3.org/TR/2001/REC-SVG-20010904/DTD/svg10.dtd">
<svg version="1.0" xmlns="http://www.w3.org/2000/svg"
 width="32.000000pt" height="42.000000pt" viewBox="0 0 32.000000 42.000000"
 preserveAspectRatio="xMidYMid meet">
<metadata>
Created by potrace 1.16, written by Peter Selinger 2001-2019
</metadata>
<g transform="translate(0.000000,42.000000) scale(0.100000,-0.100000)"
fill="#000000" stroke="none">
<path d="M6 387 l-6 -33 6 -32 6 -32 34 0 34 0 0 -25 0 -25 -15 0 -14 0 -16
-52 -15 -52 0 -17 0 -18 43 -3 42 -3 5 -40 5 -40 28 -9 28 -10 27 15 27 15 0
29 0 30 10 7 10 8 33 0 32 0 0 44 0 44 -6 16 -6 16 -22 0 -22 0 -12 12 -12 12
0 18 0 18 13 1 12 1 30 1 30 2 3 63 3 62 -28 -1 -28 -1 -30 -7 -30 -6 0 -25 0
-25 -36 -3 -36 -3 5 30 4 31 -27 10 -26 10 -39 0 -38 0 -6 -33z"/>
</g>
</svg>
