<?xml version="1.0" standalone="no"?>
<!DOCTYPE svg PUBLIC "-//W3C//DTD SVG 20010904//EN"
 "http://www.w3.org/TR/2001/REC-SVG-20010904/DTD/svg10.dtd">
<svg version="1.0" xmlns="http://www.w3.org/2000/svg"
 width="39.000000pt" height="33.000000pt" viewBox="0 0 39.000000 33.000000"
 preserveAspectRatio="xMidYMid meet">
<metadata>
Created by potrace 1.16, written by Peter Selinger 2001-2019
</metadata>
<g transform="translate(0.000000,33.000000) scale(0.100000,-0.100000)"
fill="#000000" stroke="none">
<path d="M94 280 l7 -50 -13 -1 -13 -1 -29 -1 -29 -2 -11 -18 -11 -17 11 -18
12 -17 36 2 36 2 0 -65 0 -65 53 3 52 3 1 33 0 33 15 10 14 9 12 0 12 0 16
-16 16 -17 -1 -31 -2 -31 1 -12 1 -13 24 0 25 0 25 10 26 10 0 44 0 44 -6 15
-5 14 -23 -4 -23 -5 -16 17 -17 16 0 28 0 29 15 12 15 12 31 -4 31 -5 5 14 5
13 -6 36 -7 35 -52 -3 -52 -3 3 -22 3 -22 -11 -21 -11 -20 -28 0 -29 0 -12 15
-12 15 4 30 5 30 -50 0 -50 0 7 -50z"/>
</g>
</svg>
