<?xml version="1.0" standalone="no"?>
<!DOCTYPE svg PUBLIC "-//W3C//DTD SVG 20010904//EN"
 "http://www.w3.org/TR/2001/REC-SVG-20010904/DTD/svg10.dtd">
<svg version="1.0" xmlns="http://www.w3.org/2000/svg"
 width="42.000000pt" height="32.000000pt" viewBox="0 0 42.000000 32.000000"
 preserveAspectRatio="xMidYMid meet">
<metadata>
Created by potrace 1.16, written by Peter Selinger 2001-2019
</metadata>
<g transform="translate(0.000000,32.000000) scale(0.100000,-0.100000)"
fill="#000000" stroke="none">
<path d="M148 313 l-48 -4 0 -59 0 -59 -29 10 -30 10 -20 -11 -21 -11 0 -19 0
-19 20 -11 20 -11 38 3 37 3 -2 -49 -1 -48 -11 -11 -11 -11 0 -6 0 -5 61 -3
61 -3 -6 34 -6 34 14 12 15 12 28 -3 28 -3 -3 -27 -3 -26 8 -5 8 -5 51 -7 51
-7 9 49 8 48 1 9 0 10 -48 1 -48 1 -9 14 -10 15 0 13 0 12 20 20 20 20 30 0
31 0 -7 38 -7 37 -2 2 -1 3 -45 -13 -44 -13 3 -21 3 -21 -32 -7 -33 -7 -13 18
-13 18 0 33 0 33 -7 -2 -8 -2 -47 -3z"/>
</g>
</svg>
