<?xml version="1.0" standalone="no"?>
<!DOCTYPE svg PUBLIC "-//W3C//DTD SVG 20010904//EN"
 "http://www.w3.org/TR/2001/REC-SVG-20010904/DTD/svg10.dtd">
<svg version="1.0" xmlns="http://www.w3.org/2000/svg"
 width="44.000000pt" height="34.000000pt" viewBox="0 0 44.000000 34.000000"
 preserveAspectRatio="xMidYMid meet">
<metadata>
Created by potrace 1.16, written by Peter Selinger 2001-2019
</metadata>
<g transform="translate(0.000000,34.000000) scale(0.100000,-0.100000)"
fill="#000000" stroke="none">
<path d="M148 333 l-48 -4 0 -54 0 -54 -29 5 -29 6 -21 -11 -21 -12 0 -29 0
-29 21 -11 20 -11 37 3 37 2 -2 -39 -3 -39 -10 -10 -10 -10 0 -17 0 -16 71 -2
71 -1 -3 32 -3 33 8 13 7 12 20 0 19 0 0 -29 0 -30 8 -5 8 -5 60 -6 60 -7 12
61 13 61 -7 11 -6 11 -28 -5 -27 -6 -21 6 -21 5 -5 14 -6 14 20 20 20 20 31 0
31 0 -7 48 -7 47 -4 4 -4 4 -52 -14 -53 -14 0 -20 0 -20 -20 -8 -20 -8 -12 17
-13 18 0 33 0 33 -17 -2 -18 -2 -47 -3z"/>
</g>
</svg>
