<?xml version="1.0" standalone="no"?>
<!DOCTYPE svg PUBLIC "-//W3C//DTD SVG 20010904//EN"
 "http://www.w3.org/TR/2001/REC-SVG-20010904/DTD/svg10.dtd">
<svg version="1.0" xmlns="http://www.w3.org/2000/svg"
 width="43.000000pt" height="34.000000pt" viewBox="0 0 43.000000 34.000000"
 preserveAspectRatio="xMidYMid meet">
<metadata>
Created by potrace 1.16, written by Peter Selinger 2001-2019
</metadata>
<g transform="translate(0.000000,34.000000) scale(0.100000,-0.100000)"
fill="#000000" stroke="none">
<path d="M275 302 l6 -39 -14 -11 -14 -12 -11 13 -11 13 2 30 2 29 -72 3 -72
3 -3 -58 -3 -58 -19 3 -19 3 -23 -5 -24 -6 0 -38 0 -38 12 -12 12 -12 22 0 22
0 6 -16 6 -16 0 -26 0 -27 8 -12 7 -11 75 1 75 2 -2 38 -2 37 14 0 14 0 3 -37
3 -38 73 -3 72 -3 0 82 0 82 -34 -6 -35 -6 -12 15 -11 14 12 15 13 16 26 -6
26 -5 13 9 14 8 -7 55 -7 56 -37 6 -36 6 -38 0 -39 0 7 -38z"/>
</g>
</svg>
