<?xml version="1.0" standalone="no"?>
<!DOCTYPE svg PUBLIC "-//W3C//DTD SVG 20010904//EN"
 "http://www.w3.org/TR/2001/REC-SVG-20010904/DTD/svg10.dtd">
<svg version="1.0" xmlns="http://www.w3.org/2000/svg"
 width="41.000000pt" height="32.000000pt" viewBox="0 0 41.000000 32.000000"
 preserveAspectRatio="xMidYMid meet">
<metadata>
Created by potrace 1.16, written by Peter Selinger 2001-2019
</metadata>
<g transform="translate(0.000000,32.000000) scale(0.100000,-0.100000)"
fill="#000000" stroke="none">
<path d="M277 282 l5 -38 -17 -14 -17 -14 -16 11 -17 10 0 34 -1 34 -61 3 -62
3 -3 -58 -3 -58 -30 -1 -30 -1 -12 -1 -13 -2 0 -28 0 -28 12 -12 12 -12 22 0
22 0 6 -16 6 -16 0 -26 0 -27 8 -10 7 -10 65 0 65 0 -3 36 -3 36 14 6 14 5 13
-8 13 -8 1 -34 1 -33 63 -3 62 -3 0 70 0 70 -36 -2 -36 -2 -12 18 -11 17 11
18 11 17 37 1 36 1 5 5 5 5 -6 45 -6 46 -37 6 -36 6 -27 0 -26 0 5 -38z"/>
</g>
</svg>
