<?xml version="1.0" standalone="no"?>
<!DOCTYPE svg PUBLIC "-//W3C//DTD SVG 20010904//EN"
 "http://www.w3.org/TR/2001/REC-SVG-20010904/DTD/svg10.dtd">
<svg version="1.0" xmlns="http://www.w3.org/2000/svg"
 width="50.000000pt" height="34.000000pt" viewBox="0 0 50.000000 34.000000"
 preserveAspectRatio="xMidYMid meet">
<metadata>
Created by potrace 1.16, written by Peter Selinger 2001-2019
</metadata>
<g transform="translate(0.000000,34.000000) scale(0.100000,-0.100000)"
fill="#000000" stroke="none">
<path d="M90 282 l0 -59 -29 5 -29 4 -17 -26 -17 -25 7 -21 6 -20 20 0 19 0 9
-23 9 -24 7 -45 7 -45 49 -2 49 -1 25 10 25 10 0 35 0 35 9 0 10 0 3 -23 3
-22 46 -11 46 -12 21 -11 21 -11 10 0 11 0 0 44 0 44 6 16 6 16 28 0 28 0 11
14 12 15 -3 28 -3 28 -35 1 -35 1 -12 2 -13 1 0 60 0 60 -47 -6 -48 -5 -23 -5
-24 -5 6 -24 6 -24 -20 -6 -21 -7 -14 12 -15 12 0 25 0 24 -12 3 -13 4 -42 6
-43 6 0 -58z"/>
</g>
</svg>
