<?xml version="1.0" standalone="no"?>
<!DOCTYPE svg PUBLIC "-//W3C//DTD SVG 20010904//EN"
 "http://www.w3.org/TR/2001/REC-SVG-20010904/DTD/svg10.dtd">
<svg version="1.0" xmlns="http://www.w3.org/2000/svg"
 width="42.000000pt" height="41.000000pt" viewBox="0 0 42.000000 41.000000"
 preserveAspectRatio="xMidYMid meet">
<metadata>
Created by potrace 1.16, written by Peter Selinger 2001-2019
</metadata>
<g transform="translate(0.000000,41.000000) scale(0.100000,-0.100000)"
fill="#000000" stroke="none">
<path d="M155 401 l-50 -6 -3 -42 -3 -43 -33 0 -33 0 -16 -18 -17 -19 0 -15 0
-15 19 -17 19 -18 39 3 38 4 -1 -25 -1 -25 -7 -35 -7 -35 60 3 60 4 -2 -42 -1
-41 14 -9 15 -10 10 0 10 0 14 9 15 10 6 48 5 48 20 -2 20 -3 35 -6 35 -6 -3
62 -4 62 -27 -5 -28 -6 -12 12 -11 11 0 27 0 28 38 3 37 3 3 44 3 44 -9 9 -10
10 -51 -7 -50 -7 -3 -41 -3 -42 -32 -3 -32 -3 -7 26 -6 25 4 30 5 30 -6 -2 -6
-1 -50 -6z"/>
</g>
</svg>
