<svg baseProfile="full" height="1417" preserveAspectRatio="none" shape-rendering="geometricPrecision" version="1.1" viewBox="0,0,1890,1417" width="1890" xmlns="http://www.w3.org/2000/svg" xmlns:ev="http://www.w3.org/2001/xml-events" xmlns:xlink="http://www.w3.org/1999/xlink"><title>Jigsaw puzzle piece clips</title><desc>Created with the piecemaker. Piece count: 108</desc><defs /><g><g><rect fill="white" height="1417" width="1890" x="0" y="0" /></g></g><g><g><path d="M 0 0  L 157.500000 0  c -0.0,11.408314335963949 7.875,70.22395472156487 -20.41769389981839,59.202843610453755&#10;c -17.18941215344941,-9.446666666666667 -23.178950882762535,0 -23.178950882762535,19.519378611768474&#10;c 0,22.06198263824433 7.314949269561221,31.508649304910996 16.44371368834924,22.06198263824433&#10;c 20.475,-9.446666666666667 12.6,33.06333333333333 27.152931094231683,56.6602395839779 c 0.0,28.511172630003887 -7.875,72.67820876105064 -2.2962039547201045,61.65709764993952&#10;c 17.748588104658083,-9.446666666666667 53.372913494656984,0 53.372913494656984,17.065124572282706&#10;c 0,23.961125633918087 -19.911958995913093,33.40779230058475 -41.95596212566948,23.961125633918087&#10;c -20.475,-9.446666666666667 -12.6,33.06333333333333 -9.120747414267399,54.76109658830414 c -0.0,36.883223960576466 7.875,67.94388936268267 2.084481937892533,56.92277825157156&#10;c -44.8063827134231,-9.446666666666667 -45.1536868136209,0 -45.1536868136209,21.79944397065067&#10;c 0,18.284146367970393 10.80027678206957,27.73081303463706 11.412042394585438,18.284146367970393&#10;c 20.475,-9.446666666666667 12.6,33.06333333333333 31.65716248114293,60.438075854251835 c 0.0,42.506799102579976 -7.875,69.93941939248775 0.05959732003888048,58.91830828137663&#10;c 38.17272499889449,-9.446666666666667 46.93889870234319,0 46.93889870234319,19.803913940845597&#10;c 0,18.881273571014532 -9.44269566445792,28.327940237681197 -44.708203428272554,18.881273571014532&#10;c -20.475,-9.446666666666667 -12.6,33.06333333333333 -2.2902925941095162,59.8409486512077 c -0.0,36.219176969931816 7.875,65.11121192133085 -1.038327457487604,54.09010081021973&#10;c -21.036660083241408,-9.446666666666667 -51.770222786078335,0 -51.770222786078335,24.632121412002498&#10;c 0,18.029442400642182 7.784580233118413,27.476109067308848 23.804310756844846,18.029442400642182&#10;c 20.475,-9.446666666666667 12.6,33.06333333333333 29.004239486721094,60.69277982158005 c 0.0,11.04069237442977 -7.875,69.81948711039043 -1.625022164677223,58.798375999279315&#10;c 11.429461671170863,-9.446666666666667 39.93663823321722,0 39.93663823321722,19.923846222942913&#10;c 0,24.390360905278584 -2.932194291219575,33.83702757194525 -8.179049404542496,24.390360905278584&#10;c -20.475,-9.446666666666667 -12.6,33.06333333333333 -30.132566663997494,54.331861316943645 c 0.0,43.58106531389391 -7.875,70.20615995562957 19.29582149016722,59.18504884451846&#10;c 12.988746848416545,-9.446666666666667 19.12423899545704,0 19.12423899545704,19.537173377703766&#10;c 0,21.115608412611834 -10.337979919074085,30.5622750792785 -19.382679887818455,21.115608412611834&#10;c -20.475,-9.446666666666667 -12.6,33.06333333333333 -19.037380597805807,57.606613809610394 c 0.0,42.11839251732496 -7.875,78.41451490215677 30.984305297451108,67.39340379104566&#10;c 5.5107915916801495,-9.446666666666667 18.64588847690049,0 18.64588847690049,11.328818431176572&#10;c 0,12.009726019912861 -40.913339007978344,21.456392686579527 -48.75245955461776,12.009726019912861&#10;c -20.475,-9.446666666666667 -12.6,33.06333333333333 -0.8777342197338385,66.71249620230937 c 0.0,13.0136638760055 -7.875,77.15014481615084 31.095816193763543,66.12903370503973&#10;c 8.062128808558903,-9.446666666666667 9.664544877261594,0 9.664544877261594,12.593188517182497&#10;c 0,17.970054355969964 -12.4302709295116,27.41672102263663 -27.973216339450403,17.970054355969964&#10;c -20.475,-9.446666666666667 -12.6,33.06333333333333 -12.787144731574735,60.752167866252265 L 0 1417 " fill="none" stroke="black" stroke-width="0.1" style="vector-effect:non-scaling-stroke;" /></g><g><path d="M 0 0  L 315.000000 0  c 0.0,30.236410990035367 -7.875,71.39341996356237 9.140209291052093,60.372308852451255&#10;c 38.44693689892633,-9.446666666666667 42.11225590584756,0 42.11225590584756,18.349913369770974&#10;c 0,17.40314056671383 -21.43762243610009,26.849807233380496 -32.966073258754776,17.40314056671383&#10;c -20.475,-9.446666666666667 -12.6,33.06333333333333 -18.28639193814488,61.3190816555084 c 0.0,22.204869137197615 -7.875,66.33098216583775 21.11858683820169,55.309871054726635&#10;c 18.530595426847448,-9.446666666666667 22.791135303275635,0 22.791135303275635,23.412351167495594&#10;c 0,20.704788526043245 -3.62322038254061,30.15145519270991 -10.847053040603186,20.704788526043245&#10;c -20.475,-9.446666666666667 -12.6,33.06333333333333 -33.06266910087414,58.01743369617898 c 0.0,36.266978765768314 -7.875,72.5426972472274 10.20273263444684,61.52158613611628&#10;c 6.073536808717636,-9.446666666666667 28.15125400683779,0 28.15125400683779,17.200636086105952&#10;c 0,15.94361025318642 -26.154113366802857,25.390276919853086 -35.83712989881755,15.94361025318642&#10;c -20.475,-9.446666666666667 -12.6,33.06333333333333 -2.516856742467077,62.77861196903581 c 0.0,20.747549667163042 -7.875,70.38515330086405 12.99718799931074,59.36404218975294&#10;c 37.65677830254039,-9.446666666666667 40.17819142646711,0 40.17819142646711,19.358180032469292&#10;c 0,15.347878938536539 -7.950022481653117,24.794545605203204 -26.049245558102044,15.347878938536539&#10;c -20.475,-9.446666666666667 -12.6,33.06333333333333 -27.126133867675804,63.37434328368569 c 0.0,22.17234021705091 -7.875,75.35620304144021 17.101126897401176,64.3350919303291&#10;c 10.264422389863551,-9.446666666666667 24.89205028313207,0 24.89205028313207,14.38713029189313&#10;c 0,22.76779938838017 -8.04765351237495,32.214466055046834 -11.878784380248135,22.76779938838017&#10;c -20.475,-9.446666666666667 -12.6,33.06333333333333 -30.11439280028511,55.95442283384206 c 0.0,34.76740780425702 -7.875,67.84180635162718 31.35761203351717,56.82069524051607&#10;c 12.92054161643178,-9.446666666666667 17.64605598138563,0 17.64605598138563,21.901526981706155&#10;c 0,21.50014974904832 -36.622704324346664,30.946816415714984 -36.427678656847995,21.50014974904832&#10;c -20.475,-9.446666666666667 -12.6,33.06333333333333 -12.575989358054805,57.22207247317391 c -0.0,24.94996902439588 7.875,73.34064517479563 -25.582079327145475,62.319534063684515&#10;c -12.544806802353724,-9.446666666666667 -18.694404414748735,0 -18.694404414748735,16.402688158537714&#10;c 0,21.175181716094073 12.850566928739378,30.62184838276074 25.849339450369246,21.175181716094073&#10;c 20.475,-9.446666666666667 12.6,33.06333333333333 18.427144291524964,57.547040506128155 c 0.0,27.947439053798742 -7.875,73.46514094599677 2.366743964860378,62.444029834885654&#10;c 35.03429784886046,-9.446666666666667 41.63110665823167,0 41.63110665823167,16.278192387336574&#10;c 0,18.946800684859284 -44.77855861876283,28.39346735152595 -45.454070925104226,18.946800684859284&#10;c -20.475,-9.446666666666667 -12.6,33.06333333333333 1.4562203020121771,59.775421537362945 c -0.0,10.278503807000725 7.875,69.05744121050199 -19.09953683920615,58.036330099390874&#10;c -29.21740776005691,-9.446666666666667 -29.708847928396008,0 -29.708847928396008,20.685892122831355&#10;c 0,15.034547783391076 24.86175436739292,24.48121445005774 48.653599585221585,15.034547783391076&#10;c 20.475,-9.446666666666667 12.6,33.06333333333333 0.15478518238057148,63.68767443883115 L 0 1417 " fill="none" stroke="black" stroke-width="0.1" style="vector-effect:non-scaling-stroke;" /></g><g><path d="M 0 0  L 472.500000 0  c 0.0,22.542308496881095 -7.875,76.94974099591633 24.956603069628414,65.92862988480522&#10;c 17.472361050521158,-9.446666666666667 28.34352620873294,0 28.34352620873294,12.79359233741701&#10;c 0,16.27223192527353 -7.727376564674194,25.718898591940196 -27.137665151258034,16.27223192527353&#10;c -20.475,-9.446666666666667 -12.6,33.06333333333333 -26.16246412710332,62.4499902969487 c -0.0,15.582085388273594 7.875,70.86806914910383 -6.716138058578117,59.84695803799272&#10;c -9.269560419439523,-9.446666666666667 -43.656314656642124,0 -43.656314656642124,18.875264184229508&#10;c 0,22.536441235967104 49.102444419186554,31.98310790263377 51.48319233437651,22.536441235967104&#10;c 20.475,-9.446666666666667 12.6,33.06333333333333 -1.11073961915627,56.185780986255125 c -0.0,43.86692785198064 7.875,70.08990684867915 1.715405442581546,59.06879573756804&#10;c -34.45284061116615,-9.446666666666667 -40.76996021409897,0 -40.76996021409897,19.65342648465419&#10;c 0,17.475649082004907 6.684816459392532,26.922315748671572 8.501047045005738,17.475649082004907&#10;c 20.475,-9.446666666666667 12.6,33.06333333333333 30.553507726511686,61.24657314021732 c 0.0,14.642907886546725 -7.875,76.89273721412752 18.188465810372573,65.87162610301641&#10;c 19.874331528483673,-9.446666666666667 22.320842879210115,0 22.320842879210115,12.850596119205818&#10;c 0,12.722698465675109 -19.23831409555373,22.169365132341774 -21.335258425775677,12.722698465675109&#10;c -20.475,-9.446666666666667 -12.6,33.06333333333333 -19.17405026380701,65.99952375654712 c -0.0,28.196725296124985 7.875,66.28678991274938 -30.972531588653897,55.265678801638266&#10;c -22.33829726205188,-9.446666666666667 -22.20441878822233,0 -22.20441878822233,23.456543420583962&#10;c 0,21.120675928588895 14.42549958416109,30.56734259525556 45.415701600945546,21.120675928588895&#10;c 20.475,-9.446666666666667 12.6,33.06333333333333 7.761248775930682,57.601546293633334 c 0.0,41.243813182169546 -7.875,73.5902878276419 0.12620128163942262,62.569176716530784&#10;c 18.055850532784643,-9.446666666666667 39.32076894263353,0 39.32076894263353,16.153045505691445&#10;c 0,17.989716029604438 -6.81012746899597,27.436382696271103 -31.440330818130413,17.989716029604438&#10;c -20.475,-9.446666666666667 -12.6,33.06333333333333 -8.00663940614254,60.73250619261779 c 0.0,17.74588652167721 -7.875,73.84406729313652 26.277661212883668,62.8229561820254&#10;c 9.521055634162922,-9.446666666666667 11.57145947971701,0 11.57145947971701,15.899266040196828&#10;c 0,14.072454956492408 -6.8200953083176215,23.519121623159073 -19.09437510591036,14.072454956492408&#10;c -20.475,-9.446666666666667 -12.6,33.06333333333333 -18.75474558669032,64.64976726572982 c 0.0,24.813714589883517 -7.875,65.63131358313579 -2.279414396487296,54.610202472024675&#10;c 39.034819981400716,-9.446666666666667 47.35668581319904,0 47.35668581319904,24.112019750197554&#10;c 0,12.603677086113734 -9.050685439737924,22.0503437527804 -20.614716679354355,12.603677086113734&#10;c -20.475,-9.446666666666667 -12.6,33.06333333333333 -24.46255473735739,66.1185451361085 c -0.0,10.301476273097272 7.875,68.59307189844337 -12.935802569833836,57.57196078733226&#10;c -18.304624296817295,-9.446666666666667 -26.44662447937338,0 -26.44662447937338,21.15026143488997&#10;c 0,17.7192927419876 2.2198337194166085,27.165959408654267 9.538355790593233,17.7192927419876&#10;c 20.475,-9.446666666666667 12.6,33.06333333333333 29.844071258613983,61.00292948023463 L 0 1417 " fill="none" stroke="black" stroke-width="0.1" style="vector-effect:non-scaling-stroke;" /></g><g><path d="M 0 0  L 630.000000 0  c 0.0,30.104935119066518 -7.875,76.9143045342646 -0.13794662794357881,65.89319342315349&#10;c 11.923914703419268,-9.446666666666667 41.68714688853994,0 41.68714688853994,12.829028799068737&#10;c 0,14.758957182969198 -4.914268973177386,24.205623849635863 -7.375646201816032,14.758957182969198&#10;c -20.475,-9.446666666666667 -12.6,33.06333333333333 -34.17355405878033,63.96326503925303 c 0.0,19.405624042427572 -7.875,71.65741959890505 14.101145902470265,60.63630848779393&#10;c 14.372390137673298,-9.446666666666667 25.497357956549443,0 25.497357956549443,18.085913734428296&#10;c 0,15.669802615787859 -5.699868224170276,25.116469282454524 -9.312581242495693,15.669802615787859&#10;c -20.475,-9.446666666666667 -12.6,33.06333333333333 -30.285922616524015,63.05241960643437 c -0.0,29.757019234039063 7.875,75.7943174746281 2.5483989309605133,64.77320636351699&#10;c -51.521963122796905,-9.446666666666667 -51.7220623354921,0 -51.7220623354921,13.949015858705238&#10;c 0,11.860812649290168 18.41508319026546,21.307479315956833 32.70609860692774,11.860812649290168&#10;c 20.475,-9.446666666666667 12.6,33.06333333333333 16.467564797603842,66.86140957293206 c -0.0,15.915289620478493 7.875,69.28831357409103 -9.36560025773892,58.26720246297992&#10;c -22.79782042983494,-9.446666666666667 -34.60429347756757,0 -34.60429347756757,20.45501975924231&#10;c 0,20.9137583651125 6.942417145961219,30.360425031779165 29.580041422208808,20.9137583651125&#10;c 20.475,-9.446666666666667 12.6,33.06333333333333 14.389852313097684,57.80846385710973 c 0.0,28.575728643128354 -7.875,70.99383549019083 16.39996483327953,59.97272437907972&#10;c 7.915398756277932,-9.446666666666667 26.038669665242576,0 26.038669665242576,18.749497843142507&#10;c 0,18.326672201185957 -18.943630431471398,27.773338867852623 -44.118330541855244,18.326672201185957&#10;c -20.475,-9.446666666666667 -12.6,33.06333333333333 1.6796960433331378,60.39555002103627 c 0.0,37.33889071109021 -7.875,70.24526766306256 33.376821167176196,59.224156551951445&#10;c 6.313005772992623,-9.446666666666667 10.170396880592996,0 10.170396880592996,19.498065670270783&#10;c 0,14.429644734751747 -36.12311673632083,23.876311401418413 -44.14428689222828,14.429644734751747&#10;c -20.475,-9.446666666666667 -12.6,33.06333333333333 0.5970688444590877,64.29257748747048 c 0.0,33.645331230635215 -7.875,72.54679307828187 22.710393165417347,61.52568196717075&#10;c 22.097258087076092,-9.446666666666667 23.147220193512393,0 23.147220193512393,17.19654025505148&#10;c 0,22.71954655062008 -28.405982584500332,32.166213217286746 -35.158620675779645,22.71954655062008&#10;c -20.475,-9.446666666666667 -12.6,33.06333333333333 -10.698992683150095,56.00267567160215 c -0.0,31.243080364572542 7.875,74.50160459715094 -18.148325256486523,63.480493486039826&#10;c -21.08369483983171,-9.446666666666667 -25.6422434639828,0 -25.6422434639828,15.241728736182402&#10;c 0,12.776281911902984 34.144884879633956,22.22294857856965 41.42270182637945,12.776281911902984&#10;c 20.475,-9.446666666666667 12.6,33.06333333333333 2.3678668940898717,65.94594031031924 c -0.0,36.84048426271597 7.875,66.02690960317335 -2.455545560497864,55.00579849206223&#10;c -44.20925953808257,-9.446666666666667 -47.68898800183361,0 -47.68898800183361,23.716423730159995&#10;c 0,11.562795240030766 15.4072379030378,21.00946190669743 33.65988356245117,11.562795240030766&#10;c 20.475,-9.446666666666667 12.6,33.06333333333333 16.484649999880304,67.15942698219146 L 0 1417 " fill="none" stroke="black" stroke-width="0.1" style="vector-effect:non-scaling-stroke;" /></g><g><path d="M 0 0  L 787.500000 0  c -0.0,37.20454694627703 7.875,66.45729823019522 -14.633486032947914,55.43618711908411&#10;c -33.1718613139146,-9.446666666666667 -33.87558445876137,0 -33.87558445876137,23.28603510313812&#10;c 0,20.486553135623524 42.33816506443685,29.93321980229019 47.0140818993498,20.486553135623524&#10;c 20.475,-9.446666666666667 12.6,33.06333333333333 1.4949885923594834,58.235669086598705 c 0.0,25.336378744944696 -7.875,67.81800551034664 5.575526797239051,56.796894399235526&#10;c 24.078296900669166,-9.446666666666667 42.65147491686824,0 42.65147491686824,21.925327822986702&#10;c 0,21.20590667934168 -24.80387203986216,30.652573346008346 -27.866269862384556,21.20590667934168&#10;c -20.475,-9.446666666666667 -12.6,33.06333333333333 -20.360731851722733,57.51631554288055 c 0.0,23.94238498904112 -7.875,68.96338536205683 20.457270345971367,57.942274250945715&#10;c 10.051591399046025,-9.446666666666667 21.792206343331017,0 21.792206343331017,20.779947971276513&#10;c 0,11.410481986453277 -20.45784178701927,20.857148653119943 -27.93169726250288,11.410481986453277&#10;c -20.475,-9.446666666666667 -12.6,33.06333333333333 -14.317779426799504,67.31174023576895 c -0.0,16.854543048840195 7.875,70.16882663477169 -22.28956997365037,59.14771552366058&#10;c -11.719489791577637,-9.446666666666667 -19.37721422082893,0 -19.37721422082893,19.57450669856165&#10;c 0,21.653729231544034 12.285517444310251,31.1003958982107 14.490124686678037,21.653729231544034&#10;c 20.475,-9.446666666666667 12.6,33.06333333333333 27.17665950780126,57.068492990678195 c 0.0,26.634251509116194 -7.875,77.32903701661532 21.69116645310087,66.3079259055042&#10;c 6.089348839590329,-9.446666666666667 16.148847842642176,0 16.148847842642176,12.414296316718023&#10;c 0,11.691098448181691 -10.656782272457226,21.137765114848357 -23.714785868457483,11.691098448181691&#10;c -20.475,-9.446666666666667 -12.6,33.06333333333333 -14.125228427285563,67.03112377404054 c -0.0,25.71539089013082 7.875,74.11017750692669 -24.591012177576108,63.08906639581558&#10;c -13.432027599233884,-9.446666666666667 -19.516005817716252,0 -19.516005817716252,15.63315582640665&#10;c 0,17.658960875675703 27.12972812952669,27.10562754234237 45.26301571670289,17.658960875675703&#10;c 20.475,-9.446666666666667 12.6,33.06333333333333 -1.1559977214105288,61.063261346546525 c -0.0,19.359590172476867 7.875,67.70557472860335 -30.02845462583751,56.684463617492234&#10;c -2.543391980626677,-9.446666666666667 -8.781958512182925,0 -8.781958512182925,22.037758604729994&#10;c 0,18.97738897939938 17.545476594157517,28.424055646066044 20.149913189619657,18.97738897939938&#10;c 20.475,-9.446666666666667 12.6,33.06333333333333 18.66049994840078,59.74483324282285 c 0.0,16.534554055835752 -7.875,72.68201670831891 32.14194271654267,61.6609055972078&#10;c 11.744522498789399,-9.446666666666667 15.529833789620419,0 15.529833789620419,17.061316625014427&#10;c 0,20.32154539770748 -34.633841631783596,29.768212064374147 -43.474141714037756,20.32154539770748&#10;c -20.475,-9.446666666666667 -12.6,33.06333333333333 -4.197634792125335,58.40067682451475 c 0.0,11.752251772293945 -7.875,73.03934869241864 9.304928978359483,62.018237581307524&#10;c 14.95901313879976,-9.446666666666667 32.669109487203244,0 32.669109487203244,16.703984640914705&#10;c 0,12.111726454702179 -21.073849245253935,21.558393121368844 -31.65472983740949,12.111726454702179&#10;c -20.475,-9.446666666666667 -12.6,33.06333333333333 -10.319308628153237,66.61049576752005 L 0 1417 " fill="none" stroke="black" stroke-width="0.1" style="vector-effect:non-scaling-stroke;" /></g><g><path d="M 0 0  L 945.000000 0  c 0.0,21.477178088561235 -7.875,69.36213846573033 7.648183781646118,58.341027354619214&#10;c 22.53231291713111,-9.446666666666667 41.11543521921818,0 41.11543521921818,20.381194867603014&#10;c 0,14.68760647415911 -29.57739857488408,24.134273140825776 -45.35709600709736,14.68760647415911&#10;c -20.475,-9.446666666666667 -12.6,33.06333333333333 -3.4065229937669343,64.03461574806312 c 0.0,23.531703754279626 -7.875,66.55621405394906 10.910495582424637,55.535102942837945&#10;c 22.926079764921965,-9.446666666666667 31.68913005551304,0 31.68913005551304,23.187119279384284&#10;c 0,23.06898842661515 -11.955804074708269,32.515655093281815 -23.334717345237156,23.06898842661515&#10;c -20.475,-9.446666666666667 -12.6,33.06333333333333 -19.26490829270052,55.65323379560708 c -0.0,12.06913249342723 7.875,74.67382055172233 -9.036208794048662,63.65270944061121&#10;c -34.559403897845016,-9.446666666666667 -44.363239786596246,0 -44.363239786596246,15.069512781611017&#10;c 0,15.885586579705333 31.924619419327197,25.332253246371998 31.94162213670523,15.885586579705333&#10;c 20.475,-9.446666666666667 12.6,33.06333333333333 21.457826443939677,62.836635642516896 c -0.0,16.330756330743036 7.875,68.46292241263733 -5.366732353404576,57.44181130152621&#10;c -26.99967900549033,-9.446666666666667 -35.65586171637854,0 -35.65586171637854,21.28041092069602&#10;c 0,23.57620266131603 6.546399505616662,33.0228693279827 16.29702125482181,23.57620266131603&#10;c 20.475,-9.446666666666667 12.6,33.06333333333333 24.7255728149613,55.1460195609062 c 0.0,38.82387444663744 -7.875,76.13900319683601 9.636210121685707,65.1178920857249&#10;c 17.568327582282055,-9.446666666666667 38.337036132624256,0 38.337036132624256,13.604330136497325&#10;c 0,12.447789627021535 -13.904859366718817,21.8944562936882 -15.99031292794092,12.447789627021535&#10;c -20.475,-9.446666666666667 -12.6,33.06333333333333 -31.982933326369043,66.2744325952007 c -0.0,41.88949213499328 7.875,67.88681855704537 -19.616174978998647,56.86570744593426&#10;c -11.968285496571804,-9.446666666666667 -20.54594419206182,0 -20.54594419206182,21.856514776287966&#10;c 0,17.809194577202035 13.56456610690291,27.2558612438687 15.52723010851334,17.809194577202035&#10;c 20.475,-9.446666666666667 12.6,33.06333333333333 24.634889062547128,60.91302764502019 c -0.0,31.24937557139131 7.875,64.84132176174053 -34.17176885247818,53.82021065062941&#10;c -2.167306786401125,-9.446666666666667 -3.878007528874825,0 -3.878007528874825,24.902011571592816&#10;c 0,19.175223365394174 21.739189944593917,28.62189003206084 26.231641644829725,19.175223365394174&#10;c 20.475,-9.446666666666667 12.6,33.06333333333333 11.81813473652328,59.546998856828054 c 0.0,29.449684175444162 -7.875,75.58975961376674 24.601323378103835,64.56864850265563&#10;c 23.032407516287023,-9.446666666666667 27.066926595309667,0 27.066926595309667,14.153573719566594&#10;c 0,12.65038527292414 -32.016107779324074,22.097051939590806 -43.18177235346169,12.65038527292414&#10;c -20.475,-9.446666666666667 -12.6,33.06333333333333 -8.486477619951813,66.07183694929809 c 0.0,11.7097815219048 -7.875,75.14245112684567 -2.8812122960513458,64.12134001573456&#10;c 48.63106868007563,-9.446666666666667 51.60828771825678,0 51.60828771825678,14.600882206487668&#10;c 0,20.27558430670787 -11.608873946365872,29.722250973374535 -34.48524326508019,20.27558430670787&#10;c -20.475,-9.446666666666667 -12.6,33.06333333333333 -14.241832157125245,58.44663791551436 L 0 1417 " fill="none" stroke="black" stroke-width="0.1" style="vector-effect:non-scaling-stroke;" /></g><g><path d="M 0 0  L 1102.500000 0  c -0.0,40.9688041721452 7.875,71.56168402298671 -28.795469415093994,60.5405729118756&#10;c -12.487892035298552,-9.446666666666667 -19.49447174592726,0 -19.49447174592726,18.18164931034663&#10;c 0,12.634811266134435 16.576750456665927,22.0814779328011 19.580570918281854,12.634811266134435&#10;c 20.475,-9.446666666666667 12.6,33.06333333333333 28.7093702427394,66.0874109560878 c 0.0,40.41120327676781 -7.875,76.25965099814522 32.853094542162225,65.23853988703411&#10;c 8.862657262625476,-9.446666666666667 17.320420628390984,0 17.320420628390984,13.48368233518812&#10;c 0,17.979532504332624 -9.384701177276147,27.42619917099929 -26.524999433249757,17.979532504332624&#10;c -20.475,-9.446666666666667 -12.6,33.06333333333333 -23.648515737303452,60.742689717889604 c -0.0,40.900824576253775 7.875,66.66302115024695 -2.2733388762391766,55.64191003913584&#10;c -38.243157470060815,-9.446666666666667 -43.886833648599186,0 -43.886833648599186,23.08031218308639&#10;c 0,23.250454166887607 13.852372913315314,32.69712083355427 25.564540718099707,23.250454166887607&#10;c 20.475,-9.446666666666667 12.6,33.06333333333333 20.59563180673866,55.47176805533462 c -0.0,39.727890921090236 7.875,70.91708612897914 -27.458465263567412,59.895975017868025&#10;c -13.768595125108757,-9.446666666666667 -18.77682795019301,0 -18.77682795019301,18.826247204354203&#10;c 0,12.878644186749597 9.197191390497952,22.325310853416262 39.365485587764205,12.878644186749597&#10;c 20.475,-9.446666666666667 12.6,33.06333333333333 6.869807625996216,65.84357803547263 c 0.0,25.987376450721875 -7.875,73.57494960689725 7.9265897175169915,62.55383849578614&#10;c 22.54104761125836,-9.446666666666667 32.905576085110205,0 32.905576085110205,16.16838372643609&#10;c 0,13.689019743712862 -7.207630250645284,23.135686410379527 -10.038484737770634,13.689019743712862&#10;c -20.475,-9.446666666666667 -12.6,33.06333333333333 -30.79368106485656,65.03320247850937 c 0.0,17.39449212006802 -7.875,66.40451546423957 11.507499188571833,55.38340435312845&#10;c 7.133978579779697,-9.446666666666667 31.826808489497935,0 31.826808489497935,23.33881786909378&#10;c 0,19.026167696258696 -18.414084914403876,28.47283436292536 -43.70869206606188,19.026167696258696&#10;c -20.475,-9.446666666666667 -12.6,33.06333333333333 0.3743843879921087,59.69605452596353 c 0.0,23.778263781623988 -7.875,65.76244174594838 16.26375068645493,54.74133063483727&#10;c 16.860000544911106,-9.446666666666667 22.21934875354137,0 22.21934875354137,23.98089158738496&#10;c 0,17.70170160858271 -17.484831201878627,27.148368275249375 -23.727462217486025,17.70170160858271&#10;c -20.475,-9.446666666666667 -12.6,33.06333333333333 -14.755637222510277,61.02052061363952 c -0.0,23.157636290145707 7.875,73.22654604772198 -19.855128744299744,62.205434936610864&#10;c -10.230272801433145,-9.446666666666667 -19.515997044692217,0 -19.515997044692217,16.516787285611365&#10;c 0,23.39498908900356 13.023251322679554,32.841655755670224 30.064544109569468,23.39498908900356&#10;c 20.475,-9.446666666666667 12.6,33.06333333333333 9.306581679422493,55.32723313321867 c 0.0,8.070563553830368 -7.875,67.74299320485918 19.064987383054227,56.72188209374806&#10;c 12.299435798748075,-9.446666666666667 19.38557535776285,0 19.38557535776285,22.00034012847417&#10;c 0,18.33996006877274 -1.9156581437847402,27.786626735439405 -7.638025170333961,18.33996006877274&#10;c -20.475,-9.446666666666667 -12.6,33.06333333333333 -30.812537570483116,60.38226215344949 L 0 1417 " fill="none" stroke="black" stroke-width="0.1" style="vector-effect:non-scaling-stroke;" /></g><g><path d="M 0 0  L 1260.000000 0  c -0.0,12.504285962629703 7.875,66.32982413401916 -34.50513140230264,55.308713022908044&#10;c -12.415318591915042,-9.446666666666667 -12.639198190021027,0 -12.639198190021027,23.413509199314184&#10;c 0,11.048688447570044 38.77453036395594,20.49535511423671 43.38681618796331,11.048688447570044&#10;c 20.475,-9.446666666666667 12.6,33.06333333333333 3.7575134043603526,67.67353377465219 c -0.0,9.62934572544168 7.875,67.86090137134212 -11.921111994308717,56.83979026023101&#10;c -20.435015983278824,-9.446666666666667 -30.382777857857313,0 -30.382777857857313,21.882431961991216&#10;c 0,14.406151675054758 3.1490814694263594,23.852818341721424 9.302644977232966,14.406151675054758&#10;c 20.475,-9.446666666666667 12.6,33.06333333333333 33.001244874933064,64.31607054716747 c -0.0,24.176238127087604 7.875,66.81438553776928 0.978190217933133,55.79327442665817&#10;c -28.773439857839552,-9.446666666666667 -51.79164656228609,0 -51.79164656228609,22.928947795564056&#10;c 0,21.187906396701536 38.423467110908696,30.6345730633682 41.5257993015791,21.187906396701536&#10;c 20.475,-9.446666666666667 12.6,33.06333333333333 9.287657042773859,57.53431582552069 c -0.0,26.775389031677005 7.875,69.79272007003823 -31.544925908213898,58.77160895892711&#10;c -4.38371873018704,-9.446666666666667 -8.317812469198145,0 -8.317812469198145,19.950613263295118&#10;c 0,17.067511079018416 6.591596246370065,26.514177745685082 23.891251614399025,17.067511079018416&#10;c 20.475,-9.446666666666667 12.6,33.06333333333333 15.971486763013019,61.65471114320381 c 0.0,34.335931673047185 -7.875,73.23354501951124 0.8691022993893799,62.21243390840012&#10;c 38.89287120384683,-9.446666666666667 39.72285021413963,0 39.72285021413963,16.509788313822106&#10;c 0,13.440164419754524 -16.711072379980422,22.88683108642119 -28.43922852357252,13.440164419754524&#10;c -20.475,-9.446666666666667 -12.6,33.06333333333333 -12.152723989956495,65.2820578024677 c -0.0,19.73229141137063 7.875,74.60714580161545 -1.8688627458693057,63.58603469050433&#10;c -14.320509505925113,-9.446666666666667 -38.66090703882161,0 -38.66090703882161,15.136187531717901&#10;c 0,19.473009910879398 11.407075168603031,28.919676577546063 33.07669281678179,19.473009910879398&#10;c 20.475,-9.446666666666667 12.6,33.06333333333333 7.4530769679091335,59.24921231134283 c -0.0,8.261710535260162 7.875,76.01801558149195 -0.7935413125335833,64.99690447038084&#10;c -41.47558521270459,-9.446666666666667 -48.60379899667863,0 -48.60379899667863,13.725317751841388&#10;c 0,16.351743586960907 12.912914494978798,25.798410253627573 35.07748579996425,16.351743586960907&#10;c 20.475,-9.446666666666667 12.6,33.06333333333333 14.31985450924796,62.37047863526132 c 0.0,33.70451513049416 -7.875,78.12233220267089 2.7912852220206537,67.10122109155978&#10;c 36.43232359572096,-9.446666666666667 49.09883190673857,0 49.09883190673857,11.62100113066245&#10;c 0,17.851762311802815 -24.258143843501912,27.29842897846948 -39.79370889837403,17.851762311802815&#10;c -20.475,-9.446666666666667 -12.6,33.06333333333333 -12.096408230385194,60.87045991041941 c -0.0,33.55115984057294 7.875,72.72156313196467 -20.704668582363535,61.700452020853554&#10;c -12.500710117621013,-9.446666666666667 -18.976752607467173,0 -18.976752607467173,17.021770201368675&#10;c 0,13.559245673061852 14.58610189171563,23.005912339728518 19.297497199843345,13.559245673061852&#10;c 20.475,-9.446666666666667 12.6,33.06333333333333 20.383923989987363,65.16297654916038 L 0 1417 " fill="none" stroke="black" stroke-width="0.1" style="vector-effect:non-scaling-stroke;" /></g><g><path d="M 0 0  L 1417.500000 0  c 0.0,21.425238964845303 -7.875,64.73052023492875 27.111787756339673,53.709409123817636&#10;c 24.425716508314892,-9.446666666666667 25.68786028083536,0 25.68786028083536,25.012813098404592&#10;c 0,12.613259309731234 -29.97943477128408,22.0599259763979 -32.94009125078046,12.613259309731234&#10;c -20.475,-9.446666666666667 -12.6,33.06333333333333 -19.85955678639457,66.108962912491 c 0.0,20.424033158878448 -7.875,68.24480144774046 18.640422616519388,57.22369033662934&#10;c 15.470247426975728,-9.446666666666667 34.90186509954143,0 34.90186509954143,21.49853188559289&#10;c 0,19.531995468417236 -21.932823755048084,28.9786621350839 -44.93153589170168,19.531995468417236&#10;c -20.475,-9.446666666666667 -12.6,33.06333333333333 -8.610751824359141,59.19022675380499 c -0.0,16.170935727883087 7.875,69.30780508705135 -28.306214400697815,58.28669397594023&#10;c -8.758554754844734,-9.446666666666667 -13.04045140877042,0 -13.04045140877042,20.435528246281997&#10;c 0,23.764852899477432 31.447625723488468,33.2115195661441 37.25196516583155,23.764852899477432&#10;c 20.475,-9.446666666666667 12.6,33.06333333333333 4.094700643636685,54.957369322744796 c -0.0,16.29168453391417 7.875,76.22661342897634 0.28641740198586896,65.20550231786522&#10;c -37.15375637531373,-9.446666666666667 -47.47219490277701,0 -47.47219490277701,13.516719904357004&#10;c 0,21.918765657762023 37.369947075551394,31.36543232442869 45.432124545424735,21.918765657762023&#10;c 20.475,-9.446666666666667 12.6,33.06333333333333 1.7536529553664053,56.803456564460205 c 0.0,14.304671262738955 -7.875,68.24266665382235 10.942352331765964,57.221555542711236&#10;c 24.67692837363217,-9.446666666666667 34.75330213396934,0 34.75330213396934,21.500666679510992&#10;c 0,17.515656027452025 -12.279682733426604,26.96232269411869 -15.294937626021504,17.515656027452025&#10;c -20.475,-9.446666666666667 -12.6,33.06333333333333 -30.400716839713798,61.206566194770204 c 0.0,42.34296318741186 -7.875,66.79138490115828 19.994784709699296,55.77027379004716&#10;c 12.628462207579215,-9.446666666666667 30.686139513074437,0 30.686139513074437,22.951948432175065&#10;c 0,22.918173057307754 -16.163194726367152,32.36483972397442 -39.699142927981086,22.918173057307754&#10;c -20.475,-9.446666666666667 -12.6,33.06333333333333 -10.981781294792647,55.804049164914474 c -0.0,20.581580026594285 7.875,68.87094219423552 -8.99110025168276,57.84983108312441&#10;c -24.13087136607404,-9.446666666666667 -33.4047215259211,0 -33.4047215259211,20.87239113909782&#10;c 0,13.606988030621324 33.93917107872449,23.05365469728799 44.658691138275906,13.606988030621324&#10;c 20.475,-9.446666666666667 12.6,33.06333333333333 -2.262869360672049,65.1152341916009 c 0.0,37.10363269930247 -7.875,67.70623844321229 6.133752116351207,56.685127332101175&#10;c 14.050907984260656,-9.446666666666667 45.149396301969375,0 45.149396301969375,22.037094890121054&#10;c 0,22.765474166130176 -46.623817976212564,32.21214083279684 -52.791170478214816,22.765474166130176&#10;c -20.475,-9.446666666666667 -12.6,33.06333333333333 1.5080220598942375,55.95674805609205 c -0.0,22.149635656590082 7.875,77.7353854579096 -24.78126910274231,66.71427434679849&#10;c -22.306321608466774,-9.446666666666667 -24.732871577614443,0 -24.732871577614443,12.007947875423739&#10;c 0,24.866201350898876 44.55433649440268,34.31286801756554 47.310512533114185,24.866201350898876&#10;c 20.475,-9.446666666666667 12.6,33.06333333333333 2.2036281472425685,53.85602087132335 L 0 1417 " fill="none" stroke="black" stroke-width="0.1" style="vector-effect:non-scaling-stroke;" /></g><g><path d="M 0 0  L 1575.000000 0  c 0.0,16.330745278764734 -7.875,78.37740153194612 3.485267795335558,67.35629042083501&#10;c 25.948097374903412,-9.446666666666667 44.831844830891846,0 44.831844830891846,11.36593180138722&#10;c 0,11.891365809719048 -14.223760213386834,21.338032476385713 -45.53114742486727,11.891365809719048&#10;c -20.475,-9.446666666666667 -12.6,33.06333333333333 -2.785965201360135,66.83085641250318 c 0.0,12.027878225873613 -7.875,74.4713276352764 26.228830100831388,63.45021652416528&#10;c 11.226954940924765,-9.446666666666667 12.020792527026884,0 12.020792527026884,15.272005698056951&#10;c 0,11.713199388387736 -30.16649084561378,21.1598660550544 -32.541333967642196,11.713199388387736&#10;c -20.475,-9.446666666666667 -12.6,33.06333333333333 -5.708288660216077,67.00902283383449 c 0.0,41.69327386907969 -7.875,71.24312874793297 4.600750823592509,60.22201763682185&#10;c 34.86494156624818,-9.446666666666667 42.41660834062158,0 42.41660834062158,18.500204585400375&#10;c 0,15.093926604021334 -10.359736196151724,24.540593270688 -27.154892212141714,15.093926604021334&#10;c -20.475,-9.446666666666667 -12.6,33.06333333333333 -19.86246695207237,63.628295618200895 c -0.0,11.708406383312932 7.875,78.46299671773559 -26.588130337397985,67.44188560662448&#10;c -9.438219279689354,-9.446666666666667 -19.788961370766174,0 -19.788961370766174,11.280336615597747&#10;c 0,24.615109127955165 22.80253260508508,34.06177579462183 27.120895770668035,24.615109127955165&#10;c 20.475,-9.446666666666667 12.6,33.06333333333333 19.256195937496123,54.10711309426706 c -0.0,27.08202863776873 7.875,77.58878909866041 -16.04393253154599,66.5676779875493&#10;c -22.85700657746058,-9.446666666666667 -36.37686425011595,0 -36.37686425011595,12.154544234672926&#10;c 0,19.716579616746202 20.46216996649285,29.163246283412867 44.020642835999574,19.716579616746202&#10;c 20.475,-9.446666666666667 12.6,33.06333333333333 8.400153945662368,59.00564260547603 c -0.0,19.656898759144152 7.875,66.64715842558769 -23.875083515160732,55.62604731447657&#10;c -17.958259881569152,-9.446666666666667 -20.014556372252805,0 -20.014556372252805,23.096174907745656&#10;c 0,15.66968041538999 20.305365312852555,25.116347082056656 27.531803658166655,15.66968041538999&#10;c 20.475,-9.446666666666667 12.6,33.06333333333333 16.35783622924688,63.05254180683224 c -0.0,32.432621058697805 7.875,71.67309602650451 -1.1540947510691184,60.65198491539339&#10;c -20.565467704946652,-9.446666666666667 -46.619078958948364,0 -46.619078958948364,18.070237306828837&#10;c 0,12.656794417164605 8.748908938856477,22.10346108383127 25.66846941305042,12.656794417164605&#10;c 20.475,-9.446666666666667 12.6,33.06333333333333 22.10470429696706,66.06542780505762 c -0.0,26.467344946297658 7.875,72.16591752047874 -0.6525366213061156,61.14480640936763&#10;c -15.00989391153154,-9.446666666666667 -47.53979138659737,0 -47.53979138659737,17.577415812854596&#10;c 0,12.356989082162627 10.269258624086685,21.803655748829293 30.11468270142506,12.356989082162627&#10;c 20.475,-9.446666666666667 12.6,33.06333333333333 18.07764530647843,66.3652331400596 c -0.0,36.03910700993492 7.875,70.27394254045511 -12.662727188019621,59.252831429344&#10;c -6.1220904062466275,-9.446666666666667 -28.078541879552063,0 -28.078541879552063,19.46939079287823&#10;c 0,21.668918213231237 12.38250996949832,31.115584879897902 27.080965865666535,21.668918213231237&#10;c 20.475,-9.446666666666667 12.6,33.06333333333333 13.660303201905151,57.05330400899099 L 0 1417 " fill="none" stroke="black" stroke-width="0.1" style="vector-effect:non-scaling-stroke;" /></g><g><path d="M 0 0  L 1732.500000 0  c 0.0,37.30068124411098 -7.875,73.72213962860356 20.820010442599298,62.70102851749244&#10;c 18.10101838363878,-9.446666666666667 28.12616685472554,0 28.12616685472554,16.02119370472979&#10;c 0,23.21674466852835 -28.22143023871921,32.663411335195015 -37.832274669148006,23.21674466852835&#10;c -20.475,-9.446666666666667 -12.6,33.06333333333333 -11.113902628176831,55.50547755369388 c 0.0,38.11453857593688 -7.875,69.10688939168088 12.644152161621035,58.08577828056977&#10;c 22.981015171092196,-9.446666666666667 26.495705271959366,0 26.495705271959366,20.63644394165246&#10;c 0,23.038389293127892 -16.809963735800782,32.48505595979456 -25.017103287376628,23.038389293127892&#10;c -20.475,-9.446666666666667 -12.6,33.06333333333333 -14.122754146203775,55.683832929094336 c -0.0,34.346656539343336 7.875,75.10069512779644 -29.71900455610606,64.07958401668533&#10;c -5.941229829974623,-9.446666666666667 -13.959493586761933,0 -13.959493586761933,14.642638205536898&#10;c 0,24.042860808311687 32.55614946510196,33.48952747497835 35.626222551417925,24.042860808311687&#10;c 20.475,-9.446666666666667 12.6,33.06333333333333 8.05227559145007,54.67936141391054 c -0.0,14.08155326101299 7.875,73.16190439892698 2.5846080206000934,62.14079328781586&#10;c -21.854190483488498,-9.446666666666667 -49.919293568414645,0 -49.919293568414645,16.581428934406368&#10;c 0,17.631350296451785 9.136298103480915,27.07801696311845 22.5984765502116,17.631350296451785&#10;c 20.475,-9.446666666666667 12.6,33.06333333333333 24.73620899760295,61.09087192577044 c 0.0,34.88601439543336 -7.875,66.60523646413232 29.092716464050433,55.5841253530212&#10;c 11.388628725027063,-9.446666666666667 12.09928296730439,0 12.09928296730439,23.13809686920103&#10;c 0,23.40346431725564 -19.693839286511007,32.850130983922305 -41.44289045537028,23.40346431725564&#10;c -20.475,-9.446666666666667 -12.6,33.06333333333333 0.25089102401545915,55.31875790496659 c 0.0,11.362601531572594 -7.875,77.45944555964438 7.26815549888103,66.43833444853327&#10;c 22.520244572462104,-9.446666666666667 38.56215447341104,0 38.56215447341104,12.28388777368896&#10;c 0,18.126122615940872 -31.540543401368897,27.572789282607538 -36.11290302846467,18.126122615940872&#10;c -20.475,-9.446666666666667 -12.6,33.06333333333333 -9.717406943827399,60.596099606281356 c 0.0,11.49825245183373 -7.875,67.52217742989077 19.52086632878975,56.501066318779664&#10;c 5.414140098361356,-9.446666666666667 22.69658540835004,0 22.69658540835004,22.221155903442565&#10;c 0,22.44212080785256 -5.856339389413943,31.888787474519226 -12.414218702069014,22.44212080785256&#10;c -20.475,-9.446666666666667 -12.6,33.06333333333333 -29.803233035070775,56.28010141436967 c -0.0,41.109157224741374 7.875,74.07918164644718 0.9094455821961902,63.058070535336064&#10;c -11.049968873397207,-9.446666666666667 -50.62669572095203,0 -50.62669572095203,15.664151686886164&#10;c 0,12.139270047540009 18.537672784293942,21.585936714206674 36.57394579127915,12.139270047540009&#10;c 20.475,-9.446666666666667 12.6,33.06333333333333 13.143304347476686,66.58295217468222 c 0.0,40.175216839700134 -7.875,70.65744087521735 2.3510829573291647,59.63632976410623&#10;c 20.824323802536366,-9.446666666666667 48.40559908115851,0 48.40559908115851,19.085892458116&#10;c 0,16.78366994400021 -25.03499732784636,26.230336610666875 -26.028945057569725,16.78366994400021&#10;c -20.475,-9.446666666666667 -12.6,33.06333333333333 -24.72773698091795,61.93855227822202 L 0 1417 " fill="none" stroke="black" stroke-width="0.1" style="vector-effect:non-scaling-stroke;" /></g></g><g><g><path d="M 0 0  L 0 157.444444  c 23.222547535099554,0.0 70.96630792163333,-7.872222222222224 59.941307921633324,15.538862150543748&#10;c -9.45,8.752188765422371 0,29.956064744612227 18.808692078366676,29.956064744612227&#10;c 15.809982884830177,0 25.259982884830176,-14.661390888826961 15.809982884830177,-25.483967503637277&#10;c -9.45,-20.46777777777778 33.074999999999996,-12.595555555555556 62.94001711516982,-20.0109593915187 c 34.47352383827253,-0.0 66.5002792638799,7.872222222222224 55.4752792638799,-28.478411320471402&#10;c -9.45,-7.828452553025583 0,-16.53646414783219 23.274720736120102,-16.53646414783219&#10;c 18.20961733307665,0 27.65961733307665,13.060477603064049 18.20961733307665,36.21687543123106&#10;c -9.45,20.46777777777778 33.074999999999996,12.595555555555556 60.54038266692335,8.798000037072534 c 31.09276504295063,-0.0 71.50329241891697,7.872222222222224 60.47829241891697,-11.948529947537198&#10;c -9.45,-15.038190074223827 0,-27.975317448092383 18.271707581083028,-27.975317448092383&#10;c 21.53530166596194,0 30.985301665961938,10.89078075578832 21.53530166596194,28.147577039203316&#10;c -9.45,20.46777777777778 33.074999999999996,12.595555555555556 57.21469833403806,11.776270356426263 c 44.74955617487644,-0.0 70.8402018903733,7.872222222222224 59.815201890373295,-29.775583007075706&#10;c -9.45,-4.77754510248384 0,-16.777269645817473 18.934798109626705,-16.777269645817473&#10;c 20.13390379747375,0 29.58390379747375,10.866985351342626 20.13390379747375,35.77632862512279&#10;c -9.45,20.46777777777778 33.074999999999996,12.595555555555556 58.61609620252625,10.776524027770392 c 29.888026937131624,-0.0 64.75896214361383,7.872222222222224 53.73396214361382,-8.216837410867491&#10;c -9.45,-19.894419527874806 0,-34.880839237494826 25.016037856386177,-34.880839237494826&#10;c 24.810040813682306,0 34.26004081368231,15.197372428726757 24.810040813682306,31.54672649367066&#10;c -9.45,20.46777777777778 33.074999999999996,12.595555555555556 53.939959186317694,11.550950154691655 c 33.59248488517251,-0.0 75.61464270660491,7.872222222222224 64.5896427066049,-16.97976086258619&#10;c -9.45,-5.8446371950136475 0,-20.87482652188296 14.160357293395094,-20.87482652188296&#10;c 22.18886860100632,0 31.63886860100632,17.070635866127176 22.18886860100632,17.576822378936544&#10;c -9.45,20.46777777777778 33.074999999999996,12.595555555555556 56.56113139899368,20.277765005532604 c 44.592640981932554,0.0 73.98495145581782,-7.872222222222224 62.959951455817816,8.039451172986443&#10;c -9.45,8.660691218429484 0,31.027001859340277 15.790048544182184,31.027001859340277&#10;c 24.79070044773178,0 34.24070044773178,-5.549144208773681 24.79070044773178,-8.753138676742825&#10;c -9.45,-20.46777777777778 33.074999999999996,-12.595555555555556 53.95929955226822,-30.313314355583895 c 34.20425287201618,0.0 73.60509444718866,-7.872222222222224 62.580094447188664,19.01021356223793&#10;c -9.45,5.362300900599608 0,22.1266147730815 16.169905552811336,22.1266147730815&#10;c 16.598054334437933,0 26.048054334437932,-29.359676872844073 16.598054334437933,-33.006566054969824&#10;c -9.45,-20.46777777777778 33.074999999999996,-12.595555555555556 62.15194566556207,-8.130262280349605 c 17.963207857925447,-0.0 73.00140978546793,7.872222222222224 61.97640978546793,-21.334773207081476&#10;c -9.45,-14.689248910252996 0,-28.140362601452274 16.77359021453207,-28.140362601452274&#10;c 14.075848969768785,0 23.525848969768784,11.768495935219505 14.075848969768785,17.79714105035068&#10;c -9.45,20.46777777777778 33.074999999999996,12.595555555555556 64.67415103023122,31.67799475818307 c 24.695471070495717,0.0 71.04766063793708,-7.872222222222224 60.02266063793708,23.14967280392473&#10;c -9.45,16.85819440249475 0,29.88278283056568 18.72733936206292,29.88278283056568&#10;c 14.90173318774903,0 24.35173318774903,-11.634260697798181 14.90173318774903,-23.037432761008848&#10;c -9.45,-20.46777777777778 33.074999999999996,-12.595555555555556 63.84826681225097,-29.995022873481563 c 8.440940921556091,-0.0 70.69557716016229,7.872222222222224 59.67057716016229,-23.820559575954082&#10;c -9.45,-11.173453184306062 0,-19.974949913136154 19.07942283983771,-19.974949913136154&#10;c 21.78163842237997,0 31.23163842237997,21.78912570951481 21.78163842237997,38.593006081131556&#10;c -9.45,20.46777777777778 33.074999999999996,12.595555555555556 56.96836157762003,5.20250340795868 c 37.97339421818307,0.0 66.89326025423975,-7.872222222222224 55.86826025423975,19.003605005375416&#10;c -9.45,19.734183763191567 0,32.769150264107694 22.88173974576025,32.769150264107694&#10;c 15.061623522297836,0 24.511623522297835,-31.401864215312454 15.061623522297836,-34.20891956534267&#10;c -9.45,-20.46777777777778 33.074999999999996,-12.595555555555556 63.688376477702164,-17.563835704140445 L 1890 0 " fill="none" stroke="black" stroke-width="0.1" style="vector-effect:non-scaling-stroke;" /></g><g><path d="M 0 0  L 0 314.888889  c 9.11172048632048,-0.0 70.52370284316237,7.872222222222224 59.49870284316237,-4.843120230639152&#10;c -9.45,-34.32899494513701 0,-36.54342765647074 19.25129715683763,-36.54342765647074&#10;c 24.460621637739195,0 33.9106216377392,25.664826433388168 24.460621637739195,31.456827516947698&#10;c -9.45,20.46777777777778 33.074999999999996,12.595555555555556 54.289378362260805,9.929720370162194 c 27.750725867293763,-0.0 77.84987274880503,7.872222222222224 66.82487274880502,-15.45501759688523&#10;c -9.45,-11.615453721759465 0,-27.743185559753766 11.92512725119498,-27.743185559753766&#10;c 17.23265545491722,0 26.68265545491722,18.014342448913403 17.23265545491722,43.49321297650626&#10;c -9.45,20.46777777777778 33.074999999999996,12.595555555555556 61.51734454508278,-0.2950098198672606 c 35.10627940375476,0.0 67.40005228534413,-7.872222222222224 56.37505228534413,31.582486392048907&#10;c -9.45,4.116349388688725 0,7.003676258058299 22.374947714655868,7.003676258058299&#10;c 12.949802632959674,0 22.399802632959673,-12.457695556773158 12.949802632959674,-34.82173909226726&#10;c -9.45,-20.46777777777778 33.074999999999996,-12.595555555555556 65.80019736704033,-3.7644235578399474 c 21.62614989720686,0.0 71.47653335655717,-7.872222222222224 60.45153335655717,2.366036734769543&#10;c -9.45,15.701750154722435 0,36.81586713378512 18.29846664344283,36.81586713378512&#10;c 21.05183977170033,0 30.50183977170033,-27.17112845404671 21.05183977170033,-33.17763165124348&#10;c -9.45,-20.46777777777778 33.074999999999996,-12.595555555555556 57.69816022829967,-6.004272217311183 c 12.100975623355676,-0.0 69.947619812817,7.872222222222224 58.922619812817,-32.30443009247165&#10;c -9.45,-5.238949840691322 0,-11.415909508685573 19.827380187183003,-11.415909508685573&#10;c 17.40581618346441,0 26.85581618346441,4.609202153757829 17.40581618346441,11.285774462355946&#10;c -9.45,20.46777777777778 33.074999999999996,12.595555555555556 61.34418381653559,32.434565138801275 c 13.663194112746586,0.0 70.3003005671512,-7.872222222222224 59.27530056715119,0.6836538355938757&#10;c -9.45,38.75524261103712 0,43.3204404401012 19.47469943284881,43.3204404401012&#10;c 21.00534633327591,0 30.45534633327591,-27.44963849579531 21.00534633327591,-40.72262640957772&#10;c -9.45,-20.46777777777778 33.074999999999996,-12.595555555555556 57.74465366672409,-3.281467866117353 c 9.722690819926974,-0.0 74.08791778143222,7.872222222222224 63.062917781432226,-20.7456226398563&#10;c -9.45,-29.131032059931197 0,-30.00208133510384 15.687082218567774,-30.00208133510384&#10;c 21.965007947008857,0 31.415007947008856,27.61396253836842 21.965007947008857,29.96991253554851&#10;c -9.45,20.46777777777778 33.074999999999996,12.595555555555556 56.78499205299114,20.77779143941163 c 43.8463322905316,0.0 68.44471169172986,-7.872222222222224 57.419711691729866,8.086339754688083&#10;c -9.45,19.934032186486178 0,30.500936393699725 21.330288308270134,30.500936393699725&#10;c 24.25047356981935,0 33.70047356981935,-15.05484173635196 24.25047356981935,-16.917810529636796&#10;c -9.45,-20.46777777777778 33.074999999999996,-12.595555555555556 54.49952643018065,-21.669465618751012 c 38.25624625182641,0.0 67.5864650216401,-7.872222222222224 56.56146502164009,7.293185241880369&#10;c -9.45,18.4642600988441 0,43.49969078875618 22.18853497835991,43.49969078875618&#10;c 19.92321332463753,0 29.37321332463753,-29.79529164569551 19.92321332463753,-32.874395520537746&#10;c -9.45,-20.46777777777778 33.074999999999996,-12.595555555555556 58.82678667536247,-17.918480510098803 c 36.98199825888625,0.0 75.19907158235219,-7.872222222222224 64.17407158235218,8.942377111335416&#10;c -9.45,29.28032299823301 0,43.26289228610462 14.575928417647816,43.26289228610462&#10;c 16.044283166785718,0 25.494283166785717,-21.8306625003342 16.044283166785718,-50.49768833623639&#10;c -9.45,-20.46777777777778 33.074999999999996,-12.595555555555556 62.70571683321428,-1.7075810612036477 c 44.892374111497666,0.0 67.28158133039378,-7.872222222222224 56.25658133039378,10.808728068093915&#10;c -9.45,9.278273594987867 0,40.87482208946011 22.49341866960622,40.87482208946011&#10;c 14.114768344048485,0 23.564768344048485,-21.79820271893912 14.114768344048485,-40.80510010519568&#10;c -9.45,-20.46777777777778 33.074999999999996,-12.595555555555556 64.63523165595151,-10.878450052358346 c 17.427269066047693,0.0 65.43058760474281,-7.872222222222224 54.405587604742806,22.699986173020577&#10;c -9.45,20.983947787341492 0,27.240291400693124 24.344412395257194,27.240291400693124&#10;c 24.227301235959033,0 33.677301235959035,-28.656503664341017 24.227301235959033,-37.7131859400389&#10;c -9.45,-20.46777777777778 33.074999999999996,-12.595555555555556 54.52269876404097,-12.227091633674803 L 1890 0 " fill="none" stroke="black" stroke-width="0.1" style="vector-effect:non-scaling-stroke;" /></g><g><path d="M 0 0  L 0 472.333333  c 39.385519763780906,-0.0 70.71465419365377,7.872222222222224 59.68965419365377,-1.1198109841577206&#10;c -9.45,-23.95425568845213 0,-44.85186612323171 19.060345806346227,-44.85186612323171&#10;c 17.290528506105744,0 26.740528506105743,14.655959161166678 17.290528506105744,33.40616275165118&#10;c -9.45,20.46777777777778 33.074999999999996,12.595555555555556 61.459471493894256,12.565514355738252 c 33.671154999763196,0.0 66.2299154269384,-7.872222222222224 55.204915426938406,10.897631338207503&#10;c -9.45,20.4339421601386 0,30.448037366940653 23.545084573061594,30.448037366940653&#10;c 13.021750977805667,0 22.471750977805666,-27.8141844810446 13.021750977805667,-30.705261459013087&#10;c -9.45,-20.46777777777778 33.074999999999996,-12.595555555555556 65.72824902219433,-10.64040724613507 c 28.92183332424,0.0 66.13173742404535,-7.872222222222224 55.10673742404535,7.936444454549144&#10;c -9.45,14.526391985875904 0,32.706855365141166 23.64326257595465,32.706855365141166&#10;c 13.635139743968054,0 23.085139743968053,-22.994004419958205 13.635139743968054,-30.642499548058876&#10;c -9.45,-20.46777777777778 33.074999999999996,-12.595555555555556 65.11486025603195,-10.000800271631437 c 41.92973876053863,-0.0 65.67144233284989,7.872222222222224 54.64644233284989,2.8180905394749978&#10;c -9.45,-34.24898772301446 0,-48.10440231120991 24.103557667150113,-48.10440231120991&#10;c 22.265196296255084,0 31.715196296255083,41.39803795490961 22.265196296255084,47.01615603287085&#10;c -9.45,20.46777777777778 33.074999999999996,12.595555555555556 56.484803703744916,-1.7298442611359377 c 27.1755775852847,-0.0 74.1610418798704,7.872222222222224 63.13604187987039,2.2037781074356473&#10;c -9.45,-28.307202501342935 0,-53.31447674528059 15.61395812012961,-53.31447674528059&#10;c 18.23734885936929,0 27.68734885936929,22.215773758753997 18.23734885936929,47.15686630477969&#10;c -9.45,20.46777777777778 33.074999999999996,12.595555555555556 60.51265114063071,3.9538323330652503 c 38.01850386527183,-0.0 75.06244596053024,7.872222222222224 64.03744596053023,-13.464353275875922&#10;c -9.45,-20.805202267712197 0,-25.08541136311893 14.712554039469765,-25.08541136311893&#10;c 14.560955342410608,0 24.010955342410607,19.542446556090045 14.560955342410608,21.23441201121258&#10;c -9.45,20.46777777777778 33.074999999999996,12.595555555555556 64.18904465758939,17.31535262778227 c 17.75982348326663,0.0 66.07694265459091,-7.872222222222224 55.05194265459091,32.02913947591629&#10;c -9.45,8.546124639605004 0,19.45505973796839 23.69805734540909,19.45505973796839&#10;c 14.030289159489413,0 23.480289159489413,-12.252591652097813 14.030289159489413,-46.02390071487737&#10;c -9.45,-20.46777777777778 33.074999999999996,-12.595555555555556 64.71971084051059,-5.460298499007308 c 22.096715052550252,-0.0 71.02753983789073,7.872222222222224 60.00253983789073,-24.247727205066166&#10;c -9.45,-18.724035378913012 0,-22.943492366006314 18.74746016210927,-22.943492366006314&#10;c 15.221297927698274,0 24.671297927698273,28.113190764652515 15.221297927698274,29.126324876950346&#10;c -9.45,20.46777777777778 33.074999999999996,12.595555555555556 63.528702072301726,18.064894694122135 c 8.624120222976952,0.0 68.43662614025759,-7.872222222222224 57.41162614025759,28.70455415003302&#10;c -9.45,20.55984153421809 0,21.021096606891355 21.33837385974241,21.021096606891355&#10;c 20.316867852633735,0 29.766867852633734,-9.97860105993922 20.316867852633735,-22.006143327767553&#10;c -9.45,-20.46777777777778 33.074999999999996,-12.595555555555556 58.433132147366265,-27.71950742915682 c 36.72917191515574,-0.0 66.48764608209736,7.872222222222224 55.46264608209736,-3.9275440019060954&#10;c -9.45,-21.79457244547574 0,-46.32684641714937 23.287353917902642,-46.32684641714937&#10;c 19.92513702506325,0 29.37513702506325,30.674992641264776 19.92513702506325,47.75242461766004&#10;c -9.45,20.46777777777778 33.074999999999996,12.595555555555556 58.82486297493675,2.5019658013954214 c 34.27992289801413,0.0 65.6034034628941,-7.872222222222224 54.57840346289409,-1.1383725657399077&#10;c -9.45,35.82136264797817 0,45.817698304242825 24.171596537105913,45.817698304242825&#10;c 15.450193595212184,0 24.900193595212183,-17.572340608594857 15.450193595212184,-25.188607075527248&#10;c -9.45,-20.46777777777778 33.074999999999996,-12.595555555555556 63.299806404787816,-19.49071866297567 c 31.2676884615921,-0.0 68.1559000258189,7.872222222222224 57.130900025818896,-2.4268546642908717&#10;c -9.45,-44.755212423111324 0,-44.34066952424692 21.619099974181104,-44.34066952424692&#10;c 11.914528268261378,0 21.364528268261378,15.588781666057953 11.914528268261378,23.173596458864452&#10;c -9.45,20.46777777777778 33.074999999999996,12.595555555555556 66.83547173173862,23.59392772967334 L 1890 0 " fill="none" stroke="black" stroke-width="0.1" style="vector-effect:non-scaling-stroke;" /></g><g><path d="M 0 0  L 0 629.777778  c 42.101214277755936,-0.0 67.157520746085,7.872222222222224 56.132520746085,-13.540527647040175&#10;c -9.45,-25.869836621756804 0,-34.82699485965121 22.617479253915,-34.82699485965121&#10;c 21.341665278287365,0 30.791665278287365,24.239198512674566 21.341665278287365,28.61274244993582&#10;c -9.45,20.46777777777778 33.074999999999996,12.595555555555556 57.408334721712635,19.754780056755568 c 16.59488458634569,0.0 70.22578924390763,-7.872222222222224 59.20078924390763,4.069048972579748&#10;c -9.45,16.161299864742826 0,36.01867106038753 19.54921075609237,36.01867106038753&#10;c 21.734509118636268,0 31.184509118636267,-8.275940010746387 21.734509118636268,-36.170849501808966&#10;c -9.45,-20.46777777777778 33.074999999999996,-12.595555555555556 57.01549088136373,-3.9168705311583167 c 38.23903443124202,0.0 73.02385173648382,-7.872222222222224 61.99885173648382,33.93465314858051&#10;c -9.45,3.6275178904724723 0,13.873659671387465 16.75114826351618,13.873659671387465&#10;c 24.9132061307496,0 34.3632061307496,-10.733703750681356 24.9132061307496,-26.112012375119498&#10;c -9.45,-20.46777777777778 33.074999999999996,-12.595555555555556 53.8367938692504,-21.696300444848475 c 13.902492332710914,-0.0 78.31199456892797,7.872222222222224 67.28699456892797,-3.780048667768958&#10;c -9.45,-10.536763792710062 0,-48.01779845716323 11.463005431072034,-48.01779845716323&#10;c 11.763001952556138,0 21.213001952556137,35.19976699626195 11.763001952556138,44.100796784607425&#10;c -9.45,20.46777777777778 33.074999999999996,12.595555555555556 66.98699804744386,7.697050340324765 c 11.869608970619534,0.0 71.38110155819375,-7.872222222222224 60.35610155819374,10.035791758063567&#10;c -9.45,32.98044451185004 0,34.37982075941972 18.393898441806257,34.37982075941972&#10;c 19.42916900979661,0 28.87916900979661,-7.285009927615726 19.42916900979661,-18.59798721693697&#10;c -9.45,-20.46777777777778 33.074999999999996,-12.595555555555556 59.32083099020339,-25.817625300546318 c 14.254466747827845,0.0 71.69085374387886,-7.872222222222224 60.665853743878856,9.203855691118362&#10;c -9.45,23.36761197647075 0,42.66787615883037 18.084146256121144,42.66787615883037&#10;c 23.82267427359369,0 33.272674273593694,-22.209696520692802 23.82267427359369,-46.252983483998946&#10;c -9.45,-20.46777777777778 33.074999999999996,-12.595555555555556 54.92732572640631,-5.618748365949784 c 41.5731034477084,0.0 68.38666910112849,-7.872222222222224 57.36166910112849,31.26496846447176&#10;c -9.45,16.07590517476704 0,16.056700511169215 21.38833089887151,16.056700511169215&#10;c 20.275336235150277,0 29.725336235150277,-18.062818944420613 20.275336235150277,-37.69024457754354&#10;c -9.45,-20.46777777777778 33.074999999999996,-12.595555555555556 58.47466376484972,-9.631424398097437 c 31.27248802045306,0.0 76.41771876874958,-7.872222222222224 65.39271876874957,17.0010975345553&#10;c -9.45,14.439917603392129 0,26.147896277417175 13.357281231250425,26.147896277417175&#10;c 11.744190882117678,0 21.194190882117677,-32.06033519341011 11.744190882117678,-37.176954305614856&#10;c -9.45,-20.46777777777778 33.074999999999996,-12.595555555555556 67.00580911788232,-5.972039506357618 c 27.549485131430327,0.0 66.89697161269942,-7.872222222222224 55.87197161269941,16.025502719402404&#10;c -9.45,16.965718197970478 0,24.375497434824993 22.87802838730059,24.375497434824993&#10;c 14.07850888934756,0 23.52850888934756,-3.003605242066478 14.07850888934756,-6.840962170992746&#10;c -9.45,-20.46777777777778 33.074999999999996,-12.595555555555556 64.67149111065244,-33.56003798323465 c 14.52765926701635,0.0 66.82401087317854,-7.872222222222224 55.79901087317854,-2.904067241392135&#10;c -9.45,52.823508905871975 0,52.925487256605315 22.95098912682146,52.925487256605315&#10;c 19.18995383586764,0 28.63995383586764,-17.200854487931714 19.18995383586764,-20.32478574461029&#10;c -9.45,-20.46777777777778 33.074999999999996,-12.595555555555556 59.56004616413236,-29.696634270602893 c 45.28128205740976,0.0 72.22481784087336,-7.872222222222224 61.19981784087336,11.38469851760843&#10;c -9.45,26.81492514456329 0,42.12223645902823 17.550182159126642,42.12223645902823&#10;c 11.725185427503234,0 21.175185427503234,-6.925240932404603 11.725185427503234,-30.722770853501014&#10;c -9.45,-20.46777777777778 33.074999999999996,-12.595555555555556 67.02481457249677,-22.784164123135643 c 21.455365365289094,0.0 75.35021538062566,-7.872222222222224 64.32521538062565,2.6995271720115386&#10;c -9.45,24.058434498153208 0,40.48354167469575 14.42478461937435,40.48354167469575&#10;c 16.73021983132196,0 26.18021983132196,-11.337177381845779 16.73021983132196,-35.25349872610915&#10;c -9.45,-20.46777777777778 33.074999999999996,-12.595555555555556 62.01978016867804,-7.929570120598136 L 1890 0 " fill="none" stroke="black" stroke-width="0.1" style="vector-effect:non-scaling-stroke;" /></g><g><path d="M 0 0  L 0 787.222222  c 34.075844874646066,0.0 67.97124460411764,-7.872222222222224 56.946244604117645,1.9579545578782784&#10;c -9.45,11.4670839478592 0,45.10979818991548 21.803755395882355,45.10979818991548&#10;c 21.72681583259356,0 31.176815832593558,-29.323424970178287 21.72681583259356,-48.741399457670894&#10;c -9.45,-20.46777777777778 33.074999999999996,-12.595555555555556 57.02318416740644,1.6736467098771328 c 37.545126343212225,-0.0 65.39969937023595,7.872222222222224 54.374699370235945,-14.212410126398506&#10;c -9.45,-24.733852603035793 0,-27.90218048494061 24.375300629764055,-27.90218048494061&#10;c 13.38831359673209,0 22.83831359673209,17.8889181535553 13.38831359673209,38.234535622786076&#10;c -9.45,20.46777777777778 33.074999999999996,12.595555555555556 65.36168640326791,3.8800549885530415 c 30.791656921900753,-0.0 66.70772076176938,7.872222222222224 55.68272076176938,-28.430351860762464&#10;c -9.45,-8.599547234331302 0,-17.64239556425033 23.06727923823062,-17.64239556425033&#10;c 15.110603411328341,0 24.56060341132834,20.895753614147456 15.110603411328341,28.689131384054345&#10;c -9.45,20.46777777777778 33.074999999999996,12.595555555555556 63.63939658867166,17.383616040958447 c 18.82699946250131,-0.0 68.82146397399978,7.872222222222224 57.79646397399978,-20.895046285730977&#10;c -9.45,-23.89144133756151 0,-29.781427516490318 20.953536026000222,-29.781427516490318&#10;c 12.621103749075829,0 22.071103749075828,9.16054418986013 12.621103749075829,34.38861283576021&#10;c -9.45,20.46777777777778 33.074999999999996,12.595555555555556 66.12889625092417,16.287860966461082 c 27.149120644691298,-0.0 74.3809410818555,7.872222222222224 63.35594108185549,-10.070295453589344&#10;c -9.45,-17.98038800348593 0,-34.976047900144415 15.394058918144509,-34.976047900144415&#10;c 17.136763743011386,0 26.586763743011385,13.173006205526988 17.136763743011386,22.851722944894483&#10;c -9.45,20.46777777777778 33.074999999999996,12.595555555555556 61.613236256988614,22.194620408839278 c 25.717810625999295,0.0 76.24668977350228,-7.872222222222224 65.22168977350228,29.202390916161146&#10;c -9.45,22.0479798125631 0,23.938190646370682 13.528310226497723,23.938190646370682&#10;c 18.290920886301777,0 27.740920886301776,-13.712469753354526 18.290920886301777,-21.048877125744667&#10;c -9.45,-20.46777777777778 33.074999999999996,-12.595555555555556 60.45907911369822,-32.09170443678716 c 42.73125082997714,0.0 66.13907854130822,-7.872222222222224 55.11407854130822,33.1074657042306&#10;c -9.45,4.812071794379388 0,15.193469079300463 23.635921458691783,15.193469079300463&#10;c 16.653699838145386,0 26.103699838145385,-23.006453169168356 16.653699838145386,-33.04865207166845&#10;c -9.45,-20.46777777777778 33.074999999999996,-12.595555555555556 62.096300161854614,-15.252282711862613 c 36.87383306809661,0.0 77.7570897264667,-7.872222222222224 66.7320897264667,8.21487742446012&#10;c -9.45,16.634276667454245 0,34.1770481559983 12.017910273533303,34.1770481559983&#10;c 15.96786206174319,0 25.41786206174319,-31.064752021859636 15.96786206174319,-36.88247474399894&#10;c -9.45,-20.46777777777778 33.074999999999996,-12.595555555555556 62.78213793825681,-5.509450836459479 c 17.57840248081075,0.0 70.31493663780138,-7.872222222222224 59.289936637801375,-1.0413915587073077&#10;c -9.45,26.692438195026007 0,50.31370477543213 19.460063362198625,50.31370477543213&#10;c 16.954557676280075,0 26.404557676280074,-11.335699606867028 16.954557676280075,-33.28410131839489&#10;c -9.45,-20.46777777777778 33.074999999999996,-12.595555555555556 61.795442323719925,-15.98821189832993 c 34.54360602981603,0.0 68.61785047902727,-7.872222222222224 57.59285047902727,29.215265478425838&#10;c -9.45,8.177216840580126 0,13.14280495490004 21.15714952097273,13.14280495490004&#10;c 13.663369087677921,0 23.11336908767792,-18.340502308480257 13.663369087677921,-19.04782542792581&#10;c -9.45,-20.46777777777778 33.074999999999996,-12.595555555555556 65.08663091232208,-23.310245005400066 c 43.12634229151955,-0.0 77.04313191877158,7.872222222222224 66.01813191877157,-3.531952428377328&#10;c -9.45,-12.690242446433881 0,-47.024377690005295 12.731868081228427,-47.024377690005295&#10;c 17.048633583187097,0 26.498633583187097,48.734621456114674 17.048633583187097,53.29745692658712&#10;c -9.45,20.46777777777778 33.074999999999996,12.595555555555556 61.7013664168129,-2.7411268082044913 c 14.094076297649481,-0.0 71.47185150524903,7.872222222222224 60.44685150524903,-27.04070256747553&#10;c -9.45,-12.478519884700114 0,-12.527172095112146 18.30314849475097,-12.527172095112146&#10;c 12.257891744254735,0 21.707891744254734,11.830231624887489 12.257891744254735,23.30160731951302&#10;c -9.45,20.46777777777778 33.074999999999996,12.595555555555556 66.49210825574526,16.266267343074656 L 1890 0 " fill="none" stroke="black" stroke-width="0.1" style="vector-effect:non-scaling-stroke;" /></g><g><path d="M 0 0  L 0 944.666667  c 17.191566996027227,0.0 65.30549656903224,-7.872222222222224 54.280496569032245,11.997389731575119&#10;c -9.45,27.991844985282736 0,36.26346488398154 24.469503430967755,36.26346488398154&#10;c 14.926925926238795,0 24.376925926238794,-17.694564316464334 14.926925926238795,-31.357709885184025&#10;c -9.45,-20.46777777777778 33.074999999999996,-12.595555555555556 63.823074073761205,-16.903144730372635 c 12.509534992576148,-0.0 67.86140163524016,7.872222222222224 56.83640163524016,-31.46784327814044&#10;c -9.45,-6.249350605589585 0,-9.141888923506688 21.913598364759842,-9.141888923506688&#10;c 21.28145743442218,0 30.73145743442218,4.879151856032378 21.28145743442218,19.834015805267217&#10;c -9.45,20.46777777777778 33.074999999999996,12.595555555555556 57.46854256557782,20.77571639637991 c 32.66275504241565,0.0 69.5466264775317,-7.872222222222224 58.521626477531704,23.736003920043736&#10;c -9.45,12.034907489467328 0,25.3116184480391 20.228373522468296,25.3116184480391&#10;c 11.724480058059513,0 21.174480058059512,-11.595081111825355 11.724480058059513,-31.21410307788263&#10;c -9.45,-20.46777777777778 33.074999999999996,-12.595555555555556 67.02551994194049,-17.833519290200204 c 11.755678354022452,-0.0 77.23411561987484,7.872222222222224 66.20911561987484,-5.386020894854835&#10;c -9.45,-25.976281880829642 0,-35.80496088162037 12.540884380125163,-35.80496088162037&#10;c 12.720389655718122,0 22.17038965571812,5.847860925278566 12.720389655718122,7.94846780577673&#10;c -9.45,20.46777777777778 33.074999999999996,12.595555555555556 66.02961034428188,33.242513970698475 c 35.42413925775814,0.0 78.08083490949835,-7.872222222222224 67.05583490949834,19.339535586361343&#10;c -9.45,16.515577236752396 0,22.769882874438267 11.694165090501656,22.769882874438267&#10;c 19.203205997072274,0 28.653205997072273,-40.326911653856946 19.203205997072274,-45.16084800605236&#10;c -9.45,-20.46777777777778 33.074999999999996,-12.595555555555556 59.546794002927726,3.051429545252752 c 20.295294368163468,0.0 73.75090191341815,-7.872222222222224 62.72590191341814,20.292498574742268&#10;c -9.45,22.122055022104323 0,29.93003082121264 16.02409808658186,29.93003082121264&#10;c 15.30541403610782,0 24.75541403610782,-7.097372087386876 15.30541403610782,-18.166741463267975&#10;c -9.45,-20.46777777777778 33.074999999999996,-12.595555555555556 63.44458596389218,-32.05578793268693 c 33.01958500542139,-0.0 72.1375925701909,7.872222222222224 61.1125925701909,-31.264382705351714&#10;c -9.45,-7.732312103746845 0,-14.52821539905488 17.6374074298091,-14.52821539905488&#10;c 20.988710007195905,0 30.438710007195905,4.871845243746728 20.988710007195905,15.008556851495744&#10;c -9.45,20.46777777777778 33.074999999999996,12.595555555555556 57.761289992804095,30.78404125291085 c 13.898513857014425,-0.0 76.69824199774368,7.872222222222224 65.67324199774367,0.8135982127496073&#10;c -9.45,-20.812969265739273 0,-43.08343453415598 13.076758002256327,-43.08343453415598&#10;c 14.883577586115209,0 24.333577586115208,29.084671046001894 14.883577586115209,31.90527983896328&#10;c -9.45,20.46777777777778 33.074999999999996,12.595555555555556 63.86642241388479,10.364556482443085 c 26.478734837437397,0.0 72.39583997221646,-7.872222222222224 61.370839972216466,18.971665992109067&#10;c -9.45,15.233320613434186 0,22.397370493320615 17.379160027783534,22.397370493320615&#10;c 17.04562193823739,0 26.495621938237388,-12.086859278378347 17.04562193823739,-40.28032602042785&#10;c -9.45,-20.46777777777778 33.074999999999996,-12.595555555555556 61.70437806176261,-1.0887104650018316 c 31.850260916033328,0.0 64.77132252586642,-7.872222222222224 53.746322525866425,4.8391602792350366&#10;c -9.45,10.48253443104826 0,33.02181523254475 25.003677474133575,33.02181523254475&#10;c 23.26984706937769,0 32.71984706937769,-13.418884513111397 23.26984706937769,-14.584047373791297&#10;c -9.45,-20.46777777777778 33.074999999999996,-12.595555555555556 55.48015293062231,-23.276928137988495 c 41.245201540360526,0.0 68.15454708199762,-7.872222222222224 57.129547081997615,18.38749698550973&#10;c -9.45,11.452009019717334 0,31.4269539479677 21.620452918002385,31.4269539479677&#10;c 11.573523578810423,0 21.023523578810423,-29.74884889091372 11.573523578810423,-30.06054504721127&#10;c -9.45,-20.46777777777778 33.074999999999996,-12.595555555555556 67.17647642118958,-19.75390588626616 c 33.98473123667995,-0.0 73.74433643435162,7.872222222222224 62.71933643435162,-27.710299561434805&#10;c -9.45,-6.394190264252888 0,-18.437217878886745 16.030663565648382,-18.437217878886745&#10;c 11.706020100667388,0 21.156020100667387,15.776241378377096 11.706020100667388,18.50259678291486&#10;c -9.45,20.46777777777778 33.074999999999996,12.595555555555556 67.04397989933261,27.64492065740669 L 1890 0 " fill="none" stroke="black" stroke-width="0.1" style="vector-effect:non-scaling-stroke;" /></g><g><path d="M 0 0  L 0 1102.111111  c 18.56631994907621,-0.0 74.98568501654022,7.872222222222224 63.96068501654021,-1.2919063873208787&#10;c -9.45,-38.436673066455164 0,-40.848552779440915 14.78931498345979,-40.848552779440915&#10;c 23.088202421682084,0 32.53820242168209,22.273748841048324 23.088202421682084,24.23660495049656&#10;c -9.45,20.46777777777778 33.074999999999996,12.595555555555556 55.661797578317916,17.903854216265234 c 44.978625405523005,0.0 69.14767263244016,-7.872222222222224 58.12267263244016,30.73554619656526&#10;c -9.45,8.101025595640452 0,8.064102898658604 20.627327367559843,8.064102898658604&#10;c 19.46572861384213,0 28.91572861384213,-20.458784191790272 19.46572861384213,-33.70760271086578&#10;c -9.45,-20.46777777777778 33.074999999999996,-12.595555555555556 59.28427138615787,-5.092046384358085 c 8.663817297092677,0.0 68.47933448135603,-7.872222222222224 57.45433448135603,16.359701646843906&#10;c -9.45,20.817107785215832 0,24.553800737295834 21.295665518643972,24.553800737295834&#10;c 19.915740998911843,0 29.365740998911843,-18.983378465454308 19.915740998911843,-34.32113441153812&#10;c -9.45,-20.46777777777778 33.074999999999996,-12.595555555555556 58.83425900108816,-6.592367972601622 c 29.407819881725022,0.0 78.23772371789418,-7.872222222222224 67.21272371789418,0.6966633777900035&#10;c -9.45,19.11079120628753 0,45.06982532013798 11.537276282105822,45.06982532013798&#10;c 17.21234791128701,0 26.66234791128701,-20.569184168241133 17.21234791128701,-23.110456635105344&#10;c -9.45,-20.46777777777778 33.074999999999996,-12.595555555555556 61.53765208871299,-22.65603206282264 c 35.282509578065856,0.0 76.29268905213137,-7.872222222222224 65.26768905213136,27.826545352645326&#10;c -9.45,5.300341371963761 0,20.616317194064045 13.48231094786864,20.616317194064045&#10;c 22.83421198941521,0 32.28421198941521,-15.920392992649425 22.83421198941521,-27.104517057525694&#10;c -9.45,-20.46777777777778 33.074999999999996,-12.595555555555556 55.91578801058479,-21.338345489183677 c 13.787021558610759,0.0 71.43383720813976,-7.872222222222224 60.408837208139765,15.17973000966228&#10;c -9.45,14.934553963941687 0,38.19075854180215 18.341162791860235,38.19075854180215&#10;c 15.073507698468447,0 24.523507698468446,-11.789276490656324 15.073507698468447,-32.87214477021307&#10;c -9.45,-20.46777777777778 33.074999999999996,-12.595555555555556 63.67649230153155,-20.498343781251357 c 14.17940898708839,-0.0 73.6961585243375,7.872222222222224 62.67115852433751,-29.698927674299252&#10;c -9.45,-6.361067845438343 0,-15.158503590847882 16.078841475662493,-15.158503590847882&#10;c 23.314420276020996,0 32.764420276021,22.24108780466788 23.314420276020996,34.41061094690651&#10;c -9.45,20.46777777777778 33.074999999999996,12.595555555555556 55.435579723979004,10.446820318240626 c 45.38160672757152,0.0 68.30505009021577,-7.872222222222224 57.28005009021577,1.696149631936455&#10;c -9.45,13.727798377845014 0,44.27168626530863 21.469949909784233,44.27168626530863&#10;c 17.619988282701485,0 27.069988282701484,-20.43805681791166 17.619988282701485,-35.65344906886826&#10;c -9.45,-20.46777777777778 33.074999999999996,-12.595555555555556 61.130011717298515,-10.314386828376826 c 18.39333757817354,0.0 67.25219262914163,-7.872222222222224 56.227192629141626,-2.162845053804753&#10;c -9.45,12.402728739465065 0,40.62325813791986 22.522807370858374,40.62325813791986&#10;c 20.136029321011208,0 29.586029321011207,-4.5612164021587684 20.136029321011208,-8.905377809626021&#10;c -9.45,-20.46777777777778 33.074999999999996,-12.595555555555556 58.61397067898879,-29.55503527448909 c 20.70832270215393,-0.0 74.35949131876345,7.872222222222224 63.33449131876345,-25.307985797144138&#10;c -9.45,-14.41570785423934 0,-15.051473734796705 15.415508681236552,-15.051473734796705&#10;c 21.250900339237333,0 30.700900339237332,11.588992098565646 21.250900339237333,42.83975472780817&#10;c -9.45,20.46777777777778 33.074999999999996,12.595555555555556 57.49909966076267,-2.4802951958673276 c 27.322793421423036,0.0 70.56370850295856,-7.872222222222224 59.538708502958556,29.847998032565435&#10;c -9.45,14.709003273043463 0,16.875296593004336 19.211291497041444,16.875296593004336&#10;c 16.731746307643803,0 26.181746307643802,-20.969871589250143 16.731746307643803,-30.668512937570355&#10;c -9.45,-20.46777777777778 33.074999999999996,-12.595555555555556 62.0182536923562,-16.054781687999416 c 28.146159947867066,0.0 65.33164905412173,-7.872222222222224 54.30664905412172,23.647700968303337&#10;c -9.45,13.351589520625328 0,16.707579741588038 24.44335094587828,16.707579741588038&#10;c 21.451051613533963,0 30.901051613533962,-31.078021713689786 21.451051613533963,-35.05742549861576&#10;c -9.45,-20.46777777777778 33.074999999999996,-12.595555555555556 57.29894838646604,-5.297855211275618 L 1890 0 " fill="none" stroke="black" stroke-width="0.1" style="vector-effect:non-scaling-stroke;" /></g><g><path d="M 0 0  L 0 1259.555556  c 10.225207741688651,-0.0 67.97894223108192,7.872222222222224 56.95394223108191,-23.566258669359605&#10;c -9.45,-21.62083370588488 0,-27.016498838925934 21.79605776891809,-27.016498838925934&#10;c 22.96835248644743,0 32.41835248644743,7.421650974895652 22.96835248644743,17.0438770103031&#10;c -9.45,20.46777777777778 33.074999999999996,12.595555555555556 55.78164751355257,33.53888049798244 c 31.456841667517235,0.0 73.25619620655279,-7.872222222222224 62.23119620655278,24.647989919207696&#10;c -9.45,3.4502250593727073 0,15.429770848943669 16.51880379344722,15.429770848943669&#10;c 20.28182510020592,0 29.73182510020592,-21.99478792420743 20.28182510020592,-29.444674293688635&#10;c -9.45,-20.46777777777778 33.074999999999996,-12.595555555555556 58.46817489979408,-10.63308647446273 c 12.80818305919024,-0.0 66.28393077837866,7.872222222222224 55.258930778378655,-29.00208028700168&#10;c -9.45,-15.863437227707681 0,-16.284719696820996 23.491069221621345,-16.284719696820996&#10;c 20.337202665542804,0 29.787202665542804,27.503108890759094 20.337202665542804,46.40430574273722&#10;c -9.45,20.46777777777778 33.074999999999996,12.595555555555556 58.412797334457196,-1.1175057589145467 c 25.766345775359284,-0.0 71.71171184507415,7.872222222222224 60.68671184507415,-5.60926838324032&#10;c -9.45,-9.940049125169198 0,-34.18225109699229 18.06328815492585,-34.18225109699229&#10;c 19.739179533753216,0 29.189179533753215,20.34397156033949 19.739179533753216,29.273721978321262&#10;c -9.45,20.46777777777778 33.074999999999996,12.595555555555556 59.010820466246784,10.517797501911346 c 21.481557520839647,0.0 72.796745515489,-7.872222222222224 61.77174551548899,0.007156314890632441&#10;c -9.45,40.23439048858199 0,45.88885363393122 16.978254484511012,45.88885363393122&#10;c 14.846299065936591,0 24.29629906593659,-18.65335376273187 14.846299065936591,-19.546245019010875&#10;c -9.45,-20.46777777777778 33.074999999999996,-12.595555555555556 63.90370093406341,-26.349764929810974 c 15.299965130518945,0.0 75.96313815687006,-7.872222222222224 64.93813815687005,32.18281554433115&#10;c -9.45,13.972998077306064 0,19.453107279649437 13.811861843129947,19.453107279649437&#10;c 13.95405858042048,0 23.40405858042048,-11.939762229877621 13.95405858042048,-22.225473570306807&#10;c -9.45,-20.46777777777778 33.074999999999996,-12.595555555555556 64.79594141957952,-29.41044925367378 c 18.80554661936324,-0.0 69.43526462813114,7.872222222222224 58.41026462813114,-18.305721936451317&#10;c -9.45,-5.6812506211053835 0,-24.748561145494964 20.339735371868862,-24.748561145494964&#10;c 21.496307699255468,0 30.946307699255467,6.766580542627359 21.496307699255468,27.534733522460904&#10;c -9.45,20.46777777777778 33.074999999999996,12.595555555555556 57.25369230074453,15.519549559485377 c 18.756108573332984,0.0 72.77584806512702,-7.872222222222224 61.750848065127016,16.138282783423048&#10;c -9.45,13.319526645111077 0,33.158378835926655 16.999151934872984,33.158378835926655&#10;c 16.853978975424155,0 26.303978975424155,-29.224688023830915 16.853978975424155,-29.83660037156849&#10;c -9.45,-20.46777777777778 33.074999999999996,-12.595555555555556 61.896021024575845,-19.460061247781216 c 23.683706503758657,-0.0 66.43406262436048,7.872222222222224 55.40906262436047,-10.995735135077256&#10;c -9.45,-16.137911173826264 0,-34.63225778259394 23.340937375639527,-34.63225778259394&#10;c 18.32078473249686,0 27.77078473249686,20.95256090478348 18.32078473249686,47.16263597892435&#10;c -9.45,20.46777777777778 33.074999999999996,12.595555555555556 60.42921526750314,-1.5346430612531563 c 17.5686831717618,0.0 78.09451151178506,-7.872222222222224 67.06951151178505,26.40516327965259&#10;c -9.45,8.969980517896728 0,27.024128492080195 11.680488488214948,27.024128492080195&#10;c 19.324990819754717,0 28.774990819754716,-29.718485769109446 19.324990819754717,-45.897157777652914&#10;c -9.45,-20.46777777777778 33.074999999999996,-12.595555555555556 59.42500918024528,-7.532133994079871 c 36.34790047295586,0.0 77.70214760485545,-7.872222222222224 66.67714760485545,28.711293684395116&#10;c -9.45,6.497317827845285 0,24.473440491504633 12.072852395144551,24.473440491504633&#10;c 18.830449079181363,0 28.280449079181363,-42.095665799596 18.830449079181363,-44.749314978004094&#10;c -9.45,-20.46777777777778 33.074999999999996,-12.595555555555556 59.91955092081864,-8.435419197895655 c 40.28985283105067,0.0 68.50669052886187,-7.872222222222224 57.48169052886187,24.495410035543646&#10;c -9.45,17.589523918266874 0,18.25994525422647 21.26830947113813,18.25994525422647&#10;c 19.736642450634534,0 29.186642450634533,-7.484148546485536 19.736642450634534,-8.570406287219974&#10;c -9.45,-20.46777777777778 33.074999999999996,-12.595555555555556 59.013357549365466,-34.18494900255014 L 1890 0 " fill="none" stroke="black" stroke-width="0.1" style="vector-effect:non-scaling-stroke;" /></g></g></svg>