<?xml version="1.0" standalone="no"?>
<!DOCTYPE svg PUBLIC "-//W3C//DTD SVG 20010904//EN"
 "http://www.w3.org/TR/2001/REC-SVG-20010904/DTD/svg10.dtd">
<svg version="1.0" xmlns="http://www.w3.org/2000/svg"
 width="37.000000pt" height="30.000000pt" viewBox="0 0 37.000000 30.000000"
 preserveAspectRatio="xMidYMid meet">
<metadata>
Created by potrace 1.16, written by Peter Selinger 2001-2019
</metadata>
<g transform="translate(0.000000,30.000000) scale(0.100000,-0.100000)"
fill="#000000" stroke="none">
<path d="M6 263 l-6 -38 0 -22 0 -23 39 0 39 0 6 -16 6 -16 0 -5 0 -5 -34 6
-34 7 -6 -28 -5 -28 -6 -43 -7 -42 71 0 71 0 0 36 0 35 10 -6 9 -6 -5 -28 -6
-29 22 -7 22 -7 55 7 55 7 -5 21 -5 22 -7 23 -7 22 35 0 36 0 11 19 10 20 0
25 0 25 -19 11 -20 10 -18 0 -18 0 3 45 4 45 -145 0 -144 0 -7 -37z"/>
</g>
</svg>
