<?xml version="1.0" standalone="no"?>
<!DOCTYPE svg PUBLIC "-//W3C//DTD SVG 20010904//EN"
 "http://www.w3.org/TR/2001/REC-SVG-20010904/DTD/svg10.dtd">
<svg version="1.0" xmlns="http://www.w3.org/2000/svg"
 width="35.000000pt" height="28.000000pt" viewBox="0 0 35.000000 28.000000"
 preserveAspectRatio="xMidYMid meet">
<metadata>
Created by potrace 1.16, written by Peter Selinger 2001-2019
</metadata>
<g transform="translate(0.000000,28.000000) scale(0.100000,-0.100000)"
fill="#000000" stroke="none">
<path d="M10 268 l0 -13 -6 -37 -7 -38 37 0 37 0 15 -14 14 -15 -6 -16 -7 -17
-33 4 -34 4 -6 -36 -5 -35 -5 -22 -4 -23 61 0 61 0 -5 29 -6 29 13 11 13 11
13 -15 12 -15 -6 -24 -6 -25 20 -6 20 -6 45 7 46 6 -7 17 -7 16 -4 27 -5 27
38 3 39 3 9 28 10 27 -12 12 -12 12 -28 2 -27 1 3 47 4 46 -136 0 -136 0 0
-12z"/>
</g>
</svg>
