<?xml version="1.0" standalone="no"?>
<!DOCTYPE svg PUBLIC "-//W3C//DTD SVG 20010904//EN"
 "http://www.w3.org/TR/2001/REC-SVG-20010904/DTD/svg10.dtd">
<svg version="1.0" xmlns="http://www.w3.org/2000/svg"
 width="42.000000pt" height="28.000000pt" viewBox="0 0 42.000000 28.000000"
 preserveAspectRatio="xMidYMid meet">
<metadata>
Created by potrace 1.16, written by Peter Selinger 2001-2019
</metadata>
<g transform="translate(0.000000,28.000000) scale(0.100000,-0.100000)"
fill="#000000" stroke="none">
<path d="M87 239 l-5 -42 -14 -9 -13 -8 -22 3 -22 4 -6 -15 -5 -15 5 -18 6
-19 21 3 22 2 16 -55 16 -55 28 -3 28 -4 24 6 24 6 0 36 0 35 16 6 17 6 16
-10 16 -11 -3 -25 -3 -25 8 -5 8 -4 47 -7 47 -7 -6 55 -6 54 34 -1 34 -2 0 40
0 40 -27 -2 -28 -2 0 45 0 44 -134 0 -133 0 -6 -41z"/>
</g>
</svg>
