<?xml version="1.0" standalone="no"?>
<!DOCTYPE svg PUBLIC "-//W3C//DTD SVG 20010904//EN"
 "http://www.w3.org/TR/2001/REC-SVG-20010904/DTD/svg10.dtd">
<svg version="1.0" xmlns="http://www.w3.org/2000/svg"
 width="38.000000pt" height="44.000000pt" viewBox="0 0 38.000000 44.000000"
 preserveAspectRatio="xMidYMid meet">
<metadata>
Created by potrace 1.16, written by Peter Selinger 2001-2019
</metadata>
<g transform="translate(0.000000,44.000000) scale(0.100000,-0.100000)"
fill="#000000" stroke="none">
<path d="M180 401 l0 -41 -20 0 -19 0 -26 12 -26 12 -10 -15 -9 -14 0 -37 0
-38 -19 0 -19 0 -16 -6 -16 -6 0 -20 0 -19 10 -20 11 -19 26 0 26 0 -6 -55 -5
-54 56 -3 56 -3 1 -35 0 -35 41 -3 42 -3 16 16 16 16 0 26 0 26 39 -7 38 -6 7
38 6 37 0 33 0 34 -30 -7 -31 -7 -14 12 -15 12 0 14 0 13 38 3 37 3 -1 53 -2
53 -5 5 -4 5 -44 7 -43 7 -6 25 -6 25 -37 3 -37 3 0 -40z"/>
</g>
</svg>
