<?xml version="1.0" standalone="no"?>
<!DOCTYPE svg PUBLIC "-//W3C//DTD SVG 20010904//EN"
 "http://www.w3.org/TR/2001/REC-SVG-20010904/DTD/svg10.dtd">
<svg version="1.0" xmlns="http://www.w3.org/2000/svg"
 width="44.000000pt" height="43.000000pt" viewBox="0 0 44.000000 43.000000"
 preserveAspectRatio="xMidYMid meet">
<metadata>
Created by potrace 1.16, written by Peter Selinger 2001-2019
</metadata>
<g transform="translate(0.000000,43.000000) scale(0.100000,-0.100000)"
fill="#000000" stroke="none">
<path d="M200 407 l0 -23 -12 -12 -12 -12 -43 0 -43 0 0 -27 0 -28 -6 -22 -6
-23 -39 0 -39 0 0 -30 0 -30 23 -5 22 -4 25 -3 25 -3 -2 -30 -1 -30 -8 -29 -7
-29 47 6 46 7 0 -28 0 -28 12 -12 12 -12 31 0 31 0 12 12 12 12 0 23 0 23 56
0 56 0 -6 24 -6 24 -6 16 -6 15 37 15 36 15 -3 48 -3 48 -27 3 -28 3 0 45 0
44 -13 0 -13 0 -11 -11 -11 -11 -28 4 -29 3 3 27 3 27 -20 10 -20 11 -20 0
-21 0 0 -23z"/>
</g>
</svg>
