<?xml version="1.0" standalone="no"?>
<!DOCTYPE svg PUBLIC "-//W3C//DTD SVG 20010904//EN"
 "http://www.w3.org/TR/2001/REC-SVG-20010904/DTD/svg10.dtd">
<svg version="1.0" xmlns="http://www.w3.org/2000/svg"
 width="27.000000pt" height="42.000000pt" viewBox="0 0 27.000000 42.000000"
 preserveAspectRatio="xMidYMid meet">
<metadata>
Created by potrace 1.16, written by Peter Selinger 2001-2019
</metadata>
<g transform="translate(0.000000,42.000000) scale(0.100000,-0.100000)"
fill="#000000" stroke="none">
<path d="M124 414 l-12 -5 5 -21 6 -20 -14 -9 -14 -9 -47 0 -48 0 0 -24 0 -25
10 -26 10 -27 26 6 25 7 -3 -38 -3 -38 -17 1 -18 2 -6 -37 -7 -36 -9 -19 -10
-19 40 7 40 6 15 -6 14 -5 -4 -22 -4 -22 14 -20 15 -19 26 13 26 14 0 40 0 40
40 -7 41 -6 -3 132 -3 132 -43 16 -44 15 -9 18 -10 17 -7 -1 -7 -1 -11 -4z"/>
</g>
</svg>
