<?xml version="1.0" standalone="no"?>
<!DOCTYPE svg PUBLIC "-//W3C//DTD SVG 20010904//EN"
 "http://www.w3.org/TR/2001/REC-SVG-20010904/DTD/svg10.dtd">
<svg version="1.0" xmlns="http://www.w3.org/2000/svg"
 width="29.000000pt" height="44.000000pt" viewBox="0 0 29.000000 44.000000"
 preserveAspectRatio="xMidYMid meet">
<metadata>
Created by potrace 1.16, written by Peter Selinger 2001-2019
</metadata>
<g transform="translate(0.000000,44.000000) scale(0.100000,-0.100000)"
fill="#000000" stroke="none">
<path d="M121 431 l-14 -9 7 -18 7 -17 -13 -9 -13 -8 -47 0 -48 0 0 -34 0 -35
10 -25 10 -26 25 0 25 0 0 -20 0 -20 -19 0 -19 0 -10 -42 -11 -43 -7 -24 -7
-23 49 3 48 4 6 -31 7 -31 7 -11 7 -12 22 0 22 1 18 13 17 13 0 38 0 37 23 -6
22 -6 20 -6 20 -5 -3 138 -3 138 -4 12 -4 12 -40 11 -41 11 -10 19 -11 20 -17
0 -17 0 -14 -9z"/>
</g>
</svg>
