<?xml version="1.0" standalone="no"?>
<!DOCTYPE svg PUBLIC "-//W3C//DTD SVG 20010904//EN"
 "http://www.w3.org/TR/2001/REC-SVG-20010904/DTD/svg10.dtd">
<svg version="1.0" xmlns="http://www.w3.org/2000/svg"
 width="42.000000pt" height="41.000000pt" viewBox="0 0 42.000000 41.000000"
 preserveAspectRatio="xMidYMid meet">
<metadata>
Created by potrace 1.16, written by Peter Selinger 2001-2019
</metadata>
<g transform="translate(0.000000,41.000000) scale(0.100000,-0.100000)"
fill="#000000" stroke="none">
<path d="M179 403 l-1 -8 2 -22 1 -23 -43 0 -43 0 -10 -8 -10 -7 0 -45 0 -45
-33 3 -32 4 -6 -17 -7 -16 12 -26 12 -25 30 6 31 6 -4 -45 -3 -46 21 -5 21 -5
29 3 29 3 3 -35 4 -35 11 -7 12 -8 22 0 21 0 10 29 10 28 32 6 31 7 13 13 13
12 -8 20 -8 20 0 23 -1 22 25 -6 24 -6 16 16 16 16 -3 32 -3 33 -34 3 -33 3 4
35 4 34 -58 0 -58 0 2 33 3 32 -32 3 -33 3 -1 -8z"/>
</g>
</svg>
