<?xml version="1.0" standalone="no"?>
<!DOCTYPE svg PUBLIC "-//W3C//DTD SVG 20010904//EN"
 "http://www.w3.org/TR/2001/REC-SVG-20010904/DTD/svg10.dtd">
<svg version="1.0" xmlns="http://www.w3.org/2000/svg"
 width="35.000000pt" height="36.000000pt" viewBox="0 0 35.000000 36.000000"
 preserveAspectRatio="xMidYMid meet">
<metadata>
Created by potrace 1.16, written by Peter Selinger 2001-2019
</metadata>
<g transform="translate(0.000000,36.000000) scale(0.100000,-0.100000)"
fill="#000000" stroke="none">
<path d="M160 331 l0 -29 -12 -5 -13 -4 -34 5 -34 5 6 -51 6 -51 -37 -3 -37
-3 -3 -37 -3 -38 24 0 25 0 6 -16 6 -16 0 -43 0 -44 58 6 57 6 13 10 12 10 -2
26 -3 26 15 0 15 0 3 -37 3 -38 23 -6 23 -5 34 8 34 9 3 68 3 68 -25 -6 -25
-6 -10 19 -11 19 16 6 16 6 19 0 19 0 0 55 0 55 -25 5 -25 5 -25 5 -25 5 0 20
0 20 -45 0 -45 0 0 -29z"/>
</g>
</svg>
