<?xml version="1.0" standalone="no"?>
<!DOCTYPE svg PUBLIC "-//W3C//DTD SVG 20010904//EN"
 "http://www.w3.org/TR/2001/REC-SVG-20010904/DTD/svg10.dtd">
<svg version="1.0" xmlns="http://www.w3.org/2000/svg"
 width="33.000000pt" height="34.000000pt" viewBox="0 0 33.000000 34.000000"
 preserveAspectRatio="xMidYMid meet">
<metadata>
Created by potrace 1.16, written by Peter Selinger 2001-2019
</metadata>
<g transform="translate(0.000000,34.000000) scale(0.100000,-0.100000)"
fill="#000000" stroke="none">
<path d="M164 315 l6 -24 -20 -11 -21 -11 -30 6 -30 7 3 -53 3 -53 -35 0 -35
-1 -3 -27 -3 -28 25 0 25 0 6 -19 6 -20 2 -38 1 -38 46 3 45 4 10 9 9 9 1 27
0 28 18 3 18 4 14 -12 14 -12 -5 -28 -6 -28 18 -6 19 -6 30 8 30 8 3 56 3 55
-25 -4 -25 -5 -13 27 -12 26 15 10 14 9 23 0 22 0 0 45 0 45 -27 5 -28 6 -25
7 -25 8 1 17 2 17 -35 0 -35 0 6 -25z"/>
</g>
</svg>
