<?xml version="1.0" standalone="no"?>
<!DOCTYPE svg PUBLIC "-//W3C//DTD SVG 20010904//EN"
 "http://www.w3.org/TR/2001/REC-SVG-20010904/DTD/svg10.dtd">
<svg version="1.0" xmlns="http://www.w3.org/2000/svg"
 width="36.000000pt" height="40.000000pt" viewBox="0 0 36.000000 40.000000"
 preserveAspectRatio="xMidYMid meet">
<metadata>
Created by potrace 1.16, written by Peter Selinger 2001-2019
</metadata>
<g transform="translate(0.000000,40.000000) scale(0.100000,-0.100000)"
fill="#000000" stroke="none">
<path d="M190 378 l2 -23 -1 -12 -1 -13 -50 0 -50 0 0 -43 0 -43 -11 -11 -11
-11 -34 5 -34 6 0 -25 0 -26 13 -10 13 -11 21 5 21 6 6 -19 6 -19 2 -41 1 -41
24 9 24 9 29 0 29 0 3 -32 3 -33 34 -3 34 -3 -5 24 -5 25 46 9 46 8 5 35 6 35
-4 11 -3 12 -20 -5 -20 -6 -21 23 -21 22 9 27 9 26 33 3 32 3 0 37 0 37 -52 0
-53 0 -1 26 -1 26 -7 12 -7 11 -20 0 -20 0 1 -22z"/>
</g>
</svg>
