<?xml version="1.0" standalone="no"?>
<!DOCTYPE svg PUBLIC "-//W3C//DTD SVG 20010904//EN"
 "http://www.w3.org/TR/2001/REC-SVG-20010904/DTD/svg10.dtd">
<svg version="1.0" xmlns="http://www.w3.org/2000/svg"
 width="38.000000pt" height="42.000000pt" viewBox="0 0 38.000000 42.000000"
 preserveAspectRatio="xMidYMid meet">
<metadata>
Created by potrace 1.16, written by Peter Selinger 2001-2019
</metadata>
<g transform="translate(0.000000,42.000000) scale(0.100000,-0.100000)"
fill="#000000" stroke="none">
<path d="M190 385 l0 -35 -49 0 -50 0 -3 -47 -3 -48 -42 -3 -43 -3 0 -33 0
-34 15 -12 15 -12 19 5 20 5 5 -15 6 -15 0 -45 0 -45 23 6 22 7 32 6 32 5 3
-33 3 -34 43 -3 42 -3 0 25 0 25 42 8 43 9 7 39 7 40 -6 18 -5 19 -22 -6 -22
-5 -17 20 -17 20 10 19 11 20 29 0 30 0 0 49 0 49 -52 -2 -53 -1 3 17 3 18
-11 20 -11 20 -29 0 -30 0 0 -35z"/>
</g>
</svg>
