<?xml version="1.0" standalone="no"?>
<!DOCTYPE svg PUBLIC "-//W3C//DTD SVG 20010904//EN"
 "http://www.w3.org/TR/2001/REC-SVG-20010904/DTD/svg10.dtd">
<svg version="1.0" xmlns="http://www.w3.org/2000/svg"
 width="30.000000pt" height="36.000000pt" viewBox="0 0 30.000000 36.000000"
 preserveAspectRatio="xMidYMid meet">
<metadata>
Created by potrace 1.16, written by Peter Selinger 2001-2019
</metadata>
<g transform="translate(0.000000,36.000000) scale(0.100000,-0.100000)"
fill="#000000" stroke="none">
<path d="M114 345 l-6 -15 5 -20 5 -20 -16 -1 -17 -1 -37 2 -38 2 0 -61 0 -61
34 0 35 0 6 -10 6 -10 -11 -20 -11 -21 -35 7 -34 6 0 -30 0 -30 6 -31 7 -31
58 0 58 0 3 42 3 43 18 3 17 3 0 -31 0 -30 26 -10 25 -10 34 0 33 0 6 16 6 16
0 40 0 41 -28 -6 -28 -6 -11 7 -11 7 -4 20 -3 20 30 3 30 4 7 11 8 12 0 43 0
42 -49 0 -48 0 4 23 5 24 -17 16 -16 17 -25 0 -25 0 -5 -15z"/>
</g>
</svg>
