<?xml version="1.0" standalone="no"?>
<!DOCTYPE svg PUBLIC "-//W3C//DTD SVG 20010904//EN"
 "http://www.w3.org/TR/2001/REC-SVG-20010904/DTD/svg10.dtd">
<svg version="1.0" xmlns="http://www.w3.org/2000/svg"
 width="37.000000pt" height="35.000000pt" viewBox="0 0 37.000000 35.000000"
 preserveAspectRatio="xMidYMid meet">
<metadata>
Created by potrace 1.16, written by Peter Selinger 2001-2019
</metadata>
<g transform="translate(0.000000,35.000000) scale(0.100000,-0.100000)"
fill="#000000" stroke="none">
<path d="M110 315 l0 -35 -50 0 -50 0 0 -50 0 -49 28 5 28 6 13 -16 13 -15 -7
-21 -6 -20 -35 0 -34 0 0 -44 0 -44 -5 -14 -5 -13 57 5 58 5 0 27 1 28 12 12
11 11 16 -13 16 -13 -3 -31 -3 -31 58 -1 59 0 -6 23 -6 23 -6 24 -6 25 47 3
48 3 10 16 10 16 -7 27 -7 27 -28 -6 -29 -6 -8 13 -8 12 -6 36 -5 35 -58 9
-58 8 2 17 1 16 -1 13 -1 12 -25 0 -25 0 0 -35z"/>
</g>
</svg>
