<?xml version="1.0" standalone="no"?>
<!DOCTYPE svg PUBLIC "-//W3C//DTD SVG 20010904//EN"
 "http://www.w3.org/TR/2001/REC-SVG-20010904/DTD/svg10.dtd">
<svg version="1.0" xmlns="http://www.w3.org/2000/svg"
 width="39.000000pt" height="37.000000pt" viewBox="0 0 39.000000 37.000000"
 preserveAspectRatio="xMidYMid meet">
<metadata>
Created by potrace 1.16, written by Peter Selinger 2001-2019
</metadata>
<g transform="translate(0.000000,37.000000) scale(0.100000,-0.100000)"
fill="#000000" stroke="none">
<path d="M110 335 l0 -35 -50 0 -50 0 0 -61 0 -61 29 5 28 6 11 -11 10 -10 -5
-14 -5 -14 -33 0 -32 0 -6 -67 -5 -68 1 -1 2 -2 65 7 65 6 3 33 3 33 12 -4 12
-4 0 -34 0 -34 69 -3 68 -3 -4 33 -5 33 -8 18 -7 17 44 0 44 0 12 12 12 12 0
31 0 30 -9 14 -9 14 -26 -5 -26 -5 -7 11 -7 10 -6 35 -5 35 -59 11 -58 10 7 7
7 6 -7 21 -6 21 -35 0 -34 0 0 -35z"/>
</g>
</svg>
