<?xml version="1.0" standalone="no"?>
<!DOCTYPE svg PUBLIC "-//W3C//DTD SVG 20010904//EN"
 "http://www.w3.org/TR/2001/REC-SVG-20010904/DTD/svg10.dtd">
<svg version="1.0" xmlns="http://www.w3.org/2000/svg"
 width="47.000000pt" height="38.000000pt" viewBox="0 0 47.000000 38.000000"
 preserveAspectRatio="xMidYMid meet">
<metadata>
Created by potrace 1.16, written by Peter Selinger 2001-2019
</metadata>
<g transform="translate(0.000000,38.000000) scale(0.100000,-0.100000)"
fill="#000000" stroke="none">
<path d="M208 369 l-18 -10 0 -29 0 -28 -47 1 -47 2 -7 -38 -6 -37 -7 -8 -8
-7 -31 0 -32 0 -3 -27 -3 -27 11 -21 11 -20 34 0 35 0 0 -55 0 -55 47 6 48 5
23 5 22 4 0 30 0 30 8 0 8 0 11 -11 12 -12 -6 -27 -5 -28 12 -7 12 -7 54 7 54
6 0 20 0 19 16 39 16 40 21 3 22 3 3 28 3 28 -12 15 -12 15 -31 -3 -31 -3 -3
48 -3 47 -39 0 -38 0 -16 6 -15 6 6 15 6 16 -18 13 -19 14 -10 0 -11 -1 -17
-10z"/>
</g>
</svg>
