<?xml version="1.0" standalone="no"?>
<!DOCTYPE svg PUBLIC "-//W3C//DTD SVG 20010904//EN"
 "http://www.w3.org/TR/2001/REC-SVG-20010904/DTD/svg10.dtd">
<svg version="1.0" xmlns="http://www.w3.org/2000/svg"
 width="45.000000pt" height="36.000000pt" viewBox="0 0 45.000000 36.000000"
 preserveAspectRatio="xMidYMid meet">
<metadata>
Created by potrace 1.16, written by Peter Selinger 2001-2019
</metadata>
<g transform="translate(0.000000,36.000000) scale(0.100000,-0.100000)"
fill="#000000" stroke="none">
<path d="M206 347 l-17 -12 3 -25 3 -25 -50 0 -49 0 -6 -35 -6 -36 -8 -13 -8
-13 -30 6 -29 6 -6 -16 -6 -15 11 -25 12 -24 35 0 35 0 0 -53 0 -53 38 3 37 4
23 5 24 5 -6 23 -6 24 15 12 15 13 21 -19 21 -19 -6 -27 -5 -27 10 -7 10 -6
35 7 35 6 29 64 29 65 15 -6 16 -6 7 17 6 18 -10 16 -10 16 -34 0 -34 0 -3 48
-3 47 -42 0 -42 0 -14 9 -14 9 6 16 6 16 -18 9 -18 10 -17 -12z"/>
</g>
</svg>
