<?xml version="1.0" standalone="no"?>
<!DOCTYPE svg PUBLIC "-//W3C//DTD SVG 20010904//EN"
 "http://www.w3.org/TR/2001/REC-SVG-20010904/DTD/svg10.dtd">
<svg version="1.0" xmlns="http://www.w3.org/2000/svg"
 width="40.000000pt" height="43.000000pt" viewBox="0 0 40.000000 43.000000"
 preserveAspectRatio="xMidYMid meet">
<metadata>
Created by potrace 1.16, written by Peter Selinger 2001-2019
</metadata>
<g transform="translate(0.000000,43.000000) scale(0.100000,-0.100000)"
fill="#000000" stroke="none">
<path d="M175 418 l-6 -14 3 -24 3 -25 -47 -3 -48 -3 0 -44 0 -44 -37 -3 -38
-3 -3 -23 -4 -23 13 -15 12 -15 31 3 31 3 0 -55 0 -55 42 -3 42 -3 3 -32 3
-32 45 0 45 0 3 21 3 20 59 12 58 12 7 50 7 49 -7 11 -7 11 -26 -2 -27 -3 -13
8 -12 7 5 8 5 8 23 -4 24 -5 6 24 7 23 0 33 0 32 -20 20 -20 20 -22 0 -23 0
-22 6 -21 6 1 26 2 27 -38 3 -37 3 -5 -13z"/>
</g>
</svg>
