<?xml version="1.0" standalone="no"?>
<!DOCTYPE svg PUBLIC "-//W3C//DTD SVG 20010904//EN"
 "http://www.w3.org/TR/2001/REC-SVG-20010904/DTD/svg10.dtd">
<svg version="1.0" xmlns="http://www.w3.org/2000/svg"
 width="36.000000pt" height="35.000000pt" viewBox="0 0 36.000000 35.000000"
 preserveAspectRatio="xMidYMid meet">
<metadata>
Created by potrace 1.16, written by Peter Selinger 2001-2019
</metadata>
<g transform="translate(0.000000,35.000000) scale(0.100000,-0.100000)"
fill="#000000" stroke="none">
<path d="M124 339 l-7 -12 1 -29 1 -29 -13 -5 -13 -5 -41 9 -41 10 -5 -15 -6
-15 0 -23 0 -23 6 -16 6 -16 30 0 29 0 -3 -27 -3 -27 -25 -6 -25 -6 -3 -52 -3
-52 51 0 51 0 -1 23 -2 22 1 13 1 12 29 0 30 0 -2 -28 -2 -27 66 -3 66 -3 12
44 11 45 20 5 20 5 0 15 0 16 -10 26 -10 27 -30 -4 -30 -5 0 39 0 39 -52 -3
-53 -3 2 25 2 25 -5 23 -4 22 -20 0 -19 0 -7 -11z"/>
</g>
</svg>
