<?xml version="1.0" standalone="no"?>
<!DOCTYPE svg PUBLIC "-//W3C//DTD SVG 20010904//EN"
 "http://www.w3.org/TR/2001/REC-SVG-20010904/DTD/svg10.dtd">
<svg version="1.0" xmlns="http://www.w3.org/2000/svg"
 width="38.000000pt" height="37.000000pt" viewBox="0 0 38.000000 37.000000"
 preserveAspectRatio="xMidYMid meet">
<metadata>
Created by potrace 1.16, written by Peter Selinger 2001-2019
</metadata>
<g transform="translate(0.000000,37.000000) scale(0.100000,-0.100000)"
fill="#000000" stroke="none">
<path d="M119 343 l-10 -26 5 -13 5 -13 -7 -5 -8 -5 -44 10 -43 10 -8 -13 -9
-13 0 -37 0 -36 6 -16 6 -16 30 0 29 0 -3 -17 -3 -17 -25 -6 -25 -6 -3 -62 -3
-62 61 0 60 0 0 35 0 35 14 0 15 0 3 -27 3 -28 76 -3 76 -3 12 44 11 45 20 5
20 5 0 25 0 26 -10 25 -10 26 -30 0 -30 0 0 36 0 36 -52 -4 -53 -3 3 24 4 23
-6 24 -6 24 -30 0 -30 0 -11 -27z"/>
</g>
</svg>
