<?xml version="1.0" standalone="no"?>
<!DOCTYPE svg PUBLIC "-//W3C//DTD SVG 20010904//EN"
 "http://www.w3.org/TR/2001/REC-SVG-20010904/DTD/svg10.dtd">
<svg version="1.0" xmlns="http://www.w3.org/2000/svg"
 width="37.000000pt" height="42.000000pt" viewBox="0 0 37.000000 42.000000"
 preserveAspectRatio="xMidYMid meet">
<metadata>
Created by potrace 1.16, written by Peter Selinger 2001-2019
</metadata>
<g transform="translate(0.000000,42.000000) scale(0.100000,-0.100000)"
fill="#000000" stroke="none">
<path d="M123 383 l2 -38 -53 -3 -53 -3 -9 -24 -9 -23 8 -29 8 -28 37 2 37 3
-3 -23 -3 -22 -25 -3 -25 -4 -9 -8 -9 -9 -7 -46 -7 -45 49 0 48 0 0 -23 0 -23
14 -19 14 -20 29 11 28 10 0 29 1 30 49 0 50 0 5 45 5 45 29 5 29 5 11 18 11
17 -11 18 -11 17 -34 1 -34 0 3 52 4 52 -7 0 -6 0 -15 -15 -15 -15 -46 0 -45
0 7 29 6 30 -11 20 -11 21 -14 0 -14 0 2 -37z"/>
</g>
</svg>
