<?xml version="1.0" standalone="no"?>
<!DOCTYPE svg PUBLIC "-//W3C//DTD SVG 20010904//EN"
 "http://www.w3.org/TR/2001/REC-SVG-20010904/DTD/svg10.dtd">
<svg version="1.0" xmlns="http://www.w3.org/2000/svg"
 width="39.000000pt" height="44.000000pt" viewBox="0 0 39.000000 44.000000"
 preserveAspectRatio="xMidYMid meet">
<metadata>
Created by potrace 1.16, written by Peter Selinger 2001-2019
</metadata>
<g transform="translate(0.000000,44.000000) scale(0.100000,-0.100000)"
fill="#000000" stroke="none">
<path d="M122 403 l3 -38 -53 -3 -53 -3 -10 -27 -10 -26 8 -36 9 -35 37 0 37
0 -3 -10 -4 -10 -26 -3 -27 -3 -9 -17 -8 -17 -6 -47 -7 -48 50 0 50 0 0 -21 0
-20 10 -20 11 -19 25 0 25 0 20 10 19 11 0 31 0 31 49 -6 50 -6 3 47 3 47 25
3 25 4 13 10 12 10 0 27 0 27 -12 12 -12 12 -31 0 -30 0 3 50 4 50 -17 0 -16
0 -15 -15 -15 -15 -33 0 -33 0 5 29 4 29 -11 21 -12 21 -25 0 -26 0 4 -37z"/>
</g>
</svg>
