<?xml version="1.0" standalone="no"?>
<!DOCTYPE svg PUBLIC "-//W3C//DTD SVG 20010904//EN"
 "http://www.w3.org/TR/2001/REC-SVG-20010904/DTD/svg10.dtd">
<svg version="1.0" xmlns="http://www.w3.org/2000/svg"
 width="35.000000pt" height="34.000000pt" viewBox="0 0 35.000000 34.000000"
 preserveAspectRatio="xMidYMid meet">
<metadata>
Created by potrace 1.16, written by Peter Selinger 2001-2019
</metadata>
<g transform="translate(0.000000,34.000000) scale(0.100000,-0.100000)"
fill="#000000" stroke="none">
<path d="M114 325 l-6 -15 5 -21 5 -20 -13 -6 -14 -5 -46 10 -45 10 0 -139 0
-139 56 0 56 0 -6 28 -7 27 14 19 14 19 16 -6 15 -6 -4 -19 -5 -18 13 -11 13
-11 55 -7 55 -7 0 43 0 42 23 2 24 2 9 14 9 14 -2 25 -3 25 -30 0 -30 0 -3 47
-3 47 -62 3 -62 3 -3 33 -3 32 -15 0 -15 0 -5 -15z"/>
</g>
</svg>
