<?xml version="1.0" standalone="no"?>
<!DOCTYPE svg PUBLIC "-//W3C//DTD SVG 20010904//EN"
 "http://www.w3.org/TR/2001/REC-SVG-20010904/DTD/svg10.dtd">
<svg version="1.0" xmlns="http://www.w3.org/2000/svg"
 width="45.000000pt" height="34.000000pt" viewBox="0 0 45.000000 34.000000"
 preserveAspectRatio="xMidYMid meet">
<metadata>
Created by potrace 1.16, written by Peter Selinger 2001-2019
</metadata>
<g transform="translate(0.000000,34.000000) scale(0.100000,-0.100000)"
fill="#000000" stroke="none">
<path d="M184 326 l-5 -13 2 -9 1 -9 -1 -12 -1 -13 -49 0 -50 0 -3 -42 -3 -43
-23 3 -23 3 -15 -11 -14 -12 0 -28 0 -27 24 -13 25 -13 16 7 17 6 -4 -45 -3
-45 13 -5 14 -5 45 0 45 0 -6 24 -6 24 6 16 6 16 28 0 28 0 5 -19 5 -19 33
-10 34 -10 18 -7 18 -8 -7 52 -7 51 46 0 46 0 6 20 6 19 -11 21 -11 21 -32 -3
-32 -3 -3 38 -3 37 -55 -6 -55 -7 6 36 7 35 -20 11 -21 11 -16 0 -16 0 -5 -14z"/>
</g>
</svg>
