<?xml version="1.0" standalone="no"?>
<!DOCTYPE svg PUBLIC "-//W3C//DTD SVG 20010904//EN"
 "http://www.w3.org/TR/2001/REC-SVG-20010904/DTD/svg10.dtd">
<svg version="1.0" xmlns="http://www.w3.org/2000/svg"
 width="47.000000pt" height="36.000000pt" viewBox="0 0 47.000000 36.000000"
 preserveAspectRatio="xMidYMid meet">
<metadata>
Created by potrace 1.16, written by Peter Selinger 2001-2019
</metadata>
<g transform="translate(0.000000,36.000000) scale(0.100000,-0.100000)"
fill="#000000" stroke="none">
<path d="M187 353 l-7 -6 0 -29 0 -28 -50 0 -50 0 0 -40 0 -40 -28 0 -28 0
-12 -12 -12 -12 0 -34 0 -35 18 -13 17 -13 24 -1 24 0 -7 -39 -6 -39 16 -6 16
-6 55 0 55 0 -2 28 -2 27 1 13 1 12 19 0 19 0 4 -18 5 -19 51 -16 51 -17 12 0
12 0 -7 50 -7 50 45 0 46 0 6 26 7 25 -12 25 -11 24 -35 0 -35 0 0 36 0 36
-53 -6 -54 -7 5 32 5 32 -19 14 -18 13 -26 0 -27 0 -6 -7z"/>
</g>
</svg>
