<?xml version="1.0" standalone="no"?>
<!DOCTYPE svg PUBLIC "-//W3C//DTD SVG 20010904//EN"
 "http://www.w3.org/TR/2001/REC-SVG-20010904/DTD/svg10.dtd">
<svg version="1.0" xmlns="http://www.w3.org/2000/svg"
 width="32.000000pt" height="46.000000pt" viewBox="0 0 32.000000 46.000000"
 preserveAspectRatio="xMidYMid meet">
<metadata>
Created by potrace 1.16, written by Peter Selinger 2001-2019
</metadata>
<g transform="translate(0.000000,46.000000) scale(0.100000,-0.100000)"
fill="#000000" stroke="none">
<path d="M115 440 l-17 -19 4 -26 5 -25 -53 0 -54 0 0 -59 0 -59 14 -11 14
-12 24 3 23 3 4 -10 5 -10 -29 -5 -29 -5 -8 -34 -9 -33 3 -22 3 -21 40 -5 40
-5 5 -40 5 -40 50 0 49 0 6 25 6 25 40 8 39 9 13 26 12 26 0 43 0 44 -36 -3
-35 -2 -9 14 -9 15 24 3 24 3 9 12 9 12 6 58 6 57 -32 0 -32 0 -22 6 -23 6 0
24 0 23 -19 11 -20 10 -14 0 -14 0 -18 -20z"/>
</g>
</svg>
