<?xml version="1.0" standalone="no"?>
<!DOCTYPE svg PUBLIC "-//W3C//DTD SVG 20010904//EN"
 "http://www.w3.org/TR/2001/REC-SVG-20010904/DTD/svg10.dtd">
<svg version="1.0" xmlns="http://www.w3.org/2000/svg"
 width="28.000000pt" height="43.000000pt" viewBox="0 0 28.000000 43.000000"
 preserveAspectRatio="xMidYMid meet">
<metadata>
Created by potrace 1.16, written by Peter Selinger 2001-2019
</metadata>
<g transform="translate(0.000000,43.000000) scale(0.100000,-0.100000)"
fill="#000000" stroke="none">
<path d="M119 423 l-1 -8 2 -22 1 -22 -20 -10 -20 -11 -41 0 -41 0 3 -37 3
-38 35 -5 35 -5 0 -45 0 -45 -25 0 -25 0 -7 -15 -7 -15 0 -27 -1 -27 43 -3 42
-3 3 -42 3 -43 29 0 30 0 5 23 6 23 -3 15 -3 14 35 3 35 2 21 5 22 5 -12 52
-11 53 -23 3 -23 4 3 26 3 27 27 -3 27 -3 7 25 6 24 -4 23 -3 23 -35 12 -35
13 -28 6 -29 6 6 24 6 25 -20 0 -20 0 -1 -7z"/>
</g>
</svg>
