<?xml version="1.0" standalone="no"?>
<!DOCTYPE svg PUBLIC "-//W3C//DTD SVG 20010904//EN"
 "http://www.w3.org/TR/2001/REC-SVG-20010904/DTD/svg10.dtd">
<svg version="1.0" xmlns="http://www.w3.org/2000/svg"
 width="30.000000pt" height="45.000000pt" viewBox="0 0 30.000000 45.000000"
 preserveAspectRatio="xMidYMid meet">
<metadata>
Created by potrace 1.16, written by Peter Selinger 2001-2019
</metadata>
<g transform="translate(0.000000,45.000000) scale(0.100000,-0.100000)"
fill="#000000" stroke="none">
<path d="M115 440 l-6 -10 6 -19 6 -20 -20 -10 -20 -11 -41 0 -41 0 3 -47 3
-48 35 -5 35 -5 0 -35 0 -35 -26 3 -27 2 -6 -22 -6 -23 0 -32 0 -32 43 -3 42
-3 3 -43 3 -42 39 0 38 0 6 16 6 16 0 24 0 24 43 0 42 0 13 8 13 9 -13 59 -13
59 -23 3 -22 3 0 15 0 14 30 0 30 0 6 24 5 23 -3 34 -3 33 -35 12 -35 13 -26
5 -26 6 5 25 4 25 -30 0 -31 0 -6 -10z"/>
</g>
</svg>
