<?xml version="1.0" standalone="no"?>
<!DOCTYPE svg PUBLIC "-//W3C//DTD SVG 20010904//EN"
 "http://www.w3.org/TR/2001/REC-SVG-20010904/DTD/svg10.dtd">
<svg version="1.0" xmlns="http://www.w3.org/2000/svg"
 width="45.000000pt" height="42.000000pt" viewBox="0 0 45.000000 42.000000"
 preserveAspectRatio="xMidYMid meet">
<metadata>
Created by potrace 1.16, written by Peter Selinger 2001-2019
</metadata>
<g transform="translate(0.000000,42.000000) scale(0.100000,-0.100000)"
fill="#000000" stroke="none">
<path d="M201 406 l-11 -13 2 -24 3 -24 -50 -5 -50 -5 -3 -40 -3 -41 -34 4
-34 4 -12 -26 -12 -26 18 -20 18 -20 39 0 38 0 0 -14 0 -15 -10 -25 -9 -26 27
-5 27 -6 25 -7 24 -7 1 -30 0 -30 32 -3 31 -3 4 22 3 23 46 12 47 11 10 6 10
7 11 44 11 45 22 3 23 3 3 27 3 27 -21 11 -21 11 -19 -6 -20 -6 0 49 0 49 -55
-5 -56 -5 3 35 2 34 -8 12 -7 12 -18 0 -19 0 -11 -14z"/>
</g>
</svg>
