<?xml version="1.0" standalone="no"?>
<!DOCTYPE svg PUBLIC "-//W3C//DTD SVG 20010904//EN"
 "http://www.w3.org/TR/2001/REC-SVG-20010904/DTD/svg10.dtd">
<svg version="1.0" xmlns="http://www.w3.org/2000/svg"
 width="28.000000pt" height="28.000000pt" viewBox="0 0 28.000000 28.000000"
 preserveAspectRatio="xMidYMid meet">
<metadata>
Created by potrace 1.16, written by Peter Selinger 2001-2019
</metadata>
<g transform="translate(0.000000,28.000000) scale(0.100000,-0.100000)"
fill="#000000" stroke="none">
<path d="M10 236 l0 -45 28 2 27 2 0 -40 0 -40 -32 1 -33 2 0 -32 0 -31 6 -23
6 -22 35 0 34 0 20 11 20 10 -3 27 -3 26 17 4 18 3 9 -24 10 -25 8 -5 8 -5 46
-7 47 -7 -18 54 -18 53 -22 3 -21 4 3 26 3 27 38 -3 37 -3 0 51 0 50 -135 0
-135 0 0 -44z"/>
</g>
</svg>
