<?xml version="1.0" standalone="no"?>
<!DOCTYPE svg PUBLIC "-//W3C//DTD SVG 20010904//EN"
 "http://www.w3.org/TR/2001/REC-SVG-20010904/DTD/svg10.dtd">
<svg version="1.0" xmlns="http://www.w3.org/2000/svg"
 width="30.000000pt" height="38.000000pt" viewBox="0 0 30.000000 38.000000"
 preserveAspectRatio="xMidYMid meet">
<metadata>
Created by potrace 1.16, written by Peter Selinger 2001-2019
</metadata>
<g transform="translate(0.000000,38.000000) scale(0.100000,-0.100000)"
fill="#000000" stroke="none">
<path d="M194 353 l6 -28 -19 -24 -18 -24 -12 8 -12 7 6 28 6 29 -20 10 -20
11 -55 0 -55 0 6 -57 5 -58 4 -14 4 -13 25 4 25 5 0 -13 0 -14 -19 0 -19 0 -6
-16 -6 -16 0 -23 0 -24 -10 -6 -10 -6 0 -19 0 -19 58 -3 57 -3 -3 -31 -3 -32
26 -6 27 -7 19 6 19 6 0 24 0 25 23 4 22 5 28 6 27 5 0 60 0 60 -35 0 -34 0
-11 19 -10 20 0 5 0 6 35 0 34 0 11 19 10 20 0 39 0 40 -22 6 -23 6 -33 0 -34
0 6 -27z"/>
</g>
</svg>
