<?xml version="1.0" standalone="no"?>
<!DOCTYPE svg PUBLIC "-//W3C//DTD SVG 20010904//EN"
 "http://www.w3.org/TR/2001/REC-SVG-20010904/DTD/svg10.dtd">
<svg version="1.0" xmlns="http://www.w3.org/2000/svg"
 width="28.000000pt" height="36.000000pt" viewBox="0 0 28.000000 36.000000"
 preserveAspectRatio="xMidYMid meet">
<metadata>
Created by potrace 1.16, written by Peter Selinger 2001-2019
</metadata>
<g transform="translate(0.000000,36.000000) scale(0.100000,-0.100000)"
fill="#000000" stroke="none">
<path d="M197 336 l5 -24 -18 -26 -17 -27 -21 3 -21 3 -1 33 0 33 -15 10 -14
9 -45 0 -45 0 5 -57 5 -58 28 3 27 3 0 -26 0 -25 -19 0 -19 0 -6 -16 -6 -16 0
-23 0 -24 -10 -6 -10 -6 0 -9 0 -9 58 -3 57 -3 -1 -32 -2 -31 20 -5 20 -6 14
6 14 5 0 24 0 24 28 5 27 6 23 5 22 4 0 50 0 50 -35 0 -35 0 -12 24 -11 25 6
15 6 16 30 -6 29 -6 11 20 11 21 0 29 0 30 -22 6 -23 6 -21 0 -21 0 4 -24z"/>
</g>
</svg>
