<?xml version="1.0" standalone="no"?>
<!DOCTYPE svg PUBLIC "-//W3C//DTD SVG 20010904//EN"
 "http://www.w3.org/TR/2001/REC-SVG-20010904/DTD/svg10.dtd">
<svg version="1.0" xmlns="http://www.w3.org/2000/svg"
 width="31.000000pt" height="30.000000pt" viewBox="0 0 31.000000 30.000000"
 preserveAspectRatio="xMidYMid meet">
<metadata>
Created by potrace 1.16, written by Peter Selinger 2001-2019
</metadata>
<g transform="translate(0.000000,30.000000) scale(0.100000,-0.100000)"
fill="#000000" stroke="none">
<path d="M178 264 l-3 -39 -25 0 -24 0 -1 30 0 30 -58 3 -58 3 3 -63 3 -63 33
-3 32 -3 0 -15 0 -14 -34 0 -34 0 -4 -22 -5 -23 1 -40 1 -40 69 -3 69 -3 -5
25 -5 26 13 11 13 11 11 -7 10 -6 0 -25 0 -24 29 0 29 0 31 -6 31 -6 0 65 0
66 -37 3 -38 3 0 20 0 20 43 -2 43 -2 -7 57 -7 57 -2 3 -3 3 -55 6 -56 6 -3
-39z"/>
</g>
</svg>
