<?xml version="1.0" standalone="no"?>
<!DOCTYPE svg PUBLIC "-//W3C//DTD SVG 20010904//EN"
 "http://www.w3.org/TR/2001/REC-SVG-20010904/DTD/svg10.dtd">
<svg version="1.0" xmlns="http://www.w3.org/2000/svg"
 width="45.000000pt" height="30.000000pt" viewBox="0 0 45.000000 30.000000"
 preserveAspectRatio="xMidYMid meet">
<metadata>
Created by potrace 1.16, written by Peter Selinger 2001-2019
</metadata>
<g transform="translate(0.000000,30.000000) scale(0.100000,-0.100000)"
fill="#000000" stroke="none">
<path d="M94 270 l-5 -25 -10 -23 -9 -22 -32 2 -33 3 0 -40 0 -40 54 -3 53 -3
-5 -27 -6 -27 -6 -25 -6 -25 55 3 56 4 0 29 0 30 16 6 16 6 9 -14 9 -14 -1
-20 -1 -20 1 -12 1 -13 21 0 22 0 39 12 39 11 -5 13 -5 13 -7 35 -6 36 41 0
41 0 12 26 12 26 -19 15 -20 14 -22 -4 -22 -4 -3 46 -3 46 -46 3 -46 3 5 -30
4 -29 -30 -16 -31 -16 -16 17 -17 16 6 28 5 27 -50 4 -50 3 -5 -25z"/>
</g>
</svg>
