<?xml version="1.0" standalone="no"?>
<!DOCTYPE svg PUBLIC "-//W3C//DTD SVG 20010904//EN"
 "http://www.w3.org/TR/2001/REC-SVG-20010904/DTD/svg10.dtd">
<svg version="1.0" xmlns="http://www.w3.org/2000/svg"
 width="42.000000pt" height="37.000000pt" viewBox="0 0 42.000000 37.000000"
 preserveAspectRatio="xMidYMid meet">
<metadata>
Created by potrace 1.16, written by Peter Selinger 2001-2019
</metadata>
<g transform="translate(0.000000,37.000000) scale(0.100000,-0.100000)"
fill="#000000" stroke="none">
<path d="M80 337 l0 -34 -19 -21 -18 -22 -22 0 -21 0 0 -18 0 -18 12 -12 12
-12 29 0 30 0 -6 -64 -6 -65 49 6 49 6 3 -39 3 -39 37 -3 36 -3 16 23 16 22 0
28 0 28 30 -6 30 -6 15 12 15 12 0 23 0 23 6 16 6 16 19 0 19 0 0 35 0 35 -30
0 -30 0 0 50 0 50 -32 0 -33 0 -23 -7 -24 -6 5 -23 4 -22 -21 -10 -21 -9 -11
4 -11 4 5 26 5 26 -18 14 -19 13 -43 0 -43 0 0 -33z"/>
</g>
</svg>
