<?xml version="1.0" standalone="no"?>
<!DOCTYPE svg PUBLIC "-//W3C//DTD SVG 20010904//EN"
 "http://www.w3.org/TR/2001/REC-SVG-20010904/DTD/svg10.dtd">
<svg version="1.0" xmlns="http://www.w3.org/2000/svg"
 width="30.000000pt" height="27.000000pt" viewBox="0 0 30.000000 27.000000"
 preserveAspectRatio="xMidYMid meet">
<metadata>
Created by potrace 1.16, written by Peter Selinger 2001-2019
</metadata>
<g transform="translate(0.000000,27.000000) scale(0.100000,-0.100000)"
fill="#000000" stroke="none">
<path d="M12 228 l3 -43 25 0 25 0 3 -37 3 -37 -21 -11 -20 -11 -10 6 -9 6 -6
-23 -6 -24 10 -27 11 -27 32 0 33 0 13 8 13 9 -6 15 -6 15 15 12 15 13 23 -4
22 -3 1 -30 0 -30 45 -3 45 -2 14 9 14 9 1 43 1 43 -38 1 -38 2 -17 17 -17 16
11 17 11 17 34 0 34 1 3 44 3 44 -32 -7 -31 -6 -14 0 -14 0 -10 -26 -10 -25
-32 3 -33 3 0 30 -1 30 -47 3 -48 3 3 -43z"/>
</g>
</svg>
