<?xml version="1.0" standalone="no"?>
<!DOCTYPE svg PUBLIC "-//W3C//DTD SVG 20010904//EN"
 "http://www.w3.org/TR/2001/REC-SVG-20010904/DTD/svg10.dtd">
<svg version="1.0" xmlns="http://www.w3.org/2000/svg"
 width="39.000000pt" height="36.000000pt" viewBox="0 0 39.000000 36.000000"
 preserveAspectRatio="xMidYMid meet">
<metadata>
Created by potrace 1.16, written by Peter Selinger 2001-2019
</metadata>
<g transform="translate(0.000000,36.000000) scale(0.100000,-0.100000)"
fill="#000000" stroke="none">
<path d="M264 313 l1 -48 -29 -3 -28 -4 -11 11 -10 10 1 31 1 30 -51 0 -51 0
6 -48 6 -47 -39 3 -38 4 -12 -22 -11 -21 12 -15 11 -14 35 0 34 0 -1 -48 -2
-47 1 -12 1 -12 32 10 33 9 22 0 23 0 -2 -31 -3 -31 17 -11 16 -11 16 13 16
13 0 34 0 34 24 0 25 0 25 -9 24 -10 11 13 11 13 6 47 7 46 -14 1 -14 1 -35 1
-35 2 0 25 0 25 35 0 35 0 3 46 3 46 -39 11 -39 12 -15 0 -14 0 0 -47z"/>
</g>
</svg>
