<?xml version="1.0" standalone="no"?>
<!DOCTYPE svg PUBLIC "-//W3C//DTD SVG 20010904//EN"
 "http://www.w3.org/TR/2001/REC-SVG-20010904/DTD/svg10.dtd">
<svg version="1.0" xmlns="http://www.w3.org/2000/svg"
 width="41.000000pt" height="38.000000pt" viewBox="0 0 41.000000 38.000000"
 preserveAspectRatio="xMidYMid meet">
<metadata>
Created by potrace 1.16, written by Peter Selinger 2001-2019
</metadata>
<g transform="translate(0.000000,38.000000) scale(0.100000,-0.100000)"
fill="#000000" stroke="none">
<path d="M263 333 l2 -48 -25 0 -25 0 -3 38 -3 37 -60 0 -59 0 0 -45 0 -45
-35 0 -35 0 -12 -26 -12 -26 11 -16 10 -17 38 -3 38 -3 -6 -48 -6 -47 8 -13 8
-13 39 11 39 11 11 0 11 0 -5 -25 -4 -25 12 -15 12 -15 22 0 22 0 12 12 12 12
0 33 0 33 14 0 13 0 32 -11 33 -12 14 15 15 15 6 56 6 57 -14 2 -14 1 -35 1
-35 1 0 15 0 15 35 0 35 0 3 56 3 56 -39 11 -39 12 -27 0 -26 0 3 -47z"/>
</g>
</svg>
