<?xml version="1.0" standalone="no"?>
<!DOCTYPE svg PUBLIC "-//W3C//DTD SVG 20010904//EN"
 "http://www.w3.org/TR/2001/REC-SVG-20010904/DTD/svg10.dtd">
<svg version="1.0" xmlns="http://www.w3.org/2000/svg"
 width="29.000000pt" height="37.000000pt" viewBox="0 0 29.000000 37.000000"
 preserveAspectRatio="xMidYMid meet">
<metadata>
Created by potrace 1.16, written by Peter Selinger 2001-2019
</metadata>
<g transform="translate(0.000000,37.000000) scale(0.100000,-0.100000)"
fill="#000000" stroke="none">
<path d="M170 332 l0 -40 -15 -12 -15 -12 -26 6 -26 7 5 25 4 25 -19 10 -19
10 -27 -3 -27 -3 -3 -47 -3 -48 31 0 31 0 -3 -22 -3 -23 -28 3 -28 3 3 -63 3
-63 48 -3 48 -3 -2 -27 -3 -27 7 -13 8 -12 28 0 29 0 12 15 12 15 -5 15 -6 14
7 5 7 4 40 3 40 4 7 15 7 15 0 48 1 47 -29 0 -29 0 -10 13 -11 13 8 12 7 12
25 -2 24 -3 3 48 3 47 -23 9 -23 8 -32 8 -33 7 0 -40z"/>
</g>
</svg>
