<?xml version="1.0" standalone="no"?>
<!DOCTYPE svg PUBLIC "-//W3C//DTD SVG 20010904//EN"
 "http://www.w3.org/TR/2001/REC-SVG-20010904/DTD/svg10.dtd">
<svg version="1.0" xmlns="http://www.w3.org/2000/svg"
 width="31.000000pt" height="31.000000pt" viewBox="0 0 31.000000 31.000000"
 preserveAspectRatio="xMidYMid meet">
<metadata>
Created by potrace 1.16, written by Peter Selinger 2001-2019
</metadata>
<g transform="translate(0.000000,31.000000) scale(0.100000,-0.100000)"
fill="#000000" stroke="none">
<path d="M203 284 l4 -25 -14 -15 -15 -15 -17 3 -16 3 -3 33 -3 32 -60 0 -59
0 0 -43 0 -43 13 -19 14 -18 26 5 27 5 6 -19 6 -19 -12 -14 -12 -15 -44 0 -44
0 0 -20 0 -20 12 -39 12 -40 51 6 50 6 7 11 8 11 0 23 0 22 23 0 22 0 10 -22
10 -22 30 -7 30 -7 23 -7 22 -7 0 62 0 63 -30 -6 -30 -6 -10 19 -11 20 6 10 6
10 32 -3 32 -2 0 58 -1 58 -14 9 -15 10 -39 0 -38 0 5 -26z"/>
</g>
</svg>
