<?xml version="1.0" standalone="no"?>
<!DOCTYPE svg PUBLIC "-//W3C//DTD SVG 20010904//EN"
 "http://www.w3.org/TR/2001/REC-SVG-20010904/DTD/svg10.dtd">
<svg version="1.0" xmlns="http://www.w3.org/2000/svg"
 width="29.000000pt" height="34.000000pt" viewBox="0 0 29.000000 34.000000"
 preserveAspectRatio="xMidYMid meet">
<metadata>
Created by potrace 1.16, written by Peter Selinger 2001-2019
</metadata>
<g transform="translate(0.000000,34.000000) scale(0.100000,-0.100000)"
fill="#000000" stroke="none">
<path d="M4 326 l-5 -14 3 -34 3 -33 33 0 33 0 9 -15 10 -15 -3 -15 -2 -15
-28 -3 -27 -3 -6 -40 -7 -39 -8 -6 -9 -5 0 -10 0 -9 49 0 50 0 3 -32 3 -33 18
-3 18 -4 21 18 20 19 -4 27 -5 28 23 0 23 0 25 -10 25 -9 11 34 11 35 -3 22
-3 23 -25 0 -25 0 -12 8 -13 8 0 20 0 19 30 0 30 0 0 8 1 7 8 43 8 42 -139 0
-139 0 -5 -14z"/>
</g>
</svg>
