<?xml version="1.0" standalone="no"?>
<!DOCTYPE svg PUBLIC "-//W3C//DTD SVG 20010904//EN"
 "http://www.w3.org/TR/2001/REC-SVG-20010904/DTD/svg10.dtd">
<svg version="1.0" xmlns="http://www.w3.org/2000/svg"
 width="39.000000pt" height="36.000000pt" viewBox="0 0 39.000000 36.000000"
 preserveAspectRatio="xMidYMid meet">
<metadata>
Created by potrace 1.16, written by Peter Selinger 2001-2019
</metadata>
<g transform="translate(0.000000,36.000000) scale(0.100000,-0.100000)"
fill="#000000" stroke="none">
<path d="M112 333 l3 -28 -57 -3 -58 -3 0 -44 0 -43 6 -16 6 -16 35 0 34 0 -3
-17 -3 -18 -31 -3 -32 -3 -6 -37 -6 -37 0 -27 0 -28 23 0 22 0 38 7 39 6 11
26 11 26 3 4 3 4 15 -13 15 -13 -6 -20 -6 -19 13 -9 14 -9 36 0 35 0 27 13 27
12 0 33 0 32 27 11 28 10 7 12 8 12 0 27 0 26 -6 16 -6 16 -33 0 -33 0 -6 16
-6 16 0 25 0 26 -32 -8 -33 -7 -20 -2 -20 -1 3 23 3 23 -11 15 -12 14 -35 0
-34 0 3 -27z"/>
</g>
</svg>
