<?xml version="1.0" standalone="no"?>
<!DOCTYPE svg PUBLIC "-//W3C//DTD SVG 20010904//EN"
 "http://www.w3.org/TR/2001/REC-SVG-20010904/DTD/svg10.dtd">
<svg version="1.0" xmlns="http://www.w3.org/2000/svg"
 width="36.000000pt" height="39.000000pt" viewBox="0 0 36.000000 39.000000"
 preserveAspectRatio="xMidYMid meet">
<metadata>
Created by potrace 1.16, written by Peter Selinger 2001-2019
</metadata>
<g transform="translate(0.000000,39.000000) scale(0.100000,-0.100000)"
fill="#000000" stroke="none">
<path d="M180 356 l0 -34 -15 -12 -14 -12 -18 4 -17 3 -1 30 0 30 -57 3 -58 3
0 -35 0 -34 6 -16 6 -16 33 0 34 0 6 -19 5 -18 -6 -17 -6 -16 -24 0 -23 0 -11
-41 -11 -41 5 -14 5 -14 36 0 35 0 0 -29 0 -29 6 -16 6 -16 28 0 28 0 16 6 16
6 0 39 0 39 45 0 45 0 0 43 0 42 8 11 7 11 24 -1 23 -1 11 16 10 16 -7 27 -7
27 -32 -3 -32 -3 -3 45 -3 45 -16 13 -17 12 -33 0 -33 0 0 -34z"/>
</g>
</svg>
