<?xml version="1.0" standalone="no"?>
<!DOCTYPE svg PUBLIC "-//W3C//DTD SVG 20010904//EN"
 "http://www.w3.org/TR/2001/REC-SVG-20010904/DTD/svg10.dtd">
<svg version="1.0" xmlns="http://www.w3.org/2000/svg"
 width="34.000000pt" height="37.000000pt" viewBox="0 0 34.000000 37.000000"
 preserveAspectRatio="xMidYMid meet">
<metadata>
Created by potrace 1.16, written by Peter Selinger 2001-2019
</metadata>
<g transform="translate(0.000000,37.000000) scale(0.100000,-0.100000)"
fill="#000000" stroke="none">
<path d="M184 355 l5 -15 -9 -24 -9 -25 -21 -11 -20 -11 -20 11 -21 11 3 27 3
27 -47 3 -48 3 0 -25 0 -24 6 -16 6 -16 33 0 33 0 6 -16 6 -16 0 -18 0 -19
-15 -15 -16 -15 -14 5 -14 6 -10 -38 -10 -37 5 -9 5 -8 35 0 34 0 0 -29 0 -29
6 -16 6 -16 22 0 21 0 12 8 12 7 3 40 3 40 43 -3 42 -4 0 44 0 43 9 14 9 14
21 -6 20 -5 11 14 12 13 -7 19 -6 20 -32 -2 -32 -1 -3 45 -3 45 -16 13 -17 12
-24 0 -24 0 6 -15z"/>
</g>
</svg>
