<?xml version="1.0" standalone="no"?>
<!DOCTYPE svg PUBLIC "-//W3C//DTD SVG 20010904//EN"
 "http://www.w3.org/TR/2001/REC-SVG-20010904/DTD/svg10.dtd">
<svg version="1.0" xmlns="http://www.w3.org/2000/svg"
 width="37.000000pt" height="36.000000pt" viewBox="0 0 37.000000 36.000000"
 preserveAspectRatio="xMidYMid meet">
<metadata>
Created by potrace 1.16, written by Peter Selinger 2001-2019
</metadata>
<g transform="translate(0.000000,36.000000) scale(0.100000,-0.100000)"
fill="#000000" stroke="none">
<path d="M190 329 l0 -30 -10 -20 -11 -19 -28 0 -29 0 -12 15 -12 15 -2 25 -1
25 -36 0 -37 0 -4 -37 -5 -38 4 -12 5 -12 31 -3 32 -3 0 -25 0 -25 -32 -3 -33
-3 0 -39 0 -38 -5 -14 -5 -13 50 3 50 4 0 -41 0 -41 23 0 23 0 18 13 17 13 1
32 1 33 46 -3 46 -3 0 50 0 50 27 -3 27 -3 20 11 21 11 0 9 0 9 -17 16 -16 17
-29 -6 -28 -5 0 48 0 49 -31 11 -32 11 -13 0 -14 0 0 -31z"/>
</g>
</svg>
