<?xml version="1.0" standalone="no"?>
<!DOCTYPE svg PUBLIC "-//W3C//DTD SVG 20010904//EN"
 "http://www.w3.org/TR/2001/REC-SVG-20010904/DTD/svg10.dtd">
<svg version="1.0" xmlns="http://www.w3.org/2000/svg"
 width="31.000000pt" height="37.000000pt" viewBox="0 0 31.000000 37.000000"
 preserveAspectRatio="xMidYMid meet">
<metadata>
Created by potrace 1.16, written by Peter Selinger 2001-2019
</metadata>
<g transform="translate(0.000000,37.000000) scale(0.100000,-0.100000)"
fill="#000000" stroke="none">
<path d="M173 325 l2 -44 -11 -11 -12 -12 -21 14 -21 13 0 32 0 33 -55 0 -55
0 0 -59 0 -59 16 -6 16 -6 19 0 19 0 0 -15 0 -15 -24 0 -25 0 -4 -7 -5 -8 -7
-52 -7 -53 44 0 43 0 10 -8 10 -7 0 -25 0 -25 38 -3 38 -3 15 12 14 11 0 30 0
30 23 -5 22 -5 21 -7 21 -7 6 39 7 38 0 27 0 27 -41 -2 -40 -1 -9 14 -9 15 9
9 10 10 28 1 27 0 3 58 3 57 -26 10 -26 10 -34 0 -33 0 1 -45z"/>
</g>
</svg>
