<?xml version="1.0" standalone="no"?>
<!DOCTYPE svg PUBLIC "-//W3C//DTD SVG 20010904//EN"
 "http://www.w3.org/TR/2001/REC-SVG-20010904/DTD/svg10.dtd">
<svg version="1.0" xmlns="http://www.w3.org/2000/svg"
 width="36.000000pt" height="36.000000pt" viewBox="0 0 36.000000 36.000000"
 preserveAspectRatio="xMidYMid meet">
<metadata>
Created by potrace 1.16, written by Peter Selinger 2001-2019
</metadata>
<g transform="translate(0.000000,36.000000) scale(0.100000,-0.100000)"
fill="#000000" stroke="none">
<path d="M165 348 l-4 -13 -3 -20 -3 -20 -43 -3 -42 -3 0 -37 0 -37 -8 -10 -7
-10 -25 0 -25 0 -3 -37 -3 -38 20 0 20 0 6 -10 6 -10 6 -51 6 -51 54 5 54 6
15 12 14 11 0 24 0 24 9 0 10 0 3 -32 3 -33 69 -3 69 -3 -7 23 -6 23 -11 48
-11 47 -24 0 -23 0 5 15 6 15 22 -6 22 -5 13 15 12 15 -3 43 -3 43 -50 5 -50
5 3 22 3 22 -20 10 -20 11 -26 0 -26 0 -4 -12z"/>
</g>
</svg>
