<?xml version="1.0" standalone="no"?>
<!DOCTYPE svg PUBLIC "-//W3C//DTD SVG 20010904//EN"
 "http://www.w3.org/TR/2001/REC-SVG-20010904/DTD/svg10.dtd">
<svg version="1.0" xmlns="http://www.w3.org/2000/svg"
 width="37.000000pt" height="42.000000pt" viewBox="0 0 37.000000 42.000000"
 preserveAspectRatio="xMidYMid meet">
<metadata>
Created by potrace 1.16, written by Peter Selinger 2001-2019
</metadata>
<g transform="translate(0.000000,42.000000) scale(0.100000,-0.100000)"
fill="#000000" stroke="none">
<path d="M128 388 l-3 -33 -45 -3 -45 -3 -9 -9 -9 -9 7 -34 6 -34 38 1 37 1 3
-30 4 -29 -18 -13 -18 -13 -39 0 -40 0 8 -32 7 -33 1 -17 1 -17 27 6 27 5 21
-12 22 -11 -6 -29 -6 -28 32 -7 33 -7 13 18 14 19 -5 34 -5 33 54 -7 54 -6 14
48 14 48 22 -1 21 -1 6 23 6 23 -7 11 -7 12 -27 -4 -27 -4 -13 14 -13 13 4 39
3 39 -45 6 -45 6 -13 5 -12 4 6 25 6 25 -25 0 -26 0 -3 -32z"/>
</g>
</svg>
