<?xml version="1.0" standalone="no"?>
<!DOCTYPE svg PUBLIC "-//W3C//DTD SVG 20010904//EN"
 "http://www.w3.org/TR/2001/REC-SVG-20010904/DTD/svg10.dtd">
<svg version="1.0" xmlns="http://www.w3.org/2000/svg"
 width="38.000000pt" height="43.000000pt" viewBox="0 0 38.000000 43.000000"
 preserveAspectRatio="xMidYMid meet">
<metadata>
Created by potrace 1.16, written by Peter Selinger 2001-2019
</metadata>
<g transform="translate(0.000000,43.000000) scale(0.100000,-0.100000)"
fill="#000000" stroke="none">
<path d="M101 421 l-14 -9 7 -27 7 -28 -50 6 -51 6 0 -60 0 -61 30 7 30 7 10
-27 10 -27 -6 -9 -5 -9 -14 0 -14 0 -10 -37 -11 -38 0 -17 0 -18 35 0 35 0 0
-34 0 -34 16 -6 16 -6 22 0 22 0 19 14 19 14 2 28 1 29 9 -2 9 -1 37 -7 36 -7
12 55 11 56 27 3 27 3 3 24 4 23 -6 23 -6 24 -38 3 -37 3 -3 38 -3 37 -54 0
-53 0 5 21 6 22 -18 13 -19 14 -20 0 -21 0 -14 -9z"/>
</g>
</svg>
