<?xml version="1.0" standalone="no"?>
<!DOCTYPE svg PUBLIC "-//W3C//DTD SVG 20010904//EN"
 "http://www.w3.org/TR/2001/REC-SVG-20010904/DTD/svg10.dtd">
<svg version="1.0" xmlns="http://www.w3.org/2000/svg"
 width="36.000000pt" height="41.000000pt" viewBox="0 0 36.000000 41.000000"
 preserveAspectRatio="xMidYMid meet">
<metadata>
Created by potrace 1.16, written by Peter Selinger 2001-2019
</metadata>
<g transform="translate(0.000000,41.000000) scale(0.100000,-0.100000)"
fill="#000000" stroke="none">
<path d="M103 404 l-12 -5 6 -31 6 -30 -52 3 -51 4 0 -46 0 -46 30 5 30 4 10
-27 10 -26 0 -16 0 -15 -20 -5 -20 -5 -10 -37 -10 -36 0 -7 0 -7 38 -3 37 -3
-3 -32 -3 -32 24 -6 25 -7 21 12 21 11 1 12 1 12 2 20 1 20 20 -1 20 0 27 -7
27 -7 11 55 11 55 25 0 25 0 5 15 6 15 -6 24 -6 25 -38 3 -37 3 -3 38 -3 37
-56 0 -55 0 6 25 6 24 -19 11 -20 10 -8 -1 -8 -1 -12 -4z"/>
</g>
</svg>
