<?xml version="1.0" standalone="no"?>
<!DOCTYPE svg PUBLIC "-//W3C//DTD SVG 20010904//EN"
 "http://www.w3.org/TR/2001/REC-SVG-20010904/DTD/svg10.dtd">
<svg version="1.0" xmlns="http://www.w3.org/2000/svg"
 width="30.000000pt" height="36.000000pt" viewBox="0 0 30.000000 36.000000"
 preserveAspectRatio="xMidYMid meet">
<metadata>
Created by potrace 1.16, written by Peter Selinger 2001-2019
</metadata>
<g transform="translate(0.000000,36.000000) scale(0.100000,-0.100000)"
fill="#000000" stroke="none">
<path d="M117 353 l-7 -6 0 -35 0 -34 -50 7 -50 7 -2 -31 -1 -31 -1 -17 -1
-17 34 0 34 -1 11 -17 11 -18 -11 -17 -11 -18 -29 -5 -29 -5 -3 -43 -3 -42 15
-6 16 -6 35 6 35 7 0 25 0 25 16 6 17 6 16 -10 16 -11 -3 -25 -3 -26 18 -10
18 -9 38 13 38 13 7 6 6 6 0 47 1 47 -40 -2 -40 -2 -13 9 -14 8 4 19 3 19 33
0 33 1 9 14 10 15 0 37 0 37 -57 -2 -58 -2 -1 26 -1 26 -7 12 -7 11 -13 0 -13
0 -6 -7z"/>
</g>
</svg>
