<?xml version="1.0" standalone="no"?>
<!DOCTYPE svg PUBLIC "-//W3C//DTD SVG 20010904//EN"
 "http://www.w3.org/TR/2001/REC-SVG-20010904/DTD/svg10.dtd">
<svg version="1.0" xmlns="http://www.w3.org/2000/svg"
 width="32.000000pt" height="38.000000pt" viewBox="0 0 32.000000 38.000000"
 preserveAspectRatio="xMidYMid meet">
<metadata>
Created by potrace 1.16, written by Peter Selinger 2001-2019
</metadata>
<g transform="translate(0.000000,38.000000) scale(0.100000,-0.100000)"
fill="#000000" stroke="none">
<path d="M117 373 l-7 -6 0 -33 0 -33 -49 6 -48 5 -7 -51 -7 -52 7 -10 6 -10
27 6 28 6 13 -16 12 -15 -12 -14 -11 -15 -27 -3 -27 -3 0 -55 0 -55 24 -3 24
-4 33 6 33 7 3 27 3 27 15 0 15 0 3 -32 3 -33 20 -10 19 -11 38 11 37 10 15 9
14 10 1 58 0 58 -30 -3 -30 -2 -23 5 -23 6 4 12 4 12 25 -3 25 -3 17 16 16 16
0 50 0 50 -57 -3 -58 -3 3 17 3 18 -11 20 -11 20 -23 0 -23 0 -6 -7z"/>
</g>
</svg>
