<?xml version="1.0" standalone="no"?>
<!DOCTYPE svg PUBLIC "-//W3C//DTD SVG 20010904//EN"
 "http://www.w3.org/TR/2001/REC-SVG-20010904/DTD/svg10.dtd">
<svg version="1.0" xmlns="http://www.w3.org/2000/svg"
 width="42.000000pt" height="27.000000pt" viewBox="0 0 42.000000 27.000000"
 preserveAspectRatio="xMidYMid meet">
<metadata>
Created by potrace 1.16, written by Peter Selinger 2001-2019
</metadata>
<g transform="translate(0.000000,27.000000) scale(0.100000,-0.100000)"
fill="#000000" stroke="none">
<path d="M80 220 l0 -51 -37 3 -38 3 -3 -27 -3 -28 21 0 21 0 3 -12 4 -13 17
-48 17 -48 46 3 46 3 1 30 0 30 30 0 30 0 -3 -26 -2 -27 22 -6 23 -6 40 0 40
0 -3 49 -4 49 34 -1 33 -2 3 43 3 42 -13 1 -13 1 -20 2 -20 1 0 43 0 42 -137
0 -138 0 0 -50z"/>
</g>
</svg>
