<?xml version="1.0" standalone="no"?>
<!DOCTYPE svg PUBLIC "-//W3C//DTD SVG 20010904//EN"
 "http://www.w3.org/TR/2001/REC-SVG-20010904/DTD/svg10.dtd">
<svg version="1.0" xmlns="http://www.w3.org/2000/svg"
 width="32.000000pt" height="35.000000pt" viewBox="0 0 32.000000 35.000000"
 preserveAspectRatio="xMidYMid meet">
<metadata>
Created by potrace 1.16, written by Peter Selinger 2001-2019
</metadata>
<g transform="translate(0.000000,35.000000) scale(0.100000,-0.100000)"
fill="#000000" stroke="none">
<path d="M16 334 l-6 -16 0 -44 0 -44 38 0 39 0 6 -6 6 -7 -10 -19 -11 -20
-39 6 -39 6 0 -27 0 -28 6 -37 6 -37 42 -3 41 -3 0 -25 0 -25 58 -3 59 -3 5
20 5 19 34 7 34 6 15 36 15 35 0 29 0 28 -52 3 -53 3 0 30 0 30 32 -3 32 -3
10 20 11 20 0 30 0 31 -6 0 -6 0 -54 -16 -54 -15 0 -15 0 -14 -24 0 -24 0 -5
14 -6 14 6 21 5 21 -55 0 -55 0 -6 -16z"/>
</g>
</svg>
