<?xml version="1.0" standalone="no"?>
<!DOCTYPE svg PUBLIC "-//W3C//DTD SVG 20010904//EN"
 "http://www.w3.org/TR/2001/REC-SVG-20010904/DTD/svg10.dtd">
<svg version="1.0" xmlns="http://www.w3.org/2000/svg"
 width="30.000000pt" height="33.000000pt" viewBox="0 0 30.000000 33.000000"
 preserveAspectRatio="xMidYMid meet">
<metadata>
Created by potrace 1.16, written by Peter Selinger 2001-2019
</metadata>
<g transform="translate(0.000000,33.000000) scale(0.100000,-0.100000)"
fill="#000000" stroke="none">
<path d="M16 314 l-6 -16 0 -34 0 -34 40 0 41 0 5 -14 6 -14 -12 -22 -12 -22
-39 4 -39 4 0 -16 0 -15 6 -37 6 -37 42 -3 41 -3 0 -25 0 -25 50 0 50 0 0 15
0 14 38 9 38 9 14 35 15 35 0 19 0 18 -52 3 -53 3 0 40 0 40 32 -2 32 -3 11
21 11 20 -3 17 -3 18 -47 -14 -48 -13 0 -15 0 -14 -35 0 -35 0 -6 24 -6 25 7
10 6 11 -44 0 -45 0 -6 -16z"/>
</g>
</svg>
