<?xml version="1.0" standalone="no"?>
<!DOCTYPE svg PUBLIC "-//W3C//DTD SVG 20010904//EN"
 "http://www.w3.org/TR/2001/REC-SVG-20010904/DTD/svg10.dtd">
<svg version="1.0" xmlns="http://www.w3.org/2000/svg"
 width="28.000000pt" height="28.000000pt" viewBox="0 0 28.000000 28.000000"
 preserveAspectRatio="xMidYMid meet">
<metadata>
Created by potrace 1.16, written by Peter Selinger 2001-2019
</metadata>
<g transform="translate(0.000000,28.000000) scale(0.100000,-0.100000)"
fill="#000000" stroke="none">
<path d="M20 231 l0 -48 23 4 22 4 20 -14 19 -15 -12 -26 -12 -26 -40 0 -40 0
0 -12 0 -13 11 -38 10 -37 29 0 30 0 20 20 20 20 -7 16 -6 16 29 -4 29 -3 0
-20 1 -20 7 -13 8 -12 48 0 48 0 -4 27 -4 28 -5 23 -5 23 -8 -6 -9 -5 -16 6
-16 6 0 28 0 29 11 7 12 7 21 1 21 1 3 43 3 42 -23 -1 -23 -1 -30 -7 -30 -6 0
-20 0 -20 -23 -3 -23 -4 -15 13 -16 13 5 23 4 23 -43 0 -44 0 0 -49z"/>
</g>
</svg>
