<?xml version="1.0" standalone="no"?>
<!DOCTYPE svg PUBLIC "-//W3C//DTD SVG 20010904//EN"
 "http://www.w3.org/TR/2001/REC-SVG-20010904/DTD/svg10.dtd">
<svg version="1.0" xmlns="http://www.w3.org/2000/svg"
 width="30.000000pt" height="30.000000pt" viewBox="0 0 30.000000 30.000000"
 preserveAspectRatio="xMidYMid meet">
<metadata>
Created by potrace 1.16, written by Peter Selinger 2001-2019
</metadata>
<g transform="translate(0.000000,30.000000) scale(0.100000,-0.100000)"
fill="#000000" stroke="none">
<path d="M20 239 l0 -61 22 5 21 6 19 -10 18 -10 -10 -19 -11 -20 -41 0 -41 0
7 -46 6 -47 0 -19 0 -18 43 6 42 7 17 9 18 9 6 25 6 25 12 -4 11 -4 -3 -17 -3
-17 12 -15 11 -14 60 0 59 0 -6 38 -6 37 -5 23 -4 22 -26 0 -25 0 3 22 3 23
30 5 30 5 3 54 3 54 -57 -7 -57 -6 -8 -6 -9 -5 0 -20 0 -19 -14 0 -14 0 -10
13 -11 13 6 22 5 22 -56 0 -56 0 0 -61z"/>
</g>
</svg>
