<?xml version="1.0" standalone="no"?>
<!DOCTYPE svg PUBLIC "-//W3C//DTD SVG 20010904//EN"
 "http://www.w3.org/TR/2001/REC-SVG-20010904/DTD/svg10.dtd">
<svg version="1.0" xmlns="http://www.w3.org/2000/svg"
 width="28.000000pt" height="37.000000pt" viewBox="0 0 28.000000 37.000000"
 preserveAspectRatio="xMidYMid meet">
<metadata>
Created by potrace 1.16, written by Peter Selinger 2001-2019
</metadata>
<g transform="translate(0.000000,37.000000) scale(0.100000,-0.100000)"
fill="#000000" stroke="none">
<path d="M0 305 l0 -65 32 2 33 3 3 -23 4 -23 -22 -6 -21 -6 -6 -29 -6 -28 -8
-6 -9 -5 0 -20 0 -19 40 0 40 0 0 -29 0 -29 14 -11 15 -12 38 3 38 3 3 42 3
43 40 0 39 0 0 18 0 17 -11 38 -10 37 -23 0 -24 0 -6 16 -6 16 5 8 5 7 25 -5
25 -4 15 12 15 12 0 55 0 55 -22 -6 -23 -6 -39 0 -39 0 6 -29 6 -29 -15 -13
-14 -12 -18 17 -19 16 5 30 4 30 -56 0 -56 0 0 -65z"/>
</g>
</svg>
