<?xml version="1.0" standalone="no"?>
<!DOCTYPE svg PUBLIC "-//W3C//DTD SVG 20010904//EN"
 "http://www.w3.org/TR/2001/REC-SVG-20010904/DTD/svg10.dtd">
<svg version="1.0" xmlns="http://www.w3.org/2000/svg"
 width="37.000000pt" height="39.000000pt" viewBox="0 0 37.000000 39.000000"
 preserveAspectRatio="xMidYMid meet">
<metadata>
Created by potrace 1.16, written by Peter Selinger 2001-2019
</metadata>
<g transform="translate(0.000000,39.000000) scale(0.100000,-0.100000)"
fill="#000000" stroke="none">
<path d="M117 384 l-7 -7 0 -39 0 -38 -55 0 -55 0 0 -49 0 -50 16 -15 15 -16
25 0 24 0 0 -9 0 -10 -22 -3 -22 -3 -9 -35 -9 -35 -9 -10 -9 -9 0 -18 0 -19
67 3 68 3 3 28 3 28 12 -4 12 -4 5 -34 5 -34 24 -3 24 -4 43 12 42 12 9 47 8
46 23 3 22 3 0 39 0 38 -16 6 -16 6 -19 0 -19 0 0 50 0 50 -32 1 -33 0 -20 8
-19 8 -1 29 0 29 -35 3 -36 3 -7 -7z"/>
</g>
</svg>
