<?xml version="1.0" standalone="no"?>
<!DOCTYPE svg PUBLIC "-//W3C//DTD SVG 20010904//EN"
 "http://www.w3.org/TR/2001/REC-SVG-20010904/DTD/svg10.dtd">
<svg version="1.0" xmlns="http://www.w3.org/2000/svg"
 width="30.000000pt" height="36.000000pt" viewBox="0 0 30.000000 36.000000"
 preserveAspectRatio="xMidYMid meet">
<metadata>
Created by potrace 1.16, written by Peter Selinger 2001-2019
</metadata>
<g transform="translate(0.000000,36.000000) scale(0.100000,-0.100000)"
fill="#000000" stroke="none">
<path d="M140 340 l-12 -22 6 -24 6 -24 -57 -1 -58 -1 -7 1 -8 1 0 -29 0 -30
10 -25 10 -26 30 0 30 0 0 -8 0 -8 -12 -12 -12 -12 -34 0 -33 0 3 -52 3 -53 7
-5 8 -6 47 6 48 5 5 30 5 30 17 3 17 3 18 -9 18 -10 0 -24 0 -23 48 -3 47 -3
0 6 0 6 -16 50 -17 51 -13 5 -14 5 0 19 0 19 24 -6 24 -6 11 20 11 21 0 25 0
24 -6 16 -6 16 -28 0 -29 0 -25 9 -25 10 -3 27 -3 27 -12 4 -12 4 -11 -21z"/>
</g>
</svg>
