<?xml version="1.0" standalone="no"?>
<!DOCTYPE svg PUBLIC "-//W3C//DTD SVG 20010904//EN"
 "http://www.w3.org/TR/2001/REC-SVG-20010904/DTD/svg10.dtd">
<svg version="1.0" xmlns="http://www.w3.org/2000/svg"
 width="42.000000pt" height="34.000000pt" viewBox="0 0 42.000000 34.000000"
 preserveAspectRatio="xMidYMid meet">
<metadata>
Created by potrace 1.16, written by Peter Selinger 2001-2019
</metadata>
<g transform="translate(0.000000,34.000000) scale(0.100000,-0.100000)"
fill="#000000" stroke="none">
<path d="M88 293 l-3 -48 -34 -1 -34 0 -11 -17 -11 -17 17 -16 17 -17 38 -2
38 -1 -2 -53 -3 -53 35 6 35 7 0 -35 0 -36 24 -6 24 -6 21 12 21 11 1 17 2 17
1 20 1 20 25 -3 25 -4 15 -1 15 -2 2 30 1 30 1 18 1 17 35 0 35 0 0 25 0 25
-12 1 -13 1 -20 2 -20 1 -3 53 -3 52 -45 0 -44 0 0 -35 0 -34 -21 -11 -21 -12
-25 7 -24 6 3 37 3 37 -42 3 -42 3 -3 -48z"/>
</g>
</svg>
