<?xml version="1.0" standalone="no"?>
<!DOCTYPE svg PUBLIC "-//W3C//DTD SVG 20010904//EN"
 "http://www.w3.org/TR/2001/REC-SVG-20010904/DTD/svg10.dtd">
<svg version="1.0" xmlns="http://www.w3.org/2000/svg"
 width="36.000000pt" height="28.000000pt" viewBox="0 0 36.000000 28.000000"
 preserveAspectRatio="xMidYMid meet">
<metadata>
Created by potrace 1.16, written by Peter Selinger 2001-2019
</metadata>
<g transform="translate(0.000000,28.000000) scale(0.100000,-0.100000)"
fill="#000000" stroke="none">
<path d="M78 233 l-3 -48 -35 0 -35 0 0 -25 0 -25 35 -2 35 -1 14 -1 14 -1 -6
-43 -6 -43 -7 -17 -6 -17 49 0 50 0 -5 29 -4 29 21 12 21 11 10 -6 10 -6 0
-34 0 -33 59 -4 59 -3 1 15 1 15 6 36 6 36 -33 -5 -32 -5 -14 19 -13 18 0 24
0 23 23 -2 22 -3 13 7 12 8 0 45 0 45 -42 -3 -43 -3 3 -23 4 -24 -18 -19 -17
-19 -17 0 -18 0 -12 15 -12 15 4 30 5 30 -48 0 -48 0 -3 -47z"/>
</g>
</svg>
