<?xml version="1.0" standalone="no"?>
<!DOCTYPE svg PUBLIC "-//W3C//DTD SVG 20010904//EN"
 "http://www.w3.org/TR/2001/REC-SVG-20010904/DTD/svg10.dtd">
<svg version="1.0" xmlns="http://www.w3.org/2000/svg"
 width="31.000000pt" height="37.000000pt" viewBox="0 0 31.000000 37.000000"
 preserveAspectRatio="xMidYMid meet">
<metadata>
Created by potrace 1.16, written by Peter Selinger 2001-2019
</metadata>
<g transform="translate(0.000000,37.000000) scale(0.100000,-0.100000)"
fill="#000000" stroke="none">
<path d="M12 313 l3 -58 34 -1 35 0 4 -13 4 -12 -18 -14 -19 -14 -21 5 -22 6
-6 -11 -6 -10 6 -55 7 -55 45 -3 46 -3 1 -35 0 -35 41 -3 42 -3 16 16 16 16 0
25 0 24 34 0 35 0 6 10 6 9 -7 50 -6 50 -29 10 -29 10 6 15 6 16 34 0 34 0 0
55 0 55 -57 0 -58 0 -14 -9 -13 -9 6 -19 6 -20 -15 -13 -15 -12 -15 12 -15 12
0 34 0 34 -55 0 -56 0 3 -57z"/>
</g>
</svg>
