<?xml version="1.0" standalone="no"?>
<!DOCTYPE svg PUBLIC "-//W3C//DTD SVG 20010904//EN"
 "http://www.w3.org/TR/2001/REC-SVG-20010904/DTD/svg10.dtd">
<svg version="1.0" xmlns="http://www.w3.org/2000/svg"
 width="45.000000pt" height="30.000000pt" viewBox="0 0 45.000000 30.000000"
 preserveAspectRatio="xMidYMid meet">
<metadata>
Created by potrace 1.16, written by Peter Selinger 2001-2019
</metadata>
<g transform="translate(0.000000,30.000000) scale(0.100000,-0.100000)"
fill="#000000" stroke="none">
<path d="M80 250 l0 -50 -24 6 -23 5 -17 -16 -16 -16 0 -19 0 -18 6 -16 6 -16
24 0 24 0 1 -32 1 -33 -2 -24 -2 -24 32 7 33 6 33 0 34 0 0 29 0 29 14 5 15 6
3 -21 3 -22 25 -6 25 -7 44 -7 44 -7 -6 51 -6 50 39 0 39 0 11 21 11 20 -3 22
-3 22 -44 3 -43 3 6 51 7 51 -38 -6 -38 -7 -27 0 -27 0 -3 -27 -3 -28 -25 0
-25 0 -3 33 -3 32 -50 0 -49 0 0 -50z"/>
</g>
</svg>
