<?xml version="1.0" standalone="no"?>
<!DOCTYPE svg PUBLIC "-//W3C//DTD SVG 20010904//EN"
 "http://www.w3.org/TR/2001/REC-SVG-20010904/DTD/svg10.dtd">
<svg version="1.0" xmlns="http://www.w3.org/2000/svg"
 width="45.000000pt" height="30.000000pt" viewBox="0 0 45.000000 30.000000"
 preserveAspectRatio="xMidYMid meet">
<metadata>
Created by potrace 1.16, written by Peter Selinger 2001-2019
</metadata>
<g transform="translate(0.000000,30.000000) scale(0.100000,-0.100000)"
fill="#000000" stroke="none">
<path d="M75 288 l-3 -13 -7 -37 -6 -38 -29 0 -30 0 0 -29 0 -29 14 -12 15
-11 23 3 23 3 -1 -25 -1 -25 -8 -32 -7 -33 59 0 59 0 12 12 12 12 0 25 0 25
12 -12 12 -12 1 -28 0 -27 29 -3 30 -4 43 7 43 6 0 34 0 33 6 16 6 16 20 0 19
0 15 14 14 15 0 18 0 19 -12 12 -12 12 -33 0 -33 0 0 50 0 50 -140 0 -141 0
-4 -12z"/>
</g>
</svg>
