<?xml version="1.0" standalone="no"?>
<!DOCTYPE svg PUBLIC "-//W3C//DTD SVG 20010904//EN"
 "http://www.w3.org/TR/2001/REC-SVG-20010904/DTD/svg10.dtd">
<svg version="1.0" xmlns="http://www.w3.org/2000/svg"
 width="43.000000pt" height="28.000000pt" viewBox="0 0 43.000000 28.000000"
 preserveAspectRatio="xMidYMid meet">
<metadata>
Created by potrace 1.16, written by Peter Selinger 2001-2019
</metadata>
<g transform="translate(0.000000,28.000000) scale(0.100000,-0.100000)"
fill="#000000" stroke="none">
<path d="M75 268 l-3 -13 -7 -37 -6 -38 -29 0 -30 0 0 -19 0 -20 13 -8 12 -8
25 0 25 0 0 -35 -1 -35 -8 -22 -7 -23 48 0 49 0 12 12 12 12 0 23 0 23 14 0
14 0 11 -14 11 -13 -2 -24 -3 -23 19 -4 18 -4 42 6 41 6 1 25 2 25 6 25 6 25
21 0 20 0 16 16 17 16 -11 17 -10 16 -34 0 -34 0 -3 53 -3 52 -130 0 -130 0
-4 -12z"/>
</g>
</svg>
