<?xml version="1.0" standalone="no"?>
<!DOCTYPE svg PUBLIC "-//W3C//DTD SVG 20010904//EN"
 "http://www.w3.org/TR/2001/REC-SVG-20010904/DTD/svg10.dtd">
<svg version="1.0" xmlns="http://www.w3.org/2000/svg"
 width="35.000000pt" height="28.000000pt" viewBox="0 0 35.000000 28.000000"
 preserveAspectRatio="xMidYMid meet">
<metadata>
Created by potrace 1.16, written by Peter Selinger 2001-2019
</metadata>
<g transform="translate(0.000000,28.000000) scale(0.100000,-0.100000)"
fill="#000000" stroke="none">
<path d="M235 250 l7 -31 -12 -14 -12 -15 -18 0 -18 0 -17 26 -17 26 6 14 5
14 -44 0 -45 0 0 -44 0 -44 -15 -12 -15 -12 -20 5 -20 5 0 -18 0 -19 16 -16
16 -16 31 7 30 6 -6 -56 -6 -57 42 3 42 3 0 34 0 34 18 11 17 11 18 -11 17
-11 -3 -26 -3 -26 53 -7 53 -7 4 -1 4 -1 4 49 5 49 -17 -7 -16 -6 -35 15 -35
15 3 27 3 28 25 0 25 0 13 8 12 8 0 38 0 39 -22 6 -23 6 -28 0 -29 0 7 -30z"/>
</g>
</svg>
