<?xml version="1.0" standalone="no"?>
<!DOCTYPE svg PUBLIC "-//W3C//DTD SVG 20010904//EN"
 "http://www.w3.org/TR/2001/REC-SVG-20010904/DTD/svg10.dtd">
<svg version="1.0" xmlns="http://www.w3.org/2000/svg"
 width="36.000000pt" height="29.000000pt" viewBox="0 0 36.000000 29.000000"
 preserveAspectRatio="xMidYMid meet">
<metadata>
Created by potrace 1.16, written by Peter Selinger 2001-2019
</metadata>
<g transform="translate(0.000000,29.000000) scale(0.100000,-0.100000)"
fill="#000000" stroke="none">
<path d="M78 243 l-3 -48 -23 3 -23 3 -15 -11 -14 -12 0 -24 0 -24 25 -16 24
-16 21 7 22 7 -7 -56 -7 -56 45 0 45 0 16 6 16 6 0 29 0 29 14 0 15 0 3 -27 3
-28 60 0 60 0 3 54 3 54 -22 -6 -21 -6 -19 12 -19 12 0 17 0 17 13 8 12 8 25
0 25 0 3 53 3 53 -48 -6 -48 -6 -12 -4 -13 -4 0 -30 0 -29 -12 -5 -13 -4 -16
4 -16 5 4 22 5 23 -17 16 -16 17 -39 0 -39 0 -3 -47z"/>
</g>
</svg>
