<?xml version="1.0" standalone="no"?>
<!DOCTYPE svg PUBLIC "-//W3C//DTD SVG 20010904//EN"
 "http://www.w3.org/TR/2001/REC-SVG-20010904/DTD/svg10.dtd">
<svg version="1.0" xmlns="http://www.w3.org/2000/svg"
 width="34.000000pt" height="27.000000pt" viewBox="0 0 34.000000 27.000000"
 preserveAspectRatio="xMidYMid meet">
<metadata>
Created by potrace 1.16, written by Peter Selinger 2001-2019
</metadata>
<g transform="translate(0.000000,27.000000) scale(0.100000,-0.100000)"
fill="#000000" stroke="none">
<path d="M78 223 l-3 -48 -29 0 -29 0 -11 -18 -11 -18 22 -18 22 -18 27 5 27
5 -7 -57 -6 -56 34 0 34 0 16 6 16 6 0 28 0 29 9 5 9 6 16 -6 15 -6 3 -26 3
-27 50 0 50 0 3 42 3 43 -16 -6 -16 -7 -25 13 -24 13 0 27 0 28 14 12 15 11
23 -3 23 -3 3 42 3 42 -38 -5 -38 -6 -13 -4 -13 -4 6 -19 6 -19 -17 -17 -17
-17 -21 6 -21 6 -9 0 -8 0 6 24 6 25 -16 15 -15 16 -29 0 -29 0 -3 -47z"/>
</g>
</svg>
