<?xml version="1.0" standalone="no"?>
<!DOCTYPE svg PUBLIC "-//W3C//DTD SVG 20010904//EN"
 "http://www.w3.org/TR/2001/REC-SVG-20010904/DTD/svg10.dtd">
<svg version="1.0" xmlns="http://www.w3.org/2000/svg"
 width="44.000000pt" height="29.000000pt" viewBox="0 0 44.000000 29.000000"
 preserveAspectRatio="xMidYMid meet">
<metadata>
Created by potrace 1.16, written by Peter Selinger 2001-2019
</metadata>
<g transform="translate(0.000000,29.000000) scale(0.100000,-0.100000)"
fill="#000000" stroke="none">
<path d="M80 251 l0 -40 -12 -8 -13 -8 -19 4 -19 3 -8 -14 -9 -13 0 -12 0 -13
24 0 24 0 11 -52 12 -52 11 -13 10 -13 44 0 43 0 -2 36 -2 36 18 12 18 11 15
-20 15 -20 -5 -27 -5 -27 16 -9 16 -9 35 8 36 8 8 -5 7 -5 7 28 6 28 7 30 7
30 26 -3 25 -3 5 25 5 26 -11 16 -12 15 -29 -3 -30 -3 -3 43 -3 42 -5 0 -5 0
-44 -11 -44 -11 2 -22 2 -21 -45 0 -45 0 -5 35 -5 35 -37 3 -38 3 0 -40z"/>
</g>
</svg>
