<?xml version="1.0" standalone="no"?>
<!DOCTYPE svg PUBLIC "-//W3C//DTD SVG 20010904//EN"
 "http://www.w3.org/TR/2001/REC-SVG-20010904/DTD/svg10.dtd">
<svg version="1.0" xmlns="http://www.w3.org/2000/svg"
 width="30.000000pt" height="29.000000pt" viewBox="0 0 30.000000 29.000000"
 preserveAspectRatio="xMidYMid meet">
<metadata>
Created by potrace 1.16, written by Peter Selinger 2001-2019
</metadata>
<g transform="translate(0.000000,29.000000) scale(0.100000,-0.100000)"
fill="#000000" stroke="none">
<path d="M2 233 l3 -58 35 0 35 0 3 -27 3 -27 -27 2 -28 2 -7 -25 -7 -25 -1
-33 -1 -33 17 -6 16 -6 47 9 47 10 74 -7 74 -7 2 2 1 1 7 58 7 57 -38 0 -37 0
-18 16 -18 17 10 19 11 20 34 -7 34 -6 0 51 0 50 -10 0 -9 0 -51 -11 -50 -11
0 -13 0 -13 -14 -5 -14 -6 -6 6 -6 6 0 23 0 22 -16 6 -16 6 -44 0 -45 0 3 -57z"/>
</g>
</svg>
