<?xml version="1.0" standalone="no"?>
<!DOCTYPE svg PUBLIC "-//W3C//DTD SVG 20010904//EN"
 "http://www.w3.org/TR/2001/REC-SVG-20010904/DTD/svg10.dtd">
<svg version="1.0" xmlns="http://www.w3.org/2000/svg"
 width="35.000000pt" height="37.000000pt" viewBox="0 0 35.000000 37.000000"
 preserveAspectRatio="xMidYMid meet">
<metadata>
Created by potrace 1.16, written by Peter Selinger 2001-2019
</metadata>
<g transform="translate(0.000000,37.000000) scale(0.100000,-0.100000)"
fill="#000000" stroke="none">
<path d="M64 328 l6 -43 -8 -11 -7 -12 -25 -3 -25 -4 -3 -23 -4 -23 13 -15 12
-15 31 3 31 3 -4 -25 -3 -25 -2 -20 -1 -20 43 -3 42 -3 0 -32 0 -32 9 -13 8
-14 29 4 29 3 9 37 9 36 27 6 27 5 20 -5 20 -6 -1 64 -1 63 -32 3 -33 3 0 20
0 19 29 0 29 0 6 30 6 30 -6 30 -6 30 -49 0 -49 0 0 -25 0 -24 -19 -11 -20
-10 -15 0 -15 0 -3 33 -3 32 -54 3 -53 3 6 -43z"/>
</g>
</svg>
