<?xml version="1.0" standalone="no"?>
<!DOCTYPE svg PUBLIC "-//W3C//DTD SVG 20010904//EN"
 "http://www.w3.org/TR/2001/REC-SVG-20010904/DTD/svg10.dtd">
<svg version="1.0" xmlns="http://www.w3.org/2000/svg"
 width="28.000000pt" height="30.000000pt" viewBox="0 0 28.000000 30.000000"
 preserveAspectRatio="xMidYMid meet">
<metadata>
Created by potrace 1.16, written by Peter Selinger 2001-2019
</metadata>
<g transform="translate(0.000000,30.000000) scale(0.100000,-0.100000)"
fill="#000000" stroke="none">
<path d="M47 292 l-48 -3 3 -47 3 -47 30 0 30 0 3 -25 2 -25 -9 -14 -9 -14
-24 -2 -23 -2 -1 -46 -1 -47 28 0 28 0 26 10 27 10 -6 26 -7 25 28 -3 28 -3
-2 -37 -2 -36 13 -5 13 -5 45 9 46 10 6 31 6 31 0 24 0 25 -25 -5 -26 -4 -22
18 -22 18 11 18 11 18 29 0 29 0 3 43 3 42 -6 0 -6 0 -44 -11 -43 -11 -5 -19
-5 -19 -30 0 -31 0 -3 38 -3 37 -48 -3z"/>
</g>
</svg>
