<?xml version="1.0" standalone="no"?>
<!DOCTYPE svg PUBLIC "-//W3C//DTD SVG 20010904//EN"
 "http://www.w3.org/TR/2001/REC-SVG-20010904/DTD/svg10.dtd">
<svg version="1.0" xmlns="http://www.w3.org/2000/svg"
 width="30.000000pt" height="32.000000pt" viewBox="0 0 30.000000 32.000000"
 preserveAspectRatio="xMidYMid meet">
<metadata>
Created by potrace 1.16, written by Peter Selinger 2001-2019
</metadata>
<g transform="translate(0.000000,32.000000) scale(0.100000,-0.100000)"
fill="#000000" stroke="none">
<path d="M47 313 l-48 -4 3 -57 3 -57 33 -3 32 -3 0 -12 0 -12 -8 -11 -7 -12
-25 -3 -25 -4 -3 -58 -3 -57 40 0 40 0 25 10 26 10 0 26 0 26 13 -5 12 -4 -3
-35 -3 -35 17 -7 17 -7 53 11 52 11 6 31 6 30 0 34 0 34 -34 0 -34 0 -12 15
-12 15 13 4 14 5 25 3 25 3 3 53 3 52 -16 0 -16 0 -44 -11 -43 -11 -5 -19 -5
-19 -21 0 -21 0 0 40 0 40 -12 -2 -13 -2 -48 -3z"/>
</g>
</svg>
