<?xml version="1.0" standalone="no"?>
<!DOCTYPE svg PUBLIC "-//W3C//DTD SVG 20010904//EN"
 "http://www.w3.org/TR/2001/REC-SVG-20010904/DTD/svg10.dtd">
<svg version="1.0" xmlns="http://www.w3.org/2000/svg"
 width="35.000000pt" height="28.000000pt" viewBox="0 0 35.000000 28.000000"
 preserveAspectRatio="xMidYMid meet">
<metadata>
Created by potrace 1.16, written by Peter Selinger 2001-2019
</metadata>
<g transform="translate(0.000000,28.000000) scale(0.100000,-0.100000)"
fill="#000000" stroke="none">
<path d="M167 274 l-6 -6 5 -13 6 -13 -12 -22 -11 -21 -22 3 -22 3 -3 33 -3
33 -47 -3 -47 -3 0 -35 0 -35 37 -3 38 -3 6 -25 6 -24 -6 -15 -5 -15 -25 0
-24 0 -11 -50 -11 -51 0 -4 0 -5 50 0 50 0 -6 24 -5 23 16 17 17 17 13 -11 14
-11 3 -27 3 -27 51 -3 50 -3 3 42 2 42 9 18 10 18 27 3 28 3 3 23 4 23 -35 -6
-35 -7 -7 13 -8 12 1 42 0 43 -36 6 -37 6 -11 0 -11 0 -6 -6z"/>
</g>
</svg>
