<?xml version="1.0" standalone="no"?>
<!DOCTYPE svg PUBLIC "-//W3C//DTD SVG 20010904//EN"
 "http://www.w3.org/TR/2001/REC-SVG-20010904/DTD/svg10.dtd">
<svg version="1.0" xmlns="http://www.w3.org/2000/svg"
 width="37.000000pt" height="30.000000pt" viewBox="0 0 37.000000 30.000000"
 preserveAspectRatio="xMidYMid meet">
<metadata>
Created by potrace 1.16, written by Peter Selinger 2001-2019
</metadata>
<g transform="translate(0.000000,30.000000) scale(0.100000,-0.100000)"
fill="#000000" stroke="none">
<path d="M164 285 l-6 -14 6 -9 5 -9 -13 -18 -13 -18 -11 7 -12 7 0 30 0 30
-57 -3 -58 -3 0 -45 0 -45 37 -3 37 -3 6 -19 6 -20 -6 -10 -6 -10 -24 0 -23 0
-11 -50 -11 -51 0 -14 0 -15 61 0 60 0 -1 23 -2 22 1 13 1 14 13 -4 12 -5 5
-29 5 -29 63 -3 62 -3 0 44 0 43 13 16 12 17 25 3 25 3 3 33 3 34 -38 -4 -38
-3 -3 51 -3 52 -37 6 -37 6 -23 0 -23 0 -5 -15z"/>
</g>
</svg>
