<?xml version="1.0" standalone="no"?>
<!DOCTYPE svg PUBLIC "-//W3C//DTD SVG 20010904//EN"
 "http://www.w3.org/TR/2001/REC-SVG-20010904/DTD/svg10.dtd">
<svg version="1.0" xmlns="http://www.w3.org/2000/svg"
 width="29.000000pt" height="29.000000pt" viewBox="0 0 29.000000 29.000000"
 preserveAspectRatio="xMidYMid meet">
<metadata>
Created by potrace 1.16, written by Peter Selinger 2001-2019
</metadata>
<g transform="translate(0.000000,29.000000) scale(0.100000,-0.100000)"
fill="#000000" stroke="none">
<path d="M4 276 l-5 -14 3 -38 3 -39 33 -3 33 -3 -3 -32 -3 -32 -33 3 -33 3 3
-58 3 -58 55 0 55 0 0 32 0 32 12 12 11 11 11 -6 11 -7 0 -19 0 -19 20 -11 19
-10 47 -7 46 -6 -7 44 -7 44 -10 18 -9 17 -14 0 -15 0 0 20 0 20 18 0 18 0 12
12 12 12 0 48 0 48 -140 0 -141 0 -5 -14z"/>
</g>
</svg>
