<?xml version="1.0" standalone="no"?>
<!DOCTYPE svg PUBLIC "-//W3C//DTD SVG 20010904//EN"
 "http://www.w3.org/TR/2001/REC-SVG-20010904/DTD/svg10.dtd">
<svg version="1.0" xmlns="http://www.w3.org/2000/svg"
 width="27.000000pt" height="27.000000pt" viewBox="0 0 27.000000 27.000000"
 preserveAspectRatio="xMidYMid meet">
<metadata>
Created by potrace 1.16, written by Peter Selinger 2001-2019
</metadata>
<g transform="translate(0.000000,27.000000) scale(0.100000,-0.100000)"
fill="#000000" stroke="none">
<path d="M4 256 l-5 -14 3 -29 3 -28 20 -1 20 -2 13 -1 13 -1 -3 -42 -3 -43
-33 2 -33 1 3 -46 3 -47 45 0 45 0 -3 31 -3 31 15 13 16 12 25 -6 26 -7 -6
-19 -6 -19 18 -10 18 -9 38 -7 37 -7 -6 33 -7 34 -9 18 -9 17 -13 0 -14 0 -4
18 -5 17 4 13 5 12 17 0 17 0 12 12 12 12 0 38 0 38 -130 0 -131 0 -5 -14z"/>
</g>
</svg>
