<?xml version="1.0" standalone="no"?>
<!DOCTYPE svg PUBLIC "-//W3C//DTD SVG 20010904//EN"
 "http://www.w3.org/TR/2001/REC-SVG-20010904/DTD/svg10.dtd">
<svg version="1.0" xmlns="http://www.w3.org/2000/svg"
 width="40.000000pt" height="38.000000pt" viewBox="0 0 40.000000 38.000000"
 preserveAspectRatio="xMidYMid meet">
<metadata>
Created by potrace 1.16, written by Peter Selinger 2001-2019
</metadata>
<g transform="translate(0.000000,38.000000) scale(0.100000,-0.100000)"
fill="#000000" stroke="none">
<path d="M188 369 l-18 -10 0 -29 0 -30 -50 0 -50 0 0 -38 0 -37 -32 0 -33 0
0 -50 0 -50 33 -10 34 -10 -7 -42 -6 -43 45 -2 46 -2 28 0 27 -1 0 40 0 40 18
3 17 3 0 -45 0 -45 19 -6 19 -6 26 6 26 5 24 5 25 5 12 54 12 54 -7 17 -6 18
-39 -6 -38 -5 -14 9 -13 8 7 8 8 7 37 1 37 0 3 43 3 43 -12 15 -11 14 -54 0
-53 0 -3 38 -3 37 -20 2 -20 3 -17 -11z"/>
</g>
</svg>
