<?xml version="1.0" standalone="no"?>
<!DOCTYPE svg PUBLIC "-//W3C//DTD SVG 20010904//EN"
 "http://www.w3.org/TR/2001/REC-SVG-20010904/DTD/svg10.dtd">
<svg version="1.0" xmlns="http://www.w3.org/2000/svg"
 width="38.000000pt" height="36.000000pt" viewBox="0 0 38.000000 36.000000"
 preserveAspectRatio="xMidYMid meet">
<metadata>
Created by potrace 1.16, written by Peter Selinger 2001-2019
</metadata>
<g transform="translate(0.000000,36.000000) scale(0.100000,-0.100000)"
fill="#000000" stroke="none">
<path d="M186 347 l-19 -14 5 -26 5 -27 -53 0 -54 0 0 -40 0 -40 -33 2 -32 3
-3 -37 -3 -37 20 -10 20 -11 13 2 13 3 -1 -48 0 -47 43 -2 43 -1 18 -1 17 -1
-3 36 -3 36 14 11 14 12 17 -6 16 -6 2 -17 1 -16 -2 -24 -2 -24 13 -8 13 -8
22 4 23 5 24 5 24 5 12 49 12 50 -7 11 -7 11 -37 -6 -36 -6 -20 16 -20 15 20
15 20 16 30 -3 30 -3 3 33 3 33 -12 15 -11 14 -54 0 -53 0 -3 37 -3 36 -10 4
-11 3 -18 -13z"/>
</g>
</svg>
