<?xml version="1.0" standalone="no"?>
<!DOCTYPE svg PUBLIC "-//W3C//DTD SVG 20010904//EN"
 "http://www.w3.org/TR/2001/REC-SVG-20010904/DTD/svg10.dtd">
<svg version="1.0" xmlns="http://www.w3.org/2000/svg"
 width="36.000000pt" height="40.000000pt" viewBox="0 0 36.000000 40.000000"
 preserveAspectRatio="xMidYMid meet">
<metadata>
Created by potrace 1.16, written by Peter Selinger 2001-2019
</metadata>
<g transform="translate(0.000000,40.000000) scale(0.100000,-0.100000)"
fill="#000000" stroke="none">
<path d="M114 366 l7 -35 -23 -6 -23 -5 -35 -2 -35 -3 -3 -29 -4 -28 7 -25 6
-24 37 3 37 3 0 -15 0 -15 -22 -3 -22 -3 -9 -12 -10 -12 -7 -47 -7 -48 50 0
51 0 3 -27 3 -28 30 0 30 0 0 20 0 20 15 7 15 7 42 0 41 1 9 53 8 52 23 3 23
4 6 14 5 14 -13 16 -12 15 -26 -3 -26 -3 -5 45 -5 45 -15 2 -15 2 -37 6 -37 6
-3 32 -3 32 -29 3 -29 4 7 -36z"/>
</g>
</svg>
