<?xml version="1.0" standalone="no"?>
<!DOCTYPE svg PUBLIC "-//W3C//DTD SVG 20010904//EN"
 "http://www.w3.org/TR/2001/REC-SVG-20010904/DTD/svg10.dtd">
<svg version="1.0" xmlns="http://www.w3.org/2000/svg"
 width="31.000000pt" height="33.000000pt" viewBox="0 0 31.000000 33.000000"
 preserveAspectRatio="xMidYMid meet">
<metadata>
Created by potrace 1.16, written by Peter Selinger 2001-2019
</metadata>
<g transform="translate(0.000000,33.000000) scale(0.100000,-0.100000)"
fill="#000000" stroke="none">
<path d="M130 305 l0 -24 -21 -12 -21 -11 -34 4 -35 4 -5 -22 -6 -22 4 -23 3
-24 40 -5 40 -5 0 -20 0 -20 -37 -3 -38 -3 -1 -12 0 -12 -8 -48 -8 -48 56 3
56 3 3 35 3 35 9 8 8 9 22 -7 22 -7 -6 -24 -6 -24 22 -9 23 -8 36 -6 36 -5 11
32 12 32 0 12 0 12 -36 0 -35 0 -20 10 -19 11 0 23 0 23 20 18 19 17 26 -6 26
-7 -3 38 -3 37 -54 -3 -54 -3 7 25 6 26 -16 15 -15 16 -15 0 -14 0 0 -25z"/>
</g>
</svg>
