<?xml version="1.0" standalone="no"?>
<!DOCTYPE svg PUBLIC "-//W3C//DTD SVG 20010904//EN"
 "http://www.w3.org/TR/2001/REC-SVG-20010904/DTD/svg10.dtd">
<svg version="1.0" xmlns="http://www.w3.org/2000/svg"
 width="36.000000pt" height="41.000000pt" viewBox="0 0 36.000000 41.000000"
 preserveAspectRatio="xMidYMid meet">
<metadata>
Created by potrace 1.16, written by Peter Selinger 2001-2019
</metadata>
<g transform="translate(0.000000,41.000000) scale(0.100000,-0.100000)"
fill="#000000" stroke="none">
<path d="M121 396 l-13 -15 7 -12 8 -11 -14 -9 -14 -9 -43 0 -43 0 3 -52 3
-53 25 -3 25 -3 14 -5 13 -4 -12 -16 -13 -15 -31 3 -31 3 -3 -39 -3 -39 5 -21
5 -21 43 3 43 4 1 -26 2 -26 12 -15 12 -15 29 0 28 0 11 19 10 20 0 30 0 31
14 0 15 0 26 -10 26 -10 -7 50 -7 50 32 -6 31 -6 15 12 15 12 0 30 0 30 -35
-4 -35 -4 0 47 0 48 -52 3 -53 3 0 30 -1 30 -25 3 -26 3 -12 -15z"/>
</g>
</svg>
