<?xml version="1.0" standalone="no"?>
<!DOCTYPE svg PUBLIC "-//W3C//DTD SVG 20010904//EN"
 "http://www.w3.org/TR/2001/REC-SVG-20010904/DTD/svg10.dtd">
<svg version="1.0" xmlns="http://www.w3.org/2000/svg"
 width="40.000000pt" height="43.000000pt" viewBox="0 0 40.000000 43.000000"
 preserveAspectRatio="xMidYMid meet">
<metadata>
Created by potrace 1.16, written by Peter Selinger 2001-2019
</metadata>
<g transform="translate(0.000000,43.000000) scale(0.100000,-0.100000)"
fill="#000000" stroke="none">
<path d="M132 418 l-12 -12 0 -23 0 -23 -50 0 -50 0 0 -55 0 -54 19 -11 20
-10 21 0 21 0 -6 -10 -6 -10 -42 2 -42 3 -3 -58 -3 -57 13 -14 14 -13 44 1 45
1 5 -35 5 -35 37 -3 37 -3 15 30 16 30 0 15 0 15 50 -6 50 -6 0 31 0 30 6 16
6 16 24 0 24 0 6 24 5 23 -3 34 -3 34 -25 1 -26 0 -12 8 -12 7 0 24 0 24 -19
11 -20 10 -35 0 -35 0 -3 28 -3 27 -30 3 -30 3 -13 -13z"/>
</g>
</svg>
