<?xml version="1.0" standalone="no"?>
<!DOCTYPE svg PUBLIC "-//W3C//DTD SVG 20010904//EN"
 "http://www.w3.org/TR/2001/REC-SVG-20010904/DTD/svg10.dtd">
<svg version="1.0" xmlns="http://www.w3.org/2000/svg"
 width="38.000000pt" height="41.000000pt" viewBox="0 0 38.000000 41.000000"
 preserveAspectRatio="xMidYMid meet">
<metadata>
Created by potrace 1.16, written by Peter Selinger 2001-2019
</metadata>
<g transform="translate(0.000000,41.000000) scale(0.100000,-0.100000)"
fill="#000000" stroke="none">
<path d="M131 396 l-13 -15 7 -21 6 -20 -55 0 -56 0 0 -45 0 -44 20 -11 21
-11 18 6 19 6 5 -15 6 -15 -14 -11 -14 -12 -38 4 -38 3 0 -50 0 -50 9 -11 10
-10 28 4 28 4 24 -6 24 -6 -2 -32 -1 -33 27 -3 27 -3 15 30 16 30 -7 17 -6 17
56 -7 57 -7 0 28 0 28 6 22 6 23 24 -6 23 -6 6 25 7 25 -4 23 -3 24 -24 -3
-24 -2 -13 11 -14 11 0 24 0 23 -19 11 -20 10 -35 0 -35 0 -3 28 -3 27 -21 3
-21 3 -12 -15z"/>
</g>
</svg>
