<?xml version="1.0" standalone="no"?>
<!DOCTYPE svg PUBLIC "-//W3C//DTD SVG 20010904//EN"
 "http://www.w3.org/TR/2001/REC-SVG-20010904/DTD/svg10.dtd">
<svg version="1.0" xmlns="http://www.w3.org/2000/svg"
 width="29.000000pt" height="34.000000pt" viewBox="0 0 29.000000 34.000000"
 preserveAspectRatio="xMidYMid meet">
<metadata>
Created by potrace 1.16, written by Peter Selinger 2001-2019
</metadata>
<g transform="translate(0.000000,34.000000) scale(0.100000,-0.100000)"
fill="#000000" stroke="none">
<path d="M124 328 l-8 -12 0 -26 -1 -25 -55 -5 -55 -5 -3 -44 -3 -44 36 6 36
6 8 -22 8 -21 -5 -18 -4 -17 -25 -3 -26 -3 -12 -47 -12 -48 51 0 51 0 14 9 14
9 -5 26 -5 26 7 5 8 5 16 -6 15 -6 3 -26 3 -27 44 -7 44 -7 8 5 9 5 0 44 0 44
-27 3 -28 3 0 25 0 25 30 0 30 0 3 48 3 47 -13 1 -13 1 -50 2 -50 1 3 28 4 28
-12 15 -12 14 -9 0 -8 0 -7 -12z"/>
</g>
</svg>
