<?xml version="1.0" standalone="no"?>
<!DOCTYPE svg PUBLIC "-//W3C//DTD SVG 20010904//EN"
 "http://www.w3.org/TR/2001/REC-SVG-20010904/DTD/svg10.dtd">
<svg version="1.0" xmlns="http://www.w3.org/2000/svg"
 width="38.000000pt" height="37.000000pt" viewBox="0 0 38.000000 37.000000"
 preserveAspectRatio="xMidYMid meet">
<metadata>
Created by potrace 1.16, written by Peter Selinger 2001-2019
</metadata>
<g transform="translate(0.000000,37.000000) scale(0.100000,-0.100000)"
fill="#000000" stroke="none">
<path d="M120 355 l-12 -15 5 -20 5 -20 -21 -5 -22 -5 -35 -2 -35 -3 -3 -48
-3 -49 12 -14 11 -14 29 0 29 0 0 -10 0 -10 -25 0 -25 0 -9 -22 -8 -23 -8 -43
-7 -43 64 3 63 3 0 27 1 28 11 11 11 11 11 -6 11 -7 0 -40 0 -39 53 0 53 0 21
19 20 19 7 35 7 35 25 6 25 7 -3 42 -3 42 -35 5 -35 5 -5 35 -5 35 -20 -1 -20
-1 -27 -8 -28 -7 0 34 0 35 -18 16 -19 17 -15 0 -16 0 -12 -15z"/>
</g>
</svg>
