<?xml version="1.0" standalone="no"?>
<!DOCTYPE svg PUBLIC "-//W3C//DTD SVG 20010904//EN"
 "http://www.w3.org/TR/2001/REC-SVG-20010904/DTD/svg10.dtd">
<svg version="1.0" xmlns="http://www.w3.org/2000/svg"
 width="36.000000pt" height="35.000000pt" viewBox="0 0 36.000000 35.000000"
 preserveAspectRatio="xMidYMid meet">
<metadata>
Created by potrace 1.16, written by Peter Selinger 2001-2019
</metadata>
<g transform="translate(0.000000,35.000000) scale(0.100000,-0.100000)"
fill="#000000" stroke="none">
<path d="M122 337 l-11 -13 5 -22 6 -21 -23 -5 -24 -6 -35 -2 -35 -3 -3 -38
-3 -38 12 -16 13 -15 29 6 28 6 -3 -28 -3 -27 -23 3 -22 3 -9 -23 -8 -23 -6
-33 -7 -33 53 3 52 3 -3 24 -2 24 11 13 11 14 19 0 18 0 7 -12 8 -12 -2 -33
-3 -33 43 0 43 1 18 13 18 14 12 43 13 44 12 1 12 2 11 1 10 1 -3 33 -3 32
-35 5 -35 5 -5 35 -5 35 -20 -4 -20 -5 -30 0 -30 -1 3 29 3 28 -17 19 -17 19
-7 0 -8 0 -10 -13z"/>
</g>
</svg>
