<?xml version="1.0" standalone="no"?>
<!DOCTYPE svg PUBLIC "-//W3C//DTD SVG 20010904//EN"
 "http://www.w3.org/TR/2001/REC-SVG-20010904/DTD/svg10.dtd">
<svg version="1.0" xmlns="http://www.w3.org/2000/svg"
 width="38.000000pt" height="35.000000pt" viewBox="0 0 38.000000 35.000000"
 preserveAspectRatio="xMidYMid meet">
<metadata>
Created by potrace 1.16, written by Peter Selinger 2001-2019
</metadata>
<g transform="translate(0.000000,35.000000) scale(0.100000,-0.100000)"
fill="#000000" stroke="none">
<path d="M184 335 l-6 -15 5 -14 6 -15 -12 -10 -12 -10 -45 -3 -45 -3 -5 -45
-5 -45 -24 0 -24 0 -10 -17 -11 -17 19 -21 18 -20 19 6 18 5 0 -53 0 -54 53 6
52 5 0 35 0 35 30 0 30 0 -3 -27 -3 -27 38 -6 38 -6 22 -9 23 -9 9 17 9 17 3
25 3 25 -7 13 -8 12 -33 0 -33 0 -18 20 -18 20 14 16 13 16 38 -5 38 -5 0 36
0 37 -9 14 -9 14 -38 -6 -39 -6 -14 8 -14 9 6 23 6 23 -11 13 -10 13 -20 0
-19 0 -5 -15z"/>
</g>
</svg>
