<?xml version="1.0" standalone="no"?>
<!DOCTYPE svg PUBLIC "-//W3C//DTD SVG 20010904//EN"
 "http://www.w3.org/TR/2001/REC-SVG-20010904/DTD/svg10.dtd">
<svg version="1.0" xmlns="http://www.w3.org/2000/svg"
 width="45.000000pt" height="35.000000pt" viewBox="0 0 45.000000 35.000000"
 preserveAspectRatio="xMidYMid meet">
<metadata>
Created by potrace 1.16, written by Peter Selinger 2001-2019
</metadata>
<g transform="translate(0.000000,35.000000) scale(0.100000,-0.100000)"
fill="#000000" stroke="none">
<path d="M214 338 l-8 -12 0 -26 -1 -25 -55 -5 -55 -5 -3 -38 -3 -37 -25 6
-25 6 -19 -17 -20 -18 0 -23 0 -23 19 -11 20 -10 37 0 36 0 -5 -23 -6 -22 -6
-25 -7 -26 54 6 53 5 3 33 3 32 25 0 25 0 -3 -27 -3 -27 54 -8 54 -8 12 10 13
10 6 41 7 41 13 -5 14 -6 17 19 17 19 -7 20 -6 21 -35 0 -34 0 -2 18 -1 17 2
26 2 26 -28 11 -28 11 -27 7 -27 6 -10 11 -9 12 -2 8 -2 7 -8 6 -8 5 -8 -13z"/>
</g>
</svg>
