<?xml version="1.0" standalone="no"?>
<!DOCTYPE svg PUBLIC "-//W3C//DTD SVG 20010904//EN"
 "http://www.w3.org/TR/2001/REC-SVG-20010904/DTD/svg10.dtd">
<svg version="1.0" xmlns="http://www.w3.org/2000/svg"
 width="40.000000pt" height="36.000000pt" viewBox="0 0 40.000000 36.000000"
 preserveAspectRatio="xMidYMid meet">
<metadata>
Created by potrace 1.16, written by Peter Selinger 2001-2019
</metadata>
<g transform="translate(0.000000,36.000000) scale(0.100000,-0.100000)"
fill="#000000" stroke="none">
<path d="M246 335 l6 -25 -17 -26 -16 -25 -27 3 -27 3 -3 38 -3 37 -45 0 -44
0 0 -36 0 -35 -11 -21 -11 -20 -24 6 -24 6 0 -19 0 -19 14 -5 14 -6 18 -58 17
-58 41 0 41 0 5 -35 5 -35 45 0 45 0 -2 22 -2 21 49 12 50 12 6 48 6 49 22 3
21 3 3 39 3 39 -13 8 -13 9 -17 -6 -18 -5 0 39 0 40 -31 11 -32 11 -19 0 -18
0 6 -25z"/>
</g>
</svg>
