<?xml version="1.0" standalone="no"?>
<!DOCTYPE svg PUBLIC "-//W3C//DTD SVG 20010904//EN"
 "http://www.w3.org/TR/2001/REC-SVG-20010904/DTD/svg10.dtd">
<svg version="1.0" xmlns="http://www.w3.org/2000/svg"
 width="42.000000pt" height="38.000000pt" viewBox="0 0 42.000000 38.000000"
 preserveAspectRatio="xMidYMid meet">
<metadata>
Created by potrace 1.16, written by Peter Selinger 2001-2019
</metadata>
<g transform="translate(0.000000,38.000000) scale(0.100000,-0.100000)"
fill="#000000" stroke="none">
<path d="M243 351 l6 -30 -18 -22 -18 -22 -16 6 -17 6 0 36 0 35 -55 0 -55 0
0 -36 0 -35 -10 -18 -9 -18 -26 4 -25 5 0 -30 0 -30 14 -5 14 -6 18 -60 18
-59 40 1 41 2 5 -35 5 -35 55 0 55 0 3 23 3 22 45 11 44 11 6 49 6 48 22 3 21
3 3 53 3 52 -30 6 -31 7 0 32 0 33 -31 11 -32 11 -30 0 -29 0 5 -29z"/>
</g>
</svg>
