<?xml version="1.0" standalone="no"?>
<!DOCTYPE svg PUBLIC "-//W3C//DTD SVG 20010904//EN"
 "http://www.w3.org/TR/2001/REC-SVG-20010904/DTD/svg10.dtd">
<svg version="1.0" xmlns="http://www.w3.org/2000/svg"
 width="28.000000pt" height="39.000000pt" viewBox="0 0 28.000000 39.000000"
 preserveAspectRatio="xMidYMid meet">
<metadata>
Created by potrace 1.16, written by Peter Selinger 2001-2019
</metadata>
<g transform="translate(0.000000,39.000000) scale(0.100000,-0.100000)"
fill="#000000" stroke="none">
<path d="M160 356 l0 -34 -14 -11 -14 -12 -8 13 -8 13 3 27 3 28 -30 0 -30 0
-31 -6 -31 -6 0 -37 0 -37 12 -12 12 -12 28 0 28 0 0 -19 0 -19 -6 -15 -5 -14
-23 4 -23 5 -6 -24 -7 -23 0 -37 0 -38 35 0 35 0 0 -31 0 -32 18 -13 17 -13
28 -1 27 0 10 26 10 25 0 29 0 29 43 -2 42 -2 0 50 0 50 -30 5 -30 5 0 30 0
30 33 -3 32 -4 0 51 0 51 -26 10 -25 10 -35 0 -34 0 0 -34z"/>
</g>
</svg>
