<?xml version="1.0" standalone="no"?>
<!DOCTYPE svg PUBLIC "-//W3C//DTD SVG 20010904//EN"
 "http://www.w3.org/TR/2001/REC-SVG-20010904/DTD/svg10.dtd">
<svg version="1.0" xmlns="http://www.w3.org/2000/svg"
 width="26.000000pt" height="37.000000pt" viewBox="0 0 26.000000 37.000000"
 preserveAspectRatio="xMidYMid meet">
<metadata>
Created by potrace 1.16, written by Peter Selinger 2001-2019
</metadata>
<g transform="translate(0.000000,37.000000) scale(0.100000,-0.100000)"
fill="#000000" stroke="none">
<path d="M160 336 l0 -34 -16 -13 -16 -13 -16 11 -17 11 3 31 2 31 -19 0 -19
0 -31 -6 -31 -6 0 -28 0 -28 14 -11 13 -11 24 2 24 3 3 -24 4 -23 -7 -25 -6
-25 -23 6 -24 6 -6 -23 -6 -22 0 -27 0 -28 35 0 35 0 0 -31 0 -32 18 -13 17
-13 18 -1 17 0 11 27 10 28 -5 28 -6 29 48 -4 47 -3 0 40 0 40 -13 -3 -13 -2
-20 11 -20 10 3 37 3 37 33 -3 32 -2 0 40 0 40 -26 10 -25 10 -25 0 -24 0 0
-34z"/>
</g>
</svg>
