<?xml version="1.0" standalone="no"?>
<!DOCTYPE svg PUBLIC "-//W3C//DTD SVG 20010904//EN"
 "http://www.w3.org/TR/2001/REC-SVG-20010904/DTD/svg10.dtd">
<svg version="1.0" xmlns="http://www.w3.org/2000/svg"
 width="29.000000pt" height="28.000000pt" viewBox="0 0 29.000000 28.000000"
 preserveAspectRatio="xMidYMid meet">
<metadata>
Created by potrace 1.16, written by Peter Selinger 2001-2019
</metadata>
<g transform="translate(0.000000,28.000000) scale(0.100000,-0.100000)"
fill="#000000" stroke="none">
<path d="M200 242 l0 -39 -26 -14 -26 -13 -15 19 -14 20 4 23 4 22 -21 5 -21
5 -35 -8 -35 -8 -3 -47 -3 -47 30 0 29 0 16 -6 16 -6 0 -13 0 -13 -14 -5 -14
-6 -21 6 -21 5 -5 -13 -5 -14 -9 -48 -9 -48 61 3 61 3 1 30 0 30 30 0 30 0 3
-20 4 -20 10 -12 10 -13 39 0 39 0 0 130 0 130 -26 10 -25 10 -20 0 -19 0 0
-38z"/>
</g>
</svg>
