<?xml version="1.0" standalone="no"?>
<!DOCTYPE svg PUBLIC "-//W3C//DTD SVG 20010904//EN"
 "http://www.w3.org/TR/2001/REC-SVG-20010904/DTD/svg10.dtd">
<svg version="1.0" xmlns="http://www.w3.org/2000/svg"
 width="31.000000pt" height="30.000000pt" viewBox="0 0 31.000000 30.000000"
 preserveAspectRatio="xMidYMid meet">
<metadata>
Created by potrace 1.16, written by Peter Selinger 2001-2019
</metadata>
<g transform="translate(0.000000,30.000000) scale(0.100000,-0.100000)"
fill="#000000" stroke="none">
<path d="M35 291 l-30 -6 -3 -133 -3 -132 16 -6 15 -6 53 -2 52 -1 -2 25 -2
25 6 15 6 15 6 -35 6 -35 78 -3 78 -3 -3 68 -3 68 -40 6 -40 6 28 2 27 1 10
26 10 25 0 34 0 34 -10 6 -9 6 -51 -17 -50 -16 0 -15 0 -14 -37 3 -38 3 3 33
3 32 -23 -1 -23 -1 -30 -7z"/>
</g>
</svg>
