<?xml version="1.0" standalone="no"?>
<!DOCTYPE svg PUBLIC "-//W3C//DTD SVG 20010904//EN"
 "http://www.w3.org/TR/2001/REC-SVG-20010904/DTD/svg10.dtd">
<svg version="1.0" xmlns="http://www.w3.org/2000/svg"
 width="46.000000pt" height="43.000000pt" viewBox="0 0 46.000000 43.000000"
 preserveAspectRatio="xMidYMid meet">
<metadata>
Created by potrace 1.16, written by Peter Selinger 2001-2019
</metadata>
<g transform="translate(0.000000,43.000000) scale(0.100000,-0.100000)"
fill="#000000" stroke="none">
<path d="M183 405 l4 -26 -19 -10 -19 -10 -31 6 -30 7 7 -51 7 -51 -32 0 -31
0 -20 -10 -19 -11 0 -19 0 -19 21 -11 20 -11 37 3 37 3 -2 -20 -3 -20 -6 -38
-7 -37 41 0 41 0 3 -37 3 -38 50 0 50 0 3 27 3 27 45 7 44 6 11 42 11 41 4 12
3 11 23 4 23 3 0 40 0 40 -37 3 -37 3 -3 42 -3 42 -20 -1 -20 0 -37 -8 -38 -7
0 46 0 45 -41 0 -41 0 5 -25z"/>
</g>
</svg>
