<?xml version="1.0" standalone="no"?>
<!DOCTYPE svg PUBLIC "-//W3C//DTD SVG 20010904//EN"
 "http://www.w3.org/TR/2001/REC-SVG-20010904/DTD/svg10.dtd">
<svg version="1.0" xmlns="http://www.w3.org/2000/svg"
 width="44.000000pt" height="41.000000pt" viewBox="0 0 44.000000 41.000000"
 preserveAspectRatio="xMidYMid meet">
<metadata>
Created by potrace 1.16, written by Peter Selinger 2001-2019
</metadata>
<g transform="translate(0.000000,41.000000) scale(0.100000,-0.100000)"
fill="#000000" stroke="none">
<path d="M186 386 l6 -24 -22 -12 -22 -12 -28 4 -27 4 1 -50 1 -51 -30 3 -30
3 -20 -15 -20 -15 13 -13 13 -13 47 0 47 0 -1 -25 0 -25 -8 -33 -8 -32 45 0
44 0 -1 -37 -1 -38 40 0 40 0 3 27 3 27 44 7 44 6 10 32 9 31 6 27 6 28 23 -3
22 -2 0 30 0 30 -37 3 -38 3 0 38 0 38 -5 5 -5 5 -50 -10 -51 -10 -6 7 -7 7 2
39 3 40 -31 0 -30 0 6 -24z"/>
</g>
</svg>
