<?xml version="1.0" standalone="no"?>
<!DOCTYPE svg PUBLIC "-//W3C//DTD SVG 20010904//EN"
 "http://www.w3.org/TR/2001/REC-SVG-20010904/DTD/svg10.dtd">
<svg version="1.0" xmlns="http://www.w3.org/2000/svg"
 width="48.000000pt" height="35.000000pt" viewBox="0 0 48.000000 35.000000"
 preserveAspectRatio="xMidYMid meet">
<metadata>
Created by potrace 1.16, written by Peter Selinger 2001-2019
</metadata>
<g transform="translate(0.000000,35.000000) scale(0.100000,-0.100000)"
fill="#000000" stroke="none">
<path d="M213 344 l-13 -6 0 -29 0 -29 -39 0 -39 0 -16 -6 -16 -6 6 -37 6 -38
-31 5 -32 4 -19 -17 -20 -18 0 -22 0 -22 18 -16 19 -17 33 0 33 0 -7 -39 -6
-39 16 -6 16 -6 49 0 49 0 0 28 0 29 6 6 6 6 14 -6 14 -5 0 -29 0 -29 71 0 71
0 -7 23 -7 22 -5 22 -5 23 31 0 31 0 21 21 20 20 -3 32 -3 32 -35 5 -35 5 -3
37 -3 37 -17 5 -17 5 -42 6 -42 7 -3 21 -3 22 -25 2 -25 2 -12 -5z"/>
</g>
</svg>
