<?xml version="1.0" standalone="no"?>
<!DOCTYPE svg PUBLIC "-//W3C//DTD SVG 20010904//EN"
 "http://www.w3.org/TR/2001/REC-SVG-20010904/DTD/svg10.dtd">
<svg version="1.0" xmlns="http://www.w3.org/2000/svg"
 width="29.000000pt" height="35.000000pt" viewBox="0 0 29.000000 35.000000"
 preserveAspectRatio="xMidYMid meet">
<metadata>
Created by potrace 1.16, written by Peter Selinger 2001-2019
</metadata>
<g transform="translate(0.000000,35.000000) scale(0.100000,-0.100000)"
fill="#000000" stroke="none">
<path d="M127 343 l-7 -6 0 -28 0 -28 -51 -3 -52 -3 -10 -16 -10 -16 7 -28 7
-27 30 4 29 5 7 -25 6 -24 -26 -22 -25 -21 -6 -27 -6 -26 -6 -17 -7 -16 59 3
59 3 -2 38 -2 37 14 0 14 0 11 -21 11 -20 -6 -30 -7 -29 44 0 44 0 20 16 20
17 -17 51 -18 51 -15 3 -16 3 0 25 0 24 30 0 30 0 6 24 6 24 -4 19 -4 18 -19
-3 -20 -3 -37 -6 -38 -6 -1 14 -1 14 1 9 2 10 -6 23 -5 23 -14 0 -13 0 -6 -7z"/>
</g>
</svg>
