<?xml version="1.0" standalone="no"?>
<!DOCTYPE svg PUBLIC "-//W3C//DTD SVG 20010904//EN"
 "http://www.w3.org/TR/2001/REC-SVG-20010904/DTD/svg10.dtd">
<svg version="1.0" xmlns="http://www.w3.org/2000/svg"
 width="37.000000pt" height="36.000000pt" viewBox="0 0 37.000000 36.000000"
 preserveAspectRatio="xMidYMid meet">
<metadata>
Created by potrace 1.16, written by Peter Selinger 2001-2019
</metadata>
<g transform="translate(0.000000,36.000000) scale(0.100000,-0.100000)"
fill="#000000" stroke="none">
<path d="M160 336 l0 -25 -19 -11 -20 -10 -25 0 -26 0 0 -29 0 -29 -6 -16 -6
-16 -29 0 -29 0 0 -34 0 -34 18 -4 17 -5 12 -44 13 -44 8 -12 8 -12 56 -7 57
-7 3 39 3 39 10 0 10 0 5 -35 5 -35 19 -3 19 -4 52 7 53 6 -1 67 -2 67 -30 0
-30 1 0 14 0 15 33 3 32 3 -6 42 -6 42 -3 12 -4 12 -53 3 -53 3 -5 30 -5 30
-38 3 -37 3 0 -25z"/>
</g>
</svg>
