<?xml version="1.0" standalone="no"?>
<!DOCTYPE svg PUBLIC "-//W3C//DTD SVG 20010904//EN"
 "http://www.w3.org/TR/2001/REC-SVG-20010904/DTD/svg10.dtd">
<svg version="1.0" xmlns="http://www.w3.org/2000/svg"
 width="43.000000pt" height="28.000000pt" viewBox="0 0 43.000000 28.000000"
 preserveAspectRatio="xMidYMid meet">
<metadata>
Created by potrace 1.16, written by Peter Selinger 2001-2019
</metadata>
<g transform="translate(0.000000,28.000000) scale(0.100000,-0.100000)"
fill="#000000" stroke="none">
<path d="M85 269 l-7 -10 6 -34 7 -34 -23 -5 -23 -5 -20 -3 -20 -3 0 -30 0
-30 22 2 22 3 11 -20 11 -20 1 -35 1 -35 34 0 34 0 20 10 19 11 0 24 0 25 19
0 19 0 16 -6 16 -6 0 -34 0 -34 33 0 32 0 21 6 22 6 -14 45 -14 45 6 9 5 9 25
-6 25 -6 19 17 20 18 0 8 0 8 -16 15 -15 16 -26 0 -25 0 4 45 3 45 -132 0
-132 0 -6 -11z"/>
</g>
</svg>
