<?xml version="1.0" standalone="no"?>
<!DOCTYPE svg PUBLIC "-//W3C//DTD SVG 20010904//EN"
 "http://www.w3.org/TR/2001/REC-SVG-20010904/DTD/svg10.dtd">
<svg version="1.0" xmlns="http://www.w3.org/2000/svg"
 width="27.000000pt" height="35.000000pt" viewBox="0 0 27.000000 35.000000"
 preserveAspectRatio="xMidYMid meet">
<metadata>
Created by potrace 1.16, written by Peter Selinger 2001-2019
</metadata>
<g transform="translate(0.000000,35.000000) scale(0.100000,-0.100000)"
fill="#000000" stroke="none">
<path d="M167 344 l-6 -6 5 -13 6 -13 -12 -22 -11 -21 -27 3 -27 3 3 18 3 18
-12 15 -11 14 -40 0 -39 0 3 -37 3 -38 35 -5 35 -5 3 -32 3 -33 -13 -1 -13 -1
-8 1 -7 1 -9 -22 -8 -23 -7 -32 -7 -32 43 -3 43 -3 3 -38 3 -37 23 0 24 0 12
15 12 15 -6 31 -6 31 53 -4 52 -3 0 50 0 50 -40 5 -40 5 0 20 0 20 28 -3 29
-3 14 12 14 11 0 39 0 38 -19 11 -20 10 -29 0 -29 0 -6 -6z"/>
</g>
</svg>
