<?xml version="1.0" standalone="no"?>
<!DOCTYPE svg PUBLIC "-//W3C//DTD SVG 20010904//EN"
 "http://www.w3.org/TR/2001/REC-SVG-20010904/DTD/svg10.dtd">
<svg version="1.0" xmlns="http://www.w3.org/2000/svg"
 width="29.000000pt" height="37.000000pt" viewBox="0 0 29.000000 37.000000"
 preserveAspectRatio="xMidYMid meet">
<metadata>
Created by potrace 1.16, written by Peter Selinger 2001-2019
</metadata>
<g transform="translate(0.000000,37.000000) scale(0.100000,-0.100000)"
fill="#000000" stroke="none">
<path d="M163 355 l-5 -16 5 -6 6 -6 -10 -18 -10 -19 -14 0 -15 0 0 23 0 23
-12 12 -12 12 -49 0 -48 0 3 -47 3 -48 35 -5 35 -5 3 -22 3 -23 -21 0 -20 0
-10 -26 -10 -25 -6 -39 -6 -39 43 -3 44 -3 3 -37 3 -38 33 0 32 0 12 12 12 12
0 33 0 33 48 -3 47 -2 0 60 0 60 -35 3 -35 3 -10 10 -9 9 35 0 35 0 12 12 12
12 0 48 0 47 -19 11 -20 10 -41 0 -41 0 -6 -15z"/>
</g>
</svg>
