<?xml version="1.0" standalone="no"?>
<!DOCTYPE svg PUBLIC "-//W3C//DTD SVG 20010904//EN"
 "http://www.w3.org/TR/2001/REC-SVG-20010904/DTD/svg10.dtd">
<svg version="1.0" xmlns="http://www.w3.org/2000/svg"
 width="37.000000pt" height="30.000000pt" viewBox="0 0 37.000000 30.000000"
 preserveAspectRatio="xMidYMid meet">
<metadata>
Created by potrace 1.16, written by Peter Selinger 2001-2019
</metadata>
<g transform="translate(0.000000,30.000000) scale(0.100000,-0.100000)"
fill="#000000" stroke="none">
<path d="M29 293 l-17 -4 -6 -30 -6 -31 6 -24 6 -24 33 0 33 0 5 -14 5 -14
-11 -11 -11 -11 -18 0 -18 0 -6 -40 -7 -40 -8 -6 -9 -5 0 -19 0 -19 58 6 57 6
13 10 14 11 -4 28 -5 28 9 0 8 0 0 -25 0 -25 23 -9 22 -8 43 -7 42 -6 0 55 0
55 34 0 34 0 12 15 12 15 -5 14 -6 15 -33 3 -33 3 -3 53 -3 52 -54 0 -54 0 -3
-26 -3 -27 -17 -10 -16 -11 -16 13 -16 13 0 29 0 29 -32 -1 -33 -1 -16 -5z"/>
</g>
</svg>
