<?xml version="1.0" standalone="no"?>
<!DOCTYPE svg PUBLIC "-//W3C//DTD SVG 20010904//EN"
 "http://www.w3.org/TR/2001/REC-SVG-20010904/DTD/svg10.dtd">
<svg version="1.0" xmlns="http://www.w3.org/2000/svg"
 width="36.000000pt" height="34.000000pt" viewBox="0 0 36.000000 34.000000"
 preserveAspectRatio="xMidYMid meet">
<metadata>
Created by potrace 1.16, written by Peter Selinger 2001-2019
</metadata>
<g transform="translate(0.000000,34.000000) scale(0.100000,-0.100000)"
fill="#000000" stroke="none">
<path d="M97 333 l-29 -5 4 -44 3 -44 -27 0 -27 0 -10 -19 -11 -19 14 -11 13
-11 24 2 24 3 0 -55 0 -55 45 -5 45 -5 0 -28 -1 -28 25 -6 24 -6 16 10 16 10
0 24 0 24 51 3 52 3 6 31 6 31 0 23 0 24 -46 0 -45 0 3 28 3 27 21 -3 21 -3
12 15 12 15 -3 33 -3 33 -50 0 -50 0 3 -17 3 -18 -11 -20 -11 -20 -18 0 -18 0
-12 24 -13 24 7 21 6 21 -23 -1 -23 -2 -28 -4z"/>
</g>
</svg>
