<?xml version="1.0" standalone="no"?>
<!DOCTYPE svg PUBLIC "-//W3C//DTD SVG 20010904//EN"
 "http://www.w3.org/TR/2001/REC-SVG-20010904/DTD/svg10.dtd">
<svg version="1.0" xmlns="http://www.w3.org/2000/svg"
 width="29.000000pt" height="27.000000pt" viewBox="0 0 29.000000 27.000000"
 preserveAspectRatio="xMidYMid meet">
<metadata>
Created by potrace 1.16, written by Peter Selinger 2001-2019
</metadata>
<g transform="translate(0.000000,27.000000) scale(0.100000,-0.100000)"
fill="#000000" stroke="none">
<path d="M168 228 l-3 -43 -28 -3 -28 -3 -15 12 -16 13 6 28 6 28 -46 0 -45 0
3 -47 3 -48 26 3 26 3 12 -15 13 -16 -6 -15 -5 -15 -20 0 -20 0 -4 -7 -4 -8
-7 -47 -7 -48 46 0 47 0 -7 28 -6 28 20 18 19 18 21 -11 20 -11 -4 -13 -5 -12
8 -12 7 -12 42 -9 41 -9 10 6 10 6 2 35 3 35 -2 17 -1 18 -30 -6 -30 -6 -15
12 -15 12 0 9 0 8 38 3 37 3 3 49 3 49 -13 8 -13 9 -37 0 -37 0 -3 -42z"/>
</g>
</svg>
