<?xml version="1.0" standalone="no"?>
<!DOCTYPE svg PUBLIC "-//W3C//DTD SVG 20010904//EN"
 "http://www.w3.org/TR/2001/REC-SVG-20010904/DTD/svg10.dtd">
<svg version="1.0" xmlns="http://www.w3.org/2000/svg"
 width="31.000000pt" height="29.000000pt" viewBox="0 0 31.000000 29.000000"
 preserveAspectRatio="xMidYMid meet">
<metadata>
Created by potrace 1.16, written by Peter Selinger 2001-2019
</metadata>
<g transform="translate(0.000000,29.000000) scale(0.100000,-0.100000)"
fill="#000000" stroke="none">
<path d="M170 250 l0 -41 -16 -6 -17 -6 -16 10 -16 11 3 31 3 31 -56 0 -56 0
3 -57 3 -58 25 0 25 0 13 -8 12 -8 -5 -10 -6 -9 -19 0 -19 0 -4 -7 -5 -8 -7
-58 -7 -57 57 0 57 0 -3 28 -3 27 7 13 8 12 13 0 14 0 5 -29 6 -29 50 -11 50
-11 14 6 14 5 6 43 6 42 -6 23 -6 23 -33 -6 -32 -7 -6 10 -6 10 32 3 33 3 3
59 3 59 -13 8 -13 9 -47 0 -48 0 0 -40z"/>
</g>
</svg>
