<?xml version="1.0" standalone="no"?>
<!DOCTYPE svg PUBLIC "-//W3C//DTD SVG 20010904//EN"
 "http://www.w3.org/TR/2001/REC-SVG-20010904/DTD/svg10.dtd">
<svg version="1.0" xmlns="http://www.w3.org/2000/svg"
 width="45.000000pt" height="37.000000pt" viewBox="0 0 45.000000 37.000000"
 preserveAspectRatio="xMidYMid meet">
<metadata>
Created by potrace 1.16, written by Peter Selinger 2001-2019
</metadata>
<g transform="translate(0.000000,37.000000) scale(0.100000,-0.100000)"
fill="#000000" stroke="none">
<path d="M108 363 l-27 -4 -3 -52 -3 -52 -38 -3 -37 -3 0 -18 0 -17 12 -12 12
-12 33 0 33 0 0 -55 0 -55 35 0 35 0 0 -15 0 -16 16 -24 16 -25 28 0 28 0 12
15 12 15 -4 30 -5 31 45 -3 46 -3 10 55 11 55 15 -3 14 -3 23 6 23 5 0 24 0
24 -16 6 -16 6 -29 0 -29 0 0 45 0 45 -27 0 -28 0 -23 -7 -24 -6 5 -19 5 -19
-23 -11 -24 -11 -16 13 -15 12 0 34 0 34 -27 -1 -28 -2 -27 -4z"/>
</g>
</svg>
