<?xml version="1.0" standalone="no"?>
<!DOCTYPE svg PUBLIC "-//W3C//DTD SVG 20010904//EN"
 "http://www.w3.org/TR/2001/REC-SVG-20010904/DTD/svg10.dtd">
<svg version="1.0" xmlns="http://www.w3.org/2000/svg"
 width="45.000000pt" height="36.000000pt" viewBox="0 0 45.000000 36.000000"
 preserveAspectRatio="xMidYMid meet">
<metadata>
Created by potrace 1.16, written by Peter Selinger 2001-2019
</metadata>
<g transform="translate(0.000000,36.000000) scale(0.100000,-0.100000)"
fill="#000000" stroke="none">
<path d="M250 333 l2 -28 -1 -12 -1 -12 -20 -6 -21 -7 -14 12 -15 12 0 29 0
29 -50 0 -50 0 0 -29 0 -30 -10 -25 -10 -26 -30 0 -30 0 0 -20 0 -19 20 -11
21 -11 22 3 22 3 0 -55 0 -55 48 -3 47 -3 0 -35 0 -34 41 0 41 0 5 19 5 19 49
12 49 12 0 54 0 54 30 0 29 0 11 21 11 20 -6 30 -7 30 -31 -3 -32 -3 -3 25 -3
25 -4 23 -5 22 -56 0 -56 0 2 -27z"/>
</g>
</svg>
