<?xml version="1.0" standalone="no"?>
<!DOCTYPE svg PUBLIC "-//W3C//DTD SVG 20010904//EN"
 "http://www.w3.org/TR/2001/REC-SVG-20010904/DTD/svg10.dtd">
<svg version="1.0" xmlns="http://www.w3.org/2000/svg"
 width="37.000000pt" height="36.000000pt" viewBox="0 0 37.000000 36.000000"
 preserveAspectRatio="xMidYMid meet">
<metadata>
Created by potrace 1.16, written by Peter Selinger 2001-2019
</metadata>
<g transform="translate(0.000000,36.000000) scale(0.100000,-0.100000)"
fill="#000000" stroke="none">
<path d="M27 353 l-18 -5 3 -41 3 -42 32 1 31 2 6 -21 5 -20 -10 -19 -10 -18
-28 0 -29 0 -4 -12 -5 -13 5 -37 4 -38 28 0 29 0 15 -16 16 -15 -6 -25 -6 -24
8 0 9 0 21 -6 21 -6 17 17 17 17 -6 19 -6 19 13 4 13 5 45 6 46 6 2 36 3 36 5
9 5 8 24 0 24 0 12 21 11 22 -13 23 -13 24 -33 -6 -33 -6 0 46 0 46 -24 0 -23
0 -30 -6 -30 -6 5 -25 5 -24 -34 3 -34 3 -3 33 -3 32 -32 -1 -32 -1 -18 -5z"/>
</g>
</svg>
