<?xml version="1.0" standalone="no"?>
<!DOCTYPE svg PUBLIC "-//W3C//DTD SVG 20010904//EN"
 "http://www.w3.org/TR/2001/REC-SVG-20010904/DTD/svg10.dtd">
<svg version="1.0" xmlns="http://www.w3.org/2000/svg"
 width="37.000000pt" height="37.000000pt" viewBox="0 0 37.000000 37.000000"
 preserveAspectRatio="xMidYMid meet">
<metadata>
Created by potrace 1.16, written by Peter Selinger 2001-2019
</metadata>
<g transform="translate(0.000000,37.000000) scale(0.100000,-0.100000)"
fill="#000000" stroke="none">
<path d="M23 363 l-23 -4 0 -55 0 -54 19 0 19 0 16 -6 16 -6 0 -19 0 -19 -19
0 -20 0 -5 -8 -5 -8 -7 -52 -7 -52 42 0 41 0 0 -30 0 -30 26 -12 26 -12 26 15
27 15 9 37 10 38 15 -7 16 -7 20 -1 20 -1 11 45 11 45 25 3 26 3 6 24 6 24
-10 26 -10 27 -35 -6 -35 -7 0 44 0 45 -16 6 -16 6 -44 0 -44 0 0 -33 0 -34
-6 -6 -7 -6 -18 10 -19 10 0 29 0 30 -32 -1 -33 -2 -22 -4z"/>
</g>
</svg>
