<?xml version="1.0" standalone="no"?>
<!DOCTYPE svg PUBLIC "-//W3C//DTD SVG 20010904//EN"
 "http://www.w3.org/TR/2001/REC-SVG-20010904/DTD/svg10.dtd">
<svg version="1.0" xmlns="http://www.w3.org/2000/svg"
 width="42.000000pt" height="29.000000pt" viewBox="0 0 42.000000 29.000000"
 preserveAspectRatio="xMidYMid meet">
<metadata>
Created by potrace 1.16, written by Peter Selinger 2001-2019
</metadata>
<g transform="translate(0.000000,29.000000) scale(0.100000,-0.100000)"
fill="#000000" stroke="none">
<path d="M103 283 l-33 -4 0 -29 0 -29 -9 -24 -10 -25 -25 5 -26 5 0 -30 0
-30 14 -12 15 -11 23 3 23 3 -3 -52 -3 -53 46 0 46 0 20 10 19 11 1 32 2 32 4
-27 4 -28 26 -6 26 -7 36 -1 36 -1 -3 48 -3 47 33 0 34 0 12 12 12 12 0 18 0
18 -30 0 -30 0 -10 26 -10 25 0 25 0 24 -14 0 -14 0 -32 -6 -32 -7 -10 -28
-10 -29 -11 0 -12 0 -12 8 -11 7 -4 35 -3 35 -20 1 -20 1 -32 -4z"/>
</g>
</svg>
