<?xml version="1.0" standalone="no"?>
<!DOCTYPE svg PUBLIC "-//W3C//DTD SVG 20010904//EN"
 "http://www.w3.org/TR/2001/REC-SVG-20010904/DTD/svg10.dtd">
<svg version="1.0" xmlns="http://www.w3.org/2000/svg"
 width="40.000000pt" height="27.000000pt" viewBox="0 0 40.000000 27.000000"
 preserveAspectRatio="xMidYMid meet">
<metadata>
Created by potrace 1.16, written by Peter Selinger 2001-2019
</metadata>
<g transform="translate(0.000000,27.000000) scale(0.100000,-0.100000)"
fill="#000000" stroke="none">
<path d="M103 263 l-33 -4 0 -29 0 -29 -10 -26 -10 -27 -25 6 -25 6 0 -19 0
-20 13 -8 12 -8 25 0 25 0 -2 -52 -2 -53 35 0 35 0 20 11 20 10 -3 27 -3 27
23 3 23 3 -7 -25 -6 -25 24 -6 23 -6 30 -2 30 -2 -3 48 -4 47 34 0 34 0 12 12
12 12 0 8 0 8 -30 0 -30 0 -10 26 -10 25 0 26 0 25 -22 -6 -23 -6 -13 0 -13 0
-10 -30 -11 -30 -21 0 -22 0 -12 8 -11 7 -4 34 -3 34 -10 2 -10 2 -32 -4z"/>
</g>
</svg>
