<?xml version="1.0" standalone="no"?>
<!DOCTYPE svg PUBLIC "-//W3C//DTD SVG 20010904//EN"
 "http://www.w3.org/TR/2001/REC-SVG-20010904/DTD/svg10.dtd">
<svg version="1.0" xmlns="http://www.w3.org/2000/svg"
 width="36.000000pt" height="27.000000pt" viewBox="0 0 36.000000 27.000000"
 preserveAspectRatio="xMidYMid meet">
<metadata>
Created by potrace 1.16, written by Peter Selinger 2001-2019
</metadata>
<g transform="translate(0.000000,27.000000) scale(0.100000,-0.100000)"
fill="#000000" stroke="none">
<path d="M27 263 l-7 -6 0 -39 0 -38 24 0 25 0 15 -16 16 -15 0 -8 0 -8 -19
-17 -19 -17 -28 3 -29 3 3 -28 3 -28 9 -25 10 -24 28 0 28 0 19 14 18 13 -6
22 -5 22 31 -3 32 -3 0 -30 0 -30 60 -3 60 -3 -3 57 -4 56 19 -6 19 -6 19 14
20 14 -10 29 -10 28 -29 3 -28 4 4 39 4 39 -132 0 -131 0 -6 -7z"/>
</g>
</svg>
