<?xml version="1.0" standalone="no"?>
<!DOCTYPE svg PUBLIC "-//W3C//DTD SVG 20010904//EN"
 "http://www.w3.org/TR/2001/REC-SVG-20010904/DTD/svg10.dtd">
<svg version="1.0" xmlns="http://www.w3.org/2000/svg"
 width="38.000000pt" height="35.000000pt" viewBox="0 0 38.000000 35.000000"
 preserveAspectRatio="xMidYMid meet">
<metadata>
Created by potrace 1.16, written by Peter Selinger 2001-2019
</metadata>
<g transform="translate(0.000000,35.000000) scale(0.100000,-0.100000)"
fill="#000000" stroke="none">
<path d="M30 307 l0 -45 14 -12 15 -11 22 3 22 3 4 -12 4 -12 -21 -21 -21 -21
-29 6 -28 6 -7 -11 -6 -10 12 -55 12 -54 48 6 48 6 3 -34 3 -34 30 -3 29 -4
13 18 13 18 0 24 0 24 23 -5 22 -5 31 -7 31 -6 7 50 7 51 24 16 25 16 0 27 0
26 -9 14 -9 13 -22 -7 -22 -7 -9 13 -9 14 7 34 6 34 -24 -7 -24 -6 -29 -7 -29
-6 -4 -19 -5 -18 -34 0 -33 0 -3 28 -3 27 -47 3 -48 3 0 -44z"/>
</g>
</svg>
