<?xml version="1.0" standalone="no"?>
<!DOCTYPE svg PUBLIC "-//W3C//DTD SVG 20010904//EN"
 "http://www.w3.org/TR/2001/REC-SVG-20010904/DTD/svg10.dtd">
<svg version="1.0" xmlns="http://www.w3.org/2000/svg"
 width="36.000000pt" height="33.000000pt" viewBox="0 0 36.000000 33.000000"
 preserveAspectRatio="xMidYMid meet">
<metadata>
Created by potrace 1.16, written by Peter Selinger 2001-2019
</metadata>
<g transform="translate(0.000000,33.000000) scale(0.100000,-0.100000)"
fill="#000000" stroke="none">
<path d="M30 296 l0 -35 13 -8 12 -8 25 0 25 0 3 -22 3 -22 -21 -21 -21 -21
-32 3 -32 3 3 -29 3 -30 10 -18 10 -18 44 0 44 0 3 -32 3 -33 22 -3 22 -3 11
21 11 20 -3 18 -3 17 52 -3 52 -3 12 43 12 43 25 21 25 22 -6 24 -7 25 -29 -5
-29 -4 -7 22 -7 21 6 24 6 23 -43 -13 -42 -12 0 -14 0 -14 -50 0 -50 0 0 25 0
25 -37 3 -38 3 0 -35z"/>
</g>
</svg>
