<?xml version="1.0" standalone="no"?>
<!DOCTYPE svg PUBLIC "-//W3C//DTD SVG 20010904//EN"
 "http://www.w3.org/TR/2001/REC-SVG-20010904/DTD/svg10.dtd">
<svg version="1.0" xmlns="http://www.w3.org/2000/svg"
 width="42.000000pt" height="34.000000pt" viewBox="0 0 42.000000 34.000000"
 preserveAspectRatio="xMidYMid meet">
<metadata>
Created by potrace 1.16, written by Peter Selinger 2001-2019
</metadata>
<g transform="translate(0.000000,34.000000) scale(0.100000,-0.100000)"
fill="#000000" stroke="none">
<path d="M70 301 l0 -39 -14 -11 -15 -12 -18 3 -18 3 -3 -27 -3 -28 47 0 47 0
-7 -55 -6 -55 32 0 33 0 13 -9 14 -8 -2 -19 -2 -19 1 -13 1 -13 28 3 27 3 3
27 3 27 17 5 17 5 37 3 36 2 7 52 6 53 12 9 12 10 20 4 20 3 0 15 0 15 -34 -3
-34 -3 -9 13 -8 13 0 42 0 43 -32 -6 -33 -6 -12 -3 -13 -4 6 -16 6 -15 -12
-15 -12 -15 -29 0 -28 0 -8 12 -7 13 3 27 3 28 -46 0 -46 0 0 -39z"/>
</g>
</svg>
