<?xml version="1.0" standalone="no"?>
<!DOCTYPE svg PUBLIC "-//W3C//DTD SVG 20010904//EN"
 "http://www.w3.org/TR/2001/REC-SVG-20010904/DTD/svg10.dtd">
<svg version="1.0" xmlns="http://www.w3.org/2000/svg"
 width="44.000000pt" height="36.000000pt" viewBox="0 0 44.000000 36.000000"
 preserveAspectRatio="xMidYMid meet">
<metadata>
Created by potrace 1.16, written by Peter Selinger 2001-2019
</metadata>
<g transform="translate(0.000000,36.000000) scale(0.100000,-0.100000)"
fill="#000000" stroke="none">
<path d="M70 321 l0 -40 -12 -8 -13 -7 -20 -1 -20 0 -3 -37 -3 -38 46 0 46 0
-6 -55 -7 -55 33 0 34 0 14 -9 14 -9 -7 -11 -7 -11 6 -21 7 -20 36 3 37 3 4
25 3 25 12 7 11 8 41 0 42 0 6 54 7 55 12 9 12 10 20 4 20 3 0 25 0 25 -35 -1
-35 0 -7 10 -8 11 0 43 0 43 -47 -7 -48 -7 -8 -4 -8 -5 3 -20 3 -21 -16 -10
-16 -10 -17 6 -16 6 0 36 0 35 -55 0 -55 0 0 -39z"/>
</g>
</svg>
