<?xml version="1.0" standalone="no"?>
<!DOCTYPE svg PUBLIC "-//W3C//DTD SVG 20010904//EN"
 "http://www.w3.org/TR/2001/REC-SVG-20010904/DTD/svg10.dtd">
<svg version="1.0" xmlns="http://www.w3.org/2000/svg"
 width="40.000000pt" height="40.000000pt" viewBox="0 0 40.000000 40.000000"
 preserveAspectRatio="xMidYMid meet">
<metadata>
Created by potrace 1.16, written by Peter Selinger 2001-2019
</metadata>
<g transform="translate(0.000000,40.000000) scale(0.100000,-0.100000)"
fill="#000000" stroke="none">
<path d="M152 388 l-12 -12 0 -22 0 -22 -5 -14 -6 -15 -54 5 -55 4 0 -51 0
-52 26 -24 25 -24 -33 -3 -33 -3 -3 -24 -4 -24 13 -44 12 -44 61 3 61 3 0 30
1 30 17 3 17 3 0 -41 0 -41 17 -6 16 -6 56 14 56 14 3 20 3 20 4 22 5 22 28 3
27 3 0 55 0 55 -35 5 -35 5 -3 32 -3 32 -13 10 -13 11 -39 8 -39 8 -4 24 -3
25 -12 7 -11 8 -10 0 -11 0 -12 -12z"/>
</g>
</svg>
