<?xml version="1.0" standalone="no"?>
<!DOCTYPE svg PUBLIC "-//W3C//DTD SVG 20010904//EN"
 "http://www.w3.org/TR/2001/REC-SVG-20010904/DTD/svg10.dtd">
<svg version="1.0" xmlns="http://www.w3.org/2000/svg"
 width="38.000000pt" height="38.000000pt" viewBox="0 0 38.000000 38.000000"
 preserveAspectRatio="xMidYMid meet">
<metadata>
Created by potrace 1.16, written by Peter Selinger 2001-2019
</metadata>
<g transform="translate(0.000000,38.000000) scale(0.100000,-0.100000)"
fill="#000000" stroke="none">
<path d="M150 364 l-12 -14 4 -23 4 -23 -12 -12 -12 -11 -51 6 -51 6 0 -42 0
-41 20 -20 20 -20 16 0 16 0 -12 -15 -12 -15 -30 0 -29 0 -6 -15 -5 -16 12
-43 12 -43 51 1 52 1 -3 27 -3 27 22 11 21 12 11 -11 11 -11 -1 -35 -1 -35 9
-6 10 -6 50 12 51 12 3 12 3 11 6 35 6 36 28 -1 27 0 0 45 0 45 -35 5 -35 5
-3 32 -3 32 -13 10 -13 11 -39 8 -39 8 -3 26 -3 26 -14 6 -14 5 -11 -15z"/>
</g>
</svg>
