<?xml version="1.0" standalone="no"?>
<!DOCTYPE svg PUBLIC "-//W3C//DTD SVG 20010904//EN"
 "http://www.w3.org/TR/2001/REC-SVG-20010904/DTD/svg10.dtd">
<svg version="1.0" xmlns="http://www.w3.org/2000/svg"
 width="44.000000pt" height="36.000000pt" viewBox="0 0 44.000000 36.000000"
 preserveAspectRatio="xMidYMid meet">
<metadata>
Created by potrace 1.16, written by Peter Selinger 2001-2019
</metadata>
<g transform="translate(0.000000,36.000000) scale(0.100000,-0.100000)"
fill="#000000" stroke="none">
<path d="M185 348 l-4 -13 -3 -30 -3 -30 -53 -3 -53 -3 2 -27 2 -27 -1 -22 -2
-23 -29 0 -29 0 -5 -12 -4 -13 5 -17 4 -17 32 -3 31 -3 -2 -47 -3 -48 24 -6
23 -5 34 3 34 3 -3 26 -3 26 17 13 16 14 13 -17 12 -17 -5 -26 -5 -25 59 3 59
3 -2 15 -1 15 -7 33 -7 32 39 0 39 0 18 13 18 13 -4 29 -3 30 -37 -1 -36 -1
-6 21 -6 21 0 22 0 23 -27 5 -28 6 -30 8 -30 7 3 24 2 24 -12 8 -13 8 -13 0
-13 0 -4 -12z"/>
</g>
</svg>
