<?xml version="1.0" standalone="no"?>
<!DOCTYPE svg PUBLIC "-//W3C//DTD SVG 20010904//EN"
 "http://www.w3.org/TR/2001/REC-SVG-20010904/DTD/svg10.dtd">
<svg version="1.0" xmlns="http://www.w3.org/2000/svg"
 width="36.000000pt" height="43.000000pt" viewBox="0 0 36.000000 43.000000"
 preserveAspectRatio="xMidYMid meet">
<metadata>
Created by potrace 1.16, written by Peter Selinger 2001-2019
</metadata>
<g transform="translate(0.000000,43.000000) scale(0.100000,-0.100000)"
fill="#000000" stroke="none">
<path d="M125 420 l-6 -10 6 -21 7 -20 -12 -14 -12 -15 -38 0 -38 0 -16 -6
-16 -6 0 -34 0 -35 12 -12 12 -13 27 4 27 4 7 -12 7 -11 -6 -23 -6 -23 -21 1
-21 1 -13 -42 -13 -42 6 -6 5 -5 26 0 26 0 23 -6 23 -7 -3 -31 -3 -31 30 0 30
0 3 26 3 27 47 7 47 7 7 11 8 12 0 42 0 42 33 3 32 3 0 25 0 25 -30 3 -30 4
-7 11 -7 12 5 22 6 22 -6 18 -6 19 -35 2 -35 3 -26 9 -26 10 6 16 6 17 -11 13
-11 14 -9 0 -8 0 -6 -10z"/>
</g>
</svg>
