<?xml version="1.0" standalone="no"?>
<!DOCTYPE svg PUBLIC "-//W3C//DTD SVG 20010904//EN"
 "http://www.w3.org/TR/2001/REC-SVG-20010904/DTD/svg10.dtd">
<svg version="1.0" xmlns="http://www.w3.org/2000/svg"
 width="38.000000pt" height="45.000000pt" viewBox="0 0 38.000000 45.000000"
 preserveAspectRatio="xMidYMid meet">
<metadata>
Created by potrace 1.16, written by Peter Selinger 2001-2019
</metadata>
<g transform="translate(0.000000,45.000000) scale(0.100000,-0.100000)"
fill="#000000" stroke="none">
<path d="M125 440 l-6 -10 2 -23 3 -22 -7 -12 -8 -13 -39 0 -38 0 -16 -6 -16
-6 0 -45 0 -44 14 -14 14 -14 28 2 29 2 0 -15 0 -14 -24 -6 -24 -5 -13 -45
-14 -45 5 -13 4 -12 28 0 28 0 21 -6 22 -6 -2 -31 -1 -32 40 0 40 0 3 26 3 27
47 7 47 7 7 11 8 12 0 42 0 42 33 3 32 3 0 35 0 35 -32 3 -33 3 0 39 0 38 -6
16 -6 16 -32 0 -31 0 -22 6 -23 6 0 22 0 22 -12 12 -12 12 -17 0 -18 0 -6 -10z"/>
</g>
</svg>
