<?xml version="1.0" standalone="no"?>
<!DOCTYPE svg PUBLIC "-//W3C//DTD SVG 20010904//EN"
 "http://www.w3.org/TR/2001/REC-SVG-20010904/DTD/svg10.dtd">
<svg version="1.0" xmlns="http://www.w3.org/2000/svg"
 width="36.000000pt" height="35.000000pt" viewBox="0 0 36.000000 35.000000"
 preserveAspectRatio="xMidYMid meet">
<metadata>
Created by potrace 1.16, written by Peter Selinger 2001-2019
</metadata>
<g transform="translate(0.000000,35.000000) scale(0.100000,-0.100000)"
fill="#000000" stroke="none">
<path d="M0 300 l0 -50 31 0 30 0 -3 -32 -3 -33 -22 -3 -23 -3 0 -17 0 -17 -6
-38 -7 -37 36 0 35 0 15 -6 14 -5 -4 -24 -5 -23 21 -7 21 -6 30 6 30 7 0 13 0
14 18 5 17 5 33 6 32 7 1 36 0 37 8 20 8 20 24 0 24 0 3 39 3 39 -29 -6 -29
-6 -12 12 -11 11 0 44 0 44 -42 -7 -43 -6 -17 -5 -18 -5 0 -25 0 -24 -19 0
-20 0 -3 33 -3 32 -57 3 -58 3 0 -51z"/>
</g>
</svg>
