<?xml version="1.0" standalone="no"?>
<!DOCTYPE svg PUBLIC "-//W3C//DTD SVG 20010904//EN"
 "http://www.w3.org/TR/2001/REC-SVG-20010904/DTD/svg10.dtd">
<svg version="1.0" xmlns="http://www.w3.org/2000/svg"
 width="37.000000pt" height="30.000000pt" viewBox="0 0 37.000000 30.000000"
 preserveAspectRatio="xMidYMid meet">
<metadata>
Created by potrace 1.16, written by Peter Selinger 2001-2019
</metadata>
<g transform="translate(0.000000,30.000000) scale(0.100000,-0.100000)"
fill="#000000" stroke="none">
<path d="M90 256 l0 -45 -12 -8 -13 -8 -30 0 -30 0 0 -30 0 -30 40 -5 40 -5
-2 -57 -2 -57 52 5 52 6 13 4 12 3 0 30 0 30 9 6 10 6 9 -18 10 -18 -5 -32 -5
-33 43 0 44 0 23 6 22 6 0 64 0 64 -24 0 -24 0 -11 14 -11 13 13 11 13 11 22
-6 22 -5 0 61 0 62 -57 -3 -57 -3 -6 -25 -6 -25 -19 0 -19 0 -6 25 -6 25 -52
3 -52 3 0 -45z"/>
</g>
</svg>
