<?xml version="1.0" standalone="no"?>
<!DOCTYPE svg PUBLIC "-//W3C//DTD SVG 20010904//EN"
 "http://www.w3.org/TR/2001/REC-SVG-20010904/DTD/svg10.dtd">
<svg version="1.0" xmlns="http://www.w3.org/2000/svg"
 width="44.000000pt" height="33.000000pt" viewBox="0 0 44.000000 33.000000"
 preserveAspectRatio="xMidYMid meet">
<metadata>
Created by potrace 1.16, written by Peter Selinger 2001-2019
</metadata>
<g transform="translate(0.000000,33.000000) scale(0.100000,-0.100000)"
fill="#000000" stroke="none">
<path d="M98 281 l4 -49 -39 5 -39 5 -13 -16 -14 -16 18 -20 18 -20 32 0 33 0
11 -13 11 -14 -4 -4 -3 -4 -6 -32 -6 -32 37 -3 37 -3 0 -30 1 -30 31 -3 32 -3
21 21 22 22 -6 14 -5 14 35 0 35 0 4 12 4 13 6 47 6 47 37 3 37 3 0 20 0 20
-40 5 -40 5 -3 43 -3 42 -40 0 -39 0 6 -24 5 -23 -17 -17 -17 -17 -31 3 -31 3
0 35 0 35 -46 3 -46 3 5 -50z"/>
</g>
</svg>
