<?xml version="1.0" standalone="no"?>
<!DOCTYPE svg PUBLIC "-//W3C//DTD SVG 20010904//EN"
 "http://www.w3.org/TR/2001/REC-SVG-20010904/DTD/svg10.dtd">
<svg version="1.0" xmlns="http://www.w3.org/2000/svg"
 width="29.000000pt" height="30.000000pt" viewBox="0 0 29.000000 30.000000"
 preserveAspectRatio="xMidYMid meet">
<metadata>
Created by potrace 1.16, written by Peter Selinger 2001-2019
</metadata>
<g transform="translate(0.000000,30.000000) scale(0.100000,-0.100000)"
fill="#000000" stroke="none">
<path d="M0 246 l0 -55 37 -3 38 -3 3 -17 3 -18 -24 0 -25 0 -6 -15 -5 -15 -7
-49 -6 -49 50 -7 51 -7 11 7 10 6 0 34 0 34 11 7 11 7 8 -13 8 -13 -5 -32 -5
-32 12 -8 12 -7 54 7 54 6 0 60 0 59 -32 0 -31 0 -19 17 -18 16 16 18 16 17
34 -5 34 -6 0 41 0 40 -6 16 -6 16 -50 0 -50 0 5 -26 4 -25 -15 -15 -14 -15
-21 3 -21 3 -1 35 0 35 -57 3 -58 3 0 -55z"/>
</g>
</svg>
