<?xml version="1.0" standalone="no"?>
<!DOCTYPE svg PUBLIC "-//W3C//DTD SVG 20010904//EN"
 "http://www.w3.org/TR/2001/REC-SVG-20010904/DTD/svg10.dtd">
<svg version="1.0" xmlns="http://www.w3.org/2000/svg"
 width="27.000000pt" height="28.000000pt" viewBox="0 0 27.000000 28.000000"
 preserveAspectRatio="xMidYMid meet">
<metadata>
Created by potrace 1.16, written by Peter Selinger 2001-2019
</metadata>
<g transform="translate(0.000000,28.000000) scale(0.100000,-0.100000)"
fill="#000000" stroke="none">
<path d="M0 236 l0 -45 38 -3 37 -3 0 -30 0 -30 -22 2 -22 3 -5 -18 -5 -17 -6
-36 -7 -36 42 -7 41 -6 9 5 9 5 -1 29 -1 28 7 12 7 11 19 0 19 0 6 -19 6 -19
-6 -25 -7 -25 11 -7 11 -6 43 6 44 7 2 49 1 49 -33 0 -34 0 -16 18 -17 19 0
10 0 10 19 17 20 18 30 -7 31 -7 0 30 0 30 -6 16 -6 16 -39 0 -39 0 6 -24 5
-23 -17 -17 -17 -17 -31 3 -31 3 0 35 0 35 -47 3 -48 3 0 -45z"/>
</g>
</svg>
