<?xml version="1.0" standalone="no"?>
<!DOCTYPE svg PUBLIC "-//W3C//DTD SVG 20010904//EN"
 "http://www.w3.org/TR/2001/REC-SVG-20010904/DTD/svg10.dtd">
<svg version="1.0" xmlns="http://www.w3.org/2000/svg"
 width="39.000000pt" height="29.000000pt" viewBox="0 0 39.000000 29.000000"
 preserveAspectRatio="xMidYMid meet">
<metadata>
Created by potrace 1.16, written by Peter Selinger 2001-2019
</metadata>
<g transform="translate(0.000000,29.000000) scale(0.100000,-0.100000)"
fill="#000000" stroke="none">
<path d="M5 246 l-7 -44 7 -21 6 -20 37 2 36 2 4 -17 3 -18 -35 0 -35 0 -6
-33 -7 -34 4 -29 3 -29 52 -3 52 -3 11 22 12 21 -5 19 -5 19 9 0 9 0 0 -24 0
-23 67 -17 67 -16 8 12 8 13 0 27 0 26 6 16 6 16 34 0 34 0 6 25 6 24 -15 16
-16 15 -35 0 -35 0 6 50 6 50 -146 0 -146 0 -6 -44z"/>
</g>
</svg>
