<?xml version="1.0" standalone="no"?>
<!DOCTYPE svg PUBLIC "-//W3C//DTD SVG 20010904//EN"
 "http://www.w3.org/TR/2001/REC-SVG-20010904/DTD/svg10.dtd">
<svg version="1.0" xmlns="http://www.w3.org/2000/svg"
 width="28.000000pt" height="34.000000pt" viewBox="0 0 28.000000 34.000000"
 preserveAspectRatio="xMidYMid meet">
<metadata>
Created by potrace 1.16, written by Peter Selinger 2001-2019
</metadata>
<g transform="translate(0.000000,34.000000) scale(0.100000,-0.100000)"
fill="#000000" stroke="none">
<path d="M6 310 l2 -30 1 -16 1 -15 33 3 32 3 3 -37 3 -37 -21 -11 -22 -12
-19 5 -19 5 1 -51 2 -52 43 4 44 3 0 -36 0 -36 45 0 45 0 0 29 0 28 41 7 40 6
10 -5 9 -6 0 53 0 53 -10 15 -9 14 -28 1 -28 0 0 20 0 20 17 -3 18 -3 20 11
20 11 0 44 0 45 -137 0 -138 0 1 -30z"/>
</g>
</svg>
