<?xml version="1.0" standalone="no"?>
<!DOCTYPE svg PUBLIC "-//W3C//DTD SVG 20010904//EN"
 "http://www.w3.org/TR/2001/REC-SVG-20010904/DTD/svg10.dtd">
<svg version="1.0" xmlns="http://www.w3.org/2000/svg"
 width="44.000000pt" height="29.000000pt" viewBox="0 0 44.000000 29.000000"
 preserveAspectRatio="xMidYMid meet">
<metadata>
Created by potrace 1.16, written by Peter Selinger 2001-2019
</metadata>
<g transform="translate(0.000000,29.000000) scale(0.100000,-0.100000)"
fill="#000000" stroke="none">
<path d="M70 241 l0 -48 -23 4 -23 5 -13 -16 -12 -15 3 -28 3 -28 27 2 27 2 7
-60 7 -59 51 0 52 0 12 12 12 12 0 23 0 23 14 0 15 0 3 -22 3 -23 42 -9 42 -9
15 6 16 6 -6 45 -7 44 40 -5 39 -5 13 15 12 16 -3 33 -3 33 -27 0 -27 0 -15
20 -15 20 -1 24 0 23 -37 -6 -38 -7 -16 -5 -17 -5 -5 -19 -5 -20 -16 0 -16 0
0 23 0 23 -12 12 -12 12 -53 0 -53 0 0 -49z"/>
</g>
</svg>
