<?xml version="1.0" standalone="no"?>
<!DOCTYPE svg PUBLIC "-//W3C//DTD SVG 20010904//EN"
 "http://www.w3.org/TR/2001/REC-SVG-20010904/DTD/svg10.dtd">
<svg version="1.0" xmlns="http://www.w3.org/2000/svg"
 width="40.000000pt" height="34.000000pt" viewBox="0 0 40.000000 34.000000"
 preserveAspectRatio="xMidYMid meet">
<metadata>
Created by potrace 1.16, written by Peter Selinger 2001-2019
</metadata>
<g transform="translate(0.000000,34.000000) scale(0.100000,-0.100000)"
fill="#000000" stroke="none">
<path d="M70 290 l0 -51 -26 3 -27 3 -11 -17 -10 -17 8 -8 8 -8 36 0 37 0 -2
-44 -2 -44 -11 -11 -10 -10 0 -9 0 -9 29 5 28 6 22 -6 21 -5 0 -34 0 -34 34 0
34 0 12 14 11 15 -3 23 -3 23 35 0 35 0 16 20 16 20 7 29 7 28 20 5 20 6 -3
26 -3 26 -29 -3 -29 -3 -8 13 -9 13 0 38 0 37 -34 0 -34 0 -16 -6 -16 -6 6 -9
5 -9 -11 -20 -11 -21 -22 3 -22 3 0 35 0 35 -47 3 -48 3 0 -51z"/>
</g>
</svg>
