<?xml version="1.0" standalone="no"?>
<!DOCTYPE svg PUBLIC "-//W3C//DTD SVG 20010904//EN"
 "http://www.w3.org/TR/2001/REC-SVG-20010904/DTD/svg10.dtd">
<svg version="1.0" xmlns="http://www.w3.org/2000/svg"
 width="29.000000pt" height="34.000000pt" viewBox="0 0 29.000000 34.000000"
 preserveAspectRatio="xMidYMid meet">
<metadata>
Created by potrace 1.16, written by Peter Selinger 2001-2019
</metadata>
<g transform="translate(0.000000,34.000000) scale(0.100000,-0.100000)"
fill="#000000" stroke="none">
<path d="M10 313 l0 -28 6 -22 6 -22 27 -3 26 -3 0 -25 0 -25 -37 -3 -36 -3 1
-59 2 -58 17 9 17 9 30 0 31 0 0 -28 0 -28 12 -12 12 -12 23 0 24 0 5 30 6 30
32 5 31 5 20 2 20 3 -8 52 -8 52 -27 3 -27 3 0 25 0 25 38 0 37 0 0 48 0 47
-7 0 -8 0 -45 -14 -45 -14 2 -10 3 -11 -21 -6 -20 -7 -25 6 -25 7 6 19 6 19
-20 10 -20 11 -30 0 -31 0 0 -27z"/>
</g>
</svg>
