<?xml version="1.0" standalone="no"?>
<!DOCTYPE svg PUBLIC "-//W3C//DTD SVG 20010904//EN"
 "http://www.w3.org/TR/2001/REC-SVG-20010904/DTD/svg10.dtd">
<svg version="1.0" xmlns="http://www.w3.org/2000/svg"
 width="31.000000pt" height="36.000000pt" viewBox="0 0 31.000000 36.000000"
 preserveAspectRatio="xMidYMid meet">
<metadata>
Created by potrace 1.16, written by Peter Selinger 2001-2019
</metadata>
<g transform="translate(0.000000,36.000000) scale(0.100000,-0.100000)"
fill="#000000" stroke="none">
<path d="M10 323 l0 -38 6 -22 6 -22 27 -3 26 -3 0 -15 0 -15 -37 -3 -37 -3 1
-70 0 -71 22 7 21 7 28 5 27 5 0 -29 0 -29 12 -12 12 -12 33 0 33 0 6 29 6 29
22 6 21 6 33 0 34 0 -6 27 -5 28 -7 37 -6 37 -27 3 -26 3 0 15 0 15 38 -2 37
-2 0 59 0 60 -17 0 -18 0 -42 -13 -43 -13 -13 -18 -14 -19 -17 6 -16 6 0 20 0
20 -19 11 -20 10 -40 0 -41 0 0 -37z"/>
</g>
</svg>
