<?xml version="1.0" standalone="no"?>
<!DOCTYPE svg PUBLIC "-//W3C//DTD SVG 20010904//EN"
 "http://www.w3.org/TR/2001/REC-SVG-20010904/DTD/svg10.dtd">
<svg version="1.0" xmlns="http://www.w3.org/2000/svg"
 width="35.000000pt" height="34.000000pt" viewBox="0 0 35.000000 34.000000"
 preserveAspectRatio="xMidYMid meet">
<metadata>
Created by potrace 1.16, written by Peter Selinger 2001-2019
</metadata>
<g transform="translate(0.000000,34.000000) scale(0.100000,-0.100000)"
fill="#000000" stroke="none">
<path d="M80 288 l0 -53 -37 0 -38 0 0 -25 0 -25 27 -3 27 -3 8 -52 8 -52 50
0 50 0 1 -25 1 -25 1 -12 2 -13 29 0 29 0 12 15 12 14 -6 10 -6 10 17 5 18 5
33 6 32 7 0 8 0 9 -9 5 -9 6 -11 45 -11 45 -20 0 -19 0 -6 10 -6 10 10 18 10
19 27 -5 26 -5 9 14 9 14 0 34 0 33 -47 -7 -48 -7 -7 -5 -8 -4 0 -20 0 -19
-28 0 -28 0 -12 12 -12 12 0 23 0 23 -40 0 -40 0 0 -52z"/>
</g>
</svg>
