<?xml version="1.0" standalone="no"?>
<!DOCTYPE svg PUBLIC "-//W3C//DTD SVG 20010904//EN"
 "http://www.w3.org/TR/2001/REC-SVG-20010904/DTD/svg10.dtd">
<svg version="1.0" xmlns="http://www.w3.org/2000/svg"
 width="42.000000pt" height="28.000000pt" viewBox="0 0 42.000000 28.000000"
 preserveAspectRatio="xMidYMid meet">
<metadata>
Created by potrace 1.16, written by Peter Selinger 2001-2019
</metadata>
<g transform="translate(0.000000,28.000000) scale(0.100000,-0.100000)"
fill="#000000" stroke="none">
<path d="M90 243 l0 -38 -9 -14 -9 -14 -26 5 -27 5 -10 -19 -10 -18 6 -10 6
-10 19 0 19 0 11 -41 11 -42 12 -18 12 -19 40 0 40 0 13 9 14 8 -4 24 -3 24
25 0 25 0 3 -22 3 -23 24 -6 23 -6 19 4 18 3 0 50 0 50 40 0 40 0 3 23 3 22
-31 0 -31 0 -6 17 -7 18 0 32 0 33 -12 0 -11 0 -31 -6 -30 -6 5 -18 5 -18 -22
-12 -21 -11 -27 3 -27 3 0 35 0 35 -42 3 -43 3 0 -38z"/>
</g>
</svg>
