<?xml version="1.0" standalone="no"?>
<!DOCTYPE svg PUBLIC "-//W3C//DTD SVG 20010904//EN"
 "http://www.w3.org/TR/2001/REC-SVG-20010904/DTD/svg10.dtd">
<svg version="1.0" xmlns="http://www.w3.org/2000/svg"
 width="36.000000pt" height="35.000000pt" viewBox="0 0 36.000000 35.000000"
 preserveAspectRatio="xMidYMid meet">
<metadata>
Created by potrace 1.16, written by Peter Selinger 2001-2019
</metadata>
<g transform="translate(0.000000,35.000000) scale(0.100000,-0.100000)"
fill="#000000" stroke="none">
<path d="M80 302 l0 -48 -11 -11 -12 -12 -29 6 -30 6 4 -19 4 -19 31 2 32 3 6
-48 6 -47 2 -15 2 -15 42 3 42 3 3 -37 3 -37 18 -11 17 -11 18 11 17 12 0 25
-1 26 42 7 43 6 9 -6 10 -6 -1 23 0 22 7 38 8 37 -27 0 -26 0 -20 10 -19 11 0
18 0 19 15 12 14 12 21 -7 20 -6 0 45 0 46 -48 0 -49 0 5 -28 4 -29 -17 -17
-17 -17 -17 3 -16 3 -3 43 -3 42 -50 0 -49 0 0 -48z"/>
</g>
</svg>
