<?xml version="1.0" standalone="no"?>
<!DOCTYPE svg PUBLIC "-//W3C//DTD SVG 20010904//EN"
 "http://www.w3.org/TR/2001/REC-SVG-20010904/DTD/svg10.dtd">
<svg version="1.0" xmlns="http://www.w3.org/2000/svg"
 width="38.000000pt" height="37.000000pt" viewBox="0 0 38.000000 37.000000"
 preserveAspectRatio="xMidYMid meet">
<metadata>
Created by potrace 1.16, written by Peter Selinger 2001-2019
</metadata>
<g transform="translate(0.000000,37.000000) scale(0.100000,-0.100000)"
fill="#000000" stroke="none">
<path d="M78 318 l-3 -53 -38 -3 -38 -3 3 -27 3 -27 32 0 32 0 6 -45 6 -45 2
-15 3 -15 42 3 42 3 0 -33 0 -34 12 -12 12 -12 26 0 26 0 12 12 12 12 0 22 0
22 25 6 25 6 25 -6 25 -6 0 25 0 24 6 47 7 46 -30 0 -29 0 -19 14 -19 14 12
15 12 14 25 -5 25 -4 0 56 0 56 -61 0 -61 0 7 -29 6 -29 -16 -16 -17 -16 -9 5
-9 6 0 40 0 39 -59 0 -60 0 -3 -52z"/>
</g>
</svg>
