<?xml version="1.0" standalone="no"?>
<!DOCTYPE svg PUBLIC "-//W3C//DTD SVG 20010904//EN"
 "http://www.w3.org/TR/2001/REC-SVG-20010904/DTD/svg10.dtd">
<svg version="1.0" xmlns="http://www.w3.org/2000/svg"
 width="30.000000pt" height="29.000000pt" viewBox="0 0 30.000000 29.000000"
 preserveAspectRatio="xMidYMid meet">
<metadata>
Created by potrace 1.16, written by Peter Selinger 2001-2019
</metadata>
<g transform="translate(0.000000,29.000000) scale(0.100000,-0.100000)"
fill="#000000" stroke="none">
<path d="M20 230 l0 -60 29 -6 30 -6 -6 -14 -5 -14 -28 0 -29 0 -6 -9 -5 -10
6 -55 7 -56 69 0 70 0 -2 32 -2 33 1 13 1 13 10 -6 10 -6 0 -28 0 -28 43 -7
42 -7 23 -6 22 -5 0 62 0 61 -22 -2 -23 -3 -12 7 -13 8 0 24 0 23 19 -5 18 -5
17 17 16 16 0 45 0 44 -60 0 -60 0 0 -34 0 -34 -15 -5 -14 -6 -8 12 -7 11 2
28 2 28 -60 0 -60 0 0 -60z"/>
</g>
</svg>
