<?xml version="1.0" standalone="no"?>
<!DOCTYPE svg PUBLIC "-//W3C//DTD SVG 20010904//EN"
 "http://www.w3.org/TR/2001/REC-SVG-20010904/DTD/svg10.dtd">
<svg version="1.0" xmlns="http://www.w3.org/2000/svg"
 width="28.000000pt" height="27.000000pt" viewBox="0 0 28.000000 27.000000"
 preserveAspectRatio="xMidYMid meet">
<metadata>
Created by potrace 1.16, written by Peter Selinger 2001-2019
</metadata>
<g transform="translate(0.000000,27.000000) scale(0.100000,-0.100000)"
fill="#000000" stroke="none">
<path d="M20 220 l0 -50 13 -1 12 -1 11 1 11 1 13 -15 12 -14 -15 -16 -16 -15
-25 0 -25 0 -4 -8 -5 -7 5 -48 6 -47 59 0 60 0 -6 33 -6 32 9 14 9 14 16 -6
16 -6 0 -30 0 -29 45 -6 45 -7 10 6 10 6 0 40 0 40 -20 -6 -21 -7 -14 12 -15
12 0 35 0 35 20 -5 20 -5 15 15 15 14 0 35 0 34 -50 0 -50 0 0 -34 0 -35 -22
-7 -21 -6 -14 18 -14 19 6 23 5 22 -50 0 -50 0 0 -50z"/>
</g>
</svg>
