<?xml version="1.0" standalone="no"?>
<!DOCTYPE svg PUBLIC "-//W3C//DTD SVG 20010904//EN"
 "http://www.w3.org/TR/2001/REC-SVG-20010904/DTD/svg10.dtd">
<svg version="1.0" xmlns="http://www.w3.org/2000/svg"
 width="43.000000pt" height="29.000000pt" viewBox="0 0 43.000000 29.000000"
 preserveAspectRatio="xMidYMid meet">
<metadata>
Created by potrace 1.16, written by Peter Selinger 2001-2019
</metadata>
<g transform="translate(0.000000,29.000000) scale(0.100000,-0.100000)"
fill="#000000" stroke="none">
<path d="M60 276 l0 -15 10 -6 10 -6 0 -34 0 -34 -37 -3 -38 -3 0 -30 0 -30
22 -3 23 -3 10 -42 11 -42 4 -12 4 -13 56 0 57 0 -4 37 -3 38 20 0 20 0 5 -35
5 -35 60 0 60 0 -3 43 -2 42 29 0 29 0 11 14 12 15 -3 38 -3 38 -32 10 -33 9
0 38 0 38 -150 0 -150 0 0 -14z"/>
</g>
</svg>
