<?xml version="1.0" standalone="no"?>
<!DOCTYPE svg PUBLIC "-//W3C//DTD SVG 20010904//EN"
 "http://www.w3.org/TR/2001/REC-SVG-20010904/DTD/svg10.dtd">
<svg version="1.0" xmlns="http://www.w3.org/2000/svg"
 width="41.000000pt" height="27.000000pt" viewBox="0 0 41.000000 27.000000"
 preserveAspectRatio="xMidYMid meet">
<metadata>
Created by potrace 1.16, written by Peter Selinger 2001-2019
</metadata>
<g transform="translate(0.000000,27.000000) scale(0.100000,-0.100000)"
fill="#000000" stroke="none">
<path d="M69 256 l12 -15 -3 -42 -3 -43 -35 -1 -35 0 0 -20 0 -20 22 -3 23 -3
10 -42 11 -42 4 -12 4 -13 47 0 46 0 -6 34 -7 35 21 11 21 11 14 -11 14 -11 3
-32 3 -32 50 0 50 0 -3 25 -3 25 -2 20 -2 20 31 -3 31 -3 12 15 12 15 -3 28
-3 28 -32 10 -33 9 0 38 0 38 -141 0 -141 0 11 -14z"/>
</g>
</svg>
