<?xml version="1.0" standalone="no"?>
<!DOCTYPE svg PUBLIC "-//W3C//DTD SVG 20010904//EN"
 "http://www.w3.org/TR/2001/REC-SVG-20010904/DTD/svg10.dtd">
<svg version="1.0" xmlns="http://www.w3.org/2000/svg"
 width="35.000000pt" height="29.000000pt" viewBox="0 0 35.000000 29.000000"
 preserveAspectRatio="xMidYMid meet">
<metadata>
Created by potrace 1.16, written by Peter Selinger 2001-2019
</metadata>
<g transform="translate(0.000000,29.000000) scale(0.100000,-0.100000)"
fill="#000000" stroke="none">
<path d="M235 271 l6 -21 -6 -20 -6 -20 -30 0 -29 0 0 24 0 24 -16 6 -16 6
-33 0 -34 0 -3 -47 -3 -48 -27 -3 -26 -3 -5 -13 -5 -13 8 -14 9 -13 33 -1 33
0 -2 -50 -2 -50 12 -7 12 -8 33 0 32 0 0 41 0 40 28 -3 27 -3 -2 -22 -3 -22
18 -5 17 -5 43 -6 42 -7 0 4 0 3 -14 45 -13 45 -21 3 -20 3 -5 20 -5 19 14 15
15 14 29 -6 30 -5 0 45 0 46 -19 10 -18 10 -43 7 -42 7 7 -22z"/>
</g>
</svg>
