<?xml version="1.0" standalone="no"?>
<!DOCTYPE svg PUBLIC "-//W3C//DTD SVG 20010904//EN"
 "http://www.w3.org/TR/2001/REC-SVG-20010904/DTD/svg10.dtd">
<svg version="1.0" xmlns="http://www.w3.org/2000/svg"
 width="37.000000pt" height="31.000000pt" viewBox="0 0 37.000000 31.000000"
 preserveAspectRatio="xMidYMid meet">
<metadata>
Created by potrace 1.16, written by Peter Selinger 2001-2019
</metadata>
<g transform="translate(0.000000,31.000000) scale(0.100000,-0.100000)"
fill="#000000" stroke="none">
<path d="M233 285 l5 -29 -5 -13 -5 -13 -19 0 -19 0 0 24 0 24 -16 6 -16 6
-43 0 -44 0 -3 -47 -3 -48 -25 -4 -25 -3 -7 -12 -8 -11 0 -12 0 -12 16 -16 17
-16 26 3 26 3 -3 -49 -3 -49 13 -8 13 -9 43 0 42 0 0 40 0 40 15 0 15 0 0 -24
0 -24 13 -5 14 -5 56 -7 57 -7 0 13 0 14 -14 45 -13 45 -22 3 -21 3 0 20 0 19
40 0 40 0 0 55 0 54 -20 11 -21 11 -51 6 -51 6 6 -28z"/>
</g>
</svg>
