<?xml version="1.0" standalone="no"?>
<!DOCTYPE svg PUBLIC "-//W3C//DTD SVG 20010904//EN"
 "http://www.w3.org/TR/2001/REC-SVG-20010904/DTD/svg10.dtd">
<svg version="1.0" xmlns="http://www.w3.org/2000/svg"
 width="37.000000pt" height="39.000000pt" viewBox="0 0 37.000000 39.000000"
 preserveAspectRatio="xMidYMid meet">
<metadata>
Created by potrace 1.16, written by Peter Selinger 2001-2019
</metadata>
<g transform="translate(0.000000,39.000000) scale(0.100000,-0.100000)"
fill="#000000" stroke="none">
<path d="M250 369 l2 -24 -1 -17 -1 -17 -16 -15 -16 -16 -9 5 -9 6 0 34 0 33
-16 6 -16 6 -44 0 -44 0 0 -51 0 -50 -20 6 -20 6 -21 -6 -20 -7 3 -31 3 -32
30 0 30 0 3 -25 2 -25 6 -32 5 -33 39 0 40 0 0 -40 0 -40 26 -6 27 -7 26 9 26
9 3 38 3 37 40 0 39 0 0 24 0 24 -6 31 -7 32 -25 -3 -25 -3 -10 17 -11 16 14
17 14 17 38 -6 38 -6 -6 57 -7 58 -7 9 -8 8 -47 6 -47 5 2 -24z"/>
</g>
</svg>
