<?xml version="1.0" standalone="no"?>
<!DOCTYPE svg PUBLIC "-//W3C//DTD SVG 20010904//EN"
 "http://www.w3.org/TR/2001/REC-SVG-20010904/DTD/svg10.dtd">
<svg version="1.0" xmlns="http://www.w3.org/2000/svg"
 width="35.000000pt" height="37.000000pt" viewBox="0 0 35.000000 37.000000"
 preserveAspectRatio="xMidYMid meet">
<metadata>
Created by potrace 1.16, written by Peter Selinger 2001-2019
</metadata>
<g transform="translate(0.000000,37.000000) scale(0.100000,-0.100000)"
fill="#000000" stroke="none">
<path d="M254 355 l7 -18 -11 -33 -11 -33 -20 -6 -19 -6 -10 6 -10 6 0 34 0
33 -16 6 -16 6 -34 0 -34 0 0 -51 0 -51 -28 5 -28 6 -13 -8 -13 -8 4 -19 3
-18 30 -1 30 0 3 -25 2 -25 6 -32 5 -32 42 -3 42 -3 -3 -37 -3 -37 24 -6 25
-7 21 12 21 11 0 34 0 35 40 0 40 0 0 14 0 13 -6 32 -7 32 -19 -7 -19 -6 -14
12 -15 12 0 23 0 23 15 12 15 12 33 -4 34 -4 -5 46 -4 45 -8 8 -7 8 -38 6 -38
6 7 -18z"/>
</g>
</svg>
