<?xml version="1.0" standalone="no"?>
<!DOCTYPE svg PUBLIC "-//W3C//DTD SVG 20010904//EN"
 "http://www.w3.org/TR/2001/REC-SVG-20010904/DTD/svg10.dtd">
<svg version="1.0" xmlns="http://www.w3.org/2000/svg"
 width="39.000000pt" height="39.000000pt" viewBox="0 0 39.000000 39.000000"
 preserveAspectRatio="xMidYMid meet">
<metadata>
Created by potrace 1.16, written by Peter Selinger 2001-2019
</metadata>
<g transform="translate(0.000000,39.000000) scale(0.100000,-0.100000)"
fill="#000000" stroke="none">
<path d="M175 358 l6 -33 -14 -19 -14 -19 -17 6 -16 6 0 36 0 35 -55 0 -55 0
0 -44 0 -44 14 -11 13 -11 24 2 23 3 4 -17 3 -17 -21 -21 -20 -20 -25 6 -25 6
0 -33 0 -34 6 -23 6 -22 44 0 44 0 0 -33 0 -33 12 -12 12 -12 27 0 27 0 10 13
10 12 4 25 3 25 49 3 48 3 -6 50 -7 49 40 0 40 0 11 20 11 21 -3 27 -3 27 -34
0 -34 0 -8 20 -8 20 0 27 -1 26 -31 11 -32 11 -34 0 -34 0 6 -32z"/>
</g>
</svg>
