<?xml version="1.0" standalone="no"?>
<!DOCTYPE svg PUBLIC "-//W3C//DTD SVG 20010904//EN"
 "http://www.w3.org/TR/2001/REC-SVG-20010904/DTD/svg10.dtd">
<svg version="1.0" xmlns="http://www.w3.org/2000/svg"
 width="35.000000pt" height="36.000000pt" viewBox="0 0 35.000000 36.000000"
 preserveAspectRatio="xMidYMid meet">
<metadata>
Created by potrace 1.16, written by Peter Selinger 2001-2019
</metadata>
<g transform="translate(0.000000,36.000000) scale(0.100000,-0.100000)"
fill="#000000" stroke="none">
<path d="M199 353 l-1 -8 2 -22 1 -22 -11 -21 -11 -21 -37 3 -37 3 0 35 -1 35
-47 3 -47 3 0 -25 0 -25 10 -27 10 -26 31 6 30 6 6 -16 6 -15 -11 -25 -12 -24
-40 0 -40 0 0 -19 0 -19 6 -28 6 -29 44 3 44 4 0 -31 0 -32 23 -8 22 -9 18 10
17 9 0 24 0 25 33 0 32 0 23 6 22 6 0 53 0 52 24 -4 24 -5 6 20 6 19 -6 17 -7
18 -24 -5 -23 -4 -6 23 -6 24 6 23 6 24 -39 11 -38 12 -7 0 -6 0 -1 -7z"/>
</g>
</svg>
