<?xml version="1.0" standalone="no"?>
<!DOCTYPE svg PUBLIC "-//W3C//DTD SVG 20010904//EN"
 "http://www.w3.org/TR/2001/REC-SVG-20010904/DTD/svg10.dtd">
<svg version="1.0" xmlns="http://www.w3.org/2000/svg"
 width="45.000000pt" height="30.000000pt" viewBox="0 0 45.000000 30.000000"
 preserveAspectRatio="xMidYMid meet">
<metadata>
Created by potrace 1.16, written by Peter Selinger 2001-2019
</metadata>
<g transform="translate(0.000000,30.000000) scale(0.100000,-0.100000)"
fill="#000000" stroke="none">
<path d="M267 293 l-7 -6 0 -27 0 -26 -12 -12 -12 -12 -23 0 -23 0 0 34 0 34
-16 6 -16 6 -38 0 -39 0 6 -51 6 -51 -21 7 -22 6 -19 -6 -19 -6 -6 -15 -6 -16
6 -23 6 -24 21 -3 22 -3 9 -52 9 -52 51 6 51 5 13 4 12 3 0 36 0 35 8 0 8 0
12 -12 12 -12 0 -33 0 -33 54 0 54 0 6 16 6 16 0 28 0 28 6 15 5 15 19 -5 18
-5 22 12 21 11 -3 27 -3 27 -40 5 -40 5 -3 46 -3 47 -22 6 -22 6 -21 0 -21 0
-6 -7z"/>
</g>
</svg>
