<?xml version="1.0" standalone="no"?>
<!DOCTYPE svg PUBLIC "-//W3C//DTD SVG 20010904//EN"
 "http://www.w3.org/TR/2001/REC-SVG-20010904/DTD/svg10.dtd">
<svg version="1.0" xmlns="http://www.w3.org/2000/svg"
 width="43.000000pt" height="28.000000pt" viewBox="0 0 43.000000 28.000000"
 preserveAspectRatio="xMidYMid meet">
<metadata>
Created by potrace 1.16, written by Peter Selinger 2001-2019
</metadata>
<g transform="translate(0.000000,28.000000) scale(0.100000,-0.100000)"
fill="#000000" stroke="none">
<path d="M264 265 l-6 -14 6 -9 5 -9 -15 -22 -16 -22 -36 3 -37 3 3 29 3 29
-13 8 -13 9 -30 0 -30 0 4 -51 3 -52 -31 6 -30 6 -15 -14 -14 -15 5 -19 5 -20
21 -3 20 -3 14 -48 14 -48 47 3 47 3 1 35 0 35 17 3 18 4 14 -12 15 -12 0 -34
0 -34 44 0 44 0 6 16 6 16 0 31 0 32 9 14 9 13 19 -6 19 -6 19 14 18 13 -6 18
-7 17 -35 -4 -34 -4 -6 14 -5 14 0 38 0 38 -22 6 -23 6 -13 0 -13 0 -5 -15z"/>
</g>
</svg>
