<?xml version="1.0" standalone="no"?>
<!DOCTYPE svg PUBLIC "-//W3C//DTD SVG 20010904//EN"
 "http://www.w3.org/TR/2001/REC-SVG-20010904/DTD/svg10.dtd">
<svg version="1.0" xmlns="http://www.w3.org/2000/svg"
 width="39.000000pt" height="38.000000pt" viewBox="0 0 39.000000 38.000000"
 preserveAspectRatio="xMidYMid meet">
<metadata>
Created by potrace 1.16, written by Peter Selinger 2001-2019
</metadata>
<g transform="translate(0.000000,38.000000) scale(0.100000,-0.100000)"
fill="#000000" stroke="none">
<path d="M90 336 l0 -46 -33 0 -33 0 -12 -12 -12 -12 0 -27 0 -27 13 -10 13
-11 43 -7 42 -7 -7 -16 -6 -16 -6 -19 -5 -18 14 -9 14 -9 38 0 37 0 0 -29 0
-30 16 -15 15 -16 10 0 10 0 29 15 30 16 0 29 0 29 43 3 42 3 0 60 0 60 -33 1
-33 1 -11 11 -12 12 9 9 10 10 35 3 35 3 3 53 3 52 -19 0 -19 0 -47 -6 -46 -7
0 -17 0 -18 -14 -11 -14 -12 -16 23 -16 22 0 13 0 13 -32 0 -33 0 -22 6 -23 6
0 -46z"/>
</g>
</svg>
