<?xml version="1.0" standalone="no"?>
<!DOCTYPE svg PUBLIC "-//W3C//DTD SVG 20010904//EN"
 "http://www.w3.org/TR/2001/REC-SVG-20010904/DTD/svg10.dtd">
<svg version="1.0" xmlns="http://www.w3.org/2000/svg"
 width="37.000000pt" height="36.000000pt" viewBox="0 0 37.000000 36.000000"
 preserveAspectRatio="xMidYMid meet">
<metadata>
Created by potrace 1.16, written by Peter Selinger 2001-2019
</metadata>
<g transform="translate(0.000000,36.000000) scale(0.100000,-0.100000)"
fill="#000000" stroke="none">
<path d="M90 313 l0 -43 -33 0 -33 0 -12 -12 -12 -12 0 -17 0 -17 15 -12 15
-13 40 -1 40 -1 0 -18 0 -18 -11 -21 -11 -21 13 -8 14 -9 42 0 43 0 -6 -28 -6
-29 17 -16 16 -17 31 16 30 16 -4 28 -4 29 45 3 46 3 0 50 0 50 -23 -2 -23 -3
-20 10 -19 11 0 19 0 19 11 7 12 7 31 1 31 1 3 44 3 44 -38 -6 -38 -7 -17 0
-18 0 0 -19 0 -19 -15 -12 -15 -12 -16 6 -16 6 -11 29 -11 29 -43 4 -43 3 0
-42z"/>
</g>
</svg>
