<?xml version="1.0" standalone="no"?>
<!DOCTYPE svg PUBLIC "-//W3C//DTD SVG 20010904//EN"
 "http://www.w3.org/TR/2001/REC-SVG-20010904/DTD/svg10.dtd">
<svg version="1.0" xmlns="http://www.w3.org/2000/svg"
 width="31.000000pt" height="31.000000pt" viewBox="0 0 31.000000 31.000000"
 preserveAspectRatio="xMidYMid meet">
<metadata>
Created by potrace 1.16, written by Peter Selinger 2001-2019
</metadata>
<g transform="translate(0.000000,31.000000) scale(0.100000,-0.100000)"
fill="#000000" stroke="none">
<path d="M190 270 l0 -39 -18 -10 -18 -9 -17 9 -17 10 0 36 0 36 -31 -7 -31
-6 -24 0 -23 0 -7 -35 -6 -35 6 -24 6 -25 37 -3 38 -3 3 -18 3 -17 -20 0 -20
0 -8 -12 -8 -13 -12 -35 -13 -35 0 -12 0 -13 64 0 65 0 6 19 5 18 -6 18 -7 18
14 -5 14 -5 5 -34 5 -34 56 -3 57 -3 11 32 11 32 0 39 0 38 -28 -2 -28 -2 -12
8 -12 7 0 15 0 14 25 0 24 0 11 19 10 20 0 36 0 35 -26 10 -25 10 -30 0 -29 0
0 -40z"/>
</g>
</svg>
