<?xml version="1.0" standalone="no"?>
<!DOCTYPE svg PUBLIC "-//W3C//DTD SVG 20010904//EN"
 "http://www.w3.org/TR/2001/REC-SVG-20010904/DTD/svg10.dtd">
<svg version="1.0" xmlns="http://www.w3.org/2000/svg"
 width="29.000000pt" height="29.000000pt" viewBox="0 0 29.000000 29.000000"
 preserveAspectRatio="xMidYMid meet">
<metadata>
Created by potrace 1.16, written by Peter Selinger 2001-2019
</metadata>
<g transform="translate(0.000000,29.000000) scale(0.100000,-0.100000)"
fill="#000000" stroke="none">
<path d="M190 250 l0 -39 -21 -12 -22 -11 -23 11 -24 11 0 36 0 36 -16 -6 -16
-6 -28 0 -28 0 -7 -30 -6 -30 6 -19 6 -20 37 -3 37 -3 0 -30 0 -30 -16 3 -16
2 -10 -12 -10 -13 -5 -20 -6 -20 -7 -18 -7 -17 56 0 56 0 1 13 1 12 -2 23 -1
22 20 0 20 0 7 -11 7 -12 1 -26 1 -26 46 -3 47 -3 11 32 11 32 0 29 0 29 -20
-6 -19 -6 -21 11 -20 11 0 24 0 25 25 0 24 0 11 19 10 20 0 26 0 25 -26 10
-25 10 -20 0 -19 0 0 -40z"/>
</g>
</svg>
