<?xml version="1.0" standalone="no"?>
<!DOCTYPE svg PUBLIC "-//W3C//DTD SVG 20010904//EN"
 "http://www.w3.org/TR/2001/REC-SVG-20010904/DTD/svg10.dtd">
<svg version="1.0" xmlns="http://www.w3.org/2000/svg"
 width="37.000000pt" height="31.000000pt" viewBox="0 0 37.000000 31.000000"
 preserveAspectRatio="xMidYMid meet">
<metadata>
Created by potrace 1.16, written by Peter Selinger 2001-2019
</metadata>
<g transform="translate(0.000000,31.000000) scale(0.100000,-0.100000)"
fill="#000000" stroke="none">
<path d="M190 272 l0 -41 -20 -11 -20 -11 -10 6 -10 6 0 24 0 24 -20 11 -21
11 -42 -3 -42 -3 -3 -48 -3 -47 15 -16 16 -15 18 3 19 3 4 -10 4 -10 -27 -3
-27 -3 -5 -27 -5 -27 -7 -37 -6 -38 66 0 66 0 0 35 0 35 15 0 15 0 0 -29 0
-28 67 -11 66 -11 9 5 8 5 6 40 7 41 23 9 24 9 0 39 0 40 -19 6 -19 6 -13 -3
-13 -3 -6 47 -6 47 -5 6 -6 5 -46 6 -47 7 0 -41z"/>
</g>
</svg>
