<?xml version="1.0" standalone="no"?>
<!DOCTYPE svg PUBLIC "-//W3C//DTD SVG 20010904//EN"
 "http://www.w3.org/TR/2001/REC-SVG-20010904/DTD/svg10.dtd">
<svg version="1.0" xmlns="http://www.w3.org/2000/svg"
 width="35.000000pt" height="29.000000pt" viewBox="0 0 35.000000 29.000000"
 preserveAspectRatio="xMidYMid meet">
<metadata>
Created by potrace 1.16, written by Peter Selinger 2001-2019
</metadata>
<g transform="translate(0.000000,29.000000) scale(0.100000,-0.100000)"
fill="#000000" stroke="none">
<path d="M190 251 l0 -41 -24 -12 -25 -11 -15 6 -16 6 0 25 0 25 -20 11 -21
11 -32 -3 -32 -3 -3 -38 -3 -37 13 -14 14 -13 24 1 25 1 0 -20 0 -20 -27 -3
-27 -3 -7 -37 -6 -37 -5 -17 -4 -18 55 0 56 0 0 35 0 35 25 0 25 0 1 -12 1
-13 -1 -16 -2 -16 61 -10 62 -10 9 24 9 24 0 20 0 19 25 10 25 10 0 30 0 30
-12 1 -13 1 -20 2 -20 1 -5 47 -6 47 -4 5 -5 4 -37 7 -38 7 0 -41z"/>
</g>
</svg>
