<?xml version="1.0" standalone="no"?>
<!DOCTYPE svg PUBLIC "-//W3C//DTD SVG 20010904//EN"
 "http://www.w3.org/TR/2001/REC-SVG-20010904/DTD/svg10.dtd">
<svg version="1.0" xmlns="http://www.w3.org/2000/svg"
 width="36.000000pt" height="37.000000pt" viewBox="0 0 36.000000 37.000000"
 preserveAspectRatio="xMidYMid meet">
<metadata>
Created by potrace 1.16, written by Peter Selinger 2001-2019
</metadata>
<g transform="translate(0.000000,37.000000) scale(0.100000,-0.100000)"
fill="#000000" stroke="none">
<path d="M176 362 l-7 -11 6 -23 5 -23 -15 -19 -14 -19 -15 6 -15 6 -3 33 -3
33 -58 3 -58 3 3 -58 3 -58 32 -3 33 -3 0 -20 0 -19 -24 -9 -23 -9 -6 -39 -7
-38 0 -12 0 -13 44 0 44 0 -5 -20 -5 -20 12 -15 12 -15 34 0 33 0 15 16 16 15
0 26 0 25 23 -6 22 -7 16 -5 16 -6 7 61 7 61 29 0 30 0 0 36 0 36 -26 -5 -25
-4 -15 14 -14 14 0 39 0 39 -8 5 -9 5 -40 7 -40 6 -7 -10z"/>
</g>
</svg>
