<?xml version="1.0" standalone="no"?>
<!DOCTYPE svg PUBLIC "-//W3C//DTD SVG 20010904//EN"
 "http://www.w3.org/TR/2001/REC-SVG-20010904/DTD/svg10.dtd">
<svg version="1.0" xmlns="http://www.w3.org/2000/svg"
 width="32.000000pt" height="38.000000pt" viewBox="0 0 32.000000 38.000000"
 preserveAspectRatio="xMidYMid meet">
<metadata>
Created by potrace 1.16, written by Peter Selinger 2001-2019
</metadata>
<g transform="translate(0.000000,38.000000) scale(0.100000,-0.100000)"
fill="#000000" stroke="none">
<path d="M186 341 l6 -39 -22 -12 -22 -12 -14 6 -14 5 0 30 0 29 -16 6 -16 6
-33 0 -34 0 -6 -34 -7 -34 4 -19 3 -18 37 -3 36 -3 6 -14 5 -14 -14 -11 -15
-12 -35 6 -35 7 0 -33 0 -33 6 -37 6 -37 49 6 49 6 0 -26 0 -26 16 -16 16 -16
32 7 31 7 7 11 8 11 0 27 0 26 39 -5 38 -5 13 51 12 51 -6 16 -6 15 -32 -6
-33 -5 -14 9 -14 9 6 15 6 16 33 3 33 3 3 51 3 52 -32 11 -32 11 -29 0 -28 0
6 -39z"/>
</g>
</svg>
