<?xml version="1.0" standalone="no"?>
<!DOCTYPE svg PUBLIC "-//W3C//DTD SVG 20010904//EN"
 "http://www.w3.org/TR/2001/REC-SVG-20010904/DTD/svg10.dtd">
<svg version="1.0" xmlns="http://www.w3.org/2000/svg"
 width="36.000000pt" height="43.000000pt" viewBox="0 0 36.000000 43.000000"
 preserveAspectRatio="xMidYMid meet">
<metadata>
Created by potrace 1.16, written by Peter Selinger 2001-2019
</metadata>
<g transform="translate(0.000000,43.000000) scale(0.100000,-0.100000)"
fill="#000000" stroke="none">
<path d="M110 391 l0 -40 -37 -6 -38 -7 -11 -3 -11 -3 -5 -24 -4 -23 6 -25 6
-25 27 0 27 1 0 -29 0 -29 -13 5 -14 5 -10 -6 -10 -7 -11 -49 -10 -48 49 4 49
5 0 -34 0 -33 24 -11 23 -11 22 11 21 12 0 41 0 41 33 -6 32 -5 15 -4 15 -3 3
48 3 47 23 -6 22 -5 13 24 13 25 -12 22 -12 22 -27 -5 -28 -6 1 42 1 42 -15
-4 -15 -3 -37 -5 -37 -5 -3 53 -3 54 -32 3 -33 3 0 -40z"/>
</g>
</svg>
