<?xml version="1.0" standalone="no"?>
<!DOCTYPE svg PUBLIC "-//W3C//DTD SVG 20010904//EN"
 "http://www.w3.org/TR/2001/REC-SVG-20010904/DTD/svg10.dtd">
<svg version="1.0" xmlns="http://www.w3.org/2000/svg"
 width="38.000000pt" height="45.000000pt" viewBox="0 0 38.000000 45.000000"
 preserveAspectRatio="xMidYMid meet">
<metadata>
Created by potrace 1.16, written by Peter Selinger 2001-2019
</metadata>
<g transform="translate(0.000000,45.000000) scale(0.100000,-0.100000)"
fill="#000000" stroke="none">
<path d="M110 411 l0 -40 -37 -6 -38 -7 -11 -3 -11 -3 -6 -30 -6 -29 8 -29 7
-29 27 -3 27 -3 0 -9 0 -8 -24 -6 -24 -6 -7 -37 -6 -38 -6 -22 -5 -23 50 0 51
0 3 -32 3 -33 27 -9 27 -10 26 12 25 12 0 41 0 41 28 -7 27 -8 20 -1 20 -1 3
43 3 42 23 0 23 0 13 25 14 26 -10 27 -9 27 -27 3 -27 3 -3 37 -3 37 -20 -1
-20 -2 -32 -7 -32 -7 -3 53 -3 54 -42 3 -43 3 0 -40z"/>
</g>
</svg>
