<?xml version="1.0" standalone="no"?>
<!DOCTYPE svg PUBLIC "-//W3C//DTD SVG 20010904//EN"
 "http://www.w3.org/TR/2001/REC-SVG-20010904/DTD/svg10.dtd">
<svg version="1.0" xmlns="http://www.w3.org/2000/svg"
 width="46.000000pt" height="38.000000pt" viewBox="0 0 46.000000 38.000000"
 preserveAspectRatio="xMidYMid meet">
<metadata>
Created by potrace 1.16, written by Peter Selinger 2001-2019
</metadata>
<g transform="translate(0.000000,38.000000) scale(0.100000,-0.100000)"
fill="#000000" stroke="none">
<path d="M194 356 l-6 -25 7 -20 6 -21 -60 0 -61 0 0 -40 0 -40 -29 0 -29 0
-11 -14 -12 -15 3 -33 3 -33 38 -3 37 -3 0 -56 0 -55 23 6 22 6 43 0 42 0 0
30 0 30 10 0 10 0 0 -20 0 -19 38 -10 37 -11 41 0 42 0 6 44 7 45 30 6 30 7
-3 51 -3 52 -37 3 -38 3 0 28 0 29 -12 10 -13 10 -47 7 -47 7 -3 32 -3 31 -27
3 -27 3 -7 -25z"/>
</g>
</svg>
