<?xml version="1.0" standalone="no"?>
<!DOCTYPE svg PUBLIC "-//W3C//DTD SVG 20010904//EN"
 "http://www.w3.org/TR/2001/REC-SVG-20010904/DTD/svg10.dtd">
<svg version="1.0" xmlns="http://www.w3.org/2000/svg"
 width="44.000000pt" height="36.000000pt" viewBox="0 0 44.000000 36.000000"
 preserveAspectRatio="xMidYMid meet">
<metadata>
Created by potrace 1.16, written by Peter Selinger 2001-2019
</metadata>
<g transform="translate(0.000000,36.000000) scale(0.100000,-0.100000)"
fill="#000000" stroke="none">
<path d="M197 345 l-6 -15 6 -30 6 -30 -62 0 -61 0 0 -40 0 -40 -29 0 -29 0
-12 -14 -12 -15 4 -23 3 -23 38 -3 37 -3 0 -52 0 -52 55 3 55 4 0 28 0 28 13
5 14 5 12 -7 12 -8 -6 -16 -7 -16 39 -10 38 -11 31 0 31 0 9 48 9 47 13 1 12
2 16 1 15 1 -3 43 -3 42 -40 0 -40 0 3 28 4 28 -12 14 -11 13 -49 7 -49 7 -3
31 -3 32 -16 3 -16 3 -6 -16z"/>
</g>
</svg>
