<?xml version="1.0" standalone="no"?>
<!DOCTYPE svg PUBLIC "-//W3C//DTD SVG 20010904//EN"
 "http://www.w3.org/TR/2001/REC-SVG-20010904/DTD/svg10.dtd">
<svg version="1.0" xmlns="http://www.w3.org/2000/svg"
 width="35.000000pt" height="35.000000pt" viewBox="0 0 35.000000 35.000000"
 preserveAspectRatio="xMidYMid meet">
<metadata>
Created by potrace 1.16, written by Peter Selinger 2001-2019
</metadata>
<g transform="translate(0.000000,35.000000) scale(0.100000,-0.100000)"
fill="#000000" stroke="none">
<path d="M121 336 l-12 -15 3 -23 3 -23 -52 -3 -53 -3 0 -29 0 -28 -6 -16 -6
-16 30 6 30 6 12 -22 12 -22 -13 -25 -13 -24 -23 6 -23 5 0 -39 0 -39 -5 -14
-5 -13 56 3 55 4 -3 31 -3 32 23 3 23 4 14 -12 14 -11 -6 -16 -6 -15 14 -9 14
-9 48 0 47 0 0 13 0 12 11 38 10 39 14 -6 13 -5 6 15 6 16 0 28 0 29 -19 6
-19 6 -13 -3 -13 -3 -6 38 -7 37 -4 4 -4 3 -55 9 -55 9 0 24 0 24 -11 4 -11 4
-12 -15z"/>
</g>
</svg>
