<?xml version="1.0" standalone="no"?>
<!DOCTYPE svg PUBLIC "-//W3C//DTD SVG 20010904//EN"
 "http://www.w3.org/TR/2001/REC-SVG-20010904/DTD/svg10.dtd">
<svg version="1.0" xmlns="http://www.w3.org/2000/svg"
 width="37.000000pt" height="37.000000pt" viewBox="0 0 37.000000 37.000000"
 preserveAspectRatio="xMidYMid meet">
<metadata>
Created by potrace 1.16, written by Peter Selinger 2001-2019
</metadata>
<g transform="translate(0.000000,37.000000) scale(0.100000,-0.100000)"
fill="#000000" stroke="none">
<path d="M122 358 l-12 -12 0 -28 0 -28 -50 0 -50 0 0 -24 0 -23 -7 -33 -6
-33 31 6 31 6 10 -16 9 -17 -10 -16 -11 -17 -22 5 -22 4 -6 -64 -6 -63 2 -1 2
-1 63 5 62 4 0 35 0 34 18 -3 17 -3 4 -25 3 -25 12 -7 11 -8 57 0 56 0 7 41 7
40 16 6 17 7 7 10 8 11 0 41 0 42 -16 6 -16 6 -19 0 -19 0 0 28 0 27 -8 11 -7
11 -55 9 -55 9 0 25 0 25 -20 3 -20 3 -13 -13z"/>
</g>
</svg>
