<?xml version="1.0" standalone="no"?>
<!DOCTYPE svg PUBLIC "-//W3C//DTD SVG 20010904//EN"
 "http://www.w3.org/TR/2001/REC-SVG-20010904/DTD/svg10.dtd">
<svg version="1.0" xmlns="http://www.w3.org/2000/svg"
 width="32.000000pt" height="45.000000pt" viewBox="0 0 32.000000 45.000000"
 preserveAspectRatio="xMidYMid meet">
<metadata>
Created by potrace 1.16, written by Peter Selinger 2001-2019
</metadata>
<g transform="translate(0.000000,45.000000) scale(0.100000,-0.100000)"
fill="#000000" stroke="none">
<path d="M140 410 l0 -39 -57 -3 -58 -3 0 -55 0 -55 30 -5 30 -5 0 -15 0 -15
-36 -3 -37 -3 -5 -52 -4 -51 13 -13 13 -14 26 7 25 6 24 -6 25 -6 3 -38 3 -37
26 -3 26 -3 17 16 16 16 6 40 7 40 14 -5 15 -6 24 -6 24 -6 0 23 0 24 -11 39
-11 38 -19 5 -20 6 3 16 3 16 25 4 25 3 7 12 8 11 0 44 0 44 -32 -7 -33 -6
-27 -6 -28 -6 0 35 0 35 -6 16 -6 16 -24 0 -24 0 0 -40z"/>
</g>
</svg>
