<?xml version="1.0" standalone="no"?>
<!DOCTYPE svg PUBLIC "-//W3C//DTD SVG 20010904//EN"
 "http://www.w3.org/TR/2001/REC-SVG-20010904/DTD/svg10.dtd">
<svg version="1.0" xmlns="http://www.w3.org/2000/svg"
 width="30.000000pt" height="43.000000pt" viewBox="0 0 30.000000 43.000000"
 preserveAspectRatio="xMidYMid meet">
<metadata>
Created by potrace 1.16, written by Peter Selinger 2001-2019
</metadata>
<g transform="translate(0.000000,43.000000) scale(0.100000,-0.100000)"
fill="#000000" stroke="none">
<path d="M140 390 l0 -39 -57 -3 -58 -3 0 -45 0 -45 30 -5 30 -5 0 -25 0 -25
-37 -3 -36 -3 -4 -43 -3 -43 9 -9 10 -10 28 4 28 4 25 -6 25 -6 0 -35 0 -34
10 -6 10 -6 19 6 20 6 11 33 11 33 -7 16 -6 17 20 0 21 0 26 -10 27 -10 -7 37
-7 38 -9 17 -10 18 -15 0 -15 0 3 28 3 27 25 4 25 3 7 12 8 11 0 34 0 33 -27
-8 -28 -8 -35 0 -35 -1 3 25 3 25 -6 23 -5 22 -15 0 -15 0 0 -40z"/>
</g>
</svg>
