<?xml version="1.0" standalone="no"?>
<!DOCTYPE svg PUBLIC "-//W3C//DTD SVG 20010904//EN"
 "http://www.w3.org/TR/2001/REC-SVG-20010904/DTD/svg10.dtd">
<svg version="1.0" xmlns="http://www.w3.org/2000/svg"
 width="45.000000pt" height="35.000000pt" viewBox="0 0 45.000000 35.000000"
 preserveAspectRatio="xMidYMid meet">
<metadata>
Created by potrace 1.16, written by Peter Selinger 2001-2019
</metadata>
<g transform="translate(0.000000,35.000000) scale(0.100000,-0.100000)"
fill="#000000" stroke="none">
<path d="M198 313 l-3 -38 -55 -5 -55 -5 1 -41 0 -41 -22 5 -22 4 -22 -22 -22
-22 18 -20 19 -20 33 4 34 4 -7 -53 -6 -53 50 0 51 0 0 35 0 35 13 1 12 1 15
-2 15 -2 7 -11 8 -12 0 -27 0 -28 33 0 32 0 21 6 21 6 -8 41 -7 42 4 4 4 4 32
2 32 3 13 18 13 18 0 7 0 8 -15 15 -16 15 -29 -6 -30 -5 0 47 0 47 -27 -8 -28
-8 -35 0 -35 -1 3 25 3 25 -6 23 -5 22 -15 0 -14 0 -3 -37z"/>
</g>
</svg>
