<?xml version="1.0" standalone="no"?>
<!DOCTYPE svg PUBLIC "-//W3C//DTD SVG 20010904//EN"
 "http://www.w3.org/TR/2001/REC-SVG-20010904/DTD/svg10.dtd">
<svg version="1.0" xmlns="http://www.w3.org/2000/svg"
 width="37.000000pt" height="30.000000pt" viewBox="0 0 37.000000 30.000000"
 preserveAspectRatio="xMidYMid meet">
<metadata>
Created by potrace 1.16, written by Peter Selinger 2001-2019
</metadata>
<g transform="translate(0.000000,30.000000) scale(0.100000,-0.100000)"
fill="#000000" stroke="none">
<path d="M70 250 l0 -50 -24 0 -24 0 -12 -15 -12 -14 4 -18 3 -18 30 -5 30 -6
-1 -63 -1 -63 21 6 21 6 49 0 48 0 -4 25 -5 25 13 11 14 11 0 -14 0 -15 65
-22 65 -21 6 0 5 0 -3 72 -3 73 -30 6 -30 7 27 1 27 1 4 8 5 7 6 40 6 40 -9
15 -10 14 -56 -18 -57 -18 5 -18 5 -18 -21 -6 -20 -5 -9 5 -8 5 0 40 0 39 -60
0 -60 0 0 -50z"/>
</g>
</svg>
