<?xml version="1.0" standalone="no"?>
<!DOCTYPE svg PUBLIC "-//W3C//DTD SVG 20010904//EN"
 "http://www.w3.org/TR/2001/REC-SVG-20010904/DTD/svg10.dtd">
<svg version="1.0" xmlns="http://www.w3.org/2000/svg"
 width="35.000000pt" height="28.000000pt" viewBox="0 0 35.000000 28.000000"
 preserveAspectRatio="xMidYMid meet">
<metadata>
Created by potrace 1.16, written by Peter Selinger 2001-2019
</metadata>
<g transform="translate(0.000000,28.000000) scale(0.100000,-0.100000)"
fill="#000000" stroke="none">
<path d="M70 230 l0 -50 -24 0 -24 0 -12 -15 -13 -16 9 -9 9 -8 25 -4 25 -3 3
-58 3 -57 55 0 55 0 -6 20 -7 21 12 14 12 15 14 0 14 0 0 -14 0 -13 60 -20 61
-20 -3 61 -3 61 -27 -2 -28 -2 0 25 0 24 25 -6 25 -6 4 13 4 14 6 25 5 25 -8
13 -7 12 -46 -16 -46 -15 5 -19 5 -18 -32 -7 -31 -7 -14 12 -14 11 6 35 6 34
-52 0 -51 0 0 -50z"/>
</g>
</svg>
