<?xml version="1.0" standalone="no"?>
<!DOCTYPE svg PUBLIC "-//W3C//DTD SVG 20010904//EN"
 "http://www.w3.org/TR/2001/REC-SVG-20010904/DTD/svg10.dtd">
<svg version="1.0" xmlns="http://www.w3.org/2000/svg"
 width="42.000000pt" height="30.000000pt" viewBox="0 0 42.000000 30.000000"
 preserveAspectRatio="xMidYMid meet">
<metadata>
Created by potrace 1.16, written by Peter Selinger 2001-2019
</metadata>
<g transform="translate(0.000000,30.000000) scale(0.100000,-0.100000)"
fill="#000000" stroke="none">
<path d="M58 248 l-3 -53 -27 3 -28 3 0 -36 0 -36 28 3 27 3 -1 -67 -1 -67 51
6 51 6 18 15 17 15 0 19 0 18 15 0 15 0 0 -15 0 -15 45 -11 45 -11 6 -9 5 -9
20 0 19 0 0 33 0 32 6 23 6 22 24 0 24 0 0 50 0 50 -29 0 -29 0 -6 16 -6 16 0
25 0 25 -22 -6 -23 -6 -37 0 -38 0 0 -25 0 -26 -15 -5 -15 -6 -15 12 -15 12 0
24 0 24 -54 0 -55 0 -3 -52z"/>
</g>
</svg>
