<?xml version="1.0" standalone="no"?>
<!DOCTYPE svg PUBLIC "-//W3C//DTD SVG 20010904//EN"
 "http://www.w3.org/TR/2001/REC-SVG-20010904/DTD/svg10.dtd">
<svg version="1.0" xmlns="http://www.w3.org/2000/svg"
 width="27.000000pt" height="34.000000pt" viewBox="0 0 27.000000 34.000000"
 preserveAspectRatio="xMidYMid meet">
<metadata>
Created by potrace 1.16, written by Peter Selinger 2001-2019
</metadata>
<g transform="translate(0.000000,34.000000) scale(0.100000,-0.100000)"
fill="#000000" stroke="none">
<path d="M0 314 l0 -25 10 -20 11 -19 24 6 25 6 0 -41 0 -41 -24 0 -24 0 -6
-23 -6 -22 0 -34 0 -33 26 6 26 7 18 -6 18 -6 -2 -32 -1 -32 40 0 40 0 -1 23
-1 22 21 5 21 4 20 3 20 3 3 138 3 137 -43 0 -43 0 0 -32 0 -33 -37 -3 -38 -3
0 29 0 30 -16 6 -16 6 -34 0 -34 0 0 -26z"/>
</g>
</svg>
