<?xml version="1.0" standalone="no"?>
<!DOCTYPE svg PUBLIC "-//W3C//DTD SVG 20010904//EN"
 "http://www.w3.org/TR/2001/REC-SVG-20010904/DTD/svg10.dtd">
<svg version="1.0" xmlns="http://www.w3.org/2000/svg"
 width="38.000000pt" height="34.000000pt" viewBox="0 0 38.000000 34.000000"
 preserveAspectRatio="xMidYMid meet">
<metadata>
Created by potrace 1.16, written by Peter Selinger 2001-2019
</metadata>
<g transform="translate(0.000000,34.000000) scale(0.100000,-0.100000)"
fill="#000000" stroke="none">
<path d="M207 333 l-19 -5 6 -21 5 -21 -11 -13 -10 -13 -40 0 -40 0 7 -29 6
-30 -20 -10 -20 -11 -35 0 -36 0 0 -22 0 -23 7 -39 6 -38 48 6 48 7 3 -33 3
-33 48 -3 47 -3 10 25 10 26 22 0 23 0 12 8 12 7 3 60 3 59 35 1 35 0 3 18 4
18 -13 15 -12 15 -31 -3 -31 -3 3 48 4 47 -39 -1 -38 -1 -18 -5z"/>
</g>
</svg>
