<?xml version="1.0" standalone="no"?>
<!DOCTYPE svg PUBLIC "-//W3C//DTD SVG 20010904//EN"
 "http://www.w3.org/TR/2001/REC-SVG-20010904/DTD/svg10.dtd">
<svg version="1.0" xmlns="http://www.w3.org/2000/svg"
 width="36.000000pt" height="32.000000pt" viewBox="0 0 36.000000 32.000000"
 preserveAspectRatio="xMidYMid meet">
<metadata>
Created by potrace 1.16, written by Peter Selinger 2001-2019
</metadata>
<g transform="translate(0.000000,32.000000) scale(0.100000,-0.100000)"
fill="#000000" stroke="none">
<path d="M209 313 l-17 -4 5 -20 5 -19 -12 -15 -12 -15 -38 0 -37 0 5 -27 5
-26 -18 -14 -19 -13 -39 0 -40 0 7 -37 6 -38 0 -13 0 -13 49 7 50 6 3 -33 3
-34 40 0 40 0 -1 17 -2 17 17 5 16 4 27 6 27 6 3 63 3 62 32 -2 32 -3 6 10 7
11 -12 14 -12 15 -32 -3 -31 -2 3 48 3 47 -28 -1 -28 -1 -16 -5z"/>
</g>
</svg>
