<?xml version="1.0" standalone="no"?>
<!DOCTYPE svg PUBLIC "-//W3C//DTD SVG 20010904//EN"
 "http://www.w3.org/TR/2001/REC-SVG-20010904/DTD/svg10.dtd">
<svg version="1.0" xmlns="http://www.w3.org/2000/svg"
 width="33.000000pt" height="35.000000pt" viewBox="0 0 33.000000 35.000000"
 preserveAspectRatio="xMidYMid meet">
<metadata>
Created by potrace 1.16, written by Peter Selinger 2001-2019
</metadata>
<g transform="translate(0.000000,35.000000) scale(0.100000,-0.100000)"
fill="#000000" stroke="none">
<path d="M20 302 l0 -48 32 -9 33 -10 3 -18 4 -18 -13 -15 -12 -15 -28 6 -27
6 -7 -11 -7 -11 12 -50 12 -51 49 4 49 3 0 -17 0 -16 6 -16 6 -16 28 0 28 0
16 6 16 6 0 13 0 14 18 4 17 5 36 6 36 6 -1 68 -1 67 -37 3 -38 3 0 15 0 14
35 0 35 0 0 60 0 60 -150 0 -150 0 0 -48z"/>
</g>
</svg>
