<?xml version="1.0" standalone="no"?>
<!DOCTYPE svg PUBLIC "-//W3C//DTD SVG 20010904//EN"
 "http://www.w3.org/TR/2001/REC-SVG-20010904/DTD/svg10.dtd">
<svg version="1.0" xmlns="http://www.w3.org/2000/svg"
 width="34.000000pt" height="35.000000pt" viewBox="0 0 34.000000 35.000000"
 preserveAspectRatio="xMidYMid meet">
<metadata>
Created by potrace 1.16, written by Peter Selinger 2001-2019
</metadata>
<g transform="translate(0.000000,35.000000) scale(0.100000,-0.100000)"
fill="#000000" stroke="none">
<path d="M0 323 l0 -28 6 -22 6 -23 29 0 29 0 0 -36 0 -36 -24 6 -24 6 -6 -23
-6 -22 0 -27 0 -28 43 0 44 0 -5 -30 -4 -30 12 -15 12 -15 18 0 17 0 17 19 18
19 -4 24 -3 23 45 0 45 0 10 60 10 60 22 -2 21 -2 6 14 5 15 -6 16 -6 16 -33
-7 -34 -6 0 50 0 49 -17 -3 -18 -4 -27 -6 -28 -5 3 -23 2 -22 -44 -3 -43 -3 6
25 6 25 -19 11 -20 10 -30 0 -31 0 0 -27z"/>
</g>
</svg>
