<?xml version="1.0" standalone="no"?>
<!DOCTYPE svg PUBLIC "-//W3C//DTD SVG 20010904//EN"
 "http://www.w3.org/TR/2001/REC-SVG-20010904/DTD/svg10.dtd">
<svg version="1.0" xmlns="http://www.w3.org/2000/svg"
 width="36.000000pt" height="37.000000pt" viewBox="0 0 36.000000 37.000000"
 preserveAspectRatio="xMidYMid meet">
<metadata>
Created by potrace 1.16, written by Peter Selinger 2001-2019
</metadata>
<g transform="translate(0.000000,37.000000) scale(0.100000,-0.100000)"
fill="#000000" stroke="none">
<path d="M0 333 l0 -38 6 -22 6 -23 29 0 29 0 0 -24 0 -23 -24 4 -23 5 -6 -24
-7 -23 0 -37 0 -38 40 0 40 0 0 -33 0 -33 12 -12 12 -12 26 0 27 0 16 18 17
19 0 28 0 28 44 -6 43 -6 7 59 7 60 24 0 24 0 6 20 6 20 -6 21 -7 21 -34 -4
-34 -4 0 48 0 49 -37 -6 -38 -7 -17 -5 -18 -4 0 -25 0 -24 -29 0 -29 0 5 21 6
22 -18 13 -19 14 -43 0 -43 0 0 -37z"/>
</g>
</svg>
