<?xml version="1.0" standalone="no"?>
<!DOCTYPE svg PUBLIC "-//W3C//DTD SVG 20010904//EN"
 "http://www.w3.org/TR/2001/REC-SVG-20010904/DTD/svg10.dtd">
<svg version="1.0" xmlns="http://www.w3.org/2000/svg"
 width="29.000000pt" height="33.000000pt" viewBox="0 0 29.000000 33.000000"
 preserveAspectRatio="xMidYMid meet">
<metadata>
Created by potrace 1.16, written by Peter Selinger 2001-2019
</metadata>
<g transform="translate(0.000000,33.000000) scale(0.100000,-0.100000)"
fill="#000000" stroke="none">
<path d="M4 305 l-6 -25 6 -24 6 -23 23 4 24 5 7 -18 6 -17 -6 -19 -6 -20 -24
5 -24 4 0 -53 0 -54 46 0 45 0 -6 -11 -7 -10 6 -25 6 -24 35 0 35 0 0 14 0 15
54 15 54 16 0 22 1 23 6 30 7 30 -41 1 -41 1 -15 13 -15 12 0 17 0 17 12 12
12 12 33 0 33 0 0 39 0 38 -45 -10 -45 -10 0 -18 0 -19 -24 -6 -25 -6 -19 6
-20 7 5 20 6 21 -14 9 -14 9 -32 0 -33 0 -6 -25z"/>
</g>
</svg>
