<?xml version="1.0" standalone="no"?>
<!DOCTYPE svg PUBLIC "-//W3C//DTD SVG 20010904//EN"
 "http://www.w3.org/TR/2001/REC-SVG-20010904/DTD/svg10.dtd">
<svg version="1.0" xmlns="http://www.w3.org/2000/svg"
 width="31.000000pt" height="35.000000pt" viewBox="0 0 31.000000 35.000000"
 preserveAspectRatio="xMidYMid meet">
<metadata>
Created by potrace 1.16, written by Peter Selinger 2001-2019
</metadata>
<g transform="translate(0.000000,35.000000) scale(0.100000,-0.100000)"
fill="#000000" stroke="none">
<path d="M6 334 l-6 -16 0 -31 0 -32 9 -14 9 -14 18 7 17 7 8 -12 7 -12 -5
-14 -5 -13 -24 6 -24 6 0 -66 0 -66 40 0 40 0 0 -19 0 -19 6 -16 6 -16 44 0
44 0 0 14 0 15 54 15 53 16 7 46 6 47 0 18 0 18 -41 -1 -41 0 -16 15 -15 16
13 15 12 16 34 0 34 0 0 51 0 51 -26 -6 -26 -7 -29 -6 -29 -5 0 -19 0 -18 -20
-6 -20 -6 -10 6 -10 6 0 24 0 23 -16 6 -16 6 -38 0 -38 0 -6 -16z"/>
</g>
</svg>
