<?xml version="1.0" standalone="no"?>
<!DOCTYPE svg PUBLIC "-//W3C//DTD SVG 20010904//EN"
 "http://www.w3.org/TR/2001/REC-SVG-20010904/DTD/svg10.dtd">
<svg version="1.0" xmlns="http://www.w3.org/2000/svg"
 width="38.000000pt" height="33.000000pt" viewBox="0 0 38.000000 33.000000"
 preserveAspectRatio="xMidYMid meet">
<metadata>
Created by potrace 1.16, written by Peter Selinger 2001-2019
</metadata>
<g transform="translate(0.000000,33.000000) scale(0.100000,-0.100000)"
fill="#000000" stroke="none">
<path d="M88 288 l-3 -43 -31 -1 -31 -1 -12 -7 -11 -7 0 -19 0 -19 19 -11 20
-10 23 3 23 2 0 -55 0 -55 46 3 47 4 -5 -24 -5 -24 16 -13 15 -13 23 4 23 3 0
20 0 20 57 9 57 9 11 30 10 30 0 24 0 24 -22 -2 -23 -3 -22 8 -23 7 0 29 0 28
20 -5 20 -5 15 12 15 12 0 39 0 39 -27 -5 -28 -6 -22 -5 -22 -4 -3 -33 -3 -32
-23 -3 -24 -4 -19 18 -19 17 0 29 0 28 -39 0 -40 0 -3 -42z"/>
</g>
</svg>
