<?xml version="1.0" standalone="no"?>
<!DOCTYPE svg PUBLIC "-//W3C//DTD SVG 20010904//EN"
 "http://www.w3.org/TR/2001/REC-SVG-20010904/DTD/svg10.dtd">
<svg version="1.0" xmlns="http://www.w3.org/2000/svg"
 width="40.000000pt" height="35.000000pt" viewBox="0 0 40.000000 35.000000"
 preserveAspectRatio="xMidYMid meet">
<metadata>
Created by potrace 1.16, written by Peter Selinger 2001-2019
</metadata>
<g transform="translate(0.000000,35.000000) scale(0.100000,-0.100000)"
fill="#000000" stroke="none">
<path d="M88 308 l-3 -43 -23 2 -23 3 -20 -10 -19 -11 0 -29 0 -29 19 -11 20
-10 27 0 27 0 -7 -55 -6 -55 45 7 45 6 0 -25 0 -26 14 -11 15 -12 33 3 33 3 3
22 3 22 54 6 54 7 10 31 11 30 0 33 0 34 -29 0 -29 0 -16 6 -16 6 0 14 0 14
23 0 23 0 12 12 12 12 0 49 0 49 -42 -7 -43 -6 -17 -5 -18 -5 0 -30 0 -30 -15
-6 -16 -5 -19 17 -20 18 0 29 0 28 -49 0 -50 0 -3 -42z"/>
</g>
</svg>
