<?xml version="1.0" standalone="no"?>
<!DOCTYPE svg PUBLIC "-//W3C//DTD SVG 20010904//EN"
 "http://www.w3.org/TR/2001/REC-SVG-20010904/DTD/svg10.dtd">
<svg version="1.0" xmlns="http://www.w3.org/2000/svg"
 width="35.000000pt" height="36.000000pt" viewBox="0 0 35.000000 36.000000"
 preserveAspectRatio="xMidYMid meet">
<metadata>
Created by potrace 1.16, written by Peter Selinger 2001-2019
</metadata>
<g transform="translate(0.000000,36.000000) scale(0.100000,-0.100000)"
fill="#000000" stroke="none">
<path d="M70 321 l0 -39 -13 -10 -13 -11 -22 6 -22 5 0 -39 0 -40 26 -12 26
-12 20 7 19 6 -7 -51 -7 -51 46 0 46 0 3 -37 3 -38 34 -3 34 -3 8 13 9 13 0
21 0 22 16 6 16 6 25 0 26 0 -7 46 -6 46 -6 9 -5 9 -24 0 -23 0 -6 16 -6 15
11 20 10 20 35 -7 34 -6 0 56 0 57 -37 -6 -38 -6 -21 -4 -21 -5 -7 -30 -6 -31
-20 11 -20 11 0 29 0 30 -55 0 -55 0 0 -39z"/>
</g>
</svg>
