<?xml version="1.0" standalone="no"?>
<!DOCTYPE svg PUBLIC "-//W3C//DTD SVG 20010904//EN"
 "http://www.w3.org/TR/2001/REC-SVG-20010904/DTD/svg10.dtd">
<svg version="1.0" xmlns="http://www.w3.org/2000/svg"
 width="44.000000pt" height="37.000000pt" viewBox="0 0 44.000000 37.000000"
 preserveAspectRatio="xMidYMid meet">
<metadata>
Created by potrace 1.16, written by Peter Selinger 2001-2019
</metadata>
<g transform="translate(0.000000,37.000000) scale(0.100000,-0.100000)"
fill="#000000" stroke="none">
<path d="M83 323 l5 -48 -41 0 -42 0 -3 -33 -3 -33 12 -15 12 -15 31 3 31 3 3
-24 4 -23 -11 -11 -11 -11 0 -18 0 -17 50 6 50 6 0 -37 0 -36 25 -12 25 -11
25 11 25 12 0 19 0 19 51 12 51 12 -7 35 -6 35 6 26 6 27 32 0 32 0 3 33 3 32
-28 -2 -29 -2 -12 8 -12 7 0 40 0 39 -11 0 -10 0 -45 -11 -44 -11 0 -14 0 -14
-30 0 -30 0 0 24 0 24 -16 6 -16 6 -40 0 -41 0 6 -47z"/>
</g>
</svg>
