<?xml version="1.0" standalone="no"?>
<!DOCTYPE svg PUBLIC "-//W3C//DTD SVG 20010904//EN"
 "http://www.w3.org/TR/2001/REC-SVG-20010904/DTD/svg10.dtd">
<svg version="1.0" xmlns="http://www.w3.org/2000/svg"
 width="27.000000pt" height="26.000000pt" viewBox="0 0 27.000000 26.000000"
 preserveAspectRatio="xMidYMid meet">
<metadata>
Created by potrace 1.16, written by Peter Selinger 2001-2019
</metadata>
<g transform="translate(0.000000,26.000000) scale(0.100000,-0.100000)"
fill="#000000" stroke="none">
<path d="M0 226 l0 -34 6 -16 6 -16 23 6 23 6 7 -12 7 -11 -7 -26 -6 -25 -19
5 -19 5 -5 -15 -6 -15 0 -39 0 -39 43 0 42 0 14 9 14 9 -5 20 -6 21 16 6 16 6
16 -21 15 -20 30 -9 30 -9 15 -6 15 -6 -3 131 -3 131 -31 -6 -30 -6 -13 0 -12
0 5 -25 4 -25 -23 -8 -23 -9 -19 5 -19 5 6 20 5 21 -11 13 -10 13 -44 0 -44 0
0 -34z"/>
</g>
</svg>
