<?xml version="1.0" standalone="no"?>
<!DOCTYPE svg PUBLIC "-//W3C//DTD SVG 20010904//EN"
 "http://www.w3.org/TR/2001/REC-SVG-20010904/DTD/svg10.dtd">
<svg version="1.0" xmlns="http://www.w3.org/2000/svg"
 width="42.000000pt" height="30.000000pt" viewBox="0 0 42.000000 30.000000"
 preserveAspectRatio="xMidYMid meet">
<metadata>
Created by potrace 1.16, written by Peter Selinger 2001-2019
</metadata>
<g transform="translate(0.000000,30.000000) scale(0.100000,-0.100000)"
fill="#000000" stroke="none">
<path d="M268 294 l-7 -6 6 -28 5 -28 -26 -17 -27 -18 -25 12 -26 12 6 34 7
35 -51 0 -50 0 0 -43 0 -43 -12 -12 -12 -12 -28 0 -28 0 0 -20 0 -20 25 -10
26 -10 5 -17 6 -18 10 -26 9 -27 37 -6 37 -5 23 6 23 6 -6 27 -6 27 15 12 14
12 16 -23 16 -23 -6 -32 -6 -33 26 0 27 0 34 14 35 15 0 40 0 39 6 15 5 15 19
-5 19 -5 6 25 7 26 -7 11 -7 12 -23 -6 -23 -6 -6 16 -6 16 0 26 0 27 -8 10 -7
10 -30 3 -31 3 -6 -7z"/>
</g>
</svg>
