<?xml version="1.0" standalone="no"?>
<!DOCTYPE svg PUBLIC "-//W3C//DTD SVG 20010904//EN"
 "http://www.w3.org/TR/2001/REC-SVG-20010904/DTD/svg10.dtd">
<svg version="1.0" xmlns="http://www.w3.org/2000/svg"
 width="36.000000pt" height="29.000000pt" viewBox="0 0 36.000000 29.000000"
 preserveAspectRatio="xMidYMid meet">
<metadata>
Created by potrace 1.16, written by Peter Selinger 2001-2019
</metadata>
<g transform="translate(0.000000,29.000000) scale(0.100000,-0.100000)"
fill="#000000" stroke="none">
<path d="M2 233 l3 -58 33 -3 33 -3 -3 -17 -3 -17 -22 -3 -22 -3 -5 -17 -5
-17 -6 -37 -7 -36 21 -12 22 -11 37 3 37 3 0 35 0 35 20 0 20 0 3 -37 3 -38
63 0 63 0 9 47 9 47 25 6 25 6 0 39 0 40 -35 3 -35 4 -7 11 -7 12 6 38 6 38
-39 -7 -39 -7 -25 -7 -25 -7 0 -29 0 -29 -25 0 -25 0 -3 35 -4 35 -11 7 -12 8
-38 0 -38 0 3 -57z"/>
</g>
</svg>
