<?xml version="1.0" standalone="no"?>
<!DOCTYPE svg PUBLIC "-//W3C//DTD SVG 20010904//EN"
 "http://www.w3.org/TR/2001/REC-SVG-20010904/DTD/svg10.dtd">
<svg version="1.0" xmlns="http://www.w3.org/2000/svg"
 width="37.000000pt" height="36.000000pt" viewBox="0 0 37.000000 36.000000"
 preserveAspectRatio="xMidYMid meet">
<metadata>
Created by potrace 1.16, written by Peter Selinger 2001-2019
</metadata>
<g transform="translate(0.000000,36.000000) scale(0.100000,-0.100000)"
fill="#000000" stroke="none">
<path d="M2 306 l-1 -55 37 -3 37 -3 3 -21 3 -20 -23 -11 -23 -10 -13 -47 -12
-47 5 -10 6 -9 35 0 34 0 0 -30 0 -30 25 -6 25 -6 35 6 35 7 0 20 0 20 13 4
12 3 36 6 37 6 11 44 11 44 20 5 21 5 -3 44 -3 43 -30 5 -30 5 -5 45 -5 45
-146 3 -145 3 -2 -55z"/>
</g>
</svg>
