<?xml version="1.0" standalone="no"?>
<!DOCTYPE svg PUBLIC "-//W3C//DTD SVG 20010904//EN"
 "http://www.w3.org/TR/2001/REC-SVG-20010904/DTD/svg10.dtd">
<svg version="1.0" xmlns="http://www.w3.org/2000/svg"
 width="35.000000pt" height="34.000000pt" viewBox="0 0 35.000000 34.000000"
 preserveAspectRatio="xMidYMid meet">
<metadata>
Created by potrace 1.16, written by Peter Selinger 2001-2019
</metadata>
<g transform="translate(0.000000,34.000000) scale(0.100000,-0.100000)"
fill="#000000" stroke="none">
<path d="M3 296 l-2 -45 37 -3 37 -3 3 -31 3 -30 -22 -10 -22 -10 -12 -42 -13
-41 6 -6 5 -5 34 0 33 0 0 -29 0 -30 20 -6 20 -6 31 6 31 7 -5 19 -5 18 17 5
16 4 36 6 37 6 11 44 11 44 21 5 20 5 -3 34 -3 33 -22 0 -23 1 -9 9 -10 10 -3
40 -3 40 -135 3 -135 2 -2 -44z"/>
</g>
</svg>
