<?xml version="1.0" standalone="no"?>
<!DOCTYPE svg PUBLIC "-//W3C//DTD SVG 20010904//EN"
 "http://www.w3.org/TR/2001/REC-SVG-20010904/DTD/svg10.dtd">
<svg version="1.0" xmlns="http://www.w3.org/2000/svg"
 width="36.000000pt" height="34.000000pt" viewBox="0 0 36.000000 34.000000"
 preserveAspectRatio="xMidYMid meet">
<metadata>
Created by potrace 1.16, written by Peter Selinger 2001-2019
</metadata>
<g transform="translate(0.000000,34.000000) scale(0.100000,-0.100000)"
fill="#000000" stroke="none">
<path d="M110 305 l0 -35 -55 0 -56 0 3 -127 3 -128 50 0 50 0 0 30 0 30 25 0
25 0 0 -25 0 -25 51 -6 52 -7 10 -6 10 -6 13 50 13 50 22 0 22 0 5 22 6 21
-10 19 -10 18 -36 0 -36 0 6 44 6 44 -56 -5 -56 -6 6 30 6 30 -12 12 -11 11
-23 0 -23 0 0 -35z"/>
</g>
</svg>
