<?xml version="1.0" standalone="no"?>
<!DOCTYPE svg PUBLIC "-//W3C//DTD SVG 20010904//EN"
 "http://www.w3.org/TR/2001/REC-SVG-20010904/DTD/svg10.dtd">
<svg version="1.0" xmlns="http://www.w3.org/2000/svg"
 width="46.000000pt" height="43.000000pt" viewBox="0 0 46.000000 43.000000"
 preserveAspectRatio="xMidYMid meet">
<metadata>
Created by potrace 1.16, written by Peter Selinger 2001-2019
</metadata>
<g transform="translate(0.000000,43.000000) scale(0.100000,-0.100000)"
fill="#000000" stroke="none">
<path d="M205 418 l-4 -13 -3 -20 -3 -20 -58 -3 -57 -3 0 -40 0 -40 -20 6 -20
6 -20 -6 -20 -6 0 -54 0 -54 33 -3 32 -3 3 -25 3 -25 4 -21 5 -22 52 2 53 1 5
-35 5 -35 33 -3 34 -3 14 18 13 18 1 32 0 32 32 -10 33 -9 8 0 9 0 -4 50 -3
50 36 0 35 0 12 12 12 12 0 28 0 27 -32 9 -33 8 -11 45 -11 44 -44 11 -44 11
-3 21 -3 22 -35 0 -35 0 -4 -12z"/>
</g>
</svg>
