<?xml version="1.0" standalone="no"?>
<!DOCTYPE svg PUBLIC "-//W3C//DTD SVG 20010904//EN"
 "http://www.w3.org/TR/2001/REC-SVG-20010904/DTD/svg10.dtd">
<svg version="1.0" xmlns="http://www.w3.org/2000/svg"
 width="30.000000pt" height="43.000000pt" viewBox="0 0 30.000000 43.000000"
 preserveAspectRatio="xMidYMid meet">
<metadata>
Created by potrace 1.16, written by Peter Selinger 2001-2019
</metadata>
<g transform="translate(0.000000,43.000000) scale(0.100000,-0.100000)"
fill="#000000" stroke="none">
<path d="M125 418 l-4 -13 -3 -20 -3 -20 -52 -5 -52 -5 -7 -7 -6 -7 7 -47 7
-46 29 -11 29 -11 -3 -11 -4 -10 -26 -3 -27 -3 0 -37 0 -37 -6 -22 -6 -23 38
0 39 0 13 -8 13 -9 -7 -16 -6 -17 12 -15 12 -15 30 0 29 0 20 10 19 11 0 40 0
41 18 -7 17 -6 28 -6 27 -5 0 61 0 61 -35 0 -36 0 -5 15 -6 15 12 15 12 15 30
0 29 0 -3 52 -3 52 -55 16 -55 16 -3 17 -3 17 -25 0 -25 0 -4 -12z"/>
</g>
</svg>
