<?xml version="1.0" standalone="no"?>
<!DOCTYPE svg PUBLIC "-//W3C//DTD SVG 20010904//EN"
 "http://www.w3.org/TR/2001/REC-SVG-20010904/DTD/svg10.dtd">
<svg version="1.0" xmlns="http://www.w3.org/2000/svg"
 width="36.000000pt" height="41.000000pt" viewBox="0 0 36.000000 41.000000"
 preserveAspectRatio="xMidYMid meet">
<metadata>
Created by potrace 1.16, written by Peter Selinger 2001-2019
</metadata>
<g transform="translate(0.000000,41.000000) scale(0.100000,-0.100000)"
fill="#000000" stroke="none">
<path d="M126 395 l-16 -16 6 -25 6 -24 -56 0 -56 0 0 -46 0 -46 30 5 29 6 16
-15 15 -15 0 -8 0 -7 -13 -18 -13 -18 -35 -3 -34 -3 4 -38 3 -39 5 -7 4 -8 25
0 25 0 20 -10 19 -11 -6 -25 -6 -25 43 3 44 3 -2 22 -3 22 18 5 17 4 36 6 36
6 7 49 6 49 20 -5 20 -5 10 26 10 26 -10 26 -10 25 -19 -6 -20 -6 -10 20 -11
20 0 24 0 23 -57 20 -58 19 0 14 0 14 -11 4 -12 4 -16 -16z"/>
</g>
</svg>
