<?xml version="1.0" standalone="no"?>
<!DOCTYPE svg PUBLIC "-//W3C//DTD SVG 20010904//EN"
 "http://www.w3.org/TR/2001/REC-SVG-20010904/DTD/svg10.dtd">
<svg version="1.0" xmlns="http://www.w3.org/2000/svg"
 width="35.000000pt" height="40.000000pt" viewBox="0 0 35.000000 40.000000"
 preserveAspectRatio="xMidYMid meet">
<metadata>
Created by potrace 1.16, written by Peter Selinger 2001-2019
</metadata>
<g transform="translate(0.000000,40.000000) scale(0.100000,-0.100000)"
fill="#000000" stroke="none">
<path d="M180 370 l0 -30 -26 -10 -25 -10 -30 0 -30 0 7 -45 6 -45 -13 -1 -14
-1 -21 1 -21 2 -6 -21 -5 -21 14 -6 14 -5 25 6 25 6 7 -16 6 -17 -10 -49 -10
-48 28 0 27 0 16 -6 16 -6 0 -24 0 -24 40 0 40 0 0 14 0 14 51 12 50 12 -6 42
-7 41 -10 18 -9 17 -23 0 -24 0 -6 15 -5 14 15 16 15 15 30 0 30 0 5 15 6 14
-12 35 -11 35 -37 11 -37 10 -13 0 -12 0 -10 25 -10 25 -15 0 -15 0 0 -30z"/>
</g>
</svg>
