<?xml version="1.0" standalone="no"?>
<!DOCTYPE svg PUBLIC "-//W3C//DTD SVG 20010904//EN"
 "http://www.w3.org/TR/2001/REC-SVG-20010904/DTD/svg10.dtd">
<svg version="1.0" xmlns="http://www.w3.org/2000/svg"
 width="36.000000pt" height="36.000000pt" viewBox="0 0 36.000000 36.000000"
 preserveAspectRatio="xMidYMid meet">
<metadata>
Created by potrace 1.16, written by Peter Selinger 2001-2019
</metadata>
<g transform="translate(0.000000,36.000000) scale(0.100000,-0.100000)"
fill="#000000" stroke="none">
<path d="M70 309 l0 -50 -19 6 -18 5 -17 -6 -16 -6 0 -33 0 -34 38 -3 37 -3 0
-55 0 -55 42 -3 42 -3 3 -32 3 -32 33 -3 32 -3 15 15 15 15 0 8 0 9 50 13 50
13 0 6 0 7 -18 60 -18 59 -23 6 -22 5 0 10 0 10 31 6 31 7 6 6 6 6 5 50 5 50
-147 0 -146 0 0 -51z"/>
</g>
</svg>
