<?xml version="1.0" standalone="no"?>
<!DOCTYPE svg PUBLIC "-//W3C//DTD SVG 20010904//EN"
 "http://www.w3.org/TR/2001/REC-SVG-20010904/DTD/svg10.dtd">
<svg version="1.0" xmlns="http://www.w3.org/2000/svg"
 width="29.000000pt" height="41.000000pt" viewBox="0 0 29.000000 41.000000"
 preserveAspectRatio="xMidYMid meet">
<metadata>
Created by potrace 1.16, written by Peter Selinger 2001-2019
</metadata>
<g transform="translate(0.000000,41.000000) scale(0.100000,-0.100000)"
fill="#000000" stroke="none">
<path d="M130 395 l-12 -15 6 -31 6 -32 -61 6 -60 7 3 -48 3 -47 30 -5 30 -5
3 -22 3 -22 -24 -16 -25 -16 -13 3 -14 3 0 -50 0 -50 45 0 45 0 3 -23 4 -23
14 -6 14 -5 25 6 25 6 -3 23 -2 22 50 5 50 5 -3 30 -2 30 -5 22 -5 23 -26 0
-25 0 3 28 3 27 32 1 33 0 6 6 6 6 -7 46 -7 46 -54 0 -54 0 0 29 0 29 -14 11
-13 11 -13 -15z"/>
</g>
</svg>
