<?xml version="1.0" standalone="no"?>
<!DOCTYPE svg PUBLIC "-//W3C//DTD SVG 20010904//EN"
 "http://www.w3.org/TR/2001/REC-SVG-20010904/DTD/svg10.dtd">
<svg version="1.0" xmlns="http://www.w3.org/2000/svg"
 width="31.000000pt" height="43.000000pt" viewBox="0 0 31.000000 43.000000"
 preserveAspectRatio="xMidYMid meet">
<metadata>
Created by potrace 1.16, written by Peter Selinger 2001-2019
</metadata>
<g transform="translate(0.000000,43.000000) scale(0.100000,-0.100000)"
fill="#000000" stroke="none">
<path d="M132 418 l-12 -12 0 -34 0 -33 -56 6 -55 7 3 -58 3 -59 25 -3 25 -4
9 -8 9 -9 -12 -15 -12 -15 -27 -3 -27 -3 -2 -62 -1 -61 46 1 46 2 6 -25 6 -25
23 -3 23 -4 24 6 24 6 0 25 0 24 48 3 47 3 -2 40 -3 40 -5 23 -5 22 -26 0 -25
0 3 18 4 17 31 -2 32 -3 6 11 7 11 -7 54 -6 54 -55 0 -54 0 0 28 0 28 -12 12
-12 12 -11 0 -11 0 -12 -12z"/>
</g>
</svg>
