<?xml version="1.0" standalone="no"?>
<!DOCTYPE svg PUBLIC "-//W3C//DTD SVG 20010904//EN"
 "http://www.w3.org/TR/2001/REC-SVG-20010904/DTD/svg10.dtd">
<svg version="1.0" xmlns="http://www.w3.org/2000/svg"
 width="37.000000pt" height="36.000000pt" viewBox="0 0 37.000000 36.000000"
 preserveAspectRatio="xMidYMid meet">
<metadata>
Created by potrace 1.16, written by Peter Selinger 2001-2019
</metadata>
<g transform="translate(0.000000,36.000000) scale(0.100000,-0.100000)"
fill="#000000" stroke="none">
<path d="M179 353 l-1 -8 -1 -30 -2 -30 -50 -5 -50 -5 0 -45 0 -45 -20 -1 -20
-2 -17 -1 -18 -1 0 -24 0 -24 15 -12 15 -12 30 4 30 5 0 -31 0 -31 -10 -15 -9
-14 12 -8 12 -8 28 0 28 0 20 10 19 11 0 24 0 25 14 0 15 0 15 -16 16 -15 -6
-25 -6 -25 60 2 60 2 6 30 6 29 0 30 0 29 -33 -6 -34 -7 -17 17 -17 17 3 17 3
16 32 0 31 0 8 7 7 8 1 42 1 43 -57 -3 -58 -4 0 34 0 34 -12 12 -12 12 -18 0
-18 0 -1 -7z"/>
</g>
</svg>
