<?xml version="1.0" standalone="no"?>
<!DOCTYPE svg PUBLIC "-//W3C//DTD SVG 20010904//EN"
 "http://www.w3.org/TR/2001/REC-SVG-20010904/DTD/svg10.dtd">
<svg version="1.0" xmlns="http://www.w3.org/2000/svg"
 width="39.000000pt" height="38.000000pt" viewBox="0 0 39.000000 38.000000"
 preserveAspectRatio="xMidYMid meet">
<metadata>
Created by potrace 1.16, written by Peter Selinger 2001-2019
</metadata>
<g transform="translate(0.000000,38.000000) scale(0.100000,-0.100000)"
fill="#000000" stroke="none">
<path d="M175 368 l-4 -13 2 -25 2 -25 -50 -5 -50 -5 0 -45 0 -45 -20 -1 -20
-1 -17 -1 -18 -2 0 -33 0 -33 12 -12 12 -12 33 0 33 0 0 -15 0 -14 -12 -26
-12 -26 15 -10 14 -9 38 0 38 0 20 10 19 11 0 24 0 24 15 -5 15 -6 0 -34 0
-34 69 0 69 0 6 31 6 32 0 40 0 40 -35 -6 -35 -6 -17 17 -16 17 36 6 37 6 7 7
7 7 1 52 0 52 -57 -3 -58 -4 0 34 0 34 -12 12 -12 12 -28 0 -29 0 -4 -12z"/>
</g>
</svg>
