<?xml version="1.0" standalone="no"?>
<!DOCTYPE svg PUBLIC "-//W3C//DTD SVG 20010904//EN"
 "http://www.w3.org/TR/2001/REC-SVG-20010904/DTD/svg10.dtd">
<svg version="1.0" xmlns="http://www.w3.org/2000/svg"
 width="46.000000pt" height="45.000000pt" viewBox="0 0 46.000000 45.000000"
 preserveAspectRatio="xMidYMid meet">
<metadata>
Created by potrace 1.16, written by Peter Selinger 2001-2019
</metadata>
<g transform="translate(0.000000,45.000000) scale(0.100000,-0.100000)"
fill="#000000" stroke="none">
<path d="M220 435 l-12 -15 4 -25 5 -25 -16 -1 -16 -2 -47 3 -48 2 0 -45 0
-46 -12 -7 -12 -8 -30 0 -31 -1 -3 -18 -4 -19 6 -24 6 -24 25 0 24 0 10 -38
11 -37 0 -14 0 -13 55 4 55 5 0 -32 0 -31 12 -12 12 -12 29 0 28 0 20 10 19
11 0 18 0 19 16 6 16 6 23 0 23 0 10 27 10 28 6 26 6 27 20 5 20 5 0 47 0 46
-27 -3 -28 -3 -10 43 -9 44 -21 -5 -20 -5 -32 -7 -33 -7 6 31 6 31 -16 25 -16
25 -14 0 -14 0 -12 -15z"/>
</g>
</svg>
