<?xml version="1.0" standalone="no"?>
<!DOCTYPE svg PUBLIC "-//W3C//DTD SVG 20010904//EN"
 "http://www.w3.org/TR/2001/REC-SVG-20010904/DTD/svg10.dtd">
<svg version="1.0" xmlns="http://www.w3.org/2000/svg"
 width="35.000000pt" height="42.000000pt" viewBox="0 0 35.000000 42.000000"
 preserveAspectRatio="xMidYMid meet">
<metadata>
Created by potrace 1.16, written by Peter Selinger 2001-2019
</metadata>
<g transform="translate(0.000000,42.000000) scale(0.100000,-0.100000)"
fill="#000000" stroke="none">
<path d="M174 407 l-5 -13 3 -24 3 -25 -47 2 -47 1 -3 -46 -3 -47 -35 0 -35 0
-3 -19 -4 -18 11 -11 11 -11 33 -1 32 0 0 -40 -1 -40 -7 -20 -7 -20 45 3 45 4
0 -29 0 -29 12 -12 12 -12 22 0 23 0 16 16 16 16 -6 29 -7 29 50 0 49 0 -4 28
-4 27 -5 24 -5 23 -21 -6 -22 -5 -13 11 -13 10 0 26 0 25 34 -6 34 -5 11 11
11 11 0 38 0 38 -56 0 -56 0 5 22 6 21 -10 19 -10 18 -25 0 -25 0 -5 -13z"/>
</g>
</svg>
