<?xml version="1.0" standalone="no"?>
<!DOCTYPE svg PUBLIC "-//W3C//DTD SVG 20010904//EN"
 "http://www.w3.org/TR/2001/REC-SVG-20010904/DTD/svg10.dtd">
<svg version="1.0" xmlns="http://www.w3.org/2000/svg"
 width="44.000000pt" height="44.000000pt" viewBox="0 0 44.000000 44.000000"
 preserveAspectRatio="xMidYMid meet">
<metadata>
Created by potrace 1.16, written by Peter Selinger 2001-2019
</metadata>
<g transform="translate(0.000000,44.000000) scale(0.100000,-0.100000)"
fill="#000000" stroke="none">
<path d="M177 433 l-7 -6 0 -39 0 -39 -50 7 -50 7 0 -56 0 -55 -20 5 -20 5
-15 -12 -15 -12 0 -29 0 -29 15 0 14 0 10 -19 10 -18 7 -42 7 -41 6 0 6 0 38
9 37 9 0 -23 0 -24 16 -15 15 -16 27 0 28 0 17 20 17 20 0 25 0 25 47 -7 46
-6 -7 41 -6 42 35 0 34 0 11 20 11 21 -3 27 -3 27 -37 3 -38 3 0 46 0 45 -50
-7 -50 -7 0 32 0 31 -10 20 -11 19 -28 0 -28 0 -6 -7z"/>
</g>
</svg>
