<?xml version="1.0" standalone="no"?>
<!DOCTYPE svg PUBLIC "-//W3C//DTD SVG 20010904//EN"
 "http://www.w3.org/TR/2001/REC-SVG-20010904/DTD/svg10.dtd">
<svg version="1.0" xmlns="http://www.w3.org/2000/svg"
 width="37.000000pt" height="44.000000pt" viewBox="0 0 37.000000 44.000000"
 preserveAspectRatio="xMidYMid meet">
<metadata>
Created by potrace 1.16, written by Peter Selinger 2001-2019
</metadata>
<g transform="translate(0.000000,44.000000) scale(0.100000,-0.100000)"
fill="#000000" stroke="none">
<path d="M127 433 l-7 -6 0 -39 0 -39 -57 3 -58 3 0 -55 0 -55 30 -1 31 0 12
-8 12 -7 0 -10 0 -9 -21 0 -20 0 -25 -55 -24 -56 0 -14 0 -15 44 0 45 0 8 -12
7 -13 1 -20 0 -20 35 -3 34 -4 13 18 13 18 0 23 0 24 48 -3 47 -3 -1 43 -1 42
16 0 17 0 22 16 23 16 -3 31 -3 32 -30 5 -30 5 -3 40 -3 40 -11 13 -11 12 -43
11 -44 11 0 24 0 24 -28 0 -29 0 -6 -7z"/>
</g>
</svg>
