<?xml version="1.0" standalone="no"?>
<!DOCTYPE svg PUBLIC "-//W3C//DTD SVG 20010904//EN"
 "http://www.w3.org/TR/2001/REC-SVG-20010904/DTD/svg10.dtd">
<svg version="1.0" xmlns="http://www.w3.org/2000/svg"
 width="30.000000pt" height="31.000000pt" viewBox="0 0 30.000000 31.000000"
 preserveAspectRatio="xMidYMid meet">
<metadata>
Created by potrace 1.16, written by Peter Selinger 2001-2019
</metadata>
<g transform="translate(0.000000,31.000000) scale(0.100000,-0.100000)"
fill="#000000" stroke="none">
<path d="M7 258 l6 -53 10 -13 10 -13 21 3 21 3 3 -23 4 -23 -21 -6 -21 -5
-10 -37 -10 -36 0 -17 0 -18 39 0 39 0 16 6 16 6 0 35 0 34 18 -3 17 -3 3 -48
3 -47 33 0 33 0 32 11 31 11 0 14 0 13 -11 28 -11 28 -11 23 -10 22 -15 0 -14
0 5 13 4 12 32 -3 32 -3 -3 68 -3 68 -147 3 -147 3 6 -53z"/>
</g>
</svg>
