<?xml version="1.0" standalone="no"?>
<!DOCTYPE svg PUBLIC "-//W3C//DTD SVG 20010904//EN"
 "http://www.w3.org/TR/2001/REC-SVG-20010904/DTD/svg10.dtd">
<svg version="1.0" xmlns="http://www.w3.org/2000/svg"
 width="28.000000pt" height="29.000000pt" viewBox="0 0 28.000000 29.000000"
 preserveAspectRatio="xMidYMid meet">
<metadata>
Created by potrace 1.16, written by Peter Selinger 2001-2019
</metadata>
<g transform="translate(0.000000,29.000000) scale(0.100000,-0.100000)"
fill="#000000" stroke="none">
<path d="M8 248 l4 -43 9 -10 9 -9 23 -1 22 0 3 -33 3 -34 -20 -5 -21 -5 -10
-37 -10 -36 0 -7 0 -8 33 0 32 0 14 9 14 9 -6 32 -7 31 33 -3 32 -3 3 -47 3
-48 23 0 23 0 32 11 31 11 0 4 0 3 -11 28 -11 28 -11 23 -11 23 -14 -6 -13 -5
3 28 3 27 33 -2 33 -1 -3 56 -3 57 -135 3 -136 3 4 -43z"/>
</g>
</svg>
