<?xml version="1.0" standalone="no"?>
<!DOCTYPE svg PUBLIC "-//W3C//DTD SVG 20010904//EN"
 "http://www.w3.org/TR/2001/REC-SVG-20010904/DTD/svg10.dtd">
<svg version="1.0" xmlns="http://www.w3.org/2000/svg"
 width="44.000000pt" height="44.000000pt" viewBox="0 0 44.000000 44.000000"
 preserveAspectRatio="xMidYMid meet">
<metadata>
Created by potrace 1.16, written by Peter Selinger 2001-2019
</metadata>
<g transform="translate(0.000000,44.000000) scale(0.100000,-0.100000)"
fill="#000000" stroke="none">
<path d="M182 422 l3 -19 -14 -16 -13 -17 -39 0 -38 0 -3 -47 -3 -48 -38 -3
-37 -3 0 -29 0 -28 16 -6 16 -6 30 0 31 0 -7 -55 -6 -55 47 0 48 0 0 -37 0
-37 28 -10 28 -10 27 15 27 15 3 38 3 38 25 -6 25 -7 15 16 16 15 -11 32 -11
31 0 3 0 3 43 3 42 3 3 47 3 47 -33 3 -33 3 -3 35 -4 35 -9 11 -10 12 -44 11
-45 11 0 15 0 15 -41 0 -40 0 3 -18z"/>
</g>
</svg>
