<?xml version="1.0" standalone="no"?>
<!DOCTYPE svg PUBLIC "-//W3C//DTD SVG 20010904//EN"
 "http://www.w3.org/TR/2001/REC-SVG-20010904/DTD/svg10.dtd">
<svg version="1.0" xmlns="http://www.w3.org/2000/svg"
 width="42.000000pt" height="42.000000pt" viewBox="0 0 42.000000 42.000000"
 preserveAspectRatio="xMidYMid meet">
<metadata>
Created by potrace 1.16, written by Peter Selinger 2001-2019
</metadata>
<g transform="translate(0.000000,42.000000) scale(0.100000,-0.100000)"
fill="#000000" stroke="none">
<path d="M187 405 l5 -16 -17 -19 -18 -20 -38 0 -38 0 -3 -47 -3 -48 -38 -3
-37 -3 0 -19 0 -20 23 -5 22 -5 20 3 20 2 0 -57 -1 -58 49 0 48 0 -7 -35 -6
-34 26 -12 25 -12 26 17 26 17 -3 32 -3 32 30 0 30 0 11 10 12 10 -9 23 -9 23
0 14 0 14 43 3 42 3 3 39 3 39 -29 -6 -30 -6 -6 15 -6 16 0 28 0 28 -12 10
-13 10 -42 11 -43 12 0 14 0 15 -30 0 -29 0 6 -15z"/>
</g>
</svg>
