<?xml version="1.0" standalone="no"?>
<!DOCTYPE svg PUBLIC "-//W3C//DTD SVG 20010904//EN"
 "http://www.w3.org/TR/2001/REC-SVG-20010904/DTD/svg10.dtd">
<svg version="1.0" xmlns="http://www.w3.org/2000/svg"
 width="43.000000pt" height="38.000000pt" viewBox="0 0 43.000000 38.000000"
 preserveAspectRatio="xMidYMid meet">
<metadata>
Created by potrace 1.16, written by Peter Selinger 2001-2019
</metadata>
<g transform="translate(0.000000,38.000000) scale(0.100000,-0.100000)"
fill="#000000" stroke="none">
<path d="M259 373 l-1 -8 1 -17 2 -17 -11 -21 -11 -20 -31 0 -30 0 5 29 6 30
-28 6 -28 6 -26 -10 -27 -11 0 -22 0 -23 -9 -13 -8 -14 -19 2 -19 2 -12 -1
-13 -1 0 -28 0 -28 12 -12 12 -12 18 0 17 0 7 -50 7 -50 48 0 49 0 0 -28 0
-29 19 -17 19 -18 24 4 23 3 3 30 4 30 11 7 12 8 26 0 27 0 10 28 11 27 6 33
7 32 29 0 29 0 0 31 0 31 -22 -5 -21 -6 -19 10 -18 10 0 43 0 44 -27 6 -28 7
-17 5 -18 5 -1 -8z"/>
</g>
</svg>
