<?xml version="1.0" standalone="no"?>
<!DOCTYPE svg PUBLIC "-//W3C//DTD SVG 20010904//EN"
 "http://www.w3.org/TR/2001/REC-SVG-20010904/DTD/svg10.dtd">
<svg version="1.0" xmlns="http://www.w3.org/2000/svg"
 width="45.000000pt" height="40.000000pt" viewBox="0 0 45.000000 40.000000"
 preserveAspectRatio="xMidYMid meet">
<metadata>
Created by potrace 1.16, written by Peter Selinger 2001-2019
</metadata>
<g transform="translate(0.000000,40.000000) scale(0.100000,-0.100000)"
fill="#000000" stroke="none">
<path d="M254 385 l-6 -14 7 -10 6 -11 -11 -20 -11 -20 -19 0 -19 0 5 29 6 29
-31 7 -31 7 -31 -7 -30 -7 -4 -11 -3 -12 -6 -28 -7 -28 -18 6 -18 5 -17 -6
-16 -6 0 -37 0 -37 12 -12 12 -12 18 0 17 0 7 -50 7 -50 48 0 49 0 0 -28 0
-29 19 -17 19 -17 34 3 33 3 3 30 4 30 11 7 12 8 26 0 27 0 10 27 11 28 6 33
7 32 29 0 29 0 0 39 0 40 -37 3 -38 3 -3 46 -3 47 -44 11 -44 11 -11 0 -11 0
-5 -15z"/>
</g>
</svg>
