<?xml version="1.0" standalone="no"?>
<!DOCTYPE svg PUBLIC "-//W3C//DTD SVG 20010904//EN"
 "http://www.w3.org/TR/2001/REC-SVG-20010904/DTD/svg10.dtd">
<svg version="1.0" xmlns="http://www.w3.org/2000/svg"
 width="37.000000pt" height="38.000000pt" viewBox="0 0 37.000000 38.000000"
 preserveAspectRatio="xMidYMid meet">
<metadata>
Created by potrace 1.16, written by Peter Selinger 2001-2019
</metadata>
<g transform="translate(0.000000,38.000000) scale(0.100000,-0.100000)"
fill="#000000" stroke="none">
<path d="M264 347 l6 -32 -17 -11 -18 -11 -15 6 -15 6 0 24 0 25 -30 8 -30 8
-32 -6 -33 -6 0 -39 0 -39 -29 0 -29 0 -11 -14 -12 -15 3 -33 3 -33 31 -3 32
-3 6 -22 6 -22 0 -33 0 -33 34 6 34 7 20 -11 21 -11 3 -27 3 -28 27 -3 27 -3
21 11 20 11 0 39 0 39 35 -6 35 -6 4 14 5 14 -7 35 -8 35 -32 3 -32 3 0 35 0
34 40 0 40 0 0 54 0 54 -22 6 -23 6 -34 0 -33 0 6 -33z"/>
</g>
</svg>
