<?xml version="1.0" standalone="no"?>
<!DOCTYPE svg PUBLIC "-//W3C//DTD SVG 20010904//EN"
 "http://www.w3.org/TR/2001/REC-SVG-20010904/DTD/svg10.dtd">
<svg version="1.0" xmlns="http://www.w3.org/2000/svg"
 width="27.000000pt" height="27.000000pt" viewBox="0 0 27.000000 27.000000"
 preserveAspectRatio="xMidYMid meet">
<metadata>
Created by potrace 1.16, written by Peter Selinger 2001-2019
</metadata>
<g transform="translate(0.000000,27.000000) scale(0.100000,-0.100000)"
fill="#000000" stroke="none">
<path d="M17 263 l-18 -5 3 -36 3 -37 14 3 13 3 19 -6 19 -6 0 -29 0 -28 -6
-16 -6 -15 -13 5 -14 6 -10 -39 -11 -38 0 -12 0 -13 31 0 30 0 21 11 20 11 -6
28 -5 28 15 6 16 6 16 -9 17 -10 0 -28 0 -28 38 -6 38 -6 5 9 5 8 9 -5 8 -5
-5 42 -6 43 -10 13 -9 12 -14 0 -14 0 0 24 0 25 28 3 27 3 3 43 3 42 -3 0 -3
-1 -50 -13 -50 -13 0 -14 0 -14 -10 -7 -10 -8 -22 0 -22 0 -6 20 -6 20 6 9 5
10 -7 4 -8 4 -25 5 -25 5 -18 -4z"/>
</g>
</svg>
