<?xml version="1.0" standalone="no"?>
<!DOCTYPE svg PUBLIC "-//W3C//DTD SVG 20010904//EN"
 "http://www.w3.org/TR/2001/REC-SVG-20010904/DTD/svg10.dtd">
<svg version="1.0" xmlns="http://www.w3.org/2000/svg"
 width="29.000000pt" height="29.000000pt" viewBox="0 0 29.000000 29.000000"
 preserveAspectRatio="xMidYMid meet">
<metadata>
Created by potrace 1.16, written by Peter Selinger 2001-2019
</metadata>
<g transform="translate(0.000000,29.000000) scale(0.100000,-0.100000)"
fill="#000000" stroke="none">
<path d="M17 283 l-18 -5 3 -46 3 -47 20 -1 20 -2 13 -1 12 -1 0 -26 0 -26
-20 -5 -20 -5 -10 -37 -10 -36 0 -22 0 -23 41 0 40 0 20 10 19 11 0 29 0 30
14 0 15 0 3 -32 3 -33 40 -7 40 -6 23 5 22 5 -6 52 -7 51 -10 13 -9 12 -14 0
-14 0 0 14 0 15 28 3 27 3 3 53 3 52 -13 0 -13 -1 -49 -13 -49 -13 -8 -21 -8
-22 -16 0 -15 0 -1 13 -1 12 -2 20 -1 19 -25 7 -25 7 -15 0 -15 0 -18 -5z"/>
</g>
</svg>
