<?xml version="1.0" standalone="no"?>
<!DOCTYPE svg PUBLIC "-//W3C//DTD SVG 20010904//EN"
 "http://www.w3.org/TR/2001/REC-SVG-20010904/DTD/svg10.dtd">
<svg version="1.0" xmlns="http://www.w3.org/2000/svg"
 width="36.000000pt" height="38.000000pt" viewBox="0 0 36.000000 38.000000"
 preserveAspectRatio="xMidYMid meet">
<metadata>
Created by potrace 1.16, written by Peter Selinger 2001-2019
</metadata>
<g transform="translate(0.000000,38.000000) scale(0.100000,-0.100000)"
fill="#000000" stroke="none">
<path d="M92 373 l-23 -5 3 -46 3 -47 -25 -1 -25 -1 -12 -1 -13 -2 0 -31 0
-31 20 -5 20 -5 10 -37 10 -36 0 -22 0 -22 55 6 55 6 0 -35 0 -36 15 -12 15
-12 25 6 24 6 12 21 11 21 -5 19 -5 19 44 0 44 0 0 38 0 37 -6 23 -6 22 -29 0
-30 0 -5 15 -6 15 12 15 12 15 35 0 34 0 -7 48 -7 47 -3 4 -3 3 -48 -8 -48 -9
-3 -23 -3 -22 -25 0 -24 0 0 29 0 29 -22 6 -23 6 -15 -1 -15 -2 -23 -4z"/>
</g>
</svg>
