<?xml version="1.0" standalone="no"?>
<!DOCTYPE svg PUBLIC "-//W3C//DTD SVG 20010904//EN"
 "http://www.w3.org/TR/2001/REC-SVG-20010904/DTD/svg10.dtd">
<svg version="1.0" xmlns="http://www.w3.org/2000/svg"
 width="34.000000pt" height="36.000000pt" viewBox="0 0 34.000000 36.000000"
 preserveAspectRatio="xMidYMid meet">
<metadata>
Created by potrace 1.16, written by Peter Selinger 2001-2019
</metadata>
<g transform="translate(0.000000,36.000000) scale(0.100000,-0.100000)"
fill="#000000" stroke="none">
<path d="M93 353 l-23 -4 3 -47 2 -47 -25 -2 -25 -1 -12 -1 -13 -1 0 -21 0
-21 20 -5 20 -5 11 -42 12 -41 -1 -15 0 -15 56 0 57 0 -3 -28 -3 -29 12 -14
11 -14 9 0 9 0 20 20 20 20 -6 25 -6 25 46 0 46 0 0 28 0 27 -6 22 -6 22 -32
3 -31 3 -3 23 -4 23 12 15 12 14 34 0 33 0 -6 38 -6 37 -2 3 -2 2 -39 -8 -39
-8 0 -19 0 -20 -40 0 -40 0 3 26 2 27 -22 6 -23 6 -5 -1 -5 -2 -22 -4z"/>
</g>
</svg>
