<?xml version="1.0" standalone="no"?>
<!DOCTYPE svg PUBLIC "-//W3C//DTD SVG 20010904//EN"
 "http://www.w3.org/TR/2001/REC-SVG-20010904/DTD/svg10.dtd">
<svg version="1.0" xmlns="http://www.w3.org/2000/svg"
 width="32.000000pt" height="43.000000pt" viewBox="0 0 32.000000 43.000000"
 preserveAspectRatio="xMidYMid meet">
<metadata>
Created by potrace 1.16, written by Peter Selinger 2001-2019
</metadata>
<g transform="translate(0.000000,43.000000) scale(0.100000,-0.100000)"
fill="#000000" stroke="none">
<path d="M120 395 l0 -35 -55 0 -56 0 3 -57 3 -58 35 -1 35 0 0 -10 0 -9 -42
-3 -43 -3 0 -70 0 -69 43 0 42 0 11 -8 11 -7 -1 -30 -1 -30 47 -3 47 -3 16 25
16 24 -3 19 -3 18 48 -3 47 -4 0 9 -1 8 -12 60 -13 60 -27 3 -27 3 0 8 0 8 27
-5 26 -5 14 18 13 19 0 48 0 48 -61 17 -62 17 -5 18 -4 18 -34 0 -34 0 0 -35z"/>
</g>
</svg>
