<?xml version="1.0" standalone="no"?>
<!DOCTYPE svg PUBLIC "-//W3C//DTD SVG 20010904//EN"
 "http://www.w3.org/TR/2001/REC-SVG-20010904/DTD/svg10.dtd">
<svg version="1.0" xmlns="http://www.w3.org/2000/svg"
 width="30.000000pt" height="36.000000pt" viewBox="0 0 30.000000 36.000000"
 preserveAspectRatio="xMidYMid meet">
<metadata>
Created by potrace 1.16, written by Peter Selinger 2001-2019
</metadata>
<g transform="translate(0.000000,36.000000) scale(0.100000,-0.100000)"
fill="#000000" stroke="none">
<path d="M107 354 l-7 -7 0 -29 0 -28 -50 0 -50 0 0 -31 0 -30 10 -20 11 -19
25 0 25 0 -3 -32 -3 -33 -21 3 -21 3 -7 -32 -6 -32 0 -29 0 -29 53 3 52 3 3
38 3 37 15 0 14 0 0 -46 0 -47 70 5 71 5 5 6 5 5 -19 57 -19 56 -9 9 -9 8 -20
4 -20 5 15 6 15 5 28 6 27 6 0 44 0 44 -6 16 -6 16 -32 0 -31 0 -11 8 -12 7
-3 20 -4 20 -35 3 -36 3 -7 -7z"/>
</g>
</svg>
