<?xml version="1.0" standalone="no"?>
<!DOCTYPE svg PUBLIC "-//W3C//DTD SVG 20010904//EN"
 "http://www.w3.org/TR/2001/REC-SVG-20010904/DTD/svg10.dtd">
<svg version="1.0" xmlns="http://www.w3.org/2000/svg"
 width="40.000000pt" height="42.000000pt" viewBox="0 0 40.000000 42.000000"
 preserveAspectRatio="xMidYMid meet">
<metadata>
Created by potrace 1.16, written by Peter Selinger 2001-2019
</metadata>
<g transform="translate(0.000000,42.000000) scale(0.100000,-0.100000)"
fill="#000000" stroke="none">
<path d="M195 410 l-6 -10 6 -20 6 -19 -23 -5 -23 -6 -35 -2 -35 -3 -3 -37 -3
-38 -34 0 -35 0 -6 -24 -6 -24 4 -23 3 -24 33 -3 32 -3 0 -50 0 -49 43 0 42 0
13 -8 13 -9 -7 -17 -7 -18 14 -9 14 -9 27 0 26 0 16 6 16 6 0 18 0 18 39 7 39
6 18 20 17 19 1 43 1 42 -50 5 -50 5 1 13 1 12 2 10 1 10 34 0 34 0 6 16 6 16
0 44 0 44 -42 0 -43 0 -11 8 -12 7 -3 20 -4 20 -32 3 -31 3 -7 -11z"/>
</g>
</svg>
