<?xml version="1.0" standalone="no"?>
<!DOCTYPE svg PUBLIC "-//W3C//DTD SVG 20010904//EN"
 "http://www.w3.org/TR/2001/REC-SVG-20010904/DTD/svg10.dtd">
<svg version="1.0" xmlns="http://www.w3.org/2000/svg"
 width="45.000000pt" height="37.000000pt" viewBox="0 0 45.000000 37.000000"
 preserveAspectRatio="xMidYMid meet">
<metadata>
Created by potrace 1.16, written by Peter Selinger 2001-2019
</metadata>
<g transform="translate(0.000000,37.000000) scale(0.100000,-0.100000)"
fill="#000000" stroke="none">
<path d="M67 316 l6 -55 -34 -3 -34 -3 -3 -35 -3 -35 23 -10 23 -10 9 -46 9
-47 51 2 51 1 -3 -32 -3 -32 27 -7 27 -7 26 9 26 9 3 44 3 43 16 -6 15 -6 22
-6 22 -5 11 13 11 13 4 35 3 35 28 3 27 3 11 21 11 20 -6 24 -6 24 -30 0 -29
0 -11 21 -11 20 6 30 7 29 -155 0 -156 0 6 -54z"/>
</g>
</svg>
