<?xml version="1.0" standalone="no"?>
<!DOCTYPE svg PUBLIC "-//W3C//DTD SVG 20010904//EN"
 "http://www.w3.org/TR/2001/REC-SVG-20010904/DTD/svg10.dtd">
<svg version="1.0" xmlns="http://www.w3.org/2000/svg"
 width="43.000000pt" height="35.000000pt" viewBox="0 0 43.000000 35.000000"
 preserveAspectRatio="xMidYMid meet">
<metadata>
Created by potrace 1.16, written by Peter Selinger 2001-2019
</metadata>
<g transform="translate(0.000000,35.000000) scale(0.100000,-0.100000)"
fill="#000000" stroke="none">
<path d="M68 291 l4 -59 -34 1 -33 2 -3 -27 -3 -28 13 5 14 6 11 -23 11 -23
12 -32 12 -32 47 -3 46 -3 -3 -32 -2 -33 24 -6 24 -6 22 12 22 12 -5 39 -5 39
21 -1 22 0 20 -8 20 -9 13 10 12 10 0 28 0 28 6 15 5 14 24 -4 23 -5 11 20 11
21 -6 15 -6 16 -29 0 -28 0 -12 21 -11 21 4 29 5 29 -141 0 -141 0 3 -59z"/>
</g>
</svg>
