<?xml version="1.0" standalone="no"?>
<!DOCTYPE svg PUBLIC "-//W3C//DTD SVG 20010904//EN"
 "http://www.w3.org/TR/2001/REC-SVG-20010904/DTD/svg10.dtd">
<svg version="1.0" xmlns="http://www.w3.org/2000/svg"
 width="35.000000pt" height="28.000000pt" viewBox="0 0 35.000000 28.000000"
 preserveAspectRatio="xMidYMid meet">
<metadata>
Created by potrace 1.16, written by Peter Selinger 2001-2019
</metadata>
<g transform="translate(0.000000,28.000000) scale(0.100000,-0.100000)"
fill="#000000" stroke="none">
<path d="M240 251 l0 -30 -11 -6 -10 -7 -23 6 -23 6 1 22 1 23 -47 3 -48 3 0
-31 0 -31 -11 -20 -10 -20 -27 3 -27 3 0 -20 0 -20 38 -3 37 -3 1 -17 1 -17
-2 -30 -1 -30 -5 -16 -4 -16 32 4 33 4 24 5 23 5 -4 24 -5 25 19 6 19 6 25
-25 25 -25 28 -4 28 -4 11 4 10 3 -15 37 -15 37 -15 12 -15 11 4 24 3 23 20 0
20 1 13 7 12 8 0 39 0 38 -16 6 -16 6 -39 0 -39 0 0 -29z"/>
</g>
</svg>
