<?xml version="1.0" standalone="no"?>
<!DOCTYPE svg PUBLIC "-//W3C//DTD SVG 20010904//EN"
 "http://www.w3.org/TR/2001/REC-SVG-20010904/DTD/svg10.dtd">
<svg version="1.0" xmlns="http://www.w3.org/2000/svg"
 width="37.000000pt" height="30.000000pt" viewBox="0 0 37.000000 30.000000"
 preserveAspectRatio="xMidYMid meet">
<metadata>
Created by potrace 1.16, written by Peter Selinger 2001-2019
</metadata>
<g transform="translate(0.000000,30.000000) scale(0.100000,-0.100000)"
fill="#000000" stroke="none">
<path d="M238 268 l-3 -33 -15 0 -14 0 -6 25 -6 25 -57 3 -57 3 0 -33 0 -33
-10 -15 -9 -14 -28 -1 -28 0 0 -30 0 -30 39 -3 39 -3 -6 -65 -6 -64 42 6 42 5
23 5 22 4 0 25 0 24 8 5 8 4 23 -24 23 -24 17 0 16 0 20 -5 20 -5 14 9 14 9
-18 46 -18 47 -15 8 -15 9 6 16 6 16 16 -6 15 -6 15 12 15 12 0 48 0 48 -16 6
-16 6 -48 0 -49 0 -3 -32z"/>
</g>
</svg>
