<?xml version="1.0" standalone="no"?>
<!DOCTYPE svg PUBLIC "-//W3C//DTD SVG 20010904//EN"
 "http://www.w3.org/TR/2001/REC-SVG-20010904/DTD/svg10.dtd">
<svg version="1.0" xmlns="http://www.w3.org/2000/svg"
 width="40.000000pt" height="28.000000pt" viewBox="0 0 40.000000 28.000000"
 preserveAspectRatio="xMidYMid meet">
<metadata>
Created by potrace 1.16, written by Peter Selinger 2001-2019
</metadata>
<g transform="translate(0.000000,28.000000) scale(0.100000,-0.100000)"
fill="#000000" stroke="none">
<path d="M88 273 l-18 -4 0 -39 0 -39 -12 -8 -13 -7 -20 -1 -20 0 -3 -23 -4
-24 15 -11 15 -12 16 -37 15 -38 -11 0 -10 0 10 -13 11 -12 58 5 58 5 -2 31
-3 32 15 12 14 12 13 -9 13 -8 0 -19 0 -19 42 -12 42 -13 6 6 5 5 0 38 0 38
38 3 37 3 0 25 0 25 -30 5 -30 5 -3 48 -3 47 -27 -6 -27 -6 -16 -4 -17 -5 2
-17 1 -17 -40 0 -40 0 -3 33 -3 32 -27 -1 -27 -1 -17 -5z"/>
</g>
</svg>
