<?xml version="1.0" standalone="no"?>
<!DOCTYPE svg PUBLIC "-//W3C//DTD SVG 20010904//EN"
 "http://www.w3.org/TR/2001/REC-SVG-20010904/DTD/svg10.dtd">
<svg version="1.0" xmlns="http://www.w3.org/2000/svg"
 width="35.000000pt" height="27.000000pt" viewBox="0 0 35.000000 27.000000"
 preserveAspectRatio="xMidYMid meet">
<metadata>
Created by potrace 1.16, written by Peter Selinger 2001-2019
</metadata>
<g transform="translate(0.000000,27.000000) scale(0.100000,-0.100000)"
fill="#000000" stroke="none">
<path d="M88 263 l-18 -4 0 -32 0 -32 -8 -11 -7 -12 -25 -3 -25 -4 -3 -27 -3
-28 15 0 15 0 10 -18 9 -17 7 -38 7 -38 52 3 51 3 3 33 3 33 22 -3 21 -3 6
-25 6 -25 54 -7 55 -6 2 1 2 2 6 51 7 50 -34 -4 -33 -4 -19 20 -18 20 22 22
22 22 23 -4 23 -5 -6 41 -5 41 -1 1 -1 1 -48 -14 -47 -14 6 -10 6 -10 -12 -14
-12 -15 -18 0 -17 0 -18 20 -17 19 4 26 5 25 -26 -1 -26 -1 -17 -5z"/>
</g>
</svg>
