<?xml version="1.0" standalone="no"?>
<!DOCTYPE svg PUBLIC "-//W3C//DTD SVG 20010904//EN"
 "http://www.w3.org/TR/2001/REC-SVG-20010904/DTD/svg10.dtd">
<svg version="1.0" xmlns="http://www.w3.org/2000/svg"
 width="37.000000pt" height="29.000000pt" viewBox="0 0 37.000000 29.000000"
 preserveAspectRatio="xMidYMid meet">
<metadata>
Created by potrace 1.16, written by Peter Selinger 2001-2019
</metadata>
<g transform="translate(0.000000,29.000000) scale(0.100000,-0.100000)"
fill="#000000" stroke="none">
<path d="M88 283 l-18 -4 0 -32 0 -32 -8 -11 -7 -12 -25 -3 -25 -4 -3 -38 -3
-37 15 0 15 0 10 -18 9 -17 7 -38 7 -38 62 3 61 3 3 33 3 33 12 -4 11 -3 6
-25 6 -24 63 -8 64 -8 3 4 4 4 6 62 7 62 -35 -6 -34 -7 -14 17 -14 17 18 14
19 14 24 -6 24 -6 -7 53 -7 54 -2 3 -3 3 -56 -16 -56 -16 0 -19 0 -19 -11 -6
-10 -7 -20 18 -20 18 6 28 7 28 -39 -1 -38 -1 -17 -5z"/>
</g>
</svg>
