<?xml version="1.0" standalone="no"?>
<!DOCTYPE svg PUBLIC "-//W3C//DTD SVG 20010904//EN"
 "http://www.w3.org/TR/2001/REC-SVG-20010904/DTD/svg10.dtd">
<svg version="1.0" xmlns="http://www.w3.org/2000/svg"
 width="36.000000pt" height="35.000000pt" viewBox="0 0 36.000000 35.000000"
 preserveAspectRatio="xMidYMid meet">
<metadata>
Created by potrace 1.16, written by Peter Selinger 2001-2019
</metadata>
<g transform="translate(0.000000,35.000000) scale(0.100000,-0.100000)"
fill="#000000" stroke="none">
<path d="M93 343 l-13 -5 0 -44 0 -44 -27 -6 -28 -6 -13 -4 -13 -4 3 -17 4
-18 16 3 16 3 9 -13 8 -13 15 -45 15 -45 42 -3 42 -3 3 -37 3 -37 27 -3 27 -3
11 22 12 21 -4 30 -5 30 36 -6 36 -5 20 -3 20 -3 3 52 3 52 -33 3 -33 3 -3 23
-3 22 26 0 25 0 10 26 10 25 0 25 0 24 -32 0 -33 0 -21 -6 -22 -6 -6 -29 -5
-29 -24 0 -23 0 -12 12 -12 12 0 28 0 28 -32 -1 -33 -1 -12 -5z"/>
</g>
</svg>
