<?xml version="1.0" standalone="no"?>
<!DOCTYPE svg PUBLIC "-//W3C//DTD SVG 20010904//EN"
 "http://www.w3.org/TR/2001/REC-SVG-20010904/DTD/svg10.dtd">
<svg version="1.0" xmlns="http://www.w3.org/2000/svg"
 width="33.000000pt" height="35.000000pt" viewBox="0 0 33.000000 35.000000"
 preserveAspectRatio="xMidYMid meet">
<metadata>
Created by potrace 1.16, written by Peter Selinger 2001-2019
</metadata>
<g transform="translate(0.000000,35.000000) scale(0.100000,-0.100000)"
fill="#000000" stroke="none">
<path d="M88 343 l-18 -4 0 -24 0 -24 -10 -25 -10 -26 -25 0 -26 0 3 -22 3
-23 33 -3 34 -3 -4 -54 -3 -54 45 -3 44 -3 1 -35 0 -35 37 -3 37 -3 11 22 12
21 -5 25 -5 25 13 4 12 5 26 -10 27 -11 0 50 0 50 -30 0 -31 0 -5 15 -6 15 6
25 6 25 35 0 35 0 0 40 0 40 -27 -6 -28 -6 -18 -5 -17 -4 6 -10 6 -10 -12 -14
-12 -15 -29 0 -29 0 -2 13 -1 12 -1 25 -1 25 -30 2 -30 1 -17 -5z"/>
</g>
</svg>
