<?xml version="1.0" standalone="no"?>
<!DOCTYPE svg PUBLIC "-//W3C//DTD SVG 20010904//EN"
 "http://www.w3.org/TR/2001/REC-SVG-20010904/DTD/svg10.dtd">
<svg version="1.0" xmlns="http://www.w3.org/2000/svg"
 width="35.000000pt" height="37.000000pt" viewBox="0 0 35.000000 37.000000"
 preserveAspectRatio="xMidYMid meet">
<metadata>
Created by potrace 1.16, written by Peter Selinger 2001-2019
</metadata>
<g transform="translate(0.000000,37.000000) scale(0.100000,-0.100000)"
fill="#000000" stroke="none">
<path d="M88 363 l-18 -4 0 -24 0 -24 -10 -25 -10 -26 -25 0 -26 0 3 -32 3
-33 34 -3 34 -3 -6 -55 -6 -54 44 0 44 0 3 -37 3 -38 45 -3 44 -3 13 17 13 18
0 33 0 33 26 -10 25 -10 10 0 9 0 0 60 0 60 -29 0 -30 0 -6 10 -6 10 6 20 6
20 35 0 34 0 0 51 0 51 -37 -6 -38 -7 -17 -5 -17 -5 -3 -22 -3 -22 -22 -3 -23
-3 -1 13 -1 13 -1 25 -2 25 -40 2 -40 1 -17 -5z"/>
</g>
</svg>
