<?xml version="1.0" standalone="no"?>
<!DOCTYPE svg PUBLIC "-//W3C//DTD SVG 20010904//EN"
 "http://www.w3.org/TR/2001/REC-SVG-20010904/DTD/svg10.dtd">
<svg version="1.0" xmlns="http://www.w3.org/2000/svg"
 width="37.000000pt" height="30.000000pt" viewBox="0 0 37.000000 30.000000"
 preserveAspectRatio="xMidYMid meet">
<metadata>
Created by potrace 1.16, written by Peter Selinger 2001-2019
</metadata>
<g transform="translate(0.000000,30.000000) scale(0.100000,-0.100000)"
fill="#000000" stroke="none">
<path d="M36 293 l-18 -5 5 -44 5 -44 12 -15 12 -15 24 0 24 0 0 -8 0 -8 -12
-12 -12 -12 -38 0 -39 0 7 -62 7 -63 1 -1 1 -1 70 6 70 6 -2 38 -3 39 13 -5
12 -4 3 -31 3 -32 23 -6 23 -5 39 3 39 3 3 47 3 47 27 3 27 3 3 37 3 37 -28 3
-28 3 -9 48 -9 47 -55 0 -54 0 6 -24 6 -24 -15 -12 -15 -12 -14 5 -14 5 5 25
5 25 -10 5 -9 6 -39 5 -39 5 -19 -6z"/>
</g>
</svg>
