<?xml version="1.0" standalone="no"?>
<!DOCTYPE svg PUBLIC "-//W3C//DTD SVG 20010904//EN"
 "http://www.w3.org/TR/2001/REC-SVG-20010904/DTD/svg10.dtd">
<svg version="1.0" xmlns="http://www.w3.org/2000/svg"
 width="35.000000pt" height="28.000000pt" viewBox="0 0 35.000000 28.000000"
 preserveAspectRatio="xMidYMid meet">
<metadata>
Created by potrace 1.16, written by Peter Selinger 2001-2019
</metadata>
<g transform="translate(0.000000,28.000000) scale(0.100000,-0.100000)"
fill="#000000" stroke="none">
<path d="M38 273 l-18 -4 0 -22 0 -22 13 -25 13 -25 14 -1 15 -2 13 -1 12 -1
0 -18 0 -18 -12 -12 -12 -12 -39 0 -39 0 6 -22 6 -23 0 -30 0 -30 62 5 63 5
-3 38 -4 37 20 0 20 0 10 -13 11 -13 -5 -22 -6 -21 25 -6 25 -7 28 4 29 3 3
47 3 47 27 3 27 3 3 29 4 28 -14 -5 -13 -4 -17 8 -17 9 -7 45 -6 45 -43 0 -42
0 4 -23 5 -23 -16 -13 -15 -13 -23 4 -23 3 0 30 0 29 -25 7 -25 7 -10 0 -10 0
-17 -5z"/>
</g>
</svg>
