<?xml version="1.0" standalone="no"?>
<!DOCTYPE svg PUBLIC "-//W3C//DTD SVG 20010904//EN"
 "http://www.w3.org/TR/2001/REC-SVG-20010904/DTD/svg10.dtd">
<svg version="1.0" xmlns="http://www.w3.org/2000/svg"
 width="28.000000pt" height="29.000000pt" viewBox="0 0 28.000000 29.000000"
 preserveAspectRatio="xMidYMid meet">
<metadata>
Created by potrace 1.16, written by Peter Selinger 2001-2019
</metadata>
<g transform="translate(0.000000,29.000000) scale(0.100000,-0.100000)"
fill="#000000" stroke="none">
<path d="M13 283 l-13 -5 0 -43 0 -43 15 -12 15 -12 16 6 17 6 13 -17 12 -18
-14 -16 -15 -16 -23 4 -23 5 -7 -53 -7 -52 9 -9 9 -9 59 3 59 3 -1 37 -1 38
13 0 13 0 3 -22 3 -22 49 -14 48 -14 10 10 10 10 -7 46 -7 46 -24 0 -23 0 -6
10 -7 11 12 14 12 15 24 0 24 0 0 56 0 56 -22 -6 -23 -6 -27 -6 -28 -6 0 -19
0 -19 -28 0 -28 0 -12 12 -12 12 0 23 0 23 -37 -1 -38 -1 -12 -5z"/>
</g>
</svg>
