<?xml version="1.0" standalone="no"?>
<!DOCTYPE svg PUBLIC "-//W3C//DTD SVG 20010904//EN"
 "http://www.w3.org/TR/2001/REC-SVG-20010904/DTD/svg10.dtd">
<svg version="1.0" xmlns="http://www.w3.org/2000/svg"
 width="26.000000pt" height="27.000000pt" viewBox="0 0 26.000000 27.000000"
 preserveAspectRatio="xMidYMid meet">
<metadata>
Created by potrace 1.16, written by Peter Selinger 2001-2019
</metadata>
<g transform="translate(0.000000,27.000000) scale(0.100000,-0.100000)"
fill="#000000" stroke="none">
<path d="M13 263 l-13 -5 0 -33 0 -34 13 -8 12 -7 21 2 20 3 14 -25 13 -26
-18 -20 -19 -21 -22 5 -21 6 -6 -43 -6 -42 8 -8 8 -8 49 3 49 3 -3 38 -3 37
25 0 25 0 3 -22 3 -22 42 -12 43 -13 4 8 5 8 -6 36 -6 37 -8 -6 -9 -5 -20 11
-20 11 0 17 0 18 12 12 12 12 23 0 23 0 0 44 0 43 -40 -10 -40 -11 0 -18 0
-18 -38 0 -38 0 -12 12 -12 12 0 23 0 23 -27 -1 -28 -1 -12 -5z"/>
</g>
</svg>
