<?xml version="1.0" standalone="no"?>
<!DOCTYPE svg PUBLIC "-//W3C//DTD SVG 20010904//EN"
 "http://www.w3.org/TR/2001/REC-SVG-20010904/DTD/svg10.dtd">
<svg version="1.0" xmlns="http://www.w3.org/2000/svg"
 width="35.000000pt" height="27.000000pt" viewBox="0 0 35.000000 27.000000"
 preserveAspectRatio="xMidYMid meet">
<metadata>
Created by potrace 1.16, written by Peter Selinger 2001-2019
</metadata>
<g transform="translate(0.000000,27.000000) scale(0.100000,-0.100000)"
fill="#000000" stroke="none">
<path d="M117 262 l-28 -3 3 -47 3 -46 -42 3 -41 2 -7 -20 -6 -21 6 -10 7 -11
18 6 19 6 10 -19 10 -19 7 -42 7 -41 37 0 38 0 16 6 16 6 -6 23 -6 23 20 6 19
6 16 -6 16 -6 -5 -11 -4 -12 8 -11 7 -11 48 -6 48 -7 -4 18 -5 17 -6 28 -6 27
-20 0 -20 0 -6 25 -6 25 6 15 5 15 31 0 30 0 0 41 0 40 -17 -5 -18 -5 -27 -7
-27 -6 2 -22 2 -21 -32 -3 -33 -3 -1 13 -2 13 -1 24 -1 24 -25 6 -25 6 -28 -3z"/>
</g>
</svg>
