<?xml version="1.0" standalone="no"?>
<!DOCTYPE svg PUBLIC "-//W3C//DTD SVG 20010904//EN"
 "http://www.w3.org/TR/2001/REC-SVG-20010904/DTD/svg10.dtd">
<svg version="1.0" xmlns="http://www.w3.org/2000/svg"
 width="37.000000pt" height="29.000000pt" viewBox="0 0 37.000000 29.000000"
 preserveAspectRatio="xMidYMid meet">
<metadata>
Created by potrace 1.16, written by Peter Selinger 2001-2019
</metadata>
<g transform="translate(0.000000,29.000000) scale(0.100000,-0.100000)"
fill="#000000" stroke="none">
<path d="M116 283 l-28 -5 5 -44 5 -44 -44 0 -44 0 -6 -25 -6 -25 6 -15 5 -15
25 0 25 0 10 -37 11 -38 0 -17 0 -18 53 0 52 0 14 9 14 9 -5 20 -6 21 15 5 14
6 11 -30 10 -30 21 0 22 0 39 -7 39 -6 -7 39 -7 39 -5 18 -5 17 -19 0 -19 0
-6 20 -6 20 6 10 6 10 30 0 29 0 0 50 0 50 -11 0 -10 0 -45 -11 -44 -11 0 -24
0 -24 -20 0 -20 0 0 34 0 35 -7 4 -8 5 -30 4 -30 5 -29 -4z"/>
</g>
</svg>
