<?xml version="1.0" standalone="no"?>
<!DOCTYPE svg PUBLIC "-//W3C//DTD SVG 20010904//EN"
 "http://www.w3.org/TR/2001/REC-SVG-20010904/DTD/svg10.dtd">
<svg version="1.0" xmlns="http://www.w3.org/2000/svg"
 width="38.000000pt" height="30.000000pt" viewBox="0 0 38.000000 30.000000"
 preserveAspectRatio="xMidYMid meet">
<metadata>
Created by potrace 1.16, written by Peter Selinger 2001-2019
</metadata>
<g transform="translate(0.000000,30.000000) scale(0.100000,-0.100000)"
fill="#000000" stroke="none">
<path d="M98 293 l-18 -4 0 -37 0 -37 -10 -15 -9 -15 -31 3 -30 4 0 -31 0 -30
27 -3 28 -3 10 -55 10 -55 60 0 60 0 3 25 3 25 5 14 4 13 15 -12 14 -11 3 -32
3 -32 36 -3 35 -3 26 10 25 9 5 47 6 47 -5 19 -5 19 -34 0 -33 0 -6 10 -6 10
30 0 30 0 11 19 10 20 0 40 0 40 -34 6 -33 7 -24 -4 -24 -3 0 -25 0 -25 -8
-12 -8 -13 -25 0 -24 0 0 34 0 34 -22 6 -23 6 -15 -1 -15 -1 -17 -5z"/>
</g>
</svg>
