<?xml version="1.0" standalone="no"?>
<!DOCTYPE svg PUBLIC "-//W3C//DTD SVG 20010904//EN"
 "http://www.w3.org/TR/2001/REC-SVG-20010904/DTD/svg10.dtd">
<svg version="1.0" xmlns="http://www.w3.org/2000/svg"
 width="36.000000pt" height="28.000000pt" viewBox="0 0 36.000000 28.000000"
 preserveAspectRatio="xMidYMid meet">
<metadata>
Created by potrace 1.16, written by Peter Selinger 2001-2019
</metadata>
<g transform="translate(0.000000,28.000000) scale(0.100000,-0.100000)"
fill="#000000" stroke="none">
<path d="M98 273 l-18 -4 0 -35 0 -35 -11 -20 -10 -20 -30 6 -29 7 0 -21 0
-20 27 -3 28 -3 10 -55 10 -55 50 0 50 0 3 33 3 33 15 6 14 5 15 -12 15 -12 0
-30 0 -29 16 -6 16 -6 37 9 36 9 5 40 6 40 -4 17 -4 17 -37 3 -36 3 0 20 0 20
27 -3 27 -3 10 20 11 20 0 30 0 30 -35 7 -35 6 -14 -5 -14 -6 5 -20 5 -21 -12
-15 -12 -15 -34 0 -34 0 0 34 0 34 -22 6 -23 6 -5 -1 -5 -1 -17 -5z"/>
</g>
</svg>
