<?xml version="1.0" standalone="no"?>
<!DOCTYPE svg PUBLIC "-//W3C//DTD SVG 20010904//EN"
 "http://www.w3.org/TR/2001/REC-SVG-20010904/DTD/svg10.dtd">
<svg version="1.0" xmlns="http://www.w3.org/2000/svg"
 width="35.000000pt" height="28.000000pt" viewBox="0 0 35.000000 28.000000"
 preserveAspectRatio="xMidYMid meet">
<metadata>
Created by potrace 1.16, written by Peter Selinger 2001-2019
</metadata>
<g transform="translate(0.000000,28.000000) scale(0.100000,-0.100000)"
fill="#000000" stroke="none">
<path d="M17 274 l-7 -7 0 -24 0 -24 10 -20 11 -19 28 0 29 0 6 -16 6 -15 -11
-21 -11 -20 -23 5 -24 4 -5 -14 -6 -15 0 -28 0 -29 -10 -6 -10 -6 0 -7 0 -7
52 0 53 0 5 35 5 35 26 3 27 3 -2 -17 -1 -16 55 -19 55 -18 7 12 8 12 0 22 0
21 6 16 6 16 10 -6 9 -6 14 18 14 19 1 21 0 22 -14 11 -15 12 -18 -3 -18 -3
-5 40 -5 40 -126 3 -125 3 -7 -7z"/>
</g>
</svg>
