<?xml version="1.0" standalone="no"?>
<!DOCTYPE svg PUBLIC "-//W3C//DTD SVG 20010904//EN"
 "http://www.w3.org/TR/2001/REC-SVG-20010904/DTD/svg10.dtd">
<svg version="1.0" xmlns="http://www.w3.org/2000/svg"
 width="36.000000pt" height="36.000000pt" viewBox="0 0 36.000000 36.000000"
 preserveAspectRatio="xMidYMid meet">
<metadata>
Created by potrace 1.16, written by Peter Selinger 2001-2019
</metadata>
<g transform="translate(0.000000,36.000000) scale(0.100000,-0.100000)"
fill="#000000" stroke="none">
<path d="M123 352 l-11 -7 -4 -35 -3 -35 -52 -3 -53 -3 0 -50 0 -50 34 6 33 7
6 -16 6 -16 -5 -15 -6 -16 -18 6 -18 6 -6 -9 -5 -8 -7 -53 -7 -52 54 3 54 3 3
28 3 27 28 0 28 0 -1 -22 -1 -22 53 -12 52 -12 -6 48 -6 48 25 -5 25 -5 22 22
21 21 -3 27 -3 27 -25 1 -26 0 -12 8 -12 7 0 34 0 33 -59 -5 -60 -6 -3 48 -3
48 -10 4 -10 3 -12 -8z"/>
</g>
</svg>
