<?xml version="1.0" standalone="no"?>
<!DOCTYPE svg PUBLIC "-//W3C//DTD SVG 20010904//EN"
 "http://www.w3.org/TR/2001/REC-SVG-20010904/DTD/svg10.dtd">
<svg version="1.0" xmlns="http://www.w3.org/2000/svg"
 width="38.000000pt" height="38.000000pt" viewBox="0 0 38.000000 38.000000"
 preserveAspectRatio="xMidYMid meet">
<metadata>
Created by potrace 1.16, written by Peter Selinger 2001-2019
</metadata>
<g transform="translate(0.000000,38.000000) scale(0.100000,-0.100000)"
fill="#000000" stroke="none">
<path d="M123 372 l-11 -7 -4 -35 -3 -35 -52 -3 -53 -3 0 -61 0 -61 35 6 35 6
0 -15 0 -14 -19 0 -20 0 -5 -9 -6 -9 -7 -62 -6 -61 64 3 64 3 3 28 3 27 14 0
14 0 3 -22 3 -22 25 -6 25 -7 39 -7 39 -7 -6 45 -7 46 25 0 25 0 21 21 20 20
-3 37 -3 37 -35 5 -35 5 -3 38 -3 38 -59 -7 -59 -6 -3 48 -3 49 -20 3 -20 2
-12 -8z"/>
</g>
</svg>
