<?xml version="1.0" standalone="no"?>
<!DOCTYPE svg PUBLIC "-//W3C//DTD SVG 20010904//EN"
 "http://www.w3.org/TR/2001/REC-SVG-20010904/DTD/svg10.dtd">
<svg version="1.0" xmlns="http://www.w3.org/2000/svg"
 width="40.000000pt" height="45.000000pt" viewBox="0 0 40.000000 45.000000"
 preserveAspectRatio="xMidYMid meet">
<metadata>
Created by potrace 1.16, written by Peter Selinger 2001-2019
</metadata>
<g transform="translate(0.000000,45.000000) scale(0.100000,-0.100000)"
fill="#000000" stroke="none">
<path d="M217 443 l-7 -6 0 -39 0 -38 -60 0 -60 0 0 -39 0 -40 -37 -3 -38 -3
-9 -26 -9 -26 7 -27 7 -27 27 -5 28 -6 12 -45 12 -45 26 6 26 7 19 -6 19 -6 0
-29 0 -28 16 -6 16 -6 22 0 22 0 12 12 12 12 0 37 0 36 45 -10 44 -10 16 13
16 13 -3 46 -3 46 -40 5 -40 5 0 20 0 20 44 -3 44 -4 -6 51 -6 51 -6 10 -6 10
-32 0 -32 0 -21 6 -22 6 5 18 5 18 -11 21 -12 21 -18 0 -18 0 -6 -7z"/>
</g>
</svg>
