<?xml version="1.0" standalone="no"?>
<!DOCTYPE svg PUBLIC "-//W3C//DTD SVG 20010904//EN"
 "http://www.w3.org/TR/2001/REC-SVG-20010904/DTD/svg10.dtd">
<svg version="1.0" xmlns="http://www.w3.org/2000/svg"
 width="38.000000pt" height="43.000000pt" viewBox="0 0 38.000000 43.000000"
 preserveAspectRatio="xMidYMid meet">
<metadata>
Created by potrace 1.16, written by Peter Selinger 2001-2019
</metadata>
<g transform="translate(0.000000,43.000000) scale(0.100000,-0.100000)"
fill="#000000" stroke="none">
<path d="M214 415 l-6 -15 4 -30 5 -30 -11 -1 -11 -1 -52 2 -53 2 0 -46 0 -46
-32 7 -31 6 -14 -18 -13 -19 0 -15 0 -16 9 -14 9 -14 22 -1 23 -1 13 -46 14
-46 29 5 29 4 20 -11 19 -10 -4 -25 -5 -25 26 -7 26 -6 15 12 15 12 0 39 0 39
8 0 7 0 38 -11 38 -10 15 12 15 12 -3 36 -3 36 -32 0 -32 0 -11 11 -12 12 4
23 3 24 44 -2 43 -2 -6 41 -7 41 -5 9 -5 8 -32 0 -32 0 -23 7 -24 6 6 20 5 20
-10 19 -10 18 -10 0 -10 0 -5 -15z"/>
</g>
</svg>
