<?xml version="1.0" standalone="no"?>
<!DOCTYPE svg PUBLIC "-//W3C//DTD SVG 20010904//EN"
 "http://www.w3.org/TR/2001/REC-SVG-20010904/DTD/svg10.dtd">
<svg version="1.0" xmlns="http://www.w3.org/2000/svg"
 width="38.000000pt" height="35.000000pt" viewBox="0 0 38.000000 35.000000"
 preserveAspectRatio="xMidYMid meet">
<metadata>
Created by potrace 1.16, written by Peter Selinger 2001-2019
</metadata>
<g transform="translate(0.000000,35.000000) scale(0.100000,-0.100000)"
fill="#000000" stroke="none">
<path d="M210 329 l-11 -20 3 -22 3 -22 -60 0 -60 0 -3 -38 -3 -37 -27 2 -28
2 -12 -8 -12 -7 0 -29 0 -30 25 -16 25 -16 21 5 21 6 -4 -44 -5 -43 33 -7 34
-6 20 11 20 11 -6 24 -6 25 35 0 35 0 -2 -17 -1 -17 30 -9 30 -9 27 -8 27 -8
11 34 11 34 -3 22 -3 23 -33 0 -33 1 -9 13 -8 14 5 13 5 13 26 3 27 3 0 45 0
45 -55 11 -55 10 3 26 2 26 -15 5 -15 6 -10 -20z"/>
</g>
</svg>
