<?xml version="1.0" standalone="no"?>
<!DOCTYPE svg PUBLIC "-//W3C//DTD SVG 20010904//EN"
 "http://www.w3.org/TR/2001/REC-SVG-20010904/DTD/svg10.dtd">
<svg version="1.0" xmlns="http://www.w3.org/2000/svg"
 width="40.000000pt" height="37.000000pt" viewBox="0 0 40.000000 37.000000"
 preserveAspectRatio="xMidYMid meet">
<metadata>
Created by potrace 1.16, written by Peter Selinger 2001-2019
</metadata>
<g transform="translate(0.000000,37.000000) scale(0.100000,-0.100000)"
fill="#000000" stroke="none">
<path d="M210 351 l-10 -20 0 -23 0 -23 -57 0 -58 0 -3 -38 -3 -38 -19 6 -19
6 -21 -11 -20 -11 0 -39 0 -39 22 -15 22 -16 24 0 24 0 -7 -39 -7 -40 45 -6
45 -7 22 12 22 12 -5 24 -4 24 18 0 19 0 0 -14 0 -15 12 -7 11 -7 36 -8 36 -7
22 -7 22 -7 11 39 12 38 -4 30 -3 30 -37 3 -38 3 0 14 0 14 28 3 27 3 0 55 0
55 -52 9 -53 10 0 27 0 27 -16 6 -16 6 -8 0 -9 0 -11 -19z"/>
</g>
</svg>
