<?xml version="1.0" standalone="no"?>
<!DOCTYPE svg PUBLIC "-//W3C//DTD SVG 20010904//EN"
 "http://www.w3.org/TR/2001/REC-SVG-20010904/DTD/svg10.dtd">
<svg version="1.0" xmlns="http://www.w3.org/2000/svg"
 width="29.000000pt" height="35.000000pt" viewBox="0 0 29.000000 35.000000"
 preserveAspectRatio="xMidYMid meet">
<metadata>
Created by potrace 1.16, written by Peter Selinger 2001-2019
</metadata>
<g transform="translate(0.000000,35.000000) scale(0.100000,-0.100000)"
fill="#000000" stroke="none">
<path d="M43 343 l-23 -4 0 -29 0 -28 6 -16 6 -15 30 6 29 6 -3 -39 -3 -39
-44 -3 -43 -3 7 -32 7 -32 -1 -20 0 -20 45 3 44 4 15 -12 15 -12 -6 -23 -5
-22 18 -5 19 -5 23 9 23 8 -4 24 -5 24 39 6 39 6 11 -6 11 -7 -6 17 -7 18 0
118 0 118 -17 -3 -18 -4 -26 -5 -26 -6 1 -22 1 -23 -40 0 -40 0 1 30 1 30 -11
7 -11 8 -15 -2 -15 -1 -22 -4z"/>
</g>
</svg>
