<?xml version="1.0" standalone="no"?>
<!DOCTYPE svg PUBLIC "-//W3C//DTD SVG 20010904//EN"
 "http://www.w3.org/TR/2001/REC-SVG-20010904/DTD/svg10.dtd">
<svg version="1.0" xmlns="http://www.w3.org/2000/svg"
 width="42.000000pt" height="32.000000pt" viewBox="0 0 42.000000 32.000000"
 preserveAspectRatio="xMidYMid meet">
<metadata>
Created by potrace 1.16, written by Peter Selinger 2001-2019
</metadata>
<g transform="translate(0.000000,32.000000) scale(0.100000,-0.100000)"
fill="#000000" stroke="none">
<path d="M80 278 l0 -43 -9 -14 -9 -14 -31 6 -31 7 0 -25 0 -25 25 0 24 0 9
-17 9 -18 7 -37 7 -38 34 0 33 0 16 -6 16 -6 0 -24 0 -24 29 0 30 0 6 20 6 20
-6 21 -7 20 49 -3 48 -3 -4 54 -3 54 30 -6 30 -6 17 13 18 13 -6 17 -6 16 -33
-2 -33 -3 -3 48 -3 47 -45 0 -44 0 0 -23 0 -23 -13 -18 -13 -18 -20 4 -19 3
-1 25 0 26 -8 12 -7 12 -45 0 -44 0 0 -42z"/>
</g>
</svg>
