<?xml version="1.0" standalone="no"?>
<!DOCTYPE svg PUBLIC "-//W3C//DTD SVG 20010904//EN"
 "http://www.w3.org/TR/2001/REC-SVG-20010904/DTD/svg10.dtd">
<svg version="1.0" xmlns="http://www.w3.org/2000/svg"
 width="31.000000pt" height="37.000000pt" viewBox="0 0 31.000000 37.000000"
 preserveAspectRatio="xMidYMid meet">
<metadata>
Created by potrace 1.16, written by Peter Selinger 2001-2019
</metadata>
<g transform="translate(0.000000,37.000000) scale(0.100000,-0.100000)"
fill="#000000" stroke="none">
<path d="M143 364 l-12 -5 5 -29 6 -28 -20 -11 -21 -11 -40 0 -41 0 0 -37 0
-38 9 -14 9 -14 31 6 31 7 0 -25 0 -25 -24 -6 -24 -6 -23 4 -24 3 -3 -35 -3
-36 13 -24 13 -25 56 -3 56 -3 -1 43 -1 43 22 3 22 3 11 -20 11 -21 -3 -27 -3
-27 18 -4 19 -4 34 7 35 6 -3 62 -3 62 -30 0 -30 0 0 20 0 20 35 5 35 5 -1 18
-1 17 -1 34 -2 33 -45 1 -46 1 -10 7 -11 6 6 24 6 23 -19 11 -20 10 -3 -1 -3
-1 -12 -4z"/>
</g>
</svg>
