<?xml version="1.0" standalone="no"?>
<!DOCTYPE svg PUBLIC "-//W3C//DTD SVG 20010904//EN"
 "http://www.w3.org/TR/2001/REC-SVG-20010904/DTD/svg10.dtd">
<svg version="1.0" xmlns="http://www.w3.org/2000/svg"
 width="33.000000pt" height="39.000000pt" viewBox="0 0 33.000000 39.000000"
 preserveAspectRatio="xMidYMid meet">
<metadata>
Created by potrace 1.16, written by Peter Selinger 2001-2019
</metadata>
<g transform="translate(0.000000,39.000000) scale(0.100000,-0.100000)"
fill="#000000" stroke="none">
<path d="M141 381 l-14 -9 7 -26 6 -25 -19 -11 -20 -10 -40 0 -41 0 0 -44 0
-44 6 -16 6 -16 34 0 34 0 0 -10 0 -10 -22 -4 -23 -5 -25 2 -25 2 -3 -43 -3
-43 12 -28 12 -28 70 -1 69 -2 -7 39 -6 39 11 7 12 7 11 -11 11 -11 1 -38 0
-37 29 -3 29 -4 34 7 34 6 -3 72 -3 72 -33 3 -32 3 5 10 6 9 29 0 29 0 6 9 5
10 -6 55 -7 55 -51 3 -51 3 3 27 3 27 -20 10 -20 11 -13 0 -13 0 -14 -9z"/>
</g>
</svg>
