<?xml version="1.0" standalone="no"?>
<!DOCTYPE svg PUBLIC "-//W3C//DTD SVG 20010904//EN"
 "http://www.w3.org/TR/2001/REC-SVG-20010904/DTD/svg10.dtd">
<svg version="1.0" xmlns="http://www.w3.org/2000/svg"
 width="31.000000pt" height="44.000000pt" viewBox="0 0 31.000000 44.000000"
 preserveAspectRatio="xMidYMid meet">
<metadata>
Created by potrace 1.16, written by Peter Selinger 2001-2019
</metadata>
<g transform="translate(0.000000,44.000000) scale(0.100000,-0.100000)"
fill="#000000" stroke="none">
<path d="M130 426 l-12 -15 4 -28 3 -28 -50 -3 -49 -3 -14 -11 -13 -11 3 -51
3 -51 34 0 34 0 4 -12 5 -13 -35 0 -35 0 -6 -16 -6 -16 0 -29 0 -30 10 -20 11
-19 44 0 44 0 3 -32 3 -33 43 -3 42 -3 9 24 10 25 46 6 46 7 -7 67 -6 67 -5 8
-4 7 -30 0 -29 0 0 10 0 10 40 0 40 0 0 53 0 52 -8 11 -7 12 -50 15 -50 14 3
18 4 18 -14 8 -13 9 -16 0 -17 0 -12 -14z"/>
</g>
</svg>
