<?xml version="1.0" standalone="no"?>
<!DOCTYPE svg PUBLIC "-//W3C//DTD SVG 20010904//EN"
 "http://www.w3.org/TR/2001/REC-SVG-20010904/DTD/svg10.dtd">
<svg version="1.0" xmlns="http://www.w3.org/2000/svg"
 width="31.000000pt" height="38.000000pt" viewBox="0 0 31.000000 38.000000"
 preserveAspectRatio="xMidYMid meet">
<metadata>
Created by potrace 1.16, written by Peter Selinger 2001-2019
</metadata>
<g transform="translate(0.000000,38.000000) scale(0.100000,-0.100000)"
fill="#000000" stroke="none">
<path d="M6 338 l6 -43 4 -14 4 -13 20 5 19 5 12 -14 11 -14 -6 -16 -6 -16
-20 -5 -19 -5 -5 -17 -5 -16 -6 -43 -7 -42 40 0 41 0 3 -32 3 -32 27 -16 28
-15 17 11 18 11 3 42 3 42 61 -7 61 -7 -7 29 -7 29 -10 37 -9 37 -23 3 -22 3
5 10 5 10 30 0 30 0 3 53 3 54 -12 14 -11 14 -144 0 -144 0 6 -42z"/>
</g>
</svg>
