<?xml version="1.0" standalone="no"?>
<!DOCTYPE svg PUBLIC "-//W3C//DTD SVG 20010904//EN"
 "http://www.w3.org/TR/2001/REC-SVG-20010904/DTD/svg10.dtd">
<svg version="1.0" xmlns="http://www.w3.org/2000/svg"
 width="39.000000pt" height="44.000000pt" viewBox="0 0 39.000000 44.000000"
 preserveAspectRatio="xMidYMid meet">
<metadata>
Created by potrace 1.16, written by Peter Selinger 2001-2019
</metadata>
<g transform="translate(0.000000,44.000000) scale(0.100000,-0.100000)"
fill="#000000" stroke="none">
<path d="M203 433 l-13 -5 0 -28 0 -29 -52 -3 -53 -3 -5 -40 -5 -40 -35 -5
-35 -5 -3 -34 -3 -34 13 -8 13 -9 37 0 37 0 -10 -32 -9 -33 0 -23 0 -23 34 6
34 7 19 -11 20 -10 -5 -30 -4 -30 26 -7 26 -6 30 12 30 12 0 24 0 23 18 5 17
5 33 6 33 7 -3 56 -3 57 -40 5 -40 5 0 15 0 15 38 -3 37 -4 0 66 0 66 -32 1
-33 1 -25 7 -25 7 -4 19 -3 20 -12 7 -11 8 -10 -1 -10 -1 -12 -5z"/>
</g>
</svg>
