<?xml version="1.0" standalone="no"?>
<!DOCTYPE svg PUBLIC "-//W3C//DTD SVG 20010904//EN"
 "http://www.w3.org/TR/2001/REC-SVG-20010904/DTD/svg10.dtd">
<svg version="1.0" xmlns="http://www.w3.org/2000/svg"
 width="43.000000pt" height="42.000000pt" viewBox="0 0 43.000000 42.000000"
 preserveAspectRatio="xMidYMid meet">
<metadata>
Created by potrace 1.16, written by Peter Selinger 2001-2019
</metadata>
<g transform="translate(0.000000,42.000000) scale(0.100000,-0.100000)"
fill="#000000" stroke="none">
<path d="M170 392 l0 -30 -16 -6 -16 -6 -29 0 -29 0 0 -55 0 -56 -37 3 -37 3
-4 -19 -4 -18 11 -11 11 -11 33 -1 32 0 1 -45 0 -45 42 -6 42 -5 7 -7 7 -7 0
-33 1 -32 21 -3 21 -3 17 27 18 26 -5 25 -5 25 44 -6 43 -5 3 52 3 52 34 0 34
0 10 17 11 16 -13 16 -13 16 -33 0 -33 0 -5 13 -5 13 5 28 6 28 -14 9 -14 9
-32 0 -33 0 -2 13 -1 12 -1 15 -1 15 -37 3 -38 3 0 -29z"/>
</g>
</svg>
