<?xml version="1.0" standalone="no"?>
<!DOCTYPE svg PUBLIC "-//W3C//DTD SVG 20010904//EN"
 "http://www.w3.org/TR/2001/REC-SVG-20010904/DTD/svg10.dtd">
<svg version="1.0" xmlns="http://www.w3.org/2000/svg"
 width="38.000000pt" height="36.000000pt" viewBox="0 0 38.000000 36.000000"
 preserveAspectRatio="xMidYMid meet">
<metadata>
Created by potrace 1.16, written by Peter Selinger 2001-2019
</metadata>
<g transform="translate(0.000000,36.000000) scale(0.100000,-0.100000)"
fill="#000000" stroke="none">
<path d="M194 352 l-12 -7 -3 -25 -4 -25 -47 -3 -47 -3 -3 -37 -3 -37 -35 -5
-35 -5 0 -45 0 -45 30 -5 30 -5 3 -30 2 -30 5 -21 4 -20 76 -2 76 -2 -3 32 -3
33 10 5 10 5 3 -32 3 -33 59 0 58 0 6 16 6 16 0 40 0 40 -23 -6 -23 -5 -23 15
-22 16 3 21 3 22 38 3 37 3 0 48 0 49 -22 6 -23 6 -27 0 -28 0 0 24 0 24 -16
6 -16 6 -16 0 -17 0 -11 -8z"/>
</g>
</svg>
