<?xml version="1.0" standalone="no"?>
<!DOCTYPE svg PUBLIC "-//W3C//DTD SVG 20010904//EN"
 "http://www.w3.org/TR/2001/REC-SVG-20010904/DTD/svg10.dtd">
<svg version="1.0" xmlns="http://www.w3.org/2000/svg"
 width="36.000000pt" height="34.000000pt" viewBox="0 0 36.000000 34.000000"
 preserveAspectRatio="xMidYMid meet">
<metadata>
Created by potrace 1.16, written by Peter Selinger 2001-2019
</metadata>
<g transform="translate(0.000000,34.000000) scale(0.100000,-0.100000)"
fill="#000000" stroke="none">
<path d="M191 331 l-14 -9 7 -18 7 -17 -13 -9 -13 -8 -42 0 -43 0 0 -34 0 -35
-12 -8 -13 -8 -25 0 -25 0 0 -35 0 -35 25 0 25 0 7 -10 8 -10 0 -35 0 -35 8
-10 7 -10 62 -3 63 -4 -6 31 -6 31 12 15 13 15 13 -11 14 -11 0 -29 0 -29 49
0 49 0 6 16 6 16 0 28 0 28 -20 -5 -20 -5 -25 16 -25 16 0 30 0 29 12 7 12 8
28 -2 28 -2 0 39 0 39 -22 6 -23 6 -27 0 -28 0 -1 10 -2 10 -1 13 -1 12 -10 7
-10 8 -10 0 -10 0 -14 -9z"/>
</g>
</svg>
