<?xml version="1.0" standalone="no"?>
<!DOCTYPE svg PUBLIC "-//W3C//DTD SVG 20010904//EN"
 "http://www.w3.org/TR/2001/REC-SVG-20010904/DTD/svg10.dtd">
<svg version="1.0" xmlns="http://www.w3.org/2000/svg"
 width="43.000000pt" height="36.000000pt" viewBox="0 0 43.000000 36.000000"
 preserveAspectRatio="xMidYMid meet">
<metadata>
Created by potrace 1.16, written by Peter Selinger 2001-2019
</metadata>
<g transform="translate(0.000000,36.000000) scale(0.100000,-0.100000)"
fill="#000000" stroke="none">
<path d="M171 351 l-14 -9 7 -18 7 -17 -13 -9 -13 -8 -37 0 -37 0 -3 -47 -3
-47 -30 -1 -30 0 -3 -37 -3 -36 19 -6 20 -7 13 3 14 3 3 -52 3 -53 53 0 52 0
12 12 12 12 0 23 0 22 14 -5 15 -6 3 -31 3 -32 55 0 55 0 1 45 0 45 2 11 2 12
31 -2 31 -1 12 17 11 18 -11 18 -11 17 -38 3 -37 3 6 49 7 49 -20 10 -20 11
-19 0 -20 0 -23 25 -24 25 -20 0 -20 0 -14 -9z"/>
</g>
</svg>
