<?xml version="1.0" standalone="no"?>
<!DOCTYPE svg PUBLIC "-//W3C//DTD SVG 20010904//EN"
 "http://www.w3.org/TR/2001/REC-SVG-20010904/DTD/svg10.dtd">
<svg version="1.0" xmlns="http://www.w3.org/2000/svg"
 width="38.000000pt" height="42.000000pt" viewBox="0 0 38.000000 42.000000"
 preserveAspectRatio="xMidYMid meet">
<metadata>
Created by potrace 1.16, written by Peter Selinger 2001-2019
</metadata>
<g transform="translate(0.000000,42.000000) scale(0.100000,-0.100000)"
fill="#000000" stroke="none">
<path d="M198 388 l-3 -33 -52 -3 -53 -3 0 -45 0 -44 -33 0 -33 0 -12 -12 -12
-12 0 -31 0 -31 12 -12 12 -12 23 0 23 0 6 -40 7 -40 48 0 48 0 3 -32 3 -33
45 0 45 0 9 38 10 37 32 -6 32 -6 6 11 7 11 -13 41 -12 42 -19 5 -18 5 3 26 3
26 33 3 32 3 0 54 0 55 -22 5 -23 5 -30 2 -29 3 -6 25 -6 25 -31 3 -32 3 -3
-33z"/>
</g>
</svg>
