<?xml version="1.0" standalone="no"?>
<!DOCTYPE svg PUBLIC "-//W3C//DTD SVG 20010904//EN"
 "http://www.w3.org/TR/2001/REC-SVG-20010904/DTD/svg10.dtd">
<svg version="1.0" xmlns="http://www.w3.org/2000/svg"
 width="36.000000pt" height="35.000000pt" viewBox="0 0 36.000000 35.000000"
 preserveAspectRatio="xMidYMid meet">
<metadata>
Created by potrace 1.16, written by Peter Selinger 2001-2019
</metadata>
<g transform="translate(0.000000,35.000000) scale(0.100000,-0.100000)"
fill="#000000" stroke="none">
<path d="M174 336 l-6 -16 6 -15 5 -15 -55 0 -56 0 3 -47 3 -48 -34 -5 -35 -5
0 -30 0 -30 30 0 30 -1 3 -56 3 -56 40 -6 39 -6 26 6 25 6 -3 27 -2 26 7 3 7
2 10 0 10 0 0 -35 0 -35 59 0 60 0 7 11 7 11 -19 55 -19 56 -12 4 -13 5 0 19
0 19 24 0 24 0 6 16 6 16 0 31 0 32 -10 15 -9 15 -21 -12 -20 -13 -29 0 -30 0
-3 33 -3 32 -28 3 -27 3 -6 -15z"/>
</g>
</svg>
