<?xml version="1.0" standalone="no"?>
<!DOCTYPE svg PUBLIC "-//W3C//DTD SVG 20010904//EN"
 "http://www.w3.org/TR/2001/REC-SVG-20010904/DTD/svg10.dtd">
<svg version="1.0" xmlns="http://www.w3.org/2000/svg"
 width="34.000000pt" height="33.000000pt" viewBox="0 0 34.000000 33.000000"
 preserveAspectRatio="xMidYMid meet">
<metadata>
Created by potrace 1.16, written by Peter Selinger 2001-2019
</metadata>
<g transform="translate(0.000000,33.000000) scale(0.100000,-0.100000)"
fill="#000000" stroke="none">
<path d="M177 324 l-7 -7 6 -23 6 -24 -57 0 -57 0 4 -47 3 -48 -35 -5 -35 -5
0 -20 0 -20 30 0 30 0 3 -56 3 -57 34 -5 34 -6 20 6 21 5 -3 31 -2 31 16 4 17
3 16 -16 16 -16 -6 -25 -6 -24 50 0 51 0 5 8 5 9 -17 45 -17 45 -17 16 -16 17
5 20 5 20 24 0 24 0 6 25 6 25 -6 26 -7 26 -14 -12 -14 -11 -42 3 -43 3 -1 30
0 30 -15 3 -16 3 -7 -7z"/>
</g>
</svg>
