<?xml version="1.0" standalone="no"?>
<!DOCTYPE svg PUBLIC "-//W3C//DTD SVG 20010904//EN"
 "http://www.w3.org/TR/2001/REC-SVG-20010904/DTD/svg10.dtd">
<svg version="1.0" xmlns="http://www.w3.org/2000/svg"
 width="43.000000pt" height="42.000000pt" viewBox="0 0 43.000000 42.000000"
 preserveAspectRatio="xMidYMid meet">
<metadata>
Created by potrace 1.16, written by Peter Selinger 2001-2019
</metadata>
<g transform="translate(0.000000,42.000000) scale(0.100000,-0.100000)"
fill="#000000" stroke="none">
<path d="M203 413 l-13 -5 0 -34 0 -34 -55 0 -55 0 0 -45 0 -45 -30 0 -29 0
-10 -18 -9 -17 5 -28 6 -28 14 5 14 6 10 -28 11 -27 1 -17 1 -18 57 0 58 0 -1
-30 -1 -31 10 -10 11 -11 28 4 29 3 -1 49 0 48 30 -6 31 -6 28 -6 27 -6 0 28
0 29 6 22 6 23 24 -6 24 -6 0 36 0 36 -29 0 -29 0 -6 23 -6 22 0 26 0 26 -50
-5 -50 -5 0 29 0 29 -8 11 -7 10 -15 6 -15 5 -12 -4z"/>
</g>
</svg>
