<?xml version="1.0" standalone="no"?>
<!DOCTYPE svg PUBLIC "-//W3C//DTD SVG 20010904//EN"
 "http://www.w3.org/TR/2001/REC-SVG-20010904/DTD/svg10.dtd">
<svg version="1.0" xmlns="http://www.w3.org/2000/svg"
 width="28.000000pt" height="43.000000pt" viewBox="0 0 28.000000 43.000000"
 preserveAspectRatio="xMidYMid meet">
<metadata>
Created by potrace 1.16, written by Peter Selinger 2001-2019
</metadata>
<g transform="translate(0.000000,43.000000) scale(0.100000,-0.100000)"
fill="#000000" stroke="none">
<path d="M116 415 l-6 -17 6 -23 6 -24 -59 -3 -58 -3 -3 -42 -3 -42 21 -11 21
-11 20 6 21 7 -4 -24 -3 -23 -32 2 -32 3 -6 -34 -7 -33 4 -24 3 -24 48 -3 49
-3 -7 -26 -6 -25 17 -19 17 -19 17 0 18 0 12 15 12 15 -6 25 -6 25 42 0 43 0
12 8 12 8 -13 39 -14 40 -26 13 -26 13 0 20 0 19 29 0 29 0 11 14 12 15 -3 38
-3 38 -38 6 -38 6 -9 9 -8 9 -4 25 -3 25 -26 3 -26 3 -7 -16z"/>
</g>
</svg>
