<?xml version="1.0" standalone="no"?>
<!DOCTYPE svg PUBLIC "-//W3C//DTD SVG 20010904//EN"
 "http://www.w3.org/TR/2001/REC-SVG-20010904/DTD/svg10.dtd">
<svg version="1.0" xmlns="http://www.w3.org/2000/svg"
 width="36.000000pt" height="34.000000pt" viewBox="0 0 36.000000 34.000000"
 preserveAspectRatio="xMidYMid meet">
<metadata>
Created by potrace 1.16, written by Peter Selinger 2001-2019
</metadata>
<g transform="translate(0.000000,34.000000) scale(0.100000,-0.100000)"
fill="#000000" stroke="none">
<path d="M105 328 l-4 -13 2 -20 2 -20 -53 0 -52 0 0 -135 0 -135 60 -3 60 -3
-3 38 -2 38 23 3 22 3 2 -13 1 -13 1 -25 1 -25 29 -3 29 -4 31 6 31 6 1 25 2
25 6 26 7 25 17 -5 17 -6 12 20 13 19 -6 15 -6 15 -31 3 -32 3 -3 40 -3 40 -9
8 -8 9 -53 7 -54 6 0 25 0 25 -23 3 -22 3 -5 -13z"/>
</g>
</svg>
