<?xml version="1.0" standalone="no"?>
<!DOCTYPE svg PUBLIC "-//W3C//DTD SVG 20010904//EN"
 "http://www.w3.org/TR/2001/REC-SVG-20010904/DTD/svg10.dtd">
<svg version="1.0" xmlns="http://www.w3.org/2000/svg"
 width="38.000000pt" height="36.000000pt" viewBox="0 0 38.000000 36.000000"
 preserveAspectRatio="xMidYMid meet">
<metadata>
Created by potrace 1.16, written by Peter Selinger 2001-2019
</metadata>
<g transform="translate(0.000000,36.000000) scale(0.100000,-0.100000)"
fill="#000000" stroke="none">
<path d="M107 354 l-7 -7 0 -30 0 -30 -50 6 -50 6 0 -149 0 -150 71 0 72 0 -6
35 -6 35 10 6 10 6 6 -6 6 -6 1 -32 1 -33 40 -3 39 -3 33 6 32 6 3 42 3 42 21
3 21 3 13 23 12 24 -6 20 -7 21 -32 3 -32 3 -3 43 -3 43 -25 9 -25 10 -34 0
-34 0 -3 28 -3 27 -30 3 -31 3 -7 -7z"/>
</g>
</svg>
