<?xml version="1.0" standalone="no"?>
<!DOCTYPE svg PUBLIC "-//W3C//DTD SVG 20010904//EN"
 "http://www.w3.org/TR/2001/REC-SVG-20010904/DTD/svg10.dtd">
<svg version="1.0" xmlns="http://www.w3.org/2000/svg"
 width="42.000000pt" height="34.000000pt" viewBox="0 0 42.000000 34.000000"
 preserveAspectRatio="xMidYMid meet">
<metadata>
Created by potrace 1.16, written by Peter Selinger 2001-2019
</metadata>
<g transform="translate(0.000000,34.000000) scale(0.100000,-0.100000)"
fill="#000000" stroke="none">
<path d="M179 333 l-1 -8 2 -27 2 -28 -52 0 -51 0 -3 -12 -3 -13 -9 -30 -9
-30 -28 -3 -27 -3 0 -24 0 -24 20 -11 21 -11 19 6 20 6 0 -30 0 -30 -9 -24
-10 -25 40 -6 39 -6 24 6 24 6 -5 32 -5 33 17 7 18 6 12 -10 13 -11 -5 -19 -5
-20 8 0 9 -1 41 -8 41 -8 -1 56 -1 56 24 -3 23 -4 24 6 24 6 0 25 0 25 -31 -7
-31 -6 -9 14 -9 14 0 38 0 37 -37 0 -38 0 -14 9 -14 9 6 15 5 15 -11 11 -11
11 -23 0 -23 0 -1 -7z"/>
</g>
</svg>
