<?xml version="1.0" standalone="no"?>
<!DOCTYPE svg PUBLIC "-//W3C//DTD SVG 20010904//EN"
 "http://www.w3.org/TR/2001/REC-SVG-20010904/DTD/svg10.dtd">
<svg version="1.0" xmlns="http://www.w3.org/2000/svg"
 width="29.000000pt" height="35.000000pt" viewBox="0 0 29.000000 35.000000"
 preserveAspectRatio="xMidYMid meet">
<metadata>
Created by potrace 1.16, written by Peter Selinger 2001-2019
</metadata>
<g transform="translate(0.000000,35.000000) scale(0.100000,-0.100000)"
fill="#000000" stroke="none">
<path d="M18 320 l-1 -30 -1 -17 -1 -16 27 -1 28 -2 12 -12 12 -12 -10 -27 -9
-28 -38 -3 -37 -3 0 -19 0 -19 12 -27 12 -26 48 4 48 5 0 -31 0 -31 9 -14 9
-13 21 7 21 6 6 25 6 24 -5 21 -6 21 41 -5 40 -5 13 4 12 5 -4 27 -4 27 -5 23
-5 24 -24 -6 -25 -6 0 23 0 24 23 -4 23 -5 13 15 12 16 -3 43 -3 43 -132 3
-133 3 -2 -31z"/>
</g>
</svg>
