<?xml version="1.0" standalone="no"?>
<!DOCTYPE svg PUBLIC "-//W3C//DTD SVG 20010904//EN"
 "http://www.w3.org/TR/2001/REC-SVG-20010904/DTD/svg10.dtd">
<svg version="1.0" xmlns="http://www.w3.org/2000/svg"
 width="38.000000pt" height="37.000000pt" viewBox="0 0 38.000000 37.000000"
 preserveAspectRatio="xMidYMid meet">
<metadata>
Created by potrace 1.16, written by Peter Selinger 2001-2019
</metadata>
<g transform="translate(0.000000,37.000000) scale(0.100000,-0.100000)"
fill="#000000" stroke="none">
<path d="M2 308 l3 -63 30 0 30 0 13 -8 12 -8 -14 -15 -15 -14 -20 0 -21 0 -6
-25 -6 -24 -1 -33 -2 -32 20 -4 20 -3 23 -5 22 -4 0 -29 0 -29 29 -7 30 -6 25
16 26 17 0 30 0 30 23 -6 22 -6 23 -6 22 -6 0 56 0 56 28 0 27 1 18 13 18 14
-3 29 -3 28 -42 3 -42 3 -3 47 -3 47 -143 3 -143 3 3 -63z"/>
</g>
</svg>
