<?xml version="1.0" standalone="no"?>
<!DOCTYPE svg PUBLIC "-//W3C//DTD SVG 20010904//EN"
 "http://www.w3.org/TR/2001/REC-SVG-20010904/DTD/svg10.dtd">
<svg version="1.0" xmlns="http://www.w3.org/2000/svg"
 width="36.000000pt" height="36.000000pt" viewBox="0 0 36.000000 36.000000"
 preserveAspectRatio="xMidYMid meet">
<metadata>
Created by potrace 1.16, written by Peter Selinger 2001-2019
</metadata>
<g transform="translate(0.000000,36.000000) scale(0.100000,-0.100000)"
fill="#000000" stroke="none">
<path d="M204 353 l-11 -4 4 -22 5 -23 -16 -13 -15 -13 -43 -3 -43 -3 -3 -46
-3 -46 -24 0 -23 0 -16 -6 -16 -6 0 -20 0 -19 35 -15 35 -14 0 -45 0 -45 61 0
61 0 -6 23 -5 23 15 23 16 22 20 -18 19 -17 -6 -33 -6 -33 41 0 41 0 18 10 18
9 -8 43 -8 43 -1 7 0 7 -32 3 -33 3 0 20 0 20 38 -1 37 -1 6 22 5 22 -3 34 -3
34 -55 5 -55 5 -3 32 -3 31 -12 5 -12 4 -11 -4z"/>
</g>
</svg>
