<?xml version="1.0" standalone="no"?>
<!DOCTYPE svg PUBLIC "-//W3C//DTD SVG 20010904//EN"
 "http://www.w3.org/TR/2001/REC-SVG-20010904/DTD/svg10.dtd">
<svg version="1.0" xmlns="http://www.w3.org/2000/svg"
 width="38.000000pt" height="38.000000pt" viewBox="0 0 38.000000 38.000000"
 preserveAspectRatio="xMidYMid meet">
<metadata>
Created by potrace 1.16, written by Peter Selinger 2001-2019
</metadata>
<g transform="translate(0.000000,38.000000) scale(0.100000,-0.100000)"
fill="#000000" stroke="none">
<path d="M201 371 l-13 -9 6 -19 6 -20 -14 -12 -15 -13 -43 -1 -43 -2 -3 -47
-3 -48 -24 0 -23 0 -16 -6 -16 -6 0 -30 0 -29 35 -15 35 -14 0 -45 0 -45 70 0
70 0 0 33 0 34 7 6 6 7 13 -11 13 -10 -6 -35 -6 -34 52 0 52 0 20 11 20 10 -5
27 -5 27 -6 32 -6 32 -32 3 -32 3 5 10 5 10 32 -3 32 -3 6 24 6 24 -3 44 -3
44 -55 5 -55 5 -3 30 -4 30 -11 7 -12 8 -10 0 -10 0 -14 -9z"/>
</g>
</svg>
