<?xml version="1.0" standalone="no"?>
<!DOCTYPE svg PUBLIC "-//W3C//DTD SVG 20010904//EN"
 "http://www.w3.org/TR/2001/REC-SVG-20010904/DTD/svg10.dtd">
<svg version="1.0" xmlns="http://www.w3.org/2000/svg"
 width="38.000000pt" height="37.000000pt" viewBox="0 0 38.000000 37.000000"
 preserveAspectRatio="xMidYMid meet">
<metadata>
Created by potrace 1.16, written by Peter Selinger 2001-2019
</metadata>
<g transform="translate(0.000000,37.000000) scale(0.100000,-0.100000)"
fill="#000000" stroke="none">
<path d="M190 355 l-12 -15 4 -31 5 -31 -48 5 -48 6 -3 -52 -3 -52 -40 -5 -40
-5 0 -30 0 -30 32 -3 32 -3 7 -37 6 -37 5 -17 4 -18 54 0 54 0 3 33 3 32 20 0
19 0 1 -30 0 -30 58 -3 57 -3 6 15 6 15 -14 43 -14 43 -27 13 -27 13 0 10 0 9
40 0 40 0 6 24 5 23 -3 34 -3 34 -52 -3 -53 -3 0 31 0 31 -10 20 -11 19 -23 0
-24 0 -12 -15z"/>
</g>
</svg>
