<?xml version="1.0" standalone="no"?>
<!DOCTYPE svg PUBLIC "-//W3C//DTD SVG 20010904//EN"
 "http://www.w3.org/TR/2001/REC-SVG-20010904/DTD/svg10.dtd">
<svg version="1.0" xmlns="http://www.w3.org/2000/svg"
 width="32.000000pt" height="38.000000pt" viewBox="0 0 32.000000 38.000000"
 preserveAspectRatio="xMidYMid meet">
<metadata>
Created by potrace 1.16, written by Peter Selinger 2001-2019
</metadata>
<g transform="translate(0.000000,38.000000) scale(0.100000,-0.100000)"
fill="#000000" stroke="none">
<path d="M132 368 l-12 -12 0 -34 0 -35 -50 7 -50 7 0 -72 0 -71 40 7 40 7 0
-11 0 -11 -12 -1 -13 -2 -35 -1 -35 -1 -3 -35 -4 -35 13 -38 13 -38 20 5 21 6
43 0 42 0 -2 33 -3 32 15 0 15 0 5 -35 5 -35 62 0 61 0 8 8 8 7 -21 58 -20 57
-24 12 -24 13 15 1 15 1 25 1 25 2 0 65 0 65 -20 -1 -20 -2 -32 -7 -33 -7 0
31 0 32 -10 20 -11 19 -22 0 -23 0 -12 -12z"/>
</g>
</svg>
