<?xml version="1.0" standalone="no"?>
<!DOCTYPE svg PUBLIC "-//W3C//DTD SVG 20010904//EN"
 "http://www.w3.org/TR/2001/REC-SVG-20010904/DTD/svg10.dtd">
<svg version="1.0" xmlns="http://www.w3.org/2000/svg"
 width="30.000000pt" height="36.000000pt" viewBox="0 0 30.000000 36.000000"
 preserveAspectRatio="xMidYMid meet">
<metadata>
Created by potrace 1.16, written by Peter Selinger 2001-2019
</metadata>
<g transform="translate(0.000000,36.000000) scale(0.100000,-0.100000)"
fill="#000000" stroke="none">
<path d="M130 346 l-12 -15 4 -28 3 -28 -53 0 -52 1 0 -57 0 -57 40 5 40 6 0
-21 0 -22 -22 -4 -23 -5 -25 2 -25 2 -3 -24 -4 -25 12 -35 12 -36 51 3 52 4 0
31 0 32 25 0 25 0 5 -35 5 -35 52 0 52 1 5 5 6 5 -17 45 -17 44 -9 13 -10 13
-14 -5 -13 -5 0 19 0 20 13 2 12 1 25 1 25 1 0 55 0 55 -20 -4 -20 -5 -35 0
-35 -1 3 27 3 28 -11 20 -11 20 -13 0 -14 0 -12 -14z"/>
</g>
</svg>
