<?xml version="1.0" standalone="no"?>
<!DOCTYPE svg PUBLIC "-//W3C//DTD SVG 20010904//EN"
 "http://www.w3.org/TR/2001/REC-SVG-20010904/DTD/svg10.dtd">
<svg version="1.0" xmlns="http://www.w3.org/2000/svg"
 width="42.000000pt" height="33.000000pt" viewBox="0 0 42.000000 33.000000"
 preserveAspectRatio="xMidYMid meet">
<metadata>
Created by potrace 1.16, written by Peter Selinger 2001-2019
</metadata>
<g transform="translate(0.000000,33.000000) scale(0.100000,-0.100000)"
fill="#000000" stroke="none">
<path d="M90 281 l0 -49 -12 -5 -13 -4 -33 5 -32 5 0 -25 0 -26 15 -12 14 -12
19 6 19 6 11 -12 10 -13 4 -35 3 -34 42 -9 42 -8 -2 -27 -2 -27 38 -3 37 -3 0
20 0 21 23 5 22 5 30 2 30 3 5 55 5 54 25 6 25 6 3 27 3 27 -29 0 -30 0 -6 16
-6 16 0 30 0 31 -31 -7 -31 -6 -9 0 -8 0 -3 -27 -3 -28 -40 0 -40 0 1 38 1 37
-48 0 -49 0 0 -49z"/>
</g>
</svg>
