<?xml version="1.0" standalone="no"?>
<!DOCTYPE svg PUBLIC "-//W3C//DTD SVG 20010904//EN"
 "http://www.w3.org/TR/2001/REC-SVG-20010904/DTD/svg10.dtd">
<svg version="1.0" xmlns="http://www.w3.org/2000/svg"
 width="44.000000pt" height="37.000000pt" viewBox="0 0 44.000000 37.000000"
 preserveAspectRatio="xMidYMid meet">
<metadata>
Created by potrace 1.16, written by Peter Selinger 2001-2019
</metadata>
<g transform="translate(0.000000,37.000000) scale(0.100000,-0.100000)"
fill="#000000" stroke="none">
<path d="M70 319 l0 -50 -20 6 -21 7 -14 -12 -15 -12 0 -30 0 -30 20 -5 20 -5
10 -37 10 -36 0 -18 0 -19 29 7 28 6 26 -6 26 -7 3 -36 3 -37 31 -3 31 -3 18
17 17 17 -4 34 -4 33 32 -6 32 -6 21 7 21 6 0 19 0 18 6 16 6 16 24 0 24 0 6
24 5 23 -3 34 -3 34 -37 3 -37 3 -3 37 -3 37 -40 -3 -40 -2 -22 -5 -22 -5 -3
-27 -3 -28 -17 -3 -18 -3 0 34 0 35 -16 6 -16 6 -44 0 -44 0 0 -51z"/>
</g>
</svg>
