<?xml version="1.0" standalone="no"?>
<!DOCTYPE svg PUBLIC "-//W3C//DTD SVG 20010904//EN"
 "http://www.w3.org/TR/2001/REC-SVG-20010904/DTD/svg10.dtd">
<svg version="1.0" xmlns="http://www.w3.org/2000/svg"
 width="42.000000pt" height="35.000000pt" viewBox="0 0 42.000000 35.000000"
 preserveAspectRatio="xMidYMid meet">
<metadata>
Created by potrace 1.16, written by Peter Selinger 2001-2019
</metadata>
<g transform="translate(0.000000,35.000000) scale(0.100000,-0.100000)"
fill="#000000" stroke="none">
<path d="M70 299 l0 -50 -22 2 -23 3 -13 -7 -12 -8 0 -21 0 -20 20 -5 19 -5
14 -47 13 -46 14 -2 15 -2 37 -6 37 -6 3 -37 3 -37 21 -3 22 -3 17 17 17 17
-7 35 -6 34 43 -6 43 -6 11 8 11 7 7 36 6 36 25 -4 24 -5 6 25 7 25 -4 23 -3
24 -37 3 -37 3 -3 37 -3 37 -35 -3 -35 -3 -17 -5 -17 -5 -3 -27 -3 -27 -27 -3
-28 -3 -1 13 -1 13 2 19 2 19 -14 8 -13 9 -37 0 -38 0 0 -51z"/>
</g>
</svg>
