<?xml version="1.0" standalone="no"?>
<!DOCTYPE svg PUBLIC "-//W3C//DTD SVG 20010904//EN"
 "http://www.w3.org/TR/2001/REC-SVG-20010904/DTD/svg10.dtd">
<svg version="1.0" xmlns="http://www.w3.org/2000/svg"
 width="37.000000pt" height="35.000000pt" viewBox="0 0 37.000000 35.000000"
 preserveAspectRatio="xMidYMid meet">
<metadata>
Created by potrace 1.16, written by Peter Selinger 2001-2019
</metadata>
<g transform="translate(0.000000,35.000000) scale(0.100000,-0.100000)"
fill="#000000" stroke="none">
<path d="M0 300 l0 -50 35 0 36 0 5 -15 6 -15 -6 -25 -6 -25 -24 6 -23 5 -7
-23 -6 -23 0 -32 0 -33 44 0 45 0 3 -32 3 -33 35 0 35 0 3 34 3 34 53 -6 53
-5 9 51 9 52 21 -3 21 -3 12 15 13 15 -4 23 -3 23 -40 5 -40 5 -3 53 -3 52
-37 0 -37 0 -23 -6 -23 -7 3 -21 3 -21 -20 0 -20 0 -3 28 -3 27 -60 0 -59 0 0
-50z"/>
</g>
</svg>
