<?xml version="1.0" standalone="no"?>
<!DOCTYPE svg PUBLIC "-//W3C//DTD SVG 20010904//EN"
 "http://www.w3.org/TR/2001/REC-SVG-20010904/DTD/svg10.dtd">
<svg version="1.0" xmlns="http://www.w3.org/2000/svg"
 width="35.000000pt" height="33.000000pt" viewBox="0 0 35.000000 33.000000"
 preserveAspectRatio="xMidYMid meet">
<metadata>
Created by potrace 1.16, written by Peter Selinger 2001-2019
</metadata>
<g transform="translate(0.000000,33.000000) scale(0.100000,-0.100000)"
fill="#000000" stroke="none">
<path d="M0 291 l0 -40 38 -3 37 -3 3 -24 4 -23 -7 -25 -6 -25 -24 4 -23 5 -6
-21 -6 -21 0 -22 0 -23 44 0 45 0 3 -32 3 -33 25 0 25 0 3 33 3 33 52 -3 52
-3 10 50 10 50 22 0 23 1 11 11 12 12 -7 17 -6 16 -29 -5 -28 -6 -12 12 -11
11 0 48 0 48 -32 -1 -33 0 -15 -7 -15 -7 0 -20 0 -20 -30 0 -30 0 -3 28 -3 27
-50 0 -49 0 0 -39z"/>
</g>
</svg>
