<?xml version="1.0" standalone="no"?>
<!DOCTYPE svg PUBLIC "-//W3C//DTD SVG 20010904//EN"
 "http://www.w3.org/TR/2001/REC-SVG-20010904/DTD/svg10.dtd">
<svg version="1.0" xmlns="http://www.w3.org/2000/svg"
 width="34.000000pt" height="28.000000pt" viewBox="0 0 34.000000 28.000000"
 preserveAspectRatio="xMidYMid meet">
<metadata>
Created by potrace 1.16, written by Peter Selinger 2001-2019
</metadata>
<g transform="translate(0.000000,28.000000) scale(0.100000,-0.100000)"
fill="#000000" stroke="none">
<path d="M76 251 l6 -29 -12 -22 -12 -22 -24 5 -24 4 -6 -23 -6 -24 12 -15 12
-15 39 0 39 0 0 -22 0 -23 -14 -27 -14 -26 44 -4 44 -3 0 26 0 27 19 23 19 23
17 -14 17 -14 -6 -27 -5 -27 14 -12 14 -11 46 7 46 6 -5 15 -6 15 0 119 0 119
-130 0 -129 0 5 -29z"/>
</g>
</svg>
