<?xml version="1.0" standalone="no"?>
<!DOCTYPE svg PUBLIC "-//W3C//DTD SVG 20010904//EN"
 "http://www.w3.org/TR/2001/REC-SVG-20010904/DTD/svg10.dtd">
<svg version="1.0" xmlns="http://www.w3.org/2000/svg"
 width="29.000000pt" height="35.000000pt" viewBox="0 0 29.000000 35.000000"
 preserveAspectRatio="xMidYMid meet">
<metadata>
Created by potrace 1.16, written by Peter Selinger 2001-2019
</metadata>
<g transform="translate(0.000000,35.000000) scale(0.100000,-0.100000)"
fill="#000000" stroke="none">
<path d="M170 315 l0 -35 -27 -6 -26 -7 -16 10 -16 11 2 26 2 26 -45 0 -44 0
0 -39 0 -40 32 -3 33 -3 3 -18 4 -19 -6 -24 -6 -24 -11 3 -11 2 -14 -45 -14
-45 0 -2 0 -2 42 -3 42 -3 1 -35 0 -35 35 0 35 0 0 27 1 27 5 5 5 5 47 2 47 3
11 39 10 39 -3 21 -3 22 -35 0 -35 0 -3 29 -4 29 30 -6 30 -6 6 15 6 16 0 33
0 33 -31 6 -31 6 -24 0 -24 0 0 -35z"/>
</g>
</svg>
