<?xml version="1.0" standalone="no"?>
<!DOCTYPE svg PUBLIC "-//W3C//DTD SVG 20010904//EN"
 "http://www.w3.org/TR/2001/REC-SVG-20010904/DTD/svg10.dtd">
<svg version="1.0" xmlns="http://www.w3.org/2000/svg"
 width="31.000000pt" height="37.000000pt" viewBox="0 0 31.000000 37.000000"
 preserveAspectRatio="xMidYMid meet">
<metadata>
Created by potrace 1.16, written by Peter Selinger 2001-2019
</metadata>
<g transform="translate(0.000000,37.000000) scale(0.100000,-0.100000)"
fill="#000000" stroke="none">
<path d="M170 336 l0 -35 -20 -6 -21 -7 -13 11 -13 11 5 25 4 25 -56 0 -56 0
0 -49 0 -50 32 -3 33 -3 4 -19 3 -20 -18 -13 -18 -13 -13 -43 -13 -42 0 -12 0
-13 39 0 40 0 3 -37 3 -38 45 0 45 0 3 33 3 32 49 0 49 0 11 41 11 40 -3 32
-3 32 -35 1 -35 0 -3 17 -4 18 27 -7 27 -7 9 14 9 14 0 46 0 47 -31 6 -31 6
-34 0 -34 0 0 -34z"/>
</g>
</svg>
