<?xml version="1.0" standalone="no"?>
<!DOCTYPE svg PUBLIC "-//W3C//DTD SVG 20010904//EN"
 "http://www.w3.org/TR/2001/REC-SVG-20010904/DTD/svg10.dtd">
<svg version="1.0" xmlns="http://www.w3.org/2000/svg"
 width="28.000000pt" height="35.000000pt" viewBox="0 0 28.000000 35.000000"
 preserveAspectRatio="xMidYMid meet">
<metadata>
Created by potrace 1.16, written by Peter Selinger 2001-2019
</metadata>
<g transform="translate(0.000000,35.000000) scale(0.100000,-0.100000)"
fill="#000000" stroke="none">
<path d="M10 323 l0 -28 -6 -21 -5 -21 30 5 30 4 16 -15 15 -16 0 -6 0 -6 -14
-15 -15 -14 -30 0 -31 0 0 -19 0 -18 6 -31 6 -31 42 -3 41 -3 -3 -28 -4 -29
19 -13 18 -14 21 -1 22 0 12 15 12 14 -7 31 -7 30 45 0 45 0 7 40 7 39 -7 11
-6 10 -9 -5 -10 -6 -20 11 -21 11 3 32 3 32 28 -3 27 -3 0 44 0 43 -45 -10
-45 -11 0 -16 0 -17 -15 -12 -15 -12 -26 6 -26 7 4 34 4 35 -48 0 -48 0 0 -27z"/>
</g>
</svg>
