<?xml version="1.0" standalone="no"?>
<!DOCTYPE svg PUBLIC "-//W3C//DTD SVG 20010904//EN"
 "http://www.w3.org/TR/2001/REC-SVG-20010904/DTD/svg10.dtd">
<svg version="1.0" xmlns="http://www.w3.org/2000/svg"
 width="30.000000pt" height="37.000000pt" viewBox="0 0 30.000000 37.000000"
 preserveAspectRatio="xMidYMid meet">
<metadata>
Created by potrace 1.16, written by Peter Selinger 2001-2019
</metadata>
<g transform="translate(0.000000,37.000000) scale(0.100000,-0.100000)"
fill="#000000" stroke="none">
<path d="M10 348 l0 -23 -7 -39 -6 -38 31 7 32 7 13 -14 14 -14 -13 -12 -13
-12 -31 0 -30 0 0 -29 0 -29 6 -31 6 -31 39 0 39 0 0 -31 0 -32 18 -13 17 -13
31 -1 32 0 12 15 12 15 -4 30 -5 30 43 0 43 0 7 45 6 45 -5 14 -6 15 -28 3
-28 3 -3 23 -3 22 30 0 31 0 0 56 0 56 -22 -6 -23 -7 -32 -6 -33 -6 0 -17 0
-18 -14 -11 -13 -11 -18 6 -17 7 7 33 6 34 -61 0 -60 0 0 -22z"/>
</g>
</svg>
