<?xml version="1.0" standalone="no"?>
<!DOCTYPE svg PUBLIC "-//W3C//DTD SVG 20010904//EN"
 "http://www.w3.org/TR/2001/REC-SVG-20010904/DTD/svg10.dtd">
<svg version="1.0" xmlns="http://www.w3.org/2000/svg"
 width="34.000000pt" height="26.000000pt" viewBox="0 0 34.000000 26.000000"
 preserveAspectRatio="xMidYMid meet">
<metadata>
Created by potrace 1.16, written by Peter Selinger 2001-2019
</metadata>
<g transform="translate(0.000000,26.000000) scale(0.100000,-0.100000)"
fill="#000000" stroke="none">
<path d="M4 228 l6 -31 11 -13 11 -14 24 6 24 6 6 -17 7 -16 -12 -26 -12 -25
-24 4 -24 5 -5 -14 -6 -15 0 -39 0 -39 51 0 51 0 -5 22 -6 22 11 13 10 13 19
0 19 0 0 -18 0 -18 42 -11 42 -11 9 5 9 5 -6 32 -6 31 9 14 9 13 20 -6 20 -7
16 17 17 16 -12 15 -12 14 -29 -6 -28 -7 0 57 0 57 -22 -6 -23 -6 -17 0 -17 0
-3 -27 -3 -28 -40 0 -40 0 -3 33 -3 32 -46 0 -46 0 7 -32z"/>
</g>
</svg>
