<?xml version="1.0" standalone="no"?>
<!DOCTYPE svg PUBLIC "-//W3C//DTD SVG 20010904//EN"
 "http://www.w3.org/TR/2001/REC-SVG-20010904/DTD/svg10.dtd">
<svg version="1.0" xmlns="http://www.w3.org/2000/svg"
 width="43.000000pt" height="34.000000pt" viewBox="0 0 43.000000 34.000000"
 preserveAspectRatio="xMidYMid meet">
<metadata>
Created by potrace 1.16, written by Peter Selinger 2001-2019
</metadata>
<g transform="translate(0.000000,34.000000) scale(0.100000,-0.100000)"
fill="#000000" stroke="none">
<path d="M88 293 l-3 -48 -38 3 -37 4 -7 -18 -6 -17 10 -16 10 -16 19 0 19 0
12 -35 12 -35 0 -21 1 -21 25 5 25 4 25 -6 26 -7 -3 -25 -3 -26 17 -11 17 -11
28 10 28 10 -2 27 -2 27 38 0 38 0 11 25 12 26 0 22 0 22 9 14 9 14 15 -6 15
-5 11 11 11 11 0 18 0 17 -20 11 -20 10 -26 -6 -27 -7 6 48 7 47 -16 -6 -16
-6 -23 0 -24 0 -3 -32 -3 -33 -40 0 -40 0 0 38 0 37 -47 0 -47 0 -3 -47z"/>
</g>
</svg>
