<?xml version="1.0" standalone="no"?>
<!DOCTYPE svg PUBLIC "-//W3C//DTD SVG 20010904//EN"
 "http://www.w3.org/TR/2001/REC-SVG-20010904/DTD/svg10.dtd">
<svg version="1.0" xmlns="http://www.w3.org/2000/svg"
 width="45.000000pt" height="36.000000pt" viewBox="0 0 45.000000 36.000000"
 preserveAspectRatio="xMidYMid meet">
<metadata>
Created by potrace 1.16, written by Peter Selinger 2001-2019
</metadata>
<g transform="translate(0.000000,36.000000) scale(0.100000,-0.100000)"
fill="#000000" stroke="none">
<path d="M90 316 l0 -45 -42 -3 -43 -3 -3 -28 -3 -28 12 -15 11 -14 19 0 18 0
10 -38 11 -37 0 -18 0 -19 30 7 30 6 19 -6 19 -6 -5 -19 -5 -20 12 -15 12 -15
30 0 29 0 20 10 19 11 0 24 0 25 33 0 34 0 11 25 12 26 0 19 0 18 6 16 6 15
14 -6 14 -5 15 12 15 12 0 29 0 28 -21 12 -21 11 -25 -5 -24 -4 7 45 7 45 -33
-6 -32 -7 -19 0 -18 0 -3 -32 -3 -33 -30 0 -30 0 2 38 2 37 -59 0 -60 0 0 -44z"/>
</g>
</svg>
