<?xml version="1.0" standalone="no"?>
<!DOCTYPE svg PUBLIC "-//W3C//DTD SVG 20010904//EN"
 "http://www.w3.org/TR/2001/REC-SVG-20010904/DTD/svg10.dtd">
<svg version="1.0" xmlns="http://www.w3.org/2000/svg"
 width="28.000000pt" height="36.000000pt" viewBox="0 0 28.000000 36.000000"
 preserveAspectRatio="xMidYMid meet">
<metadata>
Created by potrace 1.16, written by Peter Selinger 2001-2019
</metadata>
<g transform="translate(0.000000,36.000000) scale(0.100000,-0.100000)"
fill="#000000" stroke="none">
<path d="M0 317 l0 -45 14 -12 15 -11 23 3 23 3 3 -22 3 -23 -21 0 -20 0 -10
-26 -10 -25 -6 -39 -6 -39 33 -3 34 -3 5 -35 5 -35 29 -3 28 -4 24 6 24 6 0
29 0 29 16 6 16 6 24 0 24 0 0 24 0 23 -6 32 -7 31 -22 0 -23 0 -12 15 -12 15
6 15 5 15 41 0 40 0 0 56 0 55 -47 -3 -48 -3 -3 -32 -3 -33 -25 -6 -25 -7 -9
9 -8 9 -4 30 -3 30 -52 3 -53 3 0 -44z"/>
</g>
</svg>
