<?xml version="1.0" standalone="no"?>
<!DOCTYPE svg PUBLIC "-//W3C//DTD SVG 20010904//EN"
 "http://www.w3.org/TR/2001/REC-SVG-20010904/DTD/svg10.dtd">
<svg version="1.0" xmlns="http://www.w3.org/2000/svg"
 width="35.000000pt" height="30.000000pt" viewBox="0 0 35.000000 30.000000"
 preserveAspectRatio="xMidYMid meet">
<metadata>
Created by potrace 1.16, written by Peter Selinger 2001-2019
</metadata>
<g transform="translate(0.000000,30.000000) scale(0.100000,-0.100000)"
fill="#000000" stroke="none">
<path d="M68 258 l-3 -43 -33 -3 -33 -3 3 -37 3 -37 35 -1 35 0 -3 -57 -4 -57
56 0 56 0 0 35 0 35 25 0 25 0 0 -45 0 -45 61 0 62 0 -7 31 -6 31 0 119 0 119
-61 0 -61 0 7 -29 6 -29 -16 -16 -17 -16 -16 9 -16 9 0 33 -1 34 -47 3 -47 3
-3 -43z"/>
</g>
</svg>
