<?xml version="1.0" standalone="no"?>
<!DOCTYPE svg PUBLIC "-//W3C//DTD SVG 20010904//EN"
 "http://www.w3.org/TR/2001/REC-SVG-20010904/DTD/svg10.dtd">
<svg version="1.0" xmlns="http://www.w3.org/2000/svg"
 width="28.000000pt" height="34.000000pt" viewBox="0 0 28.000000 34.000000"
 preserveAspectRatio="xMidYMid meet">
<metadata>
Created by potrace 1.16, written by Peter Selinger 2001-2019
</metadata>
<g transform="translate(0.000000,34.000000) scale(0.100000,-0.100000)"
fill="#000000" stroke="none">
<path d="M177 321 l5 -19 -11 -21 -12 -21 -20 0 -20 0 -15 14 -14 15 0 20 0
21 -46 0 -45 0 3 -47 3 -47 30 -1 30 0 0 -30 0 -30 -32 -3 -33 -3 0 -50 0 -49
34 0 34 0 16 -6 16 -6 0 -23 0 -23 16 -6 15 -6 20 10 19 11 0 30 0 31 38 -4
37 -5 14 -4 13 -4 5 57 4 57 -35 -6 -36 -6 -15 13 -15 12 0 19 0 18 17 16 16
17 29 -4 28 -5 0 18 0 18 -10 25 -10 26 -39 0 -39 0 5 -19z"/>
</g>
</svg>
