<?xml version="1.0" standalone="no"?>
<!DOCTYPE svg PUBLIC "-//W3C//DTD SVG 20010904//EN"
 "http://www.w3.org/TR/2001/REC-SVG-20010904/DTD/svg10.dtd">
<svg version="1.0" xmlns="http://www.w3.org/2000/svg"
 width="39.000000pt" height="36.000000pt" viewBox="0 0 39.000000 36.000000"
 preserveAspectRatio="xMidYMid meet">
<metadata>
Created by potrace 1.16, written by Peter Selinger 2001-2019
</metadata>
<g transform="translate(0.000000,36.000000) scale(0.100000,-0.100000)"
fill="#000000" stroke="none">
<path d="M43 353 l-33 -4 0 -55 0 -54 45 0 45 0 0 -19 0 -19 -15 -12 -16 -13
-34 1 -35 1 0 -35 0 -35 10 -20 11 -19 19 0 18 0 16 -6 16 -6 0 -17 0 -17 12
-12 12 -12 39 0 39 0 5 20 5 20 49 6 49 7 5 21 5 21 2 35 3 35 28 3 27 3 11
20 10 20 -3 27 -3 27 -35 5 -34 5 -10 35 -9 35 -3 3 -2 4 -57 -13 -57 -13 -9
-23 -9 -23 -9 0 -9 0 -11 14 -11 13 6 18 7 17 -14 9 -14 9 -15 -2 -15 -1 -32
-4z"/>
</g>
</svg>
