<?xml version="1.0" standalone="no"?>
<!DOCTYPE svg PUBLIC "-//W3C//DTD SVG 20010904//EN"
 "http://www.w3.org/TR/2001/REC-SVG-20010904/DTD/svg10.dtd">
<svg version="1.0" xmlns="http://www.w3.org/2000/svg"
 width="38.000000pt" height="37.000000pt" viewBox="0 0 38.000000 37.000000"
 preserveAspectRatio="xMidYMid meet">
<metadata>
Created by potrace 1.16, written by Peter Selinger 2001-2019
</metadata>
<g transform="translate(0.000000,37.000000) scale(0.100000,-0.100000)"
fill="#000000" stroke="none">
<path d="M10 300 l0 -72 32 4 31 3 4 -12 5 -13 -36 0 -36 0 -4 -22 -5 -23 1
-35 1 -35 11 -7 11 -8 43 0 42 0 0 -35 0 -35 24 -6 24 -6 23 4 24 3 5 30 5 30
47 3 47 3 3 52 3 52 22 -3 22 -3 10 20 11 20 0 25 0 26 -30 0 -30 0 -10 26
-10 25 0 24 0 24 -34 6 -34 7 -18 -4 -19 -3 -5 -30 -5 -30 -23 -3 -22 -3 0 30
0 31 -42 0 -43 0 -22 6 -23 6 0 -72z"/>
</g>
</svg>
