<?xml version="1.0" standalone="no"?>
<!DOCTYPE svg PUBLIC "-//W3C//DTD SVG 20010904//EN"
 "http://www.w3.org/TR/2001/REC-SVG-20010904/DTD/svg10.dtd">
<svg version="1.0" xmlns="http://www.w3.org/2000/svg"
 width="37.000000pt" height="37.000000pt" viewBox="0 0 37.000000 37.000000"
 preserveAspectRatio="xMidYMid meet">
<metadata>
Created by potrace 1.16, written by Peter Selinger 2001-2019
</metadata>
<g transform="translate(0.000000,37.000000) scale(0.100000,-0.100000)"
fill="#000000" stroke="none">
<path d="M37 363 l-27 -4 0 -61 0 -60 21 5 21 6 25 -10 25 -9 -4 -13 -5 -12
-44 -5 -44 -5 -1 -62 -1 -62 47 6 48 6 -5 -27 -5 -26 12 -15 12 -15 37 0 37 0
12 12 12 12 0 34 0 34 23 -6 22 -6 21 -6 21 -5 17 34 16 35 0 16 0 16 15 0 15
0 6 24 6 24 -4 28 -3 29 -32 3 -32 3 -3 37 -3 36 -34 9 -34 8 -25 -6 -24 -6 6
-24 6 -24 -16 -16 -16 -16 -14 12 -14 11 0 34 0 34 -32 -1 -33 -2 -28 -4z"/>
</g>
</svg>
