<?xml version="1.0" standalone="no"?>
<!DOCTYPE svg PUBLIC "-//W3C//DTD SVG 20010904//EN"
 "http://www.w3.org/TR/2001/REC-SVG-20010904/DTD/svg10.dtd">
<svg version="1.0" xmlns="http://www.w3.org/2000/svg"
 width="37.000000pt" height="36.000000pt" viewBox="0 0 37.000000 36.000000"
 preserveAspectRatio="xMidYMid meet">
<metadata>
Created by potrace 1.16, written by Peter Selinger 2001-2019
</metadata>
<g transform="translate(0.000000,36.000000) scale(0.100000,-0.100000)"
fill="#000000" stroke="none">
<path d="M6 308 l6 -53 4 -14 4 -13 34 6 34 7 7 -11 7 -11 -18 -14 -19 -15
-28 6 -27 6 0 -66 0 -66 45 0 45 0 0 -24 0 -24 15 -12 15 -12 35 6 35 7 0 15
0 15 13 4 12 4 43 11 43 11 -2 22 -2 22 1 27 2 27 28 3 27 3 3 34 3 34 -13 8
-13 9 -24 0 -24 0 6 50 6 50 -154 0 -154 0 5 -52z"/>
</g>
</svg>
