<?xml version="1.0" standalone="no"?>
<!DOCTYPE svg PUBLIC "-//W3C//DTD SVG 20010904//EN"
 "http://www.w3.org/TR/2001/REC-SVG-20010904/DTD/svg10.dtd">
<svg version="1.0" xmlns="http://www.w3.org/2000/svg"
 width="35.000000pt" height="34.000000pt" viewBox="0 0 35.000000 34.000000"
 preserveAspectRatio="xMidYMid meet">
<metadata>
Created by potrace 1.16, written by Peter Selinger 2001-2019
</metadata>
<g transform="translate(0.000000,34.000000) scale(0.100000,-0.100000)"
fill="#000000" stroke="none">
<path d="M10 288 l5 -53 40 0 40 0 3 -21 3 -20 -25 -13 -25 -14 -20 6 -21 5 0
-55 0 -56 45 5 45 6 0 -28 0 -28 14 -11 14 -12 27 7 26 6 -5 14 -5 13 17 5 17
5 43 11 43 11 -6 9 -5 9 6 40 6 40 27 3 26 3 3 27 3 27 -25 7 -25 6 -11 -7
-12 -7 4 56 3 56 -140 0 -141 0 6 -52z"/>
</g>
</svg>
