<?xml version="1.0" standalone="no"?>
<!DOCTYPE svg PUBLIC "-//W3C//DTD SVG 20010904//EN"
 "http://www.w3.org/TR/2001/REC-SVG-20010904/DTD/svg10.dtd">
<svg version="1.0" xmlns="http://www.w3.org/2000/svg"
 width="30.000000pt" height="35.000000pt" viewBox="0 0 30.000000 35.000000"
 preserveAspectRatio="xMidYMid meet">
<metadata>
Created by potrace 1.16, written by Peter Selinger 2001-2019
</metadata>
<g transform="translate(0.000000,35.000000) scale(0.100000,-0.100000)"
fill="#000000" stroke="none">
<path d="M135 334 l-16 -17 5 -23 6 -24 -60 0 -60 0 0 -45 0 -46 36 3 36 3 12
-18 11 -18 -15 -9 -15 -10 -31 0 -32 0 -5 -13 -5 -13 5 -47 6 -47 42 0 43 0
16 6 16 6 0 29 0 29 19 0 19 0 12 -15 12 -14 -6 -10 -6 -9 6 -17 7 -17 44 6
45 6 8 5 8 5 -13 42 -12 43 -21 3 -21 3 -11 14 -12 15 6 15 5 15 41 0 40 0 0
53 0 52 -57 0 -58 0 -3 27 -3 27 -14 11 -13 11 -17 -17z"/>
</g>
</svg>
