<?xml version="1.0" standalone="no"?>
<!DOCTYPE svg PUBLIC "-//W3C//DTD SVG 20010904//EN"
 "http://www.w3.org/TR/2001/REC-SVG-20010904/DTD/svg10.dtd">
<svg version="1.0" xmlns="http://www.w3.org/2000/svg"
 width="46.000000pt" height="42.000000pt" viewBox="0 0 46.000000 42.000000"
 preserveAspectRatio="xMidYMid meet">
<metadata>
Created by potrace 1.16, written by Peter Selinger 2001-2019
</metadata>
<g transform="translate(0.000000,42.000000) scale(0.100000,-0.100000)"
fill="#000000" stroke="none">
<path d="M202 394 l3 -27 -29 -8 -29 -8 -28 6 -29 6 0 -44 0 -44 -8 -13 -9
-13 -34 3 -34 3 -3 -33 -3 -32 26 -10 25 -10 10 -25 10 -26 0 -25 0 -24 53 0
53 0 9 -32 10 -33 35 0 35 0 3 44 3 43 22 -6 22 -6 36 -6 36 -6 13 45 12 46
22 3 21 3 3 46 3 47 -26 6 -27 7 -16 -5 -17 -6 0 48 0 47 -57 3 -57 3 -3 27
-3 27 -28 3 -29 3 4 -27z"/>
</g>
</svg>
