<?xml version="1.0" standalone="no"?>
<!DOCTYPE svg PUBLIC "-//W3C//DTD SVG 20010904//EN"
 "http://www.w3.org/TR/2001/REC-SVG-20010904/DTD/svg10.dtd">
<svg version="1.0" xmlns="http://www.w3.org/2000/svg"
 width="33.000000pt" height="44.000000pt" viewBox="0 0 33.000000 44.000000"
 preserveAspectRatio="xMidYMid meet">
<metadata>
Created by potrace 1.16, written by Peter Selinger 2001-2019
</metadata>
<g transform="translate(0.000000,44.000000) scale(0.100000,-0.100000)"
fill="#000000" stroke="none">
<path d="M112 428 l-12 -12 0 -33 0 -33 -30 0 -30 0 0 10 0 10 -14 0 -14 0 -6
-22 -6 -23 0 -33 0 -33 10 -20 11 -19 37 -1 37 -2 -27 -4 -27 -4 -15 -46 -16
-47 0 -23 0 -23 40 0 40 0 0 -23 0 -23 12 -12 12 -12 27 0 27 0 16 6 16 6 0
35 0 34 59 -7 58 -6 7 52 7 52 -12 15 -13 14 -23 -6 -23 -5 -20 10 -20 11 0 9
0 10 35 0 35 0 10 26 10 25 0 28 0 29 -12 10 -13 9 -48 7 -48 7 6 20 7 20 -12
14 -12 15 -27 0 -27 0 -12 -12z"/>
</g>
</svg>
