<?xml version="1.0" standalone="no"?>
<!DOCTYPE svg PUBLIC "-//W3C//DTD SVG 20010904//EN"
 "http://www.w3.org/TR/2001/REC-SVG-20010904/DTD/svg10.dtd">
<svg version="1.0" xmlns="http://www.w3.org/2000/svg"
 width="38.000000pt" height="37.000000pt" viewBox="0 0 38.000000 37.000000"
 preserveAspectRatio="xMidYMid meet">
<metadata>
Created by potrace 1.16, written by Peter Selinger 2001-2019
</metadata>
<g transform="translate(0.000000,37.000000) scale(0.100000,-0.100000)"
fill="#000000" stroke="none">
<path d="M117 363 l-7 -6 0 -28 0 -27 -16 -6 -16 -6 -39 0 -39 0 0 -53 0 -53
12 -12 12 -12 25 -1 26 0 -20 -8 -20 -9 -19 -55 -19 -55 8 -12 8 -12 54 4 55
5 9 14 10 14 -5 28 -5 27 8 0 9 0 11 -14 11 -14 -2 -33 -3 -34 29 -3 30 -4 43
7 44 6 -7 34 -6 33 7 21 6 20 32 3 32 3 3 32 3 32 -25 7 -25 6 -9 -6 -10 -6
-6 16 -6 16 0 38 0 39 -57 3 -58 3 -4 25 -3 25 -12 7 -11 8 -16 0 -16 0 -6 -7z"/>
</g>
</svg>
