<?xml version="1.0" standalone="no"?>
<!DOCTYPE svg PUBLIC "-//W3C//DTD SVG 20010904//EN"
 "http://www.w3.org/TR/2001/REC-SVG-20010904/DTD/svg10.dtd">
<svg version="1.0" xmlns="http://www.w3.org/2000/svg"
 width="36.000000pt" height="35.000000pt" viewBox="0 0 36.000000 35.000000"
 preserveAspectRatio="xMidYMid meet">
<metadata>
Created by potrace 1.16, written by Peter Selinger 2001-2019
</metadata>
<g transform="translate(0.000000,35.000000) scale(0.100000,-0.100000)"
fill="#000000" stroke="none">
<path d="M117 343 l-7 -6 0 -28 0 -27 -16 -6 -16 -6 -39 0 -39 0 0 -44 0 -44
14 -11 15 -12 17 3 18 3 4 -17 3 -16 -16 -4 -17 -3 -19 -49 -18 -49 6 -10 6
-9 45 5 44 5 9 13 8 13 -6 28 -5 28 20 0 20 0 12 -14 12 -15 -4 -33 -3 -33 19
-3 18 -4 43 6 42 7 -5 24 -4 25 6 32 6 33 32 0 32 0 4 19 4 19 -14 8 -13 9
-19 -6 -18 -6 -9 13 -9 14 0 42 0 42 -57 3 -58 3 -4 25 -3 25 -12 7 -11 8 -6
0 -6 0 -6 -7z"/>
</g>
</svg>
