<?xml version="1.0" standalone="no"?>
<!DOCTYPE svg PUBLIC "-//W3C//DTD SVG 20010904//EN"
 "http://www.w3.org/TR/2001/REC-SVG-20010904/DTD/svg10.dtd">
<svg version="1.0" xmlns="http://www.w3.org/2000/svg"
 width="29.000000pt" height="44.000000pt" viewBox="0 0 29.000000 44.000000"
 preserveAspectRatio="xMidYMid meet">
<metadata>
Created by potrace 1.16, written by Peter Selinger 2001-2019
</metadata>
<g transform="translate(0.000000,44.000000) scale(0.100000,-0.100000)"
fill="#000000" stroke="none">
<path d="M94 415 l-6 -25 6 -15 5 -15 -49 0 -50 0 0 -44 0 -44 6 -16 6 -16 35
0 35 0 -5 -12 -4 -13 -31 2 -31 3 -6 -33 -7 -33 4 -35 3 -34 35 -1 34 0 7 -30
6 -31 7 -11 7 -12 34 0 34 0 11 19 10 20 0 20 0 21 44 0 44 0 6 22 6 23 0 39
0 38 -27 -5 -28 -5 -17 9 -18 10 0 17 0 18 12 12 12 12 29 0 28 0 -3 52 -3 52
-45 16 -45 16 -3 17 -3 17 -40 0 -39 0 -6 -25z"/>
</g>
</svg>
