<?xml version="1.0" standalone="no"?>
<!DOCTYPE svg PUBLIC "-//W3C//DTD SVG 20010904//EN"
 "http://www.w3.org/TR/2001/REC-SVG-20010904/DTD/svg10.dtd">
<svg version="1.0" xmlns="http://www.w3.org/2000/svg"
 width="27.000000pt" height="42.000000pt" viewBox="0 0 27.000000 42.000000"
 preserveAspectRatio="xMidYMid meet">
<metadata>
Created by potrace 1.16, written by Peter Selinger 2001-2019
</metadata>
<g transform="translate(0.000000,42.000000) scale(0.100000,-0.100000)"
fill="#000000" stroke="none">
<path d="M96 404 l-6 -16 6 -24 6 -24 -51 0 -51 0 0 -37 0 -38 9 -14 9 -13 18
6 19 6 13 -9 14 -8 -4 -19 -4 -19 -32 0 -32 0 -6 -31 -6 -31 4 -24 3 -24 30
-1 30 -1 12 -1 11 -2 -5 -19 -5 -19 11 -21 12 -21 24 0 24 0 12 21 11 21 -5
19 -5 19 48 0 48 0 6 22 6 23 0 28 0 27 -24 -6 -24 -6 -21 12 -21 11 0 27 0
28 12 12 12 12 29 0 28 0 -3 42 -3 42 -45 16 -45 16 -3 17 -3 17 -29 0 -28 0
-6 -16z"/>
</g>
</svg>
