<?xml version="1.0" standalone="no"?>
<!DOCTYPE svg PUBLIC "-//W3C//DTD SVG 20010904//EN"
 "http://www.w3.org/TR/2001/REC-SVG-20010904/DTD/svg10.dtd">
<svg version="1.0" xmlns="http://www.w3.org/2000/svg"
 width="38.000000pt" height="36.000000pt" viewBox="0 0 38.000000 36.000000"
 preserveAspectRatio="xMidYMid meet">
<metadata>
Created by potrace 1.16, written by Peter Selinger 2001-2019
</metadata>
<g transform="translate(0.000000,36.000000) scale(0.100000,-0.100000)"
fill="#000000" stroke="none">
<path d="M105 348 l-4 -13 -3 -20 -3 -20 -48 -3 -47 -3 0 -54 0 -54 33 -3 32
-3 3 -23 4 -23 -19 -5 -19 -5 -12 -45 -12 -44 0 -16 0 -15 57 3 58 3 0 30 0
30 13 0 13 0 12 -25 13 -25 49 -7 49 -7 8 5 8 5 0 45 0 44 35 0 34 0 11 19 10
20 0 13 0 14 -20 22 -21 22 -24 0 -25 0 0 40 0 40 -13 0 -13 0 -11 -11 -11
-11 -23 4 -24 3 -3 27 -3 28 -22 15 -21 15 -19 0 -18 0 -4 -12z"/>
</g>
</svg>
