<?xml version="1.0" standalone="no"?>
<!DOCTYPE svg PUBLIC "-//W3C//DTD SVG 20010904//EN"
 "http://www.w3.org/TR/2001/REC-SVG-20010904/DTD/svg10.dtd">
<svg version="1.0" xmlns="http://www.w3.org/2000/svg"
 width="36.000000pt" height="36.000000pt" viewBox="0 0 36.000000 36.000000"
 preserveAspectRatio="xMidYMid meet">
<metadata>
Created by potrace 1.16, written by Peter Selinger 2001-2019
</metadata>
<g transform="translate(0.000000,36.000000) scale(0.100000,-0.100000)"
fill="#000000" stroke="none">
<path d="M130 350 l-13 -8 7 -17 6 -16 -10 -20 -11 -19 -49 0 -49 0 -6 -20 -6
-20 6 -30 6 -29 20 -6 19 -6 20 6 20 6 0 -30 0 -31 -19 0 -20 0 -8 -12 -8 -13
-12 -35 -12 -34 2 -2 2 -3 53 -7 52 -7 0 42 0 41 19 0 19 0 5 -14 6 -14 -6
-20 -5 -20 66 -4 66 -3 0 58 0 57 23 -5 22 -5 13 8 14 9 -4 29 -3 29 -30 0
-30 0 -3 40 -3 40 -12 7 -12 7 -53 12 -54 11 5 23 4 24 -12 5 -12 4 -13 -8z"/>
</g>
</svg>
