<?xml version="1.0" standalone="no"?>
<!DOCTYPE svg PUBLIC "-//W3C//DTD SVG 20010904//EN"
 "http://www.w3.org/TR/2001/REC-SVG-20010904/DTD/svg10.dtd">
<svg version="1.0" xmlns="http://www.w3.org/2000/svg"
 width="36.000000pt" height="36.000000pt" viewBox="0 0 36.000000 36.000000"
 preserveAspectRatio="xMidYMid meet">
<metadata>
Created by potrace 1.16, written by Peter Selinger 2001-2019
</metadata>
<g transform="translate(0.000000,36.000000) scale(0.100000,-0.100000)"
fill="#000000" stroke="none">
<path d="M107 353 l-7 -7 6 -32 6 -33 -53 -3 -54 -3 0 -45 0 -45 24 3 24 2 13
-11 14 -11 0 -18 0 -17 -23 4 -23 5 -17 -61 -17 -61 0 -8 0 -8 52 6 53 5 5 35
5 35 23 3 22 3 -2 -23 -3 -23 50 -12 50 -13 12 4 11 5 -5 40 -6 41 32 0 32 0
15 15 15 15 -3 27 -3 28 -35 0 -35 0 -3 41 -3 41 -57 -1 -57 -1 -1 26 -1 27
-6 16 -6 16 -19 0 -19 0 -6 -7z"/>
</g>
</svg>
