<?xml version="1.0" standalone="no"?>
<!DOCTYPE svg PUBLIC "-//W3C//DTD SVG 20010904//EN"
 "http://www.w3.org/TR/2001/REC-SVG-20010904/DTD/svg10.dtd">
<svg version="1.0" xmlns="http://www.w3.org/2000/svg"
 width="38.000000pt" height="38.000000pt" viewBox="0 0 38.000000 38.000000"
 preserveAspectRatio="xMidYMid meet">
<metadata>
Created by potrace 1.16, written by Peter Selinger 2001-2019
</metadata>
<g transform="translate(0.000000,38.000000) scale(0.100000,-0.100000)"
fill="#000000" stroke="none">
<path d="M104 365 l-6 -15 6 -24 6 -25 -52 -3 -53 -3 0 -55 0 -55 27 0 28 -1
12 -12 12 -12 -25 0 -26 0 -16 -60 -17 -60 0 -19 0 -20 53 5 52 6 13 4 12 3 0
30 0 30 9 6 10 5 3 -22 3 -23 57 -14 58 -13 16 6 16 6 -7 40 -7 40 32 0 31 0
15 15 15 15 -3 37 -3 38 -37 3 -38 3 0 40 0 39 -57 -2 -58 -3 3 16 2 17 -10
26 -10 26 -30 0 -31 0 -5 -15z"/>
</g>
</svg>
