<?xml version="1.0" standalone="no"?>
<!DOCTYPE svg PUBLIC "-//W3C//DTD SVG 20010904//EN"
 "http://www.w3.org/TR/2001/REC-SVG-20010904/DTD/svg10.dtd">
<svg version="1.0" xmlns="http://www.w3.org/2000/svg"
 width="30.000000pt" height="35.000000pt" viewBox="0 0 30.000000 35.000000"
 preserveAspectRatio="xMidYMid meet">
<metadata>
Created by potrace 1.16, written by Peter Selinger 2001-2019
</metadata>
<g transform="translate(0.000000,35.000000) scale(0.100000,-0.100000)"
fill="#000000" stroke="none">
<path d="M122 313 l3 -38 -58 -3 -58 -3 3 -42 3 -42 35 0 35 0 3 -28 3 -27
-15 -15 -15 -15 -30 0 -31 0 2 -50 2 -50 34 0 33 0 20 11 20 10 -3 27 -3 27
25 0 25 0 -1 -32 -2 -31 22 -6 21 -6 35 0 35 0 12 8 12 7 7 52 6 52 -43 3 -44
3 0 15 0 15 38 3 37 3 0 17 0 17 -6 35 -6 36 -51 -1 -52 0 2 29 2 30 -11 13
-10 13 -20 0 -19 0 3 -37z"/>
</g>
</svg>
