<?xml version="1.0" standalone="no"?>
<!DOCTYPE svg PUBLIC "-//W3C//DTD SVG 20010904//EN"
 "http://www.w3.org/TR/2001/REC-SVG-20010904/DTD/svg10.dtd">
<svg version="1.0" xmlns="http://www.w3.org/2000/svg"
 width="31.000000pt" height="45.000000pt" viewBox="0 0 31.000000 45.000000"
 preserveAspectRatio="xMidYMid meet">
<metadata>
Created by potrace 1.16, written by Peter Selinger 2001-2019
</metadata>
<g transform="translate(0.000000,45.000000) scale(0.100000,-0.100000)"
fill="#000000" stroke="none">
<path d="M108 413 l-3 -38 -42 -3 -41 -3 -12 -14 -12 -14 7 -51 7 -50 23 -6
24 -6 12 7 12 8 -5 -14 -5 -14 -26 -3 -27 -3 -4 -22 -5 -22 -6 -37 -6 -38 30
0 30 0 24 -9 25 -10 -6 -26 -5 -27 14 -9 14 -9 32 0 32 0 15 16 16 15 0 30 0
29 45 0 45 0 0 6 0 5 -17 51 -16 51 -19 5 -18 4 0 15 0 15 35 -6 35 -7 0 65 0
65 -19 11 -20 10 -25 0 -25 0 -8 12 -7 13 -1 20 0 20 -47 3 -47 3 -3 -38z"/>
</g>
</svg>
