<?xml version="1.0" standalone="no"?>
<!DOCTYPE svg PUBLIC "-//W3C//DTD SVG 20010904//EN"
 "http://www.w3.org/TR/2001/REC-SVG-20010904/DTD/svg10.dtd">
<svg version="1.0" xmlns="http://www.w3.org/2000/svg"
 width="30.000000pt" height="38.000000pt" viewBox="0 0 30.000000 38.000000"
 preserveAspectRatio="xMidYMid meet">
<metadata>
Created by potrace 1.16, written by Peter Selinger 2001-2019
</metadata>
<g transform="translate(0.000000,38.000000) scale(0.100000,-0.100000)"
fill="#000000" stroke="none">
<path d="M123 373 l-13 -5 0 -35 0 -36 -50 6 -50 6 -6 -23 -5 -23 3 -44 3 -44
43 -3 42 -3 -5 -10 -6 -9 -40 0 -39 0 0 -70 0 -70 46 0 45 0 20 10 19 11 0 29
0 29 9 6 10 6 11 -21 11 -20 -6 -10 -6 -10 6 -20 6 -20 65 1 65 2 -3 141 -3
141 -47 -3 -48 -3 0 44 0 45 -22 6 -23 6 -10 -1 -10 -1 -12 -5z"/>
</g>
</svg>
