<?xml version="1.0" standalone="no"?>
<!DOCTYPE svg PUBLIC "-//W3C//DTD SVG 20010904//EN"
 "http://www.w3.org/TR/2001/REC-SVG-20010904/DTD/svg10.dtd">
<svg version="1.0" xmlns="http://www.w3.org/2000/svg"
 width="29.000000pt" height="44.000000pt" viewBox="0 0 29.000000 44.000000"
 preserveAspectRatio="xMidYMid meet">
<metadata>
Created by potrace 1.16, written by Peter Selinger 2001-2019
</metadata>
<g transform="translate(0.000000,44.000000) scale(0.100000,-0.100000)"
fill="#000000" stroke="none">
<path d="M120 416 l0 -24 -15 -12 -15 -13 -45 6 -45 7 0 -51 0 -50 10 -20 11
-19 24 0 25 0 0 -10 0 -10 -18 0 -18 0 -17 -55 -17 -56 0 -9 0 -10 33 0 32 0
23 -6 22 -6 0 -23 0 -23 6 -16 6 -16 28 0 29 0 15 16 16 15 0 36 0 35 35 -6
35 -7 0 15 0 16 -12 45 -12 45 -19 0 -18 0 3 28 3 27 33 -3 32 -2 0 52 0 53
-8 11 -7 11 -37 7 -37 7 -6 19 -6 20 -35 0 -34 0 0 -24z"/>
</g>
</svg>
