<?xml version="1.0" standalone="no"?>
<!DOCTYPE svg PUBLIC "-//W3C//DTD SVG 20010904//EN"
 "http://www.w3.org/TR/2001/REC-SVG-20010904/DTD/svg10.dtd">
<svg version="1.0" xmlns="http://www.w3.org/2000/svg"
 width="30.000000pt" height="36.000000pt" viewBox="0 0 30.000000 36.000000"
 preserveAspectRatio="xMidYMid meet">
<metadata>
Created by potrace 1.16, written by Peter Selinger 2001-2019
</metadata>
<g transform="translate(0.000000,36.000000) scale(0.100000,-0.100000)"
fill="#000000" stroke="none">
<path d="M100 337 l0 -23 -12 -12 -12 -12 -38 0 -38 0 0 -34 0 -35 12 -7 12
-8 31 0 30 -1 0 -40 0 -40 -23 -3 -23 -4 -10 -26 -9 -27 -10 -17 -10 -18 0 -5
0 -6 53 3 52 3 -3 38 -4 37 20 0 20 0 12 -15 12 -15 -4 -23 -4 -23 13 -12 13
-13 37 10 37 10 4 -4 5 -5 14 27 13 26 3 31 2 31 -42 3 -43 3 0 24 0 24 33 3
32 3 3 47 3 47 -23 5 -23 5 -37 6 -38 6 0 29 0 30 -30 0 -30 0 0 -23z"/>
</g>
</svg>
