<?xml version="1.0" standalone="no"?>
<!DOCTYPE svg PUBLIC "-//W3C//DTD SVG 20010904//EN"
 "http://www.w3.org/TR/2001/REC-SVG-20010904/DTD/svg10.dtd">
<svg version="1.0" xmlns="http://www.w3.org/2000/svg"
 width="32.000000pt" height="38.000000pt" viewBox="0 0 32.000000 38.000000"
 preserveAspectRatio="xMidYMid meet">
<metadata>
Created by potrace 1.16, written by Peter Selinger 2001-2019
</metadata>
<g transform="translate(0.000000,38.000000) scale(0.100000,-0.100000)"
fill="#000000" stroke="none">
<path d="M100 357 l0 -23 -12 -12 -12 -12 -38 0 -38 0 0 -44 0 -44 13 -10 13
-11 30 2 29 2 0 -30 0 -30 -23 -3 -23 -4 -10 -26 -9 -27 -10 -17 -10 -18 0
-15 0 -16 63 3 62 3 -3 38 -3 37 9 0 10 0 12 -15 12 -14 -7 -21 -6 -20 15 -15
15 -15 54 6 53 6 14 31 13 30 1 36 1 36 -42 3 -43 3 0 14 0 14 33 3 32 3 3 57
3 57 -23 5 -23 5 -37 6 -38 6 0 29 0 30 -40 0 -40 0 0 -23z"/>
</g>
</svg>
