<?xml version="1.0" standalone="no"?>
<!DOCTYPE svg PUBLIC "-//W3C//DTD SVG 20010904//EN"
 "http://www.w3.org/TR/2001/REC-SVG-20010904/DTD/svg10.dtd">
<svg version="1.0" xmlns="http://www.w3.org/2000/svg"
 width="39.000000pt" height="35.000000pt" viewBox="0 0 39.000000 35.000000"
 preserveAspectRatio="xMidYMid meet">
<metadata>
Created by potrace 1.16, written by Peter Selinger 2001-2019
</metadata>
<g transform="translate(0.000000,35.000000) scale(0.100000,-0.100000)"
fill="#000000" stroke="none">
<path d="M199 343 l-1 -8 -1 -30 -2 -30 -49 -5 -50 -5 -9 -35 -9 -35 -10 -12
-10 -13 -9 6 -9 5 -20 -6 -20 -6 0 -23 0 -22 12 -12 12 -12 23 0 23 0 2 -27 1
-28 2 -10 3 -10 1 -12 1 -13 39 0 40 0 16 16 17 17 -5 19 -5 18 18 10 19 10
10 0 10 0 16 -16 16 -16 -7 -20 -6 -20 13 -9 14 -9 38 0 38 0 15 35 14 34 0
31 0 31 -34 -6 -34 -7 -22 12 -21 11 4 12 4 12 39 0 39 0 0 50 0 50 -20 -4
-20 -5 -35 0 -35 -1 -1 32 -1 32 -13 16 -12 15 -14 0 -14 0 -1 -7z"/>
</g>
</svg>
