<?xml version="1.0" standalone="no"?>
<!DOCTYPE svg PUBLIC "-//W3C//DTD SVG 20010904//EN"
 "http://www.w3.org/TR/2001/REC-SVG-20010904/DTD/svg10.dtd">
<svg version="1.0" xmlns="http://www.w3.org/2000/svg"
 width="37.000000pt" height="43.000000pt" viewBox="0 0 37.000000 43.000000"
 preserveAspectRatio="xMidYMid meet">
<metadata>
Created by potrace 1.16, written by Peter Selinger 2001-2019
</metadata>
<g transform="translate(0.000000,43.000000) scale(0.100000,-0.100000)"
fill="#000000" stroke="none">
<path d="M183 409 l6 -22 -10 -19 -10 -18 -49 0 -50 0 0 -43 0 -42 -32 0 -33
0 -3 -37 -3 -38 19 0 18 0 13 -50 13 -50 11 -1 12 -1 10 2 9 1 33 -6 32 -6 3
-37 3 -37 27 -3 27 -3 10 18 9 19 -1 19 -2 20 52 0 52 0 12 42 11 42 -6 16 -6
16 -20 -6 -19 -6 -21 11 -21 11 3 27 3 27 30 0 30 1 3 47 3 47 -60 0 -60 0 -3
38 -3 37 -24 3 -24 4 6 -23z"/>
</g>
</svg>
