<?xml version="1.0" standalone="no"?>
<!DOCTYPE svg PUBLIC "-//W3C//DTD SVG 20010904//EN"
 "http://www.w3.org/TR/2001/REC-SVG-20010904/DTD/svg10.dtd">
<svg version="1.0" xmlns="http://www.w3.org/2000/svg"
 width="43.000000pt" height="41.000000pt" viewBox="0 0 43.000000 41.000000"
 preserveAspectRatio="xMidYMid meet">
<metadata>
Created by potrace 1.16, written by Peter Selinger 2001-2019
</metadata>
<g transform="translate(0.000000,41.000000) scale(0.100000,-0.100000)"
fill="#000000" stroke="none">
<path d="M173 382 l6 -30 -15 -12 -14 -13 -43 5 -42 5 0 -51 0 -50 -30 -1 -30
0 -3 -27 -3 -27 20 -10 20 -11 23 3 23 2 0 -30 -1 -30 -7 -20 -7 -20 48 0 47
0 0 -30 0 -30 33 -3 32 -3 1 13 1 13 -2 18 -2 19 55 -4 54 -3 11 25 11 25 10
27 10 26 23 4 23 3 0 40 0 40 -30 1 -31 0 -12 8 -12 7 0 34 0 34 -56 7 -55 6
3 32 3 31 -34 3 -34 3 6 -29z"/>
</g>
</svg>
