<?xml version="1.0" standalone="no"?>
<!DOCTYPE svg PUBLIC "-//W3C//DTD SVG 20010904//EN"
 "http://www.w3.org/TR/2001/REC-SVG-20010904/DTD/svg10.dtd">
<svg version="1.0" xmlns="http://www.w3.org/2000/svg"
 width="45.000000pt" height="43.000000pt" viewBox="0 0 45.000000 43.000000"
 preserveAspectRatio="xMidYMid meet">
<metadata>
Created by potrace 1.16, written by Peter Selinger 2001-2019
</metadata>
<g transform="translate(0.000000,43.000000) scale(0.100000,-0.100000)"
fill="#000000" stroke="none">
<path d="M168 393 l-3 -38 -52 2 -52 2 6 -49 6 -49 -34 -3 -34 -3 -3 -35 -4
-34 18 -13 18 -13 29 0 29 0 -6 -22 -6 -23 -6 -27 -6 -28 45 6 46 7 3 -34 3
-34 42 -3 41 -3 7 20 6 21 -7 11 -7 12 54 -6 55 -5 11 26 12 27 10 27 10 26
23 4 23 3 0 50 0 50 -40 5 -40 5 -3 37 -3 37 -54 6 -55 7 3 32 2 31 -42 3 -42
3 -3 -38z"/>
</g>
</svg>
