<?xml version="1.0" standalone="no"?>
<!DOCTYPE svg PUBLIC "-//W3C//DTD SVG 20010904//EN"
 "http://www.w3.org/TR/2001/REC-SVG-20010904/DTD/svg10.dtd">
<svg version="1.0" xmlns="http://www.w3.org/2000/svg"
 width="34.000000pt" height="35.000000pt" viewBox="0 0 34.000000 35.000000"
 preserveAspectRatio="xMidYMid meet">
<metadata>
Created by potrace 1.16, written by Peter Selinger 2001-2019
</metadata>
<g transform="translate(0.000000,35.000000) scale(0.100000,-0.100000)"
fill="#000000" stroke="none">
<path d="M7 343 l-7 -6 0 -49 0 -49 11 6 10 7 25 -6 25 -7 -3 -27 -3 -27 -26
-3 -27 -3 -6 -40 -6 -40 5 -10 6 -9 40 0 40 0 -3 -37 -3 -38 35 0 34 0 6 24 6
25 53 14 53 15 -7 21 -7 21 -5 30 -5 30 37 0 38 0 11 17 11 18 -11 17 -11 18
-24 0 -24 1 0 47 0 47 -131 0 -131 0 -6 -7z"/>
</g>
</svg>
