<?xml version="1.0" standalone="no"?>
<!DOCTYPE svg PUBLIC "-//W3C//DTD SVG 20010904//EN"
 "http://www.w3.org/TR/2001/REC-SVG-20010904/DTD/svg10.dtd">
<svg version="1.0" xmlns="http://www.w3.org/2000/svg"
 width="36.000000pt" height="30.000000pt" viewBox="0 0 36.000000 30.000000"
 preserveAspectRatio="xMidYMid meet">
<metadata>
Created by potrace 1.16, written by Peter Selinger 2001-2019
</metadata>
<g transform="translate(0.000000,30.000000) scale(0.100000,-0.100000)"
fill="#000000" stroke="none">
<path d="M10 273 l0 -28 -6 -37 -7 -38 47 0 46 0 0 -25 0 -25 -20 0 -20 0 -11
-27 -11 -28 -5 -33 -6 -33 54 3 54 3 0 30 1 30 22 3 22 3 0 -35 0 -36 61 0 61
0 -8 42 -7 43 -1 15 -1 15 22 -3 22 -3 21 11 20 11 0 29 0 30 -35 0 -35 0 0
45 0 45 -7 0 -8 0 -50 -13 -50 -13 -3 -23 -4 -22 -21 3 -22 3 3 27 3 27 -18 9
-18 9 -42 7 -43 6 0 -27z"/>
</g>
</svg>
