<?xml version="1.0" standalone="no"?>
<!DOCTYPE svg PUBLIC "-//W3C//DTD SVG 20010904//EN"
 "http://www.w3.org/TR/2001/REC-SVG-20010904/DTD/svg10.dtd">
<svg version="1.0" xmlns="http://www.w3.org/2000/svg"
 width="35.000000pt" height="29.000000pt" viewBox="0 0 35.000000 29.000000"
 preserveAspectRatio="xMidYMid meet">
<metadata>
Created by potrace 1.16, written by Peter Selinger 2001-2019
</metadata>
<g transform="translate(0.000000,29.000000) scale(0.100000,-0.100000)"
fill="#000000" stroke="none">
<path d="M236 258 l5 -33 -14 -19 -13 -18 -33 7 -32 7 6 28 6 29 -20 10 -20
11 -20 0 -21 0 0 -35 0 -34 -12 -26 -12 -26 -24 3 -25 3 -4 -12 -5 -13 25 -9
25 -10 6 -10 7 -11 3 -47 2 -47 50 3 49 3 8 5 8 5 -6 17 -5 17 14 19 13 18 17
-6 17 -7 -3 -27 -3 -28 55 -7 55 -7 8 8 8 8 -3 49 -3 49 -35 0 -35 0 -3 23 -3
22 13 4 13 4 28 6 27 6 0 44 0 43 -46 7 -47 6 -13 0 -13 0 5 -32z"/>
</g>
</svg>
