<?xml version="1.0" standalone="no"?>
<!DOCTYPE svg PUBLIC "-//W3C//DTD SVG 20010904//EN"
 "http://www.w3.org/TR/2001/REC-SVG-20010904/DTD/svg10.dtd">
<svg version="1.0" xmlns="http://www.w3.org/2000/svg"
 width="42.000000pt" height="36.000000pt" viewBox="0 0 42.000000 36.000000"
 preserveAspectRatio="xMidYMid meet">
<metadata>
Created by potrace 1.16, written by Peter Selinger 2001-2019
</metadata>
<g transform="translate(0.000000,36.000000) scale(0.100000,-0.100000)"
fill="#000000" stroke="none">
<path d="M80 305 l0 -45 -27 -6 -28 -6 -13 -4 -13 -4 3 -22 3 -23 35 0 35 0 0
-60 0 -60 54 4 54 3 -6 -30 -6 -29 12 -12 11 -11 18 0 17 0 11 19 10 20 0 30
0 31 19 0 20 0 27 -10 27 -11 -7 51 -7 50 36 0 35 0 12 26 12 25 -15 10 -14 9
-22 -3 -22 -4 -5 13 -5 13 6 35 6 36 -19 0 -19 0 -37 -6 -37 -6 -3 -27 -3 -26
-30 0 -30 0 3 31 3 31 -23 7 -23 6 -27 0 -28 0 0 -45z"/>
</g>
</svg>
