<?xml version="1.0" standalone="no"?>
<!DOCTYPE svg PUBLIC "-//W3C//DTD SVG 20010904//EN"
 "http://www.w3.org/TR/2001/REC-SVG-20010904/DTD/svg10.dtd">
<svg version="1.0" xmlns="http://www.w3.org/2000/svg"
 width="44.000000pt" height="38.000000pt" viewBox="0 0 44.000000 38.000000"
 preserveAspectRatio="xMidYMid meet">
<metadata>
Created by potrace 1.16, written by Peter Selinger 2001-2019
</metadata>
<g transform="translate(0.000000,38.000000) scale(0.100000,-0.100000)"
fill="#000000" stroke="none">
<path d="M77 331 l6 -50 -29 -6 -29 -7 -13 -4 -13 -4 3 -32 3 -33 39 -3 39 -3
-6 -59 -7 -59 56 6 55 6 -7 -27 -6 -26 12 -15 12 -15 29 0 28 0 11 19 10 20 0
32 0 31 23 -6 22 -6 24 -7 24 -6 -5 52 -5 51 33 0 33 0 11 19 10 20 0 20 0 21
-27 6 -28 6 -10 2 -9 2 3 42 3 42 -29 0 -28 0 -37 -6 -37 -6 -3 -27 -3 -26
-17 -3 -18 -3 0 35 0 35 -37 6 -38 6 -27 5 -27 5 6 -50z"/>
</g>
</svg>
