<?xml version="1.0" standalone="no"?>
<!DOCTYPE svg PUBLIC "-//W3C//DTD SVG 20010904//EN"
 "http://www.w3.org/TR/2001/REC-SVG-20010904/DTD/svg10.dtd">
<svg version="1.0" xmlns="http://www.w3.org/2000/svg"
 width="38.000000pt" height="37.000000pt" viewBox="0 0 38.000000 37.000000"
 preserveAspectRatio="xMidYMid meet">
<metadata>
Created by potrace 1.16, written by Peter Selinger 2001-2019
</metadata>
<g transform="translate(0.000000,37.000000) scale(0.100000,-0.100000)"
fill="#000000" stroke="none">
<path d="M190 335 l0 -34 -19 -11 -20 -10 -10 0 -11 0 0 40 0 40 -54 0 -53 0
-7 -49 -6 -48 6 -18 7 -17 19 6 20 5 14 -6 14 -5 -11 -19 -10 -19 -36 0 -36 0
7 -46 6 -47 0 -13 0 -14 45 0 45 0 0 -23 0 -23 12 -12 12 -12 32 0 32 0 6 16
6 16 0 29 0 29 48 -3 47 -2 5 55 5 55 35 0 35 0 3 28 3 27 -25 0 -24 0 -16 6
-16 6 0 48 0 48 -22 6 -23 6 -32 0 -33 0 0 -35z"/>
</g>
</svg>
