<?xml version="1.0" standalone="no"?>
<!DOCTYPE svg PUBLIC "-//W3C//DTD SVG 20010904//EN"
 "http://www.w3.org/TR/2001/REC-SVG-20010904/DTD/svg10.dtd">
<svg version="1.0" xmlns="http://www.w3.org/2000/svg"
 width="43.000000pt" height="34.000000pt" viewBox="0 0 43.000000 34.000000"
 preserveAspectRatio="xMidYMid meet">
<metadata>
Created by potrace 1.16, written by Peter Selinger 2001-2019
</metadata>
<g transform="translate(0.000000,34.000000) scale(0.100000,-0.100000)"
fill="#000000" stroke="none">
<path d="M264 327 l-6 -16 6 -10 7 -10 -21 -21 -20 -20 -17 0 -18 0 -13 9 -14
8 4 29 3 29 -41 3 -40 3 -10 -48 -9 -48 -35 -5 -35 -5 -3 -18 -4 -18 13 -15
12 -14 18 5 18 6 10 -20 11 -20 0 -35 0 -36 50 0 50 0 0 -31 0 -30 32 3 33 3
5 30 6 30 43 -2 44 -2 -5 47 -6 47 5 13 5 12 31 0 32 0 15 10 15 9 -11 18 -12
18 -36 -3 -36 -3 0 51 0 50 -12 0 -13 0 -22 6 -23 6 -6 -15z"/>
</g>
</svg>
