<?xml version="1.0" standalone="no"?>
<!DOCTYPE svg PUBLIC "-//W3C//DTD SVG 20010904//EN"
 "http://www.w3.org/TR/2001/REC-SVG-20010904/DTD/svg10.dtd">
<svg version="1.0" xmlns="http://www.w3.org/2000/svg"
 width="45.000000pt" height="36.000000pt" viewBox="0 0 45.000000 36.000000"
 preserveAspectRatio="xMidYMid meet">
<metadata>
Created by potrace 1.16, written by Peter Selinger 2001-2019
</metadata>
<g transform="translate(0.000000,36.000000) scale(0.100000,-0.100000)"
fill="#000000" stroke="none">
<path d="M267 353 l-7 -6 0 -28 0 -28 -19 -11 -20 -10 -15 6 -16 6 3 32 2 31
-51 3 -50 3 -10 -48 -9 -48 -35 -5 -35 -5 -3 -28 -3 -28 12 -15 11 -14 23 0
23 0 6 -16 6 -16 0 -34 0 -34 50 0 50 0 0 -31 0 -30 43 3 42 3 3 25 4 25 8 9
8 8 37 -12 36 -12 4 4 4 4 -7 50 -8 50 4 12 4 12 28 0 28 0 16 6 16 6 0 23 0
23 -15 12 -15 12 -30 -6 -30 -5 0 48 0 49 -31 6 -31 6 -13 0 -12 0 -6 -7z"/>
</g>
</svg>
