<?xml version="1.0" standalone="no"?>
<!DOCTYPE svg PUBLIC "-//W3C//DTD SVG 20010904//EN"
 "http://www.w3.org/TR/2001/REC-SVG-20010904/DTD/svg10.dtd">
<svg version="1.0" xmlns="http://www.w3.org/2000/svg"
 width="37.000000pt" height="41.000000pt" viewBox="0 0 37.000000 41.000000"
 preserveAspectRatio="xMidYMid meet">
<metadata>
Created by potrace 1.16, written by Peter Selinger 2001-2019
</metadata>
<g transform="translate(0.000000,41.000000) scale(0.100000,-0.100000)"
fill="#000000" stroke="none">
<path d="M137 403 l-7 -6 0 -23 0 -23 -33 -6 -34 -7 -19 4 -19 3 -3 -47 -3
-47 21 -11 22 -12 14 6 14 5 0 -18 0 -19 -14 -11 -14 -12 -25 6 -24 6 -6 -14
-5 -15 5 -41 6 -41 56 0 56 0 0 -37 0 -38 40 0 40 0 3 33 3 32 27 0 27 0 14 9
13 8 -12 22 -11 22 3 32 3 32 25 -2 25 -2 23 5 22 4 0 22 0 21 -40 -6 -40 -5
0 54 0 54 -27 -6 -28 -7 -4 -3 -4 -3 -19 10 -20 11 6 21 5 21 -11 13 -10 13
-18 0 -17 0 -6 -7z"/>
</g>
</svg>
