<?xml version="1.0" standalone="no"?>
<!DOCTYPE svg PUBLIC "-//W3C//DTD SVG 20010904//EN"
 "http://www.w3.org/TR/2001/REC-SVG-20010904/DTD/svg10.dtd">
<svg version="1.0" xmlns="http://www.w3.org/2000/svg"
 width="39.000000pt" height="43.000000pt" viewBox="0 0 39.000000 43.000000"
 preserveAspectRatio="xMidYMid meet">
<metadata>
Created by potrace 1.16, written by Peter Selinger 2001-2019
</metadata>
<g transform="translate(0.000000,43.000000) scale(0.100000,-0.100000)"
fill="#000000" stroke="none">
<path d="M137 423 l-7 -6 0 -24 0 -23 -17 -2 -18 -2 -35 0 -35 -1 0 -60 0 -60
34 -11 34 -11 -14 -9 -14 -8 -26 2 -26 3 -7 -17 -6 -17 6 -48 7 -49 53 0 53 0
3 -37 3 -38 50 0 50 0 3 32 3 33 27 0 27 0 14 9 15 9 -14 40 -13 41 6 14 6 15
20 -5 21 -5 25 6 25 6 0 30 0 30 -40 0 -40 0 0 50 0 50 -47 -3 -48 -2 3 23 3
23 -11 15 -12 14 -28 0 -27 0 -6 -7z"/>
</g>
</svg>
