<?xml version="1.0" standalone="no"?>
<!DOCTYPE svg PUBLIC "-//W3C//DTD SVG 20010904//EN"
 "http://www.w3.org/TR/2001/REC-SVG-20010904/DTD/svg10.dtd">
<svg version="1.0" xmlns="http://www.w3.org/2000/svg"
 width="37.000000pt" height="44.000000pt" viewBox="0 0 37.000000 44.000000"
 preserveAspectRatio="xMidYMid meet">
<metadata>
Created by potrace 1.16, written by Peter Selinger 2001-2019
</metadata>
<g transform="translate(0.000000,44.000000) scale(0.100000,-0.100000)"
fill="#000000" stroke="none">
<path d="M195 428 l-4 -13 -3 -20 -4 -20 -53 1 -53 2 5 -32 6 -31 -8 -20 -8
-20 -34 0 -34 0 -3 -29 -4 -28 11 -11 11 -11 42 -5 43 -6 -4 -25 -4 -25 -1
-20 -1 -20 35 -5 35 -5 -3 -32 -3 -32 20 -10 20 -11 20 0 20 0 15 16 16 15 0
30 0 29 51 0 52 0 -7 31 -6 31 0 114 0 114 -34 0 -34 0 -16 6 -16 6 0 24 0 24
-30 0 -31 0 -4 -12z"/>
</g>
</svg>
