<?xml version="1.0" standalone="no"?>
<!DOCTYPE svg PUBLIC "-//W3C//DTD SVG 20010904//EN"
 "http://www.w3.org/TR/2001/REC-SVG-20010904/DTD/svg10.dtd">
<svg version="1.0" xmlns="http://www.w3.org/2000/svg"
 width="33.000000pt" height="32.000000pt" viewBox="0 0 33.000000 32.000000"
 preserveAspectRatio="xMidYMid meet">
<metadata>
Created by potrace 1.16, written by Peter Selinger 2001-2019
</metadata>
<g transform="translate(0.000000,32.000000) scale(0.100000,-0.100000)"
fill="#000000" stroke="none">
<path d="M204 289 l6 -30 -16 -25 -16 -24 -14 0 -13 0 -11 19 -10 20 0 26 0
26 -52 -3 -53 -3 -3 -57 -3 -58 36 0 37 0 -4 -12 -5 -13 -39 -5 -39 -5 -3 -17
-3 -18 11 -54 11 -55 52 5 52 6 14 4 13 4 -6 35 -7 35 20 0 20 0 7 -12 8 -12
0 -31 1 -30 63 2 64 2 5 4 4 5 -10 39 -10 38 -6 28 -5 27 -25 0 -25 0 0 16 0
15 20 -6 21 -7 14 12 15 12 0 53 0 52 -39 11 -38 12 -23 0 -22 0 6 -31z"/>
</g>
</svg>
