<?xml version="1.0" standalone="no"?>
<!DOCTYPE svg PUBLIC "-//W3C//DTD SVG 20010904//EN"
 "http://www.w3.org/TR/2001/REC-SVG-20010904/DTD/svg10.dtd">
<svg version="1.0" xmlns="http://www.w3.org/2000/svg"
 width="31.000000pt" height="30.000000pt" viewBox="0 0 31.000000 30.000000"
 preserveAspectRatio="xMidYMid meet">
<metadata>
Created by potrace 1.16, written by Peter Selinger 2001-2019
</metadata>
<g transform="translate(0.000000,30.000000) scale(0.100000,-0.100000)"
fill="#000000" stroke="none">
<path d="M206 271 l6 -29 -17 -26 -17 -26 -24 0 -23 0 -11 19 -10 20 0 26 0
26 -42 -3 -43 -3 -3 -47 -3 -48 35 0 36 0 0 -20 0 -19 -18 -10 -19 -10 -20 5
-21 6 -7 -11 -6 -11 11 -53 10 -53 53 6 52 5 -3 38 -4 37 30 0 30 0 11 -14 12
-14 -6 -25 -7 -25 12 -7 11 -7 48 7 49 7 -9 31 -8 32 -6 28 -6 28 -22 -3 -22
-3 -3 28 -3 29 23 -3 23 -3 13 7 12 8 0 43 0 43 -39 11 -38 12 -11 0 -11 0 5
-29z"/>
</g>
</svg>
