<?xml version="1.0" standalone="no"?>
<!DOCTYPE svg PUBLIC "-//W3C//DTD SVG 20010904//EN"
 "http://www.w3.org/TR/2001/REC-SVG-20010904/DTD/svg10.dtd">
<svg version="1.0" xmlns="http://www.w3.org/2000/svg"
 width="45.000000pt" height="39.000000pt" viewBox="0 0 45.000000 39.000000"
 preserveAspectRatio="xMidYMid meet">
<metadata>
Created by potrace 1.16, written by Peter Selinger 2001-2019
</metadata>
<g transform="translate(0.000000,39.000000) scale(0.100000,-0.100000)"
fill="#000000" stroke="none">
<path d="M270 358 l0 -34 -12 -12 -12 -12 -18 0 -18 0 0 29 0 29 -16 6 -16 6
-49 0 -49 0 0 -45 0 -45 -23 0 -23 0 -18 -13 -18 -13 4 -29 3 -30 25 -4 25 -3
7 -12 8 -11 0 -42 0 -43 55 0 55 0 0 -34 0 -34 16 -6 16 -6 22 0 22 0 12 12
12 12 0 16 0 15 52 13 51 12 5 4 5 5 -17 41 -16 40 0 10 0 10 33 0 32 0 13 9
14 8 -4 29 -3 29 -32 3 -33 3 0 44 0 44 -18 10 -17 9 -38 7 -37 7 0 -34z"/>
</g>
</svg>
