<?xml version="1.0" standalone="no"?>
<!DOCTYPE svg PUBLIC "-//W3C//DTD SVG 20010904//EN"
 "http://www.w3.org/TR/2001/REC-SVG-20010904/DTD/svg10.dtd">
<svg version="1.0" xmlns="http://www.w3.org/2000/svg"
 width="38.000000pt" height="36.000000pt" viewBox="0 0 38.000000 36.000000"
 preserveAspectRatio="xMidYMid meet">
<metadata>
Created by potrace 1.16, written by Peter Selinger 2001-2019
</metadata>
<g transform="translate(0.000000,36.000000) scale(0.100000,-0.100000)"
fill="#000000" stroke="none">
<path d="M130 345 l-12 -14 7 -31 7 -30 -64 0 -63 0 4 -46 3 -46 24 5 25 4 10
-19 10 -19 -6 -20 -7 -20 -11 2 -12 1 -12 -1 -13 -1 0 -24 0 -25 -10 -25 -10
-26 54 0 53 0 17 19 17 19 -3 17 -3 18 10 3 10 4 15 -10 14 -9 1 -33 0 -33 43
-3 42 -3 15 15 15 15 0 23 0 23 6 23 6 23 18 -6 18 -6 16 16 15 16 -11 25 -12
26 -33 -5 -33 -6 0 45 0 45 -22 -7 -23 -8 -35 -1 -35 0 3 33 2 33 -10 19 -11
20 -8 0 -9 0 -12 -15z"/>
</g>
</svg>
