<?xml version="1.0" standalone="no"?>
<!DOCTYPE svg PUBLIC "-//W3C//DTD SVG 20010904//EN"
 "http://www.w3.org/TR/2001/REC-SVG-20010904/DTD/svg10.dtd">
<svg version="1.0" xmlns="http://www.w3.org/2000/svg"
 width="45.000000pt" height="36.000000pt" viewBox="0 0 45.000000 36.000000"
 preserveAspectRatio="xMidYMid meet">
<metadata>
Created by potrace 1.16, written by Peter Selinger 2001-2019
</metadata>
<g transform="translate(0.000000,36.000000) scale(0.100000,-0.100000)"
fill="#000000" stroke="none">
<path d="M188 333 l-3 -28 -47 -3 -48 -3 0 -45 0 -44 -39 0 -39 0 -6 -24 -6
-24 6 -16 6 -15 21 -3 22 -3 15 -62 15 -61 55 5 55 5 13 4 13 4 -3 27 -3 28
18 3 17 3 0 -20 0 -20 9 -5 9 -6 60 -6 60 -7 6 40 7 39 22 9 22 10 3 33 3 33
-12 15 -11 14 -24 0 -23 0 -3 43 -3 42 -55 5 -55 5 0 25 0 25 -37 3 -37 3 -3
-28z"/>
</g>
</svg>
