<?xml version="1.0" standalone="no"?>
<!DOCTYPE svg PUBLIC "-//W3C//DTD SVG 20010904//EN"
 "http://www.w3.org/TR/2001/REC-SVG-20010904/DTD/svg10.dtd">
<svg version="1.0" xmlns="http://www.w3.org/2000/svg"
 width="46.000000pt" height="38.000000pt" viewBox="0 0 46.000000 38.000000"
 preserveAspectRatio="xMidYMid meet">
<metadata>
Created by potrace 1.16, written by Peter Selinger 2001-2019
</metadata>
<g transform="translate(0.000000,38.000000) scale(0.100000,-0.100000)"
fill="#000000" stroke="none">
<path d="M255 368 l-4 -13 -3 -29 -3 -29 -12 -5 -13 -4 0 21 0 21 -24 15 -24
16 -44 -3 -43 -3 -3 -37 -3 -38 -30 0 -29 0 -11 -24 -12 -25 7 -25 6 -26 24 0
24 0 6 -22 6 -23 0 -27 0 -28 60 0 60 0 0 -34 0 -34 16 -6 16 -6 34 0 34 0 0
23 0 23 50 13 49 13 7 44 6 44 18 0 18 0 11 14 12 15 -3 43 -3 43 -32 -1 -31
-2 -6 22 -6 21 0 21 0 22 -44 11 -45 11 -16 0 -16 0 -4 -12z"/>
</g>
</svg>
