<?xml version="1.0" standalone="no"?>
<!DOCTYPE svg PUBLIC "-//W3C//DTD SVG 20010904//EN"
 "http://www.w3.org/TR/2001/REC-SVG-20010904/DTD/svg10.dtd">
<svg version="1.0" xmlns="http://www.w3.org/2000/svg"
 width="27.000000pt" height="30.000000pt" viewBox="0 0 27.000000 30.000000"
 preserveAspectRatio="xMidYMid meet">
<metadata>
Created by potrace 1.16, written by Peter Selinger 2001-2019
</metadata>
<g transform="translate(0.000000,30.000000) scale(0.100000,-0.100000)"
fill="#000000" stroke="none">
<path d="M177 294 l-6 -6 5 -28 6 -28 -11 -21 -12 -21 -17 0 -18 0 -12 12 -12
12 0 33 0 33 -50 0 -50 0 0 -22 0 -23 6 -23 7 -23 31 3 31 3 3 -33 3 -33 -12
-15 -12 -15 -13 5 -13 5 -5 -7 -4 -7 -7 -42 -7 -43 39 0 38 0 11 8 11 7 -1 30
-1 30 27 3 28 3 9 -24 9 -24 33 -7 33 -6 7 7 7 8 -5 33 -5 32 -22 0 -22 0 -12
12 -12 12 0 22 0 23 19 6 19 6 13 -3 12 -3 14 25 13 25 0 21 0 22 -27 6 -28 7
-16 5 -15 4 -7 -6z"/>
</g>
</svg>
