<?xml version="1.0" standalone="no"?>
<!DOCTYPE svg PUBLIC "-//W3C//DTD SVG 20010904//EN"
 "http://www.w3.org/TR/2001/REC-SVG-20010904/DTD/svg10.dtd">
<svg version="1.0" xmlns="http://www.w3.org/2000/svg"
 width="29.000000pt" height="32.000000pt" viewBox="0 0 29.000000 32.000000"
 preserveAspectRatio="xMidYMid meet">
<metadata>
Created by potrace 1.16, written by Peter Selinger 2001-2019
</metadata>
<g transform="translate(0.000000,32.000000) scale(0.100000,-0.100000)"
fill="#000000" stroke="none">
<path d="M175 310 l-6 -10 6 -28 6 -27 -15 -20 -14 -19 -16 13 -16 13 0 34 0
34 -60 0 -60 0 0 -32 0 -33 6 -22 6 -23 35 0 34 0 -3 -27 -3 -27 -24 -6 -25
-6 -12 -54 -13 -55 -1 -8 0 -7 43 6 42 5 23 5 23 5 -3 32 -3 31 17 4 18 3 9
-23 9 -23 47 -13 48 -13 4 5 5 5 -7 50 -7 50 -25 3 -26 3 -11 17 -10 17 7 7 7
7 27 1 27 1 13 25 13 25 0 31 0 32 -44 11 -45 11 -10 0 -10 0 -6 -10z"/>
</g>
</svg>
