<?xml version="1.0" standalone="no"?>
<!DOCTYPE svg PUBLIC "-//W3C//DTD SVG 20010904//EN"
 "http://www.w3.org/TR/2001/REC-SVG-20010904/DTD/svg10.dtd">
<svg version="1.0" xmlns="http://www.w3.org/2000/svg"
 width="41.000000pt" height="34.000000pt" viewBox="0 0 41.000000 34.000000"
 preserveAspectRatio="xMidYMid meet">
<metadata>
Created by potrace 1.16, written by Peter Selinger 2001-2019
</metadata>
<g transform="translate(0.000000,34.000000) scale(0.100000,-0.100000)"
fill="#000000" stroke="none">
<path d="M177 329 l-17 -10 0 -30 0 -30 -47 7 -48 6 0 -54 0 -53 -32 -3 -33
-3 0 -24 0 -24 43 -3 42 -3 -3 -35 -3 -35 -9 -9 -10 -10 0 -8 0 -8 34 0 35 0
25 10 26 10 0 24 0 25 9 6 10 5 8 -12 7 -13 -3 -22 -2 -23 63 0 63 0 -3 52 -4
53 39 0 38 0 0 25 0 25 -29 0 -29 1 -8 19 -8 20 0 35 -1 35 -47 0 -48 0 -3 23
-3 22 -17 9 -18 9 -17 -9z"/>
</g>
</svg>
