<?xml version="1.0" standalone="no"?>
<!DOCTYPE svg PUBLIC "-//W3C//DTD SVG 20010904//EN"
 "http://www.w3.org/TR/2001/REC-SVG-20010904/DTD/svg10.dtd">
<svg version="1.0" xmlns="http://www.w3.org/2000/svg"
 width="45.000000pt" height="38.000000pt" viewBox="0 0 45.000000 38.000000"
 preserveAspectRatio="xMidYMid meet">
<metadata>
Created by potrace 1.16, written by Peter Selinger 2001-2019
</metadata>
<g transform="translate(0.000000,38.000000) scale(0.100000,-0.100000)"
fill="#000000" stroke="none">
<path d="M207 373 l-7 -6 0 -29 0 -28 -55 0 -55 0 0 -44 0 -45 -42 -3 -43 -3
0 -40 0 -40 40 -1 40 -1 -2 -61 -1 -62 41 6 42 5 23 5 22 4 0 35 0 35 14 0 14
0 5 -12 4 -13 -4 -31 -5 -32 20 -6 20 -7 29 7 28 6 16 4 17 5 17 64 18 65 23
-6 24 -6 0 29 0 29 -12 12 -12 12 -28 0 -28 0 0 48 0 48 -51 13 -52 13 -4 19
-5 19 -22 0 -23 0 -6 -7z"/>
</g>
</svg>
