<?xml version="1.0" standalone="no"?>
<!DOCTYPE svg PUBLIC "-//W3C//DTD SVG 20010904//EN"
 "http://www.w3.org/TR/2001/REC-SVG-20010904/DTD/svg10.dtd">
<svg version="1.0" xmlns="http://www.w3.org/2000/svg"
 width="43.000000pt" height="36.000000pt" viewBox="0 0 43.000000 36.000000"
 preserveAspectRatio="xMidYMid meet">
<metadata>
Created by potrace 1.16, written by Peter Selinger 2001-2019
</metadata>
<g transform="translate(0.000000,36.000000) scale(0.100000,-0.100000)"
fill="#000000" stroke="none">
<path d="M207 353 l-7 -6 0 -29 0 -28 -54 0 -55 0 -3 -47 -3 -48 -40 0 -40 0
0 -30 0 -30 38 0 38 0 8 -14 9 -13 -4 -17 -3 -16 -5 -31 -5 -30 32 3 32 4 24
5 23 5 -5 34 -5 33 14 6 14 5 15 -5 14 -6 6 -18 6 -18 -6 -25 -6 -24 15 -6 16
-6 13 3 12 4 26 6 27 6 18 66 17 66 24 -5 23 -4 0 17 0 18 -14 11 -13 11 -24
-2 -24 -3 -3 50 -3 50 -60 18 -61 18 6 14 5 15 -13 0 -13 0 -6 -7z"/>
</g>
</svg>
