<?xml version="1.0" standalone="no"?>
<!DOCTYPE svg PUBLIC "-//W3C//DTD SVG 20010904//EN"
 "http://www.w3.org/TR/2001/REC-SVG-20010904/DTD/svg10.dtd">
<svg version="1.0" xmlns="http://www.w3.org/2000/svg"
 width="39.000000pt" height="38.000000pt" viewBox="0 0 39.000000 38.000000"
 preserveAspectRatio="xMidYMid meet">
<metadata>
Created by potrace 1.16, written by Peter Selinger 2001-2019
</metadata>
<g transform="translate(0.000000,38.000000) scale(0.100000,-0.100000)"
fill="#000000" stroke="none">
<path d="M24 366 l-5 -14 3 -43 3 -44 22 0 23 -1 11 -11 12 -12 -13 -16 -14
-17 -34 7 -34 6 6 -48 6 -48 0 -22 0 -22 50 6 49 6 3 -44 3 -44 28 -3 28 -3
15 12 14 11 0 49 0 48 33 -11 32 -10 20 -2 20 -1 -2 48 -1 47 33 0 33 0 11 14
12 15 -3 28 -3 28 -35 5 -35 5 -3 48 -3 47 -140 0 -140 0 -5 -14z"/>
</g>
</svg>
