<?xml version="1.0" standalone="no"?>
<!DOCTYPE svg PUBLIC "-//W3C//DTD SVG 20010904//EN"
 "http://www.w3.org/TR/2001/REC-SVG-20010904/DTD/svg10.dtd">
<svg version="1.0" xmlns="http://www.w3.org/2000/svg"
 width="41.000000pt" height="27.000000pt" viewBox="0 0 41.000000 27.000000"
 preserveAspectRatio="xMidYMid meet">
<metadata>
Created by potrace 1.16, written by Peter Selinger 2001-2019
</metadata>
<g transform="translate(0.000000,27.000000) scale(0.100000,-0.100000)"
fill="#000000" stroke="none">
<path d="M70 226 l0 -45 -12 -8 -13 -7 -23 3 -23 3 3 -29 3 -28 22 3 22 3 6
-28 6 -28 7 -30 8 -30 20 -3 20 -3 27 10 27 11 0 30 0 31 33 -3 32 -3 -2 -22
-2 -21 12 -10 12 -10 40 -4 40 -3 3 52 3 52 32 3 32 3 3 23 4 23 -13 15 -13
16 -23 -5 -23 -4 0 43 0 44 -34 0 -34 0 -14 -5 -14 -6 4 -29 4 -30 -23 -9 -24
-9 -18 10 -19 10 4 34 4 34 -53 0 -53 0 0 -44z"/>
</g>
</svg>
