<?xml version="1.0" standalone="no"?>
<!DOCTYPE svg PUBLIC "-//W3C//DTD SVG 20010904//EN"
 "http://www.w3.org/TR/2001/REC-SVG-20010904/DTD/svg10.dtd">
<svg version="1.0" xmlns="http://www.w3.org/2000/svg"
 width="43.000000pt" height="29.000000pt" viewBox="0 0 43.000000 29.000000"
 preserveAspectRatio="xMidYMid meet">
<metadata>
Created by potrace 1.16, written by Peter Selinger 2001-2019
</metadata>
<g transform="translate(0.000000,29.000000) scale(0.100000,-0.100000)"
fill="#000000" stroke="none">
<path d="M68 243 l-3 -48 -33 -3 -33 -3 3 -37 3 -37 23 1 22 1 6 -26 5 -26 7
-30 8 -30 30 -3 30 -3 27 10 27 11 0 30 0 30 20 0 20 0 0 -24 0 -24 13 -10 12
-10 50 -4 50 -3 3 52 3 52 32 3 32 3 3 33 3 33 -12 15 -11 14 -24 0 -24 0 0
40 0 40 -47 0 -48 0 -12 -8 -12 -8 2 -29 2 -30 -25 0 -25 0 2 38 2 37 -64 0
-64 0 -3 -47z"/>
</g>
</svg>
