<?xml version="1.0" standalone="no"?>
<!DOCTYPE svg PUBLIC "-//W3C//DTD SVG 20010904//EN"
 "http://www.w3.org/TR/2001/REC-SVG-20010904/DTD/svg10.dtd">
<svg version="1.0" xmlns="http://www.w3.org/2000/svg"
 width="36.000000pt" height="28.000000pt" viewBox="0 0 36.000000 28.000000"
 preserveAspectRatio="xMidYMid meet">
<metadata>
Created by potrace 1.16, written by Peter Selinger 2001-2019
</metadata>
<g transform="translate(0.000000,28.000000) scale(0.100000,-0.100000)"
fill="#000000" stroke="none">
<path d="M0 236 l0 -43 23 4 23 5 13 -16 13 -15 -4 -23 -3 -23 -32 -3 -33 -3
0 -55 0 -54 41 0 40 0 14 13 13 13 -5 26 -5 25 17 7 17 6 9 -6 9 -5 0 -45 0
-44 28 0 27 0 35 6 35 6 -3 54 -4 54 35 0 35 0 11 14 12 15 -11 20 -11 21 -34
0 -35 0 0 41 0 42 -37 -7 -38 -6 -12 0 -12 0 -3 -22 -3 -23 -35 0 -35 0 -3 33
-3 32 -45 0 -44 0 0 -44z"/>
</g>
</svg>
