<?xml version="1.0" standalone="no"?>
<!DOCTYPE svg PUBLIC "-//W3C//DTD SVG 20010904//EN"
 "http://www.w3.org/TR/2001/REC-SVG-20010904/DTD/svg10.dtd">
<svg version="1.0" xmlns="http://www.w3.org/2000/svg"
 width="38.000000pt" height="30.000000pt" viewBox="0 0 38.000000 30.000000"
 preserveAspectRatio="xMidYMid meet">
<metadata>
Created by potrace 1.16, written by Peter Selinger 2001-2019
</metadata>
<g transform="translate(0.000000,30.000000) scale(0.100000,-0.100000)"
fill="#000000" stroke="none">
<path d="M0 244 l0 -56 24 6 24 6 12 -15 12 -15 -6 -15 -5 -15 -31 0 -30 0 0
-65 0 -65 51 0 50 0 16 15 15 16 -6 24 -6 25 15 0 15 0 0 -45 0 -45 38 0 37 0
37 6 36 6 -5 53 -6 54 38 3 38 3 10 17 11 16 -12 26 -12 26 -35 0 -35 0 0 40
0 40 -22 0 -23 0 -37 -6 -37 -6 -3 -22 -3 -21 -25 0 -25 0 -3 33 -3 32 -55 0
-54 0 0 -56z"/>
</g>
</svg>
