<?xml version="1.0" standalone="no"?>
<!DOCTYPE svg PUBLIC "-//W3C//DTD SVG 20010904//EN"
 "http://www.w3.org/TR/2001/REC-SVG-20010904/DTD/svg10.dtd">
<svg version="1.0" xmlns="http://www.w3.org/2000/svg"
 width="28.000000pt" height="29.000000pt" viewBox="0 0 28.000000 29.000000"
 preserveAspectRatio="xMidYMid meet">
<metadata>
Created by potrace 1.16, written by Peter Selinger 2001-2019
</metadata>
<g transform="translate(0.000000,29.000000) scale(0.100000,-0.100000)"
fill="#000000" stroke="none">
<path d="M8 245 l4 -45 34 0 33 0 11 -21 11 -20 -12 -15 -11 -14 -35 0 -34 0
3 -53 3 -52 37 -3 37 -3 22 11 21 12 -5 24 -4 24 13 11 13 10 16 -24 16 -25
-3 -28 -3 -28 18 -4 19 -4 23 6 24 6 11 41 11 41 -5 13 -5 14 -32 3 -32 3 -11
17 -11 18 11 17 11 18 38 0 37 0 -6 44 -6 44 -4 4 -4 5 -47 -7 -46 -7 5 -14 5
-14 -9 -25 -10 -25 -19 0 -19 0 -6 16 -6 16 0 29 0 29 -53 0 -52 0 3 -45z"/>
</g>
</svg>
