<?xml version="1.0" standalone="no"?>
<!DOCTYPE svg PUBLIC "-//W3C//DTD SVG 20010904//EN"
 "http://www.w3.org/TR/2001/REC-SVG-20010904/DTD/svg10.dtd">
<svg version="1.0" xmlns="http://www.w3.org/2000/svg"
 width="30.000000pt" height="30.000000pt" viewBox="0 0 30.000000 30.000000"
 preserveAspectRatio="xMidYMid meet">
<metadata>
Created by potrace 1.16, written by Peter Selinger 2001-2019
</metadata>
<g transform="translate(0.000000,30.000000) scale(0.100000,-0.100000)"
fill="#000000" stroke="none">
<path d="M10 246 l0 -55 31 -3 32 -3 10 -17 11 -16 -13 -16 -13 -16 -34 0 -34
0 0 -60 0 -59 53 6 52 6 18 9 17 9 0 24 0 25 8 0 7 0 10 -8 10 -7 0 -25 0 -25
55 0 55 0 -2 35 -3 35 -5 33 -6 34 -24 -6 -24 -6 -7 11 -7 12 18 14 19 13 29
0 28 0 -7 48 -7 47 -2 3 -2 3 -46 -13 -46 -12 -3 -20 -3 -21 -30 0 -30 0 -3
30 -4 30 -11 7 -12 8 -42 0 -43 0 0 -54z"/>
</g>
</svg>
