<?xml version="1.0" standalone="no"?>
<!DOCTYPE svg PUBLIC "-//W3C//DTD SVG 20010904//EN"
 "http://www.w3.org/TR/2001/REC-SVG-20010904/DTD/svg10.dtd">
<svg version="1.0" xmlns="http://www.w3.org/2000/svg"
 width="28.000000pt" height="28.000000pt" viewBox="0 0 28.000000 28.000000"
 preserveAspectRatio="xMidYMid meet">
<metadata>
Created by potrace 1.16, written by Peter Selinger 2001-2019
</metadata>
<g transform="translate(0.000000,28.000000) scale(0.100000,-0.100000)"
fill="#000000" stroke="none">
<path d="M10 236 l0 -43 25 0 25 0 15 -13 15 -12 0 -22 0 -22 -12 -12 -12 -12
-33 0 -33 0 2 -48 2 -48 46 6 45 6 13 8 14 8 -5 19 -5 19 10 6 9 6 25 -6 25
-7 -3 -27 -3 -27 45 0 45 0 -3 25 -2 25 -5 30 -5 31 -27 -1 -27 0 -4 19 -4 20
18 13 18 13 29 0 29 0 -6 16 -6 16 0 22 0 23 -40 -10 -39 -11 -3 -20 -3 -21
-40 0 -40 0 -3 30 -4 30 -11 7 -12 8 -32 0 -33 0 0 -44z"/>
</g>
</svg>
