<?xml version="1.0" standalone="no"?>
<!DOCTYPE svg PUBLIC "-//W3C//DTD SVG 20010904//EN"
 "http://www.w3.org/TR/2001/REC-SVG-20010904/DTD/svg10.dtd">
<svg version="1.0" xmlns="http://www.w3.org/2000/svg"
 width="40.000000pt" height="29.000000pt" viewBox="0 0 40.000000 29.000000"
 preserveAspectRatio="xMidYMid meet">
<metadata>
Created by potrace 1.16, written by Peter Selinger 2001-2019
</metadata>
<g transform="translate(0.000000,29.000000) scale(0.100000,-0.100000)"
fill="#000000" stroke="none">
<path d="M20 230 l0 -60 29 0 30 0 7 -11 7 -11 -14 -9 -14 -9 -32 0 -33 0 0
-30 0 -31 14 -34 15 -35 43 0 44 0 12 12 12 12 0 24 0 23 17 -3 17 -3 6 -25 6
-25 59 -7 59 -8 4 5 5 5 12 47 12 48 27 3 26 3 6 24 6 23 -4 23 -3 24 -42 3
-43 3 0 40 0 39 -44 0 -44 0 -16 -6 -16 -6 0 -24 0 -25 -16 -6 -16 -6 -9 14
-9 14 0 23 0 22 -60 0 -60 0 0 -60z"/>
</g>
</svg>
