<?xml version="1.0" standalone="no"?>
<!DOCTYPE svg PUBLIC "-//W3C//DTD SVG 20010904//EN"
 "http://www.w3.org/TR/2001/REC-SVG-20010904/DTD/svg10.dtd">
<svg version="1.0" xmlns="http://www.w3.org/2000/svg"
 width="38.000000pt" height="27.000000pt" viewBox="0 0 38.000000 27.000000"
 preserveAspectRatio="xMidYMid meet">
<metadata>
Created by potrace 1.16, written by Peter Selinger 2001-2019
</metadata>
<g transform="translate(0.000000,27.000000) scale(0.100000,-0.100000)"
fill="#000000" stroke="none">
<path d="M20 221 l0 -50 32 -3 33 -3 3 -19 4 -19 -14 -8 -13 -9 -32 0 -33 0 0
-20 0 -21 14 -34 15 -35 33 0 34 0 12 12 12 12 0 24 0 23 27 -3 27 -3 6 -25 6
-25 49 -6 50 -6 4 3 4 4 12 47 12 48 27 3 26 3 6 25 6 24 -6 16 -6 16 -40 -4
-40 -4 0 43 0 43 -37 0 -38 0 -11 -8 -12 -7 -3 -25 -4 -25 -24 -3 -24 -4 -8
14 -9 13 0 23 0 22 -50 0 -50 0 0 -49z"/>
</g>
</svg>
