<?xml version="1.0" standalone="no"?>
<!DOCTYPE svg PUBLIC "-//W3C//DTD SVG 20010904//EN"
 "http://www.w3.org/TR/2001/REC-SVG-20010904/DTD/svg10.dtd">
<svg version="1.0" xmlns="http://www.w3.org/2000/svg"
 width="28.000000pt" height="36.000000pt" viewBox="0 0 28.000000 36.000000"
 preserveAspectRatio="xMidYMid meet">
<metadata>
Created by potrace 1.16, written by Peter Selinger 2001-2019
</metadata>
<g transform="translate(0.000000,36.000000) scale(0.100000,-0.100000)"
fill="#000000" stroke="none">
<path d="M0 305 l0 -55 39 6 38 6 7 -11 7 -11 -6 -19 -6 -20 -26 -3 -26 -3
-13 -50 -13 -50 -1 -12 0 -13 45 0 45 0 0 -24 0 -24 14 -11 15 -12 28 3 28 3
10 22 9 22 36 6 35 7 7 11 8 12 0 50 0 51 -32 9 -33 10 0 15 0 15 30 5 30 5 3
54 3 53 -43 -7 -43 -6 -17 -5 -18 -5 0 -20 0 -20 -27 3 -28 3 3 26 3 26 -23 7
-23 6 -32 0 -33 0 0 -55z"/>
</g>
</svg>
