<?xml version="1.0" standalone="no"?>
<!DOCTYPE svg PUBLIC "-//W3C//DTD SVG 20010904//EN"
 "http://www.w3.org/TR/2001/REC-SVG-20010904/DTD/svg10.dtd">
<svg version="1.0" xmlns="http://www.w3.org/2000/svg"
 width="36.000000pt" height="36.000000pt" viewBox="0 0 36.000000 36.000000"
 preserveAspectRatio="xMidYMid meet">
<metadata>
Created by potrace 1.16, written by Peter Selinger 2001-2019
</metadata>
<g transform="translate(0.000000,36.000000) scale(0.100000,-0.100000)"
fill="#000000" stroke="none">
<path d="M255 326 l7 -33 -17 -17 -17 -17 -22 3 -21 3 -3 36 -3 37 -22 6 -22
6 -27 0 -27 0 -3 -57 -3 -58 -25 -1 -25 -1 -12 -1 -13 -2 0 -20 0 -19 13 5 14
5 10 -13 10 -13 17 -47 17 -47 42 -3 42 -3 -2 -20 -1 -19 9 -18 10 -18 27 0
27 0 14 9 14 9 1 29 1 28 35 3 35 3 7 7 7 7 -13 50 -13 50 -21 -2 -22 -3 0 24
0 24 16 6 16 6 23 -6 23 -6 -2 59 -1 58 -53 2 -53 2 6 -33z"/>
</g>
</svg>
