<?xml version="1.0" standalone="no"?>
<!DOCTYPE svg PUBLIC "-//W3C//DTD SVG 20010904//EN"
 "http://www.w3.org/TR/2001/REC-SVG-20010904/DTD/svg10.dtd">
<svg version="1.0" xmlns="http://www.w3.org/2000/svg"
 width="35.000000pt" height="34.000000pt" viewBox="0 0 35.000000 34.000000"
 preserveAspectRatio="xMidYMid meet">
<metadata>
Created by potrace 1.16, written by Peter Selinger 2001-2019
</metadata>
<g transform="translate(0.000000,34.000000) scale(0.100000,-0.100000)"
fill="#000000" stroke="none">
<path d="M20 289 l0 -51 26 6 26 7 19 -6 19 -6 0 -24 0 -24 -19 -11 -20 -10
-35 0 -36 0 0 -14 0 -15 10 -25 10 -26 -10 0 -10 0 0 -10 0 -10 55 0 55 0 0
-21 0 -20 14 -15 15 -14 20 0 20 0 12 21 11 21 -5 18 -5 19 42 3 41 3 3 42 3
42 32 3 32 3 3 28 3 28 -33 -3 -33 -3 -3 53 -3 52 -13 0 -13 0 -31 -6 -31 -6
6 -15 6 -14 -21 -20 -21 -19 -6 0 -6 0 -15 14 -14 15 0 30 0 31 -50 0 -50 0 0
-51z"/>
</g>
</svg>
