<?xml version="1.0" standalone="no"?>
<!DOCTYPE svg PUBLIC "-//W3C//DTD SVG 20010904//EN"
 "http://www.w3.org/TR/2001/REC-SVG-20010904/DTD/svg10.dtd">
<svg version="1.0" xmlns="http://www.w3.org/2000/svg"
 width="33.000000pt" height="37.000000pt" viewBox="0 0 33.000000 37.000000"
 preserveAspectRatio="xMidYMid meet">
<metadata>
Created by potrace 1.16, written by Peter Selinger 2001-2019
</metadata>
<g transform="translate(0.000000,37.000000) scale(0.100000,-0.100000)"
fill="#000000" stroke="none">
<path d="M10 316 l0 -54 15 -12 15 -12 20 5 20 5 6 -9 6 -10 -12 -14 -12 -15
-32 3 -31 2 -1 -67 -2 -67 43 6 44 6 3 -39 3 -39 52 -3 53 -3 0 24 0 23 49 13
50 13 16 42 17 43 -4 24 -3 24 -43 1 -42 2 -15 12 -15 13 11 13 11 14 39 -6
39 -7 0 36 0 36 -10 25 -10 26 -140 0 -140 0 0 -54z"/>
</g>
</svg>
