<?xml version="1.0" standalone="no"?>
<!DOCTYPE svg PUBLIC "-//W3C//DTD SVG 20010904//EN"
 "http://www.w3.org/TR/2001/REC-SVG-20010904/DTD/svg10.dtd">
<svg version="1.0" xmlns="http://www.w3.org/2000/svg"
 width="31.000000pt" height="35.000000pt" viewBox="0 0 31.000000 35.000000"
 preserveAspectRatio="xMidYMid meet">
<metadata>
Created by potrace 1.16, written by Peter Selinger 2001-2019
</metadata>
<g transform="translate(0.000000,35.000000) scale(0.100000,-0.100000)"
fill="#000000" stroke="none">
<path d="M10 306 l0 -45 13 -8 12 -8 25 0 25 0 3 -18 4 -18 -13 -15 -12 -15
-31 3 -31 3 0 -55 0 -55 45 0 45 0 0 -35 0 -35 42 -3 43 -3 0 24 0 23 49 13
50 13 17 43 16 44 -4 13 -5 13 -42 1 -42 0 -17 17 -17 17 12 18 11 17 41 -2
41 -2 0 24 0 24 -10 25 -10 26 -130 0 -130 0 0 -44z"/>
</g>
</svg>
