<?xml version="1.0" standalone="no"?>
<!DOCTYPE svg PUBLIC "-//W3C//DTD SVG 20010904//EN"
 "http://www.w3.org/TR/2001/REC-SVG-20010904/DTD/svg10.dtd">
<svg version="1.0" xmlns="http://www.w3.org/2000/svg"
 width="38.000000pt" height="42.000000pt" viewBox="0 0 38.000000 42.000000"
 preserveAspectRatio="xMidYMid meet">
<metadata>
Created by potrace 1.16, written by Peter Selinger 2001-2019
</metadata>
<g transform="translate(0.000000,42.000000) scale(0.100000,-0.100000)"
fill="#000000" stroke="none">
<path d="M206 408 l-16 -9 0 -35 0 -36 -55 4 -56 3 7 -41 6 -41 -29 4 -30 5
-16 -17 -17 -16 0 -18 0 -19 15 -12 15 -13 36 6 36 6 -4 -52 -3 -51 37 -7 37
-6 16 -13 15 -13 -6 -19 -6 -20 29 4 28 3 5 40 5 40 20 -1 20 -1 40 -8 40 -7
-3 51 -4 50 -36 3 -37 3 0 25 0 25 35 5 35 5 0 45 0 44 -25 13 -25 12 -30 14
-30 13 3 16 2 16 -18 4 -19 5 -17 -9z"/>
</g>
</svg>
