<?xml version="1.0" standalone="no"?>
<!DOCTYPE svg PUBLIC "-//W3C//DTD SVG 20010904//EN"
 "http://www.w3.org/TR/2001/REC-SVG-20010904/DTD/svg10.dtd">
<svg version="1.0" xmlns="http://www.w3.org/2000/svg"
 width="40.000000pt" height="44.000000pt" viewBox="0 0 40.000000 44.000000"
 preserveAspectRatio="xMidYMid meet">
<metadata>
Created by potrace 1.16, written by Peter Selinger 2001-2019
</metadata>
<g transform="translate(0.000000,44.000000) scale(0.100000,-0.100000)"
fill="#000000" stroke="none">
<path d="M208 429 l-18 -10 0 -36 0 -36 -56 6 -56 6 5 -40 5 -39 -28 0 -29 0
-15 -16 -16 -15 0 -28 0 -27 12 -12 12 -12 38 0 38 0 -3 -47 -2 -47 35 -6 36
-6 12 -8 12 -7 0 -25 0 -25 38 3 37 3 5 40 5 40 15 -3 14 -3 50 -6 49 -6 -6
24 -7 24 0 37 0 37 -37 3 -38 3 0 15 0 15 35 5 35 5 3 51 3 51 -14 11 -14 12
-39 13 -39 14 -3 20 -3 21 -22 6 -22 6 -5 0 -5 -1 -17 -10z"/>
</g>
</svg>
