<?xml version="1.0" standalone="no"?>
<!DOCTYPE svg PUBLIC "-//W3C//DTD SVG 20010904//EN"
 "http://www.w3.org/TR/2001/REC-SVG-20010904/DTD/svg10.dtd">
<svg version="1.0" xmlns="http://www.w3.org/2000/svg"
 width="38.000000pt" height="37.000000pt" viewBox="0 0 38.000000 37.000000"
 preserveAspectRatio="xMidYMid meet">
<metadata>
Created by potrace 1.16, written by Peter Selinger 2001-2019
</metadata>
<g transform="translate(0.000000,37.000000) scale(0.100000,-0.100000)"
fill="#000000" stroke="none">
<path d="M193 364 l-13 -6 0 -26 0 -27 -9 -14 -9 -14 -46 6 -46 7 0 -38 0 -38
-32 -9 -33 -10 0 -45 0 -45 43 -3 42 -3 0 -8 0 -8 -11 -33 -12 -32 14 -9 14
-9 46 0 47 0 12 15 12 15 -6 25 -6 25 20 0 20 0 0 -34 0 -34 55 -7 55 -6 10 6
10 6 0 47 0 47 -9 14 -9 14 -26 -5 -26 -5 -10 13 -11 12 13 8 12 8 38 -3 38
-2 0 48 0 48 -9 13 -8 14 -56 -7 -56 -7 -3 48 -3 49 -20 2 -20 2 -12 -5z"/>
</g>
</svg>
