<?xml version="1.0" standalone="no"?>
<!DOCTYPE svg PUBLIC "-//W3C//DTD SVG 20010904//EN"
 "http://www.w3.org/TR/2001/REC-SVG-20010904/DTD/svg10.dtd">
<svg version="1.0" xmlns="http://www.w3.org/2000/svg"
 width="46.000000pt" height="38.000000pt" viewBox="0 0 46.000000 38.000000"
 preserveAspectRatio="xMidYMid meet">
<metadata>
Created by potrace 1.16, written by Peter Selinger 2001-2019
</metadata>
<g transform="translate(0.000000,38.000000) scale(0.100000,-0.100000)"
fill="#000000" stroke="none">
<path d="M210 365 l-12 -14 7 -20 6 -20 -20 -10 -20 -11 -41 0 -41 0 7 -50 7
-50 -30 6 -31 6 -21 -11 -21 -12 0 -23 0 -24 15 -12 15 -12 24 4 25 5 5 -14 6
-15 0 -39 0 -39 48 0 48 0 12 12 12 12 0 23 0 23 20 0 20 0 0 -30 0 -29 38 -6
37 -6 25 -5 25 -4 13 8 12 8 -1 20 -2 19 1 15 2 16 30 11 30 11 0 41 0 40 -19
11 -20 10 -20 0 -21 0 0 41 0 41 -22 -5 -23 -6 -27 -7 -28 -6 0 34 0 34 -16
22 -15 22 -13 0 -14 0 -12 -15z"/>
</g>
</svg>
