<?xml version="1.0" standalone="no"?>
<!DOCTYPE svg PUBLIC "-//W3C//DTD SVG 20010904//EN"
 "http://www.w3.org/TR/2001/REC-SVG-20010904/DTD/svg10.dtd">
<svg version="1.0" xmlns="http://www.w3.org/2000/svg"
 width="44.000000pt" height="36.000000pt" viewBox="0 0 44.000000 36.000000"
 preserveAspectRatio="xMidYMid meet">
<metadata>
Created by potrace 1.16, written by Peter Selinger 2001-2019
</metadata>
<g transform="translate(0.000000,36.000000) scale(0.100000,-0.100000)"
fill="#000000" stroke="none">
<path d="M214 349 l-8 -14 2 -22 3 -22 -20 -10 -20 -11 -39 0 -39 0 5 -51 5
-52 -35 7 -34 6 -19 -14 -20 -15 11 -18 12 -18 28 2 28 2 8 -12 8 -12 0 -42 0
-43 38 0 38 0 12 12 12 12 0 23 0 23 30 0 30 0 0 -30 0 -29 33 -5 32 -6 20 -1
20 -1 13 1 13 1 -6 10 -6 10 7 35 6 36 12 -4 11 -4 18 9 17 9 0 29 0 29 -19
11 -20 10 -20 0 -21 0 0 41 0 41 -17 -8 -18 -8 -35 0 -35 -1 3 31 3 31 -19 23
-19 23 -9 -14z"/>
</g>
</svg>
