<?xml version="1.0" standalone="no"?>
<!DOCTYPE svg PUBLIC "-//W3C//DTD SVG 20010904//EN"
 "http://www.w3.org/TR/2001/REC-SVG-20010904/DTD/svg10.dtd">
<svg version="1.0" xmlns="http://www.w3.org/2000/svg"
 width="30.000000pt" height="44.000000pt" viewBox="0 0 30.000000 44.000000"
 preserveAspectRatio="xMidYMid meet">
<metadata>
Created by potrace 1.16, written by Peter Selinger 2001-2019
</metadata>
<g transform="translate(0.000000,44.000000) scale(0.100000,-0.100000)"
fill="#000000" stroke="none">
<path d="M113 417 l6 -22 -8 -13 -8 -13 -49 -7 -49 -7 -3 -138 -3 -137 38 0
38 0 15 -10 14 -9 1 -28 0 -28 40 -3 39 -3 13 17 13 18 0 24 0 25 45 -6 45 -7
0 70 0 69 -37 3 -38 3 0 10 0 10 30 3 30 4 7 11 8 12 0 47 0 46 -47 17 -48 17
-12 4 -13 3 0 21 0 20 -36 0 -36 0 5 -23z"/>
</g>
</svg>
