<?xml version="1.0" standalone="no"?>
<!DOCTYPE svg PUBLIC "-//W3C//DTD SVG 20010904//EN"
 "http://www.w3.org/TR/2001/REC-SVG-20010904/DTD/svg10.dtd">
<svg version="1.0" xmlns="http://www.w3.org/2000/svg"
 width="28.000000pt" height="42.000000pt" viewBox="0 0 28.000000 42.000000"
 preserveAspectRatio="xMidYMid meet">
<metadata>
Created by potrace 1.16, written by Peter Selinger 2001-2019
</metadata>
<g transform="translate(0.000000,42.000000) scale(0.100000,-0.100000)"
fill="#000000" stroke="none">
<path d="M117 398 l3 -23 -8 -13 -9 -13 -49 -7 -49 -7 -3 -128 -3 -127 36 0
36 0 20 -11 20 -10 -3 -27 -3 -27 32 -3 32 -3 11 21 11 20 -3 18 -3 17 48 0
47 0 0 59 0 58 -23 -6 -24 -6 -18 14 -18 13 6 17 6 16 30 0 29 0 6 16 6 16 0
33 0 33 -47 17 -48 17 -12 4 -13 3 0 21 0 20 -24 0 -23 0 4 -22z"/>
</g>
</svg>
