<?xml version="1.0" standalone="no"?>
<!DOCTYPE svg PUBLIC "-//W3C//DTD SVG 20010904//EN"
 "http://www.w3.org/TR/2001/REC-SVG-20010904/DTD/svg10.dtd">
<svg version="1.0" xmlns="http://www.w3.org/2000/svg"
 width="34.000000pt" height="43.000000pt" viewBox="0 0 34.000000 43.000000"
 preserveAspectRatio="xMidYMid meet">
<metadata>
Created by potrace 1.16, written by Peter Selinger 2001-2019
</metadata>
<g transform="translate(0.000000,43.000000) scale(0.100000,-0.100000)"
fill="#000000" stroke="none">
<path d="M176 418 l-5 -13 2 -25 2 -25 -47 -3 -48 -3 0 -34 0 -33 -6 -16 -6
-16 -29 0 -30 0 -6 -16 -6 -17 18 -13 18 -14 24 6 23 6 0 -56 0 -56 45 0 45 0
0 -39 0 -39 16 -6 16 -6 24 6 25 6 -3 21 -3 21 40 11 40 12 0 54 0 54 -27 3
-28 3 0 29 0 28 16 6 16 6 19 0 19 0 0 45 0 44 -32 5 -33 6 -25 2 -25 3 0 30
0 30 -23 3 -22 3 -4 -13z"/>
</g>
</svg>
