<?xml version="1.0" standalone="no"?>
<!DOCTYPE svg PUBLIC "-//W3C//DTD SVG 20010904//EN"
 "http://www.w3.org/TR/2001/REC-SVG-20010904/DTD/svg10.dtd">
<svg version="1.0" xmlns="http://www.w3.org/2000/svg"
 width="36.000000pt" height="45.000000pt" viewBox="0 0 36.000000 45.000000"
 preserveAspectRatio="xMidYMid meet">
<metadata>
Created by potrace 1.16, written by Peter Selinger 2001-2019
</metadata>
<g transform="translate(0.000000,45.000000) scale(0.100000,-0.100000)"
fill="#000000" stroke="none">
<path d="M175 440 l-6 -10 3 -28 3 -27 -47 -3 -48 -3 0 -37 0 -37 -8 -12 -7
-11 -30 -4 -30 -3 -3 -27 -3 -27 21 -11 22 -12 19 5 19 5 0 -54 0 -54 45 0 45
0 0 -39 0 -40 20 -6 20 -6 30 6 30 7 0 23 0 23 38 9 37 9 0 64 0 65 -27 3 -28
3 0 19 0 18 16 6 16 6 19 0 19 0 0 54 0 54 -22 6 -23 6 -32 0 -32 0 -3 33 -3
32 -32 3 -31 3 -7 -11z"/>
</g>
</svg>
