<?xml version="1.0" standalone="no"?>
<!DOCTYPE svg PUBLIC "-//W3C//DTD SVG 20010904//EN"
 "http://www.w3.org/TR/2001/REC-SVG-20010904/DTD/svg10.dtd">
<svg version="1.0" xmlns="http://www.w3.org/2000/svg"
 width="35.000000pt" height="29.000000pt" viewBox="0 0 35.000000 29.000000"
 preserveAspectRatio="xMidYMid meet">
<metadata>
Created by potrace 1.16, written by Peter Selinger 2001-2019
</metadata>
<g transform="translate(0.000000,29.000000) scale(0.100000,-0.100000)"
fill="#000000" stroke="none">
<path d="M72 236 l4 -54 -13 5 -13 5 -25 -6 -25 -6 0 -35 0 -35 23 0 24 0 12
-55 12 -55 54 0 54 0 3 32 3 33 16 3 16 3 5 -19 5 -19 53 -13 52 -12 9 9 10
10 -3 39 -3 39 -28 3 -27 3 -10 19 -10 19 18 10 19 10 21 -6 22 -5 0 66 0 66
-59 0 -60 0 -3 -32 -3 -33 -15 0 -15 0 -3 33 -3 32 -61 0 -60 0 4 -54z"/>
</g>
</svg>
