<?xml version="1.0" standalone="no"?>
<!DOCTYPE svg PUBLIC "-//W3C//DTD SVG 20010904//EN"
 "http://www.w3.org/TR/2001/REC-SVG-20010904/DTD/svg10.dtd">
<svg version="1.0" xmlns="http://www.w3.org/2000/svg"
 width="33.000000pt" height="27.000000pt" viewBox="0 0 33.000000 27.000000"
 preserveAspectRatio="xMidYMid meet">
<metadata>
Created by potrace 1.16, written by Peter Selinger 2001-2019
</metadata>
<g transform="translate(0.000000,27.000000) scale(0.100000,-0.100000)"
fill="#000000" stroke="none">
<path d="M74 214 l6 -56 -24 6 -24 6 -16 -6 -16 -6 0 -24 0 -24 22 3 22 2 14
-57 14 -58 43 0 44 0 3 32 3 33 26 3 26 3 5 -19 5 -19 44 -11 44 -11 8 8 9 9
-4 28 -3 29 -28 3 -28 3 -12 26 -11 25 19 15 20 14 23 -4 22 -4 0 53 0 54 -49
0 -50 0 -3 -32 -3 -33 -25 0 -25 0 -3 33 -3 32 -51 0 -51 0 7 -56z"/>
</g>
</svg>
