<?xml version="1.0" standalone="no"?>
<!DOCTYPE svg PUBLIC "-//W3C//DTD SVG 20010904//EN"
 "http://www.w3.org/TR/2001/REC-SVG-20010904/DTD/svg10.dtd">
<svg version="1.0" xmlns="http://www.w3.org/2000/svg"
 width="47.000000pt" height="44.000000pt" viewBox="0 0 47.000000 44.000000"
 preserveAspectRatio="xMidYMid meet">
<metadata>
Created by potrace 1.16, written by Peter Selinger 2001-2019
</metadata>
<g transform="translate(0.000000,44.000000) scale(0.100000,-0.100000)"
fill="#000000" stroke="none">
<path d="M212 428 l-10 -13 -4 -30 -3 -30 -52 1 -52 2 -3 -47 -3 -46 -40 -5
-40 -5 -3 -33 -3 -33 12 -15 11 -14 40 0 39 0 -6 -44 -7 -45 53 -3 54 -3 5
-30 5 -30 37 -3 37 -3 11 21 11 21 -6 20 -7 20 44 -6 43 -6 13 9 14 9 7 34 7
34 19 4 20 3 7 12 8 11 0 37 0 37 -19 11 -20 10 -20 0 -21 0 0 36 0 37 -27 -7
-28 -6 -22 -6 -23 -6 0 39 0 40 -18 16 -19 17 -15 0 -16 0 -10 -12z"/>
</g>
</svg>
