<?xml version="1.0" standalone="no"?>
<!DOCTYPE svg PUBLIC "-//W3C//DTD SVG 20010904//EN"
 "http://www.w3.org/TR/2001/REC-SVG-20010904/DTD/svg10.dtd">
<svg version="1.0" xmlns="http://www.w3.org/2000/svg"
 width="39.000000pt" height="30.000000pt" viewBox="0 0 39.000000 30.000000"
 preserveAspectRatio="xMidYMid meet">
<metadata>
Created by potrace 1.16, written by Peter Selinger 2001-2019
</metadata>
<g transform="translate(0.000000,30.000000) scale(0.100000,-0.100000)"
fill="#000000" stroke="none">
<path d="M84 278 l6 -23 6 -26 6 -25 -36 4 -36 4 -15 -12 -15 -12 0 -23 0 -23
16 -13 16 -13 39 -2 40 -2 5 -5 5 -5 -15 -37 -16 -37 0 -9 0 -9 65 0 65 0 0
35 0 35 10 0 10 0 1 -12 1 -13 1 -25 2 -25 29 -3 30 -4 44 7 44 7 -6 16 -5 17
-18 53 -17 52 -26 0 -25 0 15 10 15 10 33 0 32 0 0 65 0 65 -156 0 -156 0 6
-22z"/>
</g>
</svg>
