<?xml version="1.0" standalone="no"?>
<!DOCTYPE svg PUBLIC "-//W3C//DTD SVG 20010904//EN"
 "http://www.w3.org/TR/2001/REC-SVG-20010904/DTD/svg10.dtd">
<svg version="1.0" xmlns="http://www.w3.org/2000/svg"
 width="37.000000pt" height="28.000000pt" viewBox="0 0 37.000000 28.000000"
 preserveAspectRatio="xMidYMid meet">
<metadata>
Created by potrace 1.16, written by Peter Selinger 2001-2019
</metadata>
<g transform="translate(0.000000,28.000000) scale(0.100000,-0.100000)"
fill="#000000" stroke="none">
<path d="M90 254 l10 -25 0 -24 0 -24 -41 2 -41 2 -11 -17 -12 -18 17 -17 17
-17 43 0 43 -1 3 -17 3 -16 -15 -36 -15 -36 55 0 54 0 0 34 0 35 11 7 11 6 11
-11 12 -12 0 -32 0 -32 19 -3 18 -4 44 7 44 6 -14 27 -14 27 -7 33 -7 32 -24
0 -24 0 0 14 0 14 16 6 16 6 29 0 30 0 -3 55 -3 55 -142 0 -143 0 10 -26z"/>
</g>
</svg>
