<?xml version="1.0" standalone="no"?>
<!DOCTYPE svg PUBLIC "-//W3C//DTD SVG 20010904//EN"
 "http://www.w3.org/TR/2001/REC-SVG-20010904/DTD/svg10.dtd">
<svg version="1.0" xmlns="http://www.w3.org/2000/svg"
 width="28.000000pt" height="41.000000pt" viewBox="0 0 28.000000 41.000000"
 preserveAspectRatio="xMidYMid meet">
<metadata>
Created by potrace 1.16, written by Peter Selinger 2001-2019
</metadata>
<g transform="translate(0.000000,41.000000) scale(0.100000,-0.100000)"
fill="#000000" stroke="none">
<path d="M114 396 l-5 -14 3 -18 3 -19 -52 -3 -53 -3 0 -24 0 -23 -6 -17 -7
-16 26 6 25 7 21 -12 21 -11 0 -24 0 -23 -6 -16 -6 -16 -18 0 -19 0 -4 -7 -4
-8 -7 -37 -7 -38 44 0 43 0 -4 -35 -4 -35 17 -6 17 -7 27 9 26 10 -2 27 -2 27
38 0 37 0 11 11 10 10 -12 42 -12 42 -22 10 -22 10 3 20 3 19 30 1 30 0 3 43
3 43 -12 15 -11 14 -33 0 -33 0 -11 13 -11 14 7 7 7 7 -14 9 -15 10 -18 0 -18
0 -5 -14z"/>
</g>
</svg>
