<?xml version="1.0" standalone="no"?>
<!DOCTYPE svg PUBLIC "-//W3C//DTD SVG 20010904//EN"
 "http://www.w3.org/TR/2001/REC-SVG-20010904/DTD/svg10.dtd">
<svg version="1.0" xmlns="http://www.w3.org/2000/svg"
 width="30.000000pt" height="43.000000pt" viewBox="0 0 30.000000 43.000000"
 preserveAspectRatio="xMidYMid meet">
<metadata>
Created by potrace 1.16, written by Peter Selinger 2001-2019
</metadata>
<g transform="translate(0.000000,43.000000) scale(0.100000,-0.100000)"
fill="#000000" stroke="none">
<path d="M117 423 l-7 -6 0 -29 0 -28 -50 0 -50 0 0 -19 0 -18 -7 -33 -6 -33
30 6 31 6 17 -13 18 -13 -7 -26 -6 -27 -20 0 -19 0 -4 -7 -5 -8 -7 -47 -7 -48
40 0 41 0 3 -37 3 -38 32 -3 32 -3 21 11 20 11 0 24 0 25 34 0 34 0 11 14 12
14 -14 49 -14 48 -21 10 -22 10 0 7 0 7 33 3 32 3 3 53 3 54 -11 13 -12 14
-36 3 -37 3 -4 20 -3 20 -12 7 -11 8 -26 0 -26 0 -6 -7z"/>
</g>
</svg>
