<?xml version="1.0" standalone="no"?>
<!DOCTYPE svg PUBLIC "-//W3C//DTD SVG 20010904//EN"
 "http://www.w3.org/TR/2001/REC-SVG-20010904/DTD/svg10.dtd">
<svg version="1.0" xmlns="http://www.w3.org/2000/svg"
 width="37.000000pt" height="34.000000pt" viewBox="0 0 37.000000 34.000000"
 preserveAspectRatio="xMidYMid meet">
<metadata>
Created by potrace 1.16, written by Peter Selinger 2001-2019
</metadata>
<g transform="translate(0.000000,34.000000) scale(0.100000,-0.100000)"
fill="#000000" stroke="none">
<path d="M118 308 l-3 -33 -55 0 -55 0 5 -55 5 -55 38 3 37 4 0 -20 0 -20 -15
-6 -15 -5 -30 6 -30 6 0 -51 0 -50 5 -14 5 -13 55 3 56 4 -3 36 -3 37 23 3 22
3 7 -16 6 -17 1 -27 1 -26 19 -3 18 -4 43 6 42 7 -10 38 -10 38 6 16 6 17 16
-6 15 -6 25 6 25 6 0 24 0 24 -16 6 -16 6 -26 0 -27 0 0 42 0 43 -60 10 -60
11 3 27 3 27 -25 0 -25 0 -3 -32z"/>
</g>
</svg>
