<?xml version="1.0" standalone="no"?>
<!DOCTYPE svg PUBLIC "-//W3C//DTD SVG 20010904//EN"
 "http://www.w3.org/TR/2001/REC-SVG-20010904/DTD/svg10.dtd">
<svg version="1.0" xmlns="http://www.w3.org/2000/svg"
 width="38.000000pt" height="36.000000pt" viewBox="0 0 38.000000 36.000000"
 preserveAspectRatio="xMidYMid meet">
<metadata>
Created by potrace 1.16, written by Peter Selinger 2001-2019
</metadata>
<g transform="translate(0.000000,36.000000) scale(0.100000,-0.100000)"
fill="#000000" stroke="none">
<path d="M114 345 l-6 -14 6 -10 7 -10 -20 -10 -20 -11 -35 0 -36 0 0 -32 0
-33 -6 -22 -6 -23 30 0 30 0 16 -6 16 -6 0 -14 0 -14 -12 -2 -13 -1 -30 -1
-30 -1 -3 -36 -3 -35 10 -28 11 -27 62 3 63 3 -1 38 -1 37 8 0 8 0 7 -12 8
-12 0 -31 1 -30 48 -3 49 -3 15 12 15 13 -7 43 -6 43 31 0 31 0 15 14 14 15 0
16 0 16 -14 15 -15 14 -25 0 -26 0 0 45 0 45 -50 0 -50 0 0 29 0 29 -16 6 -16
6 -24 0 -25 0 -5 -15z"/>
</g>
</svg>
