<?xml version="1.0" standalone="no"?>
<!DOCTYPE svg PUBLIC "-//W3C//DTD SVG 20010904//EN"
 "http://www.w3.org/TR/2001/REC-SVG-20010904/DTD/svg10.dtd">
<svg version="1.0" xmlns="http://www.w3.org/2000/svg"
 width="43.000000pt" height="40.000000pt" viewBox="0 0 43.000000 40.000000"
 preserveAspectRatio="xMidYMid meet">
<metadata>
Created by potrace 1.16, written by Peter Selinger 2001-2019
</metadata>
<g transform="translate(0.000000,40.000000) scale(0.100000,-0.100000)"
fill="#000000" stroke="none">
<path d="M170 378 l0 -24 -12 -12 -12 -12 -43 0 -43 0 0 -45 0 -46 -27 3 -28
3 -3 -32 -3 -32 20 -10 20 -11 13 2 13 3 0 -45 0 -45 47 -3 47 -3 3 -26 3 -26
16 -10 16 -10 26 7 27 6 -3 11 -2 10 50 17 50 17 -4 15 -4 15 -4 31 -5 30 35
0 35 0 16 13 16 13 0 29 0 29 -45 0 -45 0 0 45 0 45 -22 5 -23 5 -30 2 -29 3
-6 25 -6 25 -27 3 -27 3 0 -23z"/>
</g>
</svg>
