<?xml version="1.0" standalone="no"?>
<!DOCTYPE svg PUBLIC "-//W3C//DTD SVG 20010904//EN"
 "http://www.w3.org/TR/2001/REC-SVG-20010904/DTD/svg10.dtd">
<svg version="1.0" xmlns="http://www.w3.org/2000/svg"
 width="45.000000pt" height="42.000000pt" viewBox="0 0 45.000000 42.000000"
 preserveAspectRatio="xMidYMid meet">
<metadata>
Created by potrace 1.16, written by Peter Selinger 2001-2019
</metadata>
<g transform="translate(0.000000,42.000000) scale(0.100000,-0.100000)"
fill="#000000" stroke="none">
<path d="M170 398 l0 -24 -12 -12 -12 -12 -43 0 -43 0 0 -43 0 -43 -27 1 -28
0 0 -45 0 -45 32 -9 31 -10 -1 -40 -2 -41 48 -3 47 -3 0 -23 0 -22 12 -12 12
-12 27 0 27 0 16 6 16 6 0 12 0 11 48 15 47 15 -2 20 -1 20 -7 21 -7 21 37 6
37 6 14 12 14 11 0 39 0 39 -45 0 -45 0 0 45 0 45 -22 5 -23 5 -30 2 -29 3 -6
25 -6 25 -37 3 -37 3 0 -23z"/>
</g>
</svg>
