<?xml version="1.0" standalone="no"?>
<!DOCTYPE svg PUBLIC "-//W3C//DTD SVG 20010904//EN"
 "http://www.w3.org/TR/2001/REC-SVG-20010904/DTD/svg10.dtd">
<svg version="1.0" xmlns="http://www.w3.org/2000/svg"
 width="37.000000pt" height="36.000000pt" viewBox="0 0 37.000000 36.000000"
 preserveAspectRatio="xMidYMid meet">
<metadata>
Created by potrace 1.16, written by Peter Selinger 2001-2019
</metadata>
<g transform="translate(0.000000,36.000000) scale(0.100000,-0.100000)"
fill="#000000" stroke="none">
<path d="M120 330 l0 -30 -22 -5 -23 -5 -35 -2 -35 -3 -3 -31 -3 -30 10 -27
11 -27 30 0 30 0 0 -7 0 -8 -8 -11 -7 -12 -25 -3 -25 -4 0 -55 0 -55 63 -3 62
-3 0 31 0 32 12 -4 12 -4 1 -30 0 -29 53 -3 54 -3 24 16 24 15 0 19 0 19 6 16
6 16 20 0 19 0 -3 48 -3 47 -27 3 -27 3 -3 42 -3 42 -52 -2 -53 -2 0 27 0 28
-12 12 -12 12 -28 0 -28 0 0 -30z"/>
</g>
</svg>
