<?xml version="1.0" standalone="no"?>
<!DOCTYPE svg PUBLIC "-//W3C//DTD SVG 20010904//EN"
 "http://www.w3.org/TR/2001/REC-SVG-20010904/DTD/svg10.dtd">
<svg version="1.0" xmlns="http://www.w3.org/2000/svg"
 width="34.000000pt" height="42.000000pt" viewBox="0 0 34.000000 42.000000"
 preserveAspectRatio="xMidYMid meet">
<metadata>
Created by potrace 1.16, written by Peter Selinger 2001-2019
</metadata>
<g transform="translate(0.000000,42.000000) scale(0.100000,-0.100000)"
fill="#000000" stroke="none">
<path d="M117 409 l-17 -10 0 -29 0 -30 -46 0 -45 0 3 -42 3 -42 35 -1 35 0 3
-26 3 -26 -17 -17 -17 -17 -23 5 -24 6 0 -39 0 -39 -5 -14 -5 -13 47 0 48 0
-2 -31 -3 -32 26 -6 26 -7 15 12 14 13 -4 18 -5 18 21 5 22 5 30 2 30 3 -1 20
-1 20 -4 30 -4 30 19 -3 19 -4 24 13 23 12 0 27 0 28 -14 11 -13 11 -17 -6
-16 -6 0 40 0 41 -57 3 -58 3 3 27 3 27 -18 10 -19 9 -17 -9z"/>
</g>
</svg>
