<?xml version="1.0" standalone="no"?>
<!DOCTYPE svg PUBLIC "-//W3C//DTD SVG 20010904//EN"
 "http://www.w3.org/TR/2001/REC-SVG-20010904/DTD/svg10.dtd">
<svg version="1.0" xmlns="http://www.w3.org/2000/svg"
 width="36.000000pt" height="44.000000pt" viewBox="0 0 36.000000 44.000000"
 preserveAspectRatio="xMidYMid meet">
<metadata>
Created by potrace 1.16, written by Peter Selinger 2001-2019
</metadata>
<g transform="translate(0.000000,44.000000) scale(0.100000,-0.100000)"
fill="#000000" stroke="none">
<path d="M118 429 l-18 -10 0 -29 0 -30 -46 0 -45 0 3 -52 3 -53 35 0 35 0 3
-16 3 -17 -15 -15 -15 -14 -25 4 -26 5 0 -35 0 -34 -6 -31 -6 -30 48 1 49 2
-3 -32 -3 -32 35 -7 36 -6 15 12 14 11 3 22 3 22 45 5 45 5 -2 48 -3 47 23 0
22 1 18 13 17 13 0 35 0 34 -12 12 -12 12 -18 0 -18 0 0 35 0 35 -55 0 -55 0
0 30 0 29 -19 11 -20 10 -8 0 -8 -1 -17 -10z"/>
</g>
</svg>
