<?xml version="1.0" standalone="no"?>
<!DOCTYPE svg PUBLIC "-//W3C//DTD SVG 20010904//EN"
 "http://www.w3.org/TR/2001/REC-SVG-20010904/DTD/svg10.dtd">
<svg version="1.0" xmlns="http://www.w3.org/2000/svg"
 width="33.000000pt" height="43.000000pt" viewBox="0 0 33.000000 43.000000"
 preserveAspectRatio="xMidYMid meet">
<metadata>
Created by potrace 1.16, written by Peter Selinger 2001-2019
</metadata>
<g transform="translate(0.000000,43.000000) scale(0.100000,-0.100000)"
fill="#000000" stroke="none">
<path d="M138 419 l-18 -10 0 -29 0 -30 -50 0 -51 0 3 -57 3 -58 38 -3 38 -3
-12 -15 -11 -14 -34 0 -33 0 -6 -11 -7 -11 7 -54 6 -54 55 0 54 0 0 -25 0 -25
25 -12 25 -11 26 13 26 14 -4 33 -4 33 4 0 5 0 38 -11 38 -12 16 13 16 13 -3
51 -3 51 -31 1 -31 1 -14 9 -14 9 40 5 40 5 0 60 0 60 -53 3 -52 3 5 22 5 22
-8 12 -7 11 -25 6 -25 6 -17 -11z"/>
</g>
</svg>
