<?xml version="1.0" standalone="no"?>
<!DOCTYPE svg PUBLIC "-//W3C//DTD SVG 20010904//EN"
 "http://www.w3.org/TR/2001/REC-SVG-20010904/DTD/svg10.dtd">
<svg version="1.0" xmlns="http://www.w3.org/2000/svg"
 width="31.000000pt" height="41.000000pt" viewBox="0 0 31.000000 41.000000"
 preserveAspectRatio="xMidYMid meet">
<metadata>
Created by potrace 1.16, written by Peter Selinger 2001-2019
</metadata>
<g transform="translate(0.000000,41.000000) scale(0.100000,-0.100000)"
fill="#000000" stroke="none">
<path d="M135 396 l-16 -11 3 -25 3 -25 -53 -3 -53 -3 3 -47 3 -47 38 -3 37
-3 0 -13 0 -12 -12 -12 -12 -12 -32 0 -33 0 -6 -10 -6 -10 7 -45 6 -45 54 0
54 0 0 -25 0 -24 20 -11 20 -10 20 12 21 13 -6 33 -6 32 20 0 20 0 27 -10 26
-10 15 11 14 12 -3 41 -3 41 -23 -2 -23 -3 -20 11 -20 10 3 17 3 17 35 0 35 0
0 50 0 50 -53 3 -53 3 1 22 2 22 -1 11 -1 12 -20 5 -19 5 -16 -12z"/>
</g>
</svg>
