<?xml version="1.0" standalone="no"?>
<!DOCTYPE svg PUBLIC "-//W3C//DTD SVG 20010904//EN"
 "http://www.w3.org/TR/2001/REC-SVG-20010904/DTD/svg10.dtd">
<svg version="1.0" xmlns="http://www.w3.org/2000/svg"
 width="46.000000pt" height="36.000000pt" viewBox="0 0 46.000000 36.000000"
 preserveAspectRatio="xMidYMid meet">
<metadata>
Created by potrace 1.16, written by Peter Selinger 2001-2019
</metadata>
<g transform="translate(0.000000,36.000000) scale(0.100000,-0.100000)"
fill="#000000" stroke="none">
<path d="M170 320 l0 -40 -44 0 -45 0 -3 -52 -3 -53 -35 0 -35 0 -3 -24 -4
-25 18 -13 18 -13 29 0 30 0 -7 -50 -7 -50 54 0 53 0 12 12 12 12 0 23 0 23
14 0 15 0 6 -18 5 -19 40 -12 40 -12 16 16 16 16 -6 23 -6 24 45 6 45 7 10 19
10 19 0 19 0 20 -16 6 -16 6 -23 0 -23 0 -6 16 -6 16 0 30 0 29 -52 -3 -53 -3
3 28 4 28 -12 15 -12 14 -39 0 -39 0 0 -40z"/>
</g>
</svg>
