<?xml version="1.0" standalone="no"?>
<!DOCTYPE svg PUBLIC "-//W3C//DTD SVG 20010904//EN"
 "http://www.w3.org/TR/2001/REC-SVG-20010904/DTD/svg10.dtd">
<svg version="1.0" xmlns="http://www.w3.org/2000/svg"
 width="32.000000pt" height="36.000000pt" viewBox="0 0 32.000000 36.000000"
 preserveAspectRatio="xMidYMid meet">
<metadata>
Created by potrace 1.16, written by Peter Selinger 2001-2019
</metadata>
<g transform="translate(0.000000,36.000000) scale(0.100000,-0.100000)"
fill="#000000" stroke="none">
<path d="M120 330 l0 -30 -26 -10 -25 -10 -25 0 -24 0 0 -43 0 -43 14 -19 13
-18 20 5 21 6 11 -7 11 -7 -13 -18 -13 -18 -42 0 -42 1 0 -60 0 -59 65 0 64 0
12 21 11 21 -5 20 -5 19 11 -4 12 -4 3 -36 3 -37 64 0 63 0 11 31 11 32 0 28
0 28 -42 3 -43 3 -4 19 -3 20 18 13 17 13 24 -7 25 -6 -7 49 -7 49 -7 7 -6 7
-35 3 -35 3 -5 30 -5 30 -43 3 -42 3 0 -31z"/>
</g>
</svg>
