<?xml version="1.0" standalone="no"?>
<!DOCTYPE svg PUBLIC "-//W3C//DTD SVG 20010904//EN"
 "http://www.w3.org/TR/2001/REC-SVG-20010904/DTD/svg10.dtd">
<svg version="1.0" xmlns="http://www.w3.org/2000/svg"
 width="30.000000pt" height="34.000000pt" viewBox="0 0 30.000000 34.000000"
 preserveAspectRatio="xMidYMid meet">
<metadata>
Created by potrace 1.16, written by Peter Selinger 2001-2019
</metadata>
<g transform="translate(0.000000,34.000000) scale(0.100000,-0.100000)"
fill="#000000" stroke="none">
<path d="M120 310 l0 -30 -26 -10 -25 -10 -25 0 -24 0 0 -31 0 -30 10 -20 11
-19 22 5 22 5 14 -9 15 -10 -11 -24 -11 -24 -31 -6 -31 -6 -14 5 -15 6 1 -51
1 -51 53 0 53 0 10 18 10 19 -6 22 -6 23 24 -4 24 -3 3 -37 3 -38 54 0 53 0
11 31 11 32 0 18 0 18 -42 3 -43 3 -3 32 -3 32 21 11 22 12 19 -5 18 -5 -5 32
-6 31 -4 13 -3 12 -35 0 -35 0 -8 13 -8 12 0 20 0 20 -32 3 -33 3 0 -31z"/>
</g>
</svg>
