<?xml version="1.0" standalone="no"?>
<!DOCTYPE svg PUBLIC "-//W3C//DTD SVG 20010904//EN"
 "http://www.w3.org/TR/2001/REC-SVG-20010904/DTD/svg10.dtd">
<svg version="1.0" xmlns="http://www.w3.org/2000/svg"
 width="44.000000pt" height="30.000000pt" viewBox="0 0 44.000000 30.000000"
 preserveAspectRatio="xMidYMid meet">
<metadata>
Created by potrace 1.16, written by Peter Selinger 2001-2019
</metadata>
<g transform="translate(0.000000,30.000000) scale(0.100000,-0.100000)"
fill="#000000" stroke="none">
<path d="M259 293 l-1 -8 2 -19 2 -18 -6 -24 -6 -24 -23 0 -23 0 -12 12 -12
12 0 26 0 25 -45 -3 -45 -4 0 -33 0 -33 -6 -15 -6 -15 -33 5 -33 5 -7 -21 -6
-21 15 -15 15 -15 14 6 15 5 8 -43 8 -43 1 -10 0 -10 6 -5 7 -5 60 3 61 4 3
31 3 32 17 3 18 3 -6 -14 -5 -15 47 -16 48 -16 8 0 8 0 0 56 0 57 30 -6 30 -6
15 5 15 6 0 20 0 20 -37 -4 -38 -3 -3 53 -3 53 -22 8 -22 8 -27 7 -28 6 -1 -7z"/>
</g>
</svg>
