<?xml version="1.0" standalone="no"?>
<!DOCTYPE svg PUBLIC "-//W3C//DTD SVG 20010904//EN"
 "http://www.w3.org/TR/2001/REC-SVG-20010904/DTD/svg10.dtd">
<svg version="1.0" xmlns="http://www.w3.org/2000/svg"
 width="43.000000pt" height="38.000000pt" viewBox="0 0 43.000000 38.000000"
 preserveAspectRatio="xMidYMid meet">
<metadata>
Created by potrace 1.16, written by Peter Selinger 2001-2019
</metadata>
<g transform="translate(0.000000,38.000000) scale(0.100000,-0.100000)"
fill="#000000" stroke="none">
<path d="M246 369 l-5 -14 -3 -25 -3 -25 -22 -3 -22 -3 2 28 2 28 -62 3 -62 3
-3 -53 -3 -53 -30 0 -30 0 -3 -30 -3 -30 23 -10 23 -10 9 -52 9 -51 54 5 53 6
-6 -17 -6 -16 6 -25 6 -25 26 0 25 0 20 10 19 11 0 18 0 19 23 6 22 6 28 0 27
0 0 54 0 55 33 3 32 3 0 40 0 40 -32 3 -33 3 0 44 0 44 -17 5 -18 5 -37 7 -38
6 -4 -13z"/>
</g>
</svg>
