<?xml version="1.0" standalone="no"?>
<!DOCTYPE svg PUBLIC "-//W3C//DTD SVG 20010904//EN"
 "http://www.w3.org/TR/2001/REC-SVG-20010904/DTD/svg10.dtd">
<svg version="1.0" xmlns="http://www.w3.org/2000/svg"
 width="39.000000pt" height="37.000000pt" viewBox="0 0 39.000000 37.000000"
 preserveAspectRatio="xMidYMid meet">
<metadata>
Created by potrace 1.16, written by Peter Selinger 2001-2019
</metadata>
<g transform="translate(0.000000,37.000000) scale(0.100000,-0.100000)"
fill="#000000" stroke="none">
<path d="M190 331 l0 -40 -12 -7 -11 -7 -12 17 -13 17 5 18 5 18 -16 6 -16 7
-45 -7 -45 -6 0 -48 0 -48 27 -3 28 -3 3 -18 4 -19 -19 -13 -18 -14 -21 5 -22
6 -7 -11 -6 -11 12 -54 12 -54 45 1 46 2 0 -30 1 -30 43 -3 42 -3 10 25 10 26
27 0 28 0 14 9 13 8 -3 54 -4 54 35 3 35 4 12 10 13 10 0 24 0 23 -37 3 -38 3
-5 50 -5 49 -25 7 -25 7 -32 1 -33 1 0 -39z"/>
</g>
</svg>
