<?xml version="1.0" standalone="no"?>
<!DOCTYPE svg PUBLIC "-//W3C//DTD SVG 20010904//EN"
 "http://www.w3.org/TR/2001/REC-SVG-20010904/DTD/svg10.dtd">
<svg version="1.0" xmlns="http://www.w3.org/2000/svg"
 width="27.000000pt" height="29.000000pt" viewBox="0 0 27.000000 29.000000"
 preserveAspectRatio="xMidYMid meet">
<metadata>
Created by potrace 1.16, written by Peter Selinger 2001-2019
</metadata>
<g transform="translate(0.000000,29.000000) scale(0.100000,-0.100000)"
fill="#000000" stroke="none">
<path d="M174 260 l6 -30 -20 -20 -20 -20 -21 11 -21 11 4 29 5 29 -54 0 -53
0 0 -40 0 -40 21 0 20 0 20 -10 19 -11 0 -29 0 -29 -17 -9 -18 -9 -11 4 -12 4
-7 -37 -6 -37 8 -8 8 -7 38 -7 37 -7 0 31 0 30 19 10 18 10 16 -12 15 -12 4
-20 3 -20 43 -3 42 -3 0 55 0 56 -34 0 -34 0 -5 14 -6 14 6 21 5 21 29 0 29 0
11 26 10 27 -6 17 -6 18 -22 6 -22 6 -24 0 -23 0 6 -30z"/>
</g>
</svg>
