<?xml version="1.0" standalone="no"?>
<!DOCTYPE svg PUBLIC "-//W3C//DTD SVG 20010904//EN"
 "http://www.w3.org/TR/2001/REC-SVG-20010904/DTD/svg10.dtd">
<svg version="1.0" xmlns="http://www.w3.org/2000/svg"
 width="29.000000pt" height="31.000000pt" viewBox="0 0 29.000000 31.000000"
 preserveAspectRatio="xMidYMid meet">
<metadata>
Created by potrace 1.16, written by Peter Selinger 2001-2019
</metadata>
<g transform="translate(0.000000,31.000000) scale(0.100000,-0.100000)"
fill="#000000" stroke="none">
<path d="M168 269 l-3 -44 -20 0 -20 0 3 33 2 32 -65 0 -65 0 0 -50 0 -50 23
0 23 0 18 -13 18 -13 -3 -20 -4 -19 -27 -3 -27 -3 -7 -45 -6 -46 9 -9 9 -9 46
-6 47 -7 3 34 3 34 20 0 19 0 6 -25 6 -25 52 -3 52 -3 0 65 0 66 -35 0 -35 0
0 25 0 25 30 0 30 0 10 26 10 25 0 17 0 17 -9 14 -9 14 -50 5 -51 4 -3 -43z"/>
</g>
</svg>
