<?xml version="1.0" standalone="no"?>
<!DOCTYPE svg PUBLIC "-//W3C//DTD SVG 20010904//EN"
 "http://www.w3.org/TR/2001/REC-SVG-20010904/DTD/svg10.dtd">
<svg version="1.0" xmlns="http://www.w3.org/2000/svg"
 width="29.000000pt" height="28.000000pt" viewBox="0 0 29.000000 28.000000"
 preserveAspectRatio="xMidYMid meet">
<metadata>
Created by potrace 1.16, written by Peter Selinger 2001-2019
</metadata>
<g transform="translate(0.000000,28.000000) scale(0.100000,-0.100000)"
fill="#000000" stroke="none">
<path d="M200 249 l0 -30 -10 -20 -11 -19 -17 0 -18 0 -11 11 -12 12 6 28 6
29 -52 0 -52 0 3 -42 3 -43 33 -3 32 -3 0 -29 0 -30 -23 -15 -24 -15 -24 2
-24 3 4 -25 3 -25 10 -18 9 -18 52 3 52 3 3 33 3 33 27 -3 27 -3 0 -30 0 -30
34 -3 34 -3 8 8 8 8 -11 48 -12 48 -14 -6 -13 -5 -15 15 -15 15 6 21 7 21 33
-5 33 -5 6 15 6 15 0 34 0 34 -26 10 -25 10 -20 0 -19 0 0 -31z"/>
</g>
</svg>
