<?xml version="1.0" standalone="no"?>
<!DOCTYPE svg PUBLIC "-//W3C//DTD SVG 20010904//EN"
 "http://www.w3.org/TR/2001/REC-SVG-20010904/DTD/svg10.dtd">
<svg version="1.0" xmlns="http://www.w3.org/2000/svg"
 width="31.000000pt" height="30.000000pt" viewBox="0 0 31.000000 30.000000"
 preserveAspectRatio="xMidYMid meet">
<metadata>
Created by potrace 1.16, written by Peter Selinger 2001-2019
</metadata>
<g transform="translate(0.000000,30.000000) scale(0.100000,-0.100000)"
fill="#000000" stroke="none">
<path d="M200 267 l0 -33 -13 -19 -14 -18 -11 7 -12 7 0 35 0 34 -61 0 -60 0
3 -52 3 -53 33 -3 32 -3 0 -18 0 -19 -15 -12 -16 -13 -32 -1 -32 -1 3 -33 2
-34 11 -19 10 -20 62 3 62 3 3 33 3 32 14 0 14 0 3 -32 3 -33 44 -3 44 -3 9 9
10 10 -12 55 -13 55 -28 6 -29 5 6 16 7 16 30 -7 29 -6 9 13 9 14 0 48 0 47
-26 10 -25 10 -30 0 -29 0 0 -33z"/>
</g>
</svg>
