<?xml version="1.0" standalone="no"?>
<!DOCTYPE svg PUBLIC "-//W3C//DTD SVG 20010904//EN"
 "http://www.w3.org/TR/2001/REC-SVG-20010904/DTD/svg10.dtd">
<svg version="1.0" xmlns="http://www.w3.org/2000/svg"
 width="31.000000pt" height="30.000000pt" viewBox="0 0 31.000000 30.000000"
 preserveAspectRatio="xMidYMid meet">
<metadata>
Created by potrace 1.16, written by Peter Selinger 2001-2019
</metadata>
<g transform="translate(0.000000,30.000000) scale(0.100000,-0.100000)"
fill="#000000" stroke="none">
<path d="M34 293 l-21 -4 -7 -46 -6 -46 0 -15 0 -14 31 6 32 6 13 -11 13 -11
-11 -18 -11 -17 -18 4 -17 5 -11 -53 -12 -52 9 -9 9 -9 49 3 49 3 3 27 3 28
15 0 14 0 0 -30 0 -30 48 0 47 0 22 -6 21 -6 1 34 1 33 3 25 2 25 -42 3 -41 3
-12 14 -12 15 6 15 6 15 25 -6 25 -6 15 12 15 12 0 49 0 49 -61 0 -61 0 5 -22
6 -21 -10 -19 -10 -18 -14 0 -14 0 -11 19 -10 20 6 16 7 17 -14 9 -14 9 -20
-2 -20 -1 -21 -4z"/>
</g>
</svg>
