<?xml version="1.0" standalone="no"?>
<!DOCTYPE svg PUBLIC "-//W3C//DTD SVG 20010904//EN"
 "http://www.w3.org/TR/2001/REC-SVG-20010904/DTD/svg10.dtd">
<svg version="1.0" xmlns="http://www.w3.org/2000/svg"
 width="29.000000pt" height="28.000000pt" viewBox="0 0 29.000000 28.000000"
 preserveAspectRatio="xMidYMid meet">
<metadata>
Created by potrace 1.16, written by Peter Selinger 2001-2019
</metadata>
<g transform="translate(0.000000,28.000000) scale(0.100000,-0.100000)"
fill="#000000" stroke="none">
<path d="M33 273 l-23 -4 0 -18 0 -19 -6 -30 -6 -31 34 5 34 6 13 -16 14 -17
-14 -25 -13 -25 -18 4 -17 5 -9 -42 -9 -41 7 -8 7 -8 39 3 39 3 3 28 3 28 27
-3 27 -3 -3 -27 -3 -28 54 0 55 0 10 40 10 39 -6 6 -5 5 -37 0 -38 0 -12 14
-12 15 4 23 3 23 30 0 30 0 13 8 12 8 0 40 0 39 -49 0 -49 0 5 -19 5 -19 -11
-21 -12 -21 -24 0 -24 0 -12 21 -11 21 5 18 5 19 -15 5 -15 6 -6 -1 -7 -2 -22
-4z"/>
</g>
</svg>
