<?xml version="1.0" standalone="no"?>
<!DOCTYPE svg PUBLIC "-//W3C//DTD SVG 20010904//EN"
 "http://www.w3.org/TR/2001/REC-SVG-20010904/DTD/svg10.dtd">
<svg version="1.0" xmlns="http://www.w3.org/2000/svg"
 width="28.000000pt" height="34.000000pt" viewBox="0 0 28.000000 34.000000"
 preserveAspectRatio="xMidYMid meet">
<metadata>
Created by potrace 1.16, written by Peter Selinger 2001-2019
</metadata>
<g transform="translate(0.000000,34.000000) scale(0.100000,-0.100000)"
fill="#000000" stroke="none">
<path d="M117 334 l-6 -6 6 -14 5 -14 -12 -15 -12 -15 -43 0 -43 0 -5 -26 -5
-26 5 -18 5 -19 27 -3 26 -3 3 -38 3 -37 -20 0 -21 0 -5 -28 -6 -27 -10 -17
-9 -18 0 -3 0 -3 48 6 47 5 3 38 3 38 37 -3 37 -3 -3 -21 -3 -21 13 -10 13
-10 39 -6 38 -6 -7 37 -7 37 -9 18 -10 18 -16 -3 -15 -3 -11 16 -10 16 6 17 7
18 37 -4 38 -3 3 47 3 47 -58 -2 -58 -2 -1 28 -1 29 -14 9 -14 9 -6 0 -6 0 -6
-6z"/>
</g>
</svg>
