<?xml version="1.0" standalone="no"?>
<!DOCTYPE svg PUBLIC "-//W3C//DTD SVG 20010904//EN"
 "http://www.w3.org/TR/2001/REC-SVG-20010904/DTD/svg10.dtd">
<svg version="1.0" xmlns="http://www.w3.org/2000/svg"
 width="30.000000pt" height="36.000000pt" viewBox="0 0 30.000000 36.000000"
 preserveAspectRatio="xMidYMid meet">
<metadata>
Created by potrace 1.16, written by Peter Selinger 2001-2019
</metadata>
<g transform="translate(0.000000,36.000000) scale(0.100000,-0.100000)"
fill="#000000" stroke="none">
<path d="M113 345 l-5 -16 6 -6 6 -6 -11 -14 -11 -13 -43 0 -42 0 -7 -31 -6
-31 6 -23 6 -24 26 -3 27 -3 3 -28 3 -27 -20 0 -21 0 -5 -28 -6 -27 -10 -17
-9 -18 0 -15 0 -15 48 6 47 6 13 4 12 3 0 36 0 35 25 0 25 0 0 -24 0 -24 13
-10 12 -9 48 -7 47 -7 -1 28 0 28 -12 35 -12 34 -25 6 -25 6 0 14 0 15 40 0
40 0 3 58 3 58 -57 -3 -57 -3 -1 28 -2 28 -14 9 -15 10 -18 0 -18 0 -6 -15z"/>
</g>
</svg>
