<?xml version="1.0" standalone="no"?>
<!DOCTYPE svg PUBLIC "-//W3C//DTD SVG 20010904//EN"
 "http://www.w3.org/TR/2001/REC-SVG-20010904/DTD/svg10.dtd">
<svg version="1.0" xmlns="http://www.w3.org/2000/svg"
 width="37.000000pt" height="40.000000pt" viewBox="0 0 37.000000 40.000000"
 preserveAspectRatio="xMidYMid meet">
<metadata>
Created by potrace 1.16, written by Peter Selinger 2001-2019
</metadata>
<g transform="translate(0.000000,40.000000) scale(0.100000,-0.100000)"
fill="#000000" stroke="none">
<path d="M114 386 l-6 -16 5 -20 5 -20 -49 0 -48 0 -11 -19 -10 -20 0 -26 0
-27 25 6 25 6 20 -10 20 -11 0 -19 0 -19 -12 -8 -13 -8 -17 3 -17 3 -6 -28 -6
-28 -8 -27 -9 -27 47 -3 46 -3 5 -30 5 -30 40 0 40 0 0 20 0 20 53 11 54 12 3
4 3 3 14 50 14 50 19 0 20 0 0 35 0 35 -25 0 -25 0 -12 8 -13 8 0 33 0 33 -57
-1 -58 -1 -5 35 -5 35 -23 3 -22 3 -6 -15z"/>
</g>
</svg>
