<?xml version="1.0" standalone="no"?>
<!DOCTYPE svg PUBLIC "-//W3C//DTD SVG 20010904//EN"
 "http://www.w3.org/TR/2001/REC-SVG-20010904/DTD/svg10.dtd">
<svg version="1.0" xmlns="http://www.w3.org/2000/svg"
 width="46.000000pt" height="33.000000pt" viewBox="0 0 46.000000 33.000000"
 preserveAspectRatio="xMidYMid meet">
<metadata>
Created by potrace 1.16, written by Peter Selinger 2001-2019
</metadata>
<g transform="translate(0.000000,33.000000) scale(0.100000,-0.100000)"
fill="#000000" stroke="none">
<path d="M197 323 l-7 -6 0 -30 0 -29 -50 4 -50 3 0 -47 0 -47 -42 -3 -43 -3
-3 -23 -4 -24 18 -19 17 -19 18 5 18 6 7 -46 6 -46 67 3 66 3 -1 25 -1 25 9 6
10 7 20 -6 19 -5 -5 -12 -4 -12 6 -10 7 -11 45 -4 45 -3 0 45 0 45 45 5 45 5
3 22 3 23 -28 11 -27 10 -18 -4 -18 -5 0 52 0 53 -56 12 -56 13 -5 19 -5 19
-22 0 -23 0 -6 -7z"/>
</g>
</svg>
