<?xml version="1.0" standalone="no"?>
<!DOCTYPE svg PUBLIC "-//W3C//DTD SVG 20010904//EN"
 "http://www.w3.org/TR/2001/REC-SVG-20010904/DTD/svg10.dtd">
<svg version="1.0" xmlns="http://www.w3.org/2000/svg"
 width="41.000000pt" height="38.000000pt" viewBox="0 0 41.000000 38.000000"
 preserveAspectRatio="xMidYMid meet">
<metadata>
Created by potrace 1.16, written by Peter Selinger 2001-2019
</metadata>
<g transform="translate(0.000000,38.000000) scale(0.100000,-0.100000)"
fill="#000000" stroke="none">
<path d="M236 373 l-5 -5 5 -28 6 -28 -11 -21 -12 -21 -29 0 -30 0 -6 25 -6
25 5 20 5 20 -16 0 -17 0 -22 -6 -22 -6 -3 -47 -3 -46 -35 -5 -35 -5 0 -25 0
-25 37 -3 37 -3 3 -47 3 -47 43 -3 42 -3 0 -33 0 -32 12 -12 12 -12 18 0 17 0
11 20 11 21 -3 32 -3 32 15 -1 15 -1 25 -4 25 -4 0 45 0 45 33 1 34 1 9 14 9
14 0 12 0 12 -18 10 -19 10 -21 -6 -22 -5 0 56 0 56 -7 0 -8 0 -37 9 -37 9 -5
-5z"/>
</g>
</svg>
