<?xml version="1.0" standalone="no"?>
<!DOCTYPE svg PUBLIC "-//W3C//DTD SVG 20010904//EN"
 "http://www.w3.org/TR/2001/REC-SVG-20010904/DTD/svg10.dtd">
<svg version="1.0" xmlns="http://www.w3.org/2000/svg"
 width="36.000000pt" height="35.000000pt" viewBox="0 0 36.000000 35.000000"
 preserveAspectRatio="xMidYMid meet">
<metadata>
Created by potrace 1.16, written by Peter Selinger 2001-2019
</metadata>
<g transform="translate(0.000000,35.000000) scale(0.100000,-0.100000)"
fill="#000000" stroke="none">
<path d="M258 344 l-8 -7 6 -24 6 -23 -12 -15 -12 -15 -28 0 -28 0 -11 14 -12
14 7 26 6 26 -46 0 -46 0 0 -44 0 -45 -20 -6 -20 -6 -21 6 -21 7 4 -29 3 -28
49 -3 49 -3 -6 -53 -5 -54 38 -6 39 -6 3 -33 3 -32 31 -3 31 -3 17 17 17 17
-6 24 -6 25 46 -4 46 -3 -7 55 -6 55 -5 8 -5 9 -20 -5 -19 -5 -6 14 -6 15 12
12 12 12 27 0 27 0 3 30 3 30 -13 18 -13 17 -35 6 -35 6 -7 -8z"/>
</g>
</svg>
