<?xml version="1.0" standalone="no"?>
<!DOCTYPE svg PUBLIC "-//W3C//DTD SVG 20010904//EN"
 "http://www.w3.org/TR/2001/REC-SVG-20010904/DTD/svg10.dtd">
<svg version="1.0" xmlns="http://www.w3.org/2000/svg"
 width="38.000000pt" height="37.000000pt" viewBox="0 0 38.000000 37.000000"
 preserveAspectRatio="xMidYMid meet">
<metadata>
Created by potrace 1.16, written by Peter Selinger 2001-2019
</metadata>
<g transform="translate(0.000000,37.000000) scale(0.100000,-0.100000)"
fill="#000000" stroke="none">
<path d="M255 358 l-6 -14 3 -23 3 -23 -17 -12 -18 -11 -17 11 -18 11 3 32 4
31 -56 0 -56 0 0 -44 0 -44 -13 -5 -13 -5 -28 5 -27 6 3 -39 3 -39 49 -3 48
-3 -6 -53 -7 -53 40 -7 40 -6 3 -33 3 -32 41 -3 42 -3 16 16 16 16 0 26 0 26
41 -7 41 -7 -7 68 -7 68 -5 8 -4 7 -27 0 -26 0 10 9 9 9 30 4 30 3 3 40 3 40
-14 19 -13 18 -47 5 -47 6 -5 -15z"/>
</g>
</svg>
