<?xml version="1.0" standalone="no"?>
<!DOCTYPE svg PUBLIC "-//W3C//DTD SVG 20010904//EN"
 "http://www.w3.org/TR/2001/REC-SVG-20010904/DTD/svg10.dtd">
<svg version="1.0" xmlns="http://www.w3.org/2000/svg"
 width="42.000000pt" height="28.000000pt" viewBox="0 0 42.000000 28.000000"
 preserveAspectRatio="xMidYMid meet">
<metadata>
Created by potrace 1.16, written by Peter Selinger 2001-2019
</metadata>
<g transform="translate(0.000000,28.000000) scale(0.100000,-0.100000)"
fill="#000000" stroke="none">
<path d="M73 225 l2 -50 -25 0 -25 0 -13 -8 -13 -9 3 -16 3 -17 25 0 25 0 8
-62 9 -63 31 0 32 0 23 6 23 7 -6 28 -6 28 18 9 18 9 13 -4 12 -5 0 -19 0 -19
23 -9 22 -8 28 -7 27 -6 0 56 0 57 34 -6 35 -6 11 14 12 14 -4 13 -4 12 -40 0
-39 1 -3 50 -3 51 -47 -6 -46 -5 -1 -30 0 -30 -35 0 -35 0 0 35 -1 35 -46 5
-47 6 2 -51z"/>
</g>
</svg>
