<?xml version="1.0" standalone="no"?>
<!DOCTYPE svg PUBLIC "-//W3C//DTD SVG 20010904//EN"
 "http://www.w3.org/TR/2001/REC-SVG-20010904/DTD/svg10.dtd">
<svg version="1.0" xmlns="http://www.w3.org/2000/svg"
 width="44.000000pt" height="30.000000pt" viewBox="0 0 44.000000 30.000000"
 preserveAspectRatio="xMidYMid meet">
<metadata>
Created by potrace 1.16, written by Peter Selinger 2001-2019
</metadata>
<g transform="translate(0.000000,30.000000) scale(0.100000,-0.100000)"
fill="#000000" stroke="none">
<path d="M72 247 l3 -52 -26 3 -26 3 -12 -15 -13 -15 4 -23 3 -23 25 0 25 0 8
-63 9 -62 41 0 42 0 23 6 23 7 -3 31 -3 31 18 3 17 3 0 -21 0 -20 24 -10 24
-9 36 -6 36 -7 0 56 0 57 33 -6 33 -7 13 16 13 15 -4 23 -3 23 -40 0 -40 0 -3
52 -3 52 -47 -5 -47 -6 -13 -4 -13 -4 3 -27 3 -28 -25 0 -25 0 3 33 2 33 -12
3 -13 4 -48 6 -48 6 3 -53z"/>
</g>
</svg>
