<?xml version="1.0" standalone="no"?>
<!DOCTYPE svg PUBLIC "-//W3C//DTD SVG 20010904//EN"
 "http://www.w3.org/TR/2001/REC-SVG-20010904/DTD/svg10.dtd">
<svg version="1.0" xmlns="http://www.w3.org/2000/svg"
 width="30.000000pt" height="36.000000pt" viewBox="0 0 30.000000 36.000000"
 preserveAspectRatio="xMidYMid meet">
<metadata>
Created by potrace 1.16, written by Peter Selinger 2001-2019
</metadata>
<g transform="translate(0.000000,36.000000) scale(0.100000,-0.100000)"
fill="#000000" stroke="none">
<path d="M0 216 l0 -145 43 2 42 2 3 -25 4 -25 10 -12 10 -13 34 0 33 0 11 19
10 20 0 20 0 20 43 3 42 3 -2 33 -1 33 -6 24 -6 24 -22 3 -21 3 -5 13 -4 12
36 0 36 0 6 23 5 24 -3 39 -3 39 -55 0 -55 0 -1 -26 -1 -26 -7 -12 -7 -11 -20
0 -19 0 0 30 0 29 -19 11 -20 10 -45 0 -46 0 0 -144z"/>
</g>
</svg>
