<?xml version="1.0" standalone="no"?>
<!DOCTYPE svg PUBLIC "-//W3C//DTD SVG 20010904//EN"
 "http://www.w3.org/TR/2001/REC-SVG-20010904/DTD/svg10.dtd">
<svg version="1.0" xmlns="http://www.w3.org/2000/svg"
 width="36.000000pt" height="29.000000pt" viewBox="0 0 36.000000 29.000000"
 preserveAspectRatio="xMidYMid meet">
<metadata>
Created by potrace 1.16, written by Peter Selinger 2001-2019
</metadata>
<g transform="translate(0.000000,29.000000) scale(0.100000,-0.100000)"
fill="#000000" stroke="none">
<path d="M10 235 l0 -55 34 0 35 0 7 -12 7 -11 -18 -13 -18 -14 -22 6 -22 5
-7 -16 -6 -17 6 -54 7 -54 68 0 69 0 -6 41 -7 42 14 -5 14 -5 3 -36 3 -37 65
0 64 0 0 15 0 15 16 40 16 40 15 0 14 0 -3 43 -3 42 -32 3 -33 3 0 40 0 39
-29 0 -29 0 -32 -6 -32 -7 5 -19 5 -18 -20 -11 -20 -11 -6 7 -6 6 2 34 3 35
-61 0 -60 0 0 -55z"/>
</g>
</svg>
