<?xml version="1.0" standalone="no"?>
<!DOCTYPE svg PUBLIC "-//W3C//DTD SVG 20010904//EN"
 "http://www.w3.org/TR/2001/REC-SVG-20010904/DTD/svg10.dtd">
<svg version="1.0" xmlns="http://www.w3.org/2000/svg"
 width="34.000000pt" height="27.000000pt" viewBox="0 0 34.000000 27.000000"
 preserveAspectRatio="xMidYMid meet">
<metadata>
Created by potrace 1.16, written by Peter Selinger 2001-2019
</metadata>
<g transform="translate(0.000000,27.000000) scale(0.100000,-0.100000)"
fill="#000000" stroke="none">
<path d="M10 226 l0 -45 38 -3 37 -3 3 -22 3 -22 -21 -11 -22 -12 -18 5 -19 5
-4 -12 -5 -12 5 -47 6 -47 56 0 57 0 -4 41 -4 41 23 -4 24 -3 3 -37 3 -38 55
0 54 0 0 15 0 15 16 40 16 40 15 0 14 0 -3 33 -3 32 -32 -1 -33 -2 0 44 0 44
-27 -1 -28 -1 -20 -6 -20 -7 0 -20 0 -20 -28 -9 -28 -10 -10 14 -9 15 6 28 6
27 -51 0 -51 0 0 -44z"/>
</g>
</svg>
