<?xml version="1.0" standalone="no"?>
<!DOCTYPE svg PUBLIC "-//W3C//DTD SVG 20010904//EN"
 "http://www.w3.org/TR/2001/REC-SVG-20010904/DTD/svg10.dtd">
<svg version="1.0" xmlns="http://www.w3.org/2000/svg"
 width="31.000000pt" height="36.000000pt" viewBox="0 0 31.000000 36.000000"
 preserveAspectRatio="xMidYMid meet">
<metadata>
Created by potrace 1.16, written by Peter Selinger 2001-2019
</metadata>
<g transform="translate(0.000000,36.000000) scale(0.100000,-0.100000)"
fill="#000000" stroke="none">
<path d="M168 322 l-3 -37 -20 0 -20 0 -5 30 -5 30 -58 3 -57 3 0 -56 0 -55
23 0 23 0 12 -12 12 -12 0 -13 0 -13 -24 -9 -23 -9 -7 -32 -6 -33 0 -18 0 -19
45 0 45 0 0 -19 0 -19 6 -16 6 -16 32 0 32 0 12 12 12 12 0 28 0 28 38 -5 37
-6 14 10 14 9 5 51 5 51 -39 0 -39 0 -14 9 -14 9 7 11 7 11 27 0 27 0 12 8 12
7 -2 57 -1 56 -62 1 -63 1 -3 -38z"/>
</g>
</svg>
