<?xml version="1.0" standalone="no"?>
<!DOCTYPE svg PUBLIC "-//W3C//DTD SVG 20010904//EN"
 "http://www.w3.org/TR/2001/REC-SVG-20010904/DTD/svg10.dtd">
<svg version="1.0" xmlns="http://www.w3.org/2000/svg"
 width="27.000000pt" height="34.000000pt" viewBox="0 0 27.000000 34.000000"
 preserveAspectRatio="xMidYMid meet">
<metadata>
Created by potrace 1.16, written by Peter Selinger 2001-2019
</metadata>
<g transform="translate(0.000000,34.000000) scale(0.100000,-0.100000)"
fill="#000000" stroke="none">
<path d="M180 310 l0 -29 -19 -11 -20 -10 -15 6 -16 6 0 24 0 24 -24 6 -24 6
-28 -4 -29 -3 -3 -47 -3 -46 33 1 33 2 3 -32 3 -33 -14 0 -15 0 -16 -40 -16
-40 0 -13 0 -12 44 3 45 4 3 -34 3 -33 27 -3 27 -3 16 24 15 24 -5 16 -6 15 9
6 9 5 32 -9 31 -9 0 27 0 27 -6 23 -6 22 -23 0 -24 0 -6 20 -6 19 11 21 11 20
29 0 30 0 0 39 0 39 -16 6 -16 6 -29 0 -29 0 0 -30z"/>
</g>
</svg>
