<?xml version="1.0" standalone="no"?>
<!DOCTYPE svg PUBLIC "-//W3C//DTD SVG 20010904//EN"
 "http://www.w3.org/TR/2001/REC-SVG-20010904/DTD/svg10.dtd">
<svg version="1.0" xmlns="http://www.w3.org/2000/svg"
 width="29.000000pt" height="36.000000pt" viewBox="0 0 29.000000 36.000000"
 preserveAspectRatio="xMidYMid meet">
<metadata>
Created by potrace 1.16, written by Peter Selinger 2001-2019
</metadata>
<g transform="translate(0.000000,36.000000) scale(0.100000,-0.100000)"
fill="#000000" stroke="none">
<path d="M178 328 l-3 -33 -22 -3 -23 -3 0 25 0 26 -23 6 -24 5 -39 -3 -39 -3
-3 -58 -3 -58 33 3 33 3 3 -22 3 -23 -14 0 -15 0 -16 -40 -16 -40 0 -25 0 -25
44 6 45 7 3 -34 3 -34 37 -3 36 -3 16 23 16 22 0 19 0 19 35 -6 35 -7 0 38 0
38 -6 23 -6 22 -23 0 -23 0 -5 13 -4 12 9 18 9 17 29 0 30 0 0 49 0 49 -16 6
-16 6 -38 0 -39 0 -3 -32z"/>
</g>
</svg>
