<?xml version="1.0" standalone="no"?>
<!DOCTYPE svg PUBLIC "-//W3C//DTD SVG 20010904//EN"
 "http://www.w3.org/TR/2001/REC-SVG-20010904/DTD/svg10.dtd">
<svg version="1.0" xmlns="http://www.w3.org/2000/svg"
 width="43.000000pt" height="38.000000pt" viewBox="0 0 43.000000 38.000000"
 preserveAspectRatio="xMidYMid meet">
<metadata>
Created by potrace 1.16, written by Peter Selinger 2001-2019
</metadata>
<g transform="translate(0.000000,38.000000) scale(0.100000,-0.100000)"
fill="#000000" stroke="none">
<path d="M63 357 l6 -22 6 -37 7 -37 -39 -3 -38 -3 0 -25 0 -25 43 -3 42 -3
-6 -55 -7 -54 42 0 41 0 0 -33 0 -33 12 -12 12 -12 27 0 28 0 15 16 16 15 0
24 0 23 16 6 16 6 9 -6 10 -6 25 6 24 6 0 40 0 39 28 3 27 3 0 45 0 45 -32 3
-33 3 0 50 0 49 -61 0 -62 0 6 -34 6 -35 -15 -12 -15 -12 -25 13 -25 14 6 28
7 28 -14 4 -13 4 -49 6 -48 6 5 -23z"/>
</g>
</svg>
