<?xml version="1.0" standalone="no"?>
<!DOCTYPE svg PUBLIC "-//W3C//DTD SVG 20010904//EN"
 "http://www.w3.org/TR/2001/REC-SVG-20010904/DTD/svg10.dtd">
<svg version="1.0" xmlns="http://www.w3.org/2000/svg"
 width="38.000000pt" height="37.000000pt" viewBox="0 0 38.000000 37.000000"
 preserveAspectRatio="xMidYMid meet">
<metadata>
Created by potrace 1.16, written by Peter Selinger 2001-2019
</metadata>
<g transform="translate(0.000000,37.000000) scale(0.100000,-0.100000)"
fill="#000000" stroke="none">
<path d="M3 349 l7 -24 0 -42 0 -42 33 -3 32 -3 0 -25 0 -25 -23 3 -22 3 -4
-13 -4 -13 -6 -49 -6 -48 25 6 25 6 24 -6 25 -6 3 -31 3 -32 35 0 34 0 6 25 6
25 57 9 57 8 0 17 -1 16 -14 25 -14 25 -1 13 0 12 31 0 30 0 20 10 19 11 0 19
0 18 -6 16 -6 16 -34 0 -34 0 0 40 0 40 -12 0 -13 0 -42 -13 -43 -13 -14 -19
-15 -20 -18 11 -18 11 -3 27 -3 26 -37 0 -37 0 -24 7 -24 6 6 -24z"/>
</g>
</svg>
