<?xml version="1.0" standalone="no"?>
<!DOCTYPE svg PUBLIC "-//W3C//DTD SVG 20010904//EN"
 "http://www.w3.org/TR/2001/REC-SVG-20010904/DTD/svg10.dtd">
<svg version="1.0" xmlns="http://www.w3.org/2000/svg"
 width="45.000000pt" height="43.000000pt" viewBox="0 0 45.000000 43.000000"
 preserveAspectRatio="xMidYMid meet">
<metadata>
Created by potrace 1.16, written by Peter Selinger 2001-2019
</metadata>
<g transform="translate(0.000000,43.000000) scale(0.100000,-0.100000)"
fill="#000000" stroke="none">
<path d="M187 424 l-7 -7 0 -22 0 -21 -12 -12 -12 -12 -43 0 -43 0 0 -44 0
-44 -20 5 -20 5 -15 -12 -15 -12 0 -29 0 -28 16 -15 15 -16 21 0 21 0 -6 -45
-7 -45 39 0 39 0 16 -6 16 -6 0 -23 0 -23 16 -6 16 -6 23 0 23 0 16 6 16 6 0
12 0 12 50 13 50 13 0 54 0 54 23 0 22 0 13 9 13 8 -3 39 -3 39 -30 3 -30 4
-7 11 -8 12 0 27 0 26 -32 10 -33 10 -27 6 -27 6 -3 23 -3 22 -25 3 -26 3 -7
-7z"/>
</g>
</svg>
