<?xml version="1.0" standalone="no"?>
<!DOCTYPE svg PUBLIC "-//W3C//DTD SVG 20010904//EN"
 "http://www.w3.org/TR/2001/REC-SVG-20010904/DTD/svg10.dtd">
<svg version="1.0" xmlns="http://www.w3.org/2000/svg"
 width="43.000000pt" height="41.000000pt" viewBox="0 0 43.000000 41.000000"
 preserveAspectRatio="xMidYMid meet">
<metadata>
Created by potrace 1.16, written by Peter Selinger 2001-2019
</metadata>
<g transform="translate(0.000000,41.000000) scale(0.100000,-0.100000)"
fill="#000000" stroke="none">
<path d="M187 404 l-7 -7 0 -22 0 -21 -12 -12 -12 -12 -43 0 -43 0 0 -46 0
-46 -22 5 -22 6 -13 -11 -13 -10 0 -17 0 -16 9 -14 9 -14 24 -2 23 -2 0 -46 0
-47 38 0 38 0 20 -11 20 -10 -6 -19 -6 -18 21 -7 21 -7 25 6 24 6 -3 11 -2 12
52 14 52 15 3 57 3 56 14 -3 13 -3 20 7 19 6 -3 31 -3 32 -30 3 -30 4 -7 11
-8 12 0 27 0 26 -32 10 -33 10 -27 6 -27 6 -3 22 -3 23 -15 3 -16 3 -7 -7z"/>
</g>
</svg>
