<?xml version="1.0" standalone="no"?>
<!DOCTYPE svg PUBLIC "-//W3C//DTD SVG 20010904//EN"
 "http://www.w3.org/TR/2001/REC-SVG-20010904/DTD/svg10.dtd">
<svg version="1.0" xmlns="http://www.w3.org/2000/svg"
 width="47.000000pt" height="38.000000pt" viewBox="0 0 47.000000 38.000000"
 preserveAspectRatio="xMidYMid meet">
<metadata>
Created by potrace 1.16, written by Peter Selinger 2001-2019
</metadata>
<g transform="translate(0.000000,38.000000) scale(0.100000,-0.100000)"
fill="#000000" stroke="none">
<path d="M197 373 l-7 -6 0 -18 0 -18 -19 -11 -20 -10 -35 0 -35 0 -3 -42 -3
-43 -23 3 -23 3 -15 -11 -14 -12 0 -39 0 -40 29 -5 29 -6 8 -42 9 -41 72 -3
72 -3 7 25 6 25 -7 12 -8 12 14 -5 14 -5 -3 -32 -3 -32 11 -15 12 -14 57 7 56
6 11 11 11 12 11 34 12 35 22 10 23 10 3 33 3 33 -12 15 -12 15 -26 -3 -26 -3
-3 39 -3 39 -14 13 -14 14 -23 0 -23 0 -22 6 -23 6 0 18 0 18 -16 6 -16 6 -17
0 -18 0 -6 -7z"/>
</g>
</svg>
