<?xml version="1.0" standalone="no"?>
<!DOCTYPE svg PUBLIC "-//W3C//DTD SVG 20010904//EN"
 "http://www.w3.org/TR/2001/REC-SVG-20010904/DTD/svg10.dtd">
<svg version="1.0" xmlns="http://www.w3.org/2000/svg"
 width="45.000000pt" height="36.000000pt" viewBox="0 0 45.000000 36.000000"
 preserveAspectRatio="xMidYMid meet">
<metadata>
Created by potrace 1.16, written by Peter Selinger 2001-2019
</metadata>
<g transform="translate(0.000000,36.000000) scale(0.100000,-0.100000)"
fill="#000000" stroke="none">
<path d="M197 353 l-7 -6 0 -18 0 -18 -19 -11 -20 -10 -34 0 -34 0 -1 -35 -1
-36 -7 -10 -6 -11 -21 6 -21 5 -13 -11 -13 -10 0 -29 0 -29 13 -2 12 -1 15 -1
14 -1 11 -45 11 -45 59 -3 58 -3 8 13 8 13 -5 21 -5 21 15 6 15 6 11 -14 12
-14 -7 -29 -6 -29 13 -11 14 -11 39 9 39 9 4 -4 4 -4 13 13 13 13 13 42 12 42
12 -5 13 -4 11 11 11 11 0 22 0 22 -13 10 -13 11 -22 -6 -22 -5 -5 13 -4 14
-3 30 -3 30 -12 13 -12 12 -25 0 -25 0 -26 10 -27 10 5 14 6 14 -15 6 -16 6
-7 0 -8 0 -6 -7z"/>
</g>
</svg>
