<?xml version="1.0" standalone="no"?>
<!DOCTYPE svg PUBLIC "-//W3C//DTD SVG 20010904//EN"
 "http://www.w3.org/TR/2001/REC-SVG-20010904/DTD/svg10.dtd">
<svg version="1.0" xmlns="http://www.w3.org/2000/svg"
 width="34.000000pt" height="40.000000pt" viewBox="0 0 34.000000 40.000000"
 preserveAspectRatio="xMidYMid meet">
<metadata>
Created by potrace 1.16, written by Peter Selinger 2001-2019
</metadata>
<g transform="translate(0.000000,40.000000) scale(0.100000,-0.100000)"
fill="#000000" stroke="none">
<path d="M100 366 l0 -36 -44 0 -44 0 -5 -13 -5 -14 7 -34 7 -34 24 0 25 0 13
-8 12 -8 0 -23 0 -22 -11 -11 -11 -11 -13 4 -12 5 -11 -39 -12 -39 0 -7 0 -6
34 0 35 0 3 -32 3 -33 32 -3 32 -3 11 21 12 22 -5 20 -6 20 47 -4 47 -3 3 53
3 52 12 1 12 1 11 -1 11 -1 13 15 12 15 -6 15 -6 16 -36 -7 -36 -7 3 50 4 50
-47 -5 -47 -4 -3 38 -3 39 -32 3 -33 3 0 -35z"/>
</g>
</svg>
