<?xml version="1.0" standalone="no"?>
<!DOCTYPE svg PUBLIC "-//W3C//DTD SVG 20010904//EN"
 "http://www.w3.org/TR/2001/REC-SVG-20010904/DTD/svg10.dtd">
<svg version="1.0" xmlns="http://www.w3.org/2000/svg"
 width="28.000000pt" height="35.000000pt" viewBox="0 0 28.000000 35.000000"
 preserveAspectRatio="xMidYMid meet">
<metadata>
Created by potrace 1.16, written by Peter Selinger 2001-2019
</metadata>
<g transform="translate(0.000000,35.000000) scale(0.100000,-0.100000)"
fill="#000000" stroke="none">
<path d="M123 343 l-13 -5 0 -23 0 -23 -16 -6 -16 -6 -34 0 -34 0 0 -22 0 -23
-6 -22 -6 -23 28 0 29 0 13 -9 14 -8 -4 -29 -3 -29 -22 -3 -22 -3 -8 -42 -9
-42 29 -8 29 -8 16 3 17 3 -3 31 -3 31 15 12 16 13 15 -6 15 -5 0 -46 0 -45
29 0 29 0 31 6 31 7 0 44 0 44 -11 20 -10 20 -22 -3 -22 -3 -3 17 -3 17 33 3
33 3 3 49 3 49 -12 8 -12 7 -44 7 -44 6 -9 25 -10 24 -7 -1 -8 -1 -12 -5z"/>
</g>
</svg>
