<?xml version="1.0" standalone="no"?>
<!DOCTYPE svg PUBLIC "-//W3C//DTD SVG 20010904//EN"
 "http://www.w3.org/TR/2001/REC-SVG-20010904/DTD/svg10.dtd">
<svg version="1.0" xmlns="http://www.w3.org/2000/svg"
 width="31.000000pt" height="36.000000pt" viewBox="0 0 31.000000 36.000000"
 preserveAspectRatio="xMidYMid meet">
<metadata>
Created by potrace 1.16, written by Peter Selinger 2001-2019
</metadata>
<g transform="translate(0.000000,36.000000) scale(0.100000,-0.100000)"
fill="#000000" stroke="none">
<path d="M130 346 l0 -15 -16 -15 -15 -16 -45 0 -44 0 0 -55 0 -55 23 0 22 0
14 -9 13 -9 -7 -21 -6 -21 -36 0 -36 0 6 -47 5 -47 18 -13 19 -14 40 3 40 3 5
30 5 30 15 0 15 0 -3 -33 -4 -32 16 -6 16 -6 56 7 57 7 -7 53 -6 53 -6 16 -6
16 -24 0 -24 0 0 14 0 15 38 3 37 3 3 58 3 57 -60 0 -60 0 2 28 2 27 -32 3
-33 3 0 -15z"/>
</g>
</svg>
