<?xml version="1.0" standalone="no"?>
<!DOCTYPE svg PUBLIC "-//W3C//DTD SVG 20010904//EN"
 "http://www.w3.org/TR/2001/REC-SVG-20010904/DTD/svg10.dtd">
<svg version="1.0" xmlns="http://www.w3.org/2000/svg"
 width="29.000000pt" height="34.000000pt" viewBox="0 0 29.000000 34.000000"
 preserveAspectRatio="xMidYMid meet">
<metadata>
Created by potrace 1.16, written by Peter Selinger 2001-2019
</metadata>
<g transform="translate(0.000000,34.000000) scale(0.100000,-0.100000)"
fill="#000000" stroke="none">
<path d="M130 326 l0 -15 -16 -15 -15 -16 -45 0 -44 0 0 -45 0 -45 19 0 19 0
16 -6 16 -6 0 -18 0 -18 -6 -16 -6 -16 -35 0 -36 0 6 -37 7 -38 17 -13 18 -13
30 3 30 3 1 23 1 24 16 15 16 16 16 -13 16 -13 -6 -28 -6 -27 11 -7 11 -7 50
7 51 7 -7 45 -7 46 -5 14 -6 15 -19 -5 -18 -5 -9 17 -10 17 9 14 8 13 34 1 33
1 3 48 3 47 -61 0 -61 0 3 28 3 27 -22 3 -23 3 0 -15z"/>
</g>
</svg>
