<?xml version="1.0" standalone="no"?>
<!DOCTYPE svg PUBLIC "-//W3C//DTD SVG 20010904//EN"
 "http://www.w3.org/TR/2001/REC-SVG-20010904/DTD/svg10.dtd">
<svg version="1.0" xmlns="http://www.w3.org/2000/svg"
 width="28.000000pt" height="40.000000pt" viewBox="0 0 28.000000 40.000000"
 preserveAspectRatio="xMidYMid meet">
<metadata>
Created by potrace 1.16, written by Peter Selinger 2001-2019
</metadata>
<g transform="translate(0.000000,40.000000) scale(0.100000,-0.100000)"
fill="#000000" stroke="none">
<path d="M120 369 l0 -31 -60 4 -60 3 0 -52 0 -53 34 0 34 0 11 -14 11 -13
-13 -11 -13 -11 -21 5 -21 6 -5 -19 -6 -18 -3 -40 -3 -40 48 -3 47 -3 0 -34 0
-34 23 -3 22 -3 23 3 22 4 0 23 0 23 35 6 35 7 10 -6 10 -6 0 9 0 9 -7 7 -8 7
-10 42 -11 42 -14 1 -15 1 -12 1 -13 2 0 29 0 30 13 8 12 8 25 0 24 0 7 33 7
33 -15 14 -14 15 -40 0 -39 0 -6 25 -6 25 -19 0 -19 0 0 -31z"/>
</g>
</svg>
