<?xml version="1.0" standalone="no"?>
<!DOCTYPE svg PUBLIC "-//W3C//DTD SVG 20010904//EN"
 "http://www.w3.org/TR/2001/REC-SVG-20010904/DTD/svg10.dtd">
<svg version="1.0" xmlns="http://www.w3.org/2000/svg"
 width="42.000000pt" height="34.000000pt" viewBox="0 0 42.000000 34.000000"
 preserveAspectRatio="xMidYMid meet">
<metadata>
Created by potrace 1.16, written by Peter Selinger 2001-2019
</metadata>
<g transform="translate(0.000000,34.000000) scale(0.100000,-0.100000)"
fill="#000000" stroke="none">
<path d="M195 330 l-6 -10 6 -10 7 -11 -12 -14 -12 -15 -44 0 -44 0 0 -46 0
-46 -34 6 -33 6 -13 -15 -12 -15 6 -25 6 -25 45 0 45 0 0 -39 0 -40 -10 -6
-10 -6 0 -7 0 -8 52 6 53 5 0 24 0 24 18 11 18 11 19 -22 18 -23 -5 -20 -5
-20 52 0 51 0 -4 18 -5 17 -6 35 -6 35 8 13 9 13 34 -3 34 -3 3 20 3 20 -33 0
-33 0 -3 56 -3 56 -47 15 -47 14 1 17 2 17 -29 0 -28 0 -6 -10z"/>
</g>
</svg>
