<?xml version="1.0" standalone="no"?>
<!DOCTYPE svg PUBLIC "-//W3C//DTD SVG 20010904//EN"
 "http://www.w3.org/TR/2001/REC-SVG-20010904/DTD/svg10.dtd">
<svg version="1.0" xmlns="http://www.w3.org/2000/svg"
 width="44.000000pt" height="36.000000pt" viewBox="0 0 44.000000 36.000000"
 preserveAspectRatio="xMidYMid meet">
<metadata>
Created by potrace 1.16, written by Peter Selinger 2001-2019
</metadata>
<g transform="translate(0.000000,36.000000) scale(0.100000,-0.100000)"
fill="#000000" stroke="none">
<path d="M195 348 l-4 -13 -3 -20 -3 -20 -48 -3 -47 -3 0 -44 0 -45 -30 6 -30
6 -15 -12 -15 -12 0 -23 0 -23 6 -16 6 -16 44 0 44 0 0 -29 0 -30 -10 -6 -10
-6 0 -19 0 -19 53 5 52 6 13 4 12 3 0 24 0 24 7 6 6 7 14 -11 13 -11 0 -29 0
-29 60 0 60 0 0 13 -1 12 -8 42 -8 42 6 8 6 9 35 0 35 -1 3 33 3 32 -33 -2
-33 -3 -3 56 -3 57 -44 12 -45 13 0 18 0 19 -40 0 -41 0 -4 -12z"/>
</g>
</svg>
