<?xml version="1.0" standalone="no"?>
<!DOCTYPE svg PUBLIC "-//W3C//DTD SVG 20010904//EN"
 "http://www.w3.org/TR/2001/REC-SVG-20010904/DTD/svg10.dtd">
<svg version="1.0" xmlns="http://www.w3.org/2000/svg"
 width="47.000000pt" height="45.000000pt" viewBox="0 0 47.000000 45.000000"
 preserveAspectRatio="xMidYMid meet">
<metadata>
Created by potrace 1.16, written by Peter Selinger 2001-2019
</metadata>
<g transform="translate(0.000000,45.000000) scale(0.100000,-0.100000)"
fill="#000000" stroke="none">
<path d="M207 443 l-7 -6 0 -33 0 -34 -22 -5 -23 -5 -29 -2 -29 -3 -11 -40
-12 -40 -32 -3 -32 -3 -6 -24 -6 -23 12 -21 11 -21 23 0 23 0 9 -52 9 -53 45
0 45 0 3 -26 3 -26 24 -13 25 -13 25 11 25 12 0 35 0 36 53 -3 52 -3 -3 42 -3
43 28 0 29 0 17 20 17 20 0 23 0 22 -9 14 -9 14 -31 -6 -31 -6 0 39 0 39 -10
6 -10 6 -42 7 -43 8 3 22 3 23 -11 15 -12 14 -28 0 -27 0 -6 -7z"/>
</g>
</svg>
