<?xml version="1.0" standalone="no"?>
<!DOCTYPE svg PUBLIC "-//W3C//DTD SVG 20010904//EN"
 "http://www.w3.org/TR/2001/REC-SVG-20010904/DTD/svg10.dtd">
<svg version="1.0" xmlns="http://www.w3.org/2000/svg"
 width="37.000000pt" height="29.000000pt" viewBox="0 0 37.000000 29.000000"
 preserveAspectRatio="xMidYMid meet">
<metadata>
Created by potrace 1.16, written by Peter Selinger 2001-2019
</metadata>
<g transform="translate(0.000000,29.000000) scale(0.100000,-0.100000)"
fill="#000000" stroke="none">
<path d="M0 243 l0 -48 9 -13 8 -14 34 4 34 3 0 -25 0 -25 -37 -3 -38 -3 0
-61 0 -61 45 5 45 6 15 12 15 12 0 25 0 24 18 -3 17 -3 5 -35 5 -35 58 -3 57
-3 0 39 0 38 13 16 12 16 19 4 19 3 11 18 11 17 -11 18 -11 17 -28 0 -28 0 -8
20 -8 20 0 28 -1 28 -52 -3 -53 -3 -3 -25 -4 -25 -8 -8 -8 -9 -21 7 -21 6 0
35 0 34 -55 0 -55 0 0 -47z"/>
</g>
</svg>
