<?xml version="1.0" standalone="no"?>
<!DOCTYPE svg PUBLIC "-//W3C//DTD SVG 20010904//EN"
 "http://www.w3.org/TR/2001/REC-SVG-20010904/DTD/svg10.dtd">
<svg version="1.0" xmlns="http://www.w3.org/2000/svg"
 width="43.000000pt" height="29.000000pt" viewBox="0 0 43.000000 29.000000"
 preserveAspectRatio="xMidYMid meet">
<metadata>
Created by potrace 1.16, written by Peter Selinger 2001-2019
</metadata>
<g transform="translate(0.000000,29.000000) scale(0.100000,-0.100000)"
fill="#000000" stroke="none">
<path d="M70 235 l0 -55 -35 0 -35 0 0 -35 0 -35 15 0 15 0 9 -22 9 -23 12
-33 13 -33 56 3 56 3 3 28 3 28 15 6 14 5 18 -22 18 -23 54 -5 53 -5 -7 26 -6
25 -6 16 -6 16 29 0 29 0 18 13 18 13 -4 29 -3 30 -30 5 -30 5 -3 49 -3 48
-31 -6 -30 -6 -30 0 -30 0 5 -25 4 -26 -19 -10 -20 -11 -14 6 -14 5 0 30 0 29
-16 6 -16 6 -39 0 -39 0 0 -55z"/>
</g>
</svg>
