<?xml version="1.0" standalone="no"?>
<!DOCTYPE svg PUBLIC "-//W3C//DTD SVG 20010904//EN"
 "http://www.w3.org/TR/2001/REC-SVG-20010904/DTD/svg10.dtd">
<svg version="1.0" xmlns="http://www.w3.org/2000/svg"
 width="41.000000pt" height="27.000000pt" viewBox="0 0 41.000000 27.000000"
 preserveAspectRatio="xMidYMid meet">
<metadata>
Created by potrace 1.16, written by Peter Selinger 2001-2019
</metadata>
<g transform="translate(0.000000,27.000000) scale(0.100000,-0.100000)"
fill="#000000" stroke="none">
<path d="M70 212 l0 -58 -35 4 -35 4 0 -26 0 -26 15 0 15 0 9 -22 9 -23 13
-33 12 -33 46 3 46 3 5 30 5 30 23 3 23 3 17 -21 17 -21 43 -6 43 -6 -11 27
-10 27 0 20 0 19 24 -6 24 -6 22 12 21 11 -3 22 -3 22 -21 1 -21 1 -12 7 -11
7 0 46 0 45 -16 -6 -16 -6 -33 0 -34 0 2 -27 2 -27 -28 -10 -28 -10 -17 11
-17 11 3 23 2 23 -12 8 -13 8 -32 0 -33 0 0 -58z"/>
</g>
</svg>
