<?xml version="1.0" standalone="no"?>
<!DOCTYPE svg PUBLIC "-//W3C//DTD SVG 20010904//EN"
 "http://www.w3.org/TR/2001/REC-SVG-20010904/DTD/svg10.dtd">
<svg version="1.0" xmlns="http://www.w3.org/2000/svg"
 width="32.000000pt" height="29.000000pt" viewBox="0 0 32.000000 29.000000"
 preserveAspectRatio="xMidYMid meet">
<metadata>
Created by potrace 1.16, written by Peter Selinger 2001-2019
</metadata>
<g transform="translate(0.000000,29.000000) scale(0.100000,-0.100000)"
fill="#000000" stroke="none">
<path d="M22 233 l3 -58 30 -9 30 -10 5 -4 5 -4 -19 -13 -18 -14 -29 6 -29 6
2 -64 3 -64 62 -3 62 -3 6 24 6 23 -3 14 -3 14 18 4 17 3 0 -19 0 -20 13 -10
12 -10 63 -8 63 -7 -6 39 -6 39 -5 22 -4 22 -27 3 -26 3 -5 13 -4 12 36 0 36
0 0 65 0 66 -37 -7 -38 -7 -25 -7 -25 -6 -3 -23 -4 -22 -26 3 -27 3 -5 30 -5
30 -48 3 -48 3 3 -58z"/>
</g>
</svg>
