<?xml version="1.0" standalone="no"?>
<!DOCTYPE svg PUBLIC "-//W3C//DTD SVG 20010904//EN"
 "http://www.w3.org/TR/2001/REC-SVG-20010904/DTD/svg10.dtd">
<svg version="1.0" xmlns="http://www.w3.org/2000/svg"
 width="43.000000pt" height="37.000000pt" viewBox="0 0 43.000000 37.000000"
 preserveAspectRatio="xMidYMid meet">
<metadata>
Created by potrace 1.16, written by Peter Selinger 2001-2019
</metadata>
<g transform="translate(0.000000,37.000000) scale(0.100000,-0.100000)"
fill="#000000" stroke="none">
<path d="M70 316 l0 -56 -32 2 -33 3 -3 -28 -3 -28 12 -15 13 -15 18 4 18 5 5
-21 4 -22 3 -25 3 -25 40 -5 40 -5 3 -20 3 -20 5 -23 4 -22 40 0 39 0 11 19
10 20 0 20 0 21 28 5 27 6 15 8 15 8 10 49 11 49 24 0 25 0 3 27 3 27 -20 11
-21 10 -22 -5 -23 -6 3 51 4 50 -40 0 -40 0 -16 -6 -16 -6 0 -29 0 -29 -26 -6
-25 -7 -9 9 -8 9 -4 30 -3 30 -47 3 -48 3 0 -55z"/>
</g>
</svg>
