<?xml version="1.0" standalone="no"?>
<!DOCTYPE svg PUBLIC "-//W3C//DTD SVG 20010904//EN"
 "http://www.w3.org/TR/2001/REC-SVG-20010904/DTD/svg10.dtd">
<svg version="1.0" xmlns="http://www.w3.org/2000/svg"
 width="37.000000pt" height="36.000000pt" viewBox="0 0 37.000000 36.000000"
 preserveAspectRatio="xMidYMid meet">
<metadata>
Created by potrace 1.16, written by Peter Selinger 2001-2019
</metadata>
<g transform="translate(0.000000,36.000000) scale(0.100000,-0.100000)"
fill="#000000" stroke="none">
<path d="M118 350 l-16 -10 5 -18 5 -19 -17 -17 -16 -16 -40 0 -39 0 0 -42 0
-43 9 -14 9 -13 31 7 31 7 0 -22 0 -22 -24 6 -25 6 -6 -11 -7 -10 -7 -55 -8
-55 56 3 56 3 0 24 0 24 18 11 18 11 9 -15 9 -14 -6 -28 -5 -28 40 0 41 0 25
10 26 9 -10 26 -10 26 0 21 0 20 27 -5 27 -5 24 9 23 9 -3 28 -3 27 -27 0 -27
0 -10 10 -10 10 -3 35 -3 35 -30 3 -30 2 -23 6 -24 5 6 24 6 24 -16 15 -15 16
-12 0 -12 -1 -17 -9z"/>
</g>
</svg>
