<?xml version="1.0" standalone="no"?>
<!DOCTYPE svg PUBLIC "-//W3C//DTD SVG 20010904//EN"
 "http://www.w3.org/TR/2001/REC-SVG-20010904/DTD/svg10.dtd">
<svg version="1.0" xmlns="http://www.w3.org/2000/svg"
 width="38.000000pt" height="30.000000pt" viewBox="0 0 38.000000 30.000000"
 preserveAspectRatio="xMidYMid meet">
<metadata>
Created by potrace 1.16, written by Peter Selinger 2001-2019
</metadata>
<g transform="translate(0.000000,30.000000) scale(0.100000,-0.100000)"
fill="#000000" stroke="none">
<path d="M88 249 l-3 -53 -40 0 -40 -1 -3 -22 -3 -22 22 -11 21 -12 34 4 34 4
0 -18 0 -19 -15 -36 -15 -35 0 -14 0 -13 53 6 52 6 13 10 12 9 0 25 0 24 17
-3 18 -3 5 -30 5 -30 59 -3 59 -3 -7 53 -6 53 -6 23 -6 22 16 0 17 0 -3 68 -3
67 -45 -3 -45 -3 -24 -5 -23 -5 5 -19 5 -19 -12 -9 -11 -10 -15 7 -15 6 0 30
0 30 -52 3 -52 3 -3 -52z m249 -85 l-6 -6 -13 5 -13 5 19 1 19 1 -6 -6z"/>
</g>
</svg>
