<?xml version="1.0" standalone="no"?>
<!DOCTYPE svg PUBLIC "-//W3C//DTD SVG 20010904//EN"
 "http://www.w3.org/TR/2001/REC-SVG-20010904/DTD/svg10.dtd">
<svg version="1.0" xmlns="http://www.w3.org/2000/svg"
 width="31.000000pt" height="30.000000pt" viewBox="0 0 31.000000 30.000000"
 preserveAspectRatio="xMidYMid meet">
<metadata>
Created by potrace 1.16, written by Peter Selinger 2001-2019
</metadata>
<g transform="translate(0.000000,30.000000) scale(0.100000,-0.100000)"
fill="#000000" stroke="none">
<path d="M7 293 l-7 -6 0 -33 0 -33 10 -26 10 -26 27 3 28 3 0 -15 0 -15 -37
2 -38 2 0 -75 0 -76 23 6 22 6 42 0 42 0 3 43 3 42 10 0 10 0 3 -36 3 -37 22
-6 22 -6 41 0 42 0 11 44 11 45 0 15 0 16 -36 0 -35 0 -20 10 -19 11 0 21 0
21 31 -7 32 -6 13 11 14 11 0 50 0 49 -47 -6 -48 -7 -17 -5 -18 -4 0 -25 0
-25 -17 3 -18 3 -4 25 -3 25 -12 7 -11 8 -41 0 -41 0 -6 -7z"/>
</g>
</svg>
