<?xml version="1.0" standalone="no"?>
<!DOCTYPE svg PUBLIC "-//W3C//DTD SVG 20010904//EN"
 "http://www.w3.org/TR/2001/REC-SVG-20010904/DTD/svg10.dtd">
<svg version="1.0" xmlns="http://www.w3.org/2000/svg"
 width="38.000000pt" height="36.000000pt" viewBox="0 0 38.000000 36.000000"
 preserveAspectRatio="xMidYMid meet">
<metadata>
Created by potrace 1.16, written by Peter Selinger 2001-2019
</metadata>
<g transform="translate(0.000000,36.000000) scale(0.100000,-0.100000)"
fill="#000000" stroke="none">
<path d="M20 305 l0 -55 34 0 34 0 6 -15 5 -15 -20 -11 -20 -10 -30 6 -29 7 0
-37 0 -36 15 -28 14 -28 41 -7 40 -6 0 -29 0 -29 16 -6 16 -6 33 0 33 0 6 16
6 16 0 19 0 19 49 0 49 0 0 45 0 44 7 11 6 10 25 0 24 0 0 46 0 46 -29 -7 -30
-6 -10 20 -11 20 0 25 0 26 -12 0 -13 0 -45 -14 -45 -13 -3 -17 -4 -17 -21 3
-22 3 -3 20 -4 20 -16 13 -16 12 -38 0 -38 0 0 -55z"/>
</g>
</svg>
