<?xml version="1.0" standalone="no"?>
<!DOCTYPE svg PUBLIC "-//W3C//DTD SVG 20010904//EN"
 "http://www.w3.org/TR/2001/REC-SVG-20010904/DTD/svg10.dtd">
<svg version="1.0" xmlns="http://www.w3.org/2000/svg"
 width="38.000000pt" height="45.000000pt" viewBox="0 0 38.000000 45.000000"
 preserveAspectRatio="xMidYMid meet">
<metadata>
Created by potrace 1.16, written by Peter Selinger 2001-2019
</metadata>
<g transform="translate(0.000000,45.000000) scale(0.100000,-0.100000)"
fill="#000000" stroke="none">
<path d="M197 443 l-7 -6 0 -33 0 -33 -57 -3 -58 -3 -3 -32 -3 -31 -27 -7 -27
-7 -7 -11 -8 -12 0 -42 0 -42 22 -3 22 -3 9 -35 9 -35 11 -7 12 -8 47 0 47 0
-2 -36 -2 -36 16 -11 16 -10 36 7 36 7 3 21 3 21 34 12 35 11 9 15 10 15 -17
57 -17 57 -20 0 -21 0 5 13 4 12 30 -3 30 -3 7 23 6 23 0 30 0 30 -9 13 -8 13
-51 -7 -52 -7 0 27 0 27 -10 20 -11 19 -18 0 -18 0 -6 -7z"/>
</g>
</svg>
