<?xml version="1.0" standalone="no"?>
<!DOCTYPE svg PUBLIC "-//W3C//DTD SVG 20010904//EN"
 "http://www.w3.org/TR/2001/REC-SVG-20010904/DTD/svg10.dtd">
<svg version="1.0" xmlns="http://www.w3.org/2000/svg"
 width="36.000000pt" height="43.000000pt" viewBox="0 0 36.000000 43.000000"
 preserveAspectRatio="xMidYMid meet">
<metadata>
Created by potrace 1.16, written by Peter Selinger 2001-2019
</metadata>
<g transform="translate(0.000000,43.000000) scale(0.100000,-0.100000)"
fill="#000000" stroke="none">
<path d="M197 423 l-7 -6 0 -33 0 -33 -57 -3 -58 -3 1 -36 1 -36 -29 0 -30 0
-9 -14 -9 -14 0 -32 0 -32 22 -3 22 -3 9 -35 9 -35 11 -7 12 -8 49 0 49 0 -6
-34 -6 -35 14 -11 14 -12 31 7 32 7 -5 19 -5 19 39 12 39 11 10 12 10 12 -15
51 -16 52 -20 0 -20 0 3 23 3 22 32 -2 32 -3 7 34 6 34 -6 20 -6 19 -58 -1
-57 -1 2 23 3 23 -10 20 -11 19 -8 0 -8 0 -6 -7z"/>
</g>
</svg>
