<?xml version="1.0" standalone="no"?>
<!DOCTYPE svg PUBLIC "-//W3C//DTD SVG 20010904//EN"
 "http://www.w3.org/TR/2001/REC-SVG-20010904/DTD/svg10.dtd">
<svg version="1.0" xmlns="http://www.w3.org/2000/svg"
 width="43.000000pt" height="36.000000pt" viewBox="0 0 43.000000 36.000000"
 preserveAspectRatio="xMidYMid meet">
<metadata>
Created by potrace 1.16, written by Peter Selinger 2001-2019
</metadata>
<g transform="translate(0.000000,36.000000) scale(0.100000,-0.100000)"
fill="#000000" stroke="none">
<path d="M66 322 l6 -39 -11 -22 -12 -21 -19 0 -19 0 -6 -10 -6 -9 7 -26 6
-25 35 0 36 0 -7 -50 -7 -50 46 0 46 0 5 -18 5 -17 8 -15 8 -15 30 -3 30 -3
18 17 17 17 -5 23 -4 23 36 -2 36 -2 -3 52 -3 52 43 3 43 3 3 39 3 39 -31 -6
-31 -7 -9 26 -10 25 0 25 0 25 -47 -7 -48 -7 -7 -4 -8 -4 0 -18 0 -19 -19 -5
-19 -5 -11 11 -11 11 0 18 0 19 -12 4 -13 4 -48 6 -47 6 6 -39z"/>
</g>
</svg>
