<?xml version="1.0" standalone="no"?>
<!DOCTYPE svg PUBLIC "-//W3C//DTD SVG 20010904//EN"
 "http://www.w3.org/TR/2001/REC-SVG-20010904/DTD/svg10.dtd">
<svg version="1.0" xmlns="http://www.w3.org/2000/svg"
 width="41.000000pt" height="34.000000pt" viewBox="0 0 41.000000 34.000000"
 preserveAspectRatio="xMidYMid meet">
<metadata>
Created by potrace 1.16, written by Peter Selinger 2001-2019
</metadata>
<g transform="translate(0.000000,34.000000) scale(0.100000,-0.100000)"
fill="#000000" stroke="none">
<path d="M68 300 l4 -38 -11 -21 -12 -21 -18 0 -18 0 -5 -6 -6 -5 5 -20 6 -20
21 2 21 1 14 -1 14 -1 -5 -50 -5 -50 44 0 44 0 5 -18 5 -17 8 -15 8 -15 20 -3
21 -3 16 16 16 16 -6 26 -7 25 39 -4 39 -3 -3 52 -4 52 44 3 43 3 3 27 3 28
-30 -6 -31 -6 -10 26 -10 27 0 24 0 25 -32 -6 -33 -6 -12 -4 -13 -3 0 -20 0
-19 -25 -6 -25 -6 -19 11 -18 12 4 18 5 19 -13 4 -14 4 -35 5 -35 5 3 -38z"/>
</g>
</svg>
