<?xml version="1.0" standalone="no"?>
<!DOCTYPE svg PUBLIC "-//W3C//DTD SVG 20010904//EN"
 "http://www.w3.org/TR/2001/REC-SVG-20010904/DTD/svg10.dtd">
<svg version="1.0" xmlns="http://www.w3.org/2000/svg"
 width="34.000000pt" height="27.000000pt" viewBox="0 0 34.000000 27.000000"
 preserveAspectRatio="xMidYMid meet">
<metadata>
Created by potrace 1.16, written by Peter Selinger 2001-2019
</metadata>
<g transform="translate(0.000000,27.000000) scale(0.100000,-0.100000)"
fill="#000000" stroke="none">
<path d="M0 218 l0 -48 30 0 31 0 5 -15 6 -15 -6 -25 -6 -25 -15 0 -15 0 -7
-30 -6 -30 -8 -6 -9 -5 0 -10 0 -10 58 3 57 3 -3 38 -4 37 21 0 21 0 -3 -22
-2 -22 48 -14 48 -13 14 11 14 12 3 41 3 42 22 0 23 1 10 10 11 11 -6 15 -6
16 -32 -2 -32 -1 -3 46 -3 47 -22 6 -22 6 -22 0 -23 0 0 -33 0 -33 -14 -20
-15 -19 -18 11 -18 11 -3 41 -3 41 -49 -2 -50 -2 0 -47z"/>
</g>
</svg>
