<?xml version="1.0" standalone="no"?>
<!DOCTYPE svg PUBLIC "-//W3C//DTD SVG 20010904//EN"
 "http://www.w3.org/TR/2001/REC-SVG-20010904/DTD/svg10.dtd">
<svg version="1.0" xmlns="http://www.w3.org/2000/svg"
 width="33.000000pt" height="28.000000pt" viewBox="0 0 33.000000 28.000000"
 preserveAspectRatio="xMidYMid meet">
<metadata>
Created by potrace 1.16, written by Peter Selinger 2001-2019
</metadata>
<g transform="translate(0.000000,28.000000) scale(0.100000,-0.100000)"
fill="#000000" stroke="none">
<path d="M237 273 l-7 -6 0 -24 0 -24 -15 -16 -16 -15 -26 6 -25 7 5 34 6 35
-44 0 -44 0 -3 -52 -3 -53 -33 -3 -33 -3 3 -17 3 -17 22 3 22 3 10 -20 11 -20
0 -41 0 -41 48 3 47 3 -3 38 -3 37 29 0 30 0 11 -14 12 -14 -6 -25 -6 -24 22
-6 23 -6 23 5 23 6 0 7 0 6 -14 45 -13 45 -19 0 -19 0 0 40 0 40 38 -2 37 -2
0 38 0 39 -31 6 -31 6 -13 0 -12 0 -6 -7z"/>
</g>
</svg>
