<?xml version="1.0" standalone="no"?>
<!DOCTYPE svg PUBLIC "-//W3C//DTD SVG 20010904//EN"
 "http://www.w3.org/TR/2001/REC-SVG-20010904/DTD/svg10.dtd">
<svg version="1.0" xmlns="http://www.w3.org/2000/svg"
 width="35.000000pt" height="30.000000pt" viewBox="0 0 35.000000 30.000000"
 preserveAspectRatio="xMidYMid meet">
<metadata>
Created by potrace 1.16, written by Peter Selinger 2001-2019
</metadata>
<g transform="translate(0.000000,30.000000) scale(0.100000,-0.100000)"
fill="#000000" stroke="none">
<path d="M237 293 l-7 -6 0 -24 0 -24 -14 -15 -15 -14 -15 6 -16 6 6 34 6 34
-55 0 -56 0 -3 -52 -3 -53 -33 -3 -33 -3 3 -27 3 -27 23 0 23 -1 9 -14 10 -15
0 -43 0 -43 58 3 57 3 -1 38 -1 37 18 0 18 0 8 -12 7 -13 -3 -27 -2 -26 29 -7
29 -6 27 7 26 6 0 17 0 16 -14 45 -13 45 -22 3 -22 4 3 26 3 27 38 -3 37 -4 0
50 0 50 -31 6 -31 6 -23 0 -22 0 -6 -7z"/>
</g>
</svg>
