<?xml version="1.0" standalone="no"?>
<!DOCTYPE svg PUBLIC "-//W3C//DTD SVG 20010904//EN"
 "http://www.w3.org/TR/2001/REC-SVG-20010904/DTD/svg10.dtd">
<svg version="1.0" xmlns="http://www.w3.org/2000/svg"
 width="27.000000pt" height="34.000000pt" viewBox="0 0 27.000000 34.000000"
 preserveAspectRatio="xMidYMid meet">
<metadata>
Created by potrace 1.16, written by Peter Selinger 2001-2019
</metadata>
<g transform="translate(0.000000,34.000000) scale(0.100000,-0.100000)"
fill="#000000" stroke="none">
<path d="M4 316 l-6 -25 6 -18 6 -18 37 0 38 0 3 -18 4 -19 -6 -24 -7 -25 -21
3 -22 3 -7 -25 -7 -25 -1 -21 -1 -21 40 -7 40 -6 1 -13 2 -12 1 -20 1 -20 37
-3 37 -3 3 28 3 27 34 7 34 7 6 10 6 10 -3 50 -4 50 -33 -5 -33 -5 -6 19 -6
20 6 17 7 17 22 -5 23 -6 11 14 12 14 6 36 6 36 -46 0 -46 0 5 -28 6 -28 -16
-13 -15 -12 -28 3 -28 3 0 25 0 25 -8 13 -8 12 -39 0 -40 0 -6 -24z"/>
</g>
</svg>
