<?xml version="1.0" standalone="no"?>
<!DOCTYPE svg PUBLIC "-//W3C//DTD SVG 20010904//EN"
 "http://www.w3.org/TR/2001/REC-SVG-20010904/DTD/svg10.dtd">
<svg version="1.0" xmlns="http://www.w3.org/2000/svg"
 width="29.000000pt" height="36.000000pt" viewBox="0 0 29.000000 36.000000"
 preserveAspectRatio="xMidYMid meet">
<metadata>
Created by potrace 1.16, written by Peter Selinger 2001-2019
</metadata>
<g transform="translate(0.000000,36.000000) scale(0.100000,-0.100000)"
fill="#000000" stroke="none">
<path d="M6 344 l-6 -16 0 -23 0 -23 6 -16 6 -16 33 6 33 6 7 -12 7 -11 -6
-23 -6 -23 -22 1 -22 1 -7 -25 -7 -25 -1 -31 -1 -31 39 -7 40 -6 3 -33 3 -32
48 -3 47 -3 0 26 0 26 13 3 12 4 26 6 27 6 5 12 4 13 -5 58 -5 59 -32 -6 -33
-6 -5 13 -5 14 6 9 7 9 25 0 24 0 13 25 13 25 0 33 0 32 -56 0 -56 0 5 -29 6
-29 -14 -12 -14 -12 -18 4 -18 3 3 23 3 23 -11 15 -12 14 -48 0 -48 0 -6 -16z"/>
</g>
</svg>
