<?xml version="1.0" standalone="no"?>
<!DOCTYPE svg PUBLIC "-//W3C//DTD SVG 20010904//EN"
 "http://www.w3.org/TR/2001/REC-SVG-20010904/DTD/svg10.dtd">
<svg version="1.0" xmlns="http://www.w3.org/2000/svg"
 width="39.000000pt" height="37.000000pt" viewBox="0 0 39.000000 37.000000"
 preserveAspectRatio="xMidYMid meet">
<metadata>
Created by potrace 1.16, written by Peter Selinger 2001-2019
</metadata>
<g transform="translate(0.000000,37.000000) scale(0.100000,-0.100000)"
fill="#000000" stroke="none">
<path d="M20 314 l0 -56 35 4 35 4 0 -21 0 -21 -12 -12 -12 -12 -33 0 -33 0 0
-29 0 -30 10 -25 10 -26 25 0 26 0 20 -10 19 -11 0 -22 0 -23 12 -12 12 -12
21 0 22 0 16 18 17 19 0 37 0 38 20 -6 20 -6 21 -6 21 -7 -7 50 -7 50 40 -1
39 -1 17 14 17 14 -3 26 -3 26 -35 3 -35 4 -7 11 -8 12 0 38 0 37 -55 0 -55 0
0 -29 0 -29 -14 -11 -13 -11 -16 6 -16 6 -3 31 -3 32 -52 3 -53 3 0 -57z"/>
</g>
</svg>
