<?xml version="1.0" standalone="no"?>
<!DOCTYPE svg PUBLIC "-//W3C//DTD SVG 20010904//EN"
 "http://www.w3.org/TR/2001/REC-SVG-20010904/DTD/svg10.dtd">
<svg version="1.0" xmlns="http://www.w3.org/2000/svg"
 width="45.000000pt" height="29.000000pt" viewBox="0 0 45.000000 29.000000"
 preserveAspectRatio="xMidYMid meet">
<metadata>
Created by potrace 1.16, written by Peter Selinger 2001-2019
</metadata>
<g transform="translate(0.000000,29.000000) scale(0.100000,-0.100000)"
fill="#000000" stroke="none">
<path d="M88 248 l-3 -43 -37 -3 -38 -3 -6 -24 -6 -23 12 -22 12 -22 39 4 39
4 1 -11 1 -10 -2 -43 -2 -43 54 3 53 3 3 33 3 33 12 -4 12 -4 3 -36 3 -37 60
0 60 0 15 35 14 34 0 21 0 20 25 0 25 0 6 25 6 25 -6 15 -5 15 -36 0 -35 0 0
45 0 45 -24 0 -23 0 -32 -6 -31 -6 0 -29 0 -29 -34 0 -33 0 1 38 1 37 -52 3
-52 3 -3 -43z"/>
</g>
</svg>
