<?xml version="1.0" standalone="no"?>
<!DOCTYPE svg PUBLIC "-//W3C//DTD SVG 20010904//EN"
 "http://www.w3.org/TR/2001/REC-SVG-20010904/DTD/svg10.dtd">
<svg version="1.0" xmlns="http://www.w3.org/2000/svg"
 width="38.000000pt" height="28.000000pt" viewBox="0 0 38.000000 28.000000"
 preserveAspectRatio="xMidYMid meet">
<metadata>
Created by potrace 1.16, written by Peter Selinger 2001-2019
</metadata>
<g transform="translate(0.000000,28.000000) scale(0.100000,-0.100000)"
fill="#000000" stroke="none">
<path d="M255 259 l7 -20 -12 -30 -12 -29 -23 0 -23 0 -12 14 -11 15 3 23 3
23 -45 0 -45 0 -3 -37 -3 -37 -37 2 -37 2 0 -40 0 -40 19 0 19 0 15 -53 15
-52 58 0 58 0 11 19 10 20 -6 14 -5 15 9 6 10 6 15 -6 16 -6 -2 -26 -2 -27 45
-6 45 -7 16 4 17 5 6 38 6 39 -6 15 -5 14 -37 -1 -37 -1 0 20 0 20 32 3 31 3
6 16 6 16 -6 33 -6 33 -30 10 -31 11 -24 0 -24 0 6 -21z"/>
</g>
</svg>
