<?xml version="1.0" standalone="no"?>
<!DOCTYPE svg PUBLIC "-//W3C//DTD SVG 20010904//EN"
 "http://www.w3.org/TR/2001/REC-SVG-20010904/DTD/svg10.dtd">
<svg version="1.0" xmlns="http://www.w3.org/2000/svg"
 width="41.000000pt" height="36.000000pt" viewBox="0 0 41.000000 36.000000"
 preserveAspectRatio="xMidYMid meet">
<metadata>
Created by potrace 1.16, written by Peter Selinger 2001-2019
</metadata>
<g transform="translate(0.000000,36.000000) scale(0.100000,-0.100000)"
fill="#000000" stroke="none">
<path d="M239 352 l-1 -7 2 -22 1 -22 -11 -20 -11 -21 -18 0 -19 0 -6 16 -6
16 0 24 0 24 -51 0 -51 0 6 -37 6 -38 -7 -12 -8 -11 -30 -4 -30 -3 0 -20 0
-20 37 1 38 1 5 -17 6 -18 -10 -41 -9 -41 37 0 36 0 10 -8 10 -7 0 -30 0 -30
40 0 40 0 3 43 3 42 25 0 25 0 18 -10 18 -9 12 54 12 54 22 3 22 3 0 30 0 30
-24 -3 -24 -2 -13 11 -14 11 0 40 0 39 -12 3 -13 4 -32 6 -33 6 -1 -8z"/>
</g>
</svg>
