<?xml version="1.0" standalone="no"?>
<!DOCTYPE svg PUBLIC "-//W3C//DTD SVG 20010904//EN"
 "http://www.w3.org/TR/2001/REC-SVG-20010904/DTD/svg10.dtd">
<svg version="1.0" xmlns="http://www.w3.org/2000/svg"
 width="43.000000pt" height="38.000000pt" viewBox="0 0 43.000000 38.000000"
 preserveAspectRatio="xMidYMid meet">
<metadata>
Created by potrace 1.16, written by Peter Selinger 2001-2019
</metadata>
<g transform="translate(0.000000,38.000000) scale(0.100000,-0.100000)"
fill="#000000" stroke="none">
<path d="M236 371 l-7 -10 6 -23 6 -23 -15 -20 -16 -20 -10 15 -10 15 0 28 0
27 -61 0 -62 0 6 -39 5 -38 -7 -11 -6 -10 -30 -4 -30 -3 0 -30 0 -30 40 -5 40
-5 -1 -18 -2 -17 -6 -34 -7 -35 43 -3 43 -3 5 -35 5 -35 50 0 50 0 3 44 3 43
22 -5 22 -5 21 -7 21 -6 12 55 12 55 22 3 22 3 0 40 0 40 -25 1 -26 0 -12 8
-12 7 0 39 0 39 -7 4 -8 4 -47 7 -46 7 -6 -10z"/>
</g>
</svg>
