<?xml version="1.0" standalone="no"?>
<!DOCTYPE svg PUBLIC "-//W3C//DTD SVG 20010904//EN"
 "http://www.w3.org/TR/2001/REC-SVG-20010904/DTD/svg10.dtd">
<svg version="1.0" xmlns="http://www.w3.org/2000/svg"
 width="36.000000pt" height="34.000000pt" viewBox="0 0 36.000000 34.000000"
 preserveAspectRatio="xMidYMid meet">
<metadata>
Created by potrace 1.16, written by Peter Selinger 2001-2019
</metadata>
<g transform="translate(0.000000,34.000000) scale(0.100000,-0.100000)"
fill="#000000" stroke="none">
<path d="M0 203 l0 -132 43 -3 42 -3 1 -20 2 -20 1 -12 1 -13 21 0 20 0 21 11
20 11 -7 34 -6 34 19 0 19 0 41 -14 42 -15 10 42 11 42 4 12 4 11 20 -5 20 -5
6 25 7 25 -4 19 -3 18 -38 0 -38 0 -6 22 -5 23 6 15 5 15 -24 6 -25 6 -25 -6
-25 -6 0 -35 0 -35 -27 -6 -26 -7 -19 23 -19 24 5 22 6 22 -50 4 -50 3 0 -132z"/>
</g>
</svg>
