<?xml version="1.0" standalone="no"?>
<!DOCTYPE svg PUBLIC "-//W3C//DTD SVG 20010904//EN"
 "http://www.w3.org/TR/2001/REC-SVG-20010904/DTD/svg10.dtd">
<svg version="1.0" xmlns="http://www.w3.org/2000/svg"
 width="37.000000pt" height="43.000000pt" viewBox="0 0 37.000000 43.000000"
 preserveAspectRatio="xMidYMid meet">
<metadata>
Created by potrace 1.16, written by Peter Selinger 2001-2019
</metadata>
<g transform="translate(0.000000,43.000000) scale(0.100000,-0.100000)"
fill="#000000" stroke="none">
<path d="M121 416 l-12 -14 3 -29 3 -28 -52 -3 -52 -3 -6 -44 -7 -44 6 -9 6
-10 19 5 19 5 22 -12 21 -11 -4 -12 -4 -12 -13 3 -12 3 -13 -11 -13 -11 -7
-35 -6 -35 -5 -14 -6 -14 59 -3 58 -3 -3 -26 -3 -26 15 -12 15 -12 20 11 21
11 6 24 6 25 -6 16 -6 17 35 -6 36 -6 13 5 12 5 -4 36 -5 36 29 -6 29 -5 17 9
18 10 0 34 0 34 -18 10 -18 9 -19 -1 -20 -2 -3 41 -3 42 -37 7 -37 7 -18 10
-19 10 7 15 6 16 -13 9 -13 8 -16 0 -17 0 -11 -14z"/>
</g>
</svg>
