<?xml version="1.0" standalone="no"?>
<!DOCTYPE svg PUBLIC "-//W3C//DTD SVG 20010904//EN"
 "http://www.w3.org/TR/2001/REC-SVG-20010904/DTD/svg10.dtd">
<svg version="1.0" xmlns="http://www.w3.org/2000/svg"
 width="31.000000pt" height="37.000000pt" viewBox="0 0 31.000000 37.000000"
 preserveAspectRatio="xMidYMid meet">
<metadata>
Created by potrace 1.16, written by Peter Selinger 2001-2019
</metadata>
<g transform="translate(0.000000,37.000000) scale(0.100000,-0.100000)"
fill="#000000" stroke="none">
<path d="M120 355 l-12 -14 7 -20 6 -20 -20 -10 -20 -11 -30 0 -31 0 0 -29 0
-30 10 -26 10 -26 22 3 23 3 3 -19 4 -18 -11 -11 -11 -11 -33 -1 -32 0 2 -38
2 -37 11 -21 11 -20 62 3 62 3 6 40 5 40 5 -30 4 -29 25 -7 25 -7 43 -1 43 -1
-3 132 -3 133 -52 -3 -53 -3 0 31 0 31 -10 20 -11 19 -23 0 -24 0 -12 -15z"/>
</g>
</svg>
