<?xml version="1.0" standalone="no"?>
<!DOCTYPE svg PUBLIC "-//W3C//DTD SVG 20010904//EN"
 "http://www.w3.org/TR/2001/REC-SVG-20010904/DTD/svg10.dtd">
<svg version="1.0" xmlns="http://www.w3.org/2000/svg"
 width="29.000000pt" height="35.000000pt" viewBox="0 0 29.000000 35.000000"
 preserveAspectRatio="xMidYMid meet">
<metadata>
Created by potrace 1.16, written by Peter Selinger 2001-2019
</metadata>
<g transform="translate(0.000000,35.000000) scale(0.100000,-0.100000)"
fill="#000000" stroke="none">
<path d="M123 338 l-7 -13 2 -22 3 -22 -20 -10 -20 -11 -30 0 -31 0 1 -22 0
-23 8 -20 8 -20 24 0 24 0 3 -32 3 -32 -21 -11 -21 -11 -22 3 -22 3 3 -29 3
-30 10 -18 10 -19 52 3 52 3 1 25 1 25 2 13 1 13 18 -3 17 -3 0 -25 0 -24 25
-7 25 -7 33 -1 33 -1 -3 122 -3 123 -52 -3 -53 -4 -1 14 -1 13 1 17 2 17 -11
21 -11 20 -14 0 -14 0 -8 -12z"/>
</g>
</svg>
