<?xml version="1.0" standalone="no"?>
<!DOCTYPE svg PUBLIC "-//W3C//DTD SVG 20010904//EN"
 "http://www.w3.org/TR/2001/REC-SVG-20010904/DTD/svg10.dtd">
<svg version="1.0" xmlns="http://www.w3.org/2000/svg"
 width="30.000000pt" height="35.000000pt" viewBox="0 0 30.000000 35.000000"
 preserveAspectRatio="xMidYMid meet">
<metadata>
Created by potrace 1.16, written by Peter Selinger 2001-2019
</metadata>
<g transform="translate(0.000000,35.000000) scale(0.100000,-0.100000)"
fill="#000000" stroke="none">
<path d="M140 317 l0 -35 -16 -6 -16 -6 -44 0 -44 0 0 -41 0 -41 30 -11 30
-11 0 -17 0 -17 -13 -10 -13 -11 -21 5 -21 6 -7 -12 -7 -11 7 -45 6 -45 57 3
57 3 0 35 0 35 24 3 24 4 7 -13 8 -12 -5 -34 -6 -33 42 0 41 0 19 12 18 11
-10 31 -10 31 -9 23 -8 24 -17 -6 -16 -7 -8 13 -8 12 10 18 10 19 35 -7 34 -6
0 38 0 39 -6 20 -5 20 -54 -3 -54 -4 -3 34 -3 33 -17 3 -18 3 0 -34z"/>
</g>
</svg>
