<?xml version="1.0" standalone="no"?>
<!DOCTYPE svg PUBLIC "-//W3C//DTD SVG 20010904//EN"
 "http://www.w3.org/TR/2001/REC-SVG-20010904/DTD/svg10.dtd">
<svg version="1.0" xmlns="http://www.w3.org/2000/svg"
 width="32.000000pt" height="37.000000pt" viewBox="0 0 32.000000 37.000000"
 preserveAspectRatio="xMidYMid meet">
<metadata>
Created by potrace 1.16, written by Peter Selinger 2001-2019
</metadata>
<g transform="translate(0.000000,37.000000) scale(0.100000,-0.100000)"
fill="#000000" stroke="none">
<path d="M140 337 l0 -35 -16 -6 -16 -6 -44 0 -44 0 0 -51 0 -51 30 -11 30
-11 -3 -11 -4 -10 -34 -5 -34 -5 -3 -19 -4 -18 7 -45 6 -44 67 3 67 3 0 35 0
35 18 3 17 3 0 -45 0 -46 53 0 52 1 18 14 19 14 -12 38 -13 38 -8 23 -9 22
-21 0 -21 0 4 12 5 13 36 -3 37 -4 0 49 0 48 -6 22 -6 21 -53 -5 -54 -6 -3 34
-3 34 -27 3 -28 3 0 -34z"/>
</g>
</svg>
