<?xml version="1.0" standalone="no"?>
<!DOCTYPE svg PUBLIC "-//W3C//DTD SVG 20010904//EN"
 "http://www.w3.org/TR/2001/REC-SVG-20010904/DTD/svg10.dtd">
<svg version="1.0" xmlns="http://www.w3.org/2000/svg"
 width="39.000000pt" height="35.000000pt" viewBox="0 0 39.000000 35.000000"
 preserveAspectRatio="xMidYMid meet">
<metadata>
Created by potrace 1.16, written by Peter Selinger 2001-2019
</metadata>
<g transform="translate(0.000000,35.000000) scale(0.100000,-0.100000)"
fill="#000000" stroke="none">
<path d="M202 311 l3 -40 -60 -3 -60 -3 -3 -37 -3 -38 -28 0 -27 0 -12 -12
-12 -12 0 -17 0 -18 16 -15 15 -16 25 0 24 0 0 -48 0 -48 53 6 52 5 5 35 5 35
30 0 30 0 -3 -32 -3 -33 23 0 23 0 36 -6 36 -6 12 45 13 45 -7 12 -7 11 -32
-6 -32 -7 -13 16 -13 16 6 15 5 15 33 -2 33 -3 3 29 4 28 -6 24 -6 24 -55 0
-54 0 -3 38 -3 37 -24 3 -23 4 4 -41z"/>
</g>
</svg>
