<?xml version="1.0" standalone="no"?>
<!DOCTYPE svg PUBLIC "-//W3C//DTD SVG 20010904//EN"
 "http://www.w3.org/TR/2001/REC-SVG-20010904/DTD/svg10.dtd">
<svg version="1.0" xmlns="http://www.w3.org/2000/svg"
 width="44.000000pt" height="36.000000pt" viewBox="0 0 44.000000 36.000000"
 preserveAspectRatio="xMidYMid meet">
<metadata>
Created by potrace 1.16, written by Peter Selinger 2001-2019
</metadata>
<g transform="translate(0.000000,36.000000) scale(0.100000,-0.100000)"
fill="#000000" stroke="none">
<path d="M185 348 l-4 -13 -3 -25 -3 -25 -53 -3 -53 -3 2 -17 1 -17 -1 -22 -1
-23 -35 0 -35 0 0 -45 0 -45 25 0 24 0 6 -37 6 -38 2 -15 2 -15 67 -3 67 -3 3
43 3 43 10 0 10 0 3 -32 3 -33 22 -5 22 -4 45 -3 45 -3 3 25 2 25 6 33 5 32
29 0 30 0 0 31 0 32 -35 -6 -35 -6 -5 22 -5 22 -2 40 -3 39 -39 11 -39 11 -8
22 -8 22 -36 0 -36 0 -4 -12z"/>
</g>
</svg>
