<?xml version="1.0" standalone="no"?>
<!DOCTYPE svg PUBLIC "-//W3C//DTD SVG 20010904//EN"
 "http://www.w3.org/TR/2001/REC-SVG-20010904/DTD/svg10.dtd">
<svg version="1.0" xmlns="http://www.w3.org/2000/svg"
 width="39.000000pt" height="37.000000pt" viewBox="0 0 39.000000 37.000000"
 preserveAspectRatio="xMidYMid meet">
<metadata>
Created by potrace 1.16, written by Peter Selinger 2001-2019
</metadata>
<g transform="translate(0.000000,37.000000) scale(0.100000,-0.100000)"
fill="#000000" stroke="none">
<path d="M190 331 l0 -40 -52 -3 -53 -3 -3 -32 -3 -33 -24 0 -24 0 -16 -16
-16 -16 3 -37 3 -36 27 -13 26 -12 7 -40 7 -40 66 0 67 0 14 9 14 9 -5 31 -5
32 11 -4 11 -4 5 -39 5 -39 61 -3 61 -3 7 23 6 23 0 41 0 42 -14 12 -15 11
-23 -3 -23 -3 0 20 0 20 29 -3 29 -4 8 14 9 13 0 43 0 42 -23 0 -22 0 -32 -9
-32 -9 -5 15 -6 15 0 22 0 22 -12 12 -12 12 -28 0 -28 0 0 -39z"/>
</g>
</svg>
