<?xml version="1.0" standalone="no"?>
<!DOCTYPE svg PUBLIC "-//W3C//DTD SVG 20010904//EN"
 "http://www.w3.org/TR/2001/REC-SVG-20010904/DTD/svg10.dtd">
<svg version="1.0" xmlns="http://www.w3.org/2000/svg"
 width="37.000000pt" height="35.000000pt" viewBox="0 0 37.000000 35.000000"
 preserveAspectRatio="xMidYMid meet">
<metadata>
Created by potrace 1.16, written by Peter Selinger 2001-2019
</metadata>
<g transform="translate(0.000000,35.000000) scale(0.100000,-0.100000)"
fill="#000000" stroke="none">
<path d="M192 313 l3 -38 -55 -5 -55 -5 -3 -36 -3 -36 -23 4 -23 5 -16 -17
-17 -16 0 -23 0 -22 11 -11 11 -11 14 5 13 5 10 -39 11 -38 0 -12 0 -13 58 0
57 0 14 9 13 9 -7 31 -7 31 22 0 21 0 6 -16 6 -16 1 -27 1 -26 50 0 50 0 7 15
7 15 0 37 1 37 -12 8 -13 8 -25 0 -25 0 0 30 0 30 30 -2 29 -2 8 12 8 12 0 32
0 32 -31 -4 -31 -4 -19 -6 -19 -6 -13 12 -13 13 4 23 4 23 -12 15 -12 15 -20
0 -20 0 4 -37z"/>
</g>
</svg>
