<?xml version="1.0" standalone="no"?>
<!DOCTYPE svg PUBLIC "-//W3C//DTD SVG 20010904//EN"
 "http://www.w3.org/TR/2001/REC-SVG-20010904/DTD/svg10.dtd">
<svg version="1.0" xmlns="http://www.w3.org/2000/svg"
 width="48.000000pt" height="38.000000pt" viewBox="0 0 48.000000 38.000000"
 preserveAspectRatio="xMidYMid meet">
<metadata>
Created by potrace 1.16, written by Peter Selinger 2001-2019
</metadata>
<g transform="translate(0.000000,38.000000) scale(0.100000,-0.100000)"
fill="#000000" stroke="none">
<path d="M201 371 l-13 -9 7 -30 6 -31 -23 -5 -23 -6 -30 -2 -30 -3 -3 -37 -3
-37 -42 -3 -42 -3 -3 -33 -3 -33 12 -15 11 -14 34 0 34 0 0 -55 0 -54 53 6 52
6 13 10 12 9 0 25 0 25 12 -4 12 -4 0 -35 1 -34 24 -3 25 -4 52 7 52 6 11 42
10 42 31 12 30 11 0 27 0 26 -10 20 -11 19 -34 0 -34 0 -3 38 -3 37 -56 -3
-55 -3 4 34 4 34 -17 16 -16 17 -17 0 -17 0 -14 -9z"/>
</g>
</svg>
