<?xml version="1.0" standalone="no"?>
<!DOCTYPE svg PUBLIC "-//W3C//DTD SVG 20010904//EN"
 "http://www.w3.org/TR/2001/REC-SVG-20010904/DTD/svg10.dtd">
<svg version="1.0" xmlns="http://www.w3.org/2000/svg"
 width="46.000000pt" height="36.000000pt" viewBox="0 0 46.000000 36.000000"
 preserveAspectRatio="xMidYMid meet">
<metadata>
Created by potrace 1.16, written by Peter Selinger 2001-2019
</metadata>
<g transform="translate(0.000000,36.000000) scale(0.100000,-0.100000)"
fill="#000000" stroke="none">
<path d="M203 354 l-12 -5 6 -34 5 -34 -23 -5 -24 -6 -30 -2 -30 -3 -5 -39 -5
-40 -40 0 -40 -1 -3 -23 -4 -23 12 -15 12 -14 34 0 34 0 0 -53 0 -53 43 4 42
4 12 10 12 10 -2 21 -2 22 25 0 25 0 -3 -33 -2 -33 15 -5 15 -6 54 6 54 7 12
50 12 50 13 -5 13 -5 18 14 19 13 -11 29 -10 28 -37 0 -37 0 0 37 0 37 -8 5
-8 5 -38 -9 -38 -8 -14 5 -14 5 6 33 6 32 -17 16 -16 17 -7 -1 -7 -1 -12 -4z"/>
</g>
</svg>
