<?xml version="1.0" standalone="no"?>
<!DOCTYPE svg PUBLIC "-//W3C//DTD SVG 20010904//EN"
 "http://www.w3.org/TR/2001/REC-SVG-20010904/DTD/svg10.dtd">
<svg version="1.0" xmlns="http://www.w3.org/2000/svg"
 width="29.000000pt" height="35.000000pt" viewBox="0 0 29.000000 35.000000"
 preserveAspectRatio="xMidYMid meet">
<metadata>
Created by potrace 1.16, written by Peter Selinger 2001-2019
</metadata>
<g transform="translate(0.000000,35.000000) scale(0.100000,-0.100000)"
fill="#000000" stroke="none">
<path d="M127 343 l-7 -6 0 -22 0 -23 -15 -12 -15 -12 -45 -6 -45 -5 0 -27 0
-28 6 -16 6 -16 40 0 39 0 -3 -32 -3 -33 -20 0 -20 0 -10 -10 -10 -10 -11 -43
-11 -42 34 0 34 0 20 10 19 11 0 19 0 19 10 6 10 6 20 -6 19 -6 -6 -14 -5 -15
27 -10 26 -10 35 0 34 0 -1 23 -1 22 -7 30 -6 30 -25 0 -25 0 0 20 0 20 35 0
35 1 3 54 3 55 -53 0 -53 0 0 28 0 29 -19 14 -20 14 -6 0 -7 0 -6 -7z"/>
</g>
</svg>
