<?xml version="1.0" standalone="no"?>
<!DOCTYPE svg PUBLIC "-//W3C//DTD SVG 20010904//EN"
 "http://www.w3.org/TR/2001/REC-SVG-20010904/DTD/svg10.dtd">
<svg version="1.0" xmlns="http://www.w3.org/2000/svg"
 width="31.000000pt" height="37.000000pt" viewBox="0 0 31.000000 37.000000"
 preserveAspectRatio="xMidYMid meet">
<metadata>
Created by potrace 1.16, written by Peter Selinger 2001-2019
</metadata>
<g transform="translate(0.000000,37.000000) scale(0.100000,-0.100000)"
fill="#000000" stroke="none">
<path d="M127 363 l-7 -6 0 -22 0 -23 -15 -12 -15 -12 -45 -6 -45 -5 0 -37 0
-38 6 -16 6 -16 40 0 39 0 -3 -22 -3 -23 -18 3 -17 3 -13 -13 -14 -13 -6 -30
-7 -30 -6 -22 -6 -23 46 0 47 0 20 10 19 11 0 19 0 19 11 6 10 7 6 -22 6 -22
24 -9 24 -9 46 0 46 0 -7 56 -6 57 -6 8 -5 9 -25 0 -25 0 6 10 6 10 32 -3 32
-2 3 66 3 67 -53 -2 -53 -1 3 27 3 26 -23 16 -22 16 -17 0 -16 0 -6 -7z"/>
</g>
</svg>
