<?xml version="1.0" standalone="no"?>
<!DOCTYPE svg PUBLIC "-//W3C//DTD SVG 20010904//EN"
 "http://www.w3.org/TR/2001/REC-SVG-20010904/DTD/svg10.dtd">
<svg version="1.0" xmlns="http://www.w3.org/2000/svg"
 width="43.000000pt" height="43.000000pt" viewBox="0 0 43.000000 43.000000"
 preserveAspectRatio="xMidYMid meet">
<metadata>
Created by potrace 1.16, written by Peter Selinger 2001-2019
</metadata>
<g transform="translate(0.000000,43.000000) scale(0.100000,-0.100000)"
fill="#000000" stroke="none">
<path d="M188 393 l-3 -38 -52 -9 -53 -10 0 -43 0 -44 -37 3 -38 3 -3 -28 -3
-27 29 -6 30 -6 6 -30 6 -30 0 -24 0 -24 60 0 60 0 0 -24 0 -24 6 -16 6 -16
19 0 18 0 12 21 11 21 -5 24 -4 24 6 4 6 4 42 -7 42 -8 10 6 10 7 9 39 8 40
19 0 20 0 0 35 0 35 -32 3 -32 3 -3 47 -3 47 -50 16 -49 15 -6 25 -6 24 -26 3
-27 3 -3 -38z"/>
</g>
</svg>
