<?xml version="1.0" standalone="no"?>
<!DOCTYPE svg PUBLIC "-//W3C//DTD SVG 20010904//EN"
 "http://www.w3.org/TR/2001/REC-SVG-20010904/DTD/svg10.dtd">
<svg version="1.0" xmlns="http://www.w3.org/2000/svg"
 width="30.000000pt" height="42.000000pt" viewBox="0 0 30.000000 42.000000"
 preserveAspectRatio="xMidYMid meet">
<metadata>
Created by potrace 1.16, written by Peter Selinger 2001-2019
</metadata>
<g transform="translate(0.000000,42.000000) scale(0.100000,-0.100000)"
fill="#000000" stroke="none">
<path d="M117 413 l-7 -6 0 -29 0 -28 -55 0 -55 0 0 -56 0 -56 34 6 34 6 6
-16 6 -16 0 -9 0 -9 -29 0 -29 0 -6 -22 -6 -23 0 -42 0 -42 37 -3 38 -3 3 -20
4 -20 10 -12 10 -13 34 0 33 0 16 17 17 16 -6 30 -6 29 18 -7 17 -7 33 -5 33
-6 -3 64 -3 64 -40 5 -40 5 -3 18 -3 17 39 0 40 0 7 29 6 28 -7 28 -7 27 -42
-6 -43 -7 -6 16 -6 17 0 18 0 18 -16 6 -16 6 -17 0 -18 0 -6 -7z"/>
</g>
</svg>
