<?xml version="1.0" standalone="no"?>
<!DOCTYPE svg PUBLIC "-//W3C//DTD SVG 20010904//EN"
 "http://www.w3.org/TR/2001/REC-SVG-20010904/DTD/svg10.dtd">
<svg version="1.0" xmlns="http://www.w3.org/2000/svg"
 width="30.000000pt" height="37.000000pt" viewBox="0 0 30.000000 37.000000"
 preserveAspectRatio="xMidYMid meet">
<metadata>
Created by potrace 1.16, written by Peter Selinger 2001-2019
</metadata>
<g transform="translate(0.000000,37.000000) scale(0.100000,-0.100000)"
fill="#000000" stroke="none">
<path d="M146 363 l-6 -6 0 -33 0 -34 -22 -5 -23 -5 -40 -2 -40 -3 0 -45 0
-45 30 0 30 -1 0 -24 0 -24 -32 -8 -31 -8 -4 -53 -4 -52 3 -4 4 -5 42 2 42 3
17 5 18 5 -3 32 -2 32 25 0 25 0 -3 -22 -3 -21 52 -11 52 -12 9 9 8 8 -8 44
-7 45 -23 3 -22 3 0 25 0 24 30 0 29 0 6 34 7 34 -7 22 -7 22 -4 -5 -5 -5 -47
12 -47 12 -3 26 -3 26 -14 5 -13 6 -6 -6z"/>
</g>
</svg>
