<?xml version="1.0" standalone="no"?>
<!DOCTYPE svg PUBLIC "-//W3C//DTD SVG 20010904//EN"
 "http://www.w3.org/TR/2001/REC-SVG-20010904/DTD/svg10.dtd">
<svg version="1.0" xmlns="http://www.w3.org/2000/svg"
 width="32.000000pt" height="39.000000pt" viewBox="0 0 32.000000 39.000000"
 preserveAspectRatio="xMidYMid meet">
<metadata>
Created by potrace 1.16, written by Peter Selinger 2001-2019
</metadata>
<g transform="translate(0.000000,39.000000) scale(0.100000,-0.100000)"
fill="#000000" stroke="none">
<path d="M147 383 l-7 -6 0 -33 0 -34 -22 -5 -23 -5 -40 -2 -40 -3 0 -55 0
-55 33 -3 33 -3 -4 -12 -3 -11 -31 -8 -30 -8 -6 -62 -6 -63 12 -7 12 -7 40 5
40 5 23 5 23 5 -3 31 -3 31 13 4 12 5 0 -25 0 -26 56 -11 55 -12 16 6 15 6 -7
53 -7 52 -5 8 -4 7 -20 0 -19 0 0 15 0 15 29 0 29 0 6 23 6 22 0 30 0 30 -8
11 -7 10 -50 10 -50 9 -4 25 -3 25 -12 7 -11 8 -11 0 -11 0 -6 -7z"/>
</g>
</svg>
