<?xml version="1.0" standalone="no"?>
<!DOCTYPE svg PUBLIC "-//W3C//DTD SVG 20010904//EN"
 "http://www.w3.org/TR/2001/REC-SVG-20010904/DTD/svg10.dtd">
<svg version="1.0" xmlns="http://www.w3.org/2000/svg"
 width="41.000000pt" height="39.000000pt" viewBox="0 0 41.000000 39.000000"
 preserveAspectRatio="xMidYMid meet">
<metadata>
Created by potrace 1.16, written by Peter Selinger 2001-2019
</metadata>
<g transform="translate(0.000000,39.000000) scale(0.100000,-0.100000)"
fill="#000000" stroke="none">
<path d="M137 383 l-7 -6 0 -35 0 -35 -55 7 -56 6 3 -67 3 -68 44 -5 44 -5
-16 -13 -16 -14 -41 7 -40 7 0 -43 0 -43 12 -32 11 -32 56 5 56 5 14 4 14 4
-6 35 -6 35 20 0 19 0 1 -12 1 -13 -2 -38 -2 -37 39 0 38 0 25 13 25 13 -1 24
-2 25 -7 22 -7 23 28 -6 29 -5 28 10 28 11 -3 42 -3 43 -42 3 -43 3 0 45 0 44
-29 0 -28 0 -32 6 -31 7 0 33 0 34 -28 0 -29 0 -6 -7z"/>
</g>
</svg>
