<?xml version="1.0" standalone="no"?>
<!DOCTYPE svg PUBLIC "-//W3C//DTD SVG 20010904//EN"
 "http://www.w3.org/TR/2001/REC-SVG-20010904/DTD/svg10.dtd">
<svg version="1.0" xmlns="http://www.w3.org/2000/svg"
 width="36.000000pt" height="35.000000pt" viewBox="0 0 36.000000 35.000000"
 preserveAspectRatio="xMidYMid meet">
<metadata>
Created by potrace 1.16, written by Peter Selinger 2001-2019
</metadata>
<g transform="translate(0.000000,35.000000) scale(0.100000,-0.100000)"
fill="#000000" stroke="none">
<path d="M201 340 l-14 -8 7 -11 7 -11 -11 -20 -11 -20 -49 0 -50 0 0 -26 0
-25 -11 -20 -10 -20 -17 2 -17 1 -13 -1 -13 -1 3 -32 3 -33 30 0 30 -1 3 -57
3 -57 39 0 39 0 26 10 27 10 -4 25 -5 24 13 5 13 5 8 -12 7 -12 2 -10 1 -10 1
-12 2 -11 55 -4 55 -3 5 13 5 14 0 34 0 34 -27 6 -28 6 -12 4 -13 3 0 19 0 20
13 10 12 10 25 4 25 3 3 37 3 38 -61 -7 -61 -6 7 41 6 40 -19 10 -19 11 -13
-9z"/>
</g>
</svg>
