<?xml version="1.0" standalone="no"?>
<!DOCTYPE svg PUBLIC "-//W3C//DTD SVG 20010904//EN"
 "http://www.w3.org/TR/2001/REC-SVG-20010904/DTD/svg10.dtd">
<svg version="1.0" xmlns="http://www.w3.org/2000/svg"
 width="38.000000pt" height="37.000000pt" viewBox="0 0 38.000000 37.000000"
 preserveAspectRatio="xMidYMid meet">
<metadata>
Created by potrace 1.16, written by Peter Selinger 2001-2019
</metadata>
<g transform="translate(0.000000,37.000000) scale(0.100000,-0.100000)"
fill="#000000" stroke="none">
<path d="M203 362 l-11 -7 -4 -30 -3 -30 -52 -3 -53 -3 0 -25 0 -25 -11 -20
-10 -20 -10 6 -9 6 -21 -6 -20 -7 3 -41 3 -42 33 -3 32 -3 0 -55 0 -54 49 0
50 0 25 10 26 10 1 27 1 28 9 -31 9 -32 62 -4 63 -5 7 11 8 11 0 46 0 47 -16
6 -16 6 -18 0 -19 0 -6 10 -7 11 12 14 11 14 27 3 27 3 3 49 3 48 -58 -7 -59
-7 4 38 5 37 -19 14 -18 13 -10 0 -11 0 -12 -8z"/>
</g>
</svg>
