<?xml version="1.0" standalone="no"?>
<!DOCTYPE svg PUBLIC "-//W3C//DTD SVG 20010904//EN"
 "http://www.w3.org/TR/2001/REC-SVG-20010904/DTD/svg10.dtd">
<svg version="1.0" xmlns="http://www.w3.org/2000/svg"
 width="32.000000pt" height="37.000000pt" viewBox="0 0 32.000000 37.000000"
 preserveAspectRatio="xMidYMid meet">
<metadata>
Created by potrace 1.16, written by Peter Selinger 2001-2019
</metadata>
<g transform="translate(0.000000,37.000000) scale(0.100000,-0.100000)"
fill="#000000" stroke="none">
<path d="M108 358 l-1 -13 -1 -25 -1 -25 -42 -3 -41 -3 -12 -14 -11 -13 3 -49
3 -48 30 0 30 0 3 -16 3 -16 -19 -5 -19 -5 -14 -49 -13 -49 -4 -14 -4 -13 73
4 73 4 4 12 4 13 12 -10 11 -9 62 -8 63 -7 7 19 7 19 1 50 0 50 -45 5 -45 5
15 9 14 10 26 0 25 1 3 57 3 57 -53 3 -53 3 3 18 3 19 -16 24 -15 24 -35 0
-35 0 -2 -12z m57 -288 l6 -10 -10 0 -11 0 0 10 0 10 4 0 5 0 6 -10z"/>
</g>
</svg>
