<?xml version="1.0" standalone="no"?>
<!DOCTYPE svg PUBLIC "-//W3C//DTD SVG 20010904//EN"
 "http://www.w3.org/TR/2001/REC-SVG-20010904/DTD/svg10.dtd">
<svg version="1.0" xmlns="http://www.w3.org/2000/svg"
 width="30.000000pt" height="35.000000pt" viewBox="0 0 30.000000 35.000000"
 preserveAspectRatio="xMidYMid meet">
<metadata>
Created by potrace 1.16, written by Peter Selinger 2001-2019
</metadata>
<g transform="translate(0.000000,35.000000) scale(0.100000,-0.100000)"
fill="#000000" stroke="none">
<path d="M109 338 l-1 -13 -1 -25 -2 -25 -42 -3 -41 -3 -12 -14 -11 -14 3 -37
3 -38 30 -1 30 0 3 -27 3 -26 -17 -4 -17 -3 -17 -54 -18 -53 60 4 60 4 7 13 8
12 -5 26 -5 25 19 -4 19 -3 0 -30 0 -30 54 -8 53 -9 10 10 10 10 1 48 2 49
-37 0 -37 1 -8 7 -7 8 11 17 10 17 29 0 29 0 3 47 3 47 -53 3 -53 3 -1 27 -1
27 -13 16 -12 15 -24 0 -24 0 -1 -12z"/>
</g>
</svg>
