<?xml version="1.0" standalone="no"?>
<!DOCTYPE svg PUBLIC "-//W3C//DTD SVG 20010904//EN"
 "http://www.w3.org/TR/2001/REC-SVG-20010904/DTD/svg10.dtd">
<svg version="1.0" xmlns="http://www.w3.org/2000/svg"
 width="31.000000pt" height="43.000000pt" viewBox="0 0 31.000000 43.000000"
 preserveAspectRatio="xMidYMid meet">
<metadata>
Created by potrace 1.16, written by Peter Selinger 2001-2019
</metadata>
<g transform="translate(0.000000,43.000000) scale(0.100000,-0.100000)"
fill="#000000" stroke="none">
<path d="M130 390 l0 -39 -57 -3 -58 -3 -7 -45 -8 -44 13 -8 12 -8 26 0 27 0
10 -13 11 -13 -9 -14 -9 -15 -38 0 -38 0 -3 -42 -3 -42 11 -20 10 -20 47 -3
47 -3 6 -25 6 -25 41 -3 40 -3 5 19 5 19 33 7 33 6 14 11 13 11 0 52 0 51 -8
11 -7 12 -25 5 -25 4 26 2 27 1 6 16 6 16 0 54 0 54 -60 17 -60 16 0 24 0 23
-30 0 -30 0 0 -40z"/>
</g>
</svg>
