<?xml version="1.0" standalone="no"?>
<!DOCTYPE svg PUBLIC "-//W3C//DTD SVG 20010904//EN"
 "http://www.w3.org/TR/2001/REC-SVG-20010904/DTD/svg10.dtd">
<svg version="1.0" xmlns="http://www.w3.org/2000/svg"
 width="29.000000pt" height="41.000000pt" viewBox="0 0 29.000000 41.000000"
 preserveAspectRatio="xMidYMid meet">
<metadata>
Created by potrace 1.16, written by Peter Selinger 2001-2019
</metadata>
<g transform="translate(0.000000,41.000000) scale(0.100000,-0.100000)"
fill="#000000" stroke="none">
<path d="M132 373 l3 -38 -60 -5 -60 -5 -6 -37 -6 -37 14 -6 15 -5 23 0 23 0
12 -15 13 -16 -12 -25 -11 -25 -37 3 -38 3 -3 -32 -3 -32 10 -20 11 -20 47 -3
47 -3 6 -25 6 -25 33 -3 34 -3 -6 15 -6 15 42 12 42 11 13 10 12 10 0 42 0 41
-9 14 -9 14 -15 -6 -16 -6 -11 14 -12 14 6 10 6 9 21 -5 21 -6 9 14 9 14 0 47
0 47 -62 19 -63 19 2 21 3 22 -21 0 -21 0 4 -37z"/>
</g>
</svg>
