<?xml version="1.0" standalone="no"?>
<!DOCTYPE svg PUBLIC "-//W3C//DTD SVG 20010904//EN"
 "http://www.w3.org/TR/2001/REC-SVG-20010904/DTD/svg10.dtd">
<svg version="1.0" xmlns="http://www.w3.org/2000/svg"
 width="44.000000pt" height="38.000000pt" viewBox="0 0 44.000000 38.000000"
 preserveAspectRatio="xMidYMid meet">
<metadata>
Created by potrace 1.16, written by Peter Selinger 2001-2019
</metadata>
<g transform="translate(0.000000,38.000000) scale(0.100000,-0.100000)"
fill="#000000" stroke="none">
<path d="M193 373 l-13 -5 0 -34 0 -34 -55 0 -55 0 -5 -27 -6 -28 -8 -15 -8
-15 -22 3 -21 3 0 -45 0 -45 19 -11 20 -10 20 0 21 0 0 -9 0 -8 -11 -33 -12
-32 14 -9 14 -9 46 0 45 0 12 12 12 12 0 24 0 24 13 -5 12 -4 -3 -23 -2 -23
11 -13 11 -14 57 3 56 2 7 10 8 10 0 40 0 41 33 9 32 10 0 35 0 35 -37 3 -37
3 -3 42 -3 42 -55 0 -55 0 3 33 4 33 -12 15 -12 14 -12 -1 -11 -1 -12 -5z"/>
</g>
</svg>
