<?xml version="1.0" standalone="no"?>
<!DOCTYPE svg PUBLIC "-//W3C//DTD SVG 20010904//EN"
 "http://www.w3.org/TR/2001/REC-SVG-20010904/DTD/svg10.dtd">
<svg version="1.0" xmlns="http://www.w3.org/2000/svg"
 width="44.000000pt" height="30.000000pt" viewBox="0 0 44.000000 30.000000"
 preserveAspectRatio="xMidYMid meet">
<metadata>
Created by potrace 1.16, written by Peter Selinger 2001-2019
</metadata>
<g transform="translate(0.000000,30.000000) scale(0.100000,-0.100000)"
fill="#000000" stroke="none">
<path d="M68 253 l-3 -48 -30 -5 -30 -5 0 -30 0 -29 25 -6 25 -6 5 -39 6 -40
7 -11 7 -12 43 -6 44 -7 16 7 17 6 0 28 0 29 10 6 10 6 1 -13 2 -13 1 -30 1
-30 53 0 53 1 10 14 10 15 -5 39 -4 38 4 12 4 11 40 -3 40 -4 6 16 6 16 -6 26
-7 26 -39 -4 -40 -4 0 49 0 49 -26 -6 -26 -7 -30 -6 -30 -6 -10 -23 -11 -23
-19 10 -18 10 6 24 6 25 -60 0 -61 0 -3 -47z"/>
</g>
</svg>
