<?xml version="1.0" standalone="no"?>
<!DOCTYPE svg PUBLIC "-//W3C//DTD SVG 20010904//EN"
 "http://www.w3.org/TR/2001/REC-SVG-20010904/DTD/svg10.dtd">
<svg version="1.0" xmlns="http://www.w3.org/2000/svg"
 width="43.000000pt" height="27.000000pt" viewBox="0 0 43.000000 27.000000"
 preserveAspectRatio="xMidYMid meet">
<metadata>
Created by potrace 1.16, written by Peter Selinger 2001-2019
</metadata>
<g transform="translate(0.000000,27.000000) scale(0.100000,-0.100000)"
fill="#000000" stroke="none">
<path d="M88 223 l-3 -48 -33 -1 -34 -1 -8 -13 -9 -14 10 -18 9 -17 16 6 16 6
8 -14 9 -13 6 -46 6 -45 60 3 59 4 0 34 0 34 13 0 12 0 11 -8 12 -7 3 -25 4
-25 45 -3 45 -3 0 58 0 58 30 0 30 1 13 7 12 8 0 14 0 14 -18 10 -17 9 -29 -5
-28 -6 3 47 4 46 -51 0 -52 0 2 -32 1 -33 -30 0 -30 0 0 25 0 25 -10 7 -10 8
-37 0 -37 0 -3 -47z"/>
</g>
</svg>
