<?xml version="1.0" standalone="no"?>
<!DOCTYPE svg PUBLIC "-//W3C//DTD SVG 20010904//EN"
 "http://www.w3.org/TR/2001/REC-SVG-20010904/DTD/svg10.dtd">
<svg version="1.0" xmlns="http://www.w3.org/2000/svg"
 width="41.000000pt" height="27.000000pt" viewBox="0 0 41.000000 27.000000"
 preserveAspectRatio="xMidYMid meet">
<metadata>
Created by potrace 1.16, written by Peter Selinger 2001-2019
</metadata>
<g transform="translate(0.000000,27.000000) scale(0.100000,-0.100000)"
fill="#000000" stroke="none">
<path d="M90 236 l0 -34 -6 -16 -6 -16 -33 0 -34 0 -6 -10 -6 -10 6 -20 6 -20
23 0 22 0 12 -12 12 -12 0 -25 0 -26 8 -12 7 -11 30 -3 30 -2 17 1 17 2 3 33
3 32 22 3 22 3 -2 -27 -2 -28 50 -8 50 -7 13 16 12 17 0 32 0 32 15 12 14 12
11 -7 10 -6 0 18 0 19 -12 12 -12 12 -22 0 -22 0 5 40 6 40 -9 0 -9 0 -37 -11
-38 -10 0 -14 0 -15 -25 -6 -25 -6 -14 5 -15 6 -3 28 -3 28 -42 3 -43 3 0 -35z"/>
</g>
</svg>
