<?xml version="1.0" standalone="no"?>
<!DOCTYPE svg PUBLIC "-//W3C//DTD SVG 20010904//EN"
 "http://www.w3.org/TR/2001/REC-SVG-20010904/DTD/svg10.dtd">
<svg version="1.0" xmlns="http://www.w3.org/2000/svg"
 width="43.000000pt" height="29.000000pt" viewBox="0 0 43.000000 29.000000"
 preserveAspectRatio="xMidYMid meet">
<metadata>
Created by potrace 1.16, written by Peter Selinger 2001-2019
</metadata>
<g transform="translate(0.000000,29.000000) scale(0.100000,-0.100000)"
fill="#000000" stroke="none">
<path d="M90 256 l0 -34 -6 -16 -6 -16 -34 0 -35 0 -5 -15 -6 -15 6 -25 6 -25
23 0 23 0 12 -12 12 -12 0 -25 0 -26 8 -11 7 -11 33 -6 34 -7 24 6 24 6 0 28
0 29 9 6 10 5 3 -27 3 -28 59 -8 59 -8 10 10 11 11 5 42 6 43 23 3 22 3 0 28
0 27 -12 12 -12 12 -18 0 -18 0 0 40 0 40 -17 0 -18 0 -37 -11 -38 -10 0 -14
0 -14 -21 -6 -21 -7 -8 9 -8 8 -4 25 -3 25 -52 3 -53 3 0 -35z"/>
</g>
</svg>
