<?xml version="1.0" standalone="no"?>
<!DOCTYPE svg PUBLIC "-//W3C//DTD SVG 20010904//EN"
 "http://www.w3.org/TR/2001/REC-SVG-20010904/DTD/svg10.dtd">
<svg version="1.0" xmlns="http://www.w3.org/2000/svg"
 width="27.000000pt" height="34.000000pt" viewBox="0 0 27.000000 34.000000"
 preserveAspectRatio="xMidYMid meet">
<metadata>
Created by potrace 1.16, written by Peter Selinger 2001-2019
</metadata>
<g transform="translate(0.000000,34.000000) scale(0.100000,-0.100000)"
fill="#000000" stroke="none">
<path d="M2 298 l3 -43 27 3 27 3 11 -22 12 -21 -6 -24 -6 -24 -20 0 -19 0 -7
-35 -6 -35 -12 -8 -11 -7 55 -5 54 -5 1 -35 0 -35 30 0 30 0 3 22 3 21 42 8
42 8 8 -2 9 -3 -8 23 -7 23 -7 35 -6 35 -22 -3 -22 -3 -12 26 -12 27 10 16 11
16 29 1 29 0 3 38 3 37 -14 0 -14 0 -33 -6 -32 -7 -9 -23 -9 -24 -15 0 -16 0
-20 10 -19 11 0 24 0 25 -41 0 -40 0 3 -42z"/>
</g>
</svg>
