<?xml version="1.0" standalone="no"?>
<!DOCTYPE svg PUBLIC "-//W3C//DTD SVG 20010904//EN"
 "http://www.w3.org/TR/2001/REC-SVG-20010904/DTD/svg10.dtd">
<svg version="1.0" xmlns="http://www.w3.org/2000/svg"
 width="29.000000pt" height="36.000000pt" viewBox="0 0 29.000000 36.000000"
 preserveAspectRatio="xMidYMid meet">
<metadata>
Created by potrace 1.16, written by Peter Selinger 2001-2019
</metadata>
<g transform="translate(0.000000,36.000000) scale(0.100000,-0.100000)"
fill="#000000" stroke="none">
<path d="M2 308 l3 -53 28 0 29 -1 9 -16 9 -16 -6 -16 -6 -16 -19 0 -18 0 -7
-35 -6 -35 -9 -6 -9 -5 0 -15 0 -14 49 0 50 0 3 -37 3 -38 40 0 40 0 3 22 3
22 51 7 50 7 -7 31 -7 31 -7 35 -6 35 -24 0 -23 0 -10 19 -10 18 8 8 9 8 30 4
30 3 3 48 3 47 -24 0 -24 0 -33 -6 -32 -7 -9 -23 -9 -24 -5 0 -6 0 -20 10 -19
11 0 24 0 25 -51 0 -50 0 3 -52z"/>
</g>
</svg>
