<?xml version="1.0" standalone="no"?>
<!DOCTYPE svg PUBLIC "-//W3C//DTD SVG 20010904//EN"
 "http://www.w3.org/TR/2001/REC-SVG-20010904/DTD/svg10.dtd">
<svg version="1.0" xmlns="http://www.w3.org/2000/svg"
 width="39.000000pt" height="44.000000pt" viewBox="0 0 39.000000 44.000000"
 preserveAspectRatio="xMidYMid meet">
<metadata>
Created by potrace 1.16, written by Peter Selinger 2001-2019
</metadata>
<g transform="translate(0.000000,44.000000) scale(0.100000,-0.100000)"
fill="#000000" stroke="none">
<path d="M206 418 l-16 -22 0 -23 0 -23 -51 0 -52 0 6 -40 5 -40 -37 0 -37 0
-12 -12 -12 -12 0 -22 0 -22 6 -16 6 -16 28 0 28 0 6 -16 6 -16 0 -34 0 -34
44 0 44 0 16 -6 16 -6 0 -30 0 -29 48 3 47 3 3 34 3 34 45 -7 44 -6 0 146 0
146 -52 -4 -53 -3 -3 35 -4 35 -10 12 -10 13 -19 0 -18 0 -15 -22z"/>
</g>
</svg>
