<?xml version="1.0" standalone="no"?>
<!DOCTYPE svg PUBLIC "-//W3C//DTD SVG 20010904//EN"
 "http://www.w3.org/TR/2001/REC-SVG-20010904/DTD/svg10.dtd">
<svg version="1.0" xmlns="http://www.w3.org/2000/svg"
 width="37.000000pt" height="42.000000pt" viewBox="0 0 37.000000 42.000000"
 preserveAspectRatio="xMidYMid meet">
<metadata>
Created by potrace 1.16, written by Peter Selinger 2001-2019
</metadata>
<g transform="translate(0.000000,42.000000) scale(0.100000,-0.100000)"
fill="#000000" stroke="none">
<path d="M206 398 l-16 -22 0 -26 0 -25 -50 3 -51 4 3 -44 3 -43 -36 3 -36 3
-12 -15 -13 -16 6 -25 6 -25 30 0 29 0 5 -17 6 -18 2 -32 2 -33 42 0 42 0 16
-6 16 -6 0 -30 0 -29 38 3 37 3 0 33 0 34 47 -4 48 -3 0 134 0 133 -46 -7 -45
-6 -15 11 -14 12 6 24 6 24 -12 15 -12 15 -9 0 -8 0 -15 -22z"/>
</g>
</svg>
