<?xml version="1.0" standalone="no"?>
<!DOCTYPE svg PUBLIC "-//W3C//DTD SVG 20010904//EN"
 "http://www.w3.org/TR/2001/REC-SVG-20010904/DTD/svg10.dtd">
<svg version="1.0" xmlns="http://www.w3.org/2000/svg"
 width="44.000000pt" height="41.000000pt" viewBox="0 0 44.000000 41.000000"
 preserveAspectRatio="xMidYMid meet">
<metadata>
Created by potrace 1.16, written by Peter Selinger 2001-2019
</metadata>
<g transform="translate(0.000000,41.000000) scale(0.100000,-0.100000)"
fill="#000000" stroke="none">
<path d="M195 398 l-4 -13 2 -20 2 -20 -52 -3 -53 -3 0 -51 0 -50 -34 6 -35 7
-10 -19 -10 -18 8 -12 8 -13 16 7 17 6 9 -24 10 -23 7 -30 7 -30 -1 -10 -2
-10 48 0 47 0 3 -32 3 -33 25 -6 24 -6 15 12 15 12 0 29 0 29 53 0 52 0 0 52
0 53 25 1 25 1 13 1 13 2 -3 33 -3 32 -25 1 -26 0 -12 8 -12 7 0 38 0 38 -52
9 -53 9 -3 23 -3 22 -25 0 -25 0 -4 -12z"/>
</g>
</svg>
