<?xml version="1.0" standalone="no"?>
<!DOCTYPE svg PUBLIC "-//W3C//DTD SVG 20010904//EN"
 "http://www.w3.org/TR/2001/REC-SVG-20010904/DTD/svg10.dtd">
<svg version="1.0" xmlns="http://www.w3.org/2000/svg"
 width="29.000000pt" height="34.000000pt" viewBox="0 0 29.000000 34.000000"
 preserveAspectRatio="xMidYMid meet">
<metadata>
Created by potrace 1.16, written by Peter Selinger 2001-2019
</metadata>
<g transform="translate(0.000000,34.000000) scale(0.100000,-0.100000)"
fill="#000000" stroke="none">
<path d="M120 318 l0 -24 -12 -12 -12 -12 -38 0 -38 0 0 -39 0 -40 13 -8 12
-8 25 0 25 0 3 -27 3 -28 -23 -9 -24 -9 -29 5 -28 6 7 -39 8 -39 0 -15 0 -15
51 5 52 5 -3 26 -2 26 16 14 16 13 16 -11 17 -10 5 -29 5 -29 50 0 50 0 -3 25
-3 25 -5 22 -4 23 -25 0 -25 0 0 29 0 29 20 -5 20 -5 15 12 15 12 0 44 0 43
-52 3 -53 3 -5 30 -5 30 -28 3 -27 3 0 -23z"/>
</g>
</svg>
