<?xml version="1.0" standalone="no"?>
<!DOCTYPE svg PUBLIC "-//W3C//DTD SVG 20010904//EN"
 "http://www.w3.org/TR/2001/REC-SVG-20010904/DTD/svg10.dtd">
<svg version="1.0" xmlns="http://www.w3.org/2000/svg"
 width="42.000000pt" height="33.000000pt" viewBox="0 0 42.000000 33.000000"
 preserveAspectRatio="xMidYMid meet">
<metadata>
Created by potrace 1.16, written by Peter Selinger 2001-2019
</metadata>
<g transform="translate(0.000000,33.000000) scale(0.100000,-0.100000)"
fill="#000000" stroke="none">
<path d="M195 318 l-4 -13 -3 -20 -3 -20 -53 -3 -52 -3 0 -35 0 -34 -28 0 -28
0 -12 -12 -12 -12 0 -19 0 -18 15 -16 16 -15 18 5 19 5 7 -44 6 -44 -6 -10 -6
-10 45 0 44 0 16 6 16 6 0 24 0 24 4 0 4 0 16 6 16 6 9 -25 9 -24 32 -7 32 -6
15 0 14 0 -7 50 -7 50 14 1 14 1 18 -2 18 -1 15 11 14 12 0 14 0 14 -35 0 -34
0 -3 57 -3 57 -35 8 -35 9 -17 20 -16 19 -21 0 -22 0 -4 -12z"/>
</g>
</svg>
