<?xml version="1.0" standalone="no"?>
<!DOCTYPE svg PUBLIC "-//W3C//DTD SVG 20010904//EN"
 "http://www.w3.org/TR/2001/REC-SVG-20010904/DTD/svg10.dtd">
<svg version="1.0" xmlns="http://www.w3.org/2000/svg"
 width="44.000000pt" height="35.000000pt" viewBox="0 0 44.000000 35.000000"
 preserveAspectRatio="xMidYMid meet">
<metadata>
Created by potrace 1.16, written by Peter Selinger 2001-2019
</metadata>
<g transform="translate(0.000000,35.000000) scale(0.100000,-0.100000)"
fill="#000000" stroke="none">
<path d="M195 338 l-4 -13 -3 -20 -3 -20 -53 -3 -52 -3 0 -35 0 -34 -28 0 -28
0 -12 -12 -12 -12 0 -29 0 -28 14 -15 15 -14 19 0 19 0 6 -29 6 -28 -6 -22 -5
-21 55 0 55 0 16 6 16 6 0 24 0 24 14 0 14 0 5 -18 4 -19 33 -6 33 -7 25 0 25
0 -7 50 -7 50 34 0 33 0 12 12 12 12 0 23 0 23 -35 0 -34 0 -3 57 -3 57 -35 8
-35 9 -17 20 -16 19 -31 0 -32 0 -4 -12z"/>
</g>
</svg>
