<?xml version="1.0" standalone="no"?>
<!DOCTYPE svg PUBLIC "-//W3C//DTD SVG 20010904//EN"
 "http://www.w3.org/TR/2001/REC-SVG-20010904/DTD/svg10.dtd">
<svg version="1.0" xmlns="http://www.w3.org/2000/svg"
 width="37.000000pt" height="31.000000pt" viewBox="0 0 37.000000 31.000000"
 preserveAspectRatio="xMidYMid meet">
<metadata>
Created by potrace 1.16, written by Peter Selinger 2001-2019
</metadata>
<g transform="translate(0.000000,31.000000) scale(0.100000,-0.100000)"
fill="#000000" stroke="none">
<path d="M247 303 l-7 -6 0 -27 0 -28 -15 -12 -15 -12 -15 6 -15 5 0 31 0 31
-52 -3 -53 -3 0 -54 0 -55 -35 0 -35 -1 -3 -23 -4 -23 13 -15 12 -15 36 3 36
2 -3 -19 -2 -20 -6 -33 -7 -32 45 0 44 0 12 12 12 12 0 28 0 28 20 0 20 0 0
-19 0 -19 31 -11 32 -11 34 0 34 0 -7 38 -7 37 -8 23 -9 22 -27 0 -28 1 19 14
18 14 29 -6 29 -5 0 64 0 65 -51 11 -51 12 -7 0 -8 0 -6 -7z"/>
</g>
</svg>
