<?xml version="1.0" standalone="no"?>
<!DOCTYPE svg PUBLIC "-//W3C//DTD SVG 20010904//EN"
 "http://www.w3.org/TR/2001/REC-SVG-20010904/DTD/svg10.dtd">
<svg version="1.0" xmlns="http://www.w3.org/2000/svg"
 width="35.000000pt" height="29.000000pt" viewBox="0 0 35.000000 29.000000"
 preserveAspectRatio="xMidYMid meet">
<metadata>
Created by potrace 1.16, written by Peter Selinger 2001-2019
</metadata>
<g transform="translate(0.000000,29.000000) scale(0.100000,-0.100000)"
fill="#000000" stroke="none">
<path d="M245 281 l-6 -11 6 -10 7 -11 -17 -25 -16 -25 -27 3 -27 3 -3 33 -3
33 -42 -3 -42 -3 0 -55 0 -55 -33 3 -33 2 -5 -15 -6 -15 12 -15 13 -16 36 3
36 3 -1 -25 -1 -25 -8 -28 -7 -27 35 0 35 0 12 14 11 15 -3 23 -3 23 33 3 32
3 0 -20 0 -19 35 -12 35 -11 18 3 19 3 -11 45 -11 45 -25 0 -25 0 -3 17 -3 17
21 11 22 12 24 -6 24 -6 0 54 0 54 -36 6 -35 7 -14 5 -13 5 -7 -10z"/>
</g>
</svg>
