<?xml version="1.0" standalone="no"?>
<!DOCTYPE svg PUBLIC "-//W3C//DTD SVG 20010904//EN"
 "http://www.w3.org/TR/2001/REC-SVG-20010904/DTD/svg10.dtd">
<svg version="1.0" xmlns="http://www.w3.org/2000/svg"
 width="40.000000pt" height="38.000000pt" viewBox="0 0 40.000000 38.000000"
 preserveAspectRatio="xMidYMid meet">
<metadata>
Created by potrace 1.16, written by Peter Selinger 2001-2019
</metadata>
<g transform="translate(0.000000,38.000000) scale(0.100000,-0.100000)"
fill="#000000" stroke="none">
<path d="M275 370 l-6 -10 6 -29 6 -29 -16 -16 -16 -16 -9 0 -8 0 -6 16 -6 16
0 23 0 23 -22 6 -23 6 -36 0 -37 0 -6 -16 -6 -16 0 -34 0 -34 -26 0 -25 0 -20
-10 -19 -11 0 -28 0 -29 16 -6 16 -6 35 0 35 0 -5 -27 -5 -28 -7 -22 -7 -23
56 0 56 0 0 -25 0 -24 19 -11 20 -10 16 0 16 0 15 14 14 15 0 9 0 9 55 12 56
13 -3 66 -3 67 -30 3 -30 3 -15 5 -15 5 18 10 18 10 29 -6 30 -7 0 20 0 19 -6
46 -6 45 -44 11 -43 11 -10 0 -10 0 -6 -10z"/>
</g>
</svg>
