<?xml version="1.0" standalone="no"?>
<!DOCTYPE svg PUBLIC "-//W3C//DTD SVG 20010904//EN"
 "http://www.w3.org/TR/2001/REC-SVG-20010904/DTD/svg10.dtd">
<svg version="1.0" xmlns="http://www.w3.org/2000/svg"
 width="38.000000pt" height="36.000000pt" viewBox="0 0 38.000000 36.000000"
 preserveAspectRatio="xMidYMid meet">
<metadata>
Created by potrace 1.16, written by Peter Selinger 2001-2019
</metadata>
<g transform="translate(0.000000,36.000000) scale(0.100000,-0.100000)"
fill="#000000" stroke="none">
<path d="M278 354 l-6 -6 5 -32 5 -33 -17 -16 -16 -17 -19 0 -18 0 -6 16 -6
16 0 23 0 23 -22 6 -23 6 -26 0 -27 0 -6 -16 -6 -16 0 -34 0 -34 -26 0 -25 0
-20 -10 -19 -11 0 -18 0 -19 16 -6 16 -6 34 0 34 0 0 -31 0 -30 -10 -20 -11
-19 59 0 59 0 -4 -25 -5 -24 25 -12 26 -12 14 14 13 14 0 10 -1 9 56 14 55 13
0 57 -1 57 -20 1 -20 0 -27 7 -28 7 0 10 0 9 21 12 21 11 30 -4 30 -5 -6 36
-6 36 0 16 0 17 -27 6 -28 7 -16 5 -15 4 -6 -6z"/>
</g>
</svg>
