<?xml version="1.0" standalone="no"?>
<!DOCTYPE svg PUBLIC "-//W3C//DTD SVG 20010904//EN"
 "http://www.w3.org/TR/2001/REC-SVG-20010904/DTD/svg10.dtd">
<svg version="1.0" xmlns="http://www.w3.org/2000/svg"
 width="32.000000pt" height="30.000000pt" viewBox="0 0 32.000000 30.000000"
 preserveAspectRatio="xMidYMid meet">
<metadata>
Created by potrace 1.16, written by Peter Selinger 2001-2019
</metadata>
<g transform="translate(0.000000,30.000000) scale(0.100000,-0.100000)"
fill="#000000" stroke="none">
<path d="M172 269 l3 -31 -18 -12 -18 -11 -9 15 -10 15 0 23 0 22 -60 0 -60 0
0 -49 0 -49 14 -11 13 -11 24 2 24 3 3 -22 3 -23 -13 -1 -13 -1 -25 -1 -25 -2
0 -60 0 -60 55 0 55 0 0 25 0 25 10 7 10 7 6 -16 6 -17 49 -14 49 -13 20 -6
21 -5 14 26 13 26 1 42 1 43 -38 1 -38 1 -12 13 -12 12 33 -7 32 -7 4 14 4 13
5 61 5 62 -65 1 -64 1 3 -31z"/>
</g>
</svg>
