<?xml version="1.0" standalone="no"?>
<!DOCTYPE svg PUBLIC "-//W3C//DTD SVG 20010904//EN"
 "http://www.w3.org/TR/2001/REC-SVG-20010904/DTD/svg10.dtd">
<svg version="1.0" xmlns="http://www.w3.org/2000/svg"
 width="30.000000pt" height="28.000000pt" viewBox="0 0 30.000000 28.000000"
 preserveAspectRatio="xMidYMid meet">
<metadata>
Created by potrace 1.16, written by Peter Selinger 2001-2019
</metadata>
<g transform="translate(0.000000,28.000000) scale(0.100000,-0.100000)"
fill="#000000" stroke="none">
<path d="M176 255 l6 -25 -12 -15 -12 -15 -23 0 -23 0 -6 16 -6 16 0 19 0 19
-50 0 -50 0 0 -39 0 -40 12 -7 12 -8 26 0 25 -1 3 -32 3 -33 -13 -2 -13 -1
-25 -1 -25 -1 0 -50 0 -50 45 0 45 0 -3 24 -2 25 12 8 13 8 11 0 12 0 4 -18 5
-18 44 -11 44 -10 16 -7 15 -7 13 24 13 24 1 34 2 34 -29 -2 -29 -2 -18 10
-19 10 0 15 0 16 33 -4 32 -3 5 60 5 60 -53 2 -52 3 6 -25z"/>
</g>
</svg>
