<?xml version="1.0" standalone="no"?>
<!DOCTYPE svg PUBLIC "-//W3C//DTD SVG 20010904//EN"
 "http://www.w3.org/TR/2001/REC-SVG-20010904/DTD/svg10.dtd">
<svg version="1.0" xmlns="http://www.w3.org/2000/svg"
 width="27.000000pt" height="35.000000pt" viewBox="0 0 27.000000 35.000000"
 preserveAspectRatio="xMidYMid meet">
<metadata>
Created by potrace 1.16, written by Peter Selinger 2001-2019
</metadata>
<g transform="translate(0.000000,35.000000) scale(0.100000,-0.100000)"
fill="#000000" stroke="none">
<path d="M127 343 l-7 -6 0 -34 0 -33 -55 0 -54 0 -7 -35 -6 -36 6 -6 6 -7 33
0 32 -1 0 -35 0 -35 -22 -3 -23 -3 -6 -40 -7 -39 -8 -6 -9 -5 0 -7 0 -7 47 2
48 2 5 2 5 1 8 -1 7 -1 -5 23 -6 23 15 13 16 13 16 -6 15 -6 -6 -19 -6 -19 8
-5 8 -5 48 -7 47 -7 0 51 0 51 -34 0 -34 0 -12 14 -12 15 4 23 3 23 40 1 40 0
3 47 3 46 -28 7 -28 6 -18 5 -18 5 -9 24 -10 24 -13 0 -14 0 -6 -7z"/>
</g>
</svg>
