<?xml version="1.0" standalone="no"?>
<!DOCTYPE svg PUBLIC "-//W3C//DTD SVG 20010904//EN"
 "http://www.w3.org/TR/2001/REC-SVG-20010904/DTD/svg10.dtd">
<svg version="1.0" xmlns="http://www.w3.org/2000/svg"
 width="38.000000pt" height="43.000000pt" viewBox="0 0 38.000000 43.000000"
 preserveAspectRatio="xMidYMid meet">
<metadata>
Created by potrace 1.16, written by Peter Selinger 2001-2019
</metadata>
<g transform="translate(0.000000,43.000000) scale(0.100000,-0.100000)"
fill="#000000" stroke="none">
<path d="M105 418 l-4 -13 -3 -25 -3 -25 -48 -3 -47 -3 0 -55 0 -55 34 6 34 7
12 -21 11 -21 -6 -10 -6 -10 -23 0 -24 0 -11 -44 -11 -45 0 -15 0 -15 37 -3
38 -3 5 -30 5 -30 24 -3 23 -4 24 6 24 6 0 14 0 15 56 16 56 16 -5 22 -6 22
-6 27 -7 28 41 0 40 0 11 20 11 21 -3 27 -3 27 -40 5 -40 5 -5 40 -5 40 -57
14 -58 13 0 24 0 24 -30 0 -31 0 -4 -12z"/>
</g>
</svg>
