<?xml version="1.0" standalone="no"?>
<!DOCTYPE svg PUBLIC "-//W3C//DTD SVG 20010904//EN"
 "http://www.w3.org/TR/2001/REC-SVG-20010904/DTD/svg10.dtd">
<svg version="1.0" xmlns="http://www.w3.org/2000/svg"
 width="37.000000pt" height="35.000000pt" viewBox="0 0 37.000000 35.000000"
 preserveAspectRatio="xMidYMid meet">
<metadata>
Created by potrace 1.16, written by Peter Selinger 2001-2019
</metadata>
<g transform="translate(0.000000,35.000000) scale(0.100000,-0.100000)"
fill="#000000" stroke="none">
<path d="M107 344 l-7 -7 6 -23 6 -22 -20 -11 -21 -11 -31 0 -31 0 3 -37 3
-38 38 -3 38 -3 6 -15 6 -15 -12 -25 -11 -26 -38 4 -37 3 1 -37 1 -36 6 -16 6
-16 40 0 40 0 3 36 3 37 18 11 18 11 15 -20 14 -19 -6 -34 -6 -33 61 3 62 3
13 45 13 45 21 3 21 3 11 14 11 14 -3 28 -3 28 -42 3 -43 3 0 43 0 43 -30 -5
-30 -4 -34 6 -34 7 2 32 1 32 -20 3 -21 3 -7 -7z"/>
</g>
</svg>
