<?xml version="1.0" standalone="no"?>
<!DOCTYPE svg PUBLIC "-//W3C//DTD SVG 20010904//EN"
 "http://www.w3.org/TR/2001/REC-SVG-20010904/DTD/svg10.dtd">
<svg version="1.0" xmlns="http://www.w3.org/2000/svg"
 width="39.000000pt" height="37.000000pt" viewBox="0 0 39.000000 37.000000"
 preserveAspectRatio="xMidYMid meet">
<metadata>
Created by potrace 1.16, written by Peter Selinger 2001-2019
</metadata>
<g transform="translate(0.000000,37.000000) scale(0.100000,-0.100000)"
fill="#000000" stroke="none">
<path d="M104 356 l-6 -16 6 -15 5 -15 -19 -10 -19 -10 -31 0 -31 0 3 -47 3
-48 35 -3 35 -3 8 -9 9 -8 -12 -21 -11 -22 -37 3 -37 3 0 -45 1 -45 7 -18 6
-17 51 0 50 0 0 34 0 34 14 11 14 12 8 -13 8 -12 -3 -38 -2 -38 70 0 70 0 14
48 14 47 21 3 21 3 11 14 11 14 -3 38 -3 38 -42 3 -43 3 0 45 0 45 -35 -7 -35
-6 -24 6 -25 6 -3 33 -3 32 -33 3 -32 3 -6 -15z"/>
</g>
</svg>
