<?xml version="1.0" standalone="no"?>
<!DOCTYPE svg PUBLIC "-//W3C//DTD SVG 20010904//EN"
 "http://www.w3.org/TR/2001/REC-SVG-20010904/DTD/svg10.dtd">
<svg version="1.0" xmlns="http://www.w3.org/2000/svg"
 width="37.000000pt" height="42.000000pt" viewBox="0 0 37.000000 42.000000"
 preserveAspectRatio="xMidYMid meet">
<metadata>
Created by potrace 1.16, written by Peter Selinger 2001-2019
</metadata>
<g transform="translate(0.000000,42.000000) scale(0.100000,-0.100000)"
fill="#000000" stroke="none">
<path d="M124 406 l-6 -15 6 -10 6 -9 -6 -16 -6 -16 -49 0 -49 0 0 -50 0 -50
35 0 35 0 0 -14 0 -14 -15 -12 -15 -12 -19 5 -19 5 -12 -8 -12 -8 7 -51 7 -51
53 0 54 0 -6 -35 -5 -34 25 -7 26 -6 16 15 15 16 0 26 0 26 15 5 15 6 41 -10
41 -10 -7 49 -7 49 29 0 29 0 12 12 12 12 0 27 0 28 -32 3 -33 3 -3 47 -3 47
-49 7 -50 7 -10 12 -11 13 3 13 3 14 -28 3 -27 3 -6 -15z"/>
</g>
</svg>
