<?xml version="1.0" standalone="no"?>
<!DOCTYPE svg PUBLIC "-//W3C//DTD SVG 20010904//EN"
 "http://www.w3.org/TR/2001/REC-SVG-20010904/DTD/svg10.dtd">
<svg version="1.0" xmlns="http://www.w3.org/2000/svg"
 width="39.000000pt" height="44.000000pt" viewBox="0 0 39.000000 44.000000"
 preserveAspectRatio="xMidYMid meet">
<metadata>
Created by potrace 1.16, written by Peter Selinger 2001-2019
</metadata>
<g transform="translate(0.000000,44.000000) scale(0.100000,-0.100000)"
fill="#000000" stroke="none">
<path d="M127 434 l-7 -7 0 -34 0 -33 -50 0 -50 0 0 -60 0 -60 36 0 36 0 -12
-15 -13 -15 -17 5 -17 5 -17 -6 -16 -6 0 -27 0 -26 6 -38 7 -37 48 0 49 0 0
-34 0 -34 16 -6 16 -6 20 0 19 0 14 13 13 14 4 29 3 29 20 -1 20 -1 34 -7 34
-8 -6 51 -6 51 27 0 28 0 12 12 12 12 0 37 0 38 -32 3 -33 3 -3 47 -3 47 -52
8 -51 8 -6 25 -6 25 -35 3 -35 3 -7 -7z"/>
</g>
</svg>
