<?xml version="1.0" standalone="no"?>
<!DOCTYPE svg PUBLIC "-//W3C//DTD SVG 20010904//EN"
 "http://www.w3.org/TR/2001/REC-SVG-20010904/DTD/svg10.dtd">
<svg version="1.0" xmlns="http://www.w3.org/2000/svg"
 width="33.000000pt" height="35.000000pt" viewBox="0 0 33.000000 35.000000"
 preserveAspectRatio="xMidYMid meet">
<metadata>
Created by potrace 1.16, written by Peter Selinger 2001-2019
</metadata>
<g transform="translate(0.000000,35.000000) scale(0.100000,-0.100000)"
fill="#000000" stroke="none">
<path d="M68 293 l-3 -58 -33 3 -32 4 0 -16 0 -15 19 -10 18 -10 29 2 29 2 -2
-39 -3 -40 -10 -10 -10 -10 0 -7 0 -8 43 -3 42 -3 -3 -37 -3 -38 44 0 45 0 6
15 5 15 -5 14 -6 15 46 6 46 7 0 49 0 49 -24 0 -25 0 -15 16 -16 15 0 18 0 17
12 12 12 12 28 0 28 0 0 40 0 40 -25 -5 -25 -5 -25 -5 -25 -5 0 -21 0 -20 -32
3 -33 3 -3 26 -3 27 -22 6 -22 6 -22 0 -22 0 -3 -57z"/>
</g>
</svg>
