<?xml version="1.0" standalone="no"?>
<!DOCTYPE svg PUBLIC "-//W3C//DTD SVG 20010904//EN"
 "http://www.w3.org/TR/2001/REC-SVG-20010904/DTD/svg10.dtd">
<svg version="1.0" xmlns="http://www.w3.org/2000/svg"
 width="35.000000pt" height="37.000000pt" viewBox="0 0 35.000000 37.000000"
 preserveAspectRatio="xMidYMid meet">
<metadata>
Created by potrace 1.16, written by Peter Selinger 2001-2019
</metadata>
<g transform="translate(0.000000,37.000000) scale(0.100000,-0.100000)"
fill="#000000" stroke="none">
<path d="M70 315 l0 -55 -35 0 -35 0 0 -25 0 -24 21 -11 20 -11 27 3 27 3 -3
-30 -3 -30 -10 -10 -9 -9 0 -17 0 -18 43 -3 42 -3 -3 -37 -4 -38 56 0 57 0 6
30 6 30 38 6 39 7 0 58 0 59 -24 0 -25 0 -15 16 -16 15 0 8 0 7 12 12 12 12
28 0 28 0 0 51 0 51 -42 -7 -43 -6 -17 -5 -18 -5 0 -20 0 -20 -22 3 -23 3 -3
26 -3 27 -22 6 -22 6 -32 0 -33 0 0 -55z"/>
</g>
</svg>
