<?xml version="1.0" standalone="no"?>
<!DOCTYPE svg PUBLIC "-//W3C//DTD SVG 20010904//EN"
 "http://www.w3.org/TR/2001/REC-SVG-20010904/DTD/svg10.dtd">
<svg version="1.0" xmlns="http://www.w3.org/2000/svg"
 width="37.000000pt" height="29.000000pt" viewBox="0 0 37.000000 29.000000"
 preserveAspectRatio="xMidYMid meet">
<metadata>
Created by potrace 1.16, written by Peter Selinger 2001-2019
</metadata>
<g transform="translate(0.000000,29.000000) scale(0.100000,-0.100000)"
fill="#000000" stroke="none">
<path d="M90 240 l0 -50 -28 0 -28 0 -18 -13 -18 -13 4 -25 3 -24 28 -3 27 -3
2 -17 2 -17 0 -35 1 -35 52 -3 52 -3 21 11 20 11 0 24 0 25 9 0 9 0 5 -19 4
-18 53 -13 52 -12 9 9 10 10 -12 51 -11 52 -24 0 -24 0 0 25 0 25 34 0 34 0 7
41 7 41 -10 10 -9 9 -49 -14 -49 -14 1 -22 1 -21 -13 0 -12 0 -16 6 -16 6 0
34 0 34 -55 0 -55 0 0 -50z"/>
</g>
</svg>
