<?xml version="1.0" standalone="no"?>
<!DOCTYPE svg PUBLIC "-//W3C//DTD SVG 20010904//EN"
 "http://www.w3.org/TR/2001/REC-SVG-20010904/DTD/svg10.dtd">
<svg version="1.0" xmlns="http://www.w3.org/2000/svg"
 width="43.000000pt" height="29.000000pt" viewBox="0 0 43.000000 29.000000"
 preserveAspectRatio="xMidYMid meet">
<metadata>
Created by potrace 1.16, written by Peter Selinger 2001-2019
</metadata>
<g transform="translate(0.000000,29.000000) scale(0.100000,-0.100000)"
fill="#000000" stroke="none">
<path d="M70 241 l0 -49 -13 -10 -13 -11 -22 6 -22 5 0 -41 0 -41 25 0 25 0 5
-25 5 -25 5 -25 5 -25 53 0 53 0 12 12 12 12 0 23 0 23 14 0 14 0 4 -18 5 -18
40 -12 40 -12 23 0 22 0 -7 40 -7 40 30 0 29 0 11 26 12 25 -6 25 -7 26 -18
-5 -19 -5 -10 18 -10 19 0 25 0 25 -10 6 -10 6 -55 -11 -55 -11 0 -25 0 -24
-19 0 -19 0 -6 16 -6 16 0 24 0 24 -55 0 -55 0 0 -49z"/>
</g>
</svg>
