<?xml version="1.0" standalone="no"?>
<!DOCTYPE svg PUBLIC "-//W3C//DTD SVG 20010904//EN"
 "http://www.w3.org/TR/2001/REC-SVG-20010904/DTD/svg10.dtd">
<svg version="1.0" xmlns="http://www.w3.org/2000/svg"
 width="41.000000pt" height="27.000000pt" viewBox="0 0 41.000000 27.000000"
 preserveAspectRatio="xMidYMid meet">
<metadata>
Created by potrace 1.16, written by Peter Selinger 2001-2019
</metadata>
<g transform="translate(0.000000,27.000000) scale(0.100000,-0.100000)"
fill="#000000" stroke="none">
<path d="M70 221 l0 -49 -15 -12 -15 -12 -20 5 -20 5 0 -29 0 -29 25 0 25 0 4
-22 5 -23 6 -27 5 -28 45 0 44 0 8 13 8 12 0 20 0 20 32 3 33 3 -6 -15 -6 -16
28 -11 29 -10 27 -6 26 -5 -5 41 -6 41 30 0 30 0 9 23 10 22 -4 17 -3 17 -16
-6 -16 -6 -13 18 -14 19 0 27 0 28 -8 5 -8 5 -47 -11 -47 -10 0 -24 0 -24 -29
0 -29 0 -6 16 -6 16 0 24 0 24 -45 0 -45 0 0 -49z"/>
</g>
</svg>
