<?xml version="1.0" standalone="no"?>
<!DOCTYPE svg PUBLIC "-//W3C//DTD SVG 20010904//EN"
 "http://www.w3.org/TR/2001/REC-SVG-20010904/DTD/svg10.dtd">
<svg version="1.0" xmlns="http://www.w3.org/2000/svg"
 width="30.000000pt" height="30.000000pt" viewBox="0 0 30.000000 30.000000"
 preserveAspectRatio="xMidYMid meet">
<metadata>
Created by potrace 1.16, written by Peter Selinger 2001-2019
</metadata>
<g transform="translate(0.000000,30.000000) scale(0.100000,-0.100000)"
fill="#000000" stroke="none">
<path d="M10 255 l0 -46 10 -20 11 -19 19 0 20 0 0 -9 0 -9 -6 -16 -6 -16 -29
0 -29 0 0 -60 0 -60 43 6 42 5 24 5 23 5 -4 34 -4 35 12 0 13 0 7 -12 8 -12 0
-26 1 -25 55 -3 54 -3 13 17 13 18 0 43 0 43 -37 0 -38 0 -15 10 -15 10 19 15
20 15 28 0 28 0 0 55 0 55 -12 0 -13 0 -50 -13 -49 -13 -6 -25 -6 -24 -12 1
-12 1 -10 2 -9 1 2 38 2 37 -52 3 -53 3 0 -46z"/>
</g>
</svg>
