<?xml version="1.0" standalone="no"?>
<!DOCTYPE svg PUBLIC "-//W3C//DTD SVG 20010904//EN"
 "http://www.w3.org/TR/2001/REC-SVG-20010904/DTD/svg10.dtd">
<svg version="1.0" xmlns="http://www.w3.org/2000/svg"
 width="28.000000pt" height="28.000000pt" viewBox="0 0 28.000000 28.000000"
 preserveAspectRatio="xMidYMid meet">
<metadata>
Created by potrace 1.16, written by Peter Selinger 2001-2019
</metadata>
<g transform="translate(0.000000,28.000000) scale(0.100000,-0.100000)"
fill="#000000" stroke="none">
<path d="M10 242 l0 -38 14 -19 13 -18 16 6 16 6 3 -17 4 -17 -10 -22 -9 -23
-29 0 -28 0 2 -48 2 -48 31 4 30 3 24 5 23 5 -6 34 -7 35 24 0 25 0 11 -14 11
-13 -2 -24 -3 -24 45 -3 44 -3 13 17 13 18 0 33 0 33 -34 0 -34 0 -16 6 -16 6
0 19 0 18 19 11 20 10 25 0 26 0 0 45 0 45 -27 -6 -28 -7 -25 -7 -25 -7 3 -15
2 -15 -15 -13 -15 -12 -26 6 -25 7 3 37 3 37 -42 3 -43 3 0 -39z"/>
</g>
</svg>
