<?xml version="1.0" standalone="no"?>
<!DOCTYPE svg PUBLIC "-//W3C//DTD SVG 20010904//EN"
 "http://www.w3.org/TR/2001/REC-SVG-20010904/DTD/svg10.dtd">
<svg version="1.0" xmlns="http://www.w3.org/2000/svg"
 width="42.000000pt" height="29.000000pt" viewBox="0 0 42.000000 29.000000"
 preserveAspectRatio="xMidYMid meet">
<metadata>
Created by potrace 1.16, written by Peter Selinger 2001-2019
</metadata>
<g transform="translate(0.000000,29.000000) scale(0.100000,-0.100000)"
fill="#000000" stroke="none">
<path d="M238 258 l5 -31 -18 -13 -18 -13 -19 10 -19 10 3 27 3 27 -47 3 -47
3 -3 -57 -3 -58 -35 -1 -35 0 0 -20 0 -20 25 0 24 0 8 -40 9 -40 -6 -24 -6
-24 16 7 17 6 39 0 39 0 0 36 0 35 33 -3 32 -3 3 -37 3 -38 37 0 38 0 21 15
22 16 7 35 6 35 25 10 24 9 -3 28 -3 27 -30 0 -30 0 -3 51 -3 52 -37 6 -37 6
-21 0 -21 0 5 -32z"/>
</g>
</svg>
