<?xml version="1.0" standalone="no"?>
<!DOCTYPE svg PUBLIC "-//W3C//DTD SVG 20010904//EN"
 "http://www.w3.org/TR/2001/REC-SVG-20010904/DTD/svg10.dtd">
<svg version="1.0" xmlns="http://www.w3.org/2000/svg"
 width="46.000000pt" height="42.000000pt" viewBox="0 0 46.000000 42.000000"
 preserveAspectRatio="xMidYMid meet">
<metadata>
Created by potrace 1.16, written by Peter Selinger 2001-2019
</metadata>
<g transform="translate(0.000000,42.000000) scale(0.100000,-0.100000)"
fill="#000000" stroke="none">
<path d="M197 390 l6 -32 -14 -9 -14 -9 -42 0 -43 0 0 -48 0 -48 -34 4 -34 4
-11 -21 -11 -20 25 -17 25 -16 30 4 30 5 0 -23 0 -23 -9 -24 -10 -25 15 -6 16
-6 37 0 38 0 -4 -22 -4 -23 14 -20 15 -20 29 10 28 10 3 33 3 32 50 0 49 0 0
13 0 12 10 36 10 36 24 -4 23 -5 5 25 5 25 -9 16 -9 16 -34 0 -34 0 -3 43 -3
42 -15 -4 -15 -3 -37 -5 -37 -5 -3 48 -3 49 -32 3 -33 3 7 -31z"/>
</g>
</svg>
