<?xml version="1.0" standalone="no"?>
<!DOCTYPE svg PUBLIC "-//W3C//DTD SVG 20010904//EN"
 "http://www.w3.org/TR/2001/REC-SVG-20010904/DTD/svg10.dtd">
<svg version="1.0" xmlns="http://www.w3.org/2000/svg"
 width="29.000000pt" height="30.000000pt" viewBox="0 0 29.000000 30.000000"
 preserveAspectRatio="xMidYMid meet">
<metadata>
Created by potrace 1.16, written by Peter Selinger 2001-2019
</metadata>
<g transform="translate(0.000000,30.000000) scale(0.100000,-0.100000)"
fill="#000000" stroke="none">
<path d="M2 238 l3 -63 30 0 30 -1 3 -17 3 -17 -23 -9 -23 -9 -13 -46 -12 -46
0 -11 0 -10 58 3 57 3 0 30 0 30 8 13 8 12 10 -5 9 -6 0 -39 0 -38 17 -6 16
-7 44 7 43 6 6 10 6 10 -7 55 -7 55 -20 -5 -21 -6 -15 16 -16 15 11 17 10 16
32 3 31 3 0 27 0 27 6 23 7 23 -59 -3 -59 -3 -2 -25 -1 -25 -1 -12 -1 -12 -19
-6 -18 -5 -15 5 -14 6 4 29 4 30 -27 10 -26 10 -30 0 -30 0 3 -62z"/>
</g>
</svg>
