<?xml version="1.0" standalone="no"?>
<!DOCTYPE svg PUBLIC "-//W3C//DTD SVG 20010904//EN"
 "http://www.w3.org/TR/2001/REC-SVG-20010904/DTD/svg10.dtd">
<svg version="1.0" xmlns="http://www.w3.org/2000/svg"
 width="27.000000pt" height="35.000000pt" viewBox="0 0 27.000000 35.000000"
 preserveAspectRatio="xMidYMid meet">
<metadata>
Created by potrace 1.16, written by Peter Selinger 2001-2019
</metadata>
<g transform="translate(0.000000,35.000000) scale(0.100000,-0.100000)"
fill="#000000" stroke="none">
<path d="M12 303 l3 -48 33 -3 32 -3 0 -28 0 -27 -12 -12 -12 -12 -28 0 -28 0
0 -14 0 -14 6 -30 6 -31 42 -3 41 -3 -3 -23 -3 -23 11 -15 12 -14 23 0 23 0
12 29 12 30 -7 22 -7 22 46 -6 46 -7 0 19 0 18 -6 31 -6 30 -30 6 -29 6 3 27
3 28 38 -3 37 -3 0 45 0 45 -11 6 -10 7 -34 -6 -33 -7 5 -18 5 -19 -11 -21
-12 -21 -29 0 -30 0 -6 25 -6 25 5 14 6 14 -15 6 -16 6 -34 0 -35 0 3 -47z"/>
</g>
</svg>
