<?xml version="1.0" standalone="no"?>
<!DOCTYPE svg PUBLIC "-//W3C//DTD SVG 20010904//EN"
 "http://www.w3.org/TR/2001/REC-SVG-20010904/DTD/svg10.dtd">
<svg version="1.0" xmlns="http://www.w3.org/2000/svg"
 width="29.000000pt" height="37.000000pt" viewBox="0 0 29.000000 37.000000"
 preserveAspectRatio="xMidYMid meet">
<metadata>
Created by potrace 1.16, written by Peter Selinger 2001-2019
</metadata>
<g transform="translate(0.000000,37.000000) scale(0.100000,-0.100000)"
fill="#000000" stroke="none">
<path d="M12 313 l3 -58 33 -3 32 -3 0 -18 0 -17 -12 -12 -12 -12 -28 0 -28 0
0 -24 0 -23 6 -32 7 -31 38 0 39 0 0 -28 0 -28 12 -12 12 -12 31 0 32 0 11 25
12 26 0 25 0 24 40 -6 40 -7 0 30 0 30 -6 31 -6 30 -30 6 -30 6 4 17 3 18 38
-3 38 -4 -3 59 -3 58 -18 3 -19 4 -35 -7 -35 -6 5 -21 6 -21 -10 -19 -10 -18
-19 0 -19 0 -6 19 -5 18 6 18 7 17 -14 9 -14 9 -48 0 -48 0 3 -57z"/>
</g>
</svg>
