<?xml version="1.0" standalone="no"?>
<!DOCTYPE svg PUBLIC "-//W3C//DTD SVG 20010904//EN"
 "http://www.w3.org/TR/2001/REC-SVG-20010904/DTD/svg10.dtd">
<svg version="1.0" xmlns="http://www.w3.org/2000/svg"
 width="36.000000pt" height="37.000000pt" viewBox="0 0 36.000000 37.000000"
 preserveAspectRatio="xMidYMid meet">
<metadata>
Created by potrace 1.16, written by Peter Selinger 2001-2019
</metadata>
<g transform="translate(0.000000,37.000000) scale(0.100000,-0.100000)"
fill="#000000" stroke="none">
<path d="M122 358 l-12 -12 0 -33 0 -33 -50 0 -50 0 0 -29 0 -29 -6 -16 -6
-16 24 0 24 0 12 -12 12 -12 0 -19 0 -18 -10 6 -11 7 -14 -12 -15 -12 0 -30 0
-29 -11 -20 -10 -20 63 3 63 3 0 28 -1 27 21 0 21 0 11 -11 12 -12 -6 -28 -5
-29 25 0 25 0 29 6 29 6 11 26 11 27 7 23 6 22 14 0 15 0 6 25 6 25 -6 15 -5
15 -30 0 -30 0 -3 43 -3 42 -59 -4 -59 -3 6 32 7 32 -10 19 -11 19 -12 0 -13
0 -12 -12z"/>
</g>
</svg>
