<?xml version="1.0" standalone="no"?>
<!DOCTYPE svg PUBLIC "-//W3C//DTD SVG 20010904//EN"
 "http://www.w3.org/TR/2001/REC-SVG-20010904/DTD/svg10.dtd">
<svg version="1.0" xmlns="http://www.w3.org/2000/svg"
 width="38.000000pt" height="38.000000pt" viewBox="0 0 38.000000 38.000000"
 preserveAspectRatio="xMidYMid meet">
<metadata>
Created by potrace 1.16, written by Peter Selinger 2001-2019
</metadata>
<g transform="translate(0.000000,38.000000) scale(0.100000,-0.100000)"
fill="#000000" stroke="none">
<path d="M122 368 l-12 -12 0 -34 0 -35 -49 6 -49 6 -6 -15 -6 -16 0 -50 0
-50 37 4 38 3 -2 -10 -3 -10 -30 -8 -30 -8 0 -42 0 -42 -6 -22 -6 -23 65 0 66
0 3 32 3 31 12 4 12 4 3 -33 3 -33 70 -6 70 -6 6 10 7 10 6 38 6 38 23 3 22 3
3 39 3 39 -13 8 -13 9 -25 0 -25 0 3 46 4 46 -48 -2 -49 -2 -12 1 -12 1 -3 43
-3 42 -25 3 -25 3 -13 -13z"/>
</g>
</svg>
