<?xml version="1.0" standalone="no"?>
<!DOCTYPE svg PUBLIC "-//W3C//DTD SVG 20010904//EN"
 "http://www.w3.org/TR/2001/REC-SVG-20010904/DTD/svg10.dtd">
<svg version="1.0" xmlns="http://www.w3.org/2000/svg"
 width="36.000000pt" height="36.000000pt" viewBox="0 0 36.000000 36.000000"
 preserveAspectRatio="xMidYMid meet">
<metadata>
Created by potrace 1.16, written by Peter Selinger 2001-2019
</metadata>
<g transform="translate(0.000000,36.000000) scale(0.100000,-0.100000)"
fill="#000000" stroke="none">
<path d="M121 346 l-12 -14 3 -29 3 -28 -50 0 -50 0 -7 -10 -8 -10 0 -44 0
-43 35 6 35 7 6 -16 6 -15 -12 -15 -13 -15 -11 1 -11 1 -12 -1 -11 -1 -4 -55
-3 -55 52 0 52 0 3 33 3 32 25 0 25 0 0 -30 0 -30 63 -5 62 -5 4 15 5 15 6 32
6 32 22 3 22 3 3 29 4 29 -14 8 -13 9 -27 0 -28 0 7 47 6 46 -49 -6 -50 -6
-11 7 -12 7 -3 40 -3 40 -16 3 -16 3 -12 -15z"/>
</g>
</svg>
