<?xml version="1.0" standalone="no"?>
<!DOCTYPE svg PUBLIC "-//W3C//DTD SVG 20010904//EN"
 "http://www.w3.org/TR/2001/REC-SVG-20010904/DTD/svg10.dtd">
<svg version="1.0" xmlns="http://www.w3.org/2000/svg"
 width="47.000000pt" height="38.000000pt" viewBox="0 0 47.000000 38.000000"
 preserveAspectRatio="xMidYMid meet">
<metadata>
Created by potrace 1.16, written by Peter Selinger 2001-2019
</metadata>
<g transform="translate(0.000000,38.000000) scale(0.100000,-0.100000)"
fill="#000000" stroke="none">
<path d="M197 373 l-7 -6 0 -34 0 -33 -48 0 -48 0 -10 -42 -9 -43 -32 -3 -33
-3 -6 -24 -6 -24 7 -20 6 -21 35 0 34 0 0 -50 0 -51 68 3 67 3 3 33 3 33 12
-4 12 -4 3 -37 3 -37 15 -6 14 -5 56 7 56 7 -6 26 -6 27 -6 22 -6 23 36 0 36
0 16 25 16 24 -7 32 -7 31 -34 -5 -34 -6 0 37 0 37 -10 15 -9 15 -21 -12 -20
-13 -31 0 -31 0 6 26 7 26 -6 19 -6 19 -33 0 -33 0 -6 -7z"/>
</g>
</svg>
