<?xml version="1.0" standalone="no"?>
<!DOCTYPE svg PUBLIC "-//W3C//DTD SVG 20010904//EN"
 "http://www.w3.org/TR/2001/REC-SVG-20010904/DTD/svg10.dtd">
<svg version="1.0" xmlns="http://www.w3.org/2000/svg"
 width="38.000000pt" height="38.000000pt" viewBox="0 0 38.000000 38.000000"
 preserveAspectRatio="xMidYMid meet">
<metadata>
Created by potrace 1.16, written by Peter Selinger 2001-2019
</metadata>
<g transform="translate(0.000000,38.000000) scale(0.100000,-0.100000)"
fill="#000000" stroke="none">
<path d="M0 325 l0 -55 40 0 41 0 6 -16 6 -17 -10 -16 -10 -16 -24 -5 -23 -6
-7 -24 -7 -25 -1 -29 -1 -29 45 5 45 6 0 -37 0 -37 12 -12 12 -12 23 0 22 0
11 19 10 20 0 30 0 31 55 -6 55 -7 0 9 0 9 -9 38 -9 37 30 0 29 0 20 10 19 11
0 29 0 28 -6 16 -6 16 -33 0 -33 0 -6 16 -6 16 0 29 0 29 -37 0 -38 0 -23 -6
-23 -7 5 -23 6 -23 -16 -15 -15 -16 -8 0 -7 0 -12 12 -12 12 0 33 0 33 -55 0
-55 0 0 -55z"/>
</g>
</svg>
