<?xml version="1.0" standalone="no"?>
<!DOCTYPE svg PUBLIC "-//W3C//DTD SVG 20010904//EN"
 "http://www.w3.org/TR/2001/REC-SVG-20010904/DTD/svg10.dtd">
<svg version="1.0" xmlns="http://www.w3.org/2000/svg"
 width="36.000000pt" height="36.000000pt" viewBox="0 0 36.000000 36.000000"
 preserveAspectRatio="xMidYMid meet">
<metadata>
Created by potrace 1.16, written by Peter Selinger 2001-2019
</metadata>
<g transform="translate(0.000000,36.000000) scale(0.100000,-0.100000)"
fill="#000000" stroke="none">
<path d="M0 316 l0 -45 43 -3 42 -3 3 -28 3 -28 -12 -15 -11 -14 -19 0 -18 0
-5 -8 -4 -7 -7 -39 -8 -39 46 7 46 7 3 -42 3 -42 18 -11 18 -11 15 19 14 20 0
34 0 34 54 -6 54 -7 -9 41 -9 41 5 8 5 8 24 -4 24 -5 21 11 21 12 0 22 0 22
-9 14 -9 14 -26 -7 -25 -6 -11 19 -10 20 0 28 0 29 -32 -1 -33 -2 -18 -1 -18
-2 6 -11 7 -10 -6 -24 -6 -25 -25 -6 -25 -6 -15 12 -15 12 0 34 0 34 -45 0
-45 0 0 -44z"/>
</g>
</svg>
