<?xml version="1.0" standalone="no"?>
<!DOCTYPE svg PUBLIC "-//W3C//DTD SVG 20010904//EN"
 "http://www.w3.org/TR/2001/REC-SVG-20010904/DTD/svg10.dtd">
<svg version="1.0" xmlns="http://www.w3.org/2000/svg"
 width="31.000000pt" height="29.000000pt" viewBox="0 0 31.000000 29.000000"
 preserveAspectRatio="xMidYMid meet">
<metadata>
Created by potrace 1.16, written by Peter Selinger 2001-2019
</metadata>
<g transform="translate(0.000000,29.000000) scale(0.100000,-0.100000)"
fill="#000000" stroke="none">
<path d="M17 283 l-7 -6 0 -34 0 -34 11 -21 11 -20 28 6 29 5 6 -20 7 -21 -12
-12 -11 -11 -37 0 -37 0 2 -44 2 -44 5 -14 5 -13 45 0 44 0 16 6 16 6 0 34 0
34 10 0 10 0 0 -34 0 -33 71 -7 71 -7 4 4 5 4 -22 67 -22 66 -13 0 -14 0 0 9
0 10 28 3 27 3 3 58 3 57 -23 -1 -23 0 -40 -7 -39 -7 -6 -25 -6 -25 -14 0 -15
0 3 27 3 28 -26 10 -26 10 -33 0 -33 0 -6 -7z"/>
</g>
</svg>
