<?xml version="1.0" standalone="no"?>
<!DOCTYPE svg PUBLIC "-//W3C//DTD SVG 20010904//EN"
 "http://www.w3.org/TR/2001/REC-SVG-20010904/DTD/svg10.dtd">
<svg version="1.0" xmlns="http://www.w3.org/2000/svg"
 width="36.000000pt" height="37.000000pt" viewBox="0 0 36.000000 37.000000"
 preserveAspectRatio="xMidYMid meet">
<metadata>
Created by potrace 1.16, written by Peter Selinger 2001-2019
</metadata>
<g transform="translate(0.000000,37.000000) scale(0.100000,-0.100000)"
fill="#000000" stroke="none">
<path d="M65 358 l-4 -13 -3 -40 -3 -40 -27 3 -28 3 0 -36 0 -35 14 0 14 0 18
-57 19 -58 43 -3 42 -3 0 -28 0 -27 12 -12 12 -12 33 0 32 0 11 19 10 20 0 32
0 31 23 -7 22 -7 20 -1 20 -2 3 48 3 49 -12 15 -13 15 -23 -5 -23 -4 0 23 0
24 34 0 34 0 6 35 7 36 -6 20 -7 20 -56 -3 -57 -3 -1 -28 -1 -27 -6 -6 -6 -6
-24 6 -24 6 4 25 5 25 -27 10 -26 10 -30 0 -30 0 -4 -12z"/>
</g>
</svg>
