<?xml version="1.0" standalone="no"?>
<!DOCTYPE svg PUBLIC "-//W3C//DTD SVG 20010904//EN"
 "http://www.w3.org/TR/2001/REC-SVG-20010904/DTD/svg10.dtd">
<svg version="1.0" xmlns="http://www.w3.org/2000/svg"
 width="42.000000pt" height="27.000000pt" viewBox="0 0 42.000000 27.000000"
 preserveAspectRatio="xMidYMid meet">
<metadata>
Created by potrace 1.16, written by Peter Selinger 2001-2019
</metadata>
<g transform="translate(0.000000,27.000000) scale(0.100000,-0.100000)"
fill="#000000" stroke="none">
<path d="M79 263 l-2 -8 -2 -20 -2 -20 -1 -22 -2 -23 -35 0 -35 0 0 -36 0 -36
22 5 22 6 13 -11 13 -10 0 -44 0 -44 55 0 55 0 0 30 0 30 19 0 19 0 6 -25 6
-25 40 -1 40 -2 13 -1 12 -1 10 40 9 40 11 10 10 10 20 0 20 0 3 33 3 32 -39
0 -40 0 -6 16 -6 16 0 29 0 29 -22 0 -23 0 -22 -6 -23 -6 0 -24 0 -25 -15 -5
-15 -6 -26 6 -26 7 6 34 7 35 -46 0 -45 0 -1 -7z"/>
</g>
</svg>
