<?xml version="1.0" standalone="no"?>
<!DOCTYPE svg PUBLIC "-//W3C//DTD SVG 20010904//EN"
 "http://www.w3.org/TR/2001/REC-SVG-20010904/DTD/svg10.dtd">
<svg version="1.0" xmlns="http://www.w3.org/2000/svg"
 width="37.000000pt" height="43.000000pt" viewBox="0 0 37.000000 43.000000"
 preserveAspectRatio="xMidYMid meet">
<metadata>
Created by potrace 1.16, written by Peter Selinger 2001-2019
</metadata>
<g transform="translate(0.000000,43.000000) scale(0.100000,-0.100000)"
fill="#000000" stroke="none">
<path d="M127 424 l-7 -7 6 -23 6 -22 -20 -11 -21 -11 -35 0 -36 0 0 -46 0
-46 35 6 34 7 7 -25 6 -25 -20 -22 -21 -22 -25 5 -26 5 -1 -11 -1 -11 1 -9 2
-8 1 -32 1 -31 41 0 41 0 0 -40 0 -40 38 -3 38 -3 16 12 15 13 -5 22 -4 22 21
6 21 6 27 0 27 0 3 57 3 58 27 -3 27 -3 10 20 11 20 -6 16 -7 17 -33 -4 -34
-4 0 52 0 51 -52 9 -53 9 -13 28 -13 27 -13 0 -13 0 -6 -6z"/>
</g>
</svg>
