<?xml version="1.0" standalone="no"?>
<!DOCTYPE svg PUBLIC "-//W3C//DTD SVG 20010904//EN"
 "http://www.w3.org/TR/2001/REC-SVG-20010904/DTD/svg10.dtd">
<svg version="1.0" xmlns="http://www.w3.org/2000/svg"
 width="38.000000pt" height="43.000000pt" viewBox="0 0 38.000000 43.000000"
 preserveAspectRatio="xMidYMid meet">
<metadata>
Created by potrace 1.16, written by Peter Selinger 2001-2019
</metadata>
<g transform="translate(0.000000,43.000000) scale(0.100000,-0.100000)"
fill="#000000" stroke="none">
<path d="M133 396 l5 -34 -15 -6 -15 -6 -49 0 -49 0 0 -34 0 -35 10 -25 10
-26 31 0 31 0 -4 -12 -5 -13 -41 -3 -42 -3 0 -65 0 -64 60 0 60 0 0 -19 0 -19
6 -16 6 -16 34 0 34 0 10 25 10 25 18 0 19 0 32 11 33 11 -6 22 -6 21 -6 22
-6 23 35 0 35 0 6 16 6 16 0 28 0 28 -16 6 -16 6 -18 0 -19 0 -3 43 -3 42 -50
0 -50 0 3 16 2 17 -10 26 -10 26 -31 0 -32 0 6 -34z"/>
</g>
</svg>
