<?xml version="1.0" standalone="no"?>
<!DOCTYPE svg PUBLIC "-//W3C//DTD SVG 20010904//EN"
 "http://www.w3.org/TR/2001/REC-SVG-20010904/DTD/svg10.dtd">
<svg version="1.0" xmlns="http://www.w3.org/2000/svg"
 width="30.000000pt" height="42.000000pt" viewBox="0 0 30.000000 42.000000"
 preserveAspectRatio="xMidYMid meet">
<metadata>
Created by potrace 1.16, written by Peter Selinger 2001-2019
</metadata>
<g transform="translate(0.000000,42.000000) scale(0.100000,-0.100000)"
fill="#000000" stroke="none">
<path d="M127 414 l-7 -7 7 -25 6 -24 -14 -9 -14 -9 -48 0 -48 0 3 -47 3 -48
32 1 32 2 6 -16 6 -15 -11 -11 -10 -10 -23 -1 -22 0 -3 -40 -3 -40 -10 -10 -9
-9 0 -8 0 -8 39 0 39 0 15 -6 15 -6 -5 -34 -6 -34 42 0 41 0 0 24 0 25 55 11
55 11 5 9 5 9 -10 6 -9 6 -11 40 -11 40 -25 9 -24 10 0 9 0 9 15 12 15 12 31
-6 32 -6 -5 50 -5 50 -6 6 -5 5 -56 6 -57 6 3 31 3 31 -20 3 -21 3 -7 -7z"/>
</g>
</svg>
