<?xml version="1.0" standalone="no"?>
<!DOCTYPE svg PUBLIC "-//W3C//DTD SVG 20010904//EN"
 "http://www.w3.org/TR/2001/REC-SVG-20010904/DTD/svg10.dtd">
<svg version="1.0" xmlns="http://www.w3.org/2000/svg"
 width="32.000000pt" height="44.000000pt" viewBox="0 0 32.000000 44.000000"
 preserveAspectRatio="xMidYMid meet">
<metadata>
Created by potrace 1.16, written by Peter Selinger 2001-2019
</metadata>
<g transform="translate(0.000000,44.000000) scale(0.100000,-0.100000)"
fill="#000000" stroke="none">
<path d="M125 430 l-7 -11 6 -24 6 -23 -16 -6 -16 -6 -44 0 -45 0 3 -57 3 -58
33 -3 32 -3 0 -9 0 -9 -27 -3 -28 -3 -3 -40 -3 -40 -10 -10 -9 -9 0 -17 0 -18
48 -3 47 -3 3 -38 3 -37 50 0 49 0 0 24 0 25 55 11 55 11 6 11 6 10 -15 31
-15 32 -11 28 -11 27 -16 0 -16 0 5 13 4 12 38 -3 37 -3 -4 60 -4 61 -6 5 -6
6 -55 6 -55 6 2 31 1 31 -32 3 -31 3 -7 -11z"/>
</g>
</svg>
