<?xml version="1.0" standalone="no"?>
<!DOCTYPE svg PUBLIC "-//W3C//DTD SVG 20010904//EN"
 "http://www.w3.org/TR/2001/REC-SVG-20010904/DTD/svg10.dtd">
<svg version="1.0" xmlns="http://www.w3.org/2000/svg"
 width="34.000000pt" height="43.000000pt" viewBox="0 0 34.000000 43.000000"
 preserveAspectRatio="xMidYMid meet">
<metadata>
Created by potrace 1.16, written by Peter Selinger 2001-2019
</metadata>
<g transform="translate(0.000000,43.000000) scale(0.100000,-0.100000)"
fill="#000000" stroke="none">
<path d="M133 423 l-13 -5 0 -29 0 -29 -50 0 -50 0 0 -49 0 -50 16 -16 17 -16
21 2 21 1 9 -1 8 -1 -12 -15 -12 -15 -44 0 -44 0 0 -37 0 -38 6 -22 6 -23 49
0 48 0 3 -38 3 -37 50 0 50 0 3 23 4 23 11 3 12 4 41 11 41 11 7 49 6 48 -6
17 -7 17 -41 -3 -41 -3 -3 22 -3 22 38 3 38 3 3 51 3 50 -25 12 -24 11 -37 7
-38 7 -4 18 -5 19 -22 -1 -21 -1 -12 -5z"/>
</g>
</svg>
