<?xml version="1.0" standalone="no"?>
<!DOCTYPE svg PUBLIC "-//W3C//DTD SVG 20010904//EN"
 "http://www.w3.org/TR/2001/REC-SVG-20010904/DTD/svg10.dtd">
<svg version="1.0" xmlns="http://www.w3.org/2000/svg"
 width="32.000000pt" height="41.000000pt" viewBox="0 0 32.000000 41.000000"
 preserveAspectRatio="xMidYMid meet">
<metadata>
Created by potrace 1.16, written by Peter Selinger 2001-2019
</metadata>
<g transform="translate(0.000000,41.000000) scale(0.100000,-0.100000)"
fill="#000000" stroke="none">
<path d="M132 402 l-12 -8 2 -25 3 -24 -52 -3 -53 -3 0 -39 0 -39 16 -15 15
-16 25 6 24 6 6 -17 7 -17 -16 -15 -16 -16 -41 1 -40 2 0 -28 0 -27 6 -22 6
-22 51 -3 51 -3 1 -35 0 -35 40 0 40 0 -1 23 -1 22 26 6 26 6 31 9 31 10 6 41
5 40 -5 14 -5 14 -38 -6 -38 -6 -11 20 -11 21 6 15 6 15 36 3 37 3 3 41 3 40
-25 12 -24 11 -37 7 -38 7 -4 18 -5 19 -12 0 -11 0 -13 -8z"/>
</g>
</svg>
