<?xml version="1.0" standalone="no"?>
<!DOCTYPE svg PUBLIC "-//W3C//DTD SVG 20010904//EN"
 "http://www.w3.org/TR/2001/REC-SVG-20010904/DTD/svg10.dtd">
<svg version="1.0" xmlns="http://www.w3.org/2000/svg"
 width="43.000000pt" height="44.000000pt" viewBox="0 0 43.000000 44.000000"
 preserveAspectRatio="xMidYMid meet">
<metadata>
Created by potrace 1.16, written by Peter Selinger 2001-2019
</metadata>
<g transform="translate(0.000000,44.000000) scale(0.100000,-0.100000)"
fill="#000000" stroke="none">
<path d="M170 415 l0 -24 -19 -11 -20 -10 -35 0 -35 0 1 -33 1 -34 -7 -11 -7
-12 -25 0 -25 0 3 -32 3 -33 35 -5 35 -5 -3 -57 -4 -58 34 0 33 0 12 -8 11 -7
4 -35 3 -35 40 0 40 0 3 53 3 52 12 0 12 0 29 -15 30 -16 14 6 14 5 -7 30 -7
30 7 30 7 30 9 -6 10 -6 25 6 24 6 0 30 0 29 -42 3 -43 3 -3 52 -3 51 -49 12
-50 12 0 19 0 19 -35 0 -35 0 0 -25z"/>
</g>
</svg>
