<?xml version="1.0" standalone="no"?>
<!DOCTYPE svg PUBLIC "-//W3C//DTD SVG 20010904//EN"
 "http://www.w3.org/TR/2001/REC-SVG-20010904/DTD/svg10.dtd">
<svg version="1.0" xmlns="http://www.w3.org/2000/svg"
 width="41.000000pt" height="42.000000pt" viewBox="0 0 41.000000 42.000000"
 preserveAspectRatio="xMidYMid meet">
<metadata>
Created by potrace 1.16, written by Peter Selinger 2001-2019
</metadata>
<g transform="translate(0.000000,42.000000) scale(0.100000,-0.100000)"
fill="#000000" stroke="none">
<path d="M170 395 l0 -24 -19 -11 -20 -10 -36 0 -36 0 6 -19 6 -18 -10 -27
-11 -26 -25 0 -26 0 3 -22 3 -23 35 -5 35 -5 -3 -58 -3 -57 33 0 33 0 15 -10
15 -9 0 -33 0 -33 30 0 30 0 3 52 3 53 19 0 19 0 23 -9 23 -9 10 2 9 1 -3 28
-3 27 7 31 7 31 20 -5 20 -6 14 6 14 5 0 20 0 20 -33 -3 -32 -3 -13 8 -12 7 0
48 0 48 -52 14 -53 15 1 17 2 17 -24 0 -24 0 0 -25z"/>
</g>
</svg>
