<?xml version="1.0" standalone="no"?>
<!DOCTYPE svg PUBLIC "-//W3C//DTD SVG 20010904//EN"
 "http://www.w3.org/TR/2001/REC-SVG-20010904/DTD/svg10.dtd">
<svg version="1.0" xmlns="http://www.w3.org/2000/svg"
 width="37.000000pt" height="36.000000pt" viewBox="0 0 37.000000 36.000000"
 preserveAspectRatio="xMidYMid meet">
<metadata>
Created by potrace 1.16, written by Peter Selinger 2001-2019
</metadata>
<g transform="translate(0.000000,36.000000) scale(0.100000,-0.100000)"
fill="#000000" stroke="none">
<path d="M115 348 l-4 -13 -3 -25 -3 -25 -50 -5 -50 -5 -3 -57 -3 -58 35 0 35
0 6 -10 7 -11 -29 -9 -28 -10 -13 -52 -12 -52 13 -8 12 -8 55 2 55 3 0 34 0
34 13 4 12 5 0 -35 0 -34 31 -7 32 -6 43 0 44 0 0 44 0 45 28 13 27 13 0 35 0
35 -30 5 -30 5 -3 41 -3 42 -31 6 -30 6 -23 0 -23 0 2 33 1 32 -38 3 -37 3 -5
-13z"/>
</g>
</svg>
