<?xml version="1.0" standalone="no"?>
<!DOCTYPE svg PUBLIC "-//W3C//DTD SVG 20010904//EN"
 "http://www.w3.org/TR/2001/REC-SVG-20010904/DTD/svg10.dtd">
<svg version="1.0" xmlns="http://www.w3.org/2000/svg"
 width="29.000000pt" height="42.000000pt" viewBox="0 0 29.000000 42.000000"
 preserveAspectRatio="xMidYMid meet">
<metadata>
Created by potrace 1.16, written by Peter Selinger 2001-2019
</metadata>
<g transform="translate(0.000000,42.000000) scale(0.100000,-0.100000)"
fill="#000000" stroke="none">
<path d="M99 413 l-1 -8 2 -18 1 -18 -11 -15 -12 -14 -40 0 -39 0 3 -42 3 -43
30 -5 30 -5 3 -18 4 -18 -13 -15 -12 -15 -13 5 -12 5 -6 -15 -6 -16 0 -39 0
-39 40 0 40 0 0 -27 0 -28 9 -13 8 -14 29 4 29 3 3 38 3 37 53 0 53 0 7 51 7
52 -8 8 -8 7 -30 4 -30 3 -3 23 -3 22 26 0 25 0 11 28 11 27 -14 24 -13 24
-47 14 -48 14 0 19 0 20 -30 0 -30 0 -1 -7z"/>
</g>
</svg>
