<?xml version="1.0" standalone="no"?>
<!DOCTYPE svg PUBLIC "-//W3C//DTD SVG 20010904//EN"
 "http://www.w3.org/TR/2001/REC-SVG-20010904/DTD/svg10.dtd">
<svg version="1.0" xmlns="http://www.w3.org/2000/svg"
 width="31.000000pt" height="44.000000pt" viewBox="0 0 31.000000 44.000000"
 preserveAspectRatio="xMidYMid meet">
<metadata>
Created by potrace 1.16, written by Peter Selinger 2001-2019
</metadata>
<g transform="translate(0.000000,44.000000) scale(0.100000,-0.100000)"
fill="#000000" stroke="none">
<path d="M94 425 l-6 -14 7 -11 7 -11 -12 -14 -12 -15 -40 0 -39 0 3 -52 3
-53 30 -5 30 -5 0 -15 0 -15 -20 -4 -20 -3 -7 -12 -8 -11 0 -52 0 -53 40 0 40
0 0 -27 0 -28 9 -13 8 -13 39 3 39 3 3 38 3 37 54 0 53 0 7 61 7 61 -8 8 -9 8
-29 4 -29 3 -4 12 -4 12 28 3 28 3 9 37 9 37 -15 23 -15 23 -47 13 -46 12 0
20 0 20 -40 0 -41 0 -5 -15z"/>
</g>
</svg>
