<?xml version="1.0" standalone="no"?>
<!DOCTYPE svg PUBLIC "-//W3C//DTD SVG 20010904//EN"
 "http://www.w3.org/TR/2001/REC-SVG-20010904/DTD/svg10.dtd">
<svg version="1.0" xmlns="http://www.w3.org/2000/svg"
 width="32.000000pt" height="38.000000pt" viewBox="0 0 32.000000 38.000000"
 preserveAspectRatio="xMidYMid meet">
<metadata>
Created by potrace 1.16, written by Peter Selinger 2001-2019
</metadata>
<g transform="translate(0.000000,38.000000) scale(0.100000,-0.100000)"
fill="#000000" stroke="none">
<path d="M122 368 l-12 -12 0 -28 0 -28 -42 0 -43 0 -13 -9 -13 -8 3 -49 3
-49 20 -3 20 -3 23 -5 22 -4 0 -10 0 -10 -24 0 -25 0 -15 -54 -16 -54 0 -12 0
-11 62 3 63 3 10 33 9 32 11 -3 10 -4 -3 -43 -4 -43 61 5 61 4 15 20 14 19 1
48 0 47 -44 0 -44 0 -6 17 -7 16 11 11 10 10 35 -3 35 -3 0 60 0 60 -52 -2
-53 -1 -3 25 -4 25 -10 13 -10 12 -22 0 -22 0 -12 -12z"/>
</g>
</svg>
