<?xml version="1.0" standalone="no"?>
<!DOCTYPE svg PUBLIC "-//W3C//DTD SVG 20010904//EN"
 "http://www.w3.org/TR/2001/REC-SVG-20010904/DTD/svg10.dtd">
<svg version="1.0" xmlns="http://www.w3.org/2000/svg"
 width="31.000000pt" height="35.000000pt" viewBox="0 0 31.000000 35.000000"
 preserveAspectRatio="xMidYMid meet">
<metadata>
Created by potrace 1.16, written by Peter Selinger 2001-2019
</metadata>
<g transform="translate(0.000000,35.000000) scale(0.100000,-0.100000)"
fill="#000000" stroke="none">
<path d="M126 315 l6 -34 -23 -5 -24 -6 -30 -2 -30 -3 0 -50 0 -50 33 0 33 0
-3 -20 -3 -20 -34 3 -34 3 -9 -13 -8 -13 6 -35 6 -35 4 -15 4 -15 52 0 53 0 0
27 0 27 11 11 12 12 23 -4 24 -3 0 -35 0 -35 24 -3 24 -4 33 7 34 6 -10 19
-10 19 0 29 0 30 -14 11 -14 12 -13 -3 -13 -3 -4 18 -3 17 13 4 13 4 25 6 25
5 -3 45 -4 45 -56 3 -57 3 3 24 2 24 -11 13 -11 14 -25 0 -24 0 7 -35z"/>
</g>
</svg>
