<?xml version="1.0" standalone="no"?>
<!DOCTYPE svg PUBLIC "-//W3C//DTD SVG 20010904//EN"
 "http://www.w3.org/TR/2001/REC-SVG-20010904/DTD/svg10.dtd">
<svg version="1.0" xmlns="http://www.w3.org/2000/svg"
 width="44.000000pt" height="31.000000pt" viewBox="0 0 44.000000 31.000000"
 preserveAspectRatio="xMidYMid meet">
<metadata>
Created by potrace 1.16, written by Peter Selinger 2001-2019
</metadata>
<g transform="translate(0.000000,31.000000) scale(0.100000,-0.100000)"
fill="#000000" stroke="none">
<path d="M70 260 l0 -50 -12 -1 -13 -1 -23 2 -23 2 3 -44 3 -43 43 -3 44 -3
-7 -50 -7 -49 62 0 63 0 -6 35 -6 35 10 6 10 6 7 -6 6 -7 1 -42 0 -42 29 -3
29 -4 44 13 44 12 -6 26 -6 26 -5 18 -5 17 30 0 30 0 15 16 16 15 0 29 0 29
-19 11 -20 10 -20 0 -21 0 0 45 0 45 -145 0 -145 0 0 -50z"/>
</g>
</svg>
