<?xml version="1.0" standalone="no"?>
<!DOCTYPE svg PUBLIC "-//W3C//DTD SVG 20010904//EN"
 "http://www.w3.org/TR/2001/REC-SVG-20010904/DTD/svg10.dtd">
<svg version="1.0" xmlns="http://www.w3.org/2000/svg"
 width="42.000000pt" height="29.000000pt" viewBox="0 0 42.000000 29.000000"
 preserveAspectRatio="xMidYMid meet">
<metadata>
Created by potrace 1.16, written by Peter Selinger 2001-2019
</metadata>
<g transform="translate(0.000000,29.000000) scale(0.100000,-0.100000)"
fill="#000000" stroke="none">
<path d="M70 241 l0 -50 -19 -6 -18 -5 -17 6 -17 7 3 -34 3 -34 44 -3 44 -3
-6 -50 -6 -49 50 0 50 0 -6 33 -7 33 17 14 16 13 12 -12 12 -12 0 -42 0 -42
19 -3 18 -4 43 12 43 12 -9 31 -9 32 0 12 0 13 29 0 30 0 15 16 16 15 0 19 0
19 -19 11 -20 10 -20 0 -21 0 0 45 0 45 -135 0 -135 0 0 -49z"/>
</g>
</svg>
