<?xml version="1.0" standalone="no"?>
<!DOCTYPE svg PUBLIC "-//W3C//DTD SVG 20010904//EN"
 "http://www.w3.org/TR/2001/REC-SVG-20010904/DTD/svg10.dtd">
<svg version="1.0" xmlns="http://www.w3.org/2000/svg"
 width="30.000000pt" height="30.000000pt" viewBox="0 0 30.000000 30.000000"
 preserveAspectRatio="xMidYMid meet">
<metadata>
Created by potrace 1.16, written by Peter Selinger 2001-2019
</metadata>
<g transform="translate(0.000000,30.000000) scale(0.100000,-0.100000)"
fill="#000000" stroke="none">
<path d="M200 268 l0 -33 -9 -13 -8 -14 -29 4 -28 3 -1 30 0 30 -53 3 -53 3 3
-48 3 -48 35 -5 35 -5 0 -30 0 -30 -42 -3 -43 -3 0 -23 0 -23 -6 -32 -6 -31
63 0 64 0 12 8 11 7 4 35 4 35 13 -31 12 -32 32 -5 32 -6 23 -7 22 -6 0 17 0
18 -12 38 -11 39 -14 0 -13 0 0 30 0 30 24 0 24 0 6 16 6 16 0 39 0 39 -26 10
-25 10 -25 0 -24 0 0 -32z"/>
</g>
</svg>
