<?xml version="1.0" standalone="no"?>
<!DOCTYPE svg PUBLIC "-//W3C//DTD SVG 20010904//EN"
 "http://www.w3.org/TR/2001/REC-SVG-20010904/DTD/svg10.dtd">
<svg version="1.0" xmlns="http://www.w3.org/2000/svg"
 width="28.000000pt" height="28.000000pt" viewBox="0 0 28.000000 28.000000"
 preserveAspectRatio="xMidYMid meet">
<metadata>
Created by potrace 1.16, written by Peter Selinger 2001-2019
</metadata>
<g transform="translate(0.000000,28.000000) scale(0.100000,-0.100000)"
fill="#000000" stroke="none">
<path d="M200 248 l0 -33 -8 -11 -7 -10 -18 -7 -17 -6 -25 9 -26 10 3 27 3 28
-43 3 -43 3 3 -38 3 -38 20 2 19 1 18 -9 18 -10 0 -34 0 -34 -18 -10 -17 -9
-29 5 -29 6 5 -37 4 -36 -8 0 -8 0 0 -10 0 -10 49 0 49 0 16 6 16 6 0 34 0 34
16 0 15 0 10 -28 9 -28 45 -10 45 -10 0 4 0 5 -11 38 -12 37 -13 -5 -14 -5 0
46 0 46 24 0 24 0 6 16 6 16 0 29 0 29 -26 10 -25 10 -15 0 -14 0 0 -32z"/>
</g>
</svg>
