<?xml version="1.0" standalone="no"?>
<!DOCTYPE svg PUBLIC "-//W3C//DTD SVG 20010904//EN"
 "http://www.w3.org/TR/2001/REC-SVG-20010904/DTD/svg10.dtd">
<svg version="1.0" xmlns="http://www.w3.org/2000/svg"
 width="29.000000pt" height="28.000000pt" viewBox="0 0 29.000000 28.000000"
 preserveAspectRatio="xMidYMid meet">
<metadata>
Created by potrace 1.16, written by Peter Selinger 2001-2019
</metadata>
<g transform="translate(0.000000,28.000000) scale(0.100000,-0.100000)"
fill="#000000" stroke="none">
<path d="M2 223 l3 -58 32 -3 33 -3 0 -20 0 -19 -19 0 -20 0 -6 -10 -6 -10 -6
-50 -6 -51 59 3 59 3 3 33 3 32 15 0 14 0 0 -25 0 -25 26 -10 25 -10 34 0 33
0 7 50 7 49 -7 11 -7 12 -21 -6 -20 -5 -19 10 -18 10 0 24 0 24 38 3 37 3 3
48 3 49 -33 -7 -33 -6 -27 -5 -28 -6 0 -29 0 -29 -13 0 -13 0 -12 12 -12 12 0
28 0 28 -55 0 -56 0 3 -57z"/>
</g>
</svg>
