<?xml version="1.0" standalone="no"?>
<!DOCTYPE svg PUBLIC "-//W3C//DTD SVG 20010904//EN"
 "http://www.w3.org/TR/2001/REC-SVG-20010904/DTD/svg10.dtd">
<svg version="1.0" xmlns="http://www.w3.org/2000/svg"
 width="26.000000pt" height="34.000000pt" viewBox="0 0 26.000000 34.000000"
 preserveAspectRatio="xMidYMid meet">
<metadata>
Created by potrace 1.16, written by Peter Selinger 2001-2019
</metadata>
<g transform="translate(0.000000,34.000000) scale(0.100000,-0.100000)"
fill="#000000" stroke="none">
<path d="M0 301 l0 -40 28 -3 27 -3 0 -40 0 -40 -27 2 -28 2 0 -50 0 -49 38 0
37 0 14 -9 14 -9 -6 -16 -6 -16 5 -15 6 -15 27 0 28 0 12 24 13 24 -7 22 -7
22 36 -4 36 -4 0 22 0 23 -10 26 -10 26 -10 -6 -10 -6 -11 24 -11 24 11 22 12
21 29 0 30 0 0 41 0 40 -47 -3 -48 -3 -1 -23 -1 -24 -16 -16 -16 -16 -26 12
-25 12 -6 30 -7 30 -33 0 -34 0 0 -39z"/>
</g>
</svg>
