<?xml version="1.0" standalone="no"?>
<!DOCTYPE svg PUBLIC "-//W3C//DTD SVG 20010904//EN"
 "http://www.w3.org/TR/2001/REC-SVG-20010904/DTD/svg10.dtd">
<svg version="1.0" xmlns="http://www.w3.org/2000/svg"
 width="28.000000pt" height="26.000000pt" viewBox="0 0 28.000000 26.000000"
 preserveAspectRatio="xMidYMid meet">
<metadata>
Created by potrace 1.16, written by Peter Selinger 2001-2019
</metadata>
<g transform="translate(0.000000,26.000000) scale(0.100000,-0.100000)"
fill="#000000" stroke="none">
<path d="M10 220 l0 -40 23 0 23 0 12 -12 12 -12 0 -27 0 -27 -15 -12 -15 -12
-25 6 -25 6 0 -25 0 -26 10 -20 11 -19 43 0 44 0 11 14 12 14 -7 27 -7 27 24
-4 23 -3 6 -25 6 -24 37 -9 38 -9 6 5 5 6 -7 40 -7 41 -29 0 -29 0 -6 27 -7
26 18 14 19 13 31 0 31 0 -4 38 -4 39 -26 -4 -27 -4 -23 -5 -22 -4 6 -24 6
-24 -22 -12 -21 -11 -15 12 -15 13 5 20 5 20 -11 13 -10 13 -44 0 -44 0 0 -40z"/>
</g>
</svg>
