<?xml version="1.0" standalone="no"?>
<!DOCTYPE svg PUBLIC "-//W3C//DTD SVG 20010904//EN"
 "http://www.w3.org/TR/2001/REC-SVG-20010904/DTD/svg10.dtd">
<svg version="1.0" xmlns="http://www.w3.org/2000/svg"
 width="30.000000pt" height="45.000000pt" viewBox="0 0 30.000000 45.000000"
 preserveAspectRatio="xMidYMid meet">
<metadata>
Created by potrace 1.16, written by Peter Selinger 2001-2019
</metadata>
<g transform="translate(0.000000,45.000000) scale(0.100000,-0.100000)"
fill="#000000" stroke="none">
<path d="M122 441 l-14 -8 2 -24 2 -24 -1 -12 -1 -13 -55 0 -56 0 3 -62 3 -63
40 -5 40 -5 0 -10 0 -10 -31 -3 -31 -3 -12 -54 -12 -55 6 -11 7 -10 42 3 41 3
5 -35 5 -35 48 -3 47 -3 9 24 10 25 40 7 41 7 0 20 0 20 -16 53 -15 54 -27 3
-27 3 0 10 0 10 40 5 40 5 3 58 3 57 -40 0 -39 0 -14 5 -14 6 4 29 4 30 -27
10 -26 10 -7 0 -7 0 -13 -9z"/>
</g>
</svg>
