<?xml version="1.0" standalone="no"?>
<!DOCTYPE svg PUBLIC "-//W3C//DTD SVG 20010904//EN"
 "http://www.w3.org/TR/2001/REC-SVG-20010904/DTD/svg10.dtd">
<svg version="1.0" xmlns="http://www.w3.org/2000/svg"
 width="38.000000pt" height="45.000000pt" viewBox="0 0 38.000000 45.000000"
 preserveAspectRatio="xMidYMid meet">
<metadata>
Created by potrace 1.16, written by Peter Selinger 2001-2019
</metadata>
<g transform="translate(0.000000,45.000000) scale(0.100000,-0.100000)"
fill="#000000" stroke="none">
<path d="M200 410 l0 -39 -57 -3 -58 -3 -3 -37 -3 -38 -28 0 -27 0 -12 -12
-12 -12 0 -38 0 -38 23 -9 22 -9 13 -47 12 -47 57 4 57 3 0 -34 1 -34 16 -10
16 -10 26 7 27 6 11 45 11 44 46 -6 45 -6 -6 33 -7 33 0 23 0 24 -25 6 -25 6
0 8 0 9 28 3 27 3 0 65 0 65 -50 5 -50 5 3 14 3 15 -6 23 -5 23 -35 0 -35 0 0
-40z"/>
</g>
</svg>
