<?xml version="1.0" standalone="no"?>
<!DOCTYPE svg PUBLIC "-//W3C//DTD SVG 20010904//EN"
 "http://www.w3.org/TR/2001/REC-SVG-20010904/DTD/svg10.dtd">
<svg version="1.0" xmlns="http://www.w3.org/2000/svg"
 width="34.000000pt" height="34.000000pt" viewBox="0 0 34.000000 34.000000"
 preserveAspectRatio="xMidYMid meet">
<metadata>
Created by potrace 1.16, written by Peter Selinger 2001-2019
</metadata>
<g transform="translate(0.000000,34.000000) scale(0.100000,-0.100000)"
fill="#000000" stroke="none">
<path d="M180 316 l0 -25 -16 -15 -15 -16 -8 0 -7 0 -19 14 -18 13 6 22 5 21
-54 0 -54 0 0 -43 0 -42 31 0 32 0 10 -16 10 -16 -7 -26 -6 -26 -13 5 -14 5
-11 -39 -12 -39 0 -12 0 -11 41 0 41 0 -6 -16 -6 -15 10 -20 11 -19 24 0 25 0
6 25 6 25 -6 15 -5 15 34 0 34 0 25 -10 26 -10 0 55 0 54 28 -2 27 -2 0 40 0
40 -27 3 -28 3 0 38 0 39 -22 6 -23 6 -27 0 -28 0 0 -24z"/>
</g>
</svg>
