<?xml version="1.0" standalone="no"?>
<!DOCTYPE svg PUBLIC "-//W3C//DTD SVG 20010904//EN"
 "http://www.w3.org/TR/2001/REC-SVG-20010904/DTD/svg10.dtd">
<svg version="1.0" xmlns="http://www.w3.org/2000/svg"
 width="31.000000pt" height="37.000000pt" viewBox="0 0 31.000000 37.000000"
 preserveAspectRatio="xMidYMid meet">
<metadata>
Created by potrace 1.16, written by Peter Selinger 2001-2019
</metadata>
<g transform="translate(0.000000,37.000000) scale(0.100000,-0.100000)"
fill="#000000" stroke="none">
<path d="M53 363 l-33 -4 0 -55 0 -54 35 0 35 0 0 -16 0 -17 -18 -13 -17 -12
-27 5 -28 6 0 -27 0 -27 14 -34 15 -35 40 0 40 0 3 -32 3 -33 28 -9 28 -10 17
10 17 11 3 33 3 33 47 -6 47 -5 -3 136 -4 137 -4 4 -3 4 -48 -13 -48 -13 -16
-20 -16 -19 -19 4 -19 4 2 37 2 37 -22 -2 -22 -1 -32 -4z"/>
</g>
</svg>
