<?xml version="1.0" standalone="no"?>
<!DOCTYPE svg PUBLIC "-//W3C//DTD SVG 20010904//EN"
 "http://www.w3.org/TR/2001/REC-SVG-20010904/DTD/svg10.dtd">
<svg version="1.0" xmlns="http://www.w3.org/2000/svg"
 width="29.000000pt" height="35.000000pt" viewBox="0 0 29.000000 35.000000"
 preserveAspectRatio="xMidYMid meet">
<metadata>
Created by potrace 1.16, written by Peter Selinger 2001-2019
</metadata>
<g transform="translate(0.000000,35.000000) scale(0.100000,-0.100000)"
fill="#000000" stroke="none">
<path d="M53 343 l-33 -4 0 -45 0 -44 35 0 35 0 0 -28 0 -29 -24 -12 -24 -13
-21 7 -21 6 0 -16 0 -16 14 -34 14 -34 44 -3 43 -3 -3 -28 -3 -27 25 -12 25
-11 16 13 15 13 -2 26 -3 26 48 3 47 3 0 125 0 124 -2 0 -3 0 -45 -14 -45 -14
2 -11 3 -11 -24 -6 -24 -6 -19 4 -18 3 0 38 0 37 -10 -2 -10 -1 -32 -4z"/>
</g>
</svg>
