<?xml version="1.0" standalone="no"?>
<!DOCTYPE svg PUBLIC "-//W3C//DTD SVG 20010904//EN"
 "http://www.w3.org/TR/2001/REC-SVG-20010904/DTD/svg10.dtd">
<svg version="1.0" xmlns="http://www.w3.org/2000/svg"
 width="36.000000pt" height="36.000000pt" viewBox="0 0 36.000000 36.000000"
 preserveAspectRatio="xMidYMid meet">
<metadata>
Created by potrace 1.16, written by Peter Selinger 2001-2019
</metadata>
<g transform="translate(0.000000,36.000000) scale(0.100000,-0.100000)"
fill="#000000" stroke="none">
<path d="M118 353 l-38 -4 0 -34 0 -33 -6 -16 -6 -16 -35 0 -34 0 3 -22 3 -23
14 3 13 3 13 -11 14 -11 6 -52 7 -52 39 3 39 4 16 -13 15 -12 -6 -29 -7 -28
17 -6 16 -7 25 11 24 12 0 29 0 29 53 6 52 7 -5 57 -5 57 -30 0 -30 0 0 20 0
20 30 5 30 5 3 47 3 48 -13 -5 -13 -4 -42 -11 -42 -11 5 -13 5 -14 -26 -6 -27
-7 -14 12 -14 11 0 29 0 29 -7 -2 -8 -1 -37 -4z"/>
</g>
</svg>
