<?xml version="1.0" standalone="no"?>
<!DOCTYPE svg PUBLIC "-//W3C//DTD SVG 20010904//EN"
 "http://www.w3.org/TR/2001/REC-SVG-20010904/DTD/svg10.dtd">
<svg version="1.0" xmlns="http://www.w3.org/2000/svg"
 width="27.000000pt" height="27.000000pt" viewBox="0 0 27.000000 27.000000"
 preserveAspectRatio="xMidYMid meet">
<metadata>
Created by potrace 1.16, written by Peter Selinger 2001-2019
</metadata>
<g transform="translate(0.000000,27.000000) scale(0.100000,-0.100000)"
fill="#000000" stroke="none">
<path d="M22 263 l-23 -5 3 -36 3 -37 26 3 26 2 12 -14 12 -15 -3 -33 -3 -33
-28 0 -28 1 -4 -21 -4 -20 -3 -25 -3 -25 45 0 45 0 -2 37 -2 37 19 6 20 6 10
-6 10 -6 0 -18 0 -19 13 -10 12 -10 44 -7 44 -7 -8 18 -7 19 -6 20 -5 20 -10
13 -10 13 -14 -5 -13 -5 0 28 0 28 25 -5 25 -4 15 12 15 12 0 44 0 44 -24 0
-24 0 -30 -6 -31 -6 -3 -27 -3 -26 -23 -3 -23 -4 -15 13 -16 13 4 28 5 28 -21
-1 -21 -2 -23 -4z"/>
</g>
</svg>
