<?xml version="1.0" standalone="no"?>
<!DOCTYPE svg PUBLIC "-//W3C//DTD SVG 20010904//EN"
 "http://www.w3.org/TR/2001/REC-SVG-20010904/DTD/svg10.dtd">
<svg version="1.0" xmlns="http://www.w3.org/2000/svg"
 width="30.000000pt" height="36.000000pt" viewBox="0 0 30.000000 36.000000"
 preserveAspectRatio="xMidYMid meet">
<metadata>
Created by potrace 1.16, written by Peter Selinger 2001-2019
</metadata>
<g transform="translate(0.000000,36.000000) scale(0.100000,-0.100000)"
fill="#000000" stroke="none">
<path d="M4 336 l6 -21 0 -32 0 -33 35 0 34 0 12 -22 12 -21 -19 -14 -18 -13
-33 0 -33 0 2 -60 2 -61 28 6 28 6 19 -6 20 -6 3 -27 3 -27 24 -3 24 -4 33 7
34 6 0 14 0 14 40 11 41 11 -7 52 -6 52 -4 13 -4 13 -17 -2 -18 -2 -17 8 -18
7 0 19 0 18 19 11 20 10 25 0 26 0 0 23 0 22 -6 23 -7 23 -31 -6 -31 -6 -28
-6 -29 -5 5 -20 5 -19 -15 -6 -16 -6 -12 16 -12 17 5 25 4 25 -67 -2 -66 -2 5
-20z"/>
</g>
</svg>
