<?xml version="1.0" standalone="no"?>
<!DOCTYPE svg PUBLIC "-//W3C//DTD SVG 20010904//EN"
 "http://www.w3.org/TR/2001/REC-SVG-20010904/DTD/svg10.dtd">
<svg version="1.0" xmlns="http://www.w3.org/2000/svg"
 width="28.000000pt" height="34.000000pt" viewBox="0 0 28.000000 34.000000"
 preserveAspectRatio="xMidYMid meet">
<metadata>
Created by potrace 1.16, written by Peter Selinger 2001-2019
</metadata>
<g transform="translate(0.000000,34.000000) scale(0.100000,-0.100000)"
fill="#000000" stroke="none">
<path d="M33 333 l-23 -4 0 -39 0 -39 37 -3 38 -3 10 -28 10 -29 -20 -14 -19
-14 -33 0 -33 0 0 -14 0 -13 6 -32 7 -31 29 0 29 0 20 -11 20 -10 -6 -20 -6
-19 15 -6 16 -6 36 7 36 6 -5 14 -6 13 44 11 43 11 -5 42 -5 43 -3 12 -4 11
-18 -4 -18 -5 -23 21 -22 21 0 9 0 10 20 20 20 20 30 0 30 0 0 13 0 12 -6 21
-6 21 -41 -8 -42 -8 -6 -1 -6 0 1 -22 1 -23 -27 -3 -27 -3 -11 21 -11 21 6 19
6 20 -28 -1 -28 -2 -22 -4z"/>
</g>
</svg>
