<?xml version="1.0" standalone="no"?>
<!DOCTYPE svg PUBLIC "-//W3C//DTD SVG 20010904//EN"
 "http://www.w3.org/TR/2001/REC-SVG-20010904/DTD/svg10.dtd">
<svg version="1.0" xmlns="http://www.w3.org/2000/svg"
 width="37.000000pt" height="32.000000pt" viewBox="0 0 37.000000 32.000000"
 preserveAspectRatio="xMidYMid meet">
<metadata>
Created by potrace 1.16, written by Peter Selinger 2001-2019
</metadata>
<g transform="translate(0.000000,32.000000) scale(0.100000,-0.100000)"
fill="#000000" stroke="none">
<path d="M101 313 l-33 -4 6 -40 6 -39 -30 0 -29 0 -11 -19 -10 -20 0 -20 0
-20 19 -11 20 -10 21 0 22 0 -4 -47 -3 -48 65 0 65 0 3 38 3 38 12 -4 12 -4 3
-47 3 -47 14 -6 15 -5 51 12 51 12 -6 22 -6 21 0 123 0 122 -61 0 -61 0 2 -27
2 -28 -1 -11 -1 -12 -15 -6 -14 -5 -16 15 -16 16 7 34 6 34 -28 -2 -29 -1 -34
-4z"/>
</g>
</svg>
