<?xml version="1.0" standalone="no"?>
<!DOCTYPE svg PUBLIC "-//W3C//DTD SVG 20010904//EN"
 "http://www.w3.org/TR/2001/REC-SVG-20010904/DTD/svg10.dtd">
<svg version="1.0" xmlns="http://www.w3.org/2000/svg"
 width="35.000000pt" height="30.000000pt" viewBox="0 0 35.000000 30.000000"
 preserveAspectRatio="xMidYMid meet">
<metadata>
Created by potrace 1.16, written by Peter Selinger 2001-2019
</metadata>
<g transform="translate(0.000000,30.000000) scale(0.100000,-0.100000)"
fill="#000000" stroke="none">
<path d="M108 290 l-27 -8 -6 6 -6 6 7 -42 7 -42 -32 0 -31 0 -12 -26 -12 -26
19 -15 20 -14 23 6 24 6 -3 -53 -3 -53 54 0 55 0 3 35 3 35 9 9 9 9 16 -13 15
-12 0 -44 0 -43 9 -6 10 -6 43 11 43 11 -3 135 -3 134 -50 0 -51 0 7 -29 6
-29 -16 -16 -16 -16 -14 0 -14 0 -16 17 -17 16 5 34 6 33 -17 -1 -17 -1 -27
-8z"/>
</g>
</svg>
