<?xml version="1.0" standalone="no"?>
<!DOCTYPE svg PUBLIC "-//W3C//DTD SVG 20010904//EN"
 "http://www.w3.org/TR/2001/REC-SVG-20010904/DTD/svg10.dtd">
<svg version="1.0" xmlns="http://www.w3.org/2000/svg"
 width="35.000000pt" height="37.000000pt" viewBox="0 0 35.000000 37.000000"
 preserveAspectRatio="xMidYMid meet">
<metadata>
Created by potrace 1.16, written by Peter Selinger 2001-2019
</metadata>
<g transform="translate(0.000000,37.000000) scale(0.100000,-0.100000)"
fill="#000000" stroke="none">
<path d="M0 320 l0 -52 28 7 28 6 18 -20 18 -20 -7 -10 -6 -11 -24 0 -24 0 -4
-7 -5 -8 -7 -57 -7 -58 36 0 36 0 0 -35 0 -35 26 -10 25 -10 14 0 14 0 15 16
16 15 0 25 0 24 40 0 40 0 10 26 10 25 0 34 0 34 28 3 27 3 0 30 0 30 -25 -1
-25 -1 -7 11 -8 11 0 43 0 43 -47 -3 -48 -3 -5 -30 -5 -30 -30 0 -30 0 0 30 0
30 -57 3 -58 3 0 -51z"/>
</g>
</svg>
