<?xml version="1.0" standalone="no"?>
<!DOCTYPE svg PUBLIC "-//W3C//DTD SVG 20010904//EN"
 "http://www.w3.org/TR/2001/REC-SVG-20010904/DTD/svg10.dtd">
<svg version="1.0" xmlns="http://www.w3.org/2000/svg"
 width="33.000000pt" height="35.000000pt" viewBox="0 0 33.000000 35.000000"
 preserveAspectRatio="xMidYMid meet">
<metadata>
Created by potrace 1.16, written by Peter Selinger 2001-2019
</metadata>
<g transform="translate(0.000000,35.000000) scale(0.100000,-0.100000)"
fill="#000000" stroke="none">
<path d="M0 312 l0 -39 25 5 26 4 19 -17 20 -18 0 -17 0 -18 -14 -11 -13 -11
-16 6 -15 5 -5 -8 -4 -8 -7 -48 -7 -47 38 0 39 0 -4 -35 -4 -35 26 -10 26 -9
15 5 14 6 6 18 6 18 -3 13 -3 14 40 3 40 3 8 9 9 8 7 53 6 54 25 0 25 0 0 20
0 20 -24 -3 -24 -4 -8 14 -9 13 0 43 0 43 -37 -3 -38 -3 -5 -30 -5 -30 -40 0
-40 0 0 30 -1 30 -47 3 -47 3 0 -39z"/>
</g>
</svg>
