<?xml version="1.0" standalone="no"?>
<!DOCTYPE svg PUBLIC "-//W3C//DTD SVG 20010904//EN"
 "http://www.w3.org/TR/2001/REC-SVG-20010904/DTD/svg10.dtd">
<svg version="1.0" xmlns="http://www.w3.org/2000/svg"
 width="28.000000pt" height="35.000000pt" viewBox="0 0 28.000000 35.000000"
 preserveAspectRatio="xMidYMid meet">
<metadata>
Created by potrace 1.16, written by Peter Selinger 2001-2019
</metadata>
<g transform="translate(0.000000,35.000000) scale(0.100000,-0.100000)"
fill="#000000" stroke="none">
<path d="M168 322 l4 -29 -16 -16 -17 -16 -22 8 -22 8 0 29 0 29 -47 3 -48 3
0 -130 0 -131 44 0 44 0 10 -13 11 -13 -5 -21 -6 -21 22 -7 21 -7 15 13 16 13
-5 22 -4 23 43 7 44 6 12 -5 13 -4 2 53 2 54 -24 0 -23 0 -16 6 -16 6 0 29 0
29 25 0 24 0 11 19 10 20 0 24 0 25 -16 6 -16 6 -37 0 -38 0 5 -28z"/>
</g>
</svg>
