<?xml version="1.0" standalone="no"?>
<!DOCTYPE svg PUBLIC "-//W3C//DTD SVG 20010904//EN"
 "http://www.w3.org/TR/2001/REC-SVG-20010904/DTD/svg10.dtd">
<svg version="1.0" xmlns="http://www.w3.org/2000/svg"
 width="30.000000pt" height="37.000000pt" viewBox="0 0 30.000000 37.000000"
 preserveAspectRatio="xMidYMid meet">
<metadata>
Created by potrace 1.16, written by Peter Selinger 2001-2019
</metadata>
<g transform="translate(0.000000,37.000000) scale(0.100000,-0.100000)"
fill="#000000" stroke="none">
<path d="M164 343 l6 -28 -9 -13 -8 -14 -19 4 -18 3 -1 30 0 30 -58 3 -57 3 0
-140 0 -140 48 -3 47 -3 3 -32 3 -33 26 -6 26 -7 16 10 16 10 3 26 3 25 26 7
26 6 27 -6 27 -6 1 66 1 65 -24 0 -23 0 -16 6 -16 6 0 19 0 19 25 0 24 0 11
19 10 20 0 34 0 35 -16 6 -16 6 -50 0 -50 0 6 -27z"/>
</g>
</svg>
