<?xml version="1.0" standalone="no"?>
<!DOCTYPE svg PUBLIC "-//W3C//DTD SVG 20010904//EN"
 "http://www.w3.org/TR/2001/REC-SVG-20010904/DTD/svg10.dtd">
<svg version="1.0" xmlns="http://www.w3.org/2000/svg"
 width="46.000000pt" height="30.000000pt" viewBox="0 0 46.000000 30.000000"
 preserveAspectRatio="xMidYMid meet">
<metadata>
Created by potrace 1.16, written by Peter Selinger 2001-2019
</metadata>
<g transform="translate(0.000000,30.000000) scale(0.100000,-0.100000)"
fill="#000000" stroke="none">
<path d="M118 293 l-28 -4 0 -39 0 -38 -6 -16 -6 -16 -33 0 -34 0 -6 -10 -6
-10 6 -19 6 -20 22 -3 22 -3 14 -57 15 -56 55 5 56 6 13 10 12 9 0 25 0 24 10
-6 10 -6 0 -18 0 -18 57 -12 56 -11 10 0 10 0 -5 45 -6 45 35 0 34 0 15 14 14
15 0 28 0 29 -12 12 -12 12 -28 0 -28 0 0 33 0 32 -8 11 -7 11 -63 -5 -64 -5
6 -22 6 -23 -16 -6 -16 -6 -9 6 -9 5 0 30 0 29 -27 -1 -28 -2 -27 -4z"/>
</g>
</svg>
