<?xml version="1.0" standalone="no"?>
<!DOCTYPE svg PUBLIC "-//W3C//DTD SVG 20010904//EN"
 "http://www.w3.org/TR/2001/REC-SVG-20010904/DTD/svg10.dtd">
<svg version="1.0" xmlns="http://www.w3.org/2000/svg"
 width="37.000000pt" height="29.000000pt" viewBox="0 0 37.000000 29.000000"
 preserveAspectRatio="xMidYMid meet">
<metadata>
Created by potrace 1.16, written by Peter Selinger 2001-2019
</metadata>
<g transform="translate(0.000000,29.000000) scale(0.100000,-0.100000)"
fill="#000000" stroke="none">
<path d="M88 240 l-3 -45 -31 3 -31 3 -12 -15 -12 -15 3 -28 3 -28 23 0 24 0
9 -17 9 -16 2 -26 2 -26 31 -5 30 -6 40 -2 40 -2 -3 32 -3 31 10 6 9 6 16 -15
15 -16 -6 -31 -6 -31 52 5 52 5 9 9 8 9 -12 50 -13 50 -21 3 -20 3 -6 15 -5
14 5 14 5 14 20 -5 19 -5 15 12 15 12 0 34 0 34 -12 0 -13 0 -36 -10 -37 -10
2 -18 1 -17 -40 0 -40 0 -5 35 -5 35 -47 0 -47 0 -3 -45z"/>
</g>
</svg>
