<?xml version="1.0" standalone="no"?>
<!DOCTYPE svg PUBLIC "-//W3C//DTD SVG 20010904//EN"
 "http://www.w3.org/TR/2001/REC-SVG-20010904/DTD/svg10.dtd">
<svg version="1.0" xmlns="http://www.w3.org/2000/svg"
 width="36.000000pt" height="30.000000pt" viewBox="0 0 36.000000 30.000000"
 preserveAspectRatio="xMidYMid meet">
<metadata>
Created by potrace 1.16, written by Peter Selinger 2001-2019
</metadata>
<g transform="translate(0.000000,30.000000) scale(0.100000,-0.100000)"
fill="#000000" stroke="none">
<path d="M254 270 l6 -31 -15 -5 -15 -6 -25 6 -25 6 6 25 6 25 -56 0 -56 0 0
-39 0 -39 -13 -10 -13 -11 -21 5 -21 6 -7 -21 -6 -21 6 -19 6 -20 22 -3 22 -3
9 -57 9 -56 56 5 56 6 13 10 12 9 0 26 0 26 9 -9 9 -10 4 -25 3 -25 60 0 60 0
3 39 3 39 -6 25 -6 24 -19 -5 -19 -5 -18 13 -17 13 13 16 13 16 29 0 29 0 0
55 0 55 -56 0 -56 0 6 -30z"/>
</g>
</svg>
