<?xml version="1.0" standalone="no"?>
<!DOCTYPE svg PUBLIC "-//W3C//DTD SVG 20010904//EN"
 "http://www.w3.org/TR/2001/REC-SVG-20010904/DTD/svg10.dtd">
<svg version="1.0" xmlns="http://www.w3.org/2000/svg"
 width="33.000000pt" height="35.000000pt" viewBox="0 0 33.000000 35.000000"
 preserveAspectRatio="xMidYMid meet">
<metadata>
Created by potrace 1.16, written by Peter Selinger 2001-2019
</metadata>
<g transform="translate(0.000000,35.000000) scale(0.100000,-0.100000)"
fill="#000000" stroke="none">
<path d="M178 322 l4 -27 -20 -19 -21 -18 -18 4 -18 3 -3 33 -3 32 -50 0 -49
0 0 -27 0 -28 8 -12 7 -11 30 -4 30 -3 3 -32 3 -31 -19 -6 -20 -7 -13 3 -14 3
-3 -52 -3 -53 40 0 41 0 0 -23 0 -23 12 -12 12 -12 27 0 28 0 3 22 3 22 42 9
42 8 3 57 3 57 22 0 23 1 11 11 12 12 -7 16 -6 17 -16 -6 -17 -6 -13 17 -13
18 -1 41 0 42 -22 6 -23 6 -21 0 -21 0 5 -28z"/>
</g>
</svg>
