<?xml version="1.0" standalone="no"?>
<!DOCTYPE svg PUBLIC "-//W3C//DTD SVG 20010904//EN"
 "http://www.w3.org/TR/2001/REC-SVG-20010904/DTD/svg10.dtd">
<svg version="1.0" xmlns="http://www.w3.org/2000/svg"
 width="32.000000pt" height="37.000000pt" viewBox="0 0 32.000000 37.000000"
 preserveAspectRatio="xMidYMid meet">
<metadata>
Created by potrace 1.16, written by Peter Selinger 2001-2019
</metadata>
<g transform="translate(0.000000,37.000000) scale(0.100000,-0.100000)"
fill="#000000" stroke="none">
<path d="M128 338 l-3 -33 -57 -3 -56 -3 -7 -40 -7 -40 12 -30 13 -30 29 3 30
3 -1 -7 -1 -8 0 -10 0 -10 -24 6 -24 6 -11 -20 -11 -21 0 -50 0 -51 42 6 43 5
23 5 22 4 0 29 0 28 7 6 6 7 13 -10 12 -11 -5 -20 -6 -21 14 -9 14 -9 63 0 63
0 -3 63 -3 62 -34 5 -34 5 -5 13 -4 12 20 0 20 0 16 6 16 6 0 54 0 55 -12 3
-13 4 -40 8 -40 9 0 25 0 25 -37 3 -37 3 -3 -33z"/>
</g>
</svg>
