<?xml version="1.0" standalone="no"?>
<!DOCTYPE svg PUBLIC "-//W3C//DTD SVG 20010904//EN"
 "http://www.w3.org/TR/2001/REC-SVG-20010904/DTD/svg10.dtd">
<svg version="1.0" xmlns="http://www.w3.org/2000/svg"
 width="30.000000pt" height="35.000000pt" viewBox="0 0 30.000000 35.000000"
 preserveAspectRatio="xMidYMid meet">
<metadata>
Created by potrace 1.16, written by Peter Selinger 2001-2019
</metadata>
<g transform="translate(0.000000,35.000000) scale(0.100000,-0.100000)"
fill="#000000" stroke="none">
<path d="M128 318 l-3 -33 -56 -3 -57 -3 -6 -33 -7 -34 13 -26 12 -27 27 6 27
6 7 -11 6 -10 -6 -21 -7 -21 -24 5 -25 4 -9 -18 -10 -18 0 -39 0 -39 33 4 32
4 24 5 23 5 -4 29 -5 30 19 6 19 6 15 -13 15 -13 -5 -22 -6 -22 16 -6 16 -6
47 0 47 0 -1 53 0 52 -20 -2 -19 -1 -18 9 -18 10 0 25 0 25 11 -6 10 -7 25 6
24 6 0 46 0 45 -12 3 -13 4 -40 8 -40 9 0 25 0 25 -27 3 -27 3 -3 -33z"/>
</g>
</svg>
