<?xml version="1.0" standalone="no"?>
<!DOCTYPE svg PUBLIC "-//W3C//DTD SVG 20010904//EN"
 "http://www.w3.org/TR/2001/REC-SVG-20010904/DTD/svg10.dtd">
<svg version="1.0" xmlns="http://www.w3.org/2000/svg"
 width="38.000000pt" height="37.000000pt" viewBox="0 0 38.000000 37.000000"
 preserveAspectRatio="xMidYMid meet">
<metadata>
Created by potrace 1.16, written by Peter Selinger 2001-2019
</metadata>
<g transform="translate(0.000000,37.000000) scale(0.100000,-0.100000)"
fill="#000000" stroke="none">
<path d="M208 338 l-3 -33 -60 -5 -60 -5 -5 -40 -5 -39 -35 -1 -35 0 0 -55 0
-55 20 -4 20 -3 7 -12 8 -11 0 -23 0 -23 14 -14 13 -14 54 8 55 7 12 8 12 7 0
29 0 29 15 -5 15 -6 0 -34 0 -34 60 0 60 0 0 23 0 22 -11 38 -10 38 -25 9 -24
10 0 10 0 10 30 0 29 0 11 19 10 20 0 41 0 42 -36 -6 -35 -7 -15 -6 -14 -5 0
32 0 31 -10 20 -11 19 -24 0 -24 0 -3 -32z"/>
</g>
</svg>
