<?xml version="1.0" standalone="no"?>
<!DOCTYPE svg PUBLIC "-//W3C//DTD SVG 20010904//EN"
 "http://www.w3.org/TR/2001/REC-SVG-20010904/DTD/svg10.dtd">
<svg version="1.0" xmlns="http://www.w3.org/2000/svg"
 width="36.000000pt" height="35.000000pt" viewBox="0 0 36.000000 35.000000"
 preserveAspectRatio="xMidYMid meet">
<metadata>
Created by potrace 1.16, written by Peter Selinger 2001-2019
</metadata>
<g transform="translate(0.000000,35.000000) scale(0.100000,-0.100000)"
fill="#000000" stroke="none">
<path d="M208 318 l-3 -33 -60 -5 -60 -5 -5 -40 -5 -40 -35 0 -35 0 0 -45 0
-45 22 2 22 3 7 -33 8 -32 1 -10 0 -10 9 -10 9 -11 46 6 46 6 13 7 12 8 0 30
0 29 14 0 15 0 15 -16 16 -15 -6 -25 -6 -24 51 0 51 0 0 13 0 12 -11 38 -10
38 -25 9 -24 10 0 20 0 20 30 0 29 0 11 19 10 20 0 31 0 30 -27 -7 -28 -7 -25
-1 -25 0 3 27 3 28 -11 20 -11 20 -14 0 -14 0 -3 -32z"/>
</g>
</svg>
