<?xml version="1.0" standalone="no"?>
<!DOCTYPE svg PUBLIC "-//W3C//DTD SVG 20010904//EN"
 "http://www.w3.org/TR/2001/REC-SVG-20010904/DTD/svg10.dtd">
<svg version="1.0" xmlns="http://www.w3.org/2000/svg"
 width="35.000000pt" height="35.000000pt" viewBox="0 0 35.000000 35.000000"
 preserveAspectRatio="xMidYMid meet">
<metadata>
Created by potrace 1.16, written by Peter Selinger 2001-2019
</metadata>
<g transform="translate(0.000000,35.000000) scale(0.100000,-0.100000)"
fill="#000000" stroke="none">
<path d="M125 338 l-4 -13 -3 -20 -3 -20 -53 -3 -53 -3 3 -42 3 -41 30 -1 30
0 3 -33 3 -33 -12 -15 -12 -14 -16 2 -16 3 -3 -30 -4 -30 -9 -10 -9 -9 0 -11
0 -11 43 4 42 4 13 11 13 11 -6 23 -6 24 28 -3 28 -3 3 -32 3 -31 60 -4 60 -3
-6 58 -7 57 36 0 37 0 5 15 6 15 -12 15 -12 15 -24 0 -24 0 0 45 0 46 -52 -3
-53 -3 -3 30 -4 30 -10 13 -10 12 -10 0 -9 0 -4 -12z"/>
</g>
</svg>
