<?xml version="1.0" standalone="no"?>
<!DOCTYPE svg PUBLIC "-//W3C//DTD SVG 20010904//EN"
 "http://www.w3.org/TR/2001/REC-SVG-20010904/DTD/svg10.dtd">
<svg version="1.0" xmlns="http://www.w3.org/2000/svg"
 width="29.000000pt" height="41.000000pt" viewBox="0 0 29.000000 41.000000"
 preserveAspectRatio="xMidYMid meet">
<metadata>
Created by potrace 1.16, written by Peter Selinger 2001-2019
</metadata>
<g transform="translate(0.000000,41.000000) scale(0.100000,-0.100000)"
fill="#000000" stroke="none">
<path d="M129 403 l-1 -8 1 -22 2 -21 -8 -5 -9 -6 -57 -2 -57 -2 0 -36 0 -36
9 -14 9 -14 31 5 31 5 6 -20 6 -19 -12 -12 -11 -11 -27 0 -27 0 -5 -53 -6 -53
6 -7 5 -7 45 0 45 0 0 -30 0 -30 38 -3 37 -3 0 30 0 30 38 6 37 6 15 2 15 2 0
55 0 55 -25 0 -25 0 -12 8 -13 8 0 15 0 14 30 0 29 0 11 19 10 20 0 34 0 35
-42 7 -43 6 -18 6 -18 5 3 21 3 22 -22 3 -23 3 -1 -8z"/>
</g>
</svg>
