<?xml version="1.0" standalone="no"?>
<!DOCTYPE svg PUBLIC "-//W3C//DTD SVG 20010904//EN"
 "http://www.w3.org/TR/2001/REC-SVG-20010904/DTD/svg10.dtd">
<svg version="1.0" xmlns="http://www.w3.org/2000/svg"
 width="31.000000pt" height="43.000000pt" viewBox="0 0 31.000000 43.000000"
 preserveAspectRatio="xMidYMid meet">
<metadata>
Created by potrace 1.16, written by Peter Selinger 2001-2019
</metadata>
<g transform="translate(0.000000,43.000000) scale(0.100000,-0.100000)"
fill="#000000" stroke="none">
<path d="M125 418 l-4 -13 2 -20 2 -20 -62 -3 -63 -3 0 -47 0 -47 8 -12 7 -11
35 -4 35 -3 0 -10 0 -10 -35 -5 -35 -5 -6 -60 -7 -59 5 -13 5 -12 43 6 44 6 3
-34 3 -34 48 -3 47 -3 0 30 0 30 38 6 37 6 15 2 15 2 0 65 0 65 -30 3 -30 4
-9 9 -10 9 32 0 31 0 11 19 10 20 0 44 0 45 -42 7 -43 6 -16 5 -16 4 1 23 1
22 -33 3 -32 3 -5 -13z"/>
</g>
</svg>
