<?xml version="1.0" standalone="no"?>
<!DOCTYPE svg PUBLIC "-//W3C//DTD SVG 20010904//EN"
 "http://www.w3.org/TR/2001/REC-SVG-20010904/DTD/svg10.dtd">
<svg version="1.0" xmlns="http://www.w3.org/2000/svg"
 width="38.000000pt" height="38.000000pt" viewBox="0 0 38.000000 38.000000"
 preserveAspectRatio="xMidYMid meet">
<metadata>
Created by potrace 1.16, written by Peter Selinger 2001-2019
</metadata>
<g transform="translate(0.000000,38.000000) scale(0.100000,-0.100000)"
fill="#000000" stroke="none">
<path d="M105 368 l-6 -14 3 -24 3 -25 -53 3 -53 4 3 -54 3 -53 33 -10 32 -9
0 -8 0 -8 -11 0 -10 0 -13 -13 -12 -12 -12 -47 -12 -47 0 -16 0 -16 73 3 72 3
2 25 1 25 1 10 1 10 10 -15 9 -15 -5 -21 -5 -20 16 -14 16 -13 47 9 47 9 -1
25 0 25 -8 33 -8 32 31 0 30 0 26 12 25 11 0 17 0 18 -14 12 -15 11 -18 -3
-18 -3 -12 8 -13 8 0 40 0 39 -55 0 -54 0 2 38 2 37 -38 3 -37 3 -5 -13z"/>
</g>
</svg>
