<?xml version="1.0" standalone="no"?>
<!DOCTYPE svg PUBLIC "-//W3C//DTD SVG 20010904//EN"
 "http://www.w3.org/TR/2001/REC-SVG-20010904/DTD/svg10.dtd">
<svg version="1.0" xmlns="http://www.w3.org/2000/svg"
 width="29.000000pt" height="41.000000pt" viewBox="0 0 29.000000 41.000000"
 preserveAspectRatio="xMidYMid meet">
<metadata>
Created by potrace 1.16, written by Peter Selinger 2001-2019
</metadata>
<g transform="translate(0.000000,41.000000) scale(0.100000,-0.100000)"
fill="#000000" stroke="none">
<path d="M125 382 l6 -30 -12 -8 -12 -7 -49 1 -48 1 0 -37 0 -37 9 -14 9 -14
10 7 10 6 16 -6 16 -6 0 -29 0 -28 -19 -11 -20 -10 -20 0 -21 0 0 -14 0 -14 6
-30 6 -31 52 -3 51 -3 0 -30 0 -30 35 0 35 0 3 22 3 22 34 7 34 6 10 12 11 13
-18 54 -17 54 -18 -1 -17 -2 0 27 0 28 30 -5 30 -4 10 28 11 27 -3 16 -4 16
-19 -2 -20 -3 -37 -6 -37 -6 -3 48 -3 49 -23 3 -24 4 7 -30z"/>
</g>
</svg>
