<?xml version="1.0" standalone="no"?>
<!DOCTYPE svg PUBLIC "-//W3C//DTD SVG 20010904//EN"
 "http://www.w3.org/TR/2001/REC-SVG-20010904/DTD/svg10.dtd">
<svg version="1.0" xmlns="http://www.w3.org/2000/svg"
 width="28.000000pt" height="36.000000pt" viewBox="0 0 28.000000 36.000000"
 preserveAspectRatio="xMidYMid meet">
<metadata>
Created by potrace 1.16, written by Peter Selinger 2001-2019
</metadata>
<g transform="translate(0.000000,36.000000) scale(0.100000,-0.100000)"
fill="#000000" stroke="none">
<path d="M123 349 l-12 -12 6 -28 6 -29 -24 -2 -24 -1 -35 -1 -35 -1 0 -50 0
-50 30 0 30 -1 0 -29 0 -30 -25 0 -24 0 -8 -40 -9 -39 5 -13 5 -13 38 0 38 0
14 9 13 9 -7 31 -7 32 34 -3 33 -3 -2 -37 -2 -38 22 -4 22 -5 38 2 38 2 -5 20
-5 20 -10 40 -10 40 -20 13 -20 14 6 14 5 14 19 0 18 0 11 20 11 21 -3 27 -3
27 -30 3 -30 2 -32 6 -33 5 3 31 2 31 -10 4 -11 3 -11 -11z"/>
</g>
</svg>
