<?xml version="1.0" standalone="no"?>
<!DOCTYPE svg PUBLIC "-//W3C//DTD SVG 20010904//EN"
 "http://www.w3.org/TR/2001/REC-SVG-20010904/DTD/svg10.dtd">
<svg version="1.0" xmlns="http://www.w3.org/2000/svg"
 width="30.000000pt" height="38.000000pt" viewBox="0 0 30.000000 38.000000"
 preserveAspectRatio="xMidYMid meet">
<metadata>
Created by potrace 1.16, written by Peter Selinger 2001-2019
</metadata>
<g transform="translate(0.000000,38.000000) scale(0.100000,-0.100000)"
fill="#000000" stroke="none">
<path d="M121 366 l-13 -16 6 -25 6 -25 -22 -1 -23 -1 -35 -1 -35 -2 0 -60 0
-60 33 -3 32 -3 0 -14 0 -14 -27 -3 -28 -3 -9 -47 -8 -48 6 -15 5 -15 48 0 48
0 14 9 14 9 -5 31 -5 32 21 -3 21 -3 -3 -37 -3 -36 18 -6 18 -5 53 1 54 1 -5
31 -5 31 -11 40 -10 39 -15 12 -16 11 0 7 0 6 20 0 19 0 11 20 11 21 -3 37 -3
37 -30 3 -30 2 -30 5 -30 5 0 33 0 32 -21 3 -21 3 -12 -15z"/>
</g>
</svg>
