<?xml version="1.0" standalone="no"?>
<!DOCTYPE svg PUBLIC "-//W3C//DTD SVG 20010904//EN"
 "http://www.w3.org/TR/2001/REC-SVG-20010904/DTD/svg10.dtd">
<svg version="1.0" xmlns="http://www.w3.org/2000/svg"
 width="45.000000pt" height="45.000000pt" viewBox="0 0 45.000000 45.000000"
 preserveAspectRatio="xMidYMid meet">
<metadata>
Created by potrace 1.16, written by Peter Selinger 2001-2019
</metadata>
<g transform="translate(0.000000,45.000000) scale(0.100000,-0.100000)"
fill="#000000" stroke="none">
<path d="M217 444 l-7 -7 0 -23 0 -23 -12 -8 -13 -7 -45 -6 -45 -5 -3 -37 -3
-37 -37 -3 -37 -3 -9 -27 -10 -28 10 -27 9 -28 27 -3 27 -3 7 -46 7 -45 48 4
49 5 0 -27 0 -27 18 -16 19 -17 26 0 26 0 15 16 16 15 0 25 0 24 45 0 45 0 0
18 0 17 -9 33 -10 32 29 0 29 0 11 19 10 20 0 31 0 31 -27 -3 -28 -3 -3 48 -3
47 -54 -6 -54 -7 -3 44 -3 44 -25 3 -26 3 -7 -7z"/>
</g>
</svg>
