<?xml version="1.0" standalone="no"?>
<!DOCTYPE svg PUBLIC "-//W3C//DTD SVG 20010904//EN"
 "http://www.w3.org/TR/2001/REC-SVG-20010904/DTD/svg10.dtd">
<svg version="1.0" xmlns="http://www.w3.org/2000/svg"
 width="38.000000pt" height="45.000000pt" viewBox="0 0 38.000000 45.000000"
 preserveAspectRatio="xMidYMid meet">
<metadata>
Created by potrace 1.16, written by Peter Selinger 2001-2019
</metadata>
<g transform="translate(0.000000,45.000000) scale(0.100000,-0.100000)"
fill="#000000" stroke="none">
<path d="M130 411 l0 -40 -20 -6 -19 -6 -36 7 -36 6 3 -58 3 -59 28 -3 27 -3
0 -7 0 -7 -10 -15 -9 -15 -28 0 -28 0 2 -35 2 -35 1 -32 2 -32 48 6 49 6 3
-39 3 -39 18 -3 19 -4 22 6 23 6 11 25 12 26 0 19 0 20 10 0 9 0 26 -12 25
-11 15 19 14 19 1 28 0 27 19 0 19 0 11 14 12 15 -3 43 -3 43 -32 3 -33 3 0
41 0 40 -22 -6 -23 -7 -37 -6 -38 -6 0 36 0 35 -6 16 -6 16 -24 0 -24 0 0 -39z"/>
</g>
</svg>
