<?xml version="1.0" standalone="no"?>
<!DOCTYPE svg PUBLIC "-//W3C//DTD SVG 20010904//EN"
 "http://www.w3.org/TR/2001/REC-SVG-20010904/DTD/svg10.dtd">
<svg version="1.0" xmlns="http://www.w3.org/2000/svg"
 width="36.000000pt" height="43.000000pt" viewBox="0 0 36.000000 43.000000"
 preserveAspectRatio="xMidYMid meet">
<metadata>
Created by potrace 1.16, written by Peter Selinger 2001-2019
</metadata>
<g transform="translate(0.000000,43.000000) scale(0.100000,-0.100000)"
fill="#000000" stroke="none">
<path d="M130 390 l0 -40 -25 -6 -26 -6 -30 6 -30 6 3 -48 3 -47 28 0 27 1 0
-21 0 -21 -14 -19 -13 -18 -21 6 -22 5 -5 -8 -6 -9 12 -45 11 -45 47 -3 46 -3
-3 -32 -3 -31 11 -7 11 -7 23 6 23 6 13 30 12 30 -6 15 -5 15 25 0 25 0 18
-10 18 -9 11 22 11 22 3 25 3 25 16 -3 16 -2 12 14 12 15 -3 33 -3 33 -30 0
-30 1 -3 41 -3 42 -29 -10 -28 -10 -34 3 -33 3 3 25 3 25 -6 23 -5 22 -15 0
-15 0 0 -40z"/>
</g>
</svg>
