<?xml version="1.0" standalone="no"?>
<!DOCTYPE svg PUBLIC "-//W3C//DTD SVG 20010904//EN"
 "http://www.w3.org/TR/2001/REC-SVG-20010904/DTD/svg10.dtd">
<svg version="1.0" xmlns="http://www.w3.org/2000/svg"
 width="39.000000pt" height="38.000000pt" viewBox="0 0 39.000000 38.000000"
 preserveAspectRatio="xMidYMid meet">
<metadata>
Created by potrace 1.16, written by Peter Selinger 2001-2019
</metadata>
<g transform="translate(0.000000,38.000000) scale(0.100000,-0.100000)"
fill="#000000" stroke="none">
<path d="M141 353 l3 -28 -7 -13 -8 -12 -59 0 -59 0 6 -52 6 -53 10 -12 9 -13
31 0 31 0 -12 -12 -12 -12 -38 -1 -37 0 -3 -20 -4 -19 12 -54 12 -54 21 6 22
6 49 0 48 0 -6 24 -6 24 15 12 15 12 10 -26 10 -27 12 -4 13 -4 49 -6 49 -7
-6 46 -7 46 21 0 20 0 20 10 19 11 0 39 0 39 -32 9 -33 8 -3 45 -3 46 -52 9
-51 9 -6 25 -6 25 -33 3 -33 3 3 -28z"/>
</g>
</svg>
