<?xml version="1.0" standalone="no"?>
<!DOCTYPE svg PUBLIC "-//W3C//DTD SVG 20010904//EN"
 "http://www.w3.org/TR/2001/REC-SVG-20010904/DTD/svg10.dtd">
<svg version="1.0" xmlns="http://www.w3.org/2000/svg"
 width="34.000000pt" height="34.000000pt" viewBox="0 0 34.000000 34.000000"
 preserveAspectRatio="xMidYMid meet">
<metadata>
Created by potrace 1.16, written by Peter Selinger 2001-2019
</metadata>
<g transform="translate(0.000000,34.000000) scale(0.100000,-0.100000)"
fill="#000000" stroke="none">
<path d="M247 321 l5 -19 -12 -22 -11 -21 -27 3 -27 3 -3 33 -3 32 -50 0 -50
0 6 -21 7 -21 -6 -34 -7 -34 -32 3 -32 2 -3 -22 -3 -23 20 0 20 0 16 -55 16
-55 45 0 44 0 0 -24 0 -24 14 -12 15 -12 23 4 23 3 3 27 3 28 44 0 43 0 -4 32
-5 33 -4 23 -5 22 -30 0 -30 0 -6 25 -6 25 13 16 12 15 36 -3 36 -3 -1 33 -2
32 -6 15 -5 15 -40 0 -39 0 5 -19z"/>
</g>
</svg>
