<?xml version="1.0" standalone="no"?>
<!DOCTYPE svg PUBLIC "-//W3C//DTD SVG 20010904//EN"
 "http://www.w3.org/TR/2001/REC-SVG-20010904/DTD/svg10.dtd">
<svg version="1.0" xmlns="http://www.w3.org/2000/svg"
 width="30.000000pt" height="36.000000pt" viewBox="0 0 30.000000 36.000000"
 preserveAspectRatio="xMidYMid meet">
<metadata>
Created by potrace 1.16, written by Peter Selinger 2001-2019
</metadata>
<g transform="translate(0.000000,36.000000) scale(0.100000,-0.100000)"
fill="#000000" stroke="none">
<path d="M123 352 l-11 -7 1 -35 2 -35 -55 -5 -55 -5 -3 -52 -3 -53 38 3 38 2
0 -20 0 -20 -25 -1 -25 -1 -12 -1 -13 -2 0 -55 0 -54 35 -7 35 -6 26 6 25 7
-6 28 -6 28 15 12 15 13 18 -4 18 -3 3 -22 3 -22 12 -9 12 -10 45 -7 45 -6 2
38 3 38 -5 22 -5 22 -31 -6 -31 -6 -8 14 -9 13 9 15 8 15 29 1 28 0 3 38 3 38
-12 15 -12 14 -38 6 -39 6 -9 12 -9 11 -4 20 -3 20 -15 2 -15 3 -12 -8z"/>
</g>
</svg>
