<?xml version="1.0" standalone="no"?>
<!DOCTYPE svg PUBLIC "-//W3C//DTD SVG 20010904//EN"
 "http://www.w3.org/TR/2001/REC-SVG-20010904/DTD/svg10.dtd">
<svg version="1.0" xmlns="http://www.w3.org/2000/svg"
 width="45.000000pt" height="44.000000pt" viewBox="0 0 45.000000 44.000000"
 preserveAspectRatio="xMidYMid meet">
<metadata>
Created by potrace 1.16, written by Peter Selinger 2001-2019
</metadata>
<g transform="translate(0.000000,44.000000) scale(0.100000,-0.100000)"
fill="#000000" stroke="none">
<path d="M223 428 l-7 -13 -1 -30 0 -30 -62 0 -62 0 -3 -50 -3 -50 -32 0 -33
-1 -11 -11 -11 -11 7 -21 6 -21 41 0 40 0 -4 -50 -3 -50 10 -1 10 -1 14 2 14
2 34 -7 33 -6 -2 -27 -2 -28 8 -12 7 -12 18 0 19 0 11 14 12 15 -3 18 -3 18
56 9 56 9 -1 55 -1 56 29 0 29 1 10 17 11 16 -13 16 -13 16 -30 0 -30 0 2 38
2 37 -1 13 -1 12 -39 0 -39 0 -11 14 -11 13 6 16 6 15 -21 11 -20 11 -5 0 -5
0 -8 -12z"/>
</g>
</svg>
