<?xml version="1.0" standalone="no"?>
<!DOCTYPE svg PUBLIC "-//W3C//DTD SVG 20010904//EN"
 "http://www.w3.org/TR/2001/REC-SVG-20010904/DTD/svg10.dtd">
<svg version="1.0" xmlns="http://www.w3.org/2000/svg"
 width="47.000000pt" height="46.000000pt" viewBox="0 0 47.000000 46.000000"
 preserveAspectRatio="xMidYMid meet">
<metadata>
Created by potrace 1.16, written by Peter Selinger 2001-2019
</metadata>
<g transform="translate(0.000000,46.000000) scale(0.100000,-0.100000)"
fill="#000000" stroke="none">
<path d="M220 440 l-11 -21 3 -22 3 -22 -62 2 -62 1 -3 -51 -3 -52 -22 3 -22
3 -21 -11 -20 -11 0 -19 0 -18 6 -16 6 -16 40 0 41 0 -6 -49 -6 -50 19 -6 20
-6 10 6 10 6 31 -6 30 -7 -6 -19 -6 -18 11 -21 11 -20 27 0 28 0 12 12 12 12
0 22 0 23 56 7 55 6 -7 54 -6 54 29 0 29 0 12 12 12 12 0 21 0 21 -12 12 -12
12 -29 0 -30 0 6 38 6 37 -7 12 -7 12 -40 3 -40 3 -3 25 -3 25 -17 13 -16 12
-18 0 -17 0 -11 -20z"/>
</g>
</svg>
