<?xml version="1.0" standalone="no"?>
<!DOCTYPE svg PUBLIC "-//W3C//DTD SVG 20010904//EN"
 "http://www.w3.org/TR/2001/REC-SVG-20010904/DTD/svg10.dtd">
<svg version="1.0" xmlns="http://www.w3.org/2000/svg"
 width="30.000000pt" height="46.000000pt" viewBox="0 0 30.000000 46.000000"
 preserveAspectRatio="xMidYMid meet">
<metadata>
Created by potrace 1.16, written by Peter Selinger 2001-2019
</metadata>
<g transform="translate(0.000000,46.000000) scale(0.100000,-0.100000)"
fill="#000000" stroke="none">
<path d="M125 448 l-4 -13 -3 -30 -3 -30 -55 -5 -55 -5 0 -50 0 -50 33 -3 33
-3 -3 -17 -3 -16 -25 -6 -25 -6 0 -59 0 -60 38 -3 37 -3 0 -32 0 -32 9 -13 8
-13 49 3 49 3 3 43 3 42 45 0 44 0 0 136 0 137 -41 -7 -40 -6 -12 -3 -12 -2
-3 45 -3 45 -11 12 -10 13 -20 0 -19 0 -4 -12z"/>
</g>
</svg>
