<?xml version="1.0" standalone="no"?>
<!DOCTYPE svg PUBLIC "-//W3C//DTD SVG 20010904//EN"
 "http://www.w3.org/TR/2001/REC-SVG-20010904/DTD/svg10.dtd">
<svg version="1.0" xmlns="http://www.w3.org/2000/svg"
 width="29.000000pt" height="35.000000pt" viewBox="0 0 29.000000 35.000000"
 preserveAspectRatio="xMidYMid meet">
<metadata>
Created by potrace 1.16, written by Peter Selinger 2001-2019
</metadata>
<g transform="translate(0.000000,35.000000) scale(0.100000,-0.100000)"
fill="#000000" stroke="none">
<path d="M110 330 l-10 -20 6 -25 6 -25 -56 6 -57 7 3 -54 3 -54 38 -3 37 -3
0 -12 0 -12 -9 -14 -9 -14 -15 6 -16 6 -9 -12 -10 -12 -3 -35 -3 -35 8 -13 7
-12 49 0 49 0 -6 33 -5 33 16 13 16 13 15 -6 16 -6 -2 -12 -1 -13 1 -12 1 -11
50 -11 51 -11 9 0 10 0 0 50 0 49 -36 -1 -35 -1 -15 15 -15 14 7 17 6 16 36
-2 37 -2 3 48 3 48 -53 -3 -53 -3 2 29 2 29 -10 18 -10 19 -19 0 -19 0 -11
-20z"/>
</g>
</svg>
