<?xml version="1.0" standalone="no"?>
<!DOCTYPE svg PUBLIC "-//W3C//DTD SVG 20010904//EN"
 "http://www.w3.org/TR/2001/REC-SVG-20010904/DTD/svg10.dtd">
<svg version="1.0" xmlns="http://www.w3.org/2000/svg"
 width="31.000000pt" height="37.000000pt" viewBox="0 0 31.000000 37.000000"
 preserveAspectRatio="xMidYMid meet">
<metadata>
Created by potrace 1.16, written by Peter Selinger 2001-2019
</metadata>
<g transform="translate(0.000000,37.000000) scale(0.100000,-0.100000)"
fill="#000000" stroke="none">
<path d="M109 349 l-11 -21 4 -22 5 -22 -54 4 -54 5 3 -64 3 -64 37 -3 37 -3
-5 -13 -5 -14 -18 5 -17 4 -11 -13 -10 -13 -6 -46 -6 -46 11 -11 12 -12 59 0
59 0 -6 34 -6 33 14 12 13 11 6 -29 6 -29 51 -11 51 -11 19 0 20 0 0 59 0 60
-42 3 -43 3 -3 15 -3 15 38 0 38 0 3 58 3 59 -53 -4 -53 -3 3 27 3 27 -11 20
-11 21 -29 0 -29 0 -12 -21z"/>
</g>
</svg>
