<?xml version="1.0" standalone="no"?>
<!DOCTYPE svg PUBLIC "-//W3C//DTD SVG 20010904//EN"
 "http://www.w3.org/TR/2001/REC-SVG-20010904/DTD/svg10.dtd">
<svg version="1.0" xmlns="http://www.w3.org/2000/svg"
 width="29.000000pt" height="35.000000pt" viewBox="0 0 29.000000 35.000000"
 preserveAspectRatio="xMidYMid meet">
<metadata>
Created by potrace 1.16, written by Peter Selinger 2001-2019
</metadata>
<g transform="translate(0.000000,35.000000) scale(0.100000,-0.100000)"
fill="#000000" stroke="none">
<path d="M126 334 l-6 -16 6 -25 7 -25 -62 4 -61 3 -5 -13 -5 -14 0 -34 0 -34
23 0 23 0 18 -13 18 -13 -4 -20 -3 -19 -22 0 -23 -1 -9 -9 -9 -10 -4 -42 -4
-43 34 -6 33 -6 22 9 22 10 0 34 0 34 25 0 25 0 -3 -14 -3 -13 11 -13 11 -13
35 -7 35 -6 15 -6 15 -6 -3 49 -3 49 -27 3 -27 3 -6 20 -6 19 6 10 6 10 23 -6
22 -5 13 24 13 24 -4 29 -3 29 -25 -4 -25 -4 -35 -1 -35 -1 3 33 3 33 -12 15
-11 14 -8 0 -8 0 -6 -16z"/>
</g>
</svg>
