<?xml version="1.0" standalone="no"?>
<!DOCTYPE svg PUBLIC "-//W3C//DTD SVG 20010904//EN"
 "http://www.w3.org/TR/2001/REC-SVG-20010904/DTD/svg10.dtd">
<svg version="1.0" xmlns="http://www.w3.org/2000/svg"
 width="35.000000pt" height="42.000000pt" viewBox="0 0 35.000000 42.000000"
 preserveAspectRatio="xMidYMid meet">
<metadata>
Created by potrace 1.16, written by Peter Selinger 2001-2019
</metadata>
<g transform="translate(0.000000,42.000000) scale(0.100000,-0.100000)"
fill="#000000" stroke="none">
<path d="M195 408 l-4 -13 -3 -25 -3 -25 -55 -5 -55 -5 -5 -40 -5 -40 -30 0
-30 0 0 -45 0 -45 13 0 14 0 14 -40 14 -40 0 -2 0 -3 43 0 42 0 13 -8 13 -9
-7 -16 -6 -17 12 -15 12 -15 19 0 18 0 16 16 16 17 -3 26 -3 26 40 -3 40 -2
11 4 11 4 -12 49 -12 48 -21 0 -22 1 -11 11 -11 11 6 11 7 11 40 0 40 0 -3 53
-3 52 -55 0 -55 0 -5 39 -5 39 -12 5 -13 4 -5 -14z"/>
</g>
</svg>
