<?xml version="1.0" standalone="no"?>
<!DOCTYPE svg PUBLIC "-//W3C//DTD SVG 20010904//EN"
 "http://www.w3.org/TR/2001/REC-SVG-20010904/DTD/svg10.dtd">
<svg version="1.0" xmlns="http://www.w3.org/2000/svg"
 width="37.000000pt" height="44.000000pt" viewBox="0 0 37.000000 44.000000"
 preserveAspectRatio="xMidYMid meet">
<metadata>
Created by potrace 1.16, written by Peter Selinger 2001-2019
</metadata>
<g transform="translate(0.000000,44.000000) scale(0.100000,-0.100000)"
fill="#000000" stroke="none">
<path d="M195 428 l-4 -13 -3 -25 -3 -25 -55 -5 -55 -5 -3 -37 -3 -37 -32 -3
-32 -3 -3 -53 -3 -54 20 -5 21 -5 0 -14 0 -13 11 -25 12 -25 46 -3 46 -3 3
-25 4 -25 10 -12 10 -13 29 0 28 0 15 16 16 15 0 28 0 29 44 -5 43 -5 7 10 6
10 -14 54 -13 53 -27 3 -26 3 0 10 0 9 40 0 41 0 -3 63 -3 62 -55 0 -55 0 -5
40 -5 40 -23 3 -22 3 -5 -13z"/>
</g>
</svg>
