<?xml version="1.0" standalone="no"?>
<!DOCTYPE svg PUBLIC "-//W3C//DTD SVG 20010904//EN"
 "http://www.w3.org/TR/2001/REC-SVG-20010904/DTD/svg10.dtd">
<svg version="1.0" xmlns="http://www.w3.org/2000/svg"
 width="29.000000pt" height="29.000000pt" viewBox="0 0 29.000000 29.000000"
 preserveAspectRatio="xMidYMid meet">
<metadata>
Created by potrace 1.16, written by Peter Selinger 2001-2019
</metadata>
<g transform="translate(0.000000,29.000000) scale(0.100000,-0.100000)"
fill="#000000" stroke="none">
<path d="M0 249 l0 -40 11 -20 10 -20 30 6 29 7 6 -16 6 -15 -14 -14 -14 -14
-24 1 -25 1 -3 -58 -3 -57 44 0 43 0 12 12 12 12 0 19 0 18 18 -3 17 -3 3 -27
3 -26 16 -7 16 -6 43 7 42 6 5 39 5 39 -5 19 -5 20 -27 3 -26 3 0 20 0 20 33
15 32 15 -2 40 -3 40 -59 3 -59 3 6 -22 6 -22 -15 -14 -14 -14 -18 3 -17 3 -3
33 -3 32 -55 0 -54 0 0 -41z"/>
</g>
</svg>
