<?xml version="1.0" standalone="no"?>
<!DOCTYPE svg PUBLIC "-//W3C//DTD SVG 20010904//EN"
 "http://www.w3.org/TR/2001/REC-SVG-20010904/DTD/svg10.dtd">
<svg version="1.0" xmlns="http://www.w3.org/2000/svg"
 width="27.000000pt" height="34.000000pt" viewBox="0 0 27.000000 34.000000"
 preserveAspectRatio="xMidYMid meet">
<metadata>
Created by potrace 1.16, written by Peter Selinger 2001-2019
</metadata>
<g transform="translate(0.000000,34.000000) scale(0.100000,-0.100000)"
fill="#000000" stroke="none">
<path d="M0 294 l0 -46 16 6 15 6 20 -10 19 -11 0 -22 0 -22 -9 -13 -8 -14
-24 4 -24 3 -3 -48 -3 -47 40 0 41 0 0 -25 0 -25 24 -15 25 -16 20 11 21 11
-3 11 -2 11 38 10 38 9 14 29 15 28 0 31 0 30 -33 0 -34 0 -18 20 -19 21 17
16 16 16 30 -1 31 -1 0 45 0 45 -47 -3 -48 -3 2 -22 3 -22 -20 -11 -20 -11
-20 11 -20 11 6 24 6 25 -51 0 -51 0 0 -46z"/>
</g>
</svg>
