<?xml version="1.0" standalone="no"?>
<!DOCTYPE svg PUBLIC "-//W3C//DTD SVG 20010904//EN"
 "http://www.w3.org/TR/2001/REC-SVG-20010904/DTD/svg10.dtd">
<svg version="1.0" xmlns="http://www.w3.org/2000/svg"
 width="36.000000pt" height="27.000000pt" viewBox="0 0 36.000000 27.000000"
 preserveAspectRatio="xMidYMid meet">
<metadata>
Created by potrace 1.16, written by Peter Selinger 2001-2019
</metadata>
<g transform="translate(0.000000,27.000000) scale(0.100000,-0.100000)"
fill="#000000" stroke="none">
<path d="M94 223 l1 -47 -35 -6 -36 -6 -12 -8 -12 -7 10 -20 11 -19 27 0 27 0
14 -9 14 -9 -5 -40 -6 -40 41 -5 41 -6 8 5 8 5 0 23 0 24 15 12 15 12 16 -6
15 -6 -6 -19 -6 -19 11 -7 10 -6 49 -8 48 -8 2 59 2 59 -23 -6 -23 -6 -20 14
-19 15 12 26 12 26 30 0 30 0 0 18 0 17 -6 21 -6 21 -38 -9 -39 -10 -3 -22 -3
-21 -35 0 -35 0 0 30 0 30 -51 3 -50 3 0 -48z"/>
</g>
</svg>
