<?xml version="1.0" standalone="no"?>
<!DOCTYPE svg PUBLIC "-//W3C//DTD SVG 20010904//EN"
 "http://www.w3.org/TR/2001/REC-SVG-20010904/DTD/svg10.dtd">
<svg version="1.0" xmlns="http://www.w3.org/2000/svg"
 width="39.000000pt" height="30.000000pt" viewBox="0 0 39.000000 30.000000"
 preserveAspectRatio="xMidYMid meet">
<metadata>
Created by potrace 1.16, written by Peter Selinger 2001-2019
</metadata>
<g transform="translate(0.000000,30.000000) scale(0.100000,-0.100000)"
fill="#000000" stroke="none">
<path d="M270 277 l0 -24 -18 -16 -19 -17 -16 0 -17 0 0 23 0 23 -12 12 -12
12 -44 0 -44 0 2 -27 2 -28 -1 -19 -1 -18 -34 6 -35 7 -11 -22 -12 -22 10 -23
11 -23 38 -3 38 -3 3 -53 3 -53 62 3 62 3 -1 38 -1 37 13 0 14 0 0 -39 0 -39
63 -4 62 -5 7 11 8 11 0 46 0 47 -15 12 -15 12 -25 -6 -25 -6 -7 15 -6 16 12
12 11 11 35 -3 35 -3 0 45 0 45 -6 16 -6 16 -54 0 -54 0 0 -23z"/>
</g>
</svg>
