<?xml version="1.0" standalone="no"?>
<!DOCTYPE svg PUBLIC "-//W3C//DTD SVG 20010904//EN"
 "http://www.w3.org/TR/2001/REC-SVG-20010904/DTD/svg10.dtd">
<svg version="1.0" xmlns="http://www.w3.org/2000/svg"
 width="40.000000pt" height="32.000000pt" viewBox="0 0 40.000000 32.000000"
 preserveAspectRatio="xMidYMid meet">
<metadata>
Created by potrace 1.16, written by Peter Selinger 2001-2019
</metadata>
<g transform="translate(0.000000,32.000000) scale(0.100000,-0.100000)"
fill="#000000" stroke="none">
<path d="M275 288 l5 -33 -20 -25 -20 -25 -15 19 -15 20 0 28 0 28 -60 0 -60
0 0 -43 0 -43 -35 0 -34 0 -6 -5 -5 -5 -6 -31 -6 -31 21 -21 21 -21 25 0 25 0
0 -49 0 -50 57 6 58 6 12 9 12 9 3 32 3 32 10 0 9 0 6 -25 6 -25 52 -14 52
-14 15 13 15 12 0 54 0 54 -41 0 -40 0 6 10 6 9 29 -6 30 -5 0 70 0 70 -31 11
-32 11 -29 0 -29 0 6 -32z"/>
</g>
</svg>
