<?xml version="1.0" standalone="no"?>
<!DOCTYPE svg PUBLIC "-//W3C//DTD SVG 20010904//EN"
 "http://www.w3.org/TR/2001/REC-SVG-20010904/DTD/svg10.dtd">
<svg version="1.0" xmlns="http://www.w3.org/2000/svg"
 width="33.000000pt" height="38.000000pt" viewBox="0 0 33.000000 38.000000"
 preserveAspectRatio="xMidYMid meet">
<metadata>
Created by potrace 1.16, written by Peter Selinger 2001-2019
</metadata>
<g transform="translate(0.000000,38.000000) scale(0.100000,-0.100000)"
fill="#000000" stroke="none">
<path d="M200 346 l0 -34 -15 -12 -14 -12 -20 7 -21 6 3 32 2 32 -55 0 -55 0
-3 -43 -3 -43 12 -15 11 -14 30 0 30 0 -5 -12 -4 -13 -44 0 -44 0 -3 -37 -3
-36 15 -36 15 -36 43 0 43 0 0 -32 0 -32 27 -10 27 -10 26 12 25 12 0 34 0 35
48 3 47 3 3 48 3 49 -12 14 -11 14 -19 0 -19 0 0 11 0 10 20 -6 21 -7 14 12
15 12 0 53 0 52 -25 11 -26 12 -39 0 -40 0 0 -34z"/>
</g>
</svg>
