<?xml version="1.0" standalone="no"?>
<!DOCTYPE svg PUBLIC "-//W3C//DTD SVG 20010904//EN"
 "http://www.w3.org/TR/2001/REC-SVG-20010904/DTD/svg10.dtd">
<svg version="1.0" xmlns="http://www.w3.org/2000/svg"
 width="31.000000pt" height="36.000000pt" viewBox="0 0 31.000000 36.000000"
 preserveAspectRatio="xMidYMid meet">
<metadata>
Created by potrace 1.16, written by Peter Selinger 2001-2019
</metadata>
<g transform="translate(0.000000,36.000000) scale(0.100000,-0.100000)"
fill="#000000" stroke="none">
<path d="M198 324 l-3 -37 -16 -10 -16 -10 -27 7 -27 7 3 32 3 32 -45 0 -45 0
-3 -33 -3 -33 12 -15 11 -14 30 0 29 0 -3 -22 -3 -23 -45 0 -45 0 -3 -26 -3
-27 15 -36 15 -36 46 0 47 0 -7 -30 -7 -30 25 -11 24 -11 21 11 21 11 3 38 3
37 45 0 45 0 3 38 3 38 -12 15 -12 15 -13 -5 -13 -5 -10 12 -10 13 8 13 8 13
19 -3 19 -4 13 8 12 8 0 43 0 43 -25 11 -26 12 -29 0 -29 0 -3 -36z"/>
</g>
</svg>
