<?xml version="1.0" standalone="no"?>
<!DOCTYPE svg PUBLIC "-//W3C//DTD SVG 20010904//EN"
 "http://www.w3.org/TR/2001/REC-SVG-20010904/DTD/svg10.dtd">
<svg version="1.0" xmlns="http://www.w3.org/2000/svg"
 width="34.000000pt" height="34.000000pt" viewBox="0 0 34.000000 34.000000"
 preserveAspectRatio="xMidYMid meet">
<metadata>
Created by potrace 1.16, written by Peter Selinger 2001-2019
</metadata>
<g transform="translate(0.000000,34.000000) scale(0.100000,-0.100000)"
fill="#000000" stroke="none">
<path d="M230 306 l0 -35 -21 -6 -21 -7 -8 9 -8 8 -4 25 -3 25 -47 3 -48 3 0
-50 0 -51 -24 -6 -25 -6 -10 7 -11 6 0 -25 0 -25 18 -10 18 -9 19 1 20 2 0
-50 0 -50 43 3 42 2 0 -29 0 -30 11 -6 10 -7 26 7 25 6 -5 24 -4 25 43 0 42 0
15 6 15 5 -17 47 -17 47 -24 0 -25 0 -3 20 -4 19 17 12 17 13 29 -6 29 -5 0
55 0 55 -31 6 -31 6 -24 0 -24 0 0 -34z"/>
</g>
</svg>
