<?xml version="1.0" standalone="no"?>
<!DOCTYPE svg PUBLIC "-//W3C//DTD SVG 20010904//EN"
 "http://www.w3.org/TR/2001/REC-SVG-20010904/DTD/svg10.dtd">
<svg version="1.0" xmlns="http://www.w3.org/2000/svg"
 width="37.000000pt" height="35.000000pt" viewBox="0 0 37.000000 35.000000"
 preserveAspectRatio="xMidYMid meet">
<metadata>
Created by potrace 1.16, written by Peter Selinger 2001-2019
</metadata>
<g transform="translate(0.000000,35.000000) scale(0.100000,-0.100000)"
fill="#000000" stroke="none">
<path d="M180 321 l0 -29 -16 -6 -16 -6 -38 6 -39 6 -3 -58 -3 -59 -27 3 -26
3 -7 -11 -7 -11 6 -23 6 -24 25 -6 25 -6 0 -28 0 -27 6 -23 7 -23 61 3 61 3 1
35 0 35 12 -1 12 -1 11 -1 10 -2 -6 -20 -7 -21 12 -14 12 -15 60 0 59 0 -3 63
-3 62 -30 1 -31 0 -12 8 -12 7 0 13 0 13 28 -5 28 -4 13 15 12 16 -3 43 -3 43
-54 -3 -53 -4 7 12 7 11 -12 30 -12 29 -29 0 -29 0 0 -29z"/>
</g>
</svg>
