<?xml version="1.0" standalone="no"?>
<!DOCTYPE svg PUBLIC "-//W3C//DTD SVG 20010904//EN"
 "http://www.w3.org/TR/2001/REC-SVG-20010904/DTD/svg10.dtd">
<svg version="1.0" xmlns="http://www.w3.org/2000/svg"
 width="41.000000pt" height="31.000000pt" viewBox="0 0 41.000000 31.000000"
 preserveAspectRatio="xMidYMid meet">
<metadata>
Created by potrace 1.16, written by Peter Selinger 2001-2019
</metadata>
<g transform="translate(0.000000,31.000000) scale(0.100000,-0.100000)"
fill="#000000" stroke="none">
<path d="M250 276 l0 -34 -6 -16 -6 -16 -40 0 -40 0 7 30 7 30 -27 10 -26 10
-20 0 -19 0 0 -44 0 -44 -14 -11 -14 -12 -26 7 -26 6 0 -25 0 -25 13 -10 13
-11 30 2 29 2 0 -50 0 -50 38 -3 38 -3 15 12 15 12 -3 21 -3 21 18 3 18 4 15
-13 15 -12 -3 -31 -3 -31 40 2 40 2 12 2 13 2 -5 21 -5 21 8 35 8 35 24 0 25
0 0 30 0 29 -30 1 -30 0 -3 52 -3 52 -37 11 -37 10 -7 0 -8 0 0 -34z"/>
</g>
</svg>
