<?xml version="1.0" standalone="no"?>
<!DOCTYPE svg PUBLIC "-//W3C//DTD SVG 20010904//EN"
 "http://www.w3.org/TR/2001/REC-SVG-20010904/DTD/svg10.dtd">
<svg version="1.0" xmlns="http://www.w3.org/2000/svg"
 width="43.000000pt" height="33.000000pt" viewBox="0 0 43.000000 33.000000"
 preserveAspectRatio="xMidYMid meet">
<metadata>
Created by potrace 1.16, written by Peter Selinger 2001-2019
</metadata>
<g transform="translate(0.000000,33.000000) scale(0.100000,-0.100000)"
fill="#000000" stroke="none">
<path d="M250 296 l0 -34 -6 -16 -6 -16 -27 0 -28 0 5 30 4 30 -27 10 -26 10
-30 0 -29 0 0 -44 0 -45 -12 -8 -13 -7 -27 3 -28 3 0 -35 0 -35 14 -12 15 -12
28 4 28 3 0 -50 0 -50 48 -3 49 -3 14 12 14 11 0 24 0 24 9 0 10 0 8 -13 8
-12 0 -30 0 -30 19 -3 18 -4 45 7 45 7 -4 26 -5 27 6 30 6 30 25 0 25 0 0 40
0 40 -30 0 -30 0 -3 52 -3 52 -37 11 -37 10 -17 0 -18 0 0 -34z"/>
</g>
</svg>
