<?xml version="1.0" standalone="no"?>
<!DOCTYPE svg PUBLIC "-//W3C//DTD SVG 20010904//EN"
 "http://www.w3.org/TR/2001/REC-SVG-20010904/DTD/svg10.dtd">
<svg version="1.0" xmlns="http://www.w3.org/2000/svg"
 width="38.000000pt" height="32.000000pt" viewBox="0 0 38.000000 32.000000"
 preserveAspectRatio="xMidYMid meet">
<metadata>
Created by potrace 1.16, written by Peter Selinger 2001-2019
</metadata>
<g transform="translate(0.000000,32.000000) scale(0.100000,-0.100000)"
fill="#000000" stroke="none">
<path d="M176 281 l6 -39 -20 -11 -19 -10 -7 6 -6 6 0 18 0 18 -16 15 -15 16
-50 0 -49 0 0 -46 0 -45 10 -20 11 -19 36 0 36 0 -7 -7 -7 -7 -33 2 -34 2 -6
-22 -6 -23 0 -42 0 -41 6 -16 6 -15 46 5 47 5 23 5 22 4 0 32 0 32 9 -9 9 -10
4 -25 3 -25 63 -3 62 -3 0 35 0 34 6 16 6 16 29 0 29 0 6 25 6 25 -6 16 -6 16
-29 -4 -29 -4 -10 20 -9 21 4 36 5 36 -33 12 -32 11 -34 0 -33 0 6 -39z"/>
</g>
</svg>
