<?xml version="1.0" standalone="no"?>
<!DOCTYPE svg PUBLIC "-//W3C//DTD SVG 20010904//EN"
 "http://www.w3.org/TR/2001/REC-SVG-20010904/DTD/svg10.dtd">
<svg version="1.0" xmlns="http://www.w3.org/2000/svg"
 width="39.000000pt" height="36.000000pt" viewBox="0 0 39.000000 36.000000"
 preserveAspectRatio="xMidYMid meet">
<metadata>
Created by potrace 1.16, written by Peter Selinger 2001-2019
</metadata>
<g transform="translate(0.000000,36.000000) scale(0.100000,-0.100000)"
fill="#000000" stroke="none">
<path d="M202 348 l-12 -12 0 -23 0 -23 -50 0 -51 0 -4 -12 -3 -13 -7 -38 -6
-38 -10 7 -10 6 -25 -6 -25 -7 3 -42 3 -42 25 -4 25 -3 8 -12 7 -11 -5 -31 -5
-32 22 -6 23 -6 53 0 52 0 0 40 0 40 15 0 15 0 0 -24 0 -24 50 -11 51 -11 24
0 24 0 -5 53 -6 52 -3 12 -4 12 -38 3 -38 3 -3 18 -4 18 27 -7 26 -6 19 17 20
18 0 49 0 48 -14 0 -15 0 -6 -10 -6 -10 -30 0 -29 0 0 30 0 29 -19 11 -20 10
-13 0 -14 0 -12 -12z"/>
</g>
</svg>
