<?xml version="1.0" standalone="no"?>
<!DOCTYPE svg PUBLIC "-//W3C//DTD SVG 20010904//EN"
 "http://www.w3.org/TR/2001/REC-SVG-20010904/DTD/svg10.dtd">
<svg version="1.0" xmlns="http://www.w3.org/2000/svg"
 width="37.000000pt" height="34.000000pt" viewBox="0 0 37.000000 34.000000"
 preserveAspectRatio="xMidYMid meet">
<metadata>
Created by potrace 1.16, written by Peter Selinger 2001-2019
</metadata>
<g transform="translate(0.000000,34.000000) scale(0.100000,-0.100000)"
fill="#000000" stroke="none">
<path d="M200 325 l-12 -14 7 -21 6 -20 -56 0 -56 0 -4 -12 -3 -13 -7 -38 -6
-39 -22 6 -22 5 -13 -8 -14 -8 4 -29 3 -29 27 -3 28 -3 6 -25 6 -24 -5 -19 -5
-19 22 -6 21 -6 43 0 42 0 0 39 0 39 13 5 12 4 17 -8 16 -9 -5 -19 -5 -19 52
-11 51 -11 12 0 13 0 -6 52 -5 53 -40 5 -40 5 -3 29 -4 29 30 -6 30 -6 16 18
16 18 0 38 0 37 -14 -11 -15 -12 -38 3 -38 3 3 27 3 27 -20 10 -20 11 -4 0 -5
0 -12 -15z"/>
</g>
</svg>
