<?xml version="1.0" standalone="no"?>
<!DOCTYPE svg PUBLIC "-//W3C//DTD SVG 20010904//EN"
 "http://www.w3.org/TR/2001/REC-SVG-20010904/DTD/svg10.dtd">
<svg version="1.0" xmlns="http://www.w3.org/2000/svg"
 width="39.000000pt" height="38.000000pt" viewBox="0 0 39.000000 38.000000"
 preserveAspectRatio="xMidYMid meet">
<metadata>
Created by potrace 1.16, written by Peter Selinger 2001-2019
</metadata>
<g transform="translate(0.000000,38.000000) scale(0.100000,-0.100000)"
fill="#000000" stroke="none">
<path d="M198 348 l-3 -33 -56 -3 -57 -3 2 -52 1 -52 -37 3 -37 3 -7 -26 -7
-27 17 -16 16 -16 34 0 35 0 3 -51 3 -50 34 -3 34 -3 24 6 25 6 -6 34 -7 35
10 0 10 0 8 -12 7 -13 1 -35 0 -35 47 1 47 0 25 13 25 14 -6 51 -6 51 -9 18
-10 19 -24 -6 -24 -6 0 10 0 10 13 1 12 1 28 -2 27 -2 0 44 0 43 -7 23 -6 24
-26 -7 -26 -6 -27 -6 -28 -5 0 30 0 31 -16 15 -15 16 -19 0 -19 0 -3 -32z"/>
</g>
</svg>
