<?xml version="1.0" standalone="no"?>
<!DOCTYPE svg PUBLIC "-//W3C//DTD SVG 20010904//EN"
 "http://www.w3.org/TR/2001/REC-SVG-20010904/DTD/svg10.dtd">
<svg version="1.0" xmlns="http://www.w3.org/2000/svg"
 width="37.000000pt" height="36.000000pt" viewBox="0 0 37.000000 36.000000"
 preserveAspectRatio="xMidYMid meet">
<metadata>
Created by potrace 1.16, written by Peter Selinger 2001-2019
</metadata>
<g transform="translate(0.000000,36.000000) scale(0.100000,-0.100000)"
fill="#000000" stroke="none">
<path d="M198 328 l-3 -33 -55 -5 -55 -5 0 -50 0 -50 -37 2 -36 2 -6 -16 -7
-17 15 -14 15 -15 35 1 35 1 3 -52 3 -52 24 -3 23 -4 23 6 24 6 -6 34 -5 33
16 6 16 6 16 -23 15 -24 -3 -29 -3 -28 38 1 38 1 23 12 22 12 -6 47 -6 47 -7
11 -7 11 -24 -4 -24 -5 -7 13 -8 12 19 14 19 14 27 -7 28 -6 0 34 0 33 -6 23
-7 23 -16 -7 -16 -8 -40 0 -40 -1 0 33 0 33 -15 9 -15 10 -7 0 -7 0 -3 -32z"/>
</g>
</svg>
