<?xml version="1.0" standalone="no"?>
<!DOCTYPE svg PUBLIC "-//W3C//DTD SVG 20010904//EN"
 "http://www.w3.org/TR/2001/REC-SVG-20010904/DTD/svg10.dtd">
<svg version="1.0" xmlns="http://www.w3.org/2000/svg"
 width="45.000000pt" height="41.000000pt" viewBox="0 0 45.000000 41.000000"
 preserveAspectRatio="xMidYMid meet">
<metadata>
Created by potrace 1.16, written by Peter Selinger 2001-2019
</metadata>
<g transform="translate(0.000000,41.000000) scale(0.100000,-0.100000)"
fill="#000000" stroke="none">
<path d="M204 375 l7 -37 -65 4 -65 4 -3 -51 -3 -50 -25 -1 -25 -1 -13 -1 -13
-2 3 -27 3 -28 30 -5 30 -5 5 -35 6 -36 8 -12 7 -12 43 0 43 0 -4 -23 -5 -24
17 -16 16 -17 19 0 18 0 16 6 16 6 0 23 0 23 23 6 22 6 27 0 26 0 7 42 6 43 5
15 4 16 28 -1 27 0 0 30 0 30 -36 -2 -37 -2 -6 22 -6 22 0 31 0 30 -42 3 -41
2 -19 10 -19 10 3 17 3 17 -24 3 -24 4 7 -37z"/>
</g>
</svg>
