<?xml version="1.0" standalone="no"?>
<!DOCTYPE svg PUBLIC "-//W3C//DTD SVG 20010904//EN"
 "http://www.w3.org/TR/2001/REC-SVG-20010904/DTD/svg10.dtd">
<svg version="1.0" xmlns="http://www.w3.org/2000/svg"
 width="46.000000pt" height="44.000000pt" viewBox="0 0 46.000000 44.000000"
 preserveAspectRatio="xMidYMid meet">
<metadata>
Created by potrace 1.16, written by Peter Selinger 2001-2019
</metadata>
<g transform="translate(0.000000,44.000000) scale(0.100000,-0.100000)"
fill="#000000" stroke="none">
<path d="M211 431 l-14 -9 7 -25 6 -26 -57 -3 -58 -3 -3 -37 -3 -38 -33 0 -32
0 -12 -12 -12 -12 0 -24 0 -25 18 -13 17 -13 33 -1 33 0 -7 -56 -7 -57 27 7
26 6 23 -6 24 -5 -4 -23 -5 -23 17 -16 16 -17 29 0 29 0 15 16 16 15 0 18 0
18 40 7 40 6 5 23 4 22 3 25 3 25 27 3 27 3 7 34 6 34 -7 10 -6 11 -24 0 -25
0 -5 23 -4 22 -3 25 -3 25 -40 3 -40 2 -22 5 -22 5 5 15 6 15 -12 15 -12 15
-12 0 -11 0 -14 -9z"/>
</g>
</svg>
