<?xml version="1.0" standalone="no"?>
<!DOCTYPE svg PUBLIC "-//W3C//DTD SVG 20010904//EN"
 "http://www.w3.org/TR/2001/REC-SVG-20010904/DTD/svg10.dtd">
<svg version="1.0" xmlns="http://www.w3.org/2000/svg"
 width="29.000000pt" height="41.000000pt" viewBox="0 0 29.000000 41.000000"
 preserveAspectRatio="xMidYMid meet">
<metadata>
Created by potrace 1.16, written by Peter Selinger 2001-2019
</metadata>
<g transform="translate(0.000000,41.000000) scale(0.100000,-0.100000)"
fill="#000000" stroke="none">
<path d="M120 387 l0 -23 -12 -12 -12 -12 -43 0 -43 0 0 -34 0 -34 6 -16 6
-16 23 0 24 0 6 -10 6 -9 -7 -26 -7 -27 -23 5 -24 4 -4 -21 -5 -21 -5 -30 -5
-30 52 3 52 4 0 -32 0 -33 16 -10 16 -10 28 7 27 7 -5 24 -4 25 36 6 36 6 15
4 15 4 0 47 0 48 -30 0 -30 1 -13 7 -12 8 0 30 0 30 20 -6 19 -6 21 11 20 11
0 34 0 34 -17 9 -18 10 -43 7 -44 7 5 18 5 19 -15 5 -15 6 -9 0 -9 0 0 -23z"/>
</g>
</svg>
