<?xml version="1.0" standalone="no"?>
<!DOCTYPE svg PUBLIC "-//W3C//DTD SVG 20010904//EN"
 "http://www.w3.org/TR/2001/REC-SVG-20010904/DTD/svg10.dtd">
<svg version="1.0" xmlns="http://www.w3.org/2000/svg"
 width="44.000000pt" height="34.000000pt" viewBox="0 0 44.000000 34.000000"
 preserveAspectRatio="xMidYMid meet">
<metadata>
Created by potrace 1.16, written by Peter Selinger 2001-2019
</metadata>
<g transform="translate(0.000000,34.000000) scale(0.100000,-0.100000)"
fill="#000000" stroke="none">
<path d="M195 330 l-6 -10 3 -28 3 -27 -45 3 -45 2 -20 5 -20 4 3 -40 4 -39
-12 -16 -13 -15 -11 4 -11 4 -12 -13 -13 -13 0 -10 0 -10 22 -21 23 -21 18 5
18 4 -1 -36 -2 -37 1 -13 1 -13 48 3 47 3 0 32 0 32 12 12 12 12 25 -7 26 -6
-3 -21 -2 -21 52 -18 52 -17 3 51 3 51 32 3 33 3 11 20 10 20 -6 19 -6 20 -40
0 -39 0 0 35 0 35 -62 -7 -61 -6 6 31 6 31 -15 16 -15 15 -4 0 -4 0 -6 -10z"/>
</g>
</svg>
