<?xml version="1.0" standalone="no"?>
<!DOCTYPE svg PUBLIC "-//W3C//DTD SVG 20010904//EN"
 "http://www.w3.org/TR/2001/REC-SVG-20010904/DTD/svg10.dtd">
<svg version="1.0" xmlns="http://www.w3.org/2000/svg"
 width="46.000000pt" height="44.000000pt" viewBox="0 0 46.000000 44.000000"
 preserveAspectRatio="xMidYMid meet">
<metadata>
Created by potrace 1.16, written by Peter Selinger 2001-2019
</metadata>
<g transform="translate(0.000000,44.000000) scale(0.100000,-0.100000)"
fill="#000000" stroke="none">
<path d="M195 430 l-6 -10 6 -19 6 -20 -20 -10 -20 -11 -35 0 -36 0 0 -55 0
-55 -40 0 -41 0 -6 -16 -6 -17 10 -16 10 -16 24 0 24 0 3 -20 3 -20 10 -32 11
-33 43 0 44 0 -5 -13 -5 -14 10 -26 11 -27 30 0 31 0 20 10 19 11 0 29 0 30
51 0 51 0 -7 23 -7 22 -5 22 -5 23 29 0 29 0 18 13 17 13 -3 39 -3 40 -37 3
-38 3 0 40 0 39 -55 0 -55 0 0 24 0 24 -6 16 -6 16 -28 0 -29 0 -6 -10z"/>
</g>
</svg>
