<?xml version="1.0" standalone="no"?>
<!DOCTYPE svg PUBLIC "-//W3C//DTD SVG 20010904//EN"
 "http://www.w3.org/TR/2001/REC-SVG-20010904/DTD/svg10.dtd">
<svg version="1.0" xmlns="http://www.w3.org/2000/svg"
 width="44.000000pt" height="42.000000pt" viewBox="0 0 44.000000 42.000000"
 preserveAspectRatio="xMidYMid meet">
<metadata>
Created by potrace 1.16, written by Peter Selinger 2001-2019
</metadata>
<g transform="translate(0.000000,42.000000) scale(0.100000,-0.100000)"
fill="#000000" stroke="none">
<path d="M199 413 l-1 -8 2 -22 1 -22 -20 -10 -20 -11 -35 0 -36 0 0 -55 0
-55 -39 0 -40 0 -6 -10 -7 -11 12 -13 11 -14 19 5 20 5 4 -13 4 -14 11 -42 12
-43 44 0 44 0 -1 -29 -1 -28 7 -12 7 -11 23 0 22 0 19 13 18 14 -5 26 -5 27
54 0 54 0 -11 19 -10 20 0 25 0 26 28 0 28 0 18 13 18 13 -4 29 -3 30 -37 3
-38 3 0 39 0 39 -57 3 -58 3 3 14 3 15 -6 23 -5 23 -20 0 -20 0 -1 -7z"/>
</g>
</svg>
