<?xml version="1.0" standalone="no"?>
<!DOCTYPE svg PUBLIC "-//W3C//DTD SVG 20010904//EN"
 "http://www.w3.org/TR/2001/REC-SVG-20010904/DTD/svg10.dtd">
<svg version="1.0" xmlns="http://www.w3.org/2000/svg"
 width="31.000000pt" height="43.000000pt" viewBox="0 0 31.000000 43.000000"
 preserveAspectRatio="xMidYMid meet">
<metadata>
Created by potrace 1.16, written by Peter Selinger 2001-2019
</metadata>
<g transform="translate(0.000000,43.000000) scale(0.100000,-0.100000)"
fill="#000000" stroke="none">
<path d="M132 418 l-12 -12 0 -28 0 -28 -48 0 -48 0 -12 -12 -12 -12 0 -31 0
-30 6 -23 7 -23 35 3 35 3 5 -13 4 -12 -25 0 -26 0 -16 -56 -16 -57 12 -7 12
-8 38 -6 38 -6 3 -28 3 -27 24 -3 23 -4 24 6 24 6 0 25 0 25 45 0 46 0 4 13 4
12 -7 55 -7 55 -27 3 -28 3 0 15 0 14 29 0 29 0 6 16 6 16 0 44 0 45 -57 -3
-58 -3 -5 40 -5 40 -20 3 -20 3 -13 -13z"/>
</g>
</svg>
