<?xml version="1.0" standalone="no"?>
<!DOCTYPE svg PUBLIC "-//W3C//DTD SVG 20010904//EN"
 "http://www.w3.org/TR/2001/REC-SVG-20010904/DTD/svg10.dtd">
<svg version="1.0" xmlns="http://www.w3.org/2000/svg"
 width="45.000000pt" height="43.000000pt" viewBox="0 0 45.000000 43.000000"
 preserveAspectRatio="xMidYMid meet">
<metadata>
Created by potrace 1.16, written by Peter Selinger 2001-2019
</metadata>
<g transform="translate(0.000000,43.000000) scale(0.100000,-0.100000)"
fill="#000000" stroke="none">
<path d="M183 404 l4 -25 -14 -15 -14 -14 -39 0 -39 0 -3 -42 -3 -43 -35 -5
-35 -5 -3 -32 -3 -32 20 -20 21 -21 25 0 25 0 -6 -40 -7 -40 26 0 26 0 25 -9
24 -10 4 -23 3 -23 40 0 40 0 3 38 3 38 17 -5 17 -4 36 -6 37 -6 6 22 6 23 0
23 0 22 18 0 18 0 12 12 12 12 0 32 0 32 -6 16 -6 16 -29 0 -29 0 0 34 0 35
-12 8 -13 7 -40 6 -40 5 -3 33 -3 32 -46 0 -45 0 5 -26z"/>
</g>
</svg>
