<?xml version="1.0" standalone="no"?>
<!DOCTYPE svg PUBLIC "-//W3C//DTD SVG 20010904//EN"
 "http://www.w3.org/TR/2001/REC-SVG-20010904/DTD/svg10.dtd">
<svg version="1.0" xmlns="http://www.w3.org/2000/svg"
 width="43.000000pt" height="41.000000pt" viewBox="0 0 43.000000 41.000000"
 preserveAspectRatio="xMidYMid meet">
<metadata>
Created by potrace 1.16, written by Peter Selinger 2001-2019
</metadata>
<g transform="translate(0.000000,41.000000) scale(0.100000,-0.100000)"
fill="#000000" stroke="none">
<path d="M186 386 l5 -23 -16 -17 -16 -16 -39 0 -39 0 -3 -42 -3 -43 -35 -5
-35 -5 -3 -22 -3 -22 21 -21 22 -22 25 7 26 6 -6 -45 -7 -46 25 0 24 0 25 -9
24 -10 4 -23 3 -23 30 0 30 0 1 32 0 33 6 5 6 6 51 -9 51 -9 6 36 6 36 4 13 4
13 10 -6 11 -7 14 12 15 12 0 27 0 26 -9 13 -8 14 -24 -4 -24 -3 -3 35 -3 35
-10 9 -9 10 -42 5 -43 6 -3 33 -3 32 -35 0 -34 0 6 -24z"/>
</g>
</svg>
