<?xml version="1.0" standalone="no"?>
<!DOCTYPE svg PUBLIC "-//W3C//DTD SVG 20010904//EN"
 "http://www.w3.org/TR/2001/REC-SVG-20010904/DTD/svg10.dtd">
<svg version="1.0" xmlns="http://www.w3.org/2000/svg"
 width="44.000000pt" height="32.000000pt" viewBox="0 0 44.000000 32.000000"
 preserveAspectRatio="xMidYMid meet">
<metadata>
Created by potrace 1.16, written by Peter Selinger 2001-2019
</metadata>
<g transform="translate(0.000000,32.000000) scale(0.100000,-0.100000)"
fill="#000000" stroke="none">
<path d="M118 313 l-28 -4 0 -44 0 -44 -33 6 -33 5 -13 -15 -12 -16 3 -33 3
-33 40 -5 40 -5 -2 -51 -2 -51 67 1 67 1 -3 38 -3 37 11 0 10 0 1 -17 2 -18 1
-30 1 -30 19 -3 20 -4 52 12 52 13 7 36 6 36 5 18 5 17 20 0 19 0 0 38 0 37
-8 11 -7 12 -20 3 -20 4 -3 33 -3 32 -38 0 -38 0 -33 -6 -32 -7 5 -24 4 -23
-7 -5 -8 -5 -16 6 -16 6 0 39 0 39 -27 -1 -28 -2 -27 -4z"/>
</g>
</svg>
