<?xml version="1.0" standalone="no"?>
<!DOCTYPE svg PUBLIC "-//W3C//DTD SVG 20010904//EN"
 "http://www.w3.org/TR/2001/REC-SVG-20010904/DTD/svg10.dtd">
<svg version="1.0" xmlns="http://www.w3.org/2000/svg"
 width="34.000000pt" height="27.000000pt" viewBox="0 0 34.000000 27.000000"
 preserveAspectRatio="xMidYMid meet">
<metadata>
Created by potrace 1.16, written by Peter Selinger 2001-2019
</metadata>
<g transform="translate(0.000000,27.000000) scale(0.100000,-0.100000)"
fill="#000000" stroke="none">
<path d="M70 239 l0 -30 -10 -20 -11 -19 -18 0 -19 0 -6 -15 -5 -15 19 -10 19
-10 6 -22 6 -23 11 -37 11 -38 42 0 43 0 5 29 6 28 16 7 17 6 10 -6 9 -6 -5
-13 -5 -14 12 -9 12 -10 48 -4 47 -3 6 17 5 17 -7 36 -7 37 -23 -5 -24 -4 -5
18 -6 19 8 12 8 13 25 0 25 0 3 39 3 39 -8 7 -8 7 -47 -14 -47 -14 6 -14 5
-15 -30 0 -30 0 -12 15 -12 15 5 20 5 20 -49 0 -49 0 0 -31z"/>
</g>
</svg>
