<?xml version="1.0" standalone="no"?>
<!DOCTYPE svg PUBLIC "-//W3C//DTD SVG 20010904//EN"
 "http://www.w3.org/TR/2001/REC-SVG-20010904/DTD/svg10.dtd">
<svg version="1.0" xmlns="http://www.w3.org/2000/svg"
 width="41.000000pt" height="34.000000pt" viewBox="0 0 41.000000 34.000000"
 preserveAspectRatio="xMidYMid meet">
<metadata>
Created by potrace 1.16, written by Peter Selinger 2001-2019
</metadata>
<g transform="translate(0.000000,34.000000) scale(0.100000,-0.100000)"
fill="#000000" stroke="none">
<path d="M68 288 l-3 -53 -25 0 -25 0 -8 -13 -8 -12 6 -19 5 -18 24 4 23 5 7
-37 7 -36 -6 -19 -6 -19 53 -3 52 -3 1 -30 0 -30 40 0 40 0 5 30 5 30 38 3 39
3 -8 27 -8 27 0 35 -1 35 45 0 45 0 3 23 3 22 -28 0 -29 0 -12 12 -12 12 0 34
0 34 -37 -7 -38 -7 -6 -4 -7 -4 5 -20 5 -19 -25 -12 -26 -12 -17 7 -16 6 6 30
6 31 -26 9 -25 10 -29 0 -29 0 -3 -52z"/>
</g>
</svg>
