<?xml version="1.0" standalone="no"?>
<!DOCTYPE svg PUBLIC "-//W3C//DTD SVG 20010904//EN"
 "http://www.w3.org/TR/2001/REC-SVG-20010904/DTD/svg10.dtd">
<svg version="1.0" xmlns="http://www.w3.org/2000/svg"
 width="43.000000pt" height="36.000000pt" viewBox="0 0 43.000000 36.000000"
 preserveAspectRatio="xMidYMid meet">
<metadata>
Created by potrace 1.16, written by Peter Selinger 2001-2019
</metadata>
<g transform="translate(0.000000,36.000000) scale(0.100000,-0.100000)"
fill="#000000" stroke="none">
<path d="M68 308 l-3 -53 -27 3 -26 3 -7 -21 -7 -21 7 -26 6 -25 23 6 24 6 5
-28 5 -27 -5 -28 -5 -27 50 0 51 0 3 -33 3 -32 50 0 50 0 5 30 5 30 39 3 38 3
-6 32 -6 32 -6 27 -6 27 48 3 49 3 3 33 3 32 -28 0 -29 0 -12 12 -12 12 0 33
0 33 -27 -1 -28 -1 -25 -7 -25 -7 0 -23 0 -23 -18 -9 -17 -10 -10 6 -9 6 6 29
5 30 -26 10 -27 10 -39 0 -39 0 -3 -52z"/>
</g>
</svg>
