<?xml version="1.0" standalone="no"?>
<!DOCTYPE svg PUBLIC "-//W3C//DTD SVG 20010904//EN"
 "http://www.w3.org/TR/2001/REC-SVG-20010904/DTD/svg10.dtd">
<svg version="1.0" xmlns="http://www.w3.org/2000/svg"
 width="44.000000pt" height="29.000000pt" viewBox="0 0 44.000000 29.000000"
 preserveAspectRatio="xMidYMid meet">
<metadata>
Created by potrace 1.16, written by Peter Selinger 2001-2019
</metadata>
<g transform="translate(0.000000,29.000000) scale(0.100000,-0.100000)"
fill="#000000" stroke="none">
<path d="M78 238 l-3 -53 -32 -3 -32 -3 -6 -20 -7 -20 12 -14 11 -14 22 -3 22
-3 -2 -53 -2 -53 67 3 67 3 1 40 0 40 20 0 19 0 3 -22 3 -22 12 -9 12 -10 43
-7 42 -7 0 39 0 38 6 22 6 22 14 -6 14 -5 25 6 25 6 0 25 0 25 -35 0 -34 0
-11 19 -10 20 0 36 0 36 -47 -3 -48 -3 0 -24 0 -24 -22 -10 -22 -10 -16 7 -16
6 6 21 7 21 -13 9 -14 9 -42 0 -42 0 -3 -52z"/>
</g>
</svg>
