<?xml version="1.0" standalone="no"?>
<!DOCTYPE svg PUBLIC "-//W3C//DTD SVG 20010904//EN"
 "http://www.w3.org/TR/2001/REC-SVG-20010904/DTD/svg10.dtd">
<svg version="1.0" xmlns="http://www.w3.org/2000/svg"
 width="27.000000pt" height="33.000000pt" viewBox="0 0 27.000000 33.000000"
 preserveAspectRatio="xMidYMid meet">
<metadata>
Created by potrace 1.16, written by Peter Selinger 2001-2019
</metadata>
<g transform="translate(0.000000,33.000000) scale(0.100000,-0.100000)"
fill="#000000" stroke="none">
<path d="M0 284 l0 -45 20 6 19 6 21 -11 21 -11 -3 -27 -3 -27 -17 1 -17 2
-16 -53 -15 -53 0 -7 0 -7 33 2 32 2 16 -1 16 -1 -5 -30 -4 -30 24 0 24 0 12
12 12 12 0 34 0 34 33 -8 32 -7 15 -1 15 -1 3 46 3 46 -29 -5 -28 -4 -13 16
-13 15 4 23 3 23 38 3 38 3 -3 42 -3 42 -47 3 -46 3 5 -19 5 -20 -12 -22 -11
-21 -32 3 -32 3 3 27 3 27 -20 10 -20 11 -30 0 -31 0 0 -46z"/>
</g>
</svg>
