<?xml version="1.0" standalone="no"?>
<!DOCTYPE svg PUBLIC "-//W3C//DTD SVG 20010904//EN"
 "http://www.w3.org/TR/2001/REC-SVG-20010904/DTD/svg10.dtd">
<svg version="1.0" xmlns="http://www.w3.org/2000/svg"
 width="34.000000pt" height="35.000000pt" viewBox="0 0 34.000000 35.000000"
 preserveAspectRatio="xMidYMid meet">
<metadata>
Created by potrace 1.16, written by Peter Selinger 2001-2019
</metadata>
<g transform="translate(0.000000,35.000000) scale(0.100000,-0.100000)"
fill="#000000" stroke="none">
<path d="M255 329 l7 -21 -13 -24 -12 -24 -28 0 -27 0 -6 15 -5 15 6 16 6 16
-14 9 -14 9 -37 0 -37 0 -3 -47 -3 -48 -25 -1 -25 -1 -12 -2 -13 -1 0 -25 0
-24 20 -11 20 -10 25 6 25 6 0 -40 0 -41 -10 -6 -10 -6 0 -11 0 -10 48 7 49 6
-4 -28 -5 -29 16 -13 15 -13 23 4 23 3 3 27 3 27 45 7 44 6 0 13 0 12 -6 32
-6 31 -24 0 -24 0 -12 25 -11 25 11 26 12 25 33 -3 32 -3 3 46 3 46 -46 1 -46
2 6 -21z"/>
</g>
</svg>
