<?xml version="1.0" standalone="no"?>
<!DOCTYPE svg PUBLIC "-//W3C//DTD SVG 20010904//EN"
 "http://www.w3.org/TR/2001/REC-SVG-20010904/DTD/svg10.dtd">
<svg version="1.0" xmlns="http://www.w3.org/2000/svg"
 width="36.000000pt" height="37.000000pt" viewBox="0 0 36.000000 37.000000"
 preserveAspectRatio="xMidYMid meet">
<metadata>
Created by potrace 1.16, written by Peter Selinger 2001-2019
</metadata>
<g transform="translate(0.000000,37.000000) scale(0.100000,-0.100000)"
fill="#000000" stroke="none">
<path d="M253 343 l5 -28 -12 -17 -13 -18 -17 0 -16 0 0 34 0 34 -16 6 -16 6
-43 0 -44 0 -3 -47 -3 -48 -14 3 -15 3 -23 -6 -23 -5 0 -35 0 -34 21 -12 21
-11 24 5 24 4 0 -28 0 -28 -10 -6 -10 -6 0 -21 0 -21 45 5 45 6 0 -28 0 -28
14 -11 15 -12 33 3 33 3 3 27 3 27 45 7 44 6 0 23 0 23 -6 31 -6 31 -24 0 -23
0 -11 20 -11 20 10 18 10 17 33 0 33 0 3 58 3 57 -57 0 -56 0 5 -27z"/>
</g>
</svg>
