<?xml version="1.0" standalone="no"?>
<!DOCTYPE svg PUBLIC "-//W3C//DTD SVG 20010904//EN"
 "http://www.w3.org/TR/2001/REC-SVG-20010904/DTD/svg10.dtd">
<svg version="1.0" xmlns="http://www.w3.org/2000/svg"
 width="45.000000pt" height="30.000000pt" viewBox="0 0 45.000000 30.000000"
 preserveAspectRatio="xMidYMid meet">
<metadata>
Created by potrace 1.16, written by Peter Selinger 2001-2019
</metadata>
<g transform="translate(0.000000,30.000000) scale(0.100000,-0.100000)"
fill="#000000" stroke="none">
<path d="M76 263 l6 -40 -11 -22 -12 -21 -29 0 -30 0 0 -24 0 -24 14 -12 15
-11 23 3 23 3 3 -58 3 -57 49 0 48 0 16 6 16 6 0 40 0 40 13 -4 12 -5 3 -30 3
-30 56 -12 56 -11 12 0 12 0 13 45 13 45 17 0 18 0 6 16 6 16 0 28 0 28 -15
12 -15 12 -25 -6 -25 -6 0 45 0 45 -13 0 -13 0 -47 -16 -47 -16 0 -19 0 -20
-15 -5 -15 -6 -15 12 -15 13 6 33 6 34 -43 0 -44 0 -23 6 -23 6 7 -39z"/>
</g>
</svg>
