<?xml version="1.0" standalone="no"?>
<!DOCTYPE svg PUBLIC "-//W3C//DTD SVG 20010904//EN"
 "http://www.w3.org/TR/2001/REC-SVG-20010904/DTD/svg10.dtd">
<svg version="1.0" xmlns="http://www.w3.org/2000/svg"
 width="43.000000pt" height="28.000000pt" viewBox="0 0 43.000000 28.000000"
 preserveAspectRatio="xMidYMid meet">
<metadata>
Created by potrace 1.16, written by Peter Selinger 2001-2019
</metadata>
<g transform="translate(0.000000,28.000000) scale(0.100000,-0.100000)"
fill="#000000" stroke="none">
<path d="M80 234 l0 -35 -10 -20 -11 -19 -29 0 -30 0 0 -14 0 -15 13 -8 12 -8
25 0 25 0 3 -58 3 -57 42 0 42 0 13 9 14 8 -4 34 -3 34 25 0 25 0 3 -31 3 -31
56 -12 56 -11 2 3 2 2 15 45 15 45 16 -3 16 -3 7 27 7 27 -10 16 -11 16 -31
-3 -31 -3 0 45 0 46 -3 0 -3 0 -48 -16 -47 -16 5 -13 4 -13 -11 -11 -11 -11
-22 0 -22 0 -12 15 -12 15 6 30 6 30 -50 0 -50 0 0 -36z"/>
</g>
</svg>
