<?xml version="1.0" standalone="no"?>
<!DOCTYPE svg PUBLIC "-//W3C//DTD SVG 20010904//EN"
 "http://www.w3.org/TR/2001/REC-SVG-20010904/DTD/svg10.dtd">
<svg version="1.0" xmlns="http://www.w3.org/2000/svg"
 width="36.000000pt" height="38.000000pt" viewBox="0 0 36.000000 38.000000"
 preserveAspectRatio="xMidYMid meet">
<metadata>
Created by potrace 1.16, written by Peter Selinger 2001-2019
</metadata>
<g transform="translate(0.000000,38.000000) scale(0.100000,-0.100000)"
fill="#000000" stroke="none">
<path d="M220 371 l-45 -6 -1 -33 -1 -33 -11 -11 -11 -11 -16 7 -17 6 7 40 7
40 -66 0 -66 0 0 -145 0 -145 45 0 45 0 0 -30 0 -30 26 -10 25 -10 9 0 9 0 15
16 16 15 0 31 0 31 50 -7 50 -7 0 55 0 55 33 3 32 3 0 35 0 35 -39 3 -39 3 7
55 6 54 -12 -2 -13 -1 -45 -6z"/>
</g>
</svg>
