<?xml version="1.0" standalone="no"?>
<!DOCTYPE svg PUBLIC "-//W3C//DTD SVG 20010904//EN"
 "http://www.w3.org/TR/2001/REC-SVG-20010904/DTD/svg10.dtd">
<svg version="1.0" xmlns="http://www.w3.org/2000/svg"
 width="34.000000pt" height="36.000000pt" viewBox="0 0 34.000000 36.000000"
 preserveAspectRatio="xMidYMid meet">
<metadata>
Created by potrace 1.16, written by Peter Selinger 2001-2019
</metadata>
<g transform="translate(0.000000,36.000000) scale(0.100000,-0.100000)"
fill="#000000" stroke="none">
<path d="M220 351 l-45 -6 2 -23 3 -23 -11 -20 -10 -20 -27 3 -27 3 1 43 1 42
-54 0 -53 0 0 -134 0 -135 48 -3 47 -3 0 -29 0 -29 22 -8 22 -8 17 16 16 16
-5 30 -4 29 54 -4 53 -5 0 53 0 53 33 3 32 3 0 25 0 25 -35 0 -35 0 0 58 1 57
-1 -2 0 -1 -45 -6z"/>
</g>
</svg>
