<?xml version="1.0" standalone="no"?>
<!DOCTYPE svg PUBLIC "-//W3C//DTD SVG 20010904//EN"
 "http://www.w3.org/TR/2001/REC-SVG-20010904/DTD/svg10.dtd">
<svg version="1.0" xmlns="http://www.w3.org/2000/svg"
 width="26.000000pt" height="34.000000pt" viewBox="0 0 26.000000 34.000000"
 preserveAspectRatio="xMidYMid meet">
<metadata>
Created by potrace 1.16, written by Peter Selinger 2001-2019
</metadata>
<g transform="translate(0.000000,34.000000) scale(0.100000,-0.100000)"
fill="#000000" stroke="none">
<path d="M160 301 l0 -39 -15 -12 -15 -12 -25 16 -25 16 0 30 0 30 -40 0 -40
0 0 -34 0 -34 6 -15 6 -15 34 5 34 6 6 -16 6 -15 -12 -22 -12 -22 -34 5 -35 6
3 -52 3 -52 40 -3 40 -3 13 -11 12 -11 -1 -11 -1 -11 1 -12 1 -13 23 0 22 0
14 9 14 9 -7 11 -7 10 28 7 28 6 18 5 18 5 -5 11 -5 12 -12 37 -12 38 -18 0
-19 0 -6 25 -6 25 12 15 12 14 29 -6 29 -5 0 50 0 50 -22 6 -23 6 -27 0 -28 0
0 -39z"/>
</g>
</svg>
