<?xml version="1.0" standalone="no"?>
<!DOCTYPE svg PUBLIC "-//W3C//DTD SVG 20010904//EN"
 "http://www.w3.org/TR/2001/REC-SVG-20010904/DTD/svg10.dtd">
<svg version="1.0" xmlns="http://www.w3.org/2000/svg"
 width="40.000000pt" height="34.000000pt" viewBox="0 0 40.000000 34.000000"
 preserveAspectRatio="xMidYMid meet">
<metadata>
Created by potrace 1.16, written by Peter Selinger 2001-2019
</metadata>
<g transform="translate(0.000000,34.000000) scale(0.100000,-0.100000)"
fill="#000000" stroke="none">
<path d="M70 281 l0 -59 -32 2 -32 1 -4 -17 -3 -18 40 0 41 0 0 -44 0 -45 -10
-6 -10 -6 0 -10 0 -9 56 0 56 0 -6 -25 -6 -24 20 -11 20 -11 20 11 20 11 -3
22 -2 22 47 3 46 3 13 52 12 52 11 11 11 11 13 -5 12 -4 0 24 0 24 -32 9 -33
10 -3 43 -3 42 -50 0 -49 0 0 -32 0 -33 -9 -13 -8 -14 -24 4 -24 3 -3 36 -3
37 -22 6 -22 6 -22 0 -23 0 0 -59z"/>
</g>
</svg>
