<?xml version="1.0" standalone="no"?>
<!DOCTYPE svg PUBLIC "-//W3C//DTD SVG 20010904//EN"
 "http://www.w3.org/TR/2001/REC-SVG-20010904/DTD/svg10.dtd">
<svg version="1.0" xmlns="http://www.w3.org/2000/svg"
 width="36.000000pt" height="38.000000pt" viewBox="0 0 36.000000 38.000000"
 preserveAspectRatio="xMidYMid meet">
<metadata>
Created by potrace 1.16, written by Peter Selinger 2001-2019
</metadata>
<g transform="translate(0.000000,38.000000) scale(0.100000,-0.100000)"
fill="#000000" stroke="none">
<path d="M73 354 l5 -28 -9 -24 -9 -24 -30 7 -30 7 0 -41 0 -41 19 0 20 0 15
-54 16 -54 0 -11 0 -11 8 0 7 0 33 9 32 10 0 -34 0 -34 16 -15 15 -16 24 0 24
0 16 17 17 16 -5 30 -4 29 55 -5 54 -6 -6 22 -6 22 0 128 0 128 -57 -3 -58 -3
-1 -25 0 -26 -8 -12 -7 -12 -17 9 -16 9 -1 29 0 28 -59 3 -59 3 6 -27z"/>
</g>
</svg>
