<?xml version="1.0" standalone="no"?>
<!DOCTYPE svg PUBLIC "-//W3C//DTD SVG 20010904//EN"
 "http://www.w3.org/TR/2001/REC-SVG-20010904/DTD/svg10.dtd">
<svg version="1.0" xmlns="http://www.w3.org/2000/svg"
 width="34.000000pt" height="36.000000pt" viewBox="0 0 34.000000 36.000000"
 preserveAspectRatio="xMidYMid meet">
<metadata>
Created by potrace 1.16, written by Peter Selinger 2001-2019
</metadata>
<g transform="translate(0.000000,36.000000) scale(0.100000,-0.100000)"
fill="#000000" stroke="none">
<path d="M75 338 l6 -24 -11 -28 -10 -28 -30 4 -30 5 0 -28 0 -28 14 5 14 6
10 -19 9 -18 13 -51 13 -52 31 9 31 9 12 0 12 0 -6 -33 -5 -34 17 -16 16 -17
14 0 14 0 16 16 16 16 -6 29 -7 29 51 0 51 0 0 136 0 135 -47 -3 -48 -3 3 -26
2 -26 -15 -13 -16 -13 -25 11 -25 12 3 27 3 28 -48 3 -48 3 6 -23z"/>
</g>
</svg>
