<?xml version="1.0" standalone="no"?>
<!DOCTYPE svg PUBLIC "-//W3C//DTD SVG 20010904//EN"
 "http://www.w3.org/TR/2001/REC-SVG-20010904/DTD/svg10.dtd">
<svg version="1.0" xmlns="http://www.w3.org/2000/svg"
 width="37.000000pt" height="44.000000pt" viewBox="0 0 37.000000 44.000000"
 preserveAspectRatio="xMidYMid meet">
<metadata>
Created by potrace 1.16, written by Peter Selinger 2001-2019
</metadata>
<g transform="translate(0.000000,44.000000) scale(0.100000,-0.100000)"
fill="#000000" stroke="none">
<path d="M114 426 l-5 -13 3 -29 3 -29 -57 -3 -58 -3 0 -40 0 -40 10 -20 11
-19 29 0 29 0 6 -9 5 -10 -12 -7 -12 -8 -26 0 -25 -1 -7 -55 -6 -55 4 -7 5 -8
40 0 39 0 0 -21 0 -22 18 -13 17 -13 38 -1 39 0 5 20 5 20 37 10 36 10 13 0
12 0 0 24 0 23 6 31 6 30 25 7 24 6 -3 36 -3 37 -25 6 -25 6 -3 24 -3 25 -4
22 -5 22 -42 8 -43 9 -3 19 -4 20 -10 13 -10 12 -35 0 -34 0 -5 -14z"/>
</g>
</svg>
