<?xml version="1.0" standalone="no"?>
<!DOCTYPE svg PUBLIC "-//W3C//DTD SVG 20010904//EN"
 "http://www.w3.org/TR/2001/REC-SVG-20010904/DTD/svg10.dtd">
<svg version="1.0" xmlns="http://www.w3.org/2000/svg"
 width="35.000000pt" height="42.000000pt" viewBox="0 0 35.000000 42.000000"
 preserveAspectRatio="xMidYMid meet">
<metadata>
Created by potrace 1.16, written by Peter Selinger 2001-2019
</metadata>
<g transform="translate(0.000000,42.000000) scale(0.100000,-0.100000)"
fill="#000000" stroke="none">
<path d="M118 413 l-1 -8 -1 -35 -1 -35 -57 -3 -58 -3 0 -30 0 -30 11 -21 11
-20 28 6 29 5 6 -20 7 -20 -13 -15 -12 -14 -26 2 -26 3 -5 -48 -6 -48 5 -4 4
-5 43 0 42 0 -5 -20 -6 -21 19 -14 19 -14 28 -1 29 0 5 20 5 20 37 10 36 10
13 0 12 0 0 24 0 24 6 30 6 30 25 7 24 6 -3 27 -3 27 -5 -4 -5 -4 -22 12 -23
12 0 29 0 28 -6 16 -6 16 -39 6 -39 6 -11 14 -12 14 6 7 7 6 -11 14 -11 13
-24 0 -24 0 -2 -7z"/>
</g>
</svg>
