<?xml version="1.0" standalone="no"?>
<!DOCTYPE svg PUBLIC "-//W3C//DTD SVG 20010904//EN"
 "http://www.w3.org/TR/2001/REC-SVG-20010904/DTD/svg10.dtd">
<svg version="1.0" xmlns="http://www.w3.org/2000/svg"
 width="41.000000pt" height="42.000000pt" viewBox="0 0 41.000000 42.000000"
 preserveAspectRatio="xMidYMid meet">
<metadata>
Created by potrace 1.16, written by Peter Selinger 2001-2019
</metadata>
<g transform="translate(0.000000,42.000000) scale(0.100000,-0.100000)"
fill="#000000" stroke="none">
<path d="M190 389 l0 -32 -17 -13 -18 -13 -37 -1 -38 0 0 -49 0 -48 -23 4 -24
5 -16 -16 -16 -17 5 -14 6 -15 29 0 29 0 5 -23 5 -22 2 -30 3 -30 40 -5 39 -5
1 -30 0 -30 35 -3 34 -4 13 17 12 17 -6 31 -6 30 34 -6 34 -6 21 -6 21 -7 13
46 12 46 14 11 14 11 0 29 0 29 -33 0 -34 0 1 43 1 42 -25 -4 -25 -5 -35 0
-35 -1 3 32 3 32 -11 21 -11 20 -9 0 -10 0 0 -31z"/>
</g>
</svg>
