<?xml version="1.0" standalone="no"?>
<!DOCTYPE svg PUBLIC "-//W3C//DTD SVG 20010904//EN"
 "http://www.w3.org/TR/2001/REC-SVG-20010904/DTD/svg10.dtd">
<svg version="1.0" xmlns="http://www.w3.org/2000/svg"
 width="37.000000pt" height="38.000000pt" viewBox="0 0 37.000000 38.000000"
 preserveAspectRatio="xMidYMid meet">
<metadata>
Created by potrace 1.16, written by Peter Selinger 2001-2019
</metadata>
<g transform="translate(0.000000,38.000000) scale(0.100000,-0.100000)"
fill="#000000" stroke="none">
<path d="M120 366 l-11 -15 3 -18 3 -18 -8 -12 -8 -13 -45 0 -44 0 0 -24 0
-23 -6 -32 -7 -31 37 0 36 0 0 -17 0 -16 -14 -16 -13 -16 -12 -34 -11 -34 0
-18 0 -19 39 0 40 0 15 16 16 15 0 25 0 24 19 0 20 0 3 -32 3 -33 40 -7 40 -6
23 -7 22 -7 0 51 0 51 30 0 30 0 6 24 6 24 -4 23 -3 24 -32 9 -32 10 -3 40 -3
41 -50 16 -50 16 3 18 4 18 -14 8 -13 9 -21 0 -22 0 -12 -14z"/>
</g>
</svg>
