<?xml version="1.0" standalone="no"?>
<!DOCTYPE svg PUBLIC "-//W3C//DTD SVG 20010904//EN"
 "http://www.w3.org/TR/2001/REC-SVG-20010904/DTD/svg10.dtd">
<svg version="1.0" xmlns="http://www.w3.org/2000/svg"
 width="35.000000pt" height="36.000000pt" viewBox="0 0 35.000000 36.000000"
 preserveAspectRatio="xMidYMid meet">
<metadata>
Created by potrace 1.16, written by Peter Selinger 2001-2019
</metadata>
<g transform="translate(0.000000,36.000000) scale(0.100000,-0.100000)"
fill="#000000" stroke="none">
<path d="M121 346 l-11 -13 6 -17 6 -16 -12 -15 -12 -15 -44 0 -44 0 0 -29 0
-29 -6 -16 -6 -16 36 0 36 0 0 -27 0 -26 -14 -16 -13 -16 -12 -34 -11 -34 0
-8 0 -9 29 0 30 0 16 16 16 17 -5 23 -6 24 34 0 35 0 3 -33 3 -32 40 -5 40 -6
12 -7 12 -8 3 53 3 53 24 -3 24 -4 8 14 9 13 0 22 0 22 -19 11 -20 10 -15 -6
-15 -6 -3 49 -3 48 -50 16 -50 16 0 19 0 19 -10 7 -10 8 -11 0 -12 0 -11 -14z"/>
</g>
</svg>
