<?xml version="1.0" standalone="no"?>
<!DOCTYPE svg PUBLIC "-//W3C//DTD SVG 20010904//EN"
 "http://www.w3.org/TR/2001/REC-SVG-20010904/DTD/svg10.dtd">
<svg version="1.0" xmlns="http://www.w3.org/2000/svg"
 width="36.000000pt" height="28.000000pt" viewBox="0 0 36.000000 28.000000"
 preserveAspectRatio="xMidYMid meet">
<metadata>
Created by potrace 1.16, written by Peter Selinger 2001-2019
</metadata>
<g transform="translate(0.000000,28.000000) scale(0.100000,-0.100000)"
fill="#000000" stroke="none">
<path d="M10 230 l0 -50 24 0 24 0 12 -15 12 -15 -6 -15 -5 -15 -36 0 -35 0 0
-17 0 -18 6 -38 7 -37 34 0 34 0 20 10 19 11 0 25 0 25 23 -3 22 -3 -2 -38 -2
-37 39 0 39 0 24 11 25 11 9 42 9 41 13 -3 12 -2 15 14 14 15 0 19 0 20 -14
12 -15 11 -23 -3 -23 -3 -5 50 -5 50 -7 -11 -8 -12 -35 -6 -36 -7 -9 -25 -10
-24 -23 0 -24 0 -16 18 -17 19 0 21 0 22 -40 0 -40 0 0 -50z"/>
</g>
</svg>
