<?xml version="1.0" standalone="no"?>
<!DOCTYPE svg PUBLIC "-//W3C//DTD SVG 20010904//EN"
 "http://www.w3.org/TR/2001/REC-SVG-20010904/DTD/svg10.dtd">
<svg version="1.0" xmlns="http://www.w3.org/2000/svg"
 width="28.000000pt" height="36.000000pt" viewBox="0 0 28.000000 36.000000"
 preserveAspectRatio="xMidYMid meet">
<metadata>
Created by potrace 1.16, written by Peter Selinger 2001-2019
</metadata>
<g transform="translate(0.000000,36.000000) scale(0.100000,-0.100000)"
fill="#000000" stroke="none">
<path d="M2 303 l3 -58 25 0 25 0 13 -8 12 -8 0 -14 0 -13 -29 -10 -28 -10 -6
-30 -6 -30 -7 -27 -7 -28 47 6 46 7 0 -23 0 -23 13 -18 13 -18 34 4 35 3 4 20
3 20 12 7 11 8 27 0 27 0 6 10 6 10 -12 59 -11 60 -22 3 -21 3 -3 18 -3 17 23
0 24 0 12 12 12 12 0 48 0 48 -42 0 -43 0 -14 -9 -14 -9 6 -15 6 -16 -14 -11
-14 -12 -18 4 -18 3 0 30 0 30 -58 3 -58 3 3 -58z"/>
</g>
</svg>
