<?xml version="1.0" standalone="no"?>
<!DOCTYPE svg PUBLIC "-//W3C//DTD SVG 20010904//EN"
 "http://www.w3.org/TR/2001/REC-SVG-20010904/DTD/svg10.dtd">
<svg version="1.0" xmlns="http://www.w3.org/2000/svg"
 width="32.000000pt" height="36.000000pt" viewBox="0 0 32.000000 36.000000"
 preserveAspectRatio="xMidYMid meet">
<metadata>
Created by potrace 1.16, written by Peter Selinger 2001-2019
</metadata>
<g transform="translate(0.000000,36.000000) scale(0.100000,-0.100000)"
fill="#000000" stroke="none">
<path d="M0 325 l0 -36 11 -20 10 -20 27 3 27 3 0 -25 0 -25 -31 -3 -31 -3 -7
-46 -6 -46 0 -18 0 -19 44 0 44 0 -5 -20 -5 -20 12 -15 12 -15 35 0 34 0 15
14 14 15 0 22 0 22 49 -7 48 -6 13 59 13 60 -6 15 -6 15 -47 3 -47 3 -5 13 -4
12 29 0 28 0 13 8 13 9 6 51 6 52 -17 0 -16 0 -18 -9 -17 -10 -27 -6 -28 -5 0
-15 0 -15 -25 -6 -26 -6 -7 7 -7 7 0 26 0 27 -57 3 -58 3 0 -36z"/>
</g>
</svg>
