<?xml version="1.0" standalone="no"?>
<!DOCTYPE svg PUBLIC "-//W3C//DTD SVG 20010904//EN"
 "http://www.w3.org/TR/2001/REC-SVG-20010904/DTD/svg10.dtd">
<svg version="1.0" xmlns="http://www.w3.org/2000/svg"
 width="30.000000pt" height="34.000000pt" viewBox="0 0 30.000000 34.000000"
 preserveAspectRatio="xMidYMid meet">
<metadata>
Created by potrace 1.16, written by Peter Selinger 2001-2019
</metadata>
<g transform="translate(0.000000,34.000000) scale(0.100000,-0.100000)"
fill="#000000" stroke="none">
<path d="M0 313 l0 -28 10 -15 9 -14 28 -1 28 0 0 -35 0 -35 -32 -3 -33 -3 0
-17 0 -17 -6 -38 -7 -37 48 0 47 0 -5 -22 -6 -22 11 -13 10 -13 25 0 24 0 16
15 15 16 -5 21 -6 20 53 -4 54 -4 11 53 12 53 -6 10 -7 11 -39 -3 -39 -2 -11
11 -11 11 4 18 4 19 14 -3 14 -3 22 5 22 6 7 41 7 40 -5 5 -5 5 -19 -10 -18
-10 -28 -6 -28 -6 6 -9 6 -9 -21 -11 -21 -11 -27 3 -27 3 0 30 -1 30 -47 3
-47 3 0 -28z"/>
</g>
</svg>
