<?xml version="1.0" standalone="no"?>
<!DOCTYPE svg PUBLIC "-//W3C//DTD SVG 20010904//EN"
 "http://www.w3.org/TR/2001/REC-SVG-20010904/DTD/svg10.dtd">
<svg version="1.0" xmlns="http://www.w3.org/2000/svg"
 width="43.000000pt" height="27.000000pt" viewBox="0 0 43.000000 27.000000"
 preserveAspectRatio="xMidYMid meet">
<metadata>
Created by potrace 1.16, written by Peter Selinger 2001-2019
</metadata>
<g transform="translate(0.000000,27.000000) scale(0.100000,-0.100000)"
fill="#000000" stroke="none">
<path d="M86 225 l-7 -45 -23 -6 -22 -5 -14 3 -14 3 -4 -19 -4 -18 10 -10 11
-11 43 -1 43 -1 -1 -25 0 -25 -8 -33 -8 -32 51 0 50 0 3 38 3 37 20 0 20 0 3
-22 3 -22 14 -11 14 -11 38 3 38 3 5 50 5 50 27 0 27 0 11 11 12 12 -6 19 -6
20 -31 -5 -31 -5 -9 14 -9 14 0 36 0 35 -42 -6 -43 -5 3 -16 2 -16 -19 -17
-19 -18 -24 4 -23 3 2 30 2 29 -12 8 -12 8 -31 0 -32 0 -6 -45z"/>
</g>
</svg>
