<?xml version="1.0" standalone="no"?>
<!DOCTYPE svg PUBLIC "-//W3C//DTD SVG 20010904//EN"
 "http://www.w3.org/TR/2001/REC-SVG-20010904/DTD/svg10.dtd">
<svg version="1.0" xmlns="http://www.w3.org/2000/svg"
 width="29.000000pt" height="35.000000pt" viewBox="0 0 29.000000 35.000000"
 preserveAspectRatio="xMidYMid meet">
<metadata>
Created by potrace 1.16, written by Peter Selinger 2001-2019
</metadata>
<g transform="translate(0.000000,35.000000) scale(0.100000,-0.100000)"
fill="#000000" stroke="none">
<path d="M47 343 l-38 -4 3 -37 3 -37 20 -1 20 -2 13 -1 12 -1 0 -35 0 -36
-15 -5 -15 -6 -9 -31 -9 -32 -7 -18 -7 -17 45 0 46 0 -1 -29 -1 -28 7 -12 7
-11 19 0 19 0 11 19 10 20 0 32 0 31 33 -7 32 -7 20 -5 20 -4 -3 48 -4 48 -9
10 -9 9 -27 1 -28 0 -3 19 -4 18 11 11 11 11 33 1 32 0 3 43 3 44 -18 -5 -18
-5 -38 -7 -39 -6 6 -14 5 -13 -15 -6 -16 -6 -18 0 -18 0 -6 16 -6 17 5 18 6
19 -18 -2 -18 -1 -38 -4z"/>
</g>
</svg>
