<?xml version="1.0" standalone="no"?>
<!DOCTYPE svg PUBLIC "-//W3C//DTD SVG 20010904//EN"
 "http://www.w3.org/TR/2001/REC-SVG-20010904/DTD/svg10.dtd">
<svg version="1.0" xmlns="http://www.w3.org/2000/svg"
 width="39.000000pt" height="43.000000pt" viewBox="0 0 39.000000 43.000000"
 preserveAspectRatio="xMidYMid meet">
<metadata>
Created by potrace 1.16, written by Peter Selinger 2001-2019
</metadata>
<g transform="translate(0.000000,43.000000) scale(0.100000,-0.100000)"
fill="#000000" stroke="none">
<path d="M200 401 l0 -30 -12 -8 -13 -7 -45 -6 -45 -5 -3 -37 -3 -38 -28 0
-29 0 -11 -14 -12 -15 3 -28 3 -28 35 -12 35 -11 -2 -46 -1 -46 53 0 54 0 3
-33 3 -32 24 -3 23 -4 24 6 24 6 0 25 0 25 33 1 32 1 19 -2 19 -2 -8 59 -7 58
-10 13 -10 12 -25 0 -25 0 5 13 4 12 30 -2 30 -3 12 24 13 24 -7 41 -7 41 -52
0 -53 0 4 23 5 24 -17 16 -16 17 -25 0 -24 0 0 -29z"/>
</g>
</svg>
