<?xml version="1.0" standalone="no"?>
<!DOCTYPE svg PUBLIC "-//W3C//DTD SVG 20010904//EN"
 "http://www.w3.org/TR/2001/REC-SVG-20010904/DTD/svg10.dtd">
<svg version="1.0" xmlns="http://www.w3.org/2000/svg"
 width="45.000000pt" height="37.000000pt" viewBox="0 0 45.000000 37.000000"
 preserveAspectRatio="xMidYMid meet">
<metadata>
Created by potrace 1.16, written by Peter Selinger 2001-2019
</metadata>
<g transform="translate(0.000000,37.000000) scale(0.100000,-0.100000)"
fill="#000000" stroke="none">
<path d="M192 358 l-12 -12 0 -28 0 -28 -51 0 -52 0 6 -40 5 -39 -12 -10 -11
-9 -30 -4 -30 -3 -3 -32 -3 -32 27 -3 27 -3 8 -15 8 -15 6 -37 6 -38 64 0 65
0 0 35 0 35 14 0 15 0 3 -27 3 -28 30 -3 30 -3 28 -11 29 -11 9 14 9 14 11 40
10 41 22 9 22 10 3 23 4 23 -12 15 -12 14 -24 0 -24 0 -4 23 -5 22 -3 20 -3
20 -50 0 -50 0 -5 40 -5 40 -25 3 -25 3 -13 -13z"/>
</g>
</svg>
