<?xml version="1.0" standalone="no"?>
<!DOCTYPE svg PUBLIC "-//W3C//DTD SVG 20010904//EN"
 "http://www.w3.org/TR/2001/REC-SVG-20010904/DTD/svg10.dtd">
<svg version="1.0" xmlns="http://www.w3.org/2000/svg"
 width="43.000000pt" height="35.000000pt" viewBox="0 0 43.000000 35.000000"
 preserveAspectRatio="xMidYMid meet">
<metadata>
Created by potrace 1.16, written by Peter Selinger 2001-2019
</metadata>
<g transform="translate(0.000000,35.000000) scale(0.100000,-0.100000)"
fill="#000000" stroke="none">
<path d="M190 335 l-12 -15 4 -25 5 -25 -54 0 -55 0 6 -35 7 -35 -13 -18 -13
-17 -30 0 -30 0 -3 -22 -3 -22 27 -3 27 -3 8 -15 8 -15 6 -37 6 -38 54 0 55 0
0 36 0 35 27 -3 28 -3 0 -25 0 -25 40 -5 40 -6 13 -7 12 -8 0 3 1 3 18 55 18
55 13 0 13 0 10 17 11 16 -13 16 -13 16 -24 0 -24 0 -4 23 -5 22 -3 20 -3 20
-50 0 -50 0 -5 40 -5 40 -16 3 -16 3 -13 -16z"/>
</g>
</svg>
