<?xml version="1.0" standalone="no"?>
<!DOCTYPE svg PUBLIC "-//W3C//DTD SVG 20010904//EN"
 "http://www.w3.org/TR/2001/REC-SVG-20010904/DTD/svg10.dtd">
<svg version="1.0" xmlns="http://www.w3.org/2000/svg"
 width="36.000000pt" height="43.000000pt" viewBox="0 0 36.000000 43.000000"
 preserveAspectRatio="xMidYMid meet">
<metadata>
Created by potrace 1.16, written by Peter Selinger 2001-2019
</metadata>
<g transform="translate(0.000000,43.000000) scale(0.100000,-0.100000)"
fill="#000000" stroke="none">
<path d="M113 415 l-5 -16 6 -6 6 -6 -11 -14 -11 -13 -44 0 -44 0 0 -49 0 -50
37 -3 38 -3 3 -18 4 -18 -12 -14 -12 -15 -34 0 -34 0 0 -59 0 -59 48 1 47 2
-3 -29 -3 -29 13 -8 13 -9 27 0 27 0 11 19 10 20 0 30 0 31 14 0 13 0 33 -11
32 -12 9 14 9 14 12 44 11 44 19 5 19 5 -3 36 -3 36 -30 0 -30 1 -3 43 -3 43
-22 -7 -22 -7 -22 -5 -23 -5 0 34 0 34 -12 12 -12 12 -28 0 -29 0 -6 -15z"/>
</g>
</svg>
