<?xml version="1.0" standalone="no"?>
<!DOCTYPE svg PUBLIC "-//W3C//DTD SVG 20010904//EN"
 "http://www.w3.org/TR/2001/REC-SVG-20010904/DTD/svg10.dtd">
<svg version="1.0" xmlns="http://www.w3.org/2000/svg"
 width="44.000000pt" height="35.000000pt" viewBox="0 0 44.000000 35.000000"
 preserveAspectRatio="xMidYMid meet">
<metadata>
Created by potrace 1.16, written by Peter Selinger 2001-2019
</metadata>
<g transform="translate(0.000000,35.000000) scale(0.100000,-0.100000)"
fill="#000000" stroke="none">
<path d="M186 335 l-16 -16 0 -20 0 -19 -46 0 -45 0 7 -56 7 -57 -27 7 -26 6
-20 -10 -20 -11 10 -19 10 -19 27 -3 28 -3 5 -45 5 -45 50 0 50 0 3 33 3 32 7
0 7 0 15 -10 15 -9 0 -33 0 -33 24 -3 25 -4 37 12 38 13 8 51 8 51 20 0 20 0
13 8 12 8 0 18 0 18 -20 18 -19 17 -26 -4 -25 -5 0 37 0 38 -16 6 -16 6 -38 0
-39 0 -8 13 -7 12 -1 14 0 14 -11 4 -12 4 -16 -16z"/>
</g>
</svg>
