<?xml version="1.0" standalone="no"?>
<!DOCTYPE svg PUBLIC "-//W3C//DTD SVG 20010904//EN"
 "http://www.w3.org/TR/2001/REC-SVG-20010904/DTD/svg10.dtd">
<svg version="1.0" xmlns="http://www.w3.org/2000/svg"
 width="46.000000pt" height="37.000000pt" viewBox="0 0 46.000000 37.000000"
 preserveAspectRatio="xMidYMid meet">
<metadata>
Created by potrace 1.16, written by Peter Selinger 2001-2019
</metadata>
<g transform="translate(0.000000,37.000000) scale(0.100000,-0.100000)"
fill="#000000" stroke="none">
<path d="M186 355 l-16 -16 0 -20 0 -19 -46 0 -47 0 7 -53 6 -54 -28 4 -27 4
-20 -14 -19 -15 11 -25 12 -26 28 -3 28 -3 5 -45 5 -45 60 0 60 0 3 28 3 27
10 0 9 0 1 -12 1 -13 1 -25 2 -25 35 -3 35 -4 37 13 38 12 6 49 7 48 21 0 22
0 12 12 12 12 0 26 0 27 -18 16 -19 17 -26 0 -27 0 0 35 0 35 -22 5 -23 5 -35
2 -34 3 -6 25 -6 25 -21 3 -21 3 -16 -16z"/>
</g>
</svg>
