<?xml version="1.0" standalone="no"?>
<!DOCTYPE svg PUBLIC "-//W3C//DTD SVG 20010904//EN"
 "http://www.w3.org/TR/2001/REC-SVG-20010904/DTD/svg10.dtd">
<svg version="1.0" xmlns="http://www.w3.org/2000/svg"
 width="28.000000pt" height="41.000000pt" viewBox="0 0 28.000000 41.000000"
 preserveAspectRatio="xMidYMid meet">
<metadata>
Created by potrace 1.16, written by Peter Selinger 2001-2019
</metadata>
<g transform="translate(0.000000,41.000000) scale(0.100000,-0.100000)"
fill="#000000" stroke="none">
<path d="M104 396 l-6 -15 7 -12 8 -11 -14 -9 -14 -9 -42 0 -43 0 0 -51 0 -51
30 -11 30 -11 0 -13 0 -13 -24 -6 -24 -6 -6 -30 -6 -30 0 -29 0 -29 34 0 35 0
3 -27 3 -28 49 -3 49 -3 8 13 9 13 0 23 0 23 38 -3 37 -3 -2 33 -1 33 -6 23
-6 23 -31 7 -30 6 3 22 3 23 32 -3 32 -3 10 20 11 20 0 35 0 35 -52 3 -53 3
-5 30 -5 30 -28 3 -27 3 -6 -15z"/>
</g>
</svg>
