<?xml version="1.0" standalone="no"?>
<!DOCTYPE svg PUBLIC "-//W3C//DTD SVG 20010904//EN"
 "http://www.w3.org/TR/2001/REC-SVG-20010904/DTD/svg10.dtd">
<svg version="1.0" xmlns="http://www.w3.org/2000/svg"
 width="45.000000pt" height="37.000000pt" viewBox="0 0 45.000000 37.000000"
 preserveAspectRatio="xMidYMid meet">
<metadata>
Created by potrace 1.16, written by Peter Selinger 2001-2019
</metadata>
<g transform="translate(0.000000,37.000000) scale(0.100000,-0.100000)"
fill="#000000" stroke="none">
<path d="M176 348 l-16 -22 0 -18 0 -18 -40 0 -41 0 -3 -12 -3 -13 -9 -30 -9
-30 -28 -3 -27 -3 0 -39 0 -38 16 -6 16 -6 23 0 23 0 -1 -48 -2 -47 68 -3 69
-3 -4 28 -3 28 20 0 19 0 1 -30 0 -30 48 -3 49 -3 14 12 14 12 6 38 7 39 23 0
24 0 11 24 12 25 -7 25 -6 26 -35 0 -35 0 0 46 0 46 -66 -7 -66 -8 7 22 7 22
-6 25 -6 24 -25 0 -24 0 -15 -22z"/>
</g>
</svg>
