<?xml version="1.0" standalone="no"?>
<!DOCTYPE svg PUBLIC "-//W3C//DTD SVG 20010904//EN"
 "http://www.w3.org/TR/2001/REC-SVG-20010904/DTD/svg10.dtd">
<svg version="1.0" xmlns="http://www.w3.org/2000/svg"
 width="43.000000pt" height="35.000000pt" viewBox="0 0 43.000000 35.000000"
 preserveAspectRatio="xMidYMid meet">
<metadata>
Created by potrace 1.16, written by Peter Selinger 2001-2019
</metadata>
<g transform="translate(0.000000,35.000000) scale(0.100000,-0.100000)"
fill="#000000" stroke="none">
<path d="M175 326 l-16 -24 3 -13 3 -14 -45 -5 -44 -5 -7 -31 -6 -31 -7 -11
-7 -12 -25 0 -24 0 0 -29 0 -29 16 -6 16 -6 24 0 25 0 -3 -47 -3 -48 58 -3 58
-3 -6 24 -6 23 15 13 15 12 21 -11 21 -11 -3 -27 -3 -27 41 -3 41 -3 12 15 13
15 5 40 6 41 22 -6 23 -6 12 21 11 22 -6 20 -7 21 -34 -4 -34 -4 0 48 0 47
-67 -6 -66 -6 6 31 6 32 -5 15 -6 15 -14 0 -14 0 -15 -24z"/>
</g>
</svg>
