<?xml version="1.0" standalone="no"?>
<!DOCTYPE svg PUBLIC "-//W3C//DTD SVG 20010904//EN"
 "http://www.w3.org/TR/2001/REC-SVG-20010904/DTD/svg10.dtd">
<svg version="1.0" xmlns="http://www.w3.org/2000/svg"
 width="41.000000pt" height="36.000000pt" viewBox="0 0 41.000000 36.000000"
 preserveAspectRatio="xMidYMid meet">
<metadata>
Created by potrace 1.16, written by Peter Selinger 2001-2019
</metadata>
<g transform="translate(0.000000,36.000000) scale(0.100000,-0.100000)"
fill="#000000" stroke="none">
<path d="M135 350 l-6 -10 3 -28 3 -27 -57 -3 -58 -3 -6 -23 -5 -23 3 -39 3
-39 27 0 26 0 8 -7 7 -8 -14 -1 -14 -1 -25 -1 -25 -2 -3 -24 -4 -24 7 -44 6
-44 72 3 72 3 6 30 7 30 1 -16 1 -17 17 -6 16 -7 60 -6 59 -6 -7 41 -7 42 36
0 36 0 16 26 17 26 -9 26 -9 27 -38 3 -37 3 0 39 0 39 -47 3 -48 3 -3 30 -4
30 -11 7 -12 8 -27 0 -27 0 -6 -10z"/>
</g>
</svg>
