<?xml version="1.0" standalone="no"?>
<!DOCTYPE svg PUBLIC "-//W3C//DTD SVG 20010904//EN"
 "http://www.w3.org/TR/2001/REC-SVG-20010904/DTD/svg10.dtd">
<svg version="1.0" xmlns="http://www.w3.org/2000/svg"
 width="29.000000pt" height="36.000000pt" viewBox="0 0 29.000000 36.000000"
 preserveAspectRatio="xMidYMid meet">
<metadata>
Created by potrace 1.16, written by Peter Selinger 2001-2019
</metadata>
<g transform="translate(0.000000,36.000000) scale(0.100000,-0.100000)"
fill="#000000" stroke="none">
<path d="M105 326 l7 -35 -23 -5 -24 -6 -30 -2 -30 -3 0 -40 0 -40 30 0 30 0
3 -27 3 -26 -17 -4 -17 -3 -18 -55 -18 -55 2 -1 2 -1 54 -7 53 -7 -6 26 -6 25
10 20 11 20 19 0 19 0 10 -19 10 -18 -2 -29 -2 -28 17 -4 16 -3 39 10 39 11
-6 47 -5 48 -28 3 -27 3 -10 19 -10 19 20 11 20 10 26 -6 27 -7 -6 47 -7 48
-6 10 -6 10 -35 -7 -34 -6 -19 6 -19 6 2 37 2 37 -33 3 -33 3 6 -35z"/>
</g>
</svg>
