<?xml version="1.0" standalone="no"?>
<!DOCTYPE svg PUBLIC "-//W3C//DTD SVG 20010904//EN"
 "http://www.w3.org/TR/2001/REC-SVG-20010904/DTD/svg10.dtd">
<svg version="1.0" xmlns="http://www.w3.org/2000/svg"
 width="39.000000pt" height="37.000000pt" viewBox="0 0 39.000000 37.000000"
 preserveAspectRatio="xMidYMid meet">
<metadata>
Created by potrace 1.16, written by Peter Selinger 2001-2019
</metadata>
<g transform="translate(0.000000,37.000000) scale(0.100000,-0.100000)"
fill="#000000" stroke="none">
<path d="M201 361 l-13 -9 7 -22 7 -22 -13 -9 -14 -9 -38 0 -38 0 -3 -12 -3
-13 -9 -29 -9 -30 -35 0 -35 -1 -3 -42 -3 -42 28 -7 28 -7 7 -11 8 -11 0 -36
0 -37 13 -4 12 -5 68 5 67 4 1 32 2 31 4 -25 5 -25 12 -7 11 -8 59 0 59 0 -7
39 -6 40 -10 26 -10 26 -22 9 -23 9 36 0 37 1 6 16 6 16 0 48 0 49 -52 3 -53
3 -3 25 -4 25 -10 13 -10 12 -22 0 -21 0 -14 -9z"/>
</g>
</svg>
