<?xml version="1.0" standalone="no"?>
<!DOCTYPE svg PUBLIC "-//W3C//DTD SVG 20010904//EN"
 "http://www.w3.org/TR/2001/REC-SVG-20010904/DTD/svg10.dtd">
<svg version="1.0" xmlns="http://www.w3.org/2000/svg"
 width="37.000000pt" height="35.000000pt" viewBox="0 0 37.000000 35.000000"
 preserveAspectRatio="xMidYMid meet">
<metadata>
Created by potrace 1.16, written by Peter Selinger 2001-2019
</metadata>
<g transform="translate(0.000000,35.000000) scale(0.100000,-0.100000)"
fill="#000000" stroke="none">
<path d="M204 344 l-11 -5 5 -25 5 -26 -14 -9 -14 -9 -38 0 -38 0 -3 -12 -3
-13 -9 -30 -10 -30 -34 0 -35 0 -3 -33 -3 -32 30 -6 31 -7 5 -21 5 -21 3 -25
2 -25 6 -5 7 -5 62 3 62 4 -6 28 -5 28 13 5 14 5 10 -10 10 -10 -5 -15 -6 -15
14 -9 14 -9 48 0 49 0 -7 33 -7 32 -12 25 -12 25 -14 -3 -13 -3 -8 12 -8 13 5
8 5 8 34 0 33 0 6 16 6 16 0 39 0 39 -47 0 -48 0 -13 8 -13 9 7 16 6 17 -12
15 -12 15 -12 -1 -11 -1 -11 -4z"/>
</g>
</svg>
