<?xml version="1.0" standalone="no"?>
<!DOCTYPE svg PUBLIC "-//W3C//DTD SVG 20010904//EN"
 "http://www.w3.org/TR/2001/REC-SVG-20010904/DTD/svg10.dtd">
<svg version="1.0" xmlns="http://www.w3.org/2000/svg"
 width="30.000000pt" height="33.000000pt" viewBox="0 0 30.000000 33.000000"
 preserveAspectRatio="xMidYMid meet">
<metadata>
Created by potrace 1.16, written by Peter Selinger 2001-2019
</metadata>
<g transform="translate(0.000000,33.000000) scale(0.100000,-0.100000)"
fill="#000000" stroke="none">
<path d="M170 297 l0 -33 -12 -12 -12 -12 -14 0 -14 0 7 30 7 30 -14 1 -13 1
-52 3 -53 2 0 -43 0 -42 6 -16 6 -16 23 0 23 0 12 -15 12 -15 -25 -9 -24 -9
-12 -46 -11 -45 0 -15 0 -16 66 0 66 0 -3 28 -3 27 9 0 10 0 0 -35 0 -35 29
-3 29 -4 44 12 43 13 0 6 -1 6 -13 55 -12 55 -25 4 -24 3 -7 11 -7 11 5 8 5 8
25 -6 24 -6 15 12 15 12 0 53 0 52 -51 11 -51 12 -14 0 -14 0 0 -33z"/>
</g>
</svg>
