<?xml version="1.0" standalone="no"?>
<!DOCTYPE svg PUBLIC "-//W3C//DTD SVG 20010904//EN"
 "http://www.w3.org/TR/2001/REC-SVG-20010904/DTD/svg10.dtd">
<svg version="1.0" xmlns="http://www.w3.org/2000/svg"
 width="28.000000pt" height="31.000000pt" viewBox="0 0 28.000000 31.000000"
 preserveAspectRatio="xMidYMid meet">
<metadata>
Created by potrace 1.16, written by Peter Selinger 2001-2019
</metadata>
<g transform="translate(0.000000,31.000000) scale(0.100000,-0.100000)"
fill="#000000" stroke="none">
<path d="M170 277 l0 -33 -12 -12 -12 -12 -24 0 -24 0 4 30 5 30 -11 1 -11 0
-43 2 -42 2 0 -32 0 -31 6 -16 6 -16 23 0 23 0 13 -16 13 -16 -11 -16 -11 -17
-11 3 -11 2 -9 -22 -8 -23 -8 -33 -7 -32 57 0 57 0 -6 28 -6 27 9 14 9 15 17
-14 16 -13 -3 -36 -3 -35 19 -4 18 -4 43 12 42 12 -12 51 -11 52 -27 3 -26 3
-6 20 -6 19 7 11 6 11 28 -5 27 -6 12 12 11 11 0 43 0 43 -7 -2 -8 -2 -40 12
-40 12 -7 0 -8 0 0 -33z"/>
</g>
</svg>
