<?xml version="1.0" standalone="no"?>
<!DOCTYPE svg PUBLIC "-//W3C//DTD SVG 20010904//EN"
 "http://www.w3.org/TR/2001/REC-SVG-20010904/DTD/svg10.dtd">
<svg version="1.0" xmlns="http://www.w3.org/2000/svg"
 width="33.000000pt" height="35.000000pt" viewBox="0 0 33.000000 35.000000"
 preserveAspectRatio="xMidYMid meet">
<metadata>
Created by potrace 1.16, written by Peter Selinger 2001-2019
</metadata>
<g transform="translate(0.000000,35.000000) scale(0.100000,-0.100000)"
fill="#000000" stroke="none">
<path d="M172 333 l2 -18 -7 -27 -7 -27 -21 -6 -20 -7 -15 13 -15 12 6 28 6
27 -10 6 -10 6 -40 -6 -41 -7 0 -46 0 -47 34 4 34 4 7 -21 6 -20 -11 -22 -12
-21 -24 6 -24 6 0 -19 0 -18 -6 -33 -7 -32 46 3 46 4 3 -29 3 -29 17 -11 18
-11 17 11 18 11 3 21 3 20 39 7 39 7 -2 56 -2 57 23 -2 23 -3 20 11 20 10 -12
15 -12 15 -26 -3 -26 -3 -3 37 -3 37 10 19 10 20 -31 6 -30 6 -19 0 -18 0 1
-17z"/>
</g>
</svg>
