<?xml version="1.0" standalone="no"?>
<!DOCTYPE svg PUBLIC "-//W3C//DTD SVG 20010904//EN"
 "http://www.w3.org/TR/2001/REC-SVG-20010904/DTD/svg10.dtd">
<svg version="1.0" xmlns="http://www.w3.org/2000/svg"
 width="38.000000pt" height="30.000000pt" viewBox="0 0 38.000000 30.000000"
 preserveAspectRatio="xMidYMid meet">
<metadata>
Created by potrace 1.16, written by Peter Selinger 2001-2019
</metadata>
<g transform="translate(0.000000,30.000000) scale(0.100000,-0.100000)"
fill="#000000" stroke="none">
<path d="M187 294 l-7 -7 0 -33 0 -33 -18 -10 -18 -10 -14 9 -15 9 3 31 4 30
-61 0 -61 0 0 -49 0 -49 6 -16 6 -16 32 -1 31 -1 -30 -7 -30 -6 -7 -60 -8 -59
13 -8 12 -8 64 0 64 0 -6 35 -6 35 10 0 9 0 0 -20 0 -19 18 -9 17 -9 47 -6 46
-6 6 15 6 16 0 33 0 34 31 3 32 3 10 16 10 16 -7 28 -7 27 -29 -6 -30 -5 -10
19 -10 19 0 35 0 36 -19 0 -18 0 -29 6 -29 6 -8 -8z"/>
</g>
</svg>
