<?xml version="1.0" standalone="no"?>
<!DOCTYPE svg PUBLIC "-//W3C//DTD SVG 20010904//EN"
 "http://www.w3.org/TR/2001/REC-SVG-20010904/DTD/svg10.dtd">
<svg version="1.0" xmlns="http://www.w3.org/2000/svg"
 width="44.000000pt" height="36.000000pt" viewBox="0 0 44.000000 36.000000"
 preserveAspectRatio="xMidYMid meet">
<metadata>
Created by potrace 1.16, written by Peter Selinger 2001-2019
</metadata>
<g transform="translate(0.000000,36.000000) scale(0.100000,-0.100000)"
fill="#000000" stroke="none">
<path d="M257 337 l5 -24 -17 -16 -16 -17 -34 0 -34 0 2 28 2 27 -37 3 -38 3
0 -38 0 -39 -11 -11 -12 -12 -27 6 -28 5 -6 -11 -7 -11 6 -19 6 -20 26 -3 27
-3 11 -50 10 -50 42 -3 42 -3 3 -37 3 -37 37 -3 37 -3 3 33 3 33 25 3 25 2 30
5 31 5 2 33 2 32 5 15 5 16 28 -1 27 0 3 33 3 33 -12 15 -12 14 -26 -2 -26 -3
-3 37 -3 36 -31 11 -31 11 -22 0 -22 0 4 -23z"/>
</g>
</svg>
