<?xml version="1.0" standalone="no"?>
<!DOCTYPE svg PUBLIC "-//W3C//DTD SVG 20010904//EN"
 "http://www.w3.org/TR/2001/REC-SVG-20010904/DTD/svg10.dtd">
<svg version="1.0" xmlns="http://www.w3.org/2000/svg"
 width="48.000000pt" height="30.000000pt" viewBox="0 0 48.000000 30.000000"
 preserveAspectRatio="xMidYMid meet">
<metadata>
Created by potrace 1.16, written by Peter Selinger 2001-2019
</metadata>
<g transform="translate(0.000000,30.000000) scale(0.100000,-0.100000)"
fill="#000000" stroke="none">
<path d="M282 265 l2 -35 -16 -16 -16 -17 -16 6 -16 6 0 35 0 36 -25 6 -25 6
-37 -9 -38 -9 1 -32 2 -32 -29 0 -29 0 -20 -20 -20 -20 0 -20 0 -19 22 -21 22
-20 22 0 23 0 3 -42 3 -43 49 -3 50 -3 24 6 24 6 -6 24 -6 25 10 0 10 0 0 -15
0 -14 38 -11 37 -10 38 -6 37 -7 0 47 0 46 26 0 25 0 15 15 15 15 -3 32 -3 33
-35 3 -35 4 -7 11 -8 12 0 36 0 37 -31 6 -31 6 -25 0 -24 0 3 -35z"/>
</g>
</svg>
