<?xml version="1.0" standalone="no"?>
<!DOCTYPE svg PUBLIC "-//W3C//DTD SVG 20010904//EN"
 "http://www.w3.org/TR/2001/REC-SVG-20010904/DTD/svg10.dtd">
<svg version="1.0" xmlns="http://www.w3.org/2000/svg"
 width="46.000000pt" height="28.000000pt" viewBox="0 0 46.000000 28.000000"
 preserveAspectRatio="xMidYMid meet">
<metadata>
Created by potrace 1.16, written by Peter Selinger 2001-2019
</metadata>
<g transform="translate(0.000000,28.000000) scale(0.100000,-0.100000)"
fill="#000000" stroke="none">
<path d="M284 254 l7 -26 -16 -25 -16 -24 -27 3 -27 3 -3 37 -3 38 -22 5 -22
5 -30 -8 -30 -9 3 -31 3 -32 -30 0 -31 0 -20 -20 -20 -20 0 -10 0 -9 22 -21
22 -21 21 3 20 3 5 -45 5 -45 39 -3 39 -3 21 5 22 5 -1 27 0 27 13 5 13 4 6
-21 5 -21 37 -9 36 -10 27 -6 27 -7 3 49 3 48 23 -3 22 -3 16 15 15 16 -3 22
-3 23 -33 1 -33 0 -10 15 -9 14 0 36 0 37 -31 6 -31 6 -15 0 -15 0 6 -26z"/>
</g>
</svg>
