<?xml version="1.0" standalone="no"?>
<!DOCTYPE svg PUBLIC "-//W3C//DTD SVG 20010904//EN"
 "http://www.w3.org/TR/2001/REC-SVG-20010904/DTD/svg10.dtd">
<svg version="1.0" xmlns="http://www.w3.org/2000/svg"
 width="37.000000pt" height="33.000000pt" viewBox="0 0 37.000000 33.000000"
 preserveAspectRatio="xMidYMid meet">
<metadata>
Created by potrace 1.16, written by Peter Selinger 2001-2019
</metadata>
<g transform="translate(0.000000,33.000000) scale(0.100000,-0.100000)"
fill="#000000" stroke="none">
<path d="M185 307 l6 -23 -13 -11 -13 -12 -40 -3 -40 -3 -3 -35 -3 -35 -10
-10 -10 -10 -27 0 -27 0 -3 -22 -3 -23 26 -10 26 -10 26 6 26 7 -6 -39 -5 -39
-7 -17 -7 -18 42 0 41 0 20 11 20 10 -3 27 -3 27 22 3 22 3 6 -23 6 -24 -3
-15 -3 -14 61 -3 60 -3 0 58 -1 58 -37 0 -37 0 -12 12 -12 12 27 11 27 10 26
0 25 0 -7 43 -7 42 -5 8 -4 7 -54 0 -54 0 -3 33 -3 32 -28 3 -28 3 6 -24z"/>
</g>
</svg>
