<?xml version="1.0" standalone="no"?>
<!DOCTYPE svg PUBLIC "-//W3C//DTD SVG 20010904//EN"
 "http://www.w3.org/TR/2001/REC-SVG-20010904/DTD/svg10.dtd">
<svg version="1.0" xmlns="http://www.w3.org/2000/svg"
 width="45.000000pt" height="33.000000pt" viewBox="0 0 45.000000 33.000000"
 preserveAspectRatio="xMidYMid meet">
<metadata>
Created by potrace 1.16, written by Peter Selinger 2001-2019
</metadata>
<g transform="translate(0.000000,33.000000) scale(0.100000,-0.100000)"
fill="#000000" stroke="none">
<path d="M200 306 l0 -25 -19 -11 -20 -10 -37 0 -37 0 7 -50 7 -50 -25 0 -25
0 -27 -10 -27 -11 12 -12 12 -12 37 0 37 0 0 -55 0 -55 45 0 45 0 0 25 0 25
33 3 32 3 0 -20 0 -20 38 -6 37 -7 18 -5 18 -5 -6 46 -7 46 34 0 34 0 19 14
20 14 -10 29 -10 28 -38 3 -37 3 0 39 0 38 -60 -5 -60 -6 3 39 2 39 -22 3 -23
3 0 -25z"/>
</g>
</svg>
