<?xml version="1.0" standalone="no"?>
<!DOCTYPE svg PUBLIC "-//W3C//DTD SVG 20010904//EN"
 "http://www.w3.org/TR/2001/REC-SVG-20010904/DTD/svg10.dtd">
<svg version="1.0" xmlns="http://www.w3.org/2000/svg"
 width="48.000000pt" height="37.000000pt" viewBox="0 0 48.000000 37.000000"
 preserveAspectRatio="xMidYMid meet">
<metadata>
Created by potrace 1.16, written by Peter Selinger 2001-2019
</metadata>
<g transform="translate(0.000000,37.000000) scale(0.100000,-0.100000)"
fill="#000000" stroke="none">
<path d="M217 363 l-7 -6 0 -28 0 -28 -57 -3 -58 -3 -5 -40 -5 -40 -28 -2 -29
-2 -14 -12 -14 -11 0 -18 0 -17 18 -16 19 -17 32 0 33 0 -5 -28 -5 -27 -7 -23
-8 -23 74 3 74 3 3 33 3 32 10 0 9 0 0 -40 0 -41 15 -5 15 -6 55 7 55 6 0 55
0 54 39 0 40 0 6 21 7 21 -7 35 -6 35 -35 -4 -35 -4 -5 25 -6 26 -4 13 -4 14
-32 -8 -33 -7 -15 -1 -14 -1 -4 20 -3 20 -5 23 -4 22 -24 0 -23 0 -6 -7z"/>
</g>
</svg>
