<?xml version="1.0" standalone="no"?>
<!DOCTYPE svg PUBLIC "-//W3C//DTD SVG 20010904//EN"
 "http://www.w3.org/TR/2001/REC-SVG-20010904/DTD/svg10.dtd">
<svg version="1.0" xmlns="http://www.w3.org/2000/svg"
 width="28.000000pt" height="40.000000pt" viewBox="0 0 28.000000 40.000000"
 preserveAspectRatio="xMidYMid meet">
<metadata>
Created by potrace 1.16, written by Peter Selinger 2001-2019
</metadata>
<g transform="translate(0.000000,40.000000) scale(0.100000,-0.100000)"
fill="#000000" stroke="none">
<path d="M110 385 l-12 -15 5 -20 5 -20 -54 0 -54 0 0 -24 0 -24 6 -16 6 -16
33 6 32 6 7 -27 7 -27 -6 -19 -6 -19 -40 0 -39 0 0 -50 0 -50 50 0 50 0 0 -30
0 -30 18 -1 17 -1 15 2 15 1 13 17 12 16 -6 18 -5 18 20 0 20 0 24 -9 25 -10
6 22 6 22 0 26 0 27 -16 6 -16 6 -23 0 -24 0 -11 19 -10 20 12 7 12 8 36 6 35
5 3 34 3 33 -17 19 -17 19 -32 0 -33 0 -12 15 -12 14 6 10 6 9 -16 6 -16 6 -8
0 -8 0 -12 -15z"/>
</g>
</svg>
