<?xml version="1.0" standalone="no"?>
<!DOCTYPE svg PUBLIC "-//W3C//DTD SVG 20010904//EN"
 "http://www.w3.org/TR/2001/REC-SVG-20010904/DTD/svg10.dtd">
<svg version="1.0" xmlns="http://www.w3.org/2000/svg"
 width="30.000000pt" height="42.000000pt" viewBox="0 0 30.000000 42.000000"
 preserveAspectRatio="xMidYMid meet">
<metadata>
Created by potrace 1.16, written by Peter Selinger 2001-2019
</metadata>
<g transform="translate(0.000000,42.000000) scale(0.100000,-0.100000)"
fill="#000000" stroke="none">
<path d="M112 408 l-12 -12 0 -23 0 -23 -50 0 -50 0 0 -37 0 -38 9 -14 9 -14
30 6 30 6 5 -20 6 -21 -6 -14 -5 -14 -39 0 -39 0 0 -60 0 -60 50 0 50 0 0 -29
0 -29 24 -6 25 -6 26 10 25 10 7 30 6 31 14 -5 15 -6 23 -6 22 -5 7 23 6 23 0
36 0 37 -16 6 -16 6 -23 0 -24 0 -6 11 -7 10 6 6 6 6 37 6 38 6 3 44 3 43 -16
18 -17 19 -36 3 -37 3 -4 20 -3 20 -12 7 -11 8 -20 0 -21 0 -12 -12z"/>
</g>
</svg>
