<?xml version="1.0" standalone="no"?>
<!DOCTYPE svg PUBLIC "-//W3C//DTD SVG 20010904//EN"
 "http://www.w3.org/TR/2001/REC-SVG-20010904/DTD/svg10.dtd">
<svg version="1.0" xmlns="http://www.w3.org/2000/svg"
 width="37.000000pt" height="35.000000pt" viewBox="0 0 37.000000 35.000000"
 preserveAspectRatio="xMidYMid meet">
<metadata>
Created by potrace 1.16, written by Peter Selinger 2001-2019
</metadata>
<g transform="translate(0.000000,35.000000) scale(0.100000,-0.100000)"
fill="#000000" stroke="none">
<path d="M87 343 l-7 -6 0 -33 0 -32 -6 -15 -5 -14 -23 4 -22 5 -13 -16 -14
-16 17 -19 17 -19 19 5 19 5 7 -26 6 -27 -5 -32 -5 -32 57 0 56 0 0 -35 0 -35
35 0 35 0 0 19 0 19 35 14 35 13 17 6 16 6 6 21 6 22 0 27 0 27 -42 3 -43 3
-3 33 -3 34 19 -6 19 -6 17 6 16 6 0 49 0 49 -128 0 -129 0 -6 -7z"/>
</g>
</svg>
