<?xml version="1.0" standalone="no"?>
<!DOCTYPE svg PUBLIC "-//W3C//DTD SVG 20010904//EN"
 "http://www.w3.org/TR/2001/REC-SVG-20010904/DTD/svg10.dtd">
<svg version="1.0" xmlns="http://www.w3.org/2000/svg"
 width="39.000000pt" height="43.000000pt" viewBox="0 0 39.000000 43.000000"
 preserveAspectRatio="xMidYMid meet">
<metadata>
Created by potrace 1.16, written by Peter Selinger 2001-2019
</metadata>
<g transform="translate(0.000000,43.000000) scale(0.100000,-0.100000)"
fill="#000000" stroke="none">
<path d="M217 423 l-7 -6 0 -17 0 -17 -22 -11 -23 -11 -35 -3 -35 -3 -3 -37
-3 -37 -32 -6 -32 -7 -12 -10 -13 -10 0 -22 0 -22 12 -12 12 -12 42 0 42 0
-10 -36 -9 -36 5 -14 5 -14 46 0 45 0 0 -21 0 -20 10 -20 11 -19 19 0 18 0 16
6 16 6 0 34 0 34 50 0 51 0 4 12 4 13 -7 55 -7 55 -40 6 -40 6 30 2 30 1 14 9
14 9 5 56 4 56 -51 0 -51 0 0 25 0 25 -26 10 -25 10 -8 0 -8 0 -6 -7z"/>
</g>
</svg>
