<?xml version="1.0" standalone="no"?>
<!DOCTYPE svg PUBLIC "-//W3C//DTD SVG 20010904//EN"
 "http://www.w3.org/TR/2001/REC-SVG-20010904/DTD/svg10.dtd">
<svg version="1.0" xmlns="http://www.w3.org/2000/svg"
 width="37.000000pt" height="41.000000pt" viewBox="0 0 37.000000 41.000000"
 preserveAspectRatio="xMidYMid meet">
<metadata>
Created by potrace 1.16, written by Peter Selinger 2001-2019
</metadata>
<g transform="translate(0.000000,41.000000) scale(0.100000,-0.100000)"
fill="#000000" stroke="none">
<path d="M216 403 l-6 -6 0 -17 0 -17 -22 -11 -23 -11 -35 -3 -35 -3 -5 -40
-5 -40 -30 -3 -30 -3 -15 -15 -15 -14 11 -18 11 -17 47 -3 47 -3 -7 -32 -7
-32 -1 -15 -1 -15 53 -3 52 -3 -5 -22 -6 -22 14 -19 14 -18 21 6 22 7 0 35 0
34 49 0 50 0 4 8 4 7 -6 50 -6 50 -32 0 -32 1 -7 6 -6 7 5 14 5 15 24 -4 23
-4 14 9 13 9 5 45 5 46 -53 3 -54 3 0 24 0 24 -22 8 -21 8 -6 -6z"/>
</g>
</svg>
