<?xml version="1.0" standalone="no"?>
<!DOCTYPE svg PUBLIC "-//W3C//DTD SVG 20010904//EN"
 "http://www.w3.org/TR/2001/REC-SVG-20010904/DTD/svg10.dtd">
<svg version="1.0" xmlns="http://www.w3.org/2000/svg"
 width="39.000000pt" height="40.000000pt" viewBox="0 0 39.000000 40.000000"
 preserveAspectRatio="xMidYMid meet">
<metadata>
Created by potrace 1.16, written by Peter Selinger 2001-2019
</metadata>
<g transform="translate(0.000000,40.000000) scale(0.100000,-0.100000)"
fill="#000000" stroke="none">
<path d="M198 368 l-3 -33 -55 -3 -55 -3 3 -39 4 -40 -36 0 -35 0 -11 -19 -10
-20 0 -15 0 -15 16 -16 17 -16 26 3 26 3 3 -52 3 -52 29 10 29 11 23 -4 23 -3
-3 -27 -3 -27 25 -7 25 -6 11 7 11 7 -3 31 -3 32 25 0 25 -1 31 -7 32 -6 10
42 11 41 -11 13 -10 13 -23 -6 -23 -6 -12 21 -11 21 8 13 8 12 25 0 25 0 3 48
3 47 -58 -2 -58 -3 -1 31 -1 31 -7 12 -7 11 -19 0 -19 0 -3 -32z"/>
</g>
</svg>
