<?xml version="1.0" standalone="no"?>
<!DOCTYPE svg PUBLIC "-//W3C//DTD SVG 20010904//EN"
 "http://www.w3.org/TR/2001/REC-SVG-20010904/DTD/svg10.dtd">
<svg version="1.0" xmlns="http://www.w3.org/2000/svg"
 width="41.000000pt" height="42.000000pt" viewBox="0 0 41.000000 42.000000"
 preserveAspectRatio="xMidYMid meet">
<metadata>
Created by potrace 1.16, written by Peter Selinger 2001-2019
</metadata>
<g transform="translate(0.000000,42.000000) scale(0.100000,-0.100000)"
fill="#000000" stroke="none">
<path d="M198 388 l-3 -33 -58 -3 -57 -3 6 -40 7 -39 -36 0 -36 0 -11 -19 -10
-20 0 -25 0 -25 16 -15 15 -16 30 0 29 0 0 -51 0 -51 23 6 22 6 28 6 27 7 0
-32 0 -31 24 -6 24 -6 19 4 18 3 3 38 3 38 17 -5 17 -5 36 -6 37 -7 12 51 12
51 -13 16 -12 15 -26 -3 -26 -3 -3 17 -3 17 28 3 28 3 3 58 3 59 -58 -4 -58
-3 2 23 3 23 -10 20 -11 19 -29 0 -29 0 -3 -32z"/>
</g>
</svg>
