<?xml version="1.0" standalone="no"?>
<!DOCTYPE svg PUBLIC "-//W3C//DTD SVG 20010904//EN"
 "http://www.w3.org/TR/2001/REC-SVG-20010904/DTD/svg10.dtd">
<svg version="1.0" xmlns="http://www.w3.org/2000/svg"
 width="39.000000pt" height="44.000000pt" viewBox="0 0 39.000000 44.000000"
 preserveAspectRatio="xMidYMid meet">
<metadata>
Created by potrace 1.16, written by Peter Selinger 2001-2019
</metadata>
<g transform="translate(0.000000,44.000000) scale(0.100000,-0.100000)"
fill="#000000" stroke="none">
<path d="M115 428 l-4 -13 2 -20 2 -20 -52 -3 -53 -3 0 -58 0 -59 16 -6 16 -6
19 0 19 0 0 -9 0 -10 -37 -3 -38 -3 -3 -49 -3 -50 6 -24 6 -24 22 6 22 6 23 6
22 6 0 -34 0 -34 12 -12 12 -12 22 0 22 0 16 6 16 6 0 24 0 24 39 6 38 6 14 9
13 8 -12 34 -12 33 0 17 0 17 43 0 43 0 12 12 12 12 0 22 0 23 -42 3 -43 3 -3
52 -3 51 -56 -5 -55 -6 6 21 7 21 -11 21 -11 20 -30 0 -30 0 -4 -12z"/>
</g>
</svg>
