<?xml version="1.0" standalone="no"?>
<!DOCTYPE svg PUBLIC "-//W3C//DTD SVG 20010904//EN"
 "http://www.w3.org/TR/2001/REC-SVG-20010904/DTD/svg10.dtd">
<svg version="1.0" xmlns="http://www.w3.org/2000/svg"
 width="46.000000pt" height="42.000000pt" viewBox="0 0 46.000000 42.000000"
 preserveAspectRatio="xMidYMid meet">
<metadata>
Created by potrace 1.16, written by Peter Selinger 2001-2019
</metadata>
<g transform="translate(0.000000,42.000000) scale(0.100000,-0.100000)"
fill="#000000" stroke="none">
<path d="M182 408 l-12 -12 0 -23 0 -23 -44 0 -45 0 -3 -42 -3 -43 -25 -3 -25
-4 -12 -10 -13 -10 0 -30 0 -29 13 -3 12 -4 29 -7 28 -6 -6 -51 -7 -50 45 6
45 7 3 -33 3 -33 45 0 45 0 5 30 5 30 50 0 50 0 -3 52 -3 53 39 0 40 0 11 14
12 15 -3 33 -3 33 -30 1 -31 0 -12 8 -12 7 0 30 0 29 -55 0 -54 0 5 15 6 15
-16 25 -16 25 -23 0 -23 0 -12 -12z"/>
</g>
</svg>
