<?xml version="1.0" standalone="no"?>
<!DOCTYPE svg PUBLIC "-//W3C//DTD SVG 20010904//EN"
 "http://www.w3.org/TR/2001/REC-SVG-20010904/DTD/svg10.dtd">
<svg version="1.0" xmlns="http://www.w3.org/2000/svg"
 width="37.000000pt" height="35.000000pt" viewBox="0 0 37.000000 35.000000"
 preserveAspectRatio="xMidYMid meet">
<metadata>
Created by potrace 1.16, written by Peter Selinger 2001-2019
</metadata>
<g transform="translate(0.000000,35.000000) scale(0.100000,-0.100000)"
fill="#000000" stroke="none">
<path d="M123 338 l-8 -13 0 -25 0 -25 -47 3 -48 4 0 -35 0 -35 13 -10 13 -11
30 2 29 2 3 -23 4 -23 -12 -15 -12 -14 -39 0 -38 0 -5 -8 -5 -8 11 -47 10 -47
36 0 37 0 13 9 14 8 -4 34 -3 34 23 3 23 4 15 -13 15 -12 -3 -36 -3 -36 33 -3
33 -3 24 15 24 16 6 44 7 45 27 3 26 3 3 34 3 34 -29 -6 -29 -6 -12 12 -11 11
0 36 0 36 -52 -1 -53 0 0 35 0 35 -27 3 -26 3 -9 -13z"/>
</g>
</svg>
