<?xml version="1.0" standalone="no"?>
<!DOCTYPE svg PUBLIC "-//W3C//DTD SVG 20010904//EN"
 "http://www.w3.org/TR/2001/REC-SVG-20010904/DTD/svg10.dtd">
<svg version="1.0" xmlns="http://www.w3.org/2000/svg"
 width="30.000000pt" height="35.000000pt" viewBox="0 0 30.000000 35.000000"
 preserveAspectRatio="xMidYMid meet">
<metadata>
Created by potrace 1.16, written by Peter Selinger 2001-2019
</metadata>
<g transform="translate(0.000000,35.000000) scale(0.100000,-0.100000)"
fill="#000000" stroke="none">
<path d="M121 336 l-11 -13 6 -18 7 -17 -14 -9 -14 -8 -42 6 -43 6 0 -40 0
-39 11 -11 12 -12 29 6 29 6 -3 -34 -3 -34 -26 -3 -27 -3 -7 -44 -6 -45 -10
-5 -9 -6 0 -7 0 -8 52 6 53 5 3 43 3 42 23 0 24 0 11 -14 12 -14 -3 -29 -3
-28 47 -3 47 -3 16 25 16 24 -3 39 -3 38 -41 -3 -40 -3 -13 15 -13 16 13 4 14
5 30 3 30 3 3 53 3 54 -23 -8 -23 -8 -35 -1 -35 0 2 20 3 20 -5 23 -5 22 -14
0 -14 0 -11 -14z"/>
</g>
</svg>
