<?xml version="1.0" standalone="no"?>
<!DOCTYPE svg PUBLIC "-//W3C//DTD SVG 20010904//EN"
 "http://www.w3.org/TR/2001/REC-SVG-20010904/DTD/svg10.dtd">
<svg version="1.0" xmlns="http://www.w3.org/2000/svg"
 width="48.000000pt" height="38.000000pt" viewBox="0 0 48.000000 38.000000"
 preserveAspectRatio="xMidYMid meet">
<metadata>
Created by potrace 1.16, written by Peter Selinger 2001-2019
</metadata>
<g transform="translate(0.000000,38.000000) scale(0.100000,-0.100000)"
fill="#000000" stroke="none">
<path d="M202 368 l-12 -12 0 -32 0 -32 -47 1 -48 2 -3 -42 -3 -43 -34 0 -34
0 -11 -20 -11 -21 3 -27 3 -27 32 -3 31 -3 6 -24 6 -23 -6 -16 -6 -15 14 -14
13 -13 68 4 68 4 -3 36 -3 35 12 4 11 4 4 -22 3 -23 59 -15 58 -15 14 19 14
19 0 33 0 33 24 0 24 0 16 6 16 6 0 34 0 34 -45 0 -45 0 0 46 0 46 -59 -7 -60
-7 -3 49 -3 48 -25 3 -25 3 -13 -13z"/>
</g>
</svg>
