<?xml version="1.0" standalone="no"?>
<!DOCTYPE svg PUBLIC "-//W3C//DTD SVG 20010904//EN"
 "http://www.w3.org/TR/2001/REC-SVG-20010904/DTD/svg10.dtd">
<svg version="1.0" xmlns="http://www.w3.org/2000/svg"
 width="28.000000pt" height="41.000000pt" viewBox="0 0 28.000000 41.000000"
 preserveAspectRatio="xMidYMid meet">
<metadata>
Created by potrace 1.16, written by Peter Selinger 2001-2019
</metadata>
<g transform="translate(0.000000,41.000000) scale(0.100000,-0.100000)"
fill="#000000" stroke="none">
<path d="M125 400 l-6 -10 6 -10 6 -10 -11 -20 -11 -20 -50 0 -50 0 3 -42 3
-43 27 0 27 -1 7 -7 7 -6 0 -27 0 -26 -14 -9 -14 -10 -27 4 -28 4 0 -22 0 -22
6 -30 6 -30 43 5 44 4 -6 -21 -5 -21 12 -15 12 -15 25 0 25 0 5 19 5 20 46 10
46 10 9 -6 8 -5 -3 64 -3 63 -25 3 -25 4 -12 10 -12 9 5 14 5 13 32 -2 32 -1
3 52 3 52 -48 6 -48 6 -14 5 -13 4 6 24 6 24 -16 6 -16 6 -3 0 -4 0 -6 -10z"/>
</g>
</svg>
