<?xml version="1.0" standalone="no"?>
<!DOCTYPE svg PUBLIC "-//W3C//DTD SVG 20010904//EN"
 "http://www.w3.org/TR/2001/REC-SVG-20010904/DTD/svg10.dtd">
<svg version="1.0" xmlns="http://www.w3.org/2000/svg"
 width="30.000000pt" height="36.000000pt" viewBox="0 0 30.000000 36.000000"
 preserveAspectRatio="xMidYMid meet">
<metadata>
Created by potrace 1.16, written by Peter Selinger 2001-2019
</metadata>
<g transform="translate(0.000000,36.000000) scale(0.100000,-0.100000)"
fill="#000000" stroke="none">
<path d="M150 345 l-12 -14 4 -28 3 -28 -22 -3 -22 -3 -35 9 -35 10 -5 -15 -6
-15 0 -29 0 -30 11 -21 11 -20 29 6 28 5 5 -7 5 -8 -9 -14 -8 -13 -41 1 -42 2
-5 -15 -6 -15 11 -48 12 -47 52 5 52 5 3 32 3 32 14 11 14 12 20 -7 20 -6 3
-26 3 -26 48 -12 47 -12 0 53 0 53 -32 3 -33 3 -3 27 -3 26 33 -1 33 -2 3 52
3 52 -38 7 -38 7 -17 9 -18 9 0 18 0 19 -14 5 -15 6 -11 -14z"/>
</g>
</svg>
