<?xml version="1.0" standalone="no"?>
<!DOCTYPE svg PUBLIC "-//W3C//DTD SVG 20010904//EN"
 "http://www.w3.org/TR/2001/REC-SVG-20010904/DTD/svg10.dtd">
<svg version="1.0" xmlns="http://www.w3.org/2000/svg"
 width="38.000000pt" height="31.000000pt" viewBox="0 0 38.000000 31.000000"
 preserveAspectRatio="xMidYMid meet">
<metadata>
Created by potrace 1.16, written by Peter Selinger 2001-2019
</metadata>
<g transform="translate(0.000000,31.000000) scale(0.100000,-0.100000)"
fill="#000000" stroke="none">
<path d="M250 262 l0 -50 -15 -12 -14 -12 -18 4 -18 3 -1 40 0 40 -50 0 -49 0
-3 -30 -4 -30 -10 -13 -11 -12 -18 5 -19 6 -11 -25 -12 -25 17 -26 17 -26 19
6 19 6 6 -35 7 -35 -7 -11 -7 -11 59 3 58 3 0 35 1 35 23 3 24 4 9 -14 8 -13
-5 -32 -6 -31 11 -7 11 -7 48 7 49 7 12 44 13 45 -9 9 -9 9 -34 3 -34 3 -11
18 -11 18 15 9 14 9 28 -6 28 -5 0 51 0 51 -22 14 -23 14 -32 7 -33 7 0 -50z"/>
</g>
</svg>
