<?xml version="1.0" standalone="no"?>
<!DOCTYPE svg PUBLIC "-//W3C//DTD SVG 20010904//EN"
 "http://www.w3.org/TR/2001/REC-SVG-20010904/DTD/svg10.dtd">
<svg version="1.0" xmlns="http://www.w3.org/2000/svg"
 width="28.000000pt" height="41.000000pt" viewBox="0 0 28.000000 41.000000"
 preserveAspectRatio="xMidYMid meet">
<metadata>
Created by potrace 1.16, written by Peter Selinger 2001-2019
</metadata>
<g transform="translate(0.000000,41.000000) scale(0.100000,-0.100000)"
fill="#000000" stroke="none">
<path d="M119 398 l-1 -13 2 -27 2 -28 -61 0 -61 0 0 -29 0 -29 6 -16 6 -16
23 6 23 6 12 -21 11 -22 -6 -19 -6 -20 -10 -1 -9 -1 -9 -2 -9 -1 -5 -5 -4 -5
-7 -42 -6 -43 32 0 33 0 10 -8 10 -7 0 -25 0 -25 27 -3 27 -3 21 11 21 11 -3
22 -3 22 47 3 47 3 -9 27 -8 27 -6 27 -6 28 -19 0 -19 0 -5 14 -6 14 13 17 13
18 27 -5 27 -5 -3 46 -3 46 -15 -4 -15 -5 -43 -4 -43 -4 6 36 7 36 -12 15 -12
15 -14 0 -14 0 -1 -12z"/>
</g>
</svg>
