<?xml version="1.0" standalone="no"?>
<!DOCTYPE svg PUBLIC "-//W3C//DTD SVG 20010904//EN"
 "http://www.w3.org/TR/2001/REC-SVG-20010904/DTD/svg10.dtd">
<svg version="1.0" xmlns="http://www.w3.org/2000/svg"
 width="42.000000pt" height="42.000000pt" viewBox="0 0 42.000000 42.000000"
 preserveAspectRatio="xMidYMid meet">
<metadata>
Created by potrace 1.16, written by Peter Selinger 2001-2019
</metadata>
<g transform="translate(0.000000,42.000000) scale(0.100000,-0.100000)"
fill="#000000" stroke="none">
<path d="M178 395 l4 -25 -12 -15 -12 -15 -39 0 -39 0 0 -49 0 -48 -27 5 -26
5 -13 -18 -13 -17 6 -14 5 -14 19 0 19 0 6 -27 6 -28 7 -25 8 -25 37 -6 38 -6
8 -13 8 -13 -4 -12 -5 -12 16 -13 16 -13 25 12 26 12 -4 40 -4 41 36 -6 35 -6
26 -6 25 -6 10 49 9 48 20 0 20 0 0 35 0 34 -30 1 -30 0 -5 47 -6 47 -4 4 -5
5 -45 15 -45 15 -3 21 -3 21 -33 0 -33 0 5 -25z"/>
</g>
</svg>
