<?xml version="1.0" standalone="no"?>
<!DOCTYPE svg PUBLIC "-//W3C//DTD SVG 20010904//EN"
 "http://www.w3.org/TR/2001/REC-SVG-20010904/DTD/svg10.dtd">
<svg version="1.0" xmlns="http://www.w3.org/2000/svg"
 width="44.000000pt" height="44.000000pt" viewBox="0 0 44.000000 44.000000"
 preserveAspectRatio="xMidYMid meet">
<metadata>
Created by potrace 1.16, written by Peter Selinger 2001-2019
</metadata>
<g transform="translate(0.000000,44.000000) scale(0.100000,-0.100000)"
fill="#000000" stroke="none">
<path d="M174 414 l7 -26 -12 -14 -11 -14 -39 0 -39 0 0 -45 0 -45 -30 0 -29
0 -11 -20 -11 -21 6 -19 6 -20 19 0 18 0 5 -14 5 -13 7 -47 7 -46 32 5 31 5
11 -7 12 -8 3 -24 4 -24 17 -11 17 -10 28 10 28 9 3 44 3 43 22 -7 22 -6 36
-6 36 -5 7 45 7 46 22 3 22 3 0 45 0 45 -30 0 -30 0 -5 47 -6 47 -4 4 -5 5
-45 15 -45 15 -3 21 -3 21 -46 0 -45 0 6 -26z"/>
</g>
</svg>
