<?xml version="1.0" standalone="no"?>
<!DOCTYPE svg PUBLIC "-//W3C//DTD SVG 20010904//EN"
 "http://www.w3.org/TR/2001/REC-SVG-20010904/DTD/svg10.dtd">
<svg version="1.0" xmlns="http://www.w3.org/2000/svg"
 width="45.000000pt" height="43.000000pt" viewBox="0 0 45.000000 43.000000"
 preserveAspectRatio="xMidYMid meet">
<metadata>
Created by potrace 1.16, written by Peter Selinger 2001-2019
</metadata>
<g transform="translate(0.000000,43.000000) scale(0.100000,-0.100000)"
fill="#000000" stroke="none">
<path d="M194 419 l-7 -12 -6 -30 -6 -30 -50 -1 -50 -1 -3 -42 -3 -43 -19 0
-18 0 -16 -6 -16 -6 0 -29 0 -28 19 -11 20 -10 21 0 22 0 -5 -27 -5 -28 -7
-23 -7 -22 56 0 56 0 0 -23 0 -23 12 -12 12 -12 43 0 43 0 0 15 0 15 28 10 27
10 21 11 22 11 8 41 9 41 25 6 25 6 0 44 0 45 -35 5 -35 5 -3 47 -3 47 -47 3
-47 3 -5 30 -5 30 -32 3 -31 3 -8 -12z"/>
</g>
</svg>
