<?xml version="1.0" standalone="no"?>
<!DOCTYPE svg PUBLIC "-//W3C//DTD SVG 20010904//EN"
 "http://www.w3.org/TR/2001/REC-SVG-20010904/DTD/svg10.dtd">
<svg version="1.0" xmlns="http://www.w3.org/2000/svg"
 width="32.000000pt" height="39.000000pt" viewBox="0 0 32.000000 39.000000"
 preserveAspectRatio="xMidYMid meet">
<metadata>
Created by potrace 1.16, written by Peter Selinger 2001-2019
</metadata>
<g transform="translate(0.000000,39.000000) scale(0.100000,-0.100000)"
fill="#000000" stroke="none">
<path d="M146 375 l-6 -17 0 -26 0 -27 -60 3 -60 4 0 -62 0 -62 24 6 24 6 11
-14 11 -13 -7 -6 -6 -7 -39 0 -38 0 0 -31 0 -32 11 -37 12 -38 61 5 61 5 13 3
12 4 0 33 0 32 12 -12 12 -12 1 -38 0 -37 22 -3 21 -3 41 11 41 11 0 19 0 20
-10 0 -9 0 -12 40 -12 40 -14 0 -13 0 0 25 0 25 30 0 31 0 -3 62 -3 62 -50 11
-49 10 -6 25 -6 25 -21 3 -20 3 -7 -16z"/>
</g>
</svg>
