<?xml version="1.0" standalone="no"?>
<!DOCTYPE svg PUBLIC "-//W3C//DTD SVG 20010904//EN"
 "http://www.w3.org/TR/2001/REC-SVG-20010904/DTD/svg10.dtd">
<svg version="1.0" xmlns="http://www.w3.org/2000/svg"
 width="43.000000pt" height="42.000000pt" viewBox="0 0 43.000000 42.000000"
 preserveAspectRatio="xMidYMid meet">
<metadata>
Created by potrace 1.16, written by Peter Selinger 2001-2019
</metadata>
<g transform="translate(0.000000,42.000000) scale(0.100000,-0.100000)"
fill="#000000" stroke="none">
<path d="M199 408 l-2 -13 -1 -25 -1 -25 -55 -5 -55 -5 -2 -38 -3 -38 -15 -15
-16 -16 -24 6 -25 6 0 -24 0 -25 16 -9 17 -9 18 4 18 5 5 -23 5 -24 3 -25 3
-25 35 -5 36 -6 12 -8 13 -8 -3 -26 -3 -27 32 -3 32 -3 11 21 12 22 -5 20 -6
20 55 -4 54 -5 17 54 17 54 13 -5 13 -5 6 26 7 26 -10 16 -10 16 -32 0 -31 0
0 45 0 46 -57 14 -58 15 1 23 1 22 -19 0 -18 0 -1 -12z"/>
</g>
</svg>
