<?xml version="1.0" standalone="no"?>
<!DOCTYPE svg PUBLIC "-//W3C//DTD SVG 20010904//EN"
 "http://www.w3.org/TR/2001/REC-SVG-20010904/DTD/svg10.dtd">
<svg version="1.0" xmlns="http://www.w3.org/2000/svg"
 width="45.000000pt" height="44.000000pt" viewBox="0 0 45.000000 44.000000"
 preserveAspectRatio="xMidYMid meet">
<metadata>
Created by potrace 1.16, written by Peter Selinger 2001-2019
</metadata>
<g transform="translate(0.000000,44.000000) scale(0.100000,-0.100000)"
fill="#000000" stroke="none">
<path d="M195 417 l-6 -23 3 -15 3 -14 -56 -3 -56 -3 0 -39 0 -39 -15 -14 -14
-15 -27 5 -27 5 0 -35 0 -36 21 -11 21 -12 14 6 14 5 5 -22 4 -22 3 -25 3 -25
38 -6 37 -6 7 -7 7 -7 1 -27 0 -27 40 -3 39 -3 13 17 13 18 0 24 0 25 49 -7
49 -6 17 50 17 50 13 0 13 0 6 16 6 16 0 27 0 27 -12 12 -12 12 -28 0 -28 0 0
43 0 43 -57 14 -58 15 3 23 3 22 -30 0 -31 0 -5 -23z"/>
</g>
</svg>
