<?xml version="1.0" standalone="no"?>
<!DOCTYPE svg PUBLIC "-//W3C//DTD SVG 20010904//EN"
 "http://www.w3.org/TR/2001/REC-SVG-20010904/DTD/svg10.dtd">
<svg version="1.0" xmlns="http://www.w3.org/2000/svg"
 width="46.000000pt" height="45.000000pt" viewBox="0 0 46.000000 45.000000"
 preserveAspectRatio="xMidYMid meet">
<metadata>
Created by potrace 1.16, written by Peter Selinger 2001-2019
</metadata>
<g transform="translate(0.000000,45.000000) scale(0.100000,-0.100000)"
fill="#000000" stroke="none">
<path d="M213 443 l-13 -5 0 -34 0 -34 -22 -5 -23 -5 -35 -2 -35 -3 3 -47 4
-47 -44 -3 -43 -3 -3 -27 -3 -27 11 -21 11 -20 17 0 18 0 12 -45 12 -45 45 7
45 6 0 -36 0 -35 16 -6 16 -6 27 0 27 0 12 12 12 12 0 34 0 34 28 -5 27 -6 27
-6 27 -7 7 50 6 50 24 6 24 6 6 26 7 25 -11 24 -11 24 -28 3 -28 3 -5 40 -5
39 -55 17 -55 17 3 17 4 18 -14 8 -13 9 -10 -1 -10 -1 -12 -5z"/>
</g>
</svg>
