<?xml version="1.0" standalone="no"?>
<!DOCTYPE svg PUBLIC "-//W3C//DTD SVG 20010904//EN"
 "http://www.w3.org/TR/2001/REC-SVG-20010904/DTD/svg10.dtd">
<svg version="1.0" xmlns="http://www.w3.org/2000/svg"
 width="44.000000pt" height="43.000000pt" viewBox="0 0 44.000000 43.000000"
 preserveAspectRatio="xMidYMid meet">
<metadata>
Created by potrace 1.16, written by Peter Selinger 2001-2019
</metadata>
<g transform="translate(0.000000,43.000000) scale(0.100000,-0.100000)"
fill="#000000" stroke="none">
<path d="M213 423 l-13 -5 0 -34 0 -34 -22 -5 -23 -5 -35 -2 -34 -3 3 -47 3
-48 -42 0 -41 0 -6 -16 -6 -15 12 -25 11 -25 16 3 17 3 13 -45 13 -45 48 0 48
0 -3 -32 -3 -32 27 -7 27 -7 16 10 16 10 3 37 3 38 37 -4 37 -5 17 -7 16 -7 9
53 8 53 13 1 12 2 9 1 10 1 6 20 6 19 -11 22 -12 21 -24 -6 -24 -6 -4 22 -5
23 -3 25 -3 24 -55 17 -55 17 1 20 1 21 -11 4 -11 4 -12 -4z"/>
</g>
</svg>
