<?xml version="1.0" standalone="no"?>
<!DOCTYPE svg PUBLIC "-//W3C//DTD SVG 20010904//EN"
 "http://www.w3.org/TR/2001/REC-SVG-20010904/DTD/svg10.dtd">
<svg version="1.0" xmlns="http://www.w3.org/2000/svg"
 width="36.000000pt" height="44.000000pt" viewBox="0 0 36.000000 44.000000"
 preserveAspectRatio="xMidYMid meet">
<metadata>
Created by potrace 1.16, written by Peter Selinger 2001-2019
</metadata>
<g transform="translate(0.000000,44.000000) scale(0.100000,-0.100000)"
fill="#000000" stroke="none">
<path d="M196 425 l-17 -18 3 -26 3 -26 -55 -5 -55 -5 -3 -48 -3 -49 -24 6
-24 6 -9 -16 -9 -16 5 -24 4 -24 13 0 13 0 7 -30 7 -30 15 -15 14 -15 37 0 37
0 14 -9 14 -9 -7 -26 -6 -25 19 -11 20 -10 23 9 23 8 0 18 0 17 50 16 50 17
-3 35 -3 35 -6 18 -5 19 -18 -5 -17 -4 -17 9 -16 9 0 25 0 24 25 -6 24 -6 15
15 15 14 6 37 7 37 -67 -7 -68 -7 6 34 6 34 -13 23 -13 24 -17 -17z"/>
</g>
</svg>
