<?xml version="1.0" standalone="no"?>
<!DOCTYPE svg PUBLIC "-//W3C//DTD SVG 20010904//EN"
 "http://www.w3.org/TR/2001/REC-SVG-20010904/DTD/svg10.dtd">
<svg version="1.0" xmlns="http://www.w3.org/2000/svg"
 width="44.000000pt" height="35.000000pt" viewBox="0 0 44.000000 35.000000"
 preserveAspectRatio="xMidYMid meet">
<metadata>
Created by potrace 1.16, written by Peter Selinger 2001-2019
</metadata>
<g transform="translate(0.000000,35.000000) scale(0.100000,-0.100000)"
fill="#000000" stroke="none">
<path d="M184 337 l-5 -13 3 -24 3 -25 -50 -5 -50 -5 -3 -25 -3 -25 -4 -21 -5
-22 -32 2 -33 1 -3 -28 -3 -28 12 -15 12 -14 18 5 18 6 5 -23 5 -23 3 -24 3
-25 60 3 60 3 7 11 7 11 -6 28 -5 28 26 0 26 0 1 -12 2 -13 1 -25 1 -25 50 0
50 0 -3 47 -4 48 30 0 30 0 16 6 16 6 0 24 0 24 -25 6 -25 6 -20 -5 -20 -5 6
48 6 49 -38 6 -39 6 -23 5 -23 5 3 17 3 17 -8 13 -8 12 -20 0 -20 0 -5 -13z"/>
</g>
</svg>
