<?xml version="1.0" standalone="no"?>
<!DOCTYPE svg PUBLIC "-//W3C//DTD SVG 20010904//EN"
 "http://www.w3.org/TR/2001/REC-SVG-20010904/DTD/svg10.dtd">
<svg version="1.0" xmlns="http://www.w3.org/2000/svg"
 width="29.000000pt" height="37.000000pt" viewBox="0 0 29.000000 37.000000"
 preserveAspectRatio="xMidYMid meet">
<metadata>
Created by potrace 1.16, written by Peter Selinger 2001-2019
</metadata>
<g transform="translate(0.000000,37.000000) scale(0.100000,-0.100000)"
fill="#000000" stroke="none">
<path d="M112 333 l3 -38 -53 -3 -52 -3 0 -18 0 -18 -6 -31 -6 -31 21 6 21 5
25 -6 25 -6 0 -24 0 -24 -16 -6 -16 -6 -29 0 -29 0 2 -52 2 -53 36 -2 35 -3
23 5 22 5 0 30 0 30 19 0 20 0 7 -22 8 -23 -3 -16 -2 -17 15 -5 15 -6 32 9 32
9 8 -5 9 -5 0 60 0 60 -37 3 -38 3 0 20 0 20 40 5 40 5 -1 18 -1 17 -1 39 -2
40 -27 -15 -28 -14 -38 0 -39 0 7 30 6 30 -6 20 -6 20 -20 0 -20 0 3 -37z"/>
</g>
</svg>
