<?xml version="1.0" standalone="no"?>
<!DOCTYPE svg PUBLIC "-//W3C//DTD SVG 20010904//EN"
 "http://www.w3.org/TR/2001/REC-SVG-20010904/DTD/svg10.dtd">
<svg version="1.0" xmlns="http://www.w3.org/2000/svg"
 width="39.000000pt" height="42.000000pt" viewBox="0 0 39.000000 42.000000"
 preserveAspectRatio="xMidYMid meet">
<metadata>
Created by potrace 1.16, written by Peter Selinger 2001-2019
</metadata>
<g transform="translate(0.000000,42.000000) scale(0.100000,-0.100000)"
fill="#000000" stroke="none">
<path d="M117 413 l-7 -6 0 -28 0 -28 -52 -3 -53 -3 -3 -62 -3 -63 38 -1 38
-2 -27 -4 -26 -4 -11 -61 -10 -61 5 -8 5 -9 50 0 49 0 0 -21 0 -20 16 -16 16
-16 26 9 27 9 3 22 3 21 54 7 54 6 -6 50 -6 49 36 0 36 0 11 21 11 20 -3 22
-3 22 -40 5 -40 5 -3 40 -3 40 -12 7 -12 8 -42 11 -43 11 0 19 0 19 -33 0 -34
0 -6 -7z"/>
</g>
</svg>
