<?xml version="1.0" standalone="no"?>
<!DOCTYPE svg PUBLIC "-//W3C//DTD SVG 20010904//EN"
 "http://www.w3.org/TR/2001/REC-SVG-20010904/DTD/svg10.dtd">
<svg version="1.0" xmlns="http://www.w3.org/2000/svg"
 width="34.000000pt" height="40.000000pt" viewBox="0 0 34.000000 40.000000"
 preserveAspectRatio="xMidYMid meet">
<metadata>
Created by potrace 1.16, written by Peter Selinger 2001-2019
</metadata>
<g transform="translate(0.000000,40.000000) scale(0.100000,-0.100000)"
fill="#000000" stroke="none">
<path d="M177 394 l-7 -7 0 -29 0 -28 -50 0 -50 0 0 -32 0 -33 -8 -11 -7 -11
-25 1 -25 1 0 -35 0 -35 28 -3 27 -3 0 -32 0 -32 6 -21 5 -21 42 1 42 1 1 -23
1 -23 10 -10 10 -10 34 3 34 3 5 35 5 35 32 -3 31 -3 7 11 7 11 -6 35 -7 34
-30 0 -30 0 -6 16 -6 15 11 25 12 24 35 0 35 0 0 45 0 44 -57 3 -58 3 0 30 0
30 -20 3 -21 3 -7 -7z"/>
</g>
</svg>
