<?xml version="1.0" standalone="no"?>
<!DOCTYPE svg PUBLIC "-//W3C//DTD SVG 20010904//EN"
 "http://www.w3.org/TR/2001/REC-SVG-20010904/DTD/svg10.dtd">
<svg version="1.0" xmlns="http://www.w3.org/2000/svg"
 width="45.000000pt" height="43.000000pt" viewBox="0 0 45.000000 43.000000"
 preserveAspectRatio="xMidYMid meet">
<metadata>
Created by potrace 1.16, written by Peter Selinger 2001-2019
</metadata>
<g transform="translate(0.000000,43.000000) scale(0.100000,-0.100000)"
fill="#000000" stroke="none">
<path d="M182 403 l3 -28 -53 -3 -53 -3 3 -42 3 -42 -40 -5 -40 -5 -3 -31 -3
-31 13 -11 13 -10 35 -4 35 -3 -3 -30 -4 -30 -1 -20 -2 -20 30 -2 30 -1 15 -1
15 -1 0 -37 0 -38 29 -3 28 -4 24 6 24 6 0 25 0 25 28 6 27 6 13 4 13 4 -3 51
-3 52 40 1 39 1 10 28 10 28 -10 17 -11 17 -34 5 -34 5 -3 38 -3 39 -50 -7
-50 -7 7 26 6 26 -12 15 -12 15 -35 0 -34 0 3 -27z"/>
</g>
</svg>
