<?xml version="1.0" standalone="no"?>
<!DOCTYPE svg PUBLIC "-//W3C//DTD SVG 20010904//EN"
 "http://www.w3.org/TR/2001/REC-SVG-20010904/DTD/svg10.dtd">
<svg version="1.0" xmlns="http://www.w3.org/2000/svg"
 width="30.000000pt" height="37.000000pt" viewBox="0 0 30.000000 37.000000"
 preserveAspectRatio="xMidYMid meet">
<metadata>
Created by potrace 1.16, written by Peter Selinger 2001-2019
</metadata>
<g transform="translate(0.000000,37.000000) scale(0.100000,-0.100000)"
fill="#000000" stroke="none">
<path d="M163 336 l6 -36 -19 -10 -19 -10 -10 0 -10 0 -3 33 -3 32 -53 3 -53
3 3 -143 3 -143 43 3 42 2 0 -24 0 -25 19 -11 20 -10 28 0 28 0 11 8 12 7 3
20 4 20 38 6 37 6 5 5 5 5 -12 54 -11 54 -10 13 -9 12 -26 0 -26 0 12 12 12
12 35 -3 35 -3 0 56 0 56 -27 11 -28 11 -44 6 -44 5 6 -37z"/>
</g>
</svg>
