<?xml version="1.0" standalone="no"?>
<!DOCTYPE svg PUBLIC "-//W3C//DTD SVG 20010904//EN"
 "http://www.w3.org/TR/2001/REC-SVG-20010904/DTD/svg10.dtd">
<svg version="1.0" xmlns="http://www.w3.org/2000/svg"
 width="28.000000pt" height="35.000000pt" viewBox="0 0 28.000000 35.000000"
 preserveAspectRatio="xMidYMid meet">
<metadata>
Created by potrace 1.16, written by Peter Selinger 2001-2019
</metadata>
<g transform="translate(0.000000,35.000000) scale(0.100000,-0.100000)"
fill="#000000" stroke="none">
<path d="M165 317 l7 -35 -20 -11 -21 -11 -20 0 -21 0 -1 13 -1 12 -2 20 -1
20 -43 3 -43 3 3 -133 3 -133 45 0 45 0 -3 -22 -3 -23 25 -11 25 -12 26 7 26
7 -6 19 -6 19 25 6 26 5 24 5 23 5 -11 47 -11 48 -8 13 -9 13 -19 -6 -19 -6
-6 15 -6 16 12 15 13 15 33 -6 34 -6 0 46 0 46 -27 11 -28 11 -33 5 -33 6 6
-36z"/>
</g>
</svg>
