<?xml version="1.0" standalone="no"?>
<!DOCTYPE svg PUBLIC "-//W3C//DTD SVG 20010904//EN"
 "http://www.w3.org/TR/2001/REC-SVG-20010904/DTD/svg10.dtd">
<svg version="1.0" xmlns="http://www.w3.org/2000/svg"
 width="36.000000pt" height="36.000000pt" viewBox="0 0 36.000000 36.000000"
 preserveAspectRatio="xMidYMid meet">
<metadata>
Created by potrace 1.16, written by Peter Selinger 2001-2019
</metadata>
<g transform="translate(0.000000,36.000000) scale(0.100000,-0.100000)"
fill="#000000" stroke="none">
<path d="M198 308 l-3 -53 -30 0 -30 0 0 33 0 33 -15 9 -15 10 -42 0 -43 0 0
-45 0 -45 26 0 25 0 20 -10 19 -11 0 -13 0 -14 -16 -6 -16 -6 -39 0 -39 0 0
-21 0 -20 11 -43 11 -44 33 11 33 10 25 -7 25 -6 -2 -32 -1 -33 30 -3 29 -4
12 17 12 16 -5 19 -5 19 25 6 26 7 9 -6 10 -6 6 16 6 16 0 39 0 38 33 9 32 8
0 24 0 24 -30 1 -30 0 -3 48 -3 48 -25 9 -25 10 -19 0 -19 0 -3 -52z"/>
</g>
</svg>
