<?xml version="1.0" standalone="no"?>
<!DOCTYPE svg PUBLIC "-//W3C//DTD SVG 20010904//EN"
 "http://www.w3.org/TR/2001/REC-SVG-20010904/DTD/svg10.dtd">
<svg version="1.0" xmlns="http://www.w3.org/2000/svg"
 width="39.000000pt" height="41.000000pt" viewBox="0 0 39.000000 41.000000"
 preserveAspectRatio="xMidYMid meet">
<metadata>
Created by potrace 1.16, written by Peter Selinger 2001-2019
</metadata>
<g transform="translate(0.000000,41.000000) scale(0.100000,-0.100000)"
fill="#000000" stroke="none">
<path d="M140 395 l-13 -15 -1 -23 -1 -22 -53 2 -52 2 0 -42 0 -42 9 -14 9
-14 31 6 32 7 5 -15 6 -15 -13 -16 -12 -15 -41 3 -41 3 2 -47 1 -47 13 -14 14
-14 27 9 28 10 16 -6 16 -6 -5 -22 -6 -22 11 -13 10 -13 23 0 23 0 12 15 12
15 -5 14 -6 14 22 6 22 6 38 0 38 0 -6 34 -7 34 6 19 6 20 28 -5 28 -4 13 16
12 15 -3 28 -3 28 -33 0 -33 0 -9 15 -10 15 0 23 0 22 -57 -2 -58 -3 2 29 2
30 -11 13 -10 13 -8 0 -8 0 -12 -15z"/>
</g>
</svg>
