<?xml version="1.0" standalone="no"?>
<!DOCTYPE svg PUBLIC "-//W3C//DTD SVG 20010904//EN"
 "http://www.w3.org/TR/2001/REC-SVG-20010904/DTD/svg10.dtd">
<svg version="1.0" xmlns="http://www.w3.org/2000/svg"
 width="35.000000pt" height="35.000000pt" viewBox="0 0 35.000000 35.000000"
 preserveAspectRatio="xMidYMid meet">
<metadata>
Created by potrace 1.16, written by Peter Selinger 2001-2019
</metadata>
<g transform="translate(0.000000,35.000000) scale(0.100000,-0.100000)"
fill="#000000" stroke="none">
<path d="M120 315 l0 -35 -55 0 -56 0 -6 -16 -6 -16 9 -27 10 -26 34 0 35 0 3
-28 3 -28 -12 -15 -13 -16 -28 4 -28 5 -6 -20 -6 -19 7 -34 6 -35 42 3 42 3 1
26 1 26 7 12 7 11 18 0 19 0 10 -13 11 -13 -2 -30 -2 -29 53 0 52 -1 8 6 7 5
0 50 0 50 13 -3 13 -2 20 11 20 10 -3 27 -3 27 -32 -1 -32 -2 -3 47 -3 46 -50
5 -50 5 -4 25 -3 25 -12 7 -11 8 -12 0 -13 0 0 -35z"/>
</g>
</svg>
