<?xml version="1.0" standalone="no"?>
<!DOCTYPE svg PUBLIC "-//W3C//DTD SVG 20010904//EN"
 "http://www.w3.org/TR/2001/REC-SVG-20010904/DTD/svg10.dtd">
<svg version="1.0" xmlns="http://www.w3.org/2000/svg"
 width="37.000000pt" height="37.000000pt" viewBox="0 0 37.000000 37.000000"
 preserveAspectRatio="xMidYMid meet">
<metadata>
Created by potrace 1.16, written by Peter Selinger 2001-2019
</metadata>
<g transform="translate(0.000000,37.000000) scale(0.100000,-0.100000)"
fill="#000000" stroke="none">
<path d="M120 335 l0 -34 -57 -3 -58 -3 -3 -32 -3 -32 11 -21 11 -21 32 3 31
3 4 -18 4 -18 -13 -15 -13 -15 -24 6 -25 6 -8 -13 -9 -13 0 -30 0 -30 6 -23 7
-23 51 3 51 3 3 30 4 30 9 10 9 9 12 -12 12 -12 0 -32 1 -33 49 -3 50 -3 23 6
24 6 -7 47 -6 47 34 10 33 10 0 40 0 40 -32 3 -32 3 -3 42 -3 42 -50 5 -50 5
-4 25 -3 25 -12 7 -11 8 -22 0 -23 0 0 -35z"/>
</g>
</svg>
