<?xml version="1.0" standalone="no"?>
<!DOCTYPE svg PUBLIC "-//W3C//DTD SVG 20010904//EN"
 "http://www.w3.org/TR/2001/REC-SVG-20010904/DTD/svg10.dtd">
<svg version="1.0" xmlns="http://www.w3.org/2000/svg"
 width="34.000000pt" height="42.000000pt" viewBox="0 0 34.000000 42.000000"
 preserveAspectRatio="xMidYMid meet">
<metadata>
Created by potrace 1.16, written by Peter Selinger 2001-2019
</metadata>
<g transform="translate(0.000000,42.000000) scale(0.100000,-0.100000)"
fill="#000000" stroke="none">
<path d="M96 411 l-7 -10 7 -26 6 -25 -51 0 -51 0 0 -61 0 -60 32 3 33 3 0
-20 0 -20 -30 -5 -30 -5 -3 -39 -3 -39 5 -23 6 -23 37 -3 38 -3 0 -25 0 -25
53 -3 52 -3 0 14 0 14 39 11 39 12 10 28 11 27 7 29 7 29 19 5 19 5 -3 36 -3
36 -34 3 -33 3 6 49 7 49 -53 3 -53 3 -5 30 -5 30 -32 3 -31 3 -6 -10z"/>
</g>
</svg>
