<?xml version="1.0" standalone="no"?>
<!DOCTYPE svg PUBLIC "-//W3C//DTD SVG 20010904//EN"
 "http://www.w3.org/TR/2001/REC-SVG-20010904/DTD/svg10.dtd">
<svg version="1.0" xmlns="http://www.w3.org/2000/svg"
 width="36.000000pt" height="37.000000pt" viewBox="0 0 36.000000 37.000000"
 preserveAspectRatio="xMidYMid meet">
<metadata>
Created by potrace 1.16, written by Peter Selinger 2001-2019
</metadata>
<g transform="translate(0.000000,37.000000) scale(0.100000,-0.100000)"
fill="#000000" stroke="none">
<path d="M165 337 l7 -34 -18 -17 -17 -17 -8 13 -9 13 0 34 0 34 -31 -7 -32
-6 -28 0 -29 0 0 -50 0 -50 29 0 29 0 6 -15 5 -15 -5 -15 -6 -15 -13 0 -13 0
-5 -14 -5 -13 -7 -47 -7 -46 41 0 41 0 0 -23 0 -23 12 -12 12 -12 33 0 33 0 0
24 0 24 31 6 31 6 24 0 24 0 0 29 0 28 11 32 11 31 25 0 24 0 -3 38 -3 37 -25
1 -26 0 -12 8 -12 7 0 48 0 48 -60 2 -61 1 6 -33z"/>
</g>
</svg>
