<?xml version="1.0" standalone="no"?>
<!DOCTYPE svg PUBLIC "-//W3C//DTD SVG 20010904//EN"
 "http://www.w3.org/TR/2001/REC-SVG-20010904/DTD/svg10.dtd">
<svg version="1.0" xmlns="http://www.w3.org/2000/svg"
 width="34.000000pt" height="35.000000pt" viewBox="0 0 34.000000 35.000000"
 preserveAspectRatio="xMidYMid meet">
<metadata>
Created by potrace 1.16, written by Peter Selinger 2001-2019
</metadata>
<g transform="translate(0.000000,35.000000) scale(0.100000,-0.100000)"
fill="#000000" stroke="none">
<path d="M167 330 l5 -20 -6 -24 -6 -25 -21 -6 -21 -7 -9 13 -9 14 0 34 0 33
-16 -6 -16 -6 -34 0 -34 0 0 -40 0 -40 29 0 30 0 6 -20 6 -20 -6 -20 -6 -20
-14 0 -14 0 -5 -17 -5 -18 -6 -33 -7 -32 45 0 45 0 -5 -20 -5 -20 12 -15 12
-15 24 0 24 0 0 24 0 24 31 6 32 6 21 0 21 0 2 29 2 29 15 35 14 36 22 -6 22
-6 -4 29 -3 29 -24 -3 -24 -2 -13 11 -14 11 0 47 0 46 -49 3 -49 3 5 -21z"/>
</g>
</svg>
