<?xml version="1.0" standalone="no"?>
<!DOCTYPE svg PUBLIC "-//W3C//DTD SVG 20010904//EN"
 "http://www.w3.org/TR/2001/REC-SVG-20010904/DTD/svg10.dtd">
<svg version="1.0" xmlns="http://www.w3.org/2000/svg"
 width="36.000000pt" height="40.000000pt" viewBox="0 0 36.000000 40.000000"
 preserveAspectRatio="xMidYMid meet">
<metadata>
Created by potrace 1.16, written by Peter Selinger 2001-2019
</metadata>
<g transform="translate(0.000000,40.000000) scale(0.100000,-0.100000)"
fill="#000000" stroke="none">
<path d="M185 390 l-6 -9 7 -25 6 -25 -54 -3 -53 -3 -5 -35 -5 -35 -35 0 -35
0 -3 -37 -3 -37 21 -11 21 -11 22 3 22 3 -3 -50 -3 -50 53 0 53 0 3 -25 4 -25
8 -8 8 -9 21 7 21 6 0 36 0 36 45 -6 46 -5 9 19 10 18 0 34 0 35 -19 -5 -19
-5 -21 11 -21 12 0 19 0 19 19 6 19 6 13 -3 14 -3 3 47 3 47 -53 3 -53 3 0 20
0 20 -8 13 -8 12 -19 0 -19 0 -6 -10z"/>
</g>
</svg>
