<?xml version="1.0" standalone="no"?>
<!DOCTYPE svg PUBLIC "-//W3C//DTD SVG 20010904//EN"
 "http://www.w3.org/TR/2001/REC-SVG-20010904/DTD/svg10.dtd">
<svg version="1.0" xmlns="http://www.w3.org/2000/svg"
 width="38.000000pt" height="43.000000pt" viewBox="0 0 38.000000 43.000000"
 preserveAspectRatio="xMidYMid meet">
<metadata>
Created by potrace 1.16, written by Peter Selinger 2001-2019
</metadata>
<g transform="translate(0.000000,43.000000) scale(0.100000,-0.100000)"
fill="#000000" stroke="none">
<path d="M140 400 l0 -30 -25 -6 -25 -6 -35 6 -35 7 0 -49 0 -49 18 -16 19
-17 12 0 12 0 -3 -22 -3 -23 -33 3 -32 4 -6 -16 -6 -16 6 -45 7 -45 39 0 38 0
16 -6 16 -6 0 -34 0 -34 40 0 39 0 11 19 10 20 0 20 0 21 46 0 47 0 -8 33 -7
32 -5 22 -5 22 43 3 44 3 3 23 4 23 -12 15 -12 14 -24 0 -24 0 0 46 0 46 -47
-4 -48 -3 -3 25 -4 25 -10 13 -10 12 -24 0 -24 0 0 -30z"/>
</g>
</svg>
