<?xml version="1.0" standalone="no"?>
<!DOCTYPE svg PUBLIC "-//W3C//DTD SVG 20010904//EN"
 "http://www.w3.org/TR/2001/REC-SVG-20010904/DTD/svg10.dtd">
<svg version="1.0" xmlns="http://www.w3.org/2000/svg"
 width="33.000000pt" height="35.000000pt" viewBox="0 0 33.000000 35.000000"
 preserveAspectRatio="xMidYMid meet">
<metadata>
Created by potrace 1.16, written by Peter Selinger 2001-2019
</metadata>
<g transform="translate(0.000000,35.000000) scale(0.100000,-0.100000)"
fill="#000000" stroke="none">
<path d="M90 315 l0 -35 -45 0 -45 0 0 -39 0 -39 13 -11 14 -11 6 6 6 6 26 -6
25 -6 0 -20 0 -20 -21 -21 -21 -21 -24 5 -25 4 3 -41 3 -41 50 0 50 0 3 25 4
25 8 9 9 9 16 -13 15 -12 0 -29 0 -28 10 -6 10 -6 46 7 45 6 -5 15 -6 15 10
40 11 39 22 -3 22 -3 0 30 0 30 -32 3 -33 3 0 51 0 50 -38 -7 -39 -6 -12 15
-13 15 7 11 7 11 -12 14 -12 15 -29 0 -29 0 0 -35z"/>
</g>
</svg>
