<?xml version="1.0" standalone="no"?>
<!DOCTYPE svg PUBLIC "-//W3C//DTD SVG 20010904//EN"
 "http://www.w3.org/TR/2001/REC-SVG-20010904/DTD/svg10.dtd">
<svg version="1.0" xmlns="http://www.w3.org/2000/svg"
 width="47.000000pt" height="42.000000pt" viewBox="0 0 47.000000 42.000000"
 preserveAspectRatio="xMidYMid meet">
<metadata>
Created by potrace 1.16, written by Peter Selinger 2001-2019
</metadata>
<g transform="translate(0.000000,42.000000) scale(0.100000,-0.100000)"
fill="#000000" stroke="none">
<path d="M205 404 l-17 -17 5 -18 5 -18 -57 -3 -56 -3 -3 -30 -4 -30 -10 -12
-10 -13 -29 0 -29 0 0 -41 0 -40 14 -15 15 -14 14 0 15 0 7 -40 7 -40 36 -1
37 0 15 -7 15 -7 0 -25 0 -25 40 -3 39 -3 13 17 13 18 0 23 0 24 48 -3 47 -3
3 48 3 47 29 0 28 0 16 6 16 6 0 33 0 33 -15 12 -15 12 -24 -6 -24 -6 -6 23
-6 22 0 24 0 24 -32 -8 -33 -7 -22 -5 -23 -5 0 34 0 34 -12 12 -12 12 -12 0
-13 0 -16 -16z"/>
</g>
</svg>
