<?xml version="1.0" standalone="no"?>
<!DOCTYPE svg PUBLIC "-//W3C//DTD SVG 20010904//EN"
 "http://www.w3.org/TR/2001/REC-SVG-20010904/DTD/svg10.dtd">
<svg version="1.0" xmlns="http://www.w3.org/2000/svg"
 width="45.000000pt" height="40.000000pt" viewBox="0 0 45.000000 40.000000"
 preserveAspectRatio="xMidYMid meet">
<metadata>
Created by potrace 1.16, written by Peter Selinger 2001-2019
</metadata>
<g transform="translate(0.000000,40.000000) scale(0.100000,-0.100000)"
fill="#000000" stroke="none">
<path d="M207 386 l-15 -16 5 -19 5 -20 -58 -3 -59 -3 -3 -30 -4 -30 -10 -12
-10 -13 -29 0 -29 0 0 -31 0 -30 14 -15 15 -14 12 2 13 3 9 -42 10 -43 31 0
31 0 23 -6 22 -6 -2 -27 -3 -26 35 0 35 0 9 30 9 30 3 12 3 11 37 -8 38 -9 8
5 8 5 0 49 0 48 20 -5 20 -5 25 6 25 6 0 23 0 23 -11 11 -12 12 -27 -6 -27 -5
-6 24 -7 23 0 23 0 23 -22 -7 -23 -8 -35 -1 -35 0 3 31 3 31 -15 12 -14 12
-15 -15z"/>
</g>
</svg>
