<?xml version="1.0" standalone="no"?>
<!DOCTYPE svg PUBLIC "-//W3C//DTD SVG 20010904//EN"
 "http://www.w3.org/TR/2001/REC-SVG-20010904/DTD/svg10.dtd">
<svg version="1.0" xmlns="http://www.w3.org/2000/svg"
 width="29.000000pt" height="42.000000pt" viewBox="0 0 29.000000 42.000000"
 preserveAspectRatio="xMidYMid meet">
<metadata>
Created by potrace 1.16, written by Peter Selinger 2001-2019
</metadata>
<g transform="translate(0.000000,42.000000) scale(0.100000,-0.100000)"
fill="#000000" stroke="none">
<path d="M134 408 l-8 -13 -1 -20 0 -20 -40 -3 -40 -2 -22 -5 -23 -5 0 -40 0
-40 34 0 34 0 6 -16 6 -17 -11 -14 -12 -14 -15 6 -15 5 -13 -11 -14 -11 0 -37
0 -37 12 -12 12 -12 48 0 48 0 -6 -30 -6 -30 12 -15 12 -15 22 0 22 0 11 11
11 11 -5 14 -5 13 42 12 41 13 10 18 10 19 -3 42 -3 42 -33 -3 -33 -2 -6 16
-6 17 16 12 17 12 25 -5 25 -4 0 61 0 61 -24 0 -23 0 -31 6 -31 6 -3 22 -3 21
-17 3 -16 3 -8 -13z"/>
</g>
</svg>
