<?xml version="1.0" standalone="no"?>
<!DOCTYPE svg PUBLIC "-//W3C//DTD SVG 20010904//EN"
 "http://www.w3.org/TR/2001/REC-SVG-20010904/DTD/svg10.dtd">
<svg version="1.0" xmlns="http://www.w3.org/2000/svg"
 width="31.000000pt" height="44.000000pt" viewBox="0 0 31.000000 44.000000"
 preserveAspectRatio="xMidYMid meet">
<metadata>
Created by potrace 1.16, written by Peter Selinger 2001-2019
</metadata>
<g transform="translate(0.000000,44.000000) scale(0.100000,-0.100000)"
fill="#000000" stroke="none">
<path d="M131 426 l-12 -15 3 -18 3 -18 -40 -3 -40 -2 -22 -5 -23 -5 0 -50 0
-50 35 0 35 0 0 -15 0 -15 -23 0 -23 0 -12 -12 -12 -12 0 -46 0 -46 12 -12 12
-12 43 0 43 0 0 -34 0 -34 14 -11 15 -12 33 3 33 3 13 27 12 26 30 7 30 7 11
19 10 20 -3 52 -3 52 -35 1 -35 0 0 10 0 9 38 3 37 3 0 70 0 69 -24 0 -23 0
-31 6 -31 6 -3 22 -3 21 -26 3 -26 3 -12 -15z"/>
</g>
</svg>
