<?xml version="1.0" standalone="no"?>
<!DOCTYPE svg PUBLIC "-//W3C//DTD SVG 20010904//EN"
 "http://www.w3.org/TR/2001/REC-SVG-20010904/DTD/svg10.dtd">
<svg version="1.0" xmlns="http://www.w3.org/2000/svg"
 width="28.000000pt" height="42.000000pt" viewBox="0 0 28.000000 42.000000"
 preserveAspectRatio="xMidYMid meet">
<metadata>
Created by potrace 1.16, written by Peter Selinger 2001-2019
</metadata>
<g transform="translate(0.000000,42.000000) scale(0.100000,-0.100000)"
fill="#000000" stroke="none">
<path d="M122 383 l3 -38 -60 -5 -60 -5 -3 -47 -3 -47 33 -3 33 -3 0 -30 0
-30 -22 3 -22 3 -11 -41 -11 -40 6 -10 6 -10 40 0 39 0 0 -23 0 -24 18 -16 19
-17 22 0 21 0 10 24 9 25 35 7 35 6 10 12 10 12 -13 49 -13 50 -21 -1 -22 -1
0 24 0 23 23 0 23 0 12 12 12 12 0 46 0 46 -55 18 -55 17 0 20 0 19 -26 0 -26
0 4 -37z"/>
</g>
</svg>
