<?xml version="1.0" standalone="no"?>
<!DOCTYPE svg PUBLIC "-//W3C//DTD SVG 20010904//EN"
 "http://www.w3.org/TR/2001/REC-SVG-20010904/DTD/svg10.dtd">
<svg version="1.0" xmlns="http://www.w3.org/2000/svg"
 width="30.000000pt" height="44.000000pt" viewBox="0 0 30.000000 44.000000"
 preserveAspectRatio="xMidYMid meet">
<metadata>
Created by potrace 1.16, written by Peter Selinger 2001-2019
</metadata>
<g transform="translate(0.000000,44.000000) scale(0.100000,-0.100000)"
fill="#000000" stroke="none">
<path d="M120 400 l0 -39 -57 -3 -58 -3 -3 -57 -3 -57 33 -3 33 -3 3 -17 3
-18 -25 0 -25 0 -11 -41 -11 -41 3 -16 3 -17 43 -3 42 -3 0 -23 0 -23 18 -16
19 -17 32 0 31 0 10 24 9 25 35 7 35 6 12 14 11 14 -14 57 -14 58 -22 3 -22 3
0 10 0 9 23 0 23 0 12 12 12 12 0 56 0 56 -55 18 -55 17 0 20 0 19 -35 0 -35
0 0 -40z"/>
</g>
</svg>
