<?xml version="1.0" standalone="no"?>
<!DOCTYPE svg PUBLIC "-//W3C//DTD SVG 20010904//EN"
 "http://www.w3.org/TR/2001/REC-SVG-20010904/DTD/svg10.dtd">
<svg version="1.0" xmlns="http://www.w3.org/2000/svg"
 width="45.000000pt" height="44.000000pt" viewBox="0 0 45.000000 44.000000"
 preserveAspectRatio="xMidYMid meet">
<metadata>
Created by potrace 1.16, written by Peter Selinger 2001-2019
</metadata>
<g transform="translate(0.000000,44.000000) scale(0.100000,-0.100000)"
fill="#000000" stroke="none">
<path d="M193 433 l-13 -5 0 -34 0 -34 -42 0 -43 0 -14 -9 -14 -9 6 -24 6 -23
-7 -12 -7 -11 -24 -3 -24 -4 -10 -17 -11 -16 12 -26 12 -26 25 0 25 0 0 -50 0
-50 43 0 42 0 10 -8 10 -7 0 -30 0 -30 33 -3 34 -3 19 17 19 17 0 17 0 17 45
6 46 5 6 6 7 6 -17 35 -17 36 0 3 0 4 18 -5 18 -4 27 10 26 10 7 26 7 26 -12
25 -11 24 -31 0 -31 0 7 41 7 42 -56 -7 -56 -7 0 33 0 34 -12 12 -12 12 -21
-1 -20 -1 -12 -5z"/>
</g>
</svg>
