<?xml version="1.0" standalone="no"?>
<!DOCTYPE svg PUBLIC "-//W3C//DTD SVG 20010904//EN"
 "http://www.w3.org/TR/2001/REC-SVG-20010904/DTD/svg10.dtd">
<svg version="1.0" xmlns="http://www.w3.org/2000/svg"
 width="46.000000pt" height="39.000000pt" viewBox="0 0 46.000000 39.000000"
 preserveAspectRatio="xMidYMid meet">
<metadata>
Created by potrace 1.16, written by Peter Selinger 2001-2019
</metadata>
<g transform="translate(0.000000,39.000000) scale(0.100000,-0.100000)"
fill="#000000" stroke="none">
<path d="M208 353 l-3 -38 -57 -3 -58 -3 0 -39 0 -40 -26 0 -25 0 -20 -10 -19
-11 0 -24 0 -23 6 -16 6 -16 28 0 29 0 6 -45 7 -44 17 -5 16 -5 30 -5 30 -6
30 8 30 9 0 31 0 32 10 -3 10 -4 3 -46 3 -47 27 0 27 0 38 11 38 10 5 13 5 12
-16 37 -15 37 27 0 28 1 18 13 17 13 0 37 0 36 -35 0 -35 0 0 41 0 40 -57 -3
-58 -3 -3 48 -3 47 -29 0 -29 0 -3 -37z"/>
</g>
</svg>
