<?xml version="1.0" standalone="no"?>
<!DOCTYPE svg PUBLIC "-//W3C//DTD SVG 20010904//EN"
 "http://www.w3.org/TR/2001/REC-SVG-20010904/DTD/svg10.dtd">
<svg version="1.0" xmlns="http://www.w3.org/2000/svg"
 width="44.000000pt" height="37.000000pt" viewBox="0 0 44.000000 37.000000"
 preserveAspectRatio="xMidYMid meet">
<metadata>
Created by potrace 1.16, written by Peter Selinger 2001-2019
</metadata>
<g transform="translate(0.000000,37.000000) scale(0.100000,-0.100000)"
fill="#000000" stroke="none">
<path d="M208 333 l-3 -38 -58 -3 -59 -3 4 -40 4 -39 -31 0 -31 0 -19 -13 -18
-14 7 -26 6 -27 30 0 29 0 6 -45 7 -44 21 -7 21 -7 37 0 36 0 12 8 12 7 -6 30
-7 30 24 -4 23 -3 3 -49 3 -48 41 6 41 7 18 9 18 10 -15 35 -14 34 0 16 0 16
21 -6 21 -7 24 13 24 12 0 29 0 28 -35 0 -35 0 0 39 0 40 -57 -2 -58 -2 -3 48
-3 47 -19 0 -19 0 -3 -37z"/>
</g>
</svg>
