<?xml version="1.0" standalone="no"?>
<!DOCTYPE svg PUBLIC "-//W3C//DTD SVG 20010904//EN"
 "http://www.w3.org/TR/2001/REC-SVG-20010904/DTD/svg10.dtd">
<svg version="1.0" xmlns="http://www.w3.org/2000/svg"
 width="30.000000pt" height="34.000000pt" viewBox="0 0 30.000000 34.000000"
 preserveAspectRatio="xMidYMid meet">
<metadata>
Created by potrace 1.16, written by Peter Selinger 2001-2019
</metadata>
<g transform="translate(0.000000,34.000000) scale(0.100000,-0.100000)"
fill="#000000" stroke="none">
<path d="M147 334 l-7 -7 0 -34 0 -33 -61 7 -60 6 3 -54 3 -54 35 0 35 0 3
-17 3 -17 -21 -11 -21 -11 -19 6 -19 6 -9 -18 -9 -18 9 -40 8 -40 38 1 37 1
24 2 24 1 -6 29 -6 29 14 12 14 12 11 -7 11 -7 -6 -28 -6 -27 23 -7 23 -6 42
0 42 0 -6 37 -6 38 -8 17 -9 17 -22 3 -23 3 0 20 0 20 18 -3 19 -3 19 17 19
17 0 37 0 38 -31 6 -31 6 -24 0 -23 0 -3 27 -3 28 -15 3 -16 3 -7 -7z"/>
</g>
</svg>
