<?xml version="1.0" standalone="no"?>
<!DOCTYPE svg PUBLIC "-//W3C//DTD SVG 20010904//EN"
 "http://www.w3.org/TR/2001/REC-SVG-20010904/DTD/svg10.dtd">
<svg version="1.0" xmlns="http://www.w3.org/2000/svg"
 width="32.000000pt" height="36.000000pt" viewBox="0 0 32.000000 36.000000"
 preserveAspectRatio="xMidYMid meet">
<metadata>
Created by potrace 1.16, written by Peter Selinger 2001-2019
</metadata>
<g transform="translate(0.000000,36.000000) scale(0.100000,-0.100000)"
fill="#000000" stroke="none">
<path d="M147 354 l-7 -7 0 -32 0 -31 -61 4 -60 4 3 -63 3 -64 30 -2 30 -1 10
-1 10 -2 -18 -13 -17 -13 -24 4 -24 5 -11 -20 -11 -21 11 -49 10 -50 52 3 52
2 18 1 17 2 0 35 0 35 8 0 9 0 -5 -29 -4 -28 24 -6 23 -7 53 0 53 0 -7 48 -7
47 -9 17 -9 18 -19 0 -19 0 -6 10 -6 10 24 0 24 0 16 18 17 19 0 45 0 46 -31
6 -32 6 -23 0 -23 0 -3 28 -3 27 -25 3 -26 3 -7 -7z"/>
</g>
</svg>
