<?xml version="1.0" standalone="no"?>
<!DOCTYPE svg PUBLIC "-//W3C//DTD SVG 20010904//EN"
 "http://www.w3.org/TR/2001/REC-SVG-20010904/DTD/svg10.dtd">
<svg version="1.0" xmlns="http://www.w3.org/2000/svg"
 width="36.000000pt" height="35.000000pt" viewBox="0 0 36.000000 35.000000"
 preserveAspectRatio="xMidYMid meet">
<metadata>
Created by potrace 1.16, written by Peter Selinger 2001-2019
</metadata>
<g transform="translate(0.000000,35.000000) scale(0.100000,-0.100000)"
fill="#000000" stroke="none">
<path d="M97 344 l-7 -7 0 -29 0 -28 -45 0 -45 0 0 -60 0 -61 36 7 36 7 -4
-24 -3 -24 -30 0 -30 0 -3 -63 -3 -62 61 0 60 0 0 36 0 35 18 -3 17 -3 3 -27
3 -27 55 -7 55 -6 5 5 6 5 12 48 12 48 25 6 24 6 4 19 3 19 -18 13 -18 13 -28
0 -29 0 7 50 7 50 -39 1 -39 0 -15 7 -15 7 0 25 0 25 -35 3 -36 3 -7 -7z"/>
</g>
</svg>
