<?xml version="1.0" standalone="no"?>
<!DOCTYPE svg PUBLIC "-//W3C//DTD SVG 20010904//EN"
 "http://www.w3.org/TR/2001/REC-SVG-20010904/DTD/svg10.dtd">
<svg version="1.0" xmlns="http://www.w3.org/2000/svg"
 width="45.000000pt" height="30.000000pt" viewBox="0 0 45.000000 30.000000"
 preserveAspectRatio="xMidYMid meet">
<metadata>
Created by potrace 1.16, written by Peter Selinger 2001-2019
</metadata>
<g transform="translate(0.000000,30.000000) scale(0.100000,-0.100000)"
fill="#000000" stroke="none">
<path d="M74 242 l1 -57 -32 3 -31 3 -7 -21 -7 -21 12 -14 11 -14 27 -3 27 -3
3 -58 3 -57 52 0 52 0 14 9 14 9 -7 17 -6 18 12 15 13 15 5 -24 6 -23 49 -13
50 -13 13 0 14 0 -8 32 -7 33 -1 20 -1 20 43 1 44 0 9 15 9 14 -3 15 -2 15
-33 0 -33 0 -9 15 -10 15 0 41 0 42 -16 6 -16 6 -33 0 -34 0 -3 -42 -3 -43
-30 0 -30 0 3 32 2 33 -22 4 -23 5 -41 5 -41 6 1 -58z"/>
</g>
</svg>
