<?xml version="1.0" standalone="no"?>
<!DOCTYPE svg PUBLIC "-//W3C//DTD SVG 20010904//EN"
 "http://www.w3.org/TR/2001/REC-SVG-20010904/DTD/svg10.dtd">
<svg version="1.0" xmlns="http://www.w3.org/2000/svg"
 width="43.000000pt" height="28.000000pt" viewBox="0 0 43.000000 28.000000"
 preserveAspectRatio="xMidYMid meet">
<metadata>
Created by potrace 1.16, written by Peter Selinger 2001-2019
</metadata>
<g transform="translate(0.000000,28.000000) scale(0.100000,-0.100000)"
fill="#000000" stroke="none">
<path d="M258 238 l-3 -43 -40 0 -40 0 0 30 0 30 -10 7 -10 8 -37 0 -37 0 -3
-52 -3 -53 -32 1 -32 2 -5 -13 -5 -14 12 -9 12 -10 25 -4 25 -3 3 -58 3 -57
39 0 38 0 15 6 15 5 -5 20 -5 19 12 15 12 15 14 0 13 0 3 -22 3 -22 25 -6 25
-7 26 -6 27 -7 -10 40 -10 40 6 15 5 15 42 -2 41 -1 8 13 9 14 -5 8 -5 7 -28
-5 -29 -6 -11 20 -11 21 0 39 0 40 -16 6 -16 6 -23 0 -24 0 -3 -42z"/>
</g>
</svg>
