<?xml version="1.0" standalone="no"?>
<!DOCTYPE svg PUBLIC "-//W3C//DTD SVG 20010904//EN"
 "http://www.w3.org/TR/2001/REC-SVG-20010904/DTD/svg10.dtd">
<svg version="1.0" xmlns="http://www.w3.org/2000/svg"
 width="42.000000pt" height="37.000000pt" viewBox="0 0 42.000000 37.000000"
 preserveAspectRatio="xMidYMid meet">
<metadata>
Created by potrace 1.16, written by Peter Selinger 2001-2019
</metadata>
<g transform="translate(0.000000,37.000000) scale(0.100000,-0.100000)"
fill="#000000" stroke="none">
<path d="M68 318 l-3 -53 -32 -3 -33 -3 0 -23 0 -24 14 -12 15 -12 28 4 28 3
-1 -25 0 -25 -8 -33 -8 -33 50 7 51 6 -6 -21 -5 -21 6 -25 6 -25 39 0 39 0 6
16 6 16 0 30 0 31 46 -7 45 -6 -3 58 -3 57 14 -3 15 -3 23 6 23 5 0 30 0 30
-19 0 -19 0 -16 6 -16 6 0 45 0 45 -46 -7 -47 -7 -14 -5 -14 -5 3 -22 3 -21
-30 0 -30 0 0 35 0 35 -52 3 -52 3 -3 -53z"/>
</g>
</svg>
