<?xml version="1.0" standalone="no"?>
<!DOCTYPE svg PUBLIC "-//W3C//DTD SVG 20010904//EN"
 "http://www.w3.org/TR/2001/REC-SVG-20010904/DTD/svg10.dtd">
<svg version="1.0" xmlns="http://www.w3.org/2000/svg"
 width="39.000000pt" height="29.000000pt" viewBox="0 0 39.000000 29.000000"
 preserveAspectRatio="xMidYMid meet">
<metadata>
Created by potrace 1.16, written by Peter Selinger 2001-2019
</metadata>
<g transform="translate(0.000000,29.000000) scale(0.100000,-0.100000)"
fill="#000000" stroke="none">
<path d="M20 236 l0 -55 42 -3 43 -3 3 -19 4 -18 -11 -11 -10 -10 -46 1 -45 2
0 -27 0 -27 12 -33 12 -33 63 0 63 0 0 19 0 19 6 16 6 16 8 0 9 0 3 -32 3 -33
59 -3 59 -3 -7 33 -7 33 -6 28 -6 27 41 0 40 0 16 6 16 6 0 24 0 23 -19 11
-20 10 -25 0 -26 0 0 45 0 45 -54 0 -55 0 -3 -37 -3 -38 -19 -3 -19 -4 -8 14
-9 13 0 28 0 27 -55 0 -55 0 0 -54z"/>
</g>
</svg>
