<?xml version="1.0" standalone="no"?>
<!DOCTYPE svg PUBLIC "-//W3C//DTD SVG 20010904//EN"
 "http://www.w3.org/TR/2001/REC-SVG-20010904/DTD/svg10.dtd">
<svg version="1.0" xmlns="http://www.w3.org/2000/svg"
 width="37.000000pt" height="27.000000pt" viewBox="0 0 37.000000 27.000000"
 preserveAspectRatio="xMidYMid meet">
<metadata>
Created by potrace 1.16, written by Peter Selinger 2001-2019
</metadata>
<g transform="translate(0.000000,27.000000) scale(0.100000,-0.100000)"
fill="#000000" stroke="none">
<path d="M20 226 l0 -45 43 -3 42 -3 3 -33 3 -32 -25 -10 -26 -10 -30 6 -30 7
0 -19 0 -18 12 -33 12 -33 53 0 53 0 0 23 0 23 13 17 12 17 14 -9 14 -9 1 -29
1 -28 49 -3 49 -3 -7 17 -7 18 -6 43 -6 43 41 0 40 0 16 6 16 6 0 14 0 13 -19
11 -20 10 -25 0 -26 0 0 45 0 45 -44 0 -45 0 -3 -37 -3 -38 -29 -3 -29 -4 -8
14 -9 13 0 28 0 27 -45 0 -45 0 0 -44z"/>
</g>
</svg>
