<?xml version="1.0" standalone="no"?>
<!DOCTYPE svg PUBLIC "-//W3C//DTD SVG 20010904//EN"
 "http://www.w3.org/TR/2001/REC-SVG-20010904/DTD/svg10.dtd">
<svg version="1.0" xmlns="http://www.w3.org/2000/svg"
 width="33.000000pt" height="36.000000pt" viewBox="0 0 33.000000 36.000000"
 preserveAspectRatio="xMidYMid meet">
<metadata>
Created by potrace 1.16, written by Peter Selinger 2001-2019
</metadata>
<g transform="translate(0.000000,36.000000) scale(0.100000,-0.100000)"
fill="#000000" stroke="none">
<path d="M70 333 l0 -28 -6 -22 -6 -23 -29 0 -29 0 0 -24 0 -25 23 -3 22 -3 8
-56 9 -56 55 5 56 5 -7 -27 -7 -28 6 -18 6 -18 14 -6 14 -5 16 15 15 15 0 36
0 35 45 -4 46 -3 -3 55 -3 54 -30 1 -30 0 -3 33 -3 32 13 1 13 1 17 -1 17 -2
10 20 11 20 0 25 0 26 -43 0 -44 0 0 -31 0 -31 -14 -9 -14 -9 -25 2 -25 3 -1
28 -1 29 -14 9 -14 9 -32 0 -33 0 0 -27z"/>
</g>
</svg>
