<?xml version="1.0" standalone="no"?>
<!DOCTYPE svg PUBLIC "-//W3C//DTD SVG 20010904//EN"
 "http://www.w3.org/TR/2001/REC-SVG-20010904/DTD/svg10.dtd">
<svg version="1.0" xmlns="http://www.w3.org/2000/svg"
 width="35.000000pt" height="38.000000pt" viewBox="0 0 35.000000 38.000000"
 preserveAspectRatio="xMidYMid meet">
<metadata>
Created by potrace 1.16, written by Peter Selinger 2001-2019
</metadata>
<g transform="translate(0.000000,38.000000) scale(0.100000,-0.100000)"
fill="#000000" stroke="none">
<path d="M70 353 l0 -28 -6 -22 -6 -23 -29 0 -29 0 0 -34 0 -35 22 -3 23 -3 9
-57 8 -58 52 6 52 6 -4 -34 -4 -35 17 -16 16 -17 14 0 14 0 15 16 16 15 0 36
0 36 45 -7 46 -6 -3 68 -3 67 -30 0 -30 0 -3 23 -3 22 30 0 30 0 11 19 10 20
0 35 0 36 -55 0 -55 0 0 -34 0 -35 -20 -6 -20 -6 -9 5 -9 6 5 19 5 18 -17 17
-16 16 -45 0 -44 0 0 -27z"/>
</g>
</svg>
