<?xml version="1.0" standalone="no"?>
<!DOCTYPE svg PUBLIC "-//W3C//DTD SVG 20010904//EN"
 "http://www.w3.org/TR/2001/REC-SVG-20010904/DTD/svg10.dtd">
<svg version="1.0" xmlns="http://www.w3.org/2000/svg"
 width="42.000000pt" height="27.000000pt" viewBox="0 0 42.000000 27.000000"
 preserveAspectRatio="xMidYMid meet">
<metadata>
Created by potrace 1.16, written by Peter Selinger 2001-2019
</metadata>
<g transform="translate(0.000000,27.000000) scale(0.100000,-0.100000)"
fill="#000000" stroke="none">
<path d="M74 240 l6 -32 -6 -25 -7 -25 -28 6 -28 5 -6 -10 -7 -10 12 -14 12
-15 24 6 24 6 2 -18 2 -19 0 -45 1 -45 52 -3 52 -3 3 33 3 33 18 3 17 3 0 -24
0 -25 23 -6 22 -6 27 0 27 0 -2 53 -2 52 41 -3 41 -3 12 15 13 16 -6 15 -5 15
-32 -7 -31 -6 -9 14 -9 14 0 39 0 38 -22 -6 -23 -6 -18 0 -17 0 -10 -25 -10
-25 -24 0 -25 0 -6 19 -6 19 3 13 3 14 -54 3 -54 3 7 -31z"/>
</g>
</svg>
