<?xml version="1.0" standalone="no"?>
<!DOCTYPE svg PUBLIC "-//W3C//DTD SVG 20010904//EN"
 "http://www.w3.org/TR/2001/REC-SVG-20010904/DTD/svg10.dtd">
<svg version="1.0" xmlns="http://www.w3.org/2000/svg"
 width="43.000000pt" height="28.000000pt" viewBox="0 0 43.000000 28.000000"
 preserveAspectRatio="xMidYMid meet">
<metadata>
Created by potrace 1.16, written by Peter Selinger 2001-2019
</metadata>
<g transform="translate(0.000000,28.000000) scale(0.100000,-0.100000)"
fill="#000000" stroke="none">
<path d="M70 233 l0 -48 -9 -14 -9 -14 -21 6 -21 5 -6 -9 -6 -10 12 -13 11
-14 19 5 19 5 7 -27 6 -26 -4 -37 -5 -37 41 3 41 3 24 5 23 5 -6 35 -7 34 16
6 15 6 15 -12 15 -12 -3 -32 -2 -31 55 -3 55 -3 -3 46 -4 45 34 0 34 0 12 12
12 12 0 28 0 28 -25 6 -25 6 -20 -5 -20 -5 0 44 0 44 -5 0 -4 0 -51 -11 -50
-11 0 -24 0 -24 -41 0 -42 0 6 34 5 34 -15 6 -15 6 -29 0 -29 0 0 -47z"/>
</g>
</svg>
