<?xml version="1.0" standalone="no"?>
<!DOCTYPE svg PUBLIC "-//W3C//DTD SVG 20010904//EN"
 "http://www.w3.org/TR/2001/REC-SVG-20010904/DTD/svg10.dtd">
<svg version="1.0" xmlns="http://www.w3.org/2000/svg"
 width="46.000000pt" height="32.000000pt" viewBox="0 0 46.000000 32.000000"
 preserveAspectRatio="xMidYMid meet">
<metadata>
Created by potrace 1.16, written by Peter Selinger 2001-2019
</metadata>
<g transform="translate(0.000000,32.000000) scale(0.100000,-0.100000)"
fill="#000000" stroke="none">
<path d="M254 292 l7 -27 -14 -19 -14 -19 -11 7 -12 7 0 35 0 34 -59 0 -60 0
-3 -52 -3 -53 -38 -3 -38 -3 -6 -15 -5 -14 12 -15 12 -15 44 0 44 0 0 -28 0
-28 -15 -20 -14 -19 -1 -18 0 -18 38 7 37 7 22 8 22 8 7 26 6 26 17 -3 16 -3
0 -40 0 -40 37 -3 37 -3 36 17 35 16 0 34 0 34 35 14 35 15 0 45 0 46 -34 0
-34 0 -6 16 -6 16 0 24 0 24 -26 10 -25 10 -40 0 -41 0 6 -28z"/>
</g>
</svg>
