<?xml version="1.0" standalone="no"?>
<!DOCTYPE svg PUBLIC "-//W3C//DTD SVG 20010904//EN"
 "http://www.w3.org/TR/2001/REC-SVG-20010904/DTD/svg10.dtd">
<svg version="1.0" xmlns="http://www.w3.org/2000/svg"
 width="44.000000pt" height="30.000000pt" viewBox="0 0 44.000000 30.000000"
 preserveAspectRatio="xMidYMid meet">
<metadata>
Created by potrace 1.16, written by Peter Selinger 2001-2019
</metadata>
<g transform="translate(0.000000,30.000000) scale(0.100000,-0.100000)"
fill="#000000" stroke="none">
<path d="M257 276 l5 -24 -12 -21 -11 -22 -22 3 -22 3 -3 38 -3 37 -49 0 -49
0 -3 -52 -3 -53 -30 -3 -30 -3 -14 -5 -13 -4 13 -16 13 -15 40 3 41 3 3 -38 3
-39 -15 -23 -16 -24 0 -5 0 -4 43 9 42 10 13 17 12 16 -5 14 -5 13 33 -3 32
-3 0 -40 0 -40 27 -3 27 -3 36 17 35 16 0 28 0 28 6 16 6 16 9 -6 9 -5 20 11
20 11 0 34 0 35 -34 0 -34 0 -6 16 -6 16 0 24 0 24 -26 10 -25 10 -28 0 -28 0
4 -24z"/>
</g>
</svg>
