<?xml version="1.0" standalone="no"?>
<!DOCTYPE svg PUBLIC "-//W3C//DTD SVG 20010904//EN"
 "http://www.w3.org/TR/2001/REC-SVG-20010904/DTD/svg10.dtd">
<svg version="1.0" xmlns="http://www.w3.org/2000/svg"
 width="28.000000pt" height="28.000000pt" viewBox="0 0 28.000000 28.000000"
 preserveAspectRatio="xMidYMid meet">
<metadata>
Created by potrace 1.16, written by Peter Selinger 2001-2019
</metadata>
<g transform="translate(0.000000,28.000000) scale(0.100000,-0.100000)"
fill="#000000" stroke="none">
<path d="M184 256 l6 -25 -16 -16 -16 -16 -21 3 -20 3 -8 15 -8 15 -5 18 -5
17 -46 0 -45 0 0 -29 0 -29 6 -16 6 -16 34 0 34 0 0 -35 0 -34 -20 -11 -20
-11 -10 6 -9 6 -5 -23 -5 -23 -4 -27 -4 -28 28 0 28 0 25 10 26 10 0 30 0 30
20 0 19 0 11 -20 10 -19 -1 -8 -1 -8 1 -12 1 -13 53 0 52 0 -1 48 -1 47 -1 19
-2 18 -24 -6 -24 -6 -12 15 -12 14 7 10 6 10 28 -5 28 -6 7 25 6 25 -6 30 -6
30 -30 6 -30 6 -15 0 -15 0 6 -24z"/>
</g>
</svg>
