<?xml version="1.0" standalone="no"?>
<!DOCTYPE svg PUBLIC "-//W3C//DTD SVG 20010904//EN"
 "http://www.w3.org/TR/2001/REC-SVG-20010904/DTD/svg10.dtd">
<svg version="1.0" xmlns="http://www.w3.org/2000/svg"
 width="40.000000pt" height="30.000000pt" viewBox="0 0 40.000000 30.000000"
 preserveAspectRatio="xMidYMid meet">
<metadata>
Created by potrace 1.16, written by Peter Selinger 2001-2019
</metadata>
<g transform="translate(0.000000,30.000000) scale(0.100000,-0.100000)"
fill="#000000" stroke="none">
<path d="M91 256 l4 -46 -35 0 -36 0 -12 -12 -12 -12 0 -33 0 -32 30 -16 29
-15 21 0 21 0 -3 -43 -3 -42 59 -3 59 -3 8 13 9 13 0 23 0 22 8 0 7 0 10 -22
10 -23 35 -6 35 -6 26 -7 26 -7 6 38 7 38 0 28 0 27 -28 -2 -28 -2 -12 8 -12
7 0 20 0 19 18 0 18 0 12 12 12 12 0 38 0 38 -19 0 -18 0 -32 -6 -31 -6 0 -24
0 -24 -35 0 -35 0 0 35 0 35 -37 0 -38 0 -24 7 -23 6 3 -47z"/>
</g>
</svg>
