<?xml version="1.0" standalone="no"?>
<!DOCTYPE svg PUBLIC "-//W3C//DTD SVG 20010904//EN"
 "http://www.w3.org/TR/2001/REC-SVG-20010904/DTD/svg10.dtd">
<svg version="1.0" xmlns="http://www.w3.org/2000/svg"
 width="29.000000pt" height="31.000000pt" viewBox="0 0 29.000000 31.000000"
 preserveAspectRatio="xMidYMid meet">
<metadata>
Created by potrace 1.16, written by Peter Selinger 2001-2019
</metadata>
<g transform="translate(0.000000,31.000000) scale(0.100000,-0.100000)"
fill="#000000" stroke="none">
<path d="M174 287 l6 -24 -13 -17 -13 -18 -20 3 -19 4 -3 33 -3 32 -55 0 -54
0 0 -59 0 -60 38 -3 37 -3 0 -15 0 -15 -32 -3 -33 -3 0 -38 0 -38 -6 -32 -6
-31 48 6 49 7 18 9 17 9 0 29 0 30 15 0 15 0 0 -25 0 -25 28 -6 27 -6 33 -10
33 -10 5 4 4 5 -6 61 -7 61 -26 3 -26 3 0 25 0 25 24 -3 24 -4 8 14 9 13 0 41
0 42 -22 6 -23 6 -39 0 -38 0 6 -23z"/>
</g>
</svg>
