<?xml version="1.0" standalone="no"?>
<!DOCTYPE svg PUBLIC "-//W3C//DTD SVG 20010904//EN"
 "http://www.w3.org/TR/2001/REC-SVG-20010904/DTD/svg10.dtd">
<svg version="1.0" xmlns="http://www.w3.org/2000/svg"
 width="36.000000pt" height="37.000000pt" viewBox="0 0 36.000000 37.000000"
 preserveAspectRatio="xMidYMid meet">
<metadata>
Created by potrace 1.16, written by Peter Selinger 2001-2019
</metadata>
<g transform="translate(0.000000,37.000000) scale(0.100000,-0.100000)"
fill="#000000" stroke="none">
<path d="M175 331 l7 -39 -21 -12 -21 -11 -13 8 -12 8 0 30 0 30 -58 3 -57 3
0 -55 0 -55 38 -3 37 -3 3 -28 3 -28 -25 7 -25 6 -10 -39 -11 -38 0 -22 0 -22
43 -3 42 -3 3 -32 3 -33 29 0 28 0 16 6 16 6 0 40 0 40 23 -7 22 -7 28 -5 27
-5 0 30 0 29 6 32 6 31 23 -6 23 -6 7 21 6 21 -6 10 -6 10 -35 0 -34 0 0 55 0
55 -26 10 -25 10 -31 0 -30 0 7 -39z"/>
</g>
</svg>
