<?xml version="1.0" standalone="no"?>
<!DOCTYPE svg PUBLIC "-//W3C//DTD SVG 20010904//EN"
 "http://www.w3.org/TR/2001/REC-SVG-20010904/DTD/svg10.dtd">
<svg version="1.0" xmlns="http://www.w3.org/2000/svg"
 width="34.000000pt" height="35.000000pt" viewBox="0 0 34.000000 35.000000"
 preserveAspectRatio="xMidYMid meet">
<metadata>
Created by potrace 1.16, written by Peter Selinger 2001-2019
</metadata>
<g transform="translate(0.000000,35.000000) scale(0.100000,-0.100000)"
fill="#000000" stroke="none">
<path d="M177 311 l5 -39 -22 -12 -22 -12 -24 6 -24 6 2 33 3 32 -47 3 -48 3
0 -45 0 -46 35 0 34 0 9 -16 9 -16 -5 -25 -5 -25 -23 5 -24 4 -10 -36 -10 -36
0 -12 0 -13 39 0 39 0 10 -13 11 -13 -6 -22 -5 -22 23 0 24 0 14 9 13 9 -4 37
-4 37 30 -5 31 -5 23 -7 23 -8 -3 9 -2 9 7 54 8 53 24 -4 24 -5 5 13 5 12 -6
6 -6 6 -34 0 -33 0 0 55 0 55 -26 10 -25 10 -19 0 -18 0 5 -39z"/>
</g>
</svg>
