<?xml version="1.0" standalone="no"?>
<!DOCTYPE svg PUBLIC "-//W3C//DTD SVG 20010904//EN"
 "http://www.w3.org/TR/2001/REC-SVG-20010904/DTD/svg10.dtd">
<svg version="1.0" xmlns="http://www.w3.org/2000/svg"
 width="27.000000pt" height="39.000000pt" viewBox="0 0 27.000000 39.000000"
 preserveAspectRatio="xMidYMid meet">
<metadata>
Created by potrace 1.16, written by Peter Selinger 2001-2019
</metadata>
<g transform="translate(0.000000,39.000000) scale(0.100000,-0.100000)"
fill="#000000" stroke="none">
<path d="M112 378 l-12 -12 0 -23 0 -22 -50 6 -50 6 0 -24 0 -24 7 -23 6 -24
27 5 27 6 12 -12 11 -11 0 -23 0 -23 -25 -6 -25 -6 -20 5 -20 5 0 -53 0 -54
47 -3 47 -3 1 -30 0 -30 27 -3 27 -3 21 11 21 11 -6 9 -6 9 28 7 28 6 13 4 12
3 0 61 0 60 -24 -6 -24 -6 -12 22 -11 21 12 15 13 15 22 -5 22 -6 7 28 6 29
-10 25 -10 26 -42 7 -41 7 -5 19 -5 19 -17 0 -17 0 -12 -12z"/>
</g>
</svg>
