<?xml version="1.0" standalone="no"?>
<!DOCTYPE svg PUBLIC "-//W3C//DTD SVG 20010904//EN"
 "http://www.w3.org/TR/2001/REC-SVG-20010904/DTD/svg10.dtd">
<svg version="1.0" xmlns="http://www.w3.org/2000/svg"
 width="29.000000pt" height="41.000000pt" viewBox="0 0 29.000000 41.000000"
 preserveAspectRatio="xMidYMid meet">
<metadata>
Created by potrace 1.16, written by Peter Selinger 2001-2019
</metadata>
<g transform="translate(0.000000,41.000000) scale(0.100000,-0.100000)"
fill="#000000" stroke="none">
<path d="M112 398 l-12 -12 0 -20 0 -21 -50 3 -50 4 0 -34 0 -33 6 -22 6 -23
34 0 35 0 6 -16 6 -16 -14 -9 -14 -9 -33 5 -32 6 0 -66 0 -65 44 0 45 0 3 -32
3 -33 42 -3 43 -3 23 24 22 25 25 4 25 3 3 73 3 74 -28 -4 -28 -3 0 20 0 20
27 -3 27 -3 6 35 7 35 -9 28 -9 27 -45 11 -44 11 -3 17 -3 17 -28 0 -27 0 -12
-12z"/>
</g>
</svg>
