<?xml version="1.0" standalone="no"?>
<!DOCTYPE svg PUBLIC "-//W3C//DTD SVG 20010904//EN"
 "http://www.w3.org/TR/2001/REC-SVG-20010904/DTD/svg10.dtd">
<svg version="1.0" xmlns="http://www.w3.org/2000/svg"
 width="38.000000pt" height="35.000000pt" viewBox="0 0 38.000000 35.000000"
 preserveAspectRatio="xMidYMid meet">
<metadata>
Created by potrace 1.16, written by Peter Selinger 2001-2019
</metadata>
<g transform="translate(0.000000,35.000000) scale(0.100000,-0.100000)"
fill="#000000" stroke="none">
<path d="M138 323 l-3 -28 -50 -3 -50 -3 -7 -12 -8 -12 0 -37 0 -38 30 0 29 0
10 -17 9 -17 -9 -18 -10 -18 -39 0 -40 0 0 -20 0 -20 12 -39 12 -39 56 5 55 5
13 4 12 3 0 31 0 30 10 0 10 0 0 -24 0 -25 18 -5 17 -5 47 -7 48 -6 -3 53 -2
54 27 3 27 3 11 14 12 15 -6 25 -6 25 -37 0 -36 0 6 44 6 45 -46 3 -47 3 -6
25 -6 25 -31 3 -32 3 -3 -28z"/>
</g>
</svg>
