<?xml version="1.0" standalone="no"?>
<!DOCTYPE svg PUBLIC "-//W3C//DTD SVG 20010904//EN"
 "http://www.w3.org/TR/2001/REC-SVG-20010904/DTD/svg10.dtd">
<svg version="1.0" xmlns="http://www.w3.org/2000/svg"
 width="42.000000pt" height="36.000000pt" viewBox="0 0 42.000000 36.000000"
 preserveAspectRatio="xMidYMid meet">
<metadata>
Created by potrace 1.16, written by Peter Selinger 2001-2019
</metadata>
<g transform="translate(0.000000,36.000000) scale(0.100000,-0.100000)"
fill="#000000" stroke="none">
<path d="M259 358 l0 -3 -3 -38 -3 -38 -17 -17 -16 -17 -18 11 -17 11 -3 37
-3 36 -51 0 -50 0 4 -52 3 -53 -40 -5 -40 -5 0 -20 0 -20 38 -3 37 -3 0 -48 0
-47 43 -10 42 -9 -3 -32 -2 -33 39 0 39 0 6 16 6 16 0 35 0 35 28 -6 27 -7 17
-5 18 -5 -7 33 -6 33 -3 4 -3 4 10 19 10 19 19 -6 19 -6 21 11 21 11 -3 17 -3
17 -35 0 -35 0 -3 52 -3 52 -22 6 -22 7 -17 4 -18 5 -1 -3z"/>
</g>
</svg>
