<?xml version="1.0" standalone="no"?>
<!DOCTYPE svg PUBLIC "-//W3C//DTD SVG 20010904//EN"
 "http://www.w3.org/TR/2001/REC-SVG-20010904/DTD/svg10.dtd">
<svg version="1.0" xmlns="http://www.w3.org/2000/svg"
 width="36.000000pt" height="31.000000pt" viewBox="0 0 36.000000 31.000000"
 preserveAspectRatio="xMidYMid meet">
<metadata>
Created by potrace 1.16, written by Peter Selinger 2001-2019
</metadata>
<g transform="translate(0.000000,31.000000) scale(0.100000,-0.100000)"
fill="#000000" stroke="none">
<path d="M172 277 l1 -33 -12 -22 -12 -23 -17 3 -17 3 -5 40 -5 40 -52 3 -53
3 0 -43 0 -43 9 -13 8 -14 29 4 29 3 3 -22 3 -23 -24 0 -25 0 -11 -44 -11 -45
0 -20 0 -20 44 -6 45 -7 10 7 11 6 0 35 0 34 15 0 15 0 0 -40 0 -40 53 0 52 0
23 7 24 6 -6 16 -5 16 -7 23 -6 22 29 0 29 0 12 12 12 12 0 36 0 36 -12 12
-12 12 -23 0 -23 0 0 28 0 27 -6 23 -6 22 -54 0 -53 0 1 -33z"/>
</g>
</svg>
