<?xml version="1.0" standalone="no"?>
<!DOCTYPE svg PUBLIC "-//W3C//DTD SVG 20010904//EN"
 "http://www.w3.org/TR/2001/REC-SVG-20010904/DTD/svg10.dtd">
<svg version="1.0" xmlns="http://www.w3.org/2000/svg"
 width="30.000000pt" height="38.000000pt" viewBox="0 0 30.000000 38.000000"
 preserveAspectRatio="xMidYMid meet">
<metadata>
Created by potrace 1.16, written by Peter Selinger 2001-2019
</metadata>
<g transform="translate(0.000000,38.000000) scale(0.100000,-0.100000)"
fill="#000000" stroke="none">
<path d="M163 351 l6 -29 -13 -17 -13 -18 -16 6 -16 6 6 36 6 36 -59 -3 -59
-3 -3 -137 -3 -138 50 0 50 0 3 -42 3 -43 35 -3 34 -4 13 18 13 18 0 28 0 28
40 0 41 0 5 15 6 15 -6 45 -7 44 -27 3 -27 3 0 15 0 15 38 3 37 3 0 58 0 59
-31 6 -31 6 -40 0 -40 0 5 -29z"/>
</g>
</svg>
