<?xml version="1.0" standalone="no"?>
<!DOCTYPE svg PUBLIC "-//W3C//DTD SVG 20010904//EN"
 "http://www.w3.org/TR/2001/REC-SVG-20010904/DTD/svg10.dtd">
<svg version="1.0" xmlns="http://www.w3.org/2000/svg"
 width="36.000000pt" height="34.000000pt" viewBox="0 0 36.000000 34.000000"
 preserveAspectRatio="xMidYMid meet">
<metadata>
Created by potrace 1.16, written by Peter Selinger 2001-2019
</metadata>
<g transform="translate(0.000000,34.000000) scale(0.100000,-0.100000)"
fill="#000000" stroke="none">
<path d="M258 312 l4 -29 -17 -17 -17 -17 -22 3 -21 3 -3 38 -3 37 -50 0 -49
0 0 -38 0 -39 -19 -17 -19 -17 -19 3 -18 3 0 -20 0 -19 25 -6 25 -6 7 -24 7
-25 6 -28 5 -27 49 0 49 0 -5 -20 -5 -20 12 -15 12 -15 30 0 30 0 -6 15 -5 15
47 12 47 12 3 -5 3 -4 7 12 8 12 -6 53 -5 53 -25 1 -25 1 -12 1 -13 2 0 28 0
27 37 0 38 0 3 40 3 39 -17 13 -18 13 -31 0 -32 0 5 -28z"/>
</g>
</svg>
