<?xml version="1.0" standalone="no"?>
<!DOCTYPE svg PUBLIC "-//W3C//DTD SVG 20010904//EN"
 "http://www.w3.org/TR/2001/REC-SVG-20010904/DTD/svg10.dtd">
<svg version="1.0" xmlns="http://www.w3.org/2000/svg"
 width="38.000000pt" height="36.000000pt" viewBox="0 0 38.000000 36.000000"
 preserveAspectRatio="xMidYMid meet">
<metadata>
Created by potrace 1.16, written by Peter Selinger 2001-2019
</metadata>
<g transform="translate(0.000000,36.000000) scale(0.100000,-0.100000)"
fill="#000000" stroke="none">
<path d="M255 331 l6 -29 -17 -16 -16 -17 -12 4 -11 4 -3 36 -3 37 -60 0 -59
0 0 -39 0 -39 -16 -13 -16 -13 -22 -1 -21 0 0 -30 0 -30 20 -3 20 -4 12 -16
13 -16 0 -42 0 -43 50 6 50 6 0 -25 0 -24 12 -12 12 -12 37 0 37 0 5 19 5 19
45 7 46 7 4 12 5 12 -7 59 -6 60 -25 2 -25 1 -12 1 -13 1 0 14 0 15 38 3 37 3
3 50 3 49 -17 13 -18 13 -44 0 -44 0 7 -29z"/>
</g>
</svg>
