<?xml version="1.0" standalone="no"?>
<!DOCTYPE svg PUBLIC "-//W3C//DTD SVG 20010904//EN"
 "http://www.w3.org/TR/2001/REC-SVG-20010904/DTD/svg10.dtd">
<svg version="1.0" xmlns="http://www.w3.org/2000/svg"
 width="46.000000pt" height="43.000000pt" viewBox="0 0 46.000000 43.000000"
 preserveAspectRatio="xMidYMid meet">
<metadata>
Created by potrace 1.16, written by Peter Selinger 2001-2019
</metadata>
<g transform="translate(0.000000,43.000000) scale(0.100000,-0.100000)"
fill="#000000" stroke="none">
<path d="M180 411 l-10 -20 0 -15 0 -16 -45 0 -45 0 0 -56 0 -55 -20 6 -19 6
-21 -11 -21 -11 3 -27 3 -27 35 0 35 -1 3 -52 3 -52 22 0 22 0 22 -6 22 -6 -5
-13 -6 -13 12 -21 11 -21 30 0 30 0 20 10 19 11 0 24 0 25 38 0 37 0 11 8 12
7 12 42 13 43 23 0 22 0 6 16 6 16 0 26 0 27 -9 13 -8 14 -34 -4 -34 -3 -3 42
-3 43 -47 13 -47 14 -3 21 -3 22 -39 0 -39 0 -11 -19z"/>
</g>
</svg>
