<?xml version="1.0" standalone="no"?>
<!DOCTYPE svg PUBLIC "-//W3C//DTD SVG 20010904//EN"
 "http://www.w3.org/TR/2001/REC-SVG-20010904/DTD/svg10.dtd">
<svg version="1.0" xmlns="http://www.w3.org/2000/svg"
 width="44.000000pt" height="41.000000pt" viewBox="0 0 44.000000 41.000000"
 preserveAspectRatio="xMidYMid meet">
<metadata>
Created by potrace 1.16, written by Peter Selinger 2001-2019
</metadata>
<g transform="translate(0.000000,41.000000) scale(0.100000,-0.100000)"
fill="#000000" stroke="none">
<path d="M184 399 l-7 -12 -1 -21 -1 -21 -47 -3 -48 -3 0 -56 0 -55 -25 4 -25
5 -17 -12 -16 -12 6 -17 6 -16 33 2 33 3 3 -52 3 -53 22 0 22 0 23 -7 24 -6
-5 -17 -4 -17 9 -17 9 -16 20 0 20 0 20 10 19 11 0 24 0 25 38 0 37 0 11 8 12
7 12 43 13 42 23 0 24 0 6 24 6 25 -7 21 -7 21 -36 -3 -37 -3 -3 42 -3 43 -42
12 -42 12 -13 9 -13 10 5 14 5 13 -29 0 -29 0 -7 -11z"/>
</g>
</svg>
