<?xml version="1.0" standalone="no"?>
<!DOCTYPE svg PUBLIC "-//W3C//DTD SVG 20010904//EN"
 "http://www.w3.org/TR/2001/REC-SVG-20010904/DTD/svg10.dtd">
<svg version="1.0" xmlns="http://www.w3.org/2000/svg"
 width="29.000000pt" height="42.000000pt" viewBox="0 0 29.000000 42.000000"
 preserveAspectRatio="xMidYMid meet">
<metadata>
Created by potrace 1.16, written by Peter Selinger 2001-2019
</metadata>
<g transform="translate(0.000000,42.000000) scale(0.100000,-0.100000)"
fill="#000000" stroke="none">
<path d="M97 413 l-7 -6 0 -29 0 -28 -46 0 -45 0 3 -42 3 -43 37 3 37 3 7 -25
6 -25 -7 -20 -6 -21 -23 0 -23 0 -11 -39 -12 -38 0 -7 0 -6 40 0 40 0 0 -26 0
-25 10 -20 11 -19 18 0 19 0 17 26 17 26 -4 30 -5 30 31 -6 31 -5 21 -6 21 -7
7 43 7 42 -8 8 -8 8 -35 3 -35 3 -3 28 -4 29 21 -7 21 -6 15 15 15 15 0 40 0
40 -37 10 -38 9 -20 4 -20 3 -3 23 -3 22 -23 0 -23 0 -6 -7z"/>
</g>
</svg>
