<?xml version="1.0" standalone="no"?>
<!DOCTYPE svg PUBLIC "-//W3C//DTD SVG 20010904//EN"
 "http://www.w3.org/TR/2001/REC-SVG-20010904/DTD/svg10.dtd">
<svg version="1.0" xmlns="http://www.w3.org/2000/svg"
 width="44.000000pt" height="44.000000pt" viewBox="0 0 44.000000 44.000000"
 preserveAspectRatio="xMidYMid meet">
<metadata>
Created by potrace 1.16, written by Peter Selinger 2001-2019
</metadata>
<g transform="translate(0.000000,44.000000) scale(0.100000,-0.100000)"
fill="#000000" stroke="none">
<path d="M172 432 l-12 -8 2 -25 3 -24 -47 -3 -48 -3 0 -40 0 -40 -12 -13 -12
-12 -24 4 -23 5 3 -39 3 -39 40 -5 40 -5 -3 -46 -4 -46 41 -7 40 -6 3 -38 3
-37 34 -3 34 -3 8 13 9 13 0 33 0 32 60 0 60 0 0 13 0 12 10 36 10 37 26 6 25
7 -3 42 -3 42 -30 0 -30 0 -7 10 -8 10 0 32 0 32 -57 3 -58 3 3 18 3 18 -12
15 -11 14 -22 0 -21 0 -13 -8z"/>
</g>
</svg>
