<?xml version="1.0" standalone="no"?>
<!DOCTYPE svg PUBLIC "-//W3C//DTD SVG 20010904//EN"
 "http://www.w3.org/TR/2001/REC-SVG-20010904/DTD/svg10.dtd">
<svg version="1.0" xmlns="http://www.w3.org/2000/svg"
 width="35.000000pt" height="34.000000pt" viewBox="0 0 35.000000 34.000000"
 preserveAspectRatio="xMidYMid meet">
<metadata>
Created by potrace 1.16, written by Peter Selinger 2001-2019
</metadata>
<g transform="translate(0.000000,34.000000) scale(0.100000,-0.100000)"
fill="#000000" stroke="none">
<path d="M110 310 l0 -30 -55 0 -55 0 0 -47 0 -48 9 -13 8 -13 29 3 29 3 0
-25 0 -25 -22 3 -22 3 -10 -38 -11 -38 0 -22 0 -23 55 0 55 0 6 25 6 25 -6 16
-6 15 23 -3 22 -3 -3 -29 -4 -29 14 -8 13 -9 43 0 44 0 -4 48 -3 47 32 -3 33
-3 10 27 11 27 -6 18 -6 19 -13 0 -13 0 -16 18 -15 17 -4 35 -3 35 -52 14 -53
14 0 13 0 14 -30 0 -30 0 0 -30z"/>
</g>
</svg>
