<?xml version="1.0" standalone="no"?>
<!DOCTYPE svg PUBLIC "-//W3C//DTD SVG 20010904//EN"
 "http://www.w3.org/TR/2001/REC-SVG-20010904/DTD/svg10.dtd">
<svg version="1.0" xmlns="http://www.w3.org/2000/svg"
 width="33.000000pt" height="32.000000pt" viewBox="0 0 33.000000 32.000000"
 preserveAspectRatio="xMidYMid meet">
<metadata>
Created by potrace 1.16, written by Peter Selinger 2001-2019
</metadata>
<g transform="translate(0.000000,32.000000) scale(0.100000,-0.100000)"
fill="#000000" stroke="none">
<path d="M112 293 l3 -28 -57 -3 -58 -3 0 -37 0 -37 8 -11 7 -11 30 1 30 1 0
-35 0 -35 -23 1 -22 1 -10 -36 -10 -36 0 -12 0 -13 44 0 44 0 6 16 6 16 -6 22
-5 23 13 5 13 5 24 -8 23 -9 -7 -27 -6 -26 13 -8 13 -9 32 0 33 0 -3 48 -2 47
34 0 34 0 7 20 7 20 -4 13 -5 12 -13 0 -12 0 -16 18 -15 17 -4 35 -3 35 -52
14 -53 14 0 13 0 14 -21 0 -20 0 3 -27z"/>
</g>
</svg>
