<?xml version="1.0" standalone="no"?>
<!DOCTYPE svg PUBLIC "-//W3C//DTD SVG 20010904//EN"
 "http://www.w3.org/TR/2001/REC-SVG-20010904/DTD/svg10.dtd">
<svg version="1.0" xmlns="http://www.w3.org/2000/svg"
 width="44.000000pt" height="35.000000pt" viewBox="0 0 44.000000 35.000000"
 preserveAspectRatio="xMidYMid meet">
<metadata>
Created by potrace 1.16, written by Peter Selinger 2001-2019
</metadata>
<g transform="translate(0.000000,35.000000) scale(0.100000,-0.100000)"
fill="#000000" stroke="none">
<path d="M170 325 l0 -24 -19 -11 -20 -10 -35 0 -36 0 0 -29 0 -29 -6 -16 -6
-16 -24 0 -24 0 0 -55 0 -55 15 0 14 0 12 -40 12 -40 62 0 61 0 12 12 12 12 1
26 1 25 4 -15 5 -16 20 -12 19 -12 43 -6 42 -5 13 9 14 9 -10 37 -10 36 29 0
30 0 20 10 19 11 0 40 0 41 -28 -3 -27 -3 -13 7 -12 8 0 35 0 35 -50 -7 -50
-7 0 36 0 35 -16 6 -16 6 -29 0 -29 0 0 -25z"/>
</g>
</svg>
