<?xml version="1.0" standalone="no"?>
<!DOCTYPE svg PUBLIC "-//W3C//DTD SVG 20010904//EN"
 "http://www.w3.org/TR/2001/REC-SVG-20010904/DTD/svg10.dtd">
<svg version="1.0" xmlns="http://www.w3.org/2000/svg"
 width="42.000000pt" height="33.000000pt" viewBox="0 0 42.000000 33.000000"
 preserveAspectRatio="xMidYMid meet">
<metadata>
Created by potrace 1.16, written by Peter Selinger 2001-2019
</metadata>
<g transform="translate(0.000000,33.000000) scale(0.100000,-0.100000)"
fill="#000000" stroke="none">
<path d="M170 305 l0 -24 -19 -11 -20 -10 -35 0 -36 0 0 -29 0 -29 -6 -16 -6
-16 -24 0 -24 0 0 -46 0 -46 14 5 14 6 12 -45 13 -44 51 0 52 0 12 12 12 12 0
23 0 23 20 0 19 0 -5 -13 -5 -13 23 -11 23 -12 23 -6 22 -6 19 6 19 6 -9 32
-9 32 0 12 0 12 29 -5 29 -6 21 11 21 12 0 30 0 31 -26 -6 -26 -7 -14 12 -14
11 0 33 0 32 -50 -5 -50 -5 0 36 0 35 -16 6 -16 6 -19 0 -19 0 0 -25z"/>
</g>
</svg>
