<?xml version="1.0" standalone="no"?>
<!DOCTYPE svg PUBLIC "-//W3C//DTD SVG 20010904//EN"
 "http://www.w3.org/TR/2001/REC-SVG-20010904/DTD/svg10.dtd">
<svg version="1.0" xmlns="http://www.w3.org/2000/svg"
 width="30.000000pt" height="35.000000pt" viewBox="0 0 30.000000 35.000000"
 preserveAspectRatio="xMidYMid meet">
<metadata>
Created by potrace 1.16, written by Peter Selinger 2001-2019
</metadata>
<g transform="translate(0.000000,35.000000) scale(0.100000,-0.100000)"
fill="#000000" stroke="none">
<path d="M118 308 l-3 -43 -48 -3 -47 -3 0 -29 0 -28 6 -16 6 -16 34 0 35 0 6
-16 6 -15 -11 -25 -12 -24 -45 0 -45 0 0 -14 0 -13 11 -32 11 -32 57 3 56 3
-3 28 -3 27 20 0 21 0 0 -13 0 -14 55 -15 54 -15 6 5 5 5 0 49 0 48 -29 0 -29
0 -12 15 -12 15 12 15 12 15 28 0 28 0 4 13 4 12 -5 30 -6 30 -50 5 -50 5 3
28 3 29 -12 14 -11 14 -24 0 -23 0 -3 -42z"/>
</g>
</svg>
