<?xml version="1.0" standalone="no"?>
<!DOCTYPE svg PUBLIC "-//W3C//DTD SVG 20010904//EN"
 "http://www.w3.org/TR/2001/REC-SVG-20010904/DTD/svg10.dtd">
<svg version="1.0" xmlns="http://www.w3.org/2000/svg"
 width="32.000000pt" height="37.000000pt" viewBox="0 0 32.000000 37.000000"
 preserveAspectRatio="xMidYMid meet">
<metadata>
Created by potrace 1.16, written by Peter Selinger 2001-2019
</metadata>
<g transform="translate(0.000000,37.000000) scale(0.100000,-0.100000)"
fill="#000000" stroke="none">
<path d="M118 328 l-3 -43 -48 -3 -47 -3 0 -39 0 -38 6 -16 6 -16 33 0 34 0 6
-10 6 -10 -11 -20 -11 -20 -44 0 -45 0 0 -24 0 -23 11 -32 11 -32 67 3 66 3
-2 27 -2 28 10 0 9 0 0 -13 0 -14 61 -17 60 -16 10 5 9 6 0 59 0 59 -32 3 -33
3 0 15 0 15 32 3 32 3 5 17 5 17 -7 35 -8 35 -47 3 -47 3 0 33 0 32 -12 12
-12 12 -32 0 -33 0 -3 -42z"/>
</g>
</svg>
