<?xml version="1.0" standalone="no"?>
<!DOCTYPE svg PUBLIC "-//W3C//DTD SVG 20010904//EN"
 "http://www.w3.org/TR/2001/REC-SVG-20010904/DTD/svg10.dtd">
<svg version="1.0" xmlns="http://www.w3.org/2000/svg"
 width="39.000000pt" height="43.000000pt" viewBox="0 0 39.000000 43.000000"
 preserveAspectRatio="xMidYMid meet">
<metadata>
Created by potrace 1.16, written by Peter Selinger 2001-2019
</metadata>
<g transform="translate(0.000000,43.000000) scale(0.100000,-0.100000)"
fill="#000000" stroke="none">
<path d="M147 423 l-7 -7 6 -32 6 -33 -23 -5 -24 -6 -40 -2 -40 -3 -3 -42 -3
-42 20 -10 20 -11 15 6 16 6 0 -20 0 -20 -13 -10 -13 -11 -23 6 -23 6 -9 -14
-9 -14 7 -35 6 -35 11 -7 11 -8 36 0 35 0 11 -11 12 -12 -6 -28 -5 -29 36 0
36 0 7 28 7 27 -3 18 -2 17 31 0 31 0 20 -10 19 -11 0 56 0 56 20 -6 21 -7 25
17 25 16 -3 27 -3 27 -35 -2 -35 -1 -7 11 -8 12 0 32 0 32 -52 3 -53 3 2 29 2
30 -11 13 -10 13 -13 0 -12 0 -6 -7z"/>
</g>
</svg>
