<?xml version="1.0" standalone="no"?>
<!DOCTYPE svg PUBLIC "-//W3C//DTD SVG 20010904//EN"
 "http://www.w3.org/TR/2001/REC-SVG-20010904/DTD/svg10.dtd">
<svg version="1.0" xmlns="http://www.w3.org/2000/svg"
 width="45.000000pt" height="37.000000pt" viewBox="0 0 45.000000 37.000000"
 preserveAspectRatio="xMidYMid meet">
<metadata>
Created by potrace 1.16, written by Peter Selinger 2001-2019
</metadata>
<g transform="translate(0.000000,37.000000) scale(0.100000,-0.100000)"
fill="#000000" stroke="none">
<path d="M190 355 l-12 -15 5 -30 6 -29 -57 -3 -57 -3 -3 -37 -3 -38 -23 0
-22 0 -12 -12 -12 -12 0 -37 0 -37 20 -5 19 -5 7 -41 6 -41 32 -6 32 -5 39 3
40 3 5 30 5 30 15 3 15 3 10 -22 10 -22 49 -14 49 -14 8 13 9 13 0 38 0 37 23
0 23 0 18 13 18 13 -4 34 -3 35 -35 5 -35 5 -3 47 -3 47 -27 0 -27 0 -30 9
-30 9 3 18 4 18 -14 8 -13 9 -16 0 -17 0 -12 -15z"/>
</g>
</svg>
