<?xml version="1.0" standalone="no"?>
<!DOCTYPE svg PUBLIC "-//W3C//DTD SVG 20010904//EN"
 "http://www.w3.org/TR/2001/REC-SVG-20010904/DTD/svg10.dtd">
<svg version="1.0" xmlns="http://www.w3.org/2000/svg"
 width="36.000000pt" height="44.000000pt" viewBox="0 0 36.000000 44.000000"
 preserveAspectRatio="xMidYMid meet">
<metadata>
Created by potrace 1.16, written by Peter Selinger 2001-2019
</metadata>
<g transform="translate(0.000000,44.000000) scale(0.100000,-0.100000)"
fill="#000000" stroke="none">
<path d="M120 421 l-10 -20 0 -20 0 -21 -56 0 -55 0 3 -47 3 -48 25 -2 25 -1
13 -1 12 -1 0 -24 0 -25 -21 -3 -22 -3 -13 -45 -14 -45 0 -17 0 -17 38 -3 37
-3 -3 -32 -3 -32 24 -6 25 -7 28 4 29 3 5 35 5 35 49 -2 48 -1 -5 36 -5 37 -7
18 -7 17 27 0 26 0 20 10 19 11 0 28 0 29 -15 12 -15 12 -19 -5 -20 -5 -3 42
-3 41 -49 5 -49 5 -2 28 -1 28 -14 9 -15 10 -12 0 -12 0 -11 -19z"/>
</g>
</svg>
