<?xml version="1.0" standalone="no"?>
<!DOCTYPE svg PUBLIC "-//W3C//DTD SVG 20010904//EN"
 "http://www.w3.org/TR/2001/REC-SVG-20010904/DTD/svg10.dtd">
<svg version="1.0" xmlns="http://www.w3.org/2000/svg"
 width="27.000000pt" height="27.000000pt" viewBox="0 0 27.000000 27.000000"
 preserveAspectRatio="xMidYMid meet">
<metadata>
Created by potrace 1.16, written by Peter Selinger 2001-2019
</metadata>
<g transform="translate(0.000000,27.000000) scale(0.100000,-0.100000)"
fill="#000000" stroke="none">
<path d="M0 221 l0 -49 20 5 20 5 25 -6 25 -6 0 -28 0 -28 -12 -12 -12 -12
-34 0 -33 0 3 -42 3 -43 38 -3 38 -3 15 12 15 13 -4 18 -5 18 10 6 9 6 25 -6
24 -6 0 -20 0 -20 24 -6 24 -6 23 4 24 3 3 42 3 41 -19 -5 -20 -5 -31 16 -31
17 0 23 0 24 15 12 15 13 36 -6 36 -6 -6 31 -6 31 0 13 0 14 -32 0 -33 0 -12
-8 -11 -7 -4 -30 -3 -30 -22 -3 -22 -3 -21 11 -22 12 4 29 5 29 -44 0 -43 0 0
-49z"/>
</g>
</svg>
