<?xml version="1.0" standalone="no"?>
<!DOCTYPE svg PUBLIC "-//W3C//DTD SVG 20010904//EN"
 "http://www.w3.org/TR/2001/REC-SVG-20010904/DTD/svg10.dtd">
<svg version="1.0" xmlns="http://www.w3.org/2000/svg"
 width="43.000000pt" height="30.000000pt" viewBox="0 0 43.000000 30.000000"
 preserveAspectRatio="xMidYMid meet">
<metadata>
Created by potrace 1.16, written by Peter Selinger 2001-2019
</metadata>
<g transform="translate(0.000000,30.000000) scale(0.100000,-0.100000)"
fill="#000000" stroke="none">
<path d="M68 248 l-3 -53 -33 3 -33 3 3 -38 3 -38 34 -3 34 -3 -6 -61 -5 -60
21 6 22 6 47 0 47 0 3 38 3 37 15 0 15 0 3 -27 3 -27 44 -7 44 -6 11 7 10 6
-6 50 -7 49 32 -6 31 -6 15 12 15 12 0 24 0 24 -40 0 -40 0 0 51 0 51 -26 -6
-26 -7 -29 -6 -28 -5 -3 -22 -3 -21 -20 0 -20 0 0 35 0 35 -62 3 -62 3 -3 -53z"/>
</g>
</svg>
