<?xml version="1.0" standalone="no"?>
<!DOCTYPE svg PUBLIC "-//W3C//DTD SVG 20010904//EN"
 "http://www.w3.org/TR/2001/REC-SVG-20010904/DTD/svg10.dtd">
<svg version="1.0" xmlns="http://www.w3.org/2000/svg"
 width="44.000000pt" height="43.000000pt" viewBox="0 0 44.000000 43.000000"
 preserveAspectRatio="xMidYMid meet">
<metadata>
Created by potrace 1.16, written by Peter Selinger 2001-2019
</metadata>
<g transform="translate(0.000000,43.000000) scale(0.100000,-0.100000)"
fill="#000000" stroke="none">
<path d="M202 422 l-13 -9 3 -34 3 -34 -55 -5 -55 -5 -3 -37 -3 -38 -24 0 -23
0 -16 -6 -16 -6 0 -24 0 -23 18 -10 19 -10 22 6 23 6 -3 -57 -4 -56 57 0 57 0
3 -37 3 -38 21 -3 22 -3 17 17 17 17 -4 29 -5 28 29 0 29 0 19 -10 18 -10 16
43 15 42 4 15 4 15 19 0 19 0 3 38 3 37 -13 2 -13 1 -25 1 -25 1 -3 42 -3 41
-27 -14 -27 -14 -29 0 -29 0 7 39 6 40 -16 15 -15 16 -7 0 -7 0 -13 -8z"/>
</g>
</svg>
