<?xml version="1.0" standalone="no"?>
<!DOCTYPE svg PUBLIC "-//W3C//DTD SVG 20010904//EN"
 "http://www.w3.org/TR/2001/REC-SVG-20010904/DTD/svg10.dtd">
<svg version="1.0" xmlns="http://www.w3.org/2000/svg"
 width="30.000000pt" height="36.000000pt" viewBox="0 0 30.000000 36.000000"
 preserveAspectRatio="xMidYMid meet">
<metadata>
Created by potrace 1.16, written by Peter Selinger 2001-2019
</metadata>
<g transform="translate(0.000000,36.000000) scale(0.100000,-0.100000)"
fill="#000000" stroke="none">
<path d="M114 336 l6 -25 -19 -11 -20 -10 -30 0 -31 0 0 -44 0 -44 15 -12 15
-12 25 4 25 5 0 -18 0 -18 -19 -11 -19 -10 -30 6 -31 6 1 -66 1 -66 75 0 74 0
-4 35 -4 35 12 0 13 0 3 -37 3 -38 57 -3 57 -3 6 24 6 24 -3 39 -3 39 -27 3
-26 3 -6 15 -6 16 6 9 5 9 30 0 29 0 0 54 0 55 -52 3 -52 3 -1 30 0 30 -44 3
-43 3 6 -25z"/>
</g>
</svg>
