<?xml version="1.0" standalone="no"?>
<!DOCTYPE svg PUBLIC "-//W3C//DTD SVG 20010904//EN"
 "http://www.w3.org/TR/2001/REC-SVG-20010904/DTD/svg10.dtd">
<svg version="1.0" xmlns="http://www.w3.org/2000/svg"
 width="30.000000pt" height="34.000000pt" viewBox="0 0 30.000000 34.000000"
 preserveAspectRatio="xMidYMid meet">
<metadata>
Created by potrace 1.16, written by Peter Selinger 2001-2019
</metadata>
<g transform="translate(0.000000,34.000000) scale(0.100000,-0.100000)"
fill="#000000" stroke="none">
<path d="M152 317 l5 -26 -8 -12 -7 -12 -57 -5 -56 -5 3 -46 3 -46 30 0 30 -1
0 -19 0 -20 -42 -6 -43 -5 -5 -6 -6 -6 12 -46 11 -46 23 -6 22 -5 39 3 39 3 3
33 3 32 20 0 19 0 0 -19 0 -19 44 -11 45 -11 5 0 6 0 0 40 0 40 -25 0 -25 0
-6 25 -6 25 6 15 6 15 30 6 30 7 0 37 0 38 -57 8 -58 9 0 30 0 30 -19 3 -19 4
5 -25z"/>
</g>
</svg>
