<?xml version="1.0" standalone="no"?>
<!DOCTYPE svg PUBLIC "-//W3C//DTD SVG 20010904//EN"
 "http://www.w3.org/TR/2001/REC-SVG-20010904/DTD/svg10.dtd">
<svg version="1.0" xmlns="http://www.w3.org/2000/svg"
 width="39.000000pt" height="37.000000pt" viewBox="0 0 39.000000 37.000000"
 preserveAspectRatio="xMidYMid meet">
<metadata>
Created by potrace 1.16, written by Peter Selinger 2001-2019
</metadata>
<g transform="translate(0.000000,37.000000) scale(0.100000,-0.100000)"
fill="#000000" stroke="none">
<path d="M143 363 l-13 -5 0 -18 0 -18 -6 -16 -6 -16 -54 0 -54 0 0 -54 0 -54
15 -12 15 -12 20 5 20 5 0 -9 0 -9 -24 0 -24 0 -9 -12 -10 -13 -6 -58 -6 -57
32 0 32 0 38 -6 37 -7 0 25 0 24 12 12 12 12 7 0 7 0 5 -19 5 -19 41 -7 41 -7
6 -9 5 -9 18 0 18 0 17 55 18 54 19 6 19 6 0 28 0 27 -12 12 -12 12 -22 0 -22
0 -6 25 -6 25 6 24 6 24 -59 8 -58 9 -4 20 -3 20 -12 7 -11 8 -10 -1 -10 -1
-12 -5z"/>
</g>
</svg>
