<?xml version="1.0" standalone="no"?>
<!DOCTYPE svg PUBLIC "-//W3C//DTD SVG 20010904//EN"
 "http://www.w3.org/TR/2001/REC-SVG-20010904/DTD/svg10.dtd">
<svg version="1.0" xmlns="http://www.w3.org/2000/svg"
 width="31.000000pt" height="43.000000pt" viewBox="0 0 31.000000 43.000000"
 preserveAspectRatio="xMidYMid meet">
<metadata>
Created by potrace 1.16, written by Peter Selinger 2001-2019
</metadata>
<g transform="translate(0.000000,43.000000) scale(0.100000,-0.100000)"
fill="#000000" stroke="none">
<path d="M150 415 l-12 -15 5 -20 5 -20 -21 -5 -22 -5 -35 -2 -35 -3 -3 -39
-3 -39 13 -8 13 -9 23 0 23 0 -3 -17 -4 -18 -41 1 -42 1 -5 -14 -6 -13 12 -50
11 -49 51 -3 51 -3 5 -40 5 -40 28 -3 27 -3 16 36 15 36 -7 21 -6 21 40 -5 40
-6 -12 42 -12 41 -14 0 -15 0 -3 31 -3 31 16 17 16 16 26 0 25 0 -7 38 -7 37
-3 3 -3 4 -49 12 -48 12 -3 22 -3 22 -13 0 -14 0 -12 -15z"/>
</g>
</svg>
