<?xml version="1.0" standalone="no"?>
<!DOCTYPE svg PUBLIC "-//W3C//DTD SVG 20010904//EN"
 "http://www.w3.org/TR/2001/REC-SVG-20010904/DTD/svg10.dtd">
<svg version="1.0" xmlns="http://www.w3.org/2000/svg"
 width="43.000000pt" height="36.000000pt" viewBox="0 0 43.000000 36.000000"
 preserveAspectRatio="xMidYMid meet">
<metadata>
Created by potrace 1.16, written by Peter Selinger 2001-2019
</metadata>
<g transform="translate(0.000000,36.000000) scale(0.100000,-0.100000)"
fill="#000000" stroke="none">
<path d="M174 348 l-8 -12 2 -28 2 -28 -55 0 -54 0 2 -52 2 -53 -30 0 -30 0
-3 -18 -3 -17 13 -1 13 -1 20 -2 20 -1 1 -55 1 -55 49 0 49 0 3 37 3 38 19 0
19 0 3 -47 3 -48 54 2 55 1 13 18 13 18 11 38 10 38 24 0 24 0 6 20 7 21 -13
15 -13 15 -22 -5 -22 -6 -11 13 -11 14 -8 39 -8 39 -46 8 -47 9 -3 26 -3 27
-22 3 -21 3 -8 -13z"/>
</g>
</svg>
