<?xml version="1.0" standalone="no"?>
<!DOCTYPE svg PUBLIC "-//W3C//DTD SVG 20010904//EN"
 "http://www.w3.org/TR/2001/REC-SVG-20010904/DTD/svg10.dtd">
<svg version="1.0" xmlns="http://www.w3.org/2000/svg"
 width="44.000000pt" height="36.000000pt" viewBox="0 0 44.000000 36.000000"
 preserveAspectRatio="xMidYMid meet">
<metadata>
Created by potrace 1.16, written by Peter Selinger 2001-2019
</metadata>
<g transform="translate(0.000000,36.000000) scale(0.100000,-0.100000)"
fill="#000000" stroke="none">
<path d="M196 351 l-7 -10 7 -25 6 -25 -24 -5 -23 -6 -30 -2 -30 -3 -3 -42 -3
-43 -25 0 -25 0 -20 -10 -19 -11 0 -14 0 -14 21 -11 20 -11 31 6 31 7 -6 -38
-5 -39 -7 -18 -7 -17 66 0 67 0 -3 35 -2 34 7 8 8 7 17 -11 17 -11 -2 -41 -2
-41 38 0 38 0 27 21 26 20 0 19 0 18 6 16 6 16 19 0 19 0 2 23 1 22 -2 20 -1
19 -13 8 -12 8 -23 -4 -23 -4 2 37 2 36 -2 13 -1 13 -9 -5 -9 -6 -52 11 -51
11 3 21 3 22 -22 3 -21 3 -6 -10z"/>
</g>
</svg>
