<?xml version="1.0" standalone="no"?>
<!DOCTYPE svg PUBLIC "-//W3C//DTD SVG 20010904//EN"
 "http://www.w3.org/TR/2001/REC-SVG-20010904/DTD/svg10.dtd">
<svg version="1.0" xmlns="http://www.w3.org/2000/svg"
 width="38.000000pt" height="45.000000pt" viewBox="0 0 38.000000 45.000000"
 preserveAspectRatio="xMidYMid meet">
<metadata>
Created by potrace 1.16, written by Peter Selinger 2001-2019
</metadata>
<g transform="translate(0.000000,45.000000) scale(0.100000,-0.100000)"
fill="#000000" stroke="none">
<path d="M131 441 l-13 -9 7 -21 6 -21 -26 -10 -26 -10 -40 0 -40 0 3 -52 3
-53 33 -1 33 -1 11 -11 10 -10 -6 -11 -7 -11 -30 0 -29 0 0 -4 0 -3 -10 -52
-9 -51 5 -14 6 -15 49 6 49 6 0 -30 0 -30 20 -18 19 -17 25 6 26 6 6 28 7 27
11 7 11 8 26 0 26 0 16 18 17 19 0 24 0 24 8 11 7 12 20 3 20 4 3 38 3 38 -12
15 -12 15 -21 -3 -21 -3 -3 35 -4 35 -11 7 -12 8 -47 0 -48 0 0 23 0 23 -12
12 -12 12 -10 0 -11 0 -14 -9z"/>
</g>
</svg>
