<?xml version="1.0" standalone="no"?>
<!DOCTYPE svg PUBLIC "-//W3C//DTD SVG 20010904//EN"
 "http://www.w3.org/TR/2001/REC-SVG-20010904/DTD/svg10.dtd">
<svg version="1.0" xmlns="http://www.w3.org/2000/svg"
 width="36.000000pt" height="35.000000pt" viewBox="0 0 36.000000 35.000000"
 preserveAspectRatio="xMidYMid meet">
<metadata>
Created by potrace 1.16, written by Peter Selinger 2001-2019
</metadata>
<g transform="translate(0.000000,35.000000) scale(0.100000,-0.100000)"
fill="#000000" stroke="none">
<path d="M200 320 l0 -30 -27 -11 -28 -11 -32 4 -32 4 -3 -51 -3 -50 -14 3
-15 3 -23 -6 -23 -5 0 -25 0 -25 23 -5 24 -6 29 3 29 3 -1 -15 -2 -15 -7 -36
-7 -36 54 -5 53 -6 7 11 7 11 -6 9 -5 8 6 25 7 25 12 -4 11 -3 6 -25 6 -24 52
-11 52 -12 0 12 0 11 -11 37 -10 38 -24 0 -24 0 -6 21 -7 21 9 8 8 9 35 3 35
3 3 48 3 47 -50 0 -51 0 -1 13 -1 12 1 8 1 8 -10 19 -11 20 -19 0 -20 0 0 -30z"/>
</g>
</svg>
