<?xml version="1.0" standalone="no"?>
<!DOCTYPE svg PUBLIC "-//W3C//DTD SVG 20010904//EN"
 "http://www.w3.org/TR/2001/REC-SVG-20010904/DTD/svg10.dtd">
<svg version="1.0" xmlns="http://www.w3.org/2000/svg"
 width="38.000000pt" height="37.000000pt" viewBox="0 0 38.000000 37.000000"
 preserveAspectRatio="xMidYMid meet">
<metadata>
Created by potrace 1.16, written by Peter Selinger 2001-2019
</metadata>
<g transform="translate(0.000000,37.000000) scale(0.100000,-0.100000)"
fill="#000000" stroke="none">
<path d="M200 340 l0 -30 -27 -11 -28 -10 -32 6 -33 6 0 -51 0 -50 -24 0 -24
0 -16 -6 -16 -6 0 -33 0 -33 16 -6 16 -6 34 0 35 0 -7 -48 -6 -49 63 -7 63 -6
8 12 8 13 -5 22 -5 22 9 6 10 5 3 -22 3 -22 25 -6 25 -7 38 -7 37 -7 0 23 0
23 -11 37 -10 38 -24 0 -25 0 0 10 0 10 -2 8 -3 7 40 5 40 5 3 58 3 57 -51 0
-50 0 0 21 0 20 -10 20 -11 19 -29 0 -30 0 0 -30z"/>
</g>
</svg>
