<?xml version="1.0" standalone="no"?>
<!DOCTYPE svg PUBLIC "-//W3C//DTD SVG 20010904//EN"
 "http://www.w3.org/TR/2001/REC-SVG-20010904/DTD/svg10.dtd">
<svg version="1.0" xmlns="http://www.w3.org/2000/svg"
 width="31.000000pt" height="41.000000pt" viewBox="0 0 31.000000 41.000000"
 preserveAspectRatio="xMidYMid meet">
<metadata>
Created by potrace 1.16, written by Peter Selinger 2001-2019
</metadata>
<g transform="translate(0.000000,41.000000) scale(0.100000,-0.100000)"
fill="#000000" stroke="none">
<path d="M130 387 l0 -23 -12 -12 -12 -12 -53 0 -53 0 0 -37 1 -38 13 -18 13
-17 17 6 16 6 6 -17 7 -16 -12 -12 -11 -11 -23 -1 -22 0 -3 -55 -3 -56 53 1
53 0 0 -35 0 -35 27 -3 27 -3 21 11 22 12 -5 19 -5 19 48 6 48 6 12 44 12 43
-5 15 -6 15 -48 3 -48 3 0 25 0 25 34 -3 34 -4 8 14 9 13 0 36 0 36 -57 -1
-58 -1 3 24 2 24 -11 13 -11 14 -14 0 -14 0 0 -23z"/>
</g>
</svg>
