<?xml version="1.0" standalone="no"?>
<!DOCTYPE svg PUBLIC "-//W3C//DTD SVG 20010904//EN"
 "http://www.w3.org/TR/2001/REC-SVG-20010904/DTD/svg10.dtd">
<svg version="1.0" xmlns="http://www.w3.org/2000/svg"
 width="33.000000pt" height="28.000000pt" viewBox="0 0 33.000000 28.000000"
 preserveAspectRatio="xMidYMid meet">
<metadata>
Created by potrace 1.16, written by Peter Selinger 2001-2019
</metadata>
<g transform="translate(0.000000,28.000000) scale(0.100000,-0.100000)"
fill="#000000" stroke="none">
<path d="M169 273 l-1 -8 2 -27 1 -26 -11 -7 -11 -7 -25 6 -25 7 3 27 3 27
-26 3 -25 3 -27 -10 -27 -11 0 -24 0 -24 6 -16 6 -16 33 0 34 0 6 -10 6 -10
-6 -20 -6 -20 -23 0 -24 0 -11 -42 -12 -43 -6 -13 -5 -13 53 3 54 3 0 35 0 35
18 3 18 4 13 -12 14 -11 -5 -18 -5 -19 19 -5 18 -6 35 -3 35 -3 2 40 1 40 1
19 1 18 25 -6 25 -6 7 16 6 17 -10 16 -11 16 -17 -3 -18 -4 -8 13 -7 12 5 32
5 32 -8 6 -9 5 -42 7 -43 7 -1 -9z"/>
</g>
</svg>
