<?xml version="1.0" standalone="no"?>
<!DOCTYPE svg PUBLIC "-//W3C//DTD SVG 20010904//EN"
 "http://www.w3.org/TR/2001/REC-SVG-20010904/DTD/svg10.dtd">
<svg version="1.0" xmlns="http://www.w3.org/2000/svg"
 width="35.000000pt" height="30.000000pt" viewBox="0 0 35.000000 30.000000"
 preserveAspectRatio="xMidYMid meet">
<metadata>
Created by potrace 1.16, written by Peter Selinger 2001-2019
</metadata>
<g transform="translate(0.000000,30.000000) scale(0.100000,-0.100000)"
fill="#000000" stroke="none">
<path d="M166 292 l-7 -11 7 -24 6 -25 -10 -6 -10 -6 -15 6 -16 6 2 26 2 27
-36 3 -35 3 -27 -10 -27 -11 0 -34 0 -34 6 -16 6 -16 32 0 33 0 6 -6 6 -6 -6
-14 -5 -14 -22 0 -22 0 -17 -55 -17 -56 0 -10 0 -10 63 3 62 3 0 35 0 35 15 0
15 0 3 -27 3 -28 22 -5 22 -5 40 -2 40 -3 5 55 5 55 25 0 25 0 3 28 3 28 -12
15 -13 15 -18 -4 -18 -5 0 43 0 44 -8 5 -8 5 -51 7 -50 6 -7 -10z"/>
</g>
</svg>
