<?xml version="1.0" standalone="no"?>
<!DOCTYPE svg PUBLIC "-//W3C//DTD SVG 20010904//EN"
 "http://www.w3.org/TR/2001/REC-SVG-20010904/DTD/svg10.dtd">
<svg version="1.0" xmlns="http://www.w3.org/2000/svg"
 width="30.000000pt" height="31.000000pt" viewBox="0 0 30.000000 31.000000"
 preserveAspectRatio="xMidYMid meet">
<metadata>
Created by potrace 1.16, written by Peter Selinger 2001-2019
</metadata>
<g transform="translate(0.000000,31.000000) scale(0.100000,-0.100000)"
fill="#000000" stroke="none">
<path d="M196 299 l-5 -14 -3 -25 -3 -25 -30 0 -30 0 -5 30 -5 30 -45 0 -45 0
-3 -48 -3 -49 12 -15 13 -15 24 5 24 5 5 -16 6 -15 -18 -13 -19 -14 -34 0 -35
0 7 -57 7 -57 2 -2 2 -2 65 7 65 6 5 29 5 30 10 0 10 1 3 -21 3 -22 31 -6 30
-6 19 0 19 0 0 29 0 30 -10 25 -10 26 -15 0 -15 0 0 18 0 18 12 12 12 12 23 0
23 0 0 55 0 55 -27 0 -28 0 -22 6 -23 6 -4 -13z"/>
</g>
</svg>
