<?xml version="1.0" standalone="no"?>
<!DOCTYPE svg PUBLIC "-//W3C//DTD SVG 20010904//EN"
 "http://www.w3.org/TR/2001/REC-SVG-20010904/DTD/svg10.dtd">
<svg version="1.0" xmlns="http://www.w3.org/2000/svg"
 width="28.000000pt" height="29.000000pt" viewBox="0 0 28.000000 29.000000"
 preserveAspectRatio="xMidYMid meet">
<metadata>
Created by potrace 1.16, written by Peter Selinger 2001-2019
</metadata>
<g transform="translate(0.000000,29.000000) scale(0.100000,-0.100000)"
fill="#000000" stroke="none">
<path d="M194 275 l-3 -10 -3 -25 -3 -25 -34 -3 -34 -3 -10 10 -10 10 -1 23
-1 23 -35 0 -35 0 -3 -39 -3 -39 11 -11 11 -11 27 0 27 0 3 -24 4 -25 -18 -13
-18 -13 -33 0 -33 0 0 -20 0 -19 12 -26 12 -26 50 3 51 3 0 22 1 23 11 11 12
12 15 -6 16 -6 0 -20 0 -19 36 -7 36 -6 5 5 5 5 -6 37 -7 36 -20 5 -19 5 0 27
0 27 12 12 12 12 23 0 23 0 0 44 0 44 -41 4 -41 4 -4 -11z"/>
</g>
</svg>
