<?xml version="1.0" standalone="no"?>
<!DOCTYPE svg PUBLIC "-//W3C//DTD SVG 20010904//EN"
 "http://www.w3.org/TR/2001/REC-SVG-20010904/DTD/svg10.dtd">
<svg version="1.0" xmlns="http://www.w3.org/2000/svg"
 width="29.000000pt" height="37.000000pt" viewBox="0 0 29.000000 37.000000"
 preserveAspectRatio="xMidYMid meet">
<metadata>
Created by potrace 1.16, written by Peter Selinger 2001-2019
</metadata>
<g transform="translate(0.000000,37.000000) scale(0.100000,-0.100000)"
fill="#000000" stroke="none">
<path d="M170 341 l0 -29 -16 -13 -16 -13 -16 11 -17 11 3 26 3 26 -33 0 -33
0 -23 -6 -22 -6 0 -32 0 -31 13 -25 13 -25 25 -1 25 0 11 -7 12 -8 -6 -14 -5
-15 -23 0 -23 0 -16 -49 -16 -50 0 -10 0 -11 34 0 35 0 3 -32 3 -33 29 -3 28
-4 24 6 24 6 0 13 0 13 50 13 50 13 0 144 0 144 -26 10 -25 10 -35 0 -34 0 0
-29z"/>
</g>
</svg>
