<?xml version="1.0" standalone="no"?>
<!DOCTYPE svg PUBLIC "-//W3C//DTD SVG 20010904//EN"
 "http://www.w3.org/TR/2001/REC-SVG-20010904/DTD/svg10.dtd">
<svg version="1.0" xmlns="http://www.w3.org/2000/svg"
 width="31.000000pt" height="38.000000pt" viewBox="0 0 31.000000 38.000000"
 preserveAspectRatio="xMidYMid meet">
<metadata>
Created by potrace 1.16, written by Peter Selinger 2001-2019
</metadata>
<g transform="translate(0.000000,38.000000) scale(0.100000,-0.100000)"
fill="#000000" stroke="none">
<path d="M0 231 l0 -150 48 6 47 5 0 -38 0 -38 29 -10 28 -11 19 24 19 23 0
30 0 29 60 -7 60 -7 -6 49 -7 49 -8 23 -9 22 -27 1 -28 0 24 10 24 10 13 17
13 17 1 48 0 49 -42 -7 -43 -6 -17 -5 -18 -5 0 -20 0 -20 -14 -5 -15 -6 -18
10 -18 10 0 24 0 23 -57 3 -58 3 0 -150z"/>
</g>
</svg>
