<?xml version="1.0" standalone="no"?>
<!DOCTYPE svg PUBLIC "-//W3C//DTD SVG 20010904//EN"
 "http://www.w3.org/TR/2001/REC-SVG-20010904/DTD/svg10.dtd">
<svg version="1.0" xmlns="http://www.w3.org/2000/svg"
 width="29.000000pt" height="36.000000pt" viewBox="0 0 29.000000 36.000000"
 preserveAspectRatio="xMidYMid meet">
<metadata>
Created by potrace 1.16, written by Peter Selinger 2001-2019
</metadata>
<g transform="translate(0.000000,36.000000) scale(0.100000,-0.100000)"
fill="#000000" stroke="none">
<path d="M0 220 l0 -135 51 4 50 3 -6 -35 -7 -35 23 -12 23 -13 19 24 19 23
-6 30 -6 29 63 -7 64 -6 -8 50 -8 50 -6 10 -7 11 -21 -3 -22 -3 -3 22 -3 23
14 -6 15 -5 21 22 21 23 0 38 0 38 -25 -5 -25 -5 -26 -5 -25 -6 6 -19 6 -19
-26 -7 -26 -7 -25 12 -25 11 3 23 3 22 -47 0 -48 1 0 -136z"/>
</g>
</svg>
