<?xml version="1.0" standalone="no"?>
<!DOCTYPE svg PUBLIC "-//W3C//DTD SVG 20010904//EN"
 "http://www.w3.org/TR/2001/REC-SVG-20010904/DTD/svg10.dtd">
<svg version="1.0" xmlns="http://www.w3.org/2000/svg"
 width="42.000000pt" height="34.000000pt" viewBox="0 0 42.000000 34.000000"
 preserveAspectRatio="xMidYMid meet">
<metadata>
Created by potrace 1.16, written by Peter Selinger 2001-2019
</metadata>
<g transform="translate(0.000000,34.000000) scale(0.100000,-0.100000)"
fill="#000000" stroke="none">
<path d="M93 333 l-23 -4 0 -33 0 -32 -21 -23 -21 -22 -15 5 -14 6 3 -23 3
-22 22 3 21 3 7 -11 7 -11 6 -47 7 -47 49 -3 48 -3 -6 -22 -5 -22 8 -13 8 -14
29 4 29 3 5 30 5 30 40 3 40 3 7 12 8 12 11 43 11 42 24 0 23 0 6 20 6 20 -6
10 -6 10 -34 0 -33 0 -6 16 -6 16 0 29 0 29 -32 -6 -33 -6 -12 -3 -13 -4 6
-14 5 -14 -16 -17 -16 -16 -22 0 -22 0 -14 9 -14 9 6 31 7 31 -9 0 -9 0 -14 4
-13 3 -22 -4z"/>
</g>
</svg>
