<?xml version="1.0" standalone="no"?>
<!DOCTYPE svg PUBLIC "-//W3C//DTD SVG 20010904//EN"
 "http://www.w3.org/TR/2001/REC-SVG-20010904/DTD/svg10.dtd">
<svg version="1.0" xmlns="http://www.w3.org/2000/svg"
 width="37.000000pt" height="34.000000pt" viewBox="0 0 37.000000 34.000000"
 preserveAspectRatio="xMidYMid meet">
<metadata>
Created by potrace 1.16, written by Peter Selinger 2001-2019
</metadata>
<g transform="translate(0.000000,34.000000) scale(0.100000,-0.100000)"
fill="#000000" stroke="none">
<path d="M174 331 l7 -11 -11 -20 -11 -20 -40 -6 -40 -7 1 -31 2 -31 -1 -12
-1 -13 -29 0 -29 0 -12 -15 -12 -15 12 -15 12 -15 29 0 29 0 0 -55 0 -55 39 0
39 0 16 6 16 6 0 29 0 29 14 0 14 0 11 -14 11 -13 -5 -15 -6 -15 15 -12 15
-12 44 6 44 7 11 46 10 47 -4 7 -5 8 -25 -6 -24 -6 -25 6 -25 6 0 25 0 25 23
5 23 6 15 -3 14 -3 3 47 3 47 -30 -10 -30 -11 -23 4 -23 3 0 40 0 40 -34 3
-33 3 6 -10z"/>
</g>
</svg>
