<?xml version="1.0" standalone="no"?>
<!DOCTYPE svg PUBLIC "-//W3C//DTD SVG 20010904//EN"
 "http://www.w3.org/TR/2001/REC-SVG-20010904/DTD/svg10.dtd">
<svg version="1.0" xmlns="http://www.w3.org/2000/svg"
 width="37.000000pt" height="35.000000pt" viewBox="0 0 37.000000 35.000000"
 preserveAspectRatio="xMidYMid meet">
<metadata>
Created by potrace 1.16, written by Peter Selinger 2001-2019
</metadata>
<g transform="translate(0.000000,35.000000) scale(0.100000,-0.100000)"
fill="#000000" stroke="none">
<path d="M207 343 l-7 -6 0 -29 0 -28 -54 0 -55 0 -3 -47 -3 -48 -35 -3 -35
-3 -8 -9 -9 -8 7 -21 6 -21 24 0 24 0 10 -38 11 -37 0 -15 0 -15 58 5 57 5 -3
26 -3 26 17 18 17 17 13 -24 13 -23 -6 -34 -6 -34 58 6 57 6 5 5 6 6 -17 55
-18 55 -19 0 -20 0 -6 16 -6 16 14 9 14 9 30 -2 30 -3 3 34 3 34 -5 23 -6 24
-38 0 -37 0 -22 6 -23 6 0 24 0 24 -13 0 -14 0 -6 -7z"/>
</g>
</svg>
