<?xml version="1.0" standalone="no"?>
<!DOCTYPE svg PUBLIC "-//W3C//DTD SVG 20010904//EN"
 "http://www.w3.org/TR/2001/REC-SVG-20010904/DTD/svg10.dtd">
<svg version="1.0" xmlns="http://www.w3.org/2000/svg"
 width="38.000000pt" height="36.000000pt" viewBox="0 0 38.000000 36.000000"
 preserveAspectRatio="xMidYMid meet">
<metadata>
Created by potrace 1.16, written by Peter Selinger 2001-2019
</metadata>
<g transform="translate(0.000000,36.000000) scale(0.100000,-0.100000)"
fill="#000000" stroke="none">
<path d="M104 345 l-6 -16 6 -6 6 -6 -11 -14 -11 -13 -44 0 -44 0 0 -32 0 -33
6 -22 6 -23 23 0 23 0 13 -16 13 -16 -15 -9 -14 -9 -6 0 -7 0 -16 -49 -16 -50
0 -11 0 -11 58 3 57 3 -1 32 -2 32 14 5 13 5 8 -12 8 -12 0 -30 0 -30 61 -3
62 -3 7 47 7 47 5 13 5 14 28 0 28 0 6 16 6 16 0 8 0 9 -16 16 -16 16 -28 -6
-27 -6 -7 23 -6 23 0 28 0 29 -47 -4 -48 -3 -5 35 -5 35 -33 3 -32 3 -6 -16z"/>
</g>
</svg>
