<?xml version="1.0" standalone="no"?>
<!DOCTYPE svg PUBLIC "-//W3C//DTD SVG 20010904//EN"
 "http://www.w3.org/TR/2001/REC-SVG-20010904/DTD/svg10.dtd">
<svg version="1.0" xmlns="http://www.w3.org/2000/svg"
 width="39.000000pt" height="32.000000pt" viewBox="0 0 39.000000 32.000000"
 preserveAspectRatio="xMidYMid meet">
<metadata>
Created by potrace 1.16, written by Peter Selinger 2001-2019
</metadata>
<g transform="translate(0.000000,32.000000) scale(0.100000,-0.100000)"
fill="#000000" stroke="none">
<path d="M177 313 l-7 -6 0 -29 0 -29 -10 -19 -10 -19 -15 5 -14 6 -3 31 -3
32 -55 0 -55 0 -3 -43 -3 -43 12 -15 11 -14 29 0 29 0 0 -14 0 -14 -20 5 -20
5 -14 -33 -14 -34 -7 -37 -7 -38 71 0 71 0 0 42 0 42 9 -9 10 -10 3 -35 3 -35
40 -3 39 -3 33 6 33 6 -7 44 -6 45 31 0 30 0 16 6 16 6 0 39 0 38 -19 11 -20
10 -25 0 -26 0 0 33 0 32 -8 11 -7 11 -47 11 -47 12 -4 0 -4 0 -6 -7z"/>
</g>
</svg>
