<?xml version="1.0" standalone="no"?>
<!DOCTYPE svg PUBLIC "-//W3C//DTD SVG 20010904//EN"
 "http://www.w3.org/TR/2001/REC-SVG-20010904/DTD/svg10.dtd">
<svg version="1.0" xmlns="http://www.w3.org/2000/svg"
 width="37.000000pt" height="30.000000pt" viewBox="0 0 37.000000 30.000000"
 preserveAspectRatio="xMidYMid meet">
<metadata>
Created by potrace 1.16, written by Peter Selinger 2001-2019
</metadata>
<g transform="translate(0.000000,30.000000) scale(0.100000,-0.100000)"
fill="#000000" stroke="none">
<path d="M174 289 l-5 -9 6 -10 6 -9 -15 -36 -15 -35 -13 0 -13 0 -12 8 -11 7
-4 30 -3 30 -45 0 -45 0 -3 -33 -3 -33 12 -15 12 -14 26 2 26 3 3 -29 4 -29
-22 6 -22 6 -12 -32 -13 -32 -7 -28 -6 -27 60 0 61 0 -3 35 -2 34 7 8 8 7 17
-10 17 -11 0 -34 0 -34 29 -3 29 -4 31 6 31 6 -3 45 -4 45 30 0 30 0 16 6 16
6 0 29 0 28 -21 12 -21 11 -24 -5 -24 -4 0 36 0 36 -8 11 -7 11 -43 10 -42 11
-6 -9z"/>
</g>
</svg>
