<?xml version="1.0" standalone="no"?>
<!DOCTYPE svg PUBLIC "-//W3C//DTD SVG 20010904//EN"
 "http://www.w3.org/TR/2001/REC-SVG-20010904/DTD/svg10.dtd">
<svg version="1.0" xmlns="http://www.w3.org/2000/svg"
 width="43.000000pt" height="29.000000pt" viewBox="0 0 43.000000 29.000000"
 preserveAspectRatio="xMidYMid meet">
<metadata>
Created by potrace 1.16, written by Peter Selinger 2001-2019
</metadata>
<g transform="translate(0.000000,29.000000) scale(0.100000,-0.100000)"
fill="#000000" stroke="none">
<path d="M108 283 l-18 -4 0 -50 0 -49 -32 0 -33 0 -13 -9 -14 -8 4 -24 3 -24
22 -3 22 -3 17 -55 17 -55 66 3 66 3 4 40 4 40 6 -25 7 -25 48 -13 47 -14 14
6 14 5 -6 50 -6 50 39 3 39 3 3 29 4 29 -25 -7 -24 -6 -11 26 -12 25 0 29 0
30 -37 0 -38 0 -23 -7 -24 -6 5 -18 5 -18 -14 -12 -14 -11 -14 5 -15 6 -3 33
-3 33 -30 2 -30 1 -17 -5z"/>
</g>
</svg>
