<?xml version="1.0" standalone="no"?>
<!DOCTYPE svg PUBLIC "-//W3C//DTD SVG 20010904//EN"
 "http://www.w3.org/TR/2001/REC-SVG-20010904/DTD/svg10.dtd">
<svg version="1.0" xmlns="http://www.w3.org/2000/svg"
 width="28.000000pt" height="27.000000pt" viewBox="0 0 28.000000 27.000000"
 preserveAspectRatio="xMidYMid meet">
<metadata>
Created by potrace 1.16, written by Peter Selinger 2001-2019
</metadata>
<g transform="translate(0.000000,27.000000) scale(0.100000,-0.100000)"
fill="#000000" stroke="none">
<path d="M23 263 l-13 -5 0 -33 0 -34 13 -8 12 -8 25 0 25 0 3 -27 3 -27 -21
-11 -21 -11 -19 6 -20 6 0 -40 0 -39 -6 -16 -6 -16 50 0 51 0 3 33 3 32 27 3
26 3 4 -23 3 -22 40 -8 39 -9 13 5 13 5 0 28 0 28 -8 11 -7 12 -25 3 -25 4 0
30 0 30 25 1 25 1 13 2 13 1 -3 43 -3 42 -49 0 -49 0 -3 -29 -3 -29 -13 -8
-13 -9 -12 0 -12 0 -15 16 -16 15 6 23 5 23 -23 7 -23 6 -10 -1 -10 -1 -12 -5z"/>
</g>
</svg>
