<?xml version="1.0" standalone="no"?>
<!DOCTYPE svg PUBLIC "-//W3C//DTD SVG 20010904//EN"
 "http://www.w3.org/TR/2001/REC-SVG-20010904/DTD/svg10.dtd">
<svg version="1.0" xmlns="http://www.w3.org/2000/svg"
 width="41.000000pt" height="27.000000pt" viewBox="0 0 41.000000 27.000000"
 preserveAspectRatio="xMidYMid meet">
<metadata>
Created by potrace 1.16, written by Peter Selinger 2001-2019
</metadata>
<g transform="translate(0.000000,27.000000) scale(0.100000,-0.100000)"
fill="#000000" stroke="none">
<path d="M93 263 l-13 -5 0 -44 0 -44 -12 -1 -13 -2 -25 -1 -25 -1 0 -30 0
-30 27 -3 28 -3 6 -25 6 -24 -6 -26 -7 -25 58 3 58 3 0 27 -1 28 19 6 19 6 11
-11 11 -11 1 -23 0 -22 48 -3 47 -3 0 13 0 13 -10 35 -10 35 5 16 5 16 42 -1
42 -1 4 18 3 17 -19 0 -20 0 -16 6 -16 6 0 45 0 44 -17 -5 -18 -5 -31 -6 -32
-6 -5 -20 -5 -19 -25 0 -25 0 -12 15 -12 15 5 20 5 20 -31 -1 -32 -1 -12 -5z"/>
</g>
</svg>
