<?xml version="1.0" standalone="no"?>
<!DOCTYPE svg PUBLIC "-//W3C//DTD SVG 20010904//EN"
 "http://www.w3.org/TR/2001/REC-SVG-20010904/DTD/svg10.dtd">
<svg version="1.0" xmlns="http://www.w3.org/2000/svg"
 width="34.000000pt" height="34.000000pt" viewBox="0 0 34.000000 34.000000"
 preserveAspectRatio="xMidYMid meet">
<metadata>
Created by potrace 1.16, written by Peter Selinger 2001-2019
</metadata>
<g transform="translate(0.000000,34.000000) scale(0.100000,-0.100000)"
fill="#000000" stroke="none">
<path d="M5 310 l-7 -32 8 -8 9 -9 35 -3 35 -3 3 -31 3 -30 -25 -12 -26 -11
-15 6 -16 6 3 -49 3 -49 31 -3 32 -3 6 -30 6 -29 25 -12 26 -12 16 16 16 16 1
24 1 23 43 3 42 3 0 12 0 12 -11 38 -10 39 5 6 6 6 43 5 42 6 0 20 0 19 -30 1
-30 0 -3 46 -3 46 -44 -16 -45 -16 0 -13 0 -13 -42 3 -43 3 0 25 0 25 -42 3
-41 3 -7 -31z"/>
</g>
</svg>
