<?xml version="1.0" standalone="no"?>
<!DOCTYPE svg PUBLIC "-//W3C//DTD SVG 20010904//EN"
 "http://www.w3.org/TR/2001/REC-SVG-20010904/DTD/svg10.dtd">
<svg version="1.0" xmlns="http://www.w3.org/2000/svg"
 width="42.000000pt" height="27.000000pt" viewBox="0 0 42.000000 27.000000"
 preserveAspectRatio="xMidYMid meet">
<metadata>
Created by potrace 1.16, written by Peter Selinger 2001-2019
</metadata>
<g transform="translate(0.000000,27.000000) scale(0.100000,-0.100000)"
fill="#000000" stroke="none">
<path d="M90 233 l0 -39 -11 -11 -12 -12 -28 6 -29 5 -6 -16 -6 -16 13 -16 13
-15 23 6 23 5 11 -27 11 -28 -5 -35 -4 -35 61 5 61 5 -3 37 -4 38 26 0 26 0 0
-19 0 -19 46 -16 46 -16 -5 38 -6 37 8 14 9 14 23 -6 23 -6 13 11 13 10 0 20
0 20 -16 -6 -15 -6 -19 10 -19 10 -3 43 -3 43 -47 -14 -47 -13 6 -15 6 -15
-34 3 -33 3 -6 25 -6 25 -47 3 -47 3 0 -38z"/>
</g>
</svg>
