<?xml version="1.0" standalone="no"?>
<!DOCTYPE svg PUBLIC "-//W3C//DTD SVG 20010904//EN"
 "http://www.w3.org/TR/2001/REC-SVG-20010904/DTD/svg10.dtd">
<svg version="1.0" xmlns="http://www.w3.org/2000/svg"
 width="36.000000pt" height="30.000000pt" viewBox="0 0 36.000000 30.000000"
 preserveAspectRatio="xMidYMid meet">
<metadata>
Created by potrace 1.16, written by Peter Selinger 2001-2019
</metadata>
<g transform="translate(0.000000,30.000000) scale(0.100000,-0.100000)"
fill="#000000" stroke="none">
<path d="M98 293 l-17 -4 -3 -47 -3 -47 -29 0 -29 0 -10 -17 -11 -16 12 -26
12 -26 25 0 25 0 1 -27 1 -28 -2 -22 -1 -23 24 0 24 0 46 -6 46 -7 3 39 3 39
10 0 10 0 3 -26 3 -26 51 -6 51 -6 8 5 9 5 0 60 0 59 -35 0 -36 0 -6 16 -6 16
14 9 14 9 28 0 27 0 0 50 0 50 -10 0 -9 0 -51 -11 -50 -11 0 -23 0 -23 -16 -6
-17 -6 -13 11 -14 11 0 34 0 34 -32 -1 -33 -1 -17 -5z"/>
</g>
</svg>
