<?xml version="1.0" standalone="no"?>
<!DOCTYPE svg PUBLIC "-//W3C//DTD SVG 20010904//EN"
 "http://www.w3.org/TR/2001/REC-SVG-20010904/DTD/svg10.dtd">
<svg version="1.0" xmlns="http://www.w3.org/2000/svg"
 width="30.000000pt" height="27.000000pt" viewBox="0 0 30.000000 27.000000"
 preserveAspectRatio="xMidYMid meet">
<metadata>
Created by potrace 1.16, written by Peter Selinger 2001-2019
</metadata>
<g transform="translate(0.000000,27.000000) scale(0.100000,-0.100000)"
fill="#000000" stroke="none">
<path d="M38 263 l-18 -4 0 -46 0 -45 22 5 22 6 13 -11 13 -10 0 -19 0 -18
-21 -11 -21 -12 -24 6 -24 6 0 -16 0 -17 12 -38 11 -39 38 0 37 0 16 6 16 6 0
33 0 33 13 5 14 5 9 -6 9 -7 0 -19 0 -19 49 -14 49 -14 9 9 10 10 5 42 6 42
-31 -7 -31 -6 -20 11 -21 11 0 14 0 14 19 11 20 10 25 0 26 0 0 40 0 39 -21
11 -21 12 -25 -7 -25 -6 5 -19 5 -19 -12 -16 -12 -17 -29 4 -30 3 1 30 1 30
-11 7 -11 8 -25 -1 -25 -1 -17 -5z"/>
</g>
</svg>
