<?xml version="1.0" standalone="no"?>
<!DOCTYPE svg PUBLIC "-//W3C//DTD SVG 20010904//EN"
 "http://www.w3.org/TR/2001/REC-SVG-20010904/DTD/svg10.dtd">
<svg version="1.0" xmlns="http://www.w3.org/2000/svg"
 width="36.000000pt" height="28.000000pt" viewBox="0 0 36.000000 28.000000"
 preserveAspectRatio="xMidYMid meet">
<metadata>
Created by potrace 1.16, written by Peter Selinger 2001-2019
</metadata>
<g transform="translate(0.000000,28.000000) scale(0.100000,-0.100000)"
fill="#000000" stroke="none">
<path d="M10 261 l-10 -20 0 -24 0 -24 23 4 22 3 12 -8 13 -8 1 -19 2 -20 -1
-22 -2 -23 -20 0 -20 0 -5 -27 -6 -28 -10 -17 -9 -18 0 -3 0 -3 43 4 42 4 13
11 14 11 -4 28 -5 28 33 0 33 0 3 -21 3 -21 39 -13 40 -14 8 5 8 5 0 22 0 22
6 23 7 23 22 -5 22 -6 17 18 16 18 -14 20 -14 19 -34 0 -33 0 -5 45 -5 45 -42
3 -43 3 0 -35 0 -35 -15 -15 -16 -15 -14 5 -14 6 -6 18 -6 18 7 26 6 26 -46 0
-45 0 -11 -19z"/>
</g>
</svg>
