<?xml version="1.0" standalone="no"?>
<!DOCTYPE svg PUBLIC "-//W3C//DTD SVG 20010904//EN"
 "http://www.w3.org/TR/2001/REC-SVG-20010904/DTD/svg10.dtd">
<svg version="1.0" xmlns="http://www.w3.org/2000/svg"
 width="38.000000pt" height="30.000000pt" viewBox="0 0 38.000000 30.000000"
 preserveAspectRatio="xMidYMid meet">
<metadata>
Created by potrace 1.16, written by Peter Selinger 2001-2019
</metadata>
<g transform="translate(0.000000,30.000000) scale(0.100000,-0.100000)"
fill="#000000" stroke="none">
<path d="M10 281 l-10 -20 0 -37 0 -36 21 5 21 6 14 -6 14 -5 0 -34 0 -34 -20
0 -20 0 -5 -27 -6 -28 -10 -17 -9 -18 0 -14 0 -15 53 6 52 6 13 10 12 9 0 29
0 29 19 0 20 0 3 -21 3 -21 43 -15 44 -14 14 5 14 5 0 23 0 23 6 21 6 22 19
-5 20 -6 19 18 20 18 0 14 0 13 -20 20 -20 20 -29 0 -30 0 -3 43 -3 42 -52 3
-53 3 0 -30 0 -29 -6 -16 -6 -16 -13 0 -13 0 -5 13 -4 12 5 33 5 32 -56 0 -56
0 -11 -19z"/>
</g>
</svg>
