<?xml version="1.0" standalone="no"?>
<!DOCTYPE svg PUBLIC "-//W3C//DTD SVG 20010904//EN"
 "http://www.w3.org/TR/2001/REC-SVG-20010904/DTD/svg10.dtd">
<svg version="1.0" xmlns="http://www.w3.org/2000/svg"
 width="27.000000pt" height="28.000000pt" viewBox="0 0 27.000000 28.000000"
 preserveAspectRatio="xMidYMid meet">
<metadata>
Created by potrace 1.16, written by Peter Selinger 2001-2019
</metadata>
<g transform="translate(0.000000,28.000000) scale(0.100000,-0.100000)"
fill="#000000" stroke="none">
<path d="M22 271 l-13 -8 3 -34 3 -34 22 0 23 -1 11 -11 11 -11 -4 -28 -3 -29
-22 2 -22 3 -6 -38 -6 -37 -10 -17 -9 -18 0 -2 0 -3 56 3 55 4 -6 29 -7 29 18
7 17 6 16 -10 16 -10 0 -24 0 -24 53 -3 53 -3 -3 53 -3 53 -20 1 -20 1 -12 2
-13 1 0 31 0 30 23 -2 22 -3 13 7 12 8 0 39 0 38 -39 7 -40 7 -13 -9 -13 -8 0
-25 0 -25 -35 0 -35 0 0 33 0 32 -30 0 -30 0 -13 -9z"/>
</g>
</svg>
