<?xml version="1.0" standalone="no"?>
<!DOCTYPE svg PUBLIC "-//W3C//DTD SVG 20010904//EN"
 "http://www.w3.org/TR/2001/REC-SVG-20010904/DTD/svg10.dtd">
<svg version="1.0" xmlns="http://www.w3.org/2000/svg"
 width="29.000000pt" height="28.000000pt" viewBox="0 0 29.000000 28.000000"
 preserveAspectRatio="xMidYMid meet">
<metadata>
Created by potrace 1.16, written by Peter Selinger 2001-2019
</metadata>
<g transform="translate(0.000000,28.000000) scale(0.100000,-0.100000)"
fill="#000000" stroke="none">
<path d="M10 235 l0 -45 21 0 20 0 20 -10 19 -11 0 -19 0 -19 -16 -15 -15 -16
-31 0 -30 0 7 -37 7 -38 4 -7 5 -8 53 0 53 0 -5 29 -4 29 11 6 11 7 20 -6 20
-6 0 -22 0 -22 9 -14 9 -14 46 7 46 7 0 59 0 59 -36 -2 -36 -2 -12 18 -11 18
19 14 18 14 29 -6 29 -5 0 39 0 39 -12 12 -12 12 -128 0 -128 0 0 -45z"/>
</g>
</svg>
