<?xml version="1.0" standalone="no"?>
<!DOCTYPE svg PUBLIC "-//W3C//DTD SVG 20010904//EN"
 "http://www.w3.org/TR/2001/REC-SVG-20010904/DTD/svg10.dtd">
<svg version="1.0" xmlns="http://www.w3.org/2000/svg"
 width="37.000000pt" height="40.000000pt" viewBox="0 0 37.000000 40.000000"
 preserveAspectRatio="xMidYMid meet">
<metadata>
Created by potrace 1.16, written by Peter Selinger 2001-2019
</metadata>
<g transform="translate(0.000000,40.000000) scale(0.100000,-0.100000)"
fill="#000000" stroke="none">
<path d="M203 373 l2 -28 -57 -3 -57 -3 -3 -47 -3 -47 -31 -1 -31 -1 -12 -7
-11 -7 0 -13 0 -14 15 -12 15 -12 25 0 25 0 1 -42 1 -41 -1 -7 -1 -8 50 0 50
0 0 -18 0 -18 16 -22 15 -22 23 0 22 0 12 12 12 12 0 38 0 38 9 0 10 0 25 -9
25 -10 4 12 4 12 -11 34 -10 34 -18 5 -18 4 0 23 0 23 15 12 15 12 20 -5 20
-5 0 41 0 42 -8 11 -7 11 -40 7 -40 7 -17 5 -18 5 0 15 0 14 -19 0 -20 0 2
-27z"/>
</g>
</svg>
