<?xml version="1.0" standalone="no"?>
<!DOCTYPE svg PUBLIC "-//W3C//DTD SVG 20010904//EN"
 "http://www.w3.org/TR/2001/REC-SVG-20010904/DTD/svg10.dtd">
<svg version="1.0" xmlns="http://www.w3.org/2000/svg"
 width="39.000000pt" height="42.000000pt" viewBox="0 0 39.000000 42.000000"
 preserveAspectRatio="xMidYMid meet">
<metadata>
Created by potrace 1.16, written by Peter Selinger 2001-2019
</metadata>
<g transform="translate(0.000000,42.000000) scale(0.100000,-0.100000)"
fill="#000000" stroke="none">
<path d="M202 393 l3 -28 -57 -3 -57 -3 -3 -47 -3 -47 -23 2 -23 3 -20 -10
-19 -11 0 -23 0 -24 13 -10 12 -10 28 -7 27 -7 0 -44 0 -44 50 0 50 0 0 -18 0
-18 16 -22 15 -22 33 0 32 0 12 12 12 12 0 37 0 38 31 -11 31 -11 9 14 9 14
-5 22 -5 22 -10 26 -10 25 -15 0 -15 0 0 14 0 14 13 10 13 11 22 -6 22 -5 0
53 0 54 -8 11 -7 11 -40 7 -40 7 -17 5 -18 5 0 15 0 14 -31 0 -30 0 3 -27z"/>
</g>
</svg>
