<?xml version="1.0" standalone="no"?>
<!DOCTYPE svg PUBLIC "-//W3C//DTD SVG 20010904//EN"
 "http://www.w3.org/TR/2001/REC-SVG-20010904/DTD/svg10.dtd">
<svg version="1.0" xmlns="http://www.w3.org/2000/svg"
 width="39.000000pt" height="42.000000pt" viewBox="0 0 39.000000 42.000000"
 preserveAspectRatio="xMidYMid meet">
<metadata>
Created by potrace 1.16, written by Peter Selinger 2001-2019
</metadata>
<g transform="translate(0.000000,42.000000) scale(0.100000,-0.100000)"
fill="#000000" stroke="none">
<path d="M107 413 l-7 -6 0 -24 0 -23 -45 0 -45 0 0 -49 0 -50 37 -3 38 -3 4
-19 3 -20 -18 -13 -18 -13 -28 0 -28 0 0 -36 0 -35 10 -20 11 -19 24 0 23 0
16 -6 16 -6 -6 -10 -6 -9 6 -25 6 -24 45 0 45 0 10 25 10 25 16 0 16 0 33 16
34 16 -6 49 -6 49 27 0 27 0 20 10 19 11 0 24 0 23 -6 16 -6 16 -38 0 -39 0
-3 36 -3 37 -15 8 -15 8 -37 6 -38 6 0 19 0 20 -38 0 -39 0 -6 -7z"/>
</g>
</svg>
