<?xml version="1.0" standalone="no"?>
<!DOCTYPE svg PUBLIC "-//W3C//DTD SVG 20010904//EN"
 "http://www.w3.org/TR/2001/REC-SVG-20010904/DTD/svg10.dtd">
<svg version="1.0" xmlns="http://www.w3.org/2000/svg"
 width="37.000000pt" height="40.000000pt" viewBox="0 0 37.000000 40.000000"
 preserveAspectRatio="xMidYMid meet">
<metadata>
Created by potrace 1.16, written by Peter Selinger 2001-2019
</metadata>
<g transform="translate(0.000000,40.000000) scale(0.100000,-0.100000)"
fill="#000000" stroke="none">
<path d="M104 386 l-5 -13 3 -14 3 -14 -47 -3 -48 -3 0 -39 0 -39 37 -3 38 -3
3 -30 4 -29 -18 -13 -18 -13 -28 0 -28 0 0 -26 0 -25 10 -20 11 -19 27 0 27 0
14 -9 14 -9 -6 -16 -6 -16 5 -15 6 -15 34 0 34 0 10 25 10 25 16 0 16 0 33 15
32 16 -7 41 -8 42 4 11 5 11 27 -3 27 -4 19 14 19 14 -7 27 -7 27 -37 -3 -37
-3 -5 39 -5 39 -15 8 -15 8 -37 6 -38 6 0 19 0 20 -30 0 -31 0 -5 -14z"/>
</g>
</svg>
