<?xml version="1.0" standalone="no"?>
<!DOCTYPE svg PUBLIC "-//W3C//DTD SVG 20010904//EN"
 "http://www.w3.org/TR/2001/REC-SVG-20010904/DTD/svg10.dtd">
<svg version="1.0" xmlns="http://www.w3.org/2000/svg"
 width="36.000000pt" height="42.000000pt" viewBox="0 0 36.000000 42.000000"
 preserveAspectRatio="xMidYMid meet">
<metadata>
Created by potrace 1.16, written by Peter Selinger 2001-2019
</metadata>
<g transform="translate(0.000000,42.000000) scale(0.100000,-0.100000)"
fill="#000000" stroke="none">
<path d="M180 403 l0 -19 -12 -12 -12 -12 -38 0 -38 0 0 -39 0 -39 -14 -11
-14 -12 -27 7 -26 6 3 -48 3 -49 22 1 23 1 6 -21 5 -21 11 -27 10 -28 49 0 49
0 0 -21 0 -20 10 -20 11 -19 29 0 29 0 15 16 16 15 0 20 0 19 35 0 35 0 0 65
0 65 -40 0 -40 0 0 10 0 10 -2 8 -3 7 40 5 40 5 3 58 3 59 -38 -2 -38 -2 -12
1 -12 1 -3 28 -3 27 -37 3 -38 3 0 -18z"/>
</g>
</svg>
