<?xml version="1.0" standalone="no"?>
<!DOCTYPE svg PUBLIC "-//W3C//DTD SVG 20010904//EN"
 "http://www.w3.org/TR/2001/REC-SVG-20010904/DTD/svg10.dtd">
<svg version="1.0" xmlns="http://www.w3.org/2000/svg"
 width="41.000000pt" height="31.000000pt" viewBox="0 0 41.000000 31.000000"
 preserveAspectRatio="xMidYMid meet">
<metadata>
Created by potrace 1.16, written by Peter Selinger 2001-2019
</metadata>
<g transform="translate(0.000000,31.000000) scale(0.100000,-0.100000)"
fill="#000000" stroke="none">
<path d="M230 277 l0 -33 -13 -19 -14 -18 -25 6 -26 7 2 32 1 33 -43 3 -42 3
0 -49 0 -50 -20 5 -20 5 -15 -12 -15 -12 0 -24 0 -24 15 0 15 0 11 -28 11 -27
0 -22 1 -21 32 -6 33 -6 26 10 26 10 1 12 1 13 -1 12 -2 13 24 0 25 0 12 -15
12 -15 -6 -25 -6 -25 14 -6 14 -5 39 10 40 11 2 47 1 46 11 13 10 13 16 -6 15
-6 9 14 9 14 0 12 0 12 -37 3 -38 3 -3 53 -3 53 -25 9 -25 10 -25 0 -24 0 0
-33z"/>
</g>
</svg>
