<?xml version="1.0" standalone="no"?>
<!DOCTYPE svg PUBLIC "-//W3C//DTD SVG 20010904//EN"
 "http://www.w3.org/TR/2001/REC-SVG-20010904/DTD/svg10.dtd">
<svg version="1.0" xmlns="http://www.w3.org/2000/svg"
 width="43.000000pt" height="33.000000pt" viewBox="0 0 43.000000 33.000000"
 preserveAspectRatio="xMidYMid meet">
<metadata>
Created by potrace 1.16, written by Peter Selinger 2001-2019
</metadata>
<g transform="translate(0.000000,33.000000) scale(0.100000,-0.100000)"
fill="#000000" stroke="none">
<path d="M230 297 l0 -33 -14 -20 -15 -19 -10 10 -9 10 -4 30 -3 30 -52 3 -53
3 0 -45 0 -46 -23 0 -23 0 -12 -12 -12 -12 0 -33 0 -33 15 0 15 0 10 -26 10
-25 0 -24 0 -24 43 -6 42 -6 27 10 27 10 7 26 6 25 8 0 9 0 8 -12 8 -13 0 -30
0 -30 22 -3 21 -3 41 11 40 10 3 53 3 52 25 4 25 3 7 12 8 11 0 22 0 22 -37 3
-38 3 -3 53 -3 53 -25 9 -25 10 -35 0 -34 0 0 -33z"/>
</g>
</svg>
