<?xml version="1.0" standalone="no"?>
<!DOCTYPE svg PUBLIC "-//W3C//DTD SVG 20010904//EN"
 "http://www.w3.org/TR/2001/REC-SVG-20010904/DTD/svg10.dtd">
<svg version="1.0" xmlns="http://www.w3.org/2000/svg"
 width="36.000000pt" height="33.000000pt" viewBox="0 0 36.000000 33.000000"
 preserveAspectRatio="xMidYMid meet">
<metadata>
Created by potrace 1.16, written by Peter Selinger 2001-2019
</metadata>
<g transform="translate(0.000000,33.000000) scale(0.100000,-0.100000)"
fill="#000000" stroke="none">
<path d="M238 288 l-3 -43 -30 0 -30 0 0 30 0 30 -52 3 -53 3 0 -35 0 -34 -6
-16 -6 -16 -30 0 -29 0 3 -37 3 -38 26 -3 27 -3 4 -50 5 -49 7 -7 6 -6 48 9
47 9 3 28 3 28 22 -3 22 -3 3 -42 3 -43 28 0 28 0 30 11 31 10 6 31 6 30 0 30
0 30 -26 -5 -26 -5 -20 20 -19 19 4 12 4 12 34 5 34 5 3 53 3 52 -26 10 -26
10 -29 0 -29 0 -3 -42z"/>
</g>
</svg>
