<?xml version="1.0" standalone="no"?>
<!DOCTYPE svg PUBLIC "-//W3C//DTD SVG 20010904//EN"
 "http://www.w3.org/TR/2001/REC-SVG-20010904/DTD/svg10.dtd">
<svg version="1.0" xmlns="http://www.w3.org/2000/svg"
 width="38.000000pt" height="43.000000pt" viewBox="0 0 38.000000 43.000000"
 preserveAspectRatio="xMidYMid meet">
<metadata>
Created by potrace 1.16, written by Peter Selinger 2001-2019
</metadata>
<g transform="translate(0.000000,43.000000) scale(0.100000,-0.100000)"
fill="#000000" stroke="none">
<path d="M110 407 l0 -23 -12 -12 -12 -12 -43 0 -43 0 0 -50 0 -50 39 0 39 0
5 -14 6 -14 -12 -15 -12 -16 -30 -3 -30 -3 -3 -57 -3 -57 38 -3 38 -3 3 -37 3
-38 40 0 40 0 20 10 19 11 0 19 0 20 23 5 22 4 25 3 25 3 -3 48 -4 47 34 0 34
0 12 12 12 12 0 31 0 31 -12 12 -12 12 -33 0 -33 0 0 40 0 40 -55 0 -55 0 0
23 0 23 -12 12 -12 12 -23 0 -23 0 0 -23z"/>
</g>
</svg>
