<?xml version="1.0" standalone="no"?>
<!DOCTYPE svg PUBLIC "-//W3C//DTD SVG 20010904//EN"
 "http://www.w3.org/TR/2001/REC-SVG-20010904/DTD/svg10.dtd">
<svg version="1.0" xmlns="http://www.w3.org/2000/svg"
 width="36.000000pt" height="41.000000pt" viewBox="0 0 36.000000 41.000000"
 preserveAspectRatio="xMidYMid meet">
<metadata>
Created by potrace 1.16, written by Peter Selinger 2001-2019
</metadata>
<g transform="translate(0.000000,41.000000) scale(0.100000,-0.100000)"
fill="#000000" stroke="none">
<path d="M110 387 l0 -23 -12 -12 -12 -12 -43 0 -43 0 0 -40 0 -40 39 0 40 0
6 -20 6 -19 -10 -20 -11 -20 -33 -3 -32 -3 -3 -47 -3 -48 30 0 29 0 15 -6 15
-6 -5 -34 -6 -34 35 0 34 0 19 14 18 13 -6 16 -6 16 37 6 37 6 15 2 14 2 -3
48 -3 47 34 0 34 0 12 12 12 12 0 21 0 21 -12 12 -12 12 -33 0 -33 0 0 40 0
39 -57 3 -58 3 0 20 0 20 -8 13 -8 12 -15 0 -14 0 0 -23z"/>
</g>
</svg>
