<?xml version="1.0" standalone="no"?>
<!DOCTYPE svg PUBLIC "-//W3C//DTD SVG 20010904//EN"
 "http://www.w3.org/TR/2001/REC-SVG-20010904/DTD/svg10.dtd">
<svg version="1.0" xmlns="http://www.w3.org/2000/svg"
 width="43.000000pt" height="38.000000pt" viewBox="0 0 43.000000 38.000000"
 preserveAspectRatio="xMidYMid meet">
<metadata>
Created by potrace 1.16, written by Peter Selinger 2001-2019
</metadata>
<g transform="translate(0.000000,38.000000) scale(0.100000,-0.100000)"
fill="#000000" stroke="none">
<path d="M180 346 l0 -35 -57 -3 -58 -3 -5 -35 -5 -35 -27 -3 -28 -3 0 -43 0
-42 12 -12 12 -12 24 0 25 0 -7 -40 -6 -39 19 -11 20 -10 28 0 28 0 23 6 22 6
0 30 0 30 13 -5 12 -4 -3 -35 -3 -36 18 -6 17 -7 53 7 52 6 3 57 3 56 30 5 30
5 3 30 4 29 -18 13 -18 13 -23 0 -23 0 0 45 0 45 -22 5 -23 4 -25 3 -25 3 0
25 0 25 -37 3 -38 3 0 -35z"/>
</g>
</svg>
