<?xml version="1.0" standalone="no"?>
<!DOCTYPE svg PUBLIC "-//W3C//DTD SVG 20010904//EN"
 "http://www.w3.org/TR/2001/REC-SVG-20010904/DTD/svg10.dtd">
<svg version="1.0" xmlns="http://www.w3.org/2000/svg"
 width="36.000000pt" height="34.000000pt" viewBox="0 0 36.000000 34.000000"
 preserveAspectRatio="xMidYMid meet">
<metadata>
Created by potrace 1.16, written by Peter Selinger 2001-2019
</metadata>
<g transform="translate(0.000000,34.000000) scale(0.100000,-0.100000)"
fill="#000000" stroke="none">
<path d="M204 325 l-6 -15 6 -15 5 -15 -22 -5 -22 -5 -40 -2 -40 -3 -3 -35 -4
-35 -10 -13 -11 -13 -29 6 -28 7 0 -25 0 -25 14 -11 15 -12 17 3 18 3 10 -55
11 -55 23 -3 23 -3 34 11 35 12 0 34 0 35 28 -3 27 -3 0 -30 0 -29 49 -9 48
-8 4 3 3 3 -16 48 -16 48 -21 -3 -21 -3 -3 36 -3 36 26 -4 25 -5 15 12 15 12
0 39 0 38 -42 11 -43 11 -16 5 -17 5 -5 19 -5 20 -11 0 -12 0 -5 -15z"/>
</g>
</svg>
