<?xml version="1.0" standalone="no"?>
<!DOCTYPE svg PUBLIC "-//W3C//DTD SVG 20010904//EN"
 "http://www.w3.org/TR/2001/REC-SVG-20010904/DTD/svg10.dtd">
<svg version="1.0" xmlns="http://www.w3.org/2000/svg"
 width="45.000000pt" height="43.000000pt" viewBox="0 0 45.000000 43.000000"
 preserveAspectRatio="xMidYMid meet">
<metadata>
Created by potrace 1.16, written by Peter Selinger 2001-2019
</metadata>
<g transform="translate(0.000000,43.000000) scale(0.100000,-0.100000)"
fill="#000000" stroke="none">
<path d="M203 418 l-11 -13 -4 -24 -3 -24 -50 -1 -50 -1 -3 -38 -3 -38 -18 6
-18 5 -16 -6 -16 -6 -7 -34 -6 -33 15 -16 16 -15 19 0 19 0 7 -31 6 -31 0 -25
0 -25 30 7 30 6 20 -6 21 -7 -7 -34 -6 -35 53 3 54 3 3 32 3 32 52 3 52 3 0
55 0 55 22 3 22 3 11 14 12 15 -6 24 -6 25 -33 3 -32 3 -3 43 -3 42 -27 0 -27
0 -22 6 -22 6 -3 27 -3 26 -26 3 -26 3 -10 -13z"/>
</g>
</svg>
