<?xml version="1.0" standalone="no"?>
<!DOCTYPE svg PUBLIC "-//W3C//DTD SVG 20010904//EN"
 "http://www.w3.org/TR/2001/REC-SVG-20010904/DTD/svg10.dtd">
<svg version="1.0" xmlns="http://www.w3.org/2000/svg"
 width="37.000000pt" height="41.000000pt" viewBox="0 0 37.000000 41.000000"
 preserveAspectRatio="xMidYMid meet">
<metadata>
Created by potrace 1.16, written by Peter Selinger 2001-2019
</metadata>
<g transform="translate(0.000000,41.000000) scale(0.100000,-0.100000)"
fill="#000000" stroke="none">
<path d="M197 404 l-6 -6 6 -14 5 -15 -17 -19 -18 -20 -49 0 -48 0 0 -46 0
-45 -20 6 -21 7 -14 -12 -15 -12 0 -19 0 -18 19 -11 20 -10 26 0 27 0 -7 -37
-7 -38 -2 -15 -1 -15 35 -1 35 -1 18 -1 18 -2 -3 -27 -3 -28 40 0 40 0 0 20 0
20 51 9 52 8 6 30 6 31 0 30 0 30 -29 -6 -28 -6 -21 15 -21 15 6 15 6 15 31
-3 31 -3 3 50 3 50 -53 0 -53 0 0 33 -1 33 -14 9 -15 10 -6 0 -6 0 -6 -6z"/>
</g>
</svg>
