<?xml version="1.0" standalone="no"?>
<!DOCTYPE svg PUBLIC "-//W3C//DTD SVG 20010904//EN"
 "http://www.w3.org/TR/2001/REC-SVG-20010904/DTD/svg10.dtd">
<svg version="1.0" xmlns="http://www.w3.org/2000/svg"
 width="37.000000pt" height="42.000000pt" viewBox="0 0 37.000000 42.000000"
 preserveAspectRatio="xMidYMid meet">
<metadata>
Created by potrace 1.16, written by Peter Selinger 2001-2019
</metadata>
<g transform="translate(0.000000,42.000000) scale(0.100000,-0.100000)"
fill="#000000" stroke="none">
<path d="M190 395 l0 -24 -19 -11 -20 -10 -30 0 -31 0 0 -49 0 -50 -33 6 -33
5 -13 -15 -13 -16 4 -23 3 -23 37 1 38 1 1 -41 1 -41 -2 -22 -1 -23 45 6 46 7
0 -37 0 -36 45 0 44 0 11 19 10 20 0 18 0 18 46 -4 47 -3 -6 23 -7 24 0 33 0
32 -25 0 -26 0 -8 23 -8 22 4 13 5 12 28 0 28 0 6 16 6 16 0 35 0 35 -22 -7
-23 -7 -28 -5 -28 -5 6 25 7 25 -12 21 -11 21 -34 0 -35 0 0 -25z"/>
</g>
</svg>
