<?xml version="1.0" standalone="no"?>
<!DOCTYPE svg PUBLIC "-//W3C//DTD SVG 20010904//EN"
 "http://www.w3.org/TR/2001/REC-SVG-20010904/DTD/svg10.dtd">
<svg version="1.0" xmlns="http://www.w3.org/2000/svg"
 width="34.000000pt" height="34.000000pt" viewBox="0 0 34.000000 34.000000"
 preserveAspectRatio="xMidYMid meet">
<metadata>
Created by potrace 1.16, written by Peter Selinger 2001-2019
</metadata>
<g transform="translate(0.000000,34.000000) scale(0.100000,-0.100000)"
fill="#000000" stroke="none">
<path d="M185 329 l-7 -10 6 -25 6 -24 -55 0 -55 0 0 -51 0 -51 -28 7 -29 6
-13 -15 -12 -16 6 -16 6 -16 20 5 19 5 17 -13 17 -12 -5 -46 -6 -47 17 0 16 0
37 -6 37 -6 3 43 3 44 23 3 22 3 0 -34 0 -35 16 -6 16 -6 34 0 34 0 0 24 0 25
-10 27 -11 27 -5 -6 -6 -6 -14 14 -14 14 0 29 0 30 16 6 17 6 18 -5 19 -6 0
35 0 35 -56 -6 -57 -6 7 27 6 26 -10 20 -11 20 -14 0 -14 0 -6 -11z"/>
</g>
</svg>
