<?xml version="1.0" standalone="no"?>
<!DOCTYPE svg PUBLIC "-//W3C//DTD SVG 20010904//EN"
 "http://www.w3.org/TR/2001/REC-SVG-20010904/DTD/svg10.dtd">
<svg version="1.0" xmlns="http://www.w3.org/2000/svg"
 width="39.000000pt" height="37.000000pt" viewBox="0 0 39.000000 37.000000"
 preserveAspectRatio="xMidYMid meet">
<metadata>
Created by potrace 1.16, written by Peter Selinger 2001-2019
</metadata>
<g transform="translate(0.000000,37.000000) scale(0.100000,-0.100000)"
fill="#000000" stroke="none">
<path d="M185 358 l-4 -13 -3 -20 -3 -20 -52 -3 -51 -3 1 -47 2 -47 -35 -5
-35 -5 0 -35 0 -35 21 -3 21 -3 14 -47 14 -47 47 -9 48 -8 15 6 15 5 0 31 0
30 9 0 10 0 8 -12 7 -13 -2 -21 -3 -21 17 -7 17 -6 47 6 47 6 12 7 11 7 6 62
7 62 -39 0 -39 0 -14 9 -14 9 7 11 7 11 35 0 34 0 0 46 0 45 -14 14 -13 14
-39 3 -39 3 -4 20 -3 20 -12 7 -11 8 -23 0 -23 0 -4 -12z"/>
</g>
</svg>
