<?xml version="1.0" standalone="no"?>
<!DOCTYPE svg PUBLIC "-//W3C//DTD SVG 20010904//EN"
 "http://www.w3.org/TR/2001/REC-SVG-20010904/DTD/svg10.dtd">
<svg version="1.0" xmlns="http://www.w3.org/2000/svg"
 width="29.000000pt" height="41.000000pt" viewBox="0 0 29.000000 41.000000"
 preserveAspectRatio="xMidYMid meet">
<metadata>
Created by potrace 1.16, written by Peter Selinger 2001-2019
</metadata>
<g transform="translate(0.000000,41.000000) scale(0.100000,-0.100000)"
fill="#000000" stroke="none">
<path d="M124 402 l-12 -7 -3 -25 -4 -25 -50 -5 -50 -5 1 -39 1 -38 13 -8 12
-8 18 5 17 5 5 -19 5 -18 -4 -12 -5 -13 -13 0 -14 0 -9 -17 -10 -18 -6 -40 -7
-40 57 3 56 4 -7 -31 -7 -31 26 -11 25 -12 15 6 15 6 3 33 3 33 45 5 45 5 -1
23 0 22 -2 29 -2 30 -27 3 -28 3 -3 27 -3 27 33 3 33 3 3 42 3 41 -18 5 -18 6
-33 6 -33 7 -6 16 -7 17 -10 7 -11 8 -10 0 -10 0 -11 -8z"/>
</g>
</svg>
