<?xml version="1.0" standalone="no"?>
<!DOCTYPE svg PUBLIC "-//W3C//DTD SVG 20010904//EN"
 "http://www.w3.org/TR/2001/REC-SVG-20010904/DTD/svg10.dtd">
<svg version="1.0" xmlns="http://www.w3.org/2000/svg"
 width="31.000000pt" height="43.000000pt" viewBox="0 0 31.000000 43.000000"
 preserveAspectRatio="xMidYMid meet">
<metadata>
Created by potrace 1.16, written by Peter Selinger 2001-2019
</metadata>
<g transform="translate(0.000000,43.000000) scale(0.100000,-0.100000)"
fill="#000000" stroke="none">
<path d="M124 422 l-12 -7 -3 -25 -4 -25 -50 -5 -50 -5 1 -48 0 -49 15 -9 14
-9 18 4 17 4 0 -19 0 -19 -15 0 -14 0 -10 -18 -10 -19 -7 -51 -6 -51 54 6 55
5 -5 -30 -4 -30 21 -12 22 -11 27 3 27 3 5 35 5 35 40 3 40 3 8 9 9 8 -7 55
-7 56 -26 3 -27 3 -3 17 -3 17 33 3 33 3 3 52 3 51 -18 5 -18 6 -33 6 -33 7
-6 16 -7 17 -10 7 -11 8 -20 0 -20 0 -11 -8z"/>
</g>
</svg>
