<?xml version="1.0" standalone="no"?>
<!DOCTYPE svg PUBLIC "-//W3C//DTD SVG 20010904//EN"
 "http://www.w3.org/TR/2001/REC-SVG-20010904/DTD/svg10.dtd">
<svg version="1.0" xmlns="http://www.w3.org/2000/svg"
 width="36.000000pt" height="40.000000pt" viewBox="0 0 36.000000 40.000000"
 preserveAspectRatio="xMidYMid meet">
<metadata>
Created by potrace 1.16, written by Peter Selinger 2001-2019
</metadata>
<g transform="translate(0.000000,40.000000) scale(0.100000,-0.100000)"
fill="#000000" stroke="none">
<path d="M114 385 l6 -15 -20 -20 -20 -20 -40 0 -40 0 0 -45 0 -45 30 0 29 0
11 -21 11 -20 -12 -15 -13 -16 -22 5 -22 4 -6 -45 -6 -44 6 -9 5 -9 45 0 44 0
0 -35 0 -35 30 0 29 0 11 20 11 20 -6 10 -6 10 18 0 18 0 38 11 37 10 0 39 0
39 38 3 37 3 0 35 0 35 -33 1 -32 0 -9 10 -10 9 -3 35 -3 35 -50 0 -50 0 3 24
2 24 -11 13 -11 14 -20 0 -20 0 6 -15z"/>
</g>
</svg>
