<?xml version="1.0" standalone="no"?>
<!DOCTYPE svg PUBLIC "-//W3C//DTD SVG 20010904//EN"
 "http://www.w3.org/TR/2001/REC-SVG-20010904/DTD/svg10.dtd">
<svg version="1.0" xmlns="http://www.w3.org/2000/svg"
 width="38.000000pt" height="42.000000pt" viewBox="0 0 38.000000 42.000000"
 preserveAspectRatio="xMidYMid meet">
<metadata>
Created by potrace 1.16, written by Peter Selinger 2001-2019
</metadata>
<g transform="translate(0.000000,42.000000) scale(0.100000,-0.100000)"
fill="#000000" stroke="none">
<path d="M110 395 l0 -24 -19 -11 -20 -10 -35 0 -36 0 0 -54 0 -55 33 -3 32
-3 0 -20 0 -20 -26 3 -27 2 -7 -55 -6 -55 6 -10 6 -10 45 0 44 0 0 -35 0 -35
41 0 41 0 11 30 11 30 11 0 10 0 38 11 37 10 0 39 0 39 38 3 37 3 0 45 0 45
-40 5 -40 5 -5 40 -5 40 -47 -3 -48 -3 0 28 0 29 -12 12 -12 12 -28 0 -28 0 0
-25z"/>
</g>
</svg>
