<?xml version="1.0" standalone="no"?>
<!DOCTYPE svg PUBLIC "-//W3C//DTD SVG 20010904//EN"
 "http://www.w3.org/TR/2001/REC-SVG-20010904/DTD/svg10.dtd">
<svg version="1.0" xmlns="http://www.w3.org/2000/svg"
 width="34.000000pt" height="41.000000pt" viewBox="0 0 34.000000 41.000000"
 preserveAspectRatio="xMidYMid meet">
<metadata>
Created by potrace 1.16, written by Peter Selinger 2001-2019
</metadata>
<g transform="translate(0.000000,41.000000) scale(0.100000,-0.100000)"
fill="#000000" stroke="none">
<path d="M105 402 l-10 -7 0 -25 0 -25 -47 -3 -48 -3 0 -47 0 -47 42 0 43 0 0
-25 0 -25 -37 -3 -37 -3 -7 -34 -6 -33 4 -19 3 -18 25 -3 25 -3 23 -5 23 -5
-6 -20 -7 -20 12 -14 12 -15 16 0 15 0 18 21 19 22 -7 25 -6 25 45 -6 46 -6
10 27 9 27 9 30 9 30 15 0 15 0 8 13 8 12 -7 11 -7 11 -33 -5 -34 -6 0 54 0
53 -47 -1 -48 -2 -1 28 -1 27 -4 4 -4 4 -20 6 -20 6 -10 -8z"/>
</g>
</svg>
