<?xml version="1.0" standalone="no"?>
<!DOCTYPE svg PUBLIC "-//W3C//DTD SVG 20010904//EN"
 "http://www.w3.org/TR/2001/REC-SVG-20010904/DTD/svg10.dtd">
<svg version="1.0" xmlns="http://www.w3.org/2000/svg"
 width="36.000000pt" height="43.000000pt" viewBox="0 0 36.000000 43.000000"
 preserveAspectRatio="xMidYMid meet">
<metadata>
Created by potrace 1.16, written by Peter Selinger 2001-2019
</metadata>
<g transform="translate(0.000000,43.000000) scale(0.100000,-0.100000)"
fill="#000000" stroke="none">
<path d="M102 422 l-12 -8 2 -25 3 -24 -47 -3 -48 -3 0 -59 0 -59 42 2 43 2 0
-15 0 -15 -37 -3 -37 -3 -6 -33 -7 -33 4 -29 3 -29 40 -5 40 -5 3 -25 4 -25
10 -12 10 -13 26 0 25 0 19 22 19 23 -4 23 -4 23 42 -6 42 -7 11 29 10 28 6
28 6 27 20 0 20 0 6 24 6 25 -7 10 -6 11 -35 0 -34 0 0 51 0 50 -47 -3 -48 -3
2 20 3 20 -8 12 -8 13 -29 5 -30 6 -13 -9z"/>
</g>
</svg>
