<?xml version="1.0" standalone="no"?>
<!DOCTYPE svg PUBLIC "-//W3C//DTD SVG 20010904//EN"
 "http://www.w3.org/TR/2001/REC-SVG-20010904/DTD/svg10.dtd">
<svg version="1.0" xmlns="http://www.w3.org/2000/svg"
 width="44.000000pt" height="35.000000pt" viewBox="0 0 44.000000 35.000000"
 preserveAspectRatio="xMidYMid meet">
<metadata>
Created by potrace 1.16, written by Peter Selinger 2001-2019
</metadata>
<g transform="translate(0.000000,35.000000) scale(0.100000,-0.100000)"
fill="#000000" stroke="none">
<path d="M185 340 l-6 -9 7 -26 6 -25 -55 0 -56 0 -3 -42 -3 -43 -31 -3 -32
-3 -5 -18 -4 -18 9 -18 10 -17 34 7 34 6 0 -56 0 -55 34 0 34 0 12 14 11 15
-3 23 -3 23 20 3 20 3 20 -15 19 -14 -2 -36 -3 -36 28 0 28 0 23 6 23 7 -7 53
-6 54 33 0 34 1 18 14 19 13 -4 19 -3 18 -42 3 -42 3 -3 47 -3 47 -47 9 -48 8
0 24 0 24 -29 0 -30 0 -6 -10z"/>
</g>
</svg>
