<?xml version="1.0" standalone="no"?>
<!DOCTYPE svg PUBLIC "-//W3C//DTD SVG 20010904//EN"
 "http://www.w3.org/TR/2001/REC-SVG-20010904/DTD/svg10.dtd">
<svg version="1.0" xmlns="http://www.w3.org/2000/svg"
 width="43.000000pt" height="33.000000pt" viewBox="0 0 43.000000 33.000000"
 preserveAspectRatio="xMidYMid meet">
<metadata>
Created by potrace 1.16, written by Peter Selinger 2001-2019
</metadata>
<g transform="translate(0.000000,33.000000) scale(0.100000,-0.100000)"
fill="#000000" stroke="none">
<path d="M196 321 l-6 -9 5 -14 5 -13 -8 -12 -7 -12 -50 -3 -50 -3 -3 -47 -3
-47 -13 5 -13 5 -27 -11 -27 -10 3 -28 3 -27 33 -3 32 -3 2 -32 1 -32 0 -12
-1 -13 64 0 64 0 0 30 0 30 20 0 21 0 5 -15 6 -15 39 -10 39 -11 11 6 10 7 -3
36 -3 37 26 -3 25 -3 18 20 18 20 -4 18 -3 18 -30 0 -30 0 -5 45 -5 45 -30 -4
-30 -4 -25 -1 -25 -1 -1 30 -1 30 -2 13 -1 12 -19 0 -20 0 -5 -9z"/>
</g>
</svg>
