<?xml version="1.0" standalone="no"?>
<!DOCTYPE svg PUBLIC "-//W3C//DTD SVG 20010904//EN"
 "http://www.w3.org/TR/2001/REC-SVG-20010904/DTD/svg10.dtd">
<svg version="1.0" xmlns="http://www.w3.org/2000/svg"
 width="45.000000pt" height="35.000000pt" viewBox="0 0 45.000000 35.000000"
 preserveAspectRatio="xMidYMid meet">
<metadata>
Created by potrace 1.16, written by Peter Selinger 2001-2019
</metadata>
<g transform="translate(0.000000,35.000000) scale(0.100000,-0.100000)"
fill="#000000" stroke="none">
<path d="M197 343 l-7 -6 0 -28 0 -28 -52 -3 -53 -3 -3 -41 -3 -41 -37 -9 -37
-9 0 -40 0 -40 33 -3 32 -3 0 -45 0 -44 75 0 75 0 0 30 0 30 8 0 8 0 16 -19
16 -19 41 -7 40 -7 12 7 11 7 -4 34 -4 34 26 0 27 0 17 19 17 19 -3 29 -3 28
-32 3 -32 3 -3 42 -3 42 -20 -1 -20 -1 -35 -4 -35 -4 2 20 3 20 -5 23 -5 22
-29 0 -28 0 -6 -7z"/>
</g>
</svg>
