<?xml version="1.0" standalone="no"?>
<!DOCTYPE svg PUBLIC "-//W3C//DTD SVG 20010904//EN"
 "http://www.w3.org/TR/2001/REC-SVG-20010904/DTD/svg10.dtd">
<svg version="1.0" xmlns="http://www.w3.org/2000/svg"
 width="43.000000pt" height="34.000000pt" viewBox="0 0 43.000000 34.000000"
 preserveAspectRatio="xMidYMid meet">
<metadata>
Created by potrace 1.16, written by Peter Selinger 2001-2019
</metadata>
<g transform="translate(0.000000,34.000000) scale(0.100000,-0.100000)"
fill="#000000" stroke="none">
<path d="M187 334 l-7 -7 0 -29 0 -28 -55 0 -55 0 0 -39 0 -39 -14 -11 -13
-11 -15 5 -15 6 -7 -23 -6 -23 17 -13 17 -12 24 0 25 0 -5 -50 -5 -50 46 0 46
0 14 9 13 9 -7 21 -6 21 35 0 36 0 0 -25 0 -25 24 0 25 0 25 -10 25 -9 3 47 3
47 17 -3 18 -3 20 11 21 11 -3 42 -3 42 -29 -3 -29 -4 -8 14 -9 13 0 30 0 30
-57 0 -58 0 0 30 0 30 -20 3 -21 3 -7 -7z"/>
</g>
</svg>
