<?xml version="1.0" standalone="no"?>
<!DOCTYPE svg PUBLIC "-//W3C//DTD SVG 20010904//EN"
 "http://www.w3.org/TR/2001/REC-SVG-20010904/DTD/svg10.dtd">
<svg version="1.0" xmlns="http://www.w3.org/2000/svg"
 width="31.000000pt" height="36.000000pt" viewBox="0 0 31.000000 36.000000"
 preserveAspectRatio="xMidYMid meet">
<metadata>
Created by potrace 1.16, written by Peter Selinger 2001-2019
</metadata>
<g transform="translate(0.000000,36.000000) scale(0.100000,-0.100000)"
fill="#000000" stroke="none">
<path d="M6 343 l-6 -18 8 -30 8 -30 27 -13 27 -13 0 -20 0 -19 -19 0 -19 0
-5 -14 -5 -13 -7 -47 -7 -46 33 0 34 0 12 -8 11 -7 4 -30 3 -30 40 0 40 0 3
47 3 46 32 -9 32 -9 16 0 17 0 11 44 11 45 0 15 0 16 -44 0 -44 0 -11 13 -11
13 12 12 12 12 33 0 33 0 0 55 0 55 -17 0 -18 0 -37 -6 -38 -7 0 -28 0 -29
-35 0 -35 0 0 35 0 35 -49 0 -50 0 -5 -17z"/>
</g>
</svg>
