<?xml version="1.0" standalone="no"?>
<!DOCTYPE svg PUBLIC "-//W3C//DTD SVG 20010904//EN"
 "http://www.w3.org/TR/2001/REC-SVG-20010904/DTD/svg10.dtd">
<svg version="1.0" xmlns="http://www.w3.org/2000/svg"
 width="29.000000pt" height="34.000000pt" viewBox="0 0 29.000000 34.000000"
 preserveAspectRatio="xMidYMid meet">
<metadata>
Created by potrace 1.16, written by Peter Selinger 2001-2019
</metadata>
<g transform="translate(0.000000,34.000000) scale(0.100000,-0.100000)"
fill="#000000" stroke="none">
<path d="M9 328 l-1 -13 2 -20 2 -20 11 -13 10 -13 13 5 12 5 6 -15 6 -16 0
-24 0 -24 -19 0 -20 0 -5 -17 -5 -18 -6 -33 -7 -32 34 0 33 0 15 -10 15 -9 0
-28 0 -28 30 0 30 0 3 48 3 49 27 -7 27 -6 21 -5 21 -5 12 45 11 45 0 5 0 5
-46 3 -47 3 -11 17 -11 18 16 15 15 16 32 2 32 2 0 44 0 44 -31 -7 -31 -6 -14
0 -14 0 0 -30 0 -30 -45 0 -45 0 0 35 0 35 -40 0 -40 0 -1 -12z"/>
</g>
</svg>
