<?xml version="1.0" standalone="no"?>
<!DOCTYPE svg PUBLIC "-//W3C//DTD SVG 20010904//EN"
 "http://www.w3.org/TR/2001/REC-SVG-20010904/DTD/svg10.dtd">
<svg version="1.0" xmlns="http://www.w3.org/2000/svg"
 width="37.000000pt" height="29.000000pt" viewBox="0 0 37.000000 29.000000"
 preserveAspectRatio="xMidYMid meet">
<metadata>
Created by potrace 1.16, written by Peter Selinger 2001-2019
</metadata>
<g transform="translate(0.000000,29.000000) scale(0.100000,-0.100000)"
fill="#000000" stroke="none">
<path d="M85 236 l7 -54 -25 5 -25 5 -21 -12 -22 -11 3 -22 3 -22 30 -3 30 -4
7 -11 8 -12 0 -35 0 -36 12 -12 12 -12 48 0 48 0 0 34 0 34 13 4 12 5 13 -4
12 -5 0 -19 0 -19 28 -6 27 -5 23 -10 23 -9 11 0 10 0 -6 28 -7 27 -7 35 -7
35 -30 5 -30 5 -3 18 -3 17 13 1 13 1 25 1 25 2 3 57 3 58 -48 -6 -48 -6 -13
-4 -13 -4 2 -17 1 -18 -1 -13 -1 -13 -27 3 -28 3 2 38 2 37 -55 0 -55 0 6 -54z"/>
</g>
</svg>
