<?xml version="1.0" standalone="no"?>
<!DOCTYPE svg PUBLIC "-//W3C//DTD SVG 20010904//EN"
 "http://www.w3.org/TR/2001/REC-SVG-20010904/DTD/svg10.dtd">
<svg version="1.0" xmlns="http://www.w3.org/2000/svg"
 width="35.000000pt" height="27.000000pt" viewBox="0 0 35.000000 27.000000"
 preserveAspectRatio="xMidYMid meet">
<metadata>
Created by potrace 1.16, written by Peter Selinger 2001-2019
</metadata>
<g transform="translate(0.000000,27.000000) scale(0.100000,-0.100000)"
fill="#000000" stroke="none">
<path d="M87 214 l6 -56 -29 6 -29 7 -19 -14 -19 -14 8 -12 7 -13 25 5 24 4 9
-18 10 -18 0 -33 0 -34 12 -12 12 -12 39 0 38 0 -1 23 -2 22 1 12 1 12 19 6
18 5 17 -6 16 -6 0 -19 0 -19 28 -6 27 -5 24 -10 23 -10 -7 18 -8 18 -6 35 -6
35 -30 5 -30 5 -3 28 -3 27 13 2 13 1 25 1 25 1 3 46 3 45 -48 -6 -48 -6 3
-13 3 -13 -6 -18 -6 -18 -14 -6 -15 -5 -26 9 -26 10 4 35 4 35 -42 0 -43 0 6
-56z"/>
</g>
</svg>
