<?xml version="1.0" standalone="no"?>
<!DOCTYPE svg PUBLIC "-//W3C//DTD SVG 20010904//EN"
 "http://www.w3.org/TR/2001/REC-SVG-20010904/DTD/svg10.dtd">
<svg version="1.0" xmlns="http://www.w3.org/2000/svg"
 width="28.000000pt" height="27.000000pt" viewBox="0 0 28.000000 27.000000"
 preserveAspectRatio="xMidYMid meet">
<metadata>
Created by potrace 1.16, written by Peter Selinger 2001-2019
</metadata>
<g transform="translate(0.000000,27.000000) scale(0.100000,-0.100000)"
fill="#000000" stroke="none">
<path d="M0 230 l0 -40 33 0 33 0 12 -12 12 -12 0 -21 0 -21 -12 -12 -12 -12
-33 0 -33 0 0 -34 0 -34 6 -16 6 -16 53 0 54 0 -6 35 -6 35 27 0 26 0 -3 -22
-2 -22 48 -9 48 -9 5 5 6 5 7 34 8 33 -4 11 -4 12 -20 -5 -19 -5 -15 12 -15
12 0 34 0 33 28 3 27 3 3 39 3 39 -23 -7 -23 -6 -28 0 -27 0 6 -25 6 -24 -26
-7 -26 -6 -15 6 -15 5 0 31 0 30 -45 0 -45 0 0 -40z"/>
</g>
</svg>
