<?xml version="1.0" standalone="no"?>
<!DOCTYPE svg PUBLIC "-//W3C//DTD SVG 20010904//EN"
 "http://www.w3.org/TR/2001/REC-SVG-20010904/DTD/svg10.dtd">
<svg version="1.0" xmlns="http://www.w3.org/2000/svg"
 width="30.000000pt" height="29.000000pt" viewBox="0 0 30.000000 29.000000"
 preserveAspectRatio="xMidYMid meet">
<metadata>
Created by potrace 1.16, written by Peter Selinger 2001-2019
</metadata>
<g transform="translate(0.000000,29.000000) scale(0.100000,-0.100000)"
fill="#000000" stroke="none">
<path d="M0 240 l0 -50 34 0 34 0 13 -16 13 -16 -11 -16 -10 -17 -37 -3 -36
-3 0 -44 0 -43 6 -16 6 -16 65 0 65 0 -6 35 -7 35 10 0 10 0 3 -22 3 -23 58
-9 57 -9 6 6 6 5 9 39 8 38 -5 18 -6 19 -21 -6 -21 -5 -13 11 -13 10 0 24 0
23 28 3 27 3 3 49 3 49 -38 -6 -38 -7 -24 0 -23 0 4 -25 5 -25 -18 -5 -19 -6
-10 6 -10 6 0 30 0 29 -55 0 -55 0 0 -50z"/>
</g>
</svg>
