<?xml version="1.0" standalone="no"?>
<!DOCTYPE svg PUBLIC "-//W3C//DTD SVG 20010904//EN"
 "http://www.w3.org/TR/2001/REC-SVG-20010904/DTD/svg10.dtd">
<svg version="1.0" xmlns="http://www.w3.org/2000/svg"
 width="43.000000pt" height="35.000000pt" viewBox="0 0 43.000000 35.000000"
 preserveAspectRatio="xMidYMid meet">
<metadata>
Created by potrace 1.16, written by Peter Selinger 2001-2019
</metadata>
<g transform="translate(0.000000,35.000000) scale(0.100000,-0.100000)"
fill="#000000" stroke="none">
<path d="M80 315 l0 -35 -11 -18 -12 -19 -23 5 -24 4 -6 -16 -6 -16 6 -24 6
-25 28 -3 27 -3 3 -52 3 -52 49 6 49 6 3 -34 3 -34 40 0 40 0 3 33 3 32 45 0
44 0 0 55 0 55 13 1 12 1 25 1 25 2 0 30 0 30 -38 0 -37 0 0 48 0 48 -52 -3
-53 -3 -3 -33 -3 -33 -27 3 -27 3 -3 38 -3 37 -50 0 -49 0 0 -35z"/>
</g>
</svg>
