<?xml version="1.0" standalone="no"?>
<!DOCTYPE svg PUBLIC "-//W3C//DTD SVG 20010904//EN"
 "http://www.w3.org/TR/2001/REC-SVG-20010904/DTD/svg10.dtd">
<svg version="1.0" xmlns="http://www.w3.org/2000/svg"
 width="36.000000pt" height="37.000000pt" viewBox="0 0 36.000000 37.000000"
 preserveAspectRatio="xMidYMid meet">
<metadata>
Created by potrace 1.16, written by Peter Selinger 2001-2019
</metadata>
<g transform="translate(0.000000,37.000000) scale(0.100000,-0.100000)"
fill="#000000" stroke="none">
<path d="M78 323 l-3 -48 -27 3 -27 3 -11 -21 -11 -21 6 -19 6 -19 37 -3 37
-3 0 -50 0 -50 37 -3 37 -3 3 -42 3 -42 39 -3 39 -3 8 13 9 13 0 22 0 21 51 7
51 7 -5 17 -6 16 -14 40 -15 40 -17 3 -16 4 3 31 3 31 30 1 30 0 3 53 3 53
-48 -6 -48 -6 -12 -4 -11 -4 -4 -23 -3 -23 -22 -3 -22 -3 -3 33 -3 33 -52 3
-52 3 -3 -48z"/>
</g>
</svg>
