<?xml version="1.0" standalone="no"?>
<!DOCTYPE svg PUBLIC "-//W3C//DTD SVG 20010904//EN"
 "http://www.w3.org/TR/2001/REC-SVG-20010904/DTD/svg10.dtd">
<svg version="1.0" xmlns="http://www.w3.org/2000/svg"
 width="34.000000pt" height="35.000000pt" viewBox="0 0 34.000000 35.000000"
 preserveAspectRatio="xMidYMid meet">
<metadata>
Created by potrace 1.16, written by Peter Selinger 2001-2019
</metadata>
<g transform="translate(0.000000,35.000000) scale(0.100000,-0.100000)"
fill="#000000" stroke="none">
<path d="M78 303 l-3 -48 -28 0 -29 -1 -8 -15 -9 -15 9 -13 8 -14 31 6 31 6 5
-22 6 -22 -3 -35 -3 -35 37 -3 37 -3 3 -42 3 -42 29 -3 29 -4 8 14 9 13 0 22
0 21 50 7 50 7 -12 21 -11 21 -7 25 -6 26 -15 0 -14 0 0 45 0 45 30 0 30 0 3
42 3 42 -38 -5 -38 -6 -14 -4 -13 -4 5 -14 6 -15 -14 -11 -14 -11 -28 3 -28 3
0 30 0 30 -42 3 -42 3 -3 -48z"/>
</g>
</svg>
