<?xml version="1.0" standalone="no"?>
<!DOCTYPE svg PUBLIC "-//W3C//DTD SVG 20010904//EN"
 "http://www.w3.org/TR/2001/REC-SVG-20010904/DTD/svg10.dtd">
<svg version="1.0" xmlns="http://www.w3.org/2000/svg"
 width="29.000000pt" height="29.000000pt" viewBox="0 0 29.000000 29.000000"
 preserveAspectRatio="xMidYMid meet">
<metadata>
Created by potrace 1.16, written by Peter Selinger 2001-2019
</metadata>
<g transform="translate(0.000000,29.000000) scale(0.100000,-0.100000)"
fill="#000000" stroke="none">
<path d="M12 238 l3 -53 36 3 37 3 6 -18 7 -17 -18 -14 -18 -13 -26 6 -27 6
-7 -20 -6 -19 6 -26 5 -26 5 -25 6 -26 57 3 57 3 3 38 3 38 17 -3 16 -3 1 -30
0 -30 58 -3 57 -3 -1 23 0 23 -7 40 -7 40 -20 0 -20 1 -13 7 -12 8 0 13 0 13
25 -5 25 -4 15 12 15 12 0 44 0 44 -6 0 -5 0 -45 -11 -44 -11 0 -13 0 -13 -16
-6 -16 -6 -14 0 -14 0 0 25 0 24 -19 11 -20 10 -41 0 -41 0 3 -52z"/>
</g>
</svg>
