<?xml version="1.0" standalone="no"?>
<!DOCTYPE svg PUBLIC "-//W3C//DTD SVG 20010904//EN"
 "http://www.w3.org/TR/2001/REC-SVG-20010904/DTD/svg10.dtd">
<svg version="1.0" xmlns="http://www.w3.org/2000/svg"
 width="35.000000pt" height="28.000000pt" viewBox="0 0 35.000000 28.000000"
 preserveAspectRatio="xMidYMid meet">
<metadata>
Created by potrace 1.16, written by Peter Selinger 2001-2019
</metadata>
<g transform="translate(0.000000,28.000000) scale(0.100000,-0.100000)"
fill="#000000" stroke="none">
<path d="M133 272 l-43 -3 0 -31 0 -31 -16 -18 -16 -18 -30 6 -30 6 4 -29 3
-29 40 -5 40 -5 5 -52 5 -52 8 -7 7 -7 40 12 40 12 0 25 0 25 28 -3 27 -3 -3
-32 -3 -33 50 0 49 0 4 10 3 10 -3 44 -4 44 -24 0 -24 0 -15 12 -15 12 0 14 0
13 11 7 12 7 31 1 31 1 3 48 3 47 -14 0 -14 0 -31 -6 -31 -6 -3 -21 -3 -20
-17 -11 -18 -11 -17 11 -18 11 -5 29 -5 29 -42 -3z"/>
</g>
</svg>
