<?xml version="1.0" standalone="no"?>
<!DOCTYPE svg PUBLIC "-//W3C//DTD SVG 20010904//EN"
 "http://www.w3.org/TR/2001/REC-SVG-20010904/DTD/svg10.dtd">
<svg version="1.0" xmlns="http://www.w3.org/2000/svg"
 width="37.000000pt" height="30.000000pt" viewBox="0 0 37.000000 30.000000"
 preserveAspectRatio="xMidYMid meet">
<metadata>
Created by potrace 1.16, written by Peter Selinger 2001-2019
</metadata>
<g transform="translate(0.000000,30.000000) scale(0.100000,-0.100000)"
fill="#000000" stroke="none">
<path d="M133 293 l-43 -4 0 -33 0 -32 -12 -12 -12 -12 -34 0 -33 0 3 -37 3
-38 40 -5 40 -5 3 -35 2 -35 5 -22 5 -23 24 0 23 0 32 11 31 11 0 24 0 24 15
0 15 0 0 -35 0 -35 59 0 59 0 5 13 5 12 -6 53 -5 52 -27 0 -28 0 -12 15 -12
15 13 4 14 5 30 3 30 3 3 58 3 57 -24 0 -24 0 -32 -6 -31 -6 0 -18 0 -18 -15
-12 -15 -12 -15 12 -15 12 0 29 0 29 -12 -2 -13 -1 -42 -4z"/>
</g>
</svg>
