<?xml version="1.0" standalone="no"?>
<!DOCTYPE svg PUBLIC "-//W3C//DTD SVG 20010904//EN"
 "http://www.w3.org/TR/2001/REC-SVG-20010904/DTD/svg10.dtd">
<svg version="1.0" xmlns="http://www.w3.org/2000/svg"
 width="31.000000pt" height="34.000000pt" viewBox="0 0 31.000000 34.000000"
 preserveAspectRatio="xMidYMid meet">
<metadata>
Created by potrace 1.16, written by Peter Selinger 2001-2019
</metadata>
<g transform="translate(0.000000,34.000000) scale(0.100000,-0.100000)"
fill="#000000" stroke="none">
<path d="M195 329 l7 -10 -6 -25 -7 -25 -42 3 -42 3 0 28 1 27 -32 0 -32 0
-16 -6 -16 -6 0 -32 0 -31 8 -12 7 -11 30 -4 30 -3 0 -25 0 -25 -42 -3 -43 -3
0 -29 0 -29 9 -24 9 -24 29 4 28 4 25 -9 25 -9 0 -24 0 -24 35 0 35 0 -2 21
-2 22 22 6 22 6 26 0 27 0 6 38 7 37 5 18 5 17 -38 0 -38 1 -17 13 -18 13 0
15 0 16 15 12 15 12 30 -6 30 -5 0 43 0 44 -22 6 -23 6 -28 0 -28 0 6 -11z"/>
</g>
</svg>
