<?xml version="1.0" standalone="no"?>
<!DOCTYPE svg PUBLIC "-//W3C//DTD SVG 20010904//EN"
 "http://www.w3.org/TR/2001/REC-SVG-20010904/DTD/svg10.dtd">
<svg version="1.0" xmlns="http://www.w3.org/2000/svg"
 width="27.000000pt" height="27.000000pt" viewBox="0 0 27.000000 27.000000"
 preserveAspectRatio="xMidYMid meet">
<metadata>
Created by potrace 1.16, written by Peter Selinger 2001-2019
</metadata>
<g transform="translate(0.000000,27.000000) scale(0.100000,-0.100000)"
fill="#000000" stroke="none">
<path d="M0 137 l0 -133 34 -2 33 -2 28 10 27 10 -7 30 -7 30 17 6 17 7 7 -12
8 -12 -5 -24 -4 -24 35 -6 35 -7 18 4 19 3 3 18 4 19 -6 23 -6 24 -28 3 -27 3
-3 29 -4 29 14 8 13 8 21 -5 21 -5 7 23 6 23 0 28 0 27 -24 0 -23 0 -30 -6
-30 -6 4 -22 5 -22 -16 -13 -15 -13 -21 7 -22 7 6 21 5 21 -11 13 -10 13 -44
0 -44 0 0 -133z"/>
</g>
</svg>
