<?xml version="1.0" standalone="no"?>
<!DOCTYPE svg PUBLIC "-//W3C//DTD SVG 20010904//EN"
 "http://www.w3.org/TR/2001/REC-SVG-20010904/DTD/svg10.dtd">
<svg version="1.0" xmlns="http://www.w3.org/2000/svg"
 width="38.000000pt" height="37.000000pt" viewBox="0 0 38.000000 37.000000"
 preserveAspectRatio="xMidYMid meet">
<metadata>
Created by potrace 1.16, written by Peter Selinger 2001-2019
</metadata>
<g transform="translate(0.000000,37.000000) scale(0.100000,-0.100000)"
fill="#000000" stroke="none">
<path d="M192 333 l3 -38 -64 -3 -63 -3 6 -38 6 -38 -38 -9 -37 -9 -3 -33 -3
-33 12 -15 11 -14 35 0 35 0 -6 -22 -6 -23 -6 -27 -6 -28 63 0 64 0 13 8 12 8
-2 24 -3 24 17 4 16 3 4 -22 3 -22 50 -13 50 -13 13 -1 13 0 -3 68 -3 67 -30
0 -30 1 -3 17 -3 17 23 0 24 0 12 12 12 12 0 42 0 42 -16 6 -16 6 -44 0 -44 0
0 40 0 40 -36 0 -36 0 4 -37z"/>
</g>
</svg>
