<?xml version="1.0" standalone="no"?>
<!DOCTYPE svg PUBLIC "-//W3C//DTD SVG 20010904//EN"
 "http://www.w3.org/TR/2001/REC-SVG-20010904/DTD/svg10.dtd">
<svg version="1.0" xmlns="http://www.w3.org/2000/svg"
 width="35.000000pt" height="34.000000pt" viewBox="0 0 35.000000 34.000000"
 preserveAspectRatio="xMidYMid meet">
<metadata>
Created by potrace 1.16, written by Peter Selinger 2001-2019
</metadata>
<g transform="translate(0.000000,34.000000) scale(0.100000,-0.100000)"
fill="#000000" stroke="none">
<path d="M103 332 l-32 -3 -3 -42 -3 -42 -33 -3 -33 -3 3 -27 3 -27 26 -3 26
-3 6 -44 7 -45 -6 -13 -5 -13 35 4 34 4 20 -11 19 -10 -5 -26 -5 -26 44 3 44
3 3 33 3 32 47 0 47 0 0 53 0 52 -39 0 -39 0 -10 17 -11 16 14 17 14 16 24 -6
25 -6 8 13 9 13 0 32 0 32 -8 4 -7 5 -52 -10 -53 -11 6 -22 5 -21 -14 -13 -15
-12 -25 6 -25 7 -6 23 -6 23 6 15 5 15 -8 4 -8 3 -32 -3z"/>
</g>
</svg>
