<?xml version="1.0" standalone="no"?>
<!DOCTYPE svg PUBLIC "-//W3C//DTD SVG 20010904//EN"
 "http://www.w3.org/TR/2001/REC-SVG-20010904/DTD/svg10.dtd">
<svg version="1.0" xmlns="http://www.w3.org/2000/svg"
 width="37.000000pt" height="36.000000pt" viewBox="0 0 37.000000 36.000000"
 preserveAspectRatio="xMidYMid meet">
<metadata>
Created by potrace 1.16, written by Peter Selinger 2001-2019
</metadata>
<g transform="translate(0.000000,36.000000) scale(0.100000,-0.100000)"
fill="#000000" stroke="none">
<path d="M103 353 l-32 -4 -3 -42 -3 -42 -33 -3 -33 -3 3 -37 3 -37 27 -3 28
-3 2 -32 1 -32 -2 -28 -3 -29 31 7 31 6 20 -6 20 -6 0 -30 0 -30 53 3 52 3 3
33 3 32 49 0 48 0 -1 62 -2 63 -36 1 -35 1 -13 7 -12 8 11 12 10 13 26 -5 26
-5 9 14 9 14 0 42 0 42 -10 6 -10 6 -60 -12 -61 -12 3 -21 2 -21 -7 -12 -7
-11 -20 5 -20 5 -1 17 -1 16 -1 25 -2 25 -15 1 -15 1 -32 -4z"/>
</g>
</svg>
