<?xml version="1.0" standalone="no"?>
<!DOCTYPE svg PUBLIC "-//W3C//DTD SVG 20010904//EN"
 "http://www.w3.org/TR/2001/REC-SVG-20010904/DTD/svg10.dtd">
<svg version="1.0" xmlns="http://www.w3.org/2000/svg"
 width="35.000000pt" height="36.000000pt" viewBox="0 0 35.000000 36.000000"
 preserveAspectRatio="xMidYMid meet">
<metadata>
Created by potrace 1.16, written by Peter Selinger 2001-2019
</metadata>
<g transform="translate(0.000000,36.000000) scale(0.100000,-0.100000)"
fill="#000000" stroke="none">
<path d="M27 353 l-27 -4 0 -39 0 -39 12 -7 12 -8 31 0 30 -1 0 -35 0 -35 -37
-3 -36 -3 -4 -45 -3 -44 42 0 43 0 0 -33 0 -33 12 -12 12 -12 23 0 22 0 11 21
12 21 -6 13 -5 13 22 6 22 6 26 0 27 0 6 16 6 16 0 23 0 23 6 16 6 16 9 -6 9
-5 20 11 21 11 -3 32 -3 32 -35 5 -35 5 -3 33 -3 32 -12 0 -12 0 -38 -11 -38
-10 7 -11 7 -10 -14 -9 -14 -9 -22 0 -22 0 -11 19 -10 20 0 20 0 21 -17 -1
-18 -2 -28 -4z"/>
</g>
</svg>
