<?xml version="1.0" standalone="no"?>
<!DOCTYPE svg PUBLIC "-//W3C//DTD SVG 20010904//EN"
 "http://www.w3.org/TR/2001/REC-SVG-20010904/DTD/svg10.dtd">
<svg version="1.0" xmlns="http://www.w3.org/2000/svg"
 width="29.000000pt" height="36.000000pt" viewBox="0 0 29.000000 36.000000"
 preserveAspectRatio="xMidYMid meet">
<metadata>
Created by potrace 1.16, written by Peter Selinger 2001-2019
</metadata>
<g transform="translate(0.000000,36.000000) scale(0.100000,-0.100000)"
fill="#000000" stroke="none">
<path d="M10 348 l0 -13 -6 -37 -6 -37 33 -3 34 -3 3 -32 3 -33 -19 0 -20 0
-11 -44 -11 -45 0 -10 0 -11 33 0 32 0 12 -8 11 -7 4 -30 3 -30 44 0 44 0 8
15 8 15 5 18 5 17 31 0 30 0 0 19 0 18 -7 48 -6 47 -29 10 -29 10 5 15 6 15 0
3 0 3 20 -5 20 -5 15 12 15 12 0 45 0 44 -47 -7 -48 -7 -7 -4 -8 -4 0 -24 0
-24 -19 -6 -18 -5 -16 6 -17 6 3 32 2 31 -52 3 -53 3 0 -13z"/>
</g>
</svg>
