<?xml version="1.0" standalone="no"?>
<!DOCTYPE svg PUBLIC "-//W3C//DTD SVG 20010904//EN"
 "http://www.w3.org/TR/2001/REC-SVG-20010904/DTD/svg10.dtd">
<svg version="1.0" xmlns="http://www.w3.org/2000/svg"
 width="35.000000pt" height="35.000000pt" viewBox="0 0 35.000000 35.000000"
 preserveAspectRatio="xMidYMid meet">
<metadata>
Created by potrace 1.16, written by Peter Selinger 2001-2019
</metadata>
<g transform="translate(0.000000,35.000000) scale(0.100000,-0.100000)"
fill="#000000" stroke="none">
<path d="M10 306 l0 -45 42 -3 43 -3 3 -18 4 -19 -19 -13 -18 -14 -32 -1 -33
0 0 -19 0 -18 6 -31 6 -31 42 -3 41 -3 1 -30 0 -31 8 -12 7 -12 28 0 29 0 12
14 11 15 -3 23 -3 23 40 5 40 5 -3 40 -2 40 5 22 5 22 28 -5 28 -6 13 16 13
16 -5 14 -6 14 -20 -5 -21 -5 -15 12 -15 12 0 39 0 39 -27 0 -28 0 -13 -8 -13
-9 6 -16 7 -15 -21 -21 -21 -21 -14 0 -15 0 -16 17 -17 16 4 29 5 28 -49 0
-48 0 0 -44z"/>
</g>
</svg>
