<?xml version="1.0" standalone="no"?>
<!DOCTYPE svg PUBLIC "-//W3C//DTD SVG 20010904//EN"
 "http://www.w3.org/TR/2001/REC-SVG-20010904/DTD/svg10.dtd">
<svg version="1.0" xmlns="http://www.w3.org/2000/svg"
 width="36.000000pt" height="42.000000pt" viewBox="0 0 36.000000 42.000000"
 preserveAspectRatio="xMidYMid meet">
<metadata>
Created by potrace 1.16, written by Peter Selinger 2001-2019
</metadata>
<g transform="translate(0.000000,42.000000) scale(0.100000,-0.100000)"
fill="#000000" stroke="none">
<path d="M110 390 l0 -30 -25 -6 -26 -6 -30 6 -30 6 3 -58 3 -57 40 0 40 0 0
-25 0 -25 -22 0 -23 -1 -9 -9 -10 -10 -3 -40 -3 -40 38 -3 37 -3 0 -28 0 -28
18 -16 19 -17 14 0 15 0 18 13 18 13 2 35 2 34 54 -4 55 -3 -6 6 -7 7 13 42
12 42 22 3 21 3 0 35 0 34 -34 0 -34 0 -6 16 -6 16 0 33 0 34 -41 3 -42 3 -11
20 -11 20 -10 7 -10 8 -22 0 -23 0 0 -30z"/>
</g>
</svg>
