<?xml version="1.0" standalone="no"?>
<!DOCTYPE svg PUBLIC "-//W3C//DTD SVG 20010904//EN"
 "http://www.w3.org/TR/2001/REC-SVG-20010904/DTD/svg10.dtd">
<svg version="1.0" xmlns="http://www.w3.org/2000/svg"
 width="38.000000pt" height="44.000000pt" viewBox="0 0 38.000000 44.000000"
 preserveAspectRatio="xMidYMid meet">
<metadata>
Created by potrace 1.16, written by Peter Selinger 2001-2019
</metadata>
<g transform="translate(0.000000,44.000000) scale(0.100000,-0.100000)"
fill="#000000" stroke="none">
<path d="M110 411 l0 -30 -20 -6 -19 -6 -36 7 -36 6 3 -68 3 -69 40 -1 40 0 0
-15 0 -14 -21 3 -21 3 -11 -14 -12 -14 -2 -49 -3 -49 38 -3 37 -3 0 -28 0 -28
18 -16 19 -17 22 0 22 0 20 10 19 11 6 37 6 37 47 -3 47 -4 10 49 9 48 23 3
22 3 0 45 0 44 -34 0 -34 0 -6 16 -6 16 0 33 0 34 -41 3 -42 3 -11 20 -11 20
-10 7 -10 8 -32 0 -33 0 0 -29z"/>
</g>
</svg>
