<?xml version="1.0" standalone="no"?>
<!DOCTYPE svg PUBLIC "-//W3C//DTD SVG 20010904//EN"
 "http://www.w3.org/TR/2001/REC-SVG-20010904/DTD/svg10.dtd">
<svg version="1.0" xmlns="http://www.w3.org/2000/svg"
 width="36.000000pt" height="30.000000pt" viewBox="0 0 36.000000 30.000000"
 preserveAspectRatio="xMidYMid meet">
<metadata>
Created by potrace 1.16, written by Peter Selinger 2001-2019
</metadata>
<g transform="translate(0.000000,30.000000) scale(0.100000,-0.100000)"
fill="#000000" stroke="none">
<path d="M244 263 l1 -38 -23 -3 -23 -4 -15 13 -14 12 5 18 6 19 -45 0 -45 0
-3 -47 -3 -48 -40 -5 -40 -5 0 -25 0 -25 26 -3 27 -3 11 -45 11 -45 26 -9 25
-10 24 0 24 0 3 32 3 33 19 4 20 3 11 -16 12 -16 -5 -25 -4 -25 29 0 30 0 30
10 30 11 -4 27 -4 27 -5 22 -4 22 -23 3 -22 3 0 25 0 25 33 -3 32 -3 0 59 0
59 -46 7 -47 6 -12 0 -12 0 1 -37z"/>
</g>
</svg>
