<?xml version="1.0" standalone="no"?>
<!DOCTYPE svg PUBLIC "-//W3C//DTD SVG 20010904//EN"
 "http://www.w3.org/TR/2001/REC-SVG-20010904/DTD/svg10.dtd">
<svg version="1.0" xmlns="http://www.w3.org/2000/svg"
 width="27.000000pt" height="35.000000pt" viewBox="0 0 27.000000 35.000000"
 preserveAspectRatio="xMidYMid meet">
<metadata>
Created by potrace 1.16, written by Peter Selinger 2001-2019
</metadata>
<g transform="translate(0.000000,35.000000) scale(0.100000,-0.100000)"
fill="#000000" stroke="none">
<path d="M255 340 l-6 -10 -29 0 -28 0 -15 -6 -15 -5 5 -18 4 -17 -15 -13 -15
-13 -23 4 -23 3 -5 35 -5 35 -43 3 -43 3 3 -128 3 -128 45 -5 45 -5 0 -35 0
-35 27 -3 27 -3 11 22 12 21 -5 25 -5 25 49 -4 49 -5 0 12 0 13 -6 31 -6 31
-30 0 -29 0 -8 23 -8 22 5 15 5 15 15 13 16 12 28 0 28 0 0 40 0 40 -4 0 -5 0
-6 -10z"/>
</g>
</svg>
