<?xml version="1.0" standalone="no"?>
<!DOCTYPE svg PUBLIC "-//W3C//DTD SVG 20010904//EN"
 "http://www.w3.org/TR/2001/REC-SVG-20010904/DTD/svg10.dtd">
<svg version="1.0" xmlns="http://www.w3.org/2000/svg"
 width="29.000000pt" height="37.000000pt" viewBox="0 0 29.000000 37.000000"
 preserveAspectRatio="xMidYMid meet">
<metadata>
Created by potrace 1.16, written by Peter Selinger 2001-2019
</metadata>
<g transform="translate(0.000000,37.000000) scale(0.100000,-0.100000)"
fill="#000000" stroke="none">
<path d="M255 360 l-6 -10 -32 0 -32 0 -14 -9 -14 -9 6 -15 6 -16 -14 -11 -15
-12 -14 5 -15 6 -3 33 -3 33 -53 3 -53 3 3 -138 3 -138 45 -5 44 -5 1 -35 0
-35 35 -3 34 -4 13 18 13 18 0 29 0 29 45 -6 45 -7 0 24 0 25 -6 30 -6 31 -32
3 -31 3 -3 24 -4 25 18 13 18 13 28 0 28 0 0 50 0 50 -14 0 -15 0 -6 -10z"/>
</g>
</svg>
