<?xml version="1.0" standalone="no"?>
<!DOCTYPE svg PUBLIC "-//W3C//DTD SVG 20010904//EN"
 "http://www.w3.org/TR/2001/REC-SVG-20010904/DTD/svg10.dtd">
<svg version="1.0" xmlns="http://www.w3.org/2000/svg"
 width="39.000000pt" height="30.000000pt" viewBox="0 0 39.000000 30.000000"
 preserveAspectRatio="xMidYMid meet">
<metadata>
Created by potrace 1.16, written by Peter Selinger 2001-2019
</metadata>
<g transform="translate(0.000000,30.000000) scale(0.100000,-0.100000)"
fill="#000000" stroke="none">
<path d="M87 255 l-5 -46 -6 -7 -7 -6 -32 -1 -32 0 -3 -27 -3 -27 24 -6 23 -6
14 3 14 3 7 -53 7 -53 6 -6 6 -6 49 -5 50 -4 3 33 3 34 22 3 22 3 3 -38 3 -38
58 1 58 1 4 5 4 4 7 68 7 67 -34 -6 -34 -6 -19 14 -19 14 8 12 7 13 34 -7 34
-6 0 61 0 61 -37 -6 -38 -7 -18 -5 -19 -5 5 -18 5 -18 -23 -6 -23 -6 -16 6
-16 6 0 29 0 29 -49 0 -48 0 -6 -45z"/>
</g>
</svg>
