<?xml version="1.0" standalone="no"?>
<!DOCTYPE svg PUBLIC "-//W3C//DTD SVG 20010904//EN"
 "http://www.w3.org/TR/2001/REC-SVG-20010904/DTD/svg10.dtd">
<svg version="1.0" xmlns="http://www.w3.org/2000/svg"
 width="37.000000pt" height="28.000000pt" viewBox="0 0 37.000000 28.000000"
 preserveAspectRatio="xMidYMid meet">
<metadata>
Created by potrace 1.16, written by Peter Selinger 2001-2019
</metadata>
<g transform="translate(0.000000,28.000000) scale(0.100000,-0.100000)"
fill="#000000" stroke="none">
<path d="M87 234 l-5 -46 -13 -9 -14 -9 -23 4 -24 4 -5 -15 -5 -14 6 -7 7 -6
32 -1 32 0 6 -53 7 -53 5 -5 5 -6 41 -5 41 -6 0 31 0 31 19 11 20 10 15 -6 16
-6 1 -12 1 -11 -1 -22 -2 -21 11 -7 11 -7 44 6 44 7 0 17 0 17 6 41 7 41 -31
-5 -31 -4 -25 16 -25 17 11 20 11 21 34 -4 34 -4 0 47 0 47 -17 -3 -18 -4 -27
-5 -26 -6 5 -19 5 -19 -31 -7 -31 -6 -20 6 -20 6 0 30 0 29 -39 0 -38 0 -6
-46z"/>
</g>
</svg>
