<?xml version="1.0" standalone="no"?>
<!DOCTYPE svg PUBLIC "-//W3C//DTD SVG 20010904//EN"
 "http://www.w3.org/TR/2001/REC-SVG-20010904/DTD/svg10.dtd">
<svg version="1.0" xmlns="http://www.w3.org/2000/svg"
 width="45.000000pt" height="35.000000pt" viewBox="0 0 45.000000 35.000000"
 preserveAspectRatio="xMidYMid meet">
<metadata>
Created by potrace 1.16, written by Peter Selinger 2001-2019
</metadata>
<g transform="translate(0.000000,35.000000) scale(0.100000,-0.100000)"
fill="#000000" stroke="none">
<path d="M210 335 l-12 -15 6 -31 6 -30 -58 2 -57 3 -3 -47 -3 -48 -32 6 -32
6 -14 -22 -14 -23 24 -19 23 -18 22 5 23 6 3 -52 3 -53 39 -3 39 -3 24 6 24 6
-6 20 -7 20 13 15 12 15 11 -22 11 -22 45 -13 45 -14 13 5 13 5 -11 19 -10 20
0 20 0 21 28 -6 27 -5 23 21 22 21 0 14 0 14 -12 8 -13 8 -25 0 -25 0 -3 47
-3 47 -55 11 -54 11 -1 12 -1 12 -2 15 -1 15 -16 3 -16 3 -13 -16z"/>
</g>
</svg>
