<?xml version="1.0" standalone="no"?>
<!DOCTYPE svg PUBLIC "-//W3C//DTD SVG 20010904//EN"
 "http://www.w3.org/TR/2001/REC-SVG-20010904/DTD/svg10.dtd">
<svg version="1.0" xmlns="http://www.w3.org/2000/svg"
 width="37.000000pt" height="35.000000pt" viewBox="0 0 37.000000 35.000000"
 preserveAspectRatio="xMidYMid meet">
<metadata>
Created by potrace 1.16, written by Peter Selinger 2001-2019
</metadata>
<g transform="translate(0.000000,35.000000) scale(0.100000,-0.100000)"
fill="#000000" stroke="none">
<path d="M131 341 l-14 -9 6 -31 6 -31 -25 -6 -25 -6 -30 6 -30 6 3 -48 3 -47
25 0 25 0 13 -8 12 -8 0 -14 0 -14 -22 -21 -23 -21 -29 5 -28 6 6 -33 7 -32 0
-18 0 -17 60 0 59 0 -2 33 -3 32 33 3 32 3 0 -24 0 -24 50 -10 50 -10 9 11 8
11 12 36 12 37 17 -2 17 -1 3 37 3 37 -21 11 -22 12 -19 -5 -19 -5 0 39 0 39
-27 -7 -28 -7 -30 -1 -30 0 3 31 3 31 -18 21 -18 22 -14 -9z"/>
</g>
</svg>
