<?xml version="1.0" standalone="no"?>
<!DOCTYPE svg PUBLIC "-//W3C//DTD SVG 20010904//EN"
 "http://www.w3.org/TR/2001/REC-SVG-20010904/DTD/svg10.dtd">
<svg version="1.0" xmlns="http://www.w3.org/2000/svg"
 width="30.000000pt" height="44.000000pt" viewBox="0 0 30.000000 44.000000"
 preserveAspectRatio="xMidYMid meet">
<metadata>
Created by potrace 1.16, written by Peter Selinger 2001-2019
</metadata>
<g transform="translate(0.000000,44.000000) scale(0.100000,-0.100000)"
fill="#000000" stroke="none">
<path d="M111 426 l-12 -14 3 -29 3 -28 -53 -3 -53 -3 3 -57 3 -57 33 -3 33
-3 -3 -17 -3 -17 -26 -3 -26 -3 -7 -46 -6 -46 0 -19 0 -19 34 6 34 7 22 -7 21
-7 -7 -20 -6 -20 13 -9 14 -9 31 0 31 0 12 23 12 23 -3 15 -3 14 39 -3 39 -3
8 13 9 13 -6 35 -6 35 -5 18 -4 17 -25 0 -25 0 3 18 3 17 33 3 33 3 -3 57 -3
57 -47 14 -48 15 0 22 0 22 -16 6 -16 6 -23 0 -23 0 -11 -14z"/>
</g>
</svg>
