<?xml version="1.0" standalone="no"?>
<!DOCTYPE svg PUBLIC "-//W3C//DTD SVG 20010904//EN"
 "http://www.w3.org/TR/2001/REC-SVG-20010904/DTD/svg10.dtd">
<svg version="1.0" xmlns="http://www.w3.org/2000/svg"
 width="28.000000pt" height="42.000000pt" viewBox="0 0 28.000000 42.000000"
 preserveAspectRatio="xMidYMid meet">
<metadata>
Created by potrace 1.16, written by Peter Selinger 2001-2019
</metadata>
<g transform="translate(0.000000,42.000000) scale(0.100000,-0.100000)"
fill="#000000" stroke="none">
<path d="M113 408 l-8 -13 0 -30 0 -30 -53 -3 -53 -3 3 -47 3 -47 33 -3 33 -3
-3 -27 -3 -27 -27 -3 -28 -3 0 -17 0 -17 -6 -36 -6 -36 31 5 31 4 26 -6 26 -7
-4 -24 -5 -24 14 -5 15 -6 18 0 18 0 7 17 8 18 1 20 1 20 43 -2 42 -2 -5 10
-6 9 9 0 10 0 -3 17 -4 18 -6 28 -6 28 -22 -3 -22 -3 0 30 0 30 33 3 33 3 -3
47 -3 47 -50 16 -50 16 2 19 2 19 -12 7 -12 8 -17 0 -17 0 -8 -12z"/>
</g>
</svg>
