<?xml version="1.0" standalone="no"?>
<!DOCTYPE svg PUBLIC "-//W3C//DTD SVG 20010904//EN"
 "http://www.w3.org/TR/2001/REC-SVG-20010904/DTD/svg10.dtd">
<svg version="1.0" xmlns="http://www.w3.org/2000/svg"
 width="37.000000pt" height="36.000000pt" viewBox="0 0 37.000000 36.000000"
 preserveAspectRatio="xMidYMid meet">
<metadata>
Created by potrace 1.16, written by Peter Selinger 2001-2019
</metadata>
<g transform="translate(0.000000,36.000000) scale(0.100000,-0.100000)"
fill="#000000" stroke="none">
<path d="M121 346 l-12 -14 7 -26 6 -25 -25 -6 -25 -7 -33 4 -34 3 -3 -34 -3
-34 6 -24 6 -25 22 6 22 5 14 -8 13 -9 -4 -13 -4 -13 -30 -1 -29 0 -3 -60 -3
-61 53 6 53 5 0 40 0 40 23 3 23 4 15 -13 16 -13 -7 -33 -6 -33 13 -1 13 0 42
-2 42 -2 6 40 6 40 5 15 4 16 28 -1 27 0 0 35 0 35 -37 3 -38 3 0 44 0 44 -45
6 -44 7 -10 12 -9 11 -4 20 -3 20 -21 3 -21 3 -12 -15z"/>
</g>
</svg>
