<?xml version="1.0" standalone="no"?>
<!DOCTYPE svg PUBLIC "-//W3C//DTD SVG 20010904//EN"
 "http://www.w3.org/TR/2001/REC-SVG-20010904/DTD/svg10.dtd">
<svg version="1.0" xmlns="http://www.w3.org/2000/svg"
 width="39.000000pt" height="38.000000pt" viewBox="0 0 39.000000 38.000000"
 preserveAspectRatio="xMidYMid meet">
<metadata>
Created by potrace 1.16, written by Peter Selinger 2001-2019
</metadata>
<g transform="translate(0.000000,38.000000) scale(0.100000,-0.100000)"
fill="#000000" stroke="none">
<path d="M120 365 l-12 -15 4 -25 5 -25 -21 -5 -21 -5 -35 3 -35 2 -3 -44 -3
-44 6 -24 5 -23 38 -1 37 -2 -35 -6 -35 -6 -3 -72 -3 -72 53 5 53 6 14 4 14 4
-6 36 -6 35 15 6 14 5 14 -12 15 -11 -6 -35 -6 -34 14 -1 14 -1 52 -3 52 -2 8
51 8 51 30 5 30 5 0 45 0 45 -37 3 -38 3 0 44 0 43 -46 8 -47 9 -8 15 -8 15
-5 18 -5 17 -29 0 -30 0 -12 -15z"/>
</g>
</svg>
