<?xml version="1.0" standalone="no"?>
<!DOCTYPE svg PUBLIC "-//W3C//DTD SVG 20010904//EN"
 "http://www.w3.org/TR/2001/REC-SVG-20010904/DTD/svg10.dtd">
<svg version="1.0" xmlns="http://www.w3.org/2000/svg"
 width="46.000000pt" height="39.000000pt" viewBox="0 0 46.000000 39.000000"
 preserveAspectRatio="xMidYMid meet">
<metadata>
Created by potrace 1.16, written by Peter Selinger 2001-2019
</metadata>
<g transform="translate(0.000000,39.000000) scale(0.100000,-0.100000)"
fill="#000000" stroke="none">
<path d="M215 374 l-16 -17 3 -26 3 -26 -57 2 -58 2 0 -45 0 -46 -30 7 -31 7
-14 -12 -15 -12 0 -33 0 -33 31 -11 32 -11 23 0 23 0 -10 -32 -9 -33 0 -17 0
-18 71 0 72 0 -6 30 -6 29 9 6 9 5 7 -12 8 -12 -2 -33 -3 -33 44 0 44 0 32 11
31 11 -1 22 -2 21 1 32 2 32 28 3 27 3 0 45 0 45 -30 0 -30 0 -5 40 -5 40 -47
3 -48 3 0 29 0 29 -19 11 -20 10 -10 0 -10 0 -16 -16z"/>
</g>
</svg>
