<?xml version="1.0" standalone="no"?>
<!DOCTYPE svg PUBLIC "-//W3C//DTD SVG 20010904//EN"
 "http://www.w3.org/TR/2001/REC-SVG-20010904/DTD/svg10.dtd">
<svg version="1.0" xmlns="http://www.w3.org/2000/svg"
 width="35.000000pt" height="33.000000pt" viewBox="0 0 35.000000 33.000000"
 preserveAspectRatio="xMidYMid meet">
<metadata>
Created by potrace 1.16, written by Peter Selinger 2001-2019
</metadata>
<g transform="translate(0.000000,33.000000) scale(0.100000,-0.100000)"
fill="#000000" stroke="none">
<path d="M6 314 l-6 -16 0 -29 0 -29 29 0 29 0 13 -16 13 -16 -11 -16 -10 -17
-29 0 -29 -1 -3 -28 -4 -28 6 -24 6 -24 45 0 45 0 0 -19 0 -19 6 -16 6 -16 22
0 22 0 12 12 12 12 0 33 0 33 9 0 8 0 41 -14 41 -15 -1 17 -1 17 12 43 12 42
25 0 25 0 -3 23 -3 22 -37 -3 -37 -3 -6 35 -7 34 7 21 6 21 -49 0 -50 0 5 -19
5 -19 -11 -21 -12 -21 -34 0 -35 0 0 40 0 40 -39 0 -39 0 -6 -16z"/>
</g>
</svg>
