<?xml version="1.0" standalone="no"?>
<!DOCTYPE svg PUBLIC "-//W3C//DTD SVG 20010904//EN"
 "http://www.w3.org/TR/2001/REC-SVG-20010904/DTD/svg10.dtd">
<svg version="1.0" xmlns="http://www.w3.org/2000/svg"
 width="37.000000pt" height="35.000000pt" viewBox="0 0 37.000000 35.000000"
 preserveAspectRatio="xMidYMid meet">
<metadata>
Created by potrace 1.16, written by Peter Selinger 2001-2019
</metadata>
<g transform="translate(0.000000,35.000000) scale(0.100000,-0.100000)"
fill="#000000" stroke="none">
<path d="M6 334 l-6 -16 0 -39 0 -39 29 0 29 0 11 -14 12 -14 -13 -9 -13 -8
-25 0 -25 0 -3 -39 -3 -39 5 -24 6 -23 45 0 45 0 0 -19 0 -19 6 -16 6 -16 32
0 32 0 12 12 12 12 0 33 0 32 41 -14 42 -15 8 0 9 0 0 23 0 22 11 38 10 37 25
0 25 0 -3 33 -3 32 -37 -1 -37 -1 -5 22 -6 23 6 31 7 31 -63 0 -62 0 5 -22 6
-21 -10 -19 -10 -18 -24 0 -25 0 0 40 0 40 -49 0 -49 0 -6 -16z"/>
</g>
</svg>
