<?xml version="1.0" standalone="no"?>
<!DOCTYPE svg PUBLIC "-//W3C//DTD SVG 20010904//EN"
 "http://www.w3.org/TR/2001/REC-SVG-20010904/DTD/svg10.dtd">
<svg version="1.0" xmlns="http://www.w3.org/2000/svg"
 width="30.000000pt" height="36.000000pt" viewBox="0 0 30.000000 36.000000"
 preserveAspectRatio="xMidYMid meet">
<metadata>
Created by potrace 1.16, written by Peter Selinger 2001-2019
</metadata>
<g transform="translate(0.000000,36.000000) scale(0.100000,-0.100000)"
fill="#000000" stroke="none">
<path d="M2 308 l3 -53 27 2 28 2 6 -24 6 -24 -7 -10 -6 -11 -19 0 -19 0 -4
-7 -4 -8 -7 -47 -7 -48 45 0 46 0 0 -28 0 -28 12 -12 12 -12 24 0 25 0 13 18
13 17 1 25 0 25 43 -3 43 -4 12 27 12 26 0 34 0 35 -33 0 -33 0 -12 12 -12 12
0 11 0 10 33 0 32 0 3 53 3 52 -13 0 -13 0 -45 -14 -45 -13 -3 -17 -3 -16 -18
0 -17 0 -12 12 -12 12 0 23 0 23 -51 0 -50 0 3 -52z"/>
</g>
</svg>
