<?xml version="1.0" standalone="no"?>
<!DOCTYPE svg PUBLIC "-//W3C//DTD SVG 20010904//EN"
 "http://www.w3.org/TR/2001/REC-SVG-20010904/DTD/svg10.dtd">
<svg version="1.0" xmlns="http://www.w3.org/2000/svg"
 width="30.000000pt" height="45.000000pt" viewBox="0 0 30.000000 45.000000"
 preserveAspectRatio="xMidYMid meet">
<metadata>
Created by potrace 1.16, written by Peter Selinger 2001-2019
</metadata>
<g transform="translate(0.000000,45.000000) scale(0.100000,-0.100000)"
fill="#000000" stroke="none">
<path d="M114 435 l-6 -15 5 -21 5 -20 -24 -10 -25 -9 -32 3 -32 2 -3 -142 -3
-142 43 -3 43 -3 5 -35 5 -35 39 0 39 0 8 15 8 15 5 17 5 18 33 0 33 1 17 12
16 13 -6 54 -7 55 -35 0 -35 0 0 15 0 15 40 5 40 5 3 63 3 62 -43 0 -43 0 -23
6 -23 6 6 18 5 17 -6 17 -6 16 -24 0 -25 0 -5 -15z"/>
</g>
</svg>
