<?xml version="1.0" standalone="no"?>
<!DOCTYPE svg PUBLIC "-//W3C//DTD SVG 20010904//EN"
 "http://www.w3.org/TR/2001/REC-SVG-20010904/DTD/svg10.dtd">
<svg version="1.0" xmlns="http://www.w3.org/2000/svg"
 width="44.000000pt" height="44.000000pt" viewBox="0 0 44.000000 44.000000"
 preserveAspectRatio="xMidYMid meet">
<metadata>
Created by potrace 1.16, written by Peter Selinger 2001-2019
</metadata>
<g transform="translate(0.000000,44.000000) scale(0.100000,-0.100000)"
fill="#000000" stroke="none">
<path d="M177 433 l-7 -6 0 -39 0 -39 -50 7 -50 7 0 -41 0 -41 -12 -8 -13 -7
-20 -1 -20 0 0 -40 0 -40 33 -3 32 -3 0 -55 0 -55 23 1 22 2 22 -1 22 -1 3
-32 3 -33 33 -3 33 -3 15 12 14 11 0 26 0 25 49 -7 48 -6 14 52 14 52 25 6 25
6 0 39 0 40 -37 3 -38 3 -2 17 -1 17 2 29 3 29 -39 -6 -38 -6 -22 -7 -23 -6 0
30 0 31 -10 25 -10 26 -18 0 -19 0 -6 -7z"/>
</g>
</svg>
