<?xml version="1.0" standalone="no"?>
<!DOCTYPE svg PUBLIC "-//W3C//DTD SVG 20010904//EN"
 "http://www.w3.org/TR/2001/REC-SVG-20010904/DTD/svg10.dtd">
<svg version="1.0" xmlns="http://www.w3.org/2000/svg"
 width="42.000000pt" height="42.000000pt" viewBox="0 0 42.000000 42.000000"
 preserveAspectRatio="xMidYMid meet">
<metadata>
Created by potrace 1.16, written by Peter Selinger 2001-2019
</metadata>
<g transform="translate(0.000000,42.000000) scale(0.100000,-0.100000)"
fill="#000000" stroke="none">
<path d="M175 410 l-6 -10 3 -33 3 -32 -53 2 -52 2 0 -38 0 -39 -14 -11 -15
-12 -18 3 -18 3 0 -30 0 -30 30 0 30 0 3 -58 3 -58 17 5 17 6 30 -8 30 -9 0
-29 0 -29 23 -3 23 -4 15 13 16 13 -5 24 -5 24 53 -4 53 -4 15 56 16 57 23 -1
23 -1 0 30 0 30 -34 1 -34 0 -9 24 -9 25 6 24 6 24 -33 -8 -33 -8 -30 -1 -30
-1 3 26 2 27 -10 26 -10 26 -9 0 -10 0 -6 -10z"/>
</g>
</svg>
