<?xml version="1.0" standalone="no"?>
<!DOCTYPE svg PUBLIC "-//W3C//DTD SVG 20010904//EN"
 "http://www.w3.org/TR/2001/REC-SVG-20010904/DTD/svg10.dtd">
<svg version="1.0" xmlns="http://www.w3.org/2000/svg"
 width="43.000000pt" height="30.000000pt" viewBox="0 0 43.000000 30.000000"
 preserveAspectRatio="xMidYMid meet">
<metadata>
Created by potrace 1.16, written by Peter Selinger 2001-2019
</metadata>
<g transform="translate(0.000000,30.000000) scale(0.100000,-0.100000)"
fill="#000000" stroke="none">
<path d="M80 256 l0 -44 -19 5 -19 5 -21 -11 -21 -12 0 -28 0 -29 16 -6 16 -6
35 0 36 0 -8 -32 -7 -33 -2 -20 -1 -20 45 -3 44 -3 13 17 13 18 0 29 0 28 10
-6 10 -6 0 -45 0 -45 15 -5 15 -6 54 6 54 7 7 42 7 42 10 18 9 17 13 0 14 0 6
16 6 16 -6 24 -6 24 -28 0 -28 0 -6 23 -6 22 0 23 0 22 -37 0 -38 0 -11 -8
-12 -7 -3 -25 -4 -25 -22 -3 -22 -3 -3 33 -3 33 -57 3 -58 3 0 -45z"/>
</g>
</svg>
