<?xml version="1.0" standalone="no"?>
<!DOCTYPE svg PUBLIC "-//W3C//DTD SVG 20010904//EN"
 "http://www.w3.org/TR/2001/REC-SVG-20010904/DTD/svg10.dtd">
<svg version="1.0" xmlns="http://www.w3.org/2000/svg"
 width="41.000000pt" height="28.000000pt" viewBox="0 0 41.000000 28.000000"
 preserveAspectRatio="xMidYMid meet">
<metadata>
Created by potrace 1.16, written by Peter Selinger 2001-2019
</metadata>
<g transform="translate(0.000000,28.000000) scale(0.100000,-0.100000)"
fill="#000000" stroke="none">
<path d="M80 234 l0 -46 -22 5 -21 6 -19 -10 -18 -10 0 -18 0 -19 16 -6 16 -6
35 0 36 0 -6 -37 -5 -38 -3 -15 -4 -15 37 -3 37 -3 10 20 11 20 -3 23 -2 23
20 0 20 0 3 -45 3 -45 9 -9 8 -8 50 7 51 7 6 41 7 42 10 17 9 18 14 0 13 0 5
13 4 12 -5 18 -5 19 -17 -5 -18 -5 -12 8 -12 7 -5 42 -6 41 -22 0 -23 0 -16
-6 -16 -6 0 -24 0 -25 -22 -8 -23 -8 -12 4 -12 5 -3 31 -3 32 -47 3 -48 3 0
-47z"/>
</g>
</svg>
