<?xml version="1.0" standalone="no"?>
<!DOCTYPE svg PUBLIC "-//W3C//DTD SVG 20010904//EN"
 "http://www.w3.org/TR/2001/REC-SVG-20010904/DTD/svg10.dtd">
<svg version="1.0" xmlns="http://www.w3.org/2000/svg"
 width="43.000000pt" height="34.000000pt" viewBox="0 0 43.000000 34.000000"
 preserveAspectRatio="xMidYMid meet">
<metadata>
Created by potrace 1.16, written by Peter Selinger 2001-2019
</metadata>
<g transform="translate(0.000000,34.000000) scale(0.100000,-0.100000)"
fill="#000000" stroke="none">
<path d="M90 303 l0 -38 -9 -13 -8 -13 -25 6 -24 6 -14 -16 -14 -17 11 -16 10
-17 39 0 39 0 0 -50 0 -50 42 -3 42 -3 3 -37 3 -37 35 0 35 0 0 20 0 19 45 13
45 13 0 62 0 63 32 0 32 0 12 12 13 13 -8 7 -7 7 -32 1 -32 0 -3 53 -3 52 -27
-6 -27 -5 -22 -5 -22 -4 -3 -23 -3 -22 -34 -3 -34 -3 5 19 5 19 -9 17 -9 16
-39 0 -40 0 0 -37z"/>
</g>
</svg>
