<?xml version="1.0" standalone="no"?>
<!DOCTYPE svg PUBLIC "-//W3C//DTD SVG 20010904//EN"
 "http://www.w3.org/TR/2001/REC-SVG-20010904/DTD/svg10.dtd">
<svg version="1.0" xmlns="http://www.w3.org/2000/svg"
 width="37.000000pt" height="36.000000pt" viewBox="0 0 37.000000 36.000000"
 preserveAspectRatio="xMidYMid meet">
<metadata>
Created by potrace 1.16, written by Peter Selinger 2001-2019
</metadata>
<g transform="translate(0.000000,36.000000) scale(0.100000,-0.100000)"
fill="#000000" stroke="none">
<path d="M2 313 l3 -48 35 -5 35 -5 0 -25 0 -25 -27 -3 -28 -3 -4 -22 -5 -22
-6 -37 -6 -38 31 0 31 0 20 -10 19 -11 0 -30 0 -30 38 3 37 3 3 38 3 39 57 -4
57 -3 2 39 2 40 5 12 5 13 28 3 28 3 0 35 0 35 -40 0 -40 0 -3 53 -3 52 -49 0
-49 0 -3 -32 -3 -33 -27 -3 -27 -3 -3 33 -3 33 -58 3 -58 3 3 -48z"/>
</g>
</svg>
