<?xml version="1.0" standalone="no"?>
<!DOCTYPE svg PUBLIC "-//W3C//DTD SVG 20010904//EN"
 "http://www.w3.org/TR/2001/REC-SVG-20010904/DTD/svg10.dtd">
<svg version="1.0" xmlns="http://www.w3.org/2000/svg"
 width="35.000000pt" height="34.000000pt" viewBox="0 0 35.000000 34.000000"
 preserveAspectRatio="xMidYMid meet">
<metadata>
Created by potrace 1.16, written by Peter Selinger 2001-2019
</metadata>
<g transform="translate(0.000000,34.000000) scale(0.100000,-0.100000)"
fill="#000000" stroke="none">
<path d="M2 303 l3 -38 35 -5 35 -5 3 -32 3 -32 -21 -11 -20 -11 -10 6 -9 6
-5 -23 -5 -23 -4 -27 -4 -28 29 0 29 0 20 -10 19 -11 0 -30 0 -30 28 3 27 3 3
38 3 38 56 -2 55 -3 4 44 4 44 10 10 10 10 23 1 22 0 0 25 0 25 -40 0 -40 0
-3 53 -3 52 -39 0 -39 0 -3 -32 -3 -33 -40 0 -40 0 0 30 0 30 -48 3 -48 3 3
-38z"/>
</g>
</svg>
