<?xml version="1.0" standalone="no"?>
<!DOCTYPE svg PUBLIC "-//W3C//DTD SVG 20010904//EN"
 "http://www.w3.org/TR/2001/REC-SVG-20010904/DTD/svg10.dtd">
<svg version="1.0" xmlns="http://www.w3.org/2000/svg"
 width="36.000000pt" height="34.000000pt" viewBox="0 0 36.000000 34.000000"
 preserveAspectRatio="xMidYMid meet">
<metadata>
Created by potrace 1.16, written by Peter Selinger 2001-2019
</metadata>
<g transform="translate(0.000000,34.000000) scale(0.100000,-0.100000)"
fill="#000000" stroke="none">
<path d="M193 333 l-13 -5 0 -28 0 -29 -12 -8 -13 -7 -40 -6 -40 -5 -5 -45 -5
-45 -24 0 -24 0 -10 -17 -11 -16 14 -17 14 -16 17 4 17 5 7 -49 7 -49 144 0
144 0 0 51 0 52 -29 -6 -29 -6 -17 13 -18 13 7 11 7 12 40 0 39 0 0 50 0 49
-57 3 -58 3 3 37 3 37 -20 10 -20 11 -3 -1 -3 -1 -12 -5z"/>
</g>
</svg>
