<?xml version="1.0" standalone="no"?>
<!DOCTYPE svg PUBLIC "-//W3C//DTD SVG 20010904//EN"
 "http://www.w3.org/TR/2001/REC-SVG-20010904/DTD/svg10.dtd">
<svg version="1.0" xmlns="http://www.w3.org/2000/svg"
 width="38.000000pt" height="36.000000pt" viewBox="0 0 38.000000 36.000000"
 preserveAspectRatio="xMidYMid meet">
<metadata>
Created by potrace 1.16, written by Peter Selinger 2001-2019
</metadata>
<g transform="translate(0.000000,36.000000) scale(0.100000,-0.100000)"
fill="#000000" stroke="none">
<path d="M193 353 l-13 -5 0 -28 0 -29 -12 -8 -13 -7 -40 -6 -40 -5 -5 -45 -5
-45 -18 3 -18 3 -15 -12 -14 -11 0 -22 0 -22 12 -12 12 -12 17 0 18 0 7 -45 6
-45 154 0 154 0 0 60 0 60 -40 0 -40 0 0 10 0 10 40 0 40 0 0 60 0 60 -55 0
-55 0 0 40 0 39 -19 11 -20 10 -13 -1 -13 -1 -12 -5z"/>
</g>
</svg>
