<?xml version="1.0" standalone="no"?>
<!DOCTYPE svg PUBLIC "-//W3C//DTD SVG 20010904//EN"
 "http://www.w3.org/TR/2001/REC-SVG-20010904/DTD/svg10.dtd">
<svg version="1.0" xmlns="http://www.w3.org/2000/svg"
 width="44.000000pt" height="30.000000pt" viewBox="0 0 44.000000 30.000000"
 preserveAspectRatio="xMidYMid meet">
<metadata>
Created by potrace 1.16, written by Peter Selinger 2001-2019
</metadata>
<g transform="translate(0.000000,30.000000) scale(0.100000,-0.100000)"
fill="#000000" stroke="none">
<path d="M70 266 l0 -34 -6 -16 -6 -16 -24 6 -23 6 -7 -27 -7 -26 9 -9 9 -8
20 -4 20 -3 3 -62 3 -61 57 5 57 5 13 4 12 3 0 33 0 32 12 -12 12 -12 0 -32 1
-33 32 -3 32 -3 39 11 40 10 6 45 7 45 18 0 19 0 11 14 12 15 -3 33 -3 33 -37
9 -38 10 0 39 0 39 -42 -7 -43 -6 -17 -5 -18 -5 0 -21 0 -21 -17 -12 -17 -13
-13 5 -13 5 0 39 0 39 -55 0 -55 0 0 -34z"/>
</g>
</svg>
