<?xml version="1.0" standalone="no"?>
<!DOCTYPE svg PUBLIC "-//W3C//DTD SVG 20010904//EN"
 "http://www.w3.org/TR/2001/REC-SVG-20010904/DTD/svg10.dtd">
<svg version="1.0" xmlns="http://www.w3.org/2000/svg"
 width="42.000000pt" height="28.000000pt" viewBox="0 0 42.000000 28.000000"
 preserveAspectRatio="xMidYMid meet">
<metadata>
Created by potrace 1.16, written by Peter Selinger 2001-2019
</metadata>
<g transform="translate(0.000000,28.000000) scale(0.100000,-0.100000)"
fill="#000000" stroke="none">
<path d="M70 243 l0 -38 -9 -14 -9 -14 -20 5 -21 6 -5 -15 -6 -15 6 -9 5 -9
19 0 19 0 5 -9 5 -8 2 -54 2 -54 56 5 56 5 0 29 1 30 12 4 13 4 14 -12 15 -12
-3 -32 -2 -31 22 -3 21 -3 40 10 39 11 9 47 9 48 14 -3 13 -3 14 12 14 11 0
24 0 24 -24 10 -24 9 -21 -6 -21 -5 6 46 7 47 -29 -6 -29 -6 -22 -5 -22 -4 5
-14 5 -14 -22 -21 -23 -21 -7 0 -7 0 -16 6 -16 6 0 39 0 39 -45 0 -45 0 0 -37z"/>
</g>
</svg>
