<?xml version="1.0" standalone="no"?>
<!DOCTYPE svg PUBLIC "-//W3C//DTD SVG 20010904//EN"
 "http://www.w3.org/TR/2001/REC-SVG-20010904/DTD/svg10.dtd">
<svg version="1.0" xmlns="http://www.w3.org/2000/svg"
 width="36.000000pt" height="35.000000pt" viewBox="0 0 36.000000 35.000000"
 preserveAspectRatio="xMidYMid meet">
<metadata>
Created by potrace 1.16, written by Peter Selinger 2001-2019
</metadata>
<g transform="translate(0.000000,35.000000) scale(0.100000,-0.100000)"
fill="#000000" stroke="none">
<path d="M0 316 l0 -34 6 -16 6 -16 34 0 34 0 0 -29 0 -30 -11 -7 -12 -7 -26
-1 -26 -1 -3 -53 -3 -52 38 0 38 0 11 -8 11 -7 -1 -25 -1 -25 24 -3 23 -4 24
6 24 6 0 36 0 36 28 -7 27 -6 21 -5 21 -6 8 48 7 47 5 13 5 14 24 0 24 0 0 36
0 36 -30 -7 -30 -7 -10 27 -10 26 0 30 0 31 -32 -7 -33 -6 -27 -5 -28 -6 0
-22 0 -23 -6 -6 -7 -6 -18 10 -18 9 6 30 5 30 -61 0 -61 0 0 -34z"/>
</g>
</svg>
