<?xml version="1.0" standalone="no"?>
<!DOCTYPE svg PUBLIC "-//W3C//DTD SVG 20010904//EN"
 "http://www.w3.org/TR/2001/REC-SVG-20010904/DTD/svg10.dtd">
<svg version="1.0" xmlns="http://www.w3.org/2000/svg"
 width="34.000000pt" height="33.000000pt" viewBox="0 0 34.000000 33.000000"
 preserveAspectRatio="xMidYMid meet">
<metadata>
Created by potrace 1.16, written by Peter Selinger 2001-2019
</metadata>
<g transform="translate(0.000000,33.000000) scale(0.100000,-0.100000)"
fill="#000000" stroke="none">
<path d="M0 303 l0 -28 9 -13 8 -14 29 4 29 3 3 -42 3 -42 -21 -11 -20 -11
-18 3 -17 3 -3 -42 -3 -43 38 0 38 0 14 -9 14 -9 -6 -22 -5 -21 14 -6 14 -5
25 6 25 6 0 35 0 35 18 0 17 0 32 -9 31 -9 7 46 7 47 10 18 9 18 20 -6 19 -6
0 24 0 24 -30 -5 -30 -4 -10 27 -10 26 0 28 0 28 -42 -8 -43 -8 -8 -1 -8 0 6
-19 5 -18 -15 -13 -16 -13 -25 12 -26 12 6 29 6 30 -50 0 -50 0 0 -27z"/>
</g>
</svg>
