<?xml version="1.0" standalone="no"?>
<!DOCTYPE svg PUBLIC "-//W3C//DTD SVG 20010904//EN"
 "http://www.w3.org/TR/2001/REC-SVG-20010904/DTD/svg10.dtd">
<svg version="1.0" xmlns="http://www.w3.org/2000/svg"
 width="35.000000pt" height="34.000000pt" viewBox="0 0 35.000000 34.000000"
 preserveAspectRatio="xMidYMid meet">
<metadata>
Created by potrace 1.16, written by Peter Selinger 2001-2019
</metadata>
<g transform="translate(0.000000,34.000000) scale(0.100000,-0.100000)"
fill="#000000" stroke="none">
<path d="M88 298 l-3 -43 -32 0 -33 -1 -11 -11 -11 -11 4 -18 3 -19 28 0 27
-1 9 -9 10 -10 3 -45 3 -45 50 -5 50 -5 0 -35 0 -35 22 -3 22 -3 11 21 11 20
-5 9 -6 9 16 6 16 6 34 0 34 0 0 18 0 17 -6 37 -7 38 -23 0 -23 0 -11 19 -10
20 6 15 6 15 31 3 32 3 9 37 9 38 -4 4 -5 5 -41 -12 -41 -12 -3 -10 -3 -10
-13 -13 -13 -13 -22 3 -23 3 0 30 0 30 -47 3 -47 3 -3 -43z"/>
</g>
</svg>
