<?xml version="1.0" standalone="no"?>
<!DOCTYPE svg PUBLIC "-//W3C//DTD SVG 20010904//EN"
 "http://www.w3.org/TR/2001/REC-SVG-20010904/DTD/svg10.dtd">
<svg version="1.0" xmlns="http://www.w3.org/2000/svg"
 width="36.000000pt" height="43.000000pt" viewBox="0 0 36.000000 43.000000"
 preserveAspectRatio="xMidYMid meet">
<metadata>
Created by potrace 1.16, written by Peter Selinger 2001-2019
</metadata>
<g transform="translate(0.000000,43.000000) scale(0.100000,-0.100000)"
fill="#000000" stroke="none">
<path d="M100 407 l0 -25 -29 -10 -30 -10 -20 5 -21 5 0 -57 0 -57 26 6 26 7
14 -12 14 -11 0 -19 0 -20 -30 -6 -30 -6 -4 -6 -4 -6 -7 -52 -7 -53 41 0 41 0
0 -34 0 -34 16 -6 16 -6 26 0 27 0 11 8 12 7 3 25 4 25 48 3 49 3 -7 59 -7 59
39 3 38 3 0 45 0 45 -32 3 -33 3 0 39 0 40 -59 -6 -59 -7 1 34 2 34 -37 3 -38
3 0 -24z"/>
</g>
</svg>
