<?xml version="1.0" standalone="no"?>
<!DOCTYPE svg PUBLIC "-//W3C//DTD SVG 20010904//EN"
 "http://www.w3.org/TR/2001/REC-SVG-20010904/DTD/svg10.dtd">
<svg version="1.0" xmlns="http://www.w3.org/2000/svg"
 width="30.000000pt" height="36.000000pt" viewBox="0 0 30.000000 36.000000"
 preserveAspectRatio="xMidYMid meet">
<metadata>
Created by potrace 1.16, written by Peter Selinger 2001-2019
</metadata>
<g transform="translate(0.000000,36.000000) scale(0.100000,-0.100000)"
fill="#000000" stroke="none">
<path d="M120 335 l0 -25 -22 -9 -23 -8 -32 4 -33 5 0 -62 0 -62 38 4 37 3 0
-20 0 -20 -40 0 -40 0 -3 -68 -3 -68 68 3 68 3 3 27 3 28 19 0 19 0 3 -33 3
-32 24 -3 24 -4 33 7 34 6 0 66 0 65 -25 -4 -25 -5 -16 11 -15 12 6 16 7 16
34 -5 34 -6 0 58 0 57 -27 -6 -28 -7 -17 -5 -18 -5 0 33 0 34 -12 12 -12 12
-33 0 -33 0 0 -25z"/>
</g>
</svg>
