<?xml version="1.0" standalone="no"?>
<!DOCTYPE svg PUBLIC "-//W3C//DTD SVG 20010904//EN"
 "http://www.w3.org/TR/2001/REC-SVG-20010904/DTD/svg10.dtd">
<svg version="1.0" xmlns="http://www.w3.org/2000/svg"
 width="28.000000pt" height="34.000000pt" viewBox="0 0 28.000000 34.000000"
 preserveAspectRatio="xMidYMid meet">
<metadata>
Created by potrace 1.16, written by Peter Selinger 2001-2019
</metadata>
<g transform="translate(0.000000,34.000000) scale(0.100000,-0.100000)"
fill="#000000" stroke="none">
<path d="M123 326 l6 -14 -14 -19 -13 -18 -46 1 -46 1 0 -49 0 -49 38 3 37 3
0 -30 0 -30 -40 0 -40 0 -1 -58 0 -58 55 3 56 3 0 25 0 25 11 7 11 7 21 -6 22
-5 1 -12 1 -11 -1 -18 -2 -17 15 -6 16 -6 35 6 35 7 0 55 0 54 -23 -5 -23 -6
-23 18 -24 19 14 23 14 22 33 -6 32 -6 0 45 0 44 -36 -10 -36 -9 -14 5 -14 6
6 25 6 25 -12 15 -12 15 -25 0 -25 0 5 -14z"/>
</g>
</svg>
