<?xml version="1.0" standalone="no"?>
<!DOCTYPE svg PUBLIC "-//W3C//DTD SVG 20010904//EN"
 "http://www.w3.org/TR/2001/REC-SVG-20010904/DTD/svg10.dtd">
<svg version="1.0" xmlns="http://www.w3.org/2000/svg"
 width="35.000000pt" height="35.000000pt" viewBox="0 0 35.000000 35.000000"
 preserveAspectRatio="xMidYMid meet">
<metadata>
Created by potrace 1.16, written by Peter Selinger 2001-2019
</metadata>
<g transform="translate(0.000000,35.000000) scale(0.100000,-0.100000)"
fill="#000000" stroke="none">
<path d="M122 334 l-9 -17 5 -19 5 -20 -56 3 -55 4 -6 -42 -6 -43 6 -13 5 -13
28 4 28 4 6 -16 6 -16 -20 -18 -20 -19 -8 -29 -9 -29 -7 -17 -7 -18 56 0 56 0
1 13 2 12 1 20 1 20 23 3 22 3 1 -13 2 -13 1 -30 1 -30 40 2 40 3 12 4 12 5 7
50 6 50 27 3 26 3 3 27 3 27 -33 3 -33 3 -3 48 -3 47 -49 0 -49 0 -3 33 -3 32
-22 3 -21 3 -10 -17z"/>
</g>
</svg>
