<?xml version="1.0" standalone="no"?>
<!DOCTYPE svg PUBLIC "-//W3C//DTD SVG 20010904//EN"
 "http://www.w3.org/TR/2001/REC-SVG-20010904/DTD/svg10.dtd">
<svg version="1.0" xmlns="http://www.w3.org/2000/svg"
 width="46.000000pt" height="35.000000pt" viewBox="0 0 46.000000 35.000000"
 preserveAspectRatio="xMidYMid meet">
<metadata>
Created by potrace 1.16, written by Peter Selinger 2001-2019
</metadata>
<g transform="translate(0.000000,35.000000) scale(0.100000,-0.100000)"
fill="#000000" stroke="none">
<path d="M210 314 l0 -36 -57 4 -58 3 -3 -37 -3 -38 -34 0 -34 0 -11 -19 -10
-20 0 -23 0 -24 12 -12 12 -12 28 0 28 0 0 -50 0 -50 69 0 70 0 3 33 3 32 15
0 14 0 1 -30 0 -30 65 0 65 0 -3 43 -2 42 28 0 28 0 12 12 12 12 0 38 0 38
-29 0 -29 0 -6 16 -6 16 0 33 0 33 -55 7 -55 6 0 25 0 24 -35 0 -35 0 0 -36z"/>
</g>
</svg>
