<?xml version="1.0" standalone="no"?>
<!DOCTYPE svg PUBLIC "-//W3C//DTD SVG 20010904//EN"
 "http://www.w3.org/TR/2001/REC-SVG-20010904/DTD/svg10.dtd">
<svg version="1.0" xmlns="http://www.w3.org/2000/svg"
 width="44.000000pt" height="33.000000pt" viewBox="0 0 44.000000 33.000000"
 preserveAspectRatio="xMidYMid meet">
<metadata>
Created by potrace 1.16, written by Peter Selinger 2001-2019
</metadata>
<g transform="translate(0.000000,33.000000) scale(0.100000,-0.100000)"
fill="#000000" stroke="none">
<path d="M213 294 l6 -35 -62 2 -62 3 -3 -37 -3 -37 -35 0 -34 0 -12 -26 -12
-26 11 -16 10 -17 29 0 29 -1 6 -44 6 -45 -4 -7 -4 -8 60 0 60 0 3 33 3 32 25
0 25 0 0 -30 0 -30 55 0 55 0 -3 42 -4 43 29 0 29 0 12 12 12 12 0 28 0 28
-29 0 -29 0 -6 16 -6 16 0 32 0 33 -57 9 -58 9 2 23 3 22 -26 0 -27 0 6 -36z"/>
</g>
</svg>
