<?xml version="1.0" standalone="no"?>
<!DOCTYPE svg PUBLIC "-//W3C//DTD SVG 20010904//EN"
 "http://www.w3.org/TR/2001/REC-SVG-20010904/DTD/svg10.dtd">
<svg version="1.0" xmlns="http://www.w3.org/2000/svg"
 width="36.000000pt" height="41.000000pt" viewBox="0 0 36.000000 41.000000"
 preserveAspectRatio="xMidYMid meet">
<metadata>
Created by potrace 1.16, written by Peter Selinger 2001-2019
</metadata>
<g transform="translate(0.000000,41.000000) scale(0.100000,-0.100000)"
fill="#000000" stroke="none">
<path d="M120 381 l0 -30 -34 -6 -34 -7 -21 7 -21 6 0 -35 0 -34 6 -16 6 -16
29 0 29 0 0 -28 0 -28 -12 -12 -12 -12 -28 0 -28 0 0 -22 0 -23 6 -22 6 -23
49 0 49 0 -6 -30 -6 -29 26 -12 25 -12 16 13 15 13 -5 17 -6 18 23 6 23 6 22
0 23 0 4 22 5 23 -2 40 -2 40 45 5 45 5 0 25 0 25 -29 -2 -30 -2 -13 11 -13
10 0 33 0 33 -35 -9 -36 -10 -18 6 -18 5 1 38 1 37 -22 3 -23 3 0 -30z"/>
</g>
</svg>
