<?xml version="1.0" standalone="no"?>
<!DOCTYPE svg PUBLIC "-//W3C//DTD SVG 20010904//EN"
 "http://www.w3.org/TR/2001/REC-SVG-20010904/DTD/svg10.dtd">
<svg version="1.0" xmlns="http://www.w3.org/2000/svg"
 width="38.000000pt" height="43.000000pt" viewBox="0 0 38.000000 43.000000"
 preserveAspectRatio="xMidYMid meet">
<metadata>
Created by potrace 1.16, written by Peter Selinger 2001-2019
</metadata>
<g transform="translate(0.000000,43.000000) scale(0.100000,-0.100000)"
fill="#000000" stroke="none">
<path d="M120 402 l0 -30 -24 -6 -24 -6 -31 6 -31 7 0 -46 0 -45 6 -16 6 -16
29 0 29 0 0 -18 0 -18 -12 -12 -12 -12 -28 0 -28 0 0 -32 0 -33 6 -22 6 -23
44 0 43 0 3 -32 3 -33 28 -9 28 -10 17 10 17 11 4 19 3 19 12 7 11 8 27 0 28
0 5 23 6 24 -3 39 -3 39 45 5 45 5 0 35 0 35 -30 1 -31 0 -12 8 -12 7 0 35 0
36 -32 -8 -33 -7 -15 -1 -15 -1 -5 40 -5 40 -32 3 -33 3 0 -29z"/>
</g>
</svg>
