<?xml version="1.0" standalone="no"?>
<!DOCTYPE svg PUBLIC "-//W3C//DTD SVG 20010904//EN"
 "http://www.w3.org/TR/2001/REC-SVG-20010904/DTD/svg10.dtd">
<svg version="1.0" xmlns="http://www.w3.org/2000/svg"
 width="36.000000pt" height="40.000000pt" viewBox="0 0 36.000000 40.000000"
 preserveAspectRatio="xMidYMid meet">
<metadata>
Created by potrace 1.16, written by Peter Selinger 2001-2019
</metadata>
<g transform="translate(0.000000,40.000000) scale(0.100000,-0.100000)"
fill="#000000" stroke="none">
<path d="M170 375 l0 -26 -15 -5 -15 -6 -32 -2 -33 -1 -5 -45 -5 -45 -20 0
-20 0 -12 -8 -13 -8 0 -23 0 -24 14 -12 15 -12 28 4 28 3 -1 -20 -2 -20 -7
-30 -7 -31 43 4 42 4 13 -16 12 -17 -5 -20 -6 -20 34 3 34 3 4 20 3 20 12 7
11 8 28 0 27 0 20 20 20 20 0 45 0 45 -45 0 -45 0 0 15 0 14 21 11 20 11 12
-4 12 -4 10 11 11 11 -4 42 -4 41 -34 -14 -33 -14 -20 0 -20 0 -3 43 -3 42
-32 3 -33 3 0 -26z"/>
</g>
</svg>
