<?xml version="1.0" standalone="no"?>
<!DOCTYPE svg PUBLIC "-//W3C//DTD SVG 20010904//EN"
 "http://www.w3.org/TR/2001/REC-SVG-20010904/DTD/svg10.dtd">
<svg version="1.0" xmlns="http://www.w3.org/2000/svg"
 width="38.000000pt" height="42.000000pt" viewBox="0 0 38.000000 42.000000"
 preserveAspectRatio="xMidYMid meet">
<metadata>
Created by potrace 1.16, written by Peter Selinger 2001-2019
</metadata>
<g transform="translate(0.000000,42.000000) scale(0.100000,-0.100000)"
fill="#000000" stroke="none">
<path d="M170 396 l0 -25 -11 -7 -12 -7 -38 0 -39 0 0 -43 0 -44 -23 0 -23 0
-12 -12 -12 -12 0 -31 0 -31 12 -12 12 -12 33 0 33 0 -10 -26 -10 -25 0 -24 0
-23 48 1 47 2 3 -33 3 -33 42 3 42 3 4 20 3 20 12 7 11 8 28 0 27 0 20 20 20
20 0 55 0 55 -47 0 -48 1 18 14 19 14 14 -6 13 -5 15 15 15 15 -6 51 -6 51 -7
0 -8 0 -35 -15 -36 -15 -10 0 -10 0 -3 43 -3 42 -42 3 -43 3 0 -25z"/>
</g>
</svg>
