<?xml version="1.0" standalone="no"?>
<!DOCTYPE svg PUBLIC "-//W3C//DTD SVG 20010904//EN"
 "http://www.w3.org/TR/2001/REC-SVG-20010904/DTD/svg10.dtd">
<svg version="1.0" xmlns="http://www.w3.org/2000/svg"
 width="30.000000pt" height="38.000000pt" viewBox="0 0 30.000000 38.000000"
 preserveAspectRatio="xMidYMid meet">
<metadata>
Created by potrace 1.16, written by Peter Selinger 2001-2019
</metadata>
<g transform="translate(0.000000,38.000000) scale(0.100000,-0.100000)"
fill="#000000" stroke="none">
<path d="M110 347 l0 -35 -31 -11 -31 -11 -24 6 -24 6 0 -57 0 -57 33 4 32 3
0 -25 0 -25 -26 -3 -27 -3 -7 -54 -6 -55 6 -10 6 -10 60 0 59 0 0 41 0 41 13
-5 12 -4 -3 -31 -4 -32 14 -4 13 -4 58 -5 57 -6 0 21 0 20 -17 49 -18 49 -17
0 -18 0 0 20 0 20 13 1 12 2 25 1 25 1 3 34 3 34 -5 23 -6 23 -50 7 -49 6 -3
32 -3 31 -37 3 -38 3 0 -34z"/>
</g>
</svg>
