<?xml version="1.0" standalone="no"?>
<!DOCTYPE svg PUBLIC "-//W3C//DTD SVG 20010904//EN"
 "http://www.w3.org/TR/2001/REC-SVG-20010904/DTD/svg10.dtd">
<svg version="1.0" xmlns="http://www.w3.org/2000/svg"
 width="36.000000pt" height="43.000000pt" viewBox="0 0 36.000000 43.000000"
 preserveAspectRatio="xMidYMid meet">
<metadata>
Created by potrace 1.16, written by Peter Selinger 2001-2019
</metadata>
<g transform="translate(0.000000,43.000000) scale(0.100000,-0.100000)"
fill="#000000" stroke="none">
<path d="M117 416 l-14 -15 5 -27 5 -27 -54 5 -54 6 3 -43 4 -43 18 5 18 5 22
-12 21 -11 -3 -37 -3 -37 -17 1 -17 2 -12 -37 -12 -36 -10 -12 -9 -13 49 0 50
0 -5 -28 -4 -29 17 -16 16 -17 15 0 14 0 21 21 20 20 -6 19 -6 19 26 7 25 6
20 -5 19 -5 5 15 6 15 0 43 0 44 33 3 32 3 0 30 0 30 -30 -1 -30 -1 -7 11 -8
11 0 33 0 32 -22 10 -23 9 -27 5 -28 6 0 19 0 19 -16 6 -16 6 -8 0 -9 0 -14
-14z"/>
</g>
</svg>
