<?xml version="1.0" standalone="no"?>
<!DOCTYPE svg PUBLIC "-//W3C//DTD SVG 20010904//EN"
 "http://www.w3.org/TR/2001/REC-SVG-20010904/DTD/svg10.dtd">
<svg version="1.0" xmlns="http://www.w3.org/2000/svg"
 width="39.000000pt" height="42.000000pt" viewBox="0 0 39.000000 42.000000"
 preserveAspectRatio="xMidYMid meet">
<metadata>
Created by potrace 1.16, written by Peter Selinger 2001-2019
</metadata>
<g transform="translate(0.000000,42.000000) scale(0.100000,-0.100000)"
fill="#000000" stroke="none">
<path d="M190 387 l0 -34 -31 -7 -31 -6 -25 0 -24 0 2 -27 2 -28 -1 -17 -2
-17 -37 -3 -38 -3 -3 -28 -3 -27 15 -15 15 -15 14 0 15 0 7 -42 7 -42 13 -12
12 -12 42 5 41 6 0 -20 0 -21 14 -11 15 -12 33 3 33 3 3 37 3 36 54 -5 54 -6
-6 54 -6 54 -11 7 -11 8 -23 0 -24 0 5 13 4 12 25 -3 25 -2 12 14 12 14 -3 54
-3 53 -60 5 -59 5 -1 30 0 30 -37 3 -38 3 0 -34z"/>
</g>
</svg>
