<?xml version="1.0" standalone="no"?>
<!DOCTYPE svg PUBLIC "-//W3C//DTD SVG 20010904//EN"
 "http://www.w3.org/TR/2001/REC-SVG-20010904/DTD/svg10.dtd">
<svg version="1.0" xmlns="http://www.w3.org/2000/svg"
 width="36.000000pt" height="41.000000pt" viewBox="0 0 36.000000 41.000000"
 preserveAspectRatio="xMidYMid meet">
<metadata>
Created by potrace 1.16, written by Peter Selinger 2001-2019
</metadata>
<g transform="translate(0.000000,41.000000) scale(0.100000,-0.100000)"
fill="#000000" stroke="none">
<path d="M109 403 l-1 -8 1 -15 1 -15 -9 -13 -8 -14 -47 0 -47 -1 3 -46 3 -46
33 -3 33 -3 -3 -22 -3 -22 -32 -3 -33 -3 0 -64 0 -63 38 9 37 9 13 0 12 0 0
-21 0 -20 10 -20 11 -19 22 0 22 0 14 9 14 9 -7 10 -7 11 38 10 38 11 13 0 12
0 0 61 0 61 22 -5 21 -6 19 10 18 10 0 22 0 22 -9 13 -8 13 -29 -3 -29 -3 -5
40 -5 40 -55 10 -54 11 -6 24 -6 25 -22 3 -22 3 -1 -8z"/>
</g>
</svg>
