<?xml version="1.0" standalone="no"?>
<!DOCTYPE svg PUBLIC "-//W3C//DTD SVG 20010904//EN"
 "http://www.w3.org/TR/2001/REC-SVG-20010904/DTD/svg10.dtd">
<svg version="1.0" xmlns="http://www.w3.org/2000/svg"
 width="38.000000pt" height="43.000000pt" viewBox="0 0 38.000000 43.000000"
 preserveAspectRatio="xMidYMid meet">
<metadata>
Created by potrace 1.16, written by Peter Selinger 2001-2019
</metadata>
<g transform="translate(0.000000,43.000000) scale(0.100000,-0.100000)"
fill="#000000" stroke="none">
<path d="M104 417 l-5 -14 2 -9 1 -9 -1 -12 -1 -13 -50 0 -51 0 3 -57 3 -58
33 -3 33 -3 -4 -12 -4 -12 -31 -3 -32 -3 0 -75 0 -76 32 7 33 6 18 5 17 5 0
-21 0 -21 10 -20 11 -19 32 0 32 0 11 8 10 7 7 17 6 16 40 7 41 7 0 58 0 58
19 -5 19 -5 21 11 21 12 0 29 0 28 -6 16 -6 16 -33 0 -34 0 -3 38 -3 37 -55
10 -54 11 -6 24 -6 25 -32 3 -32 3 -6 -14z"/>
</g>
</svg>
