<?xml version="1.0" standalone="no"?>
<!DOCTYPE svg PUBLIC "-//W3C//DTD SVG 20010904//EN"
 "http://www.w3.org/TR/2001/REC-SVG-20010904/DTD/svg10.dtd">
<svg version="1.0" xmlns="http://www.w3.org/2000/svg"
 width="35.000000pt" height="37.000000pt" viewBox="0 0 35.000000 37.000000"
 preserveAspectRatio="xMidYMid meet">
<metadata>
Created by potrace 1.16, written by Peter Selinger 2001-2019
</metadata>
<g transform="translate(0.000000,37.000000) scale(0.100000,-0.100000)"
fill="#000000" stroke="none">
<path d="M68 323 l-3 -48 -30 -5 -30 -5 0 -30 0 -30 30 0 30 -1 5 -54 5 -55
38 -3 37 -3 0 -29 0 -29 22 -15 22 -16 17 0 16 0 16 18 17 19 0 26 0 26 42 3
43 3 3 18 4 19 -7 34 -6 34 -24 0 -24 0 -9 18 -9 17 4 13 5 12 22 0 22 0 12
12 12 12 0 43 0 43 -12 0 -13 0 -45 -14 -45 -13 -5 -24 -6 -24 -24 0 -25 0 3
38 4 37 -56 0 -55 0 -3 -47z"/>
</g>
</svg>
