<?xml version="1.0" standalone="no"?>
<!DOCTYPE svg PUBLIC "-//W3C//DTD SVG 20010904//EN"
 "http://www.w3.org/TR/2001/REC-SVG-20010904/DTD/svg10.dtd">
<svg version="1.0" xmlns="http://www.w3.org/2000/svg"
 width="38.000000pt" height="39.000000pt" viewBox="0 0 38.000000 39.000000"
 preserveAspectRatio="xMidYMid meet">
<metadata>
Created by potrace 1.16, written by Peter Selinger 2001-2019
</metadata>
<g transform="translate(0.000000,39.000000) scale(0.100000,-0.100000)"
fill="#000000" stroke="none">
<path d="M80 354 l0 -35 -10 -20 -11 -19 -24 6 -24 6 -7 -26 -6 -26 5 -14 6
-15 28 -3 28 -3 3 -58 3 -57 38 0 38 0 7 -40 6 -39 35 -7 35 -6 15 12 15 12 0
23 0 23 33 7 32 6 16 5 17 5 12 44 12 44 -6 16 -6 17 -28 -7 -29 -6 -13 15
-12 16 5 14 6 15 28 3 28 3 3 53 3 53 -58 -3 -58 -3 1 -22 1 -23 -19 -6 -18
-5 -10 6 -10 6 0 24 0 23 -50 11 -51 11 -4 0 -5 0 0 -36z"/>
</g>
</svg>
