<?xml version="1.0" standalone="no"?>
<!DOCTYPE svg PUBLIC "-//W3C//DTD SVG 20010904//EN"
 "http://www.w3.org/TR/2001/REC-SVG-20010904/DTD/svg10.dtd">
<svg version="1.0" xmlns="http://www.w3.org/2000/svg"
 width="35.000000pt" height="28.000000pt" viewBox="0 0 35.000000 28.000000"
 preserveAspectRatio="xMidYMid meet">
<metadata>
Created by potrace 1.16, written by Peter Selinger 2001-2019
</metadata>
<g transform="translate(0.000000,28.000000) scale(0.100000,-0.100000)"
fill="#000000" stroke="none">
<path d="M239 273 l-1 -8 -1 -30 -2 -30 -30 0 -30 0 -3 23 -4 23 -24 10 -25 9
-21 0 -21 0 5 -44 5 -45 -10 -10 -9 -9 -13 5 -13 5 -21 -12 -21 -11 0 -14 0
-15 46 0 47 0 -6 -60 -5 -60 54 0 54 0 -6 28 -6 28 17 14 16 13 8 -9 9 -9 4
-20 3 -20 43 -9 43 -9 9 9 10 10 -17 42 -16 42 -19 0 -18 0 0 24 0 25 12 7 12
8 28 -2 28 -2 0 44 0 45 -7 4 -8 4 -47 7 -48 7 -1 -8z"/>
</g>
</svg>
