<?xml version="1.0" standalone="no"?>
<!DOCTYPE svg PUBLIC "-//W3C//DTD SVG 20010904//EN"
 "http://www.w3.org/TR/2001/REC-SVG-20010904/DTD/svg10.dtd">
<svg version="1.0" xmlns="http://www.w3.org/2000/svg"
 width="37.000000pt" height="30.000000pt" viewBox="0 0 37.000000 30.000000"
 preserveAspectRatio="xMidYMid meet">
<metadata>
Created by potrace 1.16, written by Peter Selinger 2001-2019
</metadata>
<g transform="translate(0.000000,30.000000) scale(0.100000,-0.100000)"
fill="#000000" stroke="none">
<path d="M236 289 l-5 -14 2 -25 2 -25 -20 0 -20 0 -3 23 -4 23 -24 10 -25 9
-30 0 -29 0 0 -50 0 -50 -21 0 -20 0 -20 -10 -19 -11 0 -24 0 -25 46 0 47 0
-7 -60 -7 -60 66 0 66 0 -3 32 -3 31 13 4 12 5 0 -21 0 -20 10 -6 10 -6 50 -6
50 -6 6 16 6 16 -17 46 -18 45 -19 0 -19 0 3 18 3 17 38 3 37 3 0 54 0 54 -7
4 -8 5 -57 7 -58 7 -4 -13z"/>
</g>
</svg>
