<?xml version="1.0" standalone="no"?>
<!DOCTYPE svg PUBLIC "-//W3C//DTD SVG 20010904//EN"
 "http://www.w3.org/TR/2001/REC-SVG-20010904/DTD/svg10.dtd">
<svg version="1.0" xmlns="http://www.w3.org/2000/svg"
 width="41.000000pt" height="29.000000pt" viewBox="0 0 41.000000 29.000000"
 preserveAspectRatio="xMidYMid meet">
<metadata>
Created by potrace 1.16, written by Peter Selinger 2001-2019
</metadata>
<g transform="translate(0.000000,29.000000) scale(0.100000,-0.100000)"
fill="#000000" stroke="none">
<path d="M248 285 l-7 -7 6 -15 6 -14 -13 -25 -13 -24 -17 0 -16 0 -12 12 -12
12 0 28 0 28 -45 0 -45 0 0 -50 0 -50 -28 2 -28 2 -12 -8 -12 -7 0 -25 0 -24
18 0 19 0 16 -41 16 -40 -6 -15 -5 -14 51 0 51 0 20 20 20 20 -6 15 -6 15 20
0 20 0 11 -14 11 -13 -2 -24 -3 -24 24 -3 23 -4 24 6 24 6 0 60 0 59 33 3 32
3 3 22 3 22 -33 3 -33 3 -3 48 -3 47 -22 0 -22 0 -20 6 -21 5 -6 -6z"/>
</g>
</svg>
