<?xml version="1.0" standalone="no"?>
<!DOCTYPE svg PUBLIC "-//W3C//DTD SVG 20010904//EN"
 "http://www.w3.org/TR/2001/REC-SVG-20010904/DTD/svg10.dtd">
<svg version="1.0" xmlns="http://www.w3.org/2000/svg"
 width="43.000000pt" height="31.000000pt" viewBox="0 0 43.000000 31.000000"
 preserveAspectRatio="xMidYMid meet">
<metadata>
Created by potrace 1.16, written by Peter Selinger 2001-2019
</metadata>
<g transform="translate(0.000000,31.000000) scale(0.100000,-0.100000)"
fill="#000000" stroke="none">
<path d="M246 301 l-7 -11 5 -18 5 -17 -14 -19 -14 -19 -16 13 -15 12 0 29 0
29 -55 0 -55 0 0 -51 0 -50 -20 6 -19 6 -21 -11 -20 -11 0 -34 0 -35 19 0 19
0 11 -31 11 -32 0 -23 0 -24 60 0 60 0 20 20 20 20 0 17 0 17 12 -12 12 -12 1
-28 0 -27 34 -3 34 -3 23 5 24 6 0 60 0 59 33 3 32 3 3 32 3 32 -33 3 -33 3
-3 48 -3 47 -17 0 -17 0 -36 6 -36 6 -7 -11z"/>
</g>
</svg>
