<?xml version="1.0" standalone="no"?>
<!DOCTYPE svg PUBLIC "-//W3C//DTD SVG 20010904//EN"
 "http://www.w3.org/TR/2001/REC-SVG-20010904/DTD/svg10.dtd">
<svg version="1.0" xmlns="http://www.w3.org/2000/svg"
 width="27.000000pt" height="27.000000pt" viewBox="0 0 27.000000 27.000000"
 preserveAspectRatio="xMidYMid meet">
<metadata>
Created by potrace 1.16, written by Peter Selinger 2001-2019
</metadata>
<g transform="translate(0.000000,27.000000) scale(0.100000,-0.100000)"
fill="#000000" stroke="none">
<path d="M0 233 l0 -38 8 -11 7 -11 30 1 30 1 0 -30 0 -30 -32 -3 -33 -3 0
-55 0 -54 28 0 27 0 23 6 22 6 0 24 0 24 20 0 20 0 0 -19 0 -20 45 -7 46 -6 6
6 6 6 -10 42 -9 43 -13 -3 -12 -2 -15 15 -15 15 3 18 3 17 37 3 36 3 6 25 7
26 -6 19 -6 19 -17 0 -17 0 -22 -6 -23 -6 0 -23 0 -23 -16 -6 -16 -6 -18 0
-19 0 -16 17 -17 16 5 24 4 23 -43 0 -44 0 0 -37z"/>
</g>
</svg>
