<?xml version="1.0" standalone="no"?>
<!DOCTYPE svg PUBLIC "-//W3C//DTD SVG 20010904//EN"
 "http://www.w3.org/TR/2001/REC-SVG-20010904/DTD/svg10.dtd">
<svg version="1.0" xmlns="http://www.w3.org/2000/svg"
 width="29.000000pt" height="29.000000pt" viewBox="0 0 29.000000 29.000000"
 preserveAspectRatio="xMidYMid meet">
<metadata>
Created by potrace 1.16, written by Peter Selinger 2001-2019
</metadata>
<g transform="translate(0.000000,29.000000) scale(0.100000,-0.100000)"
fill="#000000" stroke="none">
<path d="M0 243 l0 -48 9 -13 8 -13 29 3 29 3 0 -20 0 -20 -32 -3 -33 -3 0
-65 0 -64 38 0 37 0 23 6 22 6 0 24 0 24 10 0 10 0 0 -19 0 -18 31 -7 32 -6
28 0 29 0 0 24 0 23 -6 33 -7 32 -29 10 -29 10 4 12 4 11 36 3 36 3 7 34 6 33
-7 21 -6 21 -27 0 -27 0 -22 -6 -23 -6 0 -23 0 -23 -16 -6 -16 -6 -8 0 -9 0
-15 16 -16 15 6 25 6 24 -56 0 -56 0 0 -47z"/>
</g>
</svg>
