<?xml version="1.0" standalone="no"?>
<!DOCTYPE svg PUBLIC "-//W3C//DTD SVG 20010904//EN"
 "http://www.w3.org/TR/2001/REC-SVG-20010904/DTD/svg10.dtd">
<svg version="1.0" xmlns="http://www.w3.org/2000/svg"
 width="37.000000pt" height="37.000000pt" viewBox="0 0 37.000000 37.000000"
 preserveAspectRatio="xMidYMid meet">
<metadata>
Created by potrace 1.16, written by Peter Selinger 2001-2019
</metadata>
<g transform="translate(0.000000,37.000000) scale(0.100000,-0.100000)"
fill="#000000" stroke="none">
<path d="M78 318 l-3 -53 -35 -5 -35 -5 0 -35 0 -35 20 -1 20 -2 13 -1 12 -1
0 -37 0 -38 8 -12 7 -11 35 -4 35 -3 5 -35 5 -35 38 -3 38 -3 15 12 14 11 0
29 0 29 50 0 50 0 0 14 0 13 -9 29 -9 29 -6 28 -6 27 -20 0 -20 0 0 14 0 15
33 3 32 3 3 53 3 52 -43 0 -43 0 -22 -6 -23 -6 0 -25 0 -24 -22 3 -23 3 3 23
3 22 -26 10 -26 10 -34 0 -34 0 -3 -52z"/>
</g>
</svg>
