<?xml version="1.0" standalone="no"?>
<!DOCTYPE svg PUBLIC "-//W3C//DTD SVG 20010904//EN"
 "http://www.w3.org/TR/2001/REC-SVG-20010904/DTD/svg10.dtd">
<svg version="1.0" xmlns="http://www.w3.org/2000/svg"
 width="35.000000pt" height="35.000000pt" viewBox="0 0 35.000000 35.000000"
 preserveAspectRatio="xMidYMid meet">
<metadata>
Created by potrace 1.16, written by Peter Selinger 2001-2019
</metadata>
<g transform="translate(0.000000,35.000000) scale(0.100000,-0.100000)"
fill="#000000" stroke="none">
<path d="M80 301 l0 -50 -12 -7 -12 -8 -26 0 -25 -1 0 -25 0 -25 14 3 13 3 19
-6 19 -6 0 -34 0 -33 6 -16 6 -16 33 0 34 0 8 -12 8 -13 0 -25 0 -25 28 -3 28
-3 15 12 14 11 0 29 0 29 50 0 50 0 0 4 0 3 -9 29 -9 29 -6 28 -6 27 -20 0
-20 0 0 24 0 25 33 3 32 3 3 43 3 42 -33 0 -33 0 -22 -6 -22 -6 2 -22 2 -21
-35 0 -35 0 0 24 0 24 -20 8 -20 8 -27 0 -28 1 0 -49z"/>
</g>
</svg>
