<?xml version="1.0" standalone="no"?>
<!DOCTYPE svg PUBLIC "-//W3C//DTD SVG 20010904//EN"
 "http://www.w3.org/TR/2001/REC-SVG-20010904/DTD/svg10.dtd">
<svg version="1.0" xmlns="http://www.w3.org/2000/svg"
 width="37.000000pt" height="42.000000pt" viewBox="0 0 37.000000 42.000000"
 preserveAspectRatio="xMidYMid meet">
<metadata>
Created by potrace 1.16, written by Peter Selinger 2001-2019
</metadata>
<g transform="translate(0.000000,42.000000) scale(0.100000,-0.100000)"
fill="#000000" stroke="none">
<path d="M104 405 l-6 -14 6 -9 6 -10 -15 -12 -14 -12 -41 7 -41 7 3 -54 3
-53 32 1 32 2 6 -19 6 -19 -6 -10 -6 -10 -35 0 -34 0 0 -64 0 -65 47 -3 47 -3
1 -30 0 -30 50 0 50 0 3 33 3 32 34 0 33 0 16 6 16 6 0 27 0 26 8 11 7 12 25
3 25 4 3 43 3 44 -18 14 -18 13 -22 1 -22 0 -3 33 -3 32 -55 0 -55 0 3 17 3
18 -11 20 -11 20 -25 0 -25 0 -5 -15z"/>
</g>
</svg>
