<?xml version="1.0" standalone="no"?>
<!DOCTYPE svg PUBLIC "-//W3C//DTD SVG 20010904//EN"
 "http://www.w3.org/TR/2001/REC-SVG-20010904/DTD/svg10.dtd">
<svg version="1.0" xmlns="http://www.w3.org/2000/svg"
 width="35.000000pt" height="40.000000pt" viewBox="0 0 35.000000 40.000000"
 preserveAspectRatio="xMidYMid meet">
<metadata>
Created by potrace 1.16, written by Peter Selinger 2001-2019
</metadata>
<g transform="translate(0.000000,40.000000) scale(0.100000,-0.100000)"
fill="#000000" stroke="none">
<path d="M109 393 l-1 -8 1 -16 2 -16 -16 -13 -15 -13 -41 6 -40 5 3 -41 3
-42 29 3 29 3 8 -13 9 -13 0 -22 0 -22 -18 -10 -19 -10 -21 6 -22 5 0 -55 0
-56 48 -3 47 -3 0 -30 0 -30 40 0 40 0 3 33 3 32 34 0 33 0 16 6 16 6 1 27 0
26 7 15 7 15 25 0 25 0 3 33 3 34 -18 14 -18 14 -22 -5 -22 -5 -3 37 -3 38
-55 0 -55 0 -1 26 -1 26 -7 12 -7 11 -15 0 -14 0 -1 -7z"/>
</g>
</svg>
