<?xml version="1.0" standalone="no"?>
<!DOCTYPE svg PUBLIC "-//W3C//DTD SVG 20010904//EN"
 "http://www.w3.org/TR/2001/REC-SVG-20010904/DTD/svg10.dtd">
<svg version="1.0" xmlns="http://www.w3.org/2000/svg"
 width="35.000000pt" height="31.000000pt" viewBox="0 0 35.000000 31.000000"
 preserveAspectRatio="xMidYMid meet">
<metadata>
Created by potrace 1.16, written by Peter Selinger 2001-2019
</metadata>
<g transform="translate(0.000000,31.000000) scale(0.100000,-0.100000)"
fill="#000000" stroke="none">
<path d="M190 272 l0 -38 -12 -12 -12 -12 -22 0 -23 0 -15 22 -16 22 0 18 0
18 -41 0 -40 0 3 -42 3 -43 30 0 30 0 0 -35 0 -35 -38 0 -37 0 0 -35 0 -35 6
-23 6 -22 30 0 29 0 20 11 20 10 -3 27 -3 27 35 0 35 0 0 -35 0 -35 8 -12 8
-12 32 6 32 6 4 4 5 4 0 57 1 57 40 0 40 0 0 30 0 30 -37 -3 -38 -3 0 50 0 49
-31 11 -32 11 -8 0 -9 0 0 -38z"/>
</g>
</svg>
