<?xml version="1.0" standalone="no"?>
<!DOCTYPE svg PUBLIC "-//W3C//DTD SVG 20010904//EN"
 "http://www.w3.org/TR/2001/REC-SVG-20010904/DTD/svg10.dtd">
<svg version="1.0" xmlns="http://www.w3.org/2000/svg"
 width="31.000000pt" height="31.000000pt" viewBox="0 0 31.000000 31.000000"
 preserveAspectRatio="xMidYMid meet">
<metadata>
Created by potrace 1.16, written by Peter Selinger 2001-2019
</metadata>
<g transform="translate(0.000000,31.000000) scale(0.100000,-0.100000)"
fill="#000000" stroke="none">
<path d="M188 275 l-3 -38 -18 -11 -18 -11 -9 15 -10 15 0 23 0 22 -49 0 -49
0 -16 -6 -16 -6 0 -40 0 -39 10 -20 11 -19 29 0 30 0 0 -9 0 -10 -37 -3 -38
-3 -3 -68 -3 -68 63 3 63 3 4 25 3 25 11 7 10 6 14 -5 13 -5 0 -14 0 -14 23
-9 22 -8 38 -7 37 -7 0 64 0 65 -14 11 -15 12 -13 -3 -14 -3 -4 10 -5 10 25 3
25 3 13 17 12 16 0 38 0 38 -27 11 -28 11 -32 5 -32 5 -3 -37z"/>
</g>
</svg>
