<?xml version="1.0" standalone="no"?>
<!DOCTYPE svg PUBLIC "-//W3C//DTD SVG 20010904//EN"
 "http://www.w3.org/TR/2001/REC-SVG-20010904/DTD/svg10.dtd">
<svg version="1.0" xmlns="http://www.w3.org/2000/svg"
 width="37.000000pt" height="32.000000pt" viewBox="0 0 37.000000 32.000000"
 preserveAspectRatio="xMidYMid meet">
<metadata>
Created by potrace 1.16, written by Peter Selinger 2001-2019
</metadata>
<g transform="translate(0.000000,32.000000) scale(0.100000,-0.100000)"
fill="#000000" stroke="none">
<path d="M245 309 l-6 -9 6 -19 6 -19 -16 -16 -16 -16 -9 0 -9 0 -8 13 -8 12
4 19 3 19 -14 8 -13 9 -47 0 -48 0 0 -40 0 -40 -23 0 -23 0 -12 -12 -12 -12 0
-29 0 -28 10 -20 11 -19 29 0 29 0 -6 -50 -6 -50 49 6 49 5 23 5 22 4 0 31 0
30 10 -6 10 -6 0 -41 0 -40 54 4 55 5 16 13 17 14 -7 45 -6 46 -5 18 -6 18
-26 -3 -27 -3 -3 18 -3 17 34 0 35 0 6 16 6 16 0 47 0 47 -60 1 -59 2 -6 -10z"/>
</g>
</svg>
