<?xml version="1.0" standalone="no"?>
<!DOCTYPE svg PUBLIC "-//W3C//DTD SVG 20010904//EN"
 "http://www.w3.org/TR/2001/REC-SVG-20010904/DTD/svg10.dtd">
<svg version="1.0" xmlns="http://www.w3.org/2000/svg"
 width="35.000000pt" height="30.000000pt" viewBox="0 0 35.000000 30.000000"
 preserveAspectRatio="xMidYMid meet">
<metadata>
Created by potrace 1.16, written by Peter Selinger 2001-2019
</metadata>
<g transform="translate(0.000000,30.000000) scale(0.100000,-0.100000)"
fill="#000000" stroke="none">
<path d="M249 292 l-1 -7 1 -21 2 -21 -16 -17 -16 -16 -18 0 -19 0 -12 15 -12
15 6 17 7 16 -13 9 -13 8 -37 0 -38 0 0 -39 0 -40 -26 -3 -27 -3 -11 -17 -10
-17 10 -28 10 -28 29 -1 30 0 -3 -50 -2 -50 37 3 38 4 24 5 23 5 -4 29 -4 29
12 5 12 4 11 -11 11 -11 0 -39 0 -40 45 5 45 6 15 12 15 13 -6 36 -6 36 -4 17
-5 17 -27 -2 -27 -2 -3 32 -3 33 31 -7 32 -6 9 14 9 14 0 40 0 40 -50 2 -50 2
-1 -7z"/>
</g>
</svg>
