<?xml version="1.0" standalone="no"?>
<!DOCTYPE svg PUBLIC "-//W3C//DTD SVG 20010904//EN"
 "http://www.w3.org/TR/2001/REC-SVG-20010904/DTD/svg10.dtd">
<svg version="1.0" xmlns="http://www.w3.org/2000/svg"
 width="36.000000pt" height="28.000000pt" viewBox="0 0 36.000000 28.000000"
 preserveAspectRatio="xMidYMid meet">
<metadata>
Created by potrace 1.16, written by Peter Selinger 2001-2019
</metadata>
<g transform="translate(0.000000,28.000000) scale(0.100000,-0.100000)"
fill="#000000" stroke="none">
<path d="M80 243 l0 -38 -9 -14 -9 -14 -32 6 -31 7 3 -33 3 -32 27 2 28 2 6
-26 7 -25 1 -36 1 -37 55 5 55 5 2 25 1 25 1 13 1 12 20 0 20 0 -6 -24 -6 -24
10 -6 9 -6 55 -6 55 -6 7 40 6 40 -6 16 -6 16 -33 0 -34 0 -7 12 -7 11 19 14
19 14 17 -4 17 -5 5 15 6 15 0 39 0 39 -49 0 -48 0 5 -27 5 -26 -18 -14 -19
-13 -22 0 -23 0 -7 11 -7 12 1 28 1 29 -45 0 -44 0 0 -37z"/>
</g>
</svg>
