<?xml version="1.0" standalone="no"?>
<!DOCTYPE svg PUBLIC "-//W3C//DTD SVG 20010904//EN"
 "http://www.w3.org/TR/2001/REC-SVG-20010904/DTD/svg10.dtd">
<svg version="1.0" xmlns="http://www.w3.org/2000/svg"
 width="38.000000pt" height="30.000000pt" viewBox="0 0 38.000000 30.000000"
 preserveAspectRatio="xMidYMid meet">
<metadata>
Created by potrace 1.16, written by Peter Selinger 2001-2019
</metadata>
<g transform="translate(0.000000,30.000000) scale(0.100000,-0.100000)"
fill="#000000" stroke="none">
<path d="M78 254 l-3 -46 -35 -12 -35 -11 0 -25 0 -25 37 -3 36 -3 5 -13 5
-13 -10 -47 -10 -47 4 -4 4 -4 63 9 64 9 8 13 9 13 0 23 0 23 10 -6 10 -6 0
-25 0 -25 13 -3 12 -4 47 -6 46 -5 12 49 12 50 -6 16 -6 16 -21 -5 -20 -5 -30
10 -30 10 3 17 3 16 43 3 42 3 0 51 0 50 -22 -6 -23 -6 -28 -7 -29 -6 -9 -23
-9 -24 -25 0 -25 0 0 34 0 34 -16 6 -16 6 -38 0 -39 0 -3 -46z"/>
</g>
</svg>
