<?xml version="1.0" standalone="no"?>
<!DOCTYPE svg PUBLIC "-//W3C//DTD SVG 20010904//EN"
 "http://www.w3.org/TR/2001/REC-SVG-20010904/DTD/svg10.dtd">
<svg version="1.0" xmlns="http://www.w3.org/2000/svg"
 width="36.000000pt" height="28.000000pt" viewBox="0 0 36.000000 28.000000"
 preserveAspectRatio="xMidYMid meet">
<metadata>
Created by potrace 1.16, written by Peter Selinger 2001-2019
</metadata>
<g transform="translate(0.000000,28.000000) scale(0.100000,-0.100000)"
fill="#000000" stroke="none">
<path d="M80 241 l0 -39 -6 -15 -5 -15 -17 5 -17 4 -19 -14 -19 -14 7 -11 7
-12 34 0 34 0 6 -19 6 -19 -7 -29 -6 -28 -4 -16 -4 -16 56 8 57 8 9 13 8 13
-5 22 -5 22 10 6 11 7 14 -12 14 -11 3 -27 3 -27 47 -5 47 -6 11 44 11 43 -6
9 -6 9 -14 -5 -14 -6 -36 12 -35 12 0 22 0 22 11 11 11 11 34 -5 34 -6 0 41 0
40 -42 -12 -41 -13 -8 -21 -8 -22 -35 0 -34 0 -6 15 -5 15 6 16 6 16 -14 9
-14 9 -32 0 -33 0 0 -39z"/>
</g>
</svg>
