<?xml version="1.0" standalone="no"?>
<!DOCTYPE svg PUBLIC "-//W3C//DTD SVG 20010904//EN"
 "http://www.w3.org/TR/2001/REC-SVG-20010904/DTD/svg10.dtd">
<svg version="1.0" xmlns="http://www.w3.org/2000/svg"
 width="28.000000pt" height="27.000000pt" viewBox="0 0 28.000000 27.000000"
 preserveAspectRatio="xMidYMid meet">
<metadata>
Created by potrace 1.16, written by Peter Selinger 2001-2019
</metadata>
<g transform="translate(0.000000,27.000000) scale(0.100000,-0.100000)"
fill="#000000" stroke="none">
<path d="M0 225 l0 -45 23 5 22 5 18 -14 18 -14 -3 -34 -3 -33 -25 0 -25 0 -7
-15 -7 -15 0 -32 -1 -33 29 0 29 0 16 6 16 6 0 29 0 29 23 0 22 0 10 -8 10 -7
11 -20 11 -20 42 -3 41 -3 0 45 0 46 -27 6 -28 6 -12 4 -13 3 0 20 0 19 13 5
12 4 33 -5 32 -5 0 52 0 51 -54 0 -55 0 -3 -32 -3 -33 -42 -3 -43 -3 7 31 6
32 -14 9 -14 9 -32 0 -33 0 0 -45z"/>
</g>
</svg>
