<?xml version="1.0" standalone="no"?>
<!DOCTYPE svg PUBLIC "-//W3C//DTD SVG 20010904//EN"
 "http://www.w3.org/TR/2001/REC-SVG-20010904/DTD/svg10.dtd">
<svg version="1.0" xmlns="http://www.w3.org/2000/svg"
 width="35.000000pt" height="36.000000pt" viewBox="0 0 35.000000 36.000000"
 preserveAspectRatio="xMidYMid meet">
<metadata>
Created by potrace 1.16, written by Peter Selinger 2001-2019
</metadata>
<g transform="translate(0.000000,36.000000) scale(0.100000,-0.100000)"
fill="#000000" stroke="none">
<path d="M89 304 l3 -57 -33 5 -34 5 -12 -4 -13 -5 0 -19 0 -20 12 -3 13 -4
28 -6 27 -6 0 -50 0 -50 48 0 47 0 0 -36 0 -37 17 -10 16 -11 26 12 26 12 0
29 0 28 40 7 40 6 0 135 0 135 -39 0 -40 0 -3 -42 -3 -43 -42 -3 -41 -3 -7 21
-7 21 6 25 6 24 -42 0 -43 0 4 -56z"/>
</g>
</svg>
