<?xml version="1.0" standalone="no"?>
<!DOCTYPE svg PUBLIC "-//W3C//DTD SVG 20010904//EN"
 "http://www.w3.org/TR/2001/REC-SVG-20010904/DTD/svg10.dtd">
<svg version="1.0" xmlns="http://www.w3.org/2000/svg"
 width="37.000000pt" height="37.000000pt" viewBox="0 0 37.000000 37.000000"
 preserveAspectRatio="xMidYMid meet">
<metadata>
Created by potrace 1.16, written by Peter Selinger 2001-2019
</metadata>
<g transform="translate(0.000000,37.000000) scale(0.100000,-0.100000)"
fill="#000000" stroke="none">
<path d="M20 310 l0 -60 36 0 35 0 -3 -22 -3 -23 -42 -3 -43 -3 0 -22 0 -22
10 -37 11 -37 37 -3 37 -3 0 -35 0 -35 43 -3 42 -3 15 15 15 15 0 10 0 10 38
10 37 11 11 0 12 0 7 45 6 45 25 27 24 26 0 11 0 11 -8 12 -7 11 -30 4 -30 3
3 48 4 47 -34 0 -33 0 -23 -6 -23 -7 5 -23 6 -23 -20 -6 -21 -7 -15 13 -15 12
6 29 7 28 -61 0 -61 0 0 -60z"/>
</g>
</svg>
