<?xml version="1.0" standalone="no"?>
<!DOCTYPE svg PUBLIC "-//W3C//DTD SVG 20010904//EN"
 "http://www.w3.org/TR/2001/REC-SVG-20010904/DTD/svg10.dtd">
<svg version="1.0" xmlns="http://www.w3.org/2000/svg"
 width="35.000000pt" height="35.000000pt" viewBox="0 0 35.000000 35.000000"
 preserveAspectRatio="xMidYMid meet">
<metadata>
Created by potrace 1.16, written by Peter Selinger 2001-2019
</metadata>
<g transform="translate(0.000000,35.000000) scale(0.100000,-0.100000)"
fill="#000000" stroke="none">
<path d="M20 300 l0 -50 34 0 34 0 6 -16 6 -15 -10 -20 -11 -19 -39 0 -40 0 0
-12 0 -13 10 -37 11 -37 37 -3 37 -3 0 -35 0 -35 33 -3 32 -3 16 15 15 16 -5
9 -6 10 55 12 54 12 -4 7 -4 6 15 45 16 44 18 18 19 17 -6 16 -6 16 -28 -4
-28 -4 -6 14 -5 14 6 39 7 39 -24 0 -24 0 -21 -6 -21 -6 5 -23 4 -24 -27 -7
-28 -7 -16 10 -16 10 0 32 0 31 -47 0 -48 0 0 -50z"/>
</g>
</svg>
