<?xml version="1.0" standalone="no"?>
<!DOCTYPE svg PUBLIC "-//W3C//DTD SVG 20010904//EN"
 "http://www.w3.org/TR/2001/REC-SVG-20010904/DTD/svg10.dtd">
<svg version="1.0" xmlns="http://www.w3.org/2000/svg"
 width="33.000000pt" height="35.000000pt" viewBox="0 0 33.000000 35.000000"
 preserveAspectRatio="xMidYMid meet">
<metadata>
Created by potrace 1.16, written by Peter Selinger 2001-2019
</metadata>
<g transform="translate(0.000000,35.000000) scale(0.100000,-0.100000)"
fill="#000000" stroke="none">
<path d="M70 301 l0 -50 -32 -3 -33 -3 0 -30 0 -30 22 3 21 3 6 -19 7 -19 1
-38 1 -37 49 5 48 6 0 -33 0 -34 14 -12 15 -12 23 4 23 3 3 31 3 32 39 6 39 6
4 8 4 7 -6 45 -6 44 -29 1 -29 0 -10 17 -11 16 12 26 12 26 35 0 35 0 0 35 0
35 -22 0 -23 0 -22 -6 -22 -6 6 -15 6 -16 -18 -13 -19 -14 -34 0 -35 0 6 34 5
34 -15 6 -15 6 -29 0 -29 0 0 -49z"/>
</g>
</svg>
