<?xml version="1.0" standalone="no"?>
<!DOCTYPE svg PUBLIC "-//W3C//DTD SVG 20010904//EN"
 "http://www.w3.org/TR/2001/REC-SVG-20010904/DTD/svg10.dtd">
<svg version="1.0" xmlns="http://www.w3.org/2000/svg"
 width="35.000000pt" height="37.000000pt" viewBox="0 0 35.000000 37.000000"
 preserveAspectRatio="xMidYMid meet">
<metadata>
Created by potrace 1.16, written by Peter Selinger 2001-2019
</metadata>
<g transform="translate(0.000000,37.000000) scale(0.100000,-0.100000)"
fill="#000000" stroke="none">
<path d="M70 321 l0 -50 -32 -3 -33 -3 0 -40 0 -40 20 0 20 0 7 -10 8 -10 0
-43 0 -44 50 4 50 3 0 -31 0 -32 14 -11 15 -12 33 3 33 3 3 31 3 32 40 6 40 6
4 13 5 12 -8 50 -7 50 -27 0 -27 0 -11 11 -12 12 11 21 12 21 34 0 35 0 0 45
0 45 -32 0 -33 0 -23 -7 -24 -6 5 -19 5 -18 -18 -10 -19 -10 -21 0 -22 0 7 31
7 31 -13 9 -14 9 -42 0 -43 0 0 -49z"/>
</g>
</svg>
