<?xml version="1.0" standalone="no"?>
<!DOCTYPE svg PUBLIC "-//W3C//DTD SVG 20010904//EN"
 "http://www.w3.org/TR/2001/REC-SVG-20010904/DTD/svg10.dtd">
<svg version="1.0" xmlns="http://www.w3.org/2000/svg"
 width="29.000000pt" height="31.000000pt" viewBox="0 0 29.000000 31.000000"
 preserveAspectRatio="xMidYMid meet">
<metadata>
Created by potrace 1.16, written by Peter Selinger 2001-2019
</metadata>
<g transform="translate(0.000000,31.000000) scale(0.100000,-0.100000)"
fill="#000000" stroke="none">
<path d="M0 256 l0 -55 38 -3 37 -3 0 -25 0 -25 -27 3 -26 3 -6 -18 -5 -18 -7
-48 -6 -47 42 0 41 0 20 10 19 11 0 25 0 25 18 -3 17 -3 3 -43 3 -42 43 0 42
0 18 13 18 13 1 55 2 54 -28 -2 -28 -2 -11 24 -11 24 13 16 12 15 24 0 24 0 0
45 0 45 -22 0 -23 0 -37 -6 -38 -7 0 -21 0 -21 -9 -13 -8 -14 -19 4 -19 3 -3
43 -3 42 -50 0 -49 0 0 -54z"/>
</g>
</svg>
