<?xml version="1.0" standalone="no"?>
<!DOCTYPE svg PUBLIC "-//W3C//DTD SVG 20010904//EN"
 "http://www.w3.org/TR/2001/REC-SVG-20010904/DTD/svg10.dtd">
<svg version="1.0" xmlns="http://www.w3.org/2000/svg"
 width="27.000000pt" height="29.000000pt" viewBox="0 0 27.000000 29.000000"
 preserveAspectRatio="xMidYMid meet">
<metadata>
Created by potrace 1.16, written by Peter Selinger 2001-2019
</metadata>
<g transform="translate(0.000000,29.000000) scale(0.100000,-0.100000)"
fill="#000000" stroke="none">
<path d="M0 246 l0 -45 38 -3 37 -3 0 -35 0 -35 -27 0 -28 1 -4 -16 -4 -15 -7
-37 -6 -38 31 0 31 0 20 10 19 11 0 24 0 25 25 0 24 0 10 -18 9 -17 -5 -28 -5
-27 34 0 34 0 17 13 18 12 2 45 2 44 -30 0 -29 1 -10 28 -10 28 10 17 11 17
27 3 26 3 0 36 0 36 -37 -7 -38 -6 -12 0 -13 0 0 -22 0 -23 -9 -13 -8 -14 -29
4 -29 3 -3 43 -3 42 -40 0 -39 0 0 -44z"/>
</g>
</svg>
