<?xml version="1.0" standalone="no"?>
<!DOCTYPE svg PUBLIC "-//W3C//DTD SVG 20010904//EN"
 "http://www.w3.org/TR/2001/REC-SVG-20010904/DTD/svg10.dtd">
<svg version="1.0" xmlns="http://www.w3.org/2000/svg"
 width="38.000000pt" height="44.000000pt" viewBox="0 0 38.000000 44.000000"
 preserveAspectRatio="xMidYMid meet">
<metadata>
Created by potrace 1.16, written by Peter Selinger 2001-2019
</metadata>
<g transform="translate(0.000000,44.000000) scale(0.100000,-0.100000)"
fill="#000000" stroke="none">
<path d="M186 424 l-6 -16 6 -23 6 -24 -59 -3 -58 -3 -3 -37 -3 -38 -24 0 -24
0 -11 -19 -10 -20 0 -36 0 -36 17 -6 18 -7 7 -10 8 -11 0 -23 0 -23 13 -14 14
-13 46 5 47 6 0 -21 0 -20 6 -16 6 -16 28 0 28 0 16 6 16 6 0 19 0 19 16 0 17
0 38 11 38 12 -5 46 -6 46 -8 32 -8 33 9 6 9 5 0 59 0 59 -57 -2 -58 -2 3 28
3 29 -12 14 -11 14 -23 0 -23 0 -6 -16z m124 -204 l0 -10 -4 0 -5 0 -6 10 -6
10 10 0 11 0 0 -10z"/>
</g>
</svg>
