<?xml version="1.0" standalone="no"?>
<!DOCTYPE svg PUBLIC "-//W3C//DTD SVG 20010904//EN"
 "http://www.w3.org/TR/2001/REC-SVG-20010904/DTD/svg10.dtd">
<svg version="1.0" xmlns="http://www.w3.org/2000/svg"
 width="31.000000pt" height="39.000000pt" viewBox="0 0 31.000000 39.000000"
 preserveAspectRatio="xMidYMid meet">
<metadata>
Created by potrace 1.16, written by Peter Selinger 2001-2019
</metadata>
<g transform="translate(0.000000,39.000000) scale(0.100000,-0.100000)"
fill="#000000" stroke="none">
<path d="M132 378 l-10 -13 -4 -25 -3 -25 -57 1 -58 1 0 -69 0 -70 35 6 35 7
0 -11 0 -10 -15 0 -15 0 -9 -22 -8 -23 -12 -36 -11 -35 0 -13 0 -12 67 3 68 3
-2 38 -2 37 14 0 14 0 11 -20 11 -20 -6 -11 -7 -10 6 -25 6 -24 25 0 25 0 40
17 40 18 0 63 0 64 -37 -4 -38 -3 -3 22 -3 22 33 3 33 3 0 55 0 54 -55 17 -55
16 -10 21 -10 22 -11 0 -12 0 -10 -12z"/>
</g>
</svg>
