<?xml version="1.0" standalone="no"?>
<!DOCTYPE svg PUBLIC "-//W3C//DTD SVG 20010904//EN"
 "http://www.w3.org/TR/2001/REC-SVG-20010904/DTD/svg10.dtd">
<svg version="1.0" xmlns="http://www.w3.org/2000/svg"
 width="40.000000pt" height="45.000000pt" viewBox="0 0 40.000000 45.000000"
 preserveAspectRatio="xMidYMid meet">
<metadata>
Created by potrace 1.16, written by Peter Selinger 2001-2019
</metadata>
<g transform="translate(0.000000,45.000000) scale(0.100000,-0.100000)"
fill="#000000" stroke="none">
<path d="M201 441 l-13 -9 7 -22 7 -22 -13 -9 -14 -9 -43 0 -43 0 -3 -12 -4
-13 -6 -28 -6 -27 -24 6 -24 6 -12 -22 -12 -22 7 -35 6 -35 30 -11 29 -11 0
-31 0 -30 8 -11 7 -11 45 1 45 1 5 -40 5 -40 32 -3 32 -3 21 11 20 11 0 19 0
19 23 6 22 7 27 11 27 11 5 21 6 20 0 30 0 30 -9 14 -9 13 -20 -6 -20 -7 -18
18 -18 18 32 3 32 3 6 23 5 23 -3 34 -3 34 -20 -2 -20 -1 -37 -7 -38 -8 0 40
0 39 -12 12 -12 12 -10 0 -11 0 -14 -9z"/>
</g>
</svg>
