<?xml version="1.0" standalone="no"?>
<!DOCTYPE svg PUBLIC "-//W3C//DTD SVG 20010904//EN"
 "http://www.w3.org/TR/2001/REC-SVG-20010904/DTD/svg10.dtd">
<svg version="1.0" xmlns="http://www.w3.org/2000/svg"
 width="39.000000pt" height="36.000000pt" viewBox="0 0 39.000000 36.000000"
 preserveAspectRatio="xMidYMid meet">
<metadata>
Created by potrace 1.16, written by Peter Selinger 2001-2019
</metadata>
<g transform="translate(0.000000,36.000000) scale(0.100000,-0.100000)"
fill="#000000" stroke="none">
<path d="M132 348 l-12 -12 0 -28 0 -28 -55 0 -56 0 3 -62 3 -63 35 -6 35 -6
-15 -3 -15 -2 -25 -1 -25 -2 -3 -67 -3 -68 76 0 75 0 1 33 0 32 9 -21 9 -22 8
-5 8 -5 68 -7 68 -7 -2 23 -2 24 1 27 2 27 26 3 27 3 10 17 11 16 -12 26 -12
26 -30 0 -30 0 0 45 0 45 -27 6 -28 6 -30 7 -29 7 -6 25 -6 24 -20 3 -19 3
-13 -13z"/>
</g>
</svg>
