<?xml version="1.0" standalone="no"?>
<!DOCTYPE svg PUBLIC "-//W3C//DTD SVG 20010904//EN"
 "http://www.w3.org/TR/2001/REC-SVG-20010904/DTD/svg10.dtd">
<svg version="1.0" xmlns="http://www.w3.org/2000/svg"
 width="44.000000pt" height="41.000000pt" viewBox="0 0 44.000000 41.000000"
 preserveAspectRatio="xMidYMid meet">
<metadata>
Created by potrace 1.16, written by Peter Selinger 2001-2019
</metadata>
<g transform="translate(0.000000,41.000000) scale(0.100000,-0.100000)"
fill="#000000" stroke="none">
<path d="M220 388 l0 -23 -8 -12 -7 -12 -50 -3 -50 -3 -3 -32 -3 -33 -28 0
-27 0 -16 -12 -15 -13 -5 -15 -5 -15 8 -22 8 -23 30 0 29 0 8 -47 9 -47 47 3
47 2 3 -38 3 -38 45 0 45 0 0 25 0 25 47 8 46 9 12 48 11 48 17 -2 17 -1 0 45
0 45 -32 3 -32 3 2 37 2 37 -25 -4 -25 -5 -35 0 -35 -1 0 40 0 40 -17 3 -18 3
0 -23z"/>
</g>
</svg>
