<?xml version="1.0" standalone="no"?>
<!DOCTYPE svg PUBLIC "-//W3C//DTD SVG 20010904//EN"
 "http://www.w3.org/TR/2001/REC-SVG-20010904/DTD/svg10.dtd">
<svg version="1.0" xmlns="http://www.w3.org/2000/svg"
 width="29.000000pt" height="36.000000pt" viewBox="0 0 29.000000 36.000000"
 preserveAspectRatio="xMidYMid meet">
<metadata>
Created by potrace 1.16, written by Peter Selinger 2001-2019
</metadata>
<g transform="translate(0.000000,36.000000) scale(0.100000,-0.100000)"
fill="#000000" stroke="none">
<path d="M115 348 l-5 -13 3 -30 2 -30 -35 -3 -35 -2 -23 -6 -23 -5 3 -42 3
-42 30 -3 30 -4 9 -9 10 -9 -13 -12 -12 -13 -27 0 -27 0 -3 -39 -3 -39 5 -22
6 -22 32 4 33 4 22 5 22 4 3 32 3 33 16 3 17 3 15 -15 14 -15 -4 -24 -5 -25
19 -6 18 -5 35 7 35 8 -1 17 -1 17 -1 41 -2 41 -35 -6 -35 -7 -6 16 -6 15 12
15 13 15 34 -6 34 -6 -3 48 -3 49 -35 2 -35 1 -18 1 -19 1 7 30 7 31 -12 14
-12 15 -25 0 -24 0 -4 -12z"/>
</g>
</svg>
