<?xml version="1.0" standalone="no"?>
<!DOCTYPE svg PUBLIC "-//W3C//DTD SVG 20010904//EN"
 "http://www.w3.org/TR/2001/REC-SVG-20010904/DTD/svg10.dtd">
<svg version="1.0" xmlns="http://www.w3.org/2000/svg"
 width="31.000000pt" height="38.000000pt" viewBox="0 0 31.000000 38.000000"
 preserveAspectRatio="xMidYMid meet">
<metadata>
Created by potrace 1.16, written by Peter Selinger 2001-2019
</metadata>
<g transform="translate(0.000000,38.000000) scale(0.100000,-0.100000)"
fill="#000000" stroke="none">
<path d="M115 370 l-6 -10 3 -33 3 -32 -35 -3 -35 -2 -23 -6 -23 -5 3 -52 3
-52 33 -3 32 -3 0 -9 0 -9 -32 -3 -33 -3 -3 -49 -3 -50 6 -23 5 -23 43 6 42 5
23 5 22 4 0 29 0 28 6 6 6 6 14 -6 14 -5 0 -33 0 -33 17 -6 16 -7 44 7 43 6 5
8 5 8 -7 62 -6 61 -31 -1 -31 -2 -9 1 -10 1 12 12 12 12 36 -3 35 -3 -3 59 -3
58 -51 3 -50 3 4 30 4 29 -12 15 -12 15 -34 0 -33 0 -6 -10z"/>
</g>
</svg>
