<?xml version="1.0" standalone="no"?>
<!DOCTYPE svg PUBLIC "-//W3C//DTD SVG 20010904//EN"
 "http://www.w3.org/TR/2001/REC-SVG-20010904/DTD/svg10.dtd">
<svg version="1.0" xmlns="http://www.w3.org/2000/svg"
 width="29.000000pt" height="35.000000pt" viewBox="0 0 29.000000 35.000000"
 preserveAspectRatio="xMidYMid meet">
<metadata>
Created by potrace 1.16, written by Peter Selinger 2001-2019
</metadata>
<g transform="translate(0.000000,35.000000) scale(0.100000,-0.100000)"
fill="#000000" stroke="none">
<path d="M137 344 l-7 -7 5 -21 5 -21 -9 -14 -9 -14 -52 -5 -52 -5 -3 -11 -3
-11 -6 -32 -5 -31 27 -7 27 -7 12 -10 13 -10 0 -14 0 -14 -24 -10 -24 -9 -4
-28 -5 -28 -8 -18 -8 -18 59 3 59 3 3 28 3 27 30 0 30 0 -5 -9 -6 -9 13 -9 12
-9 37 -11 37 -11 5 15 6 15 0 33 0 34 -16 9 -17 9 -18 -4 -19 -5 -6 16 -6 16
12 16 13 15 29 -6 28 -7 0 51 0 51 -22 5 -23 5 -30 2 -30 3 -3 25 -4 25 -10
13 -10 12 -8 0 -7 0 -6 -6z"/>
</g>
</svg>
