<?xml version="1.0" standalone="no"?>
<!DOCTYPE svg PUBLIC "-//W3C//DTD SVG 20010904//EN"
 "http://www.w3.org/TR/2001/REC-SVG-20010904/DTD/svg10.dtd">
<svg version="1.0" xmlns="http://www.w3.org/2000/svg"
 width="47.000000pt" height="43.000000pt" viewBox="0 0 47.000000 43.000000"
 preserveAspectRatio="xMidYMid meet">
<metadata>
Created by potrace 1.16, written by Peter Selinger 2001-2019
</metadata>
<g transform="translate(0.000000,43.000000) scale(0.100000,-0.100000)"
fill="#000000" stroke="none">
<path d="M184 416 l-6 -16 5 -15 6 -14 -12 -8 -12 -7 -40 -6 -40 -5 -5 -35 -5
-35 -30 -3 -30 -4 -7 -11 -8 -12 0 -23 0 -23 14 -15 15 -14 14 0 14 0 7 -50 7
-50 59 0 60 0 0 -36 0 -35 43 3 42 3 3 32 3 33 56 0 55 0 -6 26 -7 27 6 28 6
28 37 3 37 3 0 35 0 35 -42 3 -43 3 0 44 0 44 -52 -2 -51 -2 -1 40 -1 40 -43
3 -42 3 -6 -15z"/>
</g>
</svg>
