<?xml version="1.0" standalone="no"?>
<!DOCTYPE svg PUBLIC "-//W3C//DTD SVG 20010904//EN"
 "http://www.w3.org/TR/2001/REC-SVG-20010904/DTD/svg10.dtd">
<svg version="1.0" xmlns="http://www.w3.org/2000/svg"
 width="45.000000pt" height="41.000000pt" viewBox="0 0 45.000000 41.000000"
 preserveAspectRatio="xMidYMid meet">
<metadata>
Created by potrace 1.16, written by Peter Selinger 2001-2019
</metadata>
<g transform="translate(0.000000,41.000000) scale(0.100000,-0.100000)"
fill="#000000" stroke="none">
<path d="M187 404 l-7 -7 6 -22 6 -23 -14 -8 -13 -8 -40 -6 -40 -5 -3 -30 -4
-30 -10 -12 -10 -13 -24 6 -23 6 -7 -26 -6 -25 15 -16 16 -15 12 2 13 3 9 -52
9 -53 59 0 59 0 0 -36 0 -35 33 3 32 3 3 33 3 32 54 0 53 0 -5 20 -5 20 6 34
7 35 37 3 37 3 0 25 0 25 -43 0 -42 0 0 48 0 47 -27 -6 -28 -6 -17 -4 -16 -5
-9 13 -8 13 0 35 0 35 -30 3 -31 3 -7 -7z"/>
</g>
</svg>
