<?xml version="1.0" standalone="no"?>
<!DOCTYPE svg PUBLIC "-//W3C//DTD SVG 20010904//EN"
 "http://www.w3.org/TR/2001/REC-SVG-20010904/DTD/svg10.dtd">
<svg version="1.0" xmlns="http://www.w3.org/2000/svg"
 width="46.000000pt" height="36.000000pt" viewBox="0 0 46.000000 36.000000"
 preserveAspectRatio="xMidYMid meet">
<metadata>
Created by potrace 1.16, written by Peter Selinger 2001-2019
</metadata>
<g transform="translate(0.000000,36.000000) scale(0.100000,-0.100000)"
fill="#000000" stroke="none">
<path d="M70 346 l0 -15 10 -6 10 -6 0 -30 0 -29 -24 6 -24 6 -21 -12 -21 -11
0 -23 0 -24 15 -12 15 -12 30 4 30 5 0 -58 0 -58 32 -3 33 -3 5 -30 5 -30 39
-3 38 -3 19 17 19 17 0 24 0 23 43 -2 42 -3 -2 42 -2 43 38 0 37 0 12 12 12
12 0 38 0 38 -22 5 -23 5 -20 -3 -20 -2 2 48 1 47 -154 0 -154 0 0 -14z"/>
</g>
</svg>
