<?xml version="1.0" standalone="no"?>
<!DOCTYPE svg PUBLIC "-//W3C//DTD SVG 20010904//EN"
 "http://www.w3.org/TR/2001/REC-SVG-20010904/DTD/svg10.dtd">
<svg version="1.0" xmlns="http://www.w3.org/2000/svg"
 width="44.000000pt" height="34.000000pt" viewBox="0 0 44.000000 34.000000"
 preserveAspectRatio="xMidYMid meet">
<metadata>
Created by potrace 1.16, written by Peter Selinger 2001-2019
</metadata>
<g transform="translate(0.000000,34.000000) scale(0.100000,-0.100000)"
fill="#000000" stroke="none">
<path d="M78 328 l12 -12 0 -39 0 -39 -29 5 -29 6 -18 -14 -19 -14 11 -18 12
-18 36 2 36 2 0 -59 0 -60 29 0 30 0 8 -12 8 -13 0 -20 0 -20 28 -3 29 -3 19
17 19 17 0 24 0 25 43 -4 42 -3 -3 43 -3 42 38 0 39 0 12 12 12 12 0 28 0 28
-12 1 -13 2 -30 1 -30 1 0 48 0 47 -145 0 -144 0 12 -12z"/>
</g>
</svg>
