<?xml version="1.0" standalone="no"?>
<!DOCTYPE svg PUBLIC "-//W3C//DTD SVG 20010904//EN"
 "http://www.w3.org/TR/2001/REC-SVG-20010904/DTD/svg10.dtd">
<svg version="1.0" xmlns="http://www.w3.org/2000/svg"
 width="37.000000pt" height="43.000000pt" viewBox="0 0 37.000000 43.000000"
 preserveAspectRatio="xMidYMid meet">
<metadata>
Created by potrace 1.16, written by Peter Selinger 2001-2019
</metadata>
<g transform="translate(0.000000,43.000000) scale(0.100000,-0.100000)"
fill="#000000" stroke="none">
<path d="M133 419 l-23 -8 6 -30 6 -30 -53 -3 -54 -3 -3 -22 -3 -22 17 -26 17
-26 26 3 26 3 3 -23 4 -23 -13 -15 -12 -15 -40 6 -39 7 4 -53 3 -54 50 -3 50
-3 10 -10 9 -9 1 -27 0 -28 19 -3 20 -4 13 18 13 18 0 23 0 23 55 0 55 0 -1 8
-1 7 1 49 1 48 24 -6 24 -6 12 15 12 14 -4 18 -3 18 -23 1 -23 1 -7 7 -7 7
-10 42 -11 42 -34 3 -35 2 -22 5 -23 5 0 30 0 29 -7 4 -8 5 -22 -9z"/>
</g>
</svg>
