<?xml version="1.0" standalone="no"?>
<!DOCTYPE svg PUBLIC "-//W3C//DTD SVG 20010904//EN"
 "http://www.w3.org/TR/2001/REC-SVG-20010904/DTD/svg10.dtd">
<svg version="1.0" xmlns="http://www.w3.org/2000/svg"
 width="33.000000pt" height="36.000000pt" viewBox="0 0 33.000000 36.000000"
 preserveAspectRatio="xMidYMid meet">
<metadata>
Created by potrace 1.16, written by Peter Selinger 2001-2019
</metadata>
<g transform="translate(0.000000,36.000000) scale(0.100000,-0.100000)"
fill="#000000" stroke="none">
<path d="M137 353 l-7 -6 0 -38 0 -38 -55 6 -56 6 3 -69 3 -69 35 0 35 0 0
-15 0 -15 -45 0 -45 0 1 -47 0 -48 5 -4 4 -4 153 -4 152 -3 6 31 6 31 -4 29
-3 29 -37 3 -38 3 0 15 0 15 35 -7 35 -6 6 16 6 16 -7 56 -7 55 -38 -6 -39 -7
-21 7 -20 6 0 35 0 34 -28 0 -29 0 -6 -7z"/>
</g>
</svg>
