<?xml version="1.0" standalone="no"?>
<!DOCTYPE svg PUBLIC "-//W3C//DTD SVG 20010904//EN"
 "http://www.w3.org/TR/2001/REC-SVG-20010904/DTD/svg10.dtd">
<svg version="1.0" xmlns="http://www.w3.org/2000/svg"
 width="37.000000pt" height="35.000000pt" viewBox="0 0 37.000000 35.000000"
 preserveAspectRatio="xMidYMid meet">
<metadata>
Created by potrace 1.16, written by Peter Selinger 2001-2019
</metadata>
<g transform="translate(0.000000,35.000000) scale(0.100000,-0.100000)"
fill="#000000" stroke="none">
<path d="M127 344 l-7 -7 0 -33 0 -32 -60 5 -60 6 0 -72 0 -71 40 6 40 7 0
-12 0 -11 -24 0 -24 0 -16 -6 -16 -6 0 -53 0 -54 148 -3 147 -3 11 3 11 3 12
40 12 39 15 0 15 0 -3 53 -3 52 -32 3 -33 3 0 39 0 39 -49 -6 -50 -6 -3 39 -3
39 -30 3 -31 3 -7 -7z"/>
</g>
</svg>
