<?xml version="1.0" standalone="no"?>
<!DOCTYPE svg PUBLIC "-//W3C//DTD SVG 20010904//EN"
 "http://www.w3.org/TR/2001/REC-SVG-20010904/DTD/svg10.dtd">
<svg version="1.0" xmlns="http://www.w3.org/2000/svg"
 width="35.000000pt" height="33.000000pt" viewBox="0 0 35.000000 33.000000"
 preserveAspectRatio="xMidYMid meet">
<metadata>
Created by potrace 1.16, written by Peter Selinger 2001-2019
</metadata>
<g transform="translate(0.000000,33.000000) scale(0.100000,-0.100000)"
fill="#000000" stroke="none">
<path d="M125 318 l-6 -14 3 -24 3 -25 -62 3 -63 4 0 -59 0 -59 39 4 39 4 7
-13 8 -12 -19 -14 -18 -13 -13 4 -13 5 -15 -5 -15 -6 0 -44 0 -43 141 -3 141
-3 8 5 7 5 12 37 13 38 14 0 15 0 -3 43 -3 42 -32 3 -33 3 0 37 0 37 -52 0
-53 0 0 35 0 35 -23 3 -22 3 -5 -13z"/>
</g>
</svg>
