<?xml version="1.0" standalone="no"?>
<!DOCTYPE svg PUBLIC "-//W3C//DTD SVG 20010904//EN"
 "http://www.w3.org/TR/2001/REC-SVG-20010904/DTD/svg10.dtd">
<svg version="1.0" xmlns="http://www.w3.org/2000/svg"
 width="43.000000pt" height="32.000000pt" viewBox="0 0 43.000000 32.000000"
 preserveAspectRatio="xMidYMid meet">
<metadata>
Created by potrace 1.16, written by Peter Selinger 2001-2019
</metadata>
<g transform="translate(0.000000,32.000000) scale(0.100000,-0.100000)"
fill="#000000" stroke="none">
<path d="M199 313 l-1 -8 -1 -25 -2 -25 -55 -5 -55 -5 -3 -48 -3 -48 -20 6
-19 6 -21 -6 -20 -7 3 -26 3 -27 22 1 23 1 4 -16 5 -16 6 -33 7 -32 138 0 139
0 3 48 3 47 25 1 25 1 13 1 12 2 0 21 0 22 -40 -6 -40 -5 -6 24 -6 25 6 29 5
29 -52 -2 -52 -2 2 29 2 30 -11 13 -10 13 -14 0 -14 0 -1 -7z"/>
</g>
</svg>
