<?xml version="1.0" standalone="no"?>
<!DOCTYPE svg PUBLIC "-//W3C//DTD SVG 20010904//EN"
 "http://www.w3.org/TR/2001/REC-SVG-20010904/DTD/svg10.dtd">
<svg version="1.0" xmlns="http://www.w3.org/2000/svg"
 width="36.000000pt" height="33.000000pt" viewBox="0 0 36.000000 33.000000"
 preserveAspectRatio="xMidYMid meet">
<metadata>
Created by potrace 1.16, written by Peter Selinger 2001-2019
</metadata>
<g transform="translate(0.000000,33.000000) scale(0.100000,-0.100000)"
fill="#000000" stroke="none">
<path d="M197 310 l5 -20 -12 -15 -12 -15 -49 0 -48 0 2 -52 2 -53 -37 3 -38
4 -2 -11 -1 -11 -1 -12 -1 -13 40 -5 40 -5 -1 -47 0 -47 130 -3 131 -3 8 10 7
10 -2 35 -3 35 -29 0 -29 1 -11 16 -10 16 13 16 12 15 27 3 27 3 3 38 3 37
-13 1 -13 1 -40 2 -40 1 -1 27 -1 27 -13 16 -12 15 -18 0 -18 0 5 -20z"/>
</g>
</svg>
