<?xml version="1.0" standalone="no"?>
<!DOCTYPE svg PUBLIC "-//W3C//DTD SVG 20010904//EN"
 "http://www.w3.org/TR/2001/REC-SVG-20010904/DTD/svg10.dtd">
<svg version="1.0" xmlns="http://www.w3.org/2000/svg"
 width="45.000000pt" height="33.000000pt" viewBox="0 0 45.000000 33.000000"
 preserveAspectRatio="xMidYMid meet">
<metadata>
Created by potrace 1.16, written by Peter Selinger 2001-2019
</metadata>
<g transform="translate(0.000000,33.000000) scale(0.100000,-0.100000)"
fill="#000000" stroke="none">
<path d="M192 293 l3 -38 -57 -3 -58 -3 0 -39 0 -39 -38 -3 -37 -3 -3 -37 -3
-37 21 -11 20 -11 18 3 17 3 3 -37 3 -38 140 0 139 0 0 44 0 43 36 -1 36 -1
11 17 11 16 -12 26 -12 26 -35 0 -35 0 0 40 0 40 -4 0 -4 0 -28 -15 -29 -15
-16 0 -17 0 -5 14 -6 14 6 20 5 20 -11 21 -12 21 -25 0 -26 0 4 -37z"/>
</g>
</svg>
