<?xml version="1.0" standalone="no"?>
<!DOCTYPE svg PUBLIC "-//W3C//DTD SVG 20010904//EN"
 "http://www.w3.org/TR/2001/REC-SVG-20010904/DTD/svg10.dtd">
<svg version="1.0" xmlns="http://www.w3.org/2000/svg"
 width="29.000000pt" height="33.000000pt" viewBox="0 0 29.000000 33.000000"
 preserveAspectRatio="xMidYMid meet">
<metadata>
Created by potrace 1.16, written by Peter Selinger 2001-2019
</metadata>
<g transform="translate(0.000000,33.000000) scale(0.100000,-0.100000)"
fill="#000000" stroke="none">
<path d="M99 323 l-1 -8 2 -18 1 -18 -11 -15 -12 -14 -39 0 -39 0 0 -40 0 -40
35 0 35 0 12 -26 12 -26 -11 -16 -11 -17 -36 1 -36 1 0 -43 0 -44 140 0 139 0
6 34 7 34 -6 19 -6 20 -43 -1 -42 -1 -3 22 -3 23 13 1 13 2 25 1 25 1 3 42 3
42 -51 -6 -51 -6 3 38 2 37 -19 14 -19 14 -18 0 -18 0 -1 -7z"/>
</g>
</svg>
