<?xml version="1.0" standalone="no"?>
<!DOCTYPE svg PUBLIC "-//W3C//DTD SVG 20010904//EN"
 "http://www.w3.org/TR/2001/REC-SVG-20010904/DTD/svg10.dtd">
<svg version="1.0" xmlns="http://www.w3.org/2000/svg"
 width="38.000000pt" height="35.000000pt" viewBox="0 0 38.000000 35.000000"
 preserveAspectRatio="xMidYMid meet">
<metadata>
Created by potrace 1.16, written by Peter Selinger 2001-2019
</metadata>
<g transform="translate(0.000000,35.000000) scale(0.100000,-0.100000)"
fill="#000000" stroke="none">
<path d="M115 338 l-4 -13 2 -25 2 -25 -51 -3 -52 -3 -6 -22 -6 -22 0 -35 0
-35 9 -13 8 -13 37 6 36 7 0 -11 0 -11 -12 -1 -13 -1 -25 -1 -25 -2 -3 -57 -3
-58 150 0 151 0 6 39 6 40 27 3 26 3 0 50 0 50 -20 0 -20 1 -13 7 -12 8 0 34
0 35 -58 -6 -59 -7 5 32 4 31 -12 15 -12 15 -30 0 -29 0 -4 -12z"/>
</g>
</svg>
