<?xml version="1.0" standalone="no"?>
<!DOCTYPE svg PUBLIC "-//W3C//DTD SVG 20010904//EN"
 "http://www.w3.org/TR/2001/REC-SVG-20010904/DTD/svg10.dtd">
<svg version="1.0" xmlns="http://www.w3.org/2000/svg"
 width="36.000000pt" height="33.000000pt" viewBox="0 0 36.000000 33.000000"
 preserveAspectRatio="xMidYMid meet">
<metadata>
Created by potrace 1.16, written by Peter Selinger 2001-2019
</metadata>
<g transform="translate(0.000000,33.000000) scale(0.100000,-0.100000)"
fill="#000000" stroke="none">
<path d="M119 323 l-1 -8 -1 -30 -2 -30 -52 -3 -52 -3 -7 -34 -6 -35 6 -24 6
-24 40 5 40 6 0 -22 0 -21 -12 -2 -13 -1 -25 -1 -25 -1 -3 -47 -3 -48 140 0
141 0 6 39 6 40 27 3 26 3 0 40 0 40 -18 -3 -18 -3 -15 12 -14 11 0 32 0 32
-61 -4 -61 -5 7 32 7 32 -12 14 -12 15 -19 0 -19 0 -1 -7z"/>
</g>
</svg>
