<?xml version="1.0" standalone="no"?>
<!DOCTYPE svg PUBLIC "-//W3C//DTD SVG 20010904//EN"
 "http://www.w3.org/TR/2001/REC-SVG-20010904/DTD/svg10.dtd">
<svg version="1.0" xmlns="http://www.w3.org/2000/svg"
 width="45.000000pt" height="33.000000pt" viewBox="0 0 45.000000 33.000000"
 preserveAspectRatio="xMidYMid meet">
<metadata>
Created by potrace 1.16, written by Peter Selinger 2001-2019
</metadata>
<g transform="translate(0.000000,33.000000) scale(0.100000,-0.100000)"
fill="#000000" stroke="none">
<path d="M207 323 l-7 -6 0 -28 0 -29 -22 -5 -23 -5 -30 -2 -30 -3 -5 -40 -5
-40 -40 0 -40 0 -3 -42 -3 -41 20 -7 21 -6 10 6 10 6 4 -13 4 -13 6 -28 6 -27
141 0 140 0 -3 42 -3 43 27 -3 27 -3 20 11 21 11 0 19 0 19 -16 16 -17 16 -26
-3 -26 -3 0 40 0 40 -40 1 -40 1 -14 1 -13 2 5 26 4 25 -14 15 -14 14 -13 0
-13 0 -6 -7z"/>
</g>
</svg>
