<?xml version="1.0" standalone="no"?>
<!DOCTYPE svg PUBLIC "-//W3C//DTD SVG 20010904//EN"
 "http://www.w3.org/TR/2001/REC-SVG-20010904/DTD/svg10.dtd">
<svg version="1.0" xmlns="http://www.w3.org/2000/svg"
 width="47.000000pt" height="35.000000pt" viewBox="0 0 47.000000 35.000000"
 preserveAspectRatio="xMidYMid meet">
<metadata>
Created by potrace 1.16, written by Peter Selinger 2001-2019
</metadata>
<g transform="translate(0.000000,35.000000) scale(0.100000,-0.100000)"
fill="#000000" stroke="none">
<path d="M207 343 l-7 -6 0 -28 0 -29 -22 -5 -23 -5 -30 -2 -30 -3 -3 -37 -3
-37 -42 -3 -42 -3 -3 -49 -3 -49 13 -8 13 -9 23 0 22 0 0 -19 0 -19 6 -16 6
-16 150 0 150 0 -4 40 -4 40 29 0 28 0 20 10 19 11 0 29 0 29 -16 15 -15 16
-27 0 -27 0 0 37 0 38 -40 2 -40 1 -13 1 -12 1 6 24 5 23 -16 17 -16 16 -23 0
-23 0 -6 -7z"/>
</g>
</svg>
