<?xml version="1.0" standalone="no"?>
<!DOCTYPE svg PUBLIC "-//W3C//DTD SVG 20010904//EN"
 "http://www.w3.org/TR/2001/REC-SVG-20010904/DTD/svg10.dtd">
<svg version="1.0" xmlns="http://www.w3.org/2000/svg"
 width="40.000000pt" height="37.000000pt" viewBox="0 0 40.000000 37.000000"
 preserveAspectRatio="xMidYMid meet">
<metadata>
Created by potrace 1.16, written by Peter Selinger 2001-2019
</metadata>
<g transform="translate(0.000000,37.000000) scale(0.100000,-0.100000)"
fill="#000000" stroke="none">
<path d="M210 336 l0 -34 -16 -6 -16 -6 -44 0 -44 0 0 -33 0 -33 -11 -11 -12
-12 -28 6 -28 5 -7 -26 -6 -26 6 -15 5 -15 30 0 30 0 6 -37 6 -38 8 -15 8 -15
54 0 54 0 3 38 3 37 14 0 14 0 6 -21 7 -20 -6 -25 -6 -24 16 -7 16 -6 53 13
53 13 11 44 12 44 -7 10 -6 10 -32 -7 -33 -6 -16 17 -17 16 0 7 0 7 8 12 7 11
30 4 30 3 3 46 3 46 -39 11 -39 12 -16 0 -15 0 -11 30 -10 30 -15 0 -16 0 0
-34z"/>
</g>
</svg>
