<?xml version="1.0" standalone="no"?>
<!DOCTYPE svg PUBLIC "-//W3C//DTD SVG 20010904//EN"
 "http://www.w3.org/TR/2001/REC-SVG-20010904/DTD/svg10.dtd">
<svg version="1.0" xmlns="http://www.w3.org/2000/svg"
 width="29.000000pt" height="32.000000pt" viewBox="0 0 29.000000 32.000000"
 preserveAspectRatio="xMidYMid meet">
<metadata>
Created by potrace 1.16, written by Peter Selinger 2001-2019
</metadata>
<g transform="translate(0.000000,32.000000) scale(0.100000,-0.100000)"
fill="#000000" stroke="none">
<path d="M130 290 l0 -30 -61 0 -60 0 3 -47 3 -48 35 0 35 0 3 -27 3 -27 -43
-3 -43 -3 -3 -18 -4 -19 6 -31 6 -32 139 0 138 0 -5 40 -5 40 -11 10 -11 10
-25 0 -25 0 0 20 0 20 40 5 40 5 3 52 3 52 -48 6 -48 6 -15 8 -15 9 3 16 3 16
-21 0 -20 0 0 -30z"/>
</g>
</svg>
