<?xml version="1.0" standalone="no"?>
<!DOCTYPE svg PUBLIC "-//W3C//DTD SVG 20010904//EN"
 "http://www.w3.org/TR/2001/REC-SVG-20010904/DTD/svg10.dtd">
<svg version="1.0" xmlns="http://www.w3.org/2000/svg"
 width="43.000000pt" height="28.000000pt" viewBox="0 0 43.000000 28.000000"
 preserveAspectRatio="xMidYMid meet">
<metadata>
Created by potrace 1.16, written by Peter Selinger 2001-2019
</metadata>
<g transform="translate(0.000000,28.000000) scale(0.100000,-0.100000)"
fill="#000000" stroke="none">
<path d="M269 271 l-1 -6 1 -9 2 -8 -6 -19 -6 -19 -18 -9 -18 -10 -22 6 -23 6
5 19 5 18 -18 10 -19 10 -31 0 -32 0 6 -44 7 -45 -48 -3 -48 -3 0 -25 0 -25
32 -3 32 -3 7 -45 7 -46 11 -3 11 -4 128 -3 127 -3 -6 15 -6 15 -5 36 -5 36
28 -4 29 -4 19 14 19 14 -7 26 -6 27 -30 0 -30 0 0 40 0 40 -7 0 -8 0 -37 9
-38 9 -1 -7z"/>
</g>
</svg>
