<?xml version="1.0" standalone="no"?>
<!DOCTYPE svg PUBLIC "-//W3C//DTD SVG 20010904//EN"
 "http://www.w3.org/TR/2001/REC-SVG-20010904/DTD/svg10.dtd">
<svg version="1.0" xmlns="http://www.w3.org/2000/svg"
 width="30.000000pt" height="29.000000pt" viewBox="0 0 30.000000 29.000000"
 preserveAspectRatio="xMidYMid meet">
<metadata>
Created by potrace 1.16, written by Peter Selinger 2001-2019
</metadata>
<g transform="translate(0.000000,29.000000) scale(0.100000,-0.100000)"
fill="#000000" stroke="none">
<path d="M0 151 l0 -139 143 -4 142 -3 7 5 8 6 -8 59 -7 60 -38 3 -38 3 4 12
4 12 39 0 39 0 3 53 3 52 -26 10 -26 10 -45 0 -46 0 6 -28 7 -27 -14 -19 -14
-19 -15 5 -15 6 5 31 4 31 -13 4 -14 4 -47 6 -48 6 0 -139z"/>
</g>
</svg>
