<?xml version="1.0" standalone="no"?>
<!DOCTYPE svg PUBLIC "-//W3C//DTD SVG 20010904//EN"
 "http://www.w3.org/TR/2001/REC-SVG-20010904/DTD/svg10.dtd">
<svg version="1.0" xmlns="http://www.w3.org/2000/svg"
 width="30.000000pt" height="28.000000pt" viewBox="0 0 30.000000 28.000000"
 preserveAspectRatio="xMidYMid meet">
<metadata>
Created by potrace 1.16, written by Peter Selinger 2001-2019
</metadata>
<g transform="translate(0.000000,28.000000) scale(0.100000,-0.100000)"
fill="#000000" stroke="none">
<path d="M190 249 l0 -30 -15 -16 -16 -15 -13 11 -14 12 5 20 6 21 -14 9 -14
9 -53 0 -53 0 3 -62 3 -63 39 -1 40 0 3 -11 4 -12 -19 -10 -19 -10 -6 6 -6 5
-26 -6 -26 -7 3 -47 3 -47 148 -3 148 -3 -3 48 -3 48 -28 1 -28 1 -10 10 -11
11 4 23 3 24 38 3 37 3 0 48 0 49 -22 6 -23 6 -32 0 -33 0 0 -31z"/>
</g>
</svg>
