<?xml version="1.0" standalone="no"?>
<!DOCTYPE svg PUBLIC "-//W3C//DTD SVG 20010904//EN"
 "http://www.w3.org/TR/2001/REC-SVG-20010904/DTD/svg10.dtd">
<svg version="1.0" xmlns="http://www.w3.org/2000/svg"
 width="28.000000pt" height="26.000000pt" viewBox="0 0 28.000000 26.000000"
 preserveAspectRatio="xMidYMid meet">
<metadata>
Created by potrace 1.16, written by Peter Selinger 2001-2019
</metadata>
<g transform="translate(0.000000,26.000000) scale(0.100000,-0.100000)"
fill="#000000" stroke="none">
<path d="M194 236 l6 -23 -19 -22 -18 -21 -15 0 -16 0 -12 15 -12 15 6 17 7
16 -13 9 -13 8 -43 0 -43 0 3 -52 3 -53 40 0 40 0 3 -22 3 -22 -21 -11 -21
-11 -17 5 -17 6 -13 -9 -13 -8 3 -34 3 -34 138 -3 138 -3 -3 38 -3 38 -17 -3
-18 -3 -20 11 -21 11 3 37 3 37 38 3 37 3 0 38 0 39 -22 6 -23 6 -24 0 -23 0
6 -24z"/>
</g>
</svg>
