<?xml version="1.0" standalone="no"?>
<!DOCTYPE svg PUBLIC "-//W3C//DTD SVG 20010904//EN"
 "http://www.w3.org/TR/2001/REC-SVG-20010904/DTD/svg10.dtd">
<svg version="1.0" xmlns="http://www.w3.org/2000/svg"
 width="29.000000pt" height="28.000000pt" viewBox="0 0 29.000000 28.000000"
 preserveAspectRatio="xMidYMid meet">
<metadata>
Created by potrace 1.16, written by Peter Selinger 2001-2019
</metadata>
<g transform="translate(0.000000,28.000000) scale(0.100000,-0.100000)"
fill="#000000" stroke="none">
<path d="M240 273 l-25 -4 -24 -5 -23 -5 5 -20 5 -19 -19 -11 -19 -10 -10 6
-10 6 0 30 0 29 -55 0 -55 0 -6 -24 -6 -24 4 -28 3 -29 28 -1 29 -1 9 -14 9
-14 0 -12 0 -12 -19 -6 -19 -6 -11 -31 -11 -31 0 -18 0 -19 131 0 131 0 -7 46
-7 47 -5 14 -6 15 -19 -5 -19 -5 -6 15 -6 15 14 8 13 9 28 -6 28 -5 0 66 0 66
-12 -1 -13 -2 -25 -4z"/>
</g>
</svg>
