<?xml version="1.0" standalone="no"?>
<!DOCTYPE svg PUBLIC "-//W3C//DTD SVG 20010904//EN"
 "http://www.w3.org/TR/2001/REC-SVG-20010904/DTD/svg10.dtd">
<svg version="1.0" xmlns="http://www.w3.org/2000/svg"
 width="27.000000pt" height="26.000000pt" viewBox="0 0 27.000000 26.000000"
 preserveAspectRatio="xMidYMid meet">
<metadata>
Created by potrace 1.16, written by Peter Selinger 2001-2019
</metadata>
<g transform="translate(0.000000,26.000000) scale(0.100000,-0.100000)"
fill="#000000" stroke="none">
<path d="M240 253 l-25 -4 -22 -4 -21 -5 5 -20 5 -19 -25 -12 -26 -12 -15 6
-16 6 0 31 0 30 -45 0 -45 0 -6 -24 -6 -24 4 -18 3 -17 28 -1 28 -2 9 -14 10
-15 0 -18 0 -18 -14 -14 -14 -14 -5 5 -5 5 -11 -32 -11 -32 0 -8 0 -9 121 0
121 0 -7 32 -6 33 -5 16 -4 16 -23 -1 -22 -1 -3 27 -3 26 20 7 21 6 20 -6 20
-6 0 55 0 56 -2 -1 -3 -2 -25 -4z"/>
</g>
</svg>
