<?xml version="1.0" standalone="no"?>
<!DOCTYPE svg PUBLIC "-//W3C//DTD SVG 20010904//EN"
 "http://www.w3.org/TR/2001/REC-SVG-20010904/DTD/svg10.dtd">
<svg version="1.0" xmlns="http://www.w3.org/2000/svg"
 width="39.000000pt" height="33.000000pt" viewBox="0 0 39.000000 33.000000"
 preserveAspectRatio="xMidYMid meet">
<metadata>
Created by potrace 1.16, written by Peter Selinger 2001-2019
</metadata>
<g transform="translate(0.000000,33.000000) scale(0.100000,-0.100000)"
fill="#000000" stroke="none">
<path d="M182 306 l5 -25 -14 -5 -15 -6 -44 0 -44 0 0 -38 0 -38 -12 -12 -12
-12 -23 0 -23 0 0 -30 0 -29 19 -11 20 -10 26 0 26 0 -5 -17 -5 -18 -7 -28 -6
-28 158 3 159 3 3 53 3 52 -34 0 -35 0 -12 15 -12 15 34 0 35 0 6 33 5 33 -5
28 -6 27 -24 10 -24 9 -25 0 -24 0 0 25 0 25 -46 0 -46 0 4 -24z"/>
</g>
</svg>
