<?xml version="1.0" standalone="no"?>
<!DOCTYPE svg PUBLIC "-//W3C//DTD SVG 20010904//EN"
 "http://www.w3.org/TR/2001/REC-SVG-20010904/DTD/svg10.dtd">
<svg version="1.0" xmlns="http://www.w3.org/2000/svg"
 width="37.000000pt" height="31.000000pt" viewBox="0 0 37.000000 31.000000"
 preserveAspectRatio="xMidYMid meet">
<metadata>
Created by potrace 1.16, written by Peter Selinger 2001-2019
</metadata>
<g transform="translate(0.000000,31.000000) scale(0.100000,-0.100000)"
fill="#000000" stroke="none">
<path d="M185 289 l7 -21 -13 -9 -14 -9 -47 0 -48 0 0 -38 0 -38 -12 -12 -12
-12 -23 0 -23 0 0 -20 0 -19 19 -11 20 -10 25 0 26 0 0 -13 0 -12 -9 -33 -10
-33 147 3 147 3 3 44 3 43 -24 -6 -25 -6 -23 19 -22 18 5 15 6 15 31 -5 31 -4
1 28 1 29 -2 20 -2 20 -8 8 -8 9 -41 5 -41 6 0 23 0 24 -36 0 -35 0 6 -21z"/>
</g>
</svg>
