<?xml version="1.0" standalone="no"?>
<!DOCTYPE svg PUBLIC "-//W3C//DTD SVG 20010904//EN"
 "http://www.w3.org/TR/2001/REC-SVG-20010904/DTD/svg10.dtd">
<svg version="1.0" xmlns="http://www.w3.org/2000/svg"
 width="35.000000pt" height="31.000000pt" viewBox="0 0 35.000000 31.000000"
 preserveAspectRatio="xMidYMid meet">
<metadata>
Created by potrace 1.16, written by Peter Selinger 2001-2019
</metadata>
<g transform="translate(0.000000,31.000000) scale(0.100000,-0.100000)"
fill="#000000" stroke="none">
<path d="M118 283 l-3 -28 -58 -3 -57 -3 0 -49 0 -49 11 -7 12 -7 31 -1 31 -1
0 -20 0 -20 -24 0 -24 0 -13 -35 -12 -35 -1 -12 -1 -13 124 0 125 0 -2 42 -2
43 45 0 45 0 0 25 0 25 -35 0 -35 0 -5 60 -5 59 -35 11 -35 10 -13 8 -12 8 5
10 6 9 -30 0 -30 0 -3 -27z"/>
</g>
</svg>
