<?xml version="1.0" standalone="no"?>
<!DOCTYPE svg PUBLIC "-//W3C//DTD SVG 20010904//EN"
 "http://www.w3.org/TR/2001/REC-SVG-20010904/DTD/svg10.dtd">
<svg version="1.0" xmlns="http://www.w3.org/2000/svg"
 width="37.000000pt" height="33.000000pt" viewBox="0 0 37.000000 33.000000"
 preserveAspectRatio="xMidYMid meet">
<metadata>
Created by potrace 1.16, written by Peter Selinger 2001-2019
</metadata>
<g transform="translate(0.000000,33.000000) scale(0.100000,-0.100000)"
fill="#000000" stroke="none">
<path d="M118 303 l-3 -28 -58 -3 -57 -3 0 -59 0 -59 20 -11 21 -11 19 6 18 6
7 -11 6 -10 -26 0 -25 0 -11 -27 -11 -28 -5 -33 -6 -32 137 0 137 0 -3 42 -3
41 45 1 45 1 0 35 0 35 -37 3 -37 3 -3 57 -3 56 -40 12 -40 11 -3 16 -3 17
-39 0 -39 0 -3 -27z"/>
</g>
</svg>
