<?xml version="1.0" standalone="no"?>
<!DOCTYPE svg PUBLIC "-//W3C//DTD SVG 20010904//EN"
 "http://www.w3.org/TR/2001/REC-SVG-20010904/DTD/svg10.dtd">
<svg version="1.0" xmlns="http://www.w3.org/2000/svg"
 width="44.000000pt" height="36.000000pt" viewBox="0 0 44.000000 36.000000"
 preserveAspectRatio="xMidYMid meet">
<metadata>
Created by potrace 1.16, written by Peter Selinger 2001-2019
</metadata>
<g transform="translate(0.000000,36.000000) scale(0.100000,-0.100000)"
fill="#000000" stroke="none">
<path d="M190 337 l0 -23 -12 -12 -12 -12 -42 0 -43 0 -3 -47 -3 -48 -30 -3
-30 -4 -7 -11 -8 -12 0 -17 0 -17 16 -16 17 -16 36 2 36 3 -2 -11 -3 -12 -6
-40 -7 -41 62 0 61 0 0 35 0 35 9 0 9 0 5 -14 5 -13 52 -17 51 -17 10 7 10 6
-7 44 -6 44 36 0 35 0 11 20 10 20 -6 25 -6 25 -34 0 -33 0 -3 47 -3 47 -45
11 -45 11 -10 22 -10 22 -27 0 -28 0 0 -23z"/>
</g>
</svg>
