<?xml version="1.0" standalone="no"?>
<!DOCTYPE svg PUBLIC "-//W3C//DTD SVG 20010904//EN"
 "http://www.w3.org/TR/2001/REC-SVG-20010904/DTD/svg10.dtd">
<svg version="1.0" xmlns="http://www.w3.org/2000/svg"
 width="38.000000pt" height="37.000000pt" viewBox="0 0 38.000000 37.000000"
 preserveAspectRatio="xMidYMid meet">
<metadata>
Created by potrace 1.16, written by Peter Selinger 2001-2019
</metadata>
<g transform="translate(0.000000,37.000000) scale(0.100000,-0.100000)"
fill="#000000" stroke="none">
<path d="M131 361 l-14 -9 6 -31 7 -31 -60 0 -60 0 0 -54 0 -55 19 -6 18 -5
17 6 18 7 -4 -24 -3 -24 -38 -3 -37 -3 0 -59 0 -58 16 -6 16 -6 53 0 54 0 3
32 3 33 18 3 17 3 0 -20 0 -20 20 -11 21 -11 42 3 42 3 -2 47 -1 47 36 3 37 3
0 35 0 35 -26 3 -27 3 -6 22 -6 22 0 27 0 27 -57 -2 -58 -2 3 22 3 22 -11 21
-11 20 -17 0 -17 0 -14 -9z"/>
</g>
</svg>
