<?xml version="1.0" standalone="no"?>
<!DOCTYPE svg PUBLIC "-//W3C//DTD SVG 20010904//EN"
 "http://www.w3.org/TR/2001/REC-SVG-20010904/DTD/svg10.dtd">
<svg version="1.0" xmlns="http://www.w3.org/2000/svg"
 width="36.000000pt" height="35.000000pt" viewBox="0 0 36.000000 35.000000"
 preserveAspectRatio="xMidYMid meet">
<metadata>
Created by potrace 1.16, written by Peter Selinger 2001-2019
</metadata>
<g transform="translate(0.000000,35.000000) scale(0.100000,-0.100000)"
fill="#000000" stroke="none">
<path d="M132 343 l-13 -5 7 -34 6 -34 -61 0 -61 0 0 -45 0 -45 13 -1 12 -1
21 1 21 2 5 -19 5 -19 -9 -17 -9 -16 -35 0 -36 0 4 -48 3 -47 10 -7 10 -8 47
0 47 0 3 33 3 32 30 0 30 0 -3 -17 -3 -17 21 -11 21 -11 32 3 32 3 -3 47 -3
47 38 3 38 3 0 25 0 25 -26 3 -27 3 -6 22 -6 22 0 25 0 26 -57 -1 -58 0 0 30
-1 30 -7 13 -8 12 -7 -1 -7 -1 -13 -5z"/>
</g>
</svg>
