<?xml version="1.0" standalone="no"?>
<!DOCTYPE svg PUBLIC "-//W3C//DTD SVG 20010904//EN"
 "http://www.w3.org/TR/2001/REC-SVG-20010904/DTD/svg10.dtd">
<svg version="1.0" xmlns="http://www.w3.org/2000/svg"
 width="36.000000pt" height="25.000000pt" viewBox="0 0 36.000000 25.000000"
 preserveAspectRatio="xMidYMid meet">
<metadata>
Created by potrace 1.16, written by Peter Selinger 2001-2019
</metadata>
<g transform="translate(0.000000,25.000000) scale(0.100000,-0.100000)"
fill="#000000" stroke="none">
<path d="M88 203 l-3 -48 -40 0 -40 0 -3 -22 -3 -23 13 -1 13 -2 25 -1 25 -1
3 -30 2 -30 5 -23 5 -22 136 0 135 0 -3 48 -3 47 -29 0 -29 0 -10 17 -11 16
13 16 13 16 29 0 29 0 0 40 0 40 -17 -1 -18 -1 -30 -7 -30 -6 0 -25 0 -25 -45
0 -45 0 -3 38 -3 37 -39 0 -39 0 -3 -47z"/>
</g>
</svg>
