<?xml version="1.0" standalone="no"?>
<!DOCTYPE svg PUBLIC "-//W3C//DTD SVG 20010904//EN"
 "http://www.w3.org/TR/2001/REC-SVG-20010904/DTD/svg10.dtd">
<svg version="1.0" xmlns="http://www.w3.org/2000/svg"
 width="44.000000pt" height="25.000000pt" viewBox="0 0 44.000000 25.000000"
 preserveAspectRatio="xMidYMid meet">
<metadata>
Created by potrace 1.16, written by Peter Selinger 2001-2019
</metadata>
<g transform="translate(0.000000,25.000000) scale(0.100000,-0.100000)"
fill="#000000" stroke="none">
<path d="M80 205 l0 -45 -29 0 -29 0 -13 -16 -13 -16 11 -16 10 -17 29 0 29 0
3 -47 3 -48 139 0 139 0 11 41 11 40 17 -3 17 -3 13 8 12 8 0 23 0 24 -15 12
-14 12 -31 -7 -30 -7 0 51 0 51 -27 -5 -28 -6 -22 -5 -21 -4 5 -18 4 -18 -15
-13 -15 -12 -28 3 -28 3 0 28 0 28 -15 9 -15 10 -32 0 -33 0 0 -45z"/>
</g>
</svg>
