<?xml version="1.0" standalone="no"?>
<!DOCTYPE svg PUBLIC "-//W3C//DTD SVG 20010904//EN"
 "http://www.w3.org/TR/2001/REC-SVG-20010904/DTD/svg10.dtd">
<svg version="1.0" xmlns="http://www.w3.org/2000/svg"
 width="35.000000pt" height="25.000000pt" viewBox="0 0 35.000000 25.000000"
 preserveAspectRatio="xMidYMid meet">
<metadata>
Created by potrace 1.16, written by Peter Selinger 2001-2019
</metadata>
<g transform="translate(0.000000,25.000000) scale(0.100000,-0.100000)"
fill="#000000" stroke="none">
<path d="M0 199 l0 -51 30 7 31 7 14 -12 15 -12 0 -24 0 -23 -13 -8 -12 -8
-17 3 -16 3 -6 -21 -6 -20 -6 -20 -5 -20 123 0 124 0 -4 36 -4 36 13 9 14 9
17 -6 17 -5 21 11 21 11 -3 22 -3 22 -40 0 -40 0 -3 53 -3 52 -44 0 -44 0 -3
-32 -3 -33 -32 -3 -33 -3 0 35 0 36 -50 0 -50 0 0 -51z"/>
</g>
</svg>
