<?xml version="1.0" standalone="no"?>
<!DOCTYPE svg PUBLIC "-//W3C//DTD SVG 20010904//EN"
 "http://www.w3.org/TR/2001/REC-SVG-20010904/DTD/svg10.dtd">
<svg version="1.0" xmlns="http://www.w3.org/2000/svg"
 width="43.000000pt" height="25.000000pt" viewBox="0 0 43.000000 25.000000"
 preserveAspectRatio="xMidYMid meet">
<metadata>
Created by potrace 1.16, written by Peter Selinger 2001-2019
</metadata>
<g transform="translate(0.000000,25.000000) scale(0.100000,-0.100000)"
fill="#000000" stroke="none">
<path d="M78 203 l-3 -48 -25 -1 -25 -1 -13 -2 -13 -1 3 -22 3 -23 42 1 43 1
6 -20 6 -19 -7 -34 -6 -34 126 0 125 0 0 44 0 44 15 6 15 5 13 -5 13 -4 18 13
19 14 -8 12 -7 13 -39 -4 -39 -4 0 56 0 56 -42 -5 -43 -6 3 -23 3 -23 -11 -15
-12 -14 -29 0 -28 0 -7 12 -8 12 0 31 -1 30 -42 3 -42 3 -3 -48z"/>
</g>
</svg>
