<?xml version="1.0" standalone="no"?>
<!DOCTYPE svg PUBLIC "-//W3C//DTD SVG 20010904//EN"
 "http://www.w3.org/TR/2001/REC-SVG-20010904/DTD/svg10.dtd">
<svg version="1.0" xmlns="http://www.w3.org/2000/svg"
 width="35.000000pt" height="25.000000pt" viewBox="0 0 35.000000 25.000000"
 preserveAspectRatio="xMidYMid meet">
<metadata>
Created by potrace 1.16, written by Peter Selinger 2001-2019
</metadata>
<g transform="translate(0.000000,25.000000) scale(0.100000,-0.100000)"
fill="#000000" stroke="none">
<path d="M90 195 l0 -55 -39 0 -40 0 -7 -12 -7 -11 18 -13 17 -13 29 6 29 6 0
-52 0 -51 125 0 125 0 -6 28 -6 27 -4 13 -4 13 -10 -6 -10 -6 -21 6 -20 7 3
41 3 42 43 0 42 0 0 41 0 40 -42 -6 -43 -5 3 -19 4 -19 -14 -8 -13 -9 -21 0
-21 0 -18 20 -17 19 5 16 6 15 -44 0 -45 0 0 -55z"/>
</g>
</svg>
