<?xml version="1.0" standalone="no"?>
<!DOCTYPE svg PUBLIC "-//W3C//DTD SVG 20010904//EN"
 "http://www.w3.org/TR/2001/REC-SVG-20010904/DTD/svg10.dtd">
<svg version="1.0" xmlns="http://www.w3.org/2000/svg"
 width="37.000000pt" height="27.000000pt" viewBox="0 0 37.000000 27.000000"
 preserveAspectRatio="xMidYMid meet">
<metadata>
Created by potrace 1.16, written by Peter Selinger 2001-2019
</metadata>
<g transform="translate(0.000000,27.000000) scale(0.100000,-0.100000)"
fill="#000000" stroke="none">
<path d="M90 216 l0 -55 -42 -3 -43 -3 -3 -22 -3 -22 21 -11 22 -12 24 6 24 6
0 -50 0 -50 136 0 136 0 -7 42 -7 43 -5 8 -5 8 -16 -2 -17 -1 -13 1 -13 1 3
33 3 32 43 -2 42 -2 0 55 0 54 -42 -6 -43 -6 -14 -4 -13 -4 5 -20 5 -19 -20
-7 -19 -6 -19 17 -18 16 5 20 5 19 -56 0 -56 0 0 -54z"/>
</g>
</svg>
