<?xml version="1.0" standalone="no"?>
<!DOCTYPE svg PUBLIC "-//W3C//DTD SVG 20010904//EN"
 "http://www.w3.org/TR/2001/REC-SVG-20010904/DTD/svg10.dtd">
<svg version="1.0" xmlns="http://www.w3.org/2000/svg"
 width="33.000000pt" height="26.000000pt" viewBox="0 0 33.000000 26.000000"
 preserveAspectRatio="xMidYMid meet">
<metadata>
Created by potrace 1.16, written by Peter Selinger 2001-2019
</metadata>
<g transform="translate(0.000000,26.000000) scale(0.100000,-0.100000)"
fill="#000000" stroke="none">
<path d="M240 225 l0 -35 -25 -6 -25 -6 -14 5 -14 6 5 21 6 22 -14 9 -14 9
-38 0 -39 0 2 -27 2 -28 -1 -29 -1 -28 -31 4 -31 5 -6 -15 -5 -15 22 -18 23
-19 25 6 25 7 -3 -47 -4 -46 124 0 124 0 -7 37 -6 38 0 12 0 11 -18 -5 -18 -4
-14 16 -14 17 11 16 10 17 24 0 24 0 3 46 3 46 -32 7 -31 6 -14 0 -14 0 0 -35z"/>
</g>
</svg>
