<?xml version="1.0" standalone="no"?>
<!DOCTYPE svg PUBLIC "-//W3C//DTD SVG 20010904//EN"
 "http://www.w3.org/TR/2001/REC-SVG-20010904/DTD/svg10.dtd">
<svg version="1.0" xmlns="http://www.w3.org/2000/svg"
 width="35.000000pt" height="28.000000pt" viewBox="0 0 35.000000 28.000000"
 preserveAspectRatio="xMidYMid meet">
<metadata>
Created by potrace 1.16, written by Peter Selinger 2001-2019
</metadata>
<g transform="translate(0.000000,28.000000) scale(0.100000,-0.100000)"
fill="#000000" stroke="none">
<path d="M240 246 l0 -34 -16 -6 -16 -6 -9 0 -9 0 0 29 0 29 -16 6 -16 6 -44
0 -44 0 0 -55 0 -55 -32 2 -33 3 -3 -27 -3 -27 25 -17 26 -16 21 5 22 6 -7
-45 -6 -44 135 0 135 0 0 23 0 22 -7 38 -6 39 -18 -5 -18 -5 -12 14 -11 14 13
4 14 5 20 3 20 3 3 56 3 56 -32 7 -31 6 -24 0 -24 0 0 -34z"/>
</g>
</svg>
