<?xml version="1.0" standalone="no"?>
<!DOCTYPE svg PUBLIC "-//W3C//DTD SVG 20010904//EN"
 "http://www.w3.org/TR/2001/REC-SVG-20010904/DTD/svg10.dtd">
<svg version="1.0" xmlns="http://www.w3.org/2000/svg"
 width="29.000000pt" height="26.000000pt" viewBox="0 0 29.000000 26.000000"
 preserveAspectRatio="xMidYMid meet">
<metadata>
Created by potrace 1.16, written by Peter Selinger 2001-2019
</metadata>
<g transform="translate(0.000000,26.000000) scale(0.100000,-0.100000)"
fill="#000000" stroke="none">
<path d="M187 254 l-6 -6 5 -13 6 -13 -12 -21 -11 -21 -34 0 -35 0 0 35 0 35
-40 0 -40 0 -2 -25 -1 -25 -1 -17 -1 -18 26 3 26 3 17 -16 16 -16 0 -19 0 -19
-21 -11 -20 -11 -27 3 -27 3 1 -17 1 -18 1 -25 2 -25 136 0 136 0 -7 42 -7 43
-5 7 -4 8 -20 0 -19 0 0 31 0 31 19 -5 18 -4 17 9 16 9 0 35 0 35 -12 4 -13 3
-36 6 -35 6 -7 -6z"/>
</g>
</svg>
