<?xml version="1.0" standalone="no"?>
<!DOCTYPE svg PUBLIC "-//W3C//DTD SVG 20010904//EN"
 "http://www.w3.org/TR/2001/REC-SVG-20010904/DTD/svg10.dtd">
<svg version="1.0" xmlns="http://www.w3.org/2000/svg"
 width="31.000000pt" height="28.000000pt" viewBox="0 0 31.000000 28.000000"
 preserveAspectRatio="xMidYMid meet">
<metadata>
Created by potrace 1.16, written by Peter Selinger 2001-2019
</metadata>
<g transform="translate(0.000000,28.000000) scale(0.100000,-0.100000)"
fill="#000000" stroke="none">
<path d="M184 266 l-6 -17 5 -6 6 -6 -10 -18 -10 -19 -24 0 -25 0 0 35 0 35
-49 0 -49 0 -6 -45 -7 -45 6 -11 7 -11 23 6 24 6 15 -16 16 -15 0 -9 0 -9 -20
-11 -20 -10 -24 6 -24 6 -7 -11 -6 -11 7 -45 6 -45 145 0 146 0 -7 52 -7 52
-5 8 -5 8 -20 0 -19 0 0 20 0 19 14 -5 14 -6 21 12 21 11 0 44 0 44 -7 4 -8 5
-52 7 -53 7 -6 -16z"/>
</g>
</svg>
