<?xml version="1.0" standalone="no"?>
<!DOCTYPE svg PUBLIC "-//W3C//DTD SVG 20010904//EN"
 "http://www.w3.org/TR/2001/REC-SVG-20010904/DTD/svg10.dtd">
<svg version="1.0" xmlns="http://www.w3.org/2000/svg"
 width="44.000000pt" height="26.000000pt" viewBox="0 0 44.000000 26.000000"
 preserveAspectRatio="xMidYMid meet">
<metadata>
Created by potrace 1.16, written by Peter Selinger 2001-2019
</metadata>
<g transform="translate(0.000000,26.000000) scale(0.100000,-0.100000)"
fill="#000000" stroke="none">
<path d="M70 219 l0 -37 -15 -12 -15 -12 -14 5 -14 6 -6 -15 -6 -16 0 -18 0
-18 18 -4 17 -5 12 -46 13 -47 145 0 145 0 0 40 0 40 29 0 30 0 15 16 16 15 0
4 0 4 -10 26 -10 26 -32 -3 -33 -3 -3 38 -3 37 -27 0 -27 0 -22 -6 -22 -6 5
-13 6 -13 -12 -21 -11 -21 -22 0 -23 0 -12 12 -12 12 0 32 0 32 -50 4 -50 3 0
-36z"/>
</g>
</svg>
