<?xml version="1.0" standalone="no"?>
<!DOCTYPE svg PUBLIC "-//W3C//DTD SVG 20010904//EN"
 "http://www.w3.org/TR/2001/REC-SVG-20010904/DTD/svg10.dtd">
<svg version="1.0" xmlns="http://www.w3.org/2000/svg"
 width="46.000000pt" height="28.000000pt" viewBox="0 0 46.000000 28.000000"
 preserveAspectRatio="xMidYMid meet">
<metadata>
Created by potrace 1.16, written by Peter Selinger 2001-2019
</metadata>
<g transform="translate(0.000000,28.000000) scale(0.100000,-0.100000)"
fill="#000000" stroke="none">
<path d="M70 243 l0 -39 -11 -11 -11 -11 -15 5 -15 6 -9 -14 -9 -14 0 -31 0
-32 18 -4 17 -5 12 -46 13 -47 155 0 155 0 0 40 0 40 29 0 30 0 15 16 16 15 0
14 0 14 -10 25 -10 26 -35 0 -35 0 0 35 0 35 -37 0 -38 0 -23 -7 -24 -6 5 -18
5 -18 -13 -18 -14 -18 -18 11 -18 11 -3 37 -3 36 -37 0 -37 0 -22 6 -23 6 0
-39z"/>
</g>
</svg>
