<?xml version="1.0" standalone="no"?>
<!DOCTYPE svg PUBLIC "-//W3C//DTD SVG 20010904//EN"
 "http://www.w3.org/TR/2001/REC-SVG-20010904/DTD/svg10.dtd">
<svg version="1.0" xmlns="http://www.w3.org/2000/svg"
 width="29.000000pt" height="36.000000pt" viewBox="0 0 29.000000 36.000000"
 preserveAspectRatio="xMidYMid meet">
<metadata>
Created by potrace 1.16, written by Peter Selinger 2001-2019
</metadata>
<g transform="translate(0.000000,36.000000) scale(0.100000,-0.100000)"
fill="#000000" stroke="none">
<path d="M98 333 l-3 -28 -45 -5 -45 -5 -3 -142 -3 -143 66 0 65 0 0 36 0 35
18 -3 17 -3 3 -38 3 -38 52 3 52 3 -1 36 -1 36 -7 27 -7 28 -19 -5 -18 -5 -5
24 -4 23 7 11 8 12 22 -7 22 -7 9 13 9 14 0 48 0 47 -54 -6 -55 -7 -3 34 -3
34 -37 3 -37 3 -3 -28z"/>
</g>
</svg>
