<?xml version="1.0" standalone="no"?>
<!DOCTYPE svg PUBLIC "-//W3C//DTD SVG 20010904//EN"
 "http://www.w3.org/TR/2001/REC-SVG-20010904/DTD/svg10.dtd">
<svg version="1.0" xmlns="http://www.w3.org/2000/svg"
 width="27.000000pt" height="34.000000pt" viewBox="0 0 27.000000 34.000000"
 preserveAspectRatio="xMidYMid meet">
<metadata>
Created by potrace 1.16, written by Peter Selinger 2001-2019
</metadata>
<g transform="translate(0.000000,34.000000) scale(0.100000,-0.100000)"
fill="#000000" stroke="none">
<path d="M104 331 l7 -11 -11 -19 -10 -20 -43 -3 -42 -3 -3 -132 -3 -133 56 0
55 0 0 35 0 35 23 0 23 0 11 -11 12 -12 -6 -29 -6 -29 44 3 44 3 -2 30 -2 30
-6 22 -5 21 -19 -5 -18 -5 -6 31 -6 31 6 16 6 16 28 -4 28 -4 6 14 5 14 0 32
0 33 -55 -5 -55 -4 -1 13 -2 14 -1 20 -1 20 -29 3 -28 4 6 -11z"/>
</g>
</svg>
