<?xml version="1.0" standalone="no"?>
<!DOCTYPE svg PUBLIC "-//W3C//DTD SVG 20010904//EN"
 "http://www.w3.org/TR/2001/REC-SVG-20010904/DTD/svg10.dtd">
<svg version="1.0" xmlns="http://www.w3.org/2000/svg"
 width="40.000000pt" height="44.000000pt" viewBox="0 0 40.000000 44.000000"
 preserveAspectRatio="xMidYMid meet">
<metadata>
Created by potrace 1.16, written by Peter Selinger 2001-2019
</metadata>
<g transform="translate(0.000000,44.000000) scale(0.100000,-0.100000)"
fill="#000000" stroke="none">
<path d="M134 425 l-6 -15 5 -14 5 -14 -11 -11 -11 -11 -43 0 -43 0 -11 -24
-11 -24 9 -39 9 -38 32 -3 33 -3 -4 -12 -4 -12 -39 0 -39 0 -2 -62 -1 -62 31
-6 32 -5 30 -2 30 -3 5 -30 5 -30 45 0 45 0 3 27 3 28 43 0 44 0 6 31 6 31 0
24 0 23 27 3 28 3 8 25 9 25 -11 28 -11 27 -33 0 -34 0 1 38 1 37 -52 3 -53 3
0 33 0 34 -16 6 -16 6 -19 0 -20 0 -5 -15z"/>
</g>
</svg>
