<?xml version="1.0" standalone="no"?>
<!DOCTYPE svg PUBLIC "-//W3C//DTD SVG 20010904//EN"
 "http://www.w3.org/TR/2001/REC-SVG-20010904/DTD/svg10.dtd">
<svg version="1.0" xmlns="http://www.w3.org/2000/svg"
 width="38.000000pt" height="42.000000pt" viewBox="0 0 38.000000 42.000000"
 preserveAspectRatio="xMidYMid meet">
<metadata>
Created by potrace 1.16, written by Peter Selinger 2001-2019
</metadata>
<g transform="translate(0.000000,42.000000) scale(0.100000,-0.100000)"
fill="#000000" stroke="none">
<path d="M136 411 l-6 -9 6 -16 6 -16 -12 -15 -12 -15 -44 0 -43 0 -11 -20
-11 -20 9 -32 8 -33 33 -3 32 -3 -3 -22 -3 -22 -40 0 -40 0 0 -52 0 -52 23 -6
23 -6 8 5 8 5 29 -8 29 -7 5 -30 5 -29 35 0 35 0 0 25 0 25 40 6 40 7 7 -4 7
-4 6 47 6 48 4 12 4 11 20 -5 19 -5 11 20 11 21 -10 25 -10 26 -35 0 -36 0 3
38 3 37 -52 3 -53 3 0 33 0 34 -16 6 -16 6 -8 0 -9 0 -5 -9z"/>
</g>
</svg>
