<?xml version="1.0" standalone="no"?>
<!DOCTYPE svg PUBLIC "-//W3C//DTD SVG 20010904//EN"
 "http://www.w3.org/TR/2001/REC-SVG-20010904/DTD/svg10.dtd">
<svg version="1.0" xmlns="http://www.w3.org/2000/svg"
 width="35.000000pt" height="25.000000pt" viewBox="0 0 35.000000 25.000000"
 preserveAspectRatio="xMidYMid meet">
<metadata>
Created by potrace 1.16, written by Peter Selinger 2001-2019
</metadata>
<g transform="translate(0.000000,25.000000) scale(0.100000,-0.100000)"
fill="#000000" stroke="none">
<path d="M88 198 l-3 -53 -40 -5 -40 -5 0 -20 0 -20 25 0 25 0 12 -11 12 -11
3 -34 3 -34 129 -3 128 -3 -7 18 -6 18 -6 29 -6 29 -19 4 -18 5 0 18 0 18 6
16 6 15 14 -6 14 -5 15 12 15 12 0 35 0 36 -31 -7 -31 -6 -15 0 -14 0 6 -10 6
-10 -11 -20 -11 -20 -29 0 -30 0 0 35 0 35 -49 0 -50 0 -3 -52z"/>
</g>
</svg>
