<?xml version="1.0" standalone="no"?>
<!DOCTYPE svg PUBLIC "-//W3C//DTD SVG 20010904//EN"
 "http://www.w3.org/TR/2001/REC-SVG-20010904/DTD/svg10.dtd">
<svg version="1.0" xmlns="http://www.w3.org/2000/svg"
 width="31.000000pt" height="28.000000pt" viewBox="0 0 31.000000 28.000000"
 preserveAspectRatio="xMidYMid meet">
<metadata>
Created by potrace 1.16, written by Peter Selinger 2001-2019
</metadata>
<g transform="translate(0.000000,28.000000) scale(0.100000,-0.100000)"
fill="#000000" stroke="none">
<path d="M2 228 l3 -53 35 0 35 0 3 -24 4 -24 -14 -8 -13 -9 -27 0 -28 0 0
-50 0 -50 125 -2 125 -1 17 -1 16 -1 13 35 12 35 1 28 1 29 -39 -7 -39 -6 -7
20 -6 21 6 10 6 10 25 -6 24 -6 0 56 0 56 -59 0 -60 0 -3 -37 -3 -38 -17 -3
-18 -3 0 30 0 30 -19 11 -20 10 -41 0 -41 0 3 -52z"/>
</g>
</svg>
