<?xml version="1.0" standalone="no"?>
<!DOCTYPE svg PUBLIC "-//W3C//DTD SVG 20010904//EN"
 "http://www.w3.org/TR/2001/REC-SVG-20010904/DTD/svg10.dtd">
<svg version="1.0" xmlns="http://www.w3.org/2000/svg"
 width="35.000000pt" height="25.000000pt" viewBox="0 0 35.000000 25.000000"
 preserveAspectRatio="xMidYMid meet">
<metadata>
Created by potrace 1.16, written by Peter Selinger 2001-2019
</metadata>
<g transform="translate(0.000000,25.000000) scale(0.100000,-0.100000)"
fill="#000000" stroke="none">
<path d="M0 205 l0 -45 40 0 40 0 0 -24 0 -24 -6 -16 -6 -16 -23 0 -23 0 -6
-22 -6 -23 0 -17 0 -18 128 0 128 0 15 48 15 47 25 0 24 0 0 20 0 20 -31 1
-31 1 -12 7 -11 7 0 48 0 47 -41 -5 -41 -6 -12 -35 -11 -35 -18 -3 -18 -4 -14
12 -15 12 0 34 0 34 -45 0 -45 0 0 -45z"/>
</g>
</svg>
