<?xml version="1.0" standalone="no"?>
<!DOCTYPE svg PUBLIC "-//W3C//DTD SVG 20010904//EN"
 "http://www.w3.org/TR/2001/REC-SVG-20010904/DTD/svg10.dtd">
<svg version="1.0" xmlns="http://www.w3.org/2000/svg"
 width="37.000000pt" height="27.000000pt" viewBox="0 0 37.000000 27.000000"
 preserveAspectRatio="xMidYMid meet">
<metadata>
Created by potrace 1.16, written by Peter Selinger 2001-2019
</metadata>
<g transform="translate(0.000000,27.000000) scale(0.100000,-0.100000)"
fill="#000000" stroke="none">
<path d="M0 215 l0 -55 40 0 40 0 0 -14 0 -14 -6 -16 -6 -16 -23 0 -23 0 -6
-22 -6 -23 0 -27 0 -28 139 0 138 0 13 44 12 45 27 3 26 3 0 30 0 30 -40 5
-40 5 -3 53 -3 52 -42 -6 -42 -6 -12 -4 -13 -3 0 -19 0 -18 -14 -19 -14 -19
-16 13 -16 13 0 34 0 34 -55 0 -55 0 0 -55z"/>
</g>
</svg>
