<?xml version="1.0" standalone="no"?>
<!DOCTYPE svg PUBLIC "-//W3C//DTD SVG 20010904//EN"
 "http://www.w3.org/TR/2001/REC-SVG-20010904/DTD/svg10.dtd">
<svg version="1.0" xmlns="http://www.w3.org/2000/svg"
 width="30.000000pt" height="27.000000pt" viewBox="0 0 30.000000 27.000000"
 preserveAspectRatio="xMidYMid meet">
<metadata>
Created by potrace 1.16, written by Peter Selinger 2001-2019
</metadata>
<g transform="translate(0.000000,27.000000) scale(0.100000,-0.100000)"
fill="#000000" stroke="none">
<path d="M5 250 l-6 -19 7 -36 6 -35 29 0 28 0 5 -9 6 -9 -6 -16 -6 -16 -18 0
-19 0 -4 -17 -5 -18 -7 -37 -6 -38 146 0 145 0 0 48 0 48 -13 19 -14 18 -26
-5 -27 -5 0 13 0 14 13 1 12 1 25 1 25 2 0 55 0 55 -55 0 -55 0 -3 -30 -4 -30
-8 -8 -8 -9 -19 11 -20 10 5 30 4 31 -60 0 -61 0 -6 -20z"/>
</g>
</svg>
