<?xml version="1.0" standalone="no"?>
<!DOCTYPE svg PUBLIC "-//W3C//DTD SVG 20010904//EN"
 "http://www.w3.org/TR/2001/REC-SVG-20010904/DTD/svg10.dtd">
<svg version="1.0" xmlns="http://www.w3.org/2000/svg"
 width="28.000000pt" height="25.000000pt" viewBox="0 0 28.000000 25.000000"
 preserveAspectRatio="xMidYMid meet">
<metadata>
Created by potrace 1.16, written by Peter Selinger 2001-2019
</metadata>
<g transform="translate(0.000000,25.000000) scale(0.100000,-0.100000)"
fill="#000000" stroke="none">
<path d="M6 235 l-5 -15 6 -30 5 -30 29 0 28 0 6 -11 7 -10 -6 -25 -6 -24 -20
0 -20 0 -5 -28 -6 -27 -4 -17 -3 -18 134 0 134 0 0 38 0 37 -10 15 -9 15 -32
0 -32 0 -3 10 -4 10 10 15 9 15 33 0 33 0 0 45 0 45 -45 0 -45 0 -3 -33 -3
-33 -15 -6 -15 -6 -25 12 -26 11 7 30 7 30 -50 0 -50 0 -6 -15z"/>
</g>
</svg>
