<?xml version="1.0" standalone="no"?>
<!DOCTYPE svg PUBLIC "-//W3C//DTD SVG 20010904//EN"
 "http://www.w3.org/TR/2001/REC-SVG-20010904/DTD/svg10.dtd">
<svg version="1.0" xmlns="http://www.w3.org/2000/svg"
 width="36.000000pt" height="27.000000pt" viewBox="0 0 36.000000 27.000000"
 preserveAspectRatio="xMidYMid meet">
<metadata>
Created by potrace 1.16, written by Peter Selinger 2001-2019
</metadata>
<g transform="translate(0.000000,27.000000) scale(0.100000,-0.100000)"
fill="#000000" stroke="none">
<path d="M0 220 l0 -50 29 0 29 0 6 -16 6 -17 -11 -13 -10 -13 -16 6 -15 6 -9
-14 -9 -14 0 -47 0 -48 140 0 140 0 -3 47 -2 48 43 3 43 3 -3 37 -3 37 -37 3
-38 3 0 41 0 40 -36 -7 -36 -6 -24 -9 -24 -10 0 -20 0 -21 -22 3 -23 3 -3 38
-3 37 -55 0 -54 0 0 -50z"/>
</g>
</svg>
