<?xml version="1.0" standalone="no"?>
<!DOCTYPE svg PUBLIC "-//W3C//DTD SVG 20010904//EN"
 "http://www.w3.org/TR/2001/REC-SVG-20010904/DTD/svg10.dtd">
<svg version="1.0" xmlns="http://www.w3.org/2000/svg"
 width="47.000000pt" height="38.000000pt" viewBox="0 0 47.000000 38.000000"
 preserveAspectRatio="xMidYMid meet">
<metadata>
Created by potrace 1.16, written by Peter Selinger 2001-2019
</metadata>
<g transform="translate(0.000000,38.000000) scale(0.100000,-0.100000)"
fill="#000000" stroke="none">
<path d="M195 368 l-4 -13 2 -25 2 -25 -52 -3 -53 -3 0 -45 0 -44 -33 0 -33 0
-12 -12 -12 -12 0 -26 0 -27 18 -16 19 -17 27 0 28 0 -6 -45 -7 -45 59 0 60 0
11 14 12 15 -3 17 -3 18 18 4 17 3 0 -23 0 -23 8 -11 7 -11 63 -6 62 -5 0 59
0 59 34 0 34 0 6 16 6 16 0 23 0 24 -19 11 -20 10 -20 0 -21 0 0 36 0 36 -57
-4 -58 -3 3 24 4 23 -6 24 -6 24 -36 0 -35 0 -4 -12z"/>
</g>
</svg>
