<?xml version="1.0" standalone="no"?>
<!DOCTYPE svg PUBLIC "-//W3C//DTD SVG 20010904//EN"
 "http://www.w3.org/TR/2001/REC-SVG-20010904/DTD/svg10.dtd">
<svg version="1.0" xmlns="http://www.w3.org/2000/svg"
 width="45.000000pt" height="36.000000pt" viewBox="0 0 45.000000 36.000000"
 preserveAspectRatio="xMidYMid meet">
<metadata>
Created by potrace 1.16, written by Peter Selinger 2001-2019
</metadata>
<g transform="translate(0.000000,36.000000) scale(0.100000,-0.100000)"
fill="#000000" stroke="none">
<path d="M199 353 l-1 -8 -1 -30 -2 -30 -52 -3 -53 -3 0 -45 0 -44 -33 0 -33
0 -12 -12 -12 -12 0 -16 0 -17 20 -18 19 -17 27 5 26 5 -4 -49 -5 -49 48 0 48
0 8 12 8 13 -3 17 -3 17 21 11 21 11 15 -11 14 -12 -6 -9 -5 -9 6 -19 6 -19
54 -4 54 -3 3 60 3 60 32 -3 32 -3 7 27 7 27 -18 14 -19 13 -23 0 -23 0 0 35
0 35 -57 -2 -58 -3 2 25 2 25 -5 23 -4 22 -25 0 -25 0 -1 -7z"/>
</g>
</svg>
