<?xml version="1.0" standalone="no"?>
<!DOCTYPE svg PUBLIC "-//W3C//DTD SVG 20010904//EN"
 "http://www.w3.org/TR/2001/REC-SVG-20010904/DTD/svg10.dtd">
<svg version="1.0" xmlns="http://www.w3.org/2000/svg"
 width="44.000000pt" height="35.000000pt" viewBox="0 0 44.000000 35.000000"
 preserveAspectRatio="xMidYMid meet">
<metadata>
Created by potrace 1.16, written by Peter Selinger 2001-2019
</metadata>
<g transform="translate(0.000000,35.000000) scale(0.100000,-0.100000)"
fill="#000000" stroke="none">
<path d="M188 339 l-18 -10 0 -31 0 -31 -50 7 -50 7 0 -35 0 -35 -15 -14 -15
-15 -20 5 -20 5 0 -35 0 -35 15 -12 14 -12 21 7 22 7 -2 -44 -2 -43 1 -10 1
-10 58 5 57 5 -2 22 -2 21 13 11 13 11 17 -6 16 -6 0 -13 0 -14 8 -4 7 -5 48
-7 47 -7 1 38 0 39 7 15 7 15 35 0 35 0 0 25 0 24 -25 13 -25 13 -22 -3 -23
-4 6 38 6 39 -53 -3 -54 -2 -1 33 -1 34 -14 9 -14 9 -5 0 -5 -1 -17 -10z"/>
</g>
</svg>
