<?xml version="1.0" standalone="no"?>
<!DOCTYPE svg PUBLIC "-//W3C//DTD SVG 20010904//EN"
 "http://www.w3.org/TR/2001/REC-SVG-20010904/DTD/svg10.dtd">
<svg version="1.0" xmlns="http://www.w3.org/2000/svg"
 width="38.000000pt" height="37.000000pt" viewBox="0 0 38.000000 37.000000"
 preserveAspectRatio="xMidYMid meet">
<metadata>
Created by potrace 1.16, written by Peter Selinger 2001-2019
</metadata>
<g transform="translate(0.000000,37.000000) scale(0.100000,-0.100000)"
fill="#000000" stroke="none">
<path d="M14 356 l-5 -14 3 -43 3 -44 43 -3 42 -3 0 -18 0 -17 -12 -12 -12
-12 -38 0 -38 0 0 -22 0 -23 6 -38 7 -38 31 6 31 6 18 5 17 5 0 -40 0 -41 24
-6 24 -6 19 4 18 3 3 27 3 26 22 6 22 6 18 0 18 0 14 14 14 14 -6 36 -6 36 25
0 24 0 18 13 17 13 -3 44 -3 45 -32 -1 -32 -2 -3 42 -3 41 -143 3 -142 3 -6
-15z"/>
</g>
</svg>
