<?xml version="1.0" standalone="no"?>
<!DOCTYPE svg PUBLIC "-//W3C//DTD SVG 20010904//EN"
 "http://www.w3.org/TR/2001/REC-SVG-20010904/DTD/svg10.dtd">
<svg version="1.0" xmlns="http://www.w3.org/2000/svg"
 width="30.000000pt" height="31.000000pt" viewBox="0 0 30.000000 31.000000"
 preserveAspectRatio="xMidYMid meet">
<metadata>
Created by potrace 1.16, written by Peter Selinger 2001-2019
</metadata>
<g transform="translate(0.000000,31.000000) scale(0.100000,-0.100000)"
fill="#000000" stroke="none">
<path d="M191 301 l-14 -9 7 -25 6 -25 -16 -13 -16 -13 -16 11 -17 11 3 31 3
31 -61 0 -61 0 3 -62 3 -63 28 -3 27 -3 0 -10 0 -9 -35 0 -35 0 0 -59 0 -59 6
-15 6 -15 56 5 57 6 18 9 18 9 -6 31 -7 30 19 -4 18 -3 -3 -21 -3 -21 15 -12
15 -12 43 3 43 3 3 53 3 54 -29 -6 -28 -7 -18 20 -19 21 13 15 12 15 34 0 34
0 0 55 0 55 -27 0 -28 0 -20 5 -20 5 -14 -9z"/>
</g>
</svg>
