<?xml version="1.0" standalone="no"?>
<!DOCTYPE svg PUBLIC "-//W3C//DTD SVG 20010904//EN"
 "http://www.w3.org/TR/2001/REC-SVG-20010904/DTD/svg10.dtd">
<svg version="1.0" xmlns="http://www.w3.org/2000/svg"
 width="28.000000pt" height="29.000000pt" viewBox="0 0 28.000000 29.000000"
 preserveAspectRatio="xMidYMid meet">
<metadata>
Created by potrace 1.16, written by Peter Selinger 2001-2019
</metadata>
<g transform="translate(0.000000,29.000000) scale(0.100000,-0.100000)"
fill="#000000" stroke="none">
<path d="M191 282 l-10 -3 5 -27 6 -27 -21 -19 -20 -19 -27 18 -26 17 6 29 6
29 -51 0 -50 0 3 -52 3 -53 28 -3 27 -3 0 -20 0 -19 -35 0 -35 0 0 -49 0 -49
5 -14 6 -14 52 6 52 6 11 6 11 7 -5 31 -5 32 29 -4 29 -3 0 -22 1 -23 11 -11
10 -10 34 3 34 3 3 41 3 41 -26 -5 -26 -4 -19 17 -20 18 0 17 0 16 12 12 12
12 33 0 33 0 0 44 0 44 -39 4 -40 3 -10 -3z"/>
</g>
</svg>
