<?xml version="1.0" standalone="no"?>
<!DOCTYPE svg PUBLIC "-//W3C//DTD SVG 20010904//EN"
 "http://www.w3.org/TR/2001/REC-SVG-20010904/DTD/svg10.dtd">
<svg version="1.0" xmlns="http://www.w3.org/2000/svg"
 width="35.000000pt" height="29.000000pt" viewBox="0 0 35.000000 29.000000"
 preserveAspectRatio="xMidYMid meet">
<metadata>
Created by potrace 1.16, written by Peter Selinger 2001-2019
</metadata>
<g transform="translate(0.000000,29.000000) scale(0.100000,-0.100000)"
fill="#000000" stroke="none">
<path d="M168 243 l-3 -48 -30 0 -30 0 0 28 0 28 -15 9 -15 10 -32 0 -31 0 -7
-28 -6 -28 9 -24 9 -24 34 0 34 -1 0 -30 0 -30 -23 1 -22 1 -15 -51 -15 -50 0
-3 0 -3 44 0 45 0 8 12 7 13 1 20 0 20 16 3 16 3 5 -18 5 -19 57 -16 58 -16
-4 52 -3 51 29 3 29 4 15 14 14 15 -12 14 -13 15 -11 -1 -11 -1 -12 1 -13 1 0
53 0 52 -22 1 -23 0 -32 8 -32 7 -3 -48z"/>
</g>
</svg>
