<?xml version="1.0" standalone="no"?>
<!DOCTYPE svg PUBLIC "-//W3C//DTD SVG 20010904//EN"
 "http://www.w3.org/TR/2001/REC-SVG-20010904/DTD/svg10.dtd">
<svg version="1.0" xmlns="http://www.w3.org/2000/svg"
 width="29.000000pt" height="30.000000pt" viewBox="0 0 29.000000 30.000000"
 preserveAspectRatio="xMidYMid meet">
<metadata>
Created by potrace 1.16, written by Peter Selinger 2001-2019
</metadata>
<g transform="translate(0.000000,30.000000) scale(0.100000,-0.100000)"
fill="#000000" stroke="none">
<path d="M213 287 l-42 -10 -3 -26 -3 -26 -25 0 -25 0 -3 33 -3 32 -55 0 -54
0 0 -50 0 -50 23 0 23 0 18 -13 17 -13 -6 -17 -7 -17 -32 3 -31 2 -3 -67 -3
-68 40 0 40 0 25 9 25 10 3 33 4 33 11 -26 11 -25 44 -11 43 -11 23 -7 23 -8
-3 69 -3 69 -28 3 -28 3 4 12 4 12 26 3 27 3 0 65 0 64 -17 -1 -18 -1 -42 -11z"/>
</g>
</svg>
