<?xml version="1.0" standalone="no"?>
<!DOCTYPE svg PUBLIC "-//W3C//DTD SVG 20010904//EN"
 "http://www.w3.org/TR/2001/REC-SVG-20010904/DTD/svg10.dtd">
<svg version="1.0" xmlns="http://www.w3.org/2000/svg"
 width="27.000000pt" height="28.000000pt" viewBox="0 0 27.000000 28.000000"
 preserveAspectRatio="xMidYMid meet">
<metadata>
Created by potrace 1.16, written by Peter Selinger 2001-2019
</metadata>
<g transform="translate(0.000000,28.000000) scale(0.100000,-0.100000)"
fill="#000000" stroke="none">
<path d="M212 267 l-43 -10 6 -15 5 -15 -11 -13 -11 -14 -28 0 -28 0 -10 13
-11 13 6 22 5 22 -46 0 -46 0 0 -40 0 -40 23 0 23 0 19 -13 18 -14 -7 -27 -7
-27 -32 3 -32 3 -3 -57 -3 -58 30 0 30 0 25 10 26 10 0 30 0 30 15 0 15 0 10
-25 10 -25 17 0 18 -1 38 -13 38 -14 -3 57 -3 56 -25 3 -25 4 -9 8 -9 9 13 16
12 15 24 0 24 0 0 55 0 55 -7 -1 -8 -1 -43 -11z"/>
</g>
</svg>
