<?xml version="1.0" standalone="no"?>
<!DOCTYPE svg PUBLIC "-//W3C//DTD SVG 20010904//EN"
 "http://www.w3.org/TR/2001/REC-SVG-20010904/DTD/svg10.dtd">
<svg version="1.0" xmlns="http://www.w3.org/2000/svg"
 width="31.000000pt" height="31.000000pt" viewBox="0 0 31.000000 31.000000"
 preserveAspectRatio="xMidYMid meet">
<metadata>
Created by potrace 1.16, written by Peter Selinger 2001-2019
</metadata>
<g transform="translate(0.000000,31.000000) scale(0.100000,-0.100000)"
fill="#000000" stroke="none">
<path d="M186 274 l7 -36 -14 -9 -14 -9 -12 0 -11 0 5 20 5 20 -12 15 -12 15
-59 0 -59 0 0 -41 0 -40 10 -20 11 -19 19 0 20 0 0 -9 0 -10 -22 -3 -22 -3
-12 -65 -13 -65 0 -9 -1 -8 71 4 70 4 9 14 10 15 1 25 1 25 7 -30 6 -30 58 -9
58 -9 10 10 11 11 -14 48 -14 49 -22 3 -22 3 0 15 0 14 19 0 20 0 15 16 16 15
0 48 0 47 -33 12 -33 12 -33 0 -32 0 7 -36z"/>
</g>
</svg>
