<?xml version="1.0" standalone="no"?>
<!DOCTYPE svg PUBLIC "-//W3C//DTD SVG 20010904//EN"
 "http://www.w3.org/TR/2001/REC-SVG-20010904/DTD/svg10.dtd">
<svg version="1.0" xmlns="http://www.w3.org/2000/svg"
 width="29.000000pt" height="29.000000pt" viewBox="0 0 29.000000 29.000000"
 preserveAspectRatio="xMidYMid meet">
<metadata>
Created by potrace 1.16, written by Peter Selinger 2001-2019
</metadata>
<g transform="translate(0.000000,29.000000) scale(0.100000,-0.100000)"
fill="#000000" stroke="none">
<path d="M188 254 l4 -36 -13 -9 -14 -9 -24 0 -23 0 5 22 6 22 -11 13 -10 13
-49 0 -49 0 0 -31 0 -30 10 -20 11 -19 19 0 19 0 5 -9 6 -9 -6 -16 -6 -15 -21
2 -20 2 -12 -64 -12 -63 59 4 60 4 9 15 10 14 -5 28 -5 27 14 0 14 0 8 -12 7
-13 1 -20 0 -19 43 -9 44 -9 13 6 14 5 -12 43 -13 43 -21 3 -21 3 -6 15 -6 16
6 9 5 9 19 0 19 0 15 16 16 15 0 38 0 37 -33 12 -33 12 -20 0 -20 0 4 -36z"/>
</g>
</svg>
