<?xml version="1.0" standalone="no"?>
<!DOCTYPE svg PUBLIC "-//W3C//DTD SVG 20010904//EN"
 "http://www.w3.org/TR/2001/REC-SVG-20010904/DTD/svg10.dtd">
<svg version="1.0" xmlns="http://www.w3.org/2000/svg"
 width="30.000000pt" height="29.000000pt" viewBox="0 0 30.000000 29.000000"
 preserveAspectRatio="xMidYMid meet">
<metadata>
Created by potrace 1.16, written by Peter Selinger 2001-2019
</metadata>
<g transform="translate(0.000000,29.000000) scale(0.100000,-0.100000)"
fill="#000000" stroke="none">
<path d="M170 259 l0 -30 -10 -20 -11 -19 -19 0 -19 0 -7 11 -7 12 1 28 1 29
-51 0 -51 0 7 -42 7 -43 9 -9 9 -9 23 -1 23 -1 3 -18 4 -18 -12 -14 -12 -15
-23 6 -23 6 -3 -52 -4 -52 4 -4 4 -4 44 0 43 0 1 13 1 12 -2 23 -1 22 24 0 25
0 4 -18 5 -18 56 -15 55 -16 12 23 13 23 1 38 1 38 -37 0 -36 0 -8 8 -8 8 10
17 11 17 27 -3 26 -3 0 48 0 49 -45 12 -45 12 -10 0 -10 0 0 -31z"/>
</g>
</svg>
