<?xml version="1.0" standalone="no"?>
<!DOCTYPE svg PUBLIC "-//W3C//DTD SVG 20010904//EN"
 "http://www.w3.org/TR/2001/REC-SVG-20010904/DTD/svg10.dtd">
<svg version="1.0" xmlns="http://www.w3.org/2000/svg"
 width="29.000000pt" height="39.000000pt" viewBox="0 0 29.000000 39.000000"
 preserveAspectRatio="xMidYMid meet">
<metadata>
Created by potrace 1.16, written by Peter Selinger 2001-2019
</metadata>
<g transform="translate(0.000000,39.000000) scale(0.100000,-0.100000)"
fill="#000000" stroke="none">
<path d="M174 365 l6 -25 -10 -21 -11 -20 -17 3 -17 3 0 30 0 30 -62 3 -63 3
0 -61 0 -60 28 0 27 0 15 -10 15 -9 -11 -18 -11 -18 -32 -3 -32 -3 3 -52 3
-52 38 2 37 2 0 -28 0 -28 19 -17 19 -17 29 3 28 3 13 27 13 27 44 7 45 6 0
14 0 14 -9 18 -10 17 -6 38 -6 37 -29 0 -29 0 -6 10 -6 10 6 20 6 20 25 -6 24
-6 15 12 15 12 0 44 0 44 -26 10 -25 10 -31 0 -30 0 6 -25z"/>
</g>
</svg>
