<?xml version="1.0" standalone="no"?>
<!DOCTYPE svg PUBLIC "-//W3C//DTD SVG 20010904//EN"
 "http://www.w3.org/TR/2001/REC-SVG-20010904/DTD/svg10.dtd">
<svg version="1.0" xmlns="http://www.w3.org/2000/svg"
 width="36.000000pt" height="36.000000pt" viewBox="0 0 36.000000 36.000000"
 preserveAspectRatio="xMidYMid meet">
<metadata>
Created by potrace 1.16, written by Peter Selinger 2001-2019
</metadata>
<g transform="translate(0.000000,36.000000) scale(0.100000,-0.100000)"
fill="#000000" stroke="none">
<path d="M10 339 l0 -24 -6 -37 -6 -36 36 1 36 1 16 -16 16 -16 -7 -12 -7 -12
-33 6 -33 7 -5 -28 -6 -28 -6 -49 -7 -49 24 7 23 8 23 5 22 5 0 -24 0 -24 12
-12 12 -12 48 0 48 0 0 19 0 19 34 6 34 7 6 14 5 15 7 50 7 50 23 0 24 0 6 24
6 25 -7 10 -6 11 -19 0 -19 0 -11 19 -10 20 0 30 0 31 -50 0 -50 0 0 -30 0
-29 -22 -12 -21 -12 -13 18 -14 18 6 24 6 23 -38 0 -39 0 -22 6 -23 6 0 -23z"/>
</g>
</svg>
