<?xml version="1.0" standalone="no"?>
<!DOCTYPE svg PUBLIC "-//W3C//DTD SVG 20010904//EN"
 "http://www.w3.org/TR/2001/REC-SVG-20010904/DTD/svg10.dtd">
<svg version="1.0" xmlns="http://www.w3.org/2000/svg"
 width="40.000000pt" height="36.000000pt" viewBox="0 0 40.000000 36.000000"
 preserveAspectRatio="xMidYMid meet">
<metadata>
Created by potrace 1.16, written by Peter Selinger 2001-2019
</metadata>
<g transform="translate(0.000000,36.000000) scale(0.100000,-0.100000)"
fill="#000000" stroke="none">
<path d="M180 326 l0 -35 -10 -6 -10 -6 -19 6 -19 6 5 20 6 21 -14 9 -14 9
-37 0 -36 0 -16 -6 -16 -6 0 -43 0 -43 6 -16 6 -16 34 0 34 0 0 -14 0 -14 -20
-5 -20 -5 -6 -31 -6 -31 -14 -11 -14 -11 0 -19 0 -18 57 -3 58 -3 -3 -22 -3
-22 25 -7 24 -6 19 4 18 3 3 34 3 34 51 -6 51 -6 -6 49 -6 50 38 0 37 0 18 13
18 13 -4 34 -3 35 -35 0 -35 0 -7 10 -8 10 0 33 0 32 -26 10 -25 10 -40 0 -39
0 0 -34z"/>
</g>
</svg>
