<svg baseProfile="full" height="784" preserveAspectRatio="none" shape-rendering="geometricPrecision" version="1.1" viewBox="0,0,1180,784" width="1180" xmlns="http://www.w3.org/2000/svg" xmlns:ev="http://www.w3.org/2001/xml-events" xmlns:xlink="http://www.w3.org/1999/xlink"><title>Jigsaw puzzle piece clips</title><desc>Created with the piecemaker. Piece count: 117</desc><defs/><g><g><rect fill="white" height="784" width="1180" x="0" y="0"/></g></g><g><g><path d="M 0 0  L 90.769231 0  c -0.0,17.45600632505601 4.538461538461539,38.23501822113831 -3.9036480609780497,32.13724044336053
c -9.602052160244467,-5.226666666666667 -20.183155076892604,0 -20.183155076892604,11.418315112195025
c 0,9.238004525545037 3.6199865677728056,14.464671192211703 5.0340755419861765,9.238004525545037
c 11.8,-5.226666666666667 7.261538461538462,18.293333333333333 19.052727595884477,34.31755103001052 c -0.0,9.298133668412902 4.538461538461539,38.867866206201 -16.278308875809426,32.77008842842322
c -7.684070136886701,-5.226666666666667 -12.953837664847292,0 -12.953837664847292,10.785467127132335
c 0,8.545113429370488 7.154093403545377,13.771780096037155 21.777010675762938,8.545113429370488
c 11.8,-5.226666666666667 7.261538461538462,18.293333333333333 7.45513586489378,35.01044212618507 c -0.0,18.771195884707055 4.538461538461539,42.03163512328659 -8.564740198964651,35.93385734550881
c -8.70505916978936,-5.226666666666667 -20.282437492727375,0 -20.282437492727375,7.621698210046745
c 0,12.866065974359898 16.876188453612468,18.092732641026565 18.49844994487181,12.866065974359898
c 11.8,-5.226666666666667 7.261538461538462,18.293333333333333 10.348727746820217,30.68948958119566 c 0.0,10.176682100294958 -4.538461538461539,42.782413369747196 2.221019278919704,36.68463559196942
c 23.08861558141,-5.226666666666667 26.103803797817164,0 26.103803797817164,6.8709199635861395
c 0,9.844302366316988 -15.716546362802367,15.070969032983655 -23.721097826277067,9.844302366316988
c -11.8,-5.226666666666667 -7.261538461538462,18.293333333333333 -4.603725250459803,33.71125318923857 c -0.0,8.310956229940725 4.538461538461539,40.45716210096218 -6.404702551446704,34.3593843231844
c -17.229016789093727,-5.226666666666667 -20.082164253875046,0 -20.082164253875046,9.196171232371157
c 0,13.130129419623962 8.077438650978435,18.35679608629063 20.7214921758805,13.130129419623962
c 11.8,-5.226666666666667 7.261538461538462,18.293333333333333 5.765374629441251,30.425426135931595 c -0.0,20.142155859650515 4.538461538461539,43.39985021887798 -7.590304850079824,37.3020724411002
c -17.548714497462083,-5.226666666666667 -22.61678143607698,0 -22.61678143607698,6.253483114455356
c 0,6.915849799978403 7.716525499128796,12.14251646664507 22.672903043065368,6.915849799978403
c 11.8,-5.226666666666667 7.261538461538462,18.293333333333333 7.534183243091437,36.639705755577154 c -0.0,23.987017453904098 4.538461538461539,37.59612366909594 -14.913132644379647,31.49834589131816
c -3.462401744536139,-5.226666666666667 -8.82042936603866,0 -8.82042936603866,12.057209664237398
c 0,8.361117366436751 7.967934612875804,13.587784033103418 18.529559474557097,8.361117366436751
c 11.8,-5.226666666666667 7.261538461538462,18.293333333333333 5.2040025358612105,35.194438189118806 c 0.0,10.668682787573726 -4.538461538461539,41.03500390450905 3.590005888849397,34.93722612673127
c 15.309555214628833,-5.226666666666667 18.650324567270363,0 18.650324567270363,8.618329428824289
c 0,13.751038906940522 -2.421719953184433,18.97770557360719 -3.3011216796978324,13.751038906940522
c -11.8,-5.226666666666667 -7.261538461538462,18.293333333333333 -18.93920877642193,29.804516648615035 c -0.0,12.4669825005002 4.538461538461539,42.99787677247366 -17.998533471378764,36.90009899469588
c -5.741752802598072,-5.226666666666667 -5.848059660353506,0 -5.848059660353506,6.655456560859676
c 0,11.512827790224271 18.240685330021623,16.739494456890938 25.20966019669595,11.512827790224271
c 11.8,-5.226666666666667 7.261538461538462,18.293333333333333 -1.3630670649636798,32.042727765331286 L 0 784 " fill="none" stroke="black" stroke-width="0.1" style="vector-effect:non-scaling-stroke;"/></g><g><path d="M 0 0  L 181.538462 0  c -0.0,25.165638567305084 4.538461538461539,36.0505836307438 -16.39444880900113,29.952805852966023
c -12.68618842318695,-5.226666666666667 -13.564545560551164,0 -13.564545560551164,13.602749702589534
c 0,9.562232123971 10.959947809041378,14.788898790637667 23.23724485378181,9.562232123971
c 11.8,-5.226666666666667 7.261538461538462,18.293333333333333 6.721749515770483,33.99332343158456 c -0.0,14.508571876511263 4.538461538461539,40.80932749653178 -14.289588965386905,34.711549718754
c -5.053809244769703,-5.226666666666667 -12.42647187816338,0 -12.42647187816338,8.844005836801557
c 0,10.668795142866912 4.85380972494988,15.895461809533579 13.03522851018626,10.668795142866912
c 11.8,-5.226666666666667 7.261538461538462,18.293333333333333 13.680832333364025,32.886760412688645 c -0.0,7.661362465089228 4.538461538461539,40.22220480681482 -14.21519426851415,34.124427029037044
c -4.2391663778924675,-5.226666666666667 -11.411441085332545,0 -11.411441085332545,9.431128526518513
c 0,6.232284827130648 10.137399542396443,11.458951493797315 17.69896424552111,6.232284827130648
c 11.8,-5.226666666666667 7.261538461538462,18.293333333333333 7.927671108325583,37.32327072842491 c 0.0,23.445888337587657 -4.538461538461539,40.77081804058583 9.246463851116227,34.67304026280805
c 15.509148412504516,-5.226666666666667 18.663658690138533,0 18.663658690138533,8.882515292747506
c 0,7.507444725040166 -11.822376371462369,12.734111391706833 -23.496605955314994,7.507444725040166
c -11.8,-5.226666666666667 -7.261538461538462,18.293333333333333 -4.413516585939764,36.04811083051539 c -0.0,9.839747258609004 4.538461538461539,39.75952305898279 -17.93396607721248,33.661745281205015
c -1.1590270976231891,-5.226666666666667 -4.6480984502406315,0 -4.6480984502406315,9.893810274350542
c 0,12.311748794547704 21.548536429638588,17.53841546121437 22.86009029014985,12.311748794547704
c 11.8,-5.226666666666667 7.261538461538462,18.293333333333333 -0.2780257626967355,31.243806761007853 c -0.0,10.27374419833577 4.538461538461539,43.50289858060385 -7.796514507809487,37.40512080282607
c -12.846836684329705,-5.226666666666667 -18.842207537652442,0 -18.842207537652442,6.150434752729488
c 0,6.885979653848331 14.016429444928049,12.112646320514997 14.712577783469552,6.885979653848331
c 11.8,-5.226666666666667 7.261538461538462,18.293333333333333 11.926144261992377,36.669575901707226 c -0.0,25.01144602393108 4.538461538461539,41.913067532634 -2.2677867856579765,35.815289754856224
c -13.22899252306402,-5.226666666666667 -28.54921349210646,0 -28.54921349210646,7.7402658006993335
c 0,9.58292386068829 15.705441628607003,14.809590527354956 24.707192074033443,9.58292386068829
c 11.8,-5.226666666666667 7.261538461538462,18.293333333333333 6.109808203730992,33.97263169486727 c 0.0,22.666293563841197 -4.538461538461539,39.33473073088554 17.489387824620906,33.23695295310776
c 2.6336877570641564,-5.226666666666667 5.683935030441319,0 5.683935030441319,10.318602602447797
c 0,7.871914333436912 -7.018548343724581,13.098581000103579 -14.213552845504736,7.871914333436912
c -11.8,-5.226666666666667 -7.261538461538462,18.293333333333333 -8.959770009557488,35.683641222118645 c 0.0,13.725571110613394 -4.538461538461539,40.00795529847991 7.325933365435987,33.91017752070213
c 5.9436444996126125,-5.226666666666667 18.436727708399967,0 18.436727708399967,9.64537803485343
c 0,6.472668042421873 -13.78006603272117,11.69933470908854 -25.390507549159466,6.472668042421873
c -11.8,-5.226666666666667 -7.261538461538462,18.293333333333333 -0.372153524676488,37.082887513133684 L 0 784 " fill="none" stroke="black" stroke-width="0.1" style="vector-effect:non-scaling-stroke;"/></g><g><path d="M 0 0  L 272.307692 0  c -0.0,12.452187460608734 4.538461538461539,43.42520186505073 -1.1112228534938093,37.32742408727295
c -20.44933296704675,-5.226666666666667 -28.21636926044067,0 -28.21636926044067,6.228131468282605
c 0,11.276192424947688 7.135209764360342,16.502859091614354 15.182785173400063,11.276192424947688
c 11.8,-5.226666666666667 7.261538461538462,18.293333333333333 14.144806940534416,32.27936313060787 c 0.0,7.402303789808094 -4.538461538461539,43.519818952093374 15.13695513299046,37.422041174315595
c 9.132573831572158,-5.226666666666667 10.978021504843012,0 10.978021504843012,6.133514381239962
c 0,11.078643477705086 -19.97303385044315,16.305310144371752 -20.219961127300543,11.078643477705086
c -11.8,-5.226666666666667 -7.261538461538462,18.293333333333333 -5.895015510532929,32.47691207785047 c 0.0,23.39047142287411 -4.538461538461539,38.78001128709837 11.340641588975032,32.68223350932059
c 3.043357809100629,-5.226666666666667 14.1933971616387,0 14.1933971616387,10.873322046234968
c 0,8.601069454151613 -25.276440072175266,13.82773612081828 -27.048430420955444,8.601069454151613
c -11.8,-5.226666666666667 -7.261538461538462,18.293333333333333 1.5143916703417126,34.954486101403944 c 0.0,4.637751154255793 -4.538461538461539,42.44338024361617 18.367462131816957,36.34560246583839
c 3.788803342046188,-5.226666666666667 11.850154680348222,0 11.850154680348222,7.2099530897171675
c 0,10.844237426391338 -11.200778024026935,16.070904093058004 -23.359057951934428,10.844237426391338
c -11.8,-5.226666666666667 -7.261538461538462,18.293333333333333 -6.858558860230751,32.71131812916422 c 0.0,17.04044846129397 -4.538461538461539,43.45898271080524 9.876737123771278,37.36120493302746
c 16.10317988873295,-5.226666666666667 17.32977130686372,0 17.32977130686372,6.194350622528098
c 0,13.005675215873744 -17.551067857716443,18.23234188254041 -28.14557658224461,13.005675215873744
c -11.8,-5.226666666666667 -7.261538461538462,18.293333333333333 0.9390681516096109,30.549880339681813 c 0.0,14.010296874755179 -4.538461538461539,35.72960078069024 3.6756584433930795,29.631823002912462
c 10.086398487915105,-5.226666666666667 26.054742682318473,0 26.054742682318473,13.923732552643095
c 0,11.925454915455553 -10.340147861416428,17.15212158212222 -12.071760938081106,11.925454915455553
c -11.8,-5.226666666666667 -7.261538461538462,18.293333333333333 -17.658640187630446,31.630100640100004 c -0.0,17.68187160772026 4.538461538461539,36.130577644423475 -13.625733688674343,30.032799866645696
c -6.9620887950596355,-5.226666666666667 -10.264402263689098,0 -10.264402263689098,13.52275568890986
c 0,11.608528496246528 5.27769094574102,16.835195162913195 5.397226967524055,11.608528496246528
c 11.8,-5.226666666666667 7.261538461538462,18.293333333333333 18.492908984839385,31.94702705930903 c 0.0,12.023335301033026 -4.538461538461539,40.07832100531701 3.5824895030415753,33.98054322753923
c 22.57650181162531,-5.226666666666667 25.96140850045474,0 25.96140850045474,9.575012328016328
c 0,6.400225660870852 -25.34242424426335,11.626892327537519 -31.245670825233383,6.400225660870852
c -11.8,-5.226666666666667 -7.261538461538462,18.293333333333333 1.701772821737066,37.155329894684705 c -0.0,19.506104493798706 4.538461538461539,43.24857686155496 -8.459644701176442,37.15079908377718
c -15.949341674527984,-5.226666666666667 -18.392348210007995,0 -18.392348210007995,6.404756471778377
c 0,6.117789671906266 17.32736079444616,11.344456338572932 20.249628538500517,6.117789671906266
c 11.8,-5.226666666666667 7.261538461538462,18.293333333333333 6.6023643726839225,37.43776588364929 L 0 784 " fill="none" stroke="black" stroke-width="0.1" style="vector-effect:non-scaling-stroke;"/></g><g><path d="M 0 0  L 363.076923 0  c -0.0,25.260901334677794 4.538461538461539,37.405060683349284 -0.6440224674326618,31.307282905571505
c -15.460611319844581,-5.226666666666667 -25.587097969658107,0 -25.587097969658107,12.248272649984052
c 0,7.81343575782887 10.977261898613506,13.040102424495537 15.908873488524286,7.81343575782887
c 11.8,-5.226666666666667 7.261538461538462,18.293333333333333 10.322246948566484,35.74211979772669 c 0.0,5.787620008574635 -4.538461538461539,38.21159823035899 8.696447275731876,32.11382045258121
c 5.653921963006697,-5.226666666666667 19.7299347072231,0 19.7299347072231,11.441735102974349
c 0,12.34265766957762 -8.477820057378562,17.569324336244286 -16.48727634832546,12.34265766957762
c -11.8,-5.226666666666667 -7.261538461538462,18.293333333333333 -11.93910563462952,31.212897885977938 c -0.0,20.563369090858195 4.538461538461539,39.39112284297426 -19.962788637416967,33.29334506519648
c -1.6054168929728936,-5.226666666666667 -6.8252310675658805,0 -6.8252310675658805,10.262210490359074
c 0,11.864682784257468 6.301661767220959,17.091349450924135 7.945043171255342,11.864682784257468
c 11.8,-5.226666666666667 7.261538461538462,18.293333333333333 18.842976533727505,31.69087277129809 c 0.0,21.496208682450437 -4.538461538461539,39.90342784532981 8.179676670610572,33.80565006755203
c 4.926729840793887,-5.226666666666667 14.119931220846667,0 14.119931220846667,9.749905488003527
c 0,8.739015205932361 -8.575033722018945,13.965681872599028 -11.473051644300176,8.739015205932361
c -11.8,-5.226666666666667 -7.261538461538462,18.293333333333333 -10.826556247157063,34.816540349623196 c -0.0,17.899106857745842 4.538461538461539,43.385880374001644 -16.007643249450226,37.288102596223865
c -8.087933994538774,-5.226666666666667 -12.59521815284506,0 -12.59521815284506,6.267452959331692
c 0,12.397045504830032 13.910858340700852,17.6237121714967 22.05280519631861,12.397045504830032
c 11.8,-5.226666666666667 7.261538461538462,18.293333333333333 6.550056205976677,31.158510050725525 c 0.0,15.949398161050096 -4.538461538461539,42.533252126358335 14.554563704195559,36.435474348580556
c 3.4324489436654497,-5.226666666666667 8.283832927736462,0 8.283832927736462,7.1200812069750015
c 0,13.663972580913779 -15.344142873907197,18.890639247580445 -20.813453603233036,13.663972580913779
c -11.8,-5.226666666666667 -7.261538461538462,18.293333333333333 -2.024943028698985,29.89158297464178 c -0.0,20.02520295814258 4.538461538461539,36.09508884955116 -5.970197849296356,29.99731107177338
c -19.95579030842463,-5.226666666666667 -22.127097924559127,0 -22.127097924559127,13.558244483782175
c 0,13.523387430159218 11.181023315660198,18.750054096825885 29.336627129773216,13.523387430159218
c 11.8,-5.226666666666667 7.261538461538462,18.293333333333333 -1.2393313559177344,30.03216812539634 c -0.0,16.82125307921563 4.538461538461539,37.76488066482254 -3.3851775156022774,31.667102887044766
c -15.813867226995082,-5.226666666666667 -25.537083900160603,0 -25.537083900160603,11.88845266851079
c 0,7.530987155346544 9.9558979472489,12.75765382201321 23.35581232168844,7.530987155346544
c 11.8,-5.226666666666667 7.261538461538462,18.293333333333333 5.566449094074439,36.02456840020901 c 0.0,13.191789588907554 -4.538461538461539,41.043630078412015 3.224889263999592,34.945852300634236
c 22.22034047276161,-5.226666666666667 22.716357242039464,0 22.716357242039464,8.609703254921321
c 0,10.306834173666331 -15.919389731892563,15.533500840332998 -16.552138067981883,10.306834173666331
c -11.8,-5.226666666666667 -7.261538461538462,18.293333333333333 -9.389108438057175,33.248721381889226 L 0 784 " fill="none" stroke="black" stroke-width="0.1" style="vector-effect:non-scaling-stroke;"/></g><g><path d="M 0 0  L 453.846154 0  c -0.0,23.638250735465714 4.538461538461539,35.89684499075406 -10.930378617821285,29.799067212976286
c -16.014350048637915,-5.226666666666667 -17.72576401034177,0 -17.72576401034177,13.75648834257927
c 0,13.091675249315472 20.519284777459514,18.31834191598214 28.855571396883846,13.091675249315472
c 11.8,-5.226666666666667 7.261538461538462,18.293333333333333 -0.19942876872079296,30.463880306240085 c -0.0,24.640037911443684 4.538461538461539,39.89459397528345 -12.956312922865536,33.79681619750567
c -9.064508074433268,-5.226666666666667 -12.012217809137692,0 -12.012217809137692,9.758739358049887
c 0,8.792445095523505 10.715088806432016,14.019111762190171 17.53956208840482,8.792445095523505
c 11.8,-5.226666666666667 7.261538461538462,18.293333333333333 7.428968643598406,34.76311046003205 c 0.0,15.651501792222827 -4.538461538461539,39.01403910119217 -0.5865166611624087,32.91626132341439
c 30.805370317261485,-5.226666666666667 31.317257144376626,0 31.317257144376626,10.639294232141168
c 0,8.752638183551142 -11.517737245669842,13.979304850217808 -27.773850447247096,8.752638183551142
c -11.8,-5.226666666666667 -7.261538461538462,18.293333333333333 -2.9568900359671204,34.802917372004416 c -0.0,11.680795128630269 4.538461538461539,39.39282046296546 -5.696447296374364,33.29504268518768
c -22.80467372680256,-5.226666666666667 -24.55074410799888,0 -24.55074410799888,10.260512870367876
c 0,11.717440434451468 12.554951633844155,16.944107101118135 13.191440138433514,11.717440434451468
c 11.8,-5.226666666666667 7.261538461538462,18.293333333333333 17.055751265939733,31.83811512110409 c 0.0,24.73350820818275 -4.538461538461539,41.51101906492633 14.808656567233436,35.41324128714855
c 8.53519403641815,-5.226666666666667 8.679214624519725,0 8.679214624519725,8.142314268407006
c 0,9.04631607110398 -9.671709543149909,14.272982737770647 -14.99600949858686,9.04631607110398
c -11.8,-5.226666666666667 -7.261538461538462,18.293333333333333 -8.491861693166301,34.50923948445158 c 0.0,16.253390868262127 -4.538461538461539,38.77930068666767 3.165992792349098,32.68152290888989
c 13.402192747903925,-5.226666666666667 19.17902554306265,0 19.17902554306265,10.874032646665668
c 0,9.59986871243499 -4.186318710600123,14.826535379101657 -4.832967887002894,9.59986871243499
c -11.8,-5.226666666666667 -7.261538461538462,18.293333333333333 -17.512050448408853,33.95568684312057 c -0.0,20.93162973555517 4.538461538461539,40.31325840186942 -13.819806230871803,34.21548062409164
c -2.286093836850797,-5.226666666666667 -8.072229221052607,0 -8.072229221052607,9.340074931463917
c 0,11.246948434921556 8.848940302975,16.473615101588223 18.05268420259762,11.246948434921556
c 11.8,-5.226666666666667 7.261538461538462,18.293333333333333 3.839351249326789,32.308607120634 c 0.0,24.772389935881257 -4.538461538461539,39.97811894276033 11.225372799829215,33.88034116498255
c 15.557755406255398,-5.226666666666667 15.418333651753704,0 15.418333651753704,9.675214390573004
c 0,8.886325843060256 -5.125437398529616,14.112992509726922 -16.97389221811642,8.886325843060256
c -11.8,-5.226666666666667 -7.261538461538462,18.293333333333333 -9.6698142334665,34.6692297124953 c 0.0,15.332704742128833 -4.538461538461539,37.95915249077921 19.225432719349882,31.86137471300143
c 4.527110208263271,-5.226666666666667 8.34259661519981,0 8.34259661519981,11.694180842554125
c 0,10.220156101320143 -6.9830589396589655,15.44682276798681 -29.212439451869884,10.220156101320143
c -11.8,-5.226666666666667 -7.261538461538462,18.293333333333333 1.6444101173201915,33.335399454235414 L 0 784 " fill="none" stroke="black" stroke-width="0.1" style="vector-effect:non-scaling-stroke;"/></g><g><path d="M 0 0  L 544.615385 0  c -0.0,22.9718772678771 4.538461538461539,40.87371374672248 -17.033762646839257,34.7759359689447
c -5.681286965953831,-5.226666666666667 -7.615892061453696,0 -7.615892061453696,8.779619586610856
c 0,12.947054292153283 9.081814441954283,18.17372095881995 17.519494872119093,12.947054292153283
c 11.8,-5.226666666666667 7.261538461538462,18.293333333333333 7.13015983617386,30.608501263402275 c 0.0,5.077668654892107 -4.538461538461539,35.732330572836034 5.836539333217452,29.63455279505826
c 15.011428490647146,-5.226666666666667 24.352223571832145,0 24.352223571832145,13.921002760497299
c 0,11.621266752111637 -4.373937214289154,16.847933418778304 -10.966773807822054,11.621266752111637
c -11.8,-5.226666666666667 -7.261538461538462,18.293333333333333 -19.221989097227542,31.93428880344392 c 0.0,16.62769840704035 -4.538461538461539,36.19385705838218 5.082080438512522,30.096079280604403
c 17.399447916997836,-5.226666666666667 21.07489359020994,0 21.07489359020994,13.459476274951154
c 0,8.77913353920166 -7.1235903446595685,14.005800205868326 -9.190506480133095,8.77913353920166
c -11.8,-5.226666666666667 -7.261538461538462,18.293333333333333 -16.966467548589364,34.7764220163539 c -0.0,24.570855882215188 4.538461538461539,42.90982321872045 -11.755456373387121,36.81204544094267
c -10.950775564133654,-5.226666666666667 -18.36608594242763,0 -18.36608594242763,6.743510114612889
c 0,11.65983269930988 27.244626560462436,16.886499365976547 27.9087599123049,11.65983269930988
c 11.8,-5.226666666666667 7.261538461538462,18.293333333333333 2.2127824035098485,31.895722856245676 c 0.0,9.280957801564098 -4.538461538461539,41.78903218030783 14.54141934675455,35.69125440253005
c 4.322785607046383,-5.226666666666667 13.908144310593327,0 13.908144310593327,7.864301153025508
c 0,11.33308982837405 -12.976933307054482,16.559756495040716 -25.42675161526259,11.33308982837405
c -11.8,-5.226666666666667 -7.261538461538462,18.293333333333333 -3.022812042085288,32.22246572718151 c -0.0,16.987626082628847 4.538461538461539,40.48882511921223 -3.7949709227577815,34.39104734143445
c -21.124560296488585,-5.226666666666667 -24.747158047211226,0 -24.747158047211226,9.164508214121106
c 0,13.730553965514055 6.958789401190293,18.95722063218072 11.245634406848133,13.730553965514055
c 11.8,-5.226666666666667 7.261538461538462,18.293333333333333 17.296494563120874,29.825001590041502 c 0.0,11.026513567192481 -4.538461538461539,43.37574910011401 2.4288193338015485,37.27797132233623
c 15.645354432215456,-5.226666666666667 22.37194677164534,0 22.37194677164534,6.277584233219329
c 0,9.89682309229886 -9.62130584169322,15.123489758965526 -13.1283523120984,9.89682309229886
c -11.8,-5.226666666666667 -7.261538461538462,18.293333333333333 -11.67241379334849,33.6587324632567 c 0.0,11.167157659616912 -4.538461538461539,35.90443912565841 18.364031541532057,29.80666134788063
c 2.971484819731948,-5.226666666666667 5.3242612129782465,0 5.3242612129782465,13.748894207674926
c 0,9.567680663760605 -8.136999890557238,14.794347330427271 -8.098614079472526,9.567680663760605
c -11.8,-5.226666666666667 -7.261538461538462,18.293333333333333 -15.589678675037778,33.98787489179495 c 0.0,8.499348471815708 -4.538461538461539,40.325934214958 17.30805941144878,34.22815643718022
c 5.138975666529767,-5.226666666666667 6.670016502663739,0 6.670016502663739,9.32739911837534
c 0,8.777783948243872 -1.7974778061270191,14.004450614910539 -7.935521739973062,8.777783948243872
c -11.8,-5.226666666666667 -7.261538461538462,18.293333333333333 -16.042554174139458,34.777771607311685 L 0 784 " fill="none" stroke="black" stroke-width="0.1" style="vector-effect:non-scaling-stroke;"/></g><g><path d="M 0 0  L 635.384615 0  c 0.0,5.136967280471206 -4.538461538461539,40.88458585100628 12.842759635440453,34.7868080732285
c 5.799416507332994,-5.226666666666667 10.140606665683999,0 10.140606665683999,8.768747482327058
c 0,6.196159908577734 -1.9445180564114664,11.4228265752444 -4.867470011018042,6.196159908577734
c -11.8,-5.226666666666667 -7.261538461538462,18.293333333333333 -18.11589629010641,37.35939564697782 c 0.0,7.282737094825007 -4.538461538461539,39.11361033639678 9.769651957379441,33.015832558619
c 5.354719964263926,-5.226666666666667 14.957380128344955,0 14.957380128344955,10.539722996936554
c 0,13.600263623722228 -4.457850098445244,18.826930290388894 -8.422927144784854,13.600263623722228
c -11.8,-5.226666666666667 -7.261538461538462,18.293333333333333 -16.304104940939542,29.95529193183333 c -0.0,20.296085230602205 4.538461538461539,41.60506930355823 0.35450043099835576,35.50729152578045
c -29.515354237986287,-5.226666666666667 -31.00733377904817,0 -31.00733377904817,8.048264029775105
c 0,11.984721184819165 17.217693398812894,17.21138785148583 24.109935365490536,11.984721184819165
c 11.8,-5.226666666666667 7.261538461538462,18.293333333333333 6.542897982559278,31.570834370736392 c -0.0,23.002752172680946 4.538461538461539,42.496594345652774 -19.44086495383933,36.398816567874995
c -0.7712186857801869,-5.226666666666667 -2.691696334500829,0 -2.691696334500829,7.156738987680562
c 0,6.528177659187932 13.83410062999818,11.754844325854599 15.577394123518182,6.528177659187932
c 11.8,-5.226666666666667 7.261538461538462,18.293333333333333 6.555167164821977,37.027377896367625 c 0.0,5.822848810841993 -4.538461538461539,39.136573265304236 4.921106620112855,33.03879548752646
c 8.510297815369057,-5.226666666666667 19.857436936357853,0 19.857436936357853,10.5167600680291
c 0,7.014629730264225 -3.5677313636415415,12.241296396930892 -8.324299563797204,7.014629730264225
c -11.8,-5.226666666666667 -7.261538461538462,18.293333333333333 -16.454243992673504,36.54092582529133 c -0.0,23.866082006646348 4.538461538461539,40.29053232959 -3.1495438489492513,34.19275455181222
c -7.208751885532792,-5.226666666666667 -26.3993705716824,0 -26.3993705716824,9.362801003743336
c 0,11.7310786925948 5.25963505274723,16.957745359261466 11.035723957553689,11.7310786925948
c 11.8,-5.226666666666667 7.261538461538462,18.293333333333333 18.51319046307796,31.824476862960758 c 0.0,6.210050110424863 -4.538461538461539,38.13278074606222 3.8128051936913034,32.03500296828444
c 16.529314900591984,-5.226666666666667 20.90519942571392,0 20.90519942571392,11.52055258727112
c 0,8.52733057567768 -5.508269223039728,13.753997242344347 -13.837678932755166,8.52733057567768
c -11.8,-5.226666666666667 -7.261538461538462,18.293333333333333 -10.880325686650059,35.028224979877876 c -0.0,4.95960471604134 4.538461538461539,42.68191107514259 -10.884566264626294,36.58413329736481
c -9.07934547714737,-5.226666666666667 -15.759611466323861,0 -15.759611466323861,6.971422258190749
c 0,8.49277536466758 3.310916753450229,13.719442031334246 10.171487076242407,8.49277536466758
c 11.8,-5.226666666666667 7.261538461538462,18.293333333333333 16.472690654707748,35.06278019088798 c 0.0,18.69203220515922 -4.538461538461539,43.40395952081336 15.031343944579163,37.30618174303558
c 7.2536534347423105,-5.226666666666667 8.417677923612942,0 8.417677923612942,6.249373812519977
c 0,13.555297938590904 -9.879669262610223,18.78196460525757 -18.596161681836936,13.555297938590904
c -11.8,-5.226666666666667 -7.261538461538462,18.293333333333333 -4.852860186355169,30.000257616964653 L 0 784 " fill="none" stroke="black" stroke-width="0.1" style="vector-effect:non-scaling-stroke;"/></g><g><path d="M 0 0  L 726.153846 0  c 0.0,13.834875894797051 -4.538461538461539,39.42548932378651 10.24764982752472,33.32771154600873
c 15.31072466086338,-5.226666666666667 19.062776794362797,0 19.062776794362797,10.227844009546828
c 0,10.503098586399744 -11.626414682208637,15.729765253066411 -12.345956531101344,10.503098586399744
c -11.8,-5.226666666666667 -7.261538461538462,18.293333333333333 -16.964470090786172,33.05245696915581 c 0.0,6.081755338878833 -4.538461538461539,38.74336007011382 7.399346105896749,32.645582292336044
c 10.718682146241827,-5.226666666666667 22.500993199680977,0 22.500993199680977,10.909973263219513
c 0,6.702077673946597 -12.525695168344972,11.928744340613264 -13.95994420995665,6.702077673946597
c -11.8,-5.226666666666667 -7.261538461538462,18.293333333333333 -15.940395095621074,36.85347788160896 c -0.0,5.421900136472749 4.538461538461539,42.16595342945017 -5.8205059180250425,36.06817565167239
c -23.474928252134763,-5.226666666666667 -24.383496111484405,0 -24.383496111484405,7.487379903883166
c 0,12.467049124966088 15.816277460371055,17.693715791632755 18.700318974756613,12.467049124966088
c 11.8,-5.226666666666667 7.261538461538462,18.293333333333333 11.503683054752834,31.08850643058947 c 0.0,15.981641164735839 -4.538461538461539,39.62178947433736 18.575246028615858,33.52401169655958
c 8.025411579806596,-5.226666666666667 8.481596660320516,0 8.481596660320516,10.031543858995974
c 0,6.773082121115223 -10.275460392881918,11.99974878778189 -11.563459275539161,6.773082121115223
c -11.8,-5.226666666666667 -7.261538461538462,18.293333333333333 -15.493383413397213,36.782473434440334 c 0.0,8.044454117031243 -4.538461538461539,36.165321339214714 4.363269280606452,30.067543561436935
c 19.93917903497006,-5.226666666666667 25.99628780193268,0 25.99628780193268,13.488011994118622
c 0,12.03392577845019 -14.953288363182317,17.260592445116856 -16.704568192743917,12.03392577845019
c -11.8,-5.226666666666667 -7.261538461538462,18.293333333333333 -13.654988889795217,31.521629777105368 c 0.0,14.3183113735101 -4.538461538461539,36.58884502697084 4.876274709639828,30.49106724919306
c 11.01047232051497,-5.226666666666667 20.653137605235365,0 20.653137605235365,13.064488306362499
c 0,6.736328603861779 -12.46847779058744,11.962995270528445 -17.818791950276665,6.736328603861779
c -11.8,-5.226666666666667 -7.261538461538462,18.293333333333333 -7.71062036459853,36.81922695169378 c 0.0,21.915320387048304 -4.538461538461539,38.872723144159984 7.6153557665715885,32.774945366382205
c 8.436850980747376,-5.226666666666667 14.65468196295242,0 14.65468196295242,10.780610189173352
c 0,13.88966819107538 -12.320921244998253,19.116334857742046 -13.881226876707817,13.88966819107538
c -11.8,-5.226666666666667 -7.261538461538462,18.293333333333333 -8.388810852816192,29.665887364480177 c -0.0,19.58656517625086 4.538461538461539,40.23610214408321 -11.961932628941392,34.13832436630543
c -4.712572908304124,-5.226666666666667 -11.627000521578127,0 -11.627000521578127,9.417231189250124
c 0,9.93222709172904 4.354395251706187,15.158893758395706 19.179123864606836,9.93222709172904
c 11.8,-5.226666666666667 7.261538461538462,18.293333333333333 4.409809285912683,33.62332846382652 c -0.0,14.912553670578822 4.538461538461539,41.820298519869915 -19.5080482351701,35.72252074209214
c -3.2241808941249723,-5.226666666666667 -6.435617493039903,0 -6.435617493039903,7.833034813463421
c 0,9.56850609019915 6.495972492046055,14.795172756865817 26.749724296167845,9.56850609019915
c 11.8,-5.226666666666667 7.261538461538462,18.293333333333333 -0.8060585679578409,33.98704946535641 L 0 784 " fill="none" stroke="black" stroke-width="0.1" style="vector-effect:non-scaling-stroke;"/></g><g><path d="M 0 0  L 816.923077 0  c -0.0,19.938378958322502 4.538461538461539,40.17856295749846 -17.263866479844275,34.08078517972068
c -3.268149355675645,-5.226666666666667 -8.794919948034096,0 -8.794919948034096,9.47477037583488
c 0,11.331506028625014 4.990706762624923,16.55817269529168 16.08049605959728,11.331506028625014
c 11.8,-5.226666666666667 7.261538461538462,18.293333333333333 9.97829036828109,32.22404952693054 c 0.0,24.384815460595522 -4.538461538461539,40.64150197214066 6.356843312412517,34.54372419436288
c 5.637999512975755,-5.226666666666667 21.70246947503434,0 21.70246947503434,9.011831361192677
c 0,9.05735384951712 -6.5435884053111675,14.284020516183787 -10.668083820205613,9.05735384951712
c -11.8,-5.226666666666667 -7.261538461538462,18.293333333333333 -17.391228967241243,34.49820170603844 c 0.0,9.255894327252244 -4.538461538461539,40.71864481402796 11.754247190020315,34.62086703625018
c 15.914830635881955,-5.226666666666667 17.50442207550039,0 17.50442207550039,8.934688519305375
c 0,9.035563564836345 -11.20230517213906,14.262230231503011 -21.279797184003993,9.035563564836345
c -11.8,-5.226666666666667 -7.261538461538462,18.293333333333333 -7.9788720815167125,34.51999199071921 c 0.0,24.046599568711315 -4.538461538461539,40.67069584253739 14.747837695200015,34.57291806475961
c 7.148392039200022,-5.226666666666667 9.123988449023745,0 9.123988449023745,8.982637490795945
c 0,8.38379099530524 -8.411532333869856,13.610457661971907 -12.290869809061293,8.38379099530524
c -11.8,-5.226666666666667 -7.261538461538462,18.293333333333333 -11.580956335162467,35.17176456025032 c 0.0,7.986506978644212 -4.538461538461539,37.479124660024326 1.347053728937187,31.381346882246543
c 11.497658529391924,-5.226666666666667 23.76058527546887,0 23.76058527546887,12.174208673309014
c 0,7.175965456540467 -20.029987919810647,12.402632123207134 -20.09297181564295,7.175965456540467
c -11.8,-5.226666666666667 -7.261538461538462,18.293333333333333 -5.014667188763106,36.37959009901509 c 0.0,23.84614230766561 -4.538461538461539,40.473461525787826 4.202152830574871,34.37568374801005
c 6.812761727888311,-5.226666666666667 25.721575701284962,0 25.721575701284962,9.17987180754551
c 0,12.685319922330471 -10.627705386777377,17.911986588997138 -14.020653280888778,12.685319922330471
c -11.8,-5.226666666666667 -7.261538461538462,18.293333333333333 -15.903075250971055,30.870235633225086 c 0.0,11.078359613803615 -4.538461538461539,35.91229264916744 -0.39003094940532734,29.814514871389658
c 17.687242092594502,-5.226666666666667 22.6713669140982,0 22.6713669140982,13.741040684165899
c 0,6.272332525454544 -2.830819484723902,11.498999192121211 -13.41666305930113,6.272332525454544
c -11.8,-5.226666666666667 -7.261538461538462,18.293333333333333 -8.864672905391743,37.28322303010101 c -0.0,15.417962032055774 4.538461538461539,41.85031808469336 -17.03317077458388,35.752540306915584
c -8.41835201880524,-5.226666666666667 -8.683892637377397,0 -8.683892637377397,7.803015248639973
c 0,13.0696376379097 16.36715541616202,18.296304304576367 18.659386662737504,13.0696376379097
c 11.8,-5.226666666666667 7.261538461538462,18.293333333333333 7.0576767492237735,30.485917917645857 c -0.0,19.08763275737624 4.538461538461539,37.56663106871651 -18.063354299383594,31.468853290938732
c -12.009315587620886,-5.226666666666667 -12.775240417755878,0 -12.775240417755878,12.086702264616825
c 0,12.069095065208224 20.278425257344004,17.29576173187489 24.130195315400815,12.069095065208224
c 11.8,-5.226666666666667 7.261538461538462,18.293333333333333 6.708399401738657,31.486460490347334 L 0 784 " fill="none" stroke="black" stroke-width="0.1" style="vector-effect:non-scaling-stroke;"/></g><g><path d="M 0 0  L 907.692308 0  c 0.0,18.73197775669293 -4.538461538461539,37.97408808363548 4.121992379477582,31.8763103058577
c 25.265393476712003,-5.226666666666667 25.40842692867258,0 25.40842692867258,11.679245249697857
c 0,10.199741539667428 -25.342730453185716,15.426408206334095 -28.7304209901711,10.199741539667428
c -11.8,-5.226666666666667 -7.261538461538462,18.293333333333333 -0.7999983179790604,33.35581401588813 c 0.0,10.378971223326248 -4.538461538461539,41.24171998646056 10.609457887087753,35.14394220868278
c 4.882932757768553,-5.226666666666667 16.788250328809124,0 16.788250328809124,8.411613346872777
c 0,12.728745794985485 -5.55627167765753,17.955412461652152 -16.130268587690892,12.728745794985485
c -11.8,-5.226666666666667 -7.261538461538462,18.293333333333333 -11.267439628205985,30.82680976057007 c -0.0,17.7054000267306 4.538461538461539,39.4929471572886 -16.812165381377092,33.39516937951082
c -6.230226947812764,-5.226666666666667 -12.082156534134821,0 -12.082156534134821,10.160386176044739
c 0,10.552312603510401 6.670287829116622,15.778979270177068 9.515390423472212,10.552312603510401
c 11.8,-5.226666666666667 7.261538461538462,18.293333333333333 19.3789314920397,33.003242952045156 c 0.0,6.700781446500961 -4.538461538461539,43.34925940700132 13.017040536327983,37.25148162922354
c 10.076061897214126,-5.226666666666667 12.222621324738071,0 12.222621324738071,6.304073926332016
c 0,6.955459873382139 -3.5605586220544594,12.182126540048806 -16.42454017605406,6.955459873382139
c -11.8,-5.226666666666667 -7.261538461538462,18.293333333333333 -8.815121685011995,36.60009568217342 c -0.0,19.486286252746282 4.538461538461539,42.73237644802098 -3.9405947192587223,36.6345986702432
c -12.23497261269045,-5.226666666666667 -18.15432573458655,0 -18.15432573458655,6.920956885312357
c 0,9.858926138935182 2.0517765237348313,15.085592805601848 5.215396397018303,9.858926138935182
c 11.8,-5.226666666666667 7.261538461538462,18.293333333333333 16.87952405682697,33.696629416620375 c -0.0,5.659153465529954 4.538461538461539,42.70072915448869 -11.251166346028379,36.60295137671091
c -12.573695225290006,-5.226666666666667 -17.812725449113643,0 -17.812725449113643,6.952604178844645
c 0,7.601155752380109 5.028490157887494,12.827822419046775 22.119188358907405,7.601155752380109
c 11.8,-5.226666666666667 7.261538461538462,18.293333333333333 6.944703436234615,35.95439980317545 c -0.0,18.642230752624346 4.538461538461539,41.418048415861556 -1.480452258584046,35.32027063808378
c -7.3621835409149545,-5.226666666666667 -27.195074328515666,0 -27.195074328515666,8.23528491747178
c 0,10.650264653332648 13.75882313234111,15.876931319999315 28.99028372330683,10.650264653332648
c 11.8,-5.226666666666667 7.261538461538462,18.293333333333333 -0.3147571362071204,32.90529090222291 c -0.0,15.065733284714508 4.538461538461539,40.534881016127194 -15.939857857158717,34.437103238349415
c -5.897859731724516,-5.226666666666667 -8.295457739802174,0 -8.295457739802174,9.118452317206142
c 0,11.393414803494316 5.78239663149544,16.620081470160983 14.840843860591239,11.393414803494316
c 11.8,-5.226666666666667 7.261538461538462,18.293333333333333 9.394471736369653,32.16214075206124 c 0.0,9.3622766893993 -4.538461538461539,40.18892483382785 19.08528702479817,34.09114705605007
c 4.41059743210132,-5.226666666666667 8.764853548072729,0 8.764853548072729,9.464408499505488
c 0,6.114363947013466 -7.2047639034038164,11.341030613680132 -8.482059717124624,6.114363947013466
c -11.8,-5.226666666666667 -7.261538461538462,18.293333333333333 -19.368080855746275,37.44119160854209 L 0 784 " fill="none" stroke="black" stroke-width="0.1" style="vector-effect:non-scaling-stroke;"/></g><g><path d="M 0 0  L 998.461538 0  c -0.0,16.70610451736859 4.538461538461539,40.13950462153867 -8.47564943044738,34.04172684376089
c -14.429823165612914,-5.226666666666667 -17.66847344722665,0 -17.66847344722665,9.513828711794666
c 0,12.075651065548499 21.885789049988176,17.302317732215165 22.24767023627112,12.075651065548499
c 11.8,-5.226666666666667 7.261538461538462,18.293333333333333 3.8964526414029095,31.47990449000706 c 0.0,18.0369981896966 -4.538461538461539,38.63140352338427 11.049576109465969,32.53362574560649
c 8.547568639539026,-5.226666666666667 16.069179734605292,0 16.069179734605292,11.021929809949064
c 0,10.833331133180486 -11.604266855968493,16.059997799847153 -17.640492884950284,10.833331133180486
c -11.8,-5.226666666666667 -7.261538461538462,18.293333333333333 -9.478262959120975,32.72222442237507 c 0.0,16.72214846916165 -4.538461538461539,41.24208144149416 15.6244290382278,35.14430366371638
c 5.173334369901588,-5.226666666666667 11.825475023307776,0 11.825475023307776,8.411251891839179
c 0,7.293881587312846 -25.213225567095474,12.520548253979513 -28.930933421633497,7.293881587312846
c -11.8,-5.226666666666667 -7.261538461538462,18.293333333333333 1.4810293600979207,36.26167396824271 c -0.0,22.516366494209198 4.538461538461539,36.692409554701115 -16.67481296151916,30.594631776923336
c -8.65996774195323,-5.226666666666667 -10.870154272242285,0 -10.870154272242285,12.960923778632221
c 0,9.446715659599228 10.087947245956904,14.673382326265894 23.488232953512675,9.446715659599228
c 11.8,-5.226666666666667 7.261538461538462,18.293333333333333 4.056734280248769,34.10883989595633 c -0.0,24.008805645564816 4.538461538461539,39.057657974262476 -18.931296305751527,32.9598801964847
c -4.213351918333519,-5.226666666666667 -7.559875833514102,0 -7.559875833514102,10.59567535907086
c 0,10.524237210334626 14.035833984404363,15.750903877001292 14.44383137562786,10.524237210334626
c 11.8,-5.226666666666667 7.261538461538462,18.293333333333333 12.047340763637768,33.03131834522093 c -0.0,23.758409377969834 4.538461538461539,38.84754039641075 -19.685671372870054,32.74976261863297
c -2.5523517459923735,-5.226666666666667 -8.778883879878183,0 -8.778883879878183,10.805792936922586
c 0,13.925753198543909 21.17759234501021,19.152419865210575 25.539048423440118,13.925753198543909
c 11.8,-5.226666666666667 7.261538461538462,18.293333333333333 2.9255068293081194,29.62980235701165 c 0.0,25.233706550114768 -4.538461538461539,38.76382768303894 3.064475665363304,32.66604990526116
c 23.300998006790344,-5.226666666666667 25.070051906101536,0 25.070051906101536,10.889505650294396
c 0,9.433946352194269 -21.64868419906706,14.660613018860936 -25.72971891223083,9.433946352194269
c -11.8,-5.226666666666667 -7.261538461538462,18.293333333333333 -2.4048086592340105,34.12160920336129 c -0.0,17.772077480002242 4.538461538461539,37.784548624059425 -12.623597741024312,31.686770846281647
c -14.589615431455679,-5.226666666666667 -15.267521242721962,0 -15.267521242721962,11.86878470927391
c 0,8.246211995020381 15.745576068334694,13.472878661687048 17.800475943681498,8.246211995020381
c 11.8,-5.226666666666667 7.261538461538462,18.293333333333333 10.090643040064776,35.309343560535176 c 0.0,23.260184070856784 -4.538461538461539,42.0320459276877 15.639521080084645,35.93426814990992
c 6.854393145430247,-5.226666666666667 12.44677814427779,0 12.44677814427779,7.621287405645639
c 0,8.102040993493326 -5.929605371829751,13.328707660159992 -18.016220538757313,8.102040993493326
c -11.8,-5.226666666666667 -7.261538461538462,18.293333333333333 -10.070078685605122,35.45351456206223 L 0 784 " fill="none" stroke="black" stroke-width="0.1" style="vector-effect:non-scaling-stroke;"/></g><g><path d="M 0 0  L 1089.230769 0  c 0.0,16.155462596085197 -4.538461538461539,37.44975476967801 -1.2763631912019695,31.351976991900226
c 13.474961129159164,-5.226666666666667 26.22958608318759,0 26.22958608318759,12.20357856365533
c 0,10.381196739105427 -3.338982670557835,15.607863405772093 -10.28013274831245,10.381196739105427
c -11.8,-5.226666666666667 -7.261538461538462,18.293333333333333 -14.673090143673171,33.17435881645013 c -0.0,18.720094792062863 4.538461538461539,39.29184846600677 -5.684301280759153,33.19407068822899
c -17.08945926611919,-5.226666666666667 -23.04419263748034,0 -23.04419263748034,10.361484867326567
c 0,10.461438877549554 9.923914593744088,15.68810554421622 20.509822617548522,10.461438877549554
c 11.8,-5.226666666666667 7.261538461538462,18.293333333333333 8.218671300690971,33.094116678006 c 0.0,23.454092691847947 -4.538461538461539,36.487732454976836 0.34418229745612633,30.389954677199057
c 27.48929014653567,-5.226666666666667 29.500628661468806,0 29.500628661468806,13.1656008783565
c 0,13.666021588939415 -4.034770955084566,18.892688255606082 -16.72595326596123,13.666021588939415
c -11.8,-5.226666666666667 -7.261538461538462,18.293333333333333 -13.1188576929637,29.889533966616142 c -0.0,4.987372528840793 4.538461538461539,41.425677633708865 0.20439267907907238,35.327899855931086
c -14.627720766826803,-5.226666666666667 -28.847898479731292,0 -28.847898479731292,8.22765569962447
c 0,10.570459833832821 11.053182097463319,15.797126500499488 19.685450344799733,10.570459833832821
c 11.8,-5.226666666666667 7.261538461538462,18.293333333333333 8.958055455852488,32.985095721722736 c -0.0,6.025870522132807 4.538461538461539,39.31047323238227 -4.154942421126364,33.21269545460449
c -21.178460192297667,-5.226666666666667 -21.53074570917142,0 -21.53074570917142,10.342860100951064
c 0,12.800150196217196 8.447097131162938,18.026816862883862 9.209576497232746,12.800150196217196
c 11.8,-5.226666666666667 7.261538461538462,18.293333333333333 16.476111633065038,30.75540535933836 c -0.0,5.0190233785910765 4.538461538461539,42.89664938220663 1.4348259925075582,36.798871604428854
c -16.401958915705233,-5.226666666666667 -31.5752247959214,0 -31.5752247959214,6.756683951126703
c 0,9.182853461590078 8.377977988807388,14.409520128256744 13.496356004770725,9.182853461590078
c 11.8,-5.226666666666667 7.261538461538462,18.293333333333333 16.644042798643117,34.37270209396548 c -0.0,10.013328550500061 4.538461538461539,42.69606818329377 -0.5299249099807108,36.59829040551599
c -18.97318558538278,-5.226666666666667 -24.86750571140969,0 -24.86750571140969,6.957265150039568
c 0,7.323962504205049 3.3596400082051763,12.550629170871716 8.659646677396594,7.323962504205049
c 11.8,-5.226666666666667 7.261538461538462,18.293333333333333 16.737783943993808,36.23159305135051 c 0.0,22.38941508864471 -4.538461538461539,41.08236705313166 10.744895774501211,34.98458927535388
c 6.043838191041467,-5.226666666666667 15.299580123709758,0 15.299580123709758,8.570966280201674
c 0,6.353802940653168 -9.436634601847121,11.580469607319834 -11.337824743216013,6.353802940653168
c -11.8,-5.226666666666667 -7.261538461538462,18.293333333333333 -14.706651154994956,37.20175261490239 c -0.0,18.64257139092766 4.538461538461539,37.040133202440195 -8.841446056692622,30.942355424662416
c -15.143828835555288,-5.226666666666667 -15.063412374670726,0 -15.063412374670726,12.61320013089314
c 0,13.273869360859187 7.924610425358167,18.500536027525854 21.96269092693768,13.273869360859187
c 11.8,-5.226666666666667 7.261538461538462,18.293333333333333 1.9421675044256688,30.28168619469637 L 0 784 " fill="none" stroke="black" stroke-width="0.1" style="vector-effect:non-scaling-stroke;"/></g></g><g><g><path d="M 0 0  L 0 87.111111  c 18.602442910586834,-0.0 37.294901811741695,4.355555555555556 30.94105565789554,-11.64916445327198
c -5.446153846153846,-7.244156490883414 0,-9.285802592421478 14.443559726719847,-9.285802592421478
c 9.86689919462681,0 15.313053040780657,0.5983124921888304 9.86689919462681,2.5212313090302203
c -5.446153846153846,11.324444444444445 19.06153846153846,6.968888888888889 35.517716189988576,18.413735736663238 c 5.013427790012329,-0.0 37.534488750173296,4.355555555555556 31.18064259632714,-0.992572207554669
c -5.446153846153846,-8.383453066605787 0,-21.61190543020609 14.203972788288247,-21.61190543020609
c 6.615330370598748,0 12.061484216752595,8.595644058887993 6.615330370598748,14.62850375065133
c -5.446153846153846,11.324444444444445 19.06153846153846,6.968888888888889 38.76928501401664,7.975973887109429 c 4.819291361631061,0.0 37.5752616186158,-4.355555555555556 31.221415464769645,2.0734655593945077
c -5.446153846153846,19.068412576654225 0,25.693851728904747 14.163199919845741,25.693851728904747
c 6.360953090621791,0 11.807106936775638,-5.357507863956615 6.360953090621791,-10.599732409744508
c -5.446153846153846,-11.324444444444445 19.06153846153846,-6.968888888888889 39.023662293993596,-17.167584878554745 c 5.250550659192395,-0.0 42.941087466972384,4.355555555555556 36.58724131312623,-8.047513475196505
c -5.446153846153846,-15.344237263712383 0,-19.992722705666203 8.797374071489159,-19.992722705666203
c 14.434744462678601,0 19.88089830883245,5.963973004973783 14.434744462678601,17.09695357679269
c -5.446153846153846,11.324444444444445 19.06153846153846,6.968888888888889 30.949870921936785,10.943282604070017 c 13.99421611781566,-0.0 45.301607699700604,4.355555555555556 38.94776154585445,-2.3989646048746915
c -5.446153846153846,-14.633082021974007 0,-22.409610542363062 6.436853838760939,-22.409610542363062
c 6.355181131810809,0 11.801334977964656,11.871901808321216 6.355181131810809,17.69277421123448
c -5.446153846153846,11.324444444444445 19.06153846153846,6.968888888888889 39.02943425280458,7.115800936003275 c 6.4742867563753155,-0.0 37.806984422593196,4.355555555555556 31.453138268747043,-18.313301907769375
c -5.446153846153846,-7.928815452413095 0,-8.294109866608082 13.931477115868343,-8.294109866608082
c 14.0216396698413,0 19.467793515995147,14.433858642067333 14.0216396698413,14.957114158789489
c -5.446153846153846,11.324444444444445 19.06153846153846,6.968888888888889 31.362975714774088,11.650297615587968 c 23.201066338785914,-0.0 41.69756615888421,4.355555555555556 35.34372000503805,-7.983230871903884
c -5.446153846153846,-19.963113111522087 0,-20.39638325456421 10.040895379577336,-20.39638325456421
c 14.298220653625322,0 19.74437449977917,12.72442396360994 14.298220653625322,17.438238906573197
c -5.446153846153846,11.324444444444445 19.06153846153846,6.968888888888889 31.086394730990065,10.941375219894898 c 9.15229662709437,-0.0 43.89703335438561,4.355555555555556 37.54318720053946,-1.2175379461777176
c -5.446153846153846,-20.58844661977088 0,-22.222710231537466 7.84142818407593,-22.222710231537466
c 10.438255390088436,0 15.884409236242282,4.228686763542068 10.438255390088436,5.703413826719395
c -5.446153846153846,11.324444444444445 19.06153846153846,6.968888888888889 34.94635999452695,17.73683435099579 c 11.064994217397386,-0.0 42.80937394284941,4.355555555555556 36.455527789003256,-8.427146537684514
c -5.446153846153846,-12.873859710218593 0,-17.752227508081425 8.929087595612131,-17.752227508081425
c 13.146410078619603,0 18.59256392477345,3.928886563607675 13.146410078619603,8.867630247703893
c -5.446153846153846,11.324444444444445 19.06153846153846,6.968888888888889 32.238205305995784,17.311743798062047 c 26.198795463323453,0.0 40.226359273117836,-4.355555555555556 33.87251311927168,0.002252868765235277
c -5.446153846153846,6.459172460708791 0,23.417005904393033 11.512102265343707,23.417005904393033
c 8.31086610710787,0 13.757019953261716,-8.797526635656988 8.31086610710787,-13.995228882651377
c -5.446153846153846,-11.324444444444445 19.06153846153846,-6.968888888888889 37.07374927750752,-9.424029890506892 c 6.440932159458436,0.0 39.014469539488125,-4.355555555555556 32.66062338564197,15.349587760970248
c -5.446153846153846,3.6781624591611135 0,9.128755436594073 12.723991998973418,9.128755436594073
c 6.66238650329484,0 12.108540349448687,-4.195225519628117 6.66238650329484,-10.156374286281364
c -5.446153846153846,-11.324444444444445 19.06153846153846,-6.968888888888889 38.72222888132055,-14.321968911282957 c 9.618859181372887,-0.0 44.842042955684704,4.355555555555556 38.48819680183855,-6.739545446310271
c -5.446153846153846,-4.110772402994503 0,-15.662562339835493 6.896418582776839,-15.662562339835493
c 8.551833550897939,0 13.997987397051785,5.002951673495879 8.551833550897939,12.29332797299189
c -5.446153846153846,11.324444444444445 19.06153846153846,6.968888888888889 36.83278183371745,10.108779813153873 c 12.171943315008056,-0.0 39.46367669338341,4.355555555555556 33.109830539537256,-15.844160262689213
c -5.446153846153846,-6.13221639310496 0,-12.734997159262468 12.27478484507813,-12.734997159262468
c 11.82278404512956,0 17.268937891283407,9.36264210815 11.82278404512956,13.507739300617564
c -5.446153846153846,11.324444444444445 19.06153846153846,6.968888888888889 33.56183133948583,15.071418121334117 L 1180 0 " fill="none" stroke="black" stroke-width="0.1" style="vector-effect:non-scaling-stroke;"/></g><g><path d="M 0 0  L 0 174.222222  c 13.45261298392913,-0.0 38.795192174551836,4.355555555555556 32.44134602070568,1.0555072120291065
c -5.446153846153846,-24.859217068143867 0,-26.8411529067608 12.943269363909707,-26.8411529067608
c 7.749441740437163,0 13.19559558659101,4.88213313025071 7.749441740437163,11.634954465452585
c -5.446153846153846,11.324444444444445 19.06153846153846,6.968888888888889 37.635173644178224,14.15069122927911 c 14.937738018068549,0.0 43.600795134115245,-4.355555555555556 37.24694898026909,1.0522209418552162
c -5.446153846153846,6.910014075184469 0,23.55215945469555 8.137666404346298,23.55215945469555
c 12.315801185347773,0 17.76195503150162,-6.867765920274399 12.315801185347773,-15.561573685657331
c -5.446153846153846,-11.324444444444445 19.06153846153846,-6.968888888888889 33.068814199267614,-9.042806710893435 c 5.267723013295989,-0.0 43.744797727486514,4.355555555555556 37.39095157364036,-5.570687819096836
c -5.446153846153846,-6.73227684347228 0,-20.369212824698966 7.993663810975029,-20.369212824698966
c 12.87733405598214,0 18.323487902135987,3.3919337762433597 12.87733405598214,9.055522852020122
c -5.446153846153846,11.324444444444445 19.06153846153846,6.968888888888889 32.50728132863325,16.88437779177568 c 10.844889130976389,-0.0 38.13472468129734,4.355555555555556 31.78087852745119,-13.358814465386267
c -5.446153846153846,-3.9705019188722104 0,-14.810179399168494 13.603736857164197,-14.810179399168494
c 12.355770328678048,0 17.801924174831896,2.9654260335762967 12.355770328678048,14.070906367622472
c -5.446153846153846,11.324444444444445 19.06153846153846,6.968888888888889 33.02884505593734,14.098087496932289 c 17.795286101328372,-0.0 43.106214219546096,4.355555555555556 36.75236806569994,-13.415174881526568
c -5.446153846153846,-5.068305320215439 0,-16.022213902155507 8.632247318915446,-16.022213902155507
c 12.042261377368519,0 17.488415223522367,13.8461251376218 12.042261377368519,16.286423193492652
c -5.446153846153846,11.324444444444445 19.06153846153846,6.968888888888889 33.34235400724687,13.150965590189422 c 7.585495325542901,0.0 45.12385679394016,-4.355555555555556 38.77001064009401,14.36000636894035
c -5.446153846153846,5.167653099385553 0,12.465849281589367 6.61460474452138,12.465849281589367
c 9.136342825580492,0 14.582496671734338,-9.329383035959202 9.136342825580492,-25.99133179215403
c -5.446153846153846,-11.324444444444445 19.06153846153846,-6.968888888888889 36.248272559034895,-0.8345238583756895 c 11.03512321625444,-0.0 44.53007407419939,4.355555555555556 38.176227920353234,-14.615056674688349
c -5.446153846153846,-4.046934877448468 0,-13.793358080857276 7.208387464262152,-13.793358080857276
c 10.425310413354843,0 15.87146425950869,6.645786051123779 10.425310413354843,13.101297873550813
c -5.446153846153846,11.324444444444445 19.06153846153846,6.968888888888889 34.95930497126054,15.307116881994812 c 5.27956708292869,-0.0 38.69288654852454,4.355555555555556 32.339040394678385,-2.6900878606997174
c -5.446153846153846,-13.10821533347346 0,-23.48737876928664 13.045574989937002,-23.48737876928664
c 11.757035645709983,0 17.20318949186383,15.60385716540294 11.757035645709983,20.207103298245897
c -5.446153846153846,11.324444444444445 19.06153846153846,6.968888888888889 33.6275797389054,5.970363331740458 c 15.111005498491863,-0.0 43.48910981506776,4.355555555555556 37.13526366122161,-13.908506385884458
c -5.446153846153846,-3.9022381619814333 0,-9.916165237788167 8.24935172339378,-9.916165237788167
c 9.216009075743003,0 14.662162921896849,12.854732590076079 9.216009075743003,22.191889014537335
c -5.446153846153846,11.324444444444445 19.06153846153846,6.968888888888889 36.168606308872384,1.6327826091352904 c 19.171958723358564,-0.0 42.04580608290137,4.355555555555556 35.691959929055216,-8.996070288414224
c -5.446153846153846,-18.628391277615368 0,-19.205065689931097 9.692655455560171,-19.205065689931097
c 12.320483488208723,0 17.76663733436257,3.1924265870562647 12.320483488208723,13.271374092577162
c -5.446153846153846,11.324444444444445 19.06153846153846,6.968888888888889 33.064131896406664,14.929761885768158 c 18.99001430678178,-0.0 40.81759195620774,4.355555555555556 34.463745802361586,-13.28372932120877
c -5.446153846153846,-11.220948459386747 0,-15.327025402982798 10.9208695822538,-15.327025402982798
c 10.03763522723004,0 15.483789073383887,20.480103397253902 10.03763522723004,23.591771295681852
c -5.446153846153846,11.324444444444445 19.06153846153846,6.968888888888889 35.346980157385346,5.018983428509717 c 24.398439696471037,0.0 43.495220535855786,-4.355555555555556 37.14137438200963,0.12165870815382825
c -5.446153846153846,10.356699752847161 0,22.936327637322165 8.243241002605757,22.936327637322165
c 13.93982042163941,0 19.38597426779326,-9.127817707384965 13.93982042163941,-13.91319902450968
c -5.446153846153846,-11.324444444444445 19.06153846153846,-6.968888888888889 31.444794962975976,-9.144787320966312 c 9.446605363746569,0.0 42.73852897344208,-4.355555555555556 36.38468281959592,10.018008243084301
c -5.446153846153846,12.617957447006798 0,12.656295447333553 8.999932565019463,12.656295447333553
c 7.480503609160252,0 12.926657455314098,-9.35251570242559 7.480503609160252,-19.01044188835085
c -5.446153846153846,-11.324444444444445 19.06153846153846,-6.968888888888889 37.904111775455135,-3.6638618020670037 L 1180 0 " fill="none" stroke="black" stroke-width="0.1" style="vector-effect:non-scaling-stroke;"/></g><g><path d="M 0 0  L 0 261.333333  c 22.175434876996547,0.0 43.012094207732375,-4.355555555555556 36.65824805388622,12.915463192853341
c -5.446153846153846,10.285674613150755 0,14.903640230751801 8.726367330729168,14.903640230751801
c 8.695537386632822,0 14.141691232786668,-9.154921508919923 8.695537386632822,-15.458839105611377
c -5.446153846153846,-11.324444444444445 19.06153846153846,-6.968888888888889 36.689077997982565,-12.360264317993765 c 16.376412954460914,0.0 41.61814710918119,-4.355555555555556 35.26430095533503,17.660250311390204
c -5.446153846153846,9.782909779938768 0,9.917271962439298 10.120314429280356,9.917271962439298
c 9.934978469709755,0 15.381132315863601,-2.485983012235555 9.934978469709755,-10.136761383487336
c -5.446153846153846,-11.324444444444445 19.06153846153846,-6.968888888888889 35.44963691490563,-17.440760890342165 c 20.180002220426378,0.0 39.3740503783823,-4.355555555555556 33.020204224536144,14.82800854940016
c -5.446153846153846,6.050983733865656 0,13.366430206705498 12.364411160079243,13.366430206705498
c 13.748347533423626,0 19.194501379577474,-4.388490991976563 13.748347533423626,-17.06901422254166
c -5.446153846153846,-11.324444444444445 19.06153846153846,-6.968888888888889 31.63626785119176,-11.125424533563997 c 6.594123776629215,0.0 42.48426794217965,-4.355555555555556 36.13042178833349,5.979747803261593
c -5.446153846153846,10.641392340615496 0,16.712664900047567 9.254193596281894,16.712664900047567
c 14.378841621231999,0 19.824995467385847,-10.617828952350306 14.378841621231999,-17.16739898560205
c -5.446153846153846,-11.324444444444445 19.06153846153846,-6.968888888888889 31.005773763383388,-5.525013717707111 c 13.510577408706537,0.0 37.57557350969564,-4.355555555555556 31.22172735584948,13.532939837440722
c -5.446153846153846,6.901619841066162 0,13.604479008702167 14.162888028765906,13.604479008702167
c 12.023241352171496,0 17.469395198325344,-7.994506224325817 12.023241352171496,-28.06337102196143
c -5.446153846153846,-11.324444444444445 19.06153846153846,-6.968888888888889 33.36137403244389,0.9259521758185407 c 5.566977721570217,0.0 44.883534671041645,-4.355555555555556 38.52968851719549,10.419609183451458
c -5.446153846153846,13.127389884623026 0,14.84851743637138 6.854926867419898,14.84851743637138
c 7.811961823134169,0 13.258115669288015,-8.341219810035039 7.811961823134169,-11.203413391901037
c -5.446153846153846,-11.324444444444445 19.06153846153846,-6.968888888888889 37.57265356148122,-14.0647132279218 c 7.040000086224476,0.0 39.2310050768666,-4.355555555555556 32.877158923020446,19.090647432011053
c -5.446153846153846,4.577520378062535 0,8.504929222576592 12.507456461594941,8.504929222576592
c 9.165435503228466,0 14.611589349382312,-4.546509571637156 9.165435503228466,-10.257111576862286
c -5.446153846153846,-11.324444444444445 19.06153846153846,-6.968888888888889 36.21917988138692,-17.33846507772536 c 24.191666343836612,-0.0 44.874786167196724,4.355555555555556 38.52094001335057,-7.719232993533202
c -5.446153846153846,-5.917139837707957 0,-19.483571773401806 6.863675371264819,-19.483571773401806
c 8.500433998041487,0 13.946587844195333,10.491279077526256 8.500433998041487,11.699720775131128
c -5.446153846153846,11.324444444444445 19.06153846153846,6.968888888888889 36.8841813865739,15.503083991803882 c 25.435355164894332,0.0 40.882765855958816,-4.355555555555556 34.52891970211266,2.4369924788056383
c -5.446153846153846,17.617315626261295 0,20.760146326573874 10.855695682502727,20.760146326573874
c 13.885268878798627,0 19.331422724952475,-8.242095298865621 13.885268878798627,-16.707427506085402
c -5.446153846153846,-11.324444444444445 19.06153846153846,-6.968888888888889 31.49934650581676,-6.489711299294111 c 18.7562440002632,0.0 41.10670893746014,-4.355555555555556 34.752862783613985,2.9448419991115493
c -5.446153846153846,11.393275334574577 0,26.25346959080413 10.631752601001402,26.25346959080413
c 6.831773905959636,0 12.277927752113483,-21.768586283453367 6.831773905959636,-30.19006713226422
c -5.446153846153846,-11.324444444444445 19.06153846153846,-6.968888888888889 38.55284147865575,0.9917555423485389 c 22.311557817673442,-0.0 42.752213447990584,4.355555555555556 36.39836729414443,-3.4664872319776068
c -5.446153846153846,-21.14451081104537 0,-23.254487409537564 8.986248090470959,-23.254487409537564
c 13.09347752805266,0 18.539631374206508,7.4514481380847855 13.09347752805266,10.954057747888598
c -5.446153846153846,11.324444444444445 19.06153846153846,6.968888888888889 32.29113785656273,15.766916893626572 c 16.460130124816455,0.0 43.91794445195107,-4.355555555555556 37.564098298104916,10.602779333192965
c -5.446153846153846,11.810911220255976 0,13.068331832689987 7.8205170865104705,13.068331832689987
c 9.555859573423788,0 15.002013419577635,-10.15571035699433 9.555859573423788,-25.232416937639417
c -5.446153846153846,-11.324444444444445 19.06153846153846,-6.968888888888889 35.8287558111916,1.5613057717564658 c 11.770114896431016,-0.0 37.96478934152136,4.355555555555556 31.610943187675208,0.19092331624277545
c -5.446153846153846,-18.738600577143796 0,-29.49199909871638 13.77367219694018,-29.49199909871638
c 7.368638651109997,0 12.814792497263843,9.610003556496236 7.368638651109997,13.008768401903744
c -5.446153846153846,11.324444444444445 19.06153846153846,6.968888888888889 38.01597673350539,16.292307380569863 L 1180 0 " fill="none" stroke="black" stroke-width="0.1" style="vector-effect:non-scaling-stroke;"/></g><g><path d="M 0 0  L 0 348.444444  c 21.232779146175282,0.0 45.060531199116376,-4.355555555555556 38.70668504527022,5.271360693410647
c -5.446153846153846,17.169075367143694 0,17.306117263171096 6.677930339345167,17.306117263171096
c 9.827113922472464,0 15.27326776862631,-10.7830901104371 9.827113922472464,-10.68830864897788
c -5.446153846153846,-11.324444444444445 19.06153846153846,-6.968888888888889 35.55750146214292,-11.889169307603861 c 9.824149330906659,-0.0 43.85277821450115,4.355555555555556 37.498932060654994,-9.224732244430077
c -5.446153846153846,-13.801829559081503 0,-19.417552986125088 7.885683323960393,-19.417552986125088
c 11.966625591595964,0 17.412779437749812,28.59677973730144 11.966625591595964,29.617439318677768
c -5.446153846153846,11.324444444444445 19.06153846153846,6.968888888888889 33.41798979301942,-0.9751540881226006 c 19.150279512744962,0.0 38.63511755293694,-4.355555555555556 32.281271399090784,16.81113589716659
c -5.446153846153846,2.5583252168036927 0,4.379690737666191 13.103343985524603,4.379690737666191
c 12.633778120571911,0 18.07993196672576,-2.886972547575958 12.633778120571911,-9.410577569143783
c -5.446153846153846,-11.324444444444445 19.06153846153846,-6.968888888888889 32.750837264043476,-11.780249065688999 c 20.81111569745115,-0.0 42.752366946715036,4.355555555555556 36.39852079286888,0.8810613953891555
c -5.446153846153846,-7.31617210255023 0,-29.971532343664222 8.986094591746507,-29.971532343664222
c 7.459384163397203,0 12.90553800955105,11.10950269346699 7.459384163397203,13.215687745751051
c -5.446153846153846,11.324444444444445 19.06153846153846,6.968888888888889 37.92523122121818,15.874783202524014 c 25.265686254565097,0.0 42.45157524976691,-4.355555555555556 36.097729095920755,2.413151167041626
c -5.446153846153846,13.002917286172295 0,21.19248590928153 9.286886288694632,21.19248590928153
c 6.5546431665337295,0 12.000797012687576,-18.182763805222592 6.5546431665337295,-19.95610274010751
c -5.446153846153846,-11.324444444444445 19.06153846153846,-6.968888888888889 38.82997221808166,-3.6495343362156447 c 24.85046276543,0.0 39.94493635887236,-4.355555555555556 33.591090205026205,0.1512576254476738
c -5.446153846153846,20.833049451262465 0,21.660469551668218 11.793525179589182,21.660469551668218
c 12.834148308481105,0 18.280302154634953,-7.638667791824608 12.834148308481105,-13.381411562362437
c -5.446153846153846,-11.324444444444445 19.06153846153846,-6.968888888888889 32.55046707613428,-8.430315614753454 c 10.998951317500056,-0.0 42.09893539494078,4.355555555555556 35.745089241094625,-11.160133794131722
c -5.446153846153846,-10.945591005738734 0,-12.031090593584489 9.639526143520762,-12.031090593584489
c 7.695670868067971,0 13.141824714221817,13.827526506342862 7.695670868067971,20.727403624585918
c -5.446153846153846,11.324444444444445 19.06153846153846,6.968888888888889 37.688944516547416,2.4638207631302933 c 24.505247206241123,0.0 42.554729826887616,-4.355555555555556 36.20088367304146,12.052672603820481
c -5.446153846153846,2.376582855494017 0,9.823229744388184 9.183731711573927,9.823229744388184
c 6.589211271865601,0 12.035365118019447,-5.678657670277938 6.589211271865601,-6.995369964126761
c -5.446153846153846,-11.324444444444445 19.06153846153846,-6.968888888888889 38.795404112749786,-14.880532384081905 c 5.075006809691817,-0.0 41.00296013633206,4.355555555555556 34.6491139824859,-9.979422928826928
c -5.446153846153846,-5.36696961081452 0,-18.915092499731706 10.735501402129486,-18.915092499731706
c 9.34708152704647,0 14.793235373200316,4.788025716696181 9.34708152704647,10.340894880064816
c -5.446153846153846,11.324444444444445 19.06153846153846,6.968888888888889 36.03753385756892,18.553620548493818 c 8.753798795728347,0.0 41.60676804393597,-4.355555555555556 35.252921890089816,13.430654628814237
c -5.446153846153846,8.945962187855471 0,13.452606092188072 10.131693494525571,13.452606092188072
c 9.433439236680606,0 14.879593082834452,-6.998660665311027 9.433439236680606,-16.00438797487567
c -5.446153846153846,-11.324444444444445 19.06153846153846,-6.968888888888889 35.95117614793478,-10.878872746126639 c 15.755357575305503,-0.0 40.15628614782987,4.355555555555556 33.80243999398371,-15.484161936525652
c -5.446153846153846,-6.241969438221045 0,-10.651645691489286 11.582175390631676,-10.651645691489286
c 6.608792892879947,0 12.054946739033793,8.771817424771436 6.608792892879947,23.032121386051994
c -5.446153846153846,11.324444444444445 19.06153846153846,6.968888888888889 38.77582249173544,3.1036862419629436 c 15.295458141470567,-0.0 39.68232968595681,4.355555555555556 33.32848353211065,-17.620928193873546
c -5.446153846153846,-6.077403856104019 0,-9.166210937931634 12.056131852504734,-9.166210937931634
c 10.118503058616149,0 15.564656904769995,14.521058533720154 10.118503058616149,15.812293157671336
c -5.446153846153846,11.324444444444445 19.06153846153846,6.968888888888889 35.26611232599924,10.974845974133844 c 20.43809330615748,0.0 41.19913592619698,-4.355555555555556 34.845289772350824,2.2432391220558543
c -5.446153846153846,20.897949538053677 0,21.2554655777188 10.539325612264562,21.2554655777188
c 8.097523000231241,0 13.543676846385088,-7.375012516878255 8.097523000231241,-12.794245597485892
c -5.446153846153846,-11.324444444444445 19.06153846153846,-6.968888888888889 37.287092384384145,-10.704459102288764 L 1180 0 " fill="none" stroke="black" stroke-width="0.1" style="vector-effect:non-scaling-stroke;"/></g><g><path d="M 0 0  L 0 435.555556  c 21.959203384088454,-0.0 45.31857184180992,4.355555555555556 38.964725687963764,-7.565898309524347
c -5.446153846153846,-16.29513768457131 0,-17.08871735307342 6.419889696651623,-17.08871735307342
c 10.627423327717473,0 16.07357717387132,18.822043596394924 10.627423327717473,19.680144255748463
c -5.446153846153846,11.324444444444445 19.06153846153846,6.968888888888889 34.757192056897914,4.974471406849304 c 15.707546255355004,-0.0 44.392432858420655,4.355555555555556 38.0385867045745,-0.16968074274727318
c -5.446153846153846,-20.252853773399483 0,-23.282552257383223 7.346028680040888,-23.282552257383223
c 8.872992689383345,0 14.319146535537191,4.990393863065095 8.872992689383345,11.661032736169735
c -5.446153846153846,11.324444444444445 19.06153846153846,6.968888888888889 36.51162269523204,11.791200263960762 c 5.013435009793455,-0.0 38.758779972856594,4.355555555555556 32.40493381901044,-16.74067153223656
c -5.446153846153846,-7.38901584475666 0,-12.75460541268404 12.979681565604949,-12.75460541268404
c 13.424083130149171,0 18.87023697630302,22.135949877797934 13.424083130149171,29.381304304903807
c -5.446153846153846,11.324444444444445 19.06153846153846,6.968888888888889 31.960532254466216,0.11397264001679375 c 6.543336466068446,-0.0 39.9366824953233,4.355555555555556 33.58283634147715,-0.911854408667701
c -5.446153846153846,-19.179113640515716 0,-24.679486504302822 11.80177904313824,-24.679486504302822
c 13.28121971027808,0 18.727373556431928,5.899731369477245 13.28121971027808,7.164545034729581
c -5.446153846153846,11.324444444444445 19.06153846153846,6.968888888888889 32.10339567433731,18.42679587824094 c 21.652042081954896,-0.0 39.702145614906904,4.355555555555556 33.34829946106075,-3.7996453943232806
c -5.446153846153846,-6.517825408249349 0,-22.604568763969574 12.036315923554639,-22.604568763969574
c 14.104563117753784,0 19.550716963907632,6.292403518075961 14.104563117753784,8.723867765394985
c -5.446153846153846,11.324444444444445 19.06153846153846,6.968888888888889 31.280052266861603,17.68034639289787 c 25.178128522977538,-0.0 44.79110553296064,4.355555555555556 38.43725937911449,-14.558676906284747
c -5.446153846153846,-9.904411722943985 0,-9.854854625235264 6.9473560055009,-9.854854625235264
c 12.335356386830142,0 17.78151023298399,9.986297510952943 12.335356386830142,11.616259862883041
c -5.446153846153846,11.324444444444445 19.06153846153846,6.968888888888889 33.049258997785245,12.79727166863697 c 16.69004794948884,-0.0 42.51374570799272,4.355555555555556 36.15989955414656,-6.752901160144443
c -5.446153846153846,-16.437659447612972 0,-17.24193658930335 9.224715830468824,-17.24193658930335
c 7.3006816983078835,0 12.74683554446173,8.107102987692935 7.3006816983078835,22.516669457600134
c -5.446153846153846,11.324444444444445 19.06153846153846,6.968888888888889 38.0839336863075,1.478168291847659 c 14.751668456862843,0.0 38.730875007622956,-4.355555555555556 32.3770288537768,10.96992587289204
c -5.446153846153846,7.50431025764324 0,11.813132098690756 13.007586530838587,11.813132098690756
c 13.24372380158902,0 18.68987764774287,-5.539262343542862 13.24372380158902,-15.468742154912826
c -5.446153846153846,-11.324444444444445 19.06153846153846,-6.968888888888889 32.14089158302637,-7.3143158166699695 c 22.62683646074868,-0.0 45.13870654398414,4.355555555555556 38.784860390137986,-17.411343951071224
c -5.446153846153846,-5.535489649778721 0,-7.821449117431879 6.599754994477401,-7.821449117431879
c 8.780377570115476,0 14.226531416269323,4.1327776089721695 8.780377570115476,13.062437781198595
c -5.446153846153846,11.324444444444445 19.06153846153846,6.968888888888889 36.60423781449991,12.170355287304508 c 9.42357013803615,0.0 45.349902540715696,-4.355555555555556 38.99605638686954,-0.6030819457493634
c -5.446153846153846,19.387482386579947 0,28.58098138901108 6.388558997745847,28.58098138901108
c 14.412873744298892,0 19.85902759045274,-14.762052322538299 14.412873744298892,-26.17334123508992
c -5.446153846153846,-11.324444444444445 19.06153846153846,-6.968888888888889 30.971741640316495,-1.8045582081717946 c 25.798173330333025,0.0 42.07244985878689,-4.355555555555556 35.71860370494073,18.613597187642185
c -5.446153846153846,2.0766510438110957 0,3.0599296223228016 9.666011679674654,3.0599296223228016
c 12.199145456655465,0 17.645299302809313,-10.15096428050438 12.199145456655465,-11.334161669422677
c -5.446153846153846,-11.324444444444445 19.06153846153846,-6.968888888888889 33.18546992795992,-10.33936514054231 c 18.367820088821937,-0.0 40.439652902093734,4.355555555555556 34.08580674824758,-17.494909402577743
c -5.446153846153846,-10.93912766496199 0,-11.408106683447404 11.29880863636781,-11.408106683447404
c 12.184844223992705,0 17.630998070146553,6.72522429019519 12.184844223992705,21.62954966305334
c -5.446153846153846,11.324444444444445 19.06153846153846,6.968888888888889 33.19977116062268,7.273466422971808 c 13.453341800881248,-0.0 43.250627671277066,4.355555555555556 36.89678151743091,-10.724124793745196
c -5.446153846153846,-10.056045275965266 0,-10.326325730955103 8.487833867184477,-10.326325730955103
c 12.401747173586216,0 17.847901019740064,16.619764121418516 12.401747173586216,19.92100064316793
c -5.446153846153846,11.324444444444445 19.06153846153846,6.968888888888889 32.98286821102917,1.12944988153237 L 1180 0 " fill="none" stroke="black" stroke-width="0.1" style="vector-effect:non-scaling-stroke;"/></g><g><path d="M 0 0  L 0 522.666667  c 20.6000199431947,0.0 41.77704500284518,-4.355555555555556 35.42319884899902,5.666873953044767
c -5.446153846153846,15.124141415304544 0,17.965985438735633 9.961416535616365,17.965985438735633
c 8.591702440582907,0 14.037856286736753,-6.441134708534716 8.591702440582907,-9.465242862319954
c -5.446153846153846,-11.324444444444445 19.06153846153846,-6.968888888888889 36.79291294403248,-14.167616529460446 c 23.97314227594847,-0.0 44.244456568333085,4.355555555555556 37.89061041448693,-15.203367563170454
c -5.446153846153846,-4.198137282039914 0,-5.849011235636423 7.494004970128458,-5.849011235636423
c 7.576731675562215,0 13.022885521716061,7.092118245278662 7.576731675562215,10.5581687394498
c -5.446153846153846,11.324444444444445 19.06153846153846,6.968888888888889 37.80788370905317,10.494210059357078 c 8.761908439585632,-0.0 37.26347460595427,4.355555555555556 30.909628452108116,-15.680602231350935
c -5.446153846153846,-5.7331897632363065 0,-13.631566971878275 14.47498693250727,-13.631566971878275
c 10.18568915041621,0 15.631842996570056,7.504691677972403 10.18568915041621,10.995261899390343
c -5.446153846153846,11.324444444444445 19.06153846153846,6.968888888888889 35.19892623419918,18.316907303838867 c 20.764868536759142,0.0 37.96803630147273,-4.355555555555556 31.614190147626577,3.6846957574540875
c -5.446153846153846,5.832831730912579 0,18.544687266674067 13.77042523698881,18.544687266674067
c 6.498269364220384,0 11.94442321037423,-15.16068206400942 6.498269364220384,-17.63790436259994
c -5.446153846153846,-11.324444444444445 19.06153846153846,-6.968888888888889 38.886346020395,-4.591478661528214 c 22.11986199420389,-0.0 44.96972696229784,4.355555555555556 38.615880808451685,-7.755082645458569
c -5.446153846153846,-3.7877773737282463 0,-17.325450742944437 6.768734576163702,-17.325450742944437
c 14.009654299598246,0 19.455808145752094,19.672059845555243 14.009654299598246,22.204917063327393
c -5.446153846153846,11.324444444444445 19.06153846153846,6.968888888888889 31.37496108501714,2.8756163250756117 c 17.31211650863361,-0.0 45.12154399035857,4.355555555555556 38.76769783651241,-5.252362502876646
c -5.446153846153846,-20.843952744608355 0,-22.00194913445759 6.616917548102975,-22.00194913445759
c 7.11154204610898,0 12.557695892262826,6.841429737906294 7.11154204610898,23.53944977280213
c -5.446153846153846,11.324444444444445 19.06153846153846,6.968888888888889 38.27307333850641,3.714861864532107 c 11.889078770422424,-0.0 45.231329880178095,4.355555555555556 38.87748372633194,-7.286484261108929
c -5.446153846153846,-9.02402985315861 0,-15.298240997835379 6.507131658283448,-15.298240997835379
c 13.334564261330954,0 18.7807181074848,5.471479194258017 13.334564261330954,5.763348725853273
c -5.446153846153846,11.324444444444445 19.06153846153846,6.968888888888889 32.05005112328443,16.821376533091033 c 16.35279005010932,-0.0 41.73528037038571,4.355555555555556 35.38143421653955,0.8720512290877827
c -5.446153846153846,-9.344176057976757 0,-29.641837170337002 10.003181168075834,-29.641837170337002
c 9.40549285552995,0 14.851646701683796,11.41970059335157 9.40549285552995,22.978493455308957
c -5.446153846153846,11.324444444444445 19.06153846153846,6.968888888888889 35.97912252908544,5.791292485940261 c 6.167025030791284,-0.0 41.024115011819966,4.355555555555556 34.67026885797381,-1.84537609204787
c -5.446153846153846,-18.1755645024074 0,-23.615530599361502 10.714346526641577,-23.615530599361502
c 8.252031389292014,0 13.69818523544586,6.465737901373022 8.252031389292014,7.9429316608923095
c -5.446153846153846,11.324444444444445 19.06153846153846,6.968888888888889 37.13258399532337,17.517975030517064 c 22.282961400199735,0.0 41.26457426276199,-4.355555555555556 34.91072810891583,14.1215514087953
c -5.446153846153846,4.964699798292942 0,8.004008773576777 10.473887275699553,8.004008773576777
c 9.10199515273451,0 14.548148998888356,-10.72528899085898 9.10199515273451,-13.467329368582666
c -5.446153846153846,-11.324444444444445 19.06153846153846,-6.968888888888889 36.28262023188088,-8.65823081378941 c 13.298950988611796,0.0 41.66027397668869,-4.355555555555556 35.30642782284254,13.083673361050595
c -5.446153846153846,6.8445780187742296 0,15.447101052853947 10.07818756177285,15.447101052853947
c 7.08073247456128,0 12.526886320715127,-14.223876277065296 7.08073247456128,-23.361865088006166
c -5.446153846153846,-11.324444444444445 19.06153846153846,-6.968888888888889 38.30388291005411,-5.168909325898376 c 24.708458439141417,0.0 38.013528080898084,-4.355555555555556 31.65968192705193,12.728660326315762
c -5.446153846153846,7.954335543484938 0,9.224351001177805 13.724933457563456,9.224351001177805
c 9.524770278490365,0 14.970924124644212,-12.289350655591461 9.524770278490365,-13.234157662835457
c -5.446153846153846,-11.324444444444445 19.06153846153846,-6.968888888888889 35.85984510612502,-8.71885366465811 c 21.639415683210355,0.0 40.95519951943962,-4.355555555555556 34.60135336559346,0.9719931677084577
c -5.446153846153846,7.504160160780757 0,22.184615246753825 10.783262019021926,22.184615246753825
c 6.620564476663638,0 12.066718322817485,-3.300973108887052 6.620564476663638,-14.133822747444567
c -5.446153846153846,-11.324444444444445 19.06153846153846,-6.968888888888889 38.76405090795175,-9.022785667017716 L 1180 0 " fill="none" stroke="black" stroke-width="0.1" style="vector-effect:non-scaling-stroke;"/></g><g><path d="M 0 0  L 0 609.777778  c 11.509740976647642,-0.0 44.869682998860235,4.355555555555556 38.51583684501408,-5.552074613776772
c -5.446153846153846,-9.236592984030064 0,-18.09459071708606 6.868778539601308,-18.09459071708606
c 8.172212766594093,0 13.61836661274794,4.202923351613451 8.172212766594093,8.450394181031534
c -5.446153846153846,11.324444444444445 19.06153846153846,6.968888888888889 37.212402618021294,15.196271149831297 c 6.836101631817146,-0.0 44.985455121265666,4.355555555555556 38.63160896741951,-12.52016301092392
c -5.446153846153846,-8.812934662889546 0,-9.499609688905348 6.753006417195877,-9.499609688905348
c 6.4963958376500415,0 11.942549683803888,18.298230288955807 6.4963958376500415,21.85138809744794
c -5.446153846153846,11.324444444444445 19.06153846153846,6.968888888888889 38.888219546965345,0.1683846023813267 c 12.825588153062542,-0.0 45.04892572929304,4.355555555555556 38.69507957544688,-17.990157127896296
c -5.446153846153846,-5.302950074172279 0,-8.525116772226294 6.689535809168504,-8.525116772226294
c 13.855775625413436,0 19.301929471567284,4.483556017691366 13.855775625413436,11.217560686538782
c -5.446153846153846,11.324444444444445 19.06153846153846,6.968888888888889 31.52883975920195,15.297713213583808 c 21.776941323376427,0.0 44.649172008440196,-4.355555555555556 38.29532585459404,13.812663152027177
c -5.446153846153846,4.165550311483547 0,12.427799062545134 7.089289530021347,12.427799062545134
c 7.129545823092968,0 12.575699669246815,-11.985691106033473 7.129545823092968,-24.02098448579798
c -5.446153846153846,-11.324444444444445 19.06153846153846,-6.968888888888889 38.25506956152242,-2.2194777287743293 c 21.255828712494527,-0.0 45.34559137800611,4.355555555555556 38.991745224159956,-4.152393115421895
c -5.446153846153846,-14.33543272163905 0,-21.677488170395062 6.3928701604554306,-21.677488170395062
c 8.148470306664777,0 13.594624152818623,4.8257442360606495 8.148470306664777,8.93164730359877
c -5.446153846153846,11.324444444444445 19.06153846153846,6.968888888888889 37.23614507795061,16.898233982218187 c 23.181168043556145,-0.0 41.15105152233517,4.355555555555556 34.79720536848902,-3.8838347718202106
c -5.446153846153846,-10.70163545903748 0,-21.999637233027183 10.58741001612637,-21.999637233027183
c 12.457364237183683,0 17.90351808333753,4.821749884507036 12.457364237183683,19.343454241686153
c -5.446153846153846,11.324444444444445 19.06153846153846,6.968888888888889 32.927251147431704,6.5400177631612415 c 5.7616848422252,-0.0 39.496850418834114,4.355555555555556 33.14300426498796,-1.426277923696324
c -5.446153846153846,-5.779165263440747 0,-20.592670240262652 12.241611119627429,-20.592670240262652
c 8.134192391179084,0 13.58034623733293,11.792264602520287 8.134192391179084,19.7544018697098
c -5.446153846153846,11.324444444444445 19.06153846153846,6.968888888888889 37.2504229934363,2.264546294249179 c 6.41813395803455,-0.0 42.648072548901496,4.355555555555556 36.29422639505534,-16.98361947094932
c -5.446153846153846,-4.918754133088633 0,-9.716054720544392 9.090388989560047,-9.716054720544392
c 7.11577189036462,0 12.561925736518466,9.10962580793384 7.11577189036462,19.314833068142324
c -5.446153846153846,11.324444444444445 19.06153846153846,6.968888888888889 38.26884349425077,7.384841123351389 c 20.921503240187725,-0.0 38.41267097412295,4.355555555555556 32.0588248202768,-14.206883077512435
c -5.446153846153846,-10.102624446714714 0,-11.968546016953736 13.32579056433859,-11.968546016953736
c 6.460414083138751,0 11.906567929292597,7.579501386107301 6.460414083138751,15.249535352503093
c -5.446153846153846,11.324444444444445 19.06153846153846,6.968888888888889 38.924201301476636,10.925893741963078 c 20.85761629836348,0.0 45.23370691127505,-4.355555555555556 38.879860757428894,9.03016149489578
c -5.446153846153846,14.059271017158494 0,17.431404853512372 6.504754627186493,17.431404853512372
c 13.204224318910867,0 18.650378165064716,-7.303598530718996 13.204224318910867,-7.697377726484159
c -5.446153846153846,-11.324444444444445 19.06153846153846,-6.968888888888889 32.18039106570452,-18.764188621923992 c 10.572626195627615,-0.0 38.46460690762124,4.355555555555556 32.11076075377508,-11.472200833795444
c -5.446153846153846,-10.905593104283014 0,-15.290845139661567 13.273854630840304,-15.290845139661567
c 9.740256234024507,0 15.186410080178353,9.360341115580981 9.740256234024507,13.753877672111772
c -5.446153846153846,11.324444444444445 19.06153846153846,6.968888888888889 35.64435915059088,13.00916830134524 c 21.13053709393265,-0.0 37.81697551152875,4.355555555555556 31.463129357682597,-13.242132157263514
c -5.446153846153846,-9.107345708338977 0,-13.130161378553018 13.92148602693279,-13.130161378553018
c 8.491648799098066,0 13.937802645251912,7.512489383851877 8.491648799098066,12.783826484329685
c -5.446153846153846,11.324444444444445 19.06153846153846,6.968888888888889 36.89296658551732,13.588467051486846 c 12.545073363631955,0.0 42.317618031291964,-4.355555555555556 35.96377187744581,13.895513038309366
c -5.446153846153846,9.850792030322626 0,10.53063052252197 9.420843507169579,10.53063052252197
c 7.495100727511968,0 12.941254573665814,-2.908994564898658 7.495100727511968,-10.511952250247274
c -5.446153846153846,-11.324444444444445 19.06153846153846,-6.968888888888889 37.88951465710342,-13.91419131058406 L 1180 0 " fill="none" stroke="black" stroke-width="0.1" style="vector-effect:non-scaling-stroke;"/></g><g><path d="M 0 0  L 0 696.888889  c 11.722114778127152,0.0 45.025766170979495,-4.355555555555556 38.67192001713334,9.415265721297263
c -5.446153846153846,13.41146753254843 0,15.383510877537173 6.712695367482048,15.383510877537173
c 13.332042603389425,0 18.778196449543273,-8.570124929195483 13.332042603389425,-24.767105842699106
c -5.446153846153846,-11.324444444444445 19.06153846153846,-6.968888888888889 32.05257278122596,-0.031670756135330436 c 6.882500038700833,-0.0 44.218443674225654,4.355555555555556 37.8645975203795,-16.576458003191
c -5.446153846153846,-4.404203000146316 0,-5.612992619251099 7.520017864235889,-5.612992619251099
c 14.118762287011634,0 19.564916133165482,8.49770469233153 14.118762287011634,18.82486136414562
c -5.446153846153846,11.324444444444445 19.06153846153846,6.968888888888889 31.265853097603753,3.36458925829648 c 12.305987275542863,0.0 42.234562396700454,-4.355555555555556 35.8807162428543,5.021263754790413
c -5.446153846153846,15.69735019471167 0,16.915994374241592 9.503899141761089,16.915994374241592
c 8.0851538046225,0 13.531307650776347,-7.537915251395189 8.0851538046225,-19.544874070262132
c -5.446153846153846,-11.324444444444445 19.06153846153846,-6.968888888888889 37.29946157999289,-2.3923840587698706 c 6.082671689802574,0.0 40.92916420571807,-4.355555555555556 34.57531805187191,2.9542934432946217
c -5.446153846153846,8.681531057702665 0,24.957162761457724 10.809297332743476,24.957162761457724
c 9.671118020292162,0 15.117271866446009,-7.559683684740519 9.671118020292162,-23.164879253695407
c -5.446153846153846,-11.324444444444445 19.06153846153846,-6.968888888888889 35.713497364323224,-4.746576951056937 c 21.419873700002913,-0.0 40.18039201912283,4.355555555555556 33.82654586527667,-2.240908388742986
c -5.446153846153846,-11.128985535908074 0,-19.433631942871717 11.558069519338716,-19.433631942871717
c 7.032305443466804,0 12.47845928962065,4.278137201108863 7.032305443466804,11.070415088825657
c -5.446153846153846,11.324444444444445 19.06153846153846,6.968888888888889 38.35230994114858,10.604125242789047 c 22.714277721126486,-0.0 43.2162811189246,4.355555555555556 36.86243496507844,-18.158695187906545
c -5.446153846153846,-2.3226697167240213 0,-7.8114538076290145 8.522180419536944,-7.8114538076290145
c 6.965819472130406,0 12.411973318284252,3.0283819191124977 6.965819472130406,8.81709986983725
c -5.446153846153846,11.324444444444445 19.06153846153846,6.968888888888889 38.41879591248498,17.15304912569831 c 23.40363551989757,-0.0 38.811120030129544,4.355555555555556 32.45727387628339,-11.376008490389063
c -5.446153846153846,-10.526142971195911 0,-13.31432450356665 12.927341508331999,-13.31432450356665
c 10.201095406618663,0 15.647249252772509,14.824539002241377 10.201095406618663,17.230384142322386
c -5.446153846153846,11.324444444444445 19.06153846153846,6.968888888888889 35.183519977996724,7.459948851633328 c 22.071268270563632,-0.0 43.98349842587613,4.355555555555556 37.62965227202997,-6.98814091246167
c -5.446153846153846,-12.344359313530473 0,-14.096928721817157 7.754963112585415,-14.096928721817157
c 10.653753881023412,0 16.09990772717726,14.802579443819324 10.653753881023412,15.708390656161487
c -5.446153846153846,11.324444444444445 19.06153846153846,6.968888888888889 34.730861503591974,5.37667897811734 c 21.869662716979377,0.0 43.07837244319393,-4.355555555555556 36.72452628934777,2.3355234860346905
c -5.446153846153846,5.544066284026088 0,20.29334087634088 8.660089095267615,20.29334087634088
c 6.87085357748925,0 12.317007423643096,-8.865949548697772 6.87085357748925,-16.23898522636101
c -5.446153846153846,-11.324444444444445 19.06153846153846,-6.968888888888889 38.51376180712614,-6.389879136014564 c 19.96660157186704,-0.0 44.950351931671726,4.355555555555556 38.59650577782557,-19.131186946841215
c -5.446153846153846,-1.2913596969445578 0,-4.441863715316423 6.788109606789817,-4.441863715316423
c 13.283734067288385,0 18.729887913442234,11.932141316468858 13.283734067288385,20.20185531664757
c -5.446153846153846,11.324444444444445 19.06153846153846,6.968888888888889 32.100881317327,3.371195345510067 c 18.078536651294506,-0.0 37.4552448976032,4.355555555555556 31.10139874375705,-4.621678973112341
c -5.446153846153846,-18.637359720970625 0,-19.05038124286853 14.283216640858338,-19.05038124286853
c 13.278641566177534,0 18.724795412331382,16.442626096249068 13.278641566177534,25.271418614937264
c -5.446153846153846,11.324444444444445 19.06153846153846,6.968888888888889 32.10597381843785,-1.5993583989563938 c 17.236496765190235,0.0 39.449128328828365,-4.355555555555556 33.09528217498221,2.6430560988149843
c -5.446153846153846,8.524850199682085 0,21.715755108546425 12.289333209633178,21.715755108546425
c 10.950940407917813,0 16.39709425407166,-4.033332961238899 10.950940407917813,-8.289371048385455
c -5.446153846153846,-11.324444444444445 19.06153846153846,-6.968888888888889 34.433674976697574,-16.069440158975954 c 20.02734567942267,0.0 44.02108123539037,-4.355555555555556 37.66723508154421,5.810359083579245
c -5.446153846153846,6.154173591300554 0,21.667896865689407 7.717380303071174,21.667896865689407
c 11.996377595961746,0 17.442531442115595,-12.445926540774641 11.996377595961746,-15.930861331518976
c -5.446153846153846,-11.324444444444445 19.06153846153846,-6.968888888888889 33.38823778865364,-11.547394617749674 L 1180 0 " fill="none" stroke="black" stroke-width="0.1" style="vector-effect:non-scaling-stroke;"/></g></g></svg>