<?xml version="1.0" encoding="utf-8"?>
<svg baseProfile="full" height="0" version="1.1" width="0" xmlns="http://www.w3.org/2000/svg" xmlns:ev="http://www.w3.org/2001/xml-events" xmlns:xlink="http://www.w3.org/1999/xlink"><defs><clipPath id="piece-mask-100-0" shape-rendering="crispEdges"><path d="M2341 7704 l-54 -14 -49 -27 -49 -27 -40 -44 -41 -43 -23 -52 -24 -52 -15 -57 -15 -57 -7 -93 -6 -93 11 -110 12 -110 15 -85 16 -85 30 -120 30 -120 29 -60 29 -60 0 -54 0 -53 -38 -38 -37 -38 -67 -20 -67 -21 -108 -12 -108 -12 -295 7 -295 6 -265 15 -265 14 -267 7 -268 7 0 -34 0 -34 -20 -265 -20 -265 -24 -315 -25 -315 -12 -229 -12 -229 5 -141 5 -141 16 -37 16 -38 20 0 20 0 13 19 14 19 104 35 105 35 85 17 85 16 116 6 116 6 97 -12 96 -12 92 -25 92 -25 90 -44 91 -45 61 -54 60 -54 33 -62 33 -62 5 -57 5 -57 -21 -84 -21 -84 -40 -67 -39 -66 -75 -70 -75 -70 -70 -37 -70 -37 -77 -19 -77 -20 -67 0 -66 0 -55 16 -54 16 -50 31 -50 32 -13 12 -13 13 -56 16 -56 16 -53 -4 -54 -5 -35 -25 -36 -25 -29 -47 -30 -47 -19 -57 -19 -57 -19 -110 -18 -110 0 -705 0 -705 -9 -14 -9 -14 274 6 274 7 305 6 305 7 155 -12 155 -12 95 -19 95 -18 65 -22 65 -22 61 -33 60 -34 46 -49 46 -49 21 -41 21 -41 15 -58 15 -57 0 -69 0 -69 -20 -101 -21 -102 -49 -100 -49 -100 -16 -65 -15 -65 0 -41 0 -40 15 -51 15 -50 40 -46 41 -46 62 -31 62 -30 78 -15 79 -15 72 0 72 0 59 15 58 16 57 34 56 34 54 53 53 53 49 75 48 75 39 100 39 100 24 105 23 105 0 210 0 210 -18 85 -18 85 -40 115 -41 115 -14 50 -15 50 6 43 6 44 35 38 34 38 48 20 48 21 69 12 69 12 136 -6 135 -6 120 -21 120 -21 116 -29 116 -30 134 -41 134 -41 162 -64 163 -63 115 -55 116 -55 12 5 12 4 51 88 52 87 45 90 45 90 55 140 55 140 41 135 40 135 85 347 85 347 26 76 25 76 30 59 30 59 31 36 32 36 38 20 38 19 48 0 48 -1 50 -17 49 -17 8 -38 8 -38 10 -20 11 -19 27 0 28 0 26 28 25 27 26 45 25 45 20 65 21 65 12 60 12 60 0 135 -1 135 -21 80 -21 80 -40 81 -40 81 -58 60 -57 61 -50 31 -50 32 -64 19 -63 20 -77 0 -76 0 -50 -14 -50 -13 -45 -22 -45 -22 -55 -32 -55 -31 -55 -11 -55 -12 -40 9 -40 9 -32 25 -33 25 -30 52 -30 52 -20 62 -19 63 -17 117 -17 118 0 260 0 260 16 295 17 295 2 93 3 92 -11 0 -10 0 -10 -9 -9 -9 -145 -55 -145 -55 -144 -46 -144 -46 -181 -45 -181 -45 -125 -21 -125 -21 -171 -5 -171 -6 -69 12 -69 12 -45 20 -45 20 -28 27 -29 27 -14 27 -14 27 0 58 0 58 26 70 26 70 23 70 23 70 16 75 16 75 12 118 12 117 -12 128 -11 127 -26 100 -26 99 -39 84 -40 84 -45 63 -45 63 -52 46 -52 45 -56 30 -57 30 -58 16 -59 15 -71 -1 -70 0 -54 -15z" transform="translate(0.000000,772.000000) scale(0.100000,-0.100000)"/></clipPath><clipPath id="piece-mask-100-1" shape-rendering="crispEdges"><path d="M2100 5870 l-95 -9 -75 -17 -75 -16 -46 -20 -46 -19 -13 -25 -13 -24 11 -25 11 -25 49 -34 48 -35 17 -73 17 -73 11 -75 11 -75 -5 -100 -5 -100 -20 -56 -20 -56 -25 -39 -25 -39 -38 -36 -39 -36 -51 -35 -51 -35 -94 -31 -94 -31 -115 -18 -115 -18 -460 2 -460 2 -148 8 -147 8 0 -2357 0 -2358 2364 0 2364 0 6 83 6 82 20 260 19 260 12 195 12 195 -6 165 -6 165 -15 87 -16 87 -18 45 -17 45 -31 44 -31 44 -45 21 -44 22 -50 0 -49 0 -56 -23 -56 -23 -35 -27 -35 -27 -59 -22 -59 -21 -125 -1 -125 0 -85 22 -85 23 -92 44 -92 43 -44 31 -45 30 -56 52 -56 51 -50 74 -49 75 -26 80 -25 80 0 113 0 113 15 86 15 86 16 48 16 48 31 65 31 65 67 66 66 67 59 23 59 24 105 -1 105 0 84 -32 84 -32 25 -16 24 -16 54 -18 54 -19 80 -12 79 -11 62 11 62 10 45 23 46 22 37 33 37 34 40 67 41 67 24 75 25 76 16 94 16 94 11 170 12 169 -12 301 -11 301 -7 128 -6 127 -16 -5 -16 -5 -200 -40 -200 -41 -175 -29 -175 -28 -140 -18 -140 -19 -235 1 -235 0 -72 21 -72 20 -46 27 -45 27 -28 41 -27 42 1 65 1 66 27 65 27 65 30 79 30 79 14 69 15 69 0 89 0 88 -20 66 -21 66 -43 62 -42 63 -50 38 -49 37 -63 31 -63 30 -82 20 -82 21 -170 3 -170 4 -95 -9z" transform="translate(0.000000,588.000000) scale(0.100000,-0.100000)"/></clipPath><clipPath id="piece-mask-100-2" shape-rendering="crispEdges"><path d="M3572 6209 l-72 -8 -63 -17 -62 -16 -80 -37 -80 -38 -59 -46 -59 -47 -54 -62 -53 -63 -40 -76 -39 -77 -28 -88 -27 -89 0 -185 -1 -185 24 -90 23 -90 26 -65 26 -65 17 -25 18 -25 7 -28 6 -27 -34 -33 -35 -33 -39 -12 -39 -11 -75 -11 -75 -11 -226 0 -227 0 -158 11 -159 11 -299 25 -300 25 -8 5 -8 5 0 -123 0 -123 10 -215 10 -215 10 -150 11 -150 24 -285 25 -285 10 -144 9 -144 -6 -44 -6 -45 -15 -6 -15 -5 -27 30 -28 31 -62 21 -63 22 -99 24 -99 24 -102 12 -102 12 -115 -6 -115 -6 -80 -21 -80 -20 -75 -36 -74 -35 -49 -37 -49 -37 -48 -66 -49 -65 -19 -45 -19 -44 -13 -53 -12 -54 0 -88 0 -88 12 -54 13 -53 25 -55 26 -55 66 -66 65 -66 66 -31 66 -32 84 -19 84 -19 90 -7 90 -6 120 11 120 10 145 30 145 29 85 27 85 26 56 15 55 15 45 -12 44 -12 37 -39 37 -39 22 -67 21 -68 5 -130 5 -131 -17 -134 -17 -135 -29 -140 -28 -140 -41 -150 -41 -150 -56 -165 -56 -165 -57 -142 -57 -143 5 -5 5 -5 2359 0 2358 0 0 2363 -1 2362 -32 16 -32 17 -95 50 -95 50 -104 36 -105 37 -115 29 -116 28 -260 52 -260 51 -100 26 -100 25 -81 38 -82 38 -39 39 -39 39 -14 47 -13 47 6 48 6 48 16 40 16 40 35 13 35 13 20 31 19 32 0 27 0 27 -16 48 -16 48 -33 50 -32 50 -44 46 -44 45 -59 43 -58 43 -73 34 -72 33 -86 25 -87 25 -101 11 -101 10 -27 -1 -26 -2 -73 -8z" transform="translate(0.000000,622.000000) scale(0.100000,-0.100000)"/></clipPath><clipPath id="piece-mask-100-3" shape-rendering="crispEdges"><path d="M2265 7346 l-60 -14 -58 -26 -58 -25 -49 -38 -48 -38 -36 -59 -35 -59 -7 -44 -6 -44 4 -47 5 -47 27 -55 26 -55 30 -35 30 -36 16 -74 16 -75 -6 -54 -7 -54 -18 -42 -19 -42 -38 -42 -37 -42 -54 -36 -54 -36 -69 -28 -69 -28 -103 -25 -103 -26 -106 -15 -105 -14 -190 -12 -189 -11 -225 6 -225 6 -194 11 -193 11 -9 -13 -9 -14 0 -100 0 -100 -16 -260 -16 -260 -1 -275 0 -275 17 -118 17 -117 19 -63 20 -62 30 -52 30 -52 33 -25 32 -25 40 -9 40 -9 55 12 55 11 55 31 55 32 45 22 45 22 50 13 50 14 76 0 77 0 63 -20 64 -19 50 -32 50 -31 57 -61 58 -60 40 -81 40 -81 21 -80 21 -80 1 -135 0 -135 -12 -60 -12 -60 -21 -65 -20 -65 -25 -45 -26 -45 -25 -27 -26 -28 -28 0 -27 0 -11 19 -10 20 -8 38 -8 38 -49 17 -50 17 -48 1 -48 0 -38 -19 -38 -20 -32 -36 -31 -36 -30 -59 -30 -59 -25 -76 -26 -76 -85 -347 -85 -347 -40 -135 -41 -135 -55 -140 -55 -140 -50 -99 -50 -100 -45 -75 -46 -76 -5 -9 -5 -9 244 7 244 6 250 15 250 15 280 6 280 6 105 -16 105 -16 53 -26 54 -26 19 -32 19 -31 0 -30 0 -30 -30 -62 -29 -63 -21 -22 -21 -23 -23 -50 -23 -50 -12 -53 -11 -53 0 -74 0 -73 14 -74 14 -73 31 -84 31 -84 45 -73 45 -72 58 -60 57 -60 55 -34 55 -35 43 -16 43 -17 62 -9 63 -9 119 9 120 8 60 16 60 15 73 37 73 36 44 49 44 49 22 57 22 57 0 110 -1 110 -21 79 -21 79 -45 111 -45 111 -8 46 -9 46 12 47 12 47 29 30 29 31 56 28 56 29 79 20 79 20 80 10 80 11 180 9 180 10 240 6 240 6 155 10 155 9 102 11 103 12 10 12 11 13 39 389 39 388 12 185 12 185 -6 160 -5 160 -17 80 -16 80 -25 55 -25 55 -27 28 -27 29 -30 16 -30 15 -60 0 -60 -1 -42 -16 -42 -15 -43 -44 -43 -45 -45 -12 -45 -13 -75 1 -75 0 -65 17 -65 16 -55 20 -55 20 -75 41 -75 41 -66 53 -66 54 -47 59 -46 60 -29 58 -29 58 -12 45 -12 45 1 95 0 95 16 60 16 60 34 72 33 72 44 57 43 58 39 36 39 35 51 39 51 39 100 48 100 49 80 21 80 21 112 5 112 6 63 -13 62 -12 51 -19 50 -19 60 -45 60 -45 21 0 21 0 17 19 17 19 16 49 16 48 5 234 4 235 -11 175 -12 176 -29 365 -30 365 -5 20 -4 21 -98 56 -98 56 -105 45 -105 44 -98 32 -98 31 -117 30 -117 29 -260 56 -260 55 -75 21 -75 20 -65 26 -65 26 -50 33 -50 33 -30 48 -30 48 0 60 1 60 17 51 18 51 26 24 26 24 28 39 29 39 0 35 0 34 -33 33 -33 33 -69 22 -70 21 -95 15 -95 15 -195 4 -195 5 -60 -14z" transform="translate(0.000000,736.000000) scale(0.100000,-0.100000)"/></clipPath><clipPath id="piece-mask-100-4" shape-rendering="crispEdges"><path d="M0 3852 l0 -2368 77 8 78 8 366 30 367 30 238 15 239 15 145 0 145 -1 71 -9 71 -9 27 -12 26 -12 0 -15 0 -16 -19 -20 -19 -21 -31 -135 -30 -135 -16 -99 -16 -98 -9 -126 -9 -125 9 -111 9 -111 20 -76 20 -76 33 -69 33 -69 64 -67 64 -68 71 -35 71 -35 60 -15 60 -16 90 -6 90 -6 86 12 87 11 72 25 72 25 66 37 66 36 91 91 90 91 33 57 34 57 33 78 34 78 20 77 20 77 12 103 12 103 -6 120 -6 120 -21 110 -22 110 -35 100 -35 100 -15 57 -15 57 6 34 6 35 23 33 23 34 40 22 40 22 59 16 59 15 104 0 104 0 107 -16 106 -16 130 -33 130 -33 129 -48 129 -47 146 -73 146 -72 85 -55 85 -56 3 3 3 4 40 308 39 309 20 190 20 190 6 210 7 210 -12 90 -11 90 -15 60 -16 60 -32 55 -33 55 -39 22 -40 23 -61 0 -61 0 -44 -15 -43 -15 -33 -26 -33 -25 -53 -24 -52 -24 -75 -12 -74 -11 -70 7 -70 7 -93 23 -93 24 -93 45 -92 45 -66 53 -66 53 -47 55 -47 55 -35 72 -35 71 -7 64 -8 63 7 105 8 106 23 63 24 63 39 49 40 49 60 30 60 30 65 17 65 17 155 -1 155 -1 110 -17 110 -16 170 -35 170 -36 36 -24 35 -24 28 0 27 0 18 10 18 9 21 48 21 49 12 89 12 90 -6 310 -6 310 -25 365 -25 365 -7 173 -7 172 -2363 0 -2364 0 0 -2368z" transform="translate(0.000000,622.000000) scale(0.100000,-0.100000)"/></clipPath><clipPath id="piece-mask-100-5" shape-rendering="crispEdges"><path d="M2260 4753 l-55 -3 -280 -15 -280 -15 -232 -7 -233 -6 0 -181 0 -181 10 -170 10 -170 15 -180 16 -180 29 -270 30 -269 0 -63 0 -63 -20 0 -20 0 -22 35 -23 34 -80 22 -80 21 -110 24 -110 23 -110 12 -110 11 -82 -6 -83 -7 -55 -14 -55 -15 -52 -26 -51 -26 -52 -52 -52 -51 -36 -75 -37 -75 -22 -95 -21 -95 -1 -185 -1 -185 33 -61 33 -61 52 -52 52 -52 53 -36 53 -35 59 -24 59 -24 78 -22 78 -23 150 1 150 0 79 22 78 22 102 46 101 47 75 4 75 4 35 -19 35 -19 31 -46 31 -45 19 -74 19 -73 -1 -175 -1 -175 -22 -145 -22 -145 -30 -140 -29 -140 -45 -165 -44 -165 -49 -155 -49 -155 -31 -88 -31 -87 2357 2 2357 3 56 140 57 141 55 164 56 165 41 150 41 150 28 140 29 140 17 135 17 134 -5 131 -5 130 -21 68 -22 67 -37 39 -37 39 -44 12 -45 12 -55 -15 -56 -15 -85 -26 -85 -27 -145 -29 -145 -30 -120 -10 -120 -11 -90 6 -90 7 -84 19 -84 19 -66 32 -66 31 -65 66 -66 66 -26 55 -25 55 -13 53 -12 54 0 88 0 88 12 54 13 53 19 44 19 45 49 65 48 66 49 37 49 37 74 35 75 36 80 20 80 21 115 6 115 6 102 -12 102 -12 99 -24 99 -24 63 -22 62 -21 28 -31 27 -30 15 5 15 6 6 45 6 44 -9 144 -10 144 -25 285 -24 285 -11 150 -10 150 -10 215 -10 215 0 115 0 116 -95 -12 -95 -12 -177 -11 -178 -10 -225 -6 -225 -6 -190 -10 -190 -10 -75 -10 -75 -10 -79 -20 -79 -20 -56 -29 -56 -28 -29 -31 -29 -30 -12 -47 -12 -47 9 -46 8 -46 45 -111 45 -111 21 -79 21 -79 1 -110 0 -110 -22 -57 -22 -57 -44 -49 -44 -49 -73 -36 -73 -37 -60 -15 -60 -16 -120 -8 -119 -9 -63 9 -62 9 -43 17 -43 16 -55 35 -55 34 -57 60 -58 60 -45 72 -45 73 -31 84 -31 84 -14 73 -14 74 0 73 0 74 11 53 12 53 23 50 23 50 21 23 21 22 29 63 30 62 0 30 0 30 -19 31 -19 32 -54 26 -53 26 -100 15 -100 15 -210 -2 -210 -2 -55 -3z" transform="translate(0.000000,476.000000) scale(0.100000,-0.100000)"/></clipPath><clipPath id="piece-mask-100-6" shape-rendering="crispEdges"><path d="M1603 4498 l8 -263 2 -335 2 -335 -18 -114 -18 -114 -23 -72 -23 -73 -37 -65 -36 -65 -47 -42 -48 -42 -41 -18 -41 -19 -44 -10 -44 -11 -66 0 -66 0 -84 15 -84 14 -75 26 -75 26 -100 29 -100 29 -95 17 -95 16 -62 -6 -62 -5 -50 -22 -50 -21 -30 -35 -31 -36 -19 -51 -19 -51 -13 -75 -13 -75 -1 -235 0 -235 18 -84 18 -85 24 -58 23 -57 33 -45 32 -45 41 -28 41 -27 61 -4 60 -4 54 23 54 23 45 35 46 35 58 18 59 18 31 0 32 0 36 -10 36 -10 45 -40 45 -39 36 -68 35 -68 26 -76 25 -75 86 -335 86 -334 48 -145 49 -145 42 -100 42 -100 50 -95 50 -95 63 -96 64 -96 93 -6 93 -6 302 -12 302 -12 218 12 218 11 105 15 105 15 103 26 103 25 69 28 69 28 54 36 54 36 37 42 38 42 19 42 18 42 7 54 6 54 -16 75 -16 74 -30 36 -30 35 -26 55 -27 55 -5 47 -4 47 6 44 7 44 35 59 36 59 49 39 50 38 67 29 67 28 70 12 70 12 175 -6 175 -6 95 -15 95 -15 70 -21 69 -22 33 -33 33 -33 0 -34 0 -35 -29 -39 -28 -39 -26 -24 -26 -24 -18 -51 -17 -51 -1 -60 0 -60 30 -48 30 -48 50 -33 50 -33 65 -26 65 -26 75 -20 75 -21 260 -55 260 -56 117 -29 117 -30 98 -31 98 -31 113 -49 113 -48 85 -50 84 -50 14 5 13 5 10 52 10 52 61 300 61 300 25 165 25 165 17 140 16 140 1 180 0 180 -12 65 -13 64 -15 46 -15 45 -30 44 -30 43 -42 19 -41 19 -42 0 -43 0 -92 -31 -93 -31 -115 -28 -115 -29 -104 -16 -104 -16 -123 0 -122 0 -63 11 -62 11 -56 21 -56 21 -50 32 -50 32 -37 41 -37 41 -20 38 -19 39 -17 58 -17 59 4 196 5 196 18 75 18 75 27 55 28 55 38 39 39 39 50 23 50 24 55 11 55 12 145 -6 145 -5 85 -17 85 -16 130 -31 129 -31 45 -23 44 -24 52 0 51 0 37 33 36 32 20 45 20 45 18 85 18 85 0 345 0 345 -18 280 -19 280 -6 105 -7 105 -2360 3 -2360 2 8 -262z" transform="translate(0.000000,476.000000) scale(0.100000,-0.100000)"/></clipPath><clipPath id="piece-mask-100-7" shape-rendering="crispEdges"><path d="M4474 5246 l-61 -14 -41 -21 -40 -20 -20 -26 -21 -26 -12 -36 -11 -35 5 -43 6 -43 41 -101 41 -101 19 -75 19 -76 12 -87 12 -87 -6 -130 -6 -130 -24 -95 -25 -95 -26 -64 -26 -64 -45 -73 -46 -73 -60 -61 -59 -60 -53 -34 -52 -33 -65 -26 -65 -26 -84 -10 -83 -11 -96 10 -95 10 -84 29 -83 29 -56 33 -56 34 -49 42 -50 42 -50 58 -50 58 -49 100 -49 100 -17 70 -17 70 -1 105 0 105 18 60 18 59 24 46 24 45 35 48 35 49 11 38 12 38 -7 26 -6 26 -26 16 -25 17 -57 13 -57 14 -170 0 -170 0 -300 -20 -300 -20 -305 -11 -305 -12 -4 -3 -4 -4 31 -382 32 -383 11 -167 11 -168 -4 -237 -5 -238 -16 -48 -16 -49 -17 -19 -17 -19 -21 0 -21 0 -60 45 -60 45 -50 19 -51 19 -62 12 -63 13 -112 -6 -112 -5 -80 -21 -80 -21 -100 -49 -100 -48 -51 -39 -51 -39 -39 -35 -39 -36 -43 -58 -44 -57 -33 -72 -34 -72 -16 -60 -16 -60 0 -95 -1 -95 12 -45 12 -45 29 -58 29 -58 46 -60 47 -59 66 -54 66 -53 75 -41 75 -41 55 -20 55 -20 65 -16 65 -17 75 0 75 -1 45 13 45 12 43 45 43 44 42 15 42 16 60 1 60 0 30 -15 30 -16 27 -29 27 -28 25 -55 25 -55 16 -80 17 -80 5 -160 6 -160 -12 -185 -12 -185 -40 -394 -39 -394 3 -3 2 -3 300 -25 300 -25 159 -11 158 -11 227 0 226 0 75 11 75 11 39 11 39 12 35 33 34 33 -6 27 -7 28 -18 25 -17 25 -26 65 -26 65 -23 90 -24 90 1 185 0 185 27 89 28 88 39 77 40 76 53 63 54 62 59 47 59 46 80 38 80 37 60 16 61 15 96 11 96 11 106 -11 106 -11 87 -25 86 -25 72 -33 73 -34 58 -43 59 -43 44 -45 44 -46 32 -50 33 -50 16 -48 16 -48 0 -27 0 -27 -19 -32 -20 -31 -35 -13 -35 -13 -16 -40 -16 -40 -6 -48 -6 -48 13 -47 14 -47 39 -39 39 -39 82 -38 81 -38 100 -25 100 -26 260 -51 260 -52 116 -28 115 -29 104 -36 103 -36 86 -44 86 -44 30 -20 30 -21 13 0 12 0 0 2358 0 2357 -23 11 -22 11 -145 76 -145 76 -115 47 -115 47 -100 34 -100 35 -125 34 -125 35 -110 20 -110 20 -145 5 -145 4 -61 -14z" transform="translate(0.000000,526.000000) scale(0.100000,-0.100000)"/></clipPath><clipPath id="piece-mask-100-8" shape-rendering="crispEdges"><path d="M1402 5948 l7 -113 18 -275 18 -275 0 -345 0 -345 -18 -85 -18 -85 -20 -45 -20 -45 -36 -32 -37 -33 -51 0 -52 0 -44 24 -45 23 -129 31 -130 31 -85 16 -85 17 -145 5 -145 6 -55 -12 -55 -11 -50 -24 -50 -23 -39 -39 -38 -39 -28 -55 -27 -55 -18 -75 -18 -75 -5 -196 -4 -196 17 -59 17 -58 19 -39 20 -38 37 -41 37 -41 50 -32 50 -32 56 -21 56 -21 62 -11 63 -11 122 0 123 0 104 16 104 16 115 29 115 28 93 31 92 31 43 0 42 0 41 -19 42 -19 30 -43 30 -44 15 -45 15 -46 13 -64 12 -65 0 -180 -1 -180 -16 -140 -17 -140 -25 -165 -25 -165 -61 -300 -61 -300 -10 -52 -10 -53 -9 0 -8 0 0 -13 0 -13 38 3 37 3 275 10 275 11 300 19 300 20 170 0 170 0 57 -14 57 -13 25 -17 26 -16 6 -26 7 -26 -12 -38 -11 -38 -35 -49 -35 -48 -24 -45 -24 -46 -18 -59 -18 -60 0 -105 1 -105 17 -70 17 -70 49 -100 49 -100 50 -58 50 -58 50 -42 49 -42 56 -34 56 -33 83 -29 84 -29 95 -10 96 -10 83 11 84 10 65 26 65 26 52 33 53 34 59 60 60 61 46 73 45 73 26 64 26 64 25 95 24 95 6 130 6 130 -12 87 -12 87 -19 76 -19 75 -42 102 -41 103 -5 50 -4 50 23 45 23 45 34 23 35 23 55 17 56 17 160 -1 160 0 95 -18 95 -17 130 -34 130 -34 115 -39 115 -39 111 -46 112 -46 109 -54 109 -55 52 -31 53 -31 4 0 5 0 0 2360 0 2360 -2358 0 -2357 0 7 -112z" transform="translate(0.000000,606.000000) scale(0.100000,-0.100000)"/></clipPath><clipPath id="piece-mask-100-9" shape-rendering="crispEdges"><path d="M3261 5344 l-55 -15 -40 -22 -40 -22 -23 -34 -23 -33 -6 -35 -6 -34 15 -57 15 -57 35 -100 35 -100 22 -110 21 -110 6 -120 6 -120 -12 -103 -12 -103 -20 -77 -20 -77 -34 -78 -33 -78 -34 -57 -33 -57 -90 -91 -91 -91 -66 -36 -66 -37 -72 -25 -72 -25 -87 -11 -86 -12 -90 6 -90 6 -60 16 -60 15 -71 35 -71 35 -64 68 -64 67 -33 69 -33 69 -20 76 -20 76 -9 111 -9 111 9 125 9 126 16 98 16 99 30 135 31 135 19 21 19 20 0 16 0 15 -26 12 -27 12 -71 9 -71 9 -145 1 -145 0 -239 -15 -238 -15 -367 -30 -366 -30 -75 -7 -75 -8 0 -2355 0 -2355 140 -8 140 -7 465 -3 465 -2 115 18 115 18 94 31 94 31 51 35 51 35 39 36 38 36 25 39 25 39 20 56 20 56 5 100 5 100 -11 75 -11 75 -17 73 -17 73 -48 35 -49 34 -11 25 -11 25 13 24 13 25 46 19 46 20 70 15 70 16 140 12 140 12 130 -6 130 -6 82 -20 82 -20 63 -30 63 -31 49 -37 50 -38 42 -63 43 -62 21 -66 20 -66 0 -88 0 -89 -15 -69 -14 -69 -30 -79 -30 -79 -27 -65 -27 -65 -1 -66 -1 -65 27 -42 28 -41 45 -27 46 -27 72 -19 72 -20 160 -5 160 -6 135 12 135 12 171 24 171 25 159 29 159 30 132 27 132 27 8 16 8 16 0 705 0 705 18 110 19 110 19 57 19 57 30 47 29 47 36 25 35 25 54 5 53 4 56 -16 56 -16 13 -13 13 -12 50 -32 50 -31 54 -16 55 -16 66 0 67 0 77 20 77 19 70 37 70 37 75 70 75 70 39 66 40 67 21 84 21 84 -5 57 -5 57 -33 62 -33 62 -60 54 -61 54 -91 45 -90 44 -92 25 -92 25 -96 12 -97 12 -116 -6 -116 -6 -85 -16 -85 -17 -105 -35 -104 -35 -14 -19 -13 -19 -20 0 -20 0 -16 38 -16 37 -5 141 -5 141 12 229 12 229 25 315 24 315 20 265 20 265 0 35 0 35 -83 53 -82 54 -146 72 -146 73 -129 47 -129 48 -130 33 -130 33 -106 16 -107 16 -108 -1 -109 0 -54 -15z" transform="translate(0.000000,536.000000) scale(0.100000,-0.100000)"/></clipPath><clipPath id="piece-mask-100-10" shape-rendering="crispEdges"><path d="M1424 4918 l7 -173 25 -365 25 -365 6 -310 6 -310 -12 -90 -12 -89 -21 -49 -21 -48 -18 -9 -18 -10 -27 0 -28 0 -35 24 -36 24 -170 36 -170 35 -110 16 -110 17 -155 1 -155 1 -65 -17 -65 -17 -60 -30 -60 -30 -40 -49 -39 -49 -24 -63 -23 -63 -8 -106 -7 -105 8 -63 7 -64 35 -71 35 -72 47 -55 47 -55 66 -53 66 -53 92 -45 93 -45 93 -24 93 -23 70 -7 70 -7 74 11 75 12 52 24 53 24 33 25 33 26 43 15 44 15 61 0 61 0 40 -23 39 -22 33 -55 32 -55 16 -60 15 -60 11 -90 12 -90 -6 -205 -6 -205 -16 -155 -16 -155 -40 -320 -40 -320 -5 -31 -6 -31 264 -7 263 -7 265 -14 265 -15 295 -6 295 -7 108 12 108 12 67 21 67 20 37 38 38 38 0 53 0 54 -29 60 -29 60 -30 120 -30 120 -16 85 -15 85 -12 110 -11 110 6 93 7 93 15 57 15 57 24 52 23 52 41 43 40 44 49 27 48 26 59 16 59 15 66 0 66 0 59 -15 58 -16 57 -30 56 -30 52 -45 52 -46 45 -63 45 -63 40 -84 39 -84 26 -99 26 -100 11 -127 12 -128 -12 -117 -12 -118 -16 -75 -16 -75 -23 -70 -23 -70 -26 -70 -26 -70 0 -58 0 -58 14 -27 14 -27 29 -27 28 -27 45 -20 45 -20 69 -12 69 -12 171 6 171 5 125 21 125 21 181 45 181 45 144 46 144 46 142 54 142 54 25 13 25 13 -45 65 -45 64 -55 96 -55 97 -50 113 -51 114 -53 160 -54 160 -86 334 -86 335 -25 75 -26 76 -35 68 -36 68 -45 39 -45 40 -36 10 -36 10 -32 0 -31 0 -60 -19 -60 -18 -38 -31 -39 -31 -58 -27 -59 -26 -61 4 -62 4 -41 27 -41 28 -32 45 -33 45 -23 57 -24 58 -18 85 -18 84 0 235 1 235 13 75 13 75 19 51 19 51 31 36 30 35 50 21 50 22 62 5 62 6 95 -16 95 -17 100 -29 100 -29 75 -26 75 -26 84 -14 84 -15 66 0 66 0 44 11 44 10 41 19 41 18 48 42 47 42 36 65 37 65 23 73 23 72 18 114 18 114 -2 335 -2 335 -8 260 -8 260 -2364 3 -2364 2 7 -172z" transform="translate(0.000000,509.000000) scale(0.100000,-0.100000)"/></clipPath><clipPath id="piece-mask-100-11" shape-rendering="crispEdges"><path d="M4554 5126 l-61 -14 -40 -20 -40 -21 -31 -35 -31 -35 -6 -43 -6 -43 15 -50 14 -50 41 -115 40 -115 18 -85 18 -85 0 -210 0 -210 -23 -105 -24 -105 -39 -100 -39 -100 -48 -75 -49 -75 -53 -53 -54 -53 -56 -34 -57 -34 -58 -16 -59 -15 -72 0 -72 0 -79 15 -78 15 -62 30 -62 31 -41 46 -40 46 -15 50 -15 51 0 40 0 41 15 65 16 65 49 100 49 100 21 102 20 101 0 69 0 69 -15 57 -15 58 -21 41 -21 41 -46 49 -46 49 -60 34 -61 33 -65 22 -65 22 -95 18 -95 19 -155 12 -155 12 -305 -7 -305 -6 -264 -7 -264 -6 6 -126 7 -126 11 -301 12 -301 -12 -169 -11 -170 -16 -94 -16 -94 -25 -76 -24 -75 -41 -67 -40 -67 -37 -34 -37 -33 -46 -22 -45 -23 -62 -10 -62 -11 -79 11 -80 12 -54 19 -54 18 -24 16 -25 16 -84 32 -84 32 -105 0 -105 1 -59 -24 -59 -23 -66 -67 -67 -66 -31 -65 -31 -65 -16 -48 -16 -48 -15 -86 -15 -86 0 -113 0 -113 25 -80 26 -80 49 -75 50 -74 56 -51 56 -52 45 -30 44 -31 92 -43 92 -44 85 -23 85 -22 125 0 125 1 59 21 59 22 35 27 35 27 56 23 56 23 49 0 50 0 44 -22 45 -21 31 -44 31 -44 17 -45 18 -45 16 -87 15 -87 6 -165 6 -165 -12 -195 -12 -195 -19 -250 -18 -250 -7 -93 -7 -92 2367 2 2367 3 29 80 28 80 55 175 55 175 40 150 41 150 29 140 30 140 22 145 22 145 1 175 1 175 -19 73 -19 74 -31 45 -31 46 -35 19 -35 19 -75 -4 -75 -4 -101 -47 -102 -46 -78 -22 -79 -22 -150 0 -150 -1 -78 23 -78 22 -59 24 -59 24 -53 35 -53 36 -52 52 -52 52 -33 61 -33 61 1 185 1 185 21 95 22 95 37 75 36 75 52 51 52 52 51 26 52 26 55 15 55 14 83 7 82 6 110 -11 110 -12 110 -23 110 -24 80 -21 80 -22 23 -34 22 -35 20 0 20 0 0 63 0 63 -30 269 -29 270 -16 180 -15 180 -10 170 -10 170 0 188 0 188 -9 -5 -9 -6 -116 56 -116 55 -163 63 -162 64 -134 41 -134 41 -116 30 -116 29 -120 21 -120 22 -155 4 -155 4 -61 -14z" transform="translate(0.000000,514.000000) scale(0.100000,-0.100000)"/></clipPath></defs></svg>