<?xml version="1.0" standalone="no"?>
<!DOCTYPE svg PUBLIC "-//W3C//DTD SVG 20010904//EN"
 "http://www.w3.org/TR/2001/REC-SVG-20010904/DTD/svg10.dtd">
<svg version="1.0" xmlns="http://www.w3.org/2000/svg"
 width="395.000000pt" height="267.000000pt" viewBox="0 0 395.000000 267.000000"
 preserveAspectRatio="xMidYMid meet">
<metadata>
Created by potrace 1.16, written by Peter Selinger 2001-2019
</metadata>
<g transform="translate(0.000000,267.000000) scale(0.100000,-0.100000)"
fill="#000000" stroke="none">
<path d="M0 1352 l0 -1319 178 -6 177 -7 213 -10 214 -10 110 10 110 9 44 23
44 22 11 35 11 36 -15 40 -16 40 -30 81 -30 81 -12 81 -12 80 11 54 11 53 16
39 16 38 47 50 47 50 46 23 45 24 63 16 63 16 82 5 81 6 83 -16 83 -15 64 -30
64 -30 49 -46 49 -45 28 -61 27 -61 -4 -67 -4 -66 -42 -91 -42 -91 0 -38 0
-38 20 -32 20 -33 43 -20 42 -19 52 -12 52 -11 138 -10 138 -10 230 -10 230
-11 40 -9 40 -9 28 -7 27 -6 0 9 0 9 48 51 47 51 33 55 34 56 37 88 38 88 47
160 48 160 33 71 32 71 35 26 35 27 39 0 39 0 21 -6 22 -6 10 -23 11 -24 38
-11 39 -12 43 12 44 12 53 51 53 51 30 61 30 61 17 70 16 69 -4 105 -3 105
-23 43 -23 44 -42 45 -42 45 -60 33 -60 33 -75 24 -75 23 -180 0 -180 0 -84
-23 -84 -23 -29 -21 -30 -20 -11 11 -12 12 -3 103 -4 103 21 269 20 269 3 120
3 120 -1487 3 -1488 2 0 -1318z"/>
</g>
</svg>
