<?xml version="1.0" standalone="no"?>
<!DOCTYPE svg PUBLIC "-//W3C//DTD SVG 20010904//EN"
 "http://www.w3.org/TR/2001/REC-SVG-20010904/DTD/svg10.dtd">
<svg version="1.0" xmlns="http://www.w3.org/2000/svg"
 width="465.000000pt" height="328.000000pt" viewBox="0 0 465.000000 328.000000"
 preserveAspectRatio="xMidYMid meet">
<metadata>
Created by potrace 1.16, written by Peter Selinger 2001-2019
</metadata>
<g transform="translate(0.000000,328.000000) scale(0.100000,-0.100000)"
fill="#000000" stroke="none">
<path d="M2045 3265 l-70 -13 -58 -22 -57 -21 -49 -40 -50 -39 -25 -42 -24
-43 -10 -55 -10 -55 8 -55 8 -55 21 -60 21 -60 20 -25 20 -25 16 -22 16 -22
-7 -19 -6 -20 -22 -6 -22 -6 -80 0 -80 0 -230 14 -230 15 -199 7 -198 7 7
-369 7 -369 -12 -84 -11 -84 -21 -56 -21 -56 -46 -46 -46 -46 -53 -12 -53 -11
-25 0 -25 0 -74 15 -74 16 -56 29 -55 29 -34 6 -34 7 -31 -16 -31 -16 -20 -40
-21 -40 -9 -78 -10 -77 11 -79 10 -78 23 -52 23 -51 28 -33 28 -33 40 -21 41
-20 42 5 43 4 53 34 53 34 68 0 69 0 34 -39 34 -40 21 -65 20 -66 14 -130 14
-130 16 -175 15 -175 20 -94 19 -93 4 -4 4 -4 1465 2 1465 3 -45 120 -44 120
-43 150 -43 151 -22 127 -22 126 3 113 4 113 20 34 20 34 27 20 27 20 48 -1
48 -1 76 -30 76 -30 74 -12 74 -12 115 6 115 6 75 15 75 16 65 22 65 21 50 25
49 24 29 22 29 21 14 27 14 27 0 26 0 26 -15 28 -14 29 -45 39 -44 39 -54 26
-53 26 -45 15 -46 15 -76 16 -77 16 -90 0 -90 0 -53 -11 -53 -11 -62 -30 -63
-31 -27 0 -27 0 -23 29 -23 29 -12 55 -12 55 1 165 0 165 17 245 17 245 -3 60
-3 60 -92 27 -92 27 -128 20 -128 21 -206 25 -206 25 -68 15 -67 16 -44 21
-44 20 -20 26 -20 25 0 44 0 44 10 18 9 18 36 36 35 35 0 19 0 18 -25 37 -25
37 -73 35 -72 35 -89 16 -89 15 -81 -1 -81 -1 -70 -13z"/>
</g>
</svg>
