<?xml version="1.0" standalone="no"?>
<!DOCTYPE svg PUBLIC "-//W3C//DTD SVG 20010904//EN"
 "http://www.w3.org/TR/2001/REC-SVG-20010904/DTD/svg10.dtd">
<svg version="1.0" xmlns="http://www.w3.org/2000/svg"
 width="369.000000pt" height="270.000000pt" viewBox="0 0 369.000000 270.000000"
 preserveAspectRatio="xMidYMid meet">
<metadata>
Created by potrace 1.16, written by Peter Selinger 2001-2019
</metadata>
<g transform="translate(0.000000,270.000000) scale(0.100000,-0.100000)"
fill="#000000" stroke="none">
<path d="M757 2643 l3 -58 16 -247 17 -246 -5 -119 -4 -119 -20 -39 -20 -39
-28 -9 -28 -9 -78 31 -79 31 -68 16 -68 16 -85 -4 -85 -4 -32 -17 -33 -17 -36
-32 -35 -31 -25 -49 -24 -48 -17 -63 -16 -62 0 -120 0 -120 17 -45 17 -44 21
-23 21 -23 23 0 23 0 34 30 34 29 27 11 27 10 47 0 47 0 28 -18 27 -19 26 -34
25 -34 23 -75 24 -75 27 -135 27 -135 29 -125 29 -125 32 -95 31 -95 38 -84
39 -84 0 -11 0 -11 51 4 50 3 152 -11 152 -12 245 -24 245 -24 67 -3 67 -2 8
8 8 8 -16 12 -16 11 -29 150 -28 150 -1 165 0 165 26 55 26 55 33 32 34 33 53
20 53 20 88 10 87 10 85 0 85 0 63 -15 62 -15 51 -25 50 -26 40 -36 41 -37 24
-48 24 -47 0 -55 0 -54 -40 -60 -40 -60 -6 -30 -6 -31 6 -25 6 -25 24 -26 25
-26 49 -19 49 -19 84 -15 84 -16 255 -25 255 -25 110 -20 110 -19 48 -15 47
-14 0 1309 0 1309 -1467 0 -1468 0 2 -57z"/>
</g>
</svg>
