<?xml version="1.0" standalone="no"?>
<!DOCTYPE svg PUBLIC "-//W3C//DTD SVG 20010904//EN"
 "http://www.w3.org/TR/2001/REC-SVG-20010904/DTD/svg10.dtd">
<svg version="1.0" xmlns="http://www.w3.org/2000/svg"
 width="301.000000pt" height="354.000000pt" viewBox="0 0 301.000000 354.000000"
 preserveAspectRatio="xMidYMid meet">
<metadata>
Created by potrace 1.16, written by Peter Selinger 2001-2019
</metadata>
<g transform="translate(0.000000,354.000000) scale(0.100000,-0.100000)"
fill="#000000" stroke="none">
<path d="M1365 3533 l-30 -4 -59 -15 -60 -15 -46 -24 -47 -24 -49 -54 -49 -53
-20 -55 -20 -54 0 -100 1 -100 17 -64 17 -64 26 -61 26 -61 5 -22 5 -23 -6
-23 -5 -23 -45 -22 -44 -23 -104 -9 -103 -9 -190 9 -190 9 -197 7 -198 7 0
-1315 0 -1315 182 -7 183 -7 235 -8 235 -8 106 7 105 8 36 15 36 15 21 21 21
21 0 54 0 54 -52 106 -51 107 -1 57 0 57 21 40 21 40 34 31 33 32 40 20 40 20
43 12 43 11 75 9 75 8 69 -9 68 -8 55 -20 55 -19 46 -31 46 -32 11 -21 11 -21
-13 -8 -14 -9 -22 0 -21 0 -11 -31 -11 -32 0 -46 0 -47 15 -22 16 -22 42 -24
42 -24 70 -20 70 -21 220 -41 220 -41 120 -30 120 -31 86 -33 86 -33 41 -21
41 -21 21 0 20 0 0 88 0 87 15 215 15 215 -1 145 0 145 -13 76 -14 76 -16 30
-16 31 -26 21 -26 20 -34 7 -34 6 -45 -7 -46 -6 -29 -29 -30 -29 -42 -12 -43
-11 -85 16 -85 17 -75 35 -74 35 -42 34 -41 34 -17 35 -16 34 0 25 0 25 29 55
29 55 19 18 20 19 19 13 19 13 53 25 53 26 58 5 58 5 44 -21 44 -22 40 -22 40
-21 85 -4 85 -4 35 24 35 24 22 39 21 38 13 66 13 66 0 160 1 160 -9 272 -9
271 -23 11 -24 10 -107 10 -108 11 -250 10 -250 10 -70 10 -70 10 -53 17 -54
16 -29 29 -29 30 -6 25 -7 26 23 51 22 51 24 55 24 55 0 80 0 80 -29 60 -28
60 -47 43 -47 44 -64 30 -64 30 -78 13 -78 14 -80 -1 -80 -1 -30 -4z"/>
</g>
</svg>
