<?xml version="1.0" standalone="no"?>
<!DOCTYPE svg PUBLIC "-//W3C//DTD SVG 20010904//EN"
 "http://www.w3.org/TR/2001/REC-SVG-20010904/DTD/svg10.dtd">
<svg version="1.0" xmlns="http://www.w3.org/2000/svg"
 width="381.000000pt" height="353.000000pt" viewBox="0 0 381.000000 353.000000"
 preserveAspectRatio="xMidYMid meet">
<metadata>
Created by potrace 1.16, written by Peter Selinger 2001-2019
</metadata>
<g transform="translate(0.000000,353.000000) scale(0.100000,-0.100000)"
fill="#000000" stroke="none">
<path d="M1378 3514 l-58 -13 -47 -25 -48 -24 -37 -39 -37 -38 -20 -45 -19
-45 -7 -41 -6 -42 10 -57 11 -58 42 -91 42 -91 4 -68 4 -67 -39 -39 -39 -39
-59 -17 -59 -18 -111 -6 -110 -7 -382 10 -383 10 -4 -5 -4 -4 -10 -250 -10
-250 9 -133 9 -132 15 -66 15 -65 27 -56 27 -55 40 -34 40 -34 40 -11 41 -12
70 12 69 12 6 9 6 9 44 20 45 19 45 7 45 7 69 -16 69 -16 59 -32 59 -31 48
-52 47 -52 12 -40 12 -40 0 -22 0 -22 -20 -38 -19 -39 -40 -31 -39 -31 -63
-31 -63 -31 -79 -16 -79 -16 -56 12 -56 12 -37 25 -38 25 -48 10 -48 11 -34
-6 -34 -6 -23 -16 -24 -15 -19 -32 -20 -32 -15 -57 -15 -57 -10 -97 -11 -98
-10 -215 -10 -215 -16 -148 -17 -148 9 -9 9 -8 355 -16 355 -16 125 0 125 1
74 9 74 10 43 20 42 21 12 29 12 29 -7 30 -7 31 -28 57 -29 58 -17 65 -17 65
-1 70 0 70 25 55 26 55 34 34 34 34 51 24 51 23 59 11 59 11 82 -6 83 -7 57
-15 58 -15 55 -25 54 -25 33 -25 33 -25 17 -25 16 -25 -18 -19 -18 -20 -18 0
-17 0 -11 -31 -11 -32 0 -38 0 -38 11 -25 12 -25 40 -27 39 -26 54 -18 53 -18
223 -47 223 -47 100 -30 100 -30 83 -38 82 -39 29 -20 29 -21 15 0 16 0 5 8 5
9 10 64 10 64 11 240 10 240 11 65 10 64 22 55 22 55 34 23 34 23 33 0 32 0
75 -30 75 -30 53 -11 53 -11 53 5 54 6 44 26 44 25 25 33 24 32 16 38 15 38
16 74 15 74 0 114 0 113 -15 50 -14 49 -32 38 -31 38 -47 23 -46 24 -53 11
-53 11 -67 0 -67 0 -70 -10 -70 -10 -90 -22 -90 -21 -21 -14 -21 -13 -16 6
-16 6 -11 31 -12 32 -5 85 -5 85 21 310 20 310 4 98 3 99 -36 -5 -35 -4 -138
-52 -139 -52 -141 -39 -142 -39 -110 -21 -110 -22 -129 -5 -128 -6 -52 12 -52
11 -27 26 -27 25 -6 24 -6 24 12 35 11 35 21 6 20 7 16 36 16 37 0 115 -1 115
-21 110 -22 110 -28 85 -29 85 -31 62 -32 62 -31 36 -32 36 -28 15 -28 14 -53
-1 -53 -1 -57 -14z"/>
</g>
</svg>
