<?xml version="1.0" standalone="no"?>
<!DOCTYPE svg PUBLIC "-//W3C//DTD SVG 20010904//EN"
 "http://www.w3.org/TR/2001/REC-SVG-20010904/DTD/svg10.dtd">
<svg version="1.0" xmlns="http://www.w3.org/2000/svg"
 width="392.000000pt" height="387.000000pt" viewBox="0 0 392.000000 387.000000"
 preserveAspectRatio="xMidYMid meet">
<metadata>
Created by potrace 1.16, written by Peter Selinger 2001-2019
</metadata>
<g transform="translate(0.000000,387.000000) scale(0.100000,-0.100000)"
fill="#000000" stroke="none">
<path d="M0 2370 l0 -1500 308 3 307 2 78 -13 78 -14 68 -23 69 -23 28 -18 29
-18 38 -35 39 -36 21 -40 20 -40 5 -76 4 -76 -11 -52 -11 -52 -31 -67 -32 -67
-5 -67 -5 -66 26 -25 25 -26 53 -16 54 -17 196 -5 197 -6 55 26 55 25 41 41
40 40 31 61 30 60 15 62 15 63 0 105 0 105 -14 65 -14 65 -28 75 -27 75 -5 53
-4 52 32 30 32 30 56 16 56 17 155 -6 156 -5 90 -16 90 -17 130 -29 130 -29
159 -45 158 -46 21 0 20 0 -6 6 -5 6 19 56 20 57 29 120 29 120 20 130 21 130
25 180 24 180 21 79 20 79 26 44 26 44 31 20 32 20 40 -4 40 -4 90 -44 89 -44
67 0 67 0 43 30 43 31 28 39 28 40 16 65 17 65 -6 130 -5 130 -17 75 -17 75
-20 40 -20 40 -26 27 -25 27 -27 6 -28 6 -37 -15 -37 -16 -28 -24 -29 -24 -69
-12 -69 -13 -85 5 -85 4 -55 27 -56 27 -40 44 -41 44 -26 52 -26 52 -20 76
-19 75 -10 136 -9 136 7 205 7 205 -10 7 -10 8 -1492 0 -1493 0 0 -1500z"/>
</g>
</svg>
