<?xml version="1.0" standalone="no"?>
<!DOCTYPE svg PUBLIC "-//W3C//DTD SVG 20010904//EN"
 "http://www.w3.org/TR/2001/REC-SVG-20010904/DTD/svg10.dtd">
<svg version="1.0" xmlns="http://www.w3.org/2000/svg"
 width="499.000000pt" height="331.000000pt" viewBox="0 0 499.000000 331.000000"
 preserveAspectRatio="xMidYMid meet">
<metadata>
Created by potrace 1.16, written by Peter Selinger 2001-2019
</metadata>
<g transform="translate(0.000000,331.000000) scale(0.100000,-0.100000)"
fill="#000000" stroke="none">
<path d="M1004 3268 l5 -43 7 -175 6 -175 0 -165 -1 -165 -15 -97 -16 -97 -20
-54 -21 -55 -40 -45 -39 -46 -36 -11 -35 -12 -47 4 -47 5 -122 36 -122 36 -88
11 -88 11 -50 -6 -50 -7 -45 -19 -45 -19 -32 -48 -32 -47 -16 -65 -15 -65 0
-131 0 -132 20 -64 20 -64 36 -42 36 -43 47 -24 47 -23 64 -12 64 -12 71 7 70
7 65 14 65 14 98 31 98 31 33 -6 32 -6 27 -28 26 -27 17 -40 16 -40 15 -75 14
-75 8 -463 9 -463 4 -5 5 -4 464 -2 464 -3 68 17 67 18 48 24 47 25 21 23 21
23 19 35 19 35 -1 100 0 100 -50 140 -49 140 0 85 0 85 23 40 23 41 42 26 42
26 55 16 55 15 66 6 66 7 59 -12 59 -12 39 -20 39 -20 47 -44 47 -44 31 -63
31 -63 16 -65 15 -65 6 -85 6 -84 -11 -110 -12 -110 -20 -100 -20 -100 -20
-64 -19 -63 0 -32 0 -31 19 -31 19 -31 47 -23 47 -23 89 -5 89 -5 93 13 92 12
130 33 130 33 100 37 100 36 127 57 128 57 0 25 0 25 -40 112 -39 112 -26 98
-25 98 -20 114 -20 114 0 106 0 107 15 51 15 50 24 26 24 26 27 7 27 7 37 -12
38 -11 11 -24 11 -25 43 -12 43 -11 105 5 105 5 90 27 90 26 64 30 64 29 58
36 59 35 61 62 62 62 30 62 29 63 5 78 5 77 -15 82 -16 83 -31 66 -32 66 -61
62 -62 62 -38 18 -37 17 -54 9 -54 9 -19 -4 -18 -4 -27 -6 -28 -5 -32 -29 -33
-29 -44 -12 -44 -12 -53 0 -52 -1 -46 23 -47 22 -34 45 -34 45 -21 56 -21 55
-14 96 -15 96 1 150 1 150 7 165 8 165 -11 7 -11 8 -1503 0 -1503 0 5 -42z"/>
</g>
</svg>
