<?xml version="1.0" standalone="no"?>
<!DOCTYPE svg PUBLIC "-//W3C//DTD SVG 20010904//EN"
 "http://www.w3.org/TR/2001/REC-SVG-20010904/DTD/svg10.dtd">
<svg version="1.0" xmlns="http://www.w3.org/2000/svg"
 width="304.000000pt" height="387.000000pt" viewBox="0 0 304.000000 387.000000"
 preserveAspectRatio="xMidYMid meet">
<metadata>
Created by potrace 1.16, written by Peter Selinger 2001-2019
</metadata>
<g transform="translate(0.000000,387.000000) scale(0.100000,-0.100000)"
fill="#000000" stroke="none">
<path d="M5 3862 l10 -7 -7 -205 -7 -205 9 -136 10 -136 19 -75 20 -76 26 -52
26 -52 41 -44 40 -44 56 -27 55 -27 85 -4 85 -5 69 13 69 12 29 24 28 24 37
16 37 15 28 -6 27 -6 25 -27 26 -27 20 -40 20 -40 17 -75 17 -75 5 -130 6
-130 -17 -65 -16 -65 -28 -40 -28 -39 -43 -31 -43 -30 -67 0 -67 0 -89 44 -90
44 -40 4 -40 4 -32 -20 -31 -20 -26 -44 -26 -44 -20 -79 -21 -79 -24 -180 -25
-180 -21 -130 -20 -130 -29 -120 -29 -120 -20 -57 -20 -58 8 -4 8 -5 309 2
309 2 98 -22 98 -22 64 -29 63 -30 42 -42 42 -42 20 -44 19 -45 6 -68 6 -68
-17 -75 -17 -76 -20 -18 -21 -19 -14 -27 -14 -27 0 -26 0 -27 16 -28 17 -27
41 -27 41 -27 62 -19 62 -19 87 -12 87 -11 91 4 91 5 60 23 60 23 61 61 60 61
14 48 13 49 -9 26 -9 27 -32 20 -31 20 -12 41 -12 42 7 31 6 30 21 27 22 27
52 23 52 23 59 15 59 16 245 40 244 41 95 20 95 21 95 30 95 30 53 25 52 25
-6 10 -6 10 -9 451 -8 452 -15 76 -14 76 -20 44 -19 44 -26 23 -25 24 -40 5
-40 5 -98 -31 -99 -31 -65 -14 -65 -14 -62 -6 -63 -7 -62 11 -62 12 -47 23
-47 24 -36 43 -36 42 -20 64 -20 64 0 122 0 121 15 65 16 65 32 47 32 48 45
19 45 18 43 7 43 6 85 -10 85 -11 122 -36 122 -36 54 -5 55 -4 37 11 38 11 40
46 40 46 21 55 20 54 15 95 16 96 1 156 1 157 -7 210 -7 210 -5 18 -5 17
-1507 0 -1507 0 10 -8z"/>
</g>
</svg>
