<?xml version="1.0" standalone="no"?>
<!DOCTYPE svg PUBLIC "-//W3C//DTD SVG 20010904//EN"
 "http://www.w3.org/TR/2001/REC-SVG-20010904/DTD/svg10.dtd">
<svg version="1.0" xmlns="http://www.w3.org/2000/svg"
 width="301.000000pt" height="322.000000pt" viewBox="0 0 301.000000 322.000000"
 preserveAspectRatio="xMidYMid meet">
<metadata>
Created by potrace 1.16, written by Peter Selinger 2001-2019
</metadata>
<g transform="translate(0.000000,322.000000) scale(0.100000,-0.100000)"
fill="#000000" stroke="none">
<path d="M1877 3210 l-38 -10 -29 -15 -29 -15 -15 -22 -16 -22 0 -44 0 -43 11
-22 12 -22 23 -23 22 -23 12 -51 13 -51 -6 -136 -6 -136 -21 -90 -20 -90 -26
-80 -27 -80 -34 -68 -34 -69 -42 -45 -41 -45 -27 -14 -28 -14 -33 0 -33 0 -35
21 -35 21 -34 36 -34 37 -37 80 -38 80 -17 60 -16 60 -6 105 -6 105 16 62 16
61 31 51 31 50 6 36 6 36 -40 38 -40 38 -59 16 -59 16 -68 11 -68 11 -226 0
-225 0 -192 -11 -191 -10 -70 -3 -70 -2 -3 -1492 -2 -1493 1496 0 1496 0 -6
88 -7 87 -9 370 -10 370 -14 71 -15 72 -24 48 -25 49 -30 18 -30 17 -33 0 -32
0 -91 -43 -91 -42 -95 0 -95 0 -50 31 -50 31 -32 42 -33 42 -22 72 -23 72 1
190 1 190 12 56 12 56 28 32 28 31 45 0 45 0 69 -34 69 -34 45 -13 45 -12 71
0 72 0 55 27 55 27 37 41 38 41 27 61 27 61 16 65 16 65 11 115 11 115 -7 250
-7 250 4 4 4 4 -125 44 -125 45 -154 44 -153 44 -137 26 -136 26 -130 4 -130
3 -38 -9z"/>
</g>
</svg>
