<?xml version="1.0" standalone="no"?>
<!DOCTYPE svg PUBLIC "-//W3C//DTD SVG 20010904//EN"
 "http://www.w3.org/TR/2001/REC-SVG-20010904/DTD/svg10.dtd">
<svg version="1.0" xmlns="http://www.w3.org/2000/svg"
 width="319.000000pt" height="388.000000pt" viewBox="0 0 319.000000 388.000000"
 preserveAspectRatio="xMidYMid meet">
<metadata>
Created by potrace 1.16, written by Peter Selinger 2001-2019
</metadata>
<g transform="translate(0.000000,388.000000) scale(0.100000,-0.100000)"
fill="#000000" stroke="none">
<path d="M162 3552 l-4 -327 16 -101 15 -100 21 -56 21 -56 34 -45 34 -45 48
-23 48 -23 70 0 70 1 45 13 45 12 33 29 32 29 26 6 25 6 52 -4 52 -4 40 -19
40 -19 62 -62 61 -62 32 -66 31 -66 16 -83 15 -82 -6 -60 -6 -59 -28 -61 -29
-60 -62 -62 -61 -62 -59 -35 -58 -36 -64 -29 -64 -30 -90 -26 -90 -26 -85 -6
-85 -5 -43 11 -43 12 -11 24 -11 24 -30 11 -30 10 -39 0 -39 0 -28 -15 -29
-14 -23 -48 -24 -48 -3 -138 -4 -139 17 -101 16 -102 25 -100 24 -100 48 -142
47 -143 40 5 40 6 410 2 410 2 52 -18 52 -18 30 -28 29 -27 12 -43 11 -42 -20
-81 -21 -80 -34 -38 -35 -39 -7 -36 -7 -37 7 -44 6 -44 19 -39 20 -38 46 -51
45 -50 70 -36 69 -37 77 -19 77 -20 101 0 102 0 59 15 59 16 35 21 36 22 21
20 21 21 19 35 19 35 -1 100 0 100 -28 70 -28 70 -19 53 -19 52 14 33 14 34
27 21 28 22 61 19 62 19 89 11 90 11 260 10 260 10 130 12 130 11 38 0 39 0
-6 30 -6 29 0 1489 0 1489 -1507 0 -1508 0 -3 -328z"/>
</g>
</svg>
