<?xml version="1.0" standalone="no"?>
<!DOCTYPE svg PUBLIC "-//W3C//DTD SVG 20010904//EN"
 "http://www.w3.org/TR/2001/REC-SVG-20010904/DTD/svg10.dtd">
<svg version="1.0" xmlns="http://www.w3.org/2000/svg"
 width="400.000000pt" height="306.000000pt" viewBox="0 0 400.000000 306.000000"
 preserveAspectRatio="xMidYMid meet">
<metadata>
Created by potrace 1.16, written by Peter Selinger 2001-2019
</metadata>
<g transform="translate(0.000000,306.000000) scale(0.100000,-0.100000)"
fill="#000000" stroke="none">
<path d="M163 3053 l-142 -4 -6 -33 -7 -33 -1 -399 -2 -399 17 -73 17 -74 26
-56 26 -57 37 -38 37 -38 54 -16 55 -15 57 6 58 6 123 41 123 41 76 5 77 6 27
-7 27 -7 33 -34 32 -35 14 -48 14 -47 0 -185 0 -185 -24 -72 -23 -72 -34 -39
-33 -39 -31 -13 -31 -13 -58 6 -58 5 -74 38 -74 39 -64 0 -63 0 -38 -42 -37
-42 -26 -78 -25 -78 -42 -245 -41 -245 -29 -115 -29 -116 -24 -65 -25 -65 -21
-42 -21 -41 0 -13 0 -13 298 -3 297 -4 107 12 107 11 77 19 77 20 56 25 55 26
47 50 47 49 13 38 13 37 1 70 0 70 -8 35 -7 36 -35 54 -35 54 -6 32 -6 33 12
35 11 35 47 45 47 46 64 26 64 25 79 12 78 11 57 -12 58 -12 51 -36 52 -35 27
-39 27 -38 24 -59 24 -58 0 -75 0 -75 -11 -40 -11 -40 -31 -65 -31 -65 -4 -68
-4 -67 39 -39 39 -39 54 -16 55 -16 123 -12 124 -11 306 12 307 11 124 0 123
0 -6 33 -7 32 -34 245 -34 245 -12 134 -12 134 6 131 5 131 17 48 17 48 34 36
34 35 55 -4 56 -5 27 -21 27 -22 30 -17 30 -18 130 0 130 0 63 18 64 17 66 26
67 27 68 44 68 45 34 45 35 45 6 35 6 34 -4 117 -5 117 -17 40 -17 40 -27 28
-27 29 -35 16 -35 16 -120 0 -120 0 -115 -23 -115 -22 -89 -31 -90 -30 -42 5
-42 4 -21 20 -20 19 -20 45 -20 45 -12 75 -12 74 7 220 6 220 7 248 6 247 -8
0 -7 0 -97 -36 -96 -36 -111 -29 -111 -28 -273 -46 -274 -46 -60 -15 -61 -15
-55 -27 -54 -27 -18 -25 -19 -25 -6 -38 -6 -37 13 -44 12 -44 23 -10 24 -11
17 -26 17 -25 -14 -48 -13 -47 -60 -61 -61 -61 -60 -23 -60 -23 -81 -5 -81 -4
-87 11 -87 12 -62 19 -62 19 -42 28 -42 27 -17 31 -17 32 7 26 6 27 30 33 30
34 16 69 16 69 -5 81 -5 81 -20 45 -20 46 -42 42 -42 42 -63 30 -64 29 -93 20
-93 20 -190 3 -190 3 -142 -4z"/>
</g>
</svg>
