<?xml version="1.0" standalone="no"?>
<!DOCTYPE svg PUBLIC "-//W3C//DTD SVG 20010904//EN"
 "http://www.w3.org/TR/2001/REC-SVG-20010904/DTD/svg10.dtd">
<svg version="1.0" xmlns="http://www.w3.org/2000/svg"
 width="398.000000pt" height="304.000000pt" viewBox="0 0 398.000000 304.000000"
 preserveAspectRatio="xMidYMid meet">
<metadata>
Created by potrace 1.16, written by Peter Selinger 2001-2019
</metadata>
<g transform="translate(0.000000,304.000000) scale(0.100000,-0.100000)"
fill="#000000" stroke="none">
<path d="M163 3033 l-142 -4 -6 -32 -6 -33 -2 -389 -2 -390 17 -73 17 -74 26
-56 26 -57 37 -38 37 -38 54 -16 54 -15 50 6 51 7 120 41 121 40 87 5 86 6 27
-7 27 -7 33 -34 32 -35 14 -48 14 -47 0 -195 0 -195 -24 -72 -23 -72 -34 -39
-33 -39 -31 -13 -31 -13 -67 5 -67 5 -75 39 -75 39 -54 0 -53 0 -38 -42 -37
-42 -26 -78 -25 -78 -42 -245 -41 -245 -29 -115 -29 -116 -24 -65 -25 -65 -21
-42 -21 -41 0 -3 0 -3 288 -3 287 -4 107 11 107 12 77 19 77 20 56 25 55 26
47 50 47 49 14 38 13 37 -1 75 -1 75 -22 45 -22 45 -25 45 -24 44 0 33 0 34
14 32 13 33 39 38 39 38 55 25 55 25 65 14 65 14 56 0 56 0 46 -14 45 -14 46
-33 47 -33 29 -44 30 -45 20 -55 21 -55 0 -78 0 -77 -11 -44 -12 -43 -31 -65
-30 -65 -5 -57 -4 -58 39 -39 39 -39 54 -16 54 -16 120 -12 120 -11 300 12
301 11 124 0 123 0 -6 15 -6 16 -34 252 -35 252 -12 134 -11 133 5 142 5 141
17 48 17 48 34 36 34 35 65 -4 65 -4 27 -22 28 -22 30 -17 30 -18 120 0 120 0
63 18 64 17 66 26 67 27 68 44 68 45 34 45 35 45 6 35 7 34 -5 107 -5 107 -17
40 -17 40 -27 28 -27 29 -35 16 -35 16 -110 0 -110 0 -115 -23 -115 -22 -89
-31 -90 -30 -51 4 -52 4 -21 20 -21 20 -20 45 -20 45 -12 75 -12 74 7 235 6
235 7 232 6 231 -94 -35 -94 -35 -111 -29 -111 -28 -274 -46 -274 -46 -58 -15
-59 -15 -52 -23 -52 -23 -22 -27 -21 -27 -6 -30 -7 -31 12 -42 12 -41 31 -20
32 -20 9 -27 9 -26 -13 -49 -14 -48 -60 -61 -61 -61 -60 -23 -60 -23 -91 -5
-91 -4 -87 11 -87 12 -62 19 -62 19 -41 27 -41 27 -17 27 -16 28 0 27 0 26 14
27 14 27 21 19 20 18 17 76 17 75 -6 68 -6 68 -19 45 -20 44 -42 42 -42 42
-63 30 -64 29 -93 20 -93 20 -180 3 -180 3 -142 -4z"/>
</g>
</svg>
