<?xml version="1.0" standalone="no"?>
<!DOCTYPE svg PUBLIC "-//W3C//DTD SVG 20010904//EN"
 "http://www.w3.org/TR/2001/REC-SVG-20010904/DTD/svg10.dtd">
<svg version="1.0" xmlns="http://www.w3.org/2000/svg"
 width="395.000000pt" height="422.000000pt" viewBox="0 0 395.000000 422.000000"
 preserveAspectRatio="xMidYMid meet">
<metadata>
Created by potrace 1.16, written by Peter Selinger 2001-2019
</metadata>
<g transform="translate(0.000000,422.000000) scale(0.100000,-0.100000)"
fill="#000000" stroke="none">
<path d="M1849 4205 l-47 -15 -32 -30 -32 -30 4 -62 4 -63 28 -75 28 -75 14
-65 14 -65 0 -95 0 -95 -15 -63 -15 -62 -30 -60 -31 -61 -40 -40 -41 -41 -55
-25 -55 -26 -187 6 -186 5 -54 17 -53 16 -26 26 -25 25 6 57 5 57 31 67 31 66
11 52 11 52 -4 86 -4 86 -21 40 -21 40 -39 36 -38 36 -35 20 -35 21 -65 20
-65 21 -65 10 -65 10 -73 6 -74 7 -254 -7 -254 -7 0 -1512 0 -1512 88 3 87 4
180 9 180 10 225 0 225 0 65 -10 65 -11 59 -16 59 -16 40 -38 39 -38 -7 -28
-7 -28 -29 -48 -30 -49 -16 -61 -15 -62 5 -115 6 -115 16 -60 17 -60 38 -80
37 -80 34 -37 34 -36 35 -21 35 -21 43 0 43 0 28 14 27 14 41 45 42 45 34 69
34 68 27 80 26 80 21 90 20 90 6 143 6 144 -12 53 -12 53 -23 24 -23 23 -12
22 -11 22 0 34 0 34 20 26 20 25 48 19 47 18 135 -1 135 -1 135 -26 135 -26
140 -40 140 -40 130 -45 129 -46 22 0 21 0 27 59 26 59 16 43 15 44 29 115 29
115 41 245 42 245 25 78 26 78 37 42 38 42 43 0 44 0 75 -39 75 -39 77 -5 78
-5 30 13 31 13 33 39 34 39 23 72 24 72 0 205 0 205 -14 47 -14 48 -32 35 -33
34 -27 7 -27 7 -96 -6 -97 -5 -120 -40 -120 -40 -42 -7 -42 -7 -53 16 -53 15
-37 38 -37 38 -26 57 -26 56 -17 74 -17 73 2 365 1 365 7 58 6 57 -14 0 -15 0
-158 46 -159 45 -130 29 -130 29 -90 17 -90 16 -175 4 -175 4 -46 -15z"/>
</g>
</svg>
