<?xml version="1.0" standalone="no"?>
<!DOCTYPE svg PUBLIC "-//W3C//DTD SVG 20010904//EN"
 "http://www.w3.org/TR/2001/REC-SVG-20010904/DTD/svg10.dtd">
<svg version="1.0" xmlns="http://www.w3.org/2000/svg"
 width="304.000000pt" height="402.000000pt" viewBox="0 0 304.000000 402.000000"
 preserveAspectRatio="xMidYMid meet">
<metadata>
Created by potrace 1.16, written by Peter Selinger 2001-2019
</metadata>
<g transform="translate(0.000000,402.000000) scale(0.100000,-0.100000)"
fill="#000000" stroke="none">
<path d="M223 4010 l-191 -5 -5 -5 -4 -5 -12 -230 -11 -230 0 -125 0 -125 10
-108 11 -108 15 -72 15 -72 25 -55 25 -55 21 -22 21 -22 34 -12 34 -11 44 6
44 7 37 29 37 30 41 12 41 12 75 -1 75 0 65 -17 65 -17 74 -37 74 -36 52 -50
51 -51 22 -46 22 -45 0 -65 0 -64 -15 -64 -16 -65 -21 -35 -21 -36 -35 -32
-35 -33 -34 -6 -34 -6 -32 6 -31 6 -68 41 -67 41 -55 1 -56 1 -27 -20 -28 -21
-22 -32 -22 -33 -22 -56 -21 -57 -54 -230 -54 -230 -26 -85 -26 -85 -39 -100
-39 -100 -45 -79 -45 -79 0 -19 0 -18 63 0 62 0 222 11 222 12 158 -11 159
-11 69 -15 70 -15 42 -15 41 -14 40 -27 40 -26 23 -43 22 -43 -11 -39 -11 -39
-30 -112 -29 -112 -12 -93 -12 -93 6 -68 6 -68 14 -32 13 -32 24 -26 24 -27
30 -15 30 -15 60 -11 59 -11 76 0 76 0 59 11 58 11 53 23 53 23 54 55 54 54
24 59 24 59 -1 115 0 115 -16 50 -16 50 -26 62 -26 62 0 33 0 32 23 33 22 33
55 21 55 21 90 14 90 14 350 10 350 9 63 7 64 7 -6 30 -6 30 0 1480 0 1480
-52 -6 -53 -6 -115 -10 -115 -11 -268 -10 -268 -11 -82 -10 -82 -9 -69 -21
-70 -21 -32 -32 -32 -32 -7 -38 -7 -37 20 -57 20 -57 27 -70 28 -70 1 -80 1
-80 -19 -35 -19 -35 -21 -21 -21 -20 -36 -22 -35 -21 -59 -16 -59 -15 -82 0
-81 0 -77 20 -77 19 -69 37 -70 36 -45 50 -46 51 -18 36 -19 36 -7 33 -7 32 7
31 7 31 34 38 35 38 21 85 21 85 -7 44 -7 44 -18 30 -19 31 -44 21 -44 22 -53
10 -54 10 -236 -2 -236 -2 -192 -6z"/>
</g>
</svg>
