<?xml version="1.0" standalone="no"?>
<!DOCTYPE svg PUBLIC "-//W3C//DTD SVG 20010904//EN"
 "http://www.w3.org/TR/2001/REC-SVG-20010904/DTD/svg10.dtd">
<svg version="1.0" xmlns="http://www.w3.org/2000/svg"
 width="302.000000pt" height="400.000000pt" viewBox="0 0 302.000000 400.000000"
 preserveAspectRatio="xMidYMid meet">
<metadata>
Created by potrace 1.16, written by Peter Selinger 2001-2019
</metadata>
<g transform="translate(0.000000,400.000000) scale(0.100000,-0.100000)"
fill="#000000" stroke="none">
<path d="M220 3990 l-195 -6 -1 -2 -1 -2 -13 -270 -13 -269 6 -148 7 -148 16
-95 16 -95 20 -52 19 -51 22 -34 22 -33 38 -18 37 -19 40 7 39 7 37 29 37 29
41 12 41 12 85 -1 85 0 65 -17 65 -17 74 -37 74 -36 52 -50 51 -51 22 -46 22
-45 0 -75 0 -74 -15 -64 -16 -65 -21 -35 -21 -36 -35 -32 -35 -33 -34 -6 -34
-6 -40 5 -40 5 -68 41 -68 42 -48 1 -47 1 -26 -20 -27 -20 -22 -32 -22 -33
-21 -56 -22 -57 -58 -247 -59 -247 -41 -123 -41 -122 -44 -91 -44 -90 -22 -37
-23 -38 7 -6 7 -7 292 13 293 12 147 -11 147 -11 68 -14 68 -15 42 -15 41 -14
40 -27 40 -26 23 -44 23 -44 -11 -48 -11 -48 -30 -112 -30 -112 -12 -92 -12
-93 7 -60 6 -60 13 -31 13 -30 24 -26 24 -27 30 -15 30 -15 60 -11 59 -11 66
0 66 0 59 11 58 11 53 23 53 23 54 55 54 54 24 59 24 59 -1 105 0 105 -16 50
-16 50 -26 64 -27 63 -1 39 0 39 23 35 24 35 55 21 55 21 90 14 90 14 350 10
350 9 63 7 63 7 -5 14 -6 15 0 1485 0 1485 -42 -6 -43 -6 -115 -10 -115 -10
-268 -10 -268 -11 -82 -10 -82 -9 -67 -20 -67 -20 -30 -26 -31 -25 -11 -37
-11 -37 20 -55 20 -55 28 -70 27 -70 1 -90 1 -90 -19 -35 -19 -35 -21 -21 -21
-20 -36 -22 -35 -21 -59 -16 -59 -15 -92 0 -91 0 -77 20 -77 19 -69 37 -70 36
-45 50 -46 51 -19 36 -18 37 -7 37 -7 37 6 36 7 35 35 38 34 39 21 78 20 79
-6 40 -6 41 -18 30 -19 31 -44 21 -44 22 -53 10 -54 10 -226 -2 -226 -2 -195
-6z"/>
</g>
</svg>
