<?xml version="1.0" standalone="no"?>
<!DOCTYPE svg PUBLIC "-//W3C//DTD SVG 20010904//EN"
 "http://www.w3.org/TR/2001/REC-SVG-20010904/DTD/svg10.dtd">
<svg version="1.0" xmlns="http://www.w3.org/2000/svg"
 width="388.000000pt" height="389.000000pt" viewBox="0 0 388.000000 389.000000"
 preserveAspectRatio="xMidYMid meet">
<metadata>
Created by potrace 1.16, written by Peter Selinger 2001-2019
</metadata>
<g transform="translate(0.000000,389.000000) scale(0.100000,-0.100000)"
fill="#000000" stroke="none">
<path d="M2185 3875 l-60 -13 -55 -25 -55 -25 -39 -38 -39 -38 -13 -33 -14
-32 0 -44 0 -43 24 -44 25 -45 22 -45 22 -45 0 -70 1 -70 -16 -35 -15 -35 -38
-42 -37 -43 -62 -30 -61 -30 -78 -20 -79 -20 -111 -11 -112 -11 -289 7 -288 7
5 -28 6 -29 6 -225 6 -225 -11 -115 -11 -115 -16 -65 -16 -65 -27 -61 -27 -61
-38 -41 -37 -41 -54 -27 -54 -26 -63 0 -62 0 -45 12 -45 12 -69 34 -69 34 -55
0 -55 0 -28 -31 -28 -32 -12 -56 -12 -56 -1 -200 -1 -200 23 -72 22 -72 33
-42 32 -42 50 -31 50 -31 105 0 105 0 91 43 91 42 22 0 23 0 30 -17 30 -18 25
-49 24 -48 15 -72 14 -71 10 -370 9 -370 7 -88 6 -87 1514 0 1514 0 0 11 0 10
-29 42 -28 42 -30 60 -30 60 -26 70 -26 70 -20 70 -20 70 -45 195 -44 195 -23
60 -22 60 -24 37 -25 37 -33 15 -33 16 -45 0 -46 0 -28 -10 -28 -11 -32 -37
-33 -37 -20 24 -20 23 -15 52 -15 51 -10 90 -10 90 0 100 0 100 14 50 13 50
21 41 20 40 33 32 32 32 44 16 43 17 49 -6 49 -6 78 -40 79 -40 48 -12 47 -11
51 4 50 5 34 33 34 33 16 46 16 46 11 115 12 114 -12 331 -12 330 0 113 0 112
-142 0 -143 0 -287 -11 -287 -12 -118 12 -119 11 -54 16 -54 16 -39 39 -40 39
5 48 5 47 30 65 31 65 12 45 12 45 0 85 0 85 -21 56 -21 56 -30 45 -29 44 -47
33 -46 33 -45 14 -46 14 -71 -1 -71 -1 -60 -13z"/>
</g>
</svg>
