<?xml version="1.0" standalone="no"?>
<!DOCTYPE svg PUBLIC "-//W3C//DTD SVG 20010904//EN"
 "http://www.w3.org/TR/2001/REC-SVG-20010904/DTD/svg10.dtd">
<svg version="1.0" xmlns="http://www.w3.org/2000/svg"
 width="386.000000pt" height="387.000000pt" viewBox="0 0 386.000000 387.000000"
 preserveAspectRatio="xMidYMid meet">
<metadata>
Created by potrace 1.16, written by Peter Selinger 2001-2019
</metadata>
<g transform="translate(0.000000,387.000000) scale(0.100000,-0.100000)"
fill="#000000" stroke="none">
<path d="M2185 3855 l-60 -13 -55 -25 -55 -25 -39 -38 -39 -38 -13 -33 -14
-32 0 -34 0 -33 24 -44 25 -45 22 -45 22 -45 1 -75 1 -75 -13 -37 -14 -38 -47
-49 -47 -50 -55 -26 -56 -25 -77 -20 -77 -19 -107 -12 -107 -11 -285 4 -285 3
3 -247 3 -246 -11 -119 -11 -118 -16 -65 -16 -65 -27 -61 -27 -61 -38 -41 -37
-41 -55 -27 -55 -27 -72 0 -71 0 -45 12 -45 13 -69 34 -69 34 -45 0 -45 0 -28
-31 -28 -32 -12 -56 -12 -56 -1 -190 -1 -190 23 -72 22 -72 33 -42 32 -42 50
-31 50 -31 95 0 95 0 91 43 91 42 32 0 33 0 30 -18 30 -17 25 -49 24 -48 15
-72 14 -71 10 -370 9 -370 7 -87 6 -88 1505 0 1504 0 -29 43 -29 42 -30 60
-30 60 -26 70 -26 70 -20 70 -20 70 -45 195 -44 195 -23 60 -22 60 -24 37 -25
37 -33 15 -33 16 -35 0 -34 0 -31 -11 -31 -11 -26 -34 -27 -35 -21 3 -21 3
-18 31 -19 32 -15 68 -14 69 -7 161 -6 160 13 55 13 54 23 45 22 46 33 32 32
32 44 16 43 17 58 -5 58 -6 79 -40 80 -41 48 -12 48 -12 41 6 40 5 34 33 33
32 16 46 16 46 11 110 12 110 -12 320 -12 320 0 118 0 117 -127 0 -128 0 -301
-11 -300 -12 -120 11 -120 12 -54 16 -54 16 -39 39 -39 39 4 58 5 57 30 65 31
65 12 43 11 44 0 77 0 78 -21 55 -20 55 -30 45 -29 44 -47 33 -46 33 -45 14
-46 14 -61 -1 -61 -1 -60 -13z"/>
</g>
</svg>
