<svg baseProfile="full" height="580" preserveAspectRatio="none" shape-rendering="geometricPrecision" version="1.1" viewBox="0,0,1030,580" width="1030" xmlns="http://www.w3.org/2000/svg" xmlns:ev="http://www.w3.org/2001/xml-events" xmlns:xlink="http://www.w3.org/1999/xlink"><title>Jigsaw puzzle piece clips</title><desc>Created with the piecemaker. Piece count: 15</desc><defs/><g><g><rect fill="white" height="580" width="1030" x="0" y="0"/></g></g><g><g><path d="M 0 0  L 206.000000 0  c -0.0,41.745207985156846 10.3,91.9136513482898 -20.01241390719035,78.38031801495647
c -16.19034830411986,-11.6 -33.05904136393684,0 -33.05904136393684,18.2863486517102
c 0,30.397084943855205 12.71957858058983,41.99708494385521 43.976240462650026,30.397084943855205
c 26.78,-11.6 16.48,40.6 9.095214808477166,66.26958172281147 c 0.0,49.73826803371613 -10.3,83.10828345882567 2.814239680339564,69.57495012549234
c 34.62072053638259,-11.6 47.9848414949604,0 47.9848414949604,27.091716541174335
c 0,18.75651431248896 -9.733231204900896,30.35651431248896 -18.503627734941055,18.75651431248896
c -26.78,-11.6 -16.48,40.6 -32.295453440358905,77.91015235417771 c 0.0,44.94898754584021 -10.3,95.87930020409155 -1.5931200429016998,82.34596687075822
c 16.07805576412944,-11.6 59.04906498755094,0 59.04906498755094,14.320699795908453
c 0,16.467554147679678 -19.017139480508312,28.06755414767968 -43.57262660600773,16.467554147679678
c -26.78,-11.6 -16.48,40.6 -13.883318338641509,80.199112518987 L 0 580 " fill="none" stroke="black" stroke-width="0.1" style="vector-effect:non-scaling-stroke;"/></g><g><path d="M 0 0  L 412.000000 0  c -0.0,31.18657617305246 10.3,85.64152786589156 -37.875519400192324,72.10819453255823
c -25.373041043985047,-11.6 -26.551433934023713,0 -26.551433934023713,24.55847213410844
c 0,15.492419166970421 12.338079851825237,27.092419166970423 42.38529196215512,15.492419166970421
c 26.78,-11.6 16.48,40.6 22.041661372060915,81.17424749969625 c 0.0,51.02451345523151 -10.3,82.37300054640473 42.90353360090068,68.8396672130714
c 6.8122588531569415,-11.6 12.928329947508871,0 12.928329947508871,27.826999453595278
c 0,14.688289927691017 -3.924276346966718,26.288289927691018 -18.134614469130824,14.688289927691017
c -26.78,-11.6 -16.48,40.6 -37.69724907927873,81.97837673897565 c 0.0,44.114875231516294 -10.3,82.56488175331549 41.44430354363341,69.03154841998216
c 15.266346745299577,-11.6 20.09499544236217,0 20.09499544236217,27.635118246684513
c 0,29.026360788037763 -13.02983914524915,40.626360788037765 -41.476402466737426,29.026360788037763
c -26.78,-11.6 -16.48,40.6 -20.062896519258153,67.64030587862891 L 0 580 " fill="none" stroke="black" stroke-width="0.1" style="vector-effect:non-scaling-stroke;"/></g><g><path d="M 0 0  L 618.000000 0  c 0.0,31.912620607907357 -10.3,96.38354851709262 -0.19637125073163322,82.85021518375929
c 45.34574604000737,-11.6 50.970265599107364,0 50.970265599107364,13.816451482907382
c 0,20.76875047531557 -34.9519314108961,32.36875047531557 -35.614518536901095,20.76875047531557
c -26.78,-11.6 -16.48,40.6 -15.15937581147464,75.8979161913511 c -0.0,10.183294637716775 10.3,83.79245624764275 -39.78025453260183,70.25912291430942
c -22.511965621327505,-11.6 -23.87486433515683,0 -23.87486433515683,26.407543752357256
c 0,13.64408715004673 11.188188318895111,25.24408715004673 36.500555031036065,13.64408715004673
c 26.78,-11.6 16.48,40.6 27.154563836722595,83.02257951661994 c 0.0,39.45862350499565 -10.3,79.80516532058306 26.313945416150794,66.27183198724973
c 29.92000578103764,-11.6 31.64168355522346,0 31.64168355522346,30.394834679416945
c 0,25.45653968067694 -38.53719191870456,37.05653968067694 -46.347577803442896,25.45653968067694
c -26.78,-11.6 -16.48,40.6 -11.608051167931357,71.21012698598973 L 0 580 " fill="none" stroke="black" stroke-width="0.1" style="vector-effect:non-scaling-stroke;"/></g><g><path d="M 0 0  L 824.000000 0  c -0.0,52.04092041478485 10.3,89.34732523891549 -18.71105988449847,75.81399190558216
c -11.821698349249582,-11.6 -39.04854615462979,0 -39.04854615462979,20.852674761084515
c 0,21.238370100417598 21.242214096899517,32.8383701004176 48.93379876802895,21.238370100417598
c 26.78,-11.6 16.48,40.6 8.825807271099308,75.42829656624907 c -0.0,11.535699878044193 10.3,84.26196260572678 0.6762701085712157,70.72862927239345
c -60.59543120591363,-11.6 -61.112394195595435,0 -61.112394195595435,25.938037394273223
c 0,29.86279235973697 8.725255753739033,41.46279235973697 17.920805082478353,29.86279235973697
c 26.78,-11.6 16.48,40.6 42.515319004545866,66.8038743069297 c -0.0,23.049312266048183 10.3,80.98574517404323 -0.06932415236842457,67.4524118407099
c -56.48552739114422,-11.6 -64.72771403552346,0 -64.72771403552346,29.214254825956772
c 0,27.204073695232154 52.49739026399114,38.804073695232155 59.37709423825265,27.204073695232154
c 26.78,-11.6 16.48,40.6 5.419943949639233,69.46259297143452 L 0 580 " fill="none" stroke="black" stroke-width="0.1" style="vector-effect:non-scaling-stroke;"/></g></g><g><g><path d="M 0 0  L 0 193.333333  c 14.256260823149164,0.0 91.31637802846123,-9.666666666666668 76.89637802846123,32.23919755066043
c -12.36,4.1347797913106525 0,17.483261374112253 26.10362197153877,17.483261374112253
c 28.639348697222204,0 40.9993486972222,-24.229581774951022 28.639348697222204,-31.048849568174628
c -12.36,-25.133333333333336 43.26,-15.466666666666669 74.3606513027778,-18.673609356598053 c 54.67166732236473,0.0 87.50841202207546,-9.666666666666668 73.08841202207546,1.9720489341057974
c -12.36,23.78755508335513 0,58.34250277647759 29.91158797792454,58.34250277647759
c 26.547957744874765,0 38.907957744874764,-23.060002654388644 26.547957744874765,-45.22980078429533
c -12.36,-25.133333333333336 43.26,-15.466666666666669 76.45204225512524,-15.08475092628806 c 34.96564883652669,-0.0 100.83386378804177,9.666666666666668 86.41386378804177,-18.9907669490938
c -12.36,-37.47056061384396 0,-37.10081303887624 16.586136211958234,-37.10081303887624
c 30.665660428023813,0 43.02566042802381,56.79716652966692 30.665660428023813,57.28679962297313
c -12.36,25.133333333333336 43.26,15.466666666666669 72.33433957197619,-1.1952196350030917 c 52.053055489309514,-0.0 102.95469412301027,9.666666666666668 88.53469412301027,-30.150553826717303
c -12.36,-26.055609144328987 0,-26.247454027851017 14.465305876989731,-26.247454027851017
c 27.25283489674817,0 39.61283489674817,16.761972173348468 27.25283489674817,19.062200374019802
c -12.36,25.133333333333336 43.26,15.466666666666669 75.74716510325183,37.33580748054852 c 27.288975640258876,-0.0 102.39968315385923,9.666666666666668 87.97968315385923,-6.04472062989987
c -12.36,-21.901092975100713 0,-44.977360381280036 15.020316846140773,-44.977360381280036
c 26.26379130495539,0 38.62379130495539,9.341816593187964 26.26379130495539,10.529384406487942
c -12.36,25.133333333333336 43.26,15.466666666666669 76.73620869504461,40.492696604691965 L 1030 0 " fill="none" stroke="black" stroke-width="0.1" style="vector-effect:non-scaling-stroke;"/></g><g><path d="M 0 0  L 0 386.666667  c 45.7870910465181,0.0 98.09841268264715,-9.666666666666668 83.67841268264715,23.032736792182213
c -12.36,24.250850085255678 0,41.13445739479851 19.32158731735285,41.13445739479851
c 15.1872531055146,0 27.5472531055146,-26.6002154722365 15.1872531055146,-35.9888049306105
c -12.36,-25.133333333333336 43.26,-15.466666666666669 87.8127468944854,-28.178389256370224 c 14.563076547302828,0.0 85.06840180233256,-9.666666666666668 70.64840180233256,40.786111159062656
c -12.36,19.046551457123766 0,20.99442553227545 32.35159819766744,20.99442553227545
c 24.893737498946223,0 37.25373749894622,-23.311975401288294 24.893737498946223,-23.29434647149192
c -12.36,-25.133333333333336 43.26,-15.466666666666669 78.10626250105378,-38.486190219846186 c 35.6950591164286,0.0 100.039099158067,-9.666666666666668 85.619099158067,26.661438318260824
c -12.36,37.459007410855705 0,37.60196834178615 17.380900841933,37.60196834178615
c 28.977490825769507,0 41.33749082576951,-46.57059325970078 28.977490825769507,-51.79895005279956
c -12.36,-25.133333333333336 43.26,-15.466666666666669 74.02250917423049,-12.464456607247406 c 33.35313683342155,-0.0 88.82014911616903,9.666666666666668 74.40014911616903,-13.230478284881649
c -12.36,-41.37467631671089 0,-46.133166536184596 28.599850883830968,-46.133166536184596
c 30.19149748877078,0 42.55149748877078,12.626586235029627 30.19149748877078,31.86665277432867
c -12.36,25.133333333333336 43.26,15.466666666666669 72.80850251122922,27.496992046737574 c 41.63306857932897,-0.0 98.0347838882052,9.666666666666668 83.6147838882052,-26.14408246257546
c -12.36,-16.758284761744353 0,-35.824214799677726 19.385216111794804,-35.824214799677726
c 24.306822324190478,0 36.66682232419048,29.13222080922632 24.306822324190478,33.302147742127886
c -12.36,25.133333333333336 43.26,15.466666666666669 78.69317767580952,28.666149520125302 L 1030 0 " fill="none" stroke="black" stroke-width="0.1" style="vector-effect:non-scaling-stroke;"/></g></g></svg>